<svg xmlns="http://www.w3.org/2000/svg" viewBox="0 0 2092 3053" id="illustration" preserveAspectRatio="xMidYMid meet">
  <title>Ranunculaceae</title>
  <g id="Masks" class="cls-1">
    <path data-name="1" data-official="Ranunculus acris" data-plain="Buttercup" data-loc="England" d="M1093.73,1806.9l-.09.2c-.08-.41-.17-.82-.24-1.23Zm330.1,11.19h0a4.49,4.49,0,0,0,.44-.69Zm205.92-21.73c-4.26,8.46-11.16,15.32-18.55,21.23a135.92,135.92,0,0,1-17.65,12,26.59,26.59,0,0,1-6.32,2.85c-2,.52-4,.63-6,1.25-5.8,1.88-9.3,7.94-14.8,10.57l-5.23,4.94a83.43,83.43,0,0,0-26.78,32.51c-.63,1.37-1.24,2.89-.82,4.33a6.5,6.5,0,0,0,2.15,2.82c7.26,6.52,15.15,12.77,19.8,21.35l.39,2.19a50,50,0,0,0-22.82,6.57c-6,3.41-11.18,8-17.11,11.52-5.5,3.22-11.53,5.42-17.44,7.8a275.47,275.47,0,0,0-45.35,23.39c16.88-6,35.32-5,53.19-3.92a151.78,151.78,0,0,1-12.14,22c12.26-.46,22.82-2,34.6,1.06,4.06,1.07,10,4.46,13.86,6.25,15,7,27.49,21,28.62,37.48l1,1c-10.23-4.06-21.68-4.26-32.53-2.41s-21.27,5.67-31.6,9.46a101.11,101.11,0,0,1,17.72,27.75l2.36,6.1-59-2a8.15,8.15,0,0,0-3.58.42c-1.58.69-2.53,2.28-3.44,3.74a72.94,72.94,0,0,1-19.28,20.67c17.88-.1,35.81-1,53.62.71s35.7,6,50.87,15.47l10.33,7a108.65,108.65,0,0,1,39.06,32.82c2.29,3.11,4.31,7.77,1.53,10.46-2.28,2.2-6.19,1.13-8.6-.93s-4.11-4.91-6.75-6.67c-5.35-3.56-12.49-1.5-18.55.67L1513.92,2167l15.56,15c-18.33,4.52-35.66,12.53-54,17s-38.81,5-55-4.66c-5.52-3.3-13.77-7.21-17.16-1.74s4.39,11.43,10.86,12.55c15,2.58,33.57.87,41.93,13.58l-25.1,3c20,7.16,38.91,18.53,52.63,34.79s21.92,37.7,19.91,58.88a225,225,0,0,1-89.23-43.59q-.39,13.38-.77,26.77l-23.93-8.1.78,1.17c-16.46-11.62-23.09-3.39-36.39-18.53-8.91-10.14-27-20.26-39.68-24.83-5.77-2.08-12-24.37-18-26-6.35-1.7-12.25-4.87-18.08-8.15-3.32,16.48-2,24.45-.39,26.75,3,4.19,5.65,8.67,8.87,12.7,8.64,10.78,21,17.75,32.49,25.4s22.91,16.86,27.8,29.78c0,0,11.11,13.13,18.64,22.3s12.32,30.73,12.61,42.59l-3,.66c-12.55-9.55-39.66-19.65-55.43-19.35a208.9,208.9,0,0,0,17.78,83.12c2.12,4.8,4.47,9.73,4.39,15s-3.51,10.87-8.73,11.44c-3.43.37-6.68-1.46-9.64-3.24-20.75-12.53-41.09-26.25-57.61-44s-29.14-39.9-31.95-64c-3.1-26.63,5.42-55.68-7.36-79.24-8.87,4.5-12.44,15.33-13.36,25.23s-.11,20.22-3.81,29.44c-2.21,5.5-5.89,10.26-9.53,14.94l-20.72,26.65-6.53,3.11a91.75,91.75,0,0,1-5.83-55.91c.6-2.83,1.27-6-.4-8.4a8,8,0,0,0-3-2.36c-7.81-3.94-18.06-2.92-24.36-9-4.55-4.4-5.6-11.38-4.8-17.66s3.15-12.26,4.37-18.47a52.67,52.67,0,0,0-.65-23.2,772.14,772.14,0,0,0-47.64,90.75l-4.25,8.69a806.08,806.08,0,0,0-44.29,193.4c-3.87,37.94-5.83,76.09-6.14,114.23-.19,21.93,1.85,44.21,1.55,64-1.74,113.3-9.23,218.83-23.09,291.67l-.57,7.52c-13,2.54-24,10.69-35.84,16.62s-26.47,9.54-37.91,2.91c-13.79-8-16.44-26.75-15.16-42.63,1.86-23.07,8.68-45.43,16-67.4,7-21.11,30-45.07,36.7-74.52,13.57-59.72,9-127.39,10.43-137.08.48-3.23,9.43-3.39,9.59-6.66,1.12-23.35-1.69-41.68-2.57-65.06s-1.87-46.64-3-70c-1.69-35.42-3.84-71.69-17.87-104.25l-4.91-8.83c.06-13.68.14-27.5,3.37-40.79,1.78-7.33,4.5-14.41,6.16-21.76,4.92-21.83.23-44.54-4.46-66.42l25.8-32a23.7,23.7,0,0,0,.44,7.82c2.57,15.27,5.88,38.22,5.88,38.22,1.25,45,4.22,94.59,8.12,141.36,1,12,2.06,23.89,3.17,35.43,1.75-8.5,11.15-33.45,11.15-33.45,3.35-10.06,7.84-32.45,8.42-45.39l9.92-43.56c-1.92-29.43,17-55.81,24.1-84.43,2.79-11.29,3.72-23,6-34.36s6.13-22.86,13.78-31.62l17.75-21.22c1.72-6.09,6.3-10.87,10-16a133,133,0,0,0,8.53-14q5.48-9.92,11-19.82c1.72-3.11,3.5-6.43,3.37-10-.21-5.52-5-9.87-10.1-12a29.13,29.13,0,0,0-24.21.84c-5.61,2.86-10.11,7.46-15.18,11.21-9.48,7-20.85,11-32.19,14.23a319.41,319.41,0,0,1-45.48,9.58l-34.7,10.71c-6.93-5.47-15.88-11.89-21.39-18.78-3.78-4.73-7.28-7.23-10.94-12-4.77-6.27-11.09-11.3-15.39-17.9s-6.15-15.86-1.37-22.12c2.27-3,7.31-2.77,9.43-5.86,5-7.26-.47-20.72,5.61-27.1,5.14,4.37,12.92,3.56,18.79.22,11.21-6.38,9.54-23.4,9.54-23.4-1.27-13.11-6.59-27.09-17.11-35-6.52-4.91-16.16-6.83-20.71-13.6l-1.47-1.57c-1.65-8.27-1-16.8-1.29-25.23-.41-13.16-3-26.15-5.9-39a761.66,761.66,0,0,0-33.14-108.23l-2.34-7.21c-2.31-25.35-6.93-51.29-20.61-72.76-3.73-5.85-8.14-11.4-10.43-18-.83-2.35-1.39-4.86-2.79-6.92-3.42-5-10.41-5.83-15.6-9l-6.11-4.1c-6.53,1-12.84-4.2-14.95-10.46s-.87-13.18,1.33-19.41l.78-1.9c-40.88-98.11-54.23-207.48-66.73-313-1.77-15-2.65-31.46-10-64.56l-2.74-14.68-21.39-31.67c-3.52-13.14-17.36-20.46-30.24-24.84s-27.12-8-35.69-18.53l-3.86-7.89c-5.41-7-14.82-9.51-23.63-10.38s-17.93-.6-26.16-3.86A33,33,0,0,1,583,1175.25a10.24,10.24,0,0,0-.34-3.71,12.53,12.53,0,0,0-2.18-3.12c-4.22-5.32-4.21-13.07-1.66-19.36a28.8,28.8,0,0,1,19.53-16.85l-3-4.58-2.15-5.13c-.81-7,.54-14,.16-21-.24-4.43-1.13-9.06.55-13.16a17.91,17.91,0,0,1,3.64-5.26,47,47,0,0,1,22.19-13.4A12.55,12.55,0,0,0,624,1068c2.78-2,3-6.11,4.91-9,2.22-3.33,6.56-4.71,10.55-4.5a5.2,5.2,0,0,0,2.33-.18c1.71-.75,1.8-3.06,2.12-4.9,1.24-7.17,9.05-10.92,15.91-13.39q12.42-4.46,25-8.35l17.33-2.47c11.75-5.39,23.09-11.76,35.22-16.25s25.36-7.06,38-4.48c7.46,1.51,29.12,17.07,36.48,19,6.91,1.83,23.61,12.91,27.09,18.16l8.39,12.38a90.86,90.86,0,0,1,4.85,12.61c.95,3.15,1.75,6.41,3.51,9.18a46.26,46.26,0,0,0,5.15,6c11.42,12.46,14.75,30.13,22.61,45.08,4.77,9.07,11.49,18.09,10.73,28.31a11.61,11.61,0,0,1-1.44,5.16,16.34,16.34,0,0,1-3.7,3.91l-13.62,11.51c-4.26,3.6-8.53,7.21-13.12,10.38-3.64,2.52-7.48,4.77-11,7.5a92.24,92.24,0,0,0-10.8,10.49q-7.47,8.11-14.76,16.41c-6.41,7.3-13,15.22-14.52,24.81l-7.25,7.52c-3.76,12.44-47.58,47.12-44.73,59.8,2,9,8.12,50,12.13,58.31,5.1,10.62,48,162,48.14,176.28.13,11.42-1.44,23,.67,34.18,4.17,22.2,21.72,39.1,32.37,59,12.73,23.78,16,52.75,33.7,73.15l5.27-6.61A35.29,35.29,0,0,1,902,1717.44c11.71-64.2,14.54-112.66,9.44-177.37l-17.71-33c-6.76-25.45-2.85-52.93-10.5-78.13-6.9-22.7-22.51-41.49-35.51-61.33s-23.94-43.24-19.65-66.57c1.18-6.38,3.71-12.87,8.79-16.91,4.57-3.63,10.56-4.83,16.34-5.66a200.08,200.08,0,0,1,61.31.73,31.36,31.36,0,0,1,8.49,2.33c8.31,4,11.87,13.7,14.67,22.48,1.45,4.55,2.91,9.25,2.52,14-.3,3.66-1.67,7.13-3,10.53q-6.51,16.28-13,32.55l.94,13c-3.22,16.86-.63,34.21.65,51.33,1.32,17.58,1.24,35.23,1.16,52.85q-.35,78.38-.7,156.74c-.06,12.56-.11,25.14-1.24,37.65-1.84,20.38-6.51,40.39-11.16,60.31l1.28,2.81a18.4,18.4,0,0,1,7.88,13c1.65-8.69,12.14-11.8,19.37-16.91,4.38-3.09,7.81-7.31,11.47-11.23a117.8,117.8,0,0,1,50.12-31.72,39.6,39.6,0,0,0-19-5.24c-3,0-6.07.27-9-.27-3.72-.66-7.08-2.6-10.35-4.5-5.4-3.15-10.94-6.41-14.76-11.36a49.84,49.84,0,0,1-4.09-6.67L934.27,1638l1.3-3.22c3.92,1,8.15,2,11.92.49,2.71-1.06,18.84,31.15,43.1,33.5-9.78-23.09-5.08-56.22-10.07-76.28-2.25-9.06-9.23-16.08-14.09-24a63.09,63.09,0,0,1-8.11-43.49l1-3.14a105.7,105.7,0,0,0,11.38,18.27c8.71,11.22,19.85,20.93,25.38,34,4.4,10.4,4.83,22,5.12,33.25.46,17.43.73,34.88,2.13,52.26a57.84,57.84,0,0,0,1.75,11.43,8,8,0,0,0,2.2,4c2.29,1.94,5.74,1.18,8.62.32a1.81,1.81,0,0,0,1.07-.63,1.75,1.75,0,0,0,0-1.42c-1.38-4.84-3.59-9.6-3.45-14.64.1-3.59,1.33-7.47-.47-10.58l-1.17-5c-6.26-28.56-6.76-58-7.21-87.26-.4-25.64-.77-51.28-.25-76.92.18-9.22.48-18.53-1.29-27.59l-2.78-6.24c1.17-4.17-1.48-8.38-4.11-11.82a192.89,192.89,0,0,0-15.34-17.72c-7-7.22-14.75-14-20.19-22.46-5.2-8.1-8.11-17.46-10.11-26.88a157.85,157.85,0,0,1-2.9-45.89,13.61,13.61,0,0,1,1-4.78,12.28,12.28,0,0,1,4.14-4.4c7.4-5.33,16.33-8,25.15-10.27,24.86-6.38,49.37-7.67,73,2.32,6.89,2.91,6.32,2.72,13,6l13.43,7c4,14,4.42,33.14-1.82,47.22-2.77,6.25-6.79,19.44-8.35,23.22s-3.17,30.06-3.17,30.06c-12.86,11.59-24.76,24.8-31.66,40.69-4.39,10.11-6.63,21-8.84,31.82-3.46,16.94-6.94,34-7.92,51.23-.64,11.3-.21,22.63.22,33.93.82,21.53,2.39,46.41,6,67.6,14.87-6.46,39.71-29.16,53.21-45.2,6.46,16-44.8,52-47.13,70.12.26,2.9,2.5,5.23,4.89,6.8a9.36,9.36,0,0,0,9.77.18c2.95-1.78,2.74-4.7,4.37-8.75s42.94-73.18,60.27-107.47a84.1,84.1,0,0,0,5-11.37c1.57-4.76,2.26-9.76,3.32-14.66,1.85-8.66,4.83-17.05,7.79-25.4l5.11-13c9.68-19.32,38.8-65.6,41.39-87.06,1.07-8.84,9.29-24.07,11.35-32.73,5.08-21.4-1.83-20.48-15.92-23.35-8.21-1.67-24.34-23.75-22.74-32,2-10.19,6.47-19.72,9.13-29.75l1.73-9.23a160.4,160.4,0,0,1,36.84-50c10.69-9.76,23-18.47,29.71-31.32,10-19.21,4.74-43-5.22-62.26s-24.23-36.06-33.37-55.7a120.16,120.16,0,0,1-10-33.89c-.8-5.72-1.16-11.74,1-17.08,1.85-4.56,5.36-8.2,8.29-12.14,10.41-14,15-33.67,30.52-41.68,8.87-4.58,19.93-4,28.84.46s15.67,12.68,19.46,21.92l1.49.94c3.38-10,11.81-17.55,21.06-22.62a29.75,29.75,0,0,1,6.93-2.93,31.79,31.79,0,0,1,8.49-.74c7.3.13,14.68,1.11,21.45,3.87s12.9,7.44,16.55,13.77l-.7.53c5.25-.75,10.68-1.1,15.8.3,7.44,2,13.4,7.55,18.63,13.22a168.71,168.71,0,0,1,12.19,14.87l3.62,8.07c2.57,1.85,5.69,2.7,8.72,3.61a176.63,176.63,0,0,1,46.82,21.89l6.16,8.16c-1.23,12.65-2.5,25.44-6.58,37.47s-11.3,23.44-22.11,30.14c-6.1,3.77-13.1,5.92-19.19,9.73s-11.46,10.06-11.18,17.23c.21,5.36,3.47,10,6.2,14.65,5,8.52,8.61,18.17,8.41,28-.18,8.53-3.13,16.73-6,24.74l-15.2,41.79c-2.41,6.65-4.84,13.34-6.11,20.3-2.57,14.13-.56,29.82-8.45,41.82l-3.16,10.13c-3.83,10.69-16.45,15.11-27.68,16.76-32.07,4.7-65.76-1.89-96.56,8.18a92.54,92.54,0,0,0-23.51,11.58c-4.3,2.93-8.41,6.29-11.32,10.6-3.64,5.38-5.19,11.86-6.84,18.14-13.36,51-37.32,98.48-61.11,145.53l-3,11.2c-6.62,10.92-16.74,19.5-22.61,30.84-2.35,4.54-4,9.42-5.91,14.14-7.62,18.49-20.21,34.42-32.63,50.08l-1,1.29c-9.53,14.19-19.29,28.93-22.25,45.77-1.09,6.26-1.21,12.64-1.39,19-.77,28.42-2.7,56.83-6.21,85a4.3,4.3,0,0,0,.38,3,4.36,4.36,0,0,0,2,1.29,122.22,122.22,0,0,1,41.72,27.53l-.08,1.58a84.85,84.85,0,0,1,8.26-31,37.15,37.15,0,0,0,10.93,19.28c3.78,3.52,8.25,6.19,12.34,9.34a84.66,84.66,0,0,1,16,16.67c16,21.52,24.32,47.66,35.55,72a314.76,314.76,0,0,0,16.16,30.55c1.7-18.16-6-36-14.42-52.26-3.39-6.56-7-13.14-8.73-20.31-1.94-7.81-1.93-16.64-7.17-22.75l-.21-.13a102.57,102.57,0,0,1,30.15,25.66c-18.54-21.36-21.85-54.62-7.87-79.22l.32-.54a120.27,120.27,0,0,1,35.11,64.1l.6.6a28.39,28.39,0,0,1,10.86-13.42c7.45,4.76,11,13.59,14.08,21.89,4.48,12.25,8.77,24.86,8.86,37.9l-.51,2.69a19.23,19.23,0,0,1,17.32-2.55,102.77,102.77,0,0,0-13.55,43.33c-.42,5.27-.43,10.57-1,15.82a79.49,79.49,0,0,1-6.94,25.29l-.58,1.71a178.77,178.77,0,0,0,33.64-93c.46-7.06.58-14.45,4-20.67,3.17-5.83,8.84-9.91,12.4-15.51-1.13,11.42,6.42,22.27,8.37,33.35,1.36-9.24,6.62-18,12.72-25.38,8.11-9.75,18-18.16,24.47-29.06,2.21-3.72,4-7.67,6-11.48a91.33,91.33,0,0,1,15.47-20.86l2.9-1.77c3.66,5.27,4.31,12,4.84,18.4l2.65,31.57c.28,3.34.56,6.68.66,10l1,.61a43.35,43.35,0,0,1,18.45-22.93,40.92,40.92,0,0,1,3.72,13.85c2.1-7,0-15.56,4.87-21,1.78-2,4.26-3.18,6.25-5,6.55-5.81,7-16.79,14.33-21.62,2.11-1.4,4.77-2.3,6.2-4.3a45.58,45.58,0,0,1,13.5,30.05l0-.54c20-28.14,53.24-43.09,84.92-56.78,6.5-2.81,13.18-5.66,20.25-6.07,6-.34,15.08,8.39,21.07,7.58,21.39-2.87,38.35-3.8,56.28,5.64Zm-641.29-48.7c10.07,2.55,18.24,9.73,25.75,16.92a6.35,6.35,0,0,0,2.88,1.88,5.84,5.84,0,0,0,2.65-.24,46.17,46.17,0,0,0,6.17-2.09l-.37-3a122.29,122.29,0,0,0-3.61-42.93c-.91-3.37-3-7.44-6.47-7a19.43,19.43,0,0,1-5.9,15.19c2.24,3.12,1.46,7.68-.91,10.71s-6,4.81-9.57,6.17S991.73,1745.64,988.46,1747.66Zm1.74,181.89c2.54-6.7,3.61-16.91,5.74-23.74,5-16,8.53-30.74.92-44.32-3.18-5.68-8.07-10.2-11.88-15.48-3.49-4.83-6.42-10.61-11.86-13.07-5.93-2.67-13.3-.23-17.7,4.57s-6.27,11.44-6.78,17.94.22,13,.24,19.53a92.24,92.24,0,0,1-3,23.56,50.87,50.87,0,0,0-1.92,8.94,39.27,39.27,0,0,0,.25,11.15c4.22,20.29,8.35,42.28,12.58,62.57,0,0,13.21-4,15.71-13.3,1-3.81,5.72-13.61,6.46-17.48C980.56,1942.15,987.21,1937.43,990.2,1929.55Zm109.44,112.72-3.24-15.79c-8.74-2.3-16.33-7.57-24.39-11.66s-17.46-7-26.06-4.25c2.5-7.59-13.28-15.34-28.44-16.06-3.49-.17-7.24-.46-10-2.65a11.64,11.64,0,0,1-3.76-6.44c-2.32-9.49,3.6-19.57,12-24.66s18.54-6.1,28.31-5.92a135.44,135.44,0,0,1,26.69,3.18c-1.45-7.25-3-14.75-7.35-20.74,14.25,1.57,22.23,2.91,35,9.4l-.13-13.37c-26.29-12.5-45.46-22.68-64.63-39.89l-13.33,7.32a327.27,327.27,0,0,0-7.95,39.72c-.8,5.84-1.45,11.77-3.37,17.35-1.42,4.1-3.49,7.94-5.28,11.89a94.07,94.07,0,0,0-8.37,39.3c0,5.76,1,12.25,5.63,15.66,8.71,6.38,21.26-3.31,31.54,0l9.47.58a60.39,60.39,0,0,1,21.82,2.65c3.25,1,6.41,2.31,9.56,3.61Z"></path>
    <path data-name="1a" data-official="" data-plain="Petal with the nectary" data-loc="" d="M547.53,2780.93c-9.14-14.81-14-32.69-11.16-49.86s14.16-33.26,30.35-39.65c6.68-2.64,13.92-3.6,21.09-4a151.12,151.12,0,0,1,29.38,1.13c6.37.87,12.72,2.15,19.15,2.21,15.67.14,31.44-7,46.63-3.09,11.22,2.86,20.11,11.28,27.85,19.89,3.12,3.46,6.21,7.13,7.74,11.53a37.75,37.75,0,0,1,1.55,8.85c2,21.54,3.12,45.05-9.16,62.87-8.9,12.92-23.6,20.78-33.25,33.16-9.36,12-13.24,27.29-16.5,42.17-2.26,10.32-5.39,22.09-14.93,26.64-5,2.36-10.73,2.2-16.21,1.66-10.48-1-21.35-3.52-29.22-10.53-2.58-2.3-4.86-5.24-5.3-8.67-.37-2.89.59-5.76,1.46-8.53,2.63-8.35,4.64-17.28,2.66-25.8-2.34-10.09-9.84-18.06-17.15-25.4-8.82-8.86-17.78-17.58-26.73-26.29Z"></path>
    <path data-name="2" data-official="Helleborus fœtidus" data-plain="Bearsfoot Hellebore" data-loc="England" d="M673.14,2093.29a16.51,16.51,0,0,1,6.62-10.34,32.35,32.35,0,0,1,11.41-5.12,62.28,62.28,0,0,1,12.21-1.95,49.09,49.09,0,0,0,8-.74c4.64-1.06,8.62-3.93,12.63-6.5,5.69-3.65,11.68-6.8,17.66-9.95a96.8,96.8,0,0,1,11.75-5.54,49.22,49.22,0,0,1,22.69-2.66s0,13.66-1.85,14.26q-11.4,3.67-22.94,6.89c-10,2.8-20.29,5.39-29.44,10.41-5.42,3-10.34,6.73-15.38,10.3a252,252,0,0,1-31.48,19S672.62,2096.61,673.14,2093.29Zm608.27,603.11c-.43,2.67-2.1,5.31-4.69,6.1-3.24,1-6.52-1.1-9.38-2.91a80.24,80.24,0,0,0-47.76-12.15c7.8,6.16,15.45,12.86,20.49,21.42s7.18,19.37,3.42,28.58c-.76,1.86-1.4,4.57-3.38,4.9-30.5,5-62.52-10.56-65.7-13.73s-18.27-18.93-22.58-20.16c-26.66-7.59-24.53,11.16-44.22,11.16-15.6,0-33.17-2.54-46.84-5.08s-23.44-5.07-23.44-5.07c.3-19.75-1.74-42-1.55-64,.29-34.71,1.93-69.43,5.14-104,21.29,12.58,65.49,53.55,86,56.23,27.7,3.62,41-35.48,67.86-36.55s45.92,13.76,47.07,20.42c0,0-27,24.09-30,38.07,11.58-.23,25.58,10.62,35.8,16.07,3.79,2,7.88,3.57,11.33,6.14,5.74,4.28,9.11,11,11.91,17.56a192.77,192.77,0,0,1,9.68,28.94A20.48,20.48,0,0,1,1281.41,2696.4ZM859.22,2332.65c4.77,6.31,10.2,12.55,17.5,15.6,4.32,1.8,9,2.37,13.72,2.67a129.79,129.79,0,0,0,50.85-7l32.89-21.12,25.8-32,5.93-11.72c1.75-6.44,5.66-12,8.35-18.15a50.41,50.41,0,0,0-20.58-63.75l-13.91-2.85c-6.93-5.47-15.88-11.89-21.39-18.78l-14.19-14.41c-23.1-4.89-47.93-9.63-69.67-.4-15-6.56-12.57-31.83-27.1-39.39l-10-.27a16,16,0,0,1-10.16,6.14l-2.54-5.93a45.22,45.22,0,0,0-15.78,16.86l-10,6.44c-8.75,6.74-14.38,16.62-20.76,25.63a158,158,0,0,1-20.87,23.94c-7.87,7.38-17.42,17.09-13.55,27.17l-5.84,30.58c-.65,3.77-3,7-4.93,10.27a67.13,67.13,0,0,0-6.47,14.23,36.61,36.61,0,0,1-1.13-21.35c.88-3.52,2.28-6.88,3.24-10.37,1.45-5.26,1.88-10.73,2.59-16.13a160.47,160.47,0,0,1,6.59-29.22,65.24,65.24,0,0,1,4.91-11.84c2.06-3.67,4.68-7,6.32-10.9a47.49,47.49,0,0,0,2.8-11.69l-.09-9.78c.5-11.79,7.57-22.44,8.68-34.19q-9,3.87-18,7.61a70,70,0,0,1-7.17,2.65c-7.14,2.08-14.71,1.89-22.14,1.68-4.41-.13-8.82-.25-13.2-.77-3.53-.41-7-1.08-10.55-1.5a144.93,144.93,0,0,0-15.87-.68,10.6,10.6,0,0,0-4,.5c-3.28,1.32-4.38,5.52-3.91,9s2,6.82,2.28,10.34l.82,8.76q7.2,30.9,14.42,61.78c1.35,5.78,2.7,11.57,3.59,17.44.8,5.28,1.22,10.61,2.21,15.87,1.42,7.6,4,14.94,5.77,22.47s2.75,15.46.92,23l-14.15-.42a330.07,330.07,0,0,1-70.15-129c-1.09-3.9-2.18-8-4.83-11l-6.05-15.07c-.79-38.28-23.56-71.12-59.87-83.25-4.36-1.46-7.17,4.1-11.25,2-3.21-1.68-11.85-14.23-15.33-15.22s-7.29-.58-11-.78c-7.36-.41-14.3-3.34-21.39-5.34l-15.94-4.1a357.34,357.34,0,0,1-94.06-33.05,44.82,44.82,0,0,1-6.91-4.17c-1.88-1.45-3.53-3.19-5.42-4.63a44.1,44.1,0,0,0-8.45-4.69c-8.41-3.88-17-7.67-26.12-9.21-8.87-1.49-18-.8-26.91-1.64-47-4.41-80.46-48.59-125.42-62.93-20.67-6.59-125.8,27.41-135,49.76s-7.09,47.71-2.34,71.41c13.87,69.09,50.34,134.5,105.92,177.82,38.72,30.18,85.86,49.46,120.32,84.42,11,11.16,19.71,57.53,17.24,65.75-11.1,37-24.22,73.7-29.31,112s-1.44,79.22,19,112,60.21,55.19,98,47.32c43.53-9.06,72.55-52.94,115.37-64.91,31.9-8.92,65.67,1.36,97.18,11.55l48.83,15.81c34.77,11.25,72.67,25,90.61,56.8l11.28,13.62q6.66,7.45,13,15.24c2.55,3.15,5.09,6.4,6.58,10.17a72.13,72.13,0,0,1,2.07,7.14c3.61,12.94,12.07,23.92,17.86,36.05,5.37,11.24,8.42,23.44,10.89,35.65a424.22,424.22,0,0,1,6.79,46.79,7.54,7.54,0,0,1-.16,3.07c-.51,1.55-1.94,2.58-3.27,3.51-5.84,4.09-11.62,8.48-15.79,14.26s-6.58,13.19-4.92,20.12c2.4,10,12.14,16.23,21.06,21.38l3.11,7.91c3.1,7,6.29,14.16,11.36,19.93a75,75,0,0,0,11.41,9.91l13.16,10c2.81,2.13,5.7,4.3,9.06,5.38,7.47,2.39,16.43-1.89,19.28-9.19l4.62-14.23c5.74-46.88-3.39-94.39-16.77-139.7-6.82-23.11-14.85-46.49-14-70.58.52-14.57,4.31-28.81,8.51-42.77q7.59-25.24,17.09-49.86c2.68-7,12.43-15.58,19.79-16.88,6.84-1.2,30.87,31.13,36.37,34.88,12.38,8.44,26.57,18.33,29.94,21.46,2.66,2.48,22.9,22.32,25.31,25,19,21.37,35.71,25.28,35.71,25.28,1.12-23.35-1.69-41.68-2.57-65.06s-1.87-46.64-3-70c-.86-17.89-1.83-36-4.39-53.75-16.58-9.58-32.33-16.7-55.58-21.58,0,0-18.94-4.31-35.31-4.25s-22-3.3-22-3.3c-19.58-5.2-38.39,10.12-58.4,13.23-9.31,1.45-19.16.28-27.89,3.8a42.09,42.09,0,0,1-14-33c.68-15.2,9.64-29.51,8.22-44.65-.56-5.92-11-29.84-12.8-35.5-7.92-24.64-10.37-36.06,3.75-57.75,1.42-2.18,4.35,3.15,6.4,1,3.86-4,7.17-15.42,9.35-19.79,3.27-6.54,10.45-12.51,11.8-19.7Z"></path>
    <path data-name="2a" data-official="Seed of Clematis vitalba" data-plain="Travellers’s joy" data-loc="Hedges, England" d="M734.26,2752.45c-3.26,3.06-7,1.7-9.8-1.81s-2.2-8.34-1.8-12.8-1.5-8.87-1.7-13.34c-.53-11.91-9.87-21.36-18.83-29.22q-16.35-14.34-33.79-27.35c-5.5-4.1-11.16-8.14-17.57-10.6-5.87-2.25-12.17-3.09-18.41-3.91l-37.27-4.92c-5.61-.74-11.39-1.54-16.31-4.35a60.92,60.92,0,0,1-8.21-6.31A79.46,79.46,0,0,0,523.78,2620c-13-.55-25.83,2-38.78,2.81-7.08.43-14.34.28-21-2.17s-12.65-7.53-14.66-14.32c-2.83-9.54,3.52-20.47,12.9-23.79,4.22-1.49,8.77-1.65,13.24-1.8L497,2580c10.22-.33,20.46-.66,30.66,0,15.77,1.1,31.26,4.68,46.66,8.25,9.58,2.22,19.31,4.5,27.85,9.37,14.78,8.43,25.21,24.19,41.46,29.25,10.26,3.2,21.45,1.61,31.94,4,13.95,3.14,25.37,12.92,35.52,23,16.75,16.64,31.82,35,39.43,55,3.92,10.26,12.36,22.82,15.35,30.62,3.93,10.26-12,21.38-22.41,18Z"></path>
    <path data-name="3" data-official="Anemone coronaria" data-plain="Poppy anemone" data-loc="levant" d="M695.47,2299.09l-95.18-155.48c-.79-38.28-23.56-71.12-59.87-83.25l-46.2-22.07c-35.92-41-92-63.53-146.33-58.65-24.53,2.2-53.52,8.15-70.38-9.82-10.85-11.55-12-28.9-12.51-44.75q-.75-22-1.49-44c-.54-16.13.13-34.95,13.11-44.56,4.37-3.23,9.87-5.12,13.19-9.42,6.13-7.92,1.37-20.33-7.06-25.74s-19-5.78-29-6c-36.28-.83-73.5-2.3-107-16.37-15.81-6.64-30.43-16-46.53-21.86s-34.75-8-50-.05c-4.54,2.36-8.72,5.58-13.67,6.88-11.3,2.94-18.06-5.46-23-16S9,1725.19,9.34,1713.53L11.71,1636c.28-9.25.58-18.62,3.16-27.5,5.05-17.37,13.24-31.11,27-42.83,34.55-29.36,75.22-50.43,115.49-71.25l49-25.3c19.9-10.29,39.87-20.61,61-28.1,38.25-13.56,79.14-17.49,119.55-21.31,37.18-3.51,74.36-7,111.62-9.57,43-2.93,87.87-4.24,127.12,13.48,13.82,6.23,27.33,15.6,32.93,29.69,6.08,15.29,1.58,32.55-3.44,48.22-1.43,4.46-3,9-5.86,12.7-8.35,10.57-24.3,10.21-36.37,16.2-20.35,10.1-26.35,35.95-28.45,58.57a494.28,494.28,0,0,0-1.73,65c.2,5,.93,10.91,5.23,13.56,3.64,2.24,8.32,1.21,12.45.1L647.48,1655l22.08,5.29c4-1.19,8.47-.35,12.29,1.45a52.14,52.14,0,0,1,10.42,7.13,8.62,8.62,0,0,1,2.92,3.35,6.84,6.84,0,0,1,.15,3.73,33.33,33.33,0,0,1-3.48,8.94,26.71,26.71,0,0,1-4.46,6.92c-2.36,2.38-5.51,3.77-8.5,5.29a86.37,86.37,0,0,0-13,8.15,7.62,7.62,0,0,0-2.56,2.77c-1,2.19.19,4.75,1.7,6.61s3.43,3.49,4.29,5.73a11.44,11.44,0,0,1,.37,5.49,29.93,29.93,0,0,1-6.22,14.74l-4.43,8.9-19,20a56.32,56.32,0,0,1-5.34,5.14,50.2,50.2,0,0,1-8.63,5.25c-5.51,2.83-11.15,5.5-17.17,7-7.52,1.84-15.38,1.73-23.09,1a11.38,11.38,0,0,0-3.82.08,10.81,10.81,0,0,0-3.43,1.86l-13.4,9.51a76.55,76.55,0,0,1,13,4.59c2.1,1,4.11,2.28,6.22,3.32,4.84,2.36,10.15,3.58,15.4,4.79,3.68.85,7.37,1.69,11.1,2.25a146.48,146.48,0,0,0,17.27,1.19l4.72,6c-1.46,4.81-.1,10.2-1.93,14.89-.67,1.71-1.75,3.25-2.39,5-1.06,2.89-7.09,17.22-.44,24.91,1.5,1.72,14.06,13,16.8,18.32,2,3.79,3.83,8.25,2.16,12.17a2.75,2.75,0,0,1-1.13,1.42,3.06,3.06,0,0,1-1.62.23,20.92,20.92,0,0,1-7.46-1.79l-8.32,2.41-29.25,14.81c-14.09,7.13-28.36,14.38-40.19,24.85s-21.15,24.7-22.39,40.45c-.58,7.28.68,19.9,4.67,26,4.42,6.8,11.67,6.11,18.45,10.57A228.74,228.74,0,0,1,644,2116.35c4.38,10.26,9.47,22.22,20.27,25l3.47,8.4.82,8.76q7.2,30.9,14.42,61.78l3.59,17.44c.8,5.28,1.22,10.61,2.21,15.87,1.42,7.6,4,14.94,5.77,22.47S697.3,2291.57,695.47,2299.09ZM733,2262.18a67.13,67.13,0,0,0-6.47,14.23,36.61,36.61,0,0,1-1.13-21.35c.88-3.52,2.28-6.88,3.24-10.37,1.45-5.26,1.88-10.73,2.59-16.13l6.7,23.35C737.24,2255.68,734.93,2258.91,733,2262.18Zm161.51,186.38c-.12,2.29-13.63,8.73-19.7,8.48-7.55-.3-29.25,14.63-34.93,15.59-3.64.61-21.15,8.69-26.78,11.27-7,3.2-27.8-2.08-28.08-3.32a70.62,70.62,0,0,1-1.64-20.95c.42-5.85-1.08-30.85-2.85-37.39-4.72-17.44-7.66-28.93-13.71-45.95-7.83-22-.35-38,6.7-48.18,1.27-1.83,4,2.06,5.56,1.51,2.94-1,4.56-11,7.65-10.78,2.48.2,4.58,1.85,6.43,3.51,19.42,17.43,29.29,43.23,47.22,62.19,5.89,6.23,12.58,11.64,18.9,17.43,8.26,7.59,15.88,15.84,23.49,24.09C888.63,2432.45,894.93,2439.87,894.47,2448.56Z"></path>
    <path data-name="4" data-official="Anemone japonica" data-plain="" data-loc="China and Japan" d="M1128.11,2710.49c5.06-3.37,11.23-5.6,23.72-2l8.31,5.51c5,3.54,8.57,8.63,12,13.63,18,25.86,35.24,52.19,52.53,78.5a23.75,23.75,0,0,1,2.68,4.92,19.27,19.27,0,0,1,.85,6.32,63.88,63.88,0,0,1-1.29,13.3c-.93,4.5-2.43,9-5.53,12.43-4.86,5.29-12.64,6.7-19.82,6.7-5.4,0-11-.67-15.68-3.32s-8.4-7.62-8.3-13c.06-3.19,1.4-6.25,1.47-9.44.08-3.67-1.51-7.16-3.28-10.38-6.42-11.66-15.64-21.68-21.34-33.71-3.31-7-5.38-14.53-9.3-21.17-2.55-4.32-5.83-8.16-8.69-12.27-5.37-7.71-5.3-16.41-7.53-25.54Zm-78.75-233.67q-4.65,27.09-7.44,54.45-.53,5.11-1,10.23c8,4.73,19.25,13.48,31.26,22.69Zm-36.6-41.48a26.75,26.75,0,0,0,6.21,11.5,2.85,2.85,0,0,0,1.24.91,3,3,0,0,0,2.5-1,38.73,38.73,0,0,0,9.91-13.13,50.73,50.73,0,0,0,2.86-8.2,52.79,52.79,0,0,0,1.86-18.1c-.54-6.14-2.46-12.06-4.16-18a249.56,249.56,0,0,1-7.26-34.53c-1.15-8.33-1.91-16.86-5.28-24.56a4.52,4.52,0,0,0-1.27-1.9,3.94,3.94,0,0,0-2.41-.64c-5.16,0-10.66,9.11-10.66,9.11.77,27.62,2.18,56.94,4.06,86.27Zm-476-456.17c-.58,7.28.68,19.9,4.67,26,4.42,6.8,11.67,6.11,18.45,10.57l14.38,8.59,39.6,31.52a68,68,0,0,0,10,7c3,1.63,6.23,2.8,9.32,4.27,10.42,5,18.83,13.27,27,21.4l12.95,4.74a16.51,16.51,0,0,1,6.62-10.34,32.35,32.35,0,0,1,11.41-5.12,62.28,62.28,0,0,1,12.21-1.95,49.09,49.09,0,0,0,8-.74c4.64-1.06,8.62-3.93,12.63-6.5,5.69-3.65,11.68-6.8,17.66-9.95a96.8,96.8,0,0,1,11.75-5.54,49.22,49.22,0,0,1,22.69-2.66l-1.85,14.26q-11.4,3.67-22.94,6.89c-10,2.8-20.29,5.39-29.44,10.41-5.42,3-10.34,6.73-15.38,10.3a252,252,0,0,1-31.48,19l-12.6,2.46a16.88,16.88,0,0,0-7.3,21.51l10.38,4.14c-.47-3.5.63-7.7,3.91-9a10.6,10.6,0,0,1,4-.5,144.93,144.93,0,0,1,15.87.68c3.53.42,7,1.09,10.55,1.5,4.38.52,8.79.64,13.2.77,7.43.21,15,.4,22.14-1.68a70,70,0,0,0,7.17-2.65q9.06-3.75,18-7.61c-1.11,11.75-8.18,22.4-8.68,34.19l57.19-17a45.22,45.22,0,0,1,15.78-16.86l2.54,5.93a16,16,0,0,0,10.16-6.14l10,.27c14.53,7.56,12.09,32.83,27.1,39.39,21.74-9.23,25.11-17.14,48.21-12.26l9.32-2.87c-4.31-6.61-6.15-15.86-1.37-22.12,2.27-3,7.31-2.77,9.43-5.86,5-7.26-.47-20.72,5.61-27.1,5.14,4.37,12.92,3.56,18.79.22,11.21-6.38,9.54-23.4,9.54-23.4-1.27-13.11-6.59-27.09-17.11-35-6.52-4.91-16.16-6.83-20.71-13.6l-1.47-1.57c-1.65-8.27-1-16.8-1.29-25.23-.41-13.16-3-26.15-5.9-39a761.66,761.66,0,0,0-33.14-108.23l-2.34-7.21c-2.31-25.35-6.93-51.29-20.61-72.76-3.73-5.85-8.14-11.4-10.43-18-.83-2.35-1.39-4.86-2.79-6.92-3.42-5-10.41-5.83-15.6-9l-6.11-4.1c-6.53,1-12.84-4.2-14.95-10.46l-15.21-10.15a120,120,0,0,1-35.95-48.85c-4.53-11.44-7.26-23.49-10-35.49q-5.44-24.09-10.9-48.16c-2-9.07-4.1-18.14-5.47-27.33-1.59-10.77-2.24-21.65-2.88-32.52l-4.11-69.38c-1-16.28-1.57-33.94,7.7-47.37L757,1382c-1.77-15-2.65-31.46-10-64.56l-2.74-14.68-21.39-31.67-69.79-51.26c-5.41-7-14.82-9.51-23.63-10.38s-17.93-.6-26.16-3.86A33,33,0,0,1,583,1175.25a10.24,10.24,0,0,0-.34-3.71,12.53,12.53,0,0,0-2.18-3.12c-4.22-5.32-4.21-13.07-1.66-19.36a28.8,28.8,0,0,1,19.53-16.85l-3-4.58-2.15-5.13c-.81-7,.54-14,.16-21-.24-4.43-1.13-9.06.55-13.16a17.91,17.91,0,0,1,3.64-5.26,47,47,0,0,1,22.19-13.4A12.55,12.55,0,0,0,624,1068c2.78-2,3-6.11,4.91-9,2.22-3.33,6.56-4.71,10.55-4.5a5.2,5.2,0,0,0,2.33-.18c1.71-.75,1.8-3.06,2.12-4.9,1.24-7.17,9.05-10.92,15.91-13.39q12.42-4.46,25-8.35l17.33-2.47,27.84-28c12.07-19.44,24.54-40.23,24.5-63.11,0-16.5-6.62-32.2-13.11-47.37-29.29-68.55-58.88-137.66-101.52-198.81-9.25-13.26-19.28-26.31-32.35-35.81-16.74-12.18-37.26-17.72-57.32-22.83-68.25-17.39-142.39-32.2-207.39-5.07-17.61,7.35-34.06,17.64-52.42,22.89-12,3.42-24.52,4.63-36.23,8.8-34,12.14-54.78,46.51-85.51,65.5-12.5,7.73-26.75,13-37.47,23-10.25,9.64-16.3,22.82-22.1,35.65C66.62,874,23.14,975.88,43.7,1076.89c7.39,36.29,22.8,70.37,38.09,104.1,28.25,62.35,56.85,125.26,98.06,179.91,8.54,11.33,17.91,22.53,30.29,29.45,10.78,6,23.15,8.41,35.35,10.29a534.79,534.79,0,0,0,297.2-39.7l19.72,18.12c13.72-1.24,28-2.42,40.89,2.45,12.17,4.59,21.82,14.13,29.75,24.44,26.44,34.35,36.94,78.19,43.78,121s10.84,86.65,26.84,126.94l-11.81,31a26.71,26.71,0,0,1-4.46,6.92c-2.36,2.38-5.51,3.77-8.5,5.29a86.37,86.37,0,0,0-13,8.15,7.62,7.62,0,0,0-2.56,2.77c-1,2.19.19,4.75,1.7,6.61s3.43,3.49,4.29,5.73a11.44,11.44,0,0,1,.37,5.49,29.93,29.93,0,0,1-6.22,14.74l-4.43,8.9-19,20a56.32,56.32,0,0,1-5.34,5.14,50.2,50.2,0,0,1-8.63,5.25c-5.51,2.83-11.15,5.5-17.17,7-7.52,1.84-15.38,1.73-23.09,1a11.38,11.38,0,0,0-3.82.08,10.81,10.81,0,0,0-3.43,1.86l-13.4,9.51a76.55,76.55,0,0,1,13,4.59c2.1,1,4.11,2.28,6.22,3.32,4.84,2.36,10.15,3.58,15.4,4.79,3.68.85,7.37,1.69,11.1,2.25a146.48,146.48,0,0,0,17.27,1.19l4.72,6c-1.46,4.81-.1,10.2-1.93,14.89-.67,1.71-1.75,3.25-2.39,5-1.06,2.89-7.09,17.22-.44,24.91,1.5,1.72,14.06,13,16.8,18.32,2,3.79,3.83,8.25,2.16,12.17a2.75,2.75,0,0,1-1.13,1.42,3.06,3.06,0,0,1-1.62.23,20.92,20.92,0,0,1-7.46-1.79l-8.32,2.41-29.25,14.81ZM782,1375a72.08,72.08,0,0,0,58.26,1.31,10.1,10.1,0,0,0,3-1.72,8.15,8.15,0,0,0,2.16-4c2.1-8.13-2.53-16.59-8.47-22.54s-13.26-10.44-18.77-16.79c-4-4.59-6.88-10-10.92-14.55-6.09-6.84-14.39-11.26-22.65-15.21-4.09-2-8.41-3.88-13-3.79s-9.34,2.81-10.37,7.23l-2,7.81c2,9,8.12,50,12.13,58.31Zm173.5,530c12.88-8.75,45.4-15.18,40.43.78-2.13,6.83-3.2,17-5.74,23.74-3,7.88-9.64,12.6-11.22,20.87-.74,3.87-5.44,13.67-6.46,17.48-2.5,9.3-15.71,13.3-15.71,13.3-4.23-20.29-8.36-42.28-12.58-62.57-.77-3.67-.1-8.65,3.71-10.47Z"></path>
    <path data-name="5" data-official="Delphinium" data-plain="Bee Larkspur" data-loc="Sibera" d="M1093.73,1806.9l-.09.2c-.08-.41-.17-.82-.24-1.23ZM902,1717.44c11.71-64.2,14.54-112.66,9.44-177.37l-17.71-33-74.11,40.22c.13,11.42-1.44,23,.67,34.18,4.17,22.2,21.72,39.1,32.37,59,12.73,23.78,16,52.75,33.7,73.15l5.27-6.61A35.29,35.29,0,0,1,902,1717.44ZM1003.87,1689a39.6,39.6,0,0,0-19-5.24c-3,0-6.07.27-9-.27-3.72-.66-7.08-2.6-10.35-4.5-5.4-3.15-10.94-6.41-14.76-11.36a49.84,49.84,0,0,1-4.09-6.67L934.27,1638l1.3-3.22c3.92,1,8.15,2,11.92.49,2.71-1.06,18.84,31.15,43.1,33.5-9.78-23.09-5.08-56.22-10.07-76.28-2.25-9.06-9.23-16.08-14.09-24a63.09,63.09,0,0,1-8.11-43.49l1-3.14a105.7,105.7,0,0,0,11.38,18.27c8.71,11.22,19.85,20.93,25.38,34,4.4,10.4,4.83,22,5.12,33.25.46,17.43.73,34.88,2.13,52.26a57.84,57.84,0,0,0,1.75,11.43,8,8,0,0,0,2.2,4c2.29,1.94,5.74,1.18,8.62.32a1.81,1.81,0,0,0,1.07-.63,1.75,1.75,0,0,0,0-1.42c-1.38-4.84-3.59-9.6-3.45-14.64.1-3.59,1.33-7.47-.47-10.58l-1.17-5c-6.26-28.56-6.76-58-7.21-87.26-.4-25.64-.77-51.28-.25-76.92.18-9.22.48-18.53-1.29-27.59l-2.32-16.51A22,22,0,0,0,972.37,1414c-6.24,1.89-11.29,6.42-16,10.94-9.88,9.52-19.67,20.51-21.67,34.08l-7.87,19.29q-.35,78.38-.7,156.74c-.06,12.56-.11,25.14-1.24,37.65-1.84,20.38-6.51,40.39-11.16,60.31l1.28,2.81a18.4,18.4,0,0,1,7.88,13c1.65-8.69,12.14-11.8,19.37-16.91,4.38-3.09,7.81-7.31,11.47-11.23A117.8,117.8,0,0,1,1003.87,1689Zm21.67,72.17a122.29,122.29,0,0,0-3.61-42.93c-.91-3.37-3-7.44-6.47-7a19.43,19.43,0,0,1-5.9,15.19c2.24,3.12,1.46,7.68-.91,10.71s-6,4.81-9.57,6.17-7.35,2.41-10.62,4.43c10.07,2.55,18.24,9.73,25.75,16.92a6.35,6.35,0,0,0,2.88,1.88,5.84,5.84,0,0,0,2.65-.24,46.17,46.17,0,0,0,6.17-2.09Zm-28.68,100.36-3.91-3.56a30.22,30.22,0,0,0-33.21-5.71,5.38,5.38,0,0,0-2.26,1.66c-.89,1.31-.58,3.07-.18,4.61,2.59,9.88,7.44,19,12.25,28,1.55,2.91,3.57,6.15,6.83,6.58l8.08,3c8.07-.21,13.78,2.39,11.48,9.76C1000.91,1889.85,1004.47,1875.07,996.86,1861.49Zm18.88,99.27c8.34-5.09,18.54-6.1,28.31-5.92a135.44,135.44,0,0,1,26.69,3.18c-1.45-7.25-3-14.75-7.35-20.74,14.25,1.57,22.23,2.91,35,9.4l-.13-13.37c-26.29-12.5-45.46-22.68-64.63-39.89l-13.33,7.32a327.27,327.27,0,0,0-7.95,39.72c-.8,5.84-1.45,11.77-3.37,17.35Zm80.66,65.72c-8.74-2.3-16.33-7.57-24.39-11.66s-17.46-7-26.06-4.25l-4,14.66a60.39,60.39,0,0,1,21.82,2.65c3.25,1,6.41,2.31,9.56,3.61l26.28,10.78Zm-55.83,210.64q.89,37.82.7,75.65l5.81,78.46c-1.92-29.43,17-55.81,24.1-84.43,2.79-11.29,3.72-23,6-34.36l-2-27.78a231.32,231.32,0,0,1,5.33-68.7l11.62-16.15c-9.48,7-20.85,11-32.19,14.23q-11.35,3.27-22.94,5.7Zm107.84,730c-2.53-58.64-5.73-117.25-9-175.85-1.25-22.08-2.55-44.41-9.1-65.52l-4-13.95c-4.92,3.63-9.35,7.84-18.68,7.84a214.58,214.58,0,0,1-25.83-1.79l-20.06,7.51c7.48,14.47,5.33,31.77,6.73,48,.78,9.05,2.71,18,4.16,26.91,5.08,31.35,4.23,63.32,3.37,95.07-.18,6.59-.36,13.21-1.63,19.68-3.86,19.76-17.66,37.39-17.19,57.52l3.77,7.63c2.2,11.06,11.3,19.34,20.48,25.88s19.29,12.51,25.41,22c4.83,7.47,7.82,17.57,16.3,20.27,6.37,2,13.5-1.47,17.53-6.8s5.57-12.12,6.55-18.73C1149.94,3004.36,1149.21,2985.66,1148.41,2967.09Zm295.81-1600.85c-3.67-9.16-10.85-18.64-20.72-18.58-5.94,0-11.21,3.57-16.08,7l-35.7,24.95c-8.6,6-18,12.27-28.49,12-21.28-.59-36.07-27.47-57.23-25.15l-26.2-9.52a111.85,111.85,0,0,0-20.68,4.53,92.54,92.54,0,0,0-23.51,11.58c-4.3,2.93-8.41,6.29-11.32,10.6a35.62,35.62,0,0,0-4.09,8.5l6.07.58c1.85.17,3.15,2.09,3.28,3.94a12,12,0,0,1-1.32,5.37l-29.73,70.62a9.51,9.51,0,0,1-2.36,3.78c-2.52,2.11-6.62,1.2-9.17,3.27-1.77,1.45-2.27,3.91-2.66,6.16-1.66,9.66-3.41,19.49-7.89,28.21-3,5.81-7.11,11-10.35,16.64l-12.77,27.8c-6.62,10.92-16.74,19.5-22.61,30.84-2.35,4.54-4,9.42-5.91,14.14-7.62,18.49-20.21,34.42-32.63,50.08l-1,1.29c-9.53,14.19-19.29,28.93-22.25,45.77-1.09,6.26-1.21,12.64-1.39,19-.77,28.42-2.7,56.83-6.21,85l2.42,4.34a122.22,122.22,0,0,1,41.72,27.53l-.08,1.58a84.85,84.85,0,0,1,8.26-31,37.15,37.15,0,0,0,10.93,19.28c3.78,3.52,8.25,6.19,12.34,9.34a84.66,84.66,0,0,1,16,16.67c16,21.52,24.32,47.66,35.55,72a314.76,314.76,0,0,0,16.16,30.55c1.7-18.16-6-36-14.42-52.26-3.39-6.56-7-13.14-8.73-20.31-1.94-7.81-1.93-16.64-7.17-22.75l-.21-.13a102.57,102.57,0,0,1,30.15,25.66c-18.54-21.36-21.85-54.62-7.87-79.22l.32-.54a120.27,120.27,0,0,1,35.11,64.1l.6.6a28.39,28.39,0,0,1,10.86-13.42c7.45,4.76,11,13.59,14.08,21.89,4.48,12.25,8.77,24.86,8.86,37.9l-.51,2.69a19.23,19.23,0,0,1,17.32-2.55,102.77,102.77,0,0,0-13.55,43.33c-.42,5.27-.43,10.57-1,15.82a79.49,79.49,0,0,1-6.94,25.29l-.58,1.71a178.77,178.77,0,0,0,33.64-93c.46-7.06.58-14.45,4-20.67,3.17-5.83,8.84-9.91,12.4-15.51-1.13,11.42,6.42,22.27,8.37,33.35,1.36-9.24,6.62-18,12.72-25.38,8.11-9.75,18-18.16,24.47-29.06,2.21-3.72,4-7.67,6-11.48l-.54-.23-17.36,6.61,6.81-14.79c2.11-4.56,4.51-9.45,9-11.75a14.59,14.59,0,0,0-11.61-3.93c.31-2.73,2-5.09,3.6-7.32l11.68-16c1.78-2.46,3.66-5.29,3.11-8.27l-4.55-5.92c-2.59-.08-5.34-.05-7.57-1.39-2.59-1.54-3.9-4.62-4.25-7.61s.1-6,.17-9-.28-6.18-2-8.65l-8.27-5.29a105.87,105.87,0,0,1-22.58-.11c.48-1.44.95-2.87,1.42-4.31a33.93,33.93,0,0,0-15.42,4.45,34.52,34.52,0,0,1,10.07-12.48,89.73,89.73,0,0,0-44,7.91,44,44,0,0,1,5.88-9.94,118.49,118.49,0,0,1,28.31-27.23c5.11-3.49,11.06-7.45,11.66-13.61,0,0-38-17.2-29.61-32.07s34.73-5.37,34.73-5.37c8,8.85,17.4,18.39,29.3,18.4,4.31,0,8.59-1.31,12.89-1,6.11.48,11.5,4.19,15.95,8.41,2.34,2.23,5.12,4.84,8.3,4.24,3.64-.68,5.19-5.29,4.44-8.92s-3-6.78-4.08-10.32c-1.83-5.84-.46-12.15.92-18.11,2.78-12,5.82-24.61,13.9-34l5.91-6.11a59.09,59.09,0,0,1-1.31-8.36c-.22-2.63-.2-5.51,1.42-7.6,1.88-2.45,5.28-3,8.31-3.6,7-1.34,13.91-3.85,19-8.73l11.45-10.16a11.83,11.83,0,0,0,10.55-12,14,14,0,0,0,12.5,4.57l-1-14a111.21,111.21,0,0,0-1.2-11.37c-1.5-8.58-5-17.34-2.64-25.72l3.37-14.58q-4-12-8.08-24.08a9.81,9.81,0,0,1-.71-3.36c0-2.41,1.74-4.41,3.13-6.39,6.44-9.19,7-21.12,7.37-32.34C1451.62,1408.23,1452.19,1386.11,1444.22,1366.24ZM1468.6,912c-5.29-1.6-8.34-7-10.8-11.94a644.44,644.44,0,0,1-61-199c-3.21-23.66-5.14-47.69-12.35-70.46-6-18.92-15.55-39.45-7.43-57.56,4.77-10.65,14.76-17.83,22.92-26.18a94,94,0,0,0-23.1-148.76C1356,387.08,1332,384.27,1309,378.91s-46.77-14.53-60.31-33.85c-21.46-30.65-11.79-79-40.86-102.52L1190,225.65c-27.69-6.14-58.77-14.77-72-39.87-11.66-22.19-7-53.7-27.16-68.58-17.36-12.8-41.75-4.57-63.13-7.39-45.2-6-67-57.53-102.08-86.61-8.2-6.8-17.63-12.56-28.11-14.46C868.66,3.5,842.35,29.32,833,57.12s-7.5,58.05-12.64,86.95c-6.71,37.69-25.12,72.08-40.12,107.31s-26.94,73.81-19.69,111.41c4.09,21.22,14.18,41.27,15.36,62.86,1.17,21.43-6.46,43.74.86,63.92,4.58,12.64,14.43,22.51,21.84,33.73,43.81,66.29-2.12,167.5,48.28,228.94,9.16,11.17,21,20.09,29.1,32s11.68,28.94,3,40.48c-5.31,7-13.93,10.52-21.75,14.58-48.07,25-75.17,84.65-62.31,137.27l-19.45,27.92c7.46,1.51,29.12,17.07,36.48,19,6.91,1.83,23.61,12.91,27.09,18.16l8.39,12.38a90.86,90.86,0,0,1,4.85,12.61c.95,3.15,1.75,6.41,3.51,9.18a46.26,46.26,0,0,0,5.15,6c11.42,12.46,14.75,30.13,22.61,45.08,4.77,9.07,11.49,18.09,10.73,28.31a11.61,11.61,0,0,1-1.44,5.16,16.34,16.34,0,0,1-3.7,3.91l-13.62,11.51c-4.26,3.6-8.53,7.21-13.12,10.38-3.64,2.52-7.48,4.77-11,7.5l-17.66,13.45-16.88,25.67c-3.4,5.17-6.79,10.34-9.86,15.7-2.89,5.07-5.54,10.5-5.92,16.32s2,12.17,7.07,15c3,1.68,6.54,2,10,2.28l18.73,2c4.57-3.63,10.56-4.83,16.34-5.66a200.08,200.08,0,0,1,61.31.73,31.36,31.36,0,0,1,8.49,2.33l9.41,4.44a255.15,255.15,0,0,0,28.43,14.64l17.16.25c24.86-6.38,49.37-7.67,73,2.32,6.89,2.91,6.32,2.72,13,6l13.43,7c4,14,4.42,33.14-1.82,47.22-2.77,6.25-6.79,19.44-8.35,23.22s-3.17,30.06-3.17,30.06c-12.86,11.59-24.76,24.8-31.66,40.69l-8.84,31.82c-3.46,16.94-6.94,34-7.92,51.23-.64,11.3-.21,22.63.22,33.93.82,21.53,2.39,46.41,6,67.6,14.87-6.46,39.71-29.16,53.21-45.2,6.46,16-44.8,52-47.13,70.12.26,2.9,2.5,5.23,4.89,6.8a9.36,9.36,0,0,0,9.77.18c2.95-1.78,2.74-4.7,4.37-8.75s42.94-73.18,60.27-107.47a84.1,84.1,0,0,0,5-11.37l2.32-12.4,5.65-15.69c7.81-21.69,15.63-43.4,21.91-65.59,1.71-6,3.35-12.19,6.79-17.41,5.67-8.63,16.21-14.85,17.23-25.13l3.71-3.86c1.07-8.84,9.29-24.07,11.35-32.73,5.08-21.4-1.83-20.48-15.92-23.35l-6.92-6.39c-5.9-1-10.49-6-12.66-11.58s-2.36-11.7-2.51-17.68c-.27-10.22-.29-21.25,5.69-29.53,4.75-6.59,12.7-10.44,17-17.32,3-4.74,3.94-10.45,4.49-16,2.88-28.92-3.51-57.94-3.54-87,0-38.28,10.94-76.38,6.85-114.44l-1.35-21.27c1.85-4.56,5.36-8.2,8.29-12.14,10.41-14,15-33.67,30.52-41.68,8.87-4.58,19.93-4,28.84.46s15.67,12.68,19.46,21.92l1.49.94c3.38-10,11.81-17.55,21.06-22.62a29.75,29.75,0,0,1,6.93-2.93,31.79,31.79,0,0,1,8.49-.74c7.3.13,14.68,1.11,21.45,3.87s12.9,7.44,16.55,13.77l-.7.53c5.25-.75,10.68-1.1,15.8.3,7.44,2,13.4,7.55,18.63,13.22a168.71,168.71,0,0,1,12.19,14.87l3.62,8.07c2.57,1.85,5.69,2.7,8.72,3.61l18.29-4.2c17.35-2.39,38.94-8.88,40.82-26.29.57-5.33-1-11.06,1.34-15.89,2.12-4.42,6.84-6.83,10.56-10C1481.53,959.62,1475.77,932.88,1468.6,912ZM1315,2620.93c-2.72,5.23-6.06,10.29-10.76,13.84s-10.56,5.43-16.24,7.2c-9,2.79-19.55,5.36-27.14-.18-8.21-6-8.32-18-7.63-28.13l.66-10.41c2.34-5,2-10.88.2-16s-5.12-9.71-8.62-13.93-7.14-8.05-11.83-10.58c-8.3-4.48-18.29-3.94-27.7-3.27l-11.2,1.75c-26.84,1.07-40.16,40.17-67.86,36.55-13.08-1.71-35.78-19-56-34.53-6.3-27-21-89.64-21-89.64a806.7,806.7,0,0,1,36.28-135.69l18-10.66c6.78-13.39,8.58-28.86,7.54-43.83-.3-4.29-.43-9.48,3.15-11.88,3.34-2.23,8-.48,10.92,2.27,4,3.78,6.23,9.09,8,14.32a149.76,149.76,0,0,1,6,23.58,17.69,17.69,0,0,1,13.22-5.57l10.56.65a8,8,0,0,1,3,2.36c1.67,2.36,1,5.57.4,8.4a89.43,89.43,0,0,0-1.89,15.12l-4.23,2.58c-1,2.5-3.91,3.54-6.31,4.78-7.77,4-12.43,12.06-16.61,19.74-4.74,8.72-10.45,17.65-12.44,27.38a122.18,122.18,0,0,0-.93,38.78c14.89-13.8,32.77-30.59,47.66-44.39l7.11-11.19,20.72-26.65c3.64-4.68,7.32-9.44,9.53-14.94l15.93,25.92a678.4,678.4,0,0,1,35,65.86c4,8.65,7.85,17.45,10.08,26.72,4.94,20.52,1.81,42.4,7.28,62.79a76.82,76.82,0,0,0,18.92,33.36c5.94,6.13,12.94,11.3,18,18.21C1327,2578.44,1324.67,2602.45,1315,2620.93Zm-214.58-228L1083,2397.9a256.19,256.19,0,0,1,4.77,39.33l13.92-11.6c-.65-5.5.56-11,1.16-16.54S1103.38,2397.67,1100.46,2393Z"></path>
    <path data-name="6" data-official="Trollius europæ" data-plain="Globe flower" data-loc="England" d="M1608.92,1782.46a31.83,31.83,0,0,1,4.74-19,58.68,58.68,0,0,1,12,21.23l-15.88-2.6M923.72,2674.64a197.33,197.33,0,0,0-8.44-31.23l-8.8-15.3c-5.5-3.75-29.53-36.08-36.37-34.88-7.36,1.3-6.53,28.22-6.53,28.22C858,2644,860.73,2652.92,858,2676c-1.29,10.76-4.37,23.51-.84,33.75,1.09,3.16-9.18,20.46-6.72,22.71s5.55,3.47,8.61,4.66,6.27,2.41,9.58,2.41c3.49,0,6.83-1.37,10.29-1.82,4.55-.6,9.19.37,13.77.05,6.7-.47,12.92-3.67,18.42-7.52a15.76,15.76,0,0,0,4.17-3.84,18.14,18.14,0,0,0,1.76-3.82q1.71-4.68,3.43-9.37a36.31,36.31,0,0,0,2.28-8.13c.28-2.31.11-4.66.32-7,.28-3.11,1.23-6.13,1.64-9.23C925.27,2684.14,924.58,2679.34,923.72,2674.64Zm17.57-330.7-6.86,17.79a462.58,462.58,0,0,0-30,69.47c-2,5.9-3.87,11.84-5.47,17.86a204.74,204.74,0,0,0-5,25.25l2.74,11c16.37-.06,35.31,4.25,35.31,4.25l8.09-7.63c10.55-15.25,21.37-31.16,24.38-49.46,1.42-8.7,1.45-18.63,7.88-24.66l6.37-18.55c4.92-21.83.23-44.54-4.46-66.42ZM1000,2290.8a23.7,23.7,0,0,0,.44,7.82c2.57,15.27,5.88,38.22,5.88,38.22,14.31,1,35-24.07,35-24.07q.18-37.83-.7-75.65l-9.63,7.21c-2.45,1.29-3.33,4.29-5,6.5-1.49,2-3.62,3.29-5.31,5.07-2.52,2.65-3.94,6.14-6,9.18a82.27,82.27,0,0,1-6.27,7.57Zm5.93-11.72L1000,2290.8l2.7-6.58c.2-3.82,2.24-7.31,4.64-10.3.34-.43.69-.85,1-1.27A40.37,40.37,0,0,0,1005.91,2279.08Zm135.72-119.29c-.21-5.52-5-9.87-10.1-12a29.13,29.13,0,0,0-24.21.84c-5.61,2.86-10.11,7.46-15.18,11.21L1080.52,2176a231.32,231.32,0,0,0-5.33,68.7l15.78-3.84,17.75-21.22c1.72-6.09,6.3-10.87,10-16a133,133,0,0,0,8.53-14q5.48-9.92,11-19.82C1140,2166.68,1141.76,2163.36,1141.63,2159.79Zm424.27-241.52-1.49-2.6c-5,.71-9.46,3.4-13.68,6.16a247.87,247.87,0,0,0-37.08,29.74l-7.19,6.17a151.78,151.78,0,0,1-12.14,22c12.26-.46,22.82-2,34.6,1.06l2-9.74a31.8,31.8,0,0,1,11.57-18.14l5.32-7a6,6,0,0,1,.93-3.31C1553.4,1933.88,1561.05,1927,1565.9,1918.27Zm85.38-653c7.41,3.72,12.65,10.72,19.67,15.12,8.89,5.58,20,6.62,29.08,11.89,9.72,5.63,16.24,15.57,25.59,21.79s20.49,8.21,31.45,9.82a548.87,548.87,0,0,0,105.16,5.21c7.67-.36,15.52-.92,22.54-4,16.84-7.46,24.15-26.73,33.73-42.45,10.42-17.1,25-31.43,34.69-49,14.25-25.94,16.46-57.27,10.86-86.32s-18.49-56.21-33.08-82a630.73,630.73,0,0,0-39.42-61.05c-8-10.94-16.44-21.71-26.75-30.5-17.18-14.66-38.7-23.13-60.11-30.33-13.69-4.6-27.59-8.81-41.9-10.78-31.58-4.35-63.9,2.44-93.46,14.4s-56.77,28.93-83.81,45.82c-5.53,3.45-11.21,7-14.93,12.4-6.22,8.93-5.72,20.91-3.24,31.5s6.67,20.91,7.08,31.78-3,21.53-6.41,31.89l-2.23,31.85c-1.64,8.76.37,17.72,1.08,26.59s-.25,18.7-6.47,25.07c-8.16,8.35-21.5,7.45-33.17,7.33s-23.49,1.18-34.31,5.52c-15.13,6-27.33,17.57-38.85,29.1-6.28,6.3-12.5,12.71-17.65,20a88.08,88.08,0,0,0-13.47,71.32c7.4,29.66,30,54,36.44,83.82,5.11,23.61-.36,48.07-5.82,71.59q-2.57,11.08-5.14,22.17l-2.57,15.53c-2.37,8.38,1.14,17.14,2.64,25.72a111.21,111.21,0,0,1,1.2,11.37l1,14a14,14,0,0,1-12.5-4.57,11.83,11.83,0,0,1-10.55,12l-11.45,10.16c-5.14,4.88-12.09,7.39-19,8.73-3,.58-6.43,1.15-8.31,3.6-1.62,2.09-1.64,5-1.42,7.6a59.09,59.09,0,0,0,1.31,8.36l-5.91,6.11c-8.08,9.35-11.12,21.92-13.9,34-1.38,6-2.75,12.27-.92,18.11,1.11,3.54,3.34,6.69,4.08,10.32s-.8,8.24-4.44,8.92c-3.18.6-6-2-8.3-4.24-4.45-4.22-9.84-7.93-15.95-8.41-4.3-.33-8.58,1-12.89,1-11.9,0-21.34-9.55-29.3-18.4,0,0-26.38-9.5-34.73,5.37s29.61,32.07,29.61,32.07c-.6,6.16-6.55,10.12-11.66,13.61A118.49,118.49,0,0,0,1256.1,1733a44,44,0,0,0-5.88,9.94,89.73,89.73,0,0,1,44-7.91,34.52,34.52,0,0,0-10.07,12.48,33.93,33.93,0,0,1,15.42-4.45c-.47,1.44-.94,2.87-1.42,4.31a105.87,105.87,0,0,0,22.58.11l8.27,5.29c1.73,2.47,2.08,5.64,2,8.65s-.52,6-.17,9,1.66,6.07,4.25,7.61c2.23,1.34,5,1.31,7.57,1.39l4.55,5.92c.55,3-1.33,5.81-3.11,8.27l-11.68,16c-1.62,2.23-3.29,4.59-3.6,7.32a14.59,14.59,0,0,1,11.61,3.93c-4.46,2.3-6.86,7.19-9,11.75l-6.81,14.79,17.36-6.61.54.23a91.33,91.33,0,0,1,15.47-20.86l2.9-1.77c3.66,5.27,4.31,12,4.84,18.4l2.65,31.57c.28,3.34.56,6.68.66,10l1,.61a43.35,43.35,0,0,1,18.45-22.93,40.92,40.92,0,0,1,3.72,13.85c2.1-7,0-15.56,4.87-21,1.78-2,4.26-3.18,6.25-5,6.55-5.81,7-16.79,14.33-21.62,2.11-1.4,4.77-2.3,6.2-4.3a45.58,45.58,0,0,1,13.5,30.05l0-.54c20-28.14,53.24-43.09,84.92-56.78,6.5-2.81,13.18-5.66,20.25-6.07,6-.34,15.08,8.39,21.07,7.58,9.32-1.25,17.8-2.13,25.89-1.95l2.34-8.66c-1.92-14.62,11-33.43,11.76-48.15-6.38-1.22-13.72-2.09-34.81-25.36-3.37-3.71-4.79-8.78-7.89-12.71-6.71-8.5-14.32-17.39-24.85-19.89s-21.44,2.12-30.14,8.48a108.24,108.24,0,0,1,11.14-22.16l-17.17-20.14-37.08,7.54q6.93-41.46,15.7-82.59c4.81-22.55,10.1-45.23,20-66.06,7.56-15.93,17.71-30.57,24.5-46.85a124.88,124.88,0,0,0,9.25-39l4-8c8.36-27,32.26-46.26,45.25-71.4,8.56-16.56,12.27-35.49,22.44-51.11S1634.62,1257,1651.28,1265.31Zm405.89,351.85c-2.77-6-6.24-12.58-12.57-14.4s-12.94,2-19.41,3.79c-8.26,2.25-17,1-25.53,2.07-7.27.92-14.21,3.53-21,6.33a352.41,352.41,0,0,0-110.74,72.83c-8.54,8.31-17.11,18-18.2,29.87-2.29,25,29,43.76,26.6,68.75-1.41,14.82-14.36,25.7-27.13,33.36a197.79,197.79,0,0,1-38.22,17.69c-15.4,5.22-33.25,10-40.67,24.42a49.19,49.19,0,0,0-36.67-24.42c-7.15-9.47-21.1-9.8-32.88-8.38s-24.92,3.38-34.48-3.66l-10,12.69c-2.41,1.75-4.91,3.61-6.24,6.27a17.51,17.51,0,0,0-1.4,5.25q-.89,6-1.2,12l-2,12.37a28.52,28.52,0,0,0,23.11,26l39,20.91,9.72,29.62a33,33,0,0,0,10.34,27.18l15.11,3.56c34.45-5,72.15-5.11,99.57-26.56,15.28-12,25.72-29.53,42-40.1,5.89-3.82,13.85-6.55,19.68-2.63,3.49,2.35,5.35,6.61,8.84,9s7.84,2.42,12,2.22a115,115,0,0,0,56.59-18.16c36.93-23.88,56.82-66.5,71.54-107.94q10.92-30.72,19.5-62.21c3.66-13.37,7-27,7.22-40.83C2080.05,1667.06,2068.49,1641.59,2057.17,1617.16Zm-632.9,200.24a4.49,4.49,0,0,1-.44.69h0Z"></path>
    <path data-name="7" data-official="Clematis viticella" data-plain="Virgin’s bower" data-loc="Spain" d="M968.94,2687.56q1.83,25.91,3.4,51.85c1.67,27.68,3,56.32-6.75,82.28-4.56,12.13-11.4,23.25-18.2,34.29a24.6,24.6,0,0,1-10.56,10.51L923.17,2875c-6.21,3.9-12.78,7.91-20.1,8.35-8.26.49-16-3.62-23.27-7.62-4.21-2.31-8.62-4.82-11-9-4.76-8.13.14-18.54,6.36-25.62s14.13-13.45,16.47-22.57c3.06-11.92-4.3-25.61,1.67-36.37,2.93-5.27,8.47-8.52,12.14-13.29,3.42-4.45,5.05-10,6.61-15.38,9.23-32,18.56-64.86,15.66-98l8.75-6c2.66,2.48,22.9,22.32,25.31,25Zm-2.52-187.23a207.3,207.3,0,0,1,21.08,10.79,232.47,232.47,0,0,0-5.56-27.55Zm62.32-20.15c3.35-10.06,7.84-32.45,8.42-45.39l4.48-19.69-6.16,10.35a50.73,50.73,0,0,1-2.86,8.2,38.73,38.73,0,0,1-9.91,13.13,3,3,0,0,1-2.5,1,2.85,2.85,0,0,1-1.24-.91l-6.57,5.76c.64,8.6,1.31,17.15,2,25.6q.8,9.66,1.66,19.15Zm74.12-71.09c-.6,5.51-1.81,11-1.16,16.54l-13.92,11.6a256.19,256.19,0,0,0-4.77-39.33l17.45-4.94C1103.38,2397.67,1103.47,2403.59,1102.86,2409.09Zm21.72,16.8a122.18,122.18,0,0,1,.93-38.78c2-9.73,7.7-18.66,12.44-27.38,4.18-7.68,8.84-15.74,16.61-19.74,2.4-1.24,5.28-2.28,6.31-4.78l4.23-2.58a91.79,91.79,0,0,0,7.72,40.79Zm101-71.25-15.93-25.92c3.7-9.22,2.89-19.54,3.81-29.44s4.49-20.73,13.36-25.23c12.78,23.56,4.26,52.61,7.36,79.24Zm799.77-823.22c-6,7-14.33,12.15-18.81,20.24-5,9-4.36,20.06-8.11,29.62-5.67,14.44-20.1,30.16-33.58,37.82-16.65,9.45-33.41,16-51.47,22.34-21.46,7.57-47.47,5.81-65.13-8.55-4.89-4-9-9.13-14.79-11.64s-14.16-.78-15.77,5.31c-.76,2.87.18,5.88,1.1,8.7q9.67,29.52,19.36,59l11.63,23.35c-2.29,25,29,43.76,26.6,68.75-1.41,14.82-14.36,25.7-27.13,33.36a197.79,197.79,0,0,1-38.22,17.69c-15.4,5.22-33.25,10-40.67,24.42a49.19,49.19,0,0,0-36.67-24.42c-7.15-9.47-21.1-9.8-32.88-8.38s-24.92,3.38-34.48-3.66l-10,12.69c-2.41,1.75-4.91,3.61-6.24,6.27a17.51,17.51,0,0,0-1.4,5.25q-.89,6-1.2,12l-2,12.37a28.52,28.52,0,0,0,23.11,26l39,20.91,9.72,29.62a33,33,0,0,0,10.34,27.18l15.11,3.56c34.45-5,72.15-5.11,99.57-26.56,15.28-12,25.72-29.53,42-40.1l14.82.42c-4.59,9.37-8.56,22.2-.56,28.9,3,2.51,7,3.36,10.73,4.61,15.19,5.1,26.9,18,33.58,32.53s8.87,30.8,9.7,46.81c.28,5.26.41,10.62-.95,15.71-1.5,5.62-4.73,10.63-6.44,16.19-2.67,8.67-1.47,18-.46,27q2.45,22,3.18,44.19c.61,18.67.15,38.06-7.87,54.93-7.54,15.89-21.15,28.17-29.5,43.65-3.84,7.13-6.39,16.3-1.84,23,5.9,8.68,20,6.92,27.72-.2,6.54-6,10.52-15,18.37-19.19,12.39-6.63,28.64,2.79,33.71,15.89s1.84,27.91-3,41.1c-5.94,16.26-15.14,32.6-30.6,40.39l-14.16,13.56-92.58,50.21c-5.16,2.8-10.4,5.65-14.6,9.75-11.53,11.27-12.83,29.9-7.82,45.23s15.16,28.32,24.42,41.52c17.42,24.81,32.52,52.26,36.54,82.31,4.12,30.76-3.65,61.79-12.7,91.48-7.74,25.35-16.88,51.16-34.62,70.85-26.79,29.74-69,40.73-109,41.66s-79.78-6.65-119.81-7.19c-15.39-.2-32.61,0-43.7-10.71-8-7.73-10.74-19.32-13.07-30.23l-13.74-64.31c-2.21-10.34-9.9-23.73-19.5-19.28-4.23,2-6.2,6.81-7.49,11.29-6.62,23-5.31,47.43-5.06,71.37s-.85,48.79-11.64,70.17-33.74,38.35-57.44,35c-9.47-1.35-18.2-5.71-26.74-10-28.91-14.54-59.12-30.21-77.06-57.14-21.19-31.81-21.06-72.74-20.18-111,1-43,2.16-87.08,17.68-127.23,7.54-19.5,21.19-39.71,41.9-42.54,6.56-.89,14.7-.69,17.87-6.49,2.66-4.86-.19-10.9-3.73-15.17a49.35,49.35,0,0,0-35.39-17.59l-15.61-8a208.9,208.9,0,0,1-17.78-83.12c15.77-.3,42.88,9.8,55.43,19.35l3-.66c-.29-11.86-5.07-33.43-12.61-42.59s-18.64-22.3-18.64-22.3c-4.89-12.92-16.3-22.13-27.8-29.78s-23.85-14.62-32.49-25.4c-3.22-4-5.85-8.51-8.87-12.7-1.65-2.3-2.93-10.27.39-26.75,5.83,3.28,11.73,6.45,18.08,8.15,2.39.65,4.83,4.64,7.27,9.33l7.92,8.91c4.74,2.39,8.25,6.6,11.84,10.52,6.78,7.42,14.35,14.23,23.13,19.11l7.48,2.93c13.3,15.14,19.93,6.91,36.39,18.53l-.78-1.17,23.93,8.1q.38-13.38.77-26.77a225,225,0,0,0,89.23,43.59c2-21.18-6.18-42.62-19.91-58.88s-32.6-27.63-52.63-34.79l25.1-3c-8.36-12.71-26.94-11-41.93-13.58-6.47-1.12-14.31-7-10.86-12.55s11.64-1.56,17.16,1.74c16.2,9.7,36.66,9.14,55,4.66s35.67-12.49,54-17l-15.56-15,50.69-18.12c6.06-2.17,13.2-4.23,18.55-.67,2.64,1.76,4.34,4.61,6.75,6.67s6.32,3.13,8.6.93c2.78-2.69.76-7.35-1.53-10.46a108.65,108.65,0,0,0-39.06-32.82l-10.33-7c-15.17-9.48-33.06-13.8-50.87-15.47s-35.74-.81-53.62-.71a72.94,72.94,0,0,0,19.28-20.67c.91-1.46,1.86-3.05,3.44-3.74a8.15,8.15,0,0,1,3.58-.42l59,2-2.36-6.1a101.11,101.11,0,0,0-17.72-27.75c10.33-3.79,20.74-7.6,31.6-9.46s22.3-1.65,32.53,2.41l-1-1c-1.13-16.46-13.67-30.52-28.62-37.48-3.83-1.79-9.8-5.18-13.86-6.25l2-9.74a31.8,31.8,0,0,1,11.57-18.14l5.32-7a6,6,0,0,1,.93-3.31c4.66-8.81,12.31-15.71,17.16-24.42l-1.49-2.6c-5,.71-9.46,3.4-13.68,6.16a247.87,247.87,0,0,0-37.08,29.74l-7.19,6.17c-17.87-1.06-36.31-2.06-53.19,3.92a275.47,275.47,0,0,1,45.35-23.39c5.91-2.38,11.94-4.58,17.44-7.8,5.93-3.49,11.14-8.11,17.11-11.52a50,50,0,0,1,22.82-6.57l-.39-2.19c-4.65-8.58-12.54-14.83-19.8-21.35a6.5,6.5,0,0,1-2.15-2.82c-.42-1.44.19-3,.82-4.33a83.43,83.43,0,0,1,26.78-32.51l5.23-4.94c5.5-2.63,9-8.69,14.8-10.57,1.93-.62,4-.73,6-1.25a26.59,26.59,0,0,0,6.32-2.85,135.92,135.92,0,0,0,17.65-12c7.39-5.91,14.29-12.77,18.55-21.23l-9.88,1.61a66,66,0,0,0-30.39-7.59l2.34-8.66c-1.92-14.62,11-33.43,11.76-48.15-6.38-1.22-13.72-2.09-34.81-25.36-3.37-3.71-4.79-8.78-7.89-12.71-6.71-8.5-14.32-17.39-24.85-19.89s-21.44,2.12-30.14,8.48a108.24,108.24,0,0,1,11.14-22.16l-17.17-20.14-8.06-15.71c.12-29.27-10.89-62.26,6.94-85.48,9.35-12.18,24.81-18.39,34.4-30.38,13.42-16.78,12.37-40.36,14.31-61.76,1.9-20.87,7.24-41.25,12.56-61.52,4.64-17.68,9.54-35.9,20.81-50.29,12.09-15.45,31.18-26.08,37.6-44.62,2.57-7.42,2.87-15.61,6.5-22.56s12.75-12.2,19.31-7.9c2.67,1.75,4.29,4.67,6.11,7.29,11.34,16.26,32,22.37,50.74,29a365,365,0,0,1,50.43,22.18c6.23,3.32,12.55,7,16.76,12.65,4.06,5.48,5.77,12.32,7,19a198.65,198.65,0,0,1-1.36,80c25.6-10.22,41.45-35.63,63.4-52.3,33.77-25.64,83.43-28.1,119.58-5.92,23,14.12,39.72,36.4,54.69,58.88,10,15,19.55,30.6,23.62,48.1S2037,1517.82,2025.3,1531.42Zm-399.63,253.3a58.68,58.68,0,0,0-12-21.23,31.83,31.83,0,0,0-4.74,19l.87-.34Z"></path>
  </g>
</svg>