
<svg xmlns="http://www.w3.org/2000/svg" viewBox="0 0 2118 2699" id="illustration" preserveAspectRatio="xMidYMid meet">
    <title>Sarraceniaceæ</title>
    <path id="bg" d="M669.87,2465.5l-13.82,6.09q9.11-28.56,15.39-57.93l28.44-4.39a84.4,84.4,0,0,1-12.64,41.91,34.39,34.39,0,0,1-7.07,8.61C677.13,2462.3,673.47,2463.91,669.87,2465.5Zm101-97.11-.12-.79Zm-.44-2.88-.12-.81Zm1.31,9.26c0-.28-.07-.56-.11-.84C771.63,2374.21,771.66,2374.49,771.7,2374.77Zm-.41-3.21-.06-.4Zm9,95.79,5.63-3.74c.12.35.25.68.37,1-5.45-15.3-9.61-31.08-13.74-46.8l-3.64-7.1a52.2,52.2,0,0,0,3.14-12.53L760,2422.1a119.51,119.51,0,0,0-12.2,22.06c-4.3,10.16-7.17,20.87-10,31.53,6.67-3.1,14.34-2.73,21.7-2.78S774.69,2472.1,780.31,2467.35Zm79.44-342.14a67.35,67.35,0,0,1-6.08,7.77A67.35,67.35,0,0,0,859.75,2125.21Zm-87.41,270.68v0Zm.23-3.49,0,.8ZM772,2377c0,.22,0,.44.07.66C772,2377.39,772,2377.17,772,2377ZM441.29,2405.6l-26.6,9.17a219,219,0,0,0,59.41,66.47c-5.62-14.2-6.2-29.95-11.32-44.34A74.09,74.09,0,0,0,441.29,2405.6ZM230.42,2048h-20.6A310.22,310.22,0,0,1,221,2088.56C222.33,2074.68,226,2061.27,230.42,2048Zm620.94,87.29-5.46,4.28,5.46-4.28c.8-.75,1.57-1.54,2.31-2.35C852.93,2133.79,852.16,2134.58,851.36,2135.33ZM894.6,2048H882.74l-13.66,6.54Zm-312.86,408c1,.92,2.58.16,3.66-.66a50,50,0,0,0,18.89-31.55l.82-3.44a34,34,0,0,0-19.3,21.92C584.53,2447,584.21,2452,581.74,2456.07Zm190.9-65.77c0-.24,0-.49,0-.73C772.65,2389.81,772.64,2390.06,772.64,2390.3Zm0-3.92c0,.15,0,.3,0,.45C772.62,2386.68,772.62,2386.53,772.61,2386.38Zm-.14-3.19c0,.28,0,.56,0,.83C772.5,2383.75,772.49,2383.47,772.47,2383.19Zm-.15-2.19c0-.21,0-.42-.05-.63C772.29,2380.58,772.31,2380.79,772.32,2381Zm89.24-258.56c1.19-1.87,2.32-3.77,3.43-5.67C863.88,2118.67,862.75,2120.57,861.56,2122.44Zm36.18-64.82,4.89-7.93c.48-.57,1-1.12,1.5-1.65H894.6C897.41,2050.18,898.32,2054.13,897.74,2057.62ZM1615.06,2429c-.08.53-.17,1.05-.26,1.57C1614.89,2430,1615,2429.51,1615.06,2429Zm2.24-6.76c19.77-13.26,47.56-13.29,67.36-.07-8.09-9.83-14.25-21.09-21.81-31.33s-17-19.75-29-24l-17.81-55.72,4.74,59.76c-7.21,15.27-3.68,33.16-4.83,50-.12,1.81-.31,3.6-.54,5.4,0-.38.11-.74.15-1.12Zm-1.87,4.08c-.11.89-.23,1.79-.37,2.68C1615.2,2428.09,1615.32,2427.19,1615.43,2426.3Zm-1.07,6.69c.15-.81.3-1.63.44-2.44C1614.66,2431.36,1614.51,2432.18,1614.36,2433Zm-6.71,23c-.39,1.06-.79,2.12-1.2,3.17C1606.86,2458.13,1607.26,2457.07,1607.65,2456Zm3.93-2.63a76.73,76.73,0,0,1,35.4-6.73c-4.55-4-9.3-8.19-15.13-10-4.43-1.33-9.24-1.18-13.59-2.74l-4-.32c0-.22.07-.43.12-.65a146.85,146.85,0,0,1-6.71,23l.33-.85ZM2118,2048v651H0V2048H100.81a139,139,0,0,0,4.92,22.17,476.64,476.64,0,0,0,60.05,129.89,479.9,479.9,0,0,1-69.91-43.4c-9.23-6.9-18.41-14.24-29.23-18.18s-23.88-3.91-32.91,3.24c-14.34,11.36-12.11,33.44-7.81,51.22,3.7,15.28,8,30.7,16.42,44,16.66,26.37,46.51,40.64,73.74,55.85a584.36,584.36,0,0,1,105,75L232,2380c8.92,3.76,15.42,11.5,23.13,17.35,7.2,5.46,15.48,9.27,23.25,13.86,17.74,10.49,32.7,25,47.31,39.53-11.75-10.7-29-13.59-44.64-17.44-20-4.91-39.25-12.37-58.45-19.8l-12.2-13.06a181.74,181.74,0,0,0-56.21-23.33,47.69,47.69,0,0,0-12.5-1.55c-4.61.19-9.08,1.55-13.49,2.89l-26.69,8.15c-12,3.66-25.62,8.77-29.84,20.61-1,2.69-1.6,5.92-4.13,7.25-1.5.79-3.3.67-5,.57-12.92-.75-26.82,1.7-36.2,10.61-4.43,4.2-7.66,11.06-4.52,16.29,1.44,2.4,3.94,4,6.45,5.2a54.24,54.24,0,0,0,30.33,5.32c9.41-1.09,19.67-4.48,27.78.4,5,3,7.95,8.66,12.6,12.26,3.09,2.4,6.82,3.8,10.49,5.16,21.84,8.12,43.88,16.29,66.93,19.66l6.11-.65c40.6,5.42,83.74,3.66,119.85,23,8.91,4.76,17.16,10.72,26.22,15.2,12.9,6.38,27.09,9.62,41.13,12.8,21.21,4.8,43.64,9.56,64.37,3l11.41-2.28c10.05-1.7,21.8-7,22.41-17.22a87.38,87.38,0,0,0,71.4-15c-1,9.81,7.94,18.4,17.56,20.6s19.62-.33,29.16-2.84l27.51-7.24a25.16,25.16,0,0,1,8.14-1.21c3.16.23,6.09,1.64,9,2.83a76.08,76.08,0,0,0,69.71-7c7-4.69,13.72-10.77,22.09-12,6.54-1,13.06,1.22,19.54,2.48a71.82,71.82,0,0,0,54.83-12l.17-2.29c-.4-.8-.79-1.6-1.18-2.4,9.15,18.81,21.57,36.26,38.21,48.86,18.79,14.24,41.79,21.52,64.3,28.56l42.87,13.4c12.17,3.8,24.42,7.62,37.07,9.23a141.92,141.92,0,0,0,31.11.18,204.07,204.07,0,0,0,55.52-13.25c31.09-12.24,58.6-31.87,85.77-51.31,4.74-3.4,9.55-6.86,13.15-11.45,8.43-10.76,10.07-27.37,22.17-33.74a19.23,19.23,0,0,1,19.69,1.34l2.64,2.83c-3.21,6.63,3.63,14.11,10.73,16.12s14.89,1.12,21.66,4c12.86,5.51,16.61,21.49,20,35.07,4.57,18.36,11.68,36.58,24.32,50.66,20.81,23.19,53.42,31.85,84.47,34.42,43.83,3.64,89.45-3,127.44-25.16,11.21-6.53,21.62-14.32,32-22.1a232.93,232.93,0,0,0,21-17.06c22.64-21.48,35.71-50.9,48.22-79.49,2.09-4.78,4.18-9.58,6.17-14.43l-.11.26,7.08,7.32a91.8,91.8,0,0,0,70.82,19.3l-10.77,15.41c-1,1.39-2,2.85-3.62,3.46s-3.24.24-4.85,0a71,71,0,0,0-41.06,5c-8,3.53-16.16,10.32-15.36,19,10.31-6.9,24-6.07,36-2.92s23.57,8.38,35.92,9.5c4.73.43,9.55.27,14.12,1.54,8.45,2.35,15.51,9.48,24.28,9.57-1.67,17.7,10.9,35.67,28.09,40.18l3.35-2.27c-3.7-13.55,2.28-28.07,11-39s20.18-19.49,29.9-29.63,18-22.86,18.1-36.9c6.91-4.55,17,1.4,19,9.42s-1.67,16.42-6.57,23.09-11.06,12.46-15,19.73c-5.23,9.59-6.15,21.2-3.63,31.83,5.48-10.65,18.1-14.92,28.59-20.68,14.54-8,26.77-20.76,32.26-36.41s3.61-34.13-6.47-47.3a37.45,37.45,0,0,1,27.16-22.31c4.3-.82,9-.8,12.75,1.46,5.12,3.1,7.17,9.77,6.49,15.72s-3.58,11.39-6.42,16.67c8.51,4.38,19.73,8.49,26.8,2,2.9-2.64,4.29-6.55,5.12-10.38a49.15,49.15,0,0,0-40.48-58.92,164,164,0,0,0,20.9-37.51l30.13-4.41c30.26,13.37,67,10.91,95.22-6.37,7.29-4.46,14.16-10,18.55-17.33,5.8-9.68,6.72-21.41,7.49-32.66,1.13-16.35,2.26-32.8.7-49.12-3.26-34.22-18.08-66.12-27.08-99.3-10-36.91-12.76-75-14.15-113.27ZM549.33,2631.92a28.69,28.69,0,1,0-28.69,28.69A28.69,28.69,0,0,0,549.33,2631.92Zm694.25,16.56a26.16,26.16,0,1,0-26.16,26.16A26.16,26.16,0,0,0,1243.58,2648.48Zm554-30.75a19.69,19.69,0,1,0-19.68,19.69A19.69,19.69,0,0,0,1797.54,2617.73ZM795.27,2486.44c-.6-1.27-1.19-2.53-1.77-3.81C794.08,2483.91,794.67,2485.17,795.27,2486.44Zm-6.12-14.2c.21.54.42,1.08.64,1.62C789.57,2473.32,789.36,2472.78,789.15,2472.24Zm-1.72-4.51c.2.55.41,1.09.61,1.63C787.84,2468.82,787.63,2468.28,787.43,2467.73Zm140.08-284c.07.94.17,1.87.25,2.81l3-14.6C927.24,2174.45,927.15,2179.5,927.51,2183.75Zm-114.41,13,3.57-14.15A58.05,58.05,0,0,1,831.92,2150l14-10.43c-4.69-.47-8.77-3.3-12.61-6a15.08,15.08,0,0,1-4.17-3.86c-2.13-3.32-1.53-8.09-4.31-10.89L820.44,2101l.73,8.53c-1.57,4.63-3.19,9.35-6.18,13.22-1.36,1.77-3,3.32-4.4,5.05-3.47,4.21-5.66,9.3-7.8,14.32l-11.86,8.42,27,7.1ZM791,2476.87l.59,1.41Zm813.37-12.5c.53-1.3,1-2.6,1.56-3.91C1605.44,2461.77,1604.92,2463.07,1604.39,2464.37Zm2.06-5.19c-.16.43-.33.86-.5,1.28C1606.12,2460,1606.29,2459.61,1606.45,2459.18ZM904.22,2288.47c12-3.33,24.44-7,36.72-4.92l6.76-12.82a308.82,308.82,0,0,1-19.94-84.17l-1.83,9.08c2.13,11.13-1.87,22.55-7.21,32.54s-12.08,19.3-16.15,29.87c-2.31,6-3.9,12.68-8.49,17.22l-9.71,15.07C890.89,2292,897.74,2290.26,904.22,2288.47Zm219.38-78.33-32.39,41,19.24-10.35C1119.52,2233.71,1123.55,2221.65,1123.6,2210.14Z"></path>
    <path data-name="1" data-official="Sarracenia purpurea" data-plain="Purple Side-saddle Flower" data-loc="Canada" d="M1654.79,1563.19a174.68,174.68,0,0,1-1.23,61l4.69,40.83c-3.36,24.14,8.86,47.29,17.65,70a262.61,262.61,0,0,1,17.17,109.57l-1.44,53a510.23,510.23,0,0,1-24,52.71c-2.6,5-5.29,9.86-8,14.77l-13,27.2a704.38,704.38,0,0,1-156.42,140.76l.19,12.7q.78,8.45,1.54,16.89l7.58,10.12c4.13.07,8.42.11,12.17-1.61,4.22-2,7.2-5.87,11.16-8.3,8.16-5,18.62-2.78,27.89-.4l20.5-8.23A78.86,78.86,0,0,1,1619,2203l24.83,21.27c5.17,9.24,1.9,20.72-1.47,30.76l-4.45,13.26c-2.26,6.71-4.54,13.48-8.24,19.52s-9,11.37-15.64,13.77a30.58,30.58,0,0,1,2,9.58l4.74,59.76c-7.21,15.27-3.68,33.16-4.83,50-1.37,20.24-9.62,39.3-17.75,57.9-12.51,28.59-25.58,58-48.22,79.49a232.93,232.93,0,0,1-21,17.06c-10.38,7.78-20.79,15.57-32,22.1-38,22.16-83.61,28.8-127.44,25.16-31-2.57-63.66-11.23-84.47-34.42-12.64-14.08-19.75-32.3-24.32-50.66-3.38-13.58-7.13-29.56-20-35.07-6.77-2.9-14.57-2-21.66-4s-13.94-9.49-10.73-16.12l-2.64-2.83a19.23,19.23,0,0,0-19.69-1.34c-12.1,6.37-13.74,23-22.17,33.74-3.6,4.59-8.41,8.05-13.15,11.45-27.17,19.44-54.68,39.07-85.77,51.31a204.07,204.07,0,0,1-55.52,13.25,141.92,141.92,0,0,1-31.11-.18c-12.65-1.61-24.9-5.43-37.07-9.23l-42.87-13.4c-22.51-7-45.51-14.32-64.3-28.56-18.12-13.72-31.24-33.18-40.58-53.9s-15.15-42.81-20.93-64.79l-3.64-7.1c6-15.3,3.52-32.46.91-48.7q-2.82-17.65-5.66-35.32c-1-6-1.94-12.07-4.17-17.73-2.66-6.75-7-12.68-11.45-18.42a431.25,431.25,0,0,0-28.24-32.91c-3.23-3.4-6.56-6.8-8.74-10.95-2.77-5.26-3.5-11.32-5.17-17-7.69-26.34-34-42.35-59.2-53.17,9-7.22,11.64-19.43,15.17-30.38s10.08-22.8,21.39-24.84c12.22-2.2,23.23,8.19,35.59,9.39,6.63.65,13.34-1.39,19.93-.39,9.62,1.47,17,9,24.72,14.87s18.6,10.39,26.92,5.33l27,7.1q-3.6,29.37-7.19,58.74c-.23,1.88-.41,4,.74,5.49,1.46,1.91,4.26,1.93,6.65,2.22,8,1,14.72,7,18.9,14s6.34,14.89,9.08,22.53a152.19,152.19,0,0,0,11.49,24.7l26.8,5.08c6.52,1.63,13.37-.08,19.85-1.87,12-3.33,24.44-7,36.72-4.92l6.76-12.82a308.36,308.36,0,0,1-20.19-87c-.36-4.25-.27-9.3,3.2-11.79,1.92-1.37,4.43-1.56,6.79-1.71,5.91-.35,12-.7,17.67.85s11,5,16.74,6.83c4.63,1.44,9.54,1.77,14.2,3.1a64.63,64.63,0,0,1,13.37,6.07,546.31,546.31,0,0,1,91.73,64l19.24-10.35c9.07-7.08,13.1-19.14,13.15-30.65s-3.37-22.72-6.74-33.72q-2.73-8.88-5.45-17.77l1.41-14.45c-3-13.92-19.21-19.62-30.49-28.32-19.36-14.93-25.38-41-31.68-64.58a17.91,17.91,0,0,0-2.7-6.47,18.2,18.2,0,0,0-4.38-3.67l-35.1-23.54-17.51-.5a36,36,0,0,1-14.83-13.78l-4.19-12.89c5.18-15.59,16.65-28.1,26-41.56,16.88-24.18,29.6-52.62,32.87-81.93,1.05-9.42,2.3-21.23-1.1-30.08-4.68-12.19-18.51-20.8-29.19-28.32-12.93-9.11-27.31-15.85-43.14-15.92-11-.05-21.45,4.08-31.62,8.15-6.48-13.5-22.34-21.81-37.12-19.45l-22.47-17.66a115.08,115.08,0,0,1-3.51-38.93l-6.16-23.68A510.69,510.69,0,0,0,878.45,1509c-1.25-16-3.29-32.19-8.59-47.39-6.25-18-17.14-35.41-15.36-54.34,1.9-20.12,17.7-36,33.92-48.07,5.67-4.21,11.64-8.33,15.61-14.18,5.42-8,6.54-18.47,12.58-26a24.49,24.49,0,0,1,41.17,4.58c3.43-8,13.09-11.72,21.73-11s16.51,4.06,24.08,8.28c18.16,10.12,36.51,21.45,56.63,26.66l12.48,2.07c9.46-2.66,19,3.47,26.6,9.65,9.62,7.79,19.18,16.87,22.37,28.83l3.95,18.15c-9.55,17.14-9.52,38.8-1.53,56.72,4.6,10.33,11.16,20.46,9.56,31.65a20.46,20.46,0,0,1-31.16,14.4,184.39,184.39,0,0,0,.65,47.81l21,32.54c7.34,12.53,8.67,27.57,9.83,42q5.38,67.33,10.78,134.67l.94,23.61-4.35,30.39c-.44,3.07-.88,6.24-.1,9.25a21.06,21.06,0,0,0,5.46,9c36.14,37.7,41.74,89.09,51.84,137.5l31.18,18.53c-18.76-77.64,4.87-136.14,48.28-157.09l13.53-46.65a592.06,592.06,0,0,1,13.73-59.1c1.19-4.17,2.45-8.39,2.47-12.73s-1.34-8.88-4.62-11.72l6.87-14.33,16.23-84.8c2.55-13.35,4.6-28.76-4.22-39.09l-1.17-16.23q1.76-75.8,3.5-151.6c.34-14.87,1-30.67,9.38-42.94l6.35-16.4q.63-27.15-1.15-54.27c-.91-13.93-2.37-28.09-7.88-40.92l-13.46-24.76L1267.49,1027c-8.79-34.19-23.31-74.26-57.72-82.14-36.24-8.3-69.63,25.53-106.8,26.19-39,.7-69-34.89-84.84-70.6-22.91-51.82-28.73-111.93-11.35-165.87,16.69-51.76,54.26-100.79,45.14-154.4-1.83-10.78-5.57-21.48-4.43-32.35,2.09-19.95,20.22-34.78,39.16-41.41,52-18.23,110.27,9.06,164.16-2.61,11-2.39,21.9-6.41,33.18-6.1,8.78.25,17.26,3.13,25.49,6.23A432.87,432.87,0,0,1,1362,527.79c52.47,28.21,100,68.59,127.34,121.53,36.93,71.55,33.18,156.41,28.53,236.8-2.16,37.5-6.47,79.47-35.33,103.52-18,15-42.86,20.25-59.76,36.46-30,28.79-23,77.22-18.51,118.55,4.2,38.68-35.82,77.81-40.07,116.49l-10.17,2.38c2.81,19,3.65,38.27,4.48,57.48q.76,17.38,1.51,34.77l10.76,22.89c4.52,25.87-1.22,52.26-4.78,78.28a469.24,469.24,0,0,0-4,79.91l.49,10.46c.55,5.91-3.44,11.13-6.2,16.39-4.26,8.12-5.77,17.35-7.22,26.4l-16.74,104.27.24,9.6c-5.15,10.81-6.76,22.9-8.72,34.71a509.85,509.85,0,0,1-10.88,49.93l17.25,37.33c5.9.66,11.78-1,17.44-2.86q18.15-5.8,35.77-13.12c4.56-1.9,9.32-4,12.19-8.08l18.06,0a145.65,145.65,0,0,0,29.93-29.47,14.47,14.47,0,0,0,2.57-4.44,15.23,15.23,0,0,0,.11-6.31l-3.87-31.93-7.17-15.72q-.19-29.54-.37-59.07l3.41-24.14c6.53-16.75,5.87-35.28,6-53.26.11-28,2.21-48,6.29-75.74.66-4.49,1.59-17,3.62-21,8.81-17.62,35-30.88,50.36-34.93,12.89-3.39,26.5-2,39.76-.66l36.38,3.78c7.92.83,15.88,1.65,23.63,3.5s15,4.63,22.62,6.8a284.14,284.14,0,0,0,28.18,6l39,7,.15.52c2.12,9.51-.68,19.58-5.61,28s-11.87,15.41-18.72,22.32l-2.66,2.68-8.11,9.92c-3.76,3.1-5.51,8.1-5.81,13S1654,1558.38,1654.79,1563.19ZM1217.42,2622.32a26.16,26.16,0,1,0,26.16,26.16A26.17,26.17,0,0,0,1217.42,2622.32Z"></path>
    <path data-name="1a" data-official="" data-plain="Pistil" data-loc="" d="M1926.12,1540.22c-11.7-5.75-20.11-16.67-25.94-28.32s-9.48-24.27-14.32-36.37a198,198,0,0,0-78.57-93.85c-9.1-5.66-18.88-10.77-25.71-19-11.94-14.42-12.22-35.43-7.42-53.51s14-34.76,19.29-52.7c3.69-12.46,5.62-25.76,12.59-36.72,11.38-17.9,33.4-25.54,54.09-30.19a381.67,381.67,0,0,1,101.43-8.87c19.28.91,38.92,3.4,56.22,11.95,19.16,9.48,34,25.64,48.41,41.44s29.32,33,31.23,54.14c.76,8.45-.68,16.93-2.11,25.29q-6.46,37.79-12.92,75.58c-1.94,11.32-4.15,23.25-11.59,32-10.81,12.72-29.1,15-45.32,19-12.07,2.91-24.21,7.38-33.13,16s-13.88,22.26-9.48,33.88c5.37,14.19,23.3,24,21.12,39a23.53,23.53,0,0,1-4.6,10.24c-13.41,18.42-42.86,22.31-60.59,8Z"></path>
    <path data-name="1b" data-official="" data-plain="Section of Ovary" data-loc="" d="M1978,1715.83l-8.77-16.58c-2.25-4.27-4.51-8.53-6.64-12.85-5.24-10.6-9.81-21.66-11.78-33.31s-1.17-24,3.91-34.69c7.7-16.13,24.57-26.62,42.15-29.84,9-1.65,18.41-1.61,27.1,1.2,13.75,4.44,24.43,15.26,33.47,26.52a128.94,128.94,0,0,1,15.16,22.83c13,26,12.57,56.35,11.86,85.39-.13,5.45-.35,11.2-3.2,15.85-4.43,7.22-13.67,9.57-22,10.93-15.09,2.45-30.71,3.68-45.54,0s-28.88-13-35.18-26.94Z"></path>
    <path data-name="1c" data-official="" data-plain="Seed magnified" data-loc="" d="M1989.28,1818.08c-1-8.73-2.1-17.58-.89-26.29s4.95-17.42,11.89-22.83c4.77-3.71,10.72-5.63,16.67-6.67,13.84-2.42,29.37.11,39.24,10.12,9.49,9.62,12,24.21,11.3,37.71a54.45,54.45,0,0,1-2.84,15.77c-2.33,6.42-6.37,12.1-9,18.41s-3.65,13.94,0,19.72c4.87,7.72,16.21,9.45,20.82,17.33,4,6.83,1.1,16.1-4.79,21.39s-14,7.33-21.84,8.28c-9.31,1.11-19,.89-27.75-2.49-2.33-.9-4.68-2.1-6.12-4.15a15.57,15.57,0,0,1-2-5.15,479.88,479.88,0,0,0-24.21-71.13Z"></path>
    <path data-name="2" data-official="Sarracenia variolaris" data-plain="Hook-leaved Side-saddle flower" data-loc="Carolina" d="M1302.16,1339.75c-13.85-2.84-24.52-13.54-36.79-20.57-10.94-6.26-23.25-9.62-34.92-14.39-28.87-11.83-53.37-32.16-80.69-47.24-23.31-12.87-48.53-21.83-73.62-30.74-22.36-7.94-44.75-15.89-67.59-22.36-46-13.06-93.95-20.07-141.81-18.89l-18-.18c-3.75-2.18-5.49-4.36-9.24-6.54a7.35,7.35,0,0,1-2.89-2.42c-.83-1.43-.61-3.22-.35-4.86,1.65-10,4.28-20,9.27-28.89s12.51-16.55,21.94-20.35c4.39-1.77,9.08-2.66,13.63-4,7.34-2.12,12.36-5.34,18.75-9.54a7.36,7.36,0,0,0,2.72-2.62c1.49-3-1.64-6.54-4.95-6.93s-6.47,1.22-9.55,2.5c-15.84,6.57-33.8,4.9-50.73,2.14s-34.15-6.52-51.08-3.79c-18.11,2.93-34.31,13-52.17,17.2l-21.57,2.43c-13-1.74-21.3-14.14-31-23-11.11-10.2-25.48-16.4-40.26-19.42s-30-3-45.07-2l-16.56.88c3.68-53.44,7.36-105.19,7.36-158l34.44,7.35c45.62,1.27,85.85,30.34,130.71,38.73,16,3,32.35,3.3,48.51,5.12,28.93,3.27,57.07,11.35,85.05,19.39,153.31,44.09,314,92.52,425,207.12l6.88,25.9L1331,1246.5c5.51,12.83,7,27,7.88,40.92q1.78,27.09,1.15,54.27Zm-4.42,186.9c-7.94,2.22-15.6-4-21.09-10.18-20.66-23.14-34.65-51.51-54.54-75.31s-49-43.64-79.8-39.84l-16.69,4.9c-9.55,17.14-9.52,38.8-1.53,56.72,4.6,10.33,11.16,20.46,9.56,31.65a20.46,20.46,0,0,1-31.16,14.4,184.39,184.39,0,0,0,.65,47.81l21,32.54c7.34,12.53,8.67,27.57,9.83,42q5.38,67.33,10.78,134.67l.94,23.61-4.35,30.39c-.44,3.07-.88,6.24-.1,9.25a21.06,21.06,0,0,0,5.46,9c36.14,37.7,41.74,89.09,51.84,137.5l31.18,18.53c-18.76-77.64,4.87-136.14,48.28-157.09l13.53-46.65a592.06,592.06,0,0,1,13.73-59.1c1.19-4.17,2.45-8.39,2.47-12.73s-1.34-8.88-4.62-11.72l6.87-14.33,16.23-84.8c2.55-13.35,4.6-28.76-4.22-39.09l-1.17-16.23Zm-728.53,28.46c21.49-2.79,43.94,3.36,64.7-2.86,8.85-2.66,16.89-7.44,25.25-11.38,11.38-5.37,23.42-9.22,35-14.24a19.32,19.32,0,0,0,6.18-3.72c1.68-1.69,2.71-3.91,4-5.93,4.38-7,11.86-12,14.79-19.64,1.13-3,1.51-6.15,2.3-9.22s2.1-6.18,4.61-8.13,6.43-2.32,8.72-.12l6.18.37c6.86,2.46,14.37-.32,21.12-3.07,20.29-8.27,41-16.78,57.57-31.08,10.22-8.8,19-19.87,31.41-25.21l3.52-13.63c1.9-20.12,17.7-36,33.92-48.07,5.67-4.21,11.64-8.33,15.61-14.18,5.42-8,6.54-18.47,12.58-26a24.49,24.49,0,0,1,41.17,4.58c3.43-8,13.09-11.72,21.73-11s16.51,4.06,24.08,8.28c18.16,10.12,36.51,21.45,56.63,26.66l12.48,2.07-3.61-22c-23.2-38.24-67.8-59.93-112.31-64.29s-89.19,6.55-131.39,21.37l-8.86,9.71a32.21,32.21,0,0,0-10.39,34.93,45,45,0,0,0,3.8,8,76.78,76.78,0,0,0,9.57,13c-6.18-.08-12,2.51-18,4.16-14.27,3.94-29.4,2.47-44.13,1L731,1370a59.82,59.82,0,0,0-29,38.74,5.23,5.23,0,0,1-.6,1.77,3.56,3.56,0,0,1-4,1.2,9.57,9.57,0,0,1-3.69-2.47,75.84,75.84,0,0,1-9.65-11.06l-23.55-6.81c-8.76,5-19.48,5.74-28.14,10.92-4.91,2.93-8.91,7.15-12.51,11.59-8.74,10.8-15.41,23.09-22.89,34.8s-16,23.09-27.51,30.93l-10.05,4.54c-1.29,1.07-3.12,1-4.79,1.06-3.33.06-6.88.71-9.26,3a4.86,4.86,0,0,1-1.23,1c-1.19.59-2.57-.15-3.73-.79a27.32,27.32,0,0,0-18.24-2.77l-7.77-3.63a60.7,60.7,0,0,0-20.55-6.41,121.25,121.25,0,0,0-15.72-.58c-7.36,0-14.78.09-22,1.48-2.7.52-5.63,1.41-7.09,3.74a11,11,0,0,0-1.22,5.36c-.3,5.4-.41,11.4,3.13,15.5a21.22,21.22,0,0,0,5.94,4.3,66.68,66.68,0,0,0,11.07,5.33c4.92,1.66,10.15,2.16,15.16,3.53s10,3.84,12.76,8.26l12.75,2.59a129.58,129.58,0,0,0,13.22,4.25c3.28.92,6.56,1.85,9.91,2.47a55.78,55.78,0,0,0,15.48.67Zm554.39,655c0-11.51-3.37-22.72-6.74-33.72q-2.73-8.88-5.45-17.77l1.41-14.45c-3-13.92-19.21-19.62-30.49-28.32-19.36-14.93-25.38-41-31.68-64.58a17.91,17.91,0,0,0-2.7-6.47,18.2,18.2,0,0,0-4.38-3.67l-35.1-23.54-17.51-.5-37.07,29.22c-4.64,3.14-7.35,8.38-9.57,13.53-10,23.28-13.76,48.72-17.4,73.81l-4.65,32.06,8.44,6.22c1.92-1.37,4.43-1.56,6.79-1.71,5.91-.35,12-.7,17.67.85s11,5,16.74,6.83c4.63,1.44,9.54,1.77,14.2,3.1a64.63,64.63,0,0,1,13.37,6.07,546.31,546.31,0,0,1,91.73,64ZM869.08,2054.58A95.14,95.14,0,0,0,820.44,2101l4.37,17.86c2.78,2.8,2.18,7.57,4.31,10.89a15.08,15.08,0,0,0,4.17,3.86c3.84,2.74,7.92,5.57,12.61,6l5.46-4.28c6.39-6.06,10.89-13.8,15.3-21.42l26.94-46.61c1.77-3.05,3.57-6.2,4.14-9.68s-.33-7.44-3.14-9.58ZM321.78,840.25a108.79,108.79,0,0,0-44,25.59C270.25,873,263.38,883,266,893c1.89,7.33,8.28,12.48,14.3,17.07,10.26,7.82,21.15,15.92,33.94,17.63,9.3,1.24,19.49-.9,27.63,3.79,11.71,6.74,12.38,22.94,17.21,35.57,9.12,23.86,34.66,36.23,53.93,53,6.82,5.94,13.12,12.71,21.15,16.87,4.8,2.49,10.05,4,15.25,5.45q52,14.85,102.61,34.37l15.64-.61c3.68-53.44,7.36-105.19,7.36-158L558,887c-6.7-8.22-17.83-11.37-28.39-12.31s-21.32-.16-31.65-2.53c-4.65-1.07-9.21-2.79-14-3-5.54-.31-11,1.36-16.56,1.54-5.74.19-11.41-1.22-17-2.63L415,859.12l-7.31-9.56c-10.16-1.09-20.13,4.43-27,12s-11,17.13-15.16,26.48c-7.74-10.52-3.54-25.93-9.35-37.62ZM1294,196.44c-37.35-6.9-81-18.95-93.59-54.8-5.5-15.69-3.58-33.24-9-48.95-10.19-29.49-42.52-44.41-72.24-53.88a641.26,641.26,0,0,0-256-27.16c-12.35,1.2-24.84,2.8-36.35,7.46-12.56,5.08-23.41,13.56-33.92,22.12C759,68.81,726.29,98.82,703.08,135.82c-21.66,34.54-34.22,73.86-46.56,112.71-5.83,18.36-11.49,39.16-2.34,56.11,4.34,8,11.54,14.11,18.89,19.54,28.71,21.17,63,36.14,85,64.18,21.35,27.17,28.93,64,53.54,88.25,22.47,22.14,55.24,29.88,86.56,33.67a494.45,494.45,0,0,0,104.9,1.48c43.83-4.05,87-13.94,130.92-16.88,17.31-1.16,34.7-1.23,51.94-3.1,19-2.07,37.77-6.31,56.82-8.08,108-10,210.12,62.52,267.21,154.71s78.06,201.53,98,308.11l-2.72,31.79c-45.13,43.8-70.21,107.51-67,170.33,1.91,37.75,13.37,76.35,2.7,112.61-2,6.8-4.88,13.57-10,18.5-9.65,9.32-25.07,9.85-37.88,5.84s-24-11.76-36.17-17.51a124.5,124.5,0,0,0-76.87-9.62l-15.8,2.68-10.17,2.38c2.81,19,3.65,38.27,4.48,57.48q.76,17.38,1.51,34.77l10.76,22.89c4.52,25.87-1.22,52.26-4.78,78.28a469.24,469.24,0,0,0-4,79.91l.49,10.46c.55,5.91-3.44,11.13-6.2,16.39-4.26,8.12-5.77,17.35-7.22,26.4l-16.74,104.27.24,9.6c-5.15,10.81-6.76,22.9-8.72,34.71a509.85,509.85,0,0,1-10.88,49.93l17.25,37.33c5.9.66,11.78-1,17.44-2.86q18.15-5.8,35.77-13.12c4.56-1.9,9.32-4,12.19-8.08l18.06,0a145.65,145.65,0,0,0,29.93-29.47,14.47,14.47,0,0,0,2.57-4.44,15.23,15.23,0,0,0,.11-6.31l-3.87-31.93-7.17-15.72q-.19-29.54-.37-59.07l3.41-24.14c6.53-16.75,5.87-35.28,6-53.26.11-28,2.21-48,6.29-75.74.66-4.49,1.59-17,3.62-21,8.81-17.62,35-30.88,50.36-34.93,12.89-3.39,26.5-2,39.76-.66l36.38,3.78c7.92.83,15.88,1.65,23.63,3.5s15,4.63,22.62,6.8a284.14,284.14,0,0,0,28.18,6l39,7,.15.52c2.12,9.51-.68,19.58-5.61,28s-11.87,15.41-18.72,22.32l-2.66,2.68-8.11,9.92c-3.76,3.1-5.51,8.1-5.81,13s.66,9.7,1.41,14.51a174.68,174.68,0,0,1-1.23,61l4.69,40.83c-3.36,24.14,8.86,47.29,17.65,70a262.61,262.61,0,0,1,17.17,109.57l-1.44,53a510.23,510.23,0,0,1-24,52.71c-2.6,5-5.29,9.86-8,14.77l-13,27.2a704.38,704.38,0,0,1-156.42,140.76l.19,12.7q.78,8.45,1.54,16.89l7.58,10.12c4.13.07,8.42.11,12.17-1.61,4.22-2,7.2-5.87,11.16-8.3,8.16-5,18.62-2.78,27.89-.4l20.5-8.23A78.86,78.86,0,0,1,1619,2203l24.83,21.27c5.17,9.24,1.9,20.72-1.47,30.76l-4.45,13.26c-2.26,6.71-4.54,13.48-8.24,19.52s-9,11.37-15.64,13.77a30.58,30.58,0,0,1,2,9.58l17.81,55.72c12,4.22,21.43,13.73,29,24s13.72,21.5,21.81,31.33c-19.8-13.22-47.59-13.19-67.36.07l-1.72,3c-.33,2.85-.78,5.66-1.34,8.46l4,.32c4.35,1.56,9.16,1.41,13.59,2.74,5.83,1.76,10.58,5.91,15.13,10a76.73,76.73,0,0,0-35.4,6.73l-3.6,1.78q-1.76,4.77-3.7,9.47l7.08,7.32a91.8,91.8,0,0,0,70.82,19.3l-10.77,15.41c-1,1.39-2,2.85-3.62,3.46s-3.24.24-4.85,0a71,71,0,0,0-41.06,5c-8,3.53-16.16,10.32-15.36,19,10.31-6.9,24-6.07,36-2.92s23.57,8.38,35.92,9.5c4.73.43,9.55.27,14.12,1.54,8.45,2.35,15.51,9.48,24.28,9.57-1.67,17.7,10.9,35.67,28.09,40.18l3.34-2.27c-3.69-13.55,2.29-28.07,11-39s20.18-19.49,29.9-29.63,18-22.86,18.1-36.9c6.91-4.55,17,1.4,19,9.42s-1.67,16.42-6.57,23.09-11.06,12.46-15,19.73c-5.23,9.59-6.15,21.2-3.63,31.83,5.48-10.65,18.1-14.92,28.59-20.68,14.54-8,26.77-20.76,32.26-36.41s3.61-34.13-6.47-47.3a37.45,37.45,0,0,1,27.16-22.31c4.3-.82,9-.8,12.75,1.46,5.12,3.1,7.17,9.77,6.49,15.72s-3.58,11.39-6.42,16.67c8.51,4.38,19.73,8.49,26.8,2,2.9-2.64,4.29-6.55,5.12-10.38a49.15,49.15,0,0,0-40.48-58.92,164,164,0,0,0,20.9-37.51l30.13-4.41c30.26,13.37,67,10.91,95.22-6.37,7.29-4.46,14.16-10,18.55-17.33,5.8-9.68,6.72-21.41,7.49-32.66,1.13-16.35,2.26-32.8.7-49.12-3.26-34.22-18.08-66.12-27.08-99.3-20.79-76.54-10.25-158-21.35-236.54A432.67,432.67,0,0,0,1970.56,1793l-3.81-10.87-15.81-112.37c-5.3-37.68-10.89-76.26-28.94-109.75-8.13-15.08-18.6-28.74-29-42.34l-44-57.38c-13.57-17.7-29.13-36.68-51.06-40.78-4.76-.89-9.86-1.1-13.91-3.73-3.22-2.09-5.36-5.45-7.21-8.81-26.72-48.51-10.24-108.44,6.78-161.14,5.61-17.35,11.4-35.06,22.4-49.58,5.86-7.73,13.06-14.37,18.83-22.16,11.46-15.51,16.61-34.63,22-53.14,10.89-37.33,25.93-77,58.88-97.62,14-8.8,31.47-14.37,39.9-28.64,3.88-6.58,5.32-14.29,6.45-21.84a348.72,348.72,0,0,0-2.36-116.2c-1.46-7.63-3.25-15.42-7.63-21.84-6.65-9.74-18.22-14.86-29.56-18.1-22-6.28-45.13-7.28-68-7.65-37.41-.62-76.44.7-109.49,18.23l-32.2,15a34.48,34.48,0,0,1-11.5,20.51c-7-74.88-31-147.85-67.47-213.61-14.35-25.87-30.66-50.71-49.73-73.31-17.11-20.27-36.35-38.61-55.54-56.91-48.7-46.43-97.45-92.91-149.48-135.58-3.48-2.85-7.09-5.84-8.9-10-2.13-4.84-1.42-10.39-.9-15.65,4.36-43.75-9-90.86-42.16-119.75ZM1777.86,2598a19.69,19.69,0,1,0,19.68,19.69A19.69,19.69,0,0,0,1777.86,2598Z"></path>
    <path data-name="3" data-official="Heliaphora nutans" data-plain="Nodding Heliamphora" data-loc="Guiana" d="M200.86,765.75a70.22,70.22,0,0,1-20.56-53.68c.48-7.75,2.37-15.63,6.91-21.93,5.95-8.27,15.6-12.85,24.2-18.31,18.87-12,33.72-29.17,48.29-46.11l44.91-52.27c9.45-11,19.1-22.33,23.88-36,15.55-44.58-25.37-89.36-26.93-136.55-.66-20.12,5.94-39.7,12.46-58.75q7.35-21.47,14.69-42.95c1.64-4.77,3.32-9.65,6.42-13.63,2.92-3.76,6.92-6.5,10.86-9.16q48.63-32.83,99.49-62.2c19-11,39-21.8,60.89-22.93,39-2,72.07,26.49,100.53,53.21l47.28,60.17c4.34,8,11.54,14.11,18.89,19.54,28.71,21.17,63,36.14,85,64.18,21.35,27.17,28.93,64,53.54,88.25l27.6,15.07c52,52.33,82.79,125.25,83.92,199,.19,12.61-.61,25.84-7.1,36.66s-18,17.89-29,24.39c-26.2,15.53-54,31.52-84.47,31.74-26.21.18-50.84-11.38-76-18.79s-54.63-10-75.48,5.94C636,782.23,628.62,801.12,622,819q-13.51,36.59-27,73.16l-8,26c0,52.85-3.68,104.6-7.36,158l16.56-.88c15.05-1,30.29-1,45.07,2s29.15,9.22,40.26,19.42c9.66,8.87,18,21.27,31,23L734,1117.3c17.86-4.16,34.06-14.27,52.17-17.2,16.93-2.73,34.14,1,51.08,3.79s34.89,4.43,50.73-2.14c3.08-1.28,6.24-2.89,9.55-2.5s6.44,4,4.95,6.93a7.36,7.36,0,0,1-2.72,2.62c-6.39,4.2-11.41,7.42-18.75,9.54-4.55,1.32-9.24,2.21-13.63,4-9.43,3.8-16.95,11.49-21.94,20.35s-7.62,18.86-9.27,28.89c-.26,1.64-.48,3.43.35,4.86a7.35,7.35,0,0,0,2.89,2.42c3.75,2.18,5.49,4.36,9.24,6.54l18,.18,11,10.44c9.37,7.35,19,15,24.42,25.65s5.26,25-3.55,33c-4,3.61-9.18,5.51-14.24,7.33l-45,16.15-13.93,6.51-8.86,9.71a32.21,32.21,0,0,0-10.39,34.93,45,45,0,0,0,3.8,8,76.78,76.78,0,0,0,9.57,13c-6.18-.08-12,2.51-18,4.16-14.27,3.94-29.4,2.47-44.13,1L731,1370a59.82,59.82,0,0,0-29,38.74,5.23,5.23,0,0,1-.6,1.77,3.56,3.56,0,0,1-4,1.2,9.57,9.57,0,0,1-3.69-2.47,75.84,75.84,0,0,1-9.65-11.06l-23.55-6.81c-8.76,5-19.48,5.74-28.14,10.92-4.91,2.93-8.91,7.15-12.51,11.59-8.74,10.8-15.41,23.09-22.89,34.8s-16,23.09-27.51,30.93l-10.05,4.54c-1.29,1.07-3.12,1-4.79,1.06-3.33.06-6.88.71-9.26,3a4.86,4.86,0,0,1-1.23,1c-1.19.59-2.57-.15-3.73-.79a27.32,27.32,0,0,0-18.24-2.77l-7.77-3.64a60.9,60.9,0,0,0-20.55-6.4l-13.37-15.92c-31-30.14-27.72-79.61-36.69-121.92-5.18-24.43-15.05-47.59-21.76-71.64a286.7,286.7,0,0,1-4.68-134c4.83-23.54,15.9-49.75,39.07-56.1,25.06-6.87,48.8,13.08,67.16,31.46l10.6-5.84a53,53,0,0,0,22.4-18l11-7.56c3.68-53.44,7.36-105.19,7.36-158L558,887c-6.7-8.22-17.83-11.37-28.39-12.31s-21.32-.16-31.65-2.53c-4.65-1.07-9.21-2.79-14-3-5.54-.31-11,1.36-16.56,1.54-5.74.19-11.41-1.22-17-2.63L415,859.12l-7.31-9.56c-10.16-1.09-20.13,4.43-27,12s-11,17.13-15.16,26.48c-7.74-10.52-3.54-25.93-9.35-37.62l-34.49-10.21L302.15,831C281.81,795.69,229.92,794.32,200.86,765.75ZM928.75,2037.33a35.13,35.13,0,0,0-26.12,12.36l-4.89,7.93c-.57,3.48-2.37,6.63-4.14,9.68l-26.94,46.61c-4.41,7.62-8.91,15.36-15.3,21.42l-5.46,4.28-14,10.43a58.05,58.05,0,0,0-15.25,32.57l-3.57,14.15q-1.2,9.79-2.39,19.58c-.23,1.88-.41,4,.74,5.49,1.46,1.91,4.26,1.93,6.65,2.22,8,1,14.72,7,18.9,14s6.34,14.89,9.08,22.53a152.19,152.19,0,0,0,11.49,24.7l26.8,5.08,9.71-15.07c4.59-4.54,6.18-11.19,8.49-17.22,4.07-10.57,10.81-19.87,16.15-29.87s9.34-21.41,7.21-32.54l4.78-23.68-8.44-6.22,4.65-32.06c3.64-25.09,7.37-50.53,17.4-73.81,2.22-5.15,4.93-10.39,9.57-13.53l-10-2.75C940.63,2039,934.44,2037.27,928.75,2037.33ZM1030.86,1867c-3.27,29.31-16,57.75-32.87,81.93-9.4,13.46-20.87,26-26,41.56l-1.73,7.17c-5,1.76-7.94,6.8-11.66,10.6-4.42,4.53-10.22,7.42-15.89,10.22l-35.26,17.45-21.5,10.63-16.82,8.06A95.14,95.14,0,0,0,820.44,2101l.73,8.53c-1.57,4.63-3.19,9.35-6.18,13.22-1.36,1.77-3,3.32-4.4,5.05-3.47,4.21-5.66,9.3-7.8,14.32l-11.86,8.42c-8.32,5.06-19.16.55-26.92-5.33s-15.1-13.4-24.72-14.87c-6.59-1-13.3,1-19.93.39-12.36-1.2-23.37-11.59-35.59-9.39-11.31,2-17.86,13.9-21.39,24.84s-6.21,23.16-15.17,30.38c25.21,10.82,51.51,26.83,59.2,53.17,1.67,5.7,2.4,11.76,5.17,17,2.18,4.15,5.51,7.55,8.74,10.95a431.25,431.25,0,0,1,28.24,32.91c4.44,5.74,8.79,11.67,11.45,18.42,2.23,5.66,3.21,11.72,4.17,17.73q2.84,17.67,5.66,35.32c1.92,11.91,3.78,24.32,2.25,36.13L760,2422.1a119.51,119.51,0,0,0-12.2,22.06c-4.3,10.16-7.17,20.87-10,31.53,6.67-3.1,14.34-2.73,21.7-2.78s15.26-.81,20.88-5.56l5.63-3.74c2.27,6.44,4.76,12.79,7.56,19,1.13,2.5,2.31,5,3.55,7.44l-.17,2.29a71.82,71.82,0,0,1-54.83,12c-6.48-1.26-13-3.44-19.54-2.48-8.37,1.23-15,7.31-22.09,12a76.08,76.08,0,0,1-69.71,7c-2.93-1.19-5.86-2.6-9-2.83a25.16,25.16,0,0,0-8.14,1.21L586,2526.47c-9.54,2.51-19.54,5-29.16,2.84s-18.55-10.79-17.56-20.6a87.38,87.38,0,0,1-71.4,15c-.61,10.18-12.36,15.52-22.41,17.22l-11.41,2.28c-20.73,6.6-43.16,1.84-64.37-3-14-3.18-28.23-6.42-41.13-12.8-9.06-4.48-17.31-10.44-26.22-15.2-36.11-19.32-79.25-17.56-119.85-23l-6.11.65c-23-3.37-45.09-11.54-66.93-19.66-3.67-1.36-7.4-2.76-10.49-5.16-4.65-3.6-7.56-9.22-12.6-12.26-8.11-4.88-18.37-1.49-27.78-.4a54.24,54.24,0,0,1-30.33-5.32c-2.51-1.25-5-2.8-6.45-5.2-3.14-5.23.09-12.09,4.52-16.29,9.38-8.91,23.28-11.36,36.2-10.61,1.7.1,3.5.22,5-.57,2.53-1.33,3.17-4.56,4.13-7.25,4.22-11.84,17.82-17,29.84-20.61l26.69-8.15c4.41-1.34,8.88-2.7,13.49-2.89a47.69,47.69,0,0,1,12.5,1.55,181.74,181.74,0,0,1,56.21,23.33l12.2,13.06c19.2,7.43,38.46,14.89,58.45,19.8,15.68,3.85,32.89,6.74,44.64,17.44-14.61-14.57-29.57-29-47.31-39.53-7.77-4.59-16-8.4-23.25-13.86-7.71-5.85-14.21-13.59-23.13-17.35L221.1,2367.8a584.36,584.36,0,0,0-105-75C88.85,2277.62,59,2263.35,42.34,2237c-8.39-13.3-12.72-28.72-16.42-44-4.3-17.78-6.53-39.86,7.81-51.22,9-7.15,22.09-7.19,32.91-3.24s20,11.28,29.23,18.18a479.9,479.9,0,0,0,69.91,43.4,476.64,476.64,0,0,1-60-129.89c-2.68-9.27-5.1-18.71-5.4-28.35-.33-10.39,1.81-20.68,3.93-30.85q4.15-19.87,8.3-39.75c2.89-13.84,9.55-31,23.69-31,8.85,0,15.86,7.16,21.43,14A313.62,313.62,0,0,1,221,2088.56c4.46-45.18,32.63-85.4,37.25-130.57.73-7.2.86-14.52,2.62-21.54,1.92-7.64,5.7-14.68,8.24-22.15,8.07-23.7,3.12-49.7-3-74a846.87,846.87,0,0,0-52.8-149.52l-3.73-27c-1.78-27.82-3.52-56,2.12-83.33s19.7-54,43.26-68.93c6.79-4.3,14.44-7.7,19.55-13.9,13.83-16.76,2-42.08,5.84-63.47,2.76-15.57,13.72-28.22,24.26-40,6.94-7.77,14.06-15.69,23.2-20.68,12.58-6.89,28.08-7.45,41.75-3.1,26.9,8.57,46.07,36.88,44,65-1,14.09-6.53,29.14,0,41.67l12.38,12.1,31.26,18.41,25.89,6.75c5,1.37,10,3.84,12.76,8.26l12.75,2.59a129.58,129.58,0,0,0,13.22,4.25c3.28.92,6.56,1.85,9.91,2.47a55.78,55.78,0,0,0,15.48.67l22,22.49c21.49-2.79,43.94,3.36,64.7-2.86,8.85-2.66,16.89-7.44,25.25-11.38,11.38-5.37,23.42-9.22,35-14.24a19.32,19.32,0,0,0,6.18-3.72c1.68-1.69,2.71-3.91,4-5.93,4.38-7,11.86-12,14.79-19.64,1.13-3,1.51-6.15,2.3-9.22s2.1-6.18,4.61-8.13,6.43-2.32,8.72-.12l6.18.37c6.86,2.46,14.37-.32,21.12-3.07l11.25,12.33c28.09,19.71,44.38,52.29,54.64,85s15.68,67,28,99l.67,27.52,6.16,23.68a115.08,115.08,0,0,0,3.51,38.93l22.47,17.66c14.78-2.36,30.64,6,37.12,19.45,10.17-4.07,20.66-8.2,31.62-8.15,15.83.07,30.21,6.81,43.14,15.92,10.68,7.52,24.51,16.13,29.19,28.32C1033.16,1845.73,1031.91,1857.54,1030.86,1867ZM474.1,2481.24c-5.62-14.2-6.2-29.95-11.32-44.34a74.09,74.09,0,0,0-21.49-31.3l-26.6,9.17A219,219,0,0,0,474.1,2481.24Zm131-60.82a34,34,0,0,0-19.3,21.92c-1.28,4.62-1.6,9.61-4.07,13.73,1,.92,2.58.16,3.66-.66a50,50,0,0,0,18.89-31.55Zm50.94,51.17,13.82-6.09c3.6-1.59,7.26-3.2,10.3-5.71a34.39,34.39,0,0,0,7.07-8.61,84.4,84.4,0,0,0,12.64-41.91l-28.44,4.39Q665.17,2443,656.05,2471.59ZM520.64,2603.23a28.69,28.69,0,1,0,28.69,28.69A28.69,28.69,0,0,0,520.64,2603.23Z"></path>
    <path data-name="3a" data-official="" data-plain="Stamens and Pistil" data-loc="" d="M145.91,1794.65a48,48,0,0,0,34.89-30.53c7-20,.51-44.44,13-61.6a13.75,13.75,0,0,1,4.64-4.34c3.85-2,8.63-.72,12.24,1.64,8,5.21,11.75,14.85,14.33,24a191.49,191.49,0,0,1,6.65,38.31c.75,10.63.73,21.78,5.73,31.18,2.93,5.5,7.38,10,11.33,14.82,8.8,10.75,15.34,23.76,16.41,37.62s-3.91,28.53-14.69,37.29c-3.42,2.78-7.42,5-9.94,8.63-4,5.69-3.3,13.62-.24,19.86s8.12,11.21,12.88,16.28a16,16,0,0,1,4.33,12,12.06,12.06,0,0,1-8.2,11.62c-5.15,1.87-10.76,2.1-16,3.71-8.79,2.69-15.93,9-24,13.38s-18.88,6.3-26,.46a29.15,29.15,0,0,1-5.5-6.7c-13.7-20.58-27.12-41.83-33.95-65.58-8.61-30-6.2-61.83-3.71-92.89Z"></path>
    <path data-name="3b" data-official="" data-plain="Section of Seed magnified" data-loc="" d="M88.71,1791.2c-10.76-.58-20.63,7.14-25.67,16.65s-6.2,20.57-6.91,31.32Q54.88,1858,55,1876.9c.12,13.49.58,27.8-6.19,39.47-3,5.14-7.27,9.54-9.42,15.08-1.68,4.31-1.94,9-1.87,13.65.08,5.71.66,11.51,2.95,16.74a15.14,15.14,0,0,0,5,6.56c2.28,1.59,5.09,2.2,7.82,2.71,10.27,1.89,21,2.75,31.1.18s19.67-9,24-18.5c2-4.36,2.81-9.14,3.62-13.86l4.51-26.33a234.35,234.35,0,0,1,5.24-25.07c2.06-7.17,4.8-14.14,6.72-21.36a117.93,117.93,0,0,0,3.5-22.26c.72-10.59.26-21.5-3.72-31.33s-11.94-18.49-22.21-21.16Z"></path>
    <path data-name="3c" data-official="" data-plain="Section of Ovary" data-loc="" d="M64.59,1767.26c1.37-5.25-1.31-10.77-4.91-14.84s-8.12-7.24-11.62-11.39c-10.2-12.09-9.62-30.59-2.54-44.74,2.46-4.91,5.61-9.51,7.39-14.71,2.17-6.33,2.17-13.19,3.79-19.68,3.55-14.12,14.94-25.59,28.47-31s28.9-5,42.85-.88a37.23,37.23,0,0,1,11.59,5.31,43.63,43.63,0,0,1,7,6.91c11.08,12.88,21,27.37,24.91,43.89a114.6,114.6,0,0,1,2.58,21.3c.58,12.25.49,24.59-1.62,36.66-.71,4.09-1.79,8.39-4.78,11.27a19.58,19.58,0,0,1-7.23,3.93c-12.9,4.61-27,6.55-38.47,14.08-5.13,3.37-9.66,7.83-15.4,10s-11.76,1.87-17.72,1.44c-7.11-.5-14.47-1.29-20.61-4.92Z"></path>
</svg>
