
<svg xmlns="http://www.w3.org/2000/svg" viewBox="0 0 1659 2213" id="illustration" preserveAspectRatio="xMidYMid meet">
    <title>Solanaceæ</title>
    <path data-name="1" data-official="Solanum dulcamara" data-plain="Nightshade" data-loc="England" d="M844,1783.82q26.22,40.58,54.41,79.85c2.68,3.73,5.42,7.57,6.61,12,1.1,4.08.87,8.61,3.07,12.23,1.5,2.48,4,4.21,5.76,6.5,3.58,4.61,4,10.87,4.2,16.7.15,3.86.15,8.17-2.5,11-1.54,1.63-3.73,2.45-5.8,3.31-8.45,3.49-17.18,9.83-17.79,18.95-.16,2.41.27,4.87-.28,7.22a11,11,0,0,1-3.4,5.53,14.94,14.94,0,0,1-19.58-.12c-3.55-3.33-5.19-8.26-5.76-13.09s-.22-9.73-.47-14.59c-.77-15.33-7.47-29.71-14.86-43.16s-15.67-26.63-20.1-41.33l-4.22-6.29a209.15,209.15,0,0,1-4.35-22.47l.28-4.56q-3-7.83-6.15-15.56a67.37,67.37,0,0,0-5.91-11.87,24.55,24.55,0,0,0-9.7-8.84L794,1771.8a80.59,80.59,0,0,0-13.33-16.4l-4.49-6.53a268.52,268.52,0,0,1-9.31-28.76l-.76-11.13.11-7a22.27,22.27,0,0,0,7.6-1.06,12.74,12.74,0,0,0,3.93-1.93c1.61-1.22,2.87-3,4.78-3.67,2.43-.82,5,.46,7.6.56l4.2,2.48,13.1,25,2.08,4.28a36.46,36.46,0,0,1,4.4,19.68c-.32,5.1-1.68,10.43.26,15.16a23.27,23.27,0,0,0,3,4.79c4.12,5.6,8.55,11.45,14.95,14.19ZM614.57,1277.71a26,26,0,0,0-3-6.3c-.9-1.36-2.17-2.75-3.8-2.73a5.62,5.62,0,0,0-3.23,1.62,120.23,120.23,0,0,1-19.93,13.1c-.45.23-1,.55-1,1a1.58,1.58,0,0,0,.21.76,30.84,30.84,0,0,1,2.8,13.74l.78,2.67a15.61,15.61,0,0,0,5.34,12l3.3,2.65c3.93-1.86,5.72-6.36,7.17-10.46l2.27-6.46a9.67,9.67,0,0,0,.51-1.8c.08-.54.08-1.1.17-1.63.51-2.84,3.57-4.32,5.53-6.43a9.73,9.73,0,0,0,2.56-6.5Zm76-230.34c-6.41,1.86-13.34,0-19.38-2.81-3.93-1.85-8.12-4.82-8.32-9.16-7.3,0-15.42-.22-20.63-5.33a2.58,2.58,0,0,0-1-.7,2.54,2.54,0,0,0-1.48.17,19.72,19.72,0,0,1-18.06-3.51,2.53,2.53,0,0,0-1.48-.76,2.28,2.28,0,0,0-.92.27c-8.45,3.83-17.15,7.84-23.39,14.71l-3.87,3.41-8.8,13.6c-.93,1.43-1.9,3-1.8,4.71l0,1.22c6.39,11.5,12.9,23.35,14.65,36.39a84.55,84.55,0,0,1,.56,12.43,62.19,62.19,0,0,1-1,11.24,72,72,0,0,1-3.73,11.58c-1.91,5-4.09,10.25-8.58,13.08l-.76.52c.76,4.09,1.47,8.53-.42,12.24-1.22,2.4-3.38,4.16-5.18,6.17-5.3,5.93-7.81,14.49-14.58,18.66a2.87,2.87,0,0,0-1.12,1,2.55,2.55,0,0,0-.22,1.06,29.5,29.5,0,0,0,1.76,11.59l.77,3.89c1.26,1.36,3.31,1.72,4.71,3,.66.58,1.15,1.33,1.82,1.89,2,1.72,5,1.38,7.63,1a4.87,4.87,0,0,0,.19,4.8,9.68,9.68,0,0,0,1.77,1.91c4.46,4,9.23,8.19,15.13,9.31l2.71,4.46q.76,5.45,2,10.81l1.8,5.83c-.09,1.75-1.53,3.1-2.86,4.24a41.77,41.77,0,0,0-5.39,5.16c-3.3,4-5.2,9.53-9.79,12-2.25,1.22-5.12,1.72-6.5,3.87l-4.23-1.8a84.27,84.27,0,0,1-5.07-13c-2.28-7-4.59-14-5.09-21.34a8.3,8.3,0,0,0-.93-4,7.87,7.87,0,0,0-2-1.81l-18.85-13.64-5.56,4.4c-3.1,5.34-5.18,11.19-7.82,16.76-6.67,14.06-17.82,26.94-32.77,31.25a16.24,16.24,0,0,0-4.78,1.81c-2.48,1.67-3.58,4.76-4,7.71-.92,6.4.49,13.52-3,18.94s-11.47,7.67-13.74,13.84c-.79,2.13-.77,4.49-1.58,6.62-.63,1.67-1.74,3.13-2.48,4.76-1.45,3.23-1.36,6.91-1.24,10.45-3.27-5.57-5.1-13.4-7.43-19.43-3.52-9.13-6.88-16.77-7.25-26.55-.15-4,0-8.05.05-12.08.09-13.71-1.69-27.35-3.47-41l-12.79-24.84a127.28,127.28,0,0,0-12.16-33.54c-3-5.65-6.44-11.11-8.57-17.14s-2.83-12.87-.28-18.73a8,8,0,0,0,.92-2.84c.06-2.18-1.95-3.77-3.72-5a107.45,107.45,0,0,1-26.19-26.81,4.39,4.39,0,0,0-2-1.88,4.33,4.33,0,0,0-2.23,0l-22.05,4.4a59.24,59.24,0,0,1-31,50.31c6.8,7.4,13.42,15.27,17,24.66,6.43,16.89,1.48,37.13-11,50.21s-31.54,19-49.48,16.89l-5.8-1.38a81.44,81.44,0,0,1-18.41-14.76c-7.33,7.93-16.13,14.72-26.26,18.47s-21.68,4.28-31.65.12c-15-6.26-24.25-22.11-27-38.13s-.09-32.42,2.57-48.46c-9.5-1.32-19.66-3.07-26.55-9.75-7.64-7.41-9.28-19-9.1-29.67a122.71,122.71,0,0,1,6-35.86l7.24-8c12-8.08,24.57-15.93,38.62-19.47,20.69-5.22,42.4-.62,63.73-.1,5.5.14,12.23-.78,14.3-5.88,1.32-3.24,0-7.07-2.26-9.71s-5.49-4.31-8.59-5.93l-9.09-9.62c-1.43-11.2,3-22.67,10.3-31.26s17.39-14.52,27.95-18.55c5.79-2.21,11.9-4,16.91-7.61l2.5-2.39a4,4,0,0,1,.81-3.8c.82-1.08,1.9-2,2.68-3.06,1.6-2.25,1.75-5.18,1.84-7.94a17.41,17.41,0,0,0-.5-6.07,8.85,8.85,0,0,0-6.84-5.83L292.22,920c-1.35-4.6-4.76-8.91-9.44-10-5.15-1.15-10.2,1.77-15.08,3.75a45,45,0,0,1-19.18,3.2c-1.91-.1-3.92-.31-5.64.51a10.11,10.11,0,0,0-3.72,3.74c-10,14.43-20,30.35-36.09,37.25-3.31,1.42-7.09,2.4-10.48,1.19-4.33-1.55-6.78-6.38-7-11s1.46-9.05,3.07-13.36l11.46-30.68c1.15-3.09,2.31-6.52,1.12-9.6-.9-2.32-3-4-4.76-5.68a33.18,33.18,0,0,1-9.65-28.12c-7.58,4.85-18-.87-26.48,2.27s-11.35,13.2-17.86,19.21c-6,5.58-16.51,6.86-22.21.94-5.31-5.52-4.53-14.29-3.4-21.86L119.74,843l-17.95,0-7.52-3.64c-11.58-2.51-18-15.54-18.35-27.38s3.41-23.42,4.23-35.23c.14-2.16.15-4.49-1.06-6.28-3.06-4.53-10.12-2-15.45-3.18-6-1.36-9.52-8-9.23-14.11s3.54-11.65,7.14-16.58c6-8.18,13.85-15.85,23.82-17.65,16.15-2.92,31.05,10.22,47.44,11.08,3.78.19,7.66-.27,11.3.77,1.79.51,3.6,1.38,5.43,1.05a9.2,9.2,0,0,0,4.12-2.54,75.74,75.74,0,0,1,31-16.4c5.14-1.32,11.09-2.57,13.62-7.22a15.35,15.35,0,0,0,1.49-6.32c1.3-17.34-3.28-36.06,5-51.38,5.68-10.53,16.37-17.23,26.6-23.44l13.48-8.2,2.4-10.13c3.79-21-7.86-41.83-8.3-63.2-.14-6.84,1.27-14.41,6.66-18.62,4.7-3.68,11.5-3.83,17-1.52s9.85,6.75,13.35,11.58a62.17,62.17,0,0,1,8,15c1.6,4.31,3.09,9.27,7.19,11.36,5.07,2.59,11-.66,16.12-3.15C321,551,336.59,549.54,351,544.43c10.12-3.59,19.85-9,30.57-9.73a4,4,0,0,1,3,.66,4.11,4.11,0,0,1,1,2.08L388,547c1,3.65,2,7.39,1.63,11.15s-2.23,7.61-5.64,9.23l-.62,5.22a135.28,135.28,0,0,1-20.25,11.34c-5.21,2.36-10.65,4.43-15.09,8-4.95,4-8.31,9.56-11.57,15a43.57,43.57,0,0,0-3.24,6.11c17.88-.91,34.81,8.87,47.52,21.47,3.64,3.62,7.09,7.52,11.42,10.29s9.82,4.27,14.65,2.53c3.46-1.24,6.17-4,9.42-5.67,5-2.65,10.94-2.74,16.61-2.61q6.42.15,12.82.59a17.74,17.74,0,0,1,6.27,1.21c1.85.83,3.36,2.24,5.1,3.28a14.4,14.4,0,0,0,9.58,1.86l4-1.78c7.93.6,15.75-3.76,23.6-2.52l3.91,1.32a11.05,11.05,0,0,1,7.26,4.61,40.54,40.54,0,0,1,4.18,7.76c5.92,12.74,14.16,24.24,22.43,35.6l.42,1.2c1.32,5.48-2.87,11-2.22,16.59.46,3.92,3.2,7.14,4.94,10.68a22.53,22.53,0,0,1,1.74,15l-11.26,1.27c-12,.48-21.94-10.23-33.93-11.37-11-1-21,6.06-31.75,8.31-7.55,1.57-15.37.74-23.07,1.18-1.21.07-2.57.26-3.26,1.25a3.93,3.93,0,0,0-.54,1.94c-.83,9.4,1.52,19.13-1.19,28.16-2.06,6.91-6.91,12.67-12.35,17.39a4.82,4.82,0,0,0-1.62,2c-.61,1.87,1.19,3.58,2.76,4.76,14.5,10.94,26.6,26.06,30.42,43.82s-2,38.16-16.91,48.57A142.24,142.24,0,0,0,451,894.88l-.6,5.7c2.29,3.55,6.3,5.68,8.74,9.12.7,1,1.26,2.07,1.93,3.09a35.27,35.27,0,0,0,2.49,3.24l5.48,6.56a4,4,0,0,0,2,1.54,4,4,0,0,0,1.33,0L492,922.33l4-3.19c.16-2.7.3-5.5-.66-8-.53-1.39-1.37-2.64-1.82-4.05a19.66,19.66,0,0,1-.4-6.18,39.2,39.2,0,0,0-1.54-11.45l-1.39-7.29A10.21,10.21,0,0,1,496,871.8a17.06,17.06,0,0,1,5.58-1.12,30.5,30.5,0,0,1,10.52.83,15.84,15.84,0,0,1,8.64,5.8l3.57,1.3c.63,6.28,1.09,12.79-1,18.75-1.77,5.1-5.23,9.39-8.27,13.84a124.73,124.73,0,0,0-14.69,30.47,179.87,179.87,0,0,0-8.65,40.11l-2.19,12a7.07,7.07,0,0,1,.48,2.89c.09,3.59.19,7.19.28,10.78l-1.86,3c3.37,4,3.35,9.8,4.48,14.94a58,58,0,0,0,2.76,8.49q4.59,11.82,10.18,23.22l.94,0a104,104,0,0,1-.39-13.67c.12-3.25.58-6.87,3.09-8.94a5.3,5.3,0,0,0,1.52-1.46,3.52,3.52,0,0,0,.29-1.61c.08-3.87-.26-8,1.57-11.39,1.2-2.25,3.28-4,4.14-6.41.78-2.2.45-4.6.54-6.93a36.66,36.66,0,0,1,2.51-10.41c2.63-7.6,5.29-15.27,9.48-22.13,5.46-8.93,13.35-16.24,18.28-25.47.81-1.51,1.59-3.13,3-4.09a6,6,0,0,1,6.79.49,11.46,11.46,0,0,1,3.8,6c2.66,8.86-.7,18.35-.33,27.6a29.14,29.14,0,0,1,12-9.66l3.36-.94c15.15-3.65,31.15-5.51,46.23-1.63s29.14,14.36,34,29.16a22.37,22.37,0,0,0,2.4,5.92c1.75,2.52,4.69,3.88,7.18,5.67s4.8,4.61,4.21,7.63l.24,1c4.46,5.16,5.78,12.39,5.42,19.2a7.94,7.94,0,0,0,.45,4.09,7.11,7.11,0,0,0,3,2.58A122.62,122.62,0,0,0,690.58,1047.37ZM451.67,926.47a109.87,109.87,0,0,0-25.6-23.26l-5.08.72c-5.25.79-10.6,1.61-15.38,3.93-1.65.81-3.22,1.79-4.84,2.68a79.35,79.35,0,0,1-15.65,6.24l-3,3.68a19.81,19.81,0,0,1-4,5.29c-1.11.94-2.42,1.63-3.51,2.61a14.8,14.8,0,0,0-1.84,2.1A54.13,54.13,0,0,0,366.47,941c-1.47,3.23-2.63,6.61-4.45,9.66-2,3.38-4.93,6.52-5.31,10.45l-.3,5.18L349.93,982c-.88,2.13-1.78,4.41-1.41,6.69.49,3,3.06,5.24,5.46,7.16l11.91,9.55a44,44,0,0,0,18.47,9.85l9.78,3.18a2.5,2.5,0,0,0,1.54.15,2.27,2.27,0,0,0,1.18-1.53c1.76-5.2-.1-10.83-1-16.24a46.31,46.31,0,0,1-.27-13.3,27.63,27.63,0,0,1,2.29-8.48,26.31,26.31,0,0,1,6-7.83c8.43-7.82,20.15-11.84,27.38-20.78,2.67-3.31,4.61-7.15,7.12-10.58s5.82-6.57,10-7.51Z"></path>
    <path data-name="1a" data-official="" data-plain="Calyx and Pistil" data-loc="" d="M154.18,2115a154.12,154.12,0,0,1-14-44.32c-1.4-9-1.82-18.84,3.2-26.4,1.78-2.69,4.16-4.92,6.09-7.5,6.11-8.2,7.15-19.07,7-29.29s-1.37-20.64,1.15-30.55,9.9-19.48,20-20.78a11,11,0,0,1,6.18.78c3.61,1.79,5.2,6.09,5.84,10.08,1.84,11.45-1.36,23-3.82,34.36s-4.12,23.58.52,34.21c2.1,4.81,5.4,9,7.46,13.85,4.65,10.87,2.52,23.35-.33,34.82s-6.39,23.28-4.31,34.92c2.63,14.76,14,27.46,13.9,42.45,0,2.78-.52,5.7-2.29,7.84-2.32,2.8-6.22,3.62-9.82,4.15a167,167,0,0,1-28.34,1.73c-2-.05-4.32-.23-5.72-1.73a7.29,7.29,0,0,1-1.52-3.62,44.37,44.37,0,0,1,.16-18.36c1.09-4.93,3-9.65,4.06-14.59s1.14-10.35-1.29-14.78Z"></path>
    <path data-name="1b" data-official="" data-plain="Stamens" data-loc="" d="M218.49,2110.65a193.1,193.1,0,0,0-9.05-33.32c-1.48-4-3.11-8-3.57-12.22s.41-8.82,3.36-11.9,7.08-4.05,11.11-4.87c22.92-4.64,46.49-4.71,69.88-4.76,6.26,0,13.23.25,17.66,4.67,3.44,3.43,4.46,8.57,4.84,13.41,1.22,15.2-2.18,30.35-5.59,45.22-1.82,7.94-3.91,16.36-9.77,22-2.21,2.15-4.9,3.83-6.68,6.34-4.36,6.14-2.14,15.57-7.28,21.06-2.12,2.27-5.15,3.43-8.1,4.36a177.2,177.2,0,0,1-22.09,5c-3.7.67-7.55,1.32-11.19.35s-7-4-7-7.79c0-5.73,7.2-10.3,5.53-15.78-1-3.38-4.9-4.81-8-6.48a25.47,25.47,0,0,1-11-11.6Z"></path>
    <path data-name="1c" data-official="" data-plain="Stamen" data-loc="" d="M333.92,2118.94c1.87-6,3.75-12.27,3.16-18.56-.43-4.62-2.18-9-3.41-13.46a54.06,54.06,0,0,1,1.59-34.21c4.36-10.78,12.87-20,23.59-24.43a53.48,53.48,0,0,1,15.33-3.61c14.56-1.45,30,1.49,41.5,10.54a56.53,56.53,0,0,1,11.56,12.69c7.59,11.09,12.22,24.34,12.2,37.77s-4.84,27-14,36.76c-3.57,3.79-7.73,7-11.16,10.9s-6.16,8.8-6,14c.08,2.68.9,5.47-.07,8a10.39,10.39,0,0,1-3.32,4,42.75,42.75,0,0,1-16.43,8.41,77.36,77.36,0,0,1-14.32,2c-4.32.29-9.36.22-12-3.19-4.41-5.64,1.68-14.94-2.5-20.75-2.19-3-6.37-3.8-10.11-3.88s-7.7.25-11-1.46c-5.06-2.61-6.87-9.07-6.48-14.74Z"></path>
    <path data-name="2" data-official="Nicotiana tabacum" data-plain="Tobacco" data-loc="N. America" d="M763.21,1357.33a20.6,20.6,0,0,0,9.54-12.28c1.09-4,1-8.14,1.62-12.2a32,32,0,0,1,9-17.5c3.11-3.09,6.85-5.53,9.8-8.78,8-8.83,9.26-22.57,18.07-30.61,5.3-4.83,12.71-7,17.65-12.16l6.31-3.14c8.51-5.22,15.37-12.68,22.12-20.05l3.37-2.29,3.18-.78c1.46-.36,3.4-.52,4.09.83a3.31,3.31,0,0,1,.27,1.29l1.71,21.8.22,6.23-.72,47-2.13,6.69a30.53,30.53,0,0,1-4.42,11.91,8.1,8.1,0,0,1-2.81,3c-1.58.84-3.48.7-5.27.54q-.85,4-1.85,7.9a8.08,8.08,0,0,1,3.17,1,2.72,2.72,0,0,1,1.29,2.86l2.17,4a45.63,45.63,0,0,1-2.83,15.9c-1.77,4.78-4.38,9.42-4.49,14.51,2.62-.25,4.43-2.7,5.67-5,3-5.6,5-12.11,10-16,4.12-3.23,9.58-4.08,14.35-6.23a8.19,8.19,0,0,0,3.56-2.61c2.06-3.05.49-8.13,3.57-10.13l2-2.26c2.36.36,3.6-3.34,6-3.52a2.92,2.92,0,0,1,2.61,1.54,6,6,0,0,1,.65,3.09c0,5-2.87,9.55-3,14.51-.14,5.81,3.45,11.31,2.87,17.09l1.56,5.3c-.62,4.41-1.08,9.42,1.81,12.8l6.24,3.73c3.74-4.16,7.55-8.39,12.29-11.37,1.67-1.06,3.52-2,4.64-3.65a18.84,18.84,0,0,0,1.83-4.81c1.32-3.88,4.11-7.1,7.21-9.78s6.57-4.91,9.74-7.51a54.73,54.73,0,0,0,11.23-12.58l8.81-7.63a32.18,32.18,0,0,1,5.43-10.79,8,8,0,0,0,1.46-2.37,9.21,9.21,0,0,0,.19-2.92,15.68,15.68,0,0,1,2.6-8.74l.21-6.16c2.83-18.64,13.67-35.11,18.49-53.34,2.27-8.57,3.21-17.56,6.72-25.71a11.5,11.5,0,0,1,2.24-3.67,10.88,10.88,0,0,1,6.37-2.64c3.52-.48,7.3-.25,10.31,1.64s4.93,5.36,5.74,8.88a41.52,41.52,0,0,1,.56,10.8l-2,56.87a127.92,127.92,0,0,1-1.44,17.72c-1.34,7.67-4.07,15-7,22.23l-3.37,8.18a23.61,23.61,0,0,1-7.53,13.1c-1.85,1.63-4,3-5.75,4.62-5.35,4.95-7.6,12.28-10.72,18.86A94.73,94.73,0,0,1,974,1405.68c-3.12,3.57-6.62,7.61-6.19,12.33l-1.19,4.71a41.9,41.9,0,0,1-13.91,20.39l-6.55-.33c-11.82,8.37-21.33,19.55-32.43,28.86l-1.67,7.38-6.49,10.25c-2.82,4.47-5.75,9-10,12.18-5.91,4.33-13.56,5.3-20.39,8a42.77,42.77,0,0,0-14.9,9.79l-3.93,3.86a2.91,2.91,0,0,0-2.51-3.41,7.11,7.11,0,0,0-2.79.68c-4.36,1.51-9.13.65-13.74.51-2.51-.08-5.3.19-7,2l.07-.89a18.51,18.51,0,0,0-1.59-9c-.72-1.59-1.7-3.23-1.45-5l-1.45-.27-15.06-21.43a92.77,92.77,0,0,0-8.19-10.53c-2-2.12-4.21-4-6.22-6.16a103.48,103.48,0,0,1-9.72-12.69q-9.92-14.22-20.81-27.72a1.27,1.27,0,0,1,1.51-1,4.3,4.3,0,0,1,1.74.94,21.29,21.29,0,0,0,9.49,3.93l-.47-.92c-2.54-13.54-12.84-24.36-17.08-37.47-3.42-10.59-2.7-22-1.28-33.1Zm3.63,362.78-.76-11.13.11-7a22.27,22.27,0,0,0,7.6-1.06,12.74,12.74,0,0,0,3.93-1.93c1.61-1.22,2.87-3,4.78-3.67,2.43-.82,5,.46,7.6.56l5.45-3.77c4.84-9,10.73-17.47,16.61-25.88,3.39-4.86,6.84-9.78,11.44-13.51,8.46-6.84,20.29-9.26,27.24-17.63l3-4.91a61.48,61.48,0,0,1,18.63-9.06c3.72-1.08,7.53-1.81,11.33-2.53A23.28,23.28,0,0,1,889,1618c2.24.09,4.4.83,6.62,1.11,2.53.33,5.11.06,7.65.26a21.4,21.4,0,0,1,13.62,6.43l5.19-.85A82.93,82.93,0,0,0,956,1613.59a29.74,29.74,0,0,0,8.57-7.06c.87-1.13,1.6-2.37,2.51-3.47s2.2-2.25,3.23-3.44a16,16,0,0,0,3.8-11.34l-2.71-3.25a10,10,0,0,1-1.45-6.44,17.94,17.94,0,0,1,7.19-13c3.48-2.55,7.75-3.74,11.92-4.87l4.93-3.76a36,36,0,0,1,20-10.28,42.77,42.77,0,0,1,22.45,2.57l4.77-.74a62.8,62.8,0,0,0,54.84-3.29c4.8-2.74,9.65-6.26,15.18-6.11l3.59-1.22c1.77-1.16,2.84-3.09,4-4.85a35,35,0,0,1,11.25-10.64,10.28,10.28,0,0,1,4.16-1.59l4.79-.44a38.22,38.22,0,0,0,21.41,6.62c5.67,0,11.24-1.27,16.76-2.53l6.49,2.76a55.08,55.08,0,0,1,12-.22l4.69,2.91c4.78-5.72,3.62-14.57,7.8-20.74,2.43-3.59,6.39-5.83,10.38-7.53,7.36-3.14,15.24-5.85,22.82-8.42s13.08-7.19,18.31-13.25c1.41-1.63,3.67-3.59,5.35-2.23a3.38,3.38,0,0,1,1,1.62c1.69,5.18-.86,11-4.86,14.67s-9.22,5.73-14.3,7.68l-14,5.38a24.91,24.91,0,0,0-7.61,4c-5,4.38-5.65,12.42-2.68,18.39l7,4.51c3.45,1.53,7.28,1.92,11,2.24,10.82.93,21.78,1.45,32.5-.3s21.29-5.91,29.21-13.33l10.73-10.06c.69-20.51-2.1-41-4.9-61.29l-2.7-19.7-10.45-76.14a10.65,10.65,0,0,0-1.53-4.91c-2.51-3.41-7.72-2.63-11.8-1.48l-9.4,2.23a111.28,111.28,0,0,0-68.93,51.51c-3,5.14-5.57,10.53-9,15.39s-7.88,9.22-13.44,11.33l-6.3,3.26c-3.91,2.46-9.12,1.54-13.22-.59s-7.56-5.33-11.6-7.59c-3.1-1.73-6.61-3-9-5.64-1.39-1.59-2.27-3.58-3.66-5.18-2.14-2.46-5.3-3.76-8.33-5l-3.56.29-8.8,5.15c-2.42,1.41-5.27,2.87-7.89,1.86s-3.67-3.74-5.69-5.47c-2.57-2.2-6.21-2.5-9.59-2.7-11.27-.66-22.78-1.3-33.69,1.63l-12.35,1.73c-6.13.63-12.53,1.35-17.65,4.77-4.46,3-7.47,7.72-9.47,12.7-1.15,2.87-2,5.88-3.66,8.51a17.09,17.09,0,0,1-13.61,7.87L989,1450c-15.45,3.61-31.2,9.39-41.73,21.26l-3.08,4.44a197,197,0,0,1-12.45,25c-3.24,5.48-6.8,11-8.1,17.2l-10.07.61a3.33,3.33,0,0,1-1.57-.16,3.72,3.72,0,0,1-1.4-1.65c-2.75-4.61-8.34-7-13.7-7s-10.5,2.18-15.09,4.93a58.17,58.17,0,0,0-21,21.7l-1.38,4.08a10.59,10.59,0,0,1-.67,3.87c-.47,1.05-1.29,1.94-1.67,3-1.3,3.62,2.54,7.4,1.78,11.17-.64,3.19-4.14,4.79-7.2,5.89-4.13,1.5-8.33,3-12.72,3.2l-5.42-.36a6.8,6.8,0,0,0-3.88-1.85c-1.44-.25-2.91-.27-4.35-.52a28.12,28.12,0,0,0-3.63-.63,17,17,0,0,1-3.19-.08c-2.19-.51-3.44-2.76-4.42-4.78l-.26-.38c.91,3.19,1.81,6.58.9,9.77-1.11,3.86-4.63,6.51-8.16,8.43a50.63,50.63,0,0,1-13.72,5.09,3.24,3.24,0,0,1-1.31.1c-1.41-.26-1.89-2-2-3.44a84.55,84.55,0,0,1-.36-14.23l-.45-.47a26.61,26.61,0,0,1-7.48,3.91,23,23,0,0,1-7,.52,80.71,80.71,0,0,1-13-1.64c-1.57-.33-3.35-.9-3.9-2.4-.74-2,1.24-3.89,3-5.16a98.55,98.55,0,0,0,10.75-9.25,8.76,8.76,0,0,0,2.61-3.78c.5-2-.36-4-1.25-5.84A131.31,131.31,0,0,0,760.51,1521l-1.62-.78-5.78,1.35a28.86,28.86,0,0,1-4.08,19.21,28.46,28.46,0,0,0-2.57,4.39,19.42,19.42,0,0,0-1,6.66q-.39,11.92-1.59,23.78l-1.33,2.31c-4.74,2.8-7.35,8.12-9.24,13.3s-3.42,10.67-6.94,14.91a19.74,19.74,0,0,1-19,6.55,145.33,145.33,0,0,0-2,18.84l-1.55,8.69c6.52,15.92,7.34,33.52,7.77,50.72,2.26,90.23-3.79,180.5-2.29,270.75.06,4,.36,8.55,3.37,11.22,3.9,3.46,10.78,2.29,14,6.39,1.86,2.36,1.81,5.69,3.07,8.42,1.89,4.1,6.59,6.31,11.1,6.52s8.91-1.19,13.2-2.59c4.49-1.47,9.43-3.31,11.49-7.56a14.62,14.62,0,0,0,1.13-6.72c-.15-9.31-3.11-19.17.85-27.59,1.14-2.41,2.79-4.56,3.76-7,1.32-3.34,1.3-7,1.26-10.63l-2-181.07Zm723.77-282.26a66.58,66.58,0,0,0,31-2.06,29.17,29.17,0,0,0,8.39-3.89,37,37,0,0,0,6.26-6.24l11.83-13.85a71.93,71.93,0,0,0,8.37-11.16c3.62-6.39,5.46-14.08,11-18.93,5.31-4.67,13.33-6,17.46-11.74,2.18-3,3-6.93,5.5-9.67,3-3.23,7.6-4.13,11.82-5.3s8.81-3.19,10.31-7.31c1.27-3.5-.21-7.55-2.83-10.2s-6.17-4.14-9.71-5.31a110.37,110.37,0,0,0-21.62-4.44,202.92,202.92,0,0,0-93.93,11.22l-2.57,2c-3,2.57-3,7.15-2.79,11.11l.76,13.09c1.36,23.31,2.73,46.65,6.09,69.76ZM670.14,1244.24a13.44,13.44,0,0,0,4.66-3.17,12.79,12.79,0,0,0,1.92-3.59c3.64-9.11,6.34-18.58,9.85-27.75s7.92-18.15,14.5-25.44l-17.27,9.4a8.68,8.68,0,0,0-3.28,2.54c-1.93,2.86,0,7.07-1.76,10a14.75,14.75,0,0,0-1,1.6c-.74,1.64.07,3.67-.71,5.29-.4.82-1.18,1.44-1.43,2.32a5.71,5.71,0,0,0,.15,2.49,8,8,0,0,1-2.79,7.22c-1,.83-2.26,1.43-3,2.54a6.49,6.49,0,0,0-.75,3,60.6,60.6,0,0,0,.12,10.08Zm42.27-93.59q-.52-15-1-30.07c-.14-4.32-.37-8.91-2.82-12.47a3.41,3.41,0,0,0-1.41-1.31c-1.79-.75-3.44,1.18-4.68,2.67-4.45,5.36-11.78,7.37-17,12-5.47,4.83-8.17,12.12-13.3,17.32,3.45,3.82,4,9.38,4.28,14.51a21.28,21.28,0,0,1-.09,5.17,42.11,42.11,0,0,1-2,5.92c-1.75,5.17-1.44,10.79-.68,16.19l.28,1.74L693.43,1171c2.2-1.28,4.41-2.56,6.5-4a90.25,90.25,0,0,0,12.23-11ZM362.94,967.8a107.72,107.72,0,0,0,35.49-11.45c11.59-6.13,22.13-14.41,34.48-18.82l5.47,2.32c2.51-3.44,5.82-6.57,10-7.51l3.32-5.87a109.87,109.87,0,0,0-25.6-23.26l-5.08.72c-5.25.79-10.6,1.61-15.38,3.93-1.65.81-3.22,1.79-4.84,2.68a79.35,79.35,0,0,1-15.65,6.24l-3,3.68a19.81,19.81,0,0,1-4,5.29c-1.11.94-2.42,1.63-3.51,2.61a14.8,14.8,0,0,0-1.84,2.1A54.13,54.13,0,0,0,366.47,941c-1.47,3.23-2.63,6.61-4.45,9.66-2,3.38-4.93,6.52-5.31,10.45l-.3,5.18Zm-72.66-19.89c-12.68,2.46-21,14.85-32.87,19.91-5.06,2.15-10.58,2.89-16,4.07-31.19,6.86-56.8,28.46-85.7,42.08-9.59,4.52-20.06,8.52-26.53,16.92-2.86,3.7-4.62,9.34-1.48,12.8,2.21,2.43,5.89,2.69,9.17,2.52,17.21-.89,33.09-9,49.67-13.73,8.77-2.5,17.83-4.07,26.4-7.2,9.39-3.44,18.05-8.72,27.55-11.86l12.74-3.21a46,46,0,0,1,6.89-10.78c7.34-8.59,17.39-14.52,27.95-18.55,5.79-2.21,11.9-4,16.91-7.61l2.5-2.39a4,4,0,0,1,.81-3.8c.82-1.08,1.9-2,2.68-3.06,1.6-2.25,1.75-5.18,1.84-7.94a17.41,17.41,0,0,0-.5-6.07,8.85,8.85,0,0,0-6.84-5.83ZM487.09,894q-15.29-.54-30.59-.06l-5.51.92-.6,5.7c2.29,3.55,6.3,5.68,8.74,9.12.7,1,1.26,2.07,1.93,3.09a35.27,35.27,0,0,0,2.49,3.24l5.48,6.56a4,4,0,0,0,2,1.54,4,4,0,0,0,1.33,0L492,922.33l4-3.19c.16-2.7.3-5.5-.66-8-.53-1.39-1.37-2.64-1.82-4.05a19.66,19.66,0,0,1-.4-6.18ZM236.5,48.84a126.88,126.88,0,0,1-24.55,14c-8,3.44-16.47,6.09-23.71,11S175,86.44,175,95.16c0,8.11,5,15.23,7.72,22.88a41,41,0,0,1-3.7,34.44,18.32,18.32,0,0,1-5.79,6.29c-4.74,2.88-11.11,2-15.68-1.12S150,149.54,148,144.36a48.61,48.61,0,0,1-3.13-16.52c-.05-3.86.24-8.13-2.19-11.13-2.56-3.18-7.18-3.67-11.25-3.49a58.39,58.39,0,0,0-38,16.6C88.23,134.94,84.05,141,79,146.26s-11.31,9.86-18.54,10.82c-7.46,1-15.58-1.89-22.3,1.49-5.71,2.86-8.49,9.3-10.83,15.24l-1,8.56a57.92,57.92,0,0,1-10.67,43.41c-3.69,4.94-8.29,9.47-10,15.38-2.35,7.84.93,16.4,6,22.83,7.28,9.26,17.85,15.22,28.15,20.94,9.76,5.43,19.77,10.94,30.79,12.79,5.72,1,11.57.9,17.3,1.81,11.71,1.87,23.13,8.34,28.74,18.79,3.66,6.82,4.64,14.76,4.83,22.51A67.41,67.41,0,0,1,119.79,359c-1.22,4.85-3.21,9.47-4.58,14.28C111,388.15,113,404,115,419.37l11.27,1.71c14.8,3.61,30.56-.75,45.53,2.1,10,1.91,19.22,7,29.07,9.73,12,3.37,24.65,3.24,37.11,3.1,5.37-.06,10.85-.1,16,1.49s10,5.08,11.79,10.15-.34,11.61-5.35,13.54c-2.36.92-5,.75-7.52.77-14.16.1-27.54,6.11-41.43,8.89-20.77,4.15-42.49,1-63.22,5.33-17.77,3.7-34.06,12.7-51.73,16.84-3.83.89-7.83,1.55-11.66.7-6.86-1.53-12-7.61-18.79-9.29-11-2.71-21.65,7.46-24.53,18.43s-.52,22.54.11,33.87A110.42,110.42,0,0,1,37,574.84c-3.52,11.61-8.84,24.69-2.65,35.13,6,10.15,19.52,12,30.75,15.64C87.35,632.79,107,650.75,130.29,649c4.47-.33,9-1.48,12.53-4.26s5.78-7.44,4.81-11.81c-.47-2.12-1.62-4.43-.51-6.3a6.27,6.27,0,0,1,3.11-2.18,86.28,86.28,0,0,0,41.6-39c2.63-5.08,4.57-11.79.79-16.08-1.36-1.54-3.33-2.57-4.26-4.4-2-3.89,1.92-8.1,5.49-10.61a153.25,153.25,0,0,1,35.66-18.6l9.43,7.18c-.14-6.84,1.27-14.41,6.66-18.62,4.7-3.68,11.5-3.83,17-1.52s9.85,6.75,13.35,11.58a62.17,62.17,0,0,1,8,15c1.6,4.31,3.09,9.27,7.19,11.36,5.07,2.59,11-.66,16.12-3.15C321,551,336.59,549.54,351,544.43c10.12-3.59,19.85-9,30.57-9.73a4,4,0,0,1,3,.66,4.11,4.11,0,0,1,1,2.08L388,547c1,3.65,2,7.39,1.63,11.15s-2.23,7.61-5.64,9.23l-.62,5.22,6.21,5.49c8.14,2.13,17.22,4.17,24.63.17,6.18-3.35,9.67-10.16,15.28-14.39,1.94-1.47,4.3-2.64,6.72-2.35,2.59.32,4.65,2.23,6.53,4,3.83,3.7,7.94,8,7.89,13.36,0,3.7-2.13,7-4.16,10.13-5.46,8.36-11.21,18.52-7.4,27.75,2.65,6.4,9.67,11.34,9.14,18.25l3.72,5.85c1.85.83,3.36,2.24,5.1,3.28a14.4,14.4,0,0,0,9.58,1.86l4-1.78c7.93.6,15.75-3.76,23.6-2.52l3.91,1.32a11.05,11.05,0,0,1,7.26,4.61,40.54,40.54,0,0,1,4.18,7.76c5.92,12.74,14.16,24.24,22.43,35.6l.42,1.2c1.32,5.48-2.87,11-2.22,16.59.46,3.92,3.2,7.14,4.94,10.68a22.53,22.53,0,0,1,1.74,15l-11.26,1.27L529,745a115.33,115.33,0,0,0,9.28,35.55c1,2.23,2.05,4.59,1.66,7-.82,5-6.81,6.69-11.4,8.72a28.57,28.57,0,0,0-15.37,16.94,10,10,0,0,0-.63,4.54,9.65,9.65,0,0,0,3,5.17c5,5,12.05,7.51,19.05,8.65s14.14,1.12,21.17,2.07a13.37,13.37,0,0,1,6.06,1.94c1.75,1.24,2.92,3.53,2.24,5.56a7.8,7.8,0,0,1-2.31,3l-32.16,29.79-5.26,4.75c.63,6.28,1.09,12.79-1,18.75-1.77,5.1-5.23,9.39-8.27,13.84a124.73,124.73,0,0,0-14.69,30.47,179.87,179.87,0,0,0-8.65,40.11l-2.19,12a7.07,7.07,0,0,1,.48,2.89c.09,3.59.19,7.19.28,10.78l-1.86,3c3.37,4,3.35,9.8,4.48,14.94a58,58,0,0,0,2.76,8.49q4.59,11.82,10.18,23.22l.94,0a104,104,0,0,1-.39-13.67c.12-3.25.58-6.87,3.09-8.94a5.3,5.3,0,0,0,1.52-1.46,3.52,3.52,0,0,0,.29-1.61c.08-3.87-.26-8,1.57-11.39,1.2-2.25,3.28-4,4.14-6.41.78-2.2.45-4.6.54-6.93a36.66,36.66,0,0,1,2.51-10.41c2.63-7.6,5.29-15.27,9.48-22.13,5.46-8.93,13.35-16.24,18.28-25.47.81-1.51,1.59-3.13,3-4.09a6,6,0,0,1,6.79.49l8.37-4.71c8-8,17.25-15.56,28.39-17.33,14.77-2.35,28.91,6,41.56,14,2,1.25,4,2.58,5.26,4.6a15.08,15.08,0,0,1,1.62,6l2.95,23.05,4.59-6.17c7.84-8.09,11.83-19,15.61-29.67a64.14,64.14,0,0,0,2.71-9c.59-3,.74-6,1.12-9a62,62,0,0,1,2.73-12c1.07-3.18,2.39-6.27,3.38-9.47,2.15-7,2.64-14.35,2.89-21.65l-.42-9.94c-1-7.5,1.15-15.1,4.36-21.95s7.48-13.14,11.11-19.78c8.67-15.88,13.54-33.51,18.35-51l5.85-21.28c2.54-9.22,5.09-18.47,6.58-27.92,2.65-16.84,1.9-34,1.14-51l-.37-9.3c-1.17-9.33-6.56-17.75-13.42-24.19s-15.14-11.15-23.45-15.57a16.36,16.36,0,0,1-5.48-4,11.42,11.42,0,0,1-2.08-5.23c-1.32-7.86,2.08-15.82,6.67-22.34s10.41-12.11,14.91-18.69c14.42-21,13.66-48.82,22.93-72.58a90.53,90.53,0,0,1,37.66-44.46c8.33-5,17.47-8.59,25.38-14.22,14.83-10.56,25.06-27.95,42.22-34.05l3.49-6.46c4.68-.2,7.89-5,8.71-9.62s.09-9.39.94-14c1.72-9.42,9.72-16.44,18.11-21.05s17.68-7.63,25.43-13.25,14.91-14.07,24.42-13.48c7.64.47,13.6,6.84,20.94,9,6.91,2.06,14.72.09,20.3-4.47a29.16,29.16,0,0,0,10-18.64c1.3-9.58-1.51-19.54,1-28.88,3.09-11.68,14.19-22.14,10.84-33.75-2.54-8.81-12.14-13.08-20.07-17.7-22.06-12.87-38-36.19-62.43-43.61-23.23-7-48.13,2.16-69.83,13.05-7.88,4-15.73,8.19-24.27,10.43s-18,2.29-25.78-1.89c-3.86-2.07-7.14-5.09-10.89-7.35-12.47-7.53-30-5.2-40.11,5.33l-3.86,8.86c1.69,6.18-5.42,12-11.77,11.23s-11.29-6-14.6-11.47a52.13,52.13,0,0,1-6.34-37c1.05-5.07,2.87-10.1,2.51-15.26-.76-10.69-10.85-18.66-21.23-21.35s-21.31-1.53-32-2S612,140.07,605,132a24.61,24.61,0,0,1-4.31-24.25c1.42-3.77,3.8-7.24,4.33-11.24,1.8-13.79-18.14-21.72-19.48-35.57-.56-5.73,2.29-11.42,1.51-17.12C585.52,33,572.51,28.14,561.65,28.12c-18.3,0-37.49,7.13-54.29-.1-8.83-3.81-15.71-11.19-24.43-15.24a37.26,37.26,0,0,0-38.65,5A9.12,9.12,0,0,0,441.06,22c-2,6.74,9.18,10.12,10.89,16.94,1.59,6.36-5.55,11.17-11.54,13.84L407.92,67.19c-6.42,2.85-14.68,5.45-19.83.66-3.14-2.91-3.8-7.54-4.39-11.79-2.07-14.88-6.12-30.52-17.21-40.65s-31.14-11.5-39.85.74c-4.15,5.83-5.06,13.52-9.29,19.3-6.05,8.29-19,10.54-27.45,4.79-6.77-4.57-11.16-13.41-19.25-14.51C260.32,24.31,253.72,36.16,250.21,46ZM643.56,977.06a41,41,0,0,1,13.17,18.68,22.37,22.37,0,0,0,2.4,5.92l1.55.46c5.9-2.59,12.05-5,18.5-5.19,2.91-.09,5.89.25,8.73-.44s5.62-2.79,5.92-5.69l-2.06-4.4a322.69,322.69,0,0,0-3.8-32c-.43-2.53-1-5.31-3.13-6.8a7.76,7.76,0,0,0-5.48-1c-7.63.93-13.57,6.86-18.85,12.45l-8.63,9.12Z"></path>
    <path data-name="2a" data-official="" data-plain="Flower, opened" data-loc="" d="M466.68,2122.69,452.5,1957.54c-.38-4.49-.79-9.08-2.68-13.16-7.69-16.64-34.29-16.2-43.05-32.29-5.43-10-1.72-22.42,3.5-32.5,5-9.67,11.86-19.11,21.89-23.35,3.83-1.63,8-2.44,11.66-4.45,11.29-6.24,13.93-21.58,23.5-30.23a26.28,26.28,0,0,1,27-4.67c5.59,2.32,11,6.71,16.93,5.44,4.21-.9,7.23-4.46,10.59-7.15,10.26-8.23,26.19-8.38,36.61-.35,4.52,3.47,8,8.24,12.92,11.15,11.8,7,27,1.13,40.52,3.64,11.48,2.14,22.24,13.89,18.09,24.81-1.78,4.69-6.06,8.93-5,13.84,1.21,5.87,8.68,7.55,13.09,11.6,3.6,3.31,5.11,8.27,7.86,12.32,6,8.8,18,13.92,19.66,24.43,1.13,7.27-3.76,14.49-10.21,18s-14.14,4-21.48,3.57c-4-.23-8.3-.67-11.92,1.12-8.8,4.34-7.31,16.94-7.19,26.75.2,15-6,29.27-9.91,43.76-10.2,37.57-5.38,77.33-6.68,116.24-.52,15.66-3.23,33.4-16.2,42.19-6.46,4.38-15.07,6.16-19.42,12.64-2.49,3.71-3.14,8.43-5.69,12.1-4.3,6.2-12.64,7.79-20.14,8.62q-14.72,1.61-29.54,1.89c-4.25.08-9.13-.2-11.77-3.53-4.14-5.22.4-13.51-2.76-19.37-1.44-2.66-4.2-4.27-6.65-6a42.46,42.46,0,0,1-16.08-43.23Z"></path>
    <path data-name="3" data-official="Solanum Lycopersicum" data-plain="Tomato" data-loc="S. America" d="M947.23,1471.26l-3.08,4.44a197,197,0,0,1-12.45,25c-3.24,5.48-6.8,11-8.1,17.2l-10.07.61a3.33,3.33,0,0,1-1.57-.16,3.72,3.72,0,0,1-1.4-1.65c-2.75-4.61-8.34-7-13.7-7l-1.32-8.33c4.27-3.13,7.2-7.71,10-12.18l6.49-10.25,1.67-7.38c11.1-9.31,20.61-20.49,32.43-28.86Zm-124,367.26a209.15,209.15,0,0,1-4.35-22.47l.28-4.56q-3-7.83-6.15-15.56a67.37,67.37,0,0,0-5.91-11.87,24.55,24.55,0,0,0-9.7-8.84l-2.31,6.68q-4.14,8.31-7.49,17a73.56,73.56,0,0,0-3,9,88.76,88.76,0,0,0-1.66,10.26L781,1835l-2.58,7.6a231.57,231.57,0,0,0-.93,35.23,17.18,17.18,0,0,0,1.22,6.53c.58,1.23,1.44,2.33,2,3.58,2.81,6.34-2.89,14.79,1.39,20.25,2.82,3.61,8.3,3.44,12.77,2.41,5.42-1.25,11-3.53,14.1-8.15,2.41-3.6,3-8.11,3.21-12.44.84-14.75-.79-30.75,7.27-43.14Zm19.93-187.66c-3.54,5.15-4,11.72-5.74,17.73-1.76,6.16-4.88,11.83-7.62,17.63a152.93,152.93,0,0,0-12.76,41.44l-4,9.42a36.43,36.43,0,0,1,.81,10.15c-.32,5.1-1.68,10.43.26,15.16a23.27,23.27,0,0,0,3,4.79c4.12,5.6,8.55,11.45,14.95,14.19l6.36-6.17,7.67-20.3c7.59-20.08,15.18-40.18,21.11-60.81,2.23-7.8,4.39-16,9.73-22.08a75.45,75.45,0,0,1,7.38-6.79,82.43,82.43,0,0,0,22.5-32.33l3.9-11.59a21.17,21.17,0,0,0-7.4-2c-2.54-.2-5.12.07-7.65-.26-2.22-.28-4.38-1-6.62-1.11a23.28,23.28,0,0,0-5.25.59c-3.8.72-7.61,1.45-11.33,2.53a61.48,61.48,0,0,0-18.63,9.06l-3,4.91Zm114.51,214.72c8.29,7.66,20,10.6,31.29,10.76s22.42-2.15,33.6-3.68a243.08,243.08,0,0,1,68.57.4c10.1,1.5,20.21,3.65,30.41,3.11,22.42-1.17,42.06-15,59.05-29.68,10.27-8.87,20.18-18.34,27.86-29.53,14.07-20.52,19.86-46.1,18.51-71s-9.52-49-21.29-70.93c-4.89-9.1-10.54-18-18.48-24.62-7.39-6.14-16.44-10-25.6-12.89a157.28,157.28,0,0,0-33.46-6.76l-3.35-4q.33-15.63.23-31.26a10.63,10.63,0,0,0-.86-5c-1.89-3.52-6.89-3.75-10.74-2.69a28.33,28.33,0,0,0-11.23,6.13c-1.38,1.24-3,2.72-4.78,2.42a6,6,0,0,1-2.64-1.49,42.09,42.09,0,0,0-24.24-9c-1.33-.05-2.87.06-3.64,1.15a4.34,4.34,0,0,0-.5,2.5l.13,13c-3.4.62-6.77-1.38-9.1-3.93s-4-5.65-6.2-8.27c-5.21-6.06-13.28-9-18.91-14.63-3.3-3.31-5.69-7.51-9.35-10.41-6.6-5.23-15.89-5.23-24.2-3.92l-9.76-.7c-4.17,1.13-8.44,2.32-11.92,4.87a17.94,17.94,0,0,0-7.19,13,10,10,0,0,0,1.45,6.44l2.71,3.25a16,16,0,0,1-3.8,11.34c-1,1.19-2.23,2.22-3.23,3.44s-1.64,2.34-2.51,3.47a29.74,29.74,0,0,1-8.57,7.06,82.68,82.68,0,0,1-22,9.18l2.06,5.69a42.4,42.4,0,0,0,18.74,20.73c-14.93,15.51-37.28,24.29-47.09,43.45-4.18,8.16-5.59,17.43-6.63,26.54a394.69,394.69,0,0,0-2.06,63.66c1,19.64,4,40.65,17.41,55.05,8.8,9.49,21,14.92,31.38,22.72ZM1004.87,1361c-1.85,1.63-4,3-5.75,4.62-5.35,4.95-7.6,12.28-10.72,18.86A94.73,94.73,0,0,1,974,1405.68c-3.12,3.57-6.62,7.61-6.19,12.33l-1.19,4.71a41.9,41.9,0,0,1-13.91,20.39l6.88-.82a82.47,82.47,0,0,0,23.25-8c2.77-1.44,5.92-3.08,8.84-2,3.47,1.31,4.64,5.79,7.79,7.76l3.27,4.92a17.09,17.09,0,0,0,13.61-7.87c1.63-2.63,2.51-5.64,3.66-8.51,2-5,5-9.72,9.47-12.7,5.12-3.42,11.52-4.14,17.65-4.77l12.35-1.73-.69-3.42c.82-5.13,1-10.62-1.35-15.26-.73-1.44-1.68-2.76-2.34-4.23-2.38-5.31-.59-11.44-.8-17.25-.11-3-1-6.26-3.64-7.64-2.11-1.11-4.66-.62-7-.24-10.18,1.66-20.59.86-30.87,0Zm-14.75-132.79-11.51-6.33a24.28,24.28,0,0,1-6.76-4.8c-3.82-4.33-4-10.67-6.17-16a10.44,10.44,0,0,0-2.12-3.54,10,10,0,0,0-5-2.5,16,16,0,0,0-7-.19c-5.21,1.1-9.4,5.38-11.26,10.37-1.59,4.29-1.71,9.13-4.05,13.06-2.73,4.56-8,7-13.2,8.12s-10.59,1.11-15.8,2.17a79.08,79.08,0,0,0-10.93,3.32l-5.35-.26a104.18,104.18,0,0,1-23.73,1.26l-3.45,4.67c1.46-.36,3.4-.52,4.09.83a3.31,3.31,0,0,1,.27,1.29l1.71,21.8.22,6.23-.72,47-2.13,6.69a30.53,30.53,0,0,1-4.42,11.91,8.1,8.1,0,0,1-2.81,3c-1.58.84-3.48.7-5.27.54q-.85,4-1.85,7.9a8.08,8.08,0,0,1,3.17,1,2.72,2.72,0,0,1,1.29,2.86l2.17,4a45.63,45.63,0,0,1-2.83,15.9c-1.77,4.78-4.38,9.42-4.49,14.51,2.62-.25,4.43-2.7,5.67-5,3-5.6,5-12.11,10-16,4.12-3.23,9.58-4.08,14.35-6.23a8.19,8.19,0,0,0,3.56-2.61c2.06-3.05.49-8.13,3.57-10.13l2-2.26c2.36.36,3.6-3.34,6-3.52a2.92,2.92,0,0,1,2.61,1.54,6,6,0,0,1,.65,3.09c0,5-2.87,9.55-3,14.51-.14,5.81,3.45,11.31,2.87,17.09l1.56,5.3c-.62,4.41-1.08,9.42,1.81,12.8l6.24,3.73c3.74-4.16,7.55-8.39,12.29-11.37,1.67-1.06,3.52-2,4.64-3.65a18.84,18.84,0,0,0,1.83-4.81c1.32-3.88,4.11-7.1,7.21-9.78s6.57-4.91,9.74-7.51a54.73,54.73,0,0,0,11.23-12.58l8.81-7.63a32.18,32.18,0,0,1,5.43-10.79,8,8,0,0,0,1.46-2.37,9.21,9.21,0,0,0,.19-2.92,15.68,15.68,0,0,1,2.6-8.74l.21-6.16c2.83-18.64,13.67-35.11,18.49-53.34,2.27-8.57,3.21-17.56,6.72-25.71Z"></path>
    <path data-name="4" data-official="Juanulloa parasitica" data-plain="Parasitic Juanulloa" data-loc="Peru" d="M1292.27,1293.16c-.06-2.12-.5-4.77-2.54-5.35l-7-2.34q-14.91-.73-29.77-2.16c-7.32-.7-14.77-1.58-21.45-4.64l-5.62.17a30.71,30.71,0,0,1-20-1.44c-3.8-1.65-7.4-4.12-11.53-4.51s-8.72,1.45-12.69-.13c-3.5-1.39-5.5-5-8.51-7.33-4.73-3.58-12-3.84-15.1-8.89-1.15-1.87-1.51-4.1-2.23-6.17s-2.06-4.17-4.17-4.75l-4.38-3.42-21.09-14.81-5.09-2.67-13.57.48a29.23,29.23,0,0,1-7.71-.41,24.32,24.32,0,0,1-6.49-2.78c-3.82-2.17-7.43-4.67-11-7.17l-26.22-18.13a35.65,35.65,0,0,1-6.15-5c-3-3.31-4.68-7.62-6.25-11.82l-2.45-9.28a184.69,184.69,0,0,1-18-12.16c-17.9-14.14-30.32-33.87-43.79-52.28l-6.56-4.16-8.58-7.47a24.42,24.42,0,0,1-5.64-6.24c-2.71-5-1.65-11.06-.19-16.52.83-3.14,2-6.51,4.71-8.24a13.72,13.72,0,0,1,5-1.57l9.86-1.77c2.74-.49,5.63-1.06,7.68-2.94l0-4.29c3-5,2.07-11.81,5.59-16.49,4.74-6.3,15-5.6,20.35-11.44,1.59-1.75,2.61-4,4.24-5.71,4-4.27,11.09-4.76,14.81-9.32l2.76-5.68c1.67-2.36,1.68-5.47,1.73-8.37a40.79,40.79,0,0,1,1.22-10.28,25.28,25.28,0,0,1,9.54-13.67l-1.69-5.7a34.53,34.53,0,0,0-13.54-16.6c-3.06-2-6.41-3.4-9.6-5.12a127.71,127.71,0,0,1-15-10c-4.11-3-8.28-6.12-11.32-10.22-1.52-2.06-2.74-4.35-4.51-6.2s-4.3-3.24-6.82-2.8l-.61-.25a59.9,59.9,0,0,1-29.16,7.59c-11.72,0-23.35-3.47-35-2.33a72.51,72.51,0,0,0-14,3.08,203.84,203.84,0,0,0-43.71,19l-.54.59q.14,8.05.28,16.12a12.66,12.66,0,0,0,.62,4.51l1.15,17.28c2.62,10,10.56,18.1,19.85,22.7s19.83,6.07,30.2,6.3c5.21.11,10.56,0,15.45,1.74-5.07,4.25-7.33,11-8.35,17.51s-1.07,13.23-2.8,19.61l-30.38-21.73c-13.86-9.91-28.61-20.17-45.58-21.69l-6.82-1.77a25.75,25.75,0,0,0-14.06,2.75,4.12,4.12,0,0,0-1.18.83,7,7,0,0,0-.87,1.67,6.16,6.16,0,0,1-4,3.33c-.41,3.3.86,6.77-.21,9.93-.64,1.92-2.09,3.49-2.77,5.4-.9,2.56-.43,5.71-2.25,7.73l8.12,7.26q32.4,27.14,66.89,51.65c1.36,1,2.89,2.24,2.79,3.91-.12,2-2.51,3.07-4.52,3.5-9.18,2-18.68,1.7-28.08,1.94a238.82,238.82,0,0,0-134.06,45.78l-7.41,1.25-.25,5.39a89.59,89.59,0,0,1-12.23,11c-2.09,1.45-4.3,2.73-6.5,4L674,1182.31l-.28-1.74c-.76-5.4-1.07-11,.68-16.19a42.11,42.11,0,0,0,2-5.92,21.28,21.28,0,0,0,.09-5.17c-.33-5.13-.83-10.69-4.28-14.51,5.13-5.2,7.83-12.49,13.3-17.32,5.21-4.62,12.54-6.63,17-12,1.24-1.49,2.89-3.42,4.68-2.67a3.41,3.41,0,0,1,1.41,1.31l5-4.69c5.21-6.32,10.45-12.7,14.24-20s6-15.57,4.85-23.67a3.9,3.9,0,0,1,2.37-5.18,28.59,28.59,0,0,0,13.31-20.7l1.1-8.26a266.55,266.55,0,0,0,3.66-40.86c0-3-.06-6.3-1.94-8.67-1.71-2.13-4.55-3-7.28-3.26-7.32-.6-14.31,2.93-20.58,6.76s-12.52,8.15-19.76,9.45l-9.72,1.74c-.3,2.9-3.09,5-5.92,5.69s-5.82.35-8.73.44c-6.45.22-12.6,2.6-18.5,5.19l-1.55-.46c1.75,2.52,4.69,3.88,7.18,5.67s4.8,4.61,4.21,7.63l.24,1c4.46,5.16,5.78,12.39,5.42,19.2a7.94,7.94,0,0,0,.45,4.09,7.11,7.11,0,0,0,3,2.58,122.62,122.62,0,0,0,11,5.54c-6.41,1.86-13.34,0-19.38-2.81-3.93-1.85-8.12-4.82-8.32-9.16-7.3,0-15.42-.22-20.63-5.33a2.58,2.58,0,0,0-1-.7,2.54,2.54,0,0,0-1.48.17,19.72,19.72,0,0,1-18.06-3.51,2.53,2.53,0,0,0-1.48-.76,2.28,2.28,0,0,0-.92.27c-8.45,3.83-17.15,7.84-23.39,14.71l-3.87,3.41-8.8,13.6c-.93,1.43-1.9,3-1.8,4.71l0,1.22c6.39,11.5,12.9,23.35,14.65,36.39a84.55,84.55,0,0,1,.56,12.43,62.19,62.19,0,0,1-1,11.24,72,72,0,0,1-3.73,11.58c-1.91,5-4.09,10.25-8.58,13.08l-.76.52c.76,4.09,1.47,8.53-.42,12.24-1.22,2.4-3.38,4.16-5.18,6.17-5.3,5.93-7.81,14.49-14.58,18.66a2.87,2.87,0,0,0-1.12,1,2.55,2.55,0,0,0-.22,1.06,29.5,29.5,0,0,0,1.76,11.59l.77,3.89c1.26,1.36,3.31,1.72,4.71,3,.66.58,1.15,1.33,1.82,1.89,2,1.72,5,1.38,7.63,1a4.87,4.87,0,0,0,.19,4.8,9.68,9.68,0,0,0,1.77,1.91c4.46,4,9.23,8.19,15.13,9.31l2.71,4.46q.76,5.45,2,10.81l1.8,5.83c-.09,1.75-1.53,3.1-2.86,4.24a41.77,41.77,0,0,0-5.39,5.16c-3.3,4-5.2,9.53-9.79,12-2.25,1.22-5.12,1.72-6.5,3.87l-4.23-1.8-11.36,2.67c-15.3,3.22-27.45,17.73-27.94,33.36-.1,3.48-.12,7.77-3.21,9.39-2.24,1.18-5.14.12-6.81-1.78s-2.4-4.43-3-6.89c-1.52-6.29-2.54-12.72-4.62-18.85s-5.34-12.07-10.47-16L494.55,1268a16.24,16.24,0,0,0-4.78,1.81c-2.48,1.67-3.58,4.76-4,7.71-.92,6.4.49,13.52-3,18.94s-11.47,7.67-13.74,13.84c-.79,2.13-.77,4.49-1.58,6.62-.63,1.67-1.74,3.13-2.48,4.76-1.45,3.23-1.36,6.91-1.24,10.45-3.27-5.57-5.1-13.4-7.43-19.43-3.52-9.13-6.88-16.77-7.25-26.55-.15-4,0-8.05.05-12.08.09-13.71-1.69-27.35-3.47-41l-24.05-14.06c-11.62.51-23-2.81-34.4-5.31s-23.45-4.15-34.48-.41l-11.49,4a50,50,0,0,1-9.6,14.58c-12.46,13.09-31.54,19-49.48,16.89l-3.82,12.29-29.71,19.53c-7.65,5-16.26,11.94-15.35,21,.32,3.24,1.88,6.26,2.19,9.5.66,6.75-4.24,12.88-9.87,16.66s-12.19,6-17.74,9.94c-13.32,9.37-18.62,26.39-21.8,42.37-2.74,13.72-4.56,27.87-2.29,41.67s9.1,27.35,20.7,35.18c7.82,5.27,17.48,7.8,24.32,14.3,10.67,10.14,11.4,27.32,6.69,41.26s-13.81,25.91-20.89,38.82c-14.75,26.87-21.25,58.71-41.78,81.46l-9.08,13.65a101.72,101.72,0,0,0-29.28,35.14c-4.29,8.51-7.42,18-6.11,27.48,2.28,16.49,16.93,28,30.47,37.73,20.33,14.55,43.31,29.71,68.12,26.73,9.21-1.11,17.93-4.7,27.05-6.39s19.42-1.11,26.39,5c7.69,6.76,9.1,18.26,7.9,28.43s-4.47,20.15-4.06,30.38c1,24.66,24.23,44.31,48.66,47.82s49-5.91,70.09-18.78c7.25-4.44,14.44-9.5,19-16.65,6.43-10,6.87-22.59,7.41-34.48q1.4-30.86,5.32-61.51c1.59-12.41,4.93-26.76,16.35-31.86,12.37-5.52,26,3.18,37.68,10,36.83,21.34,80.79,25.94,123.31,27.89,13.33.61,29.68-.69,35.47-12.72,5.94-12.32-3.2-29.51,6-39.65,3.65-4,9.24-5.58,13.66-8.74,14.62-10.46,13.13-35.35,28.51-44.65l8.22-7.45,1.55-8.69a145.33,145.33,0,0,1,2-18.84,19.74,19.74,0,0,0,19-6.55c3.52-4.24,5-9.73,6.94-14.91s4.5-10.5,9.24-13.3l1.33-2.31q1.2-11.85,1.59-23.78a19.42,19.42,0,0,1,1-6.66,28.46,28.46,0,0,1,2.57-4.39,28.86,28.86,0,0,0,4.08-19.21l5.78-1.35,1.62.78a131.31,131.31,0,0,1,11.73,19.69c.89,1.83,1.75,3.87,1.25,5.84a8.76,8.76,0,0,1-2.61,3.78,99.66,99.66,0,0,1-10.75,9.25c-1.72,1.27-3.7,3.16-3,5.16.55,1.5,2.33,2.07,3.9,2.4a80.71,80.71,0,0,0,13,1.64,23,23,0,0,0,7-.52,26.61,26.61,0,0,0,7.48-3.91l.45.47a84.55,84.55,0,0,0,.36,14.23c.16,1.43.64,3.18,2,3.44a3.24,3.24,0,0,0,1.31-.1,50.63,50.63,0,0,0,13.72-5.09c3.53-1.92,7.05-4.57,8.16-8.43.91-3.19,0-6.58-.9-9.77l.26.38c1,2,2.23,4.27,4.42,4.78a17,17,0,0,0,3.19.08,28.12,28.12,0,0,1,3.63.63c1.44.25,2.91.27,4.35.52a6.8,6.8,0,0,1,3.88,1.85l5.42.36c4.39-.19,8.59-1.7,12.72-3.2,3.06-1.1,6.56-2.7,7.2-5.89.76-3.77-3.08-7.55-1.78-11.17.38-1.09,1.2-2,1.67-3a10.59,10.59,0,0,0,.67-3.87l1.38-4.08-4.47-13.35a2.91,2.91,0,0,0-2.51-3.41,7.27,7.27,0,0,0-2.79.67c-4.36,1.52-9.13.66-13.74.52-2.51-.08-5.3.19-7,2l.07-.89a18.51,18.51,0,0,0-1.59-9c-.72-1.59-1.7-3.23-1.45-5l-1.45-.27-15.06-21.43a92.77,92.77,0,0,0-8.19-10.53c-2-2.12-4.21-4-6.22-6.16a103.48,103.48,0,0,1-9.72-12.69q-9.92-14.22-20.81-27.72a1.27,1.27,0,0,1,1.51-1,4.3,4.3,0,0,1,1.74.94,21.29,21.29,0,0,0,9.49,3.93l-.47-.92c-2.54-13.54-12.84-24.36-17.08-37.47-3.42-10.59-2.7-22-1.28-33.1l3.44-4.34-1.24-5.52c-1.28-15-2.13-30.41,2.66-44.64,7-20.94,25.12-36,43-49,11.75-8.49,25-16.94,39.47-16l10.18-1.61,3.37-2.29,3.18-.78,3.45-4.67a104.21,104.21,0,0,0,23.73-1.26l5.35.26a79.08,79.08,0,0,1,10.93-3.32c5.21-1.06,10.6-1.07,15.8-2.17l1-7.33q5.35-10.77,10.7-21.55a56.57,56.57,0,0,0,5-12.32c1-4.2,1.18-9,4.35-11.93,2.6-2.41,6.61-2.76,10-1.79s6.37,3.09,9.23,5.19c24.38,17.81,47.7,37.43,74.51,51.31l5,4.11a48.17,48.17,0,0,1,32.49,11.22c2.24,1.89,4.3,4,6.52,5.89,8.63,7.38,19.71,11.85,27.17,20.41l4.64,10.16,14.26,11.83a72.66,72.66,0,0,0,11.91,8.6c4.32,2.3,9.27,3.73,14.14,3.14l6.64-2.68c2.7-.42,5.37.69,7.87,1.78,8.3,3.61,16.62,7.24,24.32,12l16.26,10.19a140.53,140.53,0,0,0,75.65,16.27l8.89.64ZM614.21,1283a9.73,9.73,0,0,1-2.56,6.5c-2,2.11-5,3.59-5.53,6.43-.09.53-.09,1.09-.17,1.63a9.67,9.67,0,0,1-.51,1.8c-.76,2.15-1.52,4.31-2.27,6.46-1.45,4.1-3.24,8.6-7.17,10.46l-3.3-2.65a15.61,15.61,0,0,1-5.34-12l-.78-2.67a30.84,30.84,0,0,0-2.8-13.74,1.58,1.58,0,0,1-.21-.76c0-.5.55-.82,1-1a120.23,120.23,0,0,0,19.93-13.1,5.62,5.62,0,0,1,3.23-1.62c1.63,0,2.9,1.37,3.8,2.73a26,26,0,0,1,3,6.3Zm72.36-73.27c-3.51,9.17-6.21,18.64-9.85,27.75a12.79,12.79,0,0,1-1.92,3.59,13.44,13.44,0,0,1-4.66,3.17l-.75-3.37a60.6,60.6,0,0,1-.12-10.08,6.49,6.49,0,0,1,.75-3c.7-1.11,2-1.71,3-2.54a8,8,0,0,0,2.79-7.22,5.71,5.71,0,0,1-.15-2.49c.25-.88,1-1.5,1.43-2.32.78-1.62,0-3.65.71-5.29a14.75,14.75,0,0,1,1-1.6c1.74-3-.17-7.19,1.76-10a8.68,8.68,0,0,1,3.28-2.54l17.27-9.4C694.49,1191.58,690.08,1200.57,686.57,1209.73Zm789.73,118.44q-3.16-20.82-7.89-41.36a11.47,11.47,0,0,1-.41-4.72,3.85,3.85,0,0,1,3.06-3.23l9.3-3.34a203.54,203.54,0,0,1,49.11-4.47c5.76.18,11.89.53,16.93-2.29,2-1.1,3.66-2.63,5.53-3.9,7.36-5,18.63-4.86,24.17,2.1a20.39,20.39,0,0,1,3.73,8.79,35.12,35.12,0,0,1-2.83,22,10.06,10.06,0,0,0-1.33,3.84,8.88,8.88,0,0,0,1.07,3.86l6.25,13.8-4.62,8.53a202.92,202.92,0,0,0-93.93,11.22Z"></path>
    <path data-name="5" data-official="Capsicum baccatum" data-plain="" data-loc="East and West Indies" d="M1197.87,1328c.56,11.1,1.12,22.25.07,33.31s-3.81,22.11-9.47,31.68c-2.54,4.3-5.65,8.27-7.9,12.73a37.94,37.94,0,0,0-3.72,21.65l-2.39,5.35c-3.91,2.46-9.12,1.54-13.22-.59s-7.56-5.33-11.6-7.59c-3.1-1.73-6.61-3-9-5.64-1.39-1.59-2.27-3.58-3.66-5.18-2.14-2.46-5.3-3.76-8.33-5l2-6.3q.06-13.5.11-27a118.92,118.92,0,0,1,.62-14.13c2.29-18.56,13.09-34.82,23.58-50.31l5.62-10.33c2.7-.42,5.37.69,7.87,1.78,8.3,3.61,16.62,7.24,24.32,12Zm-17.72,205.43-3-9c-5.52,1.26-11.09,2.53-16.76,2.53a38.22,38.22,0,0,1-21.41-6.62l-4.79.44,2,5.66q0,20.58.08,41.17a19.09,19.09,0,0,1-.65,6.13c-1.17,3.49-4.2,6-7.09,8.24l-4.39,8.6a10.63,10.63,0,0,1,.86,5q.07,10.76-.07,21.53h6.81c4.58-.07,9.53-.28,13.11-3.12,2.15-1.71,3.55-4.18,5.54-6.07,8.25-7.82,23.79-3.52,31.14-12.19,4.35-5.12,3.88-12.64,3.16-19.32Q1182.46,1554.9,1180.15,1533.39Zm463.56-377c-2.77-3.86-6.42-7.25-8-11.75-2-5.83,0-12.54-2.39-18.23-3.7-8.87-16.27-11.66-19.38-20.75-1.44-4.21-.46-8.79-.18-13.23.87-13.92-5.33-27.28-12.37-39.33-4.42-7.56-9.44-15.1-16.74-20-9-6-20.2-7.1-30.92-8.06-23.33-2.11-48.35-3.86-68.66,7.79-3.17,1.82-6.32,4-9.95,4.43-7.58.91-13.61-5.77-19.15-11-10.78-10.21-25.86-17-40.45-14.29l-12.74.46c-3.66,1.06-8,3-8.3,6.75a9.37,9.37,0,0,0,.51,3.18l19.27,68.5c5,17.62,9.93,35.3,17.16,52.11l7.63,3c46.29-14.18,99.57-2.71,135.92,29.26,2.65,2.33,5.3,4.82,8.6,6.07,3,1.14,6.28,1.17,9.49,1.18,16.45.08,33.83-.09,48-8.48a13.21,13.21,0,0,0,4.91-4.37C1648.38,1165.51,1646.48,1160.21,1643.71,1156.35Zm-350.78-122.3c.93,2.16.85,4.6.75,7-2.14,47.42-8.23,94.83-5.14,142.2l-7,8.11c-3.64-.88-7.23,2.12-8.68,5.58s-1.43,7.32-2.11,11c-1.13,6.16-4.19,11.77-7.41,17.14-7.35,12.28-15.73,23.9-24.1,35.5a129.38,129.38,0,0,1-11,13.87l-2.34,4.44a30.71,30.71,0,0,1-20-1.44c-3.8-1.65-7.4-4.12-11.53-4.51s-8.72,1.45-12.69-.13c-3.5-1.39-5.5-5-8.51-7.33-4.73-3.58-12-3.84-15.1-8.89-1.15-1.87-1.51-4.1-2.23-6.17s-2.06-4.17-4.17-4.75l-4-14.24c-7.47-24.48-21.77-46.19-34.86-68.18a81.73,81.73,0,0,1-7-13.66c-2.26-6.22-3.07-12.85-3.8-19.42q-4.23-37.71-6.21-75.6l0-10c-.58-10.39-1.21-21-5.26-30.62-3.42-8.1-9.09-15-14.69-21.79-4.21-5.11-8.47-10.26-13.71-14.31L1045.87,972l-1.69-5.7a34.53,34.53,0,0,0-13.54-16.6c-3.06-2-6.41-3.4-9.6-5.12a127.71,127.71,0,0,1-15-10c-4.11-3-8.28-6.12-11.32-10.22-1.52-2.06-2.74-4.35-4.51-6.2s-4.3-3.24-6.82-2.8l-.61-.25a59.9,59.9,0,0,1-29.16,7.59c-11.72,0-23.35-3.47-35-2.33a72.51,72.51,0,0,0-14,3.08,203.84,203.84,0,0,0-43.71,19l-.54.59q.14,8.05.28,16.12a12.66,12.66,0,0,0,.62,4.51l1.15,17.28-21.61,24.44-6.82-1.77a25.75,25.75,0,0,0-14.06,2.75,4.12,4.12,0,0,0-1.18.83,7,7,0,0,0-.87,1.67,6.16,6.16,0,0,1-4,3.33c-.41,3.3.86,6.77-.21,9.93-.64,1.92-2.09,3.49-2.77,5.4-.9,2.56-.43,5.71-2.25,7.73l-.65,15.82a160.79,160.79,0,0,1-.86,19.5c-.44,4.19-1.13,8.58-3.72,11.91-3.82,4.91-11.07,6.19-17,4.28s-10.64-6.45-14.36-11.44-6.63-10.53-10.29-15.57c-1.83-2.51-3.84-4.88-5.56-7.47a41.29,41.29,0,0,1-4.19-8.08l-3.71-10.41,1.1-8.26a266.55,266.55,0,0,0,3.66-40.86c0-3-.06-6.3-1.94-8.67L750,964.75c2.1-7.77,7.61-14.08,13-20.1l7.55-8.49c-7.1-1.22-14.53-2.42-21.4-.24-5.4,1.72-9.94,5.38-15,8-11.59,6.07-25.21,6.47-38.3,6.73l-7.9,3.69c-.43-2.53-1-5.31-3.13-6.8a7.76,7.76,0,0,0-5.48-1c-7.63.93-13.57,6.86-18.85,12.45l-8.63,9.12-8.32,9,2.22-6.36,4.59-6.17c7.84-8.09,11.83-19,15.61-29.67a64.14,64.14,0,0,0,2.71-9c.59-3,.74-6,1.12-9a62,62,0,0,1,2.73-12c1.07-3.18,2.39-6.27,3.38-9.47,2.15-7,2.64-14.35,2.89-21.65l-.42-9.94,8.4-3.87a241.55,241.55,0,0,1,33-21.36,83.16,83.16,0,0,1,12.9-5.86c6.23-2.09,12.81-2.94,19.33-3.78l-9-9a159.05,159.05,0,0,1-11.39-12.27c-6-7.41-10.53-15.82-15.07-24.18l-4.35-12.32,5.85-21.28c2.54-9.22,5.09-18.47,6.58-27.92l10.7-17.67,7.33-3.08c-.37-9.37.31-18.86,3-27.83s7.57-17.43,14.66-23.57,15.7-9.56,24.45-12.39a201.46,201.46,0,0,1,28.56-6.93A46,46,0,0,0,777,617.74c-10,1-19.26,5.32-28.59,9s-19.34,6.75-29.25,5.27L712,637.42c-6.86-6.45-15.14-11.15-23.45-15.57a16.36,16.36,0,0,1-5.48-4,11.42,11.42,0,0,1-2.08-5.23c-1.32-7.87,2.08-15.82,6.67-22.34l17.13-10.37c10.92-1.58,20.69-7.64,31.42-10.25a51.08,51.08,0,0,1,21.77-.52c4.4.85,8.7,2.29,13.17,2.65s9.31-.49,12.52-3.62a4,4,0,0,0,1.26-2c.32-1.65-1-3.09-2.31-4.2a516.19,516.19,0,0,0-45.75-35.92c-3-2.12-6.22-4.33-8-7.59a14,14,0,0,1-1.37-8.94c.85-5.3,4.91-10.38,10.26-10.91l9-1.39c23.17.07,46,5.37,68.53,10.63-.56-10.69-1.1-21.52,1.12-32s7.56-20.71,16.51-26.58,21.1-6.64,31.12-2.53,17.91,12.72,21.93,22.77a87.4,87.4,0,0,1,49.63-21l14.94,1.55a29,29,0,0,0,15.42-2.19,85.88,85.88,0,0,0,13.79-7.62l6.9-4.38a37.22,37.22,0,0,0-4.71,13.85c-.69,5.26-.29,10.8-2.43,15.66-1.61,3.64-4.49,6.53-6.76,9.8s-4,7.4-2.74,11.19l-5.75,20.29c-8.32,13.72-15.59,28.42-18.07,44.27-1.65,10.5-1.15,21.21-2,31.8a122.75,122.75,0,0,1-22,60.45l-6,7.27c-3,4.46-8,7.07-12.41,10s-8.88,7-9.52,12.32c-.34,2.76.4,5.53,1.14,8.22q1.72,6.3,3.44,12.6a12.56,12.56,0,0,0,2.41,5.34c2.27,2.51,6,2.77,9.29,3.58a23.62,23.62,0,0,1,17.39,28c15.48-14.55,31.11-29.21,49.28-40.2s39.33-18.2,60.49-16.36l7.26-.28c5.67-2.76,11.45-5.55,17.67-6.56,6.41-1,13-.14,19.44-.46a51.6,51.6,0,0,0,15-3.05l7.63-.18c2.46,1.08,5,2.24,6.75,4.28s2.51,5.19,1,7.43a7.91,7.91,0,0,1-3.18,2.53c-5,2.5-10.63,3.11-16.17,3.55-9.19.72-18.46,1.08-27.44,3.15s-17.8,6.06-24,12.91l-8.6,11.81a302.52,302.52,0,0,0-29.12,36.49L996.6,755c-4.58,8-9.23,16.17-11,25.21a23.77,23.77,0,0,0,.36,12.31,29.86,29.86,0,0,0,4.72,8,61.58,61.58,0,0,0,10.51,11.41,27.46,27.46,0,0,0,14.06,6.19c5.12.53,10.22-.8,15.32-1.48,7.16-1,14.43-.63,21.65-.31l3.9,3a81.92,81.92,0,0,1,20-5.81c9.55-1.5,19.33-1.3,28.8-3.21l7.19-5.62c12.37.65,23.07,10.85,35.44,10.13,8.17-.48,16-5.76,24-4l7.91,1.11c8.38,5.37,13.88,14.33,17.4,23.65s5.3,19.17,8,28.76c3.73,13.29,9.19,26,14.63,38.71a178.83,178.83,0,0,0,7.88,16.76c2.34,4.19,5,8.19,7.67,12.19l33.62,50.37-9,6.39c-12.86,7.82-30.24-.21-44.24,5.28-4.93,1.94-9.07,5.42-13.56,8.22-15,9.35-33.43,10.94-51.09,11.11-6.8.06-14.86.62-18.38,6.44-1.91,3.17-1.87,7.11-1.64,10.81a148.53,148.53,0,0,0,2.09,17.19c.3,1.69.81,3.61,2.35,4.39a5.33,5.33,0,0,0,3.24.21c5.2-.85,10.14-2.9,15.33-3.78,9.69-1.64,19.57.92,28.91,4,6.26,2.07,12.81,4.66,16.7,10,4.52,6.19,4.42,14.67,8.05,21.41,18.42-24,46-38.77,72.77-52.86l7.24-.64C1289.74,1030.11,1292,1031.89,1292.93,1034.05Zm-178.8-92.69a36.15,36.15,0,0,0-1.52-9.84,12.92,12.92,0,0,0-6.14-7.56,16.49,16.49,0,0,0-7-1.3,54.11,54.11,0,0,0-29.56,8.31,20.83,20.83,0,0,0-6,5.23,9.5,9.5,0,0,0-1.79,7.57l-2.81,4.73a183.76,183.76,0,0,0,31.12,37.32c3.91,3.6,8.24,7.15,13.47,8.1,2.65.48,5.62.17,7.65-1.6l2.7-6.4A411.4,411.4,0,0,0,1114.13,941.36Z"></path>
    <path data-name="6" data-official="Brugmansia sanguinea" data-plain="Red Brugmansia" data-loc="Peru" d="M1114.13,941.36a36.15,36.15,0,0,0-1.52-9.84,12.92,12.92,0,0,0-6.14-7.56,16.49,16.49,0,0,0-7-1.3,54.11,54.11,0,0,0-29.56,8.31,20.83,20.83,0,0,0-6,5.23,9.5,9.5,0,0,0-1.79,7.57l-2.81,4.73a183.76,183.76,0,0,0,31.12,37.32c3.91,3.6,8.24,7.15,13.47,8.1,2.65.48,5.62.17,7.65-1.6l2.7-6.4A411.4,411.4,0,0,0,1114.13,941.36ZM1032.9,1567.2l2.31-13.06,1.2-4.93,4.77-.74a62.8,62.8,0,0,0,54.84-3.29c4.8-2.74,9.65-6.26,15.18-6.11l3.18,6.22a38.88,38.88,0,0,1,.66,10.8c-.45,3.59-2.06,7.2-5,9.26s-7.26,2.64-9,5.83c-.94,1.74-.83,3.82-.93,5.78a25.46,25.46,0,0,1-2.91,10.55l-2.39,7.43a42.09,42.09,0,0,0-24.24-9c-1.33-.05-2.87.06-3.64,1.15l-3.45-2.38a62.17,62.17,0,0,1-7.75,1.79l-4.47,3.89c-5.21-6.06-13.28-9-18.91-14.63Zm83.77-277c3.64,37.24,7.29,74.52,8.09,111.92l.37,6.87-8.8,5.15c-2.42,1.41-5.27,2.87-7.89,1.86s-3.67-3.74-5.69-5.47c-2.57-2.2-6.21-2.5-9.59-2.7-11.27-.66-22.78-1.3-33.69,1.63l-.69-3.42c.82-5.13,1-10.62-1.35-15.26-.73-1.44-1.68-2.76-2.34-4.23-2.38-5.31-.59-11.44-.8-17.25-.11-3-1-6.26-3.64-7.64l-.35-8a1060.38,1060.38,0,0,0-2.11-114.43l-5.33-7.2a48.17,48.17,0,0,1,32.49,11.22c2.24,1.89,4.3,4,6.52,5.89,8.63,7.38,19.71,11.85,27.17,20.41l4.64,10.16Zm-9.23-126a486.55,486.55,0,0,1,16.36,53.31l-2.68,7.18-13.57.48a29.23,29.23,0,0,1-7.71-.41,24.32,24.32,0,0,1-6.49-2.78c-3.82-2.17-7.43-4.67-11-7.17l-26.22-18.13a35.65,35.65,0,0,1-6.15-5c-3-3.31-4.68-7.62-6.25-11.82l-2.45-9.28L1037,1162c-1.33-9.2-4.71-18-8.25-26.55A653,653,0,0,0,992.45,1061l-6.82-8c3-5,2.07-11.81,5.59-16.49,4.74-6.3,15-5.6,20.35-11.44,1.59-1.75,2.61-4,4.24-5.71,4-4.27,11.09-4.76,14.81-9.32l2.29,6.69q7.66,7.53,14.9,15.47a191.79,191.79,0,0,0,7.22-49.48l7.09-5c5.24,4,9.5,9.2,13.71,14.31,5.6,6.78,11.27,13.69,14.69,21.79,4,9.6,4.68,20.23,5.26,30.62l0,10q2,37.88,6.21,75.6c.73,6.57,1.54,13.2,3.8,19.42ZM1041.6,697.32c6.16-6.85,15-10.83,24-12.91s18.25-2.43,27.44-3.15l-.49,9.19a675.06,675.06,0,0,1,11.13,115.24l1.31,4.62c-9.47,1.91-19.25,1.71-28.8,3.21a81.92,81.92,0,0,0-20,5.81l-3.9-3-2.52-7.12a389.18,389.18,0,0,0-7.08-91.39Zm349,265c.44,14.4,8.2,27.43,15.73,39.72l-3.46,10.39c-3.66,1.06-8,3-8.3,6.75a9.37,9.37,0,0,0,.51,3.18l19.27,68.5c5,17.62,9.93,35.3,17.16,52.11l7.63,3,6.3,6.54c4.55,15.38,9.11,30.8,11.81,46.61,1.31,7.71,2.18,15.51,4.24,23.06,4.48,16.43,14.6,32.08,12.75,49l-3.14,7.67a3.85,3.85,0,0,0-3.06,3.23,11.47,11.47,0,0,0,.41,4.72q4.72,20.52,7.89,41.36l8.14,10.8-2.57,2c-3,2.57-3,7.15-2.79,11.11l.76,13.09c1.36,23.31,2.73,46.65,6.09,69.76l4.68,2.9a66.58,66.58,0,0,0,31-2.06,29.17,29.17,0,0,0,8.39-3.89,37,37,0,0,0,6.26-6.24l11.83-13.85,10.55,3.25c20.41,10,31.33,33.12,34.43,55.63s0,45.35.25,68.07c.21,16.09,2.14,32.3-.4,48.19-5.61,35.11-32.87,63.89-64.71,79.72s-68,20.6-103.4,23.33q-37.93,2.94-76,3.11c-35.88.17-73-1.79-105.15-17.71-9.77-4.84-19.08-11-25.9-19.55-8.5-10.6-12.58-24-15.69-37.25a346.18,346.18,0,0,1-9.14-83.63l2.73-8,4.69,2.91c4.78-5.72,3.62-14.57,7.8-20.74,2.43-3.59,6.39-5.83,10.38-7.53,7.36-3.14,15.24-5.85,22.82-8.42s13.08-7.19,18.31-13.25c1.41-1.63,3.67-3.59,5.35-2.23a3.38,3.38,0,0,1,1,1.62c1.69,5.18-.86,11-4.86,14.67s-9.22,5.73-14.3,7.68l-14,5.38a24.91,24.91,0,0,0-7.61,4c-5,4.38-5.65,12.42-2.68,18.39l7,4.51c3.45,1.53,7.28,1.92,11,2.24,10.82.93,21.78,1.45,32.5-.3s21.29-5.91,29.21-13.33l10.73-10.06c.69-20.51-2.1-41-4.9-61.29l-2.7-19.7-10.45-76.14a10.65,10.65,0,0,0-1.53-4.91c-2.51-3.41-7.72-2.63-11.8-1.48l3.2-8.08,8.89.64-1.35-48.36c-.06-2.12-.5-4.77-2.54-5.35l-5.65-12.14-2.7-76.71.19-7.65,7-8.11c-3.09-47.37,3-94.78,5.14-142.2.1-2.35.18-4.79-.75-7s-3.19-3.94-5.51-3.52l-7.24.64-1-10.58a217.58,217.58,0,0,1-15.63-28.29l-3.92-3.54,9-6.39L1235.06,932c-2.66-4-5.33-8-7.67-12.19a178.83,178.83,0,0,1-7.88-16.76c-5.44-12.69-10.9-25.42-14.63-38.71-2.69-9.59-4.48-19.45-8-28.76s-9-18.28-17.4-23.65l-6.17-8.75c-7.83-9.85-9.49-23.1-10.62-35.63q-1.86-20.7-2.9-41.47c-.54-10.83-.92-21.68-2.36-32.43-1.25-9.28-3.3-18.44-4.81-27.69a239.66,239.66,0,0,1-3.07-35.48c-.06-4.61,0-9.28-1-13.78a4.61,4.61,0,0,0-1.51-2.83,4.92,4.92,0,0,0-2.68-.65l-62-3.18q2.39,23.85,5.62,47.6l-6.06,9.06c-6.48.32-13-.58-19.44.46-6.22,1-12,3.8-17.67,6.56l-4.13-6.5a386.54,386.54,0,0,0-65.6-151.35l-10.85-9.21L970,486.37c-1.23-3.79.47-7.92,2.74-11.19s5.15-6.16,6.76-9.8c2.14-4.86,1.74-10.4,2.43-15.66a37.22,37.22,0,0,1,4.71-13.85l-6.9,4.38a85.88,85.88,0,0,1-13.79,7.62,29,29,0,0,1-15.42,2.19l2.26-6.62-.32-12.06a5.39,5.39,0,0,0-.75-3.15c-.86-1.14-2.43-1.39-3.81-1.78-5.55-1.58-9.6-6.54-15.08-8.34-3.59-1.18-7.47-.91-11.25-.7a265.06,265.06,0,0,1-33.11-.21c-2.11-.14-4.4-.39-5.92-1.86-2.18-2.13-1.73-5.71-1-8.66a84,84,0,0,1,23.09-39.27c4.2-4,8.85-7.62,12.21-12.35,1.56-2.19,2.88-4.65,5-6.25,2.74-2,6.34-2.3,9.73-2.72a85.65,85.65,0,0,0,20.29-5,25.64,25.64,0,0,0,8.27-4.61c4.25-3.86,6-9.83,6.43-15.55s-.06-11.51.65-17.22c2.42-19.35,18.41-34,34.44-45.08s33.84-21.31,43.61-38.19l2-11.06c.48-14-10.24-25.68-20.72-35A392.5,392.5,0,0,0,990.83,146c-5.61-3.93-11.46-7.85-15.38-13.47s-5.49-13.48-1.93-19.34c5.59-9.18,18.89-8.23,29.59-7.22a154.83,154.83,0,0,0,29.36,0c6-.57,12-1.49,17.89-.5,5.5.92,10.6,3.45,16,4.76,20.5,4.92,44-7.84,62.27,2.71,10.77,6.23,17,19.48,28.85,23.16,8,2.47,16.83,0,24.88,2.2,13.1,3.64,19.94,18.27,31.81,24.9,6.92-25.58,20.88-49.6,41.36-66.42s47.68-25.94,74-22.5l7.7.21c5.18-1.58,11.08,1.85,13.1,6.88s.58,11-2.8,15.25c-2.79,3.49-6.71,5.93-9.57,9.37-2.67,3.22-4.29,7.16-5.67,11.11-19,54.11-1.62,117.13-25.92,169.09a114.59,114.59,0,0,1-44,49.05l-1.63,15.82c4.7,30,9.63,60.71,24.37,87.26,6.67,12,15.2,22.89,23,34.21,52.56,76.41,70.14,171,82.64,262.91,9.44,69.41,16.69,140.24,4.44,209.21Z"></path>
    <path data-name="7a" data-official="" data-plain="Ovary of Petunia" data-loc="" d="M1040.64,2112.33c-2.14-11.06-14.25-16.61-22-24.83-11.51-12.28-12.61-33-2.45-46.4,6.25-8.26,15.89-13.5,26-16s20.58-2.4,30.9-1.6c6.17.48,12.53,1.28,17.83,4.46,5.71,3.43,9.6,9.3,12.1,15.47,7.85,19.41,2.51,43.42-12.83,57.67-4.61,4.28-10.42,8.51-10.91,14.78s4.87,11.59,7.11,17.6a29.21,29.21,0,0,1,1.24,12.48c-.27,3.37-.89,6.92-3.16,9.42a15.09,15.09,0,0,1-5.36,3.46,55.35,55.35,0,0,1-25.17,4.54c-5.26-.29-11-1.65-14.11-5.88-4-5.37-2.2-12.92.1-19.19s5-13.24,2.35-19.37Z"></path>
    <path data-name="8a" data-official="" data-plain="Capsule of Hyoscyamus" data-loc="" d="M1145.18,2107.2c1.42-3.28-1.79-6.52-4.22-9.14-6-6.41-8.61-15.37-8.76-24.12s2-17.38,4.64-25.73c1.88-5.94,4-12,3.68-18.22-.4-6.66-3.67-13-3.48-19.65.27-10.1,8.7-18.56,18.26-21.83s20-2.38,30-.87c7.72,1.17,16.39,3.36,20.13,10.22,4.29,7.83,0,17.44.22,26.37a41.44,41.44,0,0,0,3.1,13.24c3.54,9.34,8.4,18.3,10.18,28.13s-.26,21.2-8.22,27.25c-5.48,4.16-13.45,5.68-16.54,11.83-1.79,3.56-1.37,7.92.17,11.6s4.07,6.84,6.56,10c2,2.56,4.14,5.25,4.94,8.43,1.69,6.77-3.15,13.8-9.37,17S1183,2155,1176,2155.18l-15.78.35c-4.93.1-10.72-.21-13.48-4.29-2.46-3.63-1.24-8.63.91-12.46s5.19-7.23,6.43-11.44-.19-9.75-4.4-11Z"></path>
    <path data-name="9a" data-official="" data-plain="Fruit of Datura Stramonium" data-loc="" d="M1309.55,2114.91c-22.25-20.21-31.41-51.22-34.35-81.12-7.54-76.7,19.22-152.52,51-222.74,3.76-8.31,7.94-17,15.5-22.07,6.64-4.47,15-5.5,23-5.4a96.07,96.07,0,0,1,32.6,6.12c2.79,1,5.6,2.24,8.58,2.36,4,.16,7.7-1.59,11.38-3,13.37-5.27,28.86-6.91,41.94-1,11.42,5.22,19.66,15.52,26.48,26.06,36.27,56,43.62,125.86,42.8,192.6-.18,14.49-.74,29.24-5.4,43-4.12,12.15-11.28,23-18.36,33.69-8.15,12.31-16.5,24.84-28.1,34-11,8.68-26,15.84-28.16,29.7-.89,5.57.55,11.55-1.65,16.74-2.77,6.5-10.2,9.48-17,11.37a167.07,167.07,0,0,1-64,4.87,17.47,17.47,0,0,1-6-1.49c-6.44-3.32-6.72-12.43-5.09-19.49s4.18-14.9.54-21.17c-5.84-10.06-21-6.95-32-10.69Z"></path>
</svg>
