
<svg xmlns="http://www.w3.org/2000/svg" viewBox="0 0 2087 2962" id="illustration" preserveAspectRatio="xMidYMid meet">
    <title>Scrophulariaceæ</title>
    <path data-name="1" data-official="Scrophularia aquatica" data-plain="Water Fig-wort" data-loc="Enland" d="M509.17,2370.54a380.89,380.89,0,0,1,1.58,59l-1.27,6.44c-.91,5.91-7.23,9.5-9.36,15.09-1.29,3.39-.9,7.15-1.26,10.76-.48,4.8-2.3,9.36-3.05,14.12a32,32,0,0,0,.18,11,3.56,3.56,0,0,0,1,2.21,7.52,7.52,0,0,0,1.6.74c1.95.94,2.53,3.36,3.51,5.29,1.2,2.33,3.2,4.14,4.61,6.35,4.6,7.19,2,16.67,3.62,25.06,1.72,9,8.31,16.88,8.22,26l1.09,16,3.4,63.95c.42,7.81.7,16.18-3.4,22.83-5.57,9-18.19,13.16-20.83,23.42-1,3.76-.36,7.73-.78,11.58-.94,8.55-7.14,16-14.91,19.7s-16.86,3.93-25.24,2c-4.7-1.09-9.5-3-12.38-6.89-4.86-6.51-2.63-15.63-.46-23.45s3.68-17.33-2-23.11c-2-2-4.65-3.28-6.63-5.31-4.17-4.29-4.48-10.92-4.53-16.9l-2-210.14,2.19-5.12-.25-22.59c-.1-9.29-.05-19.17,4.88-27.05l4.09-7.75c2.72-31.14.2-62.47-2.32-93.63-.16-2-.4-4.2-1.79-5.66-.95-1-2.32-1.51-3.32-2.46-1.75-1.67-2.05-4.33-2.22-6.75a343.67,343.67,0,0,1-.54-37.43l1.72-6c18.27-30.58,47.34-66,49.52-68.89a110.22,110.22,0,0,1,24.44-20.57l6.61-3.89a14.87,14.87,0,0,0,9.08-1.75c1.07-.6,2.47-1.32,3.41-.52.33.27.51.67.81,1a3.34,3.34,0,0,0,1.27.65l3.62,1.21c1.35.46,3,1.22,3,2.65.05.78-.42,1.52-.44,2.31,0,1.36,1.24,2.36,2.46,3s2.62,1.09,3.33,2.25c1.43,2.37-1,5.6.16,8.12l2.31,5.8c1.42.51,2.41,1.82,3.75,2.51,2.22,1.15,4.91.42,7.3-.33l1.32-.14a35.63,35.63,0,0,0,10.87,8.4,1.64,1.64,0,0,0-.43,2.48,4.71,4.71,0,0,0,2.56,1.34c-5.59,3.08-11.19,6.16-16.5,9.7-10.92,7.28-20.49,16.38-30,25.43l-9.63,4.36a24.37,24.37,0,0,0-7.59,7.3c-2.2,3.31-3.56,7.12-5.76,10.43-3.24,4.91-8.11,8.47-12.87,11.92l-1.17.85q-.78,60.38,2.6,120.7l.69.22a15.21,15.21,0,0,0,6.72,4.11c2.8.74,5.77.41,8.65.08ZM756.81,1199.41a23.57,23.57,0,0,0,13.16-4.19,26,26,0,0,1-13.82-6.1c9.21.57,18.61.93,27.53-1.43a75.12,75.12,0,0,0,11.84-4.46c9.71-4.42,19.2-9.75,26.64-17.39,1.87-1.92,3.7-4.22,3.69-6.9-8.72,5-19.27,5.2-29.32,5.28a70.57,70.57,0,0,1-11.9-.58,3.91,3.91,0,0,0,2.68-3.3,11.44,11.44,0,0,0-.47-4.45c-3.41,2.69-8.14,2.74-12.48,2.67a2.25,2.25,0,0,1-1.33-.31,2,2,0,0,1-.57-.92c-.55-1.64-.4-3.43-.73-5.13a9.44,9.44,0,0,0-5.36-6.76l-2.19-2.81c-3.52-2.46-5.88-6.23-9.06-9.13-3.63-3.32-8.2-5.38-12.72-7.32-13.09-5.61-26.44-10.6-39.78-15.59a105.56,105.56,0,0,0-14.48-4.63c-4.44-1-9-1.34-13.24-3-5.49-2.18-9.92-6.38-15.1-9.23-5.46-3-11.63-4.42-17.33-6.94-10.77-4.76-19.41-13.2-27.8-21.45l-3.1-7.14c-7-1.82-12.63-7-16.65-13s-6.62-12.74-9.47-19.34a20.88,20.88,0,0,0-3.45-6c-2.09-2.27-5.07-3.55-7.15-5.82-4.08-4.43-3.71-11.23-3.09-17.22L573,985.23c.47-4.55,1-9.2,3-13.3,3.17-6.43,9.52-10.54,14.95-15.2s10.49-11.19,9.45-18.27c-.64-4.37-3.56-8.34-3.27-12.74.2-3.14,2-5.92,3.78-8.54l6.14-9.12-.83-13.19a68.79,68.79,0,0,0-.78-21.52,14.19,14.19,0,0,1-12.25-6.48,19,19,0,0,1-2.47-13.94,21.55,21.55,0,0,0,.71-4.7,7.37,7.37,0,0,0-4.37-6.36l-12.89-7.22c-7.94-.85-16.41,4.16-23.61.71-7-3.35-8.47-12.52-13.24-18.61-7.57-9.67-23-9.93-33.49-3.52s-16.93,17.67-22,28.87c-3.41,7.6-6.59,15.69-12.8,21.25-5.8,5.19-13.57,7.54-21.17,9.21-2.34.52-4.88,1-7-.09-4-2-4.14-7.6-3.73-12.07a349.89,349.89,0,0,0,1.07-48.13c-.44-9.27-.86-19.67,5.4-26.52,4.1-4.5,10.22-6.4,15.86-8.69,18.22-7.4,33.55-20.29,50.17-30.79a93.42,93.42,0,0,1,19.17-9.73c9.2-3.17,19-4,28.45-6.44,7.55-1.91,14.87-4.79,22.56-6s16.1-.54,22.39,4.06l6.79.3h7.36a4.82,4.82,0,0,0,2-.29c1.84-.82,1.94-3.42,1.31-5.33a36.17,36.17,0,0,1,16.06-.78c2.12.38,4.33.95,6.4.34s3.82-2.95,2.89-4.89l-2.23-3.71c.14-5.34-4.3-9.58-8.52-12.85a167.55,167.55,0,0,0-34.64-20.64,63,63,0,0,1-6.58-3.15c-1-.57-2-1.44-1.87-2.55a3,3,0,0,1,1.44-1.84c10.37-7.46,24-8,36.39-11l8.87-6.46c.14-3.43.28-6.94,1.53-10.15a20.09,20.09,0,0,0,1.73-4.83,7.88,7.88,0,0,0-3-6.65,16.76,16.76,0,0,0-6.8-3.18l-4.71-.91c-17.51,3.74-34.34,11-52.2,12.3a1.41,1.41,0,0,1-.79-.09c-.73-.39-.3-1.5.2-2.15A197.76,197.76,0,0,1,612,601.86c4.3-3.22,8.8-6.34,12-10.63l-.69-11.29a48,48,0,0,1,6.56-31.62c1.9-3.1,4.35-6.13,7.78-7.35a19.32,19.32,0,0,1,4.67-.84l7.55-.74c2.28-.22,5-.75,5.85-2.87l4.19-5.24c-.35-2.75-.63-5.81,1-8,1.07-1.47,2.91-2.48,3.31-4.26.71-3.24-3.94-6.39-2.31-9.28.76-1.37,2.55-1.73,4.11-1.68s3.18.36,4.64-.2c2.2-.85,3.22-3.37,5.06-4.85,3.18-2.55,8.22-1.65,11.3-4.32l10.67-11.71a17.89,17.89,0,0,0,1.13-9c-2.09-.28-3.13-2.81-2.88-4.9s1.35-4,1.79-6c.94-4.42-1.36-9.05-4.79-12s-7.84-4.45-12.21-5.6l-9.72-9.3-41.9-.75c-2.77-.05-5.63-.11-8.19-1.2-6.47-2.75-8.7-10.93-8.31-17.95s2.55-14,1.43-21c-2.28-14.15-16.68-22.51-29.54-28.85L545.31,351c-3.16-1.55-6.55-3.35-8-6.55-2.43-5.35,1.77-11.33,6.19-15.19,21.69-18.93,53.15-21.9,77.38-37.46a36.07,36.07,0,0,0,9.76-8.51c3.19-4.29,4.77-9.58,5.5-14.88,2-14.48-2.85-30.51-14.7-39.09-3.54-2.57-8.1-5.24-8.13-9.62a9.94,9.94,0,0,1,1.5-4.72c3.49-6.31,9-11.39,12-17.93,6.29-13.69.08-29.92-8.49-42.32-7.54-10.9-17.1-20.66-28.84-26.81s-25.82-8.43-38.49-4.56c-11,3.38-20.46,11.11-31.71,13.65-3.06.69-6.36,1-9.24-.28-3.09-1.33-5.21-4.18-7.19-6.9l-18-24.86L476,84.61c-19-16.69-46.59-22.26-71.18-16.31S358.88,91,345.31,112.35c-5,7.83-9.05,16.35-15.25,23.26-10.25,11.43-25.15,17.26-39.29,23.24a623.23,623.23,0,0,0-101,54.2c-8.61,5.7-17.67,12.42-20.37,22.39-1.86,6.86-.35,14.13,1.17,21.08,7.09,32.43,15.21,66.81,38.86,90.12,2.66,2.63,5.72,5.62,5.48,9.35-.15,2.35-1.62,4.38-3.18,6.15-12,13.53-30.59,18.46-46.44,27.12s-30.67,25.9-25.05,43.06c3,9.17,11.31,16,13.6,25.4,3.51,14.39-8.15,27.72-19.26,37.52s-23.72,21.48-22.75,36.26c.43,6.67,3.7,13.44,1.57,19.77-2.72,8.09-12.4,10.89-20.19,14.39-26.67,12-40.54,45.05-33.75,73.49S91,689.91,119.18,697.53s62.5,3.59,82.56,24.92l5.33,5.66c-1.45,11.79,6.23,23.15,16.1,29.74s21.69,9.45,33.14,12.59A508.88,508.88,0,0,1,321,793c13.42,5.71,27.08,12.37,36.18,23.75,10.95,13.69,13.66,32,15.67,49.43q7.71,66.72,9.4,134c-7.45-12.76-24-17.13-33.68-28.27-10.56-12.13-11.14-29.69-16.23-44.94-12.53-37.51-52.57-59.39-91.56-66-21.53-3.66-45.12-3.38-63.38,8.61s-27.83,38.78-15.33,56.69c8.4,12,24.79,18.29,29.22,32.29,4,12.76-3.74,27,.33,39.79,2.21,6.92,7.83,13.11,7.08,20.34-.5,4.77-3.72,8.75-6.85,12.38-25.68,29.82-55.56,59.46-62.88,98.13-4.77,25.21.68,52.24-8.54,76.19-4.47,11.6-12.2,21.84-15.74,33.76s-1.27,27.2,9.73,33c-39.08,40.53-50.67,105.21-28.09,156.79,8.62,19.69,21.89,41.61,12.49,60.94l-2.11,10c-5.48,7.05-3.14,18,3.31,24.19s15.81,8.32,24.73,8.51c23.39.52,45.67-10.57,64.1-25,15.33-12,28.87-26.67,37.68-44,17.21-33.94,14.81-74.08,12-112,20.52,13.28,46,16.58,70.43,16s48.7-4.73,73.14-4.84c9.76,0,20.56,1,27.25,8.13s7.05,18.21,6.9,28.11q-1.39,89.42-6,178.75c-6.73-8.73-18.59-11.44-29.53-12.81-74.18-9.29-152.06,17.91-204.32,71.36-22.68,23.2-40.49,50.69-56.69,78.81-30.56,53-56.38,110.74-59.8,171.87l-2.15,18a2049.82,2049.82,0,0,0,1.33,209.47l1.34,9.77c.35,6.19.86,12.74,4.45,17.8,1.38,1.94,3.17,3.59,4.32,5.67a31.25,31.25,0,0,0,1.85,3.48,12.89,12.89,0,0,0,2.72,2.54l4.41,3.4a2.22,2.22,0,0,0,.82.46,2.28,2.28,0,0,0,1.32-.24,50.53,50.53,0,0,1,34.13-.82l6.75,3.49,24.11-1.63a113.06,113.06,0,0,0,16.12-1.88c6.69-1.44,13-4.1,19.61-6,8.68-2.54,17.7-3.8,26.35-6.45,9-2.75,17.57-7,26.81-8.78,9-1.74,18.24-1.12,27.29.16,12,1.7,23.75,4.51,35.5,7.32l48.6,11.61c10,2.4,20.09,4.8,29.75,8.43,13.8,5.19,26.66,12.82,40.78,17l6.22.26a91.17,91.17,0,0,0,11.22-10.75l29.64-31.82c1.46-1.56,2.93-3.13,4.28-4.79,5.1-6.21,8.64-13.52,12.14-20.76a58.47,58.47,0,0,0,3.62-8.66,46,46,0,0,0,1.36-15l.38-6.21c-2.54-19.57-2.66-39.37-3-59.11q-1.83-102.73-12.32-205.08l5.56-7.45a98.92,98.92,0,0,0,16.67-144.71c-2.06-2.39-4.36-4.94-4.52-8.09-.19-3.63,2.51-6.68,4.76-9.53,6.86-8.67,10.94-19.15,16.49-28.7s13.34-18.7,24-21.63c8.39-2.31,17.28-.45,25.83,1.15,20.76,3.89,42.46,6.13,62.77.36,7.08-2,13.87-5,21-6.76,19-4.72,39.11-.8,57.45,6s35.54,16.31,53.77,23.38c15.94,6.19,33.36,10.92,45.17,23.28l6.17,1.44a116.77,116.77,0,0,0,18.21,1.07c4.71-.09,9.9-.68,13.06-4.17a9.51,9.51,0,0,0,2.11-8.58l9.3.64c3.59.25,7.27.49,10.73-.53a5.37,5.37,0,0,1,1.92-.37,1.52,1.52,0,0,1,1.44,1.13c.08.56-.26,1.2.09,1.64a1.31,1.31,0,0,0,.82.35l5,.85,4,1.53c3,0,5.73,1.41,8.53,2.39s6.06,1.52,8.6,0a8.1,8.1,0,0,0,3.54-5.86,24.19,24.19,0,0,0-.31-7,30.1,30.1,0,0,0,18-4.25.8.8,0,0,0,.28-1.38,18.7,18.7,0,0,0-4.2-4.36q12.87.49,25.71,1.34l5,0c3.42-.32,6-3.22,7.84-6.11s3.49-6.14,6.41-7.94c1.93-1.19,4.23-1.63,6.28-2.6,3.4-1.62,5.91-4.62,8.3-7.52,2.8-3.38,5.63-6.83,7.28-10.89a7.52,7.52,0,0,0,.54-5.31c-.93-2.55-3.83-3.7-6.42-4.51q-14.58-4.58-29.56-7.76l-4.69,2.73a6.67,6.67,0,0,1-4.54.24c-1.51-.37-2.93-1-4.42-1.44a30.63,30.63,0,0,0-7.34-.86,2.94,2.94,0,0,0-2.16-2.75,8.52,8.52,0,0,0-3.73-.08l-.88-.88c.95-1.63,0-3.83-1.59-4.86a11.39,11.39,0,0,0-5.42-1.37c-8.94-.72-18.27-1.73-25.78-6.63a19.06,19.06,0,0,0-4.39-2.52,11.72,11.72,0,0,0-5.14-.22,2.17,2.17,0,0,1-1.43-.11,2.13,2.13,0,0,1-.61-.72c-1.71-2.79-3.19-5.73-5.17-8.34a15.6,15.6,0,0,0-7.69-5.83l-3-2.4-11.05-.35a10.85,10.85,0,0,1-2.73-.32,8.08,8.08,0,0,1-4.28-3.73c-1-1.65-1.73-3.47-2.77-5.11a15.72,15.72,0,0,0-13.25-7.22,18,18,0,0,1-3.81-.06,2.38,2.38,0,0,1-1.47-.75,2.6,2.6,0,0,1-.32-2.15c.47-2.44,2-4.77,1.52-7.21l1.71-2.14a136.83,136.83,0,0,0,40.61-.16,49.92,49.92,0,0,0,5.42-1.07c1.35-.35,2.67-.8,4-1.08a30.56,30.56,0,0,1,9.78,0l10.61-6.68c7.64-2.47,15.31-5,22.58-8.39s14.15-7.87,19.57-13.8a10.21,10.21,0,0,0,2.53-4l-14-.49a46.63,46.63,0,0,0-8.44.23c-6.33,1-11.92,4.47-17.71,7.19a17.65,17.65,0,0,1-5.57,1.8,6.94,6.94,0,0,1-5.46-1.61c-1.18-1.12-1.79-2.74-3-3.85-1.9-1.77-4.83-1.85-7.38-1.35s-5,1.45-7.65,1.4l-3.85-2.86-5.57-4.57a13.58,13.58,0,0,1-3.57-3.8c-1.44-2.65-.94-6,.39-8.7,1-2,2.39-3.87,2.61-6.08a1.67,1.67,0,0,0-.15-1,1.4,1.4,0,0,0-.63-.52c-2-1-4.46-.15-6.73-.31-2.78-.21-5.15-2-7.35-3.7l-4.15-3.27L824,1430.9c-6.83-.66-7.06-10.69-11.42-16-5-6-15.67-5.76-19.13-12.77-3.08-6.23,1.75-14.55-2-20.39-2.21-3.42-6.55-4.6-10.43-5.86-30.85-10-52.43-39.46-83.35-49.21-15.39-4.86-31.89-4.41-47.88-6.59-24.44-3.34-47.58-12.8-71.58-18.51s-50.46-7.34-72.24,4.24l.33-8.92c3.34-52.93-19-104.39-20.25-157.42a14.32,14.32,0,0,1,.67-5.72c1.59-4,6.45-5.87,10.7-5.27s8,3.12,11.29,5.82c25,20.26,38.67,54.2,68,67.3,7.55,3.37,15.71,5.11,23.82,6.69a725.8,725.8,0,0,0,146.92,13.36Z"></path>
    <path data-name="1a" data-official="" data-plain="Flower opened" data-loc="" d="M123.17,2867.78A61.42,61.42,0,0,0,102,2837.17c-9.24-7.09-21.6-13.09-23.38-24.61-.95-6.09,1.6-12.33,5.55-17.07s9.19-8.2,14.45-11.43c12.15-7.45,25-14,38.59-18.17a119.6,119.6,0,0,1,90.93,9.38c11.09,6.06,22.11,15.51,23,28.12.91,13.36-10,25.28-9.53,38.66.15,5,1.88,9.8,2.57,14.75a35.75,35.75,0,0,1-8.76,28.41c-10.4,11.51-27.55,15.35-37.29,27.44-3,3.72-5.26,8.19-9.24,10.84-3.74,2.48-8.43,3-12.91,3.3a440.33,440.33,0,0,1-45.52,1.09c-3-.09-6.39-.35-8.46-2.57-3.38-3.63-1-9.39.63-14.08a38,38,0,0,0-1.73-28.73Z"></path>
    <path data-name="1b" data-official="" data-plain="Calyx and Ovary" data-loc="" d="M263.16,2889.88a62.5,62.5,0,0,1-10.64-50.72c1.44-6.23,4.71-13,10.92-14.56,3.39-.84,6.93.1,10.42.34,15.85,1.09,29.2-12.8,34.7-27.71,2.32-6.3,3.93-13.31,8.93-17.79,3.54-3.15,8.3-4.56,13-5.33,6.28-1,14-.42,17.17,5.1a15.28,15.28,0,0,1,1.63,6.91,49.49,49.49,0,0,1-8,29.49c-2.44,3.71-5.41,7.15-6.94,11.32s-1.21,9.46,2.2,12.3c3,2.5,7.34,2.36,11.17,3.18,10.87,2.31,18.62,14.67,15.49,25.32-4.24,14.41-23.2,20-28.63,33.95-4.21,10.88.91,24.19-4.94,34.28s-19.72,11.9-31.52,12.42L274,2949.45c-3.6.16-7.57.2-10.34-2.1-3.4-2.82-3.56-8.09-2.15-12.28s4.05-7.88,5.44-12.07c2.42-7.28.85-15.21-.74-22.71Z"></path>
    <path data-name="1c" data-official="" data-plain="Stamen" data-loc="" d="M396.73,2870.89a82.71,82.71,0,0,0-1.74-52.77c-4.3-11.39-11.17-24.07-5.54-34.87,3-5.79,9.17-9.43,15.53-10.95s13-1.2,19.51-.87l17.33.89c2.51.12,5.14.29,7.28,1.62,4.28,2.66,4.74,8.61,4.73,13.66,0,10.65-.11,21.58-3.94,31.52-2.67,6.91-7,13-10.33,19.65a68.36,68.36,0,0,0-7,27c-.23,4.79.07,9.73,1.95,14.15,1.76,4.13,4.78,7.57,7.46,11.18,4,5.39,7.32,11.47,8.17,18.11s-1.18,13.92-6.37,18.15c-4.61,3.75-10.86,4.6-16.77,5.22q-15.7,1.62-31.48,2.25c-4.57.19-9.87,0-12.65-3.64-1.6-2.08-2-4.85-1.86-7.47.61-16.58,16.52-28.79,20.13-45Z"></path>
    <path data-name="1d" data-official="" data-plain="Section of Ovary" data-loc="" d="M578.41,2904c4.24-11.53,8.55-23.61,7-35.8-1.19-9.5-5.82-18.18-10.7-26.42a366.4,366.4,0,0,0-22-33c-3.17-4.24-6.49-8.52-8.12-13.56s-1.21-11.1,2.46-14.92c1.66-1.72,3.84-2.86,5.61-4.47,5-4.54,6-12,5.75-18.73s-1.19-13.71,1-20.07c1.71-4.88,5.16-8.92,8.07-13.19,6.68-9.83,10.64-21.21,14.52-32.44,3.78-11,7.49-23.39,2.18-33.69-3.92-7.6-11.86-12.11-17.85-18.21s-9.93-16.41-4.36-22.9c2.24-2.61,5.59-4,8.9-4.92a46.79,46.79,0,0,1,59.38,44.2c.23,12.62-4.62,25.37-1.69,37.65,3.66,15.37,18.14,25.25,27.65,37.86a65.29,65.29,0,0,1,12.62,31.28c.45,3.62.74,7.64,3.38,10.16,3.1,3,8,2.56,12.11,3.78,8.64,2.57,13.2,14,8.69,21.83-6,10.41-22.26,10.74-28.77,20.87-2.19,3.41-3,7.51-4.22,11.37a45.3,45.3,0,0,1-13.56,20.3c-4.15,3.55-9.3,6.86-10.42,12.2-1.17,5.61,2.7,11.05,7.11,14.7s9.66,6.48,13,11.14c6.31,8.87,3.37,21.89-4,29.91s-18,12-28.47,15.11c-8.55,2.51-17.55,4.57-26.3,2.91s-17.18-7.94-18.77-16.71Z"></path>
    <path data-name="1e" data-official="" data-plain="Stalk, magnified" data-loc="" d="M738.36,2878.65c13.33-54.4,14.12-111.09,11.41-167-.49-10.28-.77-21.64,5.82-29.55,3-3.61,7.17-6.08,11.44-8a68.33,68.33,0,0,1,39.83-5.1,17.05,17.05,0,0,1,7.2,2.59c4.48,3.3,5.2,9.6,5.54,15.16,4.17,67.89,8.32,136.25-.08,203.75-.87,7.07-2,14.35-5.67,20.44-4.81,7.93-13.39,12.79-22.05,16.1-13.63,5.21-29.3,7.32-42.63,1.38s-22.81-21.79-18-35.55Z"></path>
    <path data-name="1f" data-official="" data-plain="Capsule and Calyx" data-loc="" d="M903.23,2849A101.66,101.66,0,0,1,865.37,2821c-4.86-5.8-9.24-12.64-9.29-20.22-.05-8,4.82-15.33,10.86-20.59,10.47-9.1,24.32-13.26,37.95-15.81,14.27-2.67,30-3.59,42.29,4.18,11,6.95,17,19.49,21.54,31.66,3.29,8.73,6.16,18.38,3.22,27.23-2.7,8.12-9.78,13.94-16.94,18.62-2.84,1.85-5.88,3.74-7.5,6.72-2.77,5.07-.48,11.44,2.82,16.18s7.62,9,9.43,14.43c2.9,8.81-1.76,18.74-9,24.6s-16.45,8.47-25.48,10.62c-9.84,2.33-20.28,4.25-29.94,1.27s-18.06-12.45-16.39-22.43c1.48-8.85,9.72-14.64,16.57-20.44s13.4-14.72,10.07-23.06Z"></path>
    <path data-name="2" data-official="Digitalis purpurea" data-plain="Purple Foxglove" data-loc="England" d="M1036,2472c9.33,69,5.13,139.68,19,207.93,1.07,5.26,2.26,10.62,1.53,15.94a24.23,24.23,0,0,1-12.65,17.7,27.32,27.32,0,0,1-21.91,1.22c-6.74-2.5-13.41-7.61-20.33-5.66-5.59,1.58-9,7.29-14.15,10-7.9,4.09-18-.16-23.6-7.07-6.16-7.62-8.31-17.81-8.33-27.61s1.85-19.49,2.83-29.24c2-20.07.25-40.3-1-60.42a1183.07,1183.07,0,0,1,.84-159.21l4.21-10.62,6-3.72a11.5,11.5,0,0,0,3.51-2.9c1.33-1.89,1.4-4.36,1.43-6.67l.17-18.22-.19-3.59,0-4.54a2.2,2.2,0,0,1,.25-1.2,2.26,2.26,0,0,1,1.12-.68,29.19,29.19,0,0,0,4.48-2,7.24,7.24,0,0,0,3.07-2.77,2.92,2.92,0,0,0-.76-3.74,6.21,6.21,0,0,0-2.23-.56,7.32,7.32,0,0,1-5.23-4,26.84,26.84,0,0,0,15-7.3c1.34-1.31,2.63-3.05,2.29-4.9-.51-2.73-4.11-3.71-5.35-6.2h.41a74.52,74.52,0,0,0,16.36-14.43c.85-1,1.7-2.53.86-3.56a3.32,3.32,0,0,0-2.09-.86,13.63,13.63,0,0,1-7.79-4.55,26.88,26.88,0,0,0,14.92-16.35,18.53,18.53,0,0,0-8.51-1l-.12-1.11a22,22,0,0,0,7.22-7.76c.85-1.53,1.5-3.16,2.3-4.71a28.58,28.58,0,0,1,4.25-6.15,10.57,10.57,0,0,1,2.19-1.93c2.16-1.34,4.88-1.25,7.41-1.12l3.24-1.19q-2,54.12-.51,108.29c.06,2.26.11,4.62-.83,6.68s-3.2,3.7-5.4,3.17a5.34,5.34,0,0,0-1.82-.38c-1.59.17-1.91,2.32-1.8,3.91l1,15a15.55,15.55,0,0,1,6.38,1.61,8.54,8.54,0,0,0-4.61,5,8.39,8.39,0,0,0,7.31-3c1.44.05,1.54,2.2.89,3.49s-1.53,2.91-.59,4c.58.67,1.58.73,2.39,1.06s1.53,1.45.88,2.05ZM1027.52,2247a20.67,20.67,0,0,0-11.14-7.79c-2.49-.7-5.28-1-7.14-2.81-1-1-1.61-2.26-2.56-3.26a12.42,12.42,0,0,0-3.47-2.28,163.2,163.2,0,0,0-24.54-9.88c.18,5,.26,10.3-2.45,14.48L974,2241.1a294.89,294.89,0,0,0-.37,39.66l1.79,3.37a55.87,55.87,0,0,1,17.46.07,8.82,8.82,0,0,0-2.89,2.61,158.75,158.75,0,0,1,24-2c4.15,0,8.74-.06,11.82-2.84l.89-4q-.36-12.19.25-24.39Zm25-137.12q1.7-4.68,3-9.49c.53-2,1-4.28,0-6.13a7.28,7.28,0,0,0-2.63-2.54,16.29,16.29,0,0,0-9.11-2.69c-3.76.13-7.27,1.8-10.83,3-10.51,3.65-21.9,3.53-33,3.36,2,2.48,4.17,5.07,7.15,6.22,4.26,1.64,9.07,0,13.59.61l.29,4.15a1.83,1.83,0,0,0,.32,1.13c.44.51,1.23.42,1.89.29l7.94-1.62c-.6,3.34,2.44,6.59,5.81,7s7.08-1.33,10.07.31Zm6.89-45.06c.37-4.91.71-10.08-1.38-14.54-1.66-3.54-4.67-6.24-7.62-8.82a2.9,2.9,0,0,0-1.16-.73,3.07,3.07,0,0,0-2.4.84,131.26,131.26,0,0,1-47,21.31,5.32,5.32,0,0,0-3.34,1.68c-.9,1.3-.47,3.23-1.44,4.47s-2.46,1.26-3.52,2.15a5.85,5.85,0,0,0-1.48,2.26,42,42,0,0,0-2.93,9.61l3.08,1.83c24,.28,48.66-3,69.83-14.4ZM998,2050.21c5.56.05,10.82-2.34,15.87-4.69,8.94-4.17,17.94-8.36,26-14.09a5,5,0,0,0,1.55-1.49,5.19,5.19,0,0,0,.54-1.91l.77-5.12c-3.34.41-6.64-1.26-10-1.1a21.72,21.72,0,0,0-5.3,1.24,72.84,72.84,0,0,1-17.13,3.19c-1.59.1-3.34.21-4.47,1.34a6.36,6.36,0,0,0-1.37,2.61,128.17,128.17,0,0,1-7.68,17.68Zm11.54-41.74,30.14-2.28a3.49,3.49,0,0,0,1.28-.27,3.37,3.37,0,0,0,1.19-1.29c2.86-4.48,5.81-9.08,10.14-12.16a25.49,25.49,0,0,0,3.81-2.84,4.77,4.77,0,0,0,1.46-4.32,12,12,0,0,1-8-2.83c-2.3-2-4-4.9-6.94-5.65-3.37-.87-6.67,1.6-8.93,4.24s-4.31,5.78-7.57,7c-2.71,1-5.85.49-8.44,1.75a11,11,0,0,0-3.26,2.68,30.64,30.64,0,0,0-6.61,12Zm530.89-1184c.27,3.7,1.59,7.29,1.67,11a16.91,16.91,0,0,1-7.38,14.17l-8.9,14.58c-2.73,12.65-8.13,24.87-16.59,34.66s-20.14,17-32.92,19.1c-18.34,3-37.8-5.37-49.14-20.08a6.64,6.64,0,0,0-2.7-2.46,8.05,8.05,0,0,0-3.81,0c-5.49.69-10.89-1.81-15.53-4.84s-8.93-6.69-14.05-8.81-11.48-2.39-15.77,1.12c-3.71,3-5,8.22-4.62,13s2.33,9.25,4.11,13.69c6.71,16.78,11.9,34.17,19.25,50.68s17.13,32.4,31.26,43.68c8.08,6.44,17.78,11.65,22.63,20.77l.9,7.09c.46,6.26.92,12.57.07,18.79-.93,6.74-3.37,13.16-5.8,19.52l-6,15.73c-2.6,6.82-5.29,13.78-9.95,19.39l-1.88,4.38c.58,5.94-.79,11.87-2.15,17.68q-4.14,17.7-8.29,35.4c-1.3,5.56-3,11.74-8,14.58l-3.95,5.41a80.44,80.44,0,0,1-20.57,7c2.83,11,.84,22.6-2.21,33.51s-7.17,21.58-8.7,32.8l-3.35,2.31c-2.9-2.69-6.75-4.07-10-6.29-6-4-9.66-10.62-12.87-17.07-5.44-10.94-10.19-22.41-11.8-34.52-1.21-9.15-1-19.45-7.35-26.14-4.31-4.53-10.71-6.27-16.17-9.33-3-1.67-5.75-3.77-8.92-5.09s-6.94-1.77-9.92-.08a22.79,22.79,0,0,0-.8,7.75l-.43,2.09c-.31,10.77-.53,22,4.11,31.74,2.82,5.92,7.27,10.88,11.12,16.2s7.21,11.38,7.31,17.94a14.63,14.63,0,0,0,.29,4c.79,2.68,3.46,4.26,5.61,6a41.52,41.52,0,0,1,6.89,8.16c5.34,7.54,10.76,15.28,13.31,24.16l-4.89,9.17a66.26,66.26,0,0,1-56.08,9.44c-2.7-.78-5.43-1.76-8.24-1.6a3.24,3.24,0,0,0-2.16.76,4.41,4.41,0,0,0-.91,2,14.63,14.63,0,0,1-5,7.33,6.69,6.69,0,0,0-1.86,1.77c-.69,1.18-.41,2.66-.12,4A215.94,215.94,0,0,1,1263,1377l-2.88,4c.64,9.31,1.27,18.67.24,27.94-.21,1.84-.46,3.79.26,5.49s2.87,3,4.48,2.06,1.69-3.1,1.53-4.9-.27-3.95,1.15-5.08c1.22-1,3-.7,4.43-.16a15.64,15.64,0,0,1,5.66,3.64l-.7,3.06c3,2.3,3.16,6.62,4.56,10.1,2.37,5.92,8.31,9.47,13.87,12.59l22.16,21.33a89.25,89.25,0,0,1,7.55,78.54c-1.32,3.41-2.94,6.85-5.73,9.21-4.27,3.62-11.09,4.61-13.32,9.75-.7,1.61-.82,3.44-1.65,5-1.35,2.49-4.22,3.71-6.2,5.73-3,3.06-3.68,7.62-5.09,11.66-4.08,11.7-14.62,19.72-24.62,27-4.36,3.19-8.76,6.4-13.67,8.66a63,63,0,0,1-14.26,4.27,139.44,139.44,0,0,1-55-.3l-3.68-2.48c-3.44-.56-6.16-3.1-9-5.12a66.91,66.91,0,0,0-12.23-6.35l-12.11-5.28-5.43-5c-3.31-3.19-6.76-6.61-8-11-1-3.57-.36-7.35.25-11-2.57,2.55-6.77,2-10.32,1.32a3.77,3.77,0,0,1-2.11-.9c-.3-.31-.5-.72-.87-.93a2,2,0,0,0-1-.19l-5.75-.15-1.28-.94c-2.11-1.08-3.29-3.33-4.92-5-2.4-2.53-5.78-3.86-8.47-6.08a16.23,16.23,0,0,1-5.36-8.52,8.1,8.1,0,0,0-.91-2.61c-1.54-2.23-5.14-1.71-7.19-3.48a23.8,23.8,0,0,0-6.82,14.31c-.21,2.08-.15,4.23-.85,6.21s-2.41,3.8-4.51,3.78a20,20,0,0,1-.13,7.51l2.2,2.54c1.53.13,2.5,1.66,3.21,3q2.61,5,4.88,10.22l1,2.48c4.42,8.78,10.67,16.48,16.29,24.54s10.73,16.81,12.38,26.5a20,20,0,0,1,0,7.94,10.08,10.08,0,0,1-4.39,6.44,4.13,4.13,0,0,0-1.38,1,3.31,3.31,0,0,0-.39,1.85l-.42,27a14.81,14.81,0,0,0,9-3.67l10.48,3.25q.93,9.18,1.27,18.41l-.3,2.44-.57,19.47c-.08,2.73-.11,5.65,1.35,8a1.67,1.67,0,0,0,.91.81,1.91,1.91,0,0,0,1.31-.33c7.72-4.19,15.83-8.7,24.62-8.49a9,9,0,0,1,3.63.7A7.34,7.34,0,0,1,1164,1734a21.5,21.5,0,0,1-.06,6.65l2.6,4.27a7.4,7.4,0,0,0-5.36,2.1,40.06,40.06,0,0,0-2.77,3.67,5.12,5.12,0,0,1-3.83,2.25c.08,3.24,2.17,6,4.31,8.48a75.79,75.79,0,0,0,8.84,8.53l3.24,5.74a22.24,22.24,0,0,1,9,1.21c3.7,1.32,7,3.59,10.42,5.49a56.86,56.86,0,0,0,17.28,6.12l2.58,5.93a29.27,29.27,0,0,1-17.65,9c-6.83.85-14.3-.63-20.23,2.87-4.46,2.65-7,7.56-10.68,11.21-5.71,5.67-14.08,8.18-19.43,14.19-4,4.51-5.92,10.6-6.4,16.62s.34,12.07,1.15,18.06l-1,.85c-4.56-1.49-9.69.22-13.45,3.2s-6.44,7.11-9,11.15q-3.29,5.12-6.58,10.23c-2.63,4.1-5.31,8.3-6.43,13-1.41,6-.2,12.24,1,18.27a5.43,5.43,0,0,1,.08,2.5,5.56,5.56,0,0,1-.93,1.66l-32.4,44.16-2.19,2.08c-.16,2.35-2.78,3.9-5.14,3.77s-4.44-1.46-6.42-2.74a9.79,9.79,0,0,1-3-2.61,12.89,12.89,0,0,1-1.18-2.75,22.78,22.78,0,0,0-24.13-14.3l-.67-6.85a261,261,0,0,1,9-35.15c1.87-5.64,3.93-11.22,5.53-16.95,4.55-16.33,5.24-33.56,10-49.85,3.34-11.51,8.72-23.24,6.22-35l.68-10.72a22.49,22.49,0,0,0-1.56-10c-1.62-3.64-4.58-6.49-7.47-9.24-3.34-3.18-6.91-6.49-11.41-7.49-3-.66-6.09-.23-9.13-.52-2-.19-4-.7-6-1-4.88-.78-9.86-.46-14.78-.75s-10-1.3-13.94-4.33l-5.59-1q-7.23-2.22-14.37-4.78l-8.25-2.88c-11.26-8.09-23-16.68-29.09-29.11-1.8-3.63-3.09-7.55-5.51-10.79-1.67-2.26-3.83-4.11-5.64-6.26a26.06,26.06,0,0,1-6.08-16.34,41.3,41.3,0,0,0,24.35,15.42l13-18.56a137.19,137.19,0,0,0,10.87-16.9,45.87,45.87,0,0,0,5.5-19.2l3.18-7.21c-1.39-3.68-.1-7.75.73-11.6a48.79,48.79,0,0,0-1.27-25.06c2.55-.81,5.25.48,7.92.59,5.92.25,10.58-5.26,12.49-10.87l4.75-6.82,7.2-17.41c1.22-3,2.44-6.31,1.14-9.23-1.68-3.74-6.48-4.66-10.56-5.09l-11.52-1.2c-2.92-.31-5.91-.63-8.55-1.94-3.26-1.62-5.63-4.58-7.66-7.6a70.44,70.44,0,0,1-11.79-36.11l.54-5a64.67,64.67,0,0,1-6.5-32.42c.37-5.77,1.5-11.47,1.83-17.24s-.23-11.78-3-16.85l-6.84-5.31a23.45,23.45,0,0,0-10.11-15,31.4,31.4,0,0,0-17.58-5c-1.21,0-2.82.5-2.7,1.69l-3,.14-4.5-1c-1.75-.4-3.66-.78-5.28,0-.69.33-1.36.88-2.11.77-1.25-.17-1.54-1.83-1.52-3.09l-3.34.65a2,2,0,0,0-.53-3,2.13,2.13,0,0,0-2.88,1.18c.23-1.3.45-2.59.68-3.89a11.27,11.27,0,0,1-4.48.2c.12-1.89,3.56-1.38,4.39-3.07.51-1-.32-2.26-1.21-3s-2-1.56-2.07-2.72a.83.83,0,0,1,.09-.54.92.92,0,0,1,.53-.37c1.55-.53,3.1.64,4.49,1.52s3.53,1.36,4.42,0a12.9,12.9,0,0,1,.7-1.39,2.48,2.48,0,0,1,1.27-.69,10.26,10.26,0,0,1,11.15,4.25,11,11,0,0,0,1.86,2.65,7.09,7.09,0,0,0,3.41,1.26l5.3,1,.52.66a27.7,27.7,0,0,0-10-14.36c-7.79-5.74-18.9-7.7-23.69-16.1-1.72-3-2.36-6.51-3-9.93l-3.75-20.84-1-1.65c-2.88-.66-4-4.21-3.93-7.16a23.72,23.72,0,0,1,6.2-15.72,10.68,10.68,0,0,1,5.74-3.6,10.48,10.48,0,0,0,2.32-.46,6.38,6.38,0,0,0,2.11-1.87,33,33,0,0,1,8.53-7l.73-1.71a24.24,24.24,0,0,1-16.77-20.48,14.14,14.14,0,0,1,1.09-7.48,20.15,20.15,0,0,1,3.17-4.3l9.75-11,13.63-12.34a151.66,151.66,0,0,0,19.64-15.94l4.6-5.08c10.77-2.9,18.49-12.34,23.87-22.11s9.27-20.47,16.23-29.19c8.29-10.39,20.26-17.12,29.91-26.27,3.82-3.62,7.54-8.67,6-13.7-1-3.25-4.06-5.69-4.56-9.06s1.93-6.81,4.76-9,6.17-3.64,8.68-6.15c1.09-1.1,2.06-2.64,1.59-4.11a5.5,5.5,0,0,0-2.45-2.51c-9.64-6.62-14.31-18.24-21.45-27.51-4.29-5.57-9.55-10.36-13.54-16.15-8.66-12.58-10.49-28.66-9.84-43.92a17.19,17.19,0,0,0-.41-6c-.92-2.89-3.33-5-5.11-7.46a19.37,19.37,0,0,1-2.94-16.33l5.06-6c2.4-9.35,5-19.09,11.43-26.29a16.07,16.07,0,0,0,3.14-4.14c.68-1.61.55-3.73-.84-4.78l-6.08-3.28a3.64,3.64,0,0,1-3.86-1,40.19,40.19,0,0,1-2.63-3.31c-2.33-2.68-5.92-3.83-9.32-4.86,5.29-3.42,6.85-11.49,3.2-16.63a15.83,15.83,0,0,1-1.75-2.58c-.8-1.82-.39-3.91-.51-5.89a8.65,8.65,0,0,0-4.87-7.42l-.32-1.51a13.78,13.78,0,0,0,3.59-5.37c-5.8-4.38-6.84-12.59-6.88-19.86s.26-15.18-4.08-21c-2-2.72-4.93-4.76-6.59-7.72-2.64-4.7-1.53-10.67.81-15.53s5.8-9.14,8-14.06c2.93-6.53,3.82-14.41,9.18-19.16l6.54-5.56c5.34,1.29,10.89-1.7,14.64-5.72s6.23-9,9.52-13.42c12.53-16.77,36.09-24.21,44.7-43.28a10.55,10.55,0,0,0,1-3.43c.32-3.89-3.11-7.22-6.81-8.45s-7.7-1-11.58-1.38a35.76,35.76,0,0,1-21.72-10.38l-20.56-9c-32.41-23.91-42.29-73.49-21.54-108,1.27-2.12,2.68-4.29,2.87-6.75.59-7.82-9.79-10.68-17.45-12.39a59,59,0,0,1-37.93-87.62c15.8-26.75,48.82-36.49,77.43-48.6,6-2.53,12.51-6,14.34-12.18,1.54-5.24-.78-10.74-1.44-16.16-2-16.49,11.43-32.5,7.61-48.66-1.59-6.71-6-12.39-8.33-18.88-5.5-15.31,1.64-32.87,13.31-44.21s27.1-17.78,42.15-24l90.81-37.32c24.42-10,50.12-20.27,76.38-17.5,8.65.91,17.3,3.24,25.93,2.18s17.6-6.85,18.57-15.5c1-9-7-16.71-15.48-19.75s-17.8-2.95-26.55-5.19c-19.26-4.93-34.81-22.05-37.85-41.7-.9-5.77-.75-11.87,1.68-17.17,8.77-19.14,42-20,45.6-40.78,1.46-8.49-3.17-16.72-4.92-25.16-3.75-18.1,7.83-38.08,25.4-43.84s38.72,3.51,46.41,20.31c2.49,5.44,4.19,12,9.55,14.7,3.49,1.72,7.62,1.22,11.46,1.85,23.29,3.82,21.73,41,41.14,54.44,13.07,9.05,30.66,4.25,46.37,1.84,12.57-1.92,25.77-2,37.58,2.71s22,14.84,24.12,27.37c3.85,22.6-18.26,41.22-39.7,49.32-9.92,3.75-20.66,6.68-28.2,14.13s-9.93,21.45-1.67,28.09c5.2,4.17,12.48,4,19.11,4.72,25.72,2.7,48.72,22.69,55,47.78,1.93,7.72,2.36,16,0,23.57-7.59,24-37.8,30.94-62.92,33.08-6.54.56-14.55,2.17-16.44,8.46s4.12,12.22,9.56,16.11c13.41,9.58,27.49,18.72,37.9,31.5s16.7,30.24,11.73,46l-3.76,13.25c-.53,5.1-3.49,9.56-5.5,14.26s-3,10.6.22,14.62c4.76,6,14.61,3.57,21.45,7.09,6.33,3.25,8.92,11.43,7.47,18.38s-6.13,12.82-11.31,17.69-11,9.08-15.73,14.37a8.91,8.91,0,0,0-2.13,3.34c-1.13,4,2.88,7.35,6,10.1a37.29,37.29,0,0,1,11.31,35.89c-.75,3.09-1.91,6.19-1.56,9.36.47,4.31,3.68,7.84,7.24,10.31s7.6,4.2,11.08,6.78c5.36,4,9.06,9.76,12.38,15.55a223.7,223.7,0,0,1,28.86,93.92l.08,7.71a133.63,133.63,0,0,0,.77,31.66c.75,5.21,1.94,10.65,5.43,14.6s8.75,5.78,13.94,6.3l2-.21a38.27,38.27,0,0,0,1.91,21.64,10.07,10.07,0,0,1,1,3.57,11.34,11.34,0,0,1-1,3.78A19.55,19.55,0,0,0,1540.44,824.47Zm-467.52,895.22-16.49,17.83-1.18,1.32a54.76,54.76,0,0,0,12.15,16,1.43,1.43,0,0,0,.64.39,1.4,1.4,0,0,0,1-.47l7.42-6.41a4.87,4.87,0,0,0,2.24-4.91q-.32-11.65-1.24-23.28a2.94,2.94,0,0,0-.45-1.58C1076.05,1717.28,1074,1718.49,1072.92,1719.69Z"></path>
    <path data-name="2a" data-official="" data-plain="Stamens" data-loc="" d="M1101.52,2882.44c.27-9.79-5.16-18.82-11.33-26.42s-13.36-14.57-17.75-23.32c-6-11.88-6.17-25.73-6.23-39,0-10.59.1-21.91,6-30.71,3.23-4.8,8-8.51,10.7-13.6,2.53-4.76,3.08-10.3,3.43-15.68,1.33-21,.27-42.32,5.31-62.73,1.39-5.64,3.55-11.59,8.39-14.78,5.77-3.81,13.43-2.52,20.06-.57a132,132,0,0,1,28.49,12.2c7.7,4.43,15.46,9.8,24.33,10.11,10.25.37,19.3-6,28.6-10.36a74.35,74.35,0,0,1,26.06-6.72c2.14-.15,4.44-.17,6.23,1,2.3,1.5,3.08,4.45,3.5,7.16,1.66,10.87.28,21.94-.6,32.9a356.75,356.75,0,0,0,3.54,86.05c2.4,14.69,5.61,30.4-.53,44-3.49,7.69-9.69,13.86-13.49,21.4-6.21,12.31-5.41,26.81-7.22,40.48-.69,5.21-2,10.72-5.83,14.29-3,2.78-7.09,4-11,5a283.5,283.5,0,0,1-48.6,8c-8.76.67-17.79.89-26.08-2s-15.81-9.49-17.48-18.11Z"></path>
    <path data-name="3" data-official="Linaria vulgaris" data-plain="Common Toad-flax" data-loc="England" d="M781.6,2471.88a4.91,4.91,0,0,0,4.08-.93,8.58,8.58,0,0,1,1.48-1.14,4.39,4.39,0,0,1,1.39-.31A101.81,101.81,0,0,1,801,2469a10.08,10.08,0,0,0-1.74,4.27,3.46,3.46,0,0,0,2.19,3.68c1.63.43,3.83-.66,4.82.71a3,3,0,0,1,.42,1.42l1.23,9.83.07,5.49c.93,10.1,1.52,21.39-5,29.19-4,4.76-10.3,7.8-12.33,13.65-2.19,6.34,1.61,13,5,18.79s6.65,13,3.44,18.89c-2.18,4-6.79,6.08-11.27,6.82s-9.09.41-13.6,1a9.56,9.56,0,0,0-4.38,1.41c-3.82,2.69-2.88,8.6-.85,12.81s4.81,8.77,3.33,13.19c-.83,2.48-2.88,4.36-5,5.84a32.39,32.39,0,0,1-20.43,5.61c-5.43-.37-11.24-2.05-16.07.45-4.13,2.14-6.33,6.9-6.75,11.52s.65,9.24,1.52,13.8c1.72,9,2.34,19.35-3.59,26.36-4.62,5.46-12.18,7.48-19.33,7.94-5.39.34-11-.09-15.77-2.68-5.85-3.19-9.54-9.14-14.07-14-3.23-3.48-7-6.58-9.12-10.85-3-6.12-1.8-13.32-1.06-20.08.77-7,1-14.25-.81-21.09-2-7.42-6.2-14.09-8.16-21.51-4.88-18.53,5.8-38.4,21.22-49.77,5.3-3.91,11.28-7.2,15.14-12.54,5.78-8,5.6-18.88,10.1-27.66,4-7.77,11.38-13.34,19.4-16.79s16.69-5,25.28-6.52l4.78-1.16a246.4,246.4,0,0,0,26-3.52Zm64.67-241.2c-.6,32-6,63.69-11.32,95.24-1.16,6.83-2.32,13.68-4.11,20.37-1.5,5.59-3.44,11.06-4.81,16.69-1.82,7.46-2.63,15.18-5,22.48l.23,4.6c4.53.82,9.13,1.64,13.71,1.21s9.22-2.29,12-5.94c1.86-2.41,2.78-5.41,3.66-8.33q7.25-24.18,13.8-48.57c2.88-10.71,5.66-21.46,7.79-32.34a281.13,281.13,0,0,0,4.55-73.81l1.41-6.29a41.31,41.31,0,0,0-6.42-16.52c.13,1.46-1.37,2.65-2.84,2.74a7.86,7.86,0,0,1-4.13-1.35,80,80,0,0,1-11.54-7.92l-.62,12.41c-.3,5.8-.66,11.87-3.64,16.87Zm12.07-159.81c8.19,3,17.15,2.82,25.86,2.6-.46-.53.13-1.5-.34-2a1.14,1.14,0,0,0-.49-.28l-23.55-9.07a30,30,0,0,0-1.06,5.78Zm29.64-24a2.78,2.78,0,0,0-2-3,8.19,8.19,0,0,0-3.88-.11q-11.83,1.55-23.77,2.16a21.94,21.94,0,0,1,.13,4l.24,2.1A121,121,0,0,0,886,2062.21a1.24,1.24,0,0,0,1-.06,1.26,1.26,0,0,0,.35-.83,67.74,67.74,0,0,0,.67-10.06Zm-28.49-34.85a25.14,25.14,0,0,0-1.64,11.61l1,3.1a245.68,245.68,0,0,0,29.66-3c3-.49,6.41-1.37,7.63-4.14l-.54-4.14c.13-1.39-1.16-2.57-2.51-2.91a12.71,12.71,0,0,0-4.17.07,39.24,39.24,0,0,1-7.1-.26l-7.72-.75a18.55,18.55,0,0,1-5.44-1.11c-2.68-1.14-4.89-3.59-7.8-3.75Zm57.66-185.64c-2.47-3.06-3.27-7.16-3.35-11.09s.49-7.85.36-11.78a4.83,4.83,0,0,0-.27-1.69c-.48-1.16-1.7-1.79-2.78-2.43-4.48-2.67-7.73-7-11.47-10.59s-8.57-6.83-13.77-6.38l-.66,3.31a128.43,128.43,0,0,1-3.05,50.1,26.37,26.37,0,0,1-3.44,8.47c-3.69,5.32-10.28,7.56-16,10.51a57.54,57.54,0,0,0-16.39,12.56c-3.67,4-6.84,8.69-11.41,11.69-5.55,3.63-12.41,4.36-18.87,5.84a79.08,79.08,0,0,0-49.5,35.84l-2.87,3.34a89.44,89.44,0,0,0-5.53,24.54,3.9,3.9,0,0,0,.7,3.17c.81.8,2.12.75,3.25.59a34.55,34.55,0,0,0,12-4.08,65.08,65.08,0,0,0,7.07-4.8c3.53-2.64,7-5.3,10.35-8.21,7-6.13,13.23-13.4,21.45-17.78s17.73-5.52,25.81-10c6.58-3.65,11.8-9.29,16.67-15,2.08-2.44,4.2-5,7.09-6.38s6.78-1.26,8.85,1.19l2.5,3c2.2-1,4.47-2.05,6.07-3.86a18.8,18.8,0,0,0,1.77-2.56q4.08-6.69,8.59-13.1c1.87-2.66,4-5.43,7-6.53a15.37,15.37,0,0,1,6.89-.37,20.94,20.94,0,0,0,6.93,0c2.26-.51,4.46-2.06,5-4.31Zm.56-34.88c.13-1.06.2-2.3-.62-3a3.13,3.13,0,0,0-1.88-.53q-4.59-.26-9.2-.11a34.41,34.41,0,0,0,5,3.88,12.16,12.16,0,0,0,5.95,1.88Zm1.53-16.45a12.63,12.63,0,0,0-.17-3.36,18.16,18.16,0,0,1-8.13-1.81c-2-1-4-2.36-6.21-2.34-1.42,0-2.78.61-4.2.58s-2.91-.75-4.41-.79a9.75,9.75,0,0,0-3.64.87l-4.88,1.85c-.71.27-1.57.89-1.25,1.57a1.32,1.32,0,0,0,.59.53l11.82,7.13a19.15,19.15,0,0,0,3.43,1.76,18.6,18.6,0,0,0,3.93.77l6.43.8a3.06,3.06,0,0,0,1.38,0,3.26,3.26,0,0,0,.86-.51l4.12-3.09ZM634.21,701c4.22,3.27,8.66,7.51,8.52,12.85l2.23,3.71c.93,1.94-.82,4.29-2.89,4.89s-4.28,0-6.4-.34a36.17,36.17,0,0,0-16.06.78c.63,1.91.53,4.51-1.31,5.33a4.82,4.82,0,0,1-2,.29h-7.36l-6.79-.3-.63,7.4A65.05,65.05,0,0,0,604,771.65a10.24,10.24,0,0,1,.89,3.74,9.54,9.54,0,0,1-1.11,3.6c-2.71,5.8-5.59,11.77-5.78,18.17-.28,9.38,5.18,17.81,8.72,26.5a2.29,2.29,0,0,1,.21,1.69,2.4,2.4,0,0,1-.88.94l-13.25,9.6-5.78,6a7.37,7.37,0,0,1,4.37,6.36,21.55,21.55,0,0,1-.71,4.7,19,19,0,0,0,2.47,13.94,14.19,14.19,0,0,0,12.25,6.48,68.79,68.79,0,0,1,.78,21.52l.83,13.19,3.34,4.05A37.06,37.06,0,0,0,637,916.88a37.8,37.8,0,0,1,7.06-1.22c2.39,0,5,.75,6.36,2.69,1.2,1.65,1.36,3.81,1.38,5.85.08,6.14-.6,12.6,2.08,18.12,2.92,6,9.24,9.55,15.53,11.79a11.45,11.45,0,0,1,4.66,2.47c2,2.08,1.9,5.26,2.16,8.11.75,8.53,5.29,16.18,9.22,23.79a10.35,10.35,0,0,1,1.53,4.76,11.72,11.72,0,0,1-.75,3.38,71.13,71.13,0,0,0-3.2,26.88,19.52,19.52,0,0,1-.14,6.43,15,15,0,0,1-1.54,3.48c-4.45,7.9-10.64,14.65-15.68,22.19s-9,16.37-8,25.38l2.17,12.73c5.18,2.85,9.61,7,15.1,9.23,4.21,1.68,8.8,2.07,13.24,3a105.56,105.56,0,0,1,14.48,4.63c13.34,5,26.69,10,39.78,15.59,4.52,1.94,9.09,4,12.72,7.32,3.18,2.9,5.54,6.67,9.06,9.13l2.19,2.81a9.44,9.44,0,0,1,5.36,6.76c.33,1.7.18,3.49.73,5.13a2,2,0,0,0,.57.92,2.25,2.25,0,0,0,1.33.31c4.34.07,9.07,0,12.48-2.67a11.44,11.44,0,0,1,.47,4.45,3.91,3.91,0,0,1-2.68,3.3,70.57,70.57,0,0,0,11.9.58c10.05-.08,20.6-.29,29.32-5.28,0,2.68-1.82,5-3.69,6.9-7.44,7.64-16.93,13-26.64,17.39a75.12,75.12,0,0,1-11.84,4.46c-8.92,2.36-18.32,2-27.53,1.43a26,26,0,0,0,13.82,6.1,23.57,23.57,0,0,1-13.16,4.19l-9.33,22.25,3.63,4.79c7,7.06,10.2,17.06,11.26,26.91s.2,19.8.16,29.72c0,7,.41,14.18,3.44,20.47s9.21,11.51,16.19,11.5c2.45,0,4.87-.63,7.32-.67,9.07-.18,16.6,7.67,19.6,16.23s2.65,17.87,3.33,26.92c1.7,22.46,9.91,44.2,10.07,66.72l1.54,6.65,5.87,5.62,4.15,3.27c2.2,1.72,4.57,3.49,7.35,3.7,2.27.16,4.71-.73,6.73.31a1.4,1.4,0,0,1,.63.52,1.67,1.67,0,0,1,.15,1c-.22,2.21-1.64,4.09-2.61,6.08-1.33,2.71-1.83,6-.39,8.7a13.58,13.58,0,0,0,3.57,3.8l5.57,4.57,3.85,2.86c2.6.05,5.1-.91,7.65-1.4s5.48-.42,7.38,1.35c1.19,1.11,1.8,2.73,3,3.85a6.94,6.94,0,0,0,5.46,1.61,17.65,17.65,0,0,0,5.57-1.8c5.79-2.72,11.38-6.24,17.71-7.19a46.63,46.63,0,0,1,8.44-.23l14,.49a10.21,10.21,0,0,1-2.53,4c-5.42,5.93-12.31,10.37-19.57,13.8s-14.94,5.92-22.58,8.39l-10.61,6.68a30.56,30.56,0,0,0-9.78,0c-1.36.28-2.68.73-4,1.08a49.92,49.92,0,0,1-5.42,1.07,136.83,136.83,0,0,1-40.61.16l-1.71,2.14c.47,2.44-1.05,4.77-1.52,7.21a2.6,2.6,0,0,0,.32,2.15,2.38,2.38,0,0,0,1.47.75,18,18,0,0,0,3.81.06,15.72,15.72,0,0,1,13.25,7.22c1,1.64,1.75,3.46,2.77,5.11a8.08,8.08,0,0,0,4.28,3.73,10.85,10.85,0,0,0,2.73.32l11.05.35,3,2.4a15.6,15.6,0,0,1,7.69,5.83c2,2.61,3.46,5.55,5.17,8.34a2.13,2.13,0,0,0,.61.72,2.17,2.17,0,0,0,1.43.11,11.72,11.72,0,0,1,5.14.22,19.06,19.06,0,0,1,4.39,2.52c7.51,4.9,16.84,5.91,25.78,6.63a11.39,11.39,0,0,1,5.42,1.37c1.57,1,2.54,3.23,1.59,4.86l.88.88a8.52,8.52,0,0,1,3.73.08,2.94,2.94,0,0,1,2.16,2.75,30.63,30.63,0,0,1,7.34.86c1.49.42,2.91,1.07,4.42,1.44a6.67,6.67,0,0,0,4.54-.24l4.69-2.73q15,3.18,29.56,7.76c2.59.81,5.49,2,6.42,4.51a7.52,7.52,0,0,1-.54,5.31c-1.65,4.06-4.48,7.51-7.28,10.89-2.39,2.9-4.9,5.9-8.3,7.52-2.05,1-4.35,1.41-6.28,2.6-2.92,1.8-4.56,5-6.41,7.94s-4.42,5.79-7.84,6.11l-5,0q-12.84-.84-25.71-1.34a18.7,18.7,0,0,1,4.2,4.36.8.8,0,0,1-.28,1.38,30.1,30.1,0,0,1-18,4.25,24.19,24.19,0,0,1,.31,7,8.1,8.1,0,0,1-3.54,5.86c-2.54,1.52-5.8,1-8.6,0s-5.56-2.37-8.53-2.39l-4-1.53-5-.85a1.31,1.31,0,0,1-.82-.35c-.35-.44,0-1.08-.09-1.64a1.52,1.52,0,0,0-1.44-1.13,5.37,5.37,0,0,0-1.92.37c-3.46,1-7.14.78-10.73.53l-9.3-.64a9.51,9.51,0,0,1-2.11,8.58c-3.16,3.49-8.35,4.08-13.06,4.17a116.77,116.77,0,0,1-18.21-1.07l-6.17-1.44-3.35,6.66a184.25,184.25,0,0,0-16.39,19.86c-5.94,8.35-11.38,18-10.53,28.19a5.83,5.83,0,0,0,.73,2.7,6.55,6.55,0,0,0,2.55,2c3.7,2,7.5,4.06,11.68,4.56,5.9.71,11.75-1.77,16.77-5,12.17-7.7,21.12-19.49,32.24-28.64,1.13-.94,2.75-1.87,4-1a3.42,3.42,0,0,1,1.12,1.89c1.7,5.13,3.42,10.41,6.83,14.61,2.94,3.61,7,6.18,10.89,8.68l17.37,11c3.52,2.24,7.29,4.78,8.55,8.75,1.61,5-1.38,10.3-1.73,15.56-.3,4.53,1.36,8.92,3,13.15l3,7.78c.14.35.25.8,0,1s-.73-.4-.36-.44l3.15,5.29a10.87,10.87,0,0,0,7.24-3.49c.75-.82,1.37-1.76,2.08-2.61A15.57,15.57,0,0,1,909.3,1750c3.11,0,6.14,1,9.24,1.21a21.15,21.15,0,0,0,8-.85l.56-2.73a16.47,16.47,0,0,1,1.51-4.27q2.68-5.75,5.81-11.27l.83-2.86c-1.8-3.63-3.09-7.55-5.51-10.79-1.67-2.26-3.83-4.11-5.64-6.26a26.06,26.06,0,0,1-6.08-16.34,41.3,41.3,0,0,0,24.35,15.42l13-18.56a137.19,137.19,0,0,0,10.87-16.9,45.87,45.87,0,0,0,5.5-19.2l3.18-7.21c-1.39-3.68-.1-7.75.73-11.6a48.79,48.79,0,0,0-1.27-25.06c2.55-.81,5.25.48,7.92.59,5.92.25,10.58-5.26,12.49-10.87l4.75-6.82,7.2-17.41c1.22-3,2.44-6.31,1.14-9.23-1.68-3.74-6.48-4.66-10.56-5.09l-11.52-1.2c-2.92-.31-5.91-.63-8.55-1.94-3.26-1.62-5.63-4.58-7.66-7.6a70.44,70.44,0,0,1-11.79-36.11l.54-5a64.67,64.67,0,0,1-6.5-32.42c.37-5.77,1.5-11.47,1.83-17.24s-.23-11.78-3-16.85l-6.84-5.31a23.45,23.45,0,0,0-10.11-15,31.4,31.4,0,0,0-17.58-5c-1.21,0-2.82.5-2.7,1.69l-3,.14-4.5-1c-1.75-.4-3.66-.78-5.28,0-.69.33-1.36.88-2.11.77-1.25-.17-1.54-1.83-1.52-3.09l-3.34.65a2,2,0,0,0-.53-3,2.13,2.13,0,0,0-2.88,1.18c.23-1.3.45-2.59.68-3.89a11.27,11.27,0,0,1-4.48.2c.12-1.89,3.56-1.38,4.39-3.07.51-1-.32-2.26-1.21-3s-2-1.56-2.07-2.72a.83.83,0,0,1,.09-.54.92.92,0,0,1,.53-.37c1.55-.53,3.1.64,4.49,1.52s3.53,1.36,4.42,0a12.9,12.9,0,0,1,.7-1.39,2.48,2.48,0,0,1,1.27-.69,10.26,10.26,0,0,1,11.15,4.25,11,11,0,0,0,1.86,2.65,7.09,7.09,0,0,0,3.41,1.26l5.3,1,.52.66a27.7,27.7,0,0,0-10-14.36c-7.79-5.74-18.9-7.7-23.69-16.1-1.72-3-2.36-6.51-3-9.93l-3.75-20.84-1-1.65c-2.88-.66-4-4.21-3.93-7.16a23.72,23.72,0,0,1,6.2-15.72,10.68,10.68,0,0,1,5.74-3.6,10.48,10.48,0,0,0,2.32-.46,6.38,6.38,0,0,0,2.11-1.87,33,33,0,0,1,8.53-7l.73-1.71a24.24,24.24,0,0,1-16.77-20.48,14.14,14.14,0,0,1,1.09-7.48,20.15,20.15,0,0,1,3.17-4.3l9.75-11,13.63-12.34a151.66,151.66,0,0,0,19.64-15.94l4.6-5.08c10.77-2.9,18.49-12.34,23.87-22.11l-4.21-2.34-11.09-6.71c-2.92-1.76-6.1-3.89-6.8-7.22-.46-2.15.25-4.36.94-6.45l7.84-23.59a2.48,2.48,0,0,1,.75-1.29,2.68,2.68,0,0,1,2.14-.09c8.59,1.83,17.47-4,21.45-11.85s3.93-17.12,2.57-25.8c-1.1-6.93-2.93-14.27-.29-20.77,2.35-5.78,7.83-9.75,10.64-15.32a18.92,18.92,0,0,0,2-8.32l-.77-13.85c-8.66-12.58-10.49-28.66-9.84-43.92a17.19,17.19,0,0,0-.41-6c-.92-2.89-3.33-5-5.11-7.46a19.37,19.37,0,0,1-2.94-16.33l5.06-6c2.4-9.35,5-19.09,11.43-26.29a16.07,16.07,0,0,0,3.14-4.14c.68-1.61.55-3.73-.84-4.78l-6.08-3.28a3.64,3.64,0,0,1-3.86-1,40.19,40.19,0,0,1-2.63-3.31c-2.33-2.68-5.92-3.83-9.32-4.86,5.29-3.42,6.85-11.49,3.2-16.63a15.83,15.83,0,0,1-1.75-2.58c-.8-1.82-.39-3.91-.51-5.89a8.65,8.65,0,0,0-4.87-7.42l-.32-1.51a13.78,13.78,0,0,0,3.59-5.37c-5.8-4.38-6.84-12.59-6.88-19.86s.26-15.18-4.08-21c-2-2.72-4.93-4.76-6.59-7.72-2.64-4.7-1.53-10.67.81-15.53s5.8-9.14,8-14.06L952.61,815c-3.86-9.52-8.53-19.92-17.92-24.11-7.25-3.24-15.92-2-23.12-5.38-3.43-1.61-6.66-5.64-4.71-8.9a7.43,7.43,0,0,1,3.33-2.6c6.6-3.15,14.09-4,20.86-6.73s13.26-8.6,13.13-15.92a20.25,20.25,0,0,0-2.3-8.1c-3.85-8.2-9.39-15.45-14.42-23a214.55,214.55,0,0,1-30.16-68.88c-2.84-11.78-4.94-24.38-12.68-33.69-4-4.84-9.39-8.52-12.9-13.74-2.79-4.14-4.26-9-5.92-13.72A150.27,150.27,0,0,0,841.06,546l-.44-7.29c-.37-3.74,2.58-6.93,5.52-9.26,8.17-6.47,18-10.66,26-17.28,6.13-5,11.19-11.56,13.69-19.09s2.26-16.1-1.46-23.11c-4.08-7.69-11.94-12.87-20.28-15.35s-17.22-2.54-25.91-2.09c-5.05.26-10.15.68-15.11-.25s-9.88-3.43-12.49-7.76c-5-8.32,0-20.08-5.21-28.31l-2.89-9.51c-.52-12.78-3.85-25.27-5.29-38-5-44.17,12.82-88.41,8.84-132.68a16.61,16.61,0,0,0-1.77-7,12.17,12.17,0,0,0-7.67-5.21c-8.07-2-16.54,1.4-23.48,6s-13.12,10.4-20.64,14c-4,1.9-8.41,3.15-12,5.71-10.92,7.69-11.25,23.56-17.69,35.26-2.42,4.39-5.76,8.24-7.93,12.76-2.92,6.07-3.55,12.94-5,19.51s-4.09,13.39-9.64,17.2c-4.17,2.86-9.45,3.62-14.51,3.57-8-.09-16-2-24.06-2.05s-16.79,2.4-21.44,9c-2.55,3.6-3.59,8-4.21,12.4-3.87,27.27,8,56.21,29.81,73L671,440.13l9.72,9.3c4.37,1.15,8.78,2.67,12.21,5.6s5.73,7.56,4.79,12c-.44,2.06-1.54,3.95-1.79,6s.79,4.62,2.88,4.9a17.89,17.89,0,0,1-1.13,9L687,498.64c-3.08,2.67-8.12,1.77-11.3,4.32-1.84,1.48-2.86,4-5.06,4.85-1.46.56-3.08.25-4.64.2s-3.35.31-4.11,1.68c-1.63,2.89,3,6,2.31,9.28-.4,1.78-2.24,2.79-3.31,4.26-1.64,2.24-1.36,5.3-1,8l-4.19,5.24c-.86,2.12-3.57,2.65-5.85,2.87l-7.55.74a19.32,19.32,0,0,0-4.67.84c-3.43,1.22-5.88,4.25-7.78,7.35a48,48,0,0,0-6.56,31.62l.69,11.29,2.63,38.34,4.71.91a16.76,16.76,0,0,1,6.8,3.18,7.88,7.88,0,0,1,3,6.65,20.09,20.09,0,0,1-1.73,4.83c-1.25,3.21-1.39,6.72-1.53,10.15L629,661.75Z"></path>
    <path data-name="4" data-official="Veronica chamædrys" data-plain="Germander Speedwell" data-loc="England" d="M1035.1,2402.55c10.9,2.82,21.35,7.91,29.5,15.68s13.86,18.32,14.75,29.54l.94,7.1a77.57,77.57,0,0,1,4.26,25.93c-.14,17.07-5.89,34.4-1.58,50.92,2.38,9.18,7.7,17.28,11.35,26,4.83,11.63,6.65,24.26,8,36.78.89,8.28,1.35,17.46-3.73,24.06a27.76,27.76,0,0,1-8.36,6.72c-5.71,3.3-12,5.9-18.6,6.24s-13.53-1.85-17.88-6.82l-6.89-3.23c-4.45-49.68-4.18-100-10.87-149.49l-5.93-33.89c.65-.6-.06-1.71-.88-2.05s-1.81-.39-2.39-1.06c-.94-1.08,0-2.71.59-4s.55-3.44-.89-3.49a8.39,8.39,0,0,1-7.31,3,8.54,8.54,0,0,1,4.61-5,15.55,15.55,0,0,0-6.38-1.61l-1-15c-.11-1.59.21-3.74,1.8-3.91a5.34,5.34,0,0,1,1.82.38c2.2.53,4.46-1.12,5.4-3.17Zm-8.38-115.33-3.24,1.19c-2.53-.13-5.25-.22-7.41,1.12a10.57,10.57,0,0,0-2.19,1.93,28.94,28.94,0,0,0-4.25,6.15c-.8,1.55-1.45,3.18-2.3,4.71a22,22,0,0,1-7.22,7.76l.12,1.11a18.53,18.53,0,0,1,8.51,1,26.88,26.88,0,0,1-14.92,16.35,13.63,13.63,0,0,0,7.79,4.55,3.38,3.38,0,0,1,2.09.86c.84,1,0,2.54-.86,3.56a74.52,74.52,0,0,1-16.36,14.43h-.41c1.24,2.49,4.84,3.47,5.35,6.2.34,1.85-.95,3.59-2.29,4.9a26.84,26.84,0,0,1-15,7.3,7.32,7.32,0,0,0,5.23,4,6.21,6.21,0,0,1,2.23.56,2.92,2.92,0,0,1,.76,3.74,7.24,7.24,0,0,1-3.07,2.77,29.19,29.19,0,0,1-4.48,2,2.26,2.26,0,0,0-1.12.68,2.2,2.2,0,0,0-.25,1.2l0,4.54.19,3.59-.17,18.22c0,2.31-.1,4.78-1.43,6.67a11.5,11.5,0,0,1-3.51,2.9l-6,3.72-7.94,5.77a299.29,299.29,0,0,0-70.62,13.16c-1.81.57-3.73,1.24-4.84,2.77-1.37,1.9-1.07,4.48-1.23,6.81-.64,9.79-9.87,16.67-18.83,20.66a91.77,91.77,0,0,1-44.47,7.57l-7.83-2.59a3,3,0,0,0-.42-1.42c-1-1.37-3.19-.28-4.82-.71a3.46,3.46,0,0,1-2.19-3.68A10.08,10.08,0,0,1,801,2469a101.81,101.81,0,0,0-12.47.49,4.39,4.39,0,0,0-1.39.31,8.58,8.58,0,0,0-1.48,1.14,4.91,4.91,0,0,1-4.08.93l-6,1.62-6.34-2.47a99.15,99.15,0,0,0-39.74-8.21c-2.1,0-4.44,0-6-1.44a7.35,7.35,0,0,1-1.84-4.37c-2.35-15.15,5.17-30.4,15.73-41.52l.43-5.58,0-8.48c0-1.09-.19-2.45-1.23-2.8a11.59,11.59,0,0,1-1.2-.25c-1-.44-.78-1.89-.19-2.76s1.47-1.69,1.45-2.74c0-1.41-1.7-2.27-3.1-2.11a17.15,17.15,0,0,0-3.95,1.47c-.63-1.72,1.57-3.18,1.86-5s-1.15-3.13-2.45-4.24a36.42,36.42,0,0,1-8.6,4.52A16.36,16.36,0,0,1,725,2383a2.39,2.39,0,0,0,1-1,1.56,1.56,0,0,0,0-1.16c-.67-1.73-3-2.24-4.77-1.84s-3.45,1.42-5.28,1.78c-.47-1,.6-2.08,1.57-2.67s2.13-1.41,1.94-2.52a2.62,2.62,0,0,0-.52-1L717,2371.8a1.29,1.29,0,0,0-.62-.56c-.51-.14-.93.38-1.32.74a3.11,3.11,0,0,1-4.94-1.67l-5.05-3.49-5.12-7.89a10,10,0,0,0-2.12-2.58c-1.84-1.4-4.36-1.35-6.66-1.17a134.6,134.6,0,0,0-19.37,2.94l-5.59-1.89c-2.49-.81-4.22-3-5.86-5a4.31,4.31,0,0,0-1.62-1.44,6,6,0,0,0-1.9-.26,16.06,16.06,0,0,1-5.4-1.54c-1.8-.78-3.65-1.74-4.64-3.43s-.62-4.29,1.19-5a10.81,10.81,0,0,0-5.74-1.2,4.72,4.72,0,0,1-2.72-.21,4.6,4.6,0,0,1-1.48-1.85,12.3,12.3,0,0,0-3.77-4,7.79,7.79,0,0,1-2.72-2.25,5.84,5.84,0,0,1-.48-3.19c.09-2.62.19-5.24.28-7.86l-1.67-.94a66.06,66.06,0,0,1-8.06-3.72c-3.18-1.73-6.38-3.92-7.8-7.25s-.18-8,3.28-9.05a15.19,15.19,0,0,1-7.28-7c-1.39-3.14-1.06-7.18,1.39-9.59a17.2,17.2,0,0,1-6.57-3.37,4.87,4.87,0,0,1-1.72-2.25c-.82-2.88,3.09-5.71,2-8.48l-1.21.13a41.42,41.42,0,0,0-10.1-1.22c-3,0-6.14.35-9.12-.27s-6-2.48-6.84-5.4a2.65,2.65,0,0,0-.78-1.53,2.08,2.08,0,0,0-1.28-.23c-8.27.24-17.41.84-23.25,6.7a21,21,0,0,1,.9-11.65c1.46-3.85,4-7.19,5.62-11,2.91-7,2.25-14.88,1.54-22.42a7.17,7.17,0,0,0,2.74,1.7,2.42,2.42,0,0,0,2.79-1.08,3.64,3.64,0,0,0,.18-1.71c-.34-5.86,0-12.4,4.09-16.59l1.36-4.34a42.48,42.48,0,0,1,11.16-14.83c4.42-3.75,9.72-6.71,12.81-11.61l1.48-9.23a5.08,5.08,0,0,1-5.33-3.35c-.12-.37-.27-.83-.66-.9a1,1,0,0,0-.5.08,29.34,29.34,0,0,1-19.8-.32l-3.29-.88a4.71,4.71,0,0,1-2.56-1.34,1.64,1.64,0,0,1,.43-2.48,35.63,35.63,0,0,1-10.87-8.4l-1.32.14c-2.39.75-5.08,1.48-7.3.33-1.34-.69-2.33-2-3.75-2.51l-2.31-5.8c-1.15-2.52,1.27-5.76-.16-8.12-.71-1.16-2.1-1.65-3.33-2.25s-2.49-1.59-2.46-3c0-.79.49-1.53.44-2.31-.07-1.43-1.68-2.19-3-2.65l-3.62-1.21a3.34,3.34,0,0,1-1.27-.65c-.3-.29-.48-.69-.81-1-.94-.8-2.34-.08-3.41.52a14.87,14.87,0,0,1-9.08,1.75l-.85-5.05a57.62,57.62,0,0,1,16-27.08,50.14,50.14,0,0,1,28.37-13.3c5.86-.66,11.94-.23,17.49-2.21a4.53,4.53,0,0,0,2.18-1.37,5.05,5.05,0,0,0,.64-3l0-15.35a29.22,29.22,0,0,1,.85-8.71,25.18,25.18,0,0,1,3.47-6.66,94.72,94.72,0,0,1,8.59-11l6.41-5.48a29,29,0,0,0,7-2.28,10,10,0,0,0,4.92-5.24c.41-1.18.52-2.45,1-3.6a3.25,3.25,0,0,1,2.73-2.21c1.21,0,2.15,1,3,1.83a16.44,16.44,0,0,0,19,2.06,9.3,9.3,0,0,0,4-4.18c.7-1.64.7-3.48,1.1-5.21,1.19-5.23,5.73-8.91,10-12.18l.48-3.55a2.55,2.55,0,0,0,1.87-2.62,7.79,7.79,0,0,0-1.05-3.31,64.68,64.68,0,0,1-6.2-26.4,9.27,9.27,0,0,0-.75-4.38c-.46-.83-1.18-1.48-1.63-2.31-1.64-3.05.85-7.23-1-10.15l-.39-1a7,7,0,0,1-5.77-1.83,18.69,18.69,0,0,1-2.9-4.39A25.83,25.83,0,0,0,613.76,1916c-4.67-.81-9.49-.3-14.15-1.16A24.82,24.82,0,0,1,581,1898.58l-2.51-9.45c-2.48-14,7.63-29.12,21.55-32.16-3.72-18.41,6.84-38.73,24.06-46.25-12.1-7.57-20.78-21.3-20.07-35.55s12.22-27.87,26.46-28.86a5.78,5.78,0,0,0,2.15-.4c1.16-.56,1.73-1.86,2.25-3.05,4.89-11.34,13.44-21.3,24.53-26.75s24.74-6,35.75-.42c9.15,4.66,16.17,13.19,25.89,16.49.22-10.34.59-21.22,6-30s17.57-14.41,26.39-9l15,6.58a5.83,5.83,0,0,0,.73,2.7,6.55,6.55,0,0,0,2.55,2c3.7,2,7.5,4.06,11.68,4.56,5.9.71,11.75-1.77,16.77-5l3.24,6.51a33.84,33.84,0,0,1,18,5.12,12.25,12.25,0,0,0,3.27,1.69,10.18,10.18,0,0,0,4.29-.07c6.56-1,13.29-2.27,19.77-.86s12.77,6.19,13.64,12.77c.65,4.86-1.68,10,0,14.61,2.06,5.76,9,7.78,15,9l5-4.76c1,2.6,2,5.19,3,7.78.14.35.25.8,0,1l-.08,0,2.87,4.81a10.87,10.87,0,0,0,7.24-3.49c.75-.82,1.37-1.76,2.08-2.61A15.57,15.57,0,0,1,909.3,1750c3.11,0,6.14,1,9.24,1.21a21.15,21.15,0,0,0,8-.85l.56-2.73a16.47,16.47,0,0,1,1.51-4.27l4.56,3.08a21.73,21.73,0,0,1,9.15,5.27,12.64,12.64,0,0,1,3.77,9.62c-.2,2.43-1.27,4.78-1.09,7.21.2,2.75,2,5.14,3.94,7.08s4.2,3.67,5.75,5.95a13,13,0,0,1,1.26,12l-.48,6.23c-.47,1.46-2,2.33-3.42,2.85a13.56,13.56,0,0,0-4.22,1.8c-1.93,1.55-2.37,4.32-2.13,6.79s1,4.88.91,7.35a19.53,19.53,0,0,1-1.62,6.29,18.62,18.62,0,0,1-3.15,5.71c-2.8,3.15-7.36,4.29-11.55,3.85s-8.1-2.27-11.82-4.25l-1.31-3.83c-2.47-3.06-3.27-7.16-3.35-11.09s.49-7.85.36-11.78a4.83,4.83,0,0,0-.27-1.69c-.48-1.16-1.7-1.79-2.78-2.43-4.48-2.67-7.73-7-11.47-10.59s-8.57-6.83-13.77-6.38l-.66,3.31a128.43,128.43,0,0,1-3.05,50.1,26.37,26.37,0,0,1-3.44,8.47c-3.69,5.32-10.28,7.56-16,10.51a57.54,57.54,0,0,0-16.39,12.56c-3.67,4-6.84,8.69-11.41,11.69-5.55,3.63-12.41,4.36-18.87,5.84a79.08,79.08,0,0,0-49.5,35.84l-2.87,3.34a89.44,89.44,0,0,0-5.53,24.54,3.9,3.9,0,0,0,.7,3.17c.81.8,2.12.75,3.25.59l.16,4.54c1,6.83-1.33,13.7-4.08,20-10.41,24-27,44.65-43.34,65l-10.46,13-1.85,4.88c-4.09,6.08-13.21,6.33-18.49,11.41a7.47,7.47,0,0,0-2.12,3.2,10.6,10.6,0,0,0-.21,3.77q.42,6.91.85,13.84l3.71,1a10.57,10.57,0,0,1,14.11,4.89,187.6,187.6,0,0,1,12.37-14.76,4.66,4.66,0,0,1,1.64-1.29c2.27-.87,4.18,1.87,6.4,2.83l14.29-9.64c2.1-1.42,4.31-2.87,6.82-3.09s5.37,1.29,5.72,3.79a40.59,40.59,0,0,1,32.55-8.26l2.93,5.33c3.05,7.68,6.13,15.47,7.09,23.68.66,5.64.3,11.39,1.26,17,.76,4.37,2.31,8.57,3.12,12.93a58.58,58.58,0,0,1,.7,13c-.78,19.54-6.5,38.65-14.72,56.4-2.12,4.58-4.44,9.14-7.82,12.89a40.33,40.33,0,0,1-13.37,9.3,67,67,0,0,1-41,4.69l-1.22,5.15a129.15,129.15,0,0,0-1.54,51.47c4.65-6.55,11.76-11.06,19.34-13.71s15.66-3.56,23.68-4l11.75,2.21a5.79,5.79,0,0,1,4.48,2.66,18.1,18.1,0,0,0,1.18,2c1.49,1.83,4.25,1.71,6.6,1.56,6.58-.43,13.78.35,18.61,4.85a11.87,11.87,0,0,1,4.36-2.78c5.35-1.86,11.27.68,16.86-.18l4.89-.14a15.23,15.23,0,0,1,9.1,4l6,2.58c-2.08,15.86-4.76,31.68-7.44,47.45-1.16,6.83-2.32,13.68-4.11,20.37-1.5,5.59-3.44,11.06-4.81,16.69-1.82,7.46-2.63,15.18-5,22.48l.23,4.6c4.53.82,9.13,1.64,13.71,1.21s9.22-2.29,12-5.94c1.86-2.41,2.78-5.41,3.66-8.33q7.25-24.18,13.8-48.57c2.88-10.71,5.66-21.46,7.79-32.34l4.36-2.05c3.29.42,6.23,2.56,9.55,2.73,4.24.21,7.88-2.78,11.21-5.42,9.42-7.47,20.09-13.55,31.69-16.73s24.17-3.35,35.53.6l9.1,5.54,1.78,3.37a55.87,55.87,0,0,1,17.46.07,8.82,8.82,0,0,0-2.89,2.61,158.75,158.75,0,0,1,24-2c4.15,0,8.74-.06,11.82-2.84ZM917.09,1788.56a3.13,3.13,0,0,0-1.88-.53q-4.59-.26-9.2-.11a34.41,34.41,0,0,0,5,3.88,12.16,12.16,0,0,0,5.95,1.88l.78-2.14C917.84,1790.48,917.91,1789.24,917.09,1788.56Zm-30.74-16.9a1.32,1.32,0,0,0,.59.53l11.82,7.13a19.15,19.15,0,0,0,3.43,1.76,18.6,18.6,0,0,0,3.93.77l6.43.8a3.06,3.06,0,0,0,1.38,0,3.26,3.26,0,0,0,.86-.51l4.12-3.09.33-3.93a12.63,12.63,0,0,0-.17-3.36,18.16,18.16,0,0,1-8.13-1.81c-2-1-4-2.36-6.21-2.34-1.42,0-2.78.61-4.2.58s-2.91-.75-4.41-.79a9.75,9.75,0,0,0-3.64.87l-4.88,1.85C886.89,1770.36,886,1771,886.35,1771.66Zm-218,330.66a178.07,178.07,0,0,0-.87-19.87,6.69,6.69,0,0,0-.83-3.06c-.95-1.42-2.78-1.91-4.46-2.22l-2.65.36a41.73,41.73,0,0,1-6.54,21.86c2,.07,4.32.41,5.08,2.22a4.82,4.82,0,0,1,.25,2,35.28,35.28,0,0,1-.51,5l3.19.47a21,21,0,0,1,6-3Z"></path>
    <path data-name="5" data-official="Mimulus moschatus" data-plain="Musk-plant" data-loc="Colombia" d="M1083,2531.72c-4.31-16.52,1.44-33.85,1.58-50.92a77.57,77.57,0,0,0-4.26-25.93l-.94-7.1c-.89-11.22-6.6-21.78-14.75-29.54l1.53-9c1.16-21.43,22.46-33.3,37.27-48.84s33-27.33,51-39l6.14,1a64.81,64.81,0,0,0,8,7.17A4.76,4.76,0,0,1,1170,2331a8.88,8.88,0,0,1,.46,1.25c.8,2.22,3,3.52,5.14,4.62,3.53,1.87,7.31,3.79,11.29,3.43,1.4,2.07,4.24,2.48,6.74,2.55a65.88,65.88,0,0,0,12.31-.8,14.38,14.38,0,0,0,12.33,2.57c4.15-1.07,7.57-3.93,11.4-5.84,3-1.48,6.21-2.4,9.1-4a20.8,20.8,0,0,0,9.84-21.38l.6.16c1.45,4,3.27,8.4,7.06,10.4a15,15,0,0,0,5.87,1.42,46,46,0,0,0,30.14-8.35,16.71,16.71,0,0,1,5.19-3c3.18-.85,6.49.58,9.77.79,6.71.44,12.62-4.14,17.52-8.76q4-3.81,7.84-7.88l-2.69-6.94a80.84,80.84,0,0,0,7.22-8.68c4.82-7,7.35-15.39,8.24-23.84s.19-17-1-25.4l1-1.48c6.9-4.65,11.43-12,16.29-18.69s10.72-13.45,18.7-15.79l6-2.77c15.58-6.46,33.09-6.07,49.89-4.55s33.75,4.08,50.43,1.6a1.81,1.81,0,0,0,1-.32c.66-.53.38-1.59,0-2.36A60.28,60.28,0,0,0,1476,2172.1l-5.09-6.72a51.19,51.19,0,0,1-9-26.66c-.22-5.1.24-10.53-2.33-14.94-4.89-8.41-17.05-7.94-25.69-12.42-11-5.69-15.36-21.23-9-31.82,2.25-3.74,5.51-6.74,8.75-9.65,16.3-14.62,33.48-28.47,52.73-38.9s40.74-17.37,62.64-17.42c-13.77-22.8-27.94-46.9-28.94-73.52-.24-6.43.46-13.29,4.37-18.4l8.61,0c2.3-.32,4.58.71,6.5,2s3.64,2.93,5.67,4a14,14,0,0,0,16.31-2.45,45.92,45.92,0,0,0,10.88,6.74,19,19,0,0,0,12.56.92l.61.22c6.34,7.91,12.75,15.89,20.64,22.26s17.48,11.11,27.61,11.46a1.79,1.79,0,0,0,1.1-.21,1.76,1.76,0,0,0,.56-1.37,20.3,20.3,0,0,0-.17-4.61l.43-.49c3,1.44,4.57,4.68,6.73,7.19a34.64,34.64,0,0,0,7.55,6,68.41,68.41,0,0,0,8.55,5c3.58,1.64,7.42,2.66,11,4.29s7,4.06,8.73,7.6l3.51,2.15q4.84,5.58,9.82,11l6.48,2.27c-.39,1,.69,2,1.63,2.55,3,1.8,6.3,3.67,9.71,3-.42,3.34.77,6.68,2.35,9.65s3.56,5.73,4.95,8.8a25.22,25.22,0,0,1,2.21,9.86l1.22,2.55c2.44,4,7.34,5.63,11.92,6.55,22.54,4.52,46.42-1.52,68.61,4.46,8.09,2.18,15.66,5.89,23.18,9.57l10.94,3.12c13.57,8.08,28.75,13,43.16,19.43s28.59,14.93,37.43,28l6.58,13.31c4.52,9.08.5,20.55-6.78,27.62s-17.1,10.75-26.62,14.24l-44.79,16.41c-13.59,5-29.77,13.61-29,28.06.61,12.29,13.22,19.73,23.41,26.62,32.84,22.19,53.51,61.35,53.31,101-.11,22.38-8.46,47-28.52,57-16.57,8.23-36.43,4.32-54.59,7.85-7.43,1.45-15.09,4.54-19.27,10.86-2.61,4-3.57,8.77-4,13.49-1,12.64,1.89,25.25,2.6,37.91s-1.22,26.44-10,35.59-22.34,11.64-35,11.47c-25.38-.34-49.75-9.5-73.14-19.33-24.18-10.16-48.78-21.74-66-41.56-14.34-16.53-22.51-37.72-37.08-54.05s-40.32-26.78-58.21-14.18l-11.21-3.3-117.93,27.44c-2.39.56-4.89,1.17-6.73,2.79-4.32,3.78-3,10.73-4.91,16.14-2.91,8.28-13.42,12.95-14.14,21.7-.29,3.56,1.21,7,3,10.16,10.46,18.76,30.11,30.71,50.32,38s41.61,10.7,62.06,17.27c12.5,4,25.83,10.37,30.64,22.6,5.24,13.34-2.32,29.09-14.06,37.32s-26.59,10.51-40.9,11.5c-21.95,1.51-45.25.2-63.86-11.55-10.9-6.88-19.41-16.87-27.62-26.8-19.25-23.29-37.83-47.21-59.08-68.69-19.54,25.75-45.83,47-76.53,57.15-38.59,12.74-80.52,7.23-120.76,1.59Z"></path>
    <path data-name="6" data-official="Chelone barbata" data-plain="" data-loc="Mexico" d="M1072.92,1719.69l-16.49,17.83-1.18,1.32a54.76,54.76,0,0,0,12.15,16,1.43,1.43,0,0,0,.64.39,1.4,1.4,0,0,0,1-.47l7.42-6.41a4.87,4.87,0,0,0,2.24-4.91q-.32-11.65-1.24-23.28a2.94,2.94,0,0,0-.45-1.58C1076.05,1717.28,1074,1718.49,1072.92,1719.69ZM705,2366.82l5.05,3.49A3.11,3.11,0,0,0,715,2372c.39-.36.81-.88,1.32-.74a1.29,1.29,0,0,1,.62.56l1.94,2.83a2.62,2.62,0,0,1,.52,1c.19,1.11-1,1.94-1.94,2.52s-2,1.64-1.57,2.67c1.83-.36,3.46-1.39,5.28-1.78s4.1.11,4.77,1.84a1.56,1.56,0,0,1,0,1.16,2.39,2.39,0,0,1-1,1,16.36,16.36,0,0,0-4.61,4.51A36.42,36.42,0,0,0,729,2383c1.3,1.11,2.73,2.55,2.45,4.24s-2.49,3.26-1.86,5a17.15,17.15,0,0,1,3.95-1.47c1.4-.16,3.08.7,3.1,2.11,0,1-.86,1.87-1.45,2.74s-.77,2.32.19,2.76a11.59,11.59,0,0,0,1.2.25c1,.35,1.22,1.71,1.23,2.8l0,8.48-.43,5.58c-10.56,11.12-18.08,26.37-15.73,41.52a7.35,7.35,0,0,0,1.84,4.37l-4.8,5.87a96.38,96.38,0,0,0-10,17.38l-.33,6.84a32.19,32.19,0,0,0-8.18,10c-4.5,8.78-4.32,19.67-10.1,27.66-3.86,5.34-9.84,8.63-15.14,12.54-12.86,9.48-22.42,24.88-22.41,40.48l-5.66,6.16c-8,5.19-18.35,4-27.75,2.55-4.25-.64-8.75-1.39-12-4.23-3.8-3.33-4.94-8.75-5.3-13.8-1.17-16,3.2-32,10-46.61s15.89-27.88,24.83-41.23c14-20.93,27.7-42.16,38.79-64.78,7.52-15.32,13.89-31.37,23.84-45.23Zm129.39-197.61c4,2.64,5.1,7.85,7.4,12a21.6,21.6,0,0,0,8.84,8.7l2.57,3-.62,12.41c-.3,5.8-.66,11.87-3.64,16.87l-2.71,8.46-4.43,10.53c-4.56,9-7.65,19.07-14.77,26.21l.23,4.49-4.89.14c-5.59.86-11.51-1.68-16.86.18a11.87,11.87,0,0,0-4.36,2.78c-4.83-4.5-12-5.28-18.61-4.85-2.35.15-5.11.27-6.6-1.56a18.1,18.1,0,0,1-1.18-2l1.68-7,15.8-25.69,34-55.35Zm51-97.29a64.93,64.93,0,0,0,12,2.62,69.73,69.73,0,0,1-13.05-1.14l-.2.07c-.46-.53.13-1.5-.34-2a1.14,1.14,0,0,0-.49-.28Zm43.87-29.18a136.22,136.22,0,0,1-13.91,23.46,5.66,5.66,0,0,1-7.32,2.65,123.82,123.82,0,0,1-19.72-6.17l-1.33-.53a1.26,1.26,0,0,0,.35-.83,67.74,67.74,0,0,0,.67-10.06l3-1.31a16.56,16.56,0,0,1,2.18-5.37l1.91-2.22a108.59,108.59,0,0,1,33.66-3.65,3.07,3.07,0,0,1,2.45.89Zm-15.37-40.54a8.59,8.59,0,0,0,4.07-1.4,11.79,11.79,0,0,1,1.82-1.18,8.15,8.15,0,0,1,2.7-.46c6.84-.56,13-4.15,19.46-6.46,1.49-.53,3.21-1,4.58-.19l1.23,2.09-6.86,16.33c-1.06,2.51-2.26,5.19-4.64,6.52a11.91,11.91,0,0,1-3.85,1.15,185.08,185.08,0,0,1-28,2.67l-.77-2.36c1.46-1.65,1.88-3.94,2.85-5.91,1.22-2.48,3.34-4.52,4.08-7.18Zm113.36-229.06c3,.29,6.15-.14,9.13.52,4.5,1,8.07,4.31,11.41,7.49,2.89,2.75,5.85,5.6,7.47,9.24l-4,3.44a58.36,58.36,0,0,1-32.67,15.2c-7.11.85-14.57.43-21.11,3.34l.1-3.21a226.9,226.9,0,0,1,22.15-27.87Zm222.52,11a16,16,0,0,1,14.08-5.53c2,.27,4,.92,6,1.27,5.87,1,11.85-.66,17.49-2.58a27.32,27.32,0,0,1,7.25-1.8,16.93,16.93,0,0,1,10.72,3.72,49.67,49.67,0,0,1,8.1,8.23l4.5,2.89c5.21,4.89,11.5,8.87,18.51,10.24,5,1,10.26.61,15.41.53,6.88-.1,13.85.39,20.37,2.57,9.18,3.06,17,9.3,23.9,16,3.86,3.75,7.59,7.75,10,12.55,2.93,5.74,3.87,12.27,4.43,18.69.41,4.63.65,9.28.73,13.92.05,3.85-.22,8.19-3.13,10.7a8.91,8.91,0,0,1-7.93,1.5,20.4,20.4,0,0,1-7.31-4c-8.44-6.56-14.9-15.26-21.93-23.31s-15.07-15.75-25.16-19.27-21-2.51-31.48-4.17c-11.93-1.89-23.1-7.21-33.12-13.93s-19-14.86-28-23ZM1964.1,428.6l25.84,61.78c2.8,6.69,5.65,14,3.76,21-1.64,6.07-6.53,10.63-11.19,14.84l-35.45,32c-2.94,2.66-6,5.57-7,9.44-.95,4,.71,8.19,2.57,11.9,8.14,16.23,20.56,29.83,31.79,44.09s21.66,30,24.66,47.91-3.19,38.42-18.84,47.62c18,5.66,37,9,53.88,17.55s32,23.71,33.83,42.54-15,39.14-33.56,35.64c-7.31-1.38-13.56-5.89-19.94-9.72-24-14.38-58-18.59-77.75,1.2-2.15,2.15-4.16,4.79-4.19,7.83,0,2.27,1.09,4.39,2.17,6.39l31.92,59.25c16,29.7,32.67,60.22,58.92,81.42,12,9.67,26,17.51,34.32,30.47,11.09,17.3,8.83,41.56-4,57.63s-34.83,23.66-55.16,20.67l-13.55,6.48a176.8,176.8,0,0,1-72.1-8.77c-13.35-4.55-28.42-10.64-40.81-3.89-11.43,6.22-15.22,21-14.61,34s4.42,25.86,3.27,38.82c-.63,7.15-2.77,14.19-2.45,21.36.84,19.11,18,32.78,33,44.58,19.22,15.05,37.69,31.63,51,52.1s21.1,45.36,17.36,69.49c-2.06,13.29-8.73,27.18-21.21,32.2s-26.84-.35-38.91-6.59-24.65-13.61-38.18-12.43c-10.24.88-19.48,6.62-29.64,8.19-16.43,2.54-32.61-6.15-45.33-16.86-7-5.85-13.4-12.43-21.11-17.27s-17.15-7.83-26-5.56c-10.79,2.77-18.72,14-17.75,25.09.73,8.26,5.74,16,5.11,24.23-.87,11.47-12.08,19.29-22.89,23.22s-22.81,6-31.44,13.64c-14.7,13-14.27,37.09-28,51l-7.53,9.65-14.84,17.81a37.25,37.25,0,0,0-3.07,4,25.39,25.39,0,0,0-3.42,13.53,75.37,75.37,0,0,0,1.8,14l-2.54,6.53a33.28,33.28,0,0,0-12.45,6.91,64.41,64.41,0,0,0-5,5.07q-11.12,12.13-22.21,24.28c-2.83,3.1-5.78,6.28-9.61,8l-10.09,2.42a72.81,72.81,0,0,1-37.55-1.18c-9.72-3-18.77-7.93-28.62-10.42-1.49-.38-3.36-.59-4.31.63a3.65,3.65,0,0,0-.56,2.43c.14,4.12,2,8,3.78,11.68A503.87,503.87,0,0,0,1515,1602.7c5.08,8.14,10.44,16.24,13.47,25.34s3.47,19.53-1.15,27.94c-3.65,6.63-10.14,11.39-17.2,14.1s-14.72,3.56-22.29,3.77c-3.87.12-8,.15-11.2,2.37a37.67,37.67,0,0,1-3.74,2.85c-2.38,1.25-5.25.84-7.89.39l-14.81-2.47c-1.78-.3-3.66-.59-5.32.11a11.91,11.91,0,0,0-2.95,2.16,28.05,28.05,0,0,1-25.3,5.79l-6.4-5.22a10.58,10.58,0,0,1-5.67-9,15.94,15.94,0,0,1,3.63-10.38c2.33-3,5.43-5.35,7.87-8.29s4.23-6.83,3.23-10.51c-1.17-4.28-5.81-6.82-10.23-7.1s-8.74,1.15-13,2.32c-13.76,3.75-28.7,4.7-42.11-.14-16-5.79-28-19-39.37-31.73-7.58,15-20.47,26.84-35.06,35.14s-30.86,13.26-47.28,16.78a88.34,88.34,0,0,1,51,51.74l0,5.2a62.27,62.27,0,0,0-14.82,9.79c-2.23,2-4.36,4.16-7,5.58a23.73,23.73,0,0,1-7.43,2.27,63.8,63.8,0,0,1-20.5.13l-11.65-7.23c-4.2-9.57-12.72-16.6-21.8-21.76s-19-8.81-28.11-13.85a104.64,104.64,0,0,1-16.74-11.47c-3.49-2.94-8-6.32-12.15-4.45a11.79,11.79,0,0,0-3.8,3.31l-7.07,8.28-4.06,3.32-10.48-3.25a14.81,14.81,0,0,1-9,3.67l.42-27a3.31,3.31,0,0,1,.39-1.85,4.13,4.13,0,0,1,1.38-1,10.08,10.08,0,0,0,4.39-6.44,20,20,0,0,0,0-7.94c-1.65-9.69-6.76-18.43-12.38-26.5s-11.87-15.76-16.29-24.54l-1-2.48q-2.27-5.19-4.88-10.22c-.71-1.36-1.68-2.89-3.21-3l-2.2-2.54a20,20,0,0,0,.13-7.51c2.1,0,3.82-1.81,4.51-3.78s.64-4.13.85-6.21a23.8,23.8,0,0,1,6.82-14.31c2,1.77,5.65,1.25,7.19,3.48a8.1,8.1,0,0,1,.91,2.61,16.23,16.23,0,0,0,5.36,8.52c2.69,2.22,6.07,3.55,8.47,6.08,1.63,1.71,2.81,4,4.92,5l1.28.94,5.75.15a2,2,0,0,1,1,.19c.37.21.57.62.87.93a3.77,3.77,0,0,0,2.11.9c3.55.71,7.75,1.23,10.32-1.32-.61,3.65-1.22,7.43-.25,11,1.2,4.43,4.65,7.85,8,11l5.43,5,12.11,5.28a66.91,66.91,0,0,1,12.23,6.35c2.84,2,5.56,4.56,9,5.12l3.68,2.48a139.44,139.44,0,0,0,55,.3,63,63,0,0,0,14.26-4.27c4.91-2.26,9.31-5.47,13.67-8.66,10-7.3,20.54-15.32,24.62-27,1.41-4,2.09-8.6,5.09-11.66,2-2,4.85-3.24,6.2-5.73.83-1.55,1-3.38,1.65-5,2.23-5.14,9-6.13,13.32-9.75,2.79-2.36,4.41-5.8,5.73-9.21a89.25,89.25,0,0,0-7.55-78.54l-22.16-21.33c-5.56-3.12-11.5-6.67-13.87-12.59-1.4-3.48-1.59-7.8-4.56-10.1l.7-3.06a15.64,15.64,0,0,0-5.66-3.64c-1.45-.54-3.21-.81-4.43.16-1.42,1.13-1.31,3.27-1.15,5.08s.05,4-1.53,4.9-3.75-.35-4.48-2.06-.47-3.65-.26-5.49c1-9.27.4-18.63-.24-27.94l2.88-4a215.94,215.94,0,0,0-3.86-66.36c-.29-1.33-.57-2.81.12-4a6.69,6.69,0,0,1,1.86-1.77,14.63,14.63,0,0,0,5-7.33,4.41,4.41,0,0,1,.91-2,3.24,3.24,0,0,1,2.16-.76c2.81-.16,5.54.82,8.24,1.6a66.26,66.26,0,0,0,56.08-9.44l4.89-9.17c-2.55-8.88-8-16.62-13.31-24.16a41.52,41.52,0,0,0-6.89-8.16c-2.15-1.79-4.82-3.37-5.61-6a14.63,14.63,0,0,1-.29-4c-.1-6.56-3.47-12.62-7.31-17.94s-8.3-10.28-11.12-16.2c-4.64-9.73-4.42-21-4.11-31.74l.43-2.09a22.79,22.79,0,0,1,.8-7.75c3-1.69,6.76-1.24,9.92.08s5.93,3.42,8.92,5.09c5.46,3.06,11.86,4.8,16.17,9.33,6.36,6.69,6.14,17,7.35,26.14,1.61,12.11,6.36,23.58,11.8,34.52,3.21,6.45,6.9,13,12.87,17.07,3.27,2.22,7.12,3.6,10,6.29l3.35-2.31c1.53-11.22,5.65-21.9,8.7-32.8s5-22.54,2.21-33.51a80.44,80.44,0,0,0,20.57-7l3.95-5.41c5-2.84,6.71-9,8-14.58q4.14-17.7,8.29-35.4c1.36-5.81,2.73-11.74,2.15-17.68l1.88-4.38c4.66-5.61,7.35-12.57,9.95-19.39l6-15.73c2.43-6.36,4.87-12.78,5.8-19.52.85-6.22.39-12.53-.07-18.79l-.9-7.09c-4.85-9.12-14.55-14.33-22.63-20.77-14.13-11.28-23.9-27.16-31.26-43.68s-12.54-33.9-19.25-50.68c-1.78-4.44-3.69-8.93-4.11-13.69s.91-10,4.62-13c4.29-3.51,10.65-3.24,15.77-1.12s9.42,5.78,14.05,8.81,10,5.53,15.53,4.84a8.05,8.05,0,0,1,3.81,0,6.64,6.64,0,0,1,2.7,2.46c11.34,14.71,30.8,23.05,49.14,20.08,12.78-2.08,24.45-9.31,32.92-19.1s13.86-22,16.59-34.66l8.9-14.58a16.91,16.91,0,0,0,7.38-14.17c-.08-3.71-1.4-7.3-1.67-11a19.55,19.55,0,0,1,1.06-7.88,11.34,11.34,0,0,0,1-3.78,10.07,10.07,0,0,0-1-3.57,38.27,38.27,0,0,1-1.91-21.64l-2,.21c-5.19-.52-10.48-2.39-13.94-6.3s-4.68-9.39-5.43-14.6a133.63,133.63,0,0,1-.77-31.66l-.08-7.71a223.7,223.7,0,0,0-28.86-93.92c-3.32-5.79-7-11.57-12.38-15.55-3.48-2.58-7.52-4.31-11.08-6.78s-6.77-6-7.24-10.31c-.35-3.17.81-6.27,1.56-9.36a37.29,37.29,0,0,0-11.31-35.89c-3.11-2.75-7.12-6.11-6-10.1a8.91,8.91,0,0,1,2.13-3.34c4.74-5.29,10.56-9.49,15.73-14.37s9.85-10.73,11.31-17.69-1.14-15.13-7.47-18.38c-6.84-3.52-16.69-1.05-21.45-7.09-3.17-4-2.23-9.91-.22-14.62s5-9.16,5.5-14.26l3.76-13.25c5-15.72-1.32-33.19-11.73-46l18-5.24c24.73-20.13,62-23.17,89.68-7.32,4.25,2.44,8.44,5.46,10.61,9.85,3.29,6.66,1.3,15.14,5.09,21.52,3.48,5.83,11,8.18,17.79,7.41s12.91-4.05,18.89-7.27c5-2.71,10.33-5.71,12.94-10.79,6.21-12.08-6.39-27.49-.76-39.86,4.52-9.91,17.9-11.9,25.4-19.8,8-8.41,7.71-21.46,7.13-33.05-1-20.51-.55-43.31,13.39-58.38,9.57-10.35,23.94-15.12,33.86-25.14,9.25-9.35,13.75-22.35,21.46-33,16.83-23.27,47-32.85,75.55-35.7,16.29-1.63,33.55-1.36,47.91,6.51,8.81,4.83,15.91,12.19,22.87,19.44,14.8,15.43,29.93,31.34,38.23,51s8.41,44.36-5.36,60.73c-7.81,9.28-20,16.29-21.94,28.26-1.46,8.88,3.41,17.51,8.77,24.74,18.26,24.65,43.85,42.75,69.65,59.35Z"></path>
    <path data-name="7" data-official="Torenia asiatica" data-plain="" data-loc="East Indies" d="M668.37,2102.32a178.07,178.07,0,0,0-.87-19.87,6.69,6.69,0,0,0-.83-3.06c-.95-1.42-2.78-1.91-4.46-2.22l-2.65.36a41.73,41.73,0,0,1-6.54,21.86c2,.07,4.32.41,5.08,2.22a4.82,4.82,0,0,1,.25,2,35.28,35.28,0,0,1-.51,5l3.19.47a21,21,0,0,1,6-3Zm1315.26-281.08c-2.47-3.46-5.35-7-5.61-11.25-.18-2.94.94-5.77,1.87-8.55,9.26-27.62.78-59.82-19.37-80.87s-50.67-30.93-79.65-27.93-56.08,18.2-75.59,39.84c-4,4.4-7.79,9.19-13,11.92-6.46,3.36-14.11,3.15-21.38,2.86l-37.58-1.5c-3.4-.14-7.1-.39-9.61-2.68-4.62-4.19-2.26-11.76.54-17.33q8.29-16.5,17.94-32.28l11-3.09c28,5.78,59-11,69.43-37.68.56-1.43,1.16-3,2.48-3.8a7.94,7.94,0,0,1,4-.68c12.79-.37,22.47-11.32,30.06-21.62,5.87-8,11.58-16.2,15.11-25.44,5-12.92,5.39-27.11,4.82-40.93-.56-13.43-2.07-27-6.94-39.53a78.45,78.45,0,0,0-56.3-47.53c-.81-13.47-7.13-26.16-15.58-36.68s-19-19.15-29.55-27.56l-13-14.92a201.76,201.76,0,0,0-73.17-1.07l-9.88-.88c-14.7,13-14.27,37.09-28,51l-7.53,9.65q-7.42,8.9-14.84,17.81a37.25,37.25,0,0,0-3.07,4,25.36,25.36,0,0,0-3.42,13.53,75.37,75.37,0,0,0,1.8,14l-2.54,6.53a33.28,33.28,0,0,0-12.45,6.91,64.41,64.41,0,0,0-5,5.07q-11.12,12.13-22.21,24.28c-2.83,3.1-5.78,6.28-9.61,8l1,9.6c2.38,11.11-5.28,21.55-9,32.28-3.51,10.13-3.5,21.09-3.55,31.81-.1,22.62-.74,46-10.08,66.59-1.8,4-4.36,8.18-8.58,9.32-3,.8-6.13-.14-9-1.19-13.4-4.86-26.75-12.45-40.89-10.69-2.73.34-5.54,1.11-7.53,3-3.29,3.17-3.3,8.35-3.08,12.91q.69,14.34,1.39,28.68c-13.75-4.29-21.61-18.65-33.73-26.43-7-4.5-15.25-6.65-23.35-8.66-21.65-5.37-43.59-10.21-65.89-11.15s-45.13,2.22-65.12,12.13l-7,7.5,0,5.2a62.27,62.27,0,0,0-14.82,9.79c-2.23,2-4.36,4.16-7,5.58a23.73,23.73,0,0,1-7.43,2.27,63.8,63.8,0,0,1-20.5.13l-11.65-7.23-10,5.64a75.86,75.86,0,0,1-39.32,14.76l-6,.16a7.4,7.4,0,0,0-5.36,2.1,40.06,40.06,0,0,0-2.77,3.67,5.12,5.12,0,0,1-3.83,2.25c.08,3.24,2.17,6,4.31,8.48a75.79,75.79,0,0,0,8.84,8.53l3.24,5.74a22.24,22.24,0,0,1,9,1.21c3.7,1.32,7,3.59,10.42,5.49a56.86,56.86,0,0,0,17.28,6.12l2.58,5.93a29.27,29.27,0,0,1-17.65,9c-6.83.85-14.3-.63-20.23,2.87-4.46,2.65-7,7.56-10.68,11.21-5.71,5.67-14.08,8.18-19.43,14.19-4,4.51-5.92,10.6-6.4,16.62s.34,12.07,1.15,18.06l-1,.85c-4.56-1.49-9.69.22-13.45,3.2s-6.44,7.11-9,11.15q-3.29,5.12-6.58,10.23c-2.63,4.1-5.31,8.3-6.43,13-1.41,6-.2,12.24,1,18.27a5.43,5.43,0,0,1,.08,2.5,5.56,5.56,0,0,1-.93,1.66l-32.4,44.16-2.19,2.08c-.16,2.35-2.78,3.9-5.14,3.77s-4.44-1.46-6.42-2.74a9.79,9.79,0,0,1-3-2.61,12.89,12.89,0,0,1-1.18-2.75,22.78,22.78,0,0,0-24.13-14.3l-.67-6.85a261,261,0,0,1,9-35.15c1.87-5.64,3.93-11.22,5.53-16.95,4.55-16.33,5.24-33.56,10-49.85,3.34-11.51,8.72-23.24,6.22-35l.68-10.72a22.49,22.49,0,0,0-1.56-10l-4,3.44a58.36,58.36,0,0,1-32.67,15.2c-7.11.85-14.57.43-21.11,3.34l.1-3.21-6.43-.9c-4.7.41-9,2.8-13.44,4.24-8.41,2.7-18,2.22-25.32,7.19l-5.78-1a19.53,19.53,0,0,1-1.62,6.29,18.62,18.62,0,0,1-3.15,5.71c-2.8,3.15-7.36,4.29-11.55,3.85l1.55,4.38a125.64,125.64,0,0,1-8.12,12.68,12.84,12.84,0,0,1-3.73,3.79l-3.86,4.36c-.54,2.25-2.74,3.8-5,4.31a20.94,20.94,0,0,1-6.93,0,15.37,15.37,0,0,0-6.89.37c-3.07,1.1-5.18,3.87-7,6.53q-4.51,6.41-8.59,13.1a18.8,18.8,0,0,1-1.77,2.56c-1.6,1.81-3.87,2.86-6.07,3.86l-2.5-3-9,8.07q-12.14,15.51-24.12,31.1c-6.11,8-12.23,16-16.94,24.81-5.59,10.49-9.1,21.93-13.73,32.88a171.92,171.92,0,0,1-20.4,35.59c-3.73,5-7.82,9.89-13,13.35-5.05,3.36-10.93,5.23-16.72,7L713.65,2054l-9.31,1.05-1.85,4.88c-4.09,6.08-13.21,6.33-18.49,11.41a7.47,7.47,0,0,0-2.12,3.2,10.6,10.6,0,0,0-.21,3.77q.42,6.91.85,13.84l3.71,1a10.57,10.57,0,0,1,14.11,4.89,187.6,187.6,0,0,1,12.37-14.76,4.66,4.66,0,0,1,1.64-1.29c2.27-.87,4.18,1.87,6.4,2.83l14.29-9.64c2.1-1.42,4.31-2.87,6.82-3.09s5.37,1.29,5.72,3.79a40.59,40.59,0,0,1,32.55-8.26l2.93,5.33c3.05,7.68,6.13,15.47,7.09,23.68.66,5.64.3,11.39,1.26,17,.76,4.37,2.31,8.57,3.12,12.93l6.72,10.39A68.41,68.41,0,0,0,821,2175.54l5.28,3.05,8.12-9.38c4,2.64,5.1,7.85,7.4,12a21.6,21.6,0,0,0,8.84,8.7l2.57,3a80,80,0,0,0,11.54,7.92,7.86,7.86,0,0,0,4.13,1.35c1.47-.09,3-1.28,2.84-2.74a41.31,41.31,0,0,1,6.42,16.52l6,2.78c10.42,9.05,23.47,14.69,36.9,17.84s27.31,3.9,41.11,4.06l11.87.43,2.21-5.67c2.71-4.18,2.63-9.51,2.45-14.48a163.2,163.2,0,0,1,24.54,9.88,12.42,12.42,0,0,1,3.47,2.28c1,1,1.57,2.3,2.56,3.26,1.86,1.8,4.65,2.11,7.14,2.81a20.67,20.67,0,0,1,11.14,7.79l8.56,2.54c10.28.52,19.85,5.18,29.07,9.75l21.89,10.85a116.67,116.67,0,0,1,15.51,8.71c14.89,10.51,23.87,27.29,32.32,43.44l19.57-.85,6.14,1a64.81,64.81,0,0,0,8,7.17A4.76,4.76,0,0,1,1170,2331a8.88,8.88,0,0,1,.46,1.25c.8,2.22,3,3.52,5.14,4.62,3.53,1.87,7.31,3.79,11.29,3.43,1.4,2.07,4.24,2.48,6.74,2.55a65.88,65.88,0,0,0,12.31-.8,14.38,14.38,0,0,0,12.33,2.57c4.15-1.07,7.57-3.93,11.4-5.84,3-1.48,6.21-2.4,9.1-4a20.8,20.8,0,0,0,9.84-21.38l.6.16c1.45,4,3.27,8.4,7.06,10.4a15,15,0,0,0,5.87,1.42,46,46,0,0,0,30.14-8.35,16.71,16.71,0,0,1,5.19-3c3.18-.85,6.49.58,9.77.79,6.71.44,12.62-4.14,17.52-8.76q4-3.81,7.84-7.88l-2.69-6.94a80.84,80.84,0,0,0,7.22-8.68c4.82-7,7.35-15.39,8.24-23.84s.19-17-1-25.4l1-1.48c6.9-4.65,11.43-12,16.29-18.69s10.72-13.45,18.7-15.79l6-2.77,1.26-8.46c3.56-32.51-10.38-66.41-35.78-87-9.48-7.69-20.57-13.65-32.56-15.94-10.35-2-21-1.18-31.52-.38-14.16,1.08-28.85,2.32-41.16,9.38-1.8,1-3.68,2.22-5.75,2.09a9.67,9.67,0,0,1-4.52-2l-18.51-12.18c-2.48-1.63-5.31-4.53-3.78-7.08.89-1.5,2.84-1.89,4.56-2.1,14.09-1.74,28.36-1.17,42.52-2.13s28.61-3.61,40.67-11.11,21.34-20.62,21.11-34.81c-.05-3-.15-6.78,2.51-8.21,1.37-.74,3-.55,4.58-.44a33.2,33.2,0,0,0,27.25-11.64c3.84-4.59,6.41-10.22,10.74-14.36,7.74-7.4,19.3-8.55,29.85-10.41a156.45,156.45,0,0,0,78-38.54c5.24-4.8,10.21-10,16.29-13.7s13.62-5.7,20.37-3.45l12-.5,8.61,0c2.3-.32,4.58.71,6.5,2s3.64,2.93,5.67,4a14,14,0,0,0,16.31-2.45,45.92,45.92,0,0,0,10.88,6.74,19,19,0,0,0,12.56.92l.61.22c6.34,7.91,12.75,15.89,20.64,22.26s17.48,11.11,27.61,11.46a1.79,1.79,0,0,0,1.1-.21,1.76,1.76,0,0,0,.56-1.37,20.3,20.3,0,0,0-.17-4.61l.43-.49c3,1.44,4.57,4.68,6.73,7.19a34.64,34.64,0,0,0,7.55,6,68.41,68.41,0,0,0,8.55,5c3.58,1.64,7.42,2.66,11,4.29s7,4.06,8.73,7.6l3.51,2.15q4.84,5.58,9.82,11l6.48,2.27c-.39,1,.69,2,1.63,2.55,3,1.8,6.3,3.67,9.71,3-.42,3.34.77,6.68,2.35,9.65s3.56,5.73,4.95,8.8a25.22,25.22,0,0,1,2.21,9.86l1.22,2.55c2.44,4,7.34,5.63,11.92,6.55,22.54,4.52,46.42-1.52,68.61,4.46,8.09,2.18,15.66,5.89,23.18,9.57l10.94,3.12,32.16,5.91c13-8.37,12.53-28,5.85-41.87s-17.9-25.52-22.77-40.15c17.76,2.55,35.86,5.1,53.55,2.13s35.24-12.38,43.51-28.31c1.34-2.57,2.48-5.36,4.66-7.26,3.42-3,8.4-3,12.8-4.11,15.21-3.72,23.62-19.86,28.21-34.83C2002.64,1885.45,2003,1848.38,1983.63,1821.24ZM859.49,2012.06l1.39-5.29c2.91.16,5.12,2.61,7.8,3.75a18.22,18.22,0,0,0,5.44,1.1l7.72.76a39.24,39.24,0,0,0,7.1.26,12.71,12.71,0,0,1,4.17-.07c1.35.34,2.64,1.52,2.51,2.91l.54,4.14c-1.22,2.77-4.64,3.65-7.63,4.14a245.68,245.68,0,0,1-29.66,3l-1-3.1A25.14,25.14,0,0,1,859.49,2012.06Zm24.91,61.34-.2.07c-8.71.22-17.67.4-25.86-2.6l.42-3a30,30,0,0,1,1.06-5.78l23.55,9.07,2.06.74a64.93,64.93,0,0,0,12,2.62A69.73,69.73,0,0,1,884.4,2073.4Zm44.9-30.66a136.22,136.22,0,0,1-13.91,23.46,5.66,5.66,0,0,1-7.32,2.65,123.82,123.82,0,0,1-19.72-6.17l-1.33-.53a1.24,1.24,0,0,1-1,.06A121,121,0,0,1,858.75,2052l-.24-2.1a21.94,21.94,0,0,0-.13-4q11.93-.62,23.77-2.16a8.19,8.19,0,0,1,3.88.11,2.78,2.78,0,0,1,2,3l5.28-2.33,1.91-2.22a108.59,108.59,0,0,1,33.66-3.65,3.07,3.07,0,0,1,2.45.89Zm11.63-31.81c-1.06,2.51-2.26,5.19-4.64,6.52a11.91,11.91,0,0,1-3.85,1.15,185.08,185.08,0,0,1-28,2.67l-.77-2.36c1.46-1.65,1.88-3.94,2.85-5.91,1.22-2.48,3.34-4.52,4.08-7.18l3.32-3.62a8.59,8.59,0,0,0,4.07-1.4,11.79,11.79,0,0,1,1.82-1.18,8.15,8.15,0,0,1,2.7-.46c6.84-.56,13-4.15,19.46-6.46,1.49-.53,3.21-1,4.58-.19l1.23,2.09Zm73.49-18.44a11,11,0,0,1,3.26-2.68c2.59-1.26,5.73-.75,8.44-1.75,3.26-1.21,5.31-4.34,7.57-7s5.56-5.11,8.93-4.24c2.93.75,4.64,3.69,6.94,5.65a12,12,0,0,0,8,2.83,4.77,4.77,0,0,1-1.46,4.32,25.49,25.49,0,0,1-3.81,2.84c-4.33,3.08-7.28,7.68-10.14,12.16a3.37,3.37,0,0,1-1.19,1.29,3.49,3.49,0,0,1-1.28.27l-30.14,2.28-1.74-4A30.64,30.64,0,0,1,1014.42,1992.49Zm-10,37.7a6.36,6.36,0,0,1,1.37-2.61c1.13-1.13,2.88-1.24,4.47-1.34a72.84,72.84,0,0,0,17.13-3.19,21.72,21.72,0,0,1,5.3-1.24c3.36-.16,6.66,1.51,10,1.1-.26,1.71-.51,3.42-.77,5.12a5.19,5.19,0,0,1-.54,1.91,5,5,0,0,1-1.55,1.49c-8,5.73-17,9.92-26,14.09-5,2.35-10.31,4.74-15.87,4.69l-1.25-2.34A128.17,128.17,0,0,0,1004.44,2030.19Zm51,70.17q-1.26,4.82-3,9.49l-5.59,3.64c-3-1.64-6.69.11-10.07-.31s-6.41-3.66-5.81-7l-7.94,1.62c-.66.13-1.45.22-1.89-.29a1.83,1.83,0,0,1-.32-1.13c-.1-1.39-.2-2.77-.29-4.15-4.52-.65-9.33,1-13.59-.61-3-1.15-5.13-3.74-7.15-6.22,11.12.17,22.51.29,33-3.36,3.56-1.24,7.07-2.91,10.83-3a16.29,16.29,0,0,1,9.11,2.69,7.28,7.28,0,0,1,2.63,2.54C1056.45,2096.08,1056,2098.34,1055.48,2100.36Zm-65.25-15.51-3.08-1.83a42,42,0,0,1,2.93-9.61,5.85,5.85,0,0,1,1.48-2.26c1.06-.89,2.67-1.05,3.52-2.15s.54-3.17,1.44-4.47a5.32,5.32,0,0,1,3.34-1.68,131.26,131.26,0,0,0,47-21.31,3.07,3.07,0,0,1,2.4-.84,2.9,2.9,0,0,1,1.16.73c2.95,2.58,6,5.28,7.62,8.82,2.09,4.46,1.75,9.63,1.38,14.54l.64,5.66C1038.89,2081.8,1014.25,2085.13,990.23,2084.85Zm418-209.28a8.91,8.91,0,0,1-7.93,1.5,20.4,20.4,0,0,1-7.31-4c-8.44-6.56-14.9-15.26-21.93-23.31s-15.07-15.75-25.16-19.27-21-2.51-31.48-4.17c-11.93-1.89-23.1-7.21-33.12-13.93s-19-14.86-28-23l-3.49-5.31a16,16,0,0,1,14.08-5.53c2,.27,4,.92,6,1.27,5.87,1,11.85-.66,17.49-2.58a27.32,27.32,0,0,1,7.25-1.8,16.93,16.93,0,0,1,10.72,3.72,49.67,49.67,0,0,1,8.1,8.23l4.5,2.89c5.21,4.89,11.5,8.87,18.51,10.24,5,1,10.26.61,15.41.53,6.88-.1,13.85.39,20.37,2.57,9.18,3.06,17,9.3,23.9,16,3.86,3.75,7.59,7.75,10,12.55,2.93,5.74,3.87,12.27,4.43,18.69.41,4.63.65,9.28.73,13.92C1411.39,1868.72,1411.12,1873.06,1408.21,1875.57ZM521.64,2422.21c14.5-17.71,36.72-27.67,51.52-45.13a16.14,16.14,0,0,0,3.57-5.91,2.66,2.66,0,0,0-.38-2.67,3.07,3.07,0,0,0-2-.59L516,2365.47l-6.85,5.07-6.67-18.09c-2.88.33-5.85.66-8.65-.08a15.21,15.21,0,0,1-6.72-4.11l-.69-.22q-3.39-60.28-2.6-120.7l1.17-.85c4.76-3.45,9.63-7,12.87-11.92,2.2-3.31,3.56-7.12,5.76-10.43a24.37,24.37,0,0,1,7.59-7.3l9.63-4.36c9.51-9.05,19.08-18.15,30-25.43,5.31-3.54,10.91-6.62,16.5-9.7l3.29.88a29.34,29.34,0,0,0,19.8.32,1,1,0,0,1,.5-.08c.39.07.54.53.66.9a5.08,5.08,0,0,0,5.33,3.35l-1.48,9.23c-3.09,4.9-8.39,7.86-12.81,11.61a42.48,42.48,0,0,0-11.16,14.83l-1.36,4.34c-4.11,4.19-4.43,10.73-4.09,16.59a3.64,3.64,0,0,1-.18,1.71,2.42,2.42,0,0,1-2.79,1.08,7.17,7.17,0,0,1-2.74-1.7c.71,7.54,1.37,15.43-1.54,22.42-1.58,3.8-4.16,7.14-5.62,11a21,21,0,0,0-.9,11.65c5.84-5.86,15-6.46,23.25-6.7a2.08,2.08,0,0,1,1.28.23,2.65,2.65,0,0,1,.78,1.53c.88,2.92,3.85,4.77,6.84,5.4s6.07.28,9.12.27a41.42,41.42,0,0,1,10.1,1.22l1.21-.13c1.13,2.77-2.78,5.6-2,8.48a4.87,4.87,0,0,0,1.72,2.25,17.2,17.2,0,0,0,6.57,3.37c-2.45,2.41-2.78,6.45-1.39,9.59a15.19,15.19,0,0,0,7.28,7c-3.46,1.06-4.7,5.72-3.28,9.05s4.62,5.52,7.8,7.25a66.06,66.06,0,0,0,8.06,3.72l1.67.94c-.09,2.62-.19,5.24-.28,7.86a5.84,5.84,0,0,0,.48,3.19,7.79,7.79,0,0,0,2.72,2.25,12.3,12.3,0,0,1,3.77,4,4.6,4.6,0,0,0,1.48,1.85,4.72,4.72,0,0,0,2.72.21,10.81,10.81,0,0,1,5.74,1.2c-1.81.75-2.17,3.35-1.19,5s2.84,2.65,4.64,3.43a16.06,16.06,0,0,0,5.4,1.54,6,6,0,0,1,1.9.26,4.31,4.31,0,0,1,1.62,1.44c1.64,2,3.37,4.23,5.86,5l5.59,1.89-.61,9.41q-8.38,27.67-18.54,54.76c-3.07,8.19-6.26,16.34-10.08,24.21-2.47,5.08-5.19,10-7.9,15l-12.85,23.36c-5.28,9.6-10.61,19.27-17.64,27.68-19.54,23.39-51.57,34.88-81.9,31.83l-11.88-17.8c-1.59-8.39,1-17.87-3.62-25.06-1.41-2.21-3.41-4-4.61-6.35-1-1.93-1.56-4.35-3.51-5.29a7.52,7.52,0,0,1-1.6-.74,3.56,3.56,0,0,1-1-2.21,32,32,0,0,1-.18-11c.75-4.76,2.57-9.32,3.05-14.12.36-3.61,0-7.37,1.26-10.76,2.13-5.59,8.45-9.18,9.36-15.09l1.27-6.44ZM488.71,2007c12.77-19,25.61-38,41.27-54.64a212,212,0,0,1,43.23-35.23l15.11-7.75a24.41,24.41,0,0,0,11.29,5.48c4.66.86,9.48.35,14.15,1.16a25.83,25.83,0,0,1,17.75,12.34,18.69,18.69,0,0,0,2.9,4.39,7,7,0,0,0,5.77,1.83l.39,1c1.86,2.92-.63,7.1,1,10.15.45.83,1.17,1.48,1.63,2.31a9.27,9.27,0,0,1,.75,4.38,64.68,64.68,0,0,0,6.2,26.4,7.79,7.79,0,0,1,1.05,3.31,2.55,2.55,0,0,1-1.87,2.62l-.48,3.55c-4.26,3.27-8.8,7-10,12.18-.4,1.73-.4,3.57-1.1,5.21a9.3,9.3,0,0,1-4,4.18,16.44,16.44,0,0,1-19-2.06c-.9-.83-1.84-1.82-3-1.83a3.25,3.25,0,0,0-2.73,2.21c-.48,1.15-.59,2.42-1,3.6a10,10,0,0,1-4.92,5.24,29,29,0,0,1-7,2.28l-6.41,5.48a94.72,94.72,0,0,0-8.59,11,25.18,25.18,0,0,0-3.47,6.66,29.22,29.22,0,0,0-.85,8.71l0,15.35a5.05,5.05,0,0,1-.64,3,4.53,4.53,0,0,1-2.18,1.37c-5.55,2-11.63,1.55-17.49,2.21a50.14,50.14,0,0,0-28.37,13.3,57.62,57.62,0,0,0-16,27.08l.85,5.05-6.61,3.89a110.22,110.22,0,0,0-24.44,20.57c-2.18,2.87-31.25,38.31-49.52,68.89l-1.72,6a343.67,343.67,0,0,0,.54,37.43c.17,2.42.47,5.08,2.22,6.75,1,1,2.37,1.46,3.32,2.46,1.39,1.46,1.63,3.65,1.79,5.66,2.52,31.16,5,62.49,2.32,93.63l-4.09,7.75-16.93,7.18-42.81,2c-5.08.23-10.32.51-14.89,2.73-5.45,2.65-9.24,7.71-12.92,12.52a483.47,483.47,0,0,1-126.65,115.52c-25.26,15.86-52.87,30.15-70.26,54.38-6.9,9.61-12,20.56-20.15,29.13s-20.8,14.44-31.84,10.21c-12.06-4.62-17.09-18.77-19.57-31.44-1.9-9.72-3.17-19.71-1.81-29.52,3.92-28.25,28-48.75,50.38-66.42L321.46,2326l2.15-10.47c-.24-4-5.46-5.53-9.5-5.37-9,.38-17.69,3.55-26.4,6a168.35,168.35,0,0,1-121.88-12.67c-15.17-7.91-29.25-18.22-45.53-23.49-20.39-6.61-43.88-5.25-61.36-17.66-7.47-5.32-13.15-12.73-18.71-20-6-7.89-12.09-15.93-15.6-25.2-3.27-8.67-4.14-18-4.92-27.27Q16.49,2152,14.46,2114c-.22-4.14-.38-8.52,1.63-12.15,3.48-6.3,12.41-7.72,19.09-5s11.6,8.38,16.26,13.86l7.71,3.61,1.34,9.77c.35,6.19.86,12.74,4.45,17.8,1.38,1.94,3.17,3.59,4.32,5.67a31.25,31.25,0,0,0,1.85,3.48,12.89,12.89,0,0,0,2.72,2.54l4.41,3.4a2.22,2.22,0,0,0,.82.46,2.28,2.28,0,0,0,1.32-.24,50.53,50.53,0,0,1,34.13-.82l6.75,3.49,24.11-1.63a113.06,113.06,0,0,0,16.12-1.88c6.69-1.44,13-4.1,19.61-6,8.68-2.54,17.7-3.8,26.35-6.45,9-2.75,17.57-7,26.81-8.78,9-1.74,18.24-1.12,27.29.16,12,1.7,23.75,4.51,35.5,7.32l14.53,10L338,2177.73c12.64,12.05,25.65,24.65,32,40.91a225.91,225.91,0,0,1,34.57-31.93l11.64-7.09,6.22.26a91.17,91.17,0,0,0,11.22-10.75l29.64-31.82c1.46-1.56,2.93-3.13,4.28-4.79,5.1-6.21,8.64-13.52,12.14-20.76a58.47,58.47,0,0,0,3.62-8.66,46,46,0,0,0,1.36-15l.38-6.21c-2.54-19.57-2.66-39.37-3-59.11Z"></path>
    <path data-name="8a" data-official="Antirrhinum majus" data-plain="Capsule" data-loc="" d="M1306.22,2839.2c-8.77-13.23-12.3-29.52-11.47-45.37s5.8-31.27,12.87-45.47c3.79-7.61,8.24-15,14.25-21s13.21-10.39,20.41-14.76c11.71-7.11,23.46-14.25,35.84-20.13,6.17-2.93,12.55-5.57,18.12-9.52,2.83-2,5.49-4.39,8.7-5.72,6.55-2.72,14.54-.42,19.46,4.67s7,12.52,6.57,19.59c-.44,7.39-3.35,14.47-3.69,21.86-.36,7.71,2.1,15.3,2.24,23,.17,8.79-2.65,17.33-4.07,26-2.51,15.27-.7,30.88-.5,46.36s-1.46,31.7-10,44.65c-5.22,8-12.92,14.5-16,23.51-2.1,6.07-2.09,13.17-6.33,18-2.66,3-6.57,4.63-10.4,5.93a130.29,130.29,0,0,1-49.33,6.74c-3.25-.19-6.67-.55-9.33-2.43-3.51-2.46-4.9-6.9-6.08-11q-7.3-25.59-14.6-51.19Z"></path>
    <path data-name="8b" data-official="" data-plain="Capsule of A. orontium" data-loc="" d="M1489.9,2869.85c-7-2.45-14.24-5-20-9.71-9.75-8-14-21.48-12.65-34s7.53-24.15,15.55-33.87c7.29-8.84,17-16.76,28.4-17.67,4.56-.36,9.26.41,13.64-.92,4.59-1.39,8.2-4.91,12.5-7a22.5,22.5,0,0,1,24.21,3.24c8,7,10.11,19.05,18.3,25.79,7.58,6.24,20,7.86,23,17.19,2.07,6.33-1.69,13.23-6.72,17.59-4.2,3.64-9.77,6.85-10.57,12.35-.66,4.59,2.37,8.81,3.63,13.27,1.88,6.67-.35,14-4.31,19.65s-9.46,10.09-14.89,14.39c-5.15,4.08-10.37,8.21-16.4,10.82-9.53,4.12-20.35,4.12-30.63,2.64-5.58-.8-11.3-2.1-15.79-5.52s-7.4-9.44-5.68-14.81Z"></path>
    <path data-name="9a" data-official="" data-plain="Flower of Calceolaria" data-loc="" d="M1618.6,2864.64c-7.63-6-9.08-16.86-9.95-26.55-1.48-16.42-2.93-33.13.45-49.27,2.11-10.09,6.11-20.14,4.77-30.35-.9-6.92-4.21-14.08-1.59-20.54,1.46-3.62,4.55-6.28,6.74-9.51,6-8.83,4.68-20.72,8.77-30.57,4.31-10.36,14.1-17.35,24-22.58,8.52-4.49,17.7-8.15,27.31-8.71,23.1-1.36,45.42,18.19,47.11,41.28.54,7.49-.6,15.76,3.8,21.85,3.16,4.37,9.16,7.92,8.23,13.23-.54,3.11-3.4,5.23-4.83,8-2.27,4.45-.65,9.8.87,14.56,5.08,16,8.67,32.55,8.45,49.3s-4.43,33.7-13.88,47.52c-3.16,4.62-6.94,9-8.69,14.3-2.09,6.36-1,13.27-.85,20s-.95,14.14-6.09,18.44c-3,2.51-6.92,3.56-10.72,4.44a216.89,216.89,0,0,1-48.1,5.56c-8.88,0-19.78-1.93-22.58-10.35-2.25-6.78,2.24-13.83,3-20.94a20.31,20.31,0,0,0-7.59-17.73Z"></path>
</svg>
