
<svg xmlns="http://www.w3.org/2000/svg" viewBox="0 0 2143 2966" id="illustration" preserveAspectRatio="xMidYMid meet">
    <title>Lamiaceæ</title>
    <path data-name="1" data-official="Lamium maculatum" data-plain="Spotted Dead-Nettle" data-loc="England" d="M559.42,1919.92a38.8,38.8,0,0,0,18.21,21.44c10.76,5.76,25,7,31.67,17.18,6.28,9.53,2.8,22.18-.87,33-3.51,10.33-7.73,21.55-17.22,27-3.26,1.86-7.51,3.58-8,7.31l3.15,2.67,10.56.71a2.91,2.91,0,0,0,2.27-.49c.48-.48.56-1.22.91-1.8.61-1,1.91-1.36,3.08-1.62,6-1.35,12.14-3.2,16.85-7.19a68.12,68.12,0,0,1,1.81,13.78,36.3,36.3,0,0,1,29.21-4.38,37.8,37.8,0,0,1-1,12.8c6.46.46,12.61-4.08,19-3.18-.43,1.23.6,2.57,1.83,3a8.9,8.9,0,0,0,3.88.07,32.69,32.69,0,0,1,8.67.2,19.22,19.22,0,0,0-2.39,10.18l.84,1.1a43.38,43.38,0,0,1,27.53,8.31c-2.17.43-3.05,3-3.58,5.14s-1.52,4.7-3.71,5a46.19,46.19,0,0,1,26.06,9.76l-.52,1.82-8.15,12.58a1,1,0,0,0-.21.73.91.91,0,0,0,.35.41A50.75,50.75,0,0,1,731,2108.06c.58.92,1.13,2.1.57,3a3.18,3.18,0,0,1-1.42,1.07,30,30,0,0,0-6.75,4.68l-.14,1.48,7.77,10.37c2.18,2.91,4.43,6,4.78,9.62a19.31,19.31,0,0,1-7.2,1.81,13.8,13.8,0,0,1,6.82,11.24,1.63,1.63,0,0,0,.27,1c.61.68,1.76-.13,2.63.14,1.32.42.68,2.44,1.14,3.74s2.19,1.82,3.13,2.92a6.17,6.17,0,0,1,1.1,2.54l2.45,9.25,4.88,3.93c17,10.73,37.37,16.78,51.27,31.32,22.48,23.5,20.72,60.37,17.51,92.73-.75,7.55-1.56,15.31-5.08,22s-10.44,12.23-18,11.75c-5.57-.36-10.41-3.76-14.93-7-28.71-20.84-58.26-42.6-76-73.34-5-8.6-9.29-18.23-17.66-23.59-9.46-6.05-21.62-5.08-32.79-3.9-15.83,1.68-32.5,3.66-45.32,13.12-3.27,2.41-6.3,5.4-7.67,9.22-1.66,4.63-.66,9.75.53,14.51,8.2,32.7,24.8,62.7,34.56,95,6.25,20.66,9.64,42.08,12,63.53,5.11,46,5.65,92.35,6.18,138.62.13,11.78.19,24-4.47,34.78s-13.92,20.25-13.81,32c.05,4.4,1.46,8.72,1.44,13.12-.06,16.24-19,26.09-35.22,26-11.72-.06-26.18-7.05-24.78-18.68,1-8.31,10-14.25,10.13-22.62.06-6-4.55-10.92-7.91-15.93-8.78-13.08-9.86-29.7-10.51-45.44-3.59-86.73-3-175.73-33.37-257.06l-.61-10.6q-31.07-72.69-62.12-145.37c-1-2.41-2.13-4.92-4.16-6.57-5.93-4.79-15.31,1.43-16.85,8.89s1.68,15,3.7,22.31c8.54,31.06-4.53,64.2-22.87,90.67-9.15,13.22-19.79,25.6-32.82,35-13.83,10-29.92,16.32-46,21.95a696.73,696.73,0,0,1-233.85,39c-28.94-.18-58.42-2.28-85.36-12.85-6.93-2.72-14.93-8.73-12.49-15.77,1.06-3.06,3.89-5.11,6.53-7a247.5,247.5,0,0,0,72-81.23l4.22-10.29c16.11-33.09,15.88-72.37,32.44-105.24,13.56-26.94,37.16-47.2,60.27-66.59,21.71-18.21,44.74-36.91,72.5-42.59,5-1,10.43-1.75,14.2-5.2,2.66-2.44,4.1-5.92,5.31-9.32a124.37,124.37,0,0,0,6.18-25.87c.56-4.39.84-9.09-1.19-13-3.16-6.12-10.7-8.4-15.62-13.22-7.07-7-7.62-18.88-2.86-27.58s13.83-14.41,23.35-17.2,19.58-3,29.5-3.08l.48-6.21c-10.56-2.18-16.73-12.92-21.54-22.58l-36.41-73c-1-2-2.07-4.08-3.95-5.27a11.68,11.68,0,0,0-6-1.35c-15.49-.45-32.77,2.65-45.07-6.78-3.2-2.46-5.94-5.72-9.74-7.09-6.68-2.41-13.77,1.8-20.8,2.81-10.05,1.44-19.82-3.79-28-9.8-8.67-6.37-17-14.63-18.79-25.24-2-11.49,4.14-22.72,5.32-34.31.25-2.46.17-5.23-1.54-7-3.24-3.4-9.06-.62-13.6-1.87s-6.81-6.19-6.9-10.76,1.52-9,2.47-13.45c4-18.86-3.91-38-6.31-57.11-1.84-14.72-.39-29.62,1.06-44.38l1.13-6.24c.69-8.83,7.12-16.1,13.82-21.89s14.24-11.06,18.6-18.78,4.27-18.92-2.95-24.06c-10.59-7.52-25.53,3.31-38.05-.17a10.5,10.5,0,0,1-5.67-3.5c-4.54-6,1.38-13.9,4.66-20.64,4.27-8.79,3.81-19,5.44-28.65a65.88,65.88,0,0,1,23.07-39.6c2.52-2,5.31-4.08,6.5-7.11,2.19-5.6-2-11.52-2.85-17.48-.95-7,3-13.87,8.48-18.31s12.22-6.89,18.84-9.25l31.64-11.3a12.74,12.74,0,0,0,5.07-2.73c2.4-2.48,2.38-6.34,2.59-9.79,1.31-22.11,18.09-41.09,38.15-50.48s42.93-10.69,65.07-9.94c4.32.15,9,.51,12.27,3.32,2.36,2,3.62,5,4.59,8,3.58,10.91,6.13,24.79,17.11,28.15,5.52,1.7,12.6.36,16.17,4.89,2.47,3.12,1.93,7.53,2.39,11.48.86,7.22,5.36,13.42,9.71,19.25l26.25,35.2a14.8,14.8,0,0,0,4.62,4.6c6.62,3.5,15-4,21.89-1.13l7.55.88a24.82,24.82,0,0,1,8,1.59,9.19,9.19,0,0,1,2.21,1.12A11.19,11.19,0,0,1,450,1401a9.14,9.14,0,0,1,1.61,3c.49,2-.38,4-1.43,5.75l-.52,3.63c-1.93,3.2-.91,7.27-.12,10.93a71.11,71.11,0,0,1,.61,26.73l6.52,8.7c10.18,5.91,22.45,6.42,34,8.46,17,3,33.22,9.49,49.26,16,7.58,3,15.32,6.21,21.4,11.66,10.47,9.38,14.31,23.84,18.86,37.15a240.54,240.54,0,0,0,24.38,50.86c2.09,3.29,4.29,7.57,2.13,10.82-1.16,1.75-3.27,2.57-5.27,3.19-5.78,1.79-11.83,2.71-17.4,5.06s-10.82,6.51-12.45,12.34c-1,3.46-.58,7.19-1.5,10.66-2,7.3-9.15,11.94-12.59,18.66-4.56,8.89-1.88,19.77-4.35,29.44-1.38,5.39-4.35,10.33-5.16,15.83-1.75,11.9,6.88,23.94,3.63,35.52l-1.82,6.28,1.71,23.09a7.33,7.33,0,0,1-.2,3.06,7.43,7.43,0,0,1-1.6,2.31l-5,5.55c-2.27,2.51-4.66,5.11-7.83,6.3-.44.17-.94.35-1.13.78a1.5,1.5,0,0,0,.19,1.24c.8,1.53,2.17,2.68,3.17,4.08s1.59,3.38.66,4.83c-2,3.11-8,.3-10.1,3.34-1,1.45-.49,3.43.13,5.08a74.42,74.42,0,0,0,7.69,15,22.38,22.38,0,0,1-12.9,1.48l-.39.16a67.45,67.45,0,0,1,5.48,30.94,18.4,18.4,0,0,0-11.25-3.39,78.84,78.84,0,0,1,12.06,28.84,14.75,14.75,0,0,1-5.21-.36c1.55,2.63,1.2,6.07,2.84,8.64a11.58,11.58,0,0,0,3.66,3.26A64.63,64.63,0,0,0,544,1882a16.6,16.6,0,0,0,1.33,7.19Z"></path>
    <path data-name="1a" data-official="" data-plain="Flower opened" data-loc="" d="M256.63,2823.51c-3.57-5.6-1.89-13.74-6.41-18.6-3.76-4-10.19-3.94-15.52-2.55s-10.57,3.81-16.07,3.43c-6-.42-11.16-4.07-16-7.59-17.68-12.84-37-28.4-38.81-50.18-1.77-21.18,15.3-40.75,35.6-47.07,7.8-2.43,18.23-6,17.51-14.11-.19-2.13-1.23-4.07-2-6.08a22.54,22.54,0,0,1,25.56-29.89c1.88.38,3.9,1,5.63.15,3.61-1.73,2.26-7.14.37-10.67-8.8-16.43-18-35.44-11.49-52.89,3.82-10.19,12.41-17.73,20.88-24.56,9.17-7.39,19.16-14.73,30.84-16.25,12.15-1.57,24.21,3.45,34.75,9.69,12.13,7.18,23.46,16.4,30.49,28.62s9.18,27.81,3.11,40.53c-5.8,12.15-18.37,20.8-21.4,33.92,6.39-1.66,13.07,2.93,16,8.83s3.11,12.75,3.2,19.35c.25,19.17.46,38.65-4.73,57.1-3.25,11.59-8.59,22.56-11.35,34.28-4.45,18.92-2,38.92-6.19,57.89-1.3,5.89-3.25,11.72-3.21,17.74.09,13.24,9.71,25.51,7.86,38.62-1.25,8.85-7.73,16.31-15.53,20.67s-16.78,6-25.66,7a194.78,194.78,0,0,1-25.9,1.16c-6.14-.13-13.32-1.17-16.32-6.54-1.51-2.7-1.58-6-1.39-9.05,1.37-21.35,13.57-43.44,4.84-63Z"></path>
    <path data-name="1b" data-official="" data-plain="Calyx" data-loc="" d="M404.19,2848.1c3.56-21.73,6.85-45.26-3.38-64.76-5.68-10.81-15.2-19.58-19-31.2a6.88,6.88,0,0,1-.32-4.44c.7-1.93,2.79-2.94,4.72-3.64a50.15,50.15,0,0,1,44.71,5.8c7.14,4.93,13.31,11.91,21.74,14s17.1-1.22,25.73-1,18.65,7.09,16.2,15.36c-1.73,5.85-9,9.19-9.57,15.27-.77,8.63,11.58,11.61,16.45,18.79,4.35,6.42,1.37,16.07-5.2,20.2s-15.43,3.31-22.13-.6c-3.38,1.36-4.12,5.78-4,9.42.44,18.66,8.74,38.9-.82,54.93-7.05,11.82-21.5,16.73-34.93,19.76-9,2-19.79,3.19-26.38-3.33-5.66-5.61-5.79-14.7-4.38-22.54s4-15.82,2.39-23.63Z"></path>
    <path data-name="1c" data-official="" data-plain="Calyx and Ovary" data-loc="" d="M550.46,2848a74.52,74.52,0,0,0,12.19-11.22c4.53-5.2,8.5-11.86,7.17-18.63-1.42-7.16-8.3-11.9-15.1-14.55s-14.24-4.1-20.15-8.38a9.25,9.25,0,0,1-3.39-3.85c-1.45-3.64,1.33-7.8,4.86-9.5s7.6-1.66,11.5-2a57.81,57.81,0,0,0,16.91-4.49c8.15-3.49,16.18-9.49,18-18.17,1.32-6.34-.93-12.82-3.27-18.86s-4.84-12.36-4-18.79,6.31-12.77,12.74-12c6.19.75,9.84,7.17,12.33,12.89C605.72,2733,610.44,2746,615.1,2759c1.94,5.41,4.07,11.11,8.55,14.72,8,6.4,19.53,3.71,29.51,1.54,4.58-1,10-1.61,13.4,1.6,3.11,2.91,3.18,8.06,1.16,11.81s-5.66,6.33-9.37,8.41c-5.63,3.15-11.87,5.59-16.26,10.31-6.7,7.2-7.56,18.27-5.21,27.82s7.41,18.18,11.41,27.17c1.35,3,2.6,6.24,2.51,9.56s-1.84,6.81-4.95,8-6.51-.13-9.79.1c-4.37.3-8.11,3.29-10.91,6.66s-5,7.25-8,10.39c-9.07,9.34-23.55,10.28-36.57,10-6.46-.13-14.08-1.07-17.18-6.74-2.77-5.07-.44-11.25.82-16.89s.24-13.2-5.33-14.73c-3.27-.9-7,.79-10.09-.51-2.71-1.13-4.14-4.25-4.16-7.19s1.09-5.74,2.19-8.46Z"></path>
    <path data-name="2" data-official="Salvia patens" data-plain="Spreading-flowered Salvia" data-loc="South America" d="M1297,2455.35c3,32.45,1.83,65.21-2,97.57-1,8.92-2.58,18.41-8.66,25-4,4.41-10,7.44-12,13.11-1.39,4.12-.25,8.66-1,12.95a18.41,18.41,0,0,1-8.1,11.82,31.56,31.56,0,0,1-13.82,4.72c-6.63.83-14.46-.28-18-6-3.73-6-.81-13.79-1.59-20.81a19.64,19.64,0,0,0-5.59-11.62c-2.29-2.29-5.26-4.15-6.41-7.18a14.27,14.27,0,0,1-.64-5.05,689.68,689.68,0,0,1,3.27-71.28l1.87-2.06a16.27,16.27,0,0,1,4.67-4.93c1.46-1,3.24-2,3.53-3.71l.08-3.74c.63-5,4.91-8.74,9.24-11.35s9.16-4.74,12.32-8.7a29,29,0,0,0,3.7-6.73c1.48-3.4,2.91-7,2.83-10.67a12.84,12.84,0,0,1,8.12,6.58c3.57-1.34,5-6.14,8.67-7.22,2.33-.69,4.79.39,7,1.44,2.59,1.24,5.17,2.48,7.7,3.83Zm-264-828.91c9.66,1.23,18.36-8.51,28-6.84a47.76,47.76,0,0,0-1,17.94,78,78,0,0,1,50.91-24l.38,11.68a42.52,42.52,0,0,1,29.17-13.27c3.11-.11,6.38.09,9.12-1.38.87-.46,1.66-1.09,2.57-1.5,2.06-.94,4.45-.65,6.7-1a12.25,12.25,0,0,0,6.91-3.46l.11.77a34.87,34.87,0,0,1-3.08,17.92l19.46-11.79a11.72,11.72,0,0,0,3-2.35,14.82,14.82,0,0,0,1.65-2.8c4.34-8.32,12.67-13.67,20.64-18.63,1.44-.9,3.07-1.84,4.74-1.51,2,.4,3.19,2.43,4.2,4.22a70.3,70.3,0,0,0,27.84,27.33l4.92,3.17c3.74,2.66,8.54,3.25,13.13,3.47s9.31.17,13.59,1.83c2.33.9,4.46,2.29,6.83,3.1,4,1.35,8.3,1,12.42.26s8.21-1.84,12.4-2a26.73,26.73,0,0,1,18.87,7.15c1.89,1.77,3.56,3.85,5.81,5.13l1.93,3.71a44.55,44.55,0,0,1,22.24,3.17,11.7,11.7,0,0,0-4.33,7.21q15.47-.91,30.94-1.48c3.61-.13,7.37-.22,10.65,1.29,1.69.77,3.17,1.94,4.79,2.86a36.94,36.94,0,0,0,7.85,3,77.63,77.63,0,0,0,9,2.31c8.53,1.48,17.55.12,25.75,2.91a4.38,4.38,0,0,0,3.18.3l9.38-1.67c18.22-2.7,32-17.34,44-31.32q10.23-11.9,20.22-24c8.56-10.38,17.08-21,22.81-33.18,9.53-20.26,10.7-43.36,10.62-65.76,0-10.72-.33-21.54-2.74-32s-7.06-20.63-14.76-28.1c-8.59-8.33-20.29-12.74-29.39-20.52-2-1.73-4.08-4.2-3.37-6.77.91-3.27,5.29-3.78,8.69-3.62l76,3.46,15.86-13.42c5.5-15.62,16.49-30.11,32-35.95l.22-2.38c-5.53-3.64-8.23-10.43-13.44-14.52a53.07,53.07,0,0,0-6.67-4c-4.46-2.54-8.55-5.68-13-8.27s-9.36-4.62-14.49-4.63l-4.7-6.59c-12.14-15.26-38.25-9.74-52.8-22.72-9.44-8.43-11.4-22.35-11.35-35s1.41-25.84-3.54-37.49c-1.08-2.56-2.48-5.38-1.48-8,1.69-4.41,7.92-3.84,12.59-4.57,9.82-1.54,15.94-12,17-21.89s-1.39-19.81-1.56-29.75c-.05-3.53.38-7.48,3.09-9.74,3.34-2.79,8.28-1.63,12.63-1.65a21.49,21.49,0,0,0,17.62-9.68c2.38-3.7,3.58-8.1,6.22-11.63,4.94-6.6,14.15-8.81,22.31-7.56s15.55,5.37,22.74,9.42l14.08-1.22a160.94,160.94,0,0,1,48.51,16.7,11.22,11.22,0,0,1,4,3.08,10.24,10.24,0,0,1,1.51,4.53,43.56,43.56,0,0,1-.6,16c-.7,3.11-1.75,6.32-1,9.41a13.8,13.8,0,0,1,.65,2.72,10.28,10.28,0,0,1-.73,3.25c-2.08,6.84.93,14.25,5.11,20.06,1.94,2.69,4.27,5.76,3.4,9a8.16,8.16,0,0,0-.53,2.08c0,1.14.79,2.09,1.34,3.08,1.41,2.56,1.24,5.68,2.1,8.48,1.91,6.12,8.79,9.69,15.2,9.43s12.3-3.59,17.35-7.55l1,.44c3.08,11.73.58,24.29-3.92,35.55-2.68,6.7-6.09,13.2-7.33,20.3-1,5.82-.54,11.78,0,17.66.4,4.85.88,9.9,3.37,14.09,1.76,3,4.4,5.27,6.53,8,4.93,6.27,6.89,14.28,9.76,21.72s7.35,15,14.81,17.86l3.21,1.63a129.53,129.53,0,0,0,81.56,21.32l7.41,1.75c21.24-2.64,41.12-11.55,60.63-20.36,5.71-2.58,11.5-5.2,16.32-9.2,14.32-11.87,16.92-32.59,17.18-51.18a401.4,401.4,0,0,0-3.35-57.46c-1.57-12-3.85-24.33-10.68-34.31-8.22-12-21.83-18.93-32.81-28.47-7.49-6.5-13.79-14.26-21.17-20.89s-16.24-12.25-26.12-13.1c-5.26-.46-10.53.46-15.81.48-16.18.06-31.08-8.18-45.14-16.19l-8.62-5q-5.74-3.48-11.69-6.61a33.93,33.93,0,0,0-6.7-2.9c-1.78-.5-3.63-.74-5.39-1.33a34.58,34.58,0,0,1-5.82-3,38.27,38.27,0,0,0-10.07-4.19c-2.17-.5-4.4-.73-6.56-1.31-4.16-1.1-7.89-3.42-11.54-5.7l-1.94-3.19c-3.14-3.53-4.65-8.26-5.08-13a66.64,66.64,0,0,1,.71-14.1l4.58-3.73a79.69,79.69,0,0,0,35.25-5.1c1.88-.74,3.85-1.56,5.85-1.28a13.12,13.12,0,0,1,4.7,2.13,38.3,38.3,0,0,0,12.08,4.65l2.48,3.25a8.74,8.74,0,0,1,9.91,8c.07,2.35-.85,4.6-1.36,6.89-2,8.91,2.24,18.26,8.52,24.89,4.13,4.35,9.2,7.93,12.34,13,3,4.84,4.33,11.13,9.22,14a9.92,9.92,0,0,0,10.34-.33c1.6-1.08,2.84-2.62,4.36-3.8,4.57-3.58,11.1-3.54,16.64-1.83s10.54,4.85,15.89,7.09c4.72,2,10.44,3.16,14.7.35,3.69-2.44,5.31-7.29,9.13-9.52,4.16-2.43,9.37-1,14.13-.19,11.15,1.85,24.06-1.26,30.15-10.78,2.64-4.11,3.76-9,4.65-13.79,1.89-10.25,2.83-21.16-1.11-30.81a62.52,62.52,0,0,0-6.54-11.27c-10.76-15.82-22.09-31.42-36.08-44.46s-30.93-23.48-49.68-27.27c-8.59-1.73-17.4-2.05-26.16-2.36l-30.72-1.08-7.35-.21c-2.94-.16-6.21-.23-8.44,1.7-1.55,1.34-2.3,3.43-3.85,4.78s-4,1.84-6.21,2.19a191.8,191.8,0,0,0-26,6.06c-2.61.8-5.36,1.67-8,1.06-1.54-.35-2.92-1.17-4.43-1.63a19.32,19.32,0,0,0-7.47-.23l-8.41-3.09L1608,1030.17c-6.23.76-13.06,1.41-18.31-2-3-2-5.11-5-8.18-6.83s-6.74-2.15-10.28-2.36a189.76,189.76,0,0,0-48.16,3.32c-6,1.19-11.91,2.67-18,2.62-5.51,0-10.92-1.34-16.24-2.79-3.4-.92-7.47-2.73-7.57-6.26-.07-2.19,1.55-4.06,3.22-5.48,4.3-3.66,9.54-6,14.53-8.62,13.45-7.09,25.85-17.1,32.94-30.55s8.08-30.69,0-43.54l-16.64-12.55c-13.39-8-24.1-19.67-34.6-31.19-2.66-2.91-5.33-5.84-7.72-9a24,24,0,0,1-3.88-6.79c-1.24-3.77-.89-7.85-.52-11.8a12.4,12.4,0,0,0,16.59-11.17c.16-3.69-1.33-7.44-.39-11l-.75-10.92c3.24-23-11.92-44.29-16.77-67-3.25-15.21-2.38-32.53-12.64-44.21-8.12-9.24-21.37-12.31-33.66-11.83-4.43.18-9.22.66-13-1.72-3.32-2.12-5-6-5.94-9.87-5-20.8,7.38-41.66,21-58.12,6.91-8.31,15.75-16.89,26.55-16.49a11.3,11.3,0,0,1,7.53,2.78c2.31,2.22,3.06,5.61,3.2,8.81.32,7.42-2.06,14.66-3,22s0,15.69,5.43,20.72c7.55,6.94,19.62,4.28,29,.13,17.48-7.71,34.06-20.13,40.9-38l-1.87-18.14a16.93,16.93,0,0,1-5.5-3.51,13.08,13.08,0,0,0-2.25-2,5,5,0,0,0-4.61-.23l-1.25-6.22c4.26-3.38,6.62-8.71,7.48-14.08s.39-10.86-.09-16.27a2.07,2.07,0,0,0-.55-1.48c-.46-.38-1.14-.29-1.72-.44-1.69-.45-2-2.69-1.94-4.44l.68-25.76.63-1.55a48.85,48.85,0,0,1,25.77-14.06,82.66,82.66,0,0,0-14-6l-21.7-7.85-4.6-2.14q-30.65,3.56-61.43,5.8a7.16,7.16,0,0,1-4.4-.63,6.46,6.46,0,0,1-2.22-3.15c-4.45-10.75-3.21-22.85-3.09-34.48s-1.46-24.37-9.83-32.44c-4.86-4.68-12.13-8.16-13-14.85-.56-4.18,1.86-8.37,5.3-10.81s7.74-3.38,12-3.68c11.39-.82,22.71,2.6,34.12,2.32a7,7,0,0,0,3.89-.92,6.64,6.64,0,0,0,2-2.9c3.85-8.9,2.54-19.38-1.46-28.21s-10.44-16.31-17-23.45c-5.06-5.5-10.39-11-17-14.42-4.36-2.25-9.87-4.34-10.79-9.17l5.15-8.26a229.34,229.34,0,0,0,18.18-50.56c2.59-11.13,4.08-23.75-2.4-33.17-4.12-6-11.12-10.05-13.5-16.93-6.69-19.36,28.19-36.21,19.73-54.87-2.31-5.1-7.37-8.27-11.34-12.22s-7-10.19-4.16-15a18.57,18.57,0,0,1,4.2-4.29c22.83-19.62,20.75-54.94,16.73-84.78-1.33-9.87-3.2-20.75-11-27-6.88-5.54-16.49-5.83-25.3-5.38-30,1.56-63.92,12.54-74.66,40.55-2.86,7.46-3.79,15.6-7.18,22.84s-10.39,13.77-18.34,13c-4.74-.49-8.92-3.5-13.65-4.09-12.68-1.58-20.49,13.81-21.56,26.54s-.21,27.5-9.79,36-24,5.81-36.68,4.83a113.92,113.92,0,0,0-86.13,30.62c-3.56,3.4-7,7.15-8.73,11.75-3.65,9.62,1,20.69,8.24,28s16.69,11.92,25.39,17.41c2.39,1.51,5,3.42,5.38,6.22.64,4.29-3.88,7.29-7.23,10.06-13.92,11.53-12.78,32.84-10.41,50.76,5.43,41,11.73,84.11,37.19,116.67,10.08,12.88,23,23.94,29.39,39,1,2.27,1.75,4.82,1,7.17-1.25,3.82-5.85,5.18-9.78,6.05-33.11,7.33-65.59,19.46-93,39.43s-49.52,48.25-58.21,81l1.56,13.2c-5.16,20.68,4.59,42.06,16.08,60a6.19,6.19,0,0,1,1.35,3.64c-.16,2.12-2.35,3.39-4.27,4.32a461.24,461.24,0,0,0-59,33.94c-10.62,7.2-21.39,15.39-26.55,27.14-3.33,7.56-4,16-4.4,24.25-.73,16.52-.17,33.58,6.38,48.77,9.72,22.56,31.24,37.8,53.34,48.53,2.57,1.25,5.37,2.66,6.55,5.27,1.39,3.11-.13,6.86-2.55,9.26s-5.6,3.85-8.5,5.64c-17.19,10.62-23.31,35.81-12.89,53.13,3.32,5.52,8.21,11.78,5.46,17.6-1.08,2.3-3.18,3.92-5.21,5.44l-19.92,15-2.89,9.35c-3.08,6.12-6,12.36-7.66,19-2.57,10.67-1.52,21.83-.46,32.76a11,11,0,0,0,1.15,4.61c2,3.41,6.84,3.55,10.81,3.28l3.14,2.58c1.91.83,3.81,2.45,3.74,4.53-.06,1.93-1.84,3.42-3.69,4s-3.83.41-5.75.61a10.5,10.5,0,0,0-6,2.38,6.13,6.13,0,0,0-2,5.9c.46,1.81,1.88,3.19,3.24,4.47l2.61,2.46-.43,5c1.51,6.87,4.18,13.42,6.84,19.93,1.35,3.3,2.85,6.79,5.8,8.78s6.86,2.07,10.39,2.89a46.75,46.75,0,0,1,8.37,3.09c3.58,1.6,7.22,3.22,10.27,5.7s5.49,6,5.87,9.86l3.18,4.38c.88,6.94-2.47,14.07-7.92,18.46s-12.75,6.14-19.72,5.53l-4.1-1.24c-6.66-1-13.6-2-20,0l-.38,2.8a144,144,0,0,0-29.15,27.61A63.15,63.15,0,0,0,975,1205.7c-1.4,3.4-2.34,7-3.79,10.38-1,2.44-2.35,4.78-3.25,7.28a47.59,47.59,0,0,0-1.7,6.67l-2.88,14v3.38a4.68,4.68,0,0,1,5,1.85,12.69,12.69,0,0,1,2,5.23,16.32,16.32,0,0,0,1.77,5.34c1.2,1.9,3.16,3.15,4.76,4.72a15.78,15.78,0,0,1,4.63,10.48l1.4,5c3.18,4.23,6.52,9.09,5.76,14.32-.59,4-3.42,7.17-5.41,10.66a26.93,26.93,0,0,0-2.68,19.73l.45,4.65a22.8,22.8,0,0,0,3.47,8.91l1.69,4.22c5.69-1,12-1.81,16.82,1.35a14.89,14.89,0,0,0,3.41,2.09c1.9.62,4,0,6-.1,3.89-.11,7.55,2.08,11.44,2.16s7.9-1.91,11.45-.38c2.74,1.18,4.33,4.15,7,5.56,2.09,1.11,4.57,1.1,6.93,1a79.4,79.4,0,0,0,13.46-1.94c.24,2.8-1.23,5.45-2.85,7.74a47.3,47.3,0,0,1-17.24,14.84,13.3,13.3,0,0,0-4.18,2.7c-1.49,1.67-1.89,4-2.69,6.11-1.92,5.06-6.22,8.77-10.06,12.59s-7.54,8.45-7.69,13.87a5.41,5.41,0,0,0,.55,2.78,5.21,5.21,0,0,0,2,1.87c3.95,2.38,9,2,13.42.73s8.54-3.54,13-4.79c10.23-2.88,21.1-.44,31.72.08a21.73,21.73,0,0,0,9.22-1.06c3.55-1.43,6.21-4.41,8.74-7.29l8.68-1.83c24.6-1.14,50.48-2,72.42,9.17-35.72,11.26-66.09,34.73-95.63,57.75-15,11.68-30.09,23.48-42.23,38.08-3,3.61-5.86,7.46-7.41,11.89-2,5.7-1.7,12-3.53,17.73-2.87,9-10.5,15.55-16,23.25-12.26,17.24-13.15,41.82-2.18,59.9Z"></path>
    <path data-name="2a" data-official="" data-plain="Ovary and Disk" data-loc="" d="M743.19,2844.8l11-26.08a21.37,21.37,0,0,0,1.82-5.8c.32-2.74-.42-5.48-1.13-8.15-2.73-10.2-5.19-20.65-4.67-31.2s4.37-21.35,12.43-28.18c8.21-7,19.68-8.93,30.42-8.15,15.26,1.12,31.4,8.69,36.89,23,3.21,8.36,2.32,17.71.49,26.47C827.84,2799.2,823,2812,813,2820c-5.93,4.73-13.26,7.42-19.34,12-10.34,7.73-16.23,20.28-18.47,33-.49,2.74-.78,5.74.61,8.16,2.61,4.51,9,4.27,14,6a16.56,16.56,0,0,1,10.84,16.57c-.49,6-4.38,11.3-9.29,14.74s-10.8,5.24-16.66,6.54a119.83,119.83,0,0,1-33.94,2.55c-5.13-.35-10.75-1.3-14-5.25-2.18-2.62-2.94-6.15-3.12-9.56a34.33,34.33,0,0,1,9-24.72c3.22-3.48,7.31-6.51,8.79-11,2-6.26-1.66-13.2-.06-19.58Z"></path>
    <path data-name="3" data-official="Galeobdolon luteum" data-plain="Yellow Weasle-Snout" data-loc="England" d="M751,2174.93l-4.88-3.93-2.45-9.25a6.17,6.17,0,0,0-1.1-2.54c-.94-1.1-2.65-1.55-3.13-2.92s.18-3.32-1.14-3.74c-.87-.27-2,.54-2.63-.14a1.63,1.63,0,0,1-.27-1,13.8,13.8,0,0,0-6.82-11.24,19.31,19.31,0,0,0,7.2-1.81c-.35-3.61-2.6-6.71-4.78-9.62l-7.77-10.37.14-1.48a30,30,0,0,1,6.75-4.68,3.18,3.18,0,0,0,1.42-1.07c.56-.93,0-2.11-.57-3a50.75,50.75,0,0,0-11.29-12.67.91.91,0,0,1-.35-.41,1,1,0,0,1,.21-.73l8.15-12.58.52-1.82a46.19,46.19,0,0,0-26.06-9.76c2.19-.29,3.18-2.84,3.71-5s1.41-4.71,3.58-5.14a43.38,43.38,0,0,0-27.53-8.31l-.84-1.1a19.22,19.22,0,0,1,2.39-10.18,32.69,32.69,0,0,0-8.67-.2,8.9,8.9,0,0,1-3.88-.07c-1.23-.43-2.26-1.77-1.83-3-6.42-.9-12.57,3.64-19,3.18a37.8,37.8,0,0,0,1-12.8,36.3,36.3,0,0,0-29.21,4.38,68.12,68.12,0,0,0-1.81-13.78c-4.71,4-10.83,5.84-16.85,7.19-1.17.26-2.47.6-3.08,1.62-.35.58-.43,1.32-.91,1.8a2.91,2.91,0,0,1-2.27.49l-10.56-.71-3.15-2.67c.45-3.73,4.7-5.45,8-7.31,5.24-3,8.87-7.74,11.66-13.14l4.45,1.77,9.92-5.54c6.51-3.64,13.08-7.29,20.16-9.65,12.21-4.06,25.34-4.07,38.22-4l5.84,2.14a133.65,133.65,0,0,0,38.91,4.31,19.88,19.88,0,0,1-8.38,9.24l21,3.28c6.77,1.06,14,2,20.16-1.06a6,6,0,0,1-.5,5.4c13.12,2.48,27.12,4.87,39.47-.21a52.2,52.2,0,0,0-.4,9.68c5.09-.5,10-2.07,14.87-3.63l16.9-5.42,2.21-.75a16.45,16.45,0,0,0,6-6l3-6.13a1749.53,1749.53,0,0,0-77.42-254.2l-2.18-.46a29.14,29.14,0,0,1-9,6c-2.64,1.12-5.46,1.85-7.89,3.36a14.65,14.65,0,0,0-6.69,14c-3.64-5.91-1.62-13.78,2.2-19.58s9.23-10.4,13.07-16.18c1-1.52,1.89-3.63.74-5.06-1.33-1.66-4.16-.69-5.41,1s-1.63,4-2.86,5.69c-3.27,4.61-10.69,3.9-14.75,7.83-5.59,5.4-1.61,15.7-6.17,22-2.08,2.86-5.55,4.31-8.83,5.63l-1,.18a15.77,15.77,0,0,0-1.6-20.75c-4.23,4.41-8.78,9-14.71,10.52-3.62.92-7.42.59-11.14.25l-12.17-1.09c5.24-1.27,10.52-2.64,15.24-5.23s8.9-6.54,10.7-11.62c-6.55.2-13.21.38-19.55-1.25s-12.45-5.38-15.42-11.22c-3.83-7.54-1.9-17.2-6.38-24.37l-17.38-10.8c.1-9.26,10.35-14.62,15.35-22.41a3.74,3.74,0,0,0,.78-2.41,4.05,4.05,0,0,0-1.19-2c-4.35-4.83-9.89-10.11-16.3-9-2.37.4-4.49,1.63-6.64,2.68a45.43,45.43,0,0,1-59.3-18.19l-4-7c2.32-2.76,4.41-5.61,5.33-9.06s.53-7.2,1.5-10.66c1.63-5.83,6.88-10,12.45-12.34s11.62-3.27,17.4-5.06c2-.62,4.11-1.44,5.27-3.19,2.16-3.25,0-7.53-2.13-10.82l5.85-8.25c8.17-18.09,28-30.23,47.84-29.24L638.18,1502c-2-4.45-4.12-9-7.67-12.36-6.89-6.51-17.35-6.93-26.83-7.07-22.79-.35-45.74-1.32-67.89-6.69L523,1477.42a183.85,183.85,0,0,0-32.33-9.3c-11.59-2-23.86-2.55-34-8.46l-6.52-8.7a71.11,71.11,0,0,0-.61-26.73c-.79-3.66-1.81-7.73.12-10.93l.52-3.63c1.05-1.73,1.92-3.78,1.43-5.75l6.34-1.29c3.91-4,9.32-6.12,14.55-8.12l27-10.29c5.66-2.16,11.78-4.7,14.72-10,4.17-7.51-.17-17.3-6.9-22.63a20.42,20.42,0,0,0-11.86-4.82c-6.23-.17-11.93,3.51-16.4,7.85s-8.15,9.46-13,13.41a35.82,35.82,0,0,1-17.76,7.72c-4.89.65-10,.31-14.63,2s-8.79,6.37-7.57,11.16l3.71,5.79c-6.92-2.86-15.27,4.63-21.89,1.13a14.8,14.8,0,0,1-4.62-4.6L377.05,1356c-4.35-5.83-8.85-12-9.71-19.25-.46-4,.08-8.36-2.39-11.48l2-13.83c-1.11-16.7-1.57-35.41,9.64-47.84,4.61-5.11,10.74-8.54,16.36-12.52a96,96,0,0,0,14.49-12.6c1.86-2,3.72-4.22,4-6.92.51-4.39-3.11-8-6.2-11.18a82,82,0,0,1-22.63-63.07c.34-4,1-8.14,3.16-11.56,6.51-10.4,22.75-9.7,31-18.81a3.35,3.35,0,0,0,.78-1.22c.63-2.17-2.55-3.2-4.81-3.28a49.1,49.1,0,0,1-23.55-7c-5.84-3.53-10.95-8.29-17.21-11a30.1,30.1,0,0,0-25.34.8c-6.32,3.23-12.9,8.91-19.51,6.34-4-1.57-6.43-6-6.65-10.37s1.37-8.56,3.29-12.45a70.54,70.54,0,0,1,46.46-36.89l8.18-4.82,27.58-2.37a12.23,12.23,0,0,0,4.29-.9c3.09-1.49,4.31-5.16,5.34-8.43,3.73-11.83,9.16-23.67,18.77-31.52s24.24-10.6,34.54-3.68a16.68,16.68,0,0,1,5.78,6.31c3,6.15.87,13.45-1,20.06a182.73,182.73,0,0,0-6.61,42.26c-.67,17.79,2.05,37.31,15,49.54a9.68,9.68,0,0,0,4.8,2.85c2.47.42,4.86-.86,7-2.09,5.75-3.26,11.65-6.65,15.76-11.83,7.76-9.78,7.64-23.9,14.58-34.28,9.56-14.32,29.4-17.54,42.05-29.23,4.41-4.08,7.89-9.16,12.67-12.8a28.3,28.3,0,0,1,19.68-5.59,10.38,10.38,0,0,1,5.62,1.9c2.15,1.72,2.94,4.59,3.42,7.3,2.93,16.82-2,33.91-6.81,50.28l.15,6.26c.28,2.76.52,5.71-.77,8.17-.38.71-.87,1.35-1.24,2.07a6.77,6.77,0,0,0-.28,5.47,1.69,1.69,0,0,1,.16.66,1.4,1.4,0,0,1-.4.79,31.45,31.45,0,0,0-2.54,2.89,3.88,3.88,0,0,0-.57,3.64l3.25,9.39c-2.67,12.7-11.2,23.2-18.13,34.17a14.36,14.36,0,0,0-2.37,5.26c-1.11,7,7.47,12.39,7.29,19.47-.11,4.31-3.44,7.77-6.56,10.75-4.45,4.27-8.93,8.57-14.08,12-3.3,2.19-7,4.12-9.15,7.44a3.19,3.19,0,0,0-.62,2.8c.54,1.35,2.33,1.55,3.79,1.6,12.13.48,23.6,6.41,35.74,6.59a7.32,7.32,0,0,0,3.91-.74c1.31-.78,2.06-2.21,3-3.45,7-9.82,23.51-8.21,30.93-17.76l7.28-3.5a2.72,2.72,0,0,0,1.22-1.09,11.47,11.47,0,0,1,12-4l3,2.53a53.56,53.56,0,0,1,11.68,41.12l1.18,8.42a38.28,38.28,0,0,1-3.4,16.7c-2.06,4.56-5,8.74-6.35,13.57a6.63,6.63,0,0,0-.24,3.12c.35,1.54,1.59,2.69,2.75,3.77A103.17,103.17,0,0,1,675,1298.33a26.09,26.09,0,0,0,4.45,5.3,22.3,22.3,0,0,1,2.67,2.16,7.84,7.84,0,0,1,1.72,6.09,23.28,23.28,0,0,1-1.83,6.24L675.84,1329a100.81,100.81,0,0,0,6.53,22.17,26.56,26.56,0,0,0,3.79,6.76c4.23,5.08,11.27,6.89,17.89,7.17s13.27-.66,19.83.23c5.21.7,10.19,2.54,15.12,4.37,11.7,4.33,23.47,8.7,34.14,15.17a98.68,98.68,0,0,1,27.37,24.61,6.29,6.29,0,0,0,1.88,1.86c1.92,1,4.21-.23,6-1.45l20.16-13.66,5.25-2.16c2.54-4.07,5.77-8.59,10.56-9,3.71-.3,7.18,2.07,10.91,2.15,1.12-3.58,5.18-5.15,8-7.62a47.61,47.61,0,0,0,4.83-5.66,62.51,62.51,0,0,1,4.79-5,3.5,3.5,0,0,1,1.23-.87c1.78-.61,3.11,1.69,4.85,2.42,2.54,1.08,5.06-1.38,7-3.32,4.67-4.59,10.86-7.34,17.18-9,2.31-.62,4.81-1.22,6.38-3s1.83-4.69,2.67-7.09,3.23-4.82,5.61-3.9l4.63-1.83a58.55,58.55,0,0,0,25.53-7.06c4-2.19,8.34-5,12.81-4,2.77.62,5,2.62,7.74,3.51,3.91,1.3,8.16.16,12.11-1l3.81,4.47,1.69,4.22c5.69-1,12-1.81,16.82,1.35a14.89,14.89,0,0,0,3.41,2.09c1.9.62,4,0,6-.1,3.89-.11,7.55,2.08,11.44,2.16s7.9-1.91,11.45-.38c2.74,1.18,4.33,4.15,7,5.56,2.09,1.11,4.57,1.1,6.93,1a79.4,79.4,0,0,0,13.46-1.94c.24,2.8-1.23,5.45-2.85,7.74a47.3,47.3,0,0,1-17.24,14.84,13.3,13.3,0,0,0-4.18,2.7c-1.49,1.67-1.89,4-2.69,6.11-1.92,5.06-6.22,8.77-10.06,12.59s-7.54,8.45-7.69,13.87a5.41,5.41,0,0,0,.55,2.78l-5.86,6.44c-3.57,3.93-7.19,7.92-9.6,12.66-1.76,3.44-2.84,7.22-4.85,10.53-3.53,5.79-9.66,9.7-12.89,15.66a76.63,76.63,0,0,0-3.11,7.57,39.56,39.56,0,0,1-10.6,14.77c-2.33,2-5,3.92-6.16,6.78a28.55,28.55,0,0,0-1,4.89c-1.71,8.5-9.16,14.54-13.06,22.28a8.23,8.23,0,0,0-1.09,3.65,15.09,15.09,0,0,0,1,4.09,14.14,14.14,0,0,1-.51,9.19l-.26,2.63a7.45,7.45,0,0,1-4.41,3.65c-1.84.7-3.8,1-5.61,1.79-5.07,2.1-8.42,7.16-13.41,9.44.74,1.66,3.12,2.58,3,4.38a3.11,3.11,0,0,1-.6,1.44,17.64,17.64,0,0,1-12.39,7.88c1.09,1.69,2.18,3.94,1,5.56a4.88,4.88,0,0,1-1.06,1,46.4,46.4,0,0,1-12.67,6.61,63.24,63.24,0,0,1,14.77,6.51,14.86,14.86,0,0,0-7.74,7.59l-4.88,9.87c-2.7,2.53-3.81,6.26-5.56,9.51-3.95,7.33-11.19,12.26-18.55,16.14s-15.18,7-21.72,12.19a2,2,0,0,0-1,1.38,2,2,0,0,0,.32,1l4.33,8.3-2,6.08c-.72,5.72-1.46,11.54-3.82,16.8s-6.64,10-12.23,11.4a22.21,22.21,0,0,1-8.6.19,23.65,23.65,0,0,0-5.86-.44,6,6,0,0,0-4.8,3c-1.28,2.66.41,5.69,1.51,8.43a21.13,21.13,0,0,1,1.25,11.18l-6.35,2.37a15,15,0,0,1-9.69,3.07c-1.68-.07-3.41-.43-5,0s-3,1.8-4.33,2.9a20.17,20.17,0,0,1-13.94,4.31,59.21,59.21,0,0,1,39.92,32.84c-7.15.38-14.53.72-21.25-1.74-3.41-1.26-6.52-3.19-9.77-4.81a57.21,57.21,0,0,0-13.64-4.76c4.74,22.24,17.79,41.91,23.64,63.88l.87,2.6,10.49,34.58,4.59,15.11,4.89,16.1c8.89,29.31,17.78,58.61,27.17,87.76l12.59,5c11,36.5,22.15,73.36,25,111.39.88,12,1,24.46,6.38,35.22l10.22-2.8,7,1.7A17.46,17.46,0,0,1,929.1,2105a1.53,1.53,0,0,1,1.15.25,1.59,1.59,0,0,1,.37.88l.67,3.32c3.72-5,10-7.28,15.89-9.3l16.75-5.74,7.23-3.12c19.14-.51,38,7.16,52.85,19.24s26,28.31,34,45.69l3.51,6.76a87.19,87.19,0,0,1,15.34,30.46,48.59,48.59,0,0,0-9,4c5.34,4.18,7.74,11,9.61,17.55s3.6,13.42,8.18,18.43l1.41,1.08a25.24,25.24,0,0,0-12.77.25c8,7.54,12,18.37,14.26,29.08l.45,1.59a27.64,27.64,0,0,1-11.32-1.65c6.54,4.75,9.29,12.06,11.16,19.92,1.16,4.89,2.14,10,1.26,14.92l-7.3.19-.63,0c4.62,7.76,4.54,17.34,4.33,26.36,0,1.77-.12,3.66-1.16,5.08s-3.42,2-4.55.64a10.4,10.4,0,0,1-1.93,8.16c2-.39,3.92,1.18,4.65,3.06a13.24,13.24,0,0,1,.37,6c-.32,3.34-.67,6.8-2.38,9.68a42.07,42.07,0,0,1-2.94,3.88,24.74,24.74,0,0,0-4.44,20.05l-.49,2a86.92,86.92,0,0,1,1.47,27.25c-.09.79-.29,1.73-1,2-.53.19-1.18,0-1.66.27s-.55,1-.54,1.58l.2,15.32a4.66,4.66,0,0,1-.51,2.72,1.64,1.64,0,0,1-2.41.45,24.37,24.37,0,0,1-7.38,20.85c1.54-8.21-.36-16.71-3.3-24.53a35,35,0,0,0-5-9.51,15.55,15.55,0,0,0-8.84-5.81l-9.08-.39c-11.61-13.81-25.15-25.85-38.63-37.84l-23.57-21-4.51-5.93-3.16-9.2c-.24-.68-.57-1.46-1.27-1.63a2.19,2.19,0,0,0-1.38.3l-6,2.79a20.18,20.18,0,0,0-6.39-15.65c-1.71-1.58-3.68-2.84-5.4-4.41a40.77,40.77,0,0,1-5.09-6.1l-4.59-6.28a25.41,25.41,0,0,1-6.1,6c-.25-5.51-4.51-9.92-8.67-13.53l-6.06,8.25c-.67,14.51-.64,29.06.11,43.57l-.63,6.31q2.55,84.09-.82,168.21c-.2,4.93-.43,9.95-2.18,14.56s-5.32,8.81-10.09,10c-3.08.78-6.48.32-9.3,1.78-5.7,3-5.22,11-5,17.47a57.54,57.54,0,0,1-1.62,15.85c-.91,3.73-2.39,7.62-5.57,9.77-2.86,1.93-6.54,2.07-10,2.13-7.13.14-15.73-.53-19.09-6.83-1.45-2.71-1.54-5.92-1.53-9,.06-20,2.7-39.86,3.34-59.82.27-8.68.17-17.37.07-26.05l-.8-69.61-1.42-6-.12-133.82c0-12.63,0-25.28.84-37.89.49-7.18,1.26-14.49-.42-21.49-.8-3.33-2.14-6.5-3-9.8-1.82-6.72-1.77-13.79-1.71-20.76l.16-18c0-2.72-.39-6.11-2.95-7-2-.73-4.16.61-6,1.81a68.33,68.33,0,0,1-62,6.53Z"></path>
    <path data-name="4" data-official="Scutellaria cordifolia" data-plain="Heart-leaved Scutellaria" data-loc="Mexico" d="M914.17,2359.59l.63-6.31c-.75-14.51-.78-29.06-.11-43.57l6.06-8.25c4.16,3.61,8.42,8,8.67,13.53a25.41,25.41,0,0,0,6.1-6l4.59,6.28a40.77,40.77,0,0,0,5.09,6.1c1.72,1.57,3.69,2.83,5.4,4.41a20.18,20.18,0,0,1,6.39,15.65l6-2.79a2.19,2.19,0,0,1,1.38-.3c.7.17,1,1,1.27,1.63l3.16,9.2,4.51,5.93,4.6,19.1a1120.76,1120.76,0,0,1,29.28,167c1.1,11.27,1.88,23.34-3.62,33.24-3.3,5.94-8.63,10.59-11.69,16.66-2.1,4.16-3,8.81-5,13.05-4.33,9.54-13.18,16.13-21.78,22.12-4.76,3.31-9.7,6.64-15.36,7.89s-12.26-.07-15.78-4.67c-4.3-5.62-2.63-13.69,0-20.24s6.22-13.31,5.07-20.28a52.35,52.35,0,0,0-2.11-7.12,75.44,75.44,0,0,1-2.49-13.62q-9.68-81.74-13-164.05Zm-238.55-371.7,5.84,2.14a133.65,133.65,0,0,0,38.91,4.31,19.88,19.88,0,0,1-8.38,9.24l21,3.28c6.77,1.06,14,2,20.16-1.06a6,6,0,0,1-.5,5.4c13.12,2.48,27.12,4.87,39.47-.21a52.2,52.2,0,0,0-.4,9.68c5.09-.5,10-2.07,14.87-3.63l16.9-5.42,2.21-.75a16.45,16.45,0,0,0,6-6l3-6.13a1749.53,1749.53,0,0,0-77.42-254.2l-2.18-.46a29.14,29.14,0,0,1-9,6c-2.64,1.12-5.46,1.85-7.89,3.36a14.65,14.65,0,0,0-6.69,14c-3.64-5.91-1.62-13.78,2.2-19.58s9.23-10.4,13.07-16.18c1-1.52,1.89-3.63.74-5.06-1.33-1.66-4.16-.69-5.41,1s-1.63,4-2.86,5.69c-3.27,4.61-10.69,3.9-14.75,7.83-5.59,5.4-1.61,15.7-6.17,22-2.08,2.86-5.55,4.31-8.83,5.63l-1,.18a15.77,15.77,0,0,0-1.6-20.75c-4.23,4.41-8.78,9-14.71,10.52-3.62.92-7.42.59-11.14.25l-12.17-1.09c5.24-1.27,10.52-2.64,15.24-5.23s8.9-6.54,10.7-11.62c-6.55.2-13.21.38-19.55-1.25s-12.45-5.38-15.42-11.22c-3.83-7.54-1.9-17.2-6.38-24.37l-17.38-10.8-9.36.24A99.75,99.75,0,0,0,561,1715.23l-9.37,10-1.82,6.28,1.71,23.09a7.33,7.33,0,0,1-.2,3.06,7.43,7.43,0,0,1-1.6,2.31l-5,5.55c-2.27,2.51-4.66,5.11-7.83,6.3-.44.17-.94.35-1.13.78a1.5,1.5,0,0,0,.19,1.24c.8,1.53,2.17,2.68,3.17,4.08s1.59,3.38.66,4.83c-2,3.11-8,.3-10.1,3.34-1,1.45-.49,3.43.13,5.08a74.42,74.42,0,0,0,7.69,15,22.38,22.38,0,0,1-12.9,1.48l-.39.16a67.45,67.45,0,0,1,5.48,30.94,18.4,18.4,0,0,0-11.25-3.39,78.84,78.84,0,0,1,12.06,28.84,14.75,14.75,0,0,1-5.21-.36c1.55,2.63,1.2,6.07,2.84,8.64a11.58,11.58,0,0,0,3.66,3.26A64.63,64.63,0,0,0,544,1882a16.6,16.6,0,0,0,1.33,7.19l14.08,30.75a38.8,38.8,0,0,0,18.21,21.44c10.76,5.76,25,7,31.67,17.18l10.55,13.89a35.5,35.5,0,0,0,15.85,11.1ZM783.41,318.7c-51.82-62.33-66.66-147.63-67-228.69-.08-19.47-3.2-44.32-22-49.46-6.46-1.77-13.37-.49-19.77,1.52-41.57,13.06-68.28,54.8-78.81,97.08s-8.41,86.55-12.22,130c-2.59,29.52-7.92,59.52-1.71,88.49,2.81,13.08,8,26.07,6.6,39.39-2,19.62-18.07,37.68-13.27,56.81,3,11.77,13.57,21.56,12.72,33.67-1.1,15.56-19.19,22.76-30.94,33-16.9,14.77-21.58,41.75-10.64,61.35,8.17,14.65,24.38,29.49,17.36,44.72-2.46,5.35-7.4,9-11.48,13.28-19,19.73-19.22,50.39-18.22,77.78.84,23,1.75,46.4,9.52,68,8.06,22.47,23.46,43.17,23.59,67,.13,24.12-15.53,45.8-17.7,69.82-3.08,34.11,20.94,64,43.52,89.8l5.73,13a10.38,10.38,0,0,1,5.62,1.9c2.15,1.72,2.94,4.59,3.42,7.3,2.93,16.82-2,33.91-6.81,50.28l.15,6.26c.28,2.76.52,5.71-.77,8.17-.38.71-.87,1.35-1.24,2.07a6.77,6.77,0,0,0-.28,5.47,1.69,1.69,0,0,1,.16.66,1.4,1.4,0,0,1-.4.79,31.45,31.45,0,0,0-2.54,2.89,3.88,3.88,0,0,0-.57,3.64l3.25,9.39c-2.67,12.7-11.2,23.2-18.13,34.17a14.36,14.36,0,0,0-2.37,5.26c-1.11,7,7.47,12.39,7.29,19.47l6.31,9.53a31.9,31.9,0,0,0,14.3,7,89.14,89.14,0,0,0,16,1.76l10.33.92,7.28-3.5a2.72,2.72,0,0,0,1.22-1.09,11.47,11.47,0,0,1,12-4l3,2.53a53.56,53.56,0,0,1,11.68,41.12l1.18,8.42a38.28,38.28,0,0,1-3.4,16.7c-2.06,4.56-5,8.74-6.35,13.57a6.63,6.63,0,0,0-.24,3.12c.35,1.54,1.59,2.69,2.75,3.77A103.17,103.17,0,0,1,675,1298.33a26.09,26.09,0,0,0,4.45,5.3,22.3,22.3,0,0,1,2.67,2.16,7.84,7.84,0,0,1,1.72,6.09,23.28,23.28,0,0,1-1.83,6.24L675.84,1329l11.32-.32a55.79,55.79,0,0,0,41.18-4.5c2.44-1.31,4.87-2.84,7.62-3.19a18.86,18.86,0,0,1,6.2.57l55.47,11.35a16.44,16.44,0,0,1,5.87,2,5.52,5.52,0,0,1,2.67,5.25c-.59,3.4-4.92,4.55-8.37,4.37s-7.35-.82-10,1.44c-3.3,2.85-2.2,8-2.06,12.4a22.67,22.67,0,0,1-6.38,16.37l-6.26,10.12a98.68,98.68,0,0,1,27.37,24.61,6.29,6.29,0,0,0,1.88,1.86c1.92,1,4.21-.23,6-1.45l20.16-13.66,5.25-2.16c2.54-4.07,5.77-8.59,10.56-9,3.71-.3,7.18,2.07,10.91,2.15,1.12-3.58,5.18-5.15,8-7.62a47.61,47.61,0,0,0,4.83-5.66,62.51,62.51,0,0,1,4.79-5,3.5,3.5,0,0,1,1.23-.87c1.78-.61,3.11,1.69,4.85,2.42,2.54,1.08,5.06-1.38,7-3.32,4.67-4.59,10.86-7.34,17.18-9,2.31-.62,4.81-1.22,6.38-3s1.83-4.69,2.67-7.09,3.23-4.82,5.61-3.9l-3-5-4.29-21.75c-.11-.53-.17-1.18.25-1.52a1.5,1.5,0,0,1,1.2-.16,124.3,124.3,0,0,0,60-6.4l11.18-4.3c2-3.49,4.82-6.69,5.41-10.66.76-5.23-2.58-10.09-5.76-14.32l-1.4-5a15.78,15.78,0,0,0-4.63-10.48c-1.6-1.57-3.56-2.82-4.76-4.72a16.32,16.32,0,0,1-1.77-5.34,12.69,12.69,0,0,0-2-5.23,4.68,4.68,0,0,0-5-1.85v-3.38l2.88-14a47.59,47.59,0,0,1,1.7-6.67c.9-2.5,2.21-4.84,3.25-7.28,1.45-3.39,2.39-7,3.79-10.38a63.15,63.15,0,0,1,9.46-15.16,144,144,0,0,1,29.15-27.61l.38-2.8c6.42-2,13.36-1.05,20,0l4.1,1.24c7,.61,14.27-1.15,19.72-5.53s8.8-11.52,7.92-18.46l-3.18-4.38c-.38-3.91-2.82-7.38-5.87-9.86s-6.69-4.1-10.27-5.7a46.75,46.75,0,0,0-8.37-3.09c-3.53-.82-7.38-.87-10.39-2.89s-4.45-5.48-5.8-8.78c-2.66-6.51-5.33-13.06-6.84-19.93l.43-5-2.61-2.46c-1.36-1.28-2.78-2.66-3.24-4.47a6.13,6.13,0,0,1,2-5.9,10.5,10.5,0,0,1,6-2.38c1.92-.2,3.9-.06,5.75-.61s3.63-2,3.69-4c.07-2.08-1.83-3.7-3.74-4.53l-3.14-2.58c-4,.27-8.77.13-10.81-3.28a11,11,0,0,1-1.15-4.61c-1.06-10.93-2.11-22.09.46-32.76l-3-10.15c-7.68.88-15-4.53-18.6-11.36s-4.18-14.82-4.28-22.54c-.53-40.46,9.74-83.37-7.73-119.87-7.82-16.32-20.64-29.82-28.61-46.06C936.83,780.52,934,756.58,918,741.67c-7.13-6.64-16.23-10.77-23.79-16.9C863.1,699.54,864.38,647,831.41,624.25c-6.29-4.33-14.14-8.06-16.25-15.4-1.11-3.87-.32-8,.42-11.94a438.57,438.57,0,0,0,6.95-60.35c.54-12,.25-25-7.18-34.38C810.52,496.06,803,492,799.8,484.89c-3-6.77-1.38-14.61.09-21.88a346.72,346.72,0,0,0,6.75-79.64c-.52-16.91-3.78-36.31-18.32-45Zm342.45,1705.7q12.45-8,25.52-15a14.63,14.63,0,0,0-10.68-4.79c2.14-6.87,7.78-12.06,13.63-16.25s12.23-7.81,17.05-13.15c2.16-2.39,4-5.09,6.37-7.24,4.28-3.84,10-5.58,15.5-7.22-3.1-1.68-3.72-6-2.59-9.36,1.84-5.45,6.92-9.06,11.81-12.08a203.46,203.46,0,0,1,48.81-21.84l.58-2c16-18.73,41.62-26.18,66.13-28.48a8.22,8.22,0,0,0-7.13-6.41c20-9.5,43.26-8.11,65.36-6.52a13.27,13.27,0,0,0-.44-5.67c11.47-.6,23.21-1.18,34.23,2.07a69.6,69.6,0,0,1,19.61,9.85,111.26,111.26,0,0,1,38.52,46.72c1.48,3.38,2.86,6.94,5.44,9.58s6.81,4.11,10.06,2.36l11.45-4.47c12.32-7.84,23.51-17.31,34.66-26.74a109.06,109.06,0,0,0,10.64-9.85c4.92-5.44,8.69-11.8,12.42-18.12,14.7-24.88,29.41-49.79,42.37-75.62q9.08-18.07,17-36.7a114,114,0,0,0,5.72-15.75c2.09-8,2.54-16.42,2.69-24.73a460.87,460.87,0,0,0-2.75-56c-.74-7.12-2.48-15.48-9.06-18.31-4.18-1.8-9.16-.61-13,1.85s-6.8,6-9.84,9.43c-6.31,7-13.51,13.7-22.42,16.84-7.76,2.75-16.22,2.6-24.44,2.21a453.64,453.64,0,0,1-83.45-11.91l-11.37-6a4.38,4.38,0,0,1-3.18-.3c-8.2-2.79-17.22-1.43-25.75-2.91a77.63,77.63,0,0,1-9-2.31,36.94,36.94,0,0,1-7.85-3c-1.62-.92-3.1-2.09-4.79-2.86-3.28-1.51-7-1.42-10.65-1.29q-15.48.56-30.94,1.48a11.7,11.7,0,0,1,4.33-7.21,44.55,44.55,0,0,0-22.24-3.17l-1.93-3.71c-2.25-1.28-3.92-3.36-5.81-5.13a26.73,26.73,0,0,0-18.87-7.15c-4.19.12-8.27,1.23-12.4,2s-8.46,1.09-12.42-.26c-2.37-.81-4.5-2.2-6.83-3.1-4.28-1.66-9-1.61-13.59-1.83s-9.39-.81-13.13-3.47l-4.92-3.17a70.3,70.3,0,0,1-27.84-27.33c-1-1.79-2.19-3.82-4.2-4.22-1.67-.33-3.3.61-4.74,1.51-8,5-16.3,10.31-20.64,18.63a14.82,14.82,0,0,1-1.65,2.8,11.72,11.72,0,0,1-3,2.35l-19.46,11.79a34.87,34.87,0,0,0,3.08-17.92l-.11-.77a12.25,12.25,0,0,1-6.91,3.46c-2.25.32-4.64,0-6.7,1-.91.41-1.7,1-2.57,1.5-2.74,1.47-6,1.27-9.12,1.38a42.52,42.52,0,0,0-29.17,13.27l-.38-11.68a78,78,0,0,0-50.91,24,47.76,47.76,0,0,1,1-17.94c-9.6-1.67-18.3,8.07-28,6.84l-22.33-8.12-4.82,6.33a87,87,0,0,0-40.93,31.55q-3.25-45.48-9-90.75a162.53,162.53,0,0,0,53.29-13.15l3.61,6.12c5.48-7.7,13.11-14.23,16-23.25,1.83-5.75,1.54-12,3.53-17.73l-4.37-12.58c-1.47-1.86-3.87-2.67-6.14-3.34a164.15,164.15,0,0,0-52.56-6.53l-4.93-2.85c-1.71,8.5-9.16,14.54-13.06,22.28a8.23,8.23,0,0,0-1.09,3.65,15.09,15.09,0,0,0,1,4.09,14.14,14.14,0,0,1-.51,9.19l-.26,2.63a7.45,7.45,0,0,1-4.41,3.65c-1.84.7-3.8,1-5.61,1.79-5.07,2.1-8.42,7.16-13.41,9.44.74,1.66,3.12,2.58,3,4.38a3.11,3.11,0,0,1-.6,1.44,17.64,17.64,0,0,1-12.39,7.88c1.09,1.69,2.18,3.94,1,5.56a4.88,4.88,0,0,1-1.06,1,46.4,46.4,0,0,1-12.67,6.61,63.24,63.24,0,0,1,14.77,6.51,14.86,14.86,0,0,0-7.74,7.59l-4.88,9.87c-2.7,2.53-3.81,6.26-5.56,9.51l1.2,19.1q2.37,42.54,3.13,85.15a3,3,0,0,1-.5,2.13c-.74.82-2.06.58-3.12.28-20-5.81-39.54-13.95-60.26-16l-11.61,5-6.35,2.37a15,15,0,0,1-9.69,3.07c-1.68-.07-3.41-.43-5,0s-3,1.8-4.33,2.9a20.17,20.17,0,0,1-13.94,4.31,59.21,59.21,0,0,1,39.92,32.84c-7.15.38-14.53.72-21.25-1.74-3.41-1.26-6.52-3.19-9.77-4.81a57.21,57.21,0,0,0-13.64-4.76c4.74,22.24,17.79,41.91,23.64,63.88l.87,2.6,10.49,34.58,4.59,15.11,4.89,16.1c8.89,29.31,17.78,58.61,27.17,87.76l12.59,5,.31-6.22-.26-25.75c0-3.05.17-6.6,2.64-8.4,3.16-2.31,7.58-.13,10.64,2.31,8.11,6.47,14.55,14.78,20.55,23.25,3.76,5.28,7.42,10.76,9.4,16.94s2.19,13,2.34,19.64c.42,18.33.84,36.69-.53,55-1.42,19.13-4.8,38.16-4.5,57.35l1,9.71,7,1.7A17.46,17.46,0,0,1,929.1,2105a1.53,1.53,0,0,1,1.15.25,1.59,1.59,0,0,1,.37.88l.67,3.32c3.72-5,10-7.28,15.89-9.3l16.75-5.74,7.23-3.12-5.21-7.05q-.66-46.33,2-92.64c.34-5.9.74-11.91,2.82-17.45,3.71-9.84,12.17-16.93,19.75-24.22a197.07,197.07,0,0,0,22.36-25.5c2.28-3.11,4.57-6.37,7.89-8.34s8-2.24,10.72.47c2.57,2.55,2.57,6.63,2.45,10.24a441.28,441.28,0,0,0,1,48c1.32,17.53,4,35.84,14.51,49.94a34.52,34.52,0,0,0,10.3,9.59c8.65,5,19.25,4.5,29.2,3.9Z"></path>
    <path data-name="5" data-official="Betonica grandiflora" data-plain="" data-loc="Sibera" d="M1779.77,1097.52q-2.88,17.77-6.6,35.4l-2.54,5.79a33.93,33.93,0,0,0-6.7-2.9c-1.78-.5-3.63-.74-5.39-1.33a34.58,34.58,0,0,1-5.82-3,38.27,38.27,0,0,0-10.07-4.19c-2.17-.5-4.4-.73-6.56-1.31-4.16-1.1-7.89-3.42-11.54-5.7l-1.94-3.19c-3.14-3.53-4.65-8.26-5.08-13a66.64,66.64,0,0,1,.71-14.1l4.58-3.73a79.69,79.69,0,0,0,35.25-5.1c1.88-.74,3.85-1.56,5.85-1.28a13.12,13.12,0,0,1,4.7,2.13,38.3,38.3,0,0,0,12.08,4.65l2.48,3.25Zm138.49-57.89a224,224,0,0,0,110.68-21.75c13-6.27,26.82-16.11,27.54-30.49.89-17.95-19.3-36-9.67-51.14,8.9-14,31-6.19,46.53-11.89,17.85-6.53,23.09-28.81,25.53-47.66,4-30.85,7.36-63.19-3.74-92.25-3.41-8.91-8.13-17.35-10.43-26.61-4.64-18.68,1.06-38.2,1.62-57.43s-7.24-41.91-25.9-46.66c-11.24-2.87-22.88,1.76-33.56,6.3l-33.93,14.42c-3.55,1.51-7.56,3-11.15,1.61-4.27-1.68-6.07-7.07-5.19-11.57s3.76-8.33,6.56-12c13.51-17.56,27.64-35.66,47.27-45.95,17-8.93,37.43-11.5,52.4-23.57,21.09-17,24.16-52.1,6.35-72.51l-6.44-13.6c-6.88-16.55-1.73-35.66,6.15-51.76s18.48-31.08,23.16-48.37,1.68-38.49-13.07-48.67c-13.46-9.28-31.85-6.43-47.07-.45s-29.69,14.8-45.94,16.66c-5,.58-11,.1-14-4-1.93-2.59-2.21-6-2.28-9.24-.34-14.69,2.16-29.41.65-44s-8.14-29.93-21.34-36.38c-4-1.93-8.37-3-12-5.56-8.1-5.77-9.58-16.92-13.73-26-7.74-16.89-26.3-27.16-44.84-28.49s-36.91,5.14-53,14.44c-4.83,2.78-9.62,5.88-15.07,7.06-6.74,1.46-13.71-.17-20.59-.73-25.41-2.08-49.78,10.45-75.21,12.34-10.83.8-23.33.31-30.53,8.44-4.68,5.29-6.3,13.59-12.69,16.6-2.86,1.35-6.16,1.31-9.33,1.25l-42.89-.85c-5.84-.12-12-.31-17-3.21-5.48-3.14-8.81-8.9-12.35-14.14-10.79-16-26.39-29.63-45.18-34.12s-40.74,1.81-51.33,18c-7.25,11.06-8.5,25-7.69,38.21a141.81,141.81,0,0,0,7.46,37.41c3,8.65,6.75,18.4,2.47,26.47-3.29,6.22-10.35,9.29-15.43,14.15-5.8,5.55-8.93,13.37-14.32,19.31s-15.17,9.63-21.3,4.44l-15.35,6.61c4,8.83,5.31,19.31,1.46,28.21a6.64,6.64,0,0,1-2,2.9,7,7,0,0,1-3.89.92l-2.92,15.82a42.07,42.07,0,0,0,10.14,38c8.67,9.19,21.72,14.69,26.89,26.21l8.51,11.93,4.6,2.14,21.7,7.85a82.66,82.66,0,0,1,14,6,48.85,48.85,0,0,0-25.77,14.06l-.63,1.55-.68,25.76c-.05,1.75.25,4,1.94,4.44.58.15,1.26.06,1.72.44a2.07,2.07,0,0,1,.55,1.48c.48,5.41.95,10.9.09,16.27s-3.22,10.7-7.48,14.08l1.25,6.22a5,5,0,0,1,4.61.23,13.08,13.08,0,0,1,2.25,2,16.93,16.93,0,0,0,5.5,3.51l1.87,18.14,4.92,9.78a99.77,99.77,0,0,1,1.53,36.41c-.42,3-1,6.05-2.78,8.51-2,2.75-5.09,4.38-8.09,5.94-14.41,7.49-29.91,17.59-32.88,33.55-2.88,15.42,7.21,31,4.49,46.48-1.53,8.67-6.92,16.11-12.58,22.85l-4.68,8.51a55.26,55.26,0,0,1,1.37,20.74l.75,10.92c-.94,3.58.55,7.33.39,11a12.4,12.4,0,0,1-16.59,11.17c-.37,3.95-.72,8,.52,11.8a24,24,0,0,0,3.88,6.79c2.39,3.14,5.06,6.07,7.72,9,10.5,11.52,21.21,23.21,34.6,31.19l16.64,12.55c8.12,12.85,7.13,30.09,0,43.54l-6.15,17.66.29,16.84a19,19,0,0,0,.92,6.67,6.38,6.38,0,0,0,4.86,4.22l13.53,2.61a190,190,0,0,1,25.81-.24c3.54.21,7.22.56,10.28,2.36s5.2,4.88,8.18,6.83c5.25,3.44,12.08,2.79,18.31,2l103.31-12.76,8.41,3.09a19.32,19.32,0,0,1,7.47.23c1.51.46,2.89,1.28,4.43,1.63,2.66.61,5.41-.26,8-1.06a191.8,191.8,0,0,1,26-6.06c2.2-.35,4.54-.72,6.21-2.19s2.3-3.44,3.85-4.78c2.23-1.93,5.5-1.86,8.44-1.7l7.35.21,30.72,1.08c8.76.31,17.57.63,26.16,2.36,18.75,3.79,35.68,14.23,49.68,27.27ZM1851.89,1401l-7.41-1.75a129.53,129.53,0,0,1-81.56-21.32l-3.21-1.63c-7.46-2.82-12-10.42-14.81-17.86s-4.83-15.45-9.76-21.72c-2.13-2.71-4.77-5-6.53-8-2.49-4.19-3-9.24-3.37-14.09-.5-5.88-1-11.84,0-17.66,1.24-7.1,4.65-13.6,7.33-20.3,4.5-11.26,7-23.82,3.92-35.55l-1-.44c-5,4-10.94,7.29-17.35,7.55s-13.29-3.31-15.2-9.43c-.86-2.8-.69-5.92-2.1-8.48-.55-1-1.35-1.94-1.34-3.08a8.16,8.16,0,0,1,.53-2.08c.87-3.2-1.46-6.27-3.4-9-4.18-5.81-7.19-13.22-5.11-20.06a10.28,10.28,0,0,0,.73-3.25,13.8,13.8,0,0,0-.65-2.72c-.78-3.09.27-6.3,1-9.41a43.56,43.56,0,0,0,.6-16,10.24,10.24,0,0,0-1.51-4.53,11.22,11.22,0,0,0-4-3.08,160.94,160.94,0,0,0-48.51-16.7l-1.54,13.68q-13.63,38.5-26.89,77.14c-3.53,10.28-7,20.62-8.87,31.34-3.91,22.9-.15,47.58-10.12,68.56l9,12c4.44,2.59,8.53,5.73,13,8.27a53.07,53.07,0,0,1,6.67,4c5.21,4.09,7.91,10.88,13.44,14.52l-.22,2.38c-15.5,5.84-26.49,20.33-32,35.95l-15.86,13.42,2.81,8c4.73,31,10.07,62,20.18,91.68s25.26,58.07,47.44,80.21l.74,8c-20.78,51.79-13.92,111.24-33.17,163.62-6.5,17.68-15.89,34.26-21.32,52.3-9.78,32.52-6.41,68.73-21.36,99.22-2.09,4.26-5,8.73-9.58,9.89-2.52.64-5.18.17-7.74-.26a205.47,205.47,0,0,0-53.75-1.79l-14.92,1.93-11.45,4.47c-3.25,1.75-7.47.28-10.06-2.36s-4-6.2-5.44-9.58a111.26,111.26,0,0,0-38.52-46.72,69.6,69.6,0,0,0-19.61-9.85c-11-3.25-22.76-2.67-34.23-2.07a13.27,13.27,0,0,1,.44,5.67c-22.1-1.59-45.34-3-65.36,6.52a8.22,8.22,0,0,1,7.13,6.41c-24.51,2.3-50.16,9.75-66.13,28.48l-.58,2a203.46,203.46,0,0,0-48.81,21.84c-4.89,3-10,6.63-11.81,12.08-1.13,3.33-.51,7.68,2.59,9.36-5.51,1.64-11.22,3.38-15.5,7.22-2.39,2.15-4.21,4.85-6.37,7.24-4.82,5.34-11.2,9-17.05,13.15s-11.49,9.38-13.63,16.25a14.63,14.63,0,0,1,10.68,4.79q-13.05,7-25.52,15l-36.9,13.8,5.69,8.12c-5.61,18-14.06,34.86-20.82,52.41s-11.9,36.22-10.4,55l-1.93,9.29a87.19,87.19,0,0,1,15.34,30.46,48.59,48.59,0,0,0-9,4c5.34,4.18,7.74,11,9.61,17.55s3.6,13.42,8.18,18.43l1.41,1.08a25.24,25.24,0,0,0-12.77.25c8,7.54,12,18.37,14.26,29.08l.45,1.59a27.64,27.64,0,0,1-11.32-1.65c6.54,4.75,9.29,12.06,11.16,19.92,1.16,4.89,2.14,10,1.26,14.92l-7.3.19-.63,0c4.62,7.76,4.54,17.34,4.33,26.36,0,1.77-.12,3.66-1.16,5.08s-3.42,2-4.55.64a10.4,10.4,0,0,1-1.93,8.16c2-.39,3.92,1.18,4.65,3.06a13.24,13.24,0,0,1,.37,6c-.32,3.34-.67,6.8-2.38,9.68a42.07,42.07,0,0,1-2.94,3.88,24.74,24.74,0,0,0-4.44,20.05l-.49,2a86.92,86.92,0,0,1,1.47,27.25c-.09.79-.29,1.73-1,2-.53.19-1.18,0-1.66.27s-.55,1-.54,1.58l.2,15.32a4.66,4.66,0,0,1-.51,2.72,1.64,1.64,0,0,1-2.41.45,24.37,24.37,0,0,1-7.38,20.85c1.54-8.21-.36-16.71-3.3-24.53a35,35,0,0,0-5-9.51,15.55,15.55,0,0,0-8.84-5.81l-9.08-.39-4.32,7.53c-10,29.22-6.87,61.45,1.21,91.25,2,7.25,4.26,14.53,8.33,20.86,7.25,11.28,19.82,18.61,33,20.88s27-.23,39.26-5.6c6.13-2.67,11.92-6,17.93-9,24.48-11.95,52.61-16.88,74.3-33.37l17.28-7.85,1.87-2.06a16.27,16.27,0,0,1,4.67-4.93c1.46-1,3.24-2,3.53-3.71l.08-3.74c.63-5,4.91-8.74,9.24-11.35s9.16-4.74,12.32-8.7a29,29,0,0,0,3.7-6.73c1.48-3.4,2.91-7,2.83-10.67a12.84,12.84,0,0,1,8.12,6.58c3.57-1.34,5-6.14,8.67-7.22,2.33-.69,4.79.39,7,1.44,2.59,1.24,5.17,2.48,7.7,3.83l4.76,4,10.39-5.69a892.68,892.68,0,0,1,113.35-95.7c-29.69,58.86-60.17,121.46-55.3,187.21,1.06,14.35,3.82,28.66,3,43-.45,8.11-2,16.43.33,24.2a25,25,0,0,0,46.66,3.18c2-4.34,2.68-9.15,4.21-13.67,2.25-6.62,6.24-12.48,10-18.35,57.54-88.68,80.43-194.62,116.25-294.08,18.25,100.05,49.66,203.75,124.62,272.47,26.68,24.45,64.14,44.36,98,31.7,11.66-4.36,21.65-12.2,31.09-20.31a454.27,454.27,0,0,0,141.84-225.66l6.92-14.75c18.13-61.67,19.21-126.87,20.15-191.14.27-18.14.53-36.35-1.53-54.37a254.91,254.91,0,0,0-7.52-38,322.34,322.34,0,0,0-119.2-173.52c-10.52-7.72-21.58-14.83-33.62-19.86-37-15.47-79-10-118.66-4.19l-5.82-12.47c18.56-54.09,37.3-109.07,40.11-166.19,9.21,3.35,19.75.85,28-4.36s14.75-12.85,20.87-20.49a622.44,622.44,0,0,0,80-129.74c7.19-15.71,13.79-31.94,16.21-49s.36-35.36-8.78-50Z"></path>
    <path data-name="6a" data-official="" data-plain="Flower of Salvia" data-loc="" d="M951.4,2880.7l-47.89-82.6c-10.43-18-21.13-36.87-22-57.64s11.5-43.7,32-47.21c2.62-.45,5.43-.63,7.57-2.21a17.94,17.94,0,0,0,3.35-3.95,29,29,0,0,1,26.3-11.32c-4.6-16.52,2.41-35.61,16.6-45.25s34.53-9.08,48.18,1.3c13.83-10.43,34.58-10.48,48.46-.11s19.7,30.29,13.61,46.51a45.83,45.83,0,0,1,23.28,20.55c4.56-8.28,16-11.05,24.81-7.5s14.76,12.09,17.38,21.17,2.34,18.72,1.64,28.15c-1.55,21-5.12,42.1-14.12,61.11-6.91,14.6-16.87,27.63-23.46,42.39-8,17.85-11.15,38.45-24.15,53-5.12,5.75-11.61,10.34-15.76,16.82-3.39,5.29-5.13,11.71-9.58,16.14-6.22,6.22-15.92,6.89-24.72,7.18l-20.2.69c-6.91.23-14.87,0-19.22-5.37-6.37-7.89-.15-20.81-5.71-29.3-7.4-11.3-28.46-5.26-35.45-16.81Z"></path>
    <path data-name="6b" data-official="" data-plain="Ovary and Pistil" data-loc="" d="M1216.28,2874.45c-9.88-6-14.84-17.66-17.35-28.95-8.57-38.66,4.65-78.37,8.59-117.78,1.23-12.26,1.55-24.6,1.67-36.93.1-9.94,0-20.06-3-29.52-2.52-7.83-7-14.9-9.79-22.63s-3.8-16.81.49-23.82,15.33-9.93,21-3.94a20.18,20.18,0,0,1,3.47,5.85c18.84,43,16.46,92.24,9.8,138.75-1.37,9.63-2.93,19.34-2.29,29.05s3.67,19.6,10.34,26.67c7.83,8.29,20.44,12.79,24.1,23.59,1.62,4.8,1.09,10,1.45,15.07.77,10.75,5.56,20.74,8.53,31.11s3.85,22.38-2.44,31.14c-6,8.33-16.87,11.49-27.07,12.66a110.82,110.82,0,0,1-21.16.37c-4.95-.4-10.43-1.45-13.32-5.49a14,14,0,0,1-2.23-7.21c-.73-10.47,4.48-20.33,9.54-29.53Z"></path>
    <path data-name="6c" data-official="" data-plain="Section of Ovary" data-loc="" d="M1324.17,2871c-16.2-30.15-30.58-63.19-27.94-97.32.54-7,1.79-13.94,2.68-20.92,3.18-25.15,1.47-50.63.52-76-.44-11.91.44-26.1,10.59-32.35,4.78-2.94,10.63-3.37,16.23-3.67q27.87-1.49,55.8-1.42c11.19,0,22.51.26,33.33,3.1,5.22,1.36,10.78,3.78,13,8.7,1.82,4.08.88,9,2.88,13,2.79,5.59,10.07,7.21,14.29,11.82,4.7,5.14,4.77,12.87,4.57,19.83l-1.08,37.28c-.44,15.31-.89,30.73-4.2,45.68-4.66,21-14.76,40.31-23.49,60s-16.28,40.58-15.3,62.07c.4,8.89,1.91,19-3.93,25.7-2.68,3.08-6.53,4.89-10.4,6.21-12.78,4.37-26.59,4.31-40.1,4.21-6.55,0-14.2-.66-17.81-6.13-6.63-10.05,7.46-23.94,2.34-34.83-2.87-6.09-11-9.06-12.24-15.68Z"></path>
    <path data-name="6d" data-official="" data-plain="Seed" data-loc="" d="M1523.66,2877l-12.22-22.62c-6.52-12.07-13.08-24.24-17.19-37.33-7.27-23.16-6.5-48-5.66-72.24.23-6.67.46-13.39,1.89-19.92,4.41-20.22,20.47-36.92,39.77-44.38s41.34-6.24,60.73,1a54.28,54.28,0,0,1,16.07,8.78c7.77,6.5,12.51,16,15.25,25.75s3.67,19.89,5.09,29.92c2.55,18,6.74,36,5.8,54.21a98.11,98.11,0,0,1-33.14,68.11c-3.9,3.39-8.43,7.12-8.72,12.28-.37,6.71,6.49,11.37,9.24,17.51s1.11,13.38-2.77,18.73-9.74,9-15.79,11.62a74,74,0,0,1-46.82,4.06c-5.48-1.34-11.38-3.84-13.55-9-2.68-6.4,1.46-13.38,2.86-20.17a25.73,25.73,0,0,0-1.6-15.37Z"></path>
    <path data-name="7a" data-official="" data-plain="Flower of Lavendula" data-loc="" d="M1749.11,2859.87c1.24-9-4.49-17.55-10.84-24.1s-13.81-12.48-17.55-20.8c-3.41-7.62-3.27-16.39-1.73-24.59,1.1-5.8,3-11.72,7.18-15.89,5.23-5.22,13-6.77,20.31-7.82q10.65-1.53,21.39-2.31c4.24-.31,8.66-.5,12.59,1.12,8.14,3.38,11.62,13.34,19.18,17.87,6.75,4,15.88,3.22,21.91,8.28,3.75,3.15,5.54,8,7,12.68,1.6,5.08,3,10.43,2.15,15.69-1.17,7.12-6.3,12.91-11.62,17.8s-11.17,9.48-14.65,15.81c-2.34,4.24-3.46,9-4.46,13.79-.65,3.12-1.27,6.35-.68,9.49.76,4.06,3.42,7.45,5.65,10.92,6.08,9.44,9.18,22.31,3,31.66-5.39,8.1-15.88,10.9-25.52,12.21a163.44,163.44,0,0,1-16.82,1.39c-7.22.22-15.5-.56-19.8-6.36-3.47-4.68-3.13-11.08-2.63-16.89l3.45-40.06Z"></path>
    <path data-name="7b" data-official="" data-plain="Calyx and Pistil" data-loc="" d="M1844.38,2874.83c-5.65-17.22-5.88-35.7-5.37-53.81.14-5.18.61-11,4.48-14.42,3.38-3,8.76-3.61,11.28-7.38,1.75-2.62,1.59-6,1.29-9.18-.83-8.64-2.14-17.73,1.27-25.71,1.17-2.74,3.07-5.4,5.88-6.38a8.89,8.89,0,0,1,6.77.63c3.83,1.88,6.38,5.76,7.64,9.85s1.36,8.41,1.47,12.69l.57,22.63c.06,2.48.16,5.1,1.47,7.2,1.11,1.78,2.95,3,4.42,4.46,4.21,4.32,5,10.86,5.24,16.89a148.44,148.44,0,0,1-4.83,43.3c-1.17,4.44-2.47,9.5,0,13.35,3.16,4.87,10.37,4.83,15,8.3s6,9.52,6.8,15.14c.94,6.31,1.46,13.21-1.9,18.63-2.2,3.56-5.82,6-9.62,7.79-9.17,4.3-19.54,5.1-29.64,5.84-4.62.34-9.32.67-13.86-.28s-9-3.4-11.27-7.43c-3.91-6.85-.61-15.32,1.41-22.94a66.55,66.55,0,0,0,1.17-28.74Z"></path>
</svg>
