
<svg xmlns="http://www.w3.org/2000/svg" viewBox="0 0 2093 3049" id="illustration" preserveAspectRatio="xMidYMid meet">
    <title>Verbenaceæ</title>
    <path data-name="1" data-official="Verbena officinalis" data-plain="Common Vervain" data-loc="England" d="M480.54,2567c10.25,43.25,9.47,88.25,8.63,132.69-.29,15.47-.68,31.38-6.77,45.6A60.36,60.36,0,0,1,466.63,2767c-7.4,6.45-17.81,11.15-26.92,7.52-10.77-4.3-14.33-17.53-16.14-29-3.53-22.41-5.8-45.06-5.71-67.75.07-16.15,1.33-32.27,1.72-48.42.86-35.74-2.56-71.43-6-107l-.22-19.82c2.36-.7,3.71-3.11,5.65-4.62,4-3.06,9.7-2,14.32,0a52.73,52.73,0,0,1,20,14.69c2,2.36,3.81,4.94,6.33,6.72,1.5,1.06,3.2,1.81,4.69,2.88,4.5,3.24,6.44,8.89,8.13,14.18Zm-80.29-200a193.67,193.67,0,0,0,4.24,43.35l0,7.85A192.13,192.13,0,0,0,419.37,2480l6.63,7.89c7.14-.44,14.19,1.47,21.09,3.37l6.78,1.86c5.25,1.44,10.53,2.9,15.39,5.33a2.06,2.06,0,0,0,1.14.32c1-.1,1.26-1.34,1.29-2.3a58.94,58.94,0,0,0-2-17.28L466,2471c-1.09.3-2-.8-2.72-1.68-4.19-5.21-11.61-6.63-16.53-11.16-2.66-2.45-4.78-5.92-8.32-6.71a91.74,91.74,0,0,1,24.14-2.7c1.77,0,3.72.07,5.08-1.06a6,6,0,0,0,1.78-3.61,18.79,18.79,0,0,0-.27-8.24l-1.71-7.83c-1.67-20.34-3.83-40.64-6-60.94-1.42-13.27-2.84-26.62-6.52-39.45l-2.72-7.14a4.93,4.93,0,0,0-4.82-1.39,29,29,0,0,0-4.94,1.87,19.56,19.56,0,0,1-18.47-2.42,30.84,30.84,0,0,1-15.2,23.5,42.08,42.08,0,0,0-4,2.3,12.72,12.72,0,0,0-5.1,11.35Zm1.06-225c0,1.81.08,3.87,1.46,5,1,.87,2.49,1,3.52,1.85,1.64,1.34,1.58,3.89,2.76,5.65a9.19,9.19,0,0,0,3.66,2.74c.57.3,1.3.59,1.83.22s.5-1.05.5-1.65a6.91,6.91,0,0,1,1.55-4.71,3.5,3.5,0,0,1,4.58-.6c.13-1.73.81-4,2.54-3.92,2,.07,2.86,3.42,4.86,3.2,1.28-.15,1.86-1.71,1.89-3s-.13-2.73.68-3.74c1.16-1.43,3.42-1,5.17-.42a33.55,33.55,0,0,0-.44-10.34,2.32,2.32,0,0,0-.51-1.2,2.53,2.53,0,0,0-1.34-.54c-1.8-.38-3.91-1.79-3.37-3.55s3-1.77,4.75-1.44l-5.31-2.8a1.69,1.69,0,0,0-1-.28,1.63,1.63,0,0,0-.9.66A53.91,53.91,0,0,1,400.78,2140Zm334.18-193.2c-1,5.19-4.07,9.73-7.41,13.82a47.79,47.79,0,0,1-11.45,10.63A23.63,23.63,0,0,1,701.7,1977l-6.84-.31-31.63-25.5c-14.4-11.61-29.4-23.53-47.32-28.14-9.14-2.36-18.71-2.71-27.82-5.18-9.3-2.53-17.88-7.22-27-10.26-27.57-9.15-59.95-1.77-80.82,18.42-2.92,2.82-5.68,5.91-9.22,7.89-3.39,1.9-7.28,2.65-11.09,3.38l-32.18,6.16c-2.79.53-5.8,1.19-7.66,3.33-2.13,2.45-2.09,6.05-1.89,9.28a289.92,289.92,0,0,0,5.74,41.9l-4.84,10.28q.61,6,1.25,12c.17,1.61.26,3.45-.89,4.59-1.34,1.34-3.6.94-5.3.11s-3.34-2-5.23-2c-4.08,0-6.85,5.4-10.91,4.92-1.19-.14-2.45-.8-3.51-.24a3.39,3.39,0,0,0-1.12,1.14,37.24,37.24,0,0,0-3.71,6.86,42,42,0,0,0-7.4-4.15l-9-7q-7.33-25.92-15.13-51.71c-2.11-7-6.84-15.61-14-14-2.55.56-4.59,2.41-6.41,4.28-24.62,25.47-30.26,67.82-60.88,85.63-9.5,5.53-22.72,7.5-30.7,0-4.4-4.16-6.75-10.78-12.39-13-18.4,15.91-23.74,41.69-33.92,63.79-2.09,4.55-4.44,9-5.74,13.87s-1.51,10.1-2.82,15c-2.35,8.86-8.19,16.51-10.41,25.4-4.3,17.26,5.63,36.34-1,52.85a18.29,18.29,0,0,1-6.3,8.43c-5.49,3.74-12.94,2.89-19.16.55-20.12-7.54-32.95-28.23-37-49.32s-.93-42.84,2.25-64.09q2.9-19.34,5.78-38.67c2.81-18.82,5.8-38.16,15.43-54.57,10.62-18.12,28.32-31,40.87-47.79,7.19-9.65,12.6-20.52,19.62-30.29s16.13-18.73,27.68-22.14a28.83,28.83,0,0,0-12.57-1.81l-10.84-8.9a84.47,84.47,0,0,1-43.56-36.82c-3.06-5.31-6.79-11.79-12.92-11.8-7.07,0-10.53,8.36-15.63,13.26-9,8.63-24.8,5.8-33.43-3.17s-11.45-22-12.2-34.43c-1.93-31.93,7.19-65.3-4-95.28-7-18.86-21.51-34.38-27.49-53.59-3.7-11.87-3.94-24.5-4.15-36.94-.2-11.39-.15-23.62,6.28-33,2.29-3.35,5.3-6.19,7.35-9.69s3.11-7.79,4.06-11.88l19.86-84.92,8.92-17.13c.6-12.91,14.61-23.39,27.16-20.34,12.1,2.93,19.33,15.18,23.91,26.76a174.69,174.69,0,0,1,9.73,34.68c1,5.51,1.88,11.55,6.05,15.28,6.41,5.72,17,2.59,23-3.56s9.15-14.49,14.14-21.49a49.56,49.56,0,0,1,47.93-19.55,546.64,546.64,0,0,1-37-81.34c-4.53-12.61-8.59-25.37-12.48-38.19-3.15-10.36-6.18-20.77-10.09-30.87-9.15-23.63-22.95-45.19-38.12-65.48-5.84-7.81-11.92-15.5-16.51-24.09-11.93-22.28-12.93-48.69-11.91-73.95l-4.76-10.15c-50.06-11.82-83-63.61-87.51-114.84S46.19,953.72,67.93,907.11c6.65-14.25,13.67-28.38,22.27-41.55,4.69-7.19,10.08-14.29,17.61-18.42,12.27-6.74,28.3-3.93,39.45,4.53s17.93,21.65,21.42,35.2c.72,2.8,1.41,5.8,3.48,7.8,4.24,4.1,11.35,1.73,16.14-1.69s9.66-7.92,15.53-7.55c9.31.6,13.61,12.6,22.33,15.93,7.49,2.86,16.11-1.81,20.63-8.43s6-14.77,7.93-22.55c12.15-49.44,44.06-91.31,75.19-131.6,17.9-23.17,41-48.76,70.16-46.15,3.5.31,7.13,1,10.45-.1,4-1.37,6.64-5.09,9.23-8.43a97.71,97.71,0,0,1,70-37.16c9.55-.61,21,1.36,25,10,2.06,4.4,1.64,9.5,1.19,14.33-1.6,17-3.24,34.19-9,50.25s-16.28,31.1-31.51,38.79a185.82,185.82,0,0,1,27.09,94.36l-4.36,16.14a842.92,842.92,0,0,0-7,122.17,218.24,218.24,0,0,1,38-22.87c13.84-6.51,31.92-11,43.13-.55,6.5,6,8.59,15.67,7.67,24.49s-4.44,17.14-7.67,25.4c-27.66,70.81-36.3,147.6-59.64,220l-6.36,15.74q-11.76,48.52-23.53,97.07c-2.56,10.57-5.14,21.18-9.08,31.33-3.33,8.56-7.61,16.72-11.09,25.23-4.39,10.75-7.47,22-11.32,32.94a249,249,0,0,1-65.17,99.51,98,98,0,0,1,29.32,48.85l-1.81,11c-1.32,3.68,1.26,7.79.38,11.6a6.76,6.76,0,0,1-6,5.07L422,1631.14a5.52,5.52,0,0,1,1.47,1.87,7.42,7.42,0,0,1,.18,2.94c-.18,5.71,3.72,10.64,7.4,15a61.9,61.9,0,0,0,8.53,8.82c2.41,1.9,5.12,3.46,7.15,5.77s3.23,5.69,2,8.48a49.84,49.84,0,0,1-21.85-7.49c-.16,1-1.76.83-2.69.3A222.15,222.15,0,0,1,401.13,1652c-1.39.64-2.95-.51-3.79-1.78s-1.46-2.81-2.78-3.56c-1.58-.9-3.69-.38-5.25-1.32a6.34,6.34,0,0,1-1.75-1.89l-6-8.64c-1.23.63-2.64,1.27-3.93.78a14.31,14.31,0,0,1-1.56-.9c-2.16-1.16-4.8-.11-7.24-.24-6.45-.34-10.16-8.59-16.58-9.32l-2.61,1.41a21.84,21.84,0,0,1-1.13,12,19.29,19.29,0,0,0-1,2.81,13.18,13.18,0,0,0-.22,2,169.07,169.07,0,0,0,3.05,42.71,33.79,33.79,0,0,0,1.89,6.71,25.86,25.86,0,0,0,5.36,7.72c3.24,3.36,7.16,6.31,9.08,10.57l3,5.77c7.54,26.42,11.67,53.67,15.77,80.83q3,19.49,5.9,39a80.38,80.38,0,0,0,3,14.19,78.29,78.29,0,0,0,4.28,9.54,4.41,4.41,0,0,0,1.52,2,4.16,4.16,0,0,0,2.4.34c13.22-1,24.56-13.36,24.42-26.62-.05-4.47-1.23-8.83-2.36-13.16-2.42-9.23-4.66-18.57-5.24-28.09s.6-19.32,4.75-27.92a68.42,68.42,0,0,1,6.28-10.14,164.38,164.38,0,0,1,20.7-23.55c3-2.81,6.33-5.63,10.39-6.29l7.38-1.3c9.89-1,20-2,29.72-.13,1.73.32,3.45.73,5.19,1a50,50,0,0,0,6.36.23,58,58,0,0,1,12.5.92c5.57,1.21,10.69,3.93,16.14,5.58a7.64,7.64,0,0,0,4.78.29c1.15-.43,2.08-1.35,3.27-1.67,2.22-.59,4.36,1.13,5.87,2.86s3.07,3.76,5.35,4.09a26.73,26.73,0,0,1,2.84.18,6.56,6.56,0,0,1,2.12,1.12l5,3.47a3.21,3.21,0,0,1,1,.91,3,3,0,0,1,.22,1.67,30.8,30.8,0,0,1-2.82,10.65l-5,7.86q-4.51,14.61-9.05,29.23c-2.21,7.14-4.53,14.49-9.32,20.24-3.52,4.23-8.28,7.46-11,12.25s-2.16,12.21,3,14.25a13.88,13.88,0,0,0,5.41.61,303.87,303.87,0,0,1,69,6.6c6.86,1.47,13.68,3.17,20.62,4.2,10.45,1.56,21.19,1.61,31.31,4.66,9.06,2.72,17.23,7.73,25.19,12.84,11.07,7.11,22.19,14.74,29.91,25.4l5.4,7.56a71.91,71.91,0,0,1,14.07,39.22A29.84,29.84,0,0,1,735.49,1948.82Zm-412-259.33q-2.14-13.86-4.28-27.72c-.41-2.63-.87-5.41-2.57-7.46-2-2.47-5.45-3.37-8.64-3.4a21.68,21.68,0,0,0-17.79,9.35c-1.88,2.76-3.08,5.91-4.85,8.74-2.64,4.25-6.5,7.71-8.65,12.23s-1.84,10.92,2.51,13.4c2.39,1.37,5.39,1.17,8,.38s5.11-2.1,7.75-2.91c8.06-2.46,16.77.09,24.5,3.44Z"></path>
    <path data-name="2" data-official="Verena chamædrifolia" data-plain="Germander-leaved Verbena" data-loc="Bueno Ayres" d="M1268.75,2755l-6.55-3.49a2.58,2.58,0,0,0-2.44-3.25,5.54,5.54,0,0,1-1.15.05,1.92,1.92,0,0,1-1.31-1.41c-.19-.65-.19-1.34-.35-2a6.59,6.59,0,0,0-3-3.76c-1.36-.91-2.88-1.54-4.26-2.42a25.25,25.25,0,0,1-5.51-5.12,89.34,89.34,0,0,0-7.77-8.6,31,31,0,0,0-9.11-5.64l-11-2.43c-12.74-1.75-24.29-8.9-37.06-10.37-5.77-.67-11.62-.15-17.41-.69-9.11-.83-17.74-4.24-26.48-6.94a152.22,152.22,0,0,0-48.51-7.17,110.06,110.06,0,0,1-11.63,0,77.76,77.76,0,0,1-12.27-2.38c-15-3.76-30.09-7.56-44.11-14.06-5.23-2.42-10.33-5.23-15.9-6.73-9.71-2.61-20-1-30-.8s-21-1.26-28-8.45c-5-5.08-7.17-12.22-11.46-17.88l-2.09-9.59a49.77,49.77,0,0,1,.36-14.1c.84-6.37,2-12.7,3.37-19,1.16-5.24,2.51-10.5,5.06-15.21a96,96,0,0,1,6.69-9.82A106.89,106.89,0,0,0,957,2556.26a23,23,0,0,1,2.89-5.15,20.6,20.6,0,0,1,5.65-4.29l9.67-5.72,7.22-2.79c6.39-11.8,18.15-19.89,25-31.46,4.6-7.83,6.7-16.84,8.73-25.69q2.54-11.07,5.08-22.12l0-9.12-2.37-35.86a45.55,45.55,0,0,0-3.93-18l-3.12-8c-1-2.51-2-5.09-3.83-7.08s-4.69-3.25-7.27-2.44-4.21,3.5-5.4,6c-5.78,12.2-8.67,26.08-17.46,36.33-3.77,4.4-8.48,7.91-12.55,12-9.31,9.47-15.13,22-24.84,31.08a9.61,9.61,0,0,1-2.73,2,11.87,11.87,0,0,1-3,.67,58.94,58.94,0,0,0-24.65,9.62L895,2479c-7-2-14.54-.5-21,2.69s-12,8-17.36,12.87c-12.39,11.39-24.15,23.83-32.07,38.67-10.87,20.38-13.87,44-15,67a132.28,132.28,0,0,1-22.11-11.13c-10.65-6.68-20.48-15.07-27.11-25.75s-9.81-23.85-6.87-36.07c1.39-5.77,4-11.13,6.7-16.44q5-10.08,10-20.16a62.2,62.2,0,0,1,5.41-9.41c2.23-3,5-5.55,7.28-8.49,4.44-5.64,7.08-12.47,9.17-19.34a152.86,152.86,0,0,0,6.54-40.17c.26-9.5-.66-19.78-6.83-27-6.87-8.06-18.28-10.18-28.75-11.79l-7.26-9.38c-11.4-35.69-35.35-65.79-58.82-95,18,1.21,36.63-6.46,47.75-20.68s14-34.74,6.25-51.05l-2.73-8.12c-1.47-10-6.75-19.19-8.56-29.18l-5.19-7.88a10.93,10.93,0,0,1-5.47-2.05,4.23,4.23,0,0,0-1.7-.95,5.57,5.57,0,0,0-1.35.07,5.23,5.23,0,0,1-4.07-1.41c-.57-.56-1-1.24-1.58-1.8a6,6,0,0,0-6.9-1,9.52,9.52,0,0,0,1.18-5.65,24.49,24.49,0,0,0,12.28-3.51c3.59-2.37,6.29-6.38,6.28-10.69a17.35,17.35,0,0,0,16-1.87,7.85,7.85,0,0,0,2.47-2.53,8.13,8.13,0,0,0,.77-2.37c.78-4,.33-8.18-.13-12.26a7.65,7.65,0,0,0-.8-3.1c-1.35-2.27-4.84-2.88-5.62-5.41l.28-1.06c1.18-1.12,3.07-.88,4.56-1.51,2-.82,3-3.08,3-5.19a18.41,18.41,0,0,0-1.41-6.16,13.92,13.92,0,0,1-1-6.21,14.22,14.22,0,0,1-8.09-5.11,2.84,2.84,0,0,1-.76-1.72,3.48,3.48,0,0,1,.79-1.79,21.1,21.1,0,0,0,3.51-10.18,2.43,2.43,0,0,0-1.13-2.66,17,17,0,0,0-15.55-2.45,18.66,18.66,0,0,0-8.66-9.09l-1.25-9.42c2.56-15.45-6-32.08-20.12-38.93-5.54-2.69-11.65-3.93-17.7-5-8.58-1.57-17.2-2.92-25.81-4.27l-79.62-12.47c-5.38-.85-10.77-1.69-16.19-2.34-7-.82-14-1.31-21-1.81l-11.55-.81c-10.62-.74-21.33-1.49-31.9-.21A84.3,84.3,0,0,0,469.6,1978c-5.52,2.68-10.77,6-16.59,8-6.63,2.25-14.7,3.33-18.16,9.41L423.94,1998l-4.84,10.28q.61,6,1.25,12c.17,1.61.26,3.45-.89,4.59-1.34,1.34-3.6.94-5.3.11s-3.34-2-5.23-2c-4.08,0-6.85,5.4-10.91,4.92-1.19-.14-2.45-.8-3.51-.24a3.39,3.39,0,0,0-1.12,1.14,37.24,37.24,0,0,0-3.71,6.86,42,42,0,0,0-7.4-4.15l-9-7L359,2030.19a197.92,197.92,0,0,1-45.91,26c-8.73,3.5-17.75,6.4-26,11-13,7.23-23.27,18.28-33.36,29.15-4.72,5.09-9.54,10.34-12,16.81-3.27,8.54-2.06,18-.8,27.11-8.47.73-15.22,7.3-20.37,14.07-19.53,25.7-26.78,59.2-25.36,91.46.89,20.23,6.12,42.23,22.39,54.3,12.81,9.5,29.91,10.93,43.88,18.61,25.76,14.17,36.56,46.74,61.4,62.48,18.41,11.67,43.46,11.9,62.09.57L400.25,2367l-.56-11.25a12.72,12.72,0,0,1,5.1-11.35,42.08,42.08,0,0,1,4-2.3,30.86,30.86,0,0,0,15.2-23.5,19.56,19.56,0,0,0,18.47,2.42,29,29,0,0,1,4.94-1.87,4.93,4.93,0,0,1,4.82,1.39l2.72,7.14c3.68,12.83,5.1,26.18,6.52,39.45,2.15,20.3,4.31,40.6,6,60.94l1.71,7.83a18.79,18.79,0,0,1,.27,8.24,6,6,0,0,1-1.78,3.61c-1.36,1.13-3.31,1.1-5.08,1.06a91.74,91.74,0,0,0-24.14,2.7c3.54.79,5.66,4.26,8.32,6.71,4.92,4.53,12.34,6,16.53,11.16.72.88,1.63,2,2.72,1.68l3.7,8.16a58.94,58.94,0,0,1,2,17.28c0,1-.33,2.2-1.29,2.3a2.06,2.06,0,0,1-1.14-.32c-4.86-2.43-10.14-3.89-15.39-5.33l-6.78-1.86c-6.9-1.9-13.95-3.81-21.09-3.37l-6.63-7.89-6.82,1.77a30.17,30.17,0,0,0-8.61,6,6.61,6.61,0,0,0-2,3.13,5,5,0,0,0,1.35,4.26,14.55,14.55,0,0,0,3.7,2.75l6.4,4.56c2.36-.7,3.71-3.11,5.65-4.62,4-3.06,9.7-2,14.32,0a52.73,52.73,0,0,1,20,14.69c2,2.36,3.81,4.94,6.33,6.72,1.5,1.06,3.2,1.81,4.69,2.88,4.5,3.24,6.44,8.89,8.13,14.18l8,30.68,14.65,5.4a159.79,159.79,0,0,0,37.49,13.07c7.62,1.53,15.41,2.34,22.86,4.58,4.7,1.42,9.23,3.39,13.94,4.76,8,2.3,16.33,2.83,24.62,3.34l22,1.37c20.51,1.28,41.76,2.45,61-4.81,1.92-.73,4-1.54,6-.88a8.49,8.49,0,0,1,3.55,3c17.85,22,36,44.08,58.17,61.77l-.4,10.25c-35.82,2.57-71.78-.38-107.59-3.12-6.22-.48-12.54-.94-18.64.34s-12.06,4.6-15.12,10c-3.31,5.88-2.71,13.24-.63,19.67,4.5,13.91,15,24.91,25.25,35.38,6.24,6.4,12.62,12.9,20.56,17,7.38,3.8,15.69,5.3,23.52,8,7.45,2.6,14.51,6.34,22.17,8.21a95.5,95.5,0,0,0,12.26,1.88l27.63,3c19.85,2.17,40.33,4.29,59.46-1.43l11.39.62c39.24-2.33,75.55-20.86,109.53-40.64,2.59-1.51,5.25-3.06,8.21-3.53,3.19-.5,6.42.29,9.57,1,11.55,2.47,23.36,3.44,35.1,4.66a810.24,810.24,0,0,1,143.25,28.15l13.38,10.79c6.29.59,12.81,2.35,17.25,6.85,4,4.08,5.77,9.81,7.87,15.15s5,10.87,10.19,13.33c4.1,2,8.88,1.6,13.39,1.12,4.74-.51,9.72-1.22,13.51-4.12a58.35,58.35,0,0,0,4.6-4.44,26.21,26.21,0,0,1,26.31-5.63c4.06,1.44,7.71,3.88,11.77,5.32,11.12,4,23.6-.18,33.57-6.5,6.32-4,12.36-9.28,14.58-16.42S1275.88,2757.24,1268.75,2755Zm-832.44-612.3c-1.75-.57-4-1-5.17.42-.81,1-.64,2.45-.68,3.74s-.61,2.85-1.89,3c-2,.22-2.84-3.13-4.86-3.2-1.73-.07-2.41,2.19-2.54,3.92a3.5,3.5,0,0,0-4.58.6,6.91,6.91,0,0,0-1.55,4.71c0,.6,0,1.3-.5,1.65s-1.26.08-1.83-.22a9.19,9.19,0,0,1-3.66-2.74c-1.18-1.76-1.12-4.31-2.76-5.65-1-.84-2.51-1-3.52-1.85-1.38-1.17-1.47-3.23-1.46-5l-.53-2a53.91,53.91,0,0,0,27.43-16.79,1.63,1.63,0,0,1,.9-.66,1.69,1.69,0,0,1,1,.28l5.31,2.8c-1.79-.33-4.22-.3-4.75,1.44s1.57,3.17,3.37,3.55a2.53,2.53,0,0,1,1.34.54,2.32,2.32,0,0,1,.51,1.2A33.55,33.55,0,0,1,436.31,2142.68Z"></path>
    <path data-name="2a" data-official="" data-plain="Section of Flower" data-loc="" d="M121.26,2839.21l-7.73-65.39c-.71-6-1.57-12.28-5.47-16.83-7.75-9-21.94-6.14-33.82-5.51-16.31.87-34.15-5.33-42.23-19.53-6-10.56-5.68-23.44-5.19-35.59.44-10.73.9-21.59,4.06-31.85s9.37-20,18.8-25.15c14.35-7.81,34.79-4.62,44.86-17.48,5.64-7.2,5.88-17.17,9.54-25.56,7.88-18.06,29.77-25.33,49.44-26.63,11.06-.74,22.67-.11,32.41,5.2,12.4,6.77,19.75,19.91,26.15,32.52,5.31,10.46,10.55,21.6,10,33.32-.17,3.66-.84,7.63,1.07,10.75a12.88,12.88,0,0,0,5.49,4.37c17.13,8.54,40.59,8.51,50.3,25,3.24,5.51,4.24,12,4.88,18.37a203,203,0,0,1,.77,31.09c-.36,7.07-1.17,14.35-4.64,20.51-5.75,10.23-17.64,15.35-29.11,17.86a106.91,106.91,0,0,1-35.27,1.72c-1.7-.2-3.51-.43-5.07.27-2.72,1.22-3.56,4.61-4,7.56a508.33,508.33,0,0,0-1.79,151.27c.46,3.32.94,6.79-.17,9.95-2.48,7.06-11.23,9.25-18.66,10.13a347.66,347.66,0,0,1-53.3,2.24c-2.43-.09-5-.22-7.1-1.38-6.87-3.7-5.09-13.81-3-21.33a126.09,126.09,0,0,0-3.24-76.48Z"></path>
    <path data-name="2b" data-official="" data-plain="Ovary and Pistil" data-loc="" d="M344.47,2814c1.4-31.3,2.8-62.75-.67-93.88s-12-62.21-29.13-88.46c-13.88-21.29-33.7-40.42-37.39-65.57-1-7.09-.4-15.1,4.63-20.21s13.29-5.91,20.66-6.23l22.36-1c10.27-.45,21.35-.69,29.84,5.1,13.56,9.23,14.13,28.53,14.65,44.93,1.12,35.18,8.48,69.83,12.26,104.82,2.48,22.88,3.42,45.89,3.82,68.9.3,17,.32,34.12,4.3,50.63,3.56,14.75,10.18,28.55,15.77,42.67a318.46,318.46,0,0,1,16.34,55.62c4.33,22,6.22,45.31-1.51,66.33-2.57,7-6.42,13.86-12.68,17.88-5,3.22-11.07,4.3-17,5.14a307.94,307.94,0,0,1-40.7,3.09,15.78,15.78,0,0,1-6.94-1c-6.91-3.3-5.65-13.19-6.45-20.81s-4.58-14.32-7.7-21.2c-17.87-39.42-13.81-88,10.37-123.89Z"></path>
    <path data-name="2c" data-official="" data-plain="Calyx and Bract" data-loc="" d="M522,2852.63c.88-13.43,1.76-27-.45-40.3-4.57-27.56-22-51.9-25.36-79.64-1.13-9.43-.28-19.81,5.88-27,4.93-5.78,12.45-8.6,19.77-10.65a156.86,156.86,0,0,1,55.3-5.28c5.62.47,11.36,1.29,16.3,4s9,7.65,9.21,13.28c.13,3.47-1.17,6.81-2.39,10.06a297,297,0,0,0-18.52,119.2c.45,8.7,1.87,18.49,8.92,23.6,3.34,2.43,7.69,3.54,10.37,6.69s3.1,8,3.06,12.36a145.76,145.76,0,0,1-7.84,45.67c-2.41,7.05-5.41,14.38-4,21.69,1.84,9.72,11,17,12,26.89.47,4.89-1.2,9.71-3.07,14.24-1.34,3.27-2.93,6.63-5.79,8.69-3.27,2.35-7.55,2.56-11.57,2.68l-43.49,1.32c-4.14.13-8.57.18-12-2.08-4.05-2.64-5.73-7.77-6.12-12.6-.73-9,2-18,3.46-26.93,4.8-29.73-4.7-60-3.35-90.06Z"></path>
    <path data-name="2d" data-official="" data-plain="Stamens" data-loc="" d="M636.67,2834.32c2.64-11.9,12.5-21.53,24.08-25.33s24.53-2.2,35.59,2.92c5,2.32,9.8,5.36,15.24,6.21,7.51,1.18,14.91-2,22.32-3.65s15.14-1.9,22.32.35,13.7,7.17,17,13.94c4,8.16,2.9,17.82.82,26.65-4.26,18.12-12.41,35.37-14.28,53.89-1.22,12.09.3,24.28-.22,36.42-.3,6.92-1.42,14.2-5.78,19.57-2.34,2.88-5.46,5-8.52,7.09-7.86,5.35-15.94,10.79-25.16,13.08-7.65,1.91-15.66,1.53-23.53,1.14l-23.2-1.14c-3-.15-6.11-.31-8.86-1.56-9.9-4.49-9.45-19-16.39-27.34-2.46-2.95-5.78-5-8.6-7.65-8.32-7.69-11.72-19.53-11.85-30.86s2.61-22.47,4.78-33.59,3.8-22.64,1.45-33.73Z"></path>
    <path data-name="3" data-official="Clerodendrum fallax" data-plain="Scarlet Clerodendrum" data-loc="East Indies" d="M2029.83,2226.26c-3.4-17.94-7.72-35.69-12-53.44-1.4-5.76-2.86-11.65-6.09-16.62a46.83,46.83,0,0,0-7.43-8.36c-7.66-7.24-16.3-14.21-26.66-16.18l-18.4,0c-2.27.86-4.81.2-7.11-.59-3.38-1.16-6.69-2.59-10.2-3.27s-7.32-.53-10.4,1.29l-.27-1.21a5.41,5.41,0,0,0-.91-4.4,17.74,17.74,0,0,0-3.21-3.33,106.6,106.6,0,0,1-11.17-11.42,9.5,9.5,0,0,0-2.85-2.59,14.79,14.79,0,0,0-2.31-.73,12.59,12.59,0,0,1-7.46-6c-2.79-5.06-1.75-11.27-2.28-17a30.42,30.42,0,0,0-6.83-16.5l-1.11-.24a19.94,19.94,0,0,1-14.41,2.07c-2.62-.63-5.14-1.8-7.83-2-3.74-.29-7.35,1.29-11.06,1.85a42.15,42.15,0,0,1-5.39.32l-10.32.15,0-.38c1.91-3.48,6.42-4.47,10.39-4.64s8.26,0,11.5-2.31c3.43-2.44,4.59-6.9,6.79-10.49a19.63,19.63,0,0,1,11.63-8.64l-.41-.51a6.77,6.77,0,0,1-5.53-.57,13.48,13.48,0,0,1-4.17-3.86,27,27,0,0,1-4.36-8.67,38.69,38.69,0,0,0-2.09-6.68,11.29,11.29,0,0,0-5-5c4.32-3,10.11-2.09,15.26-1.09A47,47,0,0,1,1888,2018a15.81,15.81,0,0,1,7.74,6.56c-.77-1.89,1-3.85,1.12-5.89s-1.33-3.52-2.14-5.26c-1.27-2.77-1-6-2.06-8.89-.58-1.59-1.58-3-1.9-4.71-.6-3.07,1.16-6.22.6-9.3l.35-7.14c-.46-2.66-.93-5.31-1.39-8a8.43,8.43,0,0,1-.18-2.69,9.19,9.19,0,0,1,1.44-3.23c8.38-14,10.63-31.11,19.87-44.53l1.86-6.79c1.85-10.51,2.48-21.57-1-31.65s-11.93-19-22.49-20.55l-18.46-2.68a12,12,0,0,1-5.77-1.14c-8-3.14-15.83-8.42-18.7-16.5-2.32-6.51-1.06-13.89-3.45-20.37l-9.39,1.39c-2.11-.47-4.44.7-6.43-.15a6.64,6.64,0,0,1-1.75-1.24,19.19,19.19,0,0,1-3.92-4.28,15,15,0,0,1-1.88-5.83,26.09,26.09,0,0,1,.49-9.52l-.15-4.54a40.61,40.61,0,0,0-12.45-19.44l-2.75-2.15c-1-.76-1.47-2-2.18-3.08s-2-2-3.18-1.45a5.56,5.56,0,0,0,0-2.75,1.87,1.87,0,0,0-2.16-1.29c-.36-1.36.4-2.75.44-4.15a5.83,5.83,0,0,0-1.63-3.87,41.52,41.52,0,0,0-3.14-2.93c-5-4.66-7.16-11.5-9.15-18l-1.8-12.28-1.38-39.06c-.14-3.93-.29-7.94-1.75-11.59-2.57-6.45-8.67-10.64-14-15-23-18.8-36.67-46.62-47.13-74.43-2.52-6.72-5-13.61-9.35-19.29-8.29-10.76-22.05-15.45-35-19.6L1590,1523.87l-31.11,1.83a23.26,23.26,0,0,1-13.82-9.54c-8.45.67-17.62-.15-24.15-5.55a42,42,0,0,1-4.25-4.29l-11.91-13.27-4.93-3.22a57.84,57.84,0,0,0-18.71-14.35,15.91,15.91,0,0,0-5.78-1.81c-3.16-.2-6.16,1.22-9.18,2.18-5.2,1.67-10.71,2-16.16,2.38l-6.25,1.46c-13,5.51-28.38,10.94-40.71,4-1.44-.81-2.87-1.81-4.51-2-1.84-.17-3.58.74-5.33,1.35-11.72,4.1-23.76-5-36.13-6.17-13.76-1.29-26.38,7.35-40,9.89a46.34,46.34,0,0,1-26.15-2.77c-3.58-1.5-7.32-3.5-11.13-2.74-2.52.49-4.63,2.13-6.75,3.58a56.44,56.44,0,0,1-38.06,9.35c-2.61-.31-5.35-.79-7.79.18-2.07.82-3.61,2.56-5.32,4-9.83,8.13-25.27,5.65-35.51,13.26-6.45,4.79-10.67,13.43-18.6,14.72-4.37.71-10.27-.35-12,3.73l0-1.87a19.2,19.2,0,0,0,11.82-20.74,18,18,0,0,0,16.34-14.9c.58-4-.2-8,.56-12a15.66,15.66,0,0,1,5.77-9.35,6.1,6.1,0,0,0,2.41-2.53c.59-1.75-.8-3.47-1.84-5a16.63,16.63,0,0,1-2.37-13.48l.19-.1,13.9,15.63a33.33,33.33,0,0,0,4.43,4.38,32.83,32.83,0,0,0,6.07,3.41l17.92,8.45c3.74,1.76,7.84,3.57,11.88,2.67,3-.68,5.51-2.79,8.19-4.34,5.38-3.12,11.7-4,17.69-5.69s12.18-4.35,15.42-9.66c2.9-4.76,2.92-10.8,5.46-15.77,3.26-6.35,10.05-9.94,16.43-13.14-4.48-8.9-2.75-19.61.1-29.15.86-2.87,1.82-5.77,1.84-8.77s-1.06-6.18-3.54-7.87a27,27,0,0,0,13.57-8.81c3.44-4.17,5.53-9.26,7.57-14.27q5-12.33,10-24.65a4.15,4.15,0,0,0,.43-1.85c-.12-1.34-1.45-2.18-2.52-3a13.22,13.22,0,0,1-3.94-15.54l-5.45-.14a54.19,54.19,0,0,1,14.69-20.22l2.51-6.23a169.39,169.39,0,0,0-10.31-42.54c-1.39-3.62-3-7.38-6.21-9.64L1322,1238a4,4,0,0,1-2.15-3.77c-1.86-3-6-3.13-9.51-3.32-6.34-.35-12.75-2-17.92-5.66s-8.94-9.63-9.05-16a10.08,10.08,0,0,0-7.06-.67,5.77,5.77,0,0,1-2.73.41,4.45,4.45,0,0,1-1.65-1l-3.86-3-5.81-4.18c-14.87-4.82-30.22-9.7-45.8-8.42-4.12.33-8.41,1.08-12.27-.4-2.64-1-4.78-3-6.89-4.82-3.46-3.07-7.08-6.08-11.32-7.93s-9.24-2.43-13.47-.56c-2.84,1.26-5.15,3.51-8,4.72a24.56,24.56,0,0,1-6.47,1.43l-32,4.11c-4.7.61-10.57.66-12.88-3.47-1.5-2.69-.65-6.23,1.39-8.53a14.78,14.78,0,0,1,8-4.16c4-.87,8.35-.94,11.77-3.2a19.15,19.15,0,0,0,4.37-4.43c20-25.89,26.56-61.65,17-92.95l.26-14.85c-6.79-22.44-31.51-33.08-52.53-43.47-4.62-2.28-9.66-5.26-10.89-10.28-.69-2.83,0-5.79.62-8.63a194.27,194.27,0,0,0,4.4-48.33c-.59-17.2-3.45-34.45-1.32-51.52,3.13-25,16.65-47.39,29.87-68.88l16.72-27.2c2.72-4.43,5.49-8.91,9.25-12.5,8.13-7.78,19.75-10.42,30.75-12.74-1.81,27.47,2.73,54.92,7.26,82.07.64,3.83,1.37,7.88,3.91,10.82,2.14,2.47,5.27,3.81,8.32,5,43.42,16.42,91.77,9.59,137.55,1.92,5.7-.95,11.73-1.89,17.12.21,4.56,1.77,8,5.5,12.15,8.19a30.19,30.19,0,0,0,22.6,4.21l7.38-3c3.87,0,7.41-2,10.85-3.78a118,118,0,0,1,18.17-7.51c6.65-2.12,13.51-3.65,20-6.34s12.59-6.72,16.28-12.65c2.31-3.71,3.55-8,5.46-11.91s4.79-7.74,8.94-9.13l1.4-1.36a31.31,31.31,0,0,1,6.32-8.07c1.32,2.9.94,6.31-.1,9.32s-2.68,5.77-3.92,8.7a55.44,55.44,0,0,0-3.52,14.34c-1.59,11.73-1.37,24.69,5.88,34l0,1.11a10.17,10.17,0,0,0,.17,5,3.06,3.06,0,0,0,1.57,2.13c1.35.53,2.71-.69,3.57-1.85a27.23,27.23,0,0,0,5-11.84c.18-1.12.23-2.41-.58-3.2a2.84,2.84,0,0,0-3.47.07,26.49,26.49,0,0,0-2.68,2.62,1.34,1.34,0,0,1-.77.42c-.58,0-.94-.62-1.13-1.16-2.94-8.19-1.83-17.21-.69-25.83,1-7.43,2-14.91,4.39-22h1a37.69,37.69,0,0,1,3.6,7.46c.74,2.37,1,4.87,1.67,7.27a49.58,49.58,0,0,0,3.12,7.51c3.79,8.05,6.83,16.43,9.86,24.79l5.19,14.29a34,34,0,0,0-4.8,11.39c-.22,1-.29,2.29.59,2.82s2-.14,2.83-.82q2.75-2.31,5.28-4.86c2.43-2.45,4.84-5.44,4.72-8.89a1.4,1.4,0,0,0-.28-.92,1.38,1.38,0,0,0-1-.35,10.7,10.7,0,0,0-3.09.22c-4.92-12.71-9.85-25.44-13.55-38.56-2.77-9.84-4.89-20-9.73-29a4.57,4.57,0,0,1-.66-1.79,4.76,4.76,0,0,1,.29-1.61,16.34,16.34,0,0,0,.49-6.45,7.77,7.77,0,0,1-.07-2.84,6.51,6.51,0,0,1,1.11-2,31.72,31.72,0,0,1,5.62-6.38,10.57,10.57,0,0,1,7.9-2.49l.62.93a114.44,114.44,0,0,0,5.79,17.76,43,43,0,0,0,10.71,15.15l.06,1.22c.55,12.34,1.39,25,6.23,36.32.69,1.62,1.46,3.5.62,5-.34.62-.89,1.09-1.27,1.67a7.09,7.09,0,0,0-.86,3.19c-.18,1.67,0,3.86,1.58,4.35,1.21.37,2.4-.56,3.33-1.42a45.1,45.1,0,0,0,7.66-8.39,6.23,6.23,0,0,0,1.09-2.67,2.51,2.51,0,0,0-1.2-2.47c-1.6-.8-3.28.85-5,1.33-5.72-10.43-5.52-23-5.18-34.87l1.48.26A27.67,27.67,0,0,0,1547.75,855a3.72,3.72,0,0,1,1.52,1.33,3.37,3.37,0,0,1,.28,1.33c.51,6.87,1.22,14.25,5.73,19.46q.24-7.23.49-14.46a1.59,1.59,0,0,1,.36-1.15c.23-.2.56-.24.81-.43.51-.37.47-1.14.41-1.78a19.7,19.7,0,0,1,2.55-11.73l-3.65-1.47c.73-3.53-.64-7.11-1.4-10.63-.95-4.36-1-8.86-1.48-13.3-.9-7.8-3.35-15.33-4.89-23a6.83,6.83,0,0,1-.13-2.91c.42-1.7,2-2.8,3.52-3.74l3.94.36a73.74,73.74,0,0,0,18.37,3c4.24.14,8.73-.16,12.3-2.46,2.64-1.72,4.54-4.39,7.09-6.25,5.51-4,12.93-3.61,19.75-3.71a103.17,103.17,0,0,0,22-2.67,20,20,0,0,0,7.82-3.16l4.31-1.85a40.74,40.74,0,0,0,15.16-13.45,13.23,13.23,0,0,0,2.3-5,5.7,5.7,0,0,0-1.51-5.14,16.08,16.08,0,0,0-2.53-1.59,18.76,18.76,0,0,1-3.52-3.14l-10.37-11-4,1.71a31.47,31.47,0,0,0-16.57-3.6c-3.58.22-7.28,1-10.7,0-2.48-.79-4.53-2.49-6.69-3.92-5.56-3.66-12.07-5.58-18.58-6.93A66.5,66.5,0,0,0,1576,722a45.21,45.21,0,0,0-21.79,6l-.79-.19a26.6,26.6,0,0,0,6.75-5.82,37.59,37.59,0,0,0,3.12-5.8c5-10.19,14.52-18.85,25.83-19.94,5.46-.52,11,.71,16.44,0,8.58-1.19,15.65-7.09,22.18-12.79,6.11-5.33,12.29-10.84,16.36-17.86,1.65-2.84,3-6.07,2.56-9.32l-.31-1.55c.05-1.2-1.36-2-2.55-1.86a8.82,8.82,0,0,0-3.22,1.52c-5,3-11.4,2.69-16.93.86s-10.5-5-15.67-7.72c-2.86-1.5-5.9-2.88-9.12-3a26.88,26.88,0,0,0-7.62,1.25c-7,1.77-14.47,3-21.14.42-2.72-1.06-5.2-2.74-8-3.44a15.87,15.87,0,0,0-4.66-.38c-8.1.42-15.3,5.11-21.74,10-4.68,3.57-9.37,7.56-11.7,13a20.69,20.69,0,0,1-2.28-11.4c.29-3.19,1.26-6.65-.37-9.39l-.9-2.23a19.09,19.09,0,0,0-7-9.63c-2.29-1.64-5.09-2.93-6.23-5.5-.46-1-.6-2.21-1.09-3.24a15.55,15.55,0,0,0-2.75-3.38c-2.4-2.69-3.76-6.17-6-9-3.25-4-8.06-6.22-12.58-8.64-2.23-1.19-4.69-2.86-4.82-5.39,0-.7.12-1.41.1-2.12-.07-2.66-2.59-4.59-5.07-5.54s-5.24-1.42-7.32-3.08l-.7,1.25a10.76,10.76,0,0,1-3.45,7.73,10.47,10.47,0,0,0-2.39,2.45,9.26,9.26,0,0,0-.73,2.57c-1,4.71-4.42,8.48-7.69,12a4.71,4.71,0,1,1-3.59,8.38c1,4.14,1.78,9.28-1.5,12-1,.81-2.23,1.33-2.88,2.41a5.61,5.61,0,0,0-.62,2.43,100.81,100.81,0,0,0-.1,17.2l-1.46-3.93c.26-4.35-2.89-8.08-4.27-12.21-.6-1.8-.86-3.7-1.51-5.48a26.4,26.4,0,0,0-4.1-6.72c-3.71-4.91-7.44-9.85-12-14s-9.9-7.61-15.91-8.94c-2-.43-4-.67-5.71-1.78a12.61,12.61,0,0,1-2.93-3.16c-4-5.4-8-10.93-9.93-17.32l7.13-1a24.39,24.39,0,0,1,15.92-14.66c2.73-.78,5.57-1.07,8.34-1.68a36.26,36.26,0,0,0,8.21-2.89,9.82,9.82,0,0,0,4.23-3.36c1.61-2.64.86-6.19,2.35-8.9l2.47-3,6.72-4.21a2.12,2.12,0,0,1,1.16-.43,2.34,2.34,0,0,1,1.22.62,11.38,11.38,0,0,0,7.79,2.25,5.81,5.81,0,0,0,3.56,5.41c2.17.75,5-.67,5.22-3s-1.74-4-3.8-4.73-4.3-.76-6.37-1.45c-5.68-1.92-8.52-8.29-9.63-14.19a14.92,14.92,0,0,1,.07-7.51c1.1-3.28,4-5.61,7.09-7.22a36.56,36.56,0,0,1,15.95-3.91c9.78-.28,19.39,2.61,29.17,2.81,8.54.17,17-1.72,25.24-3.94,6.6-1.78,13.76-4.25,17.15-10.18l13.09-8.16c15.17-34.41,13.2-75.88-5.15-108.7-3-5.44-6.56-10.79-7.79-16.9-1.42-7.06.36-14.32,1-21.51,2-24.13-10.57-48.91-31.27-61.49-12.75-7.75-27.73-10.91-41.27-17.2s-26.56-17.42-28.08-32.28c-.93-9.09,2.61-18,5.17-26.74A128.58,128.58,0,0,0,1337,40.58c-13.33-2-27-2-40-5.44-18.72-5-35.07-16.93-53.93-21.35-49-11.49-94.78,29.89-144.88,35.08-35.76,3.7-70.41-11.28-104.17-23.62S922.34,3.08,889,16.59c-7.27,2.94-14.12,7-21.63,9.22-19.47,5.87-40.19-.61-60.13-4.57s-43.34-4.36-57.52,10.2c-5.16,5.3-8.57,12.13-13.9,17.26-14.56,14-37.67,11.21-57.76,13.43-32.84,3.64-63.34,24.23-79,53.33l-12.7,17.39c-23.07,36.89-76.8,47.24-96,86.31-6.9,14.05-8.29,30.18-7.66,45.81a193.27,193.27,0,0,0,7,44.38c2,7.31,4.51,15.23,1.71,22.28-1.55,3.89-4.53,7-7.48,10C445,380.7,396.67,414.87,378.38,467c-8.06,22.93-9.49,47.61-9.77,71.91-.16,14.32.1,29,4.93,42.44,10.33,28.86,38.92,46.49,66,60.8l16.52,13.38a96.23,96.23,0,0,1,33.68-8.56c9.55-.61,21,1.36,25,10,2.06,4.4,1.64,9.5,1.19,14.33l9.14,29.06c22.78,10,49.22,2.19,72-7.67s46.13-22,71-20.49c5.52.33,11.45,1.6,15.08,5.77,3.82,4.4,4.07,10.77,4.12,16.6q.2,22.35.38,44.7c0,3.83.08,7.75,1.42,11.34,2.86,7.66,11,12.14,19,13.84s16.31,1.28,24.37,2.66c20.7,3.55,37.36,18.25,54.85,29.87,22.35,14.84,47.33,25.18,72.24,35.14,13,5.19,26.3,10.36,40.27,11s28.95-3.93,37.37-15.1c2.88-3.81,5.42-8.63,10.07-9.71,5-1.14,9.57,2.59,13.29,6q18.21,17,36.44,33.91c5.15,4.79,10.44,9.78,13.21,16.24,2.58,6,2.74,12.72,2.77,19.24q.18,34.93-3.08,69.76A264.11,264.11,0,0,0,876.26,907.8c-15.93-1.85-32.18-2.22-47.91.87s-30.34,9.43-45.7,13.52c-21.69,5.77-44.6,7-65.59,14.94s-40.82,25.27-42.21,47.68l4.81,24.35c.93,12.61,8.62,23.87,18,32.35s20.49,14.76,30.88,22A203.77,203.77,0,0,1,771,1102.88c-20.24,4.87-41,9.94-58.34,21.4a120.8,120.8,0,0,0-19.44,16.4,181.84,181.84,0,0,0-40.88,64.77c-5.17,14.19-8.55,29-11.92,43.67-10.92,47.73-21.9,95.86-23,144.81-.71,30.38,2.38,60.71,5.46,90.94l-12.22,14.51a1130.54,1130.54,0,0,0-138.15,64.53c-15,8.29-30.09,17-46.77,21l-10.26,5.19-1.81,11c-1.32,3.68,1.26,7.79.38,11.6a6.76,6.76,0,0,1-6,5.07L422,1631.14a5.52,5.52,0,0,1,1.47,1.87,7.42,7.42,0,0,1,.18,2.94c-.18,5.71,3.72,10.64,7.4,15a61.9,61.9,0,0,0,8.53,8.82c2.41,1.9,5.12,3.46,7.15,5.77s3.23,5.69,2,8.48a49.84,49.84,0,0,1-21.85-7.49c-.16,1-1.76.83-2.69.3A222.15,222.15,0,0,1,401.13,1652c-1.39.64-2.95-.51-3.79-1.78s-1.46-2.81-2.78-3.56c-1.58-.9-3.69-.38-5.25-1.32a6.34,6.34,0,0,1-1.75-1.89l-6-8.64c-1.23.63-2.64,1.27-3.93.78a14.31,14.31,0,0,1-1.56-.9c-2.16-1.16-4.8-.11-7.24-.24-6.45-.34-10.16-8.59-16.58-9.32l-2.61,1.41a21.84,21.84,0,0,1-1.13,12,19.29,19.29,0,0,0-1,2.81,13.18,13.18,0,0,0-.22,2,169.07,169.07,0,0,0,3.05,42.71,33.79,33.79,0,0,0,1.89,6.71,25.86,25.86,0,0,0,5.36,7.72c3.24,3.36,7.16,6.31,9.08,10.57l3,5.77,11.82,0c8.81,2.46,16.47,7.79,24.56,12s17.36,7.55,26.26,5.45l18.82-1.07c3-2.81,6.33-5.63,10.39-6.29l7.38-1.3c9.89-1,20-2,29.72-.13,1.73.32,3.45.73,5.19,1a50,50,0,0,0,6.36.23,58,58,0,0,1,12.5.92c5.57,1.21,10.69,3.93,16.14,5.58a7.64,7.64,0,0,0,4.78.29c1.15-.43,2.08-1.35,3.27-1.67,2.22-.59,4.36,1.13,5.87,2.86s3.07,3.76,5.35,4.09a26.73,26.73,0,0,1,2.84.18,6.56,6.56,0,0,1,2.12,1.12l5,3.47a3.21,3.21,0,0,1,1,.91,3,3,0,0,1,.22,1.67,30.8,30.8,0,0,1-2.82,10.65L581,1763a149.83,149.83,0,0,0,42.34,11.26c13.4,1.52,27,1.23,40.34,2.91,30.42,3.8,60.25,17.71,90.53,12.91q-12.36,45.35-24.71,90.67l-7.72,21.73a71.91,71.91,0,0,1,14.07,39.22,29.84,29.84,0,0,1-.34,7.13c-1,5.19-4.07,9.73-7.41,13.82a47.79,47.79,0,0,1-11.45,10.63A23.63,23.63,0,0,1,701.7,1977L700,1997.12c14.08,6.85,22.68,23.48,20.12,38.93l1.25,9.42a18.66,18.66,0,0,1,8.66,9.09,17,17,0,0,1,15.55,2.45,2.43,2.43,0,0,1,1.13,2.66,21.1,21.1,0,0,1-3.51,10.18,3.48,3.48,0,0,0-.79,1.79,2.84,2.84,0,0,0,.76,1.72,14.22,14.22,0,0,0,8.09,5.11,13.92,13.92,0,0,0,1,6.21,18.41,18.41,0,0,1,1.41,6.16c0,2.11-1.06,4.37-3,5.19-1.49.63-3.38.39-4.56,1.51l-.28,1.06c.78,2.53,4.27,3.14,5.62,5.41a7.65,7.65,0,0,1,.8,3.1c.46,4.08.91,8.23.13,12.26a8.13,8.13,0,0,1-.77,2.37,7.85,7.85,0,0,1-2.47,2.53,17.35,17.35,0,0,1-16,1.87c0,4.31-2.69,8.32-6.28,10.69a24.49,24.49,0,0,1-12.28,3.51,9.52,9.52,0,0,1-1.18,5.65,6,6,0,0,1,6.9,1c.57.56,1,1.24,1.58,1.8a5.23,5.23,0,0,0,4.07,1.41,5.57,5.57,0,0,1,1.35-.07,4.23,4.23,0,0,1,1.7.95,10.93,10.93,0,0,0,5.47,2.05l5.19,7.88c1.81,10,7.09,19.14,8.56,29.18l2.73,8.12a46.47,46.47,0,0,1,4.35,19.19l9.05,4.23c5.8,21.3,27.35,33.69,47,43.79l50.5,26c8,4.12,16.14,8.28,25,10.2,8.12,1.77,16.53,1.56,24.85,1.54,16.46,0,32.93.71,49.32,2.24,9.3.87,19,2.16,26.58,7.64,14.14,10.26,15.35,30.5,15.24,48l5.26,19.78c1.84,2,2.85,4.57,3.83,7.08l3.12,8a45.55,45.55,0,0,1,3.93,18l2.37,35.86,0,9.12q-2.54,11.05-5.08,22.12l15.72,46.88c2.27,5.49,2.47,11.61,4.24,17.28s5.22,11.51,3.79,17.35c-.71,3-2.64,6-1.37,8.79s4.94,3.3,7.91,2.8a3.2,3.2,0,0,1,1.94,0c.94.45,1.14,1.69,1.21,2.73.11,1.73.22,3.45.34,5.18.07,1.16,0,2.62-1.12,3-.43.16-1,.13-1.24.5a1.21,1.21,0,0,0-.11.88c.15,1.27.31,2.53.46,3.8a10,10,0,0,0,.68,2.93c1.13,2.46,4,3.55,6.72,3.84s5.47,0,8,.9a10,10,0,0,1,6.57,9.85,7.38,7.38,0,0,1-1.81,4.52,9.35,9.35,0,0,1-5.22,2.5,22.24,22.24,0,0,1-19-5.41,44.1,44.1,0,0,1-23.06,20.37l-2.85,2.75c-1.11,1.82-2.22,3.64-3.25,5.51a56.72,56.72,0,0,0-7.37,24.67l-4.37,5.76c5.57,1.5,10.67,4.31,15.9,6.73,14,6.5,29.12,10.3,44.11,14.06a77.76,77.76,0,0,0,12.27,2.38,110.06,110.06,0,0,0,11.63,0,143.06,143.06,0,0,1,30.68,2.68l4.69-5.26c4.67-5.48,10.11-10.41,13.66-16.67s4.84-14.5.86-20.5l-11.3-14.62a9.77,9.77,0,0,1-9,1.89c-2.38-.72-4.8-2.38-7.14-1.52-1.2.44-2.09,1.48-3.22,2.08s-2.88.51-3.31-.7a2.91,2.91,0,0,1,.27-2c2.45-6.28,5.41-13,11.42-16.1,1.58-.8,3.4-1.38,4.44-2.81s1-3.61.88-5.5l-1.23-16.26-1.55.42c-2.15,1.81-5.35,2-7.49,3.76-1,.85-1.77,2.06-3,2.47a2.76,2.76,0,0,1-3.59-3.07,5.15,5.15,0,0,1,2.24-3,34.9,34.9,0,0,1,6.93-4.18l.12-.25a25.36,25.36,0,0,0-12.84-2.25c-2.5.23-5,.82-7.49.33-5.73-1.16-8.75-7.54-13.85-10.38,1.9-.27,2.91-2.33,4.4-3.54,2.64-2.15,6.5-1.46,9.81-.66l11.35,2.75.72-1c-2-6-7.86-9.75-13.56-12.47s-11.88-5.07-16-9.87c-3.58-4.19-5.11-9.82-5.22-15.32l.93-.18a23.5,23.5,0,0,1,10.46,1.71c3.38,1.46,6.27,3.83,9.12,6.18,8.28,6.85,16.79,14,21.8,23.46a24.85,24.85,0,0,1,2.28-13l3-9.12c3.22-54.85-13.61-109.6-8.75-164.32l.22-20.27-3-72.31c-.34-8.32-.68-16.71.54-24.94a6.49,6.49,0,0,1,1.14-3.26c1-1.23,2.72-1.58,4.28-1.86l41-7.29c4.86-.86,9.9-1.8,13.93-4.64,8.06-5.69,9.88-17.27,17.4-23.66a20.81,20.81,0,0,1,19.61-3.54,24.89,24.89,0,0,1,14.69,13.87c1,2.36,1.73,4.93,3.44,6.83a14.28,14.28,0,0,0,4.77,3.19,56.35,56.35,0,0,0,25.4,5.26l4.17.3c4.1.89,8.39,0,12.35-1.45s7.74-3.31,11.78-4.47a5.87,5.87,0,0,1,2.9-.28,6.47,6.47,0,0,1,2.72,1.75c3.86,3.53,7.94,7.42,9,12.56a2.2,2.2,0,0,1,2.64,1.29,6.4,6.4,0,0,1,.31,3.2l6.44.58a19.43,19.43,0,0,1,2.15.27c4.11.86,7.12,4.33,9.43,7.83l5.33-.82c3.32,2.36,7.49,3.19,11.56,3.37,12.09.56,24-4.08,36-3.58a35.38,35.38,0,0,0,7.56,0c2.49-.43,5-1.8,6-4.13l2.18-2.74a26.43,26.43,0,0,1,22.85-6.51,13.94,13.94,0,0,0,1.81.3,13.63,13.63,0,0,0,1.91-.08c5.53-.38,11,1.36,16,3.88,3.27,1.66,7,3.72,10.37,2.33l0-1.08c-2.21.27-4.32-1.29-5.35-3.26a15.13,15.13,0,0,1-1.33-6.47,5.81,5.81,0,0,1,.79-3.93c.85-1.07,2.87-1.21,3.41,0l.91-.59a10.3,10.3,0,0,1,10.94-6.82,7.37,7.37,0,0,0,2.19.17,6.74,6.74,0,0,0,2-.89,11.53,11.53,0,0,1,4.24-1.32,5.15,5.15,0,0,1-2-2.36,2.46,2.46,0,0,1,.76-2.79,3.57,3.57,0,0,1,1.61-.46,20.8,20.8,0,0,1,8.62.93l1.5-.06a16.59,16.59,0,0,1,8.59-6.68c4.79-1.83,10.32-2.19,15,0s8.15,7.1,7.7,12.21a4.24,4.24,0,0,1,5.23-.23c1.93,1.47,2.17,4.23,2.25,6.65a19.5,19.5,0,0,1,17.6-.49c2.21,1.06,4.19,2.53,6.41,3.57s4.82,1.61,7.11.74l3.63,2.49c2.44-1,5.29-.22,7.63,1s4.45,3,7,3.84a23.71,23.71,0,0,0,6.45,1l12.89.73a26.6,26.6,0,0,1,6.71,1c2.51.81,5.58,2.27,7.48.44l8.48-5.34c1.18-.24,1.35-1.85,2.11-2.8a5,5,0,0,1,1.77-1.21,50,50,0,0,0,8.69-5.55c1.9-1.51,3.78-3.22,6.13-3.88s5.25-.15,7.64-1.15l.78-5.27a46.62,46.62,0,0,1,9.08-5.65l19.09-9.93c8.65-4.51,17.91-9.14,27.63-8.25l5.7.17a281,281,0,0,0,40-17l6-5.59a155,155,0,0,0,25.67-5.25c8.5-2.51,17-5.78,25.87-5.64l3.87,0,10.32-3.94a29.06,29.06,0,0,0,4.72-2.14,20.85,20.85,0,0,1,4.3-2.44c2.51-.78,5.25.13,7.51,1.49a2.36,2.36,0,0,0,1.4.49,2.62,2.62,0,0,0,1.28-.7,8.26,8.26,0,0,1,6.64-1.08,24.3,24.3,0,0,1,6.35,2.75l4.61,2.2a27.69,27.69,0,0,0,13.7-2.35l1.25-1.42c4.32-2.73,9.56-3.44,14.63-4.09,6.81-.88,13.7-1.75,20.54-1.06,1.75.17,3.49.45,5.25.48,2.61,0,5.28-.5,7.81.15,3.18.82,5.59,3.35,7.82,5.77l7.31,2.14c10.95-.25,22.27.76,31.94,5.9a82.81,82.81,0,0,1,8.38,5.38l11.34,8c6.64,4.66,13.27,9.31,19.65,14.32,10.6,8.32,20.53,17.63,32.18,24.41a19.47,19.47,0,0,0,7.26,2.88c2.6.31,5.48-.47,7.06-2.56C2030.9,2232.93,2030.42,2229.39,2029.83,2226.26ZM1527.61,797.61l7.31-2.44c1.81,2.07,2.69,4.78,3.45,7.43a148,148,0,0,1,5.56,33.23,71.49,71.49,0,0,1-11.68-9.49l-.08-1.58c-2.22-4.6-2.86-9.77-3.47-14.83l-.77-6.48A30.12,30.12,0,0,1,1527.61,797.61ZM319.25,1661.77q2.14,13.86,4.28,27.72l-4,6c-7.73-3.35-16.44-5.9-24.5-3.44-2.64.81-5.1,2.12-7.75,2.91s-5.65,1-8-.38c-4.35-2.48-4.66-8.88-2.51-13.4s6-8,8.65-12.23c1.77-2.83,3-6,4.85-8.74a21.68,21.68,0,0,1,17.79-9.35c3.19,0,6.6.93,8.64,3.4C318.38,1656.36,318.84,1659.14,319.25,1661.77Z"></path>
    <path data-name="4" data-official="Lantana aculeata" data-plain="Prickly Lantana" data-loc="West Indies" d="M1527.61,797.61l7.31-2.44c1.81,2.07,2.69,4.78,3.45,7.43a148,148,0,0,1,5.56,33.23,71.49,71.49,0,0,1-11.68-9.49l-.08-1.58c-2.22-4.6-2.86-9.77-3.47-14.83l-.77-6.48A30.12,30.12,0,0,1,1527.61,797.61ZM1321,2273.1l-5.33.82c-2.31-3.5-5.32-7-9.43-7.83a19.43,19.43,0,0,0-2.15-.27l-6.44-.58a6.4,6.4,0,0,0-.31-3.2,2.2,2.2,0,0,0-2.64-1.29c-1-5.14-5.09-9-9-12.56a6.47,6.47,0,0,0-2.72-1.75,5.87,5.87,0,0,0-2.9.28c-4,1.16-7.82,3.06-11.78,4.47s-8.25,2.34-12.35,1.45l-3.65,6.33c-1.94,5.57-4.46,10.93-6.86,16.33-5.88,13.18-11.09,26.66-16.29,40.13-3.79,9.81-7.58,19.64-10.32,29.79-1.91,7.1-3.32,14.4-6.35,21.1-2,4.53-4.81,8.72-6.81,13.27-4,9.16-5.08,19.9-11.63,27.46-5.34,6.17-13.5,9.16-19.44,14.76a52.53,52.53,0,0,0-7,8.73c-3.92,5.7-7.78,12.82-5.1,19.2,2.16,5.13,7.9,7.78,13.36,8.86s11.19,1.08,16.38,3.1c3.93,1.53,7.34,4.13,11,6.32a76.77,76.77,0,0,0,22.89,8.69c12.13,2.72,26.21,3.05,35.5-5.22,6.65-5.92,9.38-15,11.81-23.53l46.73-164.33ZM1216.43,1192.36c15.58-1.28,30.93,3.6,45.8,8.42L1268,1205l3.86,3a4.45,4.45,0,0,0,1.65,1,5.77,5.77,0,0,0,2.73-.41,10.08,10.08,0,0,1,7.06.67c.11,6.35,3.88,12.29,9.05,16s11.58,5.31,17.92,5.66c3.5.19,7.65.35,9.51,3.32A4,4,0,0,0,1322,1238l2.82,5.48c3.16,2.26,4.82,6,6.21,9.64a169.39,169.39,0,0,1,10.31,42.54l-2.51,6.23a54.19,54.19,0,0,0-14.69,20.22l5.45.14a13.22,13.22,0,0,0,3.94,15.54c1.07.81,2.4,1.65,2.52,3a4.15,4.15,0,0,1-.43,1.85q-5,12.33-10,24.65c-2,5-4.13,10.1-7.57,14.27a27,27,0,0,1-13.57,8.81c2.48,1.69,3.57,4.87,3.54,7.87s-1,5.9-1.84,8.77c-2.85,9.54-4.58,20.25-.1,29.15-6.38,3.2-13.17,6.79-16.43,13.14-2.54,5-2.56,11-5.46,15.77-3.24,5.31-9.42,8-15.42,9.66s-12.31,2.57-17.69,5.69c-2.68,1.55-5.16,3.66-8.19,4.34-4,.9-8.14-.91-11.88-2.67l-17.92-8.45a32.83,32.83,0,0,1-6.07-3.41,33.33,33.33,0,0,1-4.43-4.38l-13.9-15.63-.19.1a16.63,16.63,0,0,0,2.37,13.48c1,1.52,2.43,3.24,1.84,5a6.1,6.1,0,0,1-2.41,2.53,15.66,15.66,0,0,0-5.77,9.35c-.76,3.93,0,8-.56,12a18,18,0,0,1-16.34,14.9,19.2,19.2,0,0,1-11.82,20.74l0,1.87c1.71-4.08,7.61-3,12-3.73,7.93-1.29,12.15-9.93,18.6-14.72,10.24-7.61,25.68-5.13,35.51-13.26,1.71-1.42,3.25-3.16,5.32-4,2.44-1,5.18-.49,7.79-.18a56.44,56.44,0,0,0,38.06-9.35c2.12-1.45,4.23-3.09,6.75-3.58,3.81-.76,7.55,1.24,11.13,2.74a46.34,46.34,0,0,0,26.15,2.77c13.59-2.54,26.21-11.18,40-9.89,12.37,1.16,24.41,10.27,36.13,6.17,1.75-.61,3.49-1.52,5.33-1.35,1.64.15,3.07,1.15,4.51,2,12.33,7,27.67,1.52,40.71-4l6.25-1.46c5.45-.35,11-.71,16.16-2.38,3-1,6-2.38,9.18-2.18a15.91,15.91,0,0,1,5.78,1.81,57.84,57.84,0,0,1,18.71,14.35l4.93,3.22,11.91,13.27a42,42,0,0,0,4.25,4.29c6.53,5.4,15.7,6.22,24.15,5.55a23.26,23.26,0,0,0,13.82,9.54l31.11-1.83-3.32-9.66a269.48,269.48,0,0,1,5.75-75.46c2.47-11.21,9.2-24.85,20.61-23.54,5.11.58,9.24,4.22,13.27,7.41,28.43,22.6,66.27,29.65,102.58,30.56a368.7,368.7,0,0,0,123.12-18c39.93-13,77.53-32.8,118-43.91,14.06-3.86,30.93-6,41.6,3.92,8.93,8.31,10.26,22.41,18.83,31.09,9.69,9.82,26.88,9.46,37.9,1.15s16.17-22.78,15.87-36.57-5.4-27.07-11.7-39.34a202.68,202.68,0,0,0-95.77-91.2c28.83-30.46,51.43-67.8,59.55-108.95s.62-86.21-24.85-119.54c-23.83-31.17-61.38-49.89-100-56.91s-78.42-3.27-117,3.92l0-11.43c7.64-40.85,14.83-85.18-4-122.24,34.68-3.06,70.73-20,85.14-51.72,13.22-29.08,4.61-65.37-17.14-88.77S1804,670.1,1772,670.28c17.75-20.07,46.2-29.46,60.74-52,5.43-8.41,8.52-18.14,10.34-28a122.41,122.41,0,0,0-6.9-67.73L1819.55,507c-22.34-19.54-47.75-36.24-76.21-44.67s-60.25-8-86.77,5.35c-10.78,5.41-20.5,12.79-31.47,17.79a82,82,0,0,1-58.37,3.45l-18.25-.43-13.09,8.16c-3.39,5.93-10.55,8.4-17.15,10.18-8.25,2.22-16.7,4.11-25.24,3.94-9.78-.2-19.39-3.09-29.17-2.81a36.56,36.56,0,0,0-15.95,3.91c-3.06,1.61-6,3.94-7.09,7.22a14.92,14.92,0,0,0-.07,7.51c1.11,5.9,4,12.27,9.63,14.19,2.07.69,4.32.72,6.37,1.45s4,2.56,3.8,4.73-3,3.71-5.22,3a5.81,5.81,0,0,1-3.56-5.41,11.38,11.38,0,0,1-7.79-2.25,2.34,2.34,0,0,0-1.22-.62,2.12,2.12,0,0,0-1.16.43l-6.72,4.21-2.47,3c-1.49,2.71-.74,6.26-2.35,8.9a9.82,9.82,0,0,1-4.23,3.36,36.26,36.26,0,0,1-8.21,2.89c-2.77.61-5.61.9-8.34,1.68a24.39,24.39,0,0,0-15.92,14.66l-7.13,1c2,6.39,6,11.92,9.93,17.32a12.61,12.61,0,0,0,2.93,3.16c1.67,1.11,3.75,1.35,5.71,1.78,6,1.33,11.39,4.75,15.91,8.94s8.25,9.12,12,14a26.4,26.4,0,0,1,4.1,6.72c.65,1.78.91,3.68,1.51,5.48,1.38,4.13,4.53,7.86,4.27,12.21l1.46,3.93a100.81,100.81,0,0,1,.1-17.2,5.61,5.61,0,0,1,.62-2.43c.65-1.08,1.91-1.6,2.88-2.41,3.28-2.74,2.54-7.88,1.5-12a4.71,4.71,0,1,0,3.59-8.38c3.27-3.54,6.67-7.31,7.69-12a9.26,9.26,0,0,1,.73-2.57,10.47,10.47,0,0,1,2.39-2.45,10.76,10.76,0,0,0,3.45-7.73l.7-1.25c2.08,1.66,4.84,2.12,7.32,3.08s5,2.88,5.07,5.54c0,.71-.14,1.42-.1,2.12.13,2.53,2.59,4.2,4.82,5.39,4.52,2.42,9.33,4.68,12.58,8.64,2.28,2.79,3.64,6.27,6,9a15.55,15.55,0,0,1,2.75,3.38c.49,1,.63,2.2,1.09,3.24,1.14,2.57,3.94,3.86,6.23,5.5a19.09,19.09,0,0,1,7,9.63l.9,2.23c1.63,2.74.66,6.2.37,9.39a20.69,20.69,0,0,0,2.28,11.4c2.33-5.41,7-9.4,11.7-13,6.44-4.92,13.64-9.61,21.74-10a15.87,15.87,0,0,1,4.66.38c2.82.7,5.3,2.38,8,3.44,6.67,2.61,14.19,1.35,21.14-.42a26.88,26.88,0,0,1,7.62-1.25c3.22.12,6.26,1.5,9.12,3,5.17,2.71,10.13,5.9,15.67,7.72s11.92,2.12,16.93-.86a8.82,8.82,0,0,1,3.22-1.52c1.19-.15,2.6.66,2.55,1.86l.31,1.55c.39,3.25-.91,6.48-2.56,9.32-4.07,7-10.25,12.53-16.36,17.86-6.53,5.7-13.6,11.6-22.18,12.79-5.44.75-11-.48-16.44,0-11.31,1.09-20.81,9.75-25.83,19.94a37.59,37.59,0,0,1-3.12,5.8,26.6,26.6,0,0,1-6.75,5.82l.79.19a45.21,45.21,0,0,1,21.79-6,66.5,66.5,0,0,1,14.46,1.63c6.51,1.35,13,3.27,18.58,6.93,2.16,1.43,4.21,3.13,6.69,3.92,3.42,1.09,7.12.27,10.7,0a31.47,31.47,0,0,1,16.57,3.6l4-1.71,10.37,11a18.76,18.76,0,0,0,3.52,3.14,16.08,16.08,0,0,1,2.53,1.59,5.7,5.7,0,0,1,1.51,5.14,13.23,13.23,0,0,1-2.3,5,40.74,40.74,0,0,1-15.16,13.45l-4.31,1.85a20,20,0,0,1-7.82,3.16,103.17,103.17,0,0,1-22,2.67c-6.82.1-14.24-.31-19.75,3.71-2.55,1.86-4.45,4.53-7.09,6.25-3.57,2.3-8.06,2.6-12.3,2.46a73.74,73.74,0,0,1-18.37-3l-3.94-.36c-1.49.94-3.1,2-3.52,3.74a6.83,6.83,0,0,0,.13,2.91c1.54,7.7,4,15.23,4.89,23,.52,4.44.53,8.94,1.48,13.3.76,3.52,2.13,7.1,1.4,10.63l3.65,1.47a19.7,19.7,0,0,0-2.55,11.73c.06.64.1,1.41-.41,1.78-.25.19-.58.23-.81.43a1.59,1.59,0,0,0-.36,1.15q-.24,7.23-.49,14.46c-4.51-5.21-5.22-12.59-5.73-19.46a3.37,3.37,0,0,0-.28-1.33,3.72,3.72,0,0,0-1.52-1.33A27.67,27.67,0,0,1,1536,840.46l-1.48-.26c-.34,11.89-.54,24.44,5.18,34.87,1.72-.48,3.4-2.13,5-1.33a2.51,2.51,0,0,1,1.2,2.47,6.23,6.23,0,0,1-1.09,2.67,45.1,45.1,0,0,1-7.66,8.39c-.93.86-2.12,1.79-3.33,1.42-1.61-.49-1.76-2.68-1.58-4.35a7.09,7.09,0,0,1,.86-3.19c.38-.58.93-1,1.27-1.67.84-1.54.07-3.42-.62-5-4.84-11.36-5.68-24-6.23-36.32l-.06-1.22a43,43,0,0,1-10.71-15.15A114.44,114.44,0,0,1,1511,804l-.62-.93a10.57,10.57,0,0,0-7.9,2.49,31.72,31.72,0,0,0-5.62,6.38,6.51,6.51,0,0,0-1.11,2,7.77,7.77,0,0,0,.07,2.84,16.34,16.34,0,0,1-.49,6.45,4.76,4.76,0,0,0-.29,1.61,4.57,4.57,0,0,0,.66,1.79c4.84,9,7,19.17,9.73,29,3.7,13.12,8.63,25.85,13.55,38.56A10.7,10.7,0,0,1,1522,894a1.38,1.38,0,0,1,1,.35,1.4,1.4,0,0,1,.28.92c.12,3.45-2.29,6.44-4.72,8.89q-2.53,2.55-5.28,4.86c-.81.68-1.93,1.37-2.83.82s-.81-1.81-.59-2.82a34,34,0,0,1,4.8-11.39l-5.19-14.29c-3-8.36-6.07-16.74-9.86-24.79a49.58,49.58,0,0,1-3.12-7.51c-.68-2.4-.93-4.9-1.67-7.27a37.69,37.69,0,0,0-3.6-7.46h-1c-2.4,7.1-3.4,14.58-4.39,22-1.14,8.62-2.25,17.64.69,25.83.19.54.55,1.19,1.13,1.16a1.34,1.34,0,0,0,.77-.42,26.49,26.49,0,0,1,2.68-2.62,2.84,2.84,0,0,1,3.47-.07c.81.79.76,2.08.58,3.2a27.23,27.23,0,0,1-5,11.84c-.86,1.16-2.22,2.38-3.57,1.85a3.06,3.06,0,0,1-1.57-2.13,10.17,10.17,0,0,1-.17-5l0-1.11c-7.25-9.35-7.47-22.31-5.88-34a55.44,55.44,0,0,1,3.52-14.34c1.24-2.93,2.88-5.69,3.92-8.7s1.42-6.42.1-9.32a31.31,31.31,0,0,0-6.32,8.07l-1.4,1.36c-4.15,1.39-7,5.19-8.94,9.13s-3.15,8.2-5.46,11.91c-3.69,5.93-9.84,10-16.28,12.65s-13.31,4.22-20,6.34a118,118,0,0,0-18.17,7.51l-4.61,12.43a368.28,368.28,0,0,0-16.42,94.4c-31.74,2.58-62.88,10-93.86,17.36-13.18,3.13-26.75,6.44-37.73,14.39-11.89,8.61-19.5,21.74-28.91,33-9,10.77-19.88,20.09-27.1,32.11-15.39,25.63-11.35,58.14-4.76,87.3Z"></path>
    <path data-name="5" data-official="Myoporum parvifolium" data-plain="Small-leaved Myoporum" data-loc="New Holland" d="M1885,1690.32a125.61,125.61,0,0,0,29.74,37.14c3.94,3.35,8.26,6.67,10.29,11.43,1.66,3.91,1.57,8.31,1.45,12.56-.55,19.27-1.32,39.37-10.62,56.26-4.5,8.17-10.8,15.2-15.87,23s-9,17-7.8,26.27l-2.43,8.92-18.46-2.68a12,12,0,0,1-5.77-1.14c-8-3.14-15.83-8.42-18.7-16.5-2.32-6.51-1.06-13.89-3.45-20.37l-9.39,1.39c-2.11-.47-4.44.7-6.43-.15a6.64,6.64,0,0,1-1.75-1.24,19.19,19.19,0,0,1-3.92-4.28,15,15,0,0,1-1.88-5.83,26.09,26.09,0,0,1,.49-9.52l-.15-4.54a40.61,40.61,0,0,0-12.45-19.44l-2.75-2.15c-1-.76-1.47-2-2.18-3.08s-2-2-3.18-1.45a5.56,5.56,0,0,0,0-2.75,1.87,1.87,0,0,0-2.16-1.29c-.36-1.36.4-2.75.44-4.15a5.83,5.83,0,0,0-1.63-3.87,41.52,41.52,0,0,0-3.14-2.93c-5-4.66-7.16-11.5-9.15-18l-1.8-12.28-1.38-39.06c-.14-3.93-.29-7.94-1.75-11.59l5.41-7.5a58.86,58.86,0,0,1,15.19-28.22c2.74-2.81,5.86-5.5,7.23-9.18,1.44-3.89.68-8.19.78-12.34.35-13.75,10.1-25.13,17.76-36.57,11.21-16.75,18.67-35.79,29.91-52.52,12.33-18.36,28.89-33.47,46.12-47.33,15.74-12.65,35.12-25.07,54.73-20.28,9.51,2.33,18.82,11.36,16,20.75-.41,1.37-1.06,2.81-.62,4.17s1.67,2.09,2.79,2.86c14.47,10,14.33,33.05,3.79,47.16s-28.06,21-45.09,25.49c-5.67,1.48-11.72,3-15.81,7.15-6.73,6.92-5.48,18.14-8.89,27.18-3.62,9.6-12.29,16.21-18.74,24.2a60.93,60.93,0,0,0-10.56,55.4Zm26.44,234.6c-9.24,13.42-11.49,30.55-19.87,44.53a9.19,9.19,0,0,0-1.44,3.23,8.43,8.43,0,0,0,.18,2.69c.46,2.66.93,5.31,1.39,8l-.35,7.14c.56,3.08-1.2,6.23-.6,9.3.32,1.67,1.32,3.12,1.9,4.71,1.06,2.86.79,6.12,2.06,8.89.81,1.74,2.22,3.34,2.14,5.26s-1.89,4-1.12,5.89A15.81,15.81,0,0,0,1888,2018a47,47,0,0,0-9.94-2.69c-5.15-1-10.94-1.87-15.26,1.09a11.29,11.29,0,0,1,5,5,38.69,38.69,0,0,1,2.09,6.68,27,27,0,0,0,4.36,8.67,13.48,13.48,0,0,0,4.17,3.86,6.77,6.77,0,0,0,5.53.57l.41.51a19.63,19.63,0,0,0-11.63,8.64c-2.2,3.59-3.36,8.05-6.79,10.49-3.24,2.31-7.54,2.13-11.5,2.31s-8.48,1.16-10.39,4.64l0,.38,10.32-.15a42.15,42.15,0,0,0,5.39-.32c3.71-.56,7.32-2.14,11.06-1.85,2.69.21,5.21,1.38,7.83,2a19.94,19.94,0,0,0,14.41-2.07l1.11.24a30.42,30.42,0,0,1,6.83,16.5c.53,5.76-.51,12,2.28,17a12.59,12.59,0,0,0,7.46,6,14.79,14.79,0,0,1,2.31.73,9.5,9.5,0,0,1,2.85,2.59,106.6,106.6,0,0,0,11.17,11.42,17.74,17.74,0,0,1,3.21,3.33,5.41,5.41,0,0,1,.91,4.4l.27,1.21c3.08-1.82,6.9-2,10.4-1.29s6.82,2.11,10.2,3.27c2.3.79,4.84,1.45,7.11.59l18.4,0-1.59-8.8a48.25,48.25,0,0,0-24.78-41.71l2-19.39a87.72,87.72,0,0,0,.63-16.19c-.88-10.32-5.37-20-10.44-29-1.17-2.1-2.42-4.32-2.38-6.73a13.43,13.43,0,0,1,1.75-5.51c10.15-20.82,20.5-42.85,19.12-66-.33-5.42-1.36-11-4.28-15.54s-8-8-13.45-7.82c-8,.34-15.3,8.27-22.9,5.68ZM942.31,2639.83a72.29,72.29,0,0,1,21.37-.92,13.48,13.48,0,0,0,4.39,0,23.62,23.62,0,0,0,2.42-.8,24.82,24.82,0,0,1,3.52-.77l17.58-2.92c5.87-1,11.83-2,17.76-1.37l8.57-.42,2.85-2.75a44.1,44.1,0,0,0,23.06-20.37,22.24,22.24,0,0,0,19,5.41,9.35,9.35,0,0,0,5.22-2.5,7.38,7.38,0,0,0,1.81-4.52,10,10,0,0,0-6.57-9.85c-2.56-.86-5.34-.61-8-.9s-5.59-1.38-6.72-3.84a10,10,0,0,1-.68-2.93c-.15-1.27-.31-2.53-.46-3.8a1.21,1.21,0,0,1,.11-.88c.26-.37.81-.34,1.24-.5,1.08-.41,1.19-1.87,1.12-3-.12-1.73-.23-3.45-.34-5.18-.07-1-.27-2.28-1.21-2.73a3.2,3.2,0,0,0-1.94,0c-3,.5-6.64-.07-7.91-2.8s.66-5.83,1.37-8.79c1.43-5.84-2-11.61-3.79-17.35s-2-11.79-4.24-17.28l-7.36,2.52c-6-1.93-12.4-3.89-18.6-2.62a37.34,37.34,0,0,0-7.94,2.93l-8.35,3.82-7.16,3.62-7.22,2.79-9.67,5.72a20.6,20.6,0,0,0-5.65,4.29,23,23,0,0,0-2.89,5.15,106.89,106.89,0,0,1-10.21,17.53,96,96,0,0,0-6.69,9.82c-2.55,4.71-3.9,10-5.06,15.21-1.39,6.27-2.53,12.6-3.37,19a49.77,49.77,0,0,0-.36,14.1l2.09,9.59Zm968.86-462.66-7.31-2.14c-2.23-2.42-4.64-5-7.82-5.77-2.53-.65-5.2-.12-7.81-.15-1.76,0-3.5-.31-5.25-.48-6.84-.69-13.73.18-20.54,1.06-5.07.65-10.31,1.36-14.63,4.09l-1.25,1.42a27.69,27.69,0,0,1-13.7,2.35l-4.61-2.2a24.3,24.3,0,0,0-6.35-2.75,8.26,8.26,0,0,0-6.64,1.08,2.62,2.62,0,0,1-1.28.7,2.36,2.36,0,0,1-1.4-.49c-2.26-1.36-5-2.27-7.51-1.49a20.85,20.85,0,0,0-4.3,2.44,29.06,29.06,0,0,1-4.72,2.14l-10.32,3.94-3.87,0c-8.87-.14-17.37,3.13-25.87,5.64a155,155,0,0,1-25.67,5.25l-6,5.59a281,281,0,0,1-40,17l-5.7-.17c-9.72-.89-19,3.74-27.63,8.25l-19.09,9.93a46.62,46.62,0,0,0-9.08,5.65l-.78,5.27c-2.39,1-5.15.45-7.64,1.15s-4.23,2.37-6.13,3.88a50,50,0,0,1-8.69,5.55,5,5,0,0,0-1.77,1.21c-.76,1-.93,2.56-2.11,2.8l-8.48,5.34c-1.9,1.83-5,.37-7.48-.44a26.6,26.6,0,0,0-6.71-1l-12.89-.73a23.71,23.71,0,0,1-6.45-1c-2.51-.88-4.63-2.58-7-3.84s-5.19-2.08-7.63-1l-3.63-2.49c-2.29.87-4.89.29-7.11-.74s-4.2-2.51-6.41-3.57a19.5,19.5,0,0,0-17.6.49c-.08-2.42-.32-5.18-2.25-6.65a4.24,4.24,0,0,0-5.23.23c.45-5.11-3-10.06-7.7-12.21s-10.19-1.79-15,0a16.59,16.59,0,0,0-8.59,6.68l-1.5.06a20.8,20.8,0,0,0-8.62-.93,3.57,3.57,0,0,0-1.61.46,2.46,2.46,0,0,0-.76,2.79,5.15,5.15,0,0,0,2,2.36,11.53,11.53,0,0,0-4.24,1.32,6.74,6.74,0,0,1-2,.89,7.37,7.37,0,0,1-2.19-.17,10.3,10.3,0,0,0-10.94,6.82l-.91.59c-.54-1.25-2.56-1.11-3.41,0a5.81,5.81,0,0,0-.79,3.93,15.13,15.13,0,0,0,1.33,6.47c1,2,3.14,3.53,5.35,3.26l0,1.08c-3.39,1.39-7.1-.67-10.37-2.33-4.95-2.52-10.45-4.26-16-3.88a13.63,13.63,0,0,1-1.91.08,13.94,13.94,0,0,1-1.81-.3,26.43,26.43,0,0,0-22.85,6.51l-2.18,2.74c-1,2.33-3.49,3.7-6,4.13a35.38,35.38,0,0,1-7.56,0c-12.09-.5-24,4.14-36,3.58-4.07-.18-8.24-1-11.56-3.37l-.87,10.53L1273.36,2448c-2.43,8.56-5.16,17.61-11.81,23.53-9.29,8.27-23.37,7.94-35.5,5.22a76.77,76.77,0,0,1-22.89-8.69l-22.81.78c-7,.42-13.32,4.27-18.59,8.87a32.44,32.44,0,0,0-8.13,9.87,58.6,58.6,0,0,0-3,8.68c-4,13.05-12.71,26.14-26,29.09l-7.47,24-3,9.12a24.85,24.85,0,0,0-2.28,13c-5-9.51-13.52-16.61-21.8-23.46-2.85-2.35-5.74-4.72-9.12-6.18a23.5,23.5,0,0,0-10.46-1.71l-.93.18c.11,5.5,1.64,11.13,5.22,15.32,4.1,4.8,10.29,7.14,16,9.87s11.56,6.48,13.56,12.47l-.72,1-11.35-2.75c-3.31-.8-7.17-1.49-9.81.66-1.49,1.21-2.5,3.27-4.4,3.54,5.1,2.84,8.12,9.22,13.85,10.38,2.46.49,5-.1,7.49-.33a25.36,25.36,0,0,1,12.84,2.25l-.12.25a34.9,34.9,0,0,0-6.93,4.18,5.15,5.15,0,0,0-2.24,3,2.76,2.76,0,0,0,3.59,3.07c1.24-.41,2-1.62,3-2.47,2.14-1.81,5.34-2,7.49-3.76l1.55-.42,1.23,16.26c.15,1.89.24,4-.88,5.5s-2.86,2-4.44,2.81c-6,3.05-9,9.82-11.42,16.1a2.91,2.91,0,0,0-.27,2c.43,1.21,2.18,1.31,3.31.7s2-1.64,3.22-2.08c2.34-.86,4.76.8,7.14,1.52a9.77,9.77,0,0,0,9-1.89l11.3,14.62c4,6,2.69,14.23-.86,20.5s-9,11.19-13.66,16.67l-4.69,5.26.15,0a167.5,167.5,0,0,1,17.68,4.46c8.74,2.7,17.37,6.11,26.48,6.94,5.79.54,11.64,0,17.41.69,12.77,1.47,24.32,8.62,37.06,10.37l11,2.43a31,31,0,0,1,9.11,5.64,89.34,89.34,0,0,1,7.77,8.6,25.25,25.25,0,0,0,5.51,5.12c1.38.88,2.9,1.51,4.26,2.42a6.59,6.59,0,0,1,3,3.76c.16.65.16,1.34.35,2a1.92,1.92,0,0,0,1.31,1.41,5.54,5.54,0,0,0,1.15-.05,2.58,2.58,0,0,1,2.44,3.25l6.55,3.49,14.37-1.47L1351.7,2723c41.4-18.42,83.58-37.35,117.08-67.86,7.53-6.85,15.45-14.67,25.59-15.54,8.4-.72,16.31,3.57,23.84,7.38a266.8,266.8,0,0,0,139.73,27.78c34.71-2.64,72.59-15,88.84-45.81,4.63-8.77,7.16-18.46,9.65-28.05,9.63-37.06,19.32-74.43,21.19-112.67.35-7.15.48-14.54,3.44-21.06,8.34-18.38,33-20.52,50.9-29.8,25.14-13,37.63-41.34,48.27-67.57q18.39-45.3,36.77-90.59c10.32-25.42,20.8-53.3,13-79.6Z"></path>
    <path data-name="5a" data-official="" data-plain="Seed-vessel" data-loc="" d="M885.64,2875.22c-6.06-20.68-11.43-42.77-5.64-63.53,3.14-11.26,9.45-21.46,17.26-30.15a45,45,0,0,1,9.08-8.08c9.43-6,21.83-6,32.24-1.92s19,11.79,26.15,20.39c9.91,11.93,17.46,26,20.73,41.15s2.1,31.43-4.43,45.5c-3.32,7.16-8,13.67-11.06,20.94-7.2,16.89-5.45,36.07-3.58,54.33.37,3.6.77,7.31,2.57,10.44,1.89,3.31,5.15,5.64,7.25,8.82,4.75,7.22,2.27,17.48-3.72,23.71s-14.6,9.16-23.07,10.9a112,112,0,0,1-31.85,1.87c-4.62-.39-9.61-1.27-12.72-4.7-3.87-4.28-3.41-10.77-3-16.52a201.82,201.82,0,0,0-16.61-96.85Z"></path>
    <path data-name="6a" data-official="" data-plain="Fruit of Callicarpa" data-loc="" d="M1280.55,2899c-2.83-13.27-5.57-27.59-.09-40,1.64-3.71,4-7.07,5.86-10.64,5.63-10.49,8.3-23.34,17.84-30.46,7.34-5.48,17.08-6.19,26.23-6.69,21.09-1.15,43.88-1.87,61.37,10,7.27,4.92,13.08,11.71,18.18,18.85a93.65,93.65,0,0,1,10.48,18.24c11.77,28.27,2.3,62.76-19.29,84.49-5.43,5.47-12,11-12.74,18.68-.57,5.53,2.08,10.92,2.08,16.48,0,7.41-4.82,14.18-11,18.27s-13.56,5.89-20.86,7.17a179,179,0,0,1-35,2.61c-3-.07-6.13-.25-8.78-1.67-5.09-2.72-7-9.2-6.72-15s2.07-11.39,2.2-17.16c.21-9.47-4.12-18.41-8.86-26.61-6.43-11.09-13.78-21.61-21.13-32.12Z"></path>
    <path data-name="6b" data-official="" data-plain="Seed-vessel" data-loc="" d="M1440.63,2884a122.22,122.22,0,0,1,5.91-39.13c2.55-7.89,6-15.61,11.21-22s12.44-11.48,20.6-13c12.9-2.37,26.14,4.63,34.54,14.71s12.8,22.83,16.51,35.41q4.65,15.79,8.19,31.88c3.14,14.31,5.57,29.46,1.14,43.42-2,6.39-5.49,12.47-5.84,19.17-.5,9.48,5.23,18,7.85,27.14a16.62,16.62,0,0,1,.64,8.29c-.92,4-4.07,7-7.34,9.43-12.85,9.57-29.2,13.25-45.18,14.37-8.42.59-17.24.46-24.77-3.35s-13.29-12.26-11.52-20.51c1.51-7,8-12.89,7.34-20.08a20.07,20.07,0,0,0-2.42-6.88c-5.11-10.15-11-19.94-15.3-30.46s-7-22-5.37-33.26Z"></path>
    <path data-name="7a" data-official="" data-plain="Fruit of Gmelina arborea" data-loc="" d="M1646.5,2903.35c-12.08-27.22-14.78-58.33-8.6-87.45s21.08-56.21,41.6-77.78c7.24-7.6,15.29-14.63,24.75-19.17,27.1-13,61.22-2.34,82.28,19.1s31.14,51.42,36.32,81c4,23.09,5.48,47,.31,69.85s-17.53,44.7-36.83,58c-4.7,3.24-10,6.14-12.92,11-6.87,11.29,1.91,25.47,2.15,38.69a10.69,10.69,0,0,1-1.45,6.32c-1.69,2.44-4.78,3.41-7.65,4.15a190,190,0,0,1-48.11,6c-4.48,0-9.31-.31-12.83-3.08-4.45-3.49-5.44-9.84-5-15.48s1.83-11.31.9-16.88c-2.23-13.3-16.21-20.5-27.24-28.26a95.31,95.31,0,0,1-29.19-33.11Z"></path>
    <path data-name="7b" data-official="" data-plain="Section of Fruit" data-loc="" d="M1855.65,2883.29c-5.73-13.08-11.5-26.3-14-40.35s-1.46-29.22,5.79-41.51c8.23-14,23.54-22.6,39.3-26.4s32.19-3.39,48.41-3.1c14.46.26,29,.41,43.23,3.15s28.22,8.25,38.9,18c6.36,5.81,11.37,13,15.73,20.39,9,15.27,15.53,33.27,11.58,50.53-2.87,12.54-11,23.33-20.7,31.84s-20.82,15.08-31.6,22.11c-5.29,3.44-10.79,7.37-13,13.27-2.66,7.08.1,14.86,1.92,22.19,3.22,13,2.86,28.24-6.53,37.73-4.48,4.52-10.49,7.18-16.52,9.21a110.31,110.31,0,0,1-39.24,5.65c-3.6-.14-7.42-.55-10.25-2.78-3.61-2.84-4.62-7.91-4.4-12.5.67-14,10.3-27.77,6-41.11-3-9.13-11.63-15-19.67-20.21-14.26-9.28-28.78-19.32-37.48-33.94Z"></path>
</svg>
