
<svg xmlns="http://www.w3.org/2000/svg" viewBox="0 0 2061 2780" id="illustration" preserveAspectRatio="xMidYMid meet">
    <title>Acanthaceæ</title>
    <path data-name="1" data-official="Acanthus spinosus" data-plain="Prickly-leaved Acanthus" data-loc="Italy" d="M2035.9,1274.8c-35.68-52.2-93.63-85.31-132.33-135.3-3.6-4.65-7.15-9.55-12.18-12.59-11.48-6.94-26.61-1.87-37.46,6-6.25,4.55-12.15,10.52-13.51,18.12-1.64,9.18,3.49,19.61-1.53,27.46-5.7,8.91-19.38,7-28.44,12.48a19.11,19.11,0,0,0-8.56,11.61l-11.52,17.92a30.25,30.25,0,0,0,4.15,35l.55.8c-8.42,5.76-14.58,14.19-21.91,21.28a88.19,88.19,0,0,1-12.65,10.13,44.88,44.88,0,0,1-7.88,4.29c-5.2,2.08-10.86,2.67-16.43,3.23-6.3.63-12.7,1.26-18.93.07s-12.34-4.46-15.48-10l-.76.2a45.41,45.41,0,0,1-19.24,57.89,11.13,11.13,0,0,1-3.43,1.4c-1.12.21-2.27.11-3.39.34-3.21.66-5.37,3.83-8.52,4.76s-6.32-.43-9.32.46c-1.56.46-3,1.49-4.57,1.62a17,17,0,0,1-3.84-.6c-4.49-.67-8.6,2.38-12.12,5.26l.17-.64a25.29,25.29,0,0,0-9.48-3.22c-2.48-.33-5-.28-7.5-.5a68.56,68.56,0,0,1-12.77-2.81c-3.13-.9-6.73-2.23-7.66-5.36a18.24,18.24,0,0,1-8.9-.33,3.47,3.47,0,0,1-1.81-1c-.68-.85-.52-2.08-.81-3.13-.54-2-2.57-3.12-4.34-4.18a42,42,0,0,1-16.34-19.2,59.42,59.42,0,0,1-4.57-25l-.77-.56-6.68,2.27a7.66,7.66,0,0,0-2.47,1.2c-.5.42-.89,1-1.41,1.34a5.93,5.93,0,0,1-2.33.88,40.56,40.56,0,0,1-10.13,1.45c-1.93,0-3.9-.36-5.75.17-1.13.33-2.16,1-3.3,1.28a13.14,13.14,0,0,1-5.23.11l-10.85-1.2.93-1,.93-21.92c.24-5.86.49-11.77-.39-17.57a83.5,83.5,0,0,0-2.9-11.74c-3-9.91-6.61-20-13.69-27.62-5.47-5.85-12.66-9.75-19.71-13.56-1-.55-2.25-1.11-3.28-.57s-1.35,1.84-2.34,2.34c-1.9,1-3.53-1.7-4-3.77l-.26-1.53-.3-6.56c-.17-3.6-.33-7.27.59-10.76a25.38,25.38,0,0,1,2.62-6.11,42.3,42.3,0,0,1,22.21-18.54c2.54-.9,5.32-1.65,7.11-3.67l-2.32-2.89a49.08,49.08,0,0,0-7.75-4.59,7.66,7.66,0,0,0-3.15-.93,4.28,4.28,0,0,0-4.06,3.15c-.2.84-.14,1.73-.36,2.57a2.1,2.1,0,0,1-1.72,1.72c-1.12,0-1.79-1.22-2.18-2.27l-1.62-4.38a9,9,0,0,0-1,4c0,1.07,0,2.37-.86,3s-2.37-.18-2.9-1.24-.58-2.31-1-3.39a4.65,4.65,0,0,0-1.43-1.82,7,7,0,0,0-.34,3.09,5.17,5.17,0,0,1-.56,3,2,2,0,0,1-2.69.71c-1.27-1-.22-3.34-1.32-4.52a51.94,51.94,0,0,1-2.94,6l-1-4.72a17.38,17.38,0,0,1-8.47-18.36c1.63-7.69,8.22-13.16,12.57-19.71a37.23,37.23,0,0,0,6-23.46,33.35,33.35,0,0,0-6.12-16.91,38.37,38.37,0,0,0-8.28-8.11c-12.81-9.48-29.35-12.67-45.28-12.45s-31.64,3.57-47.4,5.93a8.15,8.15,0,0,1-4.52-.19,8.33,8.33,0,0,1-3.19-3.23l-18.77-27.94-1-10.59c-2.49-3.17,0-8.19,3.77-9.7s8-.63,11.88.19c7.55,1.59,15.31,2.91,23,1.86s15.25-4.84,19.24-11.44c5.16-8.56,3.19-19.65-.65-28.88s-9.4-17.89-11.26-27.71,1.35-21.7,10.52-25.67c4.87-2.11,10.54-1.65,15.4-3.74,8.54-3.66,12.15-14.4,10.6-23.56s-7-17.1-12.34-24.71l1.21-18.17a5.86,5.86,0,0,0,2.5-4.44,19.72,19.72,0,0,0-.39-5.24c-.72-4.72-1-9.87,1.51-14,1.26-2,3.21-3.85,3.48-6.25a3.57,3.57,0,0,1,.5-2,2.51,2.51,0,0,1,1.39-.63,32.67,32.67,0,0,1,18.23,1.34c3.55,1.34,6.9,3.31,10.63,4.06,5.56,1.12,11.37-.59,17,.28,4.82.74,9.12,3.32,13.7,5a37.54,37.54,0,0,0,22.75.91,18.33,18.33,0,0,0,7.77-3.94c3.16-2.95,4.49-7.33,5.7-11.49l.6-7a100.16,100.16,0,0,0-15.63-37.37,57.8,57.8,0,0,0-11.94-13.25,59.92,59.92,0,0,0-15.9-8.39c-13.84-5.17-28.53-7.58-43.11-10l-24.62-4-8.26-.9a30.69,30.69,0,0,0-8.22.75l-5.52,4.76a34.85,34.85,0,0,1-9.56,3.82,16.65,16.65,0,0,1-8,.26,8.31,8.31,0,0,1-5.91-5c-.94-2.71-.06-5.91-1.43-8.44-.93-1.72-2.75-2.78-4-4.31-2.8-3.46-2.19-8.65-4.49-12.46l.27-6.71q.14-7.53.26-15c0-2.26.19-4.78,1.83-6.34.94-.9,2.28-1.36,3.06-2.4,1.13-1.5.71-3.62.24-5.44a27.39,27.39,0,0,0,16.34,6.1c6.7.2,13.21-2.07,19.38-4.68,3.76-1.58,7.45-3.3,11.07-5.19,2.6-1.36,5.26-2.9,6.9-5.34s1.9-6-.16-8.15l-2.27-5c-9.43-2-19.17-4.08-27-9.71l-.94-4.06a5.53,5.53,0,0,0-5-3l-3.14.09c-4.08,3.15-9.88,2.08-14.89.87a2.55,2.55,0,0,1-1.74-1,2.49,2.49,0,0,1-.2-1.41c.62-12.36,1.26-24.89,5.1-36.66l1.7-4.1c2.18-5.8,6.74-10.35,9.9-15.68,5-8.44,6.33-18.46,9-27.88l6.6-8.22c3.2-16.49,6.76-33.76,17.56-46.63,5.36-6.39,12.24-11.34,17.83-17.52,15-16.56,19.22-39.91,22.84-61.95,2.42-14.7,4.84-29.57,3.71-44.42s-6.2-29.91-16.81-40.36c-6.84-6.73-16.37-12.43-17.56-21.95-.69-5.56,1.8-11,4.57-15.87,5.23-9.2,11.7-17.74,15.87-27.46s5.82-21.26,1.12-30.74c-4.43-8.93-13.84-14.58-23.54-16.87s-19.83-1.7-29.79-1.09l-54.07,3.29c-5.5.33-11.3.61-16.21-1.88-6.9-3.5-10.13-11.33-14.09-18-12-20.22-35.8-32.86-59.3-31.55a693.52,693.52,0,0,0-10.53-72.29c-4.67-23.32-12.3-48.87-32.84-60.86-11.31-6.61-24.83-8-37.87-9.15l-48.09-4.42-12.11,5.05c-23.09,3.19-48.54,7.66-63,25.93-12.17,15.34-13.71,37.25-26.41,52.15-9.36,11-23.39,16.54-35.48,24.41a103.88,103.88,0,0,0-39.7,48.7c-2,5-4.12,10.85-9.17,12.8-4.2,1.62-8.86-.09-13.1-1.62C872.16,173.85,829.13,175,800.19,199.3c-18.87,15.85-29.79,40.12-31.45,64.7s5.51,49.32,18,70.55a8,8,0,0,1,1.43,3.71c.07,2.63-2.4,4.52-4.6,5.94q-16.53,10.68-33.05,21.37l-6.79,11.06a73.41,73.41,0,0,0-13.52,62.23c.88,3.58,2,7.16,2,10.84s-1.3,7.11-2.35,10.58c-3.41,11.21-5,23.2-2.66,34.67s9,22.38,19.15,28.2c4.38,2.5,9.7,4.43,11.76,9,1.5,3.36.78,7.24.73,10.92-.21,14.53,10.06,26.84,19.75,37.68l3.92,7.24a15.84,15.84,0,0,1,6.75,4.9c-9.2,11.76-21.66,21.17-28.24,34.58-8.5,17.33-5.51,38.18,1.07,56.33a156.94,156.94,0,0,0,46.71,66.58,458.14,458.14,0,0,0-62.59,30.72c-9.28,5.48-18.49,11.37-25.77,19.33s-12.5,18.26-12.39,29c.06,6,1.77,11.9,3.93,17.52,1.3,3.36,2.75,7.24,1,10.4a13.29,13.29,0,0,1-4,3.85,51.12,51.12,0,0,0-19.39,31.35l-3,13.53a104.2,104.2,0,0,0-9.1,50.92c.41,5.44,1.27,10.93,3.62,15.86,4.68,9.82,14.63,16.09,24.79,20s21,5.94,31,10.24c5.15,2.21,10.33,5.31,12.8,10.34,2.59,5.3,1.59,11.76-1,17s-6.64,9.72-10.35,14.29c-8.38,10.32-15.61,22.5-15.77,35.79l-2,17.17a43.31,43.31,0,0,0,2.4,27.68c1.18,2.68,2.75,5.35,5.28,6.81,1.62.94,3.51,1.31,5.19,2.14,3.05,1.51,5.14,4.4,7.12,7.17s4.12,5.64,7.21,7.07,7.41.81,9-2.22l-.2,1.3c-1.94,3.75-1.27,8.42.67,12.17s5,6.77,8,9.72c3.66,3.58,7.43,7.23,12.09,9.34a36.51,36.51,0,0,0,8.42,2.39c7,1.27,15.33,1.32,20-4.07,2.26-2.6,3.23-6,4.29-9.33a3.53,3.53,0,0,1,.88-1.65,5,5,0,0,1,2.49-.76,6.63,6.63,0,0,0,4.82-8.28c.37-.74,1.57-.55,2.07.1a5.87,5.87,0,0,1,.76,2.34c.88,3.68,4.82,5.91,8.59,6.29s7.51-.62,11.27-1.12,7.87-.41,10.92,1.84l1.75,2.67c1.1,1.84,2.23,3.95,1.66,6a7.46,7.46,0,0,1-1.54,2.59,46.81,46.81,0,0,1-29.39,16.55,41.62,41.62,0,0,0,31.74-1.86c2-1,4.26-2.12,6.24-1.17l-.4,1.2a35.36,35.36,0,0,0,20.18,39.72c2.46,1.1,5,1.91,7.47,3,8.72,4.12,14.85,12.12,20.63,19.84l.14,1.38a5.54,5.54,0,0,0-3,3,16.48,16.48,0,0,0-1,4.23l-.51,1.78a26.34,26.34,0,0,0-13.28,15.42c-3.34,10.42,0,22.28-4.11,32.41a5.54,5.54,0,0,0-.69,3.22,5,5,0,0,0,2,2.53c3.63,2.91,7.94,6,12.49,5l.64.63c-6,11.13-9.93,23.88-8,36.37.47,3.09,1.29,6.12,1.75,9.21a75.35,75.35,0,0,1,.27,15.75l-1.05.92c-9.68.9-19.39,2.4-28.5,5.79s-17.65,8.79-23.63,16.45a8.48,8.48,0,0,0-1.6,2.75c-.54,1.77-.09,3.89-1.25,5.33-.73.9-2,1.44-2.23,2.58-.11.66.2,1.35.06,2-.2.91-1.14,1.4-1.86,2-2.57,2.07-2.63,5.92-2.31,9.2.34,3.53,1,7.33,3.65,9.7,2.84,2.56,7.08,2.64,10.91,2.47v1.19c-1.08,3.07,0,6.56,1.93,9.16s4.7,4.46,7.43,6.23a15.06,15.06,0,0,0,4.7,2.28,5.29,5.29,0,0,0,4.9-1.13c-1,2.3.46,5,2.53,6.39s4.64,1.71,7.11,2l.19.56c-4.15-.6-8.09,1.84-11.46,4.35A122.64,122.64,0,0,0,840.3,1503l-1.32.84a3.31,3.31,0,0,1-3,2.13,4.24,4.24,0,0,1-3.39-1.7c-.47-.61-.79-1.31-1.2-2a9,9,0,0,0-9.76-3.78l-7.85-2.43c-5.91,3.55-13.62,3-19.88.15s-11.32-7.85-15.87-13c-4.7-5.36-9.1-11.22-11.22-18-1.91-6.1-1.92-12.76-4.49-18.62s-9.3-10.81-15.16-8.23c-2.48,1.1-4.28,3.33-5.76,5.61-9.12,14.07-9.78,31.81-10.15,48.57l-.1,4q-3.71,8.34-7.42,16.7c-1.91,4.3-3.84,8.68-4.36,13.35-.73,6.6,1.4,13.14,3,19.59,3.14,12.72,4.21,26.2,1,38.92-1.55,6.27-4.37,12.61-9.64,16.34s-13.47,3.87-17.6-1.1a17.56,17.56,0,0,1-2.82-5.45A60.71,60.71,0,0,1,690,1580l-.46-1.21-3.93,10c-3.56,9.09-7.2,18.3-13.09,26.08l-.92.67c-2.37,0-4.43-1.84-5.46-4a19.38,19.38,0,0,1-1.39-6.94l-1.65-22.29c-.25-3.45-.69-7.29-3.33-9.55l-.46.37q-15.26,23.21-32.13,45.28a127.19,127.19,0,0,1-8.79,10.59c-2.13,2.23-4.43,4.33-6.43,6.68-3.59,4.2-6.18,9.14-8.74,14l-4.45,1.11-15.7,20.75a20.09,20.09,0,0,1-4.59,4.83c-5.13,3.42-12,1.47-17.8-.58,7,14,24.11,21.22,30.14,35.71.75,1.8,1.09,4.32-.59,5.33a7.29,7.29,0,0,1-2.65.55c-2.73.43-4.83,2.73-6,5.22s-1.77,5.24-2.81,7.81c-3.36,8.31-13,14.18-21.59,11.6a33.72,33.72,0,0,0-4.66-1.41c-2.32-.33-4.64.37-6.92.9-6.4,1.51-14,1.45-18.59-3.2l-.3-.59,4.48-.78-12.27-11.36a122.71,122.71,0,0,1-11.71-11.88,89.2,89.2,0,0,1-9.58-14.78l-8.54-.19c-8.44.5-17.37,1.16-24.27,6-4.64,3.27-7.91,8.15-12.35,11.68-3,2.36-6.4,4-9.65,6a70.49,70.49,0,0,0-25.28,26.24c-1.88-3.36-4.63-7.2-8.45-6.81-1.06.11-2.06.55-3.12.65a13.17,13.17,0,0,1-4.27-.73,19.14,19.14,0,0,0-13.92,1.94l-8.58,3c-5.38,4.24-11.18,9.17-12.06,16-.33,2.53,0,5.26-1.18,7.5-1.35,2.44-4.18,3.56-6.45,5.19-3,2.13-5.06,5.25-7.44,8s-5.33,5.4-9,5.92l-1.08.33c2.58,6.21-.34,13.22-3.33,19.24s-6.16,12.83-4,19.21a6.08,6.08,0,0,1,.59,3,5.38,5.38,0,0,1-1.57,2.42,25.34,25.34,0,0,0-6.39,15.22c-.24,3.9.43,7.83-.08,11.7-.63,4.75-3.26,9.39-7.52,11.59l-6.14,5.11c-5.37.73-10.83,1.46-16.2.72a30,30,0,0,1-10.62-3.56l-8.51,2.91a67.75,67.75,0,0,1-8.47,11.12l-9.1,5c-1.14.47-1.79,1.86-3,2.07a2.37,2.37,0,0,1-2.38-1.6,7.35,7.35,0,0,1-.26-3.07,101,101,0,0,0-2-26l-6.58,7.71c-4.43,5.17-9.43,10.68-16.16,11.74-2.51.4-5.08.13-7.62.28a23.25,23.25,0,0,0-9.77,2.81c-3.25,1.79-6.22,4.41-9.89,4.91a29.73,29.73,0,0,1-4.81,0,25.33,25.33,0,0,0-19.15,8l-.31-.4c-1.48-3-4.69-4.72-7.71-6.22a8.05,8.05,0,0,0-4.76-1.13h-7.39L141,1899.1c-4.74,22.27-11,46.81-29.94,59.38-5.41,3.58-12,6.32-14.93,12.09-1.91,3.71-2,8.06-2,12.23-.1,22.79-.14,46,6.65,67.76,2.77,8.88,6.69,17.6,7,26.9.62,17.17-10.81,32-18.59,47.35-3.75,7.37-6.72,15.12-10.66,22.38-12.92,23.79-36.14,42.4-42.14,68.8-3.61,15.91-.37,32.45,1.58,48.65a304,304,0,0,1-6.65,108.93l.74,13.53c2.77,38.14,7.28,76.12,11.78,114.09L51,2561.41c.81,6.85,1.91,14.29,6.92,19,6.64,6.28,17.85,5,25.26-.31s11.95-13.7,16.24-21.76,8.85-16.42,16.29-21.71c5.87-4.16,13.52-6.47,17.21-12.64L128,2507.3a209.13,209.13,0,0,1-9.88-86.69c.29-3,.72-6.09,2.65-8.35,3.2-3.76,9-3.54,13.85-2.67,14.55,2.64,28.61,8.34,43.38,8.8,9.92.31,19.92-1.78,29.71-.16,15.49,2.55,28,13.83,42.6,19.56,3.46,1.35,7.16,2.41,10.86,2.06s7.42-2.36,9-5.74c1.17-2.57,1-5.54.62-8.34-2.56-20.64-12-40-24.72-56.48-4.69-6.06-9.86-11.79-13.77-18.39s-6.52-14.28-5.48-21.87c.83-6,3.86-11.49,5.61-17.31s2-12.78-2.1-17.29c-3.29-3.63-8.54-4.72-13.44-4.93s-9.91.27-14.62-1.08-9.21-5.17-9.34-10.07a10.61,10.61,0,0,1,2.83-7.07c6.24-7.14,17.87-6.28,26.32-2s15.32,11.3,23.84,15.48,20.26,4.6,26.13-2.84l4.22-3.13c3.49-5.18,7.28-10.61,13-13.16l5.66-3.4c4.66-1.09,9.61-.18,14,1.66a69.4,69.4,0,0,1,12.33,7.29,32.77,32.77,0,0,1,3.81,2.91c5.29,4.92,6.72,12.58,9.75,19.14l4.57,8.78,15,14.42c5.68,5.46,11.37,10.94,16.12,17.22,10,13.19,15.88,29.92,29.13,39.84,10.68,8,24.46,10.23,37.65,12.19l23.81-18.41c-2.83-11.54-4.82-23.28-6.8-35q-2.07-12.2-4.13-24.39c-4.58-27.09-9.17-54.21-11.8-81.57-.74-7.74-1.77-16.37-7.77-21.31l-4.41-3.48c-4.11-2.61-9.41-1.55-14.27-1.36s-10.82-1.51-11.86-6.27a10.49,10.49,0,0,1,.21-4.35c.92-4.4,2.66-8.6,3.47-13s.57-9.31-2.1-12.92c-4.53-6.09-14-6.24-19.23-11.73-3.46-3.63-4.44-9-4.44-14s.85-10,.37-15-2.61-10.2-7-12.66a14.57,14.57,0,0,0-10.69-1,43.08,43.08,0,0,0-10,4.46l-6.73,4a173.65,173.65,0,0,0-12.06,17.75,21.48,21.48,0,0,1-3.07,4.35,18.41,18.41,0,0,1-5.51,3.42,101.19,101.19,0,0,1-18.46,6.28c-2.78.65-5.76,1.17-8.42.15l-4.12-2.81c-.47-8.92-.94-17.83-1.15-26.76-.14-5.82-.13-11.86,2.33-17.13,1.63-3.5,4.27-6.5,5.61-10.12,1.76-4.72,1.11-10,1.31-15,.33-8.72,3.27-17.19,7.35-24.91s9.26-14.78,14.44-21.81l8.44-12.69a27.35,27.35,0,0,1,11.93-8.52,20.87,20.87,0,0,1,14.53.17c2.08.84,4,2.07,6.12,2.83,3.9,1.41,8.5,1.31,11.64,4a10.86,10.86,0,0,1,3.37,6.44,32.1,32.1,0,0,1,.18,7.4l2.7,5.48a43.09,43.09,0,0,1,4.28,16.35c.26,4.5-.18,9.07.68,13.5s3.42,8.91,7.67,10.43a10.87,10.87,0,0,0,9.76-1.65,16.29,16.29,0,0,0,5.71-8.35l3.38-12.07c4-7.28,2.25-16.17,1.42-24.43a9.33,9.33,0,0,1,0-2.89,8.38,8.38,0,0,1,2.13-3.64,31.23,31.23,0,0,1,30.17-9.51,16,16,0,0,1,6.42,2.92,8.18,8.18,0,0,1,3.17,6.12,42,42,0,0,1-.7,4.45c-.16,1.5.13,3.21,1.35,4.08a5.84,5.84,0,0,0,2.36.79c2.05.4,4.31,1.16,5.19,3a6.83,6.83,0,0,1,.46,2.91A43.52,43.52,0,0,1,445,2074.22a28.17,28.17,0,0,1-6.11,3.06,21.13,21.13,0,0,1-9.37.94c5.91,2.85,12.59,3.59,19.14,4.1q10.36.82,20.76,1c2.66,0,5.39.09,7.85,1.09s4.62,3.23,4.7,5.89v6.21q4.17,19.66,8.35,39.32c.4,1.9.86,3.9,2.19,5.32,1.79,1.89,4.64,2.23,6.94,3.46,4.32,2.31,6.21,7.46,7.24,12.26a73.1,73.1,0,0,1,1.35,21.88c-.62,6.87-2.21,13.65-2.26,20.54a73.11,73.11,0,0,0,1.83,15.37l.61,5.13a156.92,156.92,0,0,0-1.86,15.6l1.87,6.35a77.34,77.34,0,0,0-3.47,14c-1.69,11.73,0,23.65,1.74,35.37,4.05,27.67,8.22,55.75,19.67,81.25l4.68,5.34a68.26,68.26,0,0,0,8.66,21c2.33,3.73,5.22,7.39,9.3,9s9.54.56,11.5-3.38c.92-1.83,1-4,1.52-5.94,2.56-9.07,14-11.63,23.42-12.19,26.19-1.56,55.08.79,74.06,18.9,9.7,9.26,15.77,21.76,25.26,31.24,5.85,5.84,14.66,10.61,22.14,7.09,6.51-3.06,9-11,9.51-18.23s-.2-14.71,2.73-21.28c1.12-2.5,3-4.91,5.59-5.62a9.64,9.64,0,0,1,6.13.84c10.93,4.58,17,16,23.35,26s15.82,20.17,27.65,19.53c3.64-.2,7.18-1.44,10.82-1.43,9.56.05,16.77,8.43,22.27,16.25,16.58,23.56,32.06,50.28,58.21,62.37l5.35,3c10.53,2.81,21.23,5.64,32.12,5.4,10.7-.25,21.09-3.46,31.69-5,10.42-1.5,21-1.35,31.52-.65a308.48,308.48,0,0,1,60.8,10.17c6,1.64,12.09,3.48,18.33,3.57,14.64.23,27.64-9,41.87-12.42,15.68-3.79,32.31-.45,48.17-3.39,7-1.31,15.26-6.07,14.12-13.13-.42-2.59-2.1-4.78-3.87-6.72-8.34-9.06-20.21-15.25-25.51-26.36-2.86-6-3.46-12.79-3.91-19.42q-1.8-26.57-1.43-53.21l1.11-8.93a47.72,47.72,0,0,1,12.06-39.85,13.39,13.39,0,0,1,13.57-4.87c10.95,1.26,21.16,6.33,30.13,12.71s16.91,14.11,25.12,21.47q14.07,12.6,29.31,23.84l22.88,8.37c4.46,3.19,9,6.41,14,8.59,2.57,1.11,5.3,2,7.58,3.58a44.13,44.13,0,0,0,3.91,2.92,21.31,21.31,0,0,0,4.83,1.63,34.57,34.57,0,0,1,11.45,5.67,21.42,21.42,0,0,0,4.33,2.9c4,1.73,8.81.06,13,1.41,2.66.87,5.33,3,8,2l2,.85c1.69-1.12,4-.35,5.7.71s3.41,2.45,5.43,2.56a12.08,12.08,0,0,0,3.78-.74c6.69-1.85,13.77-.24,20.71,0a78.41,78.41,0,0,0,20.37-2.46c10.58-2.47,21-6.11,30-12.29a24.07,24.07,0,0,0,5.94-5.44,30.47,30.47,0,0,0,3.07-5.92,24.81,24.81,0,0,0,2.41-8.1,6.63,6.63,0,0,0-1-4.28c-1.35-1.94-3.92-2.52-6.26-2.83a73.15,73.15,0,0,0-25.8,1.12l-2.93,2.15c-3.23,3.75-8.06,5.72-12.84,7s-9.74,2-14.32,3.86c-6.73,2.75-12.35,7.89-19.27,10.11a9.63,9.63,0,0,1-3.71.59c-2.11-.16-4-1.38-5.69-2.59a200.41,200.41,0,0,1-18.06-14.28c-2.61-2.32-5.16-4.71-7.94-6.83-8.81-6.71-19.87-10.66-27-19.16a11,11,0,0,1-2.42-4.25c-1.34-5.46,4.38-11.11,2.4-16.38l1.66-5.67a36.57,36.57,0,0,1,21.44-32.45c7.81-3.4,16.59-3.92,24.57-6.92s15.65-9.94,15.08-18.44c-.33-4.86-3.22-10.17-.52-14.22,3.08-4.64,10.21-3,15.45-4.92,6.08-2.2,9-8.93,11.31-15l8.49-22.54c3.12-8.26,6.38-16.76,12.48-23.14s15.84-10.14,24-6.71c5.75,2.42,9.59,7.81,13.29,12.83,42.12,57,106.56,97.08,176.34,109.62l4.75,2.45c6.83,3.2,14.61,3.54,22.14,3.83,3.36.13,6.85.23,9.92-1.12s5.57-4.63,4.89-7.92l7.29-11.64a117.53,117.53,0,0,0-45-71.13c-10.62-7.84-23-14.29-29.83-25.57a36,36,0,0,1-3.16-30,7,7,0,0,1,2.69-4,7.22,7.22,0,0,1,3.66-.68c41-.19,76.53,26.14,111.37,47.71,7.3,4.52,14.86,8.94,23.25,10.79s17.83.75,24.36-4.83c8.56-7.3,9.94-19.89,9.73-31.13-.1-5.1-.32-10.53,2.3-14.9,5.45-9.11,18.61-8,29.22-7.63a89.53,89.53,0,0,0,38.2-7.09c4.29-1.83,9.16-4,13.37-2,5.52,2.6,5.86,10.13,6,16.23a94.07,94.07,0,0,0,11.76,43.57c12.11,21.83,32.5,38.1,44.93,59.75,6.2,10.81,12.15,24.3,24.41,26.52,9.68,1.76,19.29-5.08,23.93-13.76s5.43-18.84,6.13-28.66c1-14.06,2-28.41-1.46-42.08-4.61-18.3-16.89-37.41-8.72-54.41,3.72-7.74,11.18-13.22,14.73-21,7.28-16-4.06-33.7-10.28-50.18-7.18-19-7.47-39.86-7.68-60.2-.27-26.05,1.16-55.9,21.45-72.26l6-10.92c9.53-23,19.24-47.23,16.2-71.9-1.89-15.34-8.68-29.92-9.16-45.36-.34-11.08,2.59-22.13,1.52-33.16-1.21-12.51-7.47-24-9.79-36.36-4.62-24.6,6.65-49.18,18.63-71.16s25.35-44.74,25.35-69.77l-.23-14.13q2.58-14.33,4-28.82c2.21-22.17,2.31-45-4.83-66.15s-22.49-40.35-43.54-47.66c-4.38-1.52-9-2.53-13.1-4.65s-7.86-5.67-8.73-10.23,1.12-8.88,3-13c8.63-19.18,15.91-39.16,18.94-60s1.65-42.59-6.51-62l6.54-11.7a229.42,229.42,0,0,1,48.93-11.16c6.49-.74,13.08-1.22,19.27-3.32s12-6.06,14.81-12C2048,1296,2042.26,1284.09,2035.9,1274.8ZM897.33,2114.62a53,53,0,0,1-5.8,10.11,17.85,17.85,0,0,1-9.4,6.57l-2.64,2a75.79,75.79,0,0,1-25.25,1.69l-3.67-2.32a132.19,132.19,0,0,1,26.93-23.12c6.68-4.32,14.46-8.16,22.28-6.73l1.15.95C900.69,2107.58,899,2111.16,897.33,2114.62Zm-39-43c-22.1-11-47.54-12.67-72.21-13.69q-24.74-1-49.49-1.47c-7.4-.14-15.83-.71-20.45-6.5-4.15-5.19-3.42-13.18.51-18.54s10.38-8.39,16.9-9.7l-1.46-.51c-9.17,2.07-18.68,1.89-28.09,1.7l-9.77-.2a57.15,57.15,0,0,0-9.07.3c-2.31.32-4.57.93-6.84,1.48a226.83,226.83,0,0,1-34.13,5.19,32.76,32.76,0,0,1-9.69-.16c-3.17-.69-6.26-2.43-7.83-5.27a14.76,14.76,0,0,1-1.39-7.45,28.48,28.48,0,0,1,.82-7c2.1-7.95,8.8-13.7,15.15-18.93l.07-3.33q.66-5.53,1.33-11.07a23.83,23.83,0,0,1-12.5,10.59,42.19,42.19,0,0,1-16.43,2.47c-2.84-.07-5.81-.36-8.16-1.93-2.61-1.75-4-4.8-4.81-7.84a26.87,26.87,0,0,1-.29-12c1.17-5.73,4.16-10.89,6.56-16.22,4-8.75,6.37-18.1,8.78-27.4a17.44,17.44,0,0,0,.82-6.89,1.26,1.26,0,0,0-.39-.86,1.24,1.24,0,0,0-1.1-.05,10.7,10.7,0,0,0-4.67,2.71l-3.85,3.2a8.06,8.06,0,0,1-6.55-3.53,24,24,0,0,1-3.17-7l-8.58-26.41a67.45,67.45,0,0,0-4-10.34c-1.61-3.07-3.68-5.86-5.41-8.85a45.48,45.48,0,0,1-5.48-15.34l-1.79-15.67a51.54,51.54,0,0,1,9.79-11.59,19.14,19.14,0,0,1,5.83-3.81c3.71-1.39,7.83-.84,11.77-1.19a25.79,25.79,0,0,0,7.49-1.85,8.73,8.73,0,0,1,3.42-1,7.19,7.19,0,0,1,2.48.62,62,62,0,0,1,36.19,39.07l1.1,5.55c3.6,6.09,7.24,12.32,8.73,19.23a32.28,32.28,0,0,0,1.34,5.42c1.31,3.19,4.06,5.56,6.87,7.55,4.4,3.13,9.3,5.72,14.61,6.64s11.11,0,15.38-3.3a7.24,7.24,0,0,0,2.09-2.32,8.26,8.26,0,0,0,.42-5.07c-.61-3.85-1.95-7.55-2.56-11.39s-.43-8,1.76-11.26c2.84-4.18,8.27-5.69,13.3-6.22a57,57,0,0,1,12.32.06l4.24-.57c7-.86,14.34-1.68,20.85,1a32.5,32.5,0,0,1,7.4,4.58,76.6,76.6,0,0,1,8.38,7.62,46.45,46.45,0,0,1,4.27,5.13,65.16,65.16,0,0,1,5.77,11c4.43,10,8.89,20,11.23,30.6,1.1,5,1.87,10.37,5.23,14.22l1,.05c-.48-8.4,3.93-17.05,11.31-21.08s17.42-2.89,23.3,3.13c4,4.11,5.87,9.82,7.58,15.31q4.62,14.81,9.25,29.61c1.21,3.89,2.42,7.77,3.36,11.73a66,66,0,0,1,1.86,13,32.28,32.28,0,0,1-1,9.94,46.22,46.22,0,0,1-4.16,9.25l-5.59,10.33c-1.48,2.75-3,5.49-4.6,8.14-2,3.3-4.31,6.44-6.58,9.58-2.76,3.82-5.58,7.7-9.37,10.51a14.07,14.07,0,0,1-8.19,3.09l.69.49a94.24,94.24,0,0,0,40.14-5.94c4.6-1.76,9.08-3.88,13.83-5.17s9.91-1.72,14.55,0c7.49,2.69,12.11,10.14,15.37,17.4a91.65,91.65,0,0,1,6.63,20.38,75,75,0,0,1,1.28,16.45l.1,1.46C886.05,2090.05,872.8,2078.8,858.33,2071.6Zm159.74-298.78-5.28,2c-17.37,8.26-35.31,15.61-54.12,19.61-22.19,4.72-45.19,4.7-67.37,9.47l-3.22,1.3a41.5,41.5,0,0,1-32-3c-2.16-1.17-4.35-2.71-5.15-5a10.51,10.51,0,0,1-.1-5,21.9,21.9,0,0,1,2.87-8.6c2.36-3.62,6.3-5.83,10.14-7.8q10.61-5.45,21.7-9.86l5-2.25c17.66-1,35.35-1.92,52.85-4.47a95.78,95.78,0,0,0,14.83-3.11,86.7,86.7,0,0,0,11.68-4.82,178,178,0,0,0,26.94-16.16c3.56-2.59,7.08-5.34,11.16-7l4.59-.37c2-1.57,5.17-.85,7,1s2.56,4.43,3,7a76.62,76.62,0,0,1,.87,11C1023.62,1755.71,1023.35,1765.45,1018.07,1772.82Zm149-145.13c-.23,3.31-.55,6.6-1,9.89a86.92,86.92,0,0,1-1.53,8.77,60.91,60.91,0,0,1-12.79,25.33l-3.87,1.55a68.28,68.28,0,0,0-14.5-3.49l1-12.67c.51-6.43,1.24-13.4,5.65-18.1l6.09-5.84a41.75,41.75,0,0,1,13,1.23,26.06,26.06,0,0,0-3.7-8.53,8.42,8.42,0,0,1-1.57-3.08c-.5-2.91,2.5-5.24,3.11-8.13l1.65-3c2.39-1.39,5.39.73,6.7,3.16C1167.38,1618.69,1167.32,1623.31,1167,1627.69Zm210.67,171.65c-2.27,9.49-7.71,19-16.8,22.61-3.74,1.47-8,1.89-11.23,4.27-2.21,1.62-3.74,4-5.62,6-4.69,5-11.39,7.4-17.84,9.66l-1.26-.23c-5.25-7.42-3.87-18.07,1.21-25.61s13.15-12.51,21.32-16.49a149.35,149.35,0,0,1,17.87-7.34l-.74-.93-30.75-8.81a79.4,79.4,0,0,0-10.29-2.47c-17.4-2.59-34.47,6.26-52,7-4.23.18-9.22-.56-11.27-4.26-1.75-3.15-.49-7.27,2-9.89s5.89-4.07,9.2-5.47c1.26-.53,2.66-1.23,3-2.55.39-1.48-.87-3-2.32-3.46a11.59,11.59,0,0,0-4.55-.16c-6.29.44-13.08-1.1-18.61,1.93l-.06-.14c0-1.1,0-2.2,0-3.29a16,16,0,0,1-12.65-4.84,12.91,12.91,0,0,1-2.75-13c1.78-4.69,6.34-7.66,10.69-10.17,8.8-5.08,17.94-9.66,27.64-12.66s20-4.37,30.06-3l.6-.5c.07-3-2.86-5.24-5.66-6.41a65.43,65.43,0,0,0-14.12-4.31c-17.19-2.85-34.65-6.85-51.75-3.46l0-.73c1.94-5.65,1.25-11.84.24-17.72s-2.34-11.85-1.63-17.78l-1,0a25.83,25.83,0,0,1-14.66,11.54l-3.34-.59a31.67,31.67,0,0,0-1-8.64,37.56,37.56,0,0,0-2.54-5.69c-2.41-4.87-4.36-10.68-2.07-15.61,1.28-2.76,3.72-4.81,6.23-6.54a53.68,53.68,0,0,1,7.75-4.46l6.41-4.33a89.71,89.71,0,0,1,57.69-11.72c3.79.53,7.7,1.37,10.71,3.74,2.52,2,4.15,4.85,5.93,7.53,4.51,6.79,10.41,12.88,13,20.62,2.19,6.55,1.78,13.65,1.35,20.54q-.61,9.75-1.22,19.49c-.42,6.7-.87,13.53-3.38,19.76-2,4.82-5,9.07-8.12,13.27a46.31,46.31,0,0,1-5.61,6.71,45.74,45.74,0,0,1-6.5,4.7l-7.76,4.94c-6.79,4.33-13.59,8.66-20.55,12.7l.63,1.06a131,131,0,0,0,20.29-.59,43.43,43.43,0,0,1,8.74-.44c5,.49,9.7,3,14.72,3.12,6.13.16,11.74-3.19,17.68-4.73a30.71,30.71,0,0,1,18.48,1,7.19,7.19,0,0,1,5.43,5.94,24.82,24.82,0,0,1-4.61,21.21l1.09.33c3.71.72,7.47-.85,10.76-2.7s6.5-4.06,10.21-4.8,8.16.52,9.73,4c.68,1.5.74,3.2,1.19,4.78.55,1.91,1.67,3.61,2.37,5.47C1379.2,1790.67,1378.7,1795.16,1377.7,1799.34Z"></path>
    <path data-name="1a" data-official="" data-plain="Flower" data-loc="" d="M1640,2472.4c4.11-3.41,10.7-.07,13.12,4.69s2.31,10.37,3.68,15.53a28.33,28.33,0,0,0,24.1,20.42c4.08.39,8.72.05,11.66,2.9,2.45,2.38,2.77,6.14,2.91,9.56,1.4,35.41-1.46,70.86-1.19,106.3.12,16.49,1.85,35,14.4,45.66,2.68,2.29,6,4.42,6.74,7.85a10.75,10.75,0,0,1-.91,6.24c-2.37,5.91-6.5,10.93-9.39,16.61s-4.41,12.73-1.32,18.3c4,7.17,13.48,8.74,21.68,9a192,192,0,0,0,26.16-1c12.31-1.32,26.56-5.53,30.58-17.23,2.77-8.08-.47-16.87-.5-25.4,0-13,7.29-24.64,13.37-36.1a218,218,0,0,0,23.67-127.31l-1.33-8c9.47.09,19.17-.63,27.84-4.44s16.22-11.16,18.17-20.42a61.39,61.39,0,0,0,52.88-6.17c12-7.71,20.82-19.36,28.55-31.31,6.46-10,12.4-20.58,14.91-32.2,2.25-10.48,1.62-21.33.77-32-.59-7.54-1.41-15.41-5.56-21.73s-11-10.14-17.61-13.63c-10.92-5.72-22.14-11.11-34.11-14.05s-24.85-3.31-36.44.9l-.18-5L1865,2332c-3.89-24.34-21.11-44.87-41.53-58.68-14.54-9.84-32.66-17-49.51-12.1a12.31,12.31,0,0,1-5.12.86c-2-.28-3.65-1.68-5.41-2.69-6.24-3.6-14-2.48-21.11-1.11-14.8,2.88-29.72,6.52-42.73,14.14s-24,19.77-27.17,34.52c-1.65,7.79-1.05,15.85-.9,23.81a2.86,2.86,0,0,1-3.27,3.53l-16.48,1.42-8.44,2.47c.68,3.29-1.82,6.56-4.89,7.92s-6.56,1.25-9.92,1.12c-3.76-.15-7.59-.3-11.33-.82l-5.68,8.77a68.2,68.2,0,0,0-17.07,45.24,38.89,38.89,0,0,0,2.09,13.34c2.07,5.54,5.89,10.24,8.61,15.5,3.57,6.89,5.21,14.6,8.18,21.78s7.74,14.2,15,16.91Z"></path>
    <path data-name="1b" data-official="" data-plain="Outer Sepals" data-loc="" d="M1495.8,2614.27c2.52-16.43-7.48-31.78-15.07-46.56-27.44-53.39-26.52-116.59-20.88-176.35.81-8.64,1.88-17.71,7-24.72,4.41-6.08,11.36-9.84,18.46-12.31,12.25-4.25,25.42-5.19,38.38-4.77,21.41.7,45.14,6.66,56.38,24.9,9.29,15.09,7.46,34.5,13.72,51.08,3.91,10.36,10.89,19.35,14.67,29.76,2.91,8,3.82,16.61,4.15,25.13a191.17,191.17,0,0,1-13.6,78.19c-9,22.41-22.59,45.59-16.88,69.05,1.69,7,5.05,13.46,7,20.38s2.32,14.83-1.64,20.84-11.27,8.92-14.88,15c-5.3,9-.5,20.53-2.53,30.75s-11.06,18.1-20.94,21.68-20.62,3.69-31.13,3.75c-8.5,0-18.64-.8-22.82-8.2-3.75-6.62-.55-14.92,3.09-21.61s7.83-14.11,5.82-21.46c-2.14-7.83-10.4-12.13-15.33-18.58-9.66-12.63-5.12-30.61-.17-45.71Zm-251.24-191.79c-14.48,29.37-14.25,63.6-12.54,96.3,1.34,25.53,3.44,51.29,11.1,75.69,4.73,15.08,11.56,29.57,14.34,45.13,3.87,21.59-.3,43.69-1.71,65.58-.4,6.19-.16,13.36,4.68,17.25,2.87,2.31,6.72,2.86,10.38,3.34,10,1.3,20.44,2.59,30.2-.16s18.81-10.63,19.66-20.74c.41-4.84-1-10,1-14.4,2.33-5,8.32-7.19,11.55-11.66,3.88-5.36,3-12.67,2.06-19.22-4.82-32.79-7.63-67.57,5.68-97.92,5.42-12.35,13.31-23.44,19.71-35.32a161.89,161.89,0,0,0,19.12-70.36l1.59-10a78.41,78.41,0,0,1-20.37,2.46c-6.94-.23-14-1.84-20.71,0a12.08,12.08,0,0,1-3.78.74c-2-.11-3.71-1.5-5.43-2.56s-4-1.83-5.7-.71l-2-.85c-2.62,1-5.29-1.1-8-2-4.17-1.35-9,.32-13-1.41a21.42,21.42,0,0,1-4.33-2.9,34.57,34.57,0,0,0-11.45-5.67,21.31,21.31,0,0,1-4.83-1.63,44.13,44.13,0,0,1-3.91-2.92c-2.28-1.62-5-2.47-7.58-3.58-5-2.18-9.54-5.4-14-8.59Zm46.06-72.45c9.87-11.49,26.48-14.12,41.62-14.57,5.35-.16,10.87-.12,15.81,1.94a33.92,33.92,0,0,1,9.36,6.38,99.09,99.09,0,0,1,31.33,56.37l1.07,8.13-2.93,2.15c-3.23,3.75-8.06,5.72-12.84,7s-9.74,2-14.32,3.86c-6.73,2.75-12.35,7.89-19.27,10.11a9.63,9.63,0,0,1-3.71.59c-2.11-.16-4-1.38-5.69-2.59a200.41,200.41,0,0,1-18.06-14.28c-2.61-2.32-5.16-4.71-7.94-6.83-8.81-6.71-19.87-10.66-27-19.16a11,11,0,0,1-2.42-4.25c-1.34-5.46,4.38-11.11,2.4-16.38l1.66-5.67Z"></path>
    <path data-name="1c" data-official="" data-plain="Inner Sepals" data-loc="" d="M1350.64,2670.39c-5.09-12.95-10.25-26.29-10.18-40.2s6.64-28.72,19.31-34.46c13.09-5.94,28.63-.78,40.77,6.93a6.22,6.22,0,0,0,3.72,1.38,6.5,6.5,0,0,0,3.07-1.52c16.84-12.22,42.31-10.56,57.43,3.73s18.2,39.63,6.94,57.13c-3.36,5.23-8,10.09-8.8,16.25-.52,3.75.43,7.53,1.13,11.26a85.39,85.39,0,0,1,1.46,14.45,19.36,19.36,0,0,1-.71,6.4,15.78,15.78,0,0,1-6,7.42c-8.42,6.16-19.42,7.19-29.82,8-6.66.5-13.79.88-19.55-2.49-3.45-2-6.14-5.26-9.79-6.87-6.09-2.68-13.05-.23-19.51,1.38a75,75,0,0,1-34.34.41c-4-.89-8.41-2.66-9.48-6.56-.62-2.22.07-4.57.82-6.75a104.66,104.66,0,0,1,12.57-24.94Z"></path>
    <path data-name="1d" data-official="" data-plain="Stamen" data-loc="" d="M1179.05,2362.76c9,6.39,16.91,14.11,25.12,21.47l-.91,5.33-1.89,35.16a45,45,0,0,0,.29,10.76c.89,4.67,3.23,8.91,5.21,13.23,8.78,19.17,10.7,40.7,11.55,61.76,1.15,28.37.54,57.17-7.06,84.52-3.63,13.09-8.82,25.69-12.92,38.64-2.7,8.52-4.94,17.53-3.32,26.32,2.78,15.06,16,25.88,22.13,39.93,2.16,5,3.4,10.59,1.94,15.81-3,10.71-15.53,15.3-26.52,17-14.58,2.33-29.41,2.49-44.17,2.21-4-.07-8.54-.53-10.67-3.85a9,9,0,0,1-.88-6.47c2.06-11.1,15.12-19.48,12.8-30.53l-1.36-10.27c-10.91-12.6-11.34-31.51-6.44-47.44s14.29-30,21.58-45a182.78,182.78,0,0,0,18.26-73.64c.36-10.63-.35-21.77-5.73-30.94-3.9-6.65-10-11.84-13.51-18.71-3.67-7.19-4.13-15.53-4.5-23.59-.48-10.5-.92-21-1.18-31.51-.34-14-.14-28.74,6.92-40.8Z"></path>
    <path data-name="1e" data-official="" data-plain="Section of Seed-vessel" data-loc="" d="M1028.5,2674.12c-14.62-7.93-26.26-21.59-30.83-37.6s-1.7-34.17,8.35-47.43c2.78-3.67,6.07-7,8.46-10.9s3.83-8.78,2.44-13.16c-1.78-5.62-7.87-9.7-7.78-15.59.07-4.92,4.86-8.79,9.75-9.3s9.68,1.59,13.86,4.19c4.92,3.06,10,7.08,15.78,6.35a18.37,18.37,0,0,0,7-2.86c5-3,9.8-6.65,15.51-7.72s12.69,1.59,14,7.25c.86,3.68-.85,7.41-1.34,11.15-1.22,9.2,4.8,17.57,9.6,25.51,8.5,14,14,31,10,46.91-2.92,11.66-10.57,21.52-18.57,30.49-3.92,4.39-8.17,9.06-8.92,14.9-.74,5.65,2,11.09,3.9,16.47a61.6,61.6,0,0,1,3.38,15.52c.36,4.18.18,8.73-2.36,12.07a17.48,17.48,0,0,1-5.25,4.2,70,70,0,0,1-50.07,7.73c-3-.68-6.15-1.65-8.34-3.84a12.8,12.8,0,0,1-3.32-7.34c-1-6.91,1.79-13.8,5.21-19.88s7.56-11.85,9.78-18.46Z"></path>
    <path data-name="2" data-official="Justicia carnea" data-plain="Pink-flowered Justicia" data-loc="Rio Janeiro" d="M552.59,2420.29a182.85,182.85,0,0,1,26.95,34.61c3.86,6.42,7.38,13.26,8.27,20.7s-1.31,15.61-7.18,20.26c-6.92,5.47-16.92,4.77-25.32,2.07-3.73-1.19-7.41-2.74-11.32-3s-8.22,1-10.3,4.33c-1.38,2.19-1.59,4.88-2.37,7.34-2.64,8.28-12.38,13.17-20.89,11.41s-15.22-9.25-17.24-17.7c-2.62-10.95,1.54-23.49-4.21-33.17-3.86-6.48-11.23-9.92-16.56-15.26s-8.6-12.71-11.63-19.79l-16.69-39-6.81-7.4,23.81-18.41c-2.83-11.54-4.82-23.28-6.8-35q-2.07-12.2-4.13-24.39c-4.58-27.09-9.17-54.21-11.8-81.57-.74-7.74-1.77-16.37-7.77-21.31l-4.41-3.48-6.65-9a21.36,21.36,0,0,1,.54-16,46.2,46.2,0,0,0,2.67-5.82c.8-2.67.56-5.52.3-8.29a445.26,445.26,0,0,0-14.9-79l-4.67-8.4a16.29,16.29,0,0,0,5.71-8.35l3.38-12.07c4-7.28,2.25-16.17,1.42-24.43a9.33,9.33,0,0,1,0-2.89,8.38,8.38,0,0,1,2.13-3.64,31.23,31.23,0,0,1,30.17-9.51,16,16,0,0,1,6.42,2.92,8.18,8.18,0,0,1,3.17,6.12,42,42,0,0,1-.7,4.45c-.16,1.5.13,3.21,1.35,4.08a5.84,5.84,0,0,0,2.36.79c2.05.4,4.31,1.16,5.19,3a6.83,6.83,0,0,1,.46,2.91A43.52,43.52,0,0,1,445,2074.22a28.17,28.17,0,0,1-6.11,3.06,21.13,21.13,0,0,1-9.37.94c5.91,2.85,12.59,3.59,19.14,4.1q10.36.82,20.76,1c2.66,0,5.39.09,7.85,1.09s4.62,3.23,4.7,5.89v6.21q4.17,19.66,8.35,39.32c.4,1.9.86,3.9,2.19,5.32,1.79,1.89,4.64,2.23,6.94,3.46,4.32,2.31,6.21,7.46,7.24,12.26a73.1,73.1,0,0,1,1.35,21.88c-.62,6.87-2.21,13.65-2.26,20.54a73.11,73.11,0,0,0,1.83,15.37l.61,5.13a156.92,156.92,0,0,0-1.86,15.6l1.87,6.35a77.34,77.34,0,0,0-3.47,14c-1.69,11.73,0,23.65,1.74,35.37,4.05,27.67,8.22,55.75,19.67,81.25l4.68,5.34a68.26,68.26,0,0,0,8.66,21c2.33,3.73,5.22,7.39,9.3,9ZM659.8,1885.56a32.28,32.28,0,0,1-1.34-5.42c-1.49-6.91-5.13-13.14-8.73-19.23l-1.1-5.55a62,62,0,0,0-36.19-39.07,7.19,7.19,0,0,0-2.48-.62,8.73,8.73,0,0,0-3.42,1,25.79,25.79,0,0,1-7.49,1.85c-3.94.35-8.06-.2-11.77,1.19a19.14,19.14,0,0,0-5.83,3.81,51.54,51.54,0,0,0-9.79,11.59l1.79,15.67a45.48,45.48,0,0,0,5.48,15.34c1.73,3,3.8,5.78,5.41,8.85a67.45,67.45,0,0,1,4,10.34l8.58,26.41a24,24,0,0,0,3.17,7,8.06,8.06,0,0,0,6.55,3.53l3.85-3.2a10.7,10.7,0,0,1,4.67-2.71,1.24,1.24,0,0,1,1.1.05,1.26,1.26,0,0,1,.39.86,17.44,17.44,0,0,1-.82,6.89c-2.41,9.3-4.83,18.65-8.78,27.4-2.4,5.33-5.39,10.49-6.56,16.22l2.77-1.46a88.56,88.56,0,0,0,48.37-39.69,50.22,50.22,0,0,0,5.07-11.68c1.56-5.75,1.62-11.78,1.67-17.73ZM51.92,1476.41c-7.22,14.22-6,31.19-3,46.85s7.56,31.34,6.37,47.24c-.91,12.22-5.18,23.89-8.09,35.79a165,165,0,0,0,1.82,85c1.61,5.52,3.89,11.44,8.92,14.23a14.6,14.6,0,0,0,9.13,1.47c12-1.72,19.09-14,23.73-25.2a313.09,313.09,0,0,0,21.26-78.94c.9-6.74,1.6-13.62,4.37-19.83s8-11.74,14.75-12.82c6.38-1,12.84,2.18,17.35,6.8s7.4,10.54,10.22,16.35L177,1630.82l2.89,5.85c5,2.54,8.3,7.66,10,13,2.05,6.52,2,13.48,2.92,20.26,1.7,12.75,6.68,24.82,12.07,36.51,2.9,6.3,6,12.66,7,19.53.57,3.73.51,7.55,1.1,11.29a66.68,66.68,0,0,0,3.91,13l13.25,35.16c2.51,6.65,5,13.33,8.56,19.5,2.65,4.63,5.86,8.95,8.11,13.79a65.83,65.83,0,0,1,4.44,14.72c1.84,9.07,3,18.36,2.2,27.58l-.42,3.83a101,101,0,0,1,2,26,7.35,7.35,0,0,0,.26,3.07,2.37,2.37,0,0,0,2.38,1.6c1.21-.21,1.86-1.6,3-2.07l9.1-5a67.75,67.75,0,0,0,8.47-11.12l-2.59-14.12c-2.45-3.52-1.76-8.41.19-12.22s5-7,7.31-10.54c3.17-4.89,5-10.5,6.8-16,2.42-7.47,4.87-15.07,5.14-22.92.11-3.06-.1-6.21.93-9.09a22.88,22.88,0,0,1,3.53-5.77c4.61-6.07,9.17-12.32,11.88-19.45s3.38-15.34.2-22.27l.6-1.23c6.68-5.85,9.05-15.22,9.63-24.08.28-4.19.43-8.88,3.43-11.83s7.7-3.06,11.19-5.34c1.43-.93,2.63-2.21,4.1-3.08,3.85-2.25,8.69-1.27,13-.23l8.2-5.3c6.38-8.22,9.49-18.6,10.42-29s-.18-20.79-1.51-31.1c-.87-6.78-1.79-13.93.84-20.24s10.28-11.07,16.43-8.08c3.43,1.67,5.51,5.24,6.92,8.78,3.37,8.45,4,17.69,4.52,26.77a678,678,0,0,1-.93,93.36l3.21,7.51a13.17,13.17,0,0,0,4.27.73c1.06-.1,2.06-.54,3.12-.65,3.82-.39,6.57,3.45,8.45,6.81a70.49,70.49,0,0,1,25.28-26.24c3.25-2,6.68-3.64,9.65-6,4.44-3.53,7.71-8.41,12.35-11.68,6.9-4.87,15.83-5.53,24.27-6l8.54.19a89.2,89.2,0,0,0,9.58,14.78,122.71,122.71,0,0,0,11.71,11.88l12.27,11.36-4.48.78.3.59c4.64,4.65,12.19,4.71,18.59,3.2,2.28-.53,4.6-1.23,6.92-.9a33.72,33.72,0,0,1,4.66,1.41c8.59,2.58,18.23-3.29,21.59-11.6,1-2.57,1.59-5.33,2.81-7.81s3.31-4.79,6-5.22a7.29,7.29,0,0,0,2.65-.55c1.68-1,1.34-3.53.59-5.33-6-14.49-23.15-21.66-30.14-35.71,5.82,2,12.67,4,17.8.58a20.09,20.09,0,0,0,4.59-4.83l15.7-20.75,4.45-1.11c2.56-4.9,5.15-9.84,8.74-14,2-2.35,4.3-4.45,6.43-6.68a127.19,127.19,0,0,0,8.79-10.59q16.86-22,32.13-45.28l.46-.37c2.64,2.26,3.08,6.1,3.33,9.55l1.65,22.29a19.38,19.38,0,0,0,1.39,6.94c1,2.14,3.09,4,5.46,4l.92-.67c5.89-7.78,9.53-17,13.09-26.08l3.93-10L690,1580a60.71,60.71,0,0,0,3.3,14.87,17.56,17.56,0,0,0,2.82,5.45c4.13,5,12.32,4.84,17.6,1.1s8.09-10.07,9.64-16.34c3.16-12.72,2.09-26.2-1-38.92-1.6-6.45-3.73-13-3-19.59.52-4.67,2.45-9,4.36-13.35q3.7-8.36,7.42-16.7l.1-4c.37-16.76,1-34.5,10.15-48.57,1.48-2.28,3.28-4.51,5.76-5.61,5.86-2.58,12.59,2.38,15.16,8.23s2.58,12.52,4.49,18.62c2.12,6.82,6.52,12.68,11.22,18,4.55,5.19,9.61,10.15,15.87,13s14,3.4,19.88-.15l7.85,2.43a9,9,0,0,1,9.76,3.78c.41.65.73,1.35,1.2,2a4.24,4.24,0,0,0,3.39,1.7,3.31,3.31,0,0,0,3-2.13l1.32-.84a122.64,122.64,0,0,1,26.06-26.4c3.37-2.51,7.31-5,11.46-4.35l-.19-.56c-2.47-.31-5-.65-7.11-2s-3.48-4.09-2.53-6.39a5.29,5.29,0,0,1-4.9,1.13,15.06,15.06,0,0,1-4.7-2.28c-2.73-1.77-5.48-3.63-7.43-6.23s-3-6.09-1.93-9.16v-1.19c-3.83.17-8.07.09-10.91-2.47-2.63-2.37-3.31-6.17-3.65-9.7-.32-3.28-.26-7.13,2.31-9.2.72-.58,1.66-1.07,1.86-2,.14-.65-.17-1.34-.06-2,.2-1.14,1.5-1.68,2.23-2.58,1.16-1.44.71-3.56,1.25-5.33a8.48,8.48,0,0,1,1.6-2.75c6-7.66,14.52-13.06,23.63-16.45s18.82-4.89,28.5-5.79l1.05-.92a75.35,75.35,0,0,0-.27-15.75c-.46-3.09-1.28-6.12-1.75-9.21-1.9-12.49,2.05-25.24,8-36.37l-.64-.63c-4.55,1-8.86-2.12-12.49-5a5,5,0,0,1-2-2.53,5.54,5.54,0,0,1,.69-3.22c4.15-10.13.77-22,4.11-32.41a26.34,26.34,0,0,1,13.28-15.42l.51-1.78a16.48,16.48,0,0,1,1-4.23,5.54,5.54,0,0,1,3-3l-.14-1.38c-5.78-7.72-11.91-15.72-20.63-19.84-2.43-1.14-5-2-7.47-3a35.36,35.36,0,0,1-20.18-39.72l.4-1.2c-2-1-4.27.2-6.24,1.17a41.62,41.62,0,0,1-31.74,1.86A46.81,46.81,0,0,0,853.68,1178a7.46,7.46,0,0,0,1.54-2.59c.57-2.06-.56-4.17-1.66-6l-1.75-2.67c-3-2.25-7.17-2.34-10.92-1.84s-7.51,1.5-11.27,1.12-7.71-2.61-8.59-6.29a5.87,5.87,0,0,0-.76-2.34c-.5-.65-1.7-.84-2.07-.1a6.63,6.63,0,0,1-4.82,8.28,5,5,0,0,0-2.49.76A3.53,3.53,0,0,0,810,1168c-1.06,3.29-2,6.73-4.29,9.33-4.67,5.39-13,5.34-20,4.07a36.51,36.51,0,0,1-8.42-2.39c-4.66-2.11-8.43-5.76-12.09-9.34-3-3-6.09-6-8-9.72s-2.61-8.42-.67-12.17l.2-1.3c-1.57,3-5.89,3.65-9,2.22s-5.22-4.3-7.21-7.07-4.07-5.66-7.12-7.17c-1.68-.83-3.57-1.2-5.19-2.14-2.53-1.46-4.1-4.13-5.28-6.81a43.31,43.31,0,0,1-2.4-27.68l-8-6.17a152.64,152.64,0,0,0-70.22-15.29c-10.82.27-21.65,1.69-32.44.82-9.83-.79-19.46-3.48-29.31-3.87-9.22-.36-18.39,1.31-27.48,3l-46,8.39c-3-11.84,5.59-23.07,12-33.48,22.15-36,20.8-81,26.36-122.92a4.28,4.28,0,0,1,1-2.61,4.23,4.23,0,0,1,3-.76c13.81.15,27.64,3.34,41.33,1.57a58.48,58.48,0,0,0,43-29.31c5-9,7.43-19.2,12.54-28.1,4.3-7.51,10.34-13.87,15.22-21A81.37,81.37,0,0,0,673,783c-2.58-10.12-8.79-21-19.14-22.41l1.15-7.86c12.91-13.63,11.92-37,26.16-49.19,5.46-4.69,12.46-7.06,18.87-10.33a71.17,71.17,0,0,0,17.72-12.84c5.61-5.56,10.44-12.45,11.31-20.31.75-6.7-1.43-13.69.61-20.13,1.44-4.55,4.79-8.18,7.59-12.05s5.21-8.55,4.27-13.23c-1.55-7.74-11.68-13.17-9.76-20.83,1.06-4.25,5.44-6.59,8.63-9.59,6.27-5.88,8.3-15.22,7.31-23.76s-4.58-16.53-8.13-24.36l6.75-13c-10.17-5.82-16.81-16.72-19.15-28.2s-.75-23.46,2.66-34.67c1-3.47,2.29-6.95,2.35-10.58s-1.11-7.26-2-10.84l-9.75-9.64a122.09,122.09,0,0,0-58.77,11.86c14.27-63.39-16.86-134.32-73.17-166.72-6-3.47-12.37-6.59-17.34-11.44-10.24-10-12.8-25.17-15.65-39.18A371.7,371.7,0,0,0,505.47,99.3c-7.62-12-16.23-23.93-28.15-31.73-15.11-9.89-34.32-12.19-52.11-9.14-20.44,3.51-40.65,14.91-49.44,33.69-10.41,22.26-3.1,49.89-14.09,71.86-13.84,27.67-51.76,37-64.68,65.1-7.18,15.63-5,33.7-6.34,50.85a121.82,121.82,0,0,1-40.53,81c-10,8.8-21.59,16-29.78,26.56-13.58,17.45-15.72,40.9-23.16,61.72-5,14-12.46,26.92-17.32,40.92s-6.92,29.84-.93,43.4l2.88,9.47a62,62,0,0,1-.75,58.5c-5.1,9-12.45,16.66-17.34,25.81-4.38,8.21-6.66,17.43-7.65,26.69-1,9.53-.58,19.65,4.16,28s12.84,13.66,20.4,19.32a218.69,218.69,0,0,1,22.64,19.48c2.06,2,4.2,4.38,4.31,7.26.12,3.36-2.5,6.07-4.62,8.67-11,13.54-11.33,32.59-11.09,50,.16,12.62.35,25.37,3.24,37.66s8.77,24.26,18.55,32.26l7.35,4.74c3.16,5.67,12.82,1.51,17.91,5.54a13.13,13.13,0,0,1,3.31,4.91c9.14,19.51,18,40,33.92,54.48,1.3,1.19,2.73,2.48,3,4.22a9,9,0,0,1-.69,4,26.32,26.32,0,0,0,5.19,24.24c3,3.51,6.77,6.21,10.4,9a142.92,142.92,0,0,1,51.5,83.11c-72-8-147,17.18-199.67,67l-10.07,9.31c-22.73,26.52-45.08,54.44-56.76,87.35-8.15,23-10.79,47.52-11.88,71.87-.93,20.85-.84,42.13-7.36,62-3,9.11-7.34,17.73-10.55,26.77A115.84,115.84,0,0,0,53,1461.08Z"></path>
    <path data-name="2a" data-official="" data-plain="Calyx and Bracts" data-loc="" d="M760.79,2631.13c-7-9.07-18.75-13.85-30.21-13.64-7.87.15-16.84,2.12-22.81-3-6.53-5.63-4.72-17,1.55-22.88s15.29-7.72,23.85-8.75,17.49-1.66,25-6c-1.18-6.36-9.33-9.39-11-15.65-1-3.92.85-8.16,3.79-11s6.78-4.41,10.56-5.88c20.49-8,42.3-13.45,64.29-12.81,5.19.15,10.69.76,14.84,3.89,5.27,4,7.07,11,8.12,17.53a163,163,0,0,1,2.06,30.65c-.09,3.44-.27,7,1,10.21s4.51,5.92,7.91,5.37a12.32,12.32,0,0,0,4.88-2.46c19.61-13.49,45-15.73,68.64-13,6.21.71,13.27,2.33,16.2,7.85,2.18,4.1,1.27,9.32-1.27,13.2s-6.47,6.63-10.51,8.91c-19.12,10.78-42.7,13.18-59.78,27-1.71,1.38-3.5,3.34-3,5.48.33,1.36,1.51,2.31,2.6,3.2,8,6.53,14.76,17.39,10.5,26.82-2.69,6-9,9.36-15,11.82a115.08,115.08,0,0,1-39.61,8.43c-6,.2-12.27-.15-17.46-3.17-2.62-1.53-4.85-3.69-7.5-5.17-5.36-3-12-2.94-17.92-1.35s-11.36,4.6-16.87,7.32c-14.14,7-29.32,12.33-45.06,13.35-2.61.17-5.34.2-7.73-.87-4-1.77-6.2-6.32-6.4-10.69-.49-10.33,7.91-18.7,15.86-25.31q15.08-12.53,31.18-23.73c2.2-1.53,4.55-3.21,5.46-5.73s-.5-6-3.18-6.13Z"></path>
    <path data-name="2b" data-official="" data-plain="Stamen" data-loc="" d="M616.24,2675.47c4.06-6.22,4.78-14.14,3.6-21.48s-4.1-14.25-6.89-21.14c-10-24.71-18.77-50.55-18.91-77.22s9.56-54.55,30.67-70.85c1.88-1.45,3.92-2.9,4.93-5.05a24.83,24.83,0,0,0,1.18-4.36c2.08-8.07,10.33-13,18.33-15.26,10.72-3.09,22.06-3.12,33.22-3,10.06.12,20.72.52,29.14,6,4,2.6,7.19,6.2,11.12,8.85,4.31,2.92,9.36,4.63,13.56,7.7s7.57,8.25,6.25,13.28c-1.16,4.39-5.4,7.15-9.37,9.37-11.88,6.68-24.48,12.49-37.93,14.73s-27.92.62-39.43-6.68c-2.65-1.68-5.24-3.7-8.33-4.22-4.59-.78-9.21,2-11.83,5.9s-3.63,8.55-4.39,13.15a177.47,177.47,0,0,0,19.35,113.44c3.7,6.72,7.92,13.45,9,21.05.77,5.66-.28,11.49.84,17.09,2.78,13.89,18.23,24,17.12,38.12-.62,7.89-6.69,14.55-13.86,17.9s-15.28,3.93-23.19,4a202.22,202.22,0,0,1-20.59-.91c-6.37-.62-13.22-1.78-17.67-6.37-5.75-5.94-5.43-15.62-2.47-23.33s8.1-14.44,11.16-22.12Z"></path>
    <path data-name="3" data-official="Thunbergia alata" data-plain="Winged-stalked Thunbergia" data-loc="East Indies" d="M897.33,2114.62a53,53,0,0,1-5.8,10.11,17.85,17.85,0,0,1-9.4,6.57l-2.64,2a75.79,75.79,0,0,1-25.25,1.69l-3.67-2.32a132.19,132.19,0,0,1,26.93-23.12c6.68-4.32,14.46-8.16,22.28-6.73l1.15.95C900.69,2107.58,899,2111.16,897.33,2114.62Zm120.74-341.8-5.28,2c-17.37,8.26-35.31,15.61-54.12,19.61-22.19,4.72-45.19,4.7-67.37,9.47l-3.22,1.3a41.5,41.5,0,0,1-32-3c-2.16-1.17-4.35-2.71-5.15-5a10.51,10.51,0,0,1-.1-5,21.9,21.9,0,0,1,2.87-8.6c2.36-3.62,6.3-5.83,10.14-7.8q10.61-5.45,21.7-9.86l5-2.25c17.66-1,35.35-1.92,52.85-4.47a95.78,95.78,0,0,0,14.83-3.11,86.7,86.7,0,0,0,11.68-4.82,178,178,0,0,0,26.94-16.16c3.56-2.59,7.08-5.34,11.16-7l4.59-.37c2-1.57,5.17-.85,7,1s2.56,4.43,3,7a76.62,76.62,0,0,1,.87,11C1023.62,1755.71,1023.35,1765.45,1018.07,1772.82Zm149-145.13c-.23,3.31-.55,6.6-1,9.89a86.92,86.92,0,0,1-1.53,8.77,60.91,60.91,0,0,1-12.79,25.33l-3.87,1.55a68.28,68.28,0,0,0-14.5-3.49l1-12.67c.51-6.43,1.24-13.4,5.65-18.1l6.09-5.84a41.75,41.75,0,0,1,13,1.23,26.06,26.06,0,0,0-3.7-8.53,8.42,8.42,0,0,1-1.57-3.08c-.5-2.91,2.5-5.24,3.11-8.13l1.65-3c2.39-1.39,5.39.73,6.7,3.16C1167.38,1618.69,1167.32,1623.31,1167,1627.69Zm210.67,171.65c-2.27,9.49-7.71,19-16.8,22.61-3.74,1.47-8,1.89-11.23,4.27-2.21,1.62-3.74,4-5.62,6-4.69,5-11.39,7.4-17.84,9.66l-1.26-.23c-5.25-7.42-3.87-18.07,1.21-25.61s13.15-12.51,21.32-16.49a149.35,149.35,0,0,1,17.87-7.34l-.74-.93-30.75-8.81a79.4,79.4,0,0,0-10.29-2.47c-17.4-2.59-34.47,6.26-52,7-4.23.18-9.22-.56-11.27-4.26-1.75-3.15-.49-7.27,2-9.89s5.89-4.07,9.2-5.47c1.26-.53,2.66-1.23,3-2.55.39-1.48-.87-3-2.32-3.46a11.59,11.59,0,0,0-4.55-.16c-6.29.44-13.08-1.1-18.61,1.93l-.06-.14c0-1.1,0-2.2,0-3.29a16,16,0,0,1-12.65-4.84,12.91,12.91,0,0,1-2.75-13c1.78-4.69,6.34-7.66,10.69-10.17,8.8-5.08,17.94-9.66,27.64-12.66s20-4.37,30.06-3l.6-.5c.07-3-2.86-5.24-5.66-6.41a65.43,65.43,0,0,0-14.12-4.31c-17.19-2.85-34.65-6.85-51.75-3.46l0-.73c1.94-5.65,1.25-11.84.24-17.72s-2.34-11.85-1.63-17.78l-1,0a25.83,25.83,0,0,1-14.66,11.54l-3.34-.59a31.67,31.67,0,0,0-1-8.64,37.56,37.56,0,0,0-2.54-5.69c-2.41-4.87-4.36-10.68-2.07-15.61,1.28-2.76,3.72-4.81,6.23-6.54a53.68,53.68,0,0,1,7.75-4.46l6.41-4.33a89.71,89.71,0,0,1,57.69-11.72c3.79.53,7.7,1.37,10.71,3.74,2.52,2,4.15,4.85,5.93,7.53,4.51,6.79,10.41,12.88,13,20.62,2.19,6.55,1.78,13.65,1.35,20.54q-.61,9.75-1.22,19.49c-.42,6.7-.87,13.53-3.38,19.76-2,4.82-5,9.07-8.12,13.27a46.31,46.31,0,0,1-5.61,6.71,45.74,45.74,0,0,1-6.5,4.7l-7.76,4.94c-6.79,4.33-13.59,8.66-20.55,12.7l.63,1.06a131,131,0,0,0,20.29-.59,43.43,43.43,0,0,1,8.74-.44c5,.49,9.7,3,14.72,3.12,6.13.16,11.74-3.19,17.68-4.73a30.71,30.71,0,0,1,18.48,1,7.19,7.19,0,0,1,5.43,5.94,24.82,24.82,0,0,1-4.61,21.21l1.09.33c3.71.72,7.47-.85,10.76-2.7s6.5-4.06,10.21-4.8,8.16.52,9.73,4c.68,1.5.74,3.2,1.19,4.78.55,1.91,1.67,3.61,2.37,5.47C1379.2,1790.67,1378.7,1795.16,1377.7,1799.34Zm-717.9,86.22-1.42,11.67c0,6-.11,12-1.67,17.73a50.22,50.22,0,0,1-5.07,11.68,88.56,88.56,0,0,1-48.37,39.69l-2.77,1.46a26.87,26.87,0,0,0,.29,12c.77,3,2.2,6.09,4.81,7.84,2.35,1.57,5.32,1.86,8.16,1.93a42.19,42.19,0,0,0,16.43-2.47,23.83,23.83,0,0,0,12.5-10.59q-.68,5.54-1.33,11.07l-.07,3.33c-6.35,5.23-13,11-15.15,18.93a28.48,28.48,0,0,0-.82,7,14.76,14.76,0,0,0,1.39,7.45c1.57,2.84,4.66,4.58,7.83,5.27a32.76,32.76,0,0,0,9.69.16,226.83,226.83,0,0,0,34.13-5.19c2.27-.55,4.53-1.16,6.84-1.48a57.15,57.15,0,0,1,9.07-.3l9.77.2c9.41.19,18.92.37,28.09-1.7l1.46.51c-6.52,1.31-13,4.33-16.9,9.7s-4.66,13.35-.51,18.54c4.62,5.79,13.05,6.36,20.45,6.5q24.75.43,49.49,1.47c24.67,1,50.11,2.68,72.21,13.69,14.47,7.2,27.72,18.45,43.82,19.82l-.1-1.46a75,75,0,0,0-1.28-16.45,91.65,91.65,0,0,0-6.63-20.38c-3.26-7.26-7.88-14.71-15.37-17.4-4.64-1.67-9.8-1.25-14.55,0s-9.23,3.41-13.83,5.17a94.24,94.24,0,0,1-40.14,5.94l-.69-.49a14.07,14.07,0,0,0,8.19-3.09c3.79-2.81,6.61-6.69,9.37-10.51,2.27-3.14,4.54-6.28,6.58-9.58,1.64-2.65,3.12-5.39,4.6-8.14l5.59-10.33a46.22,46.22,0,0,0,4.16-9.25,32.28,32.28,0,0,0,1-9.94,66,66,0,0,0-1.86-13c-.94-4-2.15-7.84-3.36-11.73q-4.62-14.8-9.25-29.61c-1.71-5.49-3.55-11.2-7.58-15.31-5.88-6-15.91-7.17-23.3-3.13s-11.79,12.68-11.31,21.08l-1-.05c-3.36-3.85-4.13-9.23-5.23-14.22-2.34-10.62-6.8-20.65-11.23-30.6a65.16,65.16,0,0,0-5.77-11,46.45,46.45,0,0,0-4.27-5.13,76.6,76.6,0,0,0-8.38-7.62,32.5,32.5,0,0,0-7.4-4.58c-6.51-2.69-13.87-1.87-20.85-1l-4.24.57a57,57,0,0,0-12.32-.06c-5,.53-10.46,2-13.3,6.22-2.19,3.22-2.38,7.42-1.76,11.26s1.95,7.54,2.56,11.39a8.26,8.26,0,0,1-.42,5.07,7.24,7.24,0,0,1-2.09,2.32c-4.27,3.3-10.06,4.22-15.38,3.3s-10.21-3.51-14.61-6.64C663.86,1891.12,661.11,1888.75,659.8,1885.56Zm-400.69,504a106.7,106.7,0,0,1,11.68,36.26c.35,2.8.55,5.77-.62,8.34l7.28,4.1a33.65,33.65,0,0,0,41.31-24.3c1.08-4.3,1.3-8.76,2.08-13.12,2.48-13.76,10.42-26,13.59-39.61,3.5-15,1-30.91,4.53-45.92l.45-13.21-4.57-8.78c-3-6.56-4.46-14.22-9.75-19.14a32.77,32.77,0,0,0-3.81-2.91,69.4,69.4,0,0,0-12.33-7.29c-4.42-1.84-9.37-2.75-14-1.66l-5.66,3.4L287.37,2279c-3,32.82-7.7,66.18-22.26,95.74Zm119.28-358.64a32.1,32.1,0,0,0-.18-7.4,10.86,10.86,0,0,0-3.37-6.44c-3.14-2.69-7.74-2.59-11.64-4-2.11-.76-4-2-6.12-2.83a20.87,20.87,0,0,0-14.53-.17,27.35,27.35,0,0,0-11.93,8.52l-8.44,12.69c-5.18,7-10.37,14.09-14.44,21.81s-7,16.19-7.35,24.91c-.2,5,.45,10.26-1.31,15-1.34,3.62-4,6.62-5.61,10.12-2.46,5.27-2.47,11.31-2.33,17.13.21,8.93.68,17.84,1.15,26.76l4.12,2.81c2.66,1,5.64.5,8.42-.15a101.19,101.19,0,0,0,18.46-6.28,18.41,18.41,0,0,0,5.51-3.42,21.48,21.48,0,0,0,3.07-4.35,173.65,173.65,0,0,1,12.06-17.75l-1.71-5.76a100.28,100.28,0,0,1,29-71ZM353.59,1699c-4.34-1-9.18-2-13,.23-1.47.87-2.67,2.15-4.1,3.08-3.49,2.28-8.22,2.42-11.19,5.34s-3.15,7.64-3.43,11.83c-.58,8.86-2.95,18.23-9.63,24.08l-.6,1.23c3.18,6.93,2.5,15.14-.2,22.27s-7.27,13.38-11.88,19.45a22.88,22.88,0,0,0-3.53,5.77c-1,2.88-.82,6-.93,9.09-.27,7.85-2.72,15.45-5.14,22.92-1.8,5.53-3.63,11.14-6.8,16-2.33,3.59-5.36,6.73-7.31,10.54s-2.64,8.7-.19,12.22l2.59,14.12,8.51-2.91a30,30,0,0,0,10.62,3.56c5.37.74,10.83,0,16.2-.72l6.14-5.11c4.26-2.2,6.89-6.84,7.52-11.59.51-3.87-.16-7.8.08-11.7a25.34,25.34,0,0,1,6.39-15.22,5.38,5.38,0,0,0,1.57-2.42,6.08,6.08,0,0,0-.59-3c-2.13-6.38,1-13.19,4-19.21s5.91-13,3.33-19.24l1.08-.33c3.63-.52,6.59-3.14,9-5.92s4.47-5.91,7.44-8c2.27-1.63,5.1-2.75,6.45-5.19,1.22-2.24.85-5,1.18-7.5a15.18,15.18,0,0,1,2-5.7l-2.8-2.71a31,31,0,0,0-20.25-9.75,1.13,1.13,0,0,1-.7-.2c-.37-.33-.16-.94.07-1.38a99.54,99.54,0,0,0,10.89-35.57Zm-194.7,193.41h7.39a8.05,8.05,0,0,1,4.76,1.13c3,1.5,6.23,3.19,7.71,6.22l.31.4a25.33,25.33,0,0,1,19.15-8,29.73,29.73,0,0,0,4.81,0c3.67-.5,6.64-3.12,9.89-4.91a23.25,23.25,0,0,1,9.77-2.81c2.54-.15,5.11.12,7.62-.28,6.73-1.06,11.73-6.57,16.16-11.74l6.58-7.71.42-3.83c.84-9.22-.36-18.51-2.2-27.58a65.83,65.83,0,0,0-4.44-14.72c-2.25-4.84-5.46-9.16-8.11-13.79-3.53-6.17-6.05-12.85-8.56-19.5l-13.25-35.16a66.68,66.68,0,0,1-3.91-13c-.59-3.74-.53-7.56-1.1-11.29-1-6.87-4.12-13.23-7-19.53-5.39-11.69-10.37-23.76-12.07-36.51-.9-6.78-.87-13.74-2.92-20.26-1.68-5.35-5-10.47-10-13l-2.89-5.85-6.77,0-6.7-2.52c-3-1.14-6.84-2.14-9.17.1-1.2,1.16-1.63,2.88-2.21,4.44-1.88,5-5.87,9.07-10.4,12s-9.61,4.81-14.66,6.69l-7.86,6c-13.79,10.51-13.86,32-25.92,44.44-4.28,4.42-9.84,7.43-14.24,11.74s-7.64,10-10.9,15.38a266.79,266.79,0,0,1-17.9,26c-2.62,3.36-5.35,6.7-7,10.61S41,1774.15,42.9,1778c2.54,5.18,8.59,7.52,12.53,11.74,7.42,8,5.94,20.51,9.7,30.71,5,13.59,19.22,21.95,33.46,24.61,3.21.6,6.82,1.17,8.75,3.8,1.78,2.42,1.49,5.72,1.88,8.7,1.12,8.59,8.28,15.14,15.77,19.49s15.86,7.37,22.43,13ZM1429,918.25a254,254,0,0,1,39.13,137.31l-2.25,18.24a33.35,33.35,0,0,1,6.12,16.91,37.23,37.23,0,0,1-6,23.46c-4.35,6.55-10.94,12-12.57,19.71a17.38,17.38,0,0,0,8.47,18.36l1,4.72a51.94,51.94,0,0,0,2.94-6c1.1,1.18,0,3.51,1.32,4.52a2,2,0,0,0,2.69-.71,5.17,5.17,0,0,0,.56-3,7,7,0,0,1,.34-3.09,4.65,4.65,0,0,1,1.43,1.82c.47,1.08.52,2.33,1,3.39s1.91,1.9,2.9,1.24.83-1.89.86-3a9,9,0,0,1,1-4l1.62,4.38c.39,1,1.06,2.31,2.18,2.27a2.1,2.1,0,0,0,1.72-1.72c.22-.84.16-1.73.36-2.57a4.28,4.28,0,0,1,4.06-3.15,7.66,7.66,0,0,1,3.15.93,49.08,49.08,0,0,1,7.75,4.59l2.32,2.89c-1.79,2-4.57,2.77-7.11,3.67a42.3,42.3,0,0,0-22.21,18.54,25.38,25.38,0,0,0-2.62,6.11c-.92,3.49-.76,7.16-.59,10.76l.3,6.56.26,1.53c.49,2.07,2.12,4.74,4,3.77,1-.5,1.35-1.83,2.34-2.34s2.26,0,3.28.57c7.05,3.81,14.24,7.71,19.71,13.56,7.08,7.58,10.66,17.71,13.69,27.62a83.5,83.5,0,0,1,2.9,11.74c.88,5.8.63,11.71.39,17.57l-.93,21.92-.93,1,10.85,1.2a13.14,13.14,0,0,0,5.23-.11c1.14-.33,2.17-.95,3.3-1.28,1.85-.53,3.82-.21,5.75-.17a40.56,40.56,0,0,0,10.13-1.45,5.93,5.93,0,0,0,2.33-.88c.52-.38.91-.92,1.41-1.34a7.66,7.66,0,0,1,2.47-1.2l6.68-2.27.77.56a59.42,59.42,0,0,0,4.57,25,42,42,0,0,0,16.34,19.2c1.77,1.06,3.8,2.19,4.34,4.18.29,1,.13,2.28.81,3.13a3.47,3.47,0,0,0,1.81,1,18.24,18.24,0,0,0,8.9.33c.93,3.13,4.53,4.46,7.66,5.36a68.56,68.56,0,0,0,12.77,2.81c2.5.22,5,.17,7.5.5a25.29,25.29,0,0,1,9.48,3.22l-.17.64c3.52-2.88,7.63-5.93,12.12-5.26a17,17,0,0,0,3.84.6c1.62-.13,3-1.16,4.57-1.62,3-.89,6.32.43,9.32-.46s5.31-4.1,8.52-4.76c1.12-.23,2.27-.13,3.39-.34a11.13,11.13,0,0,0,3.43-1.4,45.41,45.41,0,0,0,19.24-57.89l.76-.2c3.14,5.51,9.26,8.78,15.48,10s12.63.56,18.93-.07c5.57-.56,11.23-1.15,16.43-3.23a44.88,44.88,0,0,0,7.88-4.29,88.19,88.19,0,0,0,12.65-10.13c7.33-7.09,13.49-15.52,21.91-21.28l-.55-.8a30.25,30.25,0,0,1-4.15-35l11.52-17.92a19.11,19.11,0,0,1,8.56-11.61c9.06-5.47,22.74-3.57,28.44-12.48l-5.65-25.17c-10.58-3.48-17.6-13.93-20.35-24.72s-2-22.11-1.79-33.25c.33-18-.83-36-2-54l-9.72-151.22c-1.12-17.46-2.33-35.27-9-51.45L1784,817.3c-32.53-13.88-69.66-6.52-104.57-.79-12.69,2.08-26.81,3.62-37.42-3.65-9.94-6.81-13.82-19.3-18.69-30.33-10.21-23.07-27-42.47-43.58-61.5-18.24-20.94-39-43.29-66.51-46.93-1.85-.25-4.1-.69-4.69-2.47a4.82,4.82,0,0,1,0-2.14l7-52.55a6.3,6.3,0,0,1,1.39-3.79c1.29-1.29,3.36-1.21,5.18-1.08a149.46,149.46,0,0,0,71.49-12.66c3.45-1.55,7-3.26,10.79-3.18,4.81.1,9,3.07,13.07,5.64a103.9,103.9,0,0,0,35.8,14.18c2.56.49,5.27.94,7.31,2.57s3,4,4,6.32a125.92,125.92,0,0,0,29.07,40.52c13.82,12.83,30.5,22.51,43,36.59,10.66,12,18,26.7,29,38.27,4.14,4.32,9,8.26,14.72,9.89,9,2.54,18.8-1.07,25.73-7.28s11.37-14.69,15-23.24a182.55,182.55,0,0,0,14.27-61.21l2.2-16.76c1.26-22.29,2.31-45.71-7.39-65.83-8.28-17.17-23.44-29.87-34.8-45.18-8.61-11.6-15-24.74-24.1-36-22.46-28-59.09-41.54-94.88-43.75-10.81-.67-23.83.82-28.79,10.45-6.4,12.4,5.37,30-3.68,40.59-4.1,4.82-11.29,6-17.46,4.6s-11.61-5-16.94-8.37c-16.18-10.35-33.06-20.19-51.68-24.86s-39.43-3.65-55.63,6.65c-5,3.16-13.32,6.11-15.11.51-.65-2,.19-4.14,1-6.06,11.3-25.65,27.72-48.66,41.23-73.22s24.31-51.8,22.74-79.78c-.94-16.72-6.28-33.41-3.62-50,2.09-13,9-24.73,12.11-37.51a67.69,67.69,0,0,0-2.56-40.37l-9.94-8.48c-5.11-7.47-16.21-8.8-24.48-5.11s-14.17,11.17-19,18.81a80.43,80.43,0,0,0-9.29,18.88c-3.45,11-3.35,22.67-3.3,34.16q.17,33-.46,65.93c-.17,9.47-.41,19-2.27,28.27-4.68,23.38-19.19,43.4-33.34,62.59l-13.85,4.14c-3.62,22-7.85,45.39-22.84,61.95-5.59,6.18-12.47,11.13-17.83,17.52-10.8,12.87-14.36,30.14-17.56,46.63l-6.6,8.22c-2.7,9.42-4,19.44-9,27.88-3.16,5.33-7.72,9.88-9.9,15.68l-1.7,4.1c-3.84,11.77-4.48,24.3-5.1,36.66a2.49,2.49,0,0,0,.2,1.41,2.55,2.55,0,0,0,1.74,1c5,1.21,10.81,2.28,14.89-.87l3.14-.09a5.53,5.53,0,0,1,5,3l.94,4.06c7.82,5.63,17.56,7.73,27,9.71l2.27,5c2.06,2.1,1.79,5.7.16,8.15s-4.3,4-6.9,5.34c-3.62,1.89-7.31,3.61-11.07,5.19-6.17,2.61-12.68,4.88-19.38,4.68a27.39,27.39,0,0,1-16.34-6.1c.47,1.82.89,3.94-.24,5.44-.78,1-2.12,1.5-3.06,2.4-1.64,1.56-1.79,4.08-1.83,6.34q-.13,7.51-.26,15l-.27,6.71c2.3,3.81,1.69,9,4.49,12.46,1.23,1.53,3,2.59,4,4.31,1.37,2.53.49,5.73,1.43,8.44a8.31,8.31,0,0,0,5.91,5,16.65,16.65,0,0,0,8-.26,34.85,34.85,0,0,0,9.56-3.82l5.52-4.76a30.69,30.69,0,0,1,8.22-.75l8.26.9,24.62,4c14.58,2.38,29.27,4.79,43.11,10a59.92,59.92,0,0,1,15.9,8.39,57.8,57.8,0,0,1,11.94,13.25,100.16,100.16,0,0,1,15.63,37.37l-.6,7c-1.21,4.16-2.54,8.54-5.7,11.49a18.33,18.33,0,0,1-7.77,3.94,37.54,37.54,0,0,1-22.75-.91c-4.58-1.67-8.88-4.25-13.7-5-5.6-.87-11.41.84-17-.28-3.73-.75-7.08-2.72-10.63-4.06a32.67,32.67,0,0,0-18.23-1.34,2.51,2.51,0,0,0-1.39.63,3.57,3.57,0,0,0-.5,2c-.27,2.4-2.22,4.2-3.48,6.25-2.49,4.08-2.23,9.23-1.51,14a19.72,19.72,0,0,1,.39,5.24,5.86,5.86,0,0,1-2.5,4.44l-1.21,18.17c5.33,7.61,10.8,15.55,12.34,24.71Z"></path>
    <path data-name="4a" data-official="" data-plain="Flower of Strobilanthes" data-loc="" d="M445.83,2664.88c-5-13.88-7.27-29.32-2.74-43.36,2.39-7.41,8.07-15.05,15.85-14.93,1.44,0,3.13.22,4-.89a3.78,3.78,0,0,0,.66-2.17c.44-5,.19-10.08,1.59-14.88s5-9.41,10-10.06a17.71,17.71,0,0,1,6.17.62,172.62,172.62,0,0,1,33.81,11.58c3.9,1.8,7.82,3.81,10.74,6.95,3.58,3.85,5.36,9.06,6.2,14.25a50.26,50.26,0,0,1-12,41.07c-7,7.82-17,14.15-19.21,24.43-2.82,13,8.21,26.61,3.63,39.07-3.07,8.35-12.15,12.85-20.79,14.92-16.91,4.07-36.07,1.46-49.25-9.89a17,17,0,0,1-5-6.41,14.76,14.76,0,0,1-.42-8,25.21,25.21,0,0,1,9.44-15.26c2.67-2,5.76-3.51,8-6s3.49-6.36,1.63-9.14Z"></path>
    <path data-name="4b" data-official="" data-plain="Flower, opened" data-loc="" d="M332.15,2537.1a290,290,0,0,1-13.55-79.26c-.38-12.63.49-26.43,8.9-35.86,7.34-8.24,18.84-11.26,29.75-12.86a179.32,179.32,0,0,1,40.89-1.27c9.88.82,19.94,2.55,28.49,7.56,6.68,3.92,12.09,9.63,17.31,15.35,5.63,6.16,11.24,12.54,14.71,20.13s4.55,16.69,1,24.23c-4.12,8.68-13.38,13.67-19.06,21.42-4.76,6.52-6.74,14.63-8,22.6-7,43.46,2.89,90.38-15.66,130.31C411,2662,402.32,2674,401.53,2687.83c-.78,13.53,6.17,26.33,7.3,39.83a17.75,17.75,0,0,1-.59,7.26c-2,5.81-8.34,8.8-14.23,10.56a90.14,90.14,0,0,1-32.08,3.52c-12.15-.87-26.27-6.43-28.4-18.42-1.43-8.1,3.35-16,8.67-22.25s11.58-12.21,14.07-20c3.74-11.77-1.94-24.19-6.64-35.61a241.81,241.81,0,0,1-18.13-92.48Z"></path>
    <path data-name="4c" data-official="" data-plain="Ovary" data-loc="" d="M262.83,2562.43c3.11-28.41-2-57-3.69-85.51-.41-7,.43-15.62,6.87-18.26,4.27-1.74,9.34.27,12.43,3.68s4.59,7.95,5.8,12.39c4.78,17.49,6.36,35.68,7.11,53.79.41,9.85.61,19.86,3.52,29.28,1.93,6.26,5,12.11,7.15,18.3,4.06,11.75,4.61,24.45,3.64,36.83-.77,9.81-2.46,19.74-.6,29.4,1,5.21,3,10.28,3,15.59-.11,9.68-7.14,18.6-5.95,28.21.76,6.09,4.68,11.22,7.57,16.63s4.72,12.32,1.36,17.45c-2.21,3.37-6.14,5.13-9.88,6.65-13.45,5.47-28.6,10.21-42.22,5.18-4.63-1.71-9-4.74-11-9.24-3.16-7.14.56-15.37,4.82-21.92s9.38-13.34,9.11-21.15c-.24-7-4.79-13.12-5.63-20-.78-6.3,1.58-12.55,1.75-18.89s-1.78-12.33-3.18-18.42a107.72,107.72,0,0,1-.24-47.07Z"></path>
    <path data-name="4d" data-official="" data-plain="Section of Ovary" data-loc="" d="M134.55,2501.27c-.66-17.22-.05-35.35,8.54-50.29s27.58-25.21,43.51-18.64c6.5,2.69,11.76,7.79,15.82,13.54,12.41,17.53,14.26,40.19,15.41,61.64q3.16,58.84,3.48,117.78c0,8.3,0,16.74-2.35,24.7-2.19,7.34-6.29,14-8.91,21.16s-3.59,15.66.36,22.22c1.79,2.95,4.42,5.27,6.56,8a29.12,29.12,0,0,1,.71,34.07c-5.22,7.22-13.68,11.63-22.41,13.45s-17.77,1.31-26.62.27c-10.16-1.2-21.65-4.07-26.28-13.19-6.48-12.76,4.89-27.9,2.81-42.06-1.33-9.06-7.91-16.28-12.65-24.11-11.59-19.15-12.37-42.95-9.76-65.18s8.29-44.18,8.39-66.56l1.76-14Z"></path>
</svg>
