
<svg xmlns="http://www.w3.org/2000/svg" viewBox="0 0 2075 2710" id="illustration" preserveAspectRatio="xMidYMid meet">
    <title>Plumbaginaceæ</title>
    <path data-name="1" data-official="Plumbago capensis" data-plain="Blue Plumbago" data-loc="Cape of Good Hope" d="M1019.39,1865.94q-11.14,1.77-22.4,2.67c-11.09.89-24,.34-30.79-8.5-3.62-4.75-4.61-11-5.14-16.91a153.84,153.84,0,0,1,1.85-40.82c1.88-10.42,4.84-21,3.12-31.43-1-5.87-3.4-11.4-4.9-17.16-6.75-25.76,5.16-53.87-2.43-79.4-6.51-21.86-26.24-37.89-32.68-59.77a54,54,0,0,1,1.81-35.42c3-7.29,7.69-14.73,6-22.42-2.13-9.57-13.81-14.37-23.43-12.48s-17.52,8.51-25,14.9c-2.47,2.12-5,4.37-6.14,7.43-.95,2.6-.72,5.46-.5,8.22a1112.51,1112.51,0,0,1-9.65,264.31l5.38,15.53c8.49,3.64,17.13,7.36,24.13,13.39s12.23,14.83,11.69,24.05c-.32,5.47-2.61,10.71-2.64,16.18,0,7.41,4,14.13,6.63,21.06s3.53,15.67-1.68,20.93c-3,3.06-7.46,4.21-11.72,4.84a69.26,69.26,0,0,1-20.38-.05,577.27,577.27,0,0,1,46,182.47c1,11.33,1.55,22.72,3.46,33.93,1.83,10.76,4.83,21.27,7.83,31.76l14.58,51c3.08,10.77,5.91,23.28-.55,32.44-3.81,5.4-10.42,8.75-12.92,14.87-1.32,3.22-1.31,6.81-2.18,10.18a20.19,20.19,0,0,1-38.52,1.94c-3.16-8.62-.18-18.22-1.09-27.35-.78-7.8-4.36-15-7-22.38-6.42-18-7.27-37.45-9-56.5-2.49-28.3-7.25-57.24-21.9-81.58l-.34-13.47c2.18-20.39-5.35-40.44-12.92-59.5-14.28-36-29.19-71.72-45.5-106.83-.85-1.82-1.79-3.74-3.53-4.74-2.15-1.24-4.83-.71-7.3-.44a29.31,29.31,0,0,1-17.21-3.53c-3.58-2-6.87-4.81-10.91-5.51-4.5-.79-9.15,1.31-12.39,4.54s-5.24,7.48-6.83,11.77c-12.24,32.85-3.5,71.65-19.86,102.66-3.26,6.18-7.43,11.83-11.58,17.45-14.57,19.74-29.66,39.95-50.45,53-6.14,3.86-13.56,7.11-20.48,4.95L634.4,2122l-25.55-42.19c-3.17-5.22-6.34-10.45-9.11-15.89s-5.27-11.38-8-17c-6.63-13.64-15-26.33-23.58-38.87-2.6-3.83-5.24-7.68-7-12A62.84,62.84,0,0,1,558,1982.8l-2.24-13.49c-1-6.06-2-12.41,0-18.24l4.68-8.65c6.79-10.77,13.72-21.72,23.38-30,6.32-5.45,13.63-9.6,21-13.57q8.71-4.71,17.56-9.14c-7.58-1.58-14.66-5-21.44-8.73a199.34,199.34,0,0,1-56.66-47L540,1826.7c.31-2.92.5-5.84.59-8.77a17.11,17.11,0,0,0-.52-5.76c-.56-1.75-1.63-3.29-2.21-5a19.23,19.23,0,0,1-.75-5.3,40.94,40.94,0,0,1,.33-10,13.73,13.73,0,0,1,4.88-8.45l5.57-3.64a928.27,928.27,0,0,0,98.24,60.87c9.46,5.08,19,10,28.54,14.9,17.15,8.82,34.75,17.79,53.89,20.19-10.66-14.16-18.07-30.45-25.39-46.6-17.56-38.73-35.47-79-35.22-121.52,0-8.59,1.21-18,7.36-24l7.43-3a36,36,0,0,0,6.81.07c.42-5.25-.26-10.64,1.1-15.72a43.51,43.51,0,0,1,2.53-6.5q2.84-6.29,5.41-12.68a55.05,55.05,0,0,0,2.56-7.45c1.75-7.27.63-15-2.2-22s-7.29-13.07-12.23-18.68a41.38,41.38,0,0,0-9-8.12,63.63,63.63,0,0,1-5.82-3.55,28.41,28.41,0,0,1-4.56-5l-3.41-5.36c-5.59-7.44-4.33-19.15,2.72-25.24a30.12,30.12,0,0,1,10.31-5.32c13.13-4.36,28.9-4.57,39.44,4.39,4.6,3.91,7.77,9.19,10.8,14.42q3.84,6.63,7.53,13.36c1.18,2.14,2.42,4.38,4.46,5.72s4.9,1.61,7.48,2c11.06,1.62,21.13,7.52,29.47,15s15.13,16.42,21.88,25.33c3.35,4.43,6.88,9.47,6.24,15l1.61,6.69c2.2,3.79.9,8.54,1,12.92a50.79,50.79,0,0,0,.82,6.61,79,79,0,0,1-.26,25.35c-.35,2.06-.7,4.46.73,6a6.6,6.6,0,0,0,3.74,1.54,18.72,18.72,0,0,0,5.91.43,16.4,16.4,0,0,0,6.49-2.91,17.09,17.09,0,0,0,5.09-4.59l2.79-3.2a23.62,23.62,0,0,0,2.87-3,5,5,0,0,0,1.19-2.14,2,2,0,0,0-.86-2.13,8.37,8.37,0,0,0-1.41-.38c-1.18-.4-1.78-1.69-2.14-2.88-1-3.51-1.07-7.24-1.1-10.91l0-6a414,414,0,0,1-6-53.61c-.41-8.71-.55-17.52-2.81-25.94-1.71-6.37-5.63-13.19-12.15-14.14-5.27-.76-10.12,2.6-15,4.81a37.3,37.3,0,0,1-26.42,1.66,11.84,11.84,0,0,1-5.26-2.9,11.23,11.23,0,0,1-2.5-6.36,28.1,28.1,0,0,1,10.89-25.46l3.6-3.64,15-6.29a7,7,0,0,0,5.45-7.36c.47-4.62.67-10-2.75-13.13-2-1.8-4.69-2.43-7.25-3.19a53.08,53.08,0,0,1-23.29-14.3c-13.15-13.89-18.49-34.56-33.88-45.92-7.25-5.35-16.1-8.1-25-9.71-12-2.18-24.81-2.58-35.5-8.56a21.11,21.11,0,0,1-7.94-7.11,11.32,11.32,0,0,1-1-10.32l6.49-3.54a34.07,34.07,0,0,0,12.19-4.24c2.52-1.46,4.87-3.25,7.59-4.27s6-1.15,8.33.61c4-1.79,5.07-6.94,5.33-11.33a25.06,25.06,0,0,0-.81-9.65c-1.42-4.16-4.71-7.46-6.27-11.58-1.1-2.91-1.28-6.08-2.26-9a17.85,17.85,0,0,0-11.94-11.39l.75-1a33.5,33.5,0,0,0,6.56-4,11.17,11.17,0,0,0,4-6.42,19.29,19.29,0,0,0,0-4.74,63,63,0,0,1,1-17l-.34-1.18a9.61,9.61,0,0,1-5.11-9.21,12.29,12.29,0,0,1,5.65-9.19,17.21,17.21,0,0,1,10.68-2.53l9.33-.41c26.13,4.77,48,22,68.72,38.61q-3.64-20.37-8.81-40.43c-4.28-16.63-10-34.15-23.56-44.75-6.53-5.12-14.6-8.36-20.06-14.61-4.65-5.33-6.93-12.36-8-19.35a70.55,70.55,0,0,1,15.2-55.11c4.92-5.94,10.89-11.14,14.54-18,5.27-9.83,5-21.57,4.87-32.73a579.49,579.49,0,0,1,2.66-60.8c1.78-18.43,4.43-37.16.85-55.33l-2-9.87a88.05,88.05,0,0,0-12.62-14.1,34.41,34.41,0,0,0-7.72-5.54,60.23,60.23,0,0,0-8.73-3,74.67,74.67,0,0,1-42.68-34.33c-2.22-3.93-4.29-8.3-8.2-10.58-3.5-2-7.8-2-11.68-3.15-7-2.1-12-7.92-17.79-12.36a4.81,4.81,0,0,0-2.6-1.23,4.87,4.87,0,0,0-1.87.4,83.79,83.79,0,0,0-23.94,13.43C612.17,911,608.1,915,603.29,918s-10.61,4.86-16.12,3.63c-4.69-1-8.64-4.22-11.73-7.9a39,39,0,0,1-8.7-29.38c.84-6.87,3.5-13.36,5.26-20a77.34,77.34,0,0,0,2.11-27.81c-.36-3.37-.93-6.87.15-10.09a16.22,16.22,0,0,1,4.7-6.53c8.09-7.45,19-11,29.79-13.27s21.83-3.49,32.17-7.25,20.2-10.59,24.5-20.72c1.1-2.59,1.8-5.57.75-8.18-1.44-3.57-5.61-5.17-9.43-5.66-9.41-1.19-18.79,2-27.62,5.5q-11.89,4.69-23.44,10.21c-7.3,3.48-15.5,7.28-23.12,4.62l-3.44-3.92c-2.25-13.12-12.37-23.47-23.07-31.4-2.32-1.72-5.09-3.46-7.91-2.8-3.29.77-5,4.43-5.62,7.75s-.79,6.95-2.87,9.62a35.3,35.3,0,0,1-3.54,3.37c-5.74,5.54-6.44,15.18-12.88,19.89-4.55,3.33-11.18,3.5-14.83,7.8s-2.64,10.9-1.79,16.59a118.71,118.71,0,0,1,1.2,13.45c.16,4.67-.59,10.38-4.9,12.2S494,836,489.33,835.54c-5.13-.5-9.89,2.68-15,3.29-4.79.57-9.62-1.18-13.61-3.88s-7.28-6.29-10.53-9.85l-1.06-3.72c.47-1.51.92-3.25.09-4.59a5.48,5.48,0,0,0-1.4-1.4l-3.16-2.47a2.82,2.82,0,0,1-1-1.15c-.47-1.28,1-2.65.59-4s-2.05-1.41-3.31-1.19-2.75.55-3.7-.32c-1.24-1.14-.54-3.42-1.69-4.64-1.59-1.68-5.3,0-6.26-2.13-.58-1.28.52-3.08-.48-4.06s-2.58.11-3.52,1.13-2.62,2-3.51,1c-.1-1.9.68-3.71,1.08-5.57s.32-4.06-1.12-5.3a1.86,1.86,0,0,0-1.2-.51c-1.44,0-1.65,2.07-2.46,3.25-1.31,1.91-4.52,1.32-5.91-.53s-1.48-4.33-1.51-6.64l.55-2.94A5.88,5.88,0,0,0,417,773.6a3,3,0,0,1,.26-1.75,3.68,3.68,0,0,1,.93-.72c1.58-1.11,1.7-3.39,1.44-5.3s-.71-4,.23-5.67c.36-.66.92-1.21,1.23-1.9a6,6,0,0,0,.31-2.63L421,744a4.08,4.08,0,0,0-.43-2.08,2.75,2.75,0,0,0-3.11-.94,7.13,7.13,0,0,0-2.85,2c-.64-1.81-3.18-2.24-4.9-1.4s-2.86,2.52-4.06,4a34.92,34.92,0,0,1-2.63,2.94,4.66,4.66,0,0,1-2.9,1.65c-1.83,0-3.13-2-3.11-3.78s1-3.49,1.69-5.17A25.58,25.58,0,0,0,400,724.62c-.78-3-2.1-6.07-1.09-9l.25-1.07c-.18-1-1.12-1.55-1.67-2.35-1-1.37-.71-3.24-.2-4.83a12.48,12.48,0,0,1,2.88-5c4.39-4.43,12.26-3.85,16.43-8.48l5.13-3.69a33.18,33.18,0,0,0,2.68-8,11.35,11.35,0,0,0-1.42-8.1c-1.25-1.86-3.16-3.14-4.79-4.68a19.35,19.35,0,0,1-5.87-11.68l-.27-4.09c-.57-1.92.78-4,2.57-4.92a11.89,11.89,0,0,1,5.9-.83c8.36.35,16.71,2,25.06,1.29,5.36-.43,10.59-1.79,15.89-2.72,12.33-2.17,25-2,37.38-3.52a5,5,0,0,0,5.38-4.29l5-15.45a2.38,2.38,0,0,0-1.32-3.39c-19.3-12.47-41.61-19.29-63.59-26l-7.47,2.49c-5.59,8.87-12.66,18.69-23.11,19.55-11.51.95-20.35-9.27-28.63-17.31a105,105,0,0,0-57.37-28.31c-6.85-1-13.91-1.37-20.33-4-19.61-8-25.44-33.81-21.14-54.56s15.65-39.52,19.87-60.29c3.09-15.2,2.24-30.91,1-46.37-.75-9.1-.75-20.12,6.94-25,2.73-1.74,6-2.36,9.24-2.71,28.5-3.1,56.21,11.49,84.88,11.47,16,0,31.71-4.61,46.55-10.62,6.94-2.81,14.23-6.37,17.77-13,5.6-10.44-.5-23.62,2.62-35a22.25,22.25,0,0,1,41.68-3.44l34.48-23.15c3.44-2.31,7.1-4.9,8.38-8.84,1.1-3.36.22-7-.86-10.38a91.32,91.32,0,0,0-12.58-25.07c-4.65-6.52-10.25-12.6-12.9-20.15s-1.28-17.37,5.62-21.44c10.77-6.35,23.6,5.38,36.1,5.21,22.33-.31,28-34.64,48.88-42.58,13-4.93,27.33,2.1,38.35,10.5s21.48,18.73,35,21.68c15.68,3.41,31.89-3.93,47.86-2.31,3.55.36,7.33,1.33,9.56,4.11,2.37,2.95,2.35,7.09,2.21,10.87-.37,9.55-.87,19.31-4.46,28.17S741.59,270.2,732.19,272l2.7,7.56,5.58,6.39c6.72,3.89,13.72,8.06,17.69,14.72s3.6,16.61-2.88,20.88c-2.84,1.87-6.33,2.38-9.71,2.77a227.15,227.15,0,0,1-34.1,1.34c-7.78-.27-15.78-.93-23.18,1.49-19,6.2-26.07,28.79-30.46,48.25-1,4.26-1.33,9.88,2.58,11.82a9.85,9.85,0,0,0,4.89.6l54.94-2.51c9.85-.45,20-1,28.93-5.06,15-6.85,23.87-22.18,34.21-35,28.81-35.82,76-56,121.77-52.12,17.78,1.51,35.44,6.51,50.57,16,14.08,8.8,25.57,21.16,36.23,33.9,14.17,16.94,27.32,35,35.76,55.46s11.9,43.41,6.37,64.79c-1.07,4.11-2.57,8.33-5.72,11.19-7.58,6.89-19.52,2.56-28.86-1.65a324.12,324.12,0,0,0-61.33-20.55c-9.17-2.08-18.91-3.73-27.82-.72-1.7.58-3.47,1.42-4.35,3a8.47,8.47,0,0,0-.67,4.45l1.16,42.44c.24,9,2.27,20.28,11,22.36,12.63,3,22.49-17.63,34.81-13.52,4.63,1.54,7.45,6.25,8.89,10.91,6.21,20-5.41,43.87,5.38,61.85,3.35,5.57,8.49,9.78,13.07,14.39,16.1,16.2,26,39,24.56,61.79-.16,2.67-.66,5.67-2.84,7.22-1.58,1.11-3.65,1.18-5.59,1.2l-32.35.35-8.94,2.65a128.28,128.28,0,0,1-19.17,83.92,11.05,11.05,0,0,0-2.11,4.8c-.15,1.88.71,3.67,1.51,5.37,15.63,33.58,11.68,75.46-10,105.52-2.85,4-6,7.8-7.64,12.41s-1.3,10.27,2.2,13.66c3.81,3.68,9.75,3.48,15,3.66,15.6.51,31.64,7,40.65,19.71s9,32.11-2.26,42.9a37.29,37.29,0,0,1-13.06,7.75,56.15,56.15,0,0,1-46.53-3.9c-5.91-3.37-12.87-8-18.85-4.73-3.6,1.95-5.26,6.1-7.33,9.63-10,17.09-36.18,21.74-51.46,9.15-5.62-4.63-10.45-11.37-17.69-12.07-6.83-.67-13.07,4.79-15.61,11.17S800,993,800.33,999.81l1.25,24.52c.18,3.58.55,7.57,3.25,9.92,2.39,2.07,5.86,2.2,9,2,8.82-.47,17.51-2.39,26.33-2.9,27.92-1.6,56.24,12.15,72.25,35.08l3.72,5.2c8-2.72,16.1-5.37,24.46-6.62s17.1-1,25,1.84a19.71,19.71,0,0,1,6.22,3.39c2.53,2.17,4.14,5.21,5.56,8.23,2.36,5,4.36,10.21,6.83,15.17,6.81,13.65,17.53,25.66,31.29,32.27l6.16,2.76c50.32,30.37,50.32,56.09,50.32,56.09l-5.31,3.34a21.16,21.16,0,0,1-10.65,2.79l-3.77-.1c-23.45-13.2-53-4.3-79.38-9.61-13.38-2.7-25.71-9-38.69-13.27s-27.63-6.24-40-.37c-6.17,2.93-11.28,7.62-16.63,11.87a141.54,141.54,0,0,1-70.13,29.48c-2.95.37-6.2.79-8.2,3-2.55,2.79-2,7.12-1.22,10.82q7.27,36.26,14.54,72.5c4.6-3.93,11.52-4.08,17.19-2s10.37,6.16,14.94,10.12c8.51,7.37,17.08,14.79,24.14,23.55,11.28,14,18.36,31,22.52,48.48l5.66,4.1c11.68-20.34,36.12-32.56,59.4-29.71,8.75,1.06,17.14,4,25.45,7,6.1,2.17,12.82,4.9,15.44,10.82,2.27,5.13.61,11.32-2.74,15.82s-8.13,7.69-12.81,10.8c-13.69,9.13-27.46,18.65-37.83,31.43-17.64,21.72-23.87,50.8-40.49,73.32,17.94-2,36.36-4,53.84.54,8.35,2.16,16.26,5.77,24.58,8.07,29.15,8.07,62.16-.17,89.12,13.54,10.46,5.32,19.14,13.61,26.68,22.59,15.76,18.77,27.4,41.76,29,66.21l-.79,8.27-.63,7.87c-.15,1.93-.47,4.14-2.12,5.16-1.36.84-3.11.51-4.66.12a109.43,109.43,0,0,1-14.36-4.68,31.89,31.89,0,0,0,7.1,13.49,13.23,13.23,0,0,1,2.4,3.19c1,2.26.41,4.88-.08,7.31a67.72,67.72,0,0,0-.56,23.5l-2,8.76c-30.4,75.16-43,134.06-43,134.06l-17.79.28,13.28,5.36a1.25,1.25,0,0,1,.62.43,1.18,1.18,0,0,1,0,.79,26.1,26.1,0,0,1-7.1,13.51l-2.41,4.78q-9.17,8.14-18.24,16.39ZM607.54,2151.08c2.27-6-.15-12.61-2.66-18.48A505,505,0,0,0,555,2042.49c-2-2.86-4-5.76-5.1-9.08a18.27,18.27,0,0,0-1.24-3.51c-1.42-2.52-4.39-3.64-7-4.85a41.32,41.32,0,0,1-18.37-16.75,13.2,13.2,0,0,1-12.16,5.75l-6.88,4.58c-1.26,10.58-12.07,16.72-20.11,23.7-18.62,16.19-24.89,41.93-36,64-7.56,15-17.72,28.87-23.26,44.77-8.51,24.44-5.32,51.31-9.76,76.81-3.32,19.07-10.95,37.59-10.61,56.94.06,3.36.46,7,2.66,9.49,2.76,3.19,7.43,3.71,11.64,4,5.34.36,10.84.67,15.89-1.09,12.29-4.29,17.26-18.63,25.94-28.33,5.88-6.58,13.7-11.14,19.82-17.5,11.55-12,16.12-29.31,27.23-41.72,24.63-27.54,72.58-22.76,97-50.45ZM383.66,1496.89a8.71,8.71,0,0,0-11,5.56c-.42,1.25-.66,2.77-1.82,3.4a3.94,3.94,0,0,1-2.67.11,1.5,1.5,0,0,1-.84-.37,1.42,1.42,0,0,1-.27-.67,10.77,10.77,0,0,1,1.65-7.46,32.15,32.15,0,0,1,5.06-5.94l-.8-1.12a217.13,217.13,0,0,0-14.79-19.76,40.14,40.14,0,0,1-5.81-8.06,7,7,0,0,0-1-1.65,6.45,6.45,0,0,0-2.91-1.48c-4.05-1.37-7.68-3.72-11.26-6.06l-16.63-10.84-5-3.67-10.15-2.4a6.36,6.36,0,0,1-2.45-1,5.41,5.41,0,0,1-1.58-2.31,26.92,26.92,0,0,1-1.61-9.77c-.16-10,1.71-20.17-.68-29.87-1.87-7.62-6.32-14.6-7-22.42a36.57,36.57,0,0,0-.5-5.35c-.85-3.63-3.54-6.49-5.59-9.6-2.69-4.11-4.32-8.81-6.45-13.24-4.51-9.37-11.27-17.44-17.95-25.41a18.46,18.46,0,0,0-4.92-4.58c-4.37-2.39-9.84-.85-14.27,1.42-2.69,1.36-5.3,3-8.26,3.58s-6.44-.18-8.05-2.73c-1.88-3-.56-6.84-1.05-10.31l-3.2-9.64c1.27-3.7-1.14-7.76-4.28-10.09s-7-3.53-10.33-5.54c-1.36-.82-2.8-2.26-2.25-3.74a9,9,0,0,1,1.17-1.65c1-1.54.49-3.62,1.09-5.35.8-2.33,3.37-3.5,5.74-4.2a4.85,4.85,0,0,0,2-1c1.06-1,.88-2.73.57-4.17a57.59,57.59,0,0,0-6.05-16l-4.2-3.88c-4.32-6.44-10.48-12.77-18.23-13-4.81-.11-9.63,2.21-14.3,1.09-5-1.21-8.68-6.11-13.79-6.51a14.56,14.56,0,0,0-5.52.91c-2.27.73-4.61,1.7-6.07,3.59-1.65,2.15-1.85,5-2,7.75a366.3,366.3,0,0,0,1.87,53.71c.56,5.11,1.22,10.3.24,15.35-1.63,8.46-7.58,15.33-13.31,21.77a2.06,2.06,0,0,1-.84.66,2.1,2.1,0,0,1-1.7-.6,36.64,36.64,0,0,0-14.88-6.45c-3.78-.7-7.68-.81-11.38-1.87-5.41-1.57-10-5.06-14.75-8.1s-10.08-5.75-15.7-5.42S63.81,1307.47,64,1313.1l-6.26,10.54c-2.23,32.7-4.12,67.23,10.65,96.49,19.84,39.32,67.59,59.76,111.36,54.85-3.25,11.51,8.09,24.46,19.92,22.76,8-1.14,17.31-7.07,22.85-1.25,2,2.13,2.6,5.2,3.19,8.08,2.76,13.5,10.18,28.74,23.87,30.3,3.18.36,6.61,0,9.41,1.51,2.12,1.19,3.52,3.33,4.78,5.41,14.46,23.77,23.24,50.47,34.56,75.88s26,50.48,48.66,66.55c-20.27-.63-41.27,3.52-57.77,15.31s-27.69,32-25.22,52.18c.71,5.79,2.59,11.62,6.5,16,10.6,11.76,30.35,7.51,43.35-1.52s23.76-22,38.82-26.88c14.33-4.65,29.88-1.11,44.52,2.46l4.88-.49,9,2.17c-5.23,7.41-9.51,15.91-9.81,25s4.17,18.71,12.44,22.44c6.73,3,14.88,1.68,21.17-2.18s10.94-9.94,14.53-16.39c1.23-2.21,2.76-4.76,5.28-5,1.83-.15,3.46,1.07,4.84,2.28,7.65,6.74,13.32,15.42,20.39,22.76s16.4,13.58,26.58,13.16l7.15-5.3a59.58,59.58,0,0,0-1.22-22.84c-1.92-7.65-5.39-15-6.08-22.82l-3.14-2.64c-12-7.63-24.31-15.58-32.38-27.28a21.77,21.77,0,0,1-4-8.95c-1.1-7.46,3.95-14.22,7.55-20.84a60.31,60.31,0,0,0,6.49-38.21c-.62-3.79-1.87-7.9-5.15-9.89s-7.69-1.17-10.89,1-5.52,5.33-7.87,8.38-4.93,6.11-8.42,7.74c-2.36,1.1-5.51,1.32-7.23-.62-1.26-1.42-1.33-3.5-1.31-5.39.17-17.1,2.48-35.25-5.39-50.44l-2.57-8.07c-3.3-3.14-3.92-8.41-7.35-11.4-2.16-1.89-5.09-2.57-7.75-3.64-3.94-1.58-7.42-4.08-11.16-6.07a47.86,47.86,0,0,0-26.2-5.4c8.09-3.85,17.47-3.35,26.41-2.83a29.46,29.46,0,0,0,8.75-.37,10,10,0,0,0,6.83-5l-.68-5.66a191.54,191.54,0,0,0-28.59-53.23Z"></path>
    <path data-name="1a" data-official="" data-plain="Stamens and Pistil" data-loc="" d="M245.6,2562c-8.37-95.4-6.18-191.37-4-287.11.39-16.57.79-33.31,4.84-49.38,3.25-12.87,9-25.4,18.44-34.73s22.91-15.1,36.06-13.3c16.18,2.21,28.81,14.87,38.72,27.84,5.42,7.09,10.51,14.66,13,23.23,2.2,7.49,2.35,15.41,2.48,23.22,1.63,99.45,3.25,199.27-8.48,298-1.42,12-3.07,24.06-7.46,35.29-2.78,7.12-6.65,13.88-8.4,21.33-3,12.89.5,27.16-5.1,39.16-4.66,10-15,16.38-25.64,19s-21.87,2.09-32.86,1.5c-4.08-.22-8.39-.51-11.78-2.8-5.49-3.73-6.62-11.56-5-18s5.31-12.14,7.73-18.32a49,49,0,0,0-8.87-49.39Z"></path>
    <path data-name="1b" data-official="" data-plain="Ovary" data-loc="" d="M400.06,2592.53c-19.16-24.42-20.6-61.24-3.4-87.08,5.4-8.12,12.5-15.37,15.54-24.63,2.66-8.11,1.91-16.87,2.14-25.4s1.8-17.7,7.86-23.7a28.49,28.49,0,0,1,9.73-6c9.61-3.79,22-3.9,28.83,3.84,5,5.6,5.7,13.75,5.24,21.21s-1.86,15.05-.26,22.36c2.22,10.18,9.83,18.15,15.86,26.65,8.82,12.41,14.71,27.09,15.59,42.29S493.68,2573,484,2584.73c-3,3.71-6.63,7.1-8.55,11.49-2.1,4.82-1.93,10.28-1.73,15.53l.84,22.13c.24,6.36.4,13.08-2.67,18.67-3.24,5.9-9.54,9.45-15.79,12a90.67,90.67,0,0,1-30.88,6.54c-5.16.17-10.62-.19-14.89-3.08-6.38-4.32-8.21-13.08-7.19-20.71s4.3-14.78,6-22.3,1.42-16.16-3.67-21.94Z"></path>
    <path data-name="2" data-official="Plumbago rosea" data-plain="Red Plumbago" data-loc="East Indies" d="M813.28,1653.71c5.31,2.7,6.89,10,12.07,12.92l5.38,1.12c0,3.67.06,7.4,1.1,10.91.36,1.19,1,2.48,2.14,2.88a8.37,8.37,0,0,1,1.41.38,2,2,0,0,1,.86,2.13,5,5,0,0,1-1.19,2.14,23.62,23.62,0,0,1-2.87,3l-2.79,3.2a17.09,17.09,0,0,1-5.09,4.59,16.4,16.4,0,0,1-6.49,2.91,18.72,18.72,0,0,1-5.91-.43,6.6,6.6,0,0,1-3.74-1.54c-1.43-1.52-1.08-3.92-.73-6a79,79,0,0,0,.26-25.35,50.79,50.79,0,0,1-.82-6.61c-.1-4.38,1.2-9.13-1-12.92ZM544.2,1833.92,540,1826.7c.31-2.92.5-5.84.59-8.77a17.11,17.11,0,0,0-.52-5.76c-.56-1.75-1.63-3.29-2.21-5a19.23,19.23,0,0,1-.75-5.3,40.94,40.94,0,0,1,.33-10,13.73,13.73,0,0,1,4.88-8.45l5.57-3.64,1.67-10.08a68.86,68.86,0,0,1,3.7-50.18,10.33,10.33,0,0,1,3.36-4.43c4.2-2.71,9.39,1,13.87,3.16,11.13,5.52,24.51,1.77,35.93-3.12a80.24,80.24,0,0,0,16.51-9c5.82-4.32,10.65-9.84,16.37-14.27s12.83-7.85,20-6.85l16-1.37,7.43-3a36,36,0,0,0,6.81.07c.42-5.25-.26-10.64,1.1-15.72a43.51,43.51,0,0,1,2.53-6.5q2.84-6.29,5.41-12.68a55.05,55.05,0,0,0,2.56-7.45c1.75-7.27.63-15-2.2-22s-7.29-13.07-12.23-18.68a41.38,41.38,0,0,0-9-8.12,63.63,63.63,0,0,1-5.82-3.55,28.41,28.41,0,0,1-4.56-5l-9.17-1.59c-18-.84-36.08-.72-53.79,2.37s-35.1,9.24-49.77,19.65a99.67,99.67,0,0,0-24.79-14.71c3.39-1.69,6.86-3.42,9.5-6.14s4.36-6.65,3.46-10.34c-1.11-4.5-5.57-7.24-8.21-11-4.66-6.71-3.2-15.7-4-23.82a41,41,0,0,0-19.33-30.57c5-2.31,8-7.56,9.13-12.92s.5-10.91-.11-16.35a109.29,109.29,0,0,0,65.07-37.22c1.7-2,3.39-4.17,5.69-5.46,3.88-2.16,8.68-1.49,13-2.48,9.58-2.19,15.37-11.89,23.86-16.84,5.89-3.44,12.85-4.45,19.63-5.13l11.47,1.75,6.49-3.54a34.07,34.07,0,0,0,12.19-4.24c2.52-1.46,4.87-3.25,7.59-4.27s6-1.15,8.33.61c4-1.79,5.07-6.94,5.33-11.33a25.06,25.06,0,0,0-.81-9.65c-1.42-4.16-4.71-7.46-6.27-11.58-1.1-2.91-1.28-6.08-2.26-9a17.85,17.85,0,0,0-11.94-11.39l.75-1a33.5,33.5,0,0,0,6.56-4,11.17,11.17,0,0,0,4-6.42,19.29,19.29,0,0,0,0-4.74,63,63,0,0,1,1-17l-.34-1.18a9.61,9.61,0,0,1-5.11-9.21,12.29,12.29,0,0,1,5.65-9.19l.5-6.19c-.42-9.5-9.45-16.7-18.73-18.78s-18.92-.39-28.4.32c-2.09.15-4.35.22-6.1-.94s-2.56-3.24-3.75-5c-4.08-5.9-12.09-7.13-19.12-8.59-6.36-1.33-12.78-3.35-17.76-7.52-9.38-7.85-11.32-23.16-4.19-33.1,4.83-6.73,13.51-12.36,12.5-20.58-.6-4.82-4.54-8.48-8.49-11.29a74.34,74.34,0,0,0-17.8-9.29c-6.93-2.49-14.26-4-20.81-7.32s-12.47-9.17-13.34-16.48a9.91,9.91,0,0,1,1.76-7.45,10.42,10.42,0,0,1,5.25-3.14c4.49-1.32,9.34-1,13.86-2.2s9-5,8.54-9.67c-.16-1.46-.8-2.87-.74-4.34.14-3.11,3.16-5.13,5.43-7.27a19.65,19.65,0,0,0,4.84-20.65c-1.15-3.09-3.09-5.89-3.7-9.12-1.53-8.16,5.56-15,11.15-21.18a82.35,82.35,0,0,0,21-47.37l-7.85-5.28a62.67,62.67,0,0,1-30.76-12.25c-5.75-4.36-11.45-10-18.66-10.15-2.13,0-4.73.21-5.91-1.56-.74-1.12-.55-2.58-.4-3.91a27.8,27.8,0,0,0-4-18.09c-3.12-4.75-7.82-8.2-12.41-11.54-5.21-3.78-10.66-7.67-17-8.73-10.37-1.75-20.2,4.33-29.92,8.33-3.5,1.44-7.7,2.57-10.88.54-2.91-1.86-3.82-5.66-4.14-9.1a53.56,53.56,0,0,1,1-16.17,12.84,12.84,0,0,1,2.21-5.47,12,12,0,0,1,4.91-3.33c14.44-6,31.41-.83,46.34-5.48a36.86,36.86,0,0,0,22.68-20.6c1.14-2.71,2-5.72,1.3-8.58-1-4.44-5.17-7.34-9-9.8l-11.11-7.13a17.34,17.34,0,0,1-5.47-4.69c-2.25-3.4-1.84-7.83-2.58-11.84a20.58,20.58,0,0,0-7.5-12.41l-9.77-1.16c-4.3,1.8-8.93-1.63-13.58-2.08-5.13-.5-9.89,2.68-15,3.29-4.79.57-9.62-1.18-13.61-3.88s-7.28-6.29-10.53-9.85l-1.06-3.72c.47-1.51.92-3.25.09-4.59a5.48,5.48,0,0,0-1.4-1.4l-3.16-2.47a2.82,2.82,0,0,1-1-1.15c-.47-1.28,1-2.65.59-4s-2.05-1.41-3.31-1.19-2.75.55-3.7-.32c-1.24-1.14-.54-3.42-1.69-4.64-1.59-1.68-5.3,0-6.26-2.13-.58-1.28.52-3.08-.48-4.06s-2.58.11-3.52,1.13-2.62,2-3.51,1c-.1-1.9.68-3.71,1.08-5.57s.32-4.06-1.12-5.3a1.86,1.86,0,0,0-1.2-.51c-1.44,0-1.65,2.07-2.46,3.25-1.31,1.91-4.52,1.32-5.91-.53s-1.48-4.33-1.51-6.64l.55-2.94A5.88,5.88,0,0,0,417,773.6a3,3,0,0,1,.26-1.75,3.68,3.68,0,0,1,.93-.72c1.58-1.11,1.7-3.39,1.44-5.3s-.71-4,.23-5.67c.36-.66.92-1.21,1.23-1.9a6,6,0,0,0,.31-2.63L421,744a4.08,4.08,0,0,0-.43-2.08,2.75,2.75,0,0,0-3.11-.94,7.13,7.13,0,0,0-2.85,2c-.64-1.81-3.18-2.24-4.9-1.4s-2.86,2.52-4.06,4a34.92,34.92,0,0,1-2.63,2.94,4.66,4.66,0,0,1-2.9,1.65c-1.83,0-3.13-2-3.11-3.78s1-3.49,1.69-5.17A25.58,25.58,0,0,0,400,724.62c-.78-3-2.1-6.07-1.09-9l.25-1.07c-.18-1-1.12-1.55-1.67-2.35-1-1.37-.71-3.24-.2-4.83a12.48,12.48,0,0,1,2.88-5c4.39-4.43,12.26-3.85,16.43-8.48l5.13-3.69a33.18,33.18,0,0,0,2.68-8,11.35,11.35,0,0,0-1.42-8.1c-1.25-1.86-3.16-3.14-4.79-4.68a19.35,19.35,0,0,1-5.87-11.68l-.27-4.09c-.57-1.92.78-4,2.57-4.92l-3.81-5.69a79,79,0,0,1-10.12-20.68l-2.47-11.75c-4.69-3.45-9-8-13.11-12a102.23,102.23,0,0,0-10.49-8.89l-2.95,5.07A46.29,46.29,0,0,0,355,638.4c.83,4.69,2.34,9.8.06,14-1.33,2.42-3.73,4.06-5.31,6.33-3.33,4.77-2.43,11.25-.74,16.81s4.07,11.22,3.26,17a4.83,4.83,0,0,1-1.1,2.76,5.78,5.78,0,0,1-3.19,1.32c-6.45,1.22-13.74,3-16.89,8.74-1.79,3.28-1.81,7.19-1.8,10.93l.13,26.75c0,7.92-1.1,17.7-8.47,20.61-6.62,2.62-14.3-2.28-21.1-.15C295,765,291,770,285.93,769.2c-2.5-.4-4.52-2.18-6.83-3.21-7.63-3.4-16.49,2.1-21.27,9S250.48,790.09,245,796.4c-5.14,5.94-12.39,9.58-18.51,14.5a55.33,55.33,0,0,0-20.05,47.5c.72,7.52,3.27,15.25,9,20.2,6.52,5.65,15.86,6.63,24.48,6.16s17.3-2.12,25.81-.69l8.59-.11c3,.1,6.21.26,8.74,1.92s4,5.37,2.17,7.79a8.94,8.94,0,0,1-2.6,2.08c-13.12,8.25-22.27,21.72-35.31,30.08-5.33,3.43-11.42,6.09-15.29,11.11-3.4,4.4-4.77,10.27-8.82,14.08s-9.77,4.78-14.8,7c-13.73,6.07-21.17,20.72-27.87,34.15-3.29,6.6-7.09,13.6-13.74,16.79-12.07,5.79-28.39-3.38-39.12,4.64-4.47,3.35-6.69,9.07-7,14.65s1.09,11.1,2.64,16.47a273.46,273.46,0,0,0,26.74,62.46l4.16,9.46c3.79,8,14.41,10,20.43,16.54a27.35,27.35,0,0,1,4.49,7.1,56,56,0,0,1,5.19,21.77c.13,3.87-.25,8-2.67,11.06-1.44,1.81-3.47,3-5.28,4.47a26.52,26.52,0,0,0-.4,41.23l11.25,8c7.75.18,13.91,6.51,18.23,13l4.2,3.88a57.59,57.59,0,0,1,6.05,16c.31,1.44.49,3.15-.57,4.17a4.85,4.85,0,0,1-2,1c-2.37.7-4.94,1.87-5.74,4.2-.6,1.73-.08,3.81-1.09,5.35a9,9,0,0,0-1.17,1.65c-.55,1.48.89,2.92,2.25,3.74,3.35,2,7.19,3.21,10.33,5.54s5.55,6.39,4.28,10.09l3.2,9.64c.49,3.47-.83,7.35,1.05,10.31,1.61,2.55,5.09,3.31,8.05,2.73s5.57-2.22,8.26-3.58c4.43-2.27,9.9-3.81,14.27-1.42a18.46,18.46,0,0,1,4.92,4.58c6.68,8,13.44,16,17.95,25.41,2.13,4.43,3.76,9.13,6.45,13.24,2.05,3.11,4.74,6,5.59,9.6a36.57,36.57,0,0,1,.5,5.35c.65,7.82,5.1,14.8,7,22.42,2.39,9.7.52,19.88.68,29.87a26.92,26.92,0,0,0,1.61,9.77,5.41,5.41,0,0,0,1.58,2.31,6.36,6.36,0,0,0,2.45,1l10.15,2.4,5,3.67,16.63,10.84c3.58,2.34,7.21,4.69,11.26,6.06a6.45,6.45,0,0,1,2.91,1.48,7,7,0,0,1,1,1.65,40.14,40.14,0,0,0,5.81,8.06A217.13,217.13,0,0,1,373,1490.4l.8,1.12a32.15,32.15,0,0,0-5.06,5.94,10.77,10.77,0,0,0-1.65,7.46,1.42,1.42,0,0,0,.27.67,1.5,1.5,0,0,0,.84.37,3.94,3.94,0,0,0,2.67-.11c1.16-.63,1.4-2.15,1.82-3.4a8.71,8.71,0,0,1,11-5.56l8.67,8.75a191.54,191.54,0,0,1,28.59,53.23l.68,5.66a10,10,0,0,1-6.83,5,29.46,29.46,0,0,1-8.75.37c-8.94-.52-18.32-1-26.41,2.83a47.86,47.86,0,0,1,26.2,5.4c3.74,2,7.22,4.49,11.16,6.07,2.66,1.07,5.59,1.75,7.75,3.64,3.43,3,4,8.26,7.35,11.4l2.57,8.07c7.87,15.19,5.56,33.34,5.39,50.44,0,1.89.05,4,1.31,5.39,1.72,1.94,4.87,1.72,7.23.62,3.49-1.63,6.07-4.69,8.42-7.74s4.66-6.25,7.87-8.38,7.61-3,10.89-1,4.53,6.1,5.15,9.89a60.31,60.31,0,0,1-6.49,38.21c-3.6,6.62-8.65,13.38-7.55,20.84a21.77,21.77,0,0,0,4,8.95c8.07,11.7,20.39,19.65,32.38,27.28l3.14,2.64c.69,7.86,4.16,15.17,6.08,22.82a59.58,59.58,0,0,1,1.22,22.84l-7.15,5.3-.46,7.35-.66,35.59-38.85-39c-2.45-2.46-5.1-5-8.49-5.78-4.65-1-9.28,1.62-13,4.56a68.48,68.48,0,0,0-24.56,39.56c-17.06,0-31.65-11.87-48.05-16.56-20.48-5.85-42.21-.2-63.39,2-16.85,1.78-33.84,1.37-50.77.67-13.9-.57-27.89-1.34-41.67.59-12.93,1.81-25.44,6-37.49,11-53.17,22.27-100.26,65.6-114.09,121.56l-1.17,9c-5,18-24,29.37-29.53,47.25-4.6,14.94,1.19,30.81,3.51,46.27a103.91,103.91,0,0,1-2.9,43.91c-4.25,14.77-11.77,28.54-14.8,43.61-6.66,33.13,11.64,69.35,41.77,84.65s69.43,9.13,94.22-13.83c1.95-1.81,3.94-4,4-6.63.11-3.73-3.45-6.38-6.62-8.34l-18.57-11.49c-9.48-5.86-19.29-12.05-25.17-21.52s-6.48-23.21,1.71-30.76c5.73-5.29,14-6.32,21.52-8.51,8-2.35,15.57-6.28,23.69-8.38,17-4.4,34.86-.46,52.09,2.85,27,5.19,55.2,8.78,81.68,1.42,38-10.55,66.13-41.5,94.9-68.48,3.47-3.26,8.16-6.72,12.56-4.9,3.29,1.37,4.77,5.09,6.76,8.05,5.08,7.55,14.81,10.87,23.91,10.59s17.8-3.57,26.3-6.83l9.81-5.75c5-10.15,10.93-19.56,19.45-27,8-7,18.85-13.12,20.11-23.7l6.88-4.58a13.2,13.2,0,0,0,12.16-5.75,41.32,41.32,0,0,0,18.37,16.75c2.62,1.21,5.59,2.33,7,4.85a18.27,18.27,0,0,1,1.24,3.51c1.05,3.32,3.1,6.22,5.1,9.08a505,505,0,0,1,49.86,90.11c2.51,5.87,4.93,12.51,2.66,18.48l-2.78,8.14,1.72,11c2.14,20.34,10.75,39.35,19.24,58l23.46,51.39c5.7,12.49,11.45,25.13,14,38.62,2.3,12.18,2.32,25.71,10.27,35.21a16.43,16.43,0,0,0,6.77,5.08,18.68,18.68,0,0,0,8.32.69c11.13-1.13,21.87-7.13,27.91-16.55s6.88-22.19,1.35-31.92c-2.62-4.63-6.55-8.53-8.37-13.53-3.41-9.41,1.49-19.64,1.81-29.64.31-9.66-3.67-18.87-7.58-27.7-15.59-35.23-31.26-70.6-51.78-103.2L640,2126.16,634.4,2122l-25.55-42.19c-3.17-5.22-6.34-10.45-9.11-15.89s-5.27-11.38-8-17c-6.63-13.64-15-26.33-23.58-38.87-2.6-3.83-5.24-7.68-7-12A62.84,62.84,0,0,1,558,1982.8l-2.24-13.49c-1-6.06-2-12.41,0-18.24l4.68-8.65-.61-10.4L556,1911.41c-3.47-18.92-7-38.22-4.32-57.27Z"></path>
    <path data-name="3" data-official="Statice pur purata" data-plain="Purple Statice" data-loc="South Africa" d="M1131,1855.6c2.47-1.9,9.28-2.11,10.39-2.44a9.44,9.44,0,0,1,3.27-.17l24.69,1.55.63.09a88.64,88.64,0,0,1,.15,15.28,29.4,29.4,0,0,1-5,14.25,27.11,27.11,0,0,0-2.82,4,5,5,0,0,0-.07,4.73,3.64,3.64,0,0,0,5.32.73l-1.23,12.79-4,24.82c-.63,3.92-1.49,8.24-4.66,10.62-1.49,1.12-3.68,2.3-3.24,4.11.34,1.36,2,1.93,2.66,3.19a4.53,4.53,0,0,1,.26,2.23l-1,20.82,1.18,6.66q.36,13.41.14,26.82l.47,10.21q3.06,103.41-1.89,206.86c-.15,3.09-.33,6.31-1.81,9-3.84,7-14.62,7.12-21.15,2.46s-10.1-12.31-14.13-19.26c-8.08-13.93-20.39-26.89-36.3-29.41-2.21-.35-4.64-.45-6.51.78-2.66,1.74-3.16,5.35-3.38,8.52q-1.86,26.43-1.33,53c.19,9.36.57,18.94-2.33,27.83-4.22,13-16,23.43-29.55,25s-27.91-6.62-32.54-19.44c-2.27-6.29-2.27-13.18-4-19.63s-6.28-13-12.91-13.8c-8.12-1-16.44,6.85-23.78,3.22l-14,3.19-14.58-51c-3-10.49-6-21-7.83-31.76l8.69-19.64,53.64-107.77c6.3-12.65,12.62-25.35,20.63-37,5.12-7.44,11-14.51,14.44-22.84,3.08-7.36,4.18-15.36,5.25-23.26,4.26-31.43,8.53-63,8.34-94.69l-4.51-5.76q9.08-8.23,18.24-16.39l2.41-4.78a26.1,26.1,0,0,0,7.1-13.51,1.18,1.18,0,0,0,0-.79l2.06,2.33,11.34,4.53a13.8,13.8,0,0,1,3.52,1.81,14.3,14.3,0,0,1,3.16,4.45c.68,1.34,3.8,3.71,4.21,5.15l4.32,2.66c3.65-1,11.76-.44,12.77-.54a8.28,8.28,0,0,1,2.87.41l14.72,3.93c.59.16,1.48,3.26,3.09,5.44Zm79.49-143.38c-4.26-2.21-8-5.36-11.6-8.47l-6.47-5.52c-5.26-4.48-10.59-9-16.79-12.08s-13.47-4.55-20.11-2.61l-5.12.21a9.93,9.93,0,0,1-2.77-9.58c.53-2,1.69-3.82,1.85-5.87a1.92,1.92,0,0,0-.14-1,2.28,2.28,0,0,0-1.62-1,44.83,44.83,0,0,1-8.52-3.26c-5-2.54-9.71-6.1-15.27-6.88l-4,1.9a5.86,5.86,0,0,1-2.67-4l-3.64-1.45a67.72,67.72,0,0,0-.56,23.5l-2,8.76c-30.4,75.16-43,134.06-43,134.06h3.09c4.23.93,8.2,2.75,12.31,4.12s8.53,2.29,12.76,1.34l5.63,2.74c3.07,5.08,9.32,7.17,15.14,8.36,4.76,1,9.73,1.6,14.43.4l7.16,3c2.3-.1,4.71-.18,6.78.83.84.42,1.6,1,2.46,1.37a10.92,10.92,0,0,0,4.41.58l8.29-.06c2.91,0,5.94-.06,8.57-1.32a19.67,19.67,0,0,0,5.22-4.15l2.12-4.49,3.84-39.25-.19-10a33.82,33.82,0,0,1-24-21.87c-1-3.07-1.85-6.63-4.64-8.27-2-1.17-4.58-1-6.6-2.19-3-1.71-3.72-5.54-4.2-8.91l-1-6.89-1.62-4.46c.47-4.54.11-9.14.68-13.67s2.25-9.2,5.88-12,9.51-2.84,12.31.77c1.48,1.9,1.87,4.41,2.22,6.79l4.5,31.07c.69,4.75,1.41,9.59,3.59,13.86s6.13,7.94,10.89,8.49a22,22,0,0,0,7.67-.93l3.1-4.69q-.3-7-.17-14c0-2.92.18-5.93,1.36-8.6,1.37-3.08,4-5.4,6.51-7.62l7.94-6.93ZM2028.59,675.09c-14.11-37-60.45-51.67-80.09-86.05-6.64-11.62-9.86-24.93-16.42-36.6-5.68-10.1-13.76-18.76-19-29.09-19.2-37.75,3.93-85.24-10-125.25-2.75-7.92-7-15.5-13.49-20.88-20.95-17.5-54.91-3.83-70,18.93-8.24,12.42-15.92,29-30.81,29.76-5.43.28-10.67-1.84-15.7-3.92-24.73-10.2-49.89-20.67-70.4-37.86-24.31-20.38-42.23-50.19-72.09-60.94-46.58-16.77-103.89,19.82-145.6-6.86-16.47-10.54-26.06-28.73-38-44.22-37.08-48.12-97.86-71-143.52-111.09L1291.1,148c.25-15.34,19.91-21.11,30.55-32.16,14.29-14.85,11.36-39.2,20.87-57.48,2.51-4.85,6-9.39,6.92-14.76,1.81-10.18-6.25-20-15.85-23.84s-20.34-3.06-30.64-2.25c-53.88,4.25-108.1,8.55-160.35,22.33s-103,37.71-140.83,76.3c-5.4,5.51-10.61,11.44-13.62,18.55-3.45,8.17-3.75,17.27-4,26.14-1.07,39.34-2,79.52,9.63,117.11,4.59,14.81,11.35,29.36,22.49,40.14,6.47,6.27,14.3,11.14,20.1,18,9.12,10.82,12.26,25.35,18.89,37.85,7.66,14.44,19.86,26,28.5,39.83,9.53,15.29,14.44,32.93,19,50.35q27,102.15,44.82,206.42c2.72,15.91,5.28,32.16,2.87,48.12-2.56,17-10.57,32.56-16.41,48.7a197,197,0,0,0-9,98.76l3.26,11.12,3.54,9.41c-16,4.45-32.19,9-46.92,16.69s-28.1,19-35.33,34c-5.25,10.87-7.47,23.83-16.48,31.86-4.72,4.21-10.79,6.53-16.44,9.39-29.1,14.7-48.67,46.56-48.62,79.17l-2.42,11.11a19.71,19.71,0,0,1,6.22,3.39c2.53,2.17,4.14,5.21,5.56,8.23,2.36,5,4.36,10.21,6.83,15.17,6.81,13.65,17.53,25.66,31.29,32.27l6.16,2.76c50.32,30.37,50.32,56.09,50.32,56.09l-5.31,3.34-10.16,10.9c6.15,24.44,12.83,49,24.2,71.45s27.86,43,49.83,55.4c9,5.06,18.77,8.68,27.48,14.21a73.67,73.67,0,0,1,31.8,44.69c3.74,15.83,2.09,32.37.6,48.57-2.9,31.67-5.09,63.54-11.93,94.6s-18.59,61.62-38.69,86.27c-2.28,2.8-4.67,5.52-7.06,8.24l-5.11,9.47c3,1.12,5.31,3.38,7.74,5.41a62.91,62.91,0,0,0,26.44,13l5.74,3.92q14.36,7.55,29.06,14.37l2.43,2.49c3.65,1.06,6.48,3.87,9.14,6.58l8.53,8.7c4,4.11,8.53,8.46,14.26,9.15l4.21-3.21,10.57-14.77c4.31-6,8.63-12.07,13.8-17.38a73.9,73.9,0,0,1,21.24-15.21l4.13-1.8c6.7-6.55,10-16.16,17.36-22l3.92-8.43c.83-4.67-1.23-9.32-3.25-13.62l-12.58-26.87c-1.41-3-2.93-6.14-5.67-8l-2.63,6.77c-9.56,11-10,27.41-17.73,39.79-5.35,8.53-13.81,14.56-22.05,20.37l-5.73,2.74a299.3,299.3,0,0,1-27.29,20.27c0-3.89,2.36-7.32,4.33-10.68,10.72-18.23,10.46-40.6,14.81-61.29,1.79-8.52,4.41-16.94,4.87-25.63.35-6.78-.53-14,2.7-20,2.1-3.9,5.69-6.72,8.84-9.84a54.88,54.88,0,0,0,10.43-14.44l1.61-4.05c5-6.19,9.69-13.43,9.32-21.38-.32-6.61-4.13-12.56-5.29-19.08-.53-3-.5-6.05-1.09-9-1.07-5.46-4.15-10.29-7.16-15l-1-5.49-.1-10.53c0-4.14.36-9.09,4-11.11a6.07,6.07,0,0,1,8.31,3.13l2.66,3.91c0,7.1,3.67,13.6,6.88,19.93q3.61,7.17,6.59,14.64l4.27.74c10.46,13.63,14,31.18,17.28,48.06l3.25,10.13,1.89,28.48a45.6,45.6,0,0,0,4,18.37l11,27.94,3.19,2.13c4.35-.13,7.49-4,10-7.61,6-8.52,12-17.13,16.06-26.74,1.34-3.19,2.45-6.47,3.59-9.74Q1361,1534,1369,1516.46a30,30,0,0,1,4.65-7.88c1.51-1.68,3.37-3,4.87-4.69,1.79-2,3-4.49,4.75-6.56,4.22-5,11.46-7.81,13.46-14.08l3.93-4.44,9.37-16a144.47,144.47,0,0,0,6.92-12.78c1.63-3.58,3-7.3,4.25-11a342.82,342.82,0,0,0,13.2-51.36l1.72-3.52c0-6.23,4.06-11.71,5.37-17.79.52-2.41.6-4.89,1-7.32a31.49,31.49,0,0,1,8.6-17.24l-2.94-.76c.06-.58.88-.62,1.4-.88.85-.43.94-1.59.91-2.55l-.16-5.86a1,1,0,0,0-.85-1.14l-2.79-.81c1.21-.88,2.65-1.4,3.81-2.34s2-2.57,1.35-3.92c-.77-1.64-3-1.77-4.82-1.65a7.89,7.89,0,0,1,3.24-2.62,3.4,3.4,0,0,0,1.17-.67c.93-1,0-2.65.41-4l0-1.5.13-2.74-3-1.2a2.27,2.27,0,0,0,3-1,6.54,6.54,0,0,0,.66-3.37c0-1-.21-2.4-1.23-2.58-.53-.08-1.16.18-1.54-.2.9-1,2.84-.84,3.4-2.07a2.87,2.87,0,0,0,.15-1.24l-.17-6.27a1,1,0,0,0-.19-.68,1,1,0,0,0-.54-.22l-2.44-.46a2.83,2.83,0,0,0,2.59-3.45,10.71,10.71,0,0,1-4.75-.74,17.38,17.38,0,0,0,5-1.87,2.24,2.24,0,0,0,1.13-1.1,2.36,2.36,0,0,0,0-1.12l-1.12-6.78-.87,0c-1.43,0-2.86,0-4.29,0-.29,0-.62-.06-.75-.32-.24-.46.42-.84.94-.94l3.2-.6a1.42,1.42,0,0,0,.87-.38,1.5,1.5,0,0,0,.25-.83l.24-2.78a6.69,6.69,0,0,0-.08-2.32c-.58-2.08-3-3.1-4.07-4.94l3.29.56a.53.53,0,0,0,.72-.66l0-3.37a1.14,1.14,0,0,0-.32-1,1.11,1.11,0,0,0-.57-.16l-3.3-.34a11.82,11.82,0,0,1,3.65-2.86l-.29-.92-.31-7.22c-.16-3.84-.34-7.74-1.61-11.36s-3.81-7-7.42-8.32l-1.88-2.92c-2.61-11.91-5.24-24.19-3.18-36.21l3.75-1.49c1.1-15.8-1.58-29.85-7.77-44.43a18.82,18.82,0,0,0-4-6.49c-1.86-1.75-4.63-2.76-7-1.9l-5,3.27a275.1,275.1,0,0,1-72.23,105c-3.09,2.79-7.36,5.68-11.08,3.8-1.69-.84-2.79-2.5-3.81-4.09q-14.26-22.23-28.55-44.45c-3.77-5.86-7.55-11.75-10.33-18.14-13.73-31.62-.76-69.18-10.79-102.15-6.14-20.2-20.38-36.85-35.23-51.87l-2.27-5a35.15,35.15,0,0,1-13.09-16.55l-2.09-3.1a17.18,17.18,0,0,1-2.7-10.34c-2.46,1.62-5.64,1.5-8.58,1.26a22.44,22.44,0,0,1-4.32-.66,12.3,12.3,0,0,1-8.67-11.26l-2.46.28a1.66,1.66,0,0,1-.77,0,1.54,1.54,0,0,1-.66-.63c-1-1.46-1.69-3.26-3.26-4.07a4.76,4.76,0,0,1-.89-.48,4.66,4.66,0,0,1-.87-1.44,8.44,8.44,0,0,0-3-2.64,19.82,19.82,0,0,1-6.19-6.84l-3.39-4.78a30.79,30.79,0,0,1-3.39-24l6.87-3a13,13,0,0,1,7.53-1.17,22,22,0,0,0,.26-6c2-.43,4,.54,5.86,1.48a12.42,12.42,0,0,1,6.82-13.53c-3.11,1.06-6.57-.69-8.73-3.16s-3.41-5.6-5.08-8.42-3.6-5.15-5.09-7.92-2.45-6-1.74-9l2.56-2.39a5.51,5.51,0,0,1,9-.18,10.62,10.62,0,0,1,7.57-5,1.81,1.81,0,0,0,1.23-.46,2,2,0,0,0,.31-.84,6.76,6.76,0,0,1,2.29-3.74,16.46,16.46,0,0,0,2-1.61c1.72-1.95,1-4.95,1.31-7.53l3.48-10.42-5.24-76.27c-.75-11-1.48-22.32,1.64-32.92,5.74-19.51,23.16-32.92,39.66-44.8,44.4-32,91.74-63.86,145.94-71.21,3.69-.5,7.49-.91,10.8-2.61,4.78-2.46,7.85-7.22,11.34-11.31,15.79-18.46,41.47-24.23,65.3-29,8.15-1.62,16.48-3.25,24.72-2.12,11.72,1.6,21.92,8.56,31.64,15.32,7.45,5.19,15.34,10.92,18.39,19.47,2.43,6.79,1.39,14.27.21,21.38a647.44,647.44,0,0,1-17.59,76.44c-3.5,11.86-7.35,23.66-9.41,35.86-2.57,15.28-2.27,30.89-4,46.28-4.68,40.45-23.42,77.67-38.67,115.43A706.06,706.06,0,0,0,1453,1032l-.33,6.25q.46,13.18.55,26.38a67.19,67.19,0,0,1-.68,12.2c-.36,2-.82,4.2.34,5.82s3.49,2.46,3.18,4.29a2.38,2.38,0,0,1-2.69,1.67,7.06,7.06,0,0,1-3.12-1.52,44.24,44.24,0,0,1-6,14.31l-.54,2.76a3.13,3.13,0,0,1,.57,3.68c-.49.88-1.43,1.54-1.59,2.53a3.68,3.68,0,0,0,.24,1.6l8.51,27.78,4.44,1.21c1.89-.62,4,.49,5.16,2.11a14.08,14.08,0,0,1,2,5.58l2.27,11.14c2,9.79,4,19.64,4.18,29.63l.08,7.31a14.84,14.84,0,0,1-2.71,9.07L1466,1209q1.79,24.78,2.43,49.61a5.28,5.28,0,0,1,4.23-.05,6.14,6.14,0,0,1-4.19,2l-.19,3.62a2.13,2.13,0,0,0,.25,1.37c.73,1,2.7.25,3.34,1.31a36.72,36.72,0,0,1-3.91,1.58l.21,1.12V1275a.63.63,0,0,0,.1.43.55.55,0,0,0,.41.13c.47,0,.92-.12,1.38-.11a1.22,1.22,0,0,1,1.14.64c.24.62-.38,1.24-1,1.52s-1.33.49-1.65,1.07a2.28,2.28,0,0,0-.2,1l-.19,4.34a12.63,12.63,0,0,0,.2,3.74,4.36,4.36,0,0,0,2.16,2.92l5.62,2.62c16.79-2.59,28.12-17.94,38-31.77q23.58-33.06,50.14-63.85c11.28-13.07,24.28-26.56,41.31-29.4,31.37-5.21,56.72,27.35,88.16,32.09,37.12,5.59,74.41-28.58,109.6-15.51,14.8,5.49,25.77,18.55,40.45,24.36,9.56,3.78,20.06,4.25,30.34,4.55,7.29.21,14.83.33,21.56-2.48,12.59-5.23,19-19,24.2-31.59,7.07-17.22,14-36,9.26-54-3.41-12.81-12.47-23.65-15.17-36.63-5.66-27.24,17.88-52.29,19.57-80.06l2-8c-1.42-8.53-2.92-17.29-7.41-24.67-2.68-4.4-6.34-8.14-9-12.54-7.66-12.56-6.1-29.6,2.39-41.61s23-19,37.73-20c12.83-.83,27.27,2.13,37.36-5.84,7.33-5.79,9.9-15.73,15.78-23,6.11-7.53,15.31-11.7,23.13-17.42a67.47,67.47,0,0,0,23.58-31.7c4.24-12,5-24.9,5.69-37.6.95-17.15,1.89-34.47-1-51.4s-9.92-33.69-22.68-45.19Z"></path>
    <path data-name="4" data-official="Armeria vulgaris" data-plain="Common Thrift" data-loc="England" d="M1154.35,2231.82c1.48-2.72,1.66-5.94,1.81-9q.73-15.33,1.29-30.68l9.35-3.18c22-5.53,44.26-19.5,49.92-41.53,1-3.69,1.38-7.69,0-11.27-1.75-4.69-6.14-7.79-9.41-11.58-9.12-10.6-9.12-26-13.27-39.34-6.33-20.37-22.56-36.2-30.83-55.86l-5.21-13.42-.47-10.21q.23-13.41-.14-26.82l-1.18-6.66,1-20.82a4.53,4.53,0,0,0-.26-2.23c-.62-1.26-2.32-1.83-2.66-3.19-.44-1.81,1.75-3,3.24-4.11,3.17-2.38,4-6.7,4.66-10.62l4-24.82,1.23-12.79a3.64,3.64,0,0,1-5.32-.73,5,5,0,0,1,.07-4.73,27.11,27.11,0,0,1,2.82-4,29.4,29.4,0,0,0,5-14.25,88.64,88.64,0,0,0-.15-15.28l-.63-.09-24.69-1.55a9.44,9.44,0,0,0-3.27.17c-1.11.33-7.92.54-10.39,2.44l-4.76-.37c-1.61-2.18-2.5-5.28-3.09-5.44l-14.72-3.93a8.28,8.28,0,0,0-2.87-.41c-1,.1-9.12-.44-12.77.54l-4.32-2.66c-.41-1.44-3.53-3.81-4.21-5.15a14.3,14.3,0,0,0-3.16-4.45,13.8,13.8,0,0,0-3.52-1.81l-11.34-4.53-2.06-2.33a1.18,1.18,0,0,1,0,.79,1.18,1.18,0,0,0,0-.79,1.25,1.25,0,0,0-.62-.43l-13.28-5.36,17.79-.28h3.09c4.23.93,8.2,2.75,12.31,4.12s8.53,2.29,12.76,1.34l5.63,2.74c3.07,5.08,9.32,7.17,15.14,8.36,4.76,1,9.73,1.6,14.43.4l7.16,3c2.3-.1,4.71-.18,6.78.83.84.42,1.6,1,2.46,1.37a10.92,10.92,0,0,0,4.41.58l8.29-.06c2.91,0,5.94-.06,8.57-1.32a19.67,19.67,0,0,0,5.22-4.15l2.12-4.49,3.84-39.25-.19-10a33.82,33.82,0,0,1-24-21.87c-1-3.07-1.85-6.63-4.64-8.27-2-1.17-4.58-1-6.6-2.19-3-1.71-3.72-5.54-4.2-8.91l-1-6.89-1.62-4.46c.47-4.54.11-9.14.68-13.67s2.25-9.2,5.88-12,9.51-2.84,12.31.77c1.48,1.9,1.87,4.41,2.22,6.79l4.5,31.07c.69,4.75,1.41,9.59,3.59,13.86s6.13,7.94,10.89,8.49a22,22,0,0,0,7.67-.93l3.1-4.69q-.3-7-.17-14c0-2.92.18-5.93,1.36-8.6,1.37-3.08,4-5.4,6.51-7.62l7.94-6.93,6-10.29c-4.26-2.21-8-5.36-11.6-8.47l-6.47-5.52c-5.26-4.48-10.59-9-16.79-12.08s-13.47-4.55-20.11-2.61l-5.12.21a9.93,9.93,0,0,1-2.77-9.58c.53-2,1.69-3.82,1.85-5.87a1.92,1.92,0,0,0-.14-1,2.28,2.28,0,0,0-1.62-1,44.83,44.83,0,0,1-8.52-3.26c-5-2.54-9.71-6.1-15.27-6.88l-4,1.9a5.86,5.86,0,0,1-2.67-4l-3.64-1.45c.49-2.43,1.1-5.05.08-7.31a13.23,13.23,0,0,0-2.4-3.19,31.89,31.89,0,0,1-7.1-13.49,109.43,109.43,0,0,0,14.36,4.68c1.55.39,3.3.72,4.66-.12l4.46.69c3,1.12,5.31,3.38,7.74,5.41a62.91,62.91,0,0,0,26.44,13l5.74,3.92q14.36,7.55,29.06,14.37l2.43,2.49c3.65,1.06,6.48,3.87,9.14,6.58l8.53,8.7c4,4.11,8.53,8.46,14.26,9.15l4.21-3.21,10.57-14.77c4.31-6,8.63-12.07,13.8-17.38a73.9,73.9,0,0,1,21.24-15.21l4.13-1.8c6.7-6.55,10-16.16,17.36-22l3.92-8.43c.83-4.67-1.23-9.32-3.25-13.62l-12.58-26.87c-1.41-3-2.93-6.14-5.67-8l-2.63,6.77c-9.56,11-10,27.41-17.73,39.79-5.35,8.53-13.81,14.56-22.05,20.37l-5.73,2.74-1.95-7.15a411.57,411.57,0,0,0-1.78-41.24l-4.42-3.31c1.79-8.52,4.41-16.94,4.87-25.63.35-6.78-.53-14,2.7-20,2.1-3.9,5.69-6.72,8.84-9.84a54.88,54.88,0,0,0,10.43-14.44l1.61-4.05c5-6.19,9.69-13.43,9.32-21.38-.32-6.61-4.13-12.56-5.29-19.08-.53-3-.5-6.05-1.09-9-1.07-5.46-4.15-10.29-7.16-15l-1-5.49-.1-10.53c0-4.14.36-9.09,4-11.11a6.07,6.07,0,0,1,8.31,3.13l2.66,3.91c0,7.1,3.67,13.6,6.88,19.93q3.61,7.17,6.59,14.64l4.27.74c10.46,13.63,14,31.18,17.28,48.06l3.25,10.13,1.89,28.48a45.6,45.6,0,0,0,4,18.37l11,27.94,3.19,2.13c4.35-.13,7.49-4,10-7.61,6-8.52,12-17.13,16.06-26.74,1.34-3.19,2.45-6.47,3.59-9.74Q1361,1534,1369,1516.46a30,30,0,0,1,4.65-7.88c1.51-1.68,3.37-3,4.87-4.69,1.79-2,3-4.49,4.75-6.56,4.22-5,11.46-7.81,13.46-14.08l3.93-4.44,9.37-16a144.47,144.47,0,0,0,6.92-12.78c1.63-3.58,3-7.3,4.25-11a342.82,342.82,0,0,0,13.2-51.36l1.72-3.52c0-6.23,4.06-11.71,5.37-17.79.52-2.41.6-4.89,1-7.32a31.49,31.49,0,0,1,8.6-17.24l-2.94-.76c.06-.58.88-.62,1.4-.88.85-.43.94-1.59.91-2.55l-.16-5.86a1,1,0,0,0-.85-1.14l-2.79-.81c1.21-.88,2.65-1.4,3.81-2.34s2-2.57,1.35-3.92c-.77-1.64-3-1.77-4.82-1.65a7.89,7.89,0,0,1,3.24-2.62,3.4,3.4,0,0,0,1.17-.67c.93-1,0-2.65.41-4l0-1.5.13-2.74-3-1.2a2.27,2.27,0,0,0,3-1,6.54,6.54,0,0,0,.66-3.37c0-1-.21-2.4-1.23-2.58-.53-.08-1.16.18-1.54-.2.9-1,2.84-.84,3.4-2.07a2.87,2.87,0,0,0,.15-1.24l-.17-6.27a1,1,0,0,0-.19-.68,1,1,0,0,0-.54-.22l-2.44-.46a2.83,2.83,0,0,0,2.59-3.45,10.71,10.71,0,0,1-4.75-.74,17.38,17.38,0,0,0,5-1.87,2.24,2.24,0,0,0,1.13-1.1,2.36,2.36,0,0,0,0-1.12l-1.12-6.78-.87,0c-1.43,0-2.86,0-4.29,0-.29,0-.62-.06-.75-.32-.24-.46.42-.84.94-.94l3.2-.6a1.42,1.42,0,0,0,.87-.38,1.5,1.5,0,0,0,.25-.83l.24-2.78a6.69,6.69,0,0,0-.08-2.32c-.58-2.08-3-3.1-4.07-4.94l3.29.56a.53.53,0,0,0,.72-.66l0-3.37a1.14,1.14,0,0,0-.32-1,1.11,1.11,0,0,0-.57-.16l-3.3-.34a11.82,11.82,0,0,1,3.65-2.86l-.29-.92-.31-7.22c-.16-3.84-.34-7.74-1.61-11.36s-3.81-7-7.42-8.32l-1.88-2.92c-2.61-11.91-5.24-24.19-3.18-36.21l3.75-1.49c1.1-15.8-1.58-29.85-7.77-44.43a18.82,18.82,0,0,0-4-6.49c-1.86-1.75-4.63-2.76-7-1.9l-13.15-4.27c-3.33-5.54-12.16-1.37-18.22-3.63-2.82-1.06-4.88-3.53-6.42-6.13-5.62-9.52-5.62-21.18-6.91-32.16a127.88,127.88,0,0,0-43.26-81.25c-3-2.58-6.29-5.09-10.18-5.86-4.25-.85-8.59.51-12.91.81-9.2.65-18.51-3.44-27.5-1.36-4.42,1-8.35,3.48-12.49,5.34a49.51,49.51,0,0,1-28.14,3.64l-13.16-5.31-2.09-3.1a17.18,17.18,0,0,1-2.7-10.34c-2.46,1.62-5.64,1.5-8.58,1.26a22.44,22.44,0,0,1-4.32-.66,12.3,12.3,0,0,1-8.67-11.26l-2.46.28a1.66,1.66,0,0,1-.77,0,1.54,1.54,0,0,1-.66-.63c-1-1.46-1.69-3.26-3.26-4.07a4.76,4.76,0,0,1-.89-.48,4.66,4.66,0,0,1-.87-1.44,8.44,8.44,0,0,0-3-2.64,19.82,19.82,0,0,1-6.19-6.84l-3.39-4.78a30.79,30.79,0,0,1-3.39-24l6.87-3a13,13,0,0,1,7.53-1.17,22,22,0,0,0,.26-6c2-.43,4,.54,5.86,1.48a12.42,12.42,0,0,1,6.82-13.53c-3.11,1.06-6.57-.69-8.73-3.16s-3.41-5.6-5.08-8.42-3.6-5.15-5.09-7.92-2.45-6-1.74-9l2.56-2.39a5.51,5.51,0,0,1,9-.18,10.62,10.62,0,0,1,7.57-5,1.81,1.81,0,0,0,1.23-.46,2,2,0,0,0,.31-.84,6.76,6.76,0,0,1,2.29-3.74,16.46,16.46,0,0,0,2-1.61c1.72-1.95,1-4.95,1.31-7.53l3.48-10.42-1.33-19.39,10.06-7.31c8.37-13,23.42-19.72,37.63-25.77l41.61-17.7c14.4-6.12,29-12.32,44.6-14.06,25.77-2.88,51.55,6.71,77.43,5.14,3.49-.21,7-.62,10.46.19,5.65,1.33,10,5.77,13.62,10.3,7.41,9.29,13.24,20.07,15.43,31.75s.52,24.31-6,34.28c-2.26,3.48-5.17,6.84-5.58,11-.59,5.91,4,10.86,6.83,16.09,6.62,12.41,2.88,28.23-5.26,39.7s-20,19.65-31.17,28.15-22.35,18-28.12,30.84c-1.62,3.62-2.8,7.58-2.33,11.52.68,5.75,4.69,10.48,8.52,14.83l44.56,50.56,7.43,12.61a67.19,67.19,0,0,1-.68,12.2c-.36,2-.82,4.2.34,5.82s3.49,2.46,3.18,4.29a2.38,2.38,0,0,1-2.69,1.67,7.06,7.06,0,0,1-3.12-1.52,44.24,44.24,0,0,1-6,14.31l-.54,2.76a3.13,3.13,0,0,1,.57,3.68c-.49.88-1.43,1.54-1.59,2.53a3.68,3.68,0,0,0,.24,1.6l8.51,27.78,4.44,1.21c1.89-.62,4,.49,5.16,2.11a14.08,14.08,0,0,1,2,5.58l2.27,11.14c2,9.79,4,19.64,4.18,29.63l.08,7.31a14.84,14.84,0,0,1-2.71,9.07L1466,1209q1.79,24.78,2.43,49.61a5.28,5.28,0,0,1,4.23-.05,6.14,6.14,0,0,1-4.19,2l-.19,3.62a2.13,2.13,0,0,0,.25,1.37c.73,1,2.7.25,3.34,1.31a36.72,36.72,0,0,1-3.91,1.58l.21,1.12V1275a.63.63,0,0,0,.1.43.55.55,0,0,0,.41.13c.47,0,.92-.12,1.38-.11a1.22,1.22,0,0,1,1.14.64c.24.62-.38,1.24-1,1.52s-1.33.49-1.65,1.07a2.28,2.28,0,0,0-.2,1l-.19,4.34a12.63,12.63,0,0,0,.2,3.74,4.36,4.36,0,0,0,2.16,2.92l5.62,2.62,7.38,8.36-9.44,195.18c-1.16,24-2.32,48.16-.42,72.15.2,2.57.48,5.26,1.89,7.42,4.68,7.18,16.84,2,19.93-6s1.33-17.08,3.36-25.41c3.38-13.87,16.25-23,28.17-30.81,5.66-3.71,13.06-7.47,18.73-3.79,6.35,4.12,5.25,14.36,10.76,19.55,4.22,4,11.18,3.61,16.28.81s8.83-7.46,12.66-11.84a170.44,170.44,0,0,1,40-33.52c8.72-5.26,19.83-9.76,28.73-4.78,10.07,5.62,11,19.72,9,31.08-5.57,32.11-24.12,62.32-21.48,94.79l66.09-30.8c6-2.8,12.83-5.65,19.06-3.37,6.87,2.53,10.27,10.78,9.46,18.05s-4.88,13.75-9.13,19.72a230.58,230.58,0,0,1-26,30.57c-6.21,6.12-13,12.15-16.44,20.14s-2.64,18.72,4.49,23.75c3.19,2.25,7.16,3.08,10.54,5,10.64,6.11,12.29,20.65,11.61,32.91-.2,3.78,0,8.45,3.36,10.13,1.78.89,3.9.57,5.88.34,7.72-.92,18.22,2.48,17.5,10.22l.48,12a68.3,68.3,0,0,1-38.22,45.5c-4,1.74-8.67,3.71-9.69,7.93-1.09,4.57,2.82,8.59,5.55,12.42,7.4,10.37,7,24.14,9.62,36.61,4,19.28,15.54,36.06,22.62,54.43,18.78,48.77,2.22,108.88-38.9,141.14-4.19,3.29-8.67,6.39-11.77,10.72s-4.53,10.35-2,15c4.58,8.42,16.78,6.71,26.34,6a62.57,62.57,0,0,1,34,7.19c8.76,4.68,17.13,13.78,14.6,23.39-1.54,5.84-6.9,10.07-12.66,11.91s-11.93,1.69-18,1.5c-13.77-.42-27.9-.93-40.94,3.51-9.42,3.21-17.82,8.86-27.06,12.53-12.93,5.14-27.08,6.26-41,6.7-24.47.78-49.7-.5-72-10.54-27.21-12.24-47.15-36.05-66.1-59.09l-9.9-4.9c-5.13,21.42-6.37,43.69-12.5,64.84s-18.42,42.07-38.49,51.14c-10,4.53-21.18,5.75-31.84,8.51-21.11,5.46-40.17,16.92-60.8,24-9.7,3.33-20.3,5.68-30.15,2.82-6.14-1.78-11.87-5.54-18.26-5.53-12.28,0-19.8,13.09-30,19.92-12.07,8.08-29.27,7.92-38.73,19-5.4,6.29-7.06,15-12,21.7-9,12.09-28.62,13.7-40.33,4.17s-14.49-27.85-7.29-41.12Z"></path>
    <path data-name="4a" data-official="" data-plain="Calyx" data-loc="" d="M1222.13,2577.08c6.14-23.44-5.44-47.59-17.7-68.49-5-8.57-10.33-17.37-11.58-27.23-.74-5.88.56-12.78,5.67-15.8,3.43-2,7.7-1.79,11.67-1.49l25.42,1.95c3.68.28,7.45.55,11-.52,3.86-1.18,7.07-3.86,10.7-5.6,9.2-4.43,20.17-2.52,29.84.77s19.07,7.92,29.24,8.79c6.07.52,12.21-.33,18.27.28s12.43,3.07,15.49,8.35c3.27,5.65,1.79,13-1.63,18.57s-8.51,9.85-13,14.59c-15.36,16.24-23.72,37.71-31.37,58.71-4.07,11.18-8.11,22.9-6.68,34.71,1.2,10,6.19,19,8.71,28.75s1.85,21.53-6,27.78c-3.94,3.13-9,4.32-13.94,5.41-19.5,4.34-40.84,8.28-58.67-.72-5.41-2.73-10.63-7.25-11.25-13.27-1-9.73,9.82-16.18,14-25,4.58-9.85.4-21.35-3.79-31.38Z"></path>
    <path data-name="4b" data-official="" data-plain="Section of Flower" data-loc="" d="M1465.42,2601.61c2.15-10.34,3.78-22.57-3.58-30.13-5-5.15-12.69-6.36-19.52-8.64-16.24-5.43-29-17.83-41.17-29.94-15.58-15.55-32-33.38-33-55.37-.2-4.49.32-9.16,2.58-13.05,2.67-4.62,7.5-7.62,12.51-9.48,16.34-6.06,34.9-1.39,50.21,6.95,8.56,4.67,19.36,10.44,27.18,4.6,5.65-4.22,6.22-12.29,6.67-19.33,1.09-17.23,5.82-36.46,20.76-45.12,10.05-5.83,22.56-5.42,33.93-3,9.5,2,19.75,6.17,23.56,15.11,3.43,8,.52,17.52,2.89,25.95,3.49,12.42,19.92,19.12,31.1,12.68,3-1.74,5.6-4.21,8.8-5.58,4.46-1.91,9.54-1.46,14.32-.68a121.24,121.24,0,0,1,27.63,8c7.72,3.27,15.45,7.67,19.8,14.84,5.5,9.06,4.41,20.93-.18,30.48s-12.21,17.26-19.78,24.68c-10.55,10.34-21.4,20.58-34.06,28.18-8.53,5.12-17.82,9-25.86,14.87-18.92,13.78-29.08,38.64-25.25,61.73,1.53,9.22,5.11,18.35,3.9,27.62-1.55,12-11.15,21.78-22.33,26.28s-23.7,4.42-35.64,2.75c-5.7-.79-11.51-2-16.37-5.07s-8.68-8.39-8.52-14.14c.13-4.64,2.68-8.79,4.64-13a53.53,53.53,0,0,0,2.77-37.24Z"></path>
    <path data-name="4c" data-official="" data-plain="Ovary and Pistil" data-loc="" d="M1675.52,2563.17c5.19-8,10.6-16.86,9.85-26.4-.62-8-5.43-14.89-9.24-21.92-8.36-15.43-12.33-32.8-18.87-49.08-7.62-19-19-38.14-16-58.37.75-5,2.65-10.25,6.82-13.15,3.14-2.18,7.1-2.72,10.9-3.14,32.17-3.57,64.67-2.45,97-.36,6.36.41,12.83.89,18.77,3.2s11.37,6.76,13.3,12.83c1.37,4.32.86,9,.33,13.48l-3.18,27.43c-1.13,9.7-2.26,19.42-4.47,28.93-4.43,19-13.15,36.91-24.55,52.76-6.22,8.65-13.64,18.07-12.22,28.63.58,4.31,2.62,8.25,4.16,12.31a56.07,56.07,0,0,1-.38,40.36c-1.76,4.4-4.1,8.61-5.14,13.23-2.08,9.3,1.36,18.87,5,27.68,2,4.84,4.1,10.24,2.26,15.14-1.9,5.1-7.39,7.81-12.52,9.63a108,108,0,0,1-37.35,6.22c-7-.08-14.3-.91-20.48-4.29s-11.11-9.78-11.06-16.83c0-8.7,7.26-15.87,8.48-24.49,1.08-7.61-2.62-14.95-5.14-22.2a75,75,0,0,1-2.87-38.07Z"></path>
</svg>
