
<svg xmlns="http://www.w3.org/2000/svg" viewBox="0 0 2067 2991" id="illustration" preserveAspectRatio="xMidYMid meet">
    <title>Plantaginaceæ</title>
    <path data-name="1" data-official="Plantago major" data-plain="Greater Plantain" data-loc="England" d="M2038.49,1723.59c-7.4-13-17.25-24.83-21.59-39.12-3-9.92-3.26-20.69-7.73-30-13.07-27.37-52.84-28.31-74.18-49.88-11.8-11.92-16.77-29-27.2-42.15-18.35-23.08-50-30.14-79.36-33.34a554.89,554.89,0,0,0-106.58-1.32l35.16-43.49,10.45-9.5c17.93-26.88,24.81-59.5,29.92-91.41,24.39-152.19,17-307.51,7.55-461.35-.47-7.56-1.21-15.78-6.38-21.32-6.94-7.44-19.61-6.74-28-.95s-13.28,15.32-17.15,24.73c-24.42,59.43-19.37,126.19-17.19,190.4s-.14,132.75-36.08,186c-11.43,16.94-25.91,40.4-11.57,55l5.4,12.1a113.66,113.66,0,0,1-12.28,83.55c-16,27.32-42.68,46.47-68.7,64.56-10.8,7.5-21.64,15-33,21.67-6.5,3.84-13.25,7.46-20.59,9.21-12.39,2.94-25.34.32-37.85-2.06a992.94,992.94,0,0,0-120-15.33l53-47.21c8.71-7.76,17.52-15.62,24.12-25.24,12.08-17.61,16-40,29.17-56.88,7.33-9.4,17.12-16.52,25.74-24.76a133.75,133.75,0,0,0,40.49-103.55c-.74-11.89-3.1-23.62-4.35-35.46-2.75-25.94-.76-54.09-15.16-75.84l-4.65-20.35c-11-2.23-19.17-11.51-24.83-21.2s-9.73-20.41-16.92-29c-4.68-5.59-10.53-10.11-15.12-15.78-8.29-10.22-11.85-23.34-16.75-35.55a160.4,160.4,0,0,0-29.81-47.74c-4.53-5-9.45-9.83-12.54-15.83s-4.06-13.62-.49-19.36c2.58-4.18,7.18-6.82,9.67-11.06,6.07-10.37-3.07-22.56-7.26-33.83-5-13.5-2.65-28.48-.21-42.67l7.26-42.36c2.09-12.23,4.27-24.69,10.1-35.64,6.88-12.93,18.8-23.76,20.82-38.26,1.48-10.61-2.72-21.5-.66-32,2.13-10.82,10.73-20.49,9.16-31.4l2.5-9.92a80.27,80.27,0,0,0,.53-25l-1-14.11c4-15.44-9.43-29.19-16.82-43.32-9.25-17.68-9.29-38.55-9.54-58.5a1400.34,1400.34,0,0,0-31.51-278c-5-23.12-10.61-46.19-19-68.3-4.83-12.69-10.75-25.28-20.16-35.06s-22.9-16.44-36.38-14.87c-4.47.51-9,2-12.29,5-4.22,3.82-6.06,9.6-7.08,15.2-4.68,25.65,4.3,51.55,11.72,76.55,26.88,90.64,34.27,185.74,41.52,280,1.13,14.78,2.24,29.92-1.78,44.18-4.44,15.72-14.69,29-23.17,43-31.33,51.59-38.93,117-20.26,174.38,3.92,12,9,23.89,10.24,36.48,2.38,23.33-8.31,45.78-18.72,66.79l-6.91,14.09c4.13,5.2-1.71,13.39-8.33,13.95s-12.6-3.57-17.94-7.51l-43.73-32.22c-4.63-3.41-9.91-7-15.6-6.21-8.76,1.22-12.63,11.48-14.75,20.07q-3.71,15-7.4,29.93c-2.65,10.75-5.32,21.56-6.16,32.6-1.29,16.77,1.63,33.92-2.15,50.31a63.89,63.89,0,0,1-39,44.59c-1.52-96,12.71-192,7-287.84-1-17.39-2.74-34.85-7.47-51.62-3.32-11.75-9.78-24.58-21.7-27.24-9.47-2.11-19.36,3.37-25.15,11.15s-8.25,17.49-10.25,27c-9.12,43.44-11,88-12.85,132.39q-4.7,112.65-9.4,225.29l-7.38,17.87a420.45,420.45,0,0,1-4.93,48.55c-.7,4.37-1.59,9-4.55,12.25-2.61,2.89-6.47,4.32-10.26,5.22-21.32,5.08-45.34-4.59-57.19-23-5.53-8.59-8.46-18.54-12.7-27.83A107.65,107.65,0,0,0,958,1062.61c-11-8-23.78-14.15-32.67-24.51-9.48-11-13.53-25.86-14.67-40.37s.32-29.09.49-43.65c.38-34.53-6.59-68.67-13.53-102.49l1-17.45c-6.34-55.7,1.59-112-.82-168-.81-18.79-2.79-37.53-3.07-56.33-.74-50.56,10.78-100.46,24-149.27q25.66-94.87,60.09-187.1l2.34-13.74c7.32-42.68,28.37-82,36.4-124.55,3.2-17,4.29-34.24,4.78-51.49q.66-22.76-.08-45.52C1022,27.81,1019.7,15.16,1009.9,12c-6.15-2-12.78,1-18.13,4.57-18.13,12.24-29.29,32.44-37.06,52.89s-12.88,41.94-22.43,61.62c-17.81,36.66-50.49,65.84-61.62,105-3.58,12.62-4.75,25.77-7.08,38.67-11.42,63.08-50.38,118.94-59.44,182.39L802.92,471a1664.19,1664.19,0,0,0-4,468.84,223.22,223.22,0,0,0-121.71-53.69c-4.39-.49-8.93-.83-13.14.48-12.53,3.9-16.3,19.45-18.16,32.44q-11.86,82.91-30.34,164.69c-13.61-18-27.42-36.42-34.93-57.71-4.54-12.86-6.65-26.43-8.61-39.92q-6.87-47.19-11.74-94.65C550,790.59,546.32,688.34,521,590.13l-3.78-20.35c-9.76-75.47-24.23-152.6-64.82-217-8.8-14-19.26-27.63-33.85-35.37s-34.18-8.07-46.36,3.09c-11.51,10.55-13.52,28.14-11.07,43.57,3.16,19.9,12.29,38.29,18.36,57.51C391.3,459,391.47,499,401,537c3.72,14.79,8.84,29.22,12.26,44.08,14.91,64.63-2.74,134.71,19.33,197.25l3.43,16c4,17,4,34.66,5.5,52.07a299.88,299.88,0,0,0,23.22,92.37c4.92,11.44,10.58,22.65,13.72,34.7,2.76,10.58,3.88,22.38,11.4,30.31,5.27,5.55,12.95,8.31,18.25,13.83s7.62,13.12,9.78,20.44q6.75,22.79,13.51,45.59l4.77,4.39a381.23,381.23,0,0,0,48.21,64c4.06,4.35,8.45,8.75,14.07,10.7l4.95,5.64a33.54,33.54,0,0,0,8.27,6.23c3,1.42,6.22,2,9.24,3.26s6,3.4,6.86,6.54l.48,5.24c2.24,3.85,2.9,8.4,3.27,12.83,1.77,21.49-2.6,43-2.75,64.55l10.78,17.86c4,12.86,12.78,23.82,23.25,32.28s22.59,14.61,34.82,20.23,24.53,10.69,37.6,13.22,26.95,3.33,39.35-1.55c-3.61,10.06-13.62,16.81-24.08,19s-21.33.38-31.66-2.33a179.9,179.9,0,0,1-36.29-13.86c-5-2.59-10-5.44-15.51-7-4.24-1.2-8.68-1.58-12.93-2.76a19.36,19.36,0,0,1-10.77-8.14l-6.37,9.24a296.49,296.49,0,0,0,26.18,58.61c7.7,13.18,16.83,26.16,30,34,9.66,5.73,21.23,8.5,29.35,16.26,9.85,9.42,12.65,24.33,22,34.21,7.94,8.38,19.77,12.26,27.56,20.78a32.92,32.92,0,0,1,8,27.61,6.53,6.53,0,0,1-1.32,3.31c-1.29,1.44-3.45,1.61-5.38,1.55-13.4-.45-25.52-7.57-37.23-14.09-15.22-8.46-31-16.26-47.77-20.82s-34.84-5.75-51.6-1l-22.62,18.1c-.13,6.52,3.51,12.51,7.59,17.59a87.52,87.52,0,0,0,31.63,24.65c-5.75,2.42-12.39,1.92-18.31-.06s-11.24-5.36-16.51-8.7L604,1545.9c-4-2.53-8.08-5.14-10.92-8.92-1.82-2.43-3.06-5.24-4.7-7.8-3.66-5.69-9.16-9.89-14.6-13.9l-8-3.31a120.41,120.41,0,0,0-63.67,3.16l-26.08,12.93c-9.29-1.74-16.37-9.93-25.65-11.71l-9.69,1.87q-9.47,10.46-19.68,20.21l-4.33,3.67c-2.27,2.82-3.22,6.46-5,9.63A23.31,23.31,0,0,1,398,1562.6a27.28,27.28,0,0,1-17.65-1l-7.07-1.71a32.47,32.47,0,0,0-30.68,16.66l-1.57,5.29a30.85,30.85,0,0,1-19.3,6.67,36.76,36.76,0,0,1-19.67-5.93c-4.21-2.68-8.28-6.26-13.26-6.46l-5.73-1.91c-9-.9-18.8,1.33-25.15,7.82-2.76,2.81-4.86,6.38-8.26,8.38l-4.07,5.63c-7.31,145.66,72.09,232.7,63.19,267.37-54.1-55.76-88.57-201.31-82.8-249.41l-5-3.72c-9.26-1.53-17.74,5-24.83,11.09-2.42,2.09-5,4.26-8.07,5-4.18,1-8.45-.74-12.66-1.58a31,31,0,0,0-23.15,4.59l-4.75,5a77.34,77.34,0,0,0-8.06,9.37c-1.49,2.05-2.95,4.51-2.35,7a8.88,8.88,0,0,0,3.13,4.24,85.87,85.87,0,0,0,14.19,10.12c4,2.28,8.23,4.27,11.62,7.39a45.41,45.41,0,0,1,6.83,8.79c-16.09-.91-32.73-6.25-43.32-18.39-1.93-2.21-3.72-4.69-6.32-6l-8.48.15A85.94,85.94,0,0,1,58.23,1674c-10.58-.67-23.27-2.5-29.9,5.77-4,5-4.08,12.21-1.86,18.19s6.39,11,10.48,15.88c13.79,16.51,27.89,34,32.45,55,4.53,20.85-.79,43.5,7.11,63.32,7.22,18.09,24.18,30.49,33.62,47.52l3.67,7.29c.39,10.57,2.46,21.19,7.18,30.66s12.25,17.71,21.81,22.23l14.35,2a48.33,48.33,0,0,1,19,3.14,13.48,13.48,0,0,1,6.07,3.91c1.39,1.78,1.94,4.05,2.53,6.22a89.7,89.7,0,0,0,7.28,18.36l3.44,3a75.08,75.08,0,0,0,26.43,26.51l11.42,1.31c7.84-3.86,15.86-7.77,24.52-8.91a51.94,51.94,0,0,1,9.74-.26c10.41.61,20.85,3.59,29.33,9.67,8.21,5.89,14.18,14.35,19.49,22.94,2.12,3.43,4.19,6.95,7.09,9.76s6.79,4.85,10.81,4.57l12.64-3.15,10-4.62a9.43,9.43,0,0,1,3.23-1c2.5-.19,4.67,1.54,6.71,3a40.93,40.93,0,0,0,8.92,4.83c4.71,1.84,9.7,2.8,14.49,4.4s9.51,4,12.59,8l5.69,2.18a79.68,79.68,0,0,0,64.84-11.9c5-3.56,9.76-7.76,15.49-10.06,13.54-5.43,29.64.88,43.2-4.49,3-1.17,5.69-2.87,8.71-3.88,9.14-3,19.63.57,28.58-3l15.89-6.26a203.21,203.21,0,0,1,18.36-38.25q3.52-5.71,7.41-11.17a143.13,143.13,0,0,1,22.35-25.11c2.39-2.07,5.1-4.14,8.26-4.28a3.52,3.52,0,0,1,3.1,1.17c1.24,1.73-.37,4-1.71,5.66a51.92,51.92,0,0,0-5.92,10q-10,20.57-18.39,41.9c-1.24,3.15-2.47,6.45-2.16,9.82s2.68,6.8,6,7.17l5.26.6c19.92.06,40.18-1.53,58.76-8.73s35.43-20.6,43.2-38.94c2-4.84,3.46-10,6.08-14.51,4.92-8.55,13.55-14.17,21.72-19.72,11-7.45,21.71-15.42,30.57-25.28s15.81-21.79,18-34.86c1.48-8.63.87-17.5,2-26.19l3.18-5.66c44.71-12.4,94.12,2.78,130,32.21s59.51,71.51,74.78,115.32c3.46,9.95,6.55,20.08,8,30.51s1.37,21.31,2.93,31.87a100.62,100.62,0,0,0,20.31,47.25l3.76,6.38c-6.93,9.17-8.43,21.29-8.65,32.78s.56,23.24-2.73,34.26c-1.9,6.34-5.1,12.27-6.48,18.74-2.38,11.07.79,22.52,4.22,33.32l.92,5.32a30.47,30.47,0,0,1,0,14.94c-.87,3.47-2.35,6.77-3.08,10.28a48.83,48.83,0,0,0-.66,10.26c0,6.7.07,13.45,1.23,20.05.53,3.08,1.32,6.16,1.12,9.28-.39,6.3-4.6,11.59-7.89,17a65.45,65.45,0,0,0-8.68,23.31l-.33,5.66a39,39,0,0,0-4.7,17.28c-.11,3.27.2,6.55-.08,9.81-.6,7-3.9,13.55-7.74,19.46s-8.3,11.44-11.68,17.64-5.65,13.29-4.63,20.27l0,5.88c3.53,3.65,3.74,9.45,2.45,14.37s-3.82,9.44-5.1,14.35c-2.84,10.89.7,22.48-.93,33.61-1.1,7.53-4.51,14.48-7.44,21.5a181.63,181.63,0,0,0-14,68.72c-.05,7.61.52,15.65,4.76,22,2.9,4.32,7.28,7.46,10.35,11.66,5.86,8,6.19,18.62,7.65,28.44s5.27,20.67,14.42,24.51a11.39,11.39,0,0,0,6.5.89c4.26-.83,7.16-4.63,10.21-7.72,11.22-11.35,29.65-14.82,44.23-8.33l7,5.47c8,1.75,17.27,4.47,20.31,12.12,2.43,6.11-.16,13-.09,19.53a23.84,23.84,0,0,0,43.91,12.61c6.39-10,5.33-24.39,14.46-31.92,8.11-6.69,20-4.46,30.47-5.39,28.12-2.49,48.33-29,75.45-36.77,5.09-1.46,10.64-2.22,15.61-.4,6.9,2.52,11.13,9.31,16.63,14.19s15.07,7.39,19.53,1.55c3.12-4.08,1.92-10.07,4.16-14.69,1.94-4,6.08-6.31,9.61-9,12.89-9.79,19.16-26.38,20.12-42.54s-2.74-32.19-6.41-47.95c-3.85-16.55-8-33.73-18.78-46.86-9-10.94-22.46-19-26.61-32.54-2-6.63-1.51-13.73-.9-20.64q2.71-30.43,7.12-60.7l-11.37-15.37A18.72,18.72,0,0,0,1278,2347a7.15,7.15,0,0,1-2-1.38,5.62,5.62,0,0,1-1-2q-3.18-9.1-5.69-18.42l6.74-.13a2.34,2.34,0,0,0,1.36-.31,2.1,2.1,0,0,0,.66-1.31c.85-4.21-1.11-8.43-3.12-12.22a211.45,211.45,0,0,0-14.29-23.08l-2-4.37c-3.25-4.65-4.14-10.47-5.37-16a111.27,111.27,0,0,0-14.07-34.48l-2.87-2.82c-.6-1.26-2.68-.45-3.81-1.26s-.78-2.17-.58-3.35a18.39,18.39,0,0,0-.72-8.71l.64-9.53c-1.23-41.53-27.68-77.59-54.06-109.69-3.5-4.25-7.07-8.58-9.14-13.69-3.56-8.8-2.23-18.86.77-27.86,5.11-15.33,14.68-28.7,23.9-42a1529.56,1529.56,0,0,0,81.65-131l10.68-16.62a396.4,396.4,0,0,0,35.73-117.52c.59-4.18,1.18-8.56,3.63-12,2.17-3,5.54-5,8.8-6.8l128.81-72.28c-.3,27.89.09,58,16.76,80.37,12.13,16.27,31.14,25.85,45.66,40,18.93,18.5,33.65,46.72,60,48.67,16.8,1.24,32.6-9.39,49.45-9.09,25,.43,45,24.38,70,24.43,9.59,0,19-3.59,28.57-2.8,12.51,1,23.48,9.42,36,10.57,9.15.84,18.14-2.28,27.23-3.71,30.2-4.75,61.09,9.29,91.23,4.12,37.67-6.45,64.42-40.77,100.31-53.93,20.84-7.65,47.51-10.43,56.78-30.61C2050.87,1752.7,2045.89,1736.57,2038.49,1723.59ZM1259,2321.77a.76.76,0,0,1,.39-.16,3.67,3.67,0,0,1,2.81.17,3.29,3.29,0,0,1,.79.83,34.28,34.28,0,0,1,6.74,19.18,3.85,3.85,0,0,1-.42,2.25,1.41,1.41,0,0,1-2,.46l-2.7-.18a9.35,9.35,0,0,1-3.6-3.76,10,10,0,0,1-.6-2.93l-1.55-15.21A.77.77,0,0,1,1259,2321.77Zm-39.24-11.84c.3-.9,1.29-1.32,2.07-1.86a10.46,10.46,0,0,0,3-4.25l3.38-2.21c4.12.08,8.3.17,12.23,1.39s7.66,3.73,9.37,7.48a22.1,22.1,0,0,1,1.48,7.84q.6,9.49,1.22,19l-2.34,3a46.26,46.26,0,0,1-17.08-11.71l-2.3-3.07a19.79,19.79,0,0,1-5.64-6.23c-1.15-2-2-4.27-3.57-6C1220.58,2312.38,1219.28,2311.23,1219.71,2309.93Z"></path>
    <path data-name="1a" data-official="" data-plain="Flower" data-loc="" d="M148,2850.88c.58-3.06.95-6.77-1.43-8.79-1.64-1.38-4-1.41-6-2.18-3.74-1.44-6-5.47-6.39-9.46s.71-7.95,2-11.76a12.9,12.9,0,0,0,1-5.55c-.82-6.43-10.8-8.71-11.24-15.17-.33-5,5.18-8.11,7.39-12.56,1.85-3.73,1.25-8.19.23-12.22-2.45-9.76-7-20.22-2.9-29.39,3.29-7.3,11.17-11.3,18.77-13.78a95.45,95.45,0,0,1,16.18-3.76c6.26-.9,13.3-1,18.11,3.16,2.27,1.95,3.77,4.63,5.22,7.25,5.55,10,11.28,20.81,10.09,32.18-.39,3.74-1.53,7.4-1.63,11.15s1.08,7.88,4.25,9.91c1.34.86,2.91,1.27,4.31,2,5.22,2.83,6.56,10.89,2.52,15.25-1,1.09-2.29,2-2.95,3.31-1.59,3.16.95,6.68,2.12,10a13.43,13.43,0,0,1-3.52,14.06c-1.76,1.61-4,2.78-5.2,4.84a12,12,0,0,0-1.24,5.29,152.91,152.91,0,0,0,6.73,56.9c2.59,8.19,5.76,17.57,1.22,24.85-3.71,6-11.27,8.11-18.19,9.28a152.65,152.65,0,0,1-37.83,1.66c-2.26-.19-4.66-.47-6.45-1.87-3.37-2.64-3.07-7.75-2.4-12,1.05-6.61,2.24-13.35,5.43-19.25,2.27-4.19,5.49-7.83,7.46-12.17,4.78-10.52,1.44-22.76-2-33.81Z"></path>
    <path data-name="1b" data-official="" data-plain="Seed-vessel" data-loc="" d="M254.72,2883.74c-7-8.14-6.94-20-6.52-30.7.31-7.95.64-16,3-23.61,3.21-10.32,10.16-20.26,8.23-30.89-1.06-5.83-4.79-11.16-4.57-17.09a13.15,13.15,0,0,1,20.65-10.33c4.36,3,6.48,8.35,7.65,13.52s1.68,10.56,3.85,15.39c3.2,7.13,9.62,12.2,14.31,18.44a44.14,44.14,0,0,1,8.53,30.77c-.51,4.83-1.82,9.57-1.88,14.42-.09,6.29,1.91,12.67.47,18.8-.79,3.38-2.59,6.45-3.54,9.8-2.63,9.17,1.32,18.82,1.85,28.35a23.94,23.94,0,0,1-1.75,11.25,19.23,19.23,0,0,1-6.45,7.61c-6.61,4.67-15.17,5.31-23.25,5.79l-14.35.86c-4.66.28-9.43.55-13.92-.72s-8.75-4.38-10.09-8.85c-2.16-7.17,3.51-14,7.78-20.18a64.52,64.52,0,0,0,9.44-20.59Z"></path>
    <path data-name="1c" data-official="" data-plain="Seed" data-loc="" d="M342.62,2872.66a21.95,21.95,0,0,1,17.2-29.77c5.6-.82,11.92.91,15.1,5.6,3.42,5.05,2.38,11.8.83,17.69s-3.48,12.19-1.43,17.93c2.35,6.57,9.29,10.57,11.92,17,3.5,8.61-2.22,18.78-10.35,23.29s-17.88,4.72-27.17,4.47c-4-.11-8.21-.33-11.76-2.25-6.24-3.37-8.84-11.31-8-18.35s4.38-13.44,7.86-19.62l4.09-7.24Z"></path>
    <path data-name="1d" data-official="" data-plain="Seed magnified" data-loc="" d="M400.27,2889.29c3.33-4.56.19-10.78-1.78-16.08a36.21,36.21,0,0,1-2.28-13.07,28.78,28.78,0,0,1,2.82-12.53c4.38-8.75,14.41-14.14,24.16-13.52s18.81,6.95,23.26,15.65a33.11,33.11,0,0,1,.35,28.35c-1.37,3-3.17,5.88-4.08,9.07s-.77,7,1.44,9.44c1.55,1.75,3.85,2.59,5.91,3.7a23.67,23.67,0,0,1,11.83,22.64,25.3,25.3,0,0,1-15.6,20.47c-4.25,1.7-8.85,2.23-13.41,2.62a247.88,247.88,0,0,1-28.19.82c-5.5-.15-11.81-.92-14.9-5.48-2.44-3.59-2-8.46-.44-12.52s4-7.74,5.46-11.83c2.2-6.17,2-12.9,1.72-19.44Z"></path>
    <path data-name="2" data-official="Plantago coronopus" data-plain="Star of the Earth" data-loc="England" d="M1022.9,2293.77c-11.07,7.19-27.26.16-38.28,7.43-3.47,2.28-6,5.73-8.33,9.14-4.13,5.95-8.27,12.58-7.82,19.8a11.75,11.75,0,0,0,2.18,6.45c3.43,4.48,10,4.73,15.61,4s11.69-1.84,16.55,1c6.23,3.66,7.43,12.75,4.27,19.25s-9.47,10.86-15.81,14.32a9.83,9.83,0,0,0-3.77,2.88c-2.54,3.82.71,10.37-3.12,12.87l-5.94,8.12c-9.77,7.09-24.05,2.59-34.93,7.83-4.77,2.3-8.48,6.29-12.06,10.2-4,4.39-8.29,9.27-8.68,15.22-.4,6.18,3.55,11.83,8.08,16s9.85,7.67,13.65,12.56,5.75,12,2.53,17.28c-4.66,7.64-15.84,6.6-24.64,5a316.94,316.94,0,0,0-33.19-4.38c-9.47-.74-20.07-.68-27.06,5.75s-7.91,17.64-4.61,26.59c2.74,7.43,7.77,16.24,2.73,22.35-6.45,7.84-22.84,1.5-27.19,10.68-1.7,3.6-.33,7.92,1.71,11.34s4.79,6.48,6.1,10.24c2.86,8.23-1.76,17.08-1.86,25.79-.07,6.94,2.75,13.56,3.93,20.41s.15,15-5.57,18.91c-3.27,2.24-7.4,2.66-11.31,3.29a84,84,0,0,0-27.25,9.42l-8.16,3.2c-4.17-2-5.66-7-7.41-11.29s-5.37-8.89-9.91-8.07c-2.34.43-4.15,2.22-6.18,3.45a15.53,15.53,0,0,1-16.18-.58,18.62,18.62,0,0,1-8-14.39c-.26-4.43.93-8.89.35-13.28a16.82,16.82,0,0,0-6.65-11.19c-5.63-4.12-13.36-4.39-19-8.43-2.73-1.95-4.82-4.65-7.34-6.85s-5.81-4-9.11-3.4l-7.39-2.54c-4.51-.17-8.42-3.52-10.45-7.54s-2.5-8.64-2.74-13.14a149.15,149.15,0,0,1,.36-20.71c.22-2.53.45-5.29-1-7.4s-4.07-2.94-6.57-3.35c-9.87-1.6-21.52.84-28.7-6.12-5.33-5.18-5.74-13.64-4.26-20.92s4.48-14.3,4.75-21.73a9.2,9.2,0,0,0-1-5.16c-1.56-2.54-4.86-3.32-7.84-3.6-12.24-1.14-24.67,2.34-36.82.45a43,43,0,0,1-33.3-27.93l-3.11-8.7c-4.54-.61-7.17-5.85-11.58-7.07-2.48-.69-5.14,0-7.48,1.07-3.83,1.73-7.17,4.39-10.86,6.41s-8,3.44-12.07,2.39a6.94,6.94,0,0,1-3.15-1.65,7.93,7.93,0,0,1-1.64-2.64c-1.08-2.58-1.54-5.37-2.49-8-.86-2.34-2.11-4.52-3-6.83-3.39-8.38-2.47-17.8-1.5-26.78l1.11-6.18c.24-5.82,4.37-10.83,9.16-14.15s10.32-5.39,15.35-8.33c1.7-1,3.48-2.27,3.91-4.19.56-2.51-1.39-4.8-2.9-6.89-3.57-4.89-5.16-12-1.53-16.88a17.41,17.41,0,0,1,5.61-4.4,64.87,64.87,0,0,1,26.78-7.94c5.17-.37,10.7-.2,15.09-3a5.27,5.27,0,0,0,2.17-2.29,6.34,6.34,0,0,0,.09-3.46A80.66,80.66,0,0,0,573,2274.14c-3.31-5.24-7.22-10.09-10.28-15.48l-3.93-3.14a35.43,35.43,0,0,1-22.42-25.39L534.2,2224c1.6-6.2-1.54-12.64-5.43-17.72s-8.69-9.61-11.26-15.47c-1.92-4.36-2.47-9.2-2.69-14-.29-6.17,0-12.45,1.79-18.35,2.91-9.39,9.77-17.32,18.22-22.33a54.73,54.73,0,0,1,28.24-7.12c4.55,0,9.26.59,13.2,2.86,5.22,3,8.4,8.56,10.8,14.08a93.09,93.09,0,0,1,5.33,16.28c.89,3.92,1.65,8.15,4.44,11.05,4.8,5,14.07,4.46,17.62,10.43l5.88,6.76,41.58,40a2.77,2.77,0,0,0,1.34.86c1.17.2,2-1.07,2.6-2.09,2.36-4,6.28-6.82,9.34-10.32,9.11-10.45,9.74-25.62,9.54-39.48s-.45-28.82,7.53-40.15c4.28-6.08,10.87-11,12.25-18.34,1.31-6.9-2.48-13.6-5.8-19.79-6.05-11.31-11-24.64-6.74-36.73,3.85-10.87,14.81-18.23,26.22-19.92s23.09,1.62,33.31,7c6.29,3.3,12.36,7.56,16,13.66,3.45,5.78,4.43,12.71,4.51,19.44.16,12.34-2.42,24.56-2.87,36.9s1.58,25.48,9.59,34.87c1.09,1.28,2.51,2.57,4.18,2.46,1.42-.1,2.55-1.18,3.55-2.19q10-10.28,19.36-21.16c6.31-7.36,14.81-15.74,24.11-13,11.14,3.28,12.47,19.3,21.83,26.19,10.22-6.74,11.77-21.66,21.06-29.62,3.86-3.31,8.78-5.14,13.73-6.36a69.21,69.21,0,0,1,44.5,4.05l4.8,7.08c6.73,11.21,10.92,24.46,8.9,37.38s-11.25,25.13-24,28.12c-4.55,1.07-9.32,1-13.85,2.12s-9.09,4-10.22,8.57a16,16,0,0,0-.11,5.6c.26,2.35.72,4.89,2.47,6.47,2.23,2,5.6,1.73,8.59,2.07A18.5,18.5,0,0,1,922.33,2225c.44,1,.86,2.19,1.86,2.7a4.36,4.36,0,0,0,3.26-.17,101.56,101.56,0,0,1,38.11-4.22c4.3.35,8.69,1,12.88,0,7.26-1.73,12.48-7.86,18.6-12.14a40.38,40.38,0,0,1,27.77-6.91l9.35,5.43c.94,4.25,2.21,8.47,3.52,12.59l.92,5.32a30.47,30.47,0,0,1,0,14.94c-.87,3.47-2.35,6.77-3.08,10.28a48.83,48.83,0,0,0-.66,10.26c0,6.7.07,13.45,1.23,20.05Z"></path>
    <path data-name="3" data-official="Plantago squarrosa" data-plain="Leafy-spiked Plantain" data-loc="Egypt" d="M353.74,1556a171.94,171.94,0,0,0-68.61-93.43,96.32,96.32,0,0,0-17.05-9.4c-28.75-11.78-62-2.47-89.22,12.52-6.44,3.55-12.81,7.49-17.67,13-8.44,9.59-11.33,22.74-13.63,35.31q-4.63,25.35-7.68,51c-2.46,20.61-4,42.26,3.94,61.43l3.69,8.1a77.34,77.34,0,0,0-8.06,9.37c-1.49,2.05-2.95,4.51-2.35,7a8.88,8.88,0,0,0,3.13,4.24,85.87,85.87,0,0,0,14.19,10.12c4,2.28,8.23,4.27,11.62,7.39a45.41,45.41,0,0,1,6.83,8.79c-16.09-.91-32.73-6.25-43.32-18.39-1.93-2.21-3.72-4.69-6.32-6l-8.48.15-11.3-4.49c-10.24-5-18-14.23-22.91-24.53s-7.08-21.7-8.19-33A189.85,189.85,0,0,1,100,1477.13l9.74-8.78a454.11,454.11,0,0,1,79.33-47.7c13.83-6.5,28.23-12.37,43.43-14,9-1,18-.41,27,.14l70.67,4.33c-10.47-17.63-28.78-28.93-42.58-44.08-6.89-7.57-12.64-16.08-18.37-24.56l-34.61-51.27-6.66-5.59a165.63,165.63,0,0,1-22-42.47c-5.49-15.91-8.82-33.18-19.36-46.32-6.91-8.61-16.38-14.72-25.59-20.82-25.76-17.08-51.2-35.81-69.13-61-3.59-5-6.79-12.22-2.8-17,2.41-2.86,6.5-3.48,10.22-3.72a118,118,0,0,1,81.6,26.1l9.53,7.66c-4.87-25.81-9.82-51.87-20.24-76s-26.95-46.45-50-59c-11.25-6.12-26-13-25.49-25.76.26-6.75,5.34-12.61,11.45-15.48s13.1-3.22,19.85-2.91c39.75,1.8,77.7,26.28,95.73,61.76,7.61,15,11.94,31.73,21.85,45.3,8.92-18,29.64-29.33,49.58-27.17,8,.87,17.61,3.19,23.06-2.77,5-5.45,2.81-14,.71-21.1-19.22-64.56-7.34-133.86,6.19-199.85,3.33-16.2,7.19-33.27,18.55-45.29,2.61-2.77,6-5.36,9.81-5,2.49.2,4.69,1.64,6.61,3.23,15.5,12.84,17.44,35.56,17.55,55.69.08,15.48-.22,31.15-4.14,46.13-5.71,21.86-19.07,42.58-16.93,65.07.46,4.88,2.05,10.22,6.33,12.61,4.44,2.49,10.19.76,14.22-2.36s6.94-7.43,10.58-11c13.39-13.09,37.12-13.53,51-.93,13,11.79,16.8,31.87,31.2,41.86l10.66,8.3c2.76,10.58,3.88,22.38,11.4,30.31,5.27,5.55,12.95,8.31,18.25,13.83s7.62,13.12,9.78,20.44q6.75,22.79,13.51,45.59l4.77,4.39a381.23,381.23,0,0,0,48.21,64c4.06,4.35,8.45,8.75,14.07,10.7l4.95,5.64a33.54,33.54,0,0,0,8.27,6.23c3,1.42,6.22,2,9.24,3.26s6,3.4,6.86,6.54l.48,5.24-16.54,5.52c-34,10.1-62.69,36.58-75.48,69.64a7.32,7.32,0,0,0-.7,4.06c.46,2.14,2.76,3.46,4.94,3.56a16.32,16.32,0,0,0,6.32-1.48,133.44,133.44,0,0,1,73.81-5.48l8.17,1.56,10.78,17.86c4,12.86,12.78,23.82,23.25,32.28s22.59,14.61,34.82,20.23,24.53,10.69,37.6,13.22,26.95,3.33,39.35-1.55c-3.61,10.06-13.62,16.81-24.08,19s-21.33.38-31.66-2.33a179.9,179.9,0,0,1-36.29-13.86c-5-2.59-10-5.44-15.51-7-4.24-1.2-8.68-1.58-12.93-2.76a19.36,19.36,0,0,1-10.77-8.14l-12.42-3.78-27.25-22c-6.64-5.36-14.43-11-22.86-9.65-11,1.81-16.26,14.08-20.4,24.41a236.17,236.17,0,0,1-44.71,71.15c-8.24,9-17.24,17.46-23.87,27.7s-10.75,22.87-7.89,34.74a9.37,9.37,0,0,0,1.83,4.1c3.44,3.91,9.8,1.27,14.21-1.49,14.17-8.85,29.24-16.86,45.67-19.88s34.54-.43,47.5,10.11c15.82,12.87,21,34.41,25.31,54.35l-4.35,17.89c-.13,6.52,3.51,12.51,7.59,17.59a87.52,87.52,0,0,0,31.63,24.65c-5.75,2.42-12.39,1.92-18.31-.06s-11.24-5.36-16.51-8.7L604,1545.9c-4-2.53-8.08-5.14-10.92-8.92-1.82-2.43-3.06-5.24-4.7-7.8-3.66-5.69-9.16-9.89-14.6-13.9l-8-3.31a120.41,120.41,0,0,0-63.67,3.16l-26.08,12.93c-9.29-1.74-16.37-9.93-25.65-11.71l-9.69,1.87q-9.47,10.46-19.68,20.21l-4.33,3.67c-2.27,2.82-3.22,6.46-5,9.63A23.31,23.31,0,0,1,398,1562.6a27.28,27.28,0,0,1-17.65-1l-7.07-1.71Zm-19.83,15.83c-10.5-10.52-21.44-21.35-35.35-26.59-13.31-5-28.53-4.34-41.67,1.13a67.9,67.9,0,0,0-31.52,27.73c-5.13,8.51-8.58,18.53-7,28.33l2.57,7.93,5,3.72c-5.77,48.1,28.7,193.65,82.8,249.41,8.9-34.67-70.5-121.71-63.19-267.37l4.07-5.63c3.4-2,5.5-5.57,8.26-8.38,6.35-6.49,16.11-8.72,25.15-7.82l5.73,1.91c5,.2,9.05,3.78,13.26,6.46a36.76,36.76,0,0,0,19.67,5.93,30.85,30.85,0,0,0,19.3-6.67l1.57-5.29Zm233,740.49c5.17-.37,10.7-.2,15.09-3a5.27,5.27,0,0,0,2.17-2.29,6.34,6.34,0,0,0,.09-3.46A80.66,80.66,0,0,0,573,2274.14c-3.31-5.24-7.22-10.09-10.28-15.48l-3.93-3.14a35.43,35.43,0,0,1-22.42-25.39L534.2,2224c1.6-6.2-1.54-12.64-5.43-17.72l-9.58,4.82c-18.3-10.05-40.57-9.5-61.16-6-8.83,1.5-17.78,3.56-25.31,8.39-6.55,4.21-13.11,10.74-20.74,9.14-7.45-1.56-11-10-12.62-17.48a123.78,123.78,0,0,1-.07-52.3,7,7,0,0,1,1.24-3.1c1.6-1.9,4.54-1.64,7-1.23a483.35,483.35,0,0,0,91.8,6.61l17.29,3.39c2.91-9.39,9.77-17.32,18.22-22.33a54.73,54.73,0,0,1,28.24-7.12c4.55,0,9.26.59,13.2,2.86l7.62-11.26c13.17-5.19,21.28-18.24,28.14-30.62,11.66-21,17.34-42.64,17.34-64.44l-1.45-12-5.26-.6c-3.36-.37-5.72-3.8-6-7.17s.92-6.67,2.16-9.82q8.36-21.3,18.39-41.9a51.92,51.92,0,0,1,5.92-10c1.34-1.65,2.95-3.93,1.71-5.66a3.52,3.52,0,0,0-3.1-1.17c-3.16.14-5.87,2.21-8.26,4.28a143.13,143.13,0,0,0-22.35,25.11q-3.89,5.46-7.41,11.17A203.21,203.21,0,0,0,585.32,2016l-17.46,14.35c-38.19,45.73-101.67,68.84-160.31,58.36a12.14,12.14,0,0,1-5.37-1.89c-6-4.52-.31-14.34-2.74-21.42l3.48-12c-3.08-4-7.81-6.39-12.59-8s-9.78-2.56-14.49-4.4a40.93,40.93,0,0,1-8.92-4.83c-2-1.45-4.21-3.18-6.71-3a9.43,9.43,0,0,0-3.23,1l-10,4.62L334.33,2042c-4,.28-7.91-1.77-10.81-4.57s-5-6.33-7.09-9.76c-5.31-8.59-11.28-17.05-19.49-22.94-8.48-6.08-18.92-9.06-29.33-9.67a51.94,51.94,0,0,0-9.74.26c-8.66,1.14-16.68,5-24.52,8.91l-11.42-1.31a75.08,75.08,0,0,1-26.43-26.51l-3.44-3a89.7,89.7,0,0,1-7.28-18.36c-.59-2.17-1.14-4.44-2.53-6.22a13.48,13.48,0,0,0-6.07-3.91,48.33,48.33,0,0,0-19-3.14l-14.35-2-3.18,9.11c-15.78,18-25.92,42.73-20.2,66,3.22,13.06,11.07,24.47,15.81,37a82.71,82.71,0,0,1-3.81,66.14c-2.24,4.35-4.91,8.6-5.88,13.4s.23,10.45,4.33,13.13c2.4,1.58,5.4,1.9,8.28,2,23.48.7,45.63-11.43,63.49-26.69a184,184,0,0,0,46.43-60.57c4.08-8.58,9.81-19,19.31-18.55,6.12.31,10.84,5.34,14.56,10.21,10,13.07,18.05,27.85,30.3,38.83,5.45,4.88,11.65,8.94,16.61,14.31s8.67,12.59,7.58,19.82c-29.44,2.24-59.87,5.79-85.21,20.94-13.69,8.18-25.25,19.39-37.71,29.35s-26.45,18.91-42.21,21.32c-12.42,1.89-25.25-.4-37.55,2.11-7.7,1.57-15.7,5.8-18.12,13.27-2.23,6.89,1.13,14.65,6.55,19.47s12.51,7.25,19.51,9.16a193.11,193.11,0,0,0,31.56,5.82c9.22.92,18.69,1.14,27.62-1.37,9.24-2.61,17.42-8,25.06-13.84a227.14,227.14,0,0,0,25.39-22.53c9.38-9.68,18.52-20.61,31.29-24.92,17.47-5.89,36.25,2.25,52.87,10.23l3.16,9.32a142.52,142.52,0,0,0,26.66,54.58c-25.32.09-47.87,17.45-62,38.45s-21.68,45.62-31,69.17a465,465,0,0,1-23.63,50.65c-7.22,13.34-15.21,26.59-18.4,41.42-1.21,5.58-1.62,11.74,1.26,16.67,3.42,5.88,10.88,8.5,17.66,7.85s13-4,18.65-7.77c21.15-14,37.58-34.13,51.23-55.51,6.21-9.73,11.95-19.87,15.57-30.83,4.07-12.32,5.34-25.36,7.26-38.19,1.66-11.11,3.81-22.14,6-33.17.77-4,1.89-8.42,5.42-10.38,4.94-2.75,10.83,1.16,15,4.95,6.42,5.8,13,12,21.27,14.47,4.15,1.23,8.56,1.44,12.69,2.74,10.11,3.18,17.13,12.26,22.56,21.36a162.12,162.12,0,0,1,15.61,34.94l-6,.15-8.63,1.5a123.88,123.88,0,0,0-75.75,27.85c-4.5,3.69-9.1,8.63-8.43,14.41a11.78,11.78,0,0,0,4.42,7.52c6.37,5.21,15.87,4.44,23.46,1.26s14.21-8.37,21.78-11.62c13.42-5.77,28.62-5,43.2-4.08,1.82.11,3.76.26,5.2,1.38s2.15,3.27,2.65,5.18l5.23,19.92c1.43,5.45,2.87,11.21,1.36,16.64-3.36,12.08-19.86,18-20.8,30.48l-11.59,10A369.59,369.59,0,0,0,387.53,2544c-6.29,9.92-12.25,20.65-12.81,32.37s6,24.59,17.33,27.56c10.15,2.65,22.11-2.75,30.89,3,11.05,7.23,7.08,24.45,12.69,36.39,3.83,8.14,12.12,13.53,15.91,21.69,2.76,5.92,3,13,7,18.21,4.72,6.18,13.23,7.82,19.72,12.12,8,5.26,12.5,14.24,16.86,22.73s9.3,17.36,17.64,22,21,2.84,24.63-6c4.16-10.07-5.26-20.63-5.67-31.51-.77-20.27,28.44-31.56,28.65-51.84.11-10.23-7.37-18.72-11.56-28.06S546,2599.12,556,2597c5.15-1.09,10.68,1.7,15.67,0,6.76-2.29,8.41-11.76,5.24-18.16s-9.41-10.58-15-15.06c-3.21-2.58-6.48-5.77-6.86-9.87-.66-7.24,7.74-11.85,14.95-12.84s15.42-.74,20.52-5.93c6.81-6.92,3.2-19.17-3.92-25.76S570,2499.62,562,2494c-18-12.64-25.12-35.39-31.15-56.49l-9.67-10.41a6.94,6.94,0,0,1-3.15-1.65,7.93,7.93,0,0,1-1.64-2.64c-1.08-2.58-1.54-5.37-2.49-8-.86-2.34-2.11-4.52-3-6.83-3.39-8.38-2.47-17.8-1.5-26.78l-6.86-1.48-15.37-4.23a9.76,9.76,0,0,1-3.93-1.73c-2.56-2.19-2.23-6.15-2-9.51a55.14,55.14,0,0,0-3.55-23.89c-8.07-20.92-29-37.76-27.85-60.15a32.66,32.66,0,0,1,56.33-20.83c4.24,4.47,7.11,10,10.23,15.34a168.11,168.11,0,0,0,25.08,32.7Z"></path>
    <path data-name="4" data-official="Littorella lacustris" data-plain="Plantain Shore-weed" data-loc="England" d="M1251.24,2318.32q.6,9.49,1.22,19l-2.34,3a46.26,46.26,0,0,1-17.08-11.71l-2.3-3.07a19.79,19.79,0,0,1-5.64-6.23c-1.15-2-2-4.27-3.57-6-1-1-2.25-2.15-1.82-3.45.3-.9,1.29-1.32,2.07-1.86a10.46,10.46,0,0,0,3-4.25l3.38-2.21c4.12.08,8.3.17,12.23,1.39s7.66,3.73,9.37,7.48A22.1,22.1,0,0,1,1251.24,2318.32Zm11.7,4.29a3.29,3.29,0,0,0-.79-.83,3.67,3.67,0,0,0-2.81-.17.76.76,0,0,0-.39.16.77.77,0,0,0-.13.65l1.55,15.21a10,10,0,0,0,.6,2.93,9.35,9.35,0,0,0,3.6,3.76l2.7.18a1.41,1.41,0,0,0,2-.46,3.85,3.85,0,0,0,.42-2.25A34.28,34.28,0,0,0,1262.94,2322.61Zm556-265.43c-3.8,9.44-9.85,17.84-13.67,27.27-4.17,10.32-5.55,21.51-6.89,32.56L1786,2219l-3.47,7.24c-.78,9.77-9.23,18.39-7.57,28,.71,4.13,3.22,7.71,5.94,10.89,1.88,2.21,4,4.7,3.69,7.57s-3.28,5-6.09,6a26,26,0,0,1-19.37-.54l-3.08.81c-1,.53-1,1.94-1.72,2.78a2.81,2.81,0,0,1-2.65.74,9.58,9.58,0,0,1-2.63-1.14,43.54,43.54,0,0,0-10.26-4,30.67,30.67,0,0,1,8.12,12.66l-4.07,9.56a62.71,62.71,0,0,1-17.25,24.05c-2.31,2-4.77,3.8-6.92,5.94-2,2-3.69,4.22-5.75,6.12a12.68,12.68,0,0,1-7.37,3.66c-1.4.1-3-.09-4.06.77s-1.26,2.21-1.62,3.45c-1.29,4.35-4.83,7.64-8.41,10.43s-7.46,5.4-10,9.2l-2.21,3.41c.9,4.44,1.76,9.25-.18,13.35-.67,1.43-1.69,2.77-1.78,4.35s.85,3.22,1.78,4.63a24.71,24.71,0,0,0,4.65,5.76c2.92,2.41,7.17,3.77,8.37,7.35l.7,2.9a42.1,42.1,0,0,1-5.8,29l-3.24,3.09c-5.22,2.86-10.7,5.8-16.65,5.91a28.37,28.37,0,0,1-7.81-1.13,12.58,12.58,0,0,1-5.08-2.27l-4.33-4.93a44.37,44.37,0,0,1,.79-32.57l4.93-6.63a23.45,23.45,0,0,1,7.49-10.44l-.69-3.94a9.89,9.89,0,0,0-8.16-3.14l-3.77,0c-3.35,1-5.94,3.63-8.37,6.15a27.69,27.69,0,0,0-3.9,4.68l2.37,4.33a10.31,10.31,0,0,1-.63,8.33,40.5,40.5,0,0,1-4.86,7.09,81.31,81.31,0,0,0-8.88,14.5l-3.45,4.26c-2.18,4.77-4.1,10-8.34,13.11s-9.82,3.3-14.68,5.2c-3,1.16-6,3.45-6.11,6.63-.19,4.35,4.7,6.8,8.27,9.29a23,23,0,0,1,8.72,11.91l-3.54,7.46c-3.59,17.9-16.16,32.55-29.15,45.38-2.36,2.33-5,5.63-3.49,8.61a11.4,11.4,0,0,0,2.1,2.51c3.42,3.65,4.53,8.82,5.51,13.72,7.43,37.2,14.69,75,11.89,112.81-.8,10.76-2.53,21.79-8.11,31-6,9.94-16.28,17-27.54,19.89a54.71,54.71,0,0,1-34.12-2.92c-3.23-1.34-6.51-3-10-2.86-5.13.2-9.22,4.14-13.89,6.26-10.83,4.9-25.25.21-34.16,8.07-2.36,2.09-4,4.86-6.36,7-7.43,6.79-20.29,4.75-27-2.77s-7.84-18.79-5.13-28.49c1.23-4.42,3-9.68,0-13.14-1.4-1.62-3.55-2.35-5.31-3.57-6.3-4.36-6.47-13.45-6-21.1.59-9.25,1.26-18.78,5.34-27.1,3.79-7.72,10.33-14,13.23-22.06,1.46-4.07,1.94-8.45,3.41-12.52,4.13-11.42,15.2-18.59,25.56-24.91l-.46-6.58c-9.5-11.25-18-23.51-23.49-37.19s-7.7-28.91-4.52-43.29c.57-2.6,1.33-5.24,1-7.9-.32-3-1.94-5.71-3.47-8.32a239.89,239.89,0,0,1-30.15-85.71,10,10,0,0,0-1.46-4.59,9.29,9.29,0,0,0-3.47-2.5c-30.76-15.39-66.43-16.58-100.81-17.46l-12.35-7.74A18.72,18.72,0,0,0,1278,2347a7.15,7.15,0,0,1-2-1.38,5.62,5.62,0,0,1-1-2q-3.18-9.1-5.69-18.42l6.74-.13a2.34,2.34,0,0,0,1.36-.31,2.1,2.1,0,0,0,.66-1.31l7.72-1,42,.76c19.24.34,38.8.74,57.11,6.66a164.76,164.76,0,0,0-90.49-89.54,80.26,80.26,0,0,0-18.54-5.29c-8.82-1.22-17.83-.2-26.51,1.77l-10.15-3.47-2.87-2.82c-.6-1.26-2.68-.45-3.81-1.26s-.78-2.17-.58-3.35a18.39,18.39,0,0,0-.72-8.71l.64-9.53,9.17-5.79c22.6-11.66,49.93-11.15,74.36-4.08s46.62,20.15,68.51,33.1c-45.09-64.76-69.25-148.76-45.27-223.93,1.68-5.26,4-11,9-13.3,5.16-2.41,11.54-.19,15.54,3.86s6.11,9.55,7.92,15c13.37,39.84,16.32,82.51,28.52,122.73,2.08,6.83,4.64,13.92,10.05,18.58,12-34.16-2.7-71.11-10.35-106.51-5.81-26.83-7.51-54.41-7.75-81.86-.1-11.24,1.81-25.15,12.37-29,6.47-2.35,13.94.49,18.83,5.34s7.71,11.36,10.17,17.79A291.21,291.21,0,0,1,1451,2037c12.27-9.15,16.74-25.41,18.29-40.63s1.08-31,6.7-45.22,19.84-26.71,34.88-24a24.47,24.47,0,0,1,19.27,19.91c7.56-4.32,10.24-13.67,13-21.92s7.67-17.35,16.28-18.71c6.33-1,14.14,2.25,18.47-2.48,1.73-1.9,2.25-4.58,3.26-7,4.74-11.12,19-13.79,31-14.93l45.09-4.26c5.22-.5,10.75-.94,15.46,1.38,10.28,5.07,10.68,19.34,9.6,30.75l-9.24,97.28c-.66,7-1.34,14.06-3.12,20.88-2,7.7-5.08,16.94.36,22.75l1.36,3.32c7.15-6.14,18.57-4.87,26.18.69s12.11,14.38,15.46,23.19a145.3,145.3,0,0,1,3.17,93.53c12.06,2.25,20,13.51,26.61,23.85q6.38-54,12.74-108.1c.8-6.76,1.63-13.66,4.48-19.85,4.88-10.61,14.94-17.73,24.57-24.34,5.56-3.81,11.36-7.71,18-8.8s14.41,1.52,17.14,7.68C1822.14,2046.83,1820.83,2052.36,1818.9,2057.18Zm-202.38,295.21,2.93,1.31a19.41,19.41,0,0,1,8.07-5.68,28.31,28.31,0,0,0,4.3-1.66c2-1.13,3.37-3,4.88-4.68l-.15-6.15c-.67-3.23-.46-6.58-.82-9.86s-1.44-6.71-4-8.74a4,4,0,0,0-3.22-1,5.3,5.3,0,0,0-2.68,2q-2.93,3.42-5.56,7.05a23,23,0,0,0-3.79,7,23.66,23.66,0,0,0-.64,6.67Q1615.84,2345.5,1616.52,2352.39Zm21.24,6.14-.36-3.11a17,17,0,0,0-7.58.26,19.31,19.31,0,0,0-3.93,2c-3.43,2.14-7,4.42-9,7.94l7,6.49a37.55,37.55,0,0,1,6.61-7.08Z"></path>
    <path data-name="5" data-official="Bourgueria nubicola" data-plain="" data-loc="Bolivia" d="M1616.52,2352.39l2.93,1.31a19.41,19.41,0,0,1,8.07-5.68,28.31,28.31,0,0,0,4.3-1.66c2-1.13,3.37-3,4.88-4.68l-.15-6.15c-.67-3.23-.46-6.58-.82-9.86s-1.44-6.71-4-8.74a4,4,0,0,0-3.22-1,5.3,5.3,0,0,0-2.68,2q-2.93,3.42-5.56,7.05a23,23,0,0,0-3.79,7,23.66,23.66,0,0,0-.64,6.67Q1615.84,2345.5,1616.52,2352.39Zm21.24,6.14-.36-3.11a17,17,0,0,0-7.58.26,19.31,19.31,0,0,0-3.93,2c-3.43,2.14-7,4.42-9,7.94l7,6.49a37.55,37.55,0,0,1,6.61-7.08Zm37.2,305.75c3.74-11.48,4.1-23.75,4.42-35.81l.89-33.24a6.27,6.27,0,0,0-.57-3.44c-1.73-2.82-6-1.26-9.06,0a23,23,0,0,1-13.66,1c-4.94-1.14-9.58-3.94-14.65-3.84-4.37.09-8.35,2.32-12.44,3.86a40.92,40.92,0,0,1-17.4,2.5,14.87,14.87,0,0,1-6.6-1.74c-3.12-1.88-4.84-5.5-5.33-9.11s.1-7.26.61-10.86q1.23-8.76,1.94-17.58c.19-2.36.33-4.84-.65-7-2.46-5.39-9.88-5.66-15.78-5.11l-6.48-.23a17.73,17.73,0,0,0-3.67-6.39,11.4,11.4,0,0,1-2.1-2.51c-1.47-3,1.13-6.28,3.49-8.61,13-12.83,25.56-27.48,29.15-45.38l3.54-7.46a23,23,0,0,0-8.72-11.91c-3.57-2.49-8.46-4.94-8.27-9.29.13-3.18,3.14-5.47,6.11-6.63,4.86-1.9,10.46-2.13,14.68-5.2s6.16-8.34,8.34-13.11l3.45-4.26a81.31,81.31,0,0,1,8.88-14.5,40.5,40.5,0,0,0,4.86-7.09,10.31,10.31,0,0,0,.63-8.33l-2.37-4.33a27.69,27.69,0,0,1,3.9-4.68c2.43-2.52,5-5.13,8.37-6.15l3.77,0a9.89,9.89,0,0,1,8.16,3.14l.69,3.94a23.45,23.45,0,0,0-7.49,10.44l-4.93,6.63a44.37,44.37,0,0,0-.79,32.57l4.33,4.93a12.58,12.58,0,0,0,5.08,2.27,28.37,28.37,0,0,0,7.81,1.13c6-.11,11.43-3.05,16.65-5.91l3.24-3.09a42.1,42.1,0,0,0,5.8-29l-.7-2.9c-1.2-3.58-5.45-4.94-8.37-7.35a24.71,24.71,0,0,1-4.65-5.76c-.93-1.41-1.89-2.95-1.78-4.63s1.11-2.92,1.78-4.35c1.94-4.1,1.08-8.91.18-13.35l2.21-3.41c2.49-3.8,6.36-6.42,10-9.2s7.12-6.08,8.41-10.43c.36-1.24.6-2.65,1.62-3.45s2.66-.67,4.06-.77a12.68,12.68,0,0,0,7.37-3.66c2.06-1.9,3.77-4.14,5.75-6.12,2.15-2.14,4.61-4,6.92-5.94a62.71,62.71,0,0,0,17.25-24.05l4.07-9.56a30.67,30.67,0,0,0-8.12-12.66,43.54,43.54,0,0,1,10.26,4,9.58,9.58,0,0,0,2.63,1.14,2.81,2.81,0,0,0,2.65-.74c.72-.84.75-2.25,1.72-2.78l3.08-.81a26,26,0,0,0,19.37.54c2.81-1.05,5.74-3,6.09-6s-1.81-5.36-3.69-7.57L1786,2257c11.35-8.4,26.14-10.45,40.26-10.93,9.89-.33,20.13,0,29.1,4.23,8.57,4,15.21,11.16,21.36,18.35,5.69,6.64,11.2,13.55,14.94,21.44s5.59,17,3.65,25.48c-1,4.35-3,8.49-3.32,12.94s1.46,9.57,5.66,11.07,8.89-1.31,13.39-2.3a16.47,16.47,0,0,1,18.94,21.86c-1.47,3.95-4.41,7.21-6,11.12s-1.13,9.28,2.61,11.21c4.62,2.39,9.59-2,14.27-4.28,8.66-4.15,20.36.45,23.88,9.38,2.83,7.19.63,15.4-2.79,22.33a67.57,67.57,0,0,1-29.23,29.8l-3.87,7.42c.78,7.48,7.08,13.39,14,16.22s14.63,3.22,22.1,4.09c15.71,1.81,33.38,7.74,39,22.53,2.25,5.93,2.15,12.47,1.88,18.8-.49,11.64-1.5,23.44-5.67,34.31s-11.9,20.83-22.63,25.34c-17.16,7.21-37-1.05-51.69-12.53-3.58-2.8-7.09-5.85-11.33-7.5s-9.49-1.6-12.88,1.44c-2.15,1.92-3.3,4.78-5.54,6.59-4.24,3.4-10.57,1.86-15.67,3.74-7.56,2.78-10.36,12.11-10.23,20.17s2.11,16.3-.17,24c-2.11,7.16-7.66,12.83-13.82,17.05-13,8.88-29.88,12.38-44.87,7.71s-27.36-18-29.29-33.61c-.87-7-.35-15.53-6.19-19.54-5-3.43-12.37-1-16,3.8s-4.3,11.31-3.91,17.36c.93,14.62,7.12,28.52,8.11,43.13,1.56,23.2-11.38,46.76-31.8,57.88-7.63,4.16-17,7.54-20,15.68-1,2.74-1.16,5.73-2.16,8.47-3.71,10.19-16.73,12.76-27.57,13.3-4.26.21-8.83.28-12.4-2.07-6.21-4.08-6.27-13.05-5.27-20.42a222.07,222.07,0,0,1,8.56-37.86Z"></path>
    <path data-name="5a" data-official="" data-plain="Flower, magnified" data-loc="" d="M1271.66,2627.89c6.9,2.52,11.13,9.31,16.63,14.19s15.07,7.39,19.53,1.55l.09,9.95a375.46,375.46,0,0,1,19.87,42.78,120.56,120.56,0,0,1,15.13-46.07,52.22,52.22,0,0,1,9.44-12.58c4.38-4.06,9.87-6.95,13.65-11.59,1.9-2.32,3.32-5,5.47-7.13,5.37-5.21,13.75-5.27,21.23-5,7,.25,15.22,1.13,19,7.1,3.51,5.63,1,13.47-4,17.88s-11.68,6.19-18.17,7.55-13.24,2.53-18.84,6.08c-6.62,4.18-10.94,11.31-13.26,18.79s-2.86,15.36-3.38,23.17q-2.07,31.13-4.13,62.24a15.23,15.23,0,0,0,.51,6.56c2.31,6,10.73,6.87,14.7,11.91,2.9,3.68,2.86,8.88,1.85,13.44s-2.85,9-3.13,13.65,1.47,9.92,5.71,11.9c2.83,1.31,6.22.94,9.06,2.23,3.3,1.51,5.23,5,6.63,8.33a62,62,0,0,1,4.68,19.94l.22,7.55a124.21,124.21,0,0,1-11,26.65c-2.3,4.14-4.85,8.18-6.41,12.64s-2.07,9.52-.22,13.88a50,50,0,0,0,3.67,6.16,31.85,31.85,0,0,1,3.68,23.86,10.19,10.19,0,0,1-2.3,4.8,11.62,11.62,0,0,1-5,2.59,144.12,144.12,0,0,1-39.8,6.54c-8.41.19-18-1-22.94-7.79-5.06-7-2.85-16.88,1-24.63,1.15-2.33,2.46-4.68,2.67-7.27.36-4.57-2.72-8.61-5.54-12.22-8.36-10.69-16.06-22.36-19-35.61s-.18-28.42,9.79-37.62l7.88-7.1c2.13-6-2.45-12.05-5.23-17.79A33.39,33.39,0,0,1,1300,2774c1.39-3.9,3.5-7.5,4.85-11.41,3.35-9.7,1.77-20.37-.61-30.35a204.07,204.07,0,0,0-22-55c-6.93-12-15.24-23.59-17.78-37.17Z"></path>
    <path data-name="5b" data-official="" data-plain="Section of Seed" data-loc="" d="M1401.69,2808.78A41.48,41.48,0,0,1,1423,2780c7.78-4,17.07-5.72,23.24-12,5.73-5.77,8.33-15,15.87-18.1,6.74-2.72,14.47,1,19.64,6.1s8.87,11.58,14.31,16.4c4.44,3.93,9.83,6.58,14.84,9.76,18.41,11.66,31.86,31.26,35,52.83s-4.46,44.67-20.55,59.36c-2.29,2.1-4.77,4.05-6.56,6.6-3.91,5.57-3.86,12.89-4.07,19.69s-1.18,14.32-6.3,18.81c-2.58,2.26-5.91,3.45-9.17,4.54-12.91,4.34-26.52,8.11-40,6.18-6-.87-12.49-3.33-15.32-8.75-3.48-6.63-.24-14.71-.86-22.17a21.4,21.4,0,0,0-7.88-14.75,69.18,69.18,0,0,0-7.45-4.7c-12.13-7.43-20.83-19.69-25.77-33s-6.37-27.76-6.25-42Z"></path>
    <path data-name="5c" data-official="" data-plain="Stamen" data-loc="" d="M1577.51,2896.59c-5-10.34-9.84-20.91-11.64-32.23a124.67,124.67,0,0,1-1.11-18l-.76-59.56c-.08-6.37.38-13.84,5.67-17.4,2.38-1.6,5.32-2.05,8-3.11,5.07-2,9-6.13,13.42-9.27s10.42-5.31,15.31-2.89c3.53,1.75,5.6,5.45,8.5,8.12,3.73,3.44,8.86,5.17,12.35,8.86,4.31,4.56,5.36,11.23,6.1,17.47,2.11,18,3.33,36.12,3.64,54.24.16,9.87,0,20-3.41,29.24-1.82,4.88-4.57,10-3.26,15,1.42,5.49,7,8.59,11.1,12.54,7.65,7.41,9.79,21.09,2.23,28.59-4.91,4.87-12.3,6-19.17,6.78-13,1.46-26.63,2.37-38.92-2.2-3.31-1.23-6.63-3-8.53-6-3.48-5.43-1.06-12.54,1.43-18.49Z"></path>
    <path data-name="5d" data-official="" data-plain="Seed-vessel" data-loc="" d="M1701.06,2905c-13.7-3.51-25.26-13.36-32.61-25.44s-10.77-26.22-11.75-40.32c-.58-8.37-.31-17,2.58-24.82,8.31-22.66,35.14-33,47.59-53.65,3.19-5.28,6-11.74,11.93-13.51,4.68-1.41,9.77.81,13.46,4s6.47,7.33,9.91,10.8c10.23,10.32,25.55,14.07,36.34,23.79,6.24,5.62,10.65,13,14.66,20.34,5.16,9.51,9.86,19.38,12.28,29.92s2.42,21.87-1.62,31.9c-3.69,9.15-10.66,17.22-11.56,27.05-.64,7.1,2,14,3.44,21s1.25,15.14-3.83,20.14c-3.42,3.35-8.33,4.57-13,5.51a247.86,247.86,0,0,1-66.35,4.29,8.66,8.66,0,0,1-3.67-.8c-2-1.08-2.83-3.44-3.08-5.66-.6-5.17,1.23-10.26,2.34-15.34s1.33-10.91-1.94-14.95Z"></path>
    <path data-name="5e" data-official="" data-plain="Bract" data-loc="" d="M1836.63,2881.19c-9.64-12.36-9.93-29.35-9.79-45,.06-6.88.12-13.82,1.66-20.52a63.21,63.21,0,0,1,6.3-15.94,93.57,93.57,0,0,1,29.74-32.69c3.68-2.48,7.56-4.71,10.92-7.6,4.87-4.2,8.5-9.65,13.24-14s11.25-7.64,17.47-6c8.82,2.32,12.33,12.66,18.32,19.54,3.87,4.46,9,7.59,13.73,11.11,25.81,19.13,40.84,51.92,38.48,84-.65,8.84-2.6,17.74-7.13,25.36a49.87,49.87,0,0,1-12,13.4,39.89,39.89,0,0,0-6.16,5.35c-6.85,8.17-3.55,20.71-7.25,30.71-3.15,8.53-11.29,14.45-20,17.22s-17.92,2.87-27,2.93c-7.69.06-17.07-.89-20.25-7.89-2.29-5-.15-10.81.73-16.26.86-5.3.38-11-2.54-15.54-6.9-10.68-23.47-10.06-32.34-19.18Z"></path>
    <path data-name="6a" data-official="" data-plain="Flower of P. lanceolata" data-loc="" d="M607.34,2911.31c-4.75,8.25-9.66,17.07-9.33,26.59.15,4.13,1.63,8.64,5.26,10.62a15.07,15.07,0,0,0,6.14,1.39,192.47,192.47,0,0,0,35.52-.53c6-.64,12.07-1.6,17.45-4.3s10-7.43,11.34-13.32-1.58-12.79-7.2-15c-2.28-.87-4.8-.94-7.14-1.64s-4.69-2.35-5-4.78L657,2906a76,76,0,0,0,18.28-8.07c3.81-2.32,7.52-5.09,9.8-8.93,4.64-7.82,2.27-17.86,4.49-26.69,2-7.81,7.39-14.2,12.32-20.57s9.71-13.51,10-21.56-6-16.78-14-16.26c-3.41.21-7.26,1.89-10-.22,2.55-5.55,8.29-8.75,13-12.66s8.8-10.21,6.37-15.82c-3.12-7.21-13.66-6.88-19.71-11.9-3.17-2.63-5.15-6.81-9-8.35-4.5-1.8-11.2,0-13.2-4.41-.71-1.57-.42-3.4-.14-5.1a119.74,119.74,0,0,0,.5-34.08c-1.64-12.76-5.36-25.23-6.39-38.07-1.45-17.86,2.33-35.92.13-53.71-.5-4-1.45-8.33-4.36-11.19-2.46-2.41-5.94-3.43-9.31-4.19a100.87,100.87,0,0,0-45.4.28c-5.64,1.35-11.48,3.39-15.17,7.88-5.73,7-4.34,17.13-3.46,26.12,3.48,35.6-5.88,72.53,4.37,106.8l-2.54,6.76c-14,3.05-28.67,10-34.56,23.07a10.34,10.34,0,0,0-1.14,5.71,10.2,10.2,0,0,0,3.15,5.36c8.85,9,22.51,10.81,35.09,11.84a9.64,9.64,0,0,1,4.54,1.14c2.73,1.8,2.86,5.69,2.78,9A164.24,164.24,0,0,0,606,2874.92a7.86,7.86,0,0,1,.89,3.77,9.38,9.38,0,0,1-1.2,3,21.28,21.28,0,0,0,1.57,21.35Z"></path>
    <path data-name="6b" data-official="" data-plain="Ovary and Pistil" data-loc="" d="M743,2615.88a18.62,18.62,0,0,0,8,14.39,15.93,15.93,0,0,0,8,2.57l3.08,7c12.75,15.2,15.43,36.17,17.6,55.89,3.54,32.31,7.08,65.08,1.93,97.17-1.51,9.41-3.77,18.74-4.12,28.26-1.11,29.58,16.09,58.89,9.15,87.66-.6,2.45-1.37,5-.81,7.46.44,1.93,1.65,3.58,2.6,5.32a22.83,22.83,0,0,1-2.25,24.88c-3.11,3.8-7.38,6.47-11.79,8.64a75.5,75.5,0,0,1-36.21,7.65c-5.35-.22-11.1-1.21-14.8-5.07-4.67-4.85-4.51-12.75-2-19s7-11.44,10.49-17.22,5.91-12.8,3.82-19.2l-4.44-7.82a47.84,47.84,0,0,1-.8-30.35c2.46-8,7-15.2,9.93-23,2.7-7.21,4-14.86,5.29-22.45,4.1-24.72,7.73-49.62,7.77-74.68s-3.64-50.4-13.63-73.38c-3.3-7.58-7.29-14.95-9.23-23s-1.55-17.14,3.37-23.8Z"></path>
    <path data-name="6c" data-official="" data-plain="Section of Ovary" data-loc="" d="M865.83,2908.62c-2.63-5.18-9.44-6.14-14.61-8.79-6-3.07-10.2-8.93-12.59-15.24s-3.16-13.08-3.78-19.8c-1-11.05-1.15-23.7,6.85-31.4,4.82-4.63,11.65-6.42,17.38-9.87,2.88-1.73,5.61-3.93,8.91-4.58,6.78-1.35,12.83,4.2,19.47,6.13,9.44,2.76,21-1.6,28.64,4.64,2.77,2.27,4.43,5.59,5.88,8.86a132,132,0,0,1,6.32,17.58c2.39,8.52,3.93,17.47,2.54,26.21s-6.07,17.28-13.74,21.68c-2.14,1.22-4.66,2.31-5.6,4.59-1.2,2.92.82,6.07,2.6,8.68a87.16,87.16,0,0,1,7.44,13.27,15.07,15.07,0,0,1,1.69,6.11c0,3.38-2.09,6.49-4.78,8.54a33.08,33.08,0,0,1-9.12,4.37c-13.7,4.93-28.23,9.93-42.52,7.13a6.18,6.18,0,0,1-5.93-5.6,48.14,48.14,0,0,1,2.65-31Z"></path>
    <path data-name="6d" data-official="" data-plain="Seed" data-loc="" d="M968.51,2908.63c2.08-5.56.78-11.87-1.74-17.24s-6.19-10.11-9.16-15.25c-5-8.59-8-18.53-7.25-28.44s5.56-19.7,13.75-25.32c12.43-8.54,30.52-5.56,41.66,4.61s15.88,26,15.37,41.05a60.34,60.34,0,0,1-1.6,12.2,58.52,58.52,0,0,1-7.35,17.05c-2.47,3.94-5.44,8.76-3.22,12.84,1.43,2.62,4.48,3.77,7.06,5.27a23,23,0,0,1,11.23,20.18,22.69,22.69,0,0,1-12.63,19.31,36.94,36.94,0,0,1-12.07,2.92c-11.26,1.22-22.86.75-33.59-2.89a10.76,10.76,0,0,1-5.07-3c-2-2.49-1.71-6.1-1.12-9.26a104.67,104.67,0,0,1,7.24-23.46Z"></path>
    <path data-name="6e" data-official="" data-plain="Seed-vessel" data-loc="" d="M1036.89,2906.46c3.28-8.08.68-17.22-1.94-25.54l-6-19.17c-2-6.42-4.05-12.92-4.35-19.64s1.32-13.79,5.83-18.78c7.82-8.66,21.69-8.52,32.65-4.49,15.45,5.69,28.5,18.12,34,33.65s2.91,33.88-7.42,46.71c-2.25,2.8-5,5.68-5.06,9.27s2.39,6.46,5.12,8.6,5.87,3.8,8.12,6.42c4.29,5,4.45,12.2,4.38,18.78a15.25,15.25,0,0,1-1,6.38c-1.13,2.36-3.39,4-5.68,5.22-9.8,5.37-21.37,6.23-32.53,6.79-8.5.43-18.56,0-23.31-7-6.94-10.32,3.7-24.9-.94-36.43Z"></path>
</svg>
