
<svg xmlns="http://www.w3.org/2000/svg" viewBox="0 0 2091 2920" id="illustration" preserveAspectRatio="xMidYMid meet">
    <title>Cruciaceæ</title>
    <path data-name="1" data-official="Brassica oleracea" data-plain="Common Cabbage" data-loc="Chalk Cliffs, England" d="M1197.29,1664.16l-5.69-22.93-22.48-14.59a105.05,105.05,0,0,0-56.21-6.37c-7.2,1.17-14.48,3.1-21.67,1.93-6.61-1.08-13.63-4.66-19.56-1.56l-15.49-4.84-94.14,2c-10.86.23-22,.43-32.3-2.93-9.8-3.19-18.33-9.41-26.12-16.14-3.69-3.2-7.32-6.59-9.78-10.82-3-5.23-4.06-11.36-4.67-17.38-2.59-25.41,1.32-51.09-.51-76.56-1.65-22.91-7.91-45.25-10.35-68.09-4.9-45.83,5.69-92,3.77-138.07l15.76-7c10.23-7.87,24.25-8,37.15-7.69-2.59-8.19-3-17.27.1-25.27s10.14-14.68,18.59-16.2c4.48-.81,9.09-.19,13.6.44.47-9.5,5.29-18.56,12.42-24.86a46.18,46.18,0,0,1,25.88-10.87L1022,1188l30.84-74.91c6.43-15.63,13-31.54,24-44.39,8.94-10.47,21.24-20,22.36-33.75.48-5.81-1.25-11.64-4-16.81-11.46-21.86-39.66-31-63.88-26.24s-44.79,20.72-61.77,38.63c-1.57,1.66-3.22,3.41-5.41,4.06s-4.75.05-7-.71a65.66,65.66,0,0,1-37.41-32.61c-16.23-32.68-2.71-72-7.72-108.15l-6.13-14.08a33.12,33.12,0,0,0-11.51-4.36,10.77,10.77,0,0,0-3.15-.2c-2.6.3-4.75,2.08-6.73,3.78l-24.27,1.6c-5,.44-10.66,1.17-13.79,5.15a19,19,0,0,1-2.51,3.18,8.5,8.5,0,0,1-4,1.5c-2.83.48-6.06.59-8.21-1.31a6.87,6.87,0,0,1-2-5.64,13.73,13.73,0,0,1,2-5.8,28.59,28.59,0,0,1,16.56-13l3.33,3.9a27.85,27.85,0,0,1,15.12-6.2l4.17-7.69a17.48,17.48,0,0,1,4.46-4.06,10.54,10.54,0,0,1,7.73-2.74l10.63-.27,4.52-7.17c2.72-.76,5.46.9,8.19,1.64,4.18,1.14,8.64.12,12.76-1.23,2.5-.81,5.11-1.86,6.66-4l7.73-17.63a480.84,480.84,0,0,0,23.65-101.63c2.49-20.69,3.18-43.3-8.53-60.53-5.13-7.55-12.63-14.13-14-23.14L932.68,614a34.49,34.49,0,0,1-16.94,3.52,15.29,15.29,0,0,1-3.81-.59c-2.58-.81-4.69-2.63-6.72-4.4l-9.5-8.3-6.15-24.7a122.51,122.51,0,0,1,3.28-17.41,43.94,43.94,0,0,1,3.33-9.22,54.17,54.17,0,0,1,4.42-6.73l10.64-14.55-1.06-20q-4.32-16.95-8.65-33.89c-.66-2.59-1.32-5.36-.42-7.88a13.35,13.35,0,0,1,3-4.35,243.44,243.44,0,0,1,25.51-23.71l2.49-8.83a73.74,73.74,0,0,0-4-10.65A101.32,101.32,0,0,1,923.56,412c-3.09-9.32-1.37-19.55,1.48-28.95a126.21,126.21,0,0,1,5.44-14.61l-5.59-16.3c-8.77,1.47-17.5-4.21-22.26-11.72s-6.35-16.53-7.73-25.31c-4.35-27.86-7.47-56.09-15.87-83s-22.7-52.92-45.28-69.82c-23.52-17.59-55.25-24.95-72.78-48.52-5.46-7.34-9.18-15.86-14.66-23.19-5.91-7.93-13.69-14.22-21.39-20.43L680.35,34.19c-11-8.84-22.25-17.86-35.65-22.23C623.2,5,597.83,12,583,29c-16,18.38-19,44.71-31.31,65.79-10.06,17.23-25.87,30.17-40,44.28a290.41,290.41,0,0,0-60.48,88.46c-1.84,4.17-3.6,8.78-2.4,13.17.93,3.42,3.5,6.1,6,8.61,16.52,16.6,34.44,33.15,42.75,55.06A75.65,75.65,0,0,1,491.19,370c-13.91,22.43-38.43,35.77-56.8,54.74a124.73,124.73,0,0,0-2.22,171.17l7.36,7.59c14.69,17.08,26.8,36.2,38.86,55.24L529.81,740c5.86,9.26,11.75,18.58,15.8,28.75L558,781.45c11,5.91,18.84,16.64,23.57,28.21s6.7,24.05,8.5,36.42c.38,2.63,1,5.62,3.3,6.93l10-1.19c19.28-14.75,40.71-30.22,65-29.39a79.14,79.14,0,0,1,19.21,3.46c22.45,6.49,44.18,18.83,56.69,38.56l10.54,17.33c18.19,37.61,22.79,80.14,27.13,121.7l.51,12.33c3.77,16.48,11.68,31.66,17.85,47.4,7.2,18.33,12.08,37.49,16.28,56.72,2.91,13.32,5.51,26.78,5.85,40.41a123.21,123.21,0,0,1-6.59,42.87c-2.79,8.12-6.43,16-8.31,24.34-1.48,6.57-1.93,13.6-5.44,19.34-6.47,10.56-20.54,13-32.89,13.89-13.6,1-27.36,1.49-40.82-.71-23.92-3.93-47.22-17.58-57.88-39.35l-17,5.57c-2.57.93-5.34,2-6.69,4.4s0,6.24,2.74,6.14a6.76,6.76,0,0,0-5.24,4,13.88,13.88,0,0,0-1.11,6.7,3,3,0,0,1-.29,1.79,2.83,2.83,0,0,1-1.54.92l-6.37,2.14a29.16,29.16,0,0,1,5.4,23.1,6.44,6.44,0,0,0-.21,2.26,6.59,6.59,0,0,0,1.08,2.33,22.36,22.36,0,0,1,3,14.32,9,9,0,0,0-.11,3.47,8.32,8.32,0,0,0,1.44,2.58,33.71,33.71,0,0,1,6,17.68l2.41,16.34c-2.21,8.27,3.44,16.4,8.75,23.11q3.69,4.65,7.37,9.29c5.61,7.08,11.68,14.49,20.21,17.45L706,1387q13.5-8.46,27.76-15.6c10.15-5.09,21.09-9.76,32.43-9,9.1.57,18.47,4.57,27,1.41-8.32,8.26-16.8,16.73-22,27.26a20.55,20.55,0,0,1-3.32,5.54c-1.5,1.55-3.87,2.51-5.87,1.68a25.14,25.14,0,0,1-3.2,18.22c-3.9,6.31-10.36,10.52-15.36,16s-8.56,13.67-5.06,20.21l7.47,1.45c8.86,30,40.2,47.35,55.9,74.39,8.06,13.87,11.7,29.8,15.11,45.47l1.48,14.44q-2.19,17.61-4.4,35.22c-2.73,21.76-5.45,43.57-5.75,65.5a240.62,240.62,0,0,0,1.71,33.3l3.47,11.84c.62,3.74-.9,7.78.6,11.26,1.39,3.24,4.95,5,7.08,7.75a10.49,10.49,0,0,1,1.59,9.5c-2.12-2-5.82-1.14-7.73,1.05s-2.44,5.24-2.72,8.13a34.45,34.45,0,0,0,.6,12.11l-5.47,7.6c-1.7,7.09,2.27,15.37-1.74,21.46-3.17,4.82-9.74,5.71-15.49,6.14a52.75,52.75,0,0,1-9.65.13c-10.53-1.17-20-8.68-30.6-7.7l-6.09,1.37c-2.19,4.26-2.46,9.22-2.6,14-.6,19.45.12,39-1.57,58.35s-5.92,38.9-15.71,55.73c-6.15,10.57-14.32,19.8-22.49,28.91l-1.15,1.55c-2.1-.68-4.31.65-6.52.61s-4.34-1.62-6.17-3.1a51.73,51.73,0,0,0-10-6.74,20,20,0,0,0-11.75-2l-5.48-2c-16-7.22-29.14-21.38-46.49-24.35-5.19-.89-10.49-.71-15.74-1a79.35,79.35,0,0,1-42-15.48A79.89,79.89,0,0,1,534.61,1939c-5.3,3.56-11.07,6.51-15.71,10.9-9.29,8.81-12.69,22-15.69,34.43l6.87,27.57,4.08,8.53a4.42,4.42,0,0,1,.6,2.13,4.77,4.77,0,0,1-.54,1.62c-4.29,9.35-2.42,20.39-5.22,30.29-1.12,4-3,7.95-2.28,12l4.24,11.38a138.55,138.55,0,0,0,19.24,89.52c11.59,18.81,27.51,34.53,43.66,49.61l16.22,5.76c24.21-8.28,53.09-.45,69.82,18.92-2.5-2.33-6.78-1.58-9.25.77s-3.51,5.81-4.2,9.15c-2.49,12-1.66,24.43.54,36.46l19.18.65,14.79,7.64c4.72,2.44,9.49,4.91,13.62,8.27,3.88,3.15,7.33,7.17,12.09,8.7,2.62.85,5.52.89,7.93,2.2,4.3,2.35,5.8,8,9.78,10.81l8.56,12.15a878.77,878.77,0,0,0,71.29,99.81c2,2.47,4.22,5,7.22,6.14l15.14,2.44c10.12,9.49,24.07,15.11,31.52,26.81,5.45,8.58,6.53,19.14,7.47,29.27L864,2512c1,14.88,1.87,30.4-4,44.11-2.43,5.68-5.94,10.85-8.3,16.56-4.49,10.86-4.54,23.08-8.32,34.21-2.49,7.31-6.55,14-8.69,21.48-1.74,6.07-2.16,12.48-4,18.52-1.38,4.44-3.52,8.59-5.23,12.91-8.3,21-6.12,44.42-3.82,66.86l.71,10.3c-.38,10.14-.71,20.55,2.53,30.17,1.15,3.39,2.82,6.75,5.62,9,4,3.14,9.46,3.48,14.46,2.79,3.74-.51,7.6-1.63,10.22-4.35a21.31,21.31,0,0,0,3.85-6.71l15.18-36.09,11.71-7.76c1.07-21.33,2.23-42.78,7-63.61s13.22-41.2,27.4-57.16c11.91-13.41,27.32-23.2,40.1-35.77a63.21,63.21,0,0,0,12-15.35c2.17-4.15,3.63-8.64,5.55-12.91,5-11.05,12.92-20.43,20.1-30.19,11.49-15.61,21.27-32.63,27.3-51.05,2.47-7.55,4.3-15.3,6.13-23l19.56-82.8,8.12-61.33c4.66-25.17,10.25-50.63,22.66-73,6.12-11,13.78-21.12,20.19-32a162.07,162.07,0,0,0,18.09-44.87c2-8.29,3.28-16.71,4.58-25.13q2-13.05,4.06-26.1a20.44,20.44,0,0,1,1.24-5.07c2.2-5.05,7.93-7.41,13.22-8.94l-4.54-12c-.75-6.28,5.18-11,9-16.07,6.76-9,7.37-21,11.54-31.42a12.13,12.13,0,0,0,1.28-4.81,11.48,11.48,0,0,0-1.58-4.66,95.05,95.05,0,0,1-9.58-50.4,14,14,0,0,0-.21-5.55c-.74-2.22-2.6-3.85-4-5.71-5.49-7.18-4.3-17.66-9.06-25.33-5.08-8.2-15.87-8.53-20.84-16.8-2.51-4.18-3.25-12.2-5.47-16.55s-7-8.19-11.63-6.74l-31.82,8.48c-14.31,5.59-25.7,17.1-33.88,30.11s-13.49,27.58-18.75,42l-6.93,25.23A65.48,65.48,0,0,1,992.6,2021a31.77,31.77,0,0,0-3.75,5.2,24.14,24.14,0,0,0-2,6.87c-1.87,10.53-3.23,22.16-11,29.47-1.29,1.21-2.78,2.34-3.44,4a9.6,9.6,0,0,0-.31,4.27l-.86,2.33c2,4.79,4,9.82,3.64,15-.8,10.82-11.38,17.91-21,22.88-1.77.91-3.65,1.83-5.64,1.69s-4-1.79-3.77-3.77c-5.33,4.12-9.18,10.07-15,13.43s-15.14,2.4-17-4.05a38.43,38.43,0,0,1-24.21,20.83,4.47,4.47,0,0,1-3.39,0,4.67,4.67,0,0,1-1.57-2l-16.64-32L860,2091.76a47,47,0,0,1-3.49-20.26c.3-5.89.73-13.58-4.76-15.76q3.64-17.49,7.28-35c-3.88.94-7.77-2.54-8.55-6.45s.76-7.93,2.72-11.41a46.17,46.17,0,0,1,11.33-13.32c-4.41-1.54-5.53-7.67-3.58-11.91s5.9-7.14,9.39-10.25,6.83-7.07,6.82-11.74l2.38-18.88q-1-25.65-1.91-51.31c-.3-8-.58-16.24,1.83-23.9,1.8-5.76,5-10.95,8.28-16q9.54-15,19.49-29.68c6.73-9.93,13.69-19.88,22.69-27.8,7.16-6.3,15.44-11.17,23.67-16,17-10,34.39-20.12,53.66-24.33,6.09-1.34,12.41-2.09,18-4.84,8.31-4.07,13.94-12,20-19a135.46,135.46,0,0,1,34.21-28.46l18.59-11.85a59,59,0,0,1,30.56-1c.69-4.53,4.66-8,9-9.48s9-1.29,13.63-1.05a11.32,11.32,0,0,0,3.9-.24c1.77-.54,3.14-1.9,4.59-3a24.06,24.06,0,0,1,20-4.6c4.73,1.06,9,3.54,13.43,5.55a4.31,4.31,0,0,0,2.33.55C1197.81,1670,1197.88,1666.52,1197.29,1664.16ZM827.54,2233.54c-7,4.46-16,5.3-22.72,10.24l-6.27,4.61A26.37,26.37,0,0,0,786.88,2237a2.84,2.84,0,0,0-1.78-.4c-1,.21-1.44,1.28-2,2.13-2.45,4-8.71,4.54-12.48,1.69s-5.19-8.06-4.57-12.76,2.94-9,5.47-13,5.33-7.88,7.09-12.28a37,37,0,0,0,2.18-8.75,16.83,16.83,0,0,1,1.17-5.19c1.93-4,7.58-6.64,6.67-11l4.25-7.2a66.54,66.54,0,0,1,16.8-11.33,23.31,23.31,0,0,1,4.55-1.7c4.91-1.18,10.14.26,15.1-.69l10.56,3.68q1.83,19.36,4.87,38.59l-1.06,10.76C840.32,2218.81,835.83,2228.29,827.54,2233.54Zm34.13,145.77,11.08-12a248,248,0,0,1,25.06-40c2.7-3.48,5.55-6.93,7.36-10.94l2.65-17.48q13.2-21.93,28.4-42.58c3-4.12,6.17-8.27,8-13.07l4.26-7.67a18.14,18.14,0,0,1,8.68,9.66c1.44,4.19.66,9.25-2.51,12.34-1.09,1.06-2.46,1.93-3.06,3.33s-.23,3.17.17,4.72q1.38,5.28,2.75,10.56a22.63,22.63,0,0,1,1.07,7.41,7.65,7.65,0,0,1-3.62,6.24c-2.22,1.17-5.46.4-6.39-1.92a41.48,41.48,0,0,1,4.26,25L941,2334.59A70.77,70.77,0,0,1,929.35,2352c-1.6,1.75-3.35,3.55-3.83,5.87l-9.36,6.45c-3.13,1.91-4.28,5.84-6.95,8.33-3.81,3.55-6.51,8.11-9.16,12.59l-17.3,29.31-.75,7.56a43,43,0,0,0-7,21.27l-8.35,8.11a17.56,17.56,0,0,1-5.28-2.47,50.39,50.39,0,0,1-22.7-35.46l5.19-12A70.9,70.9,0,0,1,861.67,2379.31Z"></path>
    <path data-name="1a" data-official="" data-plain="Stamens and pistil" data-loc="" d="M190,2891.05a271.64,271.64,0,0,0-5-83.78c-2.12-9.76-4.8-19.5-4.93-29.49-.19-14.43,4.94-28.39,6.45-42.75,1.16-11,.17-22.17,1.28-33.19,1.43-14.08,6.25-27.68,7.39-41.79a81.77,81.77,0,0,0-22.2-62.31c-3-3.15-6.4-6.12-10.49-7.66-4.51-1.7-9.48-1.52-14.29-1.32-30.41,1.29-62.56,3.12-87.83,20.09-15,10.08-26.87,25.92-29,43.88-.49,4.18-.41,8.59,1.45,12.37,1.4,2.86,3.72,5.14,5.71,7.62,11.58,14.43,11.73,34.51,13.67,52.91,2.72,25.82,10,50.92,17.2,75.85L93.65,2885c.89,3.06,1.81,6.19,3.67,8.77,2.28,3.16,5.76,5.22,9.24,7a91.94,91.94,0,0,0,43.89,9.62c9-.29,19.15-2.81,23.12-10.83Z"></path>
    <path data-name="1b" data-official="" data-plain="Pistil" data-loc="" d="M282.55,2868c6.19-16.86-4.26-34.7-8.94-52a140.89,140.89,0,0,1-3.72-22.87,521.39,521.39,0,0,1-2.35-65.29c.43-16.13,1.61-32.35-.57-48.33-2.07-15.26-7.15-29.93-12.21-44.48-2.56-7.38-5.21-14.93-10.13-21s-12.62-10.5-20.35-9.36c-3.25.48-6.49,2-8.2,4.85a17,17,0,0,0-1.84,6.17c-4.12,25.33-8.26,50.78-8.54,76.45-.11,10.87.46,21.77-.66,32.59-1,10.15-3.58,20.08-5.16,30.16-5.43,34.67.51,70.06,8.13,104.31,3.22,14.46,8.81,31.17,23,35.5,6.49,2,13.51.79,20.09-.89a140.57,140.57,0,0,0,21.38-7.36Z"></path>
    <path data-name="2" data-official="Lunaria biennis" data-plain="Honesty" data-loc="England" d="M1098.52,2365.25c5.69,22.68,2.26,46.52-1.2,69.64q-4.8,32-9.59,64.08c-2.28,15.24-4.59,30.6-9.75,45.12s-13.43,28.32-25.7,37.65l-22.47,9c-4,1-6.73,5.17-10.8,6.07-2.59.58-5.25-.3-7.76-1.16-6-2.07-12.32-4.31-16.66-9-2.75-3-4.51-6.68-6.11-10.39-3.63-8.42-6.73-17.58-5.21-26.63l-5.34-10.48c5-11.05,12.92-20.43,20.1-30.19,11.49-15.61,21.27-32.63,27.3-51.05,2.47-7.55,4.3-15.3,6.13-23l19.56-82.8,8.12-61.33,6,1.15c4.77,3.19,8.3,7.89,11.73,12.5,6.36,8.54,12.83,17.29,16,27.44Zm13.65-101.12a21.34,21.34,0,0,0,.37-21.5,1.53,1.53,0,0,0-.82-.8,1.59,1.59,0,0,0-1,.14l-38.8,14.4a116.89,116.89,0,0,1,33.09,11.31Zm10.09-64.19a12.19,12.19,0,0,0-10.17-10.64c-1.7-.24-3.45-.1-5.16-.3a6.38,6.38,0,0,1-4.5-2.25l-.44-.93c-6.41,10.86-14.07,20.95-20.19,32a147.77,147.77,0,0,0-8.28,17.72l1.52,1.61c15.49-5.23,31.71-11,42.53-23.2Zm38.07-361.76c-2-3.23-4.15-6.48-7.17-8.79s-7.12-3.54-10.7-2.25a5.71,5.71,0,0,0-3.12,2.41,7.1,7.1,0,0,0-.67,3.76c.24,6.13,3.26,12,3.1,18.07-.19,7.12-4.75,13.54-10.5,17.74s-12.6,6.56-19.33,8.85l-2.24,8.45c2.22,4.35,3,12.37,5.47,16.55,5,8.27,15.76,8.6,20.84,16.8,2.3,3.7,3.21,8.07,4.16,12.39l-.51-7.09,4.26-31.65a51.14,51.14,0,0,1,2.71-12.34,35.35,35.35,0,0,1,5.29-8.74,57.67,57.67,0,0,1,10.45-10.2Zm18.53-218a9.17,9.17,0,0,0-9.12-9.64,25.58,25.58,0,0,0-5,1.05,28.73,28.73,0,0,1-9.51.73l.27,5.69c-3.14-.17-5.94-2-9-2.6-4.1-.73-8.2.93-12,2.54l-2.07,1a105,105,0,0,1,36.76,7.67Zm-5-406a14.83,14.83,0,0,1,3.53,5.48l5.72,12.68a30.1,30.1,0,0,1,10.85-9.91,2,2,0,0,1,1.76-.29,1.85,1.85,0,0,1,.71.89,12.43,12.43,0,0,1,1.25,5.26c2.5-1,5.36-.22,7.8.93s4.78,2.67,7.43,3.15l.41-10.55a22,22,0,0,1-18.44-9.42,31.41,31.41,0,0,1-8.9,8.29q-1.32-8.19-3.08-16.3a9.56,9.56,0,0,1-3.32.36Zm-249-862,5.59,16.3A126.21,126.21,0,0,0,925,383.05c-2.85,9.4-4.57,19.63-1.48,28.95a101.32,101.32,0,0,0,4.61,10.27,73.74,73.74,0,0,1,4,10.65l-2.49,8.83a243.44,243.44,0,0,0-25.51,23.71,13.35,13.35,0,0,0-3,4.35c-.9,2.52-.24,5.29.42,7.88q4.34,16.95,8.65,33.89l1.06,20-10.64,14.55a54.17,54.17,0,0,0-4.42,6.73,43.94,43.94,0,0,0-3.33,9.22,122.51,122.51,0,0,0-3.28,17.41l6.15,24.7,9.5,8.3c2,1.77,4.14,3.59,6.72,4.4a15.29,15.29,0,0,0,3.81.59A34.49,34.49,0,0,0,932.68,614l1.93,19.27c1.41,9,8.91,15.59,14,23.14,11.71,17.23,11,39.84,8.53,60.53a480.84,480.84,0,0,1-23.65,101.63l-7.73,17.63c-1.55,2.12-4.16,3.17-6.66,4-4.12,1.35-8.58,2.37-12.76,1.23-2.73-.74-5.47-2.4-8.19-1.64l-4.52,7.17-10.63.27a10.54,10.54,0,0,0-7.73,2.74,17.48,17.48,0,0,0-4.46,4.06l-4.17,7.69a27.85,27.85,0,0,0-15.12,6.2l-3.33-3.9a28.59,28.59,0,0,0-16.56,13,13.73,13.73,0,0,0-2,5.8,6.87,6.87,0,0,0,2,5.64c2.15,1.9,5.38,1.79,8.21,1.31a8.5,8.5,0,0,0,4-1.5A19,19,0,0,0,846.4,885c3.13-4,8.76-4.71,13.79-5.15l24.27-1.6c2-1.7,4.13-3.48,6.73-3.78a10.77,10.77,0,0,1,3.15.2,33.12,33.12,0,0,1,11.51,4.36L912,893.14l16,6.91q47.54,3.21,95.21,3.67c17.08.16,34.53,0,50.67-5.58,8.24-2.85,16-7.08,24.53-9s18.35-1,24.5,5.18c4,4,5.85,9.57,7.54,14.95,7.65,24.28,14.53,49.19,14.63,74.65.06,13.78-1.87,27.72.65,41.27,2.28,12.23,8,23.48,12,35.25a124.66,124.66,0,0,1,6.38,47.09c-.71,12.45-3.25,25.26.52,37.14l10.84,11.09c7.22,1.74,12.7,7.45,17.75,12.9a24.8,24.8,0,0,1,7.18-6.81,2,2,0,0,1,1.3-.42,2,2,0,0,1,1.19.92,35,35,0,0,1,3.42,5.54l12.75-9.88,12.46-2.11,14.59-10.41a4.09,4.09,0,0,1,2-.91c1.4-.08,2.4,1.24,3.43,2.19,1.86,1.7,4.39,2.4,6.77,3.23l5.27,2.63,9.47.89c1.7.16,3.4.32,5.1.5q10.77,1.13,21.41,3.23l14.58-2c33.2,12.06,69.71,9.22,104.91,6.23,8.72-.75,17.6-1.53,25.69-4.89,7.75-3.24,14.35-8.68,20.82-14l26.28-21.8c7.38-6.12,14.85-12.33,20.44-20.12,21.77-30.32,9.25-73.88,24-108.16l-11.68-31.22c-8.79-1.37-14.92-9.17-20-16.46s-10.84-15.23-19.5-17.23l-17.38,2.55c-27.42-6.6-54.39,9.62-81,18.9-26,9.07-54.18,11.76-79.17,23.38-2.68,1.25-5.52,2.64-8.46,2.25a14.62,14.62,0,0,1-5.09-2c-10.75-6-21.83-12.52-28.34-22.95-7.7-12.33-7.65-27.8-7.36-42.33l1.08-53.75c.17-8.29.38-16.82,3.7-24.41,2.19-5,5.65-9.39,8.63-14a85.75,85.75,0,0,0,13.47-51.6c-.16-2.58-.43-5.25.45-7.67,1.31-3.6,4.83-5.85,8.23-7.61,32-16.62,70.45-12.94,105.4-21.77A150,150,0,0,0,1469.58,686l24.77-21c12.59-16.64,31-27.67,47.4-40.53,52-40.69,85.62-101.45,103.46-165s21.07-130.29,21.14-196.32c0-30.61-.71-61.86-10.95-90.71-11.08-31.17-32.68-57.66-57.23-79.84-45.75-41.33-103.71-69.85-165-76.88-29.43-3.38-62.3-.67-83.6,19.92-3.74,3.61-7.16,7.79-11.86,10-8.6,4.07-19,.39-26.65-5.25s-13.9-13.16-22-18.15c-15.38-9.49-36.8-7.88-50.6,3.79-17.88,15.14-21.68,42.93-40.74,56.57-21.56,15.43-51.89,5.88-77.47,12.89-38.33,10.51-55.81,53.32-80.77,84.24-23.1,28.62-56.26,50.21-70.21,84.23-7.34,17.92-10.08,40-26.41,50.44Z"></path>
    <path data-name="3" data-official="Nasturium officinale" data-plain="Water-cress" data-loc="Streams, England" d="M1006.69,1985.52A65.48,65.48,0,0,1,992.6,2021a31.77,31.77,0,0,0-3.75,5.2,24.14,24.14,0,0,0-2,6.87c-1.87,10.53-3.23,22.16-11,29.47-1.29,1.21-2.78,2.34-3.44,4a9.6,9.6,0,0,0-.31,4.27l-.86,2.33c2,4.79,4,9.82,3.64,15-.8,10.82-11.38,17.91-21,22.88-1.77.91-3.65,1.83-5.64,1.69s-4-1.79-3.77-3.77c-5.33,4.12-9.18,10.07-15,13.43s-15.14,2.4-17-4.05a38.43,38.43,0,0,1-24.21,20.83,4.47,4.47,0,0,1-3.39,0,4.67,4.67,0,0,1-1.57-2l-16.64-32L860,2091.76a47,47,0,0,1-3.49-20.26c.3-5.89.73-13.58-4.76-15.76q3.64-17.49,7.28-35c-3.88.94-7.77-2.54-8.55-6.45s.76-7.93,2.72-11.41a46.17,46.17,0,0,1,11.33-13.32c-4.41-1.54-5.53-7.67-3.58-11.91s5.9-7.14,9.39-10.25,6.83-7.07,6.82-11.74l2.38-18.88,7.39-.37a130.3,130.3,0,0,1,105,.49c6.29,2.85,12.86,6.8,15,13.36l6.73,10Zm248.78-113.27,4.24,3.17a35.92,35.92,0,0,0,2.29-5.1l1.8-4.68a16.36,16.36,0,0,0,1.49-7l.15-3.83-6.51-3.41a32,32,0,0,0-7.63-1.59,48.59,48.59,0,0,0-.57,8.17,14.13,14.13,0,0,0,.24,2.75,16.94,16.94,0,0,0,1,3ZM2049,1953c-3.63,19.58-8.58,39.33-19.2,56.17-7.11,11.26-16.52,20.86-25.86,30.37-11.29,11.49-22.66,23.06-35.81,32.38-5,3.55-10.44,7-13.41,12.32s-2.26,13.37,3.21,16.13l2.93,30.79a95.65,95.65,0,0,1,29.85,64.17c1.2,22.92-5.93,45.36-13,67.2-5.55,17.2-11.22,34.66-21.38,49.61-7.24,10.67-16.56,19.73-25.8,28.71l-22,21.37c-12.07,11.73-25.79,24.19-42.61,24.73-17.1.55-31.66-11.34-46.1-20.54a169.87,169.87,0,0,0-70.1-25.21c-10.07-1.24-20.4-1.61-29.94-5.06-7.31-2.64-13.88-7-21.06-10-10-4.15-20.93-5.54-31.75-6a188.88,188.88,0,0,0-55,6.05l-14-4.7c-14.31,21.86-40,32.72-63.49,44.2-4.52,2.22-9.09,4.55-12.73,8-5.85,5.61-8.67,13.57-12.71,20.6-15.23,26.46-46.75,38.44-68.55,59.81-11.48,11.25-20.36,25.24-33.35,34.71-25,18.25-58.94,15.94-89.72,12.83l-17,2.54-164.67,106.82c-12.33,8-24.79,16.1-34.88,26.79-22,23.28-30.34,55.93-37.88,87.06l-2.8,12.2a45.58,45.58,0,0,1-19.41,4.69,21.65,21.65,0,0,1-10.73-2.13c-3.39-1.84-5.86-4.95-8.23-8-5.82-7.43-11.69-14.94-15.76-23.45a65.47,65.47,0,0,1-6-35.43,130.67,130.67,0,0,1,3.39-16.72q2-8.1,4-16.21c1.21-4.86,2.44-9.77,4.77-14.2,4.63-8.79,13.05-14.81,20.66-21.2,28.59-24,50.17-58.15,84.87-72l6.82-7.88c27.61-12.87,50.4-34.7,78.38-46.75l49.69-19.33a45.05,45.05,0,0,1,22.23,1.26q-.81-5-1.64-9.93a33.17,33.17,0,0,0,31.95-10c-4-1.35-5.28-6.33-5.74-10.54a141,141,0,0,1-.68-22l.35-11c2.24-8.07,5.42-16.46,12.14-21.46,3.51-2.61,7.71-4.08,11.52-6.22a73.18,73.18,0,0,0,11.33-8.45c7-6,14-11.94,20.72-18.27,2.17-2,4.3-4.14,6.64-6s5-3.59,7.33-5.57c6.92-5.86,11.36-14.21,14-22.9s3.52-17.77,4.41-26.79l-2.77-20.64q-3.68-15.69-7.33-31.38c-2.94-12.59-6.59-26.28-17.09-33.83-1.49-1.08-3.3-2-5.09-1.63a6.34,6.34,0,0,0-2.71,1.59c-5.24,4.64-8,11.57-13,16.37-6.67,6.27-16.32,8-25.38,9.36-8.38,1.3-17.64,2.43-24.76-2.18l-13.55-6.41-5.58-2.77c-1.8,2.5-5.07,3.42-8.13,3.89a50.29,50.29,0,0,1-14.34.08,17,17,0,0,0-5.73-.26c-2.94.6-5.19,2.92-7.23,5.12l-8.71,9.39-8.57-3.19a85,85,0,0,1-4.11-37.9l5-24.42,13.22-19.19a47.1,47.1,0,0,1,4.9-6.33c5.53-5.7,17.52-7.47,17.52-7.47a83.62,83.62,0,0,1,33.11-2.82q-9.62-5.33-19.57-10c-2.15-1-4.45-2-6.81-1.77-3,.32-6.92-2.46-6.92-2.46-5.58-1.69-9.69-7.44-15.51-7.62l-.3-.34a4.21,4.21,0,0,1-3.43,4.16,10.83,10.83,0,0,0-2.35.33,4.35,4.35,0,0,0-1.83,2c-4.48,7.57-7.51,16.49-14.58,21.71-1.74,1.29-3.71,2.33-5.07,4a23,23,0,0,0-2.36,4.16c-2.14,4.21-5.29,7.82-8.41,11.37a43.83,43.83,0,0,1-6.49,6.43c-3.61,2.7-8,4.23-11.65,6.86a47,47,0,0,0-5.56,5l-12.05,12.06-41.83,18a12.19,12.19,0,0,0-10.17-10.64c-1.7-.24-3.45-.1-5.16-.3a6.38,6.38,0,0,1-4.5-2.25l-.44-.93a162.07,162.07,0,0,0,18.09-44.87c2-8.29,3.28-16.71,4.58-25.13q2-13.05,4.06-26.1a20.44,20.44,0,0,1,1.24-5.07c2.2-5.05,7.93-7.41,13.22-8.94l-4.54-12c-.75-6.28,5.18-11,9-16.07,6.76-9,7.37-21,11.54-31.42a12.13,12.13,0,0,0,1.28-4.81,11.48,11.48,0,0,0-1.58-4.66,95.05,95.05,0,0,1-9.58-50.4,14,14,0,0,0-.21-5.55c-.74-2.22-2.6-3.85-4-5.71-2.84-3.71-3.89-8.3-4.9-12.94l-.51-7.09,4.26-31.65a51.14,51.14,0,0,1,2.71-12.34,35.35,35.35,0,0,1,5.29-8.74,57.67,57.67,0,0,1,10.45-10.2l10.13-5.94c5.24-1.79,10.8-2.36,16.32-2.81,7.61-.61,15.32-1,22.85.32s14.94,4.44,20.21,10l4,3.39c6.17,11.81,12.5,24.3,12,37.61l-1,1.52c-10.78,19.78-24.53,38.73-43.75,50.46l-2,2.31.78,31.7a6.46,6.46,0,0,1-.22,2.32,9.93,9.93,0,0,1-1.48,2.34c-2.53,3.62-2.31,8.41-2,12.8l31.14,3.15,6.28-4.09,2.64-5.4c-1.62-7.69-3.25-15.48-2.94-23.33a18.36,18.36,0,0,1,1.35-6.93,22.67,22.67,0,0,1,3.65-5.14l12.86-15q.75,24.54-.32,49.1l-1,.34c1.86.8,3.19,2.51,5,3.45,3.13,1.64,7.06.65,10.36,1.91l.47-.31a242.9,242.9,0,0,0-.68-77.24l-.18-.41,2.54-1.33c3.23-1.68,6.61-3.5,8.56-6.58l7.34-6c.56-.82,1.74-.86,2.73-.85a31.08,31.08,0,0,0,11.16-2l6.25-.17c10.28-3.66,21.62-1.62,32.34.46-8.31-3.93-14.86-10.79-22.75-15.53l-7.4.08a23.66,23.66,0,0,0-9.67-4.3l-5.09-5.79a74.33,74.33,0,0,0,3.12-12.64l4.5-1.6c.89,1.54,2.68,2.3,4.39,2.74a19,19,0,0,1,5.07,1.57c1.41.83,2.58,2.23,4.2,2.44l3.6,5.6a116.89,116.89,0,0,1,26.2,16.85l2.89-7.21c-.41-5.53-3.17-10.57-5.93-15.37q-2.3-4-4.64-7.92a37.37,37.37,0,0,0-5.44-7.55l-6.12-2.77a151.45,151.45,0,0,1-11.38-12.11l-3.68-8.32c-5.53-5.12-9.35-11.77-13.09-18.31q-2.5-4.38-5-8.76c5.74-.49,11.72-1.29,16.44-4.59s7.68-9.83,5.15-15l9,4.47a65.46,65.46,0,0,0,13.27,7.37l5.2,3.48c4.36,3.76,5.76,10,5.78,15.71,0,3.33-.29,6.93,1.54,9.72a14.5,14.5,0,0,0,3,3l15.92,13.34,7.88-4c1-2.06,2-4.13,3-6.19,2.7-5.62,5.53-11.4,10.26-15.46l-.84-5.19c-.18-4.44-.85-9.11-3.61-12.58a1.47,1.47,0,0,1-.43-.87,1.39,1.39,0,0,1,.32-.76c2.47-3.39,6.41-5.75,7.91-9.67.88-2.32.77-4.92,1.56-7.28,1.65-5,6.75-7.81,11.43-10.17a49.66,49.66,0,0,1-14.07,2.69,74.39,74.39,0,0,0-8.58.47c-3.77.62-7.38,2.27-11.2,2.33l-4,1.3a154.2,154.2,0,0,1-38.87-.8,12.61,12.61,0,0,1-3-.71l-4.43-.11c-3.2-1.5-5.28-4.8-6.17-8.23s-.76-7-.63-10.57q.51-13.51,1-27a24.36,24.36,0,0,1,.4-4.18,45.9,45.9,0,0,1,1.86-5.44,26.87,26.87,0,0,0,1.47-8.28l-4.7-4.22a53.71,53.71,0,0,1-24.59-12.22,3,3,0,0,0-1.35-.82,2.93,2.93,0,0,0-1.14.06l-12.33,2.31-12.64,3.11-7.49-1.78a51.08,51.08,0,0,0-9.48-1.62,52.34,52.34,0,0,0-7,.35l-20.28,2-3.17-1.44a19.6,19.6,0,0,0-8.92-11.37,24.39,24.39,0,0,0,5.53-11c.59-2.75.69-5.58,1.1-8.36,1.3-8.94,5.61-17.11,9.85-25.09l10.53-22.34a67.25,67.25,0,0,0,36.57-5,32.33,32.33,0,0,0,9.3-5.8c3.1-2.92,5.3-6.76,8.72-9.3,2.57-1.91,5.67-6,8.74-6.89a97.18,97.18,0,0,1,67,3.91l11.35-7.16c2-1.6,1.61-4.64,1.3-7.16a54.15,54.15,0,0,1-.13-11,21.89,21.89,0,0,1,1.83-8,16.81,16.81,0,0,1,9-7.75,42.85,42.85,0,0,1,11.83-2.47c6.08-.61,12.27-.92,18.27.28s11.85,4,15.7,8.76l5.71,2.65a33.78,33.78,0,0,1,6.29,7.75,49.88,49.88,0,0,0,3.42,5.67c2.71,3.45,6.85,5.47,11,7s8.43,2.65,12.21,4.88c6.1,3.58,10.28,9.62,14.25,15.48l5.09,6.58-2,22.77a33.75,33.75,0,0,0-.07,7.78c.87,6,4.9,11.5,4.13,17.5a76.14,76.14,0,0,1,22.89-10.42l8.55,4.21,20.37-.91c6.46-.28,13-.56,19.32,1,2.18.52,4.4,1.26,6.62.93,5.47-.84,8.45-7.67,13.9-8.61,4.52-.77,9.09,2.85,13.5,1.58l4.78,1.41c7.71-3.9,18.39.32,21.35,8.45,2.08,5.72,1.07,13.14,5.87,16.91,4.29,3.38,11,1.32,14.53-2.88s4.6-9.84,5.64-15.2c1.66-8.57,3.48-17.19,7.13-25.11,2.1-4.57,4.94-9,9.19-11.7,5.86-3.72,13.56-3.48,20.08-1.06s12.1,6.75,17.58,11l10.31-.75,9.12-1.15a29.63,29.63,0,0,0,6.28-1.26c7.07-2.56,11.19-10.14,18-13.4,7.47-3.59,17.1-1.43,23.84-6.26l5.38-12c2.75-4.52,7.68-7.45,12.86-8.54a34.41,34.41,0,0,1,15.71.82,28.88,28.88,0,0,1,8.74,3.6,19.39,19.39,0,0,1,2.2,30.69l-9.27,9.11A27.84,27.84,0,0,0,1786,1649a74.13,74.13,0,0,0-5.37,9,108.75,108.75,0,0,1-16.83,22.6l7.51,6c6.31,4,13.94,5.55,20.27,9.54,7.52,4.74,12.53,12.46,18.54,19,26.06,28.32,69.54,33.27,99,58l9,1.24,78.73,50c15.27,9.69,30.94,19.77,41.37,34.54C2057,1885.37,2055,1921.08,2049,1953ZM1293.9,2094.35c-3.48,1.17-6.37,3.74-9.88,4.84a17,17,0,0,1-9.65-.15,51.25,51.25,0,0,1-9-3.81,46.71,46.71,0,0,1-3.07,7.69,169.64,169.64,0,0,1,28.48,10.78l3.9-8.76A32,32,0,0,0,1293.9,2094.35Z"></path>
    <path data-name="4" data-official="Erysimum Petrowskianum" data-plain="" data-loc="Palestine" d="M1234.57,2218c2-2.2,4.29-4.52,7.23-5.12a17,17,0,0,1,5.73.26,50.29,50.29,0,0,0,14.34-.08c3.06-.47,6.33-1.39,8.13-3.89l5.58,2.77,2.75,6.42-.9,89.69a4.41,4.41,0,0,0,.43,2.42,4.89,4.89,0,0,0,1.8,1.44c10.74,6.31,15.14,21.47,9.46,32.55a10,10,0,0,1-3.09,3.85,11.92,11.92,0,0,1-3.5,1.44c-7.68,2.23-15.8,4.33-21.62,9.82-2.13,2-3.93,4.47-6.5,5.9-5.66,3.13-12.63.24-18.42-2.64l-11.54-5.76c-3.22-1.61-6.51-3.27-9-5.85-4.52-4.68-5.77-11.61-5.9-18.12l6.34-8.37a453.61,453.61,0,0,0,14.69-88Zm19.11-106.16s3.9,2.78,6.92,2.46c2.36-.26,4.66.76,6.81,1.77q9.94,4.66,19.57,10a83.62,83.62,0,0,0-33.11,2.82Zm41-6.9-3.9,8.76a169.64,169.64,0,0,0-28.48-10.78,46.71,46.71,0,0,0,3.07-7.69,51.25,51.25,0,0,0,9,3.81,17,17,0,0,0,9.65.15c3.51-1.1,6.4-3.67,9.88-4.84A32,32,0,0,1,1294.67,2104.94Zm71.83-319.85,4-1.3c3.82-.06,7.43-1.71,11.2-2.33a74.39,74.39,0,0,1,8.58-.47,49.66,49.66,0,0,0,14.07-2.69c-4.68,2.36-9.78,5.19-11.43,10.17-.79,2.36-.68,5-1.56,7.28-1.5,3.92-5.44,6.28-7.91,9.67a1.39,1.39,0,0,0-.32.76,1.47,1.47,0,0,0,.43.87c2.76,3.47,3.43,8.14,3.61,12.58l.84,5.19c-4.73,4.06-7.56,9.84-10.26,15.46-1,2.06-2,4.13-3,6.19l-7.88,4-15.92-13.34a14.5,14.5,0,0,1-3-3c-1.83-2.79-1.53-6.39-1.54-9.72Zm-41.76,75.3,6.12,2.77a37.37,37.37,0,0,1,5.44,7.55q2.34,3.94,4.64,7.92c2.76,4.8,5.52,9.84,5.93,15.37l-2.89,7.21a116.89,116.89,0,0,0-26.2-16.85l-3.6-5.6Zm-17.08,35.95,7.4-.08c7.89,4.74,14.44,11.6,22.75,15.53-10.72-2.08-22.06-4.12-32.34-.46l-6.25.17Zm521.93-176.95c9.64,3.88,20.56,7.76,30.08,3.6,9.83-4.29,14.38-15.58,16.86-26a152.81,152.81,0,0,0,4-28.79c.92-21.56-2.31-45,9.34-63.14a39.2,39.2,0,0,1,11.07-11.44c4.72-3.14,10.12-5.09,15.36-7.25a185.49,185.49,0,0,0,74.62-56.35c5.35-6.77,10.29-14.07,12.75-22.33,2.11-7.07,2.33-14.56,1.95-21.93-.84-16.56-4.58-32.82-8.47-48.94-9.6-39.74-20.59-80.17-44-113.71s-61.8-59.34-102.62-57l-19-2.44,38.57-127.86c6.55-21.7,13.16-43.88,12.42-66.54-.42-12.57-3-25.71,1.78-37.34,7.93-19.2,32.53-26.36,42.78-44.42,10.8-19.06,3.76-46.85,20.21-61.32,4.75-4.17,10.84-6.5,15.87-10.33,7.21-5.49,11.8-13.74,15.23-22.13a122,122,0,0,0,5.52-74.69c-6.92-28.22-23.63-52.87-39.83-77-4.43-6.6-9-13.72-9-21.67,0-6.68,3.2-12.86,5.19-19.24,8.49-27.14-6.36-57.36-28.86-74.76s-51.13-24.5-79.08-29.79c-41-7.75-84.74-12.26-123.2,3.86-28.43,11.91-51.15,33.94-74.56,54Q1608.3,676.9,1580,696.7c-23.56,16.48-48.16,31.52-70.6,49.48-10.86,8.69-21.46,18.4-27.32,31-5.52,11.88-6.36,25.33-6.85,38.43q-1.7,44.91.69,89.87l9.24,22.1c8.66,2,14.42,9.94,19.5,17.23s11.22,15.09,20,16.46l11.68,31.22c-14.78,34.28-2.26,77.84-24,108.16l14.15,30.33c5.49,17.91,1.69,37.36-4.39,55.08s-14.42,34.75-18.26,53.08c-5.94,28.28-.84,57.51,2.16,86.24a585.93,585.93,0,0,1,2.13,95.33l-22.11,16c-3.9-1.28-8.15.35-11.69,2.43s-6.91,4.69-10.91,5.62l-5.38,4.62c1.29,5.25,2.61,10.59,5.3,15.28,2.12,3.69,5.18,7.43,4.51,11.63a29.9,29.9,0,0,1-1.43,4.35c-1.77,5.44-.08,11.68-2.45,16.9-2.9,6.4-10.85,8.86-17.88,8.73l-11.25,10.85q-7.66,13-14.22,26.59c-1.66,3.43-3.29,7-3.2,10.86l-1.51,6.44c6,1.19,11.85,4,15.7,8.76l5.71,2.65a33.78,33.78,0,0,1,6.29,7.75,49.88,49.88,0,0,0,3.42,5.67c2.71,3.45,6.85,5.47,11,7s8.43,2.65,12.21,4.88c6.1,3.58,10.28,9.62,14.25,15.48l5.09,6.58-2,22.77a33.75,33.75,0,0,0-.07,7.78c.87,6,4.9,11.5,4.13,17.5a76.14,76.14,0,0,1,22.89-10.42l8.55,4.21,20.37-.91c6.46-.28,13-.56,19.32,1,2.18.52,4.4,1.26,6.62.93,5.47-.84,8.45-7.67,13.9-8.61,4.52-.77,9.09,2.85,13.5,1.58l4.78,1.41c7.71-3.9,18.39.32,21.35,8.45,2.08,5.72,1.07,13.14,5.87,16.91,4.29,3.38,11,1.32,14.53-2.88s4.6-9.84,5.64-15.2c1.66-8.57,3.48-17.19,7.13-25.11,2.1-4.57,4.94-9,9.19-11.7,5.86-3.72,13.56-3.48,20.08-1.06s12.1,6.75,17.58,11l10.31-.75,9.12-1.15a29.63,29.63,0,0,0,6.28-1.26c7.07-2.56,11.19-10.14,18-13.4,7.47-3.59,17.1-1.43,23.84-6.26l5.38-12c2.75-4.52,7.68-7.45,12.86-8.54a34.41,34.41,0,0,1,15.71.82,28.88,28.88,0,0,1,8.74,3.6,19.39,19.39,0,0,1,2.2,30.69l-9.27,9.11A27.84,27.84,0,0,0,1786,1649a74.13,74.13,0,0,0-5.37,9,108.75,108.75,0,0,1-16.83,22.6l7.51,6c6.31,4,13.94,5.55,20.27,9.54Z"></path>
    <path data-name="5" data-official="Petrocallis pyrenaica" data-plain="" data-loc="Pyrenees" d="M1525.75,2767c-18.37-26.14-53.6-32.32-84.65-39.86-14.36-3.48-28.53-7.7-42.52-12.43-8.85-3-17.82-6.31-25-12.27-11.5-9.55-17-24.87-17.8-39.8s2.44-29.75,5.68-44.35l7.86-35.34c2.22-10,4.68-20.45,11.51-28.07,9.74-10.85,26-13.37,36.84-23.16,8.89-8.05,13-19.94,18.2-30.74,8.19-16.94,19.76-32,31.24-46.9l11.2-14.53a88.66,88.66,0,0,1,10.61-12.18c19-17,47.57-14.78,73-16.39,29.62-1.87,59.25-10.35,88.56-5.71,20.4,3.23,39.28,12.66,57,23.24,14.18,8.46,28.33,18.19,36.91,32.3,16,26.29,8.91,60.58,19,89.65,5.94,17.12,17.54,31.59,26.61,47.28s15.77,34.4,10.61,51.77c-3,10-9.5,18.38-14.61,27.43-4,7-7.19,14.65-12.6,20.66-5.72,6.33-13.48,10.42-21.27,13.89-37.77,16.86-79.65,22.33-121,23.93-14.91.58-30.61.89-43.47,8.46-8.48,5-14.94,12.71-22.37,19.17s-16.77,11.93-26.55,10.79Z"></path>
    <path data-name="6" data-official="Iberis gibraltarica" data-plain="Spanish Candytuft" data-loc="Gibraltar" d="M861.67,2379.31l11.08-12a248,248,0,0,1,25.06-40c2.7-3.48,5.55-6.93,7.36-10.94l2.65-17.48q13.2-21.93,28.4-42.58c3-4.12,6.17-8.27,8-13.07l4.26-7.67a18.14,18.14,0,0,1,8.68,9.66c1.44,4.19.66,9.25-2.51,12.34-1.09,1.06-2.46,1.93-3.06,3.33s-.23,3.17.17,4.72q1.38,5.28,2.75,10.56a22.63,22.63,0,0,1,1.07,7.41,7.65,7.65,0,0,1-3.62,6.24c-2.22,1.17-5.46.4-6.39-1.92a41.48,41.48,0,0,1,4.26,25L941,2334.59A70.77,70.77,0,0,1,929.35,2352c-1.6,1.75-3.35,3.55-3.83,5.87l-9.36,6.45c-3.13,1.91-4.28,5.84-6.95,8.33-3.81,3.55-6.51,8.11-9.16,12.59l-17.3,29.31-.75,7.56a43,43,0,0,0-7,21.27l-8.35,8.11a17.56,17.56,0,0,1-5.28-2.47,50.39,50.39,0,0,1-22.7-35.46l5.19-12A70.9,70.9,0,0,1,861.67,2379.31Zm-62.75,90.43a36.75,36.75,0,0,1-4.91,21.57c-1.82,3.1-4.11,5.93-5.59,9.21a42,42,0,0,0-2.69,10.42l-10.1,59.52c-1,5.59-1.9,11.19-2.38,16.84-1,11.38,0,22.83.87,34.21,1,12,2.48,25.11,11.24,33.32a12.44,12.44,0,0,0,5.94,3.39,12.17,12.17,0,0,0,7.05-1.12c7.39-3.22,12.49-10.18,16-17.45s5.72-15.09,9.41-22.25c3.5-6.77,8.29-13,10.54-20.23,1.47-4.77,1.77-9.81,2.4-14.76a204.57,204.57,0,0,1,4.51-22.45q6.35-26.17,13.6-52.11l10.8-4.91c-.94-10.13-2-20.69-7.47-29.27-7.45-11.7-21.4-17.32-31.52-26.81l-15.14-2.44c-3-1.11-5.18-3.67-7.22-6.14Zm500.67-40.35a141,141,0,0,1-.68-22l.35-11-9.64-7.9a31.4,31.4,0,0,0-13.17-15.39c-1.24-.72-2.53-1.37-3.81-2l-7.21-3.58-11-2c-5.66,3.13-12.63.24-18.42-2.64l-11.54-5.76c-3.22-1.61-6.51-3.27-9-5.85-4.52-4.68-5.77-11.61-5.9-18.12l6.34-8.37a453.61,453.61,0,0,0,14.69-88l4-18.75-8.71,9.39-8.57-3.19a85,85,0,0,1-4.11-37.9l5-24.42,13.22-19.19a47.1,47.1,0,0,1,4.9-6.33c5.53-5.7,17.52-7.47,17.52-7.47l-.19-17c-5.58-1.69-9.69-7.44-15.51-7.62l-.3-.34a4.21,4.21,0,0,1-3.43,4.16,10.83,10.83,0,0,0-2.35.33,4.35,4.35,0,0,0-1.83,2c-4.48,7.57-7.51,16.49-14.58,21.71-1.74,1.29-3.71,2.33-5.07,4a23,23,0,0,0-2.36,4.16c-2.14,4.21-5.29,7.82-8.41,11.37a43.83,43.83,0,0,1-6.49,6.43c-3.61,2.7-8,4.23-11.65,6.86a47,47,0,0,0-5.56,5l-12.05,12.06-11.5,5c-1,2.33-3.18,3.85-5.29,5.23l-12.12,8c-3.88,2.54-7.75,5.08-11.67,7.55l-5.94,6.31c-10.82,12.25-27,18-42.53,23.2l-1.52-1.61c-6.93,17.67-10.91,36.56-14.38,55.29l6,1.15c4.77,3.19,8.3,7.89,11.73,12.5,6.36,8.54,12.83,17.29,16,27.44l5.59,33.35,15.2,11.59c13.5,13.83,30.65,23.46,45.73,35.56,12.21,9.8,23.07,21.22,35.43,30.85,11.78,9.17,25.86,16.89,40.77,16.06l17.14-.67a45.05,45.05,0,0,1,22.23,1.26q-.81-5-1.64-9.93a33.17,33.17,0,0,0,31.95-10C1301.32,2438.58,1300.05,2433.6,1299.59,2429.39Zm-187.42-165.26-7.11,3.55a116.89,116.89,0,0,0-33.09-11.31l38.8-14.4a1.59,1.59,0,0,1,1-.14,1.53,1.53,0,0,1,.82.8A21.34,21.34,0,0,1,1112.17,2264.13ZM1506,1325.39l-6-23.35c-9.29-19.78-24.82-35.89-40.79-50.8a664.18,664.18,0,0,0-129.08-94.19l-15.9-1.77-14.58,2q-10.62-2.1-21.41-3.23c-1.7-.18-3.4-.34-5.1-.5l-9.47-.89-5.27-2.63c-2.38-.83-4.91-1.53-6.77-3.23-1-1-2-2.27-3.43-2.19a4.09,4.09,0,0,0-2,.91l-14.59,10.41-12.46,2.11-12.75,9.88a35,35,0,0,0-3.42-5.54,2,2,0,0,0-1.19-.92,2,2,0,0,0-1.3.42,24.8,24.8,0,0,0-7.18,6.81c-5-5.45-10.53-11.16-17.75-12.9l-10.84-11.09-13.12-2.59c-7.14-5.56-17.34-3.65-26.12-1.47l-19,4.74c-5.23,1.3-10.5,2.61-15.38,4.89-6.36,3-12,7.53-18.56,9.89-9.81,3.51-21.73,2.21-29.5,9.15L1022,1188l-16.37,8.32a46.18,46.18,0,0,0-25.88,10.87c-7.13,6.3-12,15.36-12.42,24.86-4.51-.63-9.12-1.25-13.6-.44-8.45,1.52-15.46,8.2-18.59,16.2s-2.69,17.08-.1,25.27c-12.9-.26-26.92-.18-37.15,7.69l-15.76,7c1.92,46.06-8.67,92.24-3.77,138.07,2.44,22.84,8.7,45.18,10.35,68.09,1.83,25.47-2.08,51.15.51,76.56.61,6,1.64,12.15,4.67,17.38,2.46,4.23,6.09,7.62,9.78,10.82,7.79,6.73,16.32,13,26.12,16.14,10.33,3.36,21.44,3.16,32.3,2.93l94.14-2,15.49,4.84c5.93-3.1,13,.48,19.56,1.56,7.19,1.17,14.47-.76,21.67-1.93a104.62,104.62,0,0,1,19.45-1.3l2.07-1c3.83-1.61,7.93-3.27,12-2.54,3.1.55,5.9,2.43,9,2.6l-.27-5.69a28.73,28.73,0,0,0,9.51-.73,25.58,25.58,0,0,1,5-1.05,9.17,9.17,0,0,1,9.12,9.64l-9.74,6.42,22.48,14.59,5.69,22.93c.59,2.36.52,5.79-1.89,6.15a4.31,4.31,0,0,1-2.33-.55c-4.42-2-8.7-4.49-13.43-5.55a24.06,24.06,0,0,0-20,4.6c-1.45,1.15-2.82,2.51-4.59,3a11.32,11.32,0,0,1-3.9.24c-4.58-.24-9.28-.42-13.63,1.05s-8.31,4.95-9,9.48a59,59,0,0,0-30.56,1l-18.59,11.85a135.46,135.46,0,0,0-34.21,28.46c-6,7-11.68,14.88-20,19l-4,22.77c-.52,7.93-1,15.94.29,23.77,1.42,8.38,4.9,16.25,8.34,24l21.39,48.24c2.33,5.23,4.65,10.47,6.75,15.79l8.24,10.68,31.82-8.48c4.66-1.45,9.41,2.4,11.63,6.74l2.24-8.45c6.73-2.29,13.59-4.64,19.33-8.85s10.31-10.62,10.5-17.74c.16-6.12-2.86-11.94-3.1-18.07a7.1,7.1,0,0,1,.67-3.76,5.71,5.71,0,0,1,3.12-2.41c3.58-1.29,7.68-.06,10.7,2.25s5.16,5.56,7.17,8.79l2,24,10.13-5.94c5.24-1.79,10.8-2.36,16.32-2.81,7.61-.61,15.32-1,22.85.32s14.94,4.44,20.21,10l4,3.39c6.17,11.81,12.5,24.3,12,37.61l-1,1.52c-10.78,19.78-24.53,38.73-43.75,50.46l-2,2.31.78,31.7a6.46,6.46,0,0,1-.22,2.32,9.93,9.93,0,0,1-1.48,2.34c-2.53,3.62-2.31,8.41-2,12.8l31.14,3.15,6.28-4.09,2.64-5.4c-1.62-7.69-3.25-15.48-2.94-23.33a18.36,18.36,0,0,1,1.35-6.93,22.67,22.67,0,0,1,3.65-5.14l12.86-15q.75,24.54-.32,49.1l-1,.34c1.86.8,3.19,2.51,5,3.45,3.13,1.64,7.06.65,10.36,1.91l.47-.31a242.9,242.9,0,0,0-.68-77.24l-.18-.41,2.54-1.33c3.23-1.68,6.61-3.5,8.56-6.58l7.34-6c.56-.82,1.74-.86,2.73-.85L1298,1892l-5.09-5.79a74.33,74.33,0,0,0,3.12-12.64l4.5-1.6,9.16-32c-5.53-5.12-9.35-11.77-13.09-18.31q-2.5-4.38-5-8.76c5.74-.49,11.72-1.29,16.44-4.59s7.68-9.83,5.15-15l9,4.47,5.45-13.47a12.61,12.61,0,0,1-3-.71l-4.43-.11c-3.2-1.5-5.28-4.8-6.17-8.23s-.76-7-.63-10.57q.51-13.51,1-27a24.36,24.36,0,0,1,.4-4.18,45.9,45.9,0,0,1,1.86-5.44,26.87,26.87,0,0,0,1.47-8.28l-4.7-4.22a53.71,53.71,0,0,1-24.59-12.22,3,3,0,0,0-1.35-.82,2.93,2.93,0,0,0-1.14.06l-12.33,2.31-12.64,3.11-7.49-1.78a51.08,51.08,0,0,0-9.48-1.62,52.34,52.34,0,0,0-7,.35l-20.28,2-3.17-1.44a19.6,19.6,0,0,0-8.92-11.37,24.39,24.39,0,0,0,5.53-11c.59-2.75.69-5.58,1.1-8.36,1.3-8.94,5.61-17.11,9.85-25.09l10.53-22.34a67.25,67.25,0,0,0,36.57-5,32.33,32.33,0,0,0,9.3-5.8c3.1-2.92,5.3-6.76,8.72-9.3,2.57-1.91,5.67-6,8.74-6.89a97.18,97.18,0,0,1,67,3.91l11.35-7.16c2-1.6,1.61-4.64,1.3-7.16a54.15,54.15,0,0,1-.13-11,21.89,21.89,0,0,1,1.83-8,16.81,16.81,0,0,1,9-7.75,42.85,42.85,0,0,1,11.83-2.47c6.08-.61,12.27-.92,18.27.28l1.51-6.44c-.09-3.81,1.54-7.43,3.2-10.86q6.54-13.59,14.22-26.59l11.25-10.85c7,.13,15-2.33,17.88-8.73,2.37-5.22.68-11.46,2.45-16.9a29.9,29.9,0,0,0,1.43-4.35c.67-4.2-2.39-7.94-4.51-11.63-2.69-4.69-4-10-5.3-15.28l5.38-4.62c4-.93,7.37-3.54,10.91-5.62s7.79-3.71,11.69-2.43l22.11-16A585.93,585.93,0,0,0,1506,1325.39ZM1251.3,1849.77a32,32,0,0,1,7.63,1.59l6.51,3.41-.15,3.83a16.36,16.36,0,0,1-1.49,7l-1.8,4.68a35.92,35.92,0,0,1-2.29,5.1l-4.24-3.17-3.48-8.55a16.94,16.94,0,0,1-1-3,14.13,14.13,0,0,1-.24-2.75A48.59,48.59,0,0,1,1251.3,1849.77Zm-38.36-617.41c-2.65-.48-5-2-7.43-3.15s-5.3-2-7.8-.93a12.43,12.43,0,0,0-1.25-5.26,1.85,1.85,0,0,0-.71-.89,2,2,0,0,0-1.76.29,30.1,30.1,0,0,0-10.85,9.91q-2.87-6.33-5.72-12.68a14.83,14.83,0,0,0-3.53-5.48l5.72-9.43a9.56,9.56,0,0,0,3.32-.36q1.75,8.1,3.08,16.3a31.41,31.41,0,0,0,8.9-8.29,22,22,0,0,0,18.44,9.42Z"></path>
    <path data-name="7" data-official="Cheiranthus Cheiri" data-plain="Wall-flower" data-loc="England" d="M839.93,2160.26q1.83,19.36,4.87,38.59l-1.06,10.76c-3.42,9.2-7.91,18.68-16.2,23.93-7,4.46-16,5.3-22.72,10.24l-6.27,4.61A26.37,26.37,0,0,0,786.88,2237a2.84,2.84,0,0,0-1.78-.4c-1,.21-1.44,1.28-2,2.13-2.45,4-8.71,4.54-12.48,1.69s-5.19-8.06-4.57-12.76,2.94-9,5.47-13,5.33-7.88,7.09-12.28a37,37,0,0,0,2.18-8.75,16.83,16.83,0,0,1,1.17-5.19c1.93-4,7.58-6.64,6.67-11l4.25-7.2a66.54,66.54,0,0,1,16.8-11.33,23.31,23.31,0,0,1,4.55-1.7c4.91-1.18,10.14.26,15.1-.69ZM656.81,2306.7c3.92,14.53,7.86,29.17,9,44.18.58,7.51.46,15.08,1.45,22.55,1.08,8.13,3.48,16,5.51,24,6.19,24.18,9.08,49.08,11.31,73.94.71,8,1.47,16.28,5.71,23.06,2.94,4.69,7.31,8.26,11.36,12a123.18,123.18,0,0,1,13.42,14.63c3.36,4.31,6.87,9.15,12.16,10.53,3.75,1,7.75,0,11.26-1.64,13.43-6.21,21.39-22.11,19-36.7-1.31-7.82-7.14-16.22-15-15.47.09-7.52-3.28-14.57-5.8-21.66-4.12-11.63-6-23.92-7.87-36.12l-7.56-49.46c-1.84-12.06-3.62-24.78.83-36.13l2.85-8.08c-4-2.85-5.48-8.46-9.78-10.81-2.41-1.31-5.31-1.35-7.93-2.2-4.76-1.53-8.21-5.55-12.09-8.7-4.13-3.36-8.9-5.83-13.62-8.27l-14.79-7.64-19.18-.65ZM454,652.5c-40.63-9.88-89.58-10.57-117.47,20.58-19.83,22.13-23.14,53.93-27.87,83.26a563.73,563.73,0,0,1-36.18,127c-7.46,17.87-15.89,35.53-20,54.47-3.59,16.69-3.68,33.92-3.4,51,.81,48.55,4.94,98.52,26.7,141.93l7.43,12.15c1.9,5.77,8.5,8.39,12.51,13,4.14,4.72,5.32,11.28,6.33,17.47,1.16,7.13,2.32,14.41,1.12,21.53-1,5.82-3.49,11.25-5.08,16.93-2.3,8.19-2.66,16.79-2.83,25.3-.28,13.53-.11,27.19,2.87,40.38s9,26,18.92,35.21l7.19,6.09a57.13,57.13,0,0,1,11,6.84c3.59,3.07,3.34,6,6.58,9.4s5.24,7.5,9.92,8.12c4.93.65,10.92-.59,14.57-4,0,0,1.81,5.4,1.43,7.25-.83,4.1-5,5.83-6.73,9.67-.79,1.78-1.72,3.81-1.64,5.76.28,6.37-1.44,8.73-1.17,15.1l0,5.38c7.75,7.53,7.43,21.7,17.41,31.75,2.72-4.58,6.29-9.66,10.47-13,2.33,3.22,2.47,10.28,2.14,14.24,7.39-1.38,14-8.39,17.35-15.13,5.47,4.45,5.42,12.66,4.9,19.69,5.69-1.76,14-2.43,19.48-.09a7,7,0,0,0-2.21-4.87c5.44-.65,9.14,2.73,12.3,7.2a58.25,58.25,0,0,1,7,13.11l14.84,4.56a28.25,28.25,0,0,1,4.1,5.27l2.11,6c.53,5.09-6.46,8.73-5.71,13.79a5.77,5.77,0,0,1,2.5-1.44,30.94,30.94,0,0,1,.94,7.9c5.4-4.36,13.24-2.83,20.12-3.74,9.86-1.3,18.1-7.86,25.79-14.17l14.23-6.6c7.3,7.16,8.77,18.59,6.88,28.64s-6.59,19.31-10.1,28.92-5.84,20.22-2.81,30l7.22,16.88c3.51-2.21,7.92-2.51,11.59-4.44a35.52,35.52,0,0,1,3.44-1.84c3.71-1.44,7.83.1,11.48,1.67a12.61,12.61,0,0,1,3.09,1.72c2.12,1.78,2.83,4.71,3.14,7.45a43.32,43.32,0,0,1,.17,8.13l-1,12.28c-1.32,4.22-5.2,7.1-9.12,9.15s-8.17,3.64-11.44,6.62c-3.7,3.38-5.74,8.28-6.57,13.22s-.57,10-.3,15l.88,16.48.54,10.86a188.11,188.11,0,0,0,15.2,62.38l6,7.92c2.22-2,4.83-4.16,7.82-3.88,1.74.17,4,.94,4.86-.58a3.2,3.2,0,0,0,.17-2l-3.84-29.68a1.91,1.91,0,0,0,2.43-1,5.56,5.56,0,0,0,.41-2.84l-.32-9.68c2.24,1.29,5.29-.13,6.53-2.39s1-5.05.47-7.57-1.52-5-1.73-7.54a27.86,27.86,0,0,1,7.85,12.23,15.9,15.9,0,0,0,2,5c1.09,1.45,3.17,2.37,4.76,1.5a60,60,0,0,1,6.08,23.35c.33,6.46-.38,13,.7,19.37.56,3.3,1.59,6.49,2.21,9.77,1.48,7.94.49,16.14-1.14,24-.77,3.71-1.68,7.45-1.51,11.24a47.1,47.1,0,0,0,.81,5.89,129.7,129.7,0,0,1,1.8,26.91L596,1803.2,590.34,1817l-2,4.72c-1.86,4.49-3.72,9-5.33,13.56a5.71,5.71,0,0,0-.38,4c.5,1.26,2.42,1.94,3.25.86a12,12,0,0,0,.42,3.26l-1.13,21c-7.2,13.83-15.09,27.84-27.31,37.53-4.15,3.29-9.27,7.06-8.88,12.34l7.11,3.34a79.35,79.35,0,0,0,42,15.48c5.25.34,10.55.16,15.74,1,17.35,3,30.44,17.13,46.49,24.35l5.48,2a20,20,0,0,1,11.75,2,51.73,51.73,0,0,1,10,6.74c1.83,1.48,3.83,3,6.17,3.1s4.42-1.29,6.52-.61l1.15-1.55c8.17-9.11,16.34-18.34,22.49-28.91,9.79-16.83,14-36.35,15.71-55.73s1-38.9,1.57-58.35c.14-4.79.41-9.75,2.6-14l6.09-1.37c10.55-1,20.07,6.53,30.6,7.7a52.75,52.75,0,0,0,9.65-.13c5.75-.43,12.32-1.32,15.49-6.14,4-6.09,0-14.37,1.74-21.46l5.47-7.6a34.45,34.45,0,0,1-.6-12.11c.28-2.89.81-5.94,2.72-8.13s5.61-3.05,7.73-1.05a10.49,10.49,0,0,0-1.59-9.5c-2.13-2.8-5.69-4.51-7.08-7.75-1.5-3.48,0-7.52-.6-11.26L810,1722.49a240.62,240.62,0,0,1-1.71-33.3c.3-21.93,3-43.74,5.75-65.5q2.21-17.61,4.4-35.22L817,1574c-3.41-15.67-7.05-31.6-15.11-45.47-15.7-27-47-44.4-55.9-74.39l-7.47-1.45c-3.5-6.54.06-14.74,5.06-20.21s11.46-9.69,15.36-16a25.14,25.14,0,0,0,3.2-18.22c2,.83,4.37-.13,5.87-1.68a20.55,20.55,0,0,0,3.32-5.54c5.15-10.53,13.63-19,22-27.26-8.56,3.16-17.93-.84-27-1.41-11.34-.72-22.28,3.95-32.43,9q-14.24,7.14-27.76,15.6l-15.76-2.78c-8.53-3-14.6-10.37-20.21-17.45q-3.69-4.63-7.37-9.29c-5.31-6.71-11-14.84-8.75-23.11l-2.41-16.34a33.71,33.71,0,0,0-6-17.68,8.32,8.32,0,0,1-1.44-2.58,9,9,0,0,1,.11-3.47,22.36,22.36,0,0,0-3-14.32,6.59,6.59,0,0,1-1.08-2.33,6.44,6.44,0,0,1,.21-2.26,29.16,29.16,0,0,0-5.4-23.1l6.37-2.14a2.83,2.83,0,0,0,1.54-.92,3,3,0,0,0,.29-1.79,13.88,13.88,0,0,1,1.11-6.7,6.76,6.76,0,0,1,5.24-4c-2.73.1-4.08-3.77-2.74-6.14s4.12-3.47,6.69-4.4l17-5.57c10.66,21.77,34,35.42,57.88,39.35,13.46,2.2,27.22,1.72,40.82.71,12.35-.92,26.42-3.33,32.89-13.89,3.51-5.74,4-12.77,5.44-19.34,1.88-8.37,5.52-16.22,8.31-24.34a123.21,123.21,0,0,0,6.59-42.87c-.34-13.63-2.94-27.09-5.85-40.41-4.2-19.23-9.08-38.39-16.28-56.72-6.17-15.74-14.08-30.92-17.85-47.4l-.51-12.33c-4.34-41.56-8.94-84.09-27.13-121.7l-10.54-17.33c-12.51-19.73-34.24-32.07-56.69-38.56a79.14,79.14,0,0,0-19.21-3.46c-24.26-.83-45.69,14.64-65,29.39l-10,1.19c-2.31-1.31-2.92-4.3-3.3-6.93-1.8-12.37-3.76-24.85-8.5-36.42S569,787.36,558,781.45l-12.37-12.72c-4.05-10.17-9.94-19.49-15.8-28.75l-51.42-81.21Z"></path>
    <path data-name="7a" data-official="" data-plain="Silique, opened" data-loc="" d="M1953.86,2883.37c-10.34-13.65-11.18-32-12.95-49s-6-35.75-20-45.55c-10.26-7.17-23.49-7.91-35.94-9.14-22-2.18-46.14-8.11-58.57-26.43-12.57-18.52-8.87-43.85.48-64.18s23.62-38.19,32.18-58.87a118.34,118.34,0,0,0,8.29-57.49c-.7-6.62-2-13.38-.5-19.88,1.83-8.07,7.57-14.58,11.85-21.66,9.22-15.25,11.75-33.45,15.81-50.8,17.41-74.45,65.31-139.24,81.09-214,1.93-9.16,4-19.46,11.78-24.68,8.35-5.61,20.33-2.56,27.5,4.5s10.49,17.08,12.77,26.87c5.16,22.1,6.25,44.92,9.63,67.36,9,60.24,34.49,117.66,38,178.47,2.09,36.06-3.62,72.16-3,108.28.79,48.47,12.16,100.68-11.73,142.87-7.94,14-19.92,27.68-18.46,43.74.58,6.36,3.29,12.31,4.83,18.51a50.64,50.64,0,0,1-65.55,60.07Z"></path>
    <path data-name="7b" data-official="" data-plain="Section of Seed" data-loc="" d="M1704.67,2864a96.56,96.56,0,0,1-23.22-67.83,29.48,29.48,0,0,1,2.32-11.13c2.54-5.32,7.63-9,13-11.45,11.31-5.13,24.12-5.51,36.54-5.81l28.45-.69c14.23-.35,28.83-.64,42.25,4.09s25.65,15.61,27.71,29.7c.41,2.78.47,5.76,2,8.1,1.29,1.93,3.4,3.12,5.39,4.32,11.41,7,21.29,17.93,23,31.18s-7.13,28.15-20.41,29.65c-9.07,1-18.84-3.87-27,.14-7.28,3.56-9.94,12.57-15.84,18.14-8.22,7.75-20.91,7.49-32.18,6.76-17.2-1.13-35.22-2.52-49.73-11.81Z"></path>
    <path data-name="8" data-official="Schizopetalon Walkeri" data-plain="" data-loc="Chile" d="M608.05,2744.85c-11.44,9.77-27,13-41.9,14.91-19.79,2.48-40.49,3-59-4.39-22.07-8.76-38.68-27.65-60.06-38-25.48-12.29-55.51-11.42-81.7-22.11-41.11-16.77-66.12-59.28-78.65-101.88s-15.62-87.59-28.93-130c-7.57-24.06-18.34-47-29.08-69.8l-14.4-24.09c-7.95-13.65-24.79-20-40.58-20s-31,5.18-46.2,9.62c-25.14,7.37-55.74,11.53-74.52-6.72-6.46-6.28-10.61-14.53-14.11-22.82-8.28-19.64-13.56-41.7-7.8-62.21C36,2250,48.24,2235.71,61.1,2223c10.61-10.48,22.29-20.55,36.44-25.26l28.16-23.09c23-18.15,55.94-29,64.49-57.07,4.72-15.47.11-32.62-8.79-46.13s-21.65-23.94-34.58-33.66c-9.67-7.27-19.62-14.3-30.64-19.29-12.64-5.72-26.61-8.72-38.14-16.43-22.45-15-30.44-43.9-35-70.52a631,631,0,0,1,8.35-253.77c2.35-9.75,5.33-20.11,13.06-26.51,6.94-5.76,16.47-7.21,25.49-7.46a125.63,125.63,0,0,1,60.2,13.58L143.87,1595A245.82,245.82,0,0,1,116.24,1544c-2.65-6.71-5.14-13.74-10.14-18.93-9.69-10.07-25.56-10.27-39.46-8.78s-28.91,3.75-41-3.17c-13.7-7.81-19.13-25.12-19-40.89s4.48-31.25,5.07-47c.72-19.47-4.36-38.71-4.69-58.19-.29-16.57,2.89-33.06,7.74-48.91,3-9.66,6.89-19.61,14.76-25.94,15.33-12.32,37.81-6,56.23.91-9.94-24.11-18.1-49.77-16.4-75.8s15-52.6,38.55-63.91c3.08-1.49,6.45-2.82,8.49-5.57,2.27-3.06,2.36-7.15,3.17-10.88,4.17-19,28.57-27.4,47.14-21.62s32.33,21.1,45.11,35.77a20.35,20.35,0,0,0,16-12.16c1.1-2.64,1.67-5.6,3.54-7.75,5.72-6.57,16.77-.42,25.08-3l19.5,2.67,7.43,12.15c1.9,5.77,8.5,8.39,12.51,13,4.14,4.72,5.32,11.28,6.33,17.47,1.16,7.13,2.32,14.41,1.12,21.53-1,5.82-3.49,11.25-5.08,16.93-2.3,8.19-2.66,16.79-2.83,25.3-.28,13.53-.11,27.19,2.87,40.38s9,26,18.92,35.21l7.19,6.09a57.13,57.13,0,0,1,11,6.84c3.59,3.07,3.34,6,6.58,9.4s5.24,7.5,9.92,8.12c4.93.65,10.92-.59,14.57-4,0,0,1.81,5.4,1.43,7.25-.83,4.1-5,5.83-6.73,9.67-.79,1.78-1.72,3.81-1.64,5.76.28,6.37-1.44,8.73-1.17,15.1l0,5.38c7.75,7.53,7.43,21.7,17.41,31.75,2.72-4.58,6.29-9.66,10.47-13,2.33,3.22,2.47,10.28,2.14,14.24,7.39-1.38,14-8.39,17.35-15.13,5.47,4.45,5.42,12.66,4.9,19.69,5.69-1.76,14-2.43,19.48-.09a7,7,0,0,0-2.21-4.87c5.44-.65,9.14,2.73,12.3,7.2a58.25,58.25,0,0,1,7,13.11l14.84,4.56a28.25,28.25,0,0,1,4.1,5.27l2.11,6c.53,5.09-6.46,8.73-5.71,13.79a5.77,5.77,0,0,1,2.5-1.44,30.94,30.94,0,0,1,.94,7.9c5.4-4.36,13.24-2.83,20.12-3.74,9.86-1.3,18.1-7.86,25.79-14.17l14.23-6.6c7.3,7.16,8.77,18.59,6.88,28.64s-6.59,19.31-10.1,28.92-5.84,20.22-2.81,30l7.22,16.88c3.51-2.21,7.92-2.51,11.59-4.44a35.52,35.52,0,0,1,3.44-1.84c3.71-1.44,7.83.1,11.48,1.67a12.61,12.61,0,0,1,3.09,1.72c2.12,1.78,2.83,4.71,3.14,7.45a43.32,43.32,0,0,1,.17,8.13l-1,12.28c-1.32,4.22-5.2,7.1-9.12,9.15s-8.17,3.64-11.44,6.62c-3.7,3.38-5.74,8.28-6.57,13.22s-.57,10-.3,15l.88,16.48.54,10.86a188.11,188.11,0,0,0,15.2,62.38l6,7.92c2.22-2,4.83-4.16,7.82-3.88,1.74.17,4,.94,4.86-.58a3.2,3.2,0,0,0,.17-2l-3.84-29.68a1.91,1.91,0,0,0,2.43-1,5.56,5.56,0,0,0,.41-2.84l-.32-9.68c2.24,1.29,5.29-.13,6.53-2.39s1-5.05.47-7.57-1.52-5-1.73-7.54a27.86,27.86,0,0,1,7.85,12.23,15.9,15.9,0,0,0,2,5c1.09,1.45,3.17,2.37,4.76,1.5a60,60,0,0,1,6.08,23.35c.33,6.46-.38,13,.7,19.37.56,3.3,1.59,6.49,2.21,9.77,1.48,7.94.49,16.14-1.14,24-.77,3.71-1.68,7.45-1.51,11.24a47.1,47.1,0,0,0,.81,5.89,129.7,129.7,0,0,1,1.8,26.91L596,1803.2,590.34,1817l-2,4.72c-1.86,4.49-3.72,9-5.33,13.56a5.71,5.71,0,0,0-.38,4c.5,1.26,2.42,1.94,3.25.86a12,12,0,0,0,.42,3.26l-1.13,21c-7.2,13.83-15.09,27.84-27.31,37.53-4.15,3.29-9.27,7.06-8.88,12.34l7.11,3.34A79.89,79.89,0,0,1,534.61,1939c-5.3,3.56-11.07,6.51-15.71,10.9-9.29,8.81-12.69,22-15.69,34.43l6.87,27.57,4.08,8.53a4.42,4.42,0,0,1,.6,2.13,4.77,4.77,0,0,1-.54,1.62c-4.29,9.35-2.42,20.39-5.22,30.29-1.12,4-3,7.95-2.28,12l4.24,11.38a138.55,138.55,0,0,0,19.24,89.52c11.59,18.81,27.51,34.53,43.66,49.61l16.22,5.76c24.21-8.28,53.09-.45,69.82,18.92-2.5-2.33-6.78-1.58-9.25.77s-3.51,5.81-4.2,9.15A78.31,78.31,0,0,0,645,2269.8l-15.12,14.87a114.59,114.59,0,0,0-28.14,3.49c-5.52,1.4-11.86,4.22-12.73,9.86a15.36,15.36,0,0,0,.36,5.18l6.41,35.16a219.27,219.27,0,0,0,5.34,24.09c9.69,32.12,33.3,57.82,55.68,82.82,9.88,11.05,19.75,22.32,26.76,35.38l6.28,13.74c2.94,4.69,7.31,8.26,11.36,12a123.18,123.18,0,0,1,13.42,14.63c3.36,4.31,6.87,9.15,12.16,10.53l12.69,9.16c7.43,5.28,10.17,14.8,14.54,22.79a110.12,110.12,0,0,0,10.08,14.5l9.2,9.27c-1,11.38,0,22.83.87,34.21l-2.06,9.69c3.21,20.71-8.14,40.71-10.91,61.48-2.22,16.7,1.14,33.56,3.34,50.26s3.12,34.32-3.59,49.77c-3.84,8.86-11.34,17.28-21,17.67-5.08.2-10-1.91-14.14-4.94-13.86-10.29-17.59-30.26-13.21-47Z"></path>
    <path data-name="9a" data-official="Silicule of Thlapsi latifolium*" data-plain="" data-loc="" d="M395,2902.14a114.33,114.33,0,0,1,36.27-2.58c7.82.7,16.18,2.11,23.15-1.5,6.48-3.35,10.23-10.38,12.32-17.36s2.95-14.36,5.65-21.13c3.08-7.73,8.5-14.53,10.33-22.64,1.47-6.56.47-13.38-.1-20.08-.84-10-.68-20.09-2.11-30-2.59-18.05-10.64-35.47-23.6-48.31s-30.9-20.82-49.14-20.66c-10.15.08-20.11,2.59-30.19,3.78-14.28,1.69-28.82.74-43,3.13s-28.69,8.94-35.78,21.45c-2.92,5.13-4.4,10.95-5.45,16.75-5,27.54,1.25,59.55,24,75.79,6.12,4.35,13.1,7.35,19.4,11.44,16.71,10.83,27.56,28.47,37.85,45.51Z"></path>
</svg>
