
<svg xmlns="http://www.w3.org/2000/svg" viewBox="0 0 1942 2640" id="illustration" preserveAspectRatio="xMidYMid meet">
    <title>Nyctaginaceæ</title>
    <path data-name="1" data-official="Mirabilis Jalapa" data-plain="Marvel of Peru" data-loc="West Indies" d="M812,1813.77q1.2,30.13,2.39,60.28c.19,4.83.37,9.75-.9,14.41s-4.27,9.1-8.76,10.9c-4.68,1.88-10,.61-15,1.76a15.75,15.75,0,0,0-10.36,8.18c-2.59,5.2-2.3,11.88-6.32,16.06-3.24,3.37-8.34,4.07-13,4-7.41-.05-15.76-2.13-19.36-8.61-1.82-3.29-2.1-7.19-2.28-11-.31-6.47-.4-13.17,2-19.19,4.09-10.27,14.54-16.64,20-26.25,4.52-8,5.24-17.49,5.76-26.65q1.45-26.19,1.76-52.44l1.73-10.26c7.71-17.35,5.07-37.53,10-55.86l1.22-3.37a26.16,26.16,0,0,0,11.3-2.6l1.59.24c2.31,15.1,1.12,30.91,6.45,45.23,1.36,3.64,3.12,7.13,4.37,10.82,2.38,7,2.8,14.58,2.94,22Zm-1.43-199.09c.6-.71-.47-1.7-1.4-1.74s-2,.22-2.68-.42c.6-1,1.78-1.35,2.63-2.1,2-1.75,1.69-4.85,1.25-7.45a1.31,1.31,0,0,0-.29-.75,1.37,1.37,0,0,0-.89-.3l-18.77-1.6a20.73,20.73,0,0,0-.91,6.85l-.4,18.55.51.87,3.43,2.08a3.87,3.87,0,0,0,1.07.5,3.8,3.8,0,0,0,1.26,0c2.07-.19,4.36-.5,5.71-2.07s1.32-4.08,2.34-6c1.38-2.57,4.51-3.66,7.41-4Zm-5.23-54.32-14.81-9.76a26.58,26.58,0,0,1-3-2.22c-.94-.84-1.87-1.86-3.12-2-.07,3,0,6,.19,9l.57,2.58a15.52,15.52,0,0,0,4.51,3.91l.8-1.71a6.45,6.45,0,0,0,3.05,5,6.84,6.84,0,0,0,.5-2.05,18.91,18.91,0,0,0,3.8,4.56l.9-2.36a3.52,3.52,0,0,1,.37,2.07c0,.71.26,1.56,1,1.76.93.28,1.64-.82,2-1.72a7.57,7.57,0,0,0,.59,3,3.48,3.48,0,0,0,2.26,2,1.69,1.69,0,0,0,1.13-.08,2.39,2.39,0,0,0,1-1.81,13.81,13.81,0,0,0-.24-6.23Zm-26.54-78.28a9.89,9.89,0,0,0,2,2.45,3.41,3.41,0,0,0,2.93.79,8.06,8.06,0,0,1-1.28,1.53,1.64,1.64,0,0,0-.38,1.83c.39.63,1.31.64,2,.47a3.23,3.23,0,0,1,2.18-.1l-3,3.67a.88.88,0,0,0-.25.51.82.82,0,0,0,.26.48,5.5,5.5,0,0,0,4.56,1.69c1.29-.15,2.62-.75,3.82-.27a36.47,36.47,0,0,1-3.66,3.25,5.08,5.08,0,0,0,5.47,3.5l-2.09,3a1.15,1.15,0,0,0-.27.69,1.08,1.08,0,0,0,.48.69,31.86,31.86,0,0,1,5,5.44,19.27,19.27,0,0,0,2.49,3.12,7.34,7.34,0,0,0,4.06,1.83c.7.08,1.67-.19,1.62-.9v-2.88c-.13-12.12-.71-24.27-2.83-36.2-1.79-10.13-4.69-20.08-5.61-30.32l-1.82-2.87c-.75-3.32-1.53-6.71-3.28-9.63a15.39,15.39,0,0,1-1.39-2.51,10.57,10.57,0,0,1-.31-4.38l-.51-2.3a7.39,7.39,0,0,1-1.91-4.28,7,7,0,0,0-.5-2.83c-.88-1.5-3-1.54-4.73-1.39a2.61,2.61,0,0,0-3.23-3.92,3.57,3.57,0,0,0-4-4.87,3.08,3.08,0,0,0-1.49-4.06c-1.19-.5-2.89-.37-3.42-1.56-.15-.35-.15-.76-.33-1.11a2.53,2.53,0,0,0-1-.91l-2.53-1.49a2.9,2.9,0,0,0-2.6-.55c-.73.35-1,1.22-1.55,1.82-1.1,1.22-3.31,1.43-3.76,3-.4,1.37.86,2.58,1.87,3.58,4.51,4.48,5.86,11.14,7,17.39q5.16,27.27,11.5,54.3ZM514.69,794.13a8.69,8.69,0,0,0,5.3-2.52c1.49-1.34,2.76-2.91,4.34-4.13,4-3.07,9.41-3.67,13.4-6.69,2.88-2.18,4.89-5.54,8.18-7a16.86,16.86,0,0,0,3.35-1.5c1-.74,1.61-2.19.92-3.21s-1.8-1-2.8-1.34c-2.69-.93-4.21-3.74-5.2-6.41s-1.79-5.57-3.9-7.48l.06-6.44c-11.87-5.79-21.91-14.76-33.51-21.08-23.24-12.65-50.84-13.75-77.29-13.77-4.63,0-9.82-.2-13-3.54a12.61,12.61,0,0,1-3-7.52c-.5-4.9.6-9.81.82-14.74s-.67-10.3-4.28-13.66-9.12-3.86-14.07-3.37a26.19,26.19,0,0,0-12.19,3.88c-5.13,3.49-8.1,9.44-9.59,15.46s-1.72,12.28-2.61,18.42a6.93,6.93,0,0,1-1.18,3.48c-1.17,1.46-3.21,1.79-5.07,2l-31.05,3.92-8.82.19a243.82,243.82,0,0,0-53,3.45c-10.22,1.79-21.27,4.86-27.14,13.42-3.48,5.06-4.6,11.43-4.42,17.57A47.26,47.26,0,0,0,262,790.25c24,13.86,55.85,4.35,80.72,16.53,21.08,10.31,32.22,33.75,38.44,56.37s9.31,46.61,21.18,66.84l-4.11-.32-5.44-2.94C382.2,918,375.62,905.15,365,896.49a48.89,48.89,0,0,0-38.23-10.17c-8.23,1.35-16.2,4.83-24.53,4.49-4.28-.18-8.44-1.37-12.63-2.24-13-2.69-26.46-2.28-39.75-1.86-7.58.24-15.23.49-22.55,2.45-7.78,2.08-14.91,6-21.85,10.11-17.37,10.21-35,22.52-43,41-2.82,6.54-4.34,13.66-8,19.79-4.55,7.68-12,13.1-18.63,19.08s-12.91,13.37-13.73,22.27l-2.9,8-1.87,26.53c-.38,5.45-.76,10.95-.09,16.38,1.39,11.13,7.09,21.17,12,31.27,15,31,23.23,65.24,40.79,94.9l4.62,3c6.74,16.92,24.13,29,42.33,29.48,3.77.09,7.56-.28,11.31.14,7,.77,13.34,4.16,20.14,5.84,6.15,1.52,12.56,1.63,18.9,1.41a190,190,0,0,0,82.4-22.08,256.72,256.72,0,0,0-.83,57.52c.73,7.44,1.79,14.92,1.16,22.38s-3.14,15-8.53,20.22l-2.33,4.47c-3.77,3.33-7.64,7.88-6.5,12.78.76,3.3,3.74,5.74,7,6.78s6.7.93,10.09.74c17.14-.95,35-3.83,48.72-14.16,5.21-3.92,9.63-8.79,14.59-13a76.9,76.9,0,0,1,27.49-15c11.19-3.4,23-4.2,34.38-6.81s22.93-7.48,29.9-16.86c4.38-5.9,6.7-13.26,11.74-18.61,3.76-4,8.73-6.56,13.61-9.06l15.34-7.86,2.06-3.17a58.46,58.46,0,0,0,6.58-15.51c1.54-5.88,2.15-12,3.73-17.84s4.28-11.71,9.06-15.46c3.52-2.76,7.87-4.18,12-5.9a79.6,79.6,0,0,0,33.21-26.06,84.7,84.7,0,0,0,15,18.35c5.75,5.29,12.36,9.93,16.31,16.66l6.83,6.74c2.37.77,4.15,2.71,5.69,4.66,1.32,1.68,2.55,3.42,3.79,5.16,4.64,6.55,9.28,13.1,13.51,19.92,5,8.08,9.48,16.63,11.71,25.87l1.41,7.5q23.37,46.77,48,92.85c3,5.7,6.15,11.48,7.54,17.79l3.68,4.55c2-.26,3.34,2.28,5.3,2.24.56,0,1.14-.22,1.64,0,1.19.58.37,2.83,1.52,3.48.5.28,1.12.09,1.69.09a2.54,2.54,0,0,1,1.78,4.39,3.9,3.9,0,0,0,2.65.53,4.56,4.56,0,0,1,3.34,1.12,2.19,2.19,0,0,1,0,3.19c-.35.25-.78.35-1.15.57a1,1,0,0,0-.58,1,1.34,1.34,0,0,0,.51.65,44.3,44.3,0,0,0,7.53,5.27,1.43,1.43,0,0,0,.84.21,1.32,1.32,0,0,0,.67-.44c2.19-2.32,2.5-5.81,2.45-9a65.83,65.83,0,0,0-.63-8.41l-1.51-4.12c-9-20.09-18.18-40.07-27.38-60l-12.4-26.91-7.27-15.79-2.3-2.6c-2.2-3.59-6-6.1-7.75-9.9l-.81-2.15c-6.66-7.26-11.2-16.17-15.6-25l-3.21-6.45a20.07,20.07,0,0,1-2-5.24,57.18,57.18,0,0,1-.25-5.86c-.28-3.87-2-7.48-3.66-11l-.59-5.41q-21-35.67-38.33-73.31c-1.62-3.52-3-8.13-.33-10.87,1.8-1.82,4.67-1.92,7.22-1.8,14.37.64,28.64,4.32,43,3.16,18.26-1.49,35.19-10.85,48.74-23.16s24.15-27.51,34.28-42.77c7-10.46,14.28-21.5,25.55-27l3.13-3.8c2.14-1,3.74-2.89,5.47-4.52a33.63,33.63,0,0,1,10.59-6.72l4.43-3.86-26.83-16.55c-2.34-1.45-4.69-2.9-6.92-4.51-2.82-2-5.44-4.36-8.25-6.42-5.3-3.88-11.21-6.84-17.12-9.73a45.06,45.06,0,0,0-9.56-3.77c-8.07-1.83-16.49.84-24.76.35l-6.85.09a110.37,110.37,0,0,0-13.36.65c-14.93,1.86-28.92,8.93-40.48,18.56a39.68,39.68,0,0,1-6.76,5c-7.22,3.81-16.15,2-23.91,4.46A33.21,33.21,0,0,0,636.76,980,56.91,56.91,0,0,0,633,936.9l-.65-4.11a10.72,10.72,0,0,1-4.76-6.55,19,19,0,0,1-.13-8.25,2.78,2.78,0,0,0,0-1.43,2.43,2.43,0,0,0-.92-1.09,12.42,12.42,0,0,0-4.65-2.22c-1.74-.43-3.56-.47-5.31-.85a6.85,6.85,0,0,1-4.47-2.73,75.26,75.26,0,0,0-12,2l-5.42.69c-10.51,9.25-16.29,22.6-21.75,35.48a84.25,84.25,0,0,0-4.07-14.24,28.06,28.06,0,0,0-8.65-11.84c-1.5-1.12-3.35-2.43-3.21-4.29a5.14,5.14,0,0,1,.42-1.47l4-10,.85-6.09a57.94,57.94,0,0,0-10.9-37.37l-7.78-10.91a8.55,8.55,0,0,1-8.52-1.91c-1.22-1.18-2.12-2.75-3.64-3.48-1.06-.52-2.44-.63-3.07-1.63s-.22-2.55-1.09-3.38a4.72,4.72,0,0,0-2-.72c-2.48-.76-3.45-3.63-4.9-5.77a11.55,11.55,0,0,0-11.15-4.86c-2,.32-3.85,1.16-5.83,1.5s-4.27.05-5.57-1.48l-3.16,4.24a89.49,89.49,0,0,0-4.39,46.38l2.06,5.26c1.54,11.51,9.59,20.91,14.59,31.39,5.87,12.3,7.53,26.32,6.32,39.89a2.87,2.87,0,0,1-.68,1.94,3,3,0,0,1-1.73.6c-3.64.45-7.72.78-10.6-1.49s-3.54-6.4-5.72-9.37a10.68,10.68,0,0,0-7.31-4.25c-1.7-.2-3.44,0-5.11-.35-2.49-.55-4.51-2.32-6.41-4-6.51-5.86-13.06-11.88-17.59-19.37-3.3-5.49-5.41-11.59-8.26-17.32-3.36-6.76-7.74-13-11-19.76a69.94,69.94,0,0,1-6.73-36.13c1.05-12.64,6.37-25.84,17.33-32.21,14-8.12,32.58-2.9,47.1-10.05Zm561.16,1011.39c-7.34-2.36-14.77-4.76-21.28-8.87-3.19-2-7.14-4.5-10.38-2.57-1.65,1-2.51,2.87-3.26,4.65-19.74,47-26.22,98.39-32.52,149l2.75,6.9a25,25,0,0,0,9.19,13c2.67,1.94,5.7,3.33,8.29,5.37s4.78,4.85,7.21,7.24,5.39,4.51,8.78,4.88,7.2-1.55,8-4.86c.7-2.94-.92-6.45.93-8.84s5.4-1.7,8.36-1.86c5.4-.3,10.14-4.15,12.76-8.89s3.47-10.24,3.88-15.63c.34-4.63.14-9.9-3.3-13-3.75-3.39-9.86-2.77-13.8-5.94-3-2.37-4.08-6.47-3.84-10.25s1.65-7.39,2.93-11c6.74-18.85,10.3-38.67,13.83-58.38l1.33-9.76q.63-10.55,2-21Zm4.54-17c-2.15-1.34-3.36-3.72-4.59-5.93a72.21,72.21,0,0,0-8.89-12.56,16.93,16.93,0,0,0-5.69-4.63c.4,1.47-.71,3.11-.08,4.49a6,6,0,0,0,1,1.28c2.66,3.17,1.16,8.18,3,11.89a10.39,10.39,0,0,0,4,4,18.92,18.92,0,0,0,11.16,2.68Zm-18.39-44c5.94,8.28,14.36,14.62,19.88,23.19,1.07,1.65,2,3.38,3,5.1l3.81,6.92a35.05,35.05,0,0,0-8-24.06c-1.4-1.68-3-3.24-4.34-4.94a30.31,30.31,0,0,1-6-12.43c-.5-2.27-.86-4.81-2.65-6.3a2.66,2.66,0,0,0-2-.69c-1.14.16-1.85,1.27-2.36,2.29a41.43,41.43,0,0,0-2.66,6.69Zm425.89-191.43c-3.28-.57-6.15-2.51-9.27-3.68-8.22-3.08-17.75-.49-24.81,4.73-2,1.51-4,3.25-6.32,4.28a23.76,23.76,0,0,1-4.56,1.29c-6.47,1.37-13.17,2.74-19.65,1.4a34.61,34.61,0,0,0,16.43-17.63,11.27,11.27,0,0,1,2.27-4.08,10,10,0,0,0,1.94-1.84c.59-1,.39-2.27.32-3.43-.45-7.23,4.62-13.49,7-20.31a28.73,28.73,0,0,0,1.14-14.68l-1-6.6q-8.23-12.4-17.11-24.38c-4.66-6.28-9.48-12.5-15.35-17.67-9.54-8.41-21.39-13.66-33-18.78-7.49-3.29-15.1-6.62-23.21-7.72-7.32-1-14.76-.15-22.09.72-16.66,2-33.51,4-49.22,9.86S1261,1450.64,1253,1465.4c-4.92,9.09-7.66,20.24-16.35,25.86s-19.78,3.57-30,3.43a76.71,76.71,0,0,0-33.1,7l13-49.15c2-7.65,4.09-15.42,8.1-22.24,3.5-5.95,8.35-11,12.25-16.68a61.32,61.32,0,0,0,10.1-26.39c.52-4,.63-8.18-1-11.87s-5.3-6.7-9.31-6.42c-4.17.29-8.25,3.93-12.06,2.21s-3.79-6.73-3.34-10.73l-5.39-7.92q.07-23.05,1.8-46.06l.5-2.33c.08-.41-.31-.77-.71-.89a7.94,7.94,0,0,1-1.21-.31,2.2,2.2,0,0,1-1-1.94,6.26,6.26,0,0,0-.24-2.25c-.3-.7-1-1.24-1.13-2s.26-1.93-.45-2.39c-.55-.35-1.32.13-1.53.76a4.43,4.43,0,0,0,0,1.95,7.49,7.49,0,0,1,0,1.77,1,1,0,0,1-.23.64.71.71,0,0,1-1-.15,2.08,2.08,0,0,1-.36-1l-.53-3a2.21,2.21,0,0,0-2.83,1.81c0,.67.22,1.33.17,2s-.68,1.39-1.29,1.13a1.3,1.3,0,0,1-.62-1.08c-.19-1.38-.1-3.14-1.36-3.73a13.42,13.42,0,0,1-.18,5.71l-.59-3.56c-.07-.37-.18-.81-.54-.94a.76.76,0,0,0-.87.55,2.49,2.49,0,0,0,0,1.15,11.47,11.47,0,0,1-.12,4.21c-.91-1.08-.58-2.69-.88-4.07-.14-.64-.88-1.36-1.34-.88a1,1,0,0,0-.19.42,14,14,0,0,0,0,2.82,2.25,2.25,0,0,1-1.36,2.25l-1.61,2.92c-.76,1.84.89,3.68,1.77,5.47a15,15,0,0,1,1,6.36l.31,19.3c0,2.86,0,5.9-1.48,8.32l-2.86,4.64a92.18,92.18,0,0,1-2,20.56c-.32,1.56-.8,3.26-2.15,4.1-2,1.26-4.85-.39-5.79-2.6s-.65-4.73-.64-7.13c0-3-.61-6.35-3-8.19a7.59,7.59,0,0,0-6.86-.89,16,16,0,0,0-6,3.91,36,36,0,0,0-5.94,7.46l-12.63,1.45c-6,.15-11.31,4.62-13.8,10.08s-1.59,12.75-.78,18.7,2.47,11.76,3.33,17.71a67.39,67.39,0,0,1-1.25,25.62c-1.21,4.91-3,8.7-3.69,13.71-1.8,12.66,2.32,25.36,9.24,36.11,2.8,4.36,6,8.73,6.72,13.86.52,3.68.71,10.4-.1,14l-6.11,27.53,0,6c1.3,15.33-4.63,30.24-10.45,44.48q-12.51,30.64-25,61.29c-4.76,11.66-9.62,24-7.77,36.5l6.15,4.58a41.39,41.39,0,0,1,14.55,12.61,9.71,9.71,0,0,1,1.2-6.41,27.77,27.77,0,0,1,4-5.26c2.39-2.61,4.95-5.26,8.28-6.47,2.82-1,6.27-1.07,8.19-3.38l5.77-7.39q16.26-53.51,33.91-106.58c1.24-3.75,2.55-7.61,5.15-10.58,3.21-3.67,7.93-5.54,12.18-7.93,11.69-6.57,20.38-17.61,32.07-24.19,3.62-2,7.74-3.65,11.84-3s8,4.15,7.72,8.29a11.61,11.61,0,0,1-2.28,5.49c-4.55,6.84-10.83,12.42-15.27,19.34-7.29,11.35-9,25.32-9.84,38.79-1.73,29.56.51,60.08,12.84,87s36.06,49.82,65.14,55.38c4.94.94,10.05,1.41,14.65,3.45,4.89,2.16,8.85,5.94,13.35,8.8,8.86,5.65,19.49,7.62,29.83,9.48l7.21.95a195.13,195.13,0,0,0,42.78,5.36c5.83.08,11.74-.1,17.4,1.3,13,3.21,22.71,14.11,35.09,19.23,14.31,5.91,31,3.65,45.29,9.53,5,2.07,9.62,5.09,14.17,8.08l23.29,15.36,3.76,3.22c10.93,0,20.06,7.93,28,15.45s16.76,15.59,27.67,16.2c2.13.11,4.43-.13,6.06-1.51,2.15-1.81,2.48-5,2.59-7.76.24-6.3.21-12.6.17-18.9-.13-22.9-.38-46.43-8.83-67.72-3.61-9.13-8.67-17.62-14.13-25.78-3.53-5.28-7.27-10.48-9.78-16.31-5.8-13.5-4.49-28.81-5.25-43.48a149,149,0,0,0-11.9-51l-3.59-8a184.37,184.37,0,0,0-12.51-25.47c-4.71-8-10.1-15.78-12.31-24.76Zm-418.15-205.74c-6.39-3.26-13.61-4.43-20.69-5.55-8.12-1.29-16.46-2.57-24.49-.82a67.72,67.72,0,0,0-9.57,3.13,30.75,30.75,0,0,0-7.41,3.64c-1.9,1.39-3.45,3.2-5.24,4.73-2,1.67-4.17,3-6.09,4.72a10.8,10.8,0,0,0-3.91,6.45l-1.63,1.57-3.05,5.36a7,7,0,0,1,4.9,1.44c-.88,1.09-2.63.4-4,.63-2.09.33-3.1,2.69-3.74,4.72a15.45,15.45,0,0,1,4.5,1.33,6.11,6.11,0,0,1-4.28,1.12,2.16,2.16,0,0,0-1.45.12A1.8,1.8,0,0,0,983,1381l-1,3.83a4.89,4.89,0,0,1,2.65,1.53c.6.85.39,2.32-.62,2.58a2.42,2.42,0,0,1-1.19-.1l-3.47-.87a10.37,10.37,0,0,0-2.37,3.37,3.55,3.55,0,0,0,.74,3.83c.33.29.75.51.92.91-1,1.33-3.17-.44-4.74.11a2.29,2.29,0,0,0-1,2.94,6.63,6.63,0,0,0,2.24,2.59,8.47,8.47,0,0,0-3.84-.14,2.9,2.9,0,0,0-2.28,2.75c.11,1.53,1.74,2.42,3.16,3a5.88,5.88,0,0,1-3.89.51,2.7,2.7,0,0,0-1.43-.1,2.09,2.09,0,0,0-.91.86l-3.61,5.07-.75,1.24a5.11,5.11,0,0,1,2.3,3.46,5.51,5.51,0,0,0-5.51,1.29,16.43,16.43,0,0,0-3.35,4.89l-3.08,6a6.39,6.39,0,0,1,5.1,2.31,13.4,13.4,0,0,0-5.75.3c-1.82.64-3.42,2.34-3.3,4.27a3.75,3.75,0,0,1,2.4,2.43,6.63,6.63,0,0,0-7.45,3.07,4.27,4.27,0,0,1,3.36,2l-4.58,0a1.77,1.77,0,0,0-1,.22,1.85,1.85,0,0,0-.56,1l-1.19,3.79a5.18,5.18,0,0,1,4.34,2.34l-7.12-.17-.73,3.34,5.13,2.93c-.64,1-2.21.09-3.44.06a2.84,2.84,0,0,0-2.52,2,8.28,8.28,0,0,0-.25,3.4,6.4,6.4,0,0,1,3.43,2.44c-.94,1.09-3-.21-4.08.71a2.56,2.56,0,0,0-.67,1.49l-1.12,5.53,2,1.69c2.84,1.4,6.44.37,9.25,1.84,1.6.83,2.71,2.36,4.1,3.51a13.79,13.79,0,0,0,7.79,2.86,40.81,40.81,0,0,0,8.4-.47l6.19-2.8,17.33-35c2.56-5.16,5.17-10.41,9.08-14.64a60.14,60.14,0,0,1,7.58-6.57l24.43-18.88a12.59,12.59,0,0,1,5-2.76c2.34-.49,4.94.34,7.08-.72,1.27-.63,2.19-1.85,3.5-2.38a15.47,15.47,0,0,1,3.27-.5c6.37-.94,9.94-9.26,16.37-9.54l.21-1c2-3,2.52-6.68,3.62-10.09,1.52-4.68,4.16-8.9,6.86-13,1.4-2.13,2.85-4.31,3.34-6.81s-.22-5.41-2.38-6.76Zm-113.14,10.9a42.23,42.23,0,0,0-21.81-8,78.6,78.6,0,0,0-11.68.25q-9.93.72-19.84,1.73c-1.21.13-2.63.41-3.1,1.53.73.55,1.5,1.64.81,2.23a2.26,2.26,0,0,1-.93.34c-1.78.52-2.15,2.85-2.19,4.71a2.13,2.13,0,0,0,.2,1.18c.62,1,2.79,1.21,2.32,2.29l-3.72.47,0,5.15a2.73,2.73,0,0,1,2.43,1.36c-2-.6-4.19,1-5,2.92s-.67,4.15-.49,6.26l0,1.07a22.24,22.24,0,0,0,6.3,2c-.29,1.48-2.45,1.85-3,3.25s.66,2.76,1.89,3.56,2.69,1.58,3,3c.13.59,0,1.21.16,1.8.42,2,2.87,2.6,4.86,2.85a8.15,8.15,0,0,1-3.68,3.41c-.6,1.2.46,2.68,1.75,3.07a8.19,8.19,0,0,0,4-.24,9.63,9.63,0,0,1-4.13,5.31,2.9,2.9,0,0,0,1.83,3.2,4.81,4.81,0,0,0,3.88-.35,5.06,5.06,0,0,1-3.84,3.43,16.2,16.2,0,0,0,1,4,48,48,0,0,1,4.78-.93,1.9,1.9,0,0,1-.72,2.43,5.59,5.59,0,0,1-2.68.72l.88,2.62a6.73,6.73,0,0,1,4.86-.07l-3.11,2.24a2.51,2.51,0,0,0-1.05,1.14,2.57,2.57,0,0,0,0,1.14l1.18,9.7.84,1.15a27.76,27.76,0,0,1,18.38-6l2.19-.45,3-4.67,33.77-53.29a6.43,6.43,0,0,0,1.26-3.06,6.37,6.37,0,0,0-1.75-3.88q-3.27-4.21-6.88-8.16Zm139.19-65.46a14.29,14.29,0,0,1-4.65-1.61l.77,2.7c.15.53.2,1.29-.33,1.46a.84.84,0,0,1-.75-.21,3.52,3.52,0,0,1-1.14-2.23,6.57,6.57,0,0,0-.79-2.42,1.76,1.76,0,0,0-2.21-.7,29.68,29.68,0,0,1,0,6.25,5.65,5.65,0,0,1-1.51-2.86,13.32,13.32,0,0,0-.53-2.84c-.4-.88-1.52-1.56-2.33-1a20.14,20.14,0,0,1-.37,6.15c-1.53-1.49-1.7-3.85-2-6a1,1,0,0,0-1-1.1l-4.51-.91a1.91,1.91,0,0,0-1,0,1.68,1.68,0,0,0-.89,1.23,10.05,10.05,0,0,0,.27,6.52l1.79,3.25c3.43,1,5.21,4.7,6.48,8a149.08,149.08,0,0,1,6.25,21.11c.65,3,1.15,6.4-.54,9l-5.23,4.9c1.83,1.14,3.92,2.31,6,1.79a7.85,7.85,0,0,0,1.94-.87l15.29-8.55a1.4,1.4,0,0,0,.9-1.85,119.37,119.37,0,0,0-4.68-19.46c-.59-1.76-1.21-3.72-.46-5.42.51-1.16,1.64-2.28,1.21-3.47Zm246.07-448a9.33,9.33,0,0,0-3.15-6.43,9.91,9.91,0,0,1-2.69-2.63,6,6,0,0,1-.1-4.09c.81-3.48,2.15-6.91,2.12-10.48s-1.93-7.49-5.39-8.38l.56-.9a15.87,15.87,0,0,0-12.29-16,7.9,7.9,0,0,0,1.64-4.61,9.46,9.46,0,0,0-1.21-3.68q-2.82-5.7-5.74-11.34c-2-3.93-4.16-7.92-7.34-11s-7.63-5.16-12-4.44l-.14-1.19a6,6,0,0,0-1.05-8.11,12.22,12.22,0,0,1-2-1.53c-1.07-1.27-.9-3.17-1.64-4.66-.91-1.85-3-2.75-5-3.31-6-1.69-12.84-1.52-17.76,2.23l.61-.07a19.19,19.19,0,0,0-11.27-9.5c.07-4.5-3.42-8.44-7.51-10.3s-8.72-2.07-13.21-2.25l.4-1.43a27.92,27.92,0,0,1-7.38-7.16c-1.37-1.92-2.62-4.13-4.78-5.08-3.1-1.36-6.93.41-10-1-1.65-.77-3-2.43-4.81-2.37a5.62,5.62,0,0,0-2,.57l-9.68,4.17c-1.67.72-3.59,1.45-5.26.72-2.25-1-4-4.34-6.14-3.18a12.44,12.44,0,0,0-1.35,1.17c-1,.78-2.47.7-3.77.74-3.42.12-6.69,1.39-10.06,2s-7.2.5-9.77-1.77l-10.28-2.18c-28.27,4.89-59-8.26-85.28,3.15-4.24-21.12,4.36-42.55,13.76-61.93s20-39.24,20.18-60.78l.42-5.32.6-20.14c.13-4.46.27-9,1.45-13.26.79-2.92,2.06-5.7,2.81-8.63a51.79,51.79,0,0,0,1.14-12.32c0-3.9-.06-8.22-2.74-11.06s-6.87-3.19-10.71-3.23a119.16,119.16,0,0,0-20,1.49l-6.7,1.49c-5.36.46-11.27,1.18-14.86,5.19-.43.48-.91,1.05-1.56,1.08a2.76,2.76,0,0,1-1.13-.35,7.83,7.83,0,0,0-7.31.48c-3.91,2.45-5.14,8-9.28,10.1l-5.39,4c-4.48,6.73-6.46,14.79-7.94,22.73a227.05,227.05,0,0,0-3.63,51.26c.66,15.46,2.9,31,1,46.33-1,8.28-3.16,16.37-5.32,24.43l-16.11,60c-1.39,5.18-2.83,10.48-5.92,14.87-.66,1-1.62,2-2.77,1.82a3.45,3.45,0,0,1-1.72-.94c-10.29-8.84-14.64-22.52-20.77-34.63-17.13-33.87-50.3-58.14-64.62-93.29-2.63-6.46-4.58-13.75-2.27-20.33,1.93-5.53,6.62-9.7,11.69-12.65s10.64-4.93,15.83-7.66a61.61,61.61,0,0,0,29-33.3l-1.72-10.27L949,537.6c-.94-2.09-1.68-5,.21-6.29,1.07-.74,2.51-.51,3.8-.71,2.47-.36,4.38-2.25,6.12-4,1.24-1.28,2.53-2.67,2.82-4.42s-.49-3.5-.73-5.27a8.73,8.73,0,0,1,2.17-6.93,12.28,12.28,0,0,0,1.66-1.88c.75-1.26.67-2.82.72-4.29.36-9.54,8.43-18.2,17.92-19.23-5-.37-9.32-3.5-14.13-4.9-2.26-.66-4.61-.94-6.91-1.43A37.44,37.44,0,0,1,951,473.53c-2.14-1.31-4.25-3-5.15-5.31l-.77-2.05a109.2,109.2,0,0,0-19-1.93c-6.33-.09-13.24.61-17.82,5,.28-.85-.54-1.68-1.38-2a8.75,8.75,0,0,1-2.5-1c-.46-.38-.76-.93-1.21-1.32-1.3-1.12-3.38-.57-4.89-1.38-1-.56-1.63-1.67-2.56-2.38-1.8-1.39-4.39-1-6.51-.18s-4.14,2.07-6.4,2.24c-2,.14-3.85-.52-5.77-.87s-4.09-.33-5.57.94c-1.08.93-1.7,2.46-3,2.95a7.49,7.49,0,0,1-2.17.24c-4.94.35-8.08,6.16-13,6.73a15.42,15.42,0,0,0-3.41.35,21.14,21.14,0,0,0-3,1.93,10.09,10.09,0,0,1-5.31.91,84.08,84.08,0,0,1-19.39-2.7l-6.86.13c-5.9,2.7-13.06,5.34-18.52,1.84-6-3.84-6.68-13.25-13-16.43-2.72-1.37-5.91-1.25-9-1-3.31.21-6.74.52-9.6,2.21-5.78,3.4-7.26,11.06-7.27,17.76s.78,13.86-2.52,19.7c-3.81,6.76-11.82,9.64-18.32,13.89a44,44,0,0,0-17.17,21.71c-2.48,6.86-3.21,14.27-5.88,21.06-2.55,6.46-6.76,12.1-10.28,18.09a94.35,94.35,0,0,0-10.14,69.67c.8,3.2,1.94,6.62,4.67,8.47,3.23,2.19,7.51,1.47,11.41,1.32a34.69,34.69,0,0,1,16.25,3.36c3.26,1.56,6.35,3.65,9.9,4.27a21,21,0,0,0,9.19-.89c20.42-5.64,38.49-21.66,59.61-20.11l7.1,1.09c19.61,17.64,39.73,36,50.86,59.88a13.11,13.11,0,0,1,1.58,5.55,4.89,4.89,0,0,1-2.87,4.65c-1.94.69-4-.35-6-1-4.92-1.59-10.38-.63-15.07,1.54s-8.76,5.46-12.78,8.72L825,722.75l-7.13,14.32a23,23,0,0,0-2.27,5.82,20.25,20.25,0,0,0-.18,5.1,83.48,83.48,0,0,0,8.33,31.55l2.12,8.17c2.91,20.88,18.37,39.49,38.35,46.19,5,1.68,10.25,2.65,15.36,4,15.74,4.25,31.08,13.16,38.77,27.54,6.29,11.76,6.79,25.66,10.47,38.48a80.13,80.13,0,0,0,13.78,27c-30.32-7.73-64.45,1.88-86.27,24.31l-2.92,4a50.66,50.66,0,0,0-1.93,16.83c.06,1,.29,2.25,1.24,2.63s1.88-.3,2.71-.84A12.28,12.28,0,0,1,861,976l-5.24,5.68a30.11,30.11,0,0,0,9.6-1.5c.55,1.21-.84,2.35-2,3.08s-2.22,2.33-1.22,3.22a2.08,2.08,0,0,0,1.2.4c2.86.24,5.61-1,8.19-2.3a25.55,25.55,0,0,1-4.72,5.24,13.34,13.34,0,0,1,7.93,4.84,8,8,0,0,1,4.56-1.55l-3.23,4.34c1.65.39,2.47,2.58,4.15,2.78a4,4,0,0,0,1.6-.26l5.3-1.64-3.38,3.69a7.42,7.42,0,0,0,8.93.94c.82,1.47-2.79,2.73-1.93,4.17.49.81,1.75.37,2.47-.25s1.7-1.35,2.5-.85a10.41,10.41,0,0,1-1.44,4.79l1.22.73,2.41,2.69a1.75,1.75,0,0,0,.85.63,1.78,1.78,0,0,0,1.05-.23l4.51-2.06-3.55,4.07a5.86,5.86,0,0,0,7,1.06,4.11,4.11,0,0,0-1.85,3.06,3.09,3.09,0,0,0,1.77,3c1.5.62,3.18-.23,4.59-1,.46,1.11-2.18,1.68-1.75,2.8a1.38,1.38,0,0,0,.41.49l3.22,2.76a1.8,1.8,0,0,0,2.31.44l5.13-2-3.46,5a.94.94,0,0,0-.24.61,1,1,0,0,0,.37.57l3.38,3.18a9.77,9.77,0,0,1,5.82-3l-3.4,4.91,3.44,3.07a2.51,2.51,0,0,0,1.32.74,2.55,2.55,0,0,0,1.07-.23l2.83-1.08L931,1046.3l1.1.38a5.13,5.13,0,0,0,4,3.4,6,6,0,0,0,5.08-1.68,4.18,4.18,0,0,1-2.48,3.28l5.7,5.6a11.41,11.41,0,0,1,4.82-2.55c.67,1.49-1.54,2.6-2.17,4.11-.8,1.9,1.11,3.77,2.8,5l4.85-2.48c.58,1.12-.54,2.31-1,3.48a3.62,3.62,0,0,0,2.59,4.69,14.54,14.54,0,0,1,6.49-1.73l-3.87,3.36a1.54,1.54,0,0,0-.67,1,1.51,1.51,0,0,0,.5.94q2.84,3.17,5.74,6.29l2-.93c16.48-6.68,28.5-20.9,39.84-34.59,3.44,10.05,3.51,20.94,6,31.26,1.74,7.11,4.62,13.9,6.46,21,3,11.46,3.17,23.58,7.11,34.74l1,4.08c1.38,1.74.65,4.46-.94,6s-3.78,2.31-5.84,3.15a45.66,45.66,0,0,0-15,10.06,4.59,4.59,0,0,0-1.07,1.45,4,4,0,0,0-.22,1.4c0,1.85,1,4.2,2.84,4,1.33-.19,2.69-1.72,3.71-.86-.31,1.58-1.74,2.63-2.88,3.77s-2.05,2.95-1.16,4.29a11.54,11.54,0,0,1,6.24,1.47,9.92,9.92,0,0,1-4.34,2.06c-.84,1.1.56,2.6,1.91,2.91s3,.25,3.84,1.31a4.87,4.87,0,0,0-3.17.81c-.85.73-.91,2.38.14,2.78.43.16.94.07,1.36.28.77.39.74,1.56.28,2.29s-1.2,1.27-1.61,2a3,3,0,0,0,1.7,4.05c1.46.41,3.66,0,4,1.49a7.47,7.47,0,0,0-3,2.61,4.6,4.6,0,0,1,4,1.5l-4.16,1.4,1.24,5.73a9.14,9.14,0,0,1,2.66.18,2.78,2.78,0,0,1-2.33,2.64l.8,6a1.73,1.73,0,0,0,.34.94,1.66,1.66,0,0,0,1.39.3l4-.32,2.7,1.84a56.85,56.85,0,0,0,13.6,1.86c2.94,0,6.15,0,8.45,1.77,1.82,1.44,2.64,3.76,3.38,6l12,36,1.22,4.21c1.09-.23,1.07-2.11,2.14-2.42.8-.22,1.5.66,1.64,1.48a8.66,8.66,0,0,0,.37,2.46c.64,1.33,2.41,1.52,3.89,1.54a1.11,1.11,0,0,0,.57-.1c.39-.2.42-.73.41-1.17l-.06-2.59c0-.27,0-.59.25-.72a.63.63,0,0,1,.59.07c1.82,1,1,4.11,2.49,5.54.88.84,2.24.81,3.45.73l.08-3.37c0-.39.06-.84.4-1a.87.87,0,0,1,.93.21c1.29,1.08.87,3.29,2,4.57s2.76,1.1,4.27,1a2.37,2.37,0,0,0,1.47-.49,2.18,2.18,0,0,0,.55-1.14,19.62,19.62,0,0,0,.55-5.66l-.66-2.32c-4.05-9.7-4.6-20.5-7.91-30.47l-.78-5c-.9-.83-.41-2.47.63-3.11a5.63,5.63,0,0,1,3.59-.44,56.32,56.32,0,0,1,27.54,11c6.3,4.76,11.5,10.78,17.2,16.25s12.14,10.51,19.74,12.62c3.25.9,6.66,1.25,9.74,2.6s5.88,4.08,6,7.44l1.16,2.36q1.38,2.63,2.86,5.19c.11.18.23.38.43.43.46.13.71-.52.73-1l.18-4a6.08,6.08,0,0,1,2.41,2.82,6.09,6.09,0,0,0,.91,1.84,1.24,1.24,0,0,0,1.8.15c.62-.77-.26-2.2.54-2.77s1.53.42,1.78,1.23.59,1.85,1.44,1.88c.62,0,1.09-.59,1.21-1.2a14.05,14.05,0,0,0,0-1.84.78.78,0,0,1,.09-.4.76.76,0,0,1,1-.09c1,.61,1,2.06,1.68,2.93a2.79,2.79,0,0,0,3.35.4,8.2,8.2,0,0,0,2.57-2.54l1.7-1.25q6.23-6.84,12.85-13.3a83.46,83.46,0,0,1,14.4-11.81c10.63-6.51,23.47-8.69,35.93-8.23a20.59,20.59,0,0,1,6.58,1,8.23,8.23,0,0,1,4.83,4.36l.45-.4a6.09,6.09,0,0,1,4-1.84,15.64,15.64,0,0,1,8.77.61c2.73,1.19,4.94,3.92,4.78,6.89a.52.52,0,0,0,.08.39.62.62,0,0,0,.36.12,2.07,2.07,0,0,1,1.61,1.74,6.32,6.32,0,0,1-.23,2.51l.21.71c1.79-.66,3.84.56,4.75,2.25a11.28,11.28,0,0,1,.94,5.59,18.14,18.14,0,0,1-.59,5.25c-1.17,3.85-4.48,6.58-7.62,9.09l-5.66,4.51c-1.94,1.55-4,3.24-4.69,5.62s.69,5.52,3.17,5.61l5.72,2c13.85-.18,27.84-.37,41.27-3.71s26.48-10.16,34.68-21.31c1.92-2.61,3.57-5.44,5.86-7.73,6.07-6.06,15.34-7.2,23.1-10.86a37.58,37.58,0,0,0,17.31-16.83c1.53-3,2.65-6.23,4.57-9s4.9-5.11,8.27-5.14c2.41,0,4.66,1.12,6.72,2.37a52.77,52.77,0,0,1,11.64,9.58l5,4.25a27.66,27.66,0,0,0,10.43,1.65,8.38,8.38,0,0,0,3.14-.59,10,10,0,0,0,3.24-2.77c6.45-7.39,13-14.94,16.89-24,2.31-5.36,3.66-11.2,6.92-16a23.51,23.51,0,0,1,6-6.17l6.63-5.39q3.26-3.8,6.64-7.47a1.8,1.8,0,0,1,1-.67,1.75,1.75,0,0,1,1,.17,62.08,62.08,0,0,0,18.28,3.66l2.25.17a8.73,8.73,0,0,0,4.47-2,8,8,0,0,1,2.78-2,6.33,6.33,0,0,1,2.49,0,22.94,22.94,0,0,0,7.75-.31,3.15,3.15,0,0,0,1.9-.93,6.78,6.78,0,0,0,.72-1.85,4.62,4.62,0,0,1,4.09-2.62,13.41,13.41,0,0,1,5,.93,6.89,6.89,0,0,1,2.21-6.61c1.1-.93,2.5-1.51,3.42-2.62a23.54,23.54,0,0,0,1.81-3.36c1.17-2,3.22-3.22,5.23-4.31s4.11-2.16,5.55-3.94,2-4.5.63-6.33l1.15-.1a6.05,6.05,0,0,0,2.71.11,12.31,12.31,0,0,1,0-7.38,7,7,0,0,1,5.36-4.71c1.13-.16,2.56-.11,3.06-1.13a3.47,3.47,0,0,0,.14-1.67,6.92,6.92,0,0,1,2.76-5.81c1.06-.79,2.34-1.25,3.41-2,3.14-2.3,3.76-6.66,4.12-10.54l2.43-4.9-.8-21.62c-.24-6.38-.47-12.81.59-19.11.63-3.75,1.71-7.41,2.38-11.15a52.46,52.46,0,0,0-4-31.12c-4.68-10.08-12.69-19-14-30l-6.73-7.86-4.25-9.38a8.89,8.89,0,0,0-1.58-2.61c-.75-.75-1.8-1.25-2.32-2.18-.29-.5-.39-1.09-.65-1.61-.52-1-1.58-1.61-2.23-2.53-1.75-2.42-.18-6.06-1.58-8.69-1.17-2.19-4.16-3.24-4.62-5.67a5.11,5.11,0,0,0-.37-1.75c-.41-.7-1.32-.91-2-1.42-1.71-1.42-.71-4.29-1.68-6.29a6.72,6.72,0,0,0-2.31-2.34l-10.1-7.3a16.77,16.77,0,0,0-2.72-1.71,13.87,13.87,0,0,1-2.1-1,14.51,14.51,0,0,1-2.42-2.8c-.8-.94-2.08-1.71-3.23-1.26l-1.43-.18-5.94-3.1a2.74,2.74,0,0,0-1.36-.44,3.1,3.1,0,0,0-1.45.64,15.27,15.27,0,0,1-7.37,2.38c.15-2.44.26-5.06-1-7.17-.34-.58-.77-1.1-1.1-1.69a18.56,18.56,0,0,1-.9-2.16c-1.3-3.26-3.71-5.93-6.08-8.52l-9.91-10.85-5.11-3.68a43.6,43.6,0,0,0-60.84,8.92c-.37.5-.81,1.05-1.43,1.1a2.29,2.29,0,0,1-1.17-.36,18.92,18.92,0,0,0-15.43-.67l-4.83,0a31.44,31.44,0,0,0-14.27,9.18,53.37,53.37,0,0,0-9.13,14.46l-5.79,7.34a72.57,72.57,0,0,0-16.58,40.05c-.81,9.31.08,19.23-4.4,27.43-5.7,10.42-18.38,14.84-30.18,16.19a4,4,0,0,1-3.14-.54c-.92-.82-.89-2.25-.76-3.48,1.31-12.62,4.83-24.9,7-37.41s2.78-25.66-1.5-37.61c-2.83-7.87-7.69-14.86-12.94-21.38-1.33-1.66-2.76-3.48-2.71-5.61.08-4.06,5-5.83,8.84-7.14a42.38,42.38,0,0,0,27.92-35.35Zm-504.2,152.6c-7.23,7.47-11.38,17.52-13.2,27.76s-1.45,20.73-.67,31.1c.5,6.55,1.18,13.18,3.58,19.29,1.61,4.1,4,8,4.56,12.34.49,3.79-.43,7.59-.91,11.37-1.89,14.82,2.82,30.81-3.59,44.3-2,4.27-5.08,9.49-2.17,13.23a8.73,8.73,0,0,0,3.27,2.34c9.13,4.24,19.82,2.15,29.61-.21,7.06-1.7,14.27-3.59,20.17-7.82,9-6.45,13.89-17.63,23.32-23.4,4.43-2.7,9.54-4,14.36-5.93,10.89-4.32,20.25-11.72,29.42-19L945,1100a4.91,4.91,0,0,1-.41-4.16,8.82,8.82,0,0,0,.69-1.94,4.69,4.69,0,0,0-.71-2.49,12.18,12.18,0,0,0-2.33-3.49,4.1,4.1,0,0,0-3.86-1.14,13.2,13.2,0,0,0-2.15,1.17,2.35,2.35,0,0,1-2.33.11,10.81,10.81,0,0,1,4.42-4.73c.27-1.15-1-2.18-2.18-2.13a5.87,5.87,0,0,0-3.14,1.48,5.66,5.66,0,0,1-3.15,1.46,15.36,15.36,0,0,1,4.11-5.41c0-1-1.12-1.7-2.12-1.64a8.27,8.27,0,0,0-2.82,1.06,3.28,3.28,0,0,1-2.9.2l4.24-2.36a3.52,3.52,0,0,0,1.65-1.46c.3-.69-.08-1.7-.82-1.72l-.65-1a9.24,9.24,0,0,1-4.31,1.63,32.18,32.18,0,0,0,3.55-3.74,24.72,24.72,0,0,1-4.35-2.71,39.06,39.06,0,0,0-6.65,4.09,13.45,13.45,0,0,1,6-5.83,10.7,10.7,0,0,1-3.17-3.71l-5.72,1.23a5.77,5.77,0,0,0,2.48-3.17,3.64,3.64,0,0,0-1.06-3.74c-1.7-1.36-4.2-.53-6.19.37,1.42-1.09,3-2.65,2.47-4.35-.57-1.86-3.18-2.1-5-1.4s-3.53,2-5.47,1.85a57.23,57.23,0,0,0,5.9-5,6.86,6.86,0,0,1-3.87-3.66,18.56,18.56,0,0,1-5.76,2.44c1.45-1.35,3-3.43,1.92-5.08a2.9,2.9,0,0,0-3.2-.92,8.52,8.52,0,0,0-3,1.89l2.46-3.93-4.25-3.77-.49-.73-6.86,1.56,4-3.22a3.46,3.46,0,0,0-3.95-1.88c-1.92.53-3.22,2.72-5.22,2.74l3.7-4.51a1.56,1.56,0,0,0,.39-.71,1.21,1.21,0,0,0-.31-.88,5.06,5.06,0,0,0-4.39-1.79,15,15,0,0,0-4.74,1.33,7.6,7.6,0,0,1,3.63-3.62,3.83,3.83,0,0,0-3.86-2,11.13,11.13,0,0,0-4.37,1.58l3.33-3.56c-.33-1.69-2.64-2.12-4.28-1.59s-3.14,1.65-4.86,1.67l3.87-4-3.78-2.93a3.67,3.67,0,0,0-1.66-.88c-1.93-.26-3.53,2.53-5.36,1.82,1.18-1.17,2.39-2.29,3.65-3.36l-3.94-2.37a2.28,2.28,0,0,0-1.75-.47c-1.07.33-1.64,2.17-2.66,1.7a4,4,0,0,0-1.83-6.18,21.46,21.46,0,0,1-4.44,5.46,25.13,25.13,0,0,1,2-7.18,3.84,3.84,0,0,0-4.19-1.68,11.23,11.23,0,0,0-4.26,2.25,12.18,12.18,0,0,1,4.08-4.15,11.66,11.66,0,0,0-4.26-2.25Zm60.88,434.76a76.12,76.12,0,0,0-14.62-38.57,92.65,92.65,0,0,0-1.25,17,1.41,1.41,0,0,0,.2.86,1.87,1.87,0,0,0,1,.49c1.89.63,2.8,2.74,3.47,4.62,2.39,6.72,5,13.93,10.85,18Zm75.06-268c-3.2,1.24-6.87.54-10.12,1.64-5,1.68-7.57,6.93-10.3,11.4a58.42,58.42,0,0,1-6.21,8.38,17.81,17.81,0,0,1-6.61,5.15,25,25,0,0,1-7.11,1.1c-7.9.58-16.36,3-21,9.37-3.73,5.16-4.26,11.92-4.34,18.29-.06,4.68.07,9.43,1.43,13.91s4.13,8.71,8.25,10.94l3.71,4.22a72.64,72.64,0,0,1,8.51,13.1c.29.55.81,1.2,1.4,1s.57-.9.57-1.47a13.11,13.11,0,0,1,7.68-11.81l3.88-3.9c4-5.87,9.85-10.36,16.12-13.77s13-5.83,19.73-8.22l5.5-2,8.23-3.91a4.06,4.06,0,0,0,2.22-1.83,4,4,0,0,0,0-2.36l-3-13.29a36.24,36.24,0,0,1-6.83,0,19.5,19.5,0,0,1,6.76-3.4,70,70,0,0,0-4.37-20.16,1.92,1.92,0,0,0-.66-1,2.05,2.05,0,0,0-1.23-.16l-8.71.76a31.81,31.81,0,0,1,9.74-3.91,79.38,79.38,0,0,1-7-9.42Z"></path>
    <path data-name="1a" data-official="" data-plain="Section of Flower" data-loc="" d="M1612.78,2397.49c13.08,11.14,30.21,16,45.58,23.68l2.57,8.25c-3.85,19.63-2.52,39.86-3.88,59.81s-6,40.76-19.37,55.6c-2.59,2.86-5.49,5.48-7.59,8.72-5.55,8.53-4.59,19.56-3.81,29.71s.83,21.45-5.91,29.09c-3.88,4.4-9.5,6.88-15.09,8.68a106.2,106.2,0,0,1-32.11,4.89c-7.63,0-16-1-21.19-6.64-4.27-4.67-5.26-11.64-4.08-17.86s4.25-11.9,7.31-17.45l3.17-11.72c.81-4.07,1.57-8.5-.36-12.17s-6.19-5.62-9.75-7.93c-6.62-4.28-11.61-10.78-15-17.89s-5.32-14.85-6.69-22.61c-4.31-24.58-3.32-49.73-2.32-74.66l1.51-5.25c5.62-1.86,11.34-4,15.75-7.93,7-6.28,9.61-16.46,8.51-25.81l6.57-1,10.38-1.89c8.65-1.57,17.68-3.13,26.13-.67Z"></path>
    <path data-name="2" data-official="Mirabilis longiflora" data-plain="Fragrant Marvel of Peru" data-loc="Mexico" d="M998.48,2207.35c.58,13.49.8,28.12-7.14,39.05-1.8,2.48-4.21,4.81-7.25,5.23-3.78.52-7.78-2-11.29-.51-3.34,1.42-4.29,5.57-5.75,8.89a19.8,19.8,0,0,1-15.7,11.62,18.46,18.46,0,0,1-17.4-8.54c-4.86-8.11-2.45-18.36-1.32-27.75,1.3-10.68.72-21.48.3-32.22-2.07-53.44-.1-106.94,1.88-160.38l4.39-11.25,11.16-11.26a101.22,101.22,0,0,0,9.09-10,73.77,73.77,0,0,0,10.18-19.86,33,33,0,0,1,3.53-7.84c1.64-2.35,4.2-4.27,7.08-4.37l5.48,3.72Q993.66,2094.52,998.48,2207.35Zm342.13-782.65c-16.66,2-33.51,4-49.22,9.86l-11-1.17c-9.51-2.78-16.69-10.57-22.31-18.72s-10.3-17.08-17.31-24.07c-3.67-3.66-7.91-6.72-11.58-10.37-5-5-9.15-11.22-15.46-14.47-5.23-2.69-11.33-3-17.22-3.22l-5.19-2.08-5.39-7.92q.07-23.05,1.8-46.06l.5-2.33c.08-.41-.31-.77-.71-.89a7.94,7.94,0,0,1-1.21-.31,2.2,2.2,0,0,1-1-1.94,6.26,6.26,0,0,0-.24-2.25c-.3-.7-1-1.24-1.13-2s.26-1.93-.45-2.39c-.55-.35-1.32.13-1.53.76a4.43,4.43,0,0,0,0,1.95,7.49,7.49,0,0,1,0,1.77,1,1,0,0,1-.23.64.71.71,0,0,1-1-.15,2.08,2.08,0,0,1-.36-1c-.18-1-.36-2-.53-3a2.21,2.21,0,0,0-2.83,1.81c0,.67.22,1.33.17,2s-.68,1.39-1.29,1.13a1.3,1.3,0,0,1-.62-1.08c-.19-1.38-.1-3.14-1.36-3.73a13.42,13.42,0,0,1-.18,5.71c-.2-1.19-.4-2.37-.59-3.56-.07-.37-.18-.81-.54-.94a.76.76,0,0,0-.87.55,2.49,2.49,0,0,0,0,1.15,11.47,11.47,0,0,1-.12,4.21c-.91-1.08-.58-2.69-.88-4.07-.14-.64-.88-1.36-1.34-.88a1,1,0,0,0-.19.42,14,14,0,0,0,0,2.82,2.25,2.25,0,0,1-1.36,2.25l-1.61,2.92c-.76,1.84.89,3.68,1.77,5.47a15,15,0,0,1,1,6.36q.15,9.64.31,19.3c0,2.86,0,5.9-1.48,8.32l-2.86,4.64-6-2.15-17.21-3.67c-3.25-.69-7-1.27-9.56.84-1.75,1.44-2.44,3.77-3,6q-1.78,6.57-3.58,13.14l-5.54,4.55c-6,.15-11.31,4.62-13.8,10.08s-1.59,12.75-.78,18.7,2.47,11.76,3.33,17.71a67.39,67.39,0,0,1-1.25,25.62c-1.21,4.91-3,8.7-3.69,13.71-1.8,12.66,2.32,25.36,9.24,36.11,2.8,4.36,6,8.73,6.72,13.86.52,3.68.71,10.4-.1,14q-3,13.77-6.11,27.53l0,6-6.61,13.49a81.62,81.62,0,0,0-14.35,13.69c-3.43,4.16-6.45,8.67-10.25,12.5-11,11-27,15.08-42.34,18.15-9.42,1.89-19.49,3.92-26.26,10.73l-7.68,4.33c-9.4,6.67-18.92,13.44-26.33,22.27s-12.61,20.09-11.83,31.59c.41,6.12,2.46,12,4.18,17.87,15.23,52.06,4.83,107.86,9.29,161.92l-3.38,4.16c-6.81,1.91-14.18-2-18.45-7.67s-6.09-12.72-7.82-19.58l-4.28-17c-1.77-7-3.56-14.07-6.53-20.67-3.5-7.76-8.57-14.69-13.6-21.55l.19-8.46c1.33-20.1-5.46-39.76-12.15-58.76l-7.86-22.3a24.29,24.29,0,0,1-16.73,2.49c-4.79-1-9.42-3.52-14.29-3-10.51,1.18-15.2,15.21-25.41,18l-9,1.44a41,41,0,0,1-22.46-17.12c-1.91-3-3.41-6.25-5.15-9.36-4.08-7.24-9.44-13.67-14.77-20a38.1,38.1,0,0,1-2.27,19.08c-1.38,3.53-3.3,6.85-4.54,10.44-2.43,7-2.14,14.75-.28,21.93l1.08,2.76-1.59-.24a26.16,26.16,0,0,1-11.3,2.6l-1.22,3.37-10.13,7.94c-7.49,1.13-15.06-1.77-21.48-5.79s-12.09-9.15-18.47-13.24c-1.57-1-3.37-2-5.2-1.62a7.69,7.69,0,0,0-3.48,2.16c-8.44,7.73-16.86,16.55-28,19.07-5.33,1.2-11,.88-16,3.16-6.8,3.14-10.55,10.33-15.09,16.28a57.2,57.2,0,0,1-26.7,19.27l-7.25,3.93a116.53,116.53,0,0,1-33.33,9.74c-6.5.88-13.35,1.31-18.9,4.79s-9,11.37-5.29,16.76c4.25,6.14,13.63,4.69,20.5,7.62,7.74,3.3,11.56,11.81,15.31,19.34A158.92,158.92,0,0,0,624,1856.64c3.27,4.11,6.92,8.59,6.76,13.83-.25,7.94-9,13.1-11,20.78-1.25,4.83.29,10.26-1.86,14.77s-7.08,6.55-11.21,9.19-8.09,7.37-6.42,12l-6.67,6.85c-3.6,6.76-11.58,9.66-18.77,12.32s-15,6.44-17.42,13.73c-1.52,4.65-.44,9.94-2.42,14.41-2.58,5.85-9.6,8.68-12.44,14.4-3.39,6.85.16,15.81-3.8,22.34-3.74,6.18-12.48,7.38-17.11,12.93s-4,13.73-8.09,19.54c-3.48,5-9.87,7.48-12.69,12.84-1,1.89-1.49,4.07-2.8,5.77-1.73,2.25-4.61,3.3-7.42,3.72-8.09,1.2-16.25-2-23.07-6.54s-12.71-10.3-19.31-15.12c-11.36-8.28-24.6-13.51-37.68-18.66-5.94-2.34-12.12-4.71-18.48-4.27-4.62.32-9,2.11-13.55,2.92-12.92,2.3-25.75-3.36-37.87-8.39s-25.71-9.6-38.08-5.2l-5.45-8c.24-11,.42-22.21-3.5-32.43-2.76-7.21-7.47-13.6-9.71-21-4-13,.21-27.52-4-40.46-2.11-6.44-6.21-12.13-8-18.66-2.9-10.49.43-21.84-1.81-32.48-.58-2.76-1.66-5.61-4-7.23-4.77-3.36-12.58-.09-16.53-4.38l-7.7-7c-7.44-8.19-19.81-9.66-30.83-8.59s-22,4.1-33,2.83c-10.49-1.21-20.3-6.38-28-13.56s-13.5-16.32-17.74-26c-2.38-5.44-4.42-11.26-8.58-15.51-4.53-4.6-10.94-6.73-17.15-8.5-9.78-2.79-20.78-5-29.68,0-4.86,2.68-9,7.41-14.54,7.62-7.29.28-12.24-7.32-14.42-14.28a64.61,64.61,0,0,1-2.81-15.34l1.51-9.92c2.35-3.32,1.1-8.06-1.31-11.33s-5.78-5.74-8.2-9c-7.85-10.59-3.39-25.68,2.87-37.28s14.35-23.55,12.92-36.66c-1.09-9.88-7.57-18.4-15-25-3.85-3.37-8.07-6.43-11-10.62s-4.34-9.93-1.92-14.43c3.48-6.46,12.33-7.1,19.66-6.92,13.12.33,26.8.8,38.36,7,7,3.78,12.93,9.52,20.25,12.7a65.34,65.34,0,0,0,12.62,3.55l21.36,4.49c7,1.48,14.17,3,21.3,2.19,10.61-1.14,20-7.1,28.85-13.07,51.26-34.63,100.21-75.73,159.68-92.74l10.17-2.76a207.86,207.86,0,0,1,56.57-54.31c8.28-5.36,16.92-10.12,25.56-14.87,36.77-20.24,73.61-40.52,112.09-57.31a329.1,329.1,0,0,1-27-31.45l-2.84-5.3c-34.5,7.86-69.37,16-100.84,32.17-22.64,11.64-43.65,27.49-68.44,33.27a90,90,0,0,1-22.3,2.35c-7-.14-14.09-1.14-20.37-4.19-15.65-7.59-23.22-26.09-38-35.32-5.23-3.27-11.6-5.62-14.5-11.06-3-5.62-1.08-12.85,3-17.77s9.83-8,15.46-11c15.12-8,30.41-16.16,46.95-20.63l10.17.95c.76,3.3,3.74,5.74,7,6.78s6.7.93,10.09.74l15.56,4.61a51.2,51.2,0,0,0,15.81,5c14.27,1.78,28.07-4.74,41.41-10.09A277.94,277.94,0,0,1,499.38,1302l7.52-3.71c-.85-9.26-1.61-18.63-.23-27.82s5.11-18.32,12-24.58,17.23-9.11,25.84-5.6c8.07,3.28,13.16,11.15,17.73,18.57q8.85,14.33,17.68,28.65a11.35,11.35,0,0,0,2.78,3.4c1.84,1.31,4.27,1.38,6.53,1.41,35.69.33,72.71,1,104.9,16.45,12.06,5.78,23.08,13.5,33.71,21.62l6.63,3.09c3,5.7,6.15,11.48,7.54,17.79l3.68,4.55c2-.26,3.34,2.28,5.3,2.24.56,0,1.14-.22,1.64,0,1.19.58.37,2.83,1.52,3.48.5.28,1.12.09,1.69.09a2.54,2.54,0,0,1,1.78,4.39,3.9,3.9,0,0,0,2.65.53,4.56,4.56,0,0,1,3.34,1.12,2.19,2.19,0,0,1,0,3.19c-.35.25-.78.35-1.15.57a1,1,0,0,0-.58,1,1.34,1.34,0,0,0,.51.65,44.3,44.3,0,0,0,7.53,5.27,1.43,1.43,0,0,0,.84.21,1.32,1.32,0,0,0,.67-.44c2.19-2.32,2.5-5.81,2.45-9a65.83,65.83,0,0,0-.63-8.41l-1.51-4.12c-9-20.09-18.18-40.07-27.38-60q-6.21-13.45-12.4-26.91l-7.27-15.79-2.3-2.6c-2.2-3.59-6-6.1-7.75-9.9l-.81-2.15c-6.66-7.26-11.2-16.17-15.6-25l-3.21-6.45a20.07,20.07,0,0,1-2-5.24,57.18,57.18,0,0,1-.25-5.86c-.28-3.87-2-7.48-3.66-11l15.8,8.23c52.81,18.24,97,60.11,118,111.88,4.46-10.92,5.71-22.94,10.16-33.86a61.64,61.64,0,0,1,71.54-36.63l4.79-2c1.37,4.48,4.13,8.71,8.25,10.94l3.71,4.22a72.64,72.64,0,0,1,8.51,13.1c.29.55.81,1.2,1.4,1s.57-.9.57-1.47a13.11,13.11,0,0,1,7.68-11.81l3.88-3.9c4-5.87,9.85-10.36,16.12-13.77s13-5.83,19.73-8.22l5.5-2,8.23-3.91a4.06,4.06,0,0,0,2.22-1.83,4,4,0,0,0,0-2.36q-1.47-6.65-3-13.29a36.24,36.24,0,0,1-6.83,0,19.5,19.5,0,0,1,6.76-3.4,70,70,0,0,0-4.37-20.16,1.92,1.92,0,0,0-.66-1,2.05,2.05,0,0,0-1.23-.16l-8.71.76a31.81,31.81,0,0,1,9.74-3.91,79.38,79.38,0,0,1-7-9.42l-6.26,1.39-8.22-11.48A450.22,450.22,0,0,0,944.84,1111l.57-8.3L945,1100a4.91,4.91,0,0,1-.41-4.16,8.82,8.82,0,0,0,.69-1.94,4.69,4.69,0,0,0-.71-2.49,12.18,12.18,0,0,0-2.33-3.49,4.1,4.1,0,0,0-3.86-1.14,13.2,13.2,0,0,0-2.15,1.17,2.35,2.35,0,0,1-2.33.11,10.81,10.81,0,0,1,4.42-4.73c.27-1.15-1-2.18-2.18-2.13a5.87,5.87,0,0,0-3.14,1.48,5.66,5.66,0,0,1-3.15,1.46,15.36,15.36,0,0,1,4.11-5.41c0-1-1.12-1.7-2.12-1.64a8.27,8.27,0,0,0-2.82,1.06,3.28,3.28,0,0,1-2.9.2l4.24-2.36a3.52,3.52,0,0,0,1.65-1.46c.3-.69-.08-1.7-.82-1.72l-.65-1a9.24,9.24,0,0,1-4.31,1.63,32.18,32.18,0,0,0,3.55-3.74,24.72,24.72,0,0,1-4.35-2.71,39.06,39.06,0,0,0-6.65,4.09,13.45,13.45,0,0,1,6-5.83,10.7,10.7,0,0,1-3.17-3.71l-5.72,1.23a5.77,5.77,0,0,0,2.48-3.17,3.64,3.64,0,0,0-1.06-3.74c-1.7-1.36-4.2-.53-6.19.37,1.42-1.09,3-2.65,2.47-4.36s-3.18-2.09-5-1.39-3.53,2-5.47,1.85a57.23,57.23,0,0,0,5.9-5,6.84,6.84,0,0,1-3.87-3.67,18.35,18.35,0,0,1-5.76,2.45c1.45-1.35,3-3.43,1.92-5.08a2.9,2.9,0,0,0-3.2-.92,8.52,8.52,0,0,0-3,1.89l2.46-3.93-4.25-3.77-.49-.73-6.86,1.56,4-3.22a3.46,3.46,0,0,0-3.95-1.88c-1.92.53-3.22,2.72-5.22,2.74,1.23-1.51,2.47-3,3.7-4.51a1.56,1.56,0,0,0,.39-.71,1.21,1.21,0,0,0-.31-.88,5.06,5.06,0,0,0-4.39-1.79,15,15,0,0,0-4.74,1.33,7.6,7.6,0,0,1,3.63-3.62,3.83,3.83,0,0,0-3.86-2,11.13,11.13,0,0,0-4.37,1.58l3.33-3.56c-.33-1.69-2.64-2.12-4.28-1.59s-3.14,1.65-4.86,1.67l3.87-4-3.78-2.93a3.67,3.67,0,0,0-1.66-.88c-1.93-.26-3.53,2.53-5.36,1.82,1.18-1.17,2.39-2.29,3.65-3.36l-3.94-2.37a2.28,2.28,0,0,0-1.75-.47c-1.07.33-1.64,2.17-2.66,1.7a4,4,0,0,0-1.83-6.18,21.46,21.46,0,0,1-4.44,5.46,25.13,25.13,0,0,1,2-7.18,3.84,3.84,0,0,0-4.19-1.68,11.23,11.23,0,0,0-4.26,2.25,12.18,12.18,0,0,1,4.08-4.15,11.66,11.66,0,0,0-4.26-2.25l-2.89,2.81-9.74,3.36a11.66,11.66,0,0,1-4.32-4l4.19-7.26,4.43-3.86-26.83-16.55c-2.34-1.45-4.69-2.9-6.92-4.51-2.82-2-5.44-4.36-8.25-6.42-5.3-3.88-11.21-6.84-17.12-9.73a45.06,45.06,0,0,0-9.56-3.77c-8.07-1.83-16.49.84-24.76.35l-6.85.09-8-6.43c-7.29-2.58-14.64-5.19-21.31-9.11-8.93-5.25-16.36-12.65-24.35-19.24a1.95,1.95,0,0,0-2.78-.35l-13,7.13c-2,1.1-4.09,2.27-5.37,4.17-2.46,3.63-1.21,8.51-1.79,12.86-.47,3.45-2.33,6.85-5.41,8.47s-7.38,1-9.37-1.87L633,936.9l-.65-4.11a10.72,10.72,0,0,1-4.76-6.55,19,19,0,0,1-.13-8.25,2.78,2.78,0,0,0,0-1.43,2.43,2.43,0,0,0-.92-1.09,12.42,12.42,0,0,0-4.65-2.22c-1.74-.43-3.56-.47-5.31-.85a6.85,6.85,0,0,1-4.47-2.73,75.26,75.26,0,0,0-12,2l-5.42.69-5.39-5.18c-3.92-3.76-8.53-6.71-12.75-10.13s-8.17-7.49-10-12.59l-6.41-4.18a57.37,57.37,0,0,0-8.68-17.75l-7.78-10.91a8.55,8.55,0,0,1-8.52-1.91c-1.22-1.18-2.12-2.75-3.64-3.48-1.06-.52-2.44-.63-3.07-1.63s-.22-2.55-1.09-3.38a4.72,4.72,0,0,0-2-.72c-2.48-.76-3.45-3.63-4.9-5.77a11.55,11.55,0,0,0-11.15-4.86c-2,.32-3.85,1.16-5.83,1.5s-4.27.05-5.57-1.48l-1.32-24.63,18.15-11.16a8.69,8.69,0,0,0,5.3-2.52c1.49-1.34,2.76-2.91,4.34-4.13,4-3.07,9.41-3.67,13.4-6.69,2.88-2.18,4.89-5.54,8.18-7a16.86,16.86,0,0,0,3.35-1.5c1-.74,1.61-2.19.92-3.21s-1.8-1-2.8-1.34c-2.69-.93-4.21-3.74-5.2-6.41s-1.79-5.57-3.9-7.48l.06-6.44,6.35-2.8c5.8,1.8,12.19-2.17,14.91-7.59s2.55-11.83,1.7-17.83-2.32-12-2-18c.54-10.08,6-19.22,12.07-27.26,4-5.34,8.67-10.94,8.91-17.63.31-8.37-6.21-17.5-1.46-24.39,3.4-4.94,10.83-5.16,16.36-2.85s10.11,6.48,15.55,9c10.89,5,24.08,3,34.94,8.09,5.35,2.53,9.81,6.67,15.1,9.33,7.25,3.65,15.75,4.37,22.79,8.39,7.51,4.28,13.55,12.3,22.19,12.64,6.16.24,11.68-3.64,17.71-4.91,8-1.68,16.38,1.37,24.51.36,4.95-.62,9.7-2.73,14.69-2.7,5.22,0,10.18,2.44,15.39,2.82,6.39.47,12.71-2.1,19.11-1.73,9.47.55,17.59,7.61,22,16s5.85,18,7.11,27.4l1.16,5.51L825,722.75q-3.56,7.15-7.13,14.32a23,23,0,0,0-2.27,5.82,20.25,20.25,0,0,0-.18,5.1,83.48,83.48,0,0,0,8.33,31.55l2.12,8.17a54.44,54.44,0,0,0,3.85,13.8l-1.49,14.31q-.5,9.91-1,19.83c-.31,6.27-.46,13.12,3.32,18.13,1.26,1.65,2.88,3,4.08,4.71A12.2,12.2,0,0,1,832,874.66a23.4,23.4,0,0,1-5.36,2.75c-9.3,3.79-18.78,7.62-28.78,8.53-6.76.62-13.56-.13-20.34-.51-2.18-.13-4.6-.14-6.28,1.26a6,6,0,0,0-1.53,6.14,15.16,15.16,0,0,0,3.46,5.65c10.69,12.32,25.29,20.41,38.24,30.33,3.78,2.9,7.43,6,11.08,9l25.59,21.48h5.27a50.66,50.66,0,0,0-1.93,16.83c.06,1,.29,2.25,1.24,2.63s1.88-.31,2.71-.84A12.28,12.28,0,0,1,861,976l-5.24,5.68a30.11,30.11,0,0,0,9.6-1.5c.55,1.21-.84,2.35-2,3.08s-2.22,2.33-1.22,3.22a2.08,2.08,0,0,0,1.2.4c2.86.24,5.61-1,8.19-2.3a25.55,25.55,0,0,1-4.72,5.24,13.34,13.34,0,0,1,7.93,4.84,8,8,0,0,1,4.56-1.55c-1.07,1.45-2.15,2.89-3.23,4.34,1.65.39,2.47,2.58,4.15,2.78a4,4,0,0,0,1.6-.26l5.3-1.64-3.38,3.69a7.42,7.42,0,0,0,8.93.94c.82,1.47-2.79,2.73-1.93,4.17.49.81,1.75.37,2.47-.25s1.7-1.35,2.5-.85a10.41,10.41,0,0,1-1.44,4.79l1.22.73,2.41,2.69a1.75,1.75,0,0,0,.85.63,1.78,1.78,0,0,0,1.05-.23l4.51-2.06-3.55,4.07a5.86,5.86,0,0,0,7,1.06,4.11,4.11,0,0,0-1.85,3.06,3.09,3.09,0,0,0,1.77,3c1.5.62,3.18-.23,4.59-1,.46,1.11-2.18,1.68-1.75,2.8a1.38,1.38,0,0,0,.41.49l3.22,2.76a2.39,2.39,0,0,0,1.21.67,2.33,2.33,0,0,0,1.09-.23l5.14-2q-1.74,2.52-3.46,5a.94.94,0,0,0-.24.61,1,1,0,0,0,.37.57l3.38,3.18a9.77,9.77,0,0,1,5.82-3q-1.69,2.46-3.4,4.91l3.44,3.07a2.51,2.51,0,0,0,1.32.74,2.55,2.55,0,0,0,1.07-.23l2.83-1.08L931,1046.3l1.1.38a5.13,5.13,0,0,0,4,3.4,6,6,0,0,0,5.08-1.68,4.18,4.18,0,0,1-2.48,3.28l5.7,5.6a11.41,11.41,0,0,1,4.82-2.55c.68,1.49-1.54,2.6-2.17,4.11-.8,1.9,1.11,3.77,2.8,5l4.85-2.48c.58,1.12-.54,2.31-1,3.48a3.62,3.62,0,0,0,2.59,4.69,14.54,14.54,0,0,1,6.49-1.73l-3.87,3.36a1.54,1.54,0,0,0-.67,1,1.51,1.51,0,0,0,.5.94q2.84,3.17,5.74,6.29l2-.93a58.88,58.88,0,0,0,7.91-3.94l4.52,8.39c9.33,6.75,16.09,16.54,21.16,26.89s8.61,21.36,12.71,32.13v6a44.9,44.9,0,0,0-7.67,6.22,4.59,4.59,0,0,0-1.07,1.45,4,4,0,0,0-.22,1.4c0,1.85,1,4.2,2.84,4,1.33-.19,2.69-1.72,3.71-.86-.31,1.58-1.74,2.63-2.88,3.77s-2.05,2.95-1.16,4.29a11.54,11.54,0,0,1,6.24,1.47,9.92,9.92,0,0,1-4.34,2.06c-.84,1.1.56,2.6,1.91,2.91s3,.25,3.84,1.31a4.87,4.87,0,0,0-3.17.81c-.85.73-.91,2.38.14,2.78.43.16.94.07,1.36.28.77.39.74,1.56.28,2.29s-1.2,1.27-1.61,2a3,3,0,0,0,1.7,4.05c1.46.41,3.66,0,4,1.49a7.47,7.47,0,0,0-3,2.61,4.6,4.6,0,0,1,4,1.5l-4.16,1.4c.41,1.91.83,3.82,1.24,5.73a9.14,9.14,0,0,1,2.66.18,2.78,2.78,0,0,1-2.33,2.64q.4,3,.8,6a1.73,1.73,0,0,0,.34.94,1.66,1.66,0,0,0,1.39.3l4-.32,2.7,1.84,2,7.08q-.2,6.88.15,13.75c.11,2.35.36,4.91,2,6.62a10.4,10.4,0,0,0,4.69,2.4l13.39,4.13c2.81.87,5.75,1.82,7.79,3.94l7.5,7.65,1.22,4.21c1.09-.23,1.07-2.11,2.14-2.42.8-.22,1.5.66,1.64,1.48a8.66,8.66,0,0,0,.37,2.46c.64,1.33,2.41,1.52,3.89,1.54a1.11,1.11,0,0,0,.57-.1c.39-.2.42-.73.41-1.17l-.06-2.59c0-.27,0-.59.25-.72a.63.63,0,0,1,.59.07c1.82,1,1,4.11,2.49,5.54.88.84,2.24.81,3.45.73,0-1.12.05-2.25.08-3.37,0-.39.06-.84.4-1a.87.87,0,0,1,.93.21c1.29,1.08.87,3.29,2,4.57s2.76,1.1,4.27,1a2.37,2.37,0,0,0,1.47-.49,2.18,2.18,0,0,0,.55-1.14,19.62,19.62,0,0,0,.55-5.66l-.66-2.32,3.94-2.67c22.88-1.37,44.55,11.88,67.48,11.7l4.35,1.84,1.16,2.36q1.38,2.63,2.86,5.19c.11.18.23.38.43.43.46.13.71-.52.73-1l.18-4a6.08,6.08,0,0,1,2.41,2.82,6.09,6.09,0,0,0,.91,1.84,1.24,1.24,0,0,0,1.8.15c.62-.77-.26-2.2.54-2.77s1.53.42,1.78,1.23.59,1.85,1.44,1.88c.62,0,1.09-.59,1.21-1.2a14.05,14.05,0,0,0,0-1.84.78.78,0,0,1,.09-.4.76.76,0,0,1,1-.09c1,.61,1,2.06,1.68,2.93a2.79,2.79,0,0,0,3.35.4,8.2,8.2,0,0,0,2.57-2.54l1.7-1.25q6.23-6.84,12.85-13.3a83.46,83.46,0,0,1,14.4-11.81c10.63-6.51,23.47-8.69,35.93-8.23a20.59,20.59,0,0,1,6.58,1,8.23,8.23,0,0,1,4.83,4.36l.45-.4a6.09,6.09,0,0,1,4-1.84,15.64,15.64,0,0,1,8.77.61c2.73,1.19,4.94,3.92,4.78,6.89a.52.52,0,0,0,.08.39.62.62,0,0,0,.36.12,2.07,2.07,0,0,1,1.61,1.74,6.32,6.32,0,0,1-.23,2.51l.21.71c1.79-.66,3.84.56,4.75,2.25a11.28,11.28,0,0,1,.94,5.59,18.14,18.14,0,0,1-.59,5.25c-1.17,3.85-4.48,6.58-7.62,9.09l-5.66,4.51c-1.94,1.55-4,3.24-4.69,5.62l-6.71,9.62a59.39,59.39,0,0,0-14,8.17c-5,3.9-9.67,10-7.65,16,1.15,3.43,4.35,5.87,7.8,7s7.14,1.11,10.76,1c10.39-.31,21.1-1.33,30.89,2.14a56.92,56.92,0,0,1,12.3,6.53c9.59,6.36,18.5,13.89,25.51,23,3.52,4.57,6.6,9.68,7.61,15.36s-.35,12-4.6,15.94a3.73,3.73,0,0,0-1.15,1.42,3.09,3.09,0,0,0,.22,1.93c1.24,3.57,3,6.94,4.21,10.54s1.65,7.62.22,11.12Zm-557.34,69a5.5,5.5,0,0,0,4.56,1.69c1.29-.15,2.62-.75,3.82-.27a36.47,36.47,0,0,1-3.66,3.25,5.08,5.08,0,0,0,5.47,3.5l-2.09,3a.84.84,0,0,0,.21,1.38,31.86,31.86,0,0,1,5,5.44,19.27,19.27,0,0,0,2.49,3.12,7.34,7.34,0,0,0,4.06,1.83c.7.08,1.67-.19,1.62-.9v-2.88c-.13-12.12-.71-24.27-2.83-36.2-1.79-10.13-4.69-20.08-5.61-30.32l-1.82-2.87c-.75-3.32-1.53-6.71-3.28-9.63a15.39,15.39,0,0,1-1.39-2.51,10.57,10.57,0,0,1-.31-4.38l-.51-2.3a7.39,7.39,0,0,1-1.91-4.28,7,7,0,0,0-.5-2.83c-.88-1.5-3-1.54-4.73-1.39a2.61,2.61,0,0,0-3.23-3.92,3.57,3.57,0,0,0-4-4.87,3.08,3.08,0,0,0-1.49-4.06c-1.19-.5-2.89-.37-3.42-1.56-.15-.35-.15-.76-.33-1.11a2.53,2.53,0,0,0-1-.91l-2.53-1.49a2.9,2.9,0,0,0-2.6-.55c-.73.35-1,1.22-1.55,1.82-1.1,1.22-3.31,1.43-3.76,3-.4,1.37.86,2.58,1.87,3.58,4.51,4.48,5.86,11.14,7,17.39q5.16,27.27,11.5,54.3l.44,4.34a9.89,9.89,0,0,0,2,2.45,3.41,3.41,0,0,0,2.93.79,8.06,8.06,0,0,1-1.28,1.53,1.64,1.64,0,0,0-.38,1.83c.39.63,1.31.64,2,.47a3.23,3.23,0,0,1,2.18-.1l-3,3.67a.88.88,0,0,0-.25.51A.82.82,0,0,0,783.27,1493.71Zm6.35,68.16c.26-.57.53-1.14.8-1.71a6.45,6.45,0,0,0,3.05,5,6.84,6.84,0,0,0,.5-2.05,18.91,18.91,0,0,0,3.8,4.56l.9-2.36a3.52,3.52,0,0,1,.37,2.07c0,.71.26,1.56,1,1.76.93.28,1.64-.82,2-1.72a7.57,7.57,0,0,0,.59,3,3.48,3.48,0,0,0,2.26,2,1.69,1.69,0,0,0,1.13-.08,2.39,2.39,0,0,0,1-1.81,13.81,13.81,0,0,0-.24-6.23l-1.45-3.92-14.81-9.76a26.58,26.58,0,0,1-3-2.22c-.94-.84-1.87-1.86-3.12-2-.07,3,0,6,.19,9l.57,2.58A15.52,15.52,0,0,0,789.62,1561.87Zm21.2,55.32-.27-2.51c.6-.71-.47-1.7-1.4-1.74s-2,.22-2.68-.42c.6-1,1.78-1.35,2.63-2.1,2-1.75,1.69-4.85,1.25-7.45a1.31,1.31,0,0,0-.29-.75,1.37,1.37,0,0,0-.89-.3l-18.77-1.6a20.73,20.73,0,0,0-.91,6.85q-.21,9.27-.4,18.55l.51.87,3.43,2.08a3.87,3.87,0,0,0,1.07.5,3.8,3.8,0,0,0,1.26,0c2.07-.2,4.36-.5,5.71-2.07s1.32-4.08,2.34-6C804.79,1618.57,807.92,1617.48,810.82,1617.19Zm87.72-185.08a76.12,76.12,0,0,0-14.62-38.57,92.65,92.65,0,0,0-1.25,17,1.41,1.41,0,0,0,.2.86,1.87,1.87,0,0,0,1,.49c1.89.63,2.8,2.74,3.47,4.62,2.39,6.72,5,13.93,10.85,18Zm32.26,2.06,2.19-.45,3-4.67,33.77-53.29a6.43,6.43,0,0,0,1.26-3.06,6.37,6.37,0,0,0-1.75-3.88q-3.27-4.21-6.88-8.16l-5.74-2.42a42.23,42.23,0,0,0-21.81-8,78.43,78.43,0,0,0-11.67.25q-9.95.72-19.85,1.73c-1.21.13-2.63.41-3.1,1.53.73.55,1.5,1.64.81,2.23a2.26,2.26,0,0,1-.93.34c-1.78.52-2.15,2.85-2.19,4.71a2.13,2.13,0,0,0,.2,1.18c.62,1,2.79,1.21,2.32,2.29l-3.72.47c0,1.72,0,3.43,0,5.15a2.73,2.73,0,0,1,2.43,1.36c-2-.6-4.19,1-5,2.92s-.67,4.15-.49,6.26l0,1.07a22.24,22.24,0,0,0,6.3,2c-.29,1.48-2.45,1.85-3,3.25s.66,2.76,1.89,3.56,2.69,1.58,3,3c.13.59,0,1.21.16,1.8.42,2,2.87,2.6,4.86,2.85a8.15,8.15,0,0,1-3.68,3.41c-.6,1.2.46,2.68,1.75,3.07a8.19,8.19,0,0,0,4-.24,9.63,9.63,0,0,1-4.13,5.31,2.9,2.9,0,0,0,1.83,3.2,4.81,4.81,0,0,0,3.88-.35,5.06,5.06,0,0,1-3.84,3.43,16.12,16.12,0,0,0,1,4c1.57-.38,3.17-.69,4.78-.92a1.9,1.9,0,0,1-.72,2.43,5.59,5.59,0,0,1-2.68.72c.3.87.59,1.75.88,2.62a6.73,6.73,0,0,1,4.86-.07l-3.11,2.24a2.51,2.51,0,0,0-1.05,1.14,2.57,2.57,0,0,0,0,1.14c.39,3.23.79,6.46,1.18,9.7l.84,1.15A27.76,27.76,0,0,1,930.8,1434.17Zm144-82.17-5-4.66c-6.39-3.26-13.61-4.43-20.69-5.55-8.12-1.29-16.46-2.57-24.49-.82a67.72,67.72,0,0,0-9.57,3.13,30.75,30.75,0,0,0-7.41,3.64c-1.9,1.39-3.45,3.2-5.24,4.73-2,1.67-4.17,3-6.09,4.72a10.87,10.87,0,0,0-3.92,6.45l-1.62,1.57q-1.51,2.68-3.05,5.36a7,7,0,0,1,4.9,1.44c-.88,1.09-2.63.4-4,.63-2.09.33-3.1,2.69-3.74,4.72a15.45,15.45,0,0,1,4.5,1.33,6.11,6.11,0,0,1-4.28,1.12,2.16,2.16,0,0,0-1.45.12A1.75,1.75,0,0,0,983,1381l-1,3.83a4.89,4.89,0,0,1,2.65,1.53c.6.85.39,2.32-.62,2.58a2.42,2.42,0,0,1-1.19-.1l-3.47-.87a10.37,10.37,0,0,0-2.37,3.37,3.55,3.55,0,0,0,.74,3.83c.33.29.75.51.92.91-1,1.33-3.17-.44-4.74.11a2.29,2.29,0,0,0-1,2.94,6.63,6.63,0,0,0,2.24,2.59,8.47,8.47,0,0,0-3.84-.14,2.92,2.92,0,0,0-2.29,2.75c.12,1.53,1.75,2.42,3.17,3a5.88,5.88,0,0,1-3.89.51,2.7,2.7,0,0,0-1.43-.1,2.09,2.09,0,0,0-.91.86l-3.61,5.07-.75,1.24a5.11,5.11,0,0,1,2.3,3.46,5.51,5.51,0,0,0-5.51,1.29,16.43,16.43,0,0,0-3.35,4.89l-3.08,6a6.39,6.39,0,0,1,5.1,2.31,13.4,13.4,0,0,0-5.75.3c-1.82.64-3.42,2.34-3.3,4.27a3.75,3.75,0,0,1,2.4,2.43,6.63,6.63,0,0,0-7.45,3.07,4.27,4.27,0,0,1,3.36,2l-4.58,0a1.77,1.77,0,0,0-1,.22,1.85,1.85,0,0,0-.56,1c-.4,1.26-.79,2.53-1.19,3.79a5.18,5.18,0,0,1,4.34,2.34l-7.12-.17c-.24,1.11-.48,2.22-.73,3.34l5.13,2.93c-.64,1-2.21.09-3.44.06a2.84,2.84,0,0,0-2.52,2,8.28,8.28,0,0,0-.25,3.4,6.4,6.4,0,0,1,3.43,2.44c-.94,1.09-3-.21-4.08.71a2.56,2.56,0,0,0-.67,1.49c-.37,1.84-.74,3.69-1.12,5.53l2,1.69c2.84,1.4,6.44.37,9.25,1.84,1.6.83,2.71,2.36,4.1,3.51a13.79,13.79,0,0,0,7.79,2.86,40.81,40.81,0,0,0,8.4-.47l6.19-2.8,17.33-35c2.56-5.16,5.17-10.41,9.08-14.64a60.14,60.14,0,0,1,7.58-6.57l24.43-18.88a12.59,12.59,0,0,1,5-2.76c2.34-.49,4.94.34,7.08-.72,1.27-.63,2.19-1.85,3.5-2.38a15.47,15.47,0,0,1,3.27-.5c6.37-.94,9.94-9.26,16.37-9.54l.21-1c2-3,2.52-6.68,3.62-10.09,1.52-4.68,4.16-8.9,6.86-13,1.4-2.13,2.85-4.31,3.34-6.81S1077,1353.35,1074.79,1352Zm30.9-20a119.37,119.37,0,0,0-4.68-19.46c-.59-1.76-1.21-3.72-.46-5.42.51-1.16,1.64-2.28,1.21-3.47l-6-10.86a14.29,14.29,0,0,1-4.65-1.61c.26.9.51,1.8.77,2.7.15.53.2,1.29-.33,1.46a.84.84,0,0,1-.75-.21,3.52,3.52,0,0,1-1.14-2.23,6.57,6.57,0,0,0-.79-2.42,1.76,1.76,0,0,0-2.21-.7,29.68,29.68,0,0,1,0,6.25,5.65,5.65,0,0,1-1.51-2.86,13.32,13.32,0,0,0-.53-2.84c-.4-.88-1.52-1.56-2.33-1a20.14,20.14,0,0,1-.37,6.15c-1.53-1.49-1.7-3.85-2-6a1,1,0,0,0-1-1.1l-4.51-.91a1.91,1.91,0,0,0-1,0,1.68,1.68,0,0,0-.89,1.23,10.05,10.05,0,0,0,.27,6.52l1.79,3.25c3.43,1,5.21,4.7,6.48,8a149.08,149.08,0,0,1,6.25,21.11c.65,3,1.15,6.4-.54,9l-5.23,4.9c1.83,1.14,3.92,2.31,6,1.79a7.85,7.85,0,0,0,1.94-.87l15.29-8.55a1.4,1.4,0,0,0,.9-1.85ZM604.52,1212.22c10.25,4.29,21.76,4,32.67,6.13,14.82,2.88,28.36,10.14,41.64,17.31l6.18-2.55c-2.23-9.24-6.7-17.79-11.71-25.87-4.23-6.82-8.87-13.37-13.51-19.92-1.24-1.74-2.47-3.48-3.79-5.16-1.54-2-3.32-3.89-5.69-4.66l-6.83-6.74-8.15-.71c-7.9-4.76-16.34-8.88-25.41-10.54s-18.88-.66-26.7,4.23a18,18,0,0,0-6.48,6.46c-2.09,3.87-2,8.64-.67,12.83a37.2,37.2,0,0,0,6.63,11.33C588.6,1201.81,595.75,1208.56,604.52,1212.22Z"></path>
    <path data-name="2a" data-official="" data-plain="Hair, magnified" data-loc="" d="M880.36,2502.56a923.73,923.73,0,0,1,149.13-13.25c12.26-.09,24.57.06,36.69,1.91,10.18,1.56,22.07,6.29,23.59,16.47,1.07,7.21-4,14.19-10.48,17.61s-13.93,4-21.19,4.56-14.76,1-21.29,4.24c-3.6,1.78-7,4.64-8,8.53-.44,1.77-.36,3.63-.67,5.43-1,5.74-5.79,10.05-10.83,13-13.29,7.71-29.3,8.8-44.67,9.09-6.89.13-15.16-.64-18.4-6.73-3.54-6.68,1.37-16-3.22-22-2.12-2.77-5.7-3.94-9.13-4.54-9.3-1.63-18.81-.15-28.21.7s-19.28,1-27.79-3.11-15.15-13.46-13.19-22.69Z"></path>
    <path data-name="2b" data-official="" data-plain="Involucre and Seed" data-loc="" d="M1099,2535.92c1.9-11.56,3.59-24.28-2.56-34.25-5.71-9.27-17-14-22.65-23.33-3.93-6.55-4.53-14.48-6.19-21.94s-5.13-15.36-12.13-18.44c-5.93-2.61-12.82-1-19.22-2.08-11.58-1.88-20.71-13.48-19.8-25.18.42-5.46,3-10.95,7.56-13.95,4-2.67,9.23-3.18,13.26-5.88,10.08-6.74,7.87-22.2,13.56-32.91,4.26-8,12.75-12.84,21.14-16.32,12.46-5.16,26.33-8.37,39.44-5.22,5.78,1.39,11.27,4,17.16,4.69,11.9,1.45,23.48-4.86,35.47-4.84,12.43,0,23.73,6.75,34.31,13.26,9.36,5.76,19.12,11.94,24.41,21.57,8.32,15.15,3.14,34.05-4,49.78-3.11,6.82-6.61,13.54-11.45,19.27-3.24,3.82-7,7.14-10.25,11-14.46,17.42-15.14,43.48-30.21,60.39-3.43,3.84-7.56,7.15-10.09,11.64-5.17,9.16-2.39,20.78,2.25,30.22s11.31,20.16,7.15,29.94c-3.82,9-14.79,12.13-24.45,13.47a196.91,196.91,0,0,1-36.48,1.63,18,18,0,0,1-7.16-1.38c-5-2.47-6.81-8.72-7.37-14.31A70.54,70.54,0,0,1,1096,2548Z"></path>
    <path data-name="2c" data-official="" data-plain="Seed" data-loc="" d="M1198.56,2545.68a52.76,52.76,0,0,0-4.68-26.24c-2.27-4.91-5.32-9.51-6.72-14.74-3.21-11.93,2.67-24.28,9-34.9,2.79-4.7,5.82-9.47,10.3-12.6,5.14-3.59,11.58-4.64,17.79-5.54,8.44-1.23,17.84-2.14,24.78,2.82a28.56,28.56,0,0,1,5.06,4.95c7.9,9.36,13.92,20.58,15.7,32.7s-1,25.16-8.88,34.55c-3.79,4.52-8.75,8.28-11,13.73-2.39,5.75-1.33,12.37.64,18.28s4.79,11.59,5.91,17.72c1.71,9.31-1.32,20-9.27,25.12-4,2.57-8.73,3.56-13.39,4.34a191.3,191.3,0,0,1-22.27,2.36c-4.55.22-9.29.23-13.42-1.68a17.92,17.92,0,0,1-9.63-13,25.08,25.08,0,0,1,3-16.26c1.94-3.58,4.56-6.75,6.59-10.28s3.46-7.64,2.71-11.64Z"></path>
    <path data-name="2d" data-official="" data-plain="Section" data-loc="" d="M1288.7,2551.37c1.94-7.38-.51-15.2-3.77-22.1s-7.41-13.49-9.18-20.91a59.71,59.71,0,0,1-1.27-13.08c-.13-10.2.71-21.09,6.82-29.25,4.37-5.82,11.07-9.62,18.12-11.45s14.45-1.85,21.7-1.16a52.73,52.73,0,0,1,13.07,2.62c8.36,3,15.18,9.2,21.26,15.69A34.25,34.25,0,0,1,1361,2479a29.42,29.42,0,0,1,2.86,11,64.75,64.75,0,0,1-13.9,46.2,18,18,0,0,0-3.49,5.4c-1.18,3.66.51,7.69,3,10.67s5.58,5.32,8.06,8.27a24.19,24.19,0,0,1-9.23,37.88c-4,1.66-8.3,2.23-12.58,2.7a347.19,347.19,0,0,1-36.61,2.09c-5.7,0-12.61-.86-14.89-6.07a12,12,0,0,1-.24-7.41c1.18-5.17,3.77-9.9,5.78-14.81s3.46-10.34,2.22-15.5Z"></path>
    <path data-name="3" data-official="Abronia mellifera" data-plain="Honey-scented Abronia" data-loc="California" d="M1827.32,2319.1c-.81-17.66-4.61-35.49-13.57-50.74-12-20.37-32-34.48-51-48.45-3.6-2.64-7.42-5.63-8.53-9.95-.76-3-.09-6.13.83-9.06,3.19-10.19,9.23-19.19,14-28.73s8.42-20.33,6.25-30.78l5.51-12.43c-3.87-7.05-7.79-14.22-9.64-22.05s-1.42-16.56,3-23.31c2.93-4.51,7.36-7.8,11.64-11.07,12.6-9.62,25.56-21.35,27.74-37,1.24-9-1.27-18.16.19-27.08,2.32-14,14.22-26,13.26-40.16-.59-8.8-6.13-16.59-7.33-25.32-2-14.5,8.12-29.63,2.83-43.28-3.87-10-16.44-15.56-26.44-11.75l-7.28-10.4c-10.83-10.71-17.72-24.68-24.41-38.36-3.85-7.88-7.79-16.74-5.2-25.11,3.39-11,15.91-15.62,26-21.18a77.57,77.57,0,0,0,34.09-97.66s-22.11-14.08-28.67-18.07a40.56,40.56,0,0,1-7.48-5.42,14.56,14.56,0,0,1-4.43-8l-2.06-3.61a24.57,24.57,0,0,0-13.51-11.15c-2.27-.76-4.74-1.23-6.56-2.8-2.63-2.25-3.13-6.11-5.09-9-2.13-3.13-5.89-4.83-9.63-5.36s-7.56,0-11.31.42a4.61,4.61,0,0,1-2.45-.15,6.26,6.26,0,0,1-1.63-1.37c-2.67-2.59-6.64-3.13-10.33-3.55l-3.16-.13a5.91,5.91,0,0,0-6.08,3.11c-1,2-.87,4.64-2.52,6.15s-4,1.17-6.06.56-4.14-1.48-6.2-1c-1.37.32-2.63,1.24-4,1.11a5.71,5.71,0,0,1-2.26-.93l-5.68-3.39c-2.2-1.32-4.5-2.73-5.76-5-1-1.69-1.2-3.69-2-5.46-1.83-4.18-6.46-6.6-11-7s-9,1-13.29,2.71a9.17,9.17,0,0,1-2.79.79c-2.26.13-4.56-1.43-6.69-.65-2.34.87-2.94,4-5,5.46-1.68,1.24-4,1.09-6,.43s-3.79-1.78-5.79-2.36c-3.87-1.12-8-.14-11.89.84l-4.93.94a11,11,0,0,0-3.33,4c-.19.39-.4.84-.82,1a1.6,1.6,0,0,1-.94-.06c-6.11-1.62-12.67-3.25-18.64-1.15a27.21,27.21,0,0,0-7.94,4.89,18,18,0,0,0-4.37,4.59c-1.53,2.56-1.83,5.66-3,8.42-1.9,4.71-6,8.12-9.91,11.32l-10.67,23.13c.76,14.67-.55,30,5.25,43.48,2.51,5.83,6.25,11,9.78,16.31,5.46,8.16,10.52,16.65,14.13,25.78,8.45,21.29,8.7,44.82,8.83,67.72,0,6.3.07,12.6-.17,18.9-.11,2.81-.44,6-2.59,7.76l-.68,10q-8.14,11.28-16.31,22.54a9.88,9.88,0,0,1-3.88,3.69c-3.1,1.27-6.46-.83-9.19-2.76a198.38,198.38,0,0,0-91.47-34.84c-3.49-.4-7.48-1-9.42-3.91a12.11,12.11,0,0,1-1.43-4,284.76,284.76,0,0,0-14.89-46.12l-.95-10.91c-12.38-5.12-22.09-16-35.09-19.23-5.66-1.4-11.57-1.22-17.4-1.3l.29,5.35a57.11,57.11,0,0,0-19.72,33.34c-1.11,5.91-1.28,12-3.14,17.74-2.73,8.42-8.89,15.26-15.39,21.26-4.27,3.93-8.86,7.75-11.56,12.87-2.82,5.35-3.31,11.58-3.54,17.62-.34,8.67-.27,17.44-2.26,25.89s-6.35,16.72-13.67,21.4a201.78,201.78,0,0,0-70.27-120.48c13.72-12.21,22.51-31,19.13-49.1l-4.42-5.28a25,25,0,0,0-15.37-4.22,15.68,15.68,0,0,1-4.74,0c-3.5-.86-5.42-4.52-6.94-7.79-3.86-8.33-8.19-16.89-15.55-22.38a57.67,57.67,0,0,0-9.27-5.29l-22.45-11.07c-3.61-1.78-7.27-3.59-10.25-6.3s-5.16-6.24-8.19-8.9c-4.55-4-10.73-5.76-16.78-6s-12.08.82-18,1.91l-9.14-.52-5.77,7.39c-1.92,2.31-5.37,2.36-8.19,3.38-3.33,1.21-5.89,3.86-8.28,6.47a27.77,27.77,0,0,0-4,5.26,9.71,9.71,0,0,0-1.2,6.41,41.39,41.39,0,0,0-14.55-12.61l-6.15-4.58-6.42.23a100.42,100.42,0,0,0-1.76,29.25l3.43,7.43a2.66,2.66,0,0,1,2,.69c1.79,1.49,2.15,4,2.65,6.3a30.31,30.31,0,0,0,6,12.43c1.38,1.7,2.94,3.26,4.34,4.94a35.05,35.05,0,0,1,8,24.06l-3.81-6.92c-.95-1.72-1.9-3.45-3-5.1-5.52-8.57-13.94-14.91-19.88-23.19l-1.3-4.23-6.8-4a93.68,93.68,0,0,0-21.6-1.69c-4.12.16-8.63.78-11.45,3.79-3.12,3.34-3.12,8.44-2.94,13,.19,4.91.41,9.94,2.32,14.47,1.71,4,4.64,7.39,7.52,10.68l10.8,12.32,5.64,5.23c3.24-1.93,7.19.55,10.38,2.57,6.51,4.11,13.94,6.51,21.28,8.87l1.86,10.16,4.69,6.66a46.75,46.75,0,0,1,1.47,23.24c-1,5-2.73,9.8-3.21,14.84s.57,10.6,4.35,14c1.8,1.61,4.14,2.65,5.6,4.57,1.66,2.17,1.91,5.06,2.07,7.78,1.92,32.72-1.56,65.51-1.62,98.28,0,9,.22,18.09-.56,27.1a91.69,91.69,0,0,1-31.19-26l-6.68-5.91c-.8,3.31-4.61,5.23-8,4.86s-6.34-2.49-8.78-4.88-4.54-5.13-7.21-7.24-5.62-3.43-8.29-5.37a25,25,0,0,1-9.19-13l-2.75-6.9-4.46-4.87c-3.61-6.31-4.51-13.8-4.57-21.06s.63-14.56-.14-21.78c-1.35-12.82-7.17-24.67-12.89-36.21l-8.19-1c-6.81,1.91-14.18-2-18.45-7.67s-6.09-12.72-7.82-19.58l-4.28-17c-1.77-7-3.56-14.07-6.53-20.67-3.5-7.76-8.57-14.69-13.6-21.55l.19-8.46-5.06-3.77c-23.08-14.67-34.67-44.43-59.79-55.24l-11.59-4.56-9,1.44a41,41,0,0,1-22.46-17.12c-1.91-3-3.41-6.25-5.15-9.36-4.08-7.24-9.44-13.67-14.77-20a38.1,38.1,0,0,1-2.27,19.08c-1.38,3.53-3.3,6.85-4.54,10.44-2.43,7-2.14,14.75-.28,21.93l1.08,2.76c2.31,15.1,1.12,30.91,6.45,45.23,1.36,3.64,3.12,7.13,4.37,10.82,2.38,7,2.8,14.58,2.94,22l4.41,22.27q1.2,30.13,2.39,60.28c.19,4.83.37,9.75-.9,14.41s-4.27,9.1-8.76,10.9l1.56,7.29c-2.9,16.82,5.66,33.24,9,50,3.36,16.91,1.33,34.42-2,51.34-1.65,8.52-4.12,17.77-11.23,22.75-1.4,1-3.13,1.78-4.79,1.37s-2.75-1.82-3.9-3c-8.25-8.7-21.87-8.72-33-13.29-10.5-4.33-18.67-12.77-28.13-19.07-7.43-5-15.69-8.6-23-13.74-7.89-5.55-14.49-12.71-21-19.81-11.6-12.61-23.26-25.3-32.49-39.73-3.54-5.53-6.85-11.46-12.09-15.41s-13.16-5.32-18.22-1.14c-5.32,4.38-5.25,12.4-4.78,19.28q2.4,35,2.83,70.11c.21,17.18.48,35.69,10.73,49.47,6.36,8.55,16,14.31,22.06,23.06,8.4,12.06,9.48,28.84,20.35,38.74,8.74,8,21.62,9.37,31.63,15.66,9,5.69,15.14,15,23.06,22.1,16.54,14.92,39.63,19.62,61.52,23.75l4.81,3.9a113.1,113.1,0,0,1,25,87.07c-.77,5.53-2,11.17-5.22,15.75l-8.74,3.39c-77.43,12-160.31,1.08-231.19,34.48-18.64,8.79-36.34,20.92-47.63,38.16s-15.18,40.24-6.18,58.78c5.94,12.24,23.27,21.67,32.58,11.74,3-3.19,4.25-7.62,6.85-11.13,12.31-16.69,42.22-2.7,58.07-16.08,8-6.78,9.65-18.39,15.08-27.39,9.12-15.1,27.76-21.18,45.07-24.55,30.82-6,62.35-7.06,93.73-8.11,52.31-1.76,104.79-3.51,156.88,1.56,31.87,3.11,63.92,8.77,95.72,5,34.1-4,66.12-18.72,100-24.38s73.58.4,93.38,28.46l7.07,8.83a116.1,116.1,0,0,0,46.39,65.34c11.55,7.85,25.28,13.7,39.16,12.23,7.72-.82,15-3.84,22.71-5.08,16.68-2.7,33.55,3.2,50.45,3.1,23.22-.13,46.34-11.54,68.94-6.21,12.26,2.9,23.11,10.54,35.53,12.63,11.56,1.95,23.34-1.1,34.46-4.79,5.62-1.86,11.34-4,15.75-7.93,7-6.28,9.61-16.46,8.51-25.81s-5.47-18-10.55-25.94A142.47,142.47,0,0,0,1516.9,2345c-4.71-4.41-10.1-9.22-10.51-15.66-.39-6,3.85-11.39,8.91-14.57,13.34-8.39,31.65-4.23,43.94,5.65s19.87,24.29,27,38.34,14.51,28.53,26.51,38.76c13.08,11.14,30.21,16,45.58,23.68,25,12.51,46,32.95,72.62,41.29,21.86,6.84,45.69,4.81,67.75-1.37,5.72-1.61,11.73-3.74,15.26-8.52,3.26-4.4,3.75-10.2,4.13-15.67l3.81-54.87L1824,2372C1826.07,2354.41,1828.12,2336.76,1827.32,2319.1Zm-747-529.35a18.92,18.92,0,0,1-11.16-2.68,10.39,10.39,0,0,1-4-4c-1.86-3.71-.36-8.72-3-11.89a6,6,0,0,1-1-1.28c-.63-1.38.48-3,.08-4.49a16.93,16.93,0,0,1,5.69,4.63,72.21,72.21,0,0,1,8.89,12.56c1.23,2.21,2.44,4.59,4.59,5.93Zm-89,456.65c-1.8,2.48-4.21,4.81-7.25,5.23-3.78.52-7.78-2-11.29-.51-3.34,1.42-4.29,5.57-5.75,8.89a19.8,19.8,0,0,1-15.7,11.62,18.46,18.46,0,0,1-17.4-8.54c-4.86-8.11-2.45-18.36-1.32-27.75,1.3-10.68.72-21.48.3-32.22-2.07-53.44-.1-106.94,1.88-160.38l4.39-11.25,11.16-11.26a101.22,101.22,0,0,0,9.09-10,73.77,73.77,0,0,0,10.18-19.86,33,33,0,0,1,3.53-7.84c1.64-2.35,4.2-4.27,7.08-4.37l5.48,3.72q7.93,112.65,12.76,225.48C999.06,2220.84,999.28,2235.47,991.34,2246.4Z"></path>
    <path data-name="3a" data-official="" data-plain="Stamens and Pistil" data-loc="" d="M448.65,2502.44q-2.92-58.49-4.41-117.05c-.21-8.4-.38-17,2.17-25a43.43,43.43,0,0,1,8.77-15.25c8.2-9.4,20.47-15.66,32.91-14.82s24.44,9.67,27.26,21.81c2.57,11.06-2.3,22.31-4.3,33.49-3.25,18.25,1.24,36.9,1.83,55.44.34,10.61-.61,21.22-1.55,31.8l-3.58,40.1c-1.1,12.31-2.08,25.31,3.2,36.48,5.05,10.67,15.76,20.12,13.77,31.76A22.23,22.23,0,0,1,519,2592c-7.27,8.13-17.91,12.61-28.66,14.42s-21.74,1.16-32.62.52c-5.65-.33-11.65-.79-16.19-4.15-6.8-5.05-7.93-15.21-5-23.16,2.84-7.68,8.66-13.94,11.82-21.5,4.66-11.1,3.13-23.69,1.53-35.62Z"></path>
    <path data-name="3b" data-official="" data-plain="Fruit" data-loc="" d="M575.94,2545.56c1.79-5.76-.76-12.08-4.62-16.71s-8.93-8.06-13.37-12.13A61.73,61.73,0,0,1,539.31,2484c-1.94-9.24-1.49-19.59,4.13-27.18,2.69-3.63,6.39-6.4,9.31-9.86,3.52-4.17,5.85-9.3,9.76-13.11,6.49-6.31,16.23-7.95,25.28-7.8,14.92.25,29.45,4.47,43.78,8.65,6.64,1.94,13.61,4.07,18.42,9.05,6.5,6.73,7.49,16.92,7.78,26.27.3,10,.11,20.52-4.57,29.4-4.44,8.41-12.67,14.86-15,24.1-1.74,7.07.36,14.44,2,21.55,2.58,11.34,3.52,24.53-4.08,33.34-5.15,6-13.15,8.56-20.83,10.36a175.8,175.8,0,0,1-34,4.54c-3.74.13-7.64.11-11-1.5-6-2.87-8.8-10.2-8.33-16.83s3.52-12.78,6.52-18.72Z"></path>
    <path data-name="3c" data-official="" data-plain="Seed" data-loc="" d="M685.45,2529.15a73.61,73.61,0,0,1-19.06-65.52c1.3-6.14,3.38-12.61,1.22-18.5-1.19-3.24-3.61-6-4.23-9.43-1.22-6.64,5.4-12.73,12.14-13.25s13.12,3,18.59,6.94c24.1,17.5,38.86,47.53,36.9,77.25-.36,5.5-1.29,11.08-3.9,15.94-2.32,4.32-6,8.13-6.71,13-1.2,7.78,5.31,14.34,11,19.82s11.37,13.25,8.37,20.52c-1.81,4.38-6.3,7-10.69,8.76-8.81,3.57-18.3,5.07-27.74,6-7.87.82-16.12,1.25-23.37-1.9s-13.09-10.89-11.5-18.63c1.51-7.33,8.59-11.85,14.43-16.53s11.35-12.23,8.32-19.07Z"></path>
    <path data-name="4" data-official="Pisonia obtusata" data-plain="Obtuse-leaved Pisonia" data-loc="South America" d="M409.15,185.82a47.31,47.31,0,0,0-25.32-8.34c-5.64-.18-11.55.63-16.75-1.58-7.61-3.23-11.41-12.17-11.4-20.44a27.84,27.84,0,0,1,3.78-14.4c4.41-7.25,12.29-11.46,19.49-15.93s14.55-10.21,16.51-18.45c.61-2.6.65-5.31,1.34-7.88a16.29,16.29,0,0,1,13.84-11.68l15.22,3.51c16.22,10.74,29.71,25.27,46.18,35.62,35.8,22.49,80.73,22.65,123,22.24,111.79-1.08,228-.27,328.78,48.2a374.3,374.3,0,0,1,121.48,93.37c14.68-21.26,11.87-50.33,2.3-74.33s-25-45.23-35.19-69a170.52,170.52,0,0,1-13.64-69.4c.25-16.09,3.43-33.41,15.08-44.52,21.25-20.27,55.41-9.29,84.64-6.4,27.19,2.69,55.12-2.92,81.74,3.28,45.39,10.57,75.8,52,102.07,90.53L1340.79,206c8.29,12.16,16.63,24.4,22.59,37.85,22.85,51.63,6.74,113.41-24.5,160.45l-13.42,9.38a110.46,110.46,0,0,1-80.32,32.95c-4.18-.08-8.93-.2-11.84,2.8-2.34,2.4-2.7,6.14-2.09,9.44,1.44,7.89,7.57,14.31,14.68,18s15.18,5.13,23.12,6.29c24.61,3.62,51.5,6.24,69.52,23.4,2.8,2.66,6.28,5.9,9.94,4.66,2-.67,3.29-2.49,4.47-4.22,19.32-28.4,37.94-58.05,64.4-79.95s63-35,95.66-24.4a35.2,35.2,0,0,1,12.3,6.37c8,6.92,10.29,18.23,12.93,28.51a189.83,189.83,0,0,0,21.11,50.38c8.56,14.22,19.06,27.47,24.83,43,4.7,12.69,6,26.37,6.67,39.89a423.83,423.83,0,0,1-9.1,109.37l-4.83,10.63c-3.53,8.21-7.09,17.48-3.84,25.81,2.89,7.43,10.39,11.86,17.37,15.72,9.25,5.12,18.55,10.25,28.43,14,6.46,2.47,13.24,4.39,19,8.2,14.72,9.72,19.43,29.21,19.58,46.85s-3,35.58,1.09,52.74c2.7,11.35,8.43,21.72,14.1,31.92,20.53,36.93,41.26,74.16,68.83,106.18l3.84,10.91a89,89,0,0,1,15.6,48.46c.17,9.1-.88,18.95,4.1,26.57,4.2,6.43,11.81,9.73,19.23,11.71s15.44,3.09,22.38,6.65c12,6.15,19.38,19.14,21.43,32.43s-.66,26.9-4.78,39.7-9.68,25.12-13.6,38c-3,9.91-4.58,22,2.55,29.49l2.07,8.92c6.07-3.87,13.85.52,19.84,4.52,13.76,9.19,28.57,16.87,41.49,27.21s24.1,24,27.24,40.26c3.46,17.94-3.24,36.74.55,54.61,3.39,16,14.75,29.22,19.34,44.9,2.78,9.52,3,19.57,3.08,29.49q.27,24,.1,48c-.08,10.71-.23,21.5-2.58,31.94-2.24,10-6.46,19.46-11.1,28.6-7.88,15.51-17.13,30.43-28.73,43.39A150.77,150.77,0,0,1,1781,1647.43l-17.94,1.56c-2.27-.76-4.74-1.23-6.56-2.8-2.63-2.25-3.13-6.11-5.09-9-2.13-3.13-5.89-4.83-9.63-5.36s-7.56,0-11.31.42a4.61,4.61,0,0,1-2.45-.15,6.26,6.26,0,0,1-1.63-1.37c-2.67-2.59-6.64-3.13-10.33-3.55l-3.16-.13a5.91,5.91,0,0,0-6.08,3.11c-1,2-.87,4.64-2.52,6.15s-4,1.17-6.06.56-4.14-1.48-6.2-1c-1.37.32-2.63,1.24-4,1.11a5.71,5.71,0,0,1-2.26-.93l-5.68-3.39c-2.2-1.32-4.5-2.73-5.76-5-1-1.69-1.2-3.69-2-5.46-1.83-4.18-6.46-6.6-11-7s-9,1-13.29,2.71a9.17,9.17,0,0,1-2.79.79c-2.26.13-4.56-1.43-6.69-.65-2.34.87-2.94,4-5,5.46-1.68,1.24-4,1.09-6,.43s-3.79-1.78-5.79-2.36c-3.87-1.12-8-.14-11.89.84l-4.93.94-11-6.17c-15.07-24.9-14.47-58.43,1.47-82.77,2.24-3.42,4.87-7.46,3.39-11.27a8,8,0,0,0-4.21-4.11c-5.52-2.54-12.23-.3-16.91,3.58s-7.91,9.17-11.68,13.94a75.05,75.05,0,0,1-57.07,28.11l-3.9,5.59-17.21-17.3c-3.28-.57-6.15-2.51-9.27-3.68-8.22-3.08-17.75-.49-24.81,4.73-2,1.51-4,3.25-6.32,4.28a23.76,23.76,0,0,1-4.56,1.29c-6.47,1.37-13.17,2.74-19.65,1.4a34.61,34.61,0,0,0,16.43-17.63,11.27,11.27,0,0,1,2.27-4.08,10,10,0,0,0,1.94-1.84c.59-1,.39-2.27.32-3.43-.45-7.23,4.62-13.49,7-20.31a28.73,28.73,0,0,0,1.14-14.68l-1-6.6,4.87-12.87c4.13-22,7.57-45.31,0-66.37-3.17-8.75-8.13-16.71-12.2-25.08-20.88-42.87-17.46-93.59-7.08-140.13l1.86-9.92a27.66,27.66,0,0,0,10.43,1.65,8.38,8.38,0,0,0,3.14-.59,10,10,0,0,0,3.24-2.77c6.45-7.39,13-14.94,16.89-24,2.31-5.36,3.66-11.2,6.92-16a23.51,23.51,0,0,1,6-6.17l6.63-5.39q3.26-3.8,6.64-7.47a1.8,1.8,0,0,1,1-.67,1.75,1.75,0,0,1,1,.17,62.08,62.08,0,0,0,18.28,3.66l2.25.17a8.73,8.73,0,0,0,4.47-2,8,8,0,0,1,2.78-2,6.33,6.33,0,0,1,2.49,0,22.94,22.94,0,0,0,7.75-.31,3.15,3.15,0,0,0,1.9-.93,6.78,6.78,0,0,0,.72-1.85,4.62,4.62,0,0,1,4.09-2.62,13.41,13.41,0,0,1,5,.93,6.89,6.89,0,0,1,2.21-6.61c1.1-.93,2.5-1.51,3.42-2.62a23.54,23.54,0,0,0,1.81-3.36c1.17-2,3.22-3.22,5.23-4.31s4.11-2.16,5.55-3.94,2-4.5.63-6.33l1.15-.1a6.05,6.05,0,0,0,2.71.11,12.31,12.31,0,0,1,0-7.38,7,7,0,0,1,5.36-4.71c1.13-.16,2.56-.11,3.06-1.13a3.47,3.47,0,0,0,.14-1.67,6.92,6.92,0,0,1,2.76-5.81c1.06-.79,2.34-1.25,3.41-2,3.14-2.3,3.76-6.66,4.12-10.54l2.43-4.9,8-.48c9.47.85,19.13,1.69,28.39-.44s18.25-7.77,21.94-16.53c2.42-5.76,2.46-12.49,5.91-17.68,3.28-5,9.31-7.91,11.53-13.41,1.75-4.32.75-9.2-.28-13.74l-6.18-27.26c-1.28-5.66-2.94-11.87-7.8-15-3.49-2.28-7.91-2.46-12.08-2.34-17.78.52-37.1,4.83-52.29-4.44l-13-1.65-6.73-7.86-4.25-9.38a8.89,8.89,0,0,0-1.58-2.61c-.75-.75-1.8-1.25-2.32-2.18-.29-.5-.39-1.09-.65-1.61-.52-1-1.58-1.61-2.23-2.53-1.75-2.42-.18-6.06-1.58-8.69-1.17-2.19-4.16-3.24-4.62-5.67a5.11,5.11,0,0,0-.37-1.75c-.41-.7-1.32-.91-2-1.42-1.71-1.42-.71-4.29-1.68-6.29a6.72,6.72,0,0,0-2.31-2.34l-10.1-7.3a16.77,16.77,0,0,0-2.72-1.71,13.87,13.87,0,0,1-2.1-1,14.51,14.51,0,0,1-2.42-2.8c-.8-.94-2.08-1.71-3.23-1.26l-1.43-.18-5.94-3.1a2.74,2.74,0,0,0-1.36-.44,3.1,3.1,0,0,0-1.45.64,15.27,15.27,0,0,1-7.37,2.38c.15-2.44.26-5.06-1-7.17-.34-.58-.77-1.1-1.1-1.69a18.56,18.56,0,0,1-.9-2.16c-1.3-3.26-3.71-5.93-6.08-8.52l-9.91-10.85L1489,883.12c-2.37-13.63-13.56-24.14-17.56-37.39-1.69-5.57-2-11.44-2.64-17.23q-.94-9-2.7-17.94c-.7-3.55-1.75-7.44-4.8-9.4-1.88-1.2-4.2-1.43-6.43-1.63l-35.54-3.16c-3.73-.33-7.94-.52-10.72,2-2.6,2.33-3,6.19-3,9.67.32,16.44,8.06,31.74,16.18,46q8.28,14.58,17.33,28.7l1.9,5.63a44.08,44.08,0,0,0-15.85,13c-.37.5-.81,1.05-1.43,1.1a2.29,2.29,0,0,1-1.17-.36,18.92,18.92,0,0,0-15.43-.67l-4.83,0-9.7-7.28c-9-12-18.18-24.43-21.74-39a5.49,5.49,0,0,0-1.22-2.74c-1.11-1.06-2.86-.93-4.39-.8a46.53,46.53,0,0,1-16.72-1.69l-6.71-5.3a9.33,9.33,0,0,0-3.15-6.43,9.91,9.91,0,0,1-2.69-2.63,6,6,0,0,1-.1-4.09c.81-3.48,2.15-6.91,2.12-10.48s-1.93-7.49-5.39-8.38l.56-.9a15.87,15.87,0,0,0-12.29-16,7.9,7.9,0,0,0,1.64-4.61,9.46,9.46,0,0,0-1.21-3.68q-2.82-5.7-5.74-11.34c-2-3.93-4.16-7.92-7.34-11s-7.63-5.16-12-4.44l-.14-1.19a6,6,0,0,0-1.05-8.11,12.22,12.22,0,0,1-2-1.53c-1.07-1.27-.9-3.17-1.64-4.66-.91-1.85-3-2.75-5-3.31-6-1.69-12.84-1.52-17.76,2.23l.61-.07a19.19,19.19,0,0,0-11.27-9.5c.07-4.5-3.42-8.44-7.51-10.3s-8.72-2.07-13.21-2.25l.4-1.43a27.92,27.92,0,0,1-7.38-7.16c-1.37-1.92-2.62-4.13-4.78-5.08-3.1-1.36-6.93.41-10-1-1.65-.77-3-2.43-4.81-2.37a5.62,5.62,0,0,0-2,.57l-9.68,4.17c-1.67.72-3.59,1.45-5.26.72-2.25-1-4-4.34-6.14-3.18a12.44,12.44,0,0,0-1.35,1.17c-1,.78-2.47.7-3.77.74-3.42.12-6.69,1.39-10.06,2s-7.2.5-9.77-1.77l-10.28-2.18-7.28-7.83c-5.34-3.54-8.57-9.56-10.37-15.71s-2.39-12.58-3.71-18.85a83.33,83.33,0,0,0-28.23-46.72l-5.41-7.86a80,80,0,0,0,3.66-22.59l.42-5.32.6-20.14c.13-4.46.27-9,1.45-13.26.79-2.92,2.06-5.7,2.81-8.63a51.79,51.79,0,0,0,1.14-12.32c0-3.9-.06-8.22-2.74-11.06s-6.87-3.19-10.71-3.23a119.16,119.16,0,0,0-20,1.49l-6.7,1.49c-5.36.46-11.27,1.18-14.86,5.19-.43.48-.91,1.05-1.56,1.08a2.76,2.76,0,0,1-1.13-.35,7.83,7.83,0,0,0-7.31.48c-3.91,2.45-5.14,8-9.28,10.1l-5.39,4-16.39,9.12a118.85,118.85,0,0,1-49.17,5.57l-9.65-6.33L949,537.6c-.94-2.09-1.68-5,.21-6.29,1.07-.74,2.51-.51,3.8-.71,2.47-.36,4.38-2.25,6.12-4,1.24-1.28,2.53-2.67,2.82-4.42s-.49-3.5-.73-5.27a8.73,8.73,0,0,1,2.17-6.93,12.28,12.28,0,0,0,1.66-1.88c.75-1.26.67-2.82.72-4.29.36-9.54,8.43-18.2,17.92-19.23-5-.37-9.32-3.5-14.13-4.9-2.26-.66-4.61-.94-6.91-1.43A37.44,37.44,0,0,1,951,473.53c-2.14-1.31-4.25-3-5.15-5.31l-.77-2.05a109.2,109.2,0,0,0-19-1.93c-6.33-.09-13.24.61-17.82,5,.28-.85-.54-1.68-1.38-2a8.75,8.75,0,0,1-2.5-1c-.46-.38-.76-.93-1.21-1.32-1.3-1.12-3.38-.57-4.89-1.38-1-.56-1.63-1.67-2.56-2.38-1.8-1.39-4.39-1-6.51-.18s-4.14,2.07-6.4,2.24c-2,.14-3.85-.52-5.77-.87s-4.09-.33-5.57.94c-1.08.93-1.7,2.46-3,2.95a7.49,7.49,0,0,1-2.17.24c-4.94.35-8.08,6.16-13,6.73a15.42,15.42,0,0,0-3.41.35,21.14,21.14,0,0,0-3,1.93,10.09,10.09,0,0,1-5.31.91,84.08,84.08,0,0,1-19.39-2.7l-13.75-9.69c-27.94-22.54-48-54.19-58.57-88.49S737.84,304.43,743.63,269c2-12,4.74-24,4.55-36.11-.08-4.89-.7-9.94-3.24-14.11-6.47-10.61-21.5-10.88-33.88-9.89l-150.53,12c-22.91,1.83-46,3.66-68.81.64s-45.52-11.31-62.08-27.25Z"></path>
    <path data-name="4a" data-official="" data-plain="Flower, magnified" data-loc="" d="M114.86,2549.68c-.14-15-7.75-28.81-12.12-43.18-3.08-10.12-4.57-20.64-5.76-31.15a570.46,570.46,0,0,1-2.81-93.6c1.79-34.25,6.5-69.8-5.53-101.91-3.76-10-9.11-21.11-4.57-30.8,3.42-7.29,11.36-11.07,17.75-16,9.38-7.19,15.9-17.37,22.9-26.89s15.13-18.91,26.11-23.29,25.43-2.07,31.62,8c3.6,5.85,3.87,13.1,6.22,19.55,2.24,6.14,6.29,11.4,9.74,16.94,8.1,13,13,28.53,10.94,43.71-1,7.51-3.7,14.67-5.87,21.93-7.63,25.6-8.87,52.6-10.06,79.29l-3.61,80.87c-.69,15.45-1.44,31.19-6.78,45.71-4.1,11.12-10.86,21.46-12.25,33.23-1.8,15.18,5.61,29.82,7.66,45,1,7.35.41,15.61-4.73,20.94-4.57,4.73-11.56,6-18.06,7-15.47,2.41-32.14,4.65-46.13-2.39a20.44,20.44,0,0,1-8.3-6.92c-3.3-5.22-2.72-12.18-.07-17.77s7.06-10.12,11.4-14.53Z"></path>
    <path data-name="4b" data-official="" data-plain="Stamens and Pistil" data-loc="" d="M232.75,2539.12a172.68,172.68,0,0,0-8.18-61.19c-5.76-17.76-14.51-36.35-9.23-54.26,3.32-11.25,11.81-20.33,15.76-31.38,3.16-8.85,3.22-18.47,3.25-27.87l.19-56.38c0-9.16,0-18.43-2.2-27.31-3.33-13.18-11.62-25.94-9-39.28,2.75-14,16.39-22.82,28.8-29.95a18.31,18.31,0,0,1,6.75-2.76c4.45-.54,8.65,2.22,11.8,5.41,12.42,12.52,14.44,34,4.59,48.62-2.55,3.79-5.81,7.17-7.54,11.4-1.84,4.48-1.8,9.48-1.72,14.32l1.33,87.78c.13,8.7.41,17.9,5.06,25.25,3.23,5.11,8.33,8.86,11.42,14.06,4,6.68,4.2,14.88,4.09,22.65a424.78,424.78,0,0,1-8.64,79.18c-1.28,6.24-2.71,12.69-1.38,18.92,1.41,6.63,5.76,12.18,8.86,18.21a51.46,51.46,0,0,1,5.52,27.06c-.24,3.41-.88,6.92-2.81,9.74-1.83,2.67-4.66,4.48-7.51,6a65,65,0,0,1-35.35,7.37c-7.12-.56-14.36-2.41-20-6.8s-9.34-11.7-8-18.72c1.92-10.35,13.67-17.62,13.24-28.14Z"></path>
    <path data-name="4c" data-official="" data-plain="Cluster of Fruit" data-loc="" d="M344.11,2558.28c.76-7,1.43-14.44-1.76-20.69-3-6-9-9.71-14.29-13.77-21.9-16.77-36.1-44.71-32.35-72,.71-5.15,2.39-10.74,6.84-13.42,1.86-1.13,4.05-1.63,5.9-2.78,3.87-2.41,5.56-7.28,5.65-11.84s-1.13-9-1.74-13.56c-1.19-8.84.14-18.35,5.43-25.54s15-11.4,23.51-8.62c8.2,2.7,14,11.13,22.58,12.22,6,.77,11.86-2.33,17.92-2.56a19.52,19.52,0,0,1,18.07,11.18c2.73,6,2.18,13.08,4.63,19.22,4.17,10.46,15.83,15.85,22.24,25.11,5.21,7.51,6.59,17.16,5.59,26.24s-4.18,17.76-7.45,26.29c-4.64,12.12-9.76,24.51-19,33.62-6.53,6.42-14.88,11-20.58,18.11s-7.72,18.77-.89,24.87c3.33,3,8,4,11.59,6.64,6.81,5.1,7.93,14.86,7.15,23.34-.46,4.91-1.55,10.15-5.2,13.47-3.05,2.76-7.31,3.66-11.36,4.39-16.93,3.06-36.4,4.42-49.33-6.93-3.49-3.06-6.39-7.28-6.28-11.92.26-10.25,14.32-16.13,14.41-26.38Z"></path>
</svg>
