
<svg xmlns="http://www.w3.org/2000/svg" viewBox="0 0 2084 2979" id="illustration" preserveAspectRatio="xMidYMid meet">
    <title>Chenopodiaceæ</title>
    <path data-name="1" data-official="Chenopodium bonus Henricus" data-plain="Goosefoot, or Mercury" data-loc="England" d="M1151.11,1817.07c2,6.93,3.94,14.17,2.59,21.24a46.72,46.72,0,0,1-3,9l-7.2,17.32-3.79.1c-17.32-12.79-27.24-33.21-34.35-53.53-4.31-12.3-8.07-25.31-16.78-35a21.56,21.56,0,0,0-9-6.48c-3.56-1.17-7.8-.77-10.61,1.72-5.19,4.61-3.15,13-.33,19.39,6.21,14,14.3,27.47,16.77,42.57.42,2.61.66,5.37-.39,7.8-1.74,4-6.45,5.86-10.81,6.34-11.84,1.31-23.34-4.36-33.19-11.06a147.48,147.48,0,0,1-28.87-25.83c-8.42,9.59-23.14,9.07-35.49,12.3-16,4.18-29.06,15.37-43.31,23.78s-32.38,14-47,6.38l-4.51-1.56c-2.54-.83-4.17-3.21-5.92-5.22s-4.3-3.9-6.88-3.21a101.59,101.59,0,0,1,5.44-22c1.65-4.47,3.65-9.19,2.59-13.84l-.62-6.65c6.71-13.17,13.45-26.45,17.36-40.7,3.41-12.46,4.76-25.89,11.92-36.64s18.77-17,28-25.82l9.48-7.74a81.79,81.79,0,0,1,16.19-8c45.52-17.8,95.34-22,144.18-20.12,6.54.26,14,1.07,17.86,6.34l1.5,5.83c5.51,45.45,11.12,91.3,26,134.6ZM966.75,860.52c6,5.46,12.74,10,19.18,14.93,6,4.59,14.81,7.51,21.26,11.46s13.72,6.92,21.28,7.13l12.56-1.17a32.16,32.16,0,0,0,17.45-12.73c2.68-4,4.43-8.47,7-12.49,2.17-3.35,5-6.45,6-10.31a4,4,0,0,0,0-2.64c-.76-1.74-3.13-1.94-5-1.8-13.42,1-27.3,5.31-40,.77a51.46,51.46,0,0,1-8.9-4.47q-6-3.59-11.59-7.66c-3.59-2.6-7.08-5.35-10.88-7.62a52,52,0,0,0-34-6.77,9,9,0,0,0-3.53,1.07c-3.33,2.07-3.07,7-1.78,10.69C958.48,846.56,960.76,855.06,966.75,860.52Zm454.94,1327-18.27-22.69c-4.52-5.61-9.36-11.47-16.1-14l-7.62,10.45a31.28,31.28,0,0,1-4.23,6.9,78.1,78.1,0,0,0-7.78,13.58l-16.11-45.66-9.42-5.31c-9.76-16.36-10.94-36.26-11.88-55.29l-.75-15.19c-.4-8.06-.79-16.19.61-24.13a109.46,109.46,0,0,1,3.65-13.62q8.09-25.66,16.16-51.32l3.44-6c3.47-7.26,4-15.52,4.43-23.55q.9-16.2,1.81-32.39l-2.74-19.73c-.56-4.53-2.84-8.66-5.27-12.53-4.61-7.37-10.08-14.47-17.51-19a35.49,35.49,0,0,0-32.39-2l1.11,6.61a375.24,375.24,0,0,1-12.08,124.45,69.91,69.91,0,0,0-15.21-12.59c-2.71-1.66-6.31-3.1-8.88-1.24-1.19.86-1.9,2.29-3.13,3.08-1.81,1.17-4.31.63-6-.68a16.54,16.54,0,0,1-3.87-5.11,219.63,219.63,0,0,0-29.42-39.82l-8.1-6.85a82,82,0,0,1-18.64-1.26,23.54,23.54,0,0,0-6.62-.66,25.51,25.51,0,0,0-6.85,2.21,51.15,51.15,0,0,1-11.77,3.19l-3,4.12c19.09,33.51,45,63.61,57.44,100.11,4.12,12.07,6.68,24.61,10.59,36.75s9.34,24.1,18.22,33.24l2.92,4.74c4.17,5,11.41,5.77,17.13,8.85,7.11,3.82,11.62,11,15.8,17.94a8.86,8.86,0,0,1,1.33,3,13.3,13.3,0,0,1-.3,3.81c-.5,4,.93,8,2.33,11.76l5.19,14-4.91,4.66-1.41,7.26c-1.2,6.92-.11,14.08,2.08,20.75s5.45,12.93,8.69,19.15l4.61,8c2.24,6,5.41,12.79,11.65,14.12,1.44.31,3,.3,4.28,1,2,1.1,2.79,3.58,3.37,5.81l4.16,16c1.87,7.21,3.75,14.41,5.21,21.71,2.49,12.42,3.73,25.64-.78,37.48l-2.32,10.55a759.8,759.8,0,0,1-7.92,105.15c-2.48,17.09-5.59,34.21-11.7,50.37l-2.77,6.39c0,6.58,2.63,13,2.47,19.55-.09,4.18-1.31,8.24-2.52,12.24-2.43,8-4.9,16.12-9.37,23.19l-8.44,5.42A151.92,151.92,0,0,0,1281,2600c-1.38,10.77-1.63,21.82-5.13,32.11l-.44,8.78a156.21,156.21,0,0,0-.47,30.5c.55,6.67,1.57,13.45,4.76,19.33,6.11,11.3,20.46,17.4,32.84,14,6.83-1.89,12.71-6.24,18.09-10.86,6-5.18,11.73-10.89,15.78-17.73,9.91-16.71,8.73-37.49,7.25-56.86l-2.57-19.07c-.89-5,.41-10.2,1.71-15.16q1.53-5.85,3-11.71a105.18,105.18,0,0,1,5-15.57,9.32,9.32,0,0,1,1.82-3,20,20,0,0,1,3.1-2.09,10.27,10.27,0,0,0,2.86-2.83l7.17-6.25a265.44,265.44,0,0,1,15.38-57.9c6.18-15.83,13.94-31.2,17.51-47.81,4.64-21.62,2-44.16,5-66,1.61-11.67,4.84-23.08,6.22-34.78,2.48-20.91-1-42-2.17-63s.15-43.2,11.08-61.19Zm74-228.27a53,53,0,0,0-7.77-.45,57.62,57.62,0,0,1-14-2.18l-.54,2.13c-3.53,18.17-11.88,35.13-15.4,53.3l.89,1.62,25.64-14.53a6.45,6.45,0,0,0,2.07-1.58c1.68-2.19.12-5.62,1.48-8,.69-1.22,2-1.94,2.91-3a10.72,10.72,0,0,0,1.51-2.58q3.38-7.18,6.74-14.39l3.2-6.77A11.11,11.11,0,0,0,1495.65,1959.26ZM1924,1428.49c-3.94,20.76,3.84,42,2.86,63.1-1.28,27.7-17.34,56.44-5.76,81.64l-1.77,13.38c-.87,12.53-1.63,25.7,3.74,37.06,3.16,6.68,8.26,12.3,11.34,19,3.81,8.29,4.29,17.68,4.6,26.8q.3,9.33.45,18.67c.07,4.11,0,8.52-2.32,11.89a13.77,13.77,0,0,1-5.64,4.44,22.1,22.1,0,0,1-19.18-.43c-4-2.08-7.25-5.34-11-7.84a72,72,0,0,0-11.88-5.86c-11.69-4.95-23.86-11-30.36-21.89-3.61-6.06-5.35-13.48-10.68-18.11-5.09-4.44-12.28-5.29-19-6.29a197.42,197.42,0,0,1-28.12-6.33l-3.88-2.35c-8.23-3.83-13.31-12.31-16.47-20.83s-5-17.59-9.17-25.64c-5.1-9.74-13.42-17.37-22.09-24.13a100.25,100.25,0,0,0-16.87-11.06c-10.43-5.18-22.09-7.5-33.72-8.15-9.48-.54-19.11,0-28.24,2.65-16.83,4.86-31.08,16.61-41.54,30.66s-17.47,30.36-23.44,46.83l-4.15,7.24c-5.74,2.15-12.39,2.6-17.88-.12-2-1-3.75-2.34-5.67-3.43a23.86,23.86,0,0,0-15.19-2.8l-5.77-9c1.86-12.23,8.38-23.21,12-35.06a75.79,75.79,0,0,0-12.47-67.13l-.32-6.19c-1-4.09-2-8.33-4.65-11.62a25.3,25.3,0,0,0-7.45-5.79c-15.57-8.91-34.93-13.44-51.51-6.62l-7.16,9.2a198.79,198.79,0,0,0-13.15,17.43l-7.27,1c-6.43,0-13,.35-18.93,3-9.56,4.21-15.59,13.61-21.06,22.5l-6,5.22-33.09,12.1a79,79,0,0,1-14.59,4.3,52.46,52.46,0,0,0-7.71,1.35c-5,1.61-8.89,5.62-13.13,8.8a46.93,46.93,0,0,1-43.25,6.56l-4,8.15c-3.61,3.39-6.37,7.59-9.84,11.13s-8,6.49-13,6.31l-8.22,2.41a14.45,14.45,0,0,1-10.05,2.59c-3.16-.38-6.09-1.8-9.13-2.77-4.57-1.46-9.63-2-13.39-5l-7.53-8.69c-10.81-25.3-31.86-44.45-50.52-64.66-10.27-11.13-20.69-23.29-35.07-28a24.21,24.21,0,0,1-3,9.77c-1.25,2.24-2.87,4.29-3.84,6.66-1.74,4.23-1.29,9-.82,13.54l-1.18,6.49c-3.52,8.5-1.65,18.26-3.7,27.23-1.45,6.33-4.8,12-8.1,17.63l2,7.68q-.94,7.31-1.9,14.62a35.84,35.84,0,0,1-1.67,8l-2.87,9.28c-1.26,2.65-4.07,4.27-6.92,4.93s-5.83.54-8.76.64c-18.48.62-35.36,10.32-50.5,21l-1,1.1a381.43,381.43,0,0,0-108,19.44l-5.34-6.82c-4.77-12.26-1.29-26.28,4.67-38s14.28-22.14,20-34c5.21-10.82,8.13-22.58,11-34.24,7-28.24,14-56.81,14.1-85.91-43.87,3.52-84.15,36.85-127.45,28.94-2-.37-4.11-.88-5.54-2.34-4.05-4.13.49-10.83,4.95-14.51a233.24,233.24,0,0,1,89.29-45.73c8.23-2.15,16.85-4,23.65-9.09,5.93-4.48,9.88-11,13.68-17.42,11.46-19.3,23-38.68,31.56-59.43,14.77-35.65,21.74-76.6,49.33-103.59,6.84-6.7,16.22-12.58,25.48-10.13,8.94,2.36,14.11,11.44,18.29,19.69,16.29,32.11,33,65.8,32.7,101.81-.07,9.4-.5,20.63,7.18,26,4,2.82,9.16,3.16,14,3.36q19,.78,38,.73c7.43,0,15.68-.47,20.87-5.78,2.52-2.58,4-6,6.3-8.78,6-7.16,16.72-8.46,25.89-6.6s17.63,6.25,26.67,8.62c2.31.61,4.86,1.06,7,0,3.48-1.76,4-6.44,4-10.34l.51-65.51c.15-18.18.2-36.89-6.42-53.83s-21.59-31.92-39.75-32.94c-6.38-.36-13.68,1.63-16.52,7.36-1.62,3.28-1.45,7.12-1.48,10.78a85.49,85.49,0,0,1-12.59,43.75c-6.31,10.26-17.23,20-29,17.44-8-1.73-13.78-8.66-18.37-15.48a171.45,171.45,0,0,1-28.44-107.4l-1.53-15.83c4.48-43.51,7.4-89.11-9.53-129.44l-7.28-22.14a382.6,382.6,0,0,1,4.18-68.3,36,36,0,0,1,1.5-6.75,18.71,18.71,0,0,1,3-5.41l-.72-6.7,1-6.14a4.59,4.59,0,0,0,0-2.24,10.59,10.59,0,0,0-1-1.66,8.19,8.19,0,0,1-.7-3.71,74.46,74.46,0,0,1,.57-14.63c.94-5.61,3.09-11,3.16-16.73.06-4.34-1.11-8.61-1.22-13s1.13-9.12,4.74-11.53l11.21-1.57c6.22,2.77,13,5.61,19.65,4,4.11-1,7.65-3.67,11.75-4.73s8.65-.41,12.82.76a55.71,55.71,0,0,1,24.81,14.78c6.25,6.45,11.91,15,20.82,16.11,3.07.39,6.17-.2,9.26-.32a31.07,31.07,0,0,1,13.49,2.52,7.65,7.65,0,0,0,3.93,1c2.86-.38,4-3.88,4.35-6.73,3.94-29.24-1.07-58.89-7.1-87.77-1.19-5.71-2.59-11.73-6.67-15.9-7-7.13-18.45-6-28.43-6.15-27.35-.45-54-15.63-68.37-38.92-4.11-6.68-7.29-14-12.25-20.05-5.15-6.29-12-11-19.32-14.57-3.82-1.88-7.86-3.52-11-6.37s-5.35-7.29-4.16-11.39a13.62,13.62,0,0,1,3.1-5c7.6-8.58,18.85-13.13,30.11-15.22s22.81-2,34.24-2.86c3.22-.25,6.61-.64,9.21-2.56l2.73-8.24a25,25,0,0,1,5.62-18.4c1.21-1.44,2.63-2.81,3.17-4.62,1-3.44-1.62-7-4.82-8.66s-6.88-1.93-10.33-2.94c-8.79-2.57-15.73-9.76-19.64-18s-5.11-17.59-5.32-26.75c-.14-5.87-.16-12.44-4.27-16.63-1.8-1.83-4.17-3-6.34-4.33-9.36-5.91-14.93-16.7-16.33-27.68s1-22.15,4.74-32.55c1.09-3,2.33-6.08,2.11-9.27-.43-6.51-6.44-10.95-11.16-15.47a52,52,0,0,1-14.26-24.12c-1.56-5.85-2.13-12.07-5-17.39-5-9.06-15.37-13.38-24.87-17.44s-19.73-9.45-23.14-19.2c-3.67-10.5,1.42-24-6.21-32.14-2.88-3.06-7-4.54-10.63-6.66a33.18,33.18,0,0,1-15.67-22.32L1029,302c-1.82-8.69,7-18,2.74-25.85-2.21-4.1-7.1-5.75-11.17-8a31.83,31.83,0,0,1-16-27.14c0-4.67,1-9.41,0-14-2.59-11.49-16.82-17.07-20.39-28.3a34.41,34.41,0,0,1-1.1-10L982,87.71c-.12-9.86-.05-20.38,5.34-28.63,8.88-13.6,32-14.06,41.4-.83,3.72,5.23,5.29,11.67,6.32,18a131.89,131.89,0,0,1,.62,37.9c-.48,3.72-1.1,7.62.21,11.13,1.39,3.7,4.69,6.31,7,9.53a20.41,20.41,0,0,1,2.27,19.19c-1.35,3.34-3.66,6.57-3.29,10.16.88,8.51,14.84,9.76,17,18,1.63,6.11-4.15,13.39-.36,18.45,1.66,2.21,4.55,3,7.07,4.11,8.56,3.84,13.81,12.95,15.49,22.18s.32,18.73-1,28c8.12,1.2,17.72,3.55,20.45,11.3,1,2.91.84,6.14,1.77,9.09,2.35,7.39,11.25,11.72,12.25,19.4.65,4.91-2.14,10.41.5,14.6,4.61,7.33,16.4-.14,24.55,2.77,2.54.91,4.58,2.82,6.53,4.69l13.34,12.71c6.17,5.87,12.87,13.29,11.32,21.66-.78,4.23-3.5,9.07-.71,12.33,1.35,1.57,3.53,2.06,5.52,2.6,21.46,5.84,35.9,30.3,30.63,51.9-1.94,8-5.43,18.11,1.16,23l6.4,5c14.23,10.32,24.32,27.45,22.85,45-.46,5.5-2,11-1.17,16.45.58,3.76,2.27,7.24,3.8,10.72a152.24,152.24,0,0,1,12.91,64.19,23.83,23.83,0,0,0,.6,7.45c1.29,4.11,4.85,7,8.23,9.69,6.82,5.35,13.74,10.72,19.2,17.46s9.41,15.06,9.27,23.73c-.09,5.52-1.81,10.86-2.7,16.3s-.82,11.42,2.28,16l7.36,7.78c6.71,4,14.18,9.1,14.86,16.88.26,2.87-.46,6,.87,8.52,2,3.73,7.09,4.29,10.27,7.06,4,3.51,4,10.1,1.38,14.74s-7.32,7.75-11.92,10.47c-1.48.88-3.06,1.82-3.8,3.37a8.38,8.38,0,0,0-.41,4.37,135,135,0,0,0,5.53,27.72,4,4,0,0,0,1,1.94,3.57,3.57,0,0,0,2.43.6c8.16-.25,14.69-6.67,19.81-13s10.27-13.46,18-16.09l7.28.47a25.11,25.11,0,0,1,11.12,1c3.3,1.09,6.59,2.9,10,2.42a15.82,15.82,0,0,0,5.83-2.52c6.68-4,13.43-8.13,19-13.6a82.72,82.72,0,0,1-3.73,38.67,34,34,0,0,0-2.19,7.91c-.35,3.8.87,7.56,2.06,11.18l-.29,9.22-8.66,7.54a33.16,33.16,0,0,0-5.49,5.62c-3.12,4.43-3.89,10.19-7,14.62-2.37,3.37-5.91,5.71-9.37,8l-14.34,9.39-5.89,1.85c-1.32,2.43-2.69,5.1-2.27,7.84.31,2,1.52,3.73,2.52,5.49a12.62,12.62,0,0,1,2,7.24c-.24,2.53-2,5-4.46,5.53,1.94.52,4,.35,5.93,1a7.76,7.76,0,0,1,4.88,7.21,9.13,9.13,0,0,1-4.53,7.62,15.86,15.86,0,0,1-7,1.84,14.51,14.51,0,0,1-6.32-.69,6.47,6.47,0,0,1-4.1-4.57,16.87,16.87,0,0,1-10.19,3l-6.33,4.08c-8.89,15.09-9.4,33.59-8.28,51.06a330.7,330.7,0,0,0,17.12,85.86l3,8.39c5.16,7.76,10.91,16,19.7,19.12,6.68,2.37,14.37,1.43,20.65,4.73,3.8,2,6.71,5.36,10.37,7.62,5.09,3.14,11.65,4.17,15.51,8.74l2.19.83c2.25,2.05,5.83,2,8.55.63s4.77-3.72,6.7-6.07q5.17-6.29,10-12.88a27,27,0,0,0,3.64-6.11c1.24-3.26,1.26-6.84,1.25-10.33,0-7.12-.09-14.57-3.49-20.82-1.67-3.07-4.07-5.7-5.77-8.75-2.88-5.22-3.56-11.39-3.26-17.35.23-4.56,1.13-9.39,4.24-12.74a18.79,18.79,0,0,0,6,9.37,37.11,37.11,0,0,0,6.21,4c8.26,4.53,17.09,9.2,26.5,8.62l3.64,4.6,3.74,17c.71,3.27,1.54,6.73,3.94,9,3,2.89,7.57,3.22,11.72,3,17.39-1,34.62-8.79,51.69-5.31,8,1.63,15.26,5.64,23.13,7.7a48.75,48.75,0,0,0,11.59,1.58,44.62,44.62,0,0,1,7.93.41,9.57,9.57,0,0,1,6.29,3.84l1.6.06c2.71-.7,4.89,2.1,6.61,4.31,5.64,7.2,14.42,11,22.83,14.62,5.46,2.32,11.18,4.69,17.1,4.28l3.41,0c2-2.47,3.87-5,5.91-7.42a76,76,0,0,1,36.09-23.52l3.43-1.56c18.19-12.71,30.85-32.11,39.14-52.69a12.62,12.62,0,0,1,1.76-3.35,12.08,12.08,0,0,1,2.29-2L1741.84,973c1.48-1.07,3.06-2.28,3.54-4s-.14-3.34-.61-5c-3.47-12-.39-24.83,3.34-36.74l4.93-13.13,41-101.38c3.11-7.67,7-16.14,14.74-19.05,7.46-2.81,16.1.85,21.45,6.74s8.13,13.63,10.76,21.14q45.18,129,85,259.77c13.48,44.22,26.63,89.52,25,135.72-.87,25.23-6.14,50.31-4.78,75.52,1.4,25.74,9.64,51.91,2.89,76.79C1943.58,1390.09,1928,1407.37,1924,1428.49Zm-606.93,61-.62-2.53q-8.42-7.11-17-14c-4.2-3.36-8.5-6.73-13.48-8.78-5.85-2.41-12.29-2.86-18.6-3.29-7.77-.52-15.61-1-23.3.22a13.08,13.08,0,0,0-6.51,2.48c-2.43,2.07-3.3,5.48-3.3,8.67,0,9,5.72,17,11.66,23.76a189.24,189.24,0,0,0,36.37,32.13l7.92,1.83a34.88,34.88,0,0,0,17.45-18.22c2-5,2.92-10.39,5.15-15.28A36.14,36.14,0,0,1,1317.08,1489.5Z"></path>
    <path data-name="1a" data-official="" data-plain="Ovary and Styles" data-loc="" d="M146.5,2680.41a36,36,0,0,1,8.62-20.55c2.81-3.23,6.47-6.85,5.46-11-.64-2.66-3.12-4.5-5.7-5.42s-5.34-1.16-8-1.91c-11.61-3.34-17.85-15.6-27.08-23.39-2.93-2.47-6.38-4.74-7.66-8.35-1.84-5.21,1.89-11,6.79-13.59,8.26-4.31,18.91-1.44,25.79,4.84,5.62,5.12,9.86,12.57,17.23,14.43,2.64.67,5.44.51,8,1.27,4.07,1.17,7.2,4.35,10.12,7.42,9.77-9.14,27.26-7.34,35.09-18.18,1.37-1.89,2.34-4.07,3.86-5.85a12,12,0,0,1,20.31,3.33c2.24,5.57.05,11.91-2.76,17.22-2.17,4.09-4.78,8-8.42,10.91-5.22,4.09-12.09,5.58-17.4,9.56a7.56,7.56,0,0,0-2.84,3.43c-.7,2.1.22,4.36,1.19,6.35,4.1,8.32,9.68,16.31,10.62,25.54a27.06,27.06,0,0,1-5.52,19.13c-3.93,5-9.93,9.23-10.55,15.58s4.79,12.32,4.53,18.84c-.22,5.56-4.69,10.23-9.83,12.39s-10.85,2.3-16.42,2.41l-22.56.44c-6.4.13-14.06-.43-17.19-6-2.59-4.61-.61-10.46,2.23-14.92s6.58-8.55,7.79-13.7c1.6-6.79-1.57-13.71-4.66-20Z"></path>
    <path data-name="1b" data-official="" data-plain="Seed" data-loc="" d="M244.29,2674.87c-1.15-5.69,2.12-11.35,6-15.67s8.56-8.08,11.25-13.22,3.42-11.88,8-15.65a12,12,0,0,1,12.38-1.42,14.61,14.61,0,0,1,7.85,10c.65,2.84.55,5.88,1.77,8.53a20.23,20.23,0,0,0,3.36,4.58c8.59,9.85,15.64,22.86,12.54,35.56-1.28,5.21-4.19,9.95-5.15,15.23-1.79,9.86,3.3,20.85-1.49,29.65-3.06,5.62-9.39,8.63-15.57,10.31-9.37,2.54-19.2,2.88-28.91,2.64-6.8-.17-14.69-1.22-18.22-7.05-2.39-3.94-2-9-.52-13.37s3.84-8.39,5.28-12.77c2.73-8.32,1.9-17.33,1-26Z"></path>
    <path data-name="1c" data-official="" data-plain="Flower of C. album" data-loc="" d="M112.76,2807.21a259.6,259.6,0,0,0,7.3,63.18c1.09,4.51,2.38,9.14,5.31,12.74s7.58,6.08,9.89,10.26c3.2,5.8,1.05,13-1,19.27s-3.64,13.77.29,19.1c2.73,3.71,7.44,5.3,11.94,6.28a79.12,79.12,0,0,0,38.49-1.2c6.32-1.81,13.08-5.1,15.15-11.34s-1.36-13.2,0-19.66,7.34-11,12.44-15.35c12-10.28,21.46-23.92,24.8-39.34,2.94-13.56,1-27.64,1.64-41.51.36-8.26,1.61-16.5,1.22-24.76s-2.64-16.8-8.29-22.83c-7.72-8.26-20.13-10.2-31.41-9.43s-22.42,3.74-33.71,3.32c-6.28-.24-12.48-1.52-18.74-2.06-9.8-.84-19.91.23-28.85,4.32s-16.62,11.41-20,20.66-1.91,20.36,4.62,27.72Z"></path>
    <path data-name="1d" data-official="" data-plain="Section" data-loc="" d="M276,2877.6c1-6.86-3.39-13.19-7.26-18.95s-7.52-12.89-4.94-19.33c2-5.08,7.42-8.13,9.78-13.07,2.46-5.15,1.19-11.38,3.05-16.77a15.48,15.48,0,0,1,15-10.11c2.44.13,4.82.86,7.26,1,14.43.91,25.26-17.57,39.54-15.26,10.13,1.63,18,13.57,27.93,11.07,7.27-1.82,10.69-10.53,17.48-13.69,5.87-2.72,12.78-.7,18.74,1.83s12.1,5.62,18.53,4.9c4.35-.49,8.55-2.72,12.89-2.12,4.91.69,8.6,4.84,11.05,9.14s4.21,9.1,7.53,12.78c1.53,1.7,3.38,3.14,4.6,5.07,1.52,2.43,1.89,5.39,2,8.24.92,18.34-6.07,36.14-14.38,52.51-6,11.74-13.22,23.65-24.73,30.07-4.33,2.42-9.1,4-13.44,6.36s-8.39,5.94-9.77,10.7c-.89,3.07-.59,6.34-.65,9.54a42.4,42.4,0,0,1-3.75,16.69c-1.62,3.6-3.85,7.06-7.11,9.3s-7.63,3.14-11.73,3.77a227.82,227.82,0,0,1-41.5,2.51c-3.59-.11-7.52-.45-10.09-3-4.1-4-2.39-10.85-.39-16.24L326.3,2932c1.41-3.8,2.81-8.1,1.08-11.77-2.53-5.35-9.7-5.91-15.56-6.78A50.08,50.08,0,0,1,276,2888.62Z"></path>
    <path data-name="1e" data-official="" data-plain="Section of Seed" data-loc="" d="M510.65,2892.41c-6.57-5-10.77-12.65-12.92-20.63s-2.39-16.33-2.24-24.59a58.93,58.93,0,0,1,1.37-13.33,38.26,38.26,0,0,1,5.9-12.56c7.79-11.09,20.62-18.28,34.07-20s27.35,1.8,38.85,9c5.46,3.4,10.57,7.8,13.26,13.63,2.5,5.43,2.71,11.6,2.86,17.58.42,16.44.42,34.17-9.07,47.61-2.78,3.94-6.36,7.47-7.87,12.06-1.84,5.59-.26,11.64.52,17.47s.39,12.6-4.13,16.37a17.61,17.61,0,0,1-6.24,3c-12.22,3.72-25.24,3.56-38,3-4.39-.21-9.36-.76-12-4.26-2.46-3.24-2-7.88-.51-11.68s3.76-7.3,4.68-11.27a17.23,17.23,0,0,0-2-12.56Z"></path>
    <path data-name="2" data-official="Beta maritima" data-plain="Sea Beet" data-loc="Shores, England" d="M696.53,2022.6c-9.86-.42-20.27,2.5-27,9.7-4.75,5.06-7.34,11.73-9.66,18.27A463.6,463.6,0,0,0,634,2177.12c-.67,10.94-.94,22,1.18,32.78,2,10.24,6.14,19.94,8.93,30,3.7,13.33,5,27.17,6.68,40.9a921.6,921.6,0,0,0,28.76,143.32l1,10.34c.94,9.34,5.65,17.83,10.56,25.83,1.07,1.73,2.22,3.53,4,4.52l14.23,1.52a8.94,8.94,0,0,1,6,5.12,23.13,23.13,0,0,1,1.79,7.94c.65,7.21.6,14.61-1.66,21.49-1.63,5-4.35,9.48-7,13.95-2.26,3.74-4.64,7.61-8.31,10a20.52,20.52,0,0,1-8.74,2.86,35.44,35.44,0,0,1-30.86-12.23l-11.09-5.94C613,2463.8,600.19,2403.43,597.66,2345c-.42-9.56-.61-19.26-3.24-28.47s-8.1-18-16.59-22.49c-7.5-3.92-16.38-4-24.43-6.62-15.49-5.05-26.37-18.91-34.43-33.06s-14.43-29.56-25.45-41.56l-3,4.48c3.36,9-1.58,19.14-8,26.3s-14.6,12.92-19.7,21.11c-3,4.81-4.81,10.27-7.81,15.06A36.12,36.12,0,0,1,420.65,2296c-1.77-.23-3.64-.57-5.28.14-4.19,1.84-3,7.94-3.53,12.5-1.34,11.44-16.3,15.69-21.94,25.74-2.21,4-2.86,8.63-5.07,12.59-3.8,6.8-11.45,10.33-18.63,13.37q-25,10.64-50.27,20.6c-12.78,5-25.62,10-38.46,14.88l-17.14,6.57c-3.59,1.37-7.32,2.77-11.15,2.53-5.4-.33-10-3.81-14.28-7.15-20.27-15.87-41-32.3-53.91-54.6-7.32-12.66-11.79-26.73-16.18-40.68-8.42-26.76-16.85-54-17-82.08s9.07-57.51,30.64-75.45c11.76-9.77,26.26-15.5,40.49-21.08,12.68-5,25.37-9.93,38.3-14.17,15.72-5.15,31.77-9.22,47.8-13.29,2.9-.73,6.38-2.1,6.69-5.07a6.9,6.9,0,0,0-1.34-4.16,48.79,48.79,0,0,0-23.75-20c-13.66-5.37-29.4-4.41-42.44-11.14-14.72-7.59-23.32-23.91-25.83-40.28s.17-33,2.84-49.39l3-10.51c0-5.29,0-10.65,1.32-15.75s4.33-10,9-12.56a22,22,0,0,1,11.27-2.22c11.34.3,22,5.06,33.12,7.44s24.15,1.74,31.8-6.63a13.23,13.23,0,0,0,3.73-7.89c.19-3.26-1.3-6.4-3.24-9a27.15,27.15,0,0,0-15-10c-5.46-1.39-11.44-1.09-16.37-3.8a20.61,20.61,0,0,1-7.37-7.44c-6.95-11.18-6.59-26-.62-37.78s16.93-20.46,29.12-25.45,25.55-6.51,38.72-6.39a164.91,164.91,0,0,1,53.78,9.57l8.12,1.48a37.48,37.48,0,0,1,28.59-24.64,33.15,33.15,0,0,0,6.88-1.45c2.18-.88,4.19-2.63,4.59-4.94.56-3.19-2-6-3.82-8.65-4.64-6.69-5.59-15.27-5.42-23.41s1.31-16.33.26-24.41c-1.29-10-5.89-19.63-5-29.66l.19-7,6.39-12.4c2.68-5.18,5.38-10.42,6.84-16.07.89-3.45,1.31-7,2.1-10.47a86,86,0,0,1,4.07-12.5c1.65-4.22,3.47-8.51,6.61-11.78s7.9-5.36,12.27-4.15l8.25,3.69a23.74,23.74,0,0,1-3.87,35.69c-2.07,1.43-4.62,2.93-4.85,5.43-.14,1.54.69,3,1.45,4.33a75,75,0,0,1,6.89,16.52c1.29,4.54,2.47,9.69,6.46,12.22,3.78,2.39,8.64,1.53,13.11,1.55a30.46,30.46,0,0,1,30.25,32.27c-.06,1.06-.07,2.34.83,2.89a2.76,2.76,0,0,0,1.66.23l12.64-.82A5.94,5.94,0,0,0,542,1751a5.19,5.19,0,0,0,1.64-2.6c1.57-4.5,1.53-9.39,1.47-14.16l-.23-18.76c-.06-5.09-.11-10.27,1.28-15.17,2.93-10.26,11.73-17.72,20.74-23.42l4.11-4.76,12.45-9.33c5.54-4.15,11.33-8.62,13.93-15a9.51,9.51,0,0,1,1.93-3.57c2-1.82,5.1-1.07,7.62-.15s5.56,1.81,7.67.17c2.51-1.94,1.78-5.89.52-8.8s-2.79-6.33-1.21-9.08a8.31,8.31,0,0,1,2.59-2.52,39.7,39.7,0,0,1,16.57-6.68c1.9-.3,3.83-.46,5.7-.94a17,17,0,0,0,10.46-8.09c1.59-2.84,2.33-6.1,3.91-8.95a34.45,34.45,0,0,1,6.5-7.72l11.39-11.09,5.3-4.19a40.15,40.15,0,0,1,19.19-5.5c4.51-.13,9,.51,13.52.37,9.62-.28,19.13-4,28.65-2.64,5,.73,9.61,2.84,14,5.19a125.28,125.28,0,0,1,15.56,9.76l2.12,5.42a18.4,18.4,0,0,0,11.88,1.12c2-.48,4-1.29,5.92-.66,1.66.54,2.8,2,4.15,3.15,3,2.43,7.07,3,10.91,2.87s7.66-.88,11.5-.69a4.69,4.69,0,0,1,2.26.54,5.36,5.36,0,0,1,1.79,2.56c3,6.74,7.39,13.46,14.26,16.15,6,2.37,12.78,1.19,19.25,1.41l1.42,6.74a81.32,81.32,0,0,0,6,20.42c1.87,4.2,4.1,8.26,5.47,12.64,2.54,8.14,2,16.89,1.35,25.39l.93,7.3c1.19,3.62-.88,7.4-1.93,11.06-1.56,5.43-.88,11.22-1.61,16.82-.79,6.06-3.22,11.77-5.68,17.37a9.29,9.29,0,0,0-1,3.39c-.05,1.84,1,3.5,1.73,5.18,2.6,5.72,2.34,12.27,2,18.55l8.15,9.19c.7,3.38,3.2,6.07,4.68,9.19,2,4.21,2.06,9,2.09,13.72l1.31,8.38.62,6.65c1.06,4.65-.94,9.37-2.59,13.84a101.59,101.59,0,0,0-5.44,22c2.58-.69,5.12,1.2,6.88,3.21l-1.65,8.69a28,28,0,0,1-7.37,10.32c-2.8,2.45-6.08,4.34-8.6,7.07-3.53,3.83-5.23,8.93-7.45,13.64s-5.42,9.45-10.35,11.11c-1.68.56-3.47.73-5.11,1.39s-3.2,2-3.39,3.74l-3.51,5.32c-.62,2.38.15,4.93-.35,7.34a14.06,14.06,0,0,1-2.41,4.87c-4.41,6.62-8.87,13.29-14.63,18.78a6,6,0,0,1-2.26,1.56c-2.2.69-4.52-1.08-6.81-.75-3,.43-4.31,4-5.23,7-1.8,5.71-5,11.46-10.45,14-3.78,1.73-8.1,1.65-12.25,1.52l-1,1.24a26.36,26.36,0,0,1-36.89,20.29,4.35,4.35,0,0,0-1.63-.5,3.56,3.56,0,0,0-2.24,1,15.71,15.71,0,0,0-5.31,8.24,29.66,29.66,0,0,1-1.23,4.69,7.82,7.82,0,0,1-7.62,4.5,2.73,2.73,0,0,0-1.45.08,2.56,2.56,0,0,0-.9.92,16,16,0,0,1-7.33,5.72ZM237.22,1095.73c-3.26-4.15-9-5.21-14.22-6a22.14,22.14,0,0,0-5.85-.33c-2.52.31-4.85,1.49-7.33,2-6.38,1.42-13.19-1.42-19.52.23-2.22.58-4.28,1.69-6.47,2.39s-4.71.92-6.71-.22a7.66,7.66,0,0,1-3.35-4.89,12.65,12.65,0,0,1,3.32-11.92,41.76,41.76,0,0,1,5.83-4.18,11.34,11.34,0,0,0,4.63-5.33l4.54-4.76c3.92-2.38,8.4-3.63,12.79-5s8.82-2.9,12.43-5.74,6.27-7.24,5.91-11.81l-3.48-2.42c-3.14-3.81-9.61-.87-14.09-2.95-4-1.84-5.08-6.91-5.27-11.28-.32-7.46.53-15.19-2.1-22.18-1.93-5.1-5.59-9.38-7.78-14.38-3.32-7.57-3.06-16.29-6.05-24-2.33-6-6.49-11-10.71-15.86s-8.73-9.65-14.54-12.36c-4.7-2.19-10-2.86-15.13-3.17-10.69-.63-22.12.4-30.7,6.79-6.88,5.12-11.13,13.2-13.07,21.56s-1.77,17-1.22,25.62c.38,5.77.94,11.61,3,17,2.21,5.87,6.07,11,8.06,17,3.13,9.4,1.24,19.62,1.25,29.52,0,4.83.9,10.39,5,12.89,5.12,3.1,12.88,0,17,4.25,3.84,4,1.27,10.66,3,15.9l1.93,6.21q-.19,13,.29,26c.2,5.42.8,11.49,5,15,1.7,1.42,3.91,2.33,5.09,4.21s1,4.32.89,6.56c-.25,4.43-.11,9,1.38,13.16s4.51,8,8.66,9.57c1.89.71,4.05,1,5.46,2.47a7.45,7.45,0,0,1,1.6,3c3.28,10.33-1.13,21.65.73,32.33.7,4,2.28,7.87,3.18,11.86a35.58,35.58,0,0,1,.62,12,8.33,8.33,0,0,1-.95,3.36c-1.22,2-3.72,2.81-6,3.53a91.58,91.58,0,0,0-23.42,11.4l-2.32,4.52c-1,5.71.67,11.69,3.85,16.54A40.47,40.47,0,0,0,155,1275.67c19.38,12.12,45.34,12.86,65.36,1.85,4.08-2.25,8.09-5,12.71-5.56,8.86-1.1,16.48,6,22.09,12.91q4.63,5.72,8.76,11.83c1.86,2.76,3.71,5.91,3.19,9.2-.5,3.12-3,5.47-4.62,8.18-4.12,6.88-2.41,15.57-1.66,23.56a8.57,8.57,0,0,1-.56,4.9,6.67,6.67,0,0,1-3.4,2.75c-5.11,2.13-11.23.85-16.2,3.3-7.07,3.5-8.78,13-7.4,20.74s4.91,15.17,4.93,23.06a2.65,2.65,0,0,1-2.25,3.11,28,28,0,0,1-17.72-.09c-2.79-1-5.41-2.36-8.22-3.26a25,25,0,0,0-25.55,6.91l-.24,7.84c-3.6,18.76,3.14,38.76,15.94,52.94s31.11,22.77,50,25.65,38.31.36,56.59-5.19c9.81-3,19.51-6.85,29.74-7.56,3.36-.23,7,0,9.69,2,2,1.54,3.22,3.92,4.28,6.24,16.56,36.25,18.16,78.61,38.75,112.73l6.22,4.18c2.36,1.91,5.76,2.1,8.64,1.17a22.4,22.4,0,0,0,7.64-4.81l.05-1.1a162.7,162.7,0,0,0-13.19-18.73c-1.88-2.31-3.93-4.88-3.75-7.85a13.69,13.69,0,0,0,16.77-2.47c1.15-1.29,2.08-2.82,3.54-3.73a13.67,13.67,0,0,1,4.14-1.34,26.52,26.52,0,0,0,9.87-4.65l5.65-5.86c9-10.21,7.68-25.6,6.39-39.17-.48-5-.87-10.15.49-15a44.32,44.32,0,0,1,4.54-9.69c7.82-13.74,15.44-28.08,17.46-43.76,2-15.47-1.61-31.06-5.73-46.1a15.15,15.15,0,0,0-2.61-5.94c-2.45-2.92-6.63-3.59-10.44-3.71a60.1,60.1,0,0,0-36.46,11.12c-6.18,4.43-11.45,10-17.38,14.74a11.5,11.5,0,0,1-4.27,2.44c-4.87,1.18-8.95-3.59-11.63-7.82a561,561,0,0,1-40.77-76.77l3.65-8.06c12-15.61,11.12-37.27,9.66-56.93L346,1240.33c-.22-3-.57-6.36-2.71-8.53-1.88-1.92-4.74-2.48-7.42-2.69a42.71,42.71,0,0,0-38.19,18.73c-2,3-4.33,6.75-7.95,6.63-3.85-.14-5.93-4.62-6.4-8.44-.89-7.28.79-14.83-1.07-21.92a22.68,22.68,0,0,0-6.61-10.9c-1.75-1.59-3.76-2.92-5.15-4.83s-2-4.65-.66-6.59a6.7,6.7,0,0,1,4.44-2.36c7-1.3,14.48,1.36,21.06-1.24s10.43-10.4,10.11-17.63-3.93-13.91-8.31-19.66c-3.76-5-8.37-9.58-14.23-11.65-6.86-2.41-14.58-1-21.48-3.34-4.76-1.58-8.84-4.81-13.61-6.33-7.22-2.31-15.31-.51-22.47-3a7.47,7.47,0,0,1-3.93-2.66c-2.12-3.19.64-7.72,4.25-9s7.57-.44,11.37,0,8.11.3,10.83-2.38,2.92-7,1.56-10.57-4-6.35-6.58-9.09Z"></path>
    <path data-name="2a" data-official="" data-plain="Flower" data-loc="" d="M659.64,2911.5c.9-3.36-.49-7-2.69-9.7s-5.14-4.68-7.91-6.78c-3.83-2.89-7.5-6.16-9.94-10.29s-3.53-9.26-2-13.81c.89-2.63,2.63-5.1,2.51-7.88-.14-3-2.44-5.43-4.29-7.83a29.49,29.49,0,0,1-6.28-20.44,24.1,24.1,0,0,1,10.88-18.12,14.5,14.5,0,0,0,4.08-3c1.78-2.27,1.5-5.45,2.12-8.26,1.41-6.51,7.51-10.74,13.15-14.28,6.64-4.15,13.72-8.39,21.56-8.62,6.83-.19,13.41,2.71,20.24,2.89,5,.13,10-1.19,14.93-.69,9.7,1,17.66,9.06,20.7,18.32s1.86,19.42-.89,28.78a17.55,17.55,0,0,0-1.1,6c.34,5.38,5.63,8.82,9.11,12.94,7.81,9.24,5.86,25-4,32.08-1.45,1-3.14,2.06-3.59,3.79a6.26,6.26,0,0,0,0,2.44c.81,5.94,2.27,11.82,2.45,17.82s-1.11,12.34-5.12,16.81c-5,5.56-13,7.11-20.42,7.84a289.39,289.39,0,0,1-33.58.89c-4.88-.1-10-.27-14.31-2.48s-7.76-7.1-6.67-11.86Z"></path>
    <path data-name="3" data-official="Spinacia oleracea" data-plain="Spinage" data-loc="South Europe" d="M774,1989.89a126.63,126.63,0,0,1,5.56,22.86c.67,4.59,1.09,9.3.2,13.86s-3.26,9-7.16,11.52c-1.06.68-2.21,1.22-3.23,2a34.11,34.11,0,0,0-3.33,3.15,21.93,21.93,0,0,1-9.46,5.34,43.7,43.7,0,0,1-9.76,1.07l-8.59.3-4-4.94q-.35-10.77-.68-21.53c-.07-2,0-4.18,1.48-5.43a10.63,10.63,0,0,1,2.69-1.3c1.67-.75,3-2,4.66-2.9a47.46,47.46,0,0,1,4.93-1.92c3.52-1.41,6.51-3.87,9.82-5.71,3.68-2,7.79-3.35,11.25-5.76S774.67,1994.06,774,1989.89Zm-45.68,408.23a3.11,3.11,0,0,0,1.44-.66c4.13-2.87,7.55-6.63,11.23-10.05a88.92,88.92,0,0,1,21.1-14.59,28.35,28.35,0,0,1,6.56-2.5c2.12-.46,4.32-.5,6.44-1a8.44,8.44,0,0,0,5.42-3.27c2.72-4.23-1.1-9.79-.28-14.74a8.09,8.09,0,0,1,5.26-6.19l3-4.45a841.1,841.1,0,0,0,8-157.78l-.9-5.59c-1.32-4.47-2.7-9-5.51-12.77s-7.4-6.47-12-5.77a10,10,0,0,0-8.14,7.94c-.55,3.08.39,6.19,1.2,9.21s1.49,6.26.45,9.2-4.46,5.25-7.32,4c-2.54-1.11-3.38-4.23-4.14-6.9s-2.3-5.73-5.07-6c-3.17-.25-5.16,3.35-5.92,6.44-4,16,1.87,33.59-3.59,49.18-.77,2.19-2.25,4.64-4.57,4.6s-3.61-2.3-4.76-4.19c-1.71-2.79-4.73-5.63-7.82-4.56a5.52,5.52,0,0,0-3.26,4.11,17.17,17.17,0,0,0,0,5.45,202.71,202.71,0,0,1-1.26,48.23l-.76,14.45a895,895,0,0,0-3.75,90.87l2.49,5.16,5.25,1.84A3.33,3.33,0,0,0,728.33,2398.12Zm553.94-870,7.92,1.83a34.88,34.88,0,0,0,17.45-18.22c2-5,2.92-10.39,5.15-15.28a36.14,36.14,0,0,1,4.29-7l-.62-2.53q-8.42-7.11-17-14c-4.2-3.36-8.5-6.73-13.48-8.78-5.85-2.41-12.29-2.86-18.6-3.29-7.77-.52-15.61-1-23.3.22a13.08,13.08,0,0,0-6.51,2.48c-2.43,2.07-3.3,5.48-3.3,8.67,0,9,5.72,17,11.66,23.76A189.24,189.24,0,0,0,1282.27,1528.15ZM817.11,2547a805.43,805.43,0,0,1-13.24-101.7l-2.1-5.4c-2.16-3.94-5.45-7.42-9.68-8.94s-9.41-.76-12.45,2.55q-.63-12.79-.1-25.61c-4.06,2.76-9.32,2.91-13.86,4.76-8.58,3.47-13.47,12.32-19.89,19-5.95,6.18-13.44,10.64-21,14.63l-2.33,7.29a249.66,249.66,0,0,0,5,41l1,8.5c1.34,45.81,10.7,91,20,135.84,1.43,6.87,2.91,13.87,6.47,19.91,5.82,9.88,16.78,16,28.09,17.84s23-.37,33.77-4.2c6.06-2.14,12.25-5.07,15.81-10.42,4.48-6.74,3.74-15.56,2.6-23.57C830.8,2607.7,823.07,2577.53,817.11,2547ZM2070.4,1782.27c-3.36-5.2-8.26-9.19-13.08-13.08-34.61-28-70.76-56.69-114-67.22l-6.19-1.93a13.77,13.77,0,0,1-5.64,4.44,22.1,22.1,0,0,1-19.18-.43c-4-2.08-7.25-5.34-11-7.84a72,72,0,0,0-11.88-5.86l-29.85-4.06a73,73,0,0,0-16.32-.09,15.65,15.65,0,0,1-6.14-.07c-3.68-1.09-6.08-5-9.82-5.85-2.16-.5-4.42.11-6.63-.1-4.08-.38-7.35-3.42-11.13-5-5-2.11-10.9-1.72-15.51-4.56-2.58-1.6-4.49-4.06-6.67-6.17a31,31,0,0,0-13.82-7.71l-5.5-4.12c-17.37-3.08-34.8-6.87-52.44-6.51a198.37,198.37,0,0,0-19.92,1.66q-10.8,1.29-21.55,2.8c-8.48,1.2-17.66,2.38-25.15-1.77-3.6-2-6.46-5-9.65-7.65a45.44,45.44,0,0,0-28.47-10.15l-9.12,2c-5.74,2.15-12.39,2.6-17.88-.12-2-1-3.75-2.34-5.67-3.43a23.86,23.86,0,0,0-15.19-2.8l-5.77-9-7,.09-18.1-2.6a75,75,0,0,0-9.56-1,56.12,56.12,0,0,0-12.24,1.41c-6,1.25-12,3-17,6.62-3.06,2.19-5.64,5-8.49,7.44a49.88,49.88,0,0,1-29.24,11.9c-2.3.14-4.75.09-6.71-1.12-2.18-1.35-3.33-3.84-4.36-6.18l-2.38-3.52c-3.62-10-2.38-21-3.58-31.5-2-17.78-11-33.91-17-50.74l-2.32-4.94-33.09,12.1a79,79,0,0,1-14.59,4.3,52.46,52.46,0,0,0-7.71,1.35c-5,1.61-8.89,5.62-13.13,8.8a46.93,46.93,0,0,1-43.25,6.56l-4,8.15c-3.61,3.39-6.37,7.59-9.84,11.13s-8,6.49-13,6.31l-8.22,2.41a14.45,14.45,0,0,1-10.05,2.59c-3.16-.38-6.09-1.8-9.13-2.77-4.57-1.46-9.63-2-13.39-5l-7.53-8.69-6.85-1.34-32.41-.06a2.24,2.24,0,0,1-1-.16,2.3,2.3,0,0,1-1-1.35l-9.94-26.22c-1.85-4.88-3.74-9.82-6.75-14.09a31.52,31.52,0,0,0-27.74-12.93l-8.73-.08c-3.52,8.5-1.65,18.26-3.7,27.23-1.45,6.33-4.8,12-8.1,17.63l2,7.68q-.94,7.31-1.9,14.62a35.84,35.84,0,0,1-1.67,8l-2.87,9.28c-1.26,2.65-4.07,4.27-6.92,4.93s-5.83.54-8.76.64c-18.48.62-35.36,10.32-50.5,21l-1,1.1a381.43,381.43,0,0,0-108,19.44l-5.34-6.82-9.7.31a91.78,91.78,0,0,0-59.25,27.18l-5.66,1c1.19,3.62-.88,7.4-1.93,11.06-1.56,5.43-.88,11.22-1.61,16.82-.79,6.06-3.22,11.77-5.68,17.37a9.29,9.29,0,0,0-1,3.39c-.05,1.84,1,3.5,1.73,5.18,2.6,5.72,2.34,12.27,2,18.55l8.15,9.19,2.36-4.86c4.43-6.34,7.63-13.43,11.7-20s9.22-12.81,16.21-16.11l7.09-5.07c7.07-10.61,18.77-17,28-25.82l9.48-7.74a81.79,81.79,0,0,1,16.19-8c45.52-17.8,95.34-22,144.18-20.12,6.54.26,14,1.07,17.86,6.34l7.5,3.77,86,14.5c.73,6.64-2.32,13.09-5.72,18.85a133.06,133.06,0,0,1-19.55,25.44c-10.65,10.83-23.86,21-26.9,35.88-1.37,6.69-.45,13.61-.61,20.44s-1.66,14.15-6.7,18.75l-4.21,11.59c2,6.93,3.94,14.17,2.59,21.24a46.72,46.72,0,0,1-3,9l-7.2,17.32-3.79.1-2.38,6.22c-5.4,18.26-10.86,37-9.72,56,.22,3.7.87,7.74,3.67,10.17,3.62,3.15,9.16,2.26,13.71.74s9.43-3.5,14-2l10.34-4.31,3-4.12a51.15,51.15,0,0,0,11.77-3.19,25.51,25.51,0,0,1,6.85-2.21,23.54,23.54,0,0,1,6.62.66,82,82,0,0,0,18.64,1.26l9.08-.22a50.36,50.36,0,0,0,31.58-21.82c4.84-7.55,7.56-16.26,12-24.06s11.3-15.06,20.18-16.31l12.78-5.44a35.49,35.49,0,0,1,32.39,2c7.43,4.51,12.9,11.61,17.51,19,2.43,3.87,4.71,8,5.27,12.53l2.74,19.73,14.71-1.82c3,.29,5.53,2.39,7.8,4.41a76.54,76.54,0,0,1,8,7.83c4.63,5.5,8.05,12.45,14.41,15.8a58,58,0,0,0,5.89,2.39,37,37,0,0,1,14.26,10.15l4.47,2.83a27.2,27.2,0,0,0,9.5,3.78c2.53.48,5.11.6,7.63,1.11,1.81.38,3.59,1,5.43,1.15l6.43-.1,12.19-.8,3.58.56a57.62,57.62,0,0,0,14,2.18,53,53,0,0,1,7.77.45,11.11,11.11,0,0,1,6.75,3.55l-3.2,6.77,7.7-.6c7.45,8.12,19.35,10.59,30.37,10.22,6.86-.22,13.87-1.44,19.74-5,3.35-2,6.25-4.77,9.65-6.73,9.59-5.49,21.58-4,32.23-6.93,12-3.35,21.53-12.15,31.67-19.37s22.71-13.24,34.7-9.89l5.45-6.43,24.94-24.61c4.24-4.19,8.49-8.38,12.48-12.82,4.19-4.66,8.12-9.61,12.95-13.61s10.76-7,17-7.06l14.2-2.71q35.75-14.4,72.68-25.55c17.69-5.34,35.77-10.14,54.24-10.52,27.33-.56,56.18,8.34,81.13-2.83,6.61-3,12.61-7.24,19.44-9.65,14.55-5.14,30.49-1.19,45.89-.43a109.39,109.39,0,0,0,26.66-2c8.38-1.66,17.56-5.2,20.73-13.13C2075.38,1794.2,2073.76,1787.47,2070.4,1782.27ZM853.56,1609.18l-2.19,6c-6.47-.22-13.22,1-19.25-1.41-6.87-2.69-11.28-9.41-14.26-16.15a5.36,5.36,0,0,0-1.79-2.56,4.69,4.69,0,0,0-2.26-.54c-3.84-.19-7.66.56-11.5.69s-7.93-.44-10.91-2.87c-1.35-1.11-2.49-2.61-4.15-3.15-1.92-.63-4,.18-5.92.66a18.4,18.4,0,0,1-11.88-1.12l-2.12-5.42,1.15-8.84A86.64,86.64,0,0,0,755,1514.25c-1.43-2.14-3.21-4.39-5.75-4.84-1.84-.32-3.68.38-5.53.63-6,.79-11.69-3.32-14.69-8.51s-3.86-11.33-4.7-17.27-1.8-12.07-5-17.17a29.45,29.45,0,0,0-8-8.19c-13.77-9.92-31.88-11-48.85-10.6-28.17.67-57.43,4.86-80.79,20.63l-8.61,4.13c-7,2.18-14.18,4.42-20.16,8.71a58.49,58.49,0,0,0-5.79,4.89,211.17,211.17,0,0,0-30.16,35l-2.16,6a90.5,90.5,0,0,0-21.16,35.23l-3.21,19.22q-8.7,25.5-19,50.43l-5.56,5.24c-4.37-1.21-9.13.88-12.27,4.15s-5,7.56-6.61,11.78a86,86,0,0,0-4.07,12.5c-.79,3.47-1.21,7-2.1,10.47-1.46,5.65-4.16,10.89-6.84,16.07l-6.39,12.4-.19,7-11.93,20.12c-15.27,32.27-49,55-84.69,56.9-18.44,1-37.52-3-55.07,2.68-22.12,7.23-36.44,28.08-49.1,47.61-13.18,20.32-26.57,41.14-32.39,64.65-4.51,18.19-4.3,37.39-9.8,55.31-9.73,31.71-36,55.45-63,74.73-12.71,9.07-26.22,17.94-34.55,31.14-3,4.78-5.39,10.17-9.75,13.75-7,5.73-17.65,5.23-25.37.55s-12.82-12.73-16.14-21.12c-13.72-34.63-.64-73.26,4.2-110.19,7-53.73-2.94-112.54,25.05-158.94,14.33-23.75,37.33-41.27,62.16-53.64,17.92-8.94,37.09-15.52,53.93-26.38s31.6-27.19,34.3-47c4.48-33-24.67-61.83-26.68-95-.31-5.12.53-11.14,5-13.73,2.72-1.6,6.08-1.44,9.22-1.23l51.85,3.47c10.64.71,21.45,1.45,31.5,5,7.9,2.82,15.08,7.3,22.5,11.21a172.65,172.65,0,0,0,72.35,19.7l8.09,2,6.22,4.18c2.36,1.91,5.76,2.1,8.64,1.17a22.4,22.4,0,0,0,7.64-4.81l.05-1.1a162.7,162.7,0,0,0-13.19-18.73c-1.88-2.31-3.93-4.88-3.75-7.85a13.69,13.69,0,0,0,16.77-2.47c1.15-1.29,2.08-2.82,3.54-3.73a13.67,13.67,0,0,1,4.14-1.34,26.52,26.52,0,0,0,9.87-4.65l5.65-5.86,15.71-9.67c10.47-6,19.56-14.16,28.5-22.29,4.27-3.89,8.56-7.83,12-12.46,2.75-3.67,4.93-7.73,7.41-11.59a88.18,88.18,0,0,1,13.07-15.89l9.8-3.64a12.36,12.36,0,0,1,6.61,0,5.17,5.17,0,0,0,2.41.34,4.34,4.34,0,0,0,1.51-.81q7.32-5.34,14.45-10.93l2.66-4.4,2.11-5.17,3.84-5.21c18.13-8,37-14.06,55.92-20a155.88,155.88,0,0,1,21.39-5.63c8.49-1.4,17.14-1.4,25.74-1.39l41.73,0a3.35,3.35,0,0,0,4.07-3.82q2-19.49,4.06-39a44.8,44.8,0,0,0,.21-11.33c-1.75-11.49-11.83-19.58-21.09-26.6-28.78-21.81-57.19-45-77.81-74.69-11-15.88-19.82-33.55-33.45-47.27l-5.92-5.39c-40.06-1.8-76.78-23.25-116.5-28.71-2.32-.32-4.77-.57-6.94.31-2.81,1.13-4.56,3.89-6.25,6.4A96.2,96.2,0,0,1,407.15,1220c-2.37,1.32-5,2.58-7.7,2a10.68,10.68,0,0,1-5.05-3.33c-10.68-10.86-16-26-18.28-41s-1.73-30.38-2.37-45.59c-.13-3-.42-6.32-2.51-8.51-2.4-2.52-6.26-2.68-9.69-3.27-14.77-2.53-26.72-15.54-41.7-15.76-8.33-.12-16.11,3.81-24.2,5.8a53.71,53.71,0,0,1-44.72-9.29l-13.71-5.29c-3.26-4.15-9-5.21-14.22-6a22.14,22.14,0,0,0-5.85-.33c-2.52.31-4.85,1.49-7.33,2-6.38,1.42-13.19-1.42-19.52.23-2.22.58-4.28,1.69-6.47,2.39s-4.71.92-6.71-.22a7.66,7.66,0,0,1-3.35-4.89,12.65,12.65,0,0,1,3.32-11.92,41.76,41.76,0,0,1,5.83-4.18,11.34,11.34,0,0,0,4.63-5.33l4.54-4.76c3.92-2.38,8.4-3.63,12.79-5s8.82-2.9,12.43-5.74,6.27-7.24,5.91-11.81l8.83-5.56a210.3,210.3,0,0,1,85.48-12.4c-20-12.77-33.7-33.25-50.93-49.63-13.35-12.7-28.83-22.91-44.21-33l-39-25.72c-10.11-6.66-20.23-13.33-30.89-19.06S130.57,884.29,119.64,879a372.82,372.82,0,0,1-60.18-36.7c-9.11-6.81-18.86-16.42-16.77-27.6,2.12-11.41,15.19-16.81,26.58-19.1,31.81-6.38,64.81-3.85,96.7,2.1S229,813,260.64,820.24c24.18,5.57,49.71,10.45,69,26.09,3.85,3.13,7.45,6.69,11.93,8.84,4.33,2.08,9.19,2.7,13.95,3.29l29.06,3.59q-1-5.65-1.91-11.33l-1-11.74L358.22,730.24c-2.11-9.8-4.24-19.77-3.52-29.77s4.7-20.23,12.71-26.27c6.09-4.6,13.81-6.33,21.25-8.06a741.33,741.33,0,0,0,98.71-30.37c2.61-1,5.66-2.63,5.72-5.42,0-1.62-1-3-2-4.3-24.38-30.39-62.94-48.89-101.9-48.88-14.43,0-28.8,2.39-43.22,1.83-19.45-.77-38.54-6.9-58-6.1-14.94.61-30.6,5.19-44.36-.64a10,10,0,0,1-4.51-3.21c-2.36-3.42-.57-8.11,1.6-11.65,13.45-22.06,38.67-34.34,63.81-40.29s51.25-6.73,76.52-12.05c19-4,37.45-10.57,56.51-14.4,27.33-5.49,55.45-5.28,83.33-5.05,21.73.18,44.32.56,63.78,10.2,11.67,5.79,23,15,35.93,13.52a17.82,17.82,0,0,0-4.68-10.42l-5-13.51c-7.24-12.95,3.41-28.89,1.81-43.63-.86-7.92-5.26-15.12-6.21-23-1.77-14.75,10.94-29.59,25.78-30.13q-5.92-17.67-11.87-35.34c-3-8.82-6.05-17.86-12-25-8.67-10.31-22.47-15.42-30.58-26.16-9.53-12.64-10.16-31.69-23.06-40.86-6.74-4.79-16.55-6.68-19.55-14.39-4.13-10.64,8.74-19.95,19.81-22.74a106.84,106.84,0,0,1,85.36,15.25c3.92,2.69,9.59,5.53,12.83,2.06,1.42-1.52,1.69-3.74,1.87-5.81,1.18-14,.92-28.24,3.58-42.07,7.91-41.14,40.1-72.86,72.41-99.52,3.93-3.25,8.07-6.55,13-7.73,4.55-1.08,9.35-.26,14-.89,14.48-2,23-16.65,31.49-28.53A129.91,129.91,0,0,1,816.83,29C826,22.12,839.6,16.71,848,24.47c3.45,3.19,5,7.92,6.06,12.5a86.3,86.3,0,0,1-8.15,59.65c-8.74,16.16-23.16,31.16-22.06,49.49.54,9,4.86,17.23,8.27,25.56a132.9,132.9,0,0,1,8.83,66.2c-1.43,11.63-4.41,23.18-3.78,34.88S843,296.85,853.5,302c10,4.89,21.79,2.16,32.79.51a155.08,155.08,0,0,1,46.43.07c14.94,2.3,32.83,11.2,31.55,26.27-1,12.32-14.39,19.19-25.93,23.63-28.47,10.95-57.24,21.3-84.56,34.88-4.38,2.18-9.08,4.84-10.73,9.44-2,5.67,1.52,11.95,6.14,15.82S859.52,419,864,422.93a28.7,28.7,0,0,1,8.27,29.32l1.26,10.37A109.65,109.65,0,0,1,941,474.41c7.69,4.13,14.89,9.2,22.93,12.6,14.62,6.17,31.22,6.52,45.77,12.87,24.81,10.83,39.43,37.51,44.45,64.11,3.92,20.72,2.87,43.08-7.25,61.58s-30.52,32.13-51.52,30.26c-13.56-1.2-25.74-8.35-38.4-13.33s-27.84-7.58-39.29-.22a26.83,26.83,0,0,0-11.57,26.85,10.64,10.64,0,0,0,2.09,5c2.28,2.69,6.17,3.13,9.48,4.34A19.14,19.14,0,0,1,928,687.7l6.2,7.7c3.46,4.34-1.93,11.4,1,16.11,2.09,3.36,6.93,3.27,10.87,2.8a699.58,699.58,0,0,1,123.63-3.67c17.72,1,35.53,2.78,52.61,7.63s33.52,13,46.18,25.42c5.7,5.61,10.76,12.17,17.88,15.81,6.79,3.47,14.69,3.88,21.93,6.25a42.34,42.34,0,0,1,19.62,13.51c5.24,6.45,8.32,16.23,3.33,22.87-4.59,6.09-13.43,6.5-21,6.16a442.26,442.26,0,0,1-55.41-6l-.26,30.48-2.31,8.14L1141,842.5c-3.61,2.41-4.85,7.19-4.74,11.53s1.28,8.62,1.22,13c-.07,5.69-2.22,11.12-3.16,16.73a74.46,74.46,0,0,0-.57,14.63,8.19,8.19,0,0,0,.7,3.71,10.59,10.59,0,0,1,1,1.66,4.59,4.59,0,0,1,0,2.24l-1,6.14.72,6.7a18.71,18.71,0,0,0-3,5.41,36,36,0,0,0-1.5,6.75,382.6,382.6,0,0,0-4.18,68.3l7.28,22.14-2.34,23.48a158.56,158.56,0,0,1-39.25,97.77c-8,9-17.22,17.45-22,28.52-2.53,5.79-3.74,12.06-6,18-7.45,19.3-25.25,32.32-42.16,44.23l-6.56,7.7q3.09,30.17,4.19,60.48c.36,10.08.48,20.58-3.83,29.69-2,4.35-5.36,8.43-9.95,9.85-5.69,1.75-11.84-1-16.44-4.77s-8.3-8.59-13.13-12.06c-11-7.94-27.23-8.41-35.52-19.2-2.48-3.24-4-7.14-6.51-10.35s-6.65-5.74-10.56-4.58c-3.41,1-5.47,4.39-7.07,7.57-19.73,39.22-19.72,87.68-46.5,122.48a19.43,19.43,0,0,0-3,4.68,17.78,17.78,0,0,0-.85,5.91L865,1468.18l-2.14,11c-4.46,3.68-9,10.38-4.95,14.51,1.43,1.46,3.54,2,5.54,2.34l1.07,12.06C864.77,1542.14,864.86,1577,853.56,1609.18ZM955.81,838.91c2.67,7.65,5,16.15,10.94,21.61s12.74,10,19.18,14.93c6,4.59,14.81,7.51,21.26,11.46s13.72,6.92,21.28,7.13l12.56-1.17a32.16,32.16,0,0,0,17.45-12.73c2.68-4,4.43-8.47,7-12.49,2.17-3.35,5-6.45,6-10.31a4,4,0,0,0,0-2.64c-.76-1.74-3.13-1.94-5-1.8-13.42,1-27.3,5.31-40,.77a51.46,51.46,0,0,1-8.9-4.47q-6-3.59-11.59-7.66c-3.59-2.6-7.08-5.35-10.88-7.62a52,52,0,0,0-34-6.77,9,9,0,0,0-3.53,1.07C954.26,830.29,954.52,835.21,955.81,838.91Z"></path>
    <path data-name="3a" data-official="" data-plain="Stamen flower" data-loc="" d="M785.43,2884c2.86-6.39-.42-13.67-3-20.16-3.83-9.55-6.29-19.9-5.06-30.12s6.59-20.27,15.5-25.41c6.79-3.92,14.9-4.71,22.73-5q9.25-.33,18.54.09c7.23.33,15,1.26,20.34,6.16s6.94,12.92,8,20.25c1.64,11,3,22.65-.87,33.14-1.66,4.49-4.23,8.65-5.45,13.28-1.62,6.18-.72,12.7-.65,19.1s-.93,13.32-5.43,17.86c-3.08,3.1-7.38,4.64-11.6,5.78a90.82,90.82,0,0,1-37.8,2c-3.48-.55-7-1.36-9.92-3.39-3.85-2.72-6-7.34-6.74-12s-.23-9.4.28-14.08Z"></path>
    <path data-name="4" data-official="Basella rubra" data-plain="" data-loc="East Indies" d="M945.35,2632.61a316.51,316.51,0,0,1-60-3.46c-4.14-.64-8.71-1.63-11.14-5-1.64-2.31-1.95-5.29-1.91-8.12.21-14.92,8.62-28.32,16.75-40.83l4.89-10.73q12.4-23.34,26.37-45.81c7.68-12.35,16.15-24.91,28.69-32.29l9.1-5.89c3.55-1.19,7.29-2.52,9.63-5.44a46,46,0,0,0,2.87-4.79c4.72-7.69,14.39-10.6,21-16.69,3.78-3.46,6.52-7.89,9.2-12.26l1.86-.82c10.53-.75,20.62-4.8,29.6-10.34s17-12.55,24.72-19.7c4.81-4.43,9.75-9.27,11.45-15.57.74-2.73.84-5.65,2-8.23,1.09-2.43,3-4.36,4.74-6.38a47.91,47.91,0,0,0,11.3-30.69l1.58-1a57.11,57.11,0,0,1,7.86,7.69l13.86,15.41a16.93,16.93,0,0,1,3.56,5.11c.86,2.24.72,4.72.57,7.12l-.79,12.81-3.41,7.35-5.85,9.67-51.75,73.82c-4,5.68-8,11.37-11.61,17.29-2.86,4.66-5.5,9.45-8.64,13.92-5.37,7.6-12.15,14.15-17.23,21.95-7.91,12.16-11.42,27-20.48,38.29l1.71,7.13a32.85,32.85,0,0,0-18.63,26.37c-.39,4.33,0,8.9-1.87,12.8Zm347.77-449.79a35.33,35.33,0,0,1,.49-5.23l1.41-7.26,4.91-4.66-5.19-14c-1.4-3.79-2.83-7.76-2.33-11.76a13.3,13.3,0,0,0,.3-3.81,8.86,8.86,0,0,0-1.33-3c-4.18-6.9-8.69-14.12-15.8-17.94-4.29-2.31-9.44-3.33-13.5-5.8l-3.44,6.59q-4.56,4.65-9.49,8.92l-3.71,3.56c-3.09,2.65-6.5,6.18-5.6,10.15a11.29,11.29,0,0,0,2.8,4.59l5.95,7c-9.9,3.15-21.65-1.56-30.6,3.71a31.57,31.57,0,0,0-4,3l-7.53,4.52c-13.87,8.67-22.61,23.46-34.62,34.57l-7.89,6c-6,2.37-10.22,7.6-14.2,12.62l-49.17,62-3.35,8-.42,6.57a15.24,15.24,0,0,1-2.61,13.93,4.37,4.37,0,0,0-1.09,1.8c-.45,2.1,2.28,3.22,4.18,4.22a9.34,9.34,0,0,1,4.85,7.24l8.9,1a19.64,19.64,0,0,1-8.87,4.84c.81.9-.51,2.18-.64,3.39a3.51,3.51,0,0,0,1.38,2.63l27.5,27.93,2.08.36a76.51,76.51,0,0,1,9.25-18c.8-1.15,1.83-2.39,3.23-2.42l2.86-3.18c6.07-8.75,13.24-16.67,20.4-24.56l10.88-1.81,2.11-6.18c4.71-6.77,10.84-12.4,16.7-18.21,30.2-30,54-66.33,86.58-93.7Zm621.51,45.3a56.77,56.77,0,0,0-12-38.74c-8-10.11-19.19-17.14-28.47-26.1-28.35-27.34-36.53-69.78-61.26-100.43-14.25-17.66-33.6-30.78-54.45-39.71s-43.24-13.83-65.73-16.88l1.2-4.7a89.13,89.13,0,0,0,5.31-46.38c10.32,2.28,20.81-2.27,30.34-6.86,7.46-3.58,15-7.37,20.75-13.35,7.47-7.81,11-18.76,11.54-29.56s-1.81-21.52-4.82-31.9l-4.72-9.47-14.2,2.71c-6.27,0-12.2,3.06-17,7.06s-8.76,9-12.95,13.61c-4,4.44-8.24,8.63-12.48,12.82l-24.94,24.61-5.45,6.43c-12-3.35-24.56,2.67-34.7,9.89s-19.68,16-31.67,19.37c-10.65,3-22.64,1.44-32.23,6.93-3.4,2-6.3,4.7-9.65,6.73-5.87,3.56-12.88,4.78-19.74,5-11,.37-22.92-2.1-30.37-10.22l-7.7.6q-3.37,7.2-6.74,14.39a10.72,10.72,0,0,1-1.51,2.58c-.91,1.06-2.22,1.78-2.91,3-1.36,2.4.2,5.83-1.48,8a6.45,6.45,0,0,1-2.07,1.58l-25.64,14.53-.89-1.62c3.52-18.17,11.87-35.13,15.4-53.3l.54-2.13-3.58-.56-12.19.8-6.43.1c-1.84-.2-3.62-.77-5.43-1.15-2.52-.51-5.1-.63-7.63-1.11a27.2,27.2,0,0,1-9.5-3.78l-4.47-2.83a37,37,0,0,0-14.26-10.15,58,58,0,0,1-5.89-2.39c-6.36-3.35-9.78-10.3-14.41-15.8a76.54,76.54,0,0,0-8-7.83c-2.27-2-4.78-4.12-7.8-4.41l-14.71,1.82q-.9,16.2-1.81,32.39c-.45,8-1,16.29-4.43,23.55l-3.44,6q-8.09,25.65-16.16,51.32a109.46,109.46,0,0,0-3.65,13.62c-1.4,7.94-1,16.07-.61,24.13l.75,15.19c.94,19,2.12,38.93,11.88,55.29l9.42,5.31,4.53-4.92q6.95-9.33,14.28-18.37l2.77,13.59c1.5,7.32,3.14,15,7.88,20.74l6.28,3.69c6.74,2.55,11.58,8.41,16.1,14l18.27,22.69,7.09,25.32,7.21,7.44a155,155,0,0,1,39.16,54.37c11.07,25.81,15.43,55.17,33,77,29.3,36.4,85.2,40.21,117.88,73.61,14.55,14.87,23.32,34.53,37.22,50,32.32,36,86.29,43.8,123.31,74.94,22.67,19.08,37.79,46,60.73,64.71,10,8.15,22.44,14.87,35.17,13,15-2.21,26-15.91,31-30.26s5.47-29.83,8.55-44.71c4-19.3,12.45-38,12.1-57.68-.31-16.86-7.08-33.13-7.12-50,0-21.9,11.22-42.59,11.54-64.49.3-20.83-9.25-40.33-15.33-60.26a185.93,185.93,0,0,1-5.92-82.14Zm-55.54-559.66c-3.61-6.06-5.35-13.48-10.68-18.11-5.09-4.44-12.28-5.29-19-6.29a197.42,197.42,0,0,1-28.12-6.33l-6,1.41a34,34,0,0,0-23.41,10.68l-3.85,2.78,5.5,4.12a31,31,0,0,1,13.82,7.71c2.18,2.11,4.09,4.57,6.67,6.17,4.61,2.84,10.53,2.45,15.51,4.56,3.78,1.6,7,4.64,11.13,5,2.21.21,4.47-.4,6.63.1,3.74.87,6.14,4.76,9.82,5.85a15.65,15.65,0,0,0,6.14.07,73,73,0,0,1,16.32.09ZM1556.73,1515.4l-.32-6.19c-1-4.09-2-8.33-4.65-11.62a25.3,25.3,0,0,0-7.45-5.79c-15.57-8.91-34.93-13.44-51.51-6.62l-7.16,9.2a198.79,198.79,0,0,0-13.15,17.43l-7.27,1c-6.43,0-13,.35-18.93,3-9.56,4.21-15.59,13.61-21.06,22.5l-6,5.22,2.32,4.94c6.07,16.83,15,33,17,50.74,1.2,10.54,0,21.53,3.58,31.5l2.38,3.52c1,2.34,2.18,4.83,4.36,6.18,2,1.21,4.41,1.26,6.71,1.12a49.88,49.88,0,0,0,29.24-11.9c2.85-2.46,5.43-5.25,8.49-7.44,5-3.57,11-5.37,17-6.62a56.12,56.12,0,0,1,12.24-1.41,75,75,0,0,1,9.56,1l2.4-5.48c1.88-6.44,6.42-11.7,10.06-17.34,12.76-19.79,14.47-44.72,12.88-68.22ZM1228.66,461.72c5.65,8.74,8.8,18.94,7.94,29.26-.46,5.5-2,11-1.17,16.45.58,3.76,2.27,7.24,3.8,10.72a152.67,152.67,0,0,1,12.31,47.63l8.08,2.14a61,61,0,0,0,27.15,7.46,2.84,2.84,0,0,1,1.78.47,2.75,2.75,0,0,1,.53,2.36l-3.36,38-1.78,6a34.52,34.52,0,0,1,5.5,18.4c-.09,5.52-1.81,10.86-2.7,16.3s-.82,11.42,2.28,16l7.36,7.78c6.71,4,14.18,9.1,14.86,16.88.26,2.87-.46,6,.87,8.52,2,3.73,7.09,4.29,10.27,7.06a9.32,9.32,0,0,1,2.93,5.07l6.24,1.82a7.36,7.36,0,0,0,6.48-.88,33.59,33.59,0,0,0,5.17-4.38,2,2,0,0,1,.79-.53c1-.3,1.79.91,2.17,1.9,3.59,9.31,7.77,19.12,16.07,24.66l-.5,6.91a25.11,25.11,0,0,1,11.12,1c3.3,1.09,6.59,2.9,10,2.42a15.82,15.82,0,0,0,5.83-2.52c6.68-4,13.43-8.13,19-13.6a82.72,82.72,0,0,1-3.73,38.67,34,34,0,0,0-2.19,7.91c-.35,3.8.87,7.56,2.06,11.18l-.29,9.22-8.66,7.54a33.16,33.16,0,0,0-5.49,5.62c-3.12,4.43-3.89,10.19-7,14.62-2.37,3.37-5.91,5.71-9.37,8l-14.34,9.39-5.89,1.85c-1.32,2.43-2.69,5.1-2.27,7.84.31,2,1.52,3.73,2.52,5.49a12.62,12.62,0,0,1,2,7.24c-.24,2.53-2,5-4.46,5.53,1.94.52,4,.35,5.93,1a7.76,7.76,0,0,1,4.88,7.21,9.13,9.13,0,0,1-4.53,7.62,15.86,15.86,0,0,1-7,1.84,14.51,14.51,0,0,1-6.32-.69,6.47,6.47,0,0,1-4.1-4.57,16.87,16.87,0,0,1-10.19,3l-6.33,4.08c-8.89,15.09-9.4,33.59-8.28,51.06a330.7,330.7,0,0,0,17.12,85.86l3,8.39c5.16,7.76,10.91,16,19.7,19.12,6.68,2.37,14.37,1.43,20.65,4.73,3.8,2,6.71,5.36,10.37,7.62,5.09,3.14,11.65,4.17,15.51,8.74l2.19.83c2.25,2.05,5.83,2,8.55.63s4.77-3.72,6.7-6.07q5.17-6.29,10-12.88a27,27,0,0,0,3.64-6.11c1.24-3.26,1.26-6.84,1.25-10.33,0-7.12-.09-14.57-3.49-20.82-1.67-3.07-4.07-5.7-5.77-8.75-2.88-5.22-3.56-11.39-3.26-17.35.23-4.56,1.13-9.39,4.24-12.74a18.79,18.79,0,0,0,6,9.37,37.11,37.11,0,0,0,6.21,4c8.26,4.53,17.09,9.2,26.5,8.62l3.64,4.6,3.74,17c.71,3.27,1.54,6.73,3.94,9,3,2.89,7.57,3.22,11.72,3,17.39-1,34.62-8.79,51.69-5.31,8,1.63,15.26,5.64,23.13,7.7a48.75,48.75,0,0,0,11.59,1.58,44.62,44.62,0,0,1,7.93.41,9.57,9.57,0,0,1,6.29,3.84l1.6.06c2.71-.7,4.89,2.1,6.61,4.31,5.64,7.2,14.42,11,22.83,14.62,5.46,2.32,11.18,4.69,17.1,4.28l3.41,0c2-2.47,3.87-5,5.91-7.42a76,76,0,0,1,36.09-23.52l3.43-1.56c18.19-12.71,30.85-32.11,39.14-52.69a12.62,12.62,0,0,1,1.76-3.35,12.08,12.08,0,0,1,2.29-2L1741.84,973c1.48-1.07,3.06-2.28,3.54-4s-.14-3.34-.61-5c-3.47-12-.39-24.83,3.34-36.74l-8.31,3.58c-4.23-4.24-9.73-6.95-15.14-9.54-19.9-9.52-40.3-18.52-62-22.65-36.82-7-74.73.4-111.32,8.56-1.65-32.53-3.27-65.49,3.39-97.38,4.46-21.37,12.55-41.78,20.68-62q14.65-36.57,29.64-73c4.93-12,11.2-25.29,23.46-29.54,1.1,23.3,3.11,47.16,13,68.3,13.78,29.52,42,50.67,72.76,61.26s64.14,11.56,96.6,8.84c10.78-.9,22.34-2,31.77,3.26,19.24,10.84,20.39,43.09,41.47,49.68,14.71,4.59,30.25-7.76,35.31-22.32s2.76-30.47,1.45-45.83a333.47,333.47,0,0,1,.32-60.53c1.28-13.24,3.33-26.75.29-39.7-2.88-12.24-10.09-23-14.9-34.59-5-12.11-7.45-25.29-13.87-36.7-10.68-19-30.71-30.4-49.84-40.79-21-11.4-42.34-22.75-65.41-29s-48.37-7.07-70.35,2.34L1705.57,519c-7.31-5.6-5.37-16.92-2.71-25.74l5.29-17.52a90.31,90.31,0,0,0,46.12-5.4c14.06-5.59,26.83-15,35.11-27.63s11.74-28.72,8-43.37-15.2-27.44-29.77-31.49c-5.44-1.51-11.13-1.83-16.74-2.47-2.42-.28-5.2-.86-6.32-3a7.86,7.86,0,0,1-.58-3.44c-.09-5.58.27-12.09,4.83-15.31a18.34,18.34,0,0,1,6.17-2.36c16.37-4.18,34-13.22,38-29.62,5.47-21.92-16.21-43.11-12.94-65.47l-2.84-9.78c-1.13-5-7.64-6.89-12.5-5.34s-8.6,5.34-12.7,8.37c-10.07,7.41-22.62,10.31-34.42,14.44s-23.89,10.37-29.57,21.5c-5.45,10.68-3.81,23.44-2,35.3-11.75-.77-23.66-1.54-35.2.78s-22.87,8.11-29.34,17.95c-3.92,5.95-5.82,13-7.67,19.83l-5.47,20.32a66.15,66.15,0,0,0-49.59-24.7c-5.75-.13-12.44.11-16.12-4.32-2.11-2.54-2.61-6-3-9.28l-13-102.13c-.6-4.74-1.19-9.64.14-14.23,2-7,8.22-12.06,11.86-18.45,6.53-11.48,4.19-25.72,2.08-38.76-.26-1.61-.49-3.38.36-4.77s2.37-2,3.82-2.49c9.81-3.64,19.92-7.5,27.4-14.83,15.07-14.78,14.85-40.31,4.53-58.72-2.68-4.78-6-9.32-10.48-12.49a35.85,35.85,0,0,0-14.26-5.6c-13.8-2.61-28-.29-41.84,2-8.28,1.39-16.83,2.88-23.81,7.54-8.48,5.66-13.6,15.54-14.9,25.66s.89,20.43,4.69,29.89l-10.35,4.43c-16.08,7.68-32.84,17-40.86,32.89-6.56,13-6,29,.26,42.16s17.94,23.33,31.33,29c-27.93,4.56-52.73,27.29-57.07,55.26s14.18,58.44,41.7,65.06c5.51,1.32,11.48,1.87,16,5.3s6.25,11.23,1.61,14.48c-2.74,1.92-6.41,1.46-9.76,1.39-17.06-.36-32.35,11.93-40.58,26.87s-10.76,32.27-13.15,49.16a71.07,71.07,0,0,0-40.15-11.45c-2,0-4.12.11-5.65-1.13a8.39,8.39,0,0,1-2.16-3.65c-6.5-16.74-18.77-31.59-35-39.22s-36.51-7.29-51.47,2.65c-15.84,10.52-23.69,29.51-28.53,47.9Z"></path>
    <path data-name="4a" data-official="" data-plain="Sepal and Stamen" data-loc="" d="M983.72,2867.68c4.44-5.53,4.19-13.44,2.73-20.38-1.89-9.06-5.43-17.7-7.39-26.75s-2.22-18.94,2.16-27.09c1.46-2.7,3.46-5.4,3.26-8.46a13.65,13.65,0,0,0-1.63-4.77,92.69,92.69,0,0,1-9-41.59c.13-6.71,1-13.57,4.17-19.52,3.51-6.68,9.54-11.71,16-15.67a84.51,84.51,0,0,1,57.16-11.47c4.17.66,8.38,1.68,11.94,3.95,8.86,5.67,11.35,17.29,13,27.68,1.45,9.21,2.84,18.52,2.31,27.83s-3.15,18.75-9,26.06a6.43,6.43,0,0,0-1.5,2.53c-.3,1.35.36,2.71,1,4a82.61,82.61,0,0,1,5.2,57.88c-2.1,7.5-5.31,14.85-5.52,22.65-.18,6.94,2,14.31-1,20.6-1.61,3.42-4.58,6.1-5.86,9.65-1.58,4.4-.31,9.46-2,13.81a16.6,16.6,0,0,1-5.8,6.89c-13,9.75-30.65,9.67-46.77,8-6.66-.7-14.48-2.48-16.95-8.7-2.57-6.45,2.3-14.15-.39-20.55-1.25-3-3.91-5.06-6-7.52s-3.67-5.93-2.27-8.83Z"></path>
    <path data-name="4b" data-official="" data-plain="Stamen" data-loc="" d="M1098.65,2864.3c7.8-10.82,8.58-25,9.08-38.35.4-10.72.8-21.53-1-32.1-.88-5.15-2.29-10.18-3.21-15.32a131.29,131.29,0,0,1-1.55-25.91c.23-11.64,2-24.87,11.53-31.57,7.19-5,16.7-4.79,25.45-4.12,3.57.28,7.37.67,10.19,2.88,4.09,3.2,4.78,9,5.13,14.22.85,12.65,1.64,25.37.3,38-2,18.31-8.39,36.34-6.7,54.68,1.27,13.88,7.14,26.92,9.76,40.62s1.17,29.68-9.39,38.79c-10.15,8.75-25.06,8.33-38.44,7.42-5-.34-10.34-.85-14-4.26s-4.47-9-4.34-14.06a54.59,54.59,0,0,1,5.14-21.67Z"></path>
    <path data-name="4c" data-official="" data-plain="Ovary and Styles" data-loc="" d="M1170.31,2875.79c3.3-4.72,5.33-10.6,4.34-16.27-.71-4-2.86-7.65-4.81-11.26-5.66-10.51-9.9-22-10.62-33.9s2.32-24.33,9.9-33.56c2.91-3.55,6.48-6.63,8.69-10.65,2.93-5.31,3.2-11.63,3.16-17.69a236.4,236.4,0,0,0-3.58-39.74c-1.67-9.54-4-19.09-3.66-28.77.1-3.42.67-7.13,3.17-9.45,1.85-1.71,4.43-2.36,6.91-2.84a94.29,94.29,0,0,1,30.4-.88c2.56.34,5.21.83,7.33,2.33,3.58,2.52,4.76,7.21,5.68,11.49,4.66,21.59,9.15,45,0,65.07-1.91,4.17-4.42,8.28-4.54,12.85-.15,5.53,3.22,10.54,7.08,14.5s8.35,7.38,11.43,12c5.92,8.85,5.55,20.33,5,31-.36,6.37-.75,12.91-3.45,18.69-1.89,4-4.83,7.54-6.5,11.67-5.43,13.41,3.83,28.8.58,42.89-1.87,8.15-7.9,14.95-15.19,19s-15.75,5.68-24.1,6c-9.42.35-19.9-1.42-25.78-8.79-5.63-7-5.35-17-4-26Z"></path>
    <path data-name="4d" data-official="" data-plain="Section of Ovary" data-loc="" d="M1289.28,2880.28c-20.17-13.91-30.24-41-24.09-64.68a43.65,43.65,0,0,1,5.82-13.47c6.51-9.66,17.52-15.38,24.93-24.37,3.73-4.53,6.5-9.84,10.55-14.09,8.44-8.86,21.2-12,33.33-13.65,6.14-.86,13.45-1,17.33,3.81s2.17,11.9,3.92,17.8c1.59,5.35,5.87,9.36,9.59,13.51a79.75,79.75,0,0,1,20.08,44.21,71.67,71.67,0,0,1-11.18,47.06c-5.27,7.92-12.25,14.78-16.09,23.49-1.25,2.83-2.15,5.83-3.77,8.46-3.46,5.65-9.74,8.95-16,11-14.18,4.59-29.55,4.1-44.28,1.76-3.84-.61-7.73-1.36-11.16-3.2s-6.39-4.91-7.18-8.72c-1.84-8.79,7.83-15.93,9-24.83Z"></path>
    <path data-name="4e" data-official="" data-plain="Fruit" data-loc="" d="M1437.77,2877c-8.62-3.39-15.61-10.18-20.53-18s-8-16.73-10.31-25.69c-3.14-11.93-5.17-24.66-1.73-36.5,1.67-5.78,4.58-11.1,7.47-16.38l10.08-18.39c3-5.47,6-11,10.22-15.6,5.56-6.11,12.9-10.33,20.45-13.69,6.62-2.95,13.59-5.35,20.82-5.91,20.1-1.55,39.22,11.74,49.41,29.13,2.84,4.85,5.13,10,8.47,14.55,3.9,5.28,9.13,9.49,12.79,14.93,5.83,8.64,7.2,19.58,6.61,30-.37,6.44-1.45,12.94-4.26,18.74-3.46,7.17-9.38,13-12.8,20.14-6.23,13.07-3.49,29.16-10.21,42s-21,19.27-34.85,23.25c-15,4.33-32.52,6.27-45-3.13a12.31,12.31,0,0,1-3.93-4.41c-1-2.1-1-4.51-.92-6.82q.14-9.06.33-18.13Z"></path>
    <path data-name="5" data-official="Blitum virgatum" data-plain="Strawberry Blite" data-loc="South Europe" d="M1351.11,2600.18c-.89-5,.41-10.2,1.71-15.16q1.53-5.85,3-11.71a105.18,105.18,0,0,1,5-15.57,9.32,9.32,0,0,1,1.82-3,20,20,0,0,1,3.1-2.09,10.27,10.27,0,0,0,2.86-2.83l7,3.26c25.82,18.7,43.82,45.94,63.54,71,8.08,10.26,17,21.43,16.79,34.49a11.6,11.6,0,0,1-1.79,6.71c-2.51,3.47-7.37,4.06-11.66,4.17a169,169,0,0,1-29.55-1.78c-7.62-1.14-15.58-3-21.21-8.26-4.77-4.45-7.25-10.74-10.21-16.55a94.18,94.18,0,0,0-22.5-28.58ZM722.42,2453.6l2.33-7.29c7.6-4,15.09-8.45,21-14.63,6.42-6.67,11.31-15.52,19.89-19,4.54-1.85,9.8-2,13.86-4.76q-.54,12.81.1,25.61c3-3.31,8.22-4.08,12.45-2.55s7.52,5,9.68,8.94l2.1,5.4,6.27,2.76c4.44,4.21,10.82,5.65,16.91,6.15s12.32.24,18.23,1.81,11.7,5.47,13.37,11.35c.89,3.13.53,6.46.17,9.69q-1.56,14-3.14,27.95c-1.44,12.9-2.86,26.21.92,38.63s14.14,23.79,27.09,24.51l10.22-3.75q12.4-23.34,26.37-45.81c7.68-12.35,16.15-24.91,28.69-32.29l9.1-5.89c3.55-1.19,7.29-2.52,9.63-5.44a46,46,0,0,0,2.87-4.79c4.72-7.69,14.39-10.6,21-16.69,3.78-3.46,6.52-7.89,9.2-12.26l1.86-.82c10.53-.75,20.62-4.8,29.6-10.34s17-12.55,24.72-19.7c4.81-4.43,9.75-9.27,11.45-15.57.74-2.73.84-5.65,2-8.23,1.09-2.43,3-4.36,4.74-6.38a47.91,47.91,0,0,0,11.3-30.69l1.58-1a57.11,57.11,0,0,1,7.86,7.69l13.86,15.41a16.93,16.93,0,0,1,3.56,5.11c.86,2.24.72,4.72.57,7.12l-.79,12.81-3.41,7.35,9.81,8c10.56,9.42,21.53,19.47,26,32.89,3.42,10.29,2.61,21.46,4.19,32.19s6.71,22.22,16.89,25.95c-8.79,1.07-17.85,1.36-26.4-1-7.69-2.11-14.7-6.28-22.39-8.38s-16.93-1.66-22.37,4.18c-5.28,5.67-5.48,14.75-10.76,20.43-6,6.41-15.92,6.23-24.67,6.6s-19.18,3.2-21.6,11.61c-.84,2.9-.54,6.11-1.82,8.84-3.8,8.09-17.81,6.35-21.7,14.39-2.19,4.53,0,10.13-1.67,14.87-2.39,6.75-10.85,8.47-17.36,11.46a32.85,32.85,0,0,0-18.63,26.37c-.39,4.33,0,8.9-1.87,12.8-3.8,7.69-14.48,8.8-20.52,14.89l-8.12,7A222.44,222.44,0,0,1,897.83,2668c-9.14,2.66-20.21,6.54-21.74,15.93-1,5.86,2.7,11.74,7.65,15s11,4.44,16.88,5.17a149.24,149.24,0,0,0,113.65-34.2c2-1.74,4.16-3.61,6.78-4.17,3.42-.74,6.85.88,10.31,1.45,12.13,2,22.13-8.6,32.46-15.27a12.37,12.37,0,0,1,6-2.38c2.18-.09,4.26.84,6.33,1.54a31.69,31.69,0,0,0,32.24-7.86c6.69-7,11.73-17.86,21.37-18,3.94-.06,7.61,1.86,11.44,2.8,9.35,2.29,19.51-1.64,26.29-8.47s10.54-16.18,12.37-25.64c1.56-8.13,1.91-16.76,5.94-24,5.52-9.91,16.61-15,26-21.34A94.25,94.25,0,0,0,1244,2511.7a435.13,435.13,0,0,0,47,37.82l3.38,5,8.44-5.42c4.47-7.07,6.94-15.19,9.37-23.19,1.21-4,2.43-8.06,2.52-12.24.16-6.58-2.49-13-2.47-19.55l-5.55-6.82q-21.67-11.79-42.54-25a48.31,48.31,0,0,0,1.25-22.85,101.3,101.3,0,0,0,26.15-.51c3.42-.52,7.23-1.51,8.88-4.54,2-3.76-.37-8.26-1-12.49-.94-6.41,2.53-12.82,7.4-17.09s11-6.79,17-9.24l8.26-5.19q2.38-29,2.56-58.17l2.32-10.55c4.51-11.84,3.27-25.06.78-37.48-1.46-7.3-3.34-14.5-5.21-21.71l-4.16-16c-.58-2.23-1.34-4.71-3.37-5.81-1.29-.71-2.84-.7-4.28-1a12.14,12.14,0,0,1-7.32-5.32l-10.82,6.51a15.93,15.93,0,0,1-11.69,5.37c-5.31,0-10.51-2.57-15.74-1.73-5,.79-9,4.63-11.34,9.08s-3.22,9.49-4.08,14.44l-2.66,15.31c-.85,4.85-1.92,10.13-5.71,13.28-5.34,4.46-13.58,2.74-19.78,5.89-2.56,1.3-4.68,3.4-7.35,4.47-7.25,2.91-15.29-2.63-23.06-1.8-3.82.41-7.28,2.33-10.89,3.62s-7.89,1.87-11.1-.23l-10.88,1.81c-7.16,7.89-14.33,15.81-20.4,24.56l-2.86,3.18c-1.4,0-2.43,1.27-3.23,2.42a76.51,76.51,0,0,0-9.25,18l-2.08-.36-27.5-27.93a3.51,3.51,0,0,1-1.38-2.63c.13-1.21,1.45-2.49.64-3.39a19.64,19.64,0,0,0,8.87-4.84l-8.9-1a9.34,9.34,0,0,0-4.85-7.24c-1.9-1-4.63-2.12-4.18-4.22a4.37,4.37,0,0,1,1.09-1.8,15.24,15.24,0,0,0,2.61-13.93l.42-6.57-6.4-6.81a47.08,47.08,0,0,1-15.83-11c-2.07-2.19-4-5-3.45-7.95a10.61,10.61,0,0,1,2-3.89c2.91-4.12,5.82-8.25,9-12.13,6-7.18,13.11-13.65,16.94-22.17,3.21-7.13,3.82-15.13,4.39-22.93,11.77.36,25,.18,33.27-8.2,1.43-1.46,2.88-3.24,4.91-3.45,1.56-.15,3,.68,4.43,1.39a34.06,34.06,0,0,0,19.6,3.4l5.7,5.17c12-11.11,20.75-25.9,34.62-34.57l7.53-4.52a31.57,31.57,0,0,1,4-3c9-5.27,20.7-.56,30.6-3.71l-5.95-7a11.29,11.29,0,0,1-2.8-4.59c-.9-4,2.51-7.5,5.6-10.15l-8.57-4.22-16.74-9.63c-6.14-3.53-12.38-7.11-19.25-8.82-5-1.24-10.14-1.47-15.1-2.72s-9.93-3.79-12.43-8.26c-.82-1.47-1.34-3.1-2.28-4.51-2.07-3.1-5.92-4.65-9.65-4.86s-7.42.75-11,1.69l-17,4.41c-4.52,1.17-9.41,2.33-13.74.58-2.43-1-4.43-2.81-6.69-4.14-9.68-5.67-22-1.53-32,3.48l-5.25,2.06c-5.63-3.61-11.4-7.28-17.92-8.73s-14-.24-18.52,4.72c-4.8,5.34-7.13,15.09-14.3,14.71-2.62-.14-4.87-1.8-7-3.32-11.91-8.41-27.49-14.16-41-8.67-5.19,2.1-9.67,5.72-14.91,7.67s-12.05,1.69-15.4-2.79c-3.95-5.28-.91-12.86,3-18.2,9.53-13.15,23.74-23.14,29.85-38.17,1.44-3.55,2.4-7.31,4.34-10.61,5.52-9.38,17.19-12.6,27.16-17s20.35-13.42,18-24.05c-.44-2-1.34-3.95-1.41-6-.24-7,9-10.73,15.77-8.84s12.14,7,18.61,9.77c8.28,3.53,17.8,2.92,26.51.64,9.18-2.41,18.32-7,23.43-15,3.29-5.14,4.66-11.34,4.77-17.45.44-23-17-44.15-38.75-51.87s-46.4-3.59-66.85,7c-6.89,3.58-13.79,8-21.54,8.28-4.25.17-8.53-.92-12.72-.21-13.54,2.27-20.69,21.78-34.38,20.61-4.4-.38-8.29-3-12.58-4.06-8.69-2.16-17.9,2.44-23.83,9.14s-9.28,15.23-12.76,23.47-7.39,16.63-14.06,22.59c-3.42,3.06-8,5.47-12.48,4.28-4.62-1.24-7.47-6.07-8.22-10.79s.09-9.53.25-14.31A50.76,50.76,0,0,0,832.46,1921l-6.85-1.19c-4.41,6.62-8.87,13.29-14.63,18.78a6,6,0,0,1-2.26,1.56c-2.2.69-4.52-1.08-6.81-.75-3,.43-4.31,4-5.23,7-1.8,5.71-5,11.46-10.45,14-3.78,1.73-8.1,1.65-12.25,1.52l-1,1.24a26.36,26.36,0,0,1-36.89,20.29,4.35,4.35,0,0,0-1.63-.5,3.56,3.56,0,0,0-2.24,1,15.71,15.71,0,0,0-5.31,8.24,29.66,29.66,0,0,1-1.23,4.69,7.82,7.82,0,0,1-7.62,4.5,2.73,2.73,0,0,0-1.45.08,2.56,2.56,0,0,0-.9.92,16,16,0,0,1-7.33,5.72l2,6a11.84,11.84,0,0,0,8.42,4.41,35,35,0,0,0,9.73-.74l6.48.48a10.63,10.63,0,0,1,2.69-1.3c1.67-.75,3-2,4.66-2.9a47.46,47.46,0,0,1,4.93-1.92c3.52-1.41,6.51-3.87,9.82-5.71,3.68-2,7.79-3.35,11.25-5.76s6.31-6.41,5.65-10.58a126.63,126.63,0,0,1,5.56,22.86c.67,4.59,1.09,9.3.2,13.86s-3.26,9-7.16,11.52c-1.06.68-2.21,1.22-3.23,2a34.11,34.11,0,0,0-3.33,3.15,21.93,21.93,0,0,1-9.46,5.34,43.7,43.7,0,0,1-9.76,1.07l-8.59.3-4-4.94-10.12-1.13c-11.57.14-21.27,8.65-28.65,17.56-3.59,4.34-7,9.11-8,14.64s1.05,12,6.08,14.52c6.22,3.1,14.68-.53,20.17,3.72a2.65,2.65,0,0,1,1.26,2.11,2.89,2.89,0,0,1-.76,1.53c-2.59,3.19-6.18,5.39-9.18,8.2s-5.52,6.72-4.88,10.78c.31,2,1.34,3.77,1.58,5.74a7.72,7.72,0,0,1-6.06,8.25l-6.94,6.51c-4.13,4.1-8.29,8.25-11.3,13.23s-4.8,10.92-3.73,16.63c.82,4.37,3.25,8.4,3.47,12.84.26,5.44-2.8,10.38-4.75,15.46-2.58,6.69-3.27,13.92-3.81,21.07-1.15,15.43-1.66,31,.51,46.32s7.1,30.46,16.07,43.07c5.16,7.25,12,13.83,20.65,16,3.44.87,7.3.95,10.35-.87,4.43-2.63,5.86-8.25,6.9-13.3V2300l.76-14.45a202.71,202.71,0,0,0,1.26-48.23,17.17,17.17,0,0,1,0-5.45,5.52,5.52,0,0,1,3.26-4.11c3.09-1.07,6.11,1.77,7.82,4.56,1.15,1.89,2.55,4.16,4.76,4.19s3.8-2.41,4.57-4.6c5.46-15.59-.37-33.14,3.59-49.18.76-3.09,2.75-6.69,5.92-6.44,2.77.23,4.3,3.28,5.07,6s1.6,5.79,4.14,6.9c2.86,1.25,6.28-1.06,7.32-4s.36-6.19-.45-9.2-1.75-6.13-1.2-9.21a10,10,0,0,1,8.14-7.94c4.61-.7,9.2,2.05,12,5.77s4.19,8.3,5.51,12.77l8,3.23c3.39-1.37,7.33.16,10.1,2.55s4.75,5.55,7.24,8.22c5.68,6.11,13.66,9.41,21.16,13.06,3.19,1.55,6.5,3.34,8.33,6.38,4.28,7.07-1.52,16.27.22,24.35,1.12,5.21,5.23,9.22,9.42,12.52,6,4.71,12.94,8.82,20.55,9.06,2.75.09,5.52-.33,8.25.05s5.56,1.8,6.56,4.37c1.37,3.52-1.14,7.21-2.72,10.65a22.57,22.57,0,0,0,.83,20.05c2,3.61,5.06,8.07,2.52,11.33-1,1.28-2.66,1.89-3.79,3.06-3.86,4-.11,11.88-4.24,15.55a9.48,9.48,0,0,1-3.76,1.75c-5.54,1.56-11.57,2.44-16,6.15-2.29,1.94-4.09,4.61-6.9,5.64a11.3,11.3,0,0,1-5,.41c-6.9-.66-13.38-3.68-20.25-4.62s-15,1-18,7.26a3.69,3.69,0,0,1-1.06,1.58,3.14,3.14,0,0,1-2.21.25l-18.36-2.31-8,2.83-3,4.45a8.09,8.09,0,0,0-5.26,6.19c-.82,4.95,3,10.51.28,14.74a8.44,8.44,0,0,1-5.42,3.27c-2.12.47-4.32.51-6.44,1a28.35,28.35,0,0,0-6.56,2.5,88.92,88.92,0,0,0-21.1,14.59c-3.68,3.42-7.1,7.18-11.23,10.05a3.11,3.11,0,0,1-1.44.66,3.33,3.33,0,0,1-1.28-.26L721.8,2396l-2.49-5.16-7.94,5a95.34,95.34,0,0,0-25.25,35.39l-5.57,3.19c.94,9.34,5.65,17.83,10.56,25.83,1.07,1.73,2.22,3.53,4,4.52ZM498.84,1578l11.15,2.3c1.27.26,2.67.6,3.39,1.68a5,5,0,0,1,.51,3c-.43,8.56-1.49,17.67,2.55,25.23s12.61,12.63,13.59,21c.89,7.75-5.15,14.34-8.27,21.48-3.66,8.38-3.29,17.9-2.68,27a14.12,14.12,0,0,0,1.36,6.08c1.22,2.11,3.44,3.44,5.67,4.45a35.32,35.32,0,0,0,17.62,2.94l5.48.14c4.12-6.84,10.86-12.21,17.72-16.55l4.11-4.76,12.45-9.33c5.54-4.15,11.33-8.62,13.93-15a9.51,9.51,0,0,1,1.93-3.57c2-1.82,5.1-1.07,7.62-.15s5.56,1.81,7.67.17c2.51-1.94,1.78-5.89.52-8.8s-2.79-6.33-1.21-9.08a8.31,8.31,0,0,1,2.59-2.52,39.7,39.7,0,0,1,16.57-6.68c1.9-.3,3.83-.46,5.7-.94a17,17,0,0,0,10.46-8.09c1.59-2.84,2.33-6.1,3.91-8.95a34.45,34.45,0,0,1,6.5-7.72l11.39-11.09,5.3-4.19a39.9,39.9,0,0,1,9-3.89l2.59-5.32c2.16-2.69.78-7-2-9.07s-6.37-2.51-9.81-2.81c-10.75-.93-22.07-1.06-31.71,3.76-2.42,1.2-4.71,2.71-7.29,3.51-4.19,1.3-8.7.61-13.08.62-6.4,0-12.69,1.58-18.88,3.2a8.06,8.06,0,0,1-4,.35c-2.27-.59-3.53-3-4.5-5.09q-4-8.82-7.59-17.82c-.65-1.62-1.28-3.47-.54-5,1-2,3.67-2.47,5.94-2.46,12.34.07,24.19,5,36.51,5.7a15.34,15.34,0,0,0,6.84-.81,6.47,6.47,0,0,0,4.12-5.16c.22-3.17-2.5-6.79-.41-9.18a5.35,5.35,0,0,1,3.08-1.42c5.71-1.13,11.68-.42,17.36-1.67s11.49-5.47,11.56-11.29a11.79,11.79,0,0,0-2.13-6.48c-4.93-7.57-14.59-10.33-23.5-11.79a169.06,169.06,0,0,0-16.94-1.88c-3.47-.2-7.33-.47-9.71-3s-2.79-6.78-5.9-8.23c-1.9-.88-4.12-.34-6.15.17-4.68,1.17-9.54,2.09-14.33,1.42s-9.53-3.15-11.87-7.38l-9.84-2c-7,2.18-14.18,4.42-20.16,8.71a58.49,58.49,0,0,0-5.79,4.89,211.17,211.17,0,0,0-30.16,35l-2.16,6a90.5,90.5,0,0,0-21.16,35.23Zm-45.5-289.28c1.29,3.24-.95,6.86-3.67,9s-6.06,3.65-8.28,6.35c-4.28,5.22-2.94,12.89-1.36,19.46.58,2.46,1.22,5,2.82,7,4.13,5,12,3.74,18.31,2l18.72-5.28c4-1.11,8.95-1.93,11.55,1.26,2.18,2.69,1.24,6.76-.56,9.73s-4.33,5.56-5.32,8.89c-.92,3-.41,6.31-.26,9.49.71,15.17-6.92,30.24-4,45.13,1.19,6,4.12,12,3.32,18.08-1.12,8.5-8.87,14.28-13.79,21.3a35.34,35.34,0,0,0-6.1,23.92c.42,3.69,1.61,7.6,4.62,9.77,3.41,2.46,8.08,2,12.17,1a66.72,66.72,0,0,0,21.62-9.45c3.41-2.28,6.81-5,10.88-5.48s8.89,2.38,8.59,6.47l-1.3,5.61a12.36,12.36,0,0,1,6.61,0,5.17,5.17,0,0,0,2.41.34,4.34,4.34,0,0,0,1.51-.81q7.32-5.34,14.45-10.93l2.66-4.4,2.11-5.17,3.84-5.21c18.13-8,37-14.06,55.92-20l-4.58-6.89c-1.19-7.4-8.39-12.21-15.29-15.11s-14.58-5.11-19.46-10.8c-7.22-8.43-6.55-22.63-15.81-28.76-3.09-2-6.83-2.8-10.13-4.47s-6.37-4.87-6-8.54c.55-5,6.55-7,11.37-8.46,8.73-2.57,18-8.09,19.29-17.1.27-1.92.14-3.89.47-5.79.56-3.18,2.38-6,4-8.77,5.46-9.46,9.07-20.4,7.77-31.25s-8.31-21.39-18.71-24.73c-7.53-2.41-16.44-1.14-22.74-5.91s-7.5-14.07-11.67-21a25.3,25.3,0,0,0-41.67-2.52c-5.48,7-7.88,17.49-16.24,20.61-4.76,1.78-10.26.53-15,2.38-5.09,2-8.3,7.37-8.94,12.8s.92,10.9,3.06,15.93Z"></path>
    <path data-name="6a" data-official="" data-plain="Flower of Salsola Kali" data-loc="" d="M1576.45,2845.29c1.53-24.64.09-49.64-6.6-73.4s-18.81-46.27-36.66-63.32c-5.61-5.35-11.88-10.31-15.61-17.11s-4.14-16.23,1.51-21.55c6.74-6.34,17.66-3.7,26.17,0s18.28,8,26.56,3.81c9.77-4.89,11-18,11.77-28.9a222.88,222.88,0,0,1,10.3-53.23c1.34-4.14,2.93-8.44,6.2-11.3s8.75-3.68,11.84-.62c1.73,1.72,2.37,4.21,2.94,6.57l11.91,49.4c2.06,8.54,4.18,17.25,8.79,24.73s12.2,13.67,21,14.31c6.84.5,13.43-2.36,20.21-3.41s15,.53,17.93,6.74-1,13.29-4.88,18.93c-17.18,25-37.13,50.15-40.78,80.27-1.58,13,0,26.23.24,39.36s-1.28,26.85-8.3,38c-1.45,2.29-3.2,4.69-3,7.4.24,4.27,4.77,6.7,7.81,9.71,8.58,8.5,4.84,24.2-4.6,31.72s-22.31,8.88-34.38,9.08c-5.43.08-11,0-16.08-1.9s-9.72-5.84-11-11.11c-1.21-4.93.6-10,1.92-14.92a80.23,80.23,0,0,0,2.24-30Z"></path>
    <path data-name="6b" data-official="" data-plain="Spiral embryo" data-loc="" d="M1678.88,2870.84c-6.94-8.19-14-16.64-17.42-26.82-3.45-10.35-2.77-21.6-1.17-32.39a62.16,62.16,0,0,1,3.46-14.2c5-12.23,16.62-21.09,29.44-24.24s26.56-1,38.64,4.31c8.79,3.88,17.06,9.64,22.1,17.83,3.23,5.25,5,11.26,6.3,17.29,2.93,13.48,3.56,28.26-3,40.42-2.81,5.22-6.87,9.81-8.7,15.45-3.58,11,1.66,24.87-5.92,33.65-3,3.53-7.6,5.35-12,6.75a106.93,106.93,0,0,1-43.17,4.32,10.93,10.93,0,0,1-4.38-1.13,8.51,8.51,0,0,1-3.29-4c-3.43-7.7-.34-16.62,3-24.34Z"></path>
    <path data-name="7a" data-official="" data-plain="Spike of Salicornia herbacea" data-loc="" d="M1810.16,2876.69c1.73-5.63,3.4-12,.47-17.13-1.91-3.32-5.41-5.37-7.92-8.26-4.28-4.9-5.38-11.76-6-18.24a220.49,220.49,0,0,1-1.08-23.27c.1-15.61,1.84-31.36-.81-46.74-1.1-6.42-3-12.68-4-19.11-2-12.77-.74-25.81.56-38.68.82-8.08,2-17,8.23-22.25,6.67-5.68,16.45-4.94,25.21-4.72a138,138,0,0,0,23.6-1.4c7.31-1.06,15.06-2.66,21.85.23,7.55,3.22,11.88,11.14,14.87,18.77,3.09,7.88,5.41,16.35,4.37,24.75-.66,5.35-2.64,10.43-4,15.64-3.53,13.19-3.13,27.55,2,40.21,1.93,4.76,4.5,9.26,6,14.17,5.89,19.27-5.64,39.25-7.24,59.33-.56,6.93.08,13.93-.61,20.85s-3,14.07-8.2,18.66c-3.32,2.92-7.56,4.57-11.79,5.84a90.59,90.59,0,0,1-33,3.58c-8.55-.66-18.6-4-20.58-12.35Z"></path>
    <path data-name="7b" data-official="" data-plain="Fower, magnified" data-loc="" d="M1923.24,2843.57c-11.2-18.88-10.47-42.82-20.54-62.33-2.28-4.41-5.09-8.55-7-13.14-5.16-12.66-2.47-27.61,4.74-39.22,2.5-4.05,6-8.06,10.72-8.7,3.26-.44,6.48.82,9.61,1.83,13.19,4.24,27.31,4.24,41.17,4.2,8.57,0,17.41-.1,25.3-3.45,8.41-3.57,15.35-10.7,24.36-12.2,6.53-1.08,13.31,1.08,18.77,4.83s9.74,9,13.43,14.48c5.11,7.59,9.39,16.74,7.29,25.64-1.56,6.64-6.39,11.95-9.37,18.08-6.75,13.89-3.53,30.64-8.19,45.36-3.31,10.45-10.38,19.24-17.72,27.37-2,2.26-4.17,4.58-5.16,7.46-1.13,3.25-.67,6.8-.87,10.24-.45,7.63-4.17,14.63-7.83,21.33-3,5.52-6.36,11.32-11.91,14.28-4.94,2.64-10.84,2.59-16.45,2.36q-13.45-.55-26.87-1.93c-2.76-.29-5.7-.67-7.8-2.49-3.15-2.72-3.23-7.47-3.17-11.63.15-11.28-1.4-24.22-10.67-30.65Z"></path>
</svg>
