
<svg xmlns="http://www.w3.org/2000/svg" viewBox="0 0 1951 2661" id="illustration" preserveAspectRatio="xMidYMid meet">
    <title>Polygonaceæ</title>
    <path data-name="1" data-official="Polygonum Persicaria" data-plain="Spotted Persicaria" data-loc="England" d="M595.92,1533.36c7.46-10.46,6.09-24.87,1.94-37s-10.73-23.57-13-36.21c-2.71-15.13,1-31.06-3.15-45.87-2.41-8.71-7.37-16.45-12.21-24.08q-25.23-39.78-48.62-80.68c-5.15-9-10.26-18.11-14.31-27.68-3.36-8-6-16.22-8.92-24.35-11-30.42-26.32-59-41.6-87.54-3.21-6-6.48-12-11.2-16.91-9.1-9.38-22.33-13.16-34.18-18.68s-23.83-14.83-24.95-27.85l-4.31-9.45a1171,1171,0,0,0-67.3-100.91c-8.19-11-16.76-22-28-29.87a67.49,67.49,0,0,0-23-10.24c-5.72-1.35-11.77-2-16.8-5.06s-8.65-9.54-6.16-14.86c1.67-3.56,5.5-5.54,9.19-6.91a62.6,62.6,0,0,1,37.37-1.85c12.95,3.39,24.5,10.87,37.37,14.56,6,1.71,12.16,2.58,18.08,4.43a115,115,0,0,1,14.75,6.14L382,964.32a33.29,33.29,0,0,1,6.08,3.42A34.51,34.51,0,0,1,394,974.1a403.79,403.79,0,0,0,40.55,44.37c6.24,5.88,12.68,11.57,18.41,18a112.34,112.34,0,0,1,15.18,21.49c3.07,2,7.44.52,9.79-2.3s3.19-6.56,4-10.15c1.93-9,3.87-18.15,3.85-27.39s-2.16-18.73-7.68-26.14l-2.41-7.33L464.3,953.37c-1.66-4.57-3.33-9.28-3.15-14.13.21-5.63,2.9-10.83,5.53-15.82l12.39-23.52c2.7-5.13,5.44-10.37,6.42-16.09.88-5.18.27-10.49.76-15.72,1.14-12.14,8.12-23.11,9.42-35.23.92-8.63-1.09-17.27-1.55-25.93-.67-12.51,2-25.32,8.57-36s17-19.11,29.13-22.26c4.34-1.13,9.24-1.52,13.06.84,6,3.68,6.6,12,6.56,19l2.06,7.56a69.3,69.3,0,0,0,2.38,28.74c2,6.5,4.88,12.68,6.84,19.18,4.35,14.46,3.85,29.89,6.31,44.79,1.41,8.5,3.78,16.82,5.18,25.32,5.53,33.55-5,69.17-27.11,95-6.67,7.81-14.44,15-18.89,24.21-3.23,6.72-4.52,14.18-5.78,21.53-2.4,14-4.76,28.79-.12,42.26,3,8.72,8.92,17.12,7.58,26.24l-.94,9.49a67,67,0,0,1-11.7,31.31c-4.53,6.45-10.38,12.47-11.83,20.21-1.55,8.23,2.22,16.42,5.92,23.92Q560,1286.87,615.57,1381.8c4.63,7.9,9.29,15.77,14.16,23.51l4.29-59.69c.7-9.8,1.25-20.29-3.74-28.75-3.09-5.24-8-9.12-11.79-13.88-7.15-9-9.9-20.63-12.47-31.84-4.32-18.93-8.67-38-9.28-57.4-.36-11.27.54-22.53,1.45-33.77l4-49.39c.4-4.94.82-10,2.85-14.51,5.23-11.62,20.32-16.4,32.59-13s21.85,13.18,28.69,23.93A98.27,98.27,0,0,1,679,1157.27c4.23,18.06,3.27,37,6.65,55.21,2.35,12.74,6.8,25,9.42,37.7s3.29,26.29-1.73,38.23c-3.17,7.55-8.44,14-12,21.41-3,6.23-4.67,13-6.12,19.72a330.73,330.73,0,0,0-6.28,42c7.4-11,12.87-23.14,20-34.31s16.26-21.66,28.43-26.86c6.1-2.6,12.79-3.8,18.61-7,10.61-5.78,16.73-17.06,23.67-27s16.82-19.61,28.9-19.27l6.72,4.44a100.76,100.76,0,0,0,35.8-7.9c8.06-3.41,15.86-7.93,24.55-9,9.18-1.1,18.3,1.79,27.34,3.73a133.8,133.8,0,0,0,48.86,1.31c5.35-.84,10.67-2,16.09-2.36,9.41-.59,18.77,1.37,28.18,2a76.83,76.83,0,0,0,26.88-2.64c4.48-1.33,8.83-3.17,13.43-3.94,10.79-1.8,21.57,2.42,31.7,6.56l.39-.53c5.57-3.78,13-2.74,19.57-1.35a340.63,340.63,0,0,1,37.79,10.25c4.4,1.47,8.89,3,13.53,3a55.2,55.2,0,0,1,6.29-.24c4.47.41,8.24,3.35,12.06,5.71a52.41,52.41,0,0,0,16.1,6.53,31,31,0,0,1,5.46,1.46,24.13,24.13,0,0,1,4.58,2.78l21.69,15.51.35,1.32c-17.77,7.38-36.14,14.88-55.39,14.77-6.89,0-14.19-1-20.34,2.12-6.82,3.45-10.41,10.95-15.73,16.43a32.74,32.74,0,0,1-14.48,8.65c-4.62,1.31-9.46,1.58-14.18,2.45-13.56,2.52-26.1,10-39.88,10.51-10.45.38-20.57-3.3-30.84-5.26s-21.93-1.84-29.92,4.91c-2.38,2-4.3,4.51-6.64,6.55-8.8,7.67-21.94,7.7-33.32,5.14l-.74,0c-4.69,4-11.19,5.15-17.36,5.51a97,97,0,0,1-32-3.45c-5.12-1.44-10.36-3.32-15.61-2.49-4.11.65-7.76,2.89-11.45,4.83-8.62,4.54-18.31,7.62-28,6.85-6.06-.49-12-2.45-18.06-2.37s-12.81,3-14.59,8.82l-5.66,7.51c-4.26,5.23-10.69,8.11-16.87,10.81l-14.6,6.38a51.83,51.83,0,0,1-10.52,3.71c-4.07.8-8.26.61-12.39.9a53,53,0,0,0-13.91,2.9,23,23,0,0,0-8,4.39,42,42,0,0,0-4.63,5.56A49,49,0,0,1,690.06,1430l-6.56,6.34q-19.79,35.24-36,72.33c-6.78,15.55-13.13,31.54-15.1,48.38-.77,6.67-.86,13.41-1.86,20.05a144,144,0,0,1-4.22,17.69l-15.74,55.67-1.86,7.07c-4,13.87-9.93,27.82-20.84,37.27a23.26,23.26,0,0,1-9.09,5.25,30.48,30.48,0,0,1-8.49.57l2.91-9.49q6.24-74.21,18.9-147.68ZM591,1773l-4.13-3a19.13,19.13,0,0,1-2.93-2.45,37.81,37.81,0,0,1-2.29-3.15,18.06,18.06,0,0,0-4.67-4.43,9.08,9.08,0,0,0-3.89-1.56c-3.76-.42-7.08,2.63-10.85,2.9l-6.56.06a68.3,68.3,0,0,1-16.76-1.17c-3.41-.67-7.19-1.94-8.64-5.1a10.24,10.24,0,0,1-.72-4.15c-.18-9.27,3-18.25,6.63-26.8l.18-7.69c-2.42-17.52,3.68-35.37,1.41-52.92-1.17-9-4.51-17.63-7.2-26.34-8-25.8-10.42-53.71-23.88-77.1-4.19-7.3-9.4-14-12.81-21.72-4.89-11-5.8-23.37-6.63-35.41l-4.74-68c-.59-8.49-2.63-18.89-10.78-21.32-5.26-1.56-11,1.29-14.48,5.57s-5,9.7-6.47,15a494.36,494.36,0,0,0-16.87,132.67c-17.46-7.91-26-28.08-41.86-38.84-5-3.39-10.63-5.76-16.14-8.25-18.59-8.4-36.41-18.41-54.19-28.4-3.91-2.2-8-4.52-10.53-8.21s-3.38-8.63-4.29-13.2c-3.67-18.52-12.47-37.13-28.49-47.12s-40.11-8.13-50.66,7.53c-8.23,12.21-6.41,28.37-3.73,42.85a592.1,592.1,0,0,0,20.17,78.43c3.79,11.44,9.36,24.19,20.86,27.74,6.62,2.05,13.72.48,20.63,0s14.8.68,18.84,6.31c6.52,9.09-.95,24,6.81,32,5.49,5.7,14.79,4,22.55,5.51,15,2.94,27.47,19.08,42.18,15,4.43-1.23,8.42-4.29,13-4.27a17.92,17.92,0,0,1,7.7,2.31,83.81,83.81,0,0,1,43.51,54L441,1701a646.86,646.86,0,0,0,36.92,77.11l-23-8.66c-7-2.62-14-5.26-20.23-9.23-6.42-4.07-11.91-9.42-17.29-14.78-16.44-16.36-34-34.07-56.84-38.09-20.49-3.61-41.52,4.63-62.17,2.06-8.2-1-16.23-3.74-24.49-3.56-11.54.25-22.09,6.08-33,10-18.07,6.47-37.51,7.69-56.45,10.81s-38.38,8.66-52.33,21.85c-5.41,5.11-9.85,11.26-15.72,15.84-5.2,4.05-11.33,6.72-16.91,10.23a65.87,65.87,0,0,0-29,41.51c-.74,3.43-1.16,7.14.31,10.33,2.68,5.85,10.69,7.35,16.79,5.3s11-6.61,16.26-10.26a62.65,62.65,0,0,1,49.58-9.21c7.93,1.91,15.4,5.36,22.8,8.8L281.76,1870c19.25,8.93,39.13,18,60.33,19,25,1.12,49.08-9.2,74-11.18,13.85-1.1,28,.36,41.48-3,6.52-1.64,12.87-4.4,19.6-4.58,8.07-.21,15.72,3.32,23,6.9,15.88,7.83,31.83,16.49,43.63,29.69s18.84,31.91,13.94,48.93l-1.45,8a773.48,773.48,0,0,0,36.56,113.16c-14.05,3.13-20.83,20.57-17.59,34.59s13.48,25.2,23.34,35.7l65,69.25c-28.59.53-56.8-18.09-84.3-10.27-6.71,1.9-13,5.33-19.84,6.54-8.19,1.45-16.57-.36-24.68-2.16l-44.17-9.79c-11.64-2.59-23.48-5.18-35.37-4.32A62.56,62.56,0,0,0,407,2226.1c-3,5.08-5.41,11-4.29,16.85,2.87,14.85,23,16.66,38.14,16.15a274.1,274.1,0,0,1,91.76,12.59c-7.55,4.44-8.28,15.92-3.43,23.21s13.48,11.1,21.92,13.42c67.91,18.71,136.8-35.08,207-28.7-10,5.87-5.64,23,4.82,28.07s22.84,2.26,34.16-.43,24-4.94,34,1.11c10.42,6.34,14,19.38,19.32,30.38,14.84,30.85,48.31,50.18,82.37,53.56s68.35-7.46,98-24.51l11.2-9.15,21-29.63c2.41-3.41,5-6.95,8.66-8.87,7.15-3.72,15.79-.29,23,3.36s15.36,7.63,22.92,4.87l11.3-1.54c11.32-3.67,22.83,3.74,33.75,8.49,16.84,7.33,35.83,8.53,54.07,6.41s36-7.41,53.54-12.67c5.34-1.6,10.8-3.26,15.22-6.65s7.64-8.91,6.7-14.4l.13-9c-10.9-10.83-14.68-27.16-25-38.49-4.28-4.69-9.86-8.84-11.26-15-.6-2.65-.35-5.42-.76-8.11s-1.75-5.52-4.29-6.49c-.74-.29-1.55-.39-2.28-.72a7.35,7.35,0,0,1-2.66-2.51,41.82,41.82,0,0,1-7.26-16.68,7.1,7.1,0,0,0-.69-2.31,7.33,7.33,0,0,0-3.17-2.42,44.87,44.87,0,0,1-18.43-17.92c-2.66-4.79-4.46-10.11-7.89-14.38-4.23-5.27-10.56-8.45-17-10.51l-14.84-1c-15.83-4.75-34.55,5.12-39.58,20.86-2.53,7.95-2.41,17.65-8.91,22.88-2.74,2.2-6.23,3.18-9.63,4.09q-15.32,4.07-30.78,7.46c-5.85,1.29-12,2.49-17.74.76-7.67-2.33-12.8-9.32-18.8-14.65-17-15.08-41.55-17.09-64.23-18.36l-33-1.84c-10.49-.59-21.22-1.15-31.3,1.81s-19.54,10.19-22.23,20.35c-1.58,6-1.28,13.41-6.44,16.81-2.57,1.7-5.85,1.81-8.94,1.73-33.7-.87-64.75-17.41-94.33-33.59l-31.17-17.06c-11.64-6.37-23.58-13-32-23.26-6.25-7.61-10.21-16.81-13.64-26a306.82,306.82,0,0,1-16.49-66.11l1.89-4.64c1-2.6,1.89-5.6.52-8a6.2,6.2,0,0,0-5.53-2.81,13.8,13.8,0,0,0-6.17,1.92c-4.46,2.39-8.36,5.68-12.22,8.94-4.45,3.76-9,7.65-11.72,12.81a34.81,34.81,0,0,0-2.47,6.41,75.45,75.45,0,0,0-2.8,15.06,29.35,29.35,0,0,1-2.8-10.71l-7.11-10q-16.47-54.51-29.91-109.88c-3.1-12.74-6.08-25.57-7.34-38.62-1.16-12-.85-24.16-1.15-36.24a361.69,361.69,0,0,0-14-91.1Z"></path>
    <path data-name="1a" data-official="" data-plain="Flower" data-loc="" d="M835.9,2597.89a44.91,44.91,0,0,1,3.85-25.56c2-4.12,4.57-8,5.64-12.42a38.3,38.3,0,0,0,.65-9.69c-.16-8.91-.36-18-3.67-26.32-2.57-6.41-6.92-12.09-8.73-18.75a45.7,45.7,0,0,1-1.26-10,34.25,34.25,0,0,1,.69-10.26c1.48-5.63,5.52-10.34,10.37-13.55s10.48-5.05,16.14-6.37a102.24,102.24,0,0,1,30.3-2.4,30.41,30.41,0,0,1,10.19,2.08c4.83,2.14,8.45,6.3,11.54,10.58,5.64,7.82,10.22,17.39,8.26,26.82-1,5.07-3.9,9.56-6.64,13.95-4.68,7.51-9.25,15.19-12.06,23.58s-3.79,17.63-1.19,26.1c1.13,3.71,2.92,7.19,4.09,10.89a34.4,34.4,0,0,1,1.26,15.25,10.5,10.5,0,0,1-1.88,5.21,11.61,11.61,0,0,1-3.74,2.74,75.89,75.89,0,0,1-58.6,4.85Z"></path>
    <path data-name="1b" data-official="" data-plain="Seed" data-loc="" d="M931.38,2586.13c4.08-5.15,4.94-12.19,4.42-18.74s-2.26-13-2.74-19.52a51.32,51.32,0,0,1,.52-11.94c1-6.47,3.52-13,8.39-17.36a32.53,32.53,0,0,1,8.59-5.2c7.21-3.22,15.78-5.31,22.83-1.74,5.63,2.84,9.1,8.82,10.63,14.94s1.39,12.5,1.62,18.8.89,12.77,3.81,18.36c1.24,2.38,2.87,4.54,4.08,6.93a22.71,22.71,0,0,1-12,31.39c-4.69,1.83-9.83,2-14.86,2.12-9.08.12-18.17-.18-27.22-.91-2.71-.21-5.5-.49-7.88-1.79s-4.29-3.88-3.94-6.57Z"></path>
    <path data-name="1c" data-official="" data-plain="Section of Seed" data-loc="" d="M1030.46,2595.3l4.69-10.62c1.87-4.21,3.76-8.55,3.91-13.15.22-6.92-3.54-13.36-8-18.67s-9.72-10-13.5-15.76a38.52,38.52,0,0,1-4.28-32.37,28,28,0,0,1,6.57-11.27,33,33,0,0,1,12-7.18c13.81-5.23,29-5.6,43.71-4.92,6,.28,12,.73,17.66,2.69s10.93,5.58,13.72,10.87c2.13,4,2.67,8.66,3,13.2s.33,9,.16,13.47c-.16,4.3-.55,8.69-2.37,12.59-2,4.34-5.67,7.7-9.32,10.81s-7.47,6.17-10.09,10.19-3.84,9.3-1.85,13.67c1,2.29,2.87,4.12,4.36,6.16,4.38,6,5.62,14.55,2,21a22.42,22.42,0,0,1-9.37,8.51c-9.82,5.11-21.43,5-32.5,4.84-6.4-.11-13.41-.45-18.15-4.75Z"></path>
    <path data-name="2" data-official="Polygonum orientale" data-plain="Eastern Persicaria" data-loc="East Indies" d="M1820.35,1483.37c-2.58-3.78-6.91-5.9-11-7.87l-7.7-3.65a47.32,47.32,0,0,0-7.8-3.15,23.62,23.62,0,0,0-9.43-.57l-.42-.49c8.73-11.43,8.91-27.33,5.73-41.36-2.48-10.92-7.78-22.51-18.18-26.67l4.66-2.3c9.53-1.54,19.11-1.77,28.71-2.69,5-.48,10.08-.87,15-.12,5.49.83,10.66,3,15.77,5.18,6.32,2.68,12.68,5.38,18.41,9.15,7,4.63,12.89,10.74,18.69,16.82,8.53,8.95,17.29,18.37,21,30.17,1.26,4.06,1.89,8.31,3.46,12.26,1.72,4.31,4.49,8.12,6.55,12.28,4.33,8.75,5.37,18.73,5.87,28.47.42,8.11.47,16.43-2.21,24.09-3.19,9.08-10.15,16.59-18.53,21.32s-18.09,6.79-27.71,6.86c-1.68,0-3.51-.08-4.78-1.18-1.45-1.27-1.68-3.41-1.69-5.34,0-8.92,2.71-17.68,2.7-26.6,0-18.52-13.19-36.28-30.9-41.71ZM1295,2330c6.76,2.69,9.33,11.31,8.06,18.47s-5.34,13.46-8.31,20.1-4.81,14.53-1.58,21.05a15.51,15.51,0,0,0,14,8.41c6.69-.21,13.57-4.77,19.64-1.95,2.86,1.33,4.87,4.1,7.77,5.32,6.35,2.67,12.93-3,17.3-8.34,7.65-9.36,14.7-19.4,19.1-30.66s6-23.9,2.67-35.53c-1.69-5.9-4.58-11.38-7.51-16.78A914.56,914.56,0,0,0,1254.89,2149l-2.4-15.55L1237,2083c-2.4-7.82-4.77-16.47-1.47-24,2.28-5.17,6.9-8.87,10.35-13.35a34.27,34.27,0,0,0,5.68-29.83,13.8,13.8,0,0,0-3.79-6.79,15.61,15.61,0,0,0-6.58-2.95,79.7,79.7,0,0,0-20.16-2.49c-1.59,0-3.34,0-4.55-1s-1.45-2.47-1.73-3.89a800.53,800.53,0,0,1-14.94-160.28l1.74-10.16-3.75-86.54c-.42-9.63-.81-19.48,1.92-28.73l-7.2-16.31a132.3,132.3,0,0,1,35.86-81.61,84.35,84.35,0,0,0-19.48,14.46,168.26,168.26,0,0,1,53.19-61.84c13.72-9.67,28.8-17.21,43.81-24.71a69.37,69.37,0,0,1,11.69-5c5.89-1.69,12.1-3.79,18.2-4.33,60.06-5.32,112.12-51.45,172.31-48,31.3,1.77,61.57,17.64,92.62,13.37l.82-1.88a12,12,0,0,1,7.63-7.5l.76-1.79c-6.07-3.62-10.39-9.7-12.93-16.29s-3.4-13.7-3.74-20.75c-.29-6.13.09-13,4.52-17.24-6.36-.92-11.24-5.92-15.61-10.64-3.94-4.27-8-8.68-10-14.13-1.77-4.77-1.85-10-1.7-15.06a183.48,183.48,0,0,1,1.44-18.43l-3.16.32c-5.73.89-11.53,1.81-16.89,4.06-8.38,3.53-15.46,10.23-24.39,12a13.32,13.32,0,0,1-5.55.08c-1.93-.44-3.67-1.49-5.57-2.07a12.07,12.07,0,0,0-11.36,2.53l-.75-.54c-14.9-2.7-30.83-3.74-44.68,2.4-7.32,3.25-13.73,8.37-21.17,11.34-9.66,3.84-20.38,3.8-30.54,6-18.17,3.91-35,15.84-42.49,32.85-4.44,10.1-5.49,21.34-8.69,31.9a82,82,0,0,1-45.14,50.68l3.71,1.29a266.92,266.92,0,0,0-101.69,63.19v-1.12c3.55-6.21,6.94-12.52,10-19a193.09,193.09,0,0,0,11.25-30.66c10.51-38.45,8.87-79.23,3.42-118.72l.13-2.15c-1.57-.32-2.66-1.69-3.8-2.81a15.65,15.65,0,0,0-10.24-4.39l-1.4.61c4,10.4,4.94,21.73,5.32,32.88,1.82,54-7.52,108.72-30.7,157.48-6,12.66-13,25-17,38.37l2.13-38.91a283.44,283.44,0,0,1-17.63,46.45,269.42,269.42,0,0,0-14.66-66.22,62,62,0,0,0,1.35,13.31,57.12,57.12,0,0,0-5.85-9.87c6,21.49,12,44.21,6.29,65.78q-4.94-16.66-11.46-32.8l-1.9-2.66a958.39,958.39,0,0,0-102.63-267l-1.08-2.5a49.81,49.81,0,0,1-9.12,1.26,50.64,50.64,0,0,1-9.61-.64l.95,1.17A997.9,997.9,0,0,1,1128.15,1645l-.78,2a129.08,129.08,0,0,0-23-31.81l11.63,22a223.1,223.1,0,0,0-20.69-24.63l15.94,26.43a118.65,118.65,0,0,0-13.18-15.56c13.65,20.86,27.71,42.84,29.91,67.67l-5,9a399.53,399.53,0,0,0,3.06,88.44c2,13.56,4.67,27,6.17,40.63,1.08,9.91,1.54,19.87,2,29.82,1.73,37.79,3.46,75.6,3.14,113.43a227.64,227.64,0,0,1-25.12-20c-7.77-7.13-15.45-15.6-16.67-26.07-.84-7.15,1.47-14.24,3.07-21.26,3.53-15.55,3.6-31.66,3.28-47.6q-.8-38.68-4.53-77.23c-2.74-28.18-7.08-57.38-22.9-80.86-15.62-23.21-40.59-38.1-64.72-52.24l-21.61-7c-11.68,1.32-22-7.69-33.69-9.18-3.42-.44-6.92-.22-10.31-.85a42,42,0,0,1-7.46-2.38c-8.87-3.45-17.77-6.91-26.13-11.45-6.51-3.54-12.79-7.76-19.94-9.7-4-1.09-8.24-1.42-12.31-2.39a40.56,40.56,0,0,1-16.58-8.29l-9.67-3.91c-21.64-1.09-43.61-2.23-64.12-9.21a43.83,43.83,0,0,0-6.4-1.89,40,40,0,0,0-7.82-.35c-8.87.15-17.76-.17-26.61.55-27.88,2.25-53.83,14.5-79.07,26.56-16.87,8.06-34.15,16.41-47,30l-10.45,12.76-1.86,7.07c-4,13.87-9.93,27.82-20.84,37.27a23.26,23.26,0,0,1-9.09,5.25,30.48,30.48,0,0,1-8.49.57l-7.86.18a31.47,31.47,0,0,0-20.07,16l-6.22,7.29c-3.61,8.55-6.81,17.53-6.63,26.8a10.24,10.24,0,0,0,.72,4.15c1.45,3.16,5.23,4.43,8.64,5.1a68.3,68.3,0,0,0,16.76,1.17l6.56-.06c3.77-.27,7.09-3.32,10.85-2.9a9.08,9.08,0,0,1,3.89,1.56,18.06,18.06,0,0,1,4.67,4.43,37.81,37.81,0,0,0,2.29,3.15,19.13,19.13,0,0,0,2.93,2.45l4.13,3,9.46,11.61a87,87,0,0,1,39,26.85c7.4,9,13.66,19.94,24.47,24.21,5.43,2.14,11.51,2.32,16.86,4.65,9.05,4,14.38,13.14,20.32,21a103.25,103.25,0,0,0,44.48,33.78c-14.38,7.63-23.5,22.39-30.26,37.21s-12,30.59-21.63,43.69c-13,17.55-33.91,30.45-39,51.66-1.93,8-1.34,16.32-.73,24.51l-5.09,15.1,7.11,10a29.35,29.35,0,0,0,2.8,10.71,75.45,75.45,0,0,1,2.8-15.06,34.81,34.81,0,0,1,2.47-6.41c2.71-5.16,7.27-9.05,11.72-12.81,3.86-3.26,7.76-6.55,12.22-8.94a13.8,13.8,0,0,1,6.17-1.92,6.2,6.2,0,0,1,5.53,2.81c1.37,2.41.44,5.41-.52,8l7.25,6.29a178.43,178.43,0,0,0,93.56-27c17.16-10.75,32.41-24.38,49.85-34.68,17.15-10.13,36.07-16.82,54.85-23.45,5.37-1.9,10.81-3.81,16.48-4.26,11.89-.93,23.23,4.59,34.91,7a68.61,68.61,0,0,0,60.08-17.22l8.51,1a659.92,659.92,0,0,1,51.85,65.09c31.26,44.78,57.68,94.31,99.48,129.46l15.38,7.64c6.44,2.06,12.77,5.24,17,10.51,3.43,4.27,5.23,9.59,7.89,14.38a44.87,44.87,0,0,0,18.43,17.92,7.33,7.33,0,0,1,3.17,2.42,7.1,7.1,0,0,1,.69,2.31,41.82,41.82,0,0,0,7.26,16.68,7.35,7.35,0,0,0,2.66,2.51c.73.33,1.54.43,2.28.72,2.54,1,3.88,3.8,4.29,6.49s.16,5.46.76,8.11c1.4,6.19,7,10.34,11.26,15,10.37,11.33,14.15,27.66,25,38.49l-.13,9ZM1091.09,721.85l-.25,4.38a44.34,44.34,0,0,0-20.61,13.3c-2.44,2.8-4.53,5.91-7.26,8.42-4.66,4.28-11,6.67-14.8,11.77a47.55,47.55,0,0,0-3.73,6.88,49.18,49.18,0,0,1-7,10.36,18.35,18.35,0,0,1-4.18,3.69,21.56,21.56,0,0,1-6.73,2.21c-11.59,2.36-23.48,4-34.3,8.82-5.92,2.62-11.6,6.2-18,7l-11.94,5.6c-9.42,8-19.09,16.09-30.65,20.39-3,1.1-6,1.93-9,3-14.28,5-27,14.69-34.81,27.63-3.17,5.24-5.52,10.93-8.68,16.17-6,9.9-14.56,17.88-23.05,25.72l-6.39,8.21c-8.64,19-16.5,38.47-20.09,59s-2.68,42.27,5.72,61.33c1.59,3.59,3.43,7.09,4.51,10.86,1.86,6.52,1.15,14-2.95,19.4l-.57,2.32c33.92,75.16,128.16,188.81,128.16,188.81l1.27,1.26a100.71,100.71,0,0,0-17.76-.95c-.85,0-1.7.13-2.55.22l-1-1.53s-86-106.89-115.14-167.85l-6.89-2.18c-8-14-13.1-29.49-19.41-44.37s-14.15-29.57-26.34-40.17l-3.74-3a77.61,77.61,0,0,0-50.85-23.87c-9.89-.64-19.91.64-29.7-1s-19.09-6.12-28.06-10.63c-17-8.55-34.68-18.1-44.65-34.3-2.87-4.66-5-9.78-8.58-13.94s-8.53-7.3-12.14-11.58a26.55,26.55,0,0,1-6.19-15.66c-.38-7.64,2.22-16.48-2.91-22.15-2.37-2.63-5.9-3.83-8.81-5.83-5.43-3.71-8.57-10.1-9.69-16.57s-.44-13.12.38-19.65l-9-2.64-6.82-6a69.3,69.3,0,0,1-2.38-28.74l-2.06-7.56c0-7-.58-15.32-6.56-19l3.86-1.82c5.17-5.23,11.14-10,18.24-11.94a.87.87,0,0,0,.49-.26.83.83,0,0,0,.11-.52c-.07-3.07-.57-6.35.94-9l.27-.35c-4.81-2.33-9.58-5.12-12.86-9.34s-4.79-10.18-2.56-15l.18-.51a43.71,43.71,0,0,1-.26-6.57,1.33,1.33,0,0,1,.11-.56,1.14,1.14,0,0,1,.62-.42,7.38,7.38,0,0,1,2.91-.43.52.52,0,0,0,.42-.09.51.51,0,0,0,.1-.32c.08-1.12.14-2.24.17-3.36l-10.53-7.73c-7.5-19.35,1.57-43.37-9.76-60.76-4.85-7.44-12.7-12.3-20.3-16.91l-5.61-8c-19.21-6.3-28.23-29.57-46.77-37.62-9.54-4.13-20.39-3.68-30.49-6.13-15.42-3.74-28.33-14-42.6-20.91a106.12,106.12,0,0,0-79.94-4.77c-18.92,6.53-35.71,18.39-54.79,24.46a97.2,97.2,0,0,1-49.66,2.4c-5.32-1.14-11.07-3.15-13.64-7.94-1.62-3-1.65-6.66-1.48-10.09,2-40.33,25.78-77.75,58.33-101.64s73-35.27,113.3-38.1c94.77-6.66,188.72,32.32,262.93,91.64A1303.42,1303.42,0,0,0,548.92,378c-14.56-18.32-29.84-36.47-48.89-50.07-15.71-11.23-33.54-19-51.08-27.11-47.29-21.75-94.07-46.3-132.61-81.28S247.8,137.89,241.65,86.2c-1.66-14-1.48-28.65,4.32-41.47s18.24-23.38,32.31-23.59c20-.3,34.17,18.33,47.65,33.11a180.78,180.78,0,0,0,43.84,35.13c6.54,3.74,13.41,7.13,18.91,12.28,6.21,5.82,10.4,13.63,17,19,6.1,5,13.78,7.42,21.26,9.79l79.64,25.23c10.18,3.22,20.79,6.7,28.31,14.27,7.35,7.39,10.78,17.71,16.14,26.65s14.45,17.3,24.79,16L586.27,218c12-3.32,24.56,1.17,36.05,5.85,9.82,4,19.7,8.27,27.92,15S665,255,665.75,265.56c.31,4.15-.25,8.39.66,12.46,3.05,13.6,19.45,18.24,32.15,24,17,7.71,30.69,21.15,44,34.32,9.68,9.6,19.6,19.56,24.81,32.16,7.74,18.73,3.85,39.94,4.62,60.19a128.58,128.58,0,0,0,7.36,38.18c4.75,13.3,11.82,27.12,8.35,40.8-4.21,16.57-22,25.74-30.57,40.54-6.55,11.31-7.17,25-7.63,38q-1.2,34.29-2.41,68.56L743,664.12a135.12,135.12,0,0,0,2.6,45l4,4.17a49.26,49.26,0,0,1,4.83,6l.75,4.18c.94,14.44,6.46,28.1,10.66,42,4.3,14.21,7.26,28.81,11.91,42.91,3,9,6.64,17.76,10.29,26.51l2.9,3.6c7.88-32.53,31.47-59.48,59-78.48,9.93-6.84,20.63-12.9,32.37-15.62,8.63-2,17.6-2.14,26.28-3.92,11.9-2.44,23-7.88,34.83-10.57,9-2,18.32-2.45,27.55-2.85ZM769.9,919.35q-21.09-63.54-37.72-128.43a196.42,196.42,0,0,1-4.49-20.71,210.49,210.49,0,0,1-1.64-24.86q-.36-13.85-.73-27.7l3.65-5.87A212.75,212.75,0,0,1,724.69,677a18.89,18.89,0,0,0-.88-6.08,6.1,6.1,0,0,0-4.32-4l-5.6-.58a204.35,204.35,0,0,1-18.64-12.4c-10.38-7.52-20.67-15.23-30.1-23.91-18.34-16.88-33.71-37.64-55.53-49.68a15.9,15.9,0,0,1-14.32,13.38c-5.8.36-11.25-2.53-16.3-5.39a1.65,1.65,0,0,0-1.43-.3c-.5.23-.63.87-.69,1.42q-.51,4.57-.57,9.2a12.23,12.23,0,0,0,.77,5.35,10.76,10.76,0,0,0,2.95,3.53c4.05,3.44,9.15,5.87,12,10.35,1.18,1.85,1.9,4,3,5.83,1.92,3.27,4.92,5.76,7.05,8.89a20.1,20.1,0,0,1,3.29,8.49c.28,2,.27,4,1.09,5.88,1.52,3.4,5.36,5,8.69,6.62s6.89,4.35,6.8,8.07l1.23,5.19a26.18,26.18,0,0,1-5.36,12.61c-.33.41-.68.95-.42,1.4a1.19,1.19,0,0,0,.58.45,10.85,10.85,0,0,0,2.88.91,1,1,0,0,1,.7.29,1,1,0,0,1,.12.69A16,16,0,0,1,620,689c3.53,2,5.54,6,6,10s-.45,8-1.56,11.91a42.48,42.48,0,0,1,7.48.06,18.17,18.17,0,0,1-.16,4.54,6.47,6.47,0,0,1,6.82,7.25l5.16,8.64c6.07,12.16-.73,27.92,5.64,39.93,3.65,6.87,11.29,11.72,12.52,19.41.8,4.94-1.27,10.37,1,14.82,2,4,6.81,5.65,11.1,7,7,2.23,14,4.76,20,9s11,10.35,12.4,17.57c.94,4.89.21,9.94.57,14.91.59,8.18,4.12,15.83,7.58,23.26,1.69,3.62,3.42,7.31,6.17,10.2,2.43,2.55,5.53,4.35,8.26,6.57,5.85,4.75,10,11.39,16,16C752.09,915.43,761.15,917.46,769.9,919.35Z"></path>
    <path data-name="2a" data-official="" data-plain="Flower opened" data-loc="" d="M235.31,2583.41c2.84-8.82,5.7-18.39,2.76-27.19-2.64-7.87-9.39-13.51-15.57-19.06a239.89,239.89,0,0,1-18.57-18.62c-6.29-7-12.3-14.71-14.83-23.8-2.57-9.26-1.27-19.16,1.05-28.49,2-7.92,4.8-15.88,10.16-22,10.19-11.7,27-14.47,42.47-16,29.37-2.86,59.73-3.67,87.64,5.94,12.49,4.3,25.28,11.77,29.54,24.28,4.34,12.75-1.48,26.59-8,38.39-5.44,9.89-11.57,19.61-20,27.18-9.66,8.73-21.88,14.23-31.52,23-3.22,2.93-6.25,6.44-7,10.72-1.28,7.17,4,13.72,9.21,18.83s11,10.79,11.22,18.06c.14,5.07-2.69,9.9-6.58,13.14s-8.77,5.09-13.67,6.38c-11.09,2.94-22.7,3.31-34.17,2.91-6.68-.23-13.63-.8-19.36-4.23s-9.81-10.55-7.66-16.87Z"></path>
    <path data-name="2b" data-official="" data-plain="Cluster of Flowers" data-loc="" d="M412.9,2601.62c-2.57-6.78.24-14.42,4.12-20.54s8.89-11.66,11.33-18.48c4-11.24.39-23.61-3.24-35-2.56-8-5.51-16.51-12.35-21.34s-16-4.79-23.4-8.6a25.28,25.28,0,0,1-13.3-19c-1-8.14,2.07-16.27,6.17-23.37,8.34-14.42,20.85-25.87,33.16-37.08,2.95-2.69,6-5.45,9.85-6.64,8.09-2.52,16.7,2.72,25.12,1.78,10-1.12,17.87-10.72,28-10.71,6.54,0,12.32,4.12,17.31,8.35,10.07,8.55,19.17,18.47,25.36,30.13s9.35,25.19,7.32,38.24c-.8,5.13-2.47,10.3-5.95,14.15-3.07,3.39-7.27,5.49-11.37,7.52-5.81,2.87-11.77,5.87-16.05,10.74-3.7,4.23-5.88,9.6-9.41,14-3.95,4.93-9.6,8.63-12.16,14.41-3,6.78-1,14.8,2.56,21.32s8.51,12.19,11.89,18.8,5,14.8,1.5,21.33c-2,3.76-5.53,6.54-9.3,8.54-7.7,4.07-16.59,5.2-25.27,5.77-9.72.62-19.46.62-29.19.62-4.77,0-11.09-1.38-11.34-6.14Z"></path>
    <path data-name="2c" data-official="" data-plain="Stamen" data-loc="" d="M559.25,2577.53a29.91,29.91,0,0,1,3.55-15.13c2.53-4.69,6.33-8.74,8-13.81a41.59,41.59,0,0,0,1.4-9.18c1.61-17.67,7.18-35.2,5.18-52.84-1.13-9.9-4.61-19.38-6.62-29.14S568.3,2437,573,2428.2s15.73-14.78,25-11c7.06,2.89,11.21,10.53,12.29,18.08s-.34,15.21-1.33,22.78a203,203,0,0,0-1.14,41.38c.45,6,1.21,12.07,4,17.37,1.78,3.39,4.33,6.32,6.23,9.65s3.12,7.34,1.93,11c-1.11,3.42-4.15,5.92-5.46,9.28-1.83,4.66,0,9.94,2.5,14.28s5.69,8.42,6.84,13.29a17.27,17.27,0,0,1-2.48,13.45c-4.68,6.91-13.57,9.41-21.81,10.7a147.79,147.79,0,0,1-21,1.79c-5,.07-10.12-.15-14.61-2.31s-8.14-6.72-7.81-11.69Z"></path>
    <path data-name="2d" data-official="" data-plain="Ovary" data-loc="" d="M642.07,2593.15a41.61,41.61,0,0,1,6.15-27.25c2.55-4,5.88-7.74,6.89-12.38,1.19-5.5-1.1-11.09-3.27-16.27-3.5-8.34-6.87-16.83-8.32-25.75s-.86-18.42,3.25-26.48,12.11-14.41,21.12-15.05a26.22,26.22,0,0,1,17.24,5.42,39.59,39.59,0,0,1,11.43,14.27,53.77,53.77,0,0,1,4,36.59c-1.12,4.54-2.85,8.93-3.64,13.53s-.56,9.63,2,13.56a31.22,31.22,0,0,0,5.19,5.53c5.39,5.05,10.2,11.07,12.14,18.2s.53,15.51-5,20.46c-4.86,4.41-11.84,5.42-18.38,6q-10.44,1-20.94,1.18c-8.36.18-17-.05-24.59-3.66Z"></path>
    <path data-name="2e" data-official="" data-plain="Section of Seed" data-loc="" d="M738.87,2607.35a43.92,43.92,0,0,1,6.7-34.09c2.07-3,4.52-5.72,6-9,2.21-4.81,2.21-10.38,1.14-15.56s-3.16-10.09-5-15c-2.57-6.84-4.74-13.93-5.13-21.23s1.11-14.89,5.35-20.84,10.73-9.75,17.68-11.57,14.3-1.7,21.41-.66c8.71,1.28,18,4.46,22.65,11.9a27.39,27.39,0,0,1,3.58,10.85,70.57,70.57,0,0,1,.22,15c-.37,4.89-1.07,9.87-3.38,14.2-1.84,3.45-4.6,6.29-7,9.34a57.92,57.92,0,0,0-7.67,12.68c-1.93,4.37-3.33,9.17-2.58,13.89,1,6.1,5.35,11,9.29,15.75s7.84,10.26,7.59,16.43c-.22,5.3-3.6,10.1-8,13.11s-9.6,4.46-14.82,5.4c-9.64,1.73-19.49,1.88-29.28,1.57-5.11-.16-10.59-.58-14.62-3.73Z"></path>
    <path data-name="3" data-official="Rheum spiciforme" data-plain="Spiked Rhubarb" data-loc="Himalayas" d="M1604.28,1768c2,20.77-3.93,41.5-11.44,61s-16.68,38.45-21.46,58.76c-1.58-4.84-6.43-8.07-11.43-9s-10.17,0-15.1,1.29a122.61,122.61,0,0,0-27.81,11,466.05,466.05,0,0,1,2.62-63.94c1.35-12.3,3.2-24.54,4.41-36.86,1.88-19,2.26-38.06,3.34-57.09q1.74-30.48,5.9-60.75a4.47,4.47,0,0,1,.88-2.5c.83-.91,2.2-1,3.43-1a121.82,121.82,0,0,0,48.66-11.55l16.12-2.9c3.93-9.84,12.91-16.68,21.95-22.22l.62-.72c-2.46-5.1-2.85-10.91-3.21-16.57-.47-7.6-.89-15.55,2.21-22.5a42.11,42.11,0,0,1,3.35-5.83,168.69,168.69,0,0,1,11-14.83l0-1.09a16.37,16.37,0,0,1-10.09-2.21c-3.79-2.27-6.48-6-9.86-8.82-4.82-4-11-6.31-15.55-10.61a28.88,28.88,0,0,1-7.88-14.22,57.67,57.67,0,0,1-1.24-16.38c.28-6.14,1.29-12.78,5.7-17.06l1.37-2.21c-31,4.27-61.32-11.6-92.62-13.37-60.19-3.41-112.25,42.72-172.31,48-6.1.54-12.31,2.64-18.2,4.33a69.37,69.37,0,0,0-11.69,5c-15,7.5-30.09,15-43.81,24.71a168.26,168.26,0,0,0-53.19,61.84,84.35,84.35,0,0,1,19.48-14.46,132.3,132.3,0,0,0-35.86,81.61l7.2,16.31,7.14-5.87a314.79,314.79,0,0,1,94.42-27c6.88-.84,14.06-1.42,20.57.94,10.06,3.63,16.41,13.39,21.62,22.72a387.4,387.4,0,0,1,47,225.09c-5.21,53-21.4,106.16-12,158.58l0,10c1.36,17.9,2.7,36.17-1.72,53.56-2,7.71-5,15.1-7.42,22.69-10.68,33.91-7.66,70.41-4.53,105.82l1.32,30.53c2.93,5.4,5.82,10.88,7.51,16.78,3.33,11.63,1.72,24.27-2.67,35.53l4.38,5.78c-1.65,6.46,2.1,13.31,7.36,17.4s11.81,6.07,18.13,8.21c2.81,1,5.79,2.09,7.51,4.52s1.79,5.75,1.93,8.79c.55,12,4.78,25.13,15.37,30.78,13.43,7.15,30.81-1.69,38.61-14.75,3.61-6,5.89-13,10.61-18.18,8.42-9.3,22.18-10.87,33.61-16,19.86-9,32.69-29.42,37.66-50.64s3.18-43.38.82-65.05-5.27-43.56-2.44-65.17c2.72-20.83,10.66-40.57,18.75-60,9.32-22.3,19.23-44.95,35.61-62.73l7.11-9.55c21.42-35.27,55.61-60.91,91.2-81.78,4.83-2.83,10-5.94,12.19-11.09,2.46-5.8.38-12.43-1.83-18.33-2.4-6.42-6.34-13.84-13.18-14.15-1.42-.06-2.93.19-4.19-.47-1.47-.77-2.09-2.54-2.3-4.18-.41-3.36.43-6.75.45-10.14s-1.08-7.18-4.08-8.76a11.17,11.17,0,0,0-4.4-1,64.18,64.18,0,0,0-21.76,2.24c-8.66,2.44-17,6.73-26,6.84a4.31,4.31,0,0,1-2.33-.46c-1.31-.82-1.43-2.67-1.3-4.22.6-6.91,3.33-13.43,5.59-20,6.81-19.75,9.53-40.63,12.22-61.34l4.54-26a22.45,22.45,0,0,0-8.27-11.84,15,15,0,0,1-2.63-2.12,3.53,3.53,0,0,1-.94-3.11,5.07,5.07,0,0,1,1.8-2.34l9.67-8.37-.52-.88a15.2,15.2,0,0,1-9.65-2.29,45.24,45.24,0,0,1-7.84-6.32,19.58,19.58,0,0,1-3.82-4.37c-2-3.47-1.67-7.74-1.3-11.71l-1-.62-7.08-3.43a29.69,29.69,0,0,0-3.27-1.43c-1.63-.55-3.34-.81-5-1.3a8.64,8.64,0,0,1-4.37-2.61Zm-365.93-348.29-.13,2.15c5.45,39.49,7.09,80.27-3.42,118.72a193.09,193.09,0,0,1-11.25,30.66c-3,6.49-6.41,12.8-10,19v1.12a266.92,266.92,0,0,1,101.69-63.19l-3.71-1.29a82,82,0,0,0,45.14-50.68c3.2-10.56,4.25-21.8,8.69-31.9,7.5-17,24.32-28.94,42.49-32.85,10.16-2.18,20.88-2.14,30.54-6,7.44-3,13.85-8.09,21.17-11.34,13.85-6.14,29.78-5.1,44.68-2.4l.75.54a12.07,12.07,0,0,1,11.36-2.53c1.9.58,3.64,1.63,5.57,2.07a13.32,13.32,0,0,0,5.55-.08c8.93-1.75,16-8.45,24.39-12,5.36-2.25,11.16-3.17,16.89-4.06l3.16-.32-.54-1.11c-6.85-.12-13.31-4-17.58-9.34s-6.52-12.11-7.48-18.9-.72-13.68-.45-20.53a35.37,35.37,0,0,1,.95-8.09,29.49,29.49,0,0,1,3.83-7.88c2.92-4.54,6.4-8.9,11-11.67l.92-.86c-8.62-3.24-14.73-11.42-17.27-20.28s-1.92-18.31-.26-27.37a36,36,0,0,1,2-7.39,33.7,33.7,0,0,1,2.92-5.34,79.38,79.38,0,0,1,15.72-17.74l.12-.65a41.71,41.71,0,0,1-18.8-2.13l-.25,1.07c.11,5.87-1.54,11.61-3.18,17.25-2.07,7.15-4.23,14.48-8.69,20.44-6.53,8.74-17,13.37-26.33,19a19.08,19.08,0,0,0-6,5c-1.79,2.54-2.35,5.73-2.76,8.81-1.75,13-1.77,26.43-5.9,38.9s-13.68,24.32-26.67,26.29l-1.49.42a69.75,69.75,0,0,1-26.6,11.08,21.92,21.92,0,0,0-6.46,1.8c-3,1.6-4.91,4.64-6.71,7.53-8.85,14.24-18.57,28.36-31.85,38.59a114.05,114.05,0,0,1-15.65,9.9c-14.24,7.67-29.68,13.64-45.8,15s-33-2.19-45.92-12h-1a75,75,0,0,1-45.75-3.6ZM1222,1411.6c-6.44-2.24-13.62-1.57-20,.74s-12.16,6.14-17.6,10.23a7.69,7.69,0,0,0-2.87,3.18c.63-6.48-2.07-12.77-4.87-18.64a26.33,26.33,0,0,0-3.41-5.77c-2.39-2.83-5.81-4.55-9-6.49s-6.31-4.37-7.54-7.87l-1.33-.4c-10.83,2.72-22.13-1.25-32.46-5.51-5-2.07-10.12-4.28-14.23-7.84-2.92-2.53-5.24-5.65-7.76-8.57-5.23-6.07-11.61-11.47-19.27-13.79-3-.92-6.22-1.34-9.13-2.57-4.1-1.73-7.39-5-10.09-8.49l-.41-.79c-9.09,2.28-17.81,6.32-26.87,8.39l-.07,0,1.08,2.5a958.39,958.39,0,0,1,102.63,267l1.9,2.66q6.51,16.11,11.46,32.8c5.67-21.57-.32-44.29-6.29-65.78a57.12,57.12,0,0,1,5.85,9.87,62,62,0,0,1-1.35-13.31,269.42,269.42,0,0,1,14.66,66.22,283.44,283.44,0,0,0,17.63-46.45l-2.13,38.91c4.07-13.41,11-25.71,17-38.37,23.18-48.76,32.52-103.51,30.7-157.48-.38-11.15-1.27-22.48-5.32-32.88Zm-450.79-13.94c-2,15-2,30.27-2,45.44l0,24.86c0,14,0,28.24,4.33,41.55,4.66,14.36,14.18,26.88,25.9,36.41s25.57,16.18,39.92,20.87A30.4,30.4,0,0,1,847,1570c5.74,3.86,7.76,11.21,9.36,17.94l5.39,8a40.56,40.56,0,0,0,16.58,8.29c4.07,1,8.27,1.3,12.31,2.39,7.15,1.94,13.43,6.16,19.94,9.7,8.36,4.54,17.26,8,26.13,11.45a42,42,0,0,0,7.46,2.38c3.39.63,6.89.41,10.31.85,11.65,1.49,22,10.5,33.69,9.18l10.89-1.7c11,.19,22.42.46,32.51,5a73.6,73.6,0,0,1,13.92,8.74c9.79,7.35,19.26,15.3,26.82,24.93a90.41,90.41,0,0,0,6.72,8.24,42.39,42.39,0,0,0,8.64,6.47c9.56,5.67,20.64,9.18,31.74,8.53l3.59-.27,5-9c-2.2-24.83-16.26-46.81-29.91-67.67a118.65,118.65,0,0,1,13.18,15.56l-15.94-26.43a223.1,223.1,0,0,1,20.69,24.63l-11.63-22a129.08,129.08,0,0,1,23,31.81l.78-2a997.9,997.9,0,0,0-110.87-295.79l-.95-1.17h0c-7.11-1.09-14.14-3.26-21.24-4.62-10.27-2-21.93-1.84-29.92,4.91-2.38,2-4.3,4.51-6.64,6.55-8.8,7.67-21.94,7.7-33.32,5.14l-.74,0c-4.69,4-11.19,5.15-17.36,5.51a97,97,0,0,1-32-3.45c-5.12-1.44-10.36-3.32-15.61-2.49-4.11.65-7.76,2.89-11.45,4.83-8.62,4.54-18.31,7.62-28,6.85-6.06-.49-12-2.45-18.06-2.37s-12.81,3-14.59,8.82l-5.66,7.51Zm46-311.87c-.74,19.76-15.5,36.18-20.24,55.38-4.49,18.2.31,37.54-2.82,56-1.05,6.17-3,12.15-4.38,18.24a115.24,115.24,0,0,0-2.65,35.27l1.52,6.46,6.72,4.44a100.76,100.76,0,0,0,35.8-7.9c8.06-3.41,15.86-7.93,24.55-9,9.18-1.1,18.3,1.79,27.34,3.73a133.8,133.8,0,0,0,48.86,1.31c4.5-.71,9-1.65,13.5-2.14h0l-1-1.53s-86-106.89-115.14-167.85l-6.89-2.18Zm51-110a244,244,0,0,0-22,52.86l-6.42,7.93c1.86,6.52,1.15,14-2.95,19.4l-.57,2.32c33.92,75.16,128.16,188.81,128.16,188.81l1.27,1.26h.06c3.45.4,6.9.81,10.36,1,2.57.16,5.16.23,7.75.18l-.66-.82A69.22,69.22,0,0,1,966.44,1208c-.36-5.6,0-11.33-1.69-16.7-1.54-5-4.71-9.4-7.63-13.8-5.73-8.65-10.71-18-13-28.1-1.6-7-1.87-14.27-3.24-21.34-4.34-22.51-19.28-41.43-35.1-58-5.36-5.63-10-11.23-13.43-18.19-9.56-19.28-.12-42.71-4.46-63.79-1.22-5.91-4-12.08-9.41-14.68ZM1056.4,754.49c13.35-4,27.48,2.37,41.41,2.38,6,0,11.83-1.14,17.71-2,11.86-1.82,24.2-2.58,35.7.87,13.07,3.92,24,12.95,33.6,22.62s18.44,20.27,29.3,28.54a29.91,29.91,0,0,0,9,5.11c5.52,1.7,11.5.62,17.22,1.42l.08-1.27a92.26,92.26,0,0,0-23.1-36.26l-1.32-.21A104.17,104.17,0,0,1,1190,758.8c-7.51-6.63-14-14.31-20.48-21.95l-7.23-8.54-1.64-.1c-4.6,1.42-8.93-2.79-13.65-3.77-3-.63-6.21.12-9.27-.38-2.75-.45-5.25-1.88-8-2.45-3.76-.8-7.66.08-11.51,0-4.14,0-8.19-1.14-12.3-1.73s-8.48-.64-12.16,1.28l-2.64.65-.25,4.38a44.34,44.34,0,0,0-20.61,13.3c-2.44,2.8-4.53,5.91-7.26,8.42-3.48,3.2-7.92,5.34-11.51,8.34Zm209.06,65.19L1280,809.09c4.64-3.38,9.32-6.78,14.51-9.23,11.93-5.62,25.68-5.82,38.81-4.59l1.21-.11-17.28-11a64.85,64.85,0,0,0-6.44-3.77c-3.93-1.92-8.19-3-12.24-4.69-3.4-1.4-6.65-3.16-10-4.66a141,141,0,0,0-13.73-5.07L1241,754.79l-.43-.23a13.46,13.46,0,0,0,4.08,8.84,91.51,91.51,0,0,0-17.46-3.92c9.7,6.62,15.59,17.38,21.12,27.74l16.31,30.51Zm317,95.23c3.18-25.68,6.13-52.92-4.69-76.42-3.51-7.63-8.36-14.55-12.79-21.68a229.05,229.05,0,0,1-33.73-135.48c1.08-15.88,3.83-31.63,4.19-47.54s-1.87-32.35-10-46S1504,564.23,1489.83,557c-40.1-20.67-89.39-22.61-131-5.16l-7.47,5.45c-18.8,16.63-25.59,43.81-22.83,68.77.61,5.51,1.64,11,1.55,16.55a58.7,58.7,0,0,1-3.2,17.18c-2.56,7.91-6.26,15.71-12.37,21.35-4.71,4.36-10.62,7.21-16.53,9.73a79.14,79.14,0,0,1-15.4,5.14c-9.56,1.91-19.43.88-29.18.87a139.27,139.27,0,0,0-45.42,7.6l.59-.18q18.4,2.81,36.58,6.88c8.57,1.93,17.37,4.19,24.35,9.52-15.22-3.5-30.69,3.73-46.27,4.9a13.42,13.42,0,0,1,8.6,5s140,41.6,227.07,140.36l1.75,1.26c2.81,2.89,7.93,1.28,11.42,3.31a5.85,5.85,0,0,0,2.2,1.07,4.94,4.94,0,0,0,2.23-.58,9.42,9.42,0,0,1,12.86,8.87,3.9,3.9,0,0,1-1.56,3.46,4.75,4.75,0,0,1-2.15.46l-14.79.81c.72,2.13,3.58,2.86,4.44,4.93.23.56.3,1.18.49,1.76a8,8,0,0,0,2.93,3.39l10.46,8.26,1.16-.79a44.4,44.4,0,0,1,28-10.14,57.14,57.14,0,0,1,28.94,7.81,84.59,84.59,0,0,1,14.9,11,27.63,27.63,0,0,0,5.7,4.43,8,8,0,0,0,7,.51Zm65.47-168c-3.07,16.46,5.68,34.15-.27,49.8-1.68,4.43-4.45,8.36-6.6,12.6a49.46,49.46,0,0,0,4.93,51.43c2.64,3.39,5.73,6.45,8,10.1,7.52,12.1,4.43,28.09-2,40.83-2.36,4.7-5.14,9.23-6.84,14.2a36,36,0,0,0,2.63,28.8l3.54,6.15c12.76-1.67,25.86,4.57,33.93,14.59s11.41,23.33,10.75,36.18c-.32,6.29-1.58,12.64-4.62,18.17s-8,10.18-14,12l-4.66,4.82c-1.25,1.88-3.91,2.74-4.55,4.91a4.26,4.26,0,0,0,1.1,3.89,12.61,12.61,0,0,0,3.4,2.45l2.46,2.58c15.1,5.89,30.31,12.1,43.24,21.87,4.68,3.53,9.1,7.61,12,12.73,4.16,7.44,4.62,16.61,2.36,24.83s-7,15.58-12.79,21.88l.14,1.07c10.49,9.61,21.24,19.6,27.12,32.56a63.54,63.54,0,0,1,3.54,10.12c2.1,8,2.94,16.45,1.48,24.6s-5.33,16-11.57,21.45l-.71,1.73c6.61,3.21,11.19,9.37,15.52,15.31l9.65,2.6c8.07,3.52,17.34,0,25.22-4,8.69-4.32,17.59-9.56,22.19-18.11s4-19,.85-28.19c-2-5.86-5.16-12.06-3.24-18,2.91-9,14.71-10.69,22.09-16.55,8.77-7,10.66-20.2,6.76-30.7-1.77-4.74-4.57-9.33-4.42-14.39.11-4,2.07-7.66,4.39-10.88,6.94-9.6,17.9-17.24,19.82-28.92,1.57-9.61-3.61-19-9.2-26.93s-12-16-13.45-25.6c-1.33-9,2-18,2.88-27.09a53.59,53.59,0,0,0-12.76-40.22l6.89-6.83c2.52-12.19,5-25.28.06-36.72-3.58-8.37-10.89-15.27-12.06-24.3-1.61-12.42,9-25.06,4.37-36.69l-6.67-14.18c-10.42-22,8.45-48.31,1.94-71.73-3.47-12.51-13.73-22.16-17.87-34.46-9.11-27.11,13.79-56,9.05-84.17-1.83-10.88-7.66-20.65-10.79-31.22-7.24-24.45.31-51.45-7-75.89-2.44-8.18-6.47-15.81-9.05-23.95-3-9.48-4-19.47-5.21-29.34a636,636,0,0,0-74.2-229.34c-3.53-6.4-7.43-13-13.67-16.83-12.78-7.82-30.47-.15-38.7,12.38s-9.49,28.22-10.51,43.18l-5.53,81c-1.3,19-2.59,38.07,0,56.89,1.63,11.94,4.81,23.62,6.43,35.56,1.65,12.11,1.68,24.37,1.72,36.6l.63,217.05Zm-39.71,288.21a30.57,30.57,0,0,1-17.26-20c-.75,1.92-3.09,2.64-5.14,2.89a29.45,29.45,0,0,1-8.28-.18q9,9,17.3,18.66a2.35,2.35,0,0,0,1,.84,2.49,2.49,0,0,0,1.21,0,50.78,50.78,0,0,1,11.14-1Zm-49.79-3.07a21.65,21.65,0,0,1,8.93,27.92,22,22,0,0,1,9.53,5.68,14.28,14.28,0,0,1,4.64-4.51,7.12,7.12,0,0,0,1.74-1.23,5.9,5.9,0,0,0,1-1.84c1.41-3.73,2.85-7.69,2.09-11.6-.71-3.68-3.25-6.7-5.8-9.44a159.17,159.17,0,0,0-21.71-19.47,29.16,29.16,0,0,1-1.92,13.61Zm68.27,81.16c-2.58-1.65-1.63-5.77-3.29-8.34-.6-.92-1.51-1.6-2.16-2.5-1.74-2.4-1.19-5.67-1.24-8.63a2,2,0,0,0-.33-1.24,2.23,2.23,0,0,0-1.31-.56c-5.91-1.13-10.8-5.54-13.81-10.75s-4.39-11.2-5.46-17.12q-.88-4.9-1.53-9.86a34.56,34.56,0,0,0-8.39,11.06c-1.06,2.23-2.12,4.8-4.42,5.68l-.91,1.22c2.3.66,3.62,3,4.58,5.23a53.5,53.5,0,0,1,4.65,21.3,38.72,38.72,0,0,1-5.91,20.84,76.12,76.12,0,0,1,25.39,4.68c2,.74,4.24,1.85,4.72,3.93l.84.09a48.48,48.48,0,0,0,7.47-13.38Z"></path>
    <path data-name="3a" data-official="" data-plain="Flower" data-loc="" d="M1669,2562.91c3-8.22,6-17,4.18-25.52-3.1-14.83-19-23.08-26.93-36-6.39-10.32-7.37-23-7.6-35.16q-.27-14.23.49-28.47c.31-5.9.78-11.89,2.78-17.45,4.43-12.31,16.06-21,28.6-24.75s26-3.06,38.93-1.25c3.44.48,7,1.07,9.92,2.88s5.15,4.74,7.18,7.61c5.06,7.16,9.89,14.73,12,23.25,1.39,5.75,1.47,11.73,1.54,17.65q.21,19.23.32,38.47c0,6.12.05,12.34-1.57,18.24a33.76,33.76,0,0,1-7.83,14c-3.47,3.71-7.75,6.61-11,10.49-5.38,6.38-7.56,14.78-9.59,22.87-1.62,6.47-3.23,13.36-1.18,19.72,1.3,4,4,7.46,5.9,11.24a33.09,33.09,0,0,1,3.14,20.33,20.1,20.1,0,0,1-3.71,9.18c-3.15,4-8.13,6-13,7.5a109.59,109.59,0,0,1-29,4.85c-9.39.29-20.28-1.51-25-9.62-4.09-7-1.88-16,1.88-23.18a61.37,61.37,0,0,1,16.11-19.48Z"></path>
    <path data-name="3b" data-official="" data-plain="Section of Ovary" data-loc="" d="M1764.53,2573.46c5-3.91,10.57-9.31,9.11-15.49-.72-3-3-5.37-5.12-7.67a85.13,85.13,0,0,1-21.19-66.36c.56-4.68,1.8-9.77,5.63-12.51,5.2-3.74,12.41-1.4,18.33,1.05l16.45,6.8a49.2,49.2,0,0,0,11.09,3.59c16.09,2.47,31.38-11.17,47.49-8.81a8.05,8.05,0,0,1,4.25,1.66,7.68,7.68,0,0,1,1.88,3.06c3.69,9.46.67,20.1-2.88,29.62a284.74,284.74,0,0,1-12.37,28.32c-3.62,7.18-7.7,14.4-14,19.43-4.22,3.38-9.27,5.64-13.25,9.3-1.76,1.62-3.37,3.71-3.38,6.1,0,4,4.11,6.56,7.22,9.11a24.89,24.89,0,0,1,2,36.63c-3.65,3.72-8.37,6.21-13.17,8.24a95,95,0,0,1-31.86,7.31c-4.94.25-10,.1-14.69-1.47s-9-4.76-11.09-9.26c-2-4.32-1.71-9.42-.23-14s4-8.61,6.58-12.63l9.32-14.77Z"></path>
    <path data-name="4" data-official="Coccoloba uvifera" data-plain="Sea-side Grape" data-loc="West Indies" d="M724.69,677A212.75,212.75,0,0,0,729,711.78l-3.65,5.87-12.28,4q-31.66,2.1-63.16,6l-6.19,3.7-5.16-8.64a6.47,6.47,0,0,0-6.82-7.25,18.17,18.17,0,0,0,.16-4.54,42.48,42.48,0,0,0-7.48-.06c1.11-3.88,2-7.9,1.56-11.91s-2.46-8-6-10a16,16,0,0,0,1.73-5.8,1,1,0,0,0-.12-.69,1,1,0,0,0-.7-.29,10.85,10.85,0,0,1-2.88-.91,1.19,1.19,0,0,1-.58-.45c-.26-.45.09-1,.42-1.4a26.18,26.18,0,0,0,5.36-12.61l5.37,6,68.44-6,16.89-.56,5.6.58a6.1,6.1,0,0,1,4.32,4A18.89,18.89,0,0,1,724.69,677Zm326.77,79.27Zm-495.53-40c-3.28-4.22-4.79-10.18-2.56-15l.18-.51a43.71,43.71,0,0,1-.26-6.57,1.33,1.33,0,0,1,.11-.56,1.14,1.14,0,0,1,.62-.42,7.38,7.38,0,0,1,2.91-.43.52.52,0,0,0,.42-.09.51.51,0,0,0,.1-.32c.08-1.12.14-2.24.17-3.36l-10.53-7.73-13,2.13c-70.15,1.69-134.6,36.63-196.33,70s-127.33,66.92-197.49,65.44c-13.94-.29-29.12-1.67-40.6,6.25-3.52,2.43-6.49,5.64-10.21,7.76-8.54,4.85-19.16,3.12-28.83,4.85-9.29,1.66-18.15,7-22.88,15.12s-4.74,19.2,1,26.66c8.42,10.89,27,13.42,30.12,26.82,2.23,9.54-4.51,21.88,3,28.18,3.24,2.72,7.87,2.81,12.1,2.68,52.3-1.61,103.53-16.31,151.61-37C266.25,887,298.21,871,331.25,875.68c20.44,2.92,38.84,13.58,56.66,24,7.67,4.49,15.43,9.07,21.62,15.44,8.07,8.33,16.93,20.79,27.88,17,4.87-1.69,8-6.3,10.81-10.62,12.24-18.91,24.91-42.17,15.66-62.7-11.38-25.26-47.77-28.22-64.53-50.28a419.38,419.38,0,0,1,92.15-40.11l11.19,2.5c6.53-10.69,17-19.11,29.13-22.26,4.34-1.13,9.24-1.52,13.06.84l3.86-1.82c5.17-5.23,11.14-10,18.24-11.94a.87.87,0,0,0,.49-.26.83.83,0,0,0,.11-.52c-.07-3.07-.57-6.35.94-9l.27-.35C564,723.25,559.21,720.46,555.93,716.24Zm1281.8,978c11.81,16.63,20.78,35.87,22,56.23s-6.07,41.87-22,54.59c-1.75,1.4-3.75,2.94-4,5.17-.24,2,1.09,3.92,2.29,5.6a86.83,86.83,0,0,1,14.3,66.76l-5.23,12.2a49.67,49.67,0,0,1-32.29,36.22c-2.42.8-5,1.46-6.91,3.15-4.12,3.62-3.46,10-3.73,15.51a35.73,35.73,0,0,1-7.14,19.65c-5.39,7.12-13.91,13.24-14,22.18,0,4.51,2.21,8.68,3.9,12.86,3.6,8.89,4.43,20.07-2,27.2-5,5.54-13.31,7.44-17.64,13.5-4.19,5.87-3.4,14-.89,20.76s6.52,12.93,8.48,19.87c5,17.77-4.2,36.13-13.22,52.25-2.86,5.13-5.91,10.44-10.78,13.74-10.2,6.9-25.32,1.74-32.08-8.56-2.33-3.56-4-7.7-7.22-10.47-4.09-3.51-10-4.14-15.32-3.46s-10.52,2.47-15.86,3.19c-16.72,2.24-34-7-42.76-21.4s-9.32-33.08-2.91-48.67c4.69-11.4,12.67-21.09,20.71-30.44l7.25-13.92a395.1,395.1,0,0,1,36.46-23.94c4.83-2.83,10-5.94,12.19-11.09,2.46-5.8.38-12.43-1.83-18.33-2.4-6.42-6.34-13.84-13.18-14.15-1.42-.06-2.93.19-4.19-.47-1.47-.77-2.09-2.54-2.3-4.18-.41-3.36.43-6.75.45-10.14s-1.08-7.18-4.08-8.76l3.51-7c2.51-2.71,1.4-7.32-1.18-10s-6.2-3.91-9.5-5.57a41.5,41.5,0,0,1-22.33-35.06,51,51,0,0,1,5.24-23,4.77,4.77,0,0,0,.65-2.39,4.51,4.51,0,0,0-1.19-2.23l-6.42-7.94-2.2-10.7a22.45,22.45,0,0,0-8.27-11.84,15,15,0,0,1-2.63-2.12,3.53,3.53,0,0,1-.94-3.11,5.07,5.07,0,0,1,1.8-2.34l9.67-8.37-.52-.88a15.2,15.2,0,0,1-9.65-2.29,45.24,45.24,0,0,1-7.84-6.32,19.58,19.58,0,0,1-3.82-4.37c-2-3.47-1.67-7.74-1.3-11.71l-1-.62-7.08-3.43a29.69,29.69,0,0,0-3.27-1.43c-1.63-.55-3.34-.81-5-1.3a8.64,8.64,0,0,1-4.37-2.61l-2.52-6.92a25.48,25.48,0,0,1,8.72-37.82l-8.49-11a67.42,67.42,0,0,1-6.63-9.74c-5.38-10.29-5.14-22.61-3.13-34l7.86-6.41c3.93-9.84,12.91-16.68,21.95-22.22l.62-.72c-2.46-5.1-2.85-10.91-3.21-16.57-.47-7.6-.89-15.55,2.21-22.5a42.11,42.11,0,0,1,3.35-5.83,168.69,168.69,0,0,1,11-14.83l0-1.09a16.37,16.37,0,0,1-10.09-2.21c-3.79-2.27-6.48-6-9.86-8.82-4.82-4-11-6.31-15.55-10.61a28.88,28.88,0,0,1-7.88-14.22,57.67,57.67,0,0,1-1.24-16.38c.28-6.14,1.29-12.78,5.7-17.06l1.37-2.21.82-1.88a12,12,0,0,1,7.63-7.5l.76-1.79c-6.07-3.62-10.39-9.7-12.93-16.29s-3.4-13.7-3.74-20.75c-.29-6.13.09-13,4.52-17.24-6.36-.92-11.25-5.92-15.61-10.64-3.94-4.27-8-8.68-10-14.13-1.77-4.77-1.85-10-1.7-15.06a183.48,183.48,0,0,1,1.44-18.43l-.54-1.11c-6.85-.12-13.31-4-17.58-9.34s-6.52-12.11-7.48-18.9-.72-13.68-.45-20.53a35.37,35.37,0,0,1,.95-8.09,29.49,29.49,0,0,1,3.83-7.88c2.92-4.54,6.4-8.9,11-11.67l.92-.86c-8.62-3.24-14.73-11.42-17.27-20.28s-1.92-18.31-.26-27.37a36,36,0,0,1,2-7.39,33.7,33.7,0,0,1,2.92-5.34,79.38,79.38,0,0,1,15.72-17.74l.12-.65a41.71,41.71,0,0,1-18.8-2.13l-.25,1.07c.11,5.87-1.54,11.61-3.18,17.25-2.07,7.15-4.23,14.47-8.69,20.44-6.53,8.74-17,13.37-26.33,19a19.08,19.08,0,0,0-6,5c-1.79,2.54-2.35,5.73-2.76,8.81-1.75,13-1.77,26.42-5.9,38.9s-13.68,24.32-26.67,26.29l-1.49.42a69.75,69.75,0,0,1-26.6,11.08,21.92,21.92,0,0,0-6.46,1.8c-3,1.6-4.91,4.64-6.71,7.53-8.85,14.24-18.57,28.36-31.85,38.59a114.05,114.05,0,0,1-15.65,9.9c-14.24,7.67-29.68,13.64-45.8,15s-33-2.19-45.92-12h-1a75,75,0,0,1-45.75-3.6l-1.61-1.93c-1.57-.32-2.66-1.69-3.8-2.81a15.65,15.65,0,0,0-10.24-4.39l-1.4.61-.94-1.49c-6.44-2.24-13.62-1.57-20,.74s-12.16,6.14-17.6,10.23a7.69,7.69,0,0,0-2.87,3.18c.63-6.48-2.07-12.77-4.87-18.64a26.33,26.33,0,0,0-3.41-5.77c-2.39-2.83-5.81-4.55-9-6.49s-6.31-4.37-7.54-7.87l-1.33-.4c-10.83,2.72-22.13-1.25-32.46-5.51-5-2.07-10.12-4.28-14.23-7.84-2.92-2.53-5.24-5.65-7.76-8.57-5.23-6.07-11.61-11.47-19.27-13.79-3-.92-6.22-1.34-9.13-2.57-4.1-1.73-7.39-5-10.09-8.49l-.41-.79h0c1.27-.32,2.54-.6,3.82-.84,4.72-.87,9.56-1.14,14.18-2.45a32.74,32.74,0,0,0,14.48-8.65c5.32-5.48,8.91-13,15.73-16.43,6.15-3.11,13.45-2.16,20.34-2.12,19.25.11,37.62-7.39,55.39-14.77l-.35-1.32-21.69-15.51a24.13,24.13,0,0,0-4.58-2.78,31,31,0,0,0-5.46-1.46,52.41,52.41,0,0,1-16.1-6.53c-3.82-2.36-7.59-5.3-12.06-5.71a55.2,55.2,0,0,0-6.29.24c-4.64.09-9.13-1.48-13.53-3a340.63,340.63,0,0,0-37.79-10.25c-6.58-1.39-14-2.43-19.57,1.35l-.39.53c-10.13-4.14-20.91-8.36-31.7-6.56-4.6.77-8.95,2.61-13.43,3.94a71.86,71.86,0,0,1-19.13,2.82l-.66-.82A69.22,69.22,0,0,1,966.44,1208c-.36-5.6,0-11.33-1.69-16.7-1.54-5-4.71-9.4-7.63-13.8-5.73-8.65-10.71-18-13-28.1-1.6-7-1.87-14.27-3.24-21.34-4.34-22.51-19.28-41.43-35.1-58-5.36-5.63-10-11.23-13.43-18.19-9.56-19.28-.12-42.71-4.46-63.79-1.22-5.91-4-12.08-9.41-14.68L872.14,969c-4.94-6.35-5.5-15-5.85-23-.57-12.85-1-26.35,4.75-37.85,3.79-7.56,10-13.63,14.43-20.82,8.85-14.27,10.81-32.74,22.64-44.65l14.47-15c3-1,6-1.87,9-3,11.56-4.3,21.23-12.42,30.65-20.39l11.94-5.6c6.42-.81,12.1-4.39,18-7,10.82-4.8,22.71-6.46,34.3-8.82a21.56,21.56,0,0,0,6.73-2.21,18.35,18.35,0,0,0,4.18-3.69,49.18,49.18,0,0,0,7-10.36,47.55,47.55,0,0,1,3.73-6.88,19.8,19.8,0,0,1,3.29-3.43l4.94-1.8c13.35-4,27.48,2.37,41.41,2.39,6,0,11.83-1.15,17.71-2,11.86-1.82,24.2-2.58,35.7.87,13.07,3.92,24,12.95,33.6,22.62s18.44,20.27,29.3,28.54a29.91,29.91,0,0,0,9,5.11c5.52,1.7,11.5.62,17.22,1.42l.08-1.27a92.26,92.26,0,0,0-23.1-36.26l-1.32-.21A104.17,104.17,0,0,1,1190,758.8c-7.51-6.63-14-14.31-20.48-21.95l-7.23-8.54-1.64-.1c-4.6,1.42-8.93-2.79-13.65-3.77-3-.63-6.21.12-9.27-.38-2.75-.45-5.25-1.88-8-2.45-3.76-.8-7.66.08-11.51,0-4.14,0-8.19-1.14-12.3-1.73s-8.48-.64-12.16,1.28l-2.64.65-32.86,1.41L1025.67,718c-49-5-98.37-3.94-147.61-2.9l-115.84,2.46-7.75,1.76a49.26,49.26,0,0,0-4.83-6l-4-4.17a135.12,135.12,0,0,1-2.6-45l4.06-9.32,9.18,3L864,657.31c-12.39-33.76-52.63-53.15-59.76-88.4-1.87-9.23-1.21-18.75-1.25-28.17-.1-24-4.79-47.81-7-71.76s-1.75-48.88,7.86-70.93c8.73-20,24.33-36.17,36.49-54.34,14.65-21.88,24.79-47.4,44.41-65,16.28-14.58,37.48-22.18,58.1-29.44l8.62-8.38c19.43-4,30.89-23.38,45-37.28A95.52,95.52,0,0,1,1045.8,178c17.29-3.2,35.2-1.54,52.52-4.58,33.42-5.85,61.29-28.32,92.84-40.79C1239,113.69,1296,119.53,1339,147.77l14.91,1.43c22.33-4.4,44.87,5.07,65.3,15.12s41.64,21.2,64.39,20.38a82.11,82.11,0,0,0,22.67-4.38,114.7,114.7,0,0,0,35.35-19.07c8.54-6.79,17.43-15.3,28.32-14.75,2.1.11,4.35.67,5.65,2.31a8.51,8.51,0,0,1,1.42,4.72c.8,9.87-1.07,20,1.3,29.61,2.79,11.31,11,20.34,17,30.38,9,15.28,12.71,33.32,12.51,51.07s-4.13,35.26-9.53,52.17l-2.47,5.27c-.57,21.34-12.61,40.49-24.78,58s-25.25,35.6-28.42,56.71c-1.25,8.33-.89,16.82-2,25.16-3.33,24.37-20.39,46.38-43.15,55.69-22.26,9.09-47.32,6.27-71.27,8.42A169.5,169.5,0,0,0,1363,544.55l-4.18,7.24-7.47,5.45c-18.8,16.63-25.59,43.81-22.83,68.77.61,5.51,1.64,11,1.55,16.55a58.7,58.7,0,0,1-3.2,17.18c-2.56,7.91-6.26,15.71-12.37,21.35-4.71,4.36-10.62,7.21-16.53,9.73a79.14,79.14,0,0,1-15.4,5.14c-9.56,1.91-19.43.88-29.18.87a139.27,139.27,0,0,0-45.42,7.6l.59-.18q18.4,2.81,36.58,6.88c8.57,1.93,17.37,4.19,24.35,9.52-15.22-3.5-30.69,3.73-46.27,4.9a13.42,13.42,0,0,1,8.6,5s140,41.6,227.07,140.36l1.75,1.26c2.81,2.89,7.93,1.28,11.42,3.31a5.85,5.85,0,0,0,2.2,1.07,4.94,4.94,0,0,0,2.23-.58,9.42,9.42,0,0,1,12.86,8.87,3.9,3.9,0,0,1-1.56,3.46,4.75,4.75,0,0,1-2.15.46l-14.79.81c.72,2.13,3.58,2.86,4.44,4.93.23.56.3,1.18.49,1.76a8,8,0,0,0,2.93,3.39l10.46,8.26,1.16-.79a44.4,44.4,0,0,1,28-10.14,57.14,57.14,0,0,1,28.94,7.81,84.59,84.59,0,0,1,14.9,11,27.63,27.63,0,0,0,5.7,4.43,8,8,0,0,0,7,.51l7.63-5.91,9.81,3.33c8.33-.07,16.37,3.62,22.84,8.89s11.52,12,16.17,19c3.15,4.68,7.22,10,12.85,9.73l3.7-1.17,3.54,6.15c12.76-1.67,25.86,4.57,33.93,14.59s11.41,23.33,10.75,36.18c-.32,6.29-1.58,12.64-4.62,18.17s-8,10.18-14,12l-4.66,4.82c-1.25,1.88-3.91,2.74-4.55,4.91a4.26,4.26,0,0,0,1.1,3.89,12.61,12.61,0,0,0,3.4,2.45l2.46,2.58c15.1,5.89,30.31,12.1,43.24,21.87,4.68,3.53,9.1,7.61,12,12.73,4.16,7.44,4.62,16.61,2.36,24.83s-7,15.58-12.79,21.88l.14,1.07c10.49,9.61,21.24,19.6,27.12,32.56a63.54,63.54,0,0,1,3.54,10.12c2.1,8,2.94,16.45,1.48,24.6s-5.33,16-11.57,21.45l-.7,1.73c6.6,3.21,11.18,9.37,15.51,15.31l9.65,2.6,7.51,8.08a46.28,46.28,0,0,1,6.79,34.91c6.12,3.12,12.3,6.27,17.65,10.59,12.43,10,19.4,25.77,21.14,41.65,1.67,15.29-1.86,32.22-13.55,42.23l.27,6c-9.6.92-19.18,1.15-28.71,2.69l-4.66,2.3c10.4,4.16,15.7,15.75,18.18,26.67,3.18,14,3,29.93-5.73,41.36l.42.49a23.62,23.62,0,0,1,9.43.57,47.32,47.32,0,0,1,7.8,3.15l7.7,3.65c4.13,2,8.46,4.09,11,7.87l6.19,2.9,9.8,10.86a28.61,28.61,0,0,1,2,9.31l-.23,9.06q-2.37,13.21-4.75,26.43c-.84,4.67-1.68,9.46-.86,14.14,1.78,10.11,10.64,17.13,17.71,24.58a87.83,87.83,0,0,1,23.64,53.17c.63,8.12.06,16.53-3.31,23.94-2.65,5.81-6.9,10.74-11.24,15.43A290,290,0,0,1,1837.73,1694.25Zm-503.2-899.09-17.28-11a64.85,64.85,0,0,0-6.44-3.77c-3.93-1.92-8.19-3-12.24-4.69-3.4-1.4-6.65-3.16-10-4.66a141,141,0,0,0-13.73-5.07L1241,754.79l-.43-.23a13.46,13.46,0,0,0,4.08,8.84,91.51,91.51,0,0,0-17.46-3.92c9.7,6.62,15.59,17.38,21.12,27.74l16.31,30.51.83,1.95L1280,809.09c4.64-3.38,9.32-6.78,14.51-9.23,11.93-5.62,25.68-5.82,38.81-4.59Zm243,222.65q9,9,17.3,18.66a2.35,2.35,0,0,0,1,.84,2.49,2.49,0,0,0,1.21,0,50.78,50.78,0,0,1,11.14-1v-1.15a30.57,30.57,0,0,1-17.26-20c-.75,1.92-3.09,2.64-5.14,2.89A29.45,29.45,0,0,1,1577.5,1017.81Zm5.73,42.07a5.9,5.9,0,0,0,1-1.84c1.41-3.73,2.85-7.69,2.09-11.6-.71-3.68-3.25-6.7-5.8-9.44a159.17,159.17,0,0,0-21.71-19.47,29.16,29.16,0,0,1-1.92,13.61l1.53.88a21.65,21.65,0,0,1,8.93,27.92,22,22,0,0,1,9.53,5.68,14.28,14.28,0,0,1,4.64-4.51A7.12,7.12,0,0,0,1583.23,1059.88Zm43.43,53.3c-2.58-1.65-1.63-5.77-3.29-8.34-.6-.92-1.51-1.6-2.16-2.5-1.74-2.4-1.19-5.67-1.24-8.63a2,2,0,0,0-.33-1.24,2.23,2.23,0,0,0-1.32-.56c-5.9-1.13-10.79-5.54-13.8-10.75s-4.39-11.2-5.46-17.12q-.88-4.9-1.53-9.86a34.56,34.56,0,0,0-8.39,11.06c-1.06,2.23-2.12,4.8-4.42,5.68l-.91,1.22c2.3.66,3.62,3,4.58,5.23a53.5,53.5,0,0,1,4.65,21.3,38.72,38.72,0,0,1-5.91,20.84,76.12,76.12,0,0,1,25.39,4.68c2,.74,4.24,1.85,4.72,3.93l.84.09a48.48,48.48,0,0,0,7.47-13.38Z"></path>
    <path data-name="4a" data-official="" data-plain="Flower" data-loc="" d="M1155,2596.51a102.14,102.14,0,0,0,11.12-35,10.52,10.52,0,0,0-.17-4.74c-1.59-4.59-7.8-5-12.65-4.79-7.77.33-15.77,0-23-2.9s-13.53-9-15-16.59c-1-5,.18-10.19.77-15.28a42.66,42.66,0,0,0-.91-16.51c-1.67-5.89-5-11.13-7.25-16.84s-3.13-12.47.05-17.7,9.51-7.5,15.54-7.94,12.08.65,18.12.53a9.3,9.3,0,0,0,5.23-1.25c4.41-3.06,1.78-9.82,1.69-15.19-.09-6.25,4.14-11.95,9.47-15.21s11.64-4.48,17.82-5.34c7.5-1,15.31-1.62,22.47.81s13.54,8.54,14.15,16.08c.26,3.24-.53,6.48-.52,9.73s1.14,6.85,4,8.38c1.85,1,4.07.92,6.17.83,7.76-.31,15.73-.44,23,2.18s13.91,8.59,15.07,16.27c.89,5.85-1.44,11.71-4.38,16.85a68.77,68.77,0,0,1-8.35,11.63c-1.44,1.63-3,3.37-3.18,5.54-.29,4.52,5.34,6.59,8.79,9.53,5.82,4.95,5.62,14.66,1.07,20.8s-12.25,9.2-19.81,10.36-15.27.73-22.88,1.45c-3.24.31-6.76,1-8.89,3.44-1.61,1.85-2.13,4.37-2.6,6.77-1,5.07-1.88,10.67.77,15.1s7.67,6.18,11.82,9a29.07,29.07,0,0,1,11.13,32.28,8.58,8.58,0,0,1-2,3.61,9.13,9.13,0,0,1-3.92,1.89c-14.74,4.15-30.43,2-45.59-.15-5.84-.83-11.89-1.74-16.82-5s-8.38-9.52-6.47-15.1Z"></path>
    <path data-name="4b" data-official="" data-plain="Pistil" data-loc="" d="M1313.58,2567.58a38.42,38.42,0,0,1-7.22-31.3c1-4.59,2.81-9,3.89-13.51,2.6-10.92.82-22.45-2.53-33.16-1.81-5.78-4.2-11.62-8.61-15.79-6.2-5.85-15.76-7.81-20.59-14.84a16.74,16.74,0,0,1,.65-19.06,18.31,18.31,0,0,1,18.18-6.46c5.26,1.17,10.9,4.54,15.59,1.88,1.82-1,3.06-2.81,4.37-4.45,3.75-4.67,8.73-8.65,14.6-9.87s12.64.84,15.81,5.93c2,3.25,2.6,7.56,5.68,9.83s7.36,1.54,11.15.95c6.9-1.08,15.37-.62,19,5.37,2.54,4.22,1.55,9.78-.91,14s-6.2,7.62-9.46,11.31a63.78,63.78,0,0,0-15.24,49.83c.9,6.93,3,13.7,3.51,20.67.6,7.74-.68,15.53-.11,23.27.5,7,2.5,13.78,3.27,20.74s.14,14.49-4,20.12c-4.28,5.8-11.5,8.6-18.52,10.24a89.08,89.08,0,0,1-20.9,2.34c-7.85,0-16.67-1.72-21.08-8.23-3.47-5.13-3.15-12.16-.5-17.77s7.3-10,12.19-13.82Z"></path>
    <path data-name="4c" data-official="" data-plain="Seed-vessel" data-loc="" d="M1429.31,2568.71a21.18,21.18,0,0,0-2.09-16.73c-3.78-6.29-10.48-10.08-16.12-14.77-10.86-9.05-18.28-22.62-18.36-36.76s7.85-28.42,20.62-34.47c5.58-2.64,11.88-3.75,17.06-7.1,4.33-2.81,7.55-7,11.51-10.31s9.29-5.79,14.2-4.22c7.26,2.33,9.79,12,16.77,15.09,2.23,1,4.71,1.18,7.1,1.64,14.33,2.75,25.65,15.74,28,30.15s-3.72,29.51-14.23,39.64c-3.62,3.49-7.72,6.45-11.28,10-7.37,7.37-12.26,17.93-10.49,28.21,1.27,7.31,5.65,13.66,8.42,20.55s3.57,15.61-1.53,21c-3.69,3.91-9.4,5-14.71,5.82-10.35,1.66-20.76,3.32-31.24,3.31a23.4,23.4,0,0,1-8.37-1.15,15.3,15.3,0,0,1-9.14-11.44,20.59,20.59,0,0,1,3.13-14.62c3.29-5.2,8.51-9.19,10.68-14.94Z"></path>
    <path data-name="4d" data-official="" data-plain="Seed" data-loc="" d="M1556.36,2576.51c4-3.14,3.86-9.49,1.43-14s-6.51-7.78-9.77-11.68c-5-5.93-8-13.21-10.53-20.52-4-11.65-7-23.86-6.56-36.18s4.41-24.82,12.81-33.84a61.5,61.5,0,0,1,12-9.58,50.62,50.62,0,0,1,11.8-5.88,41.22,41.22,0,0,1,19.84-.77,56,56,0,0,1,40.7,78.13c-5.72,12.64-15.87,22.64-24.25,33.7-2.59,3.43-5.13,7.28-5.13,11.58,0,6.84,6.12,11.82,10,17.47,5.5,8.05,6.35,19.54.66,27.45-4,5.57-10.53,8.76-17,10.89a81.75,81.75,0,0,1-37.68,3.13c-3.52-.53-7.19-1.39-9.81-3.8a14.68,14.68,0,0,1-3.58-5.71c-4.23-11.14.29-24.95,10.3-31.42Z"></path>
</svg>
