
<svg xmlns="http://www.w3.org/2000/svg" viewBox="0 0 2115 2843" id="illustration" preserveAspectRatio="xMidYMid meet">
    <title>Lauraceæ</title>
    <path data-name="1" data-official="Laurus nobilis" data-plain="Sweet Bay" data-loc="Italy" d="M1331.08,1433.53a7.88,7.88,0,0,1,.85,3.16,9.56,9.56,0,0,1-1.42,4,23.74,23.74,0,0,0-2.33,7.95,8.58,8.58,0,0,1-.63,3,7.47,7.47,0,0,1-3.1,2.72,217.94,217.94,0,0,0-21.29,14.36l-1,1.48a192.09,192.09,0,0,0-30,15.2l-2.25-.14-35.47-.35-9.75-5.36c-3.25,3.35-3.44,8.54-3.24,13.2.49,11.6,2.12,23.4-.47,34.72l-1.53,1.3c1.67,1.81,1.72,4.54,1.66,7q-1,45.4-3.14,90.77l-.52,1.38c2.14,2,2.38,5.24,2.44,8.17,1.23,57.42-10.92,114.18-22.33,170.47-1.63,8-3.22,16.47-.65,24.23,1.29,3.9,3.61,7.56,3.78,11.67.31,7.86-7.06,13.59-13.64,17.89l-1,3.09a98,98,0,0,1-5.74,39.2c-1.34,3.68-2.91,7.32-3.45,11.2-.44,3.16-.17,6.36-.25,9.55-.22,8.8-3,17.3-5.71,25.68q-16.95,52.92-28.68,107.34c-5.41,25.06-10,50.67-7.93,76.22L1141,2169a288.9,288.9,0,0,1,8.78,111.4c-.67,5.74-1.56,11.57-4.18,16.7s-7.32,9.54-13,10.4c-16.16,2.45-27.14-22.63-43.15-19.36-3,.62-5.73,2.24-8.69,3.09-11.48,3.26-23.5-6.69-26.31-18.28s1.28-23.75,6.66-34.4c3.08-6.11,6.69-12.32,6.81-19.16.1-6.1-2.6-11.86-3.94-17.81-3.36-15,2-30.34,7.2-44.75l10.92-17.75c6.36-52.22,38.78-99.07,42.05-151.57l1.41-.43a276.69,276.69,0,0,0,17.72-77.55l1.61-.81c3.37-4.12,4.62-9.54,5.76-14.74q7-32.12,14.09-64.22l.64-1.3c-2.53-12.16,1.31-24.6,4.42-36.63s5.38-25.25.07-36.48l1.55.43a560.81,560.81,0,0,0,21.4-185.08l-.6-2.17c-2.07-22.5-3-45.09-3.93-67.67l-1.87.93a50.66,50.66,0,0,1-12.47-1c-4.37-.9-8.62-2.37-13-2.9-9.07-1.09-18.75,1.76-27.12-1.86l-4.33-2.94a207.66,207.66,0,0,1-27.54-18.45l-1.59-8.81a214.66,214.66,0,0,0,25.83-12L1133,1457c5.65,2.06,12.44,4,17.25.39,3.94-3,4.8-8.39,7-12.8a21.74,21.74,0,0,1,17.79-11.77q-.07-20.28-.13-40.56l.51-9.86c8.4-.93,16.19-4.85,23.25-9.5A113.65,113.65,0,0,0,1214,1360.8c2.74-2.58,5.42-5.34,8.78-7.07l8.17,4.65c.68,4.31,2,9.38,6.08,10.84a13,13,0,0,0,5,.38c31.06-1.32,62.28,15.06,78.84,41.37l4.7,9.54Zm-610.32-18.24-12,.88c-18.06,2.6-36.35,5.27-53.18,12.31-21.51,9-39.49,24.62-59.64,36.35a107.92,107.92,0,0,0-12.2,7.63c-4.34,3.38-7.95,7.58-11.54,11.75-5.47,6.36-11,12.79-14.92,20.21-3.44,6.49-5.57,13.58-7.5,20.67q-3.81,14-6.67,28.21c-1.58,7.84-2.93,15.72-4.29,23.6s-2.7,15.75-4.06,23.63c-1.18,6.9-2.38,13.86-2.21,20.87a4.85,4.85,0,0,0,.84,3.13,4.55,4.55,0,0,0,3.18,1.21c6.11.47,12.06-1.77,17.77-4,10.69-4.12,22.31-9,27.47-19.27,1.15-2.28,2-4.83,3.86-6.56s4.51-2.35,6.83-3.45c8.76-4.17,12.61-15,21-19.83,4.94-2.84,10.84-3.29,16.53-3.67l7.57-6.51c3.58-20,12.77-38.45,23.06-55.92,5.3-9,11-17.86,18-25.54,4.68-5.07,9.92-9.58,15-14.31a224.79,224.79,0,0,0,28.57-32.66,11.43,11.43,0,0,0,2.07-3.89C725.54,1425.1,719.88,1420.42,720.76,1415.29Zm618.54-199-3.07,2.51c-9-.5-17.76,5.16-26.67,3.65l-9.77,6c-6.88-5-16.4-4-24.69-2s-16.95,4.8-25.17,2.5c-6-1.68-11.18-6-17.36-6.86-5.3-.76-10.62,1.11-15.55,3.22-6.4,2.74-12.59,5.93-18.77,9.12-4.34,2.24-8.88,4.64-11.57,8.72s-2.69,10.36,1.29,13.19l-4.77,4.82-32-7a66.74,66.74,0,0,1-9.67-2.64,33.2,33.2,0,0,1-12-7.94l-7.87-3.12a61.2,61.2,0,0,0-10-.91c-4,0-8.25.4-11.64,2.59-5.31,3.41-7.33,10.62-5.84,16.75s5.92,11.2,11.06,14.85,11,6.07,16.8,8.65,11.51,5.43,16.13,9.73l7.86,1.3,6.48-3.06a20.52,20.52,0,0,0,5.42-2.45,4.47,4.47,0,0,1,1.95-.88,4,4,0,0,1,1.69.39q16.92,6.57,33.43,14.15l6.22,23.94,1.59,16.36a19.64,19.64,0,0,1,.06,5.08c-.86,5.23-5.7,8.85-10.51,11.09a49.21,49.21,0,0,1-21.55,4.58l-3.77-4.26-4.56-23.87a4,4,0,0,0-1.14-2.52c-1.29-1-3.16-.14-4.53.76-9.87,6.43-19.85,13.37-31.4,15.67l-7.81-1.63c-4.17-.78-7.72-3.4-11.18-5.86a258.81,258.81,0,0,0-28.26-17.48,23.21,23.21,0,0,1-6.4-4.35c-1.76-1.91-2.82-4.68-2-7.14l.27-9.12a243.45,243.45,0,0,0-154.21-31.51l-10.16.89-10.42,9.61a4.31,4.31,0,0,0-1.28,1.64c-.69,2,1.61,3.62,3.38,4.78,4,2.62,6.94,6.64,9.62,10.64,1.41,2.1,2.84,4.38,2.87,6.92s-2,5.26-4.49,5l-1,.93a17.29,17.29,0,0,1-7.06,17.3c-2.21,1.51-5,2.74-5.8,5.29s.74,5.13,1.39,7.7c2.51,9.94-8.47,19.65-5.87,29.56,1.36,5.18,6,8.65,9.79,12.44a80.67,80.67,0,0,1,9.34,11.87c2.21,3.25,4.28,7.88,1.58,10.73l-1.23,1.54c7.34-.32,13,6.09,17.46,11.91s10.14,12.24,17.48,11.9c2.17-.1,4.28-.81,6.46-.85,4-.08,7.68,2.13,10.57,4.88s5.17,6.06,7.92,8.94a37.63,37.63,0,0,0,14.57,9.46l.94,1.71c-3.23,2.85-8.12,2.93-12.26,1.76s-7.93-3.39-12-4.69c-17-5.39-35.84,5.62-52.94.64-7.86-2.28-14.36-7.7-20.61-13L870,1429a26.32,26.32,0,0,0-5.37-3.81c-7.54-3.64-16.6.47-24.81-1.13-5.23-1-9.72-4.28-13.73-7.78a99.68,99.68,0,0,1-19-22.26,19.25,19.25,0,0,0-3.73-4.84c-3.39-2.81-8.23-2.66-12.6-3.16-15.76-1.79-29.55-14.89-32.15-30.54l-8.6-5.26a54.65,54.65,0,0,0-37.42-6.09l-7.79-.19a394.5,394.5,0,0,0-102.11,12.15c-7.86,2-16.5,4.9-20.27,12.08-2.19,4.19-2.3,9.11-3.49,13.69-3.34,12.84-16.34,22.47-29.61,21.92-14.8-.62-27.05-12.09-41.62-14.78-13-2.41-26.21,2.46-38.58,7.25l-82.39,31.88c-9.54,3.69-19.51,7.45-29.7,6.52-19.55-1.77-34.54-23.75-29-42.6,6.55-22.45,33.38-31.7,47.43-50.4,5.31-7.06,8.67-15.36,12-23.55,9-22.34,17.79-48.76,5.23-69.31-8.21-13.45-25.22-24.24-22.71-39.8l-10.17-17.32c-18.77-60.2-37.72-123.88-23.63-185.33,2.26-9.84,5.37-19.74,4.46-29.79s-7.18-20.5-17.07-22.45c-7.69-1.52-15.37,2.33-21.93,6.61a140.27,140.27,0,0,0-52,61.81c-4.77,11.08-8.33,23.18-16.76,31.81s-24,12-32.17,3.09c-3.27-3.54-4.78-8.33-6.08-13a304.67,304.67,0,0,1-10.9-95.28c.45-10.11.63-22-7.44-28.14-6.6,12.93-19,28.17-32.32,22.33-10.94-4.8-11.6-19.82-10.55-31.73,7.22-81.32,16.28-167.55,66.2-232.15q-40-3.33-80.12-5.54c-6.6-.37-13.56-.64-19.47,2.32-10.68,5.36-16.2,20.3-28.12,21-12.31-31.56-10.3-69,7.84-97.62s52.86-46.67,86.46-42.34l-2.52-9.8c-32.06-19.34-54.05-52.51-66.1-88s-15-73.3-16-110.73c-.08-3.43-.12-7,1.41-10.1,4.94-10,19.82-6.63,29.85-1.82,45.62,21.88,91.44,43.87,133.17,72.45,25,17.1,48.61,36.64,76.19,49.09-28-48.86-55.15-98.65-73.05-152.06s-26.28-111-16-166.41c1-5.2,2.16-10.55,5.26-14.84,6.44-8.88,18.75-10.58,29.68-11.54a278.82,278.82,0,0,1,44.14,48c6.33,8.75,12.26,18,20.46,25,7.06,6.06,15.51,10.22,23.63,14.79,62.14,35,106,94.88,162.27,138.66,2.13,1.66,4.36,3.33,7,4,5.81,1.47,11.85-2.66,14.64-8s3.1-11.51,3.47-17.49a525.37,525.37,0,0,1,26-133.75c3.7-11.09,10.34-24,22-24.32,6.74-.17,12.75,4.23,17.26,9.24,11.92,13.21,16.93,31,22.56,47.91,11.32,34,26.58,66.78,46.94,96.25,9.19,13.31,19.42,26,27.38,40,9.35,16.57,15.35,34.78,21.29,52.85q11.73,35.66,23.44,71.29L754.71,500c2.33,9.72,5.7,20.74,14.85,24.76,4.58,2,9.76,1.8,14.76,1.86,21.44.28,44.3,7.21,57,24.51,6.78,9.27,10,20.66,12,32,2.57,15.22,2.86,31.34-3.08,45.59-1.23,2.94-2.72,5.8-3.45,8.9a37.45,37.45,0,0,0-.71,8.46q-.27,26.05-.52,52.11c10.67-4.42,15.63-17.21,25.77-22.74,3.65-2,8-3.11,10.56-6.41,3.5-4.58,1.92-11.21,3.73-16.67,1.13-3.44,3.59-6.3,4.85-9.7,1.19-3.21,1.25-6.72,1.3-10.15l.39-28.94,5.52-9a61.63,61.63,0,0,1,10.09-16,11.94,11.94,0,0,0,2.86-4.34,17.34,17.34,0,0,0,.2-4.56,24.11,24.11,0,0,1,2.22-8.89,71.64,71.64,0,0,1,7.46-13.6l4.65-2.57a5.15,5.15,0,0,0,2.66-1.68,14.93,14.93,0,0,0,4.17-7.84,10.32,10.32,0,0,0-2.22-8.44l-2.33-3.84c-1-4.86-1.93-10.12.21-14.59,1.64-3.44,4.88-5.84,7-9a22.58,22.58,0,0,0,3.53-13.17,67.44,67.44,0,0,0-2.07-13.67l-1.33-6.54c0-7.09.49-15.12,5.88-19.72,1.35-1.14,2.93-2,4.29-3.12,4.31-3.55,5.91-9.32,7.66-14.62s4.29-11,9.38-13.26c5.8-2.61,12.92.12,18.81-2.31,6.5-2.68,9-10.41,10.76-17.23l6.41-4.32c8.79-1.32,18.45-3.12,23.95-10.1,2.43-3.07,3.78-6.86,6.15-10,4.23-5.54,11.11-8.22,17.65-10.65l12.1-4.5a22.59,22.59,0,0,0,6.15-3,24.67,24.67,0,0,0,3.55-3.67c2.14-2.49,4.38-4.9,6.72-7.2l15.31,1.61a12.77,12.77,0,0,1,3.54-6.05,40,40,0,0,0,4.68-5.32,7.93,7.93,0,0,0,1.24-6.75l-.49-3,6.71-7.75a29.86,29.86,0,0,1,4.26-4.3,30.21,30.21,0,0,1,4.28-2.55l7.07-3.7c5-2.6,10.36-5.28,15.92-4.5l7.86.59a7,7,0,0,1,4.5.72c1,.54,1.86,1.33,2.87,1.86,2.38,1.27,5.28,1,7.92.43s5.28-1.45,8-1.3a5.27,5.27,0,0,0,3-.27,4.2,4.2,0,0,0,1.24-1.34l4-5.81,1.61-1.9a46.51,46.51,0,0,1,26-1.8c3.2.7,6.81,2.26,7.46,5.46.53,2.63-1.22,5.13-3,7.12a57.12,57.12,0,0,1-10.46,9.11l-3.69,2.68-4.5,3.41a4.26,4.26,0,0,0-1.94,4.46,75.47,75.47,0,0,1-.87,10.4c-.55,3.51-1.51,7.27-4.32,9.44L1179.9,349a62.85,62.85,0,0,1-1.23,18.25l-2.48,5.17a6.45,6.45,0,0,1-5.41,4.17,6.14,6.14,0,0,0-3,.5,5,5,0,0,0-1.5,2.46,12.16,12.16,0,0,1-4.37,5.4,25.15,25.15,0,0,1,7.18,15.44l3.28,11c-.35,6.19-3.37,11.91-6.72,17.14a14.46,14.46,0,0,0-1.94,3.74c-.86,3,.31,6.08,1,9.09a28.5,28.5,0,0,1-8.71,26.91c-3.7,3.28-8.46,5.83-10.31,10.4a20.56,20.56,0,0,0-1.11,6.58q-.51,8.86-1,17.72l-3.54,1.57c-5.87,3.17-9.69,9.7-16,11.73a3.06,3.06,0,0,1-2,4.69c.43,5.17.6,10.8-2.4,15-3.43,4.84-9.84,6.29-15.67,7.39l-.44.71a4.61,4.61,0,0,1-1.45,6.78l-.21.86a33,33,0,0,1,4,12.78l2.26,7a40.23,40.23,0,0,1-12.7,20.35,13.66,13.66,0,0,1-5.13,3.05c-1.08.29-2.21.37-3.3.62a10,10,0,0,0-6,15.2l-1.59,8.61a21.18,21.18,0,0,1-4.69,8.47l-7,9.38c-1.84,2.09-4.09,3.82-5.83,6s-3,5.06-2.22,7.76l3.69,12.13c-3.48,4.75-2,11.35-3,17.17s-4.43,11-7.81,16l-.47,1.7a44.38,44.38,0,0,1,1.21,22.95,17.5,17.5,0,0,1-3.59,8.11c-2,2.23-5.19,3.58-8,2.68l-1.6.95q-.49,9-1.68,18a29.37,29.37,0,0,1-1.69,7.36c-1.91,4.6-6,8-10.49,10.19s-9.47,3.1-14.39,4l-.14.94a27,27,0,0,1-15.64,16.33,53.9,53.9,0,0,1-7.08,2l-7.79,1.82-.1,1.33c1.44,4.42-.25,9.48-3.54,12.78s-7.9,5-12.53,5.52c-4.25.49-8.86.14-12.48,2.43a13.61,13.61,0,0,0-4.07,4.3c-4.86,7.69-4.5,17.51-3.27,26.52A175.88,175.88,0,0,0,957,889.85c4.49,10.75,10.14,21.39,10.82,33,.22,3.71-.19,7.73-2.6,10.56l-.81.81c2.23.08,4.07,1.75,5.44,3.5s2.56,3.76,4.42,5c1.08.72,2.34,1.14,3.36,1.95,1.73,1.39,2.44,3.66,3.45,5.65a33.32,33.32,0,0,0,4.55,6.35q8.6,10.19,17.91,19.73l9.83,3.25c11.57,8.72,17.85,22.78,28.37,32.74a45.13,45.13,0,0,1,7-20.64c1.22-1.89,2.6-3.74,3.16-5.92l3.32-.51a8.48,8.48,0,0,0,6.46-2.55,23.5,23.5,0,0,0,4.08-5.86c6.64-12,12.51-25.4,11-39.08l-.52-.89a26.63,26.63,0,0,1-6.32-3.58,10.65,10.65,0,0,1-3.88-6,16.06,16.06,0,0,1-.18-3.4c0-3,.09-5.91.14-8.87l-.55-1c-10-1.39-18.88-7.92-24.35-16.41s-7.74-18.74-7.79-28.84,2-20.08,4.74-29.81a95.34,95.34,0,0,1,5.62-15.76c2.92-6.07,7-11.86,7.74-18.56a31.4,31.4,0,0,1,.71-5.42,5.23,5.23,0,0,1,3.55-3.82c2.58-.55,4.79,1.69,7.08,3,2.92,1.68,6.42,1.88,9.78,2.19a86.8,86.8,0,0,1,28.34,7.09c8.88,4.1,16.94,10.26,22.46,18.34,8,11.67,10.16,26.37,10.19,40.5,0,6.68-.46,13.55-3.34,19.57-1.91,4-4.8,7.44-7.65,10.83-5.6,6.64-11.49,13.5-19.45,17l-.58.14c3,.88,4.6,4.27,5.27,7.38.6,2.8.78,5.87-.56,8.4s-3.85,4-6.27,5.44a22,22,0,0,1-6.11,2.77l-.66.45a113,113,0,0,1-1.33,16.64,3.71,3.71,0,0,1-.72,2,1.3,1.3,0,0,1-1.86.15,23.49,23.49,0,0,1-2.26,9.24v.5l4.09.31a1.46,1.46,0,0,0,1-.15c.29-.21.38-.6.55-.93.74-1.43,2.75-1.43,4.35-1.27,4.14.4,8.46.45,12.29-1.16-.18,3-2.16,5.51-4.09,7.79-3.6,4.23-7.57,8.46-12.79,10.35a17.5,17.5,0,0,1-7.21,1,2.33,2.33,0,0,0-1.57.22,2.12,2.12,0,0,0-.64,1c-.48,1.11-1,2.22-1.45,3.34l-1.33,3.3a27.94,27.94,0,0,0,12.51,7.78l4,.5c9.6-.37,19.37-.73,28.65,1.76,5.69,1.53,11,4.09,16.4,6.53,13.07,6,26.68,11.43,41,12.47l.53,1.92c-1.93-.08-3.46,1.86-3.65,3.79a11.58,11.58,0,0,0,1.36,5.57c9.41,21.77,19,43.91,34.42,62l-16,14a109.38,109.38,0,0,1-107.8-56.47c-3.83,5.25-3.9,12.5-1.85,18.66s5.94,11.51,9.67,16.82a494.17,494.17,0,0,1,49.41,88.35l2.79,5.44a20.94,20.94,0,0,1,29,14.91l11.75-22.12c5-9.42,10.1-19,17.47-26.69s17.44-13.49,28.11-13.33l7.66,2.34a58.69,58.69,0,0,1,28.25,16.65c5.87,6.27,10.27,13.73,15.39,20.63,8.17,11,18.13,20.56,28,30C1324.57,1208.1,1331.08,1214.19,1339.3,1216.34ZM809.3,823c-21.39,4.13-44.63-3.37-44.63-3.37l-4.35,4.89a25.83,25.83,0,0,0,6,20.45l4.31,1.28S778.17,838.33,809.3,823Zm7.87-13.87-17.62-20.25a69.71,69.71,0,0,1-30,15.75C784.68,811.7,817.17,809.08,817.17,809.08Zm110.81,78-.22-1.22a200.4,200.4,0,0,1-3.16-28.8v-.57c-.19-2.57-.46-7.43-1.89-9.59a32.23,32.23,0,0,0-2.23-2.72,33.73,33.73,0,0,1-5.15-9.63,105.69,105.69,0,0,1-4.51-15l-1.12-1.36c-2.6.37-5.5.68-7.65-.84-2.83-2-3-6.1-5-8.9-2.8-3.89-8.26-4.42-13-5a51.71,51.71,0,0,1-16.86-4.33c-9.8-4.71-17-13.9-20.87-24.05s-4.77-21.24-4.37-32.1l-.27.45c-4.07,3.27-8,6.75-11.71,10.4l-.18.9c3.71,5.38,3.17,12.52,2.48,19-.11,1.11-.23,2.22-.35,3.34l.7,1.32c2.61.23,4.67,2.28,6.29,4.34a46.64,46.64,0,0,1,8.18,16l.11,1.42C875.76,827.59,899.69,859.47,928,887.11Zm21.13,69.68a673.22,673.22,0,0,1-42.41-53.57c-2.1-3-4.24-6-7.24-8A15,15,0,0,0,886,893.68c1.78-3.84.92-8.48-1.17-12.15s-5.28-6.57-8.42-9.41a18.69,18.69,0,0,1-.09,20l1.46.72c7.32,6.27,10.65,13.39,18.14,17.31,1.84,1,3.8,1.7,5.55,2.82,2.78,1.79,4.86,4.46,7,7a216.24,216.24,0,0,0,39.67,37.74Z"></path>
    <path data-name="1a" data-official="" data-plain="Pistil Flower" data-loc="" d="M1919.91,2601.25a140.07,140.07,0,0,1,30.91-7c8-.87,16.2-1.06,24-3.16s15.43-6.46,19.29-13.56c4.52-8.31,3.19-18.86,7.72-27.17,7.08-13,24.46-14.95,38-21,24.5-11.08,37.84-38.24,42.78-64.67,2.13-11.36,1.59-25.84-8.76-31-3.91-2-8.52-2.07-12.48-3.93-9-4.22-11.77-15.95-10.5-25.82s5.39-19.3,5.72-29.24-5-21.36-14.83-22.89c-6.43-1-14.36,2.06-18.71-2.78-2.92-3.25-2.25-8.2-2.15-12.57.46-21.68-18.21-39.86-38.76-46.76-5.22-1.75-10.78-3-16.21-2.08-4.47.73-8.57,2.84-12.54,5a288.59,288.59,0,0,0-40.07,26.51c-8.07,6.36-16.34,14.14-17.54,24.34-.55,4.71.5,9.47.14,14.19s-2.77,9.88-7.35,11.1c-1.84.5-3.79.28-5.68.5-9.93,1.14-14.55,12.85-15.95,22.75-5.59,39.46,6.78,79,19,117,1.94,6,4.13,12.41,9.11,16.31,9.45,7.39,24.85,2.8,33.74,10.86a15.52,15.52,0,0,1,1.82,20.22c-2.19,2.87-5.33,4.83-8,7.28a29.23,29.23,0,0,0-7.57,30.44Z"></path>
    <path data-name="1b" data-official="" data-plain="Stamen Flower" data-loc="" d="M969.74,2719.21c-9-7-14-18.05-16-29.24s-1.28-22.68-.54-34a13.25,13.25,0,0,0-15.29.69c-3.12,2.53-5.18,6.56-9,7.84-6.41,2.16-12.34-5.39-12.44-12.15s3.11-13.17,3.66-19.91c.87-10.74-5-20.91-5.81-31.65a15.39,15.39,0,0,1,1.25-8.23c4.17-8.11,16.29-6.72,24.4-2.54s16.85,10.14,25.51,7.3c-12.37-15.63-17.71-38.27-8.36-55.87,6.18-11.65,18.26-19.77,31.29-21.82s26.71,1.79,37.24,9.72c3.35,2.51,7.44,5.6,11.26,3.88,4.36-2,4.06-8.08,4.09-12.86,0-9.43,4.73-19.14,13.06-23.56s20.11-2.16,24.93,5.94c3.3,5.54,3,12.42,4.54,18.69s6.63,12.87,13,11.81c3.2-.54,5.73-2.89,8.26-4.93,12.33-10,31.88-13.54,43.53-2.77,7.81,7.21,9.94,18.59,10.82,29.18a208.63,208.63,0,0,1-.09,35.7,6.67,6.67,0,0,0,.53,4.2c2,3.21,6.85.84,10.5-.23,6-1.74,12.45,1.38,16.5,6.07s6.13,10.71,8.14,16.57c1.53,4.49,3.09,9.2,2.32,13.88-1.13,6.82-7.11,12-13.66,14.26s-13.63,2-20.54,1.84c6.71,9.7,13.73,20.53,12.51,32.26a34.1,34.1,0,0,1-4.62,13.21c-13,22.66-44.14,32.75-67.91,22-9.75,15.18,6.13,35.32,1.78,52.83-2.61,10.49-12.32,18-22.68,21.11s-21.42,2.5-32.21,1.89c-6.39-.36-13.63-1.14-17.51-6.24s-2.72-12.24-.84-18.31c5.83-18.74,17.34-37.21,13.61-56.47-15,20.86-44.15,30.33-68.59,22.31Z"></path>
    <path data-name="1c" data-official="" data-plain="Stamen" data-loc="" d="M2025.52,2727.08a176.61,176.61,0,0,0-.23-61.57c-2-11-5-21.74-7.25-32.67a230.79,230.79,0,0,1-4.5-55.5c.14-3.66.42-7.46,2.23-10.64,3.93-6.92,13.16-8.23,21.09-8.78,6.12-.42,12.86-.67,17.71,3.09a22.14,22.14,0,0,1,5.64,7.53,85.5,85.5,0,0,1,9.06,48.92c-2.05,17.8-9.68,34.61-11.63,52.42-1,9.14-.48,18.38.17,27.55.59,8.1,1.29,16.29,3.92,24,3,8.86,8.51,16.73,11.52,25.6s2.95,19.85-3.82,26.32c-5.54,5.29-13.9,6.09-21.56,6a144.32,144.32,0,0,1-31-3.77c-2.45-.57-5.25-1.53-6.05-3.91-.51-1.55,0-3.23.53-4.78q5.34-15.81,11.11-31.48Z"></path>
    <path data-name="1d" data-official="" data-plain="Section of Seed" data-loc="" d="M1912,2735.88a136.4,136.4,0,0,1-13.71-85.45c1.3-7.75,3.33-15.51,7.34-22.27,5.42-9.1,14.1-15.82,23.3-21.08a54.11,54.11,0,0,1,14.68-6.17c11.39-2.59,23.2.62,34.43,3.81,6.81,1.93,13.8,4,19.44,8.24,11.82,9,14.71,25.3,16.71,40,1.4,10.26,2.8,20.53,3.35,30.87.74,13.93-.59,29.21-10.08,39.43-8.88,9.57-24.23,14-27.86,26.56-2.48,8.61,1.18,19.67-5.51,25.63-2.8,2.49-6.7,3.24-10.4,3.83-12.37,2-24.84,3.46-37.34,4.35-4.89.35-10.27.47-14.14-2.54-7.4-5.75-3.92-17.44.2-25.86Z"></path>
    <path data-name="2" data-official="Cinnamonum javanicum" data-plain="Japanese Cinnamon" data-loc="Java" d="M851.15,535.76a106.28,106.28,0,0,1-30.51-71.15c-.25-8.63,1-18.19,7.49-23.9,5-4.41,12-5.52,18.6-6.46,11.5-1.64,23.2-3.27,34.68-1.51,15.49,2.38,29.32,10.73,42.69,18.9l10.65,14.25,1.33,6.54a67.44,67.44,0,0,1,2.07,13.67,22.58,22.58,0,0,1-3.53,13.17c-2.17,3.14-5.41,5.54-7,9-2.14,4.47-1.2,9.73-.21,14.59l2.33,3.84a10.32,10.32,0,0,1,2.22,8.44,14.93,14.93,0,0,1-4.17,7.84,5.15,5.15,0,0,1-2.66,1.68l-4.65,2.57L906.74,551l-28.18-2.76c-4.7-.47-9.47-.94-13.86-2.68C859.48,543.46,855.1,539.73,851.15,535.76Zm48.31,359.45A15,15,0,0,0,886,893.68c1.78-3.84.92-8.48-1.17-12.15s-5.28-6.57-8.42-9.41a18.69,18.69,0,0,1-.09,20l1.46.72c7.32,6.27,10.65,13.39,18.14,17.31,1.84,1,3.8,1.7,5.55,2.82,2.78,1.79,4.86,4.46,7,7a216.24,216.24,0,0,0,39.67,37.74l1.06-.91a673.22,673.22,0,0,1-42.41-53.57C904.6,900.27,902.46,897.23,899.46,895.21ZM764.67,819.58l-4.35,4.89a25.83,25.83,0,0,0,6,20.45l4.31,1.28s7.5-7.87,38.63-23.25C787.91,827.08,764.67,819.58,764.67,819.58Zm4.88-15c15.13,7.12,47.62,4.5,47.62,4.5l-17.62-20.25A69.71,69.71,0,0,1,769.55,804.58ZM928,887.11l-.22-1.22a200.4,200.4,0,0,1-3.16-28.8v-.57c-.19-2.57-.46-7.43-1.89-9.59a32.23,32.23,0,0,0-2.23-2.72,33.73,33.73,0,0,1-5.15-9.63,105.69,105.69,0,0,1-4.51-15l-1.12-1.36c-2.6.37-5.5.68-7.65-.84-2.83-2-3-6.1-5-8.9-2.8-3.89-8.26-4.42-13-5a51.71,51.71,0,0,1-16.86-4.33c-9.8-4.71-17-13.9-20.87-24.05s-4.77-21.24-4.37-32.1l-.27.45c-4.07,3.27-8,6.75-11.71,10.4l-.18.9c3.71,5.38,3.17,12.52,2.48,19-.11,1.11-.23,2.22-.35,3.34l.7,1.32c2.61.23,4.67,2.28,6.29,4.34a46.64,46.64,0,0,1,8.18,16l.11,1.42C875.76,827.59,899.69,859.47,928,887.11ZM2029.75,808.6c-4,21.23-8.9,42.26-14.18,63.2-19.43,77-44.89,155.65-98.49,214.3l-27.6,13.45c-29.53,33.46-63.28,60.06-63.28,60.06l3.13,15.29c-27.57,33-65.21,56.71-105.53,71.69-7.47,2.77-15.18,5.34-21.49,10.2a36.08,36.08,0,0,0-13.29,33.76l-5.18,8c-1.92,9-7.73,16.61-13.38,23.88q-12.24,15.78-24.49,31.54c-2.39,3.08-4.82,6.23-6,9.93-.76,2.33-1,4.81-1.78,7.14s-2.17,4.64-4.42,5.6l-6.65-.16s-27.56-11-55.69-16.87l-4.4-3a112.1,112.1,0,0,1-25.07-10.58l-4.47-2.37a44.33,44.33,0,0,1-23.32-22.2l-4.88-10.54a180.63,180.63,0,0,1-6.71-31.72,20.55,20.55,0,0,1,.08-7.42,7.52,7.52,0,0,1,4.61-5.47l3.77,2.54,33.08,23.64c4.37,3.12,9.39,6.41,14.68,5.47.38-7.41-2.61-14.5-5.18-21.45-8.59-23.23-13.06-47.74-17.5-72.1l1.06-6.19c-.53-.44-.14-1.33.4-1.76s1.25-.77,1.41-1.44a2.19,2.19,0,0,0-.11-1.1c-.37-1.37-.75-2.75-1.13-4.13l-4.12.66,3.34-1.89c-2.76-2.39-1.06-7.14-2.84-10.33-.88-1.59-2.57-2.67-3.19-4.38-.69-1.88.1-4.06-.6-5.93-.82-2.2-3.52-3.57-3.6-5.91a9.46,9.46,0,0,1,.43-2.33c.56-2.69-.47-5.43-1.47-8a11.92,11.92,0,0,0-3-5c-1.49-1.26-4-1.61-5.32-.21a7.07,7.07,0,0,1,4.53-2.48l-3-6.26a2.57,2.57,0,0,0-.88-1.19,2.65,2.65,0,0,0-1.25-.26l-5.59-.22,6.12-1.74c.61-1.58-1-3.31-2.71-3.38a6.39,6.39,0,0,0-4.43,2.17c.51-2.08,2.93-3,4.26-4.69a5.34,5.34,0,0,0-.85-7.25,13.15,13.15,0,0,1-2-1.53c-2.22-2.57.85-7.59-1.91-9.58a16.75,16.75,0,0,1-1.53-.92c-.93-.84-.82-2.3-.73-3.54.27-3.72-.36-7.71-2.81-10.51s-7.09-3.85-10-1.5l-2.77,4.41a93.41,93.41,0,0,0-9.25,19.57l-1.79,3.59-3.09,44.45c-.53,7.65-1.07,15.32-.57,23a8.64,8.64,0,0,0,1,4.21c.65,1,1.75,1.93,1.54,3.11-.13.75-.78,1.29-1.23,1.91a7.78,7.78,0,0,0-1.12,3.83,136.19,136.19,0,0,0,1.22,37.82l.4,1.26a19.46,19.46,0,0,1,4.39,13.57c.17,8.34.32,16.79-1.74,24.87l-9.29,0-5.87-1.89c-13.29-10.11-29.67-15.09-45.67-19.88l-34.29-10.27a52.34,52.34,0,0,1-10.19-3.84c-2.29-1.25-4.38-2.83-6.69-4-5.06-2.64-10.92-3.32-16.22-5.45a31.72,31.72,0,0,1-13.18-10l-4-5,3.07-2.51c-8.22-2.15-14.73-8.24-20.87-14.11-9.91-9.49-19.87-19-28-30-5.12-6.9-9.52-14.36-15.39-20.63a58.69,58.69,0,0,0-28.25-16.65l-7.66-2.34-4.43-3.31a21.46,21.46,0,0,0-4.2-3.56,44,44,0,0,1-16-22.92l2-9.75c-15.39-18-25-40.18-34.42-62a11.58,11.58,0,0,1-1.36-5.57c.19-1.93,1.72-3.87,3.65-3.79l-.53-1.92c-14.34-1-27.95-6.5-41-12.47-5.36-2.44-10.71-5-16.4-6.53-9.28-2.49-19.05-2.13-28.65-1.76l-4-.5a27.94,27.94,0,0,1-12.51-7.78l1.33-3.3c.48-1.12,1-2.23,1.45-3.34a2.12,2.12,0,0,1,.64-1,2.33,2.33,0,0,1,1.57-.22,17.5,17.5,0,0,0,7.21-1c5.22-1.89,9.19-6.12,12.79-10.35,1.93-2.28,3.91-4.81,4.09-7.79-3.83,1.61-8.15,1.56-12.29,1.16-1.6-.16-3.61-.16-4.35,1.27-.17.33-.26.72-.55.93a1.46,1.46,0,0,1-1,.15L1088,967v-.5a23.49,23.49,0,0,0,2.26-9.24,1.3,1.3,0,0,0,1.86-.15,3.71,3.71,0,0,0,.72-2,113,113,0,0,0,1.33-16.64l.66-.45a22,22,0,0,0,6.11-2.77c2.42-1.41,5-3,6.27-5.44s1.16-5.6.56-8.4c-.67-3.11-2.22-6.5-5.27-7.38l.58-.14c8-3.47,13.85-10.33,19.45-17,2.85-3.39,5.74-6.83,7.65-10.83,2.88-6,3.35-12.89,3.34-19.57,0-14.13-2.21-28.83-10.19-40.5-5.52-8.08-13.58-14.24-22.46-18.34a86.8,86.8,0,0,0-28.34-7.09c-3.36-.31-6.86-.51-9.78-2.19-2.29-1.3-4.5-3.54-7.08-3a5.23,5.23,0,0,0-3.55,3.82,31.4,31.4,0,0,0-.71,5.42c-.78,6.7-4.82,12.49-7.74,18.56a95.34,95.34,0,0,0-5.62,15.76c-2.7,9.73-4.78,19.72-4.74,29.81s2.33,20.36,7.79,28.84,14.35,15,24.35,16.41l.55,1c0,3-.09,5.91-.14,8.87a16.06,16.06,0,0,0,.18,3.4,10.65,10.65,0,0,0,3.88,6,26.63,26.63,0,0,0,6.32,3.58l.52.89c1.49,13.68-4.38,27-11,39.08a23.5,23.5,0,0,1-4.08,5.86,8.48,8.48,0,0,1-6.46,2.55l-3.32.51-38.5-6.18-9.83-3.25q-9.3-9.54-17.91-19.73a33.32,33.32,0,0,1-4.55-6.35c-1-2-1.72-4.26-3.45-5.65-1-.81-2.28-1.23-3.36-1.95-1.86-1.23-3-3.23-4.42-5s-3.21-3.42-5.44-3.5l.81-.81c2.41-2.83,2.82-6.85,2.6-10.56-.68-11.62-6.33-22.26-10.82-33A175.88,175.88,0,0,1,945.08,846c-1.23-9-1.59-18.83,3.27-26.52a13.61,13.61,0,0,1,4.07-4.3c3.62-2.29,8.23-1.94,12.48-2.43,4.63-.53,9.25-2.22,12.53-5.52s5-8.36,3.54-12.78l.1-1.33,7.79-1.82a53.9,53.9,0,0,0,7.08-2,27,27,0,0,0,15.64-16.33l.14-.94c4.92-.85,9.88-1.82,14.39-4s8.58-5.59,10.49-10.19a29.37,29.37,0,0,0,1.69-7.36q1.18-8.94,1.68-18l1.6-.95c2.85.9,6-.45,8-2.68a17.5,17.5,0,0,0,3.59-8.11,44.38,44.38,0,0,0-1.21-22.95l.47-1.7c3.38-4.93,6.85-10.07,7.81-16s-.5-12.42,3-17.17l-3.69-12.13c-.73-2.7.48-5.58,2.22-7.76s4-3.91,5.83-6l7-9.38a21.18,21.18,0,0,0,4.69-8.47l1.59-8.61a10,10,0,0,1,6-15.2c1.09-.25,2.22-.33,3.3-.62a13.66,13.66,0,0,0,5.13-3.05,40.23,40.23,0,0,0,12.7-20.35l-2.26-7a33,33,0,0,0-4-12.78l.21-.86a4.61,4.61,0,0,0,1.45-6.78l.44-.71c5.83-1.1,12.24-2.55,15.67-7.39,3-4.23,2.83-9.86,2.4-15a3.06,3.06,0,0,0,2-4.69c6.36-2,10.18-8.56,16-11.73l3.54-1.57,7.84-7c8.12-8.07,21.91-8,31.89-2.44S1200,509.06,1205,519.35c5.48,11.22,9.4,23.7,7.81,36.08s-9.8,24.49-21.85,27.73c-2,.53-4.4,1.19-4.85,3.18s1.22,3.47,2.62,4.75a41.05,41.05,0,0,1,13,26.33,503.47,503.47,0,0,1,126.44,3.15q-43.44-87-93.06-170.79c-2-3.43-4.11-6.9-7.06-9.58a40.36,40.36,0,0,0-8.95-5.61L1181,415.12l-8.62-3.81-3.28-11a25.15,25.15,0,0,0-7.18-15.44,12.16,12.16,0,0,0,4.37-5.4,5,5,0,0,1,1.5-2.46,6.14,6.14,0,0,1,3-.5,6.45,6.45,0,0,0,5.41-4.17l2.48-5.17A62.85,62.85,0,0,0,1179.9,349l2.45-5.81c2.81-2.17,3.77-5.93,4.32-9.44a75.47,75.47,0,0,0,.87-10.4,4.26,4.26,0,0,1,1.94-4.46l4.5-3.41,3.69-2.68a57.12,57.12,0,0,0,10.46-9.11c1.79-2,3.54-4.49,3-7.12-.65-3.2-4.26-4.76-7.46-5.46a46.51,46.51,0,0,0-26,1.8l-1.61,1.9-4,5.81a4.2,4.2,0,0,1-1.24,1.34,5.27,5.27,0,0,1-3,.27c-2.7-.15-5.34.72-8,1.3s-5.54.84-7.92-.43c-1-.53-1.87-1.32-2.87-1.86a7,7,0,0,0-4.5-.72l-7.86-.59c-5.56-.78-11,1.9-15.92,4.5l-7.07,3.7a30.21,30.21,0,0,0-4.28,2.55,29.86,29.86,0,0,0-4.26,4.3l-6.71,7.75.49,3a7.93,7.93,0,0,1-1.24,6.75,40,40,0,0,1-4.68,5.32,12.77,12.77,0,0,0-3.54,6.05l-15.31-1.61c-2.34,2.3-4.58,4.71-6.72,7.2a24.67,24.67,0,0,1-3.55,3.67,22.59,22.59,0,0,1-6.15,3l-12.1,4.5c-6.54,2.43-13.42,5.11-17.65,10.65-2.37,3.11-3.72,6.9-6.15,10l-23.26-8.63-49.37-35.76c-5.92-4.28-12.33-8.74-19.64-8.93-5.21-.14-10.21,1.94-15.37,2.68-12.66,1.81-25-4.52-35.71-11.5-15.12-9.88-29.41-21.87-38.3-37.6s-11.64-35.74-3.66-52c-32.12-9.92-56.69-35.68-77.23-62.29-16.47-21.35-32.07-46.66-28.45-73.38,3.81-28.15,28.15-49.28,53.79-61.48C847.14,2.65,920.18,10.92,988.76,19.83c14.76,1.92,29.73,3.9,43.45,9.67s26.27,15.94,31.57,29.85c1.81,4.75,2.76,9.87,5.26,14.3,2.64,4.69,6.83,8.28,10.94,11.77l36.42,30.93c1.94-14.39,4-29.22,11.48-41.68,10.16-17,28.84-27.06,47.53-33.64,22-7.76,45.88-11.83,68.91-7.83s45.15,16.84,57,37c13.41,22.89,13.37,53.72,33,71.53a154.44,154.44,0,0,1,93.38-28.55l23.14.1c92,27.65,172.45,82.09,219.5,165.89,22.33-12.67,32.29-29.33,50.34-47.6,45.38-45.94,124-26.89,183.23-52.52,23.56-10.18,50.9-27.51,72.11-13.05,18.49,12.59,16.77,39.81,13.76,62-4,29.29-6.62,58.84-5.8,88.39,2.31,84,32.19,164.49,46.83,247.22A687.92,687.92,0,0,1,2029.75,808.6Zm-386.16,415.15c-3.41-5.7-8.51-10.17-12.6-15.4-6.27-8-10.07-17.63-13.78-27.1l3.34-8.58c-13.8-21-22.55-46.23-30.14-70.15-2.17-6.82-4.34-13.66-6-20.63-2.56-10.88-3.84-22.17-8.34-32.39a7,7,0,0,0-1.52-2.42,7.54,7.54,0,0,0-2.81-1.38l-10.13-3.32-5.51,2.14-5.34,4.65c-1.61,1.4-3.22,2.8-5,4-4.94,3.52-10.87,5.71-15.1,10l-2.33,2.8c-3.53.35-5,5-4,8.45s3.2,6.44,3.76,10a15.46,15.46,0,0,1,4.4-6.1c-.3,2.59-1.78,4.89-2.48,7.4-1.63,5.86,1.08,12,3.73,17.43l4.26-.52c-1.77,1-3.77,2.35-3.76,4.37,0,2.51,3,3.75,5.46,4.33a10.16,10.16,0,0,0-4,.62,62.59,62.59,0,0,0,4.45,13.47l5.24-.74c-2.94.56-4.38,4.76-2.41,7a19.16,19.16,0,0,1,5.4.08,13.44,13.44,0,0,1-4.1,3.59l4.78,11.07a7.58,7.58,0,0,1,4.81-.79,28.81,28.81,0,0,0-5,4c1.59,1,.91,3.9,2.52,4.87a5.55,5.55,0,0,0,2.35.4c.8.09,1.72.59,1.7,1.39l-4.14.31c.84,2.49,2.6,5.53,5.17,5,1.2-.27,2.82-1.18,3.37-.08-2.15,1.36-4.62,3.74-3.44,6a7.77,7.77,0,0,1,5.34-.87,5.4,5.4,0,0,0-3.21,9.2l6-.54a17.55,17.55,0,0,1-6.64,3.63,12.75,12.75,0,0,1,1.65,4.56,12.48,12.48,0,0,1,7-.82L1570,1184c6,9.58,11.86,19.32,16,29.82,2.27,5.7,4,11.59,6.15,17.35,1.87,5.1,4,10.09,6.14,15.08l5.34,12.47q4.75,11.07,9.49,22.14c.72,1.67,1.51,3.43,3,4.42,3.16,2.06,7.27-.28,10.14-2.71,8.49-7.19,15.82-16.09,19.53-26.56S1649.29,1233.3,1643.59,1223.75ZM1630.78,1509a203.78,203.78,0,0,1,18.23-15.45l.27-1.43c-.14-.88-.29-1.76-.43-2.65l5.67.36-5-2.57a3.17,3.17,0,0,1-1-.72,3,3,0,0,1-.58-1.35,23.54,23.54,0,0,1-.62-6.2l6.17-1.45-4.58-.86a2.24,2.24,0,0,1-1.4-.63,2.27,2.27,0,0,1-.36-1.23q-.55-6-1.09-12.06a5.21,5.21,0,0,1,3.74,2.15c.37-1-.91-1.81-1.78-2.48-2.16-1.65-2.44-4.74-2.42-7.46a14.37,14.37,0,0,0,4.66-1.45,11.52,11.52,0,0,0-5-.84,43.08,43.08,0,0,1-.25-11.4l.11-.7-15.48-7.65c-8.85-4.38-18-8.85-27.89-9.3-4-.19-8.55.61-10.77,3.93l-1.47,5.43c1.73,23,7.48,45.49,13.21,67.84q2.83,11.09,5.68,22.17c.34,0,.58-.4.46-.7l4.8,7C1619,1522.29,1624.48,1515.26,1630.78,1509Zm151.74,244.33c-19.74-39-35.33-79.92-50.88-120.77l-31.71-83.3-28.88-21c-6.39-2.58-13.9-.4-19.38,3.77s-9.33,10.07-13.08,15.85l-6.51,10c-3.81,5.88-7.68,11.89-9.33,18.69a63.49,63.49,0,0,0-1.26,8.91q-1.21,13-2.44,26.06l13.06,49.19a3078.43,3078.43,0,0,0,170.56,360.09c2.49,4.48,5.06,9.05,8.88,12.48,4,3.62,9.23,5.75,13.35,9.29,11.88,10.19,13.5,30.6,27.86,36.84,15.85,6.9,31.65-9,48.11-14.29,6-1.94,12.91-2.67,17.33-7.22,5.59-5.74,4.82-15,3.34-22.83C1902.19,1931.65,1830.06,1847.27,1782.52,1753.35Z"></path>
    <path data-name="2a" data-official="" data-plain="Pistil" data-loc="" d="M1791.52,2713.78c4-13.75-3-28-8.43-41.19s-9.21-29.68-.26-40.85c5.88-7.34,16.38-11,19.58-19.84,2.35-6.51-.12-13.63-2-20.28-4.08-14.12-4.74-31.6,6.43-41.16a15.5,15.5,0,0,1,9-4c8.42-.48,14.51,7.85,17.87,15.57a101.36,101.36,0,0,1,8.24,34.51c.36,6,.19,12.25,2.24,17.94,2.46,6.84,7.82,12.16,11.85,18.22,8.27,12.42,10.82,28,9.63,42.88s-5.88,29.24-11.09,43.23c-1.35,3.64-2.77,7.38-2.74,11.27.07,9.25,8.18,16.91,8.56,26.16.34,8.53-6.25,16.12-14,19.63s-16.58,3.8-25.11,4l-19,.53c-7,.19-14.84,0-19.69-5-5.57-5.74-4.47-15.28-1-22.48s8.87-13.49,11.28-21.11Z"></path>
    <path data-name="3" data-official="Persea gratissima" data-plain="Avocado Pear" data-loc="West Indies" d="M1524.36,1074.51c-.91-3.44.51-8.1,4-8.45l2.33-2.8c4.23-4.34,10.16-6.53,15.1-10,1.74-1.24,3.35-2.64,5-4l5.34-4.65,5.51-2.14,10.13,3.32a7.54,7.54,0,0,1,2.81,1.38,7,7,0,0,1,1.52,2.42c4.5,10.22,5.78,21.51,8.34,32.39,1.63,7,3.8,13.81,6,20.63,7.59,23.92,16.34,49.19,30.14,70.15l-3.34,8.58-11.16-1.52c-8.81-1.48-17.23,3.76-26,5.33L1570,1184l-3.36-1.25a12.48,12.48,0,0,0-7,.82,12.75,12.75,0,0,0-1.65-4.56,17.55,17.55,0,0,0,6.64-3.63l-6,.54a5.4,5.4,0,0,1,3.21-9.2,7.77,7.77,0,0,0-5.34.87c-1.18-2.26,1.29-4.64,3.44-6-.55-1.1-2.17-.19-3.37.08-2.57.58-4.33-2.46-5.17-5l4.14-.31c0-.8-.9-1.3-1.7-1.39a5.55,5.55,0,0,1-2.35-.4c-1.61-1-.93-3.86-2.52-4.87a28.81,28.81,0,0,1,5-4,7.58,7.58,0,0,0-4.81.79l-4.78-11.07a13.44,13.44,0,0,0,4.1-3.59,19.16,19.16,0,0,0-5.4-.08c-2-2.25-.53-6.45,2.41-7l-5.24.74a62.59,62.59,0,0,1-4.45-13.47,10.16,10.16,0,0,1,4-.62c-2.45-.58-5.44-1.82-5.46-4.33,0-2,2-3.39,3.76-4.37l-4.26.52c-2.65-5.47-5.36-11.57-3.73-17.43.7-2.51,2.18-4.81,2.48-7.4a15.46,15.46,0,0,0-4.4,6.1C1527.56,1081,1525.27,1078,1524.36,1074.51Zm499.71,714.15c9.13,9.3,9,25.44,1.24,35.9s-21.67,15.32-34.65,14.18c-6.39-.57-13-2.4-19.09-.53-10.08,3.08-14.65,17.29-8.25,25.66-4,4.35-11.13,4.29-16.3,1.48s-8.8-7.72-12.27-12.47l-25.29-34.68-2.88-11c-1.55-10.22-6.09-19.69-10.58-29l-41.56-86.2c-28.14-58.35-56.94-117.69-101.23-165-2.54-2.71-5.36-5.51-9-6.24-14-2.81-20.1,24.72-34,21.49l-10.32,7-28.88-21c-6.39-2.58-13.9-.4-19.38,3.77s-9.33,10.07-13.08,15.85l-6.51,10c-3.81,5.88-7.68,11.89-9.33,18.69a63.49,63.49,0,0,0-1.26,8.91q-1.21,13-2.44,26.06l-10.3,17.52a565,565,0,0,0-36.34,133.19c22.59-1.64,44.77,8.94,61.46,24.26s28.61,35,39.43,54.94c11.78,21.7,22.52,44,33.25,66.19,27.42,56.84,54.89,113.79,76.82,173l5.54,13.37c37.35,71.85,42.61,155.5,47.13,236.36,2.49,44.37,4.91,89.48-5.32,132.73-4.72,20-12.06,39.17-19.38,58.33q-12.15,31.74-24.29,63.5c-6.55,17.15-13.13,34.34-21.71,50.57-46.37,87.71-152.33,137.3-250.59,123.63-21.54-3-43.37-8.69-64.75-4.65-18.89,3.57-35.7,14.47-54.43,18.84-32.68,7.62-67.43-6-93-27.66s-43.7-50.74-61.2-79.37c-31.94-52.26-63.47-105.28-84.47-162.81s-31.07-120.41-18.87-180.42l7.63-25.94c2.62-5.13,3.51-11,4.18-16.7a285.45,285.45,0,0,0,1.94-32.94l7.16-13.95c8.66-21.55,21.06-41.36,33.39-61.05l13.55-21.64,17-27.11c-25.52,9.75-51.95,19.65-79.24,18.38l-9.34-9.5c-2.06-25.55,2.52-51.16,7.93-76.22q11.7-54.33,28.68-107.34c2.68-8.38,5.49-16.88,5.71-25.68.08-3.19-.19-6.39.25-9.55.54-3.88,2.11-7.52,3.45-11.2a98,98,0,0,0,5.74-39.2l1-3.09c6.58-4.3,14-10,13.64-17.89-.17-4.11-2.49-7.77-3.78-11.67-2.57-7.76-1-16.21.65-24.23,11.41-56.29,23.56-113,22.33-170.47-.06-2.93-.3-6.18-2.44-8.17l.52-1.38q2.13-45.36,3.14-90.77c.06-2.46,0-5.19-1.66-7l1.53-1.3c2.59-11.32,1-23.12.47-34.72-.2-4.66,0-9.85,3.24-13.2l9.75,5.36,35.47.35,2.25.14a192.09,192.09,0,0,1,30-15.2l1-1.48a217.94,217.94,0,0,1,21.29-14.36,7.47,7.47,0,0,0,3.1-2.72,8.58,8.58,0,0,0,.63-3,23.74,23.74,0,0,1,2.33-7.95,9.56,9.56,0,0,0,1.42-4,7.88,7.88,0,0,0-.85-3.16l-5.55-13,2-10.72a233.23,233.23,0,0,1,27.67-32.91,192.18,192.18,0,0,1-34.74-12.72c-8.88-4.25-17.41-9.17-25.93-14.09l-22.81-13.17c-6.3-3.63-13-7.37-20.25-7.33-2.67,0-5.51.65-7.38,2.57a12.42,12.42,0,0,0-2.35,3.93,81.66,81.66,0,0,0-5.21,17.31l-5.57,5-8.17-4.65c-3.36,1.73-6,4.49-8.78,7.07a113.65,113.65,0,0,1-15.31,12.09c-7.06,4.65-14.85,8.57-23.25,9.5l-.51,9.86-4.52,11.9a91.41,91.41,0,0,0-12.91,20.89c-1.23,2.76-2.33,5.6-3.79,8.25-4.07,7.37-10.72,12.9-17.22,18.25l-10.29,2.29a214.66,214.66,0,0,1-25.83,12l1.59,8.81-10.43,9.3a232.83,232.83,0,0,0-76.79,119c11.76-7.32,23.67-14.78,33-25a155.3,155.3,0,0,0,10.3-13.1c19-26,40-52.81,69.94-64.75l5.85-4c8.37,3.62,18,.77,27.12,1.86,4.42.53,8.67,2,13,2.9a50.66,50.66,0,0,0,12.47,1l1.87-.93c.93,22.58,1.86,45.17,3.93,67.67l.6,2.17a560.81,560.81,0,0,1-21.4,185.08l-1.55-.43c5.31,11.23,3,24.45-.07,36.48s-7,24.47-4.42,36.63l-.64,1.3q-7,32.1-14.09,64.22c-1.14,5.2-2.39,10.62-5.76,14.74l-1.61.81a276.69,276.69,0,0,1-17.72,77.55l-1.41.43c-3.27,52.5-35.69,99.35-42.05,151.57l-10.92,17.75-11.46-1.66-54.26,28.45c-6.43,3.37-12.92,6.78-18.56,11.36a55.2,55.2,0,0,0-18.84,30.26c-8.93-29.36-26.47-55.36-45.88-79.14a520.53,520.53,0,0,0-46.52-49.94l-6-12.69c-25.82-44.71-27.39-98.88-28.29-150.51-.32-18.21-.57-36.87,5.42-54.07,3.66-10.5,9.53-20.11,13.24-30.59,13.66-38.59-3.46-83.76,13.16-121.18-12,9.58-24.2,19.36-32.9,32-5.39,7.85-9.29,16.61-13.16,25.31q-8.86,20-17.74,39.9c-12.74,28.66-26,58.05-48.33,80.06-23.52,23.15-55,36-85.58,48.39-7.1,2.86-14.46,5.77-22.1,5.52s-15.72-4.54-17.9-11.88c-1-3.5-.66-7.26-.26-10.89q2.55-23.27,5.09-46.52l-.22-16.3c3.15-18-1.83-36.39-8.75-53.27s-15.84-33-21.17-50.43c-12.3-40.29-4.42-83.91,7.47-124.33,6.19-21.08,13.53-43,9.12-64.55l3.3-11.18,7.57-6.51c3.58-20,12.77-38.45,23.06-55.92,5.3-9,11-17.86,18-25.54,4.68-5.07,9.92-9.58,15-14.31a224.79,224.79,0,0,0,28.57-32.66,11.43,11.43,0,0,0,2.07-3.89c1.19-5.06-4.47-9.74-3.59-14.87l3.29-6.94c-.15-3.52,1.09-6.93,2.36-10.22a429.94,429.94,0,0,1,18.8-42,2.71,2.71,0,0,1,1.06-1.29l3.76-4.6,8.6,5.26c2.6,15.65,16.39,28.75,32.15,30.54,4.37.5,9.21.35,12.6,3.16a19.25,19.25,0,0,1,3.73,4.84,99.68,99.68,0,0,0,19,22.26c4,3.5,8.5,6.76,13.73,7.78,8.21,1.6,17.27-2.51,24.81,1.13A26.32,26.32,0,0,1,870,1429l14,11.85c6.25,5.27,12.75,10.69,20.61,13,17.1,5,36-6,52.94-.64,4.1,1.3,7.88,3.52,12,4.69s9,1.09,12.26-1.76l-.94-1.71a37.63,37.63,0,0,1-14.57-9.46c-2.75-2.88-5-6.2-7.92-8.94s-6.59-5-10.57-4.88c-2.18,0-4.29.75-6.46.85-7.34.34-13-6.07-17.48-11.9s-10.12-12.23-17.46-11.91l1.23-1.54c2.7-2.85.63-7.48-1.58-10.73A80.67,80.67,0,0,0,896.8,1384c-3.78-3.79-8.43-7.26-9.79-12.44-2.6-9.91,8.38-19.62,5.87-29.56-.65-2.57-2.19-5.17-1.39-7.7s3.59-3.78,5.8-5.29a17.29,17.29,0,0,0,7.06-17.3l1-.93c2.52.23,4.52-2.5,4.49-5s-1.46-4.82-2.87-6.92c-2.68-4-5.58-8-9.62-10.64-1.77-1.16-4.07-2.78-3.38-4.78a4.31,4.31,0,0,1,1.28-1.64l10.42-9.61,10.16-.89A243.45,243.45,0,0,1,1070,1302.82l-.27,9.12c-.82,2.46.24,5.23,2,7.14a23.21,23.21,0,0,0,6.4,4.35,258.81,258.81,0,0,1,28.26,17.48c3.46,2.46,7,5.08,11.18,5.86l7.81,1.63,8.34-.2a116.82,116.82,0,0,0,17.55,7.07,27.35,27.35,0,0,0,10.14,1.64l5.6,1.45,3.77,4.26a49.21,49.21,0,0,0,21.55-4.58c4.81-2.24,9.65-5.86,10.51-11.09a19.64,19.64,0,0,0-.06-5.08l-1.59-16.36-6.22-23.94q-16.5-7.58-33.43-14.15a4,4,0,0,0-1.69-.39,4.47,4.47,0,0,0-1.95.88,20.52,20.52,0,0,1-5.42,2.45l-6.48,3.06-7.86-1.3c-4.62-4.3-10.38-7.14-16.13-9.73s-11.65-5-16.8-8.65-9.57-8.72-11.06-14.85.53-13.34,5.84-16.75c3.39-2.19,7.61-2.62,11.64-2.59a61.2,61.2,0,0,1,10,.91l7.87,3.12a33.2,33.2,0,0,0,12,7.94,66.74,66.74,0,0,0,9.67,2.64l32,7,4.77-4.82,11.08-.71a52.27,52.27,0,0,1,36.47,7.65,44,44,0,0,0,5.19,3.18,33.36,33.36,0,0,0,7.52,2.13c23.16,4.78,45.44,13,67.61,21.25a11.26,11.26,0,0,1,14.21-12.59A102.68,102.68,0,0,1,1308,1231l1.59-8.47c8.91,1.51,17.65-4.15,26.67-3.65l4,5a31.72,31.72,0,0,0,13.18,10l2.34,9.82a236.84,236.84,0,0,1,21.23,28.2c9.55,14.87,17.78,31.21,31.62,42.19a67.45,67.45,0,0,0,32.79,13.57,1.46,1.46,0,0,0,1-.11,1.54,1.54,0,0,0,.53-.86q2.12-6.49,4.25-13a31.44,31.44,0,0,1,3.66-8.34,10.58,10.58,0,0,1,7.44-4.8c2.65-.22,5.2.9,7.65,1.94,1,.45,2.41.85,3.23.06a3,3,0,0,0,.63-2.2q.14-7.1.26-14.2l2.27-6.93,9.29,0c2.06-8.08,1.91-16.53,1.74-24.87a19.46,19.46,0,0,0-4.39-13.57l-.4-1.26a136.19,136.19,0,0,1-1.22-37.82,7.78,7.78,0,0,1,1.12-3.83c.45-.62,1.1-1.16,1.23-1.91.21-1.18-.89-2.11-1.54-3.11a8.64,8.64,0,0,1-1-4.21c-.5-7.65,0-15.32.57-23l3.09-44.45,1.79-3.59a93.41,93.41,0,0,1,9.25-19.57l2.77-4.41c2.89-2.35,7.53-1.3,10,1.5s3.08,6.79,2.81,10.51c-.09,1.24-.2,2.7.73,3.54a16.75,16.75,0,0,0,1.53.92c2.76,2-.31,7,1.91,9.58a13.15,13.15,0,0,0,2,1.53,5.34,5.34,0,0,1,.85,7.25c-1.33,1.68-3.75,2.61-4.26,4.69a6.39,6.39,0,0,1,4.43-2.17c1.68.07,3.32,1.8,2.71,3.38l-6.12,1.74,5.59.22a2.65,2.65,0,0,1,1.25.26,2.57,2.57,0,0,1,.88,1.19l3,6.26a7.07,7.07,0,0,0-4.53,2.48c1.36-1.4,3.83-1.05,5.32.21a11.92,11.92,0,0,1,3,5c1,2.56,2,5.3,1.47,8a9.46,9.46,0,0,0-.43,2.33c.08,2.34,2.78,3.71,3.6,5.91.7,1.87-.09,4.05.6,5.93.62,1.71,2.31,2.79,3.19,4.38,1.78,3.19.08,7.94,2.84,10.33l-3.34,1.89,4.12-.66c.38,1.38.76,2.76,1.13,4.13a2.19,2.19,0,0,1,.11,1.1c-.16.67-.87,1-1.41,1.44s-.93,1.32-.4,1.76l-1.06,6.19-8.07,13.47a39.68,39.68,0,0,0-10.47,16.38,81,81,0,0,0-2.07,8.11l-3.34,15.39-4.9,8.55a7.52,7.52,0,0,0-4.61,5.47,20.55,20.55,0,0,0-.08,7.42,180.63,180.63,0,0,0,6.71,31.72l4.88,10.54a44.33,44.33,0,0,0,23.32,22.2l4.47,2.37a112.1,112.1,0,0,0,25.07,10.58l4.4,3c28.13,5.9,55.69,16.87,55.69,16.87l6.65.16c2.25-1,3.66-3.27,4.42-5.6l14.07-4.66a442.52,442.52,0,0,1,198.42,132.12c46.23,53.9,78.64,118,110.6,181.41l42.88,85.1c2.8,5.54,5.68,11.21,10.16,15.5C2017.35,1783.42,2021.08,1785.63,2024.07,1788.66Zm-369.55-298.81-5-2.57a3.17,3.17,0,0,1-1-.72,3,3,0,0,1-.58-1.35,23.54,23.54,0,0,1-.62-6.2l6.17-1.45-4.58-.86a2.24,2.24,0,0,1-1.4-.63,2.27,2.27,0,0,1-.36-1.23q-.55-6-1.09-12.06a5.21,5.21,0,0,1,3.74,2.15c.37-1-.91-1.81-1.78-2.48-2.16-1.65-2.44-4.74-2.42-7.46a14.37,14.37,0,0,0,4.66-1.45,11.52,11.52,0,0,0-5-.84,43.08,43.08,0,0,1-.25-11.4l.11-.7-15.48-7.65c-8.85-4.38-18-8.85-27.89-9.3-4-.19-8.55.61-10.77,3.93l-10.88.23a200.15,200.15,0,0,0-37.53-10.43c2.08,14.78-3.15,30-12,42s-21.13,21.12-34.07,28.55c-12.47,7.16-27.12,14.57-30.68,28.5-3.73,14.56,6.55,28.47,12.57,42.24,3.53,8.06,5.66,16.66,7.41,25.28a302,302,0,0,1-24.36,190.42,232.59,232.59,0,0,1,47.6-10.85c.81-21.38,6.42-42.26,12-62.92q4.08-15.13,8.17-30.25c2.67-9.9,5.35-19.81,8.89-29.44,3.36-9.15,7.49-18,11.61-26.83l5.86-12.57c3.42-7.34,6.85-14.68,10.54-21.88a327.17,327.17,0,0,1,31.66-50.06l15.9-.25c5.43-7,10.88-14,17.18-20.28a203.78,203.78,0,0,1,18.23-15.45l.27-1.43c-.14-.88-.29-1.76-.43-2.65Zm426.86-272c-5.59-10.82-16.32-18.21-27.69-22.57s-23.55-16.08-35.52-18.35a21.92,21.92,0,0,1-13.86-6.7,497.36,497.36,0,0,1-52.48-55.54c-8.63-10.68-17-11.86-27.89-20.17l-6.86-8.38-27.6,13.45c-29.53,33.46-63.28,60.06-63.28,60.06l3.13,15.29,5,0c7.21-3.41,16-.05,22,5.26s10.07,12.36,15.48,18.22c12.29,13.29,30.17,19.49,46.45,27.41a45.51,45.51,0,0,1,11.28,7.1c8.36,7.74,10.58,19.91,16.08,29.88,6.82,12.35,18.67,21.24,25.93,33.33,7,11.72,9.35,25.72,15.68,37.84s19.47,22.86,32.65,19.22c12.93-3.57,18.63-18.38,28.38-27.59,8.69-8.2,21.07-12.22,28.29-21.74,5.35-7,7.08-16.15,8.19-24.93a254.47,254.47,0,0,0,2-31.21C2086.75,1237.46,2086.07,1226.88,2081.38,1217.81Z"></path>
    <path data-name="3a" data-official="" data-plain="Stamen" data-loc="" d="M811.25,2736.74c1.6-9.21-4.16-18.11-10.79-24.71s-14.53-12.2-19.19-20.3-4.7-20,3-25.32c3.51-2.41,8-3,12.23-3a51.69,51.69,0,0,1,20.57,4.39c-1.33-12.93,4.53-26.14,1.41-38.76-1.42-5.73-4.61-10.84-7.09-16.2-13.21-28.48-6.2-61.77,1-92.3,1.32-5.54,3-11.59,7.69-14.77s11-2.43,16.64-3.58c7.65-1.55,14-6.67,20.94-10.25s15.94-5.45,22.17-.74c9,6.79,5.56,20.58,5.42,31.83-.08,6.28,1.16,12.49,2.14,18.69,2.25,14.24,3.14,28.87.32,43s-9.64,27.79-20.76,37c-2.33,1.92-4.92,3.75-6.18,6.49-1,2.23-1,4.78-1,7.24l.63,51.12c10.53-3.82,21.57-7.71,32.68-6.24s22.13,10.17,22.13,21.38c0,13.2-13.9,21.63-26.34,26-2.8,1-5.72,2-7.9,4-5.07,4.65-4.37,12.82-2.25,19.37,2,6.12,4.82,12,6.15,18.25s.9,13.38-3.12,18.39c-5.2,6.48-14.67,7.59-22.92,6.58s-16.46-3.6-24.7-2.57c-8.7,1.09-19.15,5.62-25.07-.85-5.09-5.56-1.84-14.43,1.86-21s7.65-14.85,3.45-21.1Z"></path>
    <path data-name="3b" data-official="" data-plain="Section of Fruit" data-loc="" d="M351.78,2734.5c-67.82-56.56-97.92-146.83-110-234.31-3.2-23.16-5-48.28,6.83-68.44,10.9-18.56,31.31-29.26,51.45-36.85A306.59,306.59,0,0,1,385.81,2376c1.24-17.13,3.45-34.47,10.2-50.26,15.16-35.52,50.27-57.63,83.37-77.51,12.48-7.5,26.09-15.27,40.58-13.89,7.25.69,14.08,3.65,20.65,6.8,56,26.81,106.67,74.8,116.11,136.17,27.3,12.43,58,15.06,86.57,24.11s57.48,27.65,64.69,56.78c4.71,19-.69,38.93-6.07,57.79l-15.12,53.05c-6.25,21.9-12.51,43.85-21.14,64.92-13,31.71-31.62,61.56-57.3,84.23s-58.82,37.76-93.07,38.28c-16.53.25-36.46-1.34-45.95,12.2-4.81,6.84-5.41,16.07-10.63,22.61-4.88,6.12-12.84,8.71-20.32,11-12.25,3.74-25.06,7.52-37.69,5.36s-24.9-12.25-24.95-25.07c0-5.12,1.84-10.43.08-15.24-2.2-6-9.41-8.81-15.79-8.36s-12.27,3.35-18.29,5.51c-28.62,10.31-62.79,3.09-84.8-17.92Z"></path>
    <path data-name="4a" data-official="Dehaasia media" data-plain="Fruit on enlarged Stalk" data-loc="Java" d="M84.7,2753.94c-41.57-59.46-66.43-134.67-49.8-205.3,2.32-9.85,5.44-19.59,10.27-28.48,2.5-4.6,5.47-9,6.87-14,2.39-8.56,0-17.64-.16-26.53-.19-16.39,7.52-31.71,15.05-46.28,11.94-23.09,26-48.13,50.51-56.86,14.16-5.05,30-3.68,44.18,1.38s26.81,13.58,38.66,22.82c7.44,5.81,14.71,12,20.27,19.64,15.54,21.29,15.48,50.57,8.16,75.89-8.42,29.16-27.8,57.37-56.79,66.34-15.56,4.81-32.25,3.68-48.49,2.49-16.28,23.66-16.67,54.9-11.39,83.13s15.56,55.49,18.66,84c.66,6.12,1,12.34,2.92,18.19,3.33,10.21,11.07,18.29,16.44,27.6s8,21.9,1.24,30.24c-5.23,6.42-14.38,8.12-22.65,7.73s-16.51-2.44-24.75-1.66c-8.55.81-18.69,4.13-24.66-2-5.54-5.71-2.78-15.37,1.76-21.9s10.74-12.61,11.59-20.52Z"></path>
</svg>
