
<svg xmlns="http://www.w3.org/2000/svg" viewBox="0 0 2008 2661" id="illustration" preserveAspectRatio="xMidYMid meet">
    <title>Myristicaceæ</title>
    <path data-name="1" data-official="Myristica moschata" data-plain="Common Nutmeg" data-loc="Tropics of Asia" d="M515.24,1501.65a23.76,23.76,0,0,1,15.09.24c2.21-4.74,8.17-6,13-8,9.74-4,16.59-12.76,23-21.14a44.48,44.48,0,0,0,14.84,18.07c5.3-9.79,11-19.47,18.22-27.94s16.14-15.74,26.54-19.74l7.34-4.24c4.67.7,9.3-1.11,13.65-3a477.05,477.05,0,0,0,46.57-22.75l11.13-.44c3.48,0,7.14.1,10.13,1.88,5.34,3.16,6.49,10.28,6.84,16.47a232.14,232.14,0,0,1-.81,36.63,11.16,11.16,0,0,1-.58,3,11.84,11.84,0,0,1-2.69,3.65c-3.72,3.85-7.68,7.86-12.83,9.36l-9.18,4.13c-37.9,10.87-76.65,22.15-108.59,45.25-22.53,16.3-40.69,37.79-61.08,56.69-17.07,15.83-35.78,29.9-52,46.6-26.76,27.52-46.4,61.79-75.83,86.43-14.21,11.91-30.48,21.36-43.59,34.46-9.27,9.26-16.75,20.15-23.88,31.15A742.59,742.59,0,0,0,271,1900.13c-3.05,7.14-6.19,14.61-12.12,19.63-11,9.32-30.31,5.61-37.08-7.13-3.42-6.43-3.78-14-6.06-20.93s-7.83-13.87-15.11-13.6c-2.12.08-4.54.7-6.17-.66-1.35-1.14-1.48-3.15-1.45-4.92a82.72,82.72,0,0,1,9.28-36.46l5.77-14.25c53.48-61.89,94.55-133.7,148.36-195.29,7.77-8.89,15.79-17.56,23.82-26.22,34.73-37.52,71.1-76.18,118.57-95.14Zm1236.81-28.82c17.4-93-2.28-192.4-53.8-271.75,12.9-9.34,27.12-19.11,43-18.5,14.9.56,27.72,10.11,41.5,15.82,20.88,8.65,45.2,8.84,64.06,21.28,13.59,9,24.85,24.32,41.12,24.59,4.56.08,9.55-1.44,12-5.31,2-3.14,1.84-7.12,1.61-10.82a427.21,427.21,0,0,0-54.5-182.93c32.47,11.37,67,24.24,87.09,52.17,11.32,15.74,17.25,35.36,31.15,48.87l9.68,3.88c7.76-35.59,15.5-72.87,5.83-108-3.85-14-10.37-27.16-14.27-41.15-12.55-45,2.74-94.73-12.73-138.76-8.27-23.56-24.65-43.26-36.65-65.16-19.05-34.76-27.17-75.29-50.39-107.42-33.2-45.95-90.39-66.25-142.56-88.45-3.29-1.4-6.73-2.93-8.88-5.79s-2.64-6.36-3-9.8a137.54,137.54,0,0,1,8.5-63.89c4-10.3,9.27-20.21,11.63-31,5.5-25.25-5.58-50.84-16.4-74.31q-14.47-31.41-29-62.83l-4.71-12.83c-11-9.51-26.54-11.24-41-11.38-8-.08-16.4.13-23.7-3.24s-13.07-11.65-10.64-19.31,11.7-11.07,19.82-11.2,16.35,1.82,24.26,0,15.42-9.68,12.82-17.36c-.82-2.42-2.56-4.59-2.58-7.14,0-5.71,7.55-7.63,13.25-7.76,48-1,97.68-1.77,141.72,17.29,38.25,16.56,72.2,47.87,113.87,48.56,5.49.1,11.39-.52,15.61-4,9.48-7.89,4.34-23.11-1.5-34l-25.07-46.64c-5.07-9.44-10.24-19-17.68-26.73-12.9-13.37-31.16-19.77-47.62-28.39-17.08-9-32.65-20.59-49.81-29.4s-36.75-14.76-55.69-11.09C1732.17,152.09,1718,162,1701.91,166c-33,8.24-67.88-9.4-101.27-3.05-19.65,3.73-37.25,15.56-57.12,17.88-22.85,2.66-47.38-7.37-68.31,2.19-16,7.32-25.71,26.33-22.25,43.59,1.75,8.67,6.32,16.46,9.6,24.68,10.43,26.2,6.71,57.56-9.56,80.6-18.09-32.33-56.79-48.95-93.83-49.62s-72.92,12.14-107,26.57l-9.87,5.92c-14.14,8-17.17,28.3-31,36.9-7.18,4.48-16,5-24.46,6-17.52,2.21-35,7.67-49,18.36-15.51,11.81-25.81,29-35.72,45.83L1051.25,508c-11.14,18.86-22.58,38.71-23.6,60.6-.73,15.87,2.12,31.4,6.92,46.55l25.13,79.27c4.49,14.16,11.14,28.65,20.23,40.41,15,19.47,39.86,28.54,58.14,45,11.84,10.68,21.21,24.66,35.53,31.67l5.94,7.89c8.94,4.74,13,15.8,12.36,25.89s-5.22,19.47-9.88,28.45-9.6,18.07-11.15,28.07c-.48,3.06-.76,6.46-3,8.61-2.71,2.63-7,2.26-10.76,2.16a47.62,47.62,0,0,0-23.81,5.69l-10.9,5c-7.24,11.07-9,22.59-16.07,33.75-8.88,14-22.62,24.88-34.65,36.22-12.68,11.94-23,27.17-38.88,34.43-20.75,9.5-45.16,2.77-66.13-6.23-5.26-2.27-10.46-6.3-16.16-5.74-13.08,1.29-40-6.89-51-13.51l-6.9,5.47a35.66,35.66,0,0,0-7.21,18.79l1.23,6.74c.64,8.62,7.3,15.35,11.93,22.64a86.27,86.27,0,0,1,7.47,15.74c6.44,17,10.83,36,4.84,53.14-2.76,7.92-7.73,15.67-6.54,24,.35,2.43,1.22,5,.34,7.26-1,2.51-3.68,3.79-6,5.18s-4.66,3.69-4.14,6.33l-.59,7.87c5.07,17.17,25.69,25.12,33.51,41.22,6.14,12.66,3.19,27.57,2.59,41.63a118.88,118.88,0,0,0,4.94,39.23c.41,1.35.83,2.85.25,4.14a5.83,5.83,0,0,1-2.46,2.3L864.65,1346c-6.29,3.89-12.58,7.78-19.07,11.32-7.31,4-14.86,7.5-22.41,11l-12.43,5.8-50.59,23.6-7.1,5.35a40.14,40.14,0,0,0-1.34,12.58,10.83,10.83,0,0,0,.79,4c.66,1.42,1.83,2.57,2.36,4,.88,2.41-.15,5.06-.19,7.62-.06,3.65,1.87,7,3.34,10.33a43.48,43.48,0,0,1,3.5,13.81l3.25,3.47c4.88,0,9.64-1.44,14.27-3,19.36-6.45,37.91-15.07,56.42-23.67l8.22-6.09c-1.65-15.78,2.08-32.38,11.78-44.94s25.62-20.55,41.42-19.15c6.47.56,13.73,2.42,18.91-1.5,1.73,3.27,6,4.05,9.64,4.45,6.38.71,12.92,1.41,19.12-.21l7.45-1.2a460,460,0,0,0,56.7-45c7.33,4.54,14.73,9.12,20.84,15.2,2.82,2.8,5.34,5.9,8.29,8.57,2.73,2.45,5.78,4.51,8.67,6.77,22,17.17,33.43,44.45,42.08,71,2.74,8.41,5.31,16.92,6.62,25.67l1,6.84c1.61,7.41,3.18,14.83,4.6,22.28q4.56,23.85,7.14,48a60.82,60.82,0,0,0-18.32-2.71l-3.95.87c-36.86,1.21-75.48,15.42-96.05,46-6.08,9-10.38,19.17-14,29.46-23.44,66.77-17.68,144.32,20,204.25s107.8,99.43,178.45,95.47c37.53-2.11,73.42-15.57,108.07-30.12l9,1.83c28.41-6.08,52.35-26.21,68.41-50.41s25.11-52.35,32.37-80.48c23,12.28,49.12,17.85,75.14,19.64a279.35,279.35,0,0,0,56-1.77c16-2.11,31.68-5.6,47.38-9.08,36.95-8.19,74.73-16.71,106.73-36.93a165.6,165.6,0,0,0,64.38-76.86c18.29-44.84,15.94-95.06,13.29-143.42Z"></path>
    <path data-name="1a" data-official="" data-plain="Flower" data-loc="" d="M775,2580.31c12-12.2,14.13-33,4.73-47.33-3.38-5.16-8-9.44-11.39-14.59a38.94,38.94,0,0,1-4.26-33.58c2.82-8.18,8.47-15.81,8-24.44-.37-6.32-4-13.1-.73-18.54,2.18-3.67,6.7-5.13,10.85-6.13a169.43,169.43,0,0,1,48.7-4.5c7.28.39,15.86,2.16,18.73,8.87,2.37,5.53-.35,11.88.12,17.88.47,5.81,3.87,10.9,6.29,16.21a50.81,50.81,0,0,1-6.27,51.41c-2.75,3.49-6,6.7-7.66,10.84-5.83,14.89,12.53,29.85,10.17,45.67-1.34,9-9.4,15.8-18.09,18.45s-18,1.94-27.07,1.21l-18.46-1.48c-5.67-.46-12.82-2.21-13.63-7.85Z"></path>
    <path data-name="1b" data-official="" data-plain="Stamens" data-loc="" d="M898,2550.92a282.22,282.22,0,0,1-18.22-99.78c0-13,1-26.53,7.13-38s18.39-20.63,31.37-19.37c9.32.9,17.59,7,22.88,14.71s7.92,17,9.52,26.2c6.76,38.95-3.47,79.53,4.58,118.23,2.8,13.45,7.57,28.32.59,40.16-7.18,12.17-23.24,15-37.29,16.56-7.15.8-14.56,1.58-21.43-.61s-13.06-8.18-13.09-15.39c-.05-10.86,12.92-18,14-28.82Z"></path>
    <path data-name="1c" data-official="" data-plain="Section of Ovary" data-loc="" d="M1023.43,2553.48c-26.28-30-37.9-72.26-30.65-111.47,2.29-12.37,6.32-24.33,10.34-36.25l14.94-44.32c1.89-5.6,3.88-11.38,7.9-15.72,7.92-8.56,23.32-8.42,31.09.28,3.28,3.68,5.16,8.35,7.09,12.88,16.45,38.53,41.87,75.48,41.76,117.38-.05,18.37-5.12,36.32-10.78,53.79-2.44,7.56-5,15.23-5.12,23.17s2.38,15.79,3.5,23.71.65,16.71-4.45,22.88c-3.88,4.7-9.83,7.14-15.65,9a123,123,0,0,1-31.61,5.46c-8.45.34-18.76-1.43-21.79-9.33-2.63-6.82,1.8-14.09,5.23-20.55s5.53-15.58-.15-20.19Z"></path>
    <path data-name="1d" data-official="" data-plain="Nutmeg" data-loc="" d="M380,2577.84c-21.38-14.41-35.23-38.17-41.72-63.12s-6.21-51.18-3.94-76.86c1-11.19,2.5-22.79,8.62-32.21,4.54-7,11.27-12.24,18-17.12,9.34-6.74,19.18-13.17,30.25-16.37,13.16-3.81,27.17-2.81,40.83-1.77a55.72,55.72,0,0,1,11.23,1.62c5.14,1.46,9.73,4.35,14.24,7.2,13.62,8.61,27.52,17.46,37.42,30.16,5.57,7.13,9.7,15.27,13.65,23.41,5.77,11.9,11.28,24.11,13.58,37.14,4.86,27.55-5.08,55.35-15.15,81.46-2.75,7.11-5.58,14.34-10.36,20.28-7.3,9.1-19.05,15.19-22.48,26.34-3.11,10.09,1.09,23-6.6,30.25-3.28,3.09-7.91,4.14-12.32,5.08l-28.16,6c-8.09,1.72-16.6,3.43-24.53,1.08s-14.88-10.26-13.13-18.35c1.15-5.37,5.7-9.47,7.13-14.78,2.55-9.46-5.36-18.27-12.64-24.83Z"></path>
    <path data-name="1e" data-official="" data-plain="Section" data-loc="" d="M612.41,2577.35c-30.33-23.48-48.71-61.66-48.15-100,.2-14.08,2.8-28,5.38-41.86,1.09-5.82,2.2-11.71,4.68-17.08,7.33-15.9,24.83-24.15,41.31-30.07s34.64-10.81,51.28-5.32c11.59,3.82,21,12.24,30,20.45,11.91,10.81,24.12,22,30.91,36.63,5.1,11,6.81,23.22,7.62,35.3a265.22,265.22,0,0,1-4.81,71.06c-1.81,8.82-4.66,18.4-12.29,23.19-3,1.91-6.57,2.86-9.76,4.49-14,7.19-18.38,25.44-30.46,35.56-12.77,10.7-31.21,10.23-47.83,9.2-4.85-.3-10-.69-13.95-3.45-7.13-4.92-7.1-17.21,0-22.1Z"></path>
    <path data-name="2" data-official="Virola sebifera" data-plain="Oily Virola" data-loc="Guiana" d="M972.9,1358.18a100.91,100.91,0,0,1,32.22,3.34c6,1.63,12,3.91,16.58,8.09,8.82,8,10.53,21,15.3,32,9.86,22.61,33.16,36.71,45,58.36a67.13,67.13,0,0,1,5.38,50.67l2.22,9.76-3.95.87c-36.86,1.21-75.48,15.42-96.05,46-6.08,9-10.38,19.17-14,29.46-23.44,66.77-17.68,144.32,20,204.25s107.8,99.43,178.45,95.47c37.53-2.11,73.42-15.57,108.07-30.12l9,1.83,8.27,3.18c29.19,30.18,43.48,74.13,37.62,115.71-1.48,10.51-4.18,21-3.06,31.6,1.22,11.59,6.9,22.14,11.35,32.9a161.64,161.64,0,0,1,12.1,56.55c.51,16.65-1.55,33.6,2.27,49.82,2.92,12.46,9.22,23.92,16.78,34.24a150.16,150.16,0,0,0,51.33,44.16c25.68,13.44,57.3,21.17,72,46.14,5.15,8.75,7.34,20.58,1.22,28.69-7.2,9.54-21.5,9.14-33.25,6.91-35.48-6.72-69.69-21.5-105.8-22.09l-16.41-3c-66.76-22.41-131.55-50.24-196.26-78-32.7-14-66.3-28.7-91.15-54.18-33.84-34.71-47.71-85.77-83.65-118.31-14.37-13-31.92-22.69-44-37.86-15.13-19-19.71-44-24.92-67.7-15.35-70-42.26-140.95-96.31-188-20.16-17.54-44.07-31.77-58.58-54.21-10.88-16.81-17.12-38.71-35.08-47.57l-30.74,46.27-7.39,10.1c-21.36,33.93-13.57,77.51-13.83,117.6a273.94,273.94,0,0,1-52.11,158.28c-7.36,10.1-15.86,21.2-14.33,33.59,1,8.31,6.46,15.32,11.74,21.81,77.19,94.79,168.34,179.54,229,285.66,4.3,7.53,7.58,18.89.14,23.33-3.06,1.83-6.89,1.56-10.44,1.24l-49.72-4.56c-6.75-.62-14.42-.93-19.29,3.78-3.43,3.33-4.51,8.32-6.45,12.69-7.85,17.61-33.59,24-48.73,12-11.65-9.2-17.82-26.9-32.51-29-5.52-.79-11.18,1-16.68.07-8.41-1.37-14.54-8.47-19.89-15.11l-36.66-45.49-12.41-12.45A1317.44,1317.44,0,0,1,424,1994.19L422.66,1984A332,332,0,0,1,383,1801.58c.57-7.84,1.67-16.24,7-22,7.9-8.69,21.69-8.08,33.06-5.16,29.29,7.53,54.64,25.48,79.25,43.08,14.12,10.09,28.9,21,35.64,37,5.93,14,4.87,30.42,11.58,44.12a8.74,8.74,0,0,0,3.18,4c4.56,2.61,9.39-3,11.42-7.86,9.81-23.45,12.48-49.3,12.54-74.72.06-25.18-2.66-51.35-15.6-73-4.68-7.82-10.77-15.29-12-24.32-1.1-8.36,2.22-16.59,5.54-24.34,2-4.7,4.16-9.54,7.95-13,10.52-9.55,27.14-3.95,40,2.1,45.26-57,92.26-118,101.13-190.23l1-13.48c5.15-1.5,9.11-5.51,12.83-9.36a11.84,11.84,0,0,0,2.69-3.65,11.16,11.16,0,0,0,.58-3,232.14,232.14,0,0,0,.81-36.63c-.35-6.19-1.5-13.31-6.84-16.47L703,1401.48q-2.12-58.24-4.22-116.49c-.46-12.81-1-25.91-5.75-37.81a9.45,9.45,0,0,0-2.19-3.62c-1.45-1.31-3.5-1.67-5.37-2.24-12.11-3.71-18.67-17.27-30.2-22.5a24.86,24.86,0,0,0-15.4-1.65,5.24,5.24,0,0,0-2.77,1.29c-1,1-1.06,2.64-1,4.08.16,7.07,1.44,14.07,1.85,21.13A88.57,88.57,0,0,1,620.17,1302c11.94,19.48,22,40.53,25.91,63s1.42,46.71-10.3,66.34l-2.54,7.55-7.34,4.24c-10.4,4-19.31,11.27-26.54,19.74s-12.92,18.15-18.22,27.94a44.48,44.48,0,0,1-14.84-18.07c-6.39,8.38-13.24,17.11-23,21.14-4.82,2-10.78,3.25-13,8a23.76,23.76,0,0,0-15.09-.24l-16.42,3.51-5.95-5a28.32,28.32,0,0,1-10-4.9,2.74,2.74,0,0,0-1.38-.71,2.64,2.64,0,0,0-2,1.17c-3.29,3.7-6.42,7.59-10.15,10.85s-8.2,5.89-13.12,6.56l-10.47-.06c-54.23-48.39-78.31-128.06-60-198.38l-2.71-13.52c-46.52-24.5-95.08-50.82-123.57-95-10.39-16.11-17.67-34-27.65-50.41-30-49.32-83.52-83.22-104.81-136.9-19.23-48.46-8.42-103.85-21.53-154.31C100.23,844,91,824.5,87.21,803.6c-5.46-30.43.94-62.77-9.19-92a85.74,85.74,0,0,0-35.74-44.53C29.16,659,11.1,649.5,14.3,634.43S38.14,617.93,53.35,620c48.94,6.6,98.43,13.35,144.4,31.38s88.8,48.77,111.5,92.63c5.74,11.08,10.46,23.3,20.1,31.23,6.28,5.18,14.1,8,21.52,11.39a153.9,153.9,0,0,1,63.95,54.27c10.3,15.42,20.35,34.58,38.66,37.5a109.73,109.73,0,0,1,63-53.18,387,387,0,0,1-34.15-121.12l-2.54-17.24c9.42-44.81-21.61-87.33-30.54-132.25-7.9-39.8,1.83-80.64,7.34-120.84,1.74-12.75,3.07-25.67,1.92-38.49C456.56,374,448,354,443,333.15c-21.29-90.13,28-182,26.7-274.64-.14-10.29-.82-21,3.52-30.37s15.8-16.31,25.05-11.8c4.45,2.18,7.43,6.46,10.18,10.58,12.24,18.37,24.43,37.83,43.16,49.51,12.72,7.92,27.53,11.64,41.21,17.73,28,12.49,50.44,34.5,72.2,56.09,24.52,24.33,49.19,48.9,68.35,77.64C782.12,301,790.55,393.1,823.76,474.4c8,19.53,17.44,38.57,22.82,59,8.47,32.1,6.5,66.31,15.65,98.21,27.88-13.28,32.13-50.16,36.15-80.78,4.72-35.95,14.77-72.25,36.93-100.94,10-13,22.48-24.36,29.92-39,7.06-13.87,9.1-29.66,13.8-44.49,7.26-22.93,20.79-43.27,34.25-63.2q33.46-49.53,67.8-98.45C1113,159.23,1148,112.1,1198.94,90c4.84-2.11,10.18-4,15.32-2.77,10.27,2.44,13.9,15.83,11.3,26.07s-9.22,19-12.14,29.2c-6.68,23.27,7.08,47,10.74,70.93,4.85,31.78-7.46,68,11.18,94.23l6.92,7.12c-14.14,8-17.17,28.3-31,36.9-7.18,4.48-16,5-24.46,6-17.52,2.21-35,7.67-49,18.36-15.51,11.81-25.81,29-35.72,45.83L1051.25,508c-11.14,18.86-22.58,38.71-23.6,60.6-.73,15.87,2.12,31.4,6.92,46.55l25.13,79.27c4.49,14.16,11.14,28.65,20.23,40.41,15,19.47,39.86,28.54,58.14,45,11.84,10.68,21.21,24.66,35.53,31.67l5.94,7.89-2.33,8.89c-4.48,12.21-9,24.55-16.23,35.38-5.13,7.71-11.52,14.51-16.94,22a107.91,107.91,0,0,0-14.25,27.24l-7.37,10.37c-7.24,11.07-9,22.59-16.07,33.75-8.88,14-22.62,24.88-34.65,36.22-12.68,11.94-23,27.17-38.88,34.43-20.75,9.5-45.16,2.77-66.13-6.23-5.26-2.27-10.46-6.3-16.16-5.74-13.08,1.29-40-6.89-51-13.51l-6.9,5.47a35.66,35.66,0,0,0-7.21,18.79l1.23,6.74c.64,8.62,7.3,15.35,11.93,22.64a86.27,86.27,0,0,1,7.47,15.74c6.44,17,10.83,36,4.84,53.14-2.76,7.92-7.73,15.67-6.54,24,.35,2.43,1.22,5,.34,7.26-1,2.51-3.68,3.79-6,5.18s-4.66,3.69-4.14,6.33l-.59,7.87-7.35,18.2c-13.28,22-37.79,35.71-63.14,39.72s-51.45-.84-75.55-9.65c3.59,19.5,2,39.52,1.66,59.34a484.24,484.24,0,0,0,9.86,106.4l.65,8.43-7.1,5.35a40.14,40.14,0,0,0-1.34,12.58,10.83,10.83,0,0,0,.79,4c.66,1.42,1.83,2.57,2.36,4,.88,2.41-.15,5.06-.19,7.62-.06,3.65,1.87,7,3.34,10.33a43.48,43.48,0,0,1,3.5,13.81l3.25,3.47,3.08,6.09.08,38.92a149.25,149.25,0,0,1,38.65-5.19c6.44,0,12.95.38,19.28-.8s12.65-4.17,16.21-9.54c3.19-4.82,3.78-10.88,3.83-16.66.11-11.75-1.91-24.14-9.35-33.24l-1.09-6.23,8.22-6.09c-1.65-15.78,2.08-32.38,11.78-44.94s25.62-20.55,41.42-19.15c6.47.56,13.73,2.42,18.91-1.5,1.73,3.27,6,4.05,9.64,4.45,6.38.71,12.92,1.41,19.12-.21l7.45-1.2Z"></path>
    <path data-name="2a" data-official="" data-plain="Cluster of Flowers" data-loc="" d="M1306,2596.1c-23.91-13.1-39.62-39.94-39.32-67.2s16.58-53.75,40.77-66.32c18.44-9.59,40-11.18,60.76-9.92,5.33.33,10.71.84,15.73,2.66,15.74,5.69,24.27,22.42,30.27,38,8.51,22.14,14.55,48.67,1.27,68.33-5.75,8.51-14.83,15.1-17.69,25-3.77,13,4.2,28.78-3.83,39.66-6.78,9.17-20.32,8.63-31.72,8.33a166.94,166.94,0,0,0-31.1,2.11c-4.26.7-8.6,1.56-12.86.9s-8.55-3.23-9.89-7.33c-2.65-8.13,7.11-16.12,5.33-24.48Z"></path>
    <path data-name="2b" data-official="" data-plain="Stamen Flower" data-loc="" d="M1461.06,2608.18c11.64-9.67,10-31-3-38.7-4.07-2.42-9-3.7-12.13-7.23-3.38-3.78-4-9.22-4.39-14.28-2-23.68-3.74-48.63,6.33-70.16,1.89-4,4.69-8.29,9.06-9.18,8.2-1.67,14.73,9.35,23,8.23,6.24-.85,9.71-8.13,15.7-10,10.31-3.28,19.62,10.7,30.28,8.84,4.81-.85,8.87-4.9,13.76-4.7,7.39.3,10.6,9.32,11.92,16.6,5,27.46,9.7,57.26-3,82.12-2.73,5.33-6.3,10.63-6.28,16.62,0,6.83,4.77,13,4.9,19.78.18,10-9.18,17.3-18.1,21.76a121.54,121.54,0,0,1-30,10.39c-8.12,1.66-16.78,2.45-24.5-.55s-14.13-10.7-13.26-18.94Z"></path>
    <path data-name="2c" data-official="" data-plain="Pistil Flower" data-loc="" d="M1610.23,2619.51l3-23c.44-3.35.87-6.78.08-10.06-1.23-5.08-5.16-9-8.67-12.85a114.46,114.46,0,0,1-29.15-69.07c-.36-5.78-.25-11.76,2-17.11s6.91-10,12.65-10.7c10-1.23,19.4,9.13,28.89,5.88,5.87-2,9.13-8.61,14.87-11,8.29-3.41,17.26,3.42,22.35,10.8,1.72,2.49,3.44,5.26,6.24,6.4,7.39,3,13.45-7,21.15-9.1,5.82-1.59,12.13,1.88,15.42,6.94s4.08,11.33,4.1,17.36c.05,13.65-3.43,27-6.89,40.24-2.25,8.63-4.74,17.67-10.94,24.08-2.18,2.26-4.82,4.19-6.34,6.94-3,5.45-.73,12.27,2.35,17.67s7,10.69,7.43,16.89c.46,7.26-4.27,14.05-10.32,18.09s-13.27,5.83-20.34,7.56c-7.64,1.86-15.4,3.74-23.27,3.47s-16-3-21.13-8.92Z"></path>
</svg>
