
<svg xmlns="http://www.w3.org/2000/svg" viewBox="0 0 1938 2614" id="illustration" preserveAspectRatio="xMidYMid meet">
    <title>Thymelaceæ</title>
    <path data-name="1" data-official="Daphne mezereum" data-plain="Mezereon" data-loc="Woods, England" d="M649.33,1764c-6-23.84-18-46.53-18.52-71.1-.08-3.67.39-7.9,3.41-10,2.68-1.84,6.35-1.2,9.33.09a43.76,43.76,0,0,1,9.11,5.7,153.49,153.49,0,0,1,17.08,15.25,47.28,47.28,0,0,1,7.74,9.88,56.74,56.74,0,0,1,3.17,7.44l11.44,30.93.36,7.55c7.31,2,15.3,1.55,22.16,4.77a43.65,43.65,0,0,1,6.45,4,30.24,30.24,0,0,1,4.57,3.63,20.46,20.46,0,0,1,5.07,10.6,57.5,57.5,0,0,1,.59,11.88l.28,4.22a29.8,29.8,0,0,1-8.35,52c-6.78,2.3-14.13,2.09-21.29,1.86l4.92,21.72a19,19,0,0,0,1.76,5.29c1.47,2.6,4,4.34,6.4,6.19,8.54,6.68,15.3,16.54,15.48,27.38a13.71,13.71,0,0,0,.46,4.53c.66,1.8,2.19,3.09,3.47,4.5,6.21,6.82,7,17.51,3.28,25.93s-11.43,14.65-19.93,18.22l-5.37,1.69c-7.7.26-14.43,4.94-21,8.89a132,132,0,0,1-12.91,6.77,14.6,14.6,0,0,0-3.83,2.21,17.27,17.27,0,0,0-3.09,4.51c-3.73,6.51-9.9,11.88-17.26,13.38a22.93,22.93,0,0,0-4.86,1.15c-2.59,1.13-4.3,3.58-6.42,5.46l-7.12-1.61c-3.67-2.15-6-6.15-7-10.29s-.86-8.44-.71-12.69q.25-6.84.56-13.68c.27-6.23.6-12.58,2.72-18.45a62.93,62.93,0,0,1,5.26-10.43l-2.6-2a16.36,16.36,0,0,1-6.47-5.51l-2.37-3.33c-1.63-8.44-2.74-17.09-1.81-25.64s4-17.08,9.92-23.34a4.12,4.12,0,0,0,1.23-1.88,4,4,0,0,0-.53-2.27,34.21,34.21,0,0,1,4.07-33.91,4.11,4.11,0,0,0,1-1.86,3.86,3.86,0,0,0-.45-2c-9.56-23.28-4.29-51.94,12.94-70.29Zm-48.56,57.92-7.83-45.28c-1.43-8.26-2.86-16.69-1.7-25,1.63-11.79,8.41-22.81,7.75-34.7-1.31-23.82-31.5-40.88-27.31-64.37,1.51-8.44,7.35-15.35,13-21.83,2.43-2.78,4.92-5.63,8.17-7.39,7.94-4.3,17.64-1,26.67-1,16.74,0,32.49-13.38,35.14-29.9l.9-8.45c-3-6.42-6-12.91-10.43-18.46s-10.34-10.19-17.27-11.63a3.81,3.81,0,0,1-2.55-1.21,3.38,3.38,0,0,1-.39-1.84c0-4.64.57-9.29.05-13.9s-2.43-9.36-6.31-11.89c-2.9-1.87-6.49-2.28-9.93-2.4a76.35,76.35,0,0,0-14,.78,7.37,7.37,0,0,1-7.16-1.67,52.61,52.61,0,0,0-47.46-5.84c-5.89,2.2-12.69,5.43-18,2.08-3.62-2.29-5-6.86-5.74-11.08a81.34,81.34,0,0,1-1.16-18.37c6.2.22,11.36,4.65,17.22,6.69,5,1.74,10.41,1.7,15.67,1.2,6.91-.67,14.72-2.83,17.67-9.12,1.6-3.42,1.39-7.41.66-11.12l-.22-5.51A27.78,27.78,0,0,0,558,1455c2.93-1.16,6-2.38,8.11-4.68s3.32-5.75,4-9a55.68,55.68,0,0,0,.19-21.14,22,22,0,0,0-2.37-7.13c-2.5-4.25-7.2-6.86-12-7.86s-9.83-.56-14.72,0c-5.34.67-10.85,1.62-15.29,4.66l-2.56-7.9a21,21,0,0,0-21.32-8,19.85,19.85,0,0,0-19-11.66c-.55-6.22-1.09-12.56.22-18.67s4.79-12.08,10.39-14.86c3.68,7.36,13.61,10.82,21.08,7.35a4.19,4.19,0,0,1,2-.6,3.78,3.78,0,0,1,2.44,1.75c4.32,5.51,8.75,11.49,15.29,14,4.24,1.64,8.93,1.61,13.48,1.55,2.85,0,5.86-.14,8.24-1.69,3-1.93,4.22-5.59,5.06-9,2.78-11.38,3.09-24.11-3-34.1a4.83,4.83,0,0,1-1-2.34,4.26,4.26,0,0,1,.85-2.28c2.61-4.06,6.46-7.54,7.54-12.25.7-3,.14-6.2-.65-9.21-2.33-8.85-6.88-17.27-13.79-23.27s-16.31-9.37-25.37-8.06a122.38,122.38,0,0,0-.75-28.75l.6-4.82a18.34,18.34,0,0,0,5-8l1.87-7.13c-3.46-2.42-6.2-5.71-9-8.89a236,236,0,0,0-26.33-25.72A30.4,30.4,0,0,0,491,1183c-3.94-1.93-9.07-2.66-11-6.58l-3.46-4.33a56.92,56.92,0,0,0-30.05-7.64A16.13,16.13,0,0,0,449,1157c.17-5.16-3.6-9.67-7.87-12.59-1.86-1.27-3.95-2.44-5-4.45s-.79-4.31-.78-6.53a31.79,31.79,0,0,0-3.27-14.27l-.44-2.89a46.57,46.57,0,0,1-5.73-11.62,52.47,52.47,0,0,1,18.31-1.12c2.05-9.3,2.52-19.42-1.66-28-2.19-4.48-5.54-8.29-8.85-12-2.16-2.44-5.1-5.13-8.22-4.18l-.39-1.22a17.52,17.52,0,0,0-.65-9.78c-1.33-3.61-3.92-7.14-3.16-10.91a35.82,35.82,0,0,0,29.49-15l.75-1.43a39.5,39.5,0,0,0-8.37-16.93,26.52,26.52,0,0,0-16.3-9.05c-6.31-.78-13.06,1.37-17.28,6.13,1.61-2.51,1.17-5.88-.2-8.53s-3.52-4.78-5.43-7.06a45.72,45.72,0,0,1-4.41-6.28l-.18-.73a41.3,41.3,0,0,1,15.78-6.15,37.08,37.08,0,0,0,7.44-1.53c2.36-.92,4.56-2.75,5.09-5.23l2.44-5.35L416.42,948a6.62,6.62,0,0,1-1.87-2.25,7.09,7.09,0,0,1,.1-4.1,48.38,48.38,0,0,0-.82-23.09,12.44,12.44,0,0,1-.76-4.49c.19-1.89,1.34-3.52,2.29-5.16a29.28,29.28,0,0,0,.86-27.26c-1-1.94-2.19-4.06-1.56-6.13a8.24,8.24,0,0,1,2.47-3.26c6.77-6.55,11.3-16.38,8.72-25.45s-14.25-15.22-22.11-10c.57-6,5.23-10.78,7.71-16.31s1.16-14.07-4.86-14.83c-2-.27-4.09.52-6,1.29L370.2,819.11c3.22-17.29-9.65-36-27-39.07-3.14-.56-6.4-.69-9.32-2-3.14-1.36-5.57-3.9-8.22-6.06A40.44,40.44,0,0,0,309,763.93c-2.85-.62-5.85-1-8.37-2.43-2.29-1.33-4-3.46-5.67-5.49-5.82-7-12.47-13.47-20.59-17.54S256.45,733,248,736.23c-2.8,1.08-5.69,2.67-8.62,2-5.08-1.15-6.3-8.11-4.55-13s5.29-9.2,5.95-14.36c.45-3.52-.2-7.83,2.67-9.92a9.67,9.67,0,0,1,4.54-1.31l6.69-2.34L277,690.64a11.83,11.83,0,0,0,3.85-1.67c3.27-2.48,3.07-7.53,1.51-11.33-4.36-10.63-15.62-16.3-24.79-23.23s-17.35-19-12.18-29.25c2.19-4.35,6.63-7.88,6.74-12.75.1-4.35-3.55-8.06-7.66-9.49s-8.59-1.06-12.92-.68l-21.77,1.89c-4.32.38-8.85.73-12.86-.93-6.95-2.86-10.21-10.62-13.41-17.41a129.49,129.49,0,0,0-17.43-27.43c-4.22-5.1-11.32-10.25-16.8-6.54-3.29,2.22-4.13,6.63-4.56,10.58A200.65,200.65,0,0,0,153,645.05c-11.51,1.41-23.27,2.9-33.67,8s-19.35,14.72-20.52,26.26c-.63,6.25,1,12.49,3,18.46s4.39,12.17,8.58,17,10.5,8.23,16.84,7.46c1.83-.22,3.69-.78,5.49-.37,4,.89,5.54,6.1,4.24,10s-4.45,6.74-7.16,9.78c-19.31,21.63-17.92,53.91-20,82.83-.22,3.13-.53,6.36-2,9.13a25.73,25.73,0,0,1-4.51,5.49c-6.2,6.33-12.1,13.51-14.07,22.15s1.13,19,9.1,22.88,18.45.43,26,5.17c6.76,4.22,10.12,14.33,18.08,14.71,5.57.27,10-4.87,11.8-10.16s1.78-11,3.52-16.34c4.51-13.72,22.18-21.52,35.1-15.08C185.92,869,178.84,876,175.93,885c-6.32,19.66,9.22,41.14,3.77,61.06l.2,7.33a80.54,80.54,0,0,1,1,46.93c-3.21,11.3-8.74,24.1-2.33,34,7.23,11.09,26,11.51,30.64,23.93,1.33,3.58,1.14,7.62,2.68,11.12,5,11.34,24,10.23,29.17,21.47,2.81,6.07.58,14.12,5,19.16,2.77,3.17,8.12,5.56,7.08,9.64-.38,1.47-1.57,2.56-2.53,3.73-6.1,7.44-3,18.61,1.39,27.15,1.48,2.88,3.14,6,2.4,9.2-.55,2.37-2.37,4.22-4.25,5.76-7.06,5.76-16.49,9.37-20.63,17.49-3.87,7.58-1.86,16.73.63,24.87,2.78,9.06,6.33,18.37,13.46,24.61a32.5,32.5,0,0,1,4.4,4c3.67,4.62,2.82,11.2,3.62,17a28.8,28.8,0,0,0,18,22.56l7.32,1.63a43.33,43.33,0,0,0,11-7.26c1.41,10.72,5.29,21.47,13,29.09s19.61,11.46,29.72,7.63c2.84-1.07,5.47-2.69,8.41-3.43,8.77-2.19,18.52,5.72,18.18,14.75a4.89,4.89,0,0,1-.63,2.5,6.08,6.08,0,0,1-3,2c-10.17,4.4-18.6,12-26.51,19.75-3.56,3.5-7.12,7.13-9.37,11.59s-3,9.91-.9,14.42c1.35,2.86,3.72,5.08,5.78,7.48a42.11,42.11,0,0,1,9.44,20c1.07,6.12,1,13.06,5.36,17.51,5.33,5.47,14.27,4.27,21.57,6.5,2.12.65,4.44,2,4.6,4.24s-2.05,3.93-3.68,5.55c-4,4-5.25,9.79-6.14,15.31a207.63,207.63,0,0,0-2.58,37.85l1.25,9.73a21.06,21.06,0,0,0,9.63,16.81c1.75,1.1,3.74,2,4.85,3.74,1.47,2.28,1,5.24.49,7.9-4.62,24.15-7.72,48.76-6.22,73.3-9.6-4.28-20.61.5-30,5.21-8.2,4.11-17.28,9.29-19.35,18.23-1.61,7,1.81,14.35,7,19.33s11.82,8,18.35,11a38.92,38.92,0,0,0-5,29.5c1.07,4.52,3,9.12,2,13.67a24.73,24.73,0,0,1-2.74,6.37c-2.86,5.35-5.36,11-5.95,17.06s1,12.51,5.29,16.77c5.33,5.24,13.51,6.09,21,5.85s15.2-1.24,22.21,1.32c3.19,1.17,6.07,3,9.16,4.4,5.2,2.35,10.88,3.35,16.5,4.34l4.1,4.65c3.45,37.93,10.49,76.2,28,110,3.89,7.52,8.34,14.9,10.38,23.12,3.27,13.2.45,28.57,8.77,39.33,4.31,5.57,10.89,8.8,16.51,13,9.49,7.18,16.24,17.29,22.81,27.2l46.2,69.74-.38,8.41c6.36,34.11,6.89,69.1,13.11,103.25,4.07,22.38,10.57,44.25,17,66.06q12.15,40.88,24.29,81.74c2.76,9.28,5.75,19,12.55,25.85,7.92,8,19.77,11,28.33,18.31a35.26,35.26,0,0,1,11.87,30.21c-1.15,10-6.62,20.23-3.18,29.73,2.92,8.06,11.81,12.81,20.38,13.11s16.85-3.07,24.44-7c4.06-2.12,8.71-4.51,13-2.86,2.43.94,4.21,3,5.85,5.06q12.24,15.11,23.31,31.1c3.55,5.12,7.11,10.43,12.2,14s12.18,5.09,17.58,2c7.46-4.27,8.37-14.66,7-23.15-2.71-16.69-10.6-32-16.7-47.79s-10.46-33.24-5.8-49.5c3.78-13.18,13.37-26,9.77-39.22-2.9-10.61-15.21-17.63-25.82-14.7l-8.89-2.7a406.26,406.26,0,0,1-23.65-105.79l6-2.19a65.75,65.75,0,0,0,17.18-3.87c4.81-1.8,9.5-4.23,13-8,3.92-4.29,6-10,6.59-15.81a62.4,62.4,0,0,0-1.05-17.34l-8.27-6.85c-9.55.3-19.32,2.78-26.77,8.76-1.89,1.51-3.61,3.23-5.47,4.76a37.71,37.71,0,0,1-13.11,7c-2.24.68-4.56,1.15-6.73,2a32.27,32.27,0,0,0-6,3.48c-5.26,3.65-10.4,7.82-13.56,13.39l-3.69,4.88c.13,6.48-.9,12.92-1.92,19.31q-2.71,16.89-5.42,33.78c-5-5-10-10.11-13.7-16.18a84.34,84.34,0,0,1-5.06-10.38c-7-16.22-13.56-32.67-18.08-49.74-5.06-19.06-7.52-38.72-9.33-58.36l1.14-7.64c-2.15-21.13-4.31-42.41-2.52-63.57,1-11.66,3.14-23.17,5.36-34.65,1.53-7.92,3.12-16,6.84-23.12a16.57,16.57,0,0,1,5.25-6.48l2.22-3.3a186.35,186.35,0,0,0,.1-23.75c-.14-2.36-.38-4.87-1.8-6.77-1.06-1.42-2.66-2.34-3.9-3.61-2.51-2.57-3.31-6.32-3.84-9.88-3-20.46-.71-41.5-4.57-61.81Z"></path>
    <path data-name="1a" data-official="" data-plain="Flower, opened" data-loc="" d="M183.68,2517.54,182,2466.21c-.17-4.82-.95-10.62-5.34-12.62s-9.35,1.33-13.62,3.76c-13.74,7.85-30.62,6.76-46.39,5.44-3.11-.26-6.39-.58-8.89-2.45s-3.84-5.26-4.61-8.44a50.06,50.06,0,0,1,12.83-46.16c1.58-1.59,3.39-3.3,3.56-5.54a8.35,8.35,0,0,0-1.47-4.58,70.63,70.63,0,0,0-12.59-16c-2.55-2.42-5.4-4.86-6.32-8.24s.3-6.9,2.23-9.75c4.62-6.84,12.9-10.27,21-12s16.47-2.06,24.34-4.58,15.65-7.38,24-6.83c3.15.21,6.24,1.18,9.4,1.15s6.64-1.4,7.77-4.36a11.13,11.13,0,0,0,.24-5.14c-.74-7.08-.83-15,3.75-20.42,6.38-7.58,18.11-6.6,27.87-4.91q17.28,3,34.52,6.21c4.44.83,9,1.71,12.83,4.08,5.86,3.62,9.25,10.24,11,16.91s2,13.63,3.31,20.39a25.47,25.47,0,0,0,3.33,9.36c2.56,3.88,6.71,6.41,10.91,8.42,11.64,5.55,25.72,8.87,32.39,19.91,8,13.29.1,31.67-13,39.94s-29.58,8.88-45.09,8.28a21.18,21.18,0,0,0-7.24.54c-5.6,1.77-8.57,7.84-10.07,13.51-5.78,21.8.71,46.34-9.22,66.6-1.59,3.24-3.61,6.42-3.9,10-1,11.87,16.6,19.34,15.11,31.15-.84,6.7-7.56,10.9-13.8,13.48a102.77,102.77,0,0,1-46.66,7.5c-4.06-.3-8.55-1.08-11-4.31-4.06-5.27-.23-12.65,2.37-18.78a46.55,46.55,0,0,0,2.37-29Z"></path>
    <path data-name="1b" data-official="" data-plain="Stamen" data-loc="" d="M331.12,2504.4a7,7,0,0,0,1.06-10.14c-1.62-1.72-4-2.47-5.85-4-4-3.31-4.31-9.23-4.29-14.41,0-10.89.2-22.25,5.22-31.9,2-3.87,4.91-7.47,8.88-9.27,2.87-1.31,6.09-1.59,9.23-1.86,6.2-.52,12.88-.94,18.19,2.31,7.49,4.57,9.36,14.47,10.15,23.21q.72,8.1,1.05,16.21c.16,4,.12,8.48-2.41,11.65-1.38,1.73-3.39,2.9-4.64,4.73-2,2.89-1.61,6.74-1,10.19,1.3,7.42,3.39,14.76,3.64,22.29s-1.61,15.57-7,20.8c-4,3.81-9.35,5.73-14.68,7.09a96.71,96.71,0,0,1-24.43,3c-2.28,0-4.69-.14-6.61-1.37-4-2.58-4-8.44-3.08-13.14a76.15,76.15,0,0,1,11.94-28.17Z"></path>
    <path data-name="1c" data-official="" data-plain="Section of Ovary" data-loc="" d="M395.09,2544.5a61.51,61.51,0,0,0,8-36.47c-.75-8-3.06-16.36-.31-23.94a32.28,32.28,0,0,0,1.76-5c.86-4.76-2.3-9.17-4.72-13.36-9.27-16-9.14-35.63-8-54.1.33-5.05.72-10.15,2.27-15,2.9-9,9.74-16.74,10.79-26.15a14.47,14.47,0,0,0-1.8-9.39c-2.73-4.23-8.3-6.27-10.28-10.9s.46-9.93,4.33-12.93,8.84-4.08,13.67-4.84c9.06-1.42,18.23-2,27.38-2.58,4.61-.29,9.35-.57,13.76.78a17.5,17.5,0,0,1,11.45,10.83,14.56,14.56,0,0,1-3.66,15c-1.56,1.42-3.5,2.5-4.62,4.29-1.31,2.11-1.23,4.78-.87,7.23,1.08,7.4,4.22,14.32,6.1,21.56,3,11.56,2.71,23.69,2.4,35.63-.24,9.21-.52,18.62-3.71,27.26-3.29,8.88-9.62,16.82-10.49,26.26-.66,7.15,1.94,14.27,1.57,21.44a26.35,26.35,0,0,1-8.48,17.94c-1.89,1.72-4.06,3.19-5.55,5.27s-2.15,5-.72,7.17a9.94,9.94,0,0,0,3.34,2.63c3.88,2.34,7.49,5.36,9.62,9.36s2.58,9.08.33,13c-1.77,3.11-5,5.15-8.21,6.66-9.28,4.29-19.73,5.08-29.93,5.8-4.81.35-9.95.62-14.16-1.74s-6.66-8.45-3.59-12.17Z"></path>
    <path data-name="1d" data-official="" data-plain="Seed" data-loc="" d="M468.65,2557.93c4.76-9.12,9.66-19.48,6.59-29.3-1.18-3.76-3.45-7.07-5.14-10.63-4.31-9-4.77-19.65-2.31-29.37s7.69-18.57,14.17-26.21c2-2.4,4.34-4.78,7.34-5.73,4.3-1.37,8.93.51,12.87,2.7,9.53,5.3,18.05,12.94,22.75,22.78s5.09,22-.51,31.4c-2.39,4-6,8.18-4.8,12.7.54,2.09,2,3.78,3.32,5.5a31.52,31.52,0,0,1,6.62,18.55,23.74,23.74,0,0,1-7.67,17.86c-3.7,3.24-8.43,5.07-13.19,6.36-7.31,2-15,2.88-22.49,1.54s-14.65-5-19.31-11Z"></path>
    <path data-name="2" data-official="Daphne laureola" data-plain="Spurge Laurel" data-loc="England" d="M1218.44,2125.91a93.66,93.66,0,0,1,1.4,16.63l1.47,5.79-16.63,68.45c-3.59,14.8-7.21,29.66-12.81,43.82-3.8,9.62-8.52,18.9-11.57,28.79-8.31,27-3.64,56.08-6.32,84.19-.44,4.57-1.52,9.8-5.59,11.94-6,3.12-15-2.28-19.25,2.9-2,2.41-1.66,5.89-2,9-1.49,12.11-16.76,19.56-27.94,14.67s-16.43-19.28-12.69-30.9c1.27-3.94,3.4-7.67,3.8-11.79s-1-8.25-2.11-12.28a101.58,101.58,0,0,1,5.79-69.76l1-5.65a46.93,46.93,0,0,1,4.47-33.34c2.71-4.91,6.3-9.3,9-14.23,5.1-9.48,6.51-20.42,8.89-30.91a162.41,162.41,0,0,1,7.39-23.91c3.25-8.24,7.23-16.41,8-25.23.53-5.66-.28-11.37,0-17.05.45-8.1,3.34-16.22,8.94-22.08,2.56-2.67,5.61-4.83,8.14-7.52,8.64-9.2,10-23,16.41-33.86.71-1.19,1.61-2.43,3-2.71,2-.43,3.69,1.47,5.15,2.93s4.09,2.59,5.38,1l10,12.89a11.79,11.79,0,0,1,2.51,4.46c.29,1.29.12,2.65.34,4,.41,2.5,2.14,4.55,3.45,6.72a22.48,22.48,0,0,1,2.89,15.1Zm73.28-303.61c-4,.54-7.46,3-10.15,5.92a66.58,66.58,0,0,0-6.79,9.86,158.16,158.16,0,0,1-25.31,31.13l-1.84,4.53-.63,4.44-2.45,2.71c-1.15,1.61-3,2.62-4.16,4.22a6.72,6.72,0,0,0,2.43,9.57,5.89,5.89,0,0,1,1.8,1c1,1,.67,2.73.23,4.11a141.1,141.1,0,0,1-6.52,16.74l-2.54,4.1c-6.27,29.9-23.85,56.91-27.19,87.26l1.52,5a251.56,251.56,0,0,1,55.26-17.27l2-6.11a515.94,515.94,0,0,0,14.69-74.07l-.63-6.46c-3.72,1.91-8,2.32-12.13,3s-8.43,1.84-11.38,4.82c4.19-14.12,12.63-26.56,21.38-38.4,3.19-4.32,6.5-8.74,7.86-13.94l1.64-4.06q2-15.56,2.9-31.23Zm7-52.41-9.27-18.31c-2.12-4.19-4.26-8.44-5.21-13a44.51,44.51,0,0,1-.58-10.88,135.54,135.54,0,0,1,6.66-36.52l-.8-1.26c-5.85,1.95-9.64,7.66-11.86,13.42s-3.36,12-6.29,17.38c-1.42,2.62-3.23,5-4.49,7.72-3.7,7.89-2.31,17.1-3.31,25.76-1.15,10-5.54,19.39-7.2,29.33-1.1,6.56-1,13.25-.87,19.9l3.1,3.43a200.52,200.52,0,0,0,28.07-8.54c2.52-1,5.13-2.07,6.91-4.11,2.77-3.14,3-7.74,4.78-11.51Zm-5.87-133.43c1.87-3.23,4.08-6.42,7.28-8.35s7.6-2.27,10.52.07a100.24,100.24,0,0,1,21.6-22.68l-7.81-.24-1,.12a41.09,41.09,0,0,1-10.91,10.45,5.61,5.61,0,0,1-3.79,1.23c-1.35-.23-2.45-1.89-1.65-3-3.55,4.84-11.43,4.33-15.42,8.82-2.72,3.06-2.84,7.57-2.83,11.67Zm14.57-65.44a50.53,50.53,0,0,1,23.65-10.28,2.67,2.67,0,0,0,1.61-.62,2.31,2.31,0,0,0,.5-1.25,14.33,14.33,0,0,0-3.16-10.84,32.65,32.65,0,0,0-8.85-7.42c-1.13-.7-2.5-1.4-3.72-.87a4.15,4.15,0,0,0-1.75,1.94,104.54,104.54,0,0,0-10.13,24.62Zm25.59-76.54-8,18.11c-1.65,3.74-3.33,8-1.92,11.8,1,2.7,3.32,4.64,5.42,6.6a62.56,62.56,0,0,1,14.18,19.65,14.8,14.8,0,0,1,6.13-4.36l4.86-5.23,12.18-24a23.24,23.24,0,0,0,3.56-12.9l.22-6.09c.27-7.84.53-15.79-1.13-23.45a27.42,27.42,0,0,1-7.45,1.06,9.23,9.23,0,0,1-6.73-2.92,46.33,46.33,0,0,1-13,11.67Zm65.31-36.8a11,11,0,0,0,4.25-7.06,2.08,2.08,0,0,0,0-.93c-.18-.62-.83-1-1.41-1.28a19.42,19.42,0,0,1-9.94-16.57l-6.26,8.89a15.14,15.14,0,0,1,7.64,6.57,27.31,27.31,0,0,1,3.29,9.68Zm22.59-31.46,7.17-10.38a1.11,1.11,0,0,0,.28-.83,1,1,0,0,0-.58-.57,15,15,0,0,0-8.13-1.52,44.3,44.3,0,0,0-8.22,1.55l-6.43,1.63,3.75,3.09a1.11,1.11,0,0,0,.45.27,1.4,1.4,0,0,0,.86-.18,3.54,3.54,0,0,1,3.63.77c1.1,1,1.4,2.66,1.87,4.11s1.39,3,2.89,3.24Zm-13.77-45c6.89.49,13.34,3.73,18.82,7.93,2.84,2.18,6.14,4.78,9.57,3.79,2.52-.73,4.08-3.17,5.38-5.44l-.43-2.83c-2.37,1.12-5.33,0-7-2a14,14,0,0,1-2.78-7.22,9.58,9.58,0,0,1,.35-5.29c.72-1.64,2.53-2.92,4.26-2.48a19.91,19.91,0,0,1-7.59-12.53c-.23-1.43-.75-3.31-2.19-3.3-1,0-1.63.92-2.14,1.74l-15.32,24.74Zm28.38-43.2a33.15,33.15,0,0,1,14.37,1.9.53.53,0,0,0,.84-.39l1.2-3.33a1.58,1.58,0,0,0,.13-1c-.13-.43-.59-.66-1-.87a12.34,12.34,0,0,1-4.95-4.61l6.52,3.36a3,3,0,0,0,1.55.47,3.15,3.15,0,0,0,1.25-.46l3.44-1.89a15.76,15.76,0,0,1-7.83-7.93c-1.06-2.4-1.63-5.23-3.71-6.82a1.76,1.76,0,0,0-1.48-.46,2,2,0,0,0-1,.79,30,30,0,0,0-2.69,4.46l-7.38,13.92Zm25.7-38.54a3.66,3.66,0,0,1,3.35,2.57,11.07,11.07,0,0,1,.23,2.51,10.65,10.65,0,0,0,2.31,6.07,7.71,7.71,0,0,1,4.68-.06,7.36,7.36,0,0,1,4.1,4.33,21.92,21.92,0,0,1,1.16,6,3.14,3.14,0,1,1,4.76-2.11,18.9,18.9,0,0,1,5.25-.42c-1-2.55,1.33-5.14,3.57-6.73a59.58,59.58,0,0,1,6-3.75c-10.45-.48-21.38-5.5-25.86-15a14.74,14.74,0,0,0-2.16-3.86,3.48,3.48,0,0,0-4-1,4.94,4.94,0,0,0-1.74,2.11l-3.27,6ZM1439,800.51a30.77,30.77,0,0,0,6.06,30c1.7,1.9,3.66,3.61,5,5.81s1.76,5.11.36,7.24c-6.9-.72-12.83,4.67-17.27,10a15.89,15.89,0,0,0-3.56,6c-.91,3.55.54,7.34-.16,10.93-.66,3.37-3.1,6.05-5.07,8.87a37.23,37.23,0,0,0-5,31.8q6.81-5.67,13.49-11.51c2.07,7.5,1.12,16.44,6.52,22,3.87,4,9.88,5,14.72,7.78a3.84,3.84,0,0,1,1.71,1.57,4.21,4.21,0,0,1,.2,2.06l-.53,7.76a3.87,3.87,0,0,1-.65,2.3,4,4,0,0,1-2.47,1c-7.3,1.22-14.72,3.29-20.44,8s-9.35,12.57-7.24,19.66a5.1,5.1,0,0,0,1.91,3c2.39,1.49,5.25-.75,7.71-2.15,3.88-2.2,8.69-2.28,13-1.18s8.29,3.29,12.21,5.45l2.47,3.07-.16,18.81c0,3.6,0,7.5,2.27,10.32,2.82,3.56,8.29,4,12.48,2.28s7.36-5.25,10.29-8.73,5.85-7.12,9.8-9.37a4.29,4.29,0,0,1,3.62-.66,4,4,0,0,1,1.82,1.89c2.44,4.38,1.92,9.71,2.22,14.71s2.12,10.69,6.82,12.42c3.94,1.45,8.48-.64,11.12-3.9s3.76-7.46,4.73-11.54c3-12.71,4.85-26.92-1.87-38.11-1.55-2.58-3.61-5.42-2.75-8.3a9.28,9.28,0,0,1,2-3.11l10.92-13c2.32,6.36,4.81,12.82,9.17,18s11,8.92,17.73,8.07c4.25-.54,8.11-2.85,11.37-5.64a39.5,39.5,0,0,0,13.37-25.59,102.29,102.29,0,0,0,21.33,3.8l-1.46,25.54c-.38,6.57-.76,13.19-2.33,19.58-2,8.29-6,16-9.39,23.8-8.18,18.91-13.08,39-19.37,58.65s-14.21,39.15-27.44,54.94l-2.2,5.46c-4.18,10.28-8.4,20.63-14.42,30-2.63,4.06-5.59,7.92-7.68,12.28s-3.29,9.27-4.55,14q-3,11.28-6.8,22.32a56.47,56.47,0,0,1-4.41,10.26c-3.67,6.22-9.63,11.43-10.77,18.56l-1.63,4.63a4,4,0,0,0,3.09,2.76,5.62,5.62,0,0,1,1.53.31c1.17.56,1.29,2.14,1.24,3.44a7.15,7.15,0,0,1,4.9-1.2c1.68.33,3.2,1.95,2.89,3.64,3-1,3.54-5.72,6.6-6.65a56.63,56.63,0,0,0,3.78,10.34,10.72,10.72,0,0,1,1.23,3.42,3.23,3.23,0,0,1-1.35,3.17,10.24,10.24,0,0,1,3.53,4.92l3.48.61a6.86,6.86,0,0,0,3.31-9.56c-1.1-1.82-3-3-4.19-4.82-1.67-2.62-1.41-6-2.23-9-.9-3.3-3.16-6.5-2.38-9.83l5.7.11.13-5.81a14.68,14.68,0,0,1,6.52,2.33,23.36,23.36,0,0,1,3.3-8.47,11.78,11.78,0,0,1,4.89,7.38,9.67,9.67,0,0,1,3.7-6.51c.9-.68,1.91-1.2,2.82-1.87,3.15-2.36,4.85-6.55,8.46-8.13l4.89-3.59a302,302,0,0,0,49.47-86.67c1.21-3.28,2.48-6.76,5.21-9,2.1-1.7,4.8-2.41,7.38-3.23,23.6-7.53,40.89-27.29,56.92-46.19-1,10.07,3,20.66,10.81,27.07s19.44,8.12,28.46,3.55c8.59-4.35,13.76-13.22,18.46-21.62a68.62,68.62,0,0,0,39,20.19c8,1.2,16.68.84,23.62-3.39,10-6.07,14-20.19,8.82-30.63l29.35-2.93c4.72-.47,9.5-.94,14.2-.31a30.86,30.86,0,0,1,15.16,6.52c6.48,5.24,12.22,13.66,20.52,12.85,5.35-.52,9.62-5.22,11.06-10.4s.56-10.74-.88-15.92l4.93-2.44c4.92-1.85,10.1-3.88,13.33-8s3.45-11.11-.94-14c-.91-.6-2.08-1.13-2.32-2.2a3.58,3.58,0,0,1,.88-2.59,13.26,13.26,0,0,0,2.45-7.66c-.14-2.72-1.81-5.48-4.43-6.25-1.12-.33-2.39-.32-3.31-1s-1.23-2.26-1.6-3.52c-2.1-7.23-11.11-10.26-18.56-9.14s-14.14,5.1-21.37,7.24a44.69,44.69,0,0,1-23.35.54,8.86,8.86,0,0,1-4.11-1.91c-2.06-2-1.94-5.27-1.82-8.13a87.49,87.49,0,0,0-.55-14,13.09,13.09,0,0,0-1.64-5.62c-1.76-2.72-5.23-3.9-8.47-3.86s-6.37,1.11-9.48,2a85.6,85.6,0,0,1-17.68,3,4.58,4.58,0,0,1-3.27-.65c-1.52-1.27-.85-3.67-.91-5.64-.12-3.91-3.48-6.83-6.39-9.43a87.45,87.45,0,0,1-21-28.41,7.09,7.09,0,0,1-.83-2.92c.06-3.64,4.87-4.8,8.5-5,8.69-.55,17.51-2.1,25.12-6.32s13.91-11.47,15.33-20.06a23.63,23.63,0,0,0-8.44-21.9l-3.75-5c-2.05,1.31-4.7-1.28-4.64-3.71s1.62-4.53,2.59-6.76c2.31-5.3,1.3-11.4.25-17.09a76,76,0,0,0,35.37-1.34,24.57,24.57,0,0,0,8.21-3.64c3.72-2.79,5.89-7.16,7.63-11.47a102.66,102.66,0,0,0,4.77-15c.65-2.76,1.18-5.7.3-8.41-1.09-3.35-4.13-5.66-7.14-7.5a69.31,69.31,0,0,0-11.9-5.81c-3-1.15-6.36-2.2-8.4-4.74a8.32,8.32,0,0,1,.8-10.87l5.57-.17c3.87.94,7.27,3.23,11,4.5s8.51,1.23,11.1-1.8c2.14-2.51,2.09-6.19,1.6-9.46a49.23,49.23,0,0,0-6.11-17.3c-1.73-3-3.79-5.78-4.94-9s-1.23-7.1.83-9.85c3.11-4.14,9.35-4,13.79-6.66,6.08-3.65,7.34-13.26,2.41-18.36-1.45-1.49-3.35-2.7-4.07-4.65-1-2.61.56-5.44.64-8.22a9.48,9.48,0,0,0-5.08-8.25,14.15,14.15,0,0,0-9.92-1.05,12.73,12.73,0,0,1-4.13.65c-1.39-.14-2.83-1.14-2.89-2.54,0-1.2.9-2.19,1.84-2.94,7.37-5.87,17.83-6.24,25.74-11.35,1.4-.91,2.79-2.08,3.16-3.71.63-2.79-2-5.18-4.31-6.82-3.27-2.27-6.64-4.42-10.09-6.42-3.85-2.23-8-4.44-10.39-8.16a26.16,26.16,0,0,1-2.82-6.92l-5.08-17-3.43-7.17c-1.8-10.1-9-18.8-18.15-23.52s-19.87-5.72-30-4c-1.09-6-6.33-10.37-11.59-13.52a77.23,77.23,0,0,0-24.07-9.38c12.59-12.26,25.19-24.53,36.61-37.88,5.31-6.22,10.44-12.79,13.32-20.44,3.86-10.25,3.59-22.12,9.72-31.2,2.45-3.64,5.82-6.61,8.11-10.35s3.33-8.8.82-12.4c-2.83-4.08-8.64-4.44-13.6-4.31a414.35,414.35,0,0,0-49,4.2l.79-5.37,47-103c2.54-5.57,5.07-12.16,2.18-17.56-1.55-2.9-4.43-4.85-7.39-6.29-17.15-8.34-38.18-2.22-53.83,8.68-29.91,20.82-45.84,56-60.3,89.39-7.82-34.74,3.57-75.11-17.25-104-6.39-8.88-15.56-16.06-19.22-26.37-2-5.55-3.24-12.84-9-14.25s-10.32,4.52-13.21,9.65c-12.21,21.7-24.83,45.18-22.4,70-3.1-10-14.29-15-24.62-16.46s-21.11-.49-30.94-4-18-11.06-28.26-12.18c-2-.23-4.31-.12-5.9,1.21-2,1.66-2.22,4.59-2.19,7.19.36,28.86,14.47,55.74,18.92,84.26,4.13,26.46.35,55.55,14.67,78.18-14.23-13.14-25.33-29.29-38.69-43.32s-30-26.35-49.3-28.4c-17.9-1.89-35.38,5.27-52,12.28a12.89,12.89,0,0,0-5.15,3.23c-2.65,3.2-1.51,8.28,1.29,11.35s6.82,4.68,10.61,6.4c51.55,23.5,77.3,81.32,120.19,118.36-24-7.06-50.81-8.67-73.37,2.18s-39,36.56-33.42,61c.57,2.51,1.44,5.09,3.33,6.84,4.65,4.31,12.29,1.23,17-3a47.46,47.46,0,0,0,14.55-23.95A182.42,182.42,0,0,1,1598,645.94l-5.85,3.55c-8.3-.66-18.58-.26-22.31,7.18a19,19,0,0,0-1.55,7.7c-.24,4.89-.07,9.94,1.88,14.43s6,8.33,10.88,8.79c6,.56,11.11-3.78,16.56-6.29a3.72,3.72,0,0,1,2.66-.45,3.79,3.79,0,0,1,1.86,1.94,37.68,37.68,0,0,1,3.65,9.26,3.12,3.12,0,0,1,0,2.29,3.4,3.4,0,0,1-2.46,1.25,38.67,38.67,0,0,0-26.57,20.59,7.11,7.11,0,0,1-2.19,3.09c-1.47,1-3.4.59-5.09.09-13-3.82-23.89-12.75-33.63-22.21-4.36-4.22-9.55-8.95-15.55-8.1-5,.71-8.57,5.1-11.48,9.24a263.13,263.13,0,0,0-17.68,29,8.07,8.07,0,0,1-2.25,3c-1.46,1-3.4.92-5.19.9A40.81,40.81,0,0,0,1458,740c-1.09.87-2.25,1.84-3.64,1.85a4.7,4.7,0,0,1-3-1.36c-4.29-3.73-5.14-9.92-6.49-15.45s-4.42-11.66-10-12.56c-1.77-.29-3.6,0-5.36-.36-3.61-.75-6.16-4.09-9.66-5.24-5.14-1.69-10.74,2-13.4,6.68s-3.21,10.27-4.33,15.57-3.15,10.83-7.64,13.85c-4.73,3.19-11.34,3-15.59,6.77-5.22,4.7-3.38,14.78,3.17,17.33,1.51.58,3.22.85,4.42,1.94s1.69,3,2,4.77a73.06,73.06,0,0,1-1,26.89c-.76,3.33-1.7,7.05.06,10,2.63,4.37,9,3.82,14,2.64,6.5-1.55,13.63-3.67,17.08-9.4,1.43-2.38,2.09-5.21,3.8-7.4,4-5.08,11.61-4.78,18-4Zm-137.34,863.75c.49-3,3.73-4.67,5.2-7.32a12.77,12.77,0,0,0,1-2.47l3.93-12.39c-2.41,4.12-6,7.36-9.13,11a3.48,3.48,0,0,0-.78,1.23,4.43,4.43,0,0,0,.2,2.3,13.48,13.48,0,0,1-.07,6.59Z"></path>
    <path data-name="3" data-official="Dais laurifolia" data-plain="Laurel-leaved Dais" data-loc="Cape of Good Hope" d="M1044.35,1484.07c-2.84,15.71-8.11,30.86-13.36,45.94a79.32,79.32,0,0,1-5.48,13.15,49.36,49.36,0,0,1-14,15.2c6.63,19.35,13.28,38.75,17.66,58.74q13.42-31.74,27.83-63l3.2-3.33c2.32,2.76,3.47,6.29,4.56,9.72,3.11,9.72,6.23,19.55,7,29.73l1.12-.31,9.4-12.21c4.31-5.61,8.66-11.25,13.83-16.09a2.8,2.8,0,0,0,1.12-1.78,2.62,2.62,0,0,0-.41-1.31l-2.48-4.85-3.26-1.61c-2.85-1.1-4.75-3.87-5.73-6.77s-1.21-6-1.8-9c-.74-3.82-2.07-7.63-1.63-11.5a25.48,25.48,0,0,1,1.63-5.9l8.07-22.08.33-6.3a300.34,300.34,0,0,1,27.74-55c3.57-5.57,7.47-11.5,7.31-18.11-.06-2.54-.73-5.1-.25-7.59.55-2.82,2.48-5.14,4-7.6,2.68-4.48,3.92-9.64,5.06-14.73q3.42-15.11,6.18-30.36a44.28,44.28,0,0,0,1-11.85c-.39-4.36-2-8.5-3.61-12.57l-5.64-14.36a30.78,30.78,0,0,1-14.66,3.47l-.7,16.56c-.17,3.93-.6,8.39-3.73,10.76-2.61,2-6.2,1.79-9.45,1.51-8.14-.68-16.68-1.51-23.42-6.11a30.72,30.72,0,0,1-9.71-11.52,3.15,3.15,0,0,0-1.35-1.6,3,3,0,0,0-1.91.11l-7,2-3.28-.86c-.44-1.54-2.21-2.2-3.65-2.91a13.36,13.36,0,0,1-7.31-11.76c0-1.83.39-3.64.52-5.46a8.79,8.79,0,0,0-1-5.3c-.38-.62-.88-1.15-1.3-1.75a17,17,0,0,1-2.09-5.46c-1.09-4.08-2.56-8.19-5.31-11.4l-.9-3a14.22,14.22,0,0,1-5.52-6,1.64,1.64,0,0,0-.41-.61,1.91,1.91,0,0,0-1-.25,4.61,4.61,0,0,1-3.31-2.58,10.92,10.92,0,0,1-1-4.23c-.25-3.93.24-8.07,2.38-11.37.76-1.17,1.7-2.2,2.54-3.3a46.31,46.31,0,0,0,5.28-10l2.14-3.5,15.07-7.47a14.6,14.6,0,0,0,5.15-3.56,14.44,14.44,0,0,0,2.31-5.6c2-7.74,3.94-16.16.78-23.5-2-4.54-5.64-8.09-8-12.4-3.89-7-4.13-15.31-4-23.28.07-4.57.44-9.61,3.64-12.87,3.45-3.51,8.94-3.74,13.86-3.74,3.76,0,7.61,0,11.16,1.23,2.66.91,5.23,2.5,8,2.28,5.22-.4,7.78-6.47,12-9.6,2.79-2.06,6.65-3.1,8.14-6.23,1.7-3.58-.65-8.15,1.18-11.67,1.33-2.57,4.39-3.63,7.17-4.46,7.06-2.11,15.32-4,21.29.28,1.38,1,2.6,2.32,4.24,2.75,2.08.55,4.23-.46,6.14-1.44,6.1-3.12,13.59-6.19,19.44-2.63,5.58,3.4,6.55,11,6.92,17.47l-.81,5.36,17.18-3.95a6.81,6.81,0,0,0,3.69-1.69c1-1.13,1.14-2.75,1.22-4.25,1.77-32.53,1.61-65.35,8-97.3,1.85-9.24,4.27-18.45,8.4-26.93,7-14.39,18.67-26.11,31.7-35.41l-.33-8c-4.89-16.05-5.27-33.08-5.48-49.86-.1-7.15-.16-14.37,1.36-21.35s4.68-13.72,7-20.61c3.77-11.49,5.11-23.61,6.43-35.63,9.93,2.56,18.15,10,23.26,18.88s7.4,19.16,8.4,29.37a179.16,179.16,0,0,1,33.37-40.59c4-3.59,9.61-7.19,14.27-4.55s4.65,9.18,8.21,13c4.16-2,9.38.86,11.52,5s2,9,1.85,13.61c10.27-7.26,21.7-13.1,34-15.9s25.43-2.42,37.1,2.29l6.07-1.17c-.91,3.55.54,7.34-.16,10.93-.66,3.37-3.1,6.05-5.07,8.87a36,36,0,0,0-4.39,8.52l-6.56,2.45c-11.6,7-16.62,20.88-23.39,32.62-3.86,6.71-8.5,13-12.06,19.84-2.59,5-4.58,10.25-6.69,15.46a348.81,348.81,0,0,1-24.44,48.92c-2.17,3.61-4.48,7.26-7.77,9.88l-1.48,4.4c9.22-3.16,19.27-2,29-1.26q11.87.93,23.75,1c3.68,0,7.9.25,10.17,3.15,1.73,2.2,1.71,5.38.68,8a24.41,24.41,0,0,1-4.77,6.85l-6.47,7.3a29.62,29.62,0,0,0-4.42,5.93c-.62,1.21-1.21,2.65-2.5,3.12a3.16,3.16,0,0,0-.9.34c-.72.5-.52,1.58-.53,2.46,0,2.37-2,4.19-3.08,6.3a17.08,17.08,0,0,0-1.39,6l-1.06,10.22-1,6.65c-7.49,15.07-19.53,27.41-32.39,38.26s-26.76,20.46-39.3,31.67c4.32,2,7.13,6.45,8.35,11.07s1.09,9.46.94,14.23l-.69,21.72c7.33-2.08,15.87,3.12,17.4,10.59.85,4.2-.29,8.61-2.32,12.39a55.94,55.94,0,0,1-7.74,10.23l-2.49,3.25a42,42,0,0,1,1.1,46.77,166.7,166.7,0,0,1,29.07-2.44c3.51,0,7.44.34,9.75,3,1.54,1.76,2,4.2,2.21,6.53a42.83,42.83,0,0,1-21,40.11l-3.14,5.61,1.18,17.29a11.1,11.1,0,0,1-.17,3.73,11.29,11.29,0,0,1-2,3.53l-4,5.37c-1.62,2.16-3.32,4.4-5.74,5.6-2.76,1.38-6,1.19-9.09,1l-4,1.48a47.75,47.75,0,0,1-3.61,9.52,15.87,15.87,0,0,1-7.16,7,16.23,16.23,0,0,1-6,1.2c-2.83.07-5.83-.41-8-2.22-3.8-3.14-3.77-8.87-3.42-13.79l.46-6.37c-7.58,4.79-15.48,9.7-24.38,10.86a61.18,61.18,0,0,1-9.67.25,11.49,11.49,0,0,1-4.33-.67c-2.37-1-3.78-3.5-4.63-6a25.15,25.15,0,0,1-.54-14.65c1.14-4.26,3.38-8.13,4.89-12.28a1.85,1.85,0,0,0,.14-1.22,1.94,1.94,0,0,0-.81-.87l-14.56-10.13a1.41,1.41,0,0,0-.78-.34,1.42,1.42,0,0,0-.85.39l-5.63,4.29a4.39,4.39,0,0,0-1.22,1.21,4.45,4.45,0,0,0-.41,2.26c-.12,14.39-1.9,29.24-9.09,41.71l-2.61,4.49a19.34,19.34,0,0,1-6.48,10.36,23.71,23.71,0,0,0-4.09,3.57,14.85,14.85,0,0,0-1.92,4q-5.21,14.34-10.82,28.53a51.72,51.72,0,0,1-2.08,4.77c-.79,1.52-1.73,3-2.49,4.51a78,78,0,0,0-3.18,8.92,97,97,0,0,1-4.53,10.29l-1.25,4.76-5,19.9a48.09,48.09,0,0,1-2.54,8.09c-1.25,2.77-3,5.26-4.51,7.9a46.77,46.77,0,0,0-4.28,10.16,60.36,60.36,0,0,1,14.18-3.08l4.57,1.62a36.43,36.43,0,0,1,18.22-1.72c4.72.77,9.32,2.47,14.11,2.55l3.88-.5c3.51-.78,7.17.26,10.45,1.72s6.37,3.37,9.78,4.49a45.48,45.48,0,0,0,6.44,1.46l16.18,2.84,5.27.53a368.89,368.89,0,0,1,41,5.42c4.83.93,9.88,2,13.61,5.26l2.58,2.2q-2.49,4.36-4.55,9l-4.79.82a11.48,11.48,0,0,0-7.66,9c-.3,2,0,4.12-.25,6.17-.57,5.44-4.32,10-8,14a364.62,364.62,0,0,1-26.19,26.12c-2.32,2.09-4.73,4.19-7.65,5.28s-6.5,1-8.84-1.09l-1.65.67c-.64,1-.57,2.4-1.25,3.41-1.18,1.79-3.81,1.57-5.93,1.3s-4.88,0-5.54,2a14.56,14.56,0,0,1-.48,2.31c-.78,1.52-3,1.23-4.67.87s-4.07,0-4.2,1.66l-8.45.2a2.08,2.08,0,0,0-1.55.48c-.42.5-.28,1.28-.61,1.84-.45.75-1.49.79-2.36.75l-7.17-.35c.39,1.08-1.18,1.76-2.33,1.85l-39.69,3.17a4.16,4.16,0,0,0-2,.48,5.73,5.73,0,0,0-1.28,1.36,8.43,8.43,0,0,1-5.47,3l-6.43,5.39c-8.77,3.54-17.66,7.1-27,8.39a8.66,8.66,0,0,0-2.76.67,14.41,14.41,0,0,0-2.75,2.32,9.59,9.59,0,0,1-4.84,2.26,2.14,2.14,0,0,0-1,.28,1.9,1.9,0,0,0-.57,1,33.86,33.86,0,0,1-13.38,17l-2.2,2.82a18.08,18.08,0,0,1-6.5,6.12c7.55,6,12.8,14.61,15.67,23.82s3.48,19,2.81,28.64a54.51,54.51,0,0,1-2.07,12.38c-2.52,8.07-7.8,15-13.57,21.16a132.71,132.71,0,0,1-46.43,32.06l-6,2.42c-1.65,23.75-5.8,47.54-15,69.49s-23.73,42.06-43.38,55.5c-4.89,3.34-10.36,6.57-12.83,12-1.67,3.63-1.73,7.75-1.77,11.74l-.31,36-1.81,4.89-.37,6.43a4.89,4.89,0,0,0,.15,2c.55,1.55,2.38,2.13,3.86,2.82,3.65,1.71,6.17,5.06,8.9,8a54.5,54.5,0,0,0,19,13.29l14.36,1.34a139.4,139.4,0,0,1,27.55,48.2,187.92,187.92,0,0,1,37.6-28.34l5.14-.67c19.22-12.91,34.34-31,48.78-49l1.68-6.27,11.6-10.56c2.36-2.15,4.73-4.31,6.9-6.65a114,114,0,0,0,8.55-10.91l16.52-23c6.76-9.4,13.51-18.8,20-28.36,2.18-3.19,4.4-6.48,7.55-8.7,3.69-2.61,8.29-3.51,12.73-4.35l23.42-4.42,4.88-1.56a6.19,6.19,0,0,0,2.9,3.07,5.89,5.89,0,0,1,1.8,1c1,1,.67,2.73.23,4.11a141.1,141.1,0,0,1-6.52,16.74l-2.54,4.1-9.42,8.34c-24.72,24.19-40.46,56.26-64.54,81.1-6.57,6.77-13.7,13-20.82,19.12,10.44,1.13,20.75-2.79,30.23-7.32s18.82-9.8,29.16-11.67l8.2-2.31,1.52,5a251.56,251.56,0,0,1,55.26-17.27l13.39-6.73a32.61,32.61,0,0,1,17.33-2.85l5.31,1.08c23.23-7.2,45.79,12.08,69.68,16.64,15.28,2.91,31-.33,46.5-1.1,46.14-2.31,94.18,20,117.23,60.09,12.07,21,17,45.24,26.93,67.28,14.8,32.77,41,61.21,46.22,96.78,3,20.69-1.38,41.63-3.37,62.45s-1.08,43.32,11,60.38c3.8,5.36,8.76,10.38,9.72,16.88,1.56,10.64-8.46,19.61-18.59,23.24-15.81,5.67-33.23,3.78-49.85,1.35q-28.43-4.16-56.56-10.09l-7.58-7.36c-22-17.71-44.42-35.7-70.73-45.95-10.83-4.22-22.23-7.08-32.57-12.38-21.9-11.2-37.2-32.34-47.41-54.71-10.74-23.51-17.45-50.1-36.24-67.84-21.51-20.31-54.25-24.45-76.92-43.45l-7.56-1-1.47-5.79a93.66,93.66,0,0,0-1.4-16.63l.53-8a22.48,22.48,0,0,0-2.89-15.1c-1.31-2.17-3-4.22-3.45-6.72-.22-1.31-.05-2.67-.34-4a11.79,11.79,0,0,0-2.51-4.46l-10-12.89c-1.29,1.62-3.93.5-5.38-1s-3.13-3.36-5.15-2.93l-6.66-2.87c-3.58-2.82-8.46-3.16-13-3.28a319.64,319.64,0,0,0-53.19,3l-6.45-3.14a10,10,0,0,1-10.53-4.7,301.19,301.19,0,0,1-25.23,21.86c-2.62,2-5.4,4.18-6.5,7.3-.42,1.17-.57,2.42-1,3.6a18.73,18.73,0,0,1-2.88,4.94l-13.11,17.94-6.25,7a222.2,222.2,0,0,1-45.81,62.06c-4.19,4-8.63,7.92-11.29,13.05-4.09,7.92-3.31,17.4-1.92,26.21,6.55,41.46,24.38,80.3,44.89,116.92,5.85,10.43,12.14,21.76,10.49,33.6-2.76,19.73-25.88,31-30.78,50.33-2,8-.65,16.39-.67,24.64s-1.94,17.33-8.57,22.23c-7.32,5.43-17.55,3.83-26.34,1.42s-18.28-5.39-26.75-2c-5.39,2.14-9.5,6.54-14.24,9.89s-11.1,5.65-16.24,3c-3.21-1.67-5.24-4.92-6.93-8.11a93.12,93.12,0,0,1-10.52-36.7l-2.34-12.85-7.93-30.76c-1.91-7.37-3.88-14.91-8.14-21.22-8.85,17.05-8.54,38.25-19.77,53.83a12.73,12.73,0,0,1-5.11,4.64c-2.55,1.07-5.46.65-8.11-.09a74.45,74.45,0,0,1-12.9-5.37l-16.11-7.93c-4.27-2.1-8.85-4.52-10.8-8.87-1.54-3.44-1.09-7.41-.5-11.13,3.53-22.45,10.76-44.19,19.59-65.13S847,2292.91,857,2272.44c1.18-2.41,2.38-5,2.3-7.63a16.58,16.58,0,0,0-1.44-5.5l-10.06-25.95.24-9.19c0-11.05-.1-22.15-2-33-1.16-6.54-3-13-3.57-19.59a51.41,51.41,0,0,1,2.3-20.2l2.62-5.47-1.72-35a13.26,13.26,0,0,0-.73-4.44,4.54,4.54,0,0,0-3.21-2.89l-4.39-.14c-13.08,11.6-31.56,14.38-48.93,16.36q-22.76,2.58-45.57,4.43l-8.36-.63-8.27-6.85c-9.55.3-19.32,2.78-26.77,8.76-1.89,1.51-3.61,3.23-5.47,4.76a37.71,37.71,0,0,1-13.11,7c-2.24.68-4.56,1.15-6.73,2a32.27,32.27,0,0,0-6,3.48c-5.26,3.65-10.4,7.82-13.56,13.39l-3.69,4.88-9.27,3.7A62.6,62.6,0,0,0,625.44,2175l-5.41,1.45a313,313,0,0,1-13.39-38.61c-5.06-19.06-7.52-38.72-9.33-58.36l1.14-7.64,4.26-5.66a169.74,169.74,0,0,1,18.43-35.85c3.56-5.27,7.47-10.44,9.5-16.47l5.22-5,7.12,1.61c2.12-1.88,3.83-4.33,6.42-5.46a22.93,22.93,0,0,1,4.86-1.15c7.36-1.5,13.53-6.87,17.26-13.38a17.27,17.27,0,0,1,3.09-4.51,14.6,14.6,0,0,1,3.83-2.21,132,132,0,0,0,12.91-6.77c6.62-4,13.35-8.63,21-8.89l5.37-1.69a44.61,44.61,0,0,0,8-4.34l13.1-2.34a517.3,517.3,0,0,1,92.22-5.15c4-58.49,15.68-118,2-175a17.55,17.55,0,0,0-2.79-6.86c-4.23-5.34-12.37-4.28-19.17-4.12-19.9.46-38.62-11.62-50.12-27.87s-16.68-36.15-19.25-55.88l1.07-4.61a86.17,86.17,0,0,1,46.89,7.38,390.13,390.13,0,0,0-19.8-59.09c-3.32-7.76-7.3-15.89-14.6-20.12-8-4.67-18.08-3.46-27.19-5.33-10.26-2.11-19.25-8.13-27.52-14.57-18.42-14.33-34.86-31.52-46.64-51.68s-18.77-43.39-18.06-66.72c-7,2.79-12.13,8.89-17.86,13.86s-13.44,9.09-20.65,6.74c-6.15-2-9.92-8.07-13-13.79a274.5,274.5,0,0,1-11.75-25.2l-2.61-10.44a55.68,55.68,0,0,0,.19-21.14,22,22,0,0,0-2.37-7.13l.91-16.64A28.91,28.91,0,0,1,588,1376.33c13.3-4,28,2.06,41.43-1.39,9.28-2.38,17-9.06,26.37-11.22,4.64-1.06,9.45-1,14.21-.85l64,1.46c.13-3-2.33-5.42-4.59-7.4l-42.87-37.58c-4.31-3.77-8.65-7.58-13.61-10.45-11.25-6.5-24.66-7.69-37.29-10.73-39.4-9.47-71.54-37.06-102-63.75l-3.11-5.39,1.87-7.13c-3.46-2.42-6.2-5.71-9-8.89a236,236,0,0,0-26.33-25.72A30.4,30.4,0,0,0,491,1183c-3.94-1.93-9.07-2.66-11-6.58l-3.46-4.33a56.92,56.92,0,0,0-30.05-7.64A16.13,16.13,0,0,0,449,1157c.17-5.16-3.6-9.67-7.87-12.59-1.86-1.27-3.95-2.44-5-4.45s-.79-4.31-.78-6.53a31.79,31.79,0,0,0-3.27-14.27l-.44-2.89a46.57,46.57,0,0,1-5.73-11.62,52.47,52.47,0,0,1,18.31-1.12c2.05-9.3,2.52-19.42-1.66-28-2.19-4.48-5.54-8.29-8.85-12-2.16-2.44-5.1-5.13-8.22-4.18l-.39-1.22a17.52,17.52,0,0,0-.65-9.78c-1.33-3.61-3.92-7.14-3.16-10.91a35.82,35.82,0,0,0,29.49-15l.75-1.43a39.5,39.5,0,0,0-8.37-16.93,26.52,26.52,0,0,0-16.3-9.05c-6.31-.78-13.06,1.37-17.28,6.13,1.61-2.51,1.17-5.88-.2-8.53s-3.52-4.78-5.43-7.06a45.72,45.72,0,0,1-4.41-6.28l-.18-.73a41.3,41.3,0,0,1,15.78-6.15,37.08,37.08,0,0,0,7.44-1.53c2.36-.92,4.56-2.75,5.09-5.23l9.14-.54c19.37-.72,39-1.41,57.89,3,5.17,1.21,10.25,2.81,15.43,4,25.84,5.78,54,.82,78.18,11.68,21.58,9.72,36.29,30.57,57.17,41.71q-5.24-48-6.2-96.25a155.94,155.94,0,0,1-48.79-.21c1.08,5,2.17,10.27,1,15.29s-5.28,9.75-10.43,9.84c-2.93.06-5.67-1.34-8.18-2.85a74.29,74.29,0,0,1-15.83-12.81L554.54,935l-9.08,2.3c-4.69,1.19-9.48,2.4-14.32,2.09s-9.81-2.38-12.43-6.45c-3.23-5-2.16-11.66-.21-17.31s4.7-11.26,4.49-17.23c-6.61-1-13.53-2-18.87-6.06s-8.34-12-4.69-17.58c1-1.46,2.34-2.79,2.51-4.53s-.78-3.09-1.67-4.43l-8-12c-.78-1.16-1.7-2.42-3.08-2.67a5.36,5.36,0,0,0-3.45,1.06c-4.58,2.66-9.35,5.18-14.54,6.25s-10.92.55-15.26-2.5a15.2,15.2,0,0,1-6.18-9.88c-.83-5.19,1.1-10.38,2-15.56s.55-11.33-3.61-14.56c-1.7-1.32-3.84-2-5.54-3.29-3.89-3-4.59-8.54-4.53-13.45s.62-9.71,3.08-13.8,7.25-7.09,11.93-6.16l4.39-2.89a112.18,112.18,0,0,1,2.31-41.54,7.87,7.87,0,0,1,2-4.12,7.46,7.46,0,0,1,3.95-1.51,41.45,41.45,0,0,1,32.74,9.26l13.83-20.62c3-4.45,7-9.43,12.33-9.13,3.06.17,5.73,2.12,7.93,4.25a39.11,39.11,0,0,1,10.91,19.26,46,46,0,0,0,10.2-12.8,5.53,5.53,0,0,0,.89-3.1c-.14-1.37-1.2-2.43-2.18-3.39C538.64,699.65,526,684.07,522,665.44c-1.84-8.59-1.77-17.47-1.4-26.25q.38-9,1.16-18c.3-3.55.86-7.49,3.62-9.76,4.32-3.54,10.78-.71,15.37,2.49,15.21,10.59,29,24.93,47.2,28.38-6.39-20-13.08-40.68-26.65-56.77-4.63-5.5-10-10.36-14.53-16-10.56-13-16.14-29.23-21.53-45.1l-3.07-5.14C509,488,510.07,452.85,511.32,419l2.74-74.17c.18-5,.35-10.1-1-14.91-1.33-4.59-4-8.66-6.56-12.71-48.26-76.54-62.42-173.76-38-260.89.5-1.77,1.11-3.69,2.64-4.71,2.26-1.52,5.28-.39,7.71.83a156.84,156.84,0,0,1,53.1,43.48c3.8-18.62,4-37.79,3.22-56.77-.25-6.22-.49-12.88,2.78-18.18s11.59-7.86,15.79-3.26c14.29-6.71,32.08.5,42.06,12.73s13.81,28.25,16.57,43.79,4.86,31.57,12.21,45.54c22.5-15.61,21-51.41,41.5-69.56,5.31-4.7,13-8,19.46-5.17,5.58,2.42,8.54,8.46,10.62,14.18,7.88,21.7,9.53,45.11,10.39,68.18,1.07,28.45,1,57.14-4.31,85.1S686,267.8,667.3,289.3c-5.77,6.65-12.7,14-11.67,22.75.38,3.19,1.83,6.14,3.13,9.08,14.7,33.31,11.73,71.4,8.47,107.66l2.43,8.38c10.09,47.43.55,97.41-18.51,142A159.92,159.92,0,0,1,640.75,600c-5.52,9-12.54,17.38-15.29,27.57-.39,1.43-.59,3.19.51,4.18,1.32,1.19,3.38.36,5-.42,9.89-4.82,21.27-5.68,32.25-5S685,629.18,696,630.07a14.16,14.16,0,0,0,5.51-.31,10.66,10.66,0,0,0,5.38-4.46c7.67-11.54.92-29.51,10.66-39.37a7.69,7.69,0,0,1,10.71-.95c4.41,2.78,7.11,7.71,8.31,12.79s1.05,10.36.9,15.58L737,631l-.77,5.82,37.77,9.5c3.16.8,6.5,1.69,8.75,4,2.08,2.16,2.9,5.2,3.64,8.1,1.17,4.58,2.36,9.36,1.39,14s-4.77,9-9.5,9l6.19,24a18.92,18.92,0,0,1,19.44,30.58c6.65,3.21,12.5,8.44,15.42,15.22s2.56,15.12-1.82,21.05c-3.67,5-9.51,7.71-14.69,11-1.27.82-2.67,2.06-2.33,3.53a3.86,3.86,0,0,0,1.08,1.67c3.88,4.25,7.42,9.15,8.32,14.83,1,6.37-1.46,12.81-4.83,18.3a56.74,56.74,0,0,1-14.47,15.82L788,842.88a68.39,68.39,0,0,1,11.68,44.7c-.18,1.94-.53,4-2,5.36a8.07,8.07,0,0,1-4.77,1.57,89.09,89.09,0,0,1-33.55-3.2,5.67,5.67,0,0,0-3.71-.26c-2.21.9-2.27,4-2.19,6.34.26,7.08-2.59,15.37-9.41,17.29-6.28,1.76-12.88-3.1-15.38-9.11s-2-12.81-1.41-19.3c-6.34-1.43-12.47,4.35-13.91,10.69s.46,12.89,2.3,19.13c34.38,116.92,47.27,239,54.93,360.67,5.53-7.27,6.84-16.8,8-25.87l14.58-117.24c1.82-14.68,3.66-29.41,7.38-43.73,5.81-22.38,16.11-43.31,26.73-63.85l3.42-7.54A137.56,137.56,0,0,0,845,1000.42c2.2-3.33,4.32-6.84,7.49-9.28l3.67-1.47c3.06-2.76,5.29-6.29,7.48-9.76L877,958.66l3.13-4.74c6.94-12.07,19.9-19.52,33.12-23.86a6.17,6.17,0,0,0,3-1.69,20,20,0,0,0,1.19-2.24,8.11,8.11,0,0,1,2.47-2.26Q938.75,911,958.74,900l4-3a37.52,37.52,0,0,1,21.06-6.21l5.45,2a199.13,199.13,0,0,1,29.66-8.07l2.94-4.42c7-3.28,15-3.89,22.79-4a196.46,196.46,0,0,1,41.75,4l5.34,3q13.34,3.45,26.34,8a12.61,12.61,0,0,0,3,.79,13.28,13.28,0,0,0,2.67-.13l5-.62,4.74.61c10.49-1.9,20.89,3.58,29.45,10s16.56,14,26.65,17.43c3.89,1.32,8.43,2.31,10.51,5.85a11,11,0,0,1,1.26,4.51,14.6,14.6,0,0,1-1.18,8c-1.32,2.64-3.68,4.57-5.73,6.68-6.45,6.67-10.09,15.51-13,24.3s-5.39,17.86-10,25.9l-2.09,3.95c-13,25.06-28.7,49.55-51.16,66.7-8.48,6.48-17.81,11.8-26.17,18.45-19.47,15.49-32.91,37.57-52.55,52.85l-5.14,2.47c-1.16.14-2.07-1.16-3.23-1.15a3.14,3.14,0,0,0-1.59.66,146.13,146.13,0,0,1-23.55,12.64l-6.5,6.18a63.46,63.46,0,0,1-20,8.67c-5.73,1.38-12,2.1-16.45,6l-6.28.38a17.32,17.32,0,0,0-9.77,3.73,52.19,52.19,0,0,0-7.56,7.45c-2.69,3-5.52,6.43-5.75,10.49l-.54,8.26c-3.76,5.72-9.43,10.43-11.18,17l-1,4.67,7,29.68a6.46,6.46,0,0,0,1.67,3.57,7.9,7.9,0,0,0,3.07,1.28c4,1.16,7.42,3.66,10.69,6.21,2.26,1.75,4.48,3.55,6.63,5.45,12.78,11.3,22.47,25.87,29.12,41.58l2.66,5.51,7.53,25.67c1.51,5.17,3,10.34,4.1,15.62,3.38,16.62,2.25,33.78,1.11,50.71q12.12-15.33,22.69-31.79l5.55-2.44a16.19,16.19,0,0,1,7.23,7.44,45.79,45.79,0,0,1,3.36,10c6,24,10.55,48.44,11.83,73.14Z"></path>
    <path data-name="3a" data-official="" data-plain="Pistil" data-loc="" d="M551.92,2564.19c3.38-8.38,6.82-17,6.7-26.07-.28-20.54-18.76-38.41-16-58.77,2-15.27,15.27-26.19,23.17-39.41,8.61-14.39,10.87-31.7,10.88-48.46,0-9.15-.7-18.62-5-26.71-3.56-6.76-9.34-12.05-13.85-18.22s-7.82-14.15-5.36-21.38a21.72,21.72,0,0,1,7.22-9.56c4.65-3.78,10.43-6.48,16.42-6.31s12.06,3.65,14.2,9.24c1,2.52,1.11,5.27,1.53,7.93,1,6.29,3.52,12.2,5.66,18.19a151.76,151.76,0,0,1,2.69,93.27c-.61,2.09-1.28,4.26-.95,6.41a11.85,11.85,0,0,0,2.36,5c5.82,8.05,15.55,14.79,15.34,24.72-.07,3.58-1.52,7-2.85,10.29-4.17,10.38-7.47,21.36-7.2,32.55.36,15.38,7.42,30.15,6.82,45.52-.22,5.74-1.65,11.69-5.5,16-6.5,7.22-17.52,7.55-27.23,7.35-5.71-.12-11.53-.26-16.91-2.15s-10.36-5.86-12-11.34Z"></path>
    <path data-name="4" data-official="Dirca palustris" data-plain="Leather-wood" data-loc="N. America" d="M1109.89,2064.58l-.3,8.53c-2.89,13.58-5.79,27.2-7.24,41-.88,8.35-1.23,16.78-2.92,25-1.37,6.63-3.61,13.06-5.18,19.66-2.52,10.58-3.32,21.49-3.87,32.35q-1.8,36.09,0,72.24c.26,5.15.56,10.38-.55,15.42s-3.87,10-8.38,12.47c-1.67.94-3.63,1.59-4.76,3.14-1.86,2.55-.62,6.08-.73,9.23-.18,5.14-4.16,9.4-8.52,12.11-7.41,4.61-17.17,6.09-24.92,2.08s-12.22-14.26-8.35-22.07c2.31-4.67,7.28-8.91,5.94-13.94-.81-3.06-3.72-5-5.85-7.3-5.87-6.42-5.86-16.13-5.11-24.78,3.57-41.29,16.13-81.47,18.7-122.83l2.85-11.39,13.11-17.94a18.73,18.73,0,0,0,2.88-4.94c.39-1.18.54-2.43,1-3.6,1.1-3.12,3.88-5.28,6.5-7.3a301.19,301.19,0,0,0,25.23-21.86A10,10,0,0,0,1109.89,2064.58Zm-76.58-672.11c6,24,10.55,48.44,11.83,73.14l-.79,18.46-.61,18.44c6.76,14.48,5.81,31.49,11.63,46.38l1.62,5.16,3.2-3.33c2.32,2.76,3.47,6.29,4.56,9.72,3.11,9.72,6.23,19.55,7,29.73l1.12-.31,9.4-12.21c4.31-5.61,8.66-11.25,13.83-16.09a2.8,2.8,0,0,0,1.12-1.78,2.62,2.62,0,0,0-.41-1.31l-2.48-4.85-3.26-1.61c-2.85-1.1-4.75-3.87-5.73-6.77s-1.21-6-1.8-9c-.74-3.82-2.07-7.63-1.63-11.5a25.48,25.48,0,0,1,1.63-5.9q1.92-5.23,3.83-10.48l-1.79-8.64q-5.68-39.72-11.36-79.45c-2.89-20.18-5.78-40.39-10.17-60.31-1.47-6.66-3.12-13.41-2.69-20.22l.46-6.33-3.28-.86c-.44-1.54-2.21-2.2-3.65-2.91a13.36,13.36,0,0,1-7.31-11.76c0-1.83.39-3.64.52-5.46a8.79,8.79,0,0,0-1-5.3c-.38-.62-.88-1.15-1.3-1.75a17,17,0,0,1-2.09-5.46c-1.09-4.08-2.56-8.19-5.31-11.4l-.9-3a14.22,14.22,0,0,1-5.52-6,1.64,1.64,0,0,0-.41-.61,1.91,1.91,0,0,0-1-.25,4.61,4.61,0,0,1-3.31-2.58,10.92,10.92,0,0,1-1-4.23c-.25-3.93.24-8.07,2.38-11.37.76-1.17,1.7-2.2,2.54-3.3l.07-8.14c-4.4-15.69-.34-32.31,2.14-48.42a248.54,248.54,0,0,0,2.34-54.71l-1.54-7c-1.16.14-2.07-1.16-3.23-1.15a3.14,3.14,0,0,0-1.59.66,146.13,146.13,0,0,1-23.55,12.64l-6.5,6.18.22,6.24a64.78,64.78,0,0,1-9.39,31.9,2.71,2.71,0,0,1-1.3,1.29c-1,.33-2-.61-2.68-1.43a73.68,73.68,0,0,0-21.83-17.69L963,1172l-6.28.38a17.32,17.32,0,0,0-9.77,3.73,52.19,52.19,0,0,0-7.56,7.45c-2.69,3-5.52,6.43-5.75,10.49l-.54,8.26,5,4.89L966.8,1230a8.91,8.91,0,0,1,2.6,2.77,10.26,10.26,0,0,1,.74,3.35c1.3,10.48,7.31,19.67,12.15,29.06,3.07,6,5.72,12.11,8.36,18.27l21.05,49a72.36,72.36,0,0,1,4.41,12.29c2,8.84.65,18.25,3.17,27l3.44,3.31a16.14,16.14,0,0,1,7.23,7.44A45.79,45.79,0,0,1,1033.31,1392.47ZM939.52,905.8c-.13-3.71,1.19-7.31,1.63-11s-.31-8-3.42-10a10.84,10.84,0,0,0-5.61-1.41,33.78,33.78,0,0,0-17.16,4c-1.85-8.62,4.41-16.57,8.49-24.39,9.28-17.81,7.71-39.63.95-58.54-1.24-3.47-2.78-7.06-5.76-9.23-5.85-4.26-14.31-1.05-19.64,3.84s-9.33,11.37-15.59,15a6.55,6.55,0,0,1-3.6,1.11c-3.89-.24-4.89-5.35-6.5-8.9-3.21-7.1-12.59-9.94-20-7.45s-12.74,9.12-15.69,16.33-3.86,15.06-5,22.76c-3.12,21.43-9.14,44.27-26.07,57.76-8.64,6.89-19.47,10.74-27.61,18.2a40.93,40.93,0,0,0-12.7,23.8c-.77,5.06-.54,10.4,1.59,15.06s6.35,8.53,11.4,9.36c4.45.74,9.46-.77,13.28,1.64,4.2,2.64,4.64,8.44,5.39,13.36a50,50,0,0,0,27.66,37l5,4.4A137.56,137.56,0,0,0,845,1000.42c2.2-3.33,4.32-6.84,7.49-9.28l3.67-1.47c3.06-2.76,5.29-6.29,7.48-9.76L877,958.66l3.13-4.74c6.94-12.07,19.9-19.52,33.12-23.86a6.17,6.17,0,0,0,3-1.69,20,20,0,0,0,1.19-2.24,8.11,8.11,0,0,1,2.47-2.26q8.89-6.11,18.08-11.79ZM778,555.6c1.51,1.86,1.5,4.46,1.9,6.82,1.69,9.93,11.63,16.77,21.6,18.18s20-1.38,29.67-4.15c4.59,10.68,2,22.9,2.59,34.51a63.63,63.63,0,0,0,12.77,35.17c2,2.61,4.29,5.38,4.21,8.66-.13,5-5.44,7.94-9.85,10.29a83.56,83.56,0,0,0-31.34,29.14l-4.08,19.36a19.48,19.48,0,0,1-1.64,22.51c6.65,3.21,12.5,8.44,15.42,15.22L827.5,749a49.11,49.11,0,0,0,29.33,13c5.21.42,10.49,0,15.63.92,11.52,2,21.48,10.52,33.17,10.84,5.41.15,10.76-1.5,16.16-1.22,7.88.41,15.12,4.94,20.32,10.88s8.63,13.21,11.67,20.5c10.15,24.29,16.83,49.94,21.09,75.92l8.94,10.84,5.45,2a199.13,199.13,0,0,1,29.66-8.07l2.94-4.42-.53-7.25c-1.82-27.73-10.43-54.5-15.82-81.76-1.39-7.09-1.88-15.95,4.14-19.93a3.39,3.39,0,0,1,2-.69,3.92,3.92,0,0,1,1.73.69c6.42,3.95,11.6,10.1,18.77,12.41,4,1.29,8.29,1.26,12.49,1,14.9-.91,29.89-4.71,42.32-13a130.82,130.82,0,0,0,14-11.32l21.3-18.91a68.3,68.3,0,0,1-2.69,52.25c-2.93,6.08-6.77,11.7-9.91,17.68-2.45,4.66-4.47,9.54-6.49,14.4-6.55,15.81-13.16,31.85-15.37,48.82l-1.42,5.62,5.34,3q13.34,3.45,26.34,8a12.61,12.61,0,0,0,3,.79,13.28,13.28,0,0,0,2.67-.13l5-.62,4.74.61,0-6.46a154.36,154.36,0,0,1,25.53-48c4.46-5.67,9.43-11.22,11.76-18,1.46-4.27,1.81-8.87,3.4-13.09,1.77-4.71,5-8.71,8.16-12.62,29.78-36.81,62-75.35,106.81-90.56,16.38-5.56,33.76-7.7,50.12-13.32a124.69,124.69,0,0,0,59.69-44c5.25-7.16,9.85-15.35,10-24.22s-5.57-18.34-14.32-19.79c-5.92-1-11.88,1.72-17.88,1.43-4.08-.19-8-1.76-12-2.57-14-2.84-28,3.55-40.79,9.78a355.49,355.49,0,0,1,12.63-71l4.55-3c18.21-7.94,30.91-24.67,41.68-41.37,7.48-11.61,14.69-24.46,14-38.26-.59-11.83-7-22.75-7.87-34.56-1.06-13.54,4.55-29.23-4.32-39.51-6-6.9-17-8-25.06-3.81-2.34,1.21-4.92,2.85-7.4,2a7.08,7.08,0,0,1-3.47-3.48c-10.21-18,2.16-42.83-8.65-60.46-8-13-27.3-16.3-40.42-8.48-4.46,2.66-9.57,6.51-14.26,4.28s-4.91-8.76-5.44-14c-.94-9.36-6-18.91-14.7-22.49-11.2-4.6-23.91,1.93-32.83,10.12-3.39,3.11-6.66,6.58-10.93,8.32-9.74,4-21.06-2.21-31.26.39-10.93,2.78-16.93,14.57-19.42,25.57a89.9,89.9,0,0,0,8.15,61.22c7.55,14.27,19.09,26.75,23,42.43,3.56,14.46,0,29.83-5.94,43.48a37.3,37.3,0,0,0-25.34,3.7l-5.79-38.55c-1-6.85-2.12-13.88-5.63-19.85s-10.06-10.69-16.94-9.94c-8,.87-13.47,8.39-16.47,15.8-2.21,5.43-4.88,12.2-10.71,12.7-2.8.23-5.43-1.18-8-2.25A35.37,35.37,0,0,0,1073,434a237.86,237.86,0,0,0-6.74-61.93c-.71-2.91-1.86-6.25-4.71-7.2-2.57-.86-5.28.68-7.52,2.23a130.84,130.84,0,0,0-26.1,23.85l.9-7.84q2.4-27.78,2.46-55.7c0-5.8-1.1-13.09-6.67-14.72-2.3-.67-4.77-.09-7,.72-13.57,4.86-22.78,17.37-30.07,29.79s-13.85,25.85-25,34.91c-2.19,1.77-5.81,3.18-7.45.89a5.47,5.47,0,0,1-.51-3.82,124.53,124.53,0,0,1,4.84-22.59c1.4-4.48,2.61-10.41-1.3-13-2.77-1.84-6.47-.72-9.56.51a329,329,0,0,0-77.67,43.73l-4.74-31.15c-.81-5.35-2.88-12-8.27-12.55-2.2-.23-4.35.73-6.28,1.83-10.6,6.07-17.76,17-21.76,28.5s-5.2,23.84-6.37,36c-5.62-1.77-11.46-3.56-17.3-2.81s-11.71,4.8-12.55,10.63,3.39,12.21.73,17.52c-1.64,3.26-5.31,4.84-8.52,6.57C772,445.8,763,460.13,758.66,475.14S754,506,753.71,521.63c-.1,6.15-.19,12.44,1.78,18.27s6.42,11.2,12.43,12.52C771.46,553.2,775.76,552.78,778,555.6Zm359.89,1341.68c-6.4-.65-12.53,2.52-17.92,6a119.6,119.6,0,0,0-18,14.38l-1.43,8c-7.93,38.33-22.61,75.24-27.32,114.1l-1.08,6.25,5.14-.67c19.22-12.91,34.34-31,48.78-49l1.68-6.27-.23-6.62a570.8,570.8,0,0,0,11.18-78.71Zm358-782.22c-3.17,9.58-10.14,17.36-16.93,24.83,14.33,19.26,18.34,44.21,29.52,65.46l-.47,13.82c-2.75,4.66-6.79,8.76-9.12,13.53l-10.16-1.89-25.52-5.75a76,76,0,0,1-10.63-2.94c-11.66-4.47-20.32-14.27-28.49-23.71,1.56,14.64-3.24,29.14-8,43.08l-16.33,48.18-1.3,5.43a54.66,54.66,0,0,0-8.16,14.1c-.25.63-.43,1.47.11,1.88a1.64,1.64,0,0,0,1,.2q7-.26,13.9-1c3.4-.38,6.86-.86,10.22-.23a4.93,4.93,0,0,1,3.35,1.83,5.54,5.54,0,0,1,.52,3.4,33.35,33.35,0,0,1-2.65,11.42c-.81,1.77-1.84,3.43-2.77,5.14s-1.64,3.22-2.42,4.85l-5.1,10.64a14.49,14.49,0,0,1,9.83,11.79l.31,5.26-8.66,14-.89,2.85c6.89.49,13.34,3.73,18.82,7.93,2.84,2.18,6.14,4.78,9.57,3.79l-.52,3.11a3.32,3.32,0,0,0,.25,3.46c.63,1,1.56,1.88,2.25,2.88a7.69,7.69,0,0,1,1.31,4.46,5,5,0,0,1-.63,2.43,6.6,6.6,0,0,1-1.93,1.9,30.71,30.71,0,0,1-5.51,3.16l-2.39.71a1,1,0,0,0-.58-.57,15,15,0,0,0-8.13-1.52,44.3,44.3,0,0,0-8.22,1.55l-6.43,1.63,3.75,3.09a1.11,1.11,0,0,0,.45.27,1.4,1.4,0,0,0,.86-.18,3.54,3.54,0,0,1,3.63.77c1.1,1,1.4,2.66,1.87,4.11s1.39,3,2.89,3.24l2.46-1.18,2.56,2.26,5.85,2.37a13.5,13.5,0,0,1,1.81.84A18.6,18.6,0,0,1,1433,1433c1.78,1.37,3.74,2.5,5.56,3.82,4,2.89,7.31,6.66,10.57,10.38l1.2,1.59a25.2,25.2,0,0,1,4.82,6.28,5.62,5.62,0,0,1,.8,2.28,2.23,2.23,0,0,1-1,2.09,4.09,4.09,0,0,0-.68.38,1.28,1.28,0,0,0,.12,1.75,5.51,5.51,0,0,0,1.67,1,5.63,5.63,0,0,1,3.27,4.94c-.06,2.09-2,4.07-4.06,3.79a7.15,7.15,0,0,0-1.44-.21c-.49,0-1,.38-1,.87a1.19,1.19,0,0,0,.32.7,17.79,17.79,0,0,0,3.21,2.71,7.48,7.48,0,0,1,2.72,3.41,3.52,3.52,0,0,1-1.12,4,3.85,3.85,0,0,1-2.56.49,6.33,6.33,0,0,1-2.89-1.11,4.69,4.69,0,0,0-1.17-.71,1.05,1.05,0,0,0-1.23.35,1.59,1.59,0,0,0-.12.84,16.82,16.82,0,0,1-1,6.17l-2.88,1.58a24.68,24.68,0,0,1-5.54,3.78,4.25,4.25,0,0,1-3.49.52,4.63,4.63,0,0,1-1.58-1.35c-1.19-1.4-2.47-3-2.19-4.87.16-1,.78-2,.54-2.92a3.45,3.45,0,0,0-.73-1.27l-2.44-3.14a3.43,3.43,0,0,0-1.27-1.16,1.16,1.16,0,0,0-1.5.45,2.26,2.26,0,0,0,.06,1.31,3.38,3.38,0,1,1-6.68,1c-.24-2.1,1.42-4.49.13-6.17-1-.24-1.12,1.5-2,1.92-.73.35-1.51-.35-2-1a47.65,47.65,0,0,1-5.32-8.75,5.59,5.59,0,0,0-.82-1.4,7.5,7.5,0,0,0-1.81-1.2,38.73,38.73,0,0,1-3.89-3,7.11,7.11,0,0,0-4.5-1.75c-1.64.08-3.3,1.37-3.28,3a4.19,4.19,0,0,0,.84,2.22c1.13,1.71,2.67,3.1,3.91,4.74,3.17,4.21,4.06,9.65,4.86,14.85l-2,.07c.35,2,.71,3.91,1.06,5.87l3.49,7.63c-.32,2.89-2.74,5.07-5.19,6.63s-5.19,2.87-6.92,5.21-2.27,5.66-4.45,7.68a6.54,6.54,0,0,1-7.47.85c-2.38-1.37-3.63-4.09-5.75-5.83-2.42-2-5.87-2.58-7.85-5l-3.28.12a31.34,31.34,0,0,0,.47-5.21l.22-6.09c.27-7.84.53-15.79-1.13-23.45l-.7-1.33a2.91,2.91,0,0,1-.28-1.87c.32-3.59,1.64-7.15,1-10.69a16.39,16.39,0,0,0-13.42,9.52l-.81,2.51a46.33,46.33,0,0,1-13,11.67l-8.29,10-5.2-4.72c-8.13-12.12-12.14-27.44-8.74-41.63,1.88-7.82,5.92-15.24,6-23.29a8.25,8.25,0,0,0-1.15-4.93,6.63,6.63,0,0,0-6.14-2.39,17.13,17.13,0,0,0-6.43,2.42,96.84,96.84,0,0,0-10.1,6.43c-5.37,3.89-10.32,8.31-15.59,12.34-3.55,2.72-7.24,5.25-10.94,7.76q-18.22,12.4-36.77,24.35a46.3,46.3,0,0,1-8.5,4.67c-2.49,1-5.18,1.5-7.36,3-3.7,2.56-5.16,7.25-6.17,11.63a148.82,148.82,0,0,0-3.45,22.89l-2.07,4.74-3.88.5c-4.79-.08-9.39-1.78-14.11-2.55a36.43,36.43,0,0,0-18.22,1.72l-4.57-1.62a60.36,60.36,0,0,0-14.18,3.08,46.77,46.77,0,0,1,4.28-10.16c1.5-2.64,3.26-5.13,4.51-7.9a48.09,48.09,0,0,0,2.54-8.09q2.48-9.95,5-19.9l1.25-4.76a97,97,0,0,0,4.53-10.29,78,78,0,0,1,3.18-8.92c.76-1.54,1.7-3,2.49-4.51a51.72,51.72,0,0,0,2.08-4.77q5.61-14.19,10.82-28.53a14.85,14.85,0,0,1,1.92-4,23.71,23.71,0,0,1,4.09-3.57,19.34,19.34,0,0,0,6.48-10.36l4.5,6.27a15.24,15.24,0,0,1,7.77,8.65,34.22,34.22,0,0,1,1.89,11.73,95.08,95.08,0,0,1-3.36,27.32c8.94-6.53,18.7-11.82,28.2-17.5a392.43,392.43,0,0,0,42.14-29.1l4.3-4.34a16.23,16.23,0,0,0,6-1.2,15.87,15.87,0,0,0,7.16-7,47.75,47.75,0,0,0,3.61-9.52l4-1.48c3.08.22,6.33.41,9.09-1,2.42-1.2,4.12-3.44,5.74-5.6l4-5.37a11.29,11.29,0,0,0,2-3.53,11.1,11.1,0,0,0,.17-3.73l2.82-9.69c7.29-6,12.12-14.49,16.57-22.85,7-13.25,13.56-26.78,20.06-40.31,6.25-13,12.64-26.59,12.54-41l-.47-4.33c-8-.29-14.15,8.52-22.19,8.47-4.69,0-8.9-3.23-11.39-7.21s-3.55-8.66-4.52-13.25c-1.48-7-2.83-14.2-2.65-21.4s2-14.55,6.34-20.31c2.26-3,5.15-5.53,7.09-8.74a4.15,4.15,0,0,0,.79-2.67c-.25-1.62-2.1-2.5-3.74-2.62-6-.42-11,5.1-17,5-4.66-.1-8.46-3.58-11.78-6.84s-6.65-6.79-6.8-11.3c-.18-5.18,4.08-9.6,4.42-14.77l1.06-5.76c5.23-4.05,10.44-8.12,15.5-12.38,12.86-10.85,24.9-23.19,32.39-38.26l1-6.65c.35-3.41.71-6.81,1.06-10.22a17.08,17.08,0,0,1,1.39-6c1.07-2.11,3.07-3.93,3.08-6.3,0-.88-.19-2,.53-2.46a3.16,3.16,0,0,1,.9-.34c1.29-.47,1.88-1.91,2.5-3.12a29.62,29.62,0,0,1,4.42-5.93l6.9,1.83a9.65,9.65,0,0,1,8-.58,29.83,29.83,0,0,1,7.21,4,4.89,4.89,0,0,0,3.11,1.17c1.54-.17,2.52-1.67,3.28-3,5.35-9.46,10.87-19.14,19.18-26.16a9.13,9.13,0,0,1,4-2.23c3-.59,5.81,1.63,7.91,3.88a53.21,53.21,0,0,1,14.09,38.43,3.81,3.81,0,0,0,2.69-.33l6.41-.78c5.75-1.6,11.69-2.89,17.65-2.58s12,2.35,16.21,6.61a11.37,11.37,0,0,1,3.53,6.93,14.2,14.2,0,0,1-1.29,6.11c-2.85,7.33-7.06,14.11-9.28,21.65C1498,1105.88,1497.45,1110.59,1496,1115.06Zm-111,325.67a15.14,15.14,0,0,1,7.64,6.57,27.31,27.31,0,0,1,3.29,9.68l2.44.7a11,11,0,0,0,4.25-7.06,2.08,2.08,0,0,0,0-.93c-.18-.62-.83-1-1.41-1.28a19.42,19.42,0,0,1-9.94-16.57Zm-223,190.43a4.16,4.16,0,0,0-2,.48,5.73,5.73,0,0,0-1.28,1.36,8.43,8.43,0,0,1-5.47,3l-6.43,5.39c-8.77,3.54-17.66,7.1-27,8.39a8.66,8.66,0,0,0-2.76.67,14.41,14.41,0,0,0-2.75,2.32,9.59,9.59,0,0,1-4.84,2.26,2.14,2.14,0,0,0-1,.28,1.9,1.9,0,0,0-.57,1,33.86,33.86,0,0,1-13.38,17l-2.2,2.82a18.08,18.08,0,0,1-6.5,6.12c7.55,6,12.8,14.61,15.67,23.82s3.48,19,2.81,28.64a54.51,54.51,0,0,1-2.07,12.38l5.75,7.71c3.31,5.85,3.6,12.88,3.81,19.6.94,30.61,1.82,61.83-6.7,91.25l1.25,5.06c1.94.61,3.59,2.31,5.61,2.17a6.47,6.47,0,0,0,2.32-.76l11.6-5.53c3.48-1.66,7.08-3.41,9.55-6.38,1.76-2.12,2.86-4.75,4.78-6.73,1.25-1.29,2.8-2.25,4.14-3.44,3.39-3,5.23-7.37,7-11.56l2.71-8c8.32-15.53,7.07-34.15,8.82-51.68a145,145,0,0,1,10.57-41.7c2.4-5.73,5.2-11.38,6.29-17.5,1.24-7,.19-14.15,1-21.18s3.27-13.63,4.88-20.47c2.91-12.33,2.87-25.14,2.81-37.81l0-11.09Z"></path>
    <path data-name="5" data-official="Pimelia spectabilis" data-plain="Showy Pimelea" data-loc="Swan River" d="M845.59,2110.88q.85,17.51,1.72,35l-2.62,5.47-7.75,5.42c-12.59,6.64-25.19,13.28-38.24,19-9.31,4.05-19,7.7-26.82,14.16-2.3,1.9-4.59,4.91-3.28,7.59,1,2,3.52,2.66,5.34,4a10.14,10.14,0,0,1,3.72,7.52,29,29,0,0,1-1.09,8.56c-2,8.56-4.49,17.5-10.77,23.63a24.56,24.56,0,0,1-13,6.6,12.26,12.26,0,0,1-7.39-.68c-3.21-1.56-5-5.05-6-8.5-1.94-7.16-1-14.74-.21-22.13a344.81,344.81,0,0,0,1.51-47.88c-.18-4.85-.46-9.79.8-14.48A22.9,22.9,0,0,1,754,2139.47a58,58,0,0,1,9.09-2.82c11.84-3.17,23-8.42,34.07-13.64l11.09-6.28c10.71-2.33,20.9-6.13,29-13.32l4.39.14a4.54,4.54,0,0,1,3.21,2.89A13.26,13.26,0,0,1,845.59,2110.88Zm961.48-651.67c-.18,2.4.62,4.74,1.22,7.07a45.69,45.69,0,0,1-8.35,39.4c-3.49,4.39-7.92,8.32-9.6,13.67-.92,2.91-.93,6-1.37,9-1.13,7.76-5,14.79-8.9,21.63-4,7.08-8.07,14.28-14,19.8s-14.21,9.18-22.2,7.68c-5.58-1-11.54-4.45-16.5-1.69-3.55,2-4.91,6.36-5.4,10.39s-.46,8.28-2.44,11.82c-3.3,5.89-10.78,7.67-17.42,8.88l-18.14,3.31c-4.8.87-9.9,1.72-14.43-.09l-4.57-.28c2,5.56,4.45,11.56,9.59,14.5,6.53,3.73,16,1.57,21,7.14,6.11,6.73.19,18.24,4.36,26.32,2.19,4.23,6.81,6.75,9.22,10.87,4.3,7.34.38,17.35,4.38,24.87,1.28,2.4,3.27,4.33,5,6.47,7.7,9.85,8.35,23.32,8.43,35.82.09,14.35-.13,28.76,1.76,43a108.39,108.39,0,0,1,1.35,12.55,40.24,40.24,0,0,1-16.57,32.81c-5.12,3.65-11.09,6.08-15.79,10.25-5,4.45-8.18,10.55-11.25,16.49q-6.66,12.9-13.31,25.8l-6,3.94c-6.1,9-13.77,16.86-21.4,24.64L1622.43,1929c-4.46,4.55-9.17,9.26-15.22,11.29s-12.86,1.05-19.12-.58a101.17,101.17,0,0,1-51-31.77c-4.12-4.8-8.15-10.24-14.13-12.26-4.67-1.58-10.32-1-14-4.3s-3.56-9-3.57-14-1.1-10.9-5.66-12.86a23,23,0,0,0-5.3-1c-10.34-1.74-17-12-20.56-21.83s-5.81-20.69-12.86-28.45a73.87,73.87,0,0,1-21.47,18.14l-6.83,2.91q-.83,8.34-1.61,16.67c-.8,8.4-1.57,16.85-.9,25.27.61,7.58,2.39,15,3.47,22.56a166,166,0,0,1,1.46,25.61c-.21,17.95-3.11,37.49-16.13,49.84-2.71,2.58-6,4.82-9.64,5.41-5.43.87-10.79-2-15-5.49-8.87-7.42-14.55-18.14-17.49-29.32s-3.32-22.89-3-34.44c.58-19.46,3.33-39.36,12.67-56.43l-28.14,2.77a21.29,21.29,0,0,0-7.22,1.59c-2.22,1.08-4.13,3.17-4.27,5.64-.12,2.09,1,4,2,5.86a70.74,70.74,0,0,1,8.48,32.28c.08,4.43-.29,9-2,13-2.07,4.74-5.89,8.5-8.43,13a27.17,27.17,0,0,0-3.46,11.91c-.16,3.1.08,6.59-2,8.88-3.2,3.5-9,1.48-13-1.19a65,65,0,0,1-27.11-42l-14.5,8.46-4.85,1.29-.63-6.46c-3.72,1.91-8,2.32-12.13,3s-8.43,1.84-11.38,4.82c4.19-14.12,12.63-26.56,21.38-38.4,3.19-4.32,6.5-8.74,7.86-13.94l1.64-4.06q2-15.56,2.9-31.23l0-6.88c-4,.54-7.46,3-10.15,5.92a66.58,66.58,0,0,0-6.79,9.86,158.16,158.16,0,0,1-25.31,31.13l-1.84,4.53-.63,4.44-8,.83-16,8.3c-1.72.89-3.75,1.8-5.52,1-2.11-1-2.55-3.71-2.7-6q-.51-8-1-16c-.14-2.21-.72-5-2.88-5.49a5.28,5.28,0,0,0-3.34.72,506.94,506.94,0,0,0-63.44,35.18l-6.13.62c-6.4-.65-12.53,2.52-17.92,6a119.6,119.6,0,0,0-18,14.38l-1.43,8-9,16.06a57,57,0,0,0-34.63,28c-1.78,3.39-3.27,7-6,9.75-3.25,3.26-7.83,4.77-11.61,7.38-4.57,3.14-7.83,7.79-11,12.33l-16.84,24.14-4.55,2.79-14.36-1.34a54.5,54.5,0,0,1-19-13.29c-2.73-3-5.25-6.31-8.9-8-1.48-.69-3.31-1.27-3.86-2.82a4.89,4.89,0,0,1-.15-2c.12-2.14.25-4.29.37-6.43l1.81-4.89,4.91-2.59c10.4-6.49,20.91-13.08,29.4-21.92,4.75-5,8.8-10.54,13.62-15.42,11.47-11.59,27.35-19.28,35.11-33.62,2.64-4.88,4.21-10.36,7.42-14.89,4-5.6,10.08-9.25,16-12.72,9.22-5.42,18.49-10.85,28.4-14.89l8.55-.67c1.94.61,3.59,2.31,5.61,2.17a6.47,6.47,0,0,0,2.32-.76l11.6-5.53c3.48-1.66,7.08-3.41,9.55-6.38,1.76-2.12,2.86-4.75,4.78-6.73,1.25-1.29,2.8-2.25,4.14-3.44,3.39-3,5.23-7.37,7-11.56l2.71-8,6.85-1.91c9.44-4,17.19-11.29,23.52-19.37s11.4-17,16.92-25.7c10.22-16,22.07-31.16,30.13-48.38-8.71,3.51-17.62,6.76-26.92,8s-19.12.42-27.45-3.93l-3.66-2.12c2.4-5.73,5.2-11.38,6.29-17.5l7-12.35c2.54-1.49,4.1-4.15,5.67-6.64a78.79,78.79,0,0,1,23.55-24.29,33,33,0,0,1,6.9-3.53,64.33,64.33,0,0,1,8.82-2c9.51-1.93,18.47-5.92,27.34-9.87a18.31,18.31,0,0,0-9.67-5.47,60,60,0,0,0-11.2-1.27c-8.31-.46-16.68-1.2-24.65-3.62s-15.57-6.62-20.87-13l-4.21-3v-5.53l13.29-1.06c1.15-.09,2.72-.77,2.33-1.85l7.17.35c.87,0,1.91,0,2.36-.75.33-.56.19-1.34.61-1.84a2.08,2.08,0,0,1,1.55-.48l8.45-.2c.13-1.71,2.52-2,4.2-1.66s3.89.65,4.67-.87a14.56,14.56,0,0,0,.48-2.31c.66-2,3.42-2.29,5.54-2s4.75.49,5.93-1.3c.68-1,.61-2.37,1.25-3.41l1.65-.67c2.34,2.06,5.92,2.18,8.84,1.09s5.33-3.19,7.65-5.28a364.62,364.62,0,0,0,26.19-26.12c3.67-4,7.42-8.56,8-14l7.12-.38,1.85,4.72a50.53,50.53,0,0,1,23.65-10.28,2.67,2.67,0,0,0,1.61-.62,2.31,2.31,0,0,0,.5-1.25,14.33,14.33,0,0,0-3.16-10.84,32.65,32.65,0,0,0-8.85-7.42c-1.13-.7-2.5-1.4-3.72-.87a4.15,4.15,0,0,0-1.75,1.94l-2.58-2.2c-3.73-3.21-8.78-4.33-13.61-5.26a368.89,368.89,0,0,0-41-5.42l-5.27-.53-16.18-2.84,0-2.9c-5.19-3.36-7.33-8.17-10.59-13.42a108.77,108.77,0,0,1-8-16.7l-2.56-2.28c1-4.38,2.47-9.07,6.17-11.63,2.18-1.51,4.87-2.06,7.36-3a46.3,46.3,0,0,0,8.5-4.67l7.81,2.27c4.94-.12,9.72,1.89,13.91,4.52s7.94,5.9,12,8.71a125.71,125.71,0,0,0,15.8,8.82c2.77,1.36,5.55,2.72,8.25,4.21,8.54,4.7,16.31,10.65,24,16.65l3.15,2.45a10.43,10.43,0,0,0,.18,5.94c1,2.7,3.32,4.64,5.42,6.6a62.56,62.56,0,0,1,14.18,19.65,14.8,14.8,0,0,1,6.13-4.36l4.86-5.23,8.8-6.76q4.62-3.29,9.53-6.16a22.44,22.44,0,0,1,5-2.37,22.76,22.76,0,0,1,6.64-.67q6.22,0,12.43.54a22.86,22.86,0,0,0,5,.07,17.69,17.69,0,0,0,6.56-2.63,52.53,52.53,0,0,0,12.58-10.53c1.07-1.23,2.15-2.73,1.87-4.34a5.28,5.28,0,0,0-1.21-2.3,22.93,22.93,0,0,0-6.78-5.69l-4.2-.48-3.49-7.63c-.35-2-.71-3.92-1.06-5.87l2-.07c-.8-5.2-1.69-10.64-4.86-14.85-1.24-1.64-2.78-3-3.91-4.74a4.19,4.19,0,0,1-.84-2.22c0-1.64,1.64-2.93,3.28-3a7.11,7.11,0,0,1,4.5,1.75,38.73,38.73,0,0,0,3.89,3,7.5,7.5,0,0,1,1.81,1.2,5.59,5.59,0,0,1,.82,1.4,47.65,47.65,0,0,0,5.32,8.75c.49.65,1.27,1.35,2,1,.89-.42,1.06-2.16,2-1.92,1.29,1.68-.37,4.07-.13,6.17a3.38,3.38,0,1,0,6.68-1,2.26,2.26,0,0,1-.06-1.31,1.16,1.16,0,0,1,1.5-.45,3.43,3.43,0,0,1,1.27,1.16l2.44,3.14a3.45,3.45,0,0,1,.73,1.27c.24,1-.38,1.93-.54,2.92-.28,1.82,1,3.47,2.19,4.87a4.63,4.63,0,0,0,1.58,1.35,4.25,4.25,0,0,0,3.49-.52,24.68,24.68,0,0,0,5.54-3.78l2.88-1.58a16.82,16.82,0,0,0,1-6.17,1.59,1.59,0,0,1,.12-.84,1.05,1.05,0,0,1,1.23-.35,4.69,4.69,0,0,1,1.17.71,6.33,6.33,0,0,0,2.89,1.11,3.85,3.85,0,0,0,2.56-.49,3.52,3.52,0,0,0,1.12-4,7.48,7.48,0,0,0-2.72-3.41,17.79,17.79,0,0,1-3.21-2.71,1.19,1.19,0,0,1-.32-.7c0-.49.51-.84,1-.87a7.15,7.15,0,0,1,1.44.21c2.07.28,4-1.7,4.06-3.79a5.63,5.63,0,0,0-3.27-4.94,5.51,5.51,0,0,1-1.67-1,1.28,1.28,0,0,1-.12-1.75,4.09,4.09,0,0,1,.68-.38,2.23,2.23,0,0,0,1-2.09,5.62,5.62,0,0,0-.8-2.28,25.2,25.2,0,0,0-4.82-6.28l-1.2-1.59c-3.26-3.72-6.56-7.49-10.57-10.38-1.82-1.32-3.78-2.45-5.56-3.82a18.6,18.6,0,0,0-1.77-1.29,13.5,13.5,0,0,0-1.81-.84l-5.85-2.37-2.56-2.26,7.17-10.38a1.11,1.11,0,0,0,.28-.83l2.39-.71a30.71,30.71,0,0,0,5.51-3.16,6.6,6.6,0,0,0,1.93-1.9,5,5,0,0,0,.63-2.43,7.69,7.69,0,0,0-1.31-4.46c-.69-1-1.62-1.84-2.25-2.88a3.32,3.32,0,0,1-.25-3.46l.52-3.11c2.52-.73,4.08-3.17,5.38-5.44l-.43-2.83c-2.37,1.12-5.33,0-7-2a14,14,0,0,1-2.78-7.22,9.58,9.58,0,0,1,.35-5.29c.72-1.64,2.53-2.92,4.26-2.48a19.91,19.91,0,0,1-7.59-12.53c-.23-1.43-.75-3.31-2.19-3.3l-3.33-4.25a23.82,23.82,0,0,1-.74-8c.37-2.68,1.86-5.37,4.35-6.43a6,6,0,0,1,5,.18l4.06,1.79.69,2.88a33.15,33.15,0,0,1,14.37,1.9.53.53,0,0,0,.84-.39l1.2-3.33a1.58,1.58,0,0,0,.13-1c-.13-.43-.59-.66-1-.87a12.34,12.34,0,0,1-4.95-4.61l6.52,3.36a3,3,0,0,0,1.55.47,3.15,3.15,0,0,0,1.25-.46l3.44-1.89a15.76,15.76,0,0,1-7.83-7.93c-1.06-2.4-1.63-5.23-3.71-6.82a1.76,1.76,0,0,0-1.48-.46l-2.16-6.35c-.22-4-.16-8.31,1.75-11.89s6.23-6.18,10.07-4.87l4.13,3.27,1.58,3.35a3.66,3.66,0,0,1,3.35,2.57,11.07,11.07,0,0,1,.23,2.51,10.65,10.65,0,0,0,2.31,6.07,7.71,7.71,0,0,1,4.68-.06,7.36,7.36,0,0,1,4.1,4.33,21.92,21.92,0,0,1,1.16,6,3.14,3.14,0,1,1,4.76-2.11,18.9,18.9,0,0,1,5.25-.42c-1-2.55,1.33-5.14,3.57-6.73a59.58,59.58,0,0,1,6-3.75c-10.45-.48-21.38-5.5-25.86-15a14.74,14.74,0,0,0-2.16-3.86,3.48,3.48,0,0,0-4-1l-3.34-5.34c-2-2.78-4-6.58-2-9.37,1.36-1.91,4.2-2.51,5.16-4.65.65-1.47.19-3.15,0-4.75a11.51,11.51,0,0,1,6.3-11.05c2.87-1.39,6.47-1.66,8.52-4.1,3.38-4,.11-11,3.43-15.08l1.23-4,4.8,1.08,10.16,1.89a17.48,17.48,0,0,0-1.65,5l-1.63,4.63a4,4,0,0,0,3.09,2.76,5.62,5.62,0,0,1,1.53.31c1.17.56,1.29,2.14,1.24,3.43a7.2,7.2,0,0,1,4.9-1.19c1.68.33,3.2,1.95,2.89,3.64,3-1,3.54-5.72,6.6-6.65a56.63,56.63,0,0,0,3.78,10.34,10.72,10.72,0,0,1,1.23,3.42,3.23,3.23,0,0,1-1.35,3.17,10.24,10.24,0,0,1,3.53,4.92l3.48.61a6.86,6.86,0,0,0,3.31-9.56c-1.1-1.82-3-3-4.19-4.82-1.67-2.62-1.41-6-2.23-9-.9-3.3-3.16-6.5-2.38-9.83l5.7.11.13-5.81a14.68,14.68,0,0,1,6.52,2.33,23.36,23.36,0,0,1,3.3-8.47,11.78,11.78,0,0,1,4.89,7.38,9.67,9.67,0,0,1,3.7-6.51c.9-.68,1.91-1.2,2.82-1.87,3.15-2.36,4.85-6.55,8.46-8.13l4.89-3.59,5.39,1.39c3.7.28,7-2.12,10.14-4s7.3-3.4,10.43-1.42c5,3.16,2.83,11.9,7.51,15.45a11.94,11.94,0,0,0,4.49,1.77c6.54,1.6,13.92,3.08,19.62-.5a52.42,52.42,0,0,0,4.81-3.89c6.87-5.52,16.5-6.83,25.06-4.78a30.32,30.32,0,0,0,5.84,1.15c2.87.11,5.67-.93,8.54-.93,7.68,0,13.68,7.84,13.83,15.52.07,3.46-.38,7.74,2.57,9.52a7.49,7.49,0,0,0,5,.51,38.28,38.28,0,0,0,10.55-3.24c4.53-2.14,9.5-5.25,14.15-3.39,5.1,2,6.23,8.59,9.19,13.22,3.55,5.55,9.94,8.43,15.42,12.09s10.69,9.52,9.58,16l3,9c4.07,6.16,12.88,6.87,18.66,11.46,5.06,4,7.27,10.55,9.24,16.7,1.81,5.68,3.63,11.41,4.13,17.35s-.42,12.18-3.73,17.13c-2.57,3.84-6.6,7.14-7,11.74-.3,3.76,2,7.18,4.2,10.24,2.91,4,6.06,8.3,10.66,10.21,2.94,1.21,6.18,1.35,9.35,1.62a32,32,0,0,1,11.16,2.52c7.09,3.39,11.44,11.1,12.35,18.9s-1.17,15.67-4.19,22.92l1.16,7.67a55.64,55.64,0,0,1-3.86,22A21.16,21.16,0,0,0,1807.07,1459.21Zm-508.3,310.68-9.27-18.31c-2.12-4.19-4.26-8.44-5.21-13a44.51,44.51,0,0,1-.58-10.88,135.54,135.54,0,0,1,6.66-36.52l-.8-1.26c-5.85,1.95-9.64,7.66-11.86,13.42s-3.36,12-6.29,17.38c-1.42,2.62-3.23,5-4.49,7.72-3.7,7.89-2.31,17.1-3.31,25.76-1.15,10-5.54,19.39-7.2,29.33-1.1,6.56-1,13.25-.87,19.9l3.1,3.43a199.2,199.2,0,0,0,28.07-8.54c2.52-1,5.13-2.07,6.91-4.11,2.77-3.14,3-7.74,4.78-11.5Zm12.94-127.81c-2.41,4.12-6,7.36-9.13,11a3.48,3.48,0,0,0-.78,1.23,4.43,4.43,0,0,0,.2,2.3,13.45,13.45,0,0,1-.07,6.58,5.39,5.39,0,0,0-.31,1.08l.31-1.07h0c1-2.35,3.61-3.93,4.89-6.24a13,13,0,0,0,1-2.47Zm20.59-36.58-7.81-.24-1,.12a41.09,41.09,0,0,1-10.91,10.45,5.61,5.61,0,0,1-3.79,1.23c-1.35-.23-2.45-1.89-1.65-3-3.55,4.84-11.43,4.33-15.42,8.82-2.72,3.06-2.84,7.57-2.83,11.67l4,1.9c1.87-3.23,4.08-6.42,7.28-8.35s7.6-2.27,10.52.07A100.24,100.24,0,0,1,1332.3,1605.5Zm28.82-129.79a27.42,27.42,0,0,0,7.45-1.06l-.7-1.33a2.91,2.91,0,0,1-.28-1.87c.32-3.59,1.64-7.15,1-10.69a16.39,16.39,0,0,0-13.42,9.52l-.81,2.51A9.23,9.23,0,0,0,1361.12,1475.71Z"></path>
    <path data-name="5a" data-official="" data-plain="Flower" data-loc="" d="M1232.17,2459.68c-3.79,1.1-7.65,2.21-11.59,2.1s-8-1.66-10.29-4.9c-6.13-8.86,5.23-21.48.89-31.34-2.43-5.51-9.18-8.38-11-14.13-1.41-4.52.92-9.65,4.77-12.4s8.89-3.39,13.58-2.76c6.65.89,13.25,4.14,19.78,2.6,5.9-1.4,10.17-6.38,14-11.12s7.9-9.79,13.72-11.46,13.51,2.17,13.21,8.22c-.13,2.59-1.63,5.34-.4,7.62s4.42,2.55,6.88,1.83,4.77-2.14,7.34-2.27c6.27-.33,10.25,7.06,10.14,13.33-.07,3.54-.76,7.55,1.55,10.23,3.22,3.76,9.17,1.87,14.1,1.38s10.5,1.08,13.8,4.94,3.85,10.13.54,14c-2.52,2.92-6.63,4-9.22,6.9-3.53,3.89-3.35,9.83-5.67,14.54a14.91,14.91,0,0,1-9.61,7.77c-3.91,1-9.15,1.06-10.37,4.91-1,3.26,2,6.25,4.13,8.89,8.25,10,5.7,27-5.14,34.21-1.25.83-2.7,1.69-3,3.15a4.71,4.71,0,0,0,.35,2.63c1.8,5,5.61,9,8.71,13.29s5.6,9.7,4.22,14.84a15.46,15.46,0,0,1-3.19,5.73c-7.62,9.19-20.32,12.06-32.12,13.92q-10.85,1.72-21.77,2.93c-5.38.6-11.69.76-15.22-3.35-2.3-2.68-2.72-6.5-2.49-10a35,35,0,0,1,5.85-17.16c2.49-3.71,5.87-7.59,5.12-12-1-5.93-8.37-7.87-13.15-11.54-4.5-3.45-7-9.12-7.29-14.78a30.71,30.71,0,0,1,4.2-16.26c4-7.25,10.45-14.43,8.88-22.57Z"></path>
    <path data-name="6a" data-official="Lagetta lintearia" data-plain="Lace-bark" data-loc="Jamaica" d="M187.36,2209.83a92.28,92.28,0,0,0-2.33-33.51c-.94-3.61-2.17-7.3-4.74-10-6.48-6.79-17.57-4.34-26.84-5.77-21.28-3.28-32.09-27-49.3-39.93-16.07-12.09-37.2-14.29-56.32-20.5-4.4-1.44-9-3.33-11.52-7.23-3.42-5.33-1.67-12.32.28-18.35a584.64,584.64,0,0,1,26.76-67.78c5.07-10.81,10.72-21.79,19.88-29.46,8.78-7.35,20-11,31-14.24a815.79,815.79,0,0,1,92.84-21.63c16.68-2.87,33.79-5.22,50.45-2.28,11.46,2,22.33,6.5,33.09,10.93,11.59,4.78,23.88,10.13,30.68,20.66,7.61,11.77,6.44,27,5,40.9,17.47-11.22,37.64-22.92,57.77-17.83,12.71,3.21,22.78,12.62,34.27,19,12,6.58,25.51,9.81,37.74,15.91a89.26,89.26,0,0,1,35.36,31.92c1.88,3,3.61,6.13,4,9.61.61,5.49-2.23,10.8-5.68,15.12-10.39,13-26.27,20.22-41.54,26.92,14,.19,28.45.48,41.05,6.52s22.78,19.53,20.32,33.29c-1.68,9.35-8.65,16.84-16.05,22.79-18.95,15.23-42.48,24-66.41,28.21-7,1.24-14.3,2.18-20.63,5.5s-11.66,9.7-11.36,16.84c.31,7.47,6.43,13.51,7.83,20.85,1.68,8.86-4.08,17.8-11.73,22.57s-16.83,6.24-25.76,7.48a884.93,884.93,0,0,1-146.41,8c-7.79-.22-16.24-.79-22.11-5.91-7-6.09-7.95-16.39-8.42-25.63q-.92-17.52-1.81-35Z"></path>
</svg>
