
<svg xmlns="http://www.w3.org/2000/svg" viewBox="0 0 2152 3066" id="illustration" preserveAspectRatio="xMidYMid meet">
    <title>Capparidaceæ</title>
    <path data-name="1" data-official="Capparis spinosa" data-plain="Common Caper-tree" data-loc="South Europe" d="M2130.25,1359.54c-.67,62.52-1.4,125.55-14.69,186.64l-9.28,34.37a241.26,241.26,0,0,1-59.36,126.26c-7.54,8.34-16,16.34-26.38,20.54-8.26,3.32-17.29,4.07-26.16,4.78l-128.71,10.33c-10.19.82-20.51,1.63-30.6,0-20.67-3.46-38.5-17.26-51-34.09s-20.3-36.59-27.49-56.27l-6.88-14.07c-19.72-38.75-63.16-57.74-100.62-79.83-16.38-9.67-32.11-20.4-47.82-31.13L1566,1502.94c-10.45-7.14-21-14.33-29.91-23.29-32.15-32.24-38.79-81.21-58.08-122.46-7.28-15.56-17-30.77-31.81-39.56-9-5.35-19.33-8-29.7-9.28-35-4.23-70.46,6.93-105.42,2.56l-18.38,6.72c-4.55,3.15-5.27,9.41-7.06,14.65-5.41,15.88-22.39,24.49-32.25,38.07-6.6,9.11-10.35,20.85-19.81,26.93-2.37,1.52-5.18,2.63-8,2.24-3.08-.44-5.61-2.6-7.89-4.72a192.47,192.47,0,0,1-27.17-31.43l-6.8-9.33c-22.8-41.88-38.1-88.37-42.76-135.83l-11.75-15.87a371.35,371.35,0,0,1-39.39-74.18l-11.33-10.34C1058,1049,1010.62,989.58,996.19,919.19c-11.28-55-1.44-111.81,5.16-167.57S1010.77,636.89,987,586c-20.69-44.26-59.66-78-80-122.47-9.48-20.7-14.64-43.14-23.61-64.06-14.93-34.79-39.86-64.18-64.42-93-31.32-36.73-64.38-74.77-109.07-93-49.25-20.13-105.52-13.28-156.67-28l-26.47-24.6c-15.46-9.73-15.59-33.85-4.77-48.57s28.82-22.06,46.17-27.78c150.3-49.57,314.13-28,469.37,2.84s312,70.67,469.62,56c33.69-3.14,67.41-8.78,101.18-6.66,46.13,2.9,90.13,20.11,131.87,40a1024.13,1024.13,0,0,1,150.56,88c21.15,14.93,42.6,31.06,67.92,36.44,39.74,8.45,83.77-10.8,120.58,6.41,27.76,13,43.27,44.06,46.72,74.5s-3,61-8,91.24a967.73,967.73,0,0,0-12.26,194.5c1.76,46.32,6.6,94.36-10,137.62-10.72,27.86-29.67,51.72-43.06,78.4-32.94,65.65-28.74,148.46,10.66,210.45l27.31,42.56q8.64,29.89,17.27,59.8c7.89,27.33,15.81,54.79,19.51,83C2130.82,1306.08,2130.54,1332.86,2130.25,1359.54Z"></path>
    <path data-name="1a" data-official="" data-plain="Flower-bud, opened" data-loc="" d="M101.78,2876.85c-7.23-9.43-7.77-22.23-7.63-34.1.14-11.2.62-22.51,3.69-33.28s9-21,18.11-27.51c8.92-6.3,20.07-8.46,30.92-9.71a238.34,238.34,0,0,1,32.93-1.51c8.18.19,16.4.81,24.32,2.89,26.34,6.94,46.45,29.84,55.46,55.54s8.28,53.86,4,80.75c-1.34,8.37-3.05,16.81-6.82,24.4a62.5,62.5,0,0,1-13.46,17.55c-22.76,21.38-57.65,28.86-87.17,18.67S103.71,2933,99,2902.1Z"></path>
    <path data-name="2" data-official="Capparis Breynia" data-plain="Oleaster-leaved Caper-tree" data-loc="West Indies" d="M263.49,2629.13c-.25,10.2-1,20.79-5.86,29.74-9.33,17-30.61,23.07-49.86,25.61-10.09,1.33-21.4,1.82-29.29-4.61-6.13-5-8.72-13-11-20.65a2415.06,2415.06,0,0,1-96.14-571.89c-1.55-33.65-2.38-67.57,3.08-100.8l22.32-38.74c6.22-3.81,14.64-1.69,20.74,2.31s9.6,10.93,16.1,13.81c4.34,1.92,9.38,1.7,13.72,3.61,7.07,3.1,10.58,9.85,15.28,16s11.09,10,18.26,12.87l11,16.18a924.33,924.33,0,0,1,2.27,95.18c-2.08,76.58-13.3,154.12,2,229.19,11.16,54.66,36,105.56,50.91,159.31A454.71,454.71,0,0,1,263.49,2629.13ZM286.1,194,232.49,480.32,226,497.7C198.22,612,194.2,730.53,190.31,848.08l-5.91,178.49q-5.57,168.38-11.15,336.76l-12.51,24.39.06,18.52,17.46,31q2.34,196.83,4.67,393.67l.71,18.45c-4.37,4.09-10.69,5.34-16.68,5.55s-13-.44-18.93.61c-16.37,2.92-27.57,11.48-45.29,16.84l-31.48-37.09Q59.1,1549,60.56,1262.38l-.6-21.19c-8-174.76,15-349.29,38-522.72l45-339.71c14-105.67,28.13-212.07,61.59-313.27,3.76-11.38,8-23,16.15-31.8,13.46-14.42,34.72-18.1,54.42-19.08,6.08-.3,12.52-.33,17.79,2.71,9.71,5.61,11.32,18.77,11.34,30C304.29,96.64,295.18,145.49,286.1,194Z"></path>
    <path data-name="3" data-official="Caratœva fragrans" data-plain="Sweet-scented Garlic-pear" data-loc="Sierra Leone" d="M689.51,1433.13a498.51,498.51,0,0,0-88.2-113.9c-15.42-14.85-31.9-28.77-50.36-39.61A189.46,189.46,0,0,0,433,1255.13l-13.77,1c-11.52-2.35-23.8-2-34.64,2.52s-20.05,13.58-23.32,24.87.15,24.6,9.39,31.86c9,7,21.26,7.54,32.66,7.75l51.35.93c12.91.23,26,.5,38.35,4.3,11.88,3.66,22.54,10.45,32.81,17.45,12.67,8.64,25,17.73,37.39,26.82l48.18,35.43,9,7.19c18.84,13,31.43,33.11,43.5,52.6l10,16.11.54,6.3q9.61,18,20.48,35.32l11.54,8q15,22.26,27.78,45.89l6.63,20.44c-3.14,2.34-7.27,2.81-11.19,3a126.16,126.16,0,0,1-19.34-.52l-14.94-16.93c-24.79-10.64-52.58-11.31-79.55-11.13q-44.34.3-88.62,3.13l-11.26,3.34c-11.43,9.72-28.07,9.32-42.36,13.91-18.35,5.9-33.61,20.46-52.7,23.08-5.1.7-10.3.5-15.37,1.35-15,2.49-26.91,13.52-37.86,24.06l-5.67-2.32c-3.08,2.34-6.18,4.82-8.09,8.17l-5.81,8a101.18,101.18,0,0,1,35.71,29.11l2.71,3.2c4.56,6.7,8.23,13.94,11.89,21.16l17.6,34.72c6.38,12.58,12.77,25.2,17.41,38.52,5,14.41,7.92,29.47,10.8,44.47l6.22,5.39a44.27,44.27,0,0,0,25.87-14.28c6.1-6.91,9.85-15.52,14.75-23.31s11.63-15.22,20.59-17.36a16.16,16.16,0,0,0,4.95-1.56c2.11-1.32,3.15-3.79,4.19-6.06,3.86-8.44,9.35-16,14.8-23.54,4.14-5.72,8.34-11.49,13.74-16a86.81,86.81,0,0,1,11.94-8c11-6.5,22-13,34.12-17.19l2,.93c-2.49,4.9-2.92,10.55-3.29,16-1.21,17.78-2.29,35.58-2,53.39.2,13.37,1.05,27.34-4.56,39.47-2.53,5.49-6.3,10.35-8.62,15.93-4.47,10.79-3.11,23-2.38,34.61s.46,24.29-6.5,33.67l14.83,14.4a233.32,233.32,0,0,0,130.31-17.38l2.4-11.33L734,1869.36a58.71,58.71,0,0,1,9.49-8.28,19.64,19.64,0,0,1,11.9-3.48l18.18,3.89c25.32,0,48.73-14.06,74-16.12l8.07.71c15.06,38.21,39.91,72.22,70.11,100.07s65.65,49.66,103.16,66.4a468.06,468.06,0,0,0,53.48,20.06l6.94,15.48a58.87,58.87,0,0,0,24.4,29.71,56.62,56.62,0,0,0-19.63,18.92l-1.72,20.75c-1.94,24.59-3.69,50.34,6.22,72.93,8.6,19.62,25.17,34.76,34.71,53.94l4.84,26.81c-2.45,24.39-15.81,47.13-15.39,71.64l-10.85,14.77c.44,12.53-2.84,24.88-3.57,37.39s1.71,26.28,11.15,34.52l2.4,13c10.84,23.86,20.12,48.68,35,70.25s36.57,40,62.45,44.08c8.63,1.35,17.78,1,25.67-2.75,7.65-3.63,13.51-10.09,19.42-16.15a303.07,303.07,0,0,1,166.29-86.71c12.12-2,24.4-3.26,36.24-6.52,37.33-10.26,68.12-41.5,77.87-79,4.83-18.59,4.87-38.53,12.72-56.07,10.89-24.35,34.78-39.87,57.63-53.64l18.84-12.86q16.08-8.85,31.27-19.19c8-5.43,16-11.51,20.24-20.18,4.59-9.48,3.88-20.58,2.77-31.05-1.89-17.91-4.64-35.79-4.42-53.79.58-47.69,21.72-92.4,42.42-135.36l-.34-12.11c7.73-10.82,13.1-23.15,20.42-34.25,15.88-24.08,40.14-41.26,64.68-56.41,18.2-11.23,37.72-22.5,48.33-41.06,10.7-18.72,11.47-43.51,27.66-57.75,3.73-3.28,8.32-6,10.25-10.63,2.78-6.63-1.45-14.53-7.57-18.29s-13.59-4.44-20.75-5l-3.26-5.59c-10.19.82-20.51,1.63-30.6,0-20.67-3.46-38.5-17.26-51-34.09s-20.3-36.59-27.49-56.27l-6.88-14.07c-19.72-38.75-63.16-57.74-100.62-79.83-16.38-9.67-32.11-20.4-47.82-31.13L1566,1502.94c-10.45-7.14-21-14.33-29.91-23.29-32.15-32.24-38.79-81.21-58.08-122.46-7.28-15.56-17-30.77-31.81-39.56-9-5.35-19.33-8-29.7-9.28-35-4.23-70.46,6.93-105.42,2.56l-18.38,6.72c-4.55,3.15-5.27,9.41-7.06,14.65-5.41,15.88-22.39,24.49-32.25,38.07-6.6,9.11-10.35,20.85-19.81,26.93-2.37,1.52-5.18,2.63-8,2.24-3.08-.44-5.61-2.6-7.89-4.72a192.47,192.47,0,0,1-27.17-31.43l-6.8-9.33c-22.8-41.88-38.1-88.37-42.76-135.83l-11.75-15.87a371.35,371.35,0,0,1-39.39-74.18l-11.33-10.34C1058,1049,1010.62,989.58,996.19,919.19L758.45,904.85c-5.42-.8-11.15-1.27-16.21.83C732.7,909.65,729,921,726.4,931q-18.45,72.33-29.85,146.21c-5.19,33.66-9,69.34,4.18,100.72,6.73,16,17.66,30.14,22.57,46.77,3.86,13,3.79,26.9,5.43,40.42s5.43,27.57,15.19,37.07l9.79,13.43c5.46,2,9.61,6.43,13.33,10.89,1.52,1.82,3.09,4,2.68,6.33l0,9.8,7.16,17.56,4.8,7.71a48.61,48.61,0,0,1,16,24.76l-6.64,19.66a460.63,460.63,0,0,0,22,103.22c8.28,24.55,18.81,50.1,13.69,75.5a7.44,7.44,0,0,1-1.75,4c-1.43,1.38-3.66,1.45-5.65,1.24-16.26-1.71-28.24-15.73-37.13-29.46a272.33,272.33,0,0,1-18.89-34.36l-13.85-1.73c-8.95-2.49-16.66-8.35-22.82-15.29s-10.93-15-15.65-23l-6.37-10.75Z"></path>
    <path data-name="4" data-official="Polansia chelidonii" data-plain="Celadine-flowered Polanisia" data-loc="East Indies" d="M160.8,1406.24l-.06-18.52,12.51-24.39q5.58-168.39,11.15-336.76l5.91-178.49C194.2,730.53,198.22,612,226,497.7l6.45-17.38,22.8-51.07,75.22-126.47c7.53-12.66,15.83-26,29.21-32.21l27.6-15.32c45.15-18.44,96.35-8.18,143.81,3,30.59,7.23,61.37,14.85,89.69,28.49,64.57,31.09,117.44,93.39,189,97.21,19.93,1.07,43.6-1.19,56,14.48,4.4,5.57,6.46,12.6,7.84,19.56,9.86,49.86-10.34,105.56,13.78,150.3,5.4,10,13,19.38,14.51,30.67,1.73,13-5.12,25.71-14.14,35.17s-20.22,16.54-30.07,25.14C830.49,683.07,814.87,717.08,800,750L727.7,910.48,726.4,931q-18.45,72.33-29.85,146.21c-5.19,33.66-9,69.34,4.18,100.72,6.73,16,17.66,30.14,22.57,46.77,3.86,13,3.79,26.9,5.43,40.42s5.43,27.57,15.19,37.07l9.79,13.43c5.46,2,9.61,6.43,13.33,10.89,1.52,1.82,3.09,4,2.68,6.33l0,9.8q3.57,8.78,7.16,17.56l4.8,7.71a48.61,48.61,0,0,1,16,24.76l-6.64,19.66a460.63,460.63,0,0,0,22,103.22c8.28,24.55,18.81,50.1,13.69,75.5a7.44,7.44,0,0,1-1.75,4c-1.43,1.38-3.66,1.45-5.65,1.24-16.26-1.71-28.24-15.73-37.13-29.46a272.33,272.33,0,0,1-18.89-34.36l-13.85-1.73c-8.95-2.49-16.66-8.35-22.82-15.29s-10.93-15-15.65-23l-6.37-10.75-15.2-48.54a498.51,498.51,0,0,0-88.2-113.9c-15.42-14.85-31.9-28.77-50.36-39.61A189.46,189.46,0,0,0,433,1255.13l-13.77,1c-11.52-2.35-23.8-2-34.64,2.52s-20.05,13.58-23.32,24.87.15,24.6,9.39,31.86c9,7,21.26,7.54,32.66,7.75l51.35.93c12.91.23,26,.5,38.35,4.3,11.88,3.66,22.54,10.45,32.81,17.45,12.67,8.64,25,17.73,37.39,26.82l48.18,35.43,9,7.19c18.84,13,31.43,33.11,43.5,52.6l10,16.11.54,6.3q9.61,18,20.48,35.32l11.54,8q15,22.26,27.78,45.89l6.63,20.44c-3.14,2.34-7.27,2.81-11.19,3a126.16,126.16,0,0,1-19.34-.52l-14.94-16.93c-24.79-10.64-52.58-11.31-79.55-11.13q-44.34.3-88.62,3.13l-11.26,3.34c-11.43,9.72-28.07,9.32-42.36,13.91-18.35,5.9-33.61,20.46-52.7,23.08-5.1.7-10.3.5-15.37,1.35-15,2.49-26.91,13.52-37.86,24.06l-5.67-2.32c-3.08,2.34-6.18,4.82-8.09,8.17l-5.81,8-10.42-16.71q1-16.69,2.06-33.38c1.08-17.58,2.07-35.84-4.48-52.19-10.2-25.5-36-40.56-59.71-54.42q-43.76-25.59-85.66-54.18l-11.57-8.84Zm977.31,864.91c-2.45,24.39-15.81,47.13-15.39,71.64L1100.3,2346c-13-11.06-26.12-22.24-41.47-29.63a100,100,0,0,0-60.5-8.27,73,73,0,0,0-17.13,5.09c-10.2,4.58-18.84,12-27,19.62s-16,15.56-23.42,23.81l-12.58,6.71a48.63,48.63,0,0,1-22.56,25.06l1.93,8.57a73.85,73.85,0,0,1-21.42,24.89,8.84,8.84,0,0,1-3.09,1.66c-2.86.67-5.6-1.42-7.58-3.59-7.48-8.23-11-19.18-14.4-29.78q-5.21-16.47-10.43-32.94l.74-12.44a266.12,266.12,0,0,1-2-38.48,33,33,0,0,0-.59-8.94,31.34,31.34,0,0,0-3.17-7q-3.6-6.47-7.18-12.93L816.12,2255l-10.26-37.74c-2.44-9-5.84-19.06-14.4-22.66a15.67,15.67,0,0,0-14.91,1.7l-6.12,14.25a248.27,248.27,0,0,0,3.21,49l11.47,40c16.26,53.52,29.08,108,41.9,162.46,7.61,32.32,15.23,64.75,18.9,97.75,3,26.61,3.33,53.43,3.69,80.2.15,10.86.17,22.25-5,31.82a32.19,32.19,0,0,1-53.86,4.45c-5.55-7.2-7.8-16.34-9.9-25.19q-5.5-23.12-11-46.25l-7.15-24c-5.28-34.18-6.14-68.92-11.32-103.11s-15.15-68.62-36.29-96c-7.78-10.07-16.93-19-25.39-28.5-28.18-31.64-48.48-69.35-68.52-106.68l-2.33-12.72q-6-10.07-11.42-20.5l-11.26-5a464.89,464.89,0,0,1-28.3-45.78l-7.56-14.21c-.32-6-3.1-11.73-7-16.35a57.48,57.48,0,0,0-13.93-11.41l-14.37,5.17c-5.66-5.47-11.47-10.9-18.23-14.94s-14.6-6.65-22.45-6c-3.83.33-7.9,1.65-10,4.86-1.68,2.55-1.8,5.78-1.82,8.83q-.07,11.58.85,23.15l-6,11.55-1.87,4.54a9.94,9.94,0,0,1-1.48,2.74c-.52.6-1.17,1.06-1.74,1.62-2.08,2-2.79,5-3.42,7.88l3.44.49,3.1,5.63,6.82,7.71a54.24,54.24,0,0,1,5.21,6.51l4.72,4.37a120.52,120.52,0,0,1-9.26,83c-4.2,8.3-9.37,16.08-14.52,23.84-13.91,20.91-27.93,41.9-45.07,60.25-3.12,3.35-7,6.85-11.52,6.53-5.05-.36-8.45-5.18-11-9.54a446.46,446.46,0,0,1-45.44-108c-1.91-7-3.64-14-5.9-20.93-2.16-6.59-4.79-13-7.41-19.43-1.62-4-3.42-8.15-7-10.55s-9.35-1.91-11,2l-10.08.94c-5.54,11.12-16.46,18.72-28,23.33l-1.56,23.55-14.26,34.42c-4.84,11.7-9.83,23.62-18.14,33.18s-20.68,16.5-33.26,15.05l-12.67,4.51c-15.32-75.07-4.1-152.61-2-229.19l15.22-10.4a149.56,149.56,0,0,1,85.37-25.22l12.27.82a75.05,75.05,0,0,0,19.94-3.43,32.5,32.5,0,0,0,8.5-3.81,15.45,15.45,0,0,0,5.95-7l.25-8.37c1.4-2.19,2.8-5,1.34-7.19a6.73,6.73,0,0,0-2.89-2q-17.16-7.85-34.87-14.37l-24-7.15c-6.05.27-12-1.8-17.49-4.3s-10.85-5.49-16.66-7.23l-11.86,8.25a53.17,53.17,0,0,1-30.31-5.47l-13.06,1.74-11-16.18c-7.17-2.89-13.55-6.73-18.26-12.87s-8.21-12.87-15.28-16c-4.34-1.91-9.38-1.69-13.72-3.61-6.5-2.88-10.15-9.91-16.1-13.81S103,1944,96.78,1947.79l-20.91,3.27c-9.89-6-20.61-10.58-30.34-16.85s-18.68-14.63-22.61-25.51-1.66-24.55,7.6-31.48c4.29-3.21,9.59-4.73,14.84-5.78,15.56-3.09,31.58-2.51,47.43-1.93l9.95,2.89c17.72-5.36,28.92-13.92,45.29-16.84,5.89-1,12.95-.4,18.93-.61s12.31-1.46,16.68-5.55l64.14,5.78a239.13,239.13,0,0,1,24.2,9.52l21.6-1.88c18.4,3,37.23.89,55.69-1.74q22.49-3.21,44.82-7.4c15.21-2.86,30.63-6.15,44.17-13.65l12.12-6.46a44.27,44.27,0,0,0,25.87-14.28c6.1-6.91,9.85-15.52,14.75-23.31s11.63-15.22,20.59-17.36a16.16,16.16,0,0,0,4.95-1.56c2.11-1.32,3.15-3.79,4.19-6.06,3.86-8.44,9.35-16,14.8-23.54,4.14-5.72,8.34-11.49,13.74-16a86.81,86.81,0,0,1,11.94-8c11-6.5,22-13,34.12-17.19l2,.93c-2.49,4.9-2.92,10.55-3.29,16-1.21,17.78-2.29,35.58-2,53.39.2,13.37,1.05,27.34-4.56,39.47-2.53,5.49-6.3,10.35-8.62,15.93-4.47,10.79-3.11,23-2.38,34.61s.46,24.29-6.5,33.67l14.83,14.4a233.32,233.32,0,0,0,130.31-17.38l2.4-11.33L734,1869.36a58.71,58.71,0,0,1,9.49-8.28,19.64,19.64,0,0,1,11.9-3.48l18.18,3.89c25.32,0,48.73-14.06,74-16.12l8.07.71c15.06,38.21,39.91,72.22,70.11,100.07s65.65,49.66,103.16,66.4a468.06,468.06,0,0,0,53.48,20.06l6.94,15.48a58.87,58.87,0,0,0,24.4,29.71,56.62,56.62,0,0,0-19.63,18.92l-1.72,20.75c-1.94,24.59-3.69,50.34,6.22,72.93,8.6,19.62,25.17,34.76,34.71,53.94ZM387.79,2115.27l-5.31-1.07a26.83,26.83,0,0,1-5,7.07c-1,.86-2,1.58-3,2.4a38.92,38.92,0,0,0-5.55,6.06l3.55,2.41a67.35,67.35,0,0,1,9.69-10.69C384.24,2119.58,386.51,2117.77,387.79,2115.27Zm217.74-23.11a22.58,22.58,0,0,0-3.36-4.62,7.47,7.47,0,0,0-5.1-2.3c-2.05,0-3.93,1.17-6,1.39-3.83.42-7.15-2.4-10.09-4.91s-6.67-5-10.35-3.87l-22.58,31.69c6.43,7.5,14.88,13.31,20,21.75Zm138.62,136.1q-.9-19.25-3-38.4l-6.78-12.51c-7.57-3.44-12.81-10.69-20.18-14.56a30.6,30.6,0,0,0-19.72-2.59,46.3,46.3,0,0,0-18.31,8.28c-5.24,3.8-9.89,8.41-15.42,11.76-4.67,2.84-9.86,4.7-14.81,7-7.11,3.31-13.94,7.63-21.67,8.95l-3.73,6.68c2.48,7.47,5,15.11,9.92,21.29,3,3.76,7.26,7,12,6.77l13.55-2.39a309,309,0,0,0,41.28-12.15c6.15-2.28,12.75-4.8,19.11-3.19a26,26,0,0,1,8.47,4.36A82.36,82.36,0,0,1,738.78,2230Z"></path>
    <path data-name="5" data-official="Sodada decidua" data-plain="" data-loc="Egypt" d="M2076.89,2226.1c-26.34,46.43-67,83.34-111.32,113.11s-92.58,53.05-139.8,77.95c-158.62,83.63-307.24,186.5-471.49,258.45-27.33,12-58.83,23.09-86.13,11-21.12-9.33-34.78-31.4-38.35-54.21s1.73-46.21,10.26-67.66l4.9-10.73c7.65-3.63,13.51-10.09,19.42-16.15a303.07,303.07,0,0,1,166.29-86.71c12.12-2,24.4-3.26,36.24-6.52,37.33-10.26,68.12-41.5,77.87-79,4.83-18.59,4.87-38.53,12.72-56.07,10.89-24.35,34.78-39.87,57.63-53.64l18.84-12.86q16.08-8.85,31.27-19.19c8-5.43,16-11.51,20.24-20.18,4.59-9.48,3.88-20.58,2.77-31.05-1.89-17.91-4.64-35.79-4.42-53.79.58-47.69,21.72-92.4,42.42-135.36l-.34-12.11c7.73-10.82,13.1-23.15,20.42-34.25,15.88-24.08,40.14-41.26,64.68-56.41,18.2-11.23,37.72-22.5,48.33-41.06,10.7-18.72,11.47-43.51,27.66-57.75,3.73-3.28,8.32-6,10.25-10.63l5.27-3.57a79.13,79.13,0,0,0,16.76-9c3.62-2.56,7.08-5.45,11.15-7.2a23,23,0,0,1,13.85-1.37c6.64,1.41,13.18,5.79,19.68,3.83l15.27,1.71c23.79,3.37,47.78,6.79,70.37,15s44,21.59,57.59,41.38c25,36.29,19.19,84.53,15.28,128.41-7.75,86.91-4.1,175.29-23.22,260.42Z"></path>
    <path data-name="6" data-official="Capparis ovata" data-plain="Fruit" data-loc="" d="M387.79,2115.27l-5.31-1.07a26.83,26.83,0,0,1-5,7.07c-1,.86-2,1.58-3,2.4a38.92,38.92,0,0,0-5.55,6.06l3.55,2.41a67.35,67.35,0,0,1,9.69-10.69C384.24,2119.58,386.51,2117.77,387.79,2115.27Zm217.74-23.11a22.58,22.58,0,0,0-3.36-4.62,7.47,7.47,0,0,0-5.1-2.3c-2.05,0-3.93,1.17-6,1.39-3.83.42-7.15-2.4-10.09-4.91s-6.67-5-10.35-3.87l-22.58,31.69c6.43,7.5,14.88,13.31,20,21.75Zm-64.69,191.9c8-8.85,18.35-17.61,29.67-21.41l22.31,10.53,82.54,86.49,22.38,2.69c7.38,8.26,12.75,18.1,17.41,28.14,27,58.3,31.06,124.62,27.81,188.78-.67,13.25-1.66,26.61-5.34,39.35-2.21,7.64-5.43,15.09-10.44,21.27s-11.5,10.77-18.06,15.14c-9.84,6.56-20.31,12.85-32,14.6s-25-2-31.33-12c-3.64-5.66-4.68-12.6-4.91-19.32-1.21-36.5,19-70.58,21.43-107,3-45.84-22.53-88.78-52.37-123.71l-11.39-9.37a374.85,374.85,0,0,0-52.44-83Zm21.35-44.46a137.14,137.14,0,0,0-14.46,9.17c-2.35,1.7-4.65,3.49-6.94,5.27l-9.46,7.33-49.09-66.68-4.72-4.37a54.24,54.24,0,0,0-5.21-6.51l-6.82-7.71-3.1-5.63L459,2170c.63-2.84,1.34-5.85,3.42-7.88.57-.56,1.22-1,1.74-1.62a9.94,9.94,0,0,0,1.48-2.74l1.87-4.54,6-11.55q-.92-11.55-.85-23.15c0-3.05.14-6.28,1.82-8.83,2.1-3.21,6.17-4.53,10-4.86,7.85-.67,15.7,1.94,22.45,6s12.57,9.47,18.23,14.94l14.37-5.17A57.48,57.48,0,0,1,553.36,2132c3.88,4.62,6.66,10.33,7,16.35Zm-327-223.33,11.86-8.25c5.81,1.74,11.15,4.72,16.66,7.23s11.44,4.57,17.49,4.3l24,7.15q17.7,6.51,34.87,14.37a6.73,6.73,0,0,1,2.89,2c1.46,2.14.06,5-1.34,7.19l-.25,8.37a15.45,15.45,0,0,1-5.95,7,32.5,32.5,0,0,1-8.5,3.81,75.05,75.05,0,0,1-19.94,3.43l-12.27-.82-8.54-3.8-24.92-18.07a98.13,98.13,0,0,1-12.34-10,48.68,48.68,0,0,1-5.86-7.11ZM348,1657a101.18,101.18,0,0,1,35.71,29.11l2.71,3.2c4.56,6.7,8.23,13.94,11.89,21.16l17.6,34.72c6.38,12.58,12.77,25.2,17.41,38.52,5,14.41,7.92,29.47,10.8,44.47l6.22,5.39L438.26,1840c-13.54,7.5-29,10.79-44.17,13.65q-22.32,4.18-44.82,7.4c-18.46,2.63-37.29,4.76-55.69,1.74L272,1864.7a239.13,239.13,0,0,0-24.2-9.52l-64.14-5.78-.71-18.45q-.88-74-1.76-147.92l7.14-7.24a334,334,0,0,1,48.6-33.74c7.2-4.11,14.64-8,22.68-10,11-2.79,22.47-2,33.75-1.29,10,.67,20.54,1.5,29,6.93Z"></path>
    <path data-name="7" data-official="Cratœva Roxburghii" data-plain="Fruit" data-loc="" d="M840.65,2357.24l.74-12.44a266.12,266.12,0,0,1-2-38.48,33,33,0,0,0-.59-8.94,31.34,31.34,0,0,0-3.17-7q-3.6-6.47-7.18-12.93L816.12,2255l-10.26-37.74c-2.44-9-5.84-19.06-14.4-22.66a15.67,15.67,0,0,0-14.91,1.7l-6.12,14.25a248.27,248.27,0,0,0,3.21,49l11.47,40Zm-96.5-129q-.9-19.25-3-38.4l-6.78-12.51c-7.57-3.44-12.81-10.69-20.18-14.56a30.6,30.6,0,0,0-19.72-2.59,46.3,46.3,0,0,0-18.31,8.28c-5.24,3.8-9.89,8.41-15.42,11.76-4.67,2.84-9.86,4.7-14.81,7-7.11,3.31-13.94,7.63-21.67,8.95l-3.73,6.68c2.48,7.47,5,15.11,9.92,21.29,3,3.76,7.26,7,12,6.77l13.55-2.39a309,309,0,0,0,41.28-12.15c6.15-2.28,12.75-4.8,19.11-3.19a26,26,0,0,1,8.47,4.36A82.36,82.36,0,0,1,738.78,2230ZM897.57,2397l-1.93-8.57a48.63,48.63,0,0,0,22.56-25.06l12.58-6.71,9.55-.9c28.23-.14,56.76-.25,84.26,6.12s54.28,19.93,71.25,42.49l23.61,25.1,2.4,13c10.84,23.86,20.12,48.68,35,70.25l-8.7,21.84c-2.26,17.88-11.41,34.32-23.11,48s-25.91,25-40,36.21-28.35,22.45-45,29.2c-15.66,6.37-32.81,8.43-49.71,8.15-15.08-.25-30.37-2.39-44-8.74-25.22-11.71-42.2-36.57-51.69-62.71-16.26-44.82-13.46-95.36,3.13-140Zm-655.49-79.65c8.31-9.56,13.3-21.48,18.14-33.18l14.26-34.42L276,2226.2c11.53-4.61,22.45-12.21,28-23.33l10.08-.94c1.69-3.93,7.5-4.42,11-2s5.34,6.59,7,10.55c2.62,6.41,5.25,12.84,7.41,19.43,2.26,6.89,4,13.93,5.9,20.93a446.46,446.46,0,0,0,45.44,108c2.56,4.36,6,9.18,11,9.54,4.56.32,8.4-3.18,11.52-6.53,17.14-18.35,31.16-39.34,45.07-60.25l72.87-40.21,9.46-7.33c2.29-1.78,4.59-3.57,6.94-5.27a137.14,137.14,0,0,1,14.46-9.17l34-31.29,11.26,5q5.38,10.43,11.42,20.5l-26.06,39.35-22.31-10.53c-11.32,3.8-21.64,12.56-29.67,21.41l5.27,31.17-19.67,19.83c-15.17,11.6-30.54,23.39-42.12,38.59s-19.1,34.46-16.26,53.35c3.26,21.67,19.09,38.93,33.36,55.56,23.57,27.47,44.7,56.92,65.8,86.32,8.37,11.66,16.79,23.41,22.81,36.43a138,138,0,0,1,10.71,36.56c2.2,14,2.32,29.52-6.2,40.82-9.73,12.93-27.49,16.29-43.62,17.61-7.78.63-15.92,1-23.07-2.17-5.55-2.44-10.05-6.78-13.94-11.43-12.45-14.88-19.62-33.32-27.77-50.93-21.15-45.74-49.87-87.49-78.44-129L358,2434.56c-28.76-41.77-58.45-84.49-100.19-113.3Z"></path>
    <path data-name="8a" data-official="" data-plain="Seed-vessel of Capparis Sinclairii" data-loc="" d="M318.72,2989.25c3-127.13-25.83-253.54-21.39-380.63.28-8,.84-16.45,5.32-23.08,5.44-8,15.38-11.57,24.75-14.08,20.6-5.5,44.69-7.78,61.3,5.58,7.83,6.3,13,15.37,16.7,24.7,7.53,18.8,10.08,39.19,11.81,59.37A817.48,817.48,0,0,1,392,2943.48c-3.93,14.54-8.3,29.27-7.82,44.32.34,11,3.28,21.75,5.87,32.45,1,4.19,2,8.73.3,12.72-1.46,3.5-4.7,5.92-7.94,7.9-13.79,8.42-31.24,12-46.38,6.35s-26.62-21.75-24-37.69Z"></path>
    <path data-name="8b" data-official="" data-plain="Cross-section" data-loc="" d="M441.62,2890.29a99.24,99.24,0,0,1-10.43-65.66c1.48-7.78,4.27-15.93,10.67-20.6,3.6-2.62,8-3.88,12.31-5a228.12,228.12,0,0,1,77.65-5.71c9.33.92,18.94,2.54,26.69,7.8,10.41,7.06,15.76,19.47,19.3,31.54,4.39,15,6.82,30.78,4.82,46.28-1.45,11.22-5.19,22-9.62,32.46-5.28,12.43-11.75,24.65-21.49,34-16.29,15.64-41.38,21.43-62.88,14.51s-38.49-26.26-42.59-48.47Z"></path>
    <path data-name="9a" data-official="" data-plain="Section of Fruit of C. Ægyptiaca" data-loc="" d="M1352.39,2892.56c-23.79-23.23-42.73-52.95-46.73-86-1.39-11.46-1-23-.3-34.57,1-16.57,2.8-34.17,13.09-47.19,12.65-16,34.61-20.85,54.9-22.85a347.87,347.87,0,0,1,69.2.07c6.13.62,12.32,1.43,18,3.67,9.85,3.84,17.59,11.58,24.77,19.33,8.1,8.74,16,18,20.87,28.84,6.13,13.71,7,29.13,7.09,44.14.08,21.16-1.52,43-10.92,61.93-6.46,13-16.29,24-24.45,36.06s-14.88,26-13.76,40.51c1,13.06,8.29,26.31,3.75,38.59-2.31,6.26-7.39,11.08-12.76,15a86.11,86.11,0,0,1-49.74,16.56c-6.93.07-14.09-.78-20.08-4.27-7.86-4.58-12.67-13.14-15.14-21.9s-3-17.93-4.39-26.92a134.67,134.67,0,0,0-15.13-44.11Z"></path>
    <path data-name="9b" data-official="" data-plain="Seed" data-loc="" d="M1574.94,2918a125.71,125.71,0,0,1,3.63-76.68c1.49-4,3.26-8,6.26-11,6.44-6.45,16.89-6.69,25.75-4.55a63.93,63.93,0,0,1,45.5,43.63c6.67,23.29-.7,48.46-12.11,69.83-3,5.59-6.32,11.11-10.93,15.46-8.5,8-20.36,11.23-31.69,14.14s-25,5.43-33.87-2.36c-5.33-4.68-7.5-12.17-7.31-19.26s2.43-13.94,4.67-20.68Z"></path>
    <path data-name="10a" data-official="" data-plain="Flower of Physostemon" data-loc="" d="M1718.76,2922.77a80.43,80.43,0,0,1-33.88-52.58c-4.07-24.07,3.15-48.77,13.93-70.68,8.37-17,19.36-33.44,35.19-43.9,22.87-15.12,52.76-15.69,79.37-9.09,6.85,1.7,13.76,3.91,19.33,8.25,11.87,9.24,15,25.65,16.48,40.62,3.47,35,2.11,72-15,102.59-5.44,9.72-12.46,18.77-15.5,29.49-3.19,11.24-2,24.1-8.71,33.64-8.47,12-25.4,13.41-40.07,13.37-11.94,0-24.33-.41-35-5.71s-19.21-16.93-17.06-28.67Z"></path>
    <path data-name="10b" data-official="" data-plain="Seed, magnified" data-loc="" d="M1892.17,2918.51c-12.31-7.46-16.9-23-18.56-37.28-.91-7.9-1.22-16,.82-23.69,4.68-17.53,21.24-30,38.84-34.44s36.15-2.2,54,1.12c11.24,2.09,23.27,5.09,30.6,13.88,4.92,5.88,7,13.59,8.35,21.14a143.74,143.74,0,0,1,.27,48.83c-2.66,15.95-8.19,31.72-18.23,44.4s-24.94,22-41.08,23.08-33.12-7.1-40.45-21.52c-3.27-6.44-4.55-13.68-6.93-20.5Z"></path>
</svg>
