
<svg xmlns="http://www.w3.org/2000/svg" viewBox="0 0 2051 2204" id="illustration" preserveAspectRatio="xMidYMid meet">
  <title>Santalaceæ</title>
    <path data-name="1" data-official="Satalum album" data-plain="Sandal-wood" data-loc="Malabar" d="M1308.81,1450.71c3.76-5.62,10.48-8.37,15.64-12.75,7.45-6.35,12.2-16.56,21.57-19.41a36,36,0,0,1,9.44-1,179.87,179.87,0,0,0,34.28-4.34,19.59,19.59,0,0,1,6-.75,6.21,6.21,0,0,1,5,3c1.15,2.21.33,4.9-.68,7.17a49.16,49.16,0,0,1-4.69,8.3c-1.8,2.58-3.85,5-5.9,7.36-12.32,14.4-24.7,28.86-39,41.37-7.6,6.66-15.74,12.79-22.44,20.36-3.09,3.49-6.34,7.56-11,8.15l-7.14-.21a107.71,107.71,0,0,1-10.71-32.34c-.35-2.16-.62-4.47.26-6.48s3-3.71,3.09-6Zm-16.91,68.22-4.41-11.53c-1.61-4.19-3.21-8.39-4.51-12.69a82.83,82.83,0,0,1-3-13.75l-2.88.23c-6.89,5.9-14.92,10.33-23.09,14.3a269.89,269.89,0,0,1-119.14,27c1.78-7.28,7.08-13.07,11.67-19,8-10.31,14.31-21.83,20.57-33.3q27.74-50.84,55.35-101.74l3.12-1.22c5.78-.16,10.89,3.47,15.52,6.93l18.43,13.8,3.58,1.21c1.64-.54,3.62-1,5,.11a5.93,5.93,0,0,1,1.31,1.94c2.9,5.65,7.82,10,11.42,15.22,1.15,1.68,2.16,3.45,3.24,5.18a82.84,82.84,0,0,0,15.39,18.16l1.37,4.61a23.14,23.14,0,0,0,6.18,5.5,8.72,8.72,0,0,0,11.24-1.31c4-3.91,5.16-9.86,5-15.42s-1.6-11-2-16.55a86.27,86.27,0,0,1,.68-16.37q1.34-11.94,3.35-23.79l2.17-6.91c2.43-15.84,2-32,1.6-48a99.9,99.9,0,0,0-1-14.27c-.63-3.77-1.7-7.46-2.34-11.23-1.19-7-.9-14.19-.75-21.31.36-16.39-.23-33.62-8.47-47.79l-10.48-15.4c-.66-7-7.07-12.26-8.14-19.18-.52-3.31.24-6.66.38-10a27.06,27.06,0,0,0-5.37-17.25l-2.26-5.91c-3.78-9.58-11.14-17.23-18.38-24.54a99.65,99.65,0,0,0-7.64-7.18c-2-1.62-4.08-3.1-6-4.82-8.21-7.47-11.85-18.92-19.88-26.58l2.06-4.36c15-7.57,16.49-29.45,29.62-40,6.9-5.53,17-7.9,20.81-15.87a14.34,14.34,0,0,0-5.1-17.75c-4.53-2.84-10.22-2.83-15.56-2.73l-27.87.52c-5.43.1-10.92.19-16.21-1-5-1.14-9.7-3.41-14.55-5.13a69.77,69.77,0,0,0-31.19-3.56l-1.64-3.49c.9-8,1.46-17.21-4-23.15-3.7-4-9.31-5.5-14.67-6.37a94.7,94.7,0,0,0-47.73,4.65c-1.29-2.78-2.61-5.81-2-8.8.86-4.09,4.93-6.54,8.62-8.48,11.25-5.93,23.35-12.54,28.63-24.11,2.87-6.28,3.37-13.35,5-20.05a5,5,0,0,1,1.73-3.17,4.93,4.93,0,0,1,3.65-.33c17,3.1,30.14,17.93,35.46,34.38,1.9,5.86,3.57,12.74,9.1,15.45,5.08,2.49,11.11.23,16.29-2.05,17.66-7.77,35.75-16.24,48.47-30.75a131.27,131.27,0,0,0,11-15.24c5.23-8.05,10.43-16.26,13.52-25.35a60.84,60.84,0,0,0-.08-39l-7.57-10.49a12.21,12.21,0,0,0-8.71-4.15,3.38,3.38,0,0,1-1.35-.2,3,3,0,0,1-1.09-1.13l-3.73-5.57a6.89,6.89,0,0,1-1.18-2.36c-.47-2.26,1.33-4.59.66-6.8l-.16-4.35c-2.12-3.32-.6-7.82,1.81-10.94s5.66-5.6,7.56-9.06,1.82-8.56-1.58-10.57c-1.12-.66-2.46-.9-3.56-1.6-4.15-2.68-2.1-9.39-4.58-13.66s-8.41-4.89-11.21-8.79a2.54,2.54,0,0,1-.57-2.29,3,3,0,0,1,1.57-1.37c7.68-4,15.52-8.1,24.07-9.57,6.61-1.13,13.37-.67,20.06-1.07a77.52,77.52,0,0,0,35.36-11c3.94-2.37,7.94-5.52,8.89-10,.84-4-1-8.07-3.2-11.49s-4.93-6.62-6.23-10.49l-1.93-7.75A57.51,57.51,0,0,0,1308.41,659a13.77,13.77,0,0,1-4.36-2.7c-1.17-1.27-1.72-3.3-.76-4.73,1.35-2,4.36-1.54,6.79-1.69,5.91-.37,10.2-5.63,13.35-10.65,2.16-3.46,4.74-7.42,8.8-7.86,3-.32,5.8,1.39,8.76,1.24,5.29-.26,8.58-6.67,7.34-11.82s-5.54-9-10-11.84a59.52,59.52,0,0,0-13.44-6.43c-4.43-1.46-9.8-3.16-10.91-7.69s3.08-8.66,7.48-9.9,9.1-.57,13.65-1.05A27.39,27.39,0,0,0,1357,567.74c1.2-2.84,2.15-6.17,4.86-7.63,2-1.11,4.52-.81,6.84-.8a26.33,26.33,0,0,0,9.62-1.73c1.89-.72,3.74-1.67,5.76-1.83,8.34-.69,12.79,11.47,21.13,12.21,4.13.36,8-2.4,10.23-5.92s3-7.72,3.66-11.81a384,384,0,0,0,5-49l-4.88-1.27a22.35,22.35,0,0,1-21.85,7.63c-8.27-1.87-14.64-8.27-20.52-14.38-1-1-2-2.21-1.88-3.61a4.92,4.92,0,0,1,1.89-2.88l9.8-9.13c1-1,2.28-2,3.71-1.93a5.11,5.11,0,0,1,2.64,1.3c4.19,3.33,7.94,7.54,13,9.2,5.43,1.77,11.38.27,16.7-1.8,2.84-1.1,5.82-2.55,7.19-5.26s.82-5.83-.43-8.49-3.17-4.93-4.77-7.39a5.61,5.61,0,0,1-1.14-3,6.13,6.13,0,0,1,1.67-3.52l4.17-5.36c1.44-1.85,2.92-3.8,3.35-6.1s-.57-5.06-2.79-5.81c-2-.68-4.21.47-6.35.38-4.13-.19-6.51-4.61-9.73-7.2-4.58-3.68-11.3-3.74-15.87-7.44a4.41,4.41,0,0,1-1.8-2.65c-.25-1.88,1.47-3.39,3-4.44,3.86-2.54,8-4.64,11.69-7.43s7-6.42,8.17-10.88l6.63-5.32c5.71-7.44,4.29-19.35-3-25.25a28.66,28.66,0,0,1-4.47-3.72c-4.55-5.53-.3-14.21-3-20.86-1.92-4.81-7.28-7.59-12.46-7.8s-10.2,1.68-14.88,3.91-9.24,4.82-14.24,6.17c0-4.59-3.66-8.58-8-10.15s-9.08-1.15-13.59-.27a71.46,71.46,0,0,0-13,3.8c-2.57,1-5.15,2.23-7.92,2.43-3.16.22-6.25-.87-9.34-1.58-12.36-2.8-25.14.63-37.64,2.67a10.32,10.32,0,0,1-3.95.11c-2.91-.67-4.68-3.55-6-6.24a88.94,88.94,0,0,1-7.72-24.38l-2.59-5.17a39.66,39.66,0,0,0-10.86-13.37,20.93,20.93,0,0,0,13.06-16.87c.41-3.72-.29-7.7-2.66-10.59-2.66-3.24-7.22-5-8.72-8.88-1.35-3.5.24-7.73-1.47-11.07-2.24-4.37-8.4-4.52-12.45-7.29-2-1.37-3.44-3.37-5.12-5.12-4.66-4.86-11-7.7-16.19-12a3.26,3.26,0,0,1-1.25-1.65c-.25-1.07.55-2.08,1.33-2.85,6.58-6.53,15.64-10.3,21.58-17.42a13.81,13.81,0,0,0,3.33-6.58c.67-4.36-1.84-8.51-4.24-12.22l-1.65-6.78a44.22,44.22,0,0,0-25.88-15.08c-4.58-.83-9.32-.93-13.74-2.38s-8.67-4.69-9.58-9.25c-.66-3.32.52-6.69,1.65-9.87,2.24-6.33,4.15-14,0-19.28-3.44-4.47-10.65-6.54-11.14-12.16-.43-5,5-8.46,6.47-13.22,1.64-5.22-1.81-10.8-6.21-14s-9.72-5-14.27-8c-10.35-6.88-15.36-19.17-21-30.26C1138,27.7,1126.74,13.12,1111,12.31c-2.8-.14-5.82.26-7.93,2.1-2.72,2.39-3.21,6.51-5.57,9.26-3.86,4.5-11,3.76-16.68,2.2s-12.24-3.42-17.23-.23c-5.43,3.48-6.1,11.09-5.55,17.51s1.61,13.48-2,18.81c-2.85,4.17-7.86,6.15-12.31,8.53a57.41,57.41,0,0,0-21.27,19.67c-4.26,6.69-7.58,14.71-14.63,18.34-7.7,4-17.28,1.29-25.53,4-4.6,1.5-8.49,4.57-12.27,7.59l-11.26,9c-6.2,4.94-12.94,10.91-13.17,18.83-.06,2,.3,4-.46,5.88s-2.55,3.12-4.27,4.19c-5.79,3.62-12.14,6.81-16.2,12.29s-4.76,14.26.6,18.48c1.74,1.37,3.91,2.11,5.66,3.47,6.68,5.18,4.22,15.64,1.14,23.5-.73,1.86-1.57,3.87-3.32,4.85s-4.08.64-6.09.07c-5.62-1.6-10.84-4.39-16.47-5.93S894,213,889.29,216.4l-5.75,5.9c-7.12,10.81-19.42,18.42-23.13,30.81a26,26,0,0,0,9.2,27.66c4.21,3.12,9.28,4.86,13.69,7.7s8.35,7.39,8.12,12.62c-.21,4.72-3.68,8.56-5.7,12.83-6.21,13.06,1.16,29.95-6.18,42.41-1.47,2.49-3.95,4.86-6.82,4.54a7.11,7.11,0,0,1-4.84-3.47c-4.72-7.14-2.18-16.78-4.57-25a21.65,21.65,0,0,0-16.63-14.91c-8.06-1.42-16.84,1.82-24.33-1.49-5.92-2.6-9.55-8.81-11-15.11s-1.07-12.85-1.22-19.31a120.21,120.21,0,0,0-8.21-41c-3.47-8.85-8-17.4-9.63-26.77-1.9-11.14.53-22.5,2.08-33.71.84-6.08.51-13.88-5.14-16.29-3.06-1.31-6.56-.41-9.7.67-32.56,11.19-57.25,40.3-67.47,73.18-1.48,4.74-2.72,9.66-5.44,13.82s-7.33,7.49-12.28,7.14c-8.54-.61-13-10.94-21-14-3.12-1.2-6.61-1.21-9.7-2.51-7-2.94-10.59-11.83-18-13.45-3.19-.69-6.49.14-9.75.31s-7-.62-8.66-3.44l-7.35-5.86c-9.81-2.81-20.65-3.62-30,.47s-16.61,14-15.22,24.11c.71,5.17,3.41,10.84.56,15.21-1.45,2.2-4,3.39-6.29,4.65-8.19,4.47-15.3,11.56-18.05,20.47s-.36,19.66,7.06,25.32c3,2.29,6.92,4,8.2,7.56,1.41,3.94-1.12,8.1-3.58,11.48-7,9.65-14.68,19.5-16.74,31.25s3.88,25.92,15.56,28.35c2.09.44,4.42.56,6,2,2.52,2.31,1.63,6.36,1,9.72-3.1,16.49,6.5,34.5,21.92,41.11,6.29,2.69,13.17,3.6,19.76,5.46a70.37,70.37,0,0,1,20.58,9.62,9,9,0,0,1,3.57,3.71c1.74,4.25-2.9,8.21-6.88,10.5q-30.18,17.34-59.8,35.62c-5.23,3.23-10.53,6.55-14.5,11.24-11.93,14.11-8.08,36.07,1.6,51.81l-.59,7.24c-8.32,7-12.43,17.7-16.22,27.91-12.55,33.81-25.29,68.88-22.89,104.85.14,2.09.46,4.42,2.11,5.69,2.77,2.14,6.64-.25,9.35-2.46a136.1,136.1,0,0,1,56.11-27.27c7.58-1.69,15.29-2.74,22.84-4.56,14.42-3.49,28-9.77,41.41-16.12,11.5-5.43,23.74-11.67,29.58-23,1.15-2.23,2-4.65,3.71-6.52s4.43-3.09,6.72-2.07c3.22,1.43,3.41,6,2.42,9.35-2.42,8.29-8.81,15.92-7.46,24.45.37,2.32,1.3,4.78.32,6.91-1.09,2.38-4,3.18-6.47,4a35.53,35.53,0,0,0-9.37,4.71,19.52,19.52,0,0,0-5.61,5.66c-4.41,7.27-1.2,16.58,2.09,24.42l9.3,8.86a88.12,88.12,0,0,1,38.22,24c-11.86,8.2-27.37,8.59-41.73,7.27s-29-4-43.05-.94c-8,1.75-15.55,5.33-22.77,9.25-48,26.07-85.38,67.86-119.41,110.59-3.21,4-6.55,8.46-6.73,13.6a8.93,8.93,0,0,0,.81,4.24c1.87,3.8,6.86,5.1,11,4.32s7.85-3.12,11.72-4.86a44.34,44.34,0,0,1,35.4-.27c9.7,4.2,17.58,11.77,27,16.54,17.12,8.67,37.33,7.31,56.51,6.74,3.44-.1,7.51.15,9.33,3.06a9.85,9.85,0,0,1,1,5.16c.35,21.52-1,45.62,13.41,61.59,7.86,8.7,19.16,13.31,30.05,17.65l-1.78,6.76c-9.85,10-19.69,20.3-25.85,32.88a132.39,132.39,0,0,0-7.14,19.39q-8.91,28.84-17,58c-2.05,7.38-4.06,14.78-6.56,22-3.57,10.32-8.14,20.33-10.74,30.93-2.68,10.93-3.21,22.27-5.44,33.3s-6.48,22.19-15,29.57l2.18,4.87c1.81,5.66-.49,12-4.37,16.47S572,1261,566.87,1264l-8.44,4.8-.85,3.36c.09,2.21,3,3,5.18,3.09a113.14,113.14,0,0,0,68.85-20c7.42-5.17,14.21-11.23,21.76-16.22,5.86-3.88,12.14-7.08,18-10.91a102.15,102.15,0,0,0,31.84-32.91l7.65-3.8c11.74-3.48,22.09-10.66,31.11-18.94a72.07,72.07,0,0,0,11.48-13c8.85-13.38,10.64-30.44,19.31-43.93,7.17-11.16,18.41-19,29.36-26.44,22.33,30,54.08,52.86,72.37,85.51a65.38,65.38,0,0,0-34.84,12.34c-15.4,11.22-25.07,28.52-38.18,42.35-15.06,15.89-34.63,27.14-49,43.7a97.15,97.15,0,0,0-23.42,59.94l-1.25,8q-.86,21.33-1.14,42.67c-.13,10.06-.13,20.33,3.07,29.87,2.67,8,7.47,15.08,10.62,22.89,7,17.2,5.5,36.5,8.51,54.8,2.42,14.77,7.75,28.88,13.14,42.83q7.42,19.23,15.07,38.37c1.27,3.17,2.61,6.43,5.07,8.8s6.35,3.6,9.36,2c2.34-1.26,3.57-3.86,4.64-6.29a416.23,416.23,0,0,0,23.38-70.11c3.27-13.77,6.11-28.32,15.06-39.29,16.92-20.76,50.26-22.35,66.39-43.73,3.92-5.18,6.64-11.36,11.57-15.6s11.47-6,17.63-8.13a125.67,125.67,0,0,0,33.06-17.29l1.34,6.52c2.28,16.92,9.18,32.84,16.42,48.3a954.21,954.21,0,0,0,60,109l-3.78,7.54c-25.76,42-55.27,81.63-84.73,121.16-10.62,14.24-21.25,28.5-32.91,41.89-12.47,14.31-26.23,27.78-35.58,44.29l-7.42,6a247.24,247.24,0,0,0-60.49,114.75c-2.14,9.68-3.7,19.75-1.83,29.49,3.54,18.36,18.36,32.16,27.14,48.67,2.56,4.8,4.79,10.09,9.17,13.32s11.82,3.06,14.17-1.85c1.62-3.39.48-8.11,3.35-10.54,1.75-1.48,4.28-1.42,6.57-1.52,19.57-.91,34.89-23.36,28.6-41.92-2.34-6.9-7.06-13-8-20.26-1-7.51,2.22-14.88,5.54-21.7,47.56-97.51,130.14-173.39,186.66-266,4.3-7,8.58-14.34,15-19.48,10.65-8.48,25.17-9.62,38.72-11A430,430,0,0,0,1284.56,1538Z"></path>
    <path data-name="1a" data-official="" data-plain="Flower" data-loc="" d="M179.76,2143.85a143.1,143.1,0,0,0,4.15-19.87,8.57,8.57,0,0,0,0-3.31,6,6,0,0,0-3.43-3.68c-6.26-2.95-15.3.93-19.71-4.4a10.87,10.87,0,0,1-2-5.08,26.91,26.91,0,0,1,2-15.9c2.19-4.77,5.81-9,6.65-14.17s-1.31-10.41-4.11-14.85-6.31-8.45-8.68-13.14a31.52,31.52,0,0,1-3.24-17.39,9.51,9.51,0,0,1,1.74-5.18,9,9,0,0,1,3.94-2.49c8.87-3.23,18.66-.41,27.72,2.21,13.06,3.77,28,6.9,39.54-.25,4.3-2.65,7.72-6.52,11.92-9.32s9.82-4.42,14.25-2c4.77,2.6,6.25,8.66,6.92,14a132.71,132.71,0,0,1,.76,24.08,17.93,17.93,0,0,0,.36,6.54c1,3.1,3.66,5.3,6.16,7.39a200.17,200.17,0,0,1,24,23.91c1.48,1.74,3,3.86,2.54,6.09a6.62,6.62,0,0,1-2.66,3.55c-6.1,4.82-14.31,6.34-22.06,5.7s-15.18-3.24-22.47-5.95a4.77,4.77,0,0,0-2.71-.45,4.83,4.83,0,0,0-2.56,2.27c-6.09,8.9-12.47,19.59-9,29.81,3,8.92,13.06,15.54,12.11,24.9-.52,5.14-4.51,9.39-9.15,11.66s-9.87,2.91-15,3.51c-14,1.62-28.21,3.2-42,.49a5.21,5.21,0,0,1-3-1.32,5.11,5.11,0,0,1-.84-3.79,38.18,38.18,0,0,1,4.95-16.45Z"></path>
    <path data-name="1b" data-official="" data-plain="Opened" data-loc="" d="M343.46,2160.06a63.4,63.4,0,0,0,11.8-45.83c-.87-6.32-2.88-12.82-7.5-17.22-6.62-6.31-17.83-7.72-21.85-15.93-2.23-4.54-1.6-10.2-4.32-14.46-3.48-5.44-11.15-6.75-15.09-11.86-2.35-3.05-3-7-4.38-10.64-5.58-14.95-22.94-24.58-24.36-40.48-.36-4,.66-8.47,4-10.7a11,11,0,0,1,6-1.6c9-.19,16.92,5.52,25.6,7.84a7.27,7.27,0,0,0,4.25.17c2-.72,3.12-2.93,3.39-5,1.18-9-8.76-17.92-4.73-26,1.8-3.65,6.1-5.58,10.17-5.52s7.93,1.81,11.4,3.93c6.11,3.74,11.4,8.73,17.65,12.25s14,5.44,20.55,2.47c3.82-1.73,6.74-4.92,9.81-7.77a72.38,72.38,0,0,1,23.7-14.66c4.92-1.85,10.89-3,15.08.16,4.61,3.49,4.67,10.38,3.44,16s-3.29,11.57-1.43,17a73.16,73.16,0,0,1,28.84-10.93c7.57-1.14,17.27.19,19.75,7.44,1.75,5.09-1.09,10.5-3.84,15.13l-17.58,29.66c-4,6.7-8,13.45-10.59,20.78-2.34,6.53-3.56,13.45-6.24,19.86s-7.23,12.5-13.79,14.76c-2.56.88-5.3,1.14-7.86,2-9.34,3.21-13.91,13.5-17.42,22.73-1.11,2.89-2.22,6-1.45,9,.86,3.32,3.79,5.6,5.93,8.29,3.63,4.56,5,10.5,5.64,16.3.54,5.09.5,10.47-1.8,15.05-3.54,7.07-11.56,10.65-19.21,12.64a89.5,89.5,0,0,1-28.32,2.67c-6-.4-12.86-2.12-15.17-7.63Z"></path>
    <path data-name="1c" data-official="" data-plain="Stamen Scale and Plume" data-loc="" d="M494,2119.07c-10.53-31-15-64.2-11.27-96.71.8-7,2.09-14.22,6.32-19.83s12.24-8.94,18.52-5.8c1.57.79,3,1.92,4.52,2.73,5.36,2.77,12,1.3,17.73,3,5.3,1.6,9.49,5.83,12.19,10.66s4.06,10.27,5.3,15.66c1,4.46,2.06,9.11,5,12.65,3.41,4.17,8.78,6.08,13.22,9.12,8,5.48,13,14.75,14.8,24.31s.84,19.45-1,29c-.86,4.36-2.21,9.13-6,11.47-2.39,1.49-5.32,1.7-8.09,2.19a37.15,37.15,0,0,0-15.07,6.35,14.56,14.56,0,0,0-4.31,4.36,13.26,13.26,0,0,0-1.43,4.35c-1.08,6.29.4,12.69,1.13,19s.57,13.27-3.23,18.4c-4.6,6.21-13.08,7.93-20.79,8.56a144.42,144.42,0,0,1-21.11.19,12.19,12.19,0,0,1-6-1.47c-3.3-2.14-3.87-6.66-4.12-10.59a47.51,47.51,0,0,1,.26-11.8c1-5.15,3.65-9.8,5.5-14.71s2.83-10.58.48-15.27Z"></path>
    <path data-name="1d" data-official="" data-plain="Stamen and Plume" data-loc="" d="M615.13,2115.07c-4.25-5-6.85-11.11-9.36-17.14-9.56-23-19-47.23-16.62-72,.48-5,1.66-10.42,5.44-13.79,4.48-4,11.28-4,17.14-2.63s11.6,3.71,17.61,3.64c5.55-.07,11.12-2.25,16.55-1.08,6.27,1.35,10.77,6.84,13.93,12.42a67.82,67.82,0,0,1,8.48,26.89c.64,6.79,0,14.27-4.56,19.31-1.38,1.53-3.08,2.77-4.25,4.46a14.68,14.68,0,0,0-2.14,7c-.88,9,1.4,18.56-2.32,26.79-1.25,2.76-3.13,5.22-4.23,8-5.49,14,9.41,29.42,5.1,43.78-1.81,6-6.83,10.65-12.54,13.23s-12.07,3.34-18.33,3.6a127.76,127.76,0,0,1-14.11-.19c-5.47-.38-11.69-1.58-14.51-6.29-3.13-5.22-.49-11.86,2.18-17.33,3.58-7.36,7.28-14.87,13.13-20.59,2-1.95,4.24-3.7,5.79-6s2.27-5.47.9-7.91Z"></path>
    <path data-name="1e" data-official="" data-plain="Ovary and Pistil" data-loc="" d="M696,2112.28c-8.58-15.58-14.91-33.64-11.06-51,1.45-6.52,4.27-12.64,7-18.72,6.31-13.77,12.55-27.73,15.61-42.56s2.73-30.8-3.77-44.48c-2-4.31-4.68-8.34-6.32-12.82s-2.22-9.64-.09-13.91a18.18,18.18,0,0,1,7.35-7.19c5.14-3,11.5-4.71,17.1-2.67,5,1.82,8.6,6.34,10.73,11.21,4.05,9.29,3.49,19.84,2.86,29.94q-1.85,29.51-3.68,59c-.44,7.05-.88,14.2.62,21.1,2,9.06,7.14,17.13,9.63,26.07,2.21,7.91,2.18,16.66-1.35,24.08-2.14,4.5-5.47,8.38-7.37,13a34.46,34.46,0,0,0-2.24,12,69.14,69.14,0,0,0,1.92,19c2.34,9.61,6.71,19.73,3.13,28.95-2.18,5.6-7.1,9.82-12.6,12.24s-11.58,3.21-17.58,3.54c-8.69.48-18.9-.76-23.43-8.2-4.95-8.13-.19-18.61,5.35-26.35S700.16,2128.42,699,2119Z"></path>
    <path data-name="1f" data-official="" data-plain="Fruit" data-loc="" d="M782,2116.44l-11.27-38.54a146.09,146.09,0,0,1-4.1-16.3,107.24,107.24,0,0,1-1.32-16.89,67.56,67.56,0,0,1,1.52-16.92,81.14,81.14,0,0,1,5.45-14.11l6.84-14.89c1.55-3.36,3.21-6.87,6.2-9.06s7.11-2.75,10.93-3.09c6.24-.54,12.59-.88,18.68.53s12,4.79,15.15,10.19c2.51,4.29,3.09,9.41,4.62,14.14,3.33,10.27,11.16,18.79,13.52,29.33,2.28,10.21-.92,20.87-5.45,30.29-2.72,5.67-6,11.17-10.6,15.45-1.82,1.69-3.87,3.21-5.17,5.33a19.29,19.29,0,0,0-2.13,6.85l-2.14,11.9a26.21,26.21,0,0,0-.62,7.37c.58,5.52,4.51,10,7.12,14.92,6.84,12.9,3.32,30.81-8.69,39.12-7.09,4.9-16,6.24-24.6,6.89q-6.46.48-12.94.54c-5.12.05-10.83-.36-14.3-4.12-2.61-2.82-3.31-7-2.75-10.79s2.24-7.33,3.9-10.8l12.84-26.88Z"></path>
    <path data-name="2" data-official="Thesium linophyllum" data-plain="Flax-leaved Thesium" data-loc="Chalk soil, England" d="M575.7,1282.66c7.88,5.12,16.48,11.3,17.95,20.57.23,1.45.32,3,1.3,4.13,1.62,1.81,4.54,1.18,6.89,1.79,3.66.94,5.65,4.76,7.42,8.1s4.44,7,8.22,6.94c5.14,0,7.36-6.28,10-10.68a21,21,0,0,1,18.82-9.83,3.33,3.33,0,0,0,2.4-.4c.79-.65.74-1.84.63-2.86l-1.84-16.12c-.5-4.48-1-9.17.7-13.35s6.31-7.55,10.62-6.21c4.79,1.5,7.62,8,12.61,7.51a10,10,0,0,0,3.37-1.21c2.93-1.48,6.16-3.33,6.95-6.51a19.18,19.18,0,0,0,.08-4.85c-.09-9.9,9.71-17,12.78-26.37,1.56-4.75,1.5-10.32,4.9-14s8.8-4,13.44-2.77,8.76,3.92,13.12,6,8.95,3.46,12.85,6.19,7.06,7.21,6.53,11.94c-.63,5.61-6.06,9.66-7.1,15.2-.79,4.2,1.07,8.45,1,12.71-.34,12.08-15.79,19.85-15.55,31.93.08,4.21,2.16,8.17,2.39,12.37a22.94,22.94,0,0,1-1.92,9.41c-4,10.2-11.92,19.67-22.63,22l-7.76,2.67a12,12,0,0,0,2.47,23.53c2.34.19,4.72-.31,7,.12,4,.73,7,4.15,8.25,8s.79,8-.21,11.9-2.55,7.73-2.27,11.72c.4,5.66,4.48,10.78,3.92,16.43-.51,5.2-4.94,9.26-9.73,11.37s-10.07,2.76-15.07,4.32a6.13,6.13,0,0,0-3.12,1.77c-1.52,1.92-.49,4.71-.72,7.15-.36,3.7-3.66,6.39-6.94,8.13s-7,3.09-9.35,5.93c-4.48,5.35-2.59,13.4-.05,19.89s5.51,13.82,2.56,20.14c-1.66,3.54-4.91,6-8,8.37l-12.87,9.63c-1.6,1.2-3.3,2.53-3.86,4.46-.75,2.6.88,5.3,2.85,7.16s4.37,3.29,5.91,5.52c2.83,4.1,1.84,10-1.4,13.84S645,1552,640,1552.59c-2.62.33-5.35.36-7.76,1.44a16.6,16.6,0,0,0-4.63,3.42,63.73,63.73,0,0,0-12.81,17.49c-.76,1.52-1.43,3.41-.48,4.81s2.91,1.47,4.58,1.67a16.79,16.79,0,0,1,14.29,14.41l-1.38,6.81c-13.68,24.8-38.76,40.76-62.56,56.12-4.61,3-9.43,6.22-11.82,11.16-2.65,5.48-1.79,11.91-2.21,18-1.57,22.63-21.11,39.83-41.16,50.46s-42.48,17.74-59.14,33.15c-7.1,6.57-13.17,15.16-13.52,24.83-.18,4.91,1.11,10-.22,14.68-1.95,6.91-9.26,13.44-6,19.83,1,2,3,3.43,4.87,4.71,6.61,4.47,13.52,8.64,19.12,14.33s9.84,13.25,9.57,21.22-6.12,16-14.06,16.87c-9.07,1-16.4-6.68-24.16-11.48-3.25-2-7.93-3.41-10.56-.62a7.8,7.8,0,0,0-1.74,4.54c-.81,6.93,1.56,13.77,3.71,20.4s4.14,13.69,2.58,20.49-7.95,13-14.82,11.83c-5-.82-10.1-5.08-14.36-2.42-2.07,1.29-3,3.79-4,6-3.68,7.6-11.56,13.29-20,13.28s-16.74-6.44-17.85-14.81c-1.33-10.07,6.91-18.93,8.34-29,.61-4.35-.08-8.76-.76-13.1l-7.36-46.54-.26-4.64a20.3,20.3,0,0,0-7.14-13.24,3.34,3.34,0,0,0-1.61-.86c-1.38-.18-2.41,1.18-3.29,2.26a13.93,13.93,0,0,1-17.28,3.06,9.22,9.22,0,0,1-3.85-4,14,14,0,0,1-.84-5.77c0-7.55-.05-15.19,1.78-22.51a45.76,45.76,0,0,1,12.36-21.54c2.54-2.48,5.51-4.89,6.39-8.34.66-2.58,0-5.29-.43-7.92a46,46,0,0,1,2.2-23.21c1.75-4.78,4.33-9.93,2.52-14.68-.92-2.44-2.88-4.31-4.8-6.07a285.09,285.09,0,0,0-27.7-22.4l-5.18-3.45c-35.52-22.09-60.53-60.36-66.51-101.76-.79-5.5-.78-12.18,3.8-15.32,3.12-2.14,7.4-1.84,10.65-3.78,7.08-4.23,4.77-14.95,1.36-22.46-9.3-20.54-20.82-41.13-39.37-53.94-7.86-5.44-16.77-9.29-24.39-15.06-13.55-10.26-22-25.7-30.08-40.66-8.28-15.33-16.76-31.47-16.86-48.89,0-6.45,1.1-12.94.15-19.31-1.43-9.65-7.5-18.35-7.75-28.1l-2.07-6.23c-.23-6.26-1-13.49-6.18-17s-12.43-1.28-18.67-2.51c-7.2-1.41-12.75-7.49-15.6-14.24s-3.47-14.21-4.2-21.5c-.43-4.21-1.22-9-4.76-11.31-3-2-7-1.45-10.65-1.21a50.52,50.52,0,0,1-33.12-9.82c-7.38-5.5-13.53-14.45-11.47-23.42,2.88-12.61,19.56-17.57,24-29.73,5.2-14.31-8.84-32-.11-44.52,3.52-5,9.86-7.33,16-8s12.28,0,18.38-.57a13.17,13.17,0,0,0,6.8-2.11,12.87,12.87,0,0,0,3.37-4.38c12.31-23.39-1.43-55.24,13.62-77,3.57-5.15,8.7-11.91,4.64-16.69-1.23-1.44-3.06-2.21-4.72-3.12-7.67-4.23-12.51-12.49-14.37-21.05s-1.07-17.46.25-26.12c1.92-12.58,5.34-25.71,14.45-34.59s25.47-11.35,34.2-2.09l11.24-3.32c5.72-2.76,7.92-9.56,10.64-15.3,10-21.18,35.24-34,58.26-29.58,4.91.93,10.59,2.38,14.42-.83,1.64-1.39,2.59-3.41,3.61-5.3,9.13-16.88,29-27.25,48.1-25.07,9.48,1.08,19.58,4.85,28.12.59,4.87-2.44,8.2-7.09,12.57-10.34,7.92-5.89,18.82-6.65,28.32-3.95S380.39,882.2,388,888.5c3.8,3.15,7.61,6.53,12.29,8.11s10.55.85,13.49-3.12c1-1.41,1.68-3.16,3-4.27,3.12-2.57,7.77-.43,11,1.94,20.45,14.85,36,37.83,60.26,45,4.79,1.41,9.86,2.17,14.15,4.7,7.62,4.49,13.56,14.51,22.22,12.73,2.9-.6,5.42-2.56,8.36-3,7.77-1.08,12.55,8.66,12.41,16.51s-2.41,16.37,1.64,23.09c2.52,4.18,7.15,6.86,9.35,11.22,3,5.92.72,13,.5,19.61-.39,11.54,7.62,23.84,19.11,25l2.35,9,11.19,11.13c4,3.95,8.24,8.54,8.24,14.15,0,5-3.5,9.4-7.49,12.47-1.45,1.12-3,2.18-3.93,3.78a8.53,8.53,0,0,0-.78,4.89c.79,9.1,8.75,16.79,8.12,25.91-.26,3.81-2,7.34-2.95,11.05s-.82,8.14,2,10.73c2.11,2,5.37,2.48,7.14,4.75s1.41,5.82.51,8.72a38,38,0,0,1-9.31,15.45c-2.71,2.71-6,5.39-6.47,9.2-.24,2.11.48,4.19,1.06,6.23,1.29,4.54,1.91,9.41.67,14s-4.61,8.72-9.17,9.93c-.9.24-1.94.45-2.37,1.28-.53,1,.28,2.2,1,3.06l5.15,5.85,2.54,4.58,2.18,4.87c1.81,5.66-.49,12-4.37,16.47S572,1261,566.87,1264l-8.44,4.8-.85,3.36c.09,2.21,3,3,5.18,3.09Z"></path>
    <path data-name="2a" data-official="" data-plain="Bud" data-loc="" d="M1117.38,2121.59c2.72-4.3,1.53-10-.61-14.61s-5.17-8.93-6.07-13.93c-1-5.86,1-11.83.83-17.77-.2-7.75-4-14.87-7.63-21.73q-10.71-20.43-19.57-41.76c-2.09-5-4.14-10.44-3.12-15.79.72-3.75,3.51-7.49,7.33-7.72,2.81-.17,6.15,1.42,8.16-.55.92-.9,1.16-2.27,1.65-3.46,1.7-4.22,6.68-6.4,11.21-6s8.65,2.75,12.29,5.47c4.85,3.63,10.47,8.23,16.21,6.3,2.43-.81,4.31-2.69,6.27-4.35,4.47-3.77,11.36-6.5,15.9-2.81,3.18,2.59,3.92,7.47,7.32,9.77,5.59,3.76,15-1.52,19.15,3.78,1.25,1.59,1.54,3.72,1.69,5.74a45.85,45.85,0,0,1-2.11,19,73.18,73.18,0,0,1-6.24,12.13c-8.94,15.07-17.56,31.16-18.34,48.65-.32,7.3.72,14.79-1.34,21.8-1.7,5.74-5.47,11.26-4.49,17.17,1,6.11,6.64,10.15,11.06,14.48,4.11,4,7.55,9.06,8.36,14.76s-1.55,12.08-6.62,14.81a23.12,23.12,0,0,1-7.93,2.06l-22.23,3c-8.65,1.18-18,2.22-25.58-2.18a19.71,19.71,0,0,1-4.23-30.71c3.78-3.91,9.38-6.58,10.94-11.79Z"></path>
    <path data-name="2b" data-official="" data-plain="Flower" data-loc="" d="M1243.36,2131.42c-.14-5.7,1-11.4.56-17.09s-3-11.74-8.21-14.07c-5-2.26-10.81-.46-16.27.24a39,39,0,0,1-10.29,0,8.85,8.85,0,0,1-4.51-1.61c-1.86-1.55-2.31-4.22-2.25-6.65.39-14.08,13.41-24.75,16.47-38.5,2.11-9.47-.75-19.34-4.67-28.21-2.1-4.75-4.56-9.86-3.33-14.89,1.86-7.58,11.48-10.84,19.05-8.93s13.64,7.32,19.91,11.95c4.47,3.3,9.87,6.41,15.28,5.14,3.14-.74,5.75-2.86,8.26-4.9,9.33-7.56,19.68-15,31.64-16.08a13.4,13.4,0,0,1,5.64.46c5.7,2,7.45,9.13,7.69,15.16a84.72,84.72,0,0,1-2.64,24.67,11.16,11.16,0,0,0-.56,5.07c.56,2.66,3,4.44,5.31,5.88,5.18,3.26,10.53,6.22,15.68,9.5,3.08,2,6.16,4.11,8.18,7.15s2.74,7.2.91,10.35c-1.42,2.45-4.08,3.88-6.68,5a57.38,57.38,0,0,1-15.75,4.22c-2.21.26-4.51.42-6.43,1.53-2.38,1.38-3.75,4-4.77,6.56-9.19,23.23,1.07,51.11-9.51,73.74a12.43,12.43,0,0,1-3.11,4.47,13.72,13.72,0,0,1-6.08,2.36,118,118,0,0,1-37.36,1.47c-4.41-.53-9-1.44-12.32-4.44-3.92-3.6-5-9.43-4.63-14.75s1.73-10.55,1.74-15.88Z"></path>
    <path data-name="2c" data-official="" data-plain="Flower opened" data-loc="" d="M1400.91,2121.45c2.12-5.73.94-12.24-1.66-17.76s-6.5-10.32-10.13-15.23c-29.92-40.63-41.37-94.35-30.6-143.65.67-3.09,1.53-6.35,3.8-8.55,3.86-3.74,10.31-3,15-.45s8.51,6.58,13.19,9.21,11,3.59,15.08,0c2.4-2.11,3.43-5.32,4.69-8.26,2.75-6.35,8.07-12.56,15-12.66,4.83-.07,9.25,2.95,12.27,6.72s4.93,8.28,7.13,12.58a96.29,96.29,0,0,0,12.06,18.18c1.33,1.58,2.9,3.22,5,3.44,3.38.36,5.72-3.14,7.64-6a38.3,38.3,0,0,1,20.93-15c1.74-.5,3.67-.85,5.32-.11,3,1.35,3.46,5.31,3.5,8.58l.32,22.45c0,3.19.12,6.51,1.57,9.35.78,1.53,1.94,2.87,2.5,4.5.78,2.26.29,4.73-.24,7.05a175.79,175.79,0,0,1-18.44,47.15c-4.32,7.58-9.2,14.84-13.36,22.51a276.06,276.06,0,0,0-11.59,25.36l-11.7,28.08a10.41,10.41,0,0,0-.94,3.2c-.25,3.82,3.49,6.47,6.19,9.18,8.69,8.75,7.1,25.36-3.11,32.3-4.47,3-9.91,4.24-15.21,5.38l-27,5.8c-3,.65-6.22,1.27-9,0-5.43-2.41-5.87-9.89-4.94-15.76a101,101,0,0,1,9.12-28.75Z"></path>
    <path data-name="2d" data-official="" data-plain="Section of Ovary" data-loc="" d="M1517.17,2133.38c3.38-5,6.92-10.93,5.32-16.79-.83-3-3-5.57-4-8.56-1.86-5.41.17-11.42-.79-17.06s-4.85-10.41-7.78-15.41c-9.92-16.9-8.68-39.69,3-55.42,1.87-2.51,4-4.89,5.13-7.81,3.7-9.54-4.53-19.86-3.46-30,.41-4,3.24-8.32,7.21-8,3.1.25,5.48,3.26,8.58,3.43,6,.35,9.69-9.77,15.41-7.83,2.73.92,3.84,4.23,6.19,5.91,6.34,4.54,15.16-5.26,22.38-2.31,4.72,1.92,5.81,8.06,5.66,13.15a73.11,73.11,0,0,1-3.42,20.06c-.75,2.36-1.63,4.85-1,7.24a13.22,13.22,0,0,0,2.3,4.06,59.94,59.94,0,0,1,5.26,59.39c-2.85,6-6.74,11.55-8.77,17.88-1,3.14-1.55,6.43-2.83,9.47-2.21,5.27-6.7,10.32-5.41,15.89,1.21,5.24,6.84,7.89,11.4,10.73,4,2.5,7.68,5.77,9.82,10s2.56,9.47.29,13.62-6.73,6.55-11,8.47a125.75,125.75,0,0,1-62.77,10.3,7,7,0,0,1-3.78-1.15,6.37,6.37,0,0,1-1.82-3.31,30.27,30.27,0,0,1,3.74-24.61Z"></path>
    <path data-name="2e" data-official="" data-plain="Section of Fruit" data-loc="" d="M1630.88,2130c2.42-3.71,1.75-8.59.69-12.89a93.21,93.21,0,0,0-14.59-31.7c-2.74-3.83-5.8-7.53-7.55-11.9-2.23-5.63-2.09-11.89-1.9-17.95.21-7.14.55-14.7,4.48-20.67,2.5-3.81,6.32-6.71,8.3-10.81,3.8-7.87-.21-17.76,3.29-25.77,1.19-2.73,4.05-5.33,6.85-4.32,1.39.5,2.34,1.76,3.53,2.63s3.07,1.26,4,.12c.64-.79.51-1.92.55-2.94.2-5.21,5.94-9,11.11-8.34s9.34,4.9,11.38,9.7c2.63-2,5.56-4.18,8.89-4,3.1.11,5.85,2.27,7.44,4.94A23.94,23.94,0,0,1,1680,2005c1.2,8,1.52,16.25,4.25,23.87,3.26,9.1,9.84,17,11.17,26.63,1.7,12.2-5.48,23.71-12.57,33.79s-14.73,21.07-14.13,33.38a14.63,14.63,0,0,0,1.33,5.85c3.46,6.93,13.27,7.69,18.64,13.26,5.08,5.28,5,14.2,1,20.36s-11,9.85-18.08,11.56-14.54,1.69-21.87,2c-8.69.39-18.64.82-24.67-5.46-3.89-4-5.09-10.1-4.46-15.68s2.87-10.84,5.09-16Z"></path>
    <path data-name="3" data-official="Leptomeria Billardieri" data-plain="" data-loc="Tasmania" d="M1300.81,1434.39l-1.37-4.61a82.84,82.84,0,0,1-15.39-18.16c-1.08-1.73-2.09-3.5-3.24-5.18-3.6-5.23-8.52-9.57-11.42-15.22a5.93,5.93,0,0,0-1.31-1.94c-1.34-1.11-3.32-.65-5-.11l-1.21,5.25a263.87,263.87,0,0,0,11.7,82.13l3.5,4.64,2.88-.23a82.83,82.83,0,0,0,3,13.75c1.3,4.3,2.9,8.5,4.51,12.69l4.41,11.53-7.34,19.1,4.46,5.31c10.3,29.22,31.35,53.19,51.92,76.36,8.07,9.09,16.4,18.39,27.18,24a4.16,4.16,0,0,1,2.11,1.79,4,4,0,0,1-.09,2.52l-2,7.78-3.84,7.61c-1.37,20.91-12.81,39.56-21.5,58.62-6.11,13.42-11,27.38-15.78,41.31l-46.6,134.4c-3.26,9.4-7.54,19.89-16.85,23.39-4.24,1.59-8.89,1.43-13.41,1.75-10.11.72-20.32,4.18-27.61,11.22s-11.14,18-8.18,27.73,13.54,16.93,23.42,14.68c2.11-.49,4.19-1.35,6.34-1.2,4.35.3,7.26,4.45,11,6.76,6.87,4.28,15.76,1.9,23.45-.6l38-12.37c5.08-1.65,10.35-3.41,14.21-7.1,4.65-4.43,6.55-10.94,8.27-17.13l34.33-123.71c2.72-9.8,5.56-19.87,11.72-28,4.77-6.27,11.24-11,17.71-15.48,47.54-33,101.94-60.55,133.09-109.31l5-1.27c18.69-6.25,37.24-13.53,53.63-24.48,4.26-2.84,8.41-6,13.13-8,8.66-3.7,18.43-3.39,27.84-3.11s19.22.42,27.75-3.58,15.3-13.41,13.09-22.56c-1.18-4.85-4.65-9-5.29-14-.87-6.73,3.6-12.81,7.18-18.58a85,85,0,0,0,11.79-32c1-6.37,1.13-13.16-1.71-18.95s-9.42-10.12-15.67-8.55c-9.25,2.31-12.31,15-21.19,18.46-5.19,2-11,.35-16.58.51a25.28,25.28,0,0,0-19.68,10.61c-7.28,10.42-6.66,26.26-17.18,33.4a4.29,4.29,0,0,1-3.29,1,4.21,4.21,0,0,1-2.45-2.44c-3.12-6.32-1.28-13.86.62-20.65l8.93-31.94c.74-2.63,1.51-5.34,3.22-7.47,3.09-3.88,8.41-5,13-6.87,14.78-6.23,23.08-24.73,17.9-39.92-2.5-7.34-7.73-14.29-6.68-22a6.38,6.38,0,0,1,2.31-4.49,8,8,0,0,1,4.07-1,281,281,0,0,1,87.78,7.64c8.56,2.14,18.39,4.47,25.57-.66,6.9-4.92,8.11-15.32,4.46-23s-11-12.88-18.71-16.47c-15.76-7.39-33.5-9.17-50.87-10.39q-32.52-2.27-65.16-2.33c-13.12,0-26.33.23-39.2,2.81-15,3-29.18,9.13-43.22,15.24-29.68,12.93-60,26.52-83.09,49.22l.7-10.68,7.26-53.43c1.75-12.92,3.6-26.13,9.55-37.73s15.39-20.6,24.72-29.5l90.39-86.22c7.08-6.76,14.33-13.64,23.2-17.79,19-8.89,41.25-3.75,61.54,1.53,13.33,3.48,28.67,8.76,32.9,21.88,3.58,11.12-1.84,25.73,6.94,33.45,5.44,4.77,14,4.19,19.8,8.44,7.58,5.51,7.79,16.41,9.39,25.64,2.48,14.37,11.15,28.56,24.86,33.54s31.83-2.8,34.34-17.16c1.06-6.06-.58-12.37.63-18.4s5.2-11.32,5.9-17.43c1.72-15-15.27-24.11-26.17-34.58-16.06-15.44-21-39.74-36.92-55.37-17.39-17.12-43.77-20.25-68.07-22.45,29-12.39,58.21-24.83,88.94-32s63.38-8.79,93.56.41c11.23,3.42,24.08,8.13,34,1.79s10.78-21.45,4.48-31.33-17.66-15.34-28.91-18.63c-27.83-8.15-57.78-5.91-86.07.49l11.79-45c.55-2.1,1.18-4.35,2.85-5.74,2.44-2,6-1.5,9.19-1.21,17.82,1.65,36.06-9.64,42.53-26.32,1.12-2.9,2.17-6.23,4.94-7.65s5.77-.42,8.56.51l37,12.39,11.89-1.34a39,39,0,0,0,4.45-20.78c-.44-6.78-1.93-15.27,3.81-18.9,5.56-3.53,12.84,1.31,16.3,6.91s5.53,12.49,11,16.18c6.24,4.21,15.32,2.43,20.62-2.93s7.14-13.43,6.31-20.92-4-14.5-7.7-21.08a152.23,152.23,0,0,0-18.81-26.67c5.77-4.12,13.76-1.18,20,2.13a245,245,0,0,1,28.53,17.62c2.29,1.65,4.7,3.39,7.51,3.7,5.84.64,10.34-5,12.9-10.25,4.78-9.87,7.15-21.31,4.33-31.9s-11.6-20-22.47-21.38c-3.22-.42-7.13-.51-8.75-3.33-1-1.82-.64-4.1-.17-6.15,3.65-15.86,9.62-31.35,10.53-47.61.43-7.54-1.5-16.83-8.71-19.11-2-.63-4.12-.6-6.16-1-10.64-2.24-14.51-14.92-19-24.82-11.13-24.52-35.51-39.84-58.58-53.72a143.46,143.46,0,0,1,46,2.59c5.85,1.3,11.7,3,17.69,2.89s12.31-2.25,15.75-7.16c5.41-7.74,1.25-19.16-6.32-24.79s-17.4-7-26.76-8.2l-25-3.18,4.19-8.57a61.1,61.1,0,0,0,3.41-29c-.56-4.51-1.63-9-1.67-13.52-.07-9,3.36-19.84-3.32-25.92-5.64-5.12-14.64-2.84-21.42.64-5,2.58-11,5.67-15.89,2.84-2.65-1.54-4.12-4.47-5.45-7.23l-9.28-19.4c-.75-1.56-1.5-3.34-.89-4.95,1-2.59,4.52-2.78,7.28-2.49a362.2,362.2,0,0,1,36.9,5.87c7,1.51,14.2,3.23,21.36,2.45s14.47-4.64,17.18-11.31c2.25-5.52.91-12.06-2.46-17s-8.51-8.38-14-10.81c-19.24-8.59-41.54-5.23-62.21-9.28-2-.39-4.22-1.07-5-2.92a5.64,5.64,0,0,1-.18-3.08c1.87-11.82,13.8-19,20.34-29,9-13.74,7.14-31.59,5-47.85-.63-4.78-1.65-10.18-5.74-12.73-2.47-1.54-5.54-1.66-8.25-2.71-8.32-3.21-11.44-14.12-19.58-17.77l-8.22-1.82c-7.23-.43-16-.11-19.68,6.09a15.32,15.32,0,0,0-1.87,6.81c-1.19,15.93,9.14,33.34.81,47-3.36,5.51-9.17,9-13.56,13.74-8.06,8.71-10.82,20.9-15.59,31.77s-13.71,21.79-25.58,21.8c-3.06,0-6.49-1.06-7.79-3.82a10.16,10.16,0,0,1-.49-5.2c2.17-24.59,9.72-50.28.56-73.2-2-5.1-4.91-10-5.3-15.52-.56-8,4.31-15.41,9.71-21.37a96.84,96.84,0,0,1,59.13-30.73c33.6-4.21,68.83,9.34,101-1.33,9.67-3.22,19.13-9.14,23.24-18.47s.69-22.27-8.87-25.81c-3.92-1.45-8.23-1.22-12.4-1L1889,379.24c-2.83.17-6.42-.12-7.39-2.79a6.22,6.22,0,0,1,.27-3.89c4-13,14.18-23.13,21.28-34.79s10.71-27.84,1.83-38.21c-2-2.33-4.91-4.3-7.92-3.76-2.11.37-3.8,1.88-5.37,3.33l-64.73,59.64c-1.22,1.13-2.73,2.34-4.35,2a5,5,0,0,1-2.72-2.34c-8.58-12.61-11.13-28.9-21.19-40.36a39.87,39.87,0,0,0-39.56-11.91c-7.33,2-15.51,6-21.91,1.94-7.7-4.92-5.43-16.71-1.36-24.89s9-18.07,4.11-25.77c-4.21-6.6-13.66-7.51-21.23-5.51s-14.53,6.16-22.28,7.26l.53-8.47,16.6-37c5.49-12.24,11.12-25.51,8.46-38.67-1.71-8.4-8.6-16.88-17.13-16-7,.73-11.82,7.26-14.69,13.65s-4.91,13.51-10,18.29c-6.68,6.21-16.71,6.76-25,10.51-13.39,6-21.51,20.28-24.47,34.67s-1.62,29.26-1.15,43.94-.06,29.9-6.36,43.17c-1.28,2.68-3.22,5.56-6.18,5.82-4.29.39-6.66-4.64-9.61-7.79-5-5.4-13.93-5.68-20.49-2.3s-11.16,9.64-14.7,16.12a91.32,91.32,0,0,0-10.08,29.5c-2,12.86-2.18,27.9-12.44,35.92-2.1,1.64-4.74,2.89-7.36,2.45-7-1.2-7-11.46-11.55-16.88-6.42-7.61-18.91-3.1-26.7,3.08a98.41,98.41,0,0,0-29.67,39.3c-10.85,26.2-10,56.16-21.29,82.17a46,46,0,0,0-23.68-15.18l-5.34,5.69a384,384,0,0,1-5,49c-.68,4.09-1.47,8.28-3.66,11.81L1415,572.1a114.42,114.42,0,0,1,3.68,27.8,3,3,0,0,1-.77,2.48,2.82,2.82,0,0,1-2.58.08c-5.39-1.76-9.74-6-15.17-7.61a17.68,17.68,0,0,0-18.8,6.23c-5.08,6.85-5.94,18-14.14,20.37-2.12.6-4.4.42-6.52,1-4.9,1.32-7.89,6.19-10,10.83a84.82,84.82,0,0,0,.76,69.34c2,4.16,4.25,8.18,5.51,12.59,1.37,4.79,1.45,9.84,1.53,14.82l.7,47.48c-4.89-1.38-5.1-8.15-7.68-12.52-3.64-6.15-12.08-7.21-19.2-6.56-7.3.68-15.07,2.8-19.56,8.6-2.9,3.75-4,8.57-6.4,12.68-6.24,10.83-19.57,14.92-31.66,18.1l-5.89,7.51.16,4.35c.67,2.21-1.13,4.54-.66,6.8a6.89,6.89,0,0,0,1.18,2.36l3.73,5.57a3,3,0,0,0,1.09,1.13,3.38,3.38,0,0,0,1.35.2,12.21,12.21,0,0,1,8.71,4.15l7.57,10.49,7.54-3.74c5.33-1.29,11-2.77,14.69-6.82,1.61-1.76,2.78-3.95,4.71-5.36,5.46-4,13,.25,18.32,4.39l20.2,15.67c3.41,2.65,6.9,5.38,9.11,9.08,1.94,3.24,2.77,7,3.57,10.69q8.29,38.15,16.58,76.28c.82,3.78,1.17,8.67-2.2,10.55-2.58,1.45-5.91,0-8-2.06s-3.42-4.84-5.48-7c-6.25-6.44-18-4.86-23.84,2-2.85,3.36-4.67,7.79-8.45,10.07-2.87,1.73-6.41,1.9-9.75,1.68-7.92-.52-15.78-2.95-23.66-2s-16.13,6.92-15.64,14.83a6.76,6.76,0,0,0,3,5.58c1.67.95,3.73.83,5.55,1.43,4.83,1.59,6.54,7.58,6.53,12.66s-.93,10.5,1.45,15c4.29,8.13,16,8,24.78,5.07,3.62-1.19,7.25-2.67,11.06-2.6,6.19.1,11.51,4.16,16.33,8l19.79,15.92c6.89,5.55,13.89,11.16,22,14.75,5.52,2.45,11.63,4,16.09,8.1s6.31,11.94,1.79,16l-4.17,4.8c-7.67.28-11.26,9.24-15.88,15.37a4,4,0,0,1-2.31,1.78,4.24,4.24,0,0,1-2.53-.69l-34.24-17.61c-10.19-5.24-22.39-10.53-32.59-5.31-3.21,1.64-6.41,4.34-9.94,3.6-3-.63-4.86-3.48-6.79-5.84a30.59,30.59,0,0,0-21.6-11c-2.32-.13-4.89.1-6.52,1.76s-1.79,4-1.77,6.24c.11,13.84,6.84,26.64,13,39,11.45,22.92,21.68,46.84,25.42,72.18l-14.44-4.81-5.63,4.33c-.14,3.35-.9,6.7-.38,10,1.07,6.92,7.48,12.21,8.14,19.18l10.48,15.4a56.79,56.79,0,0,1,6.06,15.54l6.66,6.57c17.79,26.43,35.83,53.41,44.79,84,3.34,11.39,5.37,23.12,7.39,34.82q3.77,21.86,7.54,43.7l1,11.62a19.59,19.59,0,0,1,6-.75,6.21,6.21,0,0,1,5,3c1.15,2.21.33,4.9-.68,7.17a49.16,49.16,0,0,1-4.69,8.3l4.16,11.68a581.34,581.34,0,0,1-3.79,113.74c-1.46,11-3.49,22.59-10.64,31.09-10.39-6.92-18.31-16.89-26.05-26.68l-35.77-45.28-6.16-7.31-7.14-.21a107.71,107.71,0,0,1-10.71-32.34c-.35-2.16-.62-4.47.26-6.48s3-3.71,3.09-6Z"></path>
    <path data-name="4a" data-official="" data-plain="Fruit of Leptomeria acida" data-loc="" d="M1748.93,2141a20.91,20.91,0,0,0,10.21-22.42c-2.26-9.91-11.48-16.82-14.9-26.39a44.5,44.5,0,0,1-2-11.94q-.92-13.27-.56-26.6c.09-3.49.26-7.06,1.53-10.31,1.91-4.89,6-8.5,9.89-12.06,4.76-4.39,9.38-9,15-12.3s12.45-5,18.62-3c5.75,1.83,10,6.52,14.06,11,4.37,4.9,8.83,9.94,11.21,16.06,2.5,6.42,2.51,13.51,2.41,20.41s-.28,14-.53,21-.76,14.82-5.19,20.43c-4.88,6.19-13.74,8.8-17.3,15.83a13.75,13.75,0,0,0,3,15.93c3,2.71,7,3.93,10.45,6,5.91,3.6,10.14,11,7.73,17.52-1.76,4.72-6.42,7.69-11,9.7-8.56,3.72-17.9,5.31-27.2,6.14-5.88.52-12,.73-17.5-1.37-10.67-4.07-16.74-17.4-12.8-28.12Z"></path>
</svg>
