
<svg xmlns="http://www.w3.org/2000/svg" viewBox="0 0 1975 2448" id="illustration" preserveAspectRatio="xMidYMid meet">
    <title>Elæagnaceæ</title>
    <path data-name="1" data-official="Elæagnus angustifolia" data-plain="Narrow-leaved Oleaster" data-loc="South Europe" d="M751.47,1352.39l4.88,7.93-.63,2.09-13.29.5a47.14,47.14,0,0,1-9.28-.25c-4.56-.73-8.8-2.76-12.93-4.84-8-4-15.79-8.22-23.88-12a53,53,0,0,0-10.87-4c-3.52-.75-7.14-.87-10.7-1.39a47.86,47.86,0,0,1-21-8.52l-4,3.49a55.7,55.7,0,0,1-14.48,26,8.7,8.7,0,0,1-2.35,1.84c-3,1.4-6.61-.81-8-3.76s-1.34-6.38-1.44-9.66a68.07,68.07,0,0,0-1.58-12.64c-1.34-6.1-4-12.56-9.52-15.43-5.2-2.7-11.45-1.52-17.28-2a6,6,0,0,1-3.85-1.37c-1.54-1.56-1.15-4.16-.31-6.17a19.71,19.71,0,0,1,8.57-9.61c3.73-2.06,8.65-3.47,9.78-7.58a8.66,8.66,0,0,0-.34-4.88c-1.33-4.12-4.14-7.6-5.88-11.56l-1.6-4.17a169.21,169.21,0,0,1-1.18-34.19c-4.69-.79-9.51,0-14.25-.37-9-.67-17.08-5.31-24.85-9.84l-8.93-4.74c-3.19-2-6.46-4.06-10.13-5s-7.85-.54-10.76,1.87l-6.14,1.21c-4.61.86-9.34-.7-13.46-2.93s-7.86-5.12-12-7.25-9-3.48-13.55-2.31l-6.62-.7c-3.49-.87-7-1.77-10.09-3.69-4.14-2.62-7-6.92-8.76-11.46l1.09-4.78c9.62-.06,18.9-3.9,26.92-9.21,3-2,6-4.25,9.5-5.09,4.13-1,8.55.09,12.69-.92,3.87-.94,7-3.6,10.39-5.78s7.37-4,11.22-2.94l3.57,1.62a16.29,16.29,0,0,1,13,4.17c2.52,2.35,4.25,5.48,6.88,7.7,8,6.78,20.93,2.89,30,8.23,5.55,3.27,8.83,9.57,14.48,12.66q0-6.4,0-12.82c0-6.25.08-12.55,1.35-18.67s3.87-12.13,8.32-16.52l3.15-2.45a14.08,14.08,0,0,1,11.74-.26,24.77,24.77,0,0,1,4.25,2.69l3,2.22a63,63,0,0,1,5.37,4.25c1.35,1.25,2.6,2.61,3.83,4,4.05,4.44,8.1,8.89,11.73,13.68,2.25,3,4.38,6.18,5.16,9.83l2.09,3.45a4.57,4.57,0,0,1,3.13.79,11.8,11.8,0,0,1,2.4,2.23,56.53,56.53,0,0,1,5.51,7.46l-3.08,8.18a57.24,57.24,0,0,1-16.81,15.4,7,7,0,0,0-3,2.68,6.62,6.62,0,0,0-.45,2.42q-.86,15.74-1.73,31.46c-.29,5.29-.59,10.64-2.2,15.69-.77,2.44-1.86,4.81-2.15,7.36a217.31,217.31,0,0,1,58.2,1c4,.62,8.09,1.37,11.71,3.21l4.52,3.4c3.88,1.54,5.93,5.71,7.68,9.5q8.4,18.19,18.57,35.48l.34.7a2.24,2.24,0,0,0-2.49.86,8.33,8.33,0,0,1-1.95,2c-1.74.94-4.19-.39-5.76.8s-.9,3.52.56,4.54,3.37,1,5.14.85a2.58,2.58,0,0,1,1.43.14,2.85,2.85,0,0,1,1,1.07,8.83,8.83,0,0,0,7.67,3.76,3.44,3.44,0,0,1,2,.2A2.9,2.9,0,0,1,751.47,1352.39ZM653.24,1105l14.46,6.74c3.59,1.67,7.19,3.34,10.93,4.66,8.8,3.1,18.21,4.14,27.54,4.15l.43-.25a18.9,18.9,0,0,0-11.48-13.46,9.48,9.48,0,0,1,9.27-.21c-2-3.21-4.9-5.7-7.48-8.45-7.43-7.91-12.07-18-18.62-26.63a5.2,5.2,0,0,0-2.67-2.2,4.89,4.89,0,0,0-2.92.43c-7.58,2.93-13.33,9.35-17.44,16.36l-3.41,4.91c-.31,3.15-.63,6.3-.94,9.45a4.63,4.63,0,0,0,.46,3.21A4.56,4.56,0,0,0,653.24,1105Zm1125-541.15c.42,11.22-8.44,20.25-14.56,29.66-11.27,17.32-14.42,39.41-27.84,55.11l-2.07,4.88c-9.06,21.22-38,25.85-52.09,44.13-7.9,10.24-10.25,23.66-16.31,35.08-5.21,9.82-13.05,17.95-20.78,25.93-21,21.73-44.08,44.57-73.81,50.15-5.24,1-10.86,1.52-15.1,4.76-4.59,3.52-6.49,9.43-9.54,14.35-8.41,13.61-25.1,19.15-40.43,23.71a298.88,298.88,0,0,1,120,108.71l1.32,6.24c1.15,12.26-1.73,25.28,3.31,36.51,2.56,5.69,7,10.41,9.35,16.18,3.06,7.44,2.44,15.83,1.26,23.79-.82-2.6-1.69-5.3-3.55-7.28-2.41-2.57-6-3.51-9.44-4.34a92.05,92.05,0,0,0-13.12-2.53l-5.58,2.58a98,98,0,0,0-23.65,5.36c-3.38,1.22-6.7,2.63-10.17,3.57a66.61,66.61,0,0,1-13.43,1.84,227.61,227.61,0,0,1-30.79-.25l-5.38.1a239.25,239.25,0,0,1-37.21-15.23c-5.88-3-11.7-6.27-18.09-7.95-12.1-3.18-25-.34-37.39-2.29-13.72-2.18-25.8-10.08-36.84-18.51q-10.24-7.82-19.81-16.44c-3.06-2.75-6.28-6-6.35-10.15l-.79-5.72-11.76-12.54a83.26,83.26,0,0,0-11.72-11c-4.36-3.13-9.46-5.43-14.82-5.64l-3.93-2.82c-2.21-5.85-2.45-12.22-2.66-18.47-.1-2.76-.14-5.73,1.41-8l4.1-1.89a190.23,190.23,0,0,1,98.3,21.08c10.43,5.44,21.07,12,32.83,11.75-13.69-14.17-24.72-30.65-36.92-46.12-7.88-10-17.29-20.2-29.82-22.4-4.6-.81-9.35-.47-13.94-1.33-5.56-1-10.63-3.81-15.68-6.37q-8.7-4.41-17.72-8.13c-4.29-1.77-8.88-3.45-13.46-2.69-3.25.54-6.16,2.27-9,4-14.55,8.73-29.21,17.55-41.63,29.11-1.88,1.76-3.82,3.79-4.08,6.36a3.28,3.28,0,0,0,.49,2.23,3.74,3.74,0,0,0,1.73,1.17c4.46,1.75,10.4,1,13.16,4.91.68,1,1.06,2.15,1.81,3.08s2.08,1.59,3.13,1l2.46,2.23c-1.52,3.45-1.86,7.29-2.17,11.06-.14,1.65-.28,3.31-.41,5l-10,1.37c-1.78-.29-3.51,1-4.31,2.65a14.3,14.3,0,0,0-1.07,5.28,81.79,81.79,0,0,1-7.15,27.19c-4.46,9.74-10.84,18.61-14.23,28.77l-3.29,3a76.49,76.49,0,0,1-16,5.38c-5.72,1.24-12,2.05-16,6.32a28.76,28.76,0,0,1,15.66,3.14c3.07,1.6,5.89,3.78,9.22,4.76,4.88,1.42,10.09.05,15-1.31l5.65.72a59.06,59.06,0,0,1,13.29-.13l1.64.5a19.9,19.9,0,0,1-.5,9.42,62.62,62.62,0,0,0-2,6.05c-.65,3.41.2,7-.42,10.37a12.28,12.28,0,0,1-3.77,6.82l.76,5a51.15,51.15,0,0,1,10,9.35,20.72,20.72,0,0,1,4.65,12.66c0,1.75-.51,3.73-2.06,4.54-2.12,1.13-4.53-.62-6.77-1.49a9.28,9.28,0,0,0-4.33-.59c-1.5.15-2.93.65-4.41.93a15.18,15.18,0,0,1-14.26-5.12l-4.63-2.53c-3.58,2.4-8,3.11-12.24,3.77l-9.44,1.45a5.08,5.08,0,0,1-2.57,0,1.74,1.74,0,0,1-1.17-2l-.65,0c-6.31-.36-12.56,1.53-18.88,1.34a28.67,28.67,0,0,1-12.63-3.4,7.74,7.74,0,0,0-2.89-1.14,6.79,6.79,0,0,0-2.85.6c-3.82,1.42-8,3.13-9.81,6.77a28.84,28.84,0,0,0-1.23,3.41,37.81,37.81,0,0,1-4.12,7.7l.33,1.07c2.33,1.94,2.55,5.37,2.59,8.4a43.64,43.64,0,0,1,23.76-8.78l1,1.07a64.16,64.16,0,0,1-1.08,16.25,24,24,0,0,1-3.54,9.39c-1.94,2.75-5.06,4.85-8.43,4.85a31.23,31.23,0,0,1,12.26,22l3,4.69.14,3.51a11.21,11.21,0,0,1-.16,3.17,3.86,3.86,0,0,1-1.76,2.53,11.08,11.08,0,0,1-2.3.67,2.4,2.4,0,0,0-1.77,1.45,2.51,2.51,0,0,0,1.21,2.43,7.64,7.64,0,0,0,5.18,1.54l2.44,1.76,8.5.67a2.85,2.85,0,0,1,1.56.42c.92.7.67,2.22-.11,3.07a15.77,15.77,0,0,1-2.85,2c-2.8,2-3.65,5.68-4.69,9-1.19,3.76-3,7.47-5.95,10.06-5.06,4.4-12.38,4.72-19.09,4.82l-1.16,1c3.66,5.9,6.62,12.61,6.2,19.55s-5.1,14-11.94,15.19a6,6,0,0,1-2.53,0c-3.75-.93-5.09-6.75-9-6.86l-3.64-1.61-2.18-2.46a3,3,0,0,0-.86-.73,2.76,2.76,0,0,0-1.31-.15,111.9,111.9,0,0,0-15.91,1.86l-4-1.06-4.94-2.66a3.87,3.87,0,0,0-1.92-.63,4.14,4.14,0,0,0-1.76.65,19.42,19.42,0,0,1-9.81,2.18,27.25,27.25,0,0,0-3.26-.11c-2.54.16-4.85,1.46-7.07,2.72l-.83.38c1.69,3.9,3.29,8.68.79,12.12-1,1.39-2.62,2.35-3.4,3.89a9.33,9.33,0,0,0-.75,3.09c-1.2,8.73-4.33,17.1-8.24,25a147.07,147.07,0,0,1-29.76,40.28l-4.18,9c-.53,6.17-2.64,12.07-4.25,18s-2.72,12.32-1.2,18.32l-1.37-.15-5.46-8a383.08,383.08,0,0,0-.38,84.89l-.15.62c-1.57-2.35-4.42-5-6.76-3.41-1.38.93-1.58,2.85-1.65,4.51-.38,8.64-.74,17.38.9,25.87.72,3.68,1.8,7.29,2.28,11s.36,7.36.68,11a79.44,79.44,0,0,0,3.58,16.13q2.88,9.42,6.41,18.63l.16,1a47.31,47.31,0,0,0,3.19,38.54l-.51,6.39a15.54,15.54,0,0,0,.52,7.28,40.68,40.68,0,0,0,2.15,3.94c3.12,5.91,2.09,13.07,1,19.66l-2.13,12.64-1.64,7.66c-.85,30.46-9.66,60.5-8.09,90.93l-1.53,8L1050,1804c-.37,6.41-.75,12.85-2.23,19.1-.94,4-2.33,7.91-3.23,11.93a89.87,89.87,0,0,0-1.71,13.69q-1,14.4-.91,28.84l-2.5,4.43c.78,2-1.29,3.91-2.4,5.79a13.28,13.28,0,0,0-1.43,5.7,88.3,88.3,0,0,0,6.05,40l7.6,22.93c7.07,16.62,14.19,33.33,24,48.53,3,4.65,6.31,9.36,7.16,14.82.69,4.44-.31,9,0,13.44.5,7.67,4.69,14.51,7.84,21.52a143.66,143.66,0,0,1,6.1,17c1,3.15,1.91,6.38,1.75,9.66s-1.62,6.7-4.47,8.35c-3.85,2.23-8.92.57-12.3-2.32-6.19-5.29-8.49-13.68-12.22-20.92s-10.86-14.29-18.84-12.67l-5,1a17.91,17.91,0,0,1-16.24-5.9,10.34,10.34,0,0,1-2.82-6.92c.12-3.37,2.52-6.18,3.77-9.32a23.89,23.89,0,0,0,1.31-8.58,18.18,18.18,0,0,0-.85-6.57c-1.15-3-3.62-5.36-5.84-7.73a45.17,45.17,0,0,1-10.68-17.72c-1.44-4.86-1.79-10-2.08-15a617.2,617.2,0,0,1-.21-65.8l2.88-2.4q.79-10,1.58-20A42.44,42.44,0,0,0,1014,1878c-.67-3.72-2.31-7.18-3.85-10.64-3.94-8.82-7.37-18.08-7.71-27.73l-3.06-8.89q-1.2-26.12-.58-52.28c.29-12.56,1-25.4,5.7-37,3.31-8.12,8.58-15.6,9.86-24.28l.06-3.22a49.56,49.56,0,0,0-1-13l.49-4.75a22.83,22.83,0,0,1-2.94-12.28c10.79,3.87,21.83,7.8,33.3,7.87-3-9.55-10.46-17-18.23-23.28a42.84,42.84,0,0,1-7-6.46c-4.55-5.79-5.36-13.6-5.7-21l1.07-3.3a6.84,6.84,0,0,0,1.95-4c2.87-12.2,3.59-24.78,4.3-37.3l2.8-2.09q2.64-42.5,2.61-85.1c0-7.86-.11-15.92-2.95-23.25l-2.28-5.45c-12.64-10.68-19.79-26.44-24.87-42.18s-8.51-32.11-15.63-47a178.91,178.91,0,0,0-11.72-20.18q-6.28-9.7-12.92-19.18c-1.31-1.87-2.7-3.8-4.7-4.9a14.23,14.23,0,0,0-6-1.35,125,125,0,0,0-16.31-.08,3.22,3.22,0,0,0-2.37.82,3.17,3.17,0,0,0-.52,1.94c-.11,3.71.26,7.47-.59,11.08-2.19,9.22-13.43,15.08-22.24,11.59l-2.91-2.82a24.5,24.5,0,0,0-8.69-11.62c-2.07-1.5-4.42-2.7-6.11-4.62a20.17,20.17,0,0,1-3.07-5.33l-4.84-10.86a5.13,5.13,0,0,1-.65-2.73c.43-2.9,4.91-3,6.6-5.36,1-1.4.79-3.27.56-5l-2.67-19.73a6,6,0,0,0-.86-2.8,5.84,5.84,0,0,0-2-1.57,72.36,72.36,0,0,0-13.69-5.81,9.36,9.36,0,0,0-4.3-.57,3.49,3.49,0,0,0-3,2.76l-1.81,2.54a38.69,38.69,0,0,1-7.56,33.4,57.05,57.05,0,0,1-8.61,8.19,111.65,111.65,0,0,1-55.28,23.26l-5.54.42a39.93,39.93,0,0,1-15.07-12.48c-1.32-1.81-2.48-3.73-3.64-5.65l-6.55-10.8a90.29,90.29,0,0,1-4.44-7.91c-1.28-2.68-2.29-5.48-3.76-8.06-1.07-1.88-2.38-3.64-3.27-5.62-1.07-2.38-1.57-5.13-3.44-7a5,5,0,0,1-1.4-1.62,3.6,3.6,0,0,1,.14-2.24c.62-2.17,1.23-4.34,1.85-6.51l2.67-3.08a21,21,0,0,1,9.29-3.79,1.55,1.55,0,0,0,.83-.27,1.43,1.43,0,0,0,.33-1.29,21.6,21.6,0,0,0-1.49-4.79,23.84,23.84,0,0,1-1.19-11.23l.85-4.11a20.7,20.7,0,0,0,3.79-5.73,3.4,3.4,0,0,0-1.41-5c-3.9-2.84-8.72-4-13.33-5.46a103.27,103.27,0,0,1-20-8.71,42.59,42.59,0,0,1-7.54-5.19c-7.6-6.82-10.71-17.37-11.75-27.53-.43-4.18-.47-8.75,2-12.15,3.14-4.32,9.1-5.21,13.82-7.72a4.16,4.16,0,0,0,1.86-1.6c.58-1.11.18-2.47-.29-3.63a34.19,34.19,0,0,0-7.25-11c-2.69-2.73-6.36-5.14-10.11-4.37s-6.16,4.38-8.13,7.68q-4.2,7-8.41,14l-5.49.5c-3.29-2.94-6.73-6.09-8-10.32a6.11,6.11,0,0,0-.79-2,5.39,5.39,0,0,0-.88-.84l-2.58-2.1-2.8-.36c-1.25-3.55-4.4-6-7.26-8.46-9.87-8.44-18-18.92-28.88-26.07a5,5,0,0,1-1.69-1.49,4.69,4.69,0,0,1-.47-2.38,56,56,0,0,1,3-19l2.43-5.1c1.87-3.68,6.86-4.67,10.84-3.6s7.34,3.67,11,5.62a71.51,71.51,0,0,0,9.7,4l10.71,3.84c8.72,3.12,17.47,6.26,26.53,8.16l2,5.67c1.93,1.89,4.14,3.9,6.84,3.92l2.64.53c8.41,0,16.37,5.54,20,13.12,2.64,5.48,3.36,12,7.41,16.57,4.46,5,11.92,6.38,16.62,11.17.4.41,1.07.86,1.47.45a1.09,1.09,0,0,0,.2-.76v-5.74l1.18-2.65a43.27,43.27,0,0,1,2.44-4.17,2.38,2.38,0,0,1,1.29-1.14,2.31,2.31,0,0,1,1.65.48c5.63,3.48,9.94,8.83,15.68,12.12,1.92,1.1,4.19,2.2,4.78,4.33l.26,5.47a33.24,33.24,0,0,1,7.8,8.5l1.4,3.87a47.62,47.62,0,0,1,9.66-5.19,16.21,16.21,0,0,1,10.77-.39,22.08,22.08,0,0,1,4.88,2.73c5.55,3.83,10.71,8.18,15.87,12.53a31,31,0,0,1,4,3.78l4.08,7.63c2.38,8.9-.44,18.29-.24,27.5a7.69,7.69,0,0,0,.5,3,8.63,8.63,0,0,0,2.19,2.67l4.22,3.91,2.1,3.36c.63,1.34.29,2.9.19,4.37s.18,3.22,1.49,3.9a5.61,5.61,0,0,0,3.23.12c1.09-.11,2.41.07,2.9,1a7.26,7.26,0,0,1,.36,1.23,5,5,0,0,0,1.71,2.18c4.64,4,10.1,6.81,15.5,9.63,1.3.67,2.78,1.37,4.16.91,1.68-.56,2.38-2.52,2.77-4.24a46.69,46.69,0,0,0,1-13.54l1.58-5.51a36.56,36.56,0,0,1,8.17-6c3.49-1.87,7.45-3.31,9.79-6.5,2.56-3.49,2.51-8.16,3.18-12.44,1.28-8.16,5.5-15.87,5.22-24.12-.08-2.09-.44-4.19,0-6.24.52-2.6,2.2-4.8,4-6.76,1.11-1.2,2.37-2.65,2-4.26-.26-1.27-1.44-2.1-2.52-2.81-5.18-3.37-10.61-6.84-16.75-7.48-2.91-.3-5.89.05-8.75-.56-5.14-1.08-9.17-5-12.38-9.21a29.54,29.54,0,0,0-4.41-5c-4.33-3.55-10.93-4-14.37-8.43l-4.21-3.18a15,15,0,0,1-4.55-4.72,15.34,15.34,0,0,1-1.06-3.17l-6.3-24.93c-.34-1.34-.37-3.25,1-3.57l3.83-1A37.63,37.63,0,0,0,855,1122a3.92,3.92,0,0,0,1.69-.88c1.33-1.36.27-3.58,0-5.46-.46-3.18,1.69-6.21,4.27-8.14s5.64-3.13,8.23-5,4.78-4.9,4.39-8.09a12.06,12.06,0,0,0-1.54-4.08l-11.53-22a51.89,51.89,0,0,0-6.26-10,17.42,17.42,0,0,0-9.87-6.13c-2.87-.51-6.1-.13-8.42-1.88l-4.6-.91c-2-3.39-4.41-7.07-8.22-8a18.39,18.39,0,0,0-4.92-.26c-3,.06-5.92-.17-8.89-.17-11.18,0-22.08,3.27-32.78,6.52l-4.07,2a29.4,29.4,0,0,0-20.73,12.47l-3.42,4.8-18.9,24.88c-1.33,1.75-2.7,3.59-3.06,5.76l-3.67,2.62a14.45,14.45,0,0,1-7.62-5.07,51.62,51.62,0,0,1-5-7.85c-5-8.89-10.82-17.32-16.6-25.75,2.49-1.1,4.5-3.09,7-4.19a32.32,32.32,0,0,1,4.65-1.39,66.74,66.74,0,0,0,12.41-5.29l10.59-4.79,9.94-6.37,3.38-1.59c2.53,2.4,6.32,2.8,9.8,2.77a15.62,15.62,0,0,0,5.23-.74,6.32,6.32,0,0,0,3.82-3.44,8.88,8.88,0,0,0,.48-2.85,68.58,68.58,0,0,0-.27-10.53l-1.91-4.1a68.92,68.92,0,0,1-5-20.91,26.53,26.53,0,0,1,.24-7.34,16.13,16.13,0,0,1,20.46-12.18l2.77,2.1a29,29,0,0,1,14.7,3.12c4.52,2.31,8.66,5.88,13.72,6.28l2.74-1c3.74-2.83.4-10.37-.92-14.88s-4.19-8.36-6.47-12.47c-3.21-5.8-5.27-12.16-8.23-18.09s-7-11.63-13-14.61L776,925.21a59.43,59.43,0,0,1-13-36.69l-2.14-6.2c.25-8.47-4.44-16.24-6.13-24.54-2.12-10.4.53-21.28-1.18-31.76l-.89-4.35a16.1,16.1,0,0,1,8.94-14.36c2.85-1.36,6.08-1.86,8.82-3.44,4.09-2.36,7-7,11.6-7.84a29.81,29.81,0,0,0,3.78-.48c2.51-.76,4-3.25,5.42-5.45,3.9-6,9.44-11.5,16.45-13,2.2-.46,4.49-.51,6.58-1.3,4.44-1.68,7-6.2,9.23-10.39l2.11-5.05,10.94-8.55,1.87.12c.51,2.25,3.58,2.69,5.79,2.07s4.53-1.8,6.7-1,3.11,2.9,4.66,4.41c2.36,2.3,6,3.27,7.57,6.18a22.66,22.66,0,0,0,1.35,2.91,12.12,12.12,0,0,0,3.06,2.42,13.5,13.5,0,0,1,4.89,8.1,39.78,39.78,0,0,1,.58,9.63l-.66.77c2,.25,3.56,2,4.83,3.6a78.12,78.12,0,0,1,9.53,14.42,31.19,31.19,0,0,1,3.3,16.77l2.19,5.55q-.09,11.64-.75,23.28L890,854.79c-1.6,2.81-3.54,5.47-4.5,8.56a30,30,0,0,0-1,5.25q-.88,7.47-1.78,14.92c5.61.13,10.64,4.14,13.18,9.15s2.92,10.87,2.38,16.46l.06,3.55c-.37,4.34-3.2,8-5.4,11.76a45.22,45.22,0,0,0-5.23,31.4l-.56,3.64c.74,8.79-3.2,17.21-6.59,25.35a2.42,2.42,0,0,0-.26,1.52,2.21,2.21,0,0,0,.94,1.11,23.65,23.65,0,0,0,7.37,3.7,2.93,2.93,0,0,0,1.46.15,3.18,3.18,0,0,0,1.62-1.33,39.45,39.45,0,0,1,28.51-14.76c-2.77,2.41-1.21,7.11-2.84,10.4-.45.91-1.14,1.69-1.53,2.63a9,9,0,0,0-.49,3.39l-.12,7.29c4.27-4.41,10-7,15.68-9.4q11.77-4.95,23.83-9.16l9.37-4.27c7.43-3.62,16-4,24.25-4.08q11-.07,22,.43a59.14,59.14,0,0,1,8.4.82,64.86,64.86,0,0,1,10,3l10.29,3.77c3.67,1.34,7.35,2.69,10.89,4.35a70.25,70.25,0,0,1,19.31,13.6l1.56,6.32c4.2,1.95,8.75,4.25,10.53,8.53.8,1.93,1,4.13,2.11,5.87a12.12,12.12,0,0,0,4.48,3.51l2,1.47,3.39,1.06q7-20.14,13-40.62c1.64-5.61,3.22-11.24,5-16.81s3.75-11,5.89-16.37a112,112,0,0,0,4.2-11.58c1.15-4.22,1.7-8.57,2.62-12.84,2.24-10.43,6.65-20.25,11-30,2.08-4.64,4.72-9.78,9.6-11.22a4.88,4.88,0,0,1,4.36.5c1.48,1.16,1.69,3.29,1.71,5.17.2,23.59-10.8,45.64-21.53,66.63l.15,2.55a32.87,32.87,0,0,1-4.74,7.8,6.19,6.19,0,0,0-1.22,1.85c-.55,1.56.26,3.22,1,4.69a12,12,0,0,1,1.43,4.06,4.4,4.4,0,0,1-1.4,3.91c-2.27,1.82-6.45.42-7.94,2.91A4.83,4.83,0,0,0,1116,988c0,4.37.69,8.78-.06,13.08s-2.86,8.19-2.88,12.47a4.48,4.48,0,0,0,1,3.19c1.07,1.14,2.83,1.14,4.38,1.36a12.26,12.26,0,0,1,8.58,5.67l2.36.77c7.94.82,14.61,6.13,22,9.07a38.47,38.47,0,0,0,15.07,2.67,29.8,29.8,0,0,1,7.13.15c2.33.5,4.64,2,5.28,4.29h.58a6.29,6.29,0,0,0,3.79-2.21l-.58-.49a15.31,15.31,0,0,1,4-9.28,33.45,33.45,0,0,0,3.34-3.61,12.66,12.66,0,0,0,1.51-3.5c4.45-15.14-3.13-31.74.7-47.05l1.13-6.14A71.94,71.94,0,0,1,1176.78,929c-.56-6.07-.34-12.24-1.64-18.19-1.18-5.38-3.56-10.41-6-15.34-4.6-9.25-9.72-18.59-17.72-25.12-7.52-6.13-17-9.28-25.4-14.1s-16.41-12.4-17.14-22.08l-.15-4.16c.6-3.3-1.06-6.59-3-9.29s-4.42-5.15-5.74-8.23c-.64-1.48-1-3.06-1.54-4.57-2.86-8.1-10.25-13.57-17.16-18.67s-14.15-10.91-16.44-19.19c-1-3.7-1-7.61-1.36-11.43s-1.4-7.8-4.09-10.55c-2.39-2.45-5.77-3.6-9-4.66l-3.12-2.82a62.15,62.15,0,0,1-14.37-23.43l-.64-4.39a60.12,60.12,0,0,1-6.45-10.36,20.47,20.47,0,0,1-1.87-11.9l-.09-1a16.42,16.42,0,0,1-7.09-7.05,80.89,80.89,0,0,1-4.07-9.29,81.38,81.38,0,0,0-7.34-13.83l-.83-6.88a118.63,118.63,0,0,1-1.43-34.93l4.1-3c.52-6.57,1.14-13.44,4.68-19,1.09-1.7,2.44-3.25,3.36-5,3.12-6.15.65-13.56,1.34-20.42.23-2.2,1.06-4.69,3.14-5.42a4.56,4.56,0,0,1,4.72,1.53,12,12,0,0,1,2.26,4.71l1.45,5.72a182.71,182.71,0,0,0,10.73,34.58,14.83,14.83,0,0,0,3.11,5.14c.95.91,2.13,1.56,3.13,2.41a19.86,19.86,0,0,1,3.37,4.09q4.3,6.32,8.6,12.62l2.87,5.27c2.17,2.68,2.92,6.21,4.42,9.32,3.25,6.77,9.89,11.37,13.49,18a23.5,23.5,0,0,1,2.66,14.33l11,1.45,8.1,3.86c7,5.37,14,10.76,21.67,15,3.32,1.86,6.8,3.53,9.6,6.09s4.89,6.26,4.46,10l-1.11,4.69c1.92,2.12,2.55,5.1,2.71,7.95s-.07,5.73.45,8.54c.77,4.16,3.13,7.85,5.72,11.2a13.16,13.16,0,0,0,2.5,2.66,14.62,14.62,0,0,0,5.78,2.13l.06,2.3a4.67,4.67,0,0,0,.41,4.35,43.06,43.06,0,0,0,2.71,3.65,28.7,28.7,0,0,1,3.06,6.48q3.23,8.5,7.18,16.71a4.35,4.35,0,0,0,.9,1.37,4.54,4.54,0,0,0,2,.85c5.24,1.43,10.52,4.6,12.22,9.77l.5,4.87a32,32,0,0,0,5.75,17,8.46,8.46,0,0,0,3.55,3.22c2.68,1,5.6-.45,8.43-1,6.52-1.31,13.2,2.67,17,8.15s5.18,12.19,6.29,18.75,2,13.28,5,19.22a34.88,34.88,0,0,1,24.15-3l16.08-30.93a95.75,95.75,0,0,0,6.72-14.95,74.94,74.94,0,0,0,3-17.56,171.62,171.62,0,0,0-.4-29c-.83-8.5-2.31-17-2.14-25.53s2.13-17.37,7.43-24.07l1.41-8.55c28.2-48.62,14.28-113.1,41.71-162.16,6.68-11.95,15.59-22.5,24.7-32.73,9.71-10.89,19.74-21.55,31-30.84,25.41-21,56.36-34.34,81.88-55.17,8.19-6.68,16-14.25,25.87-18.07,5.84-2.26,13.55-2.58,17.28,2.45,4,5.46.75,13.13-2.67,19A872,872,0,0,1,1447,523.93c-2.74,3.67-5.68,8.11-4.35,12.5a27.78,27.78,0,0,1,18.59,2.76l1.44,6.34c-.51,23.48,18.12,43.86,18.94,67.33.51,14.68-6,28.57-9.25,42.89-2.21,9.73-2.91,19.74-3.6,29.69l-2.37,34.24a46.33,46.33,0,0,1,16.68-10.18c2.73-1,5.62-1.67,7.93-3.42,4.08-3.1,5.37-8.55,6.55-13.53a226.6,226.6,0,0,1,21-55c6.16-11.39,13.31-22.29,18.35-34.22,3.22-7.63,5.57-15.68,9.84-22.78s11-13.32,19.2-14.42a14.12,14.12,0,0,1,8.8,1.42c7.41,4.2,7.37,14.7,6.38,23.16l-4.26,36.07c-.19,1.58-.2,3.53,1.17,4.33,1.06.62,2.38.2,3.55-.15,14.24-4.24,28.7,4.37,42,11.07a10.72,10.72,0,0,0,5.07,1.55,10.91,10.91,0,0,0,3.76-1.06l27.87-11.55c8.82-3.66,17.74-7.37,25.48-13,14.66-10.59,23.89-27,36.57-39.88a100.27,100.27,0,0,1,39.45-24.64c3-1,6.18-1.84,9.17-.94C1775.57,553.91,1778.08,559.05,1778.26,563.83Zm-706.1,525.71a10.19,10.19,0,0,0-1.11-3.1l-6.35-13,2.26-2a12,12,0,0,1,5.25-6.31c1.78-1,3.83-1.61,5.47-2.86s2.77-3.58,1.77-5.39c-1.12-2-3.93-2.06-6.24-2.06-17.62,0-33.15-12.22-50.67-14-5.79-.6-11.62,0-17.4.54l-2.95,1c-6.88,5-9.62,13.69-12.48,21.66s-7,16.55-15,19.53a38.46,38.46,0,0,1,.63,33.3c-1.77,3.78-4.34,7.42-8.13,9.18-4.83,2.25-10.46,1-15.77.55a4.93,4.93,0,0,0-3.07.44,5.11,5.11,0,0,0-1.69,2.39q-4.56,10.26-8.36,20.84c-.36,1-.69,2.21-.06,3.07s1.79.91,2.82,1a19.1,19.1,0,0,1,11.51,5.2c3.13,3,5.93,7.44,10.27,7.31a12.7,12.7,0,0,0,4.94-1.63,57.8,57.8,0,0,1,24.74-5.55c2.15,0,4.59.28,5.88,2a7,7,0,0,1,1,3.87,49.45,49.45,0,0,1-5.36,25c-1.29,2.52-2.82,5-3.25,7.79s.64,6.08,3.24,7.2l27.24-12.19a6.22,6.22,0,0,0,2.53-1.68,6.35,6.35,0,0,0,.92-3.36,81.21,81.21,0,0,1,3.76-18,25.47,25.47,0,0,1,4.36-8.63,10.81,10.81,0,0,1,8.45-4.11,7.47,7.47,0,0,0,2.87-.06c1.76-.63,2.26-2.84,2.49-4.69q2.23-17.76,4.48-35.52l2.9-2.54a23,23,0,0,1,12.53,4.34q2.61-13.14,5.23-26.27A10.15,10.15,0,0,0,1072.16,1089.54Zm84.41,7.63a2.44,2.44,0,0,0-.56-1.5c-2.08-3.07-4.45-5.93-6.5-9a51.21,51.21,0,0,1-7.8-20l-13.22-.68-3.71-1.4c-.83-1.88-1.77-3.82-3.45-5a11.17,11.17,0,0,0-4.46-1.53,146.28,146.28,0,0,0-18.2-2.19l-6.72,23.05c-3,10.19-6,20.89-3.8,31.28l-1.9,3.12c-2.27,3.51-3.43,7.61-4.56,11.64l-2.6,9.28a39.55,39.55,0,0,0-1.29,5.68l1,5.67c1.07,14.66-4.27,29-5.91,43.58a7,7,0,0,0,.19,3.33,7.33,7.33,0,0,0,1.62,2.23q10.45,11.13,20.93,22.25l1.87,3.75c1-1.12,2.73-1.28,4.2-1.7,4.5-1.27,7.63-5.37,9.59-9.61s3.12-8.86,5.48-12.9a24.55,24.55,0,0,1,8.83-8.79l.24-.48c-4.28-5-4.29-12.18-4.07-18.73q.26-7.32.5-14.64c.22-6.25.55-12.89,4.13-18,1.64-2.35,3.87-4.22,5.75-6.39s3.45-4.83,3.36-7.69l3.94-3.38a118.64,118.64,0,0,1,16.22-19.87A2.43,2.43,0,0,0,1156.57,1097.17Zm57-84.44-4.44.18a23.69,23.69,0,0,1-1.37,9.74,45.66,45.66,0,0,1-13.57,20.35l-.84,1.37a21.21,21.21,0,0,1-2.94,13.08l0,1.34a24.2,24.2,0,0,1,10-2.22l.37-.7c-.58-4.18,2-8.34,5.52-10.66s7.85-3.1,12.06-3.38a35.93,35.93,0,0,0,6.79-.76,8.72,8.72,0,0,0,5.48-3.78l-2.59-5.46C1224.2,1024.77,1220.13,1017.47,1213.61,1012.73ZM762,1152a9.15,9.15,0,0,0,1.63,2.55c4.89,5.81,12,9.21,18.85,12.44a7.26,7.26,0,0,0,2.24.77,6.52,6.52,0,0,0,2.84-.53,39,39,0,0,0,6.68-3.12l-.8-5.36c-.7-6.17-1.4-12.33-2.24-18.48a38.75,38.75,0,0,0-2-9,20.34,20.34,0,0,0-3.31-5.6,12,12,0,0,0-5.86-4.12c-3.72-1-7.62.61-11,2.53a14.6,14.6,0,0,0-3.92,3,12.49,12.49,0,0,0-2.15,4.22c-1.78,5.46-1.71,11.33-1.53,17.07A11.13,11.13,0,0,0,762,1152Z"></path>
    <path data-name="1a" data-official="" data-plain="Scale, magnified" data-loc="" d="M225.25,2358.86c5.68-2.63,6.29-11,3-16.35s-9-8.53-14.21-12.06c-22.54-15.35-37.51-41.93-37.13-69.19s17-54.12,41.91-65.12c9-4,18.81-5.92,28.61-6.87,7.32-.71,14.78-.87,22,.74,6.83,1.53,13.22,4.62,19.27,8.13,15.7,9.08,29.8,21.3,39.58,36.57s15,33.71,13.07,51.73-11.57,35.42-26.74,45.36c-6.7,4.4-14.71,7.69-18.74,14.61-4.46,7.65-2.85,18-8.07,25.1-5.41,7.43-15.84,8.59-25,9.09l-23.26,1.29c-5.11.28-11,.26-14.35-3.58-3-3.43-2.8-8.56-2.3-13.1Z"></path>
    <path data-name="2" data-official="Elæagnus argentea" data-plain="Silvery Oleaster" data-loc="North America" d="M1055.41,2077.08a150.32,150.32,0,0,0-8.63-15.75l-3.54-6.56a17.91,17.91,0,0,1-16.24-5.9,10.34,10.34,0,0,1-2.82-6.92l-2.21-7.75c-13.87-10.52-22.85-26-33.07-40.11-16.59-22.87-37.28-43-50.21-68.09-5.14-10-9-20.57-12.75-31.13-5.42-15.07-10.85-30.16-14.94-45.65,8.72,2.42,16.37,7.6,23.85,12.68l70.76,48.15,4,1.13,2.88-2.4q.79-10,1.58-20A42.44,42.44,0,0,0,1014,1878c-.67-3.72-2.31-7.18-3.85-10.64l-8.67-7.67c-13.83-7.65-24.75-19.65-38.06-28.17-13-8.31-28-13.21-40.16-22.7-3.77-3-7.26-6.35-11.55-8.47-5.65-2.79-12.77-3.49-16.58-8.5-2.61-3.45-2.92-8.07-3.12-12.39l-1.37-7.93c15.84-39.85,11.37-84.74,20.58-126.63,5.77.3,11,3.52,15.38,7.3s8.19,8.2,12.8,11.68a70.62,70.62,0,0,0,12.26,7.05c10.17,4.86,20.73,9.16,31.85,11,7.65,1.3,15.75,1.53,22.54,5.29l5-3.33c10.79,3.87,21.83,7.8,33.3,7.87-3-9.55-10.46-17-18.23-23.28a42.84,42.84,0,0,1-7-6.46c-4.55-5.79-5.36-13.6-5.7-21l1.07-3.3-2.5-6c-3.2-9-10.28-16-17.14-22.63-2.91-2.81-6-5.74-10-6.7-1.84-.45-3.79-.44-5.58-1-3.14-1.07-5.33-3.84-7.36-6.46-14.08-18.12-30.36-35.75-51.73-44.1l-4.58-1.46c-6.83-57.58-7.86-115.67-11.76-173.52l-.83-4.74-2.91-2.82a24.5,24.5,0,0,0-8.69-11.62c-2.07-1.5-4.42-2.7-6.11-4.62a20.17,20.17,0,0,1-3.07-5.33l-4.84-10.86a5.13,5.13,0,0,1-.65-2.73c.43-2.9,4.91-3,6.6-5.36,1-1.4.79-3.27.56-5l-2.67-19.73a6,6,0,0,0-.86-2.8,5.84,5.84,0,0,0-2-1.57,72.36,72.36,0,0,0-13.69-5.81,9.36,9.36,0,0,0-4.3-.57,3.49,3.49,0,0,0-3,2.76l-1.81,2.54a38.33,38.33,0,0,1-.47,19.83l2.31,10.1c5.9,19.87,4.33,41.07,5.44,61.78.92,17.22,3.73,34.48,1.85,51.63a78.89,78.89,0,0,1-25.88-13c-2.78-2.11-5.51-4.53-6.81-7.77-1.4-3.53-.94-7.63-2.56-11.06a10.11,10.11,0,0,0-10.07-5.56,13.77,13.77,0,0,1-3.37.33c-2.42-.3-4-2.59-5.33-4.64a215.42,215.42,0,0,0-26.1-33.09l-.46-3.75-5.54.42a39.93,39.93,0,0,1-15.07-12.48c-1.32-1.81-2.48-3.73-3.64-5.65l-6.55-10.8a90.29,90.29,0,0,1-4.44-7.91c-1.28-2.68-2.29-5.48-3.76-8.06-1.07-1.88-2.38-3.64-3.27-5.62-1.07-2.38-1.57-5.13-3.44-7a5,5,0,0,1-1.4-1.62,3.6,3.6,0,0,1,.14-2.24c.62-2.17,1.23-4.34,1.85-6.51l2.67-3.08a21,21,0,0,1,9.29-3.79l-31.66-46.55a42.59,42.59,0,0,1-7.54-5.19c-7.6-6.82-10.71-17.37-11.75-27.53l-16.51-18.79-5.49.5c-3.29-2.94-6.73-6.09-8-10.32a6.11,6.11,0,0,0-.79-2,5.39,5.39,0,0,0-.88-.84l-2.58-2.1-2.8-.36c-1.25-3.55-4.4-6-7.26-8.46-9.87-8.44-18-18.92-28.88-26.07a5,5,0,0,1-1.69-1.49,4.69,4.69,0,0,1-.47-2.38,56,56,0,0,1,3-19l2.43-5.1c1.87-3.68,6.86-4.67,10.84-3.6s7.34,3.67,11,5.62a71.51,71.51,0,0,0,9.7,4l10.71,3.84c8.72,3.12,17.47,6.26,26.53,8.16l2,5.67c1.93,1.89,4.14,3.9,6.84,3.92l2.64.53c8.41,0,16.37,5.54,20,13.12,2.64,5.48,3.36,12,7.41,16.57,4.46,5,11.92,6.38,16.62,11.17.4.41,1.07.86,1.47.45a1.09,1.09,0,0,0,.2-.76v-5.74l1.18-2.65a43.27,43.27,0,0,1,2.44-4.17,2.38,2.38,0,0,1,1.29-1.14,2.31,2.31,0,0,1,1.65.48c5.63,3.48,9.94,8.83,15.68,12.12,1.92,1.1,4.19,2.2,4.78,4.33l.26,5.47a33.24,33.24,0,0,1,7.8,8.5l1.4,3.87a47.62,47.62,0,0,1,9.66-5.19,16.21,16.21,0,0,1,10.77-.39,22.08,22.08,0,0,1,4.88,2.73c5.55,3.83,10.71,8.18,15.87,12.53a31,31,0,0,1,4,3.78l4.08,7.63c2.38,8.9-.44,18.29-.24,27.5a7.69,7.69,0,0,0,.5,3,8.63,8.63,0,0,0,2.19,2.67l4.22,3.91,2.1,3.36c.63,1.34.29,2.9.19,4.37s.18,3.22,1.49,3.9a5.61,5.61,0,0,0,3.23.12c1.09-.11,2.41.07,2.9,1a7.26,7.26,0,0,1,.36,1.23,5,5,0,0,0,1.71,2.18c4.64,4,10.1,6.81,15.5,9.63,1.3.67,2.78,1.37,4.16.91,1.68-.56,2.38-2.52,2.77-4.24a46.69,46.69,0,0,0,1-13.54l-1.92-3.72c-2.62-12-5.25-24-6.76-36.11-.55-4.39-.95-8.8-1.55-13.18a140.9,140.9,0,0,0-14.24-45l-.79-7.32-4.21-3.18a15,15,0,0,1-4.55-4.72,15.34,15.34,0,0,1-1.06-3.17l-6.3-24.93c-.34-1.34-.37-3.25,1-3.57l3.2-4.51c-3.65-21.92-7.31-43.89-13.3-65.28l-2-5.43c-2-3.39-4.41-7.07-8.22-8a18.39,18.39,0,0,0-4.92-.26c-3,.06-5.92-.17-8.89-.17a67.72,67.72,0,0,0-10.65.89l1.49,4.83a67.29,67.29,0,0,0,6,21c2.8,5.87,6.47,11.37,8.43,17.58a46.4,46.4,0,0,1-25.27-10.08A67.49,67.49,0,0,1,772,1053.86l.47-4.44a29.4,29.4,0,0,0-20.73,12.47l1,6.16q5.91,9.51,11.89,19a66.33,66.33,0,0,0,7,9.66c6.25,6.82,15.2,11,20.54,18.52,1.8,2.55,3.14,5.43,5.25,7.73,3.12,3.41,7.62,5.21,12.09,6.44,3.23.89,6.76,1.67,9,4.2a15.21,15.21,0,0,1,2.5,4.83l4.8,12.88a81.23,81.23,0,0,1,4.19,13.57,4.52,4.52,0,0,1-.16,3,4.8,4.8,0,0,1-1.87,1.64,22.59,22.59,0,0,1-7.47,3.3c-3.91.7-7.91-.67-11.41-2.57s-6.68-4.34-10.27-6l-4.46-.08a39,39,0,0,1-6.68,3.12,6.52,6.52,0,0,1-2.84.53,7.26,7.26,0,0,1-2.24-.77c-6.87-3.23-14-6.63-18.85-12.44A9.15,9.15,0,0,1,762,1152a11.13,11.13,0,0,1-.54-3.68c-.09-2.87-.15-5.77,0-8.64a33.91,33.91,0,0,1,1.5-8.43l-7.14,3.85a92.13,92.13,0,0,1-29.73-31.89l-3.43-3.24a14.45,14.45,0,0,1-7.62-5.07,51.62,51.62,0,0,1-5-7.85c-5-8.89-10.82-17.32-16.6-25.75,2.49-1.1,4.5-3.09,7-4.19l3.54-4.33c3.41-1.14,5.57-4.56,6.6-8s1.18-7.1,2.12-10.58a2.48,2.48,0,0,1,.88-1.54,2.74,2.74,0,0,1,1.06-.33c9.45-1.69,16.91-8.7,23.78-15.4q1,8.42,1.93,16.85l1.06,3.92c2.53,2.4,6.32,2.8,9.8,2.77a15.62,15.62,0,0,0,5.23-.74,6.32,6.32,0,0,0,3.82-3.44,8.88,8.88,0,0,0,.48-2.85,68.58,68.58,0,0,0-.27-10.53l-1.91-4.1a68.92,68.92,0,0,1-5-20.91,26.53,26.53,0,0,1,.24-7.34,16.35,16.35,0,0,1,7.55-10.6l-1.77-4.06c.22-8.54.51-17.36,4.12-25.1,5.44,7,8.11,15.72,10.68,24.21l-.12,3.37,2.77,2.1a29,29,0,0,1,14.7,3.12c4.52,2.31,8.66,5.88,13.72,6.28l-1.15-4.23A72.34,72.34,0,0,1,792,949.7l.6-6.3c-2.95-5.93-7-11.63-13-14.61L776,925.21a59.43,59.43,0,0,1-13-36.69l-2.14-6.2-3.36-9a178,178,0,0,1-13.35-35.88,2.95,2.95,0,0,1,1.3-3.94l5.23-3.92,2.87-3.59-.89-4.35a16.1,16.1,0,0,1,8.94-14.36c2.85-1.36,6.08-1.86,8.82-3.44,4.09-2.36,7-7,11.6-7.84a29.81,29.81,0,0,0,3.78-.48c2.51-.76,4-3.25,5.42-5.45,3.9-6,9.44-11.5,16.45-13,2.2-.46,4.49-.51,6.58-1.3,4.44-1.68,7-6.2,9.23-10.39l2.11-5.05,10.94-8.55,1.87.12,2.55-1.19,8-13.74a18.59,18.59,0,0,1,3-4.16c2.13-2,5.08-2.95,7.72-4.29A24.89,24.89,0,0,0,870,718.75l2.28-4.19c2.75-15,13.44-27.71,16.13-42.76,1.32-7.34.83-15.44,5.09-21.56,2.31-3.33,5.84-5.74,7.76-9.3l1-3.58c-1-3.21-5.19-4.3-8.41-3.36s-5.84,3.24-8.8,4.82-6.84,2.37-9.5.31a4.77,4.77,0,0,1-3.76,1.54,1.58,1.58,0,0,0-1,.14c-.38.29-.33.86-.37,1.34-.16,2.34-3,3.47-5.36,3.37s-4.77-.84-7,0a4.51,4.51,0,0,1-2.5,3.76,13.1,13.1,0,0,1-4.55,1.25c-5.08.76-10.3,1.46-15.33.4-5.6-1.18-10.5-4.43-15.25-7.62l-14.81-9.95-3.12-.44a23.06,23.06,0,0,1-8.42,1.51l-6.21.46q-9.71,3.47-19.35,7.11c-5.21,2-10.49,4-14.89,7.45-3.79,2.94-6.77,6.77-9.68,10.58q-18.36,24-35.2,49.14c-2.88,4.29-6.07,8.88-11,10.56-.64-35.33,5.62-71.26-2.42-105.66-1.16-4.95-2.87-10.22-7-13.14a6.84,6.84,0,0,0-5.57-1.31c-1.91.52-3.29,2.14-4.52,3.69a162,162,0,0,0-22.72,39.05,43.77,43.77,0,0,1-3.86-19.19l-4.9-6a83.52,83.52,0,0,0-10.42-21.24l-5.22-2.77c-6.91-3.43-10.67-10.91-13.78-18-2.52-5.71-5-11.61-5.34-17.85l-3.7-4.19a52.36,52.36,0,0,1-9.58-10.7c-3.25-5.12-5-11-6.77-16.82q-2.54-8.46-5.08-16.92l-4.44-2.79c-5.11-7.33-15.94-8.18-22.2-14.56-.09,1.71-2.51,2.42-4,1.56s-2.19-2.58-2.84-4.17A157.39,157.39,0,0,0,543.71,469l-8.07-2.64c-19.63-6.27-36.09-21.68-56.54-24.23a6.21,6.21,0,0,0-3.75.36,5.16,5.16,0,0,0-2.26,3.63c-.69,3.35.19,6.81.17,10.23-.07,9.47-7,19-3.33,27.74l-.52,19a207.93,207.93,0,0,1,20.92,33.18c-12.58-9.63-25.23-19.33-35.87-31.06-7.72-8.51-14.27-18-20.71-27.51-31-45.88-59.61-93.33-90.87-139-4-5.87-9.47-12.4-16.55-11.72a4.89,4.89,0,0,0-3.85,2,6.43,6.43,0,0,0-.48,3.82c3.22,39.38,6.48,78.95,15.93,117.31,13.92,56.51,40.87,108.8,67.6,160.5l23.94,46.31,1,6.86c-45.09-17.51-91.67-34.55-140-34.53a276.87,276.87,0,0,0-46.92,4.51c-32.16,5.55-65.42,15.82-87.35,40-4.44,4.89-8.42,10.46-10,16.88s-.27,13.83,4.55,18.35c8.52,8,22.14,3.62,33.26.06a153.39,153.39,0,0,1,51.05-7.27c3.39.09,6.88.32,9.9,1.85,6.69,3.39,8.92,11.73,13.74,17.47,7.23,8.62,19.63,10.67,28.71,17.32,14.07,10.31,17.78,29.33,26.31,44.54,13.75,24.51,40,38.8,64.59,52.33,9.41,5.17,19.84,11.88,21.28,22.52a4.75,4.75,0,0,1-.55,3.48,5,5,0,0,1-2.75,1.55c-9.19,2.6-18.93-.09-28.18-2.48A469,469,0,0,0,290.25,847c-10.88-.92-24.27-.14-29.27,9.57l-.52,6.67c2.06,16.81,22.51,22.95,36.75,32.13,17,11,27.16,29.59,40.25,45,25.78,30.42,62.88,48.33,96.25,70.16,4.13,2.7,8.37,5.64,10.74,10s2.22,10.46-1.65,13.51c-5.47,4.32-13.32.1-19-3.94-59.56-42.37-129.59-67-198.58-91.14-10.05-3.52-20.27-7.06-30.9-7.51-13.09-.55-25.85,3.63-38.28,7.76l-75.6,25.1c-4.22,1.4-9.33,4.08-8.87,8.5a9,9,0,0,0,2.24,4.46C84.64,991,101.65,998.5,118.6,1003s34.53,6.55,51.12,12.21c17.57,6,33.72,15.94,51.68,20.61,18.93,4.93,39.76,4,56.73,13.71-19.32,2.18-30.7,22.45-47.26,32.65-6.08,3.74-12.9,6.12-19.05,9.75a54.17,54.17,0,0,0-23.94,30.27c-2.5,8-3.35,17.08-9.12,23.18-9.56,10.1-26.09,6.31-39.42,2.35-18.16-5.38-37-9.69-55.89-8s-37.91,10.09-48.57,25.73c-2.11,3.09-3.88,7.2-2,10.42s6.18,3.65,9.86,3.78l43.81,1.52c3.13.11,6.42.26,9.12,1.84,2.52,1.48,4.21,4,5.81,6.46L124.72,1225c-22.46,16.81-30.41,50.34-17.87,75.44l-4.7,6.93c-4.79.73-9.65,1.92-13.64,4.66s-7,7.33-6.77,12.17c.26,5.34,4.3,10.22,3.48,15.51-1.13,7.37-11.12,11.64-10.66,19.09.22,3.47,2.88,6.42,6,7.92s6.7,1.8,10.17,2a152.11,152.11,0,0,0,37.18-2.85c2-.39,4.71-.41,5.24,1.54.44,1.59-1.13,3-2.52,3.85-11.86,7.44-25.51,11.65-37.41,19s-22.48,19.4-22.2,33.39c.08,4.16,1.49,8.76,5.16,10.72a13.86,13.86,0,0,0,5.63,1.26,82.07,82.07,0,0,0,16.58-.56c14.32-1.93,27.84-7.6,41.17-13.21l90.39-38c5.36-2.26,10.84-4.54,16.64-5,11.95-1,23,5.62,34.06,10.29a110.46,110.46,0,0,0,36.47,8.53l2.16,5.59c-38.4,4.61-73,32.58-85.65,69.15-.56,1.63-1.19,3.42-2.68,4.29a7.12,7.12,0,0,1-3.72.64l-50.78-.49c-12-.12-24.65,0-34.81,6.28-3.46,2.15-6.62,5.17-7.77,9.07-2.35,8,4.51,15.85,11.83,19.86,10.46,5.72,22.8,7.48,33,13.7,7.64,4.68,13.7,11.66,21.48,16.09a39.29,39.29,0,0,0,19.53,5.09l1.43,4.73c-5,8.31-13.73,13.55-20.82,20.17-17.94,16.75-25,41.82-30.81,65.67-7.58,31.24-14.27,63.1-13.11,95.22.2,5.53,1.42,12.18,6.58,14.19,6,2.33,11.85-3.55,15.66-8.77l22.84-31.32c5.42-7.44,10.88-14.93,14.93-23.2,4.38-8.93,7-18.61,11.13-27.68C232,1646,238,1637,242.26,1627.12c8.78-20.6,9-43.69,9.15-66.09,18.21,8.84,37.66,17.45,57.84,15.89,10.85-.84,21.41-4.62,32.29-4.4,7.4.15,14.64,2.15,22,3a68.18,68.18,0,0,0,45-11.14c-4.7,13.48-3.26,28.19-3.06,42.46s-1.33,29.64-10.53,40.55l-4.56,4.5c-18.88,19.47-28.18,46-37.41,71.53-2.92,8-6,16.29-11.75,22.62-7.71,8.5-19.41,12.67-26.74,21.49-7.77,9.33-9.45,22.42-16.39,32.39-7.28,10.46-19.64,16.51-27,26.92-9.72,13.77-8.83,32.11-7.54,48.92.52,6.73,2.17,15,8.63,16.91,4.23,1.27,8.61-.86,12.76-2.36,9.69-3.49,20.2-3.58,30.42-4.78s20.91-3.86,28.13-11.2c8.42-8.54,10.38-21.57,17.37-31.32,5.83-8.13,14.71-13.4,22.9-19.15s16.3-12.73,19.2-22.31l-2.92-3.12c8-11.52,5.16-27.39,10.4-40.38,1.7-4.24,4.24-8.08,6.19-12.21,4-8.51,5.45-18,6.84-27.25l2.49-10.85c.22-2.56-.74-5-1.4-7.54-3.15-11.79.37-24.17,2-36.27.84-6.19,1.19-12.44,1.53-18.68l.65-11.66c8.1,12.89,16.34,26.13,19.56,41,2.59,12,2,25,8.23,35.54l3,2.91,4.86,19.75a67.58,67.58,0,0,0,3,10,33.68,33.68,0,0,0,6.8,10.35,6.24,6.24,0,0,1,1.85,2.69,5.77,5.77,0,0,1-.07,2.15c-.28,1.73-.57,3.46-.85,5.19l.39,11.56c.77,5.31,2.92,10.32,5,15.25l6.18,14.35.93,5.29,9.27,34.59c2.27,8.48,4.61,17.12,9.33,24.52l4.07,2.86,11.06,13.15a4.85,4.85,0,0,0,1.31,1.21,3.24,3.24,0,0,0,3.67-.87,9.37,9.37,0,0,0,1.84-3.56c2.51-7.21,5-14.43,7-21.81l.75-5.15c.23-12.82,6.1-24.8,8.54-37.38,2.25-11.62,1.53-23.59.81-35.4a87.94,87.94,0,0,0-1.86-15.37,29.15,29.15,0,0,0-7-13.61l-2.81-1.71c4-5.47,8.09-11,10.31-17.46,4.52-13.06,1-28.35,7.52-40.51l-.68-5.78a57.26,57.26,0,0,0-9.48-36.74l-3.49-1.19a75.9,75.9,0,0,1-13.21-33.95,3.74,3.74,0,0,1,.06-1.76,3.52,3.52,0,0,1,1.82-1.68,22.12,22.12,0,0,1,12.9-2.42l5-2.56a25.9,25.9,0,0,0,11-7.7,8.15,8.15,0,0,1,2.59-2.41c1.6-.74,3.55-.2,5.17-.9a5,5,0,0,0,2-1.73,8.29,8.29,0,0,0,1.56-5.36l-1.29-1.61q1.37-14.51,2.74-29a7,7,0,0,1,.71-2.9c1.6-2.72,5.75-2,8.52-.48,6.53,3.64,11.25,9.74,16.12,15.41a197.89,197.89,0,0,0,41.39,36.41l4.2,1.76c6.12,2.84,10.65,8.15,15.78,12.54,8.61,7.36,19,12.21,28.28,18.76l.9.82a2.09,2.09,0,0,0-1.86,1.39,6.21,6.21,0,0,0-.29,2.43,6,6,0,0,0,.44,2.66,4.14,4.14,0,0,0,4,2,12,12,0,0,0,4.46-1.48c.27,2.68,2.86,4.42,5.22,5.72,3.45,1.89,7.1,3.68,11,3.92a5.5,5.5,0,0,0,2.42-.29c1.53-.62,2.37-2.24,3.08-3.73l.92.71.78,1.43c5.42,11.28,10.92,22.69,18.83,32.39a51.64,51.64,0,0,1,5.66,7.53l-.76,6.45c22.57,33.16,45.92,67.11,79,89.78,8.28,5.68,17.82,11.53,20.34,21.25l1,6.15a266.39,266.39,0,0,0,11,32.81l.43,4.76c2.79,6.5,5.61,13.1,6.51,20.11.41,3.21.41,6.46.86,9.67,1.45,10.41,7.41,19.53,11.78,29.09.73,1.6,1.4,3.55.43,5a4.12,4.12,0,0,1-1.81,1.4,17.73,17.73,0,0,1-6.68,1.14,28.6,28.6,0,0,1-7.68-.37,27.79,27.79,0,0,1-8.49-4.1q-6.13-3.93-12.11-8.08a2.84,2.84,0,0,1-1-1,2.87,2.87,0,0,1-.15-1.72c.25-2.12.49-4.23.74-6.35l-.07-4.17a20.38,20.38,0,0,0-10.56-20.25c-4.2-2.17-9-2.77-13.41-4.49-5.67-2.22-10.45-6.22-15-10.21q-8.66-7.49-17-15.29l-7.76-.9q-9.88-9-19.17-18.66c-6.62-6.87-13-14-17.83-22.3s-7.88-17.73-7.35-27.25l-.7-4.51a229.48,229.48,0,0,0-18.77-29.17l-8-6.6q-10.47-16.76-21.35-33.26c-6.57-10-13.26-19.88-20.73-29.2-3.94-4.92-8.11-9.68-11.81-14.79-5.39-7.42-9.8-15.6-16-22.36l-3.57-1.43a1.87,1.87,0,0,0-1.75-1.32c-.79-.07-1.57.13-2.36.12-2.48,0-4.43-2-6.06-3.92a10.41,10.41,0,0,1-2-2.93c-.67-1.76-.32-3.72-.46-5.59-.36-4.63-3.66-8.43-6.8-11.85l-3.7-3.39a11.75,11.75,0,0,0-20.27,3.11c-1.45,3.87-.74,8.28,1,12s4.41,7,7.06,10.13l3,4.17c1.24,3,3.76,5.27,6.41,7.15s5.51,3.48,7.9,5.67c3.65,3.35,6,7.87,8.31,12.24a355,355,0,0,0,21.87,35.64l3.6,3.22c.85,4.76-.11,9.73.89,14.47,1.25,5.88,5.33,10.69,9.27,15.23a17.68,17.68,0,0,0,4.39,4c2.09,1.19,4.6,1.5,6.58,2.85,2.25,1.53,3.47,4.13,4.56,6.62,6.4,14.53,12.2,29.54,21.59,42.35,4.3,5.87,9.4,11.37,11.86,18.22l2.21,4.15c5.94,2.68,8.29,9.67,11.74,15.2a68.56,68.56,0,0,0,6.09,7.92l8.13,9.56a77,77,0,0,0,6.65,7.21c1.6,1.48,3.32,2.83,4.79,4.43,3,3.28,4.92,7.55,8.37,10.36,1.42,1.15,3.11,2.07,4,3.64,1.57,2.62.49,6.06,1.37,9,1.34,4.46,6.47,6.27,10.6,8.43,5.19,2.71,9.9,7.47,10.24,13.32l2.6,7.89A103.78,103.78,0,0,0,814,1944c5.26,2.9,10.91,5.36,16.89,5.93l4.66-.79c2.52-.5,5.12.61,7.15,2.17s3.69,3.57,5.61,5.28c3.7,3.3,8.32,5.38,13,7.14l2.52,4.47a115.85,115.85,0,0,1,21,6l4.8,2.56,62.88,81c7.47,9.62,15.3,19.54,26.19,25,3.48,1.73,7.53,3.29,9.11,6.83a11.4,11.4,0,0,1,.43,6.45c-1.3,7.69-5.57,16.1-1.37,22.66,4,6.21,12.92,6.32,20.17,5s15.65-4.34,18.2-11.4c1.42-3.92.77-8.49,2.84-12.11a5.3,5.3,0,0,1,1.82-2c2.71-1.59,5.94.64,8.83,1.88a14.1,14.1,0,0,0,19.65-13.89A25.89,25.89,0,0,0,1055.41,2077.08Zm-404.5-976.6c.31-3.15.63-6.3.94-9.45l3.41-4.91c4.11-7,9.86-13.43,17.44-16.36a4.89,4.89,0,0,1,2.92-.43,5.2,5.2,0,0,1,2.67,2.2c6.55,8.65,11.19,18.72,18.62,26.63,2.58,2.75,5.5,5.24,7.48,8.45a9.48,9.48,0,0,0-9.27.21,18.9,18.9,0,0,1,11.48,13.46l-.43.25c-9.33,0-18.74-1-27.54-4.15-3.74-1.32-7.34-3-10.93-4.66L653.24,1105a4.56,4.56,0,0,1-1.87-1.29A4.63,4.63,0,0,1,650.91,1100.48Zm34.56,241.43c-3.52-.75-7.14-.87-10.7-1.39a47.86,47.86,0,0,1-21-8.52l-4,3.49a55.7,55.7,0,0,1-14.48,26,8.7,8.7,0,0,1-2.35,1.84c-3,1.4-6.61-.81-8-3.76s-1.34-6.38-1.44-9.66a68.07,68.07,0,0,0-1.58-12.64c-1.34-6.1-4-12.56-9.52-15.43-5.2-2.7-11.45-1.52-17.28-2a6,6,0,0,1-3.85-1.37c-1.54-1.56-1.15-4.16-.31-6.17a19.71,19.71,0,0,1,8.57-9.61c3.73-2.06,8.65-3.47,9.78-7.58a8.66,8.66,0,0,0-.34-4.88c-1.33-4.12-4.14-7.6-5.88-11.56l-1.6-4.17a169.21,169.21,0,0,1-1.18-34.19c-4.69-.79-9.51,0-14.25-.37-9-.67-17.08-5.31-24.85-9.84l-8.93-4.74c-3.19-2-6.46-4.06-10.13-5s-7.85-.54-10.76,1.87l-6.14,1.21c-4.61.86-9.34-.7-13.46-2.93s-7.86-5.12-12-7.25-9-3.48-13.55-2.31l-6.62-.7c-3.49-.87-7-1.77-10.09-3.69-4.14-2.62-7-6.92-8.76-11.46l1.09-4.78c9.62-.06,18.9-3.9,26.92-9.21,3-2,6-4.25,9.5-5.09,4.13-1,8.55.09,12.69-.92,3.87-.94,7-3.6,10.39-5.78s7.37-4,11.22-2.94l3.57,1.62a16.29,16.29,0,0,1,13,4.17c2.52,2.35,4.25,5.48,6.88,7.7,8,6.78,20.93,2.89,30,8.23,5.55,3.27,8.83,9.57,14.48,12.66q0-6.4,0-12.82c0-6.25.08-12.55,1.35-18.67s3.87-12.13,8.32-16.52l3.15-2.45a14.08,14.08,0,0,1,11.74-.26,24.77,24.77,0,0,1,4.25,2.69l3,2.22a63,63,0,0,1,5.37,4.25c1.35,1.25,2.6,2.61,3.83,4,4.05,4.44,8.1,8.89,11.73,13.68,2.25,3,4.38,6.18,5.16,9.83l2.09,3.45a4.57,4.57,0,0,1,3.13.79,11.8,11.8,0,0,1,2.4,2.23,56.53,56.53,0,0,1,5.51,7.46l-3.08,8.18a57.24,57.24,0,0,1-16.81,15.4,7,7,0,0,0-3,2.68,6.62,6.62,0,0,0-.45,2.42q-.86,15.74-1.73,31.46c-.29,5.29-.59,10.64-2.2,15.69-.77,2.44-1.86,4.81-2.15,7.36a217.31,217.31,0,0,1,58.2,1c4,.62,8.09,1.37,11.71,3.21l4.52,3.4c3.88,1.54,5.93,5.71,7.68,9.5q8.4,18.19,18.57,35.48l.34.7a2.24,2.24,0,0,0-2.49.86,8.33,8.33,0,0,1-1.95,2c-1.74.94-4.19-.39-5.76.8s-.9,3.52.56,4.54,3.37,1,5.14.85a2.58,2.58,0,0,1,1.43.14,2.85,2.85,0,0,1,1,1.07,8.83,8.83,0,0,0,7.67,3.76,3.44,3.44,0,0,1,2,.2,2.9,2.9,0,0,1,.86,1l4.88,7.93-.63,2.09-13.29.5a47.14,47.14,0,0,1-9.28-.25c-4.56-.73-8.8-2.76-12.93-4.84-8-4-15.79-8.22-23.88-12A53,53,0,0,0,685.47,1341.91ZM861.34,1625l-.24,3.11q-5.83,37-11.66,73.94c-14.36-12.46-21.33-31.24-32.87-46.35-4.56-6-9.83-11.36-14.69-17.1A154.74,154.74,0,0,1,787,1617.76c-2.51-4.22-4.89-8.66-8.63-11.84-8-6.83-19.83-6.08-30.31-5a3.93,3.93,0,0,0-2.74,1c-.88,1.1-.35,2.71.25,4,8,16.88,21.77,30.33,31.51,46.29a192,192,0,0,1,9.07,17.21,744.22,744.22,0,0,1,29.91,71.74,429.36,429.36,0,0,1-50-50l-4.22-1c-4.49-1-7.51-5.11-10-9a184.82,184.82,0,0,1-13.71-25.43,24.91,24.91,0,0,1-1.67-4.81l1.84-5.28q-12.42-23.41-26.39-46c-6.54-10.55-13.57-21.76-13.35-34.16a34.5,34.5,0,0,1,11.84-24.79,41.79,41.79,0,0,1,25.87-10c17.73-.7,34.18,8.65,49.07,18.31a202.57,202.57,0,0,1,20,14.32c7.3,6.13,13.84,13.09,20.59,19.83q13.74,13.7,28.66,26.14c2.39,2,4.85,4,6.4,6.71S863,1622.4,861.34,1625Zm309.17,367.39c-1.34,2.89-4.6,4.43-6.2,7.18-3,5.2,1.1,11.62,1,17.63a15.73,15.73,0,0,1-3.68,9.25,21.15,21.15,0,0,1-37.64-12.07c-.22-4,.59-8.58-1.93-11.76-1.29-1.61-3.22-2.54-5-3.55-9.1-5.07-16.14-13.07-23.37-20.58a321.25,321.25,0,0,0-47-40.24l-5-4.79a88.3,88.3,0,0,1-6.05-40,13.28,13.28,0,0,1,1.43-5.7c1.11-1.88,3.18-3.75,2.4-5.79l4.55,2.63c20.47,13.06,41,26.2,59.13,42.37,5.44,4.86,10.64,10,16,15a523.5,523.5,0,0,0,43.84,36.18,26.66,26.66,0,0,1,6.41,6C1171,1986.49,1171.74,1989.73,1170.51,1992.39Z"></path>
    <path data-name="2a" data-official="" data-plain="Flower, open" data-loc="" d="M402.16,2369.18c-.93-13.72,13.4-24.62,13.56-38.37.09-7.62-4.29-14.61-9.54-20.13s-11.48-10-16.52-15.76c-7.33-8.3-11.8-18.71-15.5-29.15-3.14-8.85-5.85-18.26-4.34-27.53,1.11-6.76,5.7-13.92,12.54-14.23,3.76-.17,7.55,1.78,11.17.78,5.88-1.61,8.66-10.21,14.74-10,3.64.15,6.65,3.67,10.27,3.32,2-.19,3.63-1.51,5.34-2.51,3.08-1.79,6.92-2.66,10.22-1.34,5.43,2.15,7.28,8.95,11.74,12.73a7.26,7.26,0,0,0,3.39,1.72c4,.64,7.09-3.53,11-4.63,5.88-1.67,11.23,3.93,14.1,9.33,11.95,22.5,7.47,52.56-10.52,70.6-2.65,2.66-5.59,5.12-7.57,8.31-3.35,5.41-3.51,12.14-3.46,18.5.05,6.94.3,14.19,3.68,20.25,4.54,8.13,14.36,13.55,15.39,22.8.7,6.24-3.22,12.33-8.49,15.75s-11.67,4.61-17.93,5.16a105.31,105.31,0,0,1-18.11,0c-4.73-.41-9.64-1.21-13.47-4-5-3.64-7.13-9.88-9-15.73Z"></path>
    <path data-name="2b" data-official="" data-plain="Pistil" data-loc="" d="M490.72,2388c-7.16-1.29-11.77-8.91-12.1-16.18s2.57-14.25,5.42-21q3.58-8.41,7.18-16.84c3.2-7.53,6.48-15.64,4.87-23.66-1.66-8.33-8.47-15.9-6.68-24.2.5-2.31,1.65-4.43,2.36-6.69,1.39-4.44,1-9.2.9-13.85s.07-9.54,2.41-13.56,7.45-6.79,11.75-5c4.63,1.9,6.08,7.58,8.88,11.72,2.42,3.57,6.22,6.46,7,10.69,1.07,5.49-3.31,10.5-4.26,16-.86,5,1.18,10,2,15.09,1,6.71-.12,13.55-.12,20.34a59.21,59.21,0,0,0,7.35,28.53c2.46,4.46,5.53,8.67,7,13.55,2.42,8.1-.13,17.31-5.9,23.49s-14.4,9.34-22.84,9.07c-3.27-.1-7.09-1.13-8.22-4.2Z"></path>
    <path data-name="2c" data-official="" data-plain="Anther" data-loc="" d="M558.71,2371.36c-5.58-1.37-11.64-3.07-14.92-7.78-3-4.26-2.84-10-1.64-15s3.35-9.85,4.12-15c1.09-7.26-.66-14.64-.34-22a39.24,39.24,0,0,1,5.26-17.94c2.3-3.94,5.52-7.63,9.87-9,6.61-2.08,14,2,17.66,7.86s4.56,13,4.94,20c.29,5.34.4,10.91,2.84,15.67,4,7.78,13.44,12,16.13,20.35,2.76,8.51-3.22,17.87-11.14,22s-17.26,4.37-26.21,4.5Z"></path>
    <path data-name="2d" data-official="" data-plain="Fruit" data-loc="" d="M636.67,2398.48a55,55,0,0,1,1.85-22.88c1.2-4,2.85-8.28,1.3-12.14a16.19,16.19,0,0,0-4.12-5.25,75.79,75.79,0,0,1-11.49-13.43c-6.3-10-8.31-22.06-9.38-33.83-.75-8.12-1.11-16.36.39-24.37s5-15.86,11-21.4c3.65-3.38,8.08-5.78,12-8.86,8.17-6.42,14.6-16.05,24.73-18.35,4.18-.95,9.41,0,11.22,3.91,1.08,2.31.66,5,.68,7.55s.78,5.5,3.11,6.53a10.61,10.61,0,0,0,4.06.45c9.21.22,16.39,8.25,20.33,16.58,7.56,15.94,7.56,34.29,7.33,51.93-.1,7.41-.33,15.22-4.22,21.53-2.67,4.32-7.09,8.13-7,13.21.05,3.51,2.3,6.54,4.09,9.56,5.85,9.88,7.21,22.78,1.79,32.9a17.08,17.08,0,0,1-5.1,6.11,22.56,22.56,0,0,1-7.71,3,132.72,132.72,0,0,1-45.85,2.84c-2.93-.32-6-.79-8.44-2.37s-4.31-4.58-3.65-7.45Z"></path>
    <path data-name="2e" data-official="" data-plain="Seed" data-loc="" d="M747.9,2391.26a21.84,21.84,0,0,1-10-24.16c1.21-4.31,3.75-8.16,4.76-12.51s.44-8.82,0-13.22A263.34,263.34,0,0,1,742,2294c.51-6.8,1.42-13.93,5.42-19.46,5.67-7.82,18.1-10.24,25.52-4.06,7,5.81,7.68,16.09,7.83,25.17l.68,40.29c.09,5.36.29,11.06,3.29,15.5,1.67,2.46,4.07,4.32,6,6.58,2.48,2.91,4.12,6.42,5.74,9.88s3.29,7.21,2.82,11c-.79,6.41-7.19,10.55-13.28,12.73a58.63,58.63,0,0,1-29.56,2.56Z"></path>
    <path data-name="3" data-official="Hippophaes rhamnoides" data-plain="Sea Buck-thorn" data-loc="Cliffs, Britain" d="M464.88,1776.57a167.48,167.48,0,0,1-55.09,25.2l-6.82-.27-2.92-3.12c8-11.52,5.16-27.39,10.4-40.38,1.7-4.24,4.24-8.08,6.19-12.21,4-8.51,5.45-18,6.84-27.25l5.33,0a96.6,96.6,0,0,1,19.39-7.41l8.35-1,3,2.91,4.86,19.75a67.58,67.58,0,0,0,3,10,33.68,33.68,0,0,0,6.8,10.35,6.24,6.24,0,0,1,1.85,2.69,5.77,5.77,0,0,1-.07,2.15c-.28,1.73-.57,3.46-.85,5.19l.39,11.56Zm82.31-18a38.13,38.13,0,0,0,22.07-2.5c4.45-1.94,8.5-4.72,12.9-6.77s9.42-3.38,14.12-2.17,8.82,5.61,8.39,10.45c-.55,6.2-7.27,9.49-12.4,13a37.86,37.86,0,0,0-11.16,50.62c2.16,3.62,5,7.25,4.86,11.47-.11,2.49-1.29,4.79-2.47,7q-6,11.23-12.61,22.13c-1.26,2.08-2.75,4.32-5.1,5-3.33.9-6.41-1.79-9.31-3.66a22.18,22.18,0,0,0-15.48-3.17l-5.78-.26c-2,7.38-4.46,14.6-7,21.81a9.37,9.37,0,0,1-1.84,3.56,3.24,3.24,0,0,1-3.67.87,4.85,4.85,0,0,1-1.31-1.21l-11.06-13.15-4.07-2.86-7.9,4c-1.53,2.65-4.77,3.93-7.83,4s-6-1-8.92-2c-16.93-5.92-33.89-11.85-50.26-19.18C414.84,1848,398.15,1839,380,1838.87c-3.19,0-6.7.4-8.89,2.72-2.36,2.51-2.36,6.57-.86,9.67s4.22,5.41,7,7.51c9.54,7.3,20.27,13,29.22,21.06,12.17,10.92,21.74,26.44,37.57,30.55,13.22,3.44,28.29-2.06,40.4,4.27l-1.92,9.46-4.66,15.57c-1.85,6.17-3.71,12.45-3.72,18.89,0,14.3,10.23,28,23.95,32,2.58.75,5.29,1.21,7.67,2.47,7.1,3.76,8.88,13,9.86,21l4.77,5.11c9.56,11.53,28.26,9.06,40.78,17.27,5.38,3.53,9.41,8.93,15.06,12,14.72,8.06,35.94-1.63,48.41,9.61,3.11,2.8,5.16,6.57,7.28,10.18a173.42,173.42,0,0,0,29.61,37.53c5.11,4.91,11.39,9.8,18.45,9.12s12.17-6.57,18.36-9.89c7-3.78,15.79-4.41,21.75-9.74,6.66-6,7.73-16,6.83-24.92s-3.27-17.85-1.77-26.68c.43-2.49,1.69-5.4,4.21-5.64a6,6,0,0,1,3.94,1.55c7.84,5.75,13.37,14,18.91,22A735.68,735.68,0,0,0,850,2175.71a22.42,22.42,0,0,1,5,6.08c4.33,8.9-4.38,18.69-4.78,28.57a17.2,17.2,0,0,0,29.9,12.28c6-6.54,6.16-16.69,11.52-23.72,9.4-12.31,30.87-10.81,38.72-24.17,5.82-9.91.67-22.86-7-31.44s-17.7-15-24.09-24.57c-5.82-8.7-8.09-19.23-10.24-29.47l-24-114.15-1.26-6.93-2.52-4.47c-4.64-1.76-9.26-3.84-13-7.14-1.92-1.71-3.57-3.72-5.61-5.28s-4.63-2.67-7.15-2.17l-4.66.79c-6-.57-11.63-3-16.89-5.93a103.78,103.78,0,0,1-39.32-38.21l-2.6-7.89c-.34-5.85-5.05-10.61-10.24-13.32-4.13-2.16-9.26-4-10.6-8.43-.88-2.93.2-6.37-1.37-9-.94-1.57-2.63-2.49-4-3.64-3.45-2.81-5.36-7.08-8.37-10.36-1.47-1.6-3.19-3-4.79-4.43a77,77,0,0,1-6.65-7.21l-8.13-9.56a68.56,68.56,0,0,1-6.09-7.92c-3.45-5.53-5.8-12.52-11.74-15.2l-2.21-4.15c-2.46-6.85-7.56-12.35-11.86-18.22-9.39-12.81-15.19-27.82-21.59-42.35-1.09-2.49-2.31-5.09-4.56-6.62-2-1.35-4.49-1.66-6.58-2.85a17.68,17.68,0,0,1-4.39-4c-3.94-4.54-8-9.35-9.27-15.23-1-4.74,0-9.71-.89-14.47l-3.6-3.22a355,355,0,0,1-21.87-35.64c-2.34-4.37-4.66-8.89-8.31-12.24-2.39-2.19-5.25-3.79-7.9-5.67s-5.17-4.15-6.41-7.15l-3-4.17c-2.65-3.17-5.33-6.38-7.06-10.13s-2.44-8.16-1-12l-14.44-16.44a5,5,0,0,1-2,1.73c-1.62.7-3.57.16-5.17.9a8.15,8.15,0,0,0-2.59,2.41,25.9,25.9,0,0,1-11,7.7l-5,2.56a22.12,22.12,0,0,0-12.9,2.42,3.52,3.52,0,0,0-1.82,1.68,3.74,3.74,0,0,0-.06,1.76,75.9,75.9,0,0,0,13.21,33.95l3.49,1.19,7.57,1.58,13.07.4a9.9,9.9,0,0,1,4.16.72c1.75.84,2.83,2.6,3.84,4.25a375.36,375.36,0,0,0,25.58,36.86,220.31,220.31,0,0,0-38.21-2.88l-5.85,1.59c-6.56,12.16-3,27.45-7.52,40.51-2.22,6.41-6.3,12-10.31,17.46l2.81,1.71Zm56.38-147.61c3.14,3.42,6.44,7.22,6.8,11.85.14,1.87-.21,3.83.46,5.59a10.41,10.41,0,0,0,2,2.93c1.63,1.87,3.58,3.89,6.06,3.92.79,0,1.57-.19,2.36-.12a1.87,1.87,0,0,1,1.75,1.32l3.57,1.43,4.69-1.38c7.82,3.52,13.89,10,19,16.9s9.63,14.26,15.45,20.55c7.43,8,16.79,14,26.09,19.73,4.52,2.8,9.1,5.6,14.12,7.35,8.52,3,17.78,2.74,26.8,2.48l5.24-1.82.76-6.45a51.64,51.64,0,0,0-5.66-7.53c-7.91-9.7-13.41-21.11-18.83-32.39l-.78-1.43-.92-.71c-.71,1.49-1.55,3.11-3.08,3.73a5.5,5.5,0,0,1-2.42.29c-3.93-.24-7.58-2-11-3.92-2.36-1.3-4.95-3-5.22-5.72a12,12,0,0,1-4.46,1.48,4.14,4.14,0,0,1-4-2,6,6,0,0,1-.44-2.66,6.21,6.21,0,0,1,.29-2.43,2.09,2.09,0,0,1,1.86-1.39l-.9-.82c-9.24-6.55-19.67-11.4-28.28-18.76-5.13-4.39-9.66-9.7-15.78-12.54l-4.2-1.76Zm121.54,178.93A56.8,56.8,0,0,0,731.3,1805c4.78,8.25,11.21,15.43,17.83,22.3q9.27,9.65,19.17,18.66l7.76.9,1.73-4.16c.76-7.71,1.51-15.53.1-23.15a41.23,41.23,0,0,0-48.1-33Zm105.61,97.2a19.6,19.6,0,0,1,1.38,10l.07,4.17c-.25,2.12-.49,4.23-.74,6.35a2.87,2.87,0,0,0,.15,1.72,2.84,2.84,0,0,0,1,1q6,4.15,12.11,8.08a27.79,27.79,0,0,0,8.49,4.1,28.6,28.6,0,0,0,7.68.37,17.73,17.73,0,0,0,6.68-1.14,4.12,4.12,0,0,0,1.81-1.4c1-1.47.3-3.42-.43-5-4.37-9.56-10.33-18.68-11.78-29.09-.45-3.21-.45-6.46-.86-9.67-.9-7-3.72-13.61-6.51-20.11l-4.58-4.19c-1-1.55-3.47-1.34-4.78-.07s-1.74,3.17-2.11,5c-1.59,7.64-3.17,15.29-4.31,23ZM777,1662c-13.13.43-24.09-10.22-37-12.51l-3.46,1.51a24.91,24.91,0,0,0,1.67,4.81,184.82,184.82,0,0,0,13.71,25.43c2.47,3.89,5.49,8,10,9l4.22,1,3.56-1.34a9.43,9.43,0,0,0,3.94-1.21,64.06,64.06,0,0,0,6.87-4,17.37,17.37,0,0,0,3.79-3.14,7.08,7.08,0,0,0,1.81-4.48l.11-7.59Zm392.84,137.18a44.34,44.34,0,0,0,12.48-20.14,24.31,24.31,0,0,1,2.13-5.94c1.3-2.16,3.38-3.71,5.13-5.51s3.26-4.19,2.92-6.69c-.25-1.84-1.49-3.45-1.63-5.31s1-3.84,1.95-5.59c7.46-13.45,7.46-29.63,7.08-45l.08-4.62c-.77-2.84-1.63-5.82-3.73-7.9a17,17,0,0,0-4.35-2.82c-3.55-1.81-7.23-3.66-11.21-3.91-2-.13-4.16.17-6.08-.55-2.24-.84-3.78-2.94-4.78-5.11s-1.58-4.53-2.64-6.68l-4.1-8.54c-14.73-8.6-29.57-17.43-41.68-29.44a23.79,23.79,0,0,0-4.45-3.82,7,7,0,0,0-5.62-1l-2.67,2.43-3.7,16.26c-1.18,5.22-2.37,10.45-3.09,15.75-2.1,15.53-.12,31.44-2.7,46.9-1.59-3.37-6.28-3.69-9.9-2.83a30.09,30.09,0,0,0-22.12,37.26c1.41,5.16,4.17,9.84,5.87,14.91,3.31,9.85,2.47,20.54,1.6,30.9l.46,9c1.28,10.8-5,20.84-8.4,31.18-4.67,14.28-3.74,29.89-.26,44.51,1.32,5.56,3,11.15,6.41,15.77,3,4.07,7,7.18,11,10.23l29.41,22.46c3.77,2.88,9.2,5.77,12.82,2.71,2.8-2.37,2.39-6.71,1.88-10.34-.27-2-.37-4.32,1.18-5.58s3.85-.68,5.87-.7c3.74,0,7.13-2.53,9.16-5.68s2.89-6.89,3.5-10.58a96.12,96.12,0,0,0,1.27-18.48c-.09-3.27-.6-7-3.32-8.84s-6.06-1-9.17-.55-7,.14-8.41-2.65c-.78-1.52-.59-3.33-.38-5,1-7.64,2-15.62,6.47-21.92,3.06-4.35,7.47-7.53,11.58-10.91A118.24,118.24,0,0,0,1164,1808Zm-29.55-588.36a3.87,3.87,0,0,0-1.92-.63,4.14,4.14,0,0,0-1.76.65,19.42,19.42,0,0,1-9.81,2.18,27.25,27.25,0,0,0-3.26-.11c-2.54.16-4.85,1.46-7.07,2.72l-.83.38c1.69,3.9,3.29,8.68.79,12.12-1,1.39-2.62,2.35-3.4,3.89a9.33,9.33,0,0,0-.75,3.09c-1.2,8.73-4.33,17.1-8.24,25l2.83.16a18,18,0,0,1,2.9,3.56,12.78,12.78,0,0,0,8.19-6.66,2.06,2.06,0,0,1,.75-1,1.85,1.85,0,0,1,1-.1,23.83,23.83,0,0,1,19.43,14.49l4.19-3a3.63,3.63,0,0,0,1.21-1.16,3.44,3.44,0,0,0,.32-1.2c.9-6.25-.09-12.59-.72-18.88-1-9.59-1.06-19.25-1.16-28.9Zm-15.53-146.28c-.83-1.88-1.77-3.82-3.45-5a11.17,11.17,0,0,0-4.46-1.53,146.28,146.28,0,0,0-18.2-2.19l-6.72,23.05c-3,10.19-6,20.89-3.8,31.28l-1.9,3.12c-2.27,3.51-3.43,7.61-4.56,11.64l-2.6,9.28a39.55,39.55,0,0,0-1.29,5.68l1,5.67a61.29,61.29,0,0,1-.18,10.32l3.92,5.7c4.12,4.55,8.12,9.67,9,15.74.43,2.85.15,5.75.27,8.63a30.41,30.41,0,0,0,3.3,12.43,43.49,43.49,0,0,1,3.25,6.65c.72,2.36.63,5.16-1,7l-1.77,4.9,1.87,3.75c1-1.12,2.73-1.28,4.2-1.7,4.5-1.27,7.63-5.37,9.59-9.61s3.12-8.86,5.48-12.9a24.55,24.55,0,0,1,8.83-8.79l.24-.48c-4.28-5-4.29-12.18-4.07-18.73q.26-7.32.5-14.64c.22-6.25.55-12.89,4.13-18,1.64-2.35,3.87-4.22,5.75-6.39s3.45-4.83,3.36-7.69l-.32-5a415,415,0,0,0-8.15-47.12Zm-135.21,11.12c8.07,6.38,21.15,2,29.22,8.44,3.1,2.45,5,6.17,8,8.71,5,4.16,12.14,4.53,17.53,8.11a17.15,17.15,0,0,1,7.23,10.85l2.56,2.92a23,23,0,0,1,12.53,4.34q2.61-13.14,5.23-26.27a7.67,7.67,0,0,0-.83-6.34l-6.35-13-1.28-4.92a33.19,33.19,0,0,0-8.83-13.77l-1.8-4.39c-10-3.69-19.74-8.52-30.25-9.59-5.79-.6-11.62,0-17.4.54l-2.95,1c-6.88,5-9.62,13.69-12.48,21.66Zm189.65-285.16c9.37-6.52,19.09-13.53,24.06-23.81a4.39,4.39,0,0,1,1.59-2.11,4.1,4.1,0,0,1,1.84-.33l21.63-.5c5-.12,10.12-.27,14.65-2.33,8-3.66,12.51-13.11,11.6-21.88S1248.08,723,1240.81,718s-16.06-7.35-24.82-8.31a48.92,48.92,0,0,0-4-23.79,8.9,8.9,0,0,0-2.68-3.84c-1.8-1.3-4.24-1.23-6.44-.88A34.48,34.48,0,0,0,1177,701.64c-.62,1.5-1.22,3.16-2.58,4a7.45,7.45,0,0,1-3.17.86c-11.47,1.36-23.75,4.07-31.34,12.78l-5.77,4.13c1.92,2.12,2.55,5.1,2.71,7.95s-.07,5.73.45,8.54c.77,4.16,3.13,7.85,5.72,11.2a13.16,13.16,0,0,0,2.5,2.66,14.62,14.62,0,0,0,5.78,2.13l.06,2.3a4.67,4.67,0,0,0,.41,4.35,43.06,43.06,0,0,0,2.71,3.65,28.7,28.7,0,0,1,3.06,6.48q3.23,8.5,7.18,16.71a4.35,4.35,0,0,0,.9,1.37,4.54,4.54,0,0,0,2,.85ZM391.68,413.15c13.84,21.61,27.7,43.22,42.07,64.49,6.44,9.52,13,19,20.71,27.51l15-2.12.52-19c-3.64-8.74,3.26-18.27,3.33-27.74,0-3.42-.86-6.88-.17-10.23a5.16,5.16,0,0,1,2.26-3.63,6.21,6.21,0,0,1,3.75-.36l5.23-4.58a22.1,22.1,0,0,1,9.92-13.81c3.32-2,7.11-3.13,10.84-4.2,8.23-2.37,16.63-4.75,25.18-4.4a6.09,6.09,0,0,1,3.05.7,4.56,4.56,0,0,1,1.67,4.8,13.1,13.1,0,0,1-2.52,4.74c-3.46,4.71-7.3,10.27-5.75,15.91,1.12,4,4.7,6.79,7.85,9.55s6.29,6.36,5.94,10.53l3.2,7.63a157.39,157.39,0,0,1,9.68,19.73c.65,1.59,1.36,3.31,2.84,4.17s3.91.15,4-1.56c6.26,6.38,17.09,7.23,22.2,14.56l4.44,2.79q2.55,8.46,5.08,16.92c1.74,5.81,3.52,11.7,6.77,16.82a52.36,52.36,0,0,0,9.58,10.7l3.7,4.19c.38,6.24,2.82,12.14,5.34,17.85,3.11,7.06,6.87,14.54,13.78,18l5.22,2.77,4.76-4.23,18.68-18.41a5.32,5.32,0,0,1,2-1.43,3.55,3.55,0,0,1,3.9,1.7,8.07,8.07,0,0,1,1,4.42c0,4.21-1.17,8.43-.52,12.59a15,15,0,0,0,7.51,10.7l4.65,2.07c1.23-1.55,2.61-3.17,4.52-3.69a6.84,6.84,0,0,1,5.57,1.31c4.17,2.92,5.88,8.19,7,13.14l7.84,11.73a19.43,19.43,0,0,0,8,6.63c7.65,3,16.6-1.73,24.4.87,6,2,10.11,8,16.21,9.76L768.52,642q9.65-3.65,19.35-7.11l6.21-.46a23.06,23.06,0,0,0,8.42-1.51l3.12.44,14.81,9.95c4.75,3.19,9.65,6.44,15.25,7.62,5,1.06,10.25.36,15.33-.4a13.1,13.1,0,0,0,4.55-1.25,4.51,4.51,0,0,0,2.5-3.76c2.19-.83,4.62-.08,7,0s5.2-1,5.36-3.37c0-.48,0-1,.37-1.34a1.58,1.58,0,0,1,1-.14,4.77,4.77,0,0,0,3.76-1.54c2.66,2.06,6.55,1.28,9.5-.31s5.58-3.88,8.8-4.82,7.45.15,8.41,3.36l-1,3.58c-1.92,3.56-5.45,6-7.76,9.3-4.26,6.12-3.77,14.22-5.09,21.56-1.15,6.46-3.78,12.48-6.62,18.44l5.3,5,27.24,17.42c1.72,1.11,3.53,2.31,4.38,4.17a10.7,10.7,0,0,1,.53,5.1q-1,17.37-2.44,34.7c-15.32-8-25.94-24.1-42.46-29.13l-14.67,1.14c-2.64,1.34-5.59,2.24-7.72,4.29a18.59,18.59,0,0,0-3,4.16l-8,13.74L838.39,752c.51,2.25,3.58,2.69,5.79,2.07s4.53-1.8,6.7-1,3.11,2.9,4.66,4.41c2.36,2.3,6,3.27,7.57,6.18a22.66,22.66,0,0,0,1.35,2.91,12.12,12.12,0,0,0,3.06,2.42,13.5,13.5,0,0,1,4.89,8.1,39.78,39.78,0,0,1,.58,9.63l-.66.77c2,.25,3.56,2,4.83,3.6a78.12,78.12,0,0,1,9.53,14.42,31.19,31.19,0,0,1,3.3,16.77l2.19,5.55q-.09,11.64-.75,23.28L890,854.79c-1.6,2.81-3.54,5.47-4.5,8.56a30,30,0,0,0-1,5.25q-.88,7.47-1.78,14.92c5.61.13,10.64,4.14,13.18,9.15s2.92,10.87,2.38,16.46l.06,3.55,5.68.47,25.47-3.33c2.43-.32,5.33-.46,6.86,1.45a5.83,5.83,0,0,1,1,2.81c.83,5.67-1.84,11.4-5.74,15.59s-8.95,7.11-13.92,10l-24.82,14.28-5.21,1.92-.56,3.64c.74,8.79-3.2,17.21-6.59,25.35a2.42,2.42,0,0,0-.26,1.52,2.21,2.21,0,0,0,.94,1.11,23.65,23.65,0,0,0,7.37,3.7,2.93,2.93,0,0,0,1.46.15,3.18,3.18,0,0,0,1.62-1.33,39.45,39.45,0,0,1,28.51-14.76c-2.77,2.41-1.21,7.11-2.84,10.4-.45.91-1.14,1.69-1.53,2.63a9,9,0,0,0-.49,3.39l-.12,7.29c4.27-4.41,10-7,15.68-9.4q11.77-4.95,23.83-9.16l9.37-4.27,7-6.86c8.18-10.75,11-24.51,13.8-37.71,1.49-6.9,4.16-15,11-16.76s12.92,3.87,17.88,8.76a79.73,79.73,0,0,0,13.64,11.24c6.16,3.82,13.2,6.32,18.61,11.16,6.47,5.79,9.82,14.23,12.65,22.45q3.27,9.52,6,19.21l4.46,10.44,1.56,6.32c4.2,1.95,8.75,4.25,10.53,8.53.8,1.93,1,4.13,2.11,5.87a12.12,12.12,0,0,0,4.48,3.51l2,1.47,3.39,1.06q7-20.14,13-40.62c1.64-5.61,3.22-11.24,5-16.81l0-12c.19-3.6-1.75-7-4-9.76s-5-5.3-6.7-8.45-2.45-6.86-3.23-10.43a175.19,175.19,0,0,0-6.5-22.57c-3.49-9.65-7.91-19.66-6.2-29.78.74-4.4,2.62-8.52,4.47-12.58l6.95-15.19c1.45-3.17,3.11-6.56,6.22-8.12l6.56-4.36-.15-4.16c.6-3.3-1.06-6.59-3-9.29s-4.42-5.15-5.74-8.23c-.64-1.48-1-3.06-1.54-4.57-2.86-8.1-10.25-13.57-17.16-18.67s-14.15-10.91-16.44-19.19c-1-3.7-1-7.61-1.36-11.43s-1.4-7.8-4.09-10.55c-2.39-2.45-5.77-3.6-9-4.66l-3.12-2.82a62.15,62.15,0,0,1-14.37-23.43l-.64-4.39a60.12,60.12,0,0,1-6.45-10.36,20.47,20.47,0,0,1-1.87-11.9l-.09-1a16.42,16.42,0,0,1-7.09-7.05,80.89,80.89,0,0,1-4.07-9.29,81.38,81.38,0,0,0-7.34-13.83l-.83-6.88a118.63,118.63,0,0,1-1.43-34.93l4.1-3c.52-6.57,1.14-13.44,4.68-19,1.09-1.7,2.44-3.25,3.36-5,3.12-6.15.65-13.56,1.34-20.42.23-2.2,1.06-4.69,3.14-5.42a4.56,4.56,0,0,1,4.72,1.53,12,12,0,0,1,2.26,4.71l1.45,5.72a182.71,182.71,0,0,0,10.73,34.58,14.83,14.83,0,0,0,3.11,5.14c.95.91,2.13,1.56,3.13,2.41a19.86,19.86,0,0,1,3.37,4.09q4.3,6.32,8.6,12.62l2.87,5.27c2.17,2.68,2.92,6.21,4.42,9.32,3.25,6.77,9.89,11.37,13.49,18a23.5,23.5,0,0,1,2.66,14.33l11,1.45,3.24-3.4a89.38,89.38,0,0,0,20.88-17.23c3.43-3.84,6.61-8.05,11-10.72,7.26-4.41,16.81-3.73,24.45,0,3.72,1.82,7.09,4.28,10.78,6.17,13.54,6.93,30,5.4,44.45.73a5.94,5.94,0,0,1,3.28-.43,6.12,6.12,0,0,1,2.86,2.22A60.63,60.63,0,0,0,1243,679.69c5.33,1.32,12.13,1.35,15-3.34a13.94,13.94,0,0,0,1.6-5.66c1.64-13,1.39-26.4-2-39.07s-10.12-24.63-20-33.23c-16.41-14.25-39.42-17.88-61.14-18.52l11.57-7.23c12-4.16,24.15-8.59,34.07-16.49s17.35-20,16.42-32.66c-.34-4.78-1.85-9.53-1.2-14.27.63-4.55,3.17-8.57,5.26-12.66a70.56,70.56,0,0,0,3.12-56.25c-1.78-4.69-4.24-9.39-8.44-12.13-6-3.87-14.1-2.75-20.2.9s-10.61,9.39-15,15l-50,64.44c1.32-21.66,2.64-43.47,0-65-.79-6.43-2-13-5.53-18.44s-9.88-9.47-16.29-8.51c-6.83,1-11.61,7.08-15.67,12.68l-30.19,41.61c-1.49,2.05-3.42,4.33-6,4.21-2.85-.13-4.54-3.14-5.68-5.76l-8.83-20.16c-2.39-5.45-5.27-11.4-10.78-13.65-7.35-3-15.52,2.09-20.83,8s-9.79,13.12-17.07,16.27c-11.7,5.06-26-2.35-37.71,2.76-6.72,2.94-12.74,9.93-19.83,8-7.65-2.06-8.72-13.3-4.26-19.86s12-10.13,18.14-15.18c5.1-4.23,9.42-9.68,15.53-12.23,5.93-2.46,12.68-1.81,18.89-3.42,15-3.87,23.59-19.71,27.18-34.76,1-4.18,1.81-8.55,4.29-12.06,3.75-5.3,10.41-7.48,16.34-10.12,18.07-8,32.54-23,42.28-40.17s15-36.63,17.94-56.19l8.34-11.05c19-13.41,30.24-35.63,34.86-58.38s3.26-46.26,1.26-69.39c-1-11.61-2.23-23.49-7.3-34s-14.79-19.5-26.4-20.46c-8.12-.68-16.61,2.51-24.25-.31-4.63-1.71-8.38-5.47-13.19-6.6-6.21-1.46-12.77,2-16.7,7.06s-5.73,11.37-7.23,17.58a283.63,283.63,0,0,0-7.28,46.72,296.52,296.52,0,0,0-26.7-34c-4-4.34-8.2-8.68-13.67-10.8-10.47-4-23.14,1.86-28.53,11.71S983,127,988.28,136.9c-23.06,10.41-49.65,6.26-74.95,6.32-7.73,0-16.71,1.15-20.75,7.74-2.66,4.33-2.32,9.8-1.64,14.83,1.58,11.64,5.26,24.14,15,30.7,3.11,2.1,6.7,3.48,9.6,5.86,6.64,5.47,8.25,14.91,8.64,23.51a147.37,147.37,0,0,1-.36,19.26c-.26,3.15-.7,6.49-2.68,8.95s-5.24,3.62-8.34,4.43c-17.26,4.5-38,3.7-49.43,17.39-5.61,6.7-7.65,15.63-11.82,23.3s-12.42,14.69-20.86,12.44c-5.76-1.54-9.74-7.12-11.06-12.93s-.47-11.88.53-17.76c3.27-19.39,8.61-39.69,22.84-53.26,6.59-6.29,15.08-11.16,18.93-19.42s2-18.35-3.29-25.75-13.41-12.3-22-15.24c-17.48-6-36.52-4.44-54.92-2.83l-.37-4.63C803.05,121,791.7,66.93,756.21,40.11c-7.46-5.64-19.73-9.35-24.84-1.53-1.87,2.87-2,6.49-2.15,9.91l-.9,27.68c-17.31-.6-33.51,14.91-33.68,32.22-.08,8.22,2.42,18-3.61,23.54-13.15-31.06-13.71-66.61-28.84-96.76-3.18-6.34-7.31-12.69-13.7-15.77S633,17.9,630,24.32a19.86,19.86,0,0,0-1.44,6.52c-6.22,61.84,17,122.68,43.72,178.81l-34.36-24.26c-11.18-7.89-22.5-15.86-35.22-20.91s-27.17-7-40.12-2.56c-6.08,2.09-12.11,6.07-14,12.22-2.47,8.1,3,16.76,1.61,25.11a94.3,94.3,0,0,1-22.61,1.82c-2.61-.1-5.47-.43-7.28-2.3-1.56-1.62-2-4-2.3-6.22l-4.86-32.46c7.07,3.14,15.85-1.41,19.26-8.35s2.43-15.34-.38-22.54-8.17-14.33-15.81-15.83c-3.89-.77-7.9,0-11.79.78C490.21,117,475,120.33,465,130.85c-6.68,7-10.21,16.48-12.25,26a105.05,105.05,0,0,0,.71,47l-5.87,8c-35.14,9.11-66.95-37.17-102.15-28.3-4.74,1.2-9.44,3.59-12,7.73s-2.68,9.21-2.09,14c1.86,14.93,10,28.51,20.36,39.44s22.86,19.52,35.27,28l-24,14.33c-2,1.19-4.17,2.6-4.79,4.85-.69,2.52.83,5.07,2.35,7.2a110.83,110.83,0,0,0,27.07,26.55c4.8,3.31,10.24,6.73,11.86,12.33,1,3.51.29,7.25-.43,10.83l-8.33,41.42Z"></path>
    <path data-name="3a" data-official="" data-plain="Stamen Flower" data-loc="" d="M829.07,2392.27c-2-8.54,2.36-17.11,4.26-25.67,3.63-16.27-1.75-33-7.26-48.77-2.43-6.91-4.93-14-4.39-21.34a26.3,26.3,0,0,1,44.83-16.64c2.48,2.49,4.76,5.65,8.21,6.34,2.71.54,5.56-.62,8.25,0,2.53.61,4.4,2.68,6.1,4.63,6.93,8,14.34,17.58,12.34,27.95-1.94,10.07-12.07,16.55-15.79,26.1a16,16,0,0,0-1.17,5.37c-.15,6.64,4.83,12.11,9.21,17.09s8.73,11.34,7,17.76c-1.4,5.21-6.37,8.56-11.09,11.18-11.85,6.59-24.61,11.7-38,14.07-5.33.94-11,1.4-16-.84s-8.62-8-6.84-13.12Z"></path>
    <path data-name="3b" data-official="" data-plain="Pistil and Ovary" data-loc="" d="M937.82,2398c-1.87-9,4.66-17.43,6.75-26.39,2-8.4-.06-17.17-2.34-25.48-6.17-22.53-14.39-44.67-17.14-67.87s.7-48.34,15.53-66.39c2.56-3.11,5.47-6.05,7-9.76,2.29-5.41,1.37-11.65-.43-17.24-4.3-13.33-13.39-25.35-14.07-39.34a12.24,12.24,0,0,1,1.12-6.53c2.21-4,7.8-5,12.08-3.47s7.54,5.08,10.46,8.59a169.93,169.93,0,0,1,27.24,45.78c1.77,4.45,3.39,9,6.24,12.89,2.63,3.56,6.19,6.32,9.25,9.51,14.88,15.52,16.58,39.06,17.44,60.54.64,16.18,1.21,32.9-4.68,48-3.27,8.38-8.5,16.19-9.48,25.13-1.51,13.89,7.6,27.65,4.73,41.33-1.67,7.94-7.35,14.68-14.32,18.83s-15.15,5.91-23.25,6.39c-11.39.68-23.72-1.49-31.87-9.49Z"></path>
    <path data-name="3c" data-official="" data-plain="Section of Fruit" data-loc="" d="M1050,2396.51a23.6,23.6,0,0,1-2.33-18.43c1.67-5.73,5.54-10.84,6-16.79.62-8.15-5.19-15.14-9.45-22.11-11.6-19-12.79-42.42-11.81-64.63.41-9.54,1.37-19.64,7-27.35,6.69-9.13,18.38-12.88,27.29-19.86,2.65-2.08,5.11-4.48,8.14-6s6.88-1.88,9.62.08c2.27,1.63,3.28,4.44,4.92,6.7,3.11,4.29,8.32,6.39,12.77,9.27,10.72,7,17.32,19,20.3,31.45s2.76,25.38,2.47,38.16c-.17,7.69-.37,15.48-2.47,22.89-2.29,8.07-6.72,15.33-10.89,22.61-1,1.76-2,3.65-1.93,5.68.13,2.35,1.74,4.3,2.89,6.35,2.93,5.27,2.9,11.61,2.8,17.64,0,2.82-.14,5.8-1.64,8.19s-4,3.71-6.47,4.88a92.22,92.22,0,0,1-51.63,7.88Z"></path>
    <path data-name="4" data-official="Myrica gale" data-plain="Sweet gale" data-loc="Britain" d="M1213.61,1012.73l-4.44.18a23.69,23.69,0,0,1-1.37,9.74,45.66,45.66,0,0,1-13.57,20.35l-.84,1.37a21.21,21.21,0,0,1-2.94,13.08l0,1.34a24.2,24.2,0,0,1,10-2.22l.37-.7c-.58-4.18,2-8.34,5.52-10.66s7.85-3.1,12.06-3.38a35.93,35.93,0,0,0,6.79-.76,8.72,8.72,0,0,0,5.48-3.78l-2.59-5.46C1224.2,1024.77,1220.13,1017.47,1213.61,1012.73Zm1,1006.11c6.24-8.41,12.71-17.37,13.77-27.79.58-5.7-.53-11.45-2.16-16.94a90.4,90.4,0,0,0-8.69-20.06c-2.72-4.64-5.89-9.11-7.53-14.23-1.9-6-1.58-12.42-1.11-18.69.2-2.79.52-5.8,2.37-7.9,1.68-1.92,4.31-2.7,6.84-3.1a35.14,35.14,0,0,1,26.88,6.95c1.1.86,2.39,1.85,3.73,1.49,1.88-.51,2.14-3.11,1.6-5-1.68-5.92-6.9-10-11.33-14.28-17.6-17-25.34-43.65-19.63-67.48.87-3.61,2-7.25,1.67-10.94-.37-3.92-2.4-7.47-3.28-11.3-.79-3.47-.63-7.08-1.25-10.58s-2.26-7.13-5.44-8.71a15,15,0,0,0-6.53-1.06l-19.77-.25h-6.64a44.15,44.15,0,0,0,4.28-9.94,24.31,24.31,0,0,1,2.13-5.94c1.3-2.16,3.38-3.71,5.13-5.51s3.26-4.19,2.92-6.69c-.25-1.84-1.49-3.45-1.63-5.31s1-3.84,1.95-5.59c7.46-13.45,7.46-29.63,7.08-45l.08-4.62,5.11-.94a53.4,53.4,0,0,1,22.75,5.11c2.69,1.28,5.26,2.77,8,4,3.13,1.46,6.41,2.57,9.61,3.87,4.31,1.75,8.47,3.83,12.82,5.48,3.2,1.2,6.48,2.17,9.76,3.13l36.85,10.79,13.84,8.33c6.92-1.42,14.2.06,20.61,3s12,7.34,17.42,11.94a103.3,103.3,0,0,1,16.91,17.62c4.77,6.61,8.37,14.22,9.47,22.3l-2,8-2.42,35.54c-.33,4.88-.66,9.76-1.41,14.59a155.66,155.66,0,0,1-3.39,15.38q-7.15,27.59-16.1,54.66l-.54,5.31a173.37,173.37,0,0,0-16.49,51.6c-1,6.63-1.81,13.72-6.07,18.9-5.7,6.93-15.94,8.38-22.43,14.59-3.86,3.7-6.1,8.82-9.89,12.58-6.74,6.7-18,8.82-22.13,17.38-1.91,4-1.83,8.58-1.72,13l2,75.93c.11,4.19,0,8.89-2.93,11.85-1.59,1.58-3.81,2.43-5.3,4.09-3.85,4.29-1.09,11-1.3,16.75-.28,7.54-6.43,14.09-13.68,16.2s-15.22.33-21.79-3.38c-5.73-3.23-11-9-10.24-15.5,1-8.36,11.12-12.59,14.24-20.42,2.91-7.28-.9-15.29-2.7-22.92-3.53-14.89.74-30.59-1.21-45.78-.37-2.87-1-5.87-3-8-4.19-4.7-12.11-3.18-17.19.56s-8.83,9.16-14.27,12.34c-4.51,2.63-10,3.62-13.8,7.21-6.39,6.05-5.12,16.37-3.28,25s3.31,18.83-2.86,25.09c-5.5,5.58-14.52,5.24-22.2,3.76s-15.9-3.68-23.1-.61c-4.32,1.85-7.69,5.39-11.86,7.55-5.76,3-12.52,3.12-19,3.18-4.48,0-9.74-.31-12.22-4-2.34-3.53-.83-8.5,2.09-11.58s6.92-4.81,10.57-7c14.6-8.61,23.69-23.85,34.07-37.25,19-24.56,43.64-44.09,68-63.37ZM1135.73,959.36c19.45,2.06,36.76,13.26,51.58,26l3.76,2.24c.51,11.39,3.55,23.06.34,34a12.66,12.66,0,0,1-1.51,3.5,33.45,33.45,0,0,1-3.34,3.61,15.31,15.31,0,0,0-4,9.28l.58.49a6.29,6.29,0,0,1-3.79,2.21h-.58c-.64-2.3-3-3.79-5.28-4.29a29.8,29.8,0,0,0-7.13-.15,38.47,38.47,0,0,1-15.07-2.67c-7.42-2.94-14.09-8.25-22-9.07l-2.36-.77a12.26,12.26,0,0,0-8.58-5.67c-1.55-.22-3.31-.22-4.38-1.36a4.48,4.48,0,0,1-1-3.19c0-4.28,2.14-8.26,2.88-12.47s0-8.71.06-13.08a4.83,4.83,0,0,1,.49-2.52c1.49-2.49,5.67-1.09,7.94-2.91a4.4,4.4,0,0,0,1.4-3.91,12,12,0,0,0-1.43-4.06c-.75-1.47-1.56-3.13-1-4.69a6.19,6.19,0,0,1,1.22-1.85,32.87,32.87,0,0,0,4.74-7.8Zm140.82-1.55a81.79,81.79,0,0,0,7.15-27.19,14.3,14.3,0,0,1,1.07-5.28c.8-1.62,2.53-2.94,4.31-2.65l10-1.37c.13-1.65.27-3.31.41-5,.31-3.77.65-7.61,2.17-11.06l-2.46-2.23,1.9-5.88,1-5.67c.74-4,1.51-8,3.51-11.58s5.5-6.47,9.54-6.7c4.28-.24,8.27,2.61,10.5,6.27s3,8,3.45,12.27c.34,3.12.56,6.25.64,9.38l.2,4.27-4.1,1.89c-1.55,2.29-1.51,5.26-1.41,8,.21,6.25.45,12.62,2.66,18.47l3.93,2.82c5.36.21,10.46,2.51,14.82,5.64a83.26,83.26,0,0,1,11.72,11l11.76,12.54.79,5.72a10.07,10.07,0,0,0,2.18,5.75l.46,10.38a137.61,137.61,0,0,0-.14,30.43l15.89-8.38c2.87-1.52,5.94-3.07,9.18-2.85,3.48.25,6.48,2.53,9,5a46.5,46.5,0,0,1,9.49,13.65,5.11,5.11,0,0,0,1.44,2.16c1.3.94,3.2.35,4.39-.72s2-2.54,3.06-3.7c3.75-4,10.13-3.57,15.48-2.41,9.08,2,18.8,6,22.54,14.52,2.19,5,1.93,10.66,3.25,15.94,1.65,6.59,5.68,12.29,8.62,18.42,6.11,12.71,7.45,27.11,8.7,41.16l-.24,5.86-2.73,36q11-8.94,22.52-17.3a41.52,41.52,0,0,1,9.67-5.73c4.24-1.59,8.85-1.8,13.37-1.76a124.4,124.4,0,0,1,34.75,5.36c2.29.7,4.78,1.45,7,.55a9.77,9.77,0,0,0,3.65-3.21,151.94,151.94,0,0,0,19.92-32.38c2.47-5.43,4.66-11.09,8.33-15.78,2.55-3.25,5.83-6.11,7.16-10a22.91,22.91,0,0,0,.91-6.06l1.83-30.43-.53-4.51,5.58-2.58a92.05,92.05,0,0,1,13.12,2.53c3.41.83,7,1.77,9.44,4.34,1.86,2,2.73,4.68,3.55,7.28,1.18-8,1.8-16.35-1.26-23.79-2.38-5.77-6.79-10.49-9.35-16.18-5-11.23-2.16-24.25-3.31-36.51l4.27-6,30.91-39.59c3-3.8,6.08-7.72,10.39-9.88,8.31-4.16,18.78-.38,25.31,6.23,12.32,12.48,13.46,31.85,13.86,49.39l.62,27.47c11.34-6.39,18.61-18.43,22.11-31s3.69-25.73,3.94-38.75c.44-22.65,1.17-45.55,7.21-67.38s18-42.79,36.74-55.48c5-3.39,10.76-6.22,16.8-6s12.26,4.41,13.06,10.4c.45,3.43-.85,6.9-.48,10.34s3.9,7,6.93,5.35a6.93,6.93,0,0,0,2.13-2.18c11.71-16.11,25.84-33.35,45.59-35.88a22.86,22.86,0,0,1,12.16,1.34c10.88,4.84,13,19.1,13.42,31q1.13,34.95-.58,69.9a43.11,43.11,0,0,1,28.26,5.13l2,5c5.93,28.53,4.82,60.59-12.9,83.73-4.21,5.5-9.23,10.32-13.92,15.41-15.09,16.37-26.79,35.52-38,54.76-3.39,5.83-6.79,11.74-11.45,16.61a82.85,82.85,0,0,1-11.49,9.45c-10.09,7.34-20.27,14.73-31.57,20s-24,8.38-36.33,6.67l-2,3.79a13.44,13.44,0,0,1,13.1,11.81c28.6-4.76,55.28-17.09,82.43-27.26,5-1.89,10.13-3.72,15.45-4.44,4.68-.63,9.42-.39,14.14-.35a173.69,173.69,0,0,0,27.62-1.91c4.72-.7,10.19-1.39,13.66,1.88a13.08,13.08,0,0,1,3.11,5.65c2.32,7.2,2.78,14.87,2.89,22.44.1,6.87-.07,13.8-1.56,20.5-2.5,11.29-8.59,21.41-14.58,31.3-2.84,4.69-5.71,9.42-9.51,13.38-6.41,6.67-15,10.71-23.59,14.23-16.49,6.79-33.49,12.22-50.48,17.65l-5.25.58c-9.92-1.69-20.44-3.31-29.76.48-5.12,2.08-9.48,5.66-13.48,9.47l-.88.75c1.52,1.46,1.09,4.08-.13,5.81s-3,2.93-4.38,4.56c-1.49,1.81-2.34,4.06-3.76,5.93-2.18,2.88-5.52,4.62-8.09,7.16-2.12,2.1-3.67,4.71-5.76,6.84-5.69,5.81-14.35,7.27-22.39,8.43l-1.23.51a6.89,6.89,0,0,1-.21,5.41,15.53,15.53,0,0,1-3.26,4.47c-4.64,4.72-10.88,8.4-17.49,8.07a13.83,13.83,0,0,1-1.86,4L1716,1286c-4.6,2.56-9.74,4-14.82,5.35l-10.51,2.87a94.46,94.46,0,0,1-11.25,2.59,16.92,16.92,0,0,0-4.19.9,21.26,21.26,0,0,0-3.46,2.12,25.8,25.8,0,0,1-10.52,4.05,68.74,68.74,0,0,0-6.89.94c-3,.77-5.66,2.47-8.44,3.84-7.57,3.72-16.07,5-24.42,6.17l-4.41,2.24c1.43,11.25-5.86,21.59-8.54,32.61-.87,3.58-1.25,7.26-2.2,10.82-2.39,8.93-8.26,16.62-15.25,22.68a53.13,53.13,0,0,0-6.84,6.39c-2,2.54-3.42,5.55-5.16,8.31-4.69,7.45-11.93,12.85-18.45,18.77a42.19,42.19,0,0,0-7.49,8.36,83.31,83.31,0,0,0-4.4,8.82,61.83,61.83,0,0,1-16.17,20.63c-5.62,4.66-12.11,8.35-17,13.76s-8,13.38-5.15,20.09c3.41-2.33,8.93.24,9.34,4.35.09.93,0,2,.72,2.64,1,.9,2.55.09,3.61-.73,9.46-7.26,19.07-14.68,26-24.4,5.54-7.78,9.13-16.75,13.5-25.24a150.72,150.72,0,0,1,27.59-37.76l3-3.71a31.79,31.79,0,0,1,21.3-12.53c3-.39,6.21-.35,9-1.55,3-1.27,5.38-3.85,8.54-4.48,2.47-.5,5,.28,7.52-.09,3.5-.52,6.32-3.21,9.75-4.1,3-.77,6.21-.09,9.27-.64,3.35-.61,6.28-2.66,9.57-3.55a24.86,24.86,0,0,1,7.89-.5,97.72,97.72,0,0,1,10.38,1.13l4.48,3c6.33,4.65,15.6,1.67,22.79,4.83a17,17,0,0,0-7.09.84,9.87,9.87,0,0,0-5.4,4.51c-.81,1.55-1.1,3.33-1.76,4.95a23.18,23.18,0,0,0-1.73,4.21c-.29,1.49.22,3.32,1.64,3.86l1.42-.05a21.65,21.65,0,0,0-5.91,6.26c-.93,1.49-1.68,3.1-2.73,4.51-2.11,2.83-5.26,4.65-8.33,6.4v.39a8.79,8.79,0,0,1,5.19,3.29l-.33.49a5.26,5.26,0,0,0-3.53,1.69,17.09,17.09,0,0,0-2.33,3.24,27.93,27.93,0,0,1-5.6,7,11.22,11.22,0,0,1-8.28,2.81l-.89.45,8.64,6,.49.87c-2.64-.56-5,1.65-6.9,3.54a59.15,59.15,0,0,1-31.68,16l-.7,0a10.09,10.09,0,0,1,.68,6l-.23,1c-2.67.46-4.92,2.2-7.12,3.79a85.7,85.7,0,0,1-25.18,12.41,7.88,7.88,0,0,0-2.79,1.23c-1.66,1.35-1.93,3.85-3.48,5.31l-3.18,1.9a212,212,0,0,1-23.44,43.91c-2.54,3.64-5.19,7.19-7.84,10.75-2.82,3.8-5.64,7.59-8.5,11.36q-13.81,18.22-28.58,35.69l-4.72,4.36c-14.8,17.4-37.57,26-54.18,41.64a44.14,44.14,0,0,0-7.8,9.29,67.84,67.84,0,0,0-4.69,10.47c-4.34,11.15-9.36,22-14.37,32.9-11.54,25-23.61,50.77-44,69.24l-2.45,1.84c.21,2.13-2.48,3.58-4.56,3s-3.55-2.32-4.92-4a240.33,240.33,0,0,0-32.76-32.76l-.81-.81c1.31-3.52-.4-7.5-2.87-10.33s-5.67-4.94-8.19-7.72a22.62,22.62,0,0,1-4.48-22.24l2.65-2.43a41.7,41.7,0,0,1,16.49,9.41l5-56.67a8,8,0,0,0-.16-3.28,7.66,7.66,0,0,0-1.6-2.47,123.12,123.12,0,0,0-12.91-13c-5.41-4.72-11.25-9-16.25-14.12l-2.34-4.69.9-12.54a6.07,6.07,0,0,0-.06-2c-.47-1.86-2.46-2.84-4.24-3.57l.82-1.22.48-7.73a1.5,1.5,0,0,1,.25-.89,1.37,1.37,0,0,1,.89-.36,12.49,12.49,0,0,0,2.66-.41,2.37,2.37,0,0,0,1.68-1.9c.09-1.45-1.58-2.27-2.49-3.41-1-1.31-1-3.12-1-4.79.12-5.48.48-11.56,4.38-15.41l3.1-1.08a102.32,102.32,0,0,1,22.33,37.31c1.31,3.9,3.07,8.54,7.11,9.35,3.58.71,7-2.3,8.29-5.71s1.12-7.18,1.45-10.81c.68-7.36,3.52-14.36,4.52-21.67a58.92,58.92,0,0,0-.93-19.32c-5.57-28.53-25.42-53.63-51.36-66.75-5.07-2.56-10.4-4.72-14.86-8.24-7.87-6.21-12.1-15.88-18.72-23.42-4-4.55-8.87-8.32-12.48-13.19-5.39-7.27-7.54-16.37-9.57-25.18l-1.52-.18a23.67,23.67,0,0,0-7.16.71c-2.46-11.25-7.81-21.71-14.36-31.18s-14.3-18-22-26.58l-1.23-.57a9.1,9.1,0,0,0-2.89,4.65l-.8.2c-1.11-6.21-4.42-11.85-8.39-16.75s-8.64-9.2-13-13.75c-2.26-2.35-4.51-4.89-5.5-8l-.21-.48a26.29,26.29,0,0,0-7.76,5.26c-1.35-8.24-6.3-15.4-11.44-22q-6.5-8.32-13.66-16.08l-1.23-.1-3.81,8.39c-2.49-7.21-5.49-14.81-11.71-19.22l-2.4-1.07a3.63,3.63,0,0,0,1.21-1.16,3.44,3.44,0,0,0,.32-1.2c.9-6.25-.09-12.59-.72-18.88-1-9.59-1.06-19.25-1.16-28.9l-2.68-6.65,4.94,2.66,4,1.06a111.9,111.9,0,0,1,15.91-1.86,2.76,2.76,0,0,1,1.31.15,3,3,0,0,1,.86.73l2.18,2.46,3.64,1.61c3.87.11,5.21,5.93,9,6.86a6,6,0,0,0,2.53,0c6.84-1.21,11.52-8.26,11.94-15.19s-2.54-13.65-6.2-19.55l1.16-1c6.71-.1,14-.42,19.09-4.82,3-2.59,4.76-6.3,5.95-10.06,1-3.28,1.89-7,4.69-9a15.77,15.77,0,0,0,2.85-2c.78-.85,1-2.37.11-3.07a2.85,2.85,0,0,0-1.56-.42l-8.5-.67-2.44-1.76a7.64,7.64,0,0,1-5.18-1.54,2.51,2.51,0,0,1-1.21-2.43,2.4,2.4,0,0,1,1.77-1.45,11.08,11.08,0,0,0,2.3-.67,3.86,3.86,0,0,0,1.76-2.53,11.21,11.21,0,0,0,.16-3.17l-.14-3.51-3-4.69a31.23,31.23,0,0,0-12.26-22c3.37,0,6.49-2.1,8.43-4.85a24,24,0,0,0,3.54-9.39,64.16,64.16,0,0,0,1.08-16.25l-1-1.07a43.64,43.64,0,0,0-23.76,8.78c0-3-.26-6.46-2.59-8.4l-.33-1.07a37.81,37.81,0,0,0,4.12-7.7,28.84,28.84,0,0,1,1.23-3.41c1.82-3.64,6-5.35,9.81-6.77a6.79,6.79,0,0,1,2.85-.6,7.74,7.74,0,0,1,2.89,1.14,28.67,28.67,0,0,0,12.63,3.4c6.32.19,12.57-1.7,18.88-1.34l.65,0a1.74,1.74,0,0,0,1.17,2,5.08,5.08,0,0,0,2.57,0l9.44-1.45c4.25-.66,8.66-1.37,12.24-3.77l4.63,2.53a15.18,15.18,0,0,0,14.26,5.12c1.48-.28,2.91-.78,4.41-.93a9.28,9.28,0,0,1,4.33.59c2.24.87,4.65,2.62,6.77,1.49,1.55-.81,2-2.79,2.06-4.54a20.72,20.72,0,0,0-4.65-12.66,51.15,51.15,0,0,0-10-9.35l-.76-5a12.28,12.28,0,0,0,3.77-6.82c.62-3.41-.23-7,.42-10.37a62.62,62.62,0,0,1,2-6.05,19.9,19.9,0,0,0,.5-9.42l-1.64-.5a59.06,59.06,0,0,0-13.29.13l-1.65-4.31c-.87-2.62-.73-5.45-.59-8.21l1.1-20.37Z"></path>
    <path data-name="4a" data-official="" data-plain="Pistil Flower" data-loc="" d="M1202.12,2354.63c-11.88-2.23-21.47-11.51-27.1-22.2s-7.92-22.78-10.13-34.66l-4.65-24.88c-.81-4.36-1.46-9.4,1.44-12.76a9.86,9.86,0,0,1,5.93-3.05c6.46-1,12.8,2.46,17.86,6.62s9.57,9.15,15.45,12a7.87,7.87,0,0,0,4,1c2.73-.23,4.72-2.92,5.12-5.62s-.42-5.43-1.19-8.05c-2.09-7-4-14.21-4.14-21.54s1.66-14.92,6.31-20.6a9.26,9.26,0,0,1,3.34-2.76c3.8-1.61,8.07,1.39,10.2,4.92s3.1,7.74,5.7,10.94c1,1.23,2.48,2.36,4,2s2.46-2.23,3.22-3.77a14.14,14.14,0,0,1,8-7.42c3.56-1.14,7.9-.15,10.12,2.86,2,2.7,2,6.33,1.78,9.68a104.07,104.07,0,0,1-7.2,31.49c-1.66,4.16-3.54,9.11-1,12.82,2.7,4,9.09,3.62,12.87.6s5.66-7.72,7.69-12.1,4.67-8.92,9.1-10.83c5.44-2.36,12.1.22,15.86,4.81s5.1,10.7,5.43,16.63a116.26,116.26,0,0,1-.9,18.26c-1,9.46-2,19-5.21,28s-8.82,17.39-17,22.15c-3.12,1.8-6.56,3.05-9.44,5.22s-5.2,5.59-4.69,9.16c.68,4.75,5.77,7.48,8,11.7,2.5,4.66,1.11,10.71-2.27,14.78s-8.35,6.48-13.39,8.1c-12.59,4.05-26.13,3.89-39.31,2.82-4.81-.39-10.1-1.14-13.28-4.77-3.33-3.8-3.19-9.55-1.78-14.39s3.92-9.38,4.78-14.35a44.28,44.28,0,0,0,.43-8.06Z"></path>
    <path data-name="4b" data-official="" data-plain="Section" data-loc="" d="M1348.92,2387.15c-3.56-2.42-3.63-7.77-2-11.77s4.41-7.49,5.55-11.65c2.37-8.7-3.09-17.36-7.66-25.14-12.26-20.88-19.68-45.2-17.41-69.3.24-2.51.61-5.11,2-7.22,2.67-4.1,8.42-5.42,10.9-9.63,1.77-3,1.83-7.31,4.88-9a8.41,8.41,0,0,1,4.67-.59c5.55.42,11,1.5,16.6,1.81,8.71.48,17.41-.94,26.13-1.22s17.85.67,25.19,5.4a10.88,10.88,0,0,1,3.9,3.81c1.56,2.92,1,6.85,3.21,9.27,1.83,2,4.86,2.18,7.31,3.3a12.9,12.9,0,0,1,6.3,7.2c2.42,6.25,1.18,13.25-.1,19.83-2.89,14.91-5.82,29.93-11.43,44-2.67,6.72-6,13.37-6.56,20.58s1.7,14.86-.18,22c-2.08,7.84-9,13.67-16.59,16.56s-15.85,3.31-24,3.7c-5.95.29-12.27.49-17.44-2.47-2.78-1.6-5-4-8-5.33Z"></path>
    <path data-name="4c" data-official="" data-plain="Seed-vessel" data-loc="" d="M1461.74,2352.9c-10.42-11.11-11.82-27.79-11.38-43,.26-8.71,1-17.55,4-25.73,4.06-11,12-20.21,17.08-30.85,2.51-5.29,4.95-11.58,10.52-13.38,5.15-1.66,10.83,1.62,13.79,6.15s3.88,10,5,15.34a193.84,193.84,0,0,0,10,33.25c3,7.47,6.48,14.87,7.64,22.83a40.94,40.94,0,0,1-7.45,29.83c-1.49,2-3.21,4-3.92,6.39-2.61,8.83,9.26,16.83,7.34,25.84-1.12,5.26-6.5,8.35-11.48,10.38a101.23,101.23,0,0,1-41.79,7.47c-3.07-.11-6.3-.43-8.83-2.17-3.2-2.2-8.61-6.22-9.12-10.07-1.3-9.73,6.18-20,13.13-26.92Z"></path>
    <path data-name="5" data-official="Myrica javanica" data-plain="" data-loc="Java" d="M1718.18,2047c-19.28-4.89-31.38-24.75-50-31.85-9.18-3.5-19.34-3.64-28.64-6.8-22.23-7.56-35.66-30.64-56.7-41.06-10.24-5.07-21.74-6.87-33-8.61-21.2-3.26-43.1-6.49-63.88-1.16-10.24,2.63-20,7.3-30.45,8.71-3.08.42-6.32.58-9,2.13s-4.28,4-5.93,6.38l-58.07,85.3c-2.76,4.06-5.49,9.74-2.28,13.46,3.94,4.56,11.53.56,17.34,2.13,5.12,1.38,8,7.18,7.81,12.48s-2.84,10.17-5.53,14.74c-6.62,11.21-16.53,23.17-29.52,22.35-7-.45-14.69-4.63-20.67-.86-2,1.29-3.66,3.43-6,3.77-4,.58-6.58-4.14-7.74-8a203.2,203.2,0,0,1-8-45.16c-.75-12.1-.39-24.46,3.33-36,3.59-11.12,10.14-21,16.66-30.72q29.39-43.63,60.34-86.2c3.79-5.21,7.7-10.62,9-16.93s-.15-13-1.81-19.38a365.08,365.08,0,0,0-29.43-76.48l-4.9-6.19,2-8c-1.1-8.08-4.7-15.69-9.47-22.3a103.3,103.3,0,0,0-16.91-17.62c-5.37-4.6-11-9-17.42-11.94s-13.69-4.44-20.61-3l-13.84-8.33L1268,1721.07c-3.28-1-6.56-1.93-9.76-3.13-4.35-1.65-8.51-3.73-12.82-5.48-3.2-1.3-6.48-2.41-9.61-3.87-2.7-1.25-5.27-2.74-8-4a53.4,53.4,0,0,0-22.75-5.11l-5.11.94c-.77-2.84-1.63-5.82-3.73-7.9a17,17,0,0,0-4.35-2.82c-3.55-1.81-7.23-3.66-11.21-3.91-2-.13-4.16.17-6.08-.55-2.24-.84-3.78-2.94-4.78-5.11s-1.58-4.53-2.64-6.68l-4.1-8.54c-14.73-8.6-29.57-17.43-41.68-29.44a23.79,23.79,0,0,0-4.45-3.82,7,7,0,0,0-5.62-1l-2.67,2.43-5.57-1.92a144.8,144.8,0,0,1-29.09-48.68l-4.78,1.32c1.1-6.59,2.13-13.75-1-19.66a40.68,40.68,0,0,1-2.15-3.94,15.54,15.54,0,0,1-.52-7.28l.51-6.39a47.31,47.31,0,0,1-3.19-38.54l-.16-1q-3.52-9.2-6.41-18.63a79.44,79.44,0,0,1-3.58-16.13c-.32-3.68-.2-7.38-.68-11s-1.56-7.33-2.28-11c-1.64-8.49-1.28-17.23-.9-25.87.07-1.66.27-3.58,1.65-4.51,2.34-1.59,5.19,1.06,6.76,3.41l.15-.62a383.08,383.08,0,0,1,.38-84.89l5.46,8,1.37.15c-1.52-6-.41-12.35,1.2-18.32s3.72-11.88,4.25-18l4.18-9a147.07,147.07,0,0,0,29.76-40.28l2.83.16a18,18,0,0,1,2.9,3.56,12.78,12.78,0,0,0,8.19-6.66,2.06,2.06,0,0,1,.75-1,1.85,1.85,0,0,1,1-.1,23.83,23.83,0,0,1,19.43,14.49l4.19-3,2.4,1.07c6.22,4.41,9.22,12,11.71,19.22l3.81-8.39,1.23.1q7.15,7.75,13.66,16.08c5.14,6.57,10.09,13.73,11.44,22a26.29,26.29,0,0,1,7.76-5.26l.21.48c1,3.11,3.24,5.65,5.5,8,4.38,4.55,9,8.84,13,13.75s7.28,10.54,8.39,16.75l.8-.2a9.1,9.1,0,0,1,2.89-4.65l1.23.57c7.73,8.54,15.47,17.11,22,26.58s11.9,19.93,14.36,31.18a23.67,23.67,0,0,1,7.16-.71l1.52.18c2,8.81,4.18,17.91,9.57,25.18,3.61,4.87,8.48,8.64,12.48,13.19,6.62,7.54,10.85,17.21,18.72,23.42l-2,8.72q11.9,36.6,25.49,72.63V1552l-3.1,1.08c-3.9,3.85-4.26,9.93-4.38,15.41,0,1.67,0,3.48,1,4.79.91,1.14,2.58,2,2.49,3.41a2.37,2.37,0,0,1-1.68,1.9,12.49,12.49,0,0,1-2.66.41,1.37,1.37,0,0,0-.89.36,1.5,1.5,0,0,0-.25.89l-.48,7.73-.82,1.22c1.78.73,3.77,1.71,4.24,3.57a6.07,6.07,0,0,1,.06,2l-.9,12.54,2.34,4.69.07,10.67q1.38,14.16,2.75,28.32c1.18,12.18,2.4,24.49,6.48,36l.13,5.15-2.65,2.43a22.62,22.62,0,0,0,4.48,22.24c2.52,2.78,5.72,4.89,8.19,7.72s4.18,6.81,2.87,10.33l.81.81a240.33,240.33,0,0,1,32.76,32.76c1.37,1.66,2.85,3.43,4.92,4s4.77-.91,4.56-3l4.72,1.24c2.35,3.43,7.91,2.48,11-.32s4.77-6.81,7.68-9.78c6.9-7,18.22-6.35,28-5.16-2.33-11.06,3.8-22.28,3.08-33.56-.25-3.9-1.31-7.69-1.85-11.55-1.64-11.5,1.7-23.92,10-32s21.75-11,32.12-5.8l-2-14.27c-.89-6.45-1.7-13.39,1.29-19.18,3.42-6.62,10.87-10,17.84-12.63,6.62-2.54,13.48-5,20.58-4.94s14.58,2.87,18.37,8.87c2.08,3.28,2.89,7.18,3.49,11a121.36,121.36,0,0,1,.28,35.09c-.19,1.34-.37,2.81.35,4,.82,1.31,2.5,1.72,4,2.11a38.25,38.25,0,0,1,20.27,13.25q3.42-18.48,6.82-37c1.11-6,2.22-12.19,1.2-18.22-.85-5-3.14-9.66-4.62-14.53-2.64-8.66-2.71-17.87-2.34-26.91a295.78,295.78,0,0,1,10.35-66.36l-.46-12.14a210.65,210.65,0,0,0,10.43-22.65l3.18-1.9c1.55-1.46,1.82-4,3.48-5.31a7.88,7.88,0,0,1,2.79-1.23,85.7,85.7,0,0,0,25.18-12.41c2.2-1.59,4.45-3.33,7.12-3.79l.23-1a10.09,10.09,0,0,0-.68-6l.7,0a59.15,59.15,0,0,0,31.68-16c1.93-1.89,4.26-4.1,6.9-3.54l-.49-.87-8.64-6,.89-.45a11.22,11.22,0,0,0,8.28-2.81,27.93,27.93,0,0,0,5.6-7,17.09,17.09,0,0,1,2.33-3.24,5.26,5.26,0,0,1,3.53-1.69l.33-.49a8.79,8.79,0,0,0-5.19-3.29v-.39c3.07-1.75,6.22-3.57,8.33-6.4,1-1.41,1.8-3,2.73-4.51a21.65,21.65,0,0,1,5.91-6.26l-1.42.05c-1.42-.54-1.93-2.37-1.64-3.86a23.18,23.18,0,0,1,1.73-4.21c.66-1.62,1-3.4,1.76-4.95a9.87,9.87,0,0,1,5.4-4.51,17,17,0,0,1,7.09-.84c-7.19-3.16-16.46-.18-22.79-4.83l-4.48-3,3-7.2a111.89,111.89,0,0,0,10.68-21.43c1.6-4.32,2.34-10.33-1.75-12.46-3.28-1.72-7.21.6-10,3.1-5.84,5.35-10.47,12-16.91,16.66-9.06,6.5-20.72,8.19-31.87,8.11-5.12,0-11.29-1.13-13.17-5.9a13.44,13.44,0,0,1-.71-4l-2.68-34.67-2.65-4.54c8.35-1.2,16.85-2.45,24.42-6.17,2.78-1.37,5.44-3.07,8.44-3.84a68.74,68.74,0,0,1,6.89-.94,25.8,25.8,0,0,0,10.52-4.05,21.26,21.26,0,0,1,3.46-2.12,16.92,16.92,0,0,1,4.19-.9,94.46,94.46,0,0,0,11.25-2.59l10.51-2.87c5.08-1.38,10.22-2.79,14.82-5.35l2.73-2.22a13.83,13.83,0,0,0,1.86-4c6.61.33,12.85-3.35,17.49-8.07a15.53,15.53,0,0,0,3.26-4.47,6.89,6.89,0,0,0,.21-5.41l1.23-.51c8-1.16,16.7-2.62,22.39-8.43,2.09-2.13,3.64-4.74,5.76-6.84,2.57-2.54,5.91-4.28,8.09-7.16,1.42-1.87,2.27-4.12,3.76-5.93,1.34-1.63,3.16-2.84,4.38-4.56s1.65-4.35.13-5.81l.88-.75c4-3.81,8.36-7.39,13.48-9.47,9.32-3.79,19.84-2.17,29.76-.48l-4.85,7.47-7.86,18.28a6.25,6.25,0,0,0-.74,3.63c.73,3.51,5.93,3,9.12,1.43,7.88-4,14.77-9.63,22.15-14.47a122.83,122.83,0,0,1,56.43-19.52c2.68-.23,5.49-.36,8,.7,4,1.71,6.13,6,7.94,9.92,8.27,18,16.63,36.31,20.07,55.84,2.79,15.86,2.26,32.07,2.76,48.16.46,15,1.82,29.94,1.7,44.92a331.52,331.52,0,0,1-2.34,34.34c-3.62,32.33-9.77,64.61-8.45,97.11l-2.14,8.45c.83,14.74-10.28,27.14-20.64,37.66-13.72,13.94-27.54,28-43.53,39.23-26,18.31-56.72,28.67-83.94,45.09a14.57,14.57,0,0,0-3.8,2.93c-2.6,3.12-2.26,7.63-2.46,11.68-1,19.48-20.17,36.1-39.59,34.3-1.52-.15-3.2-.34-4.43.55a5.86,5.86,0,0,0-1.75,2.71l-9.14,22.37c-1,2.39-2,4.89-1.84,7.47s1.35,4.94,2.55,7.22l8.42,16c.86,1.64,1.82,3.37,3.46,4.21a9,9,0,0,0,4.35.66l57.85-.8c11.06-.15,22.32-.28,32.94,2.82,9,2.64,17.23,7.5,25.31,12.32,15.59,9.29,31.4,18.76,43.75,32,14.28,15.37,23.07,34.9,31.62,54.06,1.93,4.33,3.9,9.2,2.3,13.67-1.1,3.07-3.7,5.33-6.29,7.32a101.08,101.08,0,0,1-20,11.91l-7.13,1a531.07,531.07,0,0,1-65.54-2c13.13,7.49,26.39,15.08,37.38,25.45,17.36,16.37,27.9,38.52,38,60.11,11.23,23.9,22.58,48.17,26.88,74.22,3.14,19,2.4,38.49,1.21,57.75-1.09,17.71-2.66,35.77-9.71,52.05a81.66,81.66,0,0,1-124.2,32.64c-9.43-7.13-17.68-16.52-29-20.08-4.77-1.5-10.17-2-13.81-5.45s-4.48-9-3.84-14c2.37-18.33,20.32-30.42,27.9-47.28.83-1.87,1.56-3.93,1.11-5.93-.49-2.18-2.26-3.82-4-5.26a127.61,127.61,0,0,0-52.86-26.36Z"></path>
    <path data-name="6a" data-official="" data-plain="Pistil Flower and Scale of M. cerifera" data-loc="" d="M1551.8,2375.62l9.31-22.1c2.15-5.09,4.33-10.41,3.93-15.92-.52-7-5.12-12.95-8.3-19.22a51.06,51.06,0,0,1-5.5-22.54c0-4.78.58-9.61-.37-14.29-1.47-7.27-6.52-13.3-8.82-20.35-1.12-3.41-1.51-7.35.32-10.44a14.59,14.59,0,0,1,5-4.55c4.39-2.81,9.5-5.16,14.66-4.35,9,1.41,14.78,11.87,23.88,12.78,4.7.47,9.22-1.76,13.3-4.15s8.21-5,12.91-5.57,10.13,1.93,11.14,6.55c.73,3.32-1,6.75-3.42,9.17s-5.41,4.11-8.08,6.22a7.23,7.23,0,0,0-2.45,2.88c-.64,1.7-.08,3.59.54,5.3,2,5.35,4.49,10.49,6.19,15.93a55.93,55.93,0,0,1-6.09,46c-2.2,3.47-4.92,7.31-3.88,11.28,1.4,5.37,8.37,6.77,12.18,10.8,4.68,5,3.58,13.46-.81,18.68s-11.16,7.8-17.78,9.47a99.13,99.13,0,0,1-20.28,2.93c-10.41.41-21.51-1.09-29.58-7.68Z"></path>
    <path data-name="6b" data-official="" data-plain="Flower without Scale" data-loc="" d="M1644,2381.44c-4-9.05,8.47-18.93,5.28-28.3-1.34-3.94-5.08-6.43-8.13-9.25a36.9,36.9,0,0,1-11.49-24.63,42.56,42.56,0,0,1,7.43-26.31c1.75-2.59,3.88-5.57,2.91-8.53-.54-1.64-1.92-2.83-3-4.13-3.9-4.51-4.85-11.52-1.82-16.65s10.07-7.66,15.49-5.17c3.15,1.45,5.62,4.33,9,5.11,4.17,1,8.25-1.52,12-3.57,6.79-3.69,15.3-6.16,22.06-2.43a13.9,13.9,0,0,1,2.27,22.75c-2.8,2.38-6.71,3.86-8,7.28-1.19,3,.14,6.41,1.26,9.47a75.9,75.9,0,0,1,4.49,30.56c-.12,2-.3,4.09.49,5.93.87,2,2.74,3.35,4.43,4.74a41.11,41.11,0,0,1,10.54,13.14c2.64,5.22,4.14,11.4,2.23,16.93a21,21,0,0,1-5.41,7.95c-7.32,7.12-17.55,10.64-27.71,11.68s-20.4-.21-30.54-1.44Z"></path>
    <path data-name="7a" data-official="" data-plain="Catkin of Comptonia" data-loc="" d="M1749.31,2374.39c-7.23-10.29-.41-24.19.12-36.76.66-15.6-8.77-29.6-13.53-44.48-2.39-7.48-3.62-15.32-6.35-22.69s-7.27-14.5-14.29-18c-3.32-1.66-7-2.43-10.36-4-11-5.2-16.17-18-18.46-29.9-3.44-17.95-2.65-36.43-4.87-54.56-2.41-19.62-8.33-38.67-11.07-58.25-.69-4.92-1.1-10.27,1.42-14.56,3.55-6,12.16-7.7,18.58-4.89s10.75,9.07,13.14,15.65,3.14,13.62,4.41,20.51a13.4,13.4,0,0,0,2.12,5.87c3.42,4.44,10.21,3.29,15.76,4,11.17,1.53,18.68,11.76,25.72,20.56,10.86,13.58,23.77,25.92,31,41.73,5,11,7,23,8.59,34.91a741.29,741.29,0,0,1,6.87,96.93c0,6.49.32,13.8,5.1,18.19,1.29,1.19,2.84,2.08,4.12,3.28,4.38,4.13,4.63,11.36,1.87,16.7s-7.9,9.06-13.26,11.81a64,64,0,0,1-41.12,5.8"></path>
</svg>
