
<svg xmlns="http://www.w3.org/2000/svg" viewBox="0 0 1917 2731" id="illustration" preserveAspectRatio="xMidYMid meet">
    <title>Euphorbiaceæ</title>
    <path data-name="1" data-official="Euphorbia Peplus" data-plain="Common Spurge" data-loc="England" d="M1066,1721.55c-1.6,4.5-1.35,9.4-1.72,14.16s-1.56,9.84-5.2,12.92c-2.66,2.25-6.25,3.09-9.73,3.42-2.79.28-5.74.24-8.24-1-3.14-1.58-5.05-4.79-7.06-7.67-2.21-3.17-4.9-6.25-8.52-7.59-3-1.12-6.38-.89-9.62-1.07s-6.72-.94-8.78-3.45c-2.19-2.66-2.1-6.65-.72-9.82s3.85-5.71,6.2-8.24q6.23-6.7,11.92-13.88c1.84-2.32,3.71-4.74,6.3-6.17,5.45-3,12.3-.82,17.72,2.23a63,63,0,0,1,11.87,8.64l3,3.06a12.21,12.21,0,0,1,4.2,9.52Zm256.33,364.36c4.19-5.72,5.43-13,6.46-20,4-27.44,6.43-55.09,8.85-82.73l3.1-35.38a159.09,159.09,0,0,0,33.66,25.88c4.56,2.62,9.36,5.06,14.58,5.75a31.55,31.55,0,0,0,13.24-1.44c12.7-3.87,24-13.73,27.33-26.59,1.83-7,1.26-14.5-.65-21.5-2.1-7.71-5.9-15.1-11.76-20.54s-13.9-8.77-21.86-8l.44-2.92a94.66,94.66,0,0,0,33.68-48.72c5.46,3.4,11.08,6.75,17.3,8.43s13.19,1.5,18.69-1.84a24.76,24.76,0,0,0,7.87-8.22,39.1,39.1,0,0,0,4.78-29.55c-.67-2.77-1.63-5.79-.41-8.37a11,11,0,0,1,2.59-3.09l17.12-16a16.81,16.81,0,0,0,28.56,6.2,11.34,11.34,0,0,1,2.88-2.74c2.82-1.49,6.24.59,8.32,3s3.83,5.42,6.82,6.53c2.51.94,5.39.31,7.9,1.25,3.49,1.3,5.2,5.09,7.24,8.21,6.69,10.25,19.3,15,31.41,16.81,7.28,1.08,15.36,1.14,21.2-3.33,6.45-4.93,8.23-13.87,8.32-22a81.79,81.79,0,0,0-2.33-20.32c8.29-5.38,16.78-11,22.5-19s8.08-19.3,3.19-27.89a13.37,13.37,0,0,0-3.87-4.45c-5.77-4-14-1.24-20.5-3.85-5.32-2.13-8.56-7.38-12.33-11.7s-9.56-8.17-14.91-6.11-7,8.68-10.12,13.57c-4.93,7.82-14.14,11.63-22.76,15-4.34,1.68-9,3.39-13.54,2.27l5.61-17.3-1.82-5.75a42.49,42.49,0,0,1,3.38-10.44,15.36,15.36,0,0,1-9.19-7.35,53.28,53.28,0,0,1-2.17-5.09,35.3,35.3,0,0,0-11.31-14.58l-2,6.42a30.81,30.81,0,0,0-1.6,7.32c-.35,6.32,3.13,12.76,1.18,18.79-1.46,4.54-5.7,7.68-7.57,12.07l-2.86,3.84a26.93,26.93,0,0,1-7,4.51c-4.25,1.66-9,1-13.47-.06l-4.91-2.48q-5.37-1.8-10.57-4a33.22,33.22,0,0,1-6.27-3.31c-3.83-2.73-6.49-6.79-10-9.9a25.92,25.92,0,0,0-13.93-6.25l-3.22-1.16q0,10.3-.33,20.61c-4.77-3.62-6.25-10.35-10.85-14.19l-3.6-1.61a5.76,5.76,0,0,0-6.86,3.53,3.39,3.39,0,0,1-.74,1.55c-1,.88-2.54-.17-3.17-1.34s-1.06-2.65-2.31-3.11a4.22,4.22,0,0,0-2-.06c-4,.44-8.55-.42-10.91-3.68-1.85-2.58-1.91-6-2.75-9l-2-2.47c-1-4.1.12-8.42,1.73-12.32s3.75-7.58,5-11.61c.39-1.29.59-2.92-.45-3.78a3.51,3.51,0,0,0-3.17-.21c-9.59,2.68-16.69,10.5-23.84,17.43a185.8,185.8,0,0,1-23.4,19.22c-1.55-2.29-1.63-5.24-1.76-8a112.1,112.1,0,0,0-3.2-21.71c5.51.34,11.17.2,16.36-1.71s9.85-5.84,11.53-11.1a21,21,0,0,0,.2-10.32,37.86,37.86,0,0,0-22.05-27.07l.07-5.43q-1.48-11.21-3.62-22.32a5.47,5.47,0,0,0-1.48-3.31,5.11,5.11,0,0,0-2.82-.9,41.27,41.27,0,0,0-15.9,1.5,20,20,0,0,1-4.21,1c-4,.3-7.48-2.26-11-4.16a36.06,36.06,0,0,0-19.83-4.2c-3.88.31-8.11,1.53-10.11,4.86-1.47,2.44-1.41,5.46-1.31,8.3l.34,9.71a6.54,6.54,0,0,1-3.8,7.5l-9.7,6.09a1.88,1.88,0,0,1-3-.49,62.59,62.59,0,0,1-10.24-17c-1.37-3.38-3-7.4-6.53-8.23a8.11,8.11,0,0,0-3.63.15,16.56,16.56,0,0,0-8.09,4.64c-1.8,1.88-3.46,4.36-6,4.6-1.76.16-3.41-.8-5-1.66a51.62,51.62,0,0,0-31.35-5.93c-3.4.45-7.55,2.14-7.56,5.57,0,.92.22,2.09-.57,2.57a2,2,0,0,1-1.49.07l-14-2.89-5.51-.37c-3.86-.41-7.83-.82-11.56.24s-7.21,3.95-7.76,7.79c-.36,2.46.41,5.31-1.19,7.22-1.09,1.3-2.9,1.65-4.57,1.93l-13.79,2.27c-2.75.45-5.62.9-8.26,0-1.78-.59-3.35-1.73-5.16-2.21-4.09-1.08-8.28,1.49-11.13,4.62s-5,6.92-8.31,9.53a5.06,5.06,0,0,1-3.65,1.37c-1.5-.2-2.59-1.47-3.63-2.57a24.93,24.93,0,0,0-16-7.57c-4-.29-8.58.82-10.24,4.42a12.25,12.25,0,0,0-.82,4.42c-.8,13-1.49,26.53,3.83,38.38,5.2,11.58,15.63,20.26,20.44,32l-2.07,6.11a168.25,168.25,0,0,1-1.71,17l4,4.28L1102,1742a42.39,42.39,0,0,0-5.29,36.28c1.4,4.39,3.68,8.7,7.43,11.37a21.85,21.85,0,0,0,8.69,3.31c17.6,3.27,36.8-5.76,45.5-21.4a19,19,0,0,1,3.42-5.07c2.34-2.13,5.8-2.63,8.92-2.07a31.45,31.45,0,0,1,8.76,3.53c9.4,4.95,19.44,10.57,23.82,20.25a67.93,67.93,0,0,0-41.36,50.42c-1.51,8.48-1,18.06,4.64,24.53a24.5,24.5,0,0,0,11.44,6.89c12.45,3.78,26.55.39,36.71-7.75s16.41-20.6,18.13-33.49l3.11,3.72a103,103,0,0,0,26.93,50.37c-7.84,4.92-15.48,10.26-22,16.8s-12,14.35-14.79,23.17c-2.54,8-2.35,17.9,4,23.45a24.62,24.62,0,0,0,7.87,4.26,87.15,87.15,0,0,0,70.75-4.94l.05,4.28a1264.56,1264.56,0,0,1-44.71,235.31c-21-2-44-3.57-61.53,8.23-4.05,2.73-7.75,6.21-9.82,10.64a25.22,25.22,0,0,0-2,11.75,35.78,35.78,0,0,0,50.61,31l-1,4.52A248,248,0,0,0,1228,2278a99.21,99.21,0,0,0-4.35,13.64c-3.82,17-.22,34.91-2.15,52.28a8.58,8.58,0,0,1-1,3.64c-1.48,2.36-4.67,2.8-7.44,3a34.78,34.78,0,0,1-9.51-.18,11.72,11.72,0,0,1-7.83-5,14.37,14.37,0,0,1-1.73-6.26,41.42,41.42,0,0,1,1.67-15.92c1.34-4.36,3.34-9.36.84-13.18s-7.74-4-12.22-3.86-9.12.38-12.67,3c-2.73,2-4.36,5.16-5.79,8.24a148.73,148.73,0,0,0-9.12,25.56l.15,5.11c-5.32,4-4.63,12.89-9.86,17-1.87,1.47-4.23,2.09-6.43,2.94-7.08,2.73-12.94,8-19.88,11-15.84,6.95-34.19,1.56-51.37,3.58-6,.71-12.22,2.52-16.45,6.86-5.36,5.52-6.42,13.93-6,21.62.59,11.6,4.57,24.08,14.43,30.21,3.51,2.18,7.68,3.51,10.43,6.6,2.32,2.6,3.3,6.09,4.82,9.23a28.21,28.21,0,0,0,20.38,15.24c12.87,2.16,25.89-4.85,38.83-3.1,16.43,2.24,27.73,17.77,33.87,33.18,2.18,5.49,4.51,11.73,9.92,14.1,4.79,2.09,10.51.38,15.46,2.06,2.72.92,5,2.79,7.54,4.11a20.49,20.49,0,0,0,23-3.39c2.09-2,3.72-4.48,5.91-6.41,5.09-4.48,12.29-5.36,18.93-6.77s13.87-4.13,16.65-10.32c1.79-4,1.37-8.65,3.11-12.63,3.71-8.52,14.84-10.15,24.11-10.81s20.48-3.07,23.27-11.92c2-6.24-1.52-13-6.33-17.46s-10.86-7.25-16.12-11.13a13.09,13.09,0,0,1-4.6-5.1c-1.77-4.14.41-8.8.61-13.3.36-8.22-5.83-15.1-11.61-21-2-2-4.1-4.08-6.85-4.6-2.58-.48-5.17.52-7.72,1.16-9.4,2.37-19.29-.15-29,.42-10.94.64-21.29,5.2-32.15,6.64S1180,2394.72,1175,2385a9,9,0,0,1-1.19-5.13c.69-5.87,8.54-7.31,14.44-6.87,9.66.7,19.29,2.3,29,1.91s19.67-3,26.76-9.63c12.08-11.24,12.35-29.94,11.77-46.42l1.08-4.57c-1.41-24.45,10.08-47.55,21-69.46,9.19-18.44,18.28-37.19,22.78-57.29,4.33-19.38,4.55-40.36,14.9-57.31a12.58,12.58,0,0,1,4.43-4.8c2.94-1.56,6.67-.81,9.45,1s4.81,4.57,6.78,7.25l5.17,1.59a20,20,0,0,0,10.26,3.5l7.34-1.13,14.51,1.8a14.73,14.73,0,0,0,3.75.13c1.44-.2,2.8-.84,4.25-.94,3.15-.22,6.1,2.12,9.24,1.8,2.16-.23,4.08-1.68,6.24-1.69,3.12,0,6.17,3,9,1.62l.6-.39c1.88-7.43.3-15.32-2.17-22.58s-5.84-14.23-7.65-21.68l-2.31-3.51c-5.1-6.88-13.69-10.29-22.11-11.87a59.66,59.66,0,0,0-26.88.79c-9.67,2.71-18.28,8.25-26.43,14.11Z"></path>
    <path data-name="1a" data-official="" data-plain="Capsule" data-loc="" d="M63.9,2551c1.67-6.67,8.95-10.58,15.8-11s13.55,1.83,20.25,3.34,14.07,2.22,20.15-1c4-2.12,7.05-5.73,11-8,6.11-3.59,13.6-3.6,20.69-3.5,4.2.06,8.72.22,12.09,2.74,2.84,2.13,4.33,5.56,5.59,8.88,2.74,7.27,4.89,15.43,2.14,22.71s-10.24,12.26-18,13.83-15.75.32-23.44-1.45c-2.59-.6-5.24-1.26-7.87-.94-3.18.37-6,2.11-8.88,3.47-12.14,5.72-26.2,4.93-39.59,4a18.5,18.5,0,0,1-6.61-1.27c-3.57-1.66-5.74-5.5-6.42-9.38s-.1-7.86.48-11.76Z"></path>
    <path data-name="1b" data-official="" data-plain="Seed" data-loc="" d="M70.07,2621.28c13.16-6,28.42-3.3,42.77-1.43a10.33,10.33,0,0,0,4.43-.08c2-.62,3.41-2.34,4.8-3.89,6.12-6.86,14.73-12.3,23.9-11.75,7,.43,13.6,4.44,17.89,10s6.46,12.62,7,19.65c.42,5.68-.38,11.85-4.19,16.08a22.64,22.64,0,0,1-8.21,5.28c-9.25,3.89-20.44,5.3-29,0-2-1.25-4-2.9-6.34-3.16-3.66-.39-6.67,2.57-9.63,4.75-8.66,6.38-20.17,7-30.93,6.82a24.37,24.37,0,0,1-8.5-1.18c-5.47-2.11-8.89-7.82-9.9-13.6s0-11.69,1-17.47Z"></path>
    <path data-name="2" data-official="Euphorbia splendens" data-plain="Brillian Euphorbia" data-loc="Isle of France" d="M683.12,1272.58c3.2.63,6.77.16,9.2-2a15.71,15.71,0,0,0,3.21-4.65c7.65-14.5,15.37-29.29,18.38-45.41,2.52-13.5,1.63-27.39,2.75-41.08a2.25,2.25,0,0,1,2.08-2.49,74,74,0,0,1,22.4-2.61,143.51,143.51,0,0,0-5.95,51.2l2.09,3.16a59.16,59.16,0,0,0,18.07,33.13l1.23.87a234.15,234.15,0,0,0-44.33,9.62l-4,.43-3.66.33a9.72,9.72,0,0,0-4.67,1.24,7.26,7.26,0,0,0-2.66,4.42,6.81,6.81,0,0,0-.15,2.94,3.32,3.32,0,0,0,1.66,2.34c1.29.65,2.83.14,4.18-.36l5-1.9,3.25-3.25c18.15-6.2,37.7-6.49,56.87-6.72l1.29.58a10.42,10.42,0,0,0,12.85-.31l1.36-.22c5.56,0,10.87,2.09,16,4.29,4.66,2,9.39,4.17,13,7.77,3.2,3.21,5.26,7.38,7,11.57a106.66,106.66,0,0,1,6.41,21.86l-.44.66q-14,.21-28-.75a92.62,92.62,0,0,1-9.83-1.09c-12.38-2.22-23.72-8.84-36.21-10.35l-4.24.91c-1.66.2-3.53.59-4.42,2a4,4,0,0,0,.51,4.42,10.68,10.68,0,0,0,3.8,2.74c11.43,5.73,24.08,8.49,36,13.11,5.89,2.28,11.6,5,17.25,7.84a79.4,79.4,0,0,1,10.71,6.15A42.7,42.7,0,0,1,828,1369.4l1,4.11c7.91,4.77,18.47,3.31,26.24-1.69s13.14-13,17.29-21.21l1.51-.47c17.21,8.48,31.14,23.22,49.29,29.44-2.19-5.58-6.06-10.31-9.92-14.9q-16.25-19.29-33.55-37.65v-2.15c1.5,0,2.13-2.1,1.48-3.46s-2-2.26-2.82-3.52c-1.18-1.78-1.22-4.05-1.23-6.19,0-2.64,0-5.28,0-7.92a15.72,15.72,0,0,1,.74-5.88c1.12-2.81,3.75-4.7,6.3-6.32,12.37-7.86,26.17-13.15,39.86-18.38l27-10.3a108.75,108.75,0,0,1,13.38-4.46c5.52-1.32,11.27-1.78,16.56-3.81-8.35-.15-16.67.78-25,1.71a103.13,103.13,0,0,0-17.32,3c-3.7,1.08-7.27,2.58-11,3.44A63.53,63.53,0,0,1,915.5,1264q-20.26.63-40.54,0a3.24,3.24,0,0,1-1.63-.35,3.11,3.11,0,0,1-1-1.16c-1.64-2.79-3.18-5.65-4.62-8.55l.57-.69c11-7.5,22.19-15.3,29.44-26.42a101,101,0,0,0,5.83-10.73c4.57-9.28,9.16-18.64,11.8-28.64A50.82,50.82,0,0,1,946,1198.94c2.9-8.33-2.21-17.12-3.28-25.87-.38-3.08-.25-6.22-.66-9.3a53.31,53.31,0,0,0-3.22-11.16q-2.6-7-5.17-14l.46.3c2.92-4.43,4.73-9.49,6.52-14.49q4.9-13.71,9.8-27.41a123.85,123.85,0,0,0,3.87-12.13c.95-3.87,1.53-7.83,2.42-11.72,2-8.62,5.4-16.83,7.89-25.31s4-17.54,2-26.15l0-1.84c2.73-4,3.3-9,3.68-13.82q1.16-14.88.84-29.82a74.82,74.82,0,0,0-.81-10.79c-.65-3.86-1.82-7.62-2.43-11.49a96.33,96.33,0,0,1-.73-13.91,268.49,268.49,0,0,0-7.69-60.59l-1.6-3.53a10.48,10.48,0,0,0-5.09-3.14,5.24,5.24,0,0,0-5.41,1.88,5.48,5.48,0,0,0-.46,4.6,16.37,16.37,0,0,0,2.23,4.21l.64,3.14c1,5.53-.69,11.26-3.42,16.18S940,912,936.67,916.58a101.18,101.18,0,0,0-18.93,53.83l-1.27.5c-2.89-4.42-6.44-9.27-11.69-9.88-.07-5.34-3.94-10-8.62-12.59s-10.1-3.34-15.4-4l-4.51-4.08-21.84,3.47a5.85,5.85,0,0,1-2.82,0c-2.42-.83-2.64-4.32-1.49-6.62s3.17-4.16,3.87-6.63c1.13-3.92-1.53-8.08-5-10.28s-7.56-3-11.43-4.29c-1-.35-2.22-.94-2.31-2-.1-1.26,1.36-2,2.6-2.32,5.07-1.18,10.36-.31,15.56,0,6.34.37,12.87-.16,18.69-2.73s10.85-7.38,12.6-13.49c1.12-3.89.91-8.16,2.67-11.81,2.73-5.68,10-9.81,9-16a5.8,5.8,0,0,1-.23-3,3.39,3.39,0,0,1,1.39-1.54c3.36-2.24,7.8-2,11.68-.94s7.49,3,11.39,4c10,2.59,20.36-.9,30.52-2.6,7.28-1.22,15-1.59,21.38-5.25s10.92-12.13,7.28-18.56c-2-3.57-6.2-6-7-10-1.18-6.14,6.29-11.44,5.21-17.6-.56-3.25-3.49-5.68-6.65-6.63s-6.53-.72-9.82-.48L942,806.54c-1.49.11-3.19.14-4.24-.92s-1-2.65-1.38-4c-1.53-5.82-9.09-7.07-15.1-7.17,2.11-2.87,4.14-7.18,1.52-9.59a6.05,6.05,0,0,0-2.74-1.26c-12.08-2.79-23.17,9-35.56,8.79-1.69,0-3.5-.25-5,.59a7.23,7.23,0,0,0-2.65,3.58,75.43,75.43,0,0,0-6.08,22.84c-.66,6.36-.64,13.22-4.37,18.42-2.59,3.62-6.69,5.9-9.5,9.36-4.43,5.46-5.06,13-7.43,19.61-.7,2-2.36,4.24-4.31,3.55-1.52-.54-1.89-2.49-2-4.09-.88-11.54-1.75-23.17-.33-34.66s5.32-22.95,13-31.65c2.49-2.84,5.39-5.41,7.09-8.78s1.84-7.92-.9-10.51c-2.41-2.28-6.11-2.31-9.43-2.21-6.43.21-13,.44-19,2.75s-11.45,7.13-12.72,13.45c-.65,3.25-.28,7-2.42,9.5-4.34,5.13-13.34.08-19.25,3.27-3.78,2-5.1,6.9-4.83,11.19,1.16,18.51,23.39,31,23.2,49.54-.15,13.79-13,25.66-11.09,39.31a63.83,63.83,0,0,0-31.08,4.69,247.26,247.26,0,0,0-1.15-72.27l-2.74-4.64a22.59,22.59,0,0,1-4-5.54A55.31,55.31,0,0,1,740,843.3c-6,1.09-12.37,1.27-17.54,4.45-5.82,3.58-9,10.29-10.65,16.9.29-14.77.58-29.54.39-44.32,0-2.54-.1-5.19-1.23-7.47a19.55,19.55,0,0,0-1.43,6q-1.85,14.29-3.68,28.61a29.07,29.07,0,0,1-1.31,6.41c-1.23,3.36-3.62,6.14-6,8.83l-2.41-.62a55.12,55.12,0,0,0-9.22,3.86l-.8.57a13.93,13.93,0,0,1-5.49-7,55,55,0,0,1-2.3-8.71,113.75,113.75,0,0,0-8.83-25.35c1.28,6.57,3,13,4,19.65s1.18,13.45-.59,19.9l-7.34-1.84a8.76,8.76,0,0,1-5.35-3.1,40.92,40.92,0,0,0-4.34-4.58,24.79,24.79,0,0,1-.52,4.64,8.1,8.1,0,0,1-2.2,4.06l-3.7,3.4c-2.9,1.82-5.94,3.68-9.34,4l-2.31,1c-2.38,0-4.4-1.68-6.12-3.33-5.88-5.69-11.08-12.52-18.56-15.83a73.44,73.44,0,0,1,13.22,22.37l-3.38,2.9a36.71,36.71,0,0,1-7.71,5.81l-4.07,1.61a14.67,14.67,0,0,1-8.08-1,43.42,43.42,0,0,1-7.24-3.94l-4.82-3L601,888.88l.5,13.09,19.07,26.56a78.69,78.69,0,0,0-49.64-12.59c-3.09.27-6.27.76-8.87,2.45-4.72,3.06-6.27,9.13-7.48,14.63-2.54,11.48-5.71,23.74-14.66,31.37-3,2.54-6.46,4.42-9.79,6.5A90.72,90.72,0,0,0,507.57,991l-3,1.51c-13.74,2.49-26.94-5.37-40.42-9-16.75-4.56-34.49-2.6-51.73-.61a38.1,38.1,0,0,0-8.66-29.23,44,44,0,0,0-26.89-14.84c-11.87-1.84-25.29,1.65-32.23,11.45l-4.11,1A37.8,37.8,0,0,0,283.19,965a40.78,40.78,0,0,0-21-4.39c-1.69-6.84-3.53-14-8.28-19.21-4.14-4.55-10.2-7.25-13.64-12.36-2.88-4.3-4.35-10.56-9.39-11.77-2.41-.58-4.89.29-7.31.85-15.2,3.54-32.18-5.09-46.28,1.59-10,4.75-15.45,16.31-15.87,27.41l-1,3.17c-4.34-2.25-9.21-4.56-13.92-3.28-3,.83-5.47,3-8,4.86a36.24,36.24,0,0,1-10.86,5.28c-3.57,1-7.3,1.51-10.79,2.78-5.8,2.11-10.65,6.33-14.45,11.18s-6.68,10.37-9.53,15.84c-4.38-.87-8.76,1.5-12.22,4.32s-6.53,6.25-10.58,8.15c-1.74.83-3.65,1.35-5.22,2.48-3.48,2.52-4.36,7.28-4.64,11.57-.72,11.37.87,22.92-1.27,34.12-.56,2.93-1.37,5.85-1.25,8.82s1.4,6.12,4,7.54l2,6.31c-4.66,4.48-5.76,11.43-6.2,17.87a151.05,151.05,0,0,0-.14,18.18,28.11,28.11,0,0,0,1.27,8,26.15,26.15,0,0,0,4.61,7.47c3.58,4.4,7.68,8.51,12.7,11.14a3.48,3.48,0,0,1,1.44,1.08,3.4,3.4,0,0,1,.29,2,27.34,27.34,0,0,0,1.22,10.88,12.68,12.68,0,0,0,7.32,7.76l1.54,3.83c-7,5.73-13.26,12.62-16.66,21-3,7.3-3.58,15.3-4.16,23.15-.53,7.07-1,14.28.53,21.2.81,3.56,2.17,7,3,10.55a34.13,34.13,0,0,1,.31,13.13c-.49,2.87-1.2,6.27.85,8.33a7.59,7.59,0,0,0,3,1.63c2.81,1,5.75,1.79,8.14,3.56,2.94,2.16,4.74,5.52,7.19,8.22,6.14,6.74,15.8,8.86,24.87,9.76a146.51,146.51,0,0,0,18.62.65l4.14,2a34.32,34.32,0,0,0,26.94,20.16c5.58.67,11.29-.06,16.8,1.06,8.86,1.79,17,8.3,25.93,6.84,4.83-.79,8.95-3.83,12.86-6.78l16.27-12.28c4.76,6.67,13.62,8.92,21.79,9.41s16.59-.27,24.35,2.35c4,1.36,8.33,3.61,12.25,2a16.41,16.41,0,0,0,4.11-2.95,45.8,45.8,0,0,1,13.61-8.09l5.57-2.11c3.38,3.81,8.73,5.15,13.8,5.71a67.85,67.85,0,0,0,49.23-14.23c4.06,5.69,12,6.65,19,6.86,9.25.29,18.86.09,27.25-3.81a33.26,33.26,0,0,0,15.54-15.1l3.66-4.66c9.23,5.29,20.84,4.48,30.94,1.15,10.85-3.57,21.4-10.63,25.19-21.41,2.68-7.64,1.61-16.07-.05-24s-3.89-15.91-3.42-24c.36-6.26,2.33-12.37,2.41-18.64,0-2.6-.63-5.71-3.05-6.65a6.73,6.73,0,0,0-3.51-.1c-4.27.7-8.62,2-12.85,1-7.22-1.61-11.78-9.15-18.82-11.45-3.89-1.26-8.26-.81-12-2.53a5.25,5.25,0,0,1-2.78-2.52c-.82-1.94.39-4.25,2.13-5.43s3.89-1.56,5.95-2a50.48,50.48,0,0,0,16.33-7l1.86-5.1c3.66-4.84,7.44-10,8.3-16,1.06-7.44-2.55-15.11-.74-22.4,3.88.57,7.22,2.93,10.8,4.53s8.1,2.35,11.19-.07c1.2-.94,2-2.27,3.17-3.31,3.51-3.23,8.93-3.11,13.17-5.29,2.42-1.24,4.38-3.2,6.44-5a56.77,56.77,0,0,1,9.35-6.64c.15,10.8-5.64,20.92-6.12,31.7l-1,6.47a403.27,403.27,0,0,1,2,51.78,79.66,79.66,0,0,0,.19,11.14c.45,3.89,1.54,7.68,2,11.57a76.28,76.28,0,0,1,.42,10.37l0,12.61,1.18,5.17c2.52,16,18.88,27.62,20.08,43.8.2,2.7,0,5.45.64,8.07s2.59,5.19,5.28,5.53a7.51,7.51,0,0,0,4.4-1.09c8.39-4.47,11.76-14.92,19.32-20.7,3-2.29,6.55-3.75,9.7-5.84A29.14,29.14,0,0,0,605,1241.66c1.81-4,2.7-8.26,3.73-12.49q2.06-8.54,4.88-16.87c2.24-6.62,4.92-13.27,9.54-18.52.78,5.83.62,11.74,1.21,17.59s2,11.81,5.5,16.53l-.84,5.61c6,13.47,19.74,21.45,32.67,28.51l12.44,6.8A31.83,31.83,0,0,0,683.12,1272.58Zm202.73-49a62.66,62.66,0,0,1-4.67,5.49,68,68,0,0,1-7,5.9,123.73,123.73,0,0,1-10.09,7.25q-4.58-14.28-9.17-28.56a49.73,49.73,0,0,1-1.89-7.09c-.34-2-.42-4.12-.57-6.19a163.35,163.35,0,0,0-2.78-18.77l.16-2,28.74,9.56c7.52,2.5,15.71,5,23.2,2.41l.8.6C900.17,1203.93,893.2,1214.16,885.85,1223.61ZM769.92,1044.1c.5-3.22,3-5.76,5.55-7.79,17.25-13.74,42-15.2,58.85-29.46l5.4-3.46c3.62-1.7,7.72-2,11.71-2.15a361.72,361.72,0,0,1,51.73,1.4l.14,1.4a50.77,50.77,0,0,0-15.71,25.23c-2,7.44-2.2,15.22-2.42,22.91q-.6,20.5-1.19,41l-1.41.22-15.71-3.13a36.37,36.37,0,0,1-9-2.62,57.56,57.56,0,0,1-5.51-3.37c-15.09-9.57-34.93-10-51.53-3.38-3.5,1.41-7,3.13-10.78,3.22a3.3,3.3,0,0,1-2.1-.48,2.57,2.57,0,0,1-.48-3.19A7,7,0,0,1,790,1078c15.53-10.3,34.86-12.75,52-20a98.62,98.62,0,0,0,23.94-14.4c-4.95-2.61-10.82-2.54-16.41-2.41-8,.19-16.25.42-23.74,3.34-1.7.66-3.35,1.46-5.11,2-3.06.87-6.35.83-9.36,1.87-6.29,2.17-10.64,8.8-17.24,9.7l-3.89-1.17a17,17,0,0,1-16.77-4C771.07,1050.6,769.41,1047.34,769.92,1044.1Zm278,1268.51a257.92,257.92,0,0,1-62,25.59c-5.81,1.55-13.1,4.78-12.46,10.75.43,4.1,4.52,6.58,7.69,9.21,12.07,10,12.89,30.53,2.15,42s-30.59,12.23-42.67,2.21l-4.1,1.35A16.81,16.81,0,0,1,925,2414.52c-2.24.57-4.75.76-6.42,2.35a10.66,10.66,0,0,0-1.91,2.93c-2.33,4.5-5.42,8.74-9.66,11.51-4.74,3.09-10.61,4.1-16.27,3.85s-11.19-1.66-16.67-3.1c-5.77-1.52-11.84-3.25-15.94-7.59l-1.53-7.54.48,1.87c-.23-19.46-10.92-37.36-13.16-56.68-.49-4.23-.58-8.54-1.75-12.63s-3.64-8.07-7.53-9.79c-3.73-1.65-8.21-.93-11.71,1.14a24.69,24.69,0,0,0-8.24,8.86c-3.65,6.11-6.31,13.54-12.64,16.78-7,3.56-16.68-.56-19-8a7.35,7.35,0,0,1-.14-4.47,9.93,9.93,0,0,1,2.13-3.22c3.3-3.84,6.71-8.32,6.27-13.37a6.28,6.28,0,0,0-2.07-4.37c-1.66-1.34-4-1.34-6.1-1.33-14.09.06-28.11-1.93-42.06-3.92-3.08-.44-6.27-.92-8.87-2.63a11,11,0,0,1-4.25-12.28l1-2.94q42.16-7.59,84.07-16.57c2.62-.56,5.73-1.59,6.3-4.2a5.75,5.75,0,0,0-1.22-4.34c-5.49-8.15-16.91-9.11-26.74-9.26l-47.12-.7c-3.42-.05-6.89-.11-10.13-1.2s-6.25-3.37-7.33-6.61a4.19,4.19,0,0,1-.23-2.13c.37-1.84,2.37-2.78,4.14-3.4,24.32-8.52,51-7.81,75.67-15.23,1.27-.38,2.69-.93,3.14-2.18.54-1.49-.63-3-1.75-4.14-9-9.06-20.21-15.54-30.26-23.41-13.3-10.4-24.51-23.19-35.63-35.89-1.73-2-3.56-4.17-3.76-6.79-.28-3.81,3.14-7.1,6.86-8s7.59.15,11.23,1.3c20.78,6.57,39.71,18.26,60.69,24.17a189.9,189.9,0,0,0-.89-23.73c-.28-2.75-.68-5.67-2.46-7.79-1.43-1.7-3.54-2.64-5.57-3.53l-23.34-10.16c-8.31-3.62-16.69-7.26-25.52-9.31-14.63-3.4-30.48-2.46-44-9.11l-4.2-2.17a45.78,45.78,0,0,1-9.05-6.47c-.91-.83-1.86-1.88-1.74-3.11.14-1.51,1.77-2.36,3.2-2.85,9-3.06,18.81-2.48,28.33-2.74a153.83,153.83,0,0,0,41.28-6.87q-8.93-11.66-17.84-23.33c-2.54-3.31-5.19-6.72-8.88-8.66-3.44-1.82-7.44-2.16-11.31-2.57s-7.89-1-11.14-3.09-5.5-6.33-4.19-10c1.89-5.28,9.55-6.57,11.58-11.79,1.34-3.47-.32-7.31-2-10.66l-12.63-25.93a4.48,4.48,0,0,1-.66-3.09,4.43,4.43,0,0,1,1.5-1.94,104.8,104.8,0,0,1,21.13-14.26,136,136,0,0,1,2.26-47.72l1.62-4.66c0-10.81,7.7-20.3,16.78-26.17s19.6-9,29.45-13.48a117.5,117.5,0,0,0,23.19-14,9,9,0,0,0,3.18-3.58c1-2.62-.49-5.55-2.35-7.66-4.69-5.3-11.55-8.06-18.2-10.5-18.37-6.73-37.49-12.61-53.18-24.3-3.16-2.36-6.48-6.23-4.75-9.78,1.42-2.92,5.28-3.42,8.52-3.54l50.94-1.93-44.92-23.7a18.45,18.45,0,0,1-6-4.24c-4.88-6-1-15.65-5.14-22.16-1.84-2.88-5-4.65-8.2-5.86-8-3-16.73-3.16-25-5.11a59.14,59.14,0,0,1-35-24l-3-4.82q.72-32-.39-64.06l.83-4.79A187.7,187.7,0,0,0,681.33,1623c2.45-13.3,6.16-26.75,12.22-38.84s15.91-22.85,28.74-27.12a59.77,59.77,0,0,1,14.06-2.56c13.88-1.14,28.82.34,39.83,8.86,4.06,3.14,7.56,7.21,12.34,9.07s10,1.23,15,1.21a63.24,63.24,0,0,1,20.32,3.31c3.58,1.21,7.16,2.77,10.94,2.84s8-1.83,9.09-5.44a12.81,12.81,0,0,0,.4-3.86l.12-37.4,4.93-1.35c6,2.06,10.06,7.41,13.95,12.37,7.48,9.53,15.79,18.82,26.58,24.31,2.4,1.23,4.91,2.25,7.24,3.61a48,48,0,0,1,5.81,4.15A158.9,158.9,0,0,1,923,1595.4c4.12,4.69,8.2,10.43,7.26,16.6l2,4.38a64.72,64.72,0,0,0,4.45,12.07l-.21,5a24.9,24.9,0,0,0,8.85,21.45c7,5.7,16.42,7.08,25,9.79,8.15,2.57,15.8,6.47,23.4,10.34l23,11.74c2.11,1.08,4.39,2.35,5.18,4.57,1,2.9-1,6.06-3.55,7.81-6.08,4.23-14.26,3.29-21.47,1.61-4.83-1.13-9.89-2.52-14.67-1.16-6.52,1.85-10.52,8.15-14.61,13.56a86.67,86.67,0,0,1-17.66,17.45c-4.63,3.42-9.84,6.64-12.26,11.86-.88,1.91-1.31,4.23-.28,6a8.61,8.61,0,0,0,3.93,3.08,435.15,435.15,0,0,0,43.73,19c4.55,1.69,9.2,3.33,13.1,6.23s7,7.3,7,12.15a6.25,6.25,0,0,1-1.37,4.34c-1.42,1.56-3.73,1.82-5.83,2-9.78.68-19.6.9-29.4.67a81.86,81.86,0,0,1-18-1.93c-8.83-2.2-17.55-7-26.47-5.23a13.65,13.65,0,0,0-7.17,3.59c-4,4-4.13,10.37-4,16,0,2.25.19,4.73,1.77,6.31,2.05,2,5.43,1.61,8.27,1,7.48-1.55,15.1-3.08,22.69-2.28,6.44.68,12.6,3,19,4,5.57.82,11.3.59,16.77,2,8.14,2,15,7.4,21.54,12.62l5.37,4.13c3.14,5,7,10.43,12.79,11.31,3.71.57,7.94-.8,11,1.4,2.33,1.69,3,5,2.46,7.8s-2,5.4-3.06,8a36.75,36.75,0,0,0-2.76,12c-.15,2.51,0,5.09-.82,7.49-1.8,5.57-7.67,8.55-12.92,11.14-6.92,3.4-13.76,7.15-19.51,12.28-3,2.63-5.6,5.61-8.6,8.18a44.48,44.48,0,0,1-39.33,9.18l-5.47,1.62c-1.21,3.83.94,8,4,10.62s7,4,10.6,5.61a65.14,65.14,0,0,1,16,10.34c3.39,3,6.59,6.51,7.63,10.9s-.78,9.72-5,11.33c-1.5.58-3.37.81-4.12,2.22-.88,1.68.6,3.7,2.29,4.57s3.68,1.18,5.12,2.41c2.1,1.79,2.35,5.06,1.32,7.62s-3.07,4.55-5.08,6.43a5.46,5.46,0,0,0-2,3.07c-.26,2.09,2,3.7,4.1,3.87s4.16-.55,6.26-.6c5.92-.14,11.09,6.12,9.84,11.9-1,4.49-4.85,7.65-7.5,11.4-2.78,3.92-4.27,8.6-6.39,12.92-5,10.11-13.43,18.09-22.43,24.86s-18.73,12.57-27.48,19.67-16.81,16.08-19,27.14l-2.41,6.38c13.3,2,24,11.61,36.2,17.27,19,8.79,41.85,8.06,59.38,19.48,5.18,3.38,10.09,8.62,9.65,14.79-.58,8-9.75,12.58-17.75,12.73s-16-2.43-23.92-1.45c-1.73.21-3.64.73-4.51,2.25a6,6,0,0,0-.36,3.84c1.62,11.66,7.1,22.44,9.49,34s.7,25.3-8.86,32.15c-4.47,3.2-10,4.42-15.22,6.14a76.38,76.38,0,0,0-16.34,7.67,7.12,7.12,0,0,0-3.07,3,6.93,6.93,0,0,0-.21,3.51,53.36,53.36,0,0,0,7.81,22c1.77,2.82,3.92,5.56,6.91,7,4.12,2,9,1.21,13.53.47a321.27,321.27,0,0,1,84.59-2.54c3.18.32,7.12,1.39,7.61,4.55C1053.35,2309,1050.49,2311.15,1048,2312.61Z"></path>
    <path data-name="3" data-official="Jatropha integerrima" data-plain="" data-loc="Cuba" d="M1749.27,1388.18c-4.9-8-11.39-15.79-11.92-25.17-.38-6.73,2.43-13.38,1.71-20.08-.71-6.49-4.62-12.14-8.64-17.28a212.39,212.39,0,0,0-18.4-20.57c-8.25-8.1-17.52-15.71-28.63-18.92s-24.43-1.05-31.82,7.84a11,11,0,0,1-2.62,2.64c-4.09,2.4-8.42-2.46-11.3-6.23a42.39,42.39,0,0,0-37.09-16.14c-4.78.47-9.48,1.77-14.27,1.73s-10-1.75-12.49-5.84l-5.47-3.47a21.08,21.08,0,0,0-26.25-1.12c-1.66,1.28-3.15,2.83-5,3.74-5.43,2.61-12.11-.9-17.86.91-5.24,1.66-9,7.5-14.48,7.32-3.76-.13-7-3.17-10.73-3.14s-6.79,3.08-10.31,4.46c-2.67,1-5.62,1.08-8.39,1.79a18.4,18.4,0,0,0-10.93,7.93c-2.39,3.8-3.37,8.47-6.34,11.84-4.59,5.22-13.33,6.69-15.6,13.25-9-1.1-18.48.63-26,5.66s-12.91,13.52-13.32,22.58l-.44,1.14a16.81,16.81,0,0,0-10,4l-4.9-6.52a45.49,45.49,0,0,0-5.6-6.54,35.1,35.1,0,0,0-8.88-5.58,45.74,45.74,0,0,0-16.92-4.68l-1.15.11c-2.86-7.88-10.68-12.79-18.41-16s-16.06-5.54-22.57-10.82c-7.07-5.72-11.15-14.27-17-21.25a53.06,53.06,0,0,0-33.72-18.4c-19-2.4-38.22,5.7-57.28,3.48-14.13-1.65-27.35-8.9-41.58-9.16-21.13-.4-39.06,14.32-58.28,23.12-10.67,4.89-22.21,8.11-31.94,14.66s-17.62,17.76-15.79,29.36c1.2,7.57,6.24,13.89,11.09,19.82l.61,1c-5.37-.84-10.73,1.58-15.21,4.67a15.4,15.4,0,0,0-4.66,4.5,12.61,12.61,0,0,0-1.55,5.2,20.75,20.75,0,0,0,12.61,20.7,32,32,0,0,0,9.47,1.91c5.24.42,10.91.21,15.17-2.87l-.12,1.1q-5.68,15.2-11,30.54l-.91.38a196.56,196.56,0,0,0-52.8-15.16l-.82-.57a144.7,144.7,0,0,0-1.85-53.44,10.9,10.9,0,0,0-1.88-4.67c-2.23-2.69-6.3-2.76-9.32-4.52-2.34-1.36-3.95-3.69-6-5.49-2.56-2.27-5.76-3.67-8.91-5-6.55-2.84-13.16-5.7-20.17-7.09-3-.6-6.16-.92-9-2.15-2.58-1.12-4.78-2.92-7.11-4.49a46.73,46.73,0,0,0-68.49,18.66,8.61,8.61,0,0,1-2.56,3.72c-1.26.86-3.35.68-3.91-.74l-1.36.13V1327q17.3,18.35,33.55,37.65c3.86,4.59,7.73,9.32,9.92,14.9-18.15-6.22-32.08-21-49.29-29.44l-1.51.47c-4.15,8.25-9.53,16.21-17.29,21.21s-18.33,6.46-26.24,1.69l-1-4.11-6.93-3.46a257.91,257.91,0,0,0-42.35-17.45,63.72,63.72,0,0,0-11.05-2.65c-8.25-1-16.57.7-24.7,2.43-4.13.89-8.36,1.81-11.92,4.07-2.38,1.51-4.4,3.57-6.87,4.92a14.41,14.41,0,0,1-15.4-1.25l-7-1.4c-56.5-19.65-117.63-21.82-177.33-18.14-23.28,1.44-46.66,3.76-69.11,10.09-20.19,5.69-39.33,14.54-58.37,23.35-32.94,15.25-66,30.54-96.78,49.76-2.61,1.63-5.7,3.35-8.6,2.33s-4.24-4.32-5-7.3c-5.68-21.47-1-45.64-11.5-65.21-1.18-2.19-2.66-4.4-4.93-5.41s-4.94-.63-7.41-.22l-25.58,4.27c-8.68,1.45-18.28,3.45-23.37,10.63-6.58,9.27-2.34,22,1.59,32.64,6.11,16.59,11,34.3,8.43,51.8-2.07,14.11-8.85,27-15.53,39.62l-32.1,60.58-3.11,9.06c-6.9,22-3.32,46.06-8.83,68.44-2.38,9.67-6.41,18.86-9.09,28.45-6,21.53-5,44.3-4.19,66.63,1.07,30.54,1.6,61.46-5.21,91.24-2.38,10.4-5.65,20.65-6.92,31.25-1.93,16.24.91,32.62,2.15,48.93,1.84,24,.22,48.11,1.38,72.14,1.88,38.82,11,76.88,20.06,114.67q11.44,47.72,22.9,95.43l2,8.64a96.62,96.62,0,0,0,26.65,31.19c5.68,4.3,11.91,8,16.66,13.34,3,3.37,5.36,7.29,8.13,10.86,10.36,13.38,26.11,21.32,41.51,28.33q15,6.81,30.25,13c11.28,4.58,22.71,8.92,34.58,11.64,21.61,5,44.57,4.56,65,13.06l7,.12c21.73,5.26,44.89,2,66.5,7.77,16.72,4.45,31.59,14,47.82,20,8,2.95,16.28,5,24.49,7.32A418,418,0,0,1,628.81,2363l3.93,3.9a18.7,18.7,0,0,1,0,15.93c-3.11,6.48-10.17,12-8.88,19.07.87,4.81,5.52,8.06,10.19,9.52a28.57,28.57,0,0,0,30-9.18c2.64-3.3,5.17-7.59,9.38-7.89a11.26,11.26,0,0,1,5.09,1.2,77.08,77.08,0,0,1,26.29,18.47c4.17,4.49,7.8,9.49,12.28,13.67s10.08,7.57,16.2,7.88c6.51.33,12.62-2.8,18.86-4.71,24.62-7.54,51.13,4,76.74,1.4a9.72,9.72,0,0,0,4.05-1.08,7.27,7.27,0,0,0,3-4.41c1.57-5.64-1.18-11.51-4.08-16.6a186.46,186.46,0,0,0-29-38.3l-.83-5.43c-7,3.56-16.68-.56-19-8a7.35,7.35,0,0,1-.14-4.47l-4.14-3.95a140.15,140.15,0,0,1-22.36-13.76l-15.33-8.5c-3.08-.44-6.27-.92-8.87-2.63a11,11,0,0,1-4.25-12.28l-6.2.21c-3.55-3.67-8.41-5.75-13.15-7.67q-18.15-7.36-36.72-13.62l-6.81-1.91c-22-11.53-44-23.06-66.78-33-32.87-14.34-67.1-25.27-101.27-36.18-13.85-4.42-27.72-8.85-41.92-12-39.51-8.65-81.93-7.28-118.15-25.25-50.32-25-77.29-83-80.78-139.1-.3-4.73-.41-9.7,1.68-14,2.23-4.54,6.63-7.57,11-10.1,21.43-12.32,47-17.35,66.36-32.66,12.39-9.77,21.41-23.08,30.23-36.16,8.43-12.5,16.95-25.18,21.91-39.42,4.41-12.62,5.86-26,8-39.23a361.22,361.22,0,0,1,21.21-76q1.94,6.54,3.86,13.07l2.53,4.64a219.4,219.4,0,0,0,10.61,43.68c3.1,8.77,6.86,17.48,12.92,24.53,6.49,7.55,15.26,12.76,24.22,17.08,6.8,3.29,13.9,6.16,21.37,7.26,11.36,1.67,23.18-.84,34.31,2,13.17,3.35,23.35,13.59,32.32,23.8A450,450,0,0,1,596,1981.54c3.4,5.12,6.78,10.42,11.6,14.25s11.43,6,17.22,3.9c7.56-2.73,11-11.33,13.08-19.11a178,178,0,0,0,5.86-48.29l1.29-5.36a104.16,104.16,0,0,1,5.11-46c2.59-7.44,6-14.61,8-22.25a91.74,91.74,0,0,0,2.32-16.85,215,215,0,0,0-.16-28.83c-.67-9.11-1.91-18.35-.16-27.32,2.62-13.48,11.78-25.26,13-38.93l-1.31-11-3-4.82q.72-32-.39-64.06l.83-4.79A187.7,187.7,0,0,0,681.33,1623l-1.55-18.2a54.69,54.69,0,0,0-6-28.07c-3.13-6-7.35-11.39-10.75-17.26-9-15.56-11.9-34.2-10.18-52.1s7.81-35.15,15.72-51.3c5.47-11.16,12.24-22.33,22.81-28.87,3.81,18.15,20.3,30.51,36.08,40.26,5.3,3.28,10.72,6.49,16.64,8.46,15.06,5,31.71,1.54,47.22,4.91,24.29,5.28,41.94,26.31,54.07,48l4,2.88c6,2.06,10.06,7.41,13.95,12.37,7.48,9.53,15.79,18.82,26.58,24.31,2.4,1.23,4.91,2.25,7.24,3.61a48,48,0,0,1,5.81,4.15A158.9,158.9,0,0,1,923,1595.4c4.12,4.69,8.2,10.43,7.26,16.6l2,4.38a64.72,64.72,0,0,0,4.45,12.07l4.51,3.18c6.62.87,12.34,5,18.77,6.81,2.78.77,5.66,1.1,8.49,1.61a93.15,93.15,0,0,1,20.11,6.37,154.46,154.46,0,0,1,60.36,46.45l-.4,2.5a63,63,0,0,1,11.87,8.64l3,3.06a12.21,12.21,0,0,1,4.2,9.52l-1.57,5,2.79,9.84a29.94,29.94,0,0,0,5,10.51,18.28,18.28,0,0,0,9.45,6.55,8.36,8.36,0,0,0,6.13-.36c1.85-1,3.07-3.31,2.33-5.27l-.53-7.11-4-4.28a168.25,168.25,0,0,0,1.71-17l2.07-6.11c-4.81-11.74-15.24-20.42-20.44-32-5.32-11.85-4.63-25.41-3.83-38.38l-3.56-7.37a97.68,97.68,0,0,1-1.1-16.58q-.27-26.55-.53-53.11c-.15-14.62-.41-29.76-6.58-43-2.38-5.12-5.65-10-6.64-15.53-.49-2.71-.41-5.49-.89-8.2a20.23,20.23,0,0,0-5-10.1l-3.41-2.82c-.73-4-3.06-7.46-5.34-10.8l-9.66-14.18a19.55,19.55,0,0,1-1.78-3c-1.52-3.39-1.18-7.73-3.83-10.34l.12-1.13c8.79,3.58,18.82,3.38,27.92.66s17.31-7.82,24.7-13.77c2.55-2.06,5.07-4.29,6.6-7.19l1-1.09c7,1.08,13,5.43,19.5,8.18,3.94,1.66,8.1,2.75,12.14,4.16,18.55,6.45,34,19.43,51.58,28.23,4.06,2,8.23,3.85,12.19,6.06a98.59,98.59,0,0,1,14.44,10.17,6.81,6.81,0,0,1,2.34,2.78c.78,2.22-.76,4.86.31,6.95l1.69,3.82,8.64,7.55,4.84,2.58c26.48,18.37,55.32,34.69,87.08,40.16,6.06,1,12.36,1.74,17.74,4.73l5.72,2.43c4,5,8.15,10.15,13.42,13.88,4.44,3.15,9.54,5.21,14.64,7.12a31.86,31.86,0,0,0,9.59,2.44c3.89.18,7.71-1,11.58-1.45a2.47,2.47,0,0,1,1.27.08,2.64,2.64,0,0,1,1,1l10.62,14.51a8.94,8.94,0,0,1,1.44,2.5c.92,2.9-1.19,5.77-2.75,8.38a35.46,35.46,0,0,0-4.53,16.83,105.28,105.28,0,0,0,1.21,17.54l-.54,7.21a37.1,37.1,0,0,1,7.25,15.64l6.4.65a31.3,31.3,0,0,0,9.79-.8c2.67-.66,5.3-1.67,8-1.6a2.36,2.36,0,0,1,1.68.55,2.54,2.54,0,0,1,.51,1.51,71.59,71.59,0,0,1,.32,11.71l.54,4.39c1,.86.84,2.49.44,3.78-1.22,4-3.35,7.72-5,11.61s-2.71,8.22-1.73,12.32l2,2.47c.84,3.06.9,6.46,2.75,9,2.36,3.26,6.91,4.12,10.91,3.68a4.22,4.22,0,0,1,2,.06c1.25.46,1.69,1.94,2.31,3.11s2.18,2.22,3.17,1.34a3.39,3.39,0,0,0,.74-1.55,5.76,5.76,0,0,1,6.86-3.53l1.65-2.58a65.75,65.75,0,0,0,6-13.77,34.88,34.88,0,0,0,3.42,8.26l3.73,3.28,3.22,1.16a25.92,25.92,0,0,1,13.93,6.25c3.53,3.11,6.19,7.17,10,9.9a33.22,33.22,0,0,0,6.27,3.31q5.2,2.22,10.57,4l4.91,2.48c4.43,1.1,9.22,1.72,13.47.06a26.93,26.93,0,0,0,7-4.51l2.86-3.84c1.87-4.39,6.11-7.53,7.57-12.07,2-6-1.53-12.47-1.18-18.79a30.81,30.81,0,0,1,1.6-7.32q1-3.21,2-6.42a35.3,35.3,0,0,1,11.31,14.58,53.28,53.28,0,0,0,2.17,5.09,15.36,15.36,0,0,0,9.19,7.35,42.49,42.49,0,0,0-3.38,10.44l1.82,5.75,4.23.07,16-5.7a29.06,29.06,0,0,0,7-3.24c4-2.85,6.64-7.81,11.33-9.34,2.27-.74,4.73-.55,7.11-.43a112.84,112.84,0,0,0,22.79-1.15l4.5,1.67c2.19.19,4,1.69,5.8,3a35.66,35.66,0,0,0,18.48,6.46c3.19.18,6.45-.06,9.52.78,5.32,1.46,9.26,5.89,14.19,8.35,6.76,3.37,14.74,2.78,22.24,1.94,6.76-.76,13.85-1.8,19.26-5.93,5.2-4,8.13-10.36,9.17-16.82s.39-13-.39-19.55a42.67,42.67,0,0,1-.45-10.15,52.33,52.33,0,0,1,1.92-7.88A103.48,103.48,0,0,0,1719,1598l-4.31-6.7a96.28,96.28,0,0,0-24.22-14c-2.36-4.82-.93-10.72,1.81-15.34s6.65-8.41,9.72-12.82a42.08,42.08,0,0,0,7-29.91c-.4-2.75-1.08-5.55-.58-8.28.44-2.32,1.69-4.39,2.7-6.53a32.18,32.18,0,0,0,2.72-18,14.13,14.13,0,0,0,15.48-9.34c1.14-3.64.8-7.84,3-11,3.46-4.89,10.79-4.29,16.3-6.64,8.63-3.69,11.86-14.26,12.43-23.63A82.49,82.49,0,0,0,1749.27,1388.18Zm-698.53,41.3c-5.53,1.31-11.31.69-16.92-.19-4.79-.76-9.74-1.78-13.56-4.75l-.45-1.1c1.45-2.86,1-6.3.19-9.41s-1.88-6.25-1.57-9.45a294.8,294.8,0,0,1,48.62,9.55l.7.91A25.08,25.08,0,0,1,1050.74,1429.48Zm375.57-14c-1.59,8.45-1.91,17.17-4.48,25.37-4.71-4.72-6.47-11.53-9-17.71s-6.72-12.57-13.27-13.86a15.82,15.82,0,0,0-10.17,1.82c-7.53,3.92-12.34,11.84-14.37,20.08s-1.61,16.86-1,25.32c.47,6.45,1.1,13,3.8,18.92,2.16,4.71,5.59,8.8,7.47,13.63a4.26,4.26,0,0,1,.32,3c-.52,1.36-2.1,1.91-3.49,2.3l-27.79,7.83c-8.18,2.31-16.41,4.62-24.87,5.5-12.14,1.27-24.38-.45-36.37-2.71-25.75-4.83-51.82-12.52-72.12-29.09l-6.38-.92c-5.41-1.43-10.1-4.71-14.75-7.82-21.88-14.62-45.34-26.69-68.75-38.71-14.53-7.47-29.16-15-44.79-19.78l-.63-1.09c3.84-24.17,16.2-47.75,36.7-61.1,8.44-5.5,17.94-9.12,27.46-12.38,23.79-8.16,48.65-14.41,73.78-13.51,25.4.91,49.95,9.06,75.13,12.46,11.33,1.53,22.76,2.1,34.1,3.51a233,233,0,0,1,50.8,12.18l-.06,1.2a20.78,20.78,0,0,0-14.91,25.16,13.33,13.33,0,0,0,1.62,4,12.28,12.28,0,0,0,4.69,4.09,17,17,0,0,0,11.32,1.59c4.58-1,9.09-3.83,13.61-2.59l2,.44a12.45,12.45,0,0,0,7.41,8.88,24.34,24.34,0,0,0,6.51,1.35c6,.67,12.06,1.34,17.94.1l4.11.11C1431.09,1398.36,1427.9,1407,1426.31,1415.49Z"></path>
    <path data-name="3a" data-official="" data-plain="Stamens" data-loc="" d="M1128.74,2475.67c-8.88,6.18-22,5.58-28.89,13.94-6.26,7.61-4.15,19.1.2,27.95,2.76,5.64,6.41,11.67,4.85,17.76-.5,2-1.54,3.78-1.9,5.77-1,5.58,3.31,10.5,5.92,15.52,4.83,9.26,4,20.32,3.15,30.73l-6.37,2.24c-6.26,7.84-12.25,17.47-10.08,27.26,1.47,6.61,6.53,12,12.34,15.44,2.62,1.56,5.62,3,6.91,5.79a10.84,10.84,0,0,1,.74,4.87,33,33,0,0,1-4.21,15.3c-2.78,5-6.9,9.37-7.87,15-1.41,8.11,5.53,16.55,13.75,17,4.94.25,9.69-1.94,14.62-2.27,7.24-.49,14.26,3,21.51,2.84,8.53-.2,16.73-6.17,19.18-14.34s-1.31-17.89-8.82-22c-2.77-1.5-6.08-2.39-7.93-4.94s-1.68-5.64-1.54-8.61a15.65,15.65,0,0,1,1-5.82c1.59-3.47,5.39-5.24,8.2-7.83,5.59-5.14,7-13.26,8.16-20.77.92-6.14,1.29-13.67-3.83-17.2-2.22-1.53-5-1.89-7.6-2.7s-5.26-2.42-5.85-5c-.52-2.35.77-4.66,1.84-6.81a44.76,44.76,0,0,0,4.51-23.68c-.36-4.11-1.24-8.46.48-12.22a19.06,19.06,0,0,1,3.58-4.77l10.15-10.91,4.5-6.62c-5.41-2.37-7.74-8.61-9.92-14.1-6.14-15.41-17.44-30.94-33.87-33.18Z"></path>
    <path data-name="3b" data-official="" data-plain="Pistil" data-loc="" d="M1214,2609.54c.71-14.61,1.25-30.06-5.73-42.91-2.6-4.79-6.31-10-4.46-15.14,2.14-5.89,9.86-7,16.12-7.08l12.08-.21c4.45-.07,9.4,0,12.62,3.1,2.87,2.73,3.52,7.09,3.16,11-.56,6.15-3.1,11.91-5,17.79a88.17,88.17,0,0,0,1.86,58.9,26.88,26.88,0,0,0,4.54,8.12c2,2.31,4.7,4,6.88,6.14a20.82,20.82,0,0,1,4.11,22.88c-4.76,10.33-17,14.75-28.28,16.39a111.76,111.76,0,0,1-18.9,1.12c-7.68-.2-16.38-1.83-20.45-8.34-3.39-5.43-2.31-12.71.9-18.25,2.66-4.6,6.75-8.68,7.43-14,.64-4.93-1.9-9.74-2-14.71-.11-7.8,5.67-14.27,11.09-19.87Z"></path>
    <path data-name="4" data-official="Poinsettia pulcherrima" data-plain="" data-loc="Mexico" d="M885.85,1223.61a62.66,62.66,0,0,1-4.67,5.49,68,68,0,0,1-7,5.9,123.73,123.73,0,0,1-10.09,7.25q-4.58-14.28-9.17-28.56a49.73,49.73,0,0,1-1.89-7.09c-.34-2-.42-4.12-.57-6.19a163.35,163.35,0,0,0-2.78-18.77l.16-2,28.74,9.56c7.52,2.5,15.71,5,23.2,2.41l.8.6C900.17,1203.93,893.2,1214.16,885.85,1223.61Zm164.89,205.87c-5.53,1.31-11.31.69-16.92-.19-4.79-.76-9.74-1.78-13.56-4.75l-.45-1.1c1.45-2.86,1-6.3.19-9.41s-1.88-6.25-1.57-9.45a294.8,294.8,0,0,1,48.62,9.55l.7.91A25.08,25.08,0,0,1,1050.74,1429.48Zm140.45,57.39c-1.07-2.09.47-4.73-.31-6.95a6.81,6.81,0,0,0-2.34-2.78A98.59,98.59,0,0,0,1174.1,1467c-4-2.21-8.13-4-12.19-6.06-17.55-8.8-33-21.78-51.58-28.23-4-1.41-8.2-2.5-12.14-4.16-6.52-2.75-12.51-7.1-19.5-8.18l-1,1.09c-1.53,2.9-4,5.13-6.6,7.19-7.39,6-15.61,11.05-24.7,13.77s-19.13,2.92-27.92-.66l-.12,1.13c2.65,2.61,2.31,7,3.83,10.34a19.55,19.55,0,0,0,1.78,3l9.66,14.18c2.28,3.34,4.61,6.82,5.34,10.8l3.41,2.82a20.23,20.23,0,0,1,5,10.1l5.13.33c8.91,2.09,16.46,8.42,21.25,16.21,3.75,6.1,6,13.06,9.76,19.13s9.9,11.46,17.06,11.49c8.7,0,15.24-7.46,21.4-13.6,17.36-17.29,40.26-27.67,62.63-37.68ZM1375,1431.19c2-8.24,6.84-16.16,14.37-20.08a15.82,15.82,0,0,1,10.17-1.82l5.51-2a28.31,28.31,0,0,0,14.71-8.91l4.22-4.77c-2.74-.13-5.49-.44-8.21-.74a24.34,24.34,0,0,1-6.51-1.35,12.45,12.45,0,0,1-7.41-8.88l-2-.44c-4.52-1.24-9,1.63-13.61,2.59a17,17,0,0,1-11.32-1.59,12.28,12.28,0,0,1-4.69-4.09,13.33,13.33,0,0,1-1.62-4A20.78,20.78,0,0,1,1383.6,1350l.06-1.2a233,233,0,0,0-50.8-12.18c-11.34-1.41-22.77-2-34.1-3.51-25.18-3.4-49.73-11.55-75.13-12.46-25.13-.9-50,5.35-73.78,13.51-9.52,3.26-19,6.88-27.46,12.38-20.5,13.35-32.86,36.93-36.7,61.1l.63,1.09c15.63,4.8,30.26,12.31,44.79,19.78,23.41,12,46.87,24.09,68.75,38.71,4.65,3.11,9.34,6.39,14.75,7.82l6.38.92,5.76-3.06c20.12-9.67,41.82-15.55,63.37-21.37l33.13-8.94c7.07-1.91,14.15-3.83,21.31-5.33,7.41-1.56,15-2.71,21.91-5.77Zm-623.51-125.4c12.49,1.51,23.83,8.13,36.21,10.35a92.62,92.62,0,0,0,9.83,1.09q14,1,28,.75l.44-.66a106.66,106.66,0,0,0-6.41-21.86c-1.74-4.19-3.8-8.36-7-11.57-3.58-3.6-8.31-5.76-13-7.77-5.1-2.2-10.41-4.34-16-4.29l-1.36.22a10.42,10.42,0,0,1-12.85.31l-1.29-.58c-19.17.23-38.72.52-56.87,6.72l-3.25,3.25-5,1.9-.4,4.92a31,31,0,0,0-10.09,21.25c-.07,1.33,0,2.83,1,3.73a3.77,3.77,0,0,0,2.17.85c2.75.34,5.48-.67,8-1.75,6.5-2.75,12.75-6.12,19.46-8.31s14.09-3.16,20.81-1Zm-21-75.09A195.06,195.06,0,0,0,710.81,1268l-2.55,4.77,4-.43a234.15,234.15,0,0,1,44.33-9.62l-1.23-.87a59.16,59.16,0,0,1-18.07-33.13l-2.09-3.16Zm87.68-209.84c-7.12,12.19-17,22.52-26.75,32.71l-1.28,3.37,3.89,1.17c6.6-.9,11-7.53,17.24-9.7,3-1,6.3-1,9.36-1.87,1.76-.51,3.41-1.31,5.11-2,7.49-2.92,15.71-3.15,23.74-3.34,5.59-.13,11.46-.2,16.41,2.41A98.62,98.62,0,0,1,842,1058c-17.17,7.25-36.5,9.7-52,20a7,7,0,0,0-2.51,2.41,2.57,2.57,0,0,0,.48,3.19,3.3,3.3,0,0,0,2.1.48c3.77-.09,7.28-1.81,10.78-3.22,16.6-6.65,36.44-6.19,51.53,3.38a57.56,57.56,0,0,0,5.51,3.37,36.37,36.37,0,0,0,9,2.62l15.71,3.13,1.41-.22q.6-20.49,1.19-41c.22-7.69.45-15.47,2.42-22.91A50.77,50.77,0,0,1,903.3,1004l-.14-1.4a361.72,361.72,0,0,0-51.73-1.4c-4,.18-8.09.45-11.71,2.15l-5.4,3.46ZM942.71,887.14c-12.29,11-28,17.38-41.75,26.48-4.33,2.86-8.46,6-12.6,9.11-4.85,3.67-10,7.82-11.42,13.75l-.69,3.89,4.51,4.08c5.3.65,10.71,1.44,15.4,4s8.55,7.25,8.62,12.59c5.25.61,8.8,5.46,11.69,9.88l1.27-.5a101.18,101.18,0,0,1,18.93-53.83c3.29-4.56,7-8.86,9.71-13.78s4.46-10.65,3.42-16.18l-.64-3.14ZM601.48,902l-.5-13.09-9.92-10.64,4.82,3a43.42,43.42,0,0,0,7.24,3.94,14.67,14.67,0,0,0,8.08,1l4.07-1.61a36.71,36.71,0,0,0,7.71-5.81l3.38-2.9a73.44,73.44,0,0,0-13.22-22.37c7.48,3.31,12.68,10.14,18.56,15.83,1.72,1.65,3.74,3.32,6.12,3.33l2.31-1c3.4-.35,6.44-2.21,9.34-4l3.7-3.4a8.1,8.1,0,0,0,2.2-4.06,24.79,24.79,0,0,0,.52-4.64,40.92,40.92,0,0,1,4.34,4.58,8.76,8.76,0,0,0,5.35,3.1l7.34,1.84c1.77-6.45,1.57-13.29.59-19.9s-2.71-13.08-4-19.65a113.75,113.75,0,0,1,8.83,25.35,55,55,0,0,0,2.3,8.71,13.93,13.93,0,0,0,5.49,7l.8-.57a55.12,55.12,0,0,1,9.22-3.86l2.41.62c2.34-2.69,4.73-5.47,6-8.83a29.07,29.07,0,0,0,1.31-6.41q1.85-14.31,3.68-28.61a19.55,19.55,0,0,1,1.43-6c1.13,2.28,1.2,4.93,1.23,7.47.19,14.78-.1,29.55-.39,44.32,1.7-6.61,4.83-13.32,10.65-16.9,5.17-3.18,11.56-3.36,17.54-4.45a55.31,55.31,0,0,0,27.41-13.66,22.59,22.59,0,0,0,4,5.54l2.74,4.64,3.47-2.49c5.54-3.51,9.23-9.22,12.74-14.74l3.91-4c-.27-4.29,1-9.15,4.83-11.19,5.91-3.19,14.91,1.86,19.25-3.27,2.14-2.53,1.77-6.25,2.42-9.5,1.27-6.32,6.71-11.14,12.72-13.45s12.6-2.54,19-2.75c3.32-.1,7-.07,9.43,2.21l7.71,1.09c2.2.18,4.1,1.58,6.22,2.18a18.18,18.18,0,0,0,3.9.49l17.15.91,6.79,1.1c5.37-2.3,10.73-4.11,16.3-2.82a6.05,6.05,0,0,1,2.74,1.26l7-3.21,10.64-4.88a8.67,8.67,0,0,1,2.85-.93,7.33,7.33,0,0,1,3.13.56c8.4,3,15.27,10.16,24.14,11,2.12.21,4.28,0,6.4.26a8.66,8.66,0,0,1,5.71,2.57,11.56,11.56,0,0,1,2.07,5.22c1.26,5.84,2.53,11.73,2.58,17.71.06,7.89-2,15.63-4,23.25l-3.53,3.39c3.64,6.43-.87,14.9-7.28,18.56l-2.67,4.7a47,47,0,0,1-7.75,9.52l-4.17,3.37,1.6,3.53a268.49,268.49,0,0,1,7.69,60.59,96.33,96.33,0,0,0,.73,13.91c.61,3.87,1.78,7.63,2.43,11.49a74.82,74.82,0,0,1,.81,10.79q.33,14.93-.84,29.82c-.38,4.81-.95,9.85-3.68,13.82l0,1.84c2,8.61.46,17.67-2,26.15s-5.93,16.69-7.89,25.31c-.89,3.89-1.47,7.85-2.42,11.72a123.85,123.85,0,0,1-3.87,12.13q-4.91,13.7-9.8,27.41c-1.79,5-3.6,10.06-6.52,14.49l-.46-.3q2.58,7,5.17,14a53.31,53.31,0,0,1,3.22,11.16c.41,3.08.28,6.22.66,9.3,1.07,8.75,6.18,17.54,3.28,25.87a50.82,50.82,0,0,0-30.61-11.49c-2.64,10-7.23,19.36-11.8,28.64a101,101,0,0,1-5.83,10.73c-7.25,11.12-18.48,18.92-29.44,26.42l-.57.69c1.44,2.9,3,5.76,4.62,8.55a3.11,3.11,0,0,0,1,1.16,3.24,3.24,0,0,0,1.63.35q20.26.59,40.54,0a63.53,63.53,0,0,0,12.32-1.21c3.75-.86,7.32-2.36,11-3.44a103.13,103.13,0,0,1,17.32-3c8.3-.93,16.62-1.86,25-1.71-5.29,2-11,2.49-16.56,3.81a108.75,108.75,0,0,0-13.38,4.46l-27,10.3c-13.69,5.23-27.49,10.52-39.86,18.38-2.55,1.62-5.18,3.51-6.3,6.32a15.72,15.72,0,0,0-.74,5.88c0,2.64,0,5.28,0,7.92,0,2.14,0,4.41,1.23,6.19.83,1.26,2.16,2.16,2.82,3.52s0,3.5-1.48,3.46l1.36-.13c.56,1.42,2.65,1.6,3.91.74a8.61,8.61,0,0,0,2.56-3.72,46.73,46.73,0,0,1,68.49-18.66c2.33,1.57,4.53,3.37,7.11,4.49,2.84,1.23,6,1.55,9,2.15,7,1.39,13.62,4.25,20.17,7.09,3.15,1.37,6.35,2.77,8.91,5,2,1.8,3.64,4.13,6,5.49,3,1.76,7.09,1.83,9.32,4.52a10.9,10.9,0,0,1,1.88,4.67,144.7,144.7,0,0,1,1.85,53.44l.82.57a196.56,196.56,0,0,1,52.8,15.16l.91-.38q5.29-15.35,11-30.54l.12-1.1c-4.26,3.08-9.93,3.29-15.17,2.87a32,32,0,0,1-9.47-1.91,20.75,20.75,0,0,1-12.61-20.7,12.61,12.61,0,0,1,1.55-5.2,15.4,15.4,0,0,1,4.66-4.5c4.48-3.09,9.84-5.51,15.21-4.67l-.61-1c-4.85-5.93-9.89-12.25-11.09-19.82-1.83-11.6,6-22.8,15.79-29.36s21.27-9.77,31.94-14.66c19.22-8.8,37.15-23.52,58.28-23.12,14.23.26,27.45,7.51,41.58,9.16,19.06,2.22,38.24-5.88,57.28-3.48a53.06,53.06,0,0,1,33.72,18.4c5.83,7,9.91,15.53,17,21.25,6.51,5.28,14.85,7.58,22.57,10.82s15.55,8.16,18.41,16l1.15-.11a45.74,45.74,0,0,1,16.92,4.68,35.1,35.1,0,0,1,8.88,5.58,45.49,45.49,0,0,1,5.6,6.54l4.9,6.52a16.81,16.81,0,0,1,10-4l.44-1.14c.41-9.06,5.78-17.55,13.32-22.58s17-6.76,26-5.66c2.27-6.56,11-8,15.6-13.25,3-3.37,4-8,6.34-11.84l4.12-10.15a81.32,81.32,0,0,0-5.07-47.62c-7.18-16.65-20.14-31.54-21.16-49.64a12.8,12.8,0,0,1,1.09-6.88c1.64-3,5.08-4.57,8.25-6a269.24,269.24,0,0,0,81-54.68c1.77-1.74,3.64-3.58,6-4.25a13.58,13.58,0,0,1,5.88.09c19.64,3.34,38,11.68,56.15,19.93l36.67,16.71c10.76,4.9,21.53,9.81,31.92,15.45,31.41,17.07,58.76,40.58,85.68,64.09l5.43,6.17a97.62,97.62,0,0,1,40.12,38.26c7.54,13.19,12.9,29.16,26.27,36.38,2.68,1.44,5.73,2.48,8.75,2.06,8.11-1.12,11.21-11.07,12.16-19.2s2.81-18,10.58-20.61c8-2.68,16.59,4.79,24.82,2.81,5.42-1.31,9-6.35,11.58-11.32,3.81-7.51,6.28-16.23,4-24.34s-10.48-14.93-18.73-13.24c-2.22.45-4.63,1.45-6.63.37a5.81,5.81,0,0,1-2.21-2.51c-2.68-5.09-2.09-11.18-2.61-16.91-2-21.2-19.33-37.38-36.33-50.22-23-17.4-47.56-32.72-72.05-48-21-13.15-42.19-26.35-65.06-36-26-10.93-53.8-17-81.69-21.25l-5.73-9.76c-45.7-10.74-87.08-34.49-130.33-52.75-12.39-5.23-25.18-10.15-35.6-18.64l-5.59-5.92c4.75-5.86,7.12-13.23,9.39-20.42L1456,907.32c2.08-6.58,4.18-13.21,7.64-19.18,1.25-2.16,2.77-4.31,5-5.45a14,14,0,0,1,5.3-1.19,75,75,0,0,1,24.81,1.84c4.5,1.16,8.86,2.82,13.37,3.92,8.63,2.11,17.6,2.16,26.48,2.19,7.79,0,15.63.06,23.31-1.3,9.66-1.7,18.8-5.55,28.21-8.34a131.77,131.77,0,0,1,20.33-4.32l6.42-2.09A176.76,176.76,0,0,1,1687,851.89c5-.44,10.18-.68,14.91-2.47S1711,843.92,1712,839c1.21-5.71-1.91-12.55,1.81-17.06,2.57-3.11,7.18-3.39,11.2-3.07,29.29,2.32,54,22.53,73.6,44.42,12.82,14.32,26.11,30.81,45.06,34a51.69,51.69,0,0,0,14.54.12,6.63,6.63,0,0,0,3.55-1.15c2.09-1.7,1.54-5,.8-7.55q-6.7-23.37-13.95-46.59c-3.33-10.68-6.79-21.43-12.51-31-6.16-10.35-14.73-19-23.32-27.44-9.9-9.72-20-19.34-31.56-27.06-10.83-7.25-22.74-12.72-34.59-18.15,13.21-13.1,26.61-26.44,35.57-42.75,5-9.1,9.06-19.6,18-25,4.68-2.82,10.19-3.85,15.33-5.69,7-2.5,13.57-6.73,17.56-13s4.94-14.7,1.2-21.1l-1.76-7.1c-3.35-13-3.35-26.63-3.33-40.07.07-49.78,1-102.69,28.15-144.44,4.43-6.83,9.76-14.65,7.28-22.39-2.44-7.59-11.23-11-19.11-12.18-16.24-2.47-33.12.1-49-4-17.21-4.47-32.12-16.54-49.78-18.62,19.51-5.93,33.12-23.8,51.7-32.19,9.59-4.33,20.21-6,29.82-10.29,5.32-2.37,10.87-6.49,11.06-12.31.15-4.72-3.48-8.87-7.75-10.9s-9.09-2.39-13.78-2.9c-33.88-3.73-67.2-17.11-101-12.84-23.38,2.95-46.94,14.26-69.53,7.56l-9.54-2.8c-49.06-29.1-110.14-37.16-165.08-21.81-21.2,5.93-41.41,15.15-62.78,20.48-33.63,8.4-68.94,6.91-103.14,12.62s-69.81,21-86,51.66a703.83,703.83,0,0,0,13.52-156.5c-.1-3.84-.22-7.8,1.12-11.41,1.74-4.67,5.66-8.12,9.07-11.76,11.2-12,17.69-27.51,24-42.68q10.82-26.19,21.64-52.39c1-2.29,1.91-4.75,1.41-7.18-1.35-6.49-10.6-6.57-17-4.74a200.5,200.5,0,0,0-77.18,42.46,292.82,292.82,0,0,0-36.82-70c-3.28-4.6-7.5-9.54-13.14-9.66-10.42-.22-13.22,14-13.56,24.45-1.26,38-16.33,73.94-31.16,108.91-3.17,7.47-6.44,15.11-11.89,21.13s-13.59,10.24-21.6,8.88l-9.07,4.31c-14.39,5.57-25.77,17-34.78,29.56s-16.1,26.33-24.81,39.07c-14,20.44-32.35,38.46-40.89,61.71-1.77,4.8-5.23,11-10.08,9.37-3.3-1.09-4.31-5.18-4.73-8.63-2.25-18.49-2.07-38.27,7.22-54.42,6.52-11.31,16.88-19.77,26-29.1,41.23-42.13,57.71-106.89,41.64-163.6-5.25-18.52-13.72-38-7.59-56.24,1-3,2.42-6,2.25-9.2-.27-4.91-4.46-8.92-9.12-10.46s-9.75-1.1-14.62-.45c-36.26,4.87-70.59,20.64-99.89,42.53s-53.79,49.77-74.45,80c-9.94,14.54-19.09,29.72-25.79,46-14.84,36.1-17.09,76.15-15.36,115.15l-2.32,5c-22.6-30.19-25.21-70.85-42.69-104.26-28.81-55.08-95.31-86-114.75-145-1.7-5.16-3.06-10.6-6.36-14.94S599.7,37,594.66,39c-3.28,1.33-5.47,4.4-7.4,7.37-38.24,59-41,136.28-19,203.06a239.93,239.93,0,0,0-131.74-57c-25.79-2.65-51.85-1.08-77.68-3.22s-52.31-8.44-72.54-24.65c-5.09-4.08-12.44-8.85-17.3-4.49-2.47,2.21-2.86,5.88-3,9.2a151,151,0,0,0,35.27,101.61l5.8,6.23c39.27,41.18,81.61,84.2,136.8,98,13.39,3.35,27.28,4.89,40.26,9.6s25.43,13.37,30.38,26.25a6.32,6.32,0,0,1,.57,2.95c-.37,3.08-4.28,4.12-7.38,4.32a138.2,138.2,0,0,1-62.57-10.7c-19.29-8.19-36.48-20.68-55.6-29.25-52-23.33-112-15.51-168.46-7.61S104.34,385.6,53,360.91c-5-2.39-10.32-5.15-15.76-4.13-7.67,1.45-12.13,10.22-11.52,18s4.93,14.71,9.15,21.27c22.61,35.06,46.48,69.86,77.37,97.89s69.75,49,111.39,51.61l3.77,4.85c-28.53,14.3-47.68,41.65-68.75,65.61-38.89,44.23-87.12,79.07-130.53,118.87-2,1.82-4,3.74-5.06,6.24-2.29,5.55,1.43,12.12,6.66,15.07s11.51,3.2,17.52,3.34c34.67.81,70.33.28,102.56-12.54,16.33-6.51,31.37-16,47.85-22.15a13.2,13.2,0,0,1,5.47-1.15c3.06.21,5.59,2.34,8.2,4,17,10.47,39.89-.62,58.85,5.67,9.75,3.23,17.4,10.71,24.67,18-33.27,3.5-68.41,7.72-95,28.09-20,15.34-33.16,38.56-54.27,52.29l-9.3,4.18L116.13,848.5c-8.51,5.36-17.09,10.75-24.41,17.64-11.54,10.85-19.51,25-25.78,39.5-4.41,10.22-8.09,20.87-9.29,31.93s.18,22.61,5.44,32.41c1.35,2.53,3,5,3.61,7.78s.23,5.62-.16,8.42l-1.35,9.64.67,6.06c1.57-1.13,3.48-1.65,5.22-2.48,4-1.9,7.12-5.32,10.58-8.15s7.84-5.19,12.22-4.32l-.89-5c-1.31-8.36,4.3-16.07,9.59-22.67l13.26-16.53a112.49,112.49,0,0,1,10.53-11.91,82.87,82.87,0,0,1,11.83-8.91c3.63-2.33,7.49-4.55,11.76-5.15,3.38-.48,6.81.09,10.22.25,6.19.29,12.35-.77,18.46-1.82,12-2.07,24.44-4.32,34.37-11.35l4-2a85.9,85.9,0,0,1,64.3.33c7.62,3.17,14.78,7.44,22.64,10,13.33,4.26,27.72,3.15,41.62,1.52,10.24-1.21,20.65-2.68,30.78-.76,7.11,1.34,13.79,4.31,20.42,7.19,36.65,16,76.45,30.53,115.76,23.3,12.34-2.26,24.18-6.63,35.83-11.29l7.25.94c1.21-5.5,2.76-11.57,7.48-14.63,2.6-1.69,5.78-2.18,8.87-2.45Z"></path>
    <path data-name="4a" data-official="" data-plain="Flower" data-loc="" d="M1452.49,2633.57c2.93-4.29,1.47-10.46-2-14.27s-8.58-5.77-13.53-7.33-10.1-2.88-14.36-5.83c-9.15-6.33-12.12-18.59-12-29.71s2.65-22.23,1.43-33.29c-.37-3.3-1.41-7-4.42-8.42-1.71-.79-3.68-.64-5.56-.66a28.57,28.57,0,0,1-18.78-7.4,18.44,18.44,0,0,1-31.75-5.69c-.57-1.67-1-3.53-2.3-4.68a10.62,10.62,0,0,0-3.9-1.62,15.2,15.2,0,0,1-2.55-27.92c3.89-2.07,8.83-2.57,11.63-6,1.33-1.62,2-3.7,2.87-5.6a20.13,20.13,0,0,1,34.29-3.34,38.23,38.23,0,0,0,3.54,4.72c6.67,6.5,17.88.87,27,2.65,8.19,1.59,13.75,8.91,20,14.43a54,54,0,0,0,30.4,13.17c4.07-10.55,14.4-17.23,24.54-22.23,7.46-3.68,17.09-6.63,23.5-1.34,5.17,4.26,5.66,11.87,5.62,18.57q-.11,16.14-1.14,32.25c-.3,4.77-.71,9.67-2.88,13.93-3.05,6-9.14,9.84-12.82,15.46-4.9,7.5-4.91,17.1-7.82,25.58-2.28,6.64-6.32,12.52-9.48,18.8s-5.47,13.43-3.93,20.28c1.64,7.31,7.28,12.91,12.22,18.54s9.63,12.53,8.7,20c-.72,5.76-4.86,10.69-9.89,13.59s-10.88,4-16.65,4.68a108.52,108.52,0,0,1-24.83-.17c-8.55-1-18.43-4.46-20.64-12.78-1.58-5.94,1.53-12.12,5.39-16.89s8.65-8.93,11.36-14.44Z"></path>
    <path data-name="4b" data-official="" data-plain="Flower" data-loc="" d="M1661.51,2628.57c.75-7.65,1.2-16.28-3.91-22-3.55-4-9-5.6-14-7.4-12.74-4.56-25.2-12-31.67-23.92a37.36,37.36,0,0,1-4.4-20.58c.4-5.09,2-10.3,5.56-13.95s9.47-5.29,14-2.94c3,1.53,5,4.5,8.08,5.82,5.93,2.56,13.23-3.2,13.19-9.65s-6-11.89-12.46-12.56c-8.15-.86-16,4.47-24.16,3.55a16.38,16.38,0,0,1-13.31-10.6c-5,3.29-10.5,6-16.43,6.46s-12.32-1.71-15.77-6.56c-1.15-1.61-2-3.51-3.57-4.71-2.05-1.56-4.84-1.58-7.29-2.35-7-2.23-10.46-11.08-8.24-18.1s8.81-12,15.88-14.06a16.33,16.33,0,0,0,3.44-1.21c1.79-1,3-2.75,4.21-4.41,4-5.53,8.93-10.81,15.39-13s14.71-.42,18,5.55a32.07,32.07,0,0,0,2.2,4.14c2.78,3.6,8.12,3.45,12.66,3.49,10.55.12,21.54,3.53,28.53,11.43,1.85,2.09,3.39,4.46,5.39,6.41,2.5,2.43,5.61,4.11,8.54,6a68,68,0,0,1,18.82,18.07c4.54,6.46,9.83,14.73,17.68,13.83,3.38-.39,6.26-2.52,9.33-4a25,25,0,0,1,14.29-2.18c4.4.64,8.87,2.71,11.06,6.58,1.89,3.35,1.77,7.43,1.6,11.27-.87,19.66-2.59,41.33-16.61,55.14-5.79,5.7-13.46,9.79-17.3,17-3.34,6.22-3.15,13.8-1.46,20.66s4.73,13.3,6.94,20c1.07,3.24,2,6.65,1.55,10-.53,4.38-3.16,8.26-6.36,11.3-12.43,11.78-31.66,11.75-48.72,10.23a10.67,10.67,0,0,1-5.15-1.37,8.49,8.49,0,0,1-2.83-3.87c-2.83-6.77-1.53-14.7,1.74-21.28s8.33-12.05,13.32-17.43Z"></path>
    <path data-name="4c" data-official="" data-plain="Stamen" data-loc="" d="M1786.59,2632.57q-5.07-51.06-12.65-101.82c-8.62,4.06-20,.84-25.2-7.13-3.85-5.89-4.32-13.35-4-20.39a51.79,51.79,0,0,1,2.48-15.11,33.16,33.16,0,0,1,53.26-13.77c10.43-7.28,25.56-4.13,35.16,4.2s14.75,20.64,18.57,32.77c2.41,7.68,4.15,16.9-1,23.09-4.76,5.71-13.87,6.13-20.44,2.65s-11-9.93-14.51-16.5l-2.61,99.61c-.12,4.37-.23,8.81.81,13.06,2.55,10.5,11.83,19,12,29.83.13,9-6.46,17-14.53,21s-17.35,4.43-26.32,4.13c-6.66-.22-14.18-1.32-18-6.75-4.91-6.9-1.08-16.57,3.89-23.43s11.32-13.75,11.33-22.22Z"></path>
    <path data-name="5a" data-official="E. pentagona" data-plain="" data-loc="East Indies" d="M253.71,2247.64a68.3,68.3,0,0,1-15-14c-2.77-3.57-5.11-7.49-8.13-10.86l-8.07,1.48c-11.85,2.16-24.14,5-33.41,12.65-10.41,8.63-15.41,22.12-18.49,35.29-1.27,5.43-1.77,12.3,2.85,15.41a20.53,20.53,0,0,1,3.37,2.15,6.41,6.41,0,0,1,1.54,4c.4,4.86-1.83,9.53-2.35,14.38s1.83,10.87,6.69,11.24c2.63.2,5.82-1.19,7.58.77a5.08,5.08,0,0,1,1,2c3.21,11.28-.9,23.37-6.48,33.69S172,2375.84,168.43,2387c-1.79,5.54-2.75,11.54-6.21,16.22-4.44,6-12.12,8.62-19.49,9.83s-15,1.37-22,4c-3.28,1.22-6.37,2.95-9.75,3.9s-7.24,1-10.12-1c-6.11-4.21-4.93-15-11.51-18.46l-6.89-1.53a16.17,16.17,0,0,0-15,12.78c-1.12,6,1.06,13.05-2.85,17.73-4.43,5.3-12.92,3.3-19.52,5.34-8.26,2.56-13,11.65-13.6,20.28a38.14,38.14,0,0,0,12.16,30.24,41.88,41.88,0,0,0,31,10.72c4-.27,8-1.1,12-.59a18.46,18.46,0,0,1,13.36,8.78l8.41,4.4,40.84,9.45c7.72,1.79,15.68,3.68,22.1,8.33,7.19,5.22,11.64,13.31,15.87,21.12l20.22,37.43c1.44,2.68,2.92,5.5,2.91,8.54,0,5.57-4.83,9.72-8.3,14.08-9.24,11.62-9.5,29.52-.6,41.41,4.71,6.28,11.79,11.32,13.48,19,2.44,11-6.93,24.48.78,32.7,2.63,2.81,6.57,3.91,10.31,4.79q10.77,2.55,21.75,4.09c7.62,1.06,15.61,1.73,22.82-1s13.38-9.61,12.78-17.28c-.53-6.9-6.13-12.45-7.42-19.25a16.45,16.45,0,0,1,9.18-17.53c6.32-2.82,13.72-1.28,20.49-2.71s13.45-9.06,9.48-14.74c-1.74-2.49-4.88-3.52-7.28-5.38-7-5.44-5.85-17.06,0-23.73s14.72-9.64,23.16-12.33c13.12-4.19,26.43-8.41,40.19-9,9.67-.43,19.31.92,28.89,2.28,8.76,1.23,17.94,2.65,24.94,8,4.52,3.48,7.74,8.34,11.31,12.78,4.56,5.67,10.22,11,17.33,12.54s15.71-2.1,17.43-9.17c2.21-9.13-7.42-17.59-6.52-26.94,1.2-12.61,19.31-16.61,23.73-28.48,3.17-8.54-3.48-19.19-12.55-20.07-4.26-.42-8.92.93-12.62-1.21-2-1.14-3.3-3.09-4.57-5-7.3-10.89-14.6-22-18.89-34.37-4.24-12.21-5.41-25.24-6.54-38.12-2-22.38-2.67-48.25,13.95-63.37l5-5.14c4.87-4.26,12.06-4.3,18.47-3.46s13.05,2.31,19.2.34a6.67,6.67,0,0,0,2.9-1.62,5.66,5.66,0,0,0,1.39-3.6c.3-4.87-3.47-9.18-7.8-11.44s-9.25-3-13.89-4.59a3.3,3.3,0,0,1-2.09-1.44c-.76-1.64,1.26-3.11,2.87-3.93a29.44,29.44,0,0,0,9.55-44.7l.88-9.35c-21.61-5.75-44.77-2.51-66.5-7.77l-7-.12-1.73,5.75c-2.21,6.17-.87,14.6-6.54,17.89-2.54,1.47-5.67,1.26-8.57,1.67-9.24,1.3-17.31,9.18-26.52,7.77a26.28,26.28,0,0,1-8.35-3.29A263.31,263.31,0,0,1,335,2315.17c-6.3-4.32-12.47-8.94-19.41-12.14-7.49-3.45-15.78-5.19-22.83-9.48-4.7-2.85-8.68-6.73-12.54-10.65q-11.9-12.12-22.81-25.16Z"></path>
    <path data-name="6a" data-official="" data-plain="Flower of Euphorbia" data-loc="" d="M500.75,2514.42c3.33-2.13.18-7.65-3.68-8.5s-8.07.43-11.74-1c-4-1.59-6.08-5.89-7.78-9.83-2.21-5.13-4.38-10.39-4.81-16s1.16-11.57,5.4-15.2c1.82-1.57,4.08-2.66,5.62-4.51,2.41-2.9,2.56-7,4-10.51,1.51-3.72,4.44-6.66,7.32-9.46,11-10.66,23-21.37,37.84-24.87,9.82-2.31,20.08-1.27,30.11-.22,5.65.6,11.42,1.22,16.56,3.62,6.67,3.1,11.95,9,19,11,7.87,2.17,16.16-1,24.33-1,17.63.1,31.27,14.54,44.19,26.54,1.72,1.6,3.91,3.29,6.18,2.69,1.81-.48,2.91-2.23,4.17-3.62,6.42-7.07,19-4.7,25.16,2.63s7.19,17.63,6.68,27.17c-.22,4.1-.85,8.55-3.83,11.38-1.93,1.84-4.57,2.69-7,3.89-4.12,2.09-7.57,5.3-11.6,7.54s-9.17,3.43-13.2,1.18c-5.74-3.19-6.69-11.67-12.33-15-5.35-3.18-12.06-.35-17.93,1.74a69.08,69.08,0,0,1-28,3.79c.06,9.38-9.17,17.72-18.5,16.74a185.56,185.56,0,0,1,5.29,63.92c-1.14,12.42-3.92,25.49-12.64,34.4-2.71,2.77-5.93,5.05-8.4,8-7.8,9.45-5.43,25.49,4.78,32.27,2.15,1.42,4.6,2.51,6.25,4.49,2.83,3.41,2.46,8.58.54,12.59-4.81,10-16.82,14.13-27.8,15.88a134.53,134.53,0,0,1-27,1.55c-3.14-.14-6.61-.54-8.68-2.91-2.23-2.54-2-6.37-1.32-9.68,1.77-9,5.52-17.49,7.41-26.46s1.65-19-3.82-26.38c-3.11-4.16-7.58-7-11.47-10.48-11.35-10-17.63-24.8-20.15-39.73s-1.61-30.21-.71-45.33Z"></path>
    <path data-name="6b" data-official="" data-plain="Stamens" data-loc="" d="M716.48,2484.53c4.34-4,11.8-2.44,15.72,1.93s5,10.63,4.85,16.51-1.22,11.72-.88,17.58c.41,6.85,2.76,13.42,4,20.16,1.43,7.57,1.48,15.33,1.53,23l.18,28.45c0,5.84.08,11.72-1,17.46-.77,4.23-2.13,8.34-3.07,12.53a65.39,65.39,0,0,0-1.6,14.22c0,2,.18,4.26,1.66,5.64a8.6,8.6,0,0,0,4,1.63c9.65,2.3,18.72,7.92,24,16.33a19.26,19.26,0,0,1,3.19,8.82c.32,4.83-2,9.58-5.44,13a32.42,32.42,0,0,1-12.49,7.16,59.18,59.18,0,0,1-31.14,1.87c-4.44-.93-9.18-2.72-11.31-6.73a15.78,15.78,0,0,1-1.4-7.27,67.24,67.24,0,0,1,1.18-13.58c.81-4.2,2-8.58.74-12.67a26.08,26.08,0,0,0-3.35-6.15,68.6,68.6,0,0,1-10.55-42c.24-3,.79-6.29,2.94-8.44,3.69-3.69,9.84-2.33,14.8-.73q-1.11-26.51-4.25-52.87c-.42-3.51-.92-7.17-2.92-10.08-2.35-3.44-6.38-5.26-9.53-8a20.77,20.77,0,0,1-6.84-12.1l-2.57-4.07c4-2.24,7.48-5.45,11.6-7.54,2.38-1.2,5-2,7-3.89,3-2.83,3.61-7.28,3.83-11.38Zm-65.32,58.74A24.22,24.22,0,0,0,637.23,2533a18.83,18.83,0,0,0-16.64,3.57c-7.71,6.59-7.82,18.4-6.06,28.39,1.06,6,2.56,12,4.21,17.9a377,377,0,0,0,23.29,62c1.18,2.46,2.41,5,2.61,7.71.4,5.55-3.46,10.34-6.29,15.13a45.89,45.89,0,0,0-6,18c-.26,2.3-.31,4.78.92,6.74,1.83,2.95,5.75,3.65,9.2,4a172.87,172.87,0,0,0,29,.18c5.38-.42,11.26-1.34,14.86-5.37s3.85-10.15,3.85-15.66c0-7.11-.08-14.48-3.09-20.93-4-8.57-12.56-14.09-17.91-21.9-3.73-5.46-5.79-11.88-7.79-18.18-6.73-21.2-13.54-43.06-11.76-65.23Z"></path>
    <path data-name="6c" data-official="" data-plain="Flowers" data-loc="" d="M755.75,2534.1c.68-16.58-5.49-33.21-16.3-45.8-4.1-4.78-9-9.21-11.07-15.14s0-14,6.12-15.65c4.35-1.17,8.76,1.29,12.59,3.66,1-4.53,2.16-9.21,5-12.88s8-6,12.27-4.23c5.21,2.17,6.85,9,11.63,12a3.31,3.31,0,0,0,2.27.64c1.13-.2,1.84-1.27,2.44-2.25,2.71-4.41,5.85-8.74,10.22-11.5s10.25-3.68,14.74-1.1c2.86,1.64,5,4.56,8.17,5.48,7.67,2.23,16.61-8.21,22.65-3,2.8,2.42,2.63,6.69,2.68,10.39s1.26,8.2,4.86,9c6,1.34,8.2-8.33,13.86-10.62,5.3-2.15,10.77,3,16.48,3.25,1.84.07,3.68-.38,5.51-.19,3.43.34,6.2,2.8,9.13,4.62s7,2.94,9.65.77c2.38-1.94,2.47-5.5,3.9-8.22,5.36-10.22,24-3.06,30.88-12.31,1.16-1.55,1.87-3.48,3.37-4.69,2.26-1.81,5.5-1.46,8.36-1,10.32,1.59,22.83,5.12,25,15.32,1,4.64-.57,9.4-2.13,13.89-2.3,6.63-6,14.42-13,15-2.05.17-4.2-.35-6.11.41-2.6,1-3.75,4-5.05,6.44a26.42,26.42,0,0,1-22.36,13.82c-2.68.05-5.74-.19-7.66,1.69a7.89,7.89,0,0,0-1.85,3.68c-3.2,11.67-.07,24.15-1.69,36.14-.94,6.94-3.44,13.56-5.93,20.11l-11,29c-3,7.95-6.09,16-11,23a51.78,51.78,0,0,1-19.15,16.53c-2.45,1.22-5.09,2.34-6.75,4.51-4.12,5.43.44,13.17,5.57,17.67s11.55,9.23,11.52,16.05c0,8.69-10.19,13.18-18.57,15.49-13,3.58-26.62,7.19-39.73,4.13a14.6,14.6,0,0,1-7.27-3.52,13.49,13.49,0,0,1-3.31-7.76c-1.34-9.73,2.59-20-.55-29.27s-12.21-14.82-19.56-21.24c-24.09-21-32.09-55.34-31.64-87.3Z"></path>
    <path data-name="6d" data-official="" data-plain="Section of Ovary" data-loc="" d="M944.76,2574.9a71.13,71.13,0,0,1,28.07-40.69c3.12-2.18,6.48-4.16,8.84-7.14s3.47-7.35,1.52-10.62c-1.69-2.84-5.1-4-8.24-5.06l-11.55-3.72c-3.18-1-6.52-2.15-8.77-4.62s-2.87-6.78-.4-9c2.27-2.08,6.19-1.74,8.14-4.12,1.51-1.85,1.18-4.56,2-6.81,1.73-4.89,8.43-6.27,13.19-4.22s8,6.39,11.35,10.37a133,133,0,0,0,18.21,18c4.75-7.16,11.73-12.48,18.58-17.66,5.37-4.06,11.23-8.29,18-8.47a16.85,16.85,0,0,1,16.53,13.83,10.75,10.75,0,0,1-.41,5.37c-1.3,3.45-4.86,5.57-8.42,6.55s-7.31,1.1-10.89,2a25.18,25.18,0,0,0-9.08,4.42,7.86,7.86,0,0,0-3.2,4.22c-.83,3.73,2.9,6.73,6.09,8.84a136,136,0,0,1,19.34,15.58c8.57,8.29,16.29,18.23,18.53,29.94a64.74,64.74,0,0,1,.66,15.05c-.61,14-3,29.13-13.29,38.57-2.49,2.28-5.38,4.16-7.55,6.75-7.09,8.45-4.39,21-5,32-.18,3-.71,6.22-2.6,8.61s-5,3.67-7.94,4.67a104.87,104.87,0,0,1-45.48,4.77c-5-.59-10.62-2-12.9-6.49-1.32-2.59-1.19-5.65-.85-8.53a69.16,69.16,0,0,1,6.26-21.61c.86-1.79,1.82-3.73,1.39-5.67-.75-3.38-5-4.46-8.43-4.72-6.08-.47-12.48-.57-17.77-3.61-7.67-4.4-10.94-13.82-11.83-22.62s0-17.83-2.25-26.39Z"></path>
    <path data-name="7a" data-official="Seed of E. Lathyris" data-plain="Caper Spurge" data-loc="" d="M1294,2612.26c2-13.55,8.62-26.6,19.18-35.34s25.21-12.76,38.49-9.39c13.06,3.31,23.52,13.06,31.9,23.61,4.51,5.68,8.66,11.83,10.74,18.78s1.85,14.88-2,21c-4.31,6.93-12.24,10.54-18.83,15.36-1.44,1.06-3,2.38-3.13,4.16a6.12,6.12,0,0,0,.76,3.13c3,6.48,8.65,12.68,7.19,19.67s-9.32,10.55-16.29,12.32a121.3,121.3,0,0,1-34.21,3.63c-3.26-.13-6.83-.51-9.14-2.83a9.67,9.67,0,0,1-2.4-4.86c-2-9.4,4.66-20-.2-28.32-2.87-4.89-8.75-6.95-13.33-10.28a26.72,26.72,0,0,1-10.56-24.45Z"></path>
    <path data-name="8a" data-official="Hura crepitans" data-plain="Seed-vessel" data-loc="" d="M1342.25,2146.29c-6.94,9-13.92,18.13-18.85,28.39-4.43,9.25-7.1,19.23-9.29,29.24a338.3,338.3,0,0,0-7.77,71.06c0,10.14.41,20.41,3.24,30.15,2.77,9.51,7.74,18.21,11.43,27.41,8.42,21,10.58,45.22,25.09,62.57,10.45,12.49,25.89,19.58,41.12,25.33a407.46,407.46,0,0,0,111.84,25l7.84-.47c21.79,6.45,45.06,12.91,66.86,6.53,6.1-1.79,12-4.56,18.3-5.25,5.44-.58,10.92.42,16.38.93a90.39,90.39,0,0,0,66-20.84c4-3.42,7.79-7.22,12.31-9.95,6.87-4.15,15.08-5.57,22.14-9.39,5.68-3.07,10.53-7.65,16.55-10,5.32-2.07,11.16-2.23,16.86-2.37l43.78-1.06c9.84-.24,22.22-2.36,24.67-11.9,1-3.91-.14-8.09-2-11.7a33.64,33.64,0,0,0-13.78-14.37c-5.18-2.85-11.17-4.36-15.66-8.2-10.16-8.68-8.45-24.56-5.84-37.66,5.45-27.3,11-55.44,5.7-82.76-5.47-28.08-21.9-52.59-38-76.25l-1.13-8.49a207.27,207.27,0,0,0-23.31-41.22c-4.87-6.69-10.3-13.22-17.36-17.53-5.34-3.26-11.41-5.12-17.49-6.56a148.38,148.38,0,0,0-66.72-.33c.76-11.07.75-24-7.88-30.95-4.26-3.44-9.87-4.67-15.3-5.36a104.12,104.12,0,0,0-44.36,4c-6.93,2.2-13.91,5.17-21.17,4.63-3.87-.29-7.6-1.58-11.4-2.4-16.12-3.47-32.87,1.56-47.86,8.43s-29.21,15.66-45,20.39c-8.31,2.49-18,4.59-22.1,12.22l-3.45,8.1c1.81,7.45,5.17,14.42,7.65,21.68s4.05,15.15,2.17,22.58l-.6.39c-2.8,1.34-5.85-1.62-9-1.62-2.16,0-4.08,1.46-6.24,1.69-3.14.32-6.09-2-9.24-1.8-1.45.1-2.81.74-4.25.94a14.73,14.73,0,0,1-3.75-.13l-14.51-1.8-7.34,1.13Z"></path>
</svg>
