
<svg xmlns="http://www.w3.org/2000/svg" viewBox="0 0 1990 2637" id="illustration" preserveAspectRatio="xMidYMid meet">
  <title>Urticaceæ</title>
    <path data-name="1" data-official="Urtica pilulifera" data-plain="Roman Nettle" data-loc"england"="" d="M619,1451.13a696.71,696.71,0,0,1-70.95.22l-4.14,3.81-3.7,32.27c-.2,1.78-.37,3.74.63,5.23s3.09,2.15,4.94,2.64c13.23,3.45,27.22,10,32.28,22.75,5.55,13.92-1.77,29.6-10.68,41.65-2.23,3-4.93,6.17-8.64,6.73-2.63.4-5.24-.6-7.88-1-15-2.28-25.53,14.13-39.13,20.89-12.46,6.2-28.78,3.36-38.49-6.62s-12.12-26.29-5.8-38.69c-4.55-1.44-5.14-7.66-4.16-12.33s2.48-10.09-.53-13.79c-2.23-2.74-6.14-3.36-9.67-3.33-14.42.13-27.89,8-37.86,18.44s-16.95,23.26-23.82,35.94c-3,5.51-6,11-8.42,16.8a127.93,127.93,0,0,0-7.73,27.1c-3.71,20.52-4,41.49-4.12,62.35q-.23,39.12.36,78.25c.44,29.81,1.26,59.87,8,88.91,4.16,17.86,10.68,35.44,21.52,50.24l18.66-26.53c1.74-2.48,3.56-5.17,3.61-8.2.05-2.68-1.29-5.16-2.28-7.65a31.56,31.56,0,0,1,4-30l2.75-5.17c2.86-20.55-1.59-42.5,6.73-61.51,5.09-11.62,14.66-21.26,17.45-33.63.94-4.16,1.27-8.88,4.41-11.76,1.88-1.72,4.44-2.44,6.66-3.7,4.37-2.48,7.19-6.94,9.8-11.24s5.32-8.8,9.59-11.45,10.6-2.75,13.74,1.18c.56.71,1.1,1.58,2,1.78,1.12.25,2.12-.71,2.87-1.58l8.28-9.62c1.43-1.67,3-3.39,5-4.13,1.73-.61,3.64-.44,5.45-.74,4.32-.72,7.7-4,11.52-6.1s9.36-2.84,12,.67a19.66,19.66,0,0,0,1.84,2.72c2.14,2,5.6.77,8.34-.34,16.35-6.66,34.78-3.38,52.31-1.32a346.75,346.75,0,0,0,63.29,1.57L671,1665a9.91,9.91,0,0,0-4.67,4.21,29,29,0,0,1-3.71,5.2,19.86,19.86,0,0,1-2.73,2.08c-3,2-6.17,4.08-9.76,4.22l.24.21a9.1,9.1,0,0,1,6.21,1.71,26.72,26.72,0,0,1,4.78,4.49,24.29,24.29,0,0,1,2.9,3.66l-.06.7a43.62,43.62,0,0,0-32,14.37c-2.71,3-5.08,6.75-5,10.81l.44.13c2.22-.25,4.76-.39,6.35,1.17.75.73,1.17,1.75,2,2.42a6.17,6.17,0,0,0,4.29,1,45.65,45.65,0,0,0,6.17-.67l-.27.91a155.09,155.09,0,0,0-9.95,12.6c-4.79,6.77-9.22,14.75-7.81,22.92l.31.25a26.15,26.15,0,0,0,15.63-1.39l.56,0c-5.67,6.57-11.41,13.21-15.38,20.93s-6.07,16.72-4,25.15l.36.45a26.41,26.41,0,0,0,14.62-4.42l.07-.13a113.2,113.2,0,0,0-16.34,35.57l.35,0a28.23,28.23,0,0,0,16.62-2v.53a61,61,0,0,0-11,28.52,122.6,122.6,0,0,0-.36,16.49l-.06,0a23.66,23.66,0,0,0,12.73-1.38l1.37-.72a9.83,9.83,0,0,1,5.15,8.65l.68.75a26.47,26.47,0,0,0-14.8,28.18l-.43.26a46.62,46.62,0,0,0,7.81,1.09l-.81.94c-2.38,1.58-2.77,4.85-2.93,7.7s-.52,6.12-2.87,7.73l-6.06,8.33a86.22,86.22,0,0,1-65.37,13.75c-32.17-6.38-57.54-30.33-81-53.23A204,204,0,0,0,461.5,1983l1.24,6.37c14.13,16.53,41.82,14.73,56.81,30.49,10.56,11.1,12,28,10.81,43.28-.49,6.52-1.41,13.26-4.88,18.8-6.15,9.82-18.75,13.51-30.33,13.93A82.29,82.29,0,0,1,449.66,2084c-4.73,6.34-1.78,15.29,1.42,22.51,28.57,64.37,65.56,124.68,105.13,182.94,6.71,9.88,13.82,21,12.22,32.8-.61,4.51-2.47,8.75-3.45,13.19-2.78,12.57,1.33,26.94-5.63,37.76a21.12,21.12,0,0,1-38.72-8.77c-.9-7.1,1.82-14.42.17-21.38-1.77-7.42-8-12.74-13.54-18a138.14,138.14,0,0,1-27-36.08l1-4.33a561.91,561.91,0,0,1-35.85-53.29c-23.18-39.08-41.54-80.79-59.83-122.38l-4.51-2.74a12.5,12.5,0,0,1-20.72-10.54c.52-5.56,4.71-10.68,3.7-16.17-.72-3.87-3.86-6.77-6.75-9.44-26.76-24.68-48.16-56.43-55-92.18a5.74,5.74,0,0,0-1.31-3.18,5.46,5.46,0,0,0-3.36-1.12,98.59,98.59,0,0,0-16.57-.16c1.65,7-4.79,13.42-5.49,20.6-.28,3,.43,5.94.28,8.92-.4,8-7.33,14.69-15.07,16.93s-16.08.88-23.83-1.37c-3.79-1.11-8-2.4-11.54-.62-3,1.51-4.58,4.79-6.69,7.4a19.42,19.42,0,0,1-33.24-5.3c-1.81-4.77-1.68-10-1.09-15.11a7.05,7.05,0,0,0-.3-4c-.94-1.81-3.22-2.35-5.15-3-6.88-2.47-11.9-10.22-10-17.27,1.74-6.37,8.07-10.31,14.21-12.74a7.38,7.38,0,0,0,3-1.75c2-2.3.26-5.76,0-8.78-.4-4.61,3.09-8.89,7.34-10.69s9.09-1.59,13.65-.86c3.65.58,7.37,1.47,11,.76,5.64-1.09,9.8-5.74,13.52-10.12l.08-3.26a17.83,17.83,0,0,1-6.25-.38c-21-3.81-42.12-7.92-62.08-15.54s-38.89-19-52.65-35.33C94,1862,86,1836.1,82.13,1810.43s-4-51.76-7.26-77.52A331.87,331.87,0,0,0,56.6,1658.2c-3.25-8.72-6.93-17.43-12.75-24.7-5.61-7-13.67-15.22-9.92-23.37l5.38-2.75a7.17,7.17,0,0,1,3.51-.48c35.53,1.35,69.76,14.24,105.22,16.67,23.11,1.58,47.2-1.17,68.71,7.42,16.68,6.65,30,19.47,44.95,29.44,1.5,1,3.15,2,5,2,2.06-.07,3.78-1.51,5.65-2.38,8.8-4.1,18.17,4.82,22.4,13.56s7.81,19.37,16.94,22.67q7.43-59.65,13.09-119.5c.28-2.92.53-6-.6-8.67-1.92-4.6-7.11-6.7-11.73-8.56-12.53-5-24.65-11.73-34.07-21.42s-15.94-22.68-15.88-36.19c0-6.77,1.55-14.14-2-19.88-1.7-2.73-4.35-4.69-6.63-7-11.91-11.9-11.63-33.73.59-45.31,15.16-14.38,39.89-10.68,58.73-19.72l-7.22-4.65c-16.68-2.39-32.56-8.57-48-15.32-22.22-9.7-44-20.77-63.14-35.71s-35.44-34-44.37-56.55c-2.39-6-2.8-15.17,3.5-16.78a202.11,202.11,0,0,1-11.53-101c3.58-25,11.84-49.18,17-74a307.89,307.89,0,0,0,.23-124.84l-.67-8.86a20.57,20.57,0,0,1,5.6-7.64,11.12,11.12,0,0,1,8.93-2.43l5.6,1.86A251.37,251.37,0,0,1,211.81,1001c1.27,1.74,2.67,3.62,4.74,4.23a18.06,18.06,0,0,0,3,.38c6.66.81,10.7,7.56,13.71,13.55l2.16,4.43A162,162,0,0,0,250.5,1053c1.6,2.47,3.68,5.14,6.62,5.34,2.08.14,4.06-1,6.15-1,3.92,0,6.47,4,8.33,7.44a408.35,408.35,0,0,0,36.4,56.12c1.55,2,3.34,4.14,5.84,4.59,5.13.93,8.5-5.48,13.44-7.14,7.3-2.45,13.35,5.86,16.6,12.84L366,1178.7c4.8-18.36,18.07-33.49,23.68-51.62,3.67-11.85,3.89-24.46,4.08-36.87q.4-25.57.8-51.14c.06-4,.61-8.9,4.23-10.7,4.11-2,8.75,1.48,11.7,5,14.9,17.67,21,41,25.66,63.63a860.63,860.63,0,0,1,15.89,114.36c17.9-15.43,25.15-41.51,45.24-53.95a5.52,5.52,0,0,1,3.63-1.15c2.89.45,3.39,4.36,3.16,7.28l-4.28,54.2c2.11-5.09,10.28-4.73,13.68-.4s3.14,10.49,1.93,15.87-3.22,10.73-2.75,16.22A92.82,92.82,0,0,0,546.56,1232c7.51-6.12,14.06-13.41,21.9-19.12s17.53-9.81,27.1-8.22l6.19-.11c22.74-6.52,46.89-4.88,70.52-3.91a45,45,0,0,0,11.13-.49,15.53,15.53,0,0,0,9.4-5.56l.13.53c-1.07,7.37-7.7,12.56-14.24,16.13-10,5.44-21.18,9-32.53,8.58-3.19-.13-6.41-.58-9.57-.1s-6.36,2.1-7.74,5c-1.28,2.68-.74,5.86-1.36,8.76a11.27,11.27,0,0,1-5.85,7.59l-.47.75c2.7,1.7,5.43,4.25,5.28,7.43-.12,2.42-1.89,4.41-3.63,6.09a79.87,79.87,0,0,1-6.15,5.33c1.69-.56,3.31,1.45,3.12,3.22s-1.52,3.17-2.76,4.43l-17.2,17.46-.09,1a19.13,19.13,0,0,1,7.4,4,.75.75,0,0,1,.33.54.73.73,0,0,1-.23.42l-9.34,10.94a10.07,10.07,0,0,0-2.64,4.43l0,.53a17.45,17.45,0,0,0,10.29-1.47c3.37-1.61,6.16-4.28,9.56-5.83a32.33,32.33,0,0,1,8-2.11l11.14-2a21.12,21.12,0,0,0,6.36-1.82,7.16,7.16,0,0,0,3.93-5l.65-.27a43.78,43.78,0,0,0-1,6.64c0,.28,0,.61.23.75a.79.79,0,0,0,.57,0,104.28,104.28,0,0,1,24.85-2.37l1.35.13,2.26,5.75a1.78,1.78,0,0,0,.32.57,1.68,1.68,0,0,0,1.19.37c1.5.08,3.14.12,4.32-.81s1.25-3.2-.18-3.66a83.3,83.3,0,0,1,16.25-.54,1,1,0,0,1,.6.16c.3.21.31.65.31,1a9.44,9.44,0,0,0,.38,2.74,1,1,0,0,0,.39.66,1.13,1.13,0,0,0,.63.09l8.43-.46.47.13a9,9,0,0,1-1.93,5.54c-1.05,1.33-2.47,2.35-3.39,3.78-1.79,2.81-1.62,7.11-4.58,8.64a79.87,79.87,0,0,1,30.57-8.56l13.13,1.46c2.65,2.36,6.68,1.85,10.19,1.37s7.71-.51,9.85,2.31c1,1.39,1.35,3.2,2.16,4.75,1.8,3.42,5.74,5,9.37,6.34l19.71,7.19c2.34.86,4.81,1.8,6.33,3.77a24.17,24.17,0,0,1,1.81,3.22c2.61,4.77,7.52,7.78,12.39,10.17a23.52,23.52,0,0,1,6.47,4c1.81,1.79,2.95,4.5,2.13,6.91a6.83,6.83,0,0,1-4.33,3.93,20.36,20.36,0,0,1-6,.8l-5.63-1.07a40.63,40.63,0,0,0-20.59-2.41,3.67,3.67,0,0,1-1.08,4,7.43,7.43,0,0,1-4,1.66c-8.66,1.21-17-5.08-25.72-4.06a16.93,16.93,0,0,1,6.18,11.65,2.29,2.29,0,0,1-.19,1.37,2.43,2.43,0,0,1-1.29.86,48.72,48.72,0,0,1-10.29,2.62,5.62,5.62,0,0,1-1.95,7.85l7.46,6.87a9,9,0,0,1,2.26,2.73,4.64,4.64,0,0,1-3.37,6.19l-3.34,1.79c-4,.09-8,.21-11.64,1.74-1.44.61-2.79,1.43-4.26,1.95a22.52,22.52,0,0,1-6.34.94l-10.05.5c1.8.12,2.14,3,.79,4.19s-3.37,1.19-5.17,1.09l-8.73-.46-.37.47c.68,2.23,3.14,3.28,5.22,4.34,5.49,2.81,9.78,7.46,14,12l-.56.34c-6.53,1-12.92,2.86-19.48,3.69s-13.47.6-19.41-2.28a25.76,25.76,0,0,0,1.42,6.25l-26.82-.47a3.17,3.17,0,0,0-1.83.34,4.91,4.91,0,0,0-1.1,1.36c-1.35,1.89-3.86,2.45-6.15,2.85q-7.47,1.29-15,2.2Z"></path>
    <path data-name="1a" data-official="" data-plain="Stamen Flower" data-loc""="" d="M70.35,2541.81a28,28,0,0,1,11.45-28.15c1.83-1.25,3.87-2.31,5.23-4.06,2.42-3.11,2.07-7.58.74-11.29s-3.52-7.08-4.56-10.87c-2.92-10.64,4.67-22.4,15.11-26s22.44.07,30.74,7.33c4.35,3.81,8.15,8.71,13.69,10.37,6,1.79,12.26-.66,18.19-2.58,6.5-2.1,13.4-3.59,20.15-2.54s13.36,5,16,11.34a16.31,16.31,0,0,1-5.22,18.9c-3.43,2.52-8.57,5-7.61,9.2.36,1.56,1.59,2.74,2.66,3.93,6.63,7.34,8.7,19.44,2.49,27.14-6.77,8.4-20.37,8.95-26.67,17.72-5.28,7.35-3.65,18.19-9.34,25.22-4.59,5.66-12.52,7.13-19.77,7.73a161,161,0,0,1-22.61.26c-3.17-.19-6.48-.52-9.11-2.29-5.18-3.5-5.6-10.87-5.17-17.11s.84-13.38-3.58-17.8c-5.33-5.34-15.45-4.16-19.65-10.42Z"></path>
    <path data-name="1b" data-official="" data-plain="Stamens" data-loc""="" d="M217.17,2541.14c1.3-4.49,2.56-9.5.41-13.65-1.48-2.85-4.3-4.7-6.66-6.88a26.62,26.62,0,0,1,19.64-46.07c8.06.46,16.42,4.5,23.84,1.31,7.06-3,10.55-11.73,17.77-14.39,6.63-2.44,14.28,1.31,18.51,7s5.85,12.81,7.32,19.73c2.32,10.88,4.4,22.94-1.2,32.56-2.24,3.85-5.6,7-7.3,11.17-1.46,3.56-1.55,7.52-1.62,11.38l-.36,20.65c-.1,5.89-.39,12.29-4.18,16.8-2.17,2.58-5.24,4.2-8.31,5.57a78,78,0,0,1-31.31,6.65c-4.08,0-8.52-.46-11.47-3.27s-3.62-7.05-3.43-11,1.17-7.88,1.07-11.85a22.39,22.39,0,0,0-12.45-19.19Z"></path>
    <path data-name="1c" data-official="" data-plain="Seed-vessel" data-loc""="" d="M340.05,2530.39c-10.35-3.79-14.91-16.45-13.77-27.4,1.29-12.41,8.85-24.44,20.33-29.32s26.48-1.25,33.07,9.33c4.2,6.74,4.73,15.07,4.83,23,.11,8.43-.18,17.16-3.8,24.78-1.5,3.18-3.56,6.1-4.84,9.37-4,10.22.1,21.64.06,32.61,0,4.41-.91,9.18-4.18,12.15-2.29,2.08-5.42,3-8.47,3.56a143.87,143.87,0,0,1-20.74,2.08c-5.07.27-10.65.37-14.59-2.83-4.56-3.7-5.16-10.43-4.39-16.25a51.88,51.88,0,0,1,19.17-33.62Z"></path>
    <path data-name="1d" data-official="" data-plain="Carpel" data-loc""="" d="M400.48,2533.31a75,75,0,0,1,7.78-47.51c2.53-4.72,5.81-9.38,10.67-11.64s11.59-1.2,14.19,3.49c1.28,2.32,1.38,5.1,2.19,7.62,2.1,6.6,8.71,10.89,11.26,17.33,4.68,11.79-5.79,24.59-4.37,37.19.46,4.06,2.13,7.86,3.47,11.72,3.31,9.59,4.11,21.43-2.93,28.73-4.23,4.38-10.43,6.18-16.41,7.26a101,101,0,0,1-23.8,1.44c-4.66-.27-10.07-1.38-12.08-5.6-1.52-3.17-.47-6.92.59-10.27l10-31.64Z"></path>
    <path data-name="1e" data-official="" data-plain="Hair, magnified" data-loc""="" d="M472,2570.56c2-3.53,4.09-7.17,4.71-11.2s-.54-8.6-3.86-11c-2.63-1.86-6.15-2.07-8.79-3.91-4.92-3.42-4.76-11-1.94-16.29s7.55-9.29,10.8-14.32c6.27-9.71,6.38-22.32,3.44-33.49-1.84-7-4.78-13.81-4.62-21,.15-6.86,3.11-13.29,5-19.88,6.42-22.51.18-46.44-5.65-69.12q-8.28-32.21-15.45-64.68a6.59,6.59,0,0,1,0-4.21c1.6-3.39,6.8-1.72,9.62.76,7.59,6.71,12.57,15.85,16.88,25a272.9,272.9,0,0,1,18.66,53.78c3,12.69,5.05,25.75,10.53,37.58,3.73,8.06,9,15.47,11.49,24,4.6,15.71-.84,32.73,1.82,48.89,1.74,10.59,6.86,20.28,11.9,29.75,2.34,4.37,4.74,9.28,3.5,14.08-1.51,5.86-7.78,9.05-13.58,10.73a6.87,6.87,0,0,0-3.6,1.84c-2.35,2.87,1.2,6.68,3.88,9.24,7.19,6.86,9.2,19.67,2.11,26.64-3.51,3.45-8.46,4.92-13.26,6a135.08,135.08,0,0,1-30.45,3.37c-4.37,0-9-.32-12.63-2.71s-5.84-7.56-3.58-11.3Z"></path>
    <path data-name="2" data-official="Cannabis sativa" data-plain="Hemp" data-loc"india"="" d="M823.49,1372l-.56-3.77a7.92,7.92,0,0,1,1.14-4.6c.95-1.55,2.49-3,2.37-4.78l1-2.33a9.61,9.61,0,0,0,13.23-.08c1.42,2.16,4.4,2.49,7,2.6,3.82.17,7.77.31,11.33-1.07,1-.38,2.13-.86,3-.28a2.72,2.72,0,0,1,.85,1.07,76.41,76.41,0,0,1,8.76,47.43,1.09,1.09,0,0,1-1-.6l-.28,4.66c-3.5.53-7.23,1-10.43-.47a14.83,14.83,0,0,1-5.38-4.92,42.77,42.77,0,0,1-5.88-11.09A19.24,19.24,0,0,0,841,1401C837.78,1390.15,829.06,1381.87,823.49,1372Zm5.19-249.52c-.07-.69-.9-1-1.59-1a6.14,6.14,0,0,1-2.05,0c-1-.34-1.45-1.54-1.73-2.58-.37-1.35-.73-2.69-1.09-4a1.33,1.33,0,0,0-1.49-1.3l-13.81-.8a3.36,3.36,0,0,0-3.85,1.81l-3.29,4.81a22,22,0,0,0-2.54,4.4,18.17,18.17,0,0,0-.94,4.19c-.89,7.13,0,14.36.9,21.48q.94,7.08,2,14.14a30.76,30.76,0,0,0,1.86,7.59,10.62,10.62,0,0,0,5.17,5.64l4.52.64c9.07-1.2,18.26.38,27.41.2a5.1,5.1,0,0,0,2.39-.44l.44-3a216.9,216.9,0,0,0-1.72-23.75l-1.95-4.52q-2.55-7-5.12-13.94a34.08,34.08,0,0,1-13.9,0,17.59,17.59,0,0,0,8-3.06c.36-.25.74-.74.44-1.06a1,1,0,0,0-.57-.21c-1.59-.35-1.84-2.49-1.73-4.12ZM733.46,967.67a83.85,83.85,0,0,0,8.81,12.67q.38-13,.15-25.93l.19-.41a15.15,15.15,0,0,0,2.65,4.22l2.51,3.17a13.69,13.69,0,0,0,4.4,4.11c2,1,4.38.9,6.63.8l.2-.27a40,40,0,0,0,1.46-22.94l1.6-2a20.28,20.28,0,0,0,13.64,1.1,10.19,10.19,0,0,0,3.77-1.76c1-.8,1.82-1.9,3-2.33,1.83-.65,3.79.46,5.42,1.53a2.45,2.45,0,0,1,.86.8,2.55,2.55,0,0,1,.2,1.07l.54,18.21-5.81,7.44q.4,13.85.82,27.67c.49,16.22,1,32.63,5.37,48.25l1.44,3a93,93,0,0,1,13.18,48.83l.24.87a35.72,35.72,0,0,0,14.69,1l1.64-.53a98.46,98.46,0,0,0-1.84-15.78,8.41,8.41,0,0,0,4.53-.8c-1.34-1-3.6-.34-4.69-1.63a3.68,3.68,0,0,1-.64-2.08l-.48-5.13a10,10,0,0,0,5.56-1.09,15.4,15.4,0,0,1-5.39-.76,17.37,17.37,0,0,0-.2-4.61,11.67,11.67,0,0,0,6-1.1l-5.09-.68a1.86,1.86,0,0,1-1-.34,1.82,1.82,0,0,1-.48-1.14l-2.19-13.2,5.59-1.72c-.7-1.23-2.64-.36-4-.82-1.78-.6-1.78-3.09-1.44-4.94,1.79.35,4.11.47,5-1.14l.09-.59-5.73-.52c0-2.43.1-4.87.14-7.3a4.74,4.74,0,0,0,4-1.28,5.51,5.51,0,0,0-4.37-1,45.6,45.6,0,0,0-.21-10.7,14.25,14.25,0,0,0,4.17-2c-.5-.88-1.89-.3-2.82-.68-1.47-.59-.89-2.75-1-4.33-.13-2.35-2.36-4.53-1.57-6.75a13.13,13.13,0,0,0,3.27-2.25,4.68,4.68,0,0,0-3.58-.07,38.31,38.31,0,0,1-.58-5.45,2.64,2.64,0,0,1,.12-1.12c.72-1.85,4.32-1,4.84-2.92a3,3,0,0,0-.12-1.52,12.4,12.4,0,0,1,.69-7.63l1.34-3.81c-.09-4.88-.26-9.77-.52-14.64-.1-2-.29-4.14-1.61-5.62-1.72-1.92-4.68-2-6.91-3.29l-2.52-.65a14.06,14.06,0,0,0-.38-4.61,5.55,5.55,0,1,0-.75-11c-.33-2.18-.65-4.36-1-6.54a1.15,1.15,0,0,1,.08-.84,1.13,1.13,0,0,1,.77-.39l6.07-1.34-5.55-.48a.91.91,0,0,1-1-1l-.27-3.41a26.7,26.7,0,0,0,8-1.64,44.75,44.75,0,0,0-8-1.13c-.37-2-.68-4.22.59-5.76.94-1.12,2.45-1.52,3.73-2.23a8.17,8.17,0,0,0,3.71-9.22l-.57-3.22a25.45,25.45,0,0,0,1-4.26,5,5,0,0,1,2.39-3.49c1.46-.67,3.15-.12,4.75-.1,3.63,0,6.62-2.69,9.2-5.24a14.58,14.58,0,0,0,3.13-3.92,12.56,12.56,0,0,0,1-5,49.38,49.38,0,0,0-.62-9.71,1.4,1.4,0,0,1,1.3-2l3.89-1,1.4-.28a8.28,8.28,0,0,0,2.05,6.66,2.36,2.36,0,0,0,.72.58,2.84,2.84,0,0,0,1.23.19,8.4,8.4,0,0,0,2.6-.27,2.86,2.86,0,0,0,1.91-1.67,3.54,3.54,0,0,0,0-1.8,10.76,10.76,0,0,0-2.32-4.93,14.44,14.44,0,0,1-2.47-3.12,8.66,8.66,0,0,1-.51-3.66,2.85,2.85,0,0,1,.31-1.58,1,1,0,0,1,1.4-.3l1.61.06a5.52,5.52,0,0,1,.81,2.06,43.39,43.39,0,0,0,8.8,17.21c1.61,1.91,3.49,3.76,5.88,4.48s6.4,0,7.55-2.23a8.69,8.69,0,0,0,7.41-8.77l.52-2.07-1.44-1.76c-3.8-2.13-6.14-6.06-9-9.39s-6.91-6.32-11.16-5.41a1.71,1.71,0,0,1-1.16,0,1.45,1.45,0,0,1-.57-.73c-.94-1.89-1.88-3.79-2.81-5.68l.14-.72,3.17-.5a3.87,3.87,0,0,0,1.7-.54c1.15-.81,1.09-2.51.91-3.9a21.28,21.28,0,0,0,18-4.38,4.23,4.23,0,0,0,7,2.77l7.16-6.82-1.86-3.5c-1.46-1.48-3.86-1.24-5.93-1.07-8.7.72-17.64-1.74-26.09.45l-4.6-1.16A144.68,144.68,0,0,0,847.26,808c-.82-2.68-2-5.65-4.58-6.72-2-.82-4.25-.28-6.31.31a43.31,43.31,0,0,0-11.47,4.65,17.15,17.15,0,0,0-7.61,9.47c-1.57-1.33-1.78-3.63-1.87-5.68a474.3,474.3,0,0,1,1.27-59.25l-.48-2.75c-.18-1.26,1.65-1.64,2.91-1.5l7.46.87c2,.24,4.19.53,5.7,1.9,1.22,1.1,1.81,2.72,2.62,4.16,3.61,6.41,11.91,9,19.19,7.89s13.73-5.14,19.79-9.32a5.83,5.83,0,0,1,2.49-1.2c1.81-.23,3.47,1.26,5.3,1.18a6.41,6.41,0,0,0,2.67-1l11.52-6.18,3.43-.12,3.17.08a1.47,1.47,0,0,1,1.09.33,1.41,1.41,0,0,1,.24,1,43,43,0,0,1-1.42,7.93c-2.26,10-2.48,20.29-2.47,30.52,0,1.9,0,3.92,1.1,5.5s3.54,2.33,4.88,1L905,797.3a154.81,154.81,0,0,0,2.49,26.23l2.27,2.27A85.62,85.62,0,0,1,926.67,819a13.44,13.44,0,0,0-5.51-9.72,73,73,0,0,1,26.36-4.77,40.09,40.09,0,0,0-6.08-9.84,2.55,2.55,0,0,1-.79-1.6,2.42,2.42,0,0,1,.36-1c1.44-2.64,3.2-5.7,2-8.44l-1.43-3.76a86.2,86.2,0,0,1-1.86-24.45l-3.1-2.61L928,748.19a2.64,2.64,0,0,1-1.08-.87,2.52,2.52,0,0,1-.24-1.22q-.3-8.6-.32-17.2c0-5.09.24-10.72,3.79-14.37L931,712l.26-11a1,1,0,0,1,.28-.82c.32-.23.76,0,1.09.19a44.29,44.29,0,0,0,11.33,5.06h2.32a18.27,18.27,0,0,1,10,3.29,50.87,50.87,0,0,1,8.07,7,14.37,14.37,0,0,1,2.51,3c1.21,2.19,1.21,4.83,1.18,7.33l1.93,2.67a130.47,130.47,0,0,1,21,16.11c2,1.86,4,3.85,6.57,4.66s5.55.31,8.3-.23l3,1.15c2.41-.28,4.63,1.25,6.4,2.9s3.44,3.56,5.71,4.38c1,.36,2.06.49,3.07.79,2.84.83,5.11,2.9,7.27,4.91a23.26,23.26,0,0,1,1.8-8.63,33.63,33.63,0,0,0,15.9,15.48c2.36,1.1,5.09,1.91,7.52,1-7.39-4.82-10.09-15.36-18.22-18.79l-.2,0a77.54,77.54,0,0,1,8.8-3.51c-4.36-1.25-7.22-5.33-9.71-9.12L1027.46,725l3.38-6.35c.68-1.61,2.08-2.78,3.2-4.12s2-3.16,1.39-4.8a5.41,5.41,0,0,0-2.18-2.37c-7.67-5.3-17.6-5.68-26.92-5.88l-4.65-1.46c-.56-1.32-2-2-3.38-2.43a71.38,71.38,0,0,0-11.93-3.09,56.09,56.09,0,0,1-7.06-1.38c-5.35-1.62-9.75-5.37-14-9l-3.93-1.72A77.1,77.1,0,0,0,941,678c5.45-4.6,12.71-6.28,19.68-7.82l35.11-7.76,2.35-1.39,9.2.24-.21-4.61c0-.62,0-1.38.58-1.65.74-.36,1.5.57,1.57,1.39a6.59,6.59,0,0,0,.2,2.44c5-.8,10-1.59,15-1.05s10,2.58,13.15,6.54l1.24,1.86a22.38,22.38,0,0,0,6.19,4c4.18,2.12,8.41,4.26,13,5.37l3.18-.14c4-1.41,8.41.38,12.26,2.25,11.32,5.49,22.22,8.84,32.58,16A59.09,59.09,0,0,0,1124.6,702c2.84.78,6.18,1,8.48-.82a3.21,3.21,0,0,1,1.06-.7c.89-.25,1.72.5,2.35,1.16a43.82,43.82,0,0,0,19.82,12.13,34.32,34.32,0,0,0,23-1.55l2.06,0a3.7,3.7,0,0,0,2.88-4c-.16-1-.68-2.28.12-2.94.42-.35,1-.34,1.47-.68a2.34,2.34,0,0,0,.56-1.79,21.34,21.34,0,0,1,.92-5.55,2.3,2.3,0,0,1,1-1.48,1.64,1.64,0,0,1,1.76.37,4.84,4.84,0,0,1,1,1.6l4.06,8.88a2.22,2.22,0,0,0,.77,1,.77.77,0,0,0,1.11-.27,10.52,10.52,0,0,1,3.72,4.57l9.26,1.67a15.22,15.22,0,0,0,11-2.76c2-1.5,3.79-3.83,3.49-6.34a8.59,8.59,0,0,0-1.56-3.59,47.75,47.75,0,0,0-28.29-20.08c-4.88-1.21-9.92-1.62-14.82-2.72-18.69-4.17-33.66-17.61-50.1-27.44a217.57,217.57,0,0,0-20.19-10.43c-12.2-5.67-25.34-11-38.7-9.39l-3.41.12c-8.88-.37-17.35,3.65-26.19,4.55a1.85,1.85,0,0,1-1.41-.25,1.8,1.8,0,0,1-.48-1.21,31.51,31.51,0,0,1-.15-6.44,136.36,136.36,0,0,0-15.79.07l-7.25-7.62c-3.44-.83-7,.23-10.48.79s-7.51.44-10-2.1a32,32,0,0,0-2.2-2.57c-2.36-2-5.94-1.28-8.9-.32a143.24,143.24,0,0,0-48.83,27.39l-2.42-2.48c.74-7.79-6.48-15.34-14.29-15,.5-9.29,8.47-16.6,10.36-25.71,2.58-12.44-6.8-24.3-17.28-31.49a81.69,81.69,0,0,0-74.21-8.72c-5.67,2.18-11.79,6-12.48,12-.81,7,6.3,13.51,4.58,20.38-1.53,6.14-9,8.44-15.26,9.14a3,3,0,0,1-4-3.25c-1.13-8.86-.7-17.83-.26-26.75l2-41.65c.19-3.82.68-8.22,3.87-10.34a12.66,12.66,0,0,1,5.57-1.56c14.7-1.8,29.94-5.13,41.24-14.69s17.11-27,9.42-39.69c-1-1.69-2.28-3.31-2.73-5.24a15.14,15.14,0,0,1,0-5,60.62,60.62,0,0,0-2.29-23.54c3.86-1.18,6.31-5.17,6.89-9.17s-.37-8-1.31-12l-.7-5.22c15.25-21.85,31-45.14,32.9-71.72.18-2.5.2-5.16-1-7.33-2-3.39-6.33-4.52-10.24-4.6-17.19-.35-31.66,12.75-41.77,26.64-6.38,8.76-14,19.34-24.83,18.61-8.59-.58-15.18-9.11-15.59-17.71s4.17-16.79,10.25-22.87c3.74-3.74,8.18-7,10.51-11.76a16.71,16.71,0,0,0-4.5-19.84c-2.41-1.9-5.61-3.49-6.16-6.51-.83-4.63,5.12-7.44,7-11.77,2-4.62-1.29-9.94-5.44-12.77s-9.17-4.15-13.33-7a22.89,22.89,0,0,1-8-27.07c2.5-5.88,7.66-11.4,6.38-17.66-1.42-6.95-9.65-9.75-16.57-11.3l-18.79-4.19a12.94,12.94,0,0,1-4.65-1.7c-3.18-2.23-3.65-6.89-2.43-10.56s3.7-6.78,5.55-10.18a31.41,31.41,0,0,0-22.9-46.07c-5.15-.78-11.25-.65-14.4-4.81s-1.48-10.34-4-14.86c-3.53-6.25-13.09-6.31-17.49-12-4.15-5.33-2.57-14.2-8-18.23-2.48-1.85-5.83-2.12-8.42-3.81-7-4.56-4.41-15.21-6.37-23.33-3.31-13.67-20.57-19.34-34.37-16.58-10.8,2.15-20.54,7.8-30.05,13.37-2.08,1.22-4.24,2.5-5.57,4.52-2.33,3.55-1.47,8.27-2.64,12.36-1.58,5.52-6.68,9.36-8.91,14.65-4.44,10.57,3.6,23.64-1.67,33.82-3.79,7.33-14.07,13.44-10.58,20.91,4.31,9.23,22.81,2.39,26.26,12a31.14,31.14,0,0,0-11.9,14.21c-1.17,2.83-1.94,5.85-3.56,8.44-3.88,6.18-11.57,8.46-18,11.9-6.13,3.28-11.68,8.22-14.16,14.72s-1.22,14.67,4.14,19.1c3.12,2.57,7.29,3.72,10.17,6.56,7.61,7.51,1.92,21,6.32,30.73,2.77,6.14,9.13,9.79,15.35,12.35A92.08,92.08,0,0,0,642,268.85l.44,5.3c-7,8.26-19.42,12-23.35,22.05-2,5.07-1.3,10.81.37,16,.82,2.53,1.89,5.09,1.71,7.75-.4,6-6.54,9.57-10.95,13.64a30,30,0,0,0-9.34,24.3c.61,6.78,3.56,13.34,3,20.12-.44,5.25-3,10.11-6,14.38-3.24,4.5-7.38,9.21-6.87,14.73.38,4.05,3.33,7.51,6.88,9.5s7.64,2.71,11.67,3.25a216,216,0,0,0,38.06,1.21c5.77-.26,12.82,0,15.56,5.11a15.19,15.19,0,0,1,1.37,5.67l2,18,2.37,2.61c4.4,2.68,4.12,9.45,1.33,13.77s-7.28,7.27-10.53,11.27-5,10.17-1.73,14.12,9.61,3.6,13.16,7.2a37.44,37.44,0,0,0-8,18c-.47,3-.59,6.28-2.18,8.94-3.76,6.3-12.89,5.75-19.7,8.5-8.48,3.42-13.74,12.43-22.25,15.79-7.14,2.83-15.23,1.17-22.79,2.52-8.28,1.48-15.48,6.47-23.46,9.13-10.67,3.56-22.42,2.86-33.06,6.51-15.8,5.4-26.83,19.37-36.94,32.66-1.32,1.74-2.65,4.24-1.25,5.92,1.07,1.28,3.05,1.14,4.67.8,9-1.89,17.14-6.62,26.11-8.47,10.3-2.13,20.95-.36,31.43.61,64.47,6,131.14-21,173.34-70.09,1,8.56,10,15.31,18.51,13.93,2.55-.41,5.52-1.33,7.45.4,1.27,1.14,1.52,3,1.68,4.71l3,32c.71,7.5,1.4,15.2-.59,22.47s-6.59,13.69-8.57,21a31.32,31.32,0,0,0,1.48,20.41l-2.34,4.74c-3.51,2-8.22,1.23-11.49,3.61s-3.87,7.09-3.9,11.2a110.11,110.11,0,0,0,.92,15.29c1,7.54,3.72,16.17,10.9,18.67,4,1.38,8.48.51,12.34,2.14,3.53,1.49,6,4.9,7.17,8.54s1.37,7.52,1.52,11.35q1.66,43,3.32,86l-9,.6a4.35,4.35,0,0,1-2.51-.32,5.09,5.09,0,0,1-1.75-2.74,17.9,17.9,0,0,0-29.39-6,7,7,0,0,1-3,2.24,5.54,5.54,0,0,1-2,0l-16.67-1.81-3.71.32a78,78,0,0,0-4.06-21.23,2.86,2.86,0,0,0-.93-1.51,2.64,2.64,0,0,0-2-.17c-7.66,1.42-13.86,7.35-17.5,14.23s-5.09,14.68-6.39,22.35a231.64,231.64,0,0,1-23.21-35.87c-1.22-2.33-2.5-4.79-4.73-6.16-4.18-2.57-9.54-.31-13.88,2l-2.35-.7c-16.44-8.43-33.9-17.08-52.33-15.92-3.78.23-7.55.89-11.33.61a53.72,53.72,0,0,1-10.36-2.27,159.33,159.33,0,0,0-29.63-5.26,42.56,42.56,0,0,0-11.61.25c-4.25.82-8.19,2.74-12.33,4-12.16,3.66-25.2,1.35-37.91,1.31a12.63,12.63,0,0,0-6.31,1.13c-1.66.93-2.87,2.54-4.5,3.52-2.7,1.62-6.09,1.33-9.22,1q-20.31-2.34-40.54-5.29c-1.88-.27-4-.47-5.46.76-1.19,1-1.55,2.75-2.73,3.76-1.42,1.21-3.51,1-5.35.78l-32.28-4.32c-8.32-1.11-16.86-2.3-24.2-6.37-4.48-2.49-8.65-6.09-13.76-6.59-2.87-.28-5.75.47-8.62.21-4.32-.38-8.08-2.95-11.75-5.24a119.5,119.5,0,0,0-38.63-15.49c-6.51-1.36-13.68-2.08-19.49,1.16s-8.9,11.87-4.41,16.77c2.89,3.16,7.57,3.66,11.66,4.91s8.49,4.49,7.87,8.73c-.26,1.74-1.36,3.25-1.83,5-1,3.62,1,7.35,3.18,10.4a60.11,60.11,0,0,0,35.92,23.44,12.5,12.5,0,0,1,4.57,1.54c1.74,1.18,2.67,3.2,3.68,5,7.42,13.55,23.89,21.49,39.11,18.86l5.73,2.78a126.08,126.08,0,0,0,49.86-1.19c3.71-.85,8-1.76,11,.55A19,19,0,0,0,416,822c1.45.75,3.19.49,4.8.21l35.8-6.22c2.5-.43,5.12-.85,7.51,0,1.67.57,3.1,1.71,4.77,2.27,2.21.74,4.61.42,6.92.07q16-2.41,31.73-6c-.37,2.52,1.53,5,3.88,5.93a13.66,13.66,0,0,0,7.51.39c16.95-2.86,32.42-16.16,49.28-12.83a4.39,4.39,0,0,1,2.78,1.36c.78,1.05.58,2.51,1,3.76,1,3.47,5.59,4.1,9.2,4.06l37.69-.39c6.92-.07,14.86.32,19.17,5.73a2.88,2.88,0,0,1,.81,2.06c-.16,1.18-1.47,1.78-2.6,2.15a236.44,236.44,0,0,1-49.38,10.82c-4.32.47-9.34,1.24-11.48,5-.89,1.58-1.1,3.47-1.94,5.09-1.64,3.19-5.3,4.72-8.72,5.8a97.92,97.92,0,0,1-36.63,4.31,4.53,4.53,0,0,0-.67,3.54l-.9,3.09-41.73,6.92c-3.26.54-6.69,1.16-9.24,3.26-1.54,1.27-2.67,3-4.33,4.11-1.84,1.22-4.13,1.51-6.32,1.77l-75.95,8.91c-13.31,1.57-27,3.11-40-.33-5.33-1.41-10.74-3.68-16.18-2.71-3.64.65-6.88,2.71-10.45,3.67-4,1.1-8.34.75-12.53.54-11.43-.6-22.9-.15-34.34.3l-20.17.79c-3.44.14-7.07.33-10,2.19-2.24,1.45-3.83,3.76-6.11,5.13-5.65,3.4-12.78-.12-19.37-.33-11.38-.36-20.57,9.22-31.57,12.18-4.61,1.25-9.72,1.39-13.57,4.21-2.92,2.13-4.67,5.5-7.23,8.05-6,6-15.78,6.92-21.78,12.93-2.79,2.8-4.52,6.46-6.41,9.93-10.86,19.93-28.93,36.17-35,58-.71,2.59-1,5.93,1.27,7.4a6.2,6.2,0,0,0,3.86.65,32.55,32.55,0,0,0,19.27-8.16c8.74-7.83,13.28-20.39,23.84-25.48l6.37-3.78a20.57,20.57,0,0,1,5.6-7.64,11.12,11.12,0,0,1,8.93-2.43l6.82-5.56a187.69,187.69,0,0,0,27.55.55,41.12,41.12,0,0,1,8,0c2.59.37,5.08,1.28,7.65,1.82a46.63,46.63,0,0,0,9.87.76,172.08,172.08,0,0,0,26.63-2.2,9.46,9.46,0,0,1,3.63-.14,13,13,0,0,1,3.76,2c6.25,3.83,14.14,3.28,21.45,2.59l42.48-4,8.05-.93c1.65,3.72,5.88,5.75,9.95,6s8-1.08,11.91-2.35l32.64-10.71,2,4.69,46.21-19.65c.24,3.26,3.63,5.56,6.89,5.74s6.39-1.18,9.37-2.53l26.18-11.8c2.61-1.18,5.56-2.38,8.25-1.38,1.31.49,2.43,1.48,3.81,1.71,1.74.3,3.42-.65,4.92-1.56l38.6-23.42c1.91-1.15,4-2.35,6.19-2.29,1.81.05,3.5.92,5.3,1.07,2.58.21,5-1.07,7.28-2.3L585,884.17c3.35-1.83,7.06-3.72,10.82-3,1.44.28,2.8,1,4.26,1.16,5.06.75,9.11-3.85,12.53-7.65a73.59,73.59,0,0,1,54.35-24c-7.23,4.86-8,15-12.16,22.69-6.6,12.12-21.12,17-32.39,25a16.44,16.44,0,0,0-5.16,5.14c-1.06,1.93-1.42,4.17-2.43,6.12-1.51,3-4.32,5-6.89,7.07a75,75,0,0,0-15,16.4,14,14,0,0,0-2.78,6.51c-.18,2.46.84,4.84,1.16,7.28,1,7.1-3.8,13.52-7.71,19.52s-7.16,13.94-3.39,20l-.52,3.41a163.44,163.44,0,0,1-9.33,24.07c-1.74,3.63-3.66,7.7-2.33,11.5.61,1.76,1.91,3.33,2,5.2.08,1.7-.84,3.27-1.67,4.76-7.79,14.07-8.69,30.94-7.38,47,1.09,13.23,3.49,26.92-.81,39.47a20.22,20.22,0,0,0-1.43,5.41,5,5,0,0,0,2.35,4.75c2,1,4.34,0,6.22-1.19,10-6.18,16.71-16.42,22.36-26.73,1.31-2.4,2.77-5,5.3-6,1.26-.51,2.67-.56,3.93-1.06,3.84-1.51,5-6.28,5.64-10.36q1.17-7.41,2.32-14.83a11.43,11.43,0,0,1,1.55-4.89c1-1.46,2.67-2.36,3.93-3.61,3.35-3.33,3.6-8.57,3.65-13.29q.09-10.27.19-20.53a6,6,0,0,1,.37-2.47c1.06-2.3,4.73-2.8,5.2-5.28l-.06-2.8c1.26-3,.55-6.41.31-9.66s.3-7,3-8.79c2-1.27,4.72-1.22,6.3-3a7.65,7.65,0,0,0,1.51-4q2.11-12.21,4.21-24.4a6.83,6.83,0,0,1,1.26-3.43,11.62,11.62,0,0,1,3.1-1.95c3.22-1.88,4.78-5.72,5.29-9.42s.22-7.47.8-11.15c1.38-8.63,7.36-15.66,12.09-23,6.85-10.64,11.32-22.61,15.75-34.47q3.66,10.85,7.57,21.62c.64,1.75,1.48,3.71,3.24,4.33,2.38.84,4.72-1.26,6.27-3.26A63,63,0,0,0,705,862.51c8.46,7.34,15.35,16.29,22.18,25.17,1.67,2.17,3.43,4.66,3.09,7.38-.25,2-1.62,3.7-2.93,5.26l-10,11.87c-1.79,2.12-3.59,5.34-1.71,7.38a5.53,5.53,0,0,0,2.55,1.32,49.11,49.11,0,0,0,19.77,1.71c.81,2.95-1.69,5.79-4.31,7.38a22,22,0,0,1-12.3,3.16c-2.49-.11-5-.64-7.44-.22-3.07.53-5.68,2.48-8.12,4.41q-5.1,4-10,8.35c-3,2.62-6.17,6.5-4.5,10.1a9.61,9.61,0,0,0,2.89,3.17l21.37,17.24,2.47-.05a22.61,22.61,0,0,1,11-3.1,3.53,3.53,0,0,0,1.91-.37C732.49,971.59,731.56,968.21,733.46,967.67ZM1917.81,1996.62a11.23,11.23,0,0,0-.15,5.5,251.34,251.34,0,0,1,2.33,37.69c-.1,6.91-1.72,15.48-8.37,17.34-7,2-12.9-5.29-16.81-11.46a296.41,296.41,0,0,0-30.25-39.83c-2-2.21-5.24-4.52-7.57-2.68-.75.59-1.2,1.54-2,2-1.58.85-3.42-.43-4.77-1.6a128.71,128.71,0,0,0-23.67-16.28c-3.73-2-8.88-3.6-11.73-.47-1.92,2.11-2.65,6.15-5.5,6a4.83,4.83,0,0,1-2.44-1.12l-42.38-30q-.79,6.19-1.61,12.38l-2.65,2.84c-3.86.83-7.68-1.19-11.22-2.94a100.92,100.92,0,0,0-36.55-10.17,4,4,0,0,0-2.7.43c-1.16.86-1.08,2.6-1.73,3.89-1.64,3.24-6.48,2.18-9.77.64l-41.06-19.18c-1.48-.69-3.17-1.4-4.7-.83a10.78,10.78,0,0,0-2.51,1.77c-4.27,3.18-10.29,1-15.11-1.32l-44.34-21.1c-2-1-4.2-2-6.44-1.74s-4.1,1.57-6.21,2.2c-5.32,1.57-10.77-1.63-15.33-4.79a372.16,372.16,0,0,1-36.47-28.81c-3-2.66-6-5.46-9.88-6.51-2.39-.66-4.92-.59-7.34-1.15-3.17-.75-6-2.56-8.7-4.38a325.66,325.66,0,0,1-39.6-31.22c-3.81-3.51-10.15-7.06-13.44-3.06-2.91,3.54.41,8.66,3.59,11.95l16.61,17.16c3.72,3.84,7.67,8.17,8,13.51s-5.59,10.91-10.21,8.23l33.53,38.8a12.48,12.48,0,0,1,3,4.85c1,4-3.23,8.37-7.29,7.47l.72,6.32c2.2,5.06,7,8.47,11.87,11.09s10.08,4.78,14.16,8.49c5.81,5.26,8.71,13.07,14.15,18.7,7.34,7.59,15.37,10.38,23.55,17,5.32,4.34,9.23,10.15,14,15.09,7.12,7.38,16,12.72,24.64,18.33,3.1,2,6.22,4.14,8.46,7.08s3.48,6.89,2.34,10.4c-1,3.15-3.8,5.49-6.87,6.73a29.85,29.85,0,0,1-9.73,1.7,153.17,153.17,0,0,1-46.7-4.86c-3-.79-6.62-1.54-8.89.59a16.64,16.64,0,0,0-1.82,2.42c-3,4-8.72,5.2-13.62,4.12s-9.16-4-13.3-6.84l-20.39-14c-3.6-2.48-7.79-5.08-12-4.09-1.77.41-3.35,1.42-5.1,1.91-5.41,1.55-11.64-3.07-11.74-8.69l-1.62-4.11c-2.77-5.89-8.67-9.59-14.4-12.68s-11.83-6.09-15.67-11.34c-2.37-3.25-4.45-7.69-8.47-8l-2.37.73c-2-.87-3.94,1.43-4.82,3.45a40.57,40.57,0,0,0-2.94,10.37c-.26,1.81-.77,4.07-2.56,4.42-1.37.27-2.67-.92-3.15-2.24a18.65,18.65,0,0,1-.6-4.16c-.74-5.43-5.22-9.43-9.17-13.23s-7.91-8.66-7.14-14.08l.7-4.16c-4.06-5-5.1-11.86-9-16.93l-2-5.53a4.93,4.93,0,0,0-7-1.31c-1.63,1.27-2.32,3.51-4,4.66a6.42,6.42,0,0,1-5.6.31,4.38,4.38,0,0,1-1.77-1,5.4,5.4,0,0,1-1.12-3.66A96.67,96.67,0,0,1,1356,1947l.52-4.18a18.59,18.59,0,0,0-2-10.61,19.81,19.81,0,0,1-1.76-3.58c-.56-1.88-.24-3.91-.54-5.85-.69-4.39-4.36-7.75-5.67-12-.62-2-.7-4.18-1.64-6.06-1.32-2.63-4-4.19-6.62-5.6l-3.62-1.67a17.33,17.33,0,0,1-6,4c-2.29.73-5.13.31-6.54-1.63-1.08-1.48-1.12-3.46-1.11-5.29l.07-12.18-.1-3.86a42.28,42.28,0,0,0-6-27.82c-2.81-4.53-6.47-8.48-9.4-12.93-4.73-7.17-7.47-15.43-10.15-23.59-4.28-13-8.58-26.06-11-39.54-1.67-9.44-2.41-19.06-4.85-28.34s-6.82-18.4-14.34-24.35a95.29,95.29,0,0,1-5.09,47c-3.35,8.89-8,17.23-11.33,26.14-2.7,7.28-4.49,14.91-7.62,22a63.22,63.22,0,0,1-9,14.67c-1.37,1.65-3.15,3.38-5.29,3.16-2.55-.26-4.54-3.26-7-2.65a5.49,5.49,0,0,0-2.77,2.39,123.17,123.17,0,0,1-22.14,23c-2.66,2.13-5.53,4.2-8.86,4.89s-7.26-.35-9-3.29a14.79,14.79,0,0,0-1.5-2.63c-2-2.19-5.5-1.16-8.19,0a271.78,271.78,0,0,1-45,14.66c-3.45.8-7.37,1.45-10.28-.57s-3.72-6.21-2.72-9.63,3.41-6.23,5.87-8.82a122.47,122.47,0,0,1,24.68-20c2.24-1.38,4.7-2.9,5.51-5.4.5-1.55.27-3.24.51-4.85.59-4,3.93-7,7.48-8.85s7.5-3,10.91-5.08a6.12,6.12,0,0,0,2.43-2.38c.93-2-.19-4.34-.05-6.54.23-3.78,3.89-6.27,7.16-8.18,16.37-9.62,32.61-20.22,44.6-35s19.26-34.36,15.29-52.93a203,203,0,0,0-60.25,2.33l-4.69.12a67.11,67.11,0,0,0-36.77,9.86l-5,4.61a376.2,376.2,0,0,0-58.45,36.52l-5,4.16a3.12,3.12,0,0,1-2.38,1.71c-1,.2-2,.15-3,.33-5.31.93-7.73,7.62-12.78,9.51l-.36,1.06a23.27,23.27,0,0,1-9.69,14.15,6.91,6.91,0,0,1-4.22,1.46l-.69.86-20.37,36.1-.84,32.2q-14.85,24.32-29.69,48.62c-9.4,15.4-18.91,30.94-31.45,43.9s-28.56,23.34-46.43,25.86l-3.89,3.6c2.84,162.77,5.77,326.4,35,486.54,2.49,13.62,5.05,28.29-.83,40.83-2,4.2-4.84,8-6.3,12.4-3.38,10.19,1.33,21.67-1.72,32-4.45,15-27.36,20-37.62,8.16-4.55-5.24-6.35-12.26-7.87-19-4.38-19.5-7.62-39.24-10.86-59-11.21-68.2-22.44-136.49-28-205.39l-.25-7.9c-9.25-77.53-1.28-156.08-5.71-234l.9-7.07q-1.74-16-3.5-32c-.38-3.54-.79-7.16-2.39-10.35-3.21-6.42-10.36-9.63-16.7-13-18.61-9.91-33.91-24.91-48.92-39.7a184.14,184.14,0,0,1-13-13.69A92.08,92.08,0,0,1,731,1878.11l1.69-4.82a58.85,58.85,0,0,1,16.34-9.13l6.22.86,56.55,57.71c2.92,3,5.89,6,9.48,8.13s7.92,3.34,12,2.36a4.72,4.72,0,0,0,2.14-1c1.15-1.08,1.23-2.84,1.22-4.42q-.12-38-1.92-75.91l1.09-5.29c-.34-23.5-.37-47.29,5.31-70.09l3.66-3.54c11.35-4.25,22.93-8.63,32.25-16.38a6.51,6.51,0,0,1,2.5-1.53,4.71,4.71,0,0,1,4,1.3c1.1.92,2,2.09,3.14,3l3.2,3.62c11.47,49.15,4.86,100.5,7.24,150.92a6,6,0,0,0,.68,3c1.55,2.41,5.21,1.47,8,2a7.08,7.08,0,0,1,5.58,6.89c18.33-10.29,32.83-26.36,44.56-43.81s21-36.4,31.17-54.79c2.86-5.18,5.91-10.44,10.53-14.12l6.75-.49c12.81-17.48,23.83-36.48,39.16-51.8,14-14,31.14-24.42,46.25-37.22l3-3.34a82.55,82.55,0,0,1,26.41-13l5.79,0a115.45,115.45,0,0,1,32.2-11.25c5.54-1.06,11.59-1.91,15.56-5.93l2.55-4.32a134.13,134.13,0,0,0,36.17-4.27c4.15-1.08,8.31-2.37,12.59-2.4,2.34,0,4.88.29,6.85-1a9.67,9.67,0,0,0,3-4q7.18-14.22,14.35-28.45l3.34-4.33c.34-1.5,2-2.26,3-3.35,1.79-1.78,2.17-4.5,2.29-7a57.06,57.06,0,0,0-1-13.68l-1.53-4a322.4,322.4,0,0,0-4.39-34.64l-1.62-5.21a19.38,19.38,0,0,1,3.19-14.24l3.57-1c2.07,1.9,3.91,4,6,5.88a14.57,14.57,0,0,0,7.44,3.71l.46-.83c-1.09-9.82-.17-19.75,1-29.56.81-6.62,1.71-13.61-.89-19.76l-2.8-4.27c.71-6.15,4.14-11.74,8.5-16.15s9.61-7.81,14.82-11.17a7.77,7.77,0,0,1,3-1.37c1.8-.25,3.52.77,5.33,1,4.25.43,7.41-3.62,10.14-6.91a50.52,50.52,0,0,1,16.33-13l5.67-.85c3.64-1.74,8-.73,11.94-1.53a24,24,0,0,0,7-3,23,23,0,0,0,6-4.47,14.47,14.47,0,0,1-.63,12l.34,15.27c-.18,7.25-6.1,13.47-6.11,20.72,0,2.61.76,5.14,1.08,7.73,1.09,8.69-2.83,17.18-7.09,24.85s-9.06,15.4-10,24.12l-3.76,5.62c-4.86,4.39-9.8,8.87-13.07,14.54s-5,12.43-10.32,16l.13,4.16c-.47,8.94-4.47,17.27-8.74,25.14a316.08,316.08,0,0,1-26.59,41.12c19.13-6.75,33.56-23,52.21-30.92l4.39-2a87,87,0,0,1,20.86-14,68.92,68.92,0,0,0,8.8-4.53,15,15,0,0,0,6.19-7.51l5.8-3.79c4.84-4,9.73-8,15.26-10.86,6.1-3.2,12.89-5,18.77-8.63,4-2.44,7.47-5.65,11.32-8.32s8.29-4.86,13-4.82,9.59,2.82,10.87,7.33a3.2,3.2,0,0,0,1,2,2.65,2.65,0,0,0,1.89.15c5.28-.93,10.4-2.53,15.62-3.75,24.92-5.8,51.12-2.52,76.37-6.65,3.62-.59,7.52-1.52,9.8-4.39,1.22-1.53,1.83-3.46,3-5s3.46-2.6,5.1-1.55a4.12,4.12,0,0,1,1.5,2c1.9,4.81-.15,11.38,3.86,14.66l2,3.64a8.84,8.84,0,0,1,4.32,8.44c0,.28-.06.61.17.78a.71.71,0,0,0,.41.12l10.87,1,.25-.13q.7,6.88,1.4,13.76a1.21,1.21,0,0,0,.25.73,1.19,1.19,0,0,0,.67.22q11.22,1.2,22.49,1.56l1.43.86c.88,4.78,6,7.7,7.59,12.3l.3.66c1.08-1.7,3.27-2.29,5.28-2.4s4.07.12,6-.53c2.29-.77,4-2.67,5.93-4.12l.62.42a4.71,4.71,0,0,1,2.31,4.94l1.44.21a18.74,18.74,0,0,1,11.66-2.25c1,.14,2,.37,3,.48a27.45,27.45,0,0,0,8.63-.91l1.87.15a7.6,7.6,0,0,0,5.14,1.29,21.78,21.78,0,0,0,9.18-2.43c2.7-1.41,5.17-3.42,8.15-4l3.38-.94a166.69,166.69,0,0,1,50.65,4.47c4.11,1,8.35,2.29,11.39,5.23,1.86,1.82,3.13,4.15,4.78,6.16,10.79,13.25,33.9,9.93,44.83,23.07l-.3,6.43c-1.15,3.49-5,5.44-6.52,8.76,18.31,8.52,37.33,18.71,47.21,36.33,1.93,3.43,3.49,7.13,6.05,10.12,3.65,4.26,8.95,6.68,13.51,10,11,7.91,17.51,21,19.7,34.32s.44,27.08-2.54,40.28c-.93,4.1-2.36,8.67-6.14,10.5-2.79,1.34-6.2.75-8.9-.76-7.6-4.26-9.76-13.92-13-22-5.5-13.75-16-25.37-19.51-39.76-1-4.21-1.43-8.58-2.85-12.67s-4.11-8-8.17-9.55c-2.66-1-5.58-.84-8.41-.63q-7.26.54-14.48,1.43c-1.7.21-3.61.57-4.52,2s-.47,3.09-.91,4.6c-.84,2.88-4.43,4.14-7.38,3.57s-5.45-2.41-8-3.93c-7.13-4.21-15.34-6.13-23.41-8-4.47-1-9.15-2.07-13.6-1a59.5,59.5,0,0,0-7.08,2.8c-7,2.79-14.75,2.76-22.28,2.7l-6.25,0-26.13-8.75a4.24,4.24,0,0,0-3.06-.22c-1.08.49-1.53,1.74-1.94,2.85-1.57,4.18-4.42,8.2-8.63,9.69-4.69,1.66-9.81-.14-14.45-1.93L1605,1713c-2.48-1-5.54-1.83-7.56-.11a26.41,26.41,0,0,0-1.76,2c-3.06,3.24-8.42,1.47-12.46-.43a384.68,384.68,0,0,0-60.32-22.5,3.82,3.82,0,0,0-2.62-.1,4.12,4.12,0,0,0-1.74,2.48l-6.24,5.59a19.06,19.06,0,0,1-6.94,9.42,56.82,56.82,0,0,1-10.33,5.86l-2.65,5.06c11.49,4.11,24.05,4.27,35.76,7.73,7.67,2.26,14.86,5.91,22,9.54l43.47,22.11,7.89,1.81a369.23,369.23,0,0,1,50.65,18c2.87,1.26,6.09,3,6.64,6.1.79,4.49-4.45,7.51-6.44,11.61,20.8,5,38.53,18.87,59.19,24.38,3.72,1,7.62,1.75,10.78,3.95s5.37,6.38,3.94,10c-2.13,5.32-10,5.5-13.61,9.91,28.62,1.53,57.63-2.48,85.81,2.71l5.34,1.91c8.13,2.73,15.23,11.58,12,19.55-1.6,4-5.33,6.72-8.88,9.2l36.8,1.09c5.43.16,11.19.42,15.69,3.46s6.85,9.91,3.3,14a170.1,170.1,0,0,1,36.7,18.26c9,5.91,17.94,13.5,20.38,24a7.7,7.7,0,0,1,.2,3.37c-.9,4.15-6.4,4.94-10.64,4.82l11.26,31.63c1.39,3.91,2.74,8.4.72,12C1920.33,1993.3,1918.55,1994.67,1917.81,1996.62Zm-493.67-172.33a55.56,55.56,0,0,1-.64-13.51l-.74-1.4c-1.1-2.8-3.39-4.92-5.57-7q-5.28-5-10.22-10.39a89.49,89.49,0,0,1-6.09-7.25,56.74,56.74,0,0,1-10-22.47c-.93,2.69,1,6.21-1,8.27a3.5,3.5,0,0,1-4.3.34,5.42,5.42,0,0,1-2.26-3.93c-.22-1.81.12-4-1.22-5.19-1.1-1-3-1-3.69-2.38-.59-1.18.16-2.88-.78-3.82a3.93,3.93,0,0,0-2-.71c-.71-.17-1.49-.67-1.41-1.4l-1.9.87a2.41,2.41,0,0,0-2.69,1.6,7.3,7.3,0,0,0-.24,3.39,97.61,97.61,0,0,1,.08,14.51,41.24,41.24,0,0,0-.19,5.66,3.36,3.36,0,0,0,.9,2.37,3.78,3.78,0,0,0,1.34.6l4.75,1.38.25,2.86c10.44,7.79,21,15.69,29.19,25.81,4.9,6,9.36,13.19,16.64,15.93Zm48.92-123.82a109.81,109.81,0,0,0-62.74-36c-5.23-1-10.56-1.55-15.64-3.12l-5.37-1.79a26.84,26.84,0,0,0-7.23-2,68.6,68.6,0,0,0-41.36,6.49l-1.72,4.27-6.63,2.84-28.08,11.48a106.76,106.76,0,0,1,39.46,6l3.38,1.61,2.75,3a295.89,295.89,0,0,0,45.19,9.15c2.38.29,5.28.33,6.62-1.66l8.45-1.25A388.81,388.81,0,0,0,1473.06,1700.47Z"></path>
    <path data-name="2a" data-official="" data-plain="Stamen flower" data-loc""="" d="M1014.48,2538.21a81.09,81.09,0,0,1-16.83-55.55c.49-6.33,2-13.08,6.71-17.31,3.52-3.14,8.29-4.41,12.9-5.36a156,156,0,0,1,51-2c2.37.3,4.86.71,6.72,2.22,3.2,2.61,3.33,7.36,3.19,11.48-.73,22.09-1.68,45-11.74,64.7-2.16,4.21-4.74,9.23-2.43,13.35,2.47,4.43,8.81,4.6,12.79,7.73,3.34,2.63,4.67,7,5.36,11.23,1.23,7.4.58,16.07-5.24,20.78-3.42,2.78-8,3.62-12.35,4.21a188.12,188.12,0,0,1-44.11.81c-4.63-.46-9.89-1.51-12.19-5.54-1.47-2.6-1.3-5.78-1-8.74a138.12,138.12,0,0,1,6.42-29.53Z"></path>
    <path data-name="2b" data-official="" data-plain="Flower, opened" data-loc""="" d="M1096.9,2541c-8,.58-14.35-7.88-14.13-15.85s5.19-15,10.81-20.71c3.71-3.75,8.1-7.8,8.15-13.08a18.63,18.63,0,0,0-1.18-5.68l-6.36-19.73c-2-6.11-3.75-13.39.2-18.45,2.43-3.12,6.51-4.49,10.45-4.91a29.71,29.71,0,0,1,19.2,4.63c4.55,3,8.19,7.15,12.49,10.48s9.75,5.87,15.07,4.74c2.73-.58,5.17-2.07,7.62-3.42a82.79,82.79,0,0,1,17.2-7.1c4.81-1.38,10.22-2.27,14.66,0,5.86,3.06,7.88,11,5.9,17.29s-7,11.19-12.41,15c-3.57,2.54-7.86,5.74-7.3,10.08.41,3.24,3.43,5.41,6.18,7.17,5,3.21,10.19,6.52,13.75,11.32s5.23,11.47,2.57,16.82c-2.12,4.26-6.6,6.95-11.23,8s-9.46.8-14.21.5c-1.49,7.22,3.5,14.14,4.35,21.47,1,9-4.57,17.86-12.17,22.83s-16.87,6.69-25.92,7.38a134.8,134.8,0,0,1-17.52.2c-3.16-.17-6.49-.51-9-2.4-3.1-2.32-4.28-6.43-4.6-10.29-.45-5.38.36-10.79.22-16.18s-1.43-11.11-5.27-14.9Z"></path>
    <path data-name="2c" data-official="" data-plain="Sepal" data-loc""="" d="M1218.49,2531.31c-13.22-34.2-8.36-74.83,12.55-104.95a12.9,12.9,0,0,1,3.54-3.81c2.68-1.67,6.27-1.28,9,.27a20.79,20.79,0,0,1,6.58,6.68c9.23,13.43,13,30,13.1,46.33s-3.38,32.39-7.62,48.12c-1.25,4.63-2.53,9.71-.53,14.06,1.68,3.64,5.3,5.94,7.83,9,4.22,5.2,5.1,12.32,5.11,19,0,4.07-.3,8.31-2.38,11.81-4.47,7.54-14.8,8.51-23.57,8.62l-13.77.19c-5.76.07-12.31-.19-16.07-4.56-3.44-4-3.13-10-2.21-15.19a101.2,101.2,0,0,1,7.84-25Z"></path>
    <path data-name="2d" data-official="" data-plain="Stamen" data-loc""="" d="M1279.67,2584c-3.63-4-4.86-9.62-4.71-15s1.53-10.62,2.49-15.91c6.53-36-6.51-73.07-2-109.37.5-4.08,1.25-8.22,3.3-11.78s5.62-6.47,9.72-6.73c3.21-.21,6.34,1.21,9,3.05,11.54,8,15.51,23.1,17.34,37a226.29,226.29,0,0,1,1.11,48.39c-.5,6-1.14,12.38,1.93,17.5s8.72,7.47,13.33,11a33,33,0,0,1,12.08,19,17.76,17.76,0,0,1,0,8.81,15.49,15.49,0,0,1-4,6.31c-5.84,5.89-14.51,7.87-22.75,8.74a121.63,121.63,0,0,1-27-.17Z"></path>
    <path data-name="3" data-official="Humulus lupulus" data-plain="Common Hop" data-loc"england"="" d="M1396.9,1664.46a63,63,0,0,1,5.87,33.37l-1.08,3c-1.34,2-4.24,2-6.62,1.66a295.89,295.89,0,0,1-45.19-9.15l-2.75-3-3.38-1.61-4.75-20.27,1.72-4.27a68.6,68.6,0,0,1,41.36-6.49,26.84,26.84,0,0,1,7.23,2l5.37,1.79Zm-223.25,40.89-4.69.12a67.11,67.11,0,0,0-36.77,9.86l-5,4.61,3.06,4.27a35.67,35.67,0,0,0,16,17.84,45.66,45.66,0,0,0,23.53,5.4,11,11,0,0,0,4.85-1c3.08-1.61,4.23-5.57,3.84-9s-2-6.65-3-10a35.63,35.63,0,0,1-1.4-16Zm249.11,104c-1.1-2.8-3.39-4.92-5.57-7q-5.28-5-10.22-10.39a89.49,89.49,0,0,1-6.09-7.25,56.74,56.74,0,0,1-10-22.47c-.93,2.69,1,6.21-1,8.27a3.5,3.5,0,0,1-4.3.34,5.42,5.42,0,0,1-2.26-3.93c-.22-1.81.12-4-1.22-5.19-1.1-1-3-1-3.69-2.38-.59-1.18.16-2.88-.78-3.82a3.93,3.93,0,0,0-2-.71c-.71-.17-1.49-.67-1.41-1.4l-1.9.87a2.41,2.41,0,0,0-2.69,1.6,7.3,7.3,0,0,0-.24,3.39,97.61,97.61,0,0,1,.08,14.51,41.24,41.24,0,0,0-.19,5.66,3.36,3.36,0,0,0,.9,2.37,3.78,3.78,0,0,0,1.34.6l4.75,1.38.25,2.86c10.44,7.79,21,15.69,29.19,25.81,4.9,6,9.36,13.19,16.64,15.93l1.74-4.15a55.56,55.56,0,0,1-.64-13.51ZM1306.34,1614l4.9,10.75c1.7,3.73,3.54,7.64,6.87,10l4.55,1.58,4.39-2a87,87,0,0,1,20.86-14,68.92,68.92,0,0,0,8.8-4.53,15,15,0,0,0,6.19-7.51l0-7c-1.82-7.71-7.29-14-12.83-19.65q-7.38-7.56-15.38-14.49l-5.68-1c-4.86,4.39-9.8,8.87-13.07,14.54s-5,12.43-10.32,16l.13,4.16a38.8,38.8,0,0,1-1.49,8.63Zm221.91,600.87c.06-2,1.1-3.8,2-5.56a69.81,69.81,0,0,0-24-91.84c-9-5.77-19.62-9.61-26.74-17.64-9.73-11-10.67-26.94-11.12-41.61l1.26-7.39c-5.41,1.55-11.64-3.07-11.74-8.69l-1.62-4.11c-2.77-5.89-8.67-9.59-14.4-12.68s-11.83-6.09-15.67-11.34c-2.37-3.25-4.45-7.69-8.47-8l-2.37.73c-2-.87-3.94,1.43-4.82,3.45a40.57,40.57,0,0,0-2.94,10.37c-.26,1.81-.77,4.07-2.56,4.42-1.37.27-2.67-.92-3.15-2.24a18.65,18.65,0,0,1-.6-4.16c-.74-5.43-5.22-9.43-9.17-13.23s-7.91-8.66-7.14-14.08l.7-4.16c-4.06-5-5.1-11.86-9-16.93l-2-5.53a4.93,4.93,0,0,0-7-1.31c-1.63,1.27-2.32,3.51-4,4.66a6.42,6.42,0,0,1-5.6.31,4.38,4.38,0,0,1-1.77-1,5.4,5.4,0,0,1-1.12-3.66A96.67,96.67,0,0,1,1356,1947l.52-4.18a18.59,18.59,0,0,0-2-10.61,19.81,19.81,0,0,1-1.76-3.58c-.56-1.88-.24-3.91-.54-5.85-.69-4.39-4.36-7.75-5.67-12-.62-2-.7-4.18-1.64-6.06-1.32-2.63-4-4.19-6.62-5.6l-6.51,8.64a24.27,24.27,0,0,1-14.52,16.56c-2.66,1-5.54,1.6-7.89,3.22-1.58,1.09-2.88,2.62-4.64,3.41-2.94,1.32-6.46.19-9.1-1.67s-4.75-4.38-7.35-6.3a21,21,0,0,0-26.17,1.7c-1,1-2.1,2.19-3.53,2.39-2.22.32-4-1.8-5.17-3.68l-11-16.82-9.59-9.11a51.75,51.75,0,0,0-86.12,9.17c-1,1.92-1.89,4-3.56,5.33-2.94,2.39-7.34,1.91-10.75.27s-6.25-4.27-9.57-6.1c-10.11-5.58-22.65-3-34-5.3-10.48-2.11-19.65-8.33-29.78-11.78a58.59,58.59,0,0,0-74,35.47c-3.31,9.14-4.17,19.77.53,28.27,2.37,4.29,6,7.75,8.68,11.84s4.47,9.34,2.58,13.86-7.1,7.07-12,8.33c-7.88,2-16.11,2.19-24.17,3.32s-16.31,3.4-22.36,8.84-9.21,14.75-5.58,22c2.38,4.76,7.09,7.84,10.58,11.86a28.09,28.09,0,0,1,5.8,25.3c-1.91,7.05-6.5,13-9.66,19.6a51.33,51.33,0,0,0-4.79,26.65c.75,8.17,3.71,16.47,9.81,22s15.73,7.45,22.76,3.22l9-1.89c4.82-5.09,14.22-.79,16.52,5.83s0,13.84-2.06,20.54-3.75,14.28-.44,20.46c4,7.46,13.55,9.72,22,10.42,24.61,2.05,51-3.15,69.19-19.87,24.88-22.89,29.56-62,54.84-84.49,11.53,28.57,38,50.18,68,57.48s62.61.74,88.43-16.06c10.6-6.89,20.37-15.54,32.4-19.42,18.44-6,41.49-.67,55.3-14.24l28.35,21.06a22.33,22.33,0,0,1,5.85,5.57c1.8,2.83,2.23,6.3,2.69,9.62a191.26,191.26,0,0,0,30.57,79.71c1,1.51,2.1,3.15,2,5a8.53,8.53,0,0,1-2,4.36l-18.46,25.76-3.5,7.56a156.25,156.25,0,0,0-23.06,67.87c-.6,6.34-.52,13.51,4,18,8.23,8.24,24.46,1.33,32.71,9.54,3.25,3.23,4.31,8,6.74,11.9,6,9.54,20.1,11.79,29.92,6.31s15.27-17,15.72-28.21c.3-7.4-1.17-15.37,2.49-21.81a7.06,7.06,0,0,1,3.44-3.34c2.08-.79,4.4,0,6.43.89,6.89,3,13.33,7.28,20.66,8.94s16.24-.13,20-6.67c1.52-2.67,2-5.79,2.34-8.84a132.42,132.42,0,0,0-16.71-80.21C1529.41,2219.29,1528.17,2217.18,1528.25,2214.87ZM1025.6,1844.14c1.89-.27,3.91-.61,5.31-1.91,1.24-1.14,1.78-2.84,2.37-4.42,6.8-18.06,26.57-29.41,31.39-48.1,2-7.77,1.15-16,.28-23.93l-1.25-5.16a3.12,3.12,0,0,1-2.38,1.71c-1,.2-2,.15-3,.33-5.31.93-7.73,7.62-12.78,9.51l-.36,1.06a23.27,23.27,0,0,1-9.69,14.15,6.91,6.91,0,0,1-4.22,1.46l-.69.86-20.37,36.1-.36,13.67,5.52,6.17ZM629.81,1877h-.06ZM928,748.19l8.55,4.64,2.12-3.38c5.23-8.09,16.29-10.37,22.58-17.66l6.76-5.72c0-2.5,0-5.14-1.18-7.33a14.37,14.37,0,0,0-2.51-3,50.87,50.87,0,0,0-8.07-7,18.27,18.27,0,0,0-10-3.29h-2.32L931,712l-.78,2.54c-3.55,3.65-3.81,9.28-3.79,14.37q0,8.6.32,17.2a2.52,2.52,0,0,0,.24,1.22A2.64,2.64,0,0,0,928,748.19Zm-71.17,95.3a3.87,3.87,0,0,1-1.7.54l-3.17.5-.14.72c.93,1.89,1.87,3.79,2.81,5.68a1.45,1.45,0,0,0,.57.73,1.71,1.71,0,0,0,1.16,0c4.25-.91,8.36,2.09,11.16,5.41s5.15,7.26,9,9.39l1.5-2.94a30,30,0,0,0,3.57-7.82,30.46,30.46,0,0,0,.61-4.86c.22-3.06.43-6.12.65-9.18l0-3.68a4.23,4.23,0,0,1-7-2.77,21.28,21.28,0,0,1-18,4.38C858,841,858,842.68,856.87,843.49Zm46.92-97.34a1.41,1.41,0,0,0-.24-1,1.47,1.47,0,0,0-1.09-.33l-3.17-.08-3.43.12-3.73,7.39c-3.21,4.21-6.9,8-10.35,12a132.93,132.93,0,0,0-27.33,51l-3,10.6,4.6,1.16c8.45-2.19,17.39.27,26.09-.45,2.07-.17,4.47-.41,5.93,1.07l1.44-4a82.79,82.79,0,0,1,10.85-21.73L905,797.3l.92-6.21c-1.34,1.34-3.82.59-4.88-1s-1.1-3.6-1.1-5.5c0-10.23.21-20.54,2.47-30.52A43,43,0,0,0,903.79,746.15Zm92-83.73-1,3.86c-8.33,4.71-12.62,15.48-21.8,18.18l-3.15,3.36a29.76,29.76,0,0,0,9.54,5.33,56.09,56.09,0,0,0,7.06,1.38,71.38,71.38,0,0,1,11.93,3.09c1.35.47,2.82,1.11,3.38,2.43l4.65,1.46,2.69-3.64c8.12-2.87,13.92-9.9,19.29-16.62q3.68-4.57,7.34-9.17l3.17-5.89-1.24-1.86c-3.11-4-8.15-6-13.15-6.54s-10,.25-15,1.05a6.59,6.59,0,0,1-.2-2.44c-.07-.82-.83-1.75-1.57-1.39-.56.27-.61,1-.58,1.65l.21,4.61-9.2-.24Zm967.71,82.21c-1.84,4.5-4.86,8.68-9.12,11-3.71,2-8,2.52-12.21,3.26a93.27,93.27,0,0,0-30.59,11.24l-2.08,6.81c33.52,45.28,42.66,107.57,23.57,160.57-5.55,15.41-13.81,30.59-27.29,39.9-20.68,14.3-48.33,11.71-72.44,18.9a10,10,0,0,0-4.68,2.43c-1.84,2-1.85,5-1.75,7.74,1.06,28.84,2.5,57.85-1.28,86.46s-13.14,57.17-31.48,79.46c-2.09,2.54-4.4,5.22-4.72,8.5-.7,7,7.24,11.17,13.68,13.91a140.13,140.13,0,0,1,44.37,30.13c9.23,9.3,17.56,21.33,16.2,34.36-.61,5.78-3.11,11.28-3.3,17.08-.34,10.6,6.88,19.72,11,29.48,7.75,18.25,2.52,42.91-15.19,51.85l-10,6.44a88.33,88.33,0,0,1-16.4,35.81,86.16,86.16,0,0,1,71.9,32.13c11.52,14.63,17.94,32.76,20.95,51.14s2.79,37.11,2.2,55.72c-.38,12-.92,24.09-3.8,35.74-8.33,33.83-37.68,61.5-71.93,67.84s-71.56-9-91.46-37.58c-2.46-3.54-5.44-7.69-9.74-7.63-1.83,0-3.56.86-5.37,1-4.69.41-8.58-3.64-10.74-7.82s-3.46-8.94-6.74-12.31A142.7,142.7,0,0,1,1706.1,1606l-6.51,4.45a165.89,165.89,0,0,0-18.79.16l-3.38.94c-3,.62-5.45,2.63-8.15,4a21.78,21.78,0,0,1-9.18,2.43,7.6,7.6,0,0,1-5.14-1.29l-1.87-.15a27.45,27.45,0,0,1-8.63.91c-1-.11-2-.34-3-.48a18.74,18.74,0,0,0-11.66,2.25l-1.44-.21a4.71,4.71,0,0,0-2.31-4.94l-.62-.42c-1.94,1.45-3.64,3.35-5.93,4.12-1.91.65-4,.42-6,.53s-4.2.7-5.28,2.4l-.3-.66c-1.59-4.6-6.71-7.52-7.59-12.3l-1.43-.86q-11.26-.36-22.49-1.56a1.19,1.19,0,0,1-.67-.22,1.21,1.21,0,0,1-.25-.73q-.7-6.87-1.4-13.76l-.25.13-10.87-1a.71.71,0,0,1-.41-.12c-.23-.17-.2-.5-.17-.78a8.84,8.84,0,0,0-4.32-8.44l-2-3.64c-4-3.28-2-9.85-3.86-14.66a4.12,4.12,0,0,0-1.5-2c-1.64-1-3.89,0-5.1,1.55l-5.72-4.23c-2.55-7,.23-14.88-1.68-22a3.58,3.58,0,0,0-.94-1.82,3.93,3.93,0,0,0-2.2-.75c-6-.79-12.9-1.36-17.53,2.61-2.75,2.35-4.14,5.87-5.54,9.2-2.4,5.74-5.36,11.66-10.65,14.93-6,3.71-14.45,3.63-18.79,9.21l-2.18,5.63a150,150,0,0,0-24,3.3c-5.22,1.22-10.34,2.82-15.62,3.75a2.65,2.65,0,0,1-1.89-.15,3.2,3.2,0,0,1-1-2c-1.28-4.51-6.18-7.29-10.87-7.33s-9.12,2.15-13,4.82l-10.94-3.12c-24.64-10.38-42.53-35.2-44.59-61.85-.32-4.21-.3-8.52-1.62-12.54l-2-16-.34-15.27a14.47,14.47,0,0,0,.63-12,23,23,0,0,1-6,4.47,24,24,0,0,1-7,3c-4,.8-8.3-.21-11.94,1.53l-6.13-4.84a41.29,41.29,0,0,0-22.28-4.22c-6.75.62-13.21,2.89-19.72,4.78-10.8,3.13-22,5.24-33.24,4.7s-22.53-3.88-31.41-10.77c.78,12.08,6.76,23.41,15,32.28s18.6,15.49,29.34,21.07l4.64,5.45,2.8,4.27c2.6,6.15,1.7,13.14.89,19.76-1.2,9.81-2.12,19.74-1,29.56l-.46.83a14.57,14.57,0,0,1-7.44-3.71c-2.13-1.83-4-4-6-5.88l-3.57,1a19.38,19.38,0,0,0-3.19,14.24l1.62,5.21a322.4,322.4,0,0,1,4.39,34.64l1.53,4a57.06,57.06,0,0,1,1,13.68c-.12,2.53-.5,5.25-2.29,7-1.09,1.09-2.7,1.85-3,3.35l-3.34,4.33-5.46-1.37a79.91,79.91,0,0,0-22.64-.72c-2.78.31-5.6.76-8.33.2-2.21-.46-4.25-1.56-6.46-2s-4.87,0-6.07,1.91a6.37,6.37,0,0,0-.76,2.46c-.52,3.94.41,7.93.28,11.9s-1.82,8.38-5.54,9.77c-1.29.49-2.76.58-3.88,1.38a7.15,7.15,0,0,0-2.15,3.4q-1.85,4.74-3.7,9.47l-8.22,3.69-2.55,4.32c-4,4-10,4.87-15.56,5.93a115.45,115.45,0,0,0-32.2,11.25l-5.79,0q-3.09.88-6.12,2l-3.49-3.19a99.69,99.69,0,0,1-14.9-17.51l-4.09,8.25a10.71,10.71,0,0,0-1.1,2.86,11,11,0,0,0,.34,4.26q1.27,5.93,2.54,11.83l.41,4.47-3,3.34c-15.11,12.8-32.24,23.23-46.25,37.22-15.33,15.32-26.35,34.32-39.16,51.8l-6.75.49-6.12-1.55c-6.87-.47-11.27-9-18.15-9.09a16.08,16.08,0,0,1-3.54-.06,7.78,7.78,0,0,1-3.7-2.71,86,86,0,0,1-9.43-12.78c-3.37-5.59-7.07-12.29-13.54-13.15-1.54-.21-3.12,0-4.64-.37-3.88-.83-6.39-4.58-7.94-8.23-6.74-15.87-3-34.27-7.36-51a97.48,97.48,0,0,1-32.35,42.16l-4.22,3c-1.15-.86-2-2-3.14-3a4.71,4.71,0,0,0-4-1.3,6.51,6.51,0,0,0-2.5,1.53c-9.32,7.75-20.9,12.13-32.25,16.38l-3.66,3.54-10.23,5.84-15.06,12.73a93,93,0,0,0-11.61,11c-3.26,3.89-5.86,8.28-8.64,12.53-10.07,15.38-22.59,29-35.69,41.92l-4.62,4.5-6.22-.86a58.85,58.85,0,0,0-16.34,9.13l-1.69,4.82-7,5.75c-11,6.87-17.75,18.62-23.61,30.14s-11.44,23.63-21,32.31c-7.51,6.8-17,11-24.53,17.85-6.14,5.56-10.78,12.69-17.32,17.77a5.39,5.39,0,0,1-2.75,1.34c-3.1.25-4.3-3.91-4.37-7-.23-10.69.06-21.4.88-32.06l-1.69-5.65,6.06-8.33c2.35-1.61,2.71-4.88,2.87-7.73s.55-6.12,2.93-7.7l.81-.94a46.62,46.62,0,0,1-7.81-1.09l.43-.26a26.47,26.47,0,0,1,14.8-28.18l-.68-.75a9.83,9.83,0,0,0-5.15-8.65l-1.37.72a23.73,23.73,0,0,1-12.67,1.39,122.42,122.42,0,0,1,.36-16.48,61,61,0,0,1,11-28.52v-.53a28.23,28.23,0,0,1-16.62,2l-.35,0A113.38,113.38,0,0,1,640.42,1798a26.48,26.48,0,0,1-14.59,4.4l-.36-.45c-2-8.43.06-17.44,4-25.15s9.71-14.36,15.38-20.93l-.56,0a26.15,26.15,0,0,1-15.63,1.39l-.31-.25c-1.41-8.17,3-16.15,7.81-22.92a155.09,155.09,0,0,1,9.95-12.6l.27-.91a45.65,45.65,0,0,1-6.17.67,6.17,6.17,0,0,1-4.29-1c-.79-.67-1.21-1.69-2-2.42-1.59-1.56-4.13-1.42-6.35-1.17l-.44-.13c-.1-4.06,2.27-7.78,5-10.81a43.62,43.62,0,0,1,32-14.37l.06-.7a24.29,24.29,0,0,0-2.9-3.66,26.72,26.72,0,0,0-4.78-4.49,9.1,9.1,0,0,0-6.21-1.71l-.24-.21c3.59-.14,6.78-2.22,9.76-4.22a19.86,19.86,0,0,0,2.73-2.08,29,29,0,0,0,3.71-5.2A9.91,9.91,0,0,1,671,1665l-1.88-2.1a346.75,346.75,0,0,1-63.29-1.57c-17.53-2.06-36-5.34-52.31,1.32-2.74,1.11-6.2,2.38-8.34.34a19.66,19.66,0,0,1-1.84-2.72l-4.33-10,1.92-18.72c.82-8,1.65-16,4.15-23.64,2.75-8.37,7.42-16,12.49-23.16,13.34-19,29.62-35.69,43.38-54.35,4.77-6.46,9.44-14.2,7.63-22-1.36-5.86-6.08-10.26-10.56-14.27l-14.07-12.6c-2.83-2.53-5.94-6-4.84-9.6.86-2.86,4-4.33,6.75-5.39a201.52,201.52,0,0,1,33.19-9.42l0-6,14.37-4.16q7.53-.92,15-2.2c2.29-.4,4.8-1,6.15-2.85a4.91,4.91,0,0,1,1.1-1.36,3.17,3.17,0,0,1,1.83-.34l26.82.47a25.76,25.76,0,0,1-1.42-6.25c5.94,2.88,12.86,3.11,19.41,2.28s13-2.66,19.48-3.69l.56-.34c-4.17-4.56-8.46-9.21-14-12-2.08-1.06-4.54-2.11-5.22-4.34l.37-.47,8.73.46c1.8.1,3.82.12,5.17-1.09s1-4.07-.79-4.19l10.05-.5a22.52,22.52,0,0,0,6.34-.94c1.47-.52,2.82-1.34,4.26-1.95,3.64-1.53,7.69-1.65,11.64-1.74l3.34-1.79a4.64,4.64,0,0,0,3.37-6.19,9,9,0,0,0-2.26-2.73l-7.46-6.87a5.62,5.62,0,0,0,1.95-7.85,48.72,48.72,0,0,0,10.29-2.62,2.43,2.43,0,0,0,1.29-.86,2.29,2.29,0,0,0,.19-1.37,16.93,16.93,0,0,0-6.18-11.65c8.69-1,17.06,5.27,25.72,4.06a7.43,7.43,0,0,0,4-1.66,3.67,3.67,0,0,0,1.08-4,40.63,40.63,0,0,1,20.59,2.41l5.63,1.07a19.93,19.93,0,0,0,6-.81,6.79,6.79,0,0,0,4.34-3.92c.82-2.41-.32-5.12-2.13-6.91s-4.19-2.85-6.47-4c-4.87-2.39-9.78-5.4-12.39-10.17a24.17,24.17,0,0,0-1.81-3.22c-1.52-2-4-2.91-6.33-3.77L772,1325.89c-3.63-1.33-7.57-2.92-9.37-6.34-.81-1.55-1.11-3.36-2.16-4.75-2.14-2.82-6.34-2.79-9.85-2.31s-7.54,1-10.19-1.37l-13.13-1.46a79.87,79.87,0,0,0-30.57,8.56c3-1.53,2.79-5.83,4.58-8.64.92-1.43,2.34-2.45,3.39-3.78a9,9,0,0,0,1.93-5.54l-.47-.13-8.43.46a1.13,1.13,0,0,1-.63-.09,1,1,0,0,1-.39-.66,9.44,9.44,0,0,1-.38-2.74c0-.37,0-.81-.31-1a1,1,0,0,0-.6-.16,83.3,83.3,0,0,0-16.25.54c1.43.46,1.35,2.73.18,3.66s-2.82.89-4.32.81a1.68,1.68,0,0,1-1.19-.37,1.78,1.78,0,0,1-.32-.57c-.75-1.92-1.5-3.83-2.26-5.75l-1.35-.13a104.28,104.28,0,0,0-24.85,2.37.79.79,0,0,1-.57,0c-.24-.14-.25-.47-.23-.75a43.78,43.78,0,0,1,1-6.64l-.65.27a7.16,7.16,0,0,1-3.93,5,21.12,21.12,0,0,1-6.36,1.82l-11.14,2a32.33,32.33,0,0,0-8,2.11c-3.4,1.55-6.19,4.22-9.56,5.83a17.45,17.45,0,0,1-10.29,1.47l0-.53a10.07,10.07,0,0,1,2.64-4.43l9.34-10.94a.73.73,0,0,0,.23-.42.75.75,0,0,0-.33-.54,19.13,19.13,0,0,0-7.4-4l.09-1,17.2-17.46c1.24-1.26,2.56-2.67,2.76-4.43s-1.43-3.78-3.12-3.22a79.87,79.87,0,0,0,6.15-5.33c1.74-1.68,3.51-3.67,3.63-6.09.15-3.18-2.58-5.73-5.28-7.43l.47-.75a11.27,11.27,0,0,0,5.85-7.59c.62-2.9.08-6.08,1.36-8.76,1.38-2.89,4.58-4.51,7.74-5s6.38,0,9.57.1c11.35.46,22.57-3.14,32.53-8.58,6.54-3.57,13.17-8.76,14.24-16.13l-.13-.53a15.53,15.53,0,0,1-9.4,5.56,45,45,0,0,1-11.13.49c-23.63-1-47.78-2.61-70.52,3.91l-6.19.11a28.45,28.45,0,0,0-12.17.76l-1.51-4.57a169.91,169.91,0,0,1-4.14-72l-.31-6.66a95.4,95.4,0,0,0,12.23-18.1c1.31-2.4,2.77-5,5.3-6,1.26-.51,2.67-.56,3.93-1.06,3.84-1.51,5-6.28,5.64-10.36q1.17-7.41,2.32-14.83a11.43,11.43,0,0,1,1.55-4.89c1-1.46,2.67-2.36,3.93-3.61a11.7,11.7,0,0,0,3-5.93l6.75-2.37c17.33-12,39.61-13.54,60.68-14.65l4.89,0a103.38,103.38,0,0,1,22.59-60.44l5.24-3.67,2.47-.05a22.61,22.61,0,0,1,11-3.1,3.53,3.53,0,0,0,1.91-.37c1.65-1.08.72-4.46,2.62-5a83.85,83.85,0,0,0,8.81,12.67q.38-13,.15-25.93l.19-.41a15.15,15.15,0,0,0,2.65,4.22l2.51,3.17a13.69,13.69,0,0,0,4.4,4.11c2,1,4.38.9,6.63.8l.2-.27a40,40,0,0,0,1.46-22.94l1.6-2a20.28,20.28,0,0,0,13.64,1.1,10.19,10.19,0,0,0,3.77-1.76c1-.8,1.82-1.9,3-2.33,1.83-.65,3.79.46,5.42,1.53a2.45,2.45,0,0,1,.86.8,2.55,2.55,0,0,1,.2,1.07l.54,18.21-5.81,7.44-4.66,3c-12.57,12.5-25.52,25.61-31.36,42.35a59.44,59.44,0,0,0,1.56,42.71,23.22,23.22,0,0,0,2.92,5.22c1.74,2.23,4.08,3.89,6.23,5.73,2.68,2.3,5.11,4.91,8.08,6.82s6.67,3.08,10,2.07c-2.16-2.3-4.38-4.69-5.48-7.65a23.18,23.18,0,0,1-1.08-6.89,116.35,116.35,0,0,1,.48-22.55,5.2,5.2,0,0,1,1.42-3.4,4.16,4.16,0,0,1,2.62-.8c3.63-.06,6.9,2,9.93,4l5.48,5.28,1.44,3a93,93,0,0,1,13.18,48.83l.24.87a35.72,35.72,0,0,0,14.69,1l1.64-.53a98.46,98.46,0,0,0-1.84-15.78,8.41,8.41,0,0,0,4.53-.8c-1.34-1-3.6-.34-4.69-1.63a3.68,3.68,0,0,1-.64-2.08l-.48-5.13a10,10,0,0,0,5.56-1.09,15.4,15.4,0,0,1-5.39-.76,17.37,17.37,0,0,0-.2-4.61,11.67,11.67,0,0,0,6-1.1l-5.09-.68a1.86,1.86,0,0,1-1-.34,1.82,1.82,0,0,1-.48-1.14l-2.19-13.2,5.59-1.72c-.7-1.23-2.64-.36-4-.82-1.78-.6-1.78-3.09-1.44-4.94,1.79.35,4.11.47,5-1.14l.09-.59-5.73-.52c0-2.43.1-4.87.14-7.3a4.74,4.74,0,0,0,4-1.28,5.51,5.51,0,0,0-4.37-1,45.6,45.6,0,0,0-.21-10.7,14.25,14.25,0,0,0,4.17-2c-.5-.88-1.89-.3-2.82-.68-1.47-.59-.89-2.75-1-4.33-.13-2.35-2.36-4.53-1.57-6.75a13.13,13.13,0,0,0,3.27-2.25,4.68,4.68,0,0,0-3.58-.07,38.31,38.31,0,0,1-.58-5.45,2.64,2.64,0,0,1,.12-1.12c.72-1.85,4.32-1,4.84-2.92a3,3,0,0,0-.12-1.52,12.4,12.4,0,0,1,.69-7.63l1.34-3.81,4.68-2.86a93.24,93.24,0,0,0,12.78-10.13,31,31,0,0,1,5-4.15c3-1.85,6.64-2.4,10-3.44,2.73-.83,5.38-2,8.2-2.35a55.38,55.38,0,0,1,6.18-.07,28.48,28.48,0,0,0,16.86-5.83,3.82,3.82,0,0,0,1.68-2.19,4.19,4.19,0,0,0-1.09-3l-2.79-4c-1.19-1.68-2.44-3.65-2-5.66.65-2.83,4.06-3.82,6.37-5.57.29-.22.6-.53.55-.89a1,1,0,0,0-.16-.41,20.5,20.5,0,0,0-30.18-6.11,42.73,42.73,0,0,0-6.76,7c-8.31,9.92-17.4,19.59-28.95,25.42L817,959.13c-1.72-1.92-4.68-2-6.91-3.29l-2.52-.65a14.06,14.06,0,0,0-.38-4.61,5.55,5.55,0,1,0-.75-11c-.33-2.18-.65-4.36-1-6.54a1.15,1.15,0,0,1,.08-.84,1.13,1.13,0,0,1,.77-.39l6.07-1.34-5.55-.48a.91.91,0,0,1-1-1l-.27-3.41a26.7,26.7,0,0,0,8-1.64,44.75,44.75,0,0,0-8-1.13c-.37-2-.68-4.22.59-5.76.94-1.12,2.45-1.52,3.73-2.23a8.17,8.17,0,0,0,3.71-9.22l-.57-3.22a25.45,25.45,0,0,0,1-4.26,5,5,0,0,1,2.39-3.49c1.46-.67,3.15-.12,4.75-.1,3.63,0,6.62-2.69,9.2-5.24a14.58,14.58,0,0,0,3.13-3.92,12.56,12.56,0,0,0,1-5,49.38,49.38,0,0,0-.62-9.71,1.4,1.4,0,0,1,1.3-2l3.89-1,1.4-.28a8.28,8.28,0,0,0,2.05,6.66,2.36,2.36,0,0,0,.72.58,2.84,2.84,0,0,0,1.23.19,8.4,8.4,0,0,0,2.6-.27,2.86,2.86,0,0,0,1.91-1.67,3.54,3.54,0,0,0,0-1.8,10.76,10.76,0,0,0-2.32-4.93,14.44,14.44,0,0,1-2.47-3.12,8.66,8.66,0,0,1-.51-3.66,2.85,2.85,0,0,1,.31-1.58,1,1,0,0,1,1.4-.3l1.61.06a5.52,5.52,0,0,1,.81,2.06,43.39,43.39,0,0,0,8.8,17.21c1.61,1.91,3.49,3.76,5.88,4.48s6.4,0,7.55-2.23a8.69,8.69,0,0,0,7.41-8.77l3.43-4.61c3.83-2,6-6.15,7.41-10.23s2.4-8.4,4.89-11.92a16.65,16.65,0,0,0,2.3-3.56c.73-1.92.34-4.06.55-6.11a10.47,10.47,0,0,1,7.15-8.68l4.29-1.65,2.27,2.27A85.62,85.62,0,0,1,926.67,819a13.44,13.44,0,0,0-5.51-9.72,73,73,0,0,1,26.36-4.77,40.09,40.09,0,0,0-6.08-9.84,2.55,2.55,0,0,1-.79-1.6,2.42,2.42,0,0,1,.36-1c1.44-2.64,3.2-5.7,2-8.44l3.51-3.64c1.69-5.82-2.37-12.66.72-17.88,1.17-2,3.19-3.29,5.13-4.53,2.85-1.82,5.78-3.67,9.1-4.31a30.56,30.56,0,0,1,6.83-.22,108.38,108.38,0,0,0,23.51-1.79l5.73-1.77c2.67.85,5.55.31,8.3-.23l3,1.15c2.41-.28,4.63,1.25,6.4,2.9s3.44,3.56,5.71,4.38c1,.36,2.06.49,3.07.79,2.84.83,5.11,2.9,7.27,4.91a23.26,23.26,0,0,1,1.8-8.63,33.63,33.63,0,0,0,15.9,15.48c2.36,1.1,5.09,1.91,7.52,1-7.39-4.82-10.09-15.36-18.22-18.79l-.2,0a77.54,77.54,0,0,1,8.8-3.51c-4.36-1.25-7.22-5.33-9.71-9.12L1027.46,725l3.38-6.35,7.2-1.58,19.31-.45c23.58-.55,47.32-1.08,70.58,2.78a187.94,187.94,0,0,1,39,10.88A21.44,21.44,0,0,1,1176.6,718l2.71-5.76,2.06,0a3.7,3.7,0,0,0,2.88-4c-.16-1-.68-2.28.12-2.94.42-.35,1-.34,1.47-.68a2.34,2.34,0,0,0,.56-1.79,21.34,21.34,0,0,1,.92-5.55,2.3,2.3,0,0,1,1-1.48,1.64,1.64,0,0,1,1.76.37,4.84,4.84,0,0,1,1,1.6l4.06,8.88a2.22,2.22,0,0,0,.77,1,.77.77,0,0,0,1.11-.27,10.52,10.52,0,0,1,3.72,4.57l9.26,1.67,10.2,6.36c10.09,4.74,21.15,10.52,24.73,21.08,1.55,4.59,1.45,9.56,2.38,14.31a33.89,33.89,0,0,0,11.4,19.33,7.47,7.47,0,0,0,3.84,2,7,7,0,0,0,4.24-1.3c7.56-4.65,11.35-13.82,12-22.68s-1.24-17.68-2.6-26.46c-3.75-24.27-3.41-49.61-12.74-72.33-4.09-10-9.94-19.11-14.15-29-3.14-7.4-5.34-15.16-8.33-22.62-16.46-41-58.47-70.48-102.65-72-5-.16-10.2,0-14.85,1.93-10.69,4.38-15.83,16.28-20.11,27-9.38,23.57-19.86,47.27-36.81,66.15l.79,5.57c-8.88-.37-17.35,3.65-26.19,4.55a1.85,1.85,0,0,1-1.41-.25,1.8,1.8,0,0,1-.48-1.21,31.51,31.51,0,0,1-.15-6.44,136.36,136.36,0,0,0-15.79.07l-7.25-7.62V605c13.34-24,27.13-50.56,22.27-77.6-2.84-15.76-11.95-30.51-11-46.5.71-12.42,7.57-23.82,16.38-32.6,4.43-4.4,9.44-8.35,12.74-13.65,4.94-7.89,5.44-17.68,5.81-27l1.61-41.25c.14-3.62.27-7.33-.89-10.76-2.45-7.21-9.85-11.34-16.73-14.6a389.2,389.2,0,0,0-105-32.49C933,307.29,923,305,920.41,297c-1.06-3.24-.79-7.23-3.36-9.47a10.35,10.35,0,0,0-5-1.92l-72.54-13.75L829,274.51c2-4.62-1.29-9.94-5.44-12.77s-9.17-4.15-13.33-7a22.89,22.89,0,0,1-8-27.07c2.5-5.88,7.66-11.4,6.38-17.66l7.16-4.48c58.14-38,116.93-76.37,182.24-100S1136.7,74,1202,97.62c11.13,4,23.66,8.92,34.26,3.65,6.91-3.44,11.22-10.51,17.38-15.17,16.6-12.56,40.47-4.52,58.52,5.87,66.57,38.31,115.39,102,150.49,170.29l5.59,9.07c5.23,7.35,10.7,14.93,18.51,19.46s18.65,5.14,25.23-1.05c9-8.5,5.36-23.27,2-35.24-8.86-32-9.79-67.32,4.23-97.41s45-53.39,78.2-52c30.79,1.27,57.21,22.27,77.64,45.33,9.86,11.14,19.19,23.57,22.11,38.16.84,4.19,1.29,8.83,4.32,11.85,2.41,2.4,5.94,3.22,9.29,3.79,28.76,4.86,58.29-1.46,87.37.84a148.11,148.11,0,0,1,51.86,13.9c30.87,14.71,57.69,43.64,58.72,77.82.73,24.23-11.31,47-24.87,67.05-10.19,15.09-21.72,29.73-36.89,39.78s-33.37,15-51.1,19.73c42.26,15.7,69.94,63.5,62.52,108-.78,4.68-1.89,9.54-.53,14.09,1.18,4,4.1,7.16,6.56,10.51,16.71,22.8,12.43,54.19,7.4,82l3.54,11.17L1919,675.4c12.93,7.64,26.15,15.53,35.61,27.2S1969.12,730.71,1963.45,744.63Zm-1125.25,433a5.1,5.1,0,0,0,2.39-.44l.44-3a216.9,216.9,0,0,0-1.72-23.75l-1.95-4.52q-2.55-7-5.12-13.94a34.08,34.08,0,0,1-13.9,0,17.59,17.59,0,0,0,8-3.06c.36-.25.74-.74.44-1.06a1,1,0,0,0-.57-.21c-1.59-.35-1.84-2.49-1.73-4.12l4.23-1.18c-.07-.69-.9-1-1.59-1a6.14,6.14,0,0,1-2.05,0c-1-.34-1.45-1.54-1.73-2.58-.37-1.35-.73-2.69-1.09-4a1.33,1.33,0,0,0-1.49-1.3l-13.81-.8a3.36,3.36,0,0,0-3.85,1.81l-3.29,4.81a22,22,0,0,0-2.54,4.4,18.17,18.17,0,0,0-.94,4.19c-.89,7.13,0,14.36.9,21.48q.94,7.08,2,14.14a30.76,30.76,0,0,0,1.86,7.59,10.62,10.62,0,0,0,5.17,5.64l4.52.64C819.86,1176.25,829.05,1177.83,838.2,1177.65Zm24.65,181.09a2.72,2.72,0,0,0-.85-1.07c-.87-.58-2-.1-3,.28-3.56,1.38-7.51,1.24-11.33,1.07-2.58-.11-5.56-.44-7-2.6a9.61,9.61,0,0,1-13.23.08l-1,2.33c.12,1.81-1.42,3.23-2.37,4.78a7.92,7.92,0,0,0-1.14,4.6l.56,3.77c5.57,9.89,14.29,18.17,17.51,29.06a19.24,19.24,0,0,1,7.6-7.29,42.77,42.77,0,0,0,5.88,11.09,14.83,14.83,0,0,0,5.38,4.92c3.2,1.5,6.93,1,10.43.47l.28-4.66a1.09,1.09,0,0,0,1,.6A76.41,76.41,0,0,0,862.85,1358.74Z"></path>
    <path data-name="3a" data-official="" data-plain="Stamen flower" data-loc""="" d="M1389.14,2511.94a24.41,24.41,0,0,1-30.59-32.32c1-2.44,2.41-4.75,2.91-7.35,1.45-7.42-4.78-14.42-4.49-22,.37-9.36,10-15.18,18.43-19.26l15-7.26c3.93-1.9,7.92-3.83,12.23-4.57,5-.87,10.19-.08,15.24.75,9.65,1.59,19.49,3.4,28,8.17s15.7,13.11,16.51,22.86c.78,9.48-4.36,18.47-5,28-.57,8.08,2,16.94-2.27,23.83-3.22,5.23-9.58,7.7-15.68,8.42s-12.28,0-18.4.61c1,8.72,7.21,15.78,12.64,22.67s10.57,15.27,8.92,23.88c-1.24,6.52-6.32,11.82-12.24,14.8s-12.65,3.93-19.27,4.4a150.25,150.25,0,0,1-28.84-.73c-4.41-.55-9.22-1.52-12-5-3.6-4.59-2-11.24,0-16.71a169.86,169.86,0,0,1,15.65-31.56Z"></path>
    <path data-name="3b" data-official="" data-plain="Pistil flower" data-loc""="" d="M1488,2519.75c1.86-2.95,1.32-6.88-.25-10s-4-5.67-6.07-8.49a39.78,39.78,0,0,1-3.66-39.87c1.82-3.81,4.27-7.33,5.59-11.34,4.05-12.32-3.36-25.15-5.6-37.92a48,48,0,0,1,3.57-28c2.14-4.72,5.3-9.29,10-11.49,3.36-1.58,7.17-1.79,10.87-2,10.67-.53,23-.41,29.88,7.72,4.36,5.12,5.41,12.22,5.85,18.93a158.15,158.15,0,0,1-.27,24c-.69,7.86-2,15.85-.34,23.57s6.16,14.71,8.52,22.33a42.78,42.78,0,0,1-2.67,31.7c-3,5.93-7.56,11.74-7,18.37.42,4.65,3.35,8.63,5.64,12.71,6,10.65,7.52,25.2-.62,34.31-6.14,6.86-16,8.85-25.12,9.76a181.89,181.89,0,0,1-27.32.65c-3.48-.17-7.13-.51-10-2.48-6.45-4.42-5.58-14.39-1.93-21.31s9.38-13,10.81-20.66Z"></path>
    <path data-name="3c" data-official="" data-plain="Bract" data-loc""="" d="M1594.69,2536.5c-10.49-8.07-21.9-17.81-22.7-31-.85-13.95,10.63-25.86,12.16-39.75,1.21-11-3.87-22.92.94-32.92a33.81,33.81,0,0,1,6.59-8.58,255.64,255.64,0,0,1,33.4-28.95,8.46,8.46,0,0,1,4.45-2c2.27-.08,4.18,1.62,5.76,3.26a102.58,102.58,0,0,1,16.85,119.34c-2.35,4.43-5.08,8.88-5.51,13.87-.53,6.17,2.53,12,4.57,17.84a56.7,56.7,0,0,1,3.08,15.4,18.21,18.21,0,0,1-.8,7.53c-2.53,6.68-10.57,9.1-17.58,10.45-12.55,2.42-25.26,4.21-38,4.19-2.49,0-5.08-.09-7.3-1.22-4.3-2.19-6-7.7-5.32-12.48s3.08-9.1,5.09-13.49,3.65-9.26,2.61-14Z"></path>
    <path data-name="3d" data-official="" data-plain="Grain of Lupuline, magnified" data-loc""="" d="M1709.63,2537.84a85.28,85.28,0,0,1-15.69-70.43c1.2-5.24,3-10.59,6.9-14.33,5.34-5.15,13.32-6.18,20.71-6.8,15.43-1.3,32.37-1.57,44.68,7.83a23.92,23.92,0,0,1,7,8.15,29.12,29.12,0,0,1,2.56,11,72.05,72.05,0,0,1-9.63,41.43c-2.64,4.5-5.82,8.81-7.14,13.86-2.27,8.69,1.37,17.7,4.54,26.11s5.9,18,2,26.13c-2.78,5.84-8.62,9.78-14.8,11.74s-12.74,2.19-19.22,2.41l-25.44.87c-3.11.1-6.51.12-9-1.79a9.91,9.91,0,0,1-3.14-5.23c-2.18-7.79,1-16,5-23.08s8.9-13.81,10.51-21.73Z"></path>
    <path data-name="4a" data-official="Urtica dioica" data-plain="Section of Seed-vessel" data-loc""="" d="M605.28,2544.77c-11.69-6.15-19.76-17.59-25.2-29.63a109.85,109.85,0,0,1-9.61-40.93c-.85-22.95,5.58-45.73,15.41-66.5s23-39.75,36.36-58.44c3.73-5.22,7.54-10.49,12.49-14.58s11.24-6.93,17.64-6.46c9.91.72,17.52,8.84,23.43,16.82,11.35,15.33,20.39,32.23,29.39,49,4.28,8,8.59,16.08,11.18,24.78,3,9.93,3.59,20.39,4,30.75.91,20.92,1.1,42.18-4.23,62.44-2.2,8.37-5.5,16.74-11.58,22.89-5.71,5.78-13.82,9.58-17.22,16.95-4.12,9,.28,19.65-2,29.23a9.82,9.82,0,0,1-3.39,5.81,12.27,12.27,0,0,1-5.39,1.76,236,236,0,0,1-47.13,2.6c-6.46-.29-14-1.55-17-7.31-1.27-2.49-1.4-5.39-1.5-8.19l-.84-23.15Z"></path>
    <path data-name="4b" data-official="" data-plain="Hair, magnified" data-loc""="" d="M724.46,2529.84c8.59-13.6,5.14-31.25,7.95-47.09,2.06-11.55,7.53-22.27,9.76-33.78,1.4-7.22,1.51-14.62,2.21-21.94,2.47-25.86,12.29-50.37,22-74.46,2.56-6.36,5.42-13.1,11.12-16.91,2.41-1.62,5.46-2.61,8.23-1.76,4.51,1.38,6.31,6.78,6.74,11.47,1.41,15.53-4.82,30.56-8.88,45.61a167.49,167.49,0,0,0-5.59,50.86c.26,5.85.85,11.76,2.82,17.28,1.9,5.28,5,10,7.86,14.84a177.8,177.8,0,0,1,18.41,43.43c2.45,9,3.83,19.61-2.3,26.57-2,2.25-4.63,3.91-6.37,6.36-4.26,6-1.9,14.14-2.33,21.46a10.16,10.16,0,0,1-1.84,5.85,11.66,11.66,0,0,1-4.57,3A98.6,98.6,0,0,1,743,2588.7c-2.86-.21-5.8-.57-8.27-2-4.19-2.49-6.09-7.71-6.06-12.59s1.67-9.57,3-14.25a4.85,4.85,0,0,0,.23-2.88c-.45-1.39-2-2.08-3.24-2.79a17,17,0,0,1-7.89-18.67Z"></path>
</svg>
