
<svg xmlns="http://www.w3.org/2000/svg" viewBox="0 0 1996 2688" id="illustration" preserveAspectRatio="xMidYMid meet">
    <title>Amentaceæ</title>
    <path data-name="1" data-official="Quercus pedunculata" data-plain="Common Oak" data-loc="Britain" d="M1128.85,1976.22c-2.27-9.22-7.39-18.11-15.56-22.94l-4,5.17c-5-1-9.4-4.2-12.93-7.93s-6.4-8-9.64-12c-13.28-16.35-32.41-26.87-51.85-35-6.09-2.54-12.39-4.91-19-5.24l.21-2.64a70.42,70.42,0,0,0,.32-7.82l3.12-2.6a39.8,39.8,0,0,0,19.51-19.44c1-2.3,2-4.88,4.25-6.08l1.25-2c-5.06-1.33-10.31-3-14-6.68-1.2-1.2-2.19-2.59-3.35-3.81-4.36-4.6-10.69-6.65-16.74-8.53l-2.94-2.43a131.78,131.78,0,0,0-40.41-3.45l-4.41.55a11.51,11.51,0,0,0-7.54,4.16,9.54,9.54,0,0,1-2.14,2.33,6.75,6.75,0,0,1-2.25.77l-20.16,4.3-1.18-1.19c.12-2.18-1.72-4.09-3.8-4.74a12.91,12.91,0,0,0-6.47.13c-8.94,1.86-17.49,5.63-26.58,6.45a1.43,1.43,0,0,1-2-1.74c.6-6.49,2.63-12.76,3.73-19.19s1.18-13.35-1.89-19.1l-5.42,2.06c-19.16.38-39.17,1-56,10.17l-3,2a145.82,145.82,0,0,1-20.71,9.93l-2.09-1.91-15.65,3.55c-1,.22-2.14.38-2.82-.34a2.93,2.93,0,0,1-.42-2.3q1.32-13,2.63-26a13.26,13.26,0,0,0-.3-5.92c-1.17-3.14-4.61-5-8-5.22s-6.63.74-9.84,1.69a443.44,443.44,0,0,1-64.23,14,3.25,3.25,0,0,1-4.38-2.82q-9.5-28.8-19-57.61c6.53-.66,11.81-6.25,13.66-12.54s.82-13.1-1.2-19.35a10.21,10.21,0,0,1-.78-4.6c.35-2.29,2.28-3.94,3.9-5.59,8.3-8.4,11-20.87,11.42-32.67s-1-23.72.83-35.39c2.58-16.77,11.66-33.69,6.35-49.81l-3.31-4.5a21.38,21.38,0,0,0-7.72-8.4,9.78,9.78,0,0,1-2.38-1.74c-1.1-1.25-1.33-3-1.78-4.62a15.06,15.06,0,0,0-5.41-7.93,6.48,6.48,0,0,0-4.76-1.59,6.85,6.85,0,0,0-3.63,2.19,18.69,18.69,0,0,0-5.24,12.52c-3.6-1-7.51.89-9.89,3.76s-3.47,6.57-4.24,10.21l-.13,3.92c.15,3.67,4.91,5.09,7,8.11a11.66,11.66,0,0,1,1.64,4.73c2.05,11.41,1.43,23.11.63,34.67-.55,8-1.2,16-3.69,23.56-2.37,7.21-6.33,13.77-10.26,20.26-1.64,2.72-3.34,5.49-5.81,7.5a6.83,6.83,0,0,1-2.8,1.48c-3.45.76-6.37-2.42-8.6-5.16a109.34,109.34,0,0,0-40.29-30.92,34.8,34.8,0,0,0,5.1-16.12,88.3,88.3,0,0,0,15.73-4.1c5-2,9.81-5,13-9.41,5-6.72,5.7-15.56,6.26-23.89l-.94-8.63a104.19,104.19,0,0,0-.79-31.53c-.7-3.88-1.62-7.77-1.43-11.71s1.69-8,4.9-10.32a59.19,59.19,0,0,0,1.61,9.43c.75,3,1.78,6,3.82,8.23s5.33,3.66,8.24,2.72c2.43-.78,4.11-2.95,5.54-5.07,2.58-3.83,4.9-8.18,4.64-12.78-.17-3-1.41-6.11-.21-8.85a20.91,20.91,0,0,1,2.65-3.66c2.16-3,2.71-6.75,3.51-10.32s2.11-7.35,5.14-9.41l1.06-3.85a103.85,103.85,0,0,0-2.8-27.89c-.14-.56-.23-1.25.21-1.61a1.74,1.74,0,0,1,.58-.24c5.36-1.38,10.91-2.6,15.52-5.67s8.1-8.55,7-14a22.74,22.74,0,0,0-2.95-6.63,124.34,124.34,0,0,1-13.08-34c15.52,8.5,31.06,17,47.22,24.23,9.6,4.28,19.43,8.11,28.55,13.33.79.45,1.68,1.1,1.63,2a2.58,2.58,0,0,1-.67,1.35l-31.81,40.35-.37,3.24c2-.73,4,1.63,3.9,3.76s-1.3,4-2.06,6-.87,4.6.81,5.9a5.54,5.54,0,0,0,1.48-2.16c2.92,4.05-1.39,11,2.35,14.27.57.5,1.35,1,1.38,1.72a2.3,2.3,0,0,1-.43,1.18,17.55,17.55,0,0,0-.13,17,11.68,11.68,0,0,1,1.12,2.27c.8,2.7-.92,6.33,1.3,8.07l1,4.64c4.27,8.39,5.55,17.92,7.49,27.13a180.39,180.39,0,0,0,18.76,50.24c6.24,11.22,13.83,21.93,23.91,29.89l7.08-1.4c5.32,5.52,12.65,8.76,20.14,10.42s15.21,1.84,22.87,2l10.7.24,1,4.42c1.67,3.78,7.6,4.66,10.31,1.53,1.34-1.56,1.84-3.71,3.21-5.24,2-2.27,5.38-2.63,8.29-3.51,6.62-2,11.8-7.15,16-12.65a82.59,82.59,0,0,0,16.54-53.54l-.4-5.24q1-13.92,2-27.83a94.06,94.06,0,0,0,.22-16.44,73.39,73.39,0,0,0-2.5-12.06c-2.75-9.91-6.45-19.75-12.66-28l-1.66-3.57a41.77,41.77,0,0,0-15.66-10.91c2-2.74-.11-6.49-2.15-9.18,1.2.49,2.59-.58,2.89-1.85a5.94,5.94,0,0,0-.72-3.75,30.22,30.22,0,0,0-6.37-9,6.31,6.31,0,0,1-2.2-3.11c-.31-1.71,1-3.49.4-5.12s-2.54-2.18-4.24-2.28-3.59,0-4.89-1.14-1.51-3.18-2.17-4.85a8,8,0,0,0-6.85-4.91c-1.61-.08-3.26.34-4.8-.12-2.79-.83-4-4-6.1-6.06a3.81,3.81,0,0,0-3.1-1.29c-1.86.3-2.84,2.6-4.67,3-2.3.5-3.94-2.15-4.64-4.39s-1.75-5-4.09-5.19l-1.24-3.47c-3.18-2.56-7.52-3.12-11.6-3.09s-8.22.56-12.23-.2c3-3,7.1-4.29,11-5.9a65.88,65.88,0,0,0,17.25-10.56l3.94-3.11c7.76-3.1,17,.39,24.69-2.89a2.74,2.74,0,0,1,2.08-.33,4,4,0,0,1,.92.72,5.82,5.82,0,0,0,2.78,1.08,27.72,27.72,0,0,0,16.55-2.2,17.56,17.56,0,0,1,4.16-1.69c1.06-.21,2.24-.19,3.08-.86a7.81,7.81,0,0,0,1.25-1.64c2.6-3.57,8.29-2.61,12-5.05l4.25-2.57c3.82-3,7.72-6.09,10.32-10.2s3.73-9.49,1.62-13.87c-1.59-3.29-4.91-6-4.76-9.69.13-2.91,2.45-5.19,3.49-7.9,1.35-3.51.93-8.3,4.25-10l4.17-6.92c3.94-6.23,5.84-13.59,6.52-20.93s.2-14.75-.28-22.11c-.29-4.37-.85-9.28-4.3-12l-2.94-4.47c-3.91-6.67-12.07-9.36-17.93-14.41-6.69-5.76-10.58-14.82-18.53-18.66l2.47-4.3c-.8-7.34-5.65-14.31-12.59-16.83a28.17,28.17,0,0,0-8.31-1.4,67.32,67.32,0,0,0-43.93,14l-4,4.32q-5.15,5.24-10,10.7c-4.28,4.8-8.44,9.79-11.35,15.52a84.07,84.07,0,0,0-3.49,8.24l-5.74,15-5.28,4.72q-2.36,40.64-4.73,81.28c-.16,2.82-.32,5.64-.32,8.46,0,6.38,1,13.12,5.06,18a2.92,2.92,0,0,1,.84,1.57c.08,1.19-1.32,1.87-2.48,2.14-10.66,2.46-21.59-2-31.64-6.29,6.13-6.12,11.39-13.92,11.46-22.58a28.22,28.22,0,0,0-3.09-12.41c-5.38-11.11-15.95-19.4-27.83-22.74s-24.91-1.88-36.13,3.29l-.82-4.54a15.41,15.41,0,0,0-.52-8.18,45.94,45.94,0,0,0-3.4-7.54l-1.65-9.13c.4-8.37.69-17.22-3.33-24.58-1.28-2.34-3-4.59-3.26-7.25l-.36-.53-7.06-.7a.67.67,0,0,1-.41-.13.65.65,0,0,1-.15-.45c0-2,1.61-3.48,2.28-5.31.75-2,.24-4.29-.28-6.39a35.38,35.38,0,0,0-2.55-7.75,11.92,11.92,0,0,0-5.64-5.68l-.89,1.2c1.26,1.35-.12,3.55-1.7,4.49s-3.6,1.69-4.13,3.45c-.32,1.08,0,2.37-.66,3.28s-1.67,1-2.34,1.67c-1.36,1.39-.36,3.72-.79,5.61a6.76,6.76,0,0,1-2,3.12,10.87,10.87,0,0,1-4.31,3,4.39,4.39,0,0,1-4.81-1.28c-1.07-1.49-.71-3.53-1-5.35s-2.14-3.78-3.7-2.81a3.41,3.41,0,0,0-.91,1l-4.75,6.6a13.63,13.63,0,0,0-2.69,5.17c-.38,1.92.28,4.19,2,5.08l.47.83c.11.73.21,1.47.31,2.21a.86.86,0,0,1-.12.74.78.78,0,0,1-.51.19c-1.3.1-2.72-.35-3.85.3a4.23,4.23,0,0,0-1.15,1.16,22.35,22.35,0,0,0-4,16.5l-1.14-.15c-3.07-1.63-6.94-1.09-10,.57s-5.45,4.3-7.71,7a171.62,171.62,0,0,0-11.35,15,19.74,19.74,0,0,0-2.61,4.87c-1.31,4.1,0,8.68-1.2,12.8-1.32,4.41-5.35,7.54-7,11.83l-1.56-.6c-11.63.48-22.43,5.8-32.83,11h-1.25c-3.94-4.33-1.41-11.5-3.8-16.85-2.9-6.46-12.32-8.93-13.43-15.92l-.75-.48a42.82,42.82,0,0,0-13.41,43.36l-1.87,4.78c-4.36,4.86-10.44,7.74-16.35,10.49l-5.17,2.42-.33-1.86c-.37-1.89-3.08-3-2.69-4.93a5.16,5.16,0,0,1,1.18-1.85c1.37-1.84,1.34-4.33,1.15-6.61-.66-7.93-2.62-15.76-2.54-23.72s2.62-16.47,9.06-21.15l3.18-4.49c6.8-12.07,20-18.76,31.89-25.81s23.29-15.09,32.06-25.71,14.7-24,14.31-37.81l-11.54-4.88q-6.59-4.58-13.3-8.93a4.6,4.6,0,0,0-3-1.05l-.07-.28,4.2-28.58c1.75-11.88,3.5-23.88,2.7-35.86-.77-11.35-4-22.84-11-31.79l.15-.56a78,78,0,0,0-1.32-41.33,24.93,24.93,0,0,0-2.85-6.49c-1.49-2.22-3.55-4-5.19-6.11-4.48-5.74-5.49-13.45-5.44-20.73,0-4.48.17-9.58-3.07-12.69-1.53-1.47-3.61-2.23-5.21-3.64-2.83-2.5-3.64-6.61-3.56-10.38s.86-7.55.53-11.32l.65-2.49a103.34,103.34,0,0,1,17.81-38C549,988.6,555.46,982,559.75,974s6.12-18.12,1.79-26.12l-.22-2.83a16.65,16.65,0,0,0-6.27-2.29l-4.84-2.38c3.94-11,6.81-22.89,4.42-34.34-.66-3.18-1.73-6.39-1.32-9.62.71-5.51,5.66-10.59,3.94-15.88l3.7-4.34a55.84,55.84,0,0,0-5-32.21c-2-4.12-5-8.34-9.51-9.25a11.69,11.69,0,0,0-8.7,2.19,34.48,34.48,0,0,0-6.55,6.45L522,854.18l-2.4,6.12A167.18,167.18,0,0,1,510,879.64c-5.55,9.13-13,17.6-14.82,28.13l-.38,6.75c.39,5.09.77,10.24-.14,15.26-.59,3.3-1.74,6.48-2.45,9.76-1.32,6.09-1.09,12.4-.85,18.62.19,5.11.44,10.43,2.87,14.92a3.91,3.91,0,0,1,.7,2.1,3.46,3.46,0,0,1-.5,1.34l-5.8,10.59-1.83,4.37c-8.89,21.06-17.88,42.54-20,65.3-.54,5.79-.63,11.62-.71,17.44q-.3,20.9-.61,41.81l-5.36-.22c-2.59-2.24-4.8-4.92-7.62-6.85s-6.55-3-9.68-1.66a11.2,11.2,0,0,0-4.34,3.92c-2.81,3.92-4.48,8.51-6.13,13q-3.16-7.54-6.73-14.92a31.9,31.9,0,0,0-4.83-7.85c-4.1-4.51-10.3-6.46-16.29-7.59l-2.62-2.73A150.2,150.2,0,0,0,388.37,1059l-2.73-2.12c-2.67-.85-3.76-3.92-5.32-6.25a13.39,13.39,0,0,0-5.94-4.89,33.33,33.33,0,0,1-3.27-1.32c-2.86-1.56-4.38-4.75-5.61-7.76l-.14-4.91a77.39,77.39,0,0,1,1.11-31.53c2.12-8.63,5.72-16.86,7.41-25.57,1.31-6.73,1.45-13.62,1.56-20.46.12-7.85.2-15.74-1-23.5a73.35,73.35,0,0,0-13.26-32.16,23.81,23.81,0,0,0-5.71-5.92c-6.79-4.54-16-2.41-23.38,1.05a78,78,0,0,0-29.54,24.19c-3.48,4.7-6.44,9.83-10.45,14.1l-1.52-6.57A435.7,435.7,0,0,1,271,866.79l.17-2.06a26.68,26.68,0,0,0-4.91-8.58A32.86,32.86,0,0,1,262.9,852a19.87,19.87,0,0,1-1.7-4.16q-2.16-6.63-4.31-13.28a13.83,13.83,0,0,1-.9-4.14,19.53,19.53,0,0,1,1-5,26.89,26.89,0,0,0,.23-12.58l-.7-5.77a106.81,106.81,0,0,0-5.68-9.78c-1.53-2.34-3.33-4.75-6-5.63a13.86,13.86,0,0,0-5.56-.24,219,219,0,0,1-36.58.24l-5.57,2.22a122.84,122.84,0,0,0-18.32,61.39l-17.41-.41c-2.57-.06-5.28-.09-7.52,1.18-4.11,2.32-4.9,7.82-5,12.55-1.11,33.73,6.23,67.18,15.68,99.58q7.13,24.46,15.87,48.41l-24.59-.19c-8.18-.07-16.85,0-23.85,4.24s-11.15,14.3-6.3,20.89l5.61,4.91a250.31,250.31,0,0,0,24.49,63.38c3,5.5,6.48,11.09,11.77,14.48,11.75,7.53,28.16,1.78,40.63,8.06a4.15,4.15,0,0,1,1.93,1.59c.9,1.68-.52,3.66-2,4.84-8.28,6.52-20.54,5.58-29.14,11.67-5.56,3.94-8.84,10.29-11.63,16.5-1.7,3.78-3.33,7.8-2.95,11.92.3,3.32,1.88,6.37,3.56,9.25,16.51,28.45,47,49.88,79.91,50.06,11.7.06,23.41-2.46,35-1.13s23.87,8,26.71,19.32l-3.27,4.27c-21.88,3.32-44.41,6.86-63.36,18.3-17.31,10.46-30.21,26.65-44.9,40.55a210.18,210.18,0,0,1-54,37c-10.85,5.16-22.28,9.46-31.82,16.78-23.6,18.13-30.69,50.83-29.91,80.59.12,4.43.41,9,2.32,13,5.53,11.56,21,13.16,33.85,13.15H159.4c4.31,0,9.09.17,12.22,3.13,5.63,5.34,1.85,14.67-2.15,21.32-21.77,36.21-42,74.17-50.55,115.56s-4,87,20.42,121.51c4.52,6.37,10.72,12.81,18.53,12.76,3.85,0,7.5-1.66,10.89-3.49a91.6,91.6,0,0,0,28.47-23.91l-.1,6.33a185,185,0,0,0,.05,22.71c.61,9.56,2,19.25,6.22,27.86s11.54,16.07,20.79,18.53,20.31-1.12,24.91-9.52l19,36.83c2.26,4.39,4.83,9.08,9.31,11.14a4.53,4.53,0,0,1,2.39,1.64,4,4,0,0,1-.2,3c-5.52,16.05-4.76,33.9.51,50s14.89,30.62,26.49,43c6.33,6.76,13.52,13.1,22.24,16.2,8.1,2.88,17.19,2.84,24.75,6.92l3.05,4.34a111.4,111.4,0,0,0,5.45,67.55c6.29,15.22,16.31,29.26,30.16,38.17,24.41,15.7,55.85,13.23,84.72,10.19-11.43,18.43-37.35,25-46.25,44.82-8.29,18.44,3.22,41.38,21.05,50.91s39.65,8.19,59.08,2.6c2.49-.72,5.32-1.46,7.53-.11,4,2.45,2.07,8.62-.33,12.68q-17.06,28.88-34.1,57.75c-17.52-9.74-41.92-4.38-53.74,11.81-2.38,3.25-4.78,7.19-8.76,7.8-2.21.34-4.42-.49-6.56-1.18a60.94,60.94,0,0,0-33.73-1c-2.82.73-5.86,1.65-8.56.56-2.31-.92-3.83-3.1-5.21-5.17-6.3-9.42-12.85-20.95-8.54-31.43,1.43-3.46,3.92-6.35,6-9.44,4.19-6.14,7-13.62,5.84-21-2-12.92-14.79-20.72-24.87-29.05s-18.7-23.34-10.72-33.69c2.53-3.28,6.31-5.33,9.4-8.09,12.51-11.12,9.95-34.53-4.67-42.69,9.57-13.66,6.78-35-6.94-44.46s-36-3.22-41.39,12.55c-7.15,20.78,13.85,43.54,6.8,64.36-3.76,11.13-14.7,18.5-19.17,29.36-5.22,12.7.6,28.9,12.72,35.37,4.83,2.58,10.5,3.8,14.49,7.55,7.09,6.67,5.91,18.32,2.32,27.37s-9.1,17.8-9,27.54c.05,7.4,1.82,17.59-5.25,19.79-4.19,1.31-8.48-1.88-11.05-5.45s-4.4-7.84-8-10.37c-5-3.54-12-2.64-17.51,0s-10.27,6.68-15.72,9.48c-1.87,1-4,1.79-6,1.43-3-.51-4.94-3.19-6.68-5.62-5.66-7.91-12.09-15.54-20.44-20.53s-18.94-7-27.94-3.34c-11.28,4.62-17.79,18.51-14.13,30.13,4,12.72,17.16,19.84,29.16,25.67,20.24,9.82,40.78,19.75,62.9,23.86,16.31,3,33.31,2.86,49,8.27,20.79,7.17,37,23.3,55.43,35.33A156.76,156.76,0,0,0,468.9,2380l5,.46,62.57-2c3.36-.1,7.19,0,9.4,2.51a25.71,25.71,0,0,1,2.34,4.05,15.08,15.08,0,0,0,7.45,5.74c9,3.69,19.42,2.59,28.57,6A30.91,30.91,0,0,1,601,2411.94l3.75,3.41c9.14,16.56,18.59,34.51,16.46,53.31-.7,6.23-2.68,12.3-2.93,18.56a11.23,11.23,0,0,0,1,6c2,3.66,6.83,4.54,11,5,5.12.56,10.37,1.07,15.37-.17s9.79-4.59,11.33-9.51c2.06-6.55-1.84-14.49,2-20.16,2.2-3.24,6.27-4.58,9.37-7,6.41-5,8.09-14.25,6.24-22.14s-6.61-14.74-11.21-21.41-9.27-13.6-10.92-21.54a31.41,31.41,0,0,1,4.08-22.82c8.26-13.16,24.6-18.11,38-25.94,4.14-2.42,8.41-5.63,9.4-10.33.67-3.14-.24-6.56,1-9.51,2.38-5.63,10.16-5.64,16.28-5.46a75.18,75.18,0,0,0,37.65-8.94,9.55,9.55,0,0,0,3.43-2.65c2.8-3.92-.85-9.11-4.28-12.5l25.69-6.07c4.64-1.09,9.5-2.3,13-5.5,5.89-5.36,6.22-14.35,6.12-22.31l3.18-4.57c11.49-9.29,21.32-20.42,31.09-31.5l20,108.52c1.44,7.81,2.9,15.66,5.58,23.13,1.6,4.44,3.63,8.75,4.78,13.32,2.85,11.34.1,23.32,1.31,34.95.54,5.12,2.09,10.55,6.15,13.72,3.42,2.67,8,3.25,12.34,3.41,7.11.25,15.16-.86,19.43-6.55,3.89-5.19,3.53-12.86,8-17.58,4.91-5.22,13.28-4.54,20.32-3.2s15.11,2.71,20.73-1.74l5.54-2.65c3.61-3.48,9.12-4.68,12.28-8.59,2.81-3.48,3.12-8.34,2.83-12.81-2.59-40.37-42-71.62-43.25-112.06-.31-10.18,1.89-20.25,3.19-30.35,1.35-10.5,1.73-21.1,2.11-31.68q.57-16.28,1.16-32.55l.85-13.88a14.51,14.51,0,0,1,1.26-10.14c.69-1.3,1.57-2.49,2.13-3.84,1.73-4.16.14-8.89.16-13.4,0-5.12,2.17-10,5-14.29a22.65,22.65,0,0,1,5.42-6,11.16,11.16,0,0,1,7.64-2.26l3.73-.77a85.7,85.7,0,0,0,17.13-2.9,48,48,0,0,1,5.13-1.27,37.7,37.7,0,0,1,7.36-.17l21.62.94,4.24-.9a8.27,8.27,0,0,0,5.21-5.14,3.35,3.35,0,0,1,.7-1.44,2.87,2.87,0,0,1,1.56-.59,77.41,77.41,0,0,0,8.53-1.94c2.41-.69,5.24-2.08,5.29-4.58a2.91,2.91,0,0,0,3.39-4.69l4.71-.6a5.61,5.61,0,0,0,2.82-.88,6.33,6.33,0,0,0,1.59-2.3,26.63,26.63,0,0,1,7-8.62l.24-.07a13,13,0,0,0,12.2-3.27,7.07,7.07,0,0,0,2.12-3.63,3.72,3.72,0,0,0-1.44-3.76c2.69-1.81,3.42-5.8,2-8.7a9.37,9.37,0,0,0-8-4.76,14.52,14.52,0,0,0-9,3.1,12.11,12.11,0,0,0-3.76,4.2l-.21.31a12.85,12.85,0,0,0-12.4,3.07c-1.58,1.53-2.94,3.6-5.11,4-1.49.27-3.12-.35-4.5.27-.72.33-1.26.95-2,1.35a7.17,7.17,0,0,1-4.06.56l-18.69-1.12-4.37-.79q-14.28-.46-28.46-2.33a122.42,122.42,0,0,0,.86-46.14,123.2,123.2,0,0,1,27.74,13.5l3.51,1.61,4.18.74,2.4-.34c4.77,2.45,9.6,4.92,14.83,6.12a65.06,65.06,0,0,0,13.38,1.19l37.43.74a103.34,103.34,0,0,0,14.83-.41,104.5,104.5,0,0,0,13.85-3l3.58-1.19c6.39-3.14,13.32-6.87,15.84-13.52a28.15,28.15,0,0,0,1.34-9C1130.88,1995.06,1131.12,1985.43,1128.85,1976.22ZM463.19,1408.1c-2,2.75-2.49,6.29-2.51,9.68s.35,6.8-.12,10.16l-4.06,2a30.65,30.65,0,0,0,6.1,24.23,20.4,20.4,0,0,0-6.05,8.5A37.88,37.88,0,0,0,431,1446.57l-4.28,1.87-13.5-3.51a78.14,78.14,0,0,0-10.09-2.16c-7.28-.88-14.9.28-21.8-2.21a19.71,19.71,0,0,1-13.17-17.39l19-11.34c10.53-.55,20.21-5.66,29.65-10.36s19.59-9.19,30.11-8.39a17.61,17.61,0,0,1,9.76,3.37l.4,1.19a22.74,22.74,0,0,0,6.47,9.19Zm133.36,17.29a254.87,254.87,0,0,1-32.78,33l-3.65,4.42-19,23.08c-3.32,4-6.66,8.1-9,12.78s-3.46,10.11-2.19,15.17c.85,3.39,2.78,6.57,2.84,10.07l-1.54,4.69q.51,7.92,1,15.84c0,.59,0,1.32-.54,1.57a1.46,1.46,0,0,1-1.18-.14,26.48,26.48,0,0,1-5.56-3.32l-6.32-2.53a19.8,19.8,0,0,1-10.32-17.42l-1.05-3.93a14.27,14.27,0,0,0-2.38-8.06c-1.83-2.75-4.71-5-5.23-8.3-.72-4.49,3.28-8.17,6.57-11.31a63.45,63.45,0,0,0,19.3-40.67l2.64-7,1-3.11c2.33-5.39,4.74-10.84,8.5-15.36A55.53,55.53,0,0,1,545,1418c11.64-9.74,24.59-18.45,39.26-22.34.59,3,.17,7.59-1.54,10.13-.63,1.9-1.24,4.35.31,5.61s4.69.75,5,2.72l.76,3.7a10.86,10.86,0,0,0,6.83,5c.61.14,1.33.3,1.57.88S597,1424.88,596.55,1425.39Z"></path>
    <path data-name="1a" data-official="" data-plain="Stamen flower" data-loc="" d="M1834.23,2581.28a22,22,0,0,0-10.53-10.59c-3.79-1.77-8.21-2.53-11.23-5.43a15.14,15.14,0,0,1-3.56-5.94,29.28,29.28,0,0,1-.88-16.81c.67-2.74,1.74-5.4,2.1-8.2,1.15-8.94-5.07-18.26-1.77-26.65,2-5,6.92-8.22,12-10,6.34-2.22,13.15-2.64,19.85-3,13.3-.61,28.13-.29,37.75,8.89,8.84,8.43,10.52,21.88,10,34.09-.19,4.67-.6,9.48.89,13.91,1.14,3.37,3.31,6.32,4.44,9.7a17.1,17.1,0,0,1-2.69,15.65c-2.76,3.53-7,6.09-8.41,10.35-1.32,4,.36,8.48,3,11.77,3.12,3.89,7.87,7.51,7.37,12.46-.36,3.51-3.37,6.15-6.49,7.8-5.36,2.84-11.48,3.83-17.51,4.45a164.37,164.37,0,0,1-29.76.33c-2.89-.23-6-.65-8.07-2.69s-2.51-5.47-1.91-8.41,2-5.63,3.06-8.44a35.36,35.36,0,0,0,1.94-16.87Z"></path>
    <path data-name="1b" data-official="" data-plain="Stamen and Scale" data-loc="" d="M1765.61,2568.23c-3.86-5.09-4-11.94-5.57-18.14-2.3-9.36-7.83-17.63-10.66-26.85s-2.09-20.81,5.74-26.44c3.72-2.68,8.46-3.54,13.05-3.72,3.3-.13,6.77.1,9.59,1.83,5.65,3.46,6.47,11.15,9.38,17.11,2.29,4.69,6.07,8.5,8.75,13,4.6,7.7,5.72,17.21,4,26-1.25,6.25-3.89,12.49-2.85,18.79.7,4.25,3,8,4.81,11.95a52.6,52.6,0,0,1,4.58,26.49c-.39,4.33-1.46,8.86-4.53,11.93a21.19,21.19,0,0,1-7,4.13c-12,5-26.29,7.9-37.47,1.32a15.6,15.6,0,0,1-4.79-4.13,16.91,16.91,0,0,1-2.81-8.2,25.7,25.7,0,0,1,2.67-15.34c2.29-4.15,5.92-7.37,8.81-11.13s5.13-8.56,3.93-13.15Z"></path>
    <path data-name="1c" data-official="" data-plain="Pistil flower" data-loc="" d="M1653.8,2573.29c-5.37-4.11-11.16-8.89-12.13-15.58-.94-6.49,3-12.56,6.21-18.26a113.23,113.23,0,0,0,11.82-29.94c1.22-5.12,2.13-10.47,4.93-14.92,5.7-9.09,19.4-11.87,28.2-5.73s11.1,17.9,14.67,28a24.22,24.22,0,0,0,3.33,6.74c4.11,5.36,11.94,7.59,14.52,13.83,1.06,2.57,1,5.44,1.43,8.2.61,4.28,2.25,8.36,3,12.63s.55,9-2.15,12.41-7.18,4.66-10.28,7.62c-6.69,6.41-4.75,18-10.25,25.45-2.77,3.76-7.13,6-11.48,7.69-11.58,4.5-24.1,6-36.5,6.78a11.68,11.68,0,0,1-5.17-.46c-2.44-1-4-3.56-4.4-6.16a23.6,23.6,0,0,1,.41-7.85q2.05-12.33,4.09-24.64Z"></path>
    <path data-name="1d" data-official="" data-plain="Section of Ovary" data-loc="" d="M1467.11,2623.06a49.11,49.11,0,0,0,4.15-23.28c-.35-5.13-1.67-10.49-5.32-14.12-4.77-4.75-12.26-5.36-19-4.75s-13.54,2.14-20.1.61c-8.18-1.91-14.59-8.32-19.28-15.29-9.49-14.1-13.64-31.26-14.48-48.23-.91-18.27,2.19-37.56,13.41-52,11.7-15.08,30.3-22.7,46.06-33.46,2.32-1.59,4.78-3.53,5.25-6.3.84-5-5-8.35-7.34-12.85-3.6-6.84,1.52-15.25,7.87-19.65a37.59,37.59,0,0,1,41.23-.38c2.17,1.44,4.31,3.17,6.89,3.52a13.87,13.87,0,0,0,5.14-.6c7.28-1.78,14.68-3.61,22.17-3.25s15.22,3.24,19.7,9.26c4.74,6.38,5,15.37,2,22.72-2.17,5.27-5.82,11.42-2.53,16.06,2.07,2.92,6,3.65,9.44,4.56,13.2,3.47,24.33,12.78,32.09,24s12.44,24.28,16,37.46,6,27.55,1.1,40.33c-4.28,11.23-13.86,19.88-24.69,25.1S1564,2579.86,1552,2581c-4.48.44-9.39.93-12.56,4.13-3.43,3.45-3.66,8.84-3.84,13.7a234.36,234.36,0,0,1-2.34,25.65c-.56,3.74-1.32,7.72-4,10.42-2.29,2.33-5.61,3.28-8.8,4-12.61,3-25.58,4-38.51,4.86-5.11.32-10.62.51-14.9-2.3s-6-9.85-2-13Z"></path>
    <path data-name="2" data-official="Corylus Avellana" data-plain="Hazel-nut" data-loc="Britain" d="M1057.82,2331.19l-33.91,50.54c-12.08,18-24.55,37.09-26.11,58.72-.65,9,.23,19.14-6,25.64-2.86,3-6.82,4.66-10.67,6.2-4,1.61-8.19,3.18-12.54,3.29s-9-1.52-11.37-5.14c-1.57-2.36-2-5.27-2.44-8.07l-2.65-17.8c-.87-5.85-1.75-11.82-.77-17.66,1.44-8.65,6.81-16.27,8.21-24.93l1.83-8.47c3.61-3.48,9.12-4.68,12.28-8.59,2.81-3.48,3.12-8.34,2.83-12.81l3.17-16.54c.61-5.91,3.45-11.37,6.89-16.21s7.51-9.21,11-14c2.68-3.63,5-7.49,7.5-11.27a208.8,208.8,0,0,1,51.1-53.9l7.21,2.6a87.34,87.34,0,0,1,6,39.78Zm445.82-922.08a66.36,66.36,0,0,0,4.16-19.53c.13-2.25-.16-5-2.22-5.93-1.47-.66-3.17,0-4.64.64a328.68,328.68,0,0,0-39.49,20.78l-8,1.82-12.69,8.74a30.11,30.11,0,0,1-7.3,4.08,10.19,10.19,0,0,1-8.14-.38c-4.78-2.7-6.34-10.29-11.8-10.88-3.66-.39-6.59,2.77-9.08,5.47a75.87,75.87,0,0,1-21,16c-1.47.76-3.27,1.46-4.69.62-1.83-1.1-1.57-3.76-2.16-5.81-1-3.5-5.07-5.45-8.68-5s-6.74,2.76-9.2,5.44-4.44,5.77-6.91,8.44c-2.83,3.06-6.24,5.51-9.19,8.44s-5.51,6.57-5.92,10.71c-.47,4.65,1.65,10-1.31,13.64l-3.72-7.59a21,21,0,0,1-6.39,14.53,64.85,64.85,0,0,0-1-14.92c-3.79,1.37-2.19,8.92-6.15,9.64l-3.76-5.41a13.67,13.67,0,0,0-.66,6.25l-8.09-2.93c-8.21,1.59-15.57-7-23.88-6.17-6.5.63-11,6.61-14.57,12.06L1257,1487.28l-2.41,3.4a62,62,0,0,0-4.09,24.67c-.3-1.67-2.51-2.4-4.09-1.77a7.93,7.93,0,0,0-3.51,3.59,44.83,44.83,0,0,0-6.48,18.13,38.3,38.3,0,0,1-3.42-14,13.82,13.82,0,0,0-5.54,6.2l-3.39-25.58a13.25,13.25,0,0,0-9.78,11.58l-4.75-.66a105.18,105.18,0,0,0-2.8,23.84l-5.18-.67c.07,4.85,0,10.09-2.84,14-1.45,2-3.55,3.5-4.84,5.6a17,17,0,0,0-1.94,6.92,109.37,109.37,0,0,0-.64,18l-.92.84a8.71,8.71,0,0,1-4-1.91,21,21,0,0,1-4.71-4.41c-2.79-3.8-3.31-8.76-3.51-13.47s-.23-9.59-2.27-13.84l-3-.87c-4.18,1.24-6.71,5.38-8.84,9.18-2.32,4.16-4.65,8.32-6.57,12.68-2.15,4.87-3.84,10.06-7.19,14.21-2.3,2.84-5.33,5.12-7.1,8.32-2.54,4.57-2,10.14-2,15.37a84.25,84.25,0,0,1-2.22,20.2l1.27,6.25c4,9.63,8,19.43,9,29.8.08-.9-1.29-1.31-2-.75a3.29,3.29,0,0,0-.92,2.46,28.58,28.58,0,0,0,.73,8.55l.53,1.57-3-.87c-5.09,6.54-5,15.57-4.79,23.85l-6.82-3.25c2.29,16.52,4.92,33.87,15.15,47v1a22.1,22.1,0,0,1-7-.44c2.09,8.44,7,15.85,11.9,23.07l9.24,13.72.77,1.29a14.73,14.73,0,0,0-5.78,2.79l-.9,1.2,7.07,22.2-5.09-.85a48.47,48.47,0,0,0,3.24,10.56,151.8,151.8,0,0,0,38.19,54.74c6.52,5.93,13.94,11.9,16.06,20.45l5.5,10.59c7.57,7.66,11.09,19.5,20.65,24.48a33.68,33.68,0,0,0,6.63,2.41,55.84,55.84,0,0,0,15.14,2.45,25,25,0,0,0,14.52-4.29l4.09.32a369.59,369.59,0,0,0-8.61,99.75,113.15,113.15,0,0,0,1.13,12.34c1.12,7.06,3.35,14,3.37,21.15s-2.78,14.93-9.12,18.24l-2.54,3.15c-1,4.39.86,8.86,1.84,13.26a32.6,32.6,0,0,1,.79,6.68l-.19,1.32c.71,4.36-2.33,8.37-5.32,11.62a149.59,149.59,0,0,1-12.19,11.83l-6-6a35.24,35.24,0,0,0,4.66,7.74l-5.53,4.56-5.63-6.12a38.65,38.65,0,0,1,4.3,7.42l-4.35,3.51a1.79,1.79,0,0,1-.92.48,1.84,1.84,0,0,1-1.18-.52l-6-4.65a34,34,0,0,0,4.6,6.67l-4.94,4a.92.92,0,0,1-.61.27.88.88,0,0,1-.46-.31l-5.65-5.77a28.4,28.4,0,0,0,3.9,8.09l-4,2.93-3.35-6.68a42.36,42.36,0,0,1,1.11,8.45,10.87,10.87,0,0,0-12.44-4.66l-3.78.29q-26.85,22.28-54.67,43.36l-2.31,2.28a11.34,11.34,0,0,0-5.82,7.81c-.63,3.32.26,6.71,1.18,10q3.12,11,6.81,21.82l4.65,2.6c3,1.24,6.2-.86,8.71-2.87,18.1-14.5,35-30.62,54.46-43.21l2.71-2.93a12.38,12.38,0,0,0,2.77-8.19,36.84,36.84,0,0,0-1.35-8.71l6.88,5.16L1225,2166a.7.7,0,0,1,.25-1.14l2.73-2a1,1,0,0,1,.73-.27,1,1,0,0,1,.51.38l4.63,5.42a31.6,31.6,0,0,0-3.23-7.07,22.27,22.27,0,0,0,4-2.91l6.22,6.76-3.93-8.73,7.57-5.56a1,1,0,0,1,.54-.23.9.9,0,0,1,.54.32l7.81,7.65c-1.65-3.53-3.45-7-5.37-10.38a28.81,28.81,0,0,1,10.29-7.22,8.9,8.9,0,0,1,3.74-.86c2.81.11,5,2.35,7.63,3.44l2.57,0c5.74-1,9.71-6.05,13.49-10.48a103.33,103.33,0,0,1,20-18l3.68.2a345,345,0,0,0,10.31,45.45c2,6.54,4.14,13.11,7.83,18.85,6.07,9.48,15.75,16,25.69,21.33a57.5,57.5,0,0,0,14.7,5.9,66.32,66.32,0,0,0,13.51,1.11c6.45.08,12.91.1,19.33-.42a115.23,115.23,0,0,0,61.43-24.12l5.44-5.07c6.08,25.46,16,50.94,34.49,69.43,5.95,5.94,12.68,11,19.41,16.07,8.94,6.69,18.1,13.38,28.58,17.23,12.52,4.6,26.14,4.88,39.47,5.11,6.68.11,13.48.21,19.85-1.8,5.55-1.75,10.5-5,15.09-8.62,11.58-9.06,21.44-20.48,27.85-33.72,5.16-10.65,8-22.23,10.82-33.72,3.15-12.86,6.32-26.07,4.57-39.19a10.12,10.12,0,0,1,0-4.1c.66-2.31,2.94-3.69,5-5A60.3,60.3,0,0,0,1699,2122l-.29-4c-2.86-1.51-6.26-1.33-9.49-1.26-6.38.14-12.85-.28-18.93-2.23s-11.77-5.55-15.41-10.8c-1.75-2.53-3-5.4-5-7.77s-5-4.23-8-3.69l-.91,2c-.07,2.95-.15,6-1.3,8.71-1,2.38-2.75,4.37-4.2,6.52s-2.63,4.69-2.24,7.26c-.38-5.19-4.57-9.19-6.65-13.95-3.12-7.15-1.28-15.52-3.28-23.07-1.22,1.17-3.34.78-4.56-.38a9.87,9.87,0,0,1-2.26-4.45l-1.1-.53a23.08,23.08,0,0,0-17.2-9.35,139.06,139.06,0,0,0,13.33-8.69l-.15-3.56a20,20,0,0,1-.22-4.95l1-1.15c2.58-1.11,5.32-2.35,6.84-4.72a20.39,20.39,0,0,0,1.65-3.87,24.31,24.31,0,0,1,5.93-9,11.86,11.86,0,0,0-6.29,2.45,9.63,9.63,0,0,1,3-6.64,29,29,0,0,1,6-4.38l5.19-3.12-.07-.77c-3.63-3.55-7.69-7.31-12.75-7.79,5.67-3.74,11.49-8.42,12.91-15.06a5.12,5.12,0,0,0,0-2.46,4,4,0,0,0-4.14-2.49,9,9,0,0,0-4.7,2.09,20.08,20.08,0,0,1,8.16-18.18l-.22-.18c-1.83-2.41-5.38-2.43-8.39-2.23-.35-.84.3-1.75.93-2.42a44.2,44.2,0,0,1,11.77-9,49.09,49.09,0,0,0-14.32.15,173.77,173.77,0,0,1,16-14.54l-.14-.57-18.81.3c-2.77,0-5.68.12-8.07,1.53a194.56,194.56,0,0,1,18-19.09c2.15-2,4.41-4,5.5-6.73s.9-5.57.71-8.39l-3.85-2.9q-7.39-13.74-14.81-27.46c-3-5.56-6.3-11.43-11.91-14.34-6.58-3.42-14.52-1.86-21.76-.23l-4.51-4.37c-.85-2.82.68-5.76,2.16-8.31l10.9-18.79a14.9,14.9,0,0,0,2.18-5.21,5,5,0,0,0-2-5,7.13,7.13,0,0,0-3.75-.71,94.13,94.13,0,0,0-17.57,1.67c-1.22.23-2.85.27-3.27-.89-.32-.87.34-1.77,1-2.46,4.68-5.15,9.9-9.83,14-15.48,3.93-5.44,6.79-11.81,11.93-16.13,3.74-3.13,8.44-5,12.15-8.14s6.31-8.63,4-12.93l-.27-3.9a7.35,7.35,0,0,0-3.88-4.62,39.58,39.58,0,0,0-5.81-2.23,32.54,32.54,0,0,1-10-5.75c-2-1.66-3.87-4-3.33-6.53.37-1.71,1.78-3,3.16-4,11.67-9.2,26.52-15.13,34.64-27.58,1.21-1.85,2.25-3.82,3.53-5.62,2.17-3.06,5.1-5.76,6.1-9.38.81-2.94.22-6.06,0-9.11s.11-6.43,2.26-8.59c.93-.93,2.17-1.61,2.72-2.8s-.35-3-1.6-2.67l-2.28-1.73c.87-3.33-1.7-6.68-4.73-8.32s-6.54-2.14-9.71-3.48-6.22-4-6.29-7.46a8.81,8.81,0,0,1,.77-3.49c2.55-6.31,8.67-11.61,8.11-18.4-.45-5.32-5.06-10.44-3-15.38,1.28-3.13,5-5.08,5.37-8.44a2.7,2.7,0,0,0-1.28-2.81,3.29,3.29,0,0,0-1.68-.16,28.7,28.7,0,0,0-8.89,2.19c-3.15,1.34-6.86,3.23-9.73,1.37-3.21-2.08-2.85-7.47-6.13-9.44-1.81-1.09-4.17-.75-6-1.7-2.57-1.31-3.41-4.51-4-7.33l-1.73-8.56-.67-5.49c-.54-3.68-2.64-7.43-6.17-8.59-4.45-1.46-9.35,1.61-13.9.5a4.47,4.47,0,0,1-2.37-1.29c-1.37-1.54-.94-3.92-.48-5.93a96,96,0,0,0,2.77-26,16.06,16.06,0,0,0-1.36-6.63,6.44,6.44,0,0,0-5.3-3.76,28,28,0,0,0-3.62.54,3.33,3.33,0,0,1-3.26-1.19c-.64-1-.25-2.39.09-3.56a34,34,0,0,0,1.27-12c-.25-3.46-1.12-7-3.48-9.59a204.69,204.69,0,0,1-15,15.64,43.5,43.5,0,0,0,.66-12.42,15.08,15.08,0,0,1-9.1,11.64l-1.68-2.44a33.5,33.5,0,0,1-9.67,7.89l-.93-.4-2.9-2.57a98.75,98.75,0,0,1-21.62,22.47l-1.86-4.6c-12.39,6.66-25.54,13.51-39.6,13l-.41-.93c18.07-6.92,32.68-20.72,44.94-35.68l-.66,0a31,31,0,0,0-11.56.38l-.15-.55c7.83-5.33,15.52-11.39,20.17-19.65l-.26-.28a18.73,18.73,0,0,0-8.37,1c-2.71.86-5.33,2-8.09,2.64l-.29-.18c4.41-4.48,9.2-8.56,14-12.63l5.82-5,.07-.73a22.39,22.39,0,0,0-14.22,2.79c3.73-8.56,13.22-13.4,17.44-21.74a124.06,124.06,0,0,0-21.69,8.46l-.18-.08c9.07-5.23,15.25-14.33,23.82-20.34l-.43-.51a82.3,82.3,0,0,1-11.64.23,27.53,27.53,0,0,1-11.16-3l-.07-.47c2.44-3.33,6.71-4.61,10.62-5.93a105.22,105.22,0,0,0,17.33-7.61l-.4-.69a18,18,0,0,0-10.82-7.07Z"></path>
    <path data-name="2a" data-official="" data-plain="Stamen flower" data-loc="" d="M1268.05,2582.72c1.06-5.39,2-11.37-.85-16.06-1.55-2.53-4-4.33-6.18-6.4-6.91-6.7-10.19-16.42-11.1-26a32.08,32.08,0,0,1,1-13.09c1.38-4.18,4.25-8,8.29-9.81a22.38,22.38,0,0,0,3.6-1.62,13.56,13.56,0,0,0,3.45-4.06c4.39-6.6,10.46-12.41,18-14.83s16.67-.81,21.83,5.21c3.14,3.68,4.53,8.51,5.51,13.25a4.65,4.65,0,0,0,.78,2.07,5.38,5.38,0,0,0,2.17,1.27c6.94,3,9.88,11.22,10.85,18.7,1.68,13.09-.89,27.57-10.4,36.72-3.26,3.14-7.22,5.55-10.11,9s-4.53,8.63-2.23,12.53c3.25,5.53,11.49,4.91,16.85,8.43s7,10.72,6.82,17.15a16,16,0,0,1-1.85,7.74c-2.8,4.63-8.78,6-14.15,6.72-14.44,1.8-29.07,1.26-43.61.72-1.67-.06-3.51-.19-4.71-1.36a6.08,6.08,0,0,1-1.44-3.58c-1.75-13.12,7.94-25.08,9.34-38.25Z"></path>
    <path data-name="2b" data-official="" data-plain="Pistil flower" data-loc="" d="M1191.36,2582.53a17.89,17.89,0,0,1-5.86-19.79c1.55-4.29,4.78-8,5.55-12.46.55-3.24-.24-6.57.1-9.84.58-5.61,4.35-10.32,8.14-14.5a13.61,13.61,0,0,1,4.47-3.67,12.24,12.24,0,0,1,5.38-.69,47.55,47.55,0,0,1,23.93,7.64,11.39,11.39,0,0,1,4.16,4.05c1.25,2.43.84,5.41-.17,7.95s-2.56,4.83-3.62,7.35c-1.64,3.87-2.06,8.14-2.46,12.33-.5,5.25-1,10.81,1.35,15.56,1.93,4,5.58,6.89,7.77,10.74,2.35,4.14,2.84,9.05,3.07,13.8.22,4.37.25,8.76.11,13.13-.08,2.5-.26,5.12-1.55,7.26a12.86,12.86,0,0,1-5.43,4.44c-10,5.06-21.64,5.38-32.85,5.6-4.68.09-9.49.16-13.88-1.48a10.26,10.26,0,0,1-4.56-3,11.24,11.24,0,0,1-2-5.28,26.48,26.48,0,0,1,1.25-12.79c2.5-7,8-13.16,7.86-20.57Z"></path>
    <path data-name="3" data-official="Fagus sylvatica" data-plain="Common Beech" data-loc="Britain" d="M1029.18,2246.08c2,5.57,4.07,11.47,3,17.3s-6.4,11.34-12.24,10.31c-3.39-.6-7-3.18-9.9-1.33-1.78,1.13-2.3,3.45-2.74,5.52a90.32,90.32,0,0,1-4.74,15.33c-1.2,2.92-2.68,5.91-5.29,7.69-2.35,1.59-5.29,2-8.12,2.11-6.41.28-13.48-.84-17.69-5.68-5.12-5.89-4.07-14.86-1.84-22.35s5.37-15.29,3.44-22.86c-1-4.08-3.47-7.63-5.43-11.35a107.79,107.79,0,0,1-6.18-15.24c-6.81-19.58-13.64-39.25-17.56-59.61l-4.18-.45.85-13.88a14.51,14.51,0,0,1,1.26-10.14c.69-1.3,1.57-2.49,2.13-3.84,1.73-4.16.14-8.89.16-13.4,0-5.12,2.17-10,5-14.29a22.65,22.65,0,0,1,5.42-6,11.16,11.16,0,0,1,7.64-2.26l4.11,4.79a38.11,38.11,0,0,0,12.54,10.91c3.24,1.76,6.92,3.2,8.95,6.27a13.75,13.75,0,0,1,1.91,6.06c1,8.5-1.56,17.16-.24,25.61,1.25,7.91,5.73,14.87,9.74,21.81C1011.78,2198.81,1020.6,2222.48,1029.18,2246.08Zm385-1023.42a46.13,46.13,0,0,1-3.92,10.35c-5.78,12.16-11.67,24.5-20.6,34.57-4,4.49-8.66,8.55-14.3,10.56a39.09,39.09,0,0,1-13.49,1.76c-6-.05-12.47-.74-17.14-4.55l-3.59-2.93-9.74-11.3a141.82,141.82,0,0,1-47.94,28.06c-5.09,1.76-10.48,3.24-15.82,2.5a359.72,359.72,0,0,0,25.63,50.9,14.51,14.51,0,0,0,3.59,4.44,5.11,5.11,0,0,0,5.4.63c2.73-1.59,2.39-5.5,2.9-8.62,1-5.88,6.12-10.39,11.79-12.24s11.79-1.5,17.72-.93c10.09,1,20.33,2.56,29.38,7.12,10.86,5.47,19.41,15,24.62,26a43.51,43.51,0,0,1,4.49,16.52c.7,15.33-9.17,28.89-18.56,41l-6.69,3.15c-3.61.45-6.74,2.76-9.2,5.44s-4.44,5.77-6.91,8.44c-2.83,3.06-6.24,5.51-9.19,8.44l-7.52-1.68-9.94.45a46.62,46.62,0,0,1-9.74-.23c-6.22-1-11.77-4.51-17.88-6.09-4.24-1.1-8.67-1.26-13-2.1s-8.67-2.55-11.4-6c-2.4-3-3.23-7-3.82-10.78a139.12,139.12,0,0,1-1.65-21.76,21.93,21.93,0,0,1,1.24-8.46c2.24-5.3,7.89-8.17,13.11-10.56,2.28-1,5-2.79,4.56-5.26a5.83,5.83,0,0,0-1.49-2.64c-13.86-17-24.49-36.27-36.13-54.84a5.09,5.09,0,0,0-2.09-2.19,5.8,5.8,0,0,0-3.42.09,22.83,22.83,0,0,1-15.64-2.42c-1.51-.84-3.22-1.89-4.82-1.27-2.49,1-2.07,4.57-1.28,7.12a106.12,106.12,0,0,1,1.6,56.73l-3.71,3.77c-1.6,3.83-2.07,8-3.16,12a39.68,39.68,0,0,1-8.73,16l.31.69c3.31,2.8,4.68,7.26,5.35,11.54,1.62,10.17.24,20.57-1.44,30.72-.67,4-1.4,8.06-3.15,11.72s-4.68,6.93-8.53,8.22l-.41.65a41,41,0,0,1-9,35.16,6.12,6.12,0,0,0-1.45,2.19,7.44,7.44,0,0,0,.06,2.78c.46,4.12-1.14,8.17-2.71,12-3.13,7.68-6.28,15.39-10.43,22.57l-3.39,6.63c-4.18,1.24-6.71,5.38-8.84,9.18-2.32,4.16-4.65,8.32-6.57,12.68-2.15,4.87-3.84,10.06-7.19,14.21-2.3,2.84-5.33,5.12-7.1,8.32l-4.16.85-3.33-.37-3.81-.2a10.26,10.26,0,0,0-3.48,3.36,3.83,3.83,0,0,0-.7,1.9c0,1.22.82,2.26,1.45,3.31,1.94,3.23,1.82,7.25,1.65,11a28.76,28.76,0,0,1-.51,4.81l-2.87,1.63c-5.84-5.18-12.18-10.43-19.86-11.81a2.94,2.94,0,0,0-1.64,0,3.26,3.26,0,0,0-1,.73l-2.62,2.53a3.31,3.31,0,0,0-1,1.34,3.49,3.49,0,0,0,.12,1.69,27.89,27.89,0,0,1-3.87,21.27,44.73,44.73,0,0,0-9.36-8.76,4.56,4.56,0,0,0-2.43-1,4.76,4.76,0,0,0-3,1.52l-3.06,2.64a1.58,1.58,0,0,0-.57.74,1.64,1.64,0,0,0,.41,1.29,24.72,24.72,0,0,1,3.34,19.2l-2.89,2.41c-1.12,2.49-4.92.73-7.59,1.29s-4,3.56-4.63,6.21c-1.94,8-1.43,16.44-1.34,24.71a241.49,241.49,0,0,1-15.87,88.77l-3.94,7.84a275.25,275.25,0,0,1-20.53,40.17,15.59,15.59,0,0,0-2.53,5.57c-.35,2.18.27,4.41.1,6.6s-1.62,4.65-3.83,4.62l-9.48,1.53-2.94-2.43a131.78,131.78,0,0,0-40.41-3.45l-4.41.55a11.51,11.51,0,0,0-7.54,4.16,9.54,9.54,0,0,1-2.14,2.33,6.75,6.75,0,0,1-2.25.77l-20.16,4.3-1.18-1.19c.12-2.18-1.72-4.09-3.8-4.74l1.92-6.93c-2.2-17.91,1.6-36.16,8.36-52.89s16.39-32.12,26.31-47.2c16.42-24.94,33.87-49.43,55-70.52l-5.8-2.08a78.06,78.06,0,0,1-39.46-25c-11.62-13.78-18.05-31.13-23.42-48.35a159,159,0,0,1-4.53-17c-5.77-29.52,2.93-60.3,17.28-86.74,2.05-3.77,4.27-7.55,7.42-10.47s7.42-4.9,11.69-4.42l3.69-.73a43.55,43.55,0,0,1,15.1-2.28,68.16,68.16,0,0,0-12.4-21.15c3.82-.43,7.51,1.42,10.81,3.41a93.29,93.29,0,0,1,10.79,7.62l.87-8.37a41.94,41.94,0,0,0,16,2.86,2.14,2.14,0,0,0,1-.2,2.32,2.32,0,0,0,.81-1.16,19.79,19.79,0,0,1,2.88-4.68.91.91,0,0,1,1.61-.11l9.8,8.93q.3-6.21.61-12.42a66.61,66.61,0,0,0,9.38,11q1-5.53,2-11.07a4.8,4.8,0,0,1,.65-1.94c1.47-2.07,5.43-1,6.63-3.25l2.3-4.12c2.86-1.7,4.38-5.12,4.57-8.45a25.12,25.12,0,0,0-1.91-9.74c-4.15-11.56-10.69-22.39-12.68-34.52-.61-3.74-.76-7.67.51-11.25a23.19,23.19,0,0,1,5.32-8,71.26,71.26,0,0,1,16.53-12.47c2.47-1.41,5.06-2.78,6.87-5s2.64-5.47,1.17-7.9l-2.47-3.7c-1.76-2.55-2.72-5.59-4.47-8.15s-4.77-4.68-7.78-3.95c-2.72.65-4.37,3.28-6.21,5.37-5.48,6.23-14.45,8.62-22.67,7.54a15.47,15.47,0,0,1-6.48-2.09,20.23,20.23,0,0,1-4.75-4.84c-4.5-5.76-9-11.54-12.62-17.91-2.81-5-5-10.29-8-15.21-6.77-11.37-17.13-20.34-23.38-32-1.63-3-3-6.27-5.29-8.83-2.1-2.35-4.86-4-7.44-5.82a57.47,57.47,0,0,1-16.95-19l-3-3.43q-17-32.14-33.36-64.58l.67-.85c6.26-8.09,6.42-19.61,3.08-29.27a47.33,47.33,0,0,0-9.67-16.32c-5.22-5.77-11.76-10.14-18.28-14.39-2.56-1.67-5.49-4.21-4.63-7.15l1.26-4.12q.95-9.09,1.88-18.17a73,73,0,0,0,.52-7.39l1.47-6.54a30,30,0,0,1,12.43-12.86l.75-.39c1.06-5.7,2-11.48,1.72-17.27s-1.86-11.65-5.38-16.26a2.79,2.79,0,0,1-.85-2.13,2.68,2.68,0,0,1,.75-1.14,25.89,25.89,0,0,0,2.63-30.41l.51-2.7c.21-4.16.75-8.93,4.2-11.25,3-2,7.12-1.28,10.28.46s5.77,4.35,8.85,6.24a10.39,10.39,0,0,0,6.12,1.87c3.38-.27,6-3,9-4.55a14.25,14.25,0,0,1,13.24.15c2.42,1.33,4.38,3.33,6.62,4.95s5,2.87,7.68,2.35l5.66,2.13c-.65,4.72.93,9.56,3.54,13.56a48.09,48.09,0,0,0,9.82,10.33c3,2.53,6.29,5,10.15,5.81s8.45-.65,10.1-4.22c1,2.78,4.78,3.33,6.65,5.62a10.81,10.81,0,0,1,1.61,3.37,18.12,18.12,0,0,0,3.59,6.65,7.5,7.5,0,0,0,6.83,2.5l.19-1.09c-1.18-4.9-2.37-10-1.52-14.93.68-4,2.67-7.71,4.07-11.56a40.74,40.74,0,0,0,2.06-19.3c-.57-4.19-1.79-8.27-2.3-12.47s-.27-8.68,1.9-12.31l4.43-1.88a141,141,0,0,0,15-21.18,51.9,51.9,0,0,1,5.79-8.88c2.36-2.64,5.53-4.75,9.06-5,2.74-.2,5.47.71,8.2.43,4.3-.44,7.71-3.68,10.76-6.74l2.4-2.69a9.93,9.93,0,0,0,5.34,1,2.68,2.68,0,0,0,1.44-.47c1-.83.59-2.46.2-3.73a17.09,17.09,0,0,1,.48-11.31,5.6,5.6,0,0,1,1.68-2.47c1.44-1.06,3.5-.77,5.1,0s3,2,4.58,2.78a14.05,14.05,0,0,0,9.26.57c7.72-1.81,14.08-7.22,19.5-13s10.29-12.2,16.64-17c.93-.69,2.06-1.38,3.17-1a4,4,0,0,1,1.86,1.72c3.19,4.56,7.23,9.24,12.74,10.06l3.85,2.87a22,22,0,0,0,20.93,5.5,7.82,7.82,0,0,1,4-.49,6.46,6.46,0,0,1,2.26,1.32l18.38,14.32c5.39,4.2,10.84,8.44,17.05,11.3s13.32,4.29,19.93,2.57c.94-.25,2.06-.51,2.77.15a2.78,2.78,0,0,1,.63,1.23,110.38,110.38,0,0,0,14.23,29.09c2.35,3.4,5,6.75,8.54,8.83,5.49,3.21,12.25,2.92,18.6,2.54l1.91,2.81a56.79,56.79,0,0,0,21.67,42c1.77,1.38,3.79,2.92,4,5.15a7.9,7.9,0,0,1-1.38,4.47q-4.5,8.2-9,16.41c-1.89,3.45-3.83,7.08-3.85,11,0,4.37,2.31,8.35,4.57,12.08a61,61,0,0,0,5.66,8.3c2,2.33,4.4,4.51,5.21,7.47a11.52,11.52,0,0,1-.75,7.12c-2.4,6.1-7.45,10.7-11,16.19s-5.43,13.24-1.27,18.3a22.69,22.69,0,0,1,2.57,3.08c1.7,3.1-.17,7-2.67,9.51s-5.68,4.42-7.47,7.47l-.77,4.86c4.39,1.13,9,.08,13.55.62,7.94,1,14.49,6.71,19.4,13s8.79,13.46,14.43,19.13c7.43,7.48,17.36,11.84,26.12,17.71,14.17,9.5,25.7,23.89,28.77,40.66A31.63,31.63,0,0,1,1414.22,1222.66ZM1118,1264.94l1.66,4.62a23.41,23.41,0,0,1,2,10.9c-.06,3.74-.53,7.46-.42,11.19a.81.81,0,0,0,.16.55.79.79,0,0,0,.52.17l7.16.64,1.82,1,41.68,1.32c-5.69-2-6.06-10.83-11.47-13.51a11.22,11.22,0,0,0-5.63-.84,32.84,32.84,0,0,0-18.21,6.74,21.78,21.78,0,0,1,32-9.33,8.87,8.87,0,0,0-4.53-4.63l-1.44-2c-2.12-2.77-4-5.7-5.93-8.63l-1.56-2.39a14.31,14.31,0,0,1-2.31-4.76,8.74,8.74,0,0,1,.49-4.87,3,3,0,0,0,.29-1.24,2.49,2.49,0,0,0-.6-1.23,27.69,27.69,0,0,0-5.44-4.92q-4-3-8.22-5.65c-3.52-2.24-7.34-4.38-11.51-4.55l-2.61,1.18a36.39,36.39,0,0,0-6.29,14.44A89.55,89.55,0,0,0,1118,1264.94Zm10.26,40.5.76,2.74q2.46,5.33,4.94,10.64a17.89,17.89,0,0,0,3.44,5.52l3.75-1c.16-4.43,4.09-7.67,7.67-10.28,3.26-2.38,6.59-4.8,10.43-6.07A308.23,308.23,0,0,1,1128.3,1305.44Zm61.34,128a13,13,0,0,1,0-11.35c-3.7-1-4.71-5.81-4.4-9.63a2.38,2.38,0,0,0-.29-1.73c-.39-.46-1.07-.53-1.61-.8-1.45-.69-1.77-2.61-1.64-4.21s.51-3.3-.19-4.74c-.6-1.24-1.88-2-2.62-3.18-1.87-2.95.4-6.85-.2-10.3-.58-3.27-3.6-5.51-5.08-8.49-1.76-3.53-1.2-7.71-1.65-11.63-.73-6.43-4.19-12.17-6.78-18.11s-4.29-12.91-1.52-18.76l-.25-.42c-2,1.35-4.89.41-6.25-1.54a8.72,8.72,0,0,1-.93-6.88,27.39,27.39,0,0,0-6.88,14.64l.81,3.44c8.46,10.45,13.46,23.25,17.48,36.08q2,6.48,3.76,13.06l.45,4-2.22,14.25c-.7,4.55-1.47,9.25-4,13.09-3.28,5-9,7.71-14.58,9.84a136.25,136.25,0,0,1-48.46,8.94c10.35,9.74,20.7,19.78,27.92,32,7.49,12.71,11.25,27.21,14.92,41.5,2.91.79,6.07-.53,8.24-2.62s3.56-4.85,4.89-7.56q12-24.17,24-48.34l3.33-4A42.31,42.31,0,0,1,1189.64,1433.48Z"></path>
    <path data-name="3a" data-official="" data-plain="Stamen flower" data-loc="" d="M870.63,2570.21a17.06,17.06,0,0,0-2.87-13.07c-2.92-4-7.43-6.55-11.23-9.76a37.93,37.93,0,0,1-13.2-26.4c-.48-8.35,2.18-17.2,8.47-22.7,3.21-2.81,7.16-4.61,11.13-6.16a114.3,114.3,0,0,1,48.39-7.49,23.32,23.32,0,0,1,8.08,1.58c5.49,2.44,8.58,8.26,10.79,13.84a108.78,108.78,0,0,1,7.39,33.14c.35,5.67.21,11.56-2.22,16.69-3,6.31-9,10.55-14.29,15.08s-10.48,10.3-10.72,17.28c-.17,5.22,2.53,10.17,6,14.1s7.66,7.1,11.4,10.76c4.26,4.18,8.07,10.58,5.19,15.81-1.63,3-4.93,4.52-8.06,5.77a135.28,135.28,0,0,1-44.34,9.56c-3.73.16-7.56.15-11.07-1.14s-6.65-4.12-7.37-7.78c-.85-4.34,1.75-8.5,3.84-12.39a64.4,64.4,0,0,0,7.17-38.11Z"></path>
    <path data-name="3b" data-official="" data-plain="Section of Ovary" data-loc="" d="M730.18,2558.25a409.22,409.22,0,0,1,21.14-43c2.13-3.76,4.41-7.58,7.89-10.13a21.94,21.94,0,0,1,11.56-3.75A35.65,35.65,0,0,1,801,2515.07c4.68,6.16,7.18,13.64,10.5,20.61,5.22,11,12.56,20.88,17.88,31.82a39.21,39.21,0,0,1,4.22,13.17c.45,4.61-.51,9.5-3.43,13.1-3.48,4.28-9.26,6.28-12.52,10.73-6,8.21-1.17,21.27-7.84,28.94-3.36,3.86-8.73,5.17-13.76,6.12a253,253,0,0,1-27,3.59c-7.57.59-15.42.81-22.49-2a6,6,0,0,1-4.51-5.84,28,28,0,0,1,.49-10.28c.71-3,1.94-6,2.48-9s.32-6.5-1.6-9c-3.11-4-9.09-4-13.57-6.3-5.64-2.94-8.51-9.63-8.65-16s2-12.52,4.17-18.5Z"></path>
    <path data-name="3c" data-official="" data-plain="Section of Fruit" data-loc="" d="M624.41,2570.8a115.4,115.4,0,0,0-8.81-38.27c-1.66-4-3.56-7.86-4.23-12.08s.09-8.94,3.11-12c2.75-2.74,6.84-3.64,10.72-3.85,14.31-.78,28.41,6,42.62,4.17,8.24-1,15.91-4.91,24.15-5.92,3.65-.45,7.68-.22,10.55,2.09,3.77,3,4.28,8.53,4.28,13.38a176.89,176.89,0,0,1-5.82,45.21c-2.36,8.94-5.65,18.07-12.36,24.43-3.47,3.29-8,6.19-8.85,10.9-.62,3.65,1.27,7.18,2.67,10.6a42.54,42.54,0,0,1,3,12.11c.38,4,.13,8.28-1.92,11.76a17.82,17.82,0,0,1-5.8,5.69c-11.32,7.36-25.93,6.38-39.38,5.09-4.64-.45-9.79-1.16-12.73-4.78-3.28-4-2.37-10.08-.15-14.8s5.56-8.93,6.92-14c1.58-5.88.25-12.15-1.73-17.9s-4.63-11.32-5.78-17.3Z"></path>
    <path data-name="4" data-official="Castanea vesca" data-plain="Common Chestnut" data-loc="England" d="M1118,1264.94l1.66,4.62a23.41,23.41,0,0,1,2,10.9c-.06,3.74-.53,7.46-.42,11.19a.81.81,0,0,0,.16.55.79.79,0,0,0,.52.17l7.16.64,1.82,1,41.68,1.32c-5.69-2-6.06-10.83-11.47-13.51a11.22,11.22,0,0,0-5.63-.84,32.84,32.84,0,0,0-18.21,6.74,21.78,21.78,0,0,1,32-9.33,8.87,8.87,0,0,0-4.53-4.63l-1.44-2c-2.12-2.77-4-5.7-5.93-8.63l-1.56-2.39a14.31,14.31,0,0,1-2.31-4.76,8.74,8.74,0,0,1,.49-4.87,3,3,0,0,0,.29-1.24,2.49,2.49,0,0,0-.6-1.23,27.69,27.69,0,0,0-5.44-4.92q-4-3-8.22-5.65c-3.52-2.24-7.34-4.38-11.51-4.55l-2.61,1.18a36.39,36.39,0,0,0-6.29,14.44A89.55,89.55,0,0,0,1118,1264.94Zm10.26,40.5.76,2.74q2.46,5.33,4.94,10.64a17.89,17.89,0,0,0,3.44,5.52l3.75-1c.16-4.43,4.09-7.67,7.67-10.28,3.26-2.38,6.59-4.8,10.43-6.07A308.23,308.23,0,0,1,1128.3,1305.44Zm22.21,884.15-2.31,2.28a11.34,11.34,0,0,0-5.82,7.81c-.63,3.32.26,6.71,1.18,10q3.12,11,6.81,21.82l4.65,2.6,5.87,10.12a307.5,307.5,0,0,1,19.26,130.5c-1.23,17.34-4.34,35.54-15.46,48.9-5.42,6.52-12.71,11.86-15.71,19.8-2.71,7.18-1.39,15.27-3.18,22.73A29.34,29.34,0,0,1,1129,2485.8a31.76,31.76,0,0,1-26-.72c-12.09-5.84-20.42-19-33.6-21.59-5.79-1.15-12.15-.13-17.37-2.91-4.78-2.55-7.55-7.91-8.3-13.28s.24-10.81,1.34-16.12c6.27-30.26,16.25-60.4,14.41-91.26l-1.66-8.73,11.61-28.61a87.34,87.34,0,0,0-6-39.78l-7.21-2.6-2.63-7.3c-10.49-18.64-12.47-40.67-15.3-61.87a642.26,642.26,0,0,0-16.91-83.66l-4.22-9.91,4.24-.9a8.27,8.27,0,0,0,5.21-5.14,3.35,3.35,0,0,1,.7-1.44,2.87,2.87,0,0,1,1.56-.59,77.41,77.41,0,0,0,8.53-1.94c2.41-.69,5.24-2.08,5.29-4.58a2.91,2.91,0,0,0,3.39-4.69l4.71-.6a5.61,5.61,0,0,0,2.82-.88,6.33,6.33,0,0,0,1.59-2.3,26.63,26.63,0,0,1,7-8.62l.24-.07a13,13,0,0,0,12.2-3.27,7.07,7.07,0,0,0,2.12-3.63,3.72,3.72,0,0,0-1.44-3.76c2.69-1.81,3.42-5.8,2-8.7a9.37,9.37,0,0,0-8-4.76,14.52,14.52,0,0,0-9,3.1,12.11,12.11,0,0,0-3.76,4.2l-.21.31a12.85,12.85,0,0,0-12.4,3.07c-1.58,1.53-2.94,3.6-5.11,4-1.49.27-3.12-.35-4.5.27-.72.33-1.26.95-2,1.35a7.17,7.17,0,0,1-4.06.56l-18.69-1.12.14-7a105.93,105.93,0,0,1,0-18.25l-.88-8.92,4.18.74,2.4-.34c4.77,2.45,9.6,4.92,14.83,6.12a65.06,65.06,0,0,0,13.38,1.19l37.43.74a103.34,103.34,0,0,0,14.83-.41,104.5,104.5,0,0,0,13.85-3l3.58-1.19,1.5,8.22a562.2,562.2,0,0,0,12.12,61.8,6.15,6.15,0,0,0,1.31,2.87c1.92,2,5.15.59,7.76-.24,8.17-2.61,17.34,1.84,22.48,8.7s7,15.62,7.89,24.15a135.83,135.83,0,0,1-1.72,39.84Zm-103.85-396.88c5.53-7.18,9.41-15.46,13.63-23.48,7.07-13.43,15.2-26.29,23.31-39.12,4.8-7.59,10.15-15.65,18.51-18.91l5.2-1.71a479.28,479.28,0,0,0,31-64.9l4.21-6.2c3.17,7.92,6,16,6.8,24.47.08-.9-1.29-1.31-2-.75a3.29,3.29,0,0,0-.92,2.46,28.58,28.58,0,0,0,.73,8.55l.53,1.57-3-.87c-5.09,6.54-5,15.57-4.79,23.85l-6.82-3.25c2.29,16.52,4.92,33.87,15.15,47v1a22.1,22.1,0,0,1-7-.44c2.09,8.44,7,15.85,11.9,23.07l6.16,9.15-1.22.71c-5.12,4.92-10.56,10.46-11.29,17.53-.33,3.21.37,6.48-.13,9.66a13.09,13.09,0,0,1-5.57,8.73l-3.15,10.37-1,24.09a75.45,75.45,0,0,1-1.59,14.71c-1.88,7.7-6.11,14.57-9.59,21.69a118.24,118.24,0,0,0-11.14,64.69l-1.18,6.84-4,5.17c-5-1-9.4-4.2-12.93-7.93s-6.4-8-9.64-12c-13.28-16.35-32.41-26.87-51.85-35-6.09-2.54-12.39-4.91-19-5.24l.21-2.64a70.42,70.42,0,0,0,.32-7.82l3.12-2.6a39.8,39.8,0,0,0,19.51-19.44c1-2.3,2-4.88,4.25-6.08l1.25-2c-5.06-1.33-10.31-3-14-6.68-1.2-1.2-2.19-2.59-3.35-3.81-4.36-4.6-10.69-6.65-16.74-8.53l9.48-1.53c2.21,0,3.66-2.42,3.83-4.62s-.45-4.42-.1-6.6a15.59,15.59,0,0,1,2.53-5.57Zm226.53-366.33c2.73,3.43,7.1,5.13,11.4,6s8.74,1,13,2.1c6.11,1.58,11.66,5.07,17.88,6.09a46.62,46.62,0,0,0,9.74.23l9.94-.45,7.52,1.68c-3,2.94-5.51,6.57-5.92,10.71-.47,4.65,1.65,10-1.31,13.64l-3.72-7.59a21,21,0,0,1-6.39,14.53,64.85,64.85,0,0,0-1-14.92c-3.79,1.37-2.19,8.92-6.15,9.64l-3.76-5.41a13.67,13.67,0,0,0-.66,6.25l-8.09-2.93c-8.21,1.59-15.57-7-23.88-6.17-6.5.63-11,6.61-14.57,12.06L1257,1487.28l-2.41,3.4a62,62,0,0,0-4.09,24.67c-.3-1.67-2.51-2.4-4.09-1.77a7.93,7.93,0,0,0-3.51,3.59,44.83,44.83,0,0,0-6.48,18.13,38.3,38.3,0,0,1-3.42-14,13.82,13.82,0,0,0-5.54,6.2l-3.39-25.58a13.25,13.25,0,0,0-9.78,11.58l-4.75-.66a105.18,105.18,0,0,0-2.8,23.84l-5.18-.67c.07,4.85,0,10.09-2.84,14-1.45,2-3.55,3.5-4.84,5.6a17,17,0,0,0-1.94,6.92,109.37,109.37,0,0,0-.64,18l-.92.84a8.71,8.71,0,0,1-4-1.91,21,21,0,0,1-4.71-4.41c-2.79-3.8-3.31-8.76-3.51-13.47s-.23-9.59-2.27-13.84l-3-.87,3.39-6.63c4.15-7.18,7.3-14.89,10.43-22.57,1.57-3.84,3.17-7.89,2.71-12a7.44,7.44,0,0,1-.06-2.78,6.12,6.12,0,0,1,1.45-2.19,41,41,0,0,0,9-35.16l.41-.65c3.85-1.29,6.77-4.57,8.53-8.22s2.48-7.71,3.15-11.72c1.68-10.15,3.06-20.55,1.44-30.72-.67-4.28-2-8.74-5.35-11.54l-.31-.69a39.68,39.68,0,0,0,8.73-16c1.09-4,1.56-8.2,3.16-12l5.75,3.47a159.28,159.28,0,0,1,11.77,34.69c1.4,6.5,2.5,13.34,6.43,18.7a2.23,2.23,0,0,0,1.09.93,2.45,2.45,0,0,0,1.67-.34,49.35,49.35,0,0,1,20.1-4.56Zm-103.58-19.19,2.22-14.25-.45-4q-1.73-6.57-3.76-13.06c-4-12.83-9-25.63-17.48-36.08l-.81-3.44a27.39,27.39,0,0,1,6.88-14.64,8.72,8.72,0,0,0,.93,6.88c1.36,2,4.29,2.89,6.25,1.54l.25.42c-2.77,5.85-1.06,12.83,1.52,18.76s6,11.68,6.78,18.11c.45,3.92-.11,8.1,1.65,11.63,1.48,3,4.5,5.22,5.08,8.49.6,3.45-1.67,7.35.2,10.3.74,1.17,2,1.94,2.62,3.18.7,1.44.32,3.14.19,4.74s.19,3.52,1.64,4.21c.54.27,1.22.34,1.61.8a2.38,2.38,0,0,1,.29,1.73c-.31,3.82.7,8.6,4.4,9.63a13,13,0,0,0,0,11.35,42.31,42.31,0,0,0-3.82,16.6l-4.63-.45a14,14,0,0,1-2.54-5.11,180.68,180.68,0,0,1-6.76-27.31Zm49.74-719.51c-1.44-1.4-2.94-2.89-3.45-4.83-.4-1.5-.16-3.1-.45-4.62-1-5.2-7.41-7.75-9-12.8-.82-2.65-.15-5.64-1.25-8.19-1.21-2.79-4.28-4.41-5.55-7.17-1.59-3.42,0-7.67-1.62-11.1-1.27-2.77-4.31-4.35-5.87-7-1.27-2.13-1.43-4.71-1.51-7.17a3.73,3.73,0,0,1,.4-2.25,3.06,3.06,0,0,1,3-.91c3.87.64,6.5,4.14,8.72,7.36l23,33.35a29.74,29.74,0,0,1,3.58,6.2c1.4,3.64,1.33,7.66,1.24,11.57-.05,2.35-.13,4.79-1.22,6.87s-3.55,3.64-5.79,2.93ZM710.23,851.8c-1-2.7-2-5.41-3.25-8-1.74-3.69-3.92-7.15-5.85-10.75a92.06,92.06,0,0,1-11-43c0-1.37.09-2.91,1.1-3.82a4.57,4.57,0,0,1,2.43-.93c10.25-1.56,20.53,4,27.39,11.75s11,17.52,15,27c10.44,24.34,21.53,48.39,32.62,72.43l-12.08-9.18C742,876.19,727.29,865,711.79,855Zm513.06-60.17-6,27.52c-1,4.79-2.39,10-6.45,12.79a14.19,14.19,0,0,0-3.23,2.32c-2.42,2.94.15,7.16,1.91,10.54a23.84,23.84,0,0,1-.49,22.49l-4.81,5.91a6.46,6.46,0,0,0-2.26-1.32,7.82,7.82,0,0,0-4,.49,22,22,0,0,1-20.93-5.5l-3.85-2.87c-5.51-.82-9.55-5.5-12.74-10.06a4,4,0,0,0-1.86-1.72c-1.11-.34-2.24.35-3.17,1-6.35,4.76-11.22,11.17-16.64,17s-11.78,11.21-19.5,13a14.05,14.05,0,0,1-9.26-.57c-1.61-.78-3-2-4.58-2.78s-3.66-1.08-5.1,0a5.6,5.6,0,0,0-1.68,2.47,17.09,17.09,0,0,0-.48,11.31c.39,1.27.83,2.9-.2,3.73a2.68,2.68,0,0,1-1.44.47,9.93,9.93,0,0,1-5.34-1l-2.4,2.69c-3,3.06-6.46,6.3-10.76,6.74-2.73.28-5.46-.63-8.2-.43-3.53.26-6.7,2.37-9.06,5l-7.25,3.17c-4.85,0-10-.14-14.11-2.66a26.88,26.88,0,0,1-6.15-5.76l-5.21-6q2.91,19.65,6.11,39.26l1.44,4c-2.17,3.63-2.42,8.11-1.9,12.31s1.73,8.28,2.3,12.47a40.74,40.74,0,0,1-2.06,19.3c-1.4,3.85-3.39,7.53-4.07,11.56-.85,5,.34,10,1.52,14.93l-.19,1.09a7.5,7.5,0,0,1-6.83-2.5,18.12,18.12,0,0,1-3.59-6.65,10.81,10.81,0,0,0-1.61-3.37c-1.87-2.29-5.65-2.84-6.65-5.62-1.65,3.57-6.24,5-10.1,4.22s-7.13-3.28-10.15-5.81a48.09,48.09,0,0,1-9.82-10.33c-2.61-4-4.19-8.84-3.54-13.56l-5.66-2.13c-2.7.52-5.45-.74-7.68-2.35s-4.2-3.62-6.62-4.95a14.25,14.25,0,0,0-13.24-.15c-3,1.57-5.61,4.28-9,4.55a10.39,10.39,0,0,1-6.12-1.87c-3.08-1.89-5.68-4.5-8.85-6.24s-7.28-2.47-10.28-.46c-3.45,2.32-4,7.09-4.2,11.25l-.51,2.7a25.89,25.89,0,0,1-2.63,30.41,2.68,2.68,0,0,0-.75,1.14,2.79,2.79,0,0,0,.85,2.13c3.52,4.61,5.1,10.47,5.38,16.26s-.66,11.57-1.72,17.27l-.75.39a30,30,0,0,0-12.43,12.86l-1.47,6.54-5.23,3.36a70.35,70.35,0,0,1-13.3.09l-5-1.79q-17.73-34.22-32-70.09c-1.81-4.54-3.73-9.32-7.58-12.33l.72-.64a56.73,56.73,0,0,0,3.28-16.14l-.5-4.83c-2.7-7.63-8.27-13.85-13.71-19.84-3.65-4-7.33-8.07-11.72-11.26a18.15,18.15,0,0,1-3.89-3.29c-1.93-2.49-2.06-5.89-2.11-9l-2.89-3.21c-9.28-16.07-17-33-24.72-49.86q-3.66-8-7.33-16.06-27.4-60-54.79-120l1-2.52c2.23-13-2.44-26-7-38.35l-1.32-5.24c-1.85-7.13-4-14.77-9.78-19.37-3.73-3-8.49-4.26-12.88-6.13A49.08,49.08,0,0,1,665.86,640l-6.2-4.25a32.88,32.88,0,0,0-12.16-7.61l-.51-.58a53,53,0,0,0-4.78-9.37c-1.09-1.7-2.28-3.34-3.31-5.08a67.12,67.12,0,0,1-3-6l-8.54-18.43.52-1.49c2.86-9.85,2.22-20.51-.75-30.32s-8.15-18.84-14.24-27.09c-4.84-6.54-10.39-12.74-17.43-16.82l.5-1.2a13.76,13.76,0,0,0-7.57-14.15l-.94-.19a76,76,0,0,0-.22-13.24,25.34,25.34,0,0,0-4.71-12.23l.26-.92a18.78,18.78,0,0,0-2.92-14.2,5.28,5.28,0,0,1-1.34-2.94,19.44,19.44,0,0,1,.63-2.44c.12-.77-.06-1.55,0-2.32.32-2.21,2.86-3.38,5.09-3.46s4.49.51,6.67,0l6-.17a375.33,375.33,0,0,0,55.49,1.88c4.33-.18,8.72-.42,12.93.6,4.39,1.07,8.33,3.45,12.2,5.8l24.73,15c2.45,1.49,5,3,7.82,3.53,7.62,1.38,14.3-4.68,20.39-9.46,16.88-13.23,38.51-19.23,59.9-20.65s42.82,1.45,64.07,4.31c9.89,1.33,19.95,2.7,29,6.79,7.73,3.47,14.48,8.77,21,14.18a488.59,488.59,0,0,1,40.94,38.12c1.72,1.8,4.61,3.67,6.37,1.92a4.2,4.2,0,0,0,1-2.32c1.73-10-4.76-19.29-10.9-27.32l-.66-5.39v-3.32l-.08-4.83c-1.32-7.37-3.73-14.66-8-20.78-1.71-2.42-3.69-4.63-5.45-7-4.34-5.83-7.64-12.88-13.93-16.5l-5.86-4.94-18.9-11c-3.55-2.06-7.32-4.37-8.9-8.15-2.64-6.3,1.74-14.55-2.46-19.95-4-5.15-13.71-4.43-15.79-10.61-.46-1.37-.42-2.89-1-4.24-1.31-3.33-5.59-4.46-9.12-3.87s-6.74,2.41-10.24,3.14c-6,1.27-12.21-.72-18-2.83-14.66-5.36-29-11.65-44.24-15.26s-31.54-4.39-46.12,1.21c-4.83,1.86-9.74,4.45-14.87,3.76-2.51-.34-4.89-1.47-7.43-1.61-6-.33-10.68,4.61-15.6,8-15,10.3-35.07,7-52.87,3.32l-8.24.31c-37.17-9.53-66.59-37-99.29-57.06-10.08-6.18-20.71-11.83-29-20.25-5.31-5.4-9.54-11.82-15.21-16.83-8.53-7.54-19.72-11.36-30.83-13.81-27.1-6-55.21-4.93-82.94-3.49-19.91,1-39.82,2.26-59.73,3.47-21.59,1.32-43.19,2.64-64.68,5.09-14.34,1.63-29.25,4-41,12.44-8,5.77-13.93,14-19.69,22l-36.21,50.6-8.7,8.59c-7.47,8.52-15.07,17.26-19.35,27.75-2.66,6.52-4,13.52-6.28,20.18-5.45,15.62-16.38,28.74-28.41,40.1-3.16,3-6.55,6-10.71,7.22s-9.29.36-11.75-3.23c-2-2.83-1.82-6.54-1.8-10A99.17,99.17,0,0,0,62.69,396c-4.7-13-12.21-25.43-12.26-39.22,0-11,4.43-23.37-2.12-32.24-1.61-2.18-3.79-3.93-5.23-6.23-4.25-6.85-.57-15.91,4.47-22.2s11.57-11.87,13.79-19.62c2-6.92.32-15.07,4.58-20.87,5-6.79,16.07-7.33,20.1-14.73,2.88-5.29.92-12,2.71-17.71,1.9-6.08,7.68-10.13,13.56-12.57s12.24-3.77,17.8-6.87c5.93-3.3,10.77-8.51,17.09-11,10.29-4,22.17.12,32.76-2.95,9.4-2.72,16.61-10.76,26.09-13.2s20,1.18,29.42-1.63c6-1.77,10.85-5.9,16.17-9.1a57.89,57.89,0,0,1,51.81-3.55l7.16,2.77c7.83,5.13,18.29,3.93,27,.46s16.49-8.93,25.26-12.19c5-1.86,10.23-3,15.06-5.2,7.5-3.43,13.81-9.38,21.73-11.66,11-3.19,23.14,1.3,34.22-1.69,4.17-1.13,8-3.29,12.28-4.14s8.33-.37,12.5,0c15.72,1.59,32.16,2.62,46.82-3.29,4-1.6,7.77-3.69,11.91-4.78,10.4-2.75,21.25,1.15,31.5,4.43a292.26,292.26,0,0,0,62.7,12.75l2.06-5.08q-4.57-30.52-9.13-61c-.54-3.58-1.07-7.28-.12-10.78,4.59-16.82,34.1-11.12,42.77-26.25,1.59-2.77,2.34-6.11,4.67-8.29,2.48-2.32,6.14-2.76,9.53-2.95,47-2.73,91.9,18,138.48,24.54,10.65,1.5,21.55,2.25,32.13.29,10.13-1.87,19.64-6.17,29.55-9A106.24,106.24,0,0,1,920.33,45c7.22,3,17.13,6,21.47-.47,1.86-2.78,2.7-7.23,6-7.38,2.28-.09,3.89,2.11,5.14,4A91.3,91.3,0,0,0,988.67,72.9c3.13,1.55,6.78,2.94,10,1.67,3.51-1.37,5.42-5.42,8.93-6.78,5.84-2.26,11.26,3.91,14.51,9.25l20.21,33.18a42.79,42.79,0,0,1,13-8.45l20.83,46.16c2.86,6.33,10.31,13.74,15.23,8.82,1.73-1.73,2.1-4.4,3.46-6.44,3.36-5,11.66-4,15.58.58S1115,162,1114.77,168a90.84,90.84,0,0,1-10.12,38.46c-2.16,4.16-4.7,8.33-5.07,13s2.34,10,7,10.67c3.59.5,7.4-1.85,10.73-.44,3.49,1.48,4.23,6,4.37,9.81a243.13,243.13,0,0,1-7.8,70.84l-1.74,6.15-34.92,55.33c32.19-13.24,59-39.11,92.9-46.87,11-2.51,22.46-3,33.37-6,13.11-3.57,25-10.58,37.5-15.89,45.94-19.46,99.53-15,145.84,3.6,12.33,4.94,24.33,10.85,37.11,14.48,14.16,4,29,5.15,43.42,7.77C1512.16,337,1553,359.14,1593,381c22.41,12.22,45.1,24.64,63.65,42.18,11.37,10.74,21,23.2,30.5,35.59,18.5,24,37.06,48.17,52.51,74.29a374.71,374.71,0,0,1,25.64,52.21l-3,7.92c-3.07,10-.58,20.93,3.89,30.38s10.8,17.87,16,26.93c11.7,20.35,17.5,43.66,19.89,67s1.51,46.9.62,70.35q-1.65,43.76-3.31,87.5c-.16,4.36-.36,8.86-2.25,12.79s-6,7.16-10.3,6.67c-6.72-.77-9.43-8.88-10.88-15.49a297.32,297.32,0,0,0-13.49-44.55c-1.59-4.09-3.57-8.46-7.49-10.43-2.5-1.25-5.59-1.4-7.61-3.32-3.16-3-2.56-9.25-6.59-10.89-2-.84-4.42,0-6.57-.47-5.52-1.24-5.57-8.89-5.49-14.54A41.25,41.25,0,0,0,1717,766c-2.84-2.88-6.42-5.46-10.47-5.47-2.32,0-4.57.84-6.89.83-6.22,0-10.85-6.15-12.14-12.23s-.29-12.41-.83-18.6-3.25-12.94-9-15.2a10.73,10.73,0,0,1-10.61,3.53l-1.77-2.9c-5.15-8.8-7-16.59-15.09-22.82-3.9-3-8.94-5.77-13.55-4-2.95,1.12-5,3.87-7.85,5.21-4.32,2-9.6.34-13.25-2.72s-6.08-7.28-8.73-11.24a98.63,98.63,0,0,0-15.31-17.82c-4.19-3.83-10.22-7.47-15.17-4.71-2.09,1.15-3.58,3.31-5.85,4.05-3.43,1.12-6.89-1.43-9.61-3.8l-24.76-21.59c-9-7.84-18.75-16-30.59-17.46-3.67-.44-7.42-.2-11-1s-7.22-3-8.32-6.52l-.13-3.62c-3.25-5.92-5.51-12.33-8.7-18.28s-7.51-11.6-13.56-14.58a34.68,34.68,0,0,0-8.75-2.7l-1.78-.55c-2.38-1.22-3.54-4.07-5.84-5.42a5.87,5.87,0,0,0-7.43,1.54q-4.2-6.44-9-12.46a23.87,23.87,0,0,0-2.78-3.08,15.45,15.45,0,0,0-12-3.52,21.64,21.64,0,0,0-11.51,5.38c-1.53,1.33-3,3-3.12,5l-2.7.95a6.52,6.52,0,0,1-4.11-1.7,15,15,0,0,1-2.83-3.54l-1.5-2.53a21.62,21.62,0,0,0-16-11.7c-7.33-1.09-15.32,1.6-22-1.69-6.41-3.19-9.55-11.1-16.13-13.91-7.3-3.11-16.75,1-23.15-3.71-3.56-2.6-5-7.16-6.12-11.42s-2.34-8.83-5.66-11.73-9.53-2.83-11.31,1.21c-1,2.19-.41,4.94-1.84,6.86-2.79,3.78-8.68.26-11.67-3.36a191.86,191.86,0,0,1-21.5-32c-4.72-8.85-9.54-18.85-18.84-22.62-2.52-1-5.26-1.52-7.61-2.9-4.41-2.6-6.54-7.73-8.39-12.51l-15-39a4.88,4.88,0,0,0-5.94-4.06l-72.22,3.09c-9.69.41-19.88,1-28.07,6.17-11.16,7.06-17.35,21.92-30.25,24.73h-2.86c-3.23,4.11-6.75,8.42-11.71,10.08-2.74.92-5.71.93-8.52,1.62-4.88,1.19-9.08,4.39-12.33,8.21a71.91,71.91,0,0,0-8.08,12.68l-2.88,1.86c-1.25,2.07-4.07,2.38-6.19,3.54a10.48,10.48,0,0,0-4.28,5,31.17,31.17,0,0,0-1.87,6.38l-1.66,7.63,6.75,5.8a57.34,57.34,0,0,1,13.42,44.14,200.74,200.74,0,0,1,43.31-4.4,34.79,34.79,0,0,1,9.11.94c11.56,3.22,17.94,16.41,29.26,20.39,4.48,1.57,9.34,1.54,14.06,2s9.68,1.67,13,5c2.77,2.8,4.12,6.82,7.1,9.4l1.54,2.14c.53-.84,1.32-1.81,2.29-1.6,2,.41.89,4.41,2.84,4.87,1.15.27,2.5-1.08,3.39-.31l0,10.6a14.25,14.25,0,0,0,5.45-3.73,18.8,18.8,0,0,1-.25,5.94l5.49-1.58-1.62,4.56,7.07-.84a11.89,11.89,0,0,1-4.56,6.27l7.09-.31c-.57,3.93-4.44,6.36-7.92,8.25a37.67,37.67,0,0,1,10.93,1.25,40.25,40.25,0,0,1-10.42,5.48,25.71,25.71,0,0,1,6.14,5.1l-3,1a.71.71,0,0,0,.63.67l.69,1.39a7.56,7.56,0,0,1,1.72,2.54c8.42,17.22,9.34,37.94,20.68,53.39,2,2.71,4.32,5.31,5.22,8.55a30.66,30.66,0,0,0,1.11,4.39c.68,1.54,1.94,2.75,2.85,4.16,1.83,2.82,2.21,6.33,3.59,9.39,2,4.53,6.28,8.13,6.93,13.06l0,2.57c.51,1.31,2.17,1.63,3.52,2s2.84,1.71,2.21,3c-.23.46-.69.75-1,1.18-.67,1.05,0,2.49,1,3.22a21.09,21.09,0,0,0,3.38,1.54,3.28,3.28,0,0,1,2.14,2.78c-.09,2.1-3.18,3.23-3,5.31.13,1.6,2,2.31,3.18,3.42,2,1.91,1.71,5.17.76,7.75s-2.45,5-2.53,7.79c-.06,2.13.75,4.18,1.1,6.29a31.93,31.93,0,0,1-.12,8.11c-.54,5.82-.77,11.8.83,17.42ZM576.21,623.73l-18.78-12.52c4.53-1.62,5.08-8.28,2.4-12.26s-7.28-6.13-11.33-8.72a49.09,49.09,0,0,1-10.87-9.41c-3-3.43-6.29-7.69-10.82-7.31l-.89-.81c-4.09-4.27-9.58-6.87-14.87-9.54a301,301,0,0,1-38.39-23.06c-6.85-4.84-13.72-10.07-21.83-12.23-5.05-1.34-11.36-2.14-13.33-7l-1.36-.93-42.65-14.33c-27.91-9.38-55.93-18.81-82.32-31.87a10.79,10.79,0,0,1-3.72-2.57c-2.11-2.58-1.87-7-4.85-8.51l5.63-2.22c5.74,3.18,11.7,6.44,18.25,7a10.65,10.65,0,0,0,5.4-.71c4-1.87,5.29-6.93,8.37-10.11,4.37-4.52,11.54-4.57,17.75-3.62,15.39,2.34,30.83,8.83,46,5.42l3.8-1.39a26.29,26.29,0,0,0,7-3.4,4.63,4.63,0,0,1,2-1,4.29,4.29,0,0,1,2.17.52,125.22,125.22,0,0,0,52.54,10.11l.79.18a12.69,12.69,0,0,0,5.45,8c2.63,1.7,5.79,2.36,8.61,3.71,6.82,3.27,11.19,10.32,17.94,13.72,3.24,1.63,6.89,2.34,10.09,4,4.52,2.43,7.74,6.65,11.24,10.4s7.8,7.31,12.91,7.7c2.69.2,5.35-.5,8-.84,6.62-.83,13.36.61,19.55,3.1s11.9,6,17.59,9.5l.94,1.73c1.94,11.6,12.55,20.2,15,31.71.54,2.56.67,5.23,1.61,7.67,1.49,3.87,4.89,6.82,6.06,10.79.69,2.38.52,4.93,1,7.35s2.12,4.94,4.58,5.27l.4.8c-.62,2.76.57,5.56,1.73,8.13l12.61,28-3.7,3.64a38,38,0,0,0-15.12.93c-2.19.59-4.32,1.38-6.54,1.84a23.31,23.31,0,0,1-18.06-3.77ZM252.84,485.67c12.23.32,22.91,8,32.44,15.64,4.76,3.82,10,7.94,16.1,7.93l.05-.4c1,2.44,3.58,3.83,6,5,22.13,10.83,45.85,17.95,69,26.32a71.78,71.78,0,0,1,9.06,3.77c3.16,1.65,6.07,3.74,9.09,5.64,11,6.93,23.5,11.46,33.89,19.29l-1.86,5.52L404,575c-9.73.29-19.54.58-29,2.75-20.57,4.69-38.1,17.75-54.65,30.83l-4,2.93c-11.89,6.8-25.11,13.55-38.62,11.33-8.31-1.36-15.79-6-24.1-7.39-11.56-1.87-23.06,2.84-34.7,4.14A60.48,60.48,0,0,1,177.59,609c-9.38-6.65-17.25-16.21-28.37-19.15-7.67-2-15.88-.56-23.68-2-17.22-3.25-28.32-19.42-38.84-33.43a300,300,0,0,0-27.36-31.59C53,516.36,45.9,509.5,44.76,500.53c-.24-1.87-.11-4,1.25-5.3,1.19-1.15,3-1.33,4.66-1.4a98,98,0,0,1,51.22,11.85l4.52.45,15.65.89c6.19.36,12.46.71,18.55-.45s12.1-4,15.85-8.94c2.08-2.73,3.75-6.29,7.06-7.19,1.93-.53,4,0,5.9.53,7.79,2.08,15.83,3.77,23.88,3.19s16.19-3.66,21.45-9.78c1.68-2,3.42-4.42,6-4.53a8.41,8.41,0,0,1,2.05.26l23.59,5.19Zm510.8,601.58a11,11,0,0,0-6.36,7.42c-9.57-2.91-19.65,1.3-29.19,4.32a2.91,2.91,0,0,1-1.62.18c-1.1-.29-1.46-1.65-1.57-2.78-.74-8,2-15.84,5.68-22.94s8.28-13.68,11.71-20.9c3.15-6.6,5.4-13.89,10.53-19.11a34.23,34.23,0,0,1,5.54-4.42,53.49,53.49,0,0,1,22.9-8.92A36.77,36.77,0,0,1,805.1,1025c4.2,2.64,7.72,6.23,11.19,9.78a92.82,92.82,0,0,1,7.28,8.08c1.47,1.91,3.4,4.21,5.76,3.67l.27.72a8.09,8.09,0,0,0,.62,6.44,23.67,23.67,0,0,0,4,5.26l-.2,3.89a41.14,41.14,0,0,0-15,3.83,22.59,22.59,0,0,0-6.78,4.62c-2.36,2.48-3.92,5.78-6.79,7.65-5.18,3.37-12,.73-18.14.56-6.76-.18-13.16,2.74-19.28,5.6Zm-220.1-91.37a103.34,103.34,0,0,0-17.81,38l-.65,2.49c.33,3.77-.46,7.54-.53,11.32s.73,7.88,3.56,10.38c1.6,1.41,3.68,2.17,5.21,3.64,3.24,3.11,3.1,8.21,3.07,12.69,0,7.28,1,15,5.44,20.73,1.64,2.11,3.7,3.89,5.19,6.11a24.93,24.93,0,0,1,2.85,6.49,78,78,0,0,1,2.93,32.42l1.76-.88c15.91-9.59,34.13-14.47,52.09-19.24l39.52-10.49c10.28-2.73,20.78-5.48,31.39-4.74l.64.13c6.22-15.35,15.35-29.31,24.43-43.15,3.08-4.7,6.2-9.45,10.23-13.36,5.87-5.68,13.37-9.33,20-14.13,4.62-3.36,8.81-7.29,13.41-10.69,23.22-17.11,57.08-18.22,81.37-2.65-14-20.08-19.2-45-32.18-65.77l-4-1.72a162.77,162.77,0,0,0-83.34,3.78c-4.41,1.4-8.8,3-13.38,3.68-11.83,1.76-23.59-2.66-35.44-4.27-22.58-3.06-45.15,4.13-66.8,11.23-11.12,3.65-22.32,7.33-32.5,13.11ZM583,1261l-11.54-4.88q-6.59-4.58-13.3-8.93a4.6,4.6,0,0,0-3-1.05l-.07-.28,4.2-28.58c1.75-11.88,3.5-23.88,2.7-35.86l.54-.57,103-34.77a65.51,65.51,0,0,0-6.43,25.51c-.11,2.45-.09,5-1,7.24a18.3,18.3,0,0,1-3.53,5c-5.3,6-10.66,12.32-12.83,20-1,3.38-1.26,6.92-2.33,10.27s-3.12,6.63-6.36,8c-2.23.93-4.74.84-7.13,1.26a20.22,20.22,0,0,0-11.8,7.4,36.14,36.14,0,0,0-6.24,12.7c-1.51,5.16-2.64,11-7,14.18-3.79,2.78-8.9,2.64-13.59,2.39Z"></path>
    <path data-name="5" data-official="Salix viminalis" data-plain="Common Osier" data-loc="Britain" d="M463.19,1408.1c-2,2.75-2.49,6.29-2.51,9.68s.35,6.8-.12,10.16l-4.06,2a30.65,30.65,0,0,0,6.1,24.23,20.4,20.4,0,0,0-6.05,8.5A37.88,37.88,0,0,0,431,1446.57l-4.28,1.87-13.5-3.51a78.14,78.14,0,0,0-10.09-2.16c-7.28-.88-14.9.28-21.8-2.21a19.71,19.71,0,0,1-13.17-17.39l19-11.34c10.53-.55,20.21-5.66,29.65-10.36s19.59-9.19,30.11-8.39a17.61,17.61,0,0,1,9.76,3.37l.4,1.19a22.74,22.74,0,0,0,6.47,9.19Zm133.36,17.29a254.87,254.87,0,0,1-32.78,33l-3.65,4.42-19,23.08c-3.32,4-6.66,8.1-9,12.78s-3.46,10.11-2.19,15.17c.85,3.39,2.78,6.57,2.84,10.07l-1.54,4.69q.51,7.92,1,15.84c0,.59,0,1.32-.54,1.57a1.46,1.46,0,0,1-1.18-.14,26.48,26.48,0,0,1-5.56-3.32l-6.32-2.53a19.8,19.8,0,0,1-10.32-17.42l-1.05-3.93a14.27,14.27,0,0,0-2.38-8.06c-1.83-2.75-4.71-5-5.23-8.3-.72-4.49,3.28-8.17,6.57-11.31a63.45,63.45,0,0,0,19.3-40.67l2.64-7,1-3.11c2.33-5.39,4.74-10.84,8.5-15.36A55.53,55.53,0,0,1,545,1418c11.64-9.74,24.59-18.45,39.26-22.34.59,3,.17,7.59-1.54,10.13-.63,1.9-1.24,4.35.31,5.61s4.69.75,5,2.72l.76,3.7a10.86,10.86,0,0,0,6.83,5c.61.14,1.33.3,1.57.88S597,1424.88,596.55,1425.39Zm675.73,718.18-2.57,0c-2.6-1.09-4.82-3.33-7.63-3.44a8.9,8.9,0,0,0-3.74.86,28.81,28.81,0,0,0-10.29,7.22c1.92,3.39,3.72,6.85,5.37,10.38l-7.81-7.65a.9.9,0,0,0-.54-.32,1,1,0,0,0-.54.23l-7.57,5.56,3.93,8.73-6.22-6.76a22.27,22.27,0,0,1-4,2.91,31.6,31.6,0,0,1,3.23,7.07l-4.63-5.42a1,1,0,0,0-.51-.38,1,1,0,0,0-.73.27l-2.73,2a.7.7,0,0,0-.25,1.14l4.17,7.34-6.88-5.16a36.84,36.84,0,0,1,1.35,8.71,12.38,12.38,0,0,1-2.77,8.19l-2.71,2.93,1.65,5.37,26.28,95.1c9.86,35.69,20,72,40.32,103a22.14,22.14,0,0,1,3.28,6.32c2.55,9.83-9.49,18.34-8.73,28.45.39,5.25,4.34,9.72,9,12.1s10,3,15.3,3.44c5.75.44,12.1.47,16.56-3.19,7.49-6.13,5.74-19.24,13.33-25.25,5.06-4,12.38-3.25,18.59-1.45s12.48,4.46,18.88,3.57a11.55,11.55,0,0,0,7.1-3.41c3.12-3.46,2.9-8.74,2-13.31-2.51-12.48-8.75-23.84-14.77-35.06a1461.72,1461.72,0,0,1-93.25-213.16Zm-51-241.77-5.5-10.59c-2.12-8.55-9.54-14.52-16.06-20.45a151.8,151.8,0,0,1-38.19-54.74,48.47,48.47,0,0,1-3.24-10.56l5.09.85-7.07-22.2.9-1.2a14.73,14.73,0,0,1,5.78-2.79l-.77-1.29-3-4.47-.07-.1-1.22.71c-5.12,4.92-10.56,10.46-11.29,17.53-.33,3.21.37,6.48-.13,9.66a13.09,13.09,0,0,1-5.57,8.73l-3.15,10.37,3.73,4.63c6.73,18.31,4.77,38.47,4.25,58-.25,9.32,0,19.26,5.29,27,3,4.45,7.48,7.74,11,11.85,4.63,5.43,7.47,12.16,9.77,18.92,4.65,13.61,7.43,27.77,10.2,41.88,10.17,51.81,20.35,103.69,26.09,156.17l.85,6.3a10.87,10.87,0,0,1,12.44,4.66,42.36,42.36,0,0,0-1.11-8.45l3.35,6.68,4-2.93a28.4,28.4,0,0,1-3.9-8.09l5.65,5.77a.88.88,0,0,0,.46.31.92.92,0,0,0,.61-.27l4.94-4a34,34,0,0,1-4.6-6.67l6,4.65a1.84,1.84,0,0,0,1.18.52,1.79,1.79,0,0,0,.92-.48l4.35-3.51a38.65,38.65,0,0,0-4.3-7.42l5.63,6.12,5.53-4.56a35.24,35.24,0,0,1-4.66-7.74l6,6a149.59,149.59,0,0,0,12.19-11.83c3-3.25,6-7.26,5.32-11.62l.19-1.32a32.6,32.6,0,0,0-.79-6.68c-1-4.4-2.87-8.87-1.84-13.26l2.54-3.15-1.3-4.58a13.8,13.8,0,0,0-11.12-2.43l-5.45-44.33c-5-40.62-10.26-82.15-28.58-118.74Zm-93.84-284.25c-5.84-5.18-12.18-10.43-19.86-11.81a2.94,2.94,0,0,0-1.64,0,3.26,3.26,0,0,0-1,.73l-2.62,2.53a3.31,3.31,0,0,0-1,1.34,3.49,3.49,0,0,0,.12,1.69,27.89,27.89,0,0,1-3.87,21.27,44.73,44.73,0,0,0-9.36-8.76,4.56,4.56,0,0,0-2.43-1,4.76,4.76,0,0,0-3,1.52l-3.06,2.64a1.58,1.58,0,0,0-.57.74,1.64,1.64,0,0,0,.41,1.29,24.72,24.72,0,0,1,3.34,19.2l1.84,5.13A113.12,113.12,0,0,0,1099.5,1708l2.61,3.21,5.2-1.71a479.28,479.28,0,0,0,31-64.9Zm-63.39-196.63c-2.93.88-6.48,1.63-8.73-.43a9,9,0,0,1-2-3.24q-2.76-6.51-5.53-13c-1.59-3.75-3.19-7.55-3.78-11.58-.72-5,.15-10.06-.1-15.09-.44-9.13-4.51-17.63-8.5-25.84a21.37,21.37,0,0,0-3.13-5.14,19.53,19.53,0,0,0-5.31-3.74,127,127,0,0,0-14.38-6.6l-1.59-4.39c-3.06-9.86-9.17-18.49-13-28.09-2.69-6.77-4.22-14-7.73-20.4-1.52-2.76-3.38-5.32-5.08-8-5.84-9.12-9.71-19.33-13.54-29.46l0-3a57.47,57.47,0,0,1-16.95-19l-3-3.43q-17-32.14-33.36-64.58l.67-.85c6.26-8.09,6.42-19.61,3.08-29.27a47.33,47.33,0,0,0-9.67-16.32c-5.22-5.77-11.76-10.14-18.28-14.39-2.56-1.67-5.49-4.21-4.63-7.15l-2.33-3.68A203.3,203.3,0,0,0,877,1065.33l-2.21-3.66-5-1.79q-17.73-34.22-32-70.09c-1.81-4.54-3.73-9.32-7.58-12.33l.72-.64a56.73,56.73,0,0,0,3.28-16.14l-.5-4.83c-2.7-7.63-8.27-13.85-13.71-19.84-3.65-4-7.33-8.07-11.72-11.26a18.15,18.15,0,0,1-3.89-3.29c-1.93-2.49-2.06-5.89-2.11-9l-2.89-3.21c-9.28-16.07-17-33-24.72-49.86q-3.66-8-7.33-16.06-27.4-60-54.79-120l1-2.52c2.23-13-2.44-26-7-38.35l-1.31-5.24c-1.85-7.13-4-14.77-9.78-19.37-3.73-3-8.49-4.26-12.88-6.13A49.08,49.08,0,0,1,665.86,640l-6.2-4.25a32.88,32.88,0,0,0-12.16-7.61l-.51-.58a53,53,0,0,0-4.78-9.37c-1.09-1.7-2.28-3.34-3.31-5.08a67.12,67.12,0,0,1-3-6q-4.27-9.21-8.54-18.43l.52-1.49c2.86-9.85,2.22-20.51-.75-30.32s-8.15-18.84-14.24-27.09c-4.84-6.54-10.39-12.74-17.43-16.82l.5-1.2a13.76,13.76,0,0,0-7.57-14.15l-.94-.19a76,76,0,0,0-.22-13.24,25.34,25.34,0,0,0-4.71-12.23l.26-.92a18.78,18.78,0,0,0-2.92-14.2,5.28,5.28,0,0,1-1.34-2.94,19.44,19.44,0,0,1,.63-2.44c.12-.77-.06-1.55,0-2.32.32-2.21,2.86-3.38,5.09-3.46l.83-5.39q-.65-12.71-1.63-25.38c-.5-6.48-1.08-13-3.31-19.14-2.6-7.11-7.3-13.23-12.06-19.11-27.44-33.86-59.55-63.8-86-98.47-7.55-9.91-15-20.53-25.95-26.48l-8.22-4.38a235.43,235.43,0,0,0-31.54-2.38l3.27,5,10,30.44c1.47,4.47,2.64,10.16-.91,13.26-14.78-8.41-14.49-32.6-29.66-40.29-4.91-2.5-10.64-2.73-16.14-2.54-4.56.15-9.27.6-13.27,2.79s-7.14,6.51-6.65,11c.4,3.73,3,6.75,5.28,9.76,6.52,8.74,10.37,19.14,14.14,29.37L397,343.08c.62,1.67,1.13,3.82-.19,5a4.53,4.53,0,0,1-3.08.8c-14.06.17-29.1-.31-41,7.25-1.94,1.24-3.88,2.72-6.17,3-2.59.28-5.05-1.07-7.34-2.31a131.6,131.6,0,0,0-73.7-15.21c-6.17.55-12.68,1.7-17.33,5.81s-6.36,12.06-2,16.49c2.28,2.33,5.64,3.21,8.85,3.74,8.73,1.43,17.7,1,26.38,2.64s17.57,6,21.43,14a220.84,220.84,0,0,0-50.18,30.14c-2.75,2.19-5.72,5.79-3.89,8.8.89,1.44,2.61,2.1,4.23,2.6a71.11,71.11,0,0,0,57.83-7.4c6.15-3.82,12.32-8.8,19.56-8.63,6.13.14,11.49,4,16.33,7.76,17.89,13.9,35.27,29.05,56.06,38l5.06,1.48a26.29,26.29,0,0,0,7-3.4,4.63,4.63,0,0,1,2-1,4.29,4.29,0,0,1,2.17.52,125.22,125.22,0,0,0,52.54,10.11l.79.18a12.69,12.69,0,0,0,5.45,8c2.63,1.7,5.79,2.36,8.61,3.71,6.82,3.27,11.19,10.32,17.94,13.72,3.24,1.63,6.89,2.34,10.09,4,4.52,2.43,7.74,6.65,11.24,10.4s7.8,7.31,12.91,7.7c2.69.2,5.35-.5,8-.84,6.62-.83,13.36.61,19.55,3.1s11.9,6,17.59,9.5l.94,1.73c1.94,11.6,12.55,20.2,15,31.71.54,2.56.67,5.23,1.61,7.67,1.49,3.87,4.89,6.82,6.06,10.79.69,2.38.52,4.93,1,7.35s2.12,4.94,4.58,5.27l.4.8c-.62,2.76.57,5.56,1.73,8.13q6.3,14,12.61,28l-3.7,3.64a38,38,0,0,0-15.12.93c-2.19.59-4.32,1.38-6.54,1.84a23.31,23.31,0,0,1-18.06-3.77l-8-3.11-18.78-12.52c4.53-1.62,5.08-8.28,2.4-12.26s-7.28-6.13-11.33-8.72a49.09,49.09,0,0,1-10.87-9.41c-3-3.43-6.29-7.69-10.82-7.31l-.89-.81c-4.09-4.27-9.58-6.87-14.87-9.54a301,301,0,0,1-38.39-23.06c-6.85-4.84-13.72-10.07-21.83-12.23-5.05-1.34-11.36-2.14-13.33-7l-1.36-.93-42.65-14.33c-27.91-9.38-55.93-18.81-82.32-31.87a10.79,10.79,0,0,1-3.72-2.57c-2.11-2.58-1.87-7-4.85-8.51l-6.76-3C264.2,444.07,227.6,443,192.33,443c-17.53,0-35.55.38-51.76,7-1.69.7-3.62,1.88-3.53,3.7.07,1.48,1.49,2.49,2.77,3.23,21.31,12.45,46.22,16.91,70.54,21.16l10.4,1.7a8.41,8.41,0,0,1,2.05.26l23.59,5.19,6.45.37c12.23.32,22.91,8,32.44,15.64,4.76,3.82,10,7.94,16.1,7.93l.05-.4c1,2.44,3.58,3.83,6,5,22.13,10.83,45.85,17.95,69,26.32a71.78,71.78,0,0,1,9.06,3.77c3.16,1.65,6.07,3.74,9.09,5.64,11,6.93,23.5,11.46,33.89,19.29l-1.86,5.52,5,3.53Q501.43,617.74,573.24,654a300.77,300.77,0,0,0-92,11.74,5.8,5.8,0,0,1-2.5.35c-1.67-.25-2.77-1.84-3.67-3.28A235.14,235.14,0,0,0,417.41,600c-7.12-5.37-14.64-10.37-23-13.47s-17.7-4.18-26.25-1.62a14.24,14.24,0,0,0-6.33,3.45c-3.43,3.55-3.38,9.38-1.33,13.86s5.72,8,9.14,11.56a155.92,155.92,0,0,1,22.9,30.61c10.31,18,17.81,39.08,34.94,50.82l-4.18,5.33-25,14.88a51.07,51.07,0,0,1-10.3,5.14,48.8,48.8,0,0,1-10.76,1.8c-15.68,1.42-31.58,2.34-46.62,7-10.31,3.2-20,8.1-30.39,11.15-8.81,2.59-17.95,3.81-27,5.42a310.7,310.7,0,0,0-53.59,14.59l-7.17,3.88a187.34,187.34,0,0,0-100.27,39.79c-3.57,2.84-7.09,5.87-9.55,9.72-2.79,4.38-4,9.58-4.66,14.74-.51,4.31-.51,9,2.07,12.52a12.3,12.3,0,0,0,6.87,4.35c7.8,2,16-2.11,21.89-7.59s10.39-12.37,16.35-17.79c10.6-9.63,24.9-13.85,38.67-17.78l13.3-8.53,5.57-2.22a219,219,0,0,0,36.58-.24,13.86,13.86,0,0,1,5.56.24l11.2.63a282.69,282.69,0,0,1,51.15-16.62,464.63,464.63,0,0,1-45,37.5l-5-.33a26.89,26.89,0,0,1-.23,12.58,19.53,19.53,0,0,0-1,5,13.83,13.83,0,0,0,.9,4.14q2.14,6.65,4.31,13.28a19.87,19.87,0,0,0,1.7,4.16,32.86,32.86,0,0,0,3.39,4.17,26.68,26.68,0,0,1,4.91,8.58l6.61-4.05C297.49,852.05,316,841,334.47,830c6.65-4,13.41-8,18.61-13.77,7.95-8.81,11.82-21.13,21.2-28.39,4.41-3.41,9.72-5.43,14.51-8.3,6-3.58,11.13-8.49,17.27-11.79,7-3.74,14.86-5.26,22.64-6.62q16.2-2.83,32.5-5a7.88,7.88,0,0,1,4,.17,8,8,0,0,1,3.17,3.16,327.76,327.76,0,0,0,64.28,70l5,7.51a11.69,11.69,0,0,1,8.7-2.19c4.5.91,7.5,5.13,9.51,9.25l8.55,7.64A130.34,130.34,0,0,1,592.29,867q-13.63,5.55-27.56,10.34l-7.48,3.16c1.72,5.29-3.23,10.37-3.94,15.88-.41,3.23.66,6.44,1.32,9.62,2.39,11.45-.48,23.33-4.42,34.34l4.84,2.38a16.65,16.65,0,0,1,6.27,2.29l7.42-3.35a353.7,353.7,0,0,1,63.5-38.93,28,28,0,0,1,8.34-2.91c4.8-.62,9.54,1.16,14.06,2.87,30.63,11.61,61.86,22.07,94.15,27.58,7.27,1.24,14.63,2.24,21.58,4.71s13.56,6.6,17.55,12.8l3.51,5.63,4,1.72c13,20.72,18.22,45.69,32.18,65.77-24.29-15.57-58.15-14.46-81.37,2.65-4.6,3.4-8.79,7.33-13.41,10.69-6.61,4.8-14.11,8.45-20,14.13-4,3.91-7.15,8.66-10.23,13.36-9.08,13.84-18.21,27.8-24.43,43.15l-.64-.13c-10.61-.74-21.11,2-31.39,4.74L606.65,1120c-18,4.77-36.18,9.65-52.09,19.24l-1.76.88a75.32,75.32,0,0,1-1.61,8.91l-.15.56c7,9,10.2,20.44,11,31.79l.54-.57,103-34.77a65.51,65.51,0,0,0-6.43,25.51c-.11,2.45-.09,5-1,7.24a18.3,18.3,0,0,1-3.53,5c-5.3,6-10.66,12.32-12.83,20-1,3.38-1.26,6.92-2.33,10.27s-3.12,6.63-6.36,8l-3,6.59c-3.9,5.59-6.1,12.15-8.66,18.47-12.35,30.53-33.56,56.49-54.46,81.94a7.94,7.94,0,0,1-6,3.48c-18,3.75-36.25,8.67-51.68,18.76l-7.74,3.49c-6.44,4.68-9,13.19-9.06,21.15s1.88,15.79,2.54,23.72c.19,2.28.22,4.77-1.15,6.61a5.16,5.16,0,0,0-1.18,1.85c-.39,1.9,2.32,3,2.69,4.93l.33,1.86,5.17-2.42c5.91-2.75,12-5.63,16.35-10.49l1.87-4.78a42.82,42.82,0,0,1,13.41-43.36l.75.48c1.11,7,10.53,9.46,13.43,15.92,2.39,5.35-.14,12.52,3.8,16.85h1.25c10.4-5.21,21.2-10.53,32.83-11l1.56.6c1.68-4.29,5.71-7.42,7-11.83,1.23-4.12-.11-8.7,1.2-12.8a19.74,19.74,0,0,1,2.61-4.87,171.62,171.62,0,0,1,11.35-15c2.26-2.65,4.65-5.29,7.71-7s6.93-2.2,10-.57l1.14.15a22.35,22.35,0,0,1,4-16.5,4.23,4.23,0,0,1,1.15-1.16c1.13-.65,2.55-.2,3.85-.3a.78.78,0,0,0,.51-.19.86.86,0,0,0,.12-.74c-.1-.74-.2-1.48-.31-2.21l-.47-.83c-1.75-.89-2.41-3.16-2-5.08a13.63,13.63,0,0,1,2.69-5.17l4.75-6.6a3.41,3.41,0,0,1,.91-1c1.56-1,3.42,1,3.7,2.81s-.08,3.86,1,5.35a4.39,4.39,0,0,0,4.81,1.28,10.87,10.87,0,0,0,4.31-3,6.76,6.76,0,0,0,2-3.12c.43-1.89-.57-4.22.79-5.61.67-.69,1.77-.89,2.34-1.67s.34-2.2.66-3.28c.53-1.76,2.55-2.5,4.13-3.45s3-3.14,1.7-4.49l.89-1.2a11.92,11.92,0,0,1,5.64,5.68,35.38,35.38,0,0,1,2.55,7.75c.52,2.1,1,4.35.28,6.39-.67,1.83-2.33,3.36-2.28,5.31a.65.65,0,0,0,.15.45.67.67,0,0,0,.41.13l7.06.7.36.53c.25,2.66,2,4.91,3.26,7.25,4,7.36,3.73,16.21,3.33,24.58l1.65,9.13,4.69-5q41.07-11.2,82.33-21.71l6.58-3.81,5.28-4.72,5.74-15a84.07,84.07,0,0,1,3.49-8.24c2.91-5.73,7.07-10.72,11.35-15.52q4.88-5.47,10-10.7l-6.49-.44a183.08,183.08,0,0,0-43.91,4.19c30.16-18.71,60.71-37.61,94.56-48.29,4.23-1.34,8.57-2.55,13-2.49a46.67,46.67,0,0,1,11,1.92c4.6,1.2,9.26,2.42,13.42,4.71,7.22,4,12.34,10.78,17.25,17.4,6.94,9.37,14,18.89,18.13,29.79a77.4,77.4,0,0,0-42.8-9.09l-5.31,2.21-2.47,4.3c8,3.84,11.84,12.9,18.53,18.66,5.86,5,14,7.74,17.93,14.41l2.94,4.47,7.49,2.81a26.85,26.85,0,0,0,17.62,1,2.68,2.68,0,0,1,2.11-.06,2.61,2.61,0,0,1,.92,1.36l14.2,35.91A58.61,58.61,0,0,0,933.1,1345l-8.71,3.64-4.17,6.92c-3.32,1.74-2.9,6.53-4.25,10-1,2.71-3.36,5-3.49,7.9-.15,3.65,3.17,6.4,4.76,9.69l5.29-.6c8.21-6.12,16.6-12.35,26.32-15.58,9.29-3.09,19.28-3.27,29.07-2.86a3.79,3.79,0,0,1,3.88,2.34,186.07,186.07,0,0,1,24.44,60.74c-11.24-3.62-22.74-7.29-34.55-7.09a78.79,78.79,0,0,0-16,2.18c-23.94,5.4-46.12,16.62-67.79,28.14a221.76,221.76,0,0,0,14.31-31.8l-1.15-8.83c-3.68,2.44-9.37,1.48-12,5.05a7.81,7.81,0,0,1-1.25,1.64c-.84.67-2,.65-3.08.86a17.56,17.56,0,0,0-4.16,1.69,27.72,27.72,0,0,1-16.55,2.2,5.82,5.82,0,0,1-2.78-1.08,4,4,0,0,0-.92-.72,2.74,2.74,0,0,0-2.08.33c-7.67,3.28-16.93-.21-24.69,2.89l-3.94,3.11-4.39,19.75,1.24,3.47c2.34.19,3.39,2.94,4.09,5.19s2.34,4.89,4.64,4.39c1.83-.39,2.81-2.69,4.67-3a3.81,3.81,0,0,1,3.1,1.29c2.09,2,3.31,5.23,6.1,6.06,1.54.46,3.19,0,4.8.12a8,8,0,0,1,6.85,4.91c.66,1.67.81,3.67,2.17,4.85s3.19,1,4.89,1.14,3.69.66,4.24,2.28-.71,3.41-.4,5.12a6.31,6.31,0,0,0,2.2,3.11,30.22,30.22,0,0,1,6.37,9,5.94,5.94,0,0,1,.72,3.75c-.3,1.27-1.69,2.34-2.89,1.85,2,2.69,4.12,6.44,2.15,9.18a41.77,41.77,0,0,1,15.66,10.91l2.58-5.85a110.18,110.18,0,0,1,10.92-8.7c3.66-2.55,7.48-4.88,11.3-7.2L958,1474.74l10.73-2.94c3.16-2.91,7.42-4.9,11.69-4.42l3.69-.73a43.55,43.55,0,0,1,15.1-2.28,68.16,68.16,0,0,0-12.4-21.15c3.82-.43,7.51,1.42,10.81,3.41a93.29,93.29,0,0,1,10.79,7.62l.87-8.37a41.94,41.94,0,0,0,16,2.86,2.14,2.14,0,0,0,1-.2,2.32,2.32,0,0,0,.81-1.16,19.79,19.79,0,0,1,2.88-4.68.91.91,0,0,1,1.61-.11l9.8,8.93q.3-6.21.61-12.42a66.61,66.61,0,0,0,9.38,11q1-5.53,2-11.07a4.8,4.8,0,0,1,.65-1.94c1.47-2.07,5.43-1,6.63-3.25l2.3-4.12c2.86-1.7,4.38-5.12,4.57-8.45ZM756.66,887.35C742,876.19,727.29,865,711.79,855l-1.56-3.23c-1-2.7-2-5.41-3.25-8l-6.27-2c-7.33-1.34-13.62-5.87-19.63-10.27L623.19,789c-22.07-16.17-44.24-32.42-68.56-45,24.25-3.12,48.55,3.7,72,10.45,21.16,6.08,43,12.48,60,26.42l7,4.39c10.25-1.56,20.53,4,27.39,11.75s11,17.52,15,27c10.44,24.34,21.53,48.39,32.62,72.43Zm77.41,175.45a41.14,41.14,0,0,0-15,3.83,22.59,22.59,0,0,0-6.78,4.62c-2.36,2.48-3.92,5.78-6.79,7.65-5.18,3.37-12,.73-18.14.56-6.75-.18-13.16,2.74-19.28,5.6l-4.4,2.19a11,11,0,0,0-6.36,7.42c-9.57-2.91-19.65,1.3-29.19,4.32a2.91,2.91,0,0,1-1.62.18c-1.1-.29-1.46-1.65-1.57-2.78-.74-8,2-15.84,5.68-22.94s8.28-13.68,11.71-20.9c3.15-6.6,5.4-13.89,10.53-19.11a34.23,34.23,0,0,1,5.54-4.42,53.49,53.49,0,0,1,22.9-8.92A36.77,36.77,0,0,1,805.1,1025c4.2,2.64,7.72,6.23,11.19,9.78a92.82,92.82,0,0,1,7.28,8.08c1.47,1.91,3.4,4.21,5.76,3.67l.27.72a8.09,8.09,0,0,0,.62,6.44,23.67,23.67,0,0,0,4,5.26Zm-347.3-71.32,1.83-4.37,5.8-10.59a3.46,3.46,0,0,0,.5-1.34,3.91,3.91,0,0,0-.7-2.1c-2.43-4.49-2.68-9.81-2.87-14.92-.24-6.22-.47-12.53.85-18.62.71-3.28,1.86-6.46,2.45-9.76.91-5,.53-10.17.14-15.26l-6.08,3.8c-30.07,19.25-60.34,38.66-86.15,63.31C389.13,994.44,376.79,1009,370,1026.2l-4.62,5.5.14,4.91c1.23,3,2.75,6.2,5.61,7.76a33.33,33.33,0,0,0,3.27,1.32,13.39,13.39,0,0,1,5.94,4.89c1.56,2.33,2.65,5.4,5.32,6.25l2.73,2.12,6.26-3.3c25.83-21.67,60.38-32.65,82-58.53ZM744.5,1562.79l-1-4.64c-2.22-1.74-.5-5.37-1.3-8.07a11.68,11.68,0,0,0-1.12-2.27,17.55,17.55,0,0,1,.13-17,2.3,2.3,0,0,0,.43-1.18c0-.76-.81-1.22-1.38-1.72-3.74-3.3.57-10.22-2.35-14.27a5.54,5.54,0,0,1-1.48,2.16c-1.68-1.3-1.56-3.91-.81-5.9s2-3.87,2.06-6-1.9-4.49-3.9-3.76l-7,.33a87.77,87.77,0,0,0-36.36,7l-6.81,2.08c-3,2.06-4.33,5.83-5.14,9.41s-1.35,7.36-3.51,10.32a20.91,20.91,0,0,0-2.65,3.66c-1.2,2.74,0,5.86.21,8.85.26,4.6-2.06,9-4.64,12.78-1.43,2.12-3.11,4.29-5.54,5.07-2.91.94-6.19-.45-8.24-2.72s-3.07-5.27-3.82-8.23a59.19,59.19,0,0,1-1.61-9.43c-3.21,2.28-4.71,6.38-4.9,10.32s.73,7.83,1.43,11.71a104.19,104.19,0,0,1,.79,31.53l5.28,3.06a87,87,0,0,1,11.33-1.68l6.38-3.46.13-3.92c.77-3.64,1.87-7.34,4.24-10.21s6.29-4.73,9.89-3.76a18.69,18.69,0,0,1,5.24-12.52,6.85,6.85,0,0,1,3.63-2.19,6.48,6.48,0,0,1,4.76,1.59,15.06,15.06,0,0,1,5.41,7.93c.45,1.61.68,3.37,1.78,4.62a9.78,9.78,0,0,0,2.38,1.74,21.27,21.27,0,0,1,4.5,3.75l5-2.13a82.68,82.68,0,0,1,21.41-9.24Zm60.78,265,2.09,1.91a145.82,145.82,0,0,0,20.71-9.93l3-2,.1-4.43a85.19,85.19,0,0,1,6-17.55c2.27-4.71,5.13-9.14,7.12-14a77,77,0,0,0,4.06-15.19c4.8-25.75,9.63-49,8.42-75.22l-.27-5.64-1-4.42-10.7-.24c-7.66-.17-15.39-.35-22.87-2s-14.82-4.9-20.14-10.42l-7.08,1.4-.77,5.69-.67,47.18c-.11,7.36-.21,14.74.18,22.09.61,11.71,2.47,23.31,4.33,34.88q3.38,21.09,6.76,42.19Z"></path>
    <path data-name="5a" data-official="" data-plain="Stamen flower" data-loc="" d="M524.89,2591.82a55.57,55.57,0,0,1-5.31-33.59c1.11-7.09,3.6-13.88,5.1-20.9s2-14.56-.88-21.15c-2.42-5.64-7-10-10.32-15.2s-5.27-12.12-2-17.31c2.21-3.5,6.28-5.33,10.22-6.6,3.63-1.17,7.68-2,11.18-.48,4.5,2,6.6,7.24,7,12.13s-.44,9.84.25,14.7,3.52,9.95,8.3,11.09a5.74,5.74,0,0,0,5.48-1.3,8.25,8.25,0,0,0,1.65-3.37c3.54-11.68,5.69-24.67,14.49-33.13a15.84,15.84,0,0,1,7.64-4.39,8.66,8.66,0,0,1,8.17,2.43,11.86,11.86,0,0,1,2.3,5.74,40,40,0,0,1-1,18.41c-2.7,9-8.57,17-9.69,26.36-1,8.56,2.09,17,4.18,25.37a109.14,109.14,0,0,1,2.38,40,26.21,26.21,0,0,0-.31,7.28c.48,3,2.07,5.6,3.38,8.3a46.6,46.6,0,0,1,4.68,19.5c.05,2.63-.15,5.38-1.48,7.65-2.25,3.86-7,5.31-11.41,6.27a170.53,170.53,0,0,1-17.52,2.87,95.89,95.89,0,0,1-22.46.23c-2.51-.31-5.13-.83-7.09-2.44-2.4-2-3.33-5.31-3.3-8.44s.88-6.17,1.41-9.25a45.87,45.87,0,0,0-2.84-25.26Z"></path>
    <path data-name="5b" data-official="" data-plain="Capsule" data-loc="" d="M462.61,2595.08c2.34-19-6.78-37.78-19-52.56-4.26-5.17-9-10.2-11.15-16.55s-.57-14.57,5.37-17.65c1.47-.77,3.15-1.19,4.41-2.28a10,10,0,0,0,2.6-4.79,105.47,105.47,0,0,0,3.15-12.63,17.16,17.16,0,0,1,1.68-5.7c1.71-2.91,5-4.42,8.19-5.59,5.94-2.2,12.23-3.85,18.54-3.32,12.25,1,23.14,11.15,25.05,23.29.92,5.85.26,12.67,4.53,16.78,1.8-2.87,6.51-2.36,8.73.2s2.54,6.22,2.46,9.6c-.22,9.76-3.16,19.79-9.87,26.87-2,2.11-4.3,3.94-6.06,6.26-2.19,2.87-3.41,6.35-4.6,9.76l-4.11,11.76a11.2,11.2,0,0,0-.9,4.39c.14,2.29,1.63,4.23,3,6.07a90.26,90.26,0,0,1,12.13,22.71c1.08,3,2,6.24,1.19,9.32-1.28,4.79-6.29,7.48-10.94,9.19a82.55,82.55,0,0,1-23.6,4.92c-5.33.31-11,0-15.52-2.72a9.13,9.13,0,0,1-4.49-5.48c-.47-2.09.15-4.26.82-6.29a103.52,103.52,0,0,1,8.46-18.89Z"></path>
    <path data-name="5c" data-official="" data-plain="Seed" data-loc="" d="M401.54,2587.11c1.21-3.6-.32-7.55-2.44-10.7s-4.86-5.89-6.48-9.32-2-7.07-2.4-10.73a13.06,13.06,0,0,1,.15-5.14,10.26,10.26,0,0,1,2.77-4.19c4.71-4.71,11.31-7.14,17.92-8s13.31-.26,19.95.34a14.92,14.92,0,0,1,6,1.41c3.46,1.93,4.8,6.29,4.87,10.25.2,11.18-7,21-9.72,31.88a52.07,52.07,0,0,0-1.34,15.34,15.14,15.14,0,0,0,1.27,6.12c1.8,3.57,5.81,5.41,8.4,8.46,2.81,3.3,3.76,7.82,3.87,12.16.14,5-.88,10.38-4.35,14s-9.05,4.95-14.2,5.62a116.66,116.66,0,0,1-14.95,1,34.36,34.36,0,0,1-11.69-1.58c-3.72-1.36-7.12-4-8.59-7.66-1.79-4.45-.46-9.58,1.82-13.8s5.46-7.89,7.73-12.11a32.73,32.73,0,0,0,3.84-17Z"></path>
    <path data-name="6" data-official="Salix herbacea" data-plain="Least Willow" data-loc="Hebrides" d="M1655.19,2360.41a51,51,0,0,0-32.84,33c-1.7,5.51-2.43,11.49-.81,17s6,10.48,11.57,11.72c2.62.57,5.44.36,7.89,1.46,5.37,2.41,6.34,9.68,5.34,15.48s-3.14,11.86-1.14,17.4c2.8,7.79,12.42,10.71,20.7,10.52a24.48,24.48,0,0,0,10.89-2.36c10.67-5.62,11.78-20.72,20.18-29.37,4.63-4.75,11.14-7.2,16.11-11.59,4.79-4.23,8.31-10.35,14.36-12.44,4.57-1.58,10.17-.64,13.83-3.81,2-1.76,3-4.44,3.53-7.06,3-13.9-4-29.32-16.34-36.33l-1-3.74q5.74-28.62,11.48-57.25a14.06,14.06,0,0,1,1.46-4.5,10,10,0,0,1,5.62-4c6.69-2.16,14.08-.09,20.21,3.34s11.45,8.14,17.4,11.89c4.8,3,10.73,5.44,16.06,3.48,5-1.84,8-7.16,8.67-12.43s-.62-10.58-1.89-15.74l-2.3-9.38a10,10,0,0,1-.42-3.25c.35-3.56,4.17-5.5,7.26-7.31,13.63-8,20.45-25.07,18.4-40.72s-11.94-29.58-24.65-38.95c-4.07-3-8.54-5.63-13.47-6.75-7.39-1.68-15.08.14-22.37,2.2-6.21,1.75-12.52,3.76-17.63,7.7-1.39,1.08-2.8,2.34-4.55,2.54-2,.22-3.85-1-5.6-2-7.61-4.45-16.94-5.31-25.61-3.73s-16.77,5.43-24.37,9.9c-7.23,4.24-14.34,9.33-18.49,16.62-2.74,4.83-4,10.34-5.08,15.78-3.48,17.7-4.78,37.64,5.88,52.18,2,2.75,4.57,6,3.41,9.17a8.11,8.11,0,0,1-2,2.79c-8.24,8.32-21.55,12.08-26,22.9a28.72,28.72,0,0,0-1.69,11.72,71.35,71.35,0,0,0,6.84,28.78Z"></path>
    <path data-name="7" data-official="Betula pendula" data-plain="Drooping Birch" data-loc="Scotland" d="M1946.34,1785.89c-16.84-13.1-38-19-57.34-28-11.45-5.34-23.91-14.66-22.7-27.24,1.69-17.65,26.81-21.52,36.84-36.13,4.94-7.18,5.72-16.33,6.35-25,1.65-22.87,3.07-47-7.21-67.54-6-11.87-15.39-21.56-24.68-31-40.24-41.07-81.34-82.78-132-109.89-2.63-1.41-5.41-2.88-7-5.4-3-4.67-.79-11.05,2.84-15.25s8.5-7.23,11.94-11.58c6.62-8.38,6.9-20.25,12.55-29.31,8.34-13.39,25.73-17.29,41.27-20,3-.53,6.24-1,9.14,0,2.63.93,4.66,3,6.52,5.1,22.48,25.16,34.66,58.87,60,81.17,4.34,3.82,10.11,7.45,15.56,5.52,3.94-1.4,6.36-5.3,8.29-9a146.5,146.5,0,0,0,15-46.14l.68-7.62q-.37-75.72-.74-151.44c0-6.86-.1-13.89-2.49-20.33a59.54,59.54,0,0,0-4.55-8.93q-6.88-11.77-13.75-23.55c-1.85-3.17-3.8-6.45-6.8-8.56-3.57-2.5-8.12-3-12.46-3.44l-51.81-5.2-.18-6.69c-8.86-10.63-8.56-25.94-7.44-39.73,2.23-27.29,5.9-54.69,3.44-82s-11.79-55-31.71-73.83c-9.91-9.35-22-16.06-33.85-22.67-7.71-4.29-15.71-8.67-24.5-9.49-9-.85-18.36,2.11-27-.5-4.45-1.34-8.33-4.06-12.47-6.19-8-4.1-16.91-6-25.13-9.63s-16.16-9.65-18.52-18.31l-.92-6.89a61.64,61.64,0,0,0-13-46.45c-1.44-1.78-3-3.56-3.55-5.79-1.22-5.16,3.64-9.75,4.48-15,.89-5.52-2.77-10.64-6.23-15-14.52-18.48-31.35-38.35-54.61-41.71-6.65-1-13.62-.5-19.89-2.94-7.25-2.83-12.47-9.09-18-14.52-29.48-28.75-73-37.17-107.75-59.28-1.75-1.11-3.6-2.42-4.15-4.42-.77-2.82,1.4-5.56,3.62-7.45,8.51-7.25,19.76-10.26,29.54-15.66A67.63,67.63,0,0,0,1496,626.53l-1.54-8.56c-3.6-.81-7.22-3-8.32-6.52l-.13-3.62c-3.25-5.92-5.51-12.33-8.7-18.28s-7.51-11.6-13.56-14.58a34.68,34.68,0,0,0-8.75-2.7l-1.78-.55c-2.38-1.22-3.54-4.07-5.84-5.42a5.87,5.87,0,0,0-7.43,1.54q-4.2-6.44-9-12.46a23.87,23.87,0,0,0-2.78-3.08,15.45,15.45,0,0,0-12-3.52,21.64,21.64,0,0,0-11.51,5.38c-1.53,1.33-3,3-3.12,5l-2.7.95a6.52,6.52,0,0,1-4.11-1.7,15,15,0,0,1-2.83-3.54l-5.91,4.41c-3.18,5.21-7,10.87-12.87,12.37-2.72.69-5.59.4-8.33,1-9.65,2.07-13.7,13.44-15.54,23.14-2.23,11.69-3.73,23.63-2.81,35.5,1,13.18,5,25.92,9,38.52a321.42,321.42,0,0,1-79.92-32.09c-6.32-3.58-12.55-7.41-17.9-12.33-11.33-10.42-17.87-24.94-27.37-37.06-10.56-13.47-24.64-23.79-35.67-36.89-2.31-2.74-4.61-6.07-4-9.61.65-3.72,4.23-6.1,6.36-9.21,3.62-5.27,2.72-12.86-1.28-17.85s-10.52-7.5-16.91-7.64c-7.23-.16-14.91,2.36-21.46-.71-11.15-5.24-10.39-21.67-18.16-31.23L1135.5,468a48.43,48.43,0,0,1-4.77-20.93c0-7.16,1.35-15.18-3.13-20.77-3.4-4.24-9.41-5.69-14.8-4.94s-10.32,3.36-15.06,6c-3.5,2-7.34,4.5-7.91,8.47-.34,2.33.56,4.8-.23,7-2,5.71-11.61,3.52-15.49,8.17s1.08,12.45-1.39,18.18A397.92,397.92,0,0,0,1034,458.72l-8.76-2.36-2.87,1.86c-1.26,2.07-4.08,2.38-6.2,3.54a10.48,10.48,0,0,0-4.28,5,31.17,31.17,0,0,0-1.87,6.38q-.82,3.82-1.66,7.63l6.75,5.8,7.83,2.46c12.11,11.2,28,17.29,43.67,22.42s31.82,9.68,45.73,18.56c7.48,4.77,14.14,10.71,20.67,16.72l4.28,8c2.77,2.8,4.12,6.82,7.1,9.4l1.54,2.14c.53-.84,1.32-1.81,2.29-1.6,2,.41.89,4.41,2.84,4.87,1.15.27,2.5-1.08,3.39-.31l0,10.6a14.32,14.32,0,0,0,5.45-3.73,18.8,18.8,0,0,1-.25,5.94l5.49-1.58-1.62,4.56,7.07-.84a11.89,11.89,0,0,1-4.56,6.27l7.09-.31c-.57,3.93-4.44,6.36-7.92,8.25a37.67,37.67,0,0,1,10.93,1.25,40.25,40.25,0,0,1-10.42,5.48,25.71,25.71,0,0,1,6.14,5.1l-3,1a.71.71,0,0,0,.63.67l.69,1.39a7.56,7.56,0,0,1,1.72,2.54c8.42,17.22,9.34,37.94,20.68,53.39,2,2.71,4.32,5.31,5.22,8.55a30.66,30.66,0,0,0,1.11,4.39c.68,1.54,1.94,2.75,2.85,4.16,1.83,2.82,2.21,6.33,3.59,9.39,2,4.53,6.28,8.13,6.93,13.06l0,2.57c.51,1.31,2.17,1.63,3.52,2s2.84,1.71,2.21,3c-.23.46-.69.75-1,1.18-.67,1.05,0,2.49,1,3.22a21.09,21.09,0,0,0,3.38,1.54,3.28,3.28,0,0,1,2.14,2.78c-.09,2.1-3.18,3.23-3,5.31.13,1.6,2,2.31,3.18,3.42,2,1.91,1.71,5.17.76,7.75s-2.45,5-2.53,7.79c-.06,2.13.75,4.18,1.1,6.29a31.93,31.93,0,0,1-.12,8.11c-.54,5.82-.77,11.8.83,17.42l-.4,10.59,4.93,1.25c7.56-.87,14.22-5.9,18.43-12.25s6.24-13.9,7.37-21.43a298.73,298.73,0,0,1,44.34,12.18l2.94,4c7.8,11.09,10,25,12.9,38.26,12.57,58.56,40.3,113,52.94,171.57,5.54,25.68,8.17,52.13,17.09,76.83l2.74,5.73c1.12,8.09,12.79,12.23,18.76,6.67,4.57-4.25,4.81-11.28,4.73-17.52l-.3-23.55c-.05-3.68.43-8.2,3.82-9.61,2.6-1.08,5.61.41,7.52,2.47s3.17,4.65,5.08,6.72a14,14,0,0,0,24.25-9.94c2.5,11,5,22,9.3,32.47,2.14,5.21,5.11,10.64,10.3,12.84,6.24,2.66,13.74-.47,18.18-5.6s6.53-11.83,8.48-18.33c5-16.56,9.89-33.33,10.92-50.59.26-4.36.4-9.1,3.21-12.45,1.89-2.24,4.69-3.47,7.27-4.87a48.64,48.64,0,0,0,23.17-28.42,4.64,4.64,0,0,1,1.14-2.25c1.08-1,2.75-.65,4.17-.32a80.16,80.16,0,0,0,35.28.3c1.8-.39,3.77-.83,5.41,0a7.75,7.75,0,0,1,2.88,3.4l12.24,22.15c-13.21,9-22.25,23-28.42,37.69s-9.82,30.35-14.52,45.6c-.88,2.88-1.86,5.85-3.91,8.06a19,19,0,0,1-6.72,4.2c-24.67,10.54-54.39,11.6-73.88,30-14.31,13.52-20,34-21.06,53.64a18.07,18.07,0,0,0,.78,7.72c.86,2.18,2.49,4,3.6,6,4.47,8.33-.34,18.5.24,27.94l.46,6.59c-3.6,17.78,2.68,35.87,7.94,53.23,7,23.06,12.26,48,5,71-2,6.24-4.89,12.63-3.61,19.05a9.37,9.37,0,0,0,2.25,4.72c2.55,2.63,6.92,2.7,10.24,1.15s5.83-4.38,8.25-7.13q5.58-6.33,11.14-12.67c7.45-8.47,15-17.2,19-27.78,5.37-14.54,3.21-31.17,9.43-45.37,5.77-13.17,18-22.55,24.39-35.44a106.36,106.36,0,0,0,25.55,22.45,10.9,10.9,0,0,1,3.56,3,8.66,8.66,0,0,1,1.19,4.18c1,13-8.3,24.1-13.18,36.14a55.2,55.2,0,0,0-3.84,24.94c.42,5.35,1.81,11,5.7,14.66,2.42,2.3,5.58,3.63,8.43,5.39a32.15,32.15,0,0,1,14,18.6,8.67,8.67,0,0,1,.35,4,8.06,8.06,0,0,1-2.1,3.56c-6.57,7.19-17,8.88-26.27,12-24.23,8.1-42.68,27.51-60.06,46.22l-2.87,6.88a18,18,0,0,1,10.82,7.07l.4.69a105.22,105.22,0,0,1-17.33,7.61c-3.91,1.32-8.18,2.6-10.62,5.93l.07.47a27.53,27.53,0,0,0,11.16,3,82.3,82.3,0,0,0,11.64-.23l.43.51c-8.57,6-14.75,15.11-23.82,20.34l.18.08a124.06,124.06,0,0,1,21.69-8.46c-4.22,8.34-13.71,13.18-17.44,21.74a22.39,22.39,0,0,1,14.22-2.79l-.07.73-5.82,5c-4.79,4.07-9.58,8.15-14,12.63l.29.18c2.76-.66,5.38-1.78,8.09-2.64a18.73,18.73,0,0,1,8.37-1l.26.28c-4.65,8.26-12.34,14.32-20.17,19.65l.15.55a31,31,0,0,1,11.56-.38l.66,0c-12.26,15-26.87,28.76-44.94,35.68l.41.93c14.06.53,27.21-6.32,39.6-13l1.86,4.6a98.75,98.75,0,0,0,21.62-22.47l2.9,2.57.93.4a33.5,33.5,0,0,0,9.67-7.89l1.68,2.44a15.08,15.08,0,0,0,9.1-11.64,43.5,43.5,0,0,1-.66,12.42,204.69,204.69,0,0,0,15-15.64c2.36,2.54,3.23,6.13,3.48,9.59a34,34,0,0,1-1.27,12c-.34,1.17-.73,2.51-.09,3.56a3.33,3.33,0,0,0,3.26,1.19,28,28,0,0,1,3.62-.54,6.44,6.44,0,0,1,5.3,3.76,16.06,16.06,0,0,1,1.36,6.63,96,96,0,0,1-2.77,26c-.46,2-.89,4.39.48,5.93a4.47,4.47,0,0,0,2.37,1.29c4.55,1.11,9.45-2,13.9-.5,3.53,1.16,5.63,4.91,6.17,8.59l.67,5.49c.58,2.85,1.15,5.7,1.73,8.56s1.41,6,4,7.33c1.88,1,4.24.61,6,1.7,3.28,2,2.92,7.36,6.13,9.44,2.87,1.86,6.58,0,9.73-1.37a28.7,28.7,0,0,1,8.89-2.19,3.29,3.29,0,0,1,1.68.16,2.7,2.7,0,0,1,1.28,2.81c-.38,3.36-4.09,5.31-5.37,8.44-1.19,2.9-.09,5.87,1.11,8.9l4.69-1c1.53.19,3-.76,4.43-1.21a7.27,7.27,0,0,1,7.79,2.62c1.68,2.33,1.79,5.43,1.61,8.3a56.09,56.09,0,0,1-1.54,10.14,64.06,64.06,0,0,0-2.08,9.33c-.46,5,.94,10,2.32,14.85l-3.45,4.57,2.28,1.73c1.25-.38,2.15,1.48,1.6,2.67s-1.79,1.87-2.72,2.8c-2.15,2.16-2.47,5.54-2.26,8.59s.79,6.17,0,9.11c-1,3.62-3.93,6.32-6.1,9.38-1.28,1.8-2.32,3.77-3.53,5.62a39.48,39.48,0,0,1-5,6.14l3,3.94c2.2,6.53-1.92,13.69-.7,20.47.79,4.38,3.72,8.06,6.87,11.21a67.61,67.61,0,0,0,52.53,19.34c4-.32,8.21-.92,11.61,1.1,2.75,1.65,4.31,4.66,6,7.35a42.35,42.35,0,0,0,19.21,16c4.91,2,10.86,3,15.3.1,6.13-4,6.11-12.87,5.41-20.18q-1.37-14-2.71-28.08c-.42-4.29-.57-9.28,2.66-12.13,1.83-1.62,4.37-2.13,6.78-2.59,6-1.13,12.62-2.19,18,.72,5.11,2.75,7.9,8.46,9.43,14.07,2.65,9.74,2.42,20,2.17,30.1l-.79,31.7c-.08,3.47-.21,7.1-1.86,10.16-1.51,2.81-4.14,4.82-6.7,6.74l-38.74,29.16a24.56,24.56,0,0,1-5.83,3.59,29.44,29.44,0,0,1-7.18,1.31c-19.7,2.26-37.67,12.41-53.43,24.44a225.82,225.82,0,0,0-19.66,16.89l-5.88,4.77c.19,2.82.35,5.76-.71,8.39s-3.35,4.75-5.5,6.73a194.56,194.56,0,0,0-18,19.09c2.39-1.41,5.3-1.49,8.07-1.53l18.81-.3.14.57a173.77,173.77,0,0,0-16,14.54,49.09,49.09,0,0,1,14.32-.15,44.2,44.2,0,0,0-11.77,9c-.63.67-1.28,1.58-.93,2.42,3-.2,6.56-.18,8.39,2.23l.22.18a20.08,20.08,0,0,0-8.16,18.18,9,9,0,0,1,4.7-2.09,4,4,0,0,1,4.14,2.49,5.12,5.12,0,0,1,0,2.46c-1.42,6.64-7.24,11.32-12.91,15.06,5.06.48,9.12,4.24,12.75,7.79l.07.77-5.19,3.12a29,29,0,0,0-6,4.38,9.63,9.63,0,0,0-3,6.64,11.86,11.86,0,0,1,6.29-2.45,24.31,24.31,0,0,0-5.93,9,20.39,20.39,0,0,1-1.65,3.87c-1.53,2.37-4.26,3.61-6.84,4.72l-1,1.15a20,20,0,0,0,.22,4.95l.15,3.56a139.06,139.06,0,0,1-13.33,8.69,23.08,23.08,0,0,1,17.2,9.35l1.1.53a9.87,9.87,0,0,0,2.26,4.45c1.22,1.16,3.34,1.55,4.56.38,2,7.55.16,15.92,3.28,23.07,2.08,4.76,6.27,8.76,6.65,13.95-.39-2.57.8-5.11,2.24-7.26s3.2-4.14,4.2-6.52c1.15-2.73,1.23-5.76,1.3-8.71l.91-2c3-.54,6,1.33,8,3.69l3-5.15c-.25-8.22,9.76-12,16.53-16.64,7.19-5,11.72-12.8,16.39-20.17a262.57,262.57,0,0,1,16.44-23.05,7.37,7.37,0,0,1,2.81-2.46c2.61-1,5.48,1.34,6.35,4s.44,5.56.6,8.36c.46,8.25,8.74,16.42,16.47,13.48,8.31-3.17,8.73-14.94,14.68-21.56a15.84,15.84,0,0,1,20-2.45c8.45,5.71,9.07,17.6,12.75,27.11,2.36,6.11,6.49,11.78,12.34,14.73s13.53,2.7,18.44-1.64c7.61-6.74,5.65-18.74,6-28.9a52,52,0,0,1,5.1-20.5,10.14,10.14,0,0,1,3.39-4.41c3.21-2,7.35-.34,10.72,1.34l15.4,7.67c5,2.51,11.18,5,16.06,2.18,2.08-1.2,3.56-3.22,5.53-4.59,6.3-4.4,14.88-1,21.78,2.42s15.76,6.45,21.71,1.58c3.89-3.19,4.92-8.75,4.59-13.77s-1.76-10-1.68-15c.29-19,20.62-31.34,26.83-49.28,5.44-15.72-.68-33.69,4.78-49.4l4.08-9.57c9.34-9,3.85-25.06,8.47-37.2,1.5-3.93,4-7.37,5.88-11.16C1974.64,1822.67,1963.18,1799,1946.34,1785.89ZM1227.4,695.94l-3.76-6-4.29-2.27c-1.44-1.4-2.94-2.89-3.45-4.83-.4-1.5-.16-3.1-.45-4.62-1-5.2-7.41-7.75-9-12.8-.82-2.65-.15-5.64-1.25-8.19-1.21-2.79-4.28-4.41-5.55-7.17-1.59-3.42,0-7.67-1.62-11.1-1.27-2.77-4.31-4.35-5.87-7-1.27-2.13-1.43-4.71-1.51-7.17a3.73,3.73,0,0,1,.4-2.25l-.31-6.26a129.66,129.66,0,0,0-6.9-26.34c12.88,12.13,24.5,25.53,35.66,39.26,4.35,5.34,8.64,10.74,12.73,16.29,21.38,29,37.08,61.76,52.65,94.27A265.37,265.37,0,0,1,1227.4,695.94ZM941.19,464.38l.08,4.83v3.32L935,470.75a136.91,136.91,0,0,1-34.84-12.48l-16.64-4.93c-9.1-4.09-19.16-5.46-29-6.79l-43-11.31q-31-11-61.27-23.72c-5.43-2.28-10.92-4.61-16.75-5.41s-12.15.12-16.74,3.8c-3.19,2.56-5.34,6.25-8.66,8.62s-7.48,3.2-11.53,3.55c-5,.43-10.62-.06-13.81-3.88-2.38-2.85-2.76-6.86-2.65-10.57a55.89,55.89,0,0,1,6.76-25.05c1.19-2.21,2.59-4.53,2.32-7-.44-4-4.94-6.71-5-10.71l-2.54-5.29a38.06,38.06,0,0,0,13.68-5.76l8.58.9a70.1,70.1,0,0,0,25,4.23c6.8-.09,13.95-1.11,20.13,1.73,4.8,2.2,8.29,6.43,12.06,10.12,13.84,13.56,32.58,20.65,50.74,27.4,7.85,2.91,15.85,5.86,24.22,6.26,8.06.39,16.43-1.57,24,1.1,4,1.41,7.48,4,11.07,6.31,13.23,8.48,28.53,13,43.59,17.45l13,7.31c1.76,2.36,3.74,4.57,5.45,7C937.46,449.72,939.87,457,941.19,464.38Z"></path>
    <path data-name="7a" data-official="" data-plain="Calyx scale" data-loc="" d="M335.6,2604.78a98.88,98.88,0,0,1-9.86-34.72c-.53-5.74-.19-12.38,4.27-16,1.78-1.46,4-2.24,6-3.46,4.15-2.55,6.87-6.84,10.44-10.15s9.05-5.61,13.25-3.14c3.21,1.88,4.48,5.86,5.05,9.54s.76,7.6,2.77,10.73c1.75,2.71,4.65,4.48,6.57,7.07,3,4,3.17,9.4,3.25,14.4s0,10.53-3.31,14.32c-2.67,3.07-7.11,4.51-9,8.12a14.22,14.22,0,0,0-1.26,5.49c-.24,2.93-.38,6,.75,8.7s3.17,4.55,5,6.62c4.92,5.49,8.55,12.38,9,19.73a8.49,8.49,0,0,1-.45,3.85c-.81,2-2.76,3.22-4.73,4a36.17,36.17,0,0,1-10.64,2.05q-12.19,1-24.45,1.14a15.14,15.14,0,0,1-5.77-.73,9.82,9.82,0,0,1-5.27-6,21.67,21.67,0,0,1-.92-8.1,57.29,57.29,0,0,1,7.7-26.6Z"></path>
    <path data-name="7b" data-official="" data-plain="Winged Seed" data-loc="" d="M223.44,2604.64c-1.41-6.81-8.68-10.37-13.56-15.32a24.18,24.18,0,0,1-6.3-22.76c2.15-7.95,9.27-14.46,17.46-15.39,3.84-.44,8,.22,11.37-1.65,3.11-1.72,4.88-5.24,7.93-7.07a17,17,0,0,1,6.56-1.84q8.61-1.16,17.29-1.47a5.56,5.56,0,0,1,2.3.26c2.14.91,2.23,3.89,3.53,5.83a7.29,7.29,0,0,0,5.65,2.76c2.17.15,4.33-.23,6.51-.26a19.56,19.56,0,0,1,19.74,20.66c-.5,8.76-6.65,16-10.45,23.92-5.77,12-6.17,25.86-4.75,39.08a49,49,0,0,1,.49,9.89,13.64,13.64,0,0,1-3.95,8.85c-2.67,2.42-6.41,3.2-10,3.75a153.39,153.39,0,0,1-37.87,1.18,12.25,12.25,0,0,1-5.79-1.56c-3.87-2.58-3.79-8.19-3.3-12.81,1-9.9,1.94-20-.12-29.74Z"></path>
</svg>
