
<svg xmlns="http://www.w3.org/2000/svg" viewBox="0 0 1926 2658" id="illustration" preserveAspectRatio="xMidYMid meet">
    <title>Coniferaceæ</title>
    <path data-name="1" data-official="Pinus maritima" data-plain="Sea-coast Pine" data-loc="South coast, Europe" d="M45.82,1710.89a375.6,375.6,0,0,0-11,66.46c-.31,4.08-.53,8.32.91,12.15,2,5.22,6.65,8.88,9.64,13.59,3.24,5.11,4.35,11.24,5.26,17.21,1,6.8,1.87,14-1,20.31-1.77,3.92-4.83,7.1-7.1,10.76a30.47,30.47,0,0,0-3.38,24.11c1.74,6.11,5.35,11.5,7.81,17.37a48.88,48.88,0,0,1,2.2,31.08l-1.36,10.19c.85,16.5-19.24,28.83-17.64,45.28.85,8.67,7.57,15.43,11.72,23.1a41.43,41.43,0,0,1,4.85,22.5c-.49,6.91-2.72,13.61-3.1,20.53a39,39,0,0,0,6.23,23.28c4.13,6.33,10.24,11.74,11.78,19.13l2,8.2c-.29,6.5-.56,13.15,1.39,19.35s6.6,12,13,13.39c3.34.74,6.87.24,10.21,1,6.94,1.57,11.6,8.18,14.1,14.84s3.55,13.87,6.82,20.19c2.67,5.17,7.85,10,13.58,9,3.76-.64,6.7-3.62,10.34-4.8,6.16-2,12.57,1.48,18.85,3A32.86,32.86,0,0,0,186.07,2159c2.73-4,4.7-8.87,8.76-11.56,6.14-4.06,14.56-1.7,21.45-4.29,9-3.4,12.84-14,14.52-23.53s2.78-20,9.67-26.77c4.52-4.42,11-6.64,14.82-11.71,3-4,3.79-9.21,5.52-13.91a36,36,0,0,1,19.76-20.55c6.78-2.81,14.72-3.68,20-8.81,4.2-4.1,5.82-10.13,9.22-14.91,6.5-9.14,18.83-12.85,25-22.21,11.57-17.48-4.4-43.47,6.82-61.18,2.14-3.38,5.15-6.17,7-9.73,5.91-11.51-1.7-28.27,7.76-37.1,5.67-5.3,14.82-4.67,21.25-9,9.17-6.17,9.41-19.33,8.67-30.36l-.65-7.62c.1-5.78.94-12.76,6.21-15.14a23.15,23.15,0,0,1,5.64-1.22,23.84,23.84,0,0,0,18.87-18.53l23.24,18.38a4,4,0,0,1,1.32,1.45c.65,1.43-.47,3-1.39,4.26-6.08,8.36-6,20-2.4,29.66s10.25,17.88,16.79,25.89c-7,6.56-9.61,16.76-9.09,26.34s3.8,18.75,7.05,27.78l3.12,3.27c5.33,4.74,10.84,9.73,13.45,16.37a41.21,41.21,0,0,1,2.24,10.51,212.42,212.42,0,0,1,1.37,22.7,7.38,7.38,0,0,0-4.22-2.47,38.8,38.8,0,0,1,1.45,14l-1,6.69c-1.12,3-4.06,4.83-6.93,6.19s-6,2.51-8.12,4.86a12.55,12.55,0,0,0-2.55,4.53,32.81,32.81,0,0,0-1.34,7.32q-.66,6.48-1,13a47.47,47.47,0,0,0,.1,8.92c.55,4.15,2.1,8.09,3.43,12.07A139.17,139.17,0,0,1,456,2088.2a17.68,17.68,0,0,1,.43,7.47c-.71,3.23-3,5.8-4.87,8.55s-3.25,6.25-1.95,9.28l.16,7.67a269.94,269.94,0,0,1,15,108.9c-.33,4.74-.77,9.58.46,14.17s4.55,8.94,9.19,9.93c1.81.38,3.69.24,5.51.51,8.73,1.3,13.92,11.37,22.53,13.26,16.51,3.63,27.14-24,43.81-21.18,5.59.93,9.91,5.21,14.6,8.38,10.3,7,24.65,8.74,35.21,2.17s15-22.3,7.69-32.32c-1.8-2.45-4.18-4.52-5.42-7.29-3.5-7.81,3.31-15.95,8.13-23,12.45-18.28,13-42.17,9.82-64.07s-9.51-43.49-9.19-65.61c.2-14.2,2.32-30.76-8.12-40.39a18.46,18.46,0,0,1-3.48-3.53,11.93,11.93,0,0,1-1.39-5.7c-1.36-22.91,7.57-45.05,11.06-67.74.84-5.49.93-12.11-3.54-15.41l-4.59-.6a32.37,32.37,0,0,0-22.61,5.75c.81-12.6,5-24.71,9.12-36.64l4-11.62c1.37-3.92,2.76-7.91,5.18-11.28a37.15,37.15,0,0,1,8.59-8l1.19-3.2c2.52-7.81-2.2-16.24-1.26-24.4.23-1.94.64-4.27-.84-5.53a4.5,4.5,0,0,0-2.17-.86,16.16,16.16,0,0,0-5.76,0l-3.36-1.35-3.39.48c-.46.07-1,.09-1.3-.28a1.17,1.17,0,0,1-.18-.69c-.16-4,2.58-7.62,2.7-11.62.1-3.59-1.93-7.12-1.2-10.64.56-2.76,2.76-5.12,2.69-7.93l.23-2.85q1.06-6.46,2-13l-.63-3.34a9.5,9.5,0,0,1-.78-3.21,4.31,4.31,0,0,1,1-3.08c.94-1,2.41-1.36,3.38-2.32a3.63,3.63,0,0,0,1-3.33l-.8-1.66c-.75-1-.51-2.42-.23-3.65l1-4.15a2.88,2.88,0,0,1,.87-1.77,6.24,6.24,0,0,1,1.3-.54,3.56,3.56,0,0,0,1.87-2.57,10.31,10.31,0,0,0,0-3.28l-.63-7a14.57,14.57,0,0,0-16.22-13.75l-.6-.72a12.09,12.09,0,0,1,1-4.37,28.74,28.74,0,0,0,1.69-2.87,8.56,8.56,0,0,0,.42-2.13l.57-5.42.22-4.32a35.79,35.79,0,0,1,.43-7.94,6.22,6.22,0,0,1,.44-1.64c.2-.45.49-.85.7-1.29a8.18,8.18,0,0,0,.5-3.91l-.12-5.34.42-4.17a9.3,9.3,0,0,1,.89-3.66c.5-.87,1.27-1.56,1.75-2.44a8.88,8.88,0,0,0,.77-3.69l.45-4.29.52-9.84c.2-3.73.39-7.55-.62-11.15s-3.46-7-7-8.16l-.75-3.38c-1.27-5-.32-10.34,1.37-15.23s4.1-9.49,5.86-14.35a76.29,76.29,0,0,0,3.81-16.48c.84-6.58,1.07-13.4-.91-19.74s-6.51-12.15-12.79-14.31c-1.16-.39-2.46-.74-3.14-1.75a4.81,4.81,0,0,1-.5-2.81,135.4,135.4,0,0,1,5.49-34.45l1.48-4.22c.8-4.44,3.33-8.33,5.32-12.38s3.47-8.75,2.05-13c-1.55-4.68-6.13-7.6-10.49-9.93a6.86,6.86,0,0,1-2.23-1.6,6.41,6.41,0,0,1-1.08-3.42,65.9,65.9,0,0,1,8.57-40.12l3.3-6.78c.71-4.47,1.31-9.45-1.28-13.16a14.56,14.56,0,0,0-4.93-4.07,41.6,41.6,0,0,0-7.12-3.18c-1.42-.47-3-1-3.75-2.24a5.92,5.92,0,0,1-.59-3c-.16-8.45-.31-17.05,1.92-25.21,2.64-9.68,8.59-18.8,7.88-28.81a9.3,9.3,0,0,0-1.24-4.43c-2-3.12-6.49-3.6-9.19-6.18L573,1338l1.81-49.77c.15-4.24,0-9.14-3.31-11.76-2-1.62-5.07-2.15-6.26-4.46a7.58,7.58,0,0,1-.43-4.23c1.49-15.92,5.61-32.21,1.36-47.62l-3.23-7.88c-2.41-7.29-4.87-14.62-8.7-21.27s-9.18-12.64-16.09-16c-12.76-6.14-28.09-2.27-41.82-5.7-3.42-.85-6.79-2.17-10.31-2.17a27.46,27.46,0,0,0-8.71,1.88,24.28,24.28,0,0,0-7.37,3.5c-3.86,3-5.54,8.07-6.52,12.89-2,9.72-2,19.71-1.94,29.62l.15,50.09c0,10.89,0,21.91-2.54,32.49l-.75,5.07-.42,22.21a7.51,7.51,0,0,1-1,4.35,7.15,7.15,0,0,1-2.4,1.88c-15.45,8.59-34.36,10.23-48.69,20.58-2.74,2-5.28,4.25-8.28,5.8s-6.62,2.32-9.74,1c-2.53-1-4.37-3.21-6.25-5.19-10.09-10.66-23.9-17.32-38.24-20.43s-29.23-2.84-43.8-1.11l.56-7c-6.82-14.76-13.8-30.34-12.61-46.56.5-6.85,2.46-13.5,4.51-20.06,19.47-62.07,48.82-120.75,67.41-183.1,4.26-14.28,7.94-28.74,12.58-42.91,13-39.88,33.7-78.09,36.76-119.94l6.39-8.42a254,254,0,0,0,62-52.2c6.79-7.91,13.1-16.22,19.39-24.53l22.51-29.69c6.52-8.6,13.09-17.29,17.68-27.06s7.12-20.84,5.09-31.45l3.85-6.5a116.48,116.48,0,0,0,16.09-20.39l1.09-3.87c4.06-2.1,5.77-6.86,7.85-10.93A27.18,27.18,0,0,1,576,690c2.11-2,4.62-3.55,6.87-5.4s4.31-4.15,5-7l2.65-5.43,1-8.15a4.11,4.11,0,0,1,.33-1.35,4.7,4.7,0,0,1,1.78-1.64,18.38,18.38,0,0,0,7.07-9.19l4.19-4.46a847.22,847.22,0,0,0,50-77.36c7.58-13.26,14.89-27,18.12-41.89l5.2-5.27a665.93,665.93,0,0,0,103.52-86.47,196.19,196.19,0,0,0,13.54-15,212,212,0,0,0,14-20.78q17.55-28.47,33.73-57.75c8.82-16,17.55-32.92,17.56-51.14l3.61-3.35c9.64-7.37,18.15-16.1,26.62-24.8l30.65-31.46c14.88-15.28,29.93-30.77,40.51-49.29q-30.21,1.78-60.48,1.14c-6.67-.14-13.38-.36-20,.6-8.18,1.19-16,4.17-23.68,7.14-26,10-52.47,20.34-73.68,38.35l1.23-5.42a107.37,107.37,0,0,0,6.61-54.4c-.41-2.91-1.83-6.56-4.76-6.39a7,7,0,0,0-3.51,1.8,26.36,26.36,0,0,1-14.8,5.18,49.63,49.63,0,0,0,1.79-25.94,41.8,41.8,0,0,0-21.8,13.88c-3.45,4.2-6,9-9.4,13.31a3.36,3.36,0,0,1-1.63,1.31,2.65,2.65,0,0,1-2-.43c-3.21-1.95-3.55-6.4-3.49-10.15.13-7.18.51-14.66,4-21,3.08-5.61,8.28-9.68,12.95-14.06,12.24-11.49,21.39-25.82,30.42-40,2.66-4.18,5.41-8.64,5.52-13.59a3.16,3.16,0,0,0-.8-2.52,3.37,3.37,0,0,0-2.65-.43C764.71,73.48,750.92,85.72,737.92,97a797,797,0,0,1-96,71.33,117.57,117.57,0,0,1,11.66-54.26c5.82-12,13.94-24.19,12.35-37.45C658,80.05,650,81.5,642,84.94c-3.15,1.36-6.36,2.76-8.87,5.09-3.73,3.45-5.5,8.56-9,12.27l-4.52-1.16c-7.72-18.94,13-39.84,7.65-59.57-1-3.84-3.66-7.81-7.61-8.21-3.46-.35-6.82,2.17-10.22,1.47-7.17-1.46-5.83-13.94-12.48-17-3.15-1.44-6.89-.08-9.77,1.85-7.34,4.94-11.71,13.19-18.13,19.28-4.3,4.07-9.45,7.11-14.4,10.36-14,9.16-26.61,20.14-39.22,31.08,3.89-10.61,7.8-22.23,4.23-32.95Q499.92,59.27,481.31,73c-.7-6-2.62-13.49-8.59-14.66-2.38-.47-4.8.26-7.11,1l-17.53,5.54c3.59-9.89-3.94-22.14-14.38-23.42a7.64,7.64,0,0,0-5.48,1,9.65,9.65,0,0,0-2.76,4.17c-8.88,20.46-17.88,41.38-19.8,63.6-.58,6.67-.52,13.44-2.17,19.92-3.28,12.83-12.8,23-22,32.52,2.23-15,4.47-30.17,2.28-45.13-.86-5.89-2.39-11.69-2.79-17.63-.55-8.42,1.22-16.85,1-25.29-.1-3.75-.75-7.82-3.51-10.36s-8.16-2.23-9.4,1.31L363,72c-13.55,6.27-18.6,22.45-23.89,36.41a195,195,0,0,1-28.2,50.29,101.63,101.63,0,0,0,10.57-55.84c-.73-7.43-2.83-15.61-9.18-19.54s-17.15.75-15.76,8.08c-4.53-6.46.25-18.09-6.74-21.74-3.91-2-8.6.42-12.16,3a104.41,104.41,0,0,0-31.3,36.9,127.18,127.18,0,0,0-2.19-32.87c-.43-2.15-1-4.48-2.83-5.75-3.32-2.35-7.78.57-10.58,3.54a88.59,88.59,0,0,0-16.57,25c-.48-5.73-8.1-8.5-13.39-6.26s-8.53,7.55-11.15,12.66c-11.07,21.59-17.41,45.24-23.67,68.69.44-23.35.59-47.95-10.8-68.34-1.54-2.75-3.7-5.67-6.84-6-5.49-.52-7.94,6.66-8.49,12.15q-3.37,34-6.74,67.93c-5.09-15.86-10.3-32-19.76-45.68s-24-24.89-40.57-26.29c-2.69-.23-5.85,0-7.37,2.26-1,1.45-1,3.33-.93,5.08l1.56,60c1.12,43.22,2.27,86.61,9.66,129.21a445.05,445.05,0,0,0,26,90.84l2,6.17c-3.51,11.94-5.17,24.33-6.81,36.67l-5,37.75c-4.54,34-9.09,68.15-9.65,102.47A444.23,444.23,0,0,0,105.69,728.6l5.13,7.52c-8.24,17.36-10.73,36.83-12.23,56a631.77,631.77,0,0,0,70.71,342.19l3.07,5.69c-1.1,10.75,3.81,21.27,10.19,30s14.3,16.22,20.62,25a86,86,0,0,1,12.43,24.93l-7.38,4.57a6.72,6.72,0,0,0-2.15,1.8,6.28,6.28,0,0,0-.64,4c1.43,17.47,11.71,33.22,13.58,50.65.09.86-.25,2.13-1.1,1.93l-4.65,3.37c-2.24,9.32,2.78,18.62,6.38,27.5a99.47,99.47,0,0,1,6.09,22,3.73,3.73,0,0,1-.36,2.89,3.59,3.59,0,0,1-1.64,1,67.33,67.33,0,0,1-28.73,4.22c-5.18-.37-10.61-1.31-15.43.63-8.65,3.5-11.27,14.14-15.73,22.34-7.13,13.12-20.58,21.32-33.2,29.31s-25.69,17.21-31.16,31.11c-3.51,8.9-3.59,19.11-8.57,27.28l-1.29,9.62C87,1477,80.68,1488.72,76,1501a148.6,148.6,0,0,0-6.85,80.82,9.31,9.31,0,0,1,.17,4.35,8.92,8.92,0,0,1-2,3.2l-11.08,12.86c-8.61,10-17.78,21.85-15.73,34.88.67,4.28,2.54,8.27,4,12.36,5.59,16,4.38,33.44,3.1,50.33Z"></path>
    <path data-name="1a" data-official="" data-plain="Stamen" data-loc="" d="M89.62,2530.12a723.19,723.19,0,0,1-4-83.11c.1-10.67.46-21.46,3.39-31.71,2.37-8.32,6.38-16.08,10.58-23.64s8.56-14.88,14.76-20.72c7.84-7.38,18-11.72,27.92-15.92,5-2.09,10-4.21,15.33-4.8s11.14.56,15,4.27c3,2.81,4.6,6.85,7.77,9.42,4.4,3.58,10.6,3.52,16.1,4.9s11.37,6.1,9.91,11.58c-1.33,5-7.56,6.56-12.7,7.3a422.55,422.55,0,0,0-46.86,9.46c-2.61.68-5.32,1.45-7.3,3.28-3.53,3.24-3.67,8.67-3.53,13.47,1.24,43.3,3.93,87-4.24,129.58-1.38,7.2-3.07,14.58-1.71,21.79s5.62,13.41,7.81,20.35,1.55,15.88-4.62,19.75a20.29,20.29,0,0,1-6.65,2.3,185.89,185.89,0,0,1-44.88,4.06c-3.4-.11-7.06-.41-9.66-2.61s-3.52-5.87-3.56-9.29c-.13-10.9,6.75-20.45,12.88-29.46s12-19.62,9.62-30.26Z"></path>
    <path data-name="1b" data-official="" data-plain="Section of Seed" data-loc="" d="M167.54,2570.16c2.06-5.63.71-12-1.87-17.42s-6.28-10.2-9.28-15.39c-11.52-20-11.64-44.34-10.78-67.39.47-12.69,1.19-25.56,5.28-37.58s12-23.27,23.55-28.62c13.17-6.11,29.38-3.44,41.39,4.72s20.12,21.16,24.69,34.94,5.89,28.42,6.55,42.93c1.22,27.06-.36,56.14-16.46,77.94-2.84,3.84-6.14,7.48-7.73,12-1.24,3.51-1.33,7.32-1.32,11q0,8.08.73,16.13c.24,2.77.53,5.64-.34,8.29-2.11,6.43-9.83,8.87-16.54,9.81a119.05,119.05,0,0,1-26.21.76c-6.35-.52-13.94-2.63-15.55-8.79-1.09-4.18,1.15-8.4,2.69-12.43a40.51,40.51,0,0,0,2.17-20.71Z"></path>
    <path data-name="1c" data-official="" data-plain="Many Coyledons of Seed" data-loc="" d="M669.63,2617c-5.17-2.31-6.19-9.51-4.25-14.83s5.92-9.65,8.4-14.75c4.35-9,3.7-19.45,3-29.39l-6.6-88.55c-.86-11.46-1.9-23.5-8.24-33.09-4.44-6.71-11.08-11.6-16.64-17.41a68.7,68.7,0,0,1-17.73-34.33c-1-5.14-1.2-11,2.12-15,3.53-4.29,9.72-5,15.27-5.33q14.19-.8,28.43-.74c13.39,0,27.57.91,38.63,8.45a18.81,18.81,0,0,1,6.84,7.44,19.39,19.39,0,0,1,1.38,8.1c-.11,15.55-8.93,29.66-18.8,41.68-3.22,3.92-6.67,7.88-8.16,12.73a34.46,34.46,0,0,0-1.08,9.83q-.09,10.5.33,21a99,99,0,0,0,2.21,19.36c1.64,6.79,4.54,13.2,6.67,19.86,6.24,19.43,5.89,40.57,12.72,59.8,2.72,7.65,6.57,15,8,23s0,17.2-6.27,22.37c-9.27,7.66-23.15,3-35,4.92Z"></path>
    <path data-name="1d" data-official="" data-plain="Scale and Seed" data-loc="" d="M766.34,2606.43c4.68-3.61,6.68-9.87,6.56-15.78s-2.06-11.62-4-17.21q-19.84-57.75-39.71-115.51c-5.77-16.79-11.54-35.3-5.14-51.87,1.56-4,3.84-7.92,4.34-12.23.92-8-4.42-15.27-6.33-23.1-3.91-16,6.6-31.55,16.53-44.65,7.14-9.4,14.55-19,24.79-24.91,6.24-3.58,13.25-5.56,20.2-7.39,6.79-1.78,13.72-3.46,20.74-3.22,12.93.44,24.76,7.32,35,15.17s19.79,16.9,31.24,22.94c4,2.09,8.26,3.87,11.45,7,6.77,6.74,6.73,17.53,6.25,27.07-1.13,22-2.55,45-13.82,63.92-2.21,3.71-4.78,7.23-6.58,11.16-2.68,5.87-3.51,12.4-4.29,18.81-3.65,30.13-7,60.72-18.28,88.91-4.56,11.41-10.5,23.06-9.17,35.27,1.23,11.37,8.55,23.51,2.65,33.3-4.17,6.94-13.15,9-21.17,10a270.6,270.6,0,0,1-34.72,2.25c-4.82,0-9.89-.19-14-2.71s-6.69-8.16-4.27-12.32Z"></path>
    <path data-name="1e" data-official="" data-plain="Seed" data-loc="" d="M864.82,2479.25l.45,31.53c.1,6.75.2,13.55,1.51,20.17,1,4.93,2.61,9.87,2,14.86-.66,5.59-4,10.52-5.13,16-1.94,9.84,4.76,20.59,14.45,23.18,3.92,1,8.06.88,12.12.7l13.9-.61c3.7-.16,7.56-.37,10.76-2.23,4.19-2.43,6.39-7.17,8.08-11.71,1.43-3.83,2.7-7.94,2-12-.46-2.56-1.69-4.92-2.31-7.45-1-4-.38-8.26.13-12.39,2.84-22.8,2.44-45.87,1.93-68.84-.29-13-.65-26.11-4.57-38.46-1.81-5.7-4.58-11.43-9.5-14.84-6.68-4.65-15.58-3.95-23.67-3.06l-7.53,2.54a74.2,74.2,0,0,1-5,10c-2.21,3.71-4.78,7.23-6.58,11.16-2.68,5.87-3.51,12.4-4.29,18.81Z"></path>
    <path data-name="1f" data-official="" data-plain="Section of Seed" data-loc="" d="M936,2566.27c3.42-7.6,6.91-15.55,6.59-23.89-.29-7.47-3.63-14.45-5.39-21.72-1.7-7-1.93-14.24-2.16-21.43l-1.45-45.95c-.19-6.2-.38-12.47,1-18.51s4.58-11.91,9.8-15.24a28.35,28.35,0,0,1,11-3.65,38.73,38.73,0,0,1,15.69.38c10,2.62,17.73,10.78,22.17,20.06s6,19.66,7,29.89a375.06,375.06,0,0,1,.95,65.75,73.65,73.65,0,0,1-1.95,13.72,75.69,75.69,0,0,1-5,12.61c-3.29,7.05-6.92,14.25-12.93,19.18-8.91,7.29-21.26,8.25-32.75,8.9a15.24,15.24,0,0,1-6.21-.5c-4.86-1.8-6.52-7.73-7.24-12.86Z"></path>
    <path data-name="2" data-official="Juniperus communis" data-plain="Juniper" data-loc="Britain" d="M1060.51,1814.51a57.13,57.13,0,0,0-1.46-19.2,35.73,35.73,0,0,0-9.44-16.6c6.9,1.12,13.08,4.81,19.07,8.42,2.07,1.25,4.22,2.58,5.47,4.65,1,1.73,1.41,3.91,2.88,5.29,2.42,2.25,6.29,1.22,9.38,0-1.35-9.09-2.58-18.8,1.3-27.14a16.14,16.14,0,0,1,5.24,15.68,192.62,192.62,0,0,1,16.48-19.82c1.43,6.61-.89,13.39-3.18,19.75a12.58,12.58,0,0,1,8.43-3.77,2.42,2.42,0,0,1,1.48.29,2.52,2.52,0,0,1,.87,1.6,18.2,18.2,0,0,1,.47,5,61,61,0,0,1,19.27-9.52l2.09-.75a5.63,5.63,0,0,1,5.76.75,16.43,16.43,0,0,1,3.9,4.66l8.28,12.79a53,53,0,0,0,7.56,9.9c1,1,2.26,1.91,3.66,1.78a4.7,4.7,0,0,0,2.61-1.42,22.48,22.48,0,0,0,6-10.12,55.91,55.91,0,0,0,1.93-11.73c.26-3.06.45-6.13.63-9.19a17.86,17.86,0,0,1,.89-5.4,18.29,18.29,0,0,1,1.75-3.19l2.36-3.66c.8-1.25,1.81-2.63,3.29-2.74s2.81,1.27,3.46,2.69,1,3,2,4.22c2.34,2.87,6.91,2.11,10.27,3.65a15.55,15.55,0,0,1,4.51,3.62l1.45,4a8.81,8.81,0,0,0,.29,3.36,6.16,6.16,0,0,0,4.27,3.46,29.64,29.64,0,0,0,5.66.63,30.92,30.92,0,0,1,14.09,4.72l1.09,1.31c-1.37,9-7.27,16.49-13,23.55l-1.53,3.59-2.36,3.14-.57,1.74a61.66,61.66,0,0,1,17.31,11.48,37.31,37.31,0,0,1,10.48,17.73c.2.65.21,2.28.41,2.93a106.66,106.66,0,0,0-36.1-21.8l-3.82,1.8a8.32,8.32,0,0,0-7,1.62,24.68,24.68,0,0,0-5,5.44l-2.33,3.1,6,4.46c5.53,1.16,11.3,2.42,15.68,6a44.9,44.9,0,0,0,4.59,3.82c1.53.94,3.3,1.45,4.88,2.32,3.85,2.1,6.31,6.14,10,8.52,1.23.79,2.58,1.38,3.84,2.13a17.46,17.46,0,0,1,3.19,2.43l1.54.61a38.09,38.09,0,0,1,8.26,4.75,18,18,0,0,1-9.65,2.48,14.86,14.86,0,0,1-3.51-.43,20.84,20.84,0,0,1-2.83-1q-6.76-2.87-13.26-6.33c-2.64-1.42-5.33-2.94-8.3-3.3a22.46,22.46,0,0,0-6.58.49,7.48,7.48,0,0,0-3.59,1.29,5.25,5.25,0,0,0-1.61,2.74,13.17,13.17,0,0,0,.58,7.59c.83,2.43,2.06,4.72,3,7.1a52.43,52.43,0,0,1,3.45,16.9l2.55,5.6-18.93,26.38c5.9,3.15,13.31.7,19.73,2.57a7.18,7.18,0,0,1,4,2.47,8.07,8.07,0,0,1,1.19,3.47,25.48,25.48,0,0,1-.68,10.74c-.81,2.86-2,6.22-.17,8.53s6,1.7,8.62,0c5.79-3.68,9.36-10.48,15.67-13.14a14.6,14.6,0,0,1,17.72,6c1.25,2.15,2.27,4.94,4.7,5.48,1.61.36,3.23-.47,4.68-1.27l14.27-7.92a12.62,12.62,0,0,1,5-1.9c4.2-.29,7.41,3.51,9.87,6.93l8.67,12.09c.89,1.24,2.08,2.62,3.59,2.44a3.92,3.92,0,0,0,2.13-1.22c4.08-3.82,6.92-9.16,12-11.6,5.18-2.52,11.5-1.25,16.59,1.45s9.36,6.68,14.1,10l2.72,3.61a179.85,179.85,0,0,0,27.61,29.76c1.91,1.63,3.93,3.35,4.74,5.73.72,2.13.34,4.46-.07,6.68a65,65,0,0,1-4,14.54,25.26,25.26,0,0,1-9.47,11.5c-3.59,2.19-7.77,3.15-11.87,4.08l-8.45,1.9,1.14,3.29c1.85,3.82,2.49,8.55.36,12.22-2.31,4-7.07,5.62-11.35,7.28a99.3,99.3,0,0,0-21.66,11.67c-1.82,1.3-3.72,2.71-6,3-4.6.54-8.84-4-13.36-3-2.67.6-4.56,3-5.67,5.51s-1.66,5.24-2.91,7.67A14.94,14.94,0,0,1,1288,2108c-7.13,4.08-16.71,1.83-23.64,6.25a6,6,0,0,0-2,1.87,6.22,6.22,0,0,0-.7,2.85c-.45,8,4.47,15.19,9.17,21.68l3.9,5.81c3.26,6.29,10.19,9.56,16,13.66a52.89,52.89,0,0,1,20.06,28.35,85.09,85.09,0,0,1,2.69,18.06q.6,9.76.34,19.56a22,22,0,0,1-.83,6.42,8.06,8.06,0,0,1-4,4.91L1305,2240a30.68,30.68,0,0,1-28.7,6.17l-6.42,9.59a7.13,7.13,0,0,1-2.26,2.46,6.27,6.27,0,0,1-3.56.51c-6.89-.56-13.1-4.42-18.33-8.94s-9.79-9.79-15.22-14.07c-3.4,6.16-7.89,13.05-14.89,13.68-5.94.54-11.32-3.94-14.18-9.18a6.69,6.69,0,0,0-2-2.68c-1.14-.72-2.6-.58-3.94-.48-11.32.89-24-3.06-29.5-13a4,4,0,0,0-1.38-1.73,3.79,3.79,0,0,0-2.62-.08c-5.74,1.17-12.25,1.51-16.88-2.08-5.17-4-6.23-11.57-10.91-16.15-4.27,3.08-9.38,6.32-14.43,4.83-3.76-1.11-6.26-4.52-8.73-7.56a77.73,77.73,0,0,0-19.54-17.15l-.13,3.15c3.09,4.16,4.67,9.65,3.34,14.65s-6,9.22-11.13,9.25c-5.45,0-10-4.19-13.07-8.69a5.38,5.38,0,0,0-2.13-2.15c-1.86-.78-3.79.8-5.31,2.13-13.34,11.76-33,11.71-50.8,11-7.92-.3-16.44-.82-22.63-5.78-7.48-6-9.27-16.65-15.1-24.28-6.93,7.42-10.4,17.36-16,25.85a60.63,60.63,0,0,1-15.21,15.88c-2.3,1.66-5.06,4.1-4,6.74a5,5,0,0,0,2,2.19c3.61,2.47,8.16,2.93,12.36,4.16s8.59,3.85,9.41,8.14c.77,4.09-2.08,8.06-5.51,10.41s-7.49,3.63-11,5.85a4.49,4.49,0,0,0-1.94,1.94c-.55,1.33.13,2.81.7,4.12a35.14,35.14,0,0,1,2.28,21.15,4,4,0,0,1-1.28,2.6,4.2,4.2,0,0,1-2.62.57c-19.5-.35-36.37-13-51.38-25.51a12.44,12.44,0,0,0-4.92-2.94,12.29,12.29,0,0,0-5,.25l-18.68,3.51-5,.64a74.53,74.53,0,0,1-27-.09c-7.63-1.44-15.26-4.08-23-3.08-12,1.55-21.21,11.47-32.84,14.62-3.7,1-7.57,1.3-11.35,2-8.16,1.48-15.86,4.8-23.47,8.08l-3.92,1c-10.85,4.89-21,11.19-31.09,17.48-6.57,4.08-13.14,8.17-19.42,12.69a172.93,172.93,0,0,0-19.75,16.61,34.71,34.71,0,0,1-7.16,5.95c-5.4,3-12,2.57-18.09,2l-.7-3.48c-4.71-3.42-.93-11.62-4.3-16.37-3.89-5.49-12.86-1.78-19-4.5s-7.52-10.73-6.61-17.31a34.6,34.6,0,0,1,8.51-18.91c4.79-5.13,11.76-8.4,18.77-8,8.11.49,15.76,5.68,23.8,4.47,6.63-1,11.75-6.09,16.9-10.38,18.93-15.74,43.39-22.94,67.29-28.81,10.31-2.54,21.61-5.52,27.67-14.24,3.86-5.55,4.9-12.52,5.82-19.21l5.4-39c1-7.24,2.09-14.7,5.81-21s10.82-11.19,18-10.06c2.06.32,4.12,1.1,6.16.69,5-1,5.9-7.71,5.64-12.82l.41-7.51a13.43,13.43,0,0,0-10.8-14.7c-3.66-.56-7.37.46-11.07.69s-7.93-.65-9.89-3.8c-4.06-6.54,5.11-14.8,2.81-22.15-.95-3-3.76-5.19-6.73-6.39s-6.17-1.64-9.25-2.52c-5.92-1.71-11.23-5-16.46-8.28l-13.09-8.18c-3.24-2-6.58-4.14-8.76-7.28s-2.95-7.6-.78-10.75c2.59-3.76,8.73-5.14,9.18-9.69.28-2.81-2.1-5.32-4.78-6.22s-5.59-.6-8.41-.39a116,116,0,0,1-27.54-1.24l-4.71-2.46c-3.64-.69-5.45-5-5.48-8.67s1.08-7.43.45-11.08c-1.18-7-8.39-12.85-6.57-19.67.68-2.57,2.61-4.72,3-7.35.77-4.7-3.37-8.64-7.19-11.48-7.52-5.58-15.43-10.68-22.22-17.12s-12.5-14.47-14.23-23.67c-.44-2.35-.55-5,.85-6.91,1.13-1.54,3-2.33,4.38-3.65,4-3.84,2.66-10.46,4.34-15.75a14,14,0,0,1,13.68-9.43c3.5.2,6.88,1.74,10.39,1.61,5.83-.23,11.8-5,16.93-2.21,1.81,1,3.12,2.77,5,3.48,4.33,1.6,8.61-3,13.23-3,4.33,0,7.47,4,9.92,7.55L743,1911.69c6.23-2.41,6.45-12.19,12.44-15.14s12.54,3,14.56,9.25c1.29,4,2,8.77,5.69,10.7,6.82,3.57,16-6.69,22-1.86,4.53,3.63,3,13.41,8.73,14,3.49.37,6.22-3.65,9.72-3.49,4.75.22,6.17,7.43,10.74,8.76,2.69.78,5.42-.77,8.13-1.5,6.7-1.81,13.69,1.48,20.62,1.42,1.78,0,3.77-.38,4.79-1.83,2.16-3.06-1.71-6.58-3.79-9.69-4.33-6.44,1.23-16.75,9-16.68,2.13,0,4.53.6,6.21-.71,1.39-1.08,1.69-3,1.93-4.74,2.25-16.38,9.38-33.69,24.22-41l3.27-2c1.07-2.72,3.82-4.44,6.61-5.34s5.74-1.21,8.5-2.16c1.7-.58,3.4-1.42,5.19-1.29a22,22,0,0,1,3.72,1c2.75.72,5.67.13,8.4-.66s5.45-1.79,8.29-1.87,5.92.94,7.42,3.35l4.16.21,10.81-3.61a9.15,9.15,0,0,1,3.36-.67c2.77.15,4.86,2.88,5.17,5.64s-.75,5.47-2,8c-.64,1.29-1.31,2.93-.42,4.07a3.73,3.73,0,0,0,1.47,1l20.58,9.45c2.24,1,4.7,2.08,7.1,1.49a2.9,2.9,0,0,0,2.28-1.93c.37-1.59-1.24-2.86-2.5-3.9a14.44,14.44,0,0,1-4.72-7.06,19.15,19.15,0,0,1-.18-8.75c1.5-8.42,6.81-16.52,14.8-19.56,3-1.16,6.86-2,7.87-5.12.37-1.14.26-2.39.64-3.53,1-3.11,5-3.94,8.3-3.8,7.16.32,14.67,2.78,21.24-.07Z"></path>
    <path data-name="2a" data-official="" data-plain="Stamen flowers" data-loc="" d="M259.14,2583.63c-1.09-6.47-2.15-13.26,0-19.46,1.77-5.1,5.56-9.3,7.43-14.36,2.33-6.33,1.44-13.4-.42-19.89s-4.63-12.69-6.08-19.28c-1.27-5.76-1.51-11.69-1.74-17.59-.68-17.31-1.36-34.64-1.05-52,.06-3.55.24-7.33,2.27-10.25a15.37,15.37,0,0,1,5-4.19,45.46,45.46,0,0,1,33.72-4.83c3.57.9,7.26,2.41,9.31,5.47,1.69,2.51,2,5.66,2.29,8.67,2.82,30.73,5.62,61.84.74,92.3-1.32,8.22-3.2,16.56-1.9,24.79.94,6,3.51,11.56,4.9,17.43s6.43,12.58,2.78,17.4c-3.23,4.27-8.68,6.19-13.91,7.35-7.38,1.63-20,2.19-27.55,1.65-5.6-.39-12.07-2.09-14.15-7.3Z"></path>
    <path data-name="2b" data-official="" data-plain="Scale and Anthers" data-loc="" d="M336.69,2579.67c-1.09-5.3,1.46-10.61,1.88-16,.89-11.43-7.77-21.63-8.42-33.08-.69-12.24,8.67-23.74,20.36-27.46s24.85-.51,34.92,6.48a20.14,20.14,0,0,1,6.26,6.2,19.79,19.79,0,0,1,2.17,7.07,47.11,47.11,0,0,1-1.11,19.09,32.12,32.12,0,0,0-1.4,6.37c-.19,3.72,1.37,7.27,2.52,10.82a50.89,50.89,0,0,1,2.51,15.53c0,5.24-.93,10.84-4.55,14.61-4.07,4.23-10.39,5.13-16.21,5.79l-21.35,2.44c-4.36.5-9,1-13-.79s-7.07-6.58-5.29-10.59Z"></path>
    <path data-name="2c" data-official="" data-plain="Pistil flower" data-loc="" d="M412.32,2560c-5.33-22-10.7-44.49-8.13-66.95a30.36,30.36,0,0,1,1.63-7.56,18,18,0,0,1,24.68-9.72c5,2.44,8.67,7.09,11.35,12,5.32,9.75,7.53,21,7.77,32.06s-1.41,22.15-3.41,33.07c-.95,5.16-1.95,10.65,0,15.52s6.72,8.32,9.57,12.87a24.53,24.53,0,0,1,3.43,12.33,15.71,15.71,0,0,1-1.08,6.83c-2,4.49-6.86,6.91-11.5,8.53a77.63,77.63,0,0,1-36.72,3.49c-2.72-.4-5.7-1.13-7.22-3.41a8.72,8.72,0,0,1-1.09-5.26c.56-12.69,10.94-23.74,10.08-36.4Z"></path>
    <path data-name="3" data-official="Taxus baccata" data-plain="Yew" data-loc="Britain" d="M621.72,632.77c8.88-4.26,14-13.47,20.2-21.16s15.76-14.68,25.16-11.74c10.2,3.18,16.13,17,26.79,16.18,4.19-.32,7.77-3,11.49-4.94,18.11-9.49,40.08-2.23,60.5-3.14a5.11,5.11,0,0,0,3.2-.9c1.57-1.34,1.08-3.8.7-5.83-2.48-13.38,8.08-27.73,21.59-29.35,2.71-.33,5.65-.26,7.88-1.85,2.53-1.81,3.31-5.15,4.72-7.92,4.43-8.71,15.22-11.88,24.94-12.87a111.16,111.16,0,0,1,33,1.58c5.69,1.13,11.94,3.24,14.44,8.47,3.62,7.57-2.28,18.46,3.87,24.18,4.92,4.57,12.91,1.33,19.48,2.73,8.58,1.83,13.32,11.67,13,20.44s-4.33,16.91-7.23,25.19c-.6,1.72-1.15,3.63-.48,5.32,1.19,3,5.2,3.41,8.41,3.27,10.26-.46,20.59-1.65,30.74-.1s20.38,6.34,25.67,15.14a65.69,65.69,0,0,1,28.82-48l8.45-4.69a126.21,126.21,0,0,1,57.38-25.22c10.95-1.79,22.09-2.12,33.19-2.28q19.2-.25,38.4.18c7.88.18,15.84.46,23.43,2.57l9.59,2.64a28.87,28.87,0,0,1,22.1,25.12c.32,3.87-.07,8.1,2.14,11.3,3.56,5.15,11.15,4.43,17.4,4.15a58.78,58.78,0,0,1,33.88,9c2.89,1.82,5.75,4.07,7,7.26a12.2,12.2,0,0,1,.35,6.62c-1.5,7.7-7.93,13.66-15.08,16.87s-15.07,4.19-22.81,5.47c-1.36.22-2.85.53-3.69,1.62a4.63,4.63,0,0,0-.49,3.86c1,4.47,4.48,7.9,7,11.71a32.76,32.76,0,0,1,1.49,33.16l-1.1,11.34a50.11,50.11,0,0,1-12.8,37.71,4.9,4.9,0,0,0-1.51,2.47c-.25,1.95,1.86,3.27,3.64,4.12a114.36,114.36,0,0,1,17.64,10.37,16.75,16.75,0,0,1,4.74,4.52c1.88,3,1.81,6.81,1.68,10.36a82.52,82.52,0,0,1,27.32-1.43c2.83.32,5.85.89,7.87,2.91,2.29,2.28,2.71,5.81,2.65,9a45.61,45.61,0,0,1-4.26,18.37l1.59,7c8.36-1.54,17.12-2.64,25.26-.2s15.54,9.27,16.09,17.75c.44,7-3.71,13.51-8.9,18.2s-11.43,8-17,12.19c2.75,7.6,6.71,14.7,9.64,22.23s4.8,15.78,3.14,23.69a6.61,6.61,0,0,1-1.74,3.66c-1.26,1.13-3.09,1.25-4.78,1.32l-10.37.43c-5,.21-10.24.39-14.93-1.46s-8.38-5.55-11.91-9.15l-6.56,13.59c-1.09,2.26-2.24,4.6-4.22,6.14a13,13,0,0,1-6.06,2.26,31.06,31.06,0,0,1-14-1.06,29.62,29.62,0,0,0-5-1.4c-4.83-.61-9.4,2.37-12.76,5.87s-6,7.7-9.87,10.7-8.72,4.66-13.12,6.94-8.71,5.62-10,10.4l3.41,6.4c.82,2.26,3.56,3.23,6,3.13s4.73-1,7.13-1c8.13-.31,14.06,8,15.74,16s.83,16.41,3.46,24.11a4,4,0,0,0,1.82,2.56,4.28,4.28,0,0,0,2.65,0c6.31-1.34,12.64-2.89,19.09-2.93s13.16,1.61,18,5.93c3.29,3,5.44,6.94,7.4,10.91a188.54,188.54,0,0,1,17.27,55.31l6,10.69c-.36,5.19-.53,10.4-.49,15.6a12.7,12.7,0,0,0,1.06,6c1.13,2.08,3.28,3.35,5.21,4.73,7.83,5.59,13.4,15.21,11.83,24.7-1.74,10.49-11.11,17.77-19.91,23.74-1.59,1.08-3.26,2.24-4,4a10.21,10.21,0,0,0-.37,5.13c1,10.08,2.3,20.9,9.08,28.42,4,4.49,9.59,7.26,14.62,10.61a70.65,70.65,0,0,1,28.32,38.47l2.3,5.71c5.91,6.57,12.16,14,12.26,22.8.07,5.88-2.66,11.42-5.84,16.37a85.94,85.94,0,0,1-16.38,18.8,6,6,0,0,0-2.12,2.67c-.38,1.41.36,2.86,1.15,4.1,4.34,6.81,10.62,12.13,15.81,18.33s9.41,14,8.34,22c-1.14,8.59-8.36,15.45-16.51,18.39s-17.1,2.61-25.7,1.57l.46,7.62L1293,1425c-.72,5.44-1.84,11.54-6.39,14.61a15.64,15.64,0,0,1-4.71,2,26,26,0,0,1-12.52.66,15.15,15.15,0,0,1-10-7.12l-3,6.11c-.5,3.09-.28,6.29-1,9.35s-2.58,6.17-5.61,7c-3.27.86-6.49-1.17-9.6-2.5-4.26-1.82-9.15-2.5-12.68-5.5l-4.15-6.26c-6.92-8.86-7-21.32-12.42-31.18a1,1,0,0,0-1.67-.55,56.3,56.3,0,0,0-9.89,6.14,56.75,56.75,0,0,1-6.68,4.91c-6.64,3.71-14.76,3-22.32,2.25a9.28,9.28,0,0,1-4.16-1.11c-2.37-1.55-2.78-4.81-3-7.64l-.7-11.22c-.16-2.58-.58-5.6-2.85-6.85-1.21-.67-2.68-.63-4-1a8.81,8.81,0,0,1-5.42-5.06,18.3,18.3,0,0,1-1.25-7.49l-4-8c-1.33-1.77-3.62-2.58-5.14-4.2-1.82-1.94-2.31-4.77-2.33-7.43-.06-6.39,2-12.57,3.58-18.77s2.45-12.91.11-18.85-7.58-10.21-11.28-15.43c-4.75-6.72-6.85-14.9-8.86-22.88l-.54-6.61a28.25,28.25,0,0,1,7.24-14.25c2.66-2.82,6-5.26,7.29-8.93a18.51,18.51,0,0,0,.73-5.2l2.43-55.54c.1-2.27-.2-5.16-2.36-5.86-1.32-.43-2.74.23-3.91,1-7.55,4.78-12.19,13.54-20.28,17.35a20.14,20.14,0,0,1-19-1.24c-5.26-3.36-8.62-9-11.09-14.72a8.77,8.77,0,0,0-1.79-3c-1.34-1.27-3.34-1.49-5.17-1.75-8.64-1.23-18.07-6.31-19.21-15-.44-3.38.47-6.87-.3-10.19-1.76-7.56-10.67-10.42-17.64-13.83a47.79,47.79,0,0,1-22.9-24.22l-4.58-5.21c-6.64-.5-11.32-7.1-12.64-13.63s-.29-13.28-.74-19.92c-.07-1.09-.28-2.33-1.21-2.89a3.47,3.47,0,0,0-2.14-.29c-19.1,1.54-37.89,8.84-56.91,6.48-3.11-.38-6.31-1.08-8.81-3-6.62-5-5.32-15.52-9.84-22.5a8.86,8.86,0,0,0-3.49-3.3,14.78,14.78,0,0,0-4.87-1,44.39,44.39,0,0,1-20.2-7.37,13.49,13.49,0,0,1-5-5.16c-2.28-5,1-10.62,4.51-14.83A103.61,103.61,0,0,1,914.54,1012l-1.67-4.86a58.83,58.83,0,0,1-36.63-23.95c-2.92-4.22-5.3-8.84-8.61-12.77a34.28,34.28,0,0,0-19.26-11.4c-12.34-2.48-24.93,2-36.59,6.77-21.56,8.8-43,19-60.23,34.68-21.16,19.29-34.83,45.89-56.84,64.2a105.13,105.13,0,0,1-56.39,23.61l.76,6.49a130.08,130.08,0,0,1-15.74,51.57,15,15,0,0,0-2.22,5.58,15.56,15.56,0,0,0,.69,5.14,63.51,63.51,0,0,1-.93,32.13,18.19,18.19,0,0,1-3.71,7.44c-2.06,2.22-5,3.46-7.83,4.41-5.9,2-12.38,3-18.3,1.16s-11-7.33-10.91-13.54c.06-2.9,1.21-5.72,1.06-8.61-.27-5.09-4.35-9-6.6-13.6-3.56-7.21-2.39-16,.8-23.35s8.21-13.8,12.57-20.56,8.17-14.24,8.45-22.28c-10.68,7.06-24.07,8.1-36.52,11.08a114.07,114.07,0,0,0-70.2,51.36l-3.64,4.45a27.46,27.46,0,0,0-8.71,1.88,24.28,24.28,0,0,0-7.37,3.5c-3.86,3-5.54,8.07-6.52,12.89L455,1197a168.46,168.46,0,0,1-69.72,43.58l-2.75,4.77c-2.39,9.38-3.75,19-6.77,28.24s-8,18.17-15.92,23.7-19.35,6.83-27.24,1.22c-6.84-4.86-9.75-13.57-11.05-21.85-4.65-29.74,6.1-59.75,19.76-86.57,3.26-6.38,6.89-12.91,12.76-17s14.63-5,19.87-.09c1.72,1.6,3,3.69,4.84,5.1,3.36,2.49,8,2.25,12.07,1.14,12.57-3.48,21.9-13.8,30.18-23.88,5.37-6.51,10.61-13.13,15.85-19.75,2.55-3.22,5.14-6.51,6.56-10.36,1.72-4.66,1.6-9.77,1.8-14.73.44-10.38,2.67-21.23,9.53-29s19.37-11.32,28-5.52c3.84,2.58,6.8,6.8,11.31,7.84,3.58.81,7.25-.61,10.64-2,26.31-10.93,54-23,82.19-19.1l4-6a281.66,281.66,0,0,1,.62-60.33c.32-2.71.67-5.49,0-8.13a21.43,21.43,0,0,0-3.3-6.45,101.08,101.08,0,0,0-10.5-14c-7.94-8.36-18.43-13.72-28-20.21A134.6,134.6,0,0,1,517.81,917c-3.77-5-7.35-11.17-5.85-17.28,2.27-9.26,14.07-12,23.6-11.73s20.53,1.23,27.06-5.71a4.86,4.86,0,0,0,1.56-3.15,6.06,6.06,0,0,0-1.55-3.34,52.68,52.68,0,0,1-9.87-33.9c.28-4.51,1.28-9.26,4.39-12.53,5.39-5.66,14.63-4.79,21.66-8.2a4.76,4.76,0,0,0,2.05-1.59c1.06-1.67,0-3.84-.93-5.57-7.52-13.26-13.1-30.07-5.52-43.29,1.25-2.17,2.83-4.18,3.65-6.55,2.18-6.2-1.32-12.94-5.49-18s-9.29-9.78-11.13-16.09l.36-18,1.09-3.87c4.06-2.1,5.77-6.86,7.85-10.93A27.18,27.18,0,0,1,576,690c2.11-2,4.62-3.55,6.87-5.4s4.31-4.15,5-7l2.65-5.43,1-8.15a4.11,4.11,0,0,1,.33-1.35,4.7,4.7,0,0,1,1.78-1.64,18.38,18.38,0,0,0,7.07-9.19l4.19-4.46Z"></path>
    <path data-name="3a" data-official="" data-plain="Stamen flower" data-loc="" d="M476.32,2601.43c-2.4-4.9-1.26-10.8.8-15.84s5-9.78,6.23-15.09c1.68-7.27,0-14.91-2.5-21.95s-5.77-13.82-7.45-21.09c-1.48-6.47-1.64-13.15-1.8-19.77-.2-8.31-.38-16.77,1.84-24.78s7.23-15.66,14.82-19c5.45-2.42,11.61-2.44,17.57-2.42s12.13.06,17.88,1.8,11.2,5.49,13.55,11a26,26,0,0,1,1.66,7.4c2.59,23.8-5.4,47.3-9.21,70.94-.75,4.61-1.33,9.36-.4,13.94,1.07,5.21,4,9.8,6.28,14.6s3.93,10.34,2.26,15.38c-1.41,4.25-5,7.49-9.08,9.4s-8.53,2.66-13,3.3c-13.3,1.91-27.91,2.72-39.08-4.75Z"></path>
    <path data-name="3b" data-official="" data-plain="Pistil flower" data-loc="" d="M546.15,2607.61c-3.32-3.26-4.64-8.18-4.31-12.83s2.16-9.05,4.37-13.14c1.69-3.15,3.65-6.22,4.48-9.69s.5-6.88.24-10.33a322.69,322.69,0,0,1,2-67.06,43.68,43.68,0,0,1,2.52-10.92,23.38,23.38,0,0,1,10.13-11.35,13,13,0,0,1,6.87-1.92c5.95.29,10,6.09,12.39,11.54,9.74,22.18,7.93,47.45,7.33,71.67a24.11,24.11,0,0,0,.55,7.15c1.26,4.5,4.95,7.91,6.76,12.21,2,4.64,1.58,9.89,1,14.88s-1.7,10.45-5.41,13.92c-2.66,2.48-6.28,3.58-9.78,4.55q-8.31,2.31-16.73,4.19c-3.59.8-7.65,1.47-10.74-.55Z"></path>
    <path data-name="3c" data-official="" data-plain="Seed" data-loc="" d="M611.49,2606.52c-4.56-3.12-5.58-9.45-5.14-15a44.34,44.34,0,0,1,4.61-16.48c1.66-3.3,3.75-6.45,4.59-10a30.86,30.86,0,0,0,.31-8.75q-.81-13.29-1.61-26.57c-.29-4.78-.56-9.69,1-14.23A19.76,19.76,0,0,1,628.43,2503a21.3,21.3,0,0,1,18,3.29,17.32,17.32,0,0,1,5.79,6.83c1.56,3.44,1.69,7.34,1.8,11.12.25,8.61.47,17.42-2.2,25.62-1.58,4.85-4.18,10-2.42,14.8,1.12,3.06,3.79,5.22,5.95,7.66a27.27,27.27,0,0,1,6.77,17,13.76,13.76,0,0,1-1.68,7.76c-1.52,2.43-4.09,4-6.65,5.31a64.56,64.56,0,0,1-32.15,7Z"></path>
    <path data-name="4" data-official="Larix Cedrus" data-plain="Cedar" data-loc="Mount Lebanon" d="M459.48,1952c3.71,3.58,7.07,7.5,8.94,12.25a41.21,41.21,0,0,1,2.24,10.51,212.42,212.42,0,0,1,1.37,22.7,7.38,7.38,0,0,0-4.22-2.47,38.8,38.8,0,0,1,1.45,14l-1,6.69c-1.12,3-4.06,4.83-6.93,6.19s-6,2.51-8.12,4.86a12.55,12.55,0,0,0-2.55,4.53,32.81,32.81,0,0,0-1.34,7.32l-8,5.61c-29.24,25.12-50.74,58-70,91.36-8.06,14-15.9,28.36-19.55,44.07-1.37,5.86-2.17,12-4.79,17.37-3.56,7.37-10.14,12.79-16.83,17.52-4.58,3.25-9.53,6.36-15.1,7s-11.9-1.82-14-7c-1.41-3.52-.71-7.63-2.23-11.09-3.59-8.13-15.43-7-23.23-11.28-8.08-4.4-11.27-15.14-8.78-24s9.55-15.83,17.54-20.38c4.82-2.75,10.2-4.9,13.73-9.17,8.53-10.32,1.87-26.48,6.92-38.88,4.1-10,14.8-15.39,22.6-22.93,13.21-12.77,18.16-32.13,30.76-45.51,12.16-12.92,30.5-19.22,41.16-33.4,3.83-5.09,6.51-11,10.74-15.78,10.65-12,28.91-14.39,40.35-25.61ZM1213,1432.41c-13.74-2.47-27.83-1.36-41.78-1.35-2.89,0-5.89-.07-8.47-1.37-4.68-2.37-6.61-8.06-7.14-13.28s-.14-10.66-2.08-15.54l2.12-3.79a8.81,8.81,0,0,1-5.42-5.06,18.3,18.3,0,0,1-1.25-7.49l-4-8c-1.33-1.77-3.62-2.58-5.14-4.2-1.82-1.94-2.31-4.77-2.33-7.43-.06-6.39,2-12.57,3.58-18.77l-4.3-3.61q-12.46-31.44-23.19-63.53c-2.82-8.43-5.55-16.9-9.1-25-2.11-4.85-4.51-9.57-7-14.23a351.84,351.84,0,0,0-20.76-33.91l-4.32-3.73c-20.54-24.18-41.23-48.51-65.76-68.64-9.83-8.07-20.33-15.49-32-20.55-11-4.77-22.87-7.36-34.78-8.9-68.29-8.86-140.24,18.26-185.71,70-21.57,24.55-37.15,53.75-50.69,83.49a796.2,796.2,0,0,0-45,126l.15,8.62c-4.93,15.28-5.51,31.57-6.18,47.62-2.18,52.13-5.79,104.2-9.41,156.26a7.92,7.92,0,0,1-.78,3.48c-.88,1.53-2.63,2.28-4.25,3a143.92,143.92,0,0,0-52.43,37.9l-2.15,3.38.75,3.38c3.55,1.15,6,4.57,7,8.16s.82,7.42.62,11.15l-.52,9.84-.45,4.29a8.88,8.88,0,0,1-.77,3.69c-.48.88-1.25,1.57-1.75,2.44a9.3,9.3,0,0,0-.89,3.66l-.42,4.17.12,5.34a8.18,8.18,0,0,1-.5,3.91c-.21.44-.5.84-.7,1.29a6.22,6.22,0,0,0-.44,1.64,35.79,35.79,0,0,0-.43,7.94l-.22,4.32-.57,5.42a8.56,8.56,0,0,1-.42,2.13,28.74,28.74,0,0,1-1.69,2.87,12.09,12.09,0,0,0-1,4.37l.6.72A14.57,14.57,0,0,1,598,1748.15l.63,7a10.31,10.31,0,0,1,0,3.28,3.56,3.56,0,0,1-1.87,2.57,6.24,6.24,0,0,0-1.3.54,2.88,2.88,0,0,0-.87,1.77l-1,4.15c-.28,1.23-.52,2.64.23,3.65l.8,1.66a3.63,3.63,0,0,1-1,3.33c-1,1-2.44,1.32-3.38,2.32a4.31,4.31,0,0,0-1,3.08,9.5,9.5,0,0,0,.78,3.21l.63,3.34q-.93,6.48-2,13l-.23,2.85c.07,2.81-2.13,5.17-2.69,7.93-.73,3.52,1.3,7,1.2,10.64-.12,4-2.86,7.63-2.7,11.62a1.17,1.17,0,0,0,.18.69c.28.37.84.35,1.3.28l3.39-.48,3.36,1.35a16.16,16.16,0,0,1,5.76,0,4.5,4.5,0,0,1,2.17.86c1.48,1.26,1.07,3.59.84,5.53-.94,8.16,3.78,16.59,1.26,24.4l-1.19,3.2a37.15,37.15,0,0,0-8.59,8c-2.42,3.37-3.81,7.36-5.18,11.28l-4,11.62c-4.14,11.93-8.31,24-9.12,36.64a32.37,32.37,0,0,1,22.61-5.75l4.59.6,3.2-3.29c4.82-7.17,12.2-12.24,19.85-16.26s15.75-7.17,23.21-11.52l10.46-9.92a14,14,0,0,1,13.68-9.43c3.5.2,6.88,1.74,10.39,1.61,5.83-.23,11.8-5,16.93-2.21l6.73-3L742,1872.8c5.1-.76,10.44-1.51,15.31.17,6.57,2.27,11,8.49,13.74,14.85s4.41,13.23,7.85,19.26l2.26,10c5.74-1.15,12-6,16.53-2.39l7.89,3.07c6.7-.64,14.45-2,17.69-7.85,1.55-2.82,1.71-6.18,1.71-9.4a134.6,134.6,0,0,0-2.63-26.64c-.63-3.12-1.08-7,1.51-8.86,1.39-1,3.23-1,4.94-1a261.83,261.83,0,0,0,62.24-6.84l10.21.07c1.07-2.72,3.82-4.44,6.61-5.34s5.74-1.21,8.5-2.16c1.7-.58,3.4-1.42,5.19-1.29a22,22,0,0,1,3.72,1c2.75.72,5.67.13,8.4-.66s5.45-1.79,8.29-1.87,5.92.94,7.42,3.35l4.16.21,10.81-3.61a9.15,9.15,0,0,1,3.36-.67l5.84-2.93a373.77,373.77,0,0,1,37.1-15.65l7.17-1.68c1-3.11,5-3.94,8.3-3.8,7.16.32,14.67,2.78,21.24-.07l13.17-7.54a57.13,57.13,0,0,0-1.46-19.2,35.73,35.73,0,0,0-9.44-16.6c6.9,1.12,13.08,4.81,19.07,8.42,2.07,1.25,4.22,2.58,5.47,4.65,1,1.73,1.41,3.91,2.88,5.29,2.42,2.25,6.29,1.22,9.38,0-1.35-9.09-2.58-18.8,1.3-27.14a16.14,16.14,0,0,1,5.24,15.68,192.62,192.62,0,0,1,16.48-19.82c1.43,6.61-.89,13.39-3.18,19.75a12.58,12.58,0,0,1,8.43-3.77,2.42,2.42,0,0,1,1.48.29,2.52,2.52,0,0,1,.87,1.6,18.2,18.2,0,0,1,.47,5,61,61,0,0,1,19.27-9.52l2.09-.75a5.63,5.63,0,0,1,5.76.75,16.43,16.43,0,0,1,3.9,4.66l4.58-3.47q8.46-3.62,17.25-6.39l9.76-3.53a18.29,18.29,0,0,1,1.75-3.19l2.36-3.66c.8-1.25,1.81-2.63,3.29-2.74s2.81,1.27,3.46,2.69,1,3,2,4.22c2.34,2.87,6.91,2.11,10.27,3.65a15.55,15.55,0,0,1,4.51,3.62l1.45,4a8.81,8.81,0,0,0,.29,3.36,6.16,6.16,0,0,0,4.27,3.46,29.64,29.64,0,0,0,5.66.63,30.92,30.92,0,0,1,14.09,4.72l1.09,1.31c-1.37,9-7.27,16.49-13,23.55l-1.53,3.59-2.36,3.14-.57,1.74a61.66,61.66,0,0,1,17.31,11.48,37.31,37.31,0,0,1,10.48,17.73c.2.65.21,2.28.41,2.93a106.66,106.66,0,0,0-36.1-21.8l-3.82,1.8a8.32,8.32,0,0,0-7,1.62,24.68,24.68,0,0,0-5,5.44l-2.33,3.1,6,4.46c5.53,1.16,11.3,2.42,15.68,6a44.9,44.9,0,0,0,4.59,3.82c1.53.94,3.3,1.45,4.88,2.32,3.85,2.1,6.31,6.14,10,8.52,1.23.79,2.58,1.38,3.84,2.13a17.46,17.46,0,0,1,3.19,2.43l1.54.61a38.09,38.09,0,0,1,8.26,4.75,18,18,0,0,1-9.65,2.48,14.86,14.86,0,0,1-3.51-.43,20.84,20.84,0,0,1-2.83-1q-6.76-2.87-13.26-6.33c-2.64-1.42-5.33-2.94-8.3-3.3a22.46,22.46,0,0,0-6.58.49,7.48,7.48,0,0,0-3.59,1.29,5.25,5.25,0,0,0-1.61,2.74,13.17,13.17,0,0,0,.58,7.59c.83,2.43,2.06,4.72,3,7.1a52.43,52.43,0,0,1,3.45,16.9l8.56,3.64a308.18,308.18,0,0,0,69,4.52c9.11-.43,18.32-1.29,26.86-4.48s16.44-9,20.5-17.11a5.06,5.06,0,0,1,1.93-2.5c1.49-.75,3.22.27,4.62,1.18,13.84,9,31.13,10.38,47.61,10.83,18.1.5,36.42.11,53.94-4.43s34.35-13.6,45.47-27.89l3.75-5.46a71.24,71.24,0,0,0,31.9-32.47c12-24.54,10-53.34,7.7-80.58a534.87,534.87,0,0,0,71.78,9.17c10.45.62,21,.92,31.31-1.06,17.47-3.36,33.17-13.18,46.2-25.29a145.86,145.86,0,0,0,46-106.18l-.83-8.32,9.52-55.84c.77-4.49,1.53-9.11.63-13.58-1-5-4-9.4-4.93-14.4-1-5.46.6-11.38-1.65-16.45-1-2.15-2.6-4.14-2.62-6.49,0-2.12,1.27-4.3.43-6.24-.5-1.15-1.62-1.87-2.47-2.79l-2.54-3.27c-1-1.91,1.46-3.64,2.69-5.39,2.57-3.66-.13-8.52-.92-12.91s.48-9-.14-13.39a29.31,29.31,0,0,0-3.32-9,171.19,171.19,0,0,0-17.56-27.5c-3.91-5-8.17-9.84-13.43-13.41s-11.64-5.77-18-5l-4.56,1.48c-11.82-3.68-23.79-7.38-36.15-8-5.81-.29-11.7.1-17.38-1.13-18.17-3.95-29-22.86-45.61-31.21-10.86-5.46-23.44-6-35.58-6.5-10.2-.4-20.41-.79-30.62-.71-7.05.06-14.17.36-21,2.21-12.07,3.3-22.31,11.3-31.24,20.07a175.59,175.59,0,0,0-33.81,46.35l-3.82,1.22-26.79-2c-8.4-.62-16.84-1.25-25.24-.64-20.64,1.51-40.12,10.45-57.44,21.8a3.07,3.07,0,0,1-4.57-.38l-3.14-3.63a16.46,16.46,0,0,0-9.8-5.6,32.69,32.69,0,0,0-6.1-.26l-15.1.31h-5.51c-.68,3.07-2.58,6.17-5.61,7-3.27.86-6.49-1.17-9.6-2.5-4.26-1.82-9.15-2.5-12.68-5.5l-4.15-6.26Z"></path>
    <path data-name="5" data-official="Cupressus sempervirens" data-plain="Cypress" data-loc="Levant" d="M1733.36,1616a173.07,173.07,0,0,0,24.93,90.82c15.25,25.14,36.62,45.88,57.49,66.58,6,5.94,12.38,12.8,12.55,21.24.17,8.14-5.58,15.19-11.85,20.37s-13.52,9.43-18.35,16c-5.22,7-7.06,16-8.71,24.56q-3.93,20.6-7.35,41.3c-1.14,6.87-1.92,14.83,2.82,19.93,4.57,4.91,12.21,4.91,18.9,4.56,4.85-.26,10-.62,13.92-3.48,10.35-7.54,5.7-26.95,16.79-33.38,4.82-2.79,10.81-1.86,16.39-2,20.66-.36,39.51-18.27,40.92-38.89.42-6.21-.54-12.54.81-18.61,2-8.82,8.63-16.3,9.38-25.3.64-7.78-3.24-15.14-7.09-21.93a1035.32,1035.32,0,0,0-59.73-93.51c-12.68-17.69-26.07-35.25-34-55.49-4.18-10.61-6.79-21.75-9.27-32.88q-13.26-59.4-22.27-119.66c-.89-6-1.42-12.93,3-17.08s11-3.29,16.84-2.27l21,3.72c10.11,1.79,23.84,1.5,26.71-8.37l7.37-5.49L1866,1324.17c2-11.5,4-23.22,2.56-34.8-1.44-11.25-6.14-22.07-6-33.4.14-7.94,2.67-15.61,4.9-23.23,6.64-22.74,10.69-47.29,3.85-70-3.72-12.34-10.49-23.54-14.8-35.68-13.49-38-1.63-79.8,10.25-118.33l-1.51-16.86c-13-4-22.59-17.16-22.32-30.75.16-8,3.35-16.14,1.2-23.86-2.56-9.17-11.76-14.74-16.81-22.81-10-16-1.89-36.41,1.8-54.87a111.38,111.38,0,0,0-18.66-85.82c-4.08-5.65-9-11.1-15.42-13.71-6.9-2.79-14.69-2-22-3.55-15.73-3.38-27.3-17.64-32.12-33s-4.11-31.81-3.35-47.88l2.2-17.22a134.55,134.55,0,0,1-23.78-63c-1.82-17-1.5-36.66-14.68-47.48-6.16-5.05-14.19-7-21.93-8.9l-45.11-10.82c-25.41-6.09-52.53-13.19-69.69-32.89-20.8-23.88-23.33-62.48-50.18-79.26-16.41-10.26-37.14-9-56.38-11.15s-41-10.74-45.86-29.47c-2-7.53-1.08-16.37-6.33-22.1-5.08-5.54-13.63-5.66-21.15-5.36l-112.07,4.39c-13.4.52-27.08,1.1-39.56,6s-23.78,14.92-26.43,28.06c-3.83,18.92,10.48,36.19,16.42,54.55,7.05,21.78,1.45,47.17-14.1,64l2.59,12.28a132.94,132.94,0,0,0-3.52,66.49c1,5.09,2.44,10.25,5.51,14.44,9.56,13,30.16,11.27,42.61,21.56,11.41,9.43,12.91,26,15.68,40.49s10.5,31.14,25.21,32.83c5.19.59,10.41-.89,15.63-.74s11.12,2.76,12.22,7.87c1.54,7.13-6.6,12-11.78,17.14-9.81,9.74-10.29,25.19-10.13,39,.31,28.39,1,58.12,14.76,82.93,6.46,11.63,15.69,21.92,19.47,34.67,5.25,17.76.09,40,13.49,52.76l6.53,13.56c.72,25.14,16.52,49.26,39.28,60,8.31,3.91,18.18,6.79,22.57,14.86,5.55,10.21-.68,22.46-5.21,33.17-16.85,39.88-7.55,89.43,22.61,120.49,8.93,9.2,20.13,18,21.88,30.74l3.87,9.14a243.91,243.91,0,0,0-4.45,39.95c-.31,11,.83,23.5,9.43,30.35,10.39,8.27,27,4.42,37.14,13s9.14,25.4,19.14,34c4.81,4.11,11.31,5.51,17,8.24a39.29,39.29,0,0,1,21,26.14l3.55,18.09c16.62,8.35,27.44,27.26,45.61,31.21,5.68,1.23,11.57.84,17.38,1.13,12.36.61,24.33,4.31,36.15,8l4.56-1.48c6.31-.73,12.7,1.48,18,5s9.52,8.41,13.43,13.41a171.19,171.19,0,0,1,17.56,27.5,29.31,29.31,0,0,1,3.32,9c.62,4.43-.65,9,.14,13.39s3.49,9.25.92,12.91c-1.23,1.75-3.65,3.48-2.69,5.39l2.54,3.27c.85.92,2,1.64,2.47,2.79.84,1.94-.46,4.12-.43,6.24,0,2.35,1.66,4.34,2.62,6.49,2.25,5.07.66,11,1.65,16.45.9,5,3.92,9.42,4.93,14.4.9,4.47.14,9.09-.63,13.58l-4.12,24.18Z"></path>
    <path data-name="6" data-official="Cone of Wellingtonia" data-plain="" data-loc="" d="M1778.87,1882.54c-28.18-33.27-57.06-67.14-94.45-89.56-23.69-14.2-53.32-23.37-78.78-12.66-25.93,10.91-39.67,38.52-56.41,61.13-12.53,16.91-27.65,31.81-39.66,49.08-26.33,37.85-36.22,85.32-35.08,131.41s12.6,91.29,25.86,135.45l4.66,4.43c12.34,19,25.46,38.72,45.28,49.66,8.35,4.61,17.61,7.47,25.82,12.34s15.62,12.51,16.71,22c.66,5.71-1,11.63.5,17.17a15.78,15.78,0,0,0,16.06,11.16c5.51-.49,10.35-3.92,14.25-7.85s7.18-8.47,11.35-12.12c6.15-5.36,13.88-8.49,21.45-11.52q14.58-5.8,29.17-11.57l6.09-3.5a135.06,135.06,0,0,0,39.68-15.83,129.77,129.77,0,0,1,11.67-6.69c6.64-3.07,14.07-4.47,20.21-8.47l7.82-5a153,153,0,0,0,44.92-81.82c5.4-28.11,2.75-57.06.08-85.56l-3-32.67c-.79-8.46-1.59-16.93-3.18-25.28a133.3,133.3,0,0,0-13.95-38.83l-3.47-6.68a14.29,14.29,0,0,1-7.53-4c-4.74-5.1-4-13.06-2.82-19.93Z"></path>
    <path data-name="6a" data-official="" data-plain="Section of Cone" data-loc="" d="M1760.84,2202c20.91,6.38,39.21,19.74,53.94,35.88s26.11,35,36.27,54.4c5.55,10.57,10.8,21.45,13.37,33.12,2.8,12.77,2.28,26,2.47,39.06.5,32.78,5.56,66.23-2.79,97.94-4.23,16.07-11.77,31-19.26,45.89-6.49,12.89-13,25.87-21.94,37.24-5.79,7.43-12.78,14.57-14.74,23.78-2.28,10.69,2.16,23.77-5.53,31.53-2.57,2.59-6.07,4-9.51,5.21a157.25,157.25,0,0,1-46.58,8.87c-4.91.17-10.26,0-14.09-3.1-5-4.06-5.56-11.63-4-17.92s4.65-12.16,5.47-18.58-1.61-14-7.71-16.19l-4.57-4.28c-8.86-6.57-18.73-12-26-20.28-4.29-4.85-7.53-10.51-10.74-16.12-11.71-20.48-23.51-41.15-30.71-63.61-9-28.13-10.53-58.09-10.51-87.63,0-14.23.36-28.51,2.41-42.6a179.22,179.22,0,0,1,40.55-89.74l-1-3.75,6.09-3.5a135.06,135.06,0,0,0,39.68-15.83,129.77,129.77,0,0,1,11.67-6.69c3.32-1.53,6.84-2.65,10.29-3.89Z"></path>
    <path data-name="7a" data-official="" data-plain="Seed of Araucaria" data-loc="" d="M1233.8,2590.63c-24.13-10.38-42.19-32.06-52.37-56.27s-13.19-50.86-13.46-77.13c-.41-39.05,5.18-78.81,22.17-114s46.32-65.4,83.27-78a8.69,8.69,0,0,1,4.56-.65,8.9,8.9,0,0,1,3.43,1.91l23.89,18.47c10.37,8,20.79,16.07,29.73,25.66,29.19,31.28,39.79,75.49,44.35,118,4.07,37.92,4,77.36-9.92,112.86-6.23,15.87-16,31.47-31.39,38.83-9.65,4.62-22.33,7-26,17-3.39,9.3,3,21.4-3.5,28.83-2.44,2.77-6.14,4-9.69,5a127.36,127.36,0,0,1-44.17,4.29c-3.3-.26-6.93-.83-9-3.39-1.43-1.76-1.83-4.11-2-6.36-.88-11.58,2-25.65-7.17-32.81Z"></path>
    <path data-name="7b" data-official="" data-plain="Section of Seed" data-loc="" d="M1492.23,2581.92c-28.77-12.83-49.58-39.75-60.64-69.25s-13.35-61.55-13.08-93.06c.13-15.79.9-31.72,5-47,3.74-14,10.2-27,17.11-39.75,7.77-14.28,16.3-28.38,27.89-39.78,9.16-9,20.07-16.17,28.63-25.75,5.4-6,11.49-13.71,19.51-12.6a20.56,20.56,0,0,1,6.27,2.32,201.77,201.77,0,0,1,90.58,94c16.43,35.4,22.18,75.14,20.65,114.13-.56,14.25-2.1,28.63-7.06,42-4.48,12.05-11.62,22.95-19.49,33.11a182.26,182.26,0,0,1-24.44,26.29c-9.89,8.59-21.68,16.9-24.7,29.65-2.43,10.29.47,23.67-8.38,29.45-2.83,1.85-6.3,2.36-9.66,2.75a207.37,207.37,0,0,1-37.37.92c-2.49-.16-5.18-.45-7-2.13s-2.4-4.4-2.76-6.91a145.32,145.32,0,0,1-1.27-27.81Z"></path>
    <path data-name="8a" data-official="" data-plain="Cone of Cryptomeria japonica" data-loc="" d="M1055.38,2558c-1.44-9.22.21-18.61.29-27.94s-1.85-19.44-8.76-25.71c-3.52-3.2-8-5.1-11.8-8a39.16,39.16,0,0,1-9-10.35c-12-18.95-13.55-44.36-3.1-64.23s32.78-33.13,55.2-32a40.26,40.26,0,0,1,12.95,2.62c10.84,4.36,18.25,14.32,24.88,23.94,4.19,6.08,8.37,12.35,10.36,19.47,2.7,9.64,1.15,19.9-.47,29.78-1.93,11.87-4.53,24.82-13.87,32.4-3.4,2.76-7.58,4.68-10.19,8.19-2.9,3.89-3.35,9-3.69,13.88l-1.35,19c-.33,4.6-.63,9.39,1.07,13.68s5.19,7.55,8.2,11a50.68,50.68,0,0,1,11,20.57,17.29,17.29,0,0,1,.33,8.85c-1,3.37-3.5,6.08-6.35,8.13-7.62,5.47-17.39,6.88-26.76,7.48a205.91,205.91,0,0,1-22.36.22c-5.3-.23-11.41-1.15-14.13-5.7a12.28,12.28,0,0,1-1.16-8.15c1.54-10.16,9.88-18.57,10.28-28.84Z"></path>
</svg>
