
<svg xmlns="http://www.w3.org/2000/svg" viewBox="0 0 2118 2877" id="illustration" preserveAspectRatio="xMidYMid meet">
    <title>Bixaceæ</title>
    <path data-name="1" data-official="Bixa Orellana" data-plain="Heart-leaved Arnotto" data-loc="West Indies" d="M2002.92,1347.62c11.9-55.11,9.41-112.19,6.25-168.48-6.6-117.5-16.74-238.23-69-343.66-14.56-29.38-32.39-57.56-41-89.21-11-40.69-6-83.8-.78-125.64L1900,573.7c8.74-67.1,17.51-134.39,34.27-200,5.16-20.17,11.54-41,25.92-56s39.09-22.24,56.5-10.81c12.85,8.44,18.4,24.11,26.62,37.1s23.84,24.79,37.92,18.62c12.26-5.37,15.68-20.83,17.52-34.09,5.91-42.57,10.83-89.66-13.44-125.12-15.08-22-39.25-35.89-63.12-47.84-37.75-18.88-77.51-35-119.39-40.33-35.34-4.46-71.13-1.06-106.64,1.83-33.42,2.72-66.89,5-100.41,6.24-17.09.64-34.36,1-51.11-2.46-35.92-7.43-65.78-31.48-94.11-54.78l-25-28.46c-51.93-25.09-112.67-18.4-170.34-18.09C1255.12,20.06,1154-.27,1055.76,19c-9.94,1.95-20,4.35-28.83,9.25-13.33,7.35-23.08,19.73-31.68,32.29a377.09,377.09,0,0,0-60.16,147.75L939.83,234q.72,16.95,0,33.92l.8,19.92a48,48,0,0,0,2,18.18,9.38,9.38,0,0,1,0,8.41c-5.59,15.48-2.72,33.51,6.55,47.1,5.27,7.73,12.35,14,19.47,20.06L979.8,408a120.32,120.32,0,0,0-4.95,50.85,29.7,29.7,0,0,0,2.47,9.82,11.86,11.86,0,0,0,7.45,6.47c-5.85,3.93-9.84,10.2-12,16.9s-2.68,13.82-2.65,20.86c0,4.6.3,9.35,2.31,13.49a27.08,27.08,0,0,0,7.1,8.49,62.31,62.31,0,0,0,14.8,9.41l4.39,7.33c2.7,15-.77,30.43-.41,45.69.13,5.65.78,11.34,0,16.93-.71,5-2.56,9.73-3.75,14.63-5.21,21.35,2.21,43.94-1,65.68L980,709.78c-1.6,2.94-3.26,6-5.8,8.13-1.42,1.23-3.07,2.16-4.52,3.35-5.45,4.46-7.5,12-12.62,16.82-3.88,3.65-9.28,5.53-12.69,9.63a37.7,37.7,0,0,0,8.86,5.19c-2.44,1.77-3.48,4.84-4.67,7.61A44.11,44.11,0,0,1,938.35,775c-5.17,4.87-11.52,8.49-16,14a49.65,49.65,0,0,0-6.55,10.2l-.55.43a20.09,20.09,0,0,1,12.31-4.54c-1,6.68-4.74,12.74-9.6,17.43s-10.8,8.11-16.91,11a122.8,122.8,0,0,1-12.92,5.15c-3.34,1.11-7.13,2.42-8.5,5.66a21.18,21.18,0,0,1,9.08,2.12c-4.44,7.59-11.8,13.07-19.61,17.12s-16.2,6.84-24.24,10.42c-.92.41-2,1-2.07,2a2.6,2.6,0,0,0,.47,1.49,11,11,0,0,0,4.61,4.23l.12,1.91c-4,5.22-10.32,8.28-16.75,9.65s-13.1,1.19-19.67,1l2.14.91c-.13,2.79-3.61,3.94-6.39,4.21-13,1.24-26.08-.95-39-2.67s-26.29-2.92-39,.2-24.81,11.36-29.38,23.6c-1.58,4.25-2.22,8.78-3.47,13.13-2.62,9.11-7.89,17.19-13.09,25.11l-17.32,26.43a27.88,27.88,0,0,0-2.59,4.53c-1.6,3.79-1.82,8.62-5.22,10.94l-1.15,3.24a111.42,111.42,0,0,1,7.86,37l.7,2.82c9,1.84,17.06,6.62,24.32,12.19,28.18,21.63,45.5,56.76,45.47,92.29,0,12.61-2.07,25.12-4.12,37.57l.64,1.13c3.13,1.11,6,2.76,9.18,3.86,4.37,1.54,9,2,13.64,2.42l2.82-.38q6.09-52.65,9.6-105.57c.33-5,.75-10.22,3.74-14.18,3.43-4.54,9.54-6.4,13-10.92,4.38-5.73,3.7-14.68,9.3-19.23,2.66-2.16,6.2-2.81,9.59-3.24-3.57,2.88-4.07,8-4.31,12.64q-3.78,73.37-13.86,146.24l1.38-.44c9.43-.52,17.82,5.51,25.31,11.25,11.3,8.64,23,17.72,29.4,30.4l5.29-.18a2,2,0,0,0,.91-.17,2,2,0,0,0,.63-.73,58.2,58.2,0,0,1,24.1-21.78L882.33,1194l16.44.51a38.09,38.09,0,0,1,12.83-3.62,30.48,30.48,0,0,0-.28,3.57c4.41-1.39,9.09-2.94,13.7-2.59l16.31-9.33A105.21,105.21,0,0,1,1058,1270.64l3.28,24.55c1.7,8.17,3.4,16.35,5.78,24.35,5.73,19.32,15.27,37.26,25,54.93,6.5,11.84,13.14,23.69,21.53,34.27,11,13.84,24.67,25.21,38.27,36.48l19.83,24.18c4.3,3.35,6.52,8.83,7.05,14.25s-.45,10.87-1.52,16.22c-2.85,14.19-6.66,28.78-16,39.87l-8.13,4.31c-3.15,3.92-8.24,5.62-13,7.12a10.8,10.8,0,0,1-3.67.69,3.65,3.65,0,0,1-3.11-1.78,20.91,20.91,0,0,1-6.78,17.52,15.11,15.11,0,0,0-10.36-7.52,47.15,47.15,0,0,1-1,13.71,2,2,0,0,1-.66,1.27,2.05,2.05,0,0,1-1.91-.17l-7.86-3.59a6.3,6.3,0,0,1-.78,6.45,12.32,12.32,0,0,1-5.51,3.91,24.67,24.67,0,0,1-10.19,1.77l-.2-3.18a29.87,29.87,0,0,1-10.44,5.17c-2.36.64-5.3.81-6.82-1.11a7.43,7.43,0,0,1-4.58,5.06,15.69,15.69,0,0,1-7,.85l-7.48,21c6.68,6.28,13.43,12.64,18.36,20.38s7.91,17.09,6.29,26.12c-1.1,6.11-4.22,11.66-7.54,16.91a191.29,191.29,0,0,1-68.89,64.89l-13.35,10.92q-23.55,24.22-44.72,50.62c-6,7.45-11.88,15.16-15.22,24.1-2,5.3-3,10.89-4.7,16.27-4.69,14.81-14.35,27.66-19,42.47-2,6.48-3.11,13.25-5.29,19.69-5.44,16-17.64,29.33-21.43,45.81l-1.68,14.13c6,14.16,12,28.44,15,43.51,1.68,8.3,2.45,16.79,4.61,25,2.11,8,5.53,15.63,7.69,23.63,3.62,13.43,3.6,27.54,3,41.44-.41,9.69-1.1,19.46-3.71,28.81l1.39,9.66,1.3,19.64a149.84,149.84,0,0,0,1.94,18.18c3,16.14,11.35,31.35,11.4,47.79l6.42,26.14c.25,31.34-3,62.59-6.89,93.69-1.24,9.95-2.6,20.08-6.87,29.16l-5.26,19.93a175,175,0,0,1-12.38,57.64c-2.59,6.48-5.58,12.8-8.27,19.24a232,232,0,0,0-10.45,31l-25.52,5.18A978.2,978.2,0,0,0,774.61,2669c-10.84,32.34-20.06,65.8-19.72,99.9.11,12,1.51,24.24,7.11,34.8,6,11.28,16.21,19.65,26.66,27,29.92,21,66.73,36.27,102.52,29,5.53-1.12,11.14-2.87,15.35-6.63,11.73-10.45,7.08-29.28,9.06-44.87l-12.75-18.76a1411.48,1411.48,0,0,0,17.31-168.79L915,2584a274.94,274.94,0,0,1,11-58c2.32-7.66,5-15.23,6.58-23.07,1.24-6.09,1.9-12.48,5-17.85l14.68-13a285.18,285.18,0,0,0,35.42-94.88l7.76-20.81c23.51,13,49.87,20.1,73.59,32.7,13.32,7.07,26.48,16.08,41.54,16.77l13.51,9.79c18.21,17.25,36.66,34.78,49.51,56.32,14.48,24.27,21.14,52.43,34.23,77.48l15.92,25c64.5,48.82,129.59,98,202.82,132.37s156.16,53.24,235.61,38.09c58.8-11.21,116.38-40.7,175.47-31.11,28.65,4.65,55,18.26,82.75,26.7a235.86,235.86,0,0,0,89.24,9.25c2.27-.21,4.69-.5,6.46-1.93,4.41-3.57,1.79-10.66-1.37-15.37-36.57-54.53-103.4-90.08-168.75-96.46-35.37-3.45-62.4-20.87-71-55-8.67-34.39-14.19-76.52-5.43-110.89s25.21-66.29,35.84-100.12c9.9-31.51,14.73-64.62,27.22-95.19,20.85-51,63.31-98,56.39-152.67l14-45.3c3.65-64.35,7-130.73-14.68-191.42-8.42-23.54-20.46-45.66-29.09-69.13s-13.76-49.23-7.72-73.5c6.67-26.75,25.84-48.23,42.55-70.16a470.64,470.64,0,0,0,94.51-251.9Z"></path>
    <path data-name="1a" data-official="" data-plain="Pistil and Stamens magnified" data-loc="" d="M1799.32,2529.39c17-12.94,23.51-35.86,23.7-57.26s-4.78-42.53-5.71-63.91,2.91-44.43,17.72-59.88c12.26-12.8,31.11-19.45,39.35-35.15,10.69-20.38-1.28-47,8.76-67.7,9.82-20.26,35.9-25.93,58.41-26.17,18.58-.19,40.87,4.24,47.6,21.56,9.4,24.23-20.24,52.1-8.51,75.29,4.25,8.41,12.92,13.44,20.72,18.7,11.64,7.85,22.54,17.48,28.94,30s7.65,28.26.5,40.34c-11.09,18.73-37,22.55-52,38.35-13.4,14.15-15.77,35.87-11.82,54.95s13.24,36.55,20.71,54.54,13.22,37.68,9.54,56.82-19.36,37.11-38.84,37.6c-27.09.67-45.38-29.8-72-35-13.06-2.56-26.39,1.32-39.53,3.48s-28,2.09-38-6.67c-5.73-5-9-12.2-12.15-19.14-6.35-14.13-12.7-30.68-5.68-44.49Z"></path>
    <path data-name="2" data-official="Flacourtia Ramontchi" data-plain="Madagascar Plum" data-loc="Madagascar" d="M920.15,2620.64,915,2584a274.94,274.94,0,0,1,11-58c2.32-7.66,5-15.23,6.58-23.07,1.24-6.09,1.9-12.48,5-17.85l14.68-13,11.93,8.82c5.11,18.52,15.35,35.16,25.59,51.42q25,39.67,51,78.71c13.2,19.82,26.86,40.1,32.22,63.31s.56,50.4-18,65.31c-6.87,5.51-15.13,9-23.48,11.79-8.18,2.73-16.64,4.86-25.26,5.17a33.54,33.54,0,0,1-11.11-1.17,35,35,0,0,1-8.54-4.22c-18.65-12-30.49-32.07-40.07-52.09s-7.8-41.09-21.86-58.26ZM774.61,2669a978.2,978.2,0,0,1,73.3-165.82l25.52-5.18a232,232,0,0,1,10.45-31c2.69-6.44,5.68-12.76,8.27-19.24a175,175,0,0,0,12.38-57.64l5.26-19.93c4.27-9.08,5.63-19.21,6.87-29.16,3.89-31.1,7.14-62.35,6.89-93.69l-6.42-26.14c0-16.44-8.35-31.65-11.4-47.79a149.84,149.84,0,0,1-1.94-18.18l-1.3-19.64-7.3-14.65c-34.24-54.51-80.68-101-110.81-157.92l-23.78-44.75c-8.85-13.35-18.3-27.26-32.53-34.6-5.78-3-12.17-4.76-17.69-8.21-3.65-2.28-6.9-5.27-10.92-6.79-1.91-.71-4-1.1-5.66-2.25a25.46,25.46,0,0,1-3.68-3.73c-4.21-4.42-10.63-6.18-16.73-6s-12,2-17.85,3.77l-7.9-3a104.45,104.45,0,0,1-47.66-9.95c-5.25-2.49-10.38-5.48-14.28-9.79-2.47-2.74-4.38-5.93-6.73-8.77a36,36,0,0,0-18.59-11.78l-11.62-1.27a31.6,31.6,0,0,0-10.93-.19l-3.89,1.45a4.61,4.61,0,0,1-6.63,3.32,5,5,0,0,1-8.63,2.4,4.57,4.57,0,0,1-3.21,2.74c2,1.68.75,5.47-1.79,6.1s-5.21-1.39-5.93-3.91l-3.83-3.21a3.37,3.37,0,0,1-5,3.79,10.79,10.79,0,0,1-1.08,5.26c-.93,1.56-3,2.59-4.61,1.75-2.31-1.22-1.7-4.65-.76-7.08a2.63,2.63,0,0,1-2.78-2.36,7.21,7.21,0,0,1-5.36-12.39c-1.39-.66-1.23-2.85-2.44-3.8a4.33,4.33,0,0,0-2-.63,18.18,18.18,0,0,1-14.56-13.11l-8.08-1.19c-4.27.49-8.59-.08-12.89.16s-8.82,1.5-11.56,4.81l-1.15,3.94c2,3.9,3.36,8.14,5.37,12s4.93,7.61,9,9.27c2.36,1,5,1.18,7.36,2.09a13.67,13.67,0,0,1,7.31,6.59,4.93,4.93,0,0,0,1.83,2.46c1.39.7,3.43-.19,4.43,1a3.4,3.4,0,0,1,.58,1.63,11.87,11.87,0,0,0,4,6.73c1.34,1.1,2.91,1.9,4.21,3a5.41,5.41,0,0,1,2.12,4.52c-.22,1.71-2.21,3.16-3.74,2.35,0,1.77,1.79,3,2.43,4.61a3.66,3.66,0,1,1-6.83,0,8.33,8.33,0,0,1-6.23-.57,5.6,5.6,0,0,1-2.31,4.2,4.33,4.33,0,0,1,.56,5.78,5.27,5.27,0,0,1-5.79,1.63,6.82,6.82,0,0,1-4.16-4.57l-5,.25a4.18,4.18,0,0,1-.34,5.14,5.35,5.35,0,0,1-5.1,1.48c-.91-.2-1.87-.62-2.74-.27-2.35,1-.21,4.91-1.67,7-1.06,1.53-3.66,1.05-4.74-.46s-1-3.55-.71-5.39a5.35,5.35,0,0,1-2.95-.47c-.78,1.84-2,4-4,4-2.4,0-3.48-3-3.64-5.38a34.75,34.75,0,0,1,2.86-16.32,33.81,33.81,0,0,0,2.25-5.57c.68-2.87.23-5.94,1.06-8.78,1.13-3.86,4.54-6.87,5.12-10.85.35-2.39-.37-4.79-1.09-7.09l-4.56-14.66c-1.21-3.86-3-8.3-6.92-9.28l-10.13.79a315.75,315.75,0,0,0-40.9,4.93L363.3,1808c-2.83.84-5.06,3-7.21,5q-5.43,5.1-11.13,9.93a9.12,9.12,0,0,1-2,1.39,15.19,15.19,0,0,1-3,.77c-2.11.49-4.06,1.57-6.16,2.1s-4.61.4-6.11-1.17a12.31,12.31,0,0,1-8,2,7.44,7.44,0,0,0-3.42,0,26.48,26.48,0,0,0-2.24,1.43,3.65,3.65,0,0,1-2.93.16,18.66,18.66,0,0,1-2.23-1.32c-2.89-1.55-6.48-.29-9.28,1.43l-22.67-8C224.4,1850,171.15,1884,144,1937.06c-9.59,18.75-15.46,39.14-21.29,59.39-11.3,39.29-22.61,78.64-30.63,118.73-6.5,32.5-10.82,65.41-14.35,98.37-2.92,27.16-4.65,57,11.18,79.27,13,18.23,35.05,27.35,56.36,34.16a515.29,515.29,0,0,0,133.47,23.93c34.2,1.55,69.67-.1,101.23,13.14,11,4.63,21.62,11.31,28.23,21.27,8.35,12.6,9.23,28.5,11.66,43.42C430.53,2494,478,2552,539.9,2575.35l18.2,8.39a542.88,542.88,0,0,1,174.51,89.36ZM945,1694.27l123-46.16c2.51-.94,5.35-2.21,6.09-4.8.81-2.79-1.47-5.71-4.2-6.69s-5.75-.52-8.62-.06c-59.29,9.62-119.24,19.55-174.45,43.2l-4.26,4.22a73.75,73.75,0,0,1-11.06,8.14,24.67,24.67,0,0,1-13.11,3.49,12.23,12.23,0,0,0-4.52.14c-.75.26-1.42.71-2.15,1-2.52,1.18-5.44.91-8.23,1-9.8.3-18.86,5.14-28.52,6.82a44.9,44.9,0,0,1-18.78-.71l-.56-.12a17.32,17.32,0,0,1,9.35,10.71,7.46,7.46,0,0,1,3.26-.44,2.54,2.54,0,0,1,2.19,2.14,11,11,0,0,0-.1,1.62c.24,1.35,2.14,1.62,2.94,2.74s.07,3-.75,4.29l-4.58,7.29,3.36-1.31a1.41,1.41,0,0,1,.89-.14c.46.14.65.68.76,1.14l2.49,3.37q28.81-9.89,56.8-22a87.88,87.88,0,0,1,8.78-3.46c3.78-1.17,7.72-1.78,11.43-3.15,3.29-1.22,6.33-3,9.53-4.44,11.18-5,23.79-5.36,36-5.66Zm-174.47,67.38a28.55,28.55,0,0,1,.63-14.42c-1.64.22-3.37-1.25-4.67-2.28-2.22,1-3.35,3.22-5.8,3.23-1.75,0-2.05-.84-2.11-2.59s-.24-2.4.53-4a9.38,9.38,0,0,0,1.34-5c-.09-.88-.42-1.72-.48-2.6a2.27,2.27,0,0,1,1-2.26,5.26,5.26,0,0,1,3.42-6.61,3,3,0,0,1,4.17-3.88c.44.26,1,.65,1.41.36a1.11,1.11,0,0,0,.36-.7,19.84,19.84,0,0,0-8-20.26l-4.61-8.66q-10-26.51-21.81-52.31c-1.93-4.26-3.9-8.5-5.54-12.88-6.57-17.51-7.76-37-16.54-53.49l-2.84-11.82a91,91,0,0,0,3.58-9.57c.92-2.93,1.69-5.9,2.61-8.83a95,95,0,0,1,4.2-10.92l11.25-17.32c.82-16.41,7.28-31.93,11.6-47.79a185.23,185.23,0,0,0,6.44-45l1.08-19.16,1.34-11.39a106.13,106.13,0,0,0,22,2.56,6.65,6.65,0,0,1,2.91.45,6.3,6.3,0,0,1,2,1.75,84,84,0,0,1,5.38,7.22l7.47-2.7a2.78,2.78,0,0,0,2.58-1.26,12.45,12.45,0,0,1,1.9-2.35c1.54-1.19,3.72-.82,5.62-.39a9,9,0,0,1,3.36,1.26c1.52,1.12,2.26,3.13,3.91,4,1,.55,2.24.61,3.28,1.1,1.86.86,2.82,2.9,3.66,4.76q4,8.79,8.61,17.23l2.56,3.83c4.73,5.66,8.92,11.76,13.72,17.36s10.31,10.78,17,14l8.38,3.16a12.14,12.14,0,0,0,8.77,1.71c1.63-.31,3.52-1.58,3-3.17a13.64,13.64,0,0,1,5,8.29,8.21,8.21,0,0,0,.47,2,6.25,6.25,0,0,0,1.54,1.86l11,10.27c1.19,1.11,2.55,2.29,4.18,2.28a12.67,12.67,0,0,1,2.59-.2c1.33.25,2.09,1.62,2.71,2.82a58.18,58.18,0,0,0,13,16.62l.75,4.35c1.09,1.48,3.2,1.6,5,1.58,7.24-.11,14.48-.57,21.68-1.36a13.27,13.27,0,0,0,1,6,7.43,7.43,0,0,1,.46,1.27,6.11,6.11,0,0,1,0,1.76c-.17,2.32-.31,4.64-.44,7l-.13,2.29a53.54,53.54,0,0,0,.14,11.25l1.75,10a24.09,24.09,0,0,1,11.26,11.31,95.14,95.14,0,0,0-3,24.85l-3.29,9.21c-.1,6.4-.18,12.92,1.65,19s5.88,12,11.84,14.27a27.17,27.17,0,0,0,9.36,1.46l13-3.59a208.08,208.08,0,0,0,49.3-15.07l11.64-.36,7.48-21a15.69,15.69,0,0,0,7-.85,7.43,7.43,0,0,0,4.58-5.06c1.52,1.92,4.46,1.75,6.82,1.11a29.87,29.87,0,0,0,10.44-5.17l.2,3.18a24.67,24.67,0,0,0,10.19-1.77,12.32,12.32,0,0,0,5.51-3.91,6.3,6.3,0,0,0,.78-6.45l7.86,3.59a2.05,2.05,0,0,0,1.91.17,2,2,0,0,0,.66-1.27,47.15,47.15,0,0,0,1-13.71,15.11,15.11,0,0,1,10.36,7.52,20.91,20.91,0,0,0,6.78-17.52,3.65,3.65,0,0,0,3.11,1.78,10.8,10.8,0,0,0,3.67-.69c4.81-1.5,9.9-3.2,13-7.12l8.13-4.31c9.3-11.09,13.11-25.68,16-39.87,1.07-5.35,2-10.8,1.52-16.22s-2.75-10.9-7.05-14.25l-19.83-24.18c-13.6-11.27-27.31-22.64-38.27-36.48-8.39-10.58-15-22.43-21.53-34.27-9.7-17.67-19.24-35.61-25-54.93-2.38-8-4.08-16.18-5.78-24.35l-3.28-24.55a105.21,105.21,0,0,0-116.62-88.07L925,1191.9c-4.61-.35-9.29,1.2-13.7,2.59a30.48,30.48,0,0,1,.28-3.57,38.09,38.09,0,0,0-12.83,3.62l-16.44-.51-10.65,12.86a58.2,58.2,0,0,0-24.1,21.78,2,2,0,0,1-.63.73,2,2,0,0,1-.91.17l-5.29.18c-6.44-12.68-18.1-21.76-29.4-30.4-7.49-5.74-15.88-11.77-25.31-11.25l-1.38.44q10.07-72.78,13.86-146.24c.24-4.59.74-9.76,4.31-12.64-3.39.43-6.93,1.08-9.59,3.24-5.6,4.55-4.92,13.5-9.3,19.23-3.46,4.52-9.57,6.38-13,10.92-3,4-3.41,9.23-3.74,14.18q-3.51,52.89-9.6,105.57l-2.82.38c-4.61-.43-9.27-.88-13.64-2.42-3.13-1.1-6-2.75-9.18-3.86l-.64-1.13c2-12.45,4.11-25,4.12-37.57,0-35.53-17.29-70.66-45.47-92.29-7.26-5.57-15.36-10.35-24.32-12.19l-.7-2.82a111.42,111.42,0,0,0-7.86-37l1.15-3.24c3.4-2.32,3.62-7.15,5.22-10.94a27.88,27.88,0,0,1,2.59-4.53l17.32-26.43c5.2-7.92,10.47-16,13.09-25.11,1.25-4.35,1.89-8.88,3.47-13.13,4.57-12.24,16.68-20.47,29.38-23.6s26-1.91,39-.2,26,3.91,39,2.67c2.78-.27,6.26-1.42,6.39-4.21l-2.14-.91c6.57.17,13.23.34,19.67-1S844,878.85,848,873.63l-.12-1.91a11,11,0,0,1-4.61-4.23,2.6,2.6,0,0,1-.47-1.49c.1-1,1.15-1.61,2.07-2,8-3.58,16.43-6.38,24.24-10.42s15.17-9.53,19.61-17.12a21.18,21.18,0,0,0-9.08-2.12c1.37-3.24,5.16-4.55,8.5-5.66a122.8,122.8,0,0,0,12.92-5.15c6.11-2.86,12.06-6.28,16.91-11s8.6-10.75,9.6-17.43a20.09,20.09,0,0,0-12.31,4.54l.55-.43a49.65,49.65,0,0,1,6.55-10.2c4.47-5.51,10.82-9.13,16-14a44.11,44.11,0,0,0,10.17-14.51c1.19-2.77,2.23-5.84,4.67-7.61a37.7,37.7,0,0,1-8.86-5.19c3.41-4.1,8.81-6,12.69-9.63,5.12-4.83,7.17-12.36,12.62-16.82,1.45-1.19,3.1-2.12,4.52-3.35,2.54-2.18,4.2-5.19,5.8-8.13l13.6-15.26c3.16-21.74-4.26-44.33,1-65.68,1.19-4.9,3-9.64,3.75-14.63.8-5.59.15-11.28,0-16.93-.36-15.26,3.11-30.66.41-45.69l-4.39-7.33a62.31,62.31,0,0,1-14.8-9.41,27.08,27.08,0,0,1-7.1-8.49c-2-4.14-2.29-8.89-2.31-13.49,0-7,.47-14.17,2.65-20.86s6.18-13,12-16.9a11.86,11.86,0,0,1-7.45-6.47,29.7,29.7,0,0,1-2.47-9.82A120.32,120.32,0,0,1,979.8,408l-11.11-26.36c-7.12-6.05-14.2-12.33-19.47-20.06-9.27-13.59-12.14-31.62-6.55-47.1a9.38,9.38,0,0,0,0-8.41,48,48,0,0,1-2-18.18l-.8-19.92q.74-17,0-33.92l-4.74-25.75-7.75-19.64c-1.21-13.8-2.55-28.07-9.31-40.15s-20.49-21.44-34-18.6c-12,2.51-20.2,13.28-28.43,22.42-43.93,48.82-112.73,64.81-169.85,97.23-37.36,21.19-70.06,49.73-106.7,72.14s-79.63,38.83-122,31.85a72.68,72.68,0,0,1-22.33-7c-19.52-10.36-30.22-31.5-41.93-50.25-48-76.83-127.77-127.12-204.83-174.76-10.35-6.4-21.4-13-33.57-13-9.17,0-18,3.81-25.52,9-32.66,22.7-40.45,66.87-45.51,106.31-8.56,66.73-17,135.6,1.1,200.4,8.27,29.66,22,57.77,28.07,87.95s3.24,64.59-17.75,87.14c-5.11,5.49-11.17,10.14-15.5,16.26-20.88,29.5,8.35,69.76,3.52,105.59-.68,5.08-2.53,10.65-7.12,12.92-3.84,1.9-8.39.91-12.68.79C47.28,734.43,33.5,746.63,27.17,761s-6.75,30.46-7,46.11q-1.61,101.69,1.05,203.36l-1.91,15.92c-6.88,23.17-1.9,48.32,6.81,70.86s21,43.58,29.52,66.21c28.62,76.17,11.85,163.31,38.56,240.17,15.07,43.34,43.55,82,51.74,127.16,6.64,36.6-.7,74.31,2.14,111.4.6,7.89,1.77,16,6,22.72,7.43,11.63,23,16,36.59,13.58s25.46-10.54,36-19.45a216.18,216.18,0,0,0,59.39-80.57l9.18-11.15c2.79-2.15,4.69-5.22,6.81-8s4.71-5.54,8.11-6.48l17.62-2.81c27-2.31,55.51-1.48,79.17,11.71a4.31,4.31,0,0,1,2.05,1.85c.42,1,.07,2.16.36,3.2.53,1.93,2.91,2.61,4.91,2.63s4.21-.2,5.79,1c1.81,1.4,2.21,4.31,4.32,5.19,1.43.6,3.05,0,4.59-.15,3.66-.33,7,2,9.88,4.22,5.39,4.11,10.8,8.22,15.77,12.83,10.42,9.65,19.33,21.75,32.51,27l.71-2c.61-1.66.12-3.48-.06-5.24s.14-3.85,1.7-4.69a5.11,5.11,0,0,1,1.86-.48l6.66-.87a7.9,7.9,0,0,1,5.61-7.29,10.77,10.77,0,0,1,9.33,1.8,2.76,2.76,0,0,0,2,.81,4.34,4.34,0,0,0,1.34-.85,2.9,2.9,0,0,1,4.16,1.41,9.92,9.92,0,0,1,7.69.26,4.42,4.42,0,0,1,7,3.18,5.2,5.2,0,0,1,6,2.33,4.06,4.06,0,0,0,1,1.46,3.35,3.35,0,0,0,1.43.42,8.16,8.16,0,0,1,4.94,2.49,12.91,12.91,0,0,1,1.79,3.1,25.46,25.46,0,0,1,2.62,8,16,16,0,0,0,.48,3.91,10.22,10.22,0,0,0,1.51,2.51l7.66,10.22,3.43,14.86,47.06,67.76c10.86,15.65,21.8,31.39,35.08,45l13.14,14.29c4.55,5.75,9.18,11.58,15.17,15.8a67.36,67.36,0,0,0,14.18,7.15c3.34,1.33,6.71,2.6,9.94,4.19,11.87,5.87,21.24,15.9,33,22,3.31,1.74,6.8,3.17,9.92,5.22L740.46,1826a19.62,19.62,0,0,1-4.26-10.72,9.1,9.1,0,0,0-.58-3.34,13.24,13.24,0,0,0-1.61-2.13,8.7,8.7,0,0,1-1.81-4.66c-.13-1.66.22-3.38-.31-5a22.33,22.33,0,0,0-1.53-2.9c-1.56-3.11-1.35-7.56-4.46-9.12-1-.52-2.42-.71-2.87-1.77a2.14,2.14,0,0,1,1.31-2.56,6.91,6.91,0,0,1,3.14-.3,40.74,40.74,0,0,0,25.95-7.83Z"></path>
    <path data-name="3" data-official="Flacourtia inermis" data-plain="Thornless Flacourtia" data-loc="East Indies" d="M1040.79,2611q-26-39-51-78.71c-10.24-16.26-20.48-32.9-25.59-51.42l-11.93-8.82a285.18,285.18,0,0,0,35.42-94.88l7.76-20.81c23.51,13,49.87,20.1,73.59,32.7,13.32,7.07,26.48,16.08,41.54,16.77l13.51,9.79c18.21,17.25,36.66,34.78,49.51,56.32,14.48,24.27,21.14,52.43,34.23,77.48l4.83,35.77c2,19.77-11.46,38.54-28.55,48.66s-37.29,13.32-57,16.11c-8.61,1.22-17.34,2.4-26,1.26-12-1.6-23-7.6-33.55-13.49ZM902,1702.12c-3.2,1.43-6.24,3.22-9.53,4.44-3.71,1.37-7.65,2-11.43,3.15a87.88,87.88,0,0,0-8.78,3.46q-28,12.13-56.8,22l-2.49-3.37c-.11-.46-.3-1-.76-1.14a1.41,1.41,0,0,0-.89.14l-3.36,1.31,4.58-7.29c.82-1.31,1.64-3,.75-4.29s-2.7-1.39-2.94-2.74a11,11,0,0,1,.1-1.62,2.54,2.54,0,0,0-2.19-2.14,7.46,7.46,0,0,0-3.26.44,17.32,17.32,0,0,0-9.35-10.71l.56.12a44.9,44.9,0,0,0,18.78.71c9.66-1.68,18.72-6.52,28.52-6.82,2.79-.09,5.71.18,8.23-1,.73-.33,1.4-.78,2.15-1a12.23,12.23,0,0,1,4.52-.14,24.67,24.67,0,0,0,13.11-3.49,73.75,73.75,0,0,0,11.06-8.14l4.26-4.22,16.1-7.5a174.83,174.83,0,0,0,40.74-19.13c5.88-3.76,11.71-8.07,15.11-14.17,3-5.45,3.85-11.82,4.6-18l-6.81-6.42c-1.83-6.13-1.75-12.65-1.65-19l3.29-9.21a95.14,95.14,0,0,1,3-24.85,24.09,24.09,0,0,0-11.26-11.31l-1.75-10a53.54,53.54,0,0,1-.14-11.25l.13-2.29c.13-2.33.27-4.65.44-7a6.11,6.11,0,0,0,0-1.76,7.43,7.43,0,0,0-.46-1.27,13.27,13.27,0,0,1-1-6c-7.2.79-14.44,1.25-21.68,1.36-1.83,0-3.94-.1-5-1.58l-.75-4.35a58.18,58.18,0,0,1-13-16.62c-.62-1.2-1.38-2.57-2.71-2.82a12.67,12.67,0,0,0-2.59.2c-1.63,0-3-1.17-4.18-2.28l-11-10.27a6.25,6.25,0,0,1-1.54-1.86,8.21,8.21,0,0,1-.47-2,13.64,13.64,0,0,0-5-8.29c.47,1.59-1.42,2.86-3,3.17a12.14,12.14,0,0,1-8.77-1.71l-8.38-3.16c-6.65-3.2-12.16-8.37-17-14s-9-11.7-13.72-17.36l-2.56-3.83q-4.65-8.43-8.61-17.23c-.84-1.86-1.8-3.9-3.66-4.76-1-.49-2.26-.55-3.28-1.1-1.65-.9-2.39-2.91-3.91-4a9,9,0,0,0-3.36-1.26c-1.9-.43-4.08-.8-5.62.39a12.45,12.45,0,0,0-1.9,2.35,2.78,2.78,0,0,1-2.58,1.26l-7.47,2.7a84,84,0,0,0-5.38-7.22,6.3,6.3,0,0,0-2-1.75,6.65,6.65,0,0,0-2.91-.45,106.13,106.13,0,0,1-22-2.56l-1.34,11.39-1.08,19.16a185.23,185.23,0,0,1-6.44,45c-4.32,15.86-10.78,31.38-11.6,47.79l-11.25,17.32a95,95,0,0,0-4.2,10.92c-.92,2.93-1.69,5.9-2.61,8.83a91,91,0,0,1-3.58,9.57l2.84,11.82c8.78,16.51,10,36,16.54,53.49,1.64,4.38,3.61,8.62,5.54,12.88q11.74,25.79,21.81,52.31l4.61,8.66a19.84,19.84,0,0,1,8,20.26,1.11,1.11,0,0,1-.36.7c-.43.29-1-.1-1.41-.36a3,3,0,0,0-4.17,3.88,5.26,5.26,0,0,0-3.42,6.61,2.27,2.27,0,0,0-1,2.26c.06.88.39,1.72.48,2.6a9.38,9.38,0,0,1-1.34,5c-.77,1.58-.59,2.22-.53,4s.36,2.59,2.11,2.59c2.45,0,3.58-2.2,5.8-3.23,1.3,1,3,2.5,4.67,2.28a28.55,28.55,0,0,0-.63,14.42l-17.12,14.07a40.74,40.74,0,0,1-25.95,7.83,6.91,6.91,0,0,0-3.14.3,2.14,2.14,0,0,0-1.31,2.56c.45,1.06,1.84,1.25,2.87,1.77,3.11,1.56,2.9,6,4.46,9.12a22.33,22.33,0,0,1,1.53,2.9c.53,1.58.18,3.3.31,5a8.7,8.7,0,0,0,1.81,4.66,13.24,13.24,0,0,1,1.61,2.13,9.1,9.1,0,0,1,.58,3.34,19.62,19.62,0,0,0,4.26,10.72l3.15,10.32c-3.12-2-6.61-3.48-9.92-5.22-11.72-6.15-21.09-16.18-33-22-3.23-1.59-6.6-2.86-9.94-4.19a67.36,67.36,0,0,1-14.18-7.15c-6-4.22-10.62-10-15.17-15.8l-13.14-14.29c-13.28-13.65-24.22-29.39-35.08-45l-47.06-67.76L562.73,1640l-7.66-10.22a10.22,10.22,0,0,1-1.51-2.51,16,16,0,0,1-.48-3.91,25.46,25.46,0,0,0-2.62-8,12.91,12.91,0,0,0-1.79-3.1,8.16,8.16,0,0,0-4.94-2.49,3.35,3.35,0,0,1-1.43-.42,4.06,4.06,0,0,1-1-1.46,5.2,5.2,0,0,0-6-2.33,4.42,4.42,0,0,0-7-3.18,9.92,9.92,0,0,0-7.69-.26,2.9,2.9,0,0,0-4.16-1.41,4.34,4.34,0,0,1-1.34.85,2.76,2.76,0,0,1-2-.81,10.77,10.77,0,0,0-9.33-1.8,7.9,7.9,0,0,0-5.61,7.29l-6.66.87a5.11,5.11,0,0,0-1.86.48c-1.56.84-1.88,2.93-1.7,4.69s.67,3.58.06,5.24l-.71,2c-13.18-5.29-22.09-17.39-32.51-27-5-4.61-10.38-8.72-15.77-12.83-2.92-2.21-6.22-4.55-9.88-4.22-1.54.14-3.16.75-4.59.15-2.11-.88-2.51-3.79-4.32-5.19-1.58-1.21-3.79-1-5.79-1s-4.38-.7-4.91-2.63c-.29-1,.06-2.21-.36-3.2a4.31,4.31,0,0,0-2.05-1.85c-23.66-13.19-52.18-14-79.17-11.71l-17.62,2.81-7.06,10.31c-3.07,10.54,4.43,21.16,12.58,28.51s17.86,14.06,21.4,24.44c4,11.59-1,24.22-6.69,35.08a255.68,255.68,0,0,1-26.08,40.21c-14.12,17.84-30.78,34-41.19,54.26s-13.3,46.52.34,64.73l13.4,11.52,22.67,8c2.8-1.72,6.39-3,9.28-1.43a18.66,18.66,0,0,0,2.23,1.32,3.65,3.65,0,0,0,2.93-.16,26.48,26.48,0,0,1,2.24-1.43,7.44,7.44,0,0,1,3.42,0,12.31,12.31,0,0,0,8-2c1.5,1.57,4,1.7,6.11,1.17s4.05-1.61,6.16-2.1a15.19,15.19,0,0,0,3-.77,9.12,9.12,0,0,0,2-1.39q5.7-4.82,11.13-9.93c2.15-2,4.38-4.15,7.21-5l5.25-2.43a315.75,315.75,0,0,1,40.9-4.93l10.13-.79c3.93,1,5.71,5.42,6.92,9.28l4.56,14.66c.72,2.3,1.44,4.7,1.09,7.09-.58,4-4,7-5.12,10.85-.83,2.84-.38,5.91-1.06,8.78a33.81,33.81,0,0,1-2.25,5.57,34.75,34.75,0,0,0-2.86,16.32c.16,2.39,1.24,5.38,3.64,5.38,2,0,3.21-2.15,4-4a5.35,5.35,0,0,0,2.95.47c-.3,1.84-.36,3.87.71,5.39s3.68,2,4.74.46c1.46-2.07-.68-6,1.67-7,.87-.35,1.83.07,2.74.27a5.35,5.35,0,0,0,5.1-1.48,4.18,4.18,0,0,0,.34-5.14l5-.25a6.82,6.82,0,0,0,4.16,4.57,5.27,5.27,0,0,0,5.79-1.63,4.33,4.33,0,0,0-.56-5.78,5.6,5.6,0,0,0,2.31-4.2,8.33,8.33,0,0,0,6.23.57,3.66,3.66,0,1,0,6.83,0c-.64-1.64-2.45-2.84-2.43-4.61,1.53.81,3.52-.64,3.74-2.35a5.41,5.41,0,0,0-2.12-4.52c-1.3-1.14-2.87-1.94-4.21-3a11.87,11.87,0,0,1-4-6.73,3.4,3.4,0,0,0-.58-1.63c-1-1.19-3-.3-4.43-1a4.93,4.93,0,0,1-1.83-2.46,13.67,13.67,0,0,0-7.31-6.59c-2.39-.91-5-1.12-7.36-2.09-4.07-1.66-7-5.36-9-9.27s-3.33-8.15-5.37-12l1.15-3.94c2.74-3.31,7.27-4.57,11.56-4.81s8.62.33,12.89-.16l8.08,1.19a18.18,18.18,0,0,0,14.56,13.11,4.33,4.33,0,0,1,2,.63c1.21,1,1.05,3.14,2.44,3.8a35.69,35.69,0,0,1-.08,12.28,3.86,3.86,0,0,0,5.44.11,2.63,2.63,0,0,0,2.78,2.36c-.94,2.43-1.55,5.86.76,7.08,1.61.84,3.68-.19,4.61-1.75a10.79,10.79,0,0,0,1.08-5.26,3.37,3.37,0,0,0,5-3.79l3.83,3.21c.72,2.52,3.39,4.54,5.93,3.91s3.8-4.42,1.79-6.1a4.57,4.57,0,0,0,3.21-2.74,5,5,0,0,0,8.63-2.4,4.61,4.61,0,0,0,6.63-3.32l3.89-1.45a31.6,31.6,0,0,1,10.93.19l11.62,1.27A36,36,0,0,1,579,1828.86c2.35,2.84,4.26,6,6.73,8.77,3.9,4.31,9,7.3,14.28,9.79a104.45,104.45,0,0,0,47.66,9.95l7.9,3c5.83-1.81,11.75-3.63,17.85-3.77s12.52,1.62,16.73,6a25.46,25.46,0,0,0,3.68,3.73c1.68,1.15,3.75,1.54,5.66,2.25,4,1.52,7.27,4.51,10.92,6.79,5.52,3.45,11.91,5.23,17.69,8.21,14.23,7.34,23.68,21.25,32.53,34.6L784.38,1963c30.13,56.89,76.57,103.41,110.81,157.92l7.3,14.65-1.39-9.66c2.61-9.35,3.3-19.12,3.71-28.81.59-13.9.61-28-3-41.44-2.16-8-5.58-15.62-7.69-23.63-2.16-8.19-2.93-16.68-4.61-25-3-15.07-9-29.35-15-43.51l1.68-14.13c3.79-16.48,16-29.8,21.43-45.81,2.18-6.44,3.24-13.21,5.29-19.69,4.67-14.81,14.33-27.66,19-42.47,1.7-5.38,2.73-11,4.7-16.27,3.34-8.94,9.25-16.65,15.22-24.1l3-9.56a195.31,195.31,0,0,0-3.82-63.13c-1.75-7.67-4.51-16-11.32-19.91Z"></path>
    <path data-name="3a" data-official="" data-plain="Stamen magnified" data-loc="" d="M543,2621.21a105.45,105.45,0,0,1,104.69,96.25c1.28,14.59-.88,30.3-10.25,41.56-15,18-44.36,18.16-63.81,5.18s-30.3-35.66-36-58.34c-5.64-22.39-7.15-45.68-6.34-68.76Z"></path>
    <path data-name="3b" data-official="" data-plain="Flower magnified" data-loc="" d="M267.39,2616.19c-8.88-13.35-2-32.63,10.88-42.2S308,2562.3,324,2561.57a361.1,361.1,0,0,1,41,.43c19.33,1.29,39.9,4.74,54,18,11.91,11.2,17.24,27.6,21.29,43.44,4.75,18.64,8.37,37.86,6.81,57s-8.81,38.47-23,51.47c-18.36,16.84-45.94,20.75-70.22,15.16s-45.8-19.47-65.49-34.73c-6.8-5.27-13.56-10.85-18.2-18.08-9.23-14.4-8.67-32.76-7.78-49.84Z"></path>
    <path data-name="3c" data-official="" data-plain="Fruit" data-loc="" d="M86.59,2690.08a154,154,0,0,1-33.83-75.49c-2.7-18.07-2-37,4.5-54s19.46-32.1,36.45-38.82c10.75-4.25,22.51-5.06,34.06-5.75,25.85-1.55,53.84-2.21,75.15,12.52,15,10.38,24.53,27.27,29.38,44.85s5.47,36,5.81,54.27c.43,24.17-.56,51-17.24,68.45-6,6.25-13.77,11.07-17.67,18.78-4,8-3.57,18.52-10.26,24.48-7.91,7.07-20.32,3.24-30.75,5.19-14.88,2.78-24.43,17-37.17,25.22a50.08,50.08,0,0,1-42.79,5.09c-5.54-1.91-10.87-4.94-14.45-9.58-6.51-8.43-6-20.68-1.49-30.33s12.29-17.31,19.93-24.73Z"></path>
</svg>
