
<svg xmlns="http://www.w3.org/2000/svg" viewBox="0 0 1930 2844" id="illustration" preserveAspectRatio="xMidYMid meet">
    <title>Amaryllidaceæ</title>
    <path data-name="bg" data-official="" data-plain="" data-loc="" d="M1056.08,2501.88c3.52-5.17,8.34-9.74,9.86-15.8,1.21-4.79.15-9.83-1-14.65s-2.44-10-5-14.31c-1.53-2.53-3.48-4.79-4.86-7.4-2.18-4.1-2.8-8.77-3-13.45a84.72,84.72,0,0,0-22.49-18.49,11.8,11.8,0,0,1-4.4,6.07c-3,2-6.78,2.14-10.37,2.23-5.21.12-11.24-.14-14.39-4.29-2.24-3-2.26-7.08-1.32-10.66a38.91,38.91,0,0,1,1.48-4.34,186.32,186.32,0,0,0-28.2-4.31,32.19,32.19,0,0,1-6.69,13.28c-5,5.79-12.8,9.41-20.41,8.47-1.4-.17-2.87-.48-4.16.08-2.49,1.09-2.66,4.5-2.45,7.21q.85,10.82,1.7,21.62c.09,1.13.08,2.48-.86,3.11a3.18,3.18,0,0,1-2.07.31l-10-.71c-1.64-.12-3.89-1.12-3.26-2.64.15-.39.49-.8.28-1.16s-.55-.28-.87-.25l-6.53.45c-1.12.07-2.48.33-2.84,1.38-.24.71.09,1.5-.08,2.22-.43,1.8-3.21,1.53-4.55.26s-2.26-3.16-4-3.68c-2.56-.75-5.25,1.84-7.79,1a15.68,15.68,0,0,1-2.38-1.36,10.09,10.09,0,0,0-4.63-.81c-2.7-.05-5.66,0-7.74,1.72-.78.65-1.65,1.57-2.59,1.22a3.46,3.46,0,0,1-.91-.63c-1.83-1.39-4.44-.43-6.51.56l-1.95-.74c.24,4.76-1.54,9.4-3.73,13.63-6.48,12.52-16.63,22.72-27.17,32.08q-7.91,7-16.23,13.58l-.89.52c-2.61,1.9-5.62,3.84-8.82,3.38a85.61,85.61,0,0,1-18,29.64l-.93.75-13.85,5.88a3.59,3.59,0,0,0-1.47.93c-.7.85-.49,2.09-.63,3.18a4.74,4.74,0,0,1-7.92,2.86,14.61,14.61,0,0,0-1.6-1.55c-2-1.3-4.51.28-6.58,1.44a19,19,0,0,1-14.78,1.53c-2.18-.68-4.25-1.77-6.49-2.2a11.8,11.8,0,0,0-10.68,3.5,8.23,8.23,0,0,1-1.76,1.68,6.23,6.23,0,0,1-2.17.62l-5.44.84a9.83,9.83,0,0,1-3.15.16c-2.12-.34-3.78-2-5.29-3.48a4.7,4.7,0,0,1-4.51,3c-1.48-.07-3.23-.76-4.24.31a9.31,9.31,0,0,0-.68,1c-.87,1.29-2.64,1.64-4.19,1.54a25.23,25.23,0,0,0-4.65-.34c-2.91.36-5.6,2.85-8.39,2l-1.24-.23a21.46,21.46,0,0,1-9.45-14.51c-3.93,4.58-8.18,9.38-14,11.13a31.69,31.69,0,0,1-5.65,1l-4,.46c-2.48.28-5.16.53-7.33-.7a3.78,3.78,0,0,0-1.51-.67,3.32,3.32,0,0,0-1.67.53,11.88,11.88,0,0,1-9.88.29c-.92-.39-2-.9-2.84-.43-.33.18-.58.48-.9.69-1.22.77-2.84-.17-3.72-1.31s-1.51-2.58-2.79-3.27a4.72,4.72,0,0,0-4.42.39c-1.36.74-2.49,1.83-3.81,2.63-2.86,1.74-6.33,2.06-9.67,2.33L589,2569.51c-2.56.21-5.31.38-7.53-.9-2.53-1.47-4-4.58-6.72-5.49-2.25-.74-4.66.22-6.93.93s-5,1.08-6.76-.52l-.65-.21c-7.12-3.73-14.78-7.45-22.79-6.74-2.53.22-5,.89-7.58.69a22.22,22.22,0,0,1-7.52-2.45c-2.19-1-4.47-2.09-6-4-.83-1-1.5-2.37-2.76-2.8a21.85,21.85,0,0,0-2.45-.28c-1.44-.3-2.63-1.58-4.1-1.51a22.77,22.77,0,0,0-2.27.56,5.59,5.59,0,0,1-3.62-1.13,42.62,42.62,0,0,1-7.83-6.15c-2.28-2.27-4.68-5-7.89-5.13l-.55-.14a9.25,9.25,0,0,1-6,3.75,27.35,27.35,0,0,1-7.29.16l-8.69-.58c-2.33-.16-4.76-.34-6.8-1.49-3.18-1.79-5-5.69-8.54-6.69-2.27-.65-5.28-.18-6.45-2.23-.49-.84-.58-2-1.47-2.43a7.45,7.45,0,0,0-1.65-.18,3.68,3.68,0,0,1-2.12-1.81c-8.25-11.93-16-24.64-18.85-38.86-.55-2.73-1.05-5.75-3.2-7.51-3.06-2.52-7.81-1.19-11.36-3a2.94,2.94,0,0,1-1.87-2.31c0-1.45,1.49-2.33,2.6-3.26a7.68,7.68,0,0,0,2.68-4.68l-.95-4a68.86,68.86,0,0,1,2.56-21.12l-9.69,1.47c0,.31-.09.61-.12.92a84.13,84.13,0,0,0-.2,10.17q.5,26.91-1,53.79l-.7,1.54a4.13,4.13,0,0,0-2.53,5.41,7.23,7.23,0,0,1,1,2.27c.16,2.22-3,2.77-5.22,2.49l-9.37-1.22c-1.53-.2-3.36-.29-4.33.91a16.27,16.27,0,0,0-1.06,2.18c-1.09,1.86-3.64,2.1-5.79,2.13l-13.66.18c1,.75.8,2.42-.08,3.32a6.74,6.74,0,0,1-3.38,1.51l-6,1.41a11,11,0,0,1-4.33.43c-4.38-.75-6.91-6.51-11.36-6.44-2.86,0-5.08,2.57-7.86,3.28-3.25.82-7.05-.91-9.89.87-.91.58-1.65,1.49-2.7,1.75-1.74.45-3.29-1-4.88-1.88-3.46-1.82-7.66-.55-11.34.76-2.42.87-5.1,1.75-7.48.77a5.22,5.22,0,0,1,0-9.65c1.07-.44,2.31-.55,3.2-1.28,1.85-1.54,1-4.5-.06-6.67-1.2.33-2.29-.77-3.05-1.75a159.53,159.53,0,0,1-9.43-13,31.38,31.38,0,0,0-3.14-4.49c-3.47-3.8-9.24-5.6-11.19-10.36l-2.92-3.75L252,2455.19l0-.37c-28.34,6-56.6,17.76-68.3,43.35-9.85,21.53-4.43,47.72,8.68,67.43s32.88,34,53.12,46.25c91.4,55.47,199.79,78.7,306.7,79.83s213-18.85,316.71-44.75c43.16-10.78,87.81-23.52,120.71-53.46,10.74-9.77,19.91-21.11,29-32.41l25.1-31.09c2.17-2.69,4.36-5.41,6.49-8.19A33,33,0,0,1,1056.08,2501.88Zm-709.63,101c-1.44,6.49-3.79,12.91-8,18.05s-10.47,8.87-17.11,8.85a10.55,10.55,0,0,1-6.3-1.77c-3.71-2.72-4.08-8.17-3.08-12.65a60.72,60.72,0,0,1,4.89-12.62,28.94,28.94,0,0,1,4.3-7.15,14.63,14.63,0,0,1,13.67-4.37l2.25.33c3.85.81,8.35,2.18,9.54,5.93A10.54,10.54,0,0,1,346.45,2602.85Zm277,77.35A20.62,20.62,0,1,1,644,2659.59,20.61,20.61,0,0,1,623.42,2680.2Z"></path>
    <path data-name="1" data-official="Amaryllis belladonna" data-plain="Belladonna Lily" data-loc="West Indies" d="M1121.64,2322.33c6.3-23,14.91-45.37,20.65-68.53,4.85-19.55,7.66-39.73,15.08-58.46,2.43,3.11,7.18,2.5,11.08,2s9,0,10.15,3.77l2.33,5.61c3,40.64,6,81.41,14,121.36,3.39,16.92,7.67,33.66,10.54,50.66.46,2.71.87,5.55,0,8.14-2,5.83-9.37,7.71-13.37,12.41-8.76,10.3,1.92,28.41-6.6,38.91-3.33,4.1-8.76,5.77-13.93,6.86-6.25,1.32-14.31,1.29-17.23-4.4s1.52-13.69-2.53-18.67-12.25-2.19-17.87-5.13-6.77-10-7.44-16.13l-5.8-54.06Zm54-271.29q1.51-51.19,1.12-102.42l-.3-4.32a4.47,4.47,0,0,0-3.79-2.63,10.24,10.24,0,0,0-4.73.9,61.93,61.93,0,0,0-9.08,4.78c-3.72,2.23-7.44,4.47-10.94,7-2.3,1.69-4.49,3.52-6.68,5.35-7.83,6.54-15.66,13.07-23.33,19.8a33,33,0,0,1-7.77,5.6l-3,6.39q-.36,117.58,3.85,235.13l1.68,4.77c2.52,1.36,5.8.28,7.82-1.75s3.06-4.81,4-7.5q8.4-22.77,16.81-45.54l8.41-22.79c6.09-16.52,12.2-33.07,16.66-50.1a271.66,271.66,0,0,0,7.85-45.47Zm-64.54-109.12a47.5,47.5,0,0,0,12.43-.55c2.92-.52,5.78-1.31,8.65-2.1,11.58-3.2,23.4-6.51,33.36-13.24l.6-.52c1.71-4.17,5.38-7.25,7.41-11.27a16.16,16.16,0,0,0,1.39-10.48l1.75-6q.1-32.18-.87-64.35c-.67-22.17-1.74-44.42-5.94-66.19l-.94-4.59c-.48-2-3.12-2.89-5.13-2.27s-3.5,2.25-5,3.74c-9,9.13-20.26,15.64-31.37,22-8,4.58-16,9.19-24.63,12.36l-5.22,6.17c6.81,44.5,6.19,89.78,10.73,134.57Zm-110.42,50.26q4.32,186.42-8.56,372.73l-.14,6.35.45,11.89c.1,2.67.31,5.59,2.16,7.51,2.48,2.55,7.32,2.71,8.44,6.09a6.73,6.73,0,0,1-.24,3.91c-1,3.55-2.81,6.88-3.75,10.47s-.92,7.7,1.32,10.66c3.15,4.15,9.18,4.41,14.39,4.29,3.59-.09,7.39-.24,10.37-2.23,4.08-2.74,5.41-8.11,5.67-13s-.21-10,1.56-14.57c2.09-5.4,7-9.21,12-12.05s10.51-5,15.06-8.61c10.81-8.49,14.59-23.22,15.11-37s-1.51-27.6.67-41.16l1.13-7q4.26-145.11-1.25-290.29l-.87-6.19q-19.15-5.7-38.65-10.23c-5.92-1.37-12-2.67-18-2.17a30.51,30.51,0,0,0-9.06,2.16Zm72-46.47c-4.4-31.88-2.24-64.27-3.52-96.43-.33-8.17-.89-16.42-3.2-24.27-.37-1.23-.88-2.58-2-3.16-1.34-.68-3,0-4.29.67-8,4.16-15.82,10.12-24.87,10l.12,0-28.23,25a18.11,18.11,0,0,0-4,4.37c-1.57,2.75-1.61,6.08-1.6,9.24l-2.21,5.64q-.86,37.32,1.45,74.62a11.55,11.55,0,0,0,.94,4.63,4,4,0,0,0,3.79,2.37l3.75,2.38c11.16,4.93,24,2.77,36,.53,9.1-1.7,18.63-3.6,25.77-9.49Zm-81.06-204.38c.14,10.23.29,20.46,1.12,30.66.4,5,1,10,1.54,14.93l3.67,32.23,1.75,4.32,25.21-10.49c5.49-2.29,11.3-4.61,17.19-3.86l1.07-.69a81.52,81.52,0,0,0,15.32-10.75,20,20,0,0,0,2.43-2.44,12,12,0,0,0,2.25-10.4l-.19-5.6a741,741,0,0,0-4.56-99.13c-.93-8.2-2-16.52-5.3-24.1l-1.23-4.77a6.62,6.62,0,0,0-3.72,2.59,48.46,48.46,0,0,0-5.61,9.24l-6.62,13-.18.52a8.38,8.38,0,0,1,1.38,6.68,20.24,20.24,0,0,1-2.72,6.45A71.6,71.6,0,0,1,1014,1712l-.16.69c0,3.24-2.13,6.06-4.25,8.51a29.81,29.81,0,0,1-4.95,4.84,11.86,11.86,0,0,1-6.39,2.44l-.6.41c-.89,1.23-1.8,2.43-2.75,3.6Zm-3.73-76.2.8,24.61,1.48,3.48c4-1,6.09-5.39,6.87-9.43s.89-8.42,3.2-11.83c2.83-4.18,8.66-6.43,9.61-11.39.18-1,.16-1.93.43-2.86.77-2.61,3.54-4,5.84-5.41a25.71,25.71,0,0,0,11.57-17.69c.5-3.31.34-6.69.93-10,1.15-6.38,5-11.91,9.07-17a57.43,57.43,0,0,0,6.61-9.24c1.74-3.37,2.67-7.33,1.67-11l1-4-1.54-6.18a1.39,1.39,0,0,0-.63-1c-.64-.28-1.23.48-1.5,1.12-3.06,7-3.92,14.85-7,21.86-1.38,3.15-3.18,6.1-4.73,9.17s-2.89,6.36-4.45,9.49c-8.21,16.46-22.82,28.7-37.48,39.81ZM854.12,1290l15.93,15.54c5.74,5.6,11.49,11.21,16.94,17.09,6.1,6.57,11.83,13.49,18.12,19.88,15.51,15.77,34.29,28.27,48.48,45.25a27.06,27.06,0,0,1,4.7,7.21c1.43,3.62,1.43,7.62,1.52,11.52a219.75,219.75,0,0,0,10.9,63.45l1.71,3.18,1.54,6.38c2.24,6.08,7,10.84,10.28,16.43a36.7,36.7,0,0,1,5,18.68c2.48-1.48,3.75-4.31,5.5-6.61,3-3.93,7.53-6.34,11.92-8.63l.18.17a14.43,14.43,0,0,1,5.31,5.24c.78-3.32,3.86-5.49,6.57-7.57a126.94,126.94,0,0,0,10.6-9.48l3.34-1.42a21.24,21.24,0,0,0,2.91-1.7,3.47,3.47,0,0,1,3.21-.4c1.1.56,1.51,1.88,1.82,3.07l1.4,5.41c.41,1.57.81,3.14,1.07,4.74a39.37,39.37,0,0,1,.4,5.74c.07,5.58-.37,11.23.66,16.72l3.11,9.79,3.43,18.65c1.07,5.86,2.18,11.8,4.76,17.16,1.29,2.67,2.93,5.17,4,7.92a44,44,0,0,1,2.2,8.88l4.26,24.53c.94,5.39,1.9,10.84,4.09,15.86l1.28,4.33,3.62,16.26c3.41,15.31,6.83,30.63,9.51,46.08a495.25,495.25,0,0,1,7.11,71.78L1095,1765c15.6-12.45,27.21-29.1,38.58-45.51l13.25-19.12a20.44,20.44,0,0,0,3.29-6.13c1-3.7-.1-7.73.88-11.43a44.27,44.27,0,0,1,1.85-4.66c2.83-7.27,1.1-15.42-.67-23l-.67-6.07c-8.16-19.93-16.32-39.86-23.88-60-5.67-15.09-11-30.32-17.13-45.24a451.25,451.25,0,0,0-30.7-61l-3.49-3.15c-3-2.63-7.62-2.39-11.43-1.14s-7.36,3.33-11.32,4a28.2,28.2,0,0,1-6.81.11,123.43,123.43,0,0,1-14.09-1.85l-2.72-.64-7.82-.22c-3.92-.12-7.92-.25-11.59-1.62a47.42,47.42,0,0,1-6.56-3.4,72.07,72.07,0,0,0-26-8.66l-.25-.32a116.72,116.72,0,0,1,54-19.63c4.34-.43,8.74-.62,13-1.73s8.35-3.29,10.83-6.88l-.64-3.22a372.33,372.33,0,0,0-23.2-33.35,27.77,27.77,0,0,1-4.47-7.07,28.38,28.38,0,0,1-1.27-7.91c-1.22-17.11-4.44-34-7.66-50.86l-2.09-4.15a16,16,0,0,1-6.83-1,1.79,1.79,0,0,0-.71-.16,1.65,1.65,0,0,0-1,.74,29.46,29.46,0,0,1-22,10.92c-2.21.06-4.43-.13-6.63.11a7.39,7.39,0,0,0,3.72-4.45c.68-1.88.92-3.88,1.43-5.8a21.56,21.56,0,0,1,26-15.47l4.41-4.28c-1.8-36.86-8-73.33-14.25-109.7L940.42,851.49l2.78-3.26c16.61-6.15,24.64-24.33,34.39-39.12,2.79-4.22,6.14-8.5,10.93-10.09,2.78-.92,5.83-.86,8.57-1.89,7.41-2.79,10.23-12.44,17.43-15.74,6.15-2.81,13.28-.1,20-.12,7,0,13.74-3,19.7-6.78A82.56,82.56,0,0,0,1077.92,752c2.57-3.65,5.06-7.72,9.13-9.55,4.88-2.2,10.58-.56,15.88-1.27,13-1.74,19.94-16.29,31.48-22.43,2.81-1.49,6.22-2.45,9.12-1.18,2.43,1.06,4,3.47,5,5.93,2.22,5.59,2.1,11.79,2.5,17.8s1.52,12.36,5.6,16.78,12,5.73,16,1.23c3.83-4.33,2.74-12,7.45-15.34,3.77-2.68,9.48-.68,12,3.19s2.55,8.88,1.68,13.42a40.42,40.42,0,0,1-20.54,27.75c-1.66.87-3.59,1.64-5.37,1-2.18-.72-3.21-3.12-4.57-5-2.85-3.88-7.69-5.73-12.38-6.8-6-1.36-13.27-1.33-17,3.55-4.23,5.58-1,13.61,2.95,19.38s8.81,12.11,7.45,19l5.55,3.25c13.28,0,27.23-.22,38.82-6.71,3.27-1.83,6.26-4.12,9.49-6,11.36-6.71,24.95-8.34,38.12-9.26,3-.21,6.19-.36,8.88,1,1.61.82,3.22,2.18,5,1.73.8-.21,1.47-.79,2.28-1,1.67-.33,3.08,1.16,4.27,2.38a22.83,22.83,0,0,0,10.9,6.23l2,1.82a91.49,91.49,0,0,0,55.57-16.41A71.26,71.26,0,0,0,1338,785.21c10.09-11.56,15.31-26.72,17.32-41.94s1-30.64,0-45.95c5.14-.47,9.77,2.87,14.72,4.33a21,21,0,0,0,16.47-2.1l5.11,2.26a34.41,34.41,0,0,0,33.83,3.6c3.83-1.73,7.43-4.19,11.59-4.8,7.91-1.16,15.09,4.71,20.17,10.89s9.63,13.37,16.92,16.66c8.45,3.83,19.48,1.82,26.23,8.18,6.43,6,5.47,16.61,2.13,24.78s-8.61,15.82-9.42,24.61a25.31,25.31,0,0,0,41.72,21.52c9.41-8.1,11.63-21.73,18.84-31.84,6.15-8.62,15.65-14.3,22.24-22.59,10.18-12.78,12.23-30,13.9-46.26,1.76-17.13,3.33-35.37-4.55-50.68s-25.08-27.87-23.15-45a10,10,0,0,1,1.89-5.28c1.62-2,4.24-2.84,6.63-3.81a42.9,42.9,0,0,0,21.38-19c1.75-3.21,3.11-6.65,5.31-9.57,4.41-5.86,11.57-8.83,18.25-11.87a220.82,220.82,0,0,0,77.61-59.23c7.12,4.58,17.19-.64,24.79,3.06,8.76,4.26,8.56,16.51,7.94,26.23-.57,8.83-.23,18.3,4.77,25.6s16.17,10.94,23,5.29c7.72-6.39,5-18.45,4.45-28.46-.89-15.39,5-30.25,9.35-45s7.23-31.25.7-45.22l-.59-8c4.13-5.66,13-2.42,19.16.84s16.07,4.72,18.28-1.94c.68-2,.28-4.27-.12-6.39-3.24-17-6.59-34.23-14.75-49.44-11.6-21.61-32-37.24-53.66-48.73-27.24-14.43-61.34-23-88.27-8-3.84-29.37,9.9-60,.92-88.27-7.12-22.35-26.87-37.93-45.7-51.9-3.42-2.53-7-5.13-11.15-6-4.81-1-9.74.53-14.64.78-7.77.39-15.44-2.36-23.22-2.11s-16.58,5.33-16.42,13.12c.12,6,5.82,10.75,11.72,12.12,3.19.73,7.16,1.2,8.4,4.23,1.15,2.81-1.05,5.95-3.64,7.52s-5.69,2.29-8.08,4.15c-4.37,3.41-5.26,9.5-7.32,14.65s-7.54,10.24-12.52,7.82c-2.17-1-3.5-3.26-4.73-5.33-14.91-25.15-33.47-49.14-58.76-63.8s-58.4-18.42-83.57-3.55c-4.64,2.74-9.48,7.83-7.33,12.76,1.52,3.5,6,4.79,9.74,4.37s7.34-2.06,11.1-2.68c11-1.79,21.82,5.78,27.07,15.57s6,21.32,6,32.43a284.16,284.16,0,0,1-3.66,45.5l0,3.64c-21.48-1.05-44.3-1.82-63,8.78-8.76,5-16.11,12.17-25,16.92-12.8,6.85-30.14,10.1-35,23.8-4.27-11.29-.91-24.09,4.48-34.89s12.77-20.61,17.17-31.86c5.89-15.06,6.07-31.65,8.64-47.62,5.24-32.61,20.59-63.41,22-96.41a18.58,18.58,0,0,0-.76-7.32c-2.37-6.3-10.13-8.53-16.86-8.79a61.6,61.6,0,0,0-38.56,11.9c-4.78,3.53-9.11,7.81-14.53,10.25-4.56,2-9.63,2.68-14.34,4.36-12.14,4.32-20.72,15-28,25.67-3.4,5-7.22,10.47-13.1,11.82-3.82.88-7.79-.2-11.56-1.27l-41.36-11.75c-5-1.42-10-2.85-15.15-3.88-15.72-3.16-32.53-2.4-47.11,4.26s-26.62,19.64-30.15,35.28a6.42,6.42,0,0,1-1.47,3.43c-2.91,2.74-6.9-1.86-8.49-5.53a66.57,66.57,0,0,0-37.59-35.6c-9.54-3.52-20.22-5-28.06-11.48l-6.12-2.8c-8.45-12-25.25-14.18-39.95-13.79s-30.53,2-43-5.78c11-8,21.93-17.21,27.25-29.75s3.19-29.22-8.18-36.73c-16.26-10.75-39.81,2.35-57-6.77-6.7-3.55-11.36-10-17.47-14.48-14.52-10.68-37.23-7.78-48.61,6.19-3.34,4.1-5.74,8.92-9.31,12.82-11.42,12.5-32.39,13.28-42.48,26.88,4.36-10.38.57-23-7.2-31.11s-18.81-12.48-29.87-14.61c-21.13-4.06-47.31,2-55.2,22-1.38,3.5-2.12,7.26-3.89,10.58-2.27,4.29-6.08,7.53-9.72,10.75a315.48,315.48,0,0,0-65,79.83c-11.61-10.33-28.57-12.28-44-10.44s-30.34,6.91-45.78,8.71c-10.85,1.26-21.9.9-32.6,3.1-25.39,5.22-46.94,25.88-53.24,51l-3.76,2.81c-11.33-2.66-22.85,6-27.34,16.77s-3.68,22.84-2.54,34.41,2.45,23.55-1.17,34.6c-5.55,16.9-22.32,31.18-19.19,48.68-9.85-7.24-20.15-15-24.86-26.32-3.15-7.53-3.47-15.93-5.8-23.76a49,49,0,0,0-36.06-33.24c-4.13-.87-8.6-1.29-11.88-3.94-3-2.42-4.44-6.29-5.27-10.07-2.57-11.73-.54-24.07-2.92-35.84s-12-23.89-23.87-22.33c-10.25,1.34-16.44,11.71-21.11,20.93-6.63,13.12-13.44,27-12.48,41.72.48,7.41,2.94,14.57,3.51,22,1.13,14.7-5.21,29.69-1.5,43.95,2.36,9.11,8.6,16.77,11.53,25.71,3.71,11.27,1.89,23.49,2,35.35.23,33.89,17.35,67.26,44.75,87.22a478.68,478.68,0,0,0-102.6-18.42c-4.86-.33-9.84-.58-14.49.84-11,3.35-17.34,15.19-18.74,26.57-.72,5.88,0,12.7,4.67,16.29,6.26,4.79,15.16,1.07,22.25-2.38s16.82-6,21.87.06c-20.87,13.77-31,38.64-39.92,62-11.29,29.51-22.46,63.31-8.27,91.55l3.37,3.88a20.83,20.83,0,0,0,12.37,9.45c4.52,1.22,9.82,1.08,13.1,4.42,2.53,2.58,3,6.47,3.42,10.06.76,7.31,1.2,15.65-3.86,21-2.32,2.45-5.57,4-7.53,6.7-1.71,2.38-2.23,5.43-2.32,8.36-.31,9.2,3,18.4,1.59,27.5-.69,4.53-2.5,8.8-3.81,13.19a61.65,61.65,0,0,0,1.83,40.28c2.47,6.17,5.95,11.94,7.74,18.33,2.88,10.27,1.2,21.31,3.4,31.75,1,4.61,2.89,9.31,6.67,12.13a19.25,19.25,0,0,0,9.12,3.22c12,1.54,25.88-2.06,35.09,5.79,3.59,3.07,6,7.61,10.15,9.8s9.22,1.53,13.37-.52,7.51-5.39,10.7-8.75l4.43-3.81c17.13,6.42,35.66-8.8,53.32-4.05,4.52,1.21,9.05-.08,13.56-1.32,1.77-.49,3.42-1.58,5.26-1.59,3.13,0,5.4,3,6.37,6s1.24,6.25,3,8.85c3.68,5.51,12.6,5.08,17.49.6s6.54-11.48,7.07-18.08c.41-5.11.28-10.36-1.37-15.21-3.44-10.11-13.41-17.24-24-18.73-5.51-.78-11.16-.21-16.64-1.19-15.76-2.82-27-18.65-28.07-34.63-.4-6,.72-12.71,5.35-16.57,4.32-3.6,10.43-3.76,16-4.37,28.07-3.07,51.81-21.08,76.55-34.7a264.82,264.82,0,0,1,94.61-30.69c5.64,61.32,43.81,114,68.25,170.51,9.82,22.69,17.79,46.79,33.61,65.79l5.71,1.86c1.76-1.27,4.14-1.16,6.19-1.88,3.69-1.3,5.82-5.06,7.63-8.53l10.8-20.71c1-2,2.11-4,3-6.14,1-2.43,1.77-5,2.53-7.47,2.14-7,4.36-14.09,7.61-20.68,2.68-5.43,6.12-10.74,6.68-16.78a37,37,0,0,0-.43-8L637.34,820l-1.57-5L607,769.62c-7.88-12.44-15.84-25-26.11-35.54-17-17.43-39.4-28.6-57.09-45.3,8.95-3.33,18.83-2.68,28.35-1.92,30.33,2.44,60.59,5.56,90.85,8.69,18,1.86,36.2,3.75,53.43,9.34a28.53,28.53,0,0,0-7.13,19.19c0,3.29.68,6.58.46,9.86s-1.48,6.75-4.27,8.49c-2,1.22-4.35,1.43-6.63,1.76a51.81,51.81,0,0,0-34.62,21.31l1.28,7.26c.3,2.64.72,5.51,2.65,7.34,2.5,2.35,6.59,2,9.63.38s5.47-4.13,8.36-6c8.9-5.69,20.44-4,30.84-2.18a7.34,7.34,0,0,1,3.29,1.16c2.14,1.7,1.69,5,1.07,7.67a357.07,357.07,0,0,0-8.54,107.23c-13.42-10.25-18.68-30.09-34.33-36.43-.9-.36-2-.65-2.77,0a2.92,2.92,0,0,0-.85,1.65,524,524,0,0,1-32.83,89.61l.95,12a276.19,276.19,0,0,0,36.32,47.71l2.52,4.23,20.54-15.17c4.15-3.07,8.38-6.18,13.26-7.86,3.85-1.33,8-1.71,11.91-2.67s8-2.65,10.42-5.89c1.42-1.88,2.64-4.45,5-4.66,2.09-.19,3.83,1.81,4.27,3.87s0,4.17-.13,6.27a19.23,19.23,0,0,0,4.49,13.51c3.53,4.1,8.63,6.41,13.07,9.51,10.87,7.57,17.66,20,21,32.78s3.53,26.24,3.55,39.49a258.16,258.16,0,0,0,19.51-18c3.32-3.51,6.5-7.33,8-11.91,2.21-6.55.79-13.71-.74-20.45l-1.95-4.78a303.91,303.91,0,0,0-51.28-75.27,70.18,70.18,0,0,0,42.48-40.36c1.11-2.84,2.06-5.81,3.87-8.27s4.62-4.44,6.93-6.67c7.23-6.95,10.23-17.21,11.48-27.15.54-4.27.9-8.79,3.37-12.31,1.59-2.25,3.89-3.86,6-5.67a36.4,36.4,0,0,0,12.19-27.78c19.91,16.7,27.93,43.28,35,68.3,5,17.89,10.08,35.79,13.77,54,3.08,15.16,5.23,30.52,9.08,45.5,5,19.58,13,38.57,15,58.69l3,4.43c0,6.32,5,12.15,3.89,18.37a6.38,6.38,0,0,0-.24,2.07,6.55,6.55,0,0,0,.62,1.68,11.44,11.44,0,0,1,.53,8c-.25.82-.59,1.61-.77,2.45a13.57,13.57,0,0,0-.18,2.7l.06,10.58,23.69-17.82a13.22,13.22,0,0,1,4.48-2.53,30,30,0,0,1,5.11-.32c3.75-.28,7.13-2.27,10.35-4.2-3.51,2.09-5.81,5.77-7.23,9.61s-2.09,7.89-3.14,11.83a126.07,126.07,0,0,1-5.81,15.83c-1.54,3.65-3.48,7.7-7.24,9l-.23.84a12.87,12.87,0,0,1,.1,8.47,38.27,38.27,0,0,1-3.67,7.8l-6.15,10.88-1.83,12.54,14.28,66c2.8,12.93,5.61,26,5.83,39.21a483.83,483.83,0,0,1-43.84-63.62l-4.77-2.93a58.17,58.17,0,0,0-14.6,17,114.48,114.48,0,0,0-5.76,12.41q-6.2,14.83-12.38,29.67c-3.27,7.83-6.56,15.74-8,24.11Z"></path>
    <path data-name="2" data-official="Galanthus nivalis" data-plain="Snowdrop" data-loc="England" d="M1515.43,2220.91c1.12,5.77.9,11.83,2.87,17.37.93,2.64,2.34,5.09,3.27,7.73a18.56,18.56,0,0,1,.76,10.45,13.61,13.61,0,0,1-5.91,8.49c-4.6,2.82-10.44,2.18-15.77,1.37-2.37-.36-4.83-.77-6.77-2.18a13.51,13.51,0,0,1-4-5.75c-5.58-12.75-6.36-27-6.75-40.93-.2-7.07-.32-14.19.89-21.16a14.45,14.45,0,0,1,2.22-6.22,6,6,0,0,1,5.73-2.63,8.22,8.22,0,0,1,3.4,1.85,52.6,52.6,0,0,1,17.2,24.55Zm74.15,76.17,13-82.61a5.08,5.08,0,0,1,.9-2.54,3.45,3.45,0,0,1,4.29-.39,10.11,10.11,0,0,1,3.1,3.45c1.35-4-2.24-8.89-6.5-8.77a19,19,0,0,1,3.1-13l2.09-3.69c4.19-3.55,5.46-9.46,5.66-15s-.4-11.1,1.09-16.38c2.1-7.44,8.2-13.59,8.8-21.3.22-2.7-.27-5.43,0-8.12.49-4.31,3-8.1,5-11.92s3.78-8.23,2.66-12.42-6.33-7.39-10-5a187.38,187.38,0,0,0,5.27-31.91c.93-12.15.68-24.44,2.91-36.43,3.06-16.48,10.76-32.38,9.77-49.12l.67-2.94a80.25,80.25,0,0,0-2-17l-.57-5.34q5-20.86,8.81-42c.53-3,1.07-6,2.63-8.57l2.52-3.62c7.2-15.63,9.18-33.18,9.12-50.38a5.51,5.51,0,0,1,.56-3,5.81,5.81,0,0,1,1.92-1.62c15.86-9.87,25.63-27,33.52-43.91a96.41,96.41,0,0,0,6.13-15.84c.94-3.52,1.53-7.15,2.94-10.51s3.83-6.51,7.25-7.77a9.84,9.84,0,0,1,12.28,6c1.09,3.47.12,7.28.85,10.84.63,3,2.45,5.69,3.7,8.54,3.93,8.93,2,19.39-1.63,28.42s-9,17.35-12.24,26.55c-5,14.43-4.55,30.12-4,45.39l1.88,4.51c2.24,9.28,2.65,18.91,4.46,28.29s5.31,18.87,12.41,25.25c9.85,8.84,24.26,9.85,37.5,10,7.09.07,14.48-.06,20.83-3.23,8.68-4.34,13.78-13.54,17.25-22.61,7.58-19.78,9.9-41.3,9-62.47-.32-7.47-1-15-3.66-22-2.41-6.47-6.34-12.25-9.86-18.19-8.55-14.43-14.82-30.08-21.06-45.65l-.58-3.69c-2.39-12.11-10.79-22.06-19.26-31-3.33-3.53-6.8-7.06-11.09-9.31-5-2.62-10.76-3.33-16-5.3a3.21,3.21,0,0,1-1.51-.94,3.67,3.67,0,0,1-.51-1.73,21.63,21.63,0,0,0-7.35-13.49c5.68,0,11.09,3.65,16.71,2.79,4.6-.71,8.28-4.42,10.24-8.64s2.46-8.95,3-13.57l2.21-21a30.34,30.34,0,0,1,1.49-7.63c1.94-5,6.41-8.6,10.68-11.91a3.79,3.79,0,0,1,1.55-.84,3.68,3.68,0,0,1,2,.41,40.31,40.31,0,0,1,12.34,7.45c3.52,3.31,6.12,7.81,6.36,12.63.16,3.19-.53,6.9,1.74,9.14a6.81,6.81,0,0,0,3.17,1.62,17,17,0,0,0,12.23-1.92,31.14,31.14,0,0,0,9.31-8.48c5.16-6.73,8.75-15.36,6.91-23.63l1.38-4.08a169.21,169.21,0,0,0-6.37-54.77c-1.85-6.4-4.17-12.88-8.58-17.88-3.32-3.77-7.65-6.49-11.91-9.16-8.51-5.33-17.16-10.73-26.79-13.58-5.44-1.6-11.09-2.37-16.53-4a58.05,58.05,0,0,1-38.22-36.87l-4.21-5.13A95.48,95.48,0,0,0,1693.4,1498c-2.26-1.31-4.62-2.57-6.32-4.55-4.7-5.43-3.47-15-9.55-18.85-4.32-2.71-10.16-.78-14.12,2.43s-6.92,7.57-11,10.61c-3.36,2.49-7.34,4-11.09,5.82a64.11,64.11,0,0,0-34.69,48.33c-1.54,11.76.23,24-3,35.35a42,42,0,0,1-10.27,17.78,49.27,49.27,0,0,1-9.09-22.28c-.83-5.83-.7-12.11-3.85-17.09-3.26-5.15-9.31-7.72-15.09-9.7-4.35-1.49-9.56-2.7-13.25.08s-4.1,8.43-7.48,11.64c-2.28,2.16-5.53,2.87-8.56,3.67a78,78,0,0,0-50.45,43l-1.4,4c-12.82,10-26,20.49-33.56,34.91-3.29,6.31-5.38,13.16-7.45,20a144.43,144.43,0,0,0-4.83,18.94c-1.33,8.31-1.18,16.77-.93,25.17.3,9.68.77,19.51,3.92,28.66a32.22,32.22,0,0,0,6.47,11.48c5.15,5.58,12.64,8.32,20,10.26,10.33,2.73,21.07,4.26,31.71,3.33s21.2-4.43,29.62-11l.7,3.82c-.5,15.27-.85,31.27,6,45,1,2,2.09,3.89,2.33,6a15.61,15.61,0,0,1-.4,4.51l-6.75,35.83-.59,3.85c.24,3.44.65,7.23,3.19,9.56a13.39,13.39,0,0,0,3.81,2.2l13.69,6.06,7.21.09a103.24,103.24,0,0,1,8.76,6,15.83,15.83,0,0,1,3.3,3.13c1.47,2,2,4.57,2.48,7,1,5,2,10,2.62,15,.33,2.55.59,5.1,1,7.62,1.1,6.14,3.35,12,4,18.23a3.2,3.2,0,0,1-.09,1.51,3.81,3.81,0,0,1-.92,1.16,11.41,11.41,0,0,0-2.79,4.71l-2.55,5.3q1.29,6.76,2,13.62a29.28,29.28,0,0,1-.2,9.53,34.93,34.93,0,0,1-3.69,8.41c-6,11.06-10.88,22.66-16.94,33.66s-13.41,21.55-23.29,29.31c-2.52-11.09.82-22.54,2.3-33.82,1.06-8.06,1.16-16.2,1.84-24.3,1.52-18.16,6-36,6.8-54.23l-.33-9.38a58.4,58.4,0,0,0-9.81-5.92c-1.65-.72-3.35-1.29-5.06-1.86l-7.71-2.56-3.82,2.86q-1.2,12.75-3.43,25.37l-4,6.05c-7.42,16.39-7,35.06-8.62,53-2.09,23.39-7.84,46.72-5.47,70.08.48,4.83,1.85,10.37,6.26,12.4,2.2,1,5.18,1.22,6.22,3.42a5.51,5.51,0,0,1,.33,2.71c-.93,14.19-14.11,25.11-15.82,39.22l-.48,5.34c-.51,4.43,2.66,8.44,6.11,11.28a40.72,40.72,0,0,0,21.76,9l2.33-3.39c3.25-4.75,3.52-10.84,4.56-16.51,2.11-11.61,7.76-22.28,14.3-32.1,3.46-5.2,7.18-10.23,10.91-15.24l30.47-41.07c.39,4.72-1.19,9.35-2.29,14-4.1,17.12-1.63,35.25-5.22,52.49-1.78,8.51-5,16.64-7.4,25s-4,17.19-2.32,25.73l2.31,7.55c-1.11,10.3,0,21-3,30.91-.87,2.85-1.14,5.56-2.22,8.33a65.53,65.53,0,0,0-4.4,26.46c.48,11.66,4.06,23.4,1.58,34.8l-3.17,5.14a102.8,102.8,0,0,0-4.6,28.27,30.48,30.48,0,0,1-.61,6.95,8.57,8.57,0,0,1-3.9,5.55,13.66,13.66,0,0,1-4,1.17,68.26,68.26,0,0,0-12.51,3.76c-2.66,1.08-5.53,2.65-6.28,5.42-.6,2.24.38,4.55.78,6.84a13.93,13.93,0,0,1-3.19,11.4l-3,5a174.39,174.39,0,0,1-8.73,17.26c-7.88,13.1-19.1,24-26.46,37.39a144.07,144.07,0,0,0-6.68,14.5c-3,7.14-6,14.94-4.05,22.44l.18,8.32,2,22a10.52,10.52,0,0,1-.35,5.06,12.1,12.1,0,0,1-3.2,3.83c-15.15,14.25-17.69,36.86-22.73,57-.55,2.21-1.29,4.61-3.22,5.81s-4.11.85-6.23.66c-7.32-.66-15,.27-21.27,4.15s-10.72,11.1-9.93,18.41,7.77,13.81,15,12.82c1.74-.24,3.48-.86,5.22-.58,3.86.63,5.63,5.29,5.51,9.2-.21,6.94-3.89,13.23-5.9,19.88s-1.74,15.09,4,19c2.27,1.58,5,2.18,7.53,3.4,6.85,3.39,12.16,11.71,19.7,10.47,3.14-.52,5.83-2.73,9-3.11,9-1.08,13.34,11.88,22,14.27,10.73,2.94,19-11.28,30-12.31,5.59-.51,11,2.47,16.57,2.63,4.64.13,9.12-1.67,13.74-2.13,7.94-.78,15.67,2.41,23.55,3.63s17.42-.42,21.08-7.51c.91-1.77,1.45-3.86,3-5.09,3.56-2.77,8.36,1,12.73,2.05,11.08,2.75,19.2-12.12,30.56-13.22,7.78-.75,14.4,5.09,21.34,8.7s17.84,3.55,20.11-3.94c.9-3,0-6.19-1.18-9.06a42.6,42.6,0,0,0-26.9-24c-6.16-1.8-12.64-2.17-18.92-3.48A64.45,64.45,0,0,1,1605,2559a15.25,15.25,0,0,1-3.59-4.42c-2.91-6.12,2-12.9,3.26-19.55,1.43-7.53-1.93-15-4.67-22.2-.9-2.35-1.68-5.18-.23-7.24,1.15-1.63,3.29-2.15,5.14-2.92,11.11-4.62,12.91-19.33,13-31.36,0-2.85,0-5.77-1-8.42-3.32-8.6-14.8-9.81-24-9.61a230.65,230.65,0,0,0,.64-51.93c-.63-6.22-1.49-12.63.26-18.63,1.31-4.48,4-8.4,6.27-12.47,5.22-9.29,8.45-19.54,11.65-29.7l-.23-4.8c-.72-3.72-3.25-6.83-6-9.4s-5.92-4.78-8.41-7.64-4.32-6.59-3.8-10.35Z"></path>
    <path data-name="2a" data-official="" data-plain="Inner Petals" data-loc="" d="M1590.19,2632.83c8.23,3.25,16.6,6.7,23.17,12.63s11.07,14.9,9.34,23.57c-1,5-3.92,9.41-6.84,13.6-11.26,16.14-23.56,31.63-33.18,48.79-3.76,6.72-7.27,13.87-13.2,18.78-3.3,2.74-7.71,5.52-7.5,9.8.23,4.81,6,7,9.55,10.19a14.11,14.11,0,0,1,4,13.95c-1.35,4.85-5.31,8.65-9.84,10.85s-9.61,3-14.62,3.49c-12,1.19-24.09.85-36.14.52-3.86-.11-8-.31-11.08-2.66-3.72-2.83-4.78-8.05-4.36-12.7s2-9.15,2.5-13.8c1-10.24-3.47-20.36-9.75-28.52s-14.27-14.8-21.56-22.07c-3.49-3.47-6.86-7.15-9.16-11.51-2.54-4.81-3.65-10.23-4.54-15.6-1.77-10.54-2.8-21.61.68-31.72s12.55-19,23.24-19.09l8.83-2.85c10.73,2.94,19-11.28,30-12.31,5.59-.51,11,2.47,16.57,2.63,4.64.13,9.12-1.67,13.74-2.13,7.94-.78,15.67,2.41,23.55,3.63Z"></path>
    <path data-name="2b" data-official="" data-plain="Stamen" data-loc="" d="M1641.15,2644.78a65.94,65.94,0,0,1-4.82-18.05,11.43,11.43,0,0,1,.36-5.61c1.39-3.45,5.74-5,9.36-4.16s6.6,3.39,9,6.19a45.65,45.65,0,0,1,10.9,24.4c.67,5.58.64,12,4.89,15.68,1.78,1.54,4.09,2.33,6,3.64,7.4,4.91,8.18,15.27,8.22,24.15l.1,29.62a19.48,19.48,0,0,1-.86,7.14c-1.59,4.07-5.64,6.55-8.52,9.83a20.2,20.2,0,0,0-4.78,15.64c.78,6.07,4.26,11.4,6.55,17.08a44.66,44.66,0,0,1,3.22,15.77c.07,3.51-.3,7.14-2,10.18a18.06,18.06,0,0,1-4.62,5.12c-11.25,8.93-27.15,9.23-41.19,6.26-2.79-.58-5.73-1.39-7.62-3.53a11.85,11.85,0,0,1-2.42-6.31,34.29,34.29,0,0,1,2.42-18.2c4.81-11.24,15.66-20.07,16.75-32.26.47-5.3-1-10.56-2.27-15.74a176.75,176.75,0,0,1-4.72-32.85c-.3-6.08-.27-12.23,1.12-18.15,2.24-9.58,8-19.39,4.53-28.6Z"></path>
    <path data-name="2c" data-official="" data-plain="Ovary" data-loc="" d="M1689.31,2801c-4.13-10.65-1.81-22.65,1.54-33.57s7.72-21.83,7.59-33.25c-.12-10.36-4-20.27-5.93-30.45-1.59-8.18-2-16.55-2.2-24.88-.66-26.06.35-52.14,1.36-78.19.61-15.63,1.45-32.05,9.67-45.36a5,5,0,0,1,2.6-2.43c2.37-.64,4.16,2.09,5.09,4.36q4.65,11.41,9.13,22.88c2.4,6.14,4.77,12.34,6,18.82,1,5.51,1.16,11.15,1.56,16.74a266.51,266.51,0,0,0,3.72,28.28c4.11,22.9,10,46.33,5.33,69.11-2,9.66-5.83,18.85-7.75,28.52s-1.67,20.38,3.9,28.5c3.67,5.33,9.62,9.74,10.1,16.19.59,8-7.7,13.77-15.32,16.41a74.66,74.66,0,0,1-32.18,3.7Z"></path>
    <path data-name="2d" data-official="" data-plain="Section" data-loc="" d="M1752,2806.59c-3.17-1.69-4.33-5.66-4.55-9.25-.84-13.8,7.6-26.77,7.51-40.6-.07-10.11-4.66-19.55-7.81-29.16-4.09-12.48-5.79-25.6-7.47-38.62-1.64-12.73-3.28-25.72-.73-38.3,2.79-13.78,10.45-26.22,13.06-40,3.72-19.71-3.11-40.72,3-59.81,1.2-3.74,4.59-8,8.14-6.39a6.77,6.77,0,0,1,2.59,2.56c11.69,17.53,4.94,43.72,19,59.43,3.31,3.69,7.54,6.47,10.79,10.21,4.82,5.55,7.14,12.81,9,19.93,8.69,33.19,9.49,70.59-8.64,99.73-3.4,5.47-7.52,12.31-4.12,17.78,2.22,3.57,6.77,4.77,10.14,7.29,8.46,6.31,7.83,19,5.7,29.38-.76,3.71-1.66,7.53-4,10.51a21.5,21.5,0,0,1-8,5.74,59.08,59.08,0,0,1-39.38,3.7Z"></path>
    <path data-name="2e" data-official="" data-plain="Section" data-loc="" d="M1811.74,2765.56a16.32,16.32,0,0,0,1.65-12.89,31.93,31.93,0,0,0-3.39-7l-7.07-12-1.08-8.64a101.79,101.79,0,0,0,7.17-25l9-.86c8.1-2.49,15.79-6.23,23.92-8.63s17.06-3.4,25-.39,14.43,10.86,13.75,19.31a27.1,27.1,0,0,1-2.76,9,88.78,88.78,0,0,1-8.3,14.32c-3,4.25-6.44,8.26-8.8,12.91s-3.59,10.17-1.91,15.11c3.26,9.58,16.22,14.29,17.18,24.36.41,4.28-1.63,8.49-4.45,11.73-5,5.69-12.27,8.94-19.69,10.36s-15,1.21-22.59,1c-6.9-.22-14.07-.5-20.19-3.7l-5.48-3.26c2.33-3,3.23-6.8,4-10.51a51.71,51.71,0,0,0,1.11-16.35Z"></path>
    <path data-name="3" data-official="Alströmeria aurantiana" data-plain="Orange Alströmeria" data-loc="Chile" d="M1616.62,2193.43c15.57,5.67,25.36,20.81,33.4,35.29a599.52,599.52,0,0,1,33.78,71.55c4.21,10.67,8.13,21.56,9.78,32.91a169.19,169.19,0,0,1,1.28,21.83c.24,15.26.48,30.57-1.27,45.74-.53,4.59-1.39,9.47-4.55,12.85-3.84,4.11-10.3,4.89-15.69,3.26s-9.93-5.24-14.16-9c-7.77-6.84-15-14.35-20.69-23-8.56-13.08-13.29-28.47-22.61-41l-4.17-3.36-.23-4.8c-.72-3.72-3.25-6.83-6-9.4s-5.92-4.78-8.41-7.64-4.32-6.59-3.8-10.35l-3.67-11.24,13-82.61a5.08,5.08,0,0,1,.9-2.54,3.45,3.45,0,0,1,4.29-.39,10.11,10.11,0,0,1,3.1,3.45c1.35-4-2.24-8.89-6.5-8.77a19,19,0,0,1,3.1-13l2.09-3.69Zm30.9-218.9c19.92,8.39,38.88,18.94,58.89,27.09s41.55,13.92,63.08,12.09c4.83-.41,10.09-1.46,13.09-5.27,3.32-4.23,2.56-10.6-.33-15.14s-7.47-7.69-11.9-10.75-9-6.28-11.74-10.91l-9.13-10.2c-6.49-1.37-12.55-3.83-17.48-8.25-7.1-6.38-10.6-15.88-12.41-25.25l-5.68-1.87q-24.54-13.83-50.05-25.85l-11,2.19-2.52,3.62c-1.56,2.57-2.1,5.61-2.63,8.57q-3.8,21.12-8.81,42l.57,5.34ZM1484,2196.3a14.45,14.45,0,0,1,2.22-6.22,6,6,0,0,1,5.73-2.63,8.22,8.22,0,0,1,3.4,1.85,52.6,52.6,0,0,1,17.2,24.55l2.87,7.06,5.86,9.58q13.62,14.13,26.12,29.28l8.1,2.15,3.17-5.14c2.48-11.4-1.1-23.14-1.58-34.8a65.53,65.53,0,0,1,4.4-26.46c1.08-2.77,1.35-5.48,2.22-8.33,3-9.92,1.9-20.61,3-30.91l-7.16-5.29a48.91,48.91,0,0,0-27.54-15l-10.62.5-2.33,3.39a40.72,40.72,0,0,1-21.76-9c-3.45-2.84-6.62-6.85-6.11-11.28l-4.81-3.64c-22-13.43-49.47-12.57-75.2-11.3l-78.94,3.93c-9.21.46-18.46.92-27.47,2.85-7.68,1.63-15.12,4.32-22.87,5.58-8.79,1.44-17.76,1-26.66,1.21a191,191,0,0,0-71.62,15.71l4-8.92a530.57,530.57,0,0,0,36.88-107.35c.78-3.47,1.61-7.1,3.94-9.79,2.09-2.41,5.12-3.74,8-5.14,19.09-9.31,35.5-25.37,42.09-45.56s1.94-44.45-13.88-58.62a247.6,247.6,0,0,0,13.19-52.22c41.72,9.8,86.86-5.48,127.75,7.35,36,11.29,64.85,43.31,102.47,45.72l8.19,2.61,3.82-2.86,7.71,2.56c1.71.57,3.41,1.14,5.06,1.86a58.4,58.4,0,0,1,9.81,5.92l.33,9.38,6,2.47a35.26,35.26,0,0,0,20.34,12.39l4.86,3,2.55-5.3a11.41,11.41,0,0,1,2.79-4.71,3.81,3.81,0,0,0,.92-1.16,3.2,3.2,0,0,0,.09-1.51c-.7-6.19-3-12.09-4-18.23-.45-2.52-.71-5.07-1-7.62-.67-5-1.65-10-2.62-15-.49-2.46-1-5-2.48-7a15.83,15.83,0,0,0-3.3-3.13,103.24,103.24,0,0,0-8.76-6l-7.21-.09-13.69-6.06a13.39,13.39,0,0,1-3.81-2.2c-2.54-2.33-3-6.12-3.19-9.56l-5.38-3.48c-6.16-6.31-15.61-7.68-24.16-9.85-29.37-7.47-54.41-27.88-84.13-33.8-19.49-3.89-39.61-1.25-59.36,1a119.85,119.85,0,0,1-18.92,1.12c-7.83-.36-15.51-2.2-23.14-4l-19.84-4.76-.26-7.14c9.36-22.94,13.78-47.53,18.14-71.92q6.18-34.58,12.37-69.16l1.69-7,.89-4.69a24.91,24.91,0,0,0,.51-3.74,24.56,24.56,0,0,0-.76-5.84l-2.87-4.82a34.21,34.21,0,0,0,2.06-7.75q3.21-17.24,7.78-34.18a21,21,0,0,1,1.43-4.1c.84-1.64,2.09-3,2.95-4.66l6.36-9a389.8,389.8,0,0,0,19.33-93.49,141.37,141.37,0,0,0,84.58,13.76c20.07-3,39.33-10.35,59.44-13.11,26.22-3.6,52.81.71,79.27,1.49a297.27,297.27,0,0,0,60.24-4.36c13.61-2.39,27.3-5.75,41.06-4.48s28,8.29,33.39,21c3.07,7.23,3.45,16.26,9.64,21.1,5.52,4.32,13.83,3.29,19.65-.62s9.68-10.06,13.17-16.14c4.1-7.15,8.06-15,7.33-23.19-1.11-12.51-13-21.65-25.07-25s-24.94-2.41-37.42-3.9c-16.87-2-32.94-8.4-49.73-11-30.44-4.76-61.25,3-91.95,5.66-18.14,1.57-36.39,1.35-54.6,1.12l-124.73-1.52a170,170,0,0,0,39.7-40.06,742.82,742.82,0,0,1,88.28,23.46c3.72-7.8-.42-17-5.09-24.25A156.22,156.22,0,0,0,1459,1337l6.12-5.71a207.7,207.7,0,0,0,29.14-57c7.3,3.12,15.77,1.19,23.08-1.9s14.23-7.32,22-8.92c7.06-1.46,14.37-.66,21.51.32,10.79,1.47,21.56,3.34,31.92,6.69,15.55,5,29.82,13.27,44,21.45,8.43,4.88,16.93,9.81,24.17,16.31,7.52,6.74,13.49,15,19.4,23.17,4.39,6.09,8.82,12.22,11.9,19.07A55.66,55.66,0,0,1,1697,1376c-.4,7.6-1.88,16.57,3.8,21.64,4,3.59,10.36,3.47,15.17,1s8.4-6.7,11.61-11a159.27,159.27,0,0,0,20.8-37.87L1750,1348c5.4,3,12-.08,17.38-3.09,4.07-2.28,8.64-5.29,9-10,.21-2.75-1-6,.8-8a6.72,6.72,0,0,1,2.8-1.59l5.82-2.16a4.44,4.44,0,0,1,1.92-.4,4.62,4.62,0,0,1,2.37,1.28,64.48,64.48,0,0,0,32.87,14.11c6.38.78,14.09-.08,17.24-5.69a13.73,13.73,0,0,0,1.37-7.67,25.67,25.67,0,0,0-4.94-13.47l5.33-2.15c5.62,3.3,11.88-3.66,18.37-4.24,3.76-.34,7.32,1.54,10.77,3.08a67.65,67.65,0,0,0,21,5.58c5,.5,11,0,13.7-4.34a11.94,11.94,0,0,0,1.51-5.42c.81-10.8-4.9-21-11.57-29.55s-14.58-16.26-19.45-25.93c-4.27-8.49-6-18.05-6.83-27.51-.56-6.22-.8-12.55-2.74-18.49-2.53-7.78-7.79-14.32-13-20.67-8.22-10.14-16.95-20.66-29-25.65-26.3-10.88-57.82,8.31-84.26-2.23,35.27-9.46,64.08-39.8,71.7-75.51l2.47-6.09a92.84,92.84,0,0,0,2.78-30.56c-.4-5.24-1.25-10.52-.53-15.73,1-7,4.61-13.19,7.77-19.46,4.73-9.4,8.54-19.95,6.49-30.27s-12-19.63-22.29-17.57c-11.2,2.24-16.54,15.39-26.52,21-6.61,3.69-14.9,3.8-21.12,8.13-7.82,5.44-10.2,15.85-16.08,23.35a55.32,55.32,0,0,1-12.32-24.51c-2.05-9.42-1.62-19.33-4.53-28.53-3.74-11.84-12.6-21.27-21.19-30.24l-18-18.88c-1.42-1.48-3-3-4.94-3.53-4-1-7.72,2.74-8.69,6.7s-.08,8.09,0,12.16-.86,8.66-4.31,10.84a3.1,3.1,0,0,1-1.78.58,3.6,3.6,0,0,1-2.28-1.33c-3.42-3.54-5.21-8.3-7.63-12.58s-6-8.46-10.86-9.25-9.49,2-13.19,5.18c-7.49,6.42-13,14.79-18.94,22.65-4.31,5.67-8.92,11.14-12.77,17.13-18.12,28.17-17.58,64-16.41,97.49l-.78,6.41-17.63,9.3a14.9,14.9,0,0,1-3.81,1.58c-3.64.76-7.41-1.37-9.58-4.39s-3-6.76-3.63-10.43c-1.91-11.64-1.69-23.5-2.48-35.27s-2.71-23.75-8.44-34.05-15.89-18.73-27.64-19.76c5.6-4.94,7.07-13,7.74-20.41a176.22,176.22,0,0,0,.68-19c0-2.79-.15-5.66.75-8.31,1.37-4,4.84-6.94,8-9.8A118.49,118.49,0,0,0,1551,886.83c3.9-6.08,7-14.71,2-19.92-5.71-6-16.37-1.57-23.6-5.57-6.45-3.57-8.08-12.62-14.3-16.56-3.76-2.38-8.49-2.45-12.94-2.44-22.49,0-45.34.15-66.92,6.5l-7.41,1.42c-2.09-.3-4.18,2.16-6,1.17a3.7,3.7,0,0,1-1.33-1.54c-5.46-9.28-10.65-19-18.73-26.14-4.17-3.67-9-6.54-13.21-10.16-7.53-6.48-12.89-15.19-20.46-21.63-4-3.43-9.67-6.25-14.45-4-3.12,1.47-4.94,4.67-6.93,7.48-7.08,10-18,16.5-28.94,22.11-6.9,3.54-14.07,6.9-21.77,7.86s-16.1-.78-21.58-6.28l-4.78-6.15-2-1.82a22.83,22.83,0,0,1-10.9-6.23c-1.19-1.22-2.6-2.71-4.27-2.38-.81.17-1.48.75-2.28,1-1.74.45-3.35-.91-5-1.73l-5.63,4c-20.45,12.2-37.68,31.2-60.92,36.39-13.48,3-27.52,1-41.32,1.45s-28.81,4.43-36.68,15.78c-5.83,8.39-7.41,20.3-16.18,25.55a44,44,0,0,0-20.16-23.33c-7-3.77-15.67-5.52-22.78-2-5.93,2.91-9.85,9.2-10.57,15.76a26.61,26.61,0,0,0,5.5,18.54c6.21,8.26,16.46,13.53,20.34,23.12,3.59,8.85.71,18.81,0,28.34a61.43,61.43,0,0,0,5.38,30.09c.91,2,1.91,4.44.66,6.25a5.29,5.29,0,0,1-3.49,1.84c-16.94,3.43-34.11-14.5-50.12-8-9.16,3.73-13.73,14.69-12.82,24.54s6.17,18.73,11.89,26.8c3.32,4.68,7,9.34,11.92,12.27,6.4,3.8,14.17,4.27,21.61,4.64,9.3.45,18.64.9,27.91,0,15.37-1.53,30.7-6.81,46-4.3a46.28,46.28,0,0,1,28.56,16.86l6.2,7.08c3.68,12.49,7.68,25.54,16.88,34.76,7.23,7.26,17,11.38,25.4,17.19,9.16,6.31,16.78,14.59,23.76,23.25,4.84,6,9.46,12.32,12.42,19.45,7.05,17,4,36.59,9.21,54.22,3.08,10.33,8.92,19.64,12.21,29.9,6,18.88,3.14,40,10.69,58.31l2.25,9a88.81,88.81,0,0,0,5.31,28.07c-16.07-9.48-33.09-17.24-50.06-25-7.21-3.29-14.46-6.59-22.09-8.68-13-3.57-26.71-3.56-39.74-6.91-8.65-2.22-16.87-5.89-25.49-8.19-9.32-2.49-19-3.35-28.6-4.21-12.4-1.09-25-2.18-37.22.2-16.34,3.19-30.86,12.37-44.1,22.45l-6.65,4.44-4.41,4.28a21.56,21.56,0,0,0-26,15.47c-.51,1.92-.75,3.92-1.43,5.8a7.39,7.39,0,0,1-3.72,4.45c2.2-.24,4.42-.05,6.63-.11a29.46,29.46,0,0,0,22-10.92,1.65,1.65,0,0,1,1-.74,1.79,1.79,0,0,1,.71.16,16,16,0,0,0,6.83,1l2.09,4.15,5.43-.48c24.1-8,50.09-8.82,75.31-5.93s49.84,9.43,74.36,16c9.12,2.44,18.32,4.91,26.65,9.35,8.51,4.54,15.83,11,23.92,16.23,17.87,11.63,39.11,17.27,57,28.84,2.34,1.5,4.7,3.22,5.89,5.73,1,2.23,1,4.79,1.09,7.25.41,17.61,6.65,36.21,21,46.43,3.41,2.43,7.21,4.35,10.23,7.24s5.2,7.16,4.18,11.22l-1.09,8a294.18,294.18,0,0,1-6.21,72.74l-.74,6.2a75.3,75.3,0,0,1,.67,13.58,81,81,0,0,1-1.74,10.82l-5.51,26.43a93.34,93.34,0,0,1-3.94,14.76l-4.94,5.82a44.24,44.24,0,0,1-6.36,14.35,52.63,52.63,0,0,1-5.24-8.42l-5.65-4.41c-2.24-6.18-.74-13.48-4-19.19l.49-.9a54.83,54.83,0,0,0,2.2-6.75l2.25-8.11c.7-2.52,1.4-5,2-7.59a103.93,103.93,0,0,0,2.26-13.33l3.21-2.27c3.7-16.78,2.87-35.35-6.42-49.8-5.46-8.49-13.43-15-21.26-21.36-9.49-7.72-19-15.45-29.44-21.85-23-14.08-49.48-21.15-73.72-32.92l-6.48-3.23c-14.15-4.95-29.31-7.2-42.65-14a82,82,0,0,0-8.1-4,39.51,39.51,0,0,0-8.68-2,87.08,87.08,0,0,0-34.38,2.32l-5,2.47.64,3.22c-2.48,3.59-6.6,5.76-10.83,6.88s-8.62,1.3-13,1.73a116.72,116.72,0,0,0-54,19.63l.25.32a72.07,72.07,0,0,1,26,8.66,47.42,47.42,0,0,0,6.56,3.4c3.67,1.37,7.67,1.5,11.59,1.62l7.82.22,2.72.64a123.43,123.43,0,0,0,14.09,1.85,28.2,28.2,0,0,0,6.81-.11c4-.66,7.51-2.75,11.32-4s8.41-1.49,11.43,1.14l3.49,3.15,5.37-.18c9.92-.25,20-.53,29.41-3.7,5.12-1.73,10-4.31,15.31-5.22,11.23-1.93,22.55,4,30.54,12.09s13.46,18.3,19.79,27.76a172.25,172.25,0,0,0,20.51,25.2,103.81,103.81,0,0,0,19.12,15.76c5.51,3.4,11.47,6.07,16.74,9.84s9.94,8.91,11.34,15.24l5,5.21c1.69,4.51,6.2,7.31,8.73,11.4s2.93,9.41,3.17,14.36c.63,13.46,1.14,27.18-2.45,40.16l-3.33,5.93c-.13,9.72.32,19.52,2.53,29s6.26,18.65,12.69,26l1.4,4.91c-5.44,7.51-7.91,16.7-10.3,25.65q-20.51,76.71-43.84,152.63a43.45,43.45,0,0,0-39.1,4.67l-7.41,4.33a16.16,16.16,0,0,1-1.39,10.48c-2,4-5.7,7.1-7.41,11.27l-.6.52c-10,6.73-21.78,10-33.36,13.24-2.87.79-5.73,1.58-8.65,2.1a47.5,47.5,0,0,1-12.43.55l-2.75-2.74-6.69.86c-7.37,2.13-15.56.8-22.61,3.83l-6.36,1.84-2.08,6.14c-7.14,5.89-16.67,7.79-25.77,9.49-12,2.24-24.86,4.4-36-.53l-3.75-2.38a4,4,0,0,1-3.79-2.37l-6.71-.53a18.22,18.22,0,0,0-6.21-.66,95,95,0,0,0-18.6,1.68,39.71,39.71,0,0,0-16.88,7.66l-9.67,7.66c-6.14,4.11-11.07,9.76-15.93,15.33l-7.36,8.46c-2.95,3.38-6,6.94-7.08,11.29a28.2,28.2,0,0,0-.61,6.29l-.24,10c-.25-1,.85-1.86,1.87-2.08s2.15-.16,3-.76c1.15-.81,1.27-2.44,1.83-3.73s2.51-2.27,3.27-1.08c.46.73.09,1.87.75,2.44.91.78,2.5-.56,3.45.16s.17,2-.77,2.34a13.42,13.42,0,0,1-3,.25c-1,.13-2.08.94-1.84,1.92s1.43,1.17,2.37,1.06a4.44,4.44,0,0,1,2.8.08c.88.53,1.22,1.81,2.22,2s1.91-.86,2.5-1.79c3.87-6.18,10.11-10.42,16.17-14.47,5.63-3.77,11.29-7.55,17.5-10.24,9.73-4.21,20.41-5.57,30.92-6.88l5.63-.29,7.82-8.44a30.51,30.51,0,0,1,9.06-2.16c6.06-.5,12.1.8,18,2.17q19.48,4.53,38.65,10.23l.87,6.19,4.9,1.64q11.38-3.48,22.92-6.43l4.22-3.86,3-6.39a33,33,0,0,0,7.77-5.6c7.67-6.73,15.5-13.26,23.33-19.8,2.19-1.83,4.38-3.66,6.68-5.35,3.5-2.56,7.22-4.8,10.94-7a61.93,61.93,0,0,1,9.08-4.78,10.24,10.24,0,0,1,4.73-.9,4.47,4.47,0,0,1,3.79,2.63l5.42-.78a46.31,46.31,0,0,1,20.66-5.35,5.35,5.35,0,0,1,2.75.46c1.58.87,2,3,2,4.77a27.91,27.91,0,0,1-2.39,11.71c-1.59,3.59-3.91,6.79-5.8,10.22-5.47,10-7.43,22-15.26,30.26l-7.17,6.22q-.29,24.62-1,49.23l-1.37,7.23a271.66,271.66,0,0,1-7.85,45.47c-4.46,17-10.57,33.58-16.66,50.1l-8.41,22.79q-8.41,22.77-16.81,45.54c-1,2.69-2,5.46-4,7.5s-5.3,3.11-7.82,1.75l-4.53,6q-14.4,36.6-31.37,72.12l-2.58,4.59c.08,8.15.67,16.34.36,24.48-.52,13.73-4.3,28.46-15.11,37l-1.53,6.35c-6.87,15.57-6.52,33.24-6.05,50.26.17,6,.39,12.21,3.2,17.5,1.38,2.61,3.33,4.87,4.86,7.4,2.61,4.35,3.88,9.37,5,14.31s2.19,9.86,1,14.65c-1.52,6.06-6.34,10.63-9.86,15.8-5.7,8.4-7.95,19.7-3.61,28.87a13.57,13.57,0,0,0,3.42,4.7,13.36,13.36,0,0,0,5.7,2.56c8.83,1.93,18.28-2,24.53-8.5s9.66-15.35,11.3-24.24,1.66-18,2-27c.89-21.07,3.77-42,6.65-62.88l4.07-29.58c1.43-10.42,3.07-21.34,9.43-29.72l1.07-9.43,1-24.3c6.3-23,14.91-45.37,20.65-68.53,4.85-19.55,7.66-39.73,15.08-58.46,2.43,3.11,7.18,2.5,11.08,2s9,0,10.15,3.77l2.33,5.61,6.48-2.62c6.82-6,13.75-12.08,21.91-16.08,23.28-11.42,52.35-4.19,75.76-15.34,9.44-4.49,17.51-11.81,27.49-15,12-3.8,25.23-1,36.94,3.78s22.65,11.32,34.6,15.41c28,9.61,59.45,4.82,87.5,14.39Z"></path>
    <path data-name="3a" data-official="" data-plain="Seed-vessel" data-loc="" d="M1055.32,2757c-26.9.61-50-21.41-59.94-46.41s-9.75-52.69-10.55-79.59c-.42-14-.6-26.64,8.85-37,4.09-4.49,9.6-10.45,13.93-14.71,8.43-8.28,12.55-15.45,18.85-25.46,2.39-3.8,5.59-7.53,10-8.55,6.63-1.56,11.87-1.44,16.33,3.7s9.11,11.13,15.84,12.15,13.05-3.39,17.69-8.35,8.57-10.82,14.43-14.24a22.71,22.71,0,0,1,25.24,2c5.41,4.45,9,11.6,15.67,13.65,8.1,2.47,16.09-3.81,21.84-10s12.2-13.42,20.67-13.38c8.86,0,15.5,8.12,19.43,16.07s6.89,16.94,13.92,22.34c3.45,2.66,7.72,4.28,10.61,7.54,3.69,4.16,4.39,10.09,4.91,15.62,2.31,24.41,4.5,49,2.13,73.41s-9.58,48.87-24.42,68.39c-6.09,8-13.62,15.24-22.91,19.1-7.7,3.2-16.18,3.92-24.18,6.27s-16.09,7-19,14.79c-2.8,7.4-.46,16.33-4.57,23.09-4.22,7-13.39,8.72-21.5,9.44a274.45,274.45,0,0,1-28,1.07c-6-.08-13-.93-16.07-6.12-3.76-6.42,1.29-14.25,2-21.65.9-9.35-6.51-18.72-15.81-20Z"></path>
    <path data-name="3b" data-official="" data-plain="Open" data-loc="" d="M1226.76,2733.93a321.94,321.94,0,0,0,34-108.13c1.58-12.41,2.39-25.37-1.9-37.12-3.5-9.59-10.11-17.64-15.74-26.16-27.41-41.51-31.17-93.77-34.11-143.43-.36-6.11-.57-12.77,3-17.7,3.83-5.23,10.77-6.92,16.15-10.52,9.85-6.59,15.58-20.22,27.34-21.69,3.9-.49,7.82.54,11.61,1.56l26.68,7.17c8.7,2.34,17.69,4.83,24.65,10.55,12.79,10.53,15.35,28.8,16.89,45.29q2.06,22,3.85,44c2,25,3.47,51.82-9.11,73.54-4.31,7.44-10.09,13.92-14.85,21.08-26.36,39.64-18,92.83-34.38,137.52-4.09,11.14-9.82,22.56-7.8,34.25,1.32,7.63,5.83,14.3,8.24,21.66s2,16.81-4.43,21.15c-2.57,1.75-5.71,2.38-8.77,2.93a276.9,276.9,0,0,1-35.51,4c-5.31.24-11.1.18-15.26-3.12-7.49-5.93-5-17.92-.31-26.24s11.16-16.94,9.46-26.34Z"></path>
    <path data-name="3c" data-official="" data-plain="Cross Section" data-loc="" d="M1332.77,2764.24c3-7.88,6.13-16,5.86-24.46s-4.76-17.34-12.72-20.16c-3.31-1.17-6.9-1.21-10.34-1.89s-7-2.26-8.64-5.38c-1.14-2.19-1.11-4.77-1.09-7.24q.24-20.87-1.51-41.69c-.42-5-.92-10.24.69-15,2.5-7.47,9.59-12.44,16.82-15.57s15-5,21.79-9c6-3.55,11.37-8.86,18.29-9.59,4.93-.53,9.84,1.44,13.92,4.25s7.52,6.45,11.19,9.78a97.35,97.35,0,0,0,29.4,18.35c3.07,1.23,6.37,2.41,8.45,5,2.65,3.29,2.61,7.92,2.39,12.13-.74,14.07-2.1,28.12-4.09,42.07-.4,2.81-.85,5.71-2.35,8.13-2.41,3.91-7,5.79-11.2,7.65q-5.88,2.58-11.5,5.69c-3.21,1.78-6.64,4.08-7.4,7.66-.87,4.12,2.12,7.92,4.58,11.33,6.11,8.43,9.85,20.37,4.06,29-5,7.44-14.88,9.46-23.78,10.42q-9.21,1-18.47,1.39c-5.73.24-11.76.24-16.82-2.45s-8.7-9-6.53-14.27Z"></path>
    <path data-name="4" data-official="Hæmanthus coccineus" data-plain="Red Hæmanthus" data-loc="Cape of Good Hope" d="M644,2659.59A20.62,20.62,0,1,1,623.42,2639,20.62,20.62,0,0,1,644,2659.59Zm39-664.95c-7.88-10.17-9.87-23.62-10.75-36.45a122.29,122.29,0,0,1-.32-12.55c.29-8.25,1.91-16.69-.37-24.63-.59-2-1.44-4-1.93-6.12a35.48,35.48,0,0,1-.75-6.59q-.69-13.63-.68-27.3c0-4.85.12-9.88,2.17-14.27l.35-2.79a22.61,22.61,0,0,0-2.21-5.61,5.59,5.59,0,0,1-7.56-.2,49.71,49.71,0,0,0-20.64,21.64c-4.14,8.49-5.91,18.28-11.85,25.63-2.85,3.53-6.68,6.53-8.06,10.86l-1.47,5.14c-2,31.68-4.06,63.58-.11,95.08A69.25,69.25,0,0,0,574,2027.23c-4.93,3.21-9.53,7.11-15.07,9.13-6.08,2.21-12.73,2-19.18,2.51A76.57,76.57,0,0,0,495.53,2058l-4.66,5.52c-8.16,12.29-13.85,26.36-15.48,41-.51,4.51-.62,9.06-.74,13.6l-1.16,44.49c0,1.32-.18,2.85-1.27,3.6a4.48,4.48,0,0,1-1.84.55,93.41,93.41,0,0,0-28.27,8.88l-7,3.14c-3.84,4.51-7.74,9.13-9.91,14.64-1.14,2.9-1.78,6-2.77,8.94-1.15,3.41-2.78,6.64-4.14,10a68.88,68.88,0,0,0-5.09,27.75,6.77,6.77,0,0,1-.26,2.58,8.12,8.12,0,0,1-2.3,2.63c-4.21,3.9-5.68,9.87-6.82,15.5a393.25,393.25,0,0,0-6.46,44.93l-1,5.11c-.85,11.2-1.7,22.47-.6,33.66s4.25,22.38,10.76,31.54l4.74,4.94c2.1,2.11,5.75,1.27,8.21-.4s4.57-4,7.43-4.88a16.79,16.79,0,0,1,5.88-.22,105.49,105.49,0,0,0,24.4-1.13c-2.88,1.84-7,1.15-9.51,3.49a14.57,14.57,0,0,0-1.76,2.28c-4.36,6.06-12.35,8.22-17.93,13.18-3.17,2.82-5.47,6.46-7.72,10.06a12.84,12.84,0,0,0-1.54,3c-.71,2.3-.08,4.79-.4,7.18-.37,2.82-2,5.28-3.49,7.72a69.16,69.16,0,0,0-9.75,37.85l.95,4a7.73,7.73,0,0,1-2.68,4.69c-1.11.92-2.64,1.8-2.6,3.25a2.94,2.94,0,0,0,1.87,2.31c3.55,1.77,8.3.44,11.36,3,2.15,1.76,2.65,4.78,3.2,7.51,2.84,14.22,10.6,26.93,18.85,38.86a3.68,3.68,0,0,0,2.12,1.81,7.45,7.45,0,0,1,1.65.18c.89.39,1,1.59,1.47,2.43,1.17,2,4.18,1.58,6.45,2.23,3.51,1,5.36,4.9,8.54,6.69,2,1.15,4.47,1.33,6.8,1.49l8.69.58A27.35,27.35,0,0,0,479,2538a9.25,9.25,0,0,0,6-3.75l.55.14c3.21.15,5.61,2.86,7.89,5.13a42.62,42.62,0,0,0,7.83,6.15,5.59,5.59,0,0,0,3.62,1.13,22.77,22.77,0,0,1,2.27-.56c1.47-.07,2.66,1.21,4.1,1.51a21.85,21.85,0,0,1,2.45.28c1.26.43,1.93,1.76,2.76,2.8,1.52,1.9,3.8,3,6,4a22.22,22.22,0,0,0,7.52,2.45c2.54.2,5-.47,7.58-.69,8-.71,15.67,3,22.79,6.74l.65.21c1.75,1.6,4.5,1.23,6.76.52s4.68-1.67,6.93-.93c2.77.91,4.19,4,6.72,5.49,2.22,1.28,5,1.11,7.53.9l14.88-1.22c3.34-.27,6.81-.59,9.67-2.33,1.32-.8,2.45-1.89,3.81-2.63a4.72,4.72,0,0,1,4.42-.39c1.28.69,1.91,2.12,2.79,3.27s2.5,2.08,3.72,1.31c.32-.21.57-.51.9-.69.87-.47,1.92,0,2.84.43a11.88,11.88,0,0,0,9.88-.29,3.32,3.32,0,0,1,1.67-.53,3.78,3.78,0,0,1,1.51.67c2.17,1.23,4.85,1,7.33.7l4-.46a31.69,31.69,0,0,0,5.65-1c5.78-1.75,10-6.55,14-11.13a21.46,21.46,0,0,0,9.45,14.51l1.24.23c2.79.86,5.48-1.63,8.39-2a25.23,25.23,0,0,1,4.65.34c1.55.1,3.32-.25,4.19-1.53a8.6,8.6,0,0,1,.68-1.05c1-1.07,2.76-.38,4.24-.31a4.7,4.7,0,0,0,4.51-3c1.51,1.53,3.17,3.14,5.29,3.48a9.83,9.83,0,0,0,3.15-.16l5.44-.84a6.23,6.23,0,0,0,2.17-.62,8.23,8.23,0,0,0,1.76-1.68,11.8,11.8,0,0,1,10.68-3.5c2.24.43,4.31,1.52,6.49,2.2a19,19,0,0,0,14.78-1.53c2.07-1.16,4.59-2.74,6.58-1.44a14.61,14.61,0,0,1,1.6,1.55,4.74,4.74,0,0,0,7.92-2.86c.14-1.09-.07-2.33.63-3.18a3.59,3.59,0,0,1,1.47-.93l13.85-5.88.93-.75a85.61,85.61,0,0,0,18-29.64c3.2.46,6.21-1.47,8.82-3.38l.89-.52q8.32-6.54,16.23-13.58c10.54-9.36,20.69-19.56,27.17-32.08,2.19-4.23,4-8.87,3.73-13.63l.81-.77a158.29,158.29,0,0,0,7.82-14.66,57.78,57.78,0,0,0,4.21-11.49,66.6,66.6,0,0,0,1.22-12.21c.53-14.83.61-29.77-2-44.38-1.16-6.55-2.85-13-3.24-19.67-1-16.5,6.08-33.42,1.35-49.26l-.87-2.31a50.6,50.6,0,0,0-10.85-23.54l-2-5.68c-3.48-14.61-16.32-25.58-19.93-40.16-2.68-10.81.06-22.11,1.89-33.09s2.51-23.09-3.57-32.43c-4.1-6.3-10.79-10.5-15.2-16.59-8-11-7.16-25.72-8.35-39.24a118.45,118.45,0,0,0-19.16-54.67c-6.1-9.21-13.69-17.7-23.34-23.06-15.18-8.43-33.89-8.36-49.25-16.45-3.19-1.68-6.33-3.73-9.91-4-5.2-.45-10,2.85-15.09,3.72a16.94,16.94,0,0,1-18-9.94ZM526.78,1288.8l7.12,15.63a52.32,52.32,0,0,0,4.55,8.56c1.25,1.79,2.73,3.43,3.9,5.28a38.38,38.38,0,0,1,3.18,6.92l12,31.39c1.73,4.54,3.46,9.09,5,13.71a160,160,0,0,1,7.14,33.25v6.74q2.89,8.67,6.16,17.22a143.82,143.82,0,0,0,8.1,18.26,87.16,87.16,0,0,0,37.5,35.92,2.9,2.9,0,0,1,1.32,1,2.79,2.79,0,0,1,.25,1.35l.78,34.49,1.73,8.41c5.25,81.24-15.86,162.79-7.5,243.77l2.13,3.88q-.29,31.17-.56,62.33a117.7,117.7,0,0,1-.83,15.49l-.07-.1a83,83,0,0,1,29.81-3.8l-.43-3a1.79,1.79,0,0,1,0-1,1.73,1.73,0,0,1,1.06-.75c4.75-1.66,10.44-.5,14.6-3.34-.84-2.53-1.69-5.13-1.51-7.79s1.63-5.4,4.13-6.3c1.07-.39,2.26-.42,3.3-.88s1.94-1.65,1.5-2.7l1.55-4.44c-1.46-19.64,3.3-39.15,4.92-58.79,1.59-19.28.15-38.82,3.21-57.93,1.21-7.59,3.13-15.06,4.13-22.68,1.77-13.43.69-27.28,4.16-40.37l-3.4-8.24a443.85,443.85,0,0,1,6.31-59.31,6.5,6.5,0,0,1,.63-2.12c.78-1.35,2.39-1.94,3.69-2.8a9,9,0,0,0,3.95-7.58l2.8-4.37q6.1-34.71,9.18-69.88c7.31-.53,13.91-4.48,19.84-8.79a139.06,139.06,0,0,0,38-42.07l2.49-5.7c13.4-23.37,26.84-46.79,42.55-68.69,4.1-5.72,8.37-11.34,12.22-17.24a150.12,150.12,0,0,0,20-46l6.72-5.75-6.06-11.76c1.4-8.37,4.69-16.28,8-24.11q6.18-14.83,12.38-29.67a114.48,114.48,0,0,1,5.76-12.41,58.17,58.17,0,0,1,14.6-17l4.77,2.93,4.61-4.43,9.78-13.24c3-4.06,6.17-8.73,5.39-13.72l4-10.21,1.83-12.54,6.15-10.88a38.27,38.27,0,0,0,3.67-7.8,12.87,12.87,0,0,0-.1-8.47l.23-.84c3.76-1.25,5.7-5.3,7.24-9a126.07,126.07,0,0,0,5.81-15.83c1-3.94,1.72-8,3.14-11.83s3.72-7.52,7.23-9.61c-3.22,1.93-6.6,3.92-10.35,4.2a30,30,0,0,0-5.11.32,13.22,13.22,0,0,0-4.48,2.53l-23.69,17.82-.06-10.58a13.57,13.57,0,0,1,.18-2.7c.18-.84.52-1.63.77-2.45a11.44,11.44,0,0,0-.53-8,6.55,6.55,0,0,1-.62-1.68,6.38,6.38,0,0,1,.24-2.07c1.15-6.22-3.85-12.05-3.89-18.37l-3-4.43-5.85-1.39c-11.33-2.86-24.26,3.33-29.13,14-5.32-5.4-7-13.28-9.72-20.35-2.94-7.59-7.31-14.52-11.68-21.39-5-7.94-10.82-16.42-19.78-19.31a20.74,20.74,0,0,0-14.75.82,12.56,12.56,0,0,0-5.85,4.88c-1.19,2.08-1.49,4.53-2.06,6.86a29.59,29.59,0,0,1-5.17,10.91l-1.86,6.8c1.53,6.74,3,13.9.74,20.45-1.55,4.58-4.73,8.4-8,11.91a258.16,258.16,0,0,1-19.51,18c0-13.25-.22-26.66-3.55-39.49s-10.12-25.21-21-32.78c-4.44-3.1-9.54-5.41-13.07-9.51A19.23,19.23,0,0,1,727.12,981c.12-2.1.57-4.22.13-6.27s-2.18-4.06-4.27-3.87c-2.35.21-3.57,2.78-5,4.66-2.46,3.24-6.47,4.93-10.42,5.89s-8.06,1.34-11.91,2.67c-4.88,1.68-9.11,4.79-13.26,7.86l-20.54,15.17-2.52-4.23-4.65,3.34a53.62,53.62,0,0,0-19.24,26.28,249.7,249.7,0,0,0-29.34-15.94l-11.45,1.32a165.66,165.66,0,0,1-24.18-11.4,16,16,0,0,1-5.1-4,16.37,16.37,0,0,1-1.73-3.19l-4.42-9.8-2.34-5.06a48.77,48.77,0,0,0-12-2.53,20.56,20.56,0,0,0-11.78,2.63,25.64,25.64,0,0,0-6.53,6.24,35.42,35.42,0,0,0-5.76,9.74c-1.55,4.29-1.83,8.92-2,13.48a215.66,215.66,0,0,0,2,35.46l1,4.87c1.4,7.19,2.79,14.72.69,21.74-1.39,4.67-4.23,8.76-6.2,13.22-1.34,3-2.28,6.22-3.55,9.27a15,15,0,0,1-3.13,5.08c-2.77,2.7-6.91,3.32-10.75,3.79l-5.73,4.14a18.9,18.9,0,0,1-9.18,5c-3.42.88-6.95,1.19-10.44,1.76a71.5,71.5,0,0,0-15.69,4.46l-4.85-1.28a29.85,29.85,0,0,0-6.71,3.29,11.65,11.65,0,0,0-3.79,3.63,5.34,5.34,0,0,0-.35,5.06,8.26,8.26,0,0,0,3.39,3l2.86,1.68,2.76,3.83c5.34.2,11-.9,15.82,1.36a24,24,0,0,1,4.46,3l9.38,7.24c2,1.55,4.1,3.18,5.28,5.44l.76,5a23,23,0,0,0,9.32,10.25c1.8,1,3.77,1.86,5.3,3.27,1.91,1.75,3,4.24,3.83,6.69a87,87,0,0,1,3.76,14.39c.86,5,1.27,10.08,1.66,15.15,1.67,21.76,3,43.9,10.37,64.43Z"></path>
    <path data-name="4a" data-official="" data-plain="Flower" data-loc="" d="M124.08,2646.94c-6.83-13.66-5.65-29.77-4.4-45,2.75-33.41,4.69-68.75-10.43-98.66-5.84-11.56-14.32-22.81-13.87-35.75a17,17,0,0,1,2.56-9c2.84-4.2,7.91-6.19,12.73-7.74a169.12,169.12,0,0,1,55.88-7.94,22.2,22.2,0,0,1,7.7,1.19c6.67,2.68,9.49,10.89,8.87,18s-3.8,13.8-5.68,20.74c-5.34,19.67-.08,40.7-2.88,60.89-2.05,14.69-8.33,28.71-8.86,43.53-.44,12.3,3.12,24.41,3.41,36.71.52,21.69-8.84,44.95,1.25,64.15,5.41,10.3,15.46,17.17,23.32,25.74s13.72,21.31,8.37,31.64c-4.93,9.52-17,12.57-27.61,13.8a216.2,216.2,0,0,1-40.38.9c-4.91-.35-10.32-1.13-13.49-4.89-4.27-5.06-2.3-12.82.84-18.64a60,60,0,0,1,11.42-14.94c2.6-2.47,5.52-4.87,6.78-8.23,1.58-4.26,0-9.12-2.49-12.89s-6-6.83-8.85-10.37a40.32,40.32,0,0,1-8-32.76Z"></path>
    <path data-name="5" data-official="Sternbergia lutea" data-plain="Golden Lily" data-loc="Palestine" d="M1345.72,1569.85c17,.26,34.69.71,49.53,8.92,6.14,3.39,11.82,8.12,18.73,9.26,2.68.44,5.82.52,7.42,2.71a6.71,6.71,0,0,1,1.06,3.28,17.25,17.25,0,0,1-7,15.47c-9.11,6.54-21.88,2.71-32.75,5.48-8,2-14.64,7.61-22.35,10.58-8.51,3.28-17.88,3.24-27,3.16l-5.41-3-2.87-4.82a34.21,34.21,0,0,0,2.06-7.75q3.21-17.24,7.78-34.18a21,21,0,0,1,1.43-4.1c.84-1.64,2.09-3,2.95-4.66Zm-45.9,65.55,4.94-5.82a93.34,93.34,0,0,0,3.94-14.76l5.51-26.43a81,81,0,0,0,1.74-10.82,55.26,55.26,0,0,0-.09-7.72l-5.71,1.82a61.63,61.63,0,0,0-13.7,4.76l-5.47,2.35-3.21,2.27a103.93,103.93,0,0,1-2.26,13.33c-.61,2.54-1.31,5.07-2,7.59l-2.25,8.11a54.83,54.83,0,0,1-2.2,6.75l-.49.9c3.27,5.71,1.77,13,4,19.19l5.65,4.41Zm-680.89,286,1.47-5.14c1.38-4.33,5.21-7.33,8.06-10.86,5.94-7.35,7.71-17.14,11.85-25.63A49.71,49.71,0,0,1,661,1858.13a5.59,5.59,0,0,0,7.56.2l1.62-1.71,8.6-2.18c5.75-1.46,11.94-2.91,17.48-.79,3,1.15,5.54,3.25,8,5.32l16.2,13.59,3.44,2.69,44.32,56.68c5.38,6.87,10.77,13.77,16.93,19.94,4.92,4.92,10.31,9.37,15.16,14.36,8,8.2,14.39,17.76,20.5,27.42q10.9,17.2,20.69,35.09l1,4.18c4,8,8,16,9.85,24.75a104.56,104.56,0,0,1,1.7,16.68l1.13,23.35c.38,7.84.75,15.71.07,23.52-1,11.24-4.14,22.15-7.27,33l-2,9.56c6.08,9.34,5.39,21.44,3.57,32.43l5.1,3.82q7.45,35.85,17.61,71.07l-2.72,4a50.6,50.6,0,0,1,10.85,23.54l.87,2.31c4.73,15.84-2.32,32.76-1.35,49.26.39,6.64,2.08,13.12,3.24,19.67,2.58,14.61,2.5,29.55,2,44.38a66.6,66.6,0,0,1-1.22,12.21,57.78,57.78,0,0,1-4.21,11.49,158.29,158.29,0,0,1-7.82,14.66l-.81.77,1.95.74c2.07-1,4.68-2,6.51-.56a3.46,3.46,0,0,0,.91.63c.94.35,1.81-.57,2.59-1.22,2.08-1.73,5-1.77,7.74-1.72a10.09,10.09,0,0,1,4.63.81,15.68,15.68,0,0,0,2.38,1.36c2.54.82,5.23-1.77,7.79-1,1.77.52,2.69,2.41,4,3.68s4.12,1.54,4.55-.25c.17-.73-.16-1.52.08-2.23.36-1.05,1.72-1.31,2.84-1.38l6.53-.45c.32,0,.7,0,.87.25s-.13.77-.28,1.16c-.63,1.52,1.62,2.52,3.26,2.64l10,.71a3.18,3.18,0,0,0,2.07-.31c.94-.63.95-2,.86-3.11l-1.7-21.62c-.21-2.71,0-6.12,2.45-7.21,1.29-.56,2.76-.25,4.16-.08,7.61.94,15.38-2.68,20.41-8.47s7.48-13.51,7.86-21.17c.22-4.31-.44-9.15-3.8-11.86-3.67-3-9.62-2.54-12.44-6.32-1.53-2-1.67-4.79-1.75-7.35l-.72-23.17.65-8.76A391.68,391.68,0,0,0,939,2196.94c-6-19.53-13.67-39.51-11-59.78,1.65-12.66,7.26-24.45,10-36.92a84.13,84.13,0,0,0,1.93-21c-.31-8.69-2.26-17.89-8.43-24a15.68,15.68,0,0,1-3.31-3.79,10.32,10.32,0,0,1-.86-4.13,47.91,47.91,0,0,1,1.42-14.21l-.75-7.24c-1-.24-1.34-1.52-2.22-2a4.44,4.44,0,0,0-2.8-.08c-.94.11-2.14-.14-2.37-1.06s.85-1.79,1.84-1.92a13.42,13.42,0,0,0,3-.25c.94-.35,1.57-1.73.77-2.34s-2.54.62-3.45-.16c-.66-.57-.29-1.71-.75-2.44-.76-1.19-2.7-.21-3.27,1.08s-.68,2.92-1.83,3.73c-.86.6-2,.54-3,.76s-2.12,1.07-1.87,2.08l.24-10a28.2,28.2,0,0,1,.61-6.29c1.09-4.35,4.13-7.91,7.08-11.29l7.36-8.46c4.86-5.57,9.79-11.22,15.93-15.33l5.52-10.56a500.2,500.2,0,0,1,45-76.39l5.14-8.11,2.21-5.64c0-3.16,0-6.49,1.6-9.24a18.11,18.11,0,0,1,4-4.37l28.23-25-.12,0c9,.07,16.83-5.89,24.87-10,1.33-.7,2.95-1.35,4.29-.67,1.15.58,1.66,1.93,2,3.16l5.55-1.48a94.83,94.83,0,0,0,19.43-14.28l6.67-4.64,5.22-6.17c8.63-3.17,16.66-7.78,24.63-12.36,11.11-6.39,22.38-12.9,31.37-22,1.47-1.49,3-3.11,5-3.74s4.65.23,5.13,2.27l5.11-2.25,17.35-20.52c7.81-9.23,15.62-18.47,23.93-27.26,11.63-12.29,24.57-24.17,30.85-39.89,1.82-4.58,3.22-9.66,7-12.81l5.79-3.22,3.33-5.93c3.59-13,3.08-26.7,2.45-40.16-.24-5-.55-10.15-3.17-14.36a40.16,40.16,0,0,0-4.9-5.79l-5.51,4.06c-16.42,7.41-30.79,18.61-46.3,27.77-13,7.7-27.28,14.27-37.09,25.8a51.43,51.43,0,0,0-10,18.11l-3.52,4.17a23.33,23.33,0,0,1-1.49,7.82,44.27,44.27,0,0,0-1.85,4.66c-1,3.7.13,7.73-.88,11.43a20.44,20.44,0,0,1-3.29,6.13l-13.25,19.12c-11.37,16.41-23,33.06-38.58,45.51l-3.43-3.89-8.16,3.68a222.28,222.28,0,0,1-16.62,16.3l-3.57,3.78a12,12,0,0,1-2.25,10.4,20,20,0,0,1-2.43,2.44,81.52,81.52,0,0,1-15.32,10.75l-1.07.69c-5.89-.75-11.7,1.57-17.19,3.86l-25.21,10.49-1.75-4.32-6.06,1.81c-13.32,6.72-26.84,13.59-37.69,23.82-3.59,3.38-6.85,7.09-10.1,10.8L917,1886.5q0-17.82.84-35.6c.76-16.61,2.26-33.91,11-48.07,10.26-16.7,28.84-26.34,41.86-41,4.34-4.87,8.1-10.35,13.26-14.35l7.69-6.16,3.24-8.87c.95-1.17,1.86-2.37,2.75-3.6l.6-.41a11.86,11.86,0,0,0,6.39-2.44,29.81,29.81,0,0,0,4.95-4.84c2.12-2.45,4.24-5.27,4.25-8.51l.16-.69a71.6,71.6,0,0,0,20.46-22.22,20.24,20.24,0,0,0,2.72-6.45,8.38,8.38,0,0,0-1.38-6.68l.18-.52,6.62-13a48.46,48.46,0,0,1,5.61-9.24,6.62,6.62,0,0,1,3.72-2.59l2.62-5.89,4-47.25,3.17-15.86a44,44,0,0,0-2.2-8.88c-1.1-2.75-2.74-5.25-4-7.92l-.87,5.35a22.89,22.89,0,0,0-2.36,3.56l-1.45,2.55a12.55,12.55,0,0,0-1.82,4.38l-2,2.2-1,4c1,3.66.07,7.62-1.67,11a57.43,57.43,0,0,1-6.61,9.24c-4.06,5-7.92,10.57-9.07,17-.59,3.29-.43,6.67-.93,10a25.71,25.71,0,0,1-11.57,17.69c-2.3,1.45-5.07,2.8-5.84,5.41-.27.93-.25,1.91-.43,2.86-1,5-6.78,7.21-9.61,11.39-2.31,3.41-2.42,7.78-3.2,11.83s-2.87,8.45-6.87,9.43l-1.48-3.48-2.49,1.12a82,82,0,0,0-14.59,1.54,27.77,27.77,0,0,0-13,6.43,71.71,71.71,0,0,0-5.89,7,26,26,0,0,1-8.55,7.19c-2.6,1.25-5.46,1.84-8.14,2.93a47,47,0,0,0-9.69,5.85,146.14,146.14,0,0,1,23.84-29.2,50.5,50.5,0,0,1,8.31-6.63c3-1.77,6.2-3,9.12-4.88a52.38,52.38,0,0,0,6.66-5.33l9.4-8.37,4.24-2.24,1.71-7.41c14.66-11.11,29.27-23.35,37.48-39.81,1.56-3.13,2.87-6.37,4.45-9.49s3.35-6,4.73-9.17c3.07-7,3.93-14.84,7-21.86.27-.64.86-1.4,1.5-1.12l0-2.76,1-36,1.48-7.86-3.11-9.79c-1-5.49-.59-11.14-.66-16.72a39.37,39.37,0,0,0-.4-5.74c-.26-1.6-.66-3.17-1.07-4.74l-1.4-5.41c-.31-1.19-.72-2.51-1.82-3.07a3.47,3.47,0,0,0-3.21.4,21.24,21.24,0,0,1-2.91,1.7l-3.34,1.42a126.94,126.94,0,0,1-10.6,9.48c-2.71,2.08-5.79,4.25-6.57,7.57a14.43,14.43,0,0,0-5.31-5.24l-.18-.17c-4.39,2.29-8.92,4.7-11.92,8.63-1.75,2.3-3,5.13-5.5,6.61a36.7,36.7,0,0,0-5-18.68c-3.27-5.59-8-10.35-10.28-16.43l-1.54-6.38-1.71-3.18L962.8,1463c-1.64-4.91-8.81-5.37-13.24-2.68s-7.37,7.29-11.58,10.3c-6.8,4.86-16.26,5.18-22.44,10.79-9.68-4.57-16-15.83-26.62-17.26-5.91-.79-11.78,1.79-16.7,5.15-10.88,7.43-18.63,18.65-24.71,30.33s-10.75,24.08-17,35.7c-.32.6-.73,1.26-1.39,1.39s-1.47-.48-2-1.07c-8.21-9.14-14.31-20-22.24-29.38-9.08-10.77-20.39-19.4-31.59-27.94-2.63-2-5.75-4.12-9-3.32-3.47.87-5.2,4.68-6.33,8.06a156.18,156.18,0,0,0,6,112.94c7.55,16.55,18,31.61,28.31,46.58l5.23,5.46c2,7,5.34,13.57,8.83,20a401.51,401.51,0,0,0,44.28,65.18c3.27,3.92,6.68,7.89,8.45,12.68,1.68,4.57,1.75,9.55,1.76,14.43q.06,16.64-.4,33.28l-1,9.82c-9.81,27.34-.73,57.64-3.38,86.56-6.37-8.55-8.85-19.3-11.11-29.73-11.36-52.48-21.21-106.11-45.36-154.07l-4.5-8c-22.26-31.37-33.64-69.69-57.58-99.8-3.43-4.32-7.11-8.45-10.78-12.57l-20.76-23.32-5.83-4.13a9,9,0,0,1-3.95,7.58c-1.3.86-2.91,1.45-3.69,2.8a6.5,6.5,0,0,0-.63,2.12,443.85,443.85,0,0,0-6.31,59.31l3.4,8.24L693,1649c6.24,19.8,13.7,39.2,21.16,58.58l32,83.21c2.88,7.5,5.77,15,8.86,22.42a440.34,440.34,0,0,0,31.55,61.6l-34.24-22.11c-13.74-8.87-28.29-18-44.62-19l-7,1.22c-3.67,1.89-7.39,3.81-11.45,4.58a42.46,42.46,0,0,1-7.31.54l-15.48.23-2.82.13c-4.16,2.84-9.85,1.68-14.6,3.34a1.73,1.73,0,0,0-1.06.75,1.79,1.79,0,0,0,0,1l.43,3a83,83,0,0,0-29.81,3.8l.07.1c0-.32.09-.65.13-1l-4-.28c-2-.08-4.25-.06-5.61,1.4a17.19,17.19,0,0,0-1.08,1.46,11.59,11.59,0,0,1-3.74,2.64,50.61,50.61,0,0,0-16.64,14.46l-6.53,1.44c-12.28,15.64-25.05,32.45-27,52.24-.89,8.92.52,17.9,2,26.73.6,3.53,1.26,7.13,3,10.23s4.93,5.67,8.51,5.74,6.92-2.41,9.79-4.77L609,1936.88Z"></path>
    <path data-name="6" data-official="Phycella ignea" data-plain="" data-loc="Chile" d="M444.37,1554.08a310.73,310.73,0,0,0-14.23,68.25c-1.41,15.09-1.72,30.32-4.33,45.25-2.59,14.74-7.38,29-12.16,43.18l-1.39,6.75c-.2,27-8.07,53.26-10.93,80.07-1.25,11.75-1.54,23.59-3,35.32-1.78,14.54-5.31,28.81-8.41,43.12-1.1,5.1-2.16,10.26-2,15.47.31,9.88,4.94,19,9.46,27.84,12.42-25.92,15.17-57.23,34.8-78.23,3-3.24,6.49-6.21,10.63-7.78s9.07-1.55,12.78.88c1.22.81,2.58,1.92,4,1.47a4,4,0,0,0,1.84-1.63c8.15-11.22,12.77-24.59,19.94-36.45s18.19-22.84,32-24.08c2.21-.2,4.62-.08,6.34,1.32,2.48,2,2.51,5.72,2.32,8.91l-7.84,134.93-1.13,8.3c-5.05,43.13-18.7,84.73-32.28,126-12.78,38.81-25.58,77.69-42,115.1l-3.66,10.77c-3.84,4.51-7.74,9.13-9.91,14.64-1.14,2.9-1.78,6-2.77,8.94-1.15,3.41-2.78,6.64-4.14,10a68.88,68.88,0,0,0-5.09,27.75,6.77,6.77,0,0,1-.26,2.58,8.12,8.12,0,0,1-2.3,2.63c-4.21,3.9-5.68,9.87-6.82,15.5a393.25,393.25,0,0,0-6.46,44.93l-1,5.11-4.59,11.2-.6,14.08a75.25,75.25,0,0,1-1.49,14.15c-2.35,10-8.79,19.23-8.14,29.48a71.19,71.19,0,0,1,19.74-2.55l5.24-1.16,4.74,4.94c2.1,2.11,5.75,1.27,8.21-.4s4.57-4,7.43-4.88a16.79,16.79,0,0,1,5.88-.22,105.49,105.49,0,0,0,24.4-1.13c-2.88,1.84-7,1.15-9.51,3.49a14.57,14.57,0,0,0-1.76,2.28c-4.36,6.06-12.35,8.22-17.93,13.18-3.17,2.82-5.47,6.46-7.72,10.06a12.84,12.84,0,0,0-1.54,3l-5.66,6.76a40.08,40.08,0,0,0-15.23,27.26,84.17,84.17,0,0,0-.2,10.17q.5,26.91-1,53.79l-.7,1.54a4.13,4.13,0,0,0-2.53,5.41,7.23,7.23,0,0,1,1,2.27c.16,2.22-3,2.77-5.22,2.49l-9.37-1.22c-1.53-.2-3.36-.29-4.33.91a16.27,16.27,0,0,0-1.06,2.18c-1.09,1.86-3.64,2.1-5.79,2.13l-13.66.18c1,.75.8,2.42-.08,3.32a6.74,6.74,0,0,1-3.38,1.51l-6,1.41a11,11,0,0,1-4.33.43c-4.38-.75-6.91-6.51-11.36-6.44-2.86,0-5.08,2.57-7.86,3.28-3.25.82-7.05-.91-9.89.87-.91.58-1.65,1.49-2.7,1.75-1.74.45-3.29-1-4.88-1.88-3.46-1.82-7.66-.55-11.34.76-2.42.87-5.1,1.75-7.48.77a5.22,5.22,0,0,1,0-9.65c1.07-.44,2.31-.55,3.2-1.28,1.85-1.54,1-4.5-.06-6.67-1.2.33-2.29-.77-3.05-1.75a159.53,159.53,0,0,1-9.43-13,31.38,31.38,0,0,0-3.14-4.49c-3.47-3.8-9.24-5.6-11.19-10.36l-2.92-3.75L252,2455.19l.58-5.32c-2.11-9.12,5.17-17.59,7-26.77,1.88-9.64-2.38-19.25-5.54-28.55a132.8,132.8,0,0,1-5.44-62.83c1-6.22,2.39-12.48,1.74-18.73-.57-5.4-2.64-10.5-4.9-15.43-6.92-15.14-15.69-29.38-22.54-44.56s-11.77-31.72-10.33-48.3l-7-9.78c-15.7-34.47-19.32-73.2-19.55-111.07-.11-17.36.45-34.76,3-51.92,1.9-12.53,5-25.27,12.42-35.56s19.84-17.75,32.42-16.17c1.36.18,2.92.39,4-.51a4.52,4.52,0,0,0,1.13-2.7c3-17.85,2.16-36.11,3.8-54.14s6.12-36.6,17.94-50.31c3.65-4.23,8.72-8.16,14.24-7.38,3.45.49,6.39,2.77,8.78,5.3,10.35,11,12.94,26.93,15.06,41.86q6.38,45.09,12.76,90.17c1.25,8.84,2.59,17.94,7.17,25.61A234,234,0,0,0,329,1989.6l.25-8.29c10.22-67.31-22.87-135-15.94-202.74.46-4.55,2-10.07,6.45-11,3.14-.67,6.16,1.39,8.62,3.46a89.73,89.73,0,0,1,25.31,35.17q16.57-98.85,25.94-198.73c.7-7.49,1.36-15.14-.4-22.45s-6.38-14.35-13.4-17l-14.5,35.11c-12.46,30.15-27.77,63.23-58.07,75.32-22.4,8.94-49.94,3-66.69-14.33s-21.72-45.07-12-67.15a104,104,0,0,0-32.76,37.54c-3.15,6.14-5.6,13.87-1.8,19.64,2.66,4,7.85,6.07,9.93,10.44,1.33,2.76,1.15,6,.46,9-2.82,12.22-14.61,21.75-27.15,22-5.28.09-10.45-1.3-15.68-2a60.25,60.25,0,0,0-31.2,4.22c-3.41,1.43-6.81,3.3-8.9,6.36-1.72,2.53-2.4,5.67-4.24,8.12-6,7.93-19.58,2.93-24.46-5.72s-4.82-19.23-8.3-28.54l-10-.18-6.23-2.1c-7.2-.23-14.53-.48-21.36-2.78s-13.21-7-15.79-13.72c-5.93-15.45,10-31.24,9.21-47.77-.26-5.65-2.47-11-3.46-16.58s-.44-12,3.76-15.8c6.76-6.1,17.44-1.62,26.48-2.68,2.21-.26,4.55-1,5.86-2.78,2.3-3.15.37-7.51-1.44-11-3-5.79-5.59-13.08-2-18.57,2.88-4.42,8.7-5.84,14-6A50.43,50.43,0,0,1,94,1543.28c3.41,1.72,6.69,3.85,10.41,4.76,5.71,1.38,11.68-.31,17.31-2l19-5.64c3.47-1,7.19-2.23,9.31-5.17,1.53-2.11,2-4.79,2.36-7.36l2.07-13.36c.7-4.56,1-10.1-2.64-12.88-3.11-2.36-7.66-1.41-11,.63s-6,5-9.46,6.87c-6.57,3.59-14.56,2.62-22,2.13s-15.89,0-21,5.44c-1.48,1.58-2.61,3.51-4.36,4.79-4,3-9.84,1.37-14-1.37s-7.77-6.55-12.47-8.27c-4-1.48-8.47-1.25-12.77-1.47a59.76,59.76,0,0,1-16.1-3.09c-3.11-1.06-6.36-2.59-7.87-5.5-1.05-2-1.1-4.4-1.11-6.68l-.18-23c0-4.63,0-9.55,2.5-13.45,3.07-4.83,9.11-6.89,12.9-11.18a5,5,0,0,0,1.55-3.41,5.23,5.23,0,0,0-1.94-3.32c-4.82-4.52-12.74-8.55-11.22-15,.76-3.2,3.76-5.27,6.54-7l14.37-9.14c2.56-1.62,5.43-3.8,5.35-6.84-.1-4-5.11-6-6.74-9.62-2.57-5.73,4.25-11.32,10.37-12.71,30.13-6.82,59.17,24.91,89.25,17.9l10.63,3.62a249.13,249.13,0,0,1,85.7-9.36c3.84.25,7.76.59,11.46-.46,3.41-1,6.38-3,9.34-5a159.72,159.72,0,0,1,47.39-21c8.27-2.15,17.75-4.35,21.91-11.82,2.2-3.93,2.43-8.62,2.78-13.11a176.62,176.62,0,0,1,4.26-27.16c.73-3.09,1.59-6.24,3.47-8.8,3.84-5.22,11.18-7,14.91-12.26,2.14-3,2.81-6.85,4.66-10.06s5.86-5.85,9.16-4.15,3.45,6.44,4.16,10.2c2.26,12,14.5,18.71,24.26,26A92.46,92.46,0,0,1,423,1346.1l9.64,3.54a120.59,120.59,0,0,1,14.81,47l.3,10.74a43.55,43.55,0,0,1-2.92,28,68.28,68.28,0,0,0-3.5,7.64,35.61,35.61,0,0,0-1.38,9.32,97,97,0,0,0,.88,21.55c.82,4.81,2.2,9.53,2.81,14.37,1.19,9.38-.52,18.85-2.21,28.15ZM334.83,2591.19a14.63,14.63,0,0,0-13.67,4.37,28.94,28.94,0,0,0-4.3,7.15,60.72,60.72,0,0,0-4.89,12.62c-1,4.48-.63,9.93,3.08,12.65a10.55,10.55,0,0,0,6.3,1.77c6.64,0,12.91-3.7,17.11-8.85s6.55-11.56,8-18.05a10.54,10.54,0,0,0,.17-5.4c-1.19-3.75-5.69-5.12-9.54-5.93Z"></path>
    <path data-name="7" data-official="Narcissus moschatus" data-plain="" data-loc="Spain" d="M792.61,1966c-.23,4.77,3.77,8.49,6.65,12.3a30.67,30.67,0,0,1-14.61,47.58l-4.8,4.35c-15.18-8.43-33.89-8.36-49.25-16.45-3.19-1.68-6.33-3.73-9.91-4-5.2-.45-10,2.85-15.09,3.72a16.94,16.94,0,0,1-18-9.94l-4.63-8.85c-7.88-10.17-9.87-23.62-10.75-36.45a122.29,122.29,0,0,1-.32-12.55c.29-8.25,1.91-16.69-.37-24.63-.59-2-1.44-4-1.93-6.12a35.48,35.48,0,0,1-.75-6.59q-.69-13.63-.68-27.3c0-4.85.12-9.88,2.17-14.27l.35-2.79a22.61,22.61,0,0,0-2.21-5.61l1.62-1.71,8.6-2.18c5.75-1.46,11.94-2.91,17.48-.79,3,1.15,5.54,3.25,8,5.32l16.2,13.59,3.44,2.69,44.32,56.68c5.38,6.87,10.77,13.77,16.93,19.94ZM671.13,1822.7c.44,1-.46,2.23-1.5,2.7s-2.23.49-3.3.88c-2.5.9-4,3.65-4.13,6.3s.67,5.26,1.51,7.79l2.82-.13L682,1840a42.46,42.46,0,0,0,7.31-.54l-2-4a56.35,56.35,0,0,0-12.43-10.12ZM623,955.16l-.95-12a524,524,0,0,0,32.83-89.61,2.92,2.92,0,0,1,.85-1.65c.76-.61,1.87-.32,2.77,0l5.58-4.08a259.21,259.21,0,0,0,3.1-50.4c-.12-3.3-.42-6.89-2.67-9.31s-5.85-3-9-2.12a17.77,17.77,0,0,0-8,5.27,35.12,35.12,0,0,0-9.17,18.86L635.77,815l1.57,5L639,832.87a37,37,0,0,1,.43,8c-.56,6-4,11.35-6.68,16.78-3.25,6.59-5.47,13.64-7.61,20.68-.76,2.51-1.52,5-2.53,7.47-.87,2.1-1.93,4.12-3,6.14l-10.8,20.71c-1.81,3.47-3.94,7.23-7.63,8.53-2,.72-4.43.61-6.19,1.88l-5.71-1.86-6.11,9.5c-7.25,16.59-19.79,31.13-23,49l-3.25,4.77,2.34,5.06,4.42,9.8a16.37,16.37,0,0,0,1.73,3.19,16,16,0,0,0,5.1,4,165.66,165.66,0,0,0,24.18,11.4l11.45-1.32.12-5.43c3.55-14.79,7.13-29.64,13-43.65Zm-509,55C98.25,1027.92,84,1047.25,74.4,1069s-14.15,46-10.17,69.44a12.07,12.07,0,0,0,2.13,5.78c4.6,5.56,13.22.26,20.32-1,9.38-1.72,18.39,4.66,27.92,5,8.84.37,17-4.38,24.6-8.85A7.37,7.37,0,0,1,143,1138c2.52.07,4.23,2.56,5.22,4.88,5.94,13.9.69,31.66-11.84,40.11-7.23,4.87-16.25,6.77-23,12.25-10.91,8.82-13.25,24.36-13.75,38.39-.42,11.6-.11,23.4,3.16,34.54,8.08,27.5,32.68,46.76,57.69,60.74,20.24,11.33,42,20.58,65,23.72s47.38-.25,67-12.62a60.44,60.44,0,0,0,18.43-17.41c11-16.66,10.25-39.74-.24-56.73-3.15-5.12-7.3-10.67-5.83-16.5,1-3.77,4.05-6.53,6.86-9.21a111.06,111.06,0,0,0,26.23-38.42c11.87,21.77,3.45,52.9,21.49,69.91l8.53,7.16c3.4,1.75,3.45,6.44,4.16,10.2,2.26,12,14.5,18.71,24.26,26A92.46,92.46,0,0,1,423,1346.1l9.64,3.54a120.59,120.59,0,0,1,14.81,47l.3,10.74a43.55,43.55,0,0,1-2.92,28,68.28,68.28,0,0,0-3.5,7.64,35.61,35.61,0,0,0-1.38,9.32,97,97,0,0,0,.88,21.55c.82,4.81,2.2,9.53,2.81,14.37,1.19,9.38-.52,18.85-2.21,28.15l2.91,37.65,7.25,2.1L503,1654.35c6.52,12.48,13.08,25,17.39,38.45,4.59,14.31,6.53,29.31,9.15,44.11a481.46,481.46,0,0,0,44.94,134.3l6.77,1.35,6.53-1.44a50.61,50.61,0,0,1,16.64-14.46,11.59,11.59,0,0,0,3.74-2.64,17.19,17.19,0,0,1,1.08-1.46c1.36-1.46,3.62-1.48,5.61-1.4l4,.28h0a125.78,125.78,0,0,0,.7-14.53q.27-31.15.56-62.33l-2.13-3.88-2.89-4.85-48.82-80.12a29.24,29.24,0,0,1-3.28-6.54c-1.17-3.77-.79-7.83-.41-11.76a1120.91,1120.91,0,0,0,4.81-126.15l.71-5.64c3.55-33.08,7.1-66.27,6.47-99.54l1.23-8.61q-3.25-8.54-6.16-17.22v-6.74a160,160,0,0,0-7.14-33.25c-1.52-4.62-3.25-9.17-5-13.71l-12-31.39a38.38,38.38,0,0,0-3.18-6.92c-1.17-1.85-2.65-3.49-3.9-5.28a52.32,52.32,0,0,1-4.55-8.56l-7.12-15.63-5.63-10.67c-7.41-20.53-8.7-42.67-10.37-64.43-.39-5.07-.8-10.14-1.66-15.15a87,87,0,0,0-3.76-14.39c-.88-2.45-1.92-4.94-3.83-6.69-1.53-1.41-3.5-2.22-5.3-3.27a23,23,0,0,1-9.32-10.25l-.76-5c-1.18-2.26-3.26-3.89-5.28-5.44l-9.38-7.24a24,24,0,0,0-4.46-3c-4.84-2.26-10.48-1.16-15.82-1.36l-2.76-3.83-2.86-1.68a8.26,8.26,0,0,1-3.39-3,5.34,5.34,0,0,1,.35-5.06,11.65,11.65,0,0,1,3.79-3.63,29.85,29.85,0,0,1,6.71-3.29l4.85,1.28a71.5,71.5,0,0,1,15.69-4.46c3.49-.57,7-.88,10.44-1.76l5.11-9.32-9.35-181c-.56-10.87-1.17-21.94-5-32.15-3.12-8.4-8.26-15.86-12.53-23.73-5.22-9.61-9.49-20.33-18.23-26.91-10.09-7.6-24.24-7.85-36.21-3.8s-22.25,11.83-32.3,19.48l-43.71,33.27c-2.64,2-5.79,4.13-9,3.31-3-.77-4.78-3.82-6.38-6.5a73.09,73.09,0,0,0-37.75-31c-7.28-2.61-16.69-3.48-21.57,2.52-6,7.4-.33,18.15,4.68,26.26a166.26,166.26,0,0,1,19.41,45.52c1.12,4.32,1.95,9.28-.61,12.93-1.51,2.17-4,3.46-6.44,4.42-27.43,10.81-59.81-9.33-87.33,1.26-25.3,9.73-36.57,41.75-61.91,51.38Z"></path>
</svg>
