
<svg xmlns="http://www.w3.org/2000/svg" viewBox="0 0 1976 2960" id="illustration" preserveAspectRatio="xMidYMid meet">
    <title>Iridaceæ</title>
    <path data-name="1" data-official="Iris pseudacorus*" data-plain="Yellow Water-Iris" data-loc="England" d="M1040.58,2183.46c-14.92-7.14-30.15-14.49-41.84-26.19-3.65-3.65-6.91-7.69-10.88-11-4.71-3.89-10.25-6.61-15.54-9.66-23.93-13.84-42.75-34.79-63.44-53.1-9.8-8.68-20.08-16.8-30.34-24.92l-34.64-27.38,1.68.25c12.88.8,25.25,5.17,37.2,10a161.75,161.75,0,0,1,21.2,10.05c3.94,2.32,7.72,4.91,11.64,7.27a117,117,0,0,0,66.83,16.43,195.41,195.41,0,0,0,27-3.95l2.82,4.66c8.19,13.63,9,30.36,14.51,45.27,1.4,3.77,3.1,7.43,4.67,11.13a163.16,163.16,0,0,1,11.64,43.89ZM826.92,1984.89c18.12,2.27,35.17,10,50.79,19.44,8.69,5.26,17.08,11.11,26.45,15,11.68,4.87,24.43,6.53,37,7.6q20.1,1.69,40.28,1.54-6.86-14.82-12.39-30.21l-.23-2.26c-8.61-13.34-24.83-19.94-40.59-21.82s-31.71.15-47.58,0a171.52,171.52,0,0,1-23.52-1.84,80.14,80.14,0,0,1-12.83-2.78,103.35,103.35,0,0,1-9.7-3.83l-32.34-14-.23,4.63a181.64,181.64,0,0,0,19.43,23.78Zm163.59,460.73c9.22,17.08,12.7,36.59,16,55.71l8.74,49.92c6.2,35.35,12.42,70.95,12,106.85-.17,16-1.5,32.83,5.41,47.29,2.29,4.8,5.49,9.36,6,14.64.6,5.68-2,11.45-.82,17s6.22,10.06,11.79,11.77,11.59,1.14,17.28-.13c7.88-1.77,16.52-6.07,18.08-14,1.19-6-1.8-13.32,2.52-17.62,3.15-3.14,8.28-2.51,12.62-3.45,12.86-2.79,17.39-18.55,19-31.61,4.5-35.49,5.82-72.09-3.88-106.53-5.92-21-15.86-40.93-19.59-62.44-2.51-14.46-2.13-29.24-2.9-43.9a282.12,282.12,0,0,0-15.7-79.17c-6.7-18.95-15.55-37.83-15.43-57.94l-3.51-21.49c.11-12-8.76-22-16.54-31.13-15.52-18.3-29-39.29-33.28-62.89-1.17-6.38-1.71-13.06-4.78-18.78-2.52-4.69-6.55-8.35-10.61-11.79A247.12,247.12,0,0,0,957,2160.64c-7.4-4.26-15-8.15-22-13.13-11.56-8.31-20.92-19.5-32.92-27.16l-2.85-2.82a293.59,293.59,0,0,1-26-25.37l.44,1.61c6.57,21.62,14,43,21.34,64.33l21.65,62.64,8.32,24.09,3.15,5.83q5.07,15.51,11.45,30.56c3.39,8,7.1,16,12.44,22.86,2.2,2.85,4.67,5.49,6.79,8.4,4.6,6.37,7.36,13.86,10,21.25q5,13.86,9.94,27.76a80.51,80.51,0,0,1,3.69,12.58,82.13,82.13,0,0,1,1,12.93l.59,29.59Zm-296.59-723.7c16.89.4,34.41,1.06,49.5,8.66,18.31,9.22,30.67,27.9,35.67,47.78l1.29-.19a39.19,39.19,0,0,1,26,6.25c-1.25-3.6-4.27-6.56-4.65-10.35-.33-3.15,1.22-6.56-.24-9.37a20.8,20.8,0,0,1,8.09.42l-.84-.16c.68-5-2.46-10.62.35-14.78,1.82-2.69,5.39-3.48,7.9-5.53a9.72,9.72,0,0,0,3.27-9.48,31.5,31.5,0,0,1,17.19,12.66,21.34,21.34,0,0,0-1.43-10.86,43.09,43.09,0,0,1,17.55,32.83c5.22-3.45,5.4-10.86,7.74-16.67,1.83-4.54,5.27-8.62,5.46-13.52a20.24,20.24,0,0,0-1.68-7.7q-2.85-7.76-6.3-15.26l-8.46-1.26c-12.4,4-25.27-5.66-38.28-5-3.57.19-7.1,1.16-10.67.95-8.67-.5-15.4-7.67-20.14-14.95s-8.78-15.47-16-20.3c-4-2.7-9-4.38-11.59-8.49-2.71-4.39-1.67-10-1.07-15.12,1.29-10.92,0-22.61-6.35-31.61l-.89-1.1a45.16,45.16,0,0,1-10,.53,17.58,17.58,0,0,1-9.3-3.34,9.47,9.47,0,0,1-2.35-2.54c-2.07-3.5-.83-7.94-1.23-12l-.21-.68a19.73,19.73,0,0,1-7.72-.93,9.39,9.39,0,0,1-5.59-5.13c-1-2.53-.56-5.56-2.06-7.83-1.64-2.48-4.91-3.12-7.78-3.91s-6.07-2.5-6.33-5.46l-1.11,0q-7.83,1.38-15.53,3.32l-.16,1.54c1.12,6.59,2.12,13.26,1.68,19.93s-2.44,13.41-6.72,18.55a2.49,2.49,0,0,1-1.23.93,3.53,3.53,0,0,1-1.81-.36c-3.07-1-6.29,1.11-8.48,3.49-2,2.23-3.79,5.13-3.28,8.11.35,2.09,1.76,3.83,2.61,5.78s1,4.59-.77,5.82c-1.54,1.1-3.78.54-5.39,1.5s-2.06,3.13-2.31,5l1.72,5.55q10.13,21.06,21.4,41.55c3.49,6.33,7.35,12.93,13.64,16.5Zm147.23-428.59a10.88,10.88,0,0,0-7.37-8.41c-3.75-1.15-7.76-.16-11.68.08a30.11,30.11,0,0,1-16-3.51c-2.55-1.38-5-3.3-5.94-6a13.35,13.35,0,0,0-1-3c-1.07-1.71-3.35-2.11-5.36-2.25-6.85-.45-14.08.34-20.29-2.61-5-2.38-8.66-6.9-12-11.31-3.87-5.06-7.72-10.31-9.69-16.37s-1.8-13.16,2-18.3a47,47,0,0,1-29.57,10.1l-4.31,4.41c-.55,7.94,1.07,15.86,2.69,23.66l9.67,46.69,2.17,7.5,2.41,8a4.89,4.89,0,0,0,1.61,2.8c1.29.88,3.1.33,4.57.89s2.39,2.34,3.58,3.56,3.62,1.73,4.32.18c.45-1,.05-2.52,1.06-2.9.65-.26,1.32.28,1.85.74,4,3.47,9.7,4.23,14.26,7,5.26,3.14,8.63,8.62,13.12,12.8,4.87,4.52,11,7.43,17,10.27l23.46,11.07c5.29,2.49,11.25,5.84,12.16,11.62a18.8,18.8,0,0,0,10.45-18.16l-.7-6q-.78-27.33-3.28-54.58ZM827.73,959.45l-.46-16.72a74.11,74.11,0,0,0-.85-11c-1.32-7.46-4.86-14.32-8.35-21-2.4-4.62-5-9.44-9.37-12.23s-10.05-3.07-15.32-2.91c-3.21.09-6.53.35-9.31,1.94-5.14,2.94-6.89,9.45-7.44,15.35a142.44,142.44,0,0,0-.35,14.47c.12,13.62.33,27.68,5.82,40.15l2.62,6.68c3.36-.45,6.75.4,10.12.81a38.88,38.88,0,0,0,28.5-8.07ZM344.11,1267.31a75.13,75.13,0,0,0,17.22-.13,9.28,9.28,0,0,0,4.36-1.36,3.44,3.44,0,0,0,1.36-4c10.82,2.83,19.86,10.68,25.89,20.1s9.31,20.35,11.52,31.31c.84,4.17,1.54,8.41,3.24,12.31,2.48,5.68,6.88,10.25,11.2,14.69l10.57,9.43c2.32,2.51,5.84,3.61,9.26,3.8s6.82-.4,10.23-.73c14.37-1.42,28.74,1.74,43.07,3.56l-.17-1.45.64-30.59-.13-.61a81.5,81.5,0,0,1-19.88-36c-3-11.7-3.29-23.9-5.63-35.74A106.6,106.6,0,0,0,450,1212l-3-9q-41.6-36.83-80.69-76.35c-17.5-17.68-34.59-35.74-51.76-53.74-5.81-6.08-11.64-12.17-18.29-17.32-10-7.74-22-13.57-28.85-24.2a68.91,68.91,0,0,0,21.36-19.82l5.07-5.52c2.29-6,4.5-11.94,6.71-17.93l18.15-49.15c12.2,11.29,16.47,28.45,23.2,43.65,9.86,22.29,25.7,41.3,41.34,60,10.64,12.71,21.32,25.47,33.63,36.58s26.38,20.58,42.14,25.71l6.58,2.75c6.55,4.79,12.22,10.67,17.85,16.51a54,54,0,0,1,6.78,8c1.73,2.7,3,5.74,5.27,8s5.5,3.59,7.85,5.86c5.64,5.47,4.87,14.51,4.42,22.35a127.51,127.51,0,0,0,15.16,67.82l3.7,6.84c.32,3.71-.33,7.43-.81,11.12-1.31,10-1.43,20.1-1.56,30.17l-3.52,7.33c-.81,1.89-3.26,2.45-4.54,4.06a7.75,7.75,0,0,0-1.17,2.46c-3,9.12-4.39,19.37-11.16,26.16l0,.23q1.33,15.93,1.33,31.93l.29-.24a15.32,15.32,0,0,0,5.87-3.17,154.1,154.1,0,0,1-12.42,79l4.54,12c3,9.48,8.71,17.88,14.77,25.78A259.41,259.41,0,0,0,550.69,1505l6,5a87.11,87.11,0,0,1,11.83,8.54l.2,0A19,19,0,0,0,578,1506c1.08-5,.08-10.17.32-15.26.2-4.58,1.53-9.3,4.72-12.59s8.54-4.72,12.54-2.48a7,7,0,0,1,5.18-4.37c2.44-.45,4.9.43,7.34.86s5.34.22,6.84-1.76l-.22-4.44a6.9,6.9,0,0,1,6.55,3.45c1.75-2.57,4.34-4.42,6.88-6.21l3.26-2.3c2.1-1.48,4.33-3,6.89-3.31a9.64,9.64,0,0,1-5.58-9.87c-7.13.48-12.87-5.8-16.25-12.1a60.14,60.14,0,0,1-6.44-19.49c-1.45-9.86-.62-20.61-6-29-2.12-3.26-5-5.9-7.44-9s-4.28-6.86-3.74-10.71l1.95-3.08c1.39-1.67,3.66-2.25,5.79-2.69,3.89-.79,8-1.37,11.76-.15s7,4.8,6.69,8.74c6.18,1.09,12.26-1.87,18.42-3.06,8.27-1.59,17.49-.14,24.59-4.68,3.77-2.41,6.38-6.22,8.9-9.92l8.12-12,.56-8.34c-12.55-23.72-18.34-50.37-28.55-75.18-5-12-11-23.69-14.92-36.12-5.46-17.22-6.77-35.52-12-52.81a122.1,122.1,0,0,0-42.59-61.35c-4.78-3.64-9.93-7-13.37-12-5-7.17-5.6-16.42-6-25.16a2.37,2.37,0,0,1,.46-1.92,2.42,2.42,0,0,1,2.16-.28l22.78,4.32,10.25.34a38,38,0,0,1,19.45,1.39A27.39,27.39,0,0,1,632.08,1086c1.61,3,2.58,6.27,4.38,9.12s4.8,5.32,8.18,5.15,6.19-3,7.92-6a26.27,26.27,0,0,0,1.9-21.93c-1.93-5.26-5.64-10.49-4.28-15.93,1.27-5.05,6.37-8,10.18-11.51a20.66,20.66,0,0,0,6.36-10.68,13.8,13.8,0,0,0-2.84-11.84l.8-1.09c3-1.4,6.36-3.16,7.43-6.34.89-2.62,0-5.47-.23-8.23a32.84,32.84,0,0,1,1-9.13l3.2-15.48a30.13,30.13,0,0,1,2.49-8.14,10.19,10.19,0,0,1,6.3-5.39c2.77-.66,6.07.59,7.16,3.22l4.46,3.14c4.26-5.43,11.78-6.84,18.61-7.78,8.43-1.17,17.15-2.2,25.32.19,4,1.15,8,3.12,12,2.25a9.26,9.26,0,0,0,7-9.8l.53-6a56.86,56.86,0,0,0-1-18.35c-1.13-5.24-3.54-10.89-8.54-12.83a9.85,9.85,0,0,0-11.91,4.53c-3.92-3.86-4.54-9.83-5.71-15.21-1.79-8.23-5.3-16-8.79-23.62a73.87,73.87,0,0,0-5.85-11.1c-2.47-3.63-5.56-6.78-8.35-10.17-3.18-3.83-6.07-8.06-10.23-10.8s-10.11-3.56-13.93-.36c-1.24,1-2.22,2.48-3.72,3.11a4.29,4.29,0,0,1-5.48-2.46l-3.12-5.37c-1.12-11.38-2.24-22.8-5-33.9-2-8.29-4.93-17-2.11-25.1a3.58,3.58,0,0,1,1.42-2.09c1.53-.88,3.33.5,4.56,1.78q12,12.42,24.66,24.15c4.09,3.78,8.3,7.55,13.24,10.12,4.56,2.36,9.59,3.62,14.59,4.75,25,5.65,51.56,8.31,76.07.77,23.6-7.27,43.32-19.31,62.39-35l2.67-9.37a23.28,23.28,0,0,0,1.76-10.65c-.16-2.19-.56-4.62.75-6.38a7.68,7.68,0,0,1,2-1.71l9.62-6.3-.37-1.09c-1.83-4.12-5.55-7-8.8-10.14a20.54,20.54,0,0,1-3.67-4.39,39.73,39.73,0,0,0-2.49-4.59c-2.38-3.1-6.64-3.91-10.52-4.4l-.11-.85a19.08,19.08,0,0,0-10.35-14.14L839.62,718a229.9,229.9,0,0,1-24.93-17.31c-3.76-3-7.66-6.22-12.4-7-3.38-.57-6.83.17-10.15,1l-8.42,1.53c-3,.33-5.64,1.91-8.37,3.16s-5.87,2.16-8.67,1.1a11.79,11.79,0,0,0-3.27-1.18c-1.73-.1-3.18,1.2-4.47,2.36-10.24,9.2-23.48,14.18-36.39,19a13.53,13.53,0,0,0,5.34-8,51.26,51.26,0,0,0-12.92-.17l-.31,0c-1.93-2.39-5.54-2.56-8.54-1.89s-5.93,2-9,1.79c-1.75-.1-3.45-.69-5.2-.8-4.51-.27-8.53,2.64-12,5.54l-.16.17c-2.9-2.78-7.08-3.8-11.09-4.07s-8.06.08-12-.47c-4.27-.59-8.61-2.21-12.78-1.1-3.37.89-6,3.42-8.68,5.65a26.1,26.1,0,0,1-6.58,4.25c-3.93,1.63-8.64,1.8-11.75,4.72l-.17-.12a102.08,102.08,0,0,0,14.25-50.39c0-2.7,0-5.41.21-8.1a47.2,47.2,0,0,1,1.53-8.15,70.5,70.5,0,0,1,2.82-8.26l-7.38,6a54.59,54.59,0,0,0-4.07-15.9,8.41,8.41,0,0,1-3,3.92,22.82,22.82,0,0,0-5-17.31c.41,3.51.53,7.73-2.31,9.83a73.58,73.58,0,0,0-5.52-15.5,10.54,10.54,0,0,1-2.91,8.06,31.06,31.06,0,0,0-5.46-12.31c-2.94,5.42-1.29,12.79-5.24,17.52a94.41,94.41,0,0,1-2.77-15.3,11.49,11.49,0,0,0-1.19-4.9c-.89-1.45-2.79-2.45-4.32-1.73-2.26,1.06-2.24,4.82-4.58,5.69-1.7.62-3.47-.73-4.59-2.15l-4.44-5.12c-5.83-3.28-11.77-6.59-18.29-8.06s-13.84-.87-19.18,3.17-7.87,12-4.5,17.79c2,3.46,6,6.52,5.16,10.44a7.54,7.54,0,0,1-3.82,4.59c-5.11,3-11.47,3.11-17.34,2.13s-11.57-2.87-17.48-3.48c-18.25-1.86-35.85,9.16-47,23.69-3.59,4.66-6.76,9.78-11.36,13.46s-11.18,5.65-16.43,3c-4.57-2.31-6.92-7.33-9.32-11.84a97,97,0,0,0-26.71-31.43c-3.61-2.76-7.6-5.33-12.11-5.88-5.39-.65-10.68,1.67-15.38,4.4-15.62,9.06-28.92,25.45-27.27,43.44l-2.31,8.46-4,25.5c-1.22,7.86-2.45,15.83-1.48,23.73s4.47,15.82,11,20.4c-18,8.82-36.6,18-49.74,33.22-9.66,11.16-15.91,25-26.19,35.61-16.45,16.93-42.65,25-52.36,46.51l-3.58,8L197.28,893c-5.09-6.87-6.77-15.61-10-23.52s-9.38-15.81-17.9-16.55c-7.84-.67-15,5.24-18.38,12.37s-3.59,15.24-3.73,23.11c-.39,22.53-.15,45.23,4.31,67.32,3.88,19.25,10.9,37.7,17.88,56,6.18,16.23,12.38,32.51,20.48,47.87,8.79,16.64,19.72,32,29.47,48.13,16.06,26.52,28.88,54.87,44.36,81.74s34,52.65,59,71Zm256.24,305.12a49.5,49.5,0,0,1,25.55-5.57c4.62.24,9.39,1.13,13.78-.35a25.23,25.23,0,0,0-18.3-13.08c-5.15-.77-10.38.09-15.57.54a198.07,198.07,0,0,1-22.2.26l1,1.42,2.47,4a23.06,23.06,0,0,0,2,3,23.92,23.92,0,0,0,3.54,3.2l4.66,3.67Z"></path>
    <path data-name="1a" data-official="" data-plain="Pistil and Ovary" data-loc="" d="M298.76,2842l12.66,25.23c1.32,2.62,2.68,5.51,2,8.38-.69,3-3.44,5.14-6.08,6.8a82.79,82.79,0,0,1-45,12.54c-9.07-.16-19.19-2.51-24-10.2-6.42-10.26-.12-23.33,1.73-35.29,2.53-16.37-3.78-32.6-8.36-48.52-20-69.66-7.35-144.17,8.16-215,2.77-12.64,5.63-25.75,2.87-38.39s-12.9-24.68-25.83-25.14c-19.07-.67-29.51,20.94-41.36,35.89-17.32,21.83-46.38,33.15-74.14,30.72s-53.73-17.89-70.73-40c-4.43-5.75-8.48-12.89-6.68-19.92,2.05-8,10.94-12.39,19.17-13.19s16.56.9,24.78,0c12.47-1.42,23.36-8.67,34.19-15a278,278,0,0,1,126-37.51c-14.47-23.89-32.28-45.61-47.07-69.32s-26.69-50.2-27.43-78.13c-.16-5.9.21-12,2.49-17.41,4.71-11.25,16.76-18.26,21-29.69,1.7-4.54,2.06-9.56,4.23-13.91a22.66,22.66,0,0,1,11.48-10.23c12.91-5.54,28.38-.88,39.28,8s18.18,21.31,25.22,33.47l28.08,48.49c8.89,15.35,17.86,30.87,23.1,47.81,7,22.64,7.09,46.77,7.1,70.47l-.08,4.59a90.46,90.46,0,0,1,55.17,7.84c14.68,7.21,27.59,18.49,43.5,22.29,18.85,4.51,38.29-2.26,57.3-6s41.61-3.32,54.22,11.4c9.33,10.89,10.33,27.25,5.22,40.65s-15.46,24.2-26.84,32.93c-12.58,9.66-27.46,17.48-43.33,17.55-19.12.08-36.41-10.93-51.46-22.71s-29.7-25.07-47.89-30.94-41.43-1.73-50.76,15c-3,5.31-4.29,11.41-4.83,17.47-1.55,17.44,3,34.77,5.21,52.14,1.76,13.71,2.11,27.56,2.45,41.38,1.08,43.78,2.1,88.18-8.41,130.68-3.78,15.27-9.07,30.5-8.68,46.22Z"></path>
    <path data-name="1b" data-official="" data-plain="Stamen and Pistil" data-loc="" d="M398.18,2562.15c-5.9,1.1-8.07,8.27-12.24,12.58a2.76,2.76,0,0,1-1.7,1,3,3,0,0,1-2-.87c-3.44-2.74-6.54-5.95-10.36-8.14s-8.66-3.21-12.6-1.25c-2.58,1.28-4.42,3.65-6.17,5.94-4.93,6.48-9.92,13-13.15,20.5-2.91,6.74-4.31,14-5.13,21.32a141.88,141.88,0,0,0,3.23,49.4c1.67,6.78,3.85,13.51,4.19,20.49.37,7.91-1.65,15.71-2.81,23.55-1.7,11.58-1.52,23.35-1.34,35.06.28,17.79,1.08,37.07,12.33,50.86l3,6.79,2.37,60.11c.29,7.26.57,14.57-.39,21.78-1.28,9.61-4.69,19.74-.84,28.64,3.08,7.12,10.37,11.72,17.92,13.49s15.44,1.13,23.16.37c9.73-1,21.15-3.29,25.08-12.25,2.22-5.06,1.31-10.86.84-16.36-1.28-15.33,1.32-30.7,3.91-45.86l8-47.23c1.89-11.07,3.8-22.22,7.7-32.76,3.09-8.37,7.39-16.25,10.79-24.5a122.81,122.81,0,0,0,1.2-89.39c-2.49-6.56-5.6-13.09-5.93-20.1-.27-5.68,1.31-11.27,2-16.91a57,57,0,0,0-3.52-28.19l-3-9.12c-12.1-4.07-23.3-11.68-33.48-19.65Z"></path>
    <path data-name="1c" data-official="" data-plain="Section of Ovary" data-loc="" d="M457.27,2828.57c1.3-5.42-1.66-10.92-5.08-15.32s-7.51-8.54-9.09-13.88c-2-6.71.45-14,4.28-19.86,2.12-3.25,4.73-6.36,5.5-10.16.49-2.45.17-5,.66-7.47.87-4.44,4.34-8,8.34-10.16s8.53-3,13-3.83a80.82,80.82,0,0,1,15.7-1.8c7.1.11,15.06,2.77,17.85,9.3,1.64,3.84,1.16,8.3,2.6,12.21,2.45,6.64,10,10.63,11.67,17.49,1.27,5-1,10.31-3.73,14.73s-6.09,8.65-7.35,13.7c-2.53,10.09,3.85,20.52,2.61,30.85-1.16,9.59-9,17.42-17.92,21s-19,3.62-28.58,2.79c-3.57-.31-7.29-.79-10.22-2.85-4-2.79-5.63-8-5.39-12.85s2.09-9.44,3.91-13.93Z"></path>
    <path data-name="1d" data-official="" data-plain="Capsule" data-loc="" d="M537.65,2787.71C514.13,2748.27,507,2701,507.2,2655.1c.11-20.73,1.86-42.25,12-60.33,6.65-11.84,16.88-22.27,19-35.67,1.75-11.11-1.69-24.64,6.71-32.11,8.21-7.31,21.88-2.25,28.75,6.33s9.75,19.69,15.72,28.93a4.3,4.3,0,0,0,2,1.92,4.11,4.11,0,0,0,3.08-.56,25.65,25.65,0,0,0,13.84-20.19c.58-6.27-.77-13.73,4-17.89,3.34-3,8.6-2.73,12.56-.68s6.91,5.56,9.76,9l24.53,29.53a87.88,87.88,0,0,1,24.84-28.27c6.71-4.93,14.83-9,23.06-7.76s15.53,10.08,12.49,17.84c-1.77,4.53-6.57,8.12-6.1,13,.28,2.92,2.47,5.25,4.45,7.42a96.94,96.94,0,0,1,21.76,39.67c4,14.78,4.44,30.27,4.85,45.58.57,21.5,1.15,43-.27,64.49-1,15-3,30.16-9.08,43.91-4.65,10.52-11.52,19.88-18.33,29.14-7.86,10.69-15.82,21.49-26,30-13,10.82-29.1,17.3-43.11,26.82-1.77,1.2-3.61,2.59-4.26,4.62s.06,4.28.78,6.33l11.38,32.5c2.8,8,5.6,16.84,2.52,24.73s-11.35,12.61-19.5,15c-15,4.48-31.07,3.38-46.7,2.24-2.1-.15-4.31-.34-6.06-1.53-5.17-3.54-2.12-11.49.75-17.07a79.38,79.38,0,0,0,7-52.61c-1-4.63-2.48-9.28-5.38-13-3.69-4.75-9.26-7.55-14.35-10.75a87.5,87.5,0,0,1-33.65-39.49Z"></path>
    <path data-name="2" data-official="Iris germanica" data-plain="German Iris" data-loc="Germany" d="M1799.62,1555.61a1011.73,1011.73,0,0,1-62.54,91.63,214.23,214.23,0,0,1-15.53,18.62c-7,7.28-14.93,13.65-22.76,20.05q-31.3,25.6-61.48,52.55a158.05,158.05,0,0,0-16.25,16.07c-13.8,16.53-21.44,38.78-39.42,50.63l-5.59,6.94c-4.32,2.7-6.8,7.46-9.92,11.48-4.05,5.22-9.34,9.32-13.72,14.26-8.38,9.42-13.09,21.45-17.65,33.2-2.57,6.64-5.14,14.13-2.33,20.67l-.54.1a6.26,6.26,0,0,0-2.88,6l-1.66.61c-7.64-24.13-5.46-50.21-9.85-75.13l-.55-4.59c-8.32,3.22-12.87,12-16.7,20-6,12.62-12.15,26.48-9,40.08l1.74,7.64a240,240,0,0,0,27.87,79.56l-.22,2.3a287.11,287.11,0,0,1-13.42,43.19l-7,8.94a26.93,26.93,0,0,1-7.56,5.34,46.64,46.64,0,0,0-5.37,2.6c-7.34,4.75-8.22,16-15.64,20.65l2.26,6.8a29.56,29.56,0,0,1,2.55,7.9l-.27,6.6c-16,46.19-54.57,82.48-67.53,129.61-2.15,7.84-3.56,15.86-5.62,23.72a148.26,148.26,0,0,1-22.72,48.53l-5.95,7.46c-2.76,6.69-10.39,9.71-15.64,14.69-4,3.75-6.59,8.67-9,13.56a324.31,324.31,0,0,0-32.15,111l0,1.72c.27,3,2.14,5.59,3.42,8.32,1.86,4,2.51,8.36,3.14,12.69L1327,2461l-1.32,12.53c1.38,4.32-3.09,8-5.22,12-1.48,2.81-1.83,6.07-2.14,9.24q-5.43,55.35-8.56,110.9a11.47,11.47,0,0,0,.16,3.51c.44,1.77,1.68,3.21,2.76,4.68a35.11,35.11,0,0,1,6.13,27.54l.78,16.48a590.29,590.29,0,0,1,.31,69c-.58,10.6-1.55,21.56-6.73,30.82a37.94,37.94,0,0,1-34.62,18.91c-17.3-1-32.72-14-50-12.79-11.59.83-23,8-34.13,4.57a11.73,11.73,0,0,1-6.34-4.32,15.08,15.08,0,0,1-2-6.43c-3.43-24.93,7.4-49.27,14.67-73.36.81-2.66,1.51-5.75-.07-8-3-4.37-10.21-1.12-15.06-3.3-3.4-1.53-5-5.55-5.14-9.27s.93-7.38,1.29-11.09c1.43-14.38-7.16-27.54-12.71-40.88-1.31-3.15-2.48-6.52-2-9.9.83-6.39,6.85-10.55,11.84-14.64a70.66,70.66,0,0,0,16.22-19l3-3.95c2.63-4.1,6.54-7.21,9.62-11,5.57-6.81,8.24-15.47,10.78-23.9l5.16-8.1a232,232,0,0,0,40.71-81.38l-.49-1.27a111.34,111.34,0,0,0-8.89-16.7,44.94,44.94,0,0,1-4.76-8.39,36.71,36.71,0,0,1-1.7-8.14l-4.73-36-1.7-8a199.19,199.19,0,0,1,.65-25.27l-.42-5,1-3.33,5-5.56c-4.55-42.58,7.13-85.39,5.12-128.16l.92-1.93,19.58-17.33c6.51-5.77,13.18-11.72,17.15-19.46,3.61-7,4.74-15,6.19-22.78,2.68-14.26,6.63-28.26,10.57-42.23,1.93-6.85,3.88-13.75,7.15-20.07,4.14-8,10.24-14.78,15.81-21.87s10.75-14.83,12.55-23.66-.45-19-7.59-24.5a37.82,37.82,0,0,1-28.2,43c14.83-34,12.67-73,4.76-109.22-1.4-6.42-3-12.88-5.93-18.75-2.67-5.3-6.39-10-10-14.68q-11.64-15.24-21.81-31.5a40.72,40.72,0,0,1-5-10.15c-1.61-5.71-.76-11.78.1-17.65l4.38-29.85.41-13.08a602.56,602.56,0,0,1,16.39-88.36c4.89-18.61,10.64-37,16.39-55.33,5.3-17,10.6-33.89,16.62-50.59,9.32-25.88,20.33-51.1,31.33-76.31l59.22-135.68,1.6-8.34c1.18-3.92,2.14-8,1.58-12.08s-2.94-8.08-6.74-9.59c-4.32-1.71-9.27.15-13.07,2.83s-7,6.18-11.13,8.35c-5.66,3-12.46,3.21-18.22,6.05-6.63,3.26-11.21,9.68-17.57,13.45-14.73,8.72-33.92,1.11-50.46,5.52-6.57,1.75-12.5,5.36-19,7.4-9.66,3-20,2.51-30.14,1.94-10.5-.59-21.19-1.22-31.06-4.88-9-3.36-17-9.13-24.71-14.9-9.44-7-19.09-14.55-24.41-25.05-1.88-3.69-3.18-7.89-2.42-12,1-5.41,5.51-9.58,10.4-12.11s10.33-3.82,15.4-6a9.92,9.92,0,0,0,3.58-2.24,7.13,7.13,0,0,0,1.66-4.25c.45-5.89-4.32-11-9.68-13.51s-11.36-3.06-17-4.7a47.25,47.25,0,0,1-28.29-23.05l-5.28-7.94a47.78,47.78,0,0,1-2.48-42.71,3.58,3.58,0,0,0-.16-4.37c-3.3-5.53-5-12.71-1.9-18.34a40.81,40.81,0,0,0,2.32-4c2-5-1.49-10.42-1.32-15.76.16-4.8,3.27-9,6.78-12.29s7.56-6,10.56-9.76a47.06,47.06,0,0,0,4.72-7.83c3.06-5.91,6.12-11.89,10.31-17.07,5-6.12,11.31-10.91,17.61-15.64l3.34-1.72q8.48-4.68,16.71-9.78c3.19-2,6.44-4.07,8.49-7.21l8.08-6.86a76.15,76.15,0,0,1,29.22-19.16c3.08-1.11,6.29-2.06,8.89-4.06,4.46-3.44,6.22-9.23,8.1-14.55,6.5-18.31,17.69-35.25,33.36-46.73a133.8,133.8,0,0,1,19.14-11.24,367.59,367.59,0,0,1,40.26-17.29c-4.52-8.6-9.16-18.43-6.1-27.66.78-2.34,2-4.51,2.64-6.9,1.78-6.87-2-14.05-1.2-21.11l-1.05-9a58.43,58.43,0,0,1,6.88-35c2-3.62,4.44-7.09,5.55-11.08.74-2.68.86-5.48,1.37-8.22,1.58-8.41,6.73-15.68,12.17-22.3,5.28-6.43,11-12.61,18.1-17,10.12-6.33,22.52-8.79,31.72-16.41,5.27-4.37,9.13-10.16,12.92-15.87L1464,770.52c3.1-4.67,6.24-9.39,10.4-13.15,5-4.51,11.17-7.41,17.26-10.25,13.79-6.42,27.66-12.88,42.35-16.84l7.67,1.6A14.81,14.81,0,0,1,1556,733c3.77,2.53,6.61,6.92,11.1,7.58,3.53.52,6.89-1.5,10.4-2.21,4.1-.84,8.35.13,12.37,1.3,3.79,1.11,8,2.36,11.51.51,3.95-2.11,5.06-7.22,5.25-11.7a4.38,4.38,0,0,1,.35-1.84,4.18,4.18,0,0,1,2.6-1.65c8.33-2.7,17.68-5.33,25.53-1.45,1.66.82,3.67,1.91,5.19.86a7.56,7.56,0,0,0,1.59-2.1c1.39-2,3.87-2.9,6.24-3.45,6.78-1.58,13.93-1.24,20.6-3.24s13.16-7.54,12.87-14.49l-2.06-8.13c-2.1-28.77-4.15-58.09,2.57-86.14,3.55-14.82,9.49-29,15.75-42.86,18.15-40.26,39.54-79.52,68.6-112.78s66.36-60.36,109-72a503.56,503.56,0,0,1-26.7,145.12c-6.65,19.47-14.51,38.58-19.39,58.57-5.89,24.11-7.34,49.06-8.68,73.84q-4.37,80.82-7.55,161.68c-.15,3.78-.26,7.73,1.33,11.16a24,24,0,0,0,5.17,6.55l26.29,26.33A325.58,325.58,0,0,0,1887,682.16a71.85,71.85,0,0,1,44.65,14.67l3.32,12.59c14.24,33.63,16.81,70.87,19.21,107.32,5.39,82.18,10.53,166.6-14.24,245.15-13.46,42.7-35.37,82.19-57.76,121L1879,1191a163.14,163.14,0,0,1,25.11-12c2.75-1,5.77-2,8.56-1.09,4.58,1.48,6.24,7,7,11.76,9.27,56.51-9.69,113.41-28.39,167.54-16.77,48.57-33.69,97.46-59.16,142.09-8.41,14.74-17.74,29-25,44.33Z"></path>
    <path data-name="2a" data-official="" data-plain="Stamen" data-loc="" d="M1187.07,2709.93q0-15.3-.93-30.6l-.57-6.33c-3.4-1.53-5-5.55-5.14-9.27s.93-7.38,1.29-11.09c1.43-14.38-7.16-27.54-12.71-40.88-1.31-3.15-2.48-6.52-2-9.9l-3.28-9.75a35.59,35.59,0,0,0-10-8.34,11.32,11.32,0,0,0-6.53-1.85c-3.6.35-6.36,3.62-7.3,7.11s-.45,7.18,0,10.76c6.06,44.92,10,91.67-4.32,134.68-4.37,13.15-10.48,27-6.8,40.33.83,3,2.16,5.94,2.68,9,.86,5.16-.58,10.39-1.83,15.47a227.57,227.57,0,0,0-6.24,67.55c.25,4.44.6,9.1-1.33,13.1-1.49,3.1-4.18,5.44-6.22,8.21-6.59,9-5.67,21.19-4.46,32.25.31,2.87.73,6,2.75,8,2.32,2.38,6,2.63,9.33,2.72q23.89.66,47.8.31a14.5,14.5,0,0,0,4.41-.53c2.64-.89,4.55-3.23,5.86-5.69a24.45,24.45,0,0,0-4.81-28.56c-3.08-2.85-6.92-4.9-9.57-8.16-5.35-6.59-4.44-16.08-3.26-24.49l7.18-50.85c2-14.34,4.19-29.11,11.53-41.6l3.43-13.91c-1.34-9.7-.51-19.32,1.43-28.87Z"></path>
    <path data-name="2b" data-official="" data-plain="Section of Ovary" data-loc="" d="M1258.41,2886.2a22.83,22.83,0,0,0-5.34-21.15c-5.61-6-14.19-8.57-19.42-14.86-4.13-5-5.64-11.72-5.21-18.16a37.72,37.72,0,0,1,12.6-25.16,44.4,44.4,0,0,1,26.19-10.83c6.25-.46,12.55.29,18.81-.12,6.91-.46,13.68-2.34,20.61-2.6,9.18-.34,18.25,2.18,26.78,5.6,7,2.82,14.1,6.47,18.59,12.59,5.64,7.69,6.27,17.89,6,27.42-.21,7.16-1,14.88-5.83,20.2-2.79,3.1-6.62,5-9.68,7.86-7.3,6.72-9.24,17.5-9,27.42s2.21,19.86,1,29.71a15.44,15.44,0,0,1-2,6.66c-2.27,3.47-6.5,5-10.49,6.12a116.13,116.13,0,0,1-52.07,2.28,8.38,8.38,0,0,1-3.7-1.34c-2.19-1.72-2.21-5-2-7.75.78-12.82,1.09-26.07-3.54-38.05Z"></path>
    <path data-name="3" data-official="Tigridia pavonia" data-plain="Tiger Flower" data-loc="Mexico" d="M764.89,2343.65c7.61-.36,14.52,4.14,20.66,8.66A352.75,352.75,0,0,1,850,2413.69l-1.22,11.49a108.77,108.77,0,0,0-2.81,22.15l-.72,7.24c.64,4.45-2.64,8.47-6.06,11.39s-7.38,5.65-8.94,9.87a21.09,21.09,0,0,0-.89,7.26l-.25,33.07a24.89,24.89,0,0,0,.84,8.12c1.93,5.8,7.72,9.35,11.07,14.47l6.09,4.32c2.21,11.61,2.79,23.45,3.37,35.26l3.66,75.37c.43,8.84.33,19-6.37,24.78-3.85,3.32-9.3,4.53-12.72,8.3-6.49,7.17-2.29,18.9-5.81,27.9-3.67,9.39-14.67,13.5-24.65,15-4.21.62-8.55,1-12.69-.06s-8.07-3.59-9.83-7.46c-2.43-5.37-1.21-13.35-6.62-15.67-2.4-1-5.16-.32-7.75-.61-4.68-.51-8.48-4.31-10.36-8.63s-2.18-9.14-2.45-13.84q-4.62-81.8-4.47-163.77l.29-5.77v-9.31l3.65-4.88a126.41,126.41,0,0,1,1.2-25.79,35.73,35.73,0,0,0,.52-4.61,16.07,16.07,0,0,0-3.42-10.21l-2.12-6.4a573,573,0,0,1,3.18-101.09Zm8.56-67.35a98.56,98.56,0,0,0,2,17.95l1.34,5.24a213,213,0,0,1,45.82,31.64,162.65,162.65,0,0,0-47.76-62.61Zm9.69-32.61,44.4,53.35a320.54,320.54,0,0,0-40.06-73.17c-1-1.33-2.66-2.8-4-1.88a3.18,3.18,0,0,0-1.06,1.85,31.7,31.7,0,0,0-.93,12.22Zm99,10.32a214.45,214.45,0,0,1,19.9-69.37l1-3.42-8-23.12c-7.38-21.35-14.77-42.71-21.34-64.33l-.44-1.61-.51-.37a93.28,93.28,0,0,0-13.45-16,68.63,68.63,0,0,1-7.19-7.28c-3.22-4.15-5.2-9.4-9.37-12.6l-3.25,6.89-4.73,12.94.55,7.85-15,42-3,5.78-6,10.6-3.07,5.67-2.88,20,1.35,4.52q27.38,61.72,59.91,121l3.36-.38,6.13-4.82a10.1,10.1,0,0,0,2.17-2.11,9.6,9.6,0,0,0,1.14-2.81l2.41-8.31Zm42.68-492.8a121.74,121.74,0,0,0-2.84,22.26l-.73,3.32a30.58,30.58,0,0,0,2.5,11.66,56,56,0,0,0,7.89,12.18,315.71,315.71,0,0,0,52.31,52.12c5.29,4.17,10.77,8.21,15.12,13.36l3.72-.77a69.43,69.43,0,0,0,3.9-17.73l1.23-4c2.6-7.79.61-16.52-3.39-23.7s-9.82-13.13-15.44-19.12c-10.51-11.21-20.6-23-28-36.44s-12.1-28.76-11.07-44.09c.37-5.6,1.5-11.17,1.14-16.77s-2.51-11.47-7.2-14.55c-7.94,5.49-11.09,15.71-12.12,25.31s-.52,19.5-3.47,28.69Zm211.63-462.54c-4.17-1.05-8.57.73-12,3.31-11.13,8.4-14,23.7-21.73,35.32-3.24,4.87-7.37,9.15-10.17,14.29-4.42,8.14-5.21,18-10.23,25.79-2.33,3.61-5.46,6.61-8.54,9.6-7.45,7.22-14.86,14.65-20.19,23.54s-8.44,19.52-6.56,29.71l-.22.76c10.85-6.45,17.92-17.64,27.53-25.83,4.91-4.18,10.9-8.2,12.15-14.53a15.29,15.29,0,0,0,14.79,5.27l1.55-4c11.17-23.94,22-48,32.82-72.16,3.74-8.32,7.56-17.09,6.84-26.18Zm-108.26,18.24a255.31,255.31,0,0,0,4.77,35.15,52.86,52.86,0,0,1,24.1-38.82,4.71,4.71,0,0,0,1.82-1.63,4.85,4.85,0,0,0,.37-2.07c.32-6.1,3.13-11.86,6.9-16.66s8.48-8.78,13.14-12.72a48.88,48.88,0,0,1-37.64-6.5c-.64,10.67-1.56,22.1-8.26,30.42-2.71,3.35-6.53,7.23-4.89,11.22Zm643.88-671.82c-2.7-8.55-5.62-17.48-12.07-23.7-7.64-7.38-19.26-9.94-26-18.16l-8-6.23c-9.27-15.83-12.26-34.47-19.14-51.47a119.78,119.78,0,0,0-33.78-46.47c-4.62-3.87-9.71-7.62-12.27-13.08-1.91-4.1-2.19-8.75-2.33-13.27-.43-14.32.21-28.75,3.21-42.76,6.62-30.92,24.24-58.13,38.83-86.18s26.62-59.65,20.75-90.72c-.86-4.56-2.66-9.69-7-11.25-2.92-1-6.14-.14-9.07.87-39.08,13.45-69.71,43.61-98.91,72.85l-9.33,3.6,29.39-66.51c13.92-31.51,28.13-64.36,27.06-98.8-.31-10-2.71-21.26-11.21-26.58-10-6.23-23-1.28-33.11,4.76a175,175,0,0,0-46.42,40.47c-5.07,6.31-9.73,13-15.67,18.5-7,6.46-15.48,11-23.47,16.18a171.19,171.19,0,0,0-43.61,40.58c-8.17-24.78-19.36-49.49-38.67-67.05S1293,154.19,1269,164.41c-7.77,3.31-14.65,8.39-22,12.49-19,10.55-42.2,15.16-56.52,31.53a52,52,0,0,0-29.13-5.94c-1.67-15,4.91-29.77,14-41.79s20.55-21.93,30.77-33c16.75-18.11,30.58-41.06,29.65-65.71s-21.54-49.42-46.14-47.54a48.88,48.88,0,0,0-18,5.42C1150.24,30.55,1135.27,51.37,1128,74s-7.58,47-5.06,70.58l3.43,7.48c-5,7.61-4.75,17.42-7.13,26.22s-10.31,17.92-19.07,15.41c-8-2.28-10.44-12.06-15.44-18.65-12-15.83-37.94-11.08-53.28,1.56a77.72,77.72,0,0,0-27.66,52.61c-.81,9.32.07,18.89-2.52,27.88-5.11,17.75-23.3,32.81-19,50.76,1.12,4.67,3.73,9.75,1.35,13.92-1.31,2.28-3.8,3.56-6.21,4.62-29.39,13-65.57,10.95-90.31,31.46-11.63,9.64-19.72,23.64-33.05,30.73C821.2,406.06,777,372.89,745,392c-26.44,15.77-25.07,55.52-45.27,78.74-27,31-81,21.69-110.46,50.33-19.9,19.35-22.42,49.91-23.73,77.63l7.08,13.29,4.44,5.12c1.12,1.42,2.89,2.77,4.59,2.15,2.34-.87,2.32-4.63,4.58-5.69,1.53-.72,3.43.28,4.32,1.73a11.49,11.49,0,0,1,1.19,4.9,94.41,94.41,0,0,0,2.77,15.3c4-4.73,2.3-12.1,5.24-17.52a31.06,31.06,0,0,1,5.46,12.31,10.54,10.54,0,0,0,2.91-8.06,73.58,73.58,0,0,1,5.52,15.5c2.84-2.1,2.72-6.32,2.31-9.83a22.82,22.82,0,0,1,5,17.31,8.41,8.41,0,0,0,3-3.92,54.59,54.59,0,0,1,4.07,15.9l7.38-6a70.5,70.5,0,0,0-2.82,8.26,47.2,47.2,0,0,0-1.53,8.15c-.24,2.69-.17,5.4-.21,8.1A102.08,102.08,0,0,1,616.66,726l.17.12c3.11-2.92,7.82-3.09,11.75-4.72a26.1,26.1,0,0,0,6.58-4.25c2.67-2.23,5.31-4.76,8.68-5.65,4.17-1.11,8.51.51,12.78,1.1,4,.55,8,.2,12,.47s8.19,1.29,11.09,4.07l.16-.17c3.47-2.9,7.49-5.81,12-5.54,1.75.11,3.45.7,5.2.8,3.07.19,6-1.12,9-1.79s6.61-.5,8.54,1.89l.31,0a51.26,51.26,0,0,1,12.92.17,13.53,13.53,0,0,1-5.34,8c12.91-4.79,26.15-9.77,36.39-19,1.29-1.16,2.74-2.46,4.47-2.36a11.79,11.79,0,0,1,3.27,1.18c2.8,1.06,6,.14,8.67-1.1s5.39-2.83,8.37-3.16l8.42-1.53.06-5.47c4.37-5.34,5.84-12.54,5.77-19.44s-1.55-13.69-2.4-20.53a117.21,117.21,0,0,1,10.94-65.66c2.88-5.91,6.58-11.87,12.44-14.86,4.69-2.4,10.25-2.57,15.46-1.74,15.55,2.46,28.41,12.92,41.76,21.26a172.43,172.43,0,0,0,113.5,24.39l4.17,11q3.45,21.46,7.14,42.91c2.36,13.71,4.86,27.63,11.08,40.08,7.47,14.93,19.78,26.74,30.85,39.24s21.41,26.8,23.45,43.36l5.37,14.67a286.77,286.77,0,0,0-3.11,32.72,85.17,85.17,0,0,0,.93,19c1.6,8.39,5.32,16.19,7.89,24.33a90.9,90.9,0,0,1,3.49,38.29c-1.26,10.21-4.27,20.22-4.52,30.5-.45,17.77,7.32,35.24,5.26,52.89l3.95,7c3.8-4.26,7.88-8.72,13.35-10.38,5.08-1.55,10.62-.44,15.82-1.51a19.28,19.28,0,0,0,9.57-5.15l9-3.35c11.47,5.94,24.86,10.73,37.08,6.56,4-1.35,7.64-3.61,11.76-4.33,3.42-.59,6.93-.08,10.4-.31,8.07-.54,15.27-5,22.1-9.33a275.79,275.79,0,0,1-19.48,37.29c-2.09,3.36-4.29,6.73-5.47,10.51-2.35,7.5-.46,15.6-.8,23.45a41.33,41.33,0,0,1-5.27,18.43c-5.62,10-15.37,17.6-18.83,28.51-1.28,4-1.61,8.25-2.38,12.39-1.83,9.87-6.08,19.1-10.3,28.21-5.63,12.17-11.43,24.59-20.69,34.3s-22.81,16.37-36,14l.12,1.76a21.1,21.1,0,0,1-5.47,19,39.37,39.37,0,0,1,11,31.13c-.73,7.35-3.56,14.72-1.94,21.93l.4.86c6.67-6.1,13.66-12.71,15.92-21.47,1-4,1-8.14,1-12.25l-.33-32.5c3,8.27,9.61,14.56,16.06,20.52l1,1a13.52,13.52,0,0,1,1.63-6.1,40.81,40.81,0,0,0,2.32-4c2-5-1.49-10.42-1.32-15.76.16-4.8,3.27-9,6.78-12.29s7.56-6,10.56-9.76a47.06,47.06,0,0,0,4.72-7.83c3.06-5.91,6.12-11.89,10.31-17.07,5-6.12,11.31-10.91,17.61-15.64l3.34-1.72q8.48-4.68,16.71-9.78l4.94-9.74c24.49-30.38,37.71-68.07,57-102,2.66-4.67,5.45-9.31,7.12-14.4l9.36-11.08c4.94-5,8.44-11.24,11.85-17.4,46.07-83.27,87.06-169.37,136.41-250.73a2.36,2.36,0,0,1,3.59-1.28l62.5,25.26,12.2,2a181.42,181.42,0,0,1,23.29-8.24l7.67,1.6A14.81,14.81,0,0,1,1556,733c3.77,2.53,6.61,6.92,11.1,7.58,3.53.52,6.89-1.5,10.4-2.21,4.1-.84,8.35.13,12.37,1.3,3.79,1.11,8,2.36,11.51.51,3.95-2.11,5.06-7.22,5.25-11.7a4.38,4.38,0,0,1,.35-1.84,4.18,4.18,0,0,1,2.6-1.65c8.33-2.7,17.68-5.33,25.53-1.45,1.66.82,3.67,1.91,5.19.86a7.56,7.56,0,0,0,1.59-2.1c1.39-2,3.87-2.9,6.24-3.45,6.78-1.58,13.93-1.24,20.6-3.24s13.16-7.54,12.87-14.49l-2.06-8.13Z"></path>
    <path data-name="4" data-official="Sparaxis tricolor" data-plain="" data-loc="Cape of Good Hope" d="M752.63,2459a16.07,16.07,0,0,1,3.42,10.21,35.73,35.73,0,0,1-.52,4.61,126.41,126.41,0,0,0-1.2,25.79l-3.65,4.88-8.2-.48-18.33-1.77a57.6,57.6,0,0,1-10.63-1.71c-8.8-2.59-15.76-9.19-22.16-15.77q-4.71-4.85-9.28-9.83c-3.42-3.73-6.83-7.59-8.91-12.2-1.19-2.65-1.68-6.29.65-8a6.82,6.82,0,0,1,2.48-1c11.41-2.73,23.3.33,35,.8a155.16,155.16,0,0,0,16-.44l18.26-1.13,4.94-.34Zm260.81,219.75c-7.69,8.59-20,13.52-24.18,24.25-3.12,7.93-.89,16.83-1,25.36-.06,3.55-.61,7.24-2.66,10.15-2.46,3.48-6.65,5.25-10.7,6.56-10,3.24-22.93,3.81-28.77-4.87-4.26-6.33-2.71-14.71-1.75-22.27,5.19-41-12.29-81.49-32.87-117.38-6.33-11-13.13-22.05-22.65-30.49-10.35-9.17-23.29-14.77-36-20.22l-5.73-6.81-6.09-4.32c-3.35-5.12-9.14-8.67-11.07-14.47a24.89,24.89,0,0,1-.84-8.12q.12-16.54.25-33.07a21.09,21.09,0,0,1,.89-7.26c1.56-4.22,5.52-7,8.94-9.87s6.7-6.94,6.06-11.39l6.41,6.15a129.14,129.14,0,0,1,14.85,11.3c9.95,8.76,19.2,19.42,32,23-16.64-21.39-30.72-44.63-44.75-67.82l-5-2,1.22-11.49a352.75,352.75,0,0,0-64.42-61.38c-6.14-4.52-13-9-20.66-8.66l-11.2,7.9-11-4.72-57.39-29.51c-16.68-8.58-33.48-17.23-48.19-28.85a237.53,237.53,0,0,1-23.72-22.14c-50.46-52.4-92-112.84-127.87-176.14-18.41-32.49-35.87-68.35-31.67-105.45l-3.28-9.12c-14.68-5.58-30-11.61-40.21-23.55-6.35-7.43-10.24-16.67-12.94-26.07-5.81-20.19-6.43-42.16.25-62.08,4-11.85,10.4-22.77,14.06-34.71-12.38.59-24.59,3.16-36.94,4.24s-25.23.56-36.46-4.68-19.94-14.81-26.06-25.56-9.85-22.66-13.17-34.56l-.83-8.11a271.33,271.33,0,0,1,.18-39.3c.41-5.3,1.08-10.86,4.21-15.16,2.79-3.84,7.18-6.15,11.52-8.08a130.15,130.15,0,0,1,85.12-7,347.89,347.89,0,0,1-62.46-80.59c-6.18,19.52-22.55,34.59-41.06,43.36s-39.12,12-59.49,14.07a322.35,322.35,0,0,1-33,2c-12.31,0-26.21-1.83-33.58-11.68-5.17-6.92-5.79-16.1-6.22-24.72-.28-5.6-.52-11.41,1.64-16.59,1.7-4.08,4.77-7.44,8-10.49a104.76,104.76,0,0,1,21.74-16l1.69-4.47-2.26.51c-12.24,2.79-24.24,6.6-36.6,8.8s-25.3,2.72-37.27-1c-16.39-5.14-29.4-17.76-39.75-31.47a77.46,77.46,0,0,1-9.77-16c-5.48-12.84-5.24-27.76-.54-40.91,7.81-21.86,27.53-38.41,49.81-44.94,17.17-5,35.41-4.58,53.3-4.09l7.57,1.21a69.34,69.34,0,0,1-34.49-43.71c-2.1-8.28-2.64-16.87-3-25.4q-.76-18.22-.51-36.46c.08-5.53.42-11.57,4.12-15.67,5.34-5.92,14.65-4.94,22.6-4.33,22.31,1.71,45.33-3.28,66.8,3,16.23,4.75,29.92,15.5,43,26.19a79.74,79.74,0,0,1,51.09-93.16l13.41-1.13a74.57,74.57,0,0,0,17.22-.13,9.28,9.28,0,0,0,4.36-1.36,3.44,3.44,0,0,0,1.36-4c10.82,2.83,19.86,10.68,25.89,20.1s9.31,20.35,11.52,31.31c.84,4.17,1.54,8.41,3.24,12.31,2.48,5.68,6.88,10.25,11.2,14.69l10.57,9.43c2.32,2.51,5.84,3.61,9.26,3.8s6.82-.4,10.23-.73c14.37-1.42,28.74,1.74,43.07,3.56l-.17-1.45q.33-15.28.64-30.59l-.13-.61a81.5,81.5,0,0,1-19.88-36c-3-11.7-3.29-23.9-5.63-35.74A106.6,106.6,0,0,0,450,1212l-3-9-.58-7.59c-5.81-15.26-11.63-30.92-11.84-47.24-.05-4,.34-8.21,2.86-11.27s7.83-4,10.33-.95a58,58,0,0,1,12-22.57l5.8-5.72c6.55,4.79,12.22,10.67,17.85,16.51a54,54,0,0,1,6.78,8c1.73,2.7,3,5.74,5.27,8s5.5,3.59,7.85,5.86c5.64,5.47,4.87,14.51,4.42,22.35a127.51,127.51,0,0,0,15.16,67.82l3.7,6.84c.32,3.71-.33,7.43-.81,11.12-1.31,10-1.43,20.1-1.56,30.17l-3.52,7.33c-.81,1.89-3.26,2.45-4.54,4.06a7.75,7.75,0,0,0-1.17,2.46c-3,9.12-4.39,19.37-11.16,26.16l0,.23q1.33,15.93,1.33,31.93l.29-.24a15.32,15.32,0,0,0,5.87-3.17,154.1,154.1,0,0,1-12.42,79l4.54,12-.06,8.69A212.91,212.91,0,0,1,490,1477.52c7.52,6,14,14.38,14.38,24,.37,8.72-4.36,17-10.75,23s-14.33,9.92-22.16,13.78q13.14,6.6,25.87,14c7.91,4.59,15.75,9.43,22.45,15.65s12.26,13.93,14.67,22.75a72.47,72.47,0,0,1,50.43-28.33l4.3.36a23.92,23.92,0,0,0,3.54,3.2l4.66,3.67,3,2.9a49.5,49.5,0,0,1,25.55-5.57c4.62.24,9.39,1.13,13.78-.35l1.26.36c3.88.21,7.47,2.12,10.64,4.36s6.1,4.85,9.46,6.8a28.23,28.23,0,0,0,12.72,3.76h2.42l-.16,1.54c1.12,6.59,2.12,13.26,1.68,19.93s-2.44,13.41-6.72,18.55a2.49,2.49,0,0,1-1.23.93,3.53,3.53,0,0,1-1.81-.36c-3.07-1-6.29,1.11-8.48,3.49-2,2.23-3.79,5.13-3.28,8.11.35,2.09,1.76,3.83,2.61,5.78s1,4.59-.77,5.82c-1.54,1.1-3.78.53-5.39,1.5s-2.06,3.13-2.31,5l1.72,5.55q1.05,2.19,2.12,4.38l-3.47,9.59a63.3,63.3,0,0,1-5.15,14.3c-2.55,5.06-5.83,9.91-6.84,15.49,12.58-1,24.35,5.59,36.57,8.7l11.81,5.59,6.84,6.21c16.89.4,34.41,1.06,49.5,8.66,18.31,9.22,30.67,27.9,35.67,47.78l-3,1.18a55.52,55.52,0,0,0-26.28,23c-4.51,7.69-7.65,17-15.43,21.35L722,1833.5l-12.89,2.62a2.21,2.21,0,0,0-1.18.5,2.09,2.09,0,0,0-.41,1.43,56.12,56.12,0,0,0,1.25,10.78c2.32,13.53,3,27.44.78,41s-7.48,26.75-16.15,37.4c-3.07,3.77-6.8,8-6,12.78.48,2.83,2.49,5.13,4.41,7.26l12.77,14.16-.17,5.49c2.49,3.52,5,7.17,6,11.38.57,2.61.49,5.35,1.32,7.89,1.92,5.86,8.39,9.28,14.55,9.44l4.85,3.18c15.49,8.53,25.95,23.82,39.72,34.92,3.18,2.56,7.52,5,11.13,3.09a11.26,11.26,0,0,0,3.76-4q2.69-4.05,5.38-8.08c2.5-3.77,5.52-7.88,10-8.58a11.67,11.67,0,0,1,4.55.31c6.24,1.51,11.51,5.94,15,11.3s5.48,11.62,6.78,17.91c1.39,6.74,2.19,13.88,6.05,19.57l1.28,10.49.55,7.85q-7.51,21-15,42l-3,5.78-6,10.6-3.07,5.67-2.88,20,1.35,4.52q27.38,61.72,59.91,121l3.36-.38,6.13-4.82a10.1,10.1,0,0,0,2.17-2.11,9.6,9.6,0,0,0,1.14-2.81q1.21-4.16,2.41-8.31l.35-20.61a214.45,214.45,0,0,1,19.9-69.37l1-3.42q6.83,19.76,13.66,39.52l8.32,24.09,3.15,5.83q5.07,15.51,11.45,30.56c3.39,8,7.1,16,12.44,22.86,2.2,2.85,4.67,5.49,6.79,8.4,4.6,6.37,7.36,13.86,10,21.25q5,13.86,9.94,27.76a80.51,80.51,0,0,1,3.69,12.58,82.13,82.13,0,0,1,1,12.93q.28,14.79.59,29.59l-3,12.56c-2.33,15.25-2,30.76-1.62,46.18.26,11.12.54,22.38,3.61,33.07,2.64,9.21,7.27,17.69,11.47,26.31a304.68,304.68,0,0,1,28.22,94.67C1024.93,2646.55,1025,2665.9,1013.44,2678.79ZM822.6,2331.13a162.65,162.65,0,0,0-47.76-62.61l-1.39,7.78a98.56,98.56,0,0,0,2,17.95l1.34,5.24A213,213,0,0,1,822.6,2331.13Zm4.94-34.09a320.54,320.54,0,0,0-40.06-73.17c-1-1.33-2.66-2.8-4-1.88a3.18,3.18,0,0,0-1.06,1.85,31.7,31.7,0,0,0-.93,12.22l1.67,7.63Z"></path>
    <path data-name="5" data-official="Gladiolus psittacina" data-plain="" data-loc="Natal" d="M1330.66,2048.43c5.56-7.09,10.75-14.83,12.55-23.66s-.45-19-7.59-24.5a37.82,37.82,0,0,1-28.2,43c14.83-34,12.67-73,4.76-109.22-1.4-6.42-3-12.88-5.93-18.75-2.67-5.3-6.39-10-10-14.68q-11.64-15.24-21.81-31.5a40.72,40.72,0,0,1-5-10.15c-1.61-5.71-.76-11.78.1-17.65l4.38-29.85.41-13.08.15-34.38c-.76-9.94-2.09-20.09-6.73-28.92s-13.2-16.16-23.15-16.81c-1.56-.1-3.3-.09-4.45-1.16s-1.29-2.89-1.32-4.5q-.91-52.22-1.82-104.43a23.32,23.32,0,0,1,.71-7.6c2.11-6.46,9.14-9.66,14-14.39,14.56-14.12,8.39-39.68,19.37-56.73,3.31-5.14,8.23-9.64,9.1-15.68,1.07-7.37-4.25-14-9.48-19.31a228.47,228.47,0,0,0-30.08-25.65c-5.66-4-11.59-7.86-18.22-9.93-7.63-2.4-15.8-2.36-23.65-3.9-34.55-6.75-56.58-41.61-89.19-54.88l-6.76,1.78-1.55,4a15.29,15.29,0,0,1-14.79-5.27c-1.25,6.33-7.24,10.35-12.15,14.53-9.61,8.19-16.68,19.38-27.53,25.83l.22-.76c-1.88-10.19,1.23-20.82,6.56-29.71s12.74-16.32,20.19-23.54c3.08-3,6.21-6,8.54-9.6,5-7.8,5.81-17.65,10.23-25.79,2.8-5.14,6.93-9.42,10.17-14.29,7.72-11.62,10.6-26.92,21.73-35.32,3.43-2.58,7.83-4.36,12-3.31l8.14-13.59-5.28-7.94a47.78,47.78,0,0,1-2.48-42.71,3.58,3.58,0,0,0-.16-4.37,23.06,23.06,0,0,1-3.53-12.24l-1-1c-6.45-6-13.11-12.25-16.06-20.52l.33,32.5c0,4.11.08,8.27-1,12.25-2.26,8.76-9.25,15.37-15.92,21.47l-.4-.86c-1.62-7.21,1.21-14.58,1.94-21.93a39.37,39.37,0,0,0-11-31.13,21.1,21.1,0,0,0,5.47-19l-.12-1.76c13.2,2.39,26.74-4.28,36-14s15.06-22.13,20.69-34.3c4.22-9.11,8.47-18.34,10.3-28.21.77-4.14,1.1-8.38,2.38-12.39,3.46-10.91,13.21-18.54,18.83-28.51a41.33,41.33,0,0,0,5.27-18.43c.34-7.85-1.55-16,.8-23.45,1.18-3.78,3.38-7.15,5.47-10.51a275.79,275.79,0,0,0,19.48-37.29c-6.83,4.33-14,8.79-22.1,9.33-3.47.23-7-.28-10.4.31-4.12.72-7.8,3-11.76,4.33-12.22,4.17-25.61-.62-37.08-6.56l-9,3.35a19.2,19.2,0,0,1-9.56,5.15c-5.2,1.07-10.74,0-15.82,1.51-5.47,1.66-9.55,6.12-13.35,10.38l-3.95-7-5.73-4.89c-9.22-20.14-19.15-41.19-37-54.25-3.23-2.37-6.73-4.47-9.32-7.53-5.71-6.74-5.78-16.43-6-25.27-1.23-57.26-19.8-112.89-43.94-164.83l-3.95-6.06c-22.19-36-34.84-77-54.35-114.51a22.62,22.62,0,0,0-4-6c-3.39-3.28-8.48-4.21-13.18-3.88s-9.27,1.73-13.93,2.46c-13.48,2.11-27.1-1.5-40.5-4s-27.92-3.9-40.11,2.22l-13.74,3.41a116.1,116.1,0,0,0-.29,30.88c.85,6.84,2.32,13.64,2.4,20.53s-1.4,14.1-5.77,19.44l-.06,5.47c3.32-.82,6.77-1.56,10.15-1,4.74.81,8.64,4,12.4,7A229.9,229.9,0,0,0,839.62,718l4.14,4.63a19.08,19.08,0,0,1,10.35,14.14l.11.85c3.88.49,8.14,1.3,10.52,4.4a39.73,39.73,0,0,1,2.49,4.59A20.54,20.54,0,0,0,870.9,751c3.25,3.12,7,6,8.8,10.14l.37,1.09-9.62,6.3a7.68,7.68,0,0,0-2,1.71c-1.31,1.76-.91,4.19-.75,6.38a23.28,23.28,0,0,1-1.76,10.65l-2.67,9.37-2.65,7.89a338.9,338.9,0,0,0-5.49,111.29A103.26,103.26,0,0,0,858.25,933c5.47,18.7,19.33,33.53,31.1,49.06A255.57,255.57,0,0,0,830,963.9l-6.69,2.94a38.88,38.88,0,0,1-28.5,8.07c-3.37-.41-6.76-1.26-10.12-.81l-2.62-6.68-5-5a58.8,58.8,0,0,0-13.65-2.1l-4-.48a9.26,9.26,0,0,1-7,9.8c-4,.87-8.06-1.1-12-2.25-8.17-2.39-16.89-1.36-25.32-.19-6.83.94-14.35,2.35-18.61,7.78L692,971.81c-1.09-2.63-4.39-3.88-7.16-3.22a10.19,10.19,0,0,0-6.3,5.39,30,30,0,0,0-2.49,8.14q-1.61,7.74-3.2,15.48a32.84,32.84,0,0,0-1,9.13c.22,2.76,1.12,5.61.23,8.23-1.07,3.18-4.39,4.94-7.43,6.34l-.8,1.09a13.8,13.8,0,0,1,2.84,11.84,20.66,20.66,0,0,1-6.36,10.68c-3.81,3.56-8.91,6.46-10.18,11.51-1.36,5.44,2.35,10.67,4.28,15.93a26.27,26.27,0,0,1-1.9,21.93c-1.73,3-4.47,5.83-7.92,6s-6.37-2.3-8.18-5.15-2.77-6.15-4.38-9.12a27.39,27.39,0,0,0-14.81-12.36,38,38,0,0,0-19.45-1.39l2.83,4.28c-2.77,3.87-6.26,7.17-9,11s-4.86,8.56-4.19,13.26c.8,5.59,5.29,10,10.12,12.91s10.24,4.9,14.8,8.24c14.74,10.77,17.14,32.71,31.09,44.48,5.36,4.53,12.08,7.21,17.51,11.66a10.88,10.88,0,0,1,3.38,4.1,13,13,0,0,1,.41,6.11q-1.35,14.58-2.71,29.18c-.64,6.84-.95,14.66,3.87,19.56,3.69,3.76,9.37,4.63,14.63,5a132.18,132.18,0,0,0,31.41-1.66l7.94-4.31,4.31-4.41a47,47,0,0,0,29.57-10.1c-3.76,5.14-3.94,12.24-2,18.3s5.82,11.31,9.69,16.37c3.39,4.41,7,8.93,12,11.31,6.21,3,13.44,2.16,20.29,2.61,2,.14,4.29.54,5.36,2.25a13.35,13.35,0,0,1,1,3c.9,2.75,3.39,4.67,5.94,6a30.11,30.11,0,0,0,16,3.51c3.92-.24,7.93-1.23,11.68-.08a10.88,10.88,0,0,1,7.37,8.41l-.86,7.92,7.66,2.5c3.32,3.77,6.77,7.63,11.31,9.77s10.51,2.09,14-1.47a16.26,16.26,0,0,0,3.46-6.35c5.06-14.86,4.42-31,3.59-46.67-.38-7.1-.76-14.36,1.22-21.18a3.9,3.9,0,0,1,1.38-2.32,3.53,3.53,0,0,1,2.4-.33c8.81,1.11,14.15,10.62,15.3,19.42s-.41,17.89,1.51,26.56c3.24,14.7,15.74,25.56,21.41,39.49,4.53,11.13,4.46,23.52,4.08,35.52-.2,6.31.17,13.87,5.59,17.11,7.07,4.22,15.73-2.66,24-2.4a4.54,4.54,0,0,1,2.7.77,5.18,5.18,0,0,1,1.46,2.55c3.79,11.48,4.14,23.77,4.46,35.86.42,16,.84,31.9,1.14,47.85a5.52,5.52,0,0,1-4,6.54l-14.35,6.72c-9.31-23.47-18.84-47.33-34.62-67a127,127,0,0,0-19.27-19.38c-12.69-10.29-29.33-18.34-45-13.79l-6.56-1.3a18.75,18.75,0,0,1-9.32,10.29c-.91-5.78-6.87-9.13-12.16-11.62l-23.46-11.07c-6-2.84-12.14-5.75-17-10.27-4.49-4.18-7.86-9.66-13.12-12.8-4.56-2.73-10.23-3.49-14.26-7-.53-.46-1.2-1-1.85-.74-1,.38-.61,1.91-1.06,2.9-.7,1.55-3.13,1-4.32-.18s-2-3-3.58-3.56-3.28,0-4.57-.89a4.89,4.89,0,0,1-1.61-2.8c-.8-2.68-1.61-5.36-2.41-8l-8.23-6a15.84,15.84,0,0,0-10.17-3.81,4.86,4.86,0,0,0-3.72,1.21,5.35,5.35,0,0,0-1.06,2.39,45.78,45.78,0,0,0,2.34,28.78c1.3,3,3,6,3,9.35a152.32,152.32,0,0,0-30.22-7.93l-7.25,2.78-8.12,12c-2.52,3.7-5.13,7.51-8.9,9.92-7.1,4.54-16.32,3.09-24.59,4.68-6.16,1.19-12.24,4.15-18.42,3.06.36-3.94-2.92-7.51-6.69-8.74s-7.87-.64-11.76.15c-2.13.44-4.4,1-5.79,2.69l-1.95,3.08c-.54,3.85,1.35,7.64,3.74,10.71s5.32,5.7,7.44,9c5.42,8.36,4.59,19.11,6,29a60.14,60.14,0,0,0,6.44,19.49c3.38,6.3,9.12,12.58,16.25,12.1a9.64,9.64,0,0,0,5.58,9.87c-2.56.3-4.79,1.83-6.89,3.31l-3.26,2.3c-2.54,1.79-5.13,3.64-6.88,6.21a6.9,6.9,0,0,0-6.55-3.45l.22,4.44c-1.5,2-4.4,2.18-6.84,1.76s-4.9-1.31-7.34-.86a7,7,0,0,0-5.18,4.37c-4-2.24-9.34-.81-12.54,2.48s-4.52,8-4.72,12.59c-.24,5.09.76,10.28-.32,15.26a19,19,0,0,1-9.3,12.45l-.2,0a87.11,87.11,0,0,0-11.83-8.54l-7.65.3-9.15,8.75a6.45,6.45,0,0,0-1.94,2.65c-.48,1.72.54,3.48,1.59,4.93,7,9.55,16.81,16.51,26.49,23.29,3.26,2.29,6.61,4.62,10.44,5.69l7.12-1.3a198.07,198.07,0,0,0,22.2-.26c5.19-.45,10.42-1.31,15.57-.54a25.23,25.23,0,0,1,18.3,13.08l1.26.36c3.88.21,7.47,2.12,10.64,4.36s6.1,4.85,9.46,6.8a28.23,28.23,0,0,0,12.72,3.76h2.42q7.71-1.93,15.53-3.32l1.11,0c.26,3,3.47,4.66,6.33,5.46s6.14,1.43,7.78,3.91c1.5,2.27,1.07,5.3,2.06,7.83a9.39,9.39,0,0,0,5.59,5.13,19.73,19.73,0,0,0,7.72.93l.21.68c.4,4-.84,8.48,1.23,12a9.47,9.47,0,0,0,2.35,2.54,17.58,17.58,0,0,0,9.3,3.34,45.16,45.16,0,0,0,10-.53l.89,1.1c6.31,9,7.64,20.69,6.35,31.61-.6,5.12-1.64,10.73,1.07,15.12,2.55,4.11,7.57,5.79,11.59,8.49,7.22,4.83,11.26,13,16,20.3s11.47,14.45,20.14,14.95c3.57.21,7.1-.76,10.67-.95,13-.68,25.88,9,38.28,5l8.46,1.26q3.45,7.5,6.3,15.26a20.24,20.24,0,0,1,1.68,7.7c-.19,4.9-3.63,9-5.46,13.52-2.34,5.81-2.52,13.22-7.74,16.67A43.09,43.09,0,0,0,836.05,1737a21.34,21.34,0,0,1,1.43,10.86,31.5,31.5,0,0,0-17.19-12.66,9.72,9.72,0,0,1-3.27,9.48c-2.51,2-6.08,2.84-7.9,5.53-2.81,4.16.33,9.79-.34,14.78a20.61,20.61,0,0,0-7.26-.26c1.46,2.81-.09,6.22.24,9.37.38,3.79,3.4,6.75,4.65,10.35a39.19,39.19,0,0,0-26-6.25l-1.29.19-3,1.18a55.52,55.52,0,0,0-26.28,23c-4.51,7.69-7.65,17-15.43,21.35L722,1833.5l-12.89,2.62a2.21,2.21,0,0,0-1.18.5,2.09,2.09,0,0,0-.41,1.43,56.12,56.12,0,0,0,1.25,10.78c2.32,13.53,3,27.44.78,41a86.18,86.18,0,0,1-6.74,22.23l3.9,3.64c3.55,3.22,8.47,4.55,13.26,4.91s9.59-.13,14.39,0c13.42.38,26.26,5.66,37.9,12.34a44,44,0,0,1,8.68,6.09c2.76,2.62,4.89,5.82,7.38,8.7s5.51,5.52,9.19,6.47l4.6,2.14.23-4.63,32.34,14a103.35,103.35,0,0,0,9.7,3.83,80.14,80.14,0,0,0,12.83,2.78,171.52,171.52,0,0,0,23.52,1.84c15.87.16,31.81-1.87,47.58,0s32,8.48,40.59,21.82l.23,2.26q5.53,15.36,12.39,30.21-20.16.15-40.28-1.54c-12.61-1.07-25.36-2.73-37-7.6-9.37-3.91-17.76-9.76-26.45-15-15.62-9.46-32.67-17.17-50.79-19.44l-5.42-4.76q-3-3.15-5.94-6.43l-5.5-.85-30.79-4.76c-4.36-.67-8.73-1.35-13.13-1.75-16.93-1.55-34.54,1.16-49.29,9.61l-6.5,2.34c.57,2.61.49,5.35,1.32,7.89,1.92,5.86,8.39,9.28,14.55,9.44l8.55.61q29.38,8.08,58.07,18.47l8.21,1.43a11.67,11.67,0,0,1,4.55.31c6.24,1.51,11.51,5.94,15,11.3a42.15,42.15,0,0,1,4.68,9.93l4.33,4.79a7.81,7.81,0,0,1,2.11,2.82l6.48,12.22,3,1.62,1.53-3.24c4.17,3.2,6.15,8.45,9.37,12.6a68.63,68.63,0,0,0,7.19,7.28,93.28,93.28,0,0,1,13.45,16l.51.37a293.59,293.59,0,0,0,26,25.37l2.85,2.82c12,7.66,21.36,18.85,32.92,27.16,6.94,5,14.59,8.87,22,13.13A247.12,247.12,0,0,1,993.08,2186c4.06,3.44,8.09,7.1,10.61,11.79,3.07,5.72,3.61,12.4,4.78,18.78,4.32,23.6,17.76,44.59,33.28,62.89,7.78,9.17,16.65,19.1,16.54,31.13l3.51,21.49,4.84,1.28c18.44,7.68,28.41,27.93,45.2,38.74,10.66,6.87,23.7,9.66,33.77,17.38,11.17,8.59,17.22,22.09,22.83,35,13.83,31.9,28.49,65,55.08,87.42l5,2.75a231.88,231.88,0,0,0,35.73-74.73l-.49-1.27a111.34,111.34,0,0,0-8.89-16.7,44.94,44.94,0,0,1-4.76-8.39,36.71,36.71,0,0,1-1.7-8.14q-2.37-18-4.73-36l-1.7-8a199.19,199.19,0,0,1,.65-25.27l-.42-5c.32-1.11.65-2.22,1-3.33l5-5.56c-4.55-42.58,7.13-85.39,5.12-128.16l.92-1.93,19.58-17.33c6.51-5.77,13.18-11.72,17.15-19.46,3.61-7,4.74-15,6.19-22.78,2.68-14.26,6.63-28.26,10.57-42.23,1.93-6.85,3.88-13.75,7.15-20.07C1319,2062.3,1325.09,2055.52,1330.66,2048.43Zm-297.29-744.35c6.7-8.32,7.62-19.75,8.26-30.42a48.88,48.88,0,0,0,37.64,6.5c-4.66,3.94-9.37,7.92-13.14,12.72s-6.58,10.56-6.9,16.66a4.85,4.85,0,0,1-.37,2.07,4.71,4.71,0,0,1-1.82,1.63,52.86,52.86,0,0,0-24.1,38.82,255.31,255.31,0,0,1-4.77-35.15l.31-1.61C1026.84,1311.31,1030.66,1307.43,1033.37,1304.08ZM931.62,1810.63c-3-3.81-6-7.73-7.89-12.18a30.58,30.58,0,0,1-2.5-11.66l.73-3.32a121.74,121.74,0,0,1,2.84-22.26l-1.92-8.46c-2.22-17.52-10.48-33.61-18.6-49.3-2.8-5.4-6-11.19-11.58-13.63-3.4-1.49-7.61-1.71-10-4.55a12.82,12.82,0,0,1-2.06-4.37c-2-6.3-4.11-12.63-4.93-19.2-1-8-.17-16.21-2-24.06-1.59-6.91-5.22-13.57-4.6-20.63.44-5.12,3.09-9.78,6.1-13.93a6.48,6.48,0,0,1,3-2.68c1.61-.51,3.31.24,4.83,1l20.61,9.88a11.1,11.1,0,0,1,4.47,3.15c1.85,2.56,1.21,6.08.52,9.15-1.81,8.1-3.45,16.44-2.33,24.66,1.46,10.7,7.41,20.17,13.22,29.27,4.92,7.7,10,15.61,17.64,20.69l3.92,3.08a21.69,21.69,0,0,1,2.75-2.27c4.69,3.08,6.84,9,7.2,14.55s-.77,11.17-1.14,16.77c-1,15.33,3.64,30.65,11.07,44.09s17.52,25.23,28,36.44c5.62,6,11.45,11.94,15.44,19.12s6,15.91,3.39,23.7l-1.23,4a69.43,69.43,0,0,1-3.9,17.73l-3.72.77c-4.35-5.15-9.83-9.19-15.12-13.36A315.71,315.71,0,0,1,931.62,1810.63Zm109,372.83c-14.92-7.14-30.15-14.49-41.84-26.19-3.65-3.65-6.91-7.69-10.88-11-4.71-3.89-10.25-6.61-15.54-9.66-23.93-13.84-42.75-34.79-63.44-53.1-9.8-8.68-20.08-16.8-30.34-24.92l-34.64-27.38,1.68.25c12.88.8,25.25,5.17,37.2,10a161.75,161.75,0,0,1,21.2,10.05c3.94,2.32,7.72,4.91,11.64,7.27a117,117,0,0,0,66.83,16.43,195.41,195.41,0,0,0,27-3.95l2.82,4.66c8.19,13.63,9,30.36,14.51,45.27,1.4,3.77,3.1,7.43,4.67,11.13a163.16,163.16,0,0,1,11.64,43.89Zm441.61,526.83c-.07,3.19-.42,6.59-2.44,9.05-3.2,3.9-9.2,3.91-13.38,6.74l-11,15.23c-4.92.28-8.48,4.88-10.28,9.46s-2.58,9.66-5.4,13.7c-5.38,7.71-16.7,9.73-21.52,17.8a8.25,8.25,0,0,0-1.34,5.15c.32,2.51,2.24,4.47,3.92,6.37,6.91,7.87,11,18.42,10.09,28.85s-7.37,20.47-17,24.67-22,1.69-28.42-6.59a22.84,22.84,0,0,1-4.64-14.66c.19-5.45,2.24-11,.85-16.22-.94-3.58-3.36-6.55-5.59-9.5-15.78-20.8-25.11-45.77-32.18-70.9s-12.12-50.85-20.49-75.58l-4.61-12.39a35.11,35.11,0,0,0-6.13-27.54c-1.08-1.47-2.32-2.91-2.76-4.68a11.45,11.45,0,0,1-.16-3.51q3.12-55.53,8.56-110.9c.31-3.17.66-6.43,2.14-9.24,2.13-4,6.6-7.73,5.22-12L1327,2461l-2.79-19.29c-.63-4.33-1.28-8.73-3.14-12.69-1.28-2.73-3.15-5.31-3.42-8.32l0-1.72a324.31,324.31,0,0,1,32.15-111c2.43-4.89,5-9.81,9-13.56,5.25-5,12.88-8,15.64-14.69l4.22,4c6,7.4,8.26,17,12.11,25.73,2.93,6.62,6.81,12.77,10.51,19a403.64,403.64,0,0,1,27.09,54.6l2.8,7.07c15.22,41.61,24.12,85.22,33,128.63,2.75,13.5,5.5,27,6.42,40.8,1.06,15.89-.33,32,2.73,47.64l-.47,6,.15,19.76c0,4.46.07,8.93.38,13.39C1474.81,2667.82,1482.71,2688.73,1482.19,2710.29Z"></path>
    <path data-name="6" data-official="Crocus vernus" data-plain="Spring Crocus" data-loc="England" d="M1724.66,2095.86a74.36,74.36,0,0,0,27.15-23.92c8.52-12.42,13.11-27.22,21.79-39.53,5-7,11.15-13.12,16.38-20,10.64-13.91,17.1-30.74,20.08-48s2.59-35,.5-52.35c-1-8.3-2.92-17.44-9.7-22.31-4.72-3.39-10.83-4-16.61-4.43l-.35-7.7a217.87,217.87,0,0,0,1.39-43c-.34-5.15-.91-10.43-3.35-15-3.42-6.38-10.16-10.46-17.17-12.27s-14.36-1.62-21.59-1.35c-7.49.29-15.92,1.11-20.63,6.94-1,1.26-1.83,2.73-3.16,3.65-2.67,1.84-6.44.78-9.06-1.14s-4.64-4.59-7.35-6.37c-4.44-2.91-10.07-3.07-15.37-3.13-3.87,0-7.82-.07-11.47,1.19-9.7,3.38-14.61,14.81-24.09,18.75a27.06,27.06,0,0,0-28.24-6.11,7,7,0,0,1-3.48.77,6.14,6.14,0,0,1-2.7-1.37c-4.45-3.35-8.74-7-13.66-9.59s-10.64-4.19-16.09-3l-6.24-1.45-5.59,6.94c-4.32,2.7-6.8,7.46-9.92,11.48-4.05,5.22-9.34,9.32-13.72,14.26-8.38,9.42-13.09,21.45-17.65,33.2-2.57,6.64-5.14,14.13-2.33,20.67l-.54.1a6.26,6.26,0,0,0-2.88,6l-1.66.61c-7.64-24.13-5.46-50.21-9.85-75.13l-.55-4.59c-8.32,3.22-12.87,12-16.7,20-6,12.62-12.15,26.48-9,40.08l1.74,7.64a240,240,0,0,0,27.87,79.56l-.22,2.3a287.11,287.11,0,0,1-13.42,43.19l-7,8.94a26.93,26.93,0,0,1-7.56,5.34,46.64,46.64,0,0,0-5.37,2.6c-7.34,4.75-8.22,16-15.64,20.65l2.26,6.8a29.56,29.56,0,0,1,2.55,7.9l6.76.86c20.74,22.39,37.49,48.79,46.73,77.88s10.72,60.93,2,90.18c-2.73,9.16-6.43,18.06-8.24,27.45-4.64,24.05,3.54,49,.17,73.27-1.65,11.92-6,23.27-8.77,35s-3.66,24.48,1.36,35.41l1.41,6.68q2.14,71-1.28,142a5.07,5.07,0,0,1-.85,3.09c-1.12,1.29-3.14,1.1-4.84.89-10.36-1.27-21.16-3.62-29.76,2.31l-10.66.67c1.06,15.89-.33,32,2.73,47.64l-.47,6,.15,19.76c0,4.46.07,8.93.38,13.39,1.5,21.52,9.4,42.43,8.88,64-.07,3.19-.42,6.59-2.44,9.05-3.2,3.9-9.2,3.91-13.38,6.74l-11,15.23,3.43,6.83,6.67,13.29c1,1.94,2,4.21,1.06,6.19s-3.23,2.72-5.25,3.5c-13.36,5.17-21.27,21.44-17.09,35.14a8.33,8.33,0,0,0,1.92,3.63c1.85,1.8,4.72,1.86,7.31,1.9a103.91,103.91,0,0,1,48.71,13c4,2.22,8,4.88,10.14,8.91,1.91,3.6,2.09,7.82,3.09,11.77,2.25,8.9,9.27,16.65,18.16,19s19.22-1.29,24.08-9.09c2.72-4.37,3.7-9.7,6.7-13.89,5.56-7.77,16.54-9.55,26-8.07s18.36,5.48,27.83,6.74c8.18,1.09,16.47.09,24.66-.91,3.66-.44,7.64-1.05,10.14-3.76,1.41-1.54,2.16-3.57,3.38-5.25,5.85-8.06,20-5.73,25.77-13.86s-.2-23.17,8.77-27.88c4.14-2.17,9.13-.47,13.75.24a31.22,31.22,0,0,0,15.15-1.47c3.07-1.1,6.11-2.83,7.74-5.66a17.37,17.37,0,0,0,1.77-6.75c2.79-23.75.89-51-17.11-66.72-17.25-15.08-42.81-14.2-65.65-12.48a77.45,77.45,0,0,0-13.6-108.54c-7.4-5.77-15.84-10.19-22.8-16.48s-12.47-15.25-11.41-24.58l3-9.61,3.13-59c.68-12.87,1.37-25.75,2.68-38.57,2.94-28.57,9-56.73,12.85-85.2,4.25-31.42,5.77-63.15,6-94.86l.93-7.86,3.09-26.19a96.15,96.15,0,0,1,2.55-14.89c1.84-6.51,5-12.55,8.2-18.53,6.1-11.51,12.25-23.1,20.32-33.33,16.1-20.43,39.12-34.57,55.11-55.09Z"></path>
    <path data-name="6a" data-official="" data-plain="Style and Stigma" data-loc="" d="M1760.42,2535.57c-.67-41.81,13-82.36,19.54-123.66,5.82-37,5.85-74.67,8.55-112,3-41.83,9.42-83.37,12.26-125.21.49-7.2.86-14.53-.79-21.55-2.33-10-8.48-18.48-14-27.11a231.2,231.2,0,0,1-24.91-53.24l-3.53-10.51c5.29-10,9.5-20.61,16-29.84a115,115,0,0,1,7.19-9l5.73.76c9.58,1.89,19.33,4.15,27.54,9.44s14.68,14.26,14.45,24c-.21,8.88-5.73,16.75-7.44,25.46-3.08,15.69,6.36,30.75,10.77,46.11,4.88,17,3.59,35.08,2.18,52.7q-16.12,202.5-45.1,403.71l3,8.17c-3.89,38.21-7.79,76.82-3,114.93,1.23,9.72,3,19.41,3.11,29.2.13,13.63-3.06,27.1-3.25,40.73-.1,7.34.86,15.17,5.55,20.81,5.34,6.44,14.72,9,18.78,16.35,4.45,8,.17,18.7-7.21,24.16s-16.93,6.88-26.08,7.59a232.76,232.76,0,0,1-37.06-.1,7.63,7.63,0,0,1-3.35-.81c-2.74-1.62-2.52-5.6-1.87-8.72,3.33-16,8.57-32.12,6.1-48.25l-.26-11.1A2073.74,2073.74,0,0,1,1757,2546.19Z"></path>
</svg>
