
<svg xmlns="http://www.w3.org/2000/svg" viewBox="0 0 1968 2556" id="illustration" preserveAspectRatio="xMidYMid meet">
    <title>Bromeliaceæ</title>
    <path data-name="bg" data-official="" data-plain="" data-loc="" d="M875.18,2220.5q39.42-2.05,78.85-2.19c-.08.15-.17.3-.26.44-1.28,1.91-3.64,2.69-5.84,3.35l-10.27,3.1a29,29,0,0,1-8.26,1.63c-3.91,0-7.62-1.57-11.45-2.37a29.71,29.71,0,0,0-15,.75c-4,1.29-7.86,3.46-12.08,3.94A15.91,15.91,0,0,1,875.18,2220.5ZM1366,2251.76l7.32,24.12a13.94,13.94,0,0,0,2.72,5.68c2.38,2.54,6.27,2.93,9.73,2.57,6.12-.64,11.88-3.07,17.7-5a117.46,117.46,0,0,1,50.07-5.37,48.49,48.49,0,0,1,14.62,3.52c4.22,1.9,7.93,4.74,11.73,7.38a170.28,170.28,0,0,0,28.76,16.09,81.33,81.33,0,0,1,11.39,5.61l2.34-7.32c2.12-3.64-.41-8.44-4-10.73s-7.85-3-11.72-4.66c-5.5-2.39-9.91-6.69-14.13-10.95-1.11-1.12-2.21-2.24-3.28-3.4-4.17-.65-8.35-1.26-12.52-1.86C1439.94,2262.11,1403,2256.81,1366,2251.76Zm160.27,161.71c-14.76,4.06-30.28,5.91-45.58,7.41-98.25,9.68-197.2,9-295.93,8.3-297.89-2.08-596.17-4.19-892.89-30.52a40.08,40.08,0,0,0-10.61-14.34c-8.5-7.09-21.29-9.59-30.93-4.16-5.09,2.87-8.79,7.5-11.71,12.64-13.64-1.93-27.23-4.27-40.58-7.24a62.31,62.31,0,0,0-1.36-13.9c-2-8.62-6.47-16.44-11.28-23.87a48.69,48.69,0,0,0-7.86-9.95c-3.75-3.38-8.36-5.63-13-7.58a137.79,137.79,0,0,0-51.92-10.66c-11.61-.09-23.4,1.35-34.13,5.76q-2.54-2.62-5-5.39c-3.22-3.66-6.46-8-6.14-12.83.38-5.71,5.42-9.84,10.11-13.1a351.11,351.11,0,0,1,64.84-35.41c-.14,8,.88,16.1,1.9,24.09l2.45,5.16c5.07,9.08,13.48,15.77,22,21.78,4.13,2.92,8.38,5.77,13.12,7.52,5.72,2.12,11.9,2.55,18,3l21.87,1.48c6.35.43,12.73.86,18.92,2.35a57.08,57.08,0,0,1,23.33,11.75c7,5.83,13.3,13.72,22.32,14.78l.49-.38c.53,2.1,3.32,2.37,5.47,2.59a13.48,13.48,0,0,1,8.05,3.45,8.86,8.86,0,0,1,2.67,8.09c8.49-2.56,17.63-1.83,26.35-.19,2.06.39,4.31,1,5.51,2.68,1.52,2.18.67,5.19,1.39,7.75l.55,1.08c1.17-2.59,1.3-5.51,1.88-8.29s1.83-5.69,4.35-7c2.71-1.39,6-.53,9-1.14a48.07,48.07,0,0,0,5.49-2,15.29,15.29,0,0,1,12.7,1.47l-3-2.06a4,4,0,0,1-1.23-1.14,3.43,3.43,0,0,1-.27-2.17A15.94,15.94,0,0,1,380,2339.59a23,23,0,0,1-.66-7.65c.35-2.55,1.72-5.11,4.05-6.19,1.3-.61,2.79-.72,4.06-1.39a5.32,5.32,0,0,0,1.35-7.93c-1.21,1.57-3.47,1.75-5.45,1.8a2.19,2.19,0,0,1-1.48-.33,1.82,1.82,0,0,1-.52-.94,5.6,5.6,0,0,1,8.77-5.94,3.06,3.06,0,0,0-2.4-2.25,13.85,13.85,0,0,0-3.47-.18,16.55,16.55,0,0,1-9.47-3.11,7.88,7.88,0,0,1-14.8-.71l.06-.31-.09.24a.21.21,0,0,0,0,.07,12.17,12.17,0,0,1-1.31,4.06,4.42,4.42,0,0,1-3.7,2.34c-1.55,0-2.84-1.12-4-2.16l-6-5.42a12.06,12.06,0,0,1-8.37,8,7.06,7.06,0,0,1-4.52-.13c-2.61-1.11-3.75-4.09-5.44-6.37a13.31,13.31,0,0,0-6.76-4.74,22.61,22.61,0,0,1-.48,6.52,7.55,7.55,0,0,1-3.89,5,4.64,4.64,0,0,1-5.78-1.56,23.87,23.87,0,0,1-1-2.76,2.47,2.47,0,0,0-2.17-1.7,12.76,12.76,0,0,1-12.09,10c0-1.29,0-2.58-.05-3.87l-3.42.48a11.63,11.63,0,0,1,17-11.36,36.76,36.76,0,0,1,3-9.49c.43-.91,1-1.89,2-2.13,1.47-.35,3.16,1.17,4.39.29.63-.45.79-1.34,1.36-1.86,1.27-1.17,3.22.24,4.39,1.52a53.21,53.21,0,0,0,16,11.88l-.22-.32c-1-2.43.08-5.38,2.11-7.06a11.56,11.56,0,0,1,7.41-2.24c2.26,0,5,.81,5.53,3,.63,2.56-2.14,4.57-4.5,5.77a18.07,18.07,0,0,0,14.14-6.37,4.43,4.43,0,0,1,1.94-1.66c1.14-.34,2.31.38,3.25,1.1a42.15,42.15,0,0,1,8.94,9.29c.77-3.32,3.3-6,6.13-7.86s6-3.21,8.92-4.95c-.4,1-.81,2-1.22,2.95a1.39,1.39,0,0,0-.13,1c.22.51.92.55,1.48.54a11.88,11.88,0,0,1,10.43,6.27l.48,0a15.5,15.5,0,0,1,9.27-2.37,9.85,9.85,0,0,1,7.85,5,13.08,13.08,0,0,1,18.39,9.59c3.6-3.68,7.26-7.4,11.71-10s9.85-4,14.8-2.56a2.53,2.53,0,0,1,1.21.61,2.48,2.48,0,0,1,.5,1.85,9.27,9.27,0,0,1-1.16,4.11l.69.12,6.71-3.58c1.3-.7,2.6-1.39,3.95-2,4.41-1.92,9.54-2.66,14.05-1s8.19,6.06,8,10.87l.52-.33c7.68-10.93,21.68-16.8,35-15.45,3.52.35,7.49,1.56,8.87,4.81-1.18-3.73.57-7.92,3.46-10.56s6.7-4,10.49-5a11.53,11.53,0,0,1,13.47-14.22l.51-.06a6.87,6.87,0,0,1,1.94,8.42l.27.13a15.71,15.71,0,0,1,13.2,21.27,12.12,12.12,0,0,1,11.31,14.86c5-1.44,9.35-5.23,14.55-5.26,4.81,0,9.12,3.36,11.53,7.52s3.25,9,3.95,13.79v-.23a22.76,22.76,0,0,0,6.91-3.75c2.31-1.83,4.81-4.29,7.69-3.68,3.19.68,4.35,4.58,4.7,7.83a81.53,81.53,0,0,1,.48,9.51,27.2,27.2,0,0,1,28.53-6.28c-.44-2.53,1.71-4.75,3.88-6.12a24.93,24.93,0,0,1,18.8-3.17,13.49,13.49,0,0,1,7.22-16.12,7.17,7.17,0,0,1,3.27-.67,8.49,8.49,0,0,1,3.69,1.39,31.61,31.61,0,0,1,8.82,7.83l.19.84c-.48,1.45-3.2,1.68-3,3.19.15.91,1.32,1.16,2.24,1.21l12.82.71c3,.16,6.28.44,8.47,2.51,3.51,3.32,2.48,9.55,5.79,13.09a32,32,0,0,1,1-8.12A10.86,10.86,0,0,1,755,2325a4.34,4.34,0,0,1,4.44-.26c1.3.87,1.67,2.57,2.26,4,1,2.5,2.89,4.53,4.35,6.8s2.49,5.12,1.55,7.65l1,.25c2.4-2.06,5.3-4.25,8.39-3.6,1.94.41,3.45,1.86,5,3.15a37.73,37.73,0,0,0,9.5,5.89c0-3.3,3.12-6,6.39-6.46s6.54.68,9.53,2.08a59.93,59.93,0,0,1,11,6.67,28.21,28.21,0,0,1,23.66-6.52l.19.62a14.25,14.25,0,0,1,7.78-9.68,22.46,22.46,0,0,1,12.54-1.9c1.54.17,3.75-.1,3.72-1.64a11.5,11.5,0,0,0-.23-1.14,3.26,3.26,0,0,1,1.2-2.44,25.56,25.56,0,0,1,8.16-5.66,8.1,8.1,0,0,1,4.27-.85,3.49,3.49,0,0,1,3,2.76,11.66,11.66,0,0,1,7.09-5.9,1.45,1.45,0,0,0,.52,1.91,3.64,3.64,0,0,0,2.11.47,17.76,17.76,0,0,0,8.65-2.35,4.92,4.92,0,0,0,2.34-2.34,2.08,2.08,0,0,0-1.17-2.74l1.39-.77c3.27.48,5.52-3.31,8.66-4.36a1,1,0,0,1,.92,0c.59.53-.5,1.29-.78,2-.46,1.2,1.29,2,2.57,2.05a10.71,10.71,0,0,0,5-.43c1.25-.53,2.26-1.52,3.5-2.06,3.49-1.5,8.31.67,10.92-2.08a5.07,5.07,0,0,1-1.74-2.46l17,0c2.07,0,4.44-.13,5.71-1.76a4.14,4.14,0,0,1-2-2.15c2.66-1.84,7.33.16,9-2.62a6.4,6.4,0,0,1,.84-1.44,3,3,0,0,1,2.07-.54,43.89,43.89,0,0,0,19-4.4,32.9,32.9,0,0,0,14.14-13.27c2.18-4,3.83-8.87,8-10.6l3.46-2.51c7.8-12.11,20.7-19.8,33.14-27.06a7.19,7.19,0,0,1,3-1.19c1.63-.11,3.1.88,4.41,1.85a10.36,10.36,0,0,1,2.7,2.58c1.58,2.49.86,5.73,1.18,8.66.65,5.83,5.5,10.3,10.55,13.29a7.67,7.67,0,0,1,2.48,1.91,5.8,5.8,0,0,1,.92,3.09,13.71,13.71,0,0,1-4.08,10.47c1.07.53,1.34,1.92,1.48,3.11l2.31,19.7c.67-5,1.37-10,3.6-14.5,1.36-2.73,3.27-5.21,4.18-8.13.68-2.16.77-4.46,1.35-6.65,1.28-4.85,4.83-8.77,8.59-12.09,3.3-2.91,8-8.34,12.32-7.59l.89,1.3a133.8,133.8,0,0,0,17,52.15,33.54,33.54,0,0,1,18.87-4.15c4.59.35,9.12,1.66,13.73,1.47s9.59-2.43,11.11-6.78a8.36,8.36,0,0,1,2.34,9.17l13-4.3.9-.1c3.63,6.24,7.76,12.92,14.51,15.47,8.15,3.08,18.06-.75,25.64,3.55,5.85,3.32,8.64,10.67,14.67,13.67,3,1.48,6.43,1.71,9.77,1.74a100.71,100.71,0,0,0,34.94-5.87c8.41-3,17.21-7.21,25.88-5,3.81,1,7.21,3.09,10.83,4.61,6.86,2.87,14.43,3.49,21.84,4.08,9.38.74,18.82,1.48,28.18.49,7.56-.81,15-2.74,22.57-3.28,9.35-.67,18.71.79,28,2a445,445,0,0,0,88.1,2.22l7-.78,18.37-1.32c2.78-.2,5.7-.45,8-2l-5,10.63c-6.29,12-12.78,25.17-10.57,38.57.92,5.56,3.3,10.77,4.88,16.18A68.67,68.67,0,0,1,1526.3,2413.47Zm-955.91-36.74a5.64,5.64,0,0,0-2.37-4.54,6.38,6.38,0,0,0-2.57-.76,18.36,18.36,0,0,0-14.79,5l-1.14,1.27a4.17,4.17,0,0,0-.34,4.2,9.71,9.71,0,0,1,1.08,2.13,2.9,2.9,0,0,1-1.27,2.76,7.54,7.54,0,0,1-3,1.15,10.86,10.86,0,0,0-3,1,6.5,6.5,0,0,0-2.91,5.44,7.43,7.43,0,0,0,2.18,5.7c1.85,1.71,4.53,2.11,7,2.3a25.78,25.78,0,0,0,8.13-.36,16.15,16.15,0,0,0,8.65-5.55,17.59,17.59,0,0,0,3.78-9.59c.13-1.59,0-3.2.17-4.8A37.89,37.89,0,0,0,570.39,2376.73Zm668.23,15.76c-.38-2.82-1-5.86-3.12-7.74s-4.88-2.08-7.54-2.25c-2.49-.16-5.25-.16-7.1,1.5a9.71,9.71,0,0,0-1.94,2.86l-2.78,5.35-2.32,4.26c-1.45,2.85-3.37,5.47-4.58,8.43s-1.67,6.47-.14,9.28a3.25,3.25,0,0,0,1.31,1.41,6.55,6.55,0,0,0,1.82.37c2,.33,3.62,1.74,5.59,2a10.23,10.23,0,0,0,4.63-.83c5.3-1.84,11-4,14.07-8.64S1239.35,2398,1238.62,2392.49Z"></path>
    <path data-name="1" data-official="Bromelia ananas" data-plain="Pine apple" data-loc="Peru" d="M509.77,1275.48c6.08,4.08,14,4.15,20.67,7.19,2.32,1,4.49,2.46,6.95,3.14,4.78,1.32,10.24-.28,14.64,2,2.38,1.25,4.08,3.5,5.54,5.76a58.44,58.44,0,0,1,8.7,23.69c.24,1.74,1,4,2.77,3.84l.11.32a6.4,6.4,0,0,0-4.83,3.69c-1.28,2.88-.28,6.4-1.66,9.23s-4.86,4.23-6.67,6.89c-1.62,2.36-1.72,5.43-1.46,8.29a67.78,67.78,0,0,0,4.35,17.07l-.62,1.13a9.94,9.94,0,0,0-6.28,3.06,29.49,29.49,0,0,0-4.22,5.74l-4.43,7.17-.16.29a33.6,33.6,0,0,0,16.64,2.83l.77.23c.27,3.21.57,6.53,2.17,9.33a27.38,27.38,0,0,0,2,2.88c2.76,3.58,5.25,7.67,5.45,12.19l.32.29a19.27,19.27,0,0,0-4.4,27.31l.61.12a179.37,179.37,0,0,0-.53,18.84l-.93.26c-3-2.47-6.49-5.08-10.32-4.51a9.37,9.37,0,0,0-5.88,3.85,27.9,27.9,0,0,0-3.26,6.39,12.76,12.76,0,0,1,3.54-2.28,4.34,4.34,0,0,1,4,.37c1.17.89,1.58,2.46,2.42,3.67,2.13,3.1,6.66,3.56,9.22,6.31-3.13,1.58-4.25,5.8-3.1,9.11s4.07,5.73,7.22,7.25l.72.9c-1.41,2.68-1.11,6-.06,8.81a58,58,0,0,0,4.26,8c1.61,2.85,2.93,5.86,4.25,8.86l-1.07.84c-4.68-.8-9.62-1.57-14,.13s-7.45,5.42-10.66,8.79-7.1,6.64-11.74,6.83a10.16,10.16,0,0,0,7.72.27,23.45,23.45,0,0,0,6.82-4,33.59,33.59,0,0,1,5.05-3.6c4.95-2.57,10.9-1.84,16.42-1l0,0a17.48,17.48,0,0,1-11.75,22.38l4.45.9a3.24,3.24,0,0,1,1,.33c1.08.65,1,2.24.65,3.46s-.72,2.67.1,3.63c1.65,1.93,4.92-1,7.25,0a9.9,9.9,0,0,0-2.09,3.63,3.34,3.34,0,0,0,1.31,3.7,10.94,10.94,0,0,0,2.36.63c.78.22,1.6.81,1.58,1.63a3.39,3.39,0,0,1-.37,1.14,4,4,0,0,0,2.57,5.13l.42,1.24.28,4.43v.92c-4.61,4.72-5.27,12.23-3.41,18.56s5.83,11.78,9.61,17.19,7.51,11.09,8.78,17.56a30.35,30.35,0,0,1-.15,11.63,19.47,19.47,0,0,0,6.41-2.69H607a22.58,22.58,0,0,0-.08,5.51,3,3,0,0,0,.91,2.18,3.25,3.25,0,0,0,2.16.36l5.59-.4c1.31-.09,2.79-.12,3.73.79,1.29,1.25.79,3.35.85,5.14l-.21,1.49,1.31,5.85q-2.61.39-5.19,1a1.15,1.15,0,0,0-.73.37,1.1,1.1,0,0,0-.06.89,31.1,31.1,0,0,0,3.7,9.5,18.08,18.08,0,0,1,1,1.87,9.09,9.09,0,0,1-.37,7.15l.89.86c3.14,1.23,3.9,5.22,4.43,8.55a70.26,70.26,0,0,0,13.61,31.51l.47,2a64.91,64.91,0,0,0-2.3,19.51,25,25,0,0,0-31.51,14.35c-2.19,5.47-2.38,11.51-2.54,17.4L613,1763.17c2.14-2.37,4.36-4.79,7.24-6.16,4.54-2.16,9.85-1.34,14.8-.48a33.66,33.66,0,0,0,6.81,26.37l.33.48,26.6-12.59a30.52,30.52,0,0,0,6.51-3.77,37.81,37.81,0,0,0,4.19-4.39,78.58,78.58,0,0,1,8.28-8.14,11,11,0,0,1,3.11-2c1.65-.62,3.47-.45,5.23-.55,4.51-.25,8.72-2.25,12.71-4.35a199.46,199.46,0,0,0,24.09-14.91,6.44,6.44,0,0,1,3.27-1.52c1.22,0,2.55,1,2.35,2.16a3,3,0,0,1-1.05,1.55,59.83,59.83,0,0,1-7.28,5.46l-28,18.83a14.4,14.4,0,0,0-3.83,3.28,4.93,4.93,0,0,0-.79,4.78c.68,1.54,2.79,2.43,4.19,1.48-4.61.56-8.72,3.1-12.64,5.6a21.07,21.07,0,0,0-5.89,4.87c-1.52,2-2.24,4.91-1.14,7.22-3-1.22-6.52.44-8.86,2.73s-4,5.19-6.46,7.37c-2.77,2.47-6.34,3.85-9.33,6s-5.51,5.81-4.62,9.42c1.07,4.34,6.17,6.1,10.51,7.14l-7.72,1,.26.69c3.92,13.48,12,25.33,17,38.45a10.09,10.09,0,0,0,1.86,3.52,3.2,3.2,0,0,0,3.62.91l.63,0c-1,1.27-2.13,2.65-2.21,4.29-.08,1.92,1.26,3.58,2.52,5l9.75,11.2.11,0c-1.18,4-2.44,8.21-5.2,11.39a22,22,0,0,1-5.58,4.38,43.59,43.59,0,0,1-22.45,6,65.57,65.57,0,0,0,23.27,3.75c3.75-.08,7.77-.42,11,1.49s4.82,5.44,6.82,8.53c1.51,2.32,4,4.69,6.65,3.88l.42.34a113.72,113.72,0,0,0,22.46,29.87l.17,1.35a58.06,58.06,0,0,1-2.21,13.29,12.33,12.33,0,0,0-5.92-.8c-2,.39-3.85,2.11-3.66,4.12a4,4,0,0,0,3.45,3.27,8.46,8.46,0,0,0,4.93-1,1.34,1.34,0,0,1,1-.19,1.21,1.21,0,0,1,.57.57,32.75,32.75,0,0,1,4.52,12,17.67,17.67,0,0,0,3-8.23q3.54,5.42,6.57,11.11a10,10,0,0,1,15.44-1.51l.25.6a9.14,9.14,0,0,0-.23,8.36,18.22,18.22,0,0,0,3.89,4.75c6.8,6.58,13.62,13.18,21.13,18.94,1.46,1.13,3.3,2.28,5,1.63.51-.19,1-.52,1.47-.7,2.32-.8,4.26,1.74,6,3.45a11.54,11.54,0,0,0,12,2.41c1.46,2.51-.41,6.51,2,8.2,1.95,1.4,4.49-.42,6.72-1.3a8.56,8.56,0,0,1,11.55,9.69,19.61,19.61,0,0,1,6.94-2.48c2.47-.22,5.2.71,6.41,2.86.72,1.28.82,2.81,1.38,4.16,1.2,2.88,4.37,4.55,7.48,4.85s6.2-.5,9.21-1.31l14.64-3.9.68-.19a31.3,31.3,0,0,0,3,9.25,12.61,12.61,0,0,0,2.62,3.75,13.41,13.41,0,0,0,6.58,2.83,42.07,42.07,0,0,0,32.43-7.07,19.56,19.56,0,0,0,5.22-5.2,11.68,11.68,0,0,1,1.29-1.89,8.22,8.22,0,0,1,1.85-1.33l11.69-6.83.41.69c3.53,22.53,14.13,43.4,18.64,65.75l-.27,2.77a56.12,56.12,0,0,1,.44,6.48c0,3.33-.65,6.68-.26,10l.16,3c2.36,13.08,5.33,27.27,15.52,35.81,2.85,2.39,6.37,4.5,7.47,8s-.71,7.49-2,11.11-1.65,8.32,1.39,10.65c1.73,1.32,4.07,1.44,6.24,1.51l15.44.47c4.78.14,10.48-.18,13-4.27,2-3.35.92-7.91,2.87-11.31,2.19-3.79,7.42-4.69,11.67-3.65s8,3.53,12.11,5c6.14,2.23,12.86,2.19,19.39,1.93,6.35-.26,12.78-.72,18.75-2.89s11.49-6.28,14-12.1c1.59-3.65,1.93-7.71,2.16-11.69.74-12.48.7-25.1-1.79-37.35a190.5,190.5,0,0,0-6.41-22.15l-9.07-27.13c-3.13-9.4-6.32-19.12-5.47-29l-.49-5.57a35.48,35.48,0,0,0,5.57-16.24,43.14,43.14,0,0,0,25.1-5.54c2-1.18,4.06-2.55,6.39-2.92,1.72-.27,3.6,0,5.09-.91s2.15-2.85,3.48-4.07c3.83-3.54,10.78.48,15-2.57,1-.75,1.77-1.85,2.74-2.69,4.36-3.81,12.24-1.64,15.87-6.15a25.65,25.65,0,0,1,2.1-2.91c1.35-1.28,3.35-1.51,5.12-2.13s3.58-2.11,3.28-4l1.21-.84c5.75-.93,12.2-2.58,15-7.68a18.51,18.51,0,0,0,1.75-5.94,117.47,117.47,0,0,0-1-43.51l.56-1.62c1.89,0,3.08-2.11,3.22-4s-.31-3.84.29-5.63c.7-2.1,2.69-3.48,4.7-4.38s4.19-1.49,6-2.72c4-2.69,5.5-8.06,4.91-12.85s-2.89-9.17-5.16-13.43l.1-2a39.21,39.21,0,0,0,4.19-6,12.32,12.32,0,0,0,1.74-4.46,7.34,7.34,0,0,0-8.63-8.19,22.12,22.12,0,0,0,7.61-2l.36-.22a24.21,24.21,0,0,0,23.73,9.33c-3.52.1-6.78-1.76-9.7-3.73a94.63,94.63,0,0,1-11-8.63l1.17-1.26c5.9-3.8,11.31-8.6,14.77-14.71,1.33-2.35,2.36-4.88,3.8-7.17s3.5-4.57,5-7,2.41-5.46,1.62-8.22l.52-.29a15,15,0,0,0,8.18-12.86c.11-5.69-3-12,.19-16.72,1.68-2.54,4.73-3.84,6.63-6.22a15,15,0,0,0,2.56-6.37,50,50,0,0,0,.49-17.46,9.14,9.14,0,0,0-1.66-4.57c-1.06-1.26-3-1.9-4.39-1l-.44-.75a33.55,33.55,0,0,0-4.7-16.44l.65-1a20.57,20.57,0,0,0,6.32-13.42c.16-2.25-.06-4.54.48-6.72s1.91-4.26,2.87-6.4c1.54-3.44,2.07-7.23,2.57-11,1.61-11.88,3-24.9-3.45-35l-.64-1.86a95.07,95.07,0,0,0-4.29-29.29l.87-1,9-14.4a29.26,29.26,0,0,0,3.79-7.66c1.09-4,.37-8.41-1.09-12.34a8.26,8.26,0,0,0-1.87-3.22,3.33,3.33,0,0,0-3.44-.84l-1.89-1.49,2.1-33.24a13.91,13.91,0,0,0-.1-3.76c-.6-2.77-2.79-4.85-4.76-6.89-6.13-6.35-11-13.82-15.73-21.24l-.57-.6c4.65-12.1,4.8-25.41,4.4-38.37-.22-7.26-.78-15-5.21-20.76-3.84-5-9.93-7.58-15.77-9.92l0-1.15a9.52,9.52,0,0,0-.42-5.66l-.66-1.35c2.63-4.06,3.55-9,4.42-13.7a35.29,35.29,0,0,0,.85-9,11.74,11.74,0,0,0-3.7-8.06l-.22-1.11c-.5-11.07-1-22.22-3.68-33s-7.64-21.22-15.84-28.68l-.43-1.25a3.22,3.22,0,0,0,2.73-1.78,9.51,9.51,0,0,0,.89-3.29l.77-5.22a12.64,12.64,0,0,1,1.14-4.25,4.3,4.3,0,0,1,3.48-2.39c1.83,0,3.28,1.51,4.22,3.08s1.67,3.34,3.12,4.45a5.29,5.29,0,0,0,7.76-2.13l-.15-.48c-2.05-.81-4.33-1.84-5.09-3.92a10.66,10.66,0,0,1-.38-2.93,15.08,15.08,0,0,0-4.54-9.69,3.38,3.38,0,0,0-1.43-.93,3.25,3.25,0,0,0-1.82.17,11.87,11.87,0,0,0-8.05,9.73l-.11.63a156.55,156.55,0,0,0-8.16-29.11l.68-6.94c1.55-11.75,3-24.17-1.62-35.08-2.64-6.22-7.09-11.46-11.2-16.81a201.78,201.78,0,0,1-12.17-17.7c-3-5-5.93-10.24-6.81-16a49.19,49.19,0,0,1-.34-8q.21-18.64.41-37.28c.12-10.7,0-22.28-6.48-30.83a5.4,5.4,0,0,0-2.59-2.12c-2.27-.65-4.33,1.45-5.76,3.34L1124.36,1154c-.95,1.24-2,2.56-3.51,3-3.27.91-5.89-2.84-6.75-6.13-1.82-7-1.06-14.59-4-21.17-2.25-5-6.42-8.94-10.49-12.68-12.69-11.66-26.75-23.94-43.93-25.28l-7.5-3.85a227.11,227.11,0,0,1-33.53-66.8c-11-35.72-13.42-74.62-31.93-107.1-4-7-9.82-14.24-17.84-14.58-4.87-.2-10,2.24-14.45.19-6.38-3-5.83-12.12-4-18.92a294.63,294.63,0,0,1,18.49-50.24c6.08-12.77,14.11-26,27.33-31.08,6.32-2.41,13.33-2.71,19.5-5.49,7.54-3.4,13-10.09,18.89-15.85a97.35,97.35,0,0,1,69.8-27.1l8.82,1.32c5.54-.52,9-7.12,7.7-12.53s-6.08-9.36-11.2-11.53-10.71-2.9-16.09-4.28a69,69,0,0,1-22-10c-7.71-5.31-14.55-12.32-23.45-15.24-14.2-4.65-29.25,2.23-43.34,7.2-1.32.47-3,.83-3.94-.22a3.4,3.4,0,0,1-.63-2.16c-.32-7.7,2.4-15.14,4.16-22.64,5.32-22.74,1.93-47.41,11-68.94,1.9-4.54,5.24-9.43,10.16-9.53,5.25-.1,8.72,5.18,11.66,9.54a72.92,72.92,0,0,0,62.83,31.44c5.12-.25,10.42-1.14,14.63-4.08s7-8.38,5.53-13.3c-1.23-4.11-5-6.87-8.18-9.7a49.24,49.24,0,0,1-13.93-19.57c-6.42-17.3-.71-36.88-4.65-54.91a52.13,52.13,0,0,0-6.79-16.6c-2.7-4.3-6.25-8.35-11-10.11-3.27-1.2-6.86-1.22-10.35-1.09a126.44,126.44,0,0,0-27.27,4.11c-7.81,2.08-15.59,4.93-23.68,4.87-7.53-.05-15.62-2.53-22.22,1.09L987,518.5c34.83-72.92,37.58-157.53,69.33-231.84,9.11-21.33,21.39-42.54,41.14-54.7,14.26-8.77,32.42-13,41.8-26.84,1.18-1.75,2.22-3.75,2.07-5.85-.36-5.2-7-7.1-12.2-7.34a135.8,135.8,0,0,0-76.36,19.6c-6.81,4.15-13.42,9-21.16,10.94-14.32,3.6-29.22-3.5-40.91-12.53s-21.87-20.24-35-27-30.88-7.92-41.32,2.53c-4,4-6.54,9.31-10.26,13.62-8,9.28-20.65,13-30.51,20.28-8.33,6.16-14.49,14.74-20.5,23.17l-34.78,48.74-.61-2.73c-8.33-28.73-6.06-59.32-8.69-89.13-3-33.48-12.18-66.15-15.65-99.58-1.37-13.18-2.24-27.49-10.85-37.57a4.91,4.91,0,0,0-3.1-2c-1.38-.11-2.59.84-3.61,1.76-12.68,11.49-19.49,28.05-24.25,44.5s-7.9,33.47-15.09,49C728.28,138,734,116,724.33,99.23c-1.13-2-2.58-3.91-4.71-4.64-2.67-.93-5.62.33-7.85,2.06-7.72,6-9.77,16.57-11.29,26.21l-7.28,46.4c-.32,2-.73,4.26-2.29,5.61-1.78,1.54-4.4,1.43-6.75,1.54a27.41,27.41,0,0,0-18.58,8.6,17.66,17.66,0,0,0-28.42-14c-6.26,4.8-8.55,13-10.48,20.69l-17.24,68.61c-8.52-50.17-44.22-91.31-60.62-139.48L550.3,114a105.74,105.74,0,0,1-14.19-75c.9-4.78,1.4-11.11-3-13.11a8.42,8.42,0,0,0-4.4-.46C512.31,27.15,503.49,45.24,499,61.08c-13.6,47.83-15.9,98.14-15.5,147.87.22,28.33,2,58.7,19.13,81.26a147.78,147.78,0,0,1-89.46-61.58c-3.18-4.76-7.79-10.44-13.29-8.87-8.55,2.45-4.28,16.51-9.92,23.38l-18.72-11.46c-2.21-1.35-4.5-2.78-5.86-5-2.13-3.45-1.49-7.85-2.09-11.86-1.47-9.8-10.13-16.58-16.4-24.25-16.07-19.62-18.77-49.34-39.2-64.35-8.75,28.88-8,60-2.42,89.63s15.9,58.2,26.16,86.58c14.49,40.1,30.4,82.26,63.55,109.07-26.45-2.75-51.56,10.8-74.7,23.91-7.65,4.33-15.32,8.68-22.3,14-6.61,5.06-12.53,11-19.17,16-11.73,8.85-25.4,14.69-38.92,20.44,48.81,21,104.56,13.47,157.09,5.61l4.69-1.25a571.83,571.83,0,0,1,72,38.57c7.16,4.51,14.46,9.44,18.76,16.73-8,6.71-20.15,4.74-29.7.49s-18.58-10.49-29-11.47a30.48,30.48,0,0,0-25.26,10c-2.18,2.46-4,5.31-6.57,7.35-7.63,6-18.67,3-27.9-.1a545.86,545.86,0,0,0-161.2-27.68c-5.51-.11-12.3.66-14.39,5.76s2.52,10.76,7.35,13.7c7.23,4.4,15.63,6.59,22.79,11.1,9.55,6,16.13,15.63,23.4,24.27,31.58,37.55,79.79,59,128.63,63.64,8.93.85,19.29,2,24.08,9.54,5.3,8.39,1,21.14,8.09,28.12A1293.81,1293.81,0,0,0,248.62,698.7c-9.28,1.65-18.72,3.47-27,8S206.35,719,205.11,728.37a10.08,10.08,0,0,0,.87,6.44c2.83,4.87,10,4.06,15.46,2.84,21.13-4.7,43.29-5.73,64.39-.88,30.9,7.1,57.95,26.31,88.8,33.62,30.24,7.17,64.11,3,90.39,19.62l-3,1.44c-31.18-.89-62.63-1.39-93.28,4.41S308,814.25,286,836.32c31.64-.93,63.61-1.84,94.63,4.48,25.36,5.17,49.6,15.07,75.05,19.8,12.89,2.39,26.08,3.45,38.6,7.35s24.66,11.16,30.91,22.68a287.16,287.16,0,0,0-57.59,5.92c-19.83,4.09-39.47,10.3-59.71,10.36-11.42,0-22.8-1.91-34.22-1.61s-23.41,3.19-31.48,11.28c-1.89,1.89-3.57,4.93-1.94,7.06a6.14,6.14,0,0,0,2.57,1.67c18.89,8.07,39.17,13.57,56.05,25.27,12.29,8.52,22.78,20.3,37,25,15.13,5,31.53,1,47.43,0C525,972.81,565,991,602.86,1008.79c3.23,1.51,6.56,3.11,8.86,5.83,4.71,5.55,3.71,13.81,2.18,20.93a291.68,291.68,0,0,1-16,51.14c-2.07,4.94-4.32,9.9-7.84,13.94-5.5,6.32-13.53,9.76-20.12,14.92s-12,13.76-9.14,21.61l-.61,8.68c-2.63,23.43-16.35,44.86-16.93,68.44-.16,6.34.65,12.73-.21,19s-3.79,12.75-9.38,15.75c-4.11,2.19-9,2.21-13.64,2.38a151.9,151.9,0,0,0-19.51,2c-6.64,1.1-13.71,2.93-18,8.1a2.39,2.39,0,0,0-.74,2,2.46,2.46,0,0,0,1.18,1.33,37.92,37.92,0,0,0,10.19,4.76Z"></path>
    <path data-name="1a" data-official="" data-plain="Flower" data-loc="" d="M1552.18,2187.71c5.36-.7,10.67-2.14,16.08-2,8.91.26,17.07,4.79,24.81,9.21l9.81,4.1c1.93.79,4.15,1.51,6,.61a15,15,0,0,0,2.1-1.48,5.29,5.29,0,0,1,3.33-1.12,3.1,3.1,0,0,1,2.75,1.95c.71,2.16-1.66,4.49-.87,6.63.44,1.19,1.71,1.83,2.88,2.36,5.72,2.59,11.53,5.2,17.73,6.14,2.17.32,4.36.44,6.53.69a27.12,27.12,0,0,0,4.5.35c2.67-.13,5.19-1.23,7.81-1.79a17.57,17.57,0,0,1,10.51.85c6.78,2.89,10.67,10.14,16.92,14l.37,9.08c6.25,8.29,6.57,14.54,12.94,22.73a24.26,24.26,0,0,0,4.93,5.18c7,4.89,18.15,2.07,23.5,8.69,3.24,4,2.69,10.11,0,14.51s-7.06,7.46-11.42,10.22c16.58,10.19,23.73,33.29,15.82,51.07-1.45,3.25-3,7.88.12,9.69a6.91,6.91,0,0,0,3.56.6l14.21-.21c2.31,0,4.73,0,6.8,1,4.32,2.2,5.25,8.35,3.23,12.76s-6.11,7.45-10.06,10.26c-13.13,9.31-29.55,18.54-44.46,12.48-3.32-1.35-6.56-3.45-10.13-3.15-2.56.21-4.84,1.65-6.92,3.17-10.3,7.47-18.55,17.51-28.93,24.87s-24.36,11.8-35.83,6.28q-.09,16.45-1.07,32.89c-.27,4.56-1,9.77-4.74,12.33-4.57,3.1-11.93,1-15.32,5.31-3.07,3.94-.21,9.51.57,14.45,1.24,7.88-3.62,15.84-10.4,20.05s-15.1,5.23-23.07,4.9c-6.81-.27-13.78-1.53-19.54-5.17s-10.12-10-9.88-16.85c.12-3.3,1.27-6.5,1.4-9.8s-1.19-7.07-4.28-8.23c-2.59-1-5.74.16-8.13-1.22s-2.93-4.63-3-7.43c-1-23.83,7.08-48.28.4-71.18-1.58-5.41-4-10.62-4.88-16.18-2.21-13.4,4.28-26.54,10.57-38.57l5-10.63a3.84,3.84,0,0,0,1.62-1.94,4.77,4.77,0,0,0-.34-2.94c-3-8.36-8.17-16.12-15.6-21l2.34-7.32c2.12-3.64-.41-8.44-4-10.73s-7.85-3-11.72-4.66c-5.5-2.39-9.91-6.69-14.13-10.95-3.4-3.43-6.81-7-9-11.23s-3.2-9.46-1.47-14c2.45-6.36,9.34-9.68,13.78-14.86,6.32-7.38,7.76-18.68,15.76-24.18,4.4-3,9.94-3.66,15.12-5s10.66-3.84,12.68-8.78Z"></path>
    <path data-name="2" data-official="Æchmea discolor" data-plain="Brilliant Æchmea" data-loc="Brazil" d="M1365.1,2248.69l8.25,27.18a13.92,13.92,0,0,0,2.72,5.69c2.38,2.54,6.27,2.93,9.73,2.57,6.12-.64,11.88-3.07,17.7-5a117.46,117.46,0,0,1,50.07-5.37,48.49,48.49,0,0,1,14.62,3.52c4.21,1.9,7.93,4.74,11.73,7.38a170.28,170.28,0,0,0,28.76,16.09,81.33,81.33,0,0,1,11.39,5.61c7.43,4.84,12.65,12.6,15.6,21a4.77,4.77,0,0,1,.34,2.94,3.84,3.84,0,0,1-1.62,1.94c-2.32,1.55-5.24,1.8-8,2l-18.37,1.32-7,.78a445,445,0,0,1-88.1-2.22c-9.31-1.16-18.67-2.62-28-2-7.59.54-15,2.47-22.57,3.28-9.36,1-18.8.25-28.18-.49-7.41-.59-15-1.21-21.84-4.08-3.62-1.52-7-3.65-10.83-4.61-8.67-2.17-17.47,2-25.88,5a101,101,0,0,1-34.94,5.88c-3.34,0-6.78-.27-9.77-1.75-6-3-8.82-10.35-14.67-13.67-7.58-4.3-17.49-.47-25.64-3.55-6.75-2.55-10.88-9.23-14.51-15.47l-.9.1-13,4.3a8.36,8.36,0,0,0-2.34-9.17c-1.52,4.35-6.51,6.58-11.11,6.78s-9.14-1.12-13.73-1.47a33.46,33.46,0,0,0-18.87,4.15,133.8,133.8,0,0,1-17-52.15l-.89-1.3c13.81-1.38,26-12.66,28.52-26.32s-5-28.52-17.45-34.66c-6.48-3.2-13.8-4.12-21-5l-.6-4.42a14.39,14.39,0,0,0,3.12-8.3l-.23-5c1.59-3.65,1.93-7.71,2.16-11.69.74-12.48.7-25.1-1.79-37.35l4.17-5.19a754.87,754.87,0,0,1-3.35-78.28.76.76,0,0,0-1-.93l-15.07,1.51-6.18-1a35.48,35.48,0,0,0,5.57-16.24,43.14,43.14,0,0,0,25.1-5.54c2-1.18,4.06-2.55,6.39-2.92,1.72-.27,3.6,0,5.09-.91s2.15-2.85,3.48-4.07c3.83-3.54,10.78.48,15-2.57,1-.75,1.77-1.85,2.74-2.69,4.36-3.81,12.24-1.64,15.87-6.15a25.65,25.65,0,0,1,2.1-2.91c1.35-1.28,3.35-1.51,5.12-2.13s3.58-2.11,3.28-4l1.21-.84c5.75-.93,12.2-2.58,15-7.68a18.51,18.51,0,0,0,1.75-5.94,117.47,117.47,0,0,0-1-43.51l.56-1.62c1.89,0,3.08-2.11,3.22-4s-.31-3.84.29-5.63c.7-2.1,2.69-3.48,4.7-4.38s4.19-1.49,6-2.72c4-2.69,5.5-8.06,4.91-12.85s-2.89-9.17-5.16-13.43l.1-2a39.21,39.21,0,0,0,4.19-6,12.32,12.32,0,0,0,1.74-4.46,7.34,7.34,0,0,0-8.63-8.19,22.12,22.12,0,0,0,7.61-2l.36-.22a24.21,24.21,0,0,0,23.73,9.33c-3.52.1-6.78-1.76-9.7-3.73a94.63,94.63,0,0,1-11-8.63l1.17-1.26c5.9-3.8,11.31-8.6,14.77-14.71,1.33-2.35,2.36-4.88,3.8-7.17s3.5-4.57,5-7,2.41-5.46,1.62-8.22l.52-.29a15,15,0,0,0,8.18-12.86c.11-5.69-3-12,.19-16.72,1.68-2.54,4.73-3.84,6.63-6.22a15,15,0,0,0,2.56-6.37,50,50,0,0,0,.49-17.46,9.14,9.14,0,0,0-1.66-4.57c-1.06-1.26-3-1.9-4.39-1l-.44-.75a33.55,33.55,0,0,0-4.7-16.44l.65-1a20.57,20.57,0,0,0,6.32-13.42c.16-2.25-.06-4.54.48-6.72s1.91-4.26,2.87-6.4c1.54-3.44,2.07-7.23,2.57-11,1.61-11.88,3-24.9-3.45-35l-.64-1.86a95.07,95.07,0,0,0-4.29-29.29l.87-1,9-14.4a29.26,29.26,0,0,0,3.79-7.66c1.09-4,.37-8.41-1.09-12.34a8.26,8.26,0,0,0-1.87-3.22,3.33,3.33,0,0,0-3.44-.84l-1.89-1.49,2.1-33.24a13.91,13.91,0,0,0-.1-3.76c-.6-2.77-2.79-4.85-4.76-6.89-6.13-6.35-11-13.82-15.73-21.24l-.57-.6c4.65-12.1,4.8-25.41,4.4-38.37-.22-7.26-.78-15-5.21-20.76-3.84-5-9.93-7.58-15.77-9.92l0-1.15a9.52,9.52,0,0,0-.42-5.66l-.66-1.35c2.63-4.06,3.55-9,4.42-13.7a35.29,35.29,0,0,0,.85-9,11.74,11.74,0,0,0-3.7-8.06l-.22-1.11c-.5-11.07-1-22.22-3.68-33s-7.64-21.22-15.84-28.68l-.43-1.25a3.22,3.22,0,0,0,2.73-1.78,9.51,9.51,0,0,0,.89-3.29l.77-5.22a12.64,12.64,0,0,1,1.14-4.25,4.3,4.3,0,0,1,3.48-2.39c1.83,0,3.28,1.51,4.22,3.08s1.67,3.34,3.12,4.45a5.29,5.29,0,0,0,7.76-2.13l-.15-.48c-2.05-.81-4.33-1.84-5.09-3.92a10.66,10.66,0,0,1-.38-2.93,15.08,15.08,0,0,0-4.54-9.69,3.38,3.38,0,0,0-1.43-.93,3.25,3.25,0,0,0-1.82.17,11.87,11.87,0,0,0-8.05,9.73l-.11.63a156.55,156.55,0,0,0-8.16-29.11l.68-6.94c1.55-11.75,3-24.17-1.62-35.08l4.59-8.14c10.83-31.59,20.13-64.68,17.1-97.94-1.13-12.41-4-24.75-3.24-37.19s5.88-25.56,16.74-31.67c6.28-3.54,13.74-4.34,21-4.26a96.48,96.48,0,0,1,49.85,14.71c14.69,9.24,28,22.92,45.35,24.19,9.12.67,18.07-2.31,27.08-3.87s19.18-1.41,26.2,4.46c5.3,4.43,7.8,11.27,10.08,17.79L1408.4,1179,1426,1137.1l-.38-7.73a315.59,315.59,0,0,1-34.93-78.26c-1.38-4.73-2.64-9.82-1.09-14.49,2.12-6.43,8.78-10,14.86-13l20.81-10.16c2.14-1.05,4.37-2.16,5.81-4.07,2-2.64,2.06-6.21,2-9.51a638.5,638.5,0,0,0-4.16-65.85,138.81,138.81,0,0,1-46.49-19.76c-1.83-1.21-3.73-2.51-5.91-2.78-4.18-.53-7.74,2.7-11.41,4.74-11.4,6.34-25.69,1.4-37-5a159.33,159.33,0,0,1-36.8-28.53,6.59,6.59,0,0,0-3.15-2.19c-1.5-.31-3,.48-4.33,1.17-8.29,4.2-18.27,5.51-27,2.29s-15.74-11.37-16.39-20.63,6-18.86,15.13-20.42l-3.93-7.64-19.78-21.34a10.16,10.16,0,0,0-4.08-3.12c-2.07-.67-4.3,0-6.4.64a52,52,0,0,1-37-3.68,27.07,27.07,0,0,1-9.23-7.06c-3.89-5-4.95-11.52-5.31-17.81a103.53,103.53,0,0,1,10.69-51.77c-4.65.75-8.75-3-11.58-6.79s-5.59-8.14-10.1-9.52c-4.19-1.27-8.61.44-12.82,1.61a53.36,53.36,0,0,1-19.92,1.68,28.35,28.35,0,0,1-12.57-3.92c-6.37-4.11-9.82-11.81-10.17-19.38s2-15,5.33-21.87a19.33,19.33,0,0,0,2.14-5.75c.27-2-.17-4.07-.24-6.11A16.94,16.94,0,0,1,1121,645.2c3.74-1.48,7.87-1.55,11.78-2.48s8-3.15,9.17-7c.7-2.21.33-4.6.44-6.91.53-10.2,11.12-17.75,21.34-17.85s19.68,5.48,27.38,12.2c2.7,2.35,6,5.05,9.44,3.94,2.93-1,4.3-4.41,4.3-7.5s-1-6.11-1-9.19c0-8.92,8.3-16.19,17.09-17.69s17.72,1.5,25.77,5.33a8.21,8.21,0,0,0,4.08,1.14c2.86-.26,4.52-3.63,4.19-6.48s-2-5.33-3.36-7.87a34.55,34.55,0,0,1-2.22-26.46c2.39-7.32,7.32-14.3,6.35-21.94l-4.35-1.33c-10.65-4.56-21.93-9.64-28.22-19.38-3.42-5.29-5-11.54-6.12-17.74a120.1,120.1,0,0,1-1.74-23.65c.19-7.3,1.31-15.16,6.34-20.45,4.46-4.69,11.22-6.47,17.68-6.82s13,.5,19.4.08c-4.49-8.8.64-21.07,10.07-24.05,2.92-.92,6.07-1.05,8.92-2.15s5.53-3.67,5.32-6.72c-.19-2.82-2.63-4.84-4.52-6.94-5.92-6.54-7.27-16.5-4.39-24.84s9.56-15.05,17.39-19.12c10.77-5.6,23.53-6.55,34.18-12.4a10.91,10.91,0,0,0,3.8-3c1.41-2,1.56-4.55,1.65-7,.23-5.73.45-11.57-1.11-17.09s-5.24-10.75-10.64-12.7c-2.92-1.05-6.11-1.07-9.11-1.91-9.65-2.68-15.33-14.12-13-23.87s11.28-17.1,21.1-19.09l2.67-6.4c1.09-13.5,2.16-27.29-1.13-40.43-3.45-13.76-11.5-26-15.42-39.61s-2.36-30.74,9.45-38.61c4.48-3,9.88-4.24,15.21-5a90.84,90.84,0,0,1,22.53-.29c11.67,1.3,23.35,4.85,35,3-9.79-24-6.26-52.89,9-73.79,4.63-6.34,10.4-12.06,17.55-15.3s15.84-3.67,22.71.12c7.32,4.05,11.51,12.08,14.07,20a83.76,83.76,0,0,1,4,27.85c0,1.86-.12,3.87.91,5.43,2.22,3.37,7.45,2.18,11.17,3.78,4.14,1.77,6.22,7,10.58,8.15,2.71.7,5.51-.41,8.21-1.16a31.66,31.66,0,0,1,24.83,3.62l3.13,6.69a48.59,48.59,0,0,1-17.1,42.43c-1.17,1-2.49,2.06-2.57,3.57-.07,1.3.82,2.42,1.66,3.42l12.2,14.42a7.45,7.45,0,0,0,1.75,1.66c1.93,1.16,4.37.36,6.59,0,8.64-1.32,16.92,5.32,20.36,13.35s3.14,17.12,2.61,25.84c-.24,3.79-.67,7.95-3.41,10.58-.8.78-1.85,1.48-2.05,2.59-.23,1.28.79,2.42,1.74,3.33,3.5,3.38,7.07,6.85,9.27,11.2a22,22,0,0,1-17.67,31.87c-9.06.8-17.64-4-25-9.29l-6.39,5.21c2.38,11.69-8.34,22.46-8.06,34.38.14,6.08,3.13,11.66,5.32,17.32,5.24,13.48,6.06,29.13-.16,42.19-2.85,6-7.07,11.28-9.36,17.5-5.35,14.52.41,32.18-7.8,45.3-6.63,10.58-20.32,14.66-28.08,24.43a4.66,4.66,0,0,0-1.27,2.79c0,1.65,1.71,2.87,3.35,3a9.91,9.91,0,0,0,4.71-1.26c13.72-6.21,28.15-13,36.54-25.53,2.82-4.22,4.85-8.95,7.91-13A31.07,31.07,0,0,1,1544,428c4.89,4.64,8.13,10.72,11.27,16.69,3.35,6.35,6.72,12.78,8.46,19.75s1.74,14.61-1.51,21c-1.28,2.53-3.08,5.43-1.81,8,.87,1.75,2.89,2.54,4.71,3.28a59.73,59.73,0,0,1,28,23.4l2.66,9.26a45.85,45.85,0,0,1,2.9,13,13,13,0,0,1-.41,5.19c-1,2.86-3.52,4.84-5.94,6.66-7.28,5.44-15.11,11.1-24.17,11.71-4.21.28-8.58-.55-12.55.88a14.7,14.7,0,0,0-8,7.91A29.36,29.36,0,0,0,1545.3,586c0,1,.08,2.14,1,2.53a2.46,2.46,0,0,0,1.74-.14c7.49-2.59,15-6.87,22.82-5.38l7.1,1.81c2.93,2.93,4.2,7.2,4.38,11.34.86,19.63-19.33,34.67-21.1,54.24a59.57,59.57,0,0,1,23.69,4.07c3.23,1.27,6.42,2.84,9.88,3.2s7.35-.82,9-3.85.76-6.71.92-10.15c.4-9.12,8.57-16,17-19.62,8-3.38,17.08-4.81,25.38-2.33s15.55,9.4,16.89,18c.29,1.87.4,4,1.8,5.28s3.58,1.23,5.51,1.24a27.85,27.85,0,0,1,18,6.16c4.93,4.19,8,10.72,7.31,17.15-.72,6.81-5.27,12.51-8.21,18.7a42.31,42.31,0,0,0,3.6,41.71c11.72-11.94,30-19,34.71-35.1,2.91-10-.57-20.6-3.33-30.65s-4.63-21.51.91-30.33c4.42-7.05,12.73-10.79,20.93-12.2,22-3.8,43.9,6.32,63.09,17.74,9.22,5.49,18.46,11.56,24.65,20.32l2.76,9.51c3.58,12.78-.94,27.18-10.39,36.49s-23.27,13.62-36.5,12.54c-3.69-.31-8.31-.56-10.12,2.67a9.07,9.07,0,0,0-.82,4.1l-.79,20.59c-.12,3.09-.18,6.39,1.47,9,2.07,3.29,6.23,4.54,9.14,7.12,6.16,5.44,6.52,16.44,14.08,19.66,2.56,1.09,5.5,1,8,2.12a11.7,11.7,0,0,1,6.22,8.06,23.56,23.56,0,0,1-.28,10.46,50,50,0,0,1-25.5,33.37c-3.37,1.74-7,3.12-10,5.4-7,5.28-10,14.57-16.6,20.32l-5.24,3.33c-3.17,5.72-8.62,9.75-13.9,13.59-11,8-22.13,16.09-34.59,21.59s-26.53,8.3-39.81,5.28c-3.21-.73-6.7-1.77-9.67-.34-1.84.87-3.14,2.56-4.65,3.93-4,3.66-9.58,5.1-14,8.25-8.25,5.85-11.34,16.49-13.53,26.37-7,31.43-10.47,63.6-18.47,94.79-5.86,22.87-14.21,45.81-12.38,69.34,1.35,17.22,8.08,33.5,14.73,49.44l-.32,11.25c12.59,36.81,15.68,76.32,28.08,113.19,4.7,14,10.7,27.46,16.69,40.93q12.75,28.64,25.48,57.27c1.61,3.6,3.47,7.48,7,9.19,4.11,2,9,.37,13.06-1.69,25.85-13.15,40.59-42.79,67.06-54.65,16.49-7.38,35.28-6.83,53.33-6.13,8.38.32,17,.69,24.7,4,9.54,4.08,16.76,12.27,22.29,21a102.67,102.67,0,0,1,15.68,52.18l-1.92,7.67-1.39,34.75c-.27,6.52-.52,13.12.81,19.51,2,9.45,7.38,18.51,6.09,28.08a9.53,9.53,0,0,1-1.57,4.4,12.12,12.12,0,0,1-4.75,3.3c-3.48,1.66-7.16,3.37-11,3.12-3.26-.21-6.26-1.8-9.13-3.35l-17.7-9.57c-5.3-2.88-10.66-5.78-15.19-9.77-13.24-11.65-17.26-30.22-24.5-46.3-3.48-7.72-8.43-15.58-16.38-18.53-3.68-1.36-8.55-1.15-10.64,2.17a11.63,11.63,0,0,0-1.27,5.48c-1.57,23-7.1,46.07-19.58,65.39,20.85,4.11,38.53,21.31,43.22,42l.12,4.17c.75,4.71,1.5,9.49.91,14.22s-2.71,9.49-6.65,12.19c-2.94,2-6.84,2.9-8.83,5.87-3.35,5,1,12.3-1.63,17.72,23.54-3.82,48.58-7.47,70.52,1.88a82.75,82.75,0,0,1,22.3,14.68,118.65,118.65,0,0,1,39,81.61c.83,16.55-1.65,34.14,5.93,48.86,2.27,4.4,5.46,8.65,5.59,13.6s-5.1,10.23-9.41,7.8l-7.38-.77c-10.25-3.88-22-1-31.44,4.55s-17.12,13.6-25.21,21c-30.12,27.49-66.78,46.74-104,63.36-14.49,6.46-29.74,12.69-45.58,12a12.71,12.71,0,0,0-4.77.32c-3.46,1.21-4.88,5.21-6,8.7a171.47,171.47,0,0,1-41,68.4,84.15,84.15,0,0,1,22.24,17.09c3.57,3.85,6.83,8.08,11.13,11.09,9.34,6.52,21.76,6.19,32.35,10.36a40.74,40.74,0,0,1,25.16,36.08l3.65,7.86a87,87,0,0,1,20,35.92c.88,3.2,1.59,6.5,3.16,9.42,4.65,8.64,15.63,12.12,21,20.34,7.85,12,1,29.54,8.88,41.57,3.42,5.26,9.16,8.6,12.91,13.63,5,6.69,5.94,15.56,9.79,23,3.53,6.8,9.4,12.17,12.91,19,3.36,6.51,4.36,13.93,5.32,21.19.8,6.15,1.4,13.08-2.54,17.86-4.91,5.94-13.92,5.39-21.52,6.65-16.38,2.73-29.18,15.73-44.94,21-8.49,2.82-17.56,3.31-26.51,3.44q-15.6.24-31.19-.85c-11-.78-23.52-2.95-29.4-12.29l-2.05-5.85c-6.25-3.9-10.14-11.15-16.92-14a17.57,17.57,0,0,0-10.51-.85c-2.62.56-5.14,1.66-7.81,1.79a27.12,27.12,0,0,1-4.5-.35c-2.17-.25-4.36-.37-6.53-.69-6.2-.94-12-3.55-17.73-6.14-1.17-.53-2.44-1.17-2.88-2.36-.79-2.14,1.58-4.47.87-6.63a3.1,3.1,0,0,0-2.75-1.95,5.29,5.29,0,0,0-3.33,1.12,15,15,0,0,1-2.1,1.48c-1.89.9-4.11.18-6-.61l-9.81-4.1c-7.74-4.42-15.9-9-24.81-9.21-5.41-.16-10.72,1.28-16.08,2-15,2-30.12-1.84-44.79-5.62l-9.43-.53a62.18,62.18,0,0,1-21.72-13.5,31.28,31.28,0,0,1-7.89-10.93c-2.83-7.3-1.35-15.47-1.64-23.29s-3.61-16.81-11.16-18.87c-3.84-1-7.91,0-11.72,1.12-6.58,2-13.13,4.37-18.74,8.34-5.8,4.12-10.33,9.75-14.73,15.34-13.93,17.69-27.4,35.8-42.82,52.21-5.83,6.19-12,12.19-16.72,19.25-1.66,2.47-3.18,5.2-3.3,8.17a15.36,15.36,0,0,0,2.36,7.89,42.66,42.66,0,0,0,9.46,11.67Zm-151.28,147.78c-1.45,2.85-3.37,5.47-4.58,8.42s-1.67,6.48-.14,9.29a3.25,3.25,0,0,0,1.31,1.41,6.55,6.55,0,0,0,1.82.37c2,.33,3.62,1.74,5.59,2a10.23,10.23,0,0,0,4.63-.83c5.3-1.84,11-4,14.07-8.64s2.83-10.56,2.1-16c-.38-2.82-1-5.86-3.12-7.74s-4.88-2.08-7.54-2.25c-2.49-.16-5.25-.16-7.1,1.5a9.71,9.71,0,0,0-1.94,2.86l-2.78,5.35Z"></path>
    <path data-name="3" data-official="Tillandsia acaulis, zebrina" data-plain="Zebra-leaved Tillandsia" data-loc="Rio Janeiro" d="M950.8,2126.27a22,22,0,0,1-6,9.55c-1.56,1.46-3.38,2.74-4.4,4.62-1.58,2.92-.86,6.48-.42,9.77,2.45,18.46-6.6,37.95-22.27,48-12.76,8.18-28.67,10.14-41.65,18a3.48,3.48,0,0,0-1.25,1.06,3.3,3.3,0,0,0,.23,3.05,15.89,15.89,0,0,0,15.77,8.87c4.22-.48,8-2.65,12.08-3.94a29.71,29.71,0,0,1,15-.75c3.83.8,7.54,2.37,11.45,2.37a29,29,0,0,0,8.26-1.63l10.27-3.1c2.2-.66,4.56-1.44,5.84-3.35.9-1.35,1.09-3.05,1.71-4.56,1.55-3.8,5.59-5.94,9.49-7.21s8.08-2.06,11.4-4.46l7-5.53,15.44.47c4.78.14,10.48-.18,13-4.27,2-3.35.92-7.91,2.87-11.31,2.19-3.79,7.42-4.69,11.67-3.65s8,3.53,12.11,5c6.14,2.23,12.86,2.19,19.39,1.93,6.35-.26,12.78-.72,18.75-2.89s11.49-6.28,14-12.1l.23,5a14.39,14.39,0,0,1-3.12,8.3l.6,4.42c7.16.89,14.48,1.81,21,5,12.44,6.14,19.93,21,17.45,34.66s-14.71,24.94-28.52,26.32c-4.33-.75-9,4.68-12.32,7.59-3.76,3.32-7.31,7.24-8.59,12.09-.58,2.19-.67,4.49-1.35,6.65-.91,2.92-2.82,5.4-4.18,8.13-2.23,4.48-2.93,9.54-3.6,14.5l-2.31-19.7c-.14-1.19-.41-2.58-1.48-3.11a13.71,13.71,0,0,0,4.08-10.47,5.8,5.8,0,0,0-.92-3.09,7.67,7.67,0,0,0-2.48-1.91c-5-3-9.9-7.46-10.55-13.29-.32-2.93.4-6.17-1.18-8.66a10.36,10.36,0,0,0-2.7-2.58c-1.31-1-2.78-2-4.41-1.85a7.19,7.19,0,0,0-3,1.19c-12.44,7.26-25.34,15-33.14,27.06l-3.45,2.51c-4.2,1.73-5.85,6.62-8,10.6a32.9,32.9,0,0,1-14.14,13.27,43.89,43.89,0,0,1-19,4.4,3,3,0,0,0-2.07.54,6.4,6.4,0,0,0-.84,1.44c-1.68,2.78-6.35.78-9,2.62a4.14,4.14,0,0,0,2,2.15c-1.27,1.63-3.64,1.77-5.71,1.76l-17,0a5.07,5.07,0,0,0,1.74,2.46c-2.61,2.75-7.43.58-10.92,2.08-1.24.54-2.25,1.53-3.5,2.06a10.71,10.71,0,0,1-5,.43c-1.28-.09-3-.85-2.57-2.05.28-.74,1.37-1.5.78-2a1,1,0,0,0-.92,0c-3.14,1-5.39,4.84-8.66,4.36l-1.39.77a2.08,2.08,0,0,1,1.17,2.74,4.92,4.92,0,0,1-2.34,2.34,17.76,17.76,0,0,1-8.65,2.35,3.64,3.64,0,0,1-2.11-.47,1.45,1.45,0,0,1-.52-1.91,11.66,11.66,0,0,0-7.09,5.9,3.49,3.49,0,0,0-3-2.76,8.1,8.1,0,0,0-4.27.85,25.56,25.56,0,0,0-8.16,5.66,3.26,3.26,0,0,0-1.2,2.44,11.5,11.5,0,0,1,.23,1.14c0,1.54-2.18,1.81-3.72,1.64a22.46,22.46,0,0,0-12.54,1.9,14.25,14.25,0,0,0-7.78,9.68l-.19-.62a28.21,28.21,0,0,0-23.66,6.52,59.93,59.93,0,0,0-11-6.67c-3-1.4-6.27-2.57-9.53-2.08s-6.41,3.16-6.39,6.46A37.73,37.73,0,0,1,782,2343c-1.51-1.29-3-2.74-5-3.15-3.09-.65-6,1.54-8.39,3.6l-1-.25c.94-2.53-.1-5.38-1.55-7.65s-3.34-4.3-4.35-6.8c-.59-1.46-1-3.16-2.26-4a4.34,4.34,0,0,0-4.44.26,10.86,10.86,0,0,0-4.69,6.48,32,32,0,0,0-1,8.12c-3.31-3.54-2.28-9.77-5.79-13.09-2.19-2.07-5.47-2.35-8.47-2.51l-12.82-.71c-.92-.05-2.09-.3-2.24-1.21-.25-1.51,2.47-1.74,3-3.19l-.19-.84a31.61,31.61,0,0,0-8.82-7.83,8.49,8.49,0,0,0-3.69-1.39,7.17,7.17,0,0,0-3.27.67,13.49,13.49,0,0,0-7.22,16.12,24.93,24.93,0,0,0-18.8,3.17c-2.17,1.37-4.32,3.59-3.88,6.12a27.2,27.2,0,0,0-28.53,6.28,81.53,81.53,0,0,0-.48-9.51c-.35-3.25-1.51-7.15-4.7-7.83-2.88-.61-5.38,1.85-7.69,3.68a22.76,22.76,0,0,1-6.91,3.75v.23c-.7-4.76-1.54-9.62-3.95-13.79s-6.72-7.54-11.53-7.52c-5.2,0-9.56,3.82-14.55,5.26a12.12,12.12,0,0,0-11.31-14.86,15.71,15.71,0,0,0-13.2-21.27l-.27-.13a6.87,6.87,0,0,0-1.94-8.42l-.51.06A11.53,11.53,0,0,0,558,2285c-3.79,1-7.61,2.35-10.49,5s-4.64,6.83-3.46,10.56c-1.38-3.25-5.35-4.46-8.87-4.81-13.29-1.35-27.29,4.52-35,15.45l-.52.33c.15-4.81-3.52-9.21-8-10.87s-9.63-.91-14.05,1c-1.35.59-2.65,1.28-3.95,2l-6.71,3.58-.69-.12a9.27,9.27,0,0,0,1.16-4.11,2.48,2.48,0,0,0-.5-1.85,2.53,2.53,0,0,0-1.21-.61c-4.95-1.4-10.36,0-14.8,2.56s-8.11,6.31-11.71,10a13.08,13.08,0,0,0-18.39-9.59,9.85,9.85,0,0,0-7.85-5,15.5,15.5,0,0,0-9.27,2.37l-.48,0a11.88,11.88,0,0,0-10.43-6.27c-.56,0-1.26,0-1.48-.54a1.39,1.39,0,0,1,.13-1l1.22-2.95c-2.92,1.74-6.1,3-8.92,4.95s-5.36,4.54-6.13,7.86a42.15,42.15,0,0,0-8.94-9.29c-.94-.72-2.11-1.44-3.25-1.1a4.43,4.43,0,0,0-1.94,1.66,18.07,18.07,0,0,1-14.14,6.37c2.36-1.2,5.13-3.21,4.5-5.77-.55-2.2-3.27-3-5.53-3a11.56,11.56,0,0,0-7.41,2.24c-2,1.68-3.13,4.63-2.11,7.06l.22.32a53.21,53.21,0,0,1-16-11.88c-1.17-1.28-3.12-2.69-4.39-1.52-.57.52-.73,1.41-1.36,1.86-1.23.88-2.92-.64-4.39-.29-1,.24-1.56,1.22-2,2.13a36.76,36.76,0,0,0-3,9.49,11.63,11.63,0,0,0-17,11.36l3.42-.48.05,3.87a12.76,12.76,0,0,0,12.09-10,2.47,2.47,0,0,1,2.17,1.7,23.87,23.87,0,0,0,1,2.76,4.64,4.64,0,0,0,5.78,1.56,7.55,7.55,0,0,0,3.89-5,22.61,22.61,0,0,0,.48-6.52,13.31,13.31,0,0,1,6.76,4.74c1.69,2.28,2.83,5.26,5.44,6.37a7.06,7.06,0,0,0,4.52.13,12.06,12.06,0,0,0,8.37-8l6,5.42c1.16,1,2.45,2.13,4,2.16a4.42,4.42,0,0,0,3.7-2.34,13,13,0,0,0,1.37-4.37l-.09.24a7.89,7.89,0,0,0,14.83.78,16.55,16.55,0,0,0,9.47,3.11,13.85,13.85,0,0,1,3.47.18,3.06,3.06,0,0,1,2.4,2.25,5.6,5.6,0,0,0-8.77,5.94,1.82,1.82,0,0,0,.52.94,2.19,2.19,0,0,0,1.48.33c2-.05,4.24-.23,5.45-1.8a5.32,5.32,0,0,1-1.35,7.93c-1.27.67-2.76.78-4.06,1.39-2.33,1.08-3.7,3.64-4.05,6.19a23,23,0,0,0,.66,7.65,15.94,15.94,0,0,0-14.42,13.67,3.43,3.43,0,0,0,.27,2.17,4,4,0,0,0,1.23,1.14l4.33,3a15.26,15.26,0,0,0-14-2.38,48.07,48.07,0,0,1-5.49,2c-3,.61-6.29-.25-9,1.14-2.52,1.3-3.77,4.21-4.35,7s-.71,5.7-1.88,8.29l-.55-1.08c-.72-2.56.13-5.57-1.39-7.75-1.2-1.73-3.45-2.29-5.51-2.68-8.72-1.64-17.86-2.37-26.35.19a8.86,8.86,0,0,0-2.67-8.09,13.48,13.48,0,0,0-8.05-3.45c-2.15-.22-4.94-.49-5.47-2.59l-.49.38c-9-1.06-15.36-8.95-22.32-14.78A57.08,57.08,0,0,0,240.57,2324c-6.19-1.49-12.57-1.92-18.92-2.35l-21.87-1.48c-6.09-.41-12.27-.84-18-3-4.74-1.75-9-4.6-13.12-7.52-8.49-6-16.9-12.7-22-21.78l-2.45-5.16c-1.42-11.13-2.85-22.45-1.13-33.54s7-22.14,16.43-28.26a61.61,61.61,0,0,1-14.92-15.38c-27.89,15-58.27,27.84-89.93,27.12-3.25-.07-7-.56-8.74-3.3a7.31,7.31,0,0,1-.92-4.55c.45-5.21,4.23-9.48,8.05-13.06,17.59-16.47,39.74-27,61.07-38.25,3.57-1.88,7.71-4.95,6.82-8.89a9.94,9.94,0,0,0-2.53-4A98.93,98.93,0,0,1,98,2122.9l-1.51-5a263.85,263.85,0,0,1-42.15-48.58c-4-5.95-7.86-12.35-8.53-19.49-1.12-12,6.81-22.68,13.12-33,9.56-15.59,16.19-33.6,15-51.85-.54-8.64-2.8-17.21-2.14-25.84.69-8.94,4.46-17.32,8.45-25.35,4.18-8.42,8.65-16.69,13.12-25,2.85-5.28,5.81-10.69,10.46-14.49,3.62-3,8-4.72,12.37-6.45l21.29-8.49-4.39-3.07-10.48-15.47c-1.83-2.69-3.81-5.52-6.8-6.81-3.68-1.59-9-1.14-10.46-4.87-.78-2,.17-4.34-.21-6.48-.52-3-3.37-4.85-5.65-6.83-10-8.75-11.36-23.8-10.26-37.08s3.81-27.09-.79-39.59a8.66,8.66,0,0,0-2.75-4.25,9.27,9.27,0,0,0-4.92-1.3c-12.42-.7-25.48,1.88-36.92-3l-7-2.72c-5.39-.61-9.81-5-11.86-10s-2.12-10.63-1.79-16c.43-6.89,1.8-14.37,7-18.86,7.76-6.65,19.84-3.59,29.37-7.29,7.33-2.86,12.52-9.52,16.2-16.48s6.26-14.5,10.44-21.17C94,1625.83,107,1617.23,121,1613.73l3.47-4.52q5.55-49.08,13.6-97.84c.91-5.54,3.43-12.51,9.05-12.47a8.57,8.57,0,0,1,5.91,2.94c4.13,4.31,5.22,10.62,5.85,16.55,3,27.81.47,55.88.75,83.85,0,2.44.14,5.07,1.62,7,2.51,3.29,7.43,3,11.55,2.66,14.46-1.09,28.9,1.86,43,5.1,9,2.07,18.2,4.33,26.21,9s14.84,12.18,16.58,21.29c6.66-8.18,17-12.22,26.84-16s20.17-7.94,26.65-16.25,7.16-22.11-1.4-28.27c-7.7-5.53-18.31-2.59-27.36.22-13.18,4.07-26.8,7.42-40.58,7s-27.87-5-37.48-14.94c-6.23-6.4-10.28-14.7-12.55-23.35a69.1,69.1,0,0,1-1.43-28.23c1.65-10.44,5.67-20.36,7.75-30.72s2-21.85-4-30.59c-4.47-6.58-11.62-10.72-18.27-15.08-15.38-10.09-30.24-24.23-32.25-42.52-.67-6.1.12-12.51-2.25-18.17-2.48-6-8-10-12.27-14.81a43.13,43.13,0,0,1-8.87-40.19l1.17-4.09c1.43-2.87,0-6.41-2.17-8.75s-5-4-7.32-6.2c-6.37-6.29-7.07-16.24-6.67-25.19.41-9.4,1.72-19.13,6.77-27.07,5.84-9.22,15.84-14.78,25.33-20.16,24.44-13.85,49.51-30.38,60.92-56,4.78-10.73,7-22.82,14.29-32.05,6-7.67,14.89-12.51,22.36-18.8a71.7,71.7,0,0,0,19.62-26.45c3.07-7.16,5-14.93,9.62-21.22,8.05-11,24.14-15.24,36.56-9.61,15.41,7,22.65,25.63,37.65,33.45,5.48,2.86,11.66,4.07,17.46,6.23,8.41,3.13,15.95,8.22,24.12,11.93s17.61,6,26.11,3.13L415,1139l39.47,8.13c16.14,3.33,33.26,7.16,45,18.78,1.62,1.61,3.22,3.8,2.55,6s-3.26,3.12-5.51,3.62c-35.8,8-72.41-6.69-109-9.13-7.61-.51-15.28-.48-22.81-1.71-8.54-1.38-17.06-4.37-25.61-3.14-7.18,1-13.76,5-21,5.57-6.25.51-12.67-1.52-18.73.09-11.87,3.15-16.3,18.06-26.68,24.62,18.95,22,24.87,54.3,47.66,72.34,6.56,5.18,14.17,8.87,20.91,13.81a69,69,0,0,1,23.43,30.67c2.13,5.53,4.73,12.4,10.62,13,4.88.55,9-3.9,10.66-8.5s1.88-9.69,3.81-14.2c5-11.75,19.86-15.74,32.63-15.19s25.68,4.1,38.16,1.31c13.34-3,25.86-13.07,39.17-9.95l10.12.31c6.08,4.08,14,4.15,20.67,7.19,2.32,1,4.49,2.46,6.95,3.14,4.78,1.32,10.24-.28,14.64,2,2.38,1.25,4.08,3.5,5.54,5.76a58.44,58.44,0,0,1,8.7,23.69c.24,1.74,1,4,2.77,3.84l.11.32a6.4,6.4,0,0,0-4.83,3.69c-1.28,2.88-.28,6.4-1.66,9.23s-4.86,4.23-6.67,6.89c-1.62,2.36-1.72,5.43-1.46,8.29a67.78,67.78,0,0,0,4.35,17.07l-.62,1.13a9.94,9.94,0,0,0-6.28,3.06,29.49,29.49,0,0,0-4.22,5.74l-4.43,7.17-.16.29a33.6,33.6,0,0,0,16.64,2.83l.77.23c.27,3.21.57,6.53,2.17,9.33a27.38,27.38,0,0,0,2,2.88c2.76,3.58,5.25,7.67,5.45,12.19l.32.29a19.27,19.27,0,0,0-4.4,27.31l.61.12a179.37,179.37,0,0,0-.53,18.84l-.93.26c-3-2.47-6.49-5.08-10.32-4.51a9.37,9.37,0,0,0-5.88,3.85,27.9,27.9,0,0,0-3.26,6.39,12.76,12.76,0,0,1,3.54-2.28,4.34,4.34,0,0,1,4,.37c1.17.89,1.58,2.46,2.42,3.67,2.13,3.1,6.66,3.56,9.22,6.31-3.13,1.58-4.25,5.8-3.1,9.11s4.07,5.73,7.22,7.25l.72.9c-1.41,2.68-1.11,6-.06,8.81a58,58,0,0,0,4.26,8c1.61,2.85,2.93,5.86,4.25,8.86l-1.07.84c-4.68-.8-9.62-1.57-14,.13s-7.45,5.42-10.66,8.79-7.1,6.64-11.74,6.83a10.16,10.16,0,0,0,7.72.27,23.45,23.45,0,0,0,6.82-4,33.59,33.59,0,0,1,5.05-3.6c4.95-2.57,10.9-1.84,16.42-1l0,0a17.48,17.48,0,0,1-11.75,22.38l4.45.9a3.24,3.24,0,0,1,1,.33c1.08.65,1,2.24.65,3.46s-.72,2.67.1,3.63c1.65,1.93,4.92-1,7.25,0a9.9,9.9,0,0,0-2.09,3.63,3.34,3.34,0,0,0,1.31,3.7,10.94,10.94,0,0,0,2.36.63c.78.22,1.6.81,1.58,1.63a3.39,3.39,0,0,1-.37,1.14,4,4,0,0,0,2.57,5.13l.42,1.24.28,4.43v.92c-4.61,4.72-5.27,12.23-3.41,18.56s5.83,11.78,9.61,17.19,7.51,11.09,8.78,17.56a30.35,30.35,0,0,1-.15,11.63,19.47,19.47,0,0,0,6.41-2.69H607a22.58,22.58,0,0,0-.08,5.51,3,3,0,0,0,.91,2.18,3.25,3.25,0,0,0,2.16.36l5.59-.4c1.31-.09,2.79-.12,3.73.79,1.29,1.25.79,3.35.85,5.14l-.21,1.49,1.31,5.85q-2.61.39-5.19,1a1.15,1.15,0,0,0-.73.37,1.1,1.1,0,0,0-.06.89,31.1,31.1,0,0,0,3.7,9.5,18.08,18.08,0,0,1,1,1.87,9.09,9.09,0,0,1-.37,7.15l.89.86c3.14,1.23,3.9,5.22,4.43,8.55a70.26,70.26,0,0,0,13.61,31.51l.47,2a64.91,64.91,0,0,0-2.3,19.51,25,25,0,0,0-31.51,14.35c-2.19,5.47-2.38,11.51-2.54,17.4L613,1763.17c2.14-2.37,4.36-4.79,7.24-6.16,4.54-2.16,9.85-1.34,14.8-.48a33.66,33.66,0,0,0,6.81,26.37l.33.48,26.6-12.59a30.52,30.52,0,0,0,6.51-3.77,37.81,37.81,0,0,0,4.19-4.39,78.58,78.58,0,0,1,8.28-8.14,11,11,0,0,1,3.11-2c1.65-.62,3.47-.45,5.23-.55,4.51-.25,8.72-2.25,12.71-4.35a199.46,199.46,0,0,0,24.09-14.91,6.44,6.44,0,0,1,3.27-1.52c1.22,0,2.55,1,2.35,2.16a3,3,0,0,1-1.05,1.55,59.83,59.83,0,0,1-7.28,5.46l-28,18.83a14.4,14.4,0,0,0-3.83,3.28,4.93,4.93,0,0,0-.79,4.78c.68,1.54,2.79,2.43,4.19,1.48-4.61.56-8.72,3.1-12.64,5.6a21.07,21.07,0,0,0-5.89,4.87c-1.52,2-2.24,4.91-1.14,7.22-3-1.22-6.52.44-8.86,2.73s-4,5.19-6.46,7.37c-2.77,2.47-6.34,3.85-9.33,6s-5.51,5.81-4.62,9.42c1.07,4.34,6.17,6.1,10.51,7.14l-7.72,1,.26.69c3.92,13.48,12,25.33,17,38.45a10.09,10.09,0,0,0,1.86,3.52,3.2,3.2,0,0,0,3.62.91l.63,0c-1,1.27-2.13,2.65-2.21,4.29-.08,1.92,1.26,3.58,2.52,5l9.75,11.2.11,0c-1.18,4-2.44,8.21-5.2,11.39a22,22,0,0,1-5.58,4.38,43.59,43.59,0,0,1-22.45,6,65.57,65.57,0,0,0,23.27,3.75c3.75-.08,7.77-.42,11,1.49s4.82,5.44,6.82,8.53c1.51,2.32,4,4.69,6.65,3.88l.42.34a113.72,113.72,0,0,0,22.46,29.87l.17,1.35a58.06,58.06,0,0,1-2.21,13.29,12.33,12.33,0,0,0-5.92-.8c-2,.39-3.85,2.11-3.66,4.12a4,4,0,0,0,3.45,3.27,8.46,8.46,0,0,0,4.93-1,1.34,1.34,0,0,1,1-.19,1.21,1.21,0,0,1,.57.57,32.75,32.75,0,0,1,4.52,12,17.67,17.67,0,0,0,3-8.23q3.54,5.42,6.57,11.11a10,10,0,0,1,15.44-1.51l.25.6a9.14,9.14,0,0,0-.23,8.36,18.22,18.22,0,0,0,3.89,4.75c6.8,6.58,13.62,13.18,21.13,18.94,1.46,1.13,3.3,2.28,5,1.63.51-.19,1-.52,1.47-.7,2.32-.8,4.26,1.74,6,3.45a11.54,11.54,0,0,0,12,2.41c1.46,2.51-.41,6.51,2,8.2,1.95,1.4,4.49-.42,6.72-1.3a8.56,8.56,0,0,1,11.55,9.69,19.61,19.61,0,0,1,6.94-2.48c2.47-.22,5.2.71,6.41,2.86.72,1.28.82,2.81,1.38,4.16,1.2,2.88,4.37,4.55,7.48,4.85s6.2-.5,9.21-1.31l14.64-3.9.68-.19a31.3,31.3,0,0,0,3,9.25,12.61,12.61,0,0,0,2.62,3.75,13.41,13.41,0,0,0,6.58,2.83,42.07,42.07,0,0,0,32.43-7.07,19.56,19.56,0,0,0,5.22-5.2,11.68,11.68,0,0,1,1.29-1.89,8.22,8.22,0,0,1,1.85-1.33l11.69-6.83.41.69c3.53,22.53,14.13,43.4,18.64,65.75l-.27,2.77a56.12,56.12,0,0,1,.44,6.48ZM549.52,2377.68a4.17,4.17,0,0,0-.34,4.2,9.71,9.71,0,0,1,1.08,2.13,2.9,2.9,0,0,1-1.27,2.76,7.54,7.54,0,0,1-3,1.15,10.86,10.86,0,0,0-3,1,6.51,6.51,0,0,0-2.91,5.45,7.43,7.43,0,0,0,2.18,5.69c1.85,1.71,4.53,2.11,7,2.3a25.49,25.49,0,0,0,8.13-.36,16.15,16.15,0,0,0,8.65-5.55,17.59,17.59,0,0,0,3.78-9.59c.13-1.59,0-3.2.17-4.8a37.89,37.89,0,0,0,.35-5.31,5.64,5.64,0,0,0-2.37-4.54,6.38,6.38,0,0,0-2.57-.76,18.36,18.36,0,0,0-14.79,5Z"></path>
    <path data-name="4a" data-official="B. Pinguin" data-plain="Section of Fruit" data-loc="" d="M106.31,2463.79c-18-7.74-32.24-22.32-44.64-37.55-5-6.12-9.84-12.52-12.6-19.91-3.41-9.13-3.41-19.14-2.94-28.88.47-9.52,1.41-19.27,5.48-27.89,5.11-10.84,14.89-19,25.89-23.78s23.17-6.27,35.14-6.18a137.79,137.79,0,0,1,51.92,10.66c4.65,1.95,9.26,4.2,13,7.58a48.69,48.69,0,0,1,7.86,9.95c4.81,7.43,9.31,15.25,11.28,23.87,1.79,7.79,1.44,15.88,1.07,23.86-.45,9.62-.94,19.32-3.41,28.62s-7.1,18.31-14.56,24.4c-3.74,3.06-8.11,5.31-11.73,8.51s-6.57,7.77-6.07,12.58,4,8.38,6.67,12.29c3.44,5.11,5.53,11.58,3.79,17.49-1.51,5.1-5.69,9.09-10.46,11.46s-10.11,3.3-15.39,4a180.2,180.2,0,0,1-36.93.89c-4.19-.33-8.81-1-11.5-4.27s-2.5-8.39-.81-12.41,4.54-7.43,6.68-11.23a35.27,35.27,0,0,0,4.44-19.49Z"></path>
    <path data-name="4b" data-official="" data-plain="Section of Seed" data-loc="" d="M244.07,2454c-5.69-6.37-11.38-13.17-13.69-21.4-3-10.85.27-22.46,4.8-32.78,3.39-7.72,7.84-15.51,15.18-19.65,9.64-5.43,22.43-2.93,30.93,4.16s13.13,17.93,14.93,28.85a71.76,71.76,0,0,1-2.41,33.25,16.81,16.81,0,0,0-.95,4,9.29,9.29,0,0,0,.5,3.46c1.68,5.13,6.39,8.55,9.71,12.81a27.12,27.12,0,0,1,4.55,23.89,13.74,13.74,0,0,1-3.2,5.95,15.52,15.52,0,0,1-5.36,3.2c-6.9,2.76-14.33,3.81-21.7,4.73-12.39,1.54-25.21,2.71-37.15-.94-5.39-1.65-11.27-5.49-11.07-11.13.12-3.47,2.59-6.38,5.19-8.68,5.08-4.5,11.52-8.36,13.49-14.86,1.11-3.67.57-7.6,0-11.39Z"></path>
    <path data-name="5a" data-official="" data-plain="B. fashiosa" data-loc="" d="M1842,2500.87c-2.31,5.28-4.66,10.73-4.79,16.49s2.52,12,7.78,14.34c2.73,1.23,5.81,1.3,8.81,1.35l13.14.23c8.49.14,17.22.25,25.2-2.67s15.17-9.59,16.15-18c1.43-12.37-10.26-22.78-11.1-35.2-.56-8.36,3.86-16.16,5.72-24.33,3.44-15.16-2.08-30.88-1.59-46.42.47-14.53,6.17-28.34,8.83-42.64,6.25-33.54-4.34-67.76-5-101.87-.84-41.34,12.85-81.41,20.1-122.12.78-4.35,1.47-8.86.35-13.13s-4.53-8.26-8.93-8.64c-3.86-.33-7.55,2.09-11.41,1.82-5.07-.37-8.54-5-12.41-8.32a27.56,27.56,0,0,0-32.62-1.6c-2.08,1.45-4,3.22-6.44,3.94-6.66,2-13.61-4.68-20.31-2.79-6.9,1.95-8.32,11.19-7,18.25,2.52,13.82,10,26.16,14.77,39.39a102,102,0,0,1,3.6,55.69l-.42,6.74-8.64,37.35a188.77,188.77,0,0,0-4.11,21.56c-2.07,18.62,1.45,37.35,4.27,55.88a761.45,761.45,0,0,1,8,146.72Z"></path>
    <path data-name="5b" data-official="" data-plain="Flower" data-loc="" d="M1900.83,2090.73c-14.62,7.43-31.75,7.43-48.14,7.26-3.09,0-6.46-.16-8.85-2.13-2.59-2.14-3.25-5.86-3.09-9.22s1-6.72.56-10.06c-.7-5.81-4.83-10.52-8.39-15.16a103.52,103.52,0,0,1-20.58-73.24c.53-4.94,1.46-10,4-14.24,4.23-7.07,12.18-11,17.82-17s8.92-14,15.53-18.88c4.86-3.55,11-4.92,16.93-5.66,11.9-1.47,25.41-.16,33.47,8.71,4.26,4.7,6.41,10.87,9.35,16.49,5.54,10.58,14.16,19.57,18,30.88,5.61,16.52,0,34.62-6.8,50.68s-15.07,32.29-14.85,49.73Z"></path>
    <path data-name="6a" data-official="" data-plain="Seed of Pitcairnia ringens" data-loc="" d="M1755,2445.83c-1.51-17.52-3-35.62,2.55-52.32,1.81-5.48,4.34-10.7,6-16.22,1.84-6.05,2.61-12.36,3.71-18.59a204.44,204.44,0,0,1,14-45.58c2.24-5.17,4.78-10.41,9-14.08s10.71-5.37,15.64-2.66c5.16,2.84,7,9.27,7.88,15.1,4.37,29.75-4.82,59.71-5.74,89.77-.39,12.85.72,25.92-2.43,38.39-1.36,5.34-3.48,10.48-4.61,15.87s-1.21,11.27,1.39,16.14c1.53,2.87,3.88,5.21,5.82,7.82a27.72,27.72,0,0,1,5.54,18.9,22.06,22.06,0,0,1-10.12,16.58c-4.45,2.67-9.74,3.48-14.88,4.23l-22,3.22c-3.86.57-7.85,1.13-11.62.12a27.34,27.34,0,0,1-7.55-3.8c-4-2.61-8.21-5.63-9.85-10.14-1.74-4.78-.16-10.2,2.54-14.52s6.42-7.88,9.52-11.91A50,50,0,0,0,1760,2457Z"></path>
</svg>
