
<svg xmlns="http://www.w3.org/2000/svg" viewBox="0 0 1939 2839" id="illustration" preserveAspectRatio="xMidYMid meet">
    <title>Colchicaceæ</title>
    <path data-name="1" data-official="Colchicum autumnale" data-plain="Meadow Saffron" data-loc="England" d="M502.6,1653.77a50.14,50.14,0,0,1-6.18,10.12l-5.09,7.18c-8.17,18.53-26,30.91-37.12,47.82-6.07,9.2-10.18,19.77-17.59,27.95-4.68,5.18-10.56,9.23-14.85,14.74-4.74,6.09-7.27,13.59-9.56,21-2.8,9-5.39,18.07-8,27.14l-23.36,81.78-2.29,6.13,22.49-5.52c3-.74,6.13-1.49,9.18-.93s5.59,2.25,8.53,2.85c7,1.45,15.42-3.36,21,1.19,2.45,2,3.73,5.54,6.74,6.51a26.72,26.72,0,0,1,22.91-11.78c3.44.14,7,1.06,9.44,3.49,3.87,3.9,3.57,10.1,3.91,15.57,1.62,25.87,22.53,46.62,28.29,71.89,1.62,7.16,2,14.56,3.63,21.71.86,3.76,2.06,7.45,2.66,11.26,1,6.62.22,13.39-.6,20.05l-3.06,24.74-1.41,8a132.89,132.89,0,0,1-18,56.36c-6.07,10.25-13.71,20.17-15.31,32-1.53,11.27,2.71,22.4,5.87,33.32,4.71,16.28,7.11,33.12,9.16,49.94a1234.08,1234.08,0,0,1,6.73,223l-2.24,7.92c0,6.77.15,14,3.89,19.62,2.32,3.5,5.83,6.06,8.2,9.53,6,8.7,3.31,20.58-1,30.22s-10.07,19.21-9.83,29.75c.13,5.62,2,11.06,4.14,16.26a37.31,37.31,0,0,0,5.22,9.54c4.88,6,13.21,9.57,15.06,17,2.94,11.87-13,22.4-10,34.24,1.48,5.77,7.35,11.21,4.81,16.6-2.2,4.64-8.86,4.65-13.69,3s-9.92-4.44-14.8-2.88-7.67,7-12.32,9.28c-4.3,2.11-9.52,1.17-13.89-.77a33.89,33.89,0,0,1-18.53-21.27c-1.06-3.68-1.49-7.56-3-11.1-3.43-8.24-12.6-13.44-21.51-12.94s-17.13,6.3-21.33,14.17c-3.4,6.34-5.16,14.69-11.82,17.42-5.48,2.24-11.55-.56-17.21-2.29s-13.29-1.55-15.77,3.82c-.62,1.34-.81,2.84-1.35,4.22-1.79,4.59-7.1,6.89-12,7s-9.73-1.33-14.6-2c-13.6-1.85-29.12,2.23-40-6.14-10.36-8-10.95-23.12-10.6-36.19.29-11.32.62-22.81,4-33.62,3-9.71,8.34-18.51,13.61-27.2l18.49-30.44,2.25-6.72c1.27-6-3.24-11.37-6.91-16.21-18-23.75-21.3-55.66-18.73-85.36l-2-6.24c-2.07-31.67,11.67-62,17.21-93.27,4.88-27.53,3.32-56.07-3.47-83.2-8.09-32.33-23.43-62.56-30.51-95.13A196.24,196.24,0,0,1,279,2026.71l-3.84-6.54c-1.5-45.35-23-87.32-44.08-127.53l-92-175.79-2.09-7.27c-4.36-8-8.78-16.18-10.55-25.13a75,75,0,0,1-1.17-12.15c-.44-12.91.19-25.82.82-38.72l1.14-23.51-.32-5.66c.37-10.51,8.23-19.58,17.57-24.43s20-6.26,30.44-7.59c-14.12-13.38-31.25-23.59-43.72-38.52-13.2-15.79-20.28-35.81-25-55.85l-3.5-5.89A199,199,0,0,1,95,1375.91a59.07,59.07,0,0,1,3.65-13.76c1.88-4.36,5.67-8.81,10.39-8.27,3.74.43,6.37,3.84,8.15,7.16,6.75,12.65,7.6,28,15.4,40,3.95,6.11,9.47,11,14.51,16.25,8.43,8.79,15.61,18.68,22.75,28.54,2.52-27.21-.85-55.2,6.4-81.55,1.92-7,5.25-14.49,12-17.18,4.27-1.71,9.21-1.08,13.43.76s7.85,4.79,11.34,7.8c15.77,13.63,29.79,29.2,42.8,45.49,3.4,4.27,7.69,9,13.13,8.58l6.41-2.38a65.1,65.1,0,0,1,8.48-14.65,20,20,0,0,0,2.46-3.66c1.26-2.74,1-5.91.71-8.91l1.55-6a65.82,65.82,0,0,0,1.93-11.32,19,19,0,0,0-.11-5.11c-.56-2.91-2.24-5.46-3.44-8.17-2.2-5-2.7-10.93-.54-16s7.2-8.93,12.68-9c4.44,0,8.53,2.32,12.17,4.88a52.46,52.46,0,0,1,9,7.78c5,5.59,8.29,12.51,11.55,19.29q11.19,23.24,23.51,45.9l3,4.86,16.79-17.61c5.51-5.78,11.06-11.6,17.58-16.2s14.14-8,22.12-8.24,16.3,3,21,9.39c5.69,7.77,5.25,18.28,4.57,27.88L438,1436.82c-.12,1.65-.18,3.49.88,4.76s3,1.56,4.47,2.33c5.17,2.62,5.78,11,11.31,12.7a14,14,0,0,0,3.48.43c8,.45,15.62,3.24,23.12,6s15.72,6.08,19.57,13.14l2.27,8.75c5.64,7.87,6.23,18.16,6.61,27.84l.93,23.51,10.44-21.83a50.4,50.4,0,0,1,5.94-10.27c3.79-4.65,9.2-7.93,12.29-13.08a180,180,0,0,1-1.49,35.41c-.86,6.07-2,12.09-2.86,18.17-1.31,9.64-1.74,19.38-2.42,29.1a32.78,32.78,0,0,1-1.38,8.54c-.92,2.64-2.48,5-3.7,7.51-2.91,6-3.87,12.7-5.66,19.11a74.53,74.53,0,0,1-20.49,33.89Z"></path>
    <path data-name="1a" data-official="" data-plain="Ovary and Pistil" data-loc="" d="M146.12,1791.93a1817.11,1817.11,0,0,1,36.55,458.49c-1.14,24-2.75,47.9-4.37,71.84l-8.76,129.92,6.65,3.12c11.37,2.62,19.76,12.81,23.5,23.87s3.6,23,3.44,34.64q-.62,44.4-1.25,88.79c6.62-2,14.08-3.31,20.25-.16,6,3,9.35,9.62,10.63,16.18s.85,13.32,1.22,20c1.26,22.69,11.86,44.11,12.76,66.81.32,8.08-.11,17.4,5.93,22.76,4.56,4,11.49,4.4,16.16,8.3,7.48,6.25,5.47,19.12-1.58,25.85s-17.22,8.86-26.85,10.36-19.77,2.81-27.71,8.47c-6.92,4.94-11.36,12.64-17.75,18.26-13.51,11.88-33.19,12.67-51.18,12.85-4.73.05-9.78,0-13.73-2.59s-5.9-8.76-2.58-12.12l4.85-7.92c2.95-9.93-4.23-21.61-14.42-23.46-6-1.1-12.7.74-18.06-2.21-3.58-2-5.87-5.76-9.46-7.71-5.88-3.2-13.36-.6-19.75-2.61a9,9,0,0,1-3.6-2,8.9,8.9,0,0,1-2.42-6.09c-.29-7.68,6.22-14.07,13.23-17.25s14.82-4.23,21.84-7.39c2.32-1,4.68-2.46,5.76-4.76,2-4.26-1.11-9-3.34-13.13-3.14-5.86-4.64-12.45-5.61-19a135.85,135.85,0,0,1,31.46-107.43l2.42-8.64c-19.25-234.45,14.35-475.43-48-702.25-7.9-28.73-18-58.2-39.11-79.22-8.75-8.71-19.61-16.33-23.69-28S24,1730.28,36.08,1733c3.64.82,7.35,3.25,10.81,1.84,3.12-1.27,4.26-5,5.66-8,6-13.07,24.26-18.65,36.55-11.17l7.27,1.49a36.31,36.31,0,0,1,7.85,4.3c4.43-5.91,13.08-7.55,20.08-5.19s12.46,8,16.35,14.29c4.84,7.83,7.64,17.14,6.6,26.29-1,8.55-5.23,17-3.44,25.39Z"></path>
    <path data-name="1b" data-official="" data-plain="Section of Ovary" data-loc="" d="M867.38,2792c1.44-7.58,2.88-15.29,2-22.95-.9-8.27-4.4-16-7.23-23.81-8.69-24-11.35-49.72-11.55-75.21,0-6.1.05-12.27,1.58-18.17,3.12-12.1,12.34-22.27,23.77-27.32,9.47-4.18,20.09-5,30.44-4.82,4.84.07,9.78.36,14.29,2.1,6.09,2.34,10.88,7.1,15.48,11.73,4.83,4.86,9.77,9.87,12.53,16.14s3.15,13.49,3.07,20.42c-.2,17.06-2.76,34-5.31,50.86-1.62,10.68-3.34,21.67-8.93,30.91-2.7,4.45-6.25,8.41-8.32,13.19-3.67,8.53-2.12,18.25-1.47,27.52s-.18,19.69-7,25.94c-5,4.5-12,5.79-18.68,6.38a132.75,132.75,0,0,1-23.25,0c-5.08-.45-10.54-1.38-14.08-5-3-3.06-4-7.56-3.79-11.8s1.62-8.34,3-12.36Z"></path>
    <path data-name="2" data-official="Melanthium junceum" data-plain="Rush-leaved Melanthium" data-loc="Cape of Good Hope" d="M190,1340.14,74.11,1245.28c-4.62-3.78-9.24-7.57-13.6-11.64-.92-.86-1.88-1.88-1.87-3.12a4.33,4.33,0,0,1,1.83-2.94c7.69-6.65,18.55-8.75,28.64-7.55s19.58,5.37,28.61,10c43.94,22.68,80.08,57.67,115.52,92.16L283.33,1371l5.21,3.2-1.55,6c.29,3,.55,6.17-.71,8.91a20,20,0,0,1-2.46,3.66,65.1,65.1,0,0,0-8.48,14.65l-6.41,2.38c-5.44.45-9.73-4.31-13.13-8.58-13-16.29-27-31.86-42.8-45.49-3.49-3-7.12-6-11.34-7.8ZM511.31,1653c5.47,7.11,9.7,12.09,13.9,20l18.33,34.62c4.6,8.7,9.2,17.4,13.17,26.4,2.64,6,5,12.11,7.35,18.23l9.58,24.9c2,5.1,3.94,10.22,5.39,15.49,2.32,8.4,3.36,17.25,7.14,25.11,3.69,7.67,10,14.57,10.28,23.07l.36,2.65a130.73,130.73,0,0,0-.17,16.2c.6,8.4,2.83,16.59,3.86,25,1,7.9.88,15.89.78,23.85l-1.2,95.07c-.31,24.83,4.39,69.41,8.81,93.84l-.91-.88A166.77,166.77,0,0,0,578,2047.2c-3.19-3.63-6.59-7.21-8.54-11.62,2.12,15.68,4.29,31.54,10,46.29,1.39,3.56,3,7,4.42,10.58a263.58,263.58,0,0,1,8.67,26.68c2,6.93,3.89,14.75.34,21l-5.53,10a14.62,14.62,0,0,1,1.19,5.91l1.44,23.67c-7.69,2.15-16.34,5.08-19.53,12.4-1.31,3-1.49,6.36-1.6,9.64-1.38,43,6.12,86.53-1.32,128.94l-.88,6.23c-.9,20.7-15.93,37.77-23.17,57.19-3.73,10-5.38,20.6-6.9,31.15-3.14,21.91-5.8,44.22-2.48,66.1s13.36,43.6,31.25,56.62c-5.82,1.2-9.53,6.72-12.81,11.68a248.88,248.88,0,0,1-24.69,31.54l-3.77,9.79c2.94,11.87-13,22.4-10,34.24,1.48,5.77,7.35,11.21,4.81,16.6l9.83-2.58,15.82-11.34a9.63,9.63,0,0,1,3.6-1.87c3.16-.62,6,1.93,9,3.05,6.5,2.41,14.91-1.63,20.18,2.87,3.85,3.29,3.81,9.6,7.58,13,6.23,5.59,17.08-.87,24.2,3.52,5.11,3.15,5.8,10.27,9.41,15.08,6,7.95,17.93,7.58,27.62,5.34,4.26-1,8.76-2.36,11.45-5.8,6.17-7.88-1-20.82,4.87-28.95,6.49-9,21.8-3.6,30.91-10,3.1-2.16,5.37-5.65,9-6.84a15.83,15.83,0,0,1,6.72-.24c15.35,1.69,30.85,4.41,46.13,2.14a10.21,10.21,0,0,0,4.56-1.49c4.55-3.27,1.73-10.56-2.15-14.61s-8.93-8.65-7.64-14.11c.73-3.11,3.38-5.32,5.19-7.95,5-7.29,3.08-17.73-2.45-24.65s-13.85-10.94-22.13-14.05-16.93-5.57-24.41-10.3a5.44,5.44,0,0,1-1.83-1.6c-1.45-2.31.75-5.11,2.65-7.06,11.89-12.18,18-29.07,20.1-46s.52-34-1-50.95l-2.52-8.53c-3.6-23.66-18.11-44.14-33.46-62.51-4-4.74-8-9.44-11.2-14.75a48.79,48.79,0,0,1-6.31-33.48c.71-3.82,1.91-7.54,2.56-11.38,1.14-6.72.53-13.61-.35-20.36A248.87,248.87,0,0,0,656,2218l-4.09-14.78a63.68,63.68,0,0,0-20.17-40.57l-.35-1.6a953.07,953.07,0,0,1-6.56-269.93l-.09-.36a71.31,71.31,0,0,0-.29-56.64l-.34-.69c-.58-14.27.62-28.54,1.81-42.76l14.9-177.58c5.78-36,8.77-72.87,11.76-109.16a11.58,11.58,0,0,1,1.17-5c2.42-4.13,9.22-4.36,10.93-8.83l3.35-6.16a194.2,194.2,0,0,0,3.72-40.6c-.07-5.17-.35-10.34-.56-15.5q-1.29-31,.52-62.12l-3.31-7.38-6.07,0c2.06-18,.42-36.33,1.51-54.47a13,13,0,0,1,.66-3.93c.87-2.23,2.82-3.8,4.49-5.5s3.2-3.92,2.84-6.28l.7-2c-1.17-2.49-2.55-5-4.83-6.56a13.7,13.7,0,0,1-3-2.08l-.47-.07c-.48-33.65,6.18-67.09,15.94-99.3a34.44,34.44,0,0,1,3-7.63c3.86-6.56,11.58-10.15,15.32-16.78l1.68-3.5,4.87-24.7a68.77,68.77,0,0,0,1.33-8.67c.2-2.87,0-5.77.33-8.63.65-6.43,3.57-12.38,6.43-18.17,1.23-2.49,2.51-5,4.59-6.9s4.65-2.85,6.18-5l4.45-3.4c4.85-8.19,11.58-15.08,18.24-21.88a54,54,0,0,1,7-6.37c3.35-2.39,7.25-4,10.19-6.91a24.8,24.8,0,0,1,2.91-2.8c1.94-1.39,4.42-1.72,6.65-2.58,5.33-2,9-7,14.15-9.55a21.65,21.65,0,0,0,3.17-1.65c2.06-1.46,3.14-3.92,4.12-6.25a298.42,298.42,0,0,1-40.88,17.75c-2.41.84-4.84,1.65-7.29,2.39a133.14,133.14,0,0,1-22.09,4.68l-4.23,1.87-16.64,11.68a113,113,0,0,0-13,10.07,56.49,56.49,0,0,0-7.48,8.71c-5.94,8.56-9.37,18.57-12.63,28.47l-.19,8.87c-.6,4.2-1.39,8.37-2.34,12.51a34.48,34.48,0,0,1-1.85,6.06c-.88,2-2.11,3.88-3.12,5.84a58.63,58.63,0,0,0-3.34,8.6,113,113,0,0,0-3.35,11.51c-1.3,6-1.61,12.23-2.61,18.31a81.58,81.58,0,0,1-7.6,23.34l1.1,1.62a52.68,52.68,0,0,1-.65,12.21q-4.45,33.74-9,67.46l-3.12,4.21a369.83,369.83,0,0,0-14.21,46c-2.17-4.19-2.16-9.12-2.09-13.84.22-15.43.52-30.9-.74-46.28-.61-7.51-1.59-15-1-22.56.91-11.47,5.51-22.67,4.45-34.13a4.57,4.57,0,0,0-.81-2.59c-.92-1.12-2.59-1.21-4-1-6.49,1-11.56,6.36-14.39,12.28s-3.9,12.51-5.69,18.83-4.54,12.72-9.73,16.74a6.47,6.47,0,0,1-4.32,1.68,7.21,7.21,0,0,1-3.21-1.34c-7.42-4.69-14.56-11.08-23.33-11.39l27.09-23.29c5.18-4.46,10.47-9,13.77-15,2.1-3.8,3.17-8.92.33-12.2-1.59-1.81-4-2.61-6.34-3.22a81,81,0,0,0-56.35,5.88l-1.15-3.63c1.8-15.24,2.57-31.57-4.84-45a22.54,22.54,0,0,0-6.65-7.88,12.1,12.1,0,0,0-9.87-2,17,17,0,0,0-5.48,3,73.27,73.27,0,0,0-17.15,17.72l1.54-22.7a35,35,0,0,1,1-7.43c2.24-7.68,9.57-13.35,10.79-21.25a8.11,8.11,0,0,0-.44-4.63c-1.31-2.81-4.66-4-7.73-4.5a46.81,46.81,0,0,0-19.33,1.32,34.16,34.16,0,0,0-12,5.36c-4.82,3.63-8.39,9.24-14.14,11l-2.22-3.12c-.22-9.25-.45-18.56-2.25-27.65s-5.25-18-11.28-25a23.56,23.56,0,0,0-9.91-7.29c-3.92-1.34-8.56-1-11.86,1.46a18.85,18.85,0,0,0-4.58,5.84,99.36,99.36,0,0,0-8,17.81,302.8,302.8,0,0,0-19.26-63.48c8.06,2.79,16.22,5.44,24.66,6.7a27.18,27.18,0,0,0,9.85,0,12,12,0,0,0,7.95-5.43,15.64,15.64,0,0,0,1.59-7.13,52.46,52.46,0,0,0-14.47-38l.67-3.72a63,63,0,0,0,39.77-44.79c.59-2.65,1-5.54-.2-8-1.06-2.17-3.18-3.6-5.29-4.77a50.81,50.81,0,0,0-39.06-4.08,26.37,26.37,0,0,0-21.37-14.46A58.06,58.06,0,0,0,360,846.52a8.13,8.13,0,0,0-4.08-1.88c-1.94-.14-3.71,1-5.31,2.11l-12.4,8.48a240.59,240.59,0,0,0-2.83-52.53c-1-5.8-2.2-11.73-5.45-16.63s-9-8.57-14.79-7.78l-.24-3.28c-2.1-7.36-7.86-13.25-14.45-17.16s-14-6.06-21.4-8.19A77.4,77.4,0,0,0,267.81,747,38.88,38.88,0,0,0,248,749.59a12.75,12.75,0,0,0-5.86,4.15,12.07,12.07,0,0,0-1.77,6,29.39,29.39,0,0,0,6.39,20.44c-5.68,2.05-11.44,4.15-16.31,7.72s-8.81,8.85-9.32,14.87c-.77,9,5.91,16.66,12.15,23.15,4.09,4.27,8.43,8.7,14.06,10.51,5.2,1.67,11,.91,16.1,2.8a3,3,0,0,1,1.85,1.37c.53,1.15-.36,2.41-1.19,3.36q-5.67,6.48-11.65,12.67c-5.89-1.4-12-2.8-17.94-1.58s-11.61,5.86-12,11.9c-.16,2.75.69,5.86-1,8.06a8.12,8.12,0,0,1-3.38,2.25c-8.07,3.57-17,6.76-22,14-4.36,6.35-4.78,14.53-4.68,22.22.06,5,.3,10,1.91,14.75,3,8.58,10.34,15.16,18.73,18.64s17.68,4.17,26.74,3.68l4.38,2.27c-.18,6,2.73,11.88,6.83,16.32s9.33,7.67,14.62,10.6c7.35,4.07,15.24,7.76,23.64,8a51.45,51.45,0,0,0-4.15,16.77,9.41,9.41,0,0,1-.43,2.64,9.12,9.12,0,0,1-2.69,3.25c-18.82,16.93-27,43.51-25.88,68.8.25,6,1,12.14,3.28,17.74s6.23,10.69,11.64,13.39c4.31,2.15,9.24,2.67,14,3.15,10.84,1.08,21.81,2.17,32.59.57l4.29,1.89a117.51,117.51,0,0,0,28.35,41.17c-13.35,3.84-26.74,11.35-32.39,24-1,2.34-1.79,5-.84,7.41,1,2.52,3.64,4,6.09,5.12,13.57,6.5,28.36,11.56,43.38,10.58a322.61,322.61,0,0,0-10.31,32.26c-1.12,4.28-2,9.39,1,12.67,2.54,2.81,6.82,3,10.6,2.88a137.46,137.46,0,0,0,17.41-1.76l3,2.44a60.31,60.31,0,0,0,17.42,28.39c5.88,5.35,12.76,9.48,19.32,14a192.4,192.4,0,0,1,46.2,44.81l6.18,3.84a146.18,146.18,0,0,1,77.69,54.42c4.78,6.59,9.13,13.74,15.64,18.63l3.21,2.92c2,3.94,4,8,7.44,10.8,1,.83,2.13,1.53,3.16,2.33,5.5,4.24,8.46,10.9,11.21,17.28l.11,2.14c-3.4,12.08-6.84,24.37-6.6,36.92.25,13.27,4.59,26.22,4.65,39.49,0,5.91-.79,12,.81,17.65,1.17,4.15,3.56,7.84,5.65,11.61a91,91,0,0,1,10.67,32.68c.47,3.73.72,7.52,1.81,11.12s3.15,7.08,6.41,9l.38,2.3q-6.56,94.26-11.88,188.58l-1.33.92c-8.15-10.28-7.31-24.73-9.91-37.59a104.59,104.59,0,0,0-5.57-17.63c-17.16-43.13-46.82-79.93-76-116l-1.45-2a74.33,74.33,0,0,1-11.23,13.47Z"></path>
    <path data-name="2a" data-official="" data-plain="Stamen and Pistil" data-loc="" d="M1199.79,2794.66c.92-9.67,5.78-18.46,8.56-27.77s3-20.6-4-27.41c-5.4-5.31-13.62-6.4-21.19-6.37s-15.37.87-22.52-1.62c-10-3.47-16.89-12.79-26.66-16.74-11.46-4.64-25-1.2-36.38-6.1-9-3.89-15.16-12.43-19.9-21.06s-8.67-17.89-15.35-25.11c-4.3-4.65-10.06-9.24-9.93-15.57.15-7.29,7.94-11.71,14.76-14.28,31.28-11.79,67.9-16,97.12.28,12.63,7,23.13,17.45,35.86,24.29,3.17,1.7,7.14,3.15,10.23,1.3,4.65-2.79,3-9.81,1-14.83-4.46-11-8.29-22.83-6.33-34.52s11.47-22.9,23.32-22.91c8.64,0,16.51,5.91,20.77,13.43s5.47,16.39,5.63,25c.18,9.24-.68,18.79,2.5,27.47,3.61,9.84,12.13,17.69,13.82,28,2,12.32-6.17,23.66-10.84,35.25-5,12.35-6,25.89-6.86,39.18-.21,3.32-.36,6.85,1.25,9.76,1.51,2.74,4.32,4.45,6.81,6.34,7.4,5.61,13,14.92,10.91,24-2.75,11.72-16.37,17-28.29,18.74a130.39,130.39,0,0,1-32.85.57c-6.41-.71-13.81-2.7-16.15-8.7Z"></path>
    <path data-name="2b" data-official="" data-plain="Seed-vessel" data-loc="" d="M1304.81,2807a91.19,91.19,0,0,0,42.67.6c4.83-1.1,9.7-2.66,13.53-5.79,5.64-4.6,8.31-12.16,8.25-19.44s-2.57-14.33-5.79-20.86c-2.28-4.63-5-9.19-5.74-14.29s.43-10.17,1.63-15.14c1.76-7.35,3.84-15.23,9.66-20,6.61-5.48,16-5.43,24.26-7.89A40,40,0,0,0,1420.9,2671c1-9.42-1.16-19.84,4-27.76,3.25-4.94,8.91-7.94,12-13,2.66-4.3,3.15-9.65,2.46-14.66-.94-6.87-4.18-13.62-9.74-17.76s-13.61-5.17-19.55-1.59c-7.8,4.69-10.18,15.46-17.88,20.32-3.44,2.17-7.56,2.9-11.45,4.11a46.53,46.53,0,0,0-30.52,31.89c-3.27-13.3-3.74-27.1-4.2-40.78-.69-20.7-1.37-41.5,1.32-62s8.95-41,21-57.79l1-5.55c4.27-13.51,9.7-29.13,1.86-40.93-1.28-1.93-2.88-3.67-3.88-5.76-2.1-4.39-1.23-9.61-2.42-14.33-2.43-9.67-15.26-15.24-23.67-9.87-5,3.22-7.73,9.16-9,15-3.46,16,1.16,34.27-8.11,47.72-7.94-6.71-10.9-19.2-20.67-22.77-7.78-2.85-16.72,1.77-21.43,8.59s-6.15,15.31-7.34,23.5a337.14,337.14,0,0,0-3.76,38.29c-.32,11,.23,22.18,4,32.47,6.69,18.13,22.61,31.47,30.4,49.15,4.73,10.76,6.23,22.61,7.68,34.27,4.92,39.68,9.62,81.3-4.9,118.56-4.58,11.76-11.11,24.39-7,36.3Z"></path>
    <path data-name="2c" data-official="" data-plain="Seed-vessel of M. uniflorum" data-loc="" d="M1430.79,2778.64c-2.76-11.26,7.62-21.2,10.62-32.4,1.19-4.48,1.18-9.17,1.68-13.78,3.59-33.15,32.55-57.74,43.59-89.2,11.42-32.56,2.44-68.72-10.8-100.58s-30.8-62.42-37.25-96.31c-2.9-15.2-3.76-31.54-12.53-44.3-4.45-6.48-11.14-12.87-10-20.64.9-6,6.56-10.35,12.47-11.6s12,0,17.91,1.41c7-7,14.76-14.34,24.57-15.73s21.32,6.82,19.18,16.49c-.68,3.07-2.59,5.78-3.14,8.88-1.85,10.23,10.84,17,14.09,26.9,1.5,4.57.85,9.6,2,14.27,3.07,12.36,17.37,18.73,22.45,30.41,3.7,8.52,1.89,18.44,4.34,27.4,1.73,6.31,5.49,11.84,8.22,17.79,5,10.95,6.51,23.18,7.11,35.21a267.76,267.76,0,0,1-39.64,153.33c-6.11,9.86-12.93,19.42-17,30.28s-5,23.53.49,33.72c3.15,5.79,8.31,10.7,9.48,17.19,1.49,8.29-4.38,16.52-11.85,20.44s-16.19,4.45-24.61,4.77q-9.91.38-19.85.48c-4.6,0-10.7-1.23-11-5.82Z"></path>
    <path data-name="3" data-official="Kreysigia Cunninghami" data-plain="Cunningham’s Kreysigia" data-loc="New Holland" d="M811.3,2121.48l3.16.35A15.3,15.3,0,0,1,811.3,2121.48Zm1103-538.9c-1.62,9.41-11.52,15.61-21,16.11a17.67,17.67,0,0,1-7.23-.93,23.47,23.47,0,0,1-6.1-3.93,243.33,243.33,0,0,1-21.76-20c-4.81-5-9.43-10.19-14.9-14.43-5.9-4.59-12.67-8-18.44-12.7-13.43-11-20.63-28.82-35.47-37.86l-5.65-3.39c-12.83-4-25.81-8.11-37.26-15.16-12.3-7.57-22.85-18.54-36.69-22.67-5.94-1.77-12.2-2.17-18.25-3.5a62.42,62.42,0,0,1-43.71-36.74c-5.11-12.51-6.8-27.74-17.7-35.73-3-2.23-6.59-3.69-9.64-5.89-5.33-3.87-9.38-10.11-15.83-11.43-7.67-1.56-14.51,4.51-20.73,9.27a79.56,79.56,0,0,1-23.37,12.35l-5.19,1.24-14.91,1.37a10,10,0,0,0-4.59,1.19c-1.6,1-2.45,2.88-3.25,4.61a187.71,187.71,0,0,1-25.07,40.08,203.44,203.44,0,0,1,65.11,18.2c5.51,2.59,10.93,5.44,16.69,7.39,11,3.72,22.89,4.09,33.71,8.21,7.73,2.94,14.63,7.7,21.39,12.48,24,17,47.65,35.3,64.78,59.18l1.49,6.41c20.17,32.16,40.5,64.66,52.88,100.54,6.33,18.35,10.5,37.35,15.64,56.07q6.57,24,15.25,47.28c.78,2.09,1.44,4.79-.23,6.26a5.22,5.22,0,0,1-2.11,1c-21.26,6-43.71-4.63-61.16-18.15s-32.62-30.4-52.34-40.31c-27.39-13.78-59.64-12.28-90.25-10.46l-5.77.22a421.88,421.88,0,0,1-87.52-18.78c-15.59-5.12-31.13-11.29-44.13-21.31l-6.55-5a734.9,734.9,0,0,0-89.43-53.54c-2.88-1.45-5.94-2.93-9.16-2.69-3.62.27-6.7,2.66-9.52,4.94-27.22,22-55,44.52-73.49,74.19l-1.09,5.33c7.62,7,8.8,18.83,6.61,29a28.92,28.92,0,0,1-3.63,9.54,31.64,31.64,0,0,1-5.68,6.28,80.73,80.73,0,0,1-18.89,12.51c-3.67,1.74-7.5,3.23-10.77,5.62-6,4.42-9.54,11.46-12.18,18.46-6,15.79-8.73,32.6-11.43,49.27v4.66c10.92-4.36,23.78-2,33.65,4.44s17,16.29,22.12,26.9c9.72-1.68,17.68-9.29,27.44-10.74,13.72-2,26.6,9.23,31.25,22.3s3.09,27.43,1.48,41.21c9.17,3.56,19,7.62,24.23,15.94,8,12.58,1.68,30.25-10,39.54s-27,12.17-41.76,14.22a241,241,0,0,1,54.13,112.15l.07,9.1c8.31,58.4-1.16,119.89-30.62,171-10.23,17.75-22.75,34.15-32.2,52.32-7,13.42-12.2,27.66-18.56,41.38-13.22,28.52-31.19,54.54-49.06,80.4l-7.75-1.36c-5.85-32-11.94-64.68-27.79-93.1-8.8-15.79-20.38-29.81-31.9-43.73-20.58-24.87-41.59-50.08-68.41-68a2.56,2.56,0,0,0-1.65-.61,2.6,2.6,0,0,0-1.48,1,188.64,188.64,0,0,1-72.65,50.1l-15.27-.45L971.6,2287c-16.25,4.85-33.21,9.75-49.93,6.9-2.73-.47-5.53-1.19-7.68-2.93l-.21.07-7.52.17c-2.14.05-4.42.05-6.21-1.12a9.88,9.88,0,0,1-3-3.7c-.7-1.25-1.36-2.53-2-3.82l-.6-1a6,6,0,0,1-5.12-.76l-1.93-.49c-10.2-.7-20.12,5.84-24.88,14.88s-4.82,20.09-1.66,29.81l1.08,33.28a252.87,252.87,0,0,1-15,76.31c-4.69,12.89-10.43,25.39-14.74,38.41-5.55,16.75-8.73,34.35-16.31,50.28-4.54,9.53-10.8,19.41-8.88,29.79.69,3.73,2.41,7.17,3.52,10.79,3.78,12.3-.06,26.42-9,35.68s-22.46,13.59-35.23,12l-1.87-4.42c-3-2.17-4.06-6.33-3.61-10s2.09-7.14,3.43-10.62c3.35-8.7,4.39-19.78-2.31-26.26-5.31-5.14-14.78-6.73-16.55-13.91-1.27-5.15,2.42-10.06,5.66-14.27,19.59-25.47,30.06-56.6,40.2-87.1,13.17-39.64,26.39-79.44,33.77-120.56l3.92-3.93a18.39,18.39,0,0,0,7.45-7.51c1.19-2.24,1.92-4.74,3.49-6.74a11.19,11.19,0,0,0,1.5-2.06c.71-1.54.22-3.34-.15-5a31.18,31.18,0,0,1,2.32-20l.28-.84c-2.85-8.25-9.19-14.84-16.09-20.18-3.3-2.56-7-5-11.15-5.31a26.46,26.46,0,0,1-9.78,13.27,51.73,51.73,0,0,1-15,7.34l1.3,4.92c-2.71,2.77-6.45,4.24-10.06,5.63-7.41,2.86-15,5.75-22.94,6a51.8,51.8,0,0,1-10.61-.91,41.38,41.38,0,0,1-9.09-2.5c-9.64-4.12-16.08-13.81-18.5-24s-1.33-20.91.59-31.21l7.67-6.1a40.36,40.36,0,0,1,6.17-12.68,33.71,33.71,0,0,1,7-7.68,61,61,0,0,1,7.57-4.55,108.12,108.12,0,0,0,26-20.17c5-5.22,9.38-10.94,14.76-15.7s12-8.61,19.13-9.07c4-.26,8.18.54,12.05-.62,4.18-1.25,7.47-4.65,11.66-5.86,3.45-1,7.17-.4,10.68-1.13,4.72-1,9.75-4.22,13.9-1.79l2.34-.23a43,43,0,0,1,14.55-5.51l.5-.43a123.42,123.42,0,0,0-.53-32.75l-.47-.13c-.1-1.44-2.3-1.79-3.37-.83s-1.28,2.53-1.51,3.95a43.73,43.73,0,0,1-28.16,33.71q4.59-6.55,9-13.2a26.8,26.8,0,0,0,3.49-6.49,44.27,44.27,0,0,0,1.18-6.6,35.42,35.42,0,0,1,10.16-19.66,16.45,16.45,0,0,1,7.15-4.48,19.44,19.44,0,0,0-21.63,3c-6.4,6-8.2,15.89-15.07,21.31a22.68,22.68,0,0,1-12.31,4.38,54.6,54.6,0,0,1-10.06-.31,20.29,20.29,0,0,0,11.8-4.12c4.29-3.11,7.56-7.41,10.63-11.74s6-8.78,9.9-12.41a34.49,34.49,0,0,1,14.74-8.18c-4.67-1.5-9.8-.32-14.35,1.54s-8.88,4.4-13.63,5.72a57.06,57.06,0,0,1-8.72,1.44c-3.87.43-7.82.86-11.61,0s-7.45-3.33-8.7-7c4.16,2.77,9.52,3.26,14.46,2.44s9.59-2.84,14.22-4.74,9.38-3.74,14.36-4.17a53.93,53.93,0,0,1,10.31.45l.83.07c1.4-6.51-2.54-12.81-5.93-18.54-7.48-12.65-13-26.34-18.52-40-1.35-3.33-2.7-6.67-3.78-10.09-2.9-9.16-3.86-18.8-4.41-28.39a344.38,344.38,0,0,1,1.07-52.77l-.25-.84a9.17,9.17,0,0,1-8.43,1.7,14.67,14.67,0,0,1-7.27-5c-4.09-5-5.73-11.57-5.7-18,0-3.43.58-7.1,2.91-9.62s5.79-3.33,9.14-3.48a27.65,27.65,0,0,1,13.35,2.81c-.31-4.85.14-9.88,2.29-14.24a19.48,19.48,0,0,1,36.43,4.12,27.21,27.21,0,0,1,.14,10.45,15.36,15.36,0,0,1-1.9,5.87,6.72,6.72,0,0,1-5,3.29c6.24,3.51,13,7.63,15.13,14.46,1.17,3.75.74,7.83-.25,11.64-1.07,4.12-2.94,8.28-6.41,10.76-3.78,2.69-8.78,2.92-13.39,2.37a38,38,0,0,1-10.66-2.74c-2.92-1.26-5.81-3.17-7-6.11l-1.38.39c-5.17,1.57-7,7.88-7.66,13.23-3.07,23.3-1.25,47.44,7.06,69.42,3.59,9.5,8.35,18.52,13.1,27.5s9.49,18,15,26.5c3,4.65,6.23,9.16,8.85,14,7.94,14.69,10,31.94,9.14,48.62l.91,4.72c4.1-3.88,8.34-7.84,13.58-10,4.64-1.87,9.74-2.15,14.74-2.27,7.94-.2,16.74.24,22.46,5.75a112,112,0,0,1,26.85-18.41L968,2112a8.63,8.63,0,0,0,7.36-8,16.73,16.73,0,0,0-1.68-6.84c-14-34.5-29.71-69.83-28.55-107a240.08,240.08,0,0,1,2.51-25q1.71-12.69,3.43-25.38a23,23,0,0,1-26.28-22.61l-1.41-6.77A97.72,97.72,0,0,1,908,1861.2c-.31-9.06.65-18.12.34-27.18-.29-8.75-1.76-17.4-2.76-26.09-1.69-14.58-2.07-29.47,1.05-43.8,1.55-7.15,4-14.11,5.19-21.32,1.64-9.57,1.16-19.37,1.88-29.06,3.12-41.81,31.11-81.42,70.41-96l7.52-.88a22.69,22.69,0,0,1,10.37,2.3l3.51,3.2a30,30,0,0,0,12.07,20.21c5-7,10.15-14.17,12.93-22.36a38.15,38.15,0,0,1,2.37-6.27c2.68-4.87,8.28-7.9,10-13.18l3.52-4.54c9-6.86,21-8.36,32.3-9.13a18,18,0,0,1-9.13-6.3,50.36,50.36,0,0,1-5.8-9.64,556,556,0,0,1-23.48-53.83,6,6,0,0,0-1.81-2.94c-1.34-.95-3.23-.63-4.69.12-3.06,1.59-5,4.69-6.77,7.64-1.4,2.34-2.81,4.67-4.22,7l-.53,3.19a16.29,16.29,0,0,1-7.83,1.33c-5.24-.41-9.92-3.32-14.37-6.15-4-2.55-8.08-5.15-11.28-8.68l-10.44-2.19a47,47,0,0,1-26.05,11.69c-2.32.26-4.65.34-7,.4-4.22.09-8.61,0-12.4-1.82s-7.13-5.74-11.5-6.05a7,7,0,0,1-1.83-.21,1.52,1.52,0,0,1-1.12-1.33c0-.72.7-1.2,1.2-1.7a4.3,4.3,0,0,0,.93-4.46l2.29-4.75c5.4-7.49,14.59-11.55,20-19-.82-1.4-2.59-1.86-4.14-2.35a24.69,24.69,0,0,1-11.28-7.53c-2.93-3.47-5-7.86-8.91-10.21-3.2-1.92-7.58-2.47-9.4-5.73-1.45-2.61-.54-6,1.24-8.37s4.28-4.11,6.47-6.13c3-2.75,5.43-6.07,8.54-8.68a49.85,49.85,0,0,1,9.81-5.93,38.91,38.91,0,0,1,10.08-4c8.58-1.63,17.44,2.56,26.05,1.11l5.67-3.15c4.15-6.27,0-15,2.62-22.08,2.12-5.74,8.09-8.94,12.18-13.5,2.72-3,4.69-6.77,7.94-9.22,3.82-2.89,8.92-3.56,13.69-3.14,6.9.61,14,3.71,17.4,9.76,2.69,4.84,2.57,10.73,4.32,16,.7,2.07,2.49,4.42,4.55,3.69a4.2,4.2,0,0,0,1.62-1.25c5.16-5.67,7.87-13.41,13.71-18.37,8-6.8,19.64-6.64,30.14-6.13,5.85.28,12.7,1.14,15.61,6.23,1.63,2.84,1.54,6.31,1.4,9.58q-.45,11.25-.91,22.51c-.08,2.07-.14,4.25.84,6.08s3,3.09,4.95,4.1c4.9,2.56,10,4.68,14.68,7.68s8.85,7,10.8,12.19,1.22,11.58-2.8,15.37c-4.19,3.94-10.5,4.16-16.19,5a57.81,57.81,0,0,0-16.86,5.26l-4,2.46a28.6,28.6,0,0,1-16.85,7.73,3.76,3.76,0,0,0-2,.58c-.88.71-.86,2-.73,3.16,1.36,11.27,6.84,21.54,11.8,31.75,10.2,21,18.92,43.54,35.46,60.05l5.6,2c22.37-1.74,45-3.48,67.12.61s43.82,14.73,56.59,33.18l4.83-3.42c18.74-21.61,44.43-35.77,69.7-49.18,5.46-2.9,11.18-6,14.46-11.26a35.23,35.23,0,0,0,3.45-8.64c3.51-11.66,7.05-23.48,7.46-35.65a137.1,137.1,0,0,0-1.22-19.93c-.32-2.92-1.59-6.71-4.54-6.54a4.77,4.77,0,0,0-2.36,1c-4.55,3-6.86,8.39-9.78,13-1.45,2.3-3.21,4.57-5.71,5.63s-5.88.46-7.15-1.94l-1.88-2.48a25.92,25.92,0,0,1-.39-2.92,114.2,114.2,0,0,1,2.41-35.07l.82-3.94q1.35-3.1,2.54-6.29a10.06,10.06,0,0,0,.86-4c-.16-3.08-2.91-5.31-5.41-7.12-3.71-2.67-7.42-5.35-11.35-7.66a27.79,27.79,0,0,0-5.3-2.55c-3.82-1.27-8.31-1.31-11.19-4.12a2.53,2.53,0,0,1-.92-1.81,3,3,0,0,1,1.41-2,46.27,46.27,0,0,1,21.15-8.95,53.74,53.74,0,0,1,23,1.58l2.28-3.68a213.79,213.79,0,0,0-1.52-63.73,7,7,0,0,0-.91-2.78c-2-3-6.65-1.43-10.14-.32-10.91,3.48-24-2.78-28.13-13.45-1.85-4.79-2-10-2.19-15.16l-.54-17c-.23-7.41-.45-14.93,1.33-22.13s5.86-14.16,12.35-17.76c4.29-2.37,9.27-3.11,14.15-3.54,8.88-.79,18-.66,26.44,2.3,13.19,4.64,23.26,15.88,29.25,28.5s8.35,26.64,10,40.52a93.68,93.68,0,0,1,42.11-40.54,51.78,51.78,0,0,1-26.31-42.1c-.25-5.23.37-10.68,3-15.19,3.38-5.67,9.73-9.15,16.25-10.19s13.22.11,19.53,2a81.18,81.18,0,0,1,45.13,35.23l6.07-3c9.22-4.54,18.75-8.74,28.87-10.55s21-1.06,30,3.86c3.23,1.77,6.31,4.08,9.94,4.66,4.68.74,9.23-1.53,13.61-3.33a74.92,74.92,0,0,1,47-3.12l3.32-4.26c4.22-19-3.88-40.25,4.92-57.6a42.36,42.36,0,0,1,9.79-12.22c5.15-4.6,11.24-8.38,18-9.77,4.6-.94,9.35-.76,14-1.36,11.44-1.45,21.75-7.46,32.82-10.67,9.88-2.87,20.29-3.48,30.58-3.25,7.72.17,15.54.83,22.77,3.54,6.79,2.55,12.83,6.81,19.61,9.39s15,3.17,20.76-1.29c3.61-2.81,5.62-7.16,8.52-10.7a26.88,26.88,0,0,1,30.56-7.43l7,1.37c8.87,1.26,18.31,2.77,25,8.78,3.5,3.16,5.91,7.31,8.84,11,6.11,7.71,14.42,13.36,22.85,18.43,2.18,1.31,4.48,2.7,5.72,4.92a8.22,8.22,0,0,1,1,4.13c-.08,4-2.7,7.55-6,9.8s-7.15,3.41-11,4.54l-18.34,5.43a199.14,199.14,0,0,1-22.76,5.79,167,167,0,0,1-22.12,2q-13.18.48-26.39.24c-4.62-.08-9.3-.25-13.71-1.59-3.58-1.1-6.89-2.94-10.37-4.32a41.64,41.64,0,0,0-51.74,18.65l-1,6.56a64.25,64.25,0,0,1-30.67,27.57c-7.76,3.31-16.18,5.08-23.6,9.1a43.45,43.45,0,0,0-14.91,13.32c23.21-1.42,46.63-1.26,69.55,2.66s45.38,11.69,64.71,24.62c8.82,5.9,17.16,13.12,21.82,22.66l3.48,5.61a287,287,0,0,1,54,103.41l.83,3.64c6.57,18.85,20.93,34.57,25.4,54,1.31,5.71,1.72,11.59,2.55,17.38,2.33,16.24,7.92,31.8,13.46,47.24C1913.38,1571.62,1915.28,1577.12,1914.34,1582.58ZM832,1939.13l.48-.3a8.33,8.33,0,0,1,1.41-2.4c1.08-1.45,2.27-3,4-3.59a3.44,3.44,0,0,1-2.45-2.43,6,6,0,0,1-2.59,1.37c0,1.16,0,2.31,0,3.47A6.51,6.51,0,0,1,832,1939.13Z"></path>
    <path data-name="3a" data-official="" data-plain="Stamen and Pistil" data-loc="" d="M1553,2781.46c3.59-5.29,7.29-12.1,4.16-17.67-2.85-5.09-9.84-6.07-14-10.16-4.74-4.69-4.78-12.23-4.2-18.87.67-7.7,1.72-15.52.24-23.11s-6.09-15.09-13.39-17.64c-2.45-.86-5.39-1.33-6.72-3.56a7.48,7.48,0,0,1-.75-4c.17-7.16,3.15-14.51,8.94-18.72,3.72-2.7,8.3-4,12.14-6.5,5.37-3.53,9-9.33,14.52-12.62,5.77-3.45,13.58-4.2,17.3-9.8,2.39-3.6,2.35-8.25,3.72-12.35,2.26-6.76,8.22-11.61,14.41-15.14,3.79-2.16,8.17-4,12.41-3,6.28,1.57,9.36,8.79,9.88,15.24.42,5.23.37,11.62,4.93,14.22,3.74,2.14,8.41.3,12.72.41a14,14,0,0,1,10.64,5.47c3.79,5,4.15,12.54,9.31,16.12,3.84,2.67,9,2.15,13.43,3.65,7.36,2.5,11.82,10.87,10.91,18.58s-6.48,14.41-13.43,17.89a14,14,0,0,0-4.45,2.78c-3.25,3.63-.89,9.91-3.73,13.87-1.71,2.38-5.07,3.53-5.93,6.33a7.91,7.91,0,0,0,.38,4.55c1.9,6.27,5,12.18,6.14,18.64s-.29,14-5.68,17.7c-4.54,3.13-11.27,3.2-14.32,7.8-2.26,3.4-1.49,7.88-1.87,12-.8,8.51-7.09,15.77-14.63,19.81s-16.22,5.34-24.74,6.1c-7.38.67-15,.94-22-1.41s-13.41-7.86-14.89-15.12Z"></path>
    <path data-name="3b" data-official="" data-plain="Ovary and Pistil" data-loc="" d="M1660,2780.84c6.82-24.67,15.74-48.87,19.57-74.18s2.12-52.5-11.1-74.41c-4-6.68-9-12.75-12.52-19.72-4.17-8.37-5.94-17.7-7.38-26.94-1-6.64-1.93-13.38-1.2-20.06a41.81,41.81,0,0,1,5.2-16.05,28.21,28.21,0,0,1,9.36-10.25c4.44-2.74,9.77-3.75,15-3.84,6.51-.11,13.21,1.21,18.57,4.91s9.11,10,8.63,16.52-5.1,12.73-3.8,19.18c.55,2.69,2.08,5.06,3.21,7.56,4.61,10.18,2.48,22,1.45,33.08-3.92,42.12,9.16,85.32-.59,126.48-1.35,5.72-2.66,12.93,2,16.47,2.56,1.92,6.09,1.94,8.92,3.44,5.25,2.8,6.55,9.61,7.26,15.52.89,7.42,1.51,15.79-3.32,21.49-3.68,4.34-9.59,5.93-15.13,7.28-9.39,2.3-19.13,4.62-28.63,2.82s-18.72-8.92-19.7-18.54Z"></path>
    <path data-name="4" data-official="Veratrum nigrum" data-plain="Dark-flowered Veratrum" data-loc="Siberia" d="M811.3,2121.48l3.16.35A15.3,15.3,0,0,1,811.3,2121.48ZM832,1939.13l.48-.3a8.33,8.33,0,0,1,1.41-2.4c1.08-1.45,2.27-3,4-3.59a3.44,3.44,0,0,1-2.45-2.43,6,6,0,0,1-2.59,1.37c0,1.16,0,2.31,0,3.47A6.51,6.51,0,0,1,832,1939.13ZM866.9,2333c44.45,39.32,70.21,95,94.74,149.08,10.64,23.41,21.29,46.87,29.52,71.24,2.68,7.95,5.19,16.15,10.17,22.89,1.41,1.91,3.06,3.78,3.55,6.11.83,4-1.94,7.71-4.57,10.8-5.24,6.18-10.89,14.64-6.85,21.66,2.54,4.41,8,6.12,12.94,7.17,10.8,2.28,22.83,3,32.11-3,7-4.53,11.46-12.28,14-20.27,1.79-5.64,2.92-11.8,6.88-16.19,3.71-4.1,9.26-5.92,13.82-9s8.41-9,6-14l.25-6.71c-.24-16.81-12.62-30.68-18.6-46.39-7.1-18.67-4.93-39.36-4.72-59.33s-2.44-41.74-16.46-56c-5.82-5.9-13.39-10.24-17.76-17.28-4.08-6.58-4.81-14.6-5.91-22.26a194.36,194.36,0,0,0-20.79-63.71l-4.17-6.6L971.6,2287c-16.25,4.85-33.21,9.75-49.93,6.9-2.73-.47-5.53-1.19-7.68-2.93l-.21.07-7.52.17c-2.14.05-4.42.05-6.21-1.12a9.88,9.88,0,0,1-3-3.7c-.7-1.25-1.36-2.53-2-3.82l-.6-1a6,6,0,0,1-5.12-.76l-1.93-.49c-10.2-.7-20.12,5.84-24.88,14.88s-4.82,20.09-1.66,29.81Zm-30.5-20c1.19-2.24,1.92-4.74,3.49-6.74a11.19,11.19,0,0,0,1.5-2.06c.71-1.54.22-3.34-.15-5a31.18,31.18,0,0,1,2.32-20l.28-.84c-2.85-8.25-9.19-14.84-16.09-20.18-3.3-2.56-7-5-11.15-5.31a26.46,26.46,0,0,1-9.78,13.27,51.73,51.73,0,0,1-15,7.34l1.3,4.92,2.3,6.92a78.3,78.3,0,0,0,33.78,29ZM601.67,652.46l13.71,12.09a10.06,10.06,0,0,1,2.59,3c.86,1.73.66,3.76.62,5.69A33.22,33.22,0,0,0,634,701.61,38.73,38.73,0,0,0,627.63,720c-3.12-2.11-4.71-5.78-6.7-9s-5.12-6.33-8.88-6.06a30.54,30.54,0,0,0-30.44-36.09,23.67,23.67,0,0,1-5.05-.16,20.82,20.82,0,0,1-5.21-2.24,44.5,44.5,0,0,0-36-1.9,21.13,21.13,0,0,0-7.73,4.73,22.86,22.86,0,0,0-4.63,8.16,67,67,0,0,0,9.65,63l2.75,4.21c1.68,3.28.38,7.37-1.85,10.28s-5.31,5.08-7.81,7.78c-6.33,6.82-8.58,16.68-8,26s3.85,18.2,7.26,26.86a4.8,4.8,0,0,1,.49,2.5,4.9,4.9,0,0,1-1.58,2.4c-4.61,4.74-8.35,10.52-9.69,17s0,13.68,4.44,18.58c3.74,4.14,9.17,6.25,14,9a4.3,4.3,0,0,1,1.8,1.54,4.68,4.68,0,0,1,.2,2.92,78.13,78.13,0,0,0,.26,23.6,4.85,4.85,0,0,1-.23,3.37,5.26,5.26,0,0,1-2.45,1.7c-8,3.7-13.29,11.89-15.21,20.5s-.84,17.61,1.15,26.19l-1.54,7.95c-3.54,5-7.14,10.14-8.93,16s-1.49,12.71,2.28,17.56c1.37,1.76,3.16,3.21,4.38,5.08,1.63,2.5,2.13,5.55,2.9,8.43a43.81,43.81,0,0,0,17.25,24.55c11,7.64,24.87,9.73,38.17,11.61a172.51,172.51,0,0,0-3.95,41.53c.14,5.57.55,11.24-.88,16.62s-4.58,10.07-6,15.4a25.91,25.91,0,0,0,6.73,24.81c5.12,5,12.72,8.43,14.45,15.38l.35,7a31,31,0,0,0,15,30.42c2.39,1.36,5,2.39,7.24,3.94a19,19,0,0,1,7.08,9.11l3.35,8.26c1.43-.22,3.1-.13,4,1a4.57,4.57,0,0,1,.81,2.59c1.06,11.46-3.54,22.66-4.45,34.13-.6,7.51.38,15,1,22.56,1.26,15.38,1,30.85.74,46.28-.07,4.72-.08,9.65,2.09,13.84a369.83,369.83,0,0,1,14.21-46l3.12-4.21q4.56-33.74,9-67.46a52.68,52.68,0,0,0,.65-12.21l-1.1-1.62a81.58,81.58,0,0,0,7.6-23.34c1-6.08,1.31-12.28,2.61-18.31a113,113,0,0,1,3.35-11.51,58.63,58.63,0,0,1,3.34-8.6c1-2,2.24-3.81,3.12-5.84a34.48,34.48,0,0,0,1.85-6.06c.95-4.14,1.74-8.31,2.34-12.51l.19-8.87c3.26-9.9,6.69-19.91,12.63-28.47a56.49,56.49,0,0,1,7.48-8.71,113,113,0,0,1,13-10.07l16.64-11.68,4.23-1.87a133.14,133.14,0,0,0,22.09-4.68c2.45-.74,4.88-1.55,7.29-2.39a298.42,298.42,0,0,0,40.88-17.75c-1,2.33-2.06,4.79-4.12,6.25a21.65,21.65,0,0,1-3.17,1.65c-5.12,2.54-8.82,7.5-14.15,9.55-2.23.86-4.71,1.19-6.65,2.58a24.8,24.8,0,0,0-2.91,2.8c-2.94,2.88-6.84,4.52-10.19,6.91a54,54,0,0,0-7,6.37c-6.66,6.8-13.39,13.69-18.24,21.88l-4.45,3.4c-1.53,2.19-4.19,3.26-6.18,5s-3.36,4.41-4.59,6.9c-2.86,5.79-5.78,11.74-6.43,18.17-.3,2.86-.13,5.76-.33,8.63a68.77,68.77,0,0,1-1.33,8.67l-4.87,24.7-1.68,3.5c-3.74,6.63-11.46,10.22-15.32,16.78a34.44,34.44,0,0,0-3,7.63c-9.76,32.21-16.42,65.65-15.94,99.3l.47.07a13.7,13.7,0,0,0,3,2.08c2.28,1.53,3.66,4.07,4.83,6.56l-.7,2c.36,2.36-1.17,4.58-2.84,6.28s-3.62,3.27-4.49,5.5a13,13,0,0,0-.66,3.93c-1.09,18.14.55,36.42-1.51,54.47l6.07,0,3.31,7.38q-1.8,31-.52,62.12c.21,5.16.49,10.33.56,15.5a194.2,194.2,0,0,1-3.72,40.6l-3.35,6.16c-1.71,4.47-8.51,4.7-10.93,8.83a11.58,11.58,0,0,0-1.17,5c-3,36.29-6,73.21-11.76,109.16l-14.9,177.58c-1.19,14.22-2.39,28.49-1.81,42.76l.34.69a71.31,71.31,0,0,1,.29,56.64l.09.36A953.07,953.07,0,0,0,631.41,2161l.35,1.6a63.68,63.68,0,0,1,20.17,40.57l7,2.42c5.58,8.53,14.49,14.45,24,18.2s19.59,5.52,29.63,7.27l10,.37,7.67-6.1a40.36,40.36,0,0,1,6.17-12.68,33.71,33.71,0,0,1,7-7.68,61,61,0,0,1,7.57-4.55,108.12,108.12,0,0,0,26-20.17c5-5.22,9.38-10.94,14.76-15.7s12-8.61,19.13-9.07c4-.26,8.18.54,12.05-.62,4.18-1.25,7.47-4.65,11.66-5.86,3.45-1,7.17-.4,10.68-1.13,4.72-1,9.75-4.22,13.9-1.79l2.34-.23a43,43,0,0,1,14.55-5.51l.5-.43a123.42,123.42,0,0,0-.53-32.75l-.47-.13c-.1-1.44-2.3-1.79-3.37-.83s-1.28,2.53-1.51,3.95a43.73,43.73,0,0,1-28.16,33.71q4.59-6.55,9-13.2a26.8,26.8,0,0,0,3.49-6.49,44.27,44.27,0,0,0,1.18-6.6,35.42,35.42,0,0,1,10.16-19.66,16.45,16.45,0,0,1,7.15-4.48,19.44,19.44,0,0,0-21.63,3c-6.4,6-8.2,15.89-15.07,21.31a22.68,22.68,0,0,1-12.31,4.38,54.6,54.6,0,0,1-10.06-.31,20.29,20.29,0,0,0,11.8-4.12c4.29-3.11,7.56-7.41,10.63-11.74s6-8.78,9.9-12.41a34.49,34.49,0,0,1,14.74-8.18c-4.67-1.5-9.8-.32-14.35,1.54s-8.88,4.4-13.63,5.72a57.06,57.06,0,0,1-8.72,1.44c-3.87.43-7.82.86-11.61,0s-7.45-3.33-8.7-7c4.16,2.77,9.52,3.26,14.46,2.44s9.59-2.84,14.22-4.74,9.38-3.74,14.36-4.17a53.93,53.93,0,0,1,10.31.45l.83.07c1.4-6.51-2.54-12.81-5.93-18.54-7.48-12.65-13-26.34-18.52-40-1.35-3.33-2.7-6.67-3.78-10.09-2.9-9.16-3.86-18.8-4.41-28.39a344.38,344.38,0,0,1,1.07-52.77l-.25-.84a9.17,9.17,0,0,1-8.43,1.7,14.67,14.67,0,0,1-7.27-5c-4.09-5-5.73-11.57-5.7-18,0-3.43.58-7.1,2.91-9.62s5.79-3.33,9.14-3.48a27.65,27.65,0,0,1,13.35,2.81c-.31-4.85.14-9.88,2.29-14.24a19.48,19.48,0,0,1,36.43,4.12,27.21,27.21,0,0,1,.14,10.45,15.36,15.36,0,0,1-1.9,5.87,6.72,6.72,0,0,1-5,3.29c6.24,3.51,13,7.63,15.13,14.46,1.17,3.75.74,7.83-.25,11.64-1.07,4.12-2.94,8.28-6.41,10.76-3.78,2.69-8.78,2.92-13.39,2.37a38,38,0,0,1-10.66-2.74c-2.92-1.26-5.81-3.17-7-6.11l-1.38.39c-5.17,1.57-7,7.88-7.66,13.23-3.07,23.3-1.25,47.44,7.06,69.42,3.59,9.5,8.35,18.52,13.1,27.5s9.49,18,15,26.5c3,4.65,6.23,9.16,8.85,14,7.94,14.69,10,31.94,9.14,48.62l.91,4.72c4.1-3.88,8.34-7.84,13.58-10,4.64-1.87,9.74-2.15,14.74-2.27,7.94-.2,16.74.24,22.46,5.75a112,112,0,0,1,26.85-18.41l-5.74-3.35-8.31-28.21c-5.29-18-10.59-35.93-14.64-54.21-2.35-10.61-4.28-21.32-6.33-32q-8.05-42-18.53-83.53c-5.26-20.8-11-41.75-11.16-63.2l.35-7.62c-1.38-8.81-1.41-17.77-1.67-26.68-1.84-62.8-15.16-124.76-18.55-187.49l1.28-9a170.61,170.61,0,0,1-.66-28.41c.27-4.55.75-9.17,2.44-13.4,2.06-5.16,5.8-9.47,9.82-13.3,8.64-8.25,19-14.88,30.55-18s24.23-2.65,35,2.55a59.92,59.92,0,0,1,9,5.54c17.7,12.85,31,32.23,34.72,53.77l1.45,7.37,3.51,3.2a30,30,0,0,0,12.07,20.21c5-7,10.15-14.17,12.93-22.36a38.15,38.15,0,0,1,2.37-6.27c2.68-4.87,8.28-7.9,10-13.18l3.52-4.54-2.18-4.48a76.61,76.61,0,0,0-16.28-56l-5.67-3.41a16.29,16.29,0,0,1-7.83,1.33c-5.24-.41-9.92-3.32-14.37-6.15-4-2.55-8.08-5.15-11.28-8.68l-10.44-2.19a47,47,0,0,1-26.05,11.69c-2.32.26-4.65.34-7,.4-4.22.09-8.61,0-12.4-1.82s-7.13-5.74-11.5-6.05a7,7,0,0,1-1.83-.21,1.52,1.52,0,0,1-1.12-1.33c0-.72.7-1.2,1.2-1.7a4.3,4.3,0,0,0,.93-4.46l-5.39-2.82a58,58,0,0,0-42.7,2.57l7.21-19.35a14.33,14.33,0,0,1,2.26-4.44c3.8-4.46,11.12-2.88,16.35-5.53a10.86,10.86,0,0,0,5.78-8.37c.65-5.89-3.61-11.64-2.43-17.45,1.25-6.21,7.86-9.45,12.63-13.6,3.92-3.41,6.84-7.8,10.18-11.78s7.4-7.68,12.44-9c3.44-.87,7.06-.53,10.6-.66a40.67,40.67,0,0,0,23.59-8.64l8.53-7.77c2.12-5.74,8.09-8.94,12.18-13.5,2.72-3,4.69-6.77,7.94-9.22l7.6-7.74c2.18-2.57,2-6.32,2.49-9.65s2.79-7.16,6.14-6.76c2.59.3,4.13,2.93,5.92,4.83,5.28,5.64,14.09,5.55,21.8,5.06l21.36-1.38a46.5,46.5,0,0,0,10.52-1.48c4.1-1.24,7.77-3.57,11.55-5.59a83.7,83.7,0,0,1,28.95-9.21,3.06,3.06,0,0,1,2,.22,2.58,2.58,0,0,1,1,1.6c.76,2.85-.36,5.88-1.92,8.38s-3.58,4.72-4.91,7.35c-2.35,4.61-2.4,10-2.39,15.17,0,4.58,0,9.26,1.53,13.59.79,2.28,2,4.42,2.56,6.77,1,4,.13,8.36,1.65,12.18,1.85,4.62,6.68,7.26,11.31,9.08s9.64,3.32,13.07,6.93c2.38,2.5,3.75,5.8,5.84,8.55s5.44,5.09,8.81,4.31l2.94,4.24c1.81,8.09,4.16,17,11.13,21.5,6.51,4.19,15,3.16,22.6,2a7.11,7.11,0,0,1,4.17.21c1.48.72,2.27,2.34,2.91,3.87,2.33,5.55,4.2,11.38,7.58,16.37s8.66,9.17,14.68,9.36c5.38.17,10.33-2.79,15.6-3.91a5.62,5.62,0,0,1,2.7-.08,6.23,6.23,0,0,1,2.85,2.27c3.45,4.12,6.6,8.52,10.54,12.17s8.87,6.54,14.23,6.85c8.77.5,16.43-5.89,21.83-12.81a10.08,10.08,0,0,1,3.31-3.16,10.2,10.2,0,0,1,4.61-.58,58.12,58.12,0,0,0,12.06-1.06l8.13-5.74a114.2,114.2,0,0,1,2.41-35.07l.82-3.94-3.92-2.87a71.5,71.5,0,0,0-31-24.07c-2.41-1-5-1.92-6.49-4.08-1.69-2.51-1.23-5.82-.87-8.83a92.3,92.3,0,0,0-29.52-78.61l-5.52-5.11c-7.89-10.9-22.36-14.52-33-22.8-9.76-7.61-15.89-18.81-23.24-28.77s-17.23-19.43-29.55-20.58c-7.57-.71-15.24,1.85-22.75.66-8.37-1.33-15.28-7.07-23-10.59-14.82-6.75-32-5.06-48-2.1l2.71-7.65c4.42-3.24,4.29-10.28,1.17-14.79s-8.3-7-13.28-9.3q-13.77-6.25-27.94-11.59c-3.3-1.24-6.67-2.47-9.45-4.63-7.44-5.75-9.08-16.63-16-23-6.19-5.67-15.2-6.57-23.18-9.16s-16.36-9-15.36-17.35,10.83-12.67,19.29-13.36,17.66.29,24.75-4.38,10.41-14.21,18.1-18c6.82-3.37,14.93-1.22,22.53-1.66a32.91,32.91,0,0,0,22.4-10.78c5.13-5.73,8.34-13.37,14.79-17.56,5.14-3.34,11.52-3.94,17.61-4.57,22.71-2.36,46-6.73,64.83-19.71,6.46-4.46,12.34-9.91,19.51-13.11,14.79-6.59,31.82-2.46,48-1.74s32.91-2.33,46.9-10.61c8.43-5,15.94-12.08,19.76-21.11s3.42-20.16-2.49-28l-1-6.81c18.68-6.8,42.81,6.64,58-6.23,6.38-5.42,9-14.25,15.37-19.75,8.24-7.16,20.55-6.93,31.19-4.5s21.12,6.67,32,6.2,22.69-7.78,23.25-18.68c.19-3.52-.79-7.25.61-10.49,3.07-7.12,13.31-5.63,20.9-7.21a21.34,21.34,0,0,0,16.32-17.17c1.5-9.67-3.7-20.46,1.26-28.89,7.49-12.71,31-8.13,37-21.58,1.43-3.16,1.55-6.86,3.4-9.79,3.39-5.35,10.75-5.91,16.77-7.87,13.25-4.32,22.39-18.77,20.61-32.6-.45-3.43-1.47-6.92-.65-10.27.7-2.88,2.67-5.24,4.17-7.78,9.21-15.54-1.86-38.21-19.45-42.3s-36.6,9.22-40.8,26.78c-9.36-5.92-20.3-10.21-31.32-9s-21.79,9-23.76,19.85c-13-5.79-28.49-3.61-41.09,2.94s-22.71,17-31.66,28.07c-28.89-10.19-64.23,3.74-78.4,30.89-19.88-4.71-42.31,5.3-52.08,23.24-2,3.72-3.79,8-7.5,10-2.85,1.54-6.26,1.44-9.49,1.7-20.82,1.68-36.76,19.61-45.9,38.4-1.4,2.89-3.06,6.14-6.14,7-2,.56-4,0-6-.43-23.18-5.21-49,4.83-62.63,24.31-2,2.81-3.84,5.93-6.92,7.43-2.62,1.28-5.68,1.15-8.59.93-12.13-.91-26-2.43-34.9,5.84-3.1,2.86-5.33,6.74-9,8.83-3.23,1.83-7.1,2-10.81,2.35-9,.84-18.44,3.32-24.55,10s-7.17,18.48-.19,24.24l2.73,5.11c.49,1.74-.91,3.47-2.46,4.4-4.27,2.55-9.65,1.6-14.59,1s-10.71-.42-13.84,3.45c-1.77,2.19-2.52,5.4-5.06,6.62-3,1.45-6.37-.84-9.41-2.26-5.78-2.7-12.47-2.29-18.83-1.83-8.14.58-16.54,1.25-23.76,5a150.82,150.82,0,0,1,2.7-18.93,12.74,12.74,0,0,1,1.92-5.16c1.4-1.86,3.65-2.85,5.82-3.69,4.24-1.64,8.64-3.08,12.26-5.83s6.37-7.14,5.75-11.64c-.28-2-1-4.57.6-5.8a4.68,4.68,0,0,1,3.14-.53,54.37,54.37,0,0,0,40.13-14.69c4.69-4.47,8.73-10.26,8.79-16.73a7.94,7.94,0,0,1,.31-3c.68-1.67,2.58-2.43,4.29-3,5.87-2,12.2-4,16-8.86,3.11-4.08,3.86-9.44,4.23-14.56.81-11.4-.59-24.51-9.75-31.34-1.53-1.14-3.31-2.15-4.11-3.88-1.23-2.67.39-5.71,1.69-8.35a42.71,42.71,0,0,0-3.7-43.14l.27-7c8.87-3.57,14.65-13,15.17-22.54s-3.69-19-10.16-26a50,50,0,0,0,19.08-28.17,10.78,10.78,0,0,1,1.84-4.56c1.32-1.54,3.43-2.08,5.41-2.54,6.67-1.55,13.59-3.22,18.92-7.53,4-3.21,6.74-7.63,9.43-12l17-27.3c8-12.81,16.15-26.45,16.39-41.52a18.16,18.16,0,0,0-1.41-8.13c-1.75-3.65-5.51-6.66-5.32-10.71,11.41-4,22.89-7.93,33.33-14s19.89-14.39,25.32-25.16l6.23-7.44c10.24-13.06,8.43-33.95-3.89-45.06,8.21-5.73,16.56-11.6,22.67-19.54s9.72-18.44,7.13-28.12c10,1.63,19.8-4,27.85-10.22,7.88-6.09,15.6-13.9,16.62-23.81.81-8-2.9-15.61-6.51-22.75l-2.36-8.23c4.43-3.15,9-6.4,12-10.93,3.68-5.57,4.64-12.47,5.15-19.13.36-4.75.53-9.59-.57-14.22s-3.59-9.11-7.59-11.69l-2.75-2.78c14.77-2.58,24-21.41,17-34.67,11-2.36,21.74-7.72,28.8-16.51s10-21.32,5.71-31.78c9.14-.12,16-9.31,17-18.4s-2.62-18-6.08-26.42-7.31-17.51-14.74-23c-8.45-6.21-20-6.56-30.23-4.37-23.19,5-44.45,24.64-44.73,48.36-9.65,2.4-19.32,5.86-26.83,12.39s-12.49,16.65-10.7,26.43c-16.52-1.74-32.49,14.33-30.64,30.85.23,2.06.67,4.25-.21,6.13s-2.67,2.83-4.18,4.08a16.12,16.12,0,0,0-4.92,17.11c-15.73,1.9-27.81,19-24.37,34.45a34.41,34.41,0,0,0-28.19,15.5c-11.21,17.42-4.46,40.29-6.44,60.91a38,38,0,0,0-39.24,1.84l-7.87,5.68-18.11,16.05c-3.69,3.28-7.41,6.58-10.35,10.55a36,36,0,0,0-7,22.06c.08,3.91.78,8-.76,11.6a24.91,24.91,0,0,1-3.56,5.25,48.54,48.54,0,0,0-9.89,25.23,7.94,7.94,0,0,1-1,4,7.68,7.68,0,0,1-2.44,2,72.28,72.28,0,0,0-16.55,13.89c-14.41-11.44-33.89-13.55-52.21-15.21,5.9-4.47,11.85-9,16.68-14.58s8.55-12.45,9.16-19.83c.15-1.8.22-3.84,1.6-5,1.08-.92,2.63-1,4-1.1,8.15-.75,15.36-5.56,21.55-10.91,5.64-4.87,10.87-10.43,14-17.2s3.86-14.9.63-21.61c-4.48-9.32-16.84-13.91-26.32-9.76,1.15-6,2.31-12.09,1.42-18.1s-4.25-12-9.83-14.45c4.79-10.52,6.32-22.82,2.58-33.77s-13.2-20.15-24.61-22l-2.52-7.74a22.2,22.2,0,0,0-9.85-12,6.41,6.41,0,0,1-2.33-1.8,5.49,5.49,0,0,1-.63-2.84l-.42-10.29a13.38,13.38,0,0,1,.55-5.53,17.83,17.83,0,0,1,2.58-3.9c8.17-10.87,6.61-27.85-3.4-37.05,7.21-8.67,14.47-17.87,17-28.85s-.92-24.21-10.89-29.48a6.51,6.51,0,0,1-2.22-1.52c-1-1.26-.75-3.06-.56-4.65,1-8.62-1.56-18.09-8.35-23.5,5.44-11.5,5.07-24.79,4.58-37.5-.19-4.92-1.31-11.06-6.07-12.29l3.34-5.7c12-9.81,13.69-29.88,3.48-41.55,14.56,0,25.3-17.79,19.9-31.31s-23.51-19.49-36.67-13.26c.29-7,.48-14.36-2.92-20.46s-11.79-10-17.61-6.12c-2.66-8.77-5.43-17.74-11-25S849,8.2,839.94,9.65c-9.46,1.52-16.55,10.07-19.26,19.26s-1.88,19-1,28.55a14.48,14.48,0,0,0-11,8.83,87.1,87.1,0,0,0-46.73,3,19.7,19.7,0,0,0-7.42,4c-3.24,3.14-4.28,8-4,12.51.59,8.95,5.76,17.1,12.39,23.14s14.66,10.27,22.6,14.44a58.39,58.39,0,0,0,.35,48.95c-15,11.21-19.11,34.61-8.79,50.25a67.44,67.44,0,0,0-1.64,61.34c1,1.92,2,3.89,2.05,6,.07,3.32-2.25,6.13-4.33,8.72-8.61,10.7-15.21,23.42-16.54,37.09s3.22,28.29,13.7,37.16l.18,7.09a70,70,0,0,0,7.25,46.87c-5.53,2.94-11.23,6-15.1,10.94-5.69,7.2-6.47,17-7,26.16l-1.82,30.27c-.7,11.49-1.22,23.75,4.59,33.68,4.75,8.12,13.13,13.49,21.8,17.16,1.94.82,4.09,1.74,5,3.66a9.08,9.08,0,0,1,.53,3.45,47.15,47.15,0,0,0,8.83,25.87,4.75,4.75,0,0,1,1.23,2.85c-.1,1.61-1.8,2.55-3.19,3.39-5.92,3.55-9.41,10.25-10.68,17s-.6,13.78.07,20.65l-4.49,7.07c-9.66-.16-17.2,9.7-17.58,19.35s4.56,18.69,10.25,26.49c2.25,3.08,4.71,6.12,8,8.07,1.73,1,3.7,1.76,5,3.28,1.87,2.15,1.95,5.26,2.33,8.08a32,32,0,0,0,7.77,17c2.35,2.65,5.19,5,6.84,8.1s1.66,7.57-1.15,9.72c-4.25,3.25-9.94-.93-14.4-3.87a32.09,32.09,0,0,0-29.76-2.63c-9.49-15-9.32-36.26-23.46-46.95,7.24-9.73,9.87-22.23,10.11-34.36.23-11.63-1.94-24.08-10-32.49-6.69-7-16.33-10.11-25.09-14.24A6.43,6.43,0,0,1,703,592a6.61,6.61,0,0,1-.06-4.15c1.68-8.44,3-17.23,1-25.58a33.06,33.06,0,0,0-17.55-21.64c-1.79-.86-3.8-1.68-4.74-3.43-.79-1.46-.62-3.23-.43-4.89,1.65-14.27,3.55-29.09-.94-42.74s-17.55-25.69-31.8-23.82l.14-6.78a258.91,258.91,0,0,0,.18-43.85c-.66-8.24-2-17-7.51-23.15-7.32-8.14-19.51-9.11-30.44-9.53A28.18,28.18,0,0,0,574,345.85c-2.16-15.64-13.44-29.07-27.38-36.48s-30.22-9.42-46-8.63c-4.19.21-8.47.63-12.27,2.41-11,5.17-14,19.28-14.66,31.42a230.43,230.43,0,0,0,.58,33.13c.75,8.4,2,16.9,5.46,24.59s9.4,14.6,17.27,17.63c2.93,1.13,6.25,1.83,8.27,4.23,3.43,4.09,1.1,10.2,1.16,15.53.11,10,11.26,18.32,20.9,15.53l.69,28.24c.14,6.08.32,12.3,2.53,18s6.9,10.76,12.91,11.7c4.62.73,10.78-.31,12.72,3.95a9,9,0,0,1,.53,3.91c-.15,10-.61,21.11,6.11,28.46a59.21,59.21,0,0,0-3.72,44.21c3.07,9.75,11,19.86,21.17,18.7a116.4,116.4,0,0,0,13,42Zm-80.4,1394.17c2.41,17.75,10.14,34.45,20.06,49.37s22,28.26,34,41.53c2.75,3,5.49,6,8.48,8.84l3.59,3.76,5.53-10c3.55-6.28,1.65-14.1-.34-21a263.58,263.58,0,0,0-8.67-26.68c-1.44-3.54-3-7-4.42-10.58-5.75-14.75-7.92-30.61-10-46.29,2,4.41,5.35,8,8.54,11.62A166.77,166.77,0,0,1,608,2096.52l.91.88c-4.42-24.43-9.12-69-8.81-93.84l1.2-95.07c.1-8,.2-16-.78-23.85-1-8.36-3.26-16.55-3.86-25a130.73,130.73,0,0,1,.17-16.2l-.36-2.65c-.27-8.5-6.59-15.4-10.28-23.07-3.78-7.86-4.82-16.71-7.14-25.11-1.45-5.27-3.42-10.39-5.39-15.49l-9.58-24.9c-2.35-6.12-4.71-12.24-7.35-18.23-4-9-8.57-17.7-13.17-26.4L525.21,1673c-4.2-7.93-8.43-12.91-13.9-20l-10-10.16,1.28,10.93a50.14,50.14,0,0,1-6.18,10.12l-5.09,7.18,1.6,8.12c-2.67,23.24-16.51,43.94-20.13,67.06a155.6,155.6,0,0,0-1.39,20.59c-.25,10.81-.5,21.66.69,32.4,1.6,14.48,5.8,28.52,8.48,42.84s3.8,29.36-.65,43.22l-1.1,8.1c3.87,3.9,3.57,10.1,3.91,15.57,1.62,25.87,22.53,46.62,28.29,71.89,1.62,7.16,2,14.56,3.63,21.71.86,3.76,2.06,7.45,2.66,11.26,1,6.62.22,13.39-.6,20.05Zm-54.92-702.27c-4.45.83-9.74,2.39-10.89,6.76a8.85,8.85,0,0,0,.5,5.27c2,5.46,6.64,9.43,10.3,13.94a62.8,62.8,0,0,1,7,11.17,68.62,68.62,0,0,1,5.47,14.14c1.41,5.62,1.87,11.45,3.54,17,2.06,6.85,5.9,13,9.06,19.41A106,106,0,0,1,502,1471.11l-1.14,5.08,2.27,8.75c5.64,7.87,6.23,18.16,6.61,27.84l.93,23.51,10.44-21.83a50.4,50.4,0,0,1,5.94-10.27c3.79-4.65,9.2-7.93,12.29-13.08a180,180,0,0,1-1.49,35.41c-.86,6.07-2,12.09-2.86,18.17-1.31,9.64-1.74,19.38-2.42,29.1a32.78,32.78,0,0,1-1.38,8.54c-.92,2.64-2.48,5-3.7,7.51-2.91,6-3.87,12.7-5.66,19.11a74.62,74.62,0,0,1-9.31,20.5l0-.08,1.45,2c29.23,36.07,58.89,72.87,76,116a104.59,104.59,0,0,1,5.57,17.63c2.6,12.86,1.76,27.31,9.91,37.59l1.33-.92q5.32-94.34,11.88-188.58l-.38-2.3c-3.26-1.88-5.32-5.36-6.41-9s-1.34-7.39-1.81-11.12A91,91,0,0,0,599.47,1558c-2.09-3.77-4.48-7.46-5.65-11.61-1.6-5.69-.79-11.74-.81-17.65-.06-13.27-4.4-26.22-4.65-39.49-.24-12.55,3.2-24.84,6.6-36.92l-.11-2.14c-2.75-6.38-5.71-13-11.21-17.28-1-.8-2.15-1.5-3.16-2.33-3.41-2.8-5.47-6.86-7.44-10.8l-3.21-2.92c-6.51-4.89-10.86-12-15.64-18.63a146.18,146.18,0,0,0-77.69-54.42Z"></path>
    <path data-name="4a" data-official="" data-plain="Stamens and Ovaries" data-loc="" d="M1762,2794c-3.73-2.34-4.4-7.63-3.26-11.88s3.63-8,4.89-12.25c2.29-7.65.35-15.9-2.23-23.46-3.76-11-10.61-22.9-22.1-24.6-5.5-.81-12.14.58-15.79-3.61-1.93-2.21-2.31-5.34-2.6-8.26-1.5-15.21-2.59-32,6.6-44.27,3.73-5,9.18-9.24,10.09-15.39.67-4.52-1.32-8.95-2.89-13.24-3.76-10.29-5.11-22.24.07-31.89s18.55-15.22,27.72-9.21c2.85,1.86,5.64,4.8,9,4.19a10.12,10.12,0,0,0,4.25-2.41c6.27-5,13.47-9.18,21.39-10.37s16.68,1,21.94,7.08c2.7,3.11,5.18,7.5,9.3,7.41,1.86,0,3.54-1.07,5.21-1.89,4.18-2.07,9.06-3,13.55-1.77a20.12,20.12,0,0,1,10.43,7.7,29.81,29.81,0,0,1,3.42,28.8c-1.38,3.24-3.35,6.26-4.22,9.68-1.56,6.06.57,12.47,3.52,18s6.75,10.61,9,16.46c2.08,5.46,2.69,11.35,3.22,17.17.47,5.09.88,10.26-.09,15.28s-3.51,9.94-7.81,12.7c-4.77,3.07-10.84,3-16.5,2.67-4.14-.27-8.69-.55-12,1.9-2,1.47-3.28,3.72-4.43,5.92-2.5,4.76-4.79,9.76-5.4,15.1-1,9.18,3,18.06,5.13,27s1.83,19.95-5.5,25.56c-4.33,3.32-10.09,3.93-15.52,4.42-14.33,1.3-29.9,2.31-42-5.55Z"></path>
</svg>
