
<svg xmlns="http://www.w3.org/2000/svg" viewBox="0 0 1981 2733" id="illustration" preserveAspectRatio="xMidYMid meet">
    <title>Commelinaceæ</title>
    <path data-name="1" data-official="Commelina cœlestis" data-plain="Sky-blue Commelina" data-loc="America" d="M764,2324.2c.5,3.94,1,8.14-.73,11.74-3.1,6.57-12,8.47-15.78,14.68-3,5-1.92,11.46-.17,17.06s4.05,11.37,3.06,17.15c-1.37,8.09-9,13.86-16.85,16.13-8.7,2.5-18.48,1.59-26.2-3.14s-13.08-13.4-13.12-22.46c0-8.27,4.1-16.54,2.12-24.57-1.47-5.94-6.05-10.6-8.46-16.22-2.18-5.06-2.53-10.7-2.77-16.2q-1.3-29,0-58l.56-12.54q-.18-16.7.18-33.39l2.13-12.53a17,17,0,0,1,.08-5.61q1.86-14.73,4.22-29.4l.84-.49a121.61,121.61,0,0,1,32.1-10.58c1.42-.26,3-.46,4.21.3,1.4.88,1.83,2.69,2.13,4.31q1.5,8,3,15.94l1.36,7.28c2.53,21.17,11.47,41,16.56,61.69,3.12,12.71,4.78,25.72,6.44,38.7Q761.43,2304.12,764,2324.2ZM996.21,1072.67c-8.27.15-16.66.27-24.7-1.72a95.37,95.37,0,0,1-11.79-4L944.58,1061l-.68.23A85.51,85.51,0,0,1,922,1075c-2.72,1.18-5.58,2.27-7.72,4.33-1.68,1.63-2.78,3.75-4.33,5.5-3.94,4.46-10.27,6.07-14.56,10.19-2.85,2.72-4.61,6.37-7,9.49-6.72,8.76-18,12.82-29,14-5.16.54-10.94.33-14.72-3.22a32.67,32.67,0,0,1-13.75,13.5l-3.14,1.33a56.15,56.15,0,0,1-18.69-3.62,34,34,0,0,1,3.32,10.32c.36,2.4.27,5.27-1.68,6.71a6.61,6.61,0,0,1-3.34,1,33.3,33.3,0,0,1-14.72-1.72c-1.39-.5-3-1.06-4.24-.2a4,4,0,0,0-1.17,1.61c-4.08,8.47-3.73,18.3-4.84,27.64a85.54,85.54,0,0,1-8.4,28.08l2.68,6.24c1.51,13.87-1,28-5.72,41.1s-11.7,25.34-19.28,37.06l-1.2,5.55a8.06,8.06,0,0,0-1.26,2.72l-5.67,18-1,7.56q.78,12.75,1.58,25.5a54.78,54.78,0,0,1,22.46-8.86c5.71-.89,11.91-1,16.55-4.44l5.48-.37a31.15,31.15,0,0,1,20.86,12.57l3.25,5.83c.5,2.88,1,5.75,1.51,8.63a11.06,11.06,0,0,0,.87,3.16,14.45,14.45,0,0,0,3.3,3.69,27.13,27.13,0,0,1,8.26,21.57l1.13.75c8.82-.17,17.16,5,22.4,12.11s7.73,15.88,8.88,24.63,1,17.6,1.68,26.4a26.39,26.39,0,0,0,1.68,8.6,10,10,0,0,0,6.14,5.89A54.24,54.24,0,0,1,826.39,1447c-3.26-3.48-6.09-7.42-9.91-10.27l-2.87-4.06a68.64,68.64,0,0,0-17.51-24.06,53,53,0,0,0-26.8-12.54l-4-2.69c-2.77-2.51-6.8-3.26-10.51-2.78a34,34,0,0,0-10.54,3.71c-6.11,3-12.14,6.49-16.88,11.39a36.51,36.51,0,0,0-9,16.07l-2.23,5.62c-1.8,7.3-7.18,13.42-8.54,20.82-.68,3.68-.32,7.46,0,11.19l1.89,19.43c1.51,15.58,3,31.24,2,46.86l2.42,7.83c5,86.2,9.88,173.09-2.39,258.56l.22,1.41c5.33.77,10.72-.77,16.1-.66,14.75.3,26.59,12.57,41,15.68l4.84,1.12a66.4,66.4,0,0,1,14.55,21.26,43.54,43.54,0,0,1,2.63,25.41l-7.4,6.26c-5.65,8.86-15.16,15.6-17.69,25.81-.81,3.25-.83,6.63-1.29,9.94-1.73,12.34-9.45,23-17.71,32.3-3.5,4-7.18,7.83-9.72,12.46-4.56,8.36-5,18.27-5.25,27.79l-1.2,38.83,11.18,12.25c2.41,14.35,4,29.49-1.13,43.11-1.74,4.67-4.26,9.1-5.15,14-1.89,10.38,3.71,21.33.63,31.42l-.35,4.66a27.32,27.32,0,0,1-7.37,6.24,11,11,0,0,1-9.36.72c-1.34-.59-2.5-1.54-3.86-2.11a7.93,7.93,0,0,0-6.57.22,40.61,40.61,0,0,1-3.72,2.14,10.45,10.45,0,0,1-3.34.51,57.42,57.42,0,0,1-7.87-.31l-.19-.93c.3-3.3-2.73-5.79-4.81-8.38a27.68,27.68,0,0,1-4.7-10.42,75.53,75.53,0,0,1-2.15-11.74c-.45-4.42-.52-8.88-1.26-13.25-1.27-7.55-4.5-14.6-6.92-21.86a105.75,105.75,0,0,1-5.15-40.8l7.4-9q-2.1-38.34-2.94-76.72l-1-.88c-2.89-2.8-3.73-7-4.43-11q-1.87-10.72-3.76-21.45l-1.1-6.27.15-1.21c-2.75,1.1-5.94-.47-7.85-2.73s-3-5.11-4.47-7.66c-4.19-7.14-12-11.82-20.17-13-5.89-.84-12.07,0-17.71-1.94-5.39-1.83-9.65-6-13.66-10-6.66-6.71-13.26-13.64-21.21-18.77s-17.54-8.38-26.88-6.86a7.46,7.46,0,0,1-3.15.11,2.18,2.18,0,0,1-1.7-2.32l-1.34.28c-7.38,3.82-15.78,5-24,6.12-11.28,1.46-22.74,2.72-34,1a65.36,65.36,0,0,1-33.37-15.71c-4.56-4.07-8.54-8.77-13.27-12.64-3.78-3.09-8-5.6-11.81-8.61-11.06-8.72-18.44-21.16-25.56-33.31l-.8-2.64a19.47,19.47,0,0,0-20.81,5.09l-1.89-1.46c-6-3.3-13.35-2-19.91-.18s-13.34,4.24-20,2.93l-3.65,4.53c-2,3.5-6.71,4.21-10.76,4.36a137.53,137.53,0,0,1-39.83-4.39c-6.18-1.62-12.26-3.67-18.5-5.06a90.12,90.12,0,0,0-44.84,1.54c-15.86,4.69-30.18,13.68-46.05,18.36-2.41.71-5.16,1.29-7.32,0-2.58-1.53-3.17-5-3.23-8a52.34,52.34,0,0,1,2.9-18.27,31.52,31.52,0,0,1,7.12-12.1c3.33-3.31,7.62-5.49,11.88-7.48q7.57-3.55,15.36-6.6A70.28,70.28,0,0,0,214,1728c13.54-8.38,19.29-26.11,33.19-33.88,8.44-4.72,18.56-5,28.22-5.16l42-.69,17,17.52c3.36,1.88,5.52,5.36,8.67,7.56,1.65,1.16,3.54,1.93,5.21,3.06,5.08,3.41,8,9.88,13.86,11.78a2.22,2.22,0,0,0,2.38-.28,2.39,2.39,0,0,0,.43-1.28l.93-6.94,2.6.62a28.51,28.51,0,0,1,12.27,7.16l3,8.16c19.16-1.28,39.69.24,55.28,11.47l.89-.74c0-1.37,1.53-2.17,2.8-2.69l19.75-8.14a17.78,17.78,0,0,0,4.44-2.34,6,6,0,0,0,2.39-4.26c.07-2.35-1.7-4.76-.72-6.9l10.27-2.7a30.55,30.55,0,0,0,.85,10.08c9.59-4.87,20.84-4.78,31.59-4.57,5.29.1,10.66.21,15.75,1.65,5.63,1.6,10.67,4.74,15.63,7.85,6.5,4.09,13,8.2,18.67,13.42,6.9,6.42,12.22,14.31,17.75,22,4.31,6,9.54,12.26,16.83,13.26h1.05a89.5,89.5,0,0,1,67.91,1.83l.86-.61-7.17-88.28c-2.67-32.88-5.34-65.79-5.89-98.78-.16-10-.43-20.82-6.75-28.53l-2.77-3c-1.82-5-4.77-9.52-7-14.36s-3.71-10.32-2.37-15.47l4.38-7.83a608.76,608.76,0,0,0,4.2-71c0-3-.1-6.23-1.93-8.59-2.37-3.07-6.86-3.66-9.63-6.37-3.38-3.32-3.27-8.71-2.8-13.42q.93-9.36,2.56-18.63c1-5.71,2.23-11.46,4.83-16.64s6.76-9.8,12.18-11.87l6.21-2.68c3.29.06,5.48-3.81,5.06-7.08s-2.54-6-4.38-8.75a62,62,0,0,1-10.18-28.38c-.89-9,.23-18.16-.78-27.17-1.25-11.07-5.63-21.5-9-32.12a181.51,181.51,0,0,1-7.49-73.69c.7-6.66,1.81-13.39,4.72-19.42,3.9-8,10.84-14.44,14.1-22.78,4.11-10.52,2.2-23.66,9.8-32l3.91-.37a267.51,267.51,0,0,1,.22-115.19c.3-1.35.52-3-.52-3.9s-2.27-.57-3.42-.27c-9.89,2.51-19.44,7.5-29.63,6.93-9.75-.54-19.08-6.19-28.74-4.7-7.8,1.21-14.05,6.82-20.3,11.64a127.93,127.93,0,0,1-20.64,13c-10.48,5.27-22.21,9.52-29.26,18.9-3.81,5.07-5.87,11.19-8.1,17.13s-4.78,12-9.29,16.41-11.46,7-17.36,4.69c-4.14-1.63-7.15-5.37-8.89-9.46s-2.37-8.55-3-13l-2.85-2.58c-6.44,1.14-12.88,2.28-19.35,3.25-5.35.81-11.05,1.46-16-.74-4.78-2.12-8.07-6.57-10.87-11-7.05-11.15-12.37-23.28-17.66-35.37-2.12-4.82-4.25-9.73-4.91-15-1.13-8.95,2.2-17.89,6.6-25.77,1.64-3,3.47-5.86,4.34-9.13,2.13-8-1.5-17.73,3.77-24.12,5.08-6.17,15.88-5.5,20.13-12.27s-.94-15.42.37-23.18c1.18-7,7.29-11.91,13-16.16l15.41-11.54,4.92-3.7c11.06-13.15,1.92-37,15.11-48,1.94-1.63,4.3-2.86,5.72-5,2.79-4.13.91-9.63-.58-14.38s-2-11,2.11-13.72c-7.52-3.82-11.79-12.64-11.33-21s5.15-16.26,11.57-21.72c2.35-2,5-3.8,6.49-6.5,2.16-4,1.39-9,3.66-12.91,1.74-3,5.11-5,6-8.3.8-2.92-.55-5.95-1.78-8.71-4.85-10.91-8.44-22.8-7.21-34.68a45.33,45.33,0,0,1,23.73-34.91,29.24,29.24,0,0,1,14.11-3.69c6.64.17,12.92,3.44,17.85,7.9,11.77,10.64,16.29,27.79,14.14,43.51-.52,3.87-.06,9.48,3.84,9.5,2,0,3.46-1.67,4.78-3.14A48.22,48.22,0,0,1,627,691.05a51.12,51.12,0,0,1,36.79,24.21c13.62,22.7,8.24,51.85,15.53,77.3a61.17,61.17,0,0,1,50-1.87l4.16-5.05a1044.12,1044.12,0,0,1,24.72-125.16c-16.39-1.69-33.28-3.53-47.69-11.51-24-13.28-36.54-42-36.15-69.38a78.13,78.13,0,0,1,5.27-28.16c11.43-28.24,42.12-44.78,72.36-48.52,13-1.6,26.48-1.22,38.51,3.84s22.35,15.38,24.92,28.18c11.06-18.43,31.79-29.73,53.06-32.79s43,1.35,63.19,8.83c9.73,3.6,20.31,9.19,22.82,19.25,1.07,4.3.48,8.91,1.81,13.13,1.87,5.92,7.11,10,11.26,14.59a47.37,47.37,0,0,1-32.5,79c12.28,25,6.44,57.73-13.75,76.95-13.34,12.71-32.06,20-42,35.47-7.1,11.09-8.8,25.18-16.89,35.56a35.51,35.51,0,0,1-23.57,13.25,15.77,15.77,0,0,1-7.51-.62c-5.43-2.1-8-8.4-8.55-14.2s.3-11.74-1-17.41c-4.52-18.84-29.55-24.74-39.22-41.53a403.59,403.59,0,0,0-15.88,80l3.44,6.29a48.91,48.91,0,0,1,16.42,27.51,16,16,0,0,0,1.49,4.93,13.55,13.55,0,0,0,3.9,3.79l11.69,8.63a59.86,59.86,0,0,1,28.21-15.1c4.9-1.09,10.1-1.55,14.89,0,5.84,1.85,10.6,6.48,16.59,7.78s11.86-.86,17.75-2a56.4,56.4,0,0,1,31.07,2.65c5.75,2.21,11.47,5.74,13.91,11.39,3,6.87.33,14.82,1.31,22.24a23.06,23.06,0,0,0,8.48,14.89c3.57,2.81,8.17,4.77,10.15,8.86,1.18,2.43,1.22,5.24,1,7.93-1.67,26-23.6,49.34-49.49,52.58-12.54,1.57-25.25-1.08-37.86-.32-1.95,6.49,3.66,12.5,6.44,18.68,4.44,9.89,1.56,21.36-1.38,31.8l0,5.32c-1.27,2.22.46,5.15,2.79,6.18s5,.76,7.54.65a51,51,0,0,1,12.81,1.11l7.39,5.68a15.73,15.73,0,0,1,12.25,14.75l.7.52c13.7-1.32,27.32,3.26,41.09,3.15,4.38,0,8.76-.55,13.12-.16C975.47,1055.26,986.29,1064.17,996.21,1072.67ZM697.42,1640.39a9.43,9.43,0,0,1-.9-4.83c.29-1.63,2-3.14,3.52-2.6l.18-.49q0-36.35-2.44-72.64c-.32-4.75-1.44-10.55-6-12l-8.75.25a24.58,24.58,0,0,0-10.8,14.68c-1.06,4.12-1,8.44-1,12.69.46,36.38.93,72.76,3.18,109.07l1.2.26c-.13-1.34,2-1.92,2.94-1a3.53,3.53,0,0,1,.25,3.8,38.11,38.11,0,0,0-1.84,3.6,11.2,11.2,0,0,0-.33,3.61q.91,41.24,1.81,82.47l-.37.14.38.15v-.29a12.33,12.33,0,0,1,13,3.06c2,2.17,3.68,5.33,6.63,5.47l.82-.84q1.69-45.21,3.41-90.44C703,1676.33,703.64,1657.55,697.42,1640.39Z"></path>
    <path data-name="1a" data-official="" data-plain="Stamen" data-loc="" d="M147.28,2610.55a67.53,67.53,0,0,0,7.6-21.87c1.41-8.63,1.12-17.44.83-26.18l-.88-26.3c-.39-11.76-1.1-24.43-8.48-33.59-2.2-2.74-4.94-5.05-6.84-8-6.65-10.36-1.09-24.35-4.49-36.18-2.05-7.09-7.26-13.1-8.45-20.39a19.32,19.32,0,0,1,27-20.73,14.47,14.47,0,0,0,3.86,1.46c1.86.26,3.69-.48,5.44-1.15,8.85-3.36,19.7-4.9,27.07,1,8.32,6.72,7.81,20.41,1.42,29a19.74,19.74,0,0,0-3.15,4.86c-1.28,3.53.33,7.5,2.6,10.49s5.22,5.46,7.24,8.63a18.19,18.19,0,0,1-16,28q4.38,27.47,8.35,55c1.87,13,3.67,26.1,2,39.08-1.5,11.64-5.73,22.74-8.13,34.22,3.26,2.21,7.65,1.12,11.5,1.94,5.45,1.15,9.45,6.28,10.53,11.74s-.3,11.15-2.52,16.25c-1.94,4.48-4.74,8.89-9.09,11.12-3.91,2-8.52,2-12.91,1.9l-24.64-.43c-7.19-.12-15.21-.59-20.12-5.84s-4.83-13.78-2.26-20.58,7.14-12.67,10.38-19.19Z"></path>
    <path data-name="2" data-official="Tradescantia zebrina" data-plain="Zebra-leaved Spider-wort" data-loc="Mexico" d="M679.38,2229.89a58.82,58.82,0,0,1-32.89,24c-5.47,1.53-11.55,2.47-15.42,6.63-2.92,3.12-4,7.57-4.13,11.84-.39,12.8,6.7,24.49,13.55,35.32l28.81,45.57c3.78,6,7.37,14.37,2.41,19.41-1.47,1.48-3.46,2.33-5.06,3.66-7.23,6-3.76,17.48-5.13,26.76-2.29,15.52-20.27,25-35.77,22.59-3.62-.56-7.31-1.7-10-4.25-8.22-7.94-1.16-22.17-4.7-33-2.2-6.77-8.28-11.44-12.12-17.43-4.12-6.44-5.64-14.39-10.42-20.37-7.83-9.81-22.91-12.4-29.09-23.33-6.83-12.08.6-28.41-5.9-40.68-2.93-5.52-8.23-9.29-13.18-13.1a190.31,190.31,0,0,1-36.12-36.71c-3-4-6-8.37-10.55-10.64-9-4.56-19.92.77-30-.33-9.29-1-17-7.4-25.72-10.82-10.9-4.28-23-3.81-34.69-3.27l-6.52,0c-8.7-3.54-17.65-7.13-27-7.34l-11-3.07a6.18,6.18,0,0,0,3.74-4.83,4.94,4.94,0,0,1,.59-2.52l.21-.65c9.07-.81,16.52-7.3,22.92-13.78a41.87,41.87,0,0,0,4.72-5.41,86.14,86.14,0,0,0,4.49-8.1c3.11-5.64,7.3-10.59,11.47-15.5a36.1,36.1,0,0,1,5.29-5.41,18.11,18.11,0,0,1,14.08-3.41l4.73-1A58.57,58.57,0,0,0,444,2139l5.37-5.67a65.41,65.41,0,0,1,41.09,2.2l3.95,2.69,24.57,34.12c3.48,4.84,7,9.67,10.74,14.27,7.78,9.46,16.78,17.84,25.74,26.18-1.32-12.92-1.93-26.57,3.75-38.25,4.11-8.47,11.28-15.2,19.36-20.05s17.07-8,26.11-10.64l9.58-2.6A55.18,55.18,0,0,0,641,2126.93c1.93-1.88,3.72-3.9,5.75-5.67,9.49-8.29,23.2-10.18,35.65-8.29l6.25.27c2.08,2.59,5.11,5.08,4.81,8.38l.19.93a57.42,57.42,0,0,0,7.87.31,10.45,10.45,0,0,0,3.34-.51,40.61,40.61,0,0,0,3.72-2.14,7.93,7.93,0,0,1,6.57-.22c1.36.57,2.52,1.52,3.86,2.11a11,11,0,0,0,9.36-.72,27.32,27.32,0,0,0,7.37-6.24l.35-4.66,4.85-.14c10.32-1.22,21-2.22,30.87,1.15,7.85,2.69,14.52,8,20.55,13.69,7.4,7,14.22,15,17.65,24.6,1.47,4.12,2.29,8.45,3.94,12.5,4.2,10.35,13.34,17.87,18.82,27.6,5.89,10.47,7.2,22.82,8.38,34.77a13.91,13.91,0,0,1-.13,5.15c-.86,3-3.69,5.07-6.7,5.82a21.19,21.19,0,0,1-9.2-.27c-24.34-4.91-45.16-24.28-51.82-48.19-1.64-5.86-2.67-12.31-7-16.62-2.45-2.47-5.72-3.94-9-5.16a88.53,88.53,0,0,0-20.33-5l-5.53.07c-.3-1.62-.73-3.43-2.13-4.31-1.22-.76-2.79-.56-4.21-.3a121.61,121.61,0,0,0-32.1,10.58l-.84.49q-2.37,14.67-4.22,29.4a17,17,0,0,0-.08,5.61l-2.13,12.53Zm-401-19.79c5.77-.46,11.9-1.06,16.49-4.59,6.88-5.28,8-15.16,12.75-22.39,1.94-2.93,4.59-5.67,4.91-9.17a15.87,15.87,0,0,1,.26-3.24c.83-2.78,4.44-3.94,5.44-6.66.52-1.43.22-3,.59-4.51.92-3.77,5.65-5.42,7.11-9,1.1-2.71.09-5.93,1.24-8.62.58-1.36,1.71-2.54,1.82-4s-.8-2.9-.43-4.31c.28-1,1.19-1.78,1.78-2.69,1.41-2.19.8-5.12,1.63-7.59s2.79-4.07,3.73-6.34c1.14-2.79.53-6,.88-8.95.51-4.36,3.05-8.9,1.2-12.88l-1.76-4.41a274.63,274.63,0,0,0-60.79-1.21c-9.44.86-18.94,2.23-27.79,5.65-11.31,4.37-21.09,11.87-30.69,19.27-6.09,4.7-12.24,9.46-16.93,15.55-8.66,11.28-11.4,25.87-16.78,39.05-7.6,18.65-20.67,34.76-27.65,53.65-1.82,4.91-3,11.11.75,14.81,2,2,5.07,2.72,7.94,3a39,39,0,0,0,21.26-4.09c6.16-3.15,11.44-7.92,17.83-10.59,10.47-4.39,22.34-2.58,33.67-3.16a78.45,78.45,0,0,0,33.73-9.63Zm-78.06-434.33c-8.09,3.66-16.15,7.4-24.65,9.91-2.41.71-5.16,1.29-7.32,0l-17.13,3.46c-21.49,8.09-40.33,22.58-54.79,40.41s-24.65,38.94-31,61c-2.5,8.69-4.41,18.12-1.38,26.64a4,4,0,0,0,1.3,2,3.92,3.92,0,0,0,2.66.41c8.42-.86,15.63-6.76,24-7.86,8.79-1.15,17.3,3.1,25,7.42,26.22,14.62,51.77,31.67,81,38.69l9.26,1.51c4.64,3.23,10.79-.3,16.41-1,4.77-.56,9.48,1.08,14.14,2.24,13.43,3.35,27.49,2.77,41.32,2.14,10-.46,20.16-.94,29.89-3.46s19.16-7.25,25.64-14.94c8.7-10.34,11.79-25.49,23.11-32.86,3.64-2.37,7.89-3.72,11.43-6.23l.2,0a301,301,0,0,0,10.47,61.29c2.56,9.16,5.57,18.26,6.72,27.7v.19a57.65,57.65,0,0,1,7.79-11.63c1.86-2.16,4-4.46,4.07-7.3.05-2.36-1.17-5.3.71-6.72a16.85,16.85,0,0,1,2.46-1c1.59-.86,2.12-2.82,2.9-4.45a11.64,11.64,0,0,1,4.2-4.76l.5-1.16c-8.26-14.13-11.33-30.6-14.28-46.69-1.67-9.19-3.35-18.68-1.28-27.79l1.56-3.72a50,50,0,0,0-.44-19.84c-1.21-5.35-3.29-10.46-4.73-15.75a135,135,0,0,1-3.32-19.51q-3.16-26.29-6.32-52.6l.7-6.46-1.89-1.46c-6-3.3-13.35-2-19.91-.18s-13.34,4.24-20,2.93l-3.65,4.53-.64,5.41a33,33,0,0,1,1.45,17.2c-16.18-11.31-36.49-14.54-56-17.47-11.36-1.7-22.77-3.41-34.26-3.38a230.56,230.56,0,0,0-25.16,1.91Zm358-137.73c5.13,0,9.52-3.41,14.24-5.42,6.87-2.93,14.65-2.93,22-1.9a9.86,9.86,0,0,1,3.47,1,7.81,7.81,0,0,1,3.33,5c1.21,4.74.07,9.83-2.14,14.19s-5.41,8.12-8.59,11.83l9.13-3.61c3.69-1.46,7.6-3.09,9.82-6.38,2-2.89,2.26-6.6,1.93-10.08-.3-3.2-1.15-6.49-3.24-8.94-1.62-1.9-3.86-3.15-5.72-4.82a17.39,17.39,0,0,1-4.31-19.28l1.45-4.58c-.07-7.38-.19-15-3.23-21.74a43.69,43.69,0,0,0-4.84-7.87c-6.4-8.7-13.92-16.52-21.42-24.31l-6.62-.86c-25.19-19.9-57.12-28.72-88.11-37.06a107.78,107.78,0,0,0-14.39-3.18,101.48,101.48,0,0,0-14.9-.46q-12.69.29-25.38,1l-2.61-4.72c-13.38-1.21-27.34-.61-39.48,5.14-15.26,7.22-25.71,21.53-35.51,35.27L330.13,1477c-1.9-10.09-3.81-20.29-3.28-30.54.72-14,6-27.35,10-40.79,10.82-35.47,13.88-72.78,16.87-109.75l5.07-1.42c8.83,5.72,18.67,10.58,29.19,11,10.08.35,19.77-3.42,29.47-6.18s20.47-4.45,29.6-.16c6.33,3,11.11,8.49,14.87,14.38,3,4.78,5.71,10.08,10.33,13.35s12.08,3.51,15.17-1.25a12,12,0,0,0,1.55-4.37,46.14,46.14,0,0,0,.23-11.86,207.34,207.34,0,0,0-12.75-57.42c-4.2-11.11-9.49-22-17.66-30.67-6.77-7.14-15.25-12.42-23.8-17.28-7.65-4.36-15.55-8.5-24.1-10.58-9.77-2.38-20-2-30-1.55l1.22-3.35c2.3-4,.39-9.44-3.28-12.25s-8.56-3.46-13.17-3.23a19.38,19.38,0,0,0-7.67,1.72c-3.83,1.93-6.44,5.71-8,9.7-.3.76-.69,1.64-1.49,1.82a2.64,2.64,0,0,1-1.6-.36c-6.88-3.12-16.15-1.89-20.39,4.37a261.21,261.21,0,0,0-8-60.06l4.05-2.32a44.87,44.87,0,0,0,30.27-36.56c1.84-15.29-4.61-30.73-14.6-42.45-3.62-4.24-7.82-8.17-13-10.34-4.73-2-10-2.39-15.1-2.28a52.83,52.83,0,0,0-19.83,3.84c-6.13,2.65-11.47,6.85-16.39,11.38a132.88,132.88,0,0,0-16.78,18.69,65.77,65.77,0,0,0-61.64.9c-5.14,2.89-10,6.59-13.17,11.54-4.43,6.85-5.31,15.37-5.5,23.52s.23,16.34,2.6,24.09c2,6.65,5.76,13.1,11.7,16.7,8.17,5,18.75,3.56,27.65.1-.42,16.12,12.3,29.84,26.45,37.56,5.49,3,11.42,5.42,17.65,5.84a29.75,29.75,0,0,0,27.61-15.33l7.81,36.28-3.56-.07c-16.35-1.77-33.15-3.51-49.06.67-15.72,4.12-29.72,14-39.61,26.89s-15.79,28.67-17.69,44.81a7.33,7.33,0,0,0,.18,3.58c.76,1.93,2.88,2.88,4.8,3.64q15,5.91,30.5,10.68c11.93,3.68,24.32,6.87,36.75,5.72,19-1.76,35.45-13.31,50.92-24.46,1.19,12.86-1.24,25.76-3.66,38.45l-16.17,84.82-1.34-1.65c-18.3-13-38.79-24.66-61.21-25.66-13.71-.61-27.28,2.84-40.31,7.15a203.2,203.2,0,0,0-39.26,17.26c-35.41,20.84-61.27,55.65-76.41,93.84S53,1576.77,52.57,1617.86c-.07,7.78.11,16,3.88,22.76s12.34,11.61,19.52,8.58c5.94-2.52,8.9-9.36,9.51-15.78s-.52-12.92,0-19.35c1.52-18.42,18.6-34.2,37.08-34.27,11.5,0,22.27,5.16,33.36,8.19,30.11,8.24,62.24.4,91.51-10.45,17.38-6.44,36.22-15.93,41.72-33.62l2.87,1.63c.88,15.7,5.57,30.91,8.17,46.41,3.39,20.13,3.26,40.83,8.25,60.63,2.49,9.91,6.23,19.45,10,29l-.93,6.69,17,17.52c3.36,1.88,5.52,5.36,8.67,7.56,1.65,1.16,3.54,1.93,5.21,3.06,5.08,3.41,8,9.88,13.86,11.78a2.22,2.22,0,0,0,2.38-.28,2.39,2.39,0,0,0,.43-1.28l.93-6.94.91-5.4-3.41-28.12a89.2,89.2,0,0,1-.91-12.09c.2-11.44,4.82-22.3,9.5-32.74l1.92-8,4.36-8.88a42.44,42.44,0,0,1,4.09-7.11,31.52,31.52,0,0,1,7.27-6.54c16.8-11.56,38-14.29,58.25-16.5,15.72-1.71,32-3.26,47.06,1.49,2.95.93,6.14,2.41,7.17,5.32s-.48,6.27.58,9.17l-.15,5.67a52.52,52.52,0,0,0,14,21.41,13.78,13.78,0,0,0,11.63,4.35,52.29,52.29,0,0,0,13.34-2Z"></path>
    <path data-name="2a" data-official="" data-plain="Stamen" data-loc="" d="M843.49,2683.68c-2.74-3-2.46-7.69-1.23-11.56s3.27-7.57,3.53-11.63c.32-5.11-2.19-9.92-3.48-14.88-2.31-8.92-.57-18.46,2.69-27.08s8-16.59,12-24.9a154,154,0,0,0,11-31.19c.77-3.25,1.43-6.63.82-9.91s-2.77-6.48-6-7.37c-3.91-1.09-7.82,1.4-11.21,3.63-5.37,3.54-11.87,6.87-18,4.84-3-1-5.44-3.18-7.72-5.37-8-7.6-15.59-17-15.6-28a14.43,14.43,0,0,1,1.91-7.68,16.1,16.1,0,0,1,5.85-5.16c9-5.19,20-6.31,28.61-12.07,6.92-4.62,11.84-11.91,19.08-16a26.66,26.66,0,0,1,22.94-1.41c8.86,3.66,15.2,11.93,24.06,15.61,6.78,2.81,14.35,2.68,21.65,3.39s15.08,2.65,19.75,8.31a21.89,21.89,0,0,1,4.38,10.29A31.7,31.7,0,0,1,908,2546a363.92,363.92,0,0,0-2.08,38.07c0,2.74,0,5.57,1.11,8.1,2,4.66,7,7.3,9.64,11.66,4.51,7.55.36,17.16-4.11,24.74s-9.43,16.45-6.27,24.65c1.75,4.52,5.66,7.8,8.39,11.8,6.4,9.36,4.87,23.9-4.51,30.26-3.93,2.67-8.7,3.76-13.37,4.6a169.12,169.12,0,0,1-31.84,2.63c-9.77-.13-21.42-2.4-25.11-11.45Z"></path>
    <path data-name="3" data-official="Dichorisandra thyrisflora" data-plain="Thyrsoid-flowered Dichorisandra" data-loc="Brazil" d="M652.9,2017.36a6.41,6.41,0,0,0,1,2.66,142.39,142.39,0,0,1,16.84,69c-.08,5.77-.64,11.88-4.05,16.53l-4.86,8.16a35.57,35.57,0,0,0-15,7.58c-2,1.77-3.82,3.79-5.75,5.67a55.1,55.1,0,0,1-26.81,14.32l-2.17-3.92c-18.81-8.19-31.66-28.46-31-49a33.33,33.33,0,0,0-.11-6.85c-1.35-7.6-9-12.15-15.83-15.69a2.71,2.71,0,0,0-1.66-.45,2.74,2.74,0,0,0-1.55,1.19l-8.06,10.1c-4.51,5.66-9.1,11.46-11.44,18.31-3.05,8.94-2,19-5.61,27.71a27.59,27.59,0,0,1-36.06,14.92l-6.32.62-3.95-2.69a65.41,65.41,0,0,0-41.09-2.2L444,2139a58.57,58.57,0,0,1-12.91,1.74l-4.73,1a18.11,18.11,0,0,0-14.08,3.41,36.1,36.1,0,0,0-5.29,5.41c-4.17,4.91-8.36,9.86-11.47,15.5a86.14,86.14,0,0,1-4.49,8.1,41.87,41.87,0,0,1-4.72,5.41c-6.4,6.48-13.85,13-22.92,13.78l-.21.65a4.94,4.94,0,0,0-.59,2.52,6.18,6.18,0,0,1-3.74,4.83l11,3.07-6,5.29a248.73,248.73,0,0,0-39.49,68.9c-1.35,3.61-2.66,7.32-5.1,10.3a28.89,28.89,0,0,1-3.89,3.77A114.37,114.37,0,0,1,284.83,2311c-2.64,1.08-5.38,2.09-7.49,4-4.47,4.08-4.8,10.87-7,16.5a27.18,27.18,0,0,1-16.64,15.35,33.82,33.82,0,0,1-22.89-1,12.79,12.79,0,0,1-5.35-3.45c-2.63-3.21-2.36-8.1-5-11.29a14.66,14.66,0,0,0-5.13-3.51c-7.82-3.79-16.09-7.1-22.47-13s-10.5-15.28-7.43-23.41c1.69-4.49,5.28-8,8.76-11.27,4.65-4.42,9.41-8.92,15.18-11.74,4.74-2.32,10-3.45,14.55-6.22,9.68-5.95,13.49-17.91,20.54-26.82,4.35-5.49,10-9.84,15.81-13.69l10.28-8.49,7.81-2.9c5.77-.46,11.9-1.06,16.49-4.59,6.88-5.29,8-15.16,12.75-22.39,1.94-2.93,4.59-5.67,4.91-9.17a15.87,15.87,0,0,1,.26-3.24c.83-2.78,4.44-3.94,5.44-6.66.52-1.43.22-3,.59-4.51.92-3.77,5.65-5.42,7.11-9,1.1-2.71.09-5.93,1.24-8.62.58-1.36,1.71-2.54,1.82-4s-.8-2.9-.43-4.31c.28-1,1.19-1.78,1.78-2.69,1.41-2.19.8-5.12,1.63-7.59s2.79-4.07,3.73-6.34c1.14-2.79.53-6,.88-8.95.51-4.36,3.05-8.9,1.2-12.88l-1.76-4.41.44-5.85A206.87,206.87,0,0,1,354,2036.68a116,116,0,0,1-32.65,12.93c-5.57,1.28-11.29,2.16-16.56,4.38-3.67,1.55-7,3.72-10.62,5.47-7,3.42-14.71,5.16-22,7.86a177.51,177.51,0,0,0-17.67,8,79.13,79.13,0,0,0-11.64,6.64,80,80,0,0,0-8,7l-22.34,21.39L199.79,2130c-8.66,11.28-11.4,25.87-16.78,39.05-7.6,18.65-20.67,34.76-27.65,53.65l-10.12,13c-15.57,6.35-31.18,12.72-47.42,17.07a201.63,201.63,0,0,1-31.11,5.76,56.4,56.4,0,0,1-15.41,0c-7.43-1.27-15.26-6.58-15.24-14.13A14.94,14.94,0,0,1,38.3,2237a25,25,0,0,1,3.18-4.33c3.76-4.11,8.78-6.8,13.38-9.95,14.8-10.13,25.6-25.31,33.05-41.63s11.79-33.85,15.81-51.34c1.78-7.7,3.53-15.52,7.15-22.56l.93-14,11.79-28.08c9.15-21.79,18.53-44,33.82-62,4.31-5.08,9.05-9.78,13.78-14.47,9.08-9,18.18-18,28-26.19l8.05-3.09c4.64,3.23,10.79-.3,16.41-1,4.77-.56,9.48,1.08,14.14,2.24,13.43,3.35,27.49,2.77,41.32,2.14,10-.46,20.16-.94,29.89-3.46s19.16-7.25,25.64-14.94c8.7-10.34,11.79-25.49,23.11-32.86,3.64-2.37,7.89-3.72,11.43-6.23l.2,0a301,301,0,0,0,10.47,61.29c2.56,9.16,5.57,18.26,6.72,27.7v.19a57.65,57.65,0,0,1,7.79-11.63c1.86-2.16,4-4.46,4.07-7.3.05-2.36-1.17-5.3.71-6.72a16.85,16.85,0,0,1,2.46-1c1.59-.86,2.12-2.82,2.9-4.45a11.64,11.64,0,0,1,4.2-4.76l.5-1.16c-8.26-14.13-11.33-30.6-14.28-46.69-1.67-9.19-3.35-18.68-1.28-27.79l1.56-3.72,5.63-7a79.19,79.19,0,0,1,18.42-1.87,54.29,54.29,0,0,1,5.45-18.93c1-2,2.12-4,1.89-6.23a9.59,9.59,0,0,0-1.95-4.31c-5.1-7.33-12-13.24-17.27-20.45a91.32,91.32,0,0,1-6.61-10.83,212.38,212.38,0,0,1-15.9-38.47l-3.77-6.12A19.47,19.47,0,0,1,401.9,1760l.8,2.64c7.12,12.15,14.5,24.59,25.56,33.31,3.83,3,8,5.52,11.81,8.61,4.73,3.87,8.71,8.57,13.27,12.64a65.36,65.36,0,0,0,33.37,15.71c11.24,1.71,22.7.45,34-1,8.24-1.07,16.64-2.3,24-6.12l1.34-.28a2.18,2.18,0,0,0,1.7,2.32,7.46,7.46,0,0,0,3.15-.11c9.34-1.52,18.93,1.73,26.88,6.86s14.55,12.06,21.21,18.77c4,4,8.27,8.16,13.66,10,5.64,1.92,11.82,1.1,17.71,1.94,8.19,1.17,16,5.85,20.17,13,1.49,2.55,2.55,5.4,4.47,7.66s5.1,3.83,7.85,2.73l-.15,1.21,1.1,6.27q1.89,10.73,3.76,21.45c.7,4,1.54,8.22,4.43,11l1,.88q.84,38.37,2.94,76.72l-7.4,9-5.54-.92c-2-.67-4.05-1.36-6.11-1S652.78,2015.28,652.9,2017.36Zm-286-303.09-.91,5.4,2.6.62a28.51,28.51,0,0,1,12.27,7.16l3,8.16c19.16-1.28,39.69.24,55.28,11.47l.89-.74c0-1.37,1.53-2.17,2.8-2.69l19.75-8.14a17.78,17.78,0,0,0,4.44-2.34,6,6,0,0,0,2.39-4.26c.07-2.35-1.7-4.76-.72-6.9l10.27-2.7a30.55,30.55,0,0,0,.85,10.08c9.59-4.87,20.84-4.78,31.59-4.57,5.29.1,10.66.21,15.75,1.65,5.63,1.6,10.67,4.74,15.63,7.85,6.5,4.09,13,8.2,18.67,13.42,6.9,6.42,12.22,14.31,17.75,22,4.31,6,9.54,12.26,16.83,13.26h1.05a89.5,89.5,0,0,1,67.91,1.83l.86-.61-7.17-88.28c-2.67-32.88-5.34-65.79-5.89-98.78-.16-10-.43-20.82-6.75-28.53l-2.77-3-4.59,5.4c-3,1.08-5.49,3.28-7.85,5.45q-13.94,12.72-27.14,26.21l-4,2.36-1.45,4.58a17.39,17.39,0,0,0,4.31,19.28c1.86,1.67,4.1,2.92,5.72,4.82,2.09,2.45,2.94,5.74,3.24,8.94.33,3.48,0,7.19-1.93,10.08-2.22,3.29-6.13,4.92-9.82,6.38l-9.13,3.61c3.18-3.71,6.39-7.47,8.59-11.83s3.35-9.45,2.14-14.19a7.81,7.81,0,0,0-3.33-5,9.86,9.86,0,0,0-3.47-1c-7.4-1-15.18-1-22,1.9-4.72,2-9.11,5.41-14.24,5.42l-16.71,1.67a52.29,52.29,0,0,1-13.34,2l-2.54,4.65c-14,6.36-24.24,18.78-33.91,30.78a83.78,83.78,0,0,0-5.88,7.93c-4.14,6.61-6.45,14.46-11.87,20.06a201.38,201.38,0,0,1,3.08-31.5c2.36-12.46,6.4-24.54,10.78-36.44,2.77-7.53,5.75-15.12,10.66-21.47l4.22-5.44c-1.06-2.9.46-6.26-.58-9.17s-4.22-4.39-7.17-5.32c-15.09-4.75-31.34-3.2-47.06-1.49-20.28,2.21-41.45,4.94-58.25,16.5a31.52,31.52,0,0,0-7.27,6.54,42.44,42.44,0,0,0-4.09,7.11q-2.18,4.44-4.36,8.88l-1.92,8c-4.68,10.44-9.3,21.3-9.5,32.74a89.2,89.2,0,0,0,.91,12.09Q365.18,1700.21,366.88,1714.27ZM420.8,1510.6q12.69-.75,25.38-1a101.48,101.48,0,0,1,14.9.46,107.78,107.78,0,0,1,14.39,3.18c31,8.34,62.92,17.16,88.11,37.06l6.62.86,3.91-1.9a76,76,0,0,1,18.25-6.57c1.95-.43,3.92-.78,5.88-1.14l27.88-5,7.79-.7,4.38-7.83a608.76,608.76,0,0,0,4.2-71c0-3-.1-6.23-1.93-8.59-2.37-3.07-6.86-3.66-9.63-6.37l-11.79,2.11c-10,2.05-20.17,4.1-30.4,3.66-17.75-.78-34.4-9-52.07-11-10.28-1.13-20.66-.09-30.95.94-6.44.65-12.88,1.3-19.23,2.54-12.88,2.5-25.17,7.37-37.31,12.34a63.1,63.1,0,0,0-11.36,5.6c-6.69,4.5-11.45,11.43-14.64,18.83s-4.94,15.33-6.67,23.2l1.68,5.66Zm257.72,267v-.29l-.37.14Zm1267.89,610.25-.92,9c-4.31,10.81-14.79,18.19-25.91,21.64s-22.94,3.52-34.58,3.57c-11,0-22.22.07-32.94-2.57s-21.13-8.27-27.31-17.42c-2.37-3.51-4.07-7.45-6.41-11-7.63-11.52-21.36-17.61-34.94-20.11s-27.53-2-41.26-3.52c-16.2-1.79-32-6.36-47.55-11.08a313.19,313.19,0,0,1-29.71-10.16c-29.33-12.17-54.64-32.29-78-53.76l-6.49-10.24c-17.3-26.7-23.95-59.78-44.39-84.15l-4-8.55-4.9-18.75.1-13.6a42.64,42.64,0,0,0-24.58-16.25l-9,5.43a67.57,67.57,0,0,1-12.36,3.77l-11.87.6-28.12-10.42a2.13,2.13,0,0,0-1.18-.2c-.65.14-1,.83-1.28,1.43l-4.08,9.19a24.33,24.33,0,0,0-2.35,7.28c-.66,6.45,3.76,12.16,7.45,17.49,8,11.57,13.64,25.48,12.11,39.45s-11.74,27.54-25.64,29.67c-6.23,1-12.55-.35-18.77-1.32-5.64-.87-11.37-1.48-16.79-3.28-10.48-3.5-19.13-11.36-25.16-20.62s-9.62-19.9-12.27-30.63c-5.23-21.17-6.59-45,5-63.43l.73-8.8c-13.64-4.89-27.45-9.86-39.43-18-6.17-4.2-11.8-9.21-18.31-12.86-6.24-3.5-13.13-5.66-19.56-8.79-12.37-6-22.7-15.44-32.84-24.74l-15.21-13.94-6.57-7.8c-1.55-1.77-1.4-4.44-2.32-6.61-.85-2-2.63-3.63-3.09-5.78l-1.44-5.86a100.61,100.61,0,0,0-11.37-6.18l-6.45-3.15c-3.46-1.69-7.29-3.42-11-2.43l-8.18,2.11c-7.53-.13-15.94,1.62-20.23,7.82-2.21,3.19-3,7.12-4.54,10.68-1.09,2.54-2.56,4.9-3.63,7.44-2,4.67-2.52,9.78-3.06,14.81l-2.4,22.59c-.63,6-1.27,12-1.86,18-.68,6.82-1.29,13.7-.58,20.52l-2.5,16.13c2.87,58.3,5.71,117-2.63,174.79-2.29,15.84-6.29,33-19,42.7-6.29,4.77-14.3,7.33-19.5,13.26-11.31,12.89-5.4,36.78-19.72,46.21-4.24,2.8-9.45,3.59-14.48,4.32-12.08,1.74-27.18,2.14-33.35-8.39-4.51-7.7-2.17-18.71-8.52-25-8.66-8.54-25.8-.83-34.2-9.63l0-9.11q14.87-112.07,29.72-224.13c1.5-11.27,3-22.67,1.84-34s-5.24-22.7-13.42-30.59c-11.28-10.88-28-13.34-43.59-15-17.54-1.91-35.11-3.53-52.68-5.16l-62-5.74c-25-2.31-50-4.63-74.88-7.56-8.93-1.06-18.06-2.25-26.05-6.39l-10.17.88-11.18-12.25,1.2-38.83c.29-9.52.69-19.43,5.25-27.79,2.54-4.63,6.22-8.51,9.72-12.46,8.26-9.33,16-20,17.71-32.3.46-3.31.48-6.69,1.29-9.94,2.53-10.21,12-16.95,17.69-25.81l7.1,1.59c25.72-2.5,52.3-4.91,76.9,3q-1-8.36-1.91-16.72c-.38-3.28-.77-6.64-2.22-9.61a48,48,0,0,0-3.72-5.7c-8.22-12.11-8.67-27.69-8.85-42.33l-.52-6.42c-1.3-6.59,1.21-13.26,2.14-19.92,2.85-20.4-9.15-40-10.1-60.59-.56,4.41-3,8.3-5.47,12l-32,49.33c-9,13.82-18,27.75-29.67,39.43l-1.43,3-4.84-1.12c-14.42-3.11-26.26-15.38-41-15.68-5.38-.11-10.77,1.43-16.1.66l-.22-1.41c12.27-85.47,7.34-172.36,2.39-258.56l-2.42-7.83c1-15.62-.47-31.28-2-46.86l-1.89-19.43c-.36-3.73-.72-7.51,0-11.19,1.36-7.4,6.74-13.52,8.54-20.82l2.23-5.62a36.51,36.51,0,0,1,9-16.07c4.74-4.9,10.77-8.36,16.88-11.39a34,34,0,0,1,10.54-3.71c3.71-.48,7.74.27,10.51,2.78l4,2.69-4.11,6.72a127.4,127.4,0,0,1-17.64,43.28,98.81,98.81,0,0,1,29.91-1.69c5.28.51,10.55,1.45,15.86,1.4s10.8-1.2,15-4.43l8.15-4.62c3.82,2.85,6.65,6.79,9.91,10.27a54.24,54.24,0,0,0,42.18,16.77,10,10,0,0,1-6.14-5.89,26.39,26.39,0,0,1-1.68-8.6c-.63-8.8-.53-17.66-1.68-26.4s-3.64-17.53-8.88-24.63-13.58-12.28-22.4-12.11l-1.13-.75a27.13,27.13,0,0,0-8.26-21.57,14.45,14.45,0,0,1-3.3-3.69,11.06,11.06,0,0,1-.87-3.16c-.51-2.88-1-5.75-1.51-8.63l-3.25-5.83a31.15,31.15,0,0,0-20.86-12.57l-5.48.37c-4.64,3.45-10.84,3.55-16.55,4.44a54.78,54.78,0,0,0-22.46,8.86q-.79-12.75-1.58-25.5l1-7.56,5.67-18a8.06,8.06,0,0,1,1.26-2.72l1.2-5.55c7.58-11.72,14.53-23.93,19.28-37.06s7.23-27.23,5.72-41.1l-2.68-6.24,7.17,1.53,12.36-25c2-4,4-8.07,6.24-12,5.67-9.81,12.91-18.61,20.11-27.35l7.88-7,3.14-1.33a32.67,32.67,0,0,0,13.75-13.5c3.78,3.55,9.56,3.76,14.72,3.22,11-1.16,22.32-5.22,29-14,2.4-3.12,4.16-6.77,7-9.49,4.29-4.12,10.62-5.73,14.56-10.19,1.55-1.75,2.65-3.87,4.33-5.5,2.14-2.06,5-3.15,7.72-4.33a85.51,85.51,0,0,0,21.88-13.76l.68-.23,15.14,5.94a95.37,95.37,0,0,0,11.79,4c8,2,16.43,1.87,24.7,1.72-9.92-8.5-20.74-17.41-33.76-18.58-4.36-.39-8.74.12-13.12.16-13.77.11-27.39-4.47-41.09-3.15l-.7-.52a15.73,15.73,0,0,0-12.25-14.75l3.09-4.25c2.32-16.38,14-30.07,17.57-46.22,1.33-6,1.53-12.27,3.81-18l9-15.83c10.36-9.77,17.33-23.18,18.24-37.42.17-2.69.13-5.5-1-7.93l6.52-4q14-16.12,27.95-32.24c10.05-11.59,20.17-23.24,32.09-32.89,4.13-3.33,8.45-6.41,12.78-9.47,8.22-5.81,16.58-11.62,25.93-15.36a100,100,0,0,1,19.51-5.25c10.09-1.82,20.43-2.88,30.6-1.6s20.24,5.06,27.82,12a143.28,143.28,0,0,0,9.5-56.73c-3-4-9.61-3.08-13.37.24s-5.68,8.19-8.39,12.4a30.48,30.48,0,0,1-16.51,12.89c-5.7,1.7-11.79,1.38-17.74,1-8.83-.49-17.75-1-26.25-3.43s-16.69-7-21.87-14.15c-.87-1.21-1.73-2.56-3.09-3.17a7.58,7.58,0,0,0-4.23-.19l-20.43,3c-7.43,1.09-15,2.17-22.41.68-13.69-2.76-24.55-14.5-28.47-27.91l-.95-7.5c.54-8.78.07-17.59.54-26.37s2-17.69,6.14-25.43,11.33-14.22,20-15.9q-3.18-22.29-5.23-44.72l-.16-14.45a48.47,48.47,0,0,0-8.63-49.75c-4.15-4.6-9.39-8.67-11.26-14.59-1.33-4.22-.74-8.83-1.81-13.13l-3.12-19.53c0-12.64-4.27-24.83-7.26-37.11s-4.7-25.59.17-37.26c.63-1.51,1.39-3.12,1-4.73a8.62,8.62,0,0,0-2.17-3.44c-3.18-3.8-5.16-8.44-7.09-13-2.2-5.2-4.42-11.1-2.26-16.32,1.2-2.92,3.61-5.13,5.7-7.49a43.59,43.59,0,0,0,10.84-27.77,86.66,86.66,0,0,0-1.45-15q-2.32-14.93-4.66-29.87l-.46-11.3L931,248a184.85,184.85,0,0,1-3.83-22A66.06,66.06,0,0,1,929,201.85a35.66,35.66,0,0,1,7.78-14.61c10.09-10.84,26.7-11.62,41.51-11.65.43-2.92-1.44-5.62-2.36-8.43-2.76-8.52,3.47-17.32,10.36-23.06s15.17-10.62,18.81-18.81c2.78-6.26,2.34-13.41,1.85-20.25-.42-5.89-.88-11.92-3.2-17.35C1000,79,992.11,73,984.54,67.39l-4.85-8.64c-3.64-13.68,4.54-28.45,16.41-36.16s26.57-9.62,40.72-9.75c12-.1,25.7,1.78,32.82,11.51,4.33-6.38,11.3-10.63,18.68-12.89,14.85-4.56,31.68-1.34,44.34,7.68S1153.73,42.63,1156.2,58c.34,2.15.74,4.58,2.55,5.78,2,1.35,4.71.47,7-.36a89.5,89.5,0,0,1,18.32-4.5c10.11-1.38,21.28-.72,29.19,5.73,9.89,8.06,11.61,22.25,12.59,35q1.1,14.14,2.18,28.28c18.67-3.57,38.36,4.62,51.57,18.29s20.53,32.16,23.89,50.87c3.31,18.44,2,40-12.3,52.2l.88,8.7a71.47,71.47,0,0,1,20.29,15.82c11,12.4,17.33,28.17,23.12,43.71,5,13.57,9.76,29.19,3,42-1.3,2.45-3,4.72-3.77,7.37-1.46,5,.53,10.21,2.48,15,1.37,3.37,3,7,6.18,8.73,2,1.1,4.43,1.25,6.74,1.38l41.48,2.38c10.73.61,22.19,1.49,30.65,8.1,7.55,5.9,11.34,15.38,13.66,24.68a119.44,119.44,0,0,1-7.85,79.29c-7.35,15.55-18.44,31.13-15.92,48.15l3.16,14.67q5.31,21.28,10.64,42.58c3.28,13.11,6.44,27.51.54,39.66-6.36,13.13-21.12,19.41-34.17,25.94-1.86.93-3.83,2-4.72,3.89a9.48,9.48,0,0,0-.49,4.65c.54,8.1,1.54,16.21,1,24.31-1.17,16.49-8.71,31.75-16.12,46.52-8.14,16.21-17.75,33.8-34.77,40.1-5.52,2-11.45,2.71-17.33,3.11-11.94.82-24.15.58-35.58-3s-22.09-10.77-27.83-21.28c-1.66,15.24-4.57,32.57-17.55,40.73-6.48,4.08-14.47,5-22.11,4.64a70.21,70.21,0,0,1-23.88-5.57l-3.21,7.83a270.85,270.85,0,0,0-.36,60.24,118.16,118.16,0,0,1,83.59,40.13c5.49,6.33,10.32,13.27,16.48,18.94,19.05,17.52,47.52,20.22,69.15,34.43,23.36,15.33,36.19,42.24,45.42,68.61l6.84,14.27a288.06,288.06,0,0,1,28.58,72c2.45,9.89,4.38,20,8.11,29.46,3.33,8.46,8,16.31,12,24.48a158,158,0,0,1,15.68,60.87l3.67,5a129.25,129.25,0,0,1,46,25c5.73,4.84,11,10.18,17.14,14.54,11,7.82,25.37,13.64,29.27,26.53l3.89,9,7.2,24.23a62.65,62.65,0,0,1,2.52,10.69c.54,4.75,0,9.55-.49,14.3-1.7,16.73-2.59,34.11,3.25,49.87,1.36,3.69,3.09,7.27,3.92,11.11,1.72,8-.51,16.24.35,24.32l-1.46,12.35-.45,10.66c-.53,12.53-1,25.44,3.21,37.25l1.74,11q1.63,7.2,3.28,14.39a35.76,35.76,0,0,0,2.85,8.85,49.34,49.34,0,0,0,5.36,7.29c5.29,6.67,9.17,14.32,13,21.91l8.13.75c12,13.17,18.37,30.59,22.23,48q1.17,5.23,2.06,10.54c4.44,26.2,4,53,3.11,79.54l1.29,8.09c.45,2.27.89,4.54,1.34,6.8.51,2.61,1.08,5.35,2.83,7.35a15.31,15.31,0,0,0,5.61,3.5l17.66,7.73,5.79-8.43c2.25-2.34,4.72-4.81,7.92-5.38,2.73-.5,5.5.49,8,1.63a60.19,60.19,0,0,1,21.19,16.05l13.47,6.74a162.2,162.2,0,0,1,46.92,73.61c7.91,26.18,9.4,54.91,23.91,78.09,8.07,12.88,19.68,23.16,28.71,35.39,12.67,17.15,19.92,37.6,27,57.72s14.08,40,19.15,60.63a330.42,330.42,0,0,1,9.14,61.14l5.37,11.21c4.74,30.58,23,57.28,32.3,86.78a217.2,217.2,0,0,1,6,24.65c6,31.26,8,63.13,10,94.9C1949.38,2364,1950.09,2376.39,1946.41,2387.86Zm-447.87-480c-1-3.32-3.59-6.21-3.51-9.66,0-2.38,1.4-4.53,1.74-6.88.55-3.76-1.48-7.35-3.44-10.6l-2.76-6.37q-1-8-2.09-16a2.69,2.69,0,0,0-1.75,1.07l-6.23,6.64a15.35,15.35,0,0,0-2,2.38c-.54.89-.88,1.88-1.35,2.81a11.64,11.64,0,0,1-4.58,4.85l-5.28,4.67a689.24,689.24,0,0,0-82.13-13.63l-11-4.94c-12.87-3.87-20.9-16.46-26.72-28.58-5.62-11.72-10.35-24.52-8.86-37.44,1.29-11.22,7.13-21.33,12.84-31.07l.2-6c-3.2-3.64-7.63-5.91-11.94-8.1l-56.91-28.84c-8.28-4.2-16.58-8.4-25.23-11.77-11.41-4.43-23.34-7.37-35.31-9.86a508.47,508.47,0,0,0-63.09-9.06c-6.93-.56-15.39-.19-18.76,5.89-2.12,3.81-1.32,8.51-2,12.81-.56,3.44-2.09,6.64-3.34,9.9-7.51,19.52-5.25,41.26-2.88,62,.22,1.92.57,4.08,2.15,5.19a6.82,6.82,0,0,0,2.88,1l35.66,6.18c5.81,1,11.69,2,17,4.51,10.34,4.8,17.74,14.79,20.88,25.75,1.46,5.08,2.13,10.49,4.74,15.09,2.23,4,5.73,7,9.15,10l29.85,25.88,4,7c4.21,11.12,14.15,19,24.19,25.33a199.52,199.52,0,0,0,24.76,13.36l18.17,2.48a262.77,262.77,0,0,1,71.25,25.61c-5.67-10.66-3.59-23.88-7.83-35.19l7.83-7.5c10.43,0,22.24,6.5,38.55,6.5,15.75,0,20.25-2.71,35.16-.6l4.23,6.47c-.3,1.23.74,2.33,1.56,3.29a12.93,12.93,0,0,1,2.43,4.42,18.64,18.64,0,0,0,.89,2.77,11,11,0,0,0,2,2.61l4.26,4.52c.35.38.8.78,1.3.68s.72-.58.91-1c.83-1.84,1.66-4,.82-5.8l2.54-4.74a35.07,35.07,0,0,0,5.84-8.14A13.91,13.91,0,0,0,1498.54,1907.83Zm-802-272.27c.29-1.63,2-3.14,3.52-2.6l.18-.49q0-36.35-2.44-72.64c-.32-4.75-1.44-10.55-6-12l-8.75.25a24.58,24.58,0,0,0-10.8,14.68c-1.06,4.12-1,8.44-1,12.69.46,36.38.93,72.76,3.18,109.07l1.2.26c-.13-1.34,2-1.92,2.94-1a3.53,3.53,0,0,1,.25,3.8,38.11,38.11,0,0,0-1.84,3.6,11.2,11.2,0,0,0-.33,3.61q.91,41.24,1.81,82.47a12.33,12.33,0,0,1,13,3.06c2,2.17,3.68,5.33,6.63,5.47l.82-.84q1.69-45.21,3.41-90.44c.68-18.24,1.29-37-4.93-54.18A9.43,9.43,0,0,1,696.52,1635.56Z"></path>
    <path data-name="4" data-official="Cyanotis axillaris" data-plain="Axil-flowered Cyanotis" data-loc="East Indies" d="M1481.2,2150.14a67.57,67.57,0,0,0,12.36-3.77l9-5.43a42.64,42.64,0,0,1,24.58,16.25l-.1,13.6-1.5,9.08c-8.66,31.66-15,63.92-20.38,96.29-3.64,21.7-7,43.68-15.16,64.1-2.09,5.22-4.57,10.42-8.49,14.45-3.21,3.3-7.4,5.86-9.42,10-4.52,9.26,4,21-.27,30.33-2,4.26-6.28,7-10.82,8.22s-9.29.95-14,.62c-4.52-.32-9.24-.8-13-3.28-5.67-3.73-7.84-11.16-7.54-17.94s2.62-13.29,4-19.93c.88-4.18,1.31-8.82-.9-12.47-2.64-4.36-8.59-6.48-9.88-11.42a13.26,13.26,0,0,1,.16-5.74c1.83-9.88,5.14-19.41,8.44-28.89,7.9-22.73,15.84-45.53,26.61-67,2.08-4.15,4.26-8.25,5.93-12.57a115.51,115.51,0,0,0,3.9-13.07c4.43-17.31,8.89-34.71,15.92-51.15Zm-302.73-141c-12.53,19.53-25.46,40.33-26.21,63.52-.09,2.76.07,5.74,1.8,7.9,2.18,2.72,6.32,3.2,9.61,2s5.95-3.64,8.44-6.08a134.73,134.73,0,0,0,13.45-14.92c10.15-13.47,17.18-30.55,32.12-38.35l3.94-5.19-1.44-5.86a100.61,100.61,0,0,0-11.37-6.18l-6.45-3.15c-3.46-1.69-7.29-3.42-11-2.43l-8.18,2.11Zm195.75-147,11,4.94a689.24,689.24,0,0,1,82.13,13.63l5.28-4.67a11.64,11.64,0,0,0,4.58-4.85l13.37,3.15,2.76,6.37c2,3.25,4,6.84,3.44,10.6-.34,2.35-1.69,4.5-1.74,6.88-.08,3.45,2.53,6.34,3.51,9.66a13.91,13.91,0,0,1-1.13,9.77,35.07,35.07,0,0,1-5.84,8.14l-15.16-3.45c-.82-1-1.86-2.06-1.56-3.29l-4.23-6.47c-14.91-2.11-19.41.6-35.16.6-16.31,0-28.12-6.5-38.55-6.5l-7.83,7.5-6.47,1.67q-16.77,1.77-33.63,2.47a65.64,65.64,0,0,0-7.43.58,61.58,61.58,0,0,0-10.26,2.87l-5.63,2-18.17-2.48a199.52,199.52,0,0,1-24.76-13.36c-10-6.36-20-14.21-24.19-25.33l6.66.25a343.84,343.84,0,0,1,85.49-25.26Zm204.38-553.24,9.6-20.8c2.7-5.84,5.45-11.76,9.57-16.7s9.86-8.87,16.27-9.43c11.08-1,20.23,7.8,29.51,13.92,2.86,1.88,7.3,3.27,9.18.41a6.81,6.81,0,0,0,.65-4.27,398.48,398.48,0,0,0-6.69-50.91l-1.54-10.82c-8.37-19.38-5.15-41.47-4.49-62.57A246.06,246.06,0,0,0,1608.09,1018c-3-5.15-7.25-10.83-13.19-10.61.67,38.73-20.2,77.15-53.05,97.67-4.95,3.09-10.19,5.83-14.47,9.79-7.53,6.95-11.48,17-18.64,24.35-3.73,3.82-8.23,6.78-12.55,9.93a165.05,165.05,0,0,0-31,29.43l-5.79,7.34c-4-8.17-8.67-16-12-24.48l3.11-38.69a134.73,134.73,0,0,1,27.21-57.39c7.63-9.39,16.51-17.74,23.74-27.44s12.84-21.26,12.51-33.35c-.21-7.9-2.94-15.53-3.68-23.41a46.94,46.94,0,0,1,6.74-28.73l-4.63-6.46a27.24,27.24,0,0,1,10.84-48.43c-5.12-7.12-.38-17.2,5.81-23.4,10.22-10.24,24.1-16.24,38.27-19.16s28.76-3,43.23-2.81c2.89,0,6.1,0,8.22-2,1.72-1.6,2.29-4.09,2.48-6.43a30.21,30.21,0,0,0-2.59-14.94c-13.11,5.25-29.51.44-37.7-11-2-2.81-3.8-6.16-7-7.37-3.92-1.47-8.16.82-11.63,3.16a171.62,171.62,0,0,0-30.54,26.27c-5.11,5.57-10.93,12-18.49,11.83-7.1-.15-12.87-6.59-14.39-13.53s.3-14.15,2.7-20.84a124.12,124.12,0,0,1,60.11-68.08c5.1-2.58,10.67-5.06,13.74-9.88,4.31-6.77,2.19-15.55,2-23.57,0-2.33.17-4.9,1.81-6.57a9.27,9.27,0,0,1,4.39-2.1,89.54,89.54,0,0,1,33.08-2.35c-.53-3.06,2-6,4.94-7s6.15-.58,9.22-.14l23.35,3.32,42,6c5.59.8,11.3,1.63,16.31,4.23s9.29,7.33,9.76,13c.3,3.63-1,7.21-1.25,10.85s.94,7.91,4.33,9.25a19.56,19.56,0,0,0,4,.75c6.66,1.14,11.43,7.66,12.39,14.36s-1.14,13.45-3.85,19.64a100,100,0,0,1-16.4,25.82l-4.4,8.33c18.29,9.3,28.55,29.06,44.09,42.46,7.92,6.82,17.15,11.94,25.49,18.23S1802.91,888,1805.93,898c2.3,7.63,1.7,15.85,3.58,23.59,2.61,10.7,9.85,20,11.25,31,.59,4.55-.17,9.78-3.82,12.57-2.83,2.16-6.69,2.32-10.25,2.07A60.67,60.67,0,0,1,1768,949.26c-8.55-8.75-14.22-19.86-21.79-29.46a92.38,92.38,0,0,0-37.14-28c-5.46-2.25-11.17-4-16.26-7a38.59,38.59,0,0,1-18.63-35c-10.67,29.76-17.68,60.95-19.19,92.53-.38,7.88-.42,15.82-1.76,23.6-.89,5.15-2.34,10.23-2.56,15.45-.52,12.29,5.75,23.69,11.47,34.58a548.09,548.09,0,0,1,27.22,60.34l4.66,7.09a26.68,26.68,0,0,1,30.4-5.86c7.26,3.49,12.44,10.09,17.74,16.17,24.85,28.54,57.1,49.4,87.12,72.43s59.06,49.82,73.35,84.86c8.7,21.35,11.43,44.58,16.74,67a294.22,294.22,0,0,0,14.37,44.51c3.37,8.14,7,17.81,2.33,25.27-5.27,8.36-17.62,8.23-27,5-10.66-3.68-20.25-10-28.93-17.19-19.37-16.05-34.54-36.48-49.5-56.69l-3.38-4.56c-16.8-22.68-33.84-45.82-43.16-72.46-3.85-11-6.59-23-14.45-31.56-9.26-10.14-23.57-13.49-36.81-17.12s-27.46-9-34.11-21c-3.9,44.69,3.26,89.49,8.53,134l1.92,7.49a506.38,506.38,0,0,1,8.73,171c-.22,1.83-.43,3.76.35,5.42a8.35,8.35,0,0,0,3,3.11c9.39,6.54,21.75,6.76,32.28,11.24,5.39,2.3,10.24,5.68,15,9.08q44,31.32,85.06,66.54l7.57,8.68c63.79,60.23,95.06,153,80.71,239.59-3,18-7.78,35.61-12.57,53.2L1919.11,1919c-2.17,8-5.36,17.13-13.18,19.86-7.44,2.6-15.88-2.4-19.55-9.37s-3.64-15.27-2.86-23.11c1.21-12.28,4-24.39,4.71-36.71,1.17-20.06-3.18-40-7.61-59.58-2.82-12.5-5.77-25.17-11.95-36.4-5-9.14-12.06-17-17.93-25.65a117.63,117.63,0,0,1-17.34-39.94c-2.94-12.94-4.25-27.51-14-36.57-10.13-9.45-26-9.53-37.46-17.37-10.59-7.26-16.22-20.41-27.26-27-6.27-3.73-13.67-4.94-20.6-7.23s-14-6.27-16.71-13q-2.51,38.83-5,77.67c-1.13,17.64-2.42,35.85-10.47,51.58l-4.58,7.32c-3.2.57-5.67,3-7.92,5.38l-5.79,8.43-17.66-7.73a15.31,15.31,0,0,1-5.61-3.5c-1.75-2-2.32-4.74-2.83-7.35-.45-2.26-.89-4.53-1.34-6.8l-1.29-8.09c.86-26.57,1.33-53.34-3.11-79.54q-.9-5.29-2.06-10.54c-3.86-17.42-10.2-34.84-22.23-48l-8.13-.75c-3.84-7.59-7.72-15.24-13-21.91a49.34,49.34,0,0,1-5.36-7.29,35.76,35.76,0,0,1-2.85-8.85q-1.64-7.18-3.28-14.39l-1.74-11c-4.23-11.81-3.74-24.72-3.21-37.25l.45-10.66,1.46-12.35c-.86-8.08,1.37-16.37-.35-24.32-.83-3.84-2.56-7.42-3.92-11.11-5.84-15.76-4.95-33.14-3.25-49.87.49-4.75,1-9.55.49-14.3a62.65,62.65,0,0,0-2.52-10.69l-7.2-24.23Z"></path>
    <path data-name="4a" data-official="" data-plain="Stamen" data-loc="" d="M987.34,2650.72c1.32-6.15,6.45-10.69,9.16-16.36,3-6.22,2.88-13.43,2.43-20.31-1.45-22.16-5.91-44.09-6.3-66.29-.22-13.15,1-26.27,2.19-39.36.58-6.24,1.17-12.55,3.28-18.45,1.73-4.86,4.47-9.35,5.85-14.33,3.14-11.3-.92-24.17,4.35-34.64a21.25,21.25,0,0,1,32.86-6.56c5.5,4.73,8.23,12,9.1,19.24s.07,14.5-.32,21.75a196.74,196.74,0,0,0,2.84,45.46c1.64,9.08,3.92,18,5.15,27.18a120.37,120.37,0,0,1-6.54,58c-3.27,8.7-7.59,18.25-4.11,26.87,2.4,5.95,8,9.92,11.62,15.23,5.72,8.45,5.11,21.36-2.89,27.69-4.45,3.52-10.29,4.62-15.88,5.61-10.39,1.84-21.16,3.67-31.4,1.11s-19.87-10.76-20.57-21.29Z"></path>
    <path data-name="5a" data-official="" data-plain="Stamen of T. virginica" data-loc="" d="M241.59,2666c.58-6.49,4.4-12.16,7.37-18s5.16-12.8,2.4-18.71c-2.59-5.52-8.77-8.48-12.11-13.58a27.9,27.9,0,0,1-3.28-8.32,121,121,0,0,1,3.73-72.18c3.78-10.12,9-19.81,11.07-30.41.77-3.85,1.11-7.94-.22-11.64-2.49-7-10-10.64-14.88-16.16-5.66-6.33-7.84-15-9.17-23.39-1.12-7-1.76-14.4.6-21.11a24.73,24.73,0,0,1,38.68-11.2c1.27,1,2.58,2.2,4.2,2.29a7.18,7.18,0,0,0,3.52-1.08c7.7-3.82,16.77-6.22,24.86-3.3,10,3.62,15.65,14.22,19,24.34,1.27,3.8,2.38,7.8,1.86,11.78-.59,4.58-3.26,8.61-6.1,12.26-5.74,7.39-12.57,14.21-16,22.91s-2.34,20.21,5.51,25.31c1.93,1.24,4.13,2,6,3.37a20.74,20.74,0,0,1,5.81,7.38,69.5,69.5,0,0,1,7,45.07c-1.14,6.14-3.12,12.15-3.45,18.39-.48,9,2.43,18.37-.68,26.81-1.88,5.08-5.82,9.37-6.75,14.7-2.12,12.08,11.83,24.18,6.44,35.19-3.16,6.43-11.24,8.35-18.3,9.55l-29.08,4.92c-5.08.86-10.27,1.72-15.35.89s-10.14-3.67-12.24-8.37Z"></path>
    <path data-name="5b" data-official="" data-plain="Pistil" data-loc="" d="M343.26,2628.81c5-11.33-1.77-24-5.75-35.72-5.28-15.56-5.56-32.31-5.79-48.74-.06-4.43-.11-9,1.43-13.12,1.14-3.09,3.11-5.81,4.33-8.87,2.06-5.2,1.83-11,1.56-16.57l-1.73-36c-.55-11.57-1.05-23.54,3.07-34.37s14.13-20.31,25.72-20c4.18.1,8.8,1.92,10.27,5.84a13.37,13.37,0,0,1,.26,6.45c-1,7.45-2.94,14.74-4.39,22.13a181.25,181.25,0,0,0-3.33,29.66c-.27,9.34.22,18.9,3.61,27.6,2.6,6.69,6.82,12.64,9.69,19.22,4.88,11.17,5.68,23.62,6.41,35.79l2.36,39.38c.25,4.27.55,8.69,2.62,12.43,1.8,3.26,4.77,5.68,7.14,8.55a27.42,27.42,0,0,1-6.85,40.82c-4.33,2.65-9.3,4-14.26,5.08a118,118,0,0,1-18.15,2.37c-10.17.52-22.43-1.61-26.44-11-3.62-8.46,1.62-17.93,7-25.43Z"></path>
    <path data-name="5c" data-official="" data-plain="Calyx and Ovary" data-loc="" d="M462.52,2676c2.94-9.87,12-17.5,13-27.74.75-7.62-3.19-14.83-7-21.48-4.11-7.17-8.53-14.66-15.63-18.89-3.66-2.19-7.87-3.39-11.44-5.72-7.45-4.85-11-13.73-14.27-22-6.11-15.5-13-31.23-25-42.84-3.88-3.77-8.69-8.42-7.14-13.6,1.06-3.51,4.71-5.5,8.12-6.84a71.3,71.3,0,0,1,52.7.44c1.7.7,4,1.33,5.1-.16a3.94,3.94,0,0,0,.6-1.71l3.45-18.63c.94-5.1,2.11-10.61,6-14,5.37-4.69,14.14-3.34,19.55,1.29s8.13,11.64,10,18.51,3.26,14.29,7.79,19.83a4.8,4.8,0,0,0,2.63,1.91,5.43,5.43,0,0,0,3.06-.63l25.86-11c3.62-1.54,7.35-3.09,11.28-3.19s8.16,1.61,9.93,5.12c1.28,2.54,1.08,5.55.7,8.37a76.6,76.6,0,0,1-13.7,34.38c-3.89,5.39-8.52,10.34-11.27,16.39-2,4.36-2.93,9.16-5,13.46-2.68,5.46-7.1,9.86-10.13,15.13a34.38,34.38,0,0,0,.75,34.77c4.76,7.51,12.64,13.5,14.24,22.25s-4,17.59-11.53,22.36-16.6,6.28-25.43,7.41c-11.94,1.52-25.14,2.22-34.86-4.87Z"></path>
    <path data-name="5d" data-official="" data-plain="Section of Capsule" data-loc="" d="M580.52,2662.79c-3.59-7.1.45-15.55,4.74-22.24s9.14-14.35,7-22c-2.18-7.9-10.71-12-16.07-18.17-5.09-5.89-7.29-13.84-7.58-21.62s1.17-15.5,2.63-23.15c.77-4.09,1.63-8.36,4.21-11.62,3.14-4,8.24-5.77,12.47-8.58,7.2-4.8,12.3-13,20.57-15.51,5.66-1.74,11.9-.46,17.18,2.23s9.76,6.66,14.19,10.6l15,13.38c5.57,5,11.35,10.21,13.91,17.22s1.47,15.13-1.59,22-7.9,12.84-12.9,18.5a14.67,14.67,0,0,0-3.29,4.92c-1.27,3.94,1,8,2.82,11.75,5.91,12.15,6.69,28.21-2.66,38-5.64,5.88-13.86,8.43-21.84,10.05a137.49,137.49,0,0,1-42.79,1.84Z"></path>
    <path data-name="5e" data-official="" data-plain="Hair, magnified" data-loc="" d="M696.6,2688.71l11.4-22a5.87,5.87,0,0,0,1-3.55,7,7,0,0,0-1.83-3c-4-5-4.65-11.87-3.73-18.16s3.24-12.29,4.65-18.49c2.5-11,2.1-22.45,1.69-33.74-1.54-42.33-3.1-84.84-11-126.45-2-10.82-4.53-21.74-3.72-32.72.23-3.14.77-6.37,2.56-9,4.41-6.41,14.73-5.85,20.71-.86s8.64,12.8,10.88,20.26a527.87,527.87,0,0,1,22.18,155.15c-.05,8.11-.3,16.27.91,24.29,1.32,8.72,4.32,17.09,7.31,25.39l9.6,26.68c1.42,4,2.86,8.29,1.53,12.28-1.11,3.31-3.93,5.75-6.85,7.66-13.55,8.87-30.64,9.77-46.83,10.13-7.29.16-15.4,0-20.69-5.06Z"></path>
    <path data-name="6a" data-official="" data-plain="Capsule of Aneilema" data-loc="" d="M1329.56,2671.62c2.62-8.26,14.09-12.33,14.41-21a18.57,18.57,0,0,0-1.36-6.5c-5.28-15.51-10.56-31-17-46.08-4.37-10.17-9.27-20.14-12.63-30.68-5.89-18.51-6.82-38.17-7.71-57.57-.5-11.05-.94-22.53,3.38-32.71,5.12-12.1,16.23-20.59,27.67-27.05s23.77-11.53,34.09-19.67c4-3.18,7.79-6.84,12.48-8.92s10.74-2.17,14.42,1.41c6.35,6.17,1.41,17.43,5.18,25.45,1.92,4.08,5.84,6.77,9.18,9.8,9.43,8.56,14.76,20.72,18.52,32.9,5.78,18.74,8.45,38.62,6.12,58.1-2.39,20-10,39.25-21,56.19-5.3,8.21-11.43,16-15.06,25.11s-4.4,20,.91,28.2c3.95,6.13,11,10.47,12.66,17.57,1.46,6.33-2.11,13-7.23,17s-11.54,5.88-17.81,7.57c-10.93,3-22.44,5.6-33.46,3s-21.3-11.92-21.08-23.24Z"></path>
    <path data-name="6b" data-official="" data-plain="Seed" data-loc="" d="M1475.72,2667c-2.52-11,6.22-22.05,4.68-33.25-1.4-10.21-10.68-17.27-15.61-26.32-5.74-10.54-5.29-23.23-4.69-35.22.3-6,.65-12.19,3.3-17.58,2.39-4.88,6.46-8.69,10.45-12.38l15.34-14.22c4-3.75,8.28-7.62,13.53-9.33,8.88-2.9,18.69,1,26,6.89s12.91,13.49,19.86,19.74c5.09,4.58,11,8.51,14.65,14.29,3.18,5,4.42,11,5,16.93,1,11.6-.63,24-7.57,33.33-3.08,4.16-7.15,7.66-9.3,12.37-4.67,10.19.87,23-4.07,33-3.93,8-13.14,11.67-21.59,14.48-14.23,4.73-30.76,8.76-43.46.8Z"></path>
    <path data-name="6c" data-official="" data-plain="Section" data-loc="" d="M1631.7,2669.3c4.77-7,8.65-15.84,5.77-23.83-2.54-7.07-9.54-11.32-15.65-15.7a106.58,106.58,0,0,1-37.35-48.69c-5.19-13.76-6.86-30.84,3-41.79,5.68-6.35,14.27-9.39,22.74-10.38s17-.15,25.53,0a18.47,18.47,0,0,0,5.89-.61c2.65-.86,4.78-2.79,7.08-4.35a28.28,28.28,0,0,1,20.2-4.45c7.1,1.15,13.5,5,20.51,6.64,10.22,2.41,21.19.06,31.27,3,15.63,4.57,25.27,21.29,26.34,37.54s-4.72,32.12-11.15,47.08c-2.23,5.18-4.64,10.47-8.78,14.3-3.62,3.36-8.54,5.61-10.69,10.05-3,6.26.84,13.67.1,20.58-.7,6.49-5.52,12-11.23,15.1s-12.28,4.31-18.73,5.3c-15.63,2.4-32,3.9-46.92-1.39Z"></path>
    <path data-name="6d" data-official="" data-plain="Embryo and Cover" data-loc="" d="M1774.58,2665.33a112.81,112.81,0,0,0,.1-62.57c-4.26-14.75-11.63-30-7.5-44.75,1.83-6.55,5.79-12.29,8.09-18.69,2.79-7.75,3.19-16.52,7.91-23.27a19.78,19.78,0,0,1,17.13-8.48c6.65.47,12.94,5.13,14.88,11.5,1,3.47.86,7.2,1.61,10.75,1.68,7.92,7.76,14,11.7,21.12,9.24,16.59,6.13,37.31-.1,55.25-1.76,5.07-3.78,10.45-2.52,15.67,1.7,7.07,8.73,11.37,15.35,14.37s13.94,5.88,17.7,12.1c4.79,8,1.64,18.84-5,25.29s-16,9.34-25.07,11.19a155.19,155.19,0,0,1-23.32,2.93c-5.88.29-11.88.23-17.48-1.59s-10.78-5.63-13-11.06Z"></path>
</svg>
