
<svg xmlns="http://www.w3.org/2000/svg" viewBox="0 0 1879 3019" id="illustration" preserveAspectRatio="xMidYMid meet">
    <title>Juncaceæ</title>
    <path data-name="1" data-official="Juncus conglomeratus" data-plain="Common Rush" data-loc="Wet places, Britain" d="M1018.56,2702.45a3.18,3.18,0,0,1,.68,3.61,8.06,8.06,0,0,1-2.47,3,41.58,41.58,0,0,1-13.75,7.78c-2.11.7-4.34,1.27-6,2.68s-2.71,4-1.55,5.9a7.24,7.24,0,0,0,3.13,2.35,73.83,73.83,0,0,1,12.54,8c2.55,2,5.2,4.8,4.64,8s-4.06,4.95-7.2,5.84a48.42,48.42,0,0,1-15.38,1.82l-4.18-2.62c-2.89-2.21-7.18-.93-10.08,1.27s-5.22,5.23-8.48,6.85c-4.44,2.22-9.71,1.43-14.6.6l-14.58-2.5c-4.74-.81-10.11-1.47-13.91,1.47-4.26,3.32-4.53,9.6-4,15s1.51,11.25-1.4,15.8c-3.15,4.92-9.57,6.39-15.36,7.21-10.11,1.43-21.44,1.86-29.38-4.56-5.79-4.67-8.52-12-12.18-18.52-2.26-4-5.54-8.14-10.12-8.54-4.11-.36-7.76,2.42-11.68,3.73-9.06,3-20-3.33-21.93-12.68-.91-4.5-.07-9.59-2.72-13.35-5.85-8.31-21.2-1.36-28.08-8.84-2.06-2.25-2.9-5.44-5-7.62-5-5.13-13.65-2.13-20.71-3.44l-3.89-3c-3.8-2.62-3.76-8.19-3-12.73.59-3.28,1.41-6.63,3.38-9.32,1.62-2.2,3.91-3.81,5.78-5.82s3.36-4.7,2.79-7.38a1.48,1.48,0,0,0-.52-1,1.7,1.7,0,0,0-1.16-.13,88.21,88.21,0,0,0-25.07,7.2c-4,1.83-7.92,4-12.21,4.94-5.09,1.14-10.4.55-15.57-.1a23,23,0,0,1-7.26-1.71,8,8,0,0,1-4.65-5.52c-.52-3.08,1.5-6.11,4.07-7.87s5.66-2.57,8.59-3.65a46.15,46.15,0,0,0,14.62-8.8,36.8,36.8,0,0,1,5.6-4.61c3.15-1.86,6.9-2.33,10.33-3.61,11.76-4.36,17.86-17.08,27.29-25.34A42.53,42.53,0,0,1,806.42,2622l-5.82-6c-17.73-13.84-29.51-34.21-36.39-55.62-3.69-11.49-6.07-23.36-8.38-35.2Q732.4,2404.56,720,2282.11l-2.69-7.91c-22.45-126.1-22.83-254.94-23.16-383-.08-32-.16-63.94,1.62-95.84A823.1,823.1,0,0,1,710,1682.42l.72-11.87q25-215.91,28.61-433.59l-1.7-16.87Q744.16,995.57,746.7,771l2.38-10.21-4.8-111.41c-.15-3.45-.33-7-1.77-10.13-2.45-5.29-8.21-8.43-14-9.29s-11.63.21-17.36,1.29c-16.84,3.15-34,6.41-51,3.79S626.38,622.67,620,606.76c-3.16-7.9-3.5-16.6-3.8-25.1-.7-20.42-1.27-41.29,4.69-60.83a61.41,61.41,0,0,1,9.92-20.1c5.59-7.14,13.14-12.44,20.58-17.63,26-18.09,53-36.65,84.18-42.05l5.5-1.29c-6.55-140.4-37.44-279.61-32.38-420.07,17.28,3.79,28,21,34.43,37.47,5,13,8.59,26.43,12,39.92a1489.93,1489.93,0,0,1,44.26,371.45l2,9.29q9.36,261,5.15,522.34l.18,6.65c6,170.19-20.34,340.12-17.59,510.4l-1.67,7.17a3943,3943,0,0,0-19.54,488.51l1,12.87,2.44,67.65c.61,16.9,1.22,33.84,3.73,50.56,3.82,25.48,12,50.09,20.11,74.54l-.19,12.45q3.07,57.54,11.85,114.58c3.77,24.55,8.35,49.1,8.74,73.94l-.08,7.92a368.64,368.64,0,0,0,20.06,98.35c2.66,7.59,6.61,16.07,14.39,18.12,6,1.58,12.32-1.37,17.1-5.32s8.66-9,13.67-12.61c1.76-1.29,3.72-2.49,4.76-4.41s.93-4.39,1-6.66c.48-10.57,7.56-20.7,17.52-24.26s22.21.1,28.14,8.87c2.87,4.26,4.23,9.35,5.18,14.4,2.84,15.14,2.39,30.68,1.92,46.08-.33,10.73-.69,21.67-4.37,31.75a18.35,18.35,0,0,0-1.54,5.79,16.8,16.8,0,0,0,.87,4.75,110.35,110.35,0,0,1,3.57,39.33l3.08,6.89a23.21,23.21,0,0,1,8.35,8.9,61.82,61.82,0,0,1,4.67,11.42,45,45,0,0,1,2.54,10.81c.29,4.23-.51,8.75,1.43,12.52a17.43,17.43,0,0,0,4.72,5.19,10.73,10.73,0,0,0,3.18,2,8.42,8.42,0,0,0,3.77.27c6.14-.71,11.7-4.61,17.88-4.61l1.77.7c4.17-.72,8.43.29,12.54,1.29Z"></path>
    <path data-name="1a" data-official="" data-plain="Flower" data-loc="" d="M115.58,2937.06c4.51-6.45,2.37-15.63-2.24-22s-11.26-11-16.73-16.61c-4.75-4.9-8.6-10.58-12.43-16.23-3.22-4.76-6.54-9.83-6.9-15.56-.29-4.7,1.48-9.32,3.9-13.37,7-11.67,19.24-19.53,32.3-23.33s26.93-3.88,40.48-2.74c13.11,1.09,26.81,3.6,36.91,12,3.56,3,6.68,6.86,7.25,11.45a18.87,18.87,0,0,1-.88,7.59c-2.58,8.88-8.07,16.64-11.28,25.32-2.85,7.69-4,16.19-8.61,22.94-3.78,5.49-9.87,9.8-11.11,16.34-1.07,5.68,1.88,11.23,3.83,16.67,3.18,8.82,3.56,19.43-2.17,26.85-3.55,4.58-9,7.37-14.66,8.7s-11.5,1.32-17.29,1.2c-6.69-.14-13.46-.45-19.86-2.41a8.32,8.32,0,0,1-3.87-2.09c-1.56-1.72-1.6-4.3-1.39-6.61a47.2,47.2,0,0,1,5.28-17.7Z"></path>
    <path data-name="1b" data-official="" data-plain="Pistil" data-loc="" d="M223.38,2963.1a38.34,38.34,0,0,0,8.5-24c0-6.62-1.75-13.1-2.76-19.64-1.28-8.33-1.35-17,1.5-25,1.78-5,4.64-9.47,6.42-14.44,2.64-7.36,2.76-15.35,2.86-23.18.14-11.51.17-23.51-4.86-33.87-4.4-9.06-12.34-16.08-16.41-25.29-3.83-8.66-3.9-18.44-3.74-27.9.06-3,.15-6,1.47-8.66,2.49-5,8.48-7,13.94-8.17a125.63,125.63,0,0,1,32.83-2.59c5.4.28,11.09,1,15.39,4.32s6.46,8.49,7.31,13.74c2.21,13.81-4.14,27.58-12,39.18-3.25,4.81-6.86,9.6-8.13,15.27-.88,3.9-.57,8-.26,11.93,1.46,19,3,38.28,9.23,56.3,3.64,10.49,8.95,21.19,7.11,32.15-1.12,6.72-4.91,13-4.83,19.78.07,6.2,3.33,11.85,5.34,17.72s2.45,13.2-2.06,17.47a16.63,16.63,0,0,1-5.58,3.18c-11.12,4.3-23.33,4.55-35.25,4.74-5,.08-10.25.08-14.44-2.58s-6.39-9-3.05-12.7Z"></path>
    <path data-name="1c" data-official="" data-plain="Capsule" data-loc="" d="M305.14,2962.42c-2.84-5.56-.28-12.35,3.12-17.58s7.78-10.17,8.88-16.32c1.16-6.49-1.55-13.43.63-19.66,1.07-3.07,3.29-5.79,3.54-9,.22-2.82-1.11-5.51-2.43-8-3.63-6.94-7.47-13.87-9.57-21.43s-2.31-15.94,1.17-23a63.63,63.63,0,0,0,3.17-6.21c1.75-4.75.75-10.09,1.92-15,1.51-6.32,6.62-11.42,12.63-13.9s12.78-2.59,19.17-1.39c3.16.6,6.55,1.72,8.23,4.46s1.07,6.51,1.44,9.85c1.14,10.28,12.16,17.22,13.72,27.44.7,4.53-.47,9.59,2.06,13.4s7.87,4.85,10.66,8.47c3.73,4.87,1.36,11.93-1.77,17.2a75.85,75.85,0,0,1-12.73,16c-4.81,4.59-10.28,8.6-14.16,14s-5.9,12.82-2.88,18.75c1.68,3.31,4.68,5.74,6.76,8.82a18.34,18.34,0,0,1,3,12.28,21.76,21.76,0,0,1-8.39,14.16,33.85,33.85,0,0,1-15.45,6.37C326.32,2984,313.39,2981,306,2972Z"></path>
    <path data-name="1d" data-official="" data-plain="Section" data-loc="" d="M397.45,2971.38a39.44,39.44,0,0,1,5.9-18.77c2.46-3.94,5.65-7.49,7.3-11.83,3.16-8.25.21-17.46-2.74-25.79L402,2898.35a34,34,0,0,1-2.34-9.35c-.18-3.22.68-6.64,3-8.88a16.48,16.48,0,0,1,4.64-2.85c14.06-6.62,29.11-12.62,44.62-11.67,5.47.34,11.32,1.8,14.77,6.07s3.65,10.24,2.88,15.65c-1.49,10.5-6,20.29-8.9,30.5-1.42,5-2.43,10.46-.91,15.47,1.66,5.43,6,9.57,8.73,14.55,5.38,9.87,3.14,23.53-5.68,30.5a34.92,34.92,0,0,1-11.93,5.67c-13.11,3.87-27,4.23-40.66,4.08-3.42,0-6.94-.13-10.06-1.53s-5.77-4.42-5.64-7.84Z"></path>
    <path data-name="1e" data-official="" data-plain="Long Section, magnified" data-loc="" d="M502.55,2969.59c5.16-6.82,7-15.71,6.74-24.26s-2.44-16.91-4.6-25.19q-3.17-12.13-6.34-24.26a136.69,136.69,0,0,1-3.84-18c-2.69-22.34,6.13-45.14,20.8-62.2,4-4.63,8.52-9,14.16-11.34s12.57-2.33,17.44,1.35c2.36,1.78,4.09,4.26,6.1,6.42,4.61,5,10.85,8.36,14.73,13.89,4.06,5.78,5,13.1,5.78,20.12q2,18.66,3,37.42c.88,16.78,1,34.16-5.31,49.71-1.28,3.11-2.82,6.18-3.31,9.5-1.38,9.34,5.67,19,2.44,27.85-2.48,6.79-10,10.18-16.93,12.24a128.76,128.76,0,0,1-28.69,5.08c-4.75.3-9.68.3-14-1.61s-8-6.18-7.8-10.94Z"></path>
    <path data-name="2" data-official="Juncus triglumis" data-plain="Three-flowered Rush" data-loc="Streams, Scotland" d="M1011.09,2735.74a73.83,73.83,0,0,0-12.54-8,7.24,7.24,0,0,1-3.13-2.35c-1.16-1.89-.16-4.48,1.55-5.9s3.94-2,6-2.68a41.58,41.58,0,0,0,13.75-7.78,8.06,8.06,0,0,0,2.47-3,3.18,3.18,0,0,0-.68-3.61l-16.87-5.49c-4.11-1-8.37-2-12.54-1.29l-1.77-.7c-6.18,0-11.74,3.9-17.88,4.61a8.42,8.42,0,0,1-3.77-.27,10.73,10.73,0,0,1-3.18-2,17.43,17.43,0,0,1-4.72-5.19c-1.94-3.77-1.14-8.29-1.43-12.52a45,45,0,0,0-2.54-10.81,61.82,61.82,0,0,0-4.67-11.42L959,2654c17.39-7.72,37.38-5.55,56.27-3.24q-5.46-10-10.28-20.37a102.54,102.54,0,0,1-6.13-15.59,120.25,120.25,0,0,1-2.91-15.68l-10.28-73.4-.33-7.7c-2.83-12.7-6.56-25.9-15.71-35.14-4.21-4.26-9.36-7.45-14.45-10.59l-23.81-14.68c-6.78-4.18-13.76-8.56-18.21-15.16s-5.64-16.1-.62-22.27a20.71,20.71,0,0,1,6.36-5c15.29-8.26,34.92-5.34,49.49,4.12l-6.09-22.61-2.42-7.61c-9.15-40.48-36.37-74.39-51-113.24-9.78-26-13.74-53.93-23-80.18-4.63-13.19-10.66-27.18-6.89-40.64a16.49,16.49,0,0,1,3.63-7,15.6,15.6,0,0,1,9.29-4.27c8.19-1.11,16.54,2,23.12,7s11.63,11.72,16.24,18.58c39.06,58.08,51.29,129.52,76.39,194.85,6.6-87.87-12.36-175.85-39.29-259.76-3.17-9.86-5.92-22.13,1.48-29.37,4.89-4.79,12.87-5.29,19.2-2.7s11.27,7.74,15.41,13.19c10.19,13.45,16.54,29.39,21.84,45.41a440.13,440.13,0,0,1,21.08,169.24c10.44-27.72,20.9-55.52,34.32-81.93,2.88-5.69,5.93-11.39,7.33-17.61,1.43-6.4,1-13.06.81-19.62a391.4,391.4,0,0,1,4.61-75.23l4-4.49a33.65,33.65,0,0,1,25.15,3l6.23,8.63c-.24,1.88,1.54,3.47,3.37,4s3.78.35,5.63.76a12.42,12.42,0,0,1,6.56,4.3,36.82,36.82,0,0,1,4.22,6.76l1.78,6.15A141.31,141.31,0,0,0,1153,2152c.71,4.62,1.78,9.47,5,12.91,1.72,1.87,4,3.23,5.52,5.26a18.73,18.73,0,0,1,2.73,6.6,208.07,208.07,0,0,1,6.17,36.43l1.4,8.62q1,16.08,1.63,32.19l8.63-12.36c4-5.75,8.08-11.55,13.21-16.34s11.47-8.56,18.44-9.42c3.13-.39,6.67,0,8.85,2.25,1.84,1.93,2.28,4.77,2.52,7.42,1.27,14.6-1.32,29.33-5.76,43.29s-10.69,27.27-16.92,40.54l-17.41,37.07-1.31,9.73q.88,19.05,3.06,38a2.39,2.39,0,0,0,3,2.51l80.22,2.7c7.06.24,14.25.5,20.9,2.85,4,1.39,7.9,3.76,9.66,7.58,1.58,3.46,1.09,7.58-.41,11.08-3.77,8.77-13.17,14-22.54,15.77s-19,.82-28.59.83c-20.28,0-40.57,4.43-60.73,2.25l-5.08,2.95a333.32,333.32,0,0,1-19.95,117.22c-.65,1.78-1.25,3.94-.06,5.4a20.93,20.93,0,0,0,2.14,1.69c1.41,1.31,1.59,3.45,1.46,5.36-.46,6.38-3.46,12.27-6.58,17.85a282.62,282.62,0,0,1-35.63,50.07l-1.21,5.09c7.21,1,14.47,1.93,21.32,4.36,7.08,2.5,13.52,6.49,20.17,10a157,157,0,0,0,43.27,15.13c6.31,1.21,13.09,2.21,17.9,6.47,5.29,4.68,7,12.7,4.87,19.45s-7.48,12.18-13.82,15.3c-5.41,2.66-11.45,3.77-17.45,4.46a137.75,137.75,0,0,1-61.56-7c-2.63-.94-5.35-2-8.13-1.7-5.21.5-8.8,5.23-13.08,8.23-7.14,5-18,6.54-20.73,14.83-1.25,3.84-.22,8.08-1.12,12-1,4.44-4.43,8.06-8.48,10.13a30.4,30.4,0,0,1-13.22,2.82c-6.8.15-14.68-1.64-17.67-7.75-1.36-2.78-1.59-6.28-3.92-8.34s-5.85-1.83-8.78-2.88c-4.16-1.48-7.64-5.64-12-5-3.74.56-7,4.66-10.53,3.33Zm120.39-1222.62c6.57-3.18,8.81-11.39,9.47-18.66s.66-15.19,5.11-21c2.41-3.14,5.92-5.31,8.28-8.49,4.12-5.55,3.06-15-3.33-17.67-1.44-.59-3-.8-4.46-1.36-7-2.7-8.75-11.93-14.2-17.16a15.81,15.81,0,0,0-19.19-1.62c-4.06,2.76-8,7.74-12.63,6.19-2.42-.8-3.9-3.18-5.36-5.27a44.06,44.06,0,0,0-5.88-6.84c-2.78-2.65-6.52-5.06-10.23-4s-5.71,5-6.88,8.72a61.88,61.88,0,0,0-2.71,14.39c-.13,2-.25,4.29-1.66,5.78-1.67,1.75-4.41,1.7-6.81,2-9.63,1.29-17,11.71-15,21.21.76,3.58,2.59,6.82,3.81,10.26s1.8,7.42.07,10.64c-2,3.68-6.28,5.29-10.13,6.91s-8,4-8.87,8.11c-.74,3.57,1.37,7.09,3.67,9.92a52.58,52.58,0,0,0,26.65,17.34c8.59,2.35,17.68,2.47,26.25,4.88a10.54,10.54,0,0,1,4.8,2.4c1.82,1.85,2.2,4.63,2.48,7.21q2.64,24.76,3.94,49.64l1.46,7.12c4.29,32.39,8.58,64.79,11.15,97.36,8.09,102.7-1,205.88-10.18,308.49l-.22,7.36,0,51.14c0,6.33.15,13.13,3.85,18.26l2,5.05a128.71,128.71,0,0,1,21.84-1.3l3.07-3.32c-.69-32.37,6.81-64.3,10-96.52,1.11-11.36,1.68-22.76,2.26-34.16l4.75-94.43,2.06-7-3.12-146.41c-.3-13.85-.6-27.73-2.42-41.46l1-7.39q-8.57-62.54-17.6-125l-2.26-15.86Z"></path>
    <path data-name="3" data-official="Luciola sylvatica" data-plain="Great Wood-rush" data-loc="England" d="M1628.39,1821.62c16.41-42.62,18.55-89.26,18.83-134.93,0-6.77,0-13.59,1.33-20.24,3.4-17.59,15.62-34.12,12.21-51.71-.56-2.84-1.6-5.73-3.76-7.66-3-2.64-7.32-2.92-11.28-2.57-21.18,1.89-38.86,17.63-50.13,35.66s-17.59,38.64-26.53,57.94c-3.72,8.05-7.91,15.89-11.85,23.84-11.59,23.41-21,47.82-31.6,71.7-2.36,5.31-5.07,10.94-10.12,13.82a1473.56,1473.56,0,0,0,13.8-206.5l.58-8c-1.79-8-6.88-14.79-9.22-22.6-2-6.56-1.89-13.54-1.8-20.39q1.28-104.87,2.56-209.74l1.55-9.32-.09-125.9c0-48.83-.1-98.06-9.89-145.91-2-9.57-4.31-19.11-5.07-28.85a5.7,5.7,0,0,1,.52-3.57c1.88-2.89,6.28-.59,8.92,1.61a56.76,56.76,0,0,0,31.71,12.93c3.57.28,7.79-.1,9.72-3.11s.65-6.78,1.46-10.13c1.77-7.3,11.47-8.8,18.94-8s16.53,1.71,21-4.31c3.26-4.35,2.73-11,6.79-14.63,4.58-4.07,14.21-4,14-10.13,0-2.07-1.49-3.85-1.9-5.88-1.09-5.4,4.84-9.23,9.5-12.16s9.13-9.45,5.19-13.29l-.64-8.88a49,49,0,0,0-32.11-32.25c-2.53-.77-5.25-1.41-7.15-3.25a13.59,13.59,0,0,1-2.87-5.13,148.53,148.53,0,0,1-8.65-42.6c-.64-10.32-.49-21.06-4.89-30.43-1.36-2.89-3-6.68-.72-8.91a7,7,0,0,1,3.15-1.47l12.15-3.32a3.52,3.52,0,0,1,2.17-.12,3.23,3.23,0,0,1,1.5,1.61c5.71,10.39,1.87,23.19,2.33,35,.34,8.53,3,16.78,5.74,24.85,2.46,7.17,5.19,14.53,10.5,19.94s13.94,8.3,20.67,4.82c3.39-1.76,6-4.91,9.56-6.25,7-2.6,14.14,2.46,21.11,5a32.75,32.75,0,0,0,23.8-.49c5.51-2.31,10.88-7.52,9.68-13.36-.83-4.07-4.71-7.79-3.3-11.69a7.6,7.6,0,0,1,2.91-3.4c4.89-3.51,11.33-4.59,15.77-8.66,4.94-4.54,6.41-11.89,11.13-16.67,5.73-5.8,14.67-6.46,22.65-8.11,4.9-1,10.35-3.13,12-7.85,1.47-4.22-.77-8.88-3.77-12.19s-6.77-5.91-9.39-9.54a11.11,11.11,0,0,1-2.39-6.86c.32-6,7.22-9.39,13.21-10.16s12.64-.46,17.33-4.28c3.76-3,5.32-8.19,5.17-13s-1.78-9.5-3.39-14.07l4.34-4.36c3.89-2.6,7.83-5.24,10.84-8.82s5-8.28,4.31-12.91c-.94-6.13-6.41-11.69-4.74-17.66,1.28-4.58,6.35-7.06,11.07-7.54s9.51.45,14.23,0,9.78-3,11-7.62c1.13-4.23-1.31-9,.6-13s6.68-4.78,10.5-6.61c8.81-4.2,13.28-14,17-23,1.87-4.45,3.76-9,3.91-13.86.32-10.8-9.72-20.76-20.51-20.36-1.14,0-2.47.11-3.2-.77a3.61,3.61,0,0,1-.59-1.36A28.65,28.65,0,0,0,1792.7,614c-5.94,3.88-11.11,10.21-18.2,10.26-2,0-4-.51-6-.49-4.47,0-8.41,2.69-12.46,4.58a4.12,4.12,0,0,1-3.27.47,4.28,4.28,0,0,1-1.87-2.18l-4.86-9.31c-2.09-4-5.6-8.73-10-7.6-2.5.64-4.18,3.06-6.59,4-3,1.14-6.42-.34-9-2.32s-4.73-4.51-7.61-6c-4.34-2.19-9.68-1.55-14.08.52s-8.06,5.39-11.65,8.67L1678,613l-13.06-.12a5.22,5.22,0,0,1-3.36-.82,4.92,4.92,0,0,1-1.32-2.53,50.65,50.65,0,0,1,2.57-34.13c1.65-3.68,3.76-7.18,4.82-11.06a21.74,21.74,0,0,0-35.95-21.48c-1,.94-2.08,2.05-3.44,2a3.7,3.7,0,0,1-1.91-.81c-4.91-3.62-4.64-10.87-4.36-17s-.91-13.68-6.7-15.61c-3-1-6.28-.05-9.38-.57a10.28,10.28,0,0,1-8.3-9.11l1.87-9.3a20.51,20.51,0,0,0-21.54-30.5c-19.18,3.64-23.89,30.36-40.69,40.32-2.57-4.85-2.86-10.76-6-15.25-4.63-6.61-14.32-8-21.86-5.14s-13.33,9-18.42,15.23c-3,3.67-7.85,7.84-11.77,5.18-4.39-3-1.24-10.54-4.39-14.83-1.73-2.34-5.18-3.42-5.92-6.23s1.75-5.39,3.37-7.85c4.54-6.91,1.62-17.51-5.8-21.12-1.85-.9-3.92-1.42-5.5-2.74-3.25-2.7-3.3-7.56-3.35-11.78-.08-6.12-.93-12.7-5.06-17.22-6.23-6.81-17.46-6.1-25.67-1.89s-14.72,11.12-22.55,16c-5.91,3.69-12.48,6.16-19,8.6l-35.11,13.16c-5.72,2.15-12.06,4.87-14.32,10.55-1.37,3.43-.94,7.31-1.74,10.92-2.09,9.42-11.9,15-21.23,17.48s-19.38,3.22-27.58,8.3c-13.19,8.17-17.72,24.91-20.83,40.11-2.81,13.68-4.47,30.21,6,39.42,4.77,4.18,11.17,5.88,17.33,7.37,16.83,4,35.14,7.31,51,.3,5-2.2,9.49-5.34,14.46-7.54,12.35-5.46,26.43-4.73,39.91-3.89,8.37.52,16.82,1,24.87,3.39,4.22,1.23,9,4,8.9,8.37-.07,2.67-2.08,4.92-4.31,6.39-8.63,5.68-22,3.67-27.85,12.17-3.09,4.48-2.81,10.63-.66,15.64s5.89,9.13,9.57,13.15l4.8,4.17a49.4,49.4,0,0,1,13.9,17.69c1.15,2.48,2.11,5.31,1.26,7.91a12.26,12.26,0,0,1-2.48,3.9L1408.07,688a6.35,6.35,0,0,1-2.67,2.22,6.2,6.2,0,0,1-3.33-.16,108.21,108.21,0,0,1-16.82-5.54c-3.83-1.62-7.83-3.5-12-3-6,.69-12,6.14-17.21,3.16a20.67,20.67,0,0,1-3.74-3.39c-3.85-3.67-9.4-5.1-14.72-5s-10.49,1.6-15.6,3.07c-3.53,1-7.64,2.61-8.49,6.19-.57,2.42.54,5.26-.91,7.27-.93,1.3-2.62,1.76-4.12,2.32-6.32,2.35-11.12,7.9-13.67,14.15s-3.08,13.15-2.77,19.89,1.44,13.29,4.57,19.11,8.48,10.67,14.94,12c1.71.36,3.57.52,4.92,1.62,2.73,2.23,1.69,6.56.42,9.84-.68,1.76-1.53,3.69-3.26,4.43a7.47,7.47,0,0,1-4,.11c-28.33-4.25-58.53,8.06-75.82,30.91l-9.59,1.69a49.57,49.57,0,0,0-19.53,10.71c-2.54,2.26-4.94,5-5.52,8.34-.48,2.74.32,5.6-.26,8.32a17.44,17.44,0,0,1-3,5.87,202.79,202.79,0,0,0-16,28.56c-2.16,4.72-4.14,10.21-2,14.93a14.45,14.45,0,0,0,5.85,6,29.34,29.34,0,0,0,24.61,2.69c4.21-1.47,8.56-4,12.85-2.7,6.46,1.87,9.36,11.36,16.09,11.31,4.28,0,8.18-4.26,12.26-3a7.3,7.3,0,0,1,3.83,3.48c4,6.8,2,16.2,6.91,22.4,4.13,5.23,11.62,6.2,18.28,6,9.22-.23,19-2.12,25.73-8.39,3.79-3.51,6.61-8.35,11.38-10.34l7.29-.6a54.55,54.55,0,0,0,28.38,10.68c4,.31,8.12.15,11.8-1.44s6.82-4.81,7.43-8.77c.57-3.63-1-7.2-1.82-10.79s-.58-8,2.46-10.06c1.68-1.15,3.83-1.28,5.77-1.89,5.92-1.87,9.41-8.07,10.82-14.11s1.36-12.38,3.14-18.32,6.15-11.78,12.31-12.55a7.35,7.35,0,0,1,4.17.58c2.53,1.25,3.67,4.19,4.42,6.91,4.09,14.88,2.73,30.63,3.42,46A172,172,0,0,0,1432,965.49l3,6.13c17.3,67.66,10.09,139.54,25.35,207.69l-6.4,5.41c-.83-4.28-6.37-6.3-10.46-4.78s-6.82,5.4-8.67,9.34c-4.39,9.33-5.33,19.85-6,30.13-.9,14.69-1.29,29.41-1.68,44.13l-3.15,118-5,2.19c-3.2-2.23-7.46.9-9.59,4.18-5,7.68-6.5,17-9.4,25.71-5.63,16.86-16.64,31.59-21.76,48.62a126.79,126.79,0,0,0-4,20.67,409.85,409.85,0,0,0-2.85,68.89l-.88,8q-.78,18.24.09,36.52a150.73,150.73,0,0,0,3.14,26.56c2.19,9.57,5.89,18.76,7.69,28.41,2.1,11.27,1.56,22.85,1,34.31l-1.72,36c-19.06-12.83-28.06-37.37-47.8-49.13-4.06-2.42-9-4.26-13.46-2.76-7.19,2.39-9.24,11.71-8.32,19.24,1,8.45,4.25,16.47,7.63,24.29,14.75,34.14,33.18,67,42.24,103.08l1.29,8.09c4.34,17.39-.62,35.53-3.87,53.15-12.06,65.32-.41,133-10.16,198.75-.84,5.66-2.61,12.27-8,14.2-4.54,1.63-9.71-1.15-12.39-5.16s-3.48-8.94-4.24-13.71c-7.4-46.46-17.94-92.48-32.56-137.2-12.54-38.33-29.65-77.75-62.54-101.1,12.21,51.42-.28,105.39,3.94,158.07,3.51,43.78,18.5,86,22.51,129.71a159.35,159.35,0,0,0-114.86-36.65l-8.59,2.36-3.07,3.32a128.71,128.71,0,0,0-21.84,1.3l-2-5.05-5-.24c-6,.94-11.52,3.68-16.94,6.38a9.37,9.37,0,0,0-3.22,2.2c-1.93,2.33-1.1,6.1,1.12,8.17s5.38,2.75,8.41,2.94l5.36.12,4-4.49a33.65,33.65,0,0,1,25.15,3l6.23,8.63c-.24,1.88,1.54,3.47,3.37,4s3.78.35,5.63.76a12.42,12.42,0,0,1,6.56,4.3,36.82,36.82,0,0,1,4.22,6.76l1.78,6.15,6.66,1.49c4,7.16,9.17,13.55,14.33,19.9,10.07,12.37,20.22,24.83,32.49,35,8.3,6.88,17.72,12.9,23.44,22,5.55,8.89,6.94,19.67,8.19,30.07l4.84,4.2c4,23.4,15.62,44.78,28.34,64.84s26.79,39.41,36.63,61c11.62,25.54,17,53.46,26.87,79.71l1.16,7.06c11.21,30.14,22.49,60.56,27,92.4,3.69,26.06,2.79,52.77,8.71,78.41l2.76,9.27a26.22,26.22,0,0,1-2.15,20.87c-1.53,2.65-3.52,5-4.74,7.85-2.73,6.29-1.16,13.61,1.4,20,.8,2,1.72,4.1,1.38,6.23s-2,4-3.82,5.42c-9.22,7.19-24.14,9-27.55,20.2-1.73,5.66.45,11.8,3.52,16.86a50.06,50.06,0,0,0,38.86,23.58c7.35.49,15.85-.27,20.88,5.11,1.91,2.05,3,4.72,4.33,7.17a34.43,34.43,0,0,0,52.33,9.83,13.91,13.91,0,0,0,4.43-5.7c1.3-3.64.07-7.69.66-11.5,1.11-7.21,8.59-12,15.83-12.74s14.44,1.35,21.59,2.77c14.09,2.82,29.08,2.82,42.47-2.4,3.79-1.48,7.62-3.54,9.71-7,2.52-4.22,2-9.67,4.21-14.06,3.78-7.5,13.7-9.18,20.08-14.64,9.09-7.77,9.29-22.72,2.69-32.69s-18.31-15.49-30-17.86c-10.87-2.19-22.16-2.09-32.87-5s-21.35-9.76-24.32-20.45c-1.38-4.95-1-10.22-.4-15.33a284.38,284.38,0,0,1,9.77-49c1.48-5,3.12-10.27,2.44-15.49-.6-4.56-2.92-8.67-4.54-13-5.19-13.71-3.31-28.94-1.36-43.47l2.36-9.88v-16.59c0-5.59,0-11.22,1.12-16.7,3.62-17.8,18.07-31,31.46-43.31a1139.21,1139.21,0,0,0,83.11-84.55c6.09-6.88,12.16-13.93,16.16-22.2l6-6.66A193.16,193.16,0,0,0,1679.15,2203c2-22.72-.06-45.84,4.4-68.21,3.16-15.82,9.55-31.12,10-47.24.25-8.72-1.24-17.42-.86-26.12.29-6.54,1.63-13.1.74-19.58s-4.74-13.18-11.08-14.8c-5.06-1.3-10.49,1-14.28,4.6s-6.24,8.33-8.63,13c-5.07,9.86-10.15,19.75-14,30.16-14.44,39.34-10.39,84.61-30.26,121.51-14.55,27-40.29,46.27-57.21,71.87-10.09,15.27-17.73,33.48-33.53,42.71a7.64,7.64,0,0,1-3.61,1.28c-1.82,0-3.43-1.13-4.88-2.23q-10.48-7.9-21-15.83a4.77,4.77,0,0,1-2.08-2.52c-.25-1.19.43-2.36,1-3.4a64.4,64.4,0,0,0,6.36-14.23c2.94-9.67,3.36-19.9,3.76-30,.71-17.87,1.41-35.76,1.15-53.65-.22-14.34-1-28.86,1.94-42.89,2.39-11.19,7.13-21.71,10.61-32.6a150.61,150.61,0,0,0,5-70.83l3.93-9.72c3-17.82,6.29-36.48,17.43-50.7,4.62-5.91,10.4-10.78,15.68-16.1a123.79,123.79,0,0,0,26.77-40.68c4.94-12.24,7.89-25.2,12.7-37.49,7.61-19.48,19.85-37.27,24.28-57.71Z"></path>
    <path data-name="3a" data-official="" data-plain="Flower" data-loc="" d="M967.51,2916.7a38.39,38.39,0,0,0,8.93-15.1c1.09-3.5,1.44-7.87-1.3-10.29-2.93-2.58-8.45-2.06-9.84-5.7-.53-1.4-.2-3-.53-4.43-.57-2.51-3-4.19-5.57-4.76s-5.13-.27-7.7-.25c-5.47,0-12-2.36-12.82-7.77-.68-4.67,3.46-8.64,7.65-10.8s9-3.62,12-7.3a7.54,7.54,0,0,0,1.78-4.13c.22-3.25-2.4-6.47-1.31-9.54.59-1.67,2.13-2.79,3.21-4.19,3.86-5,1.33-12.14,1.94-18.41.28-3,1.56-6.14,4.24-7.47,1.4-.7,3-.82,4.5-1.36,4.68-1.7,6.82-7,10.46-10.41,5.89-5.49,15-5.38,22.92-3.66,5.47,1.2,11.5,3.65,13.31,9,1.38,4.06,0,9.23,3.07,12.26,2.61,2.59,6.85,2,10.53,1.84a32.43,32.43,0,0,1,9.56,1c2,.52,4,1.33,5,3.05s.86,3.72.46,5.6a25,25,0,0,1-6.68,12.39,4.92,4.92,0,0,0-1.51,2.15c-.38,1.64,1.11,3,2.09,4.41a8.35,8.35,0,0,1,1.38,6.45,9.59,9.59,0,0,0-.51,3.37,6.59,6.59,0,0,0,1.57,2.85c2,2.64,3.7,5.7,3.89,9s-1.48,6.9-4.56,8.16c-2.06.85-5.13,1.26-5.18,3.5a3.63,3.63,0,0,0,.44,1.56c2.23,4.69,6.93,9.4,4.84,14.15-1.18,2.68-4.18,4-7,4.73a29.14,29.14,0,0,1-17-1c-.85-.32-1.89-.66-2.6-.09a2.19,2.19,0,0,0-.66,1.22c-1,3.86.66,8,3.2,11.08s5.85,5.42,8.82,8.1c3.61,3.27,6.8,7.23,8.12,11.93s.42,10.21-3.11,13.57a19.64,19.64,0,0,1-7.55,4,98.43,98.43,0,0,1-51.54,2.88c-2.85-.61-5.9-1.5-7.61-3.86a11.3,11.3,0,0,1-1.62-4.16,47.61,47.61,0,0,1-1-15.1Z"></path>
    <path data-name="3b" data-official="" data-plain="Capsule" data-loc="" d="M1070,2923.14a81.23,81.23,0,0,1,7.53-17.67c2-3.51,4.23-8.15,1.58-11.2a16.12,16.12,0,0,0-2.34-1.93c-6.23-5-4.82-15.31-9.93-21.45-2.7-3.25-6.82-4.86-10.51-6.91s-7.37-5.13-7.82-9.33c-.52-4.78,3.42-9,7.71-11.14A25,25,0,0,1,1070,2841c3.5.37,7.23,1.46,10.41-.06a18.28,18.28,0,0,0,3.42-2.48c4.12-3.38,9.48-5.78,14.73-4.82,3.68.68,7,2.93,10.66,3.43,3.39.45,6.77-.6,10.16-1.09a30.68,30.68,0,0,1,16.88,2.4c2.61,1.17,5.29,3.06,5.76,5.88.62,3.71-2.74,6.72-5.5,9.28-4,3.75-7.65,8.78-7.21,14.29.25,3.11,1.79,6.17,1.2,9.24-.9,4.76-6.33,7.26-8.36,11.66-1.41,3-1,6.65.13,9.81s3,6,4.36,9.07a39.84,39.84,0,0,1,1.75,28.75,16.74,16.74,0,0,1-3.5,6.48,17.53,17.53,0,0,1-4.63,3.24,54.36,54.36,0,0,1-33.89,5.48c-4.84-.8-9.72-2.35-13.43-5.56s-6-8.37-4.83-13.13Z"></path>
    <path data-name="3c" data-official="" data-plain="Section of Capsule" data-loc="" d="M1180.09,2915.82c1.26-2.18.93-5-.13-7.26a34.58,34.58,0,0,0-4.26-6.19,50,50,0,0,1-6.77-12c-2.88-7.31-3.81-16.17.7-22.6,2.21-3.15,5.48-5.37,8.21-8.08,5.68-5.64,9.13-13.54,15.83-17.92,5.24-3.42,11.72-4.19,18-4.75,4.11-.36,8.31-.67,12.35.21s8,3.12,10,6.74,1.77,8.19,3.2,12.14c2.73,7.54,10.92,11.77,14.61,18.88,4.53,8.74,1,19.84-5.48,27.23-2,2.29-4.37,4.49-5.19,7.42a14.84,14.84,0,0,0,0,6.19c.61,4.19,1.51,8.37,1.46,12.6s-1.21,8.64-4.15,11.68-6.9,4.2-10.85,5.11c-11.61,2.65-23.64,2.88-35.55,2.52-4.86-.14-10.21-.59-13.62-4.06-4.07-4.13-3.7-10.81-2.54-16.5Z"></path>
    <path data-name="3d" data-official="" data-plain="Capsule" data-loc="" d="M1266.14,2924.05l8.59-13.31a43.46,43.46,0,0,0,4.69-8.66c2.06-5.72,1.62-12.08,0-17.95s-4.23-11.39-6.61-17c-3.19-7.52-5.92-16.09-2.9-23.68,2.12-5.36,6.9-9.35,12.23-11.54s11.18-2.75,16.94-2.77a30.58,30.58,0,0,1,10.65,1.41c5.79,2.11,10.18,7.12,12.75,12.73s3.5,11.8,4.12,17.94c1,9.53,1,19.9-4.48,27.77-1.69,2.43-4,5.39-2.52,8a6.47,6.47,0,0,0,2,1.95c3.49,2.48,7.43,4.62,9.77,8.21,2.47,3.79,2.75,8.58,2.72,13.12,0,5.22-.48,10.74-3.47,15-3.34,4.78-9.18,7.07-14.79,8.64a109.26,109.26,0,0,1-40.07,3.52,16.54,16.54,0,0,1-5.79-1.33c-4.86-2.38-6.52-8.35-7.68-13.64Z"></path>
    <path data-name="3e" data-official="" data-plain="Seed" data-loc="" d="M1345.46,2931.91c3.34-5.52,6.8-11.4,6.79-17.85,0-9.5-7.42-17.36-9.65-26.6-1.08-4.5-.9-9.19-.71-13.82.23-5.9.68-12.34,4.68-16.69a20.17,20.17,0,0,1,8.34-5c6.39-2.27,13.72-3.16,19.79-.13,3.88,1.94,6.87,5.3,9.31,8.88,5.43,8,8.53,18.6,4.29,27.27-2.12,4.34-6.06,8.66-4.65,13.28a10.27,10.27,0,0,0,3.95,4.92c5.71,4.27,13.06,6,18.54,10.58s8.6,13.11,5,19.38c-2.88,5-8.84,7.14-14.38,8.65a128,128,0,0,1-34.34,4.8c-3.46,0-7-.25-10.14-1.76s-5.68-4.6-5.63-8.06Z"></path>
    <path data-name="4" data-official="Narthecium ossifragum" data-plain="Bog Asphodel" data-loc="Moors, Britain" d="M185.81,1389.51a34.44,34.44,0,0,1,11.52-20.82c1.27-1.09,2.7-2.21,3.09-3.83,1.24-5.14-8.41-7.58-7.86-12.84a7,7,0,0,1,2.09-3.78A40.78,40.78,0,0,1,222.88,1335a6.74,6.74,0,0,0,3.68-.8c2.53-1.79,1.14-5.7,1.44-8.78.52-5.1,6.24-8.08,11.36-8.42s10.31,1,15.36.1a5,5,0,0,0,3.26-1.59,4.93,4.93,0,0,0,.79-3.11c0-6.19-3.56-11.73-6.36-17.26-9.58-18.91-11.52-40.73-11.85-61.93q-.24-15,.48-29.91c.38-7.89,1-15.92,3.83-23.29,3.45-8.93,10.18-17.14,9.67-26.69-.46-8.67-6.86-17.62-2.79-25.29,2.42-4.56,7.8-6.7,11.13-10.66,10.46-12.47-3.91-34.7,7.05-46.73,5.77-6.34,16.36-6.06,23.64-1.52s11.89,12.26,15.77,19.9a215.58,215.58,0,0,1,15.46,39.76c.75,2.69,1.51,5.51,3.39,7.59,1.41,1.58,3.35,2.58,4.87,4.06,3.65,3.57,4.23,9.16,4.36,14.25a162.46,162.46,0,0,1-2.87,34.59c-1.14,6-1.75,13.82,3.74,16.4,4.55,2.15,10.23-1.27,14.87.67,3.71,1.55,5.29,5.87,6.34,9.75a183.81,183.81,0,0,1,6.23,55.43c-.18,4.43-.07,9.77,3.71,12.07,2.19,1.34,4.94,1.16,7.5,1,5.43-.34,11-.35,16.09,1.58s9.59,6.17,10.42,11.54c.93,6-2.8,11.78-7.33,15.8s-10,6.94-14.3,11.2l-2.94,3.85a49.2,49.2,0,0,1,16.88,18.74c.86,1.68,1.64,3.59,1.14,5.41a7.57,7.57,0,0,1-2.79,3.58,38.73,38.73,0,0,1-22.93,8.62,3.33,3.33,0,0,0-2.16.55c-1.74,1.51.94,3.86,2.38,5.67,2.29,2.89.91,7.52-2.08,9.7s-7,2.39-10.64,1.94-7.28-1.47-11-1.49a2.4,2.4,0,0,0-2,.69,2.25,2.25,0,0,0-.19,1.79c.95,4.77,4.86,8.27,8.09,11.91,7.26,8.21,11.74,18.45,16.1,28.51l3.4,7.83a11.51,11.51,0,0,1,1.09,3.55,9.9,9.9,0,0,1-1,4.47c-7.87,19.13-29.94,30.45-35.2,50.46-1.39,5.33-1.47,10.94-3.05,16.21a39.65,39.65,0,0,1-7.13,13.06,59.22,59.22,0,0,1-13.29,12.33c-2.65,1.79-5.6,3.52-7,6.39a16.11,16.11,0,0,0-1.2,6.44L305,1572.76l-5.81,7.59a403.59,403.59,0,0,0,1,41.15c.4,5.16,1.1,10.77,4.8,14.39,3.25,3.17,8.25,4.18,11.18,7.64,2.1,2.48,2.8,5.82,3.43,9,2.22,11.33,4.46,22.81,3.79,34.35-.51,8.81-2.7,17.45-3.72,26.22-1.26,10.89-.7,21.91.3,32.82a416.82,416.82,0,0,0,13.7,74.56c.39,1.42,1,3.08,2.48,3.4s2.87-1.09,4.23-2c3.68-2.35,8.87-.2,11.32,3.41s2.89,8.18,3.26,12.53c2.41,28.78,4.61,58.94-6.91,85.42l-1,9.21,1.13,121a470.3,470.3,0,0,1,66.47-121.59c10.5-13.85,21.85-27.26,29.74-42.75,4.86-9.55,8.32-19.74,11.38-30,7.06-23.66,12.12-48.12,12-72.81,0-13.54-1.56-27.63,3.61-40.14,3.41-8.27,12.06-16,20.49-13,5,1.79,8.08,6.75,10.43,11.52,16.65,33.8,16.43,73.22,13.86,110.81-.11,1.57-.19,3.28.69,4.6,1.17,1.77,3.57,2.16,5.69,2.38l31,3.21c6.32.66,14.25,2.78,15,9.09.65,5-3.89,9-8,11.89a286.19,286.19,0,0,1-47.8,26.87l-3.94,3.74a326.4,326.4,0,0,1-21.28,79c-7.69,18.75-17.1,36.75-26.5,54.71q-32.82,62.67-65.63,125.36c-7.22,13.8-14.57,28-16.22,43.49a188.62,188.62,0,0,1,71.1-49.7l7.85-2,29.26-12c7.54-3.1,15.12-6.21,23.05-8.06,13-3,26.54-2.61,39.87-1.87q18.24,1,36.45,2.74l8.11-111c1.2-16.47,2.4-33,2.83-49.46.46-18,0-36.18,3.8-53.77l-1.07-7.64q.2-41.49.38-83c.05-10,.08-20.2-2.31-30-1.6-6.51-4.25-12.7-6.44-19-4.67-13.49-7.28-27.82-6.41-42.07s5.34-28.43,13.81-39.92l.25-6.54c2-39.54,4-79.29-.23-118.66-2-18.83-5.48-37.48-8.21-56.22a743.74,743.74,0,0,1-7.52-88.56c-.13-5.19-.26-10.59-2.63-15.21-1.93-3.76-5.18-6.65-8.14-9.67a87.92,87.92,0,0,1-20.66-33.87l-3.2-6c-5.88-11.46-11.89-23.32-12.75-36.17-.41-6,.33-12,.72-18,.57-8.91.36-17.85.15-26.77a15.58,15.58,0,0,0-.4-3.8,16.14,16.14,0,0,0-2.57-4.73c-7.92-11.45-14.58-23.73-20.89-36.15-3.55-7-7.09-14.44-6.87-22.29l-2.63-8.13c-4.73-12.14,4.55-25.7,2.29-38.53-2-11.41-12.39-19.13-18.91-28.72a47,47,0,0,1-5.62-40.52c1.07-3.2,2.5-6.33,2.89-9.68s-.27-6.8-.44-10.21c-.48-9.51,2.93-18.74,4.34-28.16,3.23-21.63-4.15-43.43-4.06-65.3,0-4.83.67-10.22,4.38-13.32,4.6-3.84,11.75-2.23,16.69,1.18s8.74,8.3,13.85,11.44a4.77,4.77,0,0,0,3.43.94c1.46-.34,2.32-1.81,2.94-3.18,5.28-11.77,4.66-25.27,7.64-37.83.86-3.67,2.87-7.95,6.64-8.15a8.63,8.63,0,0,1,4.63,1.5c13,7.5,21.41,20.61,30.19,32.72,1.9,2.62,4.32,5.47,7.56,5.49,2.1,0,4-1.2,5.94-1.93,8.47-3.15,18.06,3.42,21.47,11.79s2.27,17.81,1,26.75-2.67,18.3.31,26.83c.53,1.53,1.32,3.14,2.8,3.8s3.28.15,4.88-.31a59.07,59.07,0,0,1,25.77-1.59,5.8,5.8,0,0,1,3.65,1.57c.92,1.09,1,2.64.95,4.06l-.21,41.39c-.05,10.85-.2,22.11-4.88,31.9l-3,8.45a67.51,67.51,0,0,0,6.15,42.27c2.15,4.26,4.78,8.32,6.16,12.89,2.08,6.85,1.18,14.23-.11,21.28a208.69,208.69,0,0,1-6.36,25.49c-4.21,13.24-9.77,27.49-5,40.52,2.54,6.86,7.76,12.54,9.84,19.55,1,3.45,1.35,7.34,3.81,10,1.87,2,4.61,2.84,7,4.09a22.32,22.32,0,0,1,10.62,12l-.43,7c.52,13.4.76,27.83-6.75,38.95-3.62,5.36-9.14,10.36-8.84,16.83.26,5.7,5,10.07,7.21,15.35,1.77,4.29,1.76,9.09,1.72,13.73-.08,10.79-.21,21.82-3.85,32-5.84,16.28-19.79,28.06-29.81,42.17l-1.8,3.34,7.15,140.48c.26,5.21.68,10.81,4,14.83,2,2.35,4.72,3.91,6.65,6.28,3.75,4.6,3.58,11.14,3.23,17.06-.3,4.94-.63,10-2.77,14.49-1.63,3.36-4.21,6.22-5.62,9.68-1.67,4.1-1.54,8.68-1.38,13.11l2.31,65-2.8,9.32,1.89,153.11c0,2.12.3,4.67,2.2,5.62,1.21.59,2.65.3,4,.58,3.55.75,4.81,5.1,5.32,8.7a272,272,0,0,1-12.28,126.53l-2.9,6.42c.43,43.54.85,87.19-3.54,130.51-1.82,18-4.48,35.89-7.13,53.79l-25,168.9-3.43,5.26c-4.71,33-14.36,65.15-23.73,97.17-.65,2.2-1.29,4.58-.52,6.74,1.51,4.25,7.07,4.93,11.11,6.95,6.11,3,9.34,10.13,9.73,16.94s-1.57,13.52-3.39,20.1c-1.72,6.23-3.23,13.32.16,18.82,2.95,4.78,8.75,6.88,14.21,8.19,10.48,2.5,21.34,3.31,31.64,6.47s20.4,9.25,25,19c2.17,4.64,3.17,10.15,7.12,13.4,4.51,3.71,11,3,16.85,2.61s12.7.15,15.85,5.06l3,4.8c-2.57,1.76-4.59,4.79-4.07,7.87a8,8,0,0,0,4.65,5.52,23,23,0,0,0,7.26,1.71c5.17.65,10.48,1.24,15.57.1l1.89,5.55c2.3,7,4.14,15.48-.53,21.21-3.52,4.32-10,5.83-12.64,10.72a4.18,4.18,0,0,0-.61,2.22c.15,2.1,2.51,3.16,4.41,4.07,8.18,3.92,13.28,13.18,12.81,22.24s-6.19,17.52-14.14,21.88l-5.55,2.81a42.13,42.13,0,0,1-21.94-1c-3.75-1.21-7.76-3-11.47-1.6-4,1.46-5.91,5.91-8.58,9.25-8.1,10.12-23.56,9.91-36.1,6.65A114.71,114.71,0,0,1,607.13,2784c-9-5.59-18.38-12.75-29-11.78-6,.55-11.58,3.76-17.6,4.57-9.19,1.22-18.46-3.27-27.63-1.86-4.13.64-8,2.44-11.84,4-36,14.76-76.51,11.42-115.24,7.84l-8.89-1.34a83.42,83.42,0,0,1-27.53-.56c-4.9-.93-9.82-2.35-13.84-5.3s-7-7.65-6.84-12.63c.3-8.45,8.78-13.9,13.4-21,4.93-7.58,5.41-17.25,9.48-25.33,3.26-6.47,8.63-11.58,13.72-16.74,2.53-2.57,5.21-5.84,4.42-9.35-1.08-4.78-7.32-5.86-12.22-5.92l-41-.54c-3.53,0-8.39,1.24-8,4.76a5.75,5.75,0,0,0,1.32,2.74c3.65,4.83,8.89,8.6,11.19,14.2,1.66,4.06,1.58,8.58,1.47,13l-.45,17.78a9,9,0,0,1-.89,4.48,7.43,7.43,0,0,1-3.35,2.64,20.35,20.35,0,0,1-22.58-4.2c-5.87-6.06-7.23-15-10-23a7.46,7.46,0,0,0-2.09-3.52,7.23,7.23,0,0,0-3.78-1.26,42.84,42.84,0,0,0-26,5.17c-3.69,2.07-7.24,4.76-11.43,5.33-3.76.5-7.5-.78-11.11-2-11.18-3.63-22.91-6.39-34.61-5.28-10.27,1-20.65,4.89-30.62,2.27l-9.78.95c-27.14,6.11-55.16-8.06-82.84-5.22-9.33.95-18.34,3.82-27.43,6.12-7,1.79-15.58,2.85-20.63-2.38-6.49-6.72-1.81-18.31,5.22-24.46,11-9.61,26.15-13,40.74-13.52s29.17,1.38,43.75.77c7.78-.32,16-1.56,22-6.55,3.47-2.89,6-6.9,9.8-9.3,3.54-2.23,7.83-2.84,12-3.37q24.31-3.14,48.77-5.18c-23.49-12-43.08-30.73-58.89-51.85s-28.07-44.66-39.43-68.47c-4.56,10.95-4.16,23.38-7.92,34.64s-14.79,22-26.18,18.68c-11.13-3.28-14.65-17.21-15.07-28.81-1.18-32.32,7-64.17,15.08-95.49,1.46-5.68,2.93-11.41,3-17.27,0-6.71-1.76-13.27-3.55-19.73l-14-50.36-3.43-9.92q-2.88-75.42-5.77-150.83c-.87-22.81-1.75-45.65-4.06-68.37-2.43-23.88-6.44-47.57-8.91-71.44-2.61-25.3-3.49-50.75-4.36-76.17L51,1995.37q-1.68-30.63-.82-61.32c.25-9,1.55-19.55,9.36-24,1.5-.86,3.19-1.46,4.39-2.7,2-2.06,2-5.25,2-8.1-.77-36,.7-73.25,16.17-105.75,2.81-5.89,6.33-11.86,12-15a7.1,7.1,0,0,1,4.36-1.12,7.55,7.55,0,0,1,3.6,1.88c6.49,5.36,10,13.58,11.82,21.8s2.31,16.68,4,24.92a83.23,83.23,0,0,0,8.83,23.63l.87,10.17c2.09,19.42,14.54,36.21,28.68,49.67s30.4,24.69,43.53,39.15,22.63,31.53,32.09,48.51c15.68-17,32.18-34.63,53.85-42.79,3.07-1.17,6.44-2.27,8.37-4.93,1.7-2.33,1.94-5.38,2.05-8.26a188.15,188.15,0,0,0-.26-19.87l.2-10.33c-2.17-52.21-4.43-105-18.79-155.22-4.43-15.49-10-30.71-12.85-46.56l-3.87-6.37c2.14-93.36,9.79-187.06-.28-279.91-7.76,3.41-12.12,12-19.59,16-10.84,5.82-26.36-1.78-28.39-13.92-.37-2.17-.38-4.47-1.39-6.43-1.86-3.58-6.28-4.77-9.85-6.67a22,22,0,0,1-10.53-12.66Z"></path>
    <path data-name="4a" data-official="" data-plain="Stamen" data-loc="" d="M1463.32,2930.81c-1.9-4.3-.07-9.38,2.72-13.17s6.48-6.86,9-10.82c5.33-8.35,4.62-19,3.72-28.9-.55-6.08-1.12-12.22-3-18-1.94-6-5.19-11.41-7.92-17.06s-5-11.77-4.69-18,3.68-12.72,9.49-15.1c4.61-1.88,10-.93,14.39,1.44s7.91,6,11.23,9.72A94.42,94.42,0,0,1,1508.4,2834a62.49,62.49,0,0,1,9.12,27.9,103,103,0,0,1-.7,19.22c-.48,4.38-1,9,.65,13.07a20.3,20.3,0,0,0,3.86,5.69c6.19,6.85,14.32,12,19.23,19.84,1.89,3,3.27,6.66,2.43,10.12-1.23,5.08-6.59,7.88-11.49,9.69a114.59,114.59,0,0,1-38.69,7.06c-4.57,0-9.25-.23-13.5-1.93-5-2-9.1-5.9-13-9.69Z"></path>
</svg>
