
<svg xmlns="http://www.w3.org/2000/svg" viewBox="0 0 1990 2686" id="illustration" preserveAspectRatio="xMidYMid meet">
    <title>Palmaceæ</title>
    <path data-name="1" data-official="Chamærops humilis" data-plain="Dwarf Palm" data-loc="South Europe" d="M799.73,2001.65c11.85,13.87,18.8,32.08,18.09,50.3s-9.36,36.21-23.84,47.3-34.67,14.69-51.75,8.31l-10.26,0c.54,22.23-10.26,43.83-26.32,59.21s-36.93,25-58.46,30.59c-12.19,3.17-26.15,6.11-32.64,16.91-3.2,5.32-3.95,11.72-4.44,17.92-1.37,17.56-1.18,35.21-1,52.83q.52,47.49,1,95c0,2.09.08,4.31,1.19,6.07,1.65,2.6,5,3.41,8,4a452.7,452.7,0,0,0,46.42,6.09c4.13.33,8.4.63,12.08,2.53s6.65,5.86,6,9.95c-.67,4.38-4.91,7.18-8.83,9.25a166.65,166.65,0,0,1-55.64,17.79c-6.67.89-14.37,1.94-17.94,7.66-3.76,6-.85,14.2-3.36,20.86-3.28,8.7-14.2,11.53-23.5,11.49-13.57,0-29.77-6.36-31.47-19.83-.8-6.33,1.76-13.52-2-18.68-2.66-3.68-7.56-4.82-12.05-5.42-14.2-1.9-31.08-2.4-38.91-14.39-2.14-3.27-3.31-7.42-2.05-11.12,1.92-5.66,8.44-8.12,14.25-9.5a149.24,149.24,0,0,1,32.32-4c5-.07,10.06.09,14.76-1.51s9-5.42,9.57-10.36l.28-9.24c-4.38-20-4.89-40.65-5.39-61.13l-3.18-130.83-7.42-1.62a188.94,188.94,0,0,1-52.83-1.31,72.76,72.76,0,0,1-13.13-3.22,68.15,68.15,0,0,1-16.45-9.33,147.26,147.26,0,0,1-31.65-31.45,5.58,5.58,0,0,0-2.17-2,5.39,5.39,0,0,0-2.71-.09c-9,1.3-18.32,3.32-27.09.86-5-1.39-9.41-4.14-13.73-6.94-15.28-9.89-30.51-21.68-37.59-38.46l-4.94-5.58c-5-3-8.24-8.19-11.29-13.17a32.33,32.33,0,0,1-4.1-8.39c-.74-2.76-.74-5.66-1.25-8.47a78.69,78.69,0,0,0-2.8-9.45,61.82,61.82,0,0,1-2-28.75l4.07-9.06a51.38,51.38,0,0,1,20.31-29.58c1.38-1,2.91-2,3.48-3.56a8.72,8.72,0,0,0,.26-3.1c-.36-12.56,5-24.47,10.33-35.86,2.28-4.93,4.61-9.92,8.12-14,9.3-10.93,24.84-13.79,39.15-15l5-.49c-1-14,4.19-27.89,12.44-39.19s19.36-20.24,31.05-27.93c15.45-10.18,33.21-18.68,51.67-17.33,9,.66,18.05,3.68,27,2.27,9.61-1.51,17.62-7.85,26.14-12.54a81.74,81.74,0,0,1,111,32.18,69.51,69.51,0,0,1,96.91,48.55c4.47,20.76-1.76,44.26-18.09,57.85l-3.23,4.38a62.24,62.24,0,0,1,17,26.55c.46,1.44.94,3,2.16,3.91a7.57,7.57,0,0,0,3,1.06C780.14,1983.88,791.3,1991.8,799.73,2001.65Zm321.7,66.88c-1.82,3.78-5.76,6-9.68,7.57a48.27,48.27,0,0,1-43.64-4.89c-5.86-4-10.81-9.2-16.87-12.85s-14-5.52-20.15-2.11c-5.18,2.85-7.93,8.6-12,12.89-8.32,8.75-21.72,10.75-33.66,9s-25-8.38-28-20.19c-2.71-10.39,2.58-23-4.22-31.31-2.62-3.2-6.56-5-10.43-6.45a121.58,121.58,0,0,0-31.53-7.35l-5.15-5.45c-.35-7.51-.7-15.08-2.39-22.41-1.57-6.81-4.26-13.3-6.7-19.85a265.51,265.51,0,0,1-16.85-93.42l1.87-8.46c-.31-10.93-4.81-21.28-9.66-31.08a80.56,80.56,0,0,0-8.76-14.65,31.58,31.58,0,0,0-13.39-10.28l-5.71-5q-13.37-11.74-27.55-22.48l-4.69-5.28c-19.9-20.85-42-39.47-62.48-59.76S710.22,1672.14,698,1646l-2-7.06a190.28,190.28,0,0,0-57.61-46.89,16.27,16.27,0,0,0-4.1-1.69c-2.42-.51-4.93,0-7.34.6l-5.48-1.31c-5.57-5.6-11.33-11-17.38-16.1s-12.22-9.66-17.48-15.38-9.53-12.66-10.54-20.36l-.27-7.52c-2.48-7-6.39-13.51-10.41-19.82A485,485,0,0,0,531,1463.18c-3.88-4.71-7.86-9.36-11.3-14.4-2.8-4.12-5.23-8.5-8.2-12.5-4.87-6.54-11.07-11.94-17.22-17.29l-4.08-5.35c-9.63-13.49-19-27.3-26.05-42.29s-11.9-31.28-12-47.86l.56-5.86c-1.59-7.32-3.18-14.66-4.25-22.08a29.15,29.15,0,0,0-1.2-5.8c-1.56-4.35-5.25-7.61-7.18-11.81l-1.84-4.63c-1.21-21.16-13.1-40-19.75-60.13a124.19,124.19,0,0,1-6-47.27l3.09-5.33c.25-7,.48-14.2-1.25-21s-5.72-13.42-12-16.63l-2.93-3.57a188.78,188.78,0,0,1-9.24-80c1.64-16.21,5.36-32.78,1.27-48.54l-.91-4.39A118.26,118.26,0,0,1,383,960.31a55.15,55.15,0,0,0-1.74-8.38c-1.58-4.78-4.69-8.87-7.75-12.87,9.36-1.36,19,1.27,27.24,5.93s15.21,11.27,21.58,18.27a99.65,99.65,0,0,0,8.83,9.08A10,10,0,0,0,436,975c1.86.26,4-.67,4.55-2.47.63-2.08-1-4.1-2.48-5.69-3.52-3.77-6.95-7.76-8.91-12.52-2.67-6.5-2.35-13.79-2-20.8l.25-3.88c1.54-3.89,5.08-6.73,9-8.24a34.93,34.93,0,0,1,12.33-1.84c2.32,0,4.77.1,6.71,1.37.22-7.3.59-15.09,4.87-21a46.27,46.27,0,0,1-12.87-10.22,30.16,30.16,0,0,1-7-14.71c-.74-4.72-.14-9.55-.68-14.29-.12-1.1-.52-2.43-1.61-2.64l-1.68-4.3a32.91,32.91,0,0,1-7.29-44,23,23,0,0,1,5.47-6c4.86-3.6,11.19-4.48,17.23-4.67a32,32,0,0,1,10.05.94c8.1,2.41,13.71,9.93,16.86,17.78a46.42,46.42,0,0,1,11.62-6.16,22.4,22.4,0,0,1,10.89-1.52c6.46,1,11.49,6.15,15,11.67s6,11.69,10.07,16.77L531,817.75a13.29,13.29,0,0,1,1.95-5.23,12.13,12.13,0,0,1,5.33-3.57,62.54,62.54,0,0,1,22.5-4.73,91.48,91.48,0,0,0-16-25.84c-4.65,2.48-9.37,5-14.48,6.24s-10.75,1.22-15.42-1.24a23.4,23.4,0,0,1-7.59-6.9,41.4,41.4,0,0,1-6.68-35.23l-2.2-2.7a29.4,29.4,0,0,1-23.64-20.16,44.2,44.2,0,0,1-1.58-11.51,41.1,41.1,0,0,1,.24-6.47c1-7.37,5-14.08,10.31-19.33,2.51-2.5,5.72-4.84,9.23-4.44v-1.83c-4.61-1.74-9.36-3.11-13.91-5a34.65,34.65,0,0,1-12.3-8c-5.15-5.57-7.36-13.49-6.83-21.06s3.6-14.8,7.84-21.1l-.25-2.32c-8.29-.5-15.74-6.3-19.4-13.76s-3.85-16.29-1.78-24.34,6.25-15.4,11-22.19a25.61,25.61,0,0,0-6.66-.21l-4.48,0c-10.78-1.12-21.7-7.11-25.68-17.18-2.16-5.47-2.11-11.54-1.85-17.42.2-4.73.54-9.56,2.44-13.89,3.9-8.92,14-14,23.72-14.17-2.29-4.77-3-10.83-7.4-13.72-2.13-1.38-4.75-1.73-7.2-2.39a27.34,27.34,0,0,1-19.37-33.34,12.43,12.43,0,0,1,2.52-5.23,13.61,13.61,0,0,1,5.42-3.3,44.84,44.84,0,0,1,20.39-2.72c2.36-8.14,7.22-15.89,14.61-20.05,4.48-2.52,9.61-3.6,14.67-4.46s10.35-1.57,15.44-.61c5.69,1.08,10.77,4.15,15.7,7.17a18.59,18.59,0,0,1,4.81,3.7,15.74,15.74,0,0,1,2.75,5.83,48.7,48.7,0,0,1-7.78,42,36.54,36.54,0,0,1,14.76,13.32l1.39,2.61c2.8.16,5.66-.56,8.39.08,3.42.8,6,3.56,8.28,6.22,6.6,7.62,13.12,16.07,14.43,26.06a13.65,13.65,0,0,1-.94,8c-1.83,3.63-5.91,5.72-7.67,9.38a8.89,8.89,0,0,0,.08,7.75l-.44,4.22A64.28,64.28,0,0,1,547.31,564a104.09,104.09,0,0,1,4.89-10.82,18.28,18.28,0,0,1,4.25-5.86,19.86,19.86,0,0,1,6.3-3c8.4-2.89,17.42-5.81,26-3.54a34.77,34.77,0,0,1,12.05,6.46,38.52,38.52,0,0,1,8.5,8.6c6.48,9.56,5.87,22.07,5,33.59a56.59,56.59,0,0,0,15.33-5.52c-4.3-10.77-4-23.12,0-34s11.54-20.3,20.76-27.32a37.93,37.93,0,0,1-3-23.71l1.31-4.2c1.17-6.89,6.28-12.45,11.81-16.72s11.74-7.72,16.65-12.7a201.44,201.44,0,0,1-23.93,1.45,14.58,14.58,0,0,1-10.21-2.93,9.23,9.23,0,0,1-3.7-3.49,9.43,9.43,0,0,1-.57-4.26q.15-7.54.29-15.08l-.24-4.49a67.41,67.41,0,0,1,5.87-31.37,67.8,67.8,0,0,1-16,7.77A37.63,37.63,0,0,1,617.27,415a40.33,40.33,0,0,1-13.74-2.72c-6.31-2.23-12.79-5.6-15.73-11.61-1.75-3.56-2-7.65-2.09-11.62-.12-7.52.47-15.15,2.95-22.26s7-13.68,13.4-17.6l.65-2.89c-4.77-3.65-9.68-7.47-12.43-12.81-2.44-4.73-2.94-10.23-2.72-15.55a72.85,72.85,0,0,1,4.6-22.29A26.52,26.52,0,0,1,595,289.8a23.71,23.71,0,0,1,5.54-5.5c8-6,18.29-9.24,28.27-8.11A43,43,0,0,1,659,264.62l2.45-.88a260.46,260.46,0,0,0-28.76-31.63,2.3,2.3,0,0,0-1-.63,2.17,2.17,0,0,0-1.22.21c-4.87,2-8.76,6.23-13.91,7.29-3.91.81-7.93-.37-11.76-1.53a27.2,27.2,0,0,1-6.24-2.49,9.06,9.06,0,0,1-4.2-5.06l.3-6.42c-2-4.5-4-9.1-4.49-14s.83-10.23,4.56-13.45a12.57,12.57,0,0,1,.82-12.53,51,51,0,0,0,3.32-4.46c1.37-2.55,1.31-5.6,1.19-8.49-.2-5.17-.5-10.53-2.88-15.12l-3.11.13-6.57-3.4a21.21,21.21,0,0,1-5.43-3.55c-4-4-4.21-10.34-4.05-16,.15-5,.47-10.29,3.34-14.39a20.83,20.83,0,0,1,6.4-5.54A46.75,46.75,0,0,1,622,107.14a10.56,10.56,0,0,0,3.24.44,11.29,11.29,0,0,0,2.29-.57c9.39-2.89,20-.75,28,5a39.18,39.18,0,0,1,15.08,24.48l.66,4.47c5.52,2.18,9.07,7.7,11,13.33s2.47,11.63,4.17,17.32l1.77,3,5.25,2.79c3.07,1.63,6.32,3.42,8,6.47,1.9,3.43,1.39,7.62.83,11.49l.4.64a10,10,0,0,1,5.92,7.53,15.37,15.37,0,0,1-1.75,9.68,47,47,0,0,0-2.91,5.58A14.38,14.38,0,0,1,716,214.56a14.66,14.66,0,0,0,2.18.23,10.44,10.44,0,0,0,2.89-.66c4.51-1.44,9.64-2.17,13.81.07l.31-.38c-.2-2.81-.45-5.73-1.88-8.16-1.15-2-3-3.42-4.29-5.26-3.42-4.77-2.93-11.48-.33-16.74L723,180.71a10.8,10.8,0,0,1-11-8l-3.84-1.41a30.78,30.78,0,0,1-18.87-11,16.22,16.22,0,0,1-2.75-4.63,19.8,19.8,0,0,1-.93-5.68,75.05,75.05,0,0,1,.86-15.92,16,16,0,0,1,1.47-5.1,16.75,16.75,0,0,1,3.37-4c2.85-2.7,5.83-5.26,8.81-7.82l.71-4.24c0-7.88,1.89-16.05,6.9-22.13s13.55-9.61,21.08-7.26a30.41,30.41,0,0,1,8.84-12.64,19.58,19.58,0,0,1,14.5-4.48c6.94.89,12.56,6.09,16.67,11.75a33.21,33.21,0,0,1,4.46,8c2.22,6.12,1.71,12.87.7,19.3l.56,3.35c4.46,1.5,9.08,3.11,12.42,6.42a23.1,23.1,0,0,1,4.15,6,33.43,33.43,0,0,1,3.82,13.86,26.77,26.77,0,0,1-7.78,19.59,29.16,29.16,0,0,1,16.66,18.7l-.88,5.21c.38,1.78-1.75,3-2.71,4.5a10.38,10.38,0,0,0-1,3.36A16.26,16.26,0,0,1,787,198.63a71.76,71.76,0,0,0,6.9,8.46l1.49,3c1.84,4.36,1.63,9.27,1.38,14-.23,4.51-.62,9.42-3.66,12.76l-.84,5.44a48.55,48.55,0,0,1-4.27,5.43,29,29,0,0,1,17.23,4.34c5,3.34,8.69,8.91,9,14.92l9.18-3.23c4.6-1.61,9.54-3.24,14.24-2a18.93,18.93,0,0,1,6.5,3.47,22.1,22.1,0,0,1,5.4,5.6c3.05,4.81,3.18,10.86,3.21,16.56l0,7-.95,4.65a63.88,63.88,0,0,1-14.51,11.95,21.66,21.66,0,0,1-7.32,3.09c-2,.36-4.15.26-6.08.95l-1.6,1.35c2.86,5.44,5.75,11,6.92,17s.37,12.73-3.53,17.47c-5.2,6.31-14.34,7.66-20.82,12.64a52.19,52.19,0,0,1,11.43,11.36c10.5-11.28,26-18.56,41.33-16.55s29.28,14.71,30.26,30.1c.79,12.53-6.41,24-13.33,34.49,2.89-4.92,8.09-8.15,13.56-9.77s11.25-1.8,17-1.83c10-.05,20.67.53,28.84,6.32,6.77,4.8,10.93,12.8,11.9,21s-1,16.66-4.79,24.06l-1.46,4.39a13.43,13.43,0,0,1,7,9.42,18.89,18.89,0,0,1-1.74,11.83c-1.47,3.06-3.67,6.09-3.34,9.47,6.85-6.48,15.9-10.92,25.33-11.07s19.1,4.37,24,12.42c2.76,4.52,3.94,9.85,4.44,15.12.53,5.48.31,11.25-2.27,16.1-4.53,8.53-15.24,12.35-19.82,20.85,10.12.86,21.12,5,25.27,14.26,2.12,4.71,2.13,10.06,2.1,15.22,0,7.58-.27,15.76-4.87,21.78l-2.81,3.86A34,34,0,0,1,974.28,617c2.22,9.57-1.23,20-7.87,27.19S950.28,655.6,940.56,657a24,24,0,0,1,0,29.34c5.29,2.88,8.44,8.73,9.54,14.65s.4,12-.29,18l-.44,6.45c-1.5,8.58-8.75,15.25-16.82,18.52s-17,3.7-25.67,4.11c1.58,12.61-6.88,25.75-19,29.51a3.17,3.17,0,0,0-2.76,4.24c.78,14-9.73,26.63-22.27,32.9A24,24,0,0,1,884.68,842c10.78-3.46,23.63,1.48,29.33,11.26a24.78,24.78,0,0,1,18.91.09,24.22,24.22,0,0,1-2.43-12.75,8.61,8.61,0,0,0-.08-3.36,8,8,0,0,0-1.75-2.66,36.66,36.66,0,0,1,13.22-57.18c-1.61-7.37,3.9-14.35,9.74-19.14a45.82,45.82,0,0,1,10-6.44,32.62,32.62,0,0,1,45.5,36c10,2.25,17.67,10.82,21.58,20.32a30.22,30.22,0,0,1,2.57,12.25c-.21,7.11-3.92,13.75-8.84,18.89s-11,9-17,12.78l-2.88,4.74c7,3.63,11.36,11.54,11.6,19.46s-3.28,15.68-8.67,21.49-12.52,9.78-20,12.37c2.8,13.24-5.25,27.93-17.92,32.69a3.1,3.1,0,0,0-1.59,1,3.15,3.15,0,0,0-.22,2.11,28.53,28.53,0,0,1-2.12,14.66l-4.85,5.06c-2.64,5.08-8.94,6.81-14.54,8l-11.95,2.6c-6.42,1.39-13.08,2.9-18.21,7-4.84,3.86-7.76,9.57-10.47,15.13s-5.25,10.89-7.84,16.35l-11.61,24.47c-2.37,5-4.75,10-6.14,15.35-2.44,9.34-1.76,19.17-1.06,28.79l1.73,8c.76,13.12,1.52,26.41-1.13,39.28s-9.12,25.48-20.06,32.75l.44,3.89a43,43,0,0,1,7.36,32.89c8.42-3.25,18.43-.62,25.14,5.41s10.32,15,11.12,24c.86,9.69-2.47,21-11.46,24.69l-2.87,2.59c21.72,47.18,40.05,97.7,38,149.6l-1.88,7.93c-.79,4.68-2.52,9.15-3.53,13.79-2.83,13,.2,26.58,3.21,39.59l1.09,2.23a220.6,220.6,0,0,1,67.78,108.08l5.67,4.72,9.3,8,3.52,7.59a129.68,129.68,0,0,1,12.23,27.12l2.31,9.05a79,79,0,0,1,6.33,30l-.82,8.28c1.09,6.45,5.16,12.09,6.38,18.52l14.37,6.28c41.71,103,54.68,215.09,67.26,325.54q2,17.16,3.91,34.32C1122.68,2061.09,1123.07,2065.11,1121.43,2068.53ZM540.87,1095.75l-6.23-13a2.78,2.78,0,0,0-.8-1.13,2.59,2.59,0,0,0-1.19-.36,63.07,63.07,0,0,0-14.53-.33l-2.67,3.63c.49,2.18,2,4,3.09,5.88,2.62,4.63,3.06,10.43,6.52,14.46l2.74,2a20.87,20.87,0,0,0,6.28-2.78l5-2.93Zm50.92-31.44-.15-.68c-1.53-.79-2.3-2.73-3.94-3.26a5.23,5.23,0,0,0-1.77-.15,121.24,121.24,0,0,0-24.78,3.51l-1.57,3.31a49.77,49.77,0,0,0,6.68,9.68,18.63,18.63,0,0,0,10,5.84,11.57,11.57,0,0,0,10.72-3.43,17.33,17.33,0,0,0,2.5-4.31C591,1071.5,592.3,1067.91,591.79,1064.31ZM682,1046.48a60.5,60.5,0,0,1-5.65-9.56c-.89-1.87-1.91-4-3.89-4.6a6.68,6.68,0,0,0-2.4-.13,69.52,69.52,0,0,0-8.13,1l-2.64,3.33a5.24,5.24,0,0,1,3.67,2.65,11.28,11.28,0,0,1,1.3,4.46,27.51,27.51,0,0,1-1.13,11.54l1.33.86a58.87,58.87,0,0,0,15.93-4.47l2.69-2.09C683.38,1048.44,682.66,1047.38,682,1046.48Zm137.07-25.57-7.77-4.74a48.39,48.39,0,0,0-5.91-3.23c-8.52-3.68-18.29-2.18-27.39-.41l-5.57,1.48a9.52,9.52,0,0,0-3.33,7.91,17.66,17.66,0,0,0,.35,2.16c.64,3.26,1.29,6.53,1.94,9.79l4.06,3.52c6,4.43,14.32,4.67,21.41,2.34s13.2-6.9,19-11.59Zm33.73-11.68-5.13-11.73a30.37,30.37,0,0,1-9.49,1.63c-2.05,0-4.1-.16-6.16-.14-4.82,0-9.56,1.19-14.25,2.35l-5.55,2.93q8.71,6.24,18,11.64a17.68,17.68,0,0,1,10.3-6.32A36.41,36.41,0,0,1,852.81,1009.23Z"></path>
    <path data-name="1a" data-official="" data-plain="Stamen Flower" data-loc="" d="M89.53,2602.07c2.93-7.38,1.56-15.84-1.41-23.21s-7.44-14-11-21.15a89,89,0,0,1-8-24.85c-1.63-10-1.55-20.14-.81-30.22.43-5.77,1.16-11.79,4.36-16.61s8.43-7.81,13.67-10.21c19.81-9.06,43.59-11.44,63.27-2.09,8.65,4.11,16.52,10.7,20.07,19.59,2.54,6.37,2.71,13.41,2.65,20.27q-.09,11-.84,21.93c-.69,10.14-1.86,20.48-6.21,29.66-3.22,6.8-8.15,12.88-10,20.19-1.93,7.81,0,16-.48,24.06a18.65,18.65,0,0,1-2.1,8.36c-2.47,4.26-7.26,6.57-11.88,8.25a93.81,93.81,0,0,1-37.2,5.45c-4.83-.28-10-1.08-13.58-4.31-5-4.43-5.47-11.92-5-18.54Z"></path>
    <path data-name="1b" data-official="" data-plain="Stamens" data-loc="" d="M222.47,2587.49l5.67-28.24c.5-2.48.89-5.38-.8-7.26a6.56,6.56,0,0,0-3.54-1.79c-6.2-1.42-12.82.79-19-.76-8.47-2.12-14-11.42-13.26-20.13s6.56-16.42,14-21c6.52-4.07,14.92-6.79,17.77-13.93,1.26-3.16,1.16-6.68,1-10.08l-.6-16.58c-.18-5-.33-10.28,1.75-14.87,2.72-6,9.14-9.94,15.71-10.28a23,23,0,0,1,17.61,7.49c4.73,5,7.24,11.73,10.71,17.72,1,1.75,2.29,3.59,4.24,4.13,2.44.67,4.89-.92,6.75-2.62,4.83-4.4,8.35-10,12.33-15.18s8.73-10.12,14.86-12.34,13.94-1,17.69,4.36c2.49,3.55,2.81,8.15,3,12.49q.39,10.68.14,21.36c-.11,4.45-.25,9.12,1.73,13.1,5,10,19.61,10,27.78,17.65a18.43,18.43,0,0,1-6.35,30.8c-7.92,2.84-17.37.18-24.63,4.42a7.18,7.18,0,0,0-2.78,2.6,7.88,7.88,0,0,0-.7,4.3c.44,7,4.15,13.22,6.56,19.77s3.32,14.58-1.18,19.91c-1.78,2.11-4.22,3.54-6.41,5.24a31.75,31.75,0,0,0-11.74,19.6c-1.13,6.72-.2,14.17-4,19.84-4.22,6.32-12.65,8-20.21,8.65a174.41,174.41,0,0,1-27.14.22c-2.92-.2-6-.51-8.46-2-4.11-2.45-5.91-7.6-5.83-12.38s1.71-9.37,3-14c.63-2.28,1.15-4.83,0-6.92-2-3.81-7.49-3.31-11.73-4.14a15.2,15.2,0,0,1-11.84-13Z"></path>
    <path data-name="1c" data-official="" data-plain="Fertile Flower" data-loc="" d="M412.54,2599.65c4.45-8.2,6.43-18.56,2-26.76-2.9-5.34-8.06-9-12.55-13.09A69,69,0,0,1,379.86,2508c.08-3.59.57-7.46,3-10.1,1.46-1.59,3.47-2.55,5.13-3.93,4.93-4.13,6-11.21,9.41-16.67,4.27-6.87,12-10.78,19.64-13.42a101.81,101.81,0,0,1,45.29-4.86c7,.84,14.16,2.55,19.48,7.14,3,2.62,5.29,6,7.49,9.4,5.53,8.45,11.15,17.1,13.65,26.89,2.15,8.39,1.9,17.19,1.31,25.84-.61,9.11-2,19-8.6,25.31-4,3.74-9.26,5.64-13.86,8.55a36.33,36.33,0,0,0-16.44,26.63,13.81,13.81,0,0,0,.33,5.51c.7,2.26,2.3,4.1,3.74,6,3.92,5.1,7.06,11.54,5.62,17.81-1.11,4.82-4.83,8.74-9.17,11.12s-9.29,3.41-14.18,4.16a146.55,146.55,0,0,1-26,1.65c-4-.11-8.14-.43-11.52-2.53-7.08-4.38-7.82-14.19-7.78-22.51Z"></path>
    <path data-name="1d" data-official="" data-plain="Ovaries" data-loc="" d="M535.48,2594c2.87-4.61,4.22-10.36,2.78-15.61a34.84,34.84,0,0,0-4-8.26c-3.93-6.68-7.47-13.58-11-20.48-2.58-5-5.19-10.15-6.25-15.71-1.92-10.17,1.63-20.69,7-29.58,2.17-3.62,4.77-7.18,8.46-9.2a26.06,26.06,0,0,1,8.56-2.48,36.68,36.68,0,0,1,11.91-.42,50.65,50.65,0,0,0,6.64,1.23,27.79,27.79,0,0,0,7-1.07c16-3.55,34.11-.13,46,11.24a21,21,0,0,1,5,6.65,25.29,25.29,0,0,1,1.63,7.91c.38,4.33.57,8.68.55,13,0,3.38-.17,6.86-1.57,9.94-2.18,4.78-7,7.79-10.07,12-5.33,7.25-5.15,17-4.91,26,.37,14,.08,28.94-7.7,40.58a20.15,20.15,0,0,1-7.74,7.24,25.65,25.65,0,0,1-9.11,1.93,158,158,0,0,1-36.8-1.52,16.64,16.64,0,0,1-6.58-2.07c-3.17-2.06-4.69-6-4.78-9.78s1-7.46,2.15-11.07Z"></path>
    <path data-name="1e" data-official="" data-plain="Fruit" data-loc="" d="M648.91,2616.49a12.31,12.31,0,0,0,1.91-13.9c-2.54-4.76-7.94-7.28-11.11-11.65-4.16-5.74-3.75-13.46-3.57-20.54a187.56,187.56,0,0,0-1.1-25.74c-1.55-13.66-4.65-27.14-5.55-40.86s.58-28.07,7.56-39.92a63.55,63.55,0,0,1,12.2-14.53,43,43,0,0,1,12.36-8.41c7.32-3,15.54-2.72,23.41-1.85s16.2,2.45,22.87,7c8,5.42,12.83,14.56,15,23.95s2,19.16,1.82,28.81l-.85,43c-.18,9.12-.37,18.31-2.21,27.24s-5.44,17.71-11.68,24.37c-2,2.14-4.32,4.14-5.39,6.86a17.8,17.8,0,0,0-.81,6.71l.11,12.78c0,3.32.05,6.73-1.06,9.87-3.21,9.13-14.17,12.54-23.73,14q-8.21,1.26-16.47,1.85c-3.93.28-8.21.35-11.38-2-4.48-3.28-4.84-9.7-4.79-15.24Z"></path>
    <path data-name="1f" data-official="" data-plain="Section" data-loc="" d="M768.89,2625.26l5.92-16.29c.85-2.35,1.72-4.83,1.32-7.3s-2-4.59-3.7-6.46c-6-6.62-13.62-11.76-18.84-19-9-12.52-9.44-29.06-9.53-44.48l-.17-30c-.07-13.67,0-28.06,6.79-39.93,7.89-13.85,23.77-21.71,39.6-23.59,5.55-.66,11.29-.67,16.59,1.11,5.47,1.83,10.15,5.43,14.59,9.13,6.77,5.63,13.31,11.67,18.39,18.88,7.76,11,11.77,24.34,13.45,37.72s1.13,26.92.5,40.39c-.32,7-.69,14.11-3.11,20.68-4.43,12-15.41,21.35-17,34-.73,5.76.61,11.64-.12,17.4-1.08,8.54-6.74,16-13.83,20.93s-15.52,7.47-24,9.23c-6.41,1.33-13.21,2.21-19.41.1s-11.54-8-11-14.56Z"></path>
    <path data-name="2" data-official="Phœnix dactylifera" data-plain="Date Palm" data-loc="Levant" d="M872.33,1832.16c4.85,9.8,9.35,20.15,9.66,31.08l-1.87,8.46-5.35,1.41a60.46,60.46,0,0,1-43.57-1.8,5.32,5.32,0,0,0-2.4-.64,4.2,4.2,0,0,0-2,.81c-4.44,3-6.31,8.52-7.72,13.69a239.14,239.14,0,0,0-6.14,30.09c-1.07,7.71-1.78,15.56-4.43,22.88a28.85,28.85,0,0,1-7.93,12.25,26.36,26.36,0,0,1-8.35,4.65,26.09,26.09,0,0,1-14.41,1.19,17.35,17.35,0,0,1-11.49-8.36c-3.2-6-1.8-13.52,1.08-19.7s7.11-11.68,9.78-18c7.67-18.1,1.28-39.65,8.2-58,3.33-8.86,9.53-16.33,16-23.29,4.8-5.21,10.28-10.51,17.26-11.7,3.44-.58,7-.1,10.46-.4a23.5,23.5,0,0,0,14.22-6.51l6.88-3a31.58,31.58,0,0,1,13.39,10.28A80.56,80.56,0,0,1,872.33,1832.16Zm914-1099.78a47.39,47.39,0,0,1-6.51,14.73c-2.76,3.9-6.36,7.1-9.42,10.76-3.68,4.4-6.88,9.71-12.22,11.81l-6,2.21c-2.45,1.75-5.84.19-8.84.5-3.54.36-6.21,3.33-8.19,6.28-1.25,1.85-2.6,4-4.78,4.43-.84.17-1.71.08-2.55.2a10.42,10.42,0,0,0-4.36,2.11l-5,3.45-1.41.35-2.86,1.06c-1.34.49-3,1-4.1.1a5,5,0,0,1-1.18-1.59,14.54,14.54,0,0,0-2.28-2.95c-2,1.44-2.31,4.39-4.19,6l-2.49,1.87a92.7,92.7,0,0,1-13.31,1.17l-5.49.09c-4.84-.09-9.69-.38-14.51-.84a51.33,51.33,0,0,1-9.06-1.52,48.17,48.17,0,0,1-7-2.7,147.42,147.42,0,0,1-28.51-17.17l-4.05-2.82c-2.48-2.3-5-4.67-6.46-7.72-.85-1.8-1.47-4-3.28-4.83a13.55,13.55,0,0,0-2.77-.61c-2.95-.68-4.94-3.35-6.66-5.84l-.94-4.08-8-7.68a167.47,167.47,0,0,1-12.36-12.78,84.81,84.81,0,0,1-8.17-11.64l-.73.06a14.53,14.53,0,0,1-8.13,1.62l-4.72,4.79a50.74,50.74,0,0,1-9.19,7.49l-6.15,2.28a55.91,55.91,0,0,1-20.81-1.38l-8.2,20.8-2,3a6,6,0,0,0,1.55,6.23,11.21,11.21,0,0,0,4.75,2.13l17.78,4.8c11.52,3.12,23.12,6.26,33.87,11.45a154.58,154.58,0,0,1,23.2,14.44c11.88,8.61,23.26,17.89,34.64,27.16,3.59,2.92,7.19,5.85,10.5,9.1,5.91,5.78,10.83,12.49,15.73,19.16l.35.44a17,17,0,0,0,7.61,15.77l-.24.74a12.23,12.23,0,0,0-4.21,6.67c-.47,2.65.72,5.71,3.2,6.72l-.07,1.35a121.69,121.69,0,0,1,1.74,37.26l-4.58,17.92A93.13,93.13,0,0,1,1627.74,958l-3.48,2.08c-4.83,4.5-11.14,7.16-17.59,8.54s-13.09,1.58-19.69,1.68c-18.7.29-37.77-.15-55.49-6.15a59.85,59.85,0,0,1,7.23,30.36l-.78,4.2c-.57,2.77-2.59,5-4.53,7.05-.43.46-1,1-1.63.75s-.72-1.2-.73-1.94-.49-1.7-1.2-1.49c-.37.11-.57.52-.71.89l-1.3,3.21a2,2,0,0,1-.44.75,2.29,2.29,0,0,1-1.27.42c-2.82.45-5,2.58-7.15,4.51a2.67,2.67,0,0,1-.93.64,3.16,3.16,0,0,1-.87.13,12.72,12.72,0,0,0-3.11.57,4.43,4.43,0,0,0-1.79,1c-1,1-1.06,2.68-.8,4.12a7.17,7.17,0,0,0,1.63,3.69,3.48,3.48,0,0,0,3.71,1,1.92,1.92,0,0,1,.86-.24,1.63,1.63,0,0,1,.71.4c2.32,1.84,5.63,1.56,8.54,1a7.2,7.2,0,0,0,2.65-.87,2.59,2.59,0,0,0,1.27-2.34,17.41,17.41,0,0,0,6.38.64l-3.52,3.4a2,2,0,0,0-.77,1.22,1.37,1.37,0,0,0,.81,1.25,3.36,3.36,0,0,0,1.54.25,13.06,13.06,0,0,0,8.57-3.5l3.45,2.2a4.12,4.12,0,0,1,1.82,2.07c.65,1.2,1.3,2.4,1.94,3.6l1,3.88a103.08,103.08,0,0,1,2.42,14.92c.64,6.58.84,13.19,1,19.8.2,6.31.39,12.63.14,18.93-.57,14-3.36,27.81-6.14,41.55l-4.84,3.36a9.36,9.36,0,0,0-5.63,2.33,20.38,20.38,0,0,0-2.16,2.29,108.64,108.64,0,0,1-16,15.74,55.47,55.47,0,0,1-19.9,10.13l-10.9,4.4a50,50,0,0,1-10.71,2.14,118.61,118.61,0,0,1,6.17,38.6l-3.3,4a6.26,6.26,0,0,1-2.33,3,2.25,2.25,0,0,0-.91.87,1.86,1.86,0,0,0-.07.88,266.16,266.16,0,0,1,.55,30.29l3.22,5a11,11,0,0,1,2.28,6.86c.1,2.46-.21,4.91-.11,7.37.25,6.08,3,12.23,1.27,18.06l.3,4.6c-5.89,13.48-13.12,26.58-23.22,37.28s-23.31,18.92-37.87,21.06c-18.87,2.78-37.69-4.7-54.68-13.39l-1.73.44c11.63,20.21,8.52,45.32,5,68.38-1.44,9.57-2.9,19.19-6.07,28.33-3.55,10.23-9.16,19.6-14.74,28.88-9.21,15.34-19.37,31.56-35.66,39-6.86,3.11-14.37,4.43-21.81,5.57-7.62,1.16-15.37,2.15-23,1.15-11.38-1.49-21.71-7.29-31.46-13.35-22.8-14.16-45.25-31.5-56-56.1a37.91,37.91,0,0,1-24.51,5.1c3.3,19.35,5.82,39.07,3.66,58.58s-9.36,39-23.21,52.92l-3.78,4.29c-.27,11.7-.58,23.66-4.7,34.61-1.57,4.17-3.48,9.44-.32,12.58a16.24,16.24,0,0,0,3.84,2.34c6.61,3.65,9.47,12,8.67,19.55s-4.56,14.37-8.46,20.84c-9.74,16.14-21.73,32.13-39,39.64-11.73,5.1-24.83,5.8-37.61,6.44l-8.8,1.26-14.37-6.28c-1.22-6.43-5.29-12.07-6.38-18.52l.82-8.28a79,79,0,0,0-6.33-30l-2.31-9.05a129.68,129.68,0,0,0-12.23-27.12l-3.52-7.59-9.3-8-5.67-4.72A220.6,220.6,0,0,0,924,1469.85l-1.09-2.23c-3-13-6-26.54-3.21-39.59,1-4.64,2.74-9.11,3.53-13.79l1.88-7.93c1-26-3-51.56-10-76.57l3.49-13.45c3.93-25,16.38-47.83,28.62-70,6.1-11,12.22-22.14,19.87-32.18,7.36-9.67,16.09-18.28,22.87-28.36l2.22-3a113.08,113.08,0,0,1-36.56-18.91,60.9,60.9,0,0,1-9.36-8.72c-11.42-13.61-12.91-32.86-12.07-50.61a106.71,106.71,0,0,1,2.34-19.29c4.53-19.43,17.69-36,33.63-48s34.58-19.83,53.35-26.59l5.83-2.84a43.93,43.93,0,0,1,3.94-19.1,24.59,24.59,0,0,0,1.43-3.49,18.59,18.59,0,0,0,.53-3.94c.22-3.41.43-6.82.65-10.23l1.54-4.4c6.47-21.56,21.94-39.18,38.09-54.86a140.81,140.81,0,0,1,12.91-11.38c8.15-6.17,17.36-10.74,26.54-15.25,30.64-15,63.28-30.11,97.33-27.56l6.06-2.51q-38.77-40.5-76.24-82.22c-8.43-9.39-17-19.11-21.42-30.93-3.92-10.43-4.34-21.8-4.72-32.94-.58-16.83-.71-35.14,9.45-48.57,6.25-8.27,15.68-13.54,25.29-17.43,34.2-13.86,72.66-12.72,109.12-7,14.46,2.28,29.09,5.34,41.85,12.52,7.88,4.45,14.84,10.35,21.68,16.28q14.63,12.69,28.88,25.8l4.11,6.51a57.26,57.26,0,0,1,8.22,14.34,75.36,75.36,0,0,0,3.43,8.37c.7,1.3,1.53,2.54,2.36,3.77q6.67,9.84,13.59,19.51a9,9,0,0,0,3,3c2.18,1.09,4.78.28,7.07-.54l3.94-.17a14,14,0,0,0,16.38-1.9c1.47-1.42,2.66-3.2,4.48-4.14s3.83-.91,5.73-1.45c3.54-1,6.26-3.82,8.52-6.73s4.31-6.08,7.27-8.28l2.37-1.95c7.7-7.13,18.48-9.93,28.93-10.92,3.33-.32,6.77-.46,9.92.66s6,3.78,6.32,7.1a163.18,163.18,0,0,0,12.64-17.6,6.73,6.73,0,0,0,1.11-2.53,5.45,5.45,0,0,0-.31-2.43c-1.15-3.61-3.63-6.67-4.86-10.26-1.58-4.61-.92-9.7.33-14.42a59.61,59.61,0,0,1,14.24-25.5l4.47.73a33.8,33.8,0,0,1,15.46-16,5.81,5.81,0,0,0,1.52-.95,6.59,6.59,0,0,0,.76-1c1.62-2.42,3.7-4.49,5.51-6.77,6.08-7.7,8.89-17.67,15.42-25l3.41-6.1a57.5,57.5,0,0,1,32.65-22.61c11.62-3,24.52-2.38,34.63-8.83,10.79-6.89,15.68-20.25,17-33s-.13-25.65,1.44-38.36c1.66-13.39,6.64-26.11,10.45-39.06,6.29-21.34,9.49-43.59,17.08-64.5,10.85-29.89,30.18-55.82,49.25-81.26,5.89-7.87,12.86-16.39,22.62-17.58,9-1.11,18,5.08,21.75,13.4s2.82,18.18-.76,26.57c-2.44,5.74-6.1,12.21-3.2,17.72,1.68,3.2,5.11,5,7.84,7.32,9.87,8.48,9.52,25.34.83,35s-23.45,12.38-36,8.82l-4.92,2A242.24,242.24,0,0,0,1694,513.21c-.21,8,0,16-1.63,23.88-2.69,13.18-10.21,24.79-17.86,35.84A128.55,128.55,0,0,1,1788.18,684.4l1.26,10.15A98.81,98.81,0,0,1,1786.35,732.38Zm-346.91,43.25a29.37,29.37,0,0,1-11.54-1.56,57.68,57.68,0,0,1-7.47-3.4,112.13,112.13,0,0,1-15.09-8.77,30.92,30.92,0,0,0-5.64-3.69l-2.54,2.9c-1.43.89-2.84,1.83-4.21,2.82l-.93,2.6a73.87,73.87,0,0,1,3.9,9.27,3.21,3.21,0,0,1,.12,2.5,4.83,4.83,0,0,0-.61,1c-.26,1,1.16,1.63,2.2,1.94a9.24,9.24,0,0,1,6.15,6.23c1,3.5,0,7.87,2.68,10.34l2,3.74c2.14-.45,4.39-1,5.93-2.54a13.57,13.57,0,0,0,2.19-3.42,41.37,41.37,0,0,1,22.34-19.4Z"></path>
    <path data-name="2a" data-official="" data-plain="Seed" data-loc="" d="M890.42,2626a21.82,21.82,0,0,0-.71-23.89c-2.91-4-7.17-7-10-11.08-3.67-5.42-4.39-12.26-4.93-18.78a941,941,0,0,1-1.7-131.57c.45-7.91,1-16,4.21-23.25,3.82-8.77,11-15.55,18.29-21.79q8.53-7.35,17.5-14.19c1.73-1.33,3.68-2.7,5.86-2.62a9.53,9.53,0,0,1,4.75,2.05c22.92,15.46,44.67,35.57,52.35,62.13,3.38,11.74,3.83,24.09,4.07,36.3q.72,37.24-.83,74.49c-.57,13.79-1.8,28.68-10.84,39.11-4.35,5-10.53,9.14-11.83,15.64-1.79,9,6.81,17.74,4.69,26.65-2,8.44-12.11,11.73-20.67,13.13-9.17,1.49-18.56,2.47-27.74,1s-18.22-5.51-24.12-12.69Z"></path>
    <path data-name="2b" data-official="" data-plain="Sprouting" data-loc="" d="M1716.64,1880.82c-.77-5.13,1.21-10.3,3.91-14.72s6.13-8.38,8.74-12.85a47.13,47.13,0,0,0,3.21-6.73l4.53-.54c21.43-7.24,44.83-2.4,66.92,2.5a740.64,740.64,0,0,1-4.31-78.08c0-8.9.12-17.86,1.78-26.61,2.1-11.06,6.56-21.51,11-31.86.78-1.82,1.66-3.77,3.38-4.75,3.31-1.9,7.36.82,9.88,3.68,5.8,6.58,9.61,14.68,12.58,22.92a144.45,144.45,0,0,1-3.23,105c-1.5,3.48-3.18,7.13-2.68,10.89.58,4.34,4,7.83,8,9.78s8.32,2.65,12.6,3.57c12.25,2.65,24.24,7.43,33.91,15.4s16.87,19.35,18.26,31.81a16.27,16.27,0,0,1-.6,7.57,15.61,15.61,0,0,1-3.92,5.48c-7.28,7.14-17.34,10.89-27.44,12.31s-20.36.67-30.54-.07l-3.8,5c-2.14,11.82-2.38,23.89-2.63,35.9l-2.58,128.28c-.09,4.67.06,9.95,3.49,13.11,4.28,3.95,11,2.41,16.71,1.16a92.26,92.26,0,0,1,62.16,8.44c4.43,2.34,9.26,6.21,8.54,11.17a8.93,8.93,0,0,1-4.09,5.85c-6.58,4.44-15.47,2.33-22.82-.67s-15-6.83-22.83-5.3c-3.46.67-6.61,2.37-9.92,3.59a36.92,36.92,0,0,1-23.61.55,4.66,4.66,0,0,0-3.35-.25c-2.33,1.09-1,4.71.89,6.39,4.28,3.71,10.12,5.13,14.61,8.58s7.06,10.87,2.74,14.54c-2.85,2.42-7.1,1.85-10.78,1.14l-16.63-3.2,6.13,22.44c5.67,20.77,11.4,42.17,8.84,63.55l2.24,3.49a114.57,114.57,0,0,1,42,36.38,7.57,7.57,0,0,1,1.49,3.12c.46,3.44-3.65,5.66-7.11,6.05-7,.77-14-1.54-20-5.15s-11.14-8.47-16.22-13.29a69.52,69.52,0,0,0-.41,13.61l1.73,47.89,5.9,1.6c5.11,5.44,10.45,11.36,11.57,18.74s-4.29,16.15-11.72,15.5c2.81,27.62,4.85,55.38,3.71,83.12-1.5,36.43-8.46,72.39-15.06,108.25-1.34,7.26-2.44,15.54,2.11,21.35,4.92,6.29,14.08,6.78,22.07,6.94s17.27,1.23,21.51,8c1.84,3,2.36,6.53,2.5,10a28.12,28.12,0,0,1-1.85,12.31c-3.68,8.48-13,13.1-22,15.12-23,5.18-48.51-2.86-64.39-20.3l.84-4.33c16.17-73.72,19.74-149.68,18.31-225.14-.29-15.29-.86-31-6.61-45.12-1.14-2.8-2.79-5.81-5.7-6.62-1.47-.41-3-.19-4.55-.48-5.85-1.13-7.37-9.28-4.93-14.71s7.26-9.48,10-14.8c3.32-6.55,3.07-14.26,2.75-21.6l-1.77-40.59-1.5-4.66c.09-2.91-.58-6.61-3.41-7.29-3.48-.84-6.47,3.89-10,3.12-2-.45-3.2-2.6-3.89-4.58-1-3-1.63-6.36-.6-9.38,2.45-7.1,12.67-9.64,14.13-17a16.12,16.12,0,0,0-.45-6.43c-1.16-5.42-3-11.42-7.84-14-3.89-2.08-8.68-1.36-12.86,0s-8.23,3.41-12.61,3.85-9.42-1.24-11.19-5.28c-1.33-3-.45-6.73,1.48-9.44a24.2,24.2,0,0,1,7.62-6.36c3.87-2.33,7.9-4.38,11.75-6.75,3-1.86,6-4,7.87-7.06a25.83,25.83,0,0,0,2.53-6.81l4.3-16.11c.46-1.7.82-3.75-.41-5-1-1-2.69-1-4.14-.88l-34.07,2.61-5.4.18a64.8,64.8,0,0,1-25.6-1.38l-8-3c-1.35-.73-2.84-1.2-4.15-2a4.92,4.92,0,0,1-2.54-3.63c-.13-2.1,1.67-3.76,3.3-5.07l7.3-5.87c1-.81,2.13-1.87,1.94-3.16l4.85,1.13a344.69,344.69,0,0,0,55.28.27c2.74-.2,5.68-.52,7.77-2.33,2.68-2.32,3-6.28,3.22-9.83q1.63-35.14,1.65-70.33l.11-6.67q.82-30,.5-60.11a52.93,52.93,0,0,0-1.06-12.06c-2.63-10.79-11.61-19.07-14.82-29.7a13.24,13.24,0,0,0-1.85-4.52,10.12,10.12,0,0,0-4-2.69c-9.38-4.2-19.41-6.74-28.94-10.56s-18.85-9.21-24.76-17.61Z"></path>
    <path data-name="3" data-official="Calamus palustris" data-plain="Rattan Palm" data-loc="E. Indies" d="M701.39,183.88c1.9,3.43,1.39,7.62.83,11.49l.4.64a10,10,0,0,1,5.92,7.53,15.37,15.37,0,0,1-1.75,9.68,47,47,0,0,0-2.91,5.58A14.38,14.38,0,0,1,716,214.56a14.66,14.66,0,0,0,2.18.23,10.44,10.44,0,0,0,2.89-.66c4.51-1.44,9.64-2.17,13.81.07l.31-.38c-.2-2.81-.45-5.73-1.88-8.16-1.15-2-3-3.42-4.29-5.26-3.42-4.77-2.93-11.48-.33-16.74L723,180.71a10.87,10.87,0,0,1-6.91-2.05ZM540.87,1095.75l-6.23-13a2.78,2.78,0,0,0-.8-1.13,2.59,2.59,0,0,0-1.19-.36,63.07,63.07,0,0,0-14.53-.33l-2.67,3.63c.49,2.18,2,4,3.09,5.88,2.62,4.63,3.06,10.43,6.52,14.46l2.74,2a20.87,20.87,0,0,0,6.28-2.78l5-2.93Zm50.92-31.44-.15-.68c-1.53-.79-2.3-2.73-3.94-3.26a5.23,5.23,0,0,0-1.77-.15,121.24,121.24,0,0,0-24.78,3.51l-1.57,3.31a49.77,49.77,0,0,0,6.68,9.68,18.63,18.63,0,0,0,10,5.84,11.57,11.57,0,0,0,10.72-3.43,17.33,17.33,0,0,0,2.5-4.31C591,1071.5,592.3,1067.91,591.79,1064.31ZM682,1046.48a60.5,60.5,0,0,1-5.65-9.56c-.89-1.87-1.91-4-3.89-4.6a6.68,6.68,0,0,0-2.4-.13,69.52,69.52,0,0,0-8.13,1l-2.64,3.33a5.24,5.24,0,0,1,3.67,2.65,11.28,11.28,0,0,1,1.3,4.46,27.51,27.51,0,0,1-1.13,11.54l1.33.86a58.87,58.87,0,0,0,15.93-4.47l2.69-2.09C683.38,1048.44,682.66,1047.38,682,1046.48Zm137.07-25.57-7.77-4.74a48.39,48.39,0,0,0-5.91-3.23c-8.52-3.68-18.29-2.18-27.39-.41l-5.57,1.48a9.52,9.52,0,0,0-3.33,7.91,17.66,17.66,0,0,0,.35,2.16c.64,3.26,1.29,6.53,1.94,9.79l4.06,3.52c6,4.43,14.32,4.67,21.41,2.34s13.2-6.9,19-11.59Zm33.73-11.68-5.13-11.73a30.37,30.37,0,0,1-9.49,1.63c-2.05,0-4.1-.16-6.16-.14-4.82,0-9.56,1.19-14.25,2.35l-5.55,2.93q8.71,6.24,18,11.64a17.68,17.68,0,0,1,10.3-6.32A36.41,36.41,0,0,1,852.81,1009.23Zm586.63-233.6a29.37,29.37,0,0,1-11.54-1.56,57.68,57.68,0,0,1-7.47-3.4,112.13,112.13,0,0,1-15.09-8.77,30.92,30.92,0,0,0-5.64-3.69l-2.54,2.9c-1.43.89-2.84,1.83-4.21,2.82l-.93,2.6a73.87,73.87,0,0,1,3.9,9.27,3.21,3.21,0,0,1,.12,2.5,4.83,4.83,0,0,0-.61,1c-.26,1,1.16,1.63,2.2,1.94a9.24,9.24,0,0,1,6.15,6.23c1,3.5,0,7.87,2.68,10.34l2,3.74c2.14-.45,4.39-1,5.93-2.54a13.57,13.57,0,0,0,2.19-3.42,41.37,41.37,0,0,1,22.34-19.4ZM1769,771.26c9.55,1.34,19.17,3,28,6.84s16.9,10.21,21.09,18.89,3.83,19.86-2.33,27.26c-5.19,6.24-13.47,9-21.46,10.32a88.62,88.62,0,0,1-32.51-.61c-8.25-1.7-16.75-4.59-24.87-2.37a21,21,0,0,0-14.08,13.22c-2.06,6.05-1.23,12.75-3,18.9-1.24,4.39-3.72,8.31-5.69,12.43-7.78,16.31-7.16,35.39-3.9,53.16l3.63,6.93c1,44.72,33.6,84.08,34.92,128.8l3.33-.52c18.64-16.48,43.55-24.82,68.39-26.32s49.7,3.46,73.39,11c6.57,2.1,13.22,4.49,18.62,8.79,7.61,6,11.94,15.21,16,24l-.33,7.65c2.73,13.76-6.08,28.3-18.79,34.22s-28.2,4-40.41-2.88c-4.47-2.52-8.74-5.72-13.78-6.68-7.69-1.46-15.26,2.58-21.9,6.74-8.5,5.33-16.89,11.25-22.82,19.34-4.28,5.85-7.2,12.73-12.32,17.86-5.89,5.91-14,8.85-21.21,13.12a5.46,5.46,0,0,0-1.82,1.51c-1.08,1.63-.19,3.8.74,5.52,3.66,6.8,7.85,13.89,7.51,21.61-.45,10.07-8.62,19-7.53,29,.38,3.54,1.91,6.84,3.19,10.16a77.66,77.66,0,0,1,5,23.25l2,7c2.11,11.35,2,23,3.82,34.4s5.9,23,14.6,30.61c12.77-9.68,22.82-23.36,37.55-29.67,6.39-2.74,13.33-3.92,20.25-4.62,19.29-2,38.79-.42,58,2.43,11.45,1.7,23.82,4.42,31.15,13.37l4.36,6.6a97.69,97.69,0,0,1,1.42,29.94c-.68,6.34-2.24,13.08-7,17.32a21.26,21.26,0,0,1-9.27,4.47c-12.07,2.94-24.67-.4-37.07-1.13-13.91-.82-28.87,2.17-38.76,12a69.67,69.67,0,0,0-7.77,9.83L1842,1417.25a37,37,0,0,1-5.72,6.92c-5.8,5-14,5.94-21.7,6.6l2.32,7.64q-.35,17.7-1.78,35.36c-.42,5.13-.9,10.27-1.58,15.38-4.43,33.44-17,65.31-22.68,98.55l4.47-.67a265.07,265.07,0,0,1,106.13,48.54c13.33,10.17,26.19,22.36,31.37,38.31l3.48,3.24c3.21,7,6.46,14.12,7.55,21.74s-.29,16-5.4,21.71c-4.44,5-11.07,7.45-17.61,8.8a47.69,47.69,0,0,1-13.57,1.06c-10.58-.89-20.14-6.45-28.94-12.38-23.93-16.12-45.18-35.88-68.29-53.15-5.31-4-12.15-8-18.16-5.2-5.42,2.51-7.19,9.23-8.17,15.11a355.87,355.87,0,0,0-4.12,35.35l1.4,12.25a52.28,52.28,0,0,1-8.75,17.78c-2,2.67-4.31,5.17-5.81,8.16-5.94,11.85,2.06,27.66-5.1,38.81-2.78,4.34-7.41,7.1-11,10.83-5.36,5.62-8.1,13.17-10.69,20.48l-2,6.18c-1.64,9.86-3.36,20-8.4,28.6-2.61,4.47-6,8.42-8.74,12.85s-4.68,9.59-3.91,14.72l-1,7.94c1.55,14-9.1,27-8.43,41,.21,4.36,1.51,8.58,2.33,12.87,2.64,13.79.31,28-1.79,41.86-.39,2.56-.55,5.68,1.54,7.21,2.64,2,6.39-.37,9.62.21,4.14.75,5.88,5.92,5.31,10.08-.83,6-4.6,11.19-9,15.39a16.8,16.8,0,0,0-3.57,4.15,4.76,4.76,0,0,0,.23,5.17,7.38,7.38,0,0,0,3.68,1.86c7.68,2.28,15.29,6.71,18.61,14,.56,1.25,1,2.78.22,3.93a4.17,4.17,0,0,1-2.06,1.44,25.49,25.49,0,0,1-11.71,1.86c-2.9-.22-5.9-.93-8.65,0-3.12,1.1-5.18,4.21-5.93,7.42s-.42,6.58-.09,9.87l1.13,6c4.72,9.24,14.09,15,23.19,20a19.59,19.59,0,0,1,5.83,4.15c1.54,1.84,2.34,4.51,1.32,6.68-1.27,2.68-4.67,3.54-7.62,3.52a13.73,13.73,0,0,0-4.84.37c-1.53.57-2.84,2.18-2.39,3.74a20.15,20.15,0,0,1,.89,2.11c.19,1.29-.93,2.35-1.94,3.16l-7.3,5.87c-1.63,1.31-3.43,3-3.3,5.07a4.92,4.92,0,0,0,2.54,3.63c1.31.81,2.8,1.28,4.15,2,5.76,3.09,8,11.27,4.74,16.9a5.5,5.5,0,0,1-1.94,2.09c-2.78,1.55-6.63-1.08-9.33.61-2.14,1.33-2.1,4.42-1.78,6.92q.7,5.32,1.59,10.62l1.21,4.64a80.85,80.85,0,0,1-.17,32.61,20.58,20.58,0,0,1-2.12,6.18c-2.68,4.59-8.06,6.8-13.14,8.37-4,1.23-8.09,2.27-12.23,1.92s-8.34-2.32-10.43-5.91a13.12,13.12,0,0,1-1.62-5.65,19.66,19.66,0,0,1,1.94-10.18c1-2,2.33-3.84,3.13-5.93s1-4.6-.28-6.45c-1.07-1.57-2.94-2.35-4.52-3.39s-3.09-2.78-2.68-4.64l.79-5a10.64,10.64,0,0,0-5.41-12.42c-2.38-1.12-5.09-1.29-7.56-2.19-6.47-2.37-10.06-9.14-13.06-15.35-1.77-3.67-3.6-7.59-3.2-11.65.54-5.55,5-9.85,9.69-12.94,3.92-2.61,8.56-5.32,9.43-9.94a8,8,0,0,0-6.45-9c-3.26-.48-6.53,1.16-9.82.88a9.36,9.36,0,0,1-7.8-6.32,10.87,10.87,0,0,1,1.94-10c1.84-2.3,4.47-3.82,6.7-5.76s4.15-4.69,3.77-7.61c-.33-2.58-2.39-4.62-4.61-6s-4.73-2.21-6.88-3.67a11.53,11.53,0,0,1-5-7.37,8.07,8.07,0,0,1,3.25-8c3-2,7.29-1.33,10.22-3.47s3.45-6,3.85-9.46l.86-7.56-.14-6.94a173.65,173.65,0,0,0-1.29-28.29c-.65-5-1.51-10-2.38-15l-14.31-82.8a9.79,9.79,0,0,0-1.68-4.69c-1.92-2.32-5.44-2.38-8.41-1.86s-6.11,1.37-8.9.22c-4.06-1.68-5.39-7.26-3.59-11.28s5.85-6.59,10-8.09c3.43-1.24,7.53-2.31,9-5.67l.67-5.13q-4.64-20.65-10.72-41c-1.18-4-2.4-7.88-3.63-11.82l-4.19-13.51a5.38,5.38,0,0,0-1.15-2.3c-1.2-1.21-3.25-1-4.76-.23s-2.73,2-4.22,2.89a8.68,8.68,0,0,1-12.92-8.1c.22-3.52,2.51-6.53,4.7-9.3,2.94-3.69,5.88-7.4,9.15-10.8,2.62-2.73,5.49-5.31,7.37-8.59s2.63-7.53.76-10.83a4.25,4.25,0,0,0-2.14-2c-2-.73-4,.83-5.56,2.31-4.46,4.32-8.93,9.17-14.92,10.8a5.46,5.46,0,0,1-2.53.22c-1.69-.32-2.86-1.84-3.68-3.34a21.23,21.23,0,0,1,3.28-24.22c4.69-4.87,12.06-7.9,13.75-14.45l.07-5.73-17.24-73.06c-.56-2.4-1.25-5-3.21-6.5-3.22-2.46-7.81-.68-11.47,1.06s-8.47,3.22-11.38.4c-2.41-2.34-1.93-6.5,0-9.25s4.9-4.54,7.56-6.59a40.85,40.85,0,0,0,7.55-7.6,15.62,15.62,0,0,0,3.32-6.75,7.1,7.1,0,0,0-2.37-6.81c-2-1.45-4.6-1.43-7-1.34l-7.21.25-4.91-2.29c-2.13-2.52-4.4-5.73-3.31-8.85a7.9,7.9,0,0,1,1.72-2.61c3-3.26,6.87-5.59,9.79-8.91s4.73-8.3,2.54-12.13c-1.65-2.9-5.13-4.29-8.45-4.61s-6.67.23-10,.16c-6.53-.14-13.86-3.82-14.72-10.29a4.88,4.88,0,0,1,1.15-4.23,6.53,6.53,0,0,1,2.22-1.19l11.72-4.38c3.43-1.29,7.15-2.83,8.8-6.09,1.86-3.68.38-8.1-1.16-11.93-1-2.6-2.8-5.66-5.59-5.44-3.59.27-5.06,5.86-8.66,5.89-2.82,0-4.27-3.35-4.69-6.14a41.81,41.81,0,0,1,.76-16.37c.89-3.57,2.25-7.07,2.39-10.74.2-5.4-2.25-10.5-4.64-15.35l-5.93-12a8.86,8.86,0,0,0-2-3,7.54,7.54,0,0,0-4.62-1.4,26.49,26.49,0,0,0-17.78,5.86l-5.55,2.37a9.77,9.77,0,0,1-16.34-5.82c-.48-3.48,1-7,3.16-9.74a39.25,39.25,0,0,1,7.9-6.91l9.87-7.17c2.7-2,5.58-4.19,6.35-7.44,1-4.28-2.4-8.67-6.58-10s-8.77-.37-12.85,1.27-7.92,3.89-12.12,5.17a28.52,28.52,0,0,1-4.74,1,3,3,0,0,1-2-.25,2.72,2.72,0,0,1-1-1.41c-2.07-5.8,2-12.11,7-15.7s11-5.65,15.7-9.7a5.42,5.42,0,0,0,2-2.9,5.87,5.87,0,0,0-1-3.76c-8.31-15.6-20.9-29.91-22.39-47.52l-5.68-9.58a107.58,107.58,0,0,0,15.19-21l3.32,2.23,12.51,12-.43-15.26c-.14-4.66-.44-9.76-3.62-13.17l-3.75-2-.3-4.6c1.75-5.83-1-12-1.27-18.06-.1-2.46.21-4.91.11-7.37a11,11,0,0,0-2.28-6.86l-3.22-5a266.16,266.16,0,0,0-.55-30.29,1.86,1.86,0,0,1,.07-.88,2.25,2.25,0,0,1,.91-.87,6.26,6.26,0,0,0,2.33-3l3.3-4,4.91,2a74.78,74.78,0,0,0,16.36,12.37c-2.57-16.86-10.15-33-9.58-50.09l3.75-9.4a55.47,55.47,0,0,0,19.9-10.13,108.64,108.64,0,0,0,16-15.74,20.38,20.38,0,0,1,2.16-2.29,9.36,9.36,0,0,1,5.63-2.33l4.84-3.36L1554,1136a27.82,27.82,0,0,1,16.54,17.73c1.06,3.54,1,8.12-2.07,10.13a18.58,18.58,0,0,0-2.56,1.49c-2.06,1.85-1.1,5.19-.14,7.79a64.66,64.66,0,0,1,3.85,25.14c5.11-7.62,12.83-13.24,21.21-17s17.45-5.7,26.52-7.08a228.81,228.81,0,0,1,102.12,7.66c-2.42-1.2-5-2.57-6.14-5-1.41-3.09.06-6.77,2.2-9.39s5-4.7,6.84-7.52c4.87-7.28,1.18-18.69-7-21.73-2.13-.79-4.43-1.08-6.52-2a9.71,9.71,0,0,1-5.64-6,6.89,6.89,0,0,1,2.47-7.53c1.55-1,3.61-1.35,4.86-2.75a6.12,6.12,0,0,0,1.29-3.21,15.75,15.75,0,0,0-5.8-14.58c-2.08-1.61-4.55-2.67-6.63-4.28s-3.85-4-3.58-6.66c.29-2.84,2.71-6.19.58-8.1l-2.84-4.92c-10.23-16.17-21.22-33.07-38.19-41.9-7.16-3.73-15.06-5.82-22.93-7.65a149.51,149.51,0,0,0-22.8-3.83c-18-1.31-35.91,2.7-53.43,7l-5.12,1.22c-.64-1.2-1.29-2.4-1.94-3.6a4.12,4.12,0,0,0-1.82-2.07l-3.45-2.2a13.06,13.06,0,0,1-8.57,3.5,3.36,3.36,0,0,1-1.54-.25,1.37,1.37,0,0,1-.81-1.25,2,2,0,0,1,.77-1.22l3.52-3.4a17.41,17.41,0,0,1-6.38-.64,2.59,2.59,0,0,1-1.27,2.34,7.2,7.2,0,0,1-2.65.87c-2.91.53-6.22.81-8.54-1a1.63,1.63,0,0,0-.71-.4,1.92,1.92,0,0,0-.86.24,3.48,3.48,0,0,1-3.71-1,7.17,7.17,0,0,1-1.63-3.69c-.26-1.44-.24-3.1.8-4.12a4.43,4.43,0,0,1,1.79-1,12.72,12.72,0,0,1,3.11-.57,3.16,3.16,0,0,0,.87-.13,2.67,2.67,0,0,0,.93-.64c2.11-1.93,4.33-4.06,7.15-4.51a2.29,2.29,0,0,0,1.27-.42,2,2,0,0,0,.44-.75l1.3-3.21c.14-.37.34-.78.71-.89.71-.21,1.18.75,1.2,1.49s0,1.69.73,1.94,1.2-.29,1.63-.75c1.94-2.06,4-4.28,4.53-7.05l.78-4.2,5.52-9.58a58.28,58.28,0,0,1,18.26-9.33l5.3-5.45c6.39.27,12.81.25,19.18.15,6.6-.1,13.24-.29,19.69-1.68a43.53,43.53,0,0,0,10-3.39l10.34.69a233.67,233.67,0,0,1,31.73,1.75,1.43,1.43,0,0,0,1.12-.17,1.41,1.41,0,0,0,.27-1.24,154.57,154.57,0,0,0-4-22.9l-.72-8.62,4.58-17.92a121.69,121.69,0,0,0-1.74-37.26l.07-1.35c-2.48-1-3.67-4.07-3.2-6.72a12.23,12.23,0,0,1,4.21-6.67l.24-.74a17,17,0,0,1-7.61-15.77l-.35-.44c-4.9-6.67-9.82-13.38-15.73-19.16-3.31-3.25-6.91-6.18-10.5-9.1-11.38-9.27-22.76-18.55-34.64-27.16a154.58,154.58,0,0,0-23.2-14.44c-10.75-5.19-22.35-8.33-33.87-11.45l-17.78-4.8a11.21,11.21,0,0,1-4.75-2.13,6,6,0,0,1-1.55-6.23l2-3,5.34-4a42.76,42.76,0,0,1,16.3-10.64l7.37-4.82,6.15-2.28a50.74,50.74,0,0,0,9.19-7.49l4.72-4.79a14.53,14.53,0,0,0,8.13-1.62l.73-.06a84.81,84.81,0,0,0,8.17,11.64A167.47,167.47,0,0,0,1590,739.11l8,7.68.94,4.08c1.72,2.49,3.71,5.16,6.66,5.84a13.55,13.55,0,0,1,2.77.61c1.81.83,2.43,3,3.28,4.83,1.44,3.05,4,5.42,6.46,7.72l4.05,2.82,4.12,8.22c4.79,7.12,9.72,14.4,16.7,19.39,1.64,1.18,3.39,2.23,5,3.44,4.16,3.09,7.43,7.2,10.47,11.39,2.38-8,10.57-12.56,18-16.29l4.7-3.92,5.49-.09a92.7,92.7,0,0,0,13.31-1.17l2.49-1.87c1.88-1.57,2.21-4.52,4.19-6a14.54,14.54,0,0,1,2.28,2.95,5,5,0,0,0,1.18,1.59c1.14.86,2.76.39,4.1-.1l2.86-1.06,1.41-.35,5-3.45a10.42,10.42,0,0,1,4.36-2.11c.84-.12,1.71,0,2.55-.2,2.18-.47,3.53-2.58,4.78-4.43,2-2.95,4.65-5.92,8.19-6.28,3-.31,6.39,1.25,8.84-.5l6-2.21ZM773.28,86.11a33.21,33.21,0,0,0-4.46-8c-4.11-5.66-9.73-10.86-16.67-11.75l-.42-8c-.89-3.85-4.36-7-4.1-11,.19-2.81,2.35-5.19,4.89-6.4a21.34,21.34,0,0,1,8.24-1.56,121.16,121.16,0,0,1,67.5,17.33c4.89,3,10.63,6.41,15.94,4.29,3.28-1.31,5.4-4.44,7.57-7.23C862.58,39.87,879,31,896,26.44s34.9-5.17,52.56-5.11c9.31,0,19.63.64,26.22,7.22,4.91,4.9,6.66,12.4,5.57,19.24-1.19,7.38-7,15-14.48,14.27L957,64.92c-7.52,3.57-15.8,5.34-23.27,9s-14.46,9.93-15.64,18.17c-.37,2.55-.07,5.38,1.64,7.31,1.58,1.78,4,2.46,6.36,2.91,31,6,62.07-12.42,93.51-9.88,2.4.2,5.16.4,6.86-1.31,2.2-2.19,1.15-5.82.88-8.92-.8-9.1,6.61-16.93,14.56-21.42,15-8.49,33-9.65,50.28-9.78,12.85-.09,25.71.28,38.56.65s25.72.78,37.74,5C1177.69,60,1186,65.41,1194,71.07c13.23,9.36,26.39,20,33.25,34.72s5.57,34.37-7,44.59l-2.31,3.37a335.3,335.3,0,0,1,66.17,28.7c5.26-9,14.41-15.25,24.28-18.53s20.48-3.79,30.87-3.22a77.71,77.71,0,0,1,21.31,3.68c9.08,3.14,17.09,8.73,25,14.26,14.86,10.44,29.76,21,42.63,33.82s23.74,28.1,28.94,45.5l-1.14,7c.14,10.16-.53,21.18-7,29-8.11,9.73-23,11.14-35,7.11s-22-12.39-32.13-19.93A294.53,294.53,0,0,0,1354.06,263c-2.14-1.24-4.69-2.49-7-1.56,1.21,21.19,15.36,39.76,18,60.82,1,8.06.33,16.31,1.92,24.28s6.23,16.08,14,18.56c5.17,1.66,10.76.53,16.14-.24,25.78-3.68,52.1,1.3,76.9,9.27,6.74,2.16,13.49,4.58,19.43,8.44,6.13,4,11.21,9.41,16,14.93a295.34,295.34,0,0,1,31,42.89l.64,6.73c19.43-13.78,44.3-21.16,67.55-15.91,7.12,1.6,14.47,4.76,18.2,11,2.61,4.39,3.08,9.71,3,14.82,0,4-.42,8.19-2.34,11.74-3.09,5.7-9.45,8.66-15.29,11.49q-7.44,3.6-14.6,7.72a63.2,63.2,0,0,0-11.33,7.81,61.38,61.38,0,0,0-9.57,11.84c-9.25,14-16.78,29.65-18.13,46.37-.76,9.5.16,20.1-5.92,27.45-3.11,3.75-7.85,6.3-9.65,10.83a10.2,10.2,0,0,0,2.08,10.6l2.57,3.06c-2.79,5.16-5.26,10.56-8.88,15.16-1.81,2.28-3.89,4.35-5.51,6.77a6.59,6.59,0,0,1-.76,1,5.81,5.81,0,0,1-1.52.95,33.8,33.8,0,0,0-15.46,16l-4.47-.73-2.49-5.77c2.16-14-4.91-27.52-11.76-39.88-2-3.69-4.34-7.62-8.19-9.34-4.46-2-10.07-.54-14.18-3.18-3.5-2.25-4.73-6.66-6.65-10.35-3.83-7.37-11-12.38-16.2-18.83-5.36-6.62-8.64-14.67-11.45-22.71-1.37-3.93-2.67-8-2.28-12.16s2.88-8.35,6.88-9.49c5.5-1.59,10.69,2.92,14.93,6.77a116.52,116.52,0,0,0,9.62,7.83c2.74,2,6.45,3.91,9.31,2.09,2.11-1.34,2.68-4.11,3.16-6.56a98.2,98.2,0,0,1,23.49-46.86l-4.16-2.28c-9.77-3.11-15.67-12.7-22.92-20-5.47-5.47-12-9.79-18.67-13.68-15.59-9.08-33.63-16.23-51.35-12.86-5.32,1-11,3.45-13.13,8.42-1.18,2.76-1.09,5.87-1,8.86l1,26.21c.15,3.91.23,8.1-1.86,11.41-1.88,3-5.21,4.75-7.42,7.5-2.44,3-3.31,7-4.1,10.83a4.1,4.1,0,0,0,.08,2.81c.53,1,1.72,1.33,2.76,1.73,3.63,1.39,6.76,4.82,6.57,8.71-.21,4.42-4.29,7.5-7.92,10s-7.56,6-7.24,10.38c.17,2.42,1.63,4.52,2.63,6.73,4.79,10.59-.85,23.79,4.16,34.28l3.09,5.61c8.61,19.19,17.33,38.76,19.76,59.65a31.75,31.75,0,0,1,11.73-1.53c3.86.23,8.47,2,8.94,5.83s-3.51,6.61-6.42,9.24a22.55,22.55,0,0,0-6.08,9.09l4.48,1.12a48.89,48.89,0,0,1,31.32,10.81c2.07,1.68,4.08,3.66,4.77,6.23.93,3.47-.78,7.13-3.08,9.89-3.61,4.35-8.63,7.31-12.45,11.48a28.41,28.41,0,0,0-7.17,21.92l1.53,6.1c-2.26,2.91-5,5.73-8.52,6.73-1.9.54-4,.53-5.73,1.45s-3,2.72-4.48,4.14a14,14,0,0,1-16.38,1.9l-3.94.17c-2.29.82-4.89,1.63-7.07.54a9,9,0,0,1-3-3q-6.92-9.68-13.59-19.51c-.83-1.23-1.66-2.47-2.36-3.77a75.36,75.36,0,0,1-3.43-8.37,57.26,57.26,0,0,0-8.22-14.34l-4.11-6.51-.22-8.71a38.18,38.18,0,0,0-21.09-30.5c-2.49-1.19-5.11-2.11-7.52-3.45a49.81,49.81,0,0,1-6.91-4.92l-13.15-10.54-8-4.19c-2.1-3.86-5.84-6.49-9.45-9l-18-12.45c-5.22-3.6-11.54-7.37-17.49-5.2-2.35.86-4.28,2.56-6.29,4-7.44,5.56-16.43,8.57-25.24,11.49-5.52,1.83-11.13,3.68-17,3.86a55,55,0,0,1-11.28-1.16c-6.33-1.14-12.82-2.59-18-6.36s-8.85-10.43-7.22-16.65l1.72-6.2q8.32-7.56,16.7-15.07c2.36-2.11,4.77-4.29,6.26-7.09s1.91-6.39.22-9.07c-1.84-2.9-5.58-4-7.74-6.72a8.2,8.2,0,0,1-1.1-8.25c1.38-3.13,4.74-5.4,5-8.81s-2.93-6.32-5.92-8.27a98.28,98.28,0,0,0-15.47-8.21,7.6,7.6,0,0,0-4.62-.83c-2.06.49-3.32,2.49-4.71,4.09-3.35,3.84-8.85,6-13.75,4.56s-8.56-6.76-7.38-11.72c1.08-4.52,5.63-8.15,5-12.76-.33-2.62-2.28-4.71-4.29-6.42a86.62,86.62,0,0,0-13.51-8.9c-3.37-1.93-8-3.76-10.79-1.09-2.08,2-1.93,5.35-3.46,7.76-2,3.05-6.3,3.82-9.72,2.61s-6-3.93-8.35-6.72c-5.54-6.71-9.92-14.28-14.27-21.82l-3.42-7.61c-3.35-5.33-8.43-10.55-14.73-10.46-5.38.08-10,4.05-15.31,4.84a13.43,13.43,0,0,1-8.66-1.68c-2.44-1.44-4.49-3.92-4.51-6.75,0-5,6-9.45,3.77-13.91-1.44-2.95-5.57-3.32-8.73-2.42-5.1,1.47-9.79,5.16-15.07,4.6-4.42-.47-7.92-3.84-10.93-7.11q-6.26-6.8-11.87-14.13l-6.1-7.78c-.72-3.19-.09-6.51-.09-9.77s-.85-6.89-3.59-8.69a11.73,11.73,0,0,0-4.24-1.45,114.08,114.08,0,0,0-26.53-2,25.89,25.89,0,0,1-7.36-.32,14.83,14.83,0,0,1-6-3.26,21,21,0,0,1-6.7-19.64,7.41,7.41,0,0,0,.27-3.16c-.47-1.94-2.65-3-4.64-3.13s-4,.24-6-.11c-4.91-.9-7.79-6.32-8-11.3-.18-3.89.73-8.09-1.18-11.48a14.92,14.92,0,0,0-4.83-4.58A224.2,224.2,0,0,0,858,303.57l-6.16-4.45.95-4.65,0-7c0-5.7-.16-11.75-3.21-16.56a22.1,22.1,0,0,0-5.4-5.6,18.93,18.93,0,0,0-6.5-3.47c-4.7-1.24-9.64.39-14.24,2L814.21,267c-.29-6-4-11.58-9-14.92A29,29,0,0,0,788,247.77a48.55,48.55,0,0,0,4.27-5.43l.84-5.44c3-3.34,3.43-8.25,3.66-12.76.25-4.73.46-9.64-1.38-14l-1.49-3a71.76,71.76,0,0,1-6.9-8.46,16.26,16.26,0,0,0,12.22-12.19,10.38,10.38,0,0,1,1-3.36l6.55-1.5c20.54-1.66,40.67-6.48,60.71-11.28,2.3-.55,4.7-1.15,6.5-2.7,2.78-2.39,3.43-6.4,5.38-9.51,2.26-3.58,6.13-5.77,9.65-8.13s7-5.37,8-9.51a6.28,6.28,0,0,0-1.36-5.78,13.86,13.86,0,0,0-3.41-2c-3.57-1.9-6.12-5.29-9.5-7.52-5.63-3.72-12.82-3.79-19.56-3.74a26.48,26.48,0,0,0-8.88,1.08c-8.56,3.11-11.66,13.78-19,19.15-4.44,3.24-10.12,4.32-14.77,7.25a21.41,21.41,0,0,0-7.54,8.15c-1.49,2.83-2.78,6.4-5.89,7.18a5.88,5.88,0,0,1-5.72-2.23,13.1,13.1,0,0,1-2.44-5.92A35.72,35.72,0,0,1,804,130c2.25-3.44,5.25-7.24,4-11.16-.81-2.64-3.31-4.34-5.63-5.85q-11.74-7.67-22.83-16.27Zm242.11,923-38.18,3.43c-5.38.48-11,1-15.67,3.64-3.27,1.8-5.93,4.5-9,6.66-3.88,2.76-8.33,4.64-12.22,7.39-7.7,5.45-12.6,13.91-18.17,21.53a125,125,0,0,1-38.69,34.57l-4.86,4.88-1.73-8c-.7-9.62-1.38-19.45,1.06-28.79,1.39-5.34,3.77-10.36,6.14-15.35l11.61-24.47c2.59-5.46,5.18-10.92,7.84-16.35s5.63-11.27,10.47-15.13c5.13-4.08,11.79-5.59,18.21-7l11.95-2.6c5.6-1.21,11.9-2.94,14.54-8l4.85-5.06,7,.56a84.48,84.48,0,0,1,57.42,8.36l7.9,1.56c-.22,3.41-.43,6.82-.65,10.23a18.59,18.59,0,0,1-.53,3.94,24.59,24.59,0,0,1-1.43,3.49,43.93,43.93,0,0,0-3.94,19.1l-5.83,2.84ZM600.06,170.56c.12,2.89.18,5.94-1.19,8.49a51,51,0,0,1-3.32,4.46,12.57,12.57,0,0,0-.82,12.53c-3.73,3.22-5,8.55-4.56,13.45s2.5,9.49,4.49,14l-.3,6.42-6.61,1.49c-6.4.57-13.12,1.1-19-1.51-2.72-1.21-5.11-3-7.82-4.26-5.31-2.4-11.37-2.33-17.19-2.07s-11.82.64-17.72,1.17c-3,.26-6.09.59-8.75,2-3.25,1.76-5.42,4.94-7.89,7.69-10.48,11.65-28.36,16-43,10.35a25.36,25.36,0,0,0-5.88-1.89,19,19,0,0,0-7.4,1.05L422,252.63c-4,1.12-8.61,2.76-10,6.71-1.23,3.63.9,7.77-.37,11.38-.81,2.33-2.87,4-4.94,5.3-13.88,8.87-31.49,8.86-47.94,7.88l-5.24,2.45a74.26,74.26,0,0,1-24.78,22.28c-5.26,2.9-11.3,5.58-13.83,11-1.28,2.75-1.46,5.88-2.35,8.78-2.36,7.67-9.35,13-16.51,16.64s-14.95,6.21-21.36,11c-6.77,5.11-11.51,12.38-16.11,19.51-5.9,9.14-12,18.68-13.35,29.48-1,7.38.33,15.14-2.25,22.12-4.14,11.19-16.66,16.82-23.48,26.61-9.45,13.56-6.63,33-16.18,46.48l1.66,6c-.31,8.06-.68,16.38-4.16,23.66-2.46,5.16-6.37,9.53-8.83,14.69-3.46,7.29-3.8,15.59-5.2,23.54a110.46,110.46,0,0,0-1.87,11.54,75.54,75.54,0,0,0,.19,9.15c.57,10,.69,20.07-1,29.94s-5.22,19.56-11.39,27.43L174.3,655l-.43,9.54c-.27,5.88-.4,12.27,3,17,1.22,1.69,2.83,3.07,4,4.82,2.46,3.78,2.37,8.61,2.18,13.11l-.91,22.7c-.18,4.33-.49,9-3.3,12.3-1.36,1.59-3.19,2.71-4.7,4.16-3.09,3-4.65,7.19-5.58,11.38-2.11,9.58-1.37,19.55,0,29.26l2,7.12c-.69,5.91-.93,13,3.79,16.6.91.69,2,1.21,2.8,2a9.63,9.63,0,0,1,2.35,3.76c2.83,7.16,2,15.16,1.16,22.81-.67,6-1.55,12.51-5.74,16.89-2.36,2.47-5.64,4.1-7.38,7-1.5,2.53-1.61,5.62-1.66,8.56q-.25,16.5.36,33l3.53,8.58c-2.09,1.89-1.7,5.37-.22,7.77s3.79,4.15,5.49,6.39c3.84,5.06,4.17,11.9,4.05,18.25q-.18,8.87-1.12,17.7c-.37,3.44-.93,7.11-3.26,9.67-1.86,2.05-4.6,3.09-6.53,5.07-3.14,3.21-3.53,8.12-3.7,12.61q-.9,23.94,0,47.91c4.17,0,9.28.61,10.9,4.46a10.66,10.66,0,0,1,.6,3.78l1.4,37.59a5.45,5.45,0,0,1-3.69,6.38l-6.32,3.42a5.91,5.91,0,0,0-3.9,6.64l-.29,24.25,2.46,7.52c9.36,9.85,11.55,24.71,9.8,38.19-.59,4.51-1.59,9.06-3.91,13-1.85,3.14-4.48,5.76-6.43,8.84-4.76,7.56-4.66,18.26,1.25,25,2.4,2.72,5.54,4.66,8.55,6.69,11.88,8,22.54,17.78,35.13,24.57s28.1,10.25,41.18,4.47c5.29-2.34,9.85-6,14.34-9.68l46.67-37.92c1.58-1.3,3.33-2.93,3.16-5a5.72,5.72,0,0,0-2.3-3.6c-6.4-5.62-15.05-8.17-21.44-13.8-4.46-3.94-7.56-9.16-10.42-14.37-10.44-19.06-18.69-39.69-20.73-61.32s2.63-44.42,15.86-61.66l6.57-7a35.89,35.89,0,0,1,30.88-9.19c3.79.71,7.58,2.12,10.31,4.85,5.8,5.8,5,15.17,5.23,23.38.32,12.33,3.8,24.34,7.38,36.15,3.25,10.68,6.75,21.62,13.81,30.28a63.87,63.87,0,0,0,10.24,9.75c4.93,3.87,10.36,7.42,16.53,8.56s13.2-.62,16.9-5.68l8.13-6.59c6.28,3.21,10.27,9.8,12,16.63s1.5,14,1.25,21l-3.09,5.33-7.33,6.06a73.44,73.44,0,0,0-28.83,26.9c-3.16,5.21-5.67,10.81-9.08,15.85-2.58,3.82-5.66,7.3-7.87,11.35-4.69,8.62-4.95,18.89-5.09,28.71-.09,5.9-.16,11.89,1.26,17.62a49.63,49.63,0,0,0,6.5,14.27,45.47,45.47,0,0,0,10,11.66c8.86,7,21.28,8.5,32.1,5.37s20.09-10.52,26.94-19.47l9-6.29c1.93,4.2,5.62,7.46,7.18,11.81a29.15,29.15,0,0,1,1.2,5.8c1.07,7.42,2.66,14.76,4.25,22.08l-.56,5.86a95.08,95.08,0,0,0,1.58,16.32l-6.4,2.18c-4.94,10.88-17.2,16.26-28.74,19.38-10,2.72-20.5,4.46-30.83,3.27-11.65-1.35-22.53-6.36-33.13-11.37a128.22,128.22,0,0,1-14.17-7.45c-10.25-6.53-18.49-15.76-25.84-25.43-7-9.25-13.62-19.69-14-31.31-.1-2.93.19-5.92-.53-8.77s-2.81-5.62-5.72-6c-3.58-.47-6.54,2.71-8.45,5.79-4.55,7.35-7.06,15.78-11,23.46-9.3,17.91-26.79,32.19-29.65,52.17L241,1364.1c-1.05,7.05-1.79,14.16-2.22,21.28l.92,4.13c-1.77,2.76,3.22,6.43,1.49,9.21a3.83,3.83,0,0,1-2.9,1.48c-1.22.16-2.75.31-3.17,1.47s.64,2.25,1.77,2.57a22.28,22.28,0,0,0,3.48.27,6.21,6.21,0,0,1,5.19,4.73,8.18,8.18,0,0,1-1.74,6.42,23.78,23.78,0,0,1-5,4.61l-7,5.25c.72,1.85,2,4.06,4,3.83a4.52,4.52,0,0,0,1.94-.89l5.39-3.6c1.81-1.2,3.78-2.46,5.94-2.35a2.87,2.87,0,0,1,2.23,1,3.32,3.32,0,0,1,.51,1.46,10.86,10.86,0,0,1-3.22,9.4,22.62,22.62,0,0,1,5.87-3,7.69,7.69,0,0,1,6.38.72,4.69,4.69,0,0,1,1.73,5.79l2.8,3.09a9.14,9.14,0,0,1,7.2.48,30.72,30.72,0,0,1,6.11,4.17c3.08,2.45,6.34,4.85,10.14,5.9,2.21.62,4.58.78,6.62,1.83a10.41,10.41,0,0,1,5,6.94,20.2,20.2,0,0,1-.22,8.75c-1.2,5.69-4.34,11.7-9.94,13.28-3.45,1-7.22.06-10.68,1-3.81,1.07-6.69,4.26-10.42,5.59-3,1.06-6.23.86-9.38.64-7.62-.52-15.31-1.06-22.68-3.06-12.51-3.4-23.62-10.94-32.67-20.22l-4.35-4.49a110.74,110.74,0,0,1-8-13.6,59.63,59.63,0,0,1-4.76-10.76,20.42,20.42,0,0,1-.35-11.61l2.59-7.33a9.69,9.69,0,0,0-4.5-.45c1-6,.43-12.56,4-17.4-3.71.77-7.28-1.71-10-4.34a1.32,1.32,0,0,1-.52-.9c0-.61.79-.84,1.37-1,4.1-1.33,4.47-7.62,8.34-9.51q-3.56-1-7-2.35a3,3,0,0,1-1.38-.83,2.36,2.36,0,0,1,.45-3,24.43,24.43,0,0,1,2.63-2c2.05-1.71,2.8-4.5,4.39-6.64a20,20,0,0,1,3.84-3.62l2.93-2.31,2.21-3.7a27.79,27.79,0,0,0,7.62-13.84c.5-2.29.56-5-1.2-6.58a6.38,6.38,0,0,0-4.8-1.11c-4.91.4-9.57,2.59-14.5,2.72a28.4,28.4,0,0,1-5.88-.59c-2.41-.44-4.8-1-7.16-1.64a30.65,30.65,0,0,1-3.76,13.91l-.38,4.5c-2.28,6.28-8.62,10-14.5,13.13l4.55,46.27,4,2.92c3.51,5.55,12.81,5,16,10.78,1.1,2,1.22,4.32,1.29,6.58q.2,7.26-.07,14.53a20.43,20.43,0,0,1-1.1,6.92c-1,2.49-2.89,4.54-3.82,7.06a17.75,17.75,0,0,0-.7,7.08,68.13,68.13,0,0,0,2.89,16.14l2.83,11.82a8.69,8.69,0,0,0,6.86,10.42c1.75.24,3.64,0,5.17.84s2.32,2.91,2.78,4.74c4.56,18.08-.79,37.05-.63,55.69.08,9.11,1.48,18.14,2.87,27.14.44,2.81,1,5.82,2.93,7.87s4.87,2.7,7.28,4.14c3.87,2.31,6.21,6.49,7.86,10.68,4.29,10.86,4.82,24-1.9,33.56-1.3,1.86-2.88,3.6-3.55,5.77a15.19,15.19,0,0,0-.18,6.16q1.43,12.57,3.77,25l3.69,5.66a23.06,23.06,0,0,1,14.58,15.09c2.26,7.67.33,15.9-2.06,23.54s-5.27,15.35-4.9,23.34,5,16.45,12.79,18.33c1.92.46,3.94.5,5.82,1.12,5.7,1.88,8.47,8.35,9.41,14.28a47.74,47.74,0,0,1-.44,17.39c-1.45,6.92-4.46,13.78-3.41,20.77s6.27,13.38,6,20.56l6.78,2.34c9.1.3,15.44,9.8,16.56,18.84s-1.3,18.13-1.47,27.24,2.81,19.39,11,23.42c2.07,1,4.36,1.57,6.36,2.71,4.13,2.33,6.59,6.91,7.48,11.56s.42,9.45,0,14.16l.3,10.66a12.28,12.28,0,0,0,2.45,11.07c2.35,2.73,5.78,4.28,8.4,6.75,5,4.72,6.38,12,7.48,18.84l2,11.38a61.82,61.82,0,0,0,2,28.75,78.69,78.69,0,0,1,2.8,9.45c.51,2.81.51,5.71,1.25,8.47a32.33,32.33,0,0,0,4.1,8.39c3.05,5,6.29,10.15,11.29,13.17L346,2086c4.72,11.17,13,20.14,22.6,27.8l5,11.7a191.42,191.42,0,0,0,7.92,44.21,11.78,11.78,0,0,0,1.62,3.7,15.22,15.22,0,0,0,4.22,3.3c5.89,3.81,10.66,10.36,10,17.34-.42,4.25-2.78,8.35-2.07,12.56l.48,5.18c-2.14,3.13-.49,7.5,2,10.34s5.83,5,7.78,8.23c3.91,6.55.93,14.85-1.67,22s-4.34,16.24,1.1,21.59c3.84,3.77,10,4.2,14.07,7.72,4.66,4,5.39,11.06,4.18,17.09s-4,11.67-5.15,17.71c-2.15,11.15,1.26,23.21-3,33.75l-.74,4.05c-9.87,13.94-11.19,32.23-9.62,49.24.14,1.57.18,3.44-1.1,4.36a3.91,3.91,0,0,1-2.36.55c-8,0-15.15-5.9-18.8-13.05s-4.45-15.39-4.82-23.41-.4-16.17-2.7-23.86c-1.13-3.79-2.81-7.43-3.5-11.33s-.2-8.27,2.48-11.17c1.16-1.25,2.68-2.19,3.5-3.68,1.35-2.47.32-5.55-1-8.05-2-3.84-4.53-7.4-6.11-11.43s-2.06-8.79.11-12.53c1.07-1.84,2.73-3.37,3.32-5.41a10.17,10.17,0,0,0-.3-5.24,43.74,43.74,0,0,0-6-13.35l-.69-6c-4.12-4.33-5.13-10.73-5.24-16.71s.46-12.1-1.27-17.83c-2.69-8.94-10.66-15.78-12.38-25-.76-4.08-.21-8.27,0-12.41.75-13.4-2.2-27.42-10.47-38-3.31-4.23-7.45-7.91-9.81-12.73-2.68-5.49-2.78-11.82-3.91-17.82a51.28,51.28,0,0,0-10.78-23l-2.76-6.54a37.34,37.34,0,0,1-14.49-25.61c-.55-5.25,0-10.56-.35-15.82a43.19,43.19,0,0,0-13.75-28.33c-4-3.65-8.85-6.79-10.93-11.78-2.2-5.28-.73-11.31-1.25-17-.83-9.07-6.63-16.81-12.2-24l-2.19-6.48c-10.89-16.38-11.41-37.72-20.8-55-2.41-4.43-5.77-8.84-10.63-10.18-3.4-.94-7.18-.27-10.41-1.7-3.71-1.65-5.83-5.92-5.65-10a16.53,16.53,0,0,1,5.24-10.7c1.56-1.55,3.43-3,4-5.16a9.57,9.57,0,0,0-.15-4q-2.52-13.54-6.13-26.85l-.74-7c-.83-3-4.05-4.47-6.64-6.16a23.2,23.2,0,0,1-9.84-23.35c.5-2.54,1.44-5,2-7.52,1.65-7.8-.54-15.84-2.7-23.51-1.08-3.81-2.22-7.74-4.69-10.84-3-3.79-7.69-5.91-11.06-9.4-5.28-5.47-6.7-13.5-7.87-21a19.59,19.59,0,0,1-.28-6.78c.5-2.6,2-4.88,3.08-7.3,3.37-7.58,2.43-16.3,1.27-24.52q-1.46-10.32-3.22-20.6l-3.93-5.27a26,26,0,0,1-6-38.84c1.27-1.48,2.74-2.89,3.34-4.74a11.83,11.83,0,0,0,0-5.36l-4.69-31c-.67-4.47-1.51-9.27-4.75-12.42-2-2-4.7-3-7-4.6-5.7-3.89-8.73-10.61-10.78-17.2a97.42,97.42,0,0,1-3.74-17.47c-.54-4.46-.67-9.35,1.92-13,1.37-1.94,3.41-3.39,4.42-5.54a13.13,13.13,0,0,0,.84-5.72,151,151,0,0,0-2.12-23.73v-5.35a27,27,0,0,0-3.21-17.1c-1.57-2.77-3.63-5.24-5.21-8a44.93,44.93,0,0,1-3.32-7.63c-1.53-4.3-2.86-8.8-2.49-13.35s2.8-9.18,7-11c1.42-.62,3.06-.94,4.14-2.06l5.33-5.57q-2.53-22.55-3.89-45.21l-.44-.45a17.41,17.41,0,0,1-8.07-5.64c-1.42-1.8-2.58-4-4.63-5-1.59-.81-3.45-.79-5.21-1.08-4.47-.74-8.32-3.5-11.76-6.44a16.79,16.79,0,0,1-3.55-3.79c-2.25-3.61-1.74-8.42.23-12.18s5.22-6.69,8.46-9.44,6.62-5.46,9-9a21.49,21.49,0,0,0,3.65-13.31l-.13-5.83A23.23,23.23,0,0,0,121,1278.6c-2.12-3.58-5.16-6.52-7.77-9.75a50,50,0,0,1-6.35-10.16,16.54,16.54,0,0,1-1.82-6.41c-.09-4,2.2-7.55,3-11.42a6.83,6.83,0,0,0,.06-3.08,8.64,8.64,0,0,0-1.32-2.58c-3-4.49-6.65-9.32-6-14.71.19-1.6.74-3.13,1-4.72,1-5.54-1.53-11-3.19-16.36s-2.26-11.9,1.63-16a5.9,5.9,0,0,1,2.38-1.6c3-1,6.09,1.42,9.27,1.53a7,7,0,0,0,6.55-4.48,7.78,7.78,0,0,0-1.68-7.87l-2.4-4a128,128,0,0,1-1.21-29.14c.18-2.37.44-4.82,1.68-6.85,1.33-2.19,3.63-3.63,5.07-5.74,1.86-2.73,2.07-6.22,2.22-9.52l1.68-37.09a8.93,8.93,0,0,0-.48-4.18,13.14,13.14,0,0,0-2.83-3.28c-4.52-4.64-5.3-11.69-5.26-18.17a107.83,107.83,0,0,1,2-20.19,7.8,7.8,0,0,1,1.85-4.31c2.23-2.13,6.13-1.18,8.58-3,2.12-1.61,2.37-4.64,2.42-7.29q.41-20.82-.66-41.63l-1.82-6.7a59.9,59.9,0,0,1-15.77-39.72c0-4.43.45-9,2.57-12.88s6.16-7,10.58-6.92c1.69,0,3.73.32,4.72-1a4.21,4.21,0,0,0,.57-2.33c.65-14.52,1.14-29.82-5.57-42.71-2.51-4.81-5.94-9.11-8.19-14-4.64-10.23-3.72-22-2.7-33.19.4-4.49.82-9.05,2.38-13.28,1.43-3.91,3.78-7.4,5.76-11.06a64.21,64.21,0,0,0,4.06-51c-2.45-7-6.16-13.66-7.51-21-4.27-23.07,15.54-45.23,12.37-68.48l-.73-10.81c-3.87-17.35-7.36-37,2.56-51.73,1.77-2.63,3.93-5,5.34-7.85,1.62-3.24,2.19-6.88,2.73-10.46a164.89,164.89,0,0,0,2.28-20.77c.44-18.38-5.25-37.14-.46-54.89,1.38-5.11,3.78-10.21,8-13.36,2-1.47,4.28-2.46,6.17-4,2.89-2.38,4.59-5.87,6.06-9.31a130.64,130.64,0,0,0,10-40c.59-6.73.69-13.7,3.49-19.85,4.17-9.21,13.47-14.81,22.24-19.85l5.23-6.37,34.84-46a80.32,80.32,0,0,0,6.55-9.55,106,106,0,0,0,5.11-11.72c4.45-11.05,11.13-22.58,22.44-26.31,3.9-1.29,8.06-1.53,12-2.59,6.35-1.71,11.94-5.45,17.37-9.15q11.66-7.94,23.21-16c6-4.19,12.22-8.68,15.52-15.21,1.67-3.3,2.51-7,4.19-10.27,4-7.81,12.14-12.54,20.23-15.93,4.42-1.85,9.64-3.4,13.82-1.05,2.26,1.27,3.86,3.53,6.17,4.72,3.32,1.72,7.34.88,11-.09a242.19,242.19,0,0,0,43.84-16.39l8.31-3.49c5.87-.63,11.12-3.89,15.9-7.38s9.42-7.32,14.94-9.45,12.26-2.2,16.86,1.52c1.66,1.34,3,3.16,5.08,3.83a10.34,10.34,0,0,0,4.79,0L560.21,184a8.58,8.58,0,0,0,3.59-1.12c1.87-1.28,2.42-3.73,3.25-5.84,3.82-9.64,15-13.7,24.93-16.66Z"></path>
    <path data-name="4" data-official="Sagus Rumphii" data-plain="Sago Palm" data-loc="E. Indies" d="M196.31,1360.49l-2.21,3.7-2.93,2.31a20,20,0,0,0-3.84,3.62c-1.59,2.14-2.34,4.93-4.39,6.64a24.43,24.43,0,0,0-2.63,2,2.36,2.36,0,0,0-.45,3,3,3,0,0,0,1.38.83q3.48,1.32,7,2.35c-3.87,1.89-4.24,8.18-8.34,9.51-.58.18-1.34.41-1.37,1a1.32,1.32,0,0,0,.52.9c2.72,2.63,6.29,5.11,10,4.34-3.59,4.84-3,11.45-4,17.4a9.69,9.69,0,0,1,4.5.45l-2.59,7.33L176.35,1431c-3.19-5.73-12.49-5.23-16-10.78l-4-2.92L151.75,1371c5.88-3.16,12.22-6.85,14.5-13.13ZM698,1646l-2-7.06a190.28,190.28,0,0,0-57.61-46.89,16.27,16.27,0,0,0-4.1-1.69c-2.42-.51-4.93,0-7.34.6l-2.4,8.67c-1.06,11.18-2.07,22.81,1.8,33.35,1.47,4,3.6,7.73,5.21,11.67,3.46,8.46,4.44,17.72,7.3,26.39,2,6.15,5,12.1,5.56,18.55s-1.38,13,.8,19c1.26,3.48,3.8,6.35,6.5,8.9,4.09,3.86,8.94,7.29,14.52,8,7.07.92,14.1-2.75,19.11-7.84,7.53-7.66,11.34-18.37,12.57-29s.09-21.47-1-32.15ZM514.75,1807.74a150.88,150.88,0,0,0,49-91.56c2.51-18.26,1.62-36.8.73-55.22l-1.76-36.14c-.56-11.53-1.12-23.08-3-34.47a151.33,151.33,0,0,0-34.36-73.56l43.4,25.61,7.24-4.56-.27-7.52c-2.48-7-6.39-13.51-10.41-19.82A485,485,0,0,0,531,1463.18c-3.88-4.71-7.86-9.36-11.3-14.4-2.8-4.12-5.23-8.5-8.2-12.5-4.87-6.54-11.07-11.94-17.22-17.29l-4.08-5.35c-4-5.66-8-11.38-11.82-17.22h-8.13a181.25,181.25,0,0,1-29.31-5.47c-9.7-2.65-19.17-6.11-28.92-8.59-26.78-6.8-54.91-6-82.4-3.19s-54.78,7.71-82.39,9l-7.48,1.38c-1.77,2.76,3.22,6.43,1.49,9.21a3.83,3.83,0,0,1-2.9,1.48c-1.22.16-2.75.31-3.17,1.47s.64,2.25,1.77,2.57a22.28,22.28,0,0,0,3.48.27,6.21,6.21,0,0,1,5.19,4.73,8.18,8.18,0,0,1-1.74,6.42,23.78,23.78,0,0,1-5,4.61l-7,5.25c.72,1.85,2,4.06,4,3.83a4.52,4.52,0,0,0,1.94-.89l5.39-3.6c1.81-1.2,3.78-2.46,5.94-2.35a2.87,2.87,0,0,1,2.23,1,3.32,3.32,0,0,1,.51,1.46,10.86,10.86,0,0,1-3.22,9.4,22.62,22.62,0,0,1,5.87-3,7.69,7.69,0,0,1,6.38.72,4.69,4.69,0,0,1,1.73,5.79l2.8,3.09a9.14,9.14,0,0,1,7.2.48,30.72,30.72,0,0,1,6.11,4.17c3.08,2.45,6.34,4.85,10.14,5.9,2.21.62,4.58.78,6.62,1.83a10.41,10.41,0,0,1,5,6.94,20.2,20.2,0,0,1-.22,8.75c-1.2,5.69-4.34,11.7-9.94,13.28-3.45,1-7.22.06-10.68,1-3.81,1.07-6.69,4.26-10.42,5.59-3,1.06-6.23.86-9.38.64l-3.45,10.49c-5.15,15-10.38,30.12-18.92,43.45-4.42,6.91-9.78,13.43-12.21,21.27-1.91,6.13-1.9,12.67-1.86,19.09l.14,28.45c.12,24.76.27,49.77,5.94,73.87,2,8.61,4.75,17.07,6.2,25.8,1.15,6.94,1.49,14,2.57,20.94a100.16,100.16,0,0,0,23.5,50.33l5,7.22c8.3,17.3,23.77,30.34,40.79,39.2s35.71,14,54.21,19c5.67,1.55,11.67,3.32,15.52,7.76s4.8,10.85,7.74,16A23,23,0,0,0,403.69,1884h8.48a67.4,67.4,0,0,1,10.63-21.66c8.25-11.31,19.36-20.24,31.05-27.93,15.45-10.18,33.21-18.68,51.67-17.33ZM102.17,1360.79c-6.52,1.43-13.2,2.93-18.8,6.57s-10,9.93-9.38,16.58c.62,7.1,6.59,13.83,4.24,20.55s-12.14,9.07-14.08,16c-1,3.63.49,7.54,2.73,10.57,7.13,9.69,22.33,12.15,32.16,5.23,3-2.14,5.59-5,8.95-6.6a13.61,13.61,0,0,1,9.8-.67l12.29-7.21c1.42-.62,3.06-.94,4.14-2.06l5.33-5.57q-2.53-22.55-3.89-45.21l-.44-.45a17.41,17.41,0,0,1-8.07-5.64c-1.42-1.8-2.58-4-4.63-5-1.59-.81-3.45-.79-5.21-1.08Z"></path>
    <path data-name="4a" data-official="" data-plain="Flower, opened" data-loc="" d="M1281.43,2582.07a197.84,197.84,0,0,1-20.2-77.47c-.45-8.85.08-18.72,6.34-25,3.1-3.1,7.23-4.91,11.32-6.5a174.87,174.87,0,0,1,133.06,3.41c3.07,1.37,6.18,2.89,8.46,5.37,5.72,6.22,4.3,16.33.13,23.68-2,3.57-4.61,6.89-5.73,10.83-1.68,5.92.2,12.26-.43,18.38-.59,5.82-3.42,11.15-6.35,16.2a258.79,258.79,0,0,1-21.65,31.59c-3.88,4.85-8,9.74-9.86,15.69-3.81,12.48,3.39,27.26-3.24,38.5-4,6.77-11.92,10.08-19.5,12.19a120.15,120.15,0,0,1-31.72,4.41c-3.71,0-7.57-.18-10.87-1.88-4-2-6.64-6-8.48-10.13-2.47-5.47-3.77-12-1.12-17.37,1.16-2.34,3-4.42,3.4-7,.76-5.59-5.46-9.17-10.08-12.41a34.38,34.38,0,0,1-11.79-14.54Z"></path>
    <path data-name="5" data-official="Cocus nucifera" data-plain="Cocoa-nut Palm" data-loc="I. Isles" d="M1274.86,2388.53a25.17,25.17,0,0,1,16.68-16.7c3.42-1,7.13-1.32,10.16-3.19,6.49-4,7.13-13,7.06-20.64q-1.2-135,3.8-269.88l-1.39-7.67q1.13-26.76,1-53.56c-2.17,5.15-4.58,10.6-9.24,13.69s-10.88,3.2-16.6,3.12c-3.37,0-7-.16-9.72-2.09l-4.77-1.51c-8.28-5.71-12.59-15.65-14.89-25.44a94.47,94.47,0,0,1,9-66.33c-7.6,1-14.79,3.91-21.88,6.81-20.89,8.57-42.45,17.57-58,33.93-3.76,4-7.14,8.3-11.24,11.91a56.6,56.6,0,0,1-11.9,7.84c-8,4.08-18.61,6.52-25.49.68-5.78-4.92-6.35-13.6-5.51-21.14a90.22,90.22,0,0,1,20.23-47.45l5.4-5.89a67.83,67.83,0,0,1,7.28-35.91c-10.58-2.44-22,6.36-32,2-5.5-2.4-8.79-8.45-9.15-14.44s1.78-11.86,4.68-17.11c7.32-13.25,19.51-23.34,33-30.22s28.29-10.76,43.12-13.78c5-1,10.47-2.21,13.65-6.21l-.44-5.32c-1.39-7.43-8.07-12.91-15.22-15.39s-14.85-2.58-22.37-3.3a163.54,163.54,0,0,1-33.65-7.12c-8.93-2.83-19.17-8.19-19.63-17.55-.25-5.17,2.86-10.06,7-13.2s9.15-4.79,14.13-6.21c46.76-13.37,98.91-9.75,141.56,13.62a316.66,316.66,0,0,0-17.28-93.69c-2.29-6.61-4.83-13.32-4.84-20.31s3.13-14.49,9.44-17.5c6.87-3.26,15.06-.37,21.6,3.52a76.19,76.19,0,0,1,29.35,31.92c-3.79-14,2.85-28.85,12.26-39.84,5.56-6.5,12.36-12.27,20.52-14.83s17.85-1.38,24,4.51c5.31,5.06,7.35,12.65,8.15,19.94a80.93,80.93,0,0,1-6.37,41.27l-2.35,7.71a57.21,57.21,0,0,1,28.8-14.36c4-.71,8.27-1,12,.75,6.21,2.88,8.8,10.29,9.82,17,3.23,21.27-3.4,44.08-18.42,59.48,10.87-1.06,22-2.12,32.63.23a53.07,53.07,0,0,1,32,21.61,7.51,7.51,0,0,0,2.36,2.55,6.88,6.88,0,0,0,2.66.63,276.87,276.87,0,0,1,62.53,14.1l5.15,4.67a69,69,0,0,1,27.29,24.64c1.89,3,3.61,6.39,3.19,9.91-.48,4-3.72,7.23-7.42,8.79s-7.83,1.73-11.84,1.72c-23-.06-46.07-5.18-69-2.87-3.62.36-7.81,1.33-9.33,4.64-1.29,2.83.08,6.31,2.41,8.38s5.4,3,8.38,4q22.89,6.9,46.26,12.08c11.73,2.6,24,5.06,33.58,12.25,9.82,7.36,15.7,18.8,20.14,30.24l4.25,6.17c1.89,4.26,3.8,8.61,4.26,13.24s-.74,9.69-4.24,12.77a17,17,0,0,1-7.6,3.48,37.14,37.14,0,0,1-21.4-1.47c-7.48-2.84-14.35-8.18-22.36-8.18-1.67,0-3.58.39-4.41,1.84-1,1.68,0,3.76.92,5.47,5.65,10.61,8.65,24.48,1.43,34.1-7.77,10.36-23.72,10.5-35.6,5.32s-21.57-14.36-33.08-20.33a68.58,68.58,0,0,0-30.72-7.65,287,287,0,0,1,9.57,70.75c.08,7.92-.51,16.68-6.11,22.28-3.4,3.4-8.16,5.06-12.85,6.15-7,1.61-15,2-20.63-2.38-7.23-5.56-7.7-16-8.14-25.14a203.85,203.85,0,0,0-3.07-26.64c-1.61-8.84-4.21-18.22-11.22-23.82a6.33,6.33,0,0,0-2.74-1.45c-3.84-.71-6.05,4.24-6.45,8.13-2,19.85,5.39,39.37,7.19,59.24.63,6.94.15,14.93-5.21,19.39-3.83,3.2-9.24,3.7-14.22,3.29-7.81-.65-16-3.72-20.06-10.45l-4.83-2.25q-3.75,102.13-3.11,204.37l-.76,7.53,2.28,124.33c.17,9.45.6,19.65,6.44,27.08,4.47,5.68,11.51,8.82,18.59,10.29s14.36,1.47,21.56,2.11a124.51,124.51,0,0,1,33.56,7.72c3.85,1.48,7.72,3.2,10.67,6.08s4.82,7.17,3.87,11.18c-1.71,7.13-10.54,9.51-17.85,10.15-12.92,1.14-25.92,1-38.89.89l-81.63-.78c-19-.19-38.07-.39-56.59-4.41-4.51-1-9.1-2.24-12.76-5s-6.24-7.47-5.34-12c1.12-5.59,6.9-9,12.42-10.46s11.45-1.82,16.39-4.68c6.2-3.59,9.65-10.43,12.75-16.88Z"></path>
    <path data-name="6" data-official="Phytelephas macrocarpa" data-plain="Ivory-nut Palm" data-loc="Peru" d="M157.21,2412.76a352.38,352.38,0,0,1-80.6-100.2c-23.06-42.86-37.19-92.34-29.24-140.36s41.39-93.51,88.37-106.24c14.48-3.92,29.61-4.71,44.62-5.13,11.66-.32,23.46-.43,34.87,2,15.63,3.34,29.83,11.27,43.77,19.1,11.89,6.69,24.19,13.74,32,24.92,9.31,13.3,10.85,30.35,12.09,46.54,3.53,45.79,6.51,94.36-14.74,135.07-7.36,14.09-17.35,26.6-27,39.23-2.92,3.82-5.92,7.94-6.29,12.73-.46,5.82,3,11.1,6,16.13,4.07,7,7.42,14.62,7.49,22.67s-3.73,16.52-10.93,20.13c-13.06,6.57-29.83-5-43.07,1.24-5.16,2.42-8.78,7.14-12.73,11.25-4.82,5-10.61,9.43-17.39,11s-14.64-.14-19-5.59Z"></path>
    <path data-name="7" data-official="Fruit of Elais" data-plain="" data-loc="" d="M1441.43,2414.6c.63-12.54-14.06-23.13-25.76-18.55-4.86,1.9-9.6,5.9-14.63,4.48a12,12,0,0,1-5.77-4.38,30.85,30.85,0,0,1-3.92-31.36c1.91-4.21,4.81-8.05,5.77-12.57,1.25-5.92-1-11.94-3.2-17.58-9.6-24.83-18.29-50.35-20.53-76.87-1-12.11-.7-24.29-.36-36.44.4-14.46.83-29.17,5.45-42.88,4.26-12.68,11.89-23.91,19.43-34.95,14.73-21.58,30.13-43.8,52.45-57.37,8.21-5,17.22-8.72,24.8-14.61,4.84-3.76,9-8.33,13.86-12.08,11.27-8.71,25.56-12.45,39.59-15,13.76-2.48,28.24-3.94,41.49.54s24.88,16.34,25.05,30.32c0,4.91-1.26,9.83-.56,14.68.94,6.52,5.33,11.93,9.51,17,18.68,22.71,37,46.75,45.47,74.91,4.63,15.37,6.17,31.48,7.69,47.46s3,32.44-.65,48.13c-2.71,11.6-8.16,22.37-14.08,32.71-20,34.93-46.61,66.79-80.61,88.35s-75.89,32.14-115.36,24.17Z"></path>
    <path data-name="7a" data-official="" data-plain="Seed" data-loc="" d="M1493.22,2630.2c4-8.72,8-18.88,3.81-27.51-1.39-2.88-3.58-5.28-5.62-7.74a93.54,93.54,0,0,1-14.14-23.19c-3.11-7.37-5.21-15.13-7.3-22.85-6.41-23.68-12.86-48.39-8.11-72.46,1.05-5.31,2.68-10.6,5.73-15.07s7.56-8.05,12.08-11.23a74.47,74.47,0,0,1,17.47-9.62c7.24-2.6,15-3.41,22.7-3.51,12.2-.15,24.86,1.59,35.14,8.16,10.59,6.76,17.66,18.08,21.36,30.08s4.32,24.72,4.26,37.28c-.1,22.45-2.73,46.11-15.84,64.35-2.84,4-6.17,7.66-7.94,12.19-6.2,15.86,8.93,33.23,5.5,49.91-1.49,7.21-6.44,13.41-12.6,17.43s-13.46,6-20.76,6.94c-7.57.93-15.5.67-22.45-2.47s-12.72-9.59-13.5-17.17Z"></path>
    <path data-name="7b" data-official="" data-plain="Fruit without the bulb" data-loc="" d="M1628.38,2631.74c1.74-21,3.29-43.13-5.72-62.18-5.23-11-13.64-20.2-20.28-30.45-16.44-25.35-21.43-56.26-25-86.26-1.71-14.55-3.15-29.44.15-43.72,5.4-23.3,23.52-42.61,45.44-52.2s47.13-10.11,70.36-4.37c27.36,6.76,53.77,23.5,64.93,49.38,5.57,12.93,7,27.23,7.74,41.29a439.14,439.14,0,0,1-.92,58.49c-1.72,21-5.39,42.86-18.33,59.46-8.82,11.31-21.22,19.18-32.1,28.53s-20.87,21.44-21.88,35.76c-.48,6.87.81,14.83-4,19.73a18.4,18.4,0,0,1-6.31,3.75,94.86,94.86,0,0,1-31.2,6.93c-5,.24-10.11,0-14.65-2s-8.33-6.35-8.52-11.32Z"></path>
    <path data-name="8a" data-official="" data-plain="Section of Palm fruit*" data-loc="" d="M1062.74,2619.19c4.62-3.67,3.73-11.34-.06-15.85s-9.53-6.81-14.79-9.48c-23.32-11.83-40.65-33.68-50.25-58s-11.94-51-10.45-77.14c.49-8.66,1.42-17.41,4.44-25.54,2.91-7.8,7.67-14.8,13.1-21.1,22.64-26.24,57.07-40.57,91.61-43.34,33.84-2.72,69.09,5.36,96.29,25.66s45.4,53.42,44.38,87.36c-.42,13.82-3.87,27.38-8,40.56-4.37,13.75-9.68,27.46-18.51,38.86-11.63,15-28.7,25.09-46.6,31.5-6.13,2.19-12.54,4.07-17.68,8a26.34,26.34,0,0,0-9.79,23.74c.7,5.35,2.75,11.73-1.16,15.44-1.57,1.48-3.75,2.08-5.85,2.59a151.65,151.65,0,0,1-41,4.09c-5.8-.21-11.83-.83-16.79-3.84s-8.54-9-7-14.63Z"></path>
</svg>
