
<svg xmlns="http://www.w3.org/2000/svg" viewBox="0 0 1992 2796" id="illustration" preserveAspectRatio="xMidYMid meet">
    <title>Typhaceæ</title>
    <path data-name="1" data-official="Typha latifolia" data-plain="Great Bulrush, or Cat’s-tail" data-loc="Marshes and streams, England" d="M1657.59,655.46c-43.21-61.84-103.14-110.49-146.51-172.21-11.86-16.88-22.49-34.81-29.28-54.29-5.34-15.31-8.23-31.35-12.23-47.06a342.24,342.24,0,0,0-62.85-127.25l-3.25-11.6c-14.33-57-45.48-111.5-94.15-144.45C1259,64.52,1195.62,56.53,1134.85,55c-22.66-.57-45.94-.27-67.06,7.94-33.28,12.93-56.42,43.62-72.5,75.5s-27,66.37-45.57,96.83c-20.75,33.94-51.46,64-57.47,103.35l-1.69,10C864.37,417.66,838.07,487,803,552l-6,6a80.53,80.53,0,0,0-39.9-23.06c-4-.95-8.72-2.1-10.21-5.93a12.56,12.56,0,0,1-.51-4.7,134.66,134.66,0,0,0-8.53-49.06c-2.58-6.89-5.75-13.64-7-20.88s-.64-14.92,0-22.37c1.57-17.2,3.15-34.44,6.41-51.41,3-15.67,7.44-31,11.85-46.36q8.45-29.28,16.88-58.56l3.18-9.89C780.78,217,792.41,168,795.84,118.08c1.16-16.85,1.38-33.75,2.73-50.59,1.23-15.27,2.89-32.32-6.68-44.28-2.44-3.06-5.79-5.7-9.69-6-4.2-.36-8.19,2-11.15,5-9.16,9.3-10.59,23.46-12.26,36.41-11.74,91.44-59,174.33-81.67,263.7l-1,12.61a439.29,439.29,0,0,0-15,111c-.06,9.29.17,18.66-1.67,27.75-2.79,13.82-10.3,26.67-10.77,40.75-.32,9.77,2.32,21.06-4.37,28.18-3.16,3.37-7.76,4.9-12.06,6.61-37,14.71-63.06,53.45-62.76,93.27l-1.87,9.38a1331.5,1331.5,0,0,0-13.35,162.26l-1.76,12.79a157.14,157.14,0,0,0-22.77,42.82L529.5,879q-13,18.43-25.2,37.41L495,923.2q-29.76,48.33-54.61,99.48c-13.55,27.91-26.12,57-29.18,87.85l.13,8.29.57,16,3.78,6.6a377.35,377.35,0,0,0-13.65,48.83L396,1197c-5.86,11.18-11.17,22.78-13.87,35.11-2.17,9.86-2.62,20-3,30.09q-1.35,32.38-2.27,64.78l-1.22,5.66A112.65,112.65,0,0,0,378,1347.6l2.73,7.35q1.26,18.09,1.65,36.23l-2.36,6.66a119.63,119.63,0,0,0,.57,23.93l6.53,12.28q4.35,35.39,10.44,70.52L393,1513.9a226.65,226.65,0,0,0,.74,32.54c2.11,24.24,6.85,48.17,11.58,72l8.94,45.09c6.24,31.49,12.51,63.08,22.8,93.48l5.07,8.38c5.45,39.76,19.35,77.79,33.15,115.47l51.11,139.53c10.71,29.23,21.49,58.75,25.47,89.63l1.66,10.7q12,48.57,20.92,97.84l6.26,9.66q14.44,78.2,28.9,156.4c2.66,14.38,6.56,30.59,19.32,37.75,4.18,2.34,9.07,3.52,12.59,6.76,8.65,8,4.19,22.24,7,33.65a25.69,25.69,0,0,0,47.66,6c2.46-4.64,3.6-10.16,7.4-13.8,9.64-9.22,25.59,1,38.72-1.41,11.91-2.2,19.33-15,20-27.1s-3.56-23.83-6.74-35.53a203,203,0,0,1-2.18-97.09c2.51-11.21,5.58-24.29-1.76-33.12-2.92-3.51-7.08-5.71-10.43-8.79-10.44-9.56-11.42-25.4-11.68-39.55q-4-214.74-7.94-429.5l-.25-5.33q-.42-5.86-.37-11.76a5.44,5.44,0,0,1,.78-3.4,5,5,0,0,1,3.24-1.57c5.19-.92,10.6-.07,15.72-1.29,4-1,7.61-3.14,11.13-5.28L759,1750l2.28-1.42a4.15,4.15,0,0,0,.17-5.66c-.84-.89-2.22-1.91-1.62-3l5,2.55a20.06,20.06,0,0,1-3.71-6.24,10.81,10.81,0,0,0,5.6,1.88l-5.1-5.85c2.07-1.1,4.38,2.72,6.47,1.67a14.94,14.94,0,0,1-4.06-4.57l6.72,2.79c1.18.5,3,.68,3.29-.57a13,13,0,0,1-7.1-5.72l7.06,3c.48-.9-.33-2-1.23-2.45a8.43,8.43,0,0,1-2.65-1.46c-.68-.76-.45-2.34.57-2.36a2,2,0,0,1,.9.31l3.85,2.11c.58-1.1-.73-2.22-1.88-2.7s-2.57-1.24-2.38-2.47a28,28,0,0,1,7.74,2.06c-.12-1.58-1.78-2.54-3.28-3.07s-3.21-1-3.94-2.44c1-1.09,2.84-.66,4.2,0s2.91,1.42,4.28.8c-.37-1.33-2-1.79-3.3-2.15s-2.88-1.2-2.79-2.58a41.48,41.48,0,0,0,8.16,1.67c-.7-2.77-5.85-1.74-6.86-4.41,2.12-.27,4.19.66,6.31.94s4.75-.51,5.21-2.6l6.93-4.45c11.42-18.57,15.68-40.55,19.23-62.07,5.31-32.17,9.48-64.54,12.17-97,2-24.55,3.21-49.16,4.38-73.76l2.07-43.19c1.14-23.9,2.25-48.16-3.23-71.45l-6.82-21-3.11-11.54a2.81,2.81,0,0,0-.43-1c-1-1.17-3.41-.28-4.05-1.66a13.91,13.91,0,0,0,4.13-1.35l-2.87-1.11c-.52-.21-1.14-.57-1.08-1.12s1-.79,1.62-.78,1.56-.34,1.41-1a6.34,6.34,0,0,0-4.31-1.24c.7-1.35,2.57-1.4,4.09-1.41a1.41,1.41,0,0,0,1.08-.32c.48-.56-.19-1.46-.92-1.59s-1.49.13-2.23,0-1.45-1-1-1.56a1.51,1.51,0,0,1,1-.42l3.22-.36c.27-1-.92-1.75-1.93-2s-2.24-.36-2.68-1.29l3.48-.49c.69-.1,1.6-.65,1.22-1.22a1,1,0,0,0-.67-.36l-4.7-1.15,5.27-1.74c.38-.12.83-.34.84-.74s-.5-.66-.92-.77a42.94,42.94,0,0,0-5.4-1.06c1.78-1.88,5.53-.42,7.13-2.45a16.4,16.4,0,0,0-6.73-1.36c1.9-1.79,5.88-.36,7.07-2.69a20.14,20.14,0,0,0-7.45-1.22c1.66-2.22,5.68-.56,7.69-2.47-2.64-.44-5.3-.79-8-1,1.66-2.25,6,0,7.74-2.17-1.49-1.9-5,.34-6.87-1.13l7.2-1.76c-.48-1.3-2.22-1.51-3.62-1.44s-3.08.07-3.8-1.12a29.74,29.74,0,0,1,6.59-1.45,16.14,16.14,0,0,1-3.75-2.28,27.76,27.76,0,0,0,6.14-1,35,35,0,0,0-6-1.41,17.29,17.29,0,0,0,5.84-2.31l-8.18-2,6.6-2.18-5-1.46,4.15-.67a.88.88,0,0,0,.71-.37c.21-.47-.47-.83-1-.91l-6.42-1q3.78-.91,7.52-2l-4.74-1.55a36.18,36.18,0,0,0,7.9-1.79,1.92,1.92,0,0,0,1.17-.79,2,2,0,0,0,.08-1.14l-.45-3.52,2.65-3.88c4.2-12.87,5.1-26.56,6-40.08,1.92-30.19,3.83-60.71-1.29-90.53l-1.6-10.46a64.21,64.21,0,0,0-12.91-18.16c-.38-.37-.79-1-.45-1.38a1.1,1.1,0,0,1,.52-.28l4.68-1.53a30.87,30.87,0,0,1-5.23-1l6.67-1.94a15.06,15.06,0,0,0-5.64-2.21l6-1.69a24.27,24.27,0,0,0-5-1.24,10.52,10.52,0,0,1,5.29-2.38c-.74-2.41-5.8,0-6.5-2.46a22,22,0,0,0,5-.95c.8-.25,1.76-1.06,1.25-1.72a1.39,1.39,0,0,0-.94-.4l-4.81-.68c.68-2.29,5.17-.53,6.15-2.71l-5.88-1.16a16.94,16.94,0,0,0,6.61-2.33l-6.72-1.34,6.12-2.24-6.48-1.36c.56-1.1,2.1-1,3.33-1s2.86-.65,2.62-1.86a4.32,4.32,0,0,1-5.5-1.38,10.46,10.46,0,0,0,6-2.2,15.66,15.66,0,0,1-7.47-1.54l8.62-.89c-.67-1.1-2.25-1.06-3.53-1s-2.93-.13-3.29-1.37a10.78,10.78,0,0,0,6.63-1.68,27,27,0,0,1-6.87-.93c1.33-.55,2.84-.3,4.28-.37s3.09-.69,3.47-2.08a10.22,10.22,0,0,1-6.59-.89l5.86-1.08-4-.91c-.37-.09-.85-.31-.78-.69s.38-.42.66-.49l3.22-.86a5.28,5.28,0,0,1-4.85-1.72,18.21,18.21,0,0,1,8-1.08l3.34-3.49a68.5,68.5,0,0,0,2.64-13.46c.34-3.67.38-7.35.43-11,.24-20.45.47-41.07-3.4-61.16l-5.43-7.21-45-11.38c-6.94-1.76-13.91-3.52-20.52-6.28a147.37,147.37,0,0,1-14.62-7.41c-9-5-18-10-26.82-15.19C705.92,889,693.5,881,684.26,869.93c-3.11-3.74-5.83-7.8-8.94-11.54a70,70,0,0,0-15.92-14.07c13,2.23,23.22,11.75,33.51,19.95A215.4,215.4,0,0,0,843.64,910l-.07-9c1.65-69.1-4.27-138.12-10.18-207l-2.87-33.42,5.91-4.12,22.4-21.79c7.65-7.45,15.35-15,21.42-23.73,9.67-14,14.75-30.62,22.57-45.75,4.44-8.59,9.77-16.7,14.35-25.22,6.69-12.43,11.73-25.67,16.61-38.93q27.91-75.93,49-154.16l3.87-11.59q13.56-38.94,27.11-77.88c12.59-36.16,26.81-74.59,57.78-97.1,35.68-25.95,83.94-23.95,127.79-19.11,13.18,1.46,26.76,3.21,38.22,9.88,8.84,5.14,15.82,12.88,22.64,20.49l48.62,54.21c10.46,11.65,21,23.46,28.33,37.3,15.38,29.1,14.86,63.91,25.36,95.1,5.91,17.57,15.23,33.75,22.77,50.68,15.21,34.19,23.81,72.6,48.94,100.32l3.66,11.69c15.31,9.64,31.66,17.61,46.53,27.91,55.37,38.33,87,106.36,146.8,137.3,10.4,5.37,25.24,8.53,32.12-.94C1669.62,676.44,1663.77,664.31,1657.59,655.46ZM642.37,1477.81A596.16,596.16,0,0,0,584,1444.14c-13.49-6.8-28.21-13.24-43.18-11.21l.21,5.25q-.16,40.35-.34,80.7l.69,7a24.75,24.75,0,0,0,8.88,10.17c.31.21.66.63.38.89a.74.74,0,0,1-.29.12l-5.71,1.21c1.65,1.54,4.33.46,6.55.85a1,1,0,0,1,.61.29c.45.58-.54,1.2-1.28,1.28l-5.16.58c1,.81,2.38.71,3.64.69s2.75.23,3.33,1.35a48.72,48.72,0,0,1-8.58,1.13c1.5,1.74,4.25,1.1,6.53,1.32.33,0,.75.17.78.51a.63.63,0,0,1-.17.43c-1.24,1.56-4.17,0-5.58,1.43,1.26,1.34,3.39,1.05,5.22,1.26.39,0,.84.16,1,.54.24.71-.89,1-1.64.94a9,9,0,0,0-5.1,1.22c1.9,1.7,5.72-.23,7.1,1.91a19.77,19.77,0,0,1-6.32,1.19c2,1.1,4.51.8,6.81.46l.67.58-7.32,2.16a25.68,25.68,0,0,1,7.18,1.06l-7.29,1.65,7.3.84-6.4,2.22,7.08.6-7.08,1.9c2.73.3,5.38-.66,7.59,1a54.47,54.47,0,0,1-5.72,3c2.22,1.08,4.43.16,6.64,1.24l-6.19,1.92a22.5,22.5,0,0,0,6.67,1.88,72.83,72.83,0,0,1-9,2.07c2.5.43,5,.92,7.49,1.45-2.3,2.28-7.1.6-8.8,3.36l8.17,1.15-6.23,1c-.74.13-1.72.71-1.34,1.35a1.2,1.2,0,0,0,1,.42l8,.85c-2.38,1.42-5.33,1.4-8.1,1.33a12.29,12.29,0,0,0,8.23,2.77l-6.91.74a3.88,3.88,0,0,0-2,.58,1.35,1.35,0,0,0-.39,1.84,2,2,0,0,0,1.56.48l7.89.08-9,1.37c-.09,1.09,1.33,1.56,2.42,1.65l7.85.71-8.49,1.83,8.6,1.42c-3,.5-6.09.89-9.15,1.15L536.59,1608c-.24,29.25-.47,58.72,5,87.44s17.26,57,37.94,77.68c10.73,10.74,24.63,19.52,39.81,19.59q1.5,118.18,8.07,236.24l-7-13.87c-12.74-42.83-38.24-80.52-58.19-120.51-15.14-30.35-27.13-62.15-39.09-93.9-8.58-22.74-17.17-45.53-23.54-69-5.58-20.58-9.44-41.58-13.29-62.55l-14.1-76.8-18-46.59c-5.45-25.75-5.71-52.27-5.95-78.58l4.26-6a221.93,221.93,0,0,0-2-35.7L443.32,1412q-.31-15.07-.23-30.15a12,12,0,0,1,.44-3.79,25.68,25.68,0,0,1,2-3.68,11.32,11.32,0,0,0,.77-8.65l3.37-10.46q5.91-73.24,8.77-146.68l1.66-21.18a130.7,130.7,0,0,1,16.75-47.5l8-6.93c19-43.57,38.08-87.19,60.53-129.1q-3.17,60.9-1.72,121.93c.14,6,.56,12.56,4.73,16.85l2.21,4.56a12.6,12.6,0,0,0,12.34,9.81c-1.68,2.79-7,.7-8.69,3.47l9.55.92a45,45,0,0,1-9.4,2.88l10.59,1.36-11,1.69,9.16,1.52a68.47,68.47,0,0,1-7.42,2l8.16.65a10.45,10.45,0,0,1-8.09,2.8l8.41.9a12.42,12.42,0,0,1-8.71,2c.23,1.18,1.76,1.49,3,1.46s2.69,0,3.21,1.12c-3,.89-6,1.62-9.11,2.21l8.27.73c-1.15,2.42-5.4.2-7.39,2a34.35,34.35,0,0,0,5.89,1.49,8.44,8.44,0,0,1-5.35,1.2c-.21,1.12,1.3,1.75,2.45,1.71s2.56-.16,3.15.82l-6.4,1.46c1.35,2,4.18,2,6.56,1.87a11.56,11.56,0,0,1-6,1.91c.13,1.21,1.71,1.59,2.93,1.51s2.68-.25,3.41.73l-6.41,1.56a18.83,18.83,0,0,0,6.89.59c-.19,1.47-2.15,1.8-3.63,1.73s-3.42.17-3.71,1.62a20.69,20.69,0,0,1,7.44.27,36.88,36.88,0,0,1-6.71,1.47,16.69,16.69,0,0,1,7.76,1.4l-5.21.66c-.69.09-1.61.45-1.48,1.14l6.38.34a9.11,9.11,0,0,1-6.79,1.41l-4.44,1.43c-4.89,1.6-6.42,7.66-7,12.78-1.41,12.08-1.86,24.25-2.3,36.4q-.69,18.83-1.39,37.66c-1,28.07-2.06,56.27,1.21,84.17l6.43,31.57q25.56,14.15,50.78,28.89c20,11.7,40.23,24,55.5,41.45A59,59,0,0,1,642.37,1477.81Z"></path>
    <path data-name="1a" data-official="" data-plain="Pistil Floret" data-loc="" d="M218.38,2675c-2.15-12.65,9.63-24.85,6.74-37.35-1-4.33-3.66-8-5.65-12-4.35-8.71-5.45-18.83-4.1-28.47s5-18.84,9.77-27.34c1.67-3,3.52-6,3.78-9.46.25-3.24-1-6.39-2-9.49a69,69,0,0,1-2.58-11.54,14.08,14.08,0,0,1,.4-7.1,13.19,13.19,0,0,1,4.95-5.48,41.78,41.78,0,0,1,11.33-5.67c3.33-1.07,7-1.71,10.29-.41a14.16,14.16,0,0,1,5.51,4.42,29,29,0,0,1,6.41,16.27c.41,6.27-1.19,12.81,1,18.71a27.17,27.17,0,0,0,3.73,6.42c4.59,6.27,9.92,12,13.71,18.84a49.62,49.62,0,0,1,3.46,39.88c-1.72,5-4.29,10-3.5,15.18.55,3.59,2.65,6.72,4.21,10,3.08,6.52,3.94,14.53.4,20.81-4.27,7.59-13.53,10.69-22.11,12.18a115.78,115.78,0,0,1-39.65,0Z"></path>
    <path data-name="1b" data-official="" data-plain="Magnified" data-loc="" d="M359.49,2692.11a31,31,0,0,0-3.2-28.87c-5.93-8.53-15.69-13.38-24.06-19.54-18.57-13.67-31.43-37.92-24.63-59.95,3.12-10.13,10-19,11.79-29.42,1.64-9.71-1.39-19.51-3.47-29.15s-3-20.36,2.16-28.73c2.23-3.58,5.46-6.5,7.31-10.29,3.08-6.34,1.74-13.8,1.29-20.84s.64-15.2,6.55-19c1.9-1.23,4.14-1.88,5.94-3.23,3.7-2.76,4.86-7.91,4.35-12.49s-2.38-8.9-3.61-13.35a50,50,0,0,1,1.8-31.92c1.66-4.11,4.26-8.33,8.49-9.68,7.72-2.48,14.28,5.51,20.62,10.56,5.9,4.68,13.39,7.32,18.49,12.85,14,15.18,3.61,43.78,19.09,57.44a13.44,13.44,0,0,0,8.47,3.7c3,0,5.85-1.32,8.84-1.61,8.58-.84,15.57,7,18.8,15s4.4,16.93,9.35,24c2,2.81,4.49,5.22,6.29,8.14,4.55,7.34,4,16.57,4.51,25.19.82,13.62,4.69,26.86,6.67,40.36s1.92,28-4.59,40c-2.66,4.88-6.33,9.25-8.19,14.48-3.85,10.83.22,24.58-7.53,33.07-4.7,5.16-12.65,6.76-16.59,12.52-3.78,5.53-2.62,13.09-5.23,19.26-4.3,10.2-17,13.47-28.07,14.29a161.57,161.57,0,0,1-34.54-1.18Z"></path>
    <path data-name="1c" data-official="" data-plain="Unnamed*" data-loc="" d="M540.37,2695.2c5.45-11.14,11-23,10.13-35.33-.63-8.49-4.29-16.4-7.42-24.32-16.66-42-19.53-88.18-19.37-133.38,0-5.28.21-11,3.41-15.17,2.22-2.92,5.58-4.69,8.58-6.81a39.68,39.68,0,0,0,13.73-17.29c1.27-3.09,2.27-6.54,4.88-8.63a14.78,14.78,0,0,1,6.6-2.49c8.1-1.55,16.63-2.13,24.48.41s14.9,8.7,16.67,16.76-1.1,18.24,5.42,23.22c6.3,4.81,15.47-.11,23.22,1.56,6,1.3,10.54,6.61,12.58,12.42s2,12.11,2,18.26c-.17,11.28-.64,22.94-5.55,33.09-2.59,5.34-6.34,10.08-8.59,15.57-4.55,11.1-2.47,23.63-2.85,35.61A85,85,0,0,1,616.5,2649c-3.54,6-8,11.94-8.37,18.89-.32,5.4,1.86,10.66,2,16.07.26,9.67-6.24,18.63-14.61,23.5s-18.31,6.26-28,6.48c-8.8.19-18.54-.93-24.5-7.41Z"></path>
    <path data-name="1d" data-official="" data-plain="Unnamed*" data-loc="" d="M672.82,2693.44c5.77-7.42,11.78-15.43,12.45-24.8.62-8.67-3.44-16.87-6.21-25.11-5.1-15.2-5.89-31.46-6.34-47.49q-.71-24.86-.45-49.72c.07-7.09.21-14.24,1.81-21.14,2.47-10.68,8.34-20.27,14.81-29.12,4-5.45,8.56-10.94,14.88-13.28,6.81-2.52,14.64-.88,20.83,2.9s11,9.48,15.16,15.4a76.71,76.71,0,0,1,8.49,14.79c4.73,11.42,5.34,24.06,5.89,36.42l1.2,27.26c.48,11,.95,22.27-1.85,33-3.48,13.28-12,25.88-10.17,39.49,1.41,10.62,9,19.86,9.46,30.57.45,10.56-6.47,20.45-15.5,25.94s-19.86,7.22-30.43,7.64c-13.71.56-29.43-2-36.9-13.52Z"></path>
    <path data-name="2" data-official="Sparganium spimplex" data-plain="Upright Bur-reed" data-loc="Streams, England" d="M1903,1287.45a98,98,0,0,1,43.24,23.48,70,70,0,0,1,14.68,18.79,78,78,0,0,1,6.84,21.38c6.3,33.55-.35,68.87-15.75,99.33s-39.2,56.2-66.58,76.56c-29.92,22.25-65.54,39.77-84.46,71.9l-7.37,7c-37.07,43.89-57.38,101.93-54.22,159.29,2.64,47.91,21,95.06,15.06,142.68-1.4,11.34-4.31,22.8-10.85,32.17s-17.25,16.4-28.68,16.23-22.81-8.91-23.84-20.29l-.82-10.07c2.19-8,4.39-16.17,3.32-24.35s-6.27-16.39-14.27-18.4c-5.72-1.44-11.67.45-17.34,2.06-14.65,4.18-30.19,6.61-45.1,3.51-18.32-3.81-34.12-15.72-46.27-30s-21.13-30.82-30.47-47a1051.32,1051.32,0,0,0-108.38-154.34c-22.59-26.7-47.14-52.76-78-69.17l-5.71-3.1c-32.23,110.85-101,210.37-118.71,324.44-4,26.07-5.34,52.51-5,78.89l-2.79,8.54-3.63,31.81c-1,8.73-2,17.49-4.13,26-2.92,11.67-7.91,22.7-12.69,33.75-9.1,21.05-17.56,42.67-20.72,65.39-1.13,8.07-1.58,16.22-2,24.36l-4.91,89.41-5,17.08c16.38,4.91,33.91,2.45,51,2.73s35.89,4.39,45.94,18.22c1.67,2.31,3.14,4.9,5.54,6.42,2.24,1.42,5,1.71,7.64,1.92,17.71,1.43,35.59,1.28,53.1,4.3s35,9.56,47.46,22.28c4.18,4.29,7.74,9.23,12.48,12.89,5.09,3.92,11.3,6.17,16.42,10.05s9.2,10.41,7.26,16.53c-2.78,8.82-14.59,9.91-23.83,9.59a496.34,496.34,0,0,0-81.56,3.85c-7.32,1-15.17,2.33-20.37,7.57-3.27,3.3-5.22,7.89-9,10.52-4.19,2.89-9.67,2.8-14.64,4s-10.3,4.93-9.72,10c.22,1.87,1.24,3.58,1.41,5.45.57,6.07-7.06,9.1-13.07,10.15l-27.51,4.84-9.32,1.63c-9.26,1.63-18.82,3.25-28,1.2-6-1.33-12.81-4-17.65-.28-1.66,1.28-2.76,3.16-4.15,4.74-7.74,8.8-21.73,6.64-33.11,3.83s-25.49-4.7-32.93,4.36c-2.32,2.83-3.63,6.44-6.22,9-3.08,3.09-7.57,4.33-11.92,4.69a38.54,38.54,0,0,1-28.12-9.17c-4.2-3.64-8.4-8.53-13.94-8.21-6.7.39-10.25,8-15.69,11.86-7.6,5.46-18.9,3-25.55-3.62s-9.4-16.15-10.4-25.45c-.22-2.08-.4-4.28-1.61-6-2.13-3-6.67-3.3-10.11-1.93s-6.23,4-9.41,5.87c-10.05,6-23.21,4.5-33.62-.86s-18.67-14-26.72-22.54c-9-9.54-18.75-21.8-15-34.37,2.68-8.89,11.3-14.42,19.35-19.05a1005.87,1005.87,0,0,1,92.28-47l-3.5-8.44c-9.64-46.75-19.28-93.53-25.89-140.8-1.5-10.69-2.84-21.4-5-32-6.86-33.65-21.94-65.65-24.44-99.9l-1-7.23c-8.43-35.36-28-66.88-47.25-97.71q-11.92-19.08-23.84-38.15c-30.17-48.28-61-97.3-103.75-134.86L759,1750l2.28-1.42a4.15,4.15,0,0,0,.17-5.66c-.84-.89-2.22-1.91-1.62-3l5,2.55a20.06,20.06,0,0,1-3.71-6.24,10.81,10.81,0,0,0,5.6,1.88l-5.1-5.85c2.07-1.1,4.38,2.72,6.47,1.67a14.94,14.94,0,0,1-4.06-4.57l6.72,2.79c1.18.5,3,.68,3.29-.57a13,13,0,0,1-7.1-5.72l7.06,3c.48-.9-.33-2-1.23-2.45a8.43,8.43,0,0,1-2.65-1.46c-.68-.76-.45-2.34.57-2.36a2,2,0,0,1,.9.31l3.85,2.11c.58-1.1-.73-2.22-1.88-2.7s-2.57-1.24-2.38-2.47a28,28,0,0,1,7.74,2.06c-.12-1.58-1.78-2.54-3.28-3.07s-3.21-1-3.94-2.44c1-1.09,2.84-.66,4.2,0s2.91,1.42,4.28.8c-.37-1.33-2-1.79-3.3-2.15s-2.88-1.2-2.79-2.58a41.48,41.48,0,0,0,8.16,1.67c-.7-2.77-5.85-1.74-6.86-4.41,2.12-.27,4.19.66,6.31.94s4.75-.51,5.21-2.6l6.93-4.45,6,2.19c22.62,8.15,40.28,25.86,56.67,43.45,17.75,19,35,38.58,52.19,58.11,19.37,22,38.94,44.24,52.5,70.21-10-93.14-3.58-189-30-278.83l-1.31-10.35c-10.9-40.62-21.88-81.44-39.28-119.73-7.78-17.11-16.8-33.62-25.81-50.11l-29.38-53.77-7-8.67-6.82-21-3.11-11.54a2.81,2.81,0,0,0-.43-1c-1-1.17-3.41-.28-4.05-1.66a13.91,13.91,0,0,0,4.13-1.35l-2.87-1.11c-.52-.21-1.14-.57-1.08-1.12s1-.79,1.62-.78,1.56-.34,1.41-1a6.34,6.34,0,0,0-4.31-1.24c.7-1.35,2.57-1.4,4.09-1.41a1.41,1.41,0,0,0,1.08-.32c.48-.56-.19-1.46-.92-1.59s-1.49.13-2.23,0-1.45-1-1-1.56a1.51,1.51,0,0,1,1-.42l3.22-.36c.27-1-.92-1.75-1.93-2s-2.24-.36-2.68-1.29l3.48-.49c.69-.1,1.6-.65,1.22-1.22a1,1,0,0,0-.67-.36l-4.7-1.15,5.27-1.74c.38-.12.83-.34.84-.74s-.5-.66-.92-.77a42.94,42.94,0,0,0-5.4-1.06c1.78-1.88,5.53-.42,7.13-2.45a16.4,16.4,0,0,0-6.73-1.36c1.9-1.79,5.88-.36,7.07-2.69a20.14,20.14,0,0,0-7.45-1.22c1.66-2.22,5.68-.56,7.69-2.47-2.64-.44-5.3-.79-8-1,1.66-2.25,6,0,7.74-2.17-1.49-1.9-5,.34-6.87-1.13l7.2-1.76c-.48-1.3-2.22-1.51-3.62-1.44s-3.08.07-3.8-1.12a29.74,29.74,0,0,1,6.59-1.45,16.14,16.14,0,0,1-3.75-2.28,27.76,27.76,0,0,0,6.14-1,35,35,0,0,0-6-1.41,17.29,17.29,0,0,0,5.84-2.31l-8.18-2,6.6-2.18-5-1.46,4.15-.67a.88.88,0,0,0,.71-.37c.21-.47-.47-.83-1-.91l-6.42-1q3.78-.91,7.52-2l-4.74-1.55a36.18,36.18,0,0,0,7.9-1.79,1.92,1.92,0,0,0,1.17-.79,2,2,0,0,0,.08-1.14l-.45-3.52,7.46,1.92a15,15,0,0,1,9.9.94,43.8,43.8,0,0,1,8.62,5.32q7.32,5.36,14.6,10.79l7.08,7.34c40.56,44.8,82.07,91.15,102.69,148l1.95,5.94,24.65,79.38c5.72,18.41,11.45,36.84,15.6,55.66,8.83,40,10.47,81.1,11.3,122a153.14,153.14,0,0,1,35.06-83.14l2-10.13c-3.19-67.23-30.32-130.71-57-192.48l-23.4-54.08-3.59-9.58q-11.36-22.92-22.7-45.84c-5.08-10.25-10.18-20.54-16.55-30-7.67-11.44-17.06-21.58-26.1-32a669.43,669.43,0,0,1-76.37-107.42l-9.39-17.51a64.21,64.21,0,0,0-12.91-18.16c-.38-.37-.79-1-.45-1.38a1.1,1.1,0,0,1,.52-.28l4.68-1.53a30.87,30.87,0,0,1-5.23-1l6.67-1.94a15.06,15.06,0,0,0-5.64-2.21l6-1.69a24.27,24.27,0,0,0-5-1.24,10.52,10.52,0,0,1,5.29-2.38c-.74-2.41-5.8,0-6.5-2.46a22,22,0,0,0,5-.95c.8-.25,1.76-1.06,1.25-1.72a1.39,1.39,0,0,0-.94-.4l-4.81-.68c.68-2.29,5.17-.53,6.15-2.71l-5.88-1.16a16.94,16.94,0,0,0,6.61-2.33l-6.72-1.34,6.12-2.24-6.48-1.36c.56-1.1,2.1-1,3.33-1s2.86-.65,2.62-1.86a4.32,4.32,0,0,1-5.5-1.38,10.46,10.46,0,0,0,6-2.2,15.66,15.66,0,0,1-7.47-1.54l8.62-.89c-.67-1.1-2.25-1.06-3.53-1s-2.93-.13-3.29-1.37a10.78,10.78,0,0,0,6.63-1.68,27,27,0,0,1-6.87-.93c1.33-.55,2.84-.3,4.28-.37s3.09-.69,3.47-2.08a10.22,10.22,0,0,1-6.59-.89l5.86-1.08-4-.91c-.37-.09-.85-.31-.78-.69s.38-.42.66-.49l3.22-.86a5.28,5.28,0,0,1-4.85-1.72,18.21,18.21,0,0,1,8-1.08l3.34-3.49,10.06.76c25,6.53,47.15,21.28,66.75,38.13,56.66,48.71,94.69,115,142,172.87,9.86,12,20.14,23.77,29.25,36.39,8.56,11.86,16,24.45,23.36,37.11a150,150,0,0,0-8.32-71.81c-3.59-9.54-8.17-18.75-10.76-28.61-2.34-8.86-3-18.08-3.4-27.24-1.07-25.3.3-51.64,11.89-74.15l.3-6.52a107.07,107.07,0,0,1-59-29.46c-7.26-7.17-13.45-15.34-20.15-23-22.78-26.15-51.43-46.7-81.8-63.46s-62.56-29.92-94.68-43l-5.83-3.59-5.43-7.21-45-11.38c-6.94-1.76-13.91-3.52-20.52-6.28a147.37,147.37,0,0,1-14.62-7.41c-9-5-18-10-26.82-15.19C705.92,889,693.5,881,684.26,869.93c-3.11-3.74-5.83-7.8-8.94-11.54a70,70,0,0,0-15.92-14.07c13,2.23,23.22,11.75,33.51,19.95A215.4,215.4,0,0,0,843.64,910l7.27.88a185.63,185.63,0,0,1,88.14,13.76c14.92,6.29,28.94,14.5,42.77,22.94q46.74,28.5,91.14,60.61l4.92,1.95c-5.63-25.88-4.27-52.71-2.89-79.15.36-6.76.72-13.59,2.48-20.12,4.79-17.81,19.27-31.31,34.45-41.78-13.42-10.5-20.22-28.2-19.35-45.22s8.81-33.22,20.19-45.9c5.82-6.49,12.58-12.22,17.41-19.47l3.31-5c9.14-9.56,23.52-11.21,35.86-16,2.47-1,5-2.11,6.69-4.14s2.4-5.14,1-7.36c-1.14-1.74-3.23-2.55-5.19-3.24-14.4-5.14-29.89-11.23-37.73-24.35-4.6-7.71-5.92-17-5.86-26,.08-13.46,4.29-28.6,16.26-34.76-13.31-7.45-20.13-23.91-18.41-39.08s10.91-28.8,22.81-38.35a51.51,51.51,0,0,1-29.4-66.36c2.44-6.37,6.1-12.18,9.75-17.94,3.13-4.95,6.34-10,10.92-13.64,6.74-5.36,15.92-7.11,24.44-5.83s16.42,5.37,23.27,10.59c22.37,17,33.85,47.25,28.46,74.84,13.46,6.52,22.8,20,26.42,34.49s2,29.95-2.37,44.26l-.86,6.14c10,4.89,17,14.73,20.12,25.37s2.87,22.06,1.09,33c-1.07,6.63-2.73,13.29-6.26,19s-9.19,10.4-15.82,11.43a3.32,3.32,0,0,0-2.14.85,3,3,0,0,0-.18,2.56q1.7,7.2,3.82,14.29l-1.38,4.6a94.7,94.7,0,0,1,64.36,45.08,43.17,43.17,0,0,1,4.81,11,54.55,54.55,0,0,1,1.22,11.56c.71,21.85.15,45.33-12.53,63.14-7.61,10.69-18.83,18.16-29.79,25.38a36.25,36.25,0,0,0,9.54,8.3l6.56,5.91c8.49,5.15,14.74,13.53,18.42,22.75s4.91,19.27,4.82,29.2a112.39,112.39,0,0,1-10.61,46.85,76.37,76.37,0,0,1-10.64,17c-5.08,6-11.3,10.84-17.54,15.57-8.76,6.63-17.72,13.11-27.61,17.9a94.62,94.62,0,0,1-36.45,9.33c-2.83.14-5.82.2-8.24,1.67s-3.89,5-2.19,7.23,4.93,2,7.66,1.66a89.73,89.73,0,0,1,37.09,3.49c8.37,2.62,16.75,6.83,21.49,14.21,5.16,8,6,19.55,14.28,24.23l4.39-4.75,7.84-10.72c7.95-8.41,13.43-18.82,20.4-28,7.6-10.07,16.93-18.67,26.26-27.16q51.68-47,105.37-91.76c18.34-15.28,36.88-30.37,56.72-43.63,32.48-21.7,68.07-38.24,103.51-54.69l5.24-8c5.29-22.26,10.58-44.57,13.54-67.25,3.8-29.17,4.57-61.1,23.39-83.71l5.6-8.83c6.93,1,13.61-.26,17.61-5.76,3-4.21,3.28-9.19,2-14.22l11,1.72c6.42,2.06,11.38,7.48,14.15,13.62s3.59,13,3.81,19.73c1.31,39.23-16.28,76.37-23.81,114.9,40.09-13.83,73.41-42.47,101.87-73.91,5.81-6.41,11.49-13,16.08-20.34,5.59-8.9,9.48-18.74,13.35-28.51L1825,639.34c4.56-11.53,9.47-23.56,19-31.45s25.27-9.79,33.69-.7c5.4,5.82,6.48,14.48,5.66,22.37s-3.27,15.56-3.87,23.47l-2.55,9.8c-2.67,13.89-5.7,27.75-10.43,41.08-11.66,32.82-33.14,61.08-54.3,88.75-9.44,12.34-18.89,24.7-29.59,36-12.81,13.49-27.3,25.26-41.73,37-22.73,18.47-45.83,37.17-72.7,48.81l-7.43,3.21L1655,971.14c-.94,8.71-1.88,17.44-3.62,26-2.44,12.13-6.43,23.89-9.49,35.88-4.58,18-7,36.39-9.49,54.77l-3.66,8a395,395,0,0,1-73.3,170,430.35,430.35,0,0,1,227.65-38.49c12.81,1.36,25.65,3.33,37.83,7.52,26.62,9.16,48.42,28.29,69.47,47ZM463.32,1555.29A379.43,379.43,0,0,1,540,1602.65l7.27.62c3.06-.26,6.11-.65,9.15-1.15l-8.6-1.42,8.49-1.83-7.85-.71c-1.09-.09-2.51-.56-2.42-1.65l9-1.37-7.89-.08a2,2,0,0,1-1.56-.48,1.35,1.35,0,0,1,.39-1.84,3.88,3.88,0,0,1,2-.58l6.91-.74a12.29,12.29,0,0,1-8.23-2.77c2.77.07,5.72.09,8.1-1.33l-8-.85a1.2,1.2,0,0,1-1-.42c-.38-.64.6-1.22,1.34-1.35l6.23-1-8.17-1.15c1.7-2.76,6.5-1.08,8.8-3.36-2.49-.53-5-1-7.49-1.45a72.83,72.83,0,0,0,9-2.07,22.5,22.5,0,0,1-6.67-1.88l6.19-1.92c-2.21-1.08-4.42-.16-6.64-1.24a54.47,54.47,0,0,0,5.72-3c-2.21-1.64-4.86-.68-7.59-1l7.08-1.9-7.08-.6,6.4-2.22-7.3-.84,7.29-1.65a25.68,25.68,0,0,0-7.18-1.06l7.32-2.16-.67-.58c-2.3.34-4.77.64-6.81-.46a19.77,19.77,0,0,0,6.32-1.19c-1.38-2.14-5.2-.21-7.1-1.91a9,9,0,0,1,5.1-1.22c.75.05,1.88-.23,1.64-.94-.12-.38-.57-.5-1-.54-1.83-.21-4,.08-5.22-1.26,1.41-1.4,4.34.13,5.58-1.43a.63.63,0,0,0,.17-.43c0-.34-.45-.47-.78-.51-2.28-.22-5,.42-6.53-1.32a48.72,48.72,0,0,0,8.58-1.13c-.58-1.12-2.07-1.37-3.33-1.35s-2.67.12-3.64-.69l5.16-.58c.74-.08,1.73-.7,1.28-1.28a1,1,0,0,0-.61-.29c-2.22-.39-4.9.69-6.55-.85l5.71-1.21a.74.74,0,0,0,.29-.12c.28-.26-.07-.68-.38-.89a24.75,24.75,0,0,1-8.88-10.17l-2.95-2.89c-11.92-11.73-25.93-21.13-40.28-29.72a491.68,491.68,0,0,0-44.68-23.7l-5.22-2.33c.24,26.31.5,52.83,5.95,78.58Zm75-154c-13.14-5.76-27.16-9.14-41-13q-23.47-6.49-46.38-14.78l-5.44.81a25.68,25.68,0,0,0-2,3.68,12,12,0,0,0-.44,3.79q-.09,15.08.23,30.15l7.24,13.51,5.55-3q13.33,1.4,26.62,3a87.61,87.61,0,0,1,14.49,2.67c3,.89,5.84,2.08,8.83,2.9a73,73,0,0,0,10,1.72l20.53,2.57,4.48,2.78-.21-5.25c15-2,29.69,4.41,43.18,11.21a596.16,596.16,0,0,1,58.36,33.67,59,59,0,0,0,11,6.23c-15.27-17.47-35.48-29.75-55.5-41.45q-25.23-14.74-50.78-28.89l-1.74-8.52Zm11.89-190.21,4.44-1.43a9.11,9.11,0,0,0,6.79-1.41l-6.38-.34c-.13-.69.79-1,1.48-1.14l5.21-.66a16.69,16.69,0,0,0-7.76-1.4,36.88,36.88,0,0,0,6.71-1.47,20.69,20.69,0,0,0-7.44-.27c.29-1.45,2.24-1.69,3.71-1.62s3.44-.26,3.63-1.73a18.83,18.83,0,0,1-6.89-.59l6.41-1.56c-.73-1-2.2-.82-3.41-.73s-2.8-.3-2.93-1.51a11.56,11.56,0,0,0,6-1.91c-2.38.15-5.21.09-6.56-1.87l6.4-1.46c-.59-1-2-.86-3.15-.82s-2.66-.59-2.45-1.71a8.44,8.44,0,0,0,5.35-1.2,34.35,34.35,0,0,1-5.89-1.49c2-1.82,6.24.4,7.39-2l-8.27-.73c3.07-.59,6.11-1.32,9.11-2.21-.52-1.09-2-1.15-3.21-1.12s-2.73-.28-3-1.46a12.42,12.42,0,0,0,8.71-2l-8.41-.9a10.45,10.45,0,0,0,8.09-2.8l-8.16-.65a68.47,68.47,0,0,0,7.42-2l-9.16-1.52,11-1.69-10.59-1.36a45,45,0,0,0,9.4-2.88l-9.55-.92c1.71-2.77,7-.68,8.69-3.47a12.6,12.6,0,0,1-12.34-9.81l-2.21-4.56-3.13,1.06c-5.36-2.82-11.41-4-17.37-5q-19.68-3.45-39.51-5.91l-3.53.18-8,6.93a130.7,130.7,0,0,0-16.75,47.5l-.79,10,6.1.16a172.29,172.29,0,0,1,77.81,15Zm-322.77-53.86c-5.8-7.32-6.17-17.36-8.19-26.48-2.48-11.26-7.74-21.68-13.08-31.9-9.7-18.52-19.87-36.79-30-55.05-5.39-9.69-10.81-19.42-17.62-28.16A153.81,153.81,0,0,0,139,995.45c-29.26-26-66.85-45.91-105.83-42.76-4.66.37-10.18,1.77-11.64,6.2-1,2.9.27,6.09,2,8.6,5.24,7.55,14.43,11,22.56,15.3A97,97,0,0,1,75,1006l7.09,5.29c27,29.81,38.78,70,51.81,108q10.94,31.92,23.76,63.15l3.28,7.15a217.36,217.36,0,0,0,12.82,47.81c3.5,8.85,7.58,17.46,10.79,26.42,5.05,14.09,7.92,28.92,13.41,42.85,2.66,6.73,5.92,13.22,9.17,19.69l13.9,27.65,5.44,7.26c8.71,12.71,15.39,26.84,25.29,38.64a166.06,166.06,0,0,0,14.81,15A954.16,954.16,0,0,0,388,1509.82l5,4.08,4.56-9.33q-6.09-35.11-10.44-70.52l-6.53-12.28a119.63,119.63,0,0,1-.57-23.93l2.36-6.66Q382,1373,380.75,1355L378,1347.6a112.65,112.65,0,0,1-2.45-14.94l1.22-5.66q.91-32.4,2.27-64.78c.42-10.08.87-20.23,3-30.09,2.7-12.33,8-23.93,13.87-35.11l6.1-6.79a377.35,377.35,0,0,1,13.65-48.83l-3.78-6.6-8.46,1.69c-12.67,3.36-25.79,4.75-38.48,8s-25.35,8.61-34.14,18.32c-5.45,6-9.14,13.42-13.9,20-7,9.68-16.25,17.54-23.58,27a87.14,87.14,0,0,0-15.08,74.67,48,48,0,0,1-7.15-10.53,387.61,387.61,0,0,1-38.79-103.34Zm296.41-288-109.31-42.1c-16.84-6.49-33.76-13-51.38-16.88-24.2-5.33-49.19-5.58-74-5.81-33-.31-66.28-.59-98.82,5-18,3.11-35.58,8-53.6,10.78-34.52,5.31-69.7,2.71-104.63,2.52-9.06-.05-20.94,2.49-21.73,11.52-.37,4.28,2.29,8.3,5.52,11.15,9.82,8.65,24.16,9.17,37.25,9.23l164.09.86c27.15.14,54.39.29,81.3,3.92,21.43,2.89,42.5,8,63.52,13,44.52,10.73,90,21.86,128.54,46.6l4.4,4,9.27-6.77q12.19-19,25.2-37.41l.31-9.29Z"></path>
    <path data-name="2a" data-official="" data-plain="Pistil Floret" data-loc="" d="M1432.05,2696.35c-2.5-11.15,9.81-20.6,10.3-32,.21-4.72-1.65-9.26-2.39-13.92-2-12.72,4.32-25.23,11.6-35.85,4.44-6.48,10.9-13.36,18.66-12.18,7.91,1.19,12,9.9,14.46,17.5,4.75,14.63,8.5,30.79,2.89,45.1-1.36,3.47-3.26,7.3-1.78,10.71.76,1.75,2.29,3,3.69,4.31,7.19,6.67,12.13,17.45,7.94,26.33-3.6,7.65-12.52,11.13-20.81,12.83a99.53,99.53,0,0,1-20.73,2c-4.92,0-10-.49-14.35-2.73s-8-6.61-8-11.52Z"></path>
    <path data-name="2b" data-official="" data-plain="Stamen Floret" data-loc="" d="M1519.84,2714c-4.31-3.84-6.15-10-5.7-15.7s3-11.18,6.23-15.94c2.07-3,4.49-5.92,5.81-9.35a32.71,32.71,0,0,0,1.63-9.7c.39-6.08.73-12.29-.87-18.16-2.27-8.34-8.37-16-7.44-24.56.66-6.1,5-11.35,10.16-14.59s11.29-4.73,17.31-5.93c8-1.6,16.47-2.73,24.24-.2a16.69,16.69,0,0,1,8.69,5.88c3.65,5.2,2.64,12.27,1,18.42a138.64,138.64,0,0,1-10.07,27c-2,4.07-4.3,8.31-4,12.84.46,6.5,6,11.27,9.84,16.51,6.23,8.46,8.18,21.14,1.41,29.17-4.91,5.84-13,7.8-20.55,8.78a132.62,132.62,0,0,1-32,.21Z"></path>
    <path data-name="2c" data-official="" data-plain="Pistil Floret magnified" data-loc="" d="M1601.92,2729.55a26.47,26.47,0,0,1,3-20.87c2-3.23,4.73-6,6.52-9.36,3.08-5.79,3.12-12.7,2.46-19.22-.92-8.93-3-17.71-3.87-26.64s-.39-18.27,3.55-26.34c2.25-4.6,5.58-8.68,7.31-13.51,2.26-6.28,1.6-13.19.91-19.83l-2.69-25.9c-.66-6.36-1.31-12.87.25-19.07s5.82-12.12,12-13.84c7.62-2.12,15.6,2.73,20.52,8.91,6.2,7.78,9.23,17.69,10.23,27.58s.1,19.87-.81,29.76c-.37,4.11-.64,8.65,1.83,12a26.69,26.69,0,0,0,3.81,3.62c5.45,4.92,8.19,12.3,8.82,19.62s-.67,14.65-2.19,21.84c-1.56,7.38-3.45,14.91-7.78,21.1-2.81,4-6.79,8-6.28,12.86.49,4.67,4.91,7.76,7.59,11.63s3.61,8.56,4.23,13.19c.74,5.59.71,12.15-3.61,15.77a16.6,16.6,0,0,1-5.23,2.67,95.16,95.16,0,0,1-59.56,1.29Z"></path>
    <path data-name="2d" data-official="" data-plain="Stamen magnified" data-loc="" d="M1698.32,2750.34a32,32,0,0,1,5.54-23.57c2.29-3.18,5.21-6,6.67-9.64,1.26-3.11,1.32-6.56,1.37-9.92l1.09-75.77c.07-4.72.13-9.51-1-14.1-1.56-6.28-5.25-11.78-7.94-17.66a58.61,58.61,0,0,1-5-30,31.28,31.28,0,0,1,3.17-11.66,30.42,30.42,0,0,1,9.66-10.18c6.48-4.53,14.21-7.6,22.12-7.44s15.94,3.88,20.19,10.55c3.91,6.14,4.27,13.81,4.52,21.08.34,10.09.66,20.35-1.85,30.14-1.08,4.19-2.67,8.24-3.8,12.42-2.36,8.74-2.7,17.87-2.94,26.92q-.64,23.82-.55,47.65c0,5.26.11,10.71,2.38,15.45,4.33,9,15.43,13.29,19.79,22.3,4.7,9.7-.4,21.93-8.94,28.5s-19.63,8.71-30.33,10c-11.7,1.47-25.09,1.68-33.49-6.6Z"></path>
</svg>
