
<svg xmlns="http://www.w3.org/2000/svg" viewBox="0 0 2097 2747" id="illustration" preserveAspectRatio="xMidYMid meet">
    <title>Violaceæ</title>
    <path data-name="1" data-official="Viola odorata" data-plain="Sweet Violet" data-loc="England" d="M962,2395.1a13.49,13.49,0,0,0-4.62,1.2,40.69,40.69,0,0,1-.51,8.54c-1.88-4.28-3.87-8.7-7.4-11.74l-4-5.7-13.88-39.69c-1.18-3.37-2.42-6.85-4.91-9.42a40.07,40.07,0,0,1-3.14-3.11c-2.11-2.76-2.07-6.57-3.19-9.86-1.6-4.74-5.55-8.31-7.71-12.83-2.79-5.86-2.33-12.73-4.15-19a69,69,0,0,0-4.67-10.62,119.72,119.72,0,0,1-8.7-23.95l-4.33-17.25a397.23,397.23,0,0,1-91.47-116.17c-3.44-6.63-6.81-13.5-12.21-18.65-5.1-4.85-11.65-7.83-18.07-10.72l-61.21-27.55c-10.51-4.73-21.31-9.53-32.82-10.22-23.34-1.38-46.19,17-49.8,40.13l-5,16.94c-5.56,17.12-25.55,25.82-43.54,25.12s-34.81-8.44-51.81-14.35c-68.85-23.92-147.62-17.66-211.83,16.84-7.07,3.8-14.27,8.22-18.32,15.16-3.43,5.9-4.17,12.94-4.84,19.74-6.07,61.9-10.75,129.63,24.41,180.94,9.32,13.6,21.36,25.86,26.33,41.58,13.65,43.14-31.13,84.6-29.93,129.83.79,30,23.21,56.82,51.15,67.67s60,7.35,87.55-4.51c14.9-6.41,29.75-15.37,45.94-14.36,12.76.8,24.2,7.73,35,14.54,47.16,29.75,94.81,61.71,149.4,73,26.59,5.52,53.94,5.93,81.1,6.32L927,2675.4c7,.1,14.56,0,20.14-4.19,3.8-2.88,6.1-7.27,8.28-11.52l26.31-51.35,14.08-11.88a165.89,165.89,0,0,0,12.15-20.14,50.28,50.28,0,0,0,3.61-8.53c1.57-5.37,1.58-11.05,1.58-16.64,0-3.78-.2-8-3-10.57-4.36-4-11.54-1-17.11-3a2.58,2.58,0,0,1-1.55-1.13,2.54,2.54,0,0,1-.15-1.42c.41-3.75,3.12-6.77,4.87-10.12,3.31-6.33,3.13-14,1.37-20.92s-5-13.38-7.56-20c-1-2.55-1.9-5.35-1.12-8a25.21,25.21,0,0,1,2.13-4.17,14.15,14.15,0,0,0,.51-11.8l-4-7c-2.27-2.7-4.58-5.46-5.8-8.77s-1.28-6.68-1.32-10.09c-.12-8.46,0-16.93,0-25.39Z"></path>
    <path data-name="1a" data-official="" data-plain="Pistil and Stamens" data-loc="" d="M232.88,2623.72a200.48,200.48,0,0,0,2.81-48c-.63-10.22-1.67-21.7,5-29.48,8-9.37,22.59-8.24,34.78-6.3,1.89.3,3.88.64,5.37,1.85,1.78,1.45,2.47,3.83,3.06,6l11.68,44.22c2.57,9.72,5.44,20,12.73,26.89,11.15,10.58,29.07,10.16,41.65,19a33.53,33.53,0,0,1,14,26.13c.09,3.16-.45,6.65-2.84,8.73a12.84,12.84,0,0,1-5.36,2.31l-19,5c-2.12.55-4.42,1.23-5.69,3-1.14,1.61-1.15,3.73-1.47,5.68-1,6.36-5.69,11.67-11.26,14.91s-12,4.66-18.31,5.78c-9.39,1.66-20.39,2.23-27.07-4.59-8.28-8.44-5.31-23.64-13.29-32.36-6-6.54-16.12-7.24-23.18-12.58a21.54,21.54,0,0,1-7.59-22.32Z"></path>
    <path data-name="1b" data-official="" data-plain="Stamen with appendage" data-loc="" d="M172.4,2665.87c-3,3.44-5.12,7.61-8.18,11-7.32,8.13-18.83,10.71-29.55,12.86-8.58,1.72-18.86,2.93-24.78-3.51-5.59-6.09-4.08-15.52-4.43-23.78-.43-10.39-4.34-20.27-8-30-7.95-21.09-15.09-42.95-15.4-65.49s7.13-46.13,24.2-60.85c5.14-4.42,12.08-8.1,18.49-5.9,8.07,2.78,10.46,12.67,13.87,20.5,7.55,17.33,25.26,30.16,27.64,48.91.75,5.91-.14,11.93.55,17.85a34.06,34.06,0,0,0,20.28,26.87c5.79,2.42,12.52,3.37,16.93,7.84,3.93,4,5.06,9.87,6,15.39.69,4.05,1.36,8.28.18,12.22-3,9.87-15.26,12.83-25.49,14.13Z"></path>
    <path data-name="1c" data-official="" data-plain="Pistil" data-loc="" d="M184.46,2528.54c-14.1-5.67-24.39-18.55-29.92-32.7s-6.81-29.59-7.17-44.79c-.27-11.24.13-23.14,6.13-32.65,4.53-7.16,11.82-12.22,16.43-19.33,6.53-10.05,6.91-22.89,5.45-34.79s-4.52-23.69-4.1-35.66c.23-6.47,1.61-13.17,5.66-18.21,6.39-7.94,17.75-9.85,27.92-9.27,7.37.42,14.85,1.92,21.1,5.84s11.08,10.6,11.38,18c.28,6.88-3.25,13.25-5.76,19.67-8.66,22.17-5.43,47.11-.1,70.3s12.68,46.37,11.92,70.15c-.31,9.48-2.22,19.55-8.82,26.35-3.2,3.3-7.29,5.59-11.37,7.71q-9,4.68-18.45,8.57Z"></path>
    <path data-name="2" data-official="Viola tricolor" data-plain="Heart’s-ease" data-loc="England" d="M1331.38,1847.38c-1.72-8.08-6.73-15.18-12.87-20.71s-13.39-9.68-20.66-13.6a557.43,557.43,0,0,0-86.29-37.6l-8.7-1.49c-9,6.22-20.63,7-31.59,7.55s-22.55,1.34-31.59,7.56c-.88-2.78-4-4.11-6.92-4.54a23.23,23.23,0,0,0-10.28.79l-1-3.91c-7.88-5.91-10.26-16.57-11.3-26.36-.52-4.9-1-10.23-4.37-13.85s-8.75-4.52-13.68-4.33a41.59,41.59,0,0,0-13.72,2.89,30.39,30.39,0,0,1-6.83,2.31c-2.39.34-5.09-.26-6.54-2.18a8.51,8.51,0,0,1-1.39-4.1,31.09,31.09,0,0,1,4-19.69l1.7-7.31a124.34,124.34,0,0,1,15.86-32c2.53-3.67,5.33-7.36,6.18-11.74a35.26,35.26,0,0,1-10.9-.22l9.84-10.35c1.63-1.72,3.26-3.43,5-5.07a82.51,82.51,0,0,1,19.35-13.91,14.11,14.11,0,0,1,5.44-1.87,5.44,5.44,0,0,1,5,2.21l4.27-1.43a31.27,31.27,0,0,1,9.7-2.46l12.76,3a49.19,49.19,0,0,0,29.34,5.32l9.86,6.77c7.85-9.5,15.8-19.18,20.68-30.49,4.72-10.92,6.38-22.91,7.13-34.77l-5.09-9.09c.23-3.37-1-6.64-2.26-9.78l-6.73-17.16.33-10.64q-.48-31.78-3.4-63.48a58.09,58.09,0,0,0-1.06-7.58c-.58-2.49-1.47-4.89-2.16-7.34-1.7-6-2.17-12.33-3.78-18.37l-.76-7.69c-1.8-5.38-2.53-11.06-3.53-16.66a174.37,174.37,0,0,0-10.14-35c-1.06-2.6-2.25-5.26-4.36-7.11-2.32-2-5.47-2.81-8.53-3.21a16.45,16.45,0,0,0-7.52.43,18.21,18.21,0,0,0-6.28,4.37c-8.35,8-15.13,17.5-23.41,25.57s-18.66,14.85-30.2,15.39l-6.79,3.85c-3.17,4.51-7.7,8.34-13.1,9.42a49.31,49.31,0,0,1-5.7.55c-8.1.65-16.38,3.75-21.42,10.13a31.77,31.77,0,0,1-.61-12.95c-3.07.68-5.27,3.55-6.1,6.58s-.54,6.24-.24,9.37a32.67,32.67,0,0,0-10.58,6.93l-4-11.7c-.36-2.54-.72-5.21.2-7.6,1.37-3.56,5.13-5.53,8.63-7s7.31-3.15,9.16-6.49c1.75-3.15,1.26-7.08.13-10.51-1.67-5-5.08-10-10.18-11.47a23.07,23.07,0,0,0-6-.65l-6-.1c4.61-4,7-10.16,7.43-16.26s-.87-12.19-2.62-18a32.75,32.75,0,0,0-3.86-9,13.35,13.35,0,0,0-7.69-5.76l-7.13-3.22q-10.12-6-20.28-11.93c-4.45-2.59-8.95-5.18-13.85-6.78-8.57-2.79-17.81-2.37-26.81-1.92-4.29.22-8.68.46-12.65,2.09-6.21,2.55-10.61,8.16-14,13.94a87.57,87.57,0,0,0-11.36,55.91l-.45,14a16,16,0,0,0,3,10.09,47.75,47.75,0,0,0,7.21,7.9l9.74,9.18,5.81,1.31c.85.13,1.08,1.24,1.11,2.1q1,30.6,1.94,61.19l-4.17,4.31a124.38,124.38,0,0,0-10.11-9.24,17.85,17.85,0,0,1-2.69,9.4,104.6,104.6,0,0,1-16.94-10.09,4.57,4.57,0,0,0-2.3-1.1c-1.61-.11-2.87,1.47-4.46,1.71a4.22,4.22,0,0,1-3.82-2c-.89-1.23-1.41-2.7-2.27-4a9.11,9.11,0,0,0-9.51-3.62,4.85,4.85,0,0,1-1.87.29,4.56,4.56,0,0,1-1.83-1c-3.24-2.28-7.41-2.6-11.3-3.41-12.4-2.59-23.57-10.89-36.24-10.78-4.82,0-9.54,1.32-14.15,2.75-5.4,1.67-10.83,3.61-15.34,7l1.36,1.35c-3.68.69-5.66,5.77-3.41,8.77a3.75,3.75,0,0,1,.84,1.38c.1.54-.29,1.21-.82,1.13a73.8,73.8,0,0,0,18.76,11.18c4,1.64,8.65,2.92,12.61,1.13l2.67-1.28c3-1.27,6.4,0,9.61.6a22.51,22.51,0,0,0,11.78-1c3.07-1.13,6.24-3,9.38-2.07a29.13,29.13,0,0,1,3.38,1.52,9.4,9.4,0,0,0,8.74-.87,6.79,6.79,0,0,1,2.37-1.32c.8-.15,1.69.09,2.39-.32s.95-1.31,1.65-1.67a2.63,2.63,0,0,1,1.22-.17,43,43,0,0,1,9.75.86c3.81.93,7.28,2.87,10.69,4.79l8.89,5-4.23,5.1.51,7.83a25.83,25.83,0,0,0-2.33,4.93,13,13,0,0,1-1.93,4.26,7,7,0,0,1-4.08,2.23,21.27,21.27,0,0,1-4.72.23l-6.39,1.63a68.17,68.17,0,0,1-20.77-17.37c-.16,2.26-.3,4.52-.44,6.78q-.76,12.06-1.52,24.14l-6.79,7c-3,2.53-4.14,6.67-4,10.56s1.45,7.65,2.73,11.32,2.65,7.56,4,11.34l.72,5a6.69,6.69,0,0,1-.25,7.23c4.3,3.52,5.75,9.34,7.84,14.49a51,51,0,0,0,10,15.72c0,.92-1.64.73-2.13,1.52a1.56,1.56,0,0,0-.1,1.09,19.49,19.49,0,0,0,5.92,10.42,46.71,46.71,0,0,0,10,6.94c4.87,2.73,10,5.24,15.54,5.94l.26,2.46c-61-12-100-36-100-36L810.36,1610c-.62-2.85-1.23-5.7-1.85-8.55-1.06-4.91-2.17-10-5-14.09s-7.85-7.2-12.77-6.23c-5.4,1.07-9.45,6.58-15,6.52l-5.08-3.79a159.84,159.84,0,0,1-16.3-4.09c-3.41-1-7-2.34-9.24-5.08-.81-1-1.43-2.12-2.3-3.06a4.13,4.13,0,0,0-3.36-1.52,2.18,2.18,0,0,0-1.88,2.73,20.37,20.37,0,0,0-6.79.19c.73-4.16-2-8.38-5.66-10.47s-8.1-2.39-12.32-2.08h-.13c3.61-7.16,5.69-15.26,4.77-23.22s-5.1-15.72-11.91-20c-.58,2.69-3.87,3.69-6.62,3.84-4.71.27-9.42-.47-14.14-.36s-9.69,1.19-13.07,4.48a118.37,118.37,0,0,0-10.06-19.71,2.11,2.11,0,0,0-.68-.77,2.21,2.21,0,0,0-1.44-.09,54.94,54.94,0,0,0-20.22,8c-3.92,2.55-7.6,5.72-9.78,9.86-2,3.7-2.6,8-2.82,12.12a65.38,65.38,0,0,0,1.18,16.16,41.42,41.42,0,0,0-13.72,15.34c-.61,1.19-1.17,2.61-.61,3.82a6.77,6.77,0,0,0,1.39,1.64c3.3,3.41,3.07,8.78,2.89,13.52s.31,10.3,4.28,12.9l-8.38,4.65-19.26,6-11.76,2.44c-2.57.76-5.25,1.58-7.18,3.45a13.46,13.46,0,0,0-3,5,35.49,35.49,0,0,0-2.29,12.65,23.64,23.64,0,0,0,1,7.1c2,6.42,7.45,11.13,13,14.93a103.26,103.26,0,0,0,39.21,16.21L639,1681.05c-9.18,16.5-25.7,29.12-30.21,47.45-1.33,5.4-1.52,11-1.7,16.56-.24,7.53-.49,15.07-.14,22.59.55,11.77,3,24.35,11.58,32.44,5.36,5.08,12.51,7.77,19.49,10.18,11.64,4,23.62,7.66,35.93,7.78s25.14-3.71,33.56-12.69l3.07-5.47c.77-4,0-8,0-12s1.06-8.47,4.4-10.71a27.66,27.66,0,0,1,5-2.14,18.3,18.3,0,0,0,9.87-9.71,6,6,0,0,1,1.32,3.37,30.32,30.32,0,0,0,4.14-28.09l5.84,2.16c7.6,3.23,16.35,3,24.3.75,2.88-.82,5.83-2,7.71-4.31s2.25-6.11.07-8.17c-.67-.64-1.53-1.07-2.14-1.76-1.54-1.77-1-4.54.17-6.59,1.76-3.16,4.57-5.58,7.1-8.16a60.61,60.61,0,0,0,9.65-12.93l8.1,1.57c13.91,11.32,22.56,27.72,30.46,43.82,16.86,34.33,69,158.55,87,195.55l5.07,16.79a14.93,14.93,0,0,1-17.4-2.86l-3.6-2c-5-3-8.92-7.56-13-11.74a116.3,116.3,0,0,0-35.17-24.39c-3.93-1.76-8-3.31-11.59-5.66-5.39-3.5-9.61-8.68-15.25-11.78-4.66-2.57-10.09-3.61-14.48-6.6-2.86-2-5.15-4.66-8-6.57-4-2.65-8.9-3.58-13.64-4.45a4.24,4.24,0,0,1,.92,3.17,102.43,102.43,0,0,0-39.37-12.87,20.87,20.87,0,0,1,.59,6.86,89.16,89.16,0,0,0-14.61-.66l-12-2.35c-7.81-.24-15.75-.48-23.32,1.46-8.53,2.18-16.11,7-23.52,11.71-5.3,3.37-10.64,6.78-15.07,11.22a81.57,81.57,0,0,0-8.74,10.94c-2.89,4.08-5.88,8.85-4.8,13.73l-4.69,8.28a11.66,11.66,0,0,1-10.08,8.85l-8.44-.78a10.48,10.48,0,0,0-3.94,1.45,4.74,4.74,0,0,0-1.68,1.59,4.36,4.36,0,0,0-.5,2.39c.1,3.7,2.71,7,5.89,8.86s6.88,2.68,10.5,3.43l7.92,0q7.27,1.53,14.63,2.68l6.93,7.21a57.93,57.93,0,0,0,5.44,2.63c7.73,3.09,16.34,2.72,24.66,2.3l9.31-1.53c4.29-1.7,6.87-5.94,9.9-9.41a4.06,4.06,0,0,1,2.35-1.6,5.86,5.86,0,0,1,1.76.22,7.88,7.88,0,0,0,4.69-.58l13.2,1c2.43-4.65,5-9.49,9.33-12.48,2.05-1.42,4.4-2.35,6.48-3.72,4.67-3.09,7.83-8.3,12.92-10.64l2.22,3.25c3.08-5.35,9.27-7.93,15-10.15l15.17-5.83,1.56,5.14c15.48-7.44,34-7.35,50.16-1.67s30.22,16.59,41.45,29.58l1,.82a410,410,0,0,0-53.61,1.21,1.91,1.91,0,0,0-1.22.41c-.31.32-.26,1,.17,1.07l-6.75,1.41c.19.48.38,1,.58,1.43l-18.76.67a44.28,44.28,0,0,1-10-.4c.29,3.18.59,6.37.88,9.56a2,2,0,0,1-.15,1.23,2,2,0,0,1-1.63.7,122.38,122.38,0,0,1-16,.42,9.57,9.57,0,0,1,.62,4.11,3.27,3.27,0,0,1-2.59,2.91,6.2,6.2,0,0,1-2.58-.6c-7.8-2.74-16.8,3.23-24.47.15l-9.06.83a8.75,8.75,0,0,0-2.78,7.33,14.55,14.55,0,0,0,3.09,7.41,43.37,43.37,0,0,0,5.69,5.81l5.64,3.07q11.87-.06,23.72-.52c-.1,1.88-.2,3.76-.29,5.63a33.21,33.21,0,0,0,16.42-.53l1.62,4.71c8.33-1.35,16-5.14,23.59-8.87l1.51,3a1.23,1.23,0,0,0,.53.65,1.31,1.31,0,0,0,.95-.06,35.29,35.29,0,0,0,20.57-18.51l.56-.76a7.73,7.73,0,0,0,5.66,4.82,2.16,2.16,0,0,0,1.66-.18,2.57,2.57,0,0,0,.72-1.07c1.62-3.82,2.49-8,4.42-11.64a26.32,26.32,0,0,1,13.44-11.69,40.23,40.23,0,0,1,17.84-2.54,3.45,3.45,0,0,1,1.93.54,3,3,0,0,1,.94,2.17c.61,5.71-3.26,11-7.82,14.5s-10,5.8-14.44,9.4c-4.78,3.83-8.33,9-11.53,14.18a44,44,0,0,0-4.09,8c-2.37,6.67-1.83,14-1.25,21,7.09-7.07,17.11-10.26,25.29-16a47.73,47.73,0,0,0,18.54-27c.58-2.33,1-4.75,2.23-6.82s3.47-3.74,5.86-3.45c2.71.34,4.49,3,5.63,5.47,4.54,9.94,5,22,12.26,30.14L940.39,2046a95.85,95.85,0,0,1,3,12.15l-4.3,9a131.67,131.67,0,0,1-16.72,20.94c-3.68,3.76-7.77,7.59-9,12.7a26.46,26.46,0,0,0-.22,8.66q.76,9.28,1.55,18.55c.61,7.31,1.23,14.67,3.2,21.74s5.4,13.89,10.85,18.8l3.38,9.8a20.42,20.42,0,0,1-.74,8.43,21.8,21.8,0,0,1-2.83,6.48c-2.75,4.06-7.28,6.67-9.92,10.8a78.17,78.17,0,0,0,24.66-.62l3.05,5.52c.25,2.66.47,5.46-.69,7.86s-3.69,4.09-6.22,5.2-5.22,1.87-7.57,3.32-4.38,3.8-4.49,6.56l-7.77,6.35c.2,7.32.33,15-2.88,21.55-1.54,3.16-3.8,5.94-5.22,9.15-2.47,5.57-2.22,11.91-1.94,18l-1.06,6.55c1.82,6.23,1.36,13.1,4.15,19,2.16,4.52,6.11,8.09,7.71,12.83,1.12,3.29,1.08,7.1,3.19,9.86a40.07,40.07,0,0,0,3.14,3.11c2.49,2.57,3.73,6.05,4.91,9.42q6.95,19.85,13.88,39.69l4,5.7c3.53,3,5.52,7.46,7.4,11.74a40.69,40.69,0,0,0,.51-8.54,13.49,13.49,0,0,1,4.62-1.2l18.52,13.59c-.08,8.46-.16,16.93,0,25.39,0,3.41.13,6.9,1.32,10.09s3.53,6.07,5.8,8.77l4,7a14.15,14.15,0,0,1-.51,11.8,25.21,25.21,0,0,0-2.13,4.17c-.78,2.62.13,5.42,1.12,8,2.6,6.66,5.8,13.12,7.56,20s1.94,14.59-1.37,20.92c-1.75,3.35-4.46,6.37-4.87,10.12a2.54,2.54,0,0,0,.15,1.42,2.58,2.58,0,0,0,1.55,1.13c5.57,2,12.75-.95,17.11,3,2.79,2.55,3,6.79,3,10.57,0,5.59,0,11.27-1.58,16.64a50.28,50.28,0,0,1-3.61,8.53,165.89,165.89,0,0,1-12.15,20.14l-14.08,11.88-19.67,51.39c1.81,8.91.78,18.23,2.77,27.1,3.63,16.18,16.88,28.64,31.39,36.68a39,39,0,0,0,12.36,4.8c5.41.88,10.93-.13,16.41-.32,10.12-.34,20.25,2.18,30.31,1.06,4.26-.48,8.78-1.82,11.35-5.25,2.06-2.74,2.51-6.33,2.85-9.73,1.49-15,2-30.61-3.16-44.79l-5-5.67a165.38,165.38,0,0,1-24.11-43c-1.61-4.29-3.07-8.72-3.3-13.3-.3-5.81,1.37-11.66.49-17.42-.67-4.41-2.79-8.46-4.92-12.39a7.44,7.44,0,0,1-1.14-3.18,8.05,8.05,0,0,1,.91-3.32,43.5,43.5,0,0,0,2.51-25,10.08,10.08,0,0,1-.34-3.53,11.09,11.09,0,0,1,1.15-3,31.93,31.93,0,0,0,2.37-21.07l3.9-4,8-11.81a3.7,3.7,0,0,0,3.38-2,10.84,10.84,0,0,0,1.11-4c.21-1.41.42-2.82.62-4.23l-6.79-43.36c-5.07-11.62-10.22-23.49-11.33-36.11-.44-5-.25-10-.24-14.95a191.26,191.26,0,0,0-4.55-41.44l5.49,4.53,10.59,12.33a44.55,44.55,0,0,1,3.42,14.08,28.28,28.28,0,0,0,.79,6.38,21.6,21.6,0,0,0,1.93,4.1l4.64,8.29,10.4,10.62c1.69,5.58,3.81,11.25,7.92,15.38,4.55,4.59,11,6.71,17.12,8.68,3.06,1,6.23,2,9.44,1.68a24.14,24.14,0,0,0,7-2.15c9.64-4.06,19.4-8.19,27.77-14.48l5.75-11.81c4.12-7.1,8.78-14.68,16.42-17.69,6.94-2.73,15-1.07,22-3.61q-1.18-3-2.35-6.09a39.78,39.78,0,0,0,35-9.75,12.1,12.1,0,0,1-3.75-4c6.46-.33,11.66-5.15,16.47-9.47s10.66-8.7,17.07-7.83A53.84,53.84,0,0,0,1207.5,2341a38.44,38.44,0,0,1,4-20.27l-3.44-7.2c-.53-2.84-1.07-5.69-1.61-8.53-1.2-6.32-2.35-13.06.13-19,1.32-3.16,3.58-5.81,5.8-8.41a5,5,0,0,1,1.66-1.45,6.07,6.07,0,0,1,2.91-.18,15.43,15.43,0,0,0,13.4-6.4l11.24-1.22c9.08-1,18.32.65,27.37-.56s18.66-6.55,20.45-15.51c.71-3.54.13-7.31,1.28-10.73,1.52-4.54,5.74-7.54,8.69-11.32,5.65-7.25,6.44-17.05,6.74-26.23.52-16,.23-32-.06-48-.23-12.5-.53-25.36-5.38-36.9-5.6-13.31-16.64-23.43-27.36-33.11-2.53-2.28-5.13-4.61-8.27-5.92-3.74-1.56-7.92-1.56-12-1.53l-28.63.22c-10.86.08-22.14.26-31.88,5.05-5.83,2.87-10.86,7.29-16.91,9.68-7,2.76-14.73,2.62-22,4.48a41,41,0,0,0-21.76,14.16c-3.3,4.18-5.75,9-9.07,13.15-6,7.56-14.55,12.63-22.88,17.53-4.75,2.8-9.78,5.67-15.28,5.76-9.9.14-17.8-9-20.39-18.54s-1.38-19.66-1.6-29.55a100.6,100.6,0,0,0-7.56-36l-2.19-7.87-8.71-12.26c-3.2-4.51-6.54-9.47-6.28-15,0-1.14.39-2.44,1.42-2.92.76-.35,1.89-.3,2.16-1.09a7.94,7.94,0,0,0-7.15,1.52,22.88,22.88,0,0,0-4.91,5.76,26.54,26.54,0,0,0-4.53-11.83l2.89-5.43a14,14,0,0,0,2.3-4.75,5,5,0,0,0-1.41-4.85,6.74,6.74,0,0,0-4.3-1.07c-2.79,0-5.7.4-8,2a17.1,17.1,0,0,0-3.42,3.63c-1.29,1.66-2.61,3.41-2.95,5.49l-3.85,8.91a104.25,104.25,0,0,0-5.64,16.59l-10,4q-2.93,3.34-5.86,6.7a9.53,9.53,0,0,1-2.26,2.09l-6.16,1.51c-2.5-1.81-5.12-3.67-8.17-4.13-1.49-.22-3.31-.26-4.06-1.57a3.85,3.85,0,0,1-.38-1.19c-.62-3-1.25-6.1-1.87-9.14a2.08,2.08,0,0,1,0-1,1.74,1.74,0,0,1,.56-.71c1.37-1.17,3.33-1.91,3.9-3.63l2.67-4.06c3.26-.86,7-2.12,8.13-5.29.51-1.43.39-3,.75-4.49s1.53-3,3.05-2.86a3.66,3.66,0,0,1,1.88.92,14.9,14.9,0,0,1,5.26,14.26l7.28-2.26,3.39-6a72.73,72.73,0,0,0,6.07-18.63l2.08-8c-.42-14.34,8.51-27.1,12.38-40.91,1.79-6.37,2.5-13,3.64-19.48,2.11-12,5.76-23.91,11.94-34.44s15-19.71,25.91-25.21a19.56,19.56,0,0,1,6.85-2.27c3-.3,6,.54,8.86,1.36l48.15,13.69c3.69,1.05,7.9,2.05,11.18.05,3.83-2.33,4.52-7.57,4.32-12.05l1.2-9.56q1.61-6.94,2.71-14a63.83,63.83,0,0,0,24.29,12.75c1.42.38,3.38.47,3.9-.91s-.78-2.51-1.05-3.84c14.66,5.08,30.38,6,45.87,6.9a2.27,2.27,0,0,0,1.93-.5,2.24,2.24,0,0,0,.38-1.19l.54-4.76a27.33,27.33,0,0,0,13.72,6,81.34,81.34,0,0,0,15.13.6l17.88,6c7.3,5.61,17.52,5.18,26.53,3.32a106.5,106.5,0,0,0,23.34-7.71c5.68-2.63,11.47-6.13,14-11.84A20.29,20.29,0,0,0,1331.38,1847.38ZM704.32,1639.75c-6.23-.34-12.58-.66-18.61.92s-11.81,5.43-14.13,11.22l-3.3-6.5a27.14,27.14,0,0,0-2.45-8.86l.4-4.66a17,17,0,0,1,5.12-13.28c4.34-4.16,11.13-6.34,13-12,.89-2.73.5-6,2.37-8.18.66,3,1.7,6.39,4.56,7.44a6.93,6.93,0,0,0,5-.48c3-1.32,5.4-3.67,7.72-6l2.69,4.35a35.51,35.51,0,0,0,4,10.69c1.54,2.65,3.41,5.1,4.84,7.8a14.55,14.55,0,0,1,1.95,8.81l.86,9.52ZM952.7,1776.19l-3.36,9.62a10.67,10.67,0,0,1-6.2,5.33,25.62,25.62,0,0,1-8.27,1.22,8.26,8.26,0,0,1,3.8,5.79l-4.81,18.27c0,12.87-9.36,23.56-14.39,35.41-4.89,11.52-5.65,24.3-6.35,36.79q-.48,8.81-1,17.61l-4.64,7.27s-15-39.46-40-96c-23-52-47.32-107.68-66-123l-3.08-6.82c-.8-14-1.55-28.35,3.05-41.56,1.17-3.36,2.67-6.6,4.06-9.88l8.73-6.07s39.32,23.48,100.48,34.66L919,1666a16.36,16.36,0,0,1,12.72,4.32,204.51,204.51,0,0,1-34.82-.36c3.56,1.13,6.37,3.81,9.41,6s6.82,4,10.41,2.94c-3.41,3.62-8.63,4.88-13.59,5.28s-10,.14-14.82,1.46c-7.31,2-13.18,7.5-17.75,13.55a31,31,0,0,0,14.94-.43c2.36-.67,4.64-1.62,7-2.15,5.08-1.14,10.48-.37,15.5-1.74a37.92,37.92,0,0,0,7.51-3.28l12.77-6.72-14.26,10.91a13.94,13.94,0,0,0-7.05,12.15,2.84,2.84,0,0,0,.08,1.48,2.22,2.22,0,0,0,1.19,1c3.49,1.61,7.47-.5,10.72-2.55l10-6.34a61.56,61.56,0,0,0-1.4,23c3.27.18,6.14-2.06,8.52-4.31s4.86-4.75,8.09-5.31l1.21,4.66c-.43,3.9,3.17,6.89,5.12,10.29s2.27,7.29,2.58,11.11l1.45,8.62A138.63,138.63,0,0,1,952.7,1776.19Zm19.07,523.51a233,233,0,0,0,.41-28.95c1.73,2.65,4.47,4.67,5.55,7.64.79,2.18.58,4.65,1.55,6.75a14.12,14.12,0,0,0,1.67,2.52,63.18,63.18,0,0,1,10.53,20.07c.91,3.07,1.53,6.21,2.43,9.28a54,54,0,0,0,4.66,11.13,29,29,0,0,0-9.12,1.2l-3.24-1q-7.19-12.21-13.61-24.82a7.31,7.31,0,0,1-.84-2.22A7.78,7.78,0,0,1,971.77,2299.7ZM1226,1638.89c-.26-9.56,4-18.86,10.33-26s14.57-12.39,23.13-16.62c5.27-2.61,10.91-4.91,16.79-4.84s12,3,14.35,8.46c2.11,5,.51,10.91-2.65,15.31s-7.67,7.6-12,10.82c-5.78,4.28-11.48,8.77-17.86,12.1s-13.61,5.46-20.77,4.64Z"></path>
    <path data-name="2a" data-official="" data-plain="Pistil" data-loc="" d="M117,2435c-14.29,4.56-30.06-4.8-37.75-17.68S70.1,2388.9,68.87,2374c-1.38-16.9-2.18-35.49,8-49,5.18-6.89,13-12,16.14-20,3.53-8.86.53-18.86-2.93-27.74-1.64-4.23-3.43-8.73-2.53-13.17,1.8-8.87,12.82-12.27,21.85-11.88,7.62.33,15.79,2.51,20.38,8.6,5,6.67,4.32,15.82,4.89,24.15,2.26,33.19,28,63,23.74,96-2.45,19.2-14.72,35.53-26.78,50.67Z"></path>
    <path data-name="3" data-official="Erpetion reniformis" data-plain="Spurless Violet" data-loc="New Holland" d="M1329.14,1908.22c-5.88-.72-11.86.94-17.13,3.66s-9.93,6.44-14.55,10.15a32.2,32.2,0,0,0-6.14,5.86c-2.26,3.07-3.36,6.83-5.16,10.2a27.54,27.54,0,0,1-13.26,12.18l-10.47,9.36c-4.08,3-5.47,8.46-5.69,13.51s.46,10.22-.74,15.13c-2.23,9.16-10.39,15.6-18.64,20.15s-17.29,8.13-23.91,14.84a33.47,33.47,0,0,0,3,49.74l8,5.75,28.63-.22c4.05,0,8.23,0,12,1.53,3.14,1.31,5.74,3.64,8.27,5.92,10.72,9.68,21.76,19.8,27.36,33.11,4.85,11.54,5.15,24.4,5.38,36.9.29,16,.58,32,.06,48-.3,9.18-1.09,19-6.74,26.23-3,3.78-7.17,6.78-8.69,11.32-1.15,3.42-.57,7.19-1.28,10.73-1.79,9-11.39,14.29-20.45,15.51s-18.29-.46-27.37.56l-11.24,1.22a15.43,15.43,0,0,1-13.4,6.4,6.07,6.07,0,0,0-2.91.18,5,5,0,0,0-1.66,1.45c-2.22,2.6-4.48,5.25-5.8,8.41-2.48,5.93-1.33,12.67-.13,19,.54,2.84,1.08,5.69,1.61,8.53l3.44,7.2a38.44,38.44,0,0,0-4,20.27,53.84,53.84,0,0,1,34.71,14.76c-6.41-.87-12.26,3.5-17.07,7.83s-10,9.14-16.47,9.47a12.1,12.1,0,0,0,3.75,4,39.78,39.78,0,0,1-35,9.75q1.17,3,2.35,6.09c-7,2.54-15.07.88-22,3.61-7.64,3-12.3,10.59-16.42,17.69l-5.75,11.81c-8.37,6.29-18.13,10.42-27.77,14.48a24.14,24.14,0,0,1-7,2.15l-8.56,10.84a16.11,16.11,0,0,1-9.55,7.23,30.46,30.46,0,0,1-12.18.72c.51,3.4.9,7.26-1.3,9.91a11.24,11.24,0,0,1-3,2.34q-2.68,1.62-5.51,3l-5.31,3.45a15.36,15.36,0,0,0-2.81,6.4l-.61,5.92c-.2,1.41-.41,2.82-.62,4.23a10.84,10.84,0,0,1-1.11,4,3.7,3.7,0,0,1-3.38,2l-8,11.81-3.9,4a31.93,31.93,0,0,1-2.37,21.07,11.09,11.09,0,0,0-1.15,3,10.08,10.08,0,0,0,.34,3.53,43.5,43.5,0,0,1-2.51,25,8.05,8.05,0,0,0-.91,3.32,7.44,7.44,0,0,0,1.14,3.18c2.13,3.93,4.25,8,4.92,12.39.88,5.76-.79,11.61-.49,17.42.23,4.58,1.69,9,3.3,13.3a165.38,165.38,0,0,0,24.11,43l7.52-3.85c8.93.84,18.75,1.46,26-3.77,4.53-3.25,7.35-8.28,10.15-13.1q8-13.74,17-26.81a56.41,56.41,0,0,1,8.51-10.27c11.83-10.53,29.64-10.38,43.79-17.49l27.35-3.57c21.57,20.94,54.73,23.77,84.75,22s61-6.76,89.53,2.75a92.31,92.31,0,0,1,43.94,31.42c6.8,8.92,11.93,19,19.12,27.66,20.82,24.9,57,33.39,88.74,26.67s59.37-26.59,81.75-50.1c7.86-8.25,15.43-17.19,25.53-22.45,8.59-4.47,18.43-6,28.11-6.23,30.58-.85,62.17,9.64,91.19-.06,34.8-11.62,54-47.86,69.88-81l-.72-17.11c-1.52-16.35-14.88-29.58-29.9-36.21s-31.72-8.05-48-10.28-33-5.62-46.23-15.39c-20-14.84-27.63-40.89-42.3-61.05a101.52,101.52,0,0,0-65.58-40.07c-31-4.84-64.68,4.62-92.87-9.09-3.42-1.65-6.8-3.75-8.82-7-2.37-3.79-2.5-8.52-2.51-13q0-23.55,1.77-47.06c.86-11.18,2.11-22.64,7.21-32.62,13.5-26.43,49.39-35,63.44-61.13,8.9-16.55,6.48-38.48-5.81-52.69l-8.64-16.92c-6.65-16-5.8-33.86-6.24-51.13s-2.82-35.76-14.24-48.74a60.08,60.08,0,0,0-11.58-9.86,55,55,0,0,0-11.69-6.31,37.32,37.32,0,0,0-18.5-1.87l-6.26-1.31c-30.44-5.38-63,10.67-92-.3l-17.87-.23c-5.84-4.42-6.29-12.86-6.37-20.18s-1-15.84-7.18-19.73a35.74,35.74,0,0,0,1.21-23.38l-2.47-22.06Z"></path>
    <path data-name="4" data-official="Corynostylis Hybanthus" data-plain="" data-loc="" d="M1354.63,1932.86l-2.47-22.06-23-2.58h0c-5.88-.72-11.86.94-17.13,3.66s-9.93,6.44-14.55,10.15a32.2,32.2,0,0,0-6.14,5.86c-2.26,3.07-3.36,6.83-5.16,10.2a27.54,27.54,0,0,1-13.26,12.18l-5.71-.41c-5.88-7.3-15.6-10.06-23.35-15.31-4.77-3.23-8.79-7.41-13-11.3-9.56-8.77-20.32-16.13-31-23.45l-2.91-10.23c-.24-1.8-.49-3.59-.73-5.38a7.43,7.43,0,0,1,.24-4.19,11.61,11.61,0,0,1,2.25-2.66,10.59,10.59,0,0,0,2.53-4.69l2.24-3.57c4.52.37,9.06.63,13.58.89a2.27,2.27,0,0,0,1.93-.5,2.24,2.24,0,0,0,.38-1.19l.54-4.76a27.33,27.33,0,0,0,13.72,6,81.34,81.34,0,0,0,15.13.6l17.88,6c7.3,5.61,17.52,5.18,26.53,3.32a106.5,106.5,0,0,0,23.34-7.71c5.68-2.63,11.47-6.13,14-11.84a20.29,20.29,0,0,0,.91-12.52c-1.72-8.08-6.73-15.18-12.87-20.71s-13.39-9.68-20.66-13.6a557.43,557.43,0,0,0-86.29-37.6l-8.7-1.49c-9,6.22-20.63,7-31.59,7.55s-22.55,1.34-31.59,7.56c-.88-2.78-4-4.11-6.92-4.54a23.23,23.23,0,0,0-10.28.79l-1-3.91c-7.88-5.91-10.26-16.57-11.3-26.36-.52-4.9-1-10.23-4.37-13.85l-2.24-5q-3.06-6.18-6.1-12.35c-5.94-12-12-24.41-13-37.77l.77-9.26c2.53-3.67,5.33-7.36,6.18-11.74a35.26,35.26,0,0,1-10.9-.22l9.84-10.35c1.63-1.72,3.26-3.43,5-5.07a82.51,82.51,0,0,1,19.35-13.91,14.11,14.11,0,0,1,5.44-1.87,5.44,5.44,0,0,1,5,2.21l4.27-1.43a31.27,31.27,0,0,1,9.7-2.46l12.76,3a49.19,49.19,0,0,0,29.34,5.32l9.86,6.77c7.85-9.5,15.8-19.18,20.68-30.49,4.72-10.92,6.38-22.91,7.13-34.77l-5.09-9.09c.23-3.37-1-6.64-2.26-9.78l-6.73-17.16.33-10.64q-.48-31.78-3.4-63.48a58.09,58.09,0,0,0-1.06-7.58c-.58-2.49-1.47-4.89-2.16-7.34-1.7-6-2.17-12.33-3.78-18.37l-.76-7.69c-1.8-5.38-2.53-11.06-3.53-16.66a174.37,174.37,0,0,0-10.14-35c-1.06-2.6-2.25-5.26-4.36-7.11-2.32-2-5.47-2.81-8.53-3.21a16.45,16.45,0,0,0-7.52.43,18.21,18.21,0,0,0-6.28,4.37c-8.35,8-15.13,17.5-23.41,25.57s-18.66,14.85-30.2,15.39l-6.79,3.85c-3.17,4.51-7.7,8.34-13.1,9.42a49.31,49.31,0,0,1-5.7.55c-8.1.65-16.38,3.75-21.42,10.13a31.77,31.77,0,0,1-.61-12.95c-3.07.68-5.27,3.55-6.1,6.58s-.54,6.24-.24,9.37a32.67,32.67,0,0,0-10.58,6.93l-4-11.7c-.36-2.54-.72-5.21.2-7.6,1.37-3.56,5.13-5.53,8.63-7s7.31-3.15,9.16-6.49c1.75-3.15,1.26-7.08.13-10.51-1.67-5-5.08-10-10.18-11.47a23.07,23.07,0,0,0-6-.65l-6-.1c4.61-4,7-10.16,7.43-16.26s-.87-12.19-2.62-18a32.75,32.75,0,0,0-3.86-9,13.35,13.35,0,0,0-7.69-5.76l-7.13-3.22q-10.12-6-20.28-11.93c-4.45-2.59-8.95-5.18-13.85-6.78-8.57-2.79-17.81-2.37-26.81-1.92-4.29.22-8.68.46-12.65,2.09-6.21,2.55-10.61,8.16-14,13.94a87.57,87.57,0,0,0-11.36,55.91l-.45,14a16,16,0,0,0,3,10.09,47.75,47.75,0,0,0,7.21,7.9l9.74,9.18,5.81,1.31c.85.13,1.08,1.24,1.11,2.1q1,30.6,1.94,61.19l-4.17,4.31a124.38,124.38,0,0,0-10.11-9.24,17.85,17.85,0,0,1-2.69,9.4,104.6,104.6,0,0,1-16.94-10.09,4.57,4.57,0,0,0-2.3-1.1c-1.61-.11-2.87,1.47-4.46,1.71a4.22,4.22,0,0,1-3.82-2c-.89-1.23-1.41-2.7-2.27-4a9.11,9.11,0,0,0-9.51-3.62,4.85,4.85,0,0,1-1.87.29,4.56,4.56,0,0,1-1.83-1c-3.24-2.28-7.41-2.6-11.3-3.41-12.4-2.59-23.57-10.89-36.24-10.78-4.82,0-9.54,1.32-14.15,2.75-5.4,1.67-10.83,3.61-15.34,7l1.36,1.35c-3.68.69-5.66,5.77-3.41,8.77a3.75,3.75,0,0,1,.84,1.38c.1.54-.29,1.21-.82,1.13a73.8,73.8,0,0,0,18.76,11.18c4,1.64,8.65,2.92,12.61,1.13l2.67-1.28c3-1.27,6.4,0,9.61.6a22.51,22.51,0,0,0,11.78-1c3.07-1.13,6.24-3,9.38-2.07a29.13,29.13,0,0,1,3.38,1.52,9.4,9.4,0,0,0,8.74-.87,6.79,6.79,0,0,1,2.37-1.32c.8-.15,1.69.09,2.39-.32s.95-1.31,1.65-1.67a2.63,2.63,0,0,1,1.22-.17,43,43,0,0,1,9.75.86c3.81.93,7.28,2.87,10.69,4.79l8.89,5-4.23,5.1.51,7.83a25.83,25.83,0,0,0-2.33,4.93,13,13,0,0,1-1.93,4.26,7,7,0,0,1-4.08,2.23,21.27,21.27,0,0,1-4.72.23l-6.39,1.63a68.17,68.17,0,0,1-20.77-17.37c-.16,2.26-.3,4.52-.44,6.78q-.76,12.06-1.52,24.14l-6.79,7-13.16,6.36c-4.47-.93-7.58-4.83-10.83-8a46.78,46.78,0,0,0-15.21-10,25.49,25.49,0,0,1-.57,8.67c-1.43,5.06-5.55,9.74-4.38,14.87a30.47,30.47,0,0,0-7.38-.6,40.16,40.16,0,0,0-.87,8.18l-21.86,8.22c-5.4,1.07-9.45,6.58-15,6.52l-5.08-3.79a159.84,159.84,0,0,1-16.3-4.09c-3.41-1-7-2.34-9.24-5.08-.81-1-1.43-2.12-2.3-3.06a4.13,4.13,0,0,0-3.36-1.52,2.18,2.18,0,0,0-1.88,2.73,20.37,20.37,0,0,0-6.79.19c.73-4.16-2-8.38-5.66-10.47s-8.1-2.39-12.32-2.08h-.13c3.61-7.16,5.69-15.26,4.77-23.22s-5.1-15.72-11.91-20c-.58,2.69-3.87,3.69-6.62,3.84-4.71.27-9.42-.47-14.14-.36s-9.69,1.19-13.07,4.48a118.37,118.37,0,0,0-10.06-19.71,2.11,2.11,0,0,0-.68-.77,2.21,2.21,0,0,0-1.44-.09,54.94,54.94,0,0,0-20.22,8c-3.92,2.55-7.6,5.72-9.78,9.86-2,3.7-2.6,8-2.82,12.12a65.38,65.38,0,0,0,1.18,16.16,41.42,41.42,0,0,0-13.72,15.34c-.61,1.19-1.17,2.61-.61,3.82a6.77,6.77,0,0,0,1.39,1.64c3.3,3.41,3.07,8.78,2.89,13.52s.31,10.3,4.28,12.9l-8.38,4.65-19.26,6-18.88.81q-43.47-1.59-86.74-6.43c-22.75-2.55-45.58-5.8-67.28-13.06-62.28-20.82-109.47-72.22-168.66-100.66-57.54-27.64-123.1-32.13-186.84-35.49-6.13-.32-12.45-.69-18-3.35s-10.13-8.25-9.68-14.38a18.41,18.41,0,0,1,3.42-8.62c11.38-17.32,32.68-24.55,51.93-32.23,73.8-29.44,138.24-81.21,215-101.91l33.39,10.2,51.2-2.74a2.61,2.61,0,0,0-1.5-3c5.46-3.35,11.86-4.79,18.2-5.76,16.31-2.5,32.9-2.2,49.4-1.9q.09-3,.17-6a36.23,36.23,0,0,0,19.48-4.61l5.66-2.08c11.93-3.66,24.71-2.84,37.16-2a97.61,97.61,0,0,1,16.63,2.1c6.78,1.67,13.12,4.78,19.16,8.27a152.63,152.63,0,0,1,44.45,39l10.42,14.32c-12.53,7.72-17.29,23.92-16.74,38.62s5.32,28.9,7.32,43.48c.88,6.51,1.27,11.28,4.24,17.13,3.32,6.56,9.46,11.15,15.38,15.5,6.64,4.88,13.56,9.88,21.65,11.48,6.19,1.23,12.61.35,18.9,1,5,.52,9.86,2,14.85,1.85,8.28-.24,16-4.88,24.24-5,7.14-.08,14.47,3.22,21.2.86,3.47-1.22,6.27-3.8,9.58-5.38,7.5-3.58,17.39-2.1,22.31,4.6,0,0,2.1-7.83,5.93-10.19,1.19-.73,2.56-1.15,3.74-1.91,1.35-.86,2.4-2.13,3.7-3.06,5.46-3.91,13-.87,19.7-1.64,6.88-.8,12.82-5.74,19.73-6.21,4.2-.29,8.4,1.1,12.57.61,4.57-.55,8.64-3.31,13.2-3.94,3.44-.47,6.9.3,10.36.62a36.45,36.45,0,0,0,18.68-3.2,34.46,34.46,0,0,0,18.7-23.39c.91-4.09,1-8.33,2.12-12.38s3.3-8.09,7.06-9.93l1.88-16.48q3.81-38.3,7.63-76.59c2-20.37,4.07-40.89,2.12-61.26s-8.17-40.83-21-56.75c-19.25-23.83-51.61-35.64-67-62.14-4.61-8-7.41-16.8-10.17-25.57l-34.2-108.64-7.06-20.7c-3.48-10.6-13.29-18.45-15.73-29.33-.8-3.58-.75-7.31-1.53-10.9-1.24-5.72-4.51-10.77-7.71-15.68a27.11,27.11,0,0,1-4.15,15.15l-5.41,1.44a62.32,62.32,0,0,1-36.35-23.91l-5.73-12.89c11.83-3.73,25.41-2.28,35.86-8.95,6-3.86,10.31-10.1,12.72-16.85s3.06-14,3-21.17c-.18-22.76-7.42-45-18-65.18-2.14-4.08-4.49-8.17-7.94-11.22-8.44-7.45-21.22-7-32.2-4.43a116.36,116.36,0,0,0-20.49,6.79l-.6-.87a43.22,43.22,0,0,0-20.78-25.76c-1-.57-2.22-1.2-2.6-2.33a4.07,4.07,0,0,1-.09-1.67c.64-5.87,4.4-10.87,8-15.54L647,709c4.7-9.66,5.5-20.74,5.29-31.47a187.2,187.2,0,0,0-4.69-38.09l2.73-7.66c.51-6.79,1.52-14.2,6.51-18.84a22.16,22.16,0,0,0,2.57-2.46c1.86-2.42,1.68-5.81,1.24-8.83s-1-6.26.3-9a12.66,12.66,0,0,1,3.65-4.17,17.59,17.59,0,0,1,5.55-3.33c2.54-.82,5.28-.64,7.94-.45h.28c3.42-2.64,4.6-7.17,6-11.26,3.61-10.58,10-20.08,17.31-28.5,2.27-2.58,5.25-5.3,8.64-4.71q2-4.5,4.1-9L717,509.66c20.92-7.92,35.64-27.58,43-48.69s8.52-43.82,9.57-66.17c.95-20.16,1.38-42.11-10.63-58.33-14.14-19.08-40.37-23.62-60.59-36.09-43.52-26.83-52.79-91.42-27.82-136s75.7-70,126.37-76.92C820.46,84.23,847,83.3,863.28,66c6.3-6.73,10.3-15.32,16.28-22.34,9.62-11.33,23.73-17.86,37.92-22.26,57.85-17.94,124.58-3.68,170,36.34,7.2,6.34,14.28,13.5,23.51,16.14,9,2.57,18.5.46,27.72-1,33.5-5.16,69.11-.44,98.24,16.9s50.91,48,53.82,81.8c1.64,19-1.06,41.63,13.79,53.54,6,4.82,13.84,6.7,21.48,7.66,37,4.66,78.73-8.06,109.51,13.06,25.37,17.4,32.83,53.33,24.21,82.85s-30.16,53.52-53.35,73.72-48.77,37.84-69.53,60.54c-4.29,4.7-8.54,10-9.32,16.29-1.22,9.85,6.76,19,16.05,22.46s19.56,2.7,29.45,1.86c51.28-4.37,104.06-8.56,153.25,6.55s94.61,54.3,101.11,105.36l7.33,33c14.35,38.56,53.6,66.47,94.73,67.36,39.42.85,75.35-20.39,111.85-35.31a366.84,366.84,0,0,1,163.81-26.29c19.35,1.35,40.08,5,53.69,18.78,8.88,9,13.62,21.49,15.48,34,4.79,32.4-8.73,65.61-30.3,90.26s-50.48,41.73-80.2,55.5c-22.63,10.48-47.76,20.77-59.88,42.56-9.32,16.75-8.94,37-9.18,56.11-2.26,181.81-87,361-226,478.11l-6.52,7.4c-33.21,27.81-72.1,48-106.67,74.07a147.83,147.83,0,0,0-19.18,16.66c-4.66,5-8.75,10.49-13.46,15.41-6.79,7.09-14.78,12.9-22.49,19a346.38,346.38,0,0,0-70.13,74.31c-6.71,9.68-13,19.9-16.19,31.24s-3.14,24,2.44,34.39l4.33,10.37c15,10.46,25.21,26.25,35.06,41.63l37.47,58.49,1,16.12c19.74,43.2,39.66,86.71,67.38,125.28,16.16,22.49,34.89,43.18,49.17,66.92,18.27,30.38,28.64,64.71,42.11,97.5,31.54,76.77,80.63,146.2,104.2,225.77,3.08,10.42,5.08,23.36-2.94,30.69-7,6.42-18.13,4.9-27.07,1.64-18-6.56-33.59-18.28-50.93-26.37a136.86,136.86,0,0,0-65.1-12.54l-14.92-3.05-21.87-72.83c-4.41-14.71-8.86-29.56-10-44.88a104.92,104.92,0,0,1,1-23.49l-5.72-7.74c8.9-16.55,6.48-38.48-5.81-52.69l-8.64-16.92c-6.65-16-5.8-33.86-6.24-51.13s-2.82-35.76-14.24-48.74a60.08,60.08,0,0,0-11.58-9.86,55,55,0,0,0-11.69-6.31,37.32,37.32,0,0,0-18.5-1.87l-6.26-1.31c-30.44-5.38-63,10.67-92-.3l-17.87-.23c-5.84-4.42-6.29-12.86-6.37-20.18s-1-15.84-7.18-19.73a35.74,35.74,0,0,0,1.21-23.38Zm-66.7-317.69c-3.16,4.39-7.67,7.6-12,10.82-5.78,4.28-11.48,8.77-17.86,12.1s-13.61,5.46-20.77,4.64l-11.3-3.84c-.26-9.56,4-18.86,10.33-26s14.57-12.39,23.13-16.62c5.27-2.61,10.91-4.91,16.79-4.84s12,3,14.35,8.46C1292.69,1604.84,1291.09,1610.77,1287.93,1615.17Z"></path>
    <path data-name="4a" data-official="" data-plain="Seed-vessels" data-loc="" d="M1781.57,1763.28c38.62,1.15,79.29,2.88,112.06,23.34,34.31,21.41,54.16,60.06,65.62,98.84,17.26,58.44,18.7,122.91-4.47,179.27-7.73,18.81-18,36.43-28.3,54-8,13.76-16.17,27.62-26.68,39.6-9.44,10.77-20.66,19.85-30.53,30.24-19.3,20.33-33.27,45.53-54.27,64.1s-53.39,29.21-77,14.12l-15.67-8.85c-22.91-46.51-49.48-91.63-69.19-139.61-13.47-32.79-23.84-67.12-42.11-97.5-14.28-23.74-33-44.43-49.17-66.92-27.72-38.57-47.64-82.08-67.38-125.28l-1-16.12L1461,1738.28a360.49,360.49,0,0,1,36.15-158.78l3.33-17.44c7.71-6.09,15.7-11.9,22.49-19,4.71-4.92,8.8-10.42,13.46-15.41a147.83,147.83,0,0,1,19.18-16.66c34.57-26.09,73.46-46.26,106.67-74.07l10.12,8.53c34.07-1.48,62.67,24.52,84.77,50.49,9.44,11.09,18.63,22.75,24,36.32,5.77,14.72,6.64,30.84,7.45,46.63,1.62,31.73,3.23,63.66-.84,95.17Z"></path>
    <path data-name="4b" data-official="" data-plain="Seed" data-loc="" d="M1779.24,2350.12a174.41,174.41,0,0,1,22.3-50.91c6.49-10,14-19.47,19.1-30.3,3-6.42,5.17-13.41,9.77-18.8s12.7-8.75,18.89-5.3c2.69,1.5,4.81,4.13,7.81,4.78,2.44.53,4.92-.37,7.34-1,17.16-4.52,35.21,4.64,48,16.94a103,103,0,0,1,31.2,72c.15,10.58-1.43,21.35-6.1,30.84s-12.68,17.61-22.7,21c-10.91,3.68-24.57,2.28-32,11.05-4.07,4.78-5.08,11.46-8.41,16.79-5.8,9.25-17.47,12.83-28.29,14.34-6.63.93-13.51,1.35-19.9-.63s-12.26-6.76-13.94-13.24,1-13.74-.82-20.27c-2.12-7.37-9.35-11.83-15.81-16s-13.29-9.7-13.7-17.36Z"></path>
    <path data-name="4c" data-official="" data-plain="Pistil and Calyx" data-loc="" d="M1850.37,1605.21a446.75,446.75,0,0,0,4.16-107.62c-.78-9.51-1.87-19.18,0-28.53s7.4-18.56,16.22-22.21c4.85-2,10.3-2.17,15.5-1.48a49.42,49.42,0,0,1,41.89,59c-3.4,16.43-14.76,29.9-22,45.05-4.59,9.68-7.48,20.07-10.35,30.39-1.72,6.22-3.46,12.65-2.59,19,.77,5.56,3.46,10.64,6.11,15.59l6.9,12.9a11,11,0,0,0,3.1,4.09c2.85,2,6.71.86,10.14,1.31,8.3,1.09,12.34,10.69,13.74,19,.25,1.46.53,3,1.61,4.06,1.31,1.22,3.28,1.19,5,1.51,5.26,1,9.21,5.65,10.88,10.73s1.46,10.56,1.25,15.91-.55,10.82-3.71,15c-2.11,2.8-5.24,4.61-8.37,6.18-12.37,6.22-27.44,11.35-32.32,24.31-1.49,4-1.85,8.38-4.1,12s-6,5.82-8.76,9c-3.52,4.15-5.21,9.88-9.6,13.1-7.25,5.31-17.76,1-24.12-5.38s-11-14.65-18.73-19.23c-9.78-5.8-23.49-5-30.7-13.82-3.15-3.86-4.4-8.92-5.05-13.87-2.66-20.13,2.81-42-6.68-60-1.87-3.53-4.28-6.81-5.59-10.58s-1.31-8.36,1.34-11.35c2.1-2.36,5.34-3.24,8.34-4.25a60.67,60.67,0,0,0,26.62-18.06Z"></path>
    <path data-name="4d" data-official="" data-plain="Stamens" data-loc="" d="M1954.86,1710.17c-5.43-.22-10.27,3.93-12.55,8.86s-2.54,10.51-2.77,15.94q-1.11,27.27-2.23,54.53c-.54,13.14-.43,28,9,37.12,3.62,3.49,8.28,5.73,12,9.16,5.86,5.49,8.62,13.41,11.82,20.78a143.18,143.18,0,0,0,14.72,26.06c8.59,12.05,19.44,23,33.1,28.71s30.48,5.27,42.21-3.75a22.58,22.58,0,0,0,6.94-8.23c4.33-9.38-1.53-21.35-10.91-25.68-2.8-1.29-5.9-2.07-8.31-4-5.23-4.14-5.48-11.83-5.32-18.49.27-11.38.13-23.69-6.66-32.82-3.1-4.15-7.34-7.29-10.81-11.14-8.74-9.68-12-23.09-13.55-36s-1.92-26.21-6.16-38.55-13.42-24-26.16-26.74Z"></path>
    <path data-name="4e" data-official="" data-plain="Stamen" data-loc="" d="M1971,1653.91c-1.17-6.31-8.54-8.86-13.8-12.52-10.82-7.54-14-22.33-13-35.48s5.2-26,5.48-39.14c.15-7.35-.93-14.68-.84-22,.16-12.63,4.08-25.57,12.76-34.74s22.53-13.86,34.5-9.82c11.47,3.87,19.39,14.86,22.78,26.49s3,24,2.55,36.08l-2.41,66.42c-.16,4.43-.31,9,1.18,13.16,3.86,10.81,17.57,16.36,19.8,27.62,1.24,6.24-1.64,12.8-6.28,17.15s-10.78,6.76-17,8.14c-7.81,1.73-17,1.57-22.51-4.28-3.72-4-4.79-9.68-6.62-14.82s-5.35-10.51-10.76-11.19Z"></path>
    <path data-name="4f" data-official="" data-plain="Cross-section of Ovary" data-loc="" d="M1920.38,2228.11c-12.22-15.59-14.67-38.23-6.08-56.08,1.81-3.75,4.08-7.34,5.07-11.39.71-2.89.74-5.9,1.32-8.81,1.26-6.28,5-11.81,9.39-16.45a61,61,0,0,1,89.47.92,57.24,57.24,0,0,0,5.08,5.36c2.82,2.41,6.26,4,9.48,5.82,13.83,7.95,24.07,22.15,26.53,37.91s-3.17,32.73-15.06,43.37c-6.78,6.08-15.48,10.25-20.5,17.84-8.18,12.34-5.1,31.39-17,40.16-5.52,4.06-12.82,4.59-19.67,4.52-8-.08-17.15-1.41-21.58-8.08-6.44-9.68.85-25.09-7.44-33.24-4.23-4.16-10.76-4.45-16.51-5.87a37.89,37.89,0,0,1-14.79-7.38"></path>
    <path data-name="5" data-official="Ionidium Itoubou" data-plain="" data-loc="Guiana" d="M704.32,1639.75c-6.23-.34-12.58-.66-18.61.92s-11.81,5.43-14.13,11.22l-3.3-6.5a27.14,27.14,0,0,0-2.45-8.86l.4-4.66a17,17,0,0,1,5.12-13.28c4.34-4.16,11.13-6.34,13-12,.89-2.73.5-6,2.37-8.18.66,3,1.7,6.39,4.56,7.44a6.93,6.93,0,0,0,5-.48c3-1.32,5.4-3.67,7.72-6l2.69,4.35a35.51,35.51,0,0,0,4,10.69c1.54,2.65,3.41,5.1,4.84,7.8a14.55,14.55,0,0,1,1.95,8.81l.86,9.52Zm50.42,137.38a26.53,26.53,0,0,0-3.16,16.85l-3.94-1.19a209.46,209.46,0,0,0-3.55,38.55,25.38,25.38,0,0,1-6.22-.23,38.25,38.25,0,0,0-2,9.92l-12.62-4.2-15.74-31.47,3.07-5.47c.77-4,0-8,0-12s1.06-8.47,4.4-10.71a27.66,27.66,0,0,1,5-2.14,18.3,18.3,0,0,0,9.87-9.71,6,6,0,0,1,1.32,3.37,30.32,30.32,0,0,0,4.14-28.09l5.84,2.16ZM665.25,467.76C638.78,453.05,629.16,419.3,629.6,389s8.32-60.34,6-90.53c-2.18-28-13-54.47-24.53-80.05C586.51,163.94,553.65,106.79,497.7,85.8c-38.46-14.44-83.15-8.52-118.58,12.27s-61.74,55.42-76,93.93c-8.93,24.09-13.63,50.11-27.33,71.84-9.94,15.77-24.25,28.62-32.87,45.15-17.29,33.16-8.42,73.48,2.7,109.19s24.24,73.57,14.23,109.61c-4.83,17.39-14.75,32.86-24.64,48C178.32,662.54,115.65,753.51,112.6,857.21l-9.38,17.51c-2.86,42.08,17.07,86,1.9,125.34-8.82,22.86-28.1,39.8-42,60-13.26,19.26-21.58,41.46-28.7,63.73-8.3,25.92-15.23,53-12.71,80.06,1.72,18.57,7.82,36.43,13.88,54.07,13.87,40.45,28,81.34,51.1,117.29l7.11,20.15c73.8-29.44,138.24-81.21,215-101.91l33.39,10.2,51.2-2.74a2.61,2.61,0,0,0-1.5-3c5.46-3.35,11.86-4.79,18.2-5.76,16.31-2.5,32.9-2.2,49.4-1.9q.09-3,.17-6a36.23,36.23,0,0,0,19.48-4.61l5.66-2.08c11.93-3.66,24.71-2.84,37.16-2a97.61,97.61,0,0,1,16.63,2.1c6.78,1.67,13.12,4.78,19.16,8.27a152.63,152.63,0,0,1,44.45,39l10.42,14.32c-12.53,7.72-17.29,23.92-16.74,38.62s5.32,28.9,7.32,43.48c.88,6.51,1.27,11.28,4.24,17.13,3.32,6.56,9.46,11.15,15.38,15.5,6.64,4.88,13.56,9.88,21.65,11.48,6.19,1.23,12.61.35,18.9,1,5,.52,9.86,2,14.85,1.85,8.28-.24,16-4.88,24.24-5,7.14-.08,14.47,3.22,21.2.86,3.47-1.22,6.27-3.8,9.58-5.38,7.5-3.58,17.39-2.1,22.31,4.6,0,0,2.1-7.83,5.93-10.19,1.19-.73,2.56-1.15,3.74-1.91,1.35-.86,2.4-2.13,3.7-3.06,5.46-3.91,13-.87,19.7-1.64,6.88-.8,12.82-5.74,19.73-6.21,4.2-.29,8.4,1.1,12.57.61,4.57-.55,8.64-3.31,13.2-3.94,3.44-.47,6.9.3,10.36.62a36.45,36.45,0,0,0,18.68-3.2,34.46,34.46,0,0,0,18.7-23.39c.91-4.09,1-8.33,2.12-12.38s3.3-8.09,7.06-9.93l1.88-16.48q3.81-38.3,7.63-76.59c2-20.37,4.07-40.89,2.12-61.26s-8.17-40.83-21-56.75c-19.25-23.83-51.61-35.64-67-62.14-4.61-8-7.41-16.8-10.17-25.57l-34.2-108.64-7.06-20.7c-3.48-10.6-13.29-18.45-15.73-29.33-.8-3.58-.75-7.31-1.53-10.9-1.24-5.72-4.51-10.77-7.71-15.68a27.11,27.11,0,0,1-4.15,15.15l-5.41,1.44a62.32,62.32,0,0,1-36.35-23.91l-5.73-12.89c11.83-3.73,25.41-2.28,35.86-8.95,6-3.86,10.31-10.1,12.72-16.85s3.06-14,3-21.17c-.18-22.76-7.42-45-18-65.18-2.14-4.08-4.49-8.17-7.94-11.22-8.44-7.45-21.22-7-32.2-4.43a116.36,116.36,0,0,0-20.49,6.79l-.6-.87a43.22,43.22,0,0,0-20.78-25.76c-1-.57-2.22-1.2-2.6-2.33a4.07,4.07,0,0,1-.09-1.67c.64-5.87,4.4-10.87,8-15.54L647,709c4.7-9.66,5.5-20.74,5.29-31.47a187.2,187.2,0,0,0-4.69-38.09l2.73-7.66c.51-6.79,1.52-14.2,6.51-18.84a22.16,22.16,0,0,0,2.57-2.46c1.86-2.42,1.68-5.81,1.24-8.83s-1-6.26.3-9a12.66,12.66,0,0,1,3.65-4.17,17.59,17.59,0,0,1,5.55-3.33c2.54-.82,5.28-.64,7.94-.45h.28c3.42-2.64,4.6-7.17,6-11.26,3.61-10.58,10-20.08,17.31-28.5,2.27-2.58,5.25-5.3,8.64-4.71q2-4.5,4.1-9L717,509.66Z"></path>
    <path data-name="6" data-official="Alsodea Physiphora" data-plain="" data-loc="Brazil" d="M1052,2492.44l-6.79-43.36c-5.07-11.62-10.22-23.49-11.33-36.11-.44-5-.25-10-.24-14.95a191.26,191.26,0,0,0-4.55-41.44l5.49,4.53,10.59,12.33a44.55,44.55,0,0,1,3.42,14.08,28.28,28.28,0,0,0,.79,6.38,21.6,21.6,0,0,0,1.93,4.1l4.64,8.29,10.4,10.62c1.69,5.58,3.81,11.25,7.92,15.38,4.55,4.59,11,6.71,17.12,8.68,3.06,1,6.23,2,9.44,1.68M865,1553.51c-3,2.53-4.14,6.67-4,10.56s1.45,7.65,2.73,11.32,2.65,7.56,4,11.34l.72,5a6.69,6.69,0,0,1-.25,7.23c4.3,3.52,5.75,9.34,7.84,14.49a51,51,0,0,0,10,15.72c0,.92-1.64.73-2.13,1.52a1.56,1.56,0,0,0-.1,1.09,19.49,19.49,0,0,0,5.92,10.42,46.71,46.71,0,0,0,10,6.94c4.87,2.73,10,5.24,15.54,5.94l.26,2.46c-61-12-100-36-100-36L810.36,1610c-.62-2.85-1.23-5.7-1.85-8.55-1.06-4.91-2.17-10-5-14.09s-7.85-7.2-12.77-6.23m162,195.07-3.36,9.62a10.67,10.67,0,0,1-6.2,5.33,25.62,25.62,0,0,1-8.27,1.22,8.26,8.26,0,0,1,3.8,5.79l-4.81,18.27c0,12.87-9.36,23.56-14.39,35.41-4.89,11.52-5.65,24.3-6.35,36.79q-.48,8.81-1,17.61l-4.64,7.27s-15-39.46-40-96c-23-52-47.32-107.68-66-123l-3.08-6.82c-.8-14-1.55-28.35,3.05-41.56,1.17-3.36,2.67-6.6,4.06-9.88l8.73-6.07s39.32,23.48,100.48,34.66L919,1666a16.36,16.36,0,0,1,12.72,4.32,204.51,204.51,0,0,1-34.82-.36c3.56,1.13,6.37,3.81,9.41,6s6.82,4,10.41,2.94c-3.41,3.62-8.63,4.88-13.59,5.28s-10,.14-14.82,1.46c-7.31,2-13.18,7.5-17.75,13.55a31,31,0,0,0,14.94-.43c2.36-.67,4.64-1.62,7-2.15,5.08-1.14,10.48-.37,15.5-1.74a37.92,37.92,0,0,0,7.51-3.28l12.77-6.72-14.26,10.91a13.94,13.94,0,0,0-7.05,12.15,2.84,2.84,0,0,0,.08,1.48,2.22,2.22,0,0,0,1.19,1c3.49,1.61,7.47-.5,10.72-2.55l10-6.34a61.56,61.56,0,0,0-1.4,23c3.27.18,6.14-2.06,8.52-4.31s4.86-4.75,8.09-5.31l1.21,4.66c-.43,3.9,3.17,6.89,5.12,10.29s2.27,7.29,2.58,11.11l1.45,8.62A138.63,138.63,0,0,1,952.7,1776.19Zm19.07,523.51a233,233,0,0,0,.41-28.95c1.73,2.65,4.47,4.67,5.55,7.64.79,2.18.58,4.65,1.55,6.75a14.12,14.12,0,0,0,1.67,2.52,63.18,63.18,0,0,1,10.53,20.07c.91,3.07,1.53,6.21,2.43,9.28a54,54,0,0,0,4.66,11.13,29,29,0,0,0-9.12,1.2l-3.24-1q-7.19-12.21-13.61-24.82a7.31,7.31,0,0,1-.84-2.22A7.78,7.78,0,0,1,971.77,2299.7Zm129,143-8.56,10.84a16.11,16.11,0,0,1-9.55,7.23,30.46,30.46,0,0,1-12.18.72c.51,3.4.9,7.26-1.3,9.91a11.24,11.24,0,0,1-3,2.34q-2.68,1.62-5.51,3l-5.31,3.45a15.36,15.36,0,0,0-2.81,6.4l-.61,5.92M865,1553.51l-13.16,6.36c-4.47-.93-7.58-4.83-10.83-8a46.78,46.78,0,0,0-15.21-10,25.49,25.49,0,0,1-.57,8.67c-1.43,5.06-5.55,9.74-4.38,14.87a30.47,30.47,0,0,0-7.38-.6,40.16,40.16,0,0,0-.87,8.18l-21.86,8.22m332,1055.82c9.59,13,19.36,26.41,23.67,42,2.41,8.72,3.37,18.56,9.83,24.89,9,8.79,23.62,6.45,35.68,10,11.81,3.43,22.38,12.9,34.59,11.48,9.28-1.09,16.85-8.63,20.34-17.3s3.54-18.31,2.88-27.63c-2.33-32.71-14.48-66.66-40.93-86l-7-9.53-27.35,3.57c-14.15,7.11-32,7-43.79,17.49a56.41,56.41,0,0,0-8.51,10.27ZM673.9,1818.05c-12.31-.12-24.29-3.76-35.93-7.78-7-2.41-14.13-5.1-19.49-10.18-8.56-8.09-11-20.67-11.58-32.44l-26.34-8.48a278.07,278.07,0,0,0-34.93-41.56c-11.6-11.34-24.15-21.64-36.74-31.87-42.66-34.67-86.42-69.06-136.56-91.59a337.73,337.73,0,0,0-161.79-28.64l-24.07,1.88c-10.43,3-17.11,12.91-22.57,22.28-8.87,15.22-17.2,31.83-16.5,49.43,1.95,48.74,68,73,76.49,121.07,1.44,8.15,1,16.88-2.81,24.24-2.87,5.58-7.47,10.08-12.4,14-22.85,18-52.57,24-80.17,33.17s-56.27,24.5-66.75,51.64c-7.52,19.48-4.17,41.41-8.5,61.83-3.92,18.5-14,35.12-25.41,50.21-9.11,12.07-19.41,28.82-10.06,40.7,6.92,8.78,20.21,8.21,31.24,6.36,50.34-8.45,101.37-28,133.83-67.41,13.9-16.88,24-36.89,39.66-52.13,3.41-3.32,7.44-6.54,12.19-6.78,3.94-.19,7.64,1.71,11.07,3.66,32.51,18.5,59.19,45.66,90.09,66.76,46.95,32.07,102.72,49.39,159,57.8s113.36,8.34,170.22,8.24l10,6c11.51.69,22.31,5.49,32.82,10.22l61.21,27.55c6.42,2.89,13,5.87,18.07,10.72,5.4,5.15,8.77,12,12.21,18.65a397.23,397.23,0,0,0,91.47,116.17l28.8-3.42,7.77-6.35c.11-2.76,2.14-5.11,4.49-6.56s5-2.21,7.57-3.32,5-2.71,6.22-5.2.94-5.2.69-7.86l-3.05-5.52a78.17,78.17,0,0,1-24.66.62c2.64-4.13,7.17-6.74,9.92-10.8a21.8,21.8,0,0,0,2.83-6.48,20.42,20.42,0,0,0,.74-8.43l-3.38-9.8c-5.45-4.91-8.88-11.74-10.85-18.8s-2.59-14.43-3.2-21.74q-.78-9.27-1.55-18.55a26.46,26.46,0,0,1,.22-8.66c1.26-5.11,5.35-8.94,9-12.7a131.67,131.67,0,0,0,16.72-20.94l4.3-9a95.85,95.85,0,0,0-3-12.15L923.21,2021c-7.23-8.19-7.72-20.2-12.26-30.14-1.14-2.49-2.92-5.13-5.63-5.47-2.39-.29-4.65,1.38-5.86,3.45s-1.65,4.49-2.23,6.82a47.73,47.73,0,0,1-18.54,27c-8.18,5.78-18.2,9-25.29,16-.58-7.06-1.12-14.37,1.25-21a44,44,0,0,1,4.09-8c3.2-5.22,6.75-10.35,11.53-14.18,4.48-3.6,9.87-5.91,14.44-9.4s8.43-8.79,7.82-14.5a3,3,0,0,0-.94-2.17,3.45,3.45,0,0,0-1.93-.54,40.23,40.23,0,0,0-17.84,2.54,26.32,26.32,0,0,0-13.44,11.69c-1.93,3.68-2.8,7.82-4.42,11.64a2.57,2.57,0,0,1-.72,1.07,2.16,2.16,0,0,1-1.66.18,7.73,7.73,0,0,1-5.66-4.82l-.56.76a35.29,35.29,0,0,1-20.57,18.51,1.31,1.31,0,0,1-.95.06,1.23,1.23,0,0,1-.53-.65l-1.51-3c-7.56,3.73-15.26,7.52-23.59,8.87l-1.62-4.71a33.21,33.21,0,0,1-16.42.53c.09-1.87.19-3.75.29-5.63q-11.87.46-23.72.52l-5.64-3.07a43.37,43.37,0,0,1-5.69-5.81,14.55,14.55,0,0,1-3.09-7.41,8.75,8.75,0,0,1,2.78-7.33l9.06-.83c7.67,3.08,16.67-2.89,24.47-.15a6.2,6.2,0,0,0,2.58.6,3.27,3.27,0,0,0,2.59-2.91,9.57,9.57,0,0,0-.62-4.11,122.38,122.38,0,0,0,16-.42,2,2,0,0,0,1.63-.7A2,2,0,0,0,801,1973c-.29-3.19-.59-6.38-.88-9.56a44.28,44.28,0,0,0,10,.4l18.76-.67c-.2-.47-.39-1-.58-1.43l6.75-1.41c-.43-.1-.48-.75-.17-1.07a1.91,1.91,0,0,1,1.22-.41,410,410,0,0,1,53.61-1.21l-1-.82c-11.23-13-25.25-23.9-41.45-29.58s-34.68-5.77-50.16,1.67l-1.56-5.14-15.17,5.83c-5.76,2.22-11.95,4.8-15,10.15l-2.22-3.25c-5.09,2.34-8.25,7.55-12.92,10.64-2.08,1.37-4.43,2.3-6.48,3.72-4.31,3-6.9,7.83-9.33,12.48l-13.2-1a7.88,7.88,0,0,1-4.69.58,5.86,5.86,0,0,0-1.76-.22,4.06,4.06,0,0,0-2.35,1.6c-3,3.47-5.61,7.71-9.9,9.41l-9.31,1.53c-8.32.42-16.93.79-24.66-2.3a57.93,57.93,0,0,1-5.44-2.63l-6.93-7.21q-7.35-1.14-14.63-2.68l-7.92,0c-3.62-.75-7.33-1.53-10.5-3.43s-5.79-5.16-5.89-8.86a4.36,4.36,0,0,1,.5-2.39,4.74,4.74,0,0,1,1.68-1.59,10.48,10.48,0,0,1,3.94-1.45l8.44.78a11.66,11.66,0,0,0,10.08-8.85l4.69-8.28c-1.08-4.88,1.91-9.65,4.8-13.73a81.57,81.57,0,0,1,8.74-10.94c4.43-4.44,9.77-7.85,15.07-11.22,7.41-4.73,15-9.53,23.52-11.71,7.57-1.94,15.51-1.7,23.32-1.46l12,2.35a89.16,89.16,0,0,1,14.61.66,20.87,20.87,0,0,0-.59-6.86,102.43,102.43,0,0,1,39.37,12.87,4.24,4.24,0,0,0-.92-3.17c4.74.87,9.62,1.8,13.64,4.45,2.89,1.91,5.18,4.61,8,6.57,4.39,3,9.82,4,14.48,6.6,5.64,3.1,9.86,8.28,15.25,11.78,3.61,2.35,7.66,3.9,11.59,5.66a116.3,116.3,0,0,1,35.17,24.39c4.12,4.18,8,8.73,13,11.74l3.6,2a14.93,14.93,0,0,0,17.4,2.86l-5.07-16.79c-18-37-70.12-161.22-87-195.55-7.9-16.1-16.55-32.5-30.46-43.82l-8.1-1.57a60.61,60.61,0,0,1-9.65,12.93c-2.53,2.58-5.34,5-7.1,8.16-1.14,2-1.71,4.82-.17,6.59l.19,6.37c.48,6-6.19,11.35-11.93,9.59l-2.28,10-2.28,22a26.53,26.53,0,0,0-3.16,16.85l-3.94-1.19a209.46,209.46,0,0,0-3.55,38.55,25.38,25.38,0,0,1-6.22-.23,38.25,38.25,0,0,0-2,9.92l-12.62-4.2a192,192,0,0,0-34.49-14.2Zm599,132.22-10.47,9.36c-4.08,3-5.47,8.46-5.69,13.51s.46,10.22-.74,15.13c-2.23,9.16-10.39,15.6-18.64,20.15s-17.29,8.13-23.91,14.84a33.47,33.47,0,0,0,3,49.74l8,5.75c-10.86.08-22.14.26-31.88,5.05-5.83,2.87-10.86,7.29-16.91,9.68-7,2.76-14.73,2.62-22,4.48a41,41,0,0,0-21.76,14.16c-3.3,4.18-5.75,9-9.07,13.15-6,7.56-14.55,12.63-22.88,17.53-4.75,2.8-9.78,5.67-15.28,5.76-9.9.14-17.8-9-20.39-18.54s-1.38-19.66-1.6-29.55a100.6,100.6,0,0,0-7.56-36l-2.19-7.87-8.71-12.26c-3.2-4.51-6.54-9.47-6.28-15,0-1.14.39-2.44,1.42-2.92.76-.35,1.89-.3,2.16-1.09a7.94,7.94,0,0,0-7.15,1.52,22.88,22.88,0,0,0-4.91,5.76,26.54,26.54,0,0,0-4.53-11.83l2.89-5.43a14,14,0,0,0,2.3-4.75,5,5,0,0,0-1.41-4.85,6.74,6.74,0,0,0-4.3-1.07c-2.79,0-5.7.4-8,2a17.1,17.1,0,0,0-3.42,3.63c-1.29,1.66-2.61,3.41-2.95,5.49l-3.85,8.91a104.25,104.25,0,0,0-5.64,16.59l-10,4q-2.93,3.34-5.86,6.7a9.53,9.53,0,0,1-2.26,2.09l-6.16,1.51c-2.5-1.81-5.12-3.67-8.17-4.13-1.49-.22-3.31-.26-4.06-1.57a3.85,3.85,0,0,1-.38-1.19c-.62-3-1.25-6.1-1.87-9.14a2.08,2.08,0,0,1,0-1,1.74,1.74,0,0,1,.56-.71c1.37-1.17,3.33-1.91,3.9-3.63l2.67-4.06c3.26-.86,7-2.12,8.13-5.29.51-1.43.39-3,.75-4.49s1.53-3,3.05-2.86a3.66,3.66,0,0,1,1.88.92,14.9,14.9,0,0,1,5.26,14.26l7.28-2.26,3.39-6a72.73,72.73,0,0,0,6.07-18.63l2.08-8c-.42-14.34,8.51-27.1,12.38-40.91,1.79-6.37,2.5-13,3.64-19.48,2.11-12,5.76-23.91,11.94-34.44s15-19.71,25.91-25.21a19.56,19.56,0,0,1,6.85-2.27c3-.3,6,.54,8.86,1.36l48.15,13.69c3.69,1.05,7.9,2.05,11.18.05,3.83-2.33,4.52-7.57,4.32-12.05l1.2-9.56q1.61-6.94,2.71-14a63.83,63.83,0,0,0,24.29,12.75c1.42.38,3.38.47,3.9-.91s-.78-2.51-1.05-3.84c10.38,3.6,21.3,5.12,32.29,6l-2.24,3.57a10.59,10.59,0,0,1-2.53,4.69,11.61,11.61,0,0,0-2.25,2.66,7.43,7.43,0,0,0-.24,4.19c.24,1.79.49,3.58.73,5.38l2.91,10.23c10.72,7.32,21.48,14.68,31,23.45,4.24,3.89,8.26,8.07,13,11.3,7.75,5.25,17.47,8,23.35,15.31Z"></path>
    <path data-name="6a" data-official="" data-plain="Pistil and Stamens" data-loc="" d="M238.91,2212.11c-10.67-3.35-17.43-13.55-23.33-23.05-9-14.48-18.17-29.53-20.44-46.41-4.23-31.35,15.89-60.35,22.77-91.22,3.39-15.24,3.53-31,4.77-46.55.27-3.39.62-6.88,2.27-9.87,3.16-5.74,10.59-8.14,17.05-7,14,2.54,21.6,17.59,26.08,31.09S277.27,2048,290,2054.4c7.48,3.77,16.26,3.56,24.44,5.36,7.13,1.57,14.13,4.93,18.58,10.71s5.78,14.28,1.93,20.48c-3.68,5.94-10.94,8.53-17.79,9.9s-14.09,2.05-20,5.74c-11.81,7.36-14,23.32-15.11,37.19-.93,11.55-2,23.25-6,34.11s-11.48,20.94-22.06,25.63Z"></path>
    <path data-name="6b" data-official="" data-plain="Pistil" data-loc="" d="M124.37,2208.09c16.82-5.53,25.27-24.83,26.15-42.51s-3.71-35.24-3.41-52.93c.4-23.53,9.37-47.36,3.24-70.08-1.9-7-6.18-14.41-13.31-15.76-4.59-.87-9.3,1-13.1,3.77-9.6,6.87-14.73,18.53-17,30.12s-2.15,23.51-3.61,35.24c-1.8,14.53-6.84,29.85-18.86,38.22-4.9,3.42-10.63,5.42-16.16,7.71a155.54,155.54,0,0,0-27.12,14.49c-4.07,2.73-8.16,5.81-10.37,10.18-3.64,7.22-1,16.43,4.47,22.34s13.39,9,21.23,11,15.94,3,23.61,5.54c10.42,3.47,20.55,9.85,31.45,8.51Z"></path>
    <path data-name="6c" data-official="" data-plain="Cross-section of Ovary" data-loc="" d="M188.41,2267.86c-7.17-4.65-15.95-5.83-24.26-7.83s-17-5.37-21.54-12.62a30,30,0,0,1-3.8-11.78c-1.5-10.4-.51-21.3,3.89-30.84s12.41-17.59,22.33-21c13.55-4.7,29-.37,40.6,8.05s20.07,20.42,27.78,32.52a26.63,26.63,0,0,0,5.39,6.75c7.06,5.66,18.22,2.83,25.55,8.12,7.89,5.7,7.1,18.64.6,25.89s-16.64,10-26.3,11.19a125.92,125.92,0,0,1-34.25-.34Z"></path>
</svg>
