
<svg xmlns="http://www.w3.org/2000/svg" viewBox="0 0 1938 2765" id="illustration" preserveAspectRatio="xMidYMid meet">
    <title>Graminaceæ</title>
    <path data-name="1" data-official="Triticum æstivum" data-plain="Wheat" data-loc="The East" d="M1265.87,2182.39c8.09-6,12.28-15.75,16.11-25l6.48-15.75a29.18,29.18,0,0,1,4.19-7.8c1.15-1.38,3.45-2.49,4.54-1.07l3.65,5.06q1.77,76.35,7.26,152.56l0,9.7c4.56,53.59,6.09,107.38,6.93,161.15.08,5.09,0,10.56-2.93,14.69-4,5.52-11.91,6.86-16.23,12.1-3.91,4.74-4,11.42-4.3,17.55s-1.56,13-6.66,16.41c-2.46,1.64-5.47,2.19-8.4,2.53-9.8,1.13-21.53-.8-26.1-9.55a21.7,21.7,0,0,1-2.09-9.65,39.6,39.6,0,0,1,3-15.79c2.64-6.4,7-12.05,9.24-18.58s2.43-13.46,2.41-20.31a418,418,0,0,0-2.91-48.1l1.14-10.43-4.44-174.69-.06-6.84a42.57,42.57,0,0,0,5.87-12.68Zm18.21-433.68q1.11-122.73-3.66-245.43l.14-7.36c-5.75-28-6.73-56.65-7.5-85.18q-2.62-97.35-2.24-194.75l.25-8a357,357,0,0,0-6.19-72.81l-2.08-5a94,94,0,0,1-4.78-12l-4.11-6.18a315.72,315.72,0,0,1-2.71-42.13l1.18-8.65a440.2,440.2,0,0,0-20.23-130.92l-2.15-7.19c-.66-5.19-2.39-10.64-6.56-13.8a2.48,2.48,0,0,0-1.23-.59c-1.22-.13-2,1.24-2.42,2.39a286,286,0,0,0-11.26,37.81l-1.17,11.88a120.28,120.28,0,0,0,1.54,15.94q6.45,45.5,13,91l4,11a126.2,126.2,0,0,0,7.54,28,66.67,66.67,0,0,1,3.13,8.76,50.14,50.14,0,0,1,1.06,9.07q.75,14.78.53,29.56l-3.64,10.88q.11,74.71,2.24,149.41l1.35,7.12-3,184c-.25,15.32-.49,30.68,1,45.93l0,8.61c2.59,36-1.17,72.08-.11,108.12.41,13.7,1.51,27.38,2.61,41l4.46,55.44-1.1,10.66q-1.53,78.63,3.63,157.2l0,7.06q5.54,72.81,9.46,145.72c.63,11.63,1.26,23.44,5.19,34.4l3.28-.62q14.35-31.74,26.21-64.55l.64-4.55a373.82,373.82,0,0,0,2.42-71.8l.18-10.64q-6.29-102-7.4-204.2ZM1173,654.35c-4,1.54-7,5-8.9,8.94s-2.69,8.17-3.51,12.4l-1.81-8.42-.78-.64a103.23,103.23,0,0,0,.16-15.23c-.33-5-1.05-10.17-3.3-14.71s-6.23-8.43-11.17-9.51l.13-.9a49.47,49.47,0,0,1-2.68-28.18,22.11,22.11,0,0,0-4.58,8.26,12,12,0,0,1,.15-10.45c.85-1.67,2.1-3.12,2.85-4.84s.93-3.9-.3-5.32a21.36,21.36,0,0,0-7.18,10.76,47.32,47.32,0,0,0-1.83,13,17.16,17.16,0,0,1,.24-16.83c-3.44,2.27-5.48,6.19-6.5,10.18s-1.16,8.15-1.65,12.24c-.09.76-.59,1.78-1.3,1.49-.47-.18-.54-.81-.54-1.32l.11-19.45.2-.57c5.76-3.22,8.77-9.69,11.41-15.75a50.79,50.79,0,0,0,4-11.5,42.19,42.19,0,0,0,.47-7.37,23.25,23.25,0,0,0-.54-5.65c-.53-2.1-1.58-4-2.28-6.07-2.07-6-1.13-12.52-.17-18.77l-8.07,6.83-1.28-1c-1.54-5.33-5.24-9.72-8.45-14.25a7.14,7.14,0,0,1-1.38-2.75,8.09,8.09,0,0,1,.15-2.68,45.91,45.91,0,0,0,.48-9.66,54.22,54.22,0,0,1-8.12,12.34,13.78,13.78,0,0,0-1.64-4.82l-1.6,8.83a1.58,1.58,0,0,1-.31.82,1.53,1.53,0,0,1-.83.42l-3.38,1c-4.27-6.5-.71-15.76-4.34-22.64l1.73-3.64c3.26-8.56,6.55-17.24,7.54-26.35s-.54-18.84-6.11-26.12c-5.15-6.72-13.16-10.7-18.65-17.15l1.53-4.71c-.07-5-.25-10.31-3.12-14.38-1.45-2.05-3.47-3.61-5.19-5.43-3.51-3.74-5.67-8.51-8.33-12.89-5.06-8.32-12.76-15.76-22.37-17.33a13.44,13.44,0,0,1-4.63-1.17c-3.42-2-3.42-6.82-3.31-10.77.14-5.09-.46-10.66-4-14.27-2.53-2.56-6.47-4.1-7.42-7.56l-1.65-4.1L1010.22,321a79.85,79.85,0,0,1-7.26-12.14c-1.78-4-2.9-8.23-4.76-12.16s-4.68-7.66-8.69-9.36a23.49,23.49,0,0,1-8.19,11.4c-1.44,1.08-3.36,2-5,1.26s-2.11-2.67-2.61-4.34a30.29,30.29,0,0,0-5.15-10,29.41,29.41,0,0,1-3.85-5.34c-1.36-2.92-1.21-6.27-1.52-9.48a33.3,33.3,0,0,0-17-25.68l-4.52-.75a9.07,9.07,0,0,0-3.84-1.32l-3.25-1a12.62,12.62,0,0,0-10.07-14.65l-.35-.82a98.49,98.49,0,0,0-19-42,24.91,24.91,0,0,0-5-5.17l6,12.45c3.79,7.9,7.6,15.83,10.18,24.2S920.28,233.36,919,242l-3.65-6.65a42,42,0,0,1-.74,8.59l-1.17,1a25.34,25.34,0,0,0-5.23,2.62,79.54,79.54,0,0,1-1.15-20.14,65.65,65.65,0,0,0,.4-9.7,14.34,14.34,0,0,0-3.48-8.87l-.09-.44c-5.67-5.4-8.78-13.06-10-20.79S893,172,893.4,164.2a111.8,111.8,0,0,0-3,43.46c.61,4.77,1.41,10.05-1.32,14,1.19-8.21-1.07-16.49-1.53-24.77a60,60,0,0,0-.55-7.35c-1.28-7.21-6.49-13.37-7.28-20.65-.49-4.62.84-9.26.54-13.89l1.18-3.33c.24-6.26.32-13.07-3.43-18.08a36.53,36.53,0,0,0-4.55-4.59c-10.91-10.09-17.69-23.74-25.94-36.1L844,88.19c-4.27-5.17-8.69-10.7-9.68-17.33-1.06-7.16,2.06-14.8-.58-21.54-1.22-3.11-4.19-5.93-7.5-5.48a6.58,6.58,0,0,1-2.94.24c-1.45-.49-1.84-2.31-2.18-3.81-1.83-8.05-9-14.22-17-16.37s-16.56-.75-24.22,2.32c-6.58,2.64-13.39,7.65-13.67,14.74-.07,1.73.27,3.46.08,5.18-.43,3.75-3.23,6.7-5.47,9.74-9.31,12.68-9.67,29.61-9.66,45.35,0,8,0,16.1,1.56,24s4.74,15.62,10.33,21.37c2.12,2.17,4.68,4.28,5.22,7.26.78,4.3-3,8.14-3.37,12.49a8.43,8.43,0,0,0,5,8.25c1.39.57,3.09.88,3.84,2.18a5.14,5.14,0,0,1,.12,3.55c-1.18,6-1,13.23,3.77,17l4.7,1.83c1.57,4.26,5.34,7.26,9,9.85s7.69,5.13,10.06,9c3.25,5.3,3,12.36,6.84,17.24,2.47,3.11,6.24,4.84,9.87,6.46l6.13-.49a16.51,16.51,0,0,1,8.6,3c1.82,1.28,3.36,2.92,5.2,4.17,2.52,1.7,5.49,2.6,8.18,4a24.67,24.67,0,0,1,11.6,13.09,70.19,70.19,0,0,0-13.52-9.56l-1.47-1.43c-4.48-3.69-9.57-7.22-15.36-7.48a1.23,1.23,0,0,0-1.59,1.45,12.1,12.1,0,0,0,4,8.52l.86.63,8.28,1.25c4.88.73,10,1.59,13.73,4.88a35.56,35.56,0,0,1,4.58,5.69,44.74,44.74,0,0,0,11.29,10.71,1.79,1.79,0,0,0-2.56.4,4.19,4.19,0,0,0-.57,2.83q-5-4-9.72-8.25c-5-4.49-10.43-9.46-17.14-9.82a4.46,4.46,0,0,0-2.24.33,1.94,1.94,0,0,0-1.15,1.83l1.5,1.21a32.39,32.39,0,0,1,7.61,1.2,11,11,0,0,1,6.11,4.46,19.27,19.27,0,0,1,1.87,6.18c2.41,11.83,8.51,22.55,14.92,32.78,3.65,5.83,7.57,11.72,13.23,15.62l.26,1.18c-.62,2.36.22,4.85,1.19,7.09A58.85,58.85,0,0,0,893.07,354c2,2.13,4.21,4.18,5.41,6.85l-.16,2.81c-.26,2.92-1.6,5.62-2.52,8.41s-1.39,6,0,8.55c1.15,2.11,3.32,3.41,5.25,4.84,6.72,4.95,11.25,12.25,15.61,19.36a4.9,4.9,0,0,1,.72,5.33l-3.07,9.36a4.69,4.69,0,0,0-.34,2.11c.37,2.49,4.07,2.8,5.45,4.9l3.47,3.28a18.71,18.71,0,0,1,10.23,3.09,56,56,0,0,1,8.4,6.82,19.86,19.86,0,0,1,4.1,4.68c2,3.5,1.62,7.78,1.51,11.79s.25,8.47,3.12,11.28l-.83,6.6a87.45,87.45,0,0,0,8.94,26.87,31.22,31.22,0,0,0,6.69,9.17c5.47,4.78,13.84,6.6,17.07,13.11,2.42,4.87,1,10.69,1.65,16.09.54,4.78,2.64,9.21,4.72,13.54,6.36,13.28,13.58,27.46,26.71,34.11,4,2,8.94,3.86,10,8.2.71,2.9-.66,5.85-1.85,8.59-2.26,5.23-4,10.79-4,16.49s1.66,11.56,5.55,15.72l4,1.42a30.71,30.71,0,0,1,13.34,9.06,69.89,69.89,0,0,1,9.06,13.52l-.09,2.2c2.67,2.55,7,1.87,10.49,3s6.16,4.22,8.55,7.13l21.72,26.42-.06.65c-4.25-.82-8.34-2.36-12.56-3.34s-8.73-1.4-12.83,0c6.66,1.3,11.82,6.62,15.5,12.32s6.39,12,10.65,17.34c3.91,4.86,9,8.62,14,12.33a27.61,27.61,0,0,0,5.43,3.4c2.88,1.23,6.07,1.46,9.2,1.67,4.09.27,8.31.52,12.21-.77l.28-.28a4.51,4.51,0,0,0,6.94-.4c.22,1.91.52,4,1.92,5.33a3.49,3.49,0,0,1,.87,1,2.54,2.54,0,0,1,.13.95c0,3.55-.5,7.2.61,10.57,1.66,5,6.45,8.29,10.94,11.15l-.47,1.87c-1.48,1.14-1.49,3.43-.75,5.15s2,3.13,2.87,4.8c1.1,2.22,1.31,4.76,2.19,7.07,1.48,3.87,4.72,6.79,6.66,10.44,3,5.68,2.68,12.71,5.89,18.28l-.29,4.66c2.4,22,15.15,41.6,19.61,63.29l5,4.45a116.73,116.73,0,0,1,7.92-14.21c3-4.65,6.56-9.63,6.07-15.16l.13-6.17a227.27,227.27,0,0,0-11.66-58c-3.22-9.43-7.09-18.72-8.75-28.55-1.21-7.17-1.26-14.66-4.13-21.34-1.75-4.07-4.52-7.76-5.42-12.1l2.51-6.21c3.71-8.38,3.48-18,1.74-27a20.13,20.13,0,0,1-.62-6.21,25.69,25.69,0,0,1,.89-3.66c1.43-5.26,1.33-10.8,1.22-16.26l-.41-20.8a15.94,15.94,0,0,0-.62-4.92,5.43,5.43,0,0,0-3.26-3.52Z"></path>
    <path data-name="1a" data-official="" data-plain="Cluster of Flowers" data-loc="" d="M175.55,2716.39a58.62,58.62,0,0,0,3.35-18.87,17.91,17.91,0,0,0-1.18-7.55c-2.45-5.44-8.79-7.69-14.11-10.41a49.85,49.85,0,0,1-21.43-21.32c-4.28-8.28-5.81-19.26.29-26.32,3-3.43,7.37-5.46,10.05-9.12,3.35-4.56,3.39-10.67,3.29-16.32l-.31-18.36c-.08-4.38.44-9.76,4.45-11.53,2.85-1.25,6.39,0,9.11-1.54,3-1.64,3.51-5.54,4.62-8.74a19.28,19.28,0,0,1,11.86-11.8c3.29-1.11,7.19-1.21,10,.85s4.09,6.2,7.16,8.16c2.36,1.52,5.36,1.48,8.17,1.4,9.28-.28,19.79-1.14,25.63-8.35,2-2.44,3.2-5.38,4.8-8.07a32.19,32.19,0,0,1,12.41-11.85c2.6-1.4,5.86-2.4,8.41-.91a8.18,8.18,0,0,1,3.3,4.93c2.17,7.26.26,15-.61,22.55a81.11,81.11,0,0,0,.31,21c.8,5.48,2.16,10.89,2.4,16.41s-.78,11.36-4.23,15.68c-2.1,2.64-5.1,6.39-2.65,8.71a12.67,12.67,0,0,0,2.41,1.38c3.28,2,3.2,6.69,2.64,10.49-1.44,9.77-3.39,19.61-7.69,28.51s-11.17,16.88-20.25,20.79c-4.74,2-10.67,3.6-12.34,8.49-1.9,5.54,3.11,10.73,6.34,15.62a29,29,0,0,1,4.6,12.67,11.06,11.06,0,0,1-.86,6.52c-1.64,3-5.19,4.28-8.48,5.18a118.35,118.35,0,0,1-37.41,4.08c-3.92-.2-8-.64-11.35-2.65s-5.86-6-4.95-9.84Z"></path>
    <path data-name="1b" data-official="" data-plain="Glumes" data-loc="" d="M298.22,2719.91a29.54,29.54,0,0,0-3.24-19.74c-6-10.69-18.32-17-23.34-28.18-2.88-6.42-3-13.68-3.05-20.72-.06-7.67-.08-15.58,2.82-22.68,2.4-5.86,6.66-10.8,9.11-16.64a30.15,30.15,0,0,0,1.82-17.1c-1.22-6.45-4.49-13.37-1.43-19.18,3.34-6.33,13-6.94,18.69-2.61s8,11.84,8.62,19-.19,14.36.84,21.44,4.36,14.41,10.75,17.63c3.77-2.94,5.05-8,7.49-12.09a21.15,21.15,0,0,1,15.29-10.31,17.85,17.85,0,0,1,16.66,7.26c2.55,3.74,3.41,8.36,4.11,12.84a295.29,295.29,0,0,1,3.49,43c0,3,0,6.08-1.19,8.84-1.8,4.21-5.94,7-8.41,10.8-6.21,9.66-.86,24-8,33-4.49,5.63-12.33,7.06-19.49,7.8-9.59,1-20.11,1.19-27.86-4.54Z"></path>
    <path data-name="1c" data-official="" data-plain="Seed" data-loc="" d="M396,2726.61c2-6.09,4.1-12.58,2.55-18.81-1.44-5.81-5.78-10.38-8.95-15.46-7.33-11.69-8.5-26.23-7.47-40,.54-7.06,1.67-14.29,5.34-20.34s10.38-10.7,17.43-10.09c7.41.64,13.1,6.54,18.17,12a11.68,11.68,0,0,0,3.94,3.17c2.9,1.19,6.25-.08,8.79-1.92s4.68-4.25,7.42-5.77c7.05-3.91,16.35-.72,21.79,5.23s7.87,14,9.94,21.78c2.7,10.17,4.79,22-1.4,30.47-4.56,6.26-12.94,9.6-15.65,16.85-2.46,6.59.72,14.15-1.19,20.93-2,7.2-9.24,11.66-16.29,14.18a65.73,65.73,0,0,1-23.41,3.79c-6.77-.15-14.78-2.4-16.77-8.87Z"></path>
    <path data-name="2" data-official="Hordeum distichon" data-plain="Barley" data-loc="Tartary" d="M136.89,635.4c-4.91.08-9.84,1.05-14.68.28a10.24,10.24,0,0,1-6.39-3.1c-1.56-1.85-1.92-4.86-.28-6.64,1.19-1.3,3.08-1.68,4.83-1.85a37.23,37.23,0,0,1,16.11,2l1.92,3.12q8.06.91,16.18,1.1l3.33-.94,4.4.31c.45,0,1,.2,1,.65a.91.91,0,0,1-.33.62,16.47,16.47,0,0,0-3.87,7.74l-3.32,1.11A40.61,40.61,0,0,0,136.89,635.4ZM666.23,844.05a6.29,6.29,0,0,0-1.83-.27c-13.45-.62-26.9.76-40.29,2.15L613.31,847l-4.22,2.49a40.61,40.61,0,0,0,.59,12l2.46.67L629.69,861c14.37-1,28.8-2,42.82-5.34l1.57-3a45.13,45.13,0,0,0-5.63-6.93A6.13,6.13,0,0,0,666.23,844.05ZM159.58,752a2.24,2.24,0,0,0-.8-.51c-3.71-1.55-7.87-1.45-11.89-1.32a6.54,6.54,0,0,0-3.43.73,4.55,4.55,0,0,0-1.72,2.36,7.49,7.49,0,0,0,2.24,8.08c2.5,2.06,6,2.22,9.26,2.29l5.78.12,1.61-.48c-.22-3.31-.45-6.63-.67-9.95A2.24,2.24,0,0,0,159.58,752ZM145.42,676a18.51,18.51,0,0,0-1.8-4.33,6.22,6.22,0,0,0-3.62-2.83,8.65,8.65,0,0,0-2.49-.13c-1.78.09-3.93.5-4.51,2.18a3.27,3.27,0,0,0,.53,2.77,7.24,7.24,0,0,0,4.72,2.89,21.51,21.51,0,0,0,5.67.11ZM330.53,880.38l-18.91,1.39a41.23,41.23,0,0,0-7.83,1.08c-.52.14-1.1.37-1.26.88a1.78,1.78,0,0,0,.23,1.2,9.41,9.41,0,0,1,1,5.46,4.38,4.38,0,0,1-3.7,3.68l5.55,1.47a52.25,52.25,0,0,0,20-3,3.65,3.65,0,0,0,1.78-1.09,8.24,8.24,0,0,0,.74-1.9c.73-1.78,2.72-2.59,4.24-3.75s2.61-3.61,1.16-4.86A4,4,0,0,0,330.53,880.38Zm315.91-53.62,1-3a43.89,43.89,0,0,0-4.79-4.85,14.41,14.41,0,0,0-6-3.08l-1.16-.4-6.84,0a5.49,5.49,0,0,0-1.67.17,5.75,5.75,0,0,0-1.73,1.07c-3.56,2.79-7.75,5.24-9.57,9.37l1.68,1.44A111.44,111.44,0,0,0,646.44,826.76Zm-65.55,20.76c-14.46,1.38-28.94,2.76-43.21,5.47-5.65,1.07-11.27,2.35-17,3-6.61.81-13.28.83-19.92,1.22a181.13,181.13,0,0,0-48.21,9.49l-3.13,2.07-49.88,5.77-4.22-.94A117.16,117.16,0,0,0,378,874.89a1.27,1.27,0,0,0-.64.23,1.1,1.1,0,0,0-.29.54l-2.19,6.69a7.05,7.05,0,0,1,2.89,4.62,1.42,1.42,0,0,0,.34.78,1.37,1.37,0,0,0,1,.23c6.12-.13,12.37-.27,18.12-2.34l1.49-3.53,50.77-4.43,2.86,1.86c9.25,1.82,18.78.42,28.14-.75,35.37-4.43,71.3-5.58,105.92-14.09l3.38-2.2a109.68,109.68,0,0,1-6.61-14.67ZM1839.37,959.73c-2.78-4.71-7.18-8.28-11.94-11s-9.92-4.58-15-6.63c-17-6.86-33.08-15.62-49.54-23.63-3.61-1.75-7.46-3.52-11.46-3.15l-3,2.2q-19.73-8-38.67-17.7a110.52,110.52,0,0,1-11.3-6.45c-3.9-2.62-7.51-5.68-11.58-8-4.69-2.73-10-4.5-14.27-7.8l-.47-1.23c.15-1.56.31-3.11.46-4.66a11.26,11.26,0,0,0,.08-2.46,6.1,6.1,0,0,0-2.92-4.54l-2.6-2.32-2.71-1.66a7.33,7.33,0,0,0-3.77-1.43,4.93,4.93,0,0,0-3.75,2.26,14.75,14.75,0,0,0-1.77,4.16l-2.16,1.19q-11.82-7.41-23.51-15a6.88,6.88,0,0,1-2.62-2.48,6.81,6.81,0,0,1-.43-3.11c0-1.8.06-3.59.1-5.38l-1.9-2.7a9.26,9.26,0,0,0-2.88-3.38,15.1,15.1,0,0,0-3.91-2.47,6.61,6.61,0,0,0-4.53-.24l-3.23,1.59L1597,825.28c-1.88-1.2-3.92-2.63-4.37-4.81-.32-1.58.27-3.3-.33-4.8a3.19,3.19,0,0,0-5.59-.62l-3.5,2.56-18.45-11.79a17.8,17.8,0,0,1-4.14-3.26c-2.47-2.88-2.88-7-4.93-10.21l-2.68-4.79c-10.34-8.1-18.93-18.17-28.26-27.42-39.14-38.79-90.91-62.58-143.85-77.85a6.64,6.64,0,0,0-3.7-.33c-2.61.79-3.19,4.17-3.29,6.89l-.64,17,.08.07c5.26,4.67,8.72,11,12.07,17.16l4.44,5.46,17.25,9c5.17,2.7,10.34,5.4,15.38,8.35,13,7.63,25.13,16.92,38.8,23.37l3.34,2.38c9.16,9.19,21.5,14.29,33.05,20.21,19.78,10.15,37.9,23.2,55.94,36.19l2.43,1.32c3.59-.73,7.12,1.27,10.23,3.21q19.07,11.94,37.17,25.29l.44,5.49a11.6,11.6,0,0,0,7.07,5.53,34.47,34.47,0,0,0,9.12,1.17l2.18-3.29a232.83,232.83,0,0,0,28,15.85l-.27,3.22a47.5,47.5,0,0,0,8.65,7.09l5.3,1.41c4.8.11,9.07,2.88,13.15,5.42,22.12,13.76,46.46,23.47,69.9,34.83l10.77,10.6q21.84,11,44.38,20.5a68.1,68.1,0,0,0,8.49,3.14c6.3,1.73,12.94,1.72,19.46,1.39a17.4,17.4,0,0,0,6.8-1.29c2.1-1,3.86-3,3.86-5.36A7.82,7.82,0,0,0,1839.37,959.73Zm-482-249c1,1.67,2.16,3.89,1,5.45a4.18,4.18,0,0,1-1.73,1.15,15.5,15.5,0,0,1-6.16,1.19l-2-2.1-39.38-4c-3.93-.4-8-.78-11.71.6-6.17,2.28-9.61,8.71-12.38,14.67a487.14,487.14,0,0,0-21.59,55l-4.69,4.68a5.93,5.93,0,0,0-3.8,3.7,21.4,21.4,0,0,0-1.08,5.39c-2.21,17.94-11.57,34.61-12.32,52.67l-.62,14.42a314.67,314.67,0,0,1-13.1,40.07l-4.27,5.73a2.48,2.48,0,0,0-1.23-.59c-1.22-.13-2,1.24-2.42,2.39a286,286,0,0,0-11.26,37.81l-1.17,11.88a120.28,120.28,0,0,0,1.54,15.94l-7.87,6.87a99.6,99.6,0,0,0-4.73,30.5l-4.91,5.3a4.39,4.39,0,0,1-2.08,3.41,41.33,41.33,0,0,1-3.65,2,12.51,12.51,0,0,0-5.52,6.61l-1.43,2.62a347,347,0,0,1-15.62,70.18l-1.23,2.58c-7.23,19.94-6.4,41.73-7.13,62.92a409.17,409.17,0,0,1-5.41,53.66l.23,2.58-43,456.72c1.83,1.23,2.11,3.76,2.21,6,.07,1.63.15,3.26.22,4.89a29.75,29.75,0,0,1-.57,9.42c-.85,3-2.88,5.93-5.86,7l-.24,1.54s-35.25,294.63-37.25,309.93-59.69,274.78-59.69,274.78c-6,7.8-3.86,18.83-3.78,28.7a122,122,0,0,1-1.89,19.23q-2.81,18.46-5.62,36.94l1.39,7.4c-4.82,17.1-3.27,35.28-5.21,52.94a268.7,268.7,0,0,1-4.91,27.25c-6.15,28.52-12.48,57.52-26.67,83a27,27,0,0,0-3.05,6.73c-1,4.13.2,8.43,1.08,12.58s1.44,8.64.13,12.72c-1.93,6-7.63,10.12-13.66,11.87s-12.44,1.48-18.71,1.2c-4.54-.2-9.77-.78-12.25-4.58-1.52-2.32-1.57-5.29-1.36-8a53.7,53.7,0,0,1,3.66-15.69c1.28-3.2,2.88-6.33,3.39-9.73.81-5.38-1.18-10.72-2.48-16S913.7,2531.34,917,2527l1.59-9.5c11-17.94,15-39.23,17.55-60.1s4.07-42.11,10.81-62c1.6-4.75,3.5-9.4,5.4-14l3.67-9.11a171.15,171.15,0,0,0,17.34-49.32,16.79,16.79,0,0,0,.41-4.84,43.6,43.6,0,0,0-1.16-4.87c-.88-4-.14-8.11.6-12.11,5.42-29.46,10.86-59,19.17-87.76l2.6-4.13c8.08-7.91,11.47-19.33,14.33-30.27a821.36,821.36,0,0,0,18.86-94.8l.87-2.42a3156.78,3156.78,0,0,0,51.87-375l.12-1.32c-3.83-8.92,2.45-18.86,2.45-28.56,0-3.91-1-7.85-.28-11.68.51-2.62,1.83-5,2.47-7.62,1-3.91.3-8,0-12-.4-6.48.28-13,1-19.41q3.52-33.67,7-67.34l-.35-3q15.87-149.76,28.87-299.8c3-34.42,5.85-68.94,4.6-103.46-.67-18.31-1-40,13.77-50.79l.19-1.2c-.62-30.66-1.44-61.31-2.68-91.95-.35-8.42-.72-16.85-1.89-25.19A135.24,135.24,0,0,0,1082.6,894l-.56-.87a18.79,18.79,0,0,1-11.33-5.65l-.52-.64c-2.45,1.58-5.75.72-8.26-.77s-4.72-3.56-7.49-4.49a10.24,10.24,0,0,0-9.69,1.87,11.19,11.19,0,0,1-1.57,1.27c-1.49.85-3.34.51-5,.16l-6.37.2c-9.53-7-21-10.86-32.59-13.25s-23.39-3.41-35.06-5.3c-23.22-3.75-45.83-11-69.2-13.67-11-1.27-22.29-1.59-32.65-5.47l-3.18-2.59c-.47-1.89-2.66-2.71-4.55-3.19a119.55,119.55,0,0,0-51.41-1.47l-2.55,3q-6.11,0-12.2.61L783,842.17a134.42,134.42,0,0,0-7-22.69c-.46-1.13-.83-2.68.17-3.37l1.09-1.72c-27.29-.75-54.77-1.49-81.72,2.87l-2.42,1.3a16.3,16.3,0,0,1-2.82-1.66,24.21,24.21,0,0,1-3.61-3.33,46,46,0,0,1-6.44-9l-.45-.24q-41.31-.41-82.64,0l-5,1.92c-36.8,4.12-73.95,3.55-111,3-7.31-.11-14.66-.23-21.86-1.49l-.81-2.09h-52.1l-1.76,2.43q-85.5,4.53-171.17,1.83l-2.29-.28a12.7,12.7,0,0,1-4.12-6.64,6.86,6.86,0,0,0-.79-2.36c-.71-1-2.19-1.94-1.69-3.08.31-.71,1.26-.88,1.79-1.45,1.08-1.16-.17-3.15-1.69-3.56s-3.15.05-4.73-.08-3.34-1.34-3-2.89a4.28,4.28,0,0,1,1.28-1.89,5.52,5.52,0,0,0,1.68-4.41,4.86,4.86,0,0,0-3.27-3.51,13,13,0,0,0-5-.48c-13.07.53-26.31,3.69-39.06.8l-1.55-2.16a58.91,58.91,0,0,1-1.43-12.62l-.47-2.22q-.69-5.49-1.36-11a2.23,2.23,0,0,1,.43-2,2.08,2.08,0,0,1,1-.39l3.74-.78,2.9-.34q27.63.91,55.29,1.2c31.56.32,63.13,0,94.7-.27l33.35-.31c-6.78-6.44-16.39-8.85-25.64-10.23-11.53-1.72-23.21-2.21-34.86-2.6q-30.37-1-60.78-1.21l-1.57-1.36q-.76-7-1.51-14a14.31,14.31,0,0,0-.73-3.67c-.32-.84-.81-1.61-1.06-2.48a9.75,9.75,0,0,1-.25-2.7v-5.2a1.35,1.35,0,0,1,.22-.91,1.37,1.37,0,0,1,1-.31q15.1-.71,30.25-.35a47.41,47.41,0,0,0-14.58-4.92l-3.91-1.41L217,688.25a113.73,113.73,0,0,0-16.46-4.55,114,114,0,0,0-11.95-1.16l-30.23-1.84-2.68-1.44c.42-3.34-.87-6.63-1.27-10a3.52,3.52,0,0,1,.26-2.25,2.66,2.66,0,0,1,2.2-1.16,7.85,7.85,0,0,1,2.53.46l4.49.46a30.78,30.78,0,0,1,10.89,2.32c2.62,1.08,5.09,2.53,7.82,3.28s5.87.71,8.12-1c1.22,2.36,4.09,3.36,6.74,3.51s5.32-.32,7.95,0c2.39.34,4.71,1.37,7.12,1.18,1.5-.11,3.17-1,3.35-2.47.12-1-.42-1.87-.5-2.84s.81-2.14,1.66-1.69l7.85-3.31c9.34,0,18.63,1.29,27.89,2.58l48.14,6.72,5.82,1c18.53,2.89,36.89,6.89,55.51,9,20.35,2.35,41.08,2.5,60.88,7.73l3.5,4.37,10.86.89,2.23-2.49c2.68-.48,5.74-.87,7.86.84l.33,3.42L490,705.54l4.38-2c6.68-2.13,13.89-1.21,20.86-.49a335.73,335.73,0,0,0,36.7,1.75q-25-8.16-49.48-17.73l-4.8-3.69-38.08-6.15-3.84,2.1c-6.17.2-12.68.31-18.07-2.69l-1.49-2.68-10.64-1.24-3.84,2.73-86-9.57c-15.24-1.7-30.49-3.39-45.67-5.65-21.83-3.24-43.55-7.63-65.58-9l-3.54-2.37-2.34-12.61a2.72,2.72,0,0,1,.39-2.56,2.53,2.53,0,0,1,1.13-.51,21.73,21.73,0,0,1,4.38-.63l5.53.65q23.28,3.81,46.78,6l5.68,1c15,3.38,30.13,6.78,45.44,8.64,31.38,3.82,63.86,1.25,94,10.76l1.86,4.35,11.08,1.33,3.58-2.34a35.34,35.34,0,0,1,24.42,2.66l.22,4,38.07,6.16,2.92-3.44,23.82.71c3.7.11,7.41.23,11.1.55,10.77,1,21.3,3.76,32,5.11s21.79,1.38,31.1,6.61a38.46,38.46,0,0,0-10-8.13,71.35,71.35,0,0,0-8-3.61l-11.72-4.68c-4.43-1.77-8.86-3.54-13.43-4.88-3.51-1-7.09-1.8-10.65-2.64q-11.37-2.65-22.52-6.19c-3.86-1.22-7.88-2.64-10.55-5.68l-1.87-4.2-29.64-7-5.25.11c-11.13-.07-22.73-.25-32.62-5.36a70.51,70.51,0,0,1-10.07-6.75l-2.41-3.08-10.86-3.11-6.18,1.35-78.8-19-5.15-1.3c-22.21-7-44.49-14.06-67.36-18.54-16-3.14-32.21-5-48.18-8.28-30-6.16-58.81-17.2-88.78-23.47-15.46-3.23-32.5-5.9-43-17.71a6.44,6.44,0,0,1-2-3.81c-.08-2,1.68-3.79,3.63-4.39a14,14,0,0,1,6.07-.06,783.8,783.8,0,0,1,81.79,16l7.63,2c10.83,1.06,21.73,2.13,32.23,5,7.75,2.12,15.2,5.21,22.9,7.49,19.22,5.7,39.72,6.3,58.78,12.52,7.22,2.35,14.18,5.5,21.53,7.42,8.34,2.17,17,2.73,25.53,4,27,4.05,52.28,15.31,77.19,26.46l2.11,5.25,12.41,3.55,3.29-2c16-.45,31.07,6.66,45.46,13.61l3.91,3.54,27.27,6.48,5-1.5c7.95-.1,15.33,3.8,23,5.89a105.76,105.76,0,0,0,11.3,2.18l19.6,3,5.84,1.54c18.79,10.3,39.45,16.57,59.73,23.49,9.63,3.28,19.2,6.73,28.77,10.18l6,1a338.58,338.58,0,0,1,43.34,14.94c15.69,6.63,32.06,14.63,48.9,12.13l-70.85-40.44c-9.07-5.17-18.14-10.35-26.82-16.14-6.67-4.45-13.11-9.26-20-13.29-13-7.57-27.53-12.21-41.74-17.25a714.72,714.72,0,0,1-71.56-29.86l-2.2-4.46-16.1-6.36-3.41,1.5c-7.14.06-14.06-2.21-20.84-4.45L469,570.46c-10.94-3.63-22-7.32-31.65-13.67l-4.06-4.33-10.86-4.22-3.76,1.82a47.26,47.26,0,0,1-12.88-2.76c-3.09-1.13-6.05-2.57-9.07-3.88a109.58,109.58,0,0,0-27-7.81l-4.32-2.92L300.8,512.15c-11.46-3.64-22.93-7.29-34.53-10.46-11.84-3.23-23.82-6-35.76-8.82q-62.44-14.92-123.74-34.27c-2.11-.67-4.31-1.38-5.92-2.92-2.94-2.8-3.06-7.37-3-11.44,0-1.48.16-3.17,1.33-4.09a5.1,5.1,0,0,1,3.66-.58,419.21,419.21,0,0,1,81.36,16.19l7.57,2.56,48.73,12.13c21.11,5.26,42.31,10.54,62.39,18.9,10.33,4.3,20.33,9.4,30.73,13.54,28.58,11.38,60.31,15.57,86.27,32.09l2.49,4.4,10.86,3.54,4.29-3.61c1.91-8.93,3-18.5-.29-27l-4-5.74-10.86-8L416,500.12a24.1,24.1,0,0,1-11.26-7.66l-3.2-3.89a30.13,30.13,0,0,0-7.2-3.82,12.85,12.85,0,0,0-4.4-.94,25,25,0,0,0-4.45.69c-3.52.65-7.52.35-10.09-2.13a14.82,14.82,0,0,1-2.74-4.25l-3.48-7.06-1.89-3.63c-21.66-19.71-43.43-39.49-67.83-55.67-25.27-16.75-53.67-29.9-73.84-52.53-1.78-2-3.6-4.42-3.19-7.07.67-1.42,2.63-1.51,4.19-1.35,19.6,2.05,37.55,11.46,55,20.71,24.95,13.25,50.2,26.72,71,45.88l.65,4.48,109.52,59.19,2,.22c2.13,1.27,4.84.69,7.31,1,3.15.41,5.95,2.31,9.09,2.8l3.79,1.35L517.64,504c7.68,4.11,15.45,8.28,21.86,14.18l1.83,6,12.47,7.32,7.48.46a82.66,82.66,0,0,1,13,2l4.35,1c61.07,27.61,119,61.6,176.83,95.53l22.83,13.4c16.94,9.94,34,19.93,49.44,32l2.42,8,55.53,29.6,3.65-1.05,12.16,1.15,5.61,1.8a447.49,447.49,0,0,0,75.26,32l5.09,3.76,38.43,27.85c1.93,1.4,5.1,2.58,6.27.51a4.15,4.15,0,0,0,.26-2.52c-.62-5.5-1.92-11.39.59-16.33a2.47,2.47,0,0,1,1.13-1.27,2.7,2.7,0,0,1,2.34.5,29.91,29.91,0,0,1,13.39,17.57c1.15,4.19,1.38,8.61,2.82,12.71,3.84,10.92,15.83,18.34,16.94,29.86a77.82,77.82,0,0,1,1.74-19.79c.87,13.59,7,26.21,12.66,38.59s11.08,25.5,10.39,39.1l1,.75a3,3,0,0,1,3.7-.56,8.57,8.57,0,0,1,2.83,2.88q15.88,22.41,30.08,46a118.18,118.18,0,0,1,7.51,13.92,109.12,109.12,0,0,1,5.64,18,332.87,332.87,0,0,1,7.25,114.14c2.22-13.52,6.48-26.62,9.92-39.89,11.66-44.92,13.7-91.91,25.5-136.79l3-10,5,4.45a116.73,116.73,0,0,1,7.92-14.21c3-4.65,6.56-9.63,6.07-15.16l.13-6.17,3.06-10.25q3.35-8.42,6.68-16.84l5.85-1.42a351.92,351.92,0,0,0,18-46,46.24,46.24,0,0,0,1.92-7.84,48.65,48.65,0,0,0,.28-5.66l.18-15.59,1.16-8a101.66,101.66,0,0,1,13.15-38.7c2.8-4.77,6.09-9.42,10.65-12.55,7.13-4.88,16.25-5.4,24.87-6.06a360.19,360.19,0,0,0,36.87-4.78l6.6,3.23c4.46,3,7.73,7.39,10.41,12S1354.53,706.21,1357.34,710.76ZM391.07,473.17,384,467.48a24.45,24.45,0,0,0-5.19-3.46c-.67-.3-1.6-.47-2,.13a1.67,1.67,0,0,0-.24.82,17.78,17.78,0,0,0,0,5.87,8.72,8.72,0,0,0,12.38,5.78Zm43.73,1.25-81.58-45.8,3.33,7.67,76.92,59Zm106,103.1a8,8,0,0,0-.43-1.42l-1.54-2.68-13.63-8.65-3.16,2.11a6.87,6.87,0,0,0-1.34,5l1.65,2.66,14.3,5.66,2.27-.51c.74-.13,1.61-.36,1.87-1.06A1.89,1.89,0,0,0,540.82,577.52Zm11.86-31-2.21-5.26L538,533.89l-6.12,3.5c-3.7,4-3.68,10.07-3.43,15.51l.75,4,13.64,8.65,3.75-1a14.41,14.41,0,0,0,5.26-8.18A36.19,36.19,0,0,0,552.68,546.47ZM418.5,755.29l1.24,2.63a10.64,10.64,0,0,0,6.42.4c2.14-.42,4.2-1.17,6.35-1.58,4.07-.76,8.26-.25,12.37.26a15.46,15.46,0,0,0-.09-4.8,1.35,1.35,0,0,0-.21-.62,1.56,1.56,0,0,0-1.27-.45,73,73,0,0,1-16.54-2.72,8.39,8.39,0,0,0-3-.49,5.23,5.23,0,0,0-3.87,2.7A12.36,12.36,0,0,0,418.5,755.29Zm-9.41,31.27H462.8l.22-3.1L411.29,781ZM463,796.48a3.68,3.68,0,0,0-1.5-2.16l-2-.66H409.09l-1.92.51a3.73,3.73,0,0,0-.37,4.49l1,.76h51.77l2.13-1A1.64,1.64,0,0,0,463,796.48Zm6.23-18-4.59-4a2.84,2.84,0,0,0-.84-.57,3.1,3.1,0,0,0-1.68,0,32.18,32.18,0,0,1-22-3.48,10.12,10.12,0,0,0-2.78-1.27,9.11,9.11,0,0,0-2-.12q-12,.25-24.09.84v2.41l.54,3.39a1.14,1.14,0,0,0,.33.78,1.18,1.18,0,0,0,.72.21Q441,778.81,469.25,778.53Zm3.25-35.89a181.92,181.92,0,0,0-48.69-12.7c-1-.12-2.37,0-2.62,1a1.92,1.92,0,0,0,.21,1.21,8.2,8.2,0,0,0,2.08,2.8l1.35,1.54C440.6,739.4,456.46,742.33,472.5,742.64Zm17.17-27.9L487,712.19l-42.07-5.65-7.46-1-12-1.89-2,2.65a14.49,14.49,0,0,0,1.07,8.92l2.07,2,57,6.9,2.84-1.84a4.71,4.71,0,0,0,3.18-3A7.51,7.51,0,0,0,489.67,714.74Zm316,39.42a3.77,3.77,0,0,0,1.82.9c6.15,1.87,10,7.88,15.53,11.23a6.62,6.62,0,0,0,2.3,1c1.45.23,2.88-.37,4.32-.63a9.41,9.41,0,0,1,8.56,3,2.52,2.52,0,0,0,1.13.92,2.38,2.38,0,0,0,1.06,0,51.74,51.74,0,0,1,14.32-.86l.6-.57-47.15-17.13-2.22.53C805.31,752.64,805.25,753.64,805.7,754.16Zm51,76.66q-25.68-2.66-51.43-4.44l0,2.52v.5a416.94,416.94,0,0,1,50.9,3.9Zm8.61-1.2c.13-2.67-2.73-4.38-5.23-5.32a64.73,64.73,0,0,0-21.9-4c-1.85,0-4-.12-5-1.67q-13.46-.3-26.92-.51c-.05.81-.11,1.61-.16,2.42l.34,1.25Zm7.88-67.6-55.53-29.59-2.73,1.07a10.91,10.91,0,0,0-.23,10.78l.84,2.94L872,769.05Zm8.34-12.09a11.22,11.22,0,0,0-1.21-5.37l-2.6-5.21-55.53-29.59L819,712.17a14.82,14.82,0,0,0-1,3.91,5,5,0,0,0,1.17,3.75l.51,3.86,55.53,29.59,4-.24a1.93,1.93,0,0,0,1.8-1A4.2,4.2,0,0,0,881.5,749.93Zm5.16-25.44-3.55-5.16-55.54-29.6-3.77,1.48a5.51,5.51,0,0,0-.73,7.44l1.74,3,55.54,29.6,4.34-.59A8.56,8.56,0,0,0,886.66,724.49Zm-702.28,4.26c0,.31.31.52.58.66,3.66,1.92,8.1.93,12.18,1.59l5.51-3a8.3,8.3,0,0,1-2.64-4.81c-.29-1.77-.14-3.9-1.59-5a4.82,4.82,0,0,0-2.76-.66l-10.44-.4a11.82,11.82,0,0,1-.64,11.06A.92.92,0,0,0,184.38,728.75ZM479.3,818.88q-7.44,1.14-14.82,2.58c-3.23.63-6.53,1.34-9.27,3.13l-.67,1.88-51.44,1.11-1-2.32c-1-2-3.7-2.27-5.93-2.31-50-1-99.91,6.1-149.94,5.88-4.92,0-10-.09-14.61,1.55s-8.87,5.41-9.56,10.28a4,4,0,0,0,.69,3.26c.9,1,2.43,1.09,3.79,1.09q87.61.48,175-6.86l.41-3c.67-.23,51.44-2.22,51.44-2.22l2.07,1.83a69.43,69.43,0,0,0,13.21.89q53.49.07,106.88-3.72l9.83-2.95a45.32,45.32,0,0,1,5-12.41q-53.91,0-107.79,2.21Z"></path>
    <path data-name="3" data-official="Zea Mays" data-plain="Maize, or Indian Corn" data-loc="America" d="M1041.14,1338.36l-.27-3.87c-2.27-11.21-1.74-22.77-2-34.2-.73-32.36-7.86-64.2-14.95-95.78-2.27-10.1-4.55-20.23-7.95-30-5-14.31-12.3-27.76-16.39-42.35l-.29-5.42a195.2,195.2,0,0,1-16.69-41.37c-3.6-13.07-5.83-26.52-10.31-39.31a118.76,118.76,0,0,0-41.84-56.34l-6-3.28c-11.15-5.56-20.43-17.43-18.21-29.69,2.07-11.41,13.4-19.2,24.81-21.27s23.08.26,34.57,1.8c14.33,1.91,29.56,2.46,42.56-3.86A44.36,44.36,0,0,0,1032.66,895l-.87-9.92c-9.53-7-21-10.86-32.59-13.25s-23.39-3.41-35.06-5.3c-23.22-3.75-45.83-11-69.2-13.67l-1.65,4.23c-15.22,3.79-27.19,16.19-34,30.31s-9.19,30-10.93,45.54c-4,35.67-5.09,71.6-6.19,107.48-2.89-3.12-4.29-7.31-5.51-11.39a289,289,0,0,1-8.87-39.2l-10.91-21.92-9.42-38.32a200.3,200.3,0,0,0-6-20.87c-1.82-5-4-9.8-5.36-14.91a89.53,89.53,0,0,1-2-13.24q-1.56-15.19-3.13-30.39l-2.56-6.42L783,842.17a134.42,134.42,0,0,0-7-22.69c-.46-1.13-.83-2.68.17-3.37l1.09-1.72c-27.29-.75-54.77-1.49-81.72,2.87l-2.42,1.3a16.3,16.3,0,0,1-2.82-1.66,24.21,24.21,0,0,1-3.61-3.33,46,46,0,0,1-6.44-9l-.45-.24q-41.31-.41-82.64,0l-5,1.92-2.36,3.41a22.54,22.54,0,0,1-1.61,3.75l2.21,3.15a45.32,45.32,0,0,0-5,12.41l-9.83,2.95.13,3a64.08,64.08,0,0,0-.25,8.2l5.42,4.42,2.24.31a109.68,109.68,0,0,0,6.61,14.67l-3.38,2.2-1.93,5.44q.11,6.35-.06,12.7c0,1.63-.34,3.62-1.87,4.2a3.83,3.83,0,0,1-3.24-.71c-5.72-3.5-9.6-9.87-15.93-12.06l-4.92-4.13c-19.81,3-39.87,4.58-59.86,6.62l.81,4.76c-.86,3.43.8,7.15,3.5,9.42a17.91,17.91,0,0,0,9.77,3.68c3.51.37,7.06.15,10.59.25a29.92,29.92,0,0,1,12.31,2.6,15.33,15.33,0,0,1,8.22,9.17,2,2,0,0,1-.2,2,2.17,2.17,0,0,1-1.46.46c-2.29.11-4.6.09-6.9,0a187.49,187.49,0,0,1-34.44-4.27c-3.55-.78-7.62-1.57-10.55.57-1.8,1.31-2.75,3.44-3.82,5.38-1.5,2.72-3.58,5.37-6.54,6.29-3.68,1.14-7.52-.67-11.27-1.52a18.25,18.25,0,0,0-12.31,1.24,13.16,13.16,0,0,0-7.2,9.76c-.41,3.34.6,7-1.17,9.89l-1.39,5.08a131.41,131.41,0,0,0-.85,18l3.57,1.28c10.42.58,20.18-5.13,28.18-11.84a10.38,10.38,0,0,1,4.22-2.58c2.23-.5,4.49.56,6.41,1.78a34.58,34.58,0,0,1,10.52,10.44c-5.71,2.7-11.45,5.43-16.61,9.06s-9.78,8.27-12.5,14a18.69,18.69,0,0,0-18.19-1l-3.84,2.57q-.44,5.65-.86,11.31l2.59,5.09c1.65,3-.41,6.65-1.71,9.86-1.83,4.55-2.1,9.56-2.34,14.46q-3.84,77.51-7.67,155l.9,6.44c-5.54,47.74-7.73,95.79-9.93,143.8-1,22-2,44-1.21,66l4.47,9.54,7,40.56c2.77,16.1,5.55,32.22,9.79,48,2,7.39,4.3,14.7,5.86,22.2,4.38,21,2.82,42.83,7.37,63.75,3.72,17.14,11.48,33.4,13.1,50.85l1.58,8.55q73.6,222.31,140,447l6.79,6.45c4.18,10.76,14.26,18,20.77,27.5a93.94,93.94,0,0,1,7.55,14.4c3.27,7.23,6.56,14.51,8.55,22.19,5,19.44,1.63,40.76,9.32,59.32l2.21,6.75c2.44,11.16,4.9,22.41,9.43,32.9a180,180,0,0,0,9.33,17.77c3.64,6.34,7.34,12.75,12.43,18,12.75,13.15,33.23,18,43.07,33.45l3.16,6.69c6.33,9.14,12.91,18.51,22.26,24.52,3,1.91,6.3,3.54,8.36,6.41,3.79,5.27,2,12.64,3.84,18.88,2.08,7.2,8.6,12.08,14.72,16.41L822,2414.19a13.78,13.78,0,0,1,6.71,9.46c3,9.69,6,20.16,2.77,29.77l-.47,6.27c-.47,2.46,1.09,4.79,2.21,7,1.9,3.83,2.61,8.13,3.3,12.35a10,10,0,0,1,0,4.65c-.76,2.34-3.23,4.08-3.23,6.54l.11,8c1.6,7.14,9.4,11,16.6,12.3s14.85,1,21.39,4.25a21.66,21.66,0,0,1,9.74,9.83c1.3,2.68,2.06,5.65,3.79,8.08a12.09,12.09,0,0,0,8.37,4.95c6.49.75,12.29-3.74,17.28-8L917,2527l1.59-9.5c11-17.94,15-39.23,17.55-60.1l.1-33.32L935.8,2411c-.2-5.67-.43-11.44-2.34-16.78-2-5.58-5.72-10.39-7.79-15.94-1.88-5-2.32-10.48-2.27-15.85a30.55,30.55,0,0,1,1.55-10.55c2.71-7.19,9.84-12.47,11-20.08.41-2.66,0-5.46.91-8,2.61-7.51,13.85-8.16,17.9-15,1.68-2.86,1.82-6.35,3-9.46,2.28-6.08,8.13-10,13.63-13.42l5-1.51c2.76-14.73,5.67-29.43,9.07-44l-.75-24.38-1.92-47.73c-2.08-51.57-4.16-103.17-9.52-154.5l-1.29-9.63q-2.19-12.21-3.91-24.5c-.85-6.13-1.62-12.34-1-18.49.89-8.72,4.54-16.88,7.43-25.15,5.37-15.4,8.16-31.56,10.58-47.68q6.5-43.27,9.51-87l3.83-10.7a422.42,422.42,0,0,1,10.09-76.43l.44-7.39q1-17.1,3.3-34.08l.32-8.47S1067.74,1531.23,1041.14,1338.36ZM690.2,888.66q-1.43,24.27-2.84,48.52a46.39,46.39,0,0,0-27.73-1.24,21.66,21.66,0,0,1,6.77-13.16c2.11-1.94,4.66-3.51,6.16-5.95a9,9,0,0,0-9.29-13.48c-2.37.44-5.51,1.5-6.63-.63-.51-1-.24-2.11-.32-3.19a6.36,6.36,0,0,0-3.85-4.94,17.81,17.81,0,0,0-6.4-1.28c-1.93-.13-4.07-.17-5.53,1.09-2.64,2.26-1.3,7-3.75,9.49a5.34,5.34,0,0,1-5.14,1.08c-5-1.37-7.1-7.17-8.45-12.18q-3.42-12.69-6.83-25.38l-4.23-5.21-2.46-.67a40.61,40.61,0,0,1-.59-12l4.22-2.49.62-3.16a32.05,32.05,0,0,1,3.32-11.76l.06-4.64L615.63,826c1.82-4.13,6-6.58,9.57-9.37a5.75,5.75,0,0,1,1.73-1.07,5.49,5.49,0,0,1,1.67-.17l6.84,0,1.16.4a14.41,14.41,0,0,1,6,3.08,43.89,43.89,0,0,1,4.79,4.85l-1,3,2.6,5.84,8.43,7.18,6.93,4a6.29,6.29,0,0,1,1.83.27,6.13,6.13,0,0,1,2.22,1.6,45.13,45.13,0,0,1,5.63,6.93l-1.57,3,1.88,6.08,13.84,19.43a8.87,8.87,0,0,1,2,7.52Zm-279.46,289c2.56,3.67,2.67,8.45,2.66,12.93q-.06,72.32-7,144.42l-4.11-3c-5.11-17.88-18.29-32.48-24.2-50.11-3.48-10.35-4.32-21.39-7.06-32-2.53-9.71-6.64-18.93-10.49-28.2-17.72-42.63-30.46-87.43-51.86-128.33l-.06-4.52a22.3,22.3,0,0,1-1.15-5.86,7.51,7.51,0,0,1,1.95-5.49,8.37,8.37,0,0,1,2.4-1.57,13.49,13.49,0,0,1,7.09-1.31l9.79.3c17.5,10.88,25.87,31.65,40,46.61.76.81,1.77,1.68,2.86,1.42l-2-25.1c-.74-9.42-1.16-19.92,4.94-27.14,3.83-4.53,9.61-6.9,15.26-8.71a29.34,29.34,0,0,1,9.9-1.79c3.37.13,6.83,1.42,8.89,4.09,2.18,2.85,2.43,6.68,2.57,10.27a791.56,791.56,0,0,1-1.19,84.51Z"></path>
    <path data-name="3a" data-official="" data-plain="Seed" data-loc="" d="M513.62,2722.59c-.27-5.69,2-11.14,3.78-16.57s2.93-11.52.53-16.69c-2.61-5.62-8.65-8.6-13.69-12.2-11.33-8.09-19.06-22.49-15.8-36,2.72-11.28,12.47-19.85,23.31-24s22.71-4.52,34.31-4.35c13.1.2,27.59,1.66,36.51,11.27,6.29,6.78,8.49,16.32,10,25.44,1.12,6.58,2,13.62-.77,19.69-2.56,5.62-7.79,9.48-12.86,13-2.59,1.81-5.37,3.81-6.35,6.82-1.55,4.71,1.9,9.44,4.83,13.45,3.51,4.79,6.63,10.11,7.37,16s-1.38,12.46-6.43,15.59a22.26,22.26,0,0,1-8.42,2.61,193.17,193.17,0,0,1-34.17,1.94c-4.31-.09-8.73-.28-12.69-2s-7.41-5.26-7.75-9.56Z"></path>
    <path data-name="4" data-official="Saccharum officinarum" data-plain="Sugar-Cane" data-loc="East Indies" d="M829.94,257l.86.63,8.28,1.25c4.88.73,10,1.59,13.73,4.88a35.56,35.56,0,0,1,4.58,5.69,44.74,44.74,0,0,0,11.29,10.71,1.79,1.79,0,0,0-2.56.4,4.19,4.19,0,0,0-.57,2.83q-5-4-9.72-8.25c-5-4.49-10.43-9.46-17.14-9.82Zm8.18-8.59c2.52,1.7,5.49,2.6,8.18,4a24.67,24.67,0,0,1,11.6,13.09,70.19,70.19,0,0,0-13.52-9.56l-1.47-1.43a43.41,43.41,0,0,0-8-5.46ZM805.7,754.16a3.77,3.77,0,0,0,1.82.9c6.15,1.87,10,7.88,15.53,11.23a6.62,6.62,0,0,0,2.3,1c1.45.23,2.88-.37,4.32-.63a9.41,9.41,0,0,1,8.56,3,2.52,2.52,0,0,0,1.13.92,2.38,2.38,0,0,0,1.06,0,51.74,51.74,0,0,1,14.32-.86l.6-.57-47.15-17.13-2.22.53C805.31,752.64,805.25,753.64,805.7,754.16Zm51,76.66q-25.68-2.66-51.43-4.44l0,2.52v.5a416.94,416.94,0,0,1,50.9,3.9Zm8.61-1.2c.13-2.67-2.73-4.38-5.23-5.32a64.73,64.73,0,0,0-21.9-4c-1.85,0-4-.12-5-1.67q-13.46-.3-26.92-.51c-.05.81-.11,1.61-.16,2.42l.34,1.25Zm7.88-67.6-55.53-29.59-2.73,1.07a10.91,10.91,0,0,0-.23,10.78l.84,2.94L872,769.05Zm8.34-12.09a11.22,11.22,0,0,0-1.21-5.37l-2.6-5.21-55.53-29.59L819,712.17a14.82,14.82,0,0,0-1,3.91,5,5,0,0,0,1.17,3.75l.51,3.86,55.53,29.59,4-.24a1.93,1.93,0,0,0,1.8-1A4.2,4.2,0,0,0,881.5,749.93Zm5.16-25.44-3.55-5.16-55.54-29.6-3.77,1.48a5.51,5.51,0,0,0-.73,7.44l1.74,3,55.54,29.6,4.34-.59A8.56,8.56,0,0,0,886.66,724.49Zm334.81,1534.1q-1.73-14.53-3.46-29.06c-.39-3.27-1.29-7.2-4.43-8.21-1.88-.61-3.92.12-5.76.86-33,13.23-63.81,31.07-95.86,46.33-29.36,14-59.71,25.79-89.17,39.55-7.11,3.32-14.28,6.82-20,12.14l-1.25.93c.06,1.26.1,2.51.11,3.75a122,122,0,0,1-1.89,19.23q-2.81,18.46-5.62,36.94l1.39,7.4c-4.82,17.1-3.27,35.28-5.21,52.94a268.7,268.7,0,0,1-4.91,27.25l4.34,5.69a27.07,27.07,0,0,0,13.12,18.52c6.08,3.43,14.18,5.14,16.81,11.61,3.15,7.75-4.18,16.29-2.72,24.53,1,5.59,6,9.8,11.4,11.51s11.23,1.4,16.9,1c7.47-.51,16.28-2,19.5-8.74,2.71-5.7,0-12.55,1.38-18.71,1.32-6,6.41-10.61,12.07-13s11.89-3,18-3.59c27-2.71,54.44-6.95,79-18.73s46-32.17,53.57-58.29c4.61-16,3.79-32.93,2.94-49.53l-5.51-106.54Zm6.61-880.2c-3.54-7.53-7.13-15.24-8-23.51-.67-6.38.3-12.8,1.14-19.16a439.69,439.69,0,0,0,3.7-65.57c-.25-13.87-1.17-27.8-4.23-41.33-1.9-8.4-4.61-16.6-6.92-24.9a247.42,247.42,0,0,1-7.28-36c-5.59-45.17,2.3-92-9.9-135.82l-.41-4.73-1.11-4-3.68-4a4.39,4.39,0,0,1-2.08,3.41,41.33,41.33,0,0,1-3.65,2,12.51,12.51,0,0,0-5.52,6.61l-1.43,2.62a347,347,0,0,1-15.62,70.18l-1.23,2.58c-7.23,19.94-6.4,41.73-7.13,62.92a409.17,409.17,0,0,1-5.41,53.66l.23,2.58-43,456.72c1.83,1.23,2.11,3.76,2.21,6,.07,1.63.15,3.26.22,4.89a29.75,29.75,0,0,1-.57,9.42c-.85,3-2.88,5.93-5.86,7l-.24,1.54s-35.25,294.63-37.25,309.93-59.69,274.78-59.69,274.78c58-22.7,113.56-50.93,169.57-78.17l26.47-12.86c-3.52-1.09-2.67-7,.67-8.52s7.24-.17,10.61,1.29a20.17,20.17,0,0,1,7.82-15l1.55-5.19a286.61,286.61,0,0,1,.79-45c.47-4.77,1.05-9.52,1.43-14.29.74-9.21.74-18.47.74-27.71V2019.4l2.31-6.31q-.94-176.74,1.11-353.49l-.91-4.32a1760.79,1760.79,0,0,1-.67-270ZM1007.51,1735.2q.81,53.88-1.49,107.75l.72,7.57q-13.31,176.12-13,352.89l1.24,5.81c8.08-7.91,11.47-19.33,14.33-30.27a821.36,821.36,0,0,0,18.86-94.8l.87-2.42a3156.78,3156.78,0,0,0,51.87-375l.12-1.32c-3.83-8.92,2.45-18.86,2.45-28.56,0-3.91-1-7.85-.28-11.68.51-2.62,1.83-5,2.47-7.62,1-3.91.3-8,0-12-.4-6.48.28-13,1-19.41q3.52-33.67,7-67.34l-.35-3q15.87-149.76,28.87-299.8c3-34.42,5.85-68.94,4.6-103.46-.67-18.31-1-40,13.77-50.79l.19-1.2c-.62-30.66-1.44-61.31-2.68-91.95-.35-8.42-.72-16.85-1.89-25.19A135.24,135.24,0,0,0,1082.6,894l-.56-.87a18.79,18.79,0,0,1-11.33-5.65l-.52-.64c-2.45,1.58-5.75.72-8.26-.77s-4.72-3.56-7.49-4.49a10.24,10.24,0,0,0-9.69,1.87,11.19,11.19,0,0,1-1.57,1.27l-1.12,6.85a1433.47,1433.47,0,0,0-6.58,161.17c.3,18.7,1,37.39.7,56.09-.18,12.87-.78,25.74-1.39,38.6l-3.19,67.65-3.1,10.19c5.32,24.78,9.8,49.75,10.37,75,.26,11.43-.27,23,2,34.2l.27,3.87c26.6,192.87-28.6,325.89-28.6,325.89l-.32,8.47q-2.31,17-3.3,34.08l-.44,7.39Zm42.34-957.91c1.15,4.19,1.38,8.61,2.82,12.71,3.84,10.92,15.83,18.34,16.94,29.86a77.82,77.82,0,0,1,1.74-19.79c.87,13.59,7,26.21,12.66,38.59s11.08,25.5,10.39,39.1l1,.75a3,3,0,0,1,3.7-.56,8.57,8.57,0,0,1,2.83,2.88q15.88,22.41,30.08,46a118.18,118.18,0,0,1,7.51,13.92,109.12,109.12,0,0,1,5.64,18,332.87,332.87,0,0,1,7.25,114.14c2.22-13.52,6.48-26.62,9.92-39.89,11.66-44.92,13.7-91.91,25.5-136.79l3-10c-4.46-21.69-17.21-41.28-19.61-63.29l.29-4.66c-3.21-5.57-2.88-12.6-5.89-18.28-1.94-3.65-5.18-6.57-6.66-10.44-.88-2.31-1.09-4.85-2.19-7.07-.83-1.67-2.13-3.08-2.87-4.8s-.73-4,.75-5.15l.47-1.87c-4.49-2.86-9.28-6.1-10.94-11.15-1.11-3.37-.63-7-.61-10.57a2.54,2.54,0,0,0-.13-.95,3.49,3.49,0,0,0-.87-1c-1.4-1.34-1.7-3.42-1.92-5.33a4.51,4.51,0,0,1-6.94.4l-.28.28c-3.9,1.29-8.12,1-12.21.77-3.13-.21-6.32-.44-9.2-1.67a27.61,27.61,0,0,1-5.43-3.4c-5-3.71-10.09-7.47-14-12.33-4.26-5.29-7-11.64-10.65-17.34s-8.84-11-15.5-12.32c4.1-1.4,8.61-1,12.83,0s8.31,2.52,12.56,3.34l.06-.65-21.72-26.42c-2.39-2.91-5-5.95-8.55-7.13l.38,5.73c-5.77,7-8.91,15.82-10.06,24.77a129.78,129.78,0,0,0-.77,15.14l-.61,52.91ZM1720.62,1899c24.49-40.93,67.24-68.23,92.69-108.58,12.77-20.25,20.81-43.23,34-63.21,7.58-11.47,17-22.27,20.35-35.61l5-6.54c19.18-34.59,22.13-75.55,24.66-115,.69-10.8,1.39-21.6,1.45-32.42A282.25,282.25,0,0,0,1881,1437.11l-1-10.6c-4.38-7.65-6.82-16.23-9-24.77-15.29-58.84-22.37-120.74-50.07-174.87l-7.2-8.36c-6.51-12.52-8.69-26.77-11.11-40.67C1797,1146,1789.77,1114.45,1779,1084c-2.77-7.85-5.78-15.65-7.86-23.71a214.22,214.22,0,0,1-4.38-25.06l-11.14-82.88,2-7.13-10.77-10.6c-23.44-11.36-47.78-21.07-69.9-34.83-4.08-2.54-8.35-5.31-13.15-5.42l-1.29,4.52c-3.4,23.76-6.77,48.31-.47,71.48,2.88,10.59,7.7,20.55,11,31a114,114,0,0,1,5,42.83c-.91,12-3.73,23.89-4.44,35.94a104.07,104.07,0,0,0,9.33,49.54c5.16,11.21,12.38,21.61,15.51,33.56,1.92,7.35,2.22,15,2.31,22.62q.12,11.67-.4,23.32l.21,6.77a113,113,0,0,0,12.93,42.13c4.61,8.56,10.37,16.59,13.57,25.77,4.13,11.85,3.72,24.74,5.82,37.11a92.16,92.16,0,0,0,15.86,38.07c4.42,6.19,9.64,11.86,13.21,18.58,3.67,6.91,5.45,14.63,8.14,22a92,92,0,0,0,12.19,22.72c7.17,9.78,16.4,18.35,20.93,29.6s2.15,26.75-9,31.6l-3.19,9c-28.53,41.22-46.55,88.63-64.3,135.52-14.76,39-29.57,78.15-37.6,119-3.41,17.34-5.6,35-11.25,51.75-4.45,13.22-11,25.64-18.32,37.51-10.79,17.49-23.3,33.84-35.79,50.16L1612.82,1901c-10.24,13.38-20.48,26.77-30.85,40.07l-4.23,7.33a1058,1058,0,0,0-155,393.94c-3.25,18.63-6,37.46-5.41,56.35.46,14.73,3.5,30.46,14.06,40.74,1.29,1.26,2.87,2.49,4.66,2.4s3-1.26,4.21-2.45c14.71-15,15.93-38.14,17.91-59.06,10.07-106.4,61-204,110.9-298.5,12.39-23.45,24.82-47,39.8-68.83,27.67-40.42,63.55-74.54,101-106Zm26.82-1217a294.52,294.52,0,0,0-.78-53.61l1.89-7.23.21-31.2c.07-9.85.14-19.7-.36-29.54-2-38.91-12.62-76.78-23.22-114.27l-2.17-7.19c-3.35-12.28-11.1-22.87-15.82-34.7-2.85-7.17-4.57-14.73-7.06-22-4.49-13.21-11.43-25.42-18.32-37.54-4.32-7.58-8.74-15.3-15.2-21.16l-4.73-1.1a13.92,13.92,0,0,1-4-.68l-3.64-1.5a105.56,105.56,0,0,0-16.82-22.38l.11-4.73c-3.44-5.57-6.89-11.16-10.87-16.37-9-11.78-20.5-21.39-32.14-30.58-6.55-5.16-13.3-10.3-21.11-13.21a84,84,0,0,0-12.42-3.24l-8.2-.87a44.86,44.86,0,0,0-4.5-2.77l-13-7.28-1.54-6.15a95.08,95.08,0,0,0-36.74-14,45,45,0,0,1-9-1.91c-3.54-1.34-6.56-3.74-9.62-6a118.05,118.05,0,0,0-47.82-20.45c-4.09-.75-8.28-1.3-12.08-3-4-1.82-7.39-4.86-10.93-7.54-12.17-9.22-26.85-14.4-41.31-19.28-14-4.73-28.48-9.37-43.23-8.44-18.61,1.17-35.42,11-51.42,20.58l1.64-5.31c1.84-2.92,2.29-6.48,2.69-9.91,1.08-9.29,2-19.27-2.5-27.45a28.63,28.63,0,0,0-11.18-10.73,60.34,60.34,0,0,0-14.66-5.48,134.62,134.62,0,0,0-37.76-4.16L1205,87l-39.24-28c-7.58-5.42-15.26-10.89-23.91-14.35-12.7-5.08-26.71-5.53-40.39-5.92l-99.89-2.81L993,37.73c-20.8,9.44-42,19.17-58.46,35a199.51,199.51,0,0,0-15.17,17l-17.42,21.14c-4.41,5.35-8.95,11-10.47,17.74-.68,3-.72,6.22-1.42,9.26s-2.26,6.13-5,7.57l-3.57,6.17L880.25,155c.3,4.63-1,9.27-.54,13.89.79,7.28,6,13.44,7.28,20.65a60,60,0,0,1,.55,7.35c.46,8.28,2.72,16.56,1.53,24.77,2.73-4,1.93-9.24,1.32-14a111.8,111.8,0,0,1,3-43.46c-.41,7.83-.82,15.73.45,23.46s4.38,15.39,10,20.79l.09.44a14.34,14.34,0,0,1,3.48,8.87,65.65,65.65,0,0,1-.4,9.7,79.54,79.54,0,0,0,1.15,20.14,25.34,25.34,0,0,1,5.23-2.62l1.17-1a42,42,0,0,0,.74-8.59L919,242c1.27-8.67-.06-17.56-2.65-25.93s-6.39-16.3-10.18-24.2l-6-12.45a24.91,24.91,0,0,1,5,5.17,98.49,98.49,0,0,1,19,42l.35.82a12.62,12.62,0,0,1,10.07,14.65l3.25,1a9.07,9.07,0,0,1,3.84,1.32l4.52.75,1-5.6a117.75,117.75,0,0,0,18.19-41.74c1.09-5,1.9-10.2,4.38-14.68,2.65-4.79,7-8.36,10.83-12.24,21.27-21.37,28.71-52.42,42.18-79.39,3.25-6.51,7.15-13.11,13.41-16.84a12,12,0,0,1,6-1.92c4.27-.05,7.82,3,11,5.83a165.36,165.36,0,0,0,51.48,30.22c7.17,2.6,14.55,4.73,21.25,8.36s12.79,9.06,15.39,16.22,1.47,15,3,22.34c1.2,5.76,4,11.05,5.81,16.64,3.21,9.75,3.5,20.18,3.77,30.43l1.32,50.1.12,6.22c.92,13.29,1.84,26.75-.55,39.85-5.81,31.92-30.33,57.77-37.45,89.43a105.28,105.28,0,0,0-2.14,28.29c.32,6.36,1,13-1.57,18.84-2.24,5-6.82,9-7.47,14.48l-2.81,7.83a43.33,43.33,0,0,1,.79,14.63c-1,9.11-4.28,17.79-7.54,26.35l-1.73,3.64c3.63,6.88.07,16.14,4.34,22.64l3.38-1a1.53,1.53,0,0,0,.83-.42,1.58,1.58,0,0,0,.31-.82l1.6-8.83a13.78,13.78,0,0,1,1.64,4.82,54.22,54.22,0,0,0,8.12-12.34,45.91,45.91,0,0,1-.48,9.66,8.09,8.09,0,0,0-.15,2.68,7.14,7.14,0,0,0,1.38,2.75c3.21,4.53,6.91,8.92,8.45,14.25l1.28,1,8.07-6.83c-1,6.25-1.9,12.79.17,18.77.7,2.05,1.75,4,2.28,6.07a23.25,23.25,0,0,1,.54,5.65,42.19,42.19,0,0,1-.47,7.37,50.79,50.79,0,0,1-4,11.5c-2.64,6.06-5.65,12.53-11.41,15.75l-.2.57-.11,19.45c0,.51.07,1.14.54,1.32.71.29,1.21-.73,1.3-1.49.49-4.09.63-8.25,1.65-12.24s3.06-7.91,6.5-10.18a17.16,17.16,0,0,0-.24,16.83,47.32,47.32,0,0,1,1.83-13,21.36,21.36,0,0,1,7.18-10.76c1.23,1.42,1.06,3.61.3,5.32s-2,3.17-2.85,4.84a12,12,0,0,0-.15,10.45,22.11,22.11,0,0,1,4.58-8.26,49.47,49.47,0,0,0,2.68,28.18l-.13.9c4.94,1.08,8.92,5,11.17,9.51s3,9.67,3.3,14.71a103.23,103.23,0,0,1-.16,15.23l.78.64,1.81,8.42c.82-4.23,1.65-8.51,3.51-12.4s4.87-7.4,8.9-8.94l1-6.34c1-9.06,2-18.17,4.43-26.94,1.07-3.8,2.42-7.53,3-11.43.8-5.21.25-10.51.43-15.78.27-8.09,2.25-16,3.85-24,7-34.69,6.55-70.39,6.12-105.77l2.1-6.26c6-12.61,12-25.26,16.5-38.46,2.6-7.6,4.72-15.36,6.92-23.08a992,992,0,0,1,35-101.34c1.85-4.57,3.77-9.24,4-14.16l2.76-6.9c3.28-11.39,15.65-17,24.73-24.6,11.6-9.71,18.47-23.74,26.76-36.4a173.44,173.44,0,0,1,17.1-22c2.91-3.18,6-6.31,10-8.07,8.29-3.69,17.87-.44,26.34,2.82,9.7,3.74,19.47,7.51,28.21,13.14,12.78,8.25,22.75,20.1,32.52,31.76L1477.83,294l5.18,1.42c4.78,3.39,12.12,1.3,16.58,5.1,2.06,1.75,3.05,4.41,4.06,6.92a102.61,102.61,0,0,0,13.78,24.14l-1.11,5.32a131.8,131.8,0,0,0,41.7,59.73c2.79,2.25,5.66,4.38,8.55,6.47q16.5,11.91,34.13,22.13l4.09,4.39c3.24-1.37,7.09-.52,10.07,1.37s5.24,4.68,7.38,7.48a241.26,241.26,0,0,1,15.86,23.34c3.21,5.37,6.3,11.19,6.22,17.45l-.28,4.21c.08,9.46,4.23,18.37,5.9,27.67,1.64,9.12.89,18.64,3.47,27.54,1.8,6.22,5.15,11.86,7.74,17.8,10.27,23.58,8.1,50.42,11,76l.46,9.1q1.26,13.75,2.51,27.5c.53,5.81,1.14,11.88,4.31,16.78,1.32,2,3,3.81,4.34,5.88,3.4,5.44,3.43,12.27,3.35,18.69l-.33,28-2.76,7.13q-3.93,56.67-11.45,113l-2.78,6.09a6.1,6.1,0,0,1,2.92,4.54,11.26,11.26,0,0,1-.08,2.46c-.15,1.55-.31,3.1-.46,4.66l.47,1.23c4.31,3.3,9.58,5.07,14.27,7.8,4.07,2.36,7.68,5.42,11.58,8a110.52,110.52,0,0,0,11.3,6.45q18.92,9.74,38.67,17.7l3-2.2,2-4.88-4.05-89.78.51-7.37c-.5-40.45,9.29-81.2,2.36-121.05Zm-919.72-6.14,2.42,8,55.53,29.6,3.65-1.05,2.27-4.54c7.58-17.44,8.43-37,9.16-56,.59-15.29,1.19-30.6,1-45.9a133,133,0,0,0-1.62-21.85c-2.13-12-7-23.25-12-34.32l.56-4.48c5-41.92.5-84.44,4-126.51l3.43-5.53a104.32,104.32,0,0,0,3.11-21.6l1.84-6.15c-1.93-1.43-4.1-2.73-5.25-4.84-1.4-2.58-.93-5.77,0-8.55s2.26-5.49,2.52-8.41l.16-2.81c-1.2-2.67-3.41-4.72-5.41-6.85A58.85,58.85,0,0,1,882,337.17c-1-2.24-1.81-4.73-1.19-7.09l-.26-1.18c-5.66-3.9-9.58-9.79-13.23-15.62-6.41-10.23-12.51-20.95-14.92-32.78a19.27,19.27,0,0,0-1.87-6.18,11,11,0,0,0-6.11-4.46,32.39,32.39,0,0,0-7.61-1.2l-1.26,6.07-8.68,29a211.41,211.41,0,0,0-5.77,22.12c-1.84,9.95-2.25,20.11-2.66,30.22-.74,18.49-1.48,37-1.37,55.48.1,17.62,1.13,35.85,9,51.61,1.92,3.84,4.25,7.54,5.2,11.72a37.76,37.76,0,0,1,.58,8.89q-.33,22.25-.65,44.49l.22,5.35.54,94.43c.08,13.54.12,27.34-3.93,40.26ZM794.09,880.55a89.53,89.53,0,0,0,2,13.24c1.32,5.11,3.54,9.94,5.36,14.91a200.3,200.3,0,0,1,6,20.87l9.42,38.32,5.59.47c3.52-4.08,5.77-9.08,8-14l8.86-19.82a85.17,85.17,0,0,0,4.25-10.84c1.45-5,2-10.19,2.87-15.31,3.38-19.14,12.18-37.43,12.08-56.87l.63-6.74c-.47-1.89-2.66-2.71-4.55-3.19a119.55,119.55,0,0,0-51.41-1.47l-2.55,3-2.14,4.74a133.36,133.36,0,0,1-2.72,17Z"></path>
    <path data-name="5" data-official="Panicum italicum" data-plain="Italian Millet" data-loc="Italy" d="M893.29,2537.64l-7.6,6.47c-7.81,8.13-21.05,8.1-31.7,4.39s-20.09-10.38-30.75-14.07c-5.41-1.87-11.26-2.95-16.89-1.89s-11,4.54-13.3,9.8c-1.88,4.34-1.51,9.27-1.74,14-.4,8.29-2.88,16.63-8,23.13s-13.14,11-21.43,10.84-16.57-5.3-19.38-13.1c-.72-2-1.11-4.2-2.3-6-3.37-5.06-10.8-4.41-16.87-4.08a61.52,61.52,0,0,1-38.68-11.23l-5.38-.79c-8.65-2.92-15.16-10.67-17.88-19.39s-2-18.23.75-26.95c1.87-6,4.64-11.8,5.71-18s.1-13.27-4.51-17.59c-2.49-2.33-5.92-3.76-7.67-6.7-2.18-3.64-1-8.43,1.27-12,3.61-5.7,9.65-9.57,16.08-11.6s13.28-2.4,20-2.3c3.07,0,6.56,0,8.68-2.2,1.66-1.74,2-4.38,3.37-6.35,3.11-4.41,9.76-3.75,15-2.29a133,133,0,0,1,18.93,6.88c4.21,1.91,8.37,4,12.89,5s9.57.52,13.22-2.31,5.24-8.48,2.63-12.29a13.55,13.55,0,0,0-3.69-3.34,69.09,69.09,0,0,0-23-10.23c-7.73-1.84-15.75-2.34-23.41-4.44s-15.26-6.19-19.12-13.13a9.33,9.33,0,0,1-1.39-6.26c.6-2.89,3.31-5,6.16-5.71s5.86-.39,8.79,0l47.49,5.62c6.61.78,13.3,1.58,19.54,3.9,12.55,4.66,22.25,15.19,28.52,27l8.28-5.14,6.14-1.07a13.78,13.78,0,0,1,6.71,9.46c3,9.69,6,20.16,2.77,29.77l-.47,6.27c-.47,2.46,1.09,4.79,2.21,7,1.9,3.83,2.61,8.13,3.3,12.35a10,10,0,0,1,0,4.65c-.76,2.34-3.23,4.08-3.23,6.54l.11,8c1.6,7.14,9.4,11,16.6,12.3s14.85,1,21.39,4.25a21.66,21.66,0,0,1,9.74,9.83c1.3,2.68,2.06,5.65,3.79,8.08A12.09,12.09,0,0,0,893.29,2537.64ZM1184.78,650a15.94,15.94,0,0,1,.62,4.92l.41,20.8,3.22,23.72q2.6,20.35,5.18,40.71a228.8,228.8,0,0,0,4,24.17c1.43,6,3.34,11.91,5.28,17.79q7,21.23,14.4,42.33l1.92,3.52,5.85-1.42a351.92,351.92,0,0,0,18-46,46.24,46.24,0,0,0,1.92-7.84,48.65,48.65,0,0,0,.28-5.66l.18-15.59-6.81-5.78c-13.27-25.69-23.11-53.53-25.28-82.36-.79-10.49-.56-21-.42-31.53q.46-33.09-.11-66.18c-.25-13.72-.63-27.51-3.14-41-.71-3.8-1.79-7.91-4.92-10.18s-8.77-1-9.14,2.85l-4.78,4.25a327.69,327.69,0,0,1-5.63,48.3c-1.6,7.94-3.58,15.87-3.85,24-.18,5.27.37,10.57-.43,15.78-.61,3.9-2,7.63-3,11.43l3.1,25.45A5.43,5.43,0,0,1,1184.78,650Zm48.68,456.69-5,2.36q-3.06,7.4-6.13,14.79c-4.15,10-8.32,20.07-10.53,30.67l-5.35,13.41a247.42,247.42,0,0,0,7.28,36l7.17-1.34a33.89,33.89,0,0,0,10.12-18.84l3.48-18.74,3.64-10.88q.21-14.77-.53-29.56a50.14,50.14,0,0,0-1.06-9.07A66.67,66.67,0,0,0,1233.46,1106.73Zm300.33-894.14,1.54,6.15,13,7.28a44.86,44.86,0,0,1,4.5,2.77l8.2.87-.42-4.47c6.67-10,9.6-22.2,10.09-34.24s-1.3-24-3.43-35.9c-1.07-5.92-2.25-11.91-5-17.26s-7.31-10-13.12-11.58c-3.33-.89-6.84-.7-10.27-.51a4.88,4.88,0,0,0-2.75.71,4.49,4.49,0,0,0-1.38,3.1c-1.41,10.56,4,20.69,6.18,31.12,3.18,15.28-.69,31.05-4.53,46.18Zm124.1,109.08a13.92,13.92,0,0,0,4,.68l.52-5c4.89-18.93,9.79-37.93,12.19-57.33,1.2-9.68,1.73-19.82-1.88-28.89-1.92-4.84-6-9.73-11.17-9.32-5.77.46-8.84,6.91-10.59,12.43a317.67,317.67,0,0,0-11.61,51.15l-1.8,7.69-.11,4.73a105.56,105.56,0,0,1,16.82,22.38Zm21.55,364.21c-3.17-4.9-3.78-11-4.31-16.78q-1.26-13.76-2.51-27.5l-.46-9.1c-2.91-25.56-.74-52.4-11-76-2.59-5.94-5.94-11.58-7.74-17.8-2.58-8.9-1.83-18.42-3.47-27.54-1.67-9.3-5.82-18.21-5.9-27.67l.28-4.21c.08-6.26-3-12.08-6.22-17.45a241.26,241.26,0,0,0-15.86-23.34c-2.14-2.8-4.41-5.6-7.38-7.48s-6.83-2.74-10.07-1.37l-1.14,6.83-5,22.74c-.71,3.23-2.08,7.11-5.35,7.62a9.74,9.74,0,0,1-4.29-.77c-15.13-4.73-31.48,4-42.15,15.71-9.4,10.3-16,22.94-20.56,36.11-5.24,15.06-8,30.87-10.68,46.59q-5.14,29.89-10.3,59.81c-13-19.59-17.85-43.25-22.5-66.26-6-30-12.11-60.72-7.23-90.9,6.72-41.58,33.62-78,39-119.83l1.79-10.37,1.11-5.32a102.61,102.61,0,0,1-13.78-24.14c-1-2.51-2-5.17-4.06-6.92-4.46-3.8-11.8-1.71-16.58-5.1l-.28,8.19c-13.92,40.74-48.44,73-57.46,115.05-2.77,12.92-3,26.23-3.18,39.44-.51,33-.95,66.47,7.75,98.28l4.19,6c4.24,21.54,8.51,43.23,16.78,63.56,13.83,34,38.12,62.6,62.77,89.83C1531.18,735.2,1550,756,1553.72,782l-.76,5.58,2.68,4.79c2,3.2,2.46,7.33,4.93,10.21a17.8,17.8,0,0,0,4.14,3.26l18.45,11.79,3.5-2.56a3.19,3.19,0,0,1,5.59.62c.6,1.5,0,3.22.33,4.8.45,2.18,2.49,3.61,4.37,4.81l13.19,8.42,3.23-1.59a6.61,6.61,0,0,1,4.53.24,15.1,15.1,0,0,1,3.91,2.47,9.26,9.26,0,0,1,2.88,3.38l1.9,2.7c0,1.79-.07,3.58-.1,5.38a6.81,6.81,0,0,0,.43,3.11,6.88,6.88,0,0,0,2.62,2.48q11.68,7.61,23.51,15l2.16-1.19a14.75,14.75,0,0,1,1.77-4.16,4.93,4.93,0,0,1,3.75-2.26l2.86-2.64c.18-5.16,1.65-10.17,2.93-15.17,7.45-29,9-59.28,8.44-89.26l1.74-2.57a12.65,12.65,0,0,0,4.32-2.21l3-1.85,2.76-7.13.33-28c.08-6.42,0-13.25-3.35-18.69C1682.48,689.69,1680.76,687.92,1679.44,685.88Zm-271.27,431.84c2.83-3.5,4.8-7.6,6.75-11.67,4.11-8.59,8.27-17.33,9.71-26.74a97.72,97.72,0,0,0,.67-16c-.1-7.63-.21-15.34-2-22.78a20.59,20.59,0,0,0-3.15-7.66,8.52,8.52,0,0,0-14.43-.17,19.45,19.45,0,0,0-3.29,8c-2.73,13.15.5,27.81-6.12,39.5-2.85,5-7.38,9.14-9.08,14.65a31.45,31.45,0,0,0-1,9.39q0,12,0,24l5.89,1.79C1398,1126.53,1403.92,1123,1408.17,1117.72Zm443.37-774.88c-.9-3.17-2.58-6.42-5.59-7.74a11,11,0,0,0-5.65-.57c-15.39,1.71-25.84,16.08-33.6,29.48a491.43,491.43,0,0,0-34.89,73.88c-4.34,11.57-8.27,23.35-10.67,35.48-7.17,36.28-.45,74.22-7.66,110.49l-4.72,6-.21,31.2-1.89,7.23a294.52,294.52,0,0,1,.78,53.61l4.79,10.36,5.31-1.88c26.88-24.63,39.67-61.38,44.17-97.56s1.76-72.82,2.87-109.26c.71-23.39,4.44-49.49,22.88-63.89,3-2.37,6.42-4.38,8.83-7.37,2.67-3.32,3.88-7.55,5-11.65q3.66-13.05,7.33-26.1C1851.56,364.2,1854.48,353.19,1851.54,342.84ZM1595.79,1108.9l-.46,4.85a134.74,134.74,0,0,1,30.65,76.06c.37,5.2.44,10.43.45,15.65a700.29,700.29,0,0,1-4,76.07l-1.49,6.26a469.32,469.32,0,0,1-19,112.06c-9.05,30.41-21.34,60.75-20.58,92.47l.33,4.37c14.61,9.11,29.76,18.77,38.6,33.54,7.23,12.1,9.52,26.5,15.42,39.31,5.08,11,12.86,20.92,15.54,32.74,1.78,7.91,1.15,16.13.51,24.2-.45,5.58-.94,11.31-3.48,16.29-2.24,4.4-6,8-7.63,12.66-1.81,5.17-.77,10.83-.69,16.3a46.69,46.69,0,0,1-19.87,38.49l-1.92,4.07c-13.42,23.1-30.26,44-47,64.79l-13.1,16.26c-9.82,12.18-19.93,24.61-33.36,32.63-3.67,2.19-7.63,4.09-10.51,7.25-3.51,3.87-5,9.13-6.8,14a75.4,75.4,0,0,1-11.21,19.9l-3.82,3.28a78.12,78.12,0,0,1-16.15,18.62c-2.92,2.45-6.07,4.74-8.28,7.85-3.9,5.48-4.29,12.62-6.18,19.08-2.88,9.87-9.31,18.26-15.6,26.4-10.62,13.71-22,28-38,34.65-3.56,1.48-7.37,2.6-10.34,5-2.76,2.27-4.54,5.47-6.4,8.52a115.06,115.06,0,0,1-17.52,22l-8.88,2.08a116.49,116.49,0,0,0-12.56,12.67l-37.06,41.45-4,14a104.23,104.23,0,0,1-11.44,42.5l-2.74,5.42c-1.09-1.42-3.39-.31-4.54,1.07a29.18,29.18,0,0,0-4.19,7.8l-6.48,15.75c-3.83,9.3-8,19.08-16.11,25l-3.34,15.46a42.57,42.57,0,0,1-5.87,12.68l-5.6,4.39a17.9,17.9,0,0,1-13.46,5.82c-3-.07-6.07-.91-9.07-.43a20.94,20.94,0,0,0-7.12,3.08l-4.25,2.05c-.65-1.9-1.72-3.52-3.58-4.12s-3.92.12-5.76.86c-33,13.23-63.81,31.07-95.86,46.33-29.36,14-59.71,25.79-89.17,39.55-7.11,3.32-14.28,6.82-20,12.14l-1.25.93v.11c-.38-8.86-1.41-18.2,3.89-25.06,58-22.7,113.56-50.93,169.57-78.17l26.47-12.86c-3.52-1.09-2.67-7,.67-8.52s7.24-.17,10.61,1.29a20.17,20.17,0,0,1,7.82-15l4.79-2.83,9.38-6.11a16.3,16.3,0,0,0,4.12-3.39c2.32-3,2.26-7.09,2.61-10.86a42,42,0,0,1,2.14-9.89c2.9-8.38,8.37-15.63,12-23.74l4.68-6.36,3.28-.62q14.35-31.74,26.21-64.55l.64-4.55q1.23-9.37,2-18.8l10.5-12.15c2.4-5.54,6.74-10,11.17-14.11l4.14.14c9.06-14.69,18.13-29.39,28.33-43.31,5-6.9,10.43-13.69,13.89-21.51,2.57-5.79,4-12,6.38-17.89,3-7.55,7.49-14.42,12-21.2,8-12.07,16.34-24.16,27.26-33.68l8.56-6q13.76-12.84,27.52-25.67a39,39,0,0,0,6.25-6.84c3.42-5.21,4.14-11.67,5.24-17.81,2-11.37,5.68-22.41,8-33.73s3.35-23.23.14-34.33c-1.8-6.22-4.85-12-7.89-17.69l-15.9-29.92c-7.64-14.36-15.33-28.82-25.51-41.52l-2.7-6.55a381.11,381.11,0,0,1-1.22-41.52c.16-6.18.5-12.5,2.94-18.17.83-1.91,2.77-4,4.61-3l4.34,3.38c8.69,9.24,13.12,21.56,18.73,32.93,7.37,14.93,17,28.62,24.43,43.54,5.34,10.82,9.44,22.2,13.52,33.56,5.29-24.12,19-46.23,20.93-70.84l1.26-5.21q7.88-19.56,15.73-39.13a117.63,117.63,0,0,0,5.44-15.6c2.86-11.61,2.13-23.76,1.38-35.69-12.14.74-23.34-6.44-32.33-14.63s-16.94-17.79-27.5-23.81-23.42-8.38-31.52-17.34l-3.77-3.94c-7.23-4.75-16.18-6-24.07-9.52a49.83,49.83,0,0,0-7.36-3.09c-3.77-1-8.14-.74-11.09-3.3l-3-2.22c-5.85-3-11.72-6-18-8a117.71,117.71,0,0,0-18.81-3.74l-2.88-1.33a156,156,0,0,1-38.11-39c-8,19.24-5.43,42.19,5.5,59.92,2.26,3.68,4.86,7.14,7.45,10.59l40.55,54.09-1,4.55c4.83,5,5.13,12.77,5.14,19.76q0,19.8.07,39.6l-4.52-1.07-8.65.17a6.89,6.89,0,0,1,1.79-1.78l-5.16-1.21c-13.85-11.32-28-23-37.2-38.28-2.34-3.9-4.34-8-6.33-12.08q-8.13-16.71-16.28-33.42l-4.18-6.61c-5.75-28-6.73-56.65-7.5-85.18q-2.1-77.58-2.27-155.18l3.64-10c3.24-19.13,10.82-37.3,20-54.4,5.26-9.81,11.08-19.38,18.33-27.82,5.41-6.32,11.58-11.94,17.24-18,4.34-4.66,8.37-9.59,12.4-14.51l13.74-16.77,5-3.53a11.21,11.21,0,0,1,4.4-2.4,2.28,2.28,0,0,1,2,.12,2.44,2.44,0,0,1,.72,1.82,69.06,69.06,0,0,1,.15,7.48l-.39,26.87-6.35,16.73A415.31,415.31,0,0,0,1303.66,1358c-.17,4.81-.21,9.82,1.86,14.16,2.23,4.65,6.58,7.87,10.76,10.89l31.89,23.05,3.92,6.59a22.77,22.77,0,0,1,5,7.36,40.75,40.75,0,0,0,1.9,4.45,17.45,17.45,0,0,0,2.91,3.62c4.53,4.54,10.44,8.17,16.86,8.23l2.85-1.88a8.17,8.17,0,0,1,4-.33l2.79,2.31c1.86,2.75,5.44,3.7,8.73,4.09s6.78.45,9.65,2.13a27.44,27.44,0,0,1,3.71,3c7.37,6.26,17.14,8.76,26.53,11.08l13.47-1.5c8.71,1.76,17.7,1.24,26.59,1.56s18.09,1.58,25.56,6.41c8,5.17,14.06,14.35,23.51,15.43a369.2,369.2,0,0,1,8.5-55.31l-.24-4.58a91,91,0,0,1,8.23-25.68c2-4.15,4.43-8.16,6-12.51,3.31-8.9,3.23-18.71,2.09-28.13s-3.31-18.73-4-28.2c-.61-8-.18-16.07.25-24.1l1.83-34.23,1-6.36q1.13-32.46,2.27-64.94c.3-8.58.6-17.16.31-25.74a54.46,54.46,0,0,0-1.57-12.55c-1.31-4.76-3.7-9.14-6.16-13.42q-6.53-11.39-13.82-22.3l-2.8-4.86c-6-9.25-13.62-17.37-21.43-25.18a564.22,564.22,0,0,0-110.1-85.32l-3.08-5.06a81.87,81.87,0,0,0-12-5.6l-1.22-.2c-2.36,3.47-7,4.45-10.41,6.82a14.62,14.62,0,0,0-5.41,7L1352,1027.75a68.73,68.73,0,0,1-41.79,29.57c-4,.93-8.28,1.58-11.55,4.09-2.79,2.15-4.47,5.38-6.13,8.49a291,291,0,0,1-30.13,45.51l-4.33,2.79-4.11-6.18a315.72,315.72,0,0,1-2.71-42.13l1.18-8.65,5.56-5.28c12.36-18.17,31.24-30.75,46.17-46.88,10-10.78,18.3-23.25,29.89-32.26l-3.74-6.37c-16.27-15.07-33.65-28.94-49.09-44.85s-29.06-34.2-35.94-55.28l-4.42-6.79.62-14.42c.75-18.06,10.11-34.73,12.32-52.67a21.4,21.4,0,0,1,1.08-5.39,5.93,5.93,0,0,1,3.8-3.7l6.55,3a151.84,151.84,0,0,1,41.23,42.09c2.74,4.19,5.27,8.52,8.06,12.68,13.58,20.28,32.86,36.12,47.31,55.79l2.52,4.88a31.15,31.15,0,0,1,5.27,12.37,30,30,0,0,0,1.41,6.2c1.73,4.09,5.9,6.54,9.87,8.53a159.26,159.26,0,0,0,26.63,10.44l7.11-1.11c10.23,1.75,19.47,7,28.47,12.18l36.59,21a116,116,0,0,1,13,8.23,104.13,104.13,0,0,1,8.91,7.9,554.73,554.73,0,0,1,54.16,60.28l2-7.85c2-19.27,4-38.59,3.71-58-.32-21.6-3.48-43-6.86-64.39-3.65-23.07-7.7-46.54-18.55-67.22-5.41-10.31-12.75-20-22.92-25.7s-23.55-6.56-33.16,0c-4,2.7-7,6.46-10,10.24a247.88,247.88,0,0,0-30.33,50.63c-6.84,15.32-13.36,32.74-28.35,40.28l-3.53-3.79a216.11,216.11,0,0,0,10.06-56.43c.27-6.41.27-12.86,1.35-19.18s3.33-12.62,7.58-17.43l2.25-9.27c5.77-6.09,7.25-15.13,12.27-21.86,4.39-5.89,11.22-9.58,18.31-11.52s14.5-2.29,21.84-2.63l16.23,4.14c19.78,10.15,37.9,23.2,55.94,36.19l2.43,1.32c3.59-.73,7.12,1.27,10.23,3.21q19.07,11.94,37.17,25.29l.44,5.49-1.06,8.07c-.09,6.17-2.9,11.92-4.53,17.87-2.76,10.1-2.12,20.81-.8,31.2a156.05,156.05,0,0,1,18.17-44.62l4.41-5.82,2.18-3.29a232.83,232.83,0,0,0,28,15.85l-.27,3.22c1,1,2.07,2.06,3.18,3l-1.26,5.18c-1.33,12.46-7.28,23.9-13.11,35l-8.13,15.45-2.17,5c0,15.31-8.41,29.23-12.21,44.06-3.36,13.14-3.09,26.88-4.2,40.39s-3.91,27.5-12.3,38.15a17.12,17.12,0,0,0-2.81,4.23,14.24,14.24,0,0,0-.67,5Zm-229.44,866.71c0-.66-.29-1.5-.95-1.53a1.39,1.39,0,0,0-1,.51c-12.31,11.86-18,28.89-28,42.75-2.49,3.46-5.37,7-5.72,11.26,9.27-8.87,17.54-18.71,25.8-28.53,3.08-3.67,6.21-7.4,8.16-11.77l1.53-4.8A44.24,44.24,0,0,0,1366.35,1975.61Zm-393.7,337.61-7.56,2.35a249.83,249.83,0,0,0-24.15,13.6l-5,2.62c-1.14,7.61-8.27,12.89-11,20.08a30.55,30.55,0,0,0-1.55,10.55c0,5.37.39,10.82,2.27,15.85a61,61,0,0,0,4.07,8.22l4.3-1.65,17-10.9,5-1.69a171.15,171.15,0,0,0,17.34-49.32,16.79,16.79,0,0,0,.41-4.84A43.6,43.6,0,0,0,972.65,2313.22Z"></path>
    <path data-name="6" data-official="Phalaris canariensis" data-plain="" data-loc="" d="M494.33,703.52l-4.38,2-42.07-5.66-.33-3.42c-2.12-1.71-5.18-1.32-7.86-.84l-2.23,2.49-10.86-.89-3.5-4.37-1.45-17.42,3.84-2.73,10.64,1.24,1.49,2.68c5.39,3,11.9,2.89,18.07,2.69l3.84-2.1,38.08,6.15,4.8,3.69ZM391.07,473.17,384,467.48a24.45,24.45,0,0,0-5.19-3.46c-.67-.3-1.6-.47-2,.13a1.67,1.67,0,0,0-.24.82,17.78,17.78,0,0,0,0,5.87,8.72,8.72,0,0,0,12.38,5.78Zm43.73,1.25-81.58-45.8,3.33,7.67,76.92,59Zm106,103.1a8,8,0,0,0-.43-1.42l-1.54-2.68-13.63-8.65-3.16,2.11a6.87,6.87,0,0,0-1.34,5l1.65,2.66,14.3,5.66,2.27-.51c.74-.13,1.61-.36,1.87-1.06A1.89,1.89,0,0,0,540.82,577.52Zm11.86-31-2.21-5.26L538,533.89l-6.12,3.5c-3.7,4-3.68,10.07-3.43,15.51l.75,4,13.64,8.65,3.75-1a14.41,14.41,0,0,0,5.26-8.18A36.19,36.19,0,0,0,552.68,546.47ZM418.5,755.29l1.24,2.63a10.64,10.64,0,0,0,6.42.4c2.14-.42,4.2-1.17,6.35-1.58,4.07-.76,8.26-.25,12.37.26a15.46,15.46,0,0,0-.09-4.8,1.35,1.35,0,0,0-.21-.62,1.56,1.56,0,0,0-1.27-.45,73,73,0,0,1-16.54-2.72,8.39,8.39,0,0,0-3-.49,5.23,5.23,0,0,0-3.87,2.7A12.36,12.36,0,0,0,418.5,755.29Zm-9.41,31.27H462.8l.22-3.1L411.29,781ZM463,796.48a3.68,3.68,0,0,0-1.5-2.16l-2-.66H409.09l-1.92.51a3.73,3.73,0,0,0-.37,4.49l1,.76h51.77l2.13-1A1.64,1.64,0,0,0,463,796.48Zm6.23-18-4.59-4a2.84,2.84,0,0,0-.84-.57,3.1,3.1,0,0,0-1.68,0,32.18,32.18,0,0,1-22-3.48,10.12,10.12,0,0,0-2.78-1.27,9.11,9.11,0,0,0-2-.12q-12,.25-24.09.84v2.41l.54,3.39a1.14,1.14,0,0,0,.33.78,1.18,1.18,0,0,0,.72.21Q441,778.81,469.25,778.53Zm3.25-35.89a181.92,181.92,0,0,0-48.69-12.7c-1-.12-2.37,0-2.62,1a1.92,1.92,0,0,0,.21,1.21,8.2,8.2,0,0,0,2.08,2.8l1.35,1.54C440.6,739.4,456.46,742.33,472.5,742.64Zm17.17-27.9L487,712.19l-42.07-5.65-7.46-1-12-1.89-2,2.65a14.49,14.49,0,0,0,1.07,8.92l2.07,2,57,6.9,2.84-1.84a4.71,4.71,0,0,0,3.18-3A7.51,7.51,0,0,0,489.67,714.74ZM402.09,825.26l1,2.32,51.44-1.11.67-1.88a16.39,16.39,0,0,1,3.66-1.74l1.37-3.7a69.43,69.43,0,0,0,.53-7.76l-1.43-3.67-.81-2.09h-52.1l-1.76,2.43ZM661.36,2535.74c-2.72-8.71-2-18.23.75-26.95,1.87-6,4.64-11.8,5.71-18s.1-13.27-4.51-17.59c-2.49-2.33-5.92-3.76-7.67-6.7-2.18-3.64-1-8.43,1.27-12l3.47-13c6-11.65,6.46-25.28,6.73-38.39q1.8-89.43,1-178.87l1.17-8.76c-7.69-18.56-4.27-39.88-9.32-59.32-2-7.68-5.28-15-8.55-22.19a93.94,93.94,0,0,0-7.55-14.4c-4.4-6.44-10.43-11.82-15.16-18L627.13,2112,611.3,2250.59c-16.68-33.25-33.38-66.56-46.74-101.27-5.52-14.37-10.46-29-15.28-43.57Q527.4,2039.32,509,1971.82l-.16-7.89c-16.89-34.88-25.09-73.31-30.56-111.68s-8.36-77.1-15.33-115.22l1.3-4.2c3-14.66,5.94-30.06,1.55-44.36-5.13-16.69-19.42-29.06-26.18-45.16-6.23-14.81-5.59-31.44-5.66-47.5q-.09-22.33-2.24-44.6l-.37-7.34q-3.14-58.47-2.84-117.06l3.19-22-4.47-9.54c-.8-22,.21-44,1.21-66,2.2-48,4.39-96.06,9.93-143.8l-.9-6.44q3.84-77.52,7.67-155c.24-4.9.51-9.91,2.34-14.46,1.3-3.21,3.36-6.82,1.71-9.86l-2.59-5.09q.43-5.65.86-11.31l3.84-2.57.16-3.63q.18-5.88-.13-11.75l-2.06-4.49-3.57-1.28a131.41,131.41,0,0,1,.85-18l1.39-5.08c1.77-2.86.76-6.55,1.17-9.89a13.16,13.16,0,0,1,7.2-9.76l-.51-4.75.25-26.38-3.7-6.12-2.86-1.86-50.77,4.43-1.49,3.53-3.4,5.78a67.32,67.32,0,0,0-1.2,19.57c.34,3.89,1.16,8,4,10.72,1.48,1.4,3.4,2.26,4.91,3.64s2.57,3.62,1.65,5.44l.3,4.51a44.72,44.72,0,0,0-1.4,12.88l-2,6.88a41.22,41.22,0,0,0-.88,12.18l1.9,5.32c.38,5.09,3.82,9.37,5.57,14.16s1.78,10.13,1.78,15.29c0,16.57,0,33.16-1.07,49.71l-7.67,8.54c3.37.13,6.83,1.42,8.89,4.09,2.18,2.85,2.43,6.68,2.57,10.27a791.56,791.56,0,0,1-1.19,84.51l.8,18.51c2.56,3.67,2.67,8.45,2.66,12.93q-.06,72.32-7,144.42l-4.11-3-2.6,6.14c-2.55,12.5-7.11,24.72-7.33,37.47l-2.44,3.74q-1.81,44.93-2,89.9c-.07,19.31.09,38.72,3.19,57.79a489.09,489.09,0,0,1-30-78.66c-2.17-7.63-4.16-15.31-6.52-22.87-4.54-14.54-10.43-28.62-16.31-42.67l-6.85-4.49-13.5-18c-2-2.62-4-5.31-6.9-6.86s-6.84-1.59-9.08.78l-2.72,1.1-10.69-11.74a22.14,22.14,0,0,1-3.61-4.76c-1.68-3.33-1.58-7.22-1.78-10.94a61.24,61.24,0,0,0-3.39-17l-.92-6.4c-8.17-15.85-13.39-33-19.48-49.76A502,502,0,0,0,226.1,1182c-2.55-4.58-6-9.67-11.2-10.08-5.54-.45-10.11,5-10.73,10.58s1.58,10.92,3.75,16l6,14.15c4.89,11.57,9.85,23.38,11,35.9l2,5.74,14.9,40c9.89,26.55,19.86,53.27,34.3,77.66l4.24,6.48a47.46,47.46,0,0,0,6.67,8.71,48.61,48.61,0,0,1,4,4.34,27.1,27.1,0,0,1,2.52,4.21,96.66,96.66,0,0,1,9.94,33.12c1.1,9.88.71,20.11,4.16,29.43l9.74,47.4q18.25,73.29,42.41,144.94l4.56,12.45,38.61,75.5a177.6,177.6,0,0,1,8.92,19.32c4,11,5.83,22.68,7.39,34.29,4.83,35.89,7.61,72.09,14.61,107.62l1.89,8.59C456.1,2029.82,503,2145,549.49,2259c5.77,14.15,11.57,28.34,19,41.7,7.11,12.77,15.68,24.67,24.22,36.53l.56,11.65c-1,33.13-1.86,67,7.91,98.66,2.68,8.68,6.16,17.2,7.46,26.2,1,7.14.67,14.41,1,21.62a107.69,107.69,0,0,0,3.63,22.9c1.68,6.18,3.92,12.27,4.48,18.64,1,10.91-3,21.6-4.06,32.5-.42,4.34-.34,8.86,1.31,12.9,3.29,8,12.65,12.63,21.28,11.65s16.23-6.76,20.83-14.13,6.48-16.13,7-24.8ZM455.5,834.73l-2.07-1.83s-50.77,2-51.44,2.22l-.41,3-3.19,4.3q-1.29,13.71-2.14,27.46l-.91,3.73,4.22.94,49.88-5.77,3.13-2.07,1.3-4.8q.94-10.19,1.69-20.38Zm59.61-185.22-1.87-4.2-29.64-7-5.25.11L476,641.79l-3.78,7.71c-.72,1.45-1.43,2.9-2.28,4.27a50.59,50.59,0,0,1-3,4.12l-4.73,6,.59,1.76.22,4,38.07,6.16,2.92-3.44,2.36-2.77c2.72-1.24,4.42-4,5.49-6.78s1.65-5.76,3-8.43Zm20.12-57.43-2.2-4.46-16.1-6.36-3.41,1.5-3.2,4.26a201.34,201.34,0,0,0-15.67,22.75c-2.82,4.76-5.48,9.69-9.21,13.77l-1.89,2.64,3.91,3.54,27.27,6.48,5-1.5,1.9-4.37a198.84,198.84,0,0,0,12.51-32.89Zm-115,13.65,2.11,5.25,12.41,3.55,3.29-2,.2-4.13a412.06,412.06,0,0,0-.07-48.57l-.91-3.08-4.06-4.33-10.86-4.22-3.76,1.82-.48,4,.09,22.08c0,8.48.07,17,1.81,25.33Zm-.74,19.16,1.86,30.77.46,4,1.86,4.35,11.08,1.33,3.58-2.34.76-3.48a183,183,0,0,0-1.08-30.78l-2.4-2.44-2.41-3.08-10.86-3.11Zm-.78-121.21a236.33,236.33,0,0,0,.56,27.27l.58,4,2.49,4.4,10.86,3.54,4.29-3.61c1.91-8.93,3-18.5-.29-27l-4-5.74-10.86-8ZM539.5,518.15l1.83,6,12.47,7.32,7.48.46-.45-4.56a129,129,0,0,0,4.5-35.23c0-2.22-.2-4.66-1.73-6.27-2.06-2.14-5.78-1.76-8.15,0s-3.72,4.59-5,7.29L541.19,513ZM352.57,417.4l.65,4.48,109.52,59.19,2,.22c2.13,1.27,4.84.69,7.31,1,3.15.41,5.95,2.31,9.09,2.8l2.21-5.64,1.54-12.8a3.76,3.76,0,0,1,.48-1.68,4,4,0,0,1,1.77-1.23c11.38-5.26,19.42-16.11,23.82-27.84s5.58-24.39,6.4-36.9c.91-14.05,1.42-28.2-.11-42.2s-5.16-27.92-12.09-40.18l-2.93-8.11c-1.89-10-7.59-19-14.19-26.79S473.82,267,467.17,259.26c-7.79-9.09-14.7-19.68-25.48-24.88-8.08-3.89-17.56-4.22-26.29-2.16a52.11,52.11,0,0,0-33.75,26.22c-2.14,4.11-3.73,8.5-5.95,12.58-4.29,7.89-10.78,14.3-16.7,21.05-8.51,9.71-16.19,20.84-18.17,33.59-1.34,8.57,0,17.32-.2,26-.22,9.66-2.33,19.22-2.33,28.89s2.53,20,9.81,26.35Z"></path>
    <path data-name="6a" data-official="" data-plain="Seed with Glumes" data-loc="" d="M961.6,2703.35c3.18-5.32,6.41-10.77,7.68-16.84s.25-13-4.15-17.34c-2.81-2.78-6.68-4.28-9.5-7.06-4.5-4.41-5.53-11.17-6.27-17.43-1.18-9.95-2.18-20.27.88-29.81,2.15-6.71,6.88-13.17,13.72-14.84,10.09-2.47,21,6.08,30.61,2.18,1.86-.75,3.55-1.95,5.5-2.44,4-1,8.12,1.17,11.29,3.81a38.86,38.86,0,0,1,13.55,26.83,43.82,43.82,0,0,1-8.64,29c-1.55,2.1-3.31,4.11-4.3,6.53-2.23,5.41-.19,11.65,2.79,16.69s6.91,9.59,8.87,15.1a23.56,23.56,0,0,1,.71,13.38,12.26,12.26,0,0,1-3.27,6.23c-2.27,2.09-5.49,2.72-8.54,3.2a226,226,0,0,1-31.07,2.76c-3.94.08-8,0-11.64-1.54s-6.69-5-6.61-9Z"></path>
    <path data-name="6b" data-official="" data-plain="Seed with Scales" data-loc="" d="M1050.92,2697.33c5.26-6.67,9.25-15.55,6.32-23.52-1.77-4.82-5.81-8.49-7.92-13.18a24.42,24.42,0,0,1-1.83-11.13c.49-11,6.8-22.16,17.06-26.16s23.84,1.33,26.77,11.94-4.47,23.06,1.23,32.48c2.32,3.82,6.34,6.2,9.58,9.28a28.84,28.84,0,0,1,8.15,26.52c-1.29,5.93-4.71,11.57-10,14.62-4.34,2.52-9.5,3.11-14.48,3.64l-13,1.39c-6.45.7-15.92,2-20.41-2.66-3.48-3.65-7.93-8.17-8-13.22Z"></path>
    <path data-name="7" data-official="Phleum pratense" data-plain="Cat’s-tail Grass" data-loc="England" d="M1366.35,1975.61c0-.66-.29-1.5-.95-1.53a1.39,1.39,0,0,0-1,.51c-12.31,11.86-18,28.89-28,42.75-2.49,3.46-5.37,7-5.72,11.26,9.27-8.87,17.54-18.71,25.8-28.53,3.08-3.67,6.21-7.4,8.16-11.77l1.53-4.8A44.24,44.24,0,0,0,1366.35,1975.61ZM1357,2269.49c-.65,63.53,1.48,127.06,3.62,190.56a58.59,58.59,0,0,0,1.23,12c.91,3.72,2.55,7.28,3.07,11.08,1.31,9.62-4.94,19-13,24.38a24,24,0,0,1-11.76,4.45c-4.24.24-8.73-1.34-11.27-4.73-3.49-4.65-2.59-11.09-2.51-16.91s-1.85-12.87-7.49-14.29l-6.8-.2c3-4.13,3-9.6,2.93-14.69-.84-53.77-2.37-107.56-6.93-161.15l0-9.7q-5.49-76.17-7.26-152.56l-3.65-5.06,2.74-5.42a104.23,104.23,0,0,0,11.44-42.5l4-14,37.06-41.45a116.49,116.49,0,0,1,12.56-12.67l8.88-2.08-2,8.3q-1.31,100.38-7.09,200.63c-.72,12.61-1.52,25.31-4.89,37.48Zm64.89-1786.62c.05,16.57.68,33.13,3,49.41l-5,5q-2.9,19.24-6.17,38.43c-1.28,7.47-2.61,15-5.47,22a53.67,53.67,0,0,1-16,21.49c-3,2.45-6.48,4.69-8.31,8.15-1.7,3.21-1.76,7-1.79,10.64l-.23,39.91-1.07,4.35a6.64,6.64,0,0,0-3.7-.33c-2.61.79-3.19,4.17-3.29,6.89l-.64,17,.08.07c5.26,4.67,8.72,11,12.07,17.16l4.44,5.46,10.74,5.61,4.37,7.37c14.79,25.93,18.9,56.55,19.9,86.39l1.91,5.08c-4.25,4.81-6.51,11.1-7.58,17.43s-1.08,12.77-1.35,19.18a216.11,216.11,0,0,1-10.06,56.43l3.53,3.79,2,4.13v5.32l1.34,2.89-7.11,1.11a159.26,159.26,0,0,1-26.63-10.44c-4-2-8.14-4.44-9.87-8.53a30,30,0,0,1-1.41-6.2,31.15,31.15,0,0,0-5.27-12.37l.3-6.66c-3.56-36.55-4.49-73.31-4.57-110,0-21.81.14-44.09-6.8-64.77l3.33-6.95a4.18,4.18,0,0,0,1.73-1.15c1.21-1.56.09-3.78-1-5.45-2.81-4.55-5-9.46-7.67-14.08s-6-9.06-10.41-12l-6.6-3.23-3.67-5.68q-35.12-39.06-67.34-80.6A192.73,192.73,0,0,1,1250.07,579c-2.87-4.63-5.46-10.13-3.91-15.36,1.77-6,8.64-9.3,14.86-8.84s11.81,3.86,16.78,7.61c11.28,8.49,20.68,19.17,30,29.77-10.78-34.3-11.28-70.85-11.7-106.8l-2.66-4c2.3-87.56-.86-176.26,19.12-261.54l-2-6.95a173.44,173.44,0,0,1,17.1-22c2.91-3.18,6-6.31,10-8.07,8.29-3.69,17.87-.44,26.34,2.82,4.19,1.61,8.4,3.24,12.52,5l3.42,7.44a468.53,468.53,0,0,1,25.76,114.69l.4,4.4c-1.2,18.3,9.45,36.32,6,54.33-1.19,6.27-4,12.1-5.51,18.31-2.68,11.31-.68,23.14,1.33,34.59l8.83,50.34Zm-57.48,525.26a14.62,14.62,0,0,1,5.41-7c3.46-2.37,8-3.35,10.41-6.82l1.22.2a81.87,81.87,0,0,1,12,5.6l3.08,5.06,1.84,6.85a26.81,26.81,0,0,1,1.14,13.58c-.88,4.94-3.12,9.52-4.55,14.32-3.54,11.86-2,24.57-.52,36.85l1.9,3.37c-2.85,5-7.38,9.14-9.08,14.65a31.45,31.45,0,0,0-1,9.39q0,12,0,24l5.89,1.79,3,6.65a1164.2,1164.2,0,0,1-3.62,159.34c-1.75,19-4,38.11-3,57.2l27.75-76.27c3.38-9.28,6.76-18.58,9.51-28.06,1.94-6.67,3.56-13.44,5.69-20,6-18.63,16.24-36,30.4-49.58,4.34-4.14,9-7.91,13.25-12.16a80.94,80.94,0,0,0,15.75-22.44c3.52-7.44,6.44-16,13.65-20,2.68-1.47,6.18-2.08,8.69-.33,2.07,1.45,2.9,4.07,3.46,6.53,5.45,24.08-3.28,49.1-14.52,71.09s-25.26,42.94-31.56,66.82l-5.14,6.27c-11.14,19-22.18,38.48-27,60a199.63,199.63,0,0,0-3.54,25.21q-3,32.25-3.92,64.64c14-16,28.09-32,42.85-47.29,7.9-8.18,16.19-16.31,26.4-21.32,3-1.47,6.72-2.61,9.52-.8,2.21,1.42,3.09,4.32,2.82,6.93a21.58,21.58,0,0,1-2.67,7.37l-19,37.52c-2.51,5-5,9.93-8,14.63a88.12,88.12,0,0,1-29.1,28.35l-3.32,5-13.47,1.5c-9.39-2.32-19.16-4.82-26.53-11.08a27.44,27.44,0,0,0-3.71-3c-2.87-1.68-6.35-1.74-9.65-2.13s-6.87-1.34-8.73-4.09l-2.79-2.31a8.17,8.17,0,0,0-4,.33l-2.85,1.88c-6.42-.06-12.33-3.69-16.86-8.23a17.45,17.45,0,0,1-2.91-3.62,40.75,40.75,0,0,1-1.9-4.45,22.77,22.77,0,0,0-5-7.36l-3.92-6.59,3.41-8.26q-1.63-23.28-1.73-46.63c-.27-61.26,7.39-122.27,10.08-183.47l1.62-6.66,6.35-16.73.39-26.87a69.06,69.06,0,0,0-.15-7.48,2.44,2.44,0,0,0-.72-1.82,2.28,2.28,0,0,0-2-.12,11.21,11.21,0,0,0-4.4,2.4l-.94-3.9q-1.49-42,.14-84.13Zm2.38,914.22c-2.35,5.88-3.81,12.1-6.38,17.89-3.46,7.82-8.84,14.61-13.89,21.51-10.2,13.92-19.27,28.62-28.33,43.31l-4.14-.14-1.68-4.8a279.14,279.14,0,0,0-4.33-61.83c-1.38-7.52-3.07-15-4.2-22.54-1-6.88-1.59-13.82-2-20.76a443.36,443.36,0,0,1,1.27-67.49l0-6c.1-21.84,3.53-43.51,7-65.08l5.2-32.71c1.74-11,3.49-22,6.1-32.76,2.39-9.9,5.49-19.61,8-29.47,5.83-22.59,8.81-46.21,18.95-67.23l-.43-5,8.65-.17,4.52,1.07q0-19.8-.07-39.6c0-7-.31-14.72-5.14-19.76l1-4.55-4.78-12.63c-.33-20.78-.66-41.57-1.92-62.32l-.34-8.49a91.74,91.74,0,0,1,13.34,2.94c6.26,2,12.13,5,18,8l3,2.22c3,2.56,7.32,2.29,11.09,3.3a49.83,49.83,0,0,1,7.36,3.09c7.89,3.53,16.84,4.77,24.07,9.52l-.82,9.25q-1.38,30-2.77,59.91c-.59,12.78-1.2,25.65-4.13,38.11l-2.92,5.51c-1.84-1-3.78,1.14-4.61,3-2.44,5.67-2.78,12-2.94,18.17a381.11,381.11,0,0,0,1.22,41.52l2.7,6.55,3.66,16.17c3.82,24.19-1.74,48.74-3.85,73.14-.68,7.89-1,15.81-2.11,23.65-2.09,14.76-7.11,29.36-16.3,41.11-2.91,3.72-6.24,7.17-8.37,11.38a44.68,44.68,0,0,0-3.48,11.42,389.18,389.18,0,0,0-7.78,72.44Z"></path>
    <path data-name="7a" data-official="" data-plain="Floret" data-loc="" d="M1143.87,2706.88a218.77,218.77,0,0,0,4.94-44.91,133.37,133.37,0,0,0-2.52-28.63c-6.43-30.19-26.81-55.36-38.45-84a25.35,25.35,0,0,1-2.33-8.9c-.16-7,5.39-13.39,12.15-15.14s14.2.74,19.31,5.5c3.47,3.24,6,7.42,9.53,10.57s8.84,5.17,13,3c4.68-2.44,5.69-8.5,7.06-13.6a45.93,45.93,0,0,1,9.6-18c4.2-4.85,11.11-9,16.76-5.95,5,2.71,6,9.64,4.89,15.25s-3.78,11-3.66,16.74c.07,2.92,1.84,6.54,4.73,6.12a5.74,5.74,0,0,0,2.35-1.12c4.78-3.4,9.88-8.38,15.52-6.74,4,1.17,6.32,5.37,7.52,9.37,4,13.3.45,27.75-5.22,40.42s-13.47,24.34-18.62,37.23c-4.53,11.33-6.94,23.39-9.33,35.36-1.19,6-2.39,12.29-.81,18.22,1.63,6.1,6,11.08,8.55,16.85a30.62,30.62,0,0,1,1.95,18.6,10.58,10.58,0,0,1-2,4.78c-1.82,2.12-4.77,2.8-7.53,3.27a205.91,205.91,0,0,1-28.4,2.48c-4.06.12-8.33.14-11.92-1.75s-6.18-6.35-4.58-10.09Z"></path>
    <path data-name="7b" data-official="" data-plain="Inner Glume" data-loc="" d="M1218,2711.88c-5.45-15.32,2.91-32.3.52-48.38-1.33-9-6-18-3.38-26.72.91-3,2.89-5.94,5.86-7a14,14,0,0,1,5.17-.57,118.89,118.89,0,0,1,18.62,1.93,8.17,8.17,0,0,1,3.41,1.18,7.62,7.62,0,0,1,2.37,3.63c2.5,6.53,3,13.69,2.45,20.67-.4,5-1.29,10.26.64,14.9,1.4,3.38,4.13,6,6.47,8.81a33.24,33.24,0,0,1,7.69,16c.89,5.93-.45,12.32-4.31,16.91-3.4,4-8.41,6.39-13.44,8-10.15,3.24-22,3.7-30.72-2.46Z"></path>
    <path data-name="7c" data-official="" data-plain="Ovary and Pistils" data-loc="" d="M1278.69,2711.4c1.32-10,2.54-20.74-1.91-29.82-2.19-4.48-5.65-8.28-7.46-12.93-2.55-6.56-1.5-13.89-1-20.92a129.5,129.5,0,0,0-4.95-46.4c-3.9-13.13-10-25.77-11.37-39.39-.27-2.56-.32-5.33,1-7.52a11.35,11.35,0,0,1,4.38-3.7,17.36,17.36,0,0,1,7.32-2.5c6-.36,11.34,4.4,14,9.83s3.47,11.56,5.2,17.36,4.82,11.71,10.28,14.32c4.31-7.66,6.29-16.38,9.28-24.64s7.38-16.56,14.85-21.2a6.67,6.67,0,0,1,3.68-1.25c3.4.16,4.86,4.4,5,7.8.31,11.53-5,22.36-9,33.16-5.85,15.63-9.28,32-12.69,48.37-.92,4.43-1.85,9-1.43,13.46.77,8.21,6,15.64,6.08,23.89.06,3.79-1,7.69.23,11.29,1.87,5.66,8.24,8.27,12.3,12.64,6.2,6.68,6,18.26-.32,24.78-4.88,5-12.35,6.73-19.31,6.19s-13.58-3.09-20.09-5.61Z"></path>
    <path data-name="8" data-official="Briza media" data-plain="Quaking Grass" data-loc="South Europe" d="M187.43,1121.91c10.7,8.69,14.49,23.49,24.08,33.4,4.14,4.27,9.22,7.49,14.05,11,15.53,11.14,29.43,26.12,33.91,44.7l1.87,5c6,13.33,4,29,8.57,42.88.83,2.5,1.86,4.91,2.76,7.38a103.63,103.63,0,0,1,5.7,30.14l.42,8.2.92,6.4a61.24,61.24,0,0,1,3.39,17c.2,3.72.1,7.61,1.78,10.94a22.14,22.14,0,0,0,3.61,4.76l10.69,11.74,2.72-1.1c2.24-2.37,6.2-2.32,9.08-.78l-.33-6.27c15-45,13.74-93.49,12.33-140.87-.53-18.15-1.09-36.44-5.11-54.14-3.53-15.55-9.75-30.73-9.82-46.68l.58-12.14-.06-4.52a22.3,22.3,0,0,1-1.15-5.86,7.51,7.51,0,0,1,1.95-5.49,8.37,8.37,0,0,1,2.4-1.57,13.49,13.49,0,0,1,7.09-1.31l1.12-7.12c10.13-17.08,11-37.86,16.2-57a15.39,15.39,0,0,1,2.69-6.08c1.81-2.17,4.57-3.25,7.21-4.24l11-4.16c2.1-.79,4.75-1.49,6.36.08a5.94,5.94,0,0,1,1.34,3.46c1.56,10.06,2.58,20.25,5.42,30s7.72,19.28,15.64,25.67l13.81,5,7.67-8.54c1-16.55,1.05-33.14,1.07-49.71,0-5.16,0-10.44-1.78-15.29s-5.19-9.07-5.57-14.16l-4.39,6a5.43,5.43,0,0,0-3.16,2.14,47.39,47.39,0,0,0-37.17-8.39c7.61-6.82,15.39-13.86,20-23a3.76,3.76,0,0,1,1.44-1.83,3.48,3.48,0,0,1,1.67-.25,83.94,83.94,0,0,1,17.23,2l5.37-1.08a44.72,44.72,0,0,1,1.4-12.88l-.3-4.51-3.62-.88A36.71,36.71,0,0,0,383.66,928a77.65,77.65,0,0,0-1.09-35.58L379.06,888a1.37,1.37,0,0,1-1-.23,1.42,1.42,0,0,1-.34-.78,7.05,7.05,0,0,0-2.89-4.62l2.19-6.69a1.1,1.1,0,0,1,.29-.54,1.27,1.27,0,0,1,.64-.23l3.16-4.93c.14-2.71.25-5.61-1.13-8-1.49-2.51-4.36-3.83-7.15-4.69a40.07,40.07,0,0,0-15.77-1.55,24.21,24.21,0,0,0-8.62,2.32c-4.5,2.3-7.76,6.4-10.88,10.37L333.26,874l-2.73,6.37a4,4,0,0,1,3,.56c1.45,1.25.36,3.7-1.16,4.86s-3.51,2-4.24,3.75a8.24,8.24,0,0,1-.74,1.9,3.65,3.65,0,0,1-1.78,1.09,52.25,52.25,0,0,1-20,3L300,894.07a4.38,4.38,0,0,0,3.7-3.68,9.41,9.41,0,0,0-1-5.46,1.78,1.78,0,0,1-.23-1.2c.16-.51.74-.74,1.26-.88l-.65-3.69-4.85-11.93a41.92,41.92,0,0,0-3.71-7.58,20.77,20.77,0,0,0-14.05-8.84,40.69,40.69,0,0,0-5.63-.3c-6,0-12-.08-18,0a54,54,0,0,0-9.08.77,30.13,30.13,0,0,0-23,22.14l-3,.44c-4.08-.43-8.26-.66-12.22.42s-7.68,3.67-9.21,7.48a24.71,24.71,0,0,0-1.21,6.18c-.14,1.08-.53,2.4-1.6,2.58s-1.94-1.1-2.27-2.21a40.1,40.1,0,0,1-1.14-8c-1.12-12.69-4.71-25.22-4-37.94,3.4,3.24,8.13,4.77,12.81,5.14s9.36-.32,14-1l5.85-2.66a4,4,0,0,1-.69-3.26c.69-4.87,4.92-8.64,9.56-10.28l2.26-4.46q.33-6.06.32-12.14l-.69-3.89-2.29-.28a12.7,12.7,0,0,1-4.12-6.64,6.86,6.86,0,0,0-.79-2.36c-.71-1-2.19-1.94-1.69-3.08.31-.71,1.26-.88,1.79-1.45,1.08-1.16-.17-3.15-1.69-3.56s-3.15.05-4.73-.08-3.34-1.34-3-2.89a4.28,4.28,0,0,1,1.28-1.89,5.52,5.52,0,0,0,1.68-4.41,4.86,4.86,0,0,0-3.27-3.51,13,13,0,0,0-5-.48c-13.07.53-26.31,3.69-39.06.8l-1.55-2.16a58.91,58.91,0,0,1-1.43-12.62l-.47-2.22q-.69-5.49-1.36-11a2.23,2.23,0,0,1,.43-2,2.08,2.08,0,0,1,1-.39l3.74-.78,2.9-.34,6.26.2v-4.4a84.7,84.7,0,0,0,3.61-10.89l-.79-4c-.27-.14-.57-.35-.58-.66a.92.92,0,0,1,.2-.49,11.82,11.82,0,0,0,.64-11.06l10.44.4a4.82,4.82,0,0,1,2.76.66c1.45,1.06,1.3,3.19,1.59,5a8.3,8.3,0,0,0,2.64,4.81l-5.51,3,1.16,3.64a94.63,94.63,0,0,0,12.38,11.55l2.6,3.29q8.94.16,17.89.25l3.17-2.84c.93-1.56,1.87-3.11,2.8-4.66a10.43,10.43,0,0,0,1.81-4.44l-1-2.68-1.57-1.36q-.76-7-1.51-14a14.31,14.31,0,0,0-.73-3.67c-.32-.84-.81-1.61-1.06-2.48a9.75,9.75,0,0,1-.25-2.7v-5.2a1.35,1.35,0,0,1,.22-.91l.53-3.92a15.59,15.59,0,0,0-2.33-4.84l-2.89-4L217,688.25a113.73,113.73,0,0,0-16.46-4.55,114,114,0,0,0-11.95-1.16l-30.23-1.84-2.68-1.44c.42-3.34-.87-6.63-1.27-10a3.52,3.52,0,0,1,.26-2.25,2.66,2.66,0,0,1,2.2-1.16,7.85,7.85,0,0,1,2.53.46l4.49.46a30.78,30.78,0,0,1,10.89,2.32c2.62,1.08,5.09,2.53,7.82,3.28s5.87.71,8.12-1c1.22,2.36,4.09,3.36,6.74,3.51s5.32-.32,7.95,0c2.39.34,4.71,1.37,7.12,1.18,1.5-.11,3.17-1,3.35-2.47.12-1-.42-1.87-.5-2.84s.81-2.14,1.66-1.69l7.85-3.31-.46-14.56-3.54-2.37-2.34-12.61a2.72,2.72,0,0,1,.39-2.56,2.53,2.53,0,0,1,1.13-.51,21.73,21.73,0,0,1,4.38-.63l-2.4-3.83c-3.63-7.37-7.57-14.92-14-20s-16-7.16-22.91-2.63c-1.22.8-2.53,1.85-4,1.59a5,5,0,0,1-1.71-.76,28.19,28.19,0,0,0-31.37,2.74c-2.41-10.73-5.62-22-13.73-29.42a31.54,31.54,0,0,0-21.58-8A36.81,36.81,0,0,0,90.93,580l-4.87,1.22c-3.54-1.4-7.63.14-10.62,2.5s-5.29,5.49-8.19,8c-5,4.26-11.57,6.44-16.19,11.09-5.59,5.6-7.48,14.14-6.51,22,.51,4.13,1.84,8.32,4.74,11.3a18,18,0,0,0,8.18,4.48,28.4,28.4,0,0,0,17.64-.89c1.2-.46,2.59-1,3.72-.39,1.31.72,1.46,2.5,1.38,4-.52,9.83-3.94,19.51-3,29.32l1.11,5.18a29.62,29.62,0,0,0,4.38,20.38c4,5.89,10.68,10,17.78,10.28a30.6,30.6,0,0,0,10.61-1.86c2.21-.74,4.56-1.62,6.81-1a9,9,0,0,1,4.59,3.67c2.91,4,4.53,8.81,5.79,13.6a1,1,0,0,1-1,1.43c-6.89,1-13.88.23-20.84.16s-14.18.65-20.16,4.18c-7.84,4.63-12.36,13.53-13.87,22.5l-.5,4.47c-.28,6.79-.53,13.74,1.61,20.19A28.56,28.56,0,0,0,85.58,791c1,.62,2.18,1.33,2.35,2.5a3.8,3.8,0,0,1-.28,1.72q-2.66,8-5.3,16a2.41,2.41,0,0,1-.49,1,2.66,2.66,0,0,1-2.12.48A24.54,24.54,0,0,0,63.42,818a16,16,0,0,0-4.14,4.71c-2.36,4.31-1.85,9.54-1.63,14.45.45,10.26-.74,20.79-5.14,30.06l-1.37,3.7c-4.31,16.2-5,33.13-4.84,49.9,0,3.89.16,7.94,1.91,11.42,3.17,6.34,10.58,9,17.06,11.9,1.61.72,3.31,1.58,4.12,3.15-5.71,2.78-10.57,7-14.94,11.65-7,7.41-13.18,16.91-12.09,27l-2.69,2.24c-8.33.24-15.35,7-18.54,14.67s-3.3,16.27-3.38,24.61q-.06,7.14-.13,14.3c-.05,5.4,0,11.1,2.75,15.74,2.14,3.6,5.71,6.13,9.42,8.09a50.87,50.87,0,0,0,13.55,4.84,30.62,30.62,0,0,1,7.16,1.9c2.23,1.08,4.2,3.1,4.41,5.57a7.55,7.55,0,0,1-2.54,5.77,60.79,60.79,0,0,1-5.12,4c-5.43,4.36-8.74,11-9.74,18A43,43,0,0,0,40,1126.25l2,3.73c2.79,7.62,5.69,15.42,11,21.55S66.6,1161.86,74.5,1160c-2.73,8.17-2,17.2.63,25.38S82.38,1201,87.39,1208c4.23,5.91,8.88,11.65,14.83,15.82s13.37,6.66,20.53,5.44c8.3-1.41,15-7.4,21.13-13.13a22.31,22.31,0,0,0,37.6,6.16c7.16-8.34,7.22-20.52,6.11-31.45-.77-7.59-2-15.4-6.18-21.79s-11.14-11-14.34-18C177.8,1145.41,183,1133.2,187.43,1121.91ZM122.21,635.68a10.24,10.24,0,0,1-6.39-3.1c-1.56-1.85-1.92-4.86-.28-6.64,1.19-1.3,3.08-1.68,4.83-1.85a37.23,37.23,0,0,1,16.11,2l1.92,3.12q8.06.91,16.18,1.1l3.33-.94,4.4.31c.45,0,1,.2,1,.65a.91.91,0,0,1-.33.62,16.47,16.47,0,0,0-3.87,7.74l-3.32,1.11a40.61,40.61,0,0,0-18.94-4.39C132,635.48,127.05,636.45,122.21,635.68Zm16,40.82a7.24,7.24,0,0,1-4.72-2.89,3.27,3.27,0,0,1-.53-2.77c.58-1.68,2.73-2.09,4.51-2.18a8.65,8.65,0,0,1,2.49.13,6.22,6.22,0,0,1,3.62,2.83,18.51,18.51,0,0,1,1.8,4.33l-1.5.66A21.51,21.51,0,0,1,138.25,676.5ZM159,763.77l-5.78-.12c-3.24-.07-6.76-.23-9.26-2.29a7.49,7.49,0,0,1-2.24-8.08,4.55,4.55,0,0,1,1.72-2.36,6.54,6.54,0,0,1,3.43-.73c4-.13,8.18-.23,11.89,1.32a1.65,1.65,0,0,1,1.18,1.83c.22,3.32.45,6.64.67,9.95ZM583.73,2516.33c-4.05,2.58-9.25,2-14.06,2s-10.4,1.16-12.48,5.49c-2.77,5.75,2.62,12.6,1,18.78-1.55,5.95-8.5,8.32-14.28,10.41a84.83,84.83,0,0,0-23.86,13.33c-6.38,5.08-13.35,11.51-21.4,10.16-6.06-1-11.63-6.45-17.48-4.57s-7.1,9.21-10.25,14.39a20.63,20.63,0,0,1-17.15,9.5,24.73,24.73,0,0,1-18.15-8.08c-2.47-2.67-4.51-5.91-7.71-7.65-7.2-3.91-15.78,1.54-24,2-11.84.65-22.54-11.71-20.18-23.34l-6.11-.59c-6.82-2.37-9.68-10.52-10.09-17.72-1-17.7,7.21-35,6-52.68-.22-3.12-1.66-7.05-4.78-6.94a5.87,5.87,0,0,0-3.73,2.15c-6,6.37-8.17,15.49-13.24,22.65-4.93,7-12.46,11.74-20.44,14.76s-16.45,4.42-24.87,5.77q-43.92,7-88,12.84c-4.4.58-10,.56-11.94-3.43-1.68-3.43.72-7.56,3.8-9.83s6.85-3.53,9.67-6.11l6.75-1.84A279.16,279.16,0,0,0,311,2460.06c12-12,23.47-26.25,25.51-43.16,1.18-9.8-.92-19.74-.12-29.57s5.75-20.55,15.24-23.25a727.6,727.6,0,0,0-45.53-81.28c3.41,26.34,5.24,53.14,1.27,79.4s-14.1,52.12-32.16,71.59a16.23,16.23,0,0,1-4.7,3.85c-5.76,2.73-12.84-1.86-15.14-7.81s-1.2-12.6-.13-18.88c7.31-42.63,12.5-86.58,3.61-128.91-2.86-13.6-7.17-26.95-8.54-40.79a97.81,97.81,0,0,1,3-35.47c2.71-9.85,7.12-19.47,14.36-26.67s17.63-11.69,27.73-10.18c9.36,1.41,17.42,7.72,23,15.36s9.05,16.6,12.45,25.43q-1.56-50.59-3.13-101.2l-3.76-9.17q-18.87-203.35-33.11-407.1l1.47-7.09q-14.22-60.29-33.41-119.25c-3.79-11.63-7.77-23.65-6.59-35.82.23-2.46.74-5,2.33-6.9,2.76-3.24,8-3.31,11.72-1.2s6.18,5.82,8.3,9.51a114.79,114.79,0,0,1,12.44,32.23q-2.07-86.09-4.12-172.15l4-4.43a48.61,48.61,0,0,1,4,4.34,27.1,27.1,0,0,1,2.52,4.21,96.66,96.66,0,0,1,9.94,33.12c1.1,9.88.71,20.11,4.16,29.43l9.74,47.4,7.13,42.51q9.06,57.94,12.84,116.54l.31,9.71Q345.56,1809,359,1943.26c.79,7.88,1.65,16,5.32,23,2.12,4.07,5.11,7.63,7.3,11.66,4.82,8.92,5.36,19.46,5.72,29.6q1.58,45.83.84,91.7l.4,9.45,2.94,107.15c.2,7,.4,14.12,2.05,21,1.75,7.25,5.09,14.05,6.91,21.28,4.21,16.74.07,34.81,4.77,51.41,3.12,11,9.92,20.62,16.65,29.91,7.17-6.31,16.6-9.54,26-11.13,16.48-2.79,34-.82,48.71,7.08,12.89,6.91,23,17.89,32.93,28.67,2.36,2.57,4.81,5.29,5.7,8.68s-.34,7.6-3.6,8.89l-1.7,3.78c27.91,30,46.48,67.29,64.4,104.14,2.15,4.43,4.33,9,4.76,13.89S587.88,2513.68,583.73,2516.33Z"></path>
    <path data-name="9a" data-official="" data-plain="Seed of Rice" data-loc="" d="M1343.3,2714.49a20,20,0,0,1-13.7-18.73c.05-6.25,3.07-12,4.91-18,6.26-20.31-1.09-42.57,3.13-63.4.85-4.2,2.26-8.46,5.24-11.55,3.37-3.5,8.32-5,13.13-5.65a18.89,18.89,0,0,1,9.51.67c4.23,1.69,7.15,5.75,8.57,10.08s1.56,9,1.67,13.5q.46,17.45.91,34.9c.17,6.38.58,13.4,5,18,1.82,1.91,4.19,3.23,6.09,5.06,4.24,4.06,5.77,10.13,6.89,15.9.78,4,1.41,8.4-.42,12.07-2.11,4.23-6.84,6.34-11.23,8.09-9.12,3.62-19.57,7-28.4,2.77Z"></path>
    <path data-name="9b" data-official="" data-plain="Inner Side" data-loc="" d="M1413.56,2710.92c-3.3,2.61-8.55,1.36-11.27-1.85s-3.34-7.75-2.9-11.94c.49-4.53,2.06-8.93,2.19-13.49.18-6.66-2.72-12.95-4.61-19.34-3.77-12.72-3.56-26.28-2.13-39.47.93-8.56,2.58-17.57,8.27-24s16.67-9,22.93-3.06c4.86,4.59,5.18,12.08,5.17,18.76l0,29.87c0,6.53.58,14.22,6.11,17.7,2.23,1.4,4.91,1.83,7.36,2.79,7.1,2.79,11.81,10,13.07,17.53s-.5,15.26-3.35,22.33a11.68,11.68,0,0,1-3.35,5.17,11.8,11.8,0,0,1-6,1.83,75.93,75.93,0,0,1-21.23-.74Z"></path>
    <path data-name="9c" data-official="" data-plain="Section magnified" data-loc="" d="M1482.77,2705.54c5.24-10.73,10.48-23.56,4.83-34.08-4.68-8.71-15.2-12.41-21.91-19.68-7.56-8.18-9.52-19.93-11-31q-4.56-33.57-7.54-67.32c-.76-8.62-1.44-17.33-.22-25.9,2.38-16.68,11.72-31.46,21.26-45.35,2.57-3.74,5.32-7.59,9.31-9.74,3.78-2,8.23-2.28,12.52-2.34a261.82,261.82,0,0,1,26.56,1.17c15.84,1.39,33,4.27,43.73,16a19.92,19.92,0,0,1,4.36,6.89c1.45,4.27.76,8.94.07,13.41q-10.77,69.49-15.51,139.76a137.33,137.33,0,0,0-.33,20.28c.73,9.16,3.22,18.21,2.72,27.38-.26,4.77-1.39,9.64-4.26,13.46-5.58,7.45-15.91,9.06-25.17,10.09l-18.52,2c-7.93.88-17.6,1-21.93-5.72Z"></path>
    <path data-name="10a" data-official="" data-plain="Flower of Agrostis alba" data-loc="" d="M1587.32,2708.23l12.22-34.62c2.06-5.85,4.16-11.87,4-18.08-.41-14.9-13.25-26.11-19.61-39.6-3.32-7-6.15-16-13.75-17.67-2.58-.56-5.62-.22-7.48-2.09-1.34-1.35-1.58-3.4-1.7-5.29-.58-9.6.31-19.23,1.2-28.81.51-5.56,1-11.23,3.27-16.35s6.45-9.71,11.91-10.87c4.39-.94,9.73.11,12.76-3.2,3.86-4.23.19-10.76-.6-16.43-1.21-8.78,5.31-16.85,12.63-21.84,8.1-5.52,19-8.74,27.63-4,3.36,1.85,6,4.75,9.38,6.65s7.91,2.58,10.75,0c1-.88,1.63-2,2.55-3,4.06-4,11.06-2,15.71,1.4,3.14,2.26,7.08,5.12,10.45,3.21,1.6-.92,2.49-2.71,3.88-3.92,3.48-3,9.3-1.53,12.26,2s3.73,8.39,4.06,13c1.64,23-4.88,45.69-11.34,67.81-3.7,12.72-7.42,25.46-12.32,37.76-3.63,9.11-7.94,18-14,25.77-2.7,3.45-5.76,6.68-7.78,10.57a23.93,23.93,0,0,0,4.9,27.79c5,4.57,11.87,6.92,16.11,12.18,5.33,6.6,4.67,17.37-1.68,23-4.58,4-11,5.16-17.07,5.9a280.45,280.45,0,0,1-57.35,1c-4.71-.4-10.69-2.14-11-6.87Z"></path>
    <path data-name="10b" data-official="" data-plain="Flower without Glumes" data-loc="" d="M1719.43,2709.23c8.6-9.77,9.92-24.15,7.5-36.94-1.35-7.15-4.13-14.63-10.21-18.63-4.65-3-10.49-3.57-16-3.61s-11.25.28-16.56-1.38-10.27-5.91-10.82-11.45c-.54-5.39,3-10.19,5.6-15,6.11-11.45,6.81-25.28,13.47-36.42,2.6-4.36,6.06-8.2,8.28-12.76,3.9-8,4.17-18.47,11.34-23.79,7.49-5.56,18-2.25,27.28-2.35,2.28,0,4.72-.34,6.42-1.84,1.86-1.64,2.4-4.25,3.21-6.58,4.22-12.17,19.29-19.29,31.37-14.81a7.42,7.42,0,0,1,3.4,2.16c1.64,2.07,1.11,5,1,7.66s1,5.93,3.62,6.19c1.59.16,3-.91,4.33-1.77,6.45-4.2,14.74-4.7,22.25-3.07s14.44,5.22,21.26,8.75a24,24,0,0,1,6.81,4.6c3.48,3.76,4.19,9.39,3.31,14.43s-3.11,9.72-4.9,14.52c-4.6,12.35-6.25,25.6-7,38.76-.49,9-.7,18.42-5.35,26.1s-15.58,12.39-22.87,7.15c-1.71-1.23-3.37-3-5.46-2.83a6.09,6.09,0,0,0-3.21,1.62,38,38,0,0,0-8.52,9.92,6.2,6.2,0,0,0-1.15,3.45,6.3,6.3,0,0,0,1.88,3.58c5.19,5.87,12.09,10.25,16.3,16.86,7.23,11.36,3.73,28.21-7.42,35.76-7.12,4.82-16.09,5.84-24.68,6.18-12.87.51-25.75-.21-38.61-.93-5.62-.32-11.67-.8-16-4.42Z"></path>
    <path data-name="11a" data-official="" data-plain="Seed of Coix lacryma" data-loc="" d="M669.26,2726.6c.18-9,5.64-17.54,4.37-26.44-.71-5-3.47-9.43-5.75-13.94a79.72,79.72,0,0,1-8.54-35c-.07-6.69.77-13.6,4.07-19.43,5.51-9.72,17-15.1,21.83-25.2,2.14-4.51,3-10,6.81-13.17,3.58-3,8.66-3,13.3-2.91s10.54.78,12.58,5.11c1.53,3.22.21,7.06.82,10.57.74,4.2,4.17,7.44,7.86,9.58s7.81,3.49,11.4,5.79c9.81,6.28,14.19,18.77,13.79,30.41s-4.79,22.73-9.21,33.51a12.47,12.47,0,0,0-1.35,5.7,12.06,12.06,0,0,0,1.71,4.61c2.75,5.08,5.78,10.15,7,15.81s.18,12.18-4.13,16a22.49,22.49,0,0,1-7.64,4,146.09,146.09,0,0,1-64.44,7.54c-3.24-.35-7-1.18-8.35-4.13Z"></path>
</svg>
