
<svg xmlns="http://www.w3.org/2000/svg" viewBox="0 0 1978 2751" id="illustration" preserveAspectRatio="xMidYMid meet">
    <title>Naiadaceæ</title>
    <path data-name="1" data-official="Naias marina" data-plain="Water-weed" data-loc="South Europe" d="M656.71,1441a58.41,58.41,0,0,1-12.53-1.24c-7.58-1.89-14.09-6.73-21.45-9.39-9.37-3.38-20-3.19-28.67-8.13a7.47,7.47,0,0,1-3.42-3.29,5.65,5.65,0,0,1,.74-5.14,13.5,13.5,0,0,1,4-3.6,48.84,48.84,0,0,1,31.87-7.31,57.11,57.11,0,0,1,30.11,13.21l1.79,2.78c0,7.33.35,14.66,1,21.95Zm97-83.19c1.74-.24,3-1.78,3.8-3.35a24.52,24.52,0,0,1,2.38-4.68c1.26-1.55,3.26-2.59,3.9-4.49a9,9,0,0,1,.67-2.13,4,4,0,0,1,1.44-1.18l2.59-1.52a4,4,0,0,0,2-2c.26-.82,0-1.75.3-2.54a6.34,6.34,0,0,1,1.34-1.55c1.46-1.68,1.07-4.2,1-6.42a19.29,19.29,0,0,1,.73-6.18,18.77,18.77,0,0,0,1.1-4.64c0-1.59-.75-3.35-2.27-3.84a36.65,36.65,0,0,1-2,5.28,3.78,3.78,0,0,1-.87,1.28,1.35,1.35,0,0,1-1.44.26c-.95-.49-.56-1.89-.59-3a3.12,3.12,0,0,0-2.75-2.91c-1-.09-2.28.28-2.94-.52l-1.51-1.94a124.54,124.54,0,0,0,2.34-26.77c0-2.61-.17-5.32-1.39-7.63s-3.87-4.06-6.4-3.43c-4.25,1-5,7.35-9,9.15-2.79,1.25-6.15-.17-9.07.72a10.1,10.1,0,0,1-2.12.63c-1.72.16-3.14-1.21-4.43-2.34a15.56,15.56,0,0,0-8.55-4.06,9.25,9.25,0,0,0-8.46,3.55c-1.95,2.82-2.18,7.14-5.3,8.56-2,.89-4.25.19-6.17-.75s-3.83-2.15-6-2.27c-3-.18-5.79,1.92-7.26,4.54s-1.89,5.7-2.14,8.7c-1.63,18.89,1.76,38.33,10.64,55.09l1.28,3a26.82,26.82,0,0,1,6,13,50.1,50.1,0,0,1,.26,14.47,43.14,43.14,0,0,1-1.43,7.73,56.55,56.55,0,0,1-3.89,9l-7.9,15.7a19.44,19.44,0,0,1-3.61,5.52,6.62,6.62,0,0,1-6,2l-4.75.49a20.89,20.89,0,0,0-1.11,7.6,223.22,223.22,0,0,0,1.75,31.33l3.65.82c4.31-1.37,5.11-7.64,9.16-9.64a8.12,8.12,0,0,1,6.29,0,57.44,57.44,0,0,1,5.79,2.84,27.74,27.74,0,0,0,12.4,2.82l11-3.31a8.82,8.82,0,0,1,10.35,3.63c1.46,2.47,1.69,5.65,3.7,7.69a14,14,0,0,0,3.18,2.13,32.07,32.07,0,0,1,5.56,4.06,46,46,0,0,0,4.73,4.22,13.41,13.41,0,0,0,10.63,1.92,3.34,3.34,0,0,0,1.43-.65,3.1,3.1,0,0,0,.8-1.41c1.18-3.77-.51-7.79-2.16-11.38l-4.83-10.51c-1-2.08-2-4.26-3.85-5.6l-6.94-.22a60.75,60.75,0,0,1-8.85-2.44,9.71,9.71,0,0,1-4-2.08,3.3,3.3,0,0,1-.58-4.14,15.75,15.75,0,0,1-5.63-7.37l-2.53-3.67c-2.59-1-5.55-2.55-5.95-5.31a6.63,6.63,0,0,1,.9-3.86c3.36-6.64,10.53-10.81,13.61-17.58,1.59-3.5,1.95-7.41,2.14-11.25q.27-5.37.14-10.74c-.07-2.92-.19-6,1.32-8.52,1.74-2.9,5.34-4.42,6.69-7.51Zm-85.52,133.73-1.57-8.53a52.56,52.56,0,0,1-1.23-11.23l-2.6-2.24c-.76-.34-1.54.43-2,1.12-6.5,9.74-8.31,21.82-13.07,32.52-2.22-1.93-3.08-4.93-4-7.7a61,61,0,0,0-9.16-17.09l-3.84-6c-5.22-8-16.06-10.26-22.48-17.29-2.86-3.13-4.7-7.06-7.38-10.34s-6.7-6-10.88-5.35a3.59,3.59,0,0,0-2.23,1.07,4.65,4.65,0,0,0-.78,2.67c-1.46,17.84-2.81,36.45,3.94,53,.47,1.16,1,2.44.59,3.62-.55,1.64-2.52,2.26-4.23,2.52-4.75.74-9.6.57-14.39,1a60.29,60.29,0,0,0-28.33,10c5.23-10.74,6.23-23,6.2-35s-1-24,.65-35.78c2.76-19.88,12.66-37.93,20-56.61,1.55-3.94,3-8.06,2.84-12.3-.12-2.85-1.35-6-4.06-6.93-2.88-.94-5.8,1.12-8.13,3l-4.66,3.15a3.34,3.34,0,0,1-3.51-2,7,7,0,0,1-.22-4.31c1.49-7.24,7.77-12.62,14.47-15.72s14.08-4.51,21-7.22a58.82,58.82,0,0,0,20.89-14.08l6.06-9.38a5.8,5.8,0,0,1,3.79-.79,8.32,8.32,0,0,0-3.1-4.61,12.62,12.62,0,0,0-5.15-2.26l-5.16-1.79A234.48,234.48,0,0,0,518,1329.16c3.07-9.34,8.43-17.76,12.06-26.9,2.61-6.6,4.31-13.52,6.76-20.18,3.14-8.56,7.52-16.61,10.88-25.09a113.9,113.9,0,0,0,6.95-26.61,2.17,2.17,0,0,0-.21-1.63,2.08,2.08,0,0,0-1.4-.63c-11.44-1.89-22.78,4-31.7,11.41-13.23,11-23.24,25.49-30.14,41.22l-1.05-5c-4-10.52-3.11-22.37.21-33.11s9-20.59,14.55-30.34l18.65-32.52c3.36-5.87,6.75-11.79,8.79-18.24a43.74,43.74,0,0,0,2-15.86c-.35-5.46-2.76-11.79-8.12-12.92-4.25-.89-8.3,2-11.72,4.62l-29.15,22.77a57.16,57.16,0,0,0-14.29-39.85A32.78,32.78,0,0,0,443,1108.12c-10.9.28-22.74,4.63-27.55,14.41-2,4-2.55,8.43-3,12.81a183,183,0,0,0,1.28,45.16c-14.42-11.47-35.85-13.22-51.94-4.24-.62.34-1.31.8-1.41,1.51a2.3,2.3,0,0,0,.63,1.63c2.61,3.34,6.53,5.34,10.08,7.66,13.67,8.89,22.71,23.12,33.09,35.69,18.28,22.12,41.85,40.26,55.48,65.51l1.75,3.8a109.86,109.86,0,0,1,13.34,46.88,121.26,121.26,0,0,0-64-4.64,140.51,140.51,0,0,0-58.49,26.75c-3.68,2.83-7.39,6.06-8.81,10.47a3.18,3.18,0,0,0-.12,2.06c.51,1.37,2.32,1.6,3.78,1.6q24.18,0,48.31-2c7.87-.65,16.11-1.4,23.37,1.69,11.24,4.77,16.88,17.12,21.52,28.41l1.47,5.25c4.94,19.38,17.18,36.1,23.94,54.93l-12-1.24a70.53,70.53,0,0,0-10.67-.56,58.21,58.21,0,0,0-12,2.16,62.92,62.92,0,0,0-16,6.23c-11.83,7-19,19.72-24.71,32.27l-4,4a32,32,0,0,1-14.36,8.32,8.35,8.35,0,0,1-4.64.21c-4.46-1.43-4.33-7.67-3.66-12.31a89.14,89.14,0,0,0-1.12-31.74,8.19,8.19,0,0,0-1.82-4.16c-1.35-1.34-3.42-1.63-5.32-1.55-12.9.5-21.54,13.05-27.85,24.32q-26.41,47.17-48.92,96.4c-2,4.29-4,8.76-7.78,11.62A405.89,405.89,0,0,0,243,1524.33c-2.51-5-5.18-10.24-5.49-15.87-.59-10.62,7.14-19.65,14.12-27.69A444.64,444.64,0,0,0,298,1416.63c11.43-19.21,21.72-41,18.2-63.09-.86-5.37-3.39-11.46-8.71-12.6-3.33-.73-6.72.79-9.7,2.45-12,6.67-22.11,16.19-31.61,26.06a423.09,423.09,0,0,0-55.28,71.35l-.67-3.21a479.52,479.52,0,0,0-27.11-51c-2.43-4-5-8.24-4.8-12.89a22.79,22.79,0,0,1,2-7.32c2.27-5.68,4.64-11.4,8.31-16.29,3.26-4.32,7.44-7.85,11.32-11.63,13.29-12.92,23.26-28.86,31.84-45.3,4.38-8.39,9.05-17.57,17.63-21.57l5.34-4.08a10.78,10.78,0,0,0,7.68-19.84c-3.36-2-7.48-2-11.37-1.89-20.18.42-41.72,2.19-57.66,14.57-11.23,8.72-18.24,21.65-24.93,34.19l-17.07,32c-7.43-11.64-4.38-26.77-1.62-40.3a505.94,505.94,0,0,0,10.2-98.64c0-3.51-.84-8.06-4.31-8.59-1.6-.24-3.14.56-4.71.9-7.92,1.69-13.43-7.88-14.6-15.9s-1.62-17.61-8.56-21.77c-4.43-2.65-10-2-15.13-1.24-8.84,1.31-17.85,2.66-25.86,6.63s-15,11-16.53,19.85c-1,5.7-.8,13.37-6.34,15-2.56.77-5.39-.31-8,.36-4.85,1.27-6.12,7.49-6.13,12.5a108.06,108.06,0,0,0,6.36,36.48c2.91,8.08,6.8,15.87,8.63,24.27,1.66,7.66,1.54,15.6,2.77,23.35,1.47,9.23,4.82,18,8.15,26.78A161.23,161.23,0,0,0,35.2,1281.8c-2.63-1.09-5.65-2.12-8.24-1-4.61,2.08-4.07,8.74-2.58,13.57a182.16,182.16,0,0,0,54.17,83.11,45.86,45.86,0,0,1,6.63,6.51,40.1,40.1,0,0,1,4.43,8.24l22.58,51.12,3.1,5.31c-11.05-3-23.16,1-31.93,8.37s-14.59,17.64-18.82,28.26c-2.79,7-5,14.55-3.82,22s6.54,14.66,14,15.84c6.43,1,12.73-2.54,17.61-6.85s9-9.52,14.55-13c11.81-7.43,27-5.36,40.76-3,7.43,1.26,14.94,2.56,21.85,5.58,11.56,5.07,20.49,14.55,29.06,23.81,9.35,10.1,18.95,20.71,22.88,33.89-12.4-6.07-24.89-12.19-38.19-15.89s-27.62-4.89-40.89-1a14.29,14.29,0,0,0-5.77,2.82c-5,4.59-2.36,13.16,2.18,18.22,4.36,4.86,10,8.37,15.31,12.16a154.37,154.37,0,0,1,35.55,35.32c-16.74-1-33.83.75-49.45,6.84s-29.73,16.8-38.22,31.26c-1.07,1.81-2.05,4-1.1,5.92.75,1.47,2.44,2.16,4,2.58a26.23,26.23,0,0,0,13.79-.13l5-1a111.9,111.9,0,0,1,73.94,10.39c6.87,3.61,13.4,8,20.68,10.64,10.35,3.83,21.7,4.13,32.16,7.62,3.71,1.24,7.39,3,10,5.86s3.82,6.56,5.06,10.16A945.88,945.88,0,0,0,311.06,1815a282.18,282.18,0,0,1-49.71-35.53c-6.12-5.46-12-11.21-18.5-16.22-26.54-20.48-61.45-27.31-95-26.72-8.46.15-17.38.89-24.36,5.67-3,2-5.67,5.65-4.32,9,.81,2,2.82,3.19,4.77,4.1,6.17,2.87,12.93,4.18,19.42,6.24,19.07,6.06,35.47,18.48,50.14,32.08S221.58,1822.21,237,1835l6.91,4.63a524.19,524.19,0,0,0,59.74,45.25c6.39,4.16,13.26,8.65,16,15.76,1.65,4.3,1.56,9,1.38,13.64-.7,18.22-2.45,36.45-1.61,54.66s4.43,36.69,13.64,52.42l2.71,6.71c3.39,25.33,18.56,47.93,37.56,65s41.73,29.41,64.34,41.34c8.18,4.32,16.47,8.64,25.44,10.9,15.47,3.88,32.18,1.43,47.24,6.65,14.83,5.14,26.41,17.29,34.05,31s11.85,29,16,44.16l1.82,5a1357.1,1357.1,0,0,0,63.7,192.17l.53,6.77c5.09,5.43,10.44,11.38,11.41,18.77,1.91,14.55-13.67,26.11-14.76,40.75a21.54,21.54,0,0,0,40.91,10.9c2-4.09,2.63-8.81,5.23-12.53,9.57-13.7,35.17-3.57,45.48-16.72,5.2-6.64,3.67-16.62-1-23.66s-11.76-12-18.24-17.38c-20.83-17.37-36.08-40.66-47.33-65.34S629.41,2315,622,2288.92c-4.16-14.56-8.33-29.17-10.84-44.11-2-12.25-3-24.69-5.77-36.78-5-21.51-15.7-41.19-26.29-60.56L581,2138c8.06-7.19,11.87-18,14.23-28.51s3.63-21.44,8-31.33c8.6-19.61,27.7-32.13,41.93-48.13,10.87-12.23,19-26.63,27-40.9L693.51,1951l6.92-6.19c26.39-41,73.84-67.5,91.81-112.84,1.84-4.63,3.35-9.6,2.61-14.52s-4.33-9.72-9.26-10.38a16.77,16.77,0,0,0-6.39.74c-40.83,10.5-74.48,39.64-101.16,72.27s-47.91,69.4-74,102.47a507.31,507.31,0,0,0,5.39-146.83c-.85-7.71-1.36-16.82,4.56-21.84,2.63-2.24,6.09-3.18,9.39-4.18,48.39-14.6,88.33-54.56,102.91-103l2-7.71a156.57,156.57,0,0,0,2.13-30.27l.83-6.83c.08-1.88-1.57-3.31-2.54-4.93a10.15,10.15,0,0,1-.81-7.67,29.77,29.77,0,0,1,3.25-7.21l2.29-4.08a9.68,9.68,0,0,1,2-2.79c1.41-1.2,3.51-1.63,4.46-3.22l1.93-2.1a10.12,10.12,0,0,0,3.74-10.11c-.34-1.51-1-2.91-1.42-4.4-1.91-7.27,3.46-14.49,3.64-22,.07-2.67-.79-5.69-3.17-6.9a6.87,6.87,0,0,0-5.56.11c-5.5,2.16-9,7.87-10.08,13.67l-2.74,4.16a24.17,24.17,0,0,0-1.78,8.92c0,1.42.08,2.95-.72,4.12-1.05,1.57-3.26,1.86-5.12,1.55a21.56,21.56,0,0,1-5,14.15l-5.17.1c-5.08,1.28-8.1,6.37-10.56,11-3.31,6.22-6.61,12.45-9.49,18.88-3.57,8-6.46,16.23-10.14,24.15-4.57,9.82-10.31,19-16,28.22-4.19,6.73-8.41,13.48-13.49,19.56a104.74,104.74,0,0,1-28.32,23.17,450.37,450.37,0,0,0,29.24-131.72l1.07-4.52,0-5.27a3.9,3.9,0,0,1,.44-2.14,3.55,3.55,0,0,1,2.79-1.17c5.41-.42,10.75,1.17,16.13,2a112.58,112.58,0,0,0,18.37.74l3.52-.57c2.24-.5,4.47-1,6.71-1.55a7.14,7.14,0,0,0,3.43-1.52,5.08,5.08,0,0,0,.91-5,25.89,25.89,0,0,0-2.36-4.78,47,47,0,0,1-3.7-11.18l-.17-.39c3.49-.72,5.87-4.2,6.44-7.72s-.28-7.09-1.14-10.55a17.21,17.21,0,0,1-4.63,5.08c-2,1.23-4.66,1.57-6.51.18a8.84,8.84,0,0,1-2.42-3.68q-3.63-8.13-8-15.88c-1.75-3.07-3.73-6.22-6.84-7.9l-3.32-2-9.87-.32a1.28,1.28,0,0,1-1-.3,1.29,1.29,0,0,1-.21-.91q.3-10.42,1.25-20.83c.56-6.16,1.36-12.52,4.57-17.81Z"></path>
    <path data-name="1a" data-official="" data-plain="Ovary" data-loc="" d="M45.2,2624.93c4.62-2.75,6-9,5.15-14.29s-3.34-10.21-4.68-15.42a60.82,60.82,0,0,1-1.47-14.45c0-4.24.07-8.58,1.56-12.55,1.32-3.55,3.67-6.63,5-10.15,4.88-12.53-3.5-27.36,1.49-39.84A20.4,20.4,0,0,1,74,2506.09a20.39,20.39,0,0,1,16.42,18.66c.32,7.47-3.59,14.81-2.36,22.19.69,4.16,3,7.86,4.8,11.67a61.26,61.26,0,0,1,1.5,49.24c-1.77,4.31-4.09,8.81-3.21,13.38s4.56,7.77,7.11,11.56c5.84,8.66,4.93,21.8-3.19,28.38-4.69,3.8-10.9,5.07-16.89,5.84A144.89,144.89,0,0,1,52,2668c-4.51-.24-9.45-.9-12.45-4.26-3.18-3.56-3.08-9-1.89-13.61s3.28-9.07,3.49-13.83Z"></path>
    <path data-name="1b" data-official="" data-plain="Section" data-loc="" d="M114.93,2666.43a30.48,30.48,0,0,1,2-20.59c2.35-4.94,6-9.21,7.87-14.36,1.61-4.5,1.72-9.39,1.7-14.17q-.07-13.24-1.26-26.45c-.63-7.06-1.5-14.19-.45-21.19s4.34-14,10.31-17.84c6.4-4.09,14.59-3.82,22.14-3,8.52,1,18.23,3.41,21.92,11.15,1.74,3.65,1.77,7.85,1.6,11.89a79.22,79.22,0,0,1-2.32,17.21c-1.58,5.94-4.19,11.67-4.64,17.8-.63,8.69,3.13,17,5.27,25.46s2.17,18.61-4.25,24.51c-3.73,3.43-8.91,4.69-13.87,5.75-11.72,2.5-23.67,4.52-35.62,3.81Z"></path>
    <path data-name="2" data-official="Zannichellia palustris" data-plain="Horned Pond-weed" data-loc="Ponds, England" d="M1417.69,1455.52c-3.37-3-4.82-7.45-7-11.34-6.47-11.29-19.41-17.17-27.87-27.06A18.8,18.8,0,0,1,1379,1411a8.86,8.86,0,0,1,.46-7,10,10,0,0,1,4.86-4,12.71,12.71,0,0,1,4.49-1.1c3.84-.13,7.37,2,10.47,4.29,12.54,9.18,22.34,21.53,31.75,33.9q5.68,7.46,11.25,15c1.46,2,3,4.23,2.72,6.68a2.13,2.13,0,0,1-.6,1.41,2.69,2.69,0,0,1-1.38.53,38.36,38.36,0,0,1-20.53-2.07Zm-60.18,172.62a8.2,8.2,0,0,0-5.29.54,24.43,24.43,0,0,0-4.62,2.78c-3.35,2.38-6.84,4.91-8.62,8.61l-1,4.13c-1.32,8.82,1,17.81,4.37,26,2.52,6.13,5.74,12.11,10.53,16.69a62.06,62.06,0,0,0,5.24,4.33l5.68,4.36c3.59,2.76,7.29,5.57,11.62,6.86a36.6,36.6,0,0,0,7.87,1.18l4.8,2.43,14.6.87c3.38.2,7.07.32,9.81-1.68l4.39-2.41c20.85-20.91,31.77-49.82,51-72.19,9.38,10.06,19.62,19.43,31.21,26.85s24.59,12.86,38.23,14.68q-6.09,3.67-11.83,7.9a26.17,26.17,0,0,0-6.7,6.4c-2.74,4.19-3.05,9.49-2.9,14.5.07,2.1.27,4.36,1.63,6,2.53,3,7.26,2,11,.75l3.26,1.55c-9.58,18.68-16.9,38.41-24.79,57.86q-17.8,43.92-39.53,86.13l-2.3,4.14q-16.26,23-33.36,45.32c-.25-13.4,3.34-26.54,4.64-39.88a231.68,231.68,0,0,0,.65-24.3c-.05-6.88-.11-13.75-.5-20.62a247.72,247.72,0,0,0-9.37-53.17l3.37-1.81c1.07,1.79,3,2.84,4.89,3.8a25.35,25.35,0,0,0,7.74,3c2.75.41,5.81-.23,7.66-2.31a9,9,0,0,0,1.85-3.79,18,18,0,0,0-.87-10.66,32.19,32.19,0,0,0-5.68-9.2,27.56,27.56,0,0,0,11.92,1.27c2.34-.27,4.89-1,6.11-3a8.55,8.55,0,0,0,1-3.84c.38-4.56.23-9.56-2.62-13.15a14.52,14.52,0,0,0-4.16-3.43,32.85,32.85,0,0,0-15.45-4,97.12,97.12,0,0,0-16,1.27l-5.44,2c-8.87,5.89-13.52,16.55-15.14,27.08s-.69,21.25-.89,31.9l.63,6.65c1.88,30.24,1.29,60.57.59,90.86-.24,10.48-.51,21-2.79,31.28-2.57-6.57-3.71-13.59-5.61-20.38s-4.72-13.59-9.89-18.38l-5-1c-1.91.61-3.92,1.31-5.17,2.87a10.36,10.36,0,0,0-1.43,2.86,98.58,98.58,0,0,0-4.94,15.76l1.53,6.35c-.66,11,5.43,21,9,31.37,3.46,10,4.56,21.32.44,31.08a62.67,62.67,0,0,1-6.85,11.44c-4.94,7-9.9,14.11-15.84,20.33-7.52,7.88-16.62,14.39-22.62,23.48l-3,4.19a837.61,837.61,0,0,0-57.89,80.76l-.5-14.83a59.48,59.48,0,0,0-1.36-12.85,60.51,60.51,0,0,0-5.13-12.29c-6.4-12.6-13.43-25.9-25.68-33l-4.29-1.54a14.76,14.76,0,0,0-3.5-1.13h-2.29a57.1,57.1,0,0,0-9.85,15.34l1.65,5.35,8.64,17.68a119.27,119.27,0,0,1,5.32,12,111.48,111.48,0,0,1,3.31,11.62q2.6,10.71,4.85,21.48a28.48,28.48,0,0,0-20.61-.84c-2.77,1-5.72,2.83-6,5.75-.25,2.39,1.38,4.53,3,6.28,4.67,4.92,10.53,9.44,12,16.06-6.55-4.18-13.72-8.52-21.47-7.94l-2.73,4.19a34.47,34.47,0,0,0-4.07,15,17.67,17.67,0,0,1-.5,4.77l2.68,4.64c1.56,7.68,7.28,13.7,12.4,19.62a1.26,1.26,0,0,1,.44,1.08,1.24,1.24,0,0,1-.51.6c-3.36,2.57-6.73,5.14-10.25,7.49-4.34,2.9-9,5.58-12.14,9.76a18.88,18.88,0,0,0-3.3,7.09c-.44,1.93-.54,4.1.56,5.74a8.37,8.37,0,0,0,4.43,2.82c10.07,3.49,21.9,3.46,30.77-2.47,2.14-1.43,4.55-3.27,7-2.51a99.54,99.54,0,0,0-6.55,25.27l-.83,5.47a294.47,294.47,0,0,1-66.47,109.8c-5.18,5.39-10.66,10.71-14.1,17.35s-4.51,15.05-.68,21.48c4.1,6.87,13.35,11.27,13.35,19.26,0,3.18-1.59,6.17-1.77,9.34-.34,6.14,5,11.56,11,12.91s12.3-.57,17.71-3.51c5.25-2.85,10.1-6.81,12.9-12.1s3.27-12,.2-17.16c-1.74-2.9-4.42-5.08-6.55-7.7s-3.76-6.07-2.79-9.3c.63-2.1,2.23-3.73,3.77-5.28a186,186,0,0,0,14.11-15.47c6.57-8.29,11.93-17.47,17.27-26.61l15.57-26.66c7.94-13.6,15.92-27.29,21.55-42a127.89,127.89,0,0,0,6.49-23c2.62,5.38,6.26,11.5,12.22,12,3.82.3,7.41-2,10.08-4.71,6.68-6.87,9.24-16.92,9-26.5s-3.08-18.87-5.86-28l2.75-3.39c22.91-6.07,38.88-26,55.15-43.21a339.38,339.38,0,0,1,165.22-96l5.13-3c37.93-16.69,84.21-12.43,118.06-36.33,2.12-1.5,4.42-3.92,3.42-6.32s-4.31-2.46-6.88-2.14c-75.65,9.5-153.4,19.66-220.13,56.55-40.26,22.26-75.12,53.57-116.19,74.28a852.49,852.49,0,0,1,93.88-135.8c3-3.57,6.2-7.21,10.44-9.18,6-2.8,13.06-1.71,19.61-.58,19.2,3.31,38.65,6.56,58.08,5,35.06-2.73,67.07-20.7,95.86-40.91,14.69-10.32,29-21.42,45.47-28.66a111.89,111.89,0,0,1,89.94.38l6.71,1.42a14.94,14.94,0,0,0,14.25-11.4c1.4-6.41-1.83-13.19-6.8-17.48s-11.4-6.49-17.81-7.91c-11.38-2.54-23.12-3-34.79-3-34.37-.18-69.9,3.18-100.1,19.6-16.93,9.21-31.49,22.16-47.18,33.36s-33.35,20.93-52.58,22.19l-1.27-2.64c1.38-6.17-.3-12.72-3.34-18.27s-7.39-10.25-11.71-14.88l-2.16-5.71c11.91-11,20.78-24.9,29.09-38.84A817.11,817.11,0,0,0,1569,1702.61c3.48,5.25,3.29,12.65,7.83,17a14.16,14.16,0,0,0,8.44,3.54,21.17,21.17,0,0,0,14.92-38l.79-2.52a415.9,415.9,0,0,0,85-56.87c11.62-10,22.89-21,29.92-34.68,4.24,11.14.35,23.68,1.85,35.51a13.76,13.76,0,0,0,2.61,7.17c3.17,3.8,9.11,4,13.72,2.17,8.56-3.33,14.18-11.93,16.34-20.85s1.42-18.27.65-27.42a209.41,209.41,0,0,0,27.78.38c2.89-.15,5.86-.39,8.42-1.73,4.38-2.3,6.57-7.24,8.44-11.82,3.48-8.51,6.84-18.67,1.87-26.4-3.89-6-11.5-8.26-18.48-9.87l1.07-3.58c37.35-15.53,71.91-39,96.93-70.77,16.94-21.51,29.18-46.28,44.38-69.05,7.36-11,15.94-22,28-27.51a9.61,9.61,0,0,0,3.82-2.44c1.68-2.17.8-5.54-1.25-7.35s-4.9-2.41-7.63-2.67c-16.3-1.53-32.27,6.62-44.19,17.84s-20.61,25.37-29.8,38.92c-20.67,30.5-45.45,59.52-78.12,76.54l1.2-4.76c9.89-6.93,14.85-18.81,19.13-30.1,6.67-17.57,13-35.58,14.3-54.32l1.29-5.78a183.36,183.36,0,0,0,45.51-61.6c8.15-18,13.35-37.28,22-55.05a155.62,155.62,0,0,1,44.5-54.64c6.48-5,13.62-9.81,17.27-17.15s1.9-18.12-5.76-21c-3.84-1.46-8.16-.61-12.06.7-13.81,4.63-25.17,14.53-35.46,24.84a341.37,341.37,0,0,0-57.56,76.83l.07-40.36a13.09,13.09,0,0,1,.42-4,13.35,13.35,0,0,1,2.87-4.34c16.08-18.58,28.93-39.85,38.83-62.34,2.63-6,5.11-12.32,4.87-18.87s-3.88-13.4-10.1-15.46c-8.91-2.94-17.77,4.8-22.66,12.81s-8.74,17.55-17.08,21.83l-2.89-13.13c-1.18-5.36-2.49-11-6.2-15s-10.63-5.71-14.68-2c-2.18,2-3.22,5.22-5.84,6.61-1.62.86-3.56.84-5.4.91a43.64,43.64,0,0,0-26.16,10.12,49.88,49.88,0,0,0-7.85-31l-5.59-3.11c-6.18-.63-12,3.91-14.71,9.49s-3,12-3,18.24.21,12.56-1.69,18.48a5,5,0,0,1-1.68,2.72,5.54,5.54,0,0,1-2.45.68c-3,.33-6.16.64-8.9-.62-4.79-2.22-6.33-8.2-9.81-12.16a14.86,14.86,0,0,0-9.88-4.93c-1.44-.11-3,0-4.16-.88a6.2,6.2,0,0,1-1.56-2l-7.77-13a3.64,3.64,0,0,1-.71-1.92,3.71,3.71,0,0,1,1.76-2.56c12.22-9.66,27.17-16,37.52-27.61,7.08-7.95,11.55-17.95,14.25-28.25,1.34-5.15,2.28-10.44,4.3-15.37,2.27-5.55,5.83-10.47,9.3-15.37,1.56-2.19,3.16-4.57,3.21-7.26.06-3.07-1.92-5.77-4-8.06a64,64,0,0,0-23.41-16.52l4-4.62c2.16-4.68,4.35-9.5,4.68-14.64s-1.61-10.77-6-13.4c-3.9-2.31-9-1.85-13.07,0s-7.49,5.06-10.79,8.17l-49.38,46.48c-1.7-2.38-.71-5.66.26-8.42a147.42,147.42,0,0,0,8.25-50.21c-.08-7.06-1.14-15-6.77-19.27a13.08,13.08,0,0,0-17.39,2.13c-1.61,2-2.67,4.51-4.85,5.85-5.19,3.19-13.23-2.31-17.61,1.93a10.6,10.6,0,0,0-2.28,4.34l-23,68.34q-1.12-31.05-2.33-62.09a19.56,19.56,0,0,0-.84-5.91c-2.18-6.08-11.22-8.24-15.91-3.79-3.25,3.07-4,7.88-4.57,12.32l-6.76,53-4.34-3.19c-8.53-12.13-21.7-20.1-32-30.74-10.74-11.08-18.25-24.9-28.63-36.32-2.68-3-5.62-5.78-9.21-7.5s-8-2.2-11.55-.43a4.64,4.64,0,0,0-2,1.73,5.17,5.17,0,0,0-.47,2.58,42.85,42.85,0,0,0,2.07,11.07q3.36,11.72,7.45,23.2c4.31,12.11,9.44,24.31,18.36,33.57,11,11.4,26.58,17.2,38.35,27.76a62.57,62.57,0,0,1,19.21,57.63l-1,6.56a39,39,0,0,0,2,19.13c.94,2.52,2.14,5,2.27,7.68.15,3.16-1.23,6.17-2.33,9.14-8.09,21.65-2.63,46.19,7.27,67.07,5,10.55,11.11,20.63,14.86,31.69,8.67,25.6,3.81,53.59,5.91,80.54-15-21.46-30.28-43.19-50.34-60-36.7-30.83-86.54-42.9-122.43-74.68-10.53-9.33-19.65-20.19-30.52-29.12L1397,1175a11.06,11.06,0,0,0-10.85,5.34c-2.16,3.81-1.79,8.64-.09,12.67s4.57,7.44,7.4,10.77l31.4,37c7.55,8.91,15.18,17.89,24.42,25,27.83,21.48,67.24,24,93.78,47.09,14,12.12,23,28.79,31.71,45.07l1.82,3.91a158.19,158.19,0,0,0,15,20.94c3.33,3.94,6.9,7.78,9.31,12.36,5.43,10.29,4.27,22.69,2.58,34.2l-1.66,6c-2.55,15.16-2.09,30.63-2.75,46-.29,6.51-.82,13.19-3.64,19.06a52.32,52.32,0,0,1-4,6.59l-4.16,6.11c-1.71,2.51-3.51,5.11-6.17,6.58l-1.7.47c-5.94-13.19-15.24-24.52-24.5-35.62-2.14-2.56-4.28-5.13-6.53-7.59a234.68,234.68,0,0,0-19.33-18.24l-6.5-5.67.63-3.57a106,106,0,0,0-12.2-13.11,104.28,104.28,0,0,0-13.71-9.41q-24.42-14.91-49-29.62c-6.89-4.13-14-8.45-18.54-15.07l-1.71-4.8q-8.57-11.26-16.28-23.13c-3.28-5-6.48-10.24-8.26-16-2.82-9.1-1.91-18.87-2.42-28.39s-3-19.78-10.51-25.62a5.29,5.29,0,0,0-3.77-1.42,5.41,5.41,0,0,0-2.83,1.69,27.08,27.08,0,0,0-6.86,10.68c-1.91,5.49-2,11.44-1.75,17.26a258.67,258.67,0,0,0,3.15,28.15c1.19,7.68,2.51,15.43,5.65,22.54,4.59,10.4,12.77,18.74,21.07,26.5a425.71,425.71,0,0,0,86.75,62.67l7.16,2a13.4,13.4,0,0,1,10.43,3.67,31,31,0,0,0,2.65,2.6c1.92,1.45,4.42,1.83,6.61,2.84a24.6,24.6,0,0,1,5.74,4.11c9.12,8,18.27,15.94,26.34,24.95,2.3,2.57,4.51,5.21,6.68,7.88q8.6,10.53,16.52,21.55l-2.2,3.73c-2,2.32-6,2.19-7.67,4.78a5.77,5.77,0,0,0-.75,3c0,5,3.33,9.51,7.11,12.86,3,2.64,6.41,5,8,8.7,2.07,4.87.22,10.41-1.44,15.43-1.84,5.56-3.43,11.21-4.77,16.91a91.59,91.59,0,0,0-57.63-5.41c-9.51,2.24-18.59,6-27.9,9a9.08,9.08,0,0,1-4.32.62,6.31,6.31,0,0,1-4.28-3.64,18.42,18.42,0,0,1-1.38-5.65l-1.94-2.81c-5.84,1.68-10.61,6-14.38,10.74s-6.78,10.11-10.48,14.94l.16,3.76a18.63,18.63,0,0,1,.31,6.89,16.83,16.83,0,0,1-2.34,5.23c-4.91,8.13-11.07,15.41-16.85,23a300.36,300.36,0,0,0-23.73,36c-.83,1.48-1.77,3.07-3.34,3.7a14.7,14.7,0,0,1-.63-4.81q-.33-20.69.54-41.35l-1.67-8.86a5.51,5.51,0,0,1-3.72-2c-.49-.61-.84-1.32-1.28-2a8.94,8.94,0,0,0-8.89-3.66,3.94,3.94,0,0,0-2.29,1.16c-.52.61-.74,1.45-1.32,2l-3.9,1.58a7,7,0,0,1-2.93.61l-10.74.61ZM1193.7,1984.32c-3.31-1.89-6.93-3.84-10.71-3.39a2.07,2.07,0,0,0-1.11.37c-.65.55-.52,1.57-.33,2.4l4.38,18.93,2.63,4.08a127.94,127.94,0,0,0,12.87,11.07l4.22,2.88,7-10.92a10.42,10.42,0,0,0,1.6-3.26c.65-2.79-1-5.56-2.7-7.86a68.18,68.18,0,0,0-12.34-12.66Zm-110.31-77c2-4.28,5.4-7.68,8.76-11l-.28-2.19c-1.85-6.49-6.62-11.76-9.06-18-1-2.58-1.61-5.32-2.79-7.83s-3.06-4.88-5.7-5.74a3.63,3.63,0,0,0-3.87.69,4.45,4.45,0,0,0-.73,1.48,37.94,37.94,0,0,0-.73,21.78,75.34,75.34,0,0,0,4.17,10.94l1.78,4c1,2.35,2.33,4.94,4.77,5.72Zm199-173.24c-4.06-5.63-9.09-10.49-14.21-15.18-13-11.89-27-23-43-30.49s-34.06-11.34-51.43-8.26a3.18,3.18,0,0,0-1.59.6,2.85,2.85,0,0,0-.61,2.61,13.13,13.13,0,0,0,5.57,8.36,35.87,35.87,0,0,0,9.3,4.39c16.54,5.83,34.11,10.41,47.62,21.58,2.89,2.4,5.56,5.06,8.21,7.72l23.17,23.21,2.8.91a84.54,84.54,0,0,1,13.32-11.75Z"></path>
    <path data-name="2a" data-official="" data-plain="Flower" data-loc="" d="M274.36,2668.67a81.41,81.41,0,0,0,6.06-31.69,25.21,25.21,0,0,0-1.45-9.22c-1.67-4.07-5.08-7.2-8.8-9.55-7.18-4.51-15.6-6.5-23.61-9.28s-16.13-6.73-20.84-13.78c-3.5-5.24-5-12-9.95-15.9-3.64-2.87-9-4.08-10.84-8.35s1.17-9.16,4.93-11.88a22.36,22.36,0,0,1,22.58-1.87c4.16,2.07,9.34,5.42,12.82,2.33,2-1.76,2.09-4.84,1.46-7.41s-1.86-5-2.05-7.65c-.51-7.22,6.47-12.47,12.69-16.17,8.94-5.33,18.52-10.66,28.92-10.63,8.62,0,17.66,3.69,25.55.23,6.11-2.67,9.71-8.89,13.55-14.34s9.23-10.93,15.9-10.72c4.66.15,8.88,3.23,11.4,7.15s3.6,8.61,4.21,13.24c.66,4.94.84,10-.52,14.83-1.16,4.07-3.38,7.74-5.23,11.54a69.39,69.39,0,0,0-6.23,19.88,6.58,6.58,0,0,0,0,3.09c.87,2.63,4.47,3.21,7.11,2.36s5-2.63,7.7-3.09c5.22-.88,10.18,3.58,11.57,8.69s.05,10.54-1.71,15.52c-3.48,9.83-8.91,19.34-17.36,25.44-3.79,2.74-8.09,4.72-11.75,7.64s-6.72,7.12-6.61,11.79c.12,5.35,4.2,9.62,7.54,13.81,5.73,7.19,9.9,17.17,5.93,25.47-3.83,8-13.51,11.09-22.25,12.57a149.89,149.89,0,0,1-43.08,1c-4.15-.51-9.42-2.48-9.18-6.66Z"></path>
    <path data-name="2b" data-official="" data-plain="Ovary" data-loc="" d="M386.71,2688.36c-6.26-10.82-2.78-24.83,3.69-35.53,1.57-2.6,3.34-5.21,3.8-8.21a19.2,19.2,0,0,0-.47-6.57c-2.37-12.26-5.77-24.35-7.16-36.76s-.65-25.44,4.91-36.63c2.46-5,5.88-9.63,6.63-15.12,1.09-8-3.69-15.77-3.05-23.79.57-7,5.54-13.35,11.95-16.31s14-2.77,20.66-.28c3.86,1.45,7.56,3.77,9.68,7.31,1.78,3,2.29,6.5,2.54,9.94.69,9.55-.33,19.13-1.3,28.66-1.31,12.77-2.53,25.61-1.69,38.42s3.84,25.68,10.46,36.68c3.3,5.49,7.67,11.33,6.38,17.61-.76,3.66-3.37,6.68-4.54,10.24-2.53,7.74,2.15,16.55-.63,24.21-3,8.25-12.93,11.25-21.56,12.91-10.46,2-21.63,3.63-31.51-.37Z"></path>
    <path data-name="3" data-official="Tirglochin palustre" data-plain="Marsh Arrow-grass" data-loc="Marshes, England" d="M989.72,2187.6a146.74,146.74,0,0,0-.53,21.07l-1.76,6.43c-1.76,20.46-2.52,41-2.25,61.54.06,4.59.49,9.84,4.15,12.61,4.65-2.24,9.46-4.53,14.62-4.76s10.79,2.17,12.77,6.93c1.18,2.84.92,6.06.31,9.07-4.31,21.53-24,36.59-32.3,56.91-3.75,9.16-5.05,19.09-7.46,28.68a127.26,127.26,0,0,1-14.58,34.86c-2,3.29-4.21,6.68-4.49,10.52-.23,3.18.91,6.28,2.13,9.23,13.92,33.61,40.74,60.87,53.15,95.07,2.17,6,2.9,14.49-3,17-2.24,1-4.84.66-7.19-.05-9-2.75-16.29-10.89-25.74-11.32a6.23,6.23,0,0,0-4.15,1c-2.66,2.06-1.57,6.25-2.43,9.5-1.37,5.22-8.22,7.42-13.26,5.5s-8.45-6.68-10.87-11.51c-1.55-3.1-2.92-6.46-5.61-8.64s-7.23-2.58-9.27.21c-1.1,1.48-1.21,3.44-1.5,5.26-2.28,14.7-19,24.76-33.52,21.47s-25-17.91-25.32-32.79c-.12-5.69.65-12.39-3.69-16.07-6-5.12-15.25,1-19.09,7.88s-6.36,15.58-13.56,18.84a13.34,13.34,0,0,1-16.45-5.27c-1.79-3.1-2.22-6.79-2.35-10.37a74.94,74.94,0,0,1,13.25-45.09c9.5-13.67,23.32-23.77,37.8-32,9.44-5.35,20-10.76,24.32-20.7l-3.07-7.86-2.72,1.76-11.3-31.46c-1.68-4.68-3.39-9.41-6.11-13.57-3.05-4.65-7.24-8.41-10.88-12.61-6.68-7.71-11.46-16.85-16.18-25.9-5-9.56-10-19.18-13.16-29.48-4.8-15.58-5.21-32.12-5.58-48.42-.57-25-.68-51.77,13-72.75l1.29-5.6a235.65,235.65,0,0,1-5.53-61.07c.15-3.6.33-7.39-1.31-10.6-2-3.91-6.26-6.05-10.3-7.78-10.18-4.37-20.78-7.81-30.6-12.94s-19-12.25-24.22-22c-2.18-4.07-4.16-9-8.58-10.35-5.9-1.77-11,4.09-15,8.75-18.17,20.93-48.26,27.85-75.9,25.8a7.79,7.79,0,0,1-4.51-1.32,6.28,6.28,0,0,1-1.75-2.89c-2.39-7.11,1.17-15.17,6.85-20.07s13.08-7.26,20.35-9.12,14.74-3.39,21.29-7c7.87-4.39,13.87-11.54,21.57-16.21,9.33-5.66,20.67-7.33,31.55-6.43a73.64,73.64,0,0,1,34.71,12.13c11.45,7.66,20.49,18.37,29,29.16l-3.07-74.47-2.52-8q-.6-31.6,0-63.22c.3-16.36.85-32.86,4.73-48.76.18-.72.44-1.54,1.12-1.83.85-.37,1.77.3,2.42,1,7.34,7.33,9.69,18.09,13.39,27.78,2.09,5.51,4.72,10.85,6.1,16.58,2.3,9.55,1.08,19.94,5.05,28.93l.61,13c-.09,9.46,1.86,18.8,3,28.2.89,7.62,1.23,15.3,1.57,23l3.48,78.84c.11,2.48.24,5.06,1.39,7.28a20.29,20.29,0,0,0,3.26,4.15,60,60,0,0,1,13.68,25.41q7.8-25.8,18.05-50.78l4.74-5.78a8.5,8.5,0,0,1,10.71,1.55,18.1,18.1,0,0,1,1.38,2l8.4,13.39-2.25,6.48c.27,2.24-.33,5,1.47,6.37,2.17,1.63,5.27-.69,7.92-.12,1.69.37,2.89,1.83,3.94,3.21l10.22,13.36.27,8.94a94.22,94.22,0,0,0,7,12.58l4.66,3.86a10,10,0,0,1,7.39,2.4,34.18,34.18,0,0,1,5.34,5.91,158.81,158.81,0,0,0,21.12,22.18Zm-.89-52.07q-1.86,4.65-3.55,9.35a2.18,2.18,0,0,0-.2,1.14,2.11,2.11,0,0,0,.49.89,51.71,51.71,0,0,0,8,8.23l1.8-1.14c2-1.82,4.11-3.92,4.28-6.61a10.44,10.44,0,0,0-.34-2.83l-3.11-14.66a1.63,1.63,0,0,0-.22-.64c-.49-.77-1.7-.46-2.44.07a7.59,7.59,0,0,0-2.53,3.16Zm50.71-30.62-.27-16.66a4,4,0,0,0-.88-3c-.92-.83-2.39-.59-3.52-.08a19.7,19.7,0,0,0-3.83,2.5l-17,13.09-3.47,3.6a57.9,57.9,0,0,0,2.12,24.47l2.57,2a42.77,42.77,0,0,0,18.32-20.12ZM845,832.28c-.93-6.8-2.17-14.21-7.3-18.77a6.76,6.76,0,0,1-1.94-2.16c-.5-1.19-.11-2.54,0-3.83.22-3-1.31-5.92-1.92-8.92a30.07,30.07,0,0,1,.07-9.18l.11-4.71c1.43-12.89-1.86-25.84-1.64-38.81a14.42,14.42,0,0,1,.47-3.88,17.92,17.92,0,0,1,1.12-2.59,86.45,86.45,0,0,0,8.08-25.87l1.93-3.64c3.29-11.24,3.49-23.2,2.13-34.83-.69-5.93-2-12.18-6.1-16.48L834,657.33c-1.18-.68-2.66,0-3.86.61a9,9,0,0,0-6.07,8.35L822.81,674l-2.78-2a3,3,0,0,1-.89-.84,3.27,3.27,0,0,1-.35-1.61c-.42-9-2.44-17.92-3.53-26.9s-1.2-18.35,2-26.8L818.8,611c2.84-7.55,3.4-15.78,3.21-23.85-.08-3.35-.27-6.78.78-10,.63-1.92,1.69-3.67,2.37-5.57a29.3,29.3,0,0,0,1.23-9q.27-10,.21-19.94c0-4.67-.14-9.5-2.07-13.76a20.38,20.38,0,0,0-8.76-9.19c-1.73-1-3.69-1.82-4.67-3.53a9,9,0,0,1-.85-4.19l-.47-11.88,1.05-3.95c6.53-15.5,7.81-32.67,8.17-49.49.08-4.09,0-8.57-2.63-11.71-2.1-2.53-5.51-3.67-8.8-3.76a35,35,0,0,0-9.7,1.57c-.7-3.86,1.17-7.66,2.5-11.35,3.6-10,3.41-20.88,3-31.49-.43-11.49-1.3-23.72-8.13-33a12.49,12.49,0,0,0-6-4.86c-3.61-1.12-7.65.56-10.19,3.35s-3.82,6.51-4.64,10.19a90.14,90.14,0,0,0-1.75,15c-1.9,37.12,3.24,74.25,10.07,110.78l.91,4.64L791.4,556c-3.1-3.08-8.78-1.63-11.43,1.85s-3,8.15-3,12.52c.11,16.74,4.46,33.13,8.78,49.3a108.35,108.35,0,0,0,4.5,14.23l2.3,4.52a26.13,26.13,0,0,1,13.67,6.66,5.57,5.57,0,0,1,1.2,1.46,5.7,5.7,0,0,1,.47,1.67l3.85,21.59c2.25,12.65,4.51,25.57,2.58,38.27l-.76,2.77a27,27,0,0,0-8.71,22.35l-.82,4.05a126,126,0,0,0-.59,17.69A42.15,42.15,0,0,0,807.75,772a64.08,64.08,0,0,1,3,5.75c1.3,3.28,1.46,6.88,1.61,10.41l1.17,28,1.18,3c2.7-.22,5.84-.26,7.58,1.81,1.24,1.49,1.33,3.59,1.36,5.52l.88,55.18-1.46,4.79-1.94,9.9a11.11,11.11,0,0,1-1,3.36,11.73,11.73,0,0,1-3.47,3.44c-4.3,3.27-8.47,6.92-11.1,11.64-3.1,5.58-3.78,12.13-4.5,18.47q-1.54,13.57-3.75,27.06l-.47,3.84c.23,1.55-.29,3.1-.44,4.66s.26,3.39,1.66,4.09c2.09,1.06,4.29-1.12,6.52-1.85,3.91-1.27,7.79,2.19,9.72,5.82a25.18,25.18,0,0,1,2,18.38c-1.75,6.24-6,11.85-6.16,18.33-.1,3.28.85,6.49,1.35,9.74,2,12.78-3,25.55-8.5,37.24S791.07,1084,790,1096.92c-.2,2.47-.06,5.29,1.81,6.92,1.14,1,2.72,1.34,3.9,2.29a4.86,4.86,0,0,1,.79,6.45l-.44,5.66c-7.2,20.45-9.84,42.22-11.21,63.87-.2,3.14-.35,6.44,1,9.3a3.81,3.81,0,0,0,2.64,2.41c.73.1,1.46-.15,2.19-.11,2.61.12,3.65,3.31,5.14,5.45a8.75,8.75,0,0,0,9.17,3.38,9.07,9.07,0,0,1,3.18-.65,5.46,5.46,0,0,1,2.6,1.21c4,2.87,7.35,7.06,7.66,11.94.54,8.51-8.13,15.12-8.95,23.61l-1.41,4.78a30.87,30.87,0,0,0-2,16.21c.85,5.75,3.26,12,.48,17.06a34.23,34.23,0,0,1-3.86,4.9c-3.55,4.41-5.1,10.06-6.36,15.58a223.06,223.06,0,0,0-5.26,38.42c-.25,5.15-.33,10.37-1.73,15.34-1.09,3.9-3,7.62-3.25,11.66a5.45,5.45,0,0,0,.74,3.55c1.71,2.39,5.47,1.5,8,0s5.45-3.4,8.17-2.27c1.93.8,3,3,3.25,5a57,57,0,0,1,0,6.27,17.78,17.78,0,0,0,2.68,9.08c1.16,1.85,2.65,3.49,3.71,5.4s1.63,4.27.78,6.28l-1.87,5.14c-4.51,12.41-4.13,26-6.42,39-.75,4.29-1.93,8.76-5,11.85-2,2-4.57,3.22-6.81,4.9a41.6,41.6,0,0,0-6.36,6.43,37.11,37.11,0,0,0-4.6,6.23,28,28,0,0,0-2.74,9.29c-2.12,14.81,1.38,30.78-5.1,44.26l-.4,5.43a21.31,21.31,0,0,0,16.1,16.43c5.37,1.15,11.47.28,15.88,3.56,3.16,2.34,4.64,6.27,5.88,10,3.17,9.53,5.89,19.54,4.67,29.51-1.27,10.36-6.72,20-7.19,30.39l.07,5.68a30.83,30.83,0,0,1-4.46,10.72,30.3,30.3,0,0,0-2.35,3.73c-1.48,3.12-1.32,6.73-1.13,10.17a7.91,7.91,0,0,0,1.2,4.55c1.5,1.89,4.28,2,6.7,1.94l5.31-.13a5.08,5.08,0,0,1,2.82.48c1.43.87,1.64,2.82,1.7,4.49l1,29.44.27,6.2c1.26,6.94-2.29,13.88-2.17,20.93.08,4.77,1.84,9.32,3.22,13.89,7.39,24.53,4.23,51.76,14.58,75.2L840,1805c5.07-15,4.2-31.24,4.3-47.08,0-3,.25-6.35,2.56-8.23,2.15-1.77,5.25-1.51,8-1.47a36.65,36.65,0,0,0,13.66-2.48c2.7-1,5.37-2.5,7-4.86,2-2.88,2.31-6.63,2.2-10.16-.44-13.78-5.54-27.52-3-41.08.72-3.91,2.06-7.69,3-11.56a59.05,59.05,0,0,0-4.33-39.76l-1.56-7.32a72.7,72.7,0,0,1-9.77-20.69c-1.59-5.49-2.49-11.57-.16-16.8,3.57-8,13.32-11.29,18.65-18.28a20,20,0,0,0,4.08-12.7c-.07-2.28-.53-4.55-.3-6.82s1.39-4.63,3.51-5.46a5.72,5.72,0,0,1,5.89,1.58,13.36,13.36,0,0,1,3,5.64c5.11,16.28.18,33.79-.44,50.83a100.57,100.57,0,0,0,14.84,56.09,62.83,62.83,0,0,1,4.13,7.15c3.84,8.61,2.3,18.73,5.28,27.67l.48,6.18a428.13,428.13,0,0,1,7.72,62.82c.64,13.36.66,26.74,1.08,40.11.4,12.66,1.16,25.31,1.92,38l3.39,56.26.32,5.56q1.11,55.44-2.5,110.84l-.24,6.72a17.56,17.56,0,0,1-1.14,8.33c-1.58,3.93-4.62,7.42-4.83,11.65-.14,2.76,1,5.41,2,8,4.85,11.34,9.72,22.74,16.32,33.16l2.28.67a9.75,9.75,0,0,0,1.23-3.6c.18-1.29.1-2.61.39-3.88a3.82,3.82,0,0,1,2.31-2.93,3.38,3.38,0,0,1,3,.74,8.59,8.59,0,0,1,2,2.5,46.66,46.66,0,0,1,4.11,9.08l1.1,4.5-.1,6.34a17.16,17.16,0,0,0,4.4,14l11,14.58,2.33-2.16c-.39-6.39,1.21-12.71,2-19.06a142.78,142.78,0,0,0,.61-18.39l-.11-12.45c-.18-18.64-.41-37.62-6.24-55.32l1-3.28a87.9,87.9,0,0,0,26.12-55.37c1.67-20.54-3.86-42.09,3.47-61.35,1.45-3.8,3.31-8.34.92-11.63s-7.6-2.88-11.29-1c-9.75,4.85-14.71,16.07-16.23,26.86s-.35,21.79-1.7,32.59c-1,7.76-3.2,15.29-5.68,22.7a33.54,33.54,0,0,0-.68-9.12,11.27,11.27,0,0,0-5.2-7.25,5.8,5.8,0,0,1-1.89-1.24,4.25,4.25,0,0,1-.66-2.51q-2-38-1.75-76l0-5.83q-1.36-56.2-3.68-112.39l2.81-3.64a38.51,38.51,0,0,0,8.86-15.7c.92-3.24,1.41-6.6,2.52-9.78,1.35-3.88,3.58-7.38,5.54-11a174.58,174.58,0,0,0,7.53-16.39c4.07-9.68,8.17-19.51,9.54-29.92.72-5.45.38-11.7-3.7-15.38-4.36-3.94-11.53-3.17-16.3.27s-7.64,8.88-10,14.25c-1,2.19-2,4.53-4,5.91s-5.19,1.28-6.31-.84a5.8,5.8,0,0,1-.47-2.77c.14-12.88,8.06-24.24,11.6-36.61l2.37-4.81c3.4-20.06,2.42-40.58,1.43-60.91a17.63,17.63,0,0,0-1.13-6.43c-2-4.33-7.32-6.4-12-5.51s-8.55,4.22-11.25,8.11c-2,2.93-3.54,6.26-6.08,8.77a3,3,0,0,1-1.69,1,2.46,2.46,0,0,1-1.64-.6c-2.18-1.67-2.64-4.71-2.89-7.44q-.48-5.24-.7-10.49a44.8,44.8,0,0,1,.42-10.29,80.15,80.15,0,0,1,2.68-8.92,65.59,65.59,0,0,0,2.79-25.78l1.5-3.18a113.71,113.71,0,0,0,1.13-26.13,47,47,0,0,0-2.88-14.35,21.74,21.74,0,0,0-9.25-11c-3.28-1.79-7-2.45-10.72-3.08l.32-4.43,1.45-19.77A12.57,12.57,0,0,1,921,1424a18.39,18.39,0,0,1,2.63-3,29.08,29.08,0,0,0,4.65-7.06c8.07-16.18,8.16-35,7.68-53.12a74.51,74.51,0,0,0-.59-8.71c-.39-2.7-1.2-5.56-3.34-7.26a12.21,12.21,0,0,0-4-1.84,27.51,27.51,0,0,0-8-1.48,11,11,0,0,0-7.52,2.67l-.4-4.35a126.2,126.2,0,0,0-.75-37.62,6.42,6.42,0,0,1,.82-5.13c2.51-5.3,4.86-10.69,7-16.13a86.65,86.65,0,0,0,5.24-16.79,81.29,81.29,0,0,0,.67-18.9c-.39-6.91-1.13-13.85-3.2-20.45a12,12,0,0,0-2-4.11c-1.78-2.18-4.76-3.06-7.57-3.07a47.8,47.8,0,0,1-5.86.07c-1.94-.26-4-1.32-4.57-3.17a7.28,7.28,0,0,1,0-3.62l2.14-12.16,3.55-3.34c3.48,1.46,7.66-.37,10-3.35s3.13-6.84,3.59-10.59a24.83,24.83,0,0,0,.05-7.6c-.72-3.92-3-7.45-3.64-11.38-.75-4.41.54-8.87,1.62-13.21a137.83,137.83,0,0,0,3.92-26.87,10.26,10.26,0,0,0-.63-5c-1.27-2.62-4.42-3.74-7.32-4.06a23.82,23.82,0,0,0-17.89,5.49c0-5.08,3.87-9.53,8.45-11.72,4.38-2.1,9.88-2.87,12.53-6.94,2.12-3.27,1.59-7.52.93-11.36q-1.65-9.57-3.67-19.06l-.8-6.7.19-19.09c0-2.9-.25-6.35-2.76-7.79a6.94,6.94,0,0,0-3.25-.72c-3.84-.11-7.63.86-11.36,1.81-1.94-6.87.92-14.17,4.47-20.37s7.91-12.16,9.36-19.15c.66-3.21.78-6.76,2.88-9.27s5.21-3.18,7.84-4.79c6.47-4,8.63-12.26,9.55-19.79a128.76,128.76,0,0,0,.26-29.17l-1.27-4.87c-.86-3-3.94-4.83-7-5.28s-6.15.2-9.21.67a1.82,1.82,0,0,1-1.2-.1,1.73,1.73,0,0,1-.62-1.21c-.46-2.24-.67-4.71.49-6.67,1.71-2.89,5.55-3.47,8.59-4.9,5-2.35,8.26-7.5,9.66-12.86s1.2-11,1-16.52l-.93-25.08c-.12-3.28-.4-6.93-2.8-9.18a9.46,9.46,0,0,0-5.21-2.17,18.21,18.21,0,0,0-10.85,1.89c-1,.52-2.3,1.1-3.09.31a2.29,2.29,0,0,1-.5-1.6c-.35-9.7,7.67-18,8.4-27.64.29-3.94-.64-7.86-.81-11.81s.66-8.27,3.66-10.84l4-3c3.58-2.77,7.24-5.62,9.71-9.43s3.57-8.8,1.68-12.92c-.87-1.87-2.29-3.47-2.89-5.45-.77-2.55,0-5.28.6-7.87a99.11,99.11,0,0,0,2-11.06c.25-2,.34-4.32-1.12-5.72-1.19-1.14-3-1.24-4.67-1a22.75,22.75,0,0,1-4.89.67,1.19,1.19,0,0,1-.88-.35,1.14,1.14,0,0,1-.15-.83c.24-2.75,2-5.08,3.33-7.5,4.5-8.28,3.87-18.28,3.12-27.68l-3.07-.27a7.24,7.24,0,0,0-4.85-.77,15.86,15.86,0,0,0,1.11-7.94,2.1,2.1,0,0,0-.28-1,2.25,2.25,0,0,0-1.57-.74,57.25,57.25,0,0,0-10.86-.86,15.63,15.63,0,0,0,.32-4.15,6.9,6.9,0,0,0,8-2.09,9.26,9.26,0,0,0,1.34-8.47,5.84,5.84,0,0,0-.82-1.75,5.34,5.34,0,0,0-3.44-1.92,15.11,15.11,0,0,0-4,0,11.38,11.38,0,0,0-1.75-9.48l-1-3.62c-.5-1.56-1.8-2.71-2.81-4s-1.75-3.09-1-4.54c.92-1.74,3.29-1.86,5.23-2.18a15.85,15.85,0,0,0,11.52-9.23,20.7,20.7,0,0,0,.4-15,13.55,13.55,0,0,0-2.56-4.72c-2.86-3.24-7.47-4.13-11.31-6.13,2.42-3.25,5.31-6.19,7.28-9.74s2.89-8,1.1-11.65a13.52,13.52,0,0,0-4.46-4.81,28.33,28.33,0,0,0-5.84-3.2l-.53-4.09c3.47-4.66,5.34-10.68,4.31-16.4s-5.24-10.94-10.85-12.47a26.77,26.77,0,0,0-.25-8.71,10.54,10.54,0,0,0-4.89-6.95c-3.74-2-8.66-.61-11.57,2.48s-4.07,7.48-4.2,11.73c-.09,2.74.17,5.68-1.22,8.05-.68,1.16-1.71,2.09-2.44,3.22a13.36,13.36,0,0,0-1.66,4.86c-.56,3-.48,6.89,2.28,8.25a19.19,19.19,0,0,0-4,7.83,10.37,10.37,0,0,0-.11,5.07c1.16,4.16,5.71,6.24,9.74,7.78-7.87,2.73-12.84,11.56-12,19.85a10.4,10.4,0,0,0,1.13,4.06c1.71,3.09,5.35,4.43,8.2,6.51a8.61,8.61,0,0,0-8.71,9v4.67a42.7,42.7,0,0,0,3.25,15.39A29.53,29.53,0,0,0,883,669c.27.19.58.43.59.77a1,1,0,0,1-.24.62c-3.08,4.74-7.21,8.78-9.94,13.73a28.83,28.83,0,0,0-3.31,17.37l.81,5.88a13.91,13.91,0,0,0,3.88,7.81,4.62,4.62,0,0,0,1.76,1.22,5.63,5.63,0,0,0,2.55,0c2.19-.33,4.47-.7,6.26-2,1.26-.9,2.46-2.31,4-2.12a3,3,0,0,1,2.31,2.3,8.86,8.86,0,0,1,0,3.44,1,1,0,0,1-.29.68c-.26.21-.64.11-1,0a5.07,5.07,0,0,0-5.88,6.84,1.79,1.79,0,0,0,.52.77c.65.52,1.6.16,2.43.24a7.41,7.41,0,0,1,2.72,1.39,10.9,10.9,0,0,0,4.67,1.06l0,.69-.1,12.54c-.54-1.33-2.53-1.55-3.66-.66a4.89,4.89,0,0,0-1.55,3.86c0,1.43.26,2.87.16,4.3-1.33-.27-2.59.8-3.19,2a8.14,8.14,0,0,0-.37,5.57,23.9,23.9,0,0,0,2.26,5.22l-.95,5.1a177.4,177.4,0,0,0-.4,28.79c.12,1.75.25,3.6-.55,5.16-.91,1.77-2.79,2.78-4.49,3.8a29.77,29.77,0,0,0-9.11,8.11A19.4,19.4,0,0,0,869.14,825c.16,7.46,5.5,14,11.92,17.8l4.67,4.19q.36,25.32-.88,50.61a1.89,1.89,0,0,1-1.27,2.06A35.8,35.8,0,0,0,865,928.46c-.32,5.06.38,10.46-2,14.92-2.57,4.74-8.2,7.18-13.59,7.4a3.54,3.54,0,0,1-1.88-.31,3.61,3.61,0,0,1-1.4-2.28c-3.36-11.72-.56-24.32-2-36.42-.77-6.29-2.58-13.17.7-18.59,1.3-2.14,3.26-3.77,4.94-5.62,5.45-6,7.89-14.2,8.31-22.27s-1-16.11-2.44-24.07Z"></path>
    <path data-name="3a" data-official="" data-plain="Flower" data-loc="" d="M488.15,2681.6c-3.7-.37-6.66-3.55-7.76-7.1s-.64-7.4.17-11a58.07,58.07,0,0,1,5.52-14.77c3.56-6.6,8.61-13.58,6.74-20.84-1.79-6.94-9.16-10.8-13-16.83-3.47-5.41-3.89-12.23-3.4-18.64,1.19-15.37,7-30.13,7.78-45.52.77-14.56-2.84-29.82,2.54-43.37a35.14,35.14,0,0,1,23-20.6c6.53-1.79,14-1.45,19.46,2.57,4.42,3.25,7,8.55,7.93,13.95s.4,11-.43,16.38c-1.92,12.68-5.33,25.69-2.19,38.13,1,4,2.7,7.88,4,11.84,3.58,11.07,4,22.91,3.5,34.53-.15,3.53-.47,7.32-2.71,10.05-1.82,2.21-4.66,3.38-6.53,5.54-3.65,4.23-2.56,10.67-.82,16,1.23,3.73,2.79,7.55,5.77,10.1,2.42,2.07,5.55,3.1,8.1,5,5.07,3.76,7.2,10.5,7,16.82a18.38,18.38,0,0,1-3,10.29c-2.06,2.86-5.18,4.77-8.39,6.22-12.74,5.74-27.32,5.15-41.28,4.45Z"></path>
    <path data-name="3b" data-official="" data-plain="Petal and Stamen" data-loc="" d="M579.86,2689.68c-4.43-3.42-4.43-10.13-3-15.56s3.78-10.93,2.66-16.43c-.74-3.65-3-6.79-5-9.9-8.9-13.52-15.73-29.17-15-45.33a36.57,36.57,0,0,1,2.32-11.72c2.07-5.24,5.64-9.72,9.16-14.12l8.93-11.15c2.64-3.3,5.64-6.82,9.8-7.59,6.81-1.26,12.27,5.23,18.51,8.24,6.61,3.2,14.94,2.65,20.6,7.34,2.95,2.45,4.9,6.16,8.38,7.79a24.46,24.46,0,0,0,5.83,1.41A29,29,0,0,1,661.2,2628c-3.56,5-8.69,8.81-11.5,14.23-3.41,6.59-2.91,14.41-2.94,21.83s-1,15.56-6.43,20.64c-3,2.81-7,4.3-10.86,5.59-12.8,4.25-26.82,7.13-39.68,3.06Z"></path>
    <path data-name="3c" data-official="" data-plain="Section of Ovary" data-loc="" d="M672.54,2694.8c.67-7.74,7.08-13.66,9.87-20.91,2.18-5.67,2.05-11.95,1.56-18-1.39-17.5-5.43-34.7-6.82-52.19a174.43,174.43,0,0,1,18.5-92.79c1.22-2.39,2.77-5,5.37-5.7a8.18,8.18,0,0,1,4.58.36c10.44,3.27,17,13.93,19.46,24.59s1.81,21.79,3,32.67c1.06,9.64,3.58,19.09,4.21,28.76.68,10.63-.95,21.31-3.73,31.6-1.94,7.16-4.45,14.26-4.87,21.66s1.62,15.41,7.32,20.16c3.7,3.08,8.6,4.55,12,8,4.94,4.95,5.46,13.24,2.37,19.52s-9.17,10.68-15.7,13.21-13.55,3.38-20.5,4.22l-11.33,1.38c-4.53.55-9.21,1.09-13.61-.14s-8.52-4.68-9.06-9.22Z"></path>
    <path data-name="4" data-official="Potamogeton perfoliatum" data-plain="Perfoliate Pond-weed" data-loc="Ponds, England" d="M1046.39,2266.77l3.71-2.59,5.94-3.2a173.45,173.45,0,0,1,21.47,32.42l-.76,6.06-1.45,9.95-1.53,8.17c3.77,27.38-10.21,53.84-14.1,81.2-1.42,10-1.5,20.17-4.14,29.88-1.75,6.41-4.59,12.57-5.28,19.17-.59,5.57.38,11.19.4,16.79s-1.11,11.61-5.08,15.57a21.29,21.29,0,0,1-8.12,4.65c-5.74,2-12.1,2.95-17.91,1.14s-10.87-6.81-11.45-12.87c-.42-4.5,1.55-9.07.57-13.47-.94-4.23-4.41-7.43-6-11.45-1.44-3.53-1.37-7.47-1.2-11.28,2.48-55.61,21.84-108.83,36.3-162.58Zm548.32-816c-2.43-2.91-6.74-3.14-10.53-3.13q-28,.09-55.93,1.18l-5.15.68-.63,3.57,6.5,5.67A234.68,234.68,0,0,1,1548.3,1477c2.25,2.46,4.39,5,6.53,7.59,9.26,11.1,18.56,22.43,24.5,35.62l1.7-.47c2.66-1.47,4.46-4.07,6.17-6.58l4.16-6.11a52.32,52.32,0,0,0,4-6.59c2.82-5.87,3.35-12.55,3.64-19.06.37-8.64.39-17.32.79-26ZM1338,1644.2l1-4.13c1.78-3.7,5.27-6.23,8.62-8.61a24.43,24.43,0,0,1,4.62-2.78,8.2,8.2,0,0,1,5.29-.54l9.86-1.14,10.74-.61a7,7,0,0,0,2.93-.61l3.9-1.58c.58-.56.8-1.4,1.32-2a3.94,3.94,0,0,1,2.29-1.16,8.94,8.94,0,0,1,8.89,3.66c.44.65.79,1.36,1.28,2a5.51,5.51,0,0,0,3.72,2l1.67,8.86,4.94-1.34a59.11,59.11,0,0,0,33.82-14.45l5.25-.67a16.83,16.83,0,0,0,2.34-5.23,18.63,18.63,0,0,0-.31-6.89l-.16-3.76c3.7-4.83,6.7-10.17,10.48-14.94s8.54-9.06,14.38-10.74l1.94,2.81,5.61-.81c24.72-15.94,53.86-24,78.61-39.91l2.42-8a5.77,5.77,0,0,1,.75-3c1.63-2.59,5.67-2.46,7.67-4.78l2.2-3.73q-7.92-11-16.52-21.55c-2.17-2.67-4.38-5.31-6.68-7.88-8.07-9-17.22-17-26.34-24.95a24.6,24.6,0,0,0-5.74-4.11c-2.19-1-4.69-1.39-6.61-2.84a31,31,0,0,1-2.65-2.6,13.4,13.4,0,0,0-10.43-3.67l-7.16-2-2.86,2.45a204.31,204.31,0,0,1-37.91.36l-6.13,3.48a2.13,2.13,0,0,1-.6,1.41,2.69,2.69,0,0,1-1.38.53,38.36,38.36,0,0,1-20.53-2.07l-4.82-3-6.21-1c-9.39-.11-19,0-27.87,2.94a69.62,69.62,0,0,0-15.25,7.6,148.22,148.22,0,0,0-51.35,55.29c2.44-18.92-7.17-37.06-11.09-55.73-1.3-6.23-2-12.6-3.35-18.82-3-13.65-9.35-26.32-15.62-38.82l2.57-3.82c6.55-15,12.68-30.36,15.22-46.52s1.26-33.35-6.37-47.82-22.27-25.74-38.61-26.72c-4.23-.26-8.81.07-12.33-2.29a18.55,18.55,0,0,1-4.4-4.77c-9.64-13.29-19.4-26.8-25.13-42.2a13.14,13.14,0,0,1-1.13-6.27c.3-2.12,1.87-4.22,4-4.4,3.3,4.47,6.65,9,11,12.5s9.79,5.92,15.34,5.45c7.18-.6,13.35-5.84,20.53-6.42,7.51-.61,14.34,3.91,20.75,7.87,7.24,4.47,14.89,8.51,23.2,10.32s17.41,1.21,24.71-3.16c4.84-2.89,8.74-7.3,13.92-9.54,8.63-3.73,18.73-.53,26.81,4.26,3.43,2,6.76,4.38,10.6,5.48s8.41.69,11.15-2.21c3.33-3.53,2.76-9.09,2-13.88l-.61-5.19c-.2-6.08-3.66-11.51-7-16.58-9-13.64-18.11-27.41-30-38.6-10-9.37-21.69-16.73-31.73-26-5.64-5.22-10.72-11-16.51-16.1s-12.44-9.43-20-11l-5.14-1.13c-16.06-1.26-33-2.36-47.45,4.82a89.76,89.76,0,0,0-13.77,9.12l-12.18,9.21c.7-7,4.34-13.18,7.26-19.52a101.2,101.2,0,0,0,8.13-27c7.59,5.79,17,9.45,26.55,9.14s19.09-4.91,24.41-12.83c3.48-5.16,5.65-12,11.45-14.27,3.39-1.32,7.18-.65,10.82-.76a25.5,25.5,0,0,0,19.45-10.11l3.48-3a67.9,67.9,0,0,1,10.17-15.37,42.14,42.14,0,0,0,4.55-5.63c3.57-5.86,3-13.23,2.39-20.06-.27-2.76-.74-5.89-3-7.44-2.07-1.39-4.89-.94-7.13.16s-4.15,2.76-6.41,3.82c-3.7,1.73-8,1.69-12,1.1s-8-1.7-12.08-2c-2.9-.21-5.83,0-8.72-.31-9-1-17.21-6.88-26.2-6.1l-.77-1.9c3.52-2.61,5.38-7,6-11.31s.22-8.75.06-13.13a9.91,9.91,0,0,1,.29-3.48,7.9,7.9,0,0,1,3.74-4.08c5.17-3,11.52-2.74,17.43-3.65a76.8,76.8,0,0,0,14.81-4.25c19.79-7.29,39.5-16.48,54.18-31.62a37,37,0,0,0,7.39-10.07c2.14-4.66,2.79-10,5.82-14.18,1.59-2.15,3.91-4.36,3.36-7a5.87,5.87,0,0,0-1.22-2.33,17.86,17.86,0,0,0-15.42-6.82c-6.09.53-11.41,4.14-16.44,7.6s-10,6.81-15,10.17c-6.68,4.46-13.55,8.93-21.34,10.88-8.53,2.14-18,1.21-25.62,5.6l1.51-3.08a44,44,0,0,0,8.34-8.25c2.25-3.22,3.63-7.23,2.88-11.08a4.93,4.93,0,0,1-.14-2.31c.29-1,1.25-1.53,2.08-2.11a13.94,13.94,0,0,0,5.66-13.27c-.18-1.16-.5-2.4,0-3.45a6.8,6.8,0,0,1,2.16-2c2.6-2,3.65-5.63,3.28-8.91a19.74,19.74,0,0,0-3.91-9c4.29-2.26,8.81-4.87,10.83-9.28,1.93-4.25,1-9.48-1.77-13.24a19.92,19.92,0,0,0-11.68-7.2,21.72,21.72,0,0,0-14,1.24,16,16,0,0,0-8.87,10.67,9.23,9.23,0,0,0-11.71,10.52,2.67,2.67,0,0,1,0,1.63,2.55,2.55,0,0,1-1.32,1,18.93,18.93,0,0,0-10.16,18.92c.14,1.15.37,2.43-.29,3.38a5.14,5.14,0,0,1-2.23,1.41c-4.6,2.11-7.31,7.17-7.9,12.19s.62,10.08,2,15c-3.73-.49-6-4.29-7.35-7.81-3.76-9.92-4.77-21.52-12.32-29a12.72,12.72,0,0,0-6-3.59c-4.42-1-9,1.61-11.88,5s-4.68,7.7-6.9,11.64-5.19,7.77-9.43,9.35c-2.2-2.21-2.67-5.6-4.29-8.27-3.13-5.14-9.82-6.66-15.81-7.31-2.75-.3-5.62-.56-8-2s-4.05-4.45-3-7c1.39-3.34,5.92-3.63,9.54-3.54,5.93.14,12.11-.24,17.31-3.09s9.13-8.78,8-14.6l-.38-5.23c1-6.73,1.22-13.82-1.25-20.17s-8-11.82-14.83-12.58c-3.46-.4-7.68.13-9.72-2.7-2.29-3.17.47-7.66,3.81-9.69s7.46-3.08,9.88-6.14c2.6-3.27,2.5-7.85,2.28-12-.2-3.77-.43-7.67-2.18-11-2.14-4.08-6.24-6.75-10.41-8.71-5.82-2.74-12.44-4.46-18.71-3s-11.9,6.85-12.06,13.29c0,1.78.32,3.55.19,5.33a5.22,5.22,0,0,1-2.48,4.46,7.77,7.77,0,0,1-3.5.45c-8.64-.07-17.8,3.78-21.82,11.42-2.81,5.35-2.76,11.92-.65,17.59a34.9,34.9,0,0,0,10.75,14.34,21.86,21.86,0,0,1,4.39,4.25c2.44,3.63,1.91,8.43,1.27,12.76a8.69,8.69,0,0,1-1.19,3.85,8.23,8.23,0,0,1-3.17,2.34c-7.2,3.58-15.73,6.32-19.47,13.44-1.78,3.39-2.16,7.32-2.46,11.14q-.79,10.18-1,20.4l-.89,4a12.49,12.49,0,0,1-.93,10.34c-5.07-5.12-10.21-10.28-16.35-14s-13.49-6-20.58-4.79c-1.47.26-3,.66-4.41.09a6.34,6.34,0,0,1-2.45-2.21c-3.39-4.47-5.95-9.53-9.39-14s-8.08-8.34-13.63-9.16a10.39,10.39,0,0,1-3.37-.75,7.77,7.77,0,0,1-2.42-2.39l-8.31-11.12c-5-6.76-11.17-14.13-19.59-14.71a10.31,10.31,0,0,0-7.49,2.19c-2.69,2.36-3.43,6.2-3.8,9.76-2.16,20.66,2.54,41.61,10.6,60.76a148.41,148.41,0,0,0-21.39-9.27c-4.12-1.41-8.75-2.62-12.69-.78-6.31,3-7.06,11.73-5.29,18.47,4.06,15.44,16.1,27.65,29.47,36.37s28.35,14.64,42.32,22.38,27.37,17.81,34.65,32a68.43,68.43,0,0,0-51.51-4.74l-5.48,1.87a12.89,12.89,0,0,0-10.69,7.54c-1.78,4.06-1.29,8.8.24,13s4,7.87,6.34,11.66c8.15,13.42,14.39,28.62,26.54,38.56,7.32,6,16.45,9.72,22.84,16.69.6.65,1.17,1.7.54,2.33a1.8,1.8,0,0,1-.81.39c-10.65,3-21.94,2.41-33,1.52-6.23-.51-13-1-18.26,2.38l-5.76.88c-2.74,1-5.59,2.18-7.32,4.52-1.59,2.15-2,4.93-2.36,7.58-.58,4.33-1.15,8.76-.24,13a19.23,19.23,0,0,0,7.35,11.34l4.45,3.31a36.59,36.59,0,0,0,12.35,9,23.17,23.17,0,0,1,5.37,2.78,12.88,12.88,0,0,1,3.23,4.19c2.7,5.11,3.61,11.14,7.06,15.78,1.47,2,3.4,3.7,4.28,6s.53,5.12.26,7.7a75.71,75.71,0,0,0,.51,19.49,6.13,6.13,0,0,1-.13,3.53,4.51,4.51,0,0,1-2.65,2.1c-3.18,1.19-6.82.76-9.9,2.16-1.7.77-3.16,2.06-4.93,2.65a16.25,16.25,0,0,1-3.62.55,21.75,21.75,0,0,0-9.74,2.87,11.26,11.26,0,0,0-5.47,8.24l-.91,4.51c-.51,4.85-.72,10.52,3,13.71a3.49,3.49,0,0,1,.9,1,2.75,2.75,0,0,1,0,1.81,41.18,41.18,0,0,0-1.15,8,17.67,17.67,0,0,0,.9,7.27c1.63,4.15,5.64,7,9.89,8.34s8.79,1.38,13.24,1.41c-6.6,5.87-10.73,14.65-10.32,23.47s5.6,17.45,13.54,21.32l-7.72,6.57a13.91,13.91,0,0,0-3.15,3.35c-1.62,2.73-1.2,6.24,0,9.19a21.19,21.19,0,0,0,26.89,12.26l.84,3.13c-1,11.64,1.7,23.38,6.19,34.17s10.72,20.75,17.11,30.54c19,29.09,40.11,57.67,68.49,77.71l2.43,3c.31,5.72,1.12,12.32,6,15.36,2.48,1.55,5.55,1.8,8.46,1.63,8.9-.53,17.86-4.59,26.45-2.17,3.63,1,6.85,3.13,10,5.21l38.22,25.27c-16,6-34-1-51,1.55a45.14,45.14,0,0,0-16.5,6c-4.14,2.52-7.86,5.71-12.13,8-14.36,7.68-31.8,4-48.09,4.4a93.75,93.75,0,0,0-58.44,22.5l-2.29,4.54c-3.65,1.56-4.88,6.59-3.17,10.17s5.57,5.72,9.47,6.45,7.91.26,11.86-.07a152.41,152.41,0,0,1,52.92,4.45c9.3,2.55,18.34,6.11,27.77,8.13,22.1,4.74,45,.85,67.6.23s47.21,3,63,19.11c8.69,8.86,13.82,20.73,16.41,32.87s2.8,24.64,2.8,37c0,6.16-1.43,14.08-7.48,15.21l-1.61,7.33-.85,3.7a84.54,84.54,0,0,0-13.32,11.75l-2.8-.91-5.71,3.64c-21.71,19.79-44,40.43-55.61,67.43-4.67,10.88-7.43,22.46-10.16,34-2.93,12.33-5.86,24.73-6.79,37.37-2.23,30.26,7.1,60,11.86,90l.2,5a68.18,68.18,0,0,1,12.34,12.66c1.71,2.3,3.35,5.07,2.7,7.86a10.42,10.42,0,0,1-1.6,3.26l-7,10.92-4.22-2.88a127.94,127.94,0,0,1-12.87-11.07l-2.63-4.08-4.38-18.93c-.19-.83-.32-1.85.33-2.4a2.07,2.07,0,0,1,1.11-.37l.65-4.36c-1.14-10.72-2.28-21.48-4.94-31.92-1.5-5.9-3.48-11.67-5-17.58-1.62-6.51-2.62-13.16-4-19.71-3.59-16.59-9.83-32.46-16-48.25a9.8,9.8,0,0,0-1.76-3.22,7.24,7.24,0,0,0-5.48-1.87c-4.35.11-8.34,2.31-12.13,4.46-7.58,4.29-15.17,8.59-22.58,13.19-6.73,4.18-13.51,8.81-17.73,15.52l-2.11,6.93.28,2.19c-3.36,3.31-6.79,6.71-8.76,11l-3.68-.17-6.17,2.18c-7.63,7.75-11.77,18.19-15.61,28.37q-8.4,22.26-16.12,44.78a165.57,165.57,0,0,0-6.46,22.33,154.65,154.65,0,0,0-2.23,21.7q-1.35,26.67-.49,53.38l2.24,5.34c1.13-.51,2.6-.75,3.52.08a4,4,0,0,1,.88,3l.27,16.66-6,5.79,1.47,6.85c-.06,13.77.3,27.69,3.68,41,4.18,16.51,12.79,31.49,20.13,46.85a28.55,28.55,0,0,1,2.45,6.46,30.43,30.43,0,0,1,.24,7.75l-.77,13.6.6,8.5a214.86,214.86,0,0,1,23.7,30.45l4.39-1.37c4.85-4.39,8-10.35,10.68-16.3s5.17-12.11,9-17.38,9.49-9.66,16-10.41c3.3-.38,6.61.19,9.9.63,9.81,1.32,19.86,1.52,29.56-.48s19-6.32,26.18-13.2l6.48-7.19c-1.1-1.64-1-3.81-.56-5.74a18.88,18.88,0,0,1,3.3-7.09l6.12-10c2.6-5.5,3.07-11.73,3.49-17.8l.45-10.72-2.68-4.64a17.67,17.67,0,0,0,.5-4.77,34.47,34.47,0,0,1,4.07-15l2.73-4.19-1-4.34c1-13.77-3.27-27.28-6-40.81a9,9,0,0,1-.13-4.39,9.79,9.79,0,0,1,2.61-3.67,66.21,66.21,0,0,0,13.94-22.17l1.52-6.67-1.65-5.35a57.1,57.1,0,0,1,9.85-15.34h2.29a14.76,14.76,0,0,1,3.5,1.13l4-3.09,7.85-16.43a5.76,5.76,0,0,1,1.63-2.33c1.07-.77,2.51-.72,3.83-.74,7-.1,13.6-3,19.91-6a380.79,380.79,0,0,0,38-20.81,112,112,0,0,0,15.55-11.19,131.49,131.49,0,0,0,11.18-11.82c4.71-5.41,9.43-10.82,14.07-16.29,6.59-7.76,13.25-16,15.45-26l2.23-13.52-1.53-6.35a98.58,98.58,0,0,1,4.94-15.76,10.36,10.36,0,0,1,1.43-2.86c1.25-1.56,3.26-2.26,5.17-2.87l5,1,1.53-5.05c2.06-9.27,4.13-18.58,7.6-27.43,2.6-6.65,6-13.17,6.67-20.29l2.91-6.64q-.28-12-1-24l-.63-6.65c.2-10.65-.73-21.38.89-31.9s6.27-21.19,15.14-27.08l5.44-2-.71-3.24a70.72,70.72,0,0,0,0-8.49,1.8,1.8,0,0,0-.23-.92,1.7,1.7,0,0,0-1-.53,14,14,0,0,0-4.27-.49l-3.87-2.32-4.39,2.41c-2.74,2-6.43,1.88-9.81,1.68l-14.6-.87-4.8-2.43a36.6,36.6,0,0,1-7.87-1.18c-4.33-1.29-8-4.1-11.62-6.86l-2.9,2.69a90.38,90.38,0,0,0-28.39,4.62,164.05,164.05,0,0,1,.75-45.46Z"></path>
    <path data-name="4a" data-official="" data-plain="Flower, magnified" data-loc="" d="M1164.85,2688.16c5.09-4.51,10.68-11.06,7.88-17.25-3.44-7.57-16.39-6.78-19.44-14.52-2-5.19,1.47-12.22-2.52-16.11-2.71-2.63-7-1.9-10.82-1.82-12,.24-23-8.4-27.9-19.33s-4.51-23.65-1.45-35.24,9.83-23.32,21.27-26.39c6-1.62,12.41-.52,18.63,0a7.14,7.14,0,0,0,3.68-.34c3.29-1.54,2.58-6.26,2.7-9.88.21-6.36,4.72-12,10.25-15.1s12-4.2,18.31-4.89a195.55,195.55,0,0,1,29.83-1c8.87.37,18.85,2,23.93,9.24,3.11,4.46,3.69,10.14,4.82,15.45s3.33,11,8.16,13.49c5.35,2.75,11.78.61,17.79.55,11.65-.12,22.25,8.22,27.31,18.71s5.32,22.72,3.5,34.23c-.7,4.44-1.77,9-4.54,12.53-2.6,3.34-6.44,5.43-10.17,7.43-8.33,4.47-17.26,9.08-26.68,8.31-4.43-.36-9.62-1.69-12.8,1.43-2.32,2.29-2.38,5.94-3.57,9-1.61,4.11-5.41,7.06-9.56,8.56-3.12,1.13-6.55,1.57-9.28,3.45s-4.39,6-2.25,8.53c1.09,1.28,2.82,1.78,4.44,2.25,7.44,2.17,15.71,6.28,17.06,13.9.87,4.94-1.66,10-5.43,13.33s-8.63,5.11-13.46,6.44a92.27,92.27,0,0,1-44.46,1c-8.16-1.83-17.48-6.56-17.9-14.91Z"></path>
    <path data-name="4b" data-official="" data-plain="Petal and Stamen" data-loc="" d="M1326.82,2695.71c.11-6.88,5.41-12.39,10-17.55,1.86-2.11,3.71-4.42,4.12-7.19.53-3.58-1.49-7.09-4.06-9.63s-5.73-4.43-8.36-6.91c-9.84-9.25-10.62-24.5-9.4-37.95,1.07-11.71,3.49-24.07,11.58-32.59,9-9.52,24.61-12,36.17-5.84,4.38,2.34,8.81,5.9,13.68,4.93,2.86-.57,5.18-2.65,7.91-3.67,6.61-2.48,13.81,1.63,19.11,6.28,8.84,7.75,16.23,19,14.08,30.6-.9,4.8-3.39,9.25-3.86,14.11-.37,3.83.55,7.65,1.31,11.43a144.22,144.22,0,0,1,2.18,14.78c.36,3.84.41,8.17-2.21,11-4.49,4.85-13.13,1.85-18.62,5.52-5.09,3.41-5.19,10.8-4.15,16.84s2.51,12.79-.93,17.86c-3.16,4.65-9.29,6-14.86,6.76a149.76,149.76,0,0,1-22.7,1.16c-5.29-.13-10.66-.57-15.62-2.41s-9.53-5.28-11.76-10.09Z"></path>
    <path data-name="4c" data-official="" data-plain="Ovaries" data-loc="" d="M1439.59,2689.82c8.18-5.46,10.09-16.91,8.28-26.58s-6.48-18.6-8.63-28.2c-2-9.11-1.88-19-6.53-27.09-3.37-5.88-9.16-10.55-10.63-17.17-1.17-5.29.76-10.92,4.1-15.17s8-7.33,12.72-9.91c16-8.69,34.72-12.69,52.73-10,8.31,1.24,17.16,4.47,21.24,11.82,2.26,4.05,2.74,8.85,2.64,13.48-.1,5-.85,10.08-3.12,14.54-2.18,4.29-5.66,7.79-8.19,11.88-5.43,8.78-6.17,19.56-6.76,29.87q-.48,8.33-.94,16.65c-.21,3.81-.41,7.69.5,11.39,1.42,5.69,5.31,10.38,8.11,15.53,4.87,8.95,5.81,21.45-1.78,28.25-4,3.59-9.53,4.86-14.85,5.51-8.87,1.07-17.84.77-26.77.47-5.12-.17-10.44-.39-15-2.73s-8.16-7.42-7.06-12.43Z"></path>
    <path data-name="4d" data-official="" data-plain="Seed" data-loc="" d="M1528.14,2704.28c-3.62-5.26-1-12.56,2.67-17.77s8.56-10,9.69-16.31c.9-5-.72-10-2.32-14.82l-9.11-27.26c-2.29-6.87-4.62-14-3.65-21.22,1.13-8.39,6.79-15.73,13.93-20.26s15.66-6.52,24.09-7.2c11.16-.91,23.3.71,31.56,8.25,7.07,6.45,10.17,16.2,11.37,25.68a85.82,85.82,0,0,1-4.33,39.53c-1.45,4-3.21,8-3.63,12.24-.66,6.59,1.93,13,3.8,19.36s2.94,13.59-.44,19.28c-3,5.1-8.91,7.73-14.6,9.4a80.25,80.25,0,0,1-53.37-3.06Z"></path>
    <path data-name="5" data-official="Zostera marina" data-plain="Sea Wrack-grass" data-loc="Shores, England" d="M874.77,715.17a4.62,4.62,0,0,0,1.76,1.22,5.63,5.63,0,0,0,2.55,0c2.19-.33,4.47-.7,6.26-2,1.26-.9,2.46-2.31,4-2.12a3,3,0,0,1,2.31,2.3,8.86,8.86,0,0,1,0,3.44,1,1,0,0,1-.29.68c-.26.21-.64.11-1,0a5.07,5.07,0,0,0-5.88,6.84,1.79,1.79,0,0,0,.52.77c.65.52,1.6.16,2.43.24a7.41,7.41,0,0,1,2.72,1.39,10.9,10.9,0,0,0,4.67,1.06l0,.69-.1,12.54c-.54-1.33-2.53-1.55-3.66-.66a4.89,4.89,0,0,0-1.55,3.86c0,1.43.26,2.87.16,4.3-1.33-.27-2.59.8-3.19,2a8.14,8.14,0,0,0-.37,5.57,23.9,23.9,0,0,0,2.26,5.22l-.95,5.1-2.81,1.7c-2.62,5.51-6.5,10.3-10.06,15.25a161.08,161.08,0,0,0-23.16,46.41L845,832.28c-.93-6.8-2.17-14.21-7.3-18.77a6.76,6.76,0,0,1-1.94-2.16c-.5-1.19-.11-2.54,0-3.83.22-3-1.31-5.92-1.92-8.92a30.07,30.07,0,0,1,.07-9.18l3.67-6.12c4.11-4.72,6.73-10.52,9.2-16.27,6.84-15.9,13.06-32.26,23-46.42Zm87.7-123c-3.35,11.42-13.93,19-20.33,29.07l-2.63,3.57-9.32,14.58c-2.13,3.33-4.26,6.66-6.62,9.82A130.44,130.44,0,0,1,913,661.42l-2.75,4a11.38,11.38,0,0,1,1.75,9.48,15.11,15.11,0,0,1,4,0,5.34,5.34,0,0,1,3.44,1.92,5.84,5.84,0,0,1,.82,1.75,9.26,9.26,0,0,1-1.34,8.47,6.9,6.9,0,0,1-8,2.09,15.63,15.63,0,0,1-.32,4.15,57.25,57.25,0,0,1,10.86.86,2.25,2.25,0,0,1,1.57.74,2.1,2.1,0,0,1,.28,1,15.86,15.86,0,0,1-1.11,7.94,7.24,7.24,0,0,1,4.85.77l3.07.27,3.54-3.65Q1004,619.21,1072.86,536l4.64-3.59A853.88,853.88,0,0,0,1231.38,280c8.92-22.8,16.9-46.19,19.92-70.49l2.06-4.46c6.06-24.74,8.73-50.18,11.38-75.52,1.6-15.3,3.21-30.72,1.93-46.05-1-11.34-3.46-22.49-6-33.58-1.5-6.66-3.14-13.6-7.61-18.75-2.94-3.4-7.32-5.87-11.79-5.4-4.87.53-8.84,4.44-10.85,8.91S1228,44.08,1227.6,49c-3,34.66-8.11,69.22-17.16,102.81-3.66,13.55-8,26.94-11.31,40.57-2.6,10.55-4.63,21.24-7.65,31.67-2.56,8.83-5.82,17.45-9.08,26.05l-12.56,33.16-1.4,5.77c-23.38,66.36-64.42,124.88-106.54,181.24q-17.19,23-34.75,45.75c-18.71,24.25-37.77,48.32-59.4,70Zm-141,7.21A49.45,49.45,0,0,1,818.8,611l-1.49,4.83c-3.25,8.45-3.14,17.81-2,26.8s3.11,17.86,3.53,26.9a3.27,3.27,0,0,0,.35,1.61,3,3,0,0,0,.89.84l2.78,2,1.23-7.67a9,9,0,0,1,6.07-8.35c1.2-.64,2.68-1.29,3.86-.61l5.07-5.55a456.15,456.15,0,0,1,23.11-52.11,53.67,53.67,0,0,0,4.73-10.9l4.92-4.41a19.19,19.19,0,0,1,4-7.83c-2.76-1.36-2.84-5.23-2.28-8.25a13.36,13.36,0,0,1,1.66-4.86c.73-1.13,1.76-2.06,2.44-3.22,1.39-2.37,1.13-5.31,1.22-8.05.13-4.25,1.29-8.64,4.2-11.73a11.16,11.16,0,0,1,5.47-3.15l4.6-6.11a307.73,307.73,0,0,1,26.15-55.25c7.9-13.14,16.8-25.71,23.74-39.38a249.76,249.76,0,0,0,12.19-29.27,625.31,625.31,0,0,0,36.21-230l-.75-5.53A107.25,107.25,0,0,0,983.06,113c-3.07-7.06-6.93-13.9-8.31-21.47-2-11.11,1.53-22.8-1.24-33.76-1.37-5.44-5.11-11-10.69-11.63-5.24-.56-9.82,3.44-13.05,7.6-10.6,13.62-14.55,31.4-14.78,48.65s3,34.34,5.18,51.45c16.15,124-17.72,249.69-68.26,364L869.56,522c-4.68,6.62-8.2,14-12.13,21.07-4.27,7.7-9,15.11-13.81,22.52l-16.81,26.13Zm-37.11,541.16a854.66,854.66,0,0,1,13.56-162l.06-5.6c-1.4-.7-1.8-2.53-1.66-4.09s.67-3.11.44-4.66l.47-3.84q2.21-13.47,3.75-27.06c.72-6.34,1.4-12.89,4.5-18.47,2.63-4.72,6.8-8.37,11.1-11.64a11.73,11.73,0,0,0,3.47-3.44,11.11,11.11,0,0,0,1-3.36l1.94-9.9,1.46-4.79-.88-55.18c0-1.93-.12-4-1.36-5.52-1.74-2.07-4.88-2-7.58-1.81l-1.88,4.33c-3.19,17.95-11.1,34.64-17.64,51.66C789,891.34,783.94,908,778.91,924.6l-3.21,8c-3.73,10.84-5.56,22.22-7.37,33.54-4.68,29.2-9.37,58.58-8.88,88.15l-1.23,5.75q-4.9,81.93-3.48,164.06l-.46,4.14c.15,14,.43,28,2.78,41.75l-2,4c2.53-.63,5.17,1.13,6.4,3.43s1.35,5,1.39,7.63a124.54,124.54,0,0,1-2.34,26.77l1.51,1.94c.66.8,1.92.43,2.94.52a3.12,3.12,0,0,1,2.75,2.91c0,1.07-.36,2.47.59,3a1.35,1.35,0,0,0,1.44-.26,3.78,3.78,0,0,0,.87-1.28,36.65,36.65,0,0,0,2-5.28c1.52.49,2.29,2.25,2.27,3.84a18.77,18.77,0,0,1-1.1,4.64,19.29,19.29,0,0,0-.73,6.18c.09,2.22.48,4.74-1,6.42a6.34,6.34,0,0,0-1.34,1.55c-.33.79,0,1.72-.3,2.54a4,4,0,0,1-2,2l-2.59,1.52a4,4,0,0,0-1.44,1.18,9,9,0,0,0-.67,2.13c-.64,1.9-2.64,2.94-3.9,4.49a24.52,24.52,0,0,0-2.38,4.68c-.79,1.57-2.06,3.11-3.8,3.35l-4.31,12.41a170,170,0,0,1-19,61l-.71,5.52a15.75,15.75,0,0,0,5.63,7.37,3.3,3.3,0,0,0,.58,4.14,9.71,9.71,0,0,0,4,2.08,60.75,60.75,0,0,0,8.85,2.44l6.94.22v-4.18c8.86-21.49,16.22-43.69,20.34-66.57,1.62-9.06,2.74-18.2,4.31-27.27,1.61-9.31,3.7-18.54,5.3-27.85,3.75-21.82,4.81-44,5.87-66.13l-1-4.87a454.1,454.1,0,0,0-1.06-54.09l-1-8.15a3.81,3.81,0,0,1-2.64-2.41c-1.33-2.86-1.18-6.16-1-9.3.55-8.69,1.3-17.39,2.48-26Zm255.2,462.75c-1.71-3.58-.48-8.61,3.17-10.17l-4.91-2.51c-18.44-73.53-48.37-145-53.17-220.63l.49-5.29c0-35.26-4.73-70.4-4.31-105.66.46-39.12,7.23-77.85,14-116.38l2.78-6a19.29,19.29,0,0,1-4-8.19c-.91-4.27-.34-8.7.24-13,.36-2.65.77-5.43,2.36-7.58l4.11-7.76c3.1-16.63,3.09-33.65,3.07-50.56a73.62,73.62,0,0,0-.53-10.71c-.49-3.38-1.45-6.67-2-10-1.44-8.1-.76-16.53-2.86-24.48-1-3.62-3-7.52-6.59-8.41-2.67-.65-5.54.61-7.46,2.57a20.31,20.31,0,0,0-4.06,7.12c-4.84,12.53-6.78,26-10.24,38.93-3.41,12.76-8.3,25.16-10.35,38.21-1.62,10.3-1.47,21-5.34,30.72l-.82,6.78c-1.92,9.24-3.76,18.5-4.9,27.87-1,8.4-1.46,16.86-1.9,25.31l-1.74,33c-1.4,26.59-2.8,53.24-1.25,79.81l.19,3.32,1.46,37.25c.37,9.52.75,19,1.92,28.5,3.93,31.75,16.71,61.81,21.68,93.41l.93,4.68q3.71,38.84,7.84,77.64a147.71,147.71,0,0,0,3.17,20.42c1.63,6.51,4.14,12.77,5.94,19.23a184.69,184.69,0,0,1,4.22,21.52l1.91,3.95,10.5,43.65c2.89,12,5.77,24,7.95,36.16,3,16.68,4.62,33.58,6.08,50.46,2,23.57,3.69,47.18,4.31,70.83l1,5.31q2.16,32.82,2.73,65.72a165.55,165.55,0,0,1-.54,20.17,173.07,173.07,0,0,1-3.37,18.6l-9.46,43.22,0,4.83a194.58,194.58,0,0,1-12.05,46.06c-3.36,8.46-7.34,16.75-9.19,25.66a102.51,102.51,0,0,0-1.68,17,600.38,600.38,0,0,0,2.35,80.46l2.25,5.12c.74-.53,2-.84,2.44-.07a1.63,1.63,0,0,1,.22.64l3.11,14.66a10.44,10.44,0,0,1,.34,2.83c-.17,2.69-2.3,4.79-4.28,6.61l-1.8,1.14a51.71,51.71,0,0,1-8-8.23,2.11,2.11,0,0,1-.49-.89,2.18,2.18,0,0,1,.2-1.14q1.69-4.7,3.55-9.35l-3.66-1.36L982,2130l-2.88-3.48-2.33,2.16-11-14.58a17.16,17.16,0,0,1-4.4-14l.1-6.34-1.1-4.5a46.66,46.66,0,0,0-4.11-9.08,8.59,8.59,0,0,0-2-2.5,3.38,3.38,0,0,0-3-.74,3.82,3.82,0,0,0-2.31,2.93c-.29,1.27-.21,2.59-.39,3.88a9.75,9.75,0,0,1-1.23,3.6l-2.28-.67c-6.6-10.42-11.47-21.82-16.32-33.16-1.09-2.54-2.19-5.19-2-8,.21-4.23,3.25-7.72,4.83-11.65a17.56,17.56,0,0,0,1.14-8.33l-3.71-7.07-7-40.44c-2.57-14.83-5.16-29.75-10.37-43.87-.76-2-1.63-4.17-3.32-5.57a10.15,10.15,0,0,0-5.53-2c-6.88-.72-14.87,3.08-16,9.9-4.24-4.86-5.47-11.55-7.16-17.77-6.48-23.86-21.93-45.67-22-70.39l.07-5.23a151.35,151.35,0,0,1-13.1-34.84L840,1805l-3.75.74c-10.35-23.44-7.19-50.67-14.58-75.2-1.38-4.57-3.14-9.12-3.22-13.89-.06-3.53.8-7,1.51-10.51l-3.67-8.66q-5.79-19.71-10.7-39.67l-2.75-4.51a7.91,7.91,0,0,1-1.2-4.55l-4.18-11.51C793,1606,779.13,1577,765.48,1548.59c-3.57-7.44-7.18-14.94-12.19-21.5a105.23,105.23,0,0,0-14-14.36c-2.9-2.6-6.6-5.33-10.33-4.21-3.13.94-4.92,4.39-5.07,7.65s1,6.43,1.89,9.56a82,82,0,0,1,3.1,16.87c.4,5.31.29,10.65.88,15.93a60.84,60.84,0,0,0,7,22.21l2.22,5.91a6.87,6.87,0,0,1,5.56-.11c2.38,1.21,3.24,4.23,3.17,6.9a26.54,26.54,0,0,1-1.31,7l4.67,8.65q22,43.74,41.36,88.7l-14-14.12c-3-3-6-6.06-8.84-9.25-10.39-11.74-18.2-25.48-25.93-39.12l-1.9-5.33-1.93,2.1c-1,1.59-3.05,2-4.46,3.22a9.68,9.68,0,0,0-2,2.79l-2.29,4.08a29.77,29.77,0,0,0-3.25,7.21,10.15,10.15,0,0,0,.81,7.67c1,1.62,2.62,3,2.54,4.93l-.83,6.83,2.7.49a332.25,332.25,0,0,0,36.67,55.11c9.45,11.51,19.78,22.55,26.45,35.86,16.77,33.45,7.91,75.8,26.25,108.41l2.6,5.84c.85-.37,1.77.3,2.42,1,7.34,7.33,9.69,18.09,13.39,27.78,2.09,5.51,4.72,10.85,6.1,16.58,2.3,9.55,1.08,19.94,5.05,28.93l4.15,5.63c1.5,13,9.6,24.75,10.28,37.85.18,3.45-.17,6.91.05,10.36.46,7.1,3.29,13.81,6.26,20.27a415.64,415.64,0,0,0,25.47,47.31l3.53,1.83a8.5,8.5,0,0,1,10.71,1.55,18.1,18.1,0,0,1,1.38,2l8.4,13.39-2.25,6.48c.27,2.24-.33,5,1.47,6.37,2.17,1.63,5.27-.69,7.92-.12,1.69.37,2.89,1.83,3.94,3.21l10.22,13.36.27,8.94a94.22,94.22,0,0,0,7,12.58l4.66,3.86a10,10,0,0,1,7.39,2.4,34.18,34.18,0,0,1,5.34,5.91,158.81,158.81,0,0,0,21.12,22.18l.43,13.52,3.37,5a145.69,145.69,0,0,0,22.08,38.55c3.06,3.84,6.32,7.52,9.58,11.2l17.73,20,3.91,4.35,3.71-2.59,5.94-3.2a173.45,173.45,0,0,1,21.47,32.42l-.76,6.06-1.45,9.95-1.53,8.17,4.25,5.24c19.82,37.87,40,76.64,46.31,118.92,1,6.68,1.75,13.69,5.38,19.39a25.46,25.46,0,0,1,3,5.14c2,5.73-2.79,11.3-6.1,16.39a38.8,38.8,0,0,0-6.2,20.13c-.11,5.07,1.11,10.67,5.21,13.65,4.9,3.54,11.71,1.95,17.38-.14,8.18-3,17-7.92,18.9-16.44,1.38-6.28-1.41-13.39,1.74-19,1.34-2.38,3.6-4.11,5.24-6.31,3.09-4.14,3.77-9.68,3-14.79s-2.78-9.94-4.68-14.74c-11.46-29-19-59.34-28.9-88.86s-22.64-58.72-42.93-82.36l-6-3-4.39,1.37a214.86,214.86,0,0,0-23.7-30.45l-.6-8.5-3.54-6.85-25-34.65c-2.39-3.31-4.82-6.69-6.08-10.58a41.65,41.65,0,0,1-1.49-9.64,315.16,315.16,0,0,0-5.18-36.84l-4.21-3.87-2.57-2a57.9,57.9,0,0,1-2.12-24.47l3.47-3.6.8-5.86q-.62-12.53-.28-25.08a67.36,67.36,0,0,1,.87-10.44,72,72,0,0,1,2.87-10.16c3.57-10.52,7.33-21,11.09-31.43l6-13a165.57,165.57,0,0,1,6.46-22.33q7.73-22.51,16.12-44.78l6.72-22.57a76.51,76.51,0,0,0,4.06-20.14l.28-8.52a37.94,37.94,0,0,1,.73-21.78,4.45,4.45,0,0,1,.73-1.48,3.63,3.63,0,0,1,3.87-.69v-5.21a673,673,0,0,0-28.74-240.43ZM777.5,858.77c6.79-33.29,15.71-66.12,22.28-99.46l3.68-4.4a126,126,0,0,1,.59-17.69l.82-4.05a27,27,0,0,1,8.71-22.35l.76-2.77c1.93-12.7-.33-25.62-2.58-38.27l-3.85-21.59a5.7,5.7,0,0,0-.47-1.67,5.57,5.57,0,0,0-1.2-1.46,26.19,26.19,0,0,0-7.82-5L797,645.16c-5.17,17.14-15,32.44-22.4,48.74-8.59,19-13.85,39.21-19.07,59.36l-3.22,5.12q-11,44.14-23.62,87.88c-2.95,10.25-6,20.53-10.37,30.26a88.31,88.31,0,0,0-6-25.1,2.89,2.89,0,0,0-3.52-2.34l-18.29.86c-1.26-35.52,5.42-70.91,5.11-106.45l.74-5.32c8.33-98.26,16.67-196.95,10.63-295.38l-.2-6.2c-1.45-29.4-9.09-58.13-17.85-86.23-4.8-15.42-10-30.87-18.31-44.74s-20-26.17-34.77-32.62-33-6.32-46.36,2.71c-3.14,2.11-6.13,4.91-7,8.59-1.32,5.38,2.3,10.88,6.84,14.05s10,4.76,14.87,7.38c12.91,6.93,20.83,20.42,26.82,33.79,14.19,31.66,21.21,66.16,24.29,100.72s2.33,69.33,1.57,104l.66,4.7q-4,128.12-13.2,256l.59,6q-3.29,108.22,0,216.51l1.38,6c.67,15.38,1.38,31,6,45.65,1.83,5.83,4.27,11.5,5.32,17.51a63.33,63.33,0,0,1,.67,12.08c-.3,13.53-2.27,27-3.41,40.43-1.51,17.8-1.55,35.69-1.6,53.56l.74,7L650.72,1338c-17.93-31.31-23.11-68.11-27-104q-8.81-81.7-10.83-164l-1.15-5.16c-4.86-109.33-33.63-216-62.23-321.63l-.6-5.94c-12.1-71-24.5-143.08-55-208.36-3.47-7.42-7.38-15-13.9-20s-16.34-6.53-22.77-1.44c-7.42,5.88-7.1,17.08-5.74,26.45,3.53,24.25,9.46,48.09,15.89,71.74,19.84,72.85,44.76,145,50.95,220.29l.6,4.84a438.49,438.49,0,0,0,9.21,66.79c7.89,36.32,20.35,71.46,30.59,107.18s18.28,72.58,17,109.72l1.52,6q.21,32.63,1.28,65.25c.26,7.91.56,15.84,1.51,23.69,4,33.49,19.69,64.53,26,97.66l.31,3.43,5.16,1.79a12.62,12.62,0,0,1,5.15,2.26,8.32,8.32,0,0,1,3.1,4.61,5.8,5.8,0,0,0-3.79.79l-6.06,9.38,4.07,1.76c4.56,13.45,11.74,25.83,18.88,38.1a111.51,111.51,0,0,0,8.39,13,99.75,99.75,0,0,1,6.23,8c3,4.7,4.38,10.19,5.74,15.59l4.14,10.16,1.79,2.78c0,7.33.35,14.66,1,21.95l-3.45.16-3.72,4.14c.37,7.7.78,15.58,3.8,22.67l4,2.85c.47-.69,1.25-1.46,2-1.12l2.6,2.24a52.56,52.56,0,0,0,1.23,11.23l1.57,8.53-3,17,1.29,7.11q1.92,15,5.11,29.85l-1.18,3.21,3.32,2c3.11,1.68,5.09,4.83,6.84,7.9q4.41,7.74,8,15.88a8.84,8.84,0,0,0,2.42,3.68c1.85,1.39,4.56,1,6.51-.18a17.21,17.21,0,0,0,4.63-5.08c.86,3.46,1.71,7,1.14,10.55s-3,7-6.44,7.72l.17.39a47,47,0,0,0,3.7,11.18,25.89,25.89,0,0,1,2.36,4.78,5.08,5.08,0,0,1-.91,5,7.14,7.14,0,0,1-3.43,1.52l.18,3.8a35,35,0,0,0,7.27,12.49l2.28,3,5.17-.1a21.56,21.56,0,0,0,5-14.15c1.86.31,4.07,0,5.12-1.55.8-1.17.71-2.7.72-4.12a24.17,24.17,0,0,1,1.78-8.92l-3.21-1.85A267.39,267.39,0,0,0,711,1561c-1.74-4.6-3.64-9.29-3.64-14.2s1.86-9.47,3.68-14c2.78-6.87,5.58-13.76,9.34-20.15,7-11.89,17.32-22.24,20.42-35.66l2.59-4.77a14,14,0,0,1-3.18-2.13c-2-2-2.24-5.22-3.7-7.69a8.82,8.82,0,0,0-10.35-3.63l-11,3.31-1.12,6q-11.4,18.94-21,38.87c-1.33-1.09-1.74-2.92-2.06-4.62l-6.31-33-3.11-3.37-3.65-.82a223.22,223.22,0,0,1-1.75-31.33,20.89,20.89,0,0,1,1.11-7.6l4.75-.49-.4-4-.06-142.57c0-3.14,0-6.43,1.59-9.15,1.27-2.23,3.41-3.8,5.34-5.5,6.85-6,11.47-14.14,15.94-22.09q5.52-9.78,11-19.57l4.33-4.25,13.31-33.4,3.68-2.61c8.52-29.54,3.1-61.23,7.06-91.72.61-4.69,1.44-9.37,1.39-14.09l1.76-4.71c-.79-26.7,2.91-53.3,6.61-79.76l8.91-63.81c1.72-12.38,3.46-24.79,6.64-36.87,2.28-8.61,5.28-17.06,6.52-25.88Z"></path>
    <path data-name="5a" data-official="" data-plain="Section of Sheath" data-loc="" d="M1626,2705.94c2.79-9.83,12.29-16.43,15.92-26,3.39-8.91,1.16-18.87-1.36-28.07-5.15-18.74-11.44-37.27-14-56.53-1.29-9.57-1.64-19.23-2-28.88l-4.11-111.65c-.22-6-.12-12.82,4.32-16.85,2.85-2.59,6.87-3.38,10.68-4a259.6,259.6,0,0,1,42.69-3.16c8.33.07,17.43.86,23.44,6.63,4.87,4.67,6.66,11.8,6.59,18.54s-1.76,13.36-2.84,20c-1.8,11.09-1.9,22.38-1.89,33.62,0,46.8,1.85,94.6-12,139.31-1.64,5.3-3.53,10.76-2.82,16.26,1.45,11.21,13.15,19.33,13.66,30.63.38,8.71-6.42,16.45-14.41,19.94s-17,3.64-25.71,3.74l-25.66.27c-4.29.05-9.3-.26-11.72-3.8Z"></path>
    <path data-name="5b" data-official="" data-plain="Ovary" data-loc="" d="M1717.94,2694.81c3-12.23,6-24.65,5.59-37.23-.26-7.61-1.77-15.11-3.16-22.6-5.44-29.19-8.95-60.4,2.76-87.69,2.93-6.84,6.78-13.29,9.37-20.28,7.2-19.38,4.19-40.82,2.6-61.43-.24-3-.43-6.18.43-9.11,1.73-5.9,7.52-9.89,13.51-11.25s12.25-.58,18.34.22c2.35.3,4.88.7,6.51,2.41a9,9,0,0,1,2,4.62c1.85,9.76-1.1,19.73-1.35,29.65-.37,14.55,5,29.27,1.69,43.43-1.29,5.47-3.88,10.81-3.39,16.4.51,5.82,4.26,10.8,6.16,16.33,4.37,12.69-1.36,26.45-1.6,39.87-.21,11.56,3.7,23.1,2,34.53-1.1,7.43-4.55,14.59-4,22.09.37,5.06,2.54,9.79,4.32,14.55,2,5.3,3.52,10.88,3.29,16.54s-2.43,11.42-6.84,15c-2.87,2.31-6.45,3.54-10,4.5a87.51,87.51,0,0,1-43,.6c-2-.48-4.28-3-2.49-3.94Z"></path>
    <path data-name="5c" data-official="" data-plain="Seed" data-loc="" d="M1790.07,2615.36c-.19-9.57-.37-19.15,0-28.71.43-11.8,2.33-24.84,11.39-32.42s22.49-7.12,34.37-5.71c3.65.43,7.38.94,10.63,2.66,8,4.29,10.6,14.48,11.77,23.53a227.36,227.36,0,0,1-1.54,68.25c-1,5.89-2.29,12-.7,17.76.81,2.94,2.33,5.63,3.52,8.44a40.15,40.15,0,0,1,3.15,15c.06,4.53-.75,9.27-3.51,12.86-3.31,4.3-8.8,6.22-14.06,7.52a108,108,0,0,1-25.57,3.13c-5.31,0-10.74-.41-15.6-2.55s-9.11-6.26-10.2-11.46c-1.88-8.9,5.58-17.14,6.31-26.21.64-7.9-3.84-15.17-6.54-22.63a52.44,52.44,0,0,1-3-21.14"></path>
    <path data-name="5d" data-official="" data-plain="Anther and Pollen" data-loc="" d="M1790.19,2521.48c3.9-2.14,3.3-8.16.65-11.73s-6.67-6-8.89-9.88c-1.94-3.36-2.28-7.39-2.35-11.27a104.29,104.29,0,0,1,2.57-25c.88-3.82,2-7.78,1.07-11.59-1-4.14-4.13-7.38-6.07-11.16-2.72-5.33-3-11.55-2.91-17.53.12-19.52,2.57-39.37,10.63-57.16a45,45,0,0,1,8.58-13.34c4.19-4.22,9.61-7.1,13.57-11.54s6.5-10.39,11.82-12.94c5.77-2.77,12.91-.32,17.61,4s7.56,10.25,10.68,15.83c9.59,17.21,22.53,32.92,28,51.86,6.92,24.12.7,49.76-1.36,74.78-1.36,16.6-1,33.87-7.85,49-2.81,6.22-7.22,12.23-13.67,14.46-3.3,1.14-6.87,1.19-10.36,1.24l-29.76.34c-4.58.05-9.25.09-13.62-1.28s-8.46-4.41-9.9-8.76Z"></path>
    <path data-name="6" data-official="Ouviranda fenestralis" data-plain="" data-loc="Madagascar" d="M1282.33,2262.19c-9.57,21.24-19.17,42.55-26,64.83-6.38,20.82-10.36,42.55-19.89,62.13-4.72,9.71-10.77,18.8-14.43,29a67.08,67.08,0,0,0-3.38,31.06l.84,8.45c-.44,7.65,8.87,12,11.82,19.09,3.13,7.49-1.55,16.06-.37,24.09a7.7,7.7,0,0,0,2,4.57,8.5,8.5,0,0,0,3.78,1.79,29,29,0,0,0,31.12-12.83c4.79-8,5.33-17.78,4.95-27.08a18,18,0,0,0-1.34-7.15c-3.18-6.55-12.72-7.7-16.35-14-2.49-4.31-1.35-10,1.74-13.95s7.78-6.23,12.54-7.71c15.69-4.86,32.56-1.61,49-1.24a138.35,138.35,0,0,0,55.72-10.39c8.3-3.43,16.25-7.66,24.18-11.88l52.6-28,8.58-5.6c87.31-67,155.64-156.92,204.91-255.35,1.08-2.14,2.24-4.4,4.28-5.67,2.31-1.43,5.23-1.28,7.93-1,17,1.69,35,7.18,44.78,21.17,3.37,4.84,5.55,10.43,9,15.23s8.7,8.92,14.59,8.64a18.44,18.44,0,0,0,8.84-3.3c12.44-8,19.25-22.19,25.45-35.63,7.5-16.26,15.15-33.16,15.19-51.06.06-30.19-23.21-57.58-51.91-66.94s-61.07-2.52-86.66,13.49l-10.44.36c-33.85,23.9-80.13,19.64-118.06,36.33l-5.13,3-7.84,8.19a899,899,0,0,0-90,48.94c-22.92,14.21-45.29,29.52-65.09,47.84s-37,39.76-48.23,64.29l-6.47,8.58c-.92,7.18-3.61,14.13-8.62,19.28-2.67,2.75-6.26,5-10.08,4.71Z"></path>
</svg>
