
<svg xmlns="http://www.w3.org/2000/svg" viewBox="0 0 1911 2819" id="illustration" preserveAspectRatio="xMidYMid meet">
    <title>Lycopodiaceæ</title>
    <path data-name="1" data-official="Lycopodium inundatum" data-plain="Marsh Club-moss" data-loc="Wet commons, England" d="M602.72,1889.49c-34.16-24.37-78.15-28.54-118.37-40.5-18-5.35-35.6-12.4-54.11-15.65a232.68,232.68,0,0,0-26.88-2.75q-36.89-2.1-73.85-.79c-7.68.27-15.51.64-22.9-1.44s-14.43-7.11-16.76-14.43l-2.35-6.16c-5.84-13.77-25-15.65-35.12-26.69-11.25-12.33-8-31.59-12.07-47.78-2.46-9.73-7.7-18.53-10.88-28-4.57-13.68-4.72-28.4-4.62-42.82.08-11.78.31-23.55.55-35.33.47-22.74,1.12-46,9.53-67.19,3.65-9.15,8.69-17.73,11.74-27.1s3.91-20-.74-28.74c-3-5.68-8.48-11.3-6.7-17.5.69-2.4,2.4-4.35,3.79-6.42a28.32,28.32,0,0,0,3.23-24.81l-1.59-7.46c-8.32-15.32-8.91-33.49-13.19-50.4s-14.79-34.67-32-37.64c-12.69-2.2-26.39,5.51-31.1,17.5-4.84,12.32-1.28,28.26-10.68,37.59-4.07,4-10.19,6.24-12.61,11.44-1.88,4.05-1,8.84-2,13.17-1.79,7.12-8.52,11.72-12.74,17.73-11.92,17-1.85,40.59-5.46,61-2,11.42-8.42,22.19-7.57,33.75.52,7,3.72,13.73,3.82,20.78.08,6.48-2.45,12.65-4.58,18.77a163.75,163.75,0,0,0-4,93.52c1.66,6.56,3.76,13.25,2.93,20-.6,4.88-2.73,9.51-3,14.42-.61,10.29,6.89,19.92,5.68,30.15-1.13,9.63-9.83,18.52-6.76,27.72,1.28,3.85,4.42,6.74,6.63,10.15,4,6.18,4.8,13.84,7.23,20.79A46.21,46.21,0,0,0,145,1832.65l.74,6.22c-.77,14.15,10.36,25.7,16.94,38.26,1.38,2.63,2.6,5.54,2.24,8.49a14.74,14.74,0,0,1-3.11,6.63,58.94,58.94,0,0,1-39.17,23.42c-11.48,1.58-23.1-.3-34.63-1.39-9.63-.91-21.61,0-25.66,8.81-2.28,4.94-1,10.94,1.9,15.55s7.22,8.11,11.46,11.52c6.92,5.57,13.88,11.17,21.48,15.77,8.52,5.16,17.75,9,26.93,12.85,26.94,11.24,55.07,22.7,84.2,20.93l10.64,3.89a125.88,125.88,0,0,1,35,3.06c3.16.74,6.56,1.77,8.43,4.42,3.93,5.59-1.56,13.07-1.18,19.88.34,6.27,5.89,11.27,11.91,13s12.46,1,18.69.2,13.39-2.11,16.71-7.49,1.45-12.39,4-18.07c3.48-7.87,13.44-10,22-11.1q38.18-4.8,76.55-7.74a10.34,10.34,0,0,1,4.26.28c5.57,2,3.74,10.1,3.7,16-.08,11.48,13.32,20.78,24,16.69,5.93-2.27,10.19-7.49,15.63-10.78s13.85-3.78,16.93,1.77c2.85,5.15,0,13.54,5.34,16.1a15.94,15.94,0,0,0,4.26.91c8.68,1.53,13.35,10.66,18.61,17.72s16.06,12.84,22.25,6.56c2.33-2.37,3.15-5.81,3.78-9.08a178.45,178.45,0,0,0,2.76-46.42c-.62-8.61-1.85-17.38.21-25.76s8.41-16.44,17-17.33c5.78-.6,11.33,2.07,16.62,4.47a231.89,231.89,0,0,0,84.85,20.43c10.28.48,22.9-1.18,26.84-10.69,2.58-6.22.17-13.31-2.6-19.45a167.61,167.61,0,0,0-54.67-66.72Z"></path>
    <path data-name="1a" data-official="" data-plain="Spore-case and leaf" data-loc="" d="M117.21,2684.27c3.18-7.69,1.57-16.64-2-24.16s-8.89-14-13.53-20.94C90.83,2623,83.58,2602.94,88,2583.91c.92-4,2.48-8.09,5.66-10.69s8.35-3.11,11.23-.18c3.31,3.36,2.1,8.89,3,13.53,1,5.22,4.89,9.46,9.25,12.5s9.3,5.14,13.82,7.93a53.92,53.92,0,0,1,23.81,32.53,8.24,8.24,0,0,0,1.08,2.87c1,1.43,2.84,2,4.48,2.61,7.84,3.06,13.49,10,17.9,17.15,4.74,7.68,8.41,17.87,3.35,25.34-1.1,1.64-2.56,3-3.66,4.63-4.87,7.2-1.83,17.31-5.36,25.25-4.14,9.33-15.68,12.59-25.86,13.31A109.83,109.83,0,0,1,118,2729c-1.69-.32-3.49-.76-4.61-2.06a7.4,7.4,0,0,1-1.34-4.55,44,44,0,0,1,6-24.32Z"></path>
    <path data-name="1b" data-official="" data-plain="Spore-case, opening" data-loc="" d="M189.25,2719.41c-1.19-10.78,10-20.41,7.8-31-.93-4.48-4.12-8.1-6.28-12.14-3.85-7.22-4.36-15.7-4.78-23.87-.3-5.71-.38-12.07,3.45-16.32,3.27-3.63,8.5-4.64,13.36-5.23a162.55,162.55,0,0,1,19.85-1.16c11.57,0,24.74,2.24,31.06,11.94,4.88,7.49,4.14,17.18,3.22,26.07-.33,3.1-.67,6.27-2,9.09-1.84,3.95-5.41,6.85-7.5,10.67-5.44,10,0,24.35-8,32.48-3.48,3.58-8.67,4.82-13.61,5.59a119.37,119.37,0,0,1-32.37.6Z"></path>
    <path data-name="2" data-official="Lycopodium acrostachyum" data-plain="Parasitic Club-moss" data-loc="Singapore" d="M1133.33,1147a84.18,84.18,0,0,0,39.13,6.28l.9,2.54-2,12.82-1.68,2c-6.45-.14-12.64-2.36-18.7-4.55l-18.25-6.61-2.13-3.62a11.73,11.73,0,0,1-.64-5.81Zm75.6-162c5.92-22,13.79-43.35,21.65-64.7l77.65-210.93c8.26-22.45,16.59-45,28.66-65.69,11.87-20.31,27.57-39.32,32-62.42,1.56-8.1.85-18.07-6.2-22.35-3.76-2.28-8.54-2.32-12.78-1.17-14.19,3.81-22.18,18.32-29.53,31-20.35,35.19-47.41,66.33-65.76,102.6-10.61,21-18.15,43.36-28.61,64.4-9.82,19.77-22.16,38.25-31.07,58.44-7.72,17.48-12.77,36-17.52,54.54q-16.54,64.45-28.78,129.93c-4.27,22.84-8.16,46-7.29,69.19l2.74,3.3a141.07,141.07,0,0,1,19.6-3c8.37-.69,17.32-.78,24.29-5.49l3-3.67a172.27,172.27,0,0,0,8.66-23.84c2.19-7.77,3.83-15.68,5.32-23.61,1.27-6.76,2.43-13.54,3.59-20.32Zm-707,815.1q12.06,8.63,24.46,16.77c9,5.9,18.11,11.64,28.06,15.67,12.8,5.19,26.59,7.41,40.24,9.51,36.15,5.55,72.78,10.53,109.19,7.17s73.07-15.79,99.55-41L807,1804l8.59-25.85.93-6.62a30.14,30.14,0,0,1,1.58-3.23,4.93,4.93,0,0,0,.49-3.49,2.35,2.35,0,0,0-2.77-1.67,64.19,64.19,0,0,0,11-7.59l4.41-4.2a136.17,136.17,0,0,0,8.49-17.69,9.75,9.75,0,0,0,.94-4.25,3.46,3.46,0,0,0-2.52-3.23c3.63-5.84,7.44-11.88,13.23-15.6,2.92-1.88,6.48-3.3,8-6.42l3.52-1.78c4.71-4,6.84-10.19,8.19-16.21s2.15-12.27,5-17.73c1.59-3,3.77-5.71,5.35-8.74a51.11,51.11,0,0,0,3.52-9.8c3.28-11.58,6.58-23.23,7.73-35.2.5-5.12.59-10.27.69-15.42l1.07-57.4,6.26-2.2c22.89,1.6,46.39,3.13,68.34-3.57,9.73-3,18.91-7.51,27.76-12.53,45.37-25.78,82.21-64.5,113.15-106.52a246.09,246.09,0,0,0,18.79-28.76c12.37-22.91,18.68-48.56,23.37-74.17l1.18-3.85a24.81,24.81,0,0,0-1-9.8l-3.51.15a77.89,77.89,0,0,1-13,1,26.13,26.13,0,0,1-12.51-3.3c-4.63-2.76-7.93-7.32-10.44-12.09a12.44,12.44,0,0,0-2.3-3.49,3.77,3.77,0,0,0-3.84-1l-5.25,3.5c-9.31,25.36-18.62,50.73-28.21,76-4.61,12.16-9.36,24.44-16.79,35.12-6.32,9.08-14.41,16.76-22.44,24.38-7.28,6.91-14.59,13.83-22.65,19.82-29.16,21.64-66.06,29.51-101.86,35.59-3.32.56-7.43.81-9.32-2-1.13-1.66-1-3.84-.89-5.84a146.43,146.43,0,0,0-7.1-54.66,17.17,17.17,0,0,1-1.23-5.74,14.64,14.64,0,0,1,1.95-6.16c8.69-17.09,23.45-30.12,36.44-44.22,46.64-50.62,72.41-119.91,70.16-188.71l.53-7.2A220.26,220.26,0,0,0,979.82,1031a278.7,278.7,0,0,0,45.25-98.37c5.12-21.38,7.68-43.27,10.23-65.11,5.84-50,11.68-100,14.23-150.29.22-4.22-.07-9.36-3.79-11.37a8.79,8.79,0,0,0-2.7-.86c-10.76-1.9-21.41,5.54-26.82,15s-6.75,20.69-8.13,31.53A1146,1146,0,0,1,961.2,960.37l-1.91-6.22C922.65,901,909.12,835.91,890,774.24c-7.48-24.17-15.93-48.09-21.64-72.74-5.12-22.12-8-44.69-10.63-67.23q-7.86-67.11-13-134.49c-.47-6.16-1-12.46-3.52-18.08s-7.68-10.49-13.83-11c-4.22-.32-8.36,1.44-11.78,3.92-13.5,9.8-16.09,28.54-17.31,45.18-2.86,38.72-4.55,77.66-1.17,116.34,9.14,104.77,54.65,202.26,92.07,300.54l3.76,7.82A405.56,405.56,0,0,0,919.66,1012c2.42,4.82,5,9.68,5.91,15,2.55,14.44-7.07,27.82-14.85,40.24-29.81,47.59-38,105.5-62,156.27,5.19-59.46,10.3-120-2-178.37C835,989.58,808.11,938.57,790.58,884.61c-2.2-6.79-4.48-14-9.82-18.71s-14.83-5.56-19,.27a17.62,17.62,0,0,0-2.46,6.65c-6.28,29.68-.86,60.61,7.34,89.83s19.18,57.75,24.31,87.65c3.88,22.62,4.35,45.67,4.56,68.62q.5,53.37-.79,106.73l1.08,6c-13.76,50.12-10.84,103.23-19.33,154.5-.44,2.68-1,5.46-2.64,7.59a13.57,13.57,0,0,1-5.75,3.89c-9.4,3.9-19.91,3.83-30.09,3.71-9.7-.12-19.42-.24-29.07-1.17-14.7-1.42-29.15-4.71-43.55-8a10.67,10.67,0,0,1-4.69-1.9,17.9,17.9,0,0,1-2.21-2.68c-6.53-8.27-19.36-5.84-29.64-8.16-11.62-2.62-20.46-11.8-28.38-20.69q-25.89-29-49.26-60.17l-1-5.74C494.67,1234.39,469,1154.45,445,1077.39c-6.72-21.67-13.46-43.44-16.89-65.87-3.48-22.81-3.5-46-5.48-69-3.41-39.56-12.59-78.37-21.75-117l1.15-9.59c-16.34-36-12.33-77.47-16.79-116.76-2.17-19.22-6.44-38.15-9.08-57.32-6.74-48.8-2.93-98.52-8.33-147.49C363.63,456,353.78,418.46,344,381.1l.72-7a851.17,851.17,0,0,0-47.5-119.71,273.14,273.14,0,0,0-14.66-27c-8.67-13.63-19.32-25.89-29.92-38.08L229.77,163c-6.61-7.62-13.26-15.26-20.94-21.8-9.53-8.11-20.47-14.38-31.6-20.07l.46-4.28a322.17,322.17,0,0,0,35.35-42c4.43-6.27,8.73-12.95,10-20.52s-1.26-16.27-7.88-20.16c-5-2.93-11.36-2.62-16.74-.48s-9.92,5.9-14.24,9.74a5.5,5.5,0,0,1-3.36,1.79c-2.36,0-3.56-2.83-3.88-5.17-.75-5.6,0-11.4-1.57-16.82s-6.76-10.53-12.24-9.21c-2.69.66-4.84,2.71-7.46,3.62-7.17,2.48-14.1-4.07-21.51-5.67-8.63-1.86-17.11,3.14-24.46,8-8.23,5.46-17,11.84-19.54,21.38-1.21,4.51-1,9.63-3.86,13.32-7,9-24.14,1-31.7,9.59-4.34,4.91-2.87,12.56-.43,18.64s5.68,12.53,4,18.88c-1.22,4.74-5,8.4-6.93,12.88-2.39,5.46-2,11.66-2.38,17.61S47,144.77,42.06,148.18c-2.48,1.74-5.52,2.44-8.38,3.46a37.39,37.39,0,0,0-17.44,57.48l6,.48c18.71-2.33,41.36-3,52.27,12.33,6.26,8.81,6.5,20.55,4.91,31.25a110,110,0,0,1-15.17,41.41c-5.49,8.87-12.55,18-11.53,28.41,1.33,13.54,17,22.1,30.47,19.92s24.3-12.12,32.58-22.92c23.93-31.18,32.42-71.36,37.26-110.37C202,246.23,225.57,306.71,246.84,364c11.16,30,22.38,60.32,27.57,91.94,3.78,23,4.3,46.48,5.36,69.8a1498.85,1498.85,0,0,0,18.52,176.47l4.34,7.79c11.63,56.74,18.61,114.31,25.53,171.82,6.2,51.44,12.16,105-4.56,154-4.8,14.08-11.41,27.55-15.13,42-3.2,12.43-4.19,25.31-4.84,38.13-1.77,34.55-1.22,69.18-.67,103.78l2.65,10.67c-3.2,95.92,16.46,191,37.82,284.57,12,52.47,24.66,105.19,46.8,154.24s54.5,94.75,99.16,124.79Z"></path>
    <path data-name="2a" data-official="" data-plain="Spore-case and leaf" data-loc="" d="M262.3,2771.94a122,122,0,0,0,10.82-23.78c1.26-3.79,2.32-7.95,1-11.71-1.62-4.52-6.19-7.14-9.52-10.61-7.49-7.81-8.42-19.93-6.38-30.56s6.56-20.65,8.5-31.29c3.78-20.72-2.46-42-.62-63,.36-4.08,1.41-8.7,5-10.63,4.5-2.4,9.93.92,13.45,4.62,6.84,7.18,11.36,16.21,15.71,25.11q12.79,26.16,24.87,52.65c3.91,8.55,7.79,17.27,9.18,26.57s0,19.4-5.83,26.79c-1.86,2.37-4.16,4.45-5.49,7.16-2.11,4.29-1.42,9.45.16,14s4,8.71,5.39,13.29c2.26,7.53.79,17-6,21a23,23,0,0,1-7.49,2.39,142.69,142.69,0,0,1-42.07,1.53,17.29,17.29,0,0,1-6.7-1.76c-2-1.16-3.62-3.33-3.43-5.65Z"></path>
    <path data-name="2b" data-official="" data-plain="Stalk, magnified" data-loc="" d="M415.83,2572.28c3-.85,4.6-4.06,5.2-7.08s.52-6.22,1.69-9.08l3.35-3.81a13.7,13.7,0,0,0,13.38-.79,17,17,0,0,1,3.85-2.36l1.54,6.68c3.76,12.94.57,26.8-3.33,39.7-8.57,28.32-20.59,56.05-22.7,85.56-1.84,25.71,3.95,51.25,8.64,76.59,1.32,7.15,2.09,15.75-3.42,20.5-2.44,2.11-5.68,3-8.83,3.69a148.17,148.17,0,0,1-43.39,3.27c-5.18-.37-11.05-1.45-13.76-5.88l-.88-8c6.9-14.56,7.17-31.56,4-47.36s-9.71-30.7-16-45.55c-16.75-39.69-32.25-80-42.83-121.79-1.69-6.67-2.35-15.51,3.78-18.63,4-2,8.92-.27,12.64,2.26s7,5.83,11.3,7.25c-2.92-20.66-21.23-38.45-18.14-59.08l-4-7c6-2.64,12.25,2.35,18.06,5.33a31.07,31.07,0,0,0,14.86,3.41l-1.71,4.66c14,24.72,28,49.53,38.72,75.83,3.73,9.15,7.61,19.15,16.05,24.29,2,1.24,4.56,2.15,6.8,1.33a9,9,0,0,0,3.93-3.58,50.24,50.24,0,0,0,6.34-12.45Z"></path>
    <path data-name="3" data-official="Pilularia globulifera" data-plain="Creeping Pill-wort" data-loc="Wet commons, England" d="M370.94,2515.12c5.6,2.73,13.17-.16,18,3.75,3.34,2.7,3.88,7.51,4.27,11.79,1.25,13.87,4.08,28.67,14.11,38.32,2.3,2.2,5.43,4.18,8.49,3.3s4.6-4.06,5.2-7.08.52-6.22,1.69-9.08l3.35-3.81a13.7,13.7,0,0,0,13.38-.79,17,17,0,0,1,3.85-2.36c4-1.33,7.78,2.31,10.84,5.25,4.64,4.46,10.58,8.14,17,8a7.14,7.14,0,0,0,4.69-1.53c1.75-1.6,2-4.32,3.62-6.07s4.56-2.19,7-1.72,4.79,1.6,7.24,2.22a18.44,18.44,0,0,0,9.36-.07c2.53-.69,5.22-1.91,7.63-.9,2.88,1.21,3.66,4.8,4.72,7.74a16.7,16.7,0,0,0,6.86,8.77,11.43,11.43,0,0,0,10.86.61c3.75-1.94,5.88-6.09,9.46-8.31,3.86-2.4,8.91-2.16,13.15-.49l4.81,2.5c8.24,5.14,17,10.44,26.76,10.42,4.54,0,10-2.31,10.26-6.84.12-2.27-1.16-4.41-1.21-6.68a11.63,11.63,0,0,1,1.23-4.76c3.14-7.39,7.32-14.59,13.63-19.57s15.09-7.37,22.61-4.54c8.43,3.18,13.89,12.11,22.56,14.56,7.82,2.2,16.27-1.46,24.25.09,6.47,1.25,12.19,5.87,18.79,5.81a5.55,5.55,0,0,0,2.92-.68,8.79,8.79,0,0,0,2.44-3.24,15.43,15.43,0,0,1,11.88-7.52c6.9-.52,13.07,3.84,19.3,6.85s14.72,4.34,19.26-.88l4.19-3.26c2.68-3.49,5.63-7.18,9.85-8.45a21.48,21.48,0,0,1,7.16-.48l30,1.41c5,.23,10.27.52,14.75,2.83,4.1,2.12,7.17,5.73,10.49,8.92,5.43,5.23,12,9.62,19.33,11.11s15.7-.31,20.81-5.85c2.28-2.48,4-5.7,7.06-7.1,2.36-1.07,5.07-.85,7.66-.7a112.63,112.63,0,0,0,18.27-.41,7.18,7.18,0,0,0,3.94-1.24,6.81,6.81,0,0,0,1.89-4.18c.66-3.7.77-7.7-.92-11.06a24.91,24.91,0,0,0-4.79-5.87,114.42,114.42,0,0,1-26.24-42.39c-2.11-6.07-3.72-12.36-6.68-18.06-2.71-5.21-6.6-10.14-7-16l2.61-3.18c11.59,3.67,23.57,7.38,35.66,6.21,7.58-.74,14.83-3.37,21.82-6.37,3.67-1.58,7.55-3.52,9.36-7.08,1.55-3,1.25-6.69.61-10.05s-1.69-6.92-4-9.49c-3.93-4.3-10.39-4.93-16.21-5.06-7.73-.19-15.49,0-23.16-1s-15.35-3.21-21.62-7.73a6.58,6.58,0,0,1-1.91-1.88,6.16,6.16,0,0,1-.67-2.06,22.13,22.13,0,0,1,8.14-21l4.89-3.29a212.17,212.17,0,0,0,21-50c3.29-11.88,5.49-24.73,1.43-36.37-2.28-6.5-6.43-13.69-3.08-19.71,1.56-2.81,4.44-4.57,7-6.53,6.31-4.86,11-11.48,16.3-17.39,9.18-10.17,20.38-18.3,30.19-27.87s18.48-21.23,20.49-34.78a17.61,17.61,0,0,0-.43-8.48,8.34,8.34,0,0,0-6-5.58c-3.4-.61-6.64,1.52-9.3,3.71-12.19,10-21.25,23.53-33.85,33-5.8,4.38-12.26,7.84-17.89,12.44a56.73,56.73,0,0,0-17.42,24.67L887.3,2241c-8.74-8.36-12.36-20.8-13.55-32.84s-.36-24.23-1.9-36.23a28.91,28.91,0,0,0-2.6-9.66,12.35,12.35,0,0,0-7.32-6.47,11.81,11.81,0,0,0-10,2.25,21.64,21.64,0,0,0-6.34,8.43c-3.94,8.51-4.54,18.18-4.28,27.56a62.17,62.17,0,0,1-.22,10.92,16.51,16.51,0,0,1-4.62,9.69,23.67,23.67,0,0,1-4.72,3.18l-12,6.77a44.83,44.83,0,0,0-22.89-2.21,2,2,0,0,1-1.46-.13,1.9,1.9,0,0,1-.6-1.25c-.57-3.06-.73-6.25-2-9.07-2-4.43-6.55-7.43-8.14-12a2.33,2.33,0,0,1-.13-1.51c.29-.81,1.27-1.1,2.12-1.23,4.93-.77,10.11.11,14.86-1.42a14.66,14.66,0,0,0,9.23-8.75,13.36,13.36,0,0,0-1.86-12.48,18.87,18.87,0,0,0-7-5.18,36.77,36.77,0,0,0-15.37-3.48l-5.33-1.21a68.6,68.6,0,0,0-19.71,5.81,75.43,75.43,0,0,1-1.15-16.64,5.84,5.84,0,0,1,.73-3.09c1.25-1.83,3.91-1.72,6.13-1.87,8.37-.56,15.2-7.81,17.44-15.89,3.36-12.07-2.68-26.09-13.77-31.93-12-6.36-27.17-3-38.88,4-20.74,12.33-34.17,34.77-39.4,58.32-1.21,5.44-2,11-4.22,16.13-2.67-1.62-3.52-5-4.11-8.1a392.09,392.09,0,0,1-6.36-52.79c-.2-3.89-.26-8.06,1.88-11.3,2.83,1.51,4.61,4.53,7.43,6.05,3.23,1.74,7.3,1.18,10.55-.51,7.68-4,11.29-13.91,9.07-22.28s-9.47-14.89-17.74-17.44-17.38-1.48-25.43,1.7c-7.73,3.06-14.81,8.15-19.27,15.17-6.67,10.47-6.79,23.75-5.75,36.12s3,25.05-.24,37c-11.77-25.22-11.37-55.2-25.28-79.3l-2.43-4.25c-3.34-12.1-12.91-21.39-22.68-29.27-10.77-8.7-24.2-16.88-37.63-13.56a5.51,5.51,0,0,0-3.1,1.63,5,5,0,0,0-.91,2.73c-.69,8.08,6.24,14.47,11.71,20.47a76.84,76.84,0,0,1,17.89,33.92,37.57,37.57,0,0,0-24.46-2.18,5.44,5.44,0,0,0-3.4,1.93,5,5,0,0,0-.44,3.3c1,7.83,7.11,13.83,12,20.05a76.52,76.52,0,0,1,15,59.11c-3.34-6.58-7.35-13-13.25-17.46s-14.06-6.43-20.81-3.47c-5.72,2.51-9.48,8-12.83,13.25q-6,9.39-11.59,19c-2.87,5-5.7,10-7.25,15.51-5.33,18.82,4.71,40.23-3.42,58l-1.66-3.82a284.93,284.93,0,0,1-27.3-47.16c-2.55-5.58-5.1-11.49-9.93-15.28s-12.74-4.46-16.59.32c-2.87,3.57-2.54,8.68-1.73,13.19,2.15,12.09,6.63,23.7,8.34,35.87a2.75,2.75,0,0,1-.09,1.56c-.65,1.42-2.79.85-4.11,0-8.42-5.39-15-13.16-22.86-19.35-10.8-8.5-24-14-33.29-24.16a32.8,32.8,0,0,0-5.16-5.11c-2-1.39-4.62-2.15-6.88-1.28-3,1.15-4.49,4.7-7.48,5.8-3.89,1.43-7.75-1.88-11.71-3.09a11.9,11.9,0,0,0-8.71.72l-5.46.51-7.8,2.82a3.73,3.73,0,0,1-2.67.26,3.33,3.33,0,0,1-1.56-1.88,15.34,15.34,0,0,1-1.25-6.27,9.51,9.51,0,0,0-.21-3.2,4.66,4.66,0,0,0-3.84-2.82,10.36,10.36,0,0,0-4.9.81c-1.48.56-3.1,1.25-4.56.66-1.92-.78-2.4-3.24-2.52-5.31a92.1,92.1,0,0,1,.53-17c.73-5.87,2-11.73,1.68-17.64a32.29,32.29,0,0,0-4.24-14.26,17.38,17.38,0,0,0-5.7-6.33,9.13,9.13,0,0,0-8.24-.9c-3,1.32-4.76,4.48-6,7.53-7.92,19.3-4.94,41.37-10.24,61.55l.33,4.64c-8.64,8.44-22.68,6.23-34.39,9.17C242,2216.46,231,2226.8,217.5,2228.6c14.67-26.47,13.57-60.95-2.75-86.44-2.38-3.71-5.13-7.32-8.84-9.71a19.3,19.3,0,0,0-18.71-1c-4,2-7.41,6-7.15,10.4.42,7.09,9.54,11.83,8.76,18.89-.27,2.53-1.83,4.71-3.33,6.77-6.3,8.65-12.58,17.63-15.45,27.94-3.52,12.67-1.58,26.12-1.88,39.27s-3.74,27.58-14.54,35.08a356.43,356.43,0,0,1-9.62-35.07c-3.13-14.22-5.34-29.38-.46-43.1,2.42-6.81,6.47-12.9,9.41-19.5a64.54,64.54,0,0,0,4.83-35.86c-.5-3.28-1.31-6.63-3.28-9.29a12.18,12.18,0,0,0-21.11,2.78c-1.45,3.7-1,7.88-2.21,11.67-1.56,5-5.67,8.75-9,12.85-13.58,16.9-13.47,40.64-12.7,62.31.43,12.22.88,24.57,4.21,36.33,5.45,19.28,18.23,35.69,25,54.53l1.73,3.55c-4.69,7.49-6.72,16.37-7.44,25.18s-.17,17.67-.14,26.51c0,2.53,0,5.15-1.13,7.43a20.21,20.21,0,0,1-4.14,5.1,68.83,68.83,0,0,0-9.09,11.47l-4.57,6.38c-5.19,1.82-6.48,8.75-10.86,12.07-3.31,2.51-7.78,2.55-11.88,3.19-9,1.41-17.51,6.45-22.33,14.15s-5.5,18.05-1,25.92,14.4,12.56,23.19,10.27c5.56-1.45,10.61-5.38,16.33-5,8.26.59,13,9.61,15.07,17.62,4.34,16.88,3.95,34.7,8.35,51.55s15.59,33.85,32.69,37.22c6.48,1.28,13.18.47,19.74-.35l34.79-4.34a166.92,166.92,0,0,0,22.33-3.81c4.33-1.15,8.58-2.65,13-3.3,5.6-.82,11.33-.26,16.94-1a36.22,36.22,0,0,0,21.75-11.55c2.68-3,4.94-6.8,4.49-10.79-.31-2.67-1.79-5-2.75-7.54-4.12-10.72,1.63-22.75,9-31.57a15,15,0,0,1,5.12-4.39c6-2.64,12.25,2.35,18.06,5.33a31.07,31.07,0,0,0,14.86,3.41c3-.07,6.14-.59,9.09.13,8.19,2,11.19,11.82,16.73,18.17Z"></path>
    <path data-name="3a" data-official="" data-plain="Bud" data-loc="" d="M449.51,2742.47l7.61-10.34a6.52,6.52,0,0,0,1.51-3.07c.17-1.68-.94-3.18-1.86-4.6a24.55,24.55,0,0,1-2-22.34c1.64-3.94,4.29-7.38,6.09-11.26,2.34-5,3.15-10.64,4.72-16s4.15-10.74,8.86-13.69c5.5-3.46,12.56-2.82,19-1.75,5.53.93,11,2.08,16.51,3.24,3.43.72,7,1.53,9.61,3.92,3.83,3.54,4.2,9.55,2.85,14.58s-4.13,9.56-5.77,14.5a7.08,7.08,0,0,0-.4,4.34c.74,2.28,3.25,3.34,5.09,4.86,5,4.14,5,11.88,3.2,18.12s-4.94,12.32-4.71,18.82c.19,5.24,2.57,10.72.45,15.53-1.18,2.69-3.61,4.64-6.12,6.19-14.12,8.77-31.93,8.1-48.53,7.13-2.89-.16-5.86-.35-8.48-1.59-7.09-3.37-8.66-12.59-9.31-20.42Z"></path>
    <path data-name="3b" data-official="" data-plain="Section of capsule" data-loc="" d="M557.8,2759.84c3.44-5.38,6.33-12.12,3.8-18-1.74-4-5.63-6.6-8.62-9.8-5.9-6.32-8.28-15.1-9.85-23.6-1.92-10.4-2.78-21.77,2.42-31,4.23-7.48,12-12.48,20.29-14.79s17-2.17,25.59-1.27c7,.72,14,2,20.29,4.94s12,7.84,14.76,14.26c2,4.57,2.39,9.65,2.27,14.62a48.07,48.07,0,0,1-2.34,14.4c-3.2,9.3-10.24,17.55-10.34,27.39-.05,5.18,1.89,10.15,3.14,15.19s1.73,10.69-1,15.13c-2.46,4.08-7.08,6.3-11.59,7.82-10.67,3.59-22,4.52-33.31,4.61-4.91,0-10.06-.13-14.32-2.56s-7.22-7.87-5.27-12.38Z"></path>
    <path data-name="3c" data-official="" data-plain="Section, magnified" data-loc="" d="M793.94,2543.35c-5.41,9-1.52,20.38-1.24,30.87a5,5,0,0,1-.79,3.42c-.93,1.11-2.56,1.27-4,1.34q-42,2.08-84,2.63c-3.07,0-6.64-.16-8.44-2.64a9.38,9.38,0,0,1-1.36-4.54,123.55,123.55,0,0,1-.76-17.31l-.56-4.82c-4-1.45-7.89-3.67-12.08-4.48-8-1.55-16.43,2.11-24.25-.09l2.37,6.5c1.16,3.16,2.33,6.58,1.42,9.81s-3.85,5.65-7,6.81-6.64,1.28-10,1.38l-28.93.93c-2.69.08-5.62.26-7.66,2-2.27,2-2.72,5.25-3,8.24-.47,5.61-.72,11.24-.78,16.87,0,3.64.39,7.94,3.54,9.77,2.06,1.2,4.62.88,7,.62a89.37,89.37,0,0,1,23.56.57c7.17,1.13,15.15,3.94,17.82,10.69a24,24,0,0,1,1.17,8.19l1.7,65.17a14.23,14.23,0,0,1-.65,5.78c-2,4.79-8.18,5.92-13.35,5.84s-11.06-.45-14.74,3.19c-2.66,2.63-3.33,6.62-3.74,10.33-.66,6-.84,12.62,2.75,17.49,3.91,5.32,11.07,6.91,17.63,7.68a150.33,150.33,0,0,0,22.35.94c5.92-.2,12.58-.49,16.92,3.54s4.23,11.68-.11,15.6l-.83,6.94c-.58,3.12,1.5,6.26,4.24,7.87s6,2,9.17,2.23a140.84,140.84,0,0,0,41.15-2.92c5-1.1,10.42-2.88,12.81-7.38,5.2-9.78-8.41-22.11-3.3-31.93,2.84-5.43,9.81-6.78,15.77-8.22a79.53,79.53,0,0,0,37.12-20.71c19.22-19.07,27.43-46.75,30.06-73.7s.41-54.16,2.38-81.17l-1.48-7.57c-3.32-3.19-6.39-6.8-10.49-8.92-4.48-2.31-9.7-2.6-14.75-2.83Z"></path>
    <path data-name="4" data-official="Isoetes setacea" data-plain="Quill-wort" data-loc="Lakes, Scotland" d="M1311.32,1800.38c5.32-5.39,7.84-12.84,10.77-19.82,6.3-15,15.4-29.18,28.18-39.28,1.72-1.35,4.15-2.66,5.94-1.39,1.17.83,1.47,2.44,1.46,3.88-.05,4.14-1.87,8-3,12-1,3.38-1.4,6.87-2.06,10.31-2.69,14.28-8.72,27.76-16.15,40.24-2.42,4.07-5.52,8.42-10.18,9.26-2.62.48-5.76-.12-7.61,1.81a10.37,10.37,0,0,0-1.58,2.77,12.85,12.85,0,0,1-2.94,3.85l-2.31.17-2.35-20.82Zm-496.56-2.16a199,199,0,0,0,14.58,46.61,69.83,69.83,0,0,1,4,9.94c.2.73.33,1.63-.23,2.14a2.08,2.08,0,0,1-1.3.39,146.26,146.26,0,0,1-16.22.33,36.42,36.42,0,0,1-10.13-1.44c-3.26-1.07-6.19-2.93-9.18-4.61a97.33,97.33,0,0,0-22.76-9.26c-3.2-.85-6.55-1.54-9.8-.9s-6.37,2.91-7.09,6.14c-.55,2.49.38,5,1.41,7.38a71.82,71.82,0,0,0,42.33,38.44c7.48,2.5,15.43,3.77,22.44,7.4,9.55,5,16.51,14,21,23.74s6.76,20.4,9,30.92l2.15,7.36c-.08,5.39-6.64,7.68-11.59,9.82a33.42,33.42,0,0,0-12.58,9.53,4.19,4.19,0,0,0-1.21,2.69,4,4,0,0,0,1.94,2.75c6.48,4.7,15.28,4.28,23.18,3a8.25,8.25,0,0,1,3.95,0c2.14.73,3.2,3.08,4,5.19,10.81,27.89,20.76,56.23,34.51,82.8s31.6,51.61,55.57,69.51c8.63,6.44,18.08,12,25.38,19.92,13.53,14.69,17.87,35.39,21.68,55l-1.22,9.79L987,2256.35a49.33,49.33,0,0,1-5.82,9.83c-2.86,3.46-6.6,6.07-9.68,9.34-8.29,8.83-10.9,21.57-11.41,33.67-.27,6.37-.17,13.16-3.62,18.53-2.17,3.38-5.52,5.79-8.79,8.12l-16.4,11.69c-3.65,2.6-7.38,5.28-9.86,9s-3.48,8.8-1.3,12.71c4.54,8.19,18.77,6.27,23.18,14.53,1.29,2.41,1.43,5.25,1.55,8,.75,18.39,1.49,37-2.19,55-2.67,13.08-7.67,26.05-6.36,39.34.37,3.72,1.38,7.65,4.17,10.14,4.46,4,11.8,2.93,16.49,6.65,4.24,3.35,5,9.36,5.89,14.69s3.18,11.39,8.4,12.83c6.79,1.86,12.46-5.36,19.18-7.47a14.16,14.16,0,0,1,15.44,5.33l5.71,4.16c5.51.8,9.94-4.81,11.21-10.23s.71-11.24,2.74-16.41,8.44-9.41,13.1-6.36,3.66,9.87,6.24,14.64c2,3.82,6.27,6.11,8.25,10,2.53,4.9.84,11.12,3.16,16.12,2.67,5.78,11,8,16.17,4.23,1.7-1.22,3-2.92,4.74-4.12,4.79-3.36,11.47-2.09,16.66.62s9.71,6.66,15.18,8.74,12.62,1.65,16-3.15c1.77-2.52,2.19-5.85,4.15-8.22a8.14,8.14,0,0,1,10.66-1.33c1.89,1.38,3.05,3.51,4.55,5.31,5.57,6.69,16.51,8,23.54,2.9,6.42-4.71,8.84-13.22,9.22-21.18s-.87-16,.16-23.87c1.44-11.16,7.34-21.51,7.81-32.76.59-14-7.2-26.79-10.49-40.38-3.94-16.23-1.39-33.21-.6-49.89a234.82,234.82,0,0,0-13.67-90.61l-.87-6a109.35,109.35,0,0,0,1.07-43.47l2.27-5.83a105.45,105.45,0,0,0,24.37-24.48,207.32,207.32,0,0,0,11.06-18l15-26.44c6.06-10.66,12.14-21.34,17-32.58,7.31-16.79,11.89-34.6,16.44-52.33q10.53-41,21-82l3-8.18c9-23.7,10.09-49.73,18.47-73.64l2.62-5.73a14.07,14.07,0,0,0,.91-8.47l-.58-.82c-2.61-.66-5.53-1.56-6.74-4a7,7,0,0,1-.54-3.84,13.61,13.61,0,0,1,4.69-9c2.82-2.4,6.78-3.84,8.16-7.27l0-3.24-.32-6.32c-.15-2.87-.28-5.85.79-8.53a20.83,20.83,0,0,1,1.38-2.65l3.5-6,.44-1.24q-.12-12-1.08-23.93c-.15-1.86-.57-4.07-2.3-4.75a3.32,3.32,0,0,0-3.34.83,7.89,7.89,0,0,0-1.84,3.09l-3.24,3.77a22.19,22.19,0,0,1-3.19,5.16,73.9,73.9,0,0,0-8.55,15.12l-2.63,7c-10,21.17-13.28,44.82-20.14,67.22-5.76,18.81-14.07,36.72-22.36,54.57l-24.73,53.26q-2.89-24.37-3.53-49a65.4,65.4,0,0,1,.82-14.93c1.69-8.18,6.24-15.43,10.51-22.62a457.84,457.84,0,0,0,63.42-209.48c.24-4.61-.58-10.61-5.09-11.64-3-.69-5.92,1.49-8.29,3.53l-12.51,10.79c-2.54-9.19,3.38-18.29,6.81-27.19a54.48,54.48,0,0,0,1.32-35.1c-.52-1.72-1.23-3.54-2.76-4.49-2.35-1.44-5.41-.14-7.68,1.42-11.43,7.9-17,21.62-22.93,34.18a276.19,276.19,0,0,1-27.64,46.16c-4.77-32.9,18.16-63.84,19.33-97.07.26-7.37-3.2-17.12-10.53-16.3-4.07.45-6.87,4.21-9,7.72-18.74,31-25.27,67.61-30.4,103.43q-5.55,38.63-9.46,77.47c-9.65-23.86-10.29-50.23-13.62-75.76s-10.34-52.26-29.2-69.79l.84-6.63a51.21,51.21,0,0,0-20.13-27.47c-2.39-1.62-5.39-3.08-8.06-2-2.25.93-3.44,3.34-4.44,5.56l-10.1,22.43c-.45,1-1,2.13-2.11,2.39s-2.28-.64-3-1.58c-3.56-4.44-4-10.56-4-16.25s.28-11.66-2.21-16.78-8.88-8.88-14-6.33a14.81,14.81,0,0,0-5,4.94c-21.17,29.28-26.83,66.79-42.42,99.39-3.11-23.88,1.17-49.44-9.15-71.2-2.42-5.1-5.73-10-10.49-13s-11.19-3.87-16.06-1c-5.44,3.18-7.68,10.08-7.41,16.38s2.54,12.3,4.09,18.41c2.4,9.44,3.08,19.47.65,28.9-1.52,5.92-4.22,11.46-6.22,17.24-5.8,16.71-5.64,34.81-5.41,52.5-8-39.2-20.26-78.26-43.11-111.09-3.84-5.52-9.12-11.4-15.82-10.9-3.94.29-7.33,2.79-10.37,5.31a17.69,17.69,0,0,0-3.76,3.87c-3.47,5.34-.89,12.38,1.7,18.19q12.08,27.18,22.32,55.11c4.61,12.55,9,25.55,8.61,38.92-19.09-23.66-32.48-53.66-59-68.55l-4.26-5.48c-5.79,3.72-9.6,9.76-13.23,15.6a3.46,3.46,0,0,1,2.52,3.23,9.75,9.75,0,0,1-.94,4.25,136.17,136.17,0,0,1-8.49,17.69l-4.41,4.2a64.19,64.19,0,0,1-11,7.59,2.35,2.35,0,0,1,2.77,1.67,4.93,4.93,0,0,1-.49,3.49,30.14,30.14,0,0,0-1.58,3.23l-.93,6.62Z"></path>
    <path data-name="4a" data-official="" data-plain="Capsule" data-loc="" d="M892.07,2733.59l-2-70.91c-.22-7.63-.41-15.44,1.93-22.71,4.06-12.61,15-21.67,21.53-33.22,7.11-12.65,8.5-27.57,11.51-41.77,1.1-5.24,2.66-10.79,6.77-14.23,4.55-3.81,11-4.06,16.93-4.13l20.92-.24a8.41,8.41,0,0,1,4,.62c1.69.88,2.56,2.77,3.14,4.58,2.69,8.39,1.7,17.46,2.5,26.23a63.68,63.68,0,0,0,8.64,26.67c9.2,15.51,25.05,27.29,30,44.63,2.62,9.15,1.87,18.88,1.09,28.37l-4,48.87c-.56,6.77-1.18,13.77-4.45,19.71a24.33,24.33,0,0,1-10.77,10.14c-2.4,1.15-5.06,1.93-7,3.76-3.36,3.17-3.54,8.41-5.67,12.52-4.37,8.45-15.47,10.23-25,11l-26,2.09c-4.33.35-8.75.69-13-.3s-8.33-3.54-10.06-7.53c-2.12-4.87-.32-10.44,1-15.59s1.9-11.34-1.88-15.07c-5.54-5.47-15.54-1.31-22.29-5.18Z"></path>
    <path data-name="4b" data-official="" data-plain="Section" data-loc="" d="M1069.87,2757.69c5-2.55,8.15-7.91,9.36-13.41s.8-11.21.37-16.83c-.56-7.37-1.13-14.79-3.07-21.92-3.4-12.48-10.85-23.53-14.49-35.94a100.75,100.75,0,0,1-3.32-21,269.61,269.61,0,0,1,1.17-51.91c1.34-11.21,4-23.46,13.13-30.17,7.68-5.68,18-5.91,27.53-5.91h15.78c3.16,0,6.39,0,9.39,1,5.85,2,9.75,7.49,12.66,13,11.76,22.07,13.59,47.89,15.1,72.85.87,14.3,1.62,29.18-3.89,42.41-2.68,6.44-6.74,12.2-9.89,18.42s-5.45,13.26-4.17,20.12c1.21,6.48,5.42,12,8,18a36.74,36.74,0,0,1,.28,27.22,15.82,15.82,0,0,1-4.64,6.93c-2.2,1.7-5,2.42-7.73,3-12.37,2.55-25.09,2.84-37.72,2.5-5.9-.16-12-.51-17.23-3.3s-9.2-8.72-7.88-14.47Z"></path>
    <path data-name="4c" data-official="" data-plain="Spore" data-loc="" d="M1165.94,2733.65c-5.17-3.11-10.14-7.44-11.54-13.3-1.14-4.77.31-9.87,2.87-14s6.17-7.61,9.73-11a11.1,11.1,0,0,0,3.37-4.52,12.46,12.46,0,0,0,0-5c-.67-6.25.09-12.84,3.31-18.24s9.2-9.39,15.48-9.15c9.68.38,16.67,10.57,16.87,20.25.14,7-2.25,14.53,1.08,20.69,2.63,4.87,8.43,7.81,9.91,13.15,1.76,6.32-3.48,12.48-9.11,15.85-9.56,5.72-21,7.31-32.19,7.44Z"></path>
    <path data-name="5" data-official="Marsilea polycarpa" data-plain="Many-seeded Marsilea" data-loc="Ditches, Demerara" d="M1783.45,998.48c-5-8.5-13-14.78-18.82-22.73-9-12.27-12.14-27.66-16.83-42.11A194.65,194.65,0,0,0,1732,897.72c-2.59-4.56-5.46-9.12-9.62-12.31-9-6.89-21.54-5.87-32.71-4.06-26.54,4.31-55.39,13.2-68.92,36.43-8.15,14-10.84,33-25.3,40.31,2-15.41,4-31.09,1.45-46.42s-10.37-30.55-23.83-38.32c-21.26-12.27-48.91-2.34-67.86,13.26s-33.34,36.45-53.46,50.52c-13.67,9.55-30,16.08-40.15,29.34-12.93,17-12.18,40.55-9.09,61.69.44,3,.91,6.11.25,9.09-.84,3.79-3.4,6.93-5.46,10.22a42.88,42.88,0,0,0-5.57,30.91,91,91,0,0,0-67.37-18.25L1315,1060a63.06,63.06,0,0,0-27.84,13.86c.16-10.37-.51-21.16-5.4-30.31-8.37-15.67-28.62-23.07-45.8-18.53-12.22,3.23-22.45,11.39-32.27,19.34l-12.62,14.57-3,3.67c-7,4.71-15.92,4.8-24.29,5.49a141.07,141.07,0,0,0-19.6,3l-2.74-3.3-5.92,2c-12.84,3.32-22.82,13.32-31.07,23.7-3.41,4.29-6.7,8.8-8.5,14a38.43,38.43,0,0,0-1.91,11.16,60.71,60.71,0,0,0,3.17,21.76,88.74,88.74,0,0,0-27.14,17,27,27,0,0,0-6.22,7.54c-2.28,4.55-2.25,9.87-2.16,15,.12,7.6.3,15.44,3.42,22.36,5.2,11.51,17.56,18.43,23.11,29.77,2.17,4.44,3.18,9.35,4,14.21,1.88,10.65,3.13,21.4,4.38,32.15l4.89,6.8,5.25-3.5a3.77,3.77,0,0,1,3.84,1,12.44,12.44,0,0,1,2.3,3.49c2.51,4.77,5.81,9.33,10.44,12.09a26.13,26.13,0,0,0,12.51,3.3,77.89,77.89,0,0,0,13-1l3.51-.15,7.53,7.37a62.11,62.11,0,0,0,14.16-11c5.49,8.47,11.49,17.06,20.18,22.2,14.19,8.4,32,5.82,48.28,3l7.24,3c28.32,71.34,30,150,31.24,226.79l2.22,134.08,2.31,5.75c6.8,40.34.49,82.05,7.47,122.37l3.84,4.7a3.32,3.32,0,0,1,3.34-.83c1.73.68,2.15,2.89,2.3,4.75q1,11.94,1.08,23.93l-.44,1.24-3.5,6a20.83,20.83,0,0,0-1.38,2.65c-1.07,2.68-.94,5.66-.79,8.53.1,2.11.21,4.21.32,6.32l0,3.24c-1.38,3.43-5.34,4.87-8.16,7.27a13.61,13.61,0,0,0-4.69,9,7,7,0,0,0,.54,3.84c1.21,2.41,4.13,3.31,6.74,4l.58.82a14.07,14.07,0,0,1-.91,8.47l-2.62,5.73c-5.33,15.21-7.73,31.28-11.08,47.07l2.22,14.39q3.63,28.67,8.39,57.18a13.79,13.79,0,0,0,1.84,5.67,41.59,41.59,0,0,0,3.31,3.47c7.13,8.08-.35,23.86,8.44,30.11a18.74,18.74,0,0,1,3.32,2.35c1.67,1.87,1.54,4.68,1.4,7.18-.3,5.45-.09,11.05,1.82,16.16s5.75,9.73,10.91,11.49c7.15,2.45,15.88-1.73,18.46-8.82q4.27,9.73,8.54,19.48,4.38,10,8.77,20c13.94,31.84,27.91,63.74,38.81,96.75l-4,2-24.34,4.88c-10.17,2-20.36,4.09-30.69,5l-7.48,1.05a71.65,71.65,0,0,1-56.58-3.66c-9.86-5.09-19-12.67-30.09-13.56a17.31,17.31,0,0,0-9.32,1.55c-6.13,3.16-8.75,11-7.41,17.79s5.84,12.49,11,17.12l.17,5.56a32.61,32.61,0,0,0-10,27.86,19.08,19.08,0,0,0,3.3,8.92c4.06,5.41,12,7,18.38,4.71s11.23-7.72,14.17-13.82c2.16-4.5,3.63-9.68,7.6-12.7s9.16-3.06,14-3.05l20.68.08a4,4,0,0,1,1.94.33c1.32.71,1.41,2.69.58,3.93a8.22,8.22,0,0,1-3.6,2.55l-11.64,5.34c-4.88,2.24-10.55,5.67-10.37,11,.28,8.39,14.52,11.51,13.78,19.87a9.76,9.76,0,0,1-2.92,5.62c-5,5.35-13.08,8-16.08,14.69-2.29,5.1-.9,11-.11,16.52,1.4,10,.56,20.54-4.29,29.36-2.9,5.27-7.1,9.69-10.55,14.62s-6.23,10.76-5.64,16.75c.49,5,3.3,9.7,3.08,14.74-.19,4.15-2.42,7.9-4.73,11.35s-4.81,6.93-5.69,11,.39,8.92,4.06,10.86c3.11,1.64,7.17.86,10.06,2.85,4.61,3.16,3,10.28,4.8,15.56,1.75,5.06,6.93,8.32,12.2,9.26s10.68,0,15.93-1.09l6.76-.23a24.39,24.39,0,0,1,18.66-.62c3.64,1.39,7,3.67,10.8,4.4s8.57-.82,9.58-4.58c.83-3.13-1.15-6.77.48-9.56,1.53-2.63,5.19-2.8,8.23-2.64,12,.6,25,1.65,33.68,10,5.29,5.07,8.28,12.35,14.16,16.72,4.11,3,9.23,4.36,13.65,6.94,12.48,7.29,17,22.71,22.18,36.18,1.67,4.32,3.61,8.69,7,11.9s8.43,5,12.73,3.3c5.34-2.12,7.55-8.7,7.11-14.43s-2.81-11.13-3.82-16.79c-.34-1.95-.46-4.15.75-5.72a8,8,0,0,1,4.12-2.29c5.69-1.79,12.8-3.24,16.86,1.12,1.84,2,2.55,4.73,4,7a13.12,13.12,0,0,0,12.76,5.92c2.65-.39,5.3-1.61,7.89-.94,5.43,1.41,5.6,8.87,7.58,14.12a15.52,15.52,0,0,0,28.6,1c2.63-5.68,1.61-12.28,1.93-18.54s3-13.44,9.1-15c3.3-.83,6.73.27,10,1,8.25,1.91,18.56.91,22.77-6.43.64-1.12,1.22-2.44,2.42-2.89a4.51,4.51,0,0,1,2.76.14c4.39,1.17,8.83,2.5,13.37,2.3s9.28-2.26,11.38-6.28,1.2-8.56,1.26-12.94a31,31,0,0,1,9-21.33l1.9-10.82a6.91,6.91,0,0,1,0-3.38,27,27,0,0,1,2.3-7.64c.78-1.54,1.83-3,2-4.74.22-2.35-1.29-4.53-1.54-6.88a20.16,20.16,0,0,1,.35-4.44,18.77,18.77,0,0,0-3.3-12.75c-.89-1.25-2.18-2.5-3.71-2.36a8.64,8.64,0,0,0-2,.61,6.38,6.38,0,0,1-7.61-3.26c-.92.26-1.73.81-2.64,1.1a2.45,2.45,0,0,1-2.64-.49,3,3,0,0,1-.24-2.58,29,29,0,0,1,8.44-14.17c1-.95,2.07-1.85,3-2.85l0-2.17c-.23-1.18-.45-2.36-.68-3.54a9.79,9.79,0,0,0-.55-2.06c-.36-.83-.94-1.54-1.37-2.34A14.24,14.24,0,0,1,1613,2394l-.72-2.84a9.49,9.49,0,0,1,6.54-.17,14,14,0,0,1,5.55,3.59l2,1.59c1.63,2.73,1.86,6,2.45,9.14a2.32,2.32,0,0,0,.75,1.56,2.38,2.38,0,0,0,1.4.29c2.66,0,5.41-.09,7.86,1,2,.86,3.89,2.47,6,2.09l.63-2.73a23.8,23.8,0,0,1,2-9.88c.94-2.16,2.21-4.22,2.59-6.54a.76.76,0,0,0-.1-.63c-.21-.21-.56-.12-.85-.05a2.56,2.56,0,0,1-1.85-.32,8.29,8.29,0,0,0-1.14-.75,2,2,0,0,0-2,.55,3.73,3.73,0,0,0-.9,2c-.43,2.53.46,5.45-1.09,7.5a6.08,6.08,0,0,1-2.1,1.62c-2,1.06-4.4,1.67-6.5.86s-3.55-3.46-2.46-5.44l0-1.73a49,49,0,0,0,.22-7.76,14.66,14.66,0,0,1,1.62-7.51l0-2.14a18.36,18.36,0,0,0-5.39-3.66c-.24-.11-.57-.19-.74,0a.62.62,0,0,0-.1.4q-.09,6.82-.17,13.66l-2,2.16a19.06,19.06,0,0,0-10.14-3.49l-1.17-2a17.09,17.09,0,0,1-.67-3.16l0-1.66c.16-1.39.31-2.78.46-4.16l1.92-2a53.45,53.45,0,0,0,3.65-6.21,17.19,17.19,0,0,0,2-4.94c.36-2.09-.06-4.24.11-6.35l-.3-2.82q-.19-4.08,0-8.15l0-2.33q-.06-4.85-.14-9.69c-.1-7.05-.31-14.51-4.09-20.46l.74-2.27c.35-3,.6-6.16-.73-8.85-.51-1-1.24-2-1.82-3a5.33,5.33,0,0,1-.86-3.31l1.66-2a32.15,32.15,0,0,1,5.6,1,10.75,10.75,0,0,1,4.86,2.82l-.12.9a53.24,53.24,0,0,1,1.15,11.61,18.74,18.74,0,0,0,.29,4.85,36.46,36.46,0,0,0,1.6,4l2.58-1.55a17.74,17.74,0,0,0,.53-6.82q-.22-5.57,0-11.13l.37-.56,6.87,6.56a12.35,12.35,0,0,1,2.79,3.38c.79,1.63.84,3.56,1.71,5.14a11,11,0,0,0,1.63,2.09l1.64,1.66c1.77,3.22,3.66,6.57,6.73,8.59l7-.77a21.63,21.63,0,0,0,7.65-8.32,30.65,30.65,0,0,0,3-11.3c.39-4.08.28-8.34-1.44-12.07s-5.32-6.79-9.42-6.87l-1.7-2.53-2.64,1.29a12.82,12.82,0,0,0-9.9.46,6.59,6.59,0,0,1-2.81,1.07,5.07,5.07,0,0,1-2.26-.71l-7.71-3.85,3.28-1.8-.07-3.54a43.23,43.23,0,0,0-12.29-5.64l-2.16-.76c-1.86.07-2.34,3.34-4.21,3.34a3.07,3.07,0,0,1-1-.26l-8.42-3.31-.46-2.21-.36-4.82-5.14-2.65c-10.46-2.79-21-5.6-30.9-9.88a36.38,36.38,0,0,1-8.94-5.08,35.23,35.23,0,0,1-6.12-7c-7.56-10.74-12.62-23-17.62-35.16l-4.24-4.95-2.47-.3c-.85-4.94-3.78-9.38-4.38-14.36-.25-2.11-.08-4.24-.17-6.36a65.71,65.71,0,0,0-1.39-9.23,112.54,112.54,0,0,1-1.75-25.91l-2.75-6.95c-6.8-14-3.12-31.33-9.47-45.57l-4.08-5.39a11.78,11.78,0,0,1-4.52-2.06c-2.6-2.11-3.49-5.65-4.1-8.94-1.26-6.71-1.88-14.22,2.06-19.79l3.08-3.74-1.55-3.79-2.1-25.62c-2.13-26.09-4.26-52.19-5.24-78.36l-4.37-7.15-2.83-3a13.92,13.92,0,0,1,1.71-18.89l2-5.12q-1.95-49.41-3.91-98.8c-.4-10.18-.81-20.42-3-30.36l-4.8-20c-2.56-4.76-5.56-9.89-10.64-11.73a25.52,25.52,0,0,1,5.43,14.07,20.14,20.14,0,0,1-1.2,9.68c-2.29,5.41-7.55,8.84-12.53,11.94l-2,5.46q-.09,21.36-.17,42.73a4,4,0,0,1-.66,2.69,4,4,0,0,1-1.24.85l-10.57,5.42c-4.24,2.17-8.56,4.4-11.94,7.76-6,6-8.23,16-4.07,23.37a10.58,10.58,0,0,1,1.47,3.14c.3,1.65-.44,3.27-1,4.85a23.4,23.4,0,0,0,7,25,3.16,3.16,0,0,1,1.23,1.51c.38,1.48-1.42,2.46-2.78,3.15-3.91,2-6.35,6.17-7.33,10.45s-.7,8.73-.42,13.11l0,3.88a472.86,472.86,0,0,1,2.71,96c-.63,8.51-1.47,17.24.89,25.44s7.92,15.49,10,23.89a61.16,61.16,0,0,1,1.25,13.31l.93,4.85a80.63,80.63,0,0,0,9.22,32c2.06,3.88,4.57,7.72,8.32,10,5.68,3.5,13.34,2.67,19-.94,1.69-1.09,3.43-2.46,5.43-2.29,2.83.24,4.39,3.35,5.25,6.06a75.63,75.63,0,0,1,2.61,11.11c.54,3.4.84,6.84,1.6,10.19a75.55,75.55,0,0,0,3.49,10.43l4.75,12.21,4.43,3.1a4.3,4.3,0,0,1,2.49-.51c1.58.3,2.31,2.11,2.77,3.65q2.13,7.17,4.27,14.32l-2.34,6.59,1,6.12c1.74,1.79,1.8,4.71.93,7.06s-2.47,4.34-3.79,6.46a29.88,29.88,0,0,0-4.5,15.29c0,1.59.07,3.28-.72,4.67-1.08,1.92-3.45,2.65-5.62,3.06-20.63,3.9-41.93-6.33-56.43-21.52s-23.38-34.74-31.51-54.1a1278,1278,0,0,1-47.51-133.27l-.76-5.56a1738.73,1738.73,0,0,1-31.81-180.86,25.48,25.48,0,0,0,.78-46.53l-9.73-.72c-2.62.48-5.76-.12-7.61,1.81a10.37,10.37,0,0,0-1.58,2.77,12.85,12.85,0,0,1-2.94,3.85l-2.31.17q-1.17-10.41-2.35-20.82l1.82-3c5.32-5.39,7.84-12.84,10.77-19.82l1.37-12.58a1850.54,1850.54,0,0,0-2.41-207.47l-.64-5c-.88-48.61-1.77-97.4-9.22-145.44a537.88,537.88,0,0,0-25.44-99.75l9.28-.5a113.85,113.85,0,0,0,28.75.29c7.16-.84,14.93-2.8,19-8.7,2.21-3.16,3.06-7.06,3.62-10.87a95.77,95.77,0,0,0-21-74.54l47.11-1.65c8.32-.3,17.13-.74,24-5.38,7.38-5,11.21-14,12-22.82s-1.06-17.7-2.89-26.39l-8.91-42.23c9,.09,16.35,6.91,24.23,11.33,8.14,4.56,17.46,6.72,25.55,11.37,12,6.92,20.3,18.69,28.51,29.87s17.3,22.57,30,28.07,30.08,2.85,36.77-9.3q-5.47,49-11,98l-1,6.68a739.36,739.36,0,0,1-17.43,101.75c-4.4,18-9.52,36.22-8.52,54.73l-.36,6.16,8.29-4a35.15,35.15,0,0,1,24.57-7.77l9.3-5-3.34-20.23-1-5.7a57.1,57.1,0,0,1-11.81-40.32,19.45,19.45,0,0,1,1.78-7.11c1.78-3.44,5.14-5.77,8.52-7.67a69.86,69.86,0,0,1,6.61-3.26,13.94,13.94,0,0,0,3.29-1.72,13,13,0,0,0,2.61-3.18l7.92-12.09,5.18-6-.61-4.88c3.13-17,3.58-34.45,4.63-51.75,1.15-19,3-37.88,4.92-56.79q4.53-45.62,9.08-91.24c5.91,11.73,9.91,24.33,15.66,36.13s13.62,23.12,25,29.64c10.74,6.15,24,7.43,35.94,4.17a57.3,57.3,0,0,0,30-20.73c5.19-6.81,9.23-14.91,16.48-19.46,9.06-5.69,21-4.45,30.6-9.08,11.79-5.66,18.08-19.56,17.58-32.62s-6.74-25.3-14.53-35.81l.87-3.77c15.86-5.61,30.8-15.28,39.78-29.51S1792,1013,1783.45,998.48ZM1171.34,1168.6l-1.68,2c-6.45-.14-12.64-2.36-18.7-4.55l-18.25-6.61-2.13-3.62a11.73,11.73,0,0,1-.64-5.81l3.39-3a84.18,84.18,0,0,0,39.13,6.28l.9,2.54Q1172.36,1162.19,1171.34,1168.6Zm332.32,413.65a152,152,0,0,0-13.76,65.94l-.3,4.58a8.48,8.48,0,0,0-5.15,9.53,27.57,27.57,0,0,0-17.19,4.43l-2-3.16-.57-6c-1.31-20.63-2.16-41.46,1.12-61.87,3.13-19.48,9.94-38.14,16.71-56.67q8.64-23.6,17.26-47.18l3.63-10.23c4.53,5.84,13.65,7.77,16.1,14.74,2,5.72-1.49,12.71,1.73,17.85l1.36,8.31-1.48,6.35c-2.21,12-4.44,24-9,35.27C1509.62,1570.3,1506.44,1576.18,1503.66,1582.25Zm-39,139.09a185.44,185.44,0,0,0,16.7,8.17l-2.19,10.76a46.31,46.31,0,0,0-13.06-11.32,2.65,2.65,0,0,1-1.27-1.15,2.73,2.73,0,0,1-.13-.9c0-1.65-.09-3.3-.14-5Z"></path>
    <path data-name="5a" data-official="" data-plain="Section of Capsule" data-loc="" d="M1228,2750.48c-5.49-13.24.1-30.1,12.41-37.45,1.31-.78,2.81-1.62,3.21-3.1.65-2.37-1.88-4.28-4-5.56-18.9-11.55-29.54-35.23-25.63-57s22.1-40.31,43.83-44.58c6.71-1.32,13.59-1.38,20.42-1.29,14.44.2,28.88,1.1,43.23,2.7,8.82,1,18,2.38,25.2,7.56,4.46,3.22,7.84,7.67,11.14,12.07,4.42,5.87,8.9,11.9,11.2,18.88,2.94,9,2,18.66.77,28-1.21,8.73-2.81,17.65-7.34,25.21-5.44,9.07-14.61,15.33-24.26,19.66s-19.93,7-29.84,10.7c-3.12,1.16-6.61,2.88-7.32,6.13a8.38,8.38,0,0,0,1.27,5.72c2.46,4.46,6.4,7.89,9.69,11.79s6.06,8.78,5.39,13.83c-1,7.66-9.19,12.11-16.67,14-14,3.61-28.75,2.78-43.2,1.93-4.27-.26-8.66-.54-12.53-2.35-6.57-3.07-10.41-9.87-13.84-16.25Z"></path>
    <path data-name="6" data-official="Marsilea quadrifolia" data-plain="Four-leaved Marsilea" data-loc="Eruope" d="M1479.17,1740.27a46.31,46.31,0,0,0-13.06-11.32,2.65,2.65,0,0,1-1.27-1.15,2.73,2.73,0,0,1-.13-.9l-.14-5,.09-.61a185.44,185.44,0,0,0,16.7,8.17Zm-17.7,42.34c5-3.1,10.24-6.53,12.53-11.94a20.14,20.14,0,0,0,1.2-9.68,25.52,25.52,0,0,0-5.43-14.07c5.08,1.84,8.08,7,10.64,11.73,10.82,20.07,22.1,38.62,26.51,61.19l1.37,4.39c3.2,9.89,4.45,20.3,5.69,30.62l6.19,51.82.67,5.11a34.21,34.21,0,0,1,.08,6.32,28.86,28.86,0,0,0-25-7.63l-5.77,2.45a13.92,13.92,0,0,0-1.71,18.89l2.83,3c2.61,1.6,6,.4,9,1.17a12.14,12.14,0,0,1,4.18,2.29c5.89,4.49,10.65,10.27,15.35,16a27.64,27.64,0,0,1,4.12,6c1.76,3.94,1.58,8.43,1.41,12.74a676.21,676.21,0,0,0,.86,71.33c.07,1.16.07,2.51-.85,3.22a3.23,3.23,0,0,1-1.52.54c-6.44,1-13.49-1.32-19.3,1.62l-3.08,3.74c-3.94,5.57-3.32,13.08-2.06,19.79.61,3.29,1.5,6.83,4.1,8.94a11.78,11.78,0,0,0,4.52,2.06c2.55.66,5.36.9,7.72-.27,1.38-.68,2.52-1.81,4-2.34,3.21-1.19,6.7.9,9.14,3.31,2.24,2.2,4.22,5,4.34,8.1.18,4.32-3.08,7.89-5.2,11.66-4.74,8.48-3.85,18.86-2.82,28.51l-.85,8.94a112.54,112.54,0,0,0,1.75,25.91,65.71,65.71,0,0,1,1.39,9.23c.09,2.12-.08,4.25.17,6.36.6,5,3.53,9.42,4.38,14.36l2.47.3c8.32-.71,17.07.85,23.82,5.76,7.67,5.59,11.83,14.69,17.76,22.1a55.13,55.13,0,0,0,21,16c2.74,1.19,5.73,2.27,7.54,4.64,2.41,3.14,2,7.52,1.53,11.43l1.32,4.75.36,4.82.46,2.21,8.42,3.31a3.07,3.07,0,0,0,1,.26c1.87,0,2.35-3.27,4.21-3.34l2.16.76a43.23,43.23,0,0,1,12.29,5.64l.07,3.54-3.28,1.8,7.71,3.85a5.07,5.07,0,0,0,2.26.71,6.59,6.59,0,0,0,2.81-1.07,12.82,12.82,0,0,1,9.9-.46l2.64-1.29c3-1.52,4.26-5,6.2-7.78.72-1,1.57-2,2.33-3a23.47,23.47,0,0,0,3.58-6.69l1-1.78q2,1,3.87,2.25a5.3,5.3,0,0,1,1.85,1.7,5.7,5.7,0,0,1,.45,3l-.61,19.72a41.49,41.49,0,0,0,.16,6.69,40.59,40.59,0,0,0,1.47,6.16l3.4,11.6a6.24,6.24,0,0,1,.36,2.45,5.51,5.51,0,0,1-1.08,2.31c-3.43,4.86-8.45,8.31-13.37,11.66-1.64,1.11-3.74,2.26-5.47,1.31-1.28-.7-1.77-2.25-2.65-3.41-1.59-2.12-4.38-2.87-6.6-4.33-3.07-2-5-5.37-6.73-8.59l-1.64-1.66a11,11,0,0,1-1.63-2.09c-.87-1.58-.92-3.51-1.71-5.14a12.35,12.35,0,0,0-2.79-3.38l-6.87-6.56-.37.56q-.27,5.57,0,11.13a17.74,17.74,0,0,1-.53,6.82l-2.58,1.55a36.46,36.46,0,0,1-1.6-4,18.74,18.74,0,0,1-.29-4.85,53.24,53.24,0,0,0-1.15-11.61l.12-.9a10.75,10.75,0,0,0-4.86-2.82,32.15,32.15,0,0,0-5.6-1l-1.66,2a5.33,5.33,0,0,0,.86,3.31c.58,1,1.31,1.92,1.82,3,1.33,2.69,1.08,5.87.73,8.85l-.74,2.27c3.78,5.95,4,13.41,4.09,20.46l.14,9.69,0,2.33q-.18,4.07,0,8.15l.3,2.82c-.17,2.11.25,4.26-.11,6.35a17.19,17.19,0,0,1-2,4.94,53.45,53.45,0,0,1-3.65,6.21l-1.92,2-.46,4.16,0,1.66a17.09,17.09,0,0,0,.67,3.16l1.17,2a19.06,19.06,0,0,1,10.14,3.49l2-2.16.17-13.66a.62.62,0,0,1,.1-.4c.17-.21.5-.13.74,0a18.36,18.36,0,0,1,5.39,3.66l0,2.14a14.66,14.66,0,0,0-1.62,7.51,49,49,0,0,1-.22,7.76l0,1.73c-1.09,2,.35,4.63,2.46,5.44s4.51.2,6.5-.86a6.08,6.08,0,0,0,2.1-1.62c1.55-2,.66-5,1.09-7.5a3.73,3.73,0,0,1,.9-2,2,2,0,0,1,2-.55,8.29,8.29,0,0,1,1.14.75,2.56,2.56,0,0,0,1.85.32c.29-.07.64-.16.85.05a.76.76,0,0,1,.1.63c-.38,2.32-1.65,4.38-2.59,6.54a23.8,23.8,0,0,0-2,9.88l-.63,2.73c-2.14.38-4-1.23-6-2.09-2.45-1-5.2-1-7.86-1a2.38,2.38,0,0,1-1.4-.29,2.32,2.32,0,0,1-.75-1.56c-.59-3.12-.82-6.41-2.45-9.14l-2-1.59a14,14,0,0,0-5.55-3.59,9.49,9.49,0,0,0-6.54.17l.72,2.84a14.24,14.24,0,0,0,1.07,3.06c.43.8,1,1.51,1.37,2.34a9.79,9.79,0,0,1,.55,2.06l.68,3.54,0,2.17c-1,1-2,1.9-3,2.86a28.89,28.89,0,0,0-8.44,14.16,3,3,0,0,0,.24,2.58,2.45,2.45,0,0,0,2.64.49c.91-.29,1.72-.84,2.64-1.1a6.38,6.38,0,0,0,7.61,3.26,8.64,8.64,0,0,1,2-.61c1.53-.14,2.82,1.11,3.71,2.36a18.77,18.77,0,0,1,3.3,12.75,20.16,20.16,0,0,0-.35,4.44c.25,2.35,1.76,4.53,1.54,6.88-.16,1.72-1.21,3.2-2,4.74a27,27,0,0,0-2.3,7.64,6.91,6.91,0,0,0,0,3.38,2.52,2.52,0,0,0,2.53,1.87c.88-.12,1.77-.86,2.55-.44a1.74,1.74,0,0,1,.72.92c.77,1.79.92,3.78,1.45,5.65s1.62,3.78,3.45,4.41,3.63-.08,5.27-.89,3.34-1.91,4.06-3.61a9.14,9.14,0,0,0,.5-3.46l.07-7.45.46-3.34a16.08,16.08,0,0,1-1.45-7.49c2.81.76,6.09,2,6.77,4.8.25,1.07.07,2.2.31,3.27a4.51,4.51,0,0,0,6,3c2.2-1,3.12-3.59,3.82-5.91l4-13.19c.29-1,.69-2,1.63-2.39a2.69,2.69,0,0,1,2.66.92c2.13,2.13,2.52,5.38,3,8.35s1.57,6.25,4.29,7.55c1.8.87,3.91.64,5.88.29a7.29,7.29,0,0,0,3.55-1.34c1.68-1.42,1.83-4,1.24-6.13s-1.77-4.06-2.31-6.19c-.22-.87-.23-2,.55-2.41a2.15,2.15,0,0,1,1.87.2c2.29,1.06,5,2.5,7.15,1.22,1.24-.74,1.94-2.23,3.24-2.86s2.89-.22,4.36-.2a8.17,8.17,0,0,0,5.37-1.9,5.52,5.52,0,0,1,1.82-1.26,2.81,2.81,0,0,1,2.83,1.15,10.33,10.33,0,0,1,1.39,2.92,23,23,0,0,0,4.89,7.77c1.8,1.86,4.46,3.48,6.87,2.52,1.65-.66,2.63-2.34,3.45-3.93,2.13-4.12,4.06-8.83,2.75-13.28-.52-1.75-1.51-3.33-2-5.11-.94-3.75.75-7.67,2.93-10.86s4.92-6.06,6.51-9.59l1.86,1.8a13.83,13.83,0,0,0,15,2.89,10.08,10.08,0,0,1,3.84-1.28c3,0,4.67,3.43,5.28,6.35,1.49,7.16.83,14.59,1.7,21.85a10.86,10.86,0,0,0,1.34,4.59c2,3.11,6.25,3.72,9.93,3.48a10.23,10.23,0,0,0,5.74-1.72c5.27-4.14,1.37-14.64,7.15-18,1.91-1.12,4.29-1,6.37-1.74,4.93-1.79,6.76-7.8,10.75-11.2,1.38-1.18,3.4-2,5-1.13,1.92,1.12,1.75,3.89,1.37,6.08a36.52,36.52,0,0,0-.64,11.41c.55,3.78,2.32,7.55,5.47,9.72a11,11,0,0,0,13.86-1.53c2.77-3,3.6-7.3,3.7-11.37s-.41-8.19.21-12.22c.34-2.19,1.14-4.52,3-5.74,2.25-1.47,5.23-.85,7.86-1.38,4-.81,7-4.22,8.88-7.83,6.19-11.73,3.42-27.49-6.4-36.4-1.54-1.4-3.39-3-3.14-5.09.29-2.45,3.32-3.48,5.79-3.43s5.16.58,7.22-.78l2.72-2.19c1.66-4.17.29-9.07-2.47-12.6s-6.7-5.91-10.69-7.94c-2.48-1.27-5.1-2.5-6.85-4.66a18.25,18.25,0,0,1-2.53-4.88l-3.11-7.87c-.89-2.25-1.79-4.65-1.3-7,.54-2.56,2.62-4.52,4.79-6s4.58-2.67,6.37-4.58,2.84-4.86,1.66-7.2c-1.51-3-5.56-3.42-8.92-3.43l-9.71-.05c-1.54,0-3.33-.15-4.18-1.42a4,4,0,0,1-.51-2.21c0-3.8,1.84-7.31,3.26-10.84a51.61,51.61,0,0,0,3.7-20.29c-.06-2.56-.2-5.42,1.51-7.32a6.46,6.46,0,0,1,3-1.75c5.73-1.71,11.61,1.57,17.42,3a29.34,29.34,0,0,0,28.42-8.81l1.33-2.16a41.93,41.93,0,0,0,4.8-12.14,21,21,0,0,0-1.22-12.83c-3.48-7.49-13.09-11.48-20.85-8.65-2.39.86-4.59,2.28-7.08,2.78-5.73,1.14-11.09-2.73-16.31-5.36-8-4-17.19-5.38-26.17-5.1s-17.82,2.12-26.56,4.18l-1.61-2.55a8.81,8.81,0,0,0-5.09-5.26,14,14,0,0,0-7.43-.72,2.57,2.57,0,0,1-2.22-.32,2.42,2.42,0,0,1-.32-2.1,72.53,72.53,0,0,0,.45-17.42c-.23-2.39-.58-4.84,0-7.16,1.65-6.21,9.45-9.3,11-15.54.33-1.4.32-2.86.66-4.26.77-3.14,3.24-5.6,5.92-7.42s5.67-3.18,8.25-5.14a22.29,22.29,0,0,0,7.54-23.94l1-6.18a40.05,40.05,0,0,0-.73-72.12c-12.27-5.77-26.49-5-40-4,2.08-11.56,4-24.27-2-34.39-3.45-5.85-9.1-10-14.59-14-4.87-3.52-9.77-7.07-15.22-9.58-4.79-2.21-9.95-3.59-14.6-6.08a34.78,34.78,0,0,1-17.74-25.64l2.92-6.7c6.27-9.1,15.82-15.29,24.15-22.56a112,112,0,0,0,33.69-52.83,5,5,0,0,1,1.08-2.27,4.74,4.74,0,0,1,2.53-1.11,35.25,35.25,0,0,1,11-.5c3.76.42,7.48,1.44,11.27,1.38a19.77,19.77,0,0,0,17.59-28.15c10.16-.73,17.88-10.31,19.93-20.29s-.29-20.26-2.6-30.17l-3-8.39a16.23,16.23,0,0,0-13-16.82,6.54,6.54,0,0,1-3-.9,6.11,6.11,0,0,1-1.58-2.31,25.06,25.06,0,0,0-13-11.93c-3.27-1.31-6.83-1.93-9.87-3.69s-5.56-5.22-4.72-8.64c.7-2.84,3.49-4.71,6.31-5.49s5.79-.74,8.67-1.26c12.54-2.29,20.49-14.38,30.94-21.68,4.88-3.41,10.39-5.8,15.38-9s9.61-7.63,11.29-13.34c1.75-6,0-12.54-3.36-17.79s-8.09-9.44-12.81-13.49c-.82-.7-1.72-1.58-1.62-2.66s1.39-1.91,2.48-2.48c7.42-3.91,12.18-11.73,14.23-19.87s1.72-16.67,1.19-25l-3.22-8.31c-4.47-12.53-13.17-23.07-22.46-32.58-4.17-4.28-8.63-8.5-14.16-10.76-11.89-4.87-25.65.53-35.82,8.38-.93.72-2,1.5-3.16,1.26a4.36,4.36,0,0,1-1.92-1.3c-7.65-7.3-19-9.26-29.56-9-5,.13-10.15.72-14.76,2.74-7.9,3.46-13.79,10.87-22.07,13.27-6.21,1.8-13.26.61-18.89,3.76a20.41,20.41,0,0,0-7.27,7.79c-8.65,14.84-6.13,35.33,5.87,47.63,1.6,1.64,3.46,3.39,3.55,5.68.13,3.33-3.49,5.47-6.7,6.37-4.48,1.24-10.09,1.23-12.83-2.52-1.51-2.06-1.75-4.76-1.94-7.31l-3.93-53.57c-.68-9.27-1.14-19.39,4.27-27,4.5-6.3,12.2-9.49,17.54-15.09l5.24-5.32c4.27-7.64,8.6-15.45,10.33-24s.48-18.23-5.38-24.74c-4.13-4.6-10-7.13-15.36-10.21a6.6,6.6,0,0,1-2.84-2.53c-1-1.94.16-4.37,1.89-5.66s3.92-1.74,6-2.31c20.23-5.5,35.65-25.32,36-46.28.07-4.08-.43-8.32-2.57-11.79s-5.64-5.74-8.78-8.29a56.25,56.25,0,0,1-12.26-13.93c-5.84-9.43-9.73-21.42-19.88-25.9-4.71-2.07-10.08-2.1-15.16-1.33a51.55,51.55,0,0,0-24.29,10.65c-7.09,5.67-12.53,13.11-17.88,20.45a59.64,59.64,0,0,0-5.72-16.82c-4.29-8.27-10.7-15.6-18.92-20s-18.33-5.55-27-2.13l-5.18,6-7.92,12.09a13,13,0,0,1-2.61,3.18,13.94,13.94,0,0,1-3.29,1.72,69.86,69.86,0,0,0-6.61,3.26c-3.38,1.9-6.74,4.23-8.52,7.67a19.45,19.45,0,0,0-1.78,7.11,57.1,57.1,0,0,0,11.81,40.32l1,5.7c3.88,9,12.55,15,17.65,23.32a28.62,28.62,0,0,0-14.31-3.09l-9.3,5a35.15,35.15,0,0,0-24.57,7.77l-8.29,4c-1.46,4.19-2.93,8.43-3.31,12.85s.43,9.11,3.15,12.61c4.53,5.84,13.65,7.77,16.1,14.74,2,5.72-1.49,12.71,1.73,17.85l1.36,8.31c4.27,6.12,11.42,9.85,18.78,11.06s14.95.09,22.12-2a24.36,24.36,0,0,0,7.66-3.37,27.45,27.45,0,0,0,6.1-7.07q6.48-9.62,12.33-19.63c3.35,8.36,6.72,16.77,11.51,24.4s11.12,14.51,19.14,18.6l2.19,5.85c3.54,15.14,7.08,30.3,9.28,45.7,6.74,47.13.78,95-2.69,142.49-1.83,25.07-2.8,51.15,6.76,74.4l-2.06,5.73a97,97,0,0,0-22.73,63.74,6.65,6.65,0,0,1-.71,3.91,6.9,6.9,0,0,1-2.64,2,41.09,41.09,0,0,0-16.32,16c-1.75,3.11-3.09,6.46-5.15,9.37-2.76,3.91-6.75,6.93-8.93,11.19-3.46,6.74-1.69,15-3.85,22.27a6.76,6.76,0,0,1-2,3.44c-1.39,1.1-3.32,1.13-5.09,1.11-4,0-8.68-.42-10.9-3.76-1.24-1.87-1.38-4.23-1.47-6.46-1.38-35.14-.58-70.52-6.37-105.2s-18.88-69.31-43.94-94l1.95-4.52c5.77-5.07,8.94-12.59,10.17-20.17s.71-15.33.19-23l-1.28-18.68c-.31-4.57-.65-9.26-2.59-13.41s-5.87-7.7-10.45-7.82l-5-2.38c-2.38-.2-4.84-.38-7.08.44a8.48,8.48,0,0,0-5.15,9.53,27.57,27.57,0,0,0-17.19,4.43l-2-3.16-6.11-.31a57.46,57.46,0,0,0-3.25-22.51c-1.65-4.62-4.11-9.26-8.34-11.74a20.29,20.29,0,0,0-7.9-2.32c-17.59-2.11-34.72,5.77-50.33,14.16-3.45,1.85-7,3.83-9.36,7-3.18,4.19-3.76,9.82-3.29,15.07s1.83,10.38,2.07,15.64c-14.51,5.66-24.65,21-24.12,36.61.14,4.31,1.08,8.73,3.59,12.25,1.34,1.88,3.1,3.47,4.22,5.48,2,3.58,1.68,7.92,1.54,12-.22,6.58.16,13.33,2.67,19.42s7.48,11.45,13.87,13c7,1.74,14.27-1.17,20.51-4.76l3.57,1.79c1.08,3.31,2.22,6.74,4.58,9.29a18.87,18.87,0,0,0,5.88,4,44.37,44.37,0,0,0,27.61,3.42Zm56.79,426.3-4.27-14.32c-.46-1.54-1.19-3.35-2.77-3.66a4.39,4.39,0,0,0-2.49.52,54.72,54.72,0,0,0-20.4,15.63,26.7,26.7,0,0,0-4.1,6.57,29.23,29.23,0,0,0-1.72,10.72,82.72,82.72,0,0,0,.45,10c.22,2.09.58,4.31,2,5.85s3.68,2.08,5.79,2.27c4.49.42,9.37-.46,12.6-3.61s4.22-7.9,5.4-12.28,3.08-9.09,7.16-11.06Z"></path>
    <path data-name="6a" data-official="" data-plain="Section of fruit" data-loc="" d="M1406.32,2752.22c1-5.13,4.42-9.39,6.54-14.15s2.5-11.21-1.64-14.4c-3.81-2.94-9.23-1.55-14-.69a50.53,50.53,0,0,1-13.45.6,5.33,5.33,0,0,1-2.75-.78,5.06,5.06,0,0,1-1.65-3.07,21.36,21.36,0,0,1,6.61-20.44c3.06-2.67,7.18-4.87,8-8.85.64-3.07-1-6.09-2.19-9a39.65,39.65,0,0,1,20.92-52c5.37-2.3,11.17-3.38,17-4.19a199.5,199.5,0,0,1,37.84-1.68c11,.55,22.34,2.19,31.36,8.43,10.11,7,16,19.44,15.68,31.73s-6.42,24.17-15.79,32.12c-4.21,3.57-9,6.39-13,10.16s-7.33,8.82-7.23,14.33c.15,8.36,8,15.69,6.38,23.91-.78,4.1-3.87,7.46-7.49,9.54s-7.76,3-11.84,3.93c-17.24,3.72-35.33,6.24-52.36,1.69Z"></path>
    <path data-name="6b" data-official="" data-plain="Pollen case" data-loc="" d="M1537.54,2769.72c-4.06-1.8-6-6.49-6.56-10.89-1.85-15.37,8.93-29.22,12.22-44.34,3.79-17.48-2.61-35.32-6.82-52.7-2.07-8.52-3.61-17.47-1.51-26,1.24-5,3.71-9.67,6.27-14.18,3-5.35,6.59-10.94,12.28-13.26,7.29-3,15.51.37,22.46,4.08a23.75,23.75,0,0,1,7.23,5.2c2.6,3.08,3.56,7.18,4.35,11.13,3.61,18.07,5.2,37.38-1.68,54.48-1.9,4.74-4.44,9.24-5.94,14.12s-1.89,10.4.46,14.94c1.41,2.72,3.67,4.88,5.64,7.23,9.06,10.9,10.91,28.31,1.68,39.06-4.66,5.43-11.49,8.63-18.47,10.18s-14.2,1.57-21.36,1.59Z"></path>
    <path data-name="6c" data-official="" data-plain="Spore-case" data-loc="" d="M1612.9,2751.72c-6.53,1.32-12.92-4.16-14.86-10.53s-.5-13.26,1.33-19.66,4.07-12.89,3.71-19.54c-.31-5.88-2.62-11.44-4.38-17.06a92.79,92.79,0,0,1-4-34.65c.3-4,.89-8.08,2.78-11.62a34.28,34.28,0,0,1,5.15-6.69l9.56-10.53c2.72-3,5.66-6.13,9.55-7.23,6-1.69,12.19,2,17,6,8.23,6.81,15.41,15.22,19.25,25.2s4,21.64-1,31.08c-2.89,5.45-7.33,9.93-10.57,15.18s-5.25,11.95-2.67,17.56c1.17,2.53,3.15,4.59,4.66,6.94,5.41,8.47,3.68,20.32-2.75,28s-16.7,11.58-26.75,11.83Z"></path>
    <path data-name="6d" data-official="" data-plain="Stalk-bearing Spores" data-loc="" d="M1661.31,2780.12c1.54,5.56,6.6,9.61,12.08,11.43s11.38,1.76,17.15,1.57c12.89-.43,26.68-1.76,36.67-9.92a21.34,21.34,0,0,0,6.06-7.46c1.87-4.1,1.92-8.79,1.33-13.25a49.86,49.86,0,0,0-6.27-18.43c-1.63-2.82-3.6-5.71-3.55-9A17.37,17.37,0,0,1,1726,2730a66.89,66.89,0,0,0,2.75-29.4c-.54-4.14-1.59-8.45-4.51-11.42s-7.49-4.6-8.49-8.57c-.71-2.85.84-5.8,2.82-8s4.44-3.88,6.19-6.24c3-4.06,3.47-9.39,3.85-14.42l1.25-17c6.25,1.75,13.85,3.21,18.51-1.31,4-3.85,3.76-10.18,3.28-15.69-.4-4.4-.8-8.87-2.36-13s-4.45-8-8.53-9.67l-1.07-3.35c3-2,4.12-5.94,4.11-9.56s-.86-7.22-.62-10.83a6,6,0,0,1,.93-3.2c1.44-2,4.32-2,6.7-2.61,5.24-1.31,9.12-6.35,9.66-11.72a17.32,17.32,0,0,0-6-14.36c-2.29-2-5.36-4.32-4.64-7.27a8.17,8.17,0,0,1,1.13-2.27,19.41,19.41,0,0,0-10-28.24c-3.12-1.14-6.9-1.75-8.54-4.63a8.43,8.43,0,0,1-.66-5.3,21.86,21.86,0,0,1,14.19-17.36c4.47-1.55,9.78-1.82,12.88-5.39,3.23-3.73,2.54-9.44.73-14a22.87,22.87,0,0,0-7.8-10.64c-3.67-2.55-8.63-3.48-12.7-1.62l-7.75-2.84c1.31,4.45-.62,9.16-2.75,13.28-.82,1.59-1.8,3.27-3.45,3.93-2.41,1-5.07-.66-6.87-2.52l-3.62,6.36a35,35,0,0,1-16.4,17.56c-7,3.5-16.27,5.83-18.17,13.41-1.46,5.85,2.54,12.39,0,17.85-1.85,4-6.43,5.75-9.73,8.64-7.67,6.73-6.7,20.81,1.83,26.43,3.9,2.56,8.93,3.54,12,7.07s3.32,8.82,3.31,13.6a804.91,804.91,0,0,1-5.09,87.93c-.83,7.34-1.78,14.75-4.29,21.7-3.48,9.58-9.76,17.85-14.29,27s-7.22,20.12-3,29.42c2,4.5,5.57,8.4,6.44,13.26,1.56,8.76-6,16.54-7.13,25.36Z"></path>
    <path data-name="7" data-official="Phylloglossum Drummondii" data-plain="entire plant, natural size" data-loc="" d="M1209.39,2181.12c5.21,1.82,11.23-.29,15.12-4.2s6-9.32,7-14.73,1.29-11,2.09-16.42a75.87,75.87,0,0,1,12.36-31.62c3.1-4.55,6.7-8.76,9.63-13.42s5.2-9.95,5.24-15.45-2.49-11.27-7.29-14l-4.2-4,10.11-39.38,7.56-2.9c1.78-3.7,7.24-4.22,10.71-2s5.34,6.15,6.82,10c2.91,7.55,5,15.53,4.94,23.62,0,7-1.69,14-2.69,21a226.3,226.3,0,0,0-1.68,25.77l-2.35,85.7,1.25,2.89a366.51,366.51,0,0,1,66.49-1.37c2,.14,4.09.36,5.51,1.72,1.58,1.51,1.79,3.92,1.89,6.1.16,3.28.29,6.73-1.2,9.65-2,4-6.62,6-10.93,7.39a86.9,86.9,0,0,1-32.36,3.74c-1.1-.09-2.43-.1-3.06.81a3,3,0,0,0-.39,1.68c-.06,4.67,1.61,9.17,2.22,13.8s-.17,10-3.91,12.77l-3.31,5a71.4,71.4,0,0,1-33.7-7.81c-5.69-2.93-11.14-6.7-16.86-9.53l-.7-5.21c0-4.08-3.71-7.47-7.73-8.2s-8.13.61-11.81,2.38c-8.18,4-16,10.32-25.06,9.68A21.06,21.06,0,0,1,1196,2228a36.67,36.67,0,0,1-7.78-12.68l-1-8.6a207.32,207.32,0,0,0,11.06-18Z"></path>
    <path data-name="7a" data-official="" data-plain="Spike of fructification, magnified" data-loc="" d="M1782.73,2765.36l8.33-24.06c.94-2.71,1.89-5.64,1.12-8.41-1.36-4.85-7-6.76-11.6-8.77-17.08-7.44-28.24-26.62-26.28-45.15.64-6,2.49-11.79,2.93-17.79.54-7.34-1-15.12,2.08-21.81,2-4.34,5.7-7.69,7.75-12,5.75-12.12-3.07-28.14,4.34-39.32,2.93-4.43,7.92-7.13,11-11.45,5.3-7.41,3.82-17.44,4.12-26.55.18-5.51,2-12.11,7.39-13.49,4.21-1.08,8.31,1.71,12.46,3,6.78,2.08,14.3.08,21.1,2.09,4.9,1.45,9,4.84,12.86,8.13,6,5.09,12.13,10.27,16.55,16.8s7,14.71,5.23,22.4c-1.09,4.7-3.73,9.73-1.54,14,1,1.91,2.74,3.25,4.32,4.69,10.73,9.76,13.94,26.86,7.47,39.84-1.83,3.66-4.31,7-6,10.71-3.25,7.28-3.16,15.58-5.24,23.28-2.55,9.41-8.23,17.59-12.7,26.25s-7.84,18.65-5.25,28.05c1.25,4.53,3.79,8.57,5.79,12.82a57.05,57.05,0,0,1,4.41,34.54,19.85,19.85,0,0,1-2.88,7.83c-2.9,4.12-8,6-13,7.1-10.69,2.47-22.12,2.6-32.43-1.15s-19.32-11.72-22.93-22.08Z"></path>
</svg>
