
<svg xmlns="http://www.w3.org/2000/svg" viewBox="0 0 2059 2745" id="illustration" preserveAspectRatio="xMidYMid meet">
    <title>Bryaceæ</title>
    <path data-name="1" data-official="Bryum ligulatum" data-plain="" data-loc="Moist banks, England" d="M341.05,1629.93c5.24-3.59,12.25-2.66,18.43-1.24s12.8,3.18,18.71.88a4.09,4.09,0,0,0,1.81-1.17c1.13-1.44.28-3.53-.59-5.14-4-7.4-8.39-15.2-15.79-19.19-6.19-3.34-13.54-3.5-20.57-3.36-6.21.11-12.58.43-18.29,2.86-1,.44-2.26,1-3.25.4a3.58,3.58,0,0,1-1.27-1.57c-1.63-3.15-3.17-7.18-1-10,1.46-1.87,4.05-2.38,5.94-3.8,4.76-3.56,3.52-10.92,1.45-16.48l-1.67-6.57c-6.94-8.1-15.46-15.7-26-17.55s-22.93,4.33-24.51,14.87c-.52,3.48.14,7.07-.56,10.52s-3.55,6.95-7,6.48c-5.25-5.13-1.72-14.33-4.67-21.06-2.71-6.17-10.69-8.76-17.18-6.95s-11.53,7-15,12.79c-.69,1.13-1.49,2.41-2.78,2.66A4.19,4.19,0,0,1,224,1566c-5.41-4.55-8.56-11.75-14.89-14.89-5.19-2.59-11.37-1.84-17.06-.7-6.81,1.35-13.67,3.24-19.43,7.12s-10.29,10.09-10.68,17,4.29,14.24,11.12,15.48c5,.91,10-1.33,14.8-2.85s10.75-2.12,14.47,1.34a15.6,15.6,0,0,1,3.54,6.11,92.32,92.32,0,0,1,5.14,21.17c-6.5-4.78-14.16-9.82-22-8-6,1.39-10.55,6.69-12.77,12.48s-2.53,12.09-3,18.27c-.43,5.89-1,11.88.24,17.65s4.57,11.44,10,13.86,12.81.48,15.09-5a1091,1091,0,0,0,21.05,139.16l2.55,5.92a24.39,24.39,0,0,0-10.35,16.42c-.68,4.57.41,10,4.44,12.24a6.64,6.64,0,0,1,2.32,1.54,4.71,4.71,0,0,1,.69,2.34l3.08,27.28a17.38,17.38,0,0,0-17,21.32c1.57,6.75,6.92,11.87,12,16.57a27.9,27.9,0,0,0-16.78,24.35c-.17,5.6,2.2,12.07,7.58,13.65a24.52,24.52,0,0,0,5.62.54,26.55,26.55,0,0,1,14.14,5.06,4.6,4.6,0,0,1,1.31,1.29c.84,1.41.1,3.31-1.13,4.39a18.55,18.55,0,0,1-4.32,2.33,16.6,16.6,0,0,0-4.12,26.94l-.48,4.26c-2.71,2.81-6.24,4.68-9.08,7.36s-5,6.71-3.75,10.41c1.56,4.66,7.36,6.15,12.27,6.39,1.88.09,4,.18,5.32,1.48,1.64,1.57,1.51,4.31.45,6.32s-2.83,3.51-4.35,5.19c-3.43,3.78-5.68,8.82-5.35,13.91s3.55,10.1,8.36,11.8c2.38.83,5.13.92,7.07,2.52s2.51,4,3.27,6.28a41.6,41.6,0,0,0,23.55,25l4.91,4.4c1.32,16,7.54,31.32,16.38,44.7s20.22,24.92,32.45,35.3c11.84,10,24.93,19.26,40,23.11,4.47,1.14,9,1.79,13.57,2.75a151.73,151.73,0,0,1,19.66,5.81c14.52,5.19,28.69,11.5,41.73,19.72,3.4,2.14,6.82,4.51,8.93,7.93s2.55,8.17,0,11.31c-4.83,6-15.74,2.07-21.4,7.34l-2.7,6a59.24,59.24,0,0,0-3,28.18c.65,4.7,2.07,9.66,5.75,12.66,3.9,3.18,9.4,3.42,14.42,3,7.92-.62,16.67-3.1,20.52-10,4.33-7.79.82-18.21,5.26-25.93,2.9-5,8.71-8,11.25-13.2,1.94-4,1.65-8.7.84-13.07-4.7-25.27-24.76-45.13-46.82-58.32s-46.77-21.37-69.28-33.78-43.7-30.55-51-55.2c-1.22-4.12-1.7-9.34,1.69-12,2-1.56,4.74-1.65,7.18-2.35,8.75-2.5,13.05-12.59,13.52-21.68s-1.65-18.25-.3-27.25c1.93-12.87,10.76-26,5.38-37.83-1.55-3.44-4.19-6.29-5.77-9.71-2.29-5-2.16-10.71-2-16.19l1.32-39.93c.18-5.56.38-11.21,2.15-16.48,1.12-3.34,2.83-6.44,4.11-9.71,6-15.35.74-34.33-12.23-44.47L312,1845.3c7.45-51.35,4.81-103.64-.45-155.25-.72-7.06-1.49-14.17-.9-21.24A55.88,55.88,0,0,1,320.9,1641c3-4.15,7-8.13,12.06-8.77Z"></path>
    <path data-name="1a" data-official="" data-plain="Leaf magnified" data-loc="" d="M731.54,2681.77c10.21-43.94,2-90.85,14.19-134.29,3.17-11.3,7.67-22.17,12.29-33,5.2-12.15,10.7-24.47,19.6-34.25a62.3,62.3,0,0,1,34.79-19.22c4.16-.74,8.84-.94,12.19,1.63,4,3,4.61,8.8,4.08,13.79-2.93,27.56-29.15,47.16-36.73,73.82-2.64,9.27-2.9,19-2.87,28.68.07,19.19,1.16,38.83-4.73,57.09-2.56,7.94-6.44,16.3-3.91,24.25,2.16,6.77,8.64,11.63,10.27,18.55,1.77,7.49-2.91,15.33-9.37,19.52s-14.32,5.46-22,6.35c-7,.82-14.42,1.35-21-1.37s-11.86-9.7-10.34-16.62Z"></path>
    <path data-name="2" data-official="Sphagnum laitfolium" data-plain="" data-loc="Bogs, Britain" d="M371.28,1595.56a12.05,12.05,0,0,1,4.78-9.17c2.17-1.61,4.81-2.43,7.09-3.87s4.29-3.88,3.94-6.56-2.71-4.37-4.88-5.83l-14.15-9.54c-2.6-1.75-5.27-3.57-7-6.18a20,20,0,0,1-2.73-8.06,57.5,57.5,0,0,1,.77-22.1c1.51-6.51,5-13.54,11.52-15.16,1.9-.48,4-.49,5.57-1.73,2-1.66,2.06-4.7,2.84-7.22,1.71-5.55,7.41-9,9.91-14.21,1.67-3.51,1.76-7.55,1.78-11.45,0-6.08-.17-12.68-4-17.4-3.05-3.77-8-5.72-10.86-9.61-3.21-4.3-3.35-10.07-3.37-15.43l-.05-17.07c0-6.26.29-13.31,4.92-17.52,3.49-3.18,8.6-3.85,13.32-3.6,3.66.2,7.4.89,10.48,2.87,7.79,5,9.13,16.54,16.74,21.83,2.08-6.24,4.4-12.82,9.49-17,6.9-5.66,17.64-5.08,24.91.1s11.26,14.09,12,23c.39,4.57.1,9.45,2.43,13.39,5.24-5.52,11.92-10,19.45-11.06s15.91,2.11,19.6,8.76l.82,6.92a79.82,79.82,0,0,1,4.67,32.84c-.46,6.62-1.72,13.41.16,19.77a2.29,2.29,0,0,0,.89,1.42,2.41,2.41,0,0,0,1.88,0l20.24-6.19a8.23,8.23,0,0,0,3-1.41,7.29,7.29,0,0,0,2-4.3c2.49-12.73-2.84-27.1,3.75-38.27a20.18,20.18,0,0,1,35.41,1.19c2.29,4.56,2.77,9.81,2.76,14.91a85.84,85.84,0,0,1-17.68,51.64c-2.33,3-5,6.39-4.57,10.18.39,3.3,3,5.81,4.55,8.77a13,13,0,0,1-14.69,18.41l.31,7.65-4.74,4.33c-4.69,8.15-15.64,9.7-25,9.81-5.41.07-12.13.79-14,5.86A27.71,27.71,0,0,1,529,1595.75a47,47,0,0,0,2.61,6.1c3,4.93,8.78,7.2,14.12,9.34a228.38,228.38,0,0,1,22.55,10.5c5.63,3,11.24,6.33,15.36,11.2,4.75,5.63,7.12,12.84,9.39,19.86,1.08,3.34,2.14,7,.71,10.26-1.51,3.37-5.4,5.09-9.08,5.35-8.51.62-16.13-4.71-23.45-9.1a128.3,128.3,0,0,0-32.75-13.87,111,111,0,0,1-1.28,23.53,3.84,3.84,0,0,0,.09,2.28c.49,1,1.72,1.35,2.8,1.63a57.28,57.28,0,0,1,40.5,40.69l.69,4.73c4.2,2.53,9.17,3.56,13.42,6,10.87,6.28,14.38,22.48,7.08,32.7a9,9,0,0,1-2.91,2.82c-2.06,1.13-4.6.87-6.86.22-6.91-2-12.3-7.26-18.27-11.28a56.76,56.76,0,0,0-36.79-9.28,2.93,2.93,0,0,0-1.43.4c-1.27.9-.47,2.88.37,4.2a42,42,0,0,1,6.45,21.87c.08,6.64-1.35,13.72,1.7,19.62a2.64,2.64,0,0,0,1.37,1.45c1,.32,2-.48,2.69-1.25a42.77,42.77,0,0,0,8.79-14c1.1-2.9,2-6.13,4.56-8,1.94-1.4,4.46-1.68,6.85-1.67,3.1,0,6.44.5,8.66,2.65,2.93,2.84,2.93,7.45,2.73,11.52l-.94,19.32a9.87,9.87,0,0,0,.3,3.76c.56,1.65,1.93,2.87,3.15,4.11a33.74,33.74,0,0,1,7.62,33.9l-8,1.51-14.62-3.51c-2.48-.6-5.29-1.14-7.41.27s-2.74,4.43-2.18,7,2,4.73,3.25,7a40.91,40.91,0,0,1,4.77,16.92c.29,5.18-.35,10.69,2,15.31,1.69,3.29,4.71,5.66,7.63,7.94l11.36,8.82c4,3.11,8.3,6.74,8.92,11.75.55,4.49-2.18,8.89-5.88,11.5s-8.21,3.73-12.64,4.6c1.92,2.77,3.88,5.61,4.83,8.85s.73,7-1.4,9.63c-2.93,3.6-8.23,3.89-12.87,3.89h-18.3a23,23,0,0,1,9.92,18.39c.06,3.85-.12,8.95,3.55,10.14a9.29,9.29,0,0,0,3.16.18,26.78,26.78,0,0,1,23.31,12.38l3.3,4.72c3.89,7,.33,17.1-7.12,20.12-4.66,1.88-9.9,1.19-14.92.89a90.24,90.24,0,0,0-13.95.22c-1.76.16-3.64.43-4.93,1.63-1.62,1.5-1.81,3.94-2,6.14-.88,11.37-4.65,23.61-14.26,29.76a36.89,36.89,0,0,0-5.49,3.61c-1.61,1.48-2.76,3.74-2.17,5.86.75,2.73,3.85,3.95,6.55,4.82,9.67,3.14,19.24,6.91,27.66,12.61s15.66,13.51,19.3,23c1.33,3.47,2.18,7.25,1.46,10.89-1.46,7.37-9.21,12.25-16.72,12.53s-14.67-3.08-21-7.1-12.25-8.82-19.06-12l-4.72,1.63c-1,8.78-2.07,17.63-1.41,26.44s3.12,17.71,8.47,24.75c2.86,3.78,6.5,7,9,11,4.38,7.22,4.45,16.28,3,24.59-.95,5.31-2.46,10.86-.76,16s6.24,8.7,9.48,13c6.29,8.39,7.31,20.73,1.53,29.47S522,2267,512.8,2262a13.58,13.58,0,0,1-4.88-4.3c-4.06-6.16-.7-14.56-2.63-21.68a15,15,0,0,0-7.51-9.28l-.79-7.27c-.45-3.87,2.83-7.12,3.91-10.87a15.7,15.7,0,0,0-.41-8.45c-3.63-13-14.59-23.34-16.92-36.65-1-5.81-.34-11.95-2.45-17.45-3.21-8.37-11.87-13-19.53-17.69-18.49-11.23-34.45-26.1-50.27-40.86-4-3.73-8.16-7.72-9.68-13-1.33-4.6-.47-9.74-2.41-14.12-2.45-5.53-9.09-9.24-9.21-15.3,0-2.89,1.48-5.54,2.26-8.33s.47-6.38-2.08-7.73a17.83,17.83,0,0,0-3.72-1c-4-1.08-6.42-5.48-6.46-9.63s1.78-8.08,3.78-11.72c3.33-6.09,7.25-11.82,11.16-17.54l19.58-28.62,1.6-6.39q10.42-25,20.87-50.05a10,10,0,0,0,1.12-5.06c-.32-2.27-2.12-4-3.77-5.57a113.87,113.87,0,0,1-33.19-63c-.71-4.33-.81-9.6,2.75-12.16,1.92-1.39,4.61-1.67,6.12-3.49,2.19-2.61.66-6.62-1.47-9.28-3.86-4.82-9.33-8.09-13.54-12.61a32.86,32.86,0,0,1-6.33-33.76l3.21-4.08c11.34-.26,21.15,9.58,32.48,9a2.16,2.16,0,0,0,1.64-.58,2.18,2.18,0,0,0,.28-1.63c-.74-7-4.66-13.39-9.34-18.7s-10.18-9.84-15-15c-4-4.25-7.68-9.93-6-15.51,1.57-5.37,7.37-8.17,12.67-10,.78-.26,1.67-.61,1.92-1.39a2.64,2.64,0,0,0-.3-1.81l-7.73-18.32a18.94,18.94,0,0,0-2.64-4.84c-1.78-2.14-4.4-3.37-6.74-4.89-11-7.15-15.8-22.47-10.85-34.62L380,1628.4c1.13-1.44.28-3.53-.59-5.14-4-7.4-8.39-15.2-15.79-19.19Z"></path>
    <path data-name="2a" data-official="" data-plain="Leaf" data-loc="" d="M794,2587.69c4.07,14.58,2.48,30.65,8.87,44.38a41.28,41.28,0,0,0,9.1,12.6c4.91,4.63,11.5,9.11,11.5,15.85,0,4.84-3.53,8.82-5.9,13a29.44,29.44,0,0,0-3.62,17.29,13.81,13.81,0,0,0,1.21,4.74,12.48,12.48,0,0,0,4.44,4.66c5.81,3.84,13.09,4.53,20.05,4.76a206.32,206.32,0,0,0,21.82-.43c7.49-.55,15.74-1.91,20.47-7.75a15.33,15.33,0,0,0-1.06-19.82c-2.55-2.52-6.33-4.8-6.09-8.37.18-2.66,2.64-4.55,5-5.7s5.1-2,6.77-4.07c2.83-3.51,1.49-8.62.4-13-2.43-9.81-2.82-20-4.79-29.93-3.72-18.8-13.12-36.27-25.84-50.61s-28.67-25.63-45.88-34l-7.92-3.28c-4.44,7.07-8.33,14.36-10.58,22.27-2.64,9.27-2.9,19-2.87,28.68Z"></path>
    <path data-name="2b" data-official="" data-plain="Spore-case" data-loc="" d="M904.14,2705.72c.15,4.2,3.44,7.79,7.27,9.5s8.17,1.91,12.38,1.94q7.46.06,14.9-.43c7-.47,14.24-1.38,20.19-5.1a14.83,14.83,0,0,0,5.85-6.26c1.17-2.63,1.21-5.61,1.06-8.49a70.36,70.36,0,0,0-4.11-20.28c-3.12-8.58-8-17.7-5-26.31l-1.63-4.46c-.53-5.38,4.28-9.68,6-14.79,1.49-4.3.75-9,0-13.5l-2.74-16.2c-.62-3.72-1.3-7.56-3.33-10.73-2.18-3.39-5.71-5.68-8.24-8.82s-3.85-8-1.18-11c.83-.94,2-1.61,2.59-2.71,1.53-2.81-1.39-6.24-.68-9.36.6-2.61,3.55-4,6.23-4.2s5.39.41,8,0a10.62,10.62,0,0,0,1.59-20.57c-4.67-1.55-10.77-.15-13.81-4-1.28-1.62-1.6-3.77-1.83-5.82-1.3-11.24-1.48-22.59-2.9-33.81s-4.19-22.5-10.18-32.1S919.11,2440.77,908,2439s-23.67,3.32-28.7,13.46a35,35,0,0,0-3.1,12.5,137.42,137.42,0,0,0,.05,19.88q1.14,21.36,3.11,42.67l.75,6.36a31.72,31.72,0,0,0,12.27,26.57,11.65,11.65,0,0,1,2.86,2.6c1.51,2.25.95,5.24,1.32,7.93,1,7.21,8.82,12.71,8,19.95a23.28,23.28,0,0,1-2.11,6.16,39.76,39.76,0,0,0-2.46,22.35c.79,4.34,2.3,8.53,3,12.88,1.15,7,.18,14.2.56,21.3.44,8.23,2.68,16.31,2.68,24.55,0,6.69-1.46,13.28-2.93,19.81Z"></path>
    <path data-name="3" data-official="Dicraum glaucum" data-plain="" data-loc="Heaths, England" d="M669.93,2095.27c-.38-6.91,3.11-13.35,5.33-19.9,6.89-20.36,1.65-43.4,9-63.62,4.17-11.49,12.09-21.18,18.08-31.84,9.86-17.55,14.4-37.69,15.86-57.76s0-40.24-1.48-60.31l-.21-6.54a1646.11,1646.11,0,0,0-28.89-187.9c-4.79-22.43-10.07-45.55-5.7-68.07,2.11-10.83,6.41-21.17,8.16-32.07,1.33-8.25,1.18-16.71,2.92-24.88,2.3-10.83,7.81-20.74,10.43-31.49,3.13-12.87,2-26.34,3-39.54a122.83,122.83,0,0,1,38.13-79.42c2.91-2.73,7.05-5.47,10.59-3.62,2.7,1.41,3.56,4.83,3.82,7.86,1.48,16.83-6.18,32.9-11.4,49a175.93,175.93,0,0,0-5.14,88.59c1.09,5.42,6,12.31,10.46,9a8.16,8.16,0,0,0,2.42-3.66,139.44,139.44,0,0,0,10.37-41.4c1.39-15.3.5-31.7,8.51-44.82,9.51-15.57,29.34-22,47.58-21.59,10,.24,20.15,2.28,28.35,7.92,5.78,4,10.5,12.15,6.19,17.68-4.68,6-14,2.53-21.52,1.42-18.26-2.7-35,13.33-39.9,31.15s-.84,36.7,3.16,54.72l2.9,7q.18,7.62.37,15.25c.1,4.36.62,9.48,4.37,11.72,2.82,1.68,6.42,1,9.65,1.64,7.34,1.43,11.76,10.91,8.15,17.45-1.49,2.7-4,4.7-5.83,7.15a20,20,0,0,0-1.25,21.93c9.27-3.85,19.31-6.62,29.29-5.47s19.87,6.84,23.87,16L871,1640a24.9,24.9,0,0,1,22.6-.29,29.71,29.71,0,0,1,14.79,17.44,55.77,55.77,0,0,1,2.25,14.26,199.36,199.36,0,0,1-11.27,78.49c-2.38,6.65-5.16,13.25-9.48,18.83-4.94,6.37-11.73,11.22-16.06,18-2.41,3.77-4,8-6.31,11.85s-5.74,7.33-10.13,8.24l-5,5.3c-3.74,12.33,0,25.68,5.29,37.43s12.17,22.93,15.15,35.47c2.66,11.15,2.09,22.87,4.65,34,2.63,11.5,8.46,22,13.21,32.77,28.14,64,16.47,142.79-26.33,198.06-7.47,9.63-16.17,19.5-17.13,31.64-.6,7.54,1.55,16.33-3.68,21.78-2.27,2.37-5.49,3.51-8.6,4.53-8.34,2.76-19.41,4.42-24.23-2.92-6.2-9.46,4.51-25.23-4.31-32.29-5.74-4.6-14.09-.46-20.15,3.69s-12.77,9-15.21,16.07c-2.55,7.44.08,15.64-.87,23.45-1.41,11.51-11.57,21.34-23.12,22.38s-23.29-6.83-26.72-17.91c-.78-2.5-1.25-5.28-3.12-7.12a10.24,10.24,0,0,0-5.26-2.38c-13.76-2.8-29.78,3.57-41.21-4.59-8-5.7-10.35-16.41-11.34-26.17a191,191,0,0,1,7.31-74.95Z"></path>
    <path data-name="4" data-official="Polytrichum commune" data-plain="" data-loc="Heaths, Britain" d="M988.68,1417.77a34.33,34.33,0,0,1-8.57,22.06c-2.5,2.81-5.56,5.37-6.65,9-1.57,5.19,1.39,11.36-1.46,16-1.53,2.5-4.43,3.85-6.19,6.2-4.84,6.43,1,15.88-1.28,23.6-.67,2.28-2,4.29-3.06,6.44-2.44,5.12-2.87,10.93-3.26,16.6q-1.62,23.49-3.25,47c-.39,5.55-.87,11.4-4,16-3.76-1.32-7.62-2.67-11.61-2.55s-8.17,2-9.88,5.61c-3.1,6.59,3.14,15.34-1,21.31-1.13,1.62-2.86,2.7-4.38,4-6.66,5.54-9.27,15.22-7,23.57s9,15.17,17.13,18.24l1.49,5.61c-1,7-8.19,12.09-8.74,19.16-.33,4.32,1.95,8.48,1.88,12.81-.07,3.92-2,7.53-3.13,11.29-3.34,11.49,1.72,24,9.49,33.1s18,15.68,27.37,23.11c2.61,2.07,5.24,4.31,6.66,7.33,1.26,2.69,1.44,5.75,1.55,8.73q.45,11.7.05,23.41a37.19,37.19,0,0,1-1.46,10.67c-2.14,6.36-7.4,11.28-9.72,17.58l-1.12,8.07a8.27,8.27,0,0,0,2,8.27,13.14,13.14,0,0,1,2.26,2.34c1.76,3-1.16,6.37-2.88,9.36-4.37,7.65-.68,17.45-2.77,26-.29,1.18-.82,2.48-2,2.92a4.39,4.39,0,0,1-2.69-.2c-7.5-2.13-15.64-3-23-.52s-13.81,8.92-14.52,16.68c-.26,2.84.22,5.77-.52,8.53a19.73,19.73,0,0,1-2.57,5.18l-8.44,13.55c-2.41,3.88-4.92,8.07-4.73,12.63.3,6.87,6.4,11.87,9.47,18,2.71,5.42,3,11.71,5,17.45,4.25,12.36,15.6,20.65,26.31,28.14,2.55,1.77,5.21,3.6,8.28,4,4.55.67,9.45-1.79,13.66.07,2.88,1.27,4.57,4.2,6.49,6.69,8.14,10.56,22.45,14.87,30.68,25.36l2.43,4.91a64.11,64.11,0,0,0,22.27,24.47c1.77,1.13,3.75,2.4,4.18,4.45.72,3.47-3.26,5.81-6.22,7.75-6.28,4.12-10.17,11.17-12,18.45s-1.85,14.88-1.85,22.38c0,2.91.14,6.16,2.22,8.19,1.89,1.84,4.89,2.07,7.43,1.36s4.77-2.22,7.07-3.52a48.88,48.88,0,0,1,10.39-4.37c4.29-1.24,9.75-1.5,12.34,2.13,1.9,2.67,1.38,6.31.69,9.51-2.47,11.49-6,23.17-4.11,34.76.72,4.42,2.21,8.7,2.7,13.15s-.21,9.33-3.27,12.6c-1.92,2-4.54,3.23-6.74,4.95-9.32,7.29-10,22.93-20.55,28.24-3.87,1.94-8.78,2.28-11.54,5.61-2.14,2.59-2.3,6.21-2.52,9.56a117.21,117.21,0,0,1-5.13,27.59l-3.11,9.64c-3.55,7.5-6.4,16.73-2,23.74,4.54,7.18,14.38,8.42,22.88,8.41,26.72,0,53.38-5.14,80-3.18,3.53.26,7.5.9,9.51,3.82,2.68,3.91.21,9.11-.52,13.8a18.23,18.23,0,0,0,6.53,16.69c6.14,4.89,14.7,5.22,22.51,4.42,6.27-.63,12.64-1.91,18-5.29s9.41-9.22,9.25-15.52c-.11-4.16-2-8.56-.16-12.31,2.31-4.8,8.85-5.27,14.18-5.06l61.44,2.43,4.85,1c12.17-1.16,24.4.69,36.61,1.29s25-.19,35.67-6.09a10.15,10.15,0,0,0,4.07-3.45,11.1,11.1,0,0,0,1.12-5.17c.56-11.55-.66-24.46-9.22-32.24-6.75-6.14-16.82-7.77-23.19-14.31-5.45-5.58-7.22-13.73-8-21.48s-1-15.77-4.13-22.91a30.16,30.16,0,0,0-24.12-17.55l-.89-4.67a119.75,119.75,0,0,0-10.45-43c-1.93-4.27-4.12-8.45-5.37-13a4.48,4.48,0,0,1-.12-2.82c.46-1.15,1.69-1.74,2.81-2.25a99.2,99.2,0,0,0,43.34-38.71c9.26-15.36,14.25-33.11,24.42-47.88,1.91-2.77,4-5.45,5.34-8.54,3-6.87,2.54-16.09,8.9-20,3-1.89,6.78-1.94,10.32-2.4a41,41,0,0,0,26.48-15l4.58-8.92c8-6.61,9-20.11,2-27.82-.9-1-2-2.07-2-3.43a5.22,5.22,0,0,1,1.12-2.75,111.18,111.18,0,0,0,12.19-24.95c2-5.93,3.65-12.22,7.63-17.06,2-2.45,4.55-4.43,6.53-6.9a20.47,20.47,0,0,0,2.25-21.41c-1.19-2.37-2.85-4.52-3.72-7-2.08-6,.75-12.45,3.52-18.15l18.83-38.73,1.29-7.07a13.81,13.81,0,0,0-2.13-11.81c-1.78-2.42-4.35-4.24-5.74-6.9-1.31-2.51-1.41-5.48-1.23-8.31a47.39,47.39,0,0,1,5.57-19.31c2.07-3.83,4.67-7.37,6.4-11.37s2.51-8.66.79-12.66a21.23,21.23,0,0,0-4.72-6.21c-12.51-12.68-28.37-24.51-46.14-23.49l-9.82-2.86a75.77,75.77,0,0,0-14.88-1.32c-5.91.06-12.84,1.51-15.28,6.89-1.91,4.22-.24,9.09,1.09,13.53a85.37,85.37,0,0,1-1.73,53.59,11.63,11.63,0,0,1-2.9,4.91c-1.45,1.25-3.76,1.73-5.29.56a5.81,5.81,0,0,1-1.78-3.18c-3.31-11.78,1.38-24.37,0-36.53-1.06-9.35-5.69-18.13-6-27.54-.12-3.91.51-7.8.52-11.71,0-7.6-2.25-15-2.87-22.58-.83-10.23,1.36-20.71-1-30.68-1-4.24-2.84-8.26-3.77-12.52-2.9-13.37,3.37-26.9,4.38-40.55l5.44-6.77a39.49,39.49,0,0,0-.64-21.74c-1-3.09-2.36-6-3.14-9.2-2.62-10.52,1.6-21.59.51-32.37a13.39,13.39,0,0,0-1.29-5c-2.5-4.71-8.59-5.89-13-8.91-5.06-3.47-7.79-9.43-9.57-15.3s-2.88-12-5.75-17.45c-3.35-6.36-9.23-12.3-8.33-19.44l.45-8c5.69-65.18,27.66-128.57,28.35-194,.18-16.81-1-33.73,1.4-50.35,2.22-15,7.4-29.46,11.85-44,14.66-47.9,21.78-98.32,42.39-144l1.84-5.75.38-36.56c.13-12.37.06-25.51-6.51-36-5.37-8.57-14.53-14.23-24.17-17.29s-19.85-3.78-29.95-4.38c-7.46-.44-15.33-.74-22,2.66-10.93,5.59-15,20.35-10.86,31.9s14.83,19.82,26.39,23.93,24,4.66,36.32,4.88c1.65,0,3.58.2,4.47,1.59a4.83,4.83,0,0,1,.33,3.38c-2,13.55-8.6,25.92-14.11,38.47-7.9,18-13.77,36.88-19,55.87A895.75,895.75,0,0,0,1261.38,1284l-.07,8.44-16.47,89.42c-4.5,24.44-9,48.9-11.69,73.61-1.26,11.58-2.13,23.28-5.28,34.49-2.48,8.82-6.34,17.19-9.16,25.9a116,116,0,0,0-5.47,42.15c.35,6.17.8,13.37-3.85,17.45-5.69,5-15.11,1.78-21.67,5.57,3.6-5.9-.69-13.5-5.74-18.21s-11.38-9-12.89-15.76c-1-4.59.46-9.34.53-14,.12-8.71-4.56-16.63-8.37-24.47l-1.06-9.19c-5.21-10.38-10.44-20.85-13.68-32-9-31.14-1.86-64.31,2.18-96.48a488.59,488.59,0,0,0-3.73-146.25c-3.58-20.14-8.44-40.11-10.31-60.49-3.13-34.18,2.17-69.1-5-102.67l1.09-7.64q-4.17-67.5-5.19-135.15c-.12-8.36-.2-16.84,1.83-25l1.7-5.29c1.36-6,7.63-9.18,12.8-12.47s10.32-9.24,7.91-14.88a19,19,0,0,0-3.18-4.43c-11.25-13.68-8.9-33.52-7.42-51.18a316.46,316.46,0,0,0,.93-37.46c-.2-5.69-2.43-13.19-8.11-12.89-3,.15-5.23,2.6-7.15,4.86-20.41,24.1-41.3,49.06-50.79,79.17-3.93,12.47-5.37,27.31,2.79,37.53,3.56,4.46,8.62,7.56,12,12.14,5,6.84,5.68,15.86,6.11,24.35q4.9,97.11,8.11,194.29l-.33,8.88,1.34,43.38c.42,13.72.87,27.63,4.85,40.77,2.47,8.18,6.28,15.93,8.38,24.21,2.32,9.12,2.51,18.64,2.69,28q.57,29.9,1.16,59.79c.72,37.65,1.09,77-15.76,110.67l-1.18,9.93c-8.55,9.34-5.55,24.83-12.52,35.41-1.9,2.87-4.47,5.27-6.26,8.21-3.14,5.17-3.56,11.53-3.33,17.57a95.13,95.13,0,0,0,2.65,18.85c.73,3,1.63,6.1,1.14,9.17-.56,3.53-2.86,6.49-4.54,9.65a29.67,29.67,0,0,0,0,27.4c1.78,3.32,4.26,6.51,4.42,10.27a19.3,19.3,0,0,1-1.06,5.9c-2,7.31-3.06,15.11-1.08,22.43,1.29,4.78,3.87,9.34,3.76,14.3s-4.81,10.27-9.42,8.46c-1.76-.69-3-2.23-4.44-3.48-7.36-6.46-18.52-5-28.12-3.08-2.7-10.81,13.81-19.6,10.9-30.35-.62-2.32-2.1-4.28-3.17-6.43-5.68-11.35.72-25.85-4.53-37.4-1.21-2.64-3-5.08-3.48-8-.39-2.4.18-5-.67-7.25a13.94,13.94,0,0,0-2.87-4.07,49.17,49.17,0,0,1-9.23-15.8,17.5,17.5,0,0,1-1.23-8.55c.7-4.25,3.87-7.59,6.2-11.21a31.63,31.63,0,0,0,5-15.45,6.59,6.59,0,0,0-.49-3.39c-1.76-3.41-7.12-2.25-10.25-4.48-2.49-1.78-3-5.24-3.2-8.3l-2.83-35.72.11-8c.6-23.43,8-46.07,13.13-68.93,9.05-40.16,11.29-81.5,13.49-122.61,4.53-84.64,8.9-170.27-7-253.53l-2-6.34-24.59-83.74-1.89-6.88c5.55-17.77-2.19-36.71-10.07-53.58-6.17-13.21-14.77-28-29.23-29.91-12.47-1.62-24.37,8.17-28.48,20s-1.87,25.08,2.44,36.89,11.23,23.42,22.35,29.27c5,2.64,10.72,4,15.19,7.49,4.94,3.84,7.76,9.75,10.16,15.52,17.55,42.19,22.14,88.52,24.59,134.14,2.79,51.95,3,104,2.46,156l-1,5.72c-4.32,22.77-4.25,46.11-6.39,69.19-4.57,49.25-19.18,97-27.25,145.79Z"></path>
    <path data-name="4a" data-official="" data-plain="Peristome" data-loc="" d="M104.09,2621.31c7,4.92,8.14,14.56,9.5,23s4.92,18.19,13.23,20.13c2.45.57,5,.35,7.48.82s5,1.9,5.65,4.34c.45,1.84-.32,3.72-.91,5.52-3.42,10.49.58,23.74,10.62,28.3,5.39,2.45,11.57,2.2,17.48,1.9l14.23-.71c7-.35,14.32-.8,20.33-4.41s10.08-11.48,7.08-17.81c-1.43-3-4.19-5.21-6.21-7.89s-3.25-6.58-1.29-9.3a7.78,7.78,0,0,1,3.16-2.38c3.79-1.78,8.22-2.29,11.51-4.87,3.58-2.82,5.06-7.59,5.42-12.13s-.18-9.13.28-13.67c2-19.48,21.51-32.76,26.9-51.59,1.78-6.21,1.92-12.79,1.46-19.24-1-13.72-5.39-28.29-16.53-36.36-7.88-5.7-17.94-7.32-27.62-8.25a277.4,277.4,0,0,0-82.12,4.35c-11.27,2.31-22.82,5.54-31.51,13.07-11.57,10-16.21,26.66-13.64,41.75s11.62,28.55,23.19,38.57Z"></path>
    <path data-name="4b" data-official="" data-plain="Teeth" data-loc="" d="M282.22,2710.67c.43,5.21,4.59,9.53,9.39,11.62s10.16,2.33,15.39,2.42a91.71,91.71,0,0,0,17.13-1,53.25,53.25,0,0,0,12.24-3.65c5.33-2.31,10.62-5.9,12.45-11.41s.18-12.61,4.57-16.4c4.74-4.08,13.23-1,17.53-5.54,2.34-2.48,2.43-6.27,2.37-9.68-.21-11.7-.52-23.44-2.29-35a23,23,0,0,0-1.6-6.24c-1.6-3.52-4.66-6.1-7.29-8.93s-5-6.4-4.63-10.24l-1.94-4c-.55-25.05,2.95-50.07,2.32-75.12s-5.93-51.1-21.74-70.55a19.59,19.59,0,0,0-3.82-3.79c-5.92-4.1-14.59-1.23-19.2,4.3s-6.2,12.9-7.62,20c-3.71-9.28-7.68-18.94-15.25-25.47a18.74,18.74,0,0,0-9-4.59c-6.81-1.08-13.55,3.48-17,9.43s-4.37,13-4.92,19.9a274.81,274.81,0,0,0,4.32,75l0,4.35c2.88,14.56,3.54,29.46,4.2,44.3a29.31,29.31,0,0,1-.57,9.26c-1.34,4.72-4.92,8.41-7.5,12.58-7.44,12-6.34,27.33-3.56,41.17.66,3.27,1.46,6.66,3.59,9.24,4.71,5.71,14,5.35,19.24,10.58a12.08,12.08,0,0,1,2.81,12.23Z"></path>
    <path data-name="4c" data-official="" data-plain="Leaf" data-loc="" d="M383,2533.2c7.47,29.16,15,58.47,17.66,88.45.41,4.64.74,9.39,2.59,13.67s5.27,8.07,6,12.72c1.11,6.76-3.58,14-.89,20.25,1.77,4.14,6.16,6.4,10.23,8.33l4,4a128.52,128.52,0,0,0,32.73.22c6.51-.79,13.79-2.65,17-8.39,2.06-3.72,1.87-8.27,1.14-12.47a55.84,55.84,0,0,0-7.59-19.88l-2.52-5.25c-12.17-32.68-9.35-69.13-18.8-102.7-2.9-10.28-6.92-20.2-11-30.06a174.41,174.41,0,0,0-8.07-17.51c-7-12.65-16.77-23.47-26.49-34.15l-2.53-3.54a162.05,162.05,0,0,0-74.73-45.38c-25.82-7.16-53-7.77-79.78-7.25-38.85.76-78.34,3.94-114.55,18.06-15.13,5.91-30,13.78-46.16,14.88-14.84,1-29.41-3.75-44.2-5.24-3.6-.37-7.34-.52-10.71.77s-6.32,4.35-6.41,8c-.14,5,4.77,8.54,9.3,10.69a82.74,82.74,0,0,0,47.15,7l5.06,1.27c30.34-1.42,59-13.81,88.76-19.85,28.06-5.69,57.15-5.68,85.43-1.17a273.69,273.69,0,0,1,61.6,17.42c6.2,2.58,12.37,5.41,17.74,9.46,8.93,6.75,15.09,16.45,20.85,26.05q13.51,22.54,25.46,46Z"></path>
    <path data-name="4d" data-official="" data-plain="Section of Spore-case" data-loc="" d="M539.32,2713.35c12.82,1.57,26.56-1,36.57-9.15a18.6,18.6,0,0,0,4.43-4.85,17.48,17.48,0,0,0,2-6,29.74,29.74,0,0,0-10.14-27.29c-3.39-2.81-7.45-4.89-10.22-8.32-4.37-5.41-4.61-13.17-2.85-19.89s5.26-12.86,7.8-19.33a72.29,72.29,0,0,0,1.06-49.41l-2.47-2.26c4.18-3.47,8.42-7,11.56-11.43,7.69-10.85,7.66-25.19,7.33-38.49q-.33-13.62-.67-27.24c-.44-17.92-.9-36-4.83-53.47s-11.58-34.58-24.54-47l-.75-3.17a22.59,22.59,0,0,0,1.94-21.18c-4.41-10.15-15.77-15.83-20.67-25.76-5.55-11.26-1.48-24.8-3.48-37.2-.66-4.09-2.41-8.54-6.25-10.1-3.49-1.42-7.47,0-10.69,2a39.32,39.32,0,0,0-17.91,24.7c-1.66,7.31-1.22,15.17-4.3,22-2.25,5-6.19,9-9.15,13.62a39.65,39.65,0,0,0-5.59,28.27l-3.21,5.31c-10.26,13.29-11.65,31.21-12,48a696.93,696.93,0,0,0,3,82c1.07,11.24,2.46,22.62,6.84,33s12.18,19.84,22.75,23.79l-.86,5.15c-.69,10.17-1.31,20.83,2.88,30.13,2.44,5.42,6.36,10,9.68,14.93a76.67,76.67,0,0,1,10.93,24.74c1.38,5.64,2.07,11.78-.22,17.12-1.88,4.39-5.55,7.72-8.47,11.51-3.09,4-5.45,8.94-4.86,14,.69,6,5.53,10.85,11,13.31s11.66,2.92,17.68,3.37Z"></path>
    <path data-name="4e" data-official="" data-plain="Column" data-loc="" d="M642,2677.09a18,18,0,0,0,4.75,11.35c4.3,4.64,10.73,6.66,17,7.67,10.92,1.76,22.46.91,32.48-3.78a18.67,18.67,0,0,0,7.18-5.25c2.63-3.46,3.12-8.12,2.68-12.43-.67-6.57-3.24-12.79-4.49-19.27A49.71,49.71,0,0,1,712,2614.79c3.27-4,7.18-7.41,9.94-11.74,4-6.27,5.26-14,4.58-21.41s-3.2-14.51-6.33-21.26a10.27,10.27,0,0,0,5.75-10.91l-1.59-3.74c-.32-5.74-.43-12.1,3.3-16.48,1.67-2,3.95-3.29,5.94-4.94,5.91-4.9,9-12.54,10-20.16s0-15.34-.95-23c-.33-2.63-.71-5.41-2.33-7.52-3.49-4.58-10.42-3.77-16.15-3.12a4.58,4.58,0,0,1-3.19-.43c-1.41-1-1.31-3-1.62-4.74-1-5.29-6.81-8.21-12.14-8.91-3.06-.4-6.57-.54-8.53-2.93-1.4-1.72-1.55-4.1-1.63-6.32-.59-15.32-1.18-30.66-.33-46,.51-9,1.64-18.35,6.45-26,2-3.14,4.59-6,5.57-9.6,1.15-4.22-.15-8.68-1.44-12.86-1.91-6.15-4.22-12.83-9.74-16.13-2.9-1.73-6.34-2.28-9.68-2.79-14.39-2.2-29.45-4.3-43.23.39-4.68,1.6-9.19,4-12.38,7.81a25.25,25.25,0,0,0-4.61,8.8,35.8,35.8,0,0,0-.05,21c1.47,4.79,3.94,9.23,5.38,14,1.53,5.07,1.87,10.4,2.2,15.69,1.41,22.56,2.77,45.64-3.46,67.37l-.41,4c-.47,3,1.63,6.48-.14,9-1.25,1.76-3.83,2-5.92,1.41s-4-1.65-6.19-1.88a9.82,9.82,0,0,0-8.47,4,18.36,18.36,0,0,0-3.34,9.09c-1.54,12.33,4.08,24.81,12.72,33.75,1.61,1.66,3.4,3.37,3.9,5.62.86,3.84-2.25,7.28-3.92,10.84-3.56,7.61.44,17.81,8.23,21a37.61,37.61,0,0,0,3.91,40.9c4.49,5.44,10.49,9.51,14.81,15.08,9.46,12.18,8.79,31.12-1.52,42.59Z"></path>
    <path data-name="5" data-official="Orthotrichum crispum" data-plain="" data-loc="Trees, England" d="M107.05,2250.53c4.57-3.81,5.8-10.54,4.57-16.36s-4.49-11-7.69-16l-37.4-58.49c-4.68-7.32-9.51-15.09-9.92-23.77-.21-4.39.74-8.74,1.16-13.12a53.75,53.75,0,0,0-4.62-27.25c-2.81-6.15-6.82-11.84-8.32-18.43-2.7-11.82,3.65-24.53,13.62-31.43s22.84-8.6,34.85-7c7.36,1,14.82,3.18,22.1,1.67,6.26-1.3,12.09-5.29,18.46-4.68,5.16.5,9.54,4,14.53,5.37,6.33,1.8,13.17.2,19.62,1.5,4.48.9,8.57,3.15,13,4.4,5.81,1.66,12.09,1.54,17.67,3.86,10.85,4.51,16.24,17.22,16.39,29s-3.76,23.12-6.25,34.6c-1.65,7.62-2.69,15.36-4.38,23a136.13,136.13,0,0,1-36.56,66.39c-2.22,2.2-4.54,4.38-6,7.14-1.92,3.66-2.1,7.93-2.41,12.05a151.07,151.07,0,0,1-5.81,31.69c-2.06,7-5,14.34-11.29,18.1-3.66,2.21-8,2.9-12.3,3.15-5,.31-10.3,0-14.74-2.36s-7.81-7.34-7-12.31Z"></path>
    <path data-name="5a" data-official="" data-plain="Veil" data-loc="" d="M992.21,2693.3l5.26-16c1.43-4.37,2.51-10-1.11-12.86-1.77-1.39-4.19-1.61-6.11-2.78-3.65-2.21-4.51-7-4.93-11.28q-1.62-16.12-1.84-32.36a113.61,113.61,0,0,1,.92-18.54c2.53-16.59,11.17-31.53,19.71-46,1.86-3.15,3.86-6.43,7.06-8.19,5.69-3.13,12.88-.26,18,3.76,8.36,6.58,14.07,16,18.57,25.62a151.64,151.64,0,0,1,12,88.73,50.76,50.76,0,0,0-1.07,9.17c.13,7.89,4.53,15.86,2,23.32-1.68,4.93-6.18,8.48-11.06,10.3s-10.16,2.16-15.35,2.48l-16.34,1c-5.66.35-11.45.69-16.89-.91s-10.53-5.56-11.87-11.06Z"></path>
    <path data-name="5b" data-official="" data-plain="Spore-case" data-loc="" d="M1043.89,2459.92c-8,1.18-15.43-8.12-12.54-15.65,2.25-5.86,8.94-9.31,10.64-15.36.67-2.39.5-5.06,1.73-7.22s3.63-3.35,6-4.22a42.51,42.51,0,0,1,20.42-2.32c4.1.54,8.56,1.63,12.19-.37,3.89-2.15,5.71-7.36,10-8.64,4.87-1.48,9.49,3,14.54,3.7s9.45-2.41,14.12-4.09,11.29-1.07,12.78,3.66c1.13,3.62-1.36,8.19,1.14,11,1.05,1.2,2.69,1.65,4.22,2.11,7.94,2.37,16.22,7.7,17.23,15.93.24,2-.1,4.21-1.66,5.42-1.33,1-3.16,1-4.73,1.62-4.91,1.85-5.68,8.37-5.52,13.61.94,30.42,5.89,61.24-.4,91-3.28,15.55-9.55,30.31-13.78,45.63s-6.36,31.89-1.29,47c2.25,6.71,5.85,12.89,8.21,19.56s3.39,14.25.44,20.68c-5.21,11.37-19.77,14.22-32.21,15.61-11.16,1.25-23.22,2.33-32.93-3.32l.35-3.74c5.29-19.28,9.58-39.23,7.65-59.13-3.09-31.83-21.7-60.31-26.67-91.91-1.92-12.16-1.77-24.54-2.63-36.82a224.18,224.18,0,0,0-5.44-35.71Z"></path>
    <path data-name="5c" data-official="" data-plain="Leaf" data-loc="" d="M1167.31,2700.16c5.73-5.84,6.18-14.9,6.29-23.08l.16-12.6a13,13,0,0,0-.75-5.56c-1.56-3.47-5.8-4.94-7.88-8.13a15.84,15.84,0,0,1-1.88-5.61c-3.29-16.3-6.3-34.38,2.27-48.64,3.69-6.13,9.27-11,12.65-17.32,2.19-4.1,3.48-8.85,6.81-12.1,2.71-2.64,6.42-3.93,9.94-5.35,16.7-6.74,32.34-19.31,36.93-36.73,3.6-13.67-.17-28.5-7.52-40.57-2.86-4.7-6.34-9.16-10.94-12.2-6.9-4.55-15.67-5.43-23.87-4.42s-16.08,3.75-24,6c-4.91,1.35-11.45,1.86-13.84-2.64-2.3-4.34,1.4-9.33,4.83-12.83l11.78-12c3.69-3.76,7.53-7.63,12.44-9.52,8.16-3.14,17.26-.2,25.5,2.74,9.09,3.25,18.42,6.63,25.72,13,6.11,5.3,10.4,12.35,14.52,19.31,13.58,22.94,26.8,48.57,22.9,74.95-1.66,11.21-6.35,21.71-11,32.05-1.87,4.16-3.78,8.39-6.85,11.76-2,2.24-4.53,4-6.76,6.09-5.2,4.83-8.85,11.09-12,17.47a152.29,152.29,0,0,0-11.44,32c-1.75,7.49-3,15.24-6.7,22-2.43,4.44-6,8.82-5.49,13.86,1,9.94,15.94,11.92,20.24,20.94,2.79,5.88,0,13.25-5,17.43s-11.62,5.78-18.06,6.7a113.57,113.57,0,0,1-32.52,0c-2.82-.41-5.75-1-8-2.79-5.26-4.31-3.6-12.59-1.47-19Z"></path>
    <path data-name="6" data-official="Hypnum Menziesii" data-plain="" data-loc="Dusky Bay, N. Zealand" d="M1693.94,1575.83a42.67,42.67,0,0,0,24.64,13.47c4.74.78,9.81.81,13.93,3.27,6.28,3.75,8.35,12,7.72,19.3-.28,3.31-1.09,6.76-3.39,9.16-2.1,2.19-5.13,3.18-7.77,4.7s-5.14,4.12-4.81,7.14a10.27,10.27,0,0,0,1.88,4.2c4.89,7.67,9,16.17,9.49,25.26s-3.44,18.84-11.4,23.25c-2.76,1.53-6.29,2.84-7,5.92-.47,2.19.78,4.34,1.82,6.33,2.33,4.41,3.8,9.93,1.35,14.28-1.68,3-4.83,4.73-7.59,6.73s-5.45,4.8-5.41,8.2c0,1.74.76,3.39,1,5.11.72,4.52-1.86,8.83-4.33,12.68l-4.22,4.05c-2.37,8.84-4.79,17.8-9.52,25.63a27.13,27.13,0,0,1-7.58,8.57c-8.53,5.85-20.29,3.68-29.55-.93-4.41-2.2-9.52-5-14-2.8-3.89,1.88-5.23,6.62-6.85,10.63-2.2,5.45-5.82,10.55-11,13.36s-12,2.87-16.63-.82c-4.11-3.3-5.71-8.8-6.47-14-1.56-10.59-.65-21.39-1.7-32-.28-2.88-1-6.15-3.49-7.57-2.85-1.6-6.51.12-8.7,2.53-9.54,10.47-1.94,29.32-11.1,40.12-1.65,1.94-3.78,3.52-5,5.76-1.64,3-1.35,6.67-1,10.08q1.38,12.88,3.25,25.71c.62,4.3,1.34,8.75,3.71,12.4,2.23,3.43,5.75,5.87,8,9.31,3.89,6,3.14,13.91,1,20.74s-5.53,13.32-6.6,20.39c-1.7,11.33,2.71,22.56,4.5,33.87,3.63,23-3.66,46.19-10.86,68.35l-2.91,7.59c-8.08,32.69-24.3,63.63-26.38,97.24-.81,13.08.56,26.19,2.15,39.2q4.66,38,11.81,75.72c1.22,6.4,2.54,12.93,5.84,18.55,10.09,17.16,34.84,20.38,46.3,36.66,3.59,5.09,5.47,12.37,1.77,17.37-2.44,3.3-6.65,4.72-10.66,5.56-18.22,3.8-38-.56-55.22,6.4-3.61,1.46-7.17,3.51-9.31,6.76-2.89,4.36-2.76,10.05-4.88,14.82-3.91,8.85-15.72,12.7-24.62,8.9s-14.26-13.89-13.71-23.55c.21-3.74.84-8.32-2.24-10.46a9.25,9.25,0,0,0-4.85-1.17l-47.9-2.58-4.11-1.15c-4.08-3.48-4.56-9.89-2.42-14.8s6.35-8.59,10.66-11.78a38.25,38.25,0,0,1,8-4.79c6.35-2.64,13.79-2.43,19.63-6.06,5.22-3.24,8.34-9.06,13.31-12.67,7.45-5.4,17.5-4.92,26.68-4.31,3,.2,6.48.25,8.66-1.88,2.35-2.29,2.18-6,1.84-9.3q-2.8-26.28-7-52.36l-.82-6.82c-3.72-57.83,11.85-114.9,24.81-171.38,1.31-5.71,2.6-11.58,1.72-17.37-.54-3.61-1.91-7-2.43-10.65-1.81-12.55,6.66-24,10.7-36a53.71,53.71,0,0,0-5-44.41l-2.14-5.93c-1.76-3.43-.91-7.63.64-11.16s3.75-6.79,4.73-10.52c2.26-8.52-2.25-17.29-7.29-24.53s-11-14.47-12-23.23c-1.73-14.49,10.53-28.23,7.88-42.59a5.93,5.93,0,0,0-.78-2.24,5.63,5.63,0,0,0-2.35-1.81,15.72,15.72,0,0,0-19.79,6.26c-2.53,4.52-2.58,10-3.07,15.12s-1.75,10.75-5.81,14c-5.32,4.24-14.46,1.86-17-4.44a18.31,18.31,0,0,1-1.06-6.9c0-5.29.81-10.62-.06-15.84s-3.92-10.54-9-12.09c-7.65-2.34-14.94,4.68-22.88,5.65-3.92.48-7.87-.56-11.56-2a12.89,12.89,0,0,1-5.19-3.11c-3.13-3.53-2-8.91-1.76-13.61.35-5.73-.89-11.75-4.48-16.23s-9.8-7-15.29-5.38l-5.06,1.1a122.51,122.51,0,0,0-11.63-10.48l2.48-8c1.56-6.11,3.43-12.29,7.12-17.4,2-2.71,4.4-5.06,6.26-7.84,4.23-6.32,5.17-14.35,4.43-21.92-.17-1.77-.59-3.77-2.12-4.65a5.22,5.22,0,0,0-3.64-.26c-2.86.57-5.6,1.74-8.5,2.11s-6.18-.27-7.94-2.6c-1.6-2.12-1.53-5-1-7.66,1.83-9.2,8.05-16.79,12.73-24.92a5.52,5.52,0,0,0,.84-2.15c.16-1.62-1.11-3.07-2.54-3.85s-3.06-1.12-4.51-1.87c-5-2.57-6.32-10.35-2.37-14.4,3.58-3.67,9.38-3.67,14.51-3.41l11.7.58c5.28.27,11.12.35,15.14-3.07-1.91-3-6.11-3.31-9.67-3.74a41.15,41.15,0,0,1-18.48-7l-3.34-5.51a20.82,20.82,0,0,1-9.32-20,13.4,13.4,0,0,1,2.46-6.38c3.45-4.49,10-5.22,15.57-4.29s11,3.11,16.67,3c4.57,0,10-2.76,9.87-7.33s-5.18-6.85-8.9-9.39c-5.42-3.71-9-9.63-11.12-15.85s-2.89-12.79-3.76-19.3c-.2-1.47-.45-3.05-1.51-4.09-1.29-1.28-3.32-1.31-5.11-1.63-8.27-1.5-13.31-10.87-12.51-19.23s6-15.66,11.79-21.75a101.56,101.56,0,0,1,66.09-31.08c-2.39-7.78-7.54-16.07-15.63-16.82a17.67,17.67,0,0,0-7.72,1.29c-8.27,3.1-14.77,9.56-22.29,14.2a9.4,9.4,0,0,1-5,1.81,9.12,9.12,0,0,1-4.92-2.16,42.44,42.44,0,0,1-8.8-8.7l.56-8c.69-10.12,7.32-19.21,15.87-24.66s18.83-7.62,29-8.19c-1.7-26-3.41-52-2.15-78s5.55-52.07,15.45-76.14l-.77-7.66c-14.27-27.26-12.44-59.79-10.24-90.48l-4.82-5.07c-25.11-32.6-31-75.72-47.71-113.31-10.75-24.1-26-45.87-39.52-68.53-4.28-7.19-8.53-14.94-8.35-23.3s6.6-17.18,15-16.86c-7.72-9.36-10.6-22.13-9.33-34.19s6.4-23.47,13.15-33.55c10.7-16,26.38-29.46,45.16-33.64,3.36-.75,6.92-1.18,10.23-.22,4.72,1.38,8.19,5.38,10.93,9.47,12.94,19.32,15.34,43.57,17.75,66.7q8.17,78.21,22.2,155.66c4.77-8.23,4.07-18.39,3.56-27.9a416.93,416.93,0,0,1,9.16-112.34c1.94-8.8,4.53-18.13,11.43-23.93,7.63-6.42,18.51-6.84,28.47-6.53q15.53.48,31,2.29c11.28,1.33,24,4.14,29.71,13.94l2.85,5.89c3.29,6.84,6.63,13.86,7.45,21.41s-1.36,15.87-7.37,20.52c8.24-.74,16.4,3.24,22.28,9.06s9.81,13.32,13.1,20.91a169.48,169.48,0,0,1,9,26.47c1.65,6.63,2.88,13.47,2.27,20.27s-3.23,13.63-8.29,18.22-12.78,6.5-19,3.7c-6.54-2.93-10.07-10-12.88-16.57q-6.64-15.63-11.73-31.88c-8.92,19.25-10.09,41-11.13,62.24l-1.42,29,0,8.88q3.38,110.88,4.9,221.8c.32,23,.56,46.27-3.86,68.88l39.49-43.86a16.76,16.76,0,0,1,4.66-4c4.77-2.4,10.9.5,13.67,5.07s3,10.22,2.58,15.55a87.9,87.9,0,0,1-6.56,27.56l-2.56,8.78q11.94,1.26,23.75,3.56c8.27,1.61,16.61,3.67,23.81,8s13.19,11.42,14.45,19.74c.6,4,.12,8.19,1.22,12.09,1.73,6.11,7,10.47,10.29,15.9,5.62,9.28,5.1,20.87,4.41,31.7l1.92,7.38a18.29,18.29,0,0,1-6.3,35.1c-3.28.16-6.9-.48-9.58,1.41a8.4,8.4,0,0,0-2.79,3.88c-2.8,7.12.32,15.7-3.08,22.55-3.17,6.36-11,9-18.13,8.82s-13.94-2.62-21-3.64a3.23,3.23,0,0,0-2.24.23,3,3,0,0,0-1,1.65,18.31,18.31,0,0,0,3.21,17.28c3.72,4.46,9.31,6.82,14.67,9l17.6,7.24Z"></path>
    <path data-name="7" data-official="Leucodon tomentosus" data-plain="" data-loc="South America" d="M1607.27,2255.62a34.83,34.83,0,0,0,21.62-2.15c5.25-2.34,10.66-6.09,16.22-4.62,4.37,1.15,7.39,5.28,11.66,6.73a13.6,13.6,0,0,0,8.68-.3c10.52-3.55,16-14.93,19.35-25.53a165.18,165.18,0,0,0,4.37-17.4c.78-4.08,1.43-8.24,3.19-12s4.88-7.12,8.93-8.06l2.92-5a234.65,234.65,0,0,1,55.34-18.83c5.64-1.16,11.65-2.26,15.93-6.12,3-2.69,4.8-6.44,6.46-10.11,13.31-29.5,22.17-62.72,14.54-94.17-1.84-7.6-4.93-15.4-11.19-20.09s-16.39-4.87-21.07,1.4c-3,4-3.67,10.1-8.23,12.09-3.58,1.56-7.77-.34-11.6.42-5.25,1-8.15,6.46-11.35,10.75s-9.34,8-13.56,4.74c-4.72-3.69-1.46-11,.92-16.55,3-7,3.93-14.61,4.75-22.15q3.81-34.93,5.55-70c.52-10.37.56-21.82-6.15-29.75a11.53,11.53,0,0,0-6.12-4.11,10.32,10.32,0,0,0-5.47.46c-7.31,2.47-11.51,10-14.6,17a200.75,200.75,0,0,0-9.75,27.55c-.87,3.17-1.66,6.43-1.33,9.7.55,5.42,4.08,10,6.29,15a32.37,32.37,0,0,1,1.62,21.47,5.53,5.53,0,0,1-1.9,3.29c-1.49,1-3.47.47-5.2,0-7.27-1.9-16.83-.79-19.62,6.19-1.51,3.78-.45,8.06-.81,12.12s-3.49,8.66-7.46,7.75c-3.52-.8-4.72-5.17-4.81-8.77-.35-14,5.94-27.15,10.3-40.44,5.29-16.12,7.85-33.05,8.61-50,.39-8.56-.6-18.82-8.12-23-5.3-2.91-12.28-1.36-16.85,2.61s-7,9.88-8.23,15.81c-6.38-4.1-8.9-12.34-14.79-17.13-7.19-5.86-19-4.71-25,2.41-4.47,5.37-5.42,12.94-4.51,19.87s3.45,13.53,5.22,20.3c9.36,35.64-2.69,74.42,7.45,109.84l-.94,6.38a88.33,88.33,0,0,0-12.64,29.58c-5-5.45-10.44-10.75-17.07-14.07s-14.73-4.44-21.48-1.38-11.47,11-9.46,18.11c1.22,4.35,4.57,7.77,8.12,10.58,6.14,4.86,13.5,8.77,17.3,15.62a32.28,32.28,0,0,1,3.19,10.1c3.66,20.62-.19,41.72-2.35,62.55-.56,5.4-1,11.08,1.22,16.05a26.81,26.81,0,0,0,6.87,8.71,72.93,72.93,0,0,0,18.11,12.07Z"></path>
    <path data-name="7a" data-official="" data-plain="Spore-case and Peristome" data-loc="" d="M1936.33,2671.35c1.79-15.39,3.52-31.4-1.57-46-3.44-9.88-9.78-18.47-14.14-28-11.37-24.82-8.4-53.46-10.76-80.66-3.37-38.84-18-77-13.69-115.75.65-5.83,2.25-12.37,7.38-15.2,2.64-1.45,5.75-1.64,8.76-1.77a575.13,575.13,0,0,1,79.73,2c3.67.35,7.4.75,10.77,2.24,8.52,3.75,12.72,13.44,14.42,22.59,5.89,31.69-8.81,63.44-10.29,95.64-.73,15.94,1.79,31.84,2.46,47.79s-.7,32.57-8.52,46.48c-4.11,7.33-10.14,14.51-9.46,22.88.7,8.65,8.37,15.06,11.16,23.28,3.77,11.09-2.41,23.75-12,30.51s-21.75,8.65-33.46,9c-8.45.22-18.85-1.66-21.53-9.68Z"></path>
    <path data-name="8" data-official="Hymnostoma eucalyptoides" data-plain="" data-loc="East Indies" d="M1898.59,2221.2l.54,22.4c.06,2.31.07,4.78-1.15,6.74-1.79,2.89-5.54,3.71-8.34,5.62-9.21,6.28-5.93,21.77-13.74,29.72-3.2,3.26-7.81,4.71-12.3,5.6-3,.6-6.21,1-9.12,0-5.53-1.87-8.38-8.18-8.65-14s1.39-11.56,1.84-17.38c.22-3-.08-6.42-2.48-8.2-1.22-.91-2.78-1.21-4.15-1.89a8.36,8.36,0,0,1-4.5-8.15l1.67-7.55a45,45,0,0,0,10.28-27c-4.74.18-9.87.25-13.76-2.47a22.22,22.22,0,0,1-4.47-4.66l-14.77-18.78c-3.94-5-8-10.16-9.89-16.24-1.79-5.68-1.62-11.77-1.44-17.73l.9-29.2c.13-4.18.32-8.58,2.48-12.17a27.53,27.53,0,0,0,2.48-4,13.37,13.37,0,0,0,.61-4.68q.25-31.3,0-62.6l-1.17-7.12a406.3,406.3,0,0,1,1.29-69.93c.36-3.47.81-7,2.66-10,4.75-7.59,16.78-7.13,23.66-1.41s9.92,14.74,12.64,23.27c3-7.95,7.17-16.94,15.41-19,6.5-1.66,13.33,1.82,18,6.59,6.37,6.45,10,15,13.47,23.43a28.4,28.4,0,0,1,11.17-13,21.53,21.53,0,0,1,12.17-3.44c10.75.54,18.67,11.25,20.11,21.92s-1.9,21.33-4.7,31.72c-6.93,25.64-10.81,52.34-8.55,78.8,1.27,14.95,4.49,29.87,3.34,44.83s-7.73,30.64-21,37.68c-3.77,2-8,3.28-11.17,6.13-7.6,6.83-5.86,19-3.5,28.9Z"></path>
    <path data-name="8a" data-official="" data-plain="Spore-case" data-loc="" d="M1555.89,2687c-3.2,4.82-.1,11.77,4.89,14.71s11.1,3,16.89,2.92c8.82-.08,17.7-.16,26.38-1.72,11.42-2.06,24.27-9.39,24-21-.31-16.16-24.66-22.14-27.91-38-.83-4.05-.11-8.24.78-12.28,3.92-17.79,11.19-34.63,16.82-52a293,293,0,0,0,12.3-124.58c-3.49-29.59-11.5-58.57-13.78-88.27-.61-8-1.08-16.75-6.4-22.77-4.18-4.73-10.61-6.79-16.83-7.86-12.9-2.21-26.67-.85-38.15,5.44s-20.35,17.85-21.8,30.86l-1.27,6c-7.11,34.76-7.1,70.54-6.63,106,.57,43.33,2.42,88.93,25,125.9,4.26,7,9.26,13.62,12.14,21.28,5.59,14.81,2.48,31.85-5.09,45.75Z"></path>
    <path data-name="9" data-official="Andræa nivalis" data-plain="" data-loc="Mountains, Britain" d="M1052.27,217A179.84,179.84,0,0,0,1088,97.79c-.32-5-1.06-10.33-4.65-13.76-6.62-6.35-18.27-1.46-23.18,6.29s-5.85,17.33-9.63,25.69q-7.11-37.77-17.33-74.87c-2-7.33-6.79-16.4-14.25-14.91-5.09,1-7.73,6.63-8.93,11.67-9.57,40,21.53,81.34,12.19,121.38-.54,2.32-1.58,5-3.9,5.54-2.06.5-4-.93-5.86-2a18.71,18.71,0,0,0-18.36.09A136,136,0,0,0,994,99.77c-3-12.53-7.88-25-7.1-37.83.54-8.79,3.21-19.16-3.13-25.26-5.21-5-14.3-3.74-19.65,1.11s-7.67,12.2-8.81,19.33c-3.41-4-5.44-9.08-9-13s-9.69-6.39-14.08-3.48A13.89,13.89,0,0,0,928,46.2c-13.82,27.3-10.79,60.19-2.32,89.59s22,57.3,28.56,87.18c3.9,17.6,5.35,35.65,8.36,53.43a311.25,311.25,0,0,0,47.55,120.09l.39,6.07c-5.9,16.35-11.81,32.76-15.51,49.74s-5.13,34.66-2,51.76c3.25,17.78,11.29,34.41,14.59,52.18l-3.52,5.37a39.84,39.84,0,0,0-15,33.94c.43,5.46,2.24,11.18,6.55,14.57,4.06,3.19,9.67,3.78,14.75,2.86,13.7-2.48,24.06-14.88,27.53-28.36s1.17-27.8-2.73-41.16-9.35-26.28-12.33-39.88a113.55,113.55,0,0,1,1.8-55.45c3.4-11.79,8.69-22.95,12.81-34.51C1058.65,354,1047.59,288.46,1051,225.3Z"></path>
    <path data-name="9a" data-official="" data-plain="Spore-case and lid" data-loc="" d="M1709.52,2678.84c6.1-12.81,12.29-27.46,7.17-40.68-2.82-7.3-8.69-12.89-13.88-18.73-16.75-18.88-27.5-42.21-38-65.16-3-6.6-6-13.2-8.64-20-1.61-4.21-2.85-9.55.32-12.76,2.06-2.07,5.26-2.41,8.18-2.33a43.34,43.34,0,0,1,31.58,15.3c2.54-2.29,2-6.32,1.4-9.68-3.17-16.4-4.84-34.59,4.08-48.71,4-6.38,10-11.46,13.5-18.13s3.62-16.28-2.65-20.47c-4.23-2.81-10.76-2.9-12.77-7.56s2.29-9.36,6.66-11.66c14.44-7.57,32.92-3,45.62,7.25,4.87,3.92,9.38,9.16,9.67,15.41.23,5.07-2.38,10.21-1,15.09,1.17,4,4.75,6.74,7.83,9.57,16.17,14.87,21.76,38.71,19,60.51-1.11,8.83-3.7,18-10.05,24.2-4.28,4.21-9.91,6.76-14.46,10.67s-8.07,10.2-5.93,15.8c.94,2.46,2.84,4.42,4.08,6.74,3.12,5.88,1.63,13,.07,19.51l-5.51,22.76c-1.13,4.64-2.25,9.52-1,14.14,1.45,5.55,6,9.67,10,13.76,9.26,9.41,17.3,21.47,16.71,34.65-.09,2.26-.51,4.65-2,6.32s-4,2.34-6.22,2.85a223.26,223.26,0,0,1-56.93,5.28,12.31,12.31,0,0,1-4.94-.89c-5-2.41-4.64-9.55-3.51-15Z"></path>
    <path data-name="9b" data-official="" data-plain="Unnamed*" data-loc="" d="M1821.8,2673.46c5.76-4.22,10.55-11.11,9.08-18.09-.77-3.65-3.11-6.72-5.14-9.85-9.46-14.58-12.78-32.41-12.81-49.79s3-34.6,5.31-51.82a617.12,617.12,0,0,0,5.46-83.85c0-13.4-.53-26.88-3.1-40-3-15.27-8.76-30-10.5-45.45-.36-3.17-.52-6.49.74-9.42s4.34-5.3,7.48-4.75c2.56.46,4.43,2.61,6,4.65a236.25,236.25,0,0,1,40.16,77c4.14,13.61,7,27.58,11.48,41.1,4.22,12.89,9.81,25.33,13.51,38.38,4.82,17,6.36,34.74,7.87,52.35,1.3,15.07,2.59,30.32.3,45.28-1.91,12.43-6.28,24.57-6.15,37.15.11,9.72,2.63,20.57-3.18,28.36-2.95,4-7.56,6.29-12.14,8.13a97.41,97.41,0,0,1-32.83,7c-5.8.2-11.92-.2-16.8-3.33s-7.92-9.77-5.34-15Z"></path>
    <path data-name="10" data-official="" data-plain="Spore-case and ring of Bryum" data-loc="" d="M1271.59,2670.21a49.66,49.66,0,0,0,6.43-31.35c-.7-5.44-2.31-10.76-2.7-16.23-.56-7.9,1.45-15.73,3.51-23.37a1009.24,1009.24,0,0,1,32-99c3.2-8.3,6.62-16.72,12.42-23.47a60.64,60.64,0,0,1,14.71-11.88c10.56-6.45,23.24-11.31,35.19-8.06,5.85,1.59,11.77,6.27,11.38,12.32-.26,4.09-3.37,7.48-6.87,9.6s-7.47,3.34-11.07,5.28a30.84,30.84,0,0,0-14.08,16c-2.25,5.89-2.62,12.31-3,18.6l-2.27,41.24c-.22,4.14-.44,8.38.74,12.35,1.32,4.47,4.31,8.24,6.38,12.41,3.65,7.32,4.43,15.77,3.87,23.93-.61,8.79-3.55,18.56-11.43,22.48-5.94,2.95-14.19,2.36-17.78,7.93-2,3.09-1.74,7.06-1.69,10.75a73,73,0,0,1-7.28,32.69c-1.8,3.71-4,7.35-7.19,9.95-3.6,2.91-8.17,4.27-12.64,5.43q-10.73,2.79-21.68,4.52c-3.43.54-7.46.81-9.83-1.73a9.08,9.08,0,0,1-2-5.37,26.27,26.27,0,0,1,3.58-16.13Z"></path>
    <path data-name="11" data-official="" data-plain="Operculum" data-loc="" d="M1409,2649.9c2.62-4.34,5.26-8.73,6.7-13.59s1.57-10.3-.73-14.81c-2.42-4.71-7.07-7.76-11.28-11a95,95,0,0,1-12.06-10.88,41.09,41.09,0,0,1-6.92-9.37c-2.46-4.87-3.33-10.39-3.72-15.83-.9-12.66.69-25.64,5.82-37.25s14-21.77,25.37-27.36c10.14-5,21.89-6.18,33.08-4.57s21.85,5.91,31.71,11.43a47.3,47.3,0,0,1,9.66,6.72,41.5,41.5,0,0,1,8.39,12.08,75,75,0,0,1,6.37,45.91c-2.06,11.36-7.13,22.64-16.31,29.66-5.44,4.15-12.13,6.69-16.81,11.7-6.4,6.85-7.75,16.89-8.52,26.24-.36,4.47-.74,9.17-3.23,12.9-4.45,6.68-13.69,7.74-21.72,7.88-5.55.1-11.26,0-16.4-2.06s-9.62-6.72-9.94-12.27Z"></path>
</svg>
