
<svg xmlns="http://www.w3.org/2000/svg" viewBox="0 0 2148 2746" id="illustration" preserveAspectRatio="xMidYMid meet">
    <title>Marchantiaceæ</title>
    <path data-name="1" data-official="Marchantia polymorpha" data-plain="" data-loc="Wet places, Britain" d="M150.32,2267.47C116,2251.18,72,2256.62,42.9,2232.16c-16.46-13.82-25.12-35.51-26-57s5.52-42.74,15-62c8.65-17.51,21.05-34.59,39.27-41.61,16.89-6.49,35.76-3.29,53.55,0a190.76,190.76,0,0,1-30.29-83.06c-2.36-20.47-2.48-43.81-17.76-57.64-5.71-5.17-13-8.35-18.67-13.55-15.47-14.2-14.14-41-.6-57s35.92-22.41,56.9-21.47c12.77.57,26.4,4.12,34.41,14.08,13.6,16.9,3.31,44-14.94,55.69-4.69,3-10,5.5-13.32,10-7,9.25-2.94,22.42,1.64,33.08a691.47,691.47,0,0,0,56.92,106.1c12.94-2.82,13.73-20.67,12.55-33.86a240.44,240.44,0,0,1,4.68-73.21c6.23-28.24,17.16-59.51,2.47-84.41-5.53-9.38-14.47-17.12-16.71-27.77-3.79-18,13.65-33.89,31.21-39.37a83.62,83.62,0,0,1,59.16,3.79c8.49,3.9,16.69,9.68,20.53,18.2,7.72,17.12-4.69,36.12-16.42,50.77,15-6.49,30.34-12.95,46.59-14.77S357,1858.67,369,1869.8c12.15-15.44,28.11-28.77,47.17-33.55s41.4.56,53.17,16.3c9.17,12.26,10.77,28.41,12.06,43.66,15.82-5.94,34.62-8.81,48.83.34,11.35,7.31,17.29,21,18.65,34.4,1.08,10.75-.6,22.27-7.31,30.74s-19.26,12.75-28.84,7.77L504.4,2083l.3,5.57c9.26-.37,17.26,6.3,23.24,13.38,3.54,4.18,6.83,8.85,7.84,14.24,1.9,10.21-4.67,19.84-7.69,29.78a45.09,45.09,0,0,0,2.41,32.2c3.91,8.22,10.48,17.31,6.33,25.41-1.87,3.66-5.57,6-9.17,8a155.54,155.54,0,0,1-26.54,11.57c-12.74,4.19-26.63,7.06-36.46,16.19-6.91,6.42-11,15.27-17.08,22.5-16.69,19.89-45.31,24.65-71.27,24.21s-52.54-4.65-77.47,2.57c-4.27,1.23-8.66,2.95-11.42,6.44-2.24,2.84-3.11,6.5-4.6,9.81a27.42,27.42,0,0,1-49.44,1.22c-2.88-5.64-3.88-12.37-8.2-17-6.66-7.14-17.9-6.26-27.65-6.86a71.2,71.2,0,0,1-35.94-12.47Z"></path>
    <path data-name="1a" data-official="" data-plain="Cup" data-loc="" d="M122.25,2642.2a37.17,37.17,0,0,0,5.09-19.55c-.06-2.9-.6-6.06-2.74-8s-5.51-2.24-8.53-2.28c-24.72-.38-51.51,1.9-72-11.9-5.18-3.49-9.82-8-12.44-13.71-5.53-11.95-.88-26.62,7.86-36.47s20.86-15.9,32.67-21.73A46.06,46.06,0,0,1,47,2501.33a52.41,52.41,0,0,1,1.53-37.3c5.52-13,15.89-23.78,19.75-37.37,2.94-10.32,2.86-23.23,12-28.88,3-1.87,6.62-2.55,10.13-3.15a481.46,481.46,0,0,1,113.23-5.93c7.06.47,14.58,1.27,20.08,5.72s7.77,11.38,11.73,17.08,9.34,9.93,13.62,15.23c7.4,9.14,11,20.68,14.47,31.92s6.95,22.82,5.77,34.5c-.87,8.66-4.3,16.9-8.77,24.36a90.81,90.81,0,0,1-21.33,24.34,67.82,67.82,0,0,1,34.39,47.79c.77,4.62,1,9.5-.68,13.85-3.5,8.82-14.06,12.76-23.56,12.8s-18.83-2.74-28.32-2.75-20.07,3.82-23.7,12.59c-2.7,6.55-.89,14.25-3.39,20.88-4.12,10.91-17.53,14.42-29,16.42-8.21,1.43-16.63,2.86-24.81,1.25s-16.16-6.92-18.46-14.93Z"></path>
    <path data-name="1b" data-official="" data-plain="Spore-cases" data-loc="" d="M486.44,2634.68c8.17-6.37,5.79-20.45-2.32-26.89s-19.41-6.94-29.7-5.75-20.58,3.81-30.86,2.56c-25.52-3.11-42.9-30.12-43.28-55.82s12.18-49.76,26.23-71.28c-26-7.5-55.85-8.72-75-27.79-3.3-3.27-6.24-7.19-7.05-11.76-1.29-7.25,3.23-14.58,9.41-18.59s13.7-5.3,21-6a167.48,167.48,0,0,1,96.68,20c-13.75-17.83-27.61-35.84-37.24-56.19-3.6-7.62-6.44-17.12-1.61-24,2.61-3.73,7-5.84,11.46-6.84,10.82-2.45,22.3.91,31.73,6.75s17.16,14,24.78,22.06l38,40.16a114.53,114.53,0,0,1,61.82-59.59c7.1-2.82,14.7-4.94,22.3-4.2s15.22,4.78,18.58,11.63c5.64,11.49-2.15,24.75-9.63,35.13,13.19-2.32,26.09-6.73,39.47-7.29s28.06,3.65,35.47,14.81c9.27,14,1.61,35.87-14.34,41,11.28-1,23.87-1.69,32.59,5.53,9.48,7.86,10.4,23.1,4.07,33.66s-18.3,16.74-30.41,18.93-24.56.9-36.8-.39c8.53,7.22,18,17.06,15.05,27.86-.81,3-2.59,5.89-2.36,9,.3,4,3.71,6.89,6.22,10,9.61,11.9,5.28,32.25-8.35,39.2-10.43,5.32-22.91,3-34.6,3.62-17.69.91-34.21,8.67-50.2,16.3a14.63,14.63,0,0,0-5.11,3.4c-2.65,3.16-2.14,7.77-2.49,11.87-1.09,12.75-11.82,23-23.81,27.49s-25.14,4.28-37.93,4c-3.85-.07-7.84-.18-11.31-1.84s-6.3-5.34-5.71-9.14Z"></path>
    <path data-name="2" data-official="M. hemisphærica" data-plain="" data-loc="Britain" d="M846.55,2309c3.5,10.21,15.65,14.94,26.44,14.64,13.52-.38,27.19-7.26,33.8-19.06,4.84-8.63,5.62-18.85,7.53-28.56s5.66-20,14.09-25.16c7-4.29,15.65-4.25,23.41-6.81,6.32-2.08,12-5.9,18.41-7.68,15.73-4.35,32,4.22,48.26,5.1,8.35.44,16.69-1.16,24.7-3.55,10.68-3.18,21.15-7.93,29.2-15.65s13.44-18.72,12.5-29.83c-.67-7.89-4.36-15.16-6.94-22.64s-4-16.08-.28-23.08l-.33-8.31a17,17,0,0,0,.2-9.21,1.45,1.45,0,0,1,0-1.24,1.56,1.56,0,0,1,.45-.35,15.45,15.45,0,0,0,6.21-7.87,36.31,36.31,0,0,0,2-10,114.66,114.66,0,0,0-.24-22.23c-.35-3.18-.86-6.43-2.51-9.16l-3.29-9.18a68.64,68.64,0,0,0-46.13-30.07l3.29-6.17c11.15-10,15.28-26.2,13.77-41.13-.76-7.48-2.85-15-7.24-21.1-7.49-10.45-20.78-15.49-33.63-16s-25.51,2.76-37.94,6L967,1822.25c-.25-6.55-.45-13.39,2.32-19.33,4.5-9.67,15.46-14.37,22.62-22.27,8.87-9.79,11.25-23.65,13.26-36.7.86-5.54,1.7-11.28.13-16.66-2.24-7.64-9.11-13.23-16.59-16s-15.6-3-23.56-3.28c-17.77-.52-36.31-.65-52.34,7s-28.61,25.63-24.21,42.85,23.26,27.1,31,43.23c3.15,6.55,4.32,13.85,5.14,21.07a260.76,260.76,0,0,1-2,73.59,48.12,48.12,0,0,0-43.35-15.89c-3.82.62-8.6,1.33-10.78-1.86-2.55-3.74,1.19-8.42,2.4-12.79,2.19-7.88-4.31-15.32-10.48-20.69s-12.52-10.41-19.11-15.2c-4.43-3.22-9.5-6.46-14.94-5.86-4.63.52-8.45,3.69-12.71,5.57-6.81,3-14.77,2.66-21.44,6-11.2,5.53-15.3,19.14-18.28,31.27-7.57-3.17-10.83-12.36-10.62-20.57s3-16.14,3.63-24.32-1.46-17.47-8.41-21.83c-4-2.49-8.85-3-13.54-3.15a158.3,158.3,0,0,0-46.07,4.91c-6.17,1.6-12.6,3.79-16.7,8.68-5.3,6.3-5.39,15.34-5.21,23.57l.6,27.23c.1,4.82.35,10.05,3.44,13.75,9,10.74,28.49-2.69,40,5.3,5.34,3.72,6.91,10.84,7.78,17.3A233.18,233.18,0,0,1,718.7,2003l-7.43,5.07c-21.34-2.68-45.11-4.76-62.31,8.15-17.88,13.41-22.1,38-25.47,60.07-1.1,7.26-2.37,14.79-6.59,20.79-3.11,4.42-7.57,7.66-12,10.81-12.79,9.22-25.7,18.5-40.12,24.88-7.92,3.51-16.48,6.26-22.79,12.21a28.67,28.67,0,0,0,13.82,48.91c8.52,1.78,17.45-.38,26,1,12,1.9,21.79,10.3,32.91,15.15,16.89,7.37,36.34,6.28,54.29,2.14,14.09-3.25,29-8.27,42.58-3.42,11.18,4,19,13.8,28,21.55,20.5,17.65,47.68,24.88,72.15,36.43,14.39,6.8,29.38,17.11,32,32.8Z"></path>
    <path data-name="2a" data-official="" data-plain="Spore-case" data-loc="" d="M782.51,2599.79c6-9.95,12.2-21.68,8.28-32.62-1.39-3.87-3.93-7.18-6.27-10.56-7.26-10.51-12.87-22.5-13.91-35.23s3-26.26,12.48-34.82c5.42-4.88,12.3-7.94,19.36-9.75,14.24-3.66,29.83-2.38,42.9,4.33s23.37,19,26.9,33.22c1.64,6.62,1.87,13.58,4.1,20,1.31,3.81,3.31,7.37,4.48,11.22,1.32,4.31,1.58,8.87,1.78,13.38.27,5.84.3,12.23-3.31,16.84-2,2.55-4.87,4.22-7.3,6.37-5.33,4.7-8.34,11.58-9.71,18.55-.9,4.57-1.27,9.5-4.09,13.19-3.14,4.1-8.54,5.64-13.61,6.64a135,135,0,0,1-43.38,1.45c-4.05-.52-8.17-1.27-11.7-3.32s-6.39-5.66-6.51-9.74Z"></path>
    <path data-name="2b" data-official="" data-plain="Elater" data-loc="" d="M891.19,2651.92c-2.47-7.16,3.24-14.21,6.51-21,4.55-9.48,4.53-20.46,3.8-31A274,274,0,0,0,852,2461.26c-26.14-36.92-61-66.66-95.53-95.86-6.44-5.43-13.57-13.4-10.25-21.15a11.92,11.92,0,0,1,4.16-5c4.85-3.4,11.4-3.54,17.05-1.77s10.61,5.2,15.45,8.62c25.59,18.06,50.89,37,71.67,60.47,7,7.84,13.37,16.15,19.78,24.45,9.06,11.75,18.16,23.54,25.48,36.44,9.42,16.61,15.73,34.76,22,52.79,6.82,19.64,13.7,39.61,14.78,60.37.53,10.19,0,21.42,6.33,29.38,2.95,3.68,7.08,6.2,10.46,9.47a32.08,32.08,0,0,1,7.83,32.71c-1.53,4.42-4.15,8.58-8,11.16-3.25,2.15-7.15,3.06-11,3.82a205.37,205.37,0,0,1-22.5,3.17c-9.92.84-21.87-.08-26.84-8.7Z"></path>
    <path data-name="3" data-official="Marchantia assamica" data-plain="" data-loc="Shores, Assam" d="M1093.34,2111.91a82.4,82.4,0,0,0,26.37-27.26,23.74,23.74,0,0,0,3-6.72c.74-3.25.29-6.63-.15-9.93a1062.06,1062.06,0,0,1-8.87-169.84c.12-4.34-.22-9.61-4.06-11.67-2.81-1.51-6.22-.53-9.4-.17-15.8,1.77-29.49-15-28.15-30.79s14.18-28.92,28.93-34.87,31.15-6,47-5.09c5.24.3,10.69.75,15.22,3.41,6.77,4,10,12,11.85,19.6,3.13,13,2,29.59-9.83,35.88-3.22,1.72-7.18,2.64-9.17,5.7-1.45,2.25-1.45,5.11-1.39,7.79q1.6,73,8.56,145.87a200.14,200.14,0,0,1,35.77-12.36q4.89-93,9.79-185.91c.24-4.64.37-9.7-2.42-13.41-2.12-2.82-5.52-4.3-8.52-6.16-14.59-9.1-19.83-29.67-13.25-45.56s23.2-26.45,40.33-28,34.36,5.17,47.69,16a59.33,59.33,0,0,1,89.33-19.1c11.55-10.37,25.85-21.51,40.94-17.84,6.43,1.56,11.9,5.68,17.16,9.71l25.77,19.69c3.09,2.35,6.26,4.81,8.11,8.23,3.52,6.52,1.13,15-3.74,20.56s-11.73,9-18.41,12.18l-2.83,6.32a1043.67,1043.67,0,0,1,8.63,187.89,24.44,24.44,0,0,1,21.51-.31,332.35,332.35,0,0,1,35.15-70.29c3.57-5.41,7.4-11,8.16-17.43,1.17-10-5.28-19.39-5.49-29.43a24.67,24.67,0,0,1,17.39-23.53c6-1.71,12.41-1,18.62-.3l22.83,2.62c7.64.87,15.65,1.89,21.9,6.37,7.43,5.34,11,14.71,11.93,23.81,2.26,21.63-10.82,45.48-32,50.34-7,1.61-14.65,1.2-21.15,4.34-6,2.92-10.28,8.51-14,14.06a216.7,216.7,0,0,0-25.27,50.77l.44,6.66c11,9.46,13.53,25.5,12.71,40s-4.23,29-2.26,43.32a4.78,4.78,0,0,0,1.3,3.14,4.9,4.9,0,0,0,3.38.69c9.86-.43,21.26-.76,27.73,6.67,6.14,7.06,4.78,17.72,2.71,26.84-.57,2.52-1.16,5.16-.44,7.64.87,3,3.49,5.13,5.32,7.67,5.15,7.15,3.8,17.13.45,25.28s-8.45,15.63-10.45,24.21l-5.31,7.33c-8,15.8-32.85,19.2-37.19,36.37-1,3.94-.75,8.31-2.87,11.77-3.05,5-10.14,6.66-12.48,12-.92,2.09-1,4.44-1.3,6.69-1.37,8.84-7.9,16.29-15.8,20.5s-17,5.53-26,5.72a112.46,112.46,0,0,1-29.57-3.32c-11.31-2.82-22.24-7.41-33.83-8.59s-24.59,1.86-31.37,11.33c-2.41,3.36-3.88,7.3-6,10.85a33.25,33.25,0,0,1-60.44-7.94c-.92-3.19-1.4-6.59-3.21-9.37s-4.67-4.54-7.6-6c-12.82-6.24-27.89-6.78-40.51-13.42-12.13-6.39-21.51-18.16-34.84-21.37-12.08-2.91-24.94,1.92-37.12-.55-10.8-2.18-19.59-9.76-27.84-17.07L1093,2196.14l-8.14-3.71c-.67-7.89-4.36-15.16-6.94-22.64s-4-16.08-.28-23.08l-.33-8.31a17,17,0,0,0,.2-9.21,1.45,1.45,0,0,1,0-1.24,1.56,1.56,0,0,1,.45-.35,15.45,15.45,0,0,0,6.21-7.87Z"></path>
    <path data-name="3a" data-official="" data-plain="Spore-cases" data-loc="" d="M1022.59,2648l2.51-38.35c.28-4.21.45-8.8-2-12.21-3.18-4.39-9.52-5.06-14.86-4.11s-10.54,3.12-16,2.94c-9.06-.32-16.47-7-23-13.32-11-10.64-22.19-21.51-29.42-35-10-18.68-11.52-40.53-14.56-61.5-2.11-14.48-5-29.35-1.53-43.56,2.43-9.82,7.78-18.64,13.23-27.17a726.52,726.52,0,0,1,44.64-62.26c5.29-6.61,11.18-13.46,19.29-15.89,6.18-1.85,12.79-.86,19.24-.63,18.46.65,36.49-5.11,54.83-7.33,10.33-1.25,21.23-1.28,30.6,3.22,6.67,3.19,12.11,8.46,18.46,12.26,7.68,4.6,16.5,6.93,24.55,10.85,14.31,7,25.68,18.63,36.75,30.07,6.54,6.77,13.29,13.87,16.16,22.84,2.49,7.82,1.79,16.34,3.91,24.26,2,7.36,6.28,13.88,8.72,21.09,5.06,14.94,1.68,31.39-3.44,46.3-1.78,5.17-3.77,10.33-4.4,15.75-.86,7.47.91,15,1.51,22.46a72.26,72.26,0,0,1-11.93,45.53c-3.34,5-7.39,9.61-12.55,12.67-5.38,3.21-11.67,4.54-17.31,7.26-8.62,4.16-15.72,11.55-25,13.87-11.82,2.95-27.31-1.83-34.4,8.08-4.7,6.59-2.22,15.8-4.42,23.59-3.76,13.35-19.55,18.81-33.27,20.86-16.61,2.48-36.75,1.42-45.83-12.71Z"></path>
    <path data-name="3b" data-official="" data-plain="Spores and Elaters" data-loc="" d="M1275.1,2698.86a102.41,102.41,0,0,1-30.22-.8c-2.89-.51-6-1.28-7.87-3.55-4.62-5.57,1.68-14.68-1.76-21.05-3-5.51-11-5.38-16-9.17-7.33-5.59-5.45-17.37-.38-25.06s12.61-14,15.51-22.7c2.82-8.49.75-17.7-.43-26.57-5.81-43.7,10.87-87.85,6.66-131.74-1.34-14-4.75-28.25-1-41.76,1-3.6,2.5-7.14,2.49-10.88,0-4.82-2.54-9.22-4.73-13.51a122,122,0,0,1-13.24-60.22c.18-4.31.65-8.8,3-12.44s7-6.12,11-4.6c4.75,1.78,6.23,7.6,7.39,12.54a118,118,0,0,0,37.47,62c2,1.72,4.15,3.43,6.73,4,8.1,1.66,14.41-8.68,22.69-8.59,8.8.1,12.76,11.2,12.73,20s-1.05,19.11,5.6,24.87c3.34,2.9,7.93,3.87,11.69,6.19,9.81,6.07,11.7,19.76,9.49,31.07-1.25,6.42-3.49,12.72-3.52,19.25-.06,10.88,6,21.39,4.46,32.16-1.74,12.23-13,22.74-10.78,34.88,1.19,6.57,6.25,12,6.89,18.69.75,7.88-4.8,14.82-7.22,22.36-3.15,9.79-1,20.75-4.42,30.44-3,8.29-9.73,14.76-12.94,23-4.9,12.54-1,27.86-8.29,39.19-6.81,10.59-20.66,13.62-33.08,15.74Z"></path>
    <path data-name="4" data-official="Rebouilia graminosa" data-plain="" data-loc="East Indies" d="M1906.18,1674.59c-3.72,9.83-.94,20.74.81,31.1s1.92,22.34-5.47,29.81c-3.28,3.32-8,5.67-9.4,10.11-1.58,4.93,1.6,10,3.8,14.65a41.52,41.52,0,0,1,3.9,18.45c-.06,2.44-.42,5.06-2.11,6.82-1.23,1.28-3,1.89-4.6,2.66-10.29,4.9-15.24,18.66-10.44,29,3.1,6.68,9.36,11.41,12.92,17.87,3.82,6.91,4.2,15.19,3.71,23.07-.26,4.31-.87,8.85-3.55,12.22s-8.13,4.9-11.39,2.07c-6.13,10,0,22.82,7,32.23s15.24,19.87,13.16,31.37a7.78,7.78,0,0,1-2,4.31c-2.44,2.35-6.38,1.57-9.72,2.08-6.36,1-11,7.5-10.87,13.93s4.36,12.34,9.91,15.6c3.2,1.88,6.81,3,10,4.86a24.91,24.91,0,0,1,12.1,19,11.54,11.54,0,0,1-1.46,7.47c-5.06,7.45-19.94,2.35-23.65,10.56-1.61,3.55.08,7.66,1.86,11.13q3.63,7.07,7.89,13.79l3.28,8.93c2.5,5,5,10.26,5.18,15.87s-2.93,11.71-8.33,13.23c-2.47.69-5.68.74-6.7,3.08s1.33,4.92,3.19,6.85c8.32,8.67,8.81,22.19,14.89,32.55,7.51,12.79,22.32,19.06,36.13,24.5,14.09,5.55,28.24,11.11,42.91,14.89,20.68,5.32,42.6,7.17,61.54,17,3.57,1.86,7.11,4.09,9.4,7.4,2,3,2.94,6.54,3.68,10.06a165.83,165.83,0,0,1,3.57,33.17c0,7.69-.53,15.7-4.33,22.39a26.08,26.08,0,0,1-25.15,12.71c-6.79-.81-13.67-4.32-20.16-2.16-4,1.32-6.94,4.54-10.56,6.61-8.55,4.89-19.45,2.82-28.69,6.23-8.43,3.1-14.58,10.42-19.43,18s-8.86,15.77-15,22.34-15.13,11.36-23.94,9.62l-8.25-5.84a27.71,27.71,0,0,0-23.19-16.49c-11-.73-21.38,5.2-32.36,6-16.93,1.2-32.78-10.35-41.3-25s-11-32-12.59-48.88c-1.72-18.79-2-39.33,9.16-54.54a97.13,97.13,0,0,1-20.94-64.49l-1.29-7.33-2.18-44.55c-.41-8.19-.78-16.57,1.59-24.41,4.72-15.64,20-28.31,18.58-44.58a16,16,0,0,0-3.89-9.58c-1.7-1.81-3.92-3-5.87-4.59-9.9-7.82-11.24-24.31-2.73-33.62,2-2.21,4.46-4,6.23-6.43a15.35,15.35,0,0,0-1.71-19.49c-3.5-3.35-8.35-4.77-12.58-7.12-5.73-3.2-10.48-8.45-12.2-14.78s0-13.7,4.93-18c3.58-3.13,9.19-5.73,8.69-10.46-.3-2.74-2.68-4.68-4.49-6.76a19.6,19.6,0,0,1-3-20.46c2.53-5.56,7.52-9.57,11-14.55s5.35-12.35,1.27-16.91c-3.22-3.6-8.88-4-12.41-7.31-3.3-3.09-4-8.14-3.25-12.58s2.89-8.54,4.53-12.75a66.56,66.56,0,0,0-1.58-51.47l-1.35-8.19a51.94,51.94,0,0,1,1.29-31.88c2.13-5.72,5.32-11.26,5.48-17.37a6.32,6.32,0,0,0-.58-3.22c-1.1-2-3.63-2.58-5.7-3.56-5.94-2.8-8.79-9.92-8.66-16.49s2.62-12.82,4.75-19,3.93-12.85,2.62-19.29l-.87-8c-.93-10.73-6.57-20.38-11.32-30s-8.79-20.56-6.26-31c1.5-6.2,5.18-11.63,9-16.75,8.68-11.74,20.28-23.7,34.88-23.68,9.22,0,17.63,4.89,25.54,9.62,7.44,4.46,15,9,20.87,15.39s9.94,15,8.91,23.59c-.89,7.4-5.14,15.81-.41,21.57,10.5-10.63,26.82-12.65,41.77-12.62,9.59,0,19.34.66,28.34,4s17.28,9.56,21.2,18.31c3.28,7.34,3.26,15.72,2.37,23.7-2.07,18.63-10.06,38.43-26.91,46.64-3.85,1.88-8,3.08-11.62,5.42s-6.58,6.27-6.19,10.54Z"></path>
    <path data-name="5" data-official="Lunularia vulgaris" data-plain="" data-loc="France" d="M1795.78,2191.43c-4.52-2.88-6.33-8.44-8.67-13.27a48.73,48.73,0,0,0-36.55-26.52c-5.44-.75-11.38-.69-15.79-4-6.78-5.05-6.53-15.1-5.72-23.51q4.34-44.46,4.86-89.18c.1-8.17.7-17.6,7.28-22.46,1.85-1.37,4-2.23,6-3.48,6.7-4.36,9.51-13.24,8.15-21.11s-6.25-14.75-12.15-20.13c-5.21-4.77-11.64-8.69-18.7-9-12.16-.54-23.4,9.64-35.37,7.39-3-.58-6-2-9.06-2.15-4.77-.29-9.39,2.37-12.29,6.16s-4.26,8.57-4.76,13.31a43.69,43.69,0,0,0,14.09,36.53c4.8,4.29,10.77,7.76,13.49,13.6,2.89,6.2,1.36,13.44,0,20.15a294.49,294.49,0,0,0-5.38,42.68c-.58,11.06-1.22,23.65-9.78,30.67-3,2.44-6.62,3.9-10.21,5.32l-23.58,9.37-5.27,5.42c-12.93,10.27-31.74,6.72-47.6,11.28-11.71,3.37-21.74,11.27-29.38,20.76s-13.1,20.53-17.93,31.71c-3.16,7.3-6.13,15.08-5.2,23,1.26,10.77,9.51,19.39,18.22,25.85a114.78,114.78,0,0,0,69.64,22.38c9.19-.15,20.34-.5,25.26,7.27,3,4.77,2.64,11.48,6.77,15.31,3.11,2.89,7.75,3.17,12,3.28,12,.34,25.8-.13,33.3-9.48,3.9-4.87,5.73-11.81,11.3-14.6,7.27-3.63,15.43,2.06,22.51,6.05,22.19,12.48,52.65,7.77,70-10.84l5.77-6.48c-5.4-12.77-7.33-27-8.61-40.88-1.06-11.51-1.57-23.68.76-34.88Z"></path>
    <path data-name="6" data-official="Aveura proceros" data-plain="" data-loc="France" d="M649.5,1506.71c5-7.2.31-17.83-7.27-22.22s-16.86-4.29-25.62-4.06l-45.74,1.18c-3.49.09-7.14.15-10.26-1.41-6.53-3.25-8.05-11.87-13-17.26-10.07-11-29.6-4.87-41.95-13.29-10.8-7.36-12-22.58-11.88-35.65.11-17.68,2.07-38.26,16.91-47.86,11.25-7.28,25.88-5.38,39.09-3.22q1.08-81,2.14-162.06c.13-9.65.24-19.45-2.26-28.77-4-15.09-14.46-27.5-21.77-41.3s-11.15-31.67-2.11-44.4c10.31-14.51,31.57-15,49.08-11.8,11.65,2.12,23.66,5.5,32.17,13.73s12.11,22.57,5.12,32.12c-3.16,4.32-8.07,7.22-10.85,11.81-2.66,4.39-3,9.74-3.27,14.86-3.3,69.49,4.67,139,12.62,208.07.31,2.66.84,5.68,3.12,7.06,5.15,3.12,9.44-5.21,9.77-11.22,2.62-47.36,3.36-95,12.15-141.66,6-31.9,15.84-64.18,10.68-96.24-1.62-10.08-4.58-21,.31-30,4.4-8,14.41-11.93,23.52-10.92s17.32,6.16,24,12.49c14.48,13.79,21.95,38.78,8.25,53.35-2.92,3.1-6.6,5.5-9.1,9-3.49,4.83-4.23,11.07-4.86,17q-9,84.45-17.93,168.92c-.81,7.64-1.58,15.61,1.1,22.81s9.92,13.34,17.5,12c11.6-2,14.22-17.26,14.1-29l-1-92.09c-.15-14.92,1.75-33.22,15.44-39.17,14-6.07,30.2,7.29,33,22.29,1.32,7.1.59,14.45,1.68,21.59s4.66,14.62,11.38,17.26q6-54.48,7.78-109.33c.57-17.92.5-37-9.14-52.15-3.27-5.14-7.57-9.65-10.21-15.15s-3.24-12.61.7-17.27c2.34-2.76,5.87-4.19,9.32-5.27,16.13-5,33.38-4.71,50.27-4,9.17.37,18.63.89,26.9,4.87s15.13,12.34,14.52,21.5c-.84,12.58-14.1,20.12-20.71,30.86-5.38,8.75-6.16,19.48-6.53,29.74-2.35,65.24,6.23,131.87-10.39,195-1.68,6.39-3.57,13.39-.81,19.39,4.58,10,18.11,10.67,28,15.32,15.7,7.35,23,26,24,43.3.9,15.45-2.43,31.86-12.72,43.43s-28.6,16.65-42,8.81c-6.7-3.94-13-11-20.58-9.43-4.88,1-8.25,5.28-11.76,8.81A50.61,50.61,0,0,1,749,1491.69c-11.06.92-23.25-1.6-32.52,4.5-10.41,6.86-12.3,21.44-20.48,30.84a28.27,28.27,0,0,1-48.69-11.48Z"></path>
    <path data-name="7" data-official="Targionia hypophylla" data-plain="" data-loc="England" d="M970,1523.54c1.42-7.41,2.43-16.22-3-21.45-4.91-4.74-12.68-4.16-19.47-3.56-19.76,1.77-41.92.29-55.85-13.84a51.22,51.22,0,0,1-10.34-16.14,64.16,64.16,0,0,1-5-19.82c-.59-7.25.23-14.55,1.42-21.74,2.28-13.77,6-27.52,13.37-39.39s18.64-21.75,32.18-25.13c8.68-2.16,18.17-1.7,26.06-5.92a7.73,7.73,0,0,0,3.43-3c.81-1.57.63-3.44.61-5.21-.11-11.68,8.55-22.86,19.88-25.67,8.92-2.21,18.42.37,27.45-1.32,8.32-1.56,17.33-6.57,24.57-2.18,4.92,3,6.72,9.23,10.71,13.37,5.89,6.09,15.27,6.63,23.71,7.4a173.6,173.6,0,0,1,41.39,9c4.63,1.62,9.29,3.5,13,6.73,5.14,4.5,7.83,11.1,10.36,17.45,3,7.62,6.09,15.4,6.59,23.59s-2,17-8.38,22.14c-3.26,2.63-7.91,5.24-7.38,9.4.27,2.17,2,3.84,3.56,5.37,7.35,7.17,13.79,15.58,17,25.33s3,21-2.23,29.8c-6.41,10.78-18.87,16.27-30.85,20-13.17,4.11-27.82,6.83-40.48,1.32-8.54-3.71-15.11-10.72-21.79-17.21-3.39-3.29-8.77-6.59-12.33-3.5-1.55,1.34-2.08,3.48-2.52,5.47-2.32,10.61-4.21,21.46-8.91,31.25s-12.77,18.6-23.3,21.27-23.3-2.59-26.54-13Z"></path>
    <path data-name="8" data-official="Pellia epiphylla" data-plain="" data-loc="England" d="M1322.25,1392.08c-16.71-83.08,2.32-168.74,2.63-253.48.1-24.54-2.14-51-18.08-69.7-7-8.22-16.87-15.37-18.31-26.08-1.83-13.59,11-24.6,23.46-30.3,11.73-5.36,25.28-8.61,37.48-4.46s21.71,17.82,17.6,30c-1.32,3.92-3.83,7.31-5.44,11.11-2.85,6.71-2.75,14.25-2.6,21.54,2.09,104.17,4.19,208.52,16.1,312,.91,7.85,2,16.09,6.71,22.44,8.43,11.41,26,13.58,33.34,25.7,3.67,6,4.4,14.06,9.85,18.58,4.28,3.56,10.34,3.93,15.34,6.37,13.64,6.65,14.69,27.61,4.84,39.14s-26.34,15-41.51,14.56-30.11-4.24-45.28-4.24c-6.11,0-12.49.71-17.59,4.06-10.18,6.66-11.71,20.84-18.67,30.81A32.58,32.58,0,0,1,1288.9,1553a12.4,12.4,0,0,1-6.55-3.31c-4.94-5.46-.11-14.63-3.06-21.39-2.61-6-10.52-7.82-16.85-6.28s-11.76,5.51-17.67,8.27a50,50,0,0,1-48.13-3.69l-5-7c.22-6,.07-12.84-4.51-16.68-6.74-5.65-17.67-.53-25.48-4.56-5.08-2.63-7.58-8.58-8.27-14.25s0-11.46-.62-17.14c-1-9.09-5.37-17.42-8.35-26.07s-4.47-18.64,0-26.62c5.6-10,18.57-13.29,30-12.57,4.6.29,10.08.71,12.91-2.93,2.47-3.17,1.56-7.94,3.66-11.36,1.47-2.41,4.18-3.74,6.77-4.87a155.12,155.12,0,0,1,29.52-9.49c10.11-2.17,22.2-2.72,29.14,4.94,4,4.42,6,11.31,11.74,13s11.07-2.76,16.62-4.74c6.75-2.42,14.39-1.08,20.85,2s11.95,7.87,17.37,12.57Z"></path>
    <path data-name="9" data-official="Anthoceros lævis" data-plain="" data-loc="France" d="M1518.77,1528.82c7.69-2.69,6.12-15-.29-20s-15.09-6-22.21-9.95a29.86,29.86,0,0,1-14.91-22.18c-.66-5.49.2-11.24-1.77-16.4-2.14-5.59-7.41-9.88-8.25-15.8-2.11-15,23.48-20.19,25.69-35.17.75-5.07-1.42-10.67,1-15.16,1.49-2.71,4.36-4.34,6.4-6.67,4.27-4.89,4.36-12,4-18.53-.85-16.72-3-33.4-2.72-50.14.6-36.9,12.89-72.82,14-109.72a113.22,113.22,0,0,0-1.91-26.13c-1.88-9.07-5.28-17.74-7.72-26.68-7.43-27.14-5.9-55.82-4.32-83.91.41-7.17,1.56-15.59,7.89-19,2.5-1.34,5.41-1.61,8.24-1.84a517.88,517.88,0,0,1,96.68,1.25c4,.43,8.34,1,11.4,3.7,4.24,3.72,4.65,10.06,4.75,15.7.55,31.32,1,63.19-7.68,93.28-3.4,11.72-8.15,23-10.94,34.9-4.59,19.58-3.66,39.95-4.8,60-1.46,25.58-6.3,51-6,76.57.1,8.09.94,16.78,6.19,22.94,4,4.67,10,7.16,14.66,11.12,15.17,12.8,13.53,36.31,21.16,54.64,3.59,8.62,9.35,16.25,12.36,25.08,7.9,23.25-8.5,51.6-32.6,56.33-8.88,1.75-18,.67-27.08,1.27s-18.66,3.37-24,10.67c-3,4-4.26,9-6.59,13.42a32.23,32.23,0,0,1-52.85,6.08Z"></path>
    <path data-name="10" data-official="Duriæa helicophylla" data-plain="" data-loc="Algeria" d="M905.1,958.11a28.74,28.74,0,0,1-6.88-25c1.66-7.86,6.55-14.61,9.41-22.11,3.16-8.32,3.75-17.36,4-26.25.27-9.61.17-19.24-.29-28.84-.41-8.58-1.29-17.64-6.32-24.61-3.08-4.27-7.47-7.37-11.45-10.81a79.85,79.85,0,0,1-27-64.33c.62-9.79,3.41-20,10.58-26.69s18.18-9.1,24.49-16.79c8-9.74,5.79-24.14,9.72-36.13,3.32-10.12,11.27-18.44,20.89-23S953,648,963.44,650c7.35,1.41,14.86,4.6,18.94,10.87,4.29,6.59,3.92,15.06,3.4,22.91-3.85,57.62-7.75,115.56-21.35,171.68-2.75,11.32-5.89,22.59-7.31,34.15-1.82,14.85-.76,29.92-2.24,44.8-.64,6.51-1.89,13.26-5.87,18.45-7.11,9.26-20.29,10.68-32,11.33Zm49.15,16.78c.53,5.44,1.57,11.72,6.34,14.42,2.57,1.46,5.69,1.48,8.66,1.46,10.72-.06,21.57-.13,32-2.75a32.32,32.32,0,0,0,10-4,21.37,21.37,0,0,0,2.36-33.93c-7.09-6.21-17.29-7.06-26.71-7.16a39.31,39.31,0,0,0-10.83.93c-10.61,2.85-17.48,13.58-19.59,24.36ZM1072,967.12c12.24-2.14,24.13-9.23,29.45-20.45,5-10.62,3.62-23,2.64-34.73-.9-10.7-1.35-21.45-1.22-32.18.11-9.41.68-18.93,3.59-27.88s8.38-17.35,16.46-22.17c8.52-5.08,19.5-6,26.56-13,5.89-5.83,7.67-14.59,8.32-22.84.75-9.7-.08-20.51-7-27.41-6.07-6.11-15.27-7.56-23.79-8.84-1.46-.22-3.06-.52-4-1.69-1.27-1.63-.51-4,.3-5.89,5-11.89,9.76-24.21,10.12-37.1s-4.46-26.62-15.14-33.84c-11.44-7.72-27.34-6.28-39.22.73s-20.3,18.69-26.74,30.9c-10.4,19.73-16.44,41.42-21.92,63-3.11,12.24-6.08,24.64-6.46,37.26s2,25.65,8.89,36.25c2.69,4.14,6,7.87,8.46,12.18,3.29,5.82,4.78,12.46,6.23,19,3.32,14.94,6.54,31,.48,45.09-2,4.67-5,9-6.29,13.86-3.24,12.38,7.41,26.35,20.2,26.52Z"></path>
    <path data-name="11" data-official="Riccia nudichotoma" data-plain="" data-loc="France" d="M1260,970.08c2.79-3.83,4.83-9.27,2-13.11-2.41-3.32-7.37-3.67-11.24-2.32s-7.14,4-10.83,5.8a26.17,26.17,0,0,1-35.56-33.61c4.15-10,14-16.43,24-20.59,7.25-3,14.93-5.23,21.45-9.59s11.86-11.59,11.28-19.41c-.51-6.94-5.39-12.64-9.59-18.19-33.05-43.63-34.77-104.95-67.5-148.82-10.23-13.72-23.89-26.81-25-43.9-.17-2.61.06-5.46,1.74-7.46a10.07,10.07,0,0,1,2.33-1.93c12.87-8.3,30.65-4.79,43,4.3s20.47,22.64,28.26,35.84l22.57,38.18c2.22,3.77,4.6,7.69,8.36,9.92s8.79,2.47,13.26,1.57c15.67-3.13,26.66-17.28,33.87-31.55s12.35-30,23.14-41.78a56.22,56.22,0,0,1,39.24-18c5.53-.18,11.46.64,15.61,4.28,7,6.17,6,17.84,1,25.76S1378.64,699,1372.41,706c-9.73,10.94-15.21,25-20,38.81a588.26,588.26,0,0,0-16.77,58.38c-4.19,18.05-7.55,36.54-6.22,55,.83,11.41,4.16,23.78,13.61,30.22,8.1,5.52,18.6,5.36,28.23,7.14,6.6,1.21,13.17,3.52,18.28,7.87s8.57,11,7.92,17.66c-1.2,12.25-14.6,19.26-26.63,21.87a106.09,106.09,0,0,1-35.09,1.64c-2.84-.35-5.83-.79-8.47.33a11.18,11.18,0,0,0-5.13,5.15c-5.12,9.34-2.84,22.43-10.71,29.61-2.81,2.56-6.51,3.89-10.19,4.84a65.41,65.41,0,0,1-37.41-1.47Z"></path>
    <path data-name="12" data-official="Jungermannia bidentata" data-plain="" data-loc="England" d="M1036.09,576.55c12.21-1.76,25.81-5.84,31.19-16.94,2.25-4.65,2.71-10,2.73-15.12,0-5.47-.46-11-2.53-16.12-1.19-2.91-2.89-5.6-3.91-8.58-3.92-11.49,3.07-24,1.7-36.06-1.4-12.32-11.07-21.86-20.3-30.15l-2.74-4.45c15.4-4.41,25.12-19.94,29.24-35.42s4.12-31.82,8-47.38c2.69-10.89,7.27-21.57,6.94-32.79s-7.81-23.43-19-23.93c-8.47-.37-16,6.14-19.78,13.72s-4.87,16.19-6.69,24.48-4.76,16.83-11.21,22.35c-3.56-12.61-19.2-20.21-31.31-15.22-2.87-5.17-2.94-11.39-2.94-17.31q0-47.79,0-95.6c0-14.87-1.19-32.16-13.39-40.67-3.42-2.39-7.76-3.84-11.8-2.82-3.33.85-6.07,3.26-8.12,6-6.69,9-6.72,21.19-6.43,32.43.53,21.16,1.16,42.5-2.59,63.34-3,16.65-8.82,33.17-7.33,50-17.45-20.71-25.23-48-27.84-75s-.5-54.11-.61-81.19c0-4.19-.11-8.51-1.78-12.35-2-4.59-6-8-10.45-10.39-11.69-6.35-28.52-5.08-35.8,6.06-4.22,6.46-4.46,14.85-2.72,22.38s5.23,14.51,8.09,21.68a133.77,133.77,0,0,1,9.45,49.93c-.11,20.85-5,42.55,2.5,62l2.73,7.82c7.91,22.53,22.83,41.82,38,60.27q36.92,45,77.61,86.6c4.23,4.33,8.56,8.72,11.26,14.14s3.55,12.12.67,17.44c-2.25,4.14-6.36,6.88-9.47,10.42-6.46,7.37-8.15,17.66-9.57,27.36-.3,2.07-.59,4.24.12,6.2,1.31,3.58,5.39,5.2,9.08,6.15a84.71,84.71,0,0,0,20.16,2.68Z"></path>
    <path data-name="12a" data-official="" data-plain="Spore-case and leaves" data-loc="" d="M1368.34,2698a52.54,52.54,0,0,1,10.2-31.83c3.94-5.32,9-10,11.64-16s2.17-14.33-3.4-17.91c-3.15-2-7.26-2.14-10.33-4.27-4-2.82-5.16-8.23-5.84-13.12a322,322,0,0,1-1.7-73.75c.44-4.86,1-9.8,3-14.27s5.09-8,7-12.35c5.38-11.94.66-26.11,3.82-38.82,2.42-9.73,9.27-17.87,12-27.52,5.17-18.27-5.29-37.43-4-56.38.23-3.55,1.33-7.66,4.63-9,1.66-.66,3.56-.43,5.24-1,4.2-1.56,4.86-7.12,4.82-11.6l-.2-22c-.08-9.08-.12-18.39,3-26.9s10.31-16.15,19.33-17.2c10.86-1.26,20.94,7.62,24.31,18s1.45,21.75-1.58,32.25c-2.83,9.78-6.59,20.27-3.08,29.83,3.63,9.85,14.2,16.05,17.23,26.1,2.5,8.31-.74,17.09-2.47,25.59-2.68,13.22-1.66,26.89-.63,40.34l3.33,43.39c.44,5.73,1,11.79,4.38,16.43,2,2.77,4.9,4.81,7.08,7.46,5.64,6.87,5.71,16.59,5.52,25.47l-.46,20.71c-.2,8.89-.44,18-3.7,26.25a38,38,0,0,1-16.18,18.76c-5.47,3.16-11.67,4.91-17,8.22s-10,8.95-9.55,15.24c1,13.33,21.78,16,26.45,28.48,2.35,6.28-.25,13.6-4.92,18.41s-11,7.56-17.4,9.67a128.21,128.21,0,0,1-45,6.44c-10.44-.38-23.09-4-25.28-14.24Z"></path>
    <path data-name="12b" data-official="" data-plain="Spore-case" data-loc="" d="M1510.9,2684.59c-6.71-.66-14.13-1.67-18.51-6.82-3.25-3.82-4.05-9.24-3.39-14.21s2.65-9.66,4.44-14.35a203.8,203.8,0,0,0,13.23-67.19c.12-5.05-.15-10.66-3.7-14.26-2.68-2.73-6.66-3.67-9.89-5.72-4.61-2.94-7.44-8-9.26-13.17a51.68,51.68,0,0,1-.16-33.5c1.94-5.68,4.93-11.41,4-17.34-.83-5.41-4.75-9.74-7.32-14.57a30.95,30.95,0,0,1,35.81-44.28c4,1.13,7.69,3,11.72,3.89,9.07,1.9,18.68-1.79,27.66.46a22.16,22.16,0,0,1,16.24,22c-.39,7.25-4.43,14.32-2.93,21.43,1.2,5.68,5.69,10.05,8.19,15.29,2.77,5.82,3,12.49,2.9,18.93a220.74,220.74,0,0,1-1.82,25c-.61,4.68-1.63,9.8-5.37,12.67-4.49,3.44-11.76,2.68-15,7.33-1.6,2.33-1.64,5.35-1.63,8.17l.11,21.66c0,7.44.16,15.22,3.64,21.8,3.26,6.16,9.08,10.51,13.28,16.07,7.41,9.79,9.17,24,3,34.6-4.74,8.16-13.43,13.42-22.51,16s-18.63,2.82-28.06,3Z"></path>
    <path data-name="12c" data-official="" data-plain="Sheath of Spore-case" data-loc="" d="M1684.31,2666.35a152.42,152.42,0,0,1-31.24-.14c-4.85-.53-10.24-1.62-13-5.65a13,13,0,0,1-1.92-7.5c.1-15.61,15.45-28.72,13.51-44.21-1.08-8.54-7.2-15.42-12.59-22.12-38.71-48.14-50.37-116.68-29.77-174.91,1.8-5.08,3.86-10.29,3.44-15.67-.88-11.37-12.36-19.54-14.08-30.81a7.65,7.65,0,0,1,.22-3.92c.9-2.28,3.39-3.5,5.77-4.1,10.93-2.72,23.49,3.3,33.29-2.26,5.23-3,8.3-8.6,12.52-12.89s11.34-7.24,16.09-3.53c1.78,1.38,2.9,3.48,4.74,4.77,7,5,16.69-5.35,24.83-2.51,5.73,2,7.38,9.14,8.16,15.15,1.42,11,2.61,23.08-3.43,32.39-2.84,4.37-7.13,7.83-9.08,12.67s-1.24,10.41-.5,15.64q10.1,71.27,13.37,143.29c1,22.34,1.93,46,14.29,64.65,3.55,5.35,8.13,10.54,8.68,16.94.63,7.28-4.41,14.1-10.72,17.79s-13.73,4.86-21,6Z"></path>
    <path data-name="12d" data-official="" data-plain="Globule" data-loc="" d="M1762.32,2652.91c-6.74-1-14,1.7-20.24-1s-9-10-8.89-16.61,2.75-13,4.93-19.27a165.6,165.6,0,0,0,8.5-39.48c.59-6.58.69-13.59-2.58-19.33-2.71-4.76-7.37-8-11.2-11.93-12.9-13.25-15.48-34.25-9.88-51.87,2.38-7.52,6.33-14.89,12.81-19.39,8.88-6.17,20.61-5.84,31.37-4.78,12.14,1.2,25.44,3.69,33.06,13.23,6.63,8.3,7.17,19.76,7.43,30.38.15,6.63.26,13.53-2.48,19.57-2.38,5.26-6.69,9.35-10.06,14-6.71,9.31-9.63,20.92-10.21,32.39-.38,7.39,1,16.2,7.65,19.5,4.74,2.35,10.43.93,15.64,1.87a17.57,17.57,0,0,1,11.09,7c3.85,5.42,4.27,12.5,4.26,19.15,0,5.53-.29,11.36-3.25,16-4.43,7-13.44,9.38-21.67,10.33-7,.8-14.11,1-21.18,1.12Z"></path>
    <path data-name="12e" data-official="" data-plain="Spore-case" data-loc="" d="M1863.43,2651.3l-27.78,1.49c-2,.11-4.34.09-5.64-1.45a6.08,6.08,0,0,1-1.09-3.69c-.4-8.39,2.38-16.62,2.65-25,.4-12.19-4.46-23.83-8.27-35.41a216.31,216.31,0,0,1-10.15-84c.51-6.56,2-14.11,7.79-17.19,3.16-1.67,6.91-1.58,10.47-2s7.45-1.52,9.23-4.62c1.16-2,1.2-4.41,1.6-6.67,2.19-12.43,16-20.4,28.58-19.2a15.89,15.89,0,0,1,7.85,2.55c3.27,2.35,4.91,6.42,5.46,10.4s.18,8.05.29,12.07a50.42,50.42,0,0,0,4.66,19.76c3.57,7.7,9.11,14.52,11.43,22.69A51.85,51.85,0,0,1,1902,2536a155,155,0,0,1-5.64,39.12c-1.65,5.92-3.67,12.07-2.42,18.08,1.64,7.9,8.39,13.49,14.14,19.14s11.19,13.34,9.18,21.15-10.5,11.91-18.14,14.59a260.88,260.88,0,0,1-28.2,8.14Z"></path>
    <path data-name="13" data-official="Jungermannia sinuosa" data-plain="" data-loc="Dusky Bay, N. Zealand" d="M1161,556.48c-1.54,11.21.21,24.55,9.83,30.52,4.7,2.91,10.48,3.49,16,3.32a61.57,61.57,0,0,0,30.4-8.76,31.27,31.27,0,0,0,8.66-7.44c3.83-5,5.26-11.46,6.35-17.7,2.14-12.27,2.61-26.78-6.65-35.13l-3.55-4.14,10.18-28.69c4-11.35,7.94-24.46,1.92-34.9-3.6-6.27-10.1-10.18-15.6-14.87-18.74-16-26.37-43.77-18.4-67.07,1.65-4.82,4-9.55,7.73-13,4.82-4.43,11.47-6.31,16.71-10.23,7.09-5.3,11-13.78,14.2-22,9.44-24.05,15.89-49.18,25-73.35,20.46-54,54.59-103.89,61.51-161.22,1-8.4,1.38-17.16-1.6-25.08s-10-14.82-18.46-15.32c-10.52-.63-19,8.18-25.26,16.65a230.43,230.43,0,0,0-30.16,55.42,161.3,161.3,0,0,1,9.11-68.58c3.26-9,7.15-19.6,1.64-27.39-3.45-4.87-9.65-6.92-15.53-8s-12.45-1.3-17.55,1.91c-16.33,10.26-1.53,40.36-16,53.16-3-8.82-6.82-18.66-15.46-22.09-8.37-3.32-17.73.81-25.42,5.47-8.76,5.3-17.9,13-17.83,23.25.05,7.15,4.62,14.9.79,20.94-1.81,2.86-5.1,4.42-7.38,6.92-6.61,7.25-2.67,18.89,2.51,27.23s11.58,17.69,8.77,27.09l.25,7.43,3.36,45.18c.68,9.21,1.37,18.5.22,27.66-1,7.92-3.35,15.91-1.87,23.75,2.58,13.61,16.35,25.06,13.25,38.56-.65,2.86-2.06,5.5-2.82,8.33-3.2,11.89,5.22,23.78,5.69,36.08.43,11.11-5.59,21.27-9.74,31.59-9.84,24.48-8.36,55.06,9.65,74.34,5.12,5.48,11.56,10.18,14.18,17.19,3.21,8.57-.16,18.05-3.51,26.57l-18.62,47.39Z"></path>
    <path data-name="13a" data-official="" data-plain="Leaves and Stipules" data-loc="" d="M1994.66,2643.6a66.5,66.5,0,0,1-22.81,1.07c-3.12-.4-6.45-1.15-8.54-3.51-3.79-4.27-1.49-10.89.69-16.17a152.4,152.4,0,0,0,10.08-37.22c.72-5.22,1.1-10.86-1.48-15.45-4.89-8.69-16.93-9.05-26.35-12.34a36.85,36.85,0,0,1-18.28-14.11c-3.34-5-5.43-10.7-8.94-15.55a98,98,0,0,0-7-8.07,88.26,88.26,0,0,1-20.76-41.28c-1-5.07-1.29-11.14,2.6-14.56,2.32-2,5.56-2.58,8.62-3,8.74-1.31,17.56-2.61,26.37-2,16.71,1.16,33.82,9.1,49.57,3.39,5.62-2,10.6-5.72,16.38-7.23,10.73-2.79,21.71,2.32,32,6.31a169.55,169.55,0,0,0,58.89,11.34c5.47.07,11.18-.08,16.1,2.29,3.49,1.67,6.28,4.48,9,7.23,5.77,5.86,11.71,12.05,14.14,19.9s.14,17.83-7.24,21.46a40.31,40.31,0,0,1-6.32,2.08,37.83,37.83,0,0,0-21.47,16.77c-2.27,3.84-3.85,8.07-6.42,11.71-6.73,9.57-19,13.53-30.64,14.81-7.43.82-15.22.89-21.85,4.34s-11.51,11.83-8.13,18.5c1.7,3.36,5,5.52,8.22,7.52l18.89,11.85c3.72,2.33,7.68,5,9.15,9.09s0,8.73-2.7,12.07-6.6,5.53-10.53,7.31a74,74,0,0,1-42.8,5.41Z"></path>
</svg>
