
<svg xmlns="http://www.w3.org/2000/svg" viewBox="0 0 1877 2653" id="illustration" preserveAspectRatio="xMidYMid meet">
    <title>Characeæ</title>
    <path data-name="1" data-official="Chara vulgaris" data-plain="Common Chara" data-loc="Ponds, England" d="M762.62,1325.52c-1.64-2.26-3.36-4.72-3.41-7.51a3.39,3.39,0,0,1,.57-2.16,4.44,4.44,0,0,1,2-1.26c1.88-.71,4-1.34,5.86-.61a5.29,5.29,0,0,1,3.08,3.82,4.77,4.77,0,0,1-.83,4.11,5.86,5.86,0,0,1-1.92,1.37,15,15,0,0,1-4,1.35ZM453.85,1479.59l12.34-5.75,4.27-1.54c20.25-3.84,34.74-22.92,54.76-27.78a42.45,42.45,0,0,1,41.27,13.3,10.87,10.87,0,0,1,2.78,5c.78,4.5-3.26,8.15-6,11.8a13.17,13.17,0,0,0-2.95,7.21,7.09,7.09,0,0,0,3.46,6.63c.88.44,1.86.65,2.74,1.09,4.27,2.1,4.47,8,4.64,12.71.4,11.19,4.19,22.49,11.84,30.66,2.51,2.69,5.55,5.09,9.16,5.81s7.82-.68,9.47-4c1.3-2.59.81-5.69,0-8.47s-1.88-5.58-1.67-8.47,2.21-5.92,5.1-6.08c2.43-.14,4.53,1.75,5.8,3.83s2,4.47,3.5,6.4a7.57,7.57,0,0,0,6.21,3.22c2.42-.15,4.74-2.22,4.65-4.65l1.37-3.5a4,4,0,0,1,2.66-4,7.45,7.45,0,0,1,1.33-.26l6.17-.86,3.35-1.65a53,53,0,0,0,6.49-4,5.27,5.27,0,0,0,2.18-2.55,5.56,5.56,0,0,0-.13-2.59c-.48-2.21-1-4.57-2.7-6.11-2.48-2.28-6.52-1.93-9.21-4-3.19-2.4-3.38-7.11-5.65-10.39-1.27-1.82-3.17-3.18-4.12-5.18-1.24-2.61-.58-5.66-.47-8.55a21.52,21.52,0,0,0-3.1-11.86l-3.19-3c-2.84-1.62-6.25-1.82-9.52-2s-6.67-.3-9.55-1.86-5-5-4-8.09,4.63-4.67,7.84-5.68,6.84-2.36,8-5.52c.83-2.24.12-4.81.77-7.11,1-3.68,5-5.54,8.46-7.16A94.63,94.63,0,0,0,653.44,1391l3.83-5.15a21.26,21.26,0,0,0,4.37-7.08,16.63,16.63,0,0,1,1.56-3.62,3.72,3.72,0,0,1,3.29-1.81c2.24.26,3.12,3,3.14,5.31,0,5.54-2,10.84-3.69,16.13s-2.91,11-1.27,16.32a8.59,8.59,0,0,0,1.62,3.15,8.89,8.89,0,0,0,5.53,2.66c6.95,1,14-2.52,18.66-7.77a19.42,19.42,0,0,0,3-4.43,28.23,28.23,0,0,0,1.83-6,61.15,61.15,0,0,0,1.95-12.44c.09-4.35-.73-8.8.45-13,1.4-5,5.48-8.82,10.1-11.1s9.77-3.22,14.85-4c2.47-.39,5-.8,7.08-2.23,3.42-2.39,4.47-6.9,5.26-11l1.37-3.29c3.94-4.23,9.7-6.16,14.51-9.38a8.44,8.44,0,0,0,2.5-2.29,3.51,3.51,0,0,0,.43-3.26,5.57,5.57,0,0,0-2.27-2.16c-4.75-3.09-9.51-7.37-10-13l-.08-9.19a5,5,0,0,1,2.83-6,24.63,24.63,0,0,1,2.56-.66,6.74,6.74,0,0,0,4.8-5,5.42,5.42,0,0,0-3.11-6l-2.4-4.18c-9.11-2.24-18.64-.22-28,.2a2.56,2.56,0,0,1-1.85-.4,2.69,2.69,0,0,1-.62-2.07q0-9.25,0-18.5a35.19,35.19,0,0,1,.83-9.34c2.56-9.42,12.43-15.45,15.1-24.84l2.25-5.61,5.75-20.48c2-7,3.95-14.6,1.54-21.5-2.08-5.94-7.06-10.32-11.91-14.34s-10.21-8.23-16.43-9.92a30.67,30.67,0,0,0-14.29-.09c-3.3.7-6.55,1.8-9.92,2s-7-.5-9.35-3c-3.8-4-2.62-10.35-2.08-15.84a50.25,50.25,0,0,0-7.64-31.68c-1.42-2.21-3.06-5-1.77-7.24a6.54,6.54,0,0,1,2.66-2.24c6.38-3.57,13.43-6.31,18.51-11.56s7.46-14.18,2.79-19.81c-3.44-4.15-9.42-5.14-13.67-8.47-7.28-5.71-7.67-16.3-9.82-25.3a53.76,53.76,0,0,0-14.08-25.26l-5.35-7c-11.08-10.64-14.57-26.71-17.95-41.71s-7.88-31-20.05-40.44c-9.37-7.24-22-9.21-33.75-7.44a32.28,32.28,0,0,0-13.26,4.61c-9.65,6.45-12.67,19.29-12.67,30.89,0,6.54.23,14.19-4.9,18.23-3.09,2.43-7.28,2.76-11,3.92-12.95,4-20.18,17.6-24.69,30.38-1.22,3.47-2.41,7.07-4.87,9.81-2.33,2.58-5.58,4.14-8.16,6.47-6.47,5.83-7.73,15.34-8.58,24-2.17,22.14-4.2,45.32,4.27,65.88,2.25,5.46,5.23,10.75,5.95,16.61s-1.64,12.67-7.15,14.79c-4.87,1.87-11.95.36-14.15,5.09-1.26,2.71-.27,6.77-2.91,8.18-1.23.66-2.73.35-4.11.11-15.9-2.83-33.14,6.36-39.66,21.13l-2.77,6.53c-1.58,3.19-3.19,6.46-3.7,10s.23,7.45,2.8,9.93c1.2,1.16,2.75,2,3.73,3.33,1.9,2.61,1.1,6.22.31,9.36-2.66,10.51-4.29,21.38-3.59,32.2.34,5.4,1.7,11.44,6.32,14.26,1.64,1,3.54,1.48,5.23,2.38,5.65,3,7.81,9.82,10.38,15.68a64.47,64.47,0,0,0,15.66,21.75q-28.87,31.82-58.65,62.81c-17.27,18-34.92,35.92-55.62,49.84l-.75-4.59c3.39-7.48,6.74-15.08,8.07-23.17s.47-16.85-4.07-23.68c-1.49-2.25-3.37-4.28-4.34-6.8a20.23,20.23,0,0,1-1-6.75c-.24-9.64.18-19.42-2.09-28.79s-7.8-18.55-16.64-22.41-21-.42-24.34,8.63c-1.62,4.37-1.06,9.2-.9,13.86.37,11.32-2,23.1-8.89,32.12s-18.76,14.64-29.79,12.06a6.54,6.54,0,0,1-3.55-1.78c-1.24-1.42-1.23-3.51-1.17-5.4.24-8.23-.09-16.69-3.27-24.28s-9.78-14.2-17.92-15.37c-6.06-.88-12.59,1.21-18.16-1.32s-8.2-8.62-10.42-14.23c-3.85-9.69-7.38-21.68-.73-29.7,7.41-8.94,22.64-6.68,31-14.77,2.09-2,3.7-4.7,6.33-6s5.81-.91,8.67-.16c11.16,2.9,20.58,10.64,31.71,13.64,6.2,1.67,12.7,1.8,19.11,1.49,12.75-.61,27.51-4.57,32.22-16.43,4.15-10.45-1.86-22.59-10.63-29.64s-19.8-10.44-30.09-15c-5.06-2.23-10.3-5.07-12.85-10a22.76,22.76,0,0,1-2-9.6,72,72,0,0,1,8.55-36.92c5.07-9.35,12.49-18.7,11.13-29.25l.22-5.32c.17-9.15-11.15-13.34-20.16-14.93l-40.4-7.1c-.12-9.87-.34-20.14-4.79-29-4.85-9.6-14-16.16-20.79-24.53-10.25-12.69-14.6-29.27-15.71-45.56s.74-32.59,1.51-48.9c.35-7.36.34-15.23-3.64-21.44-7.46-11.63-25.19-12.25-33.83-23-10.72-13.39-1.81-33.66-6.81-50.06-5.1-16.74-25.75-26-42.4-20.62S89.84,845.44,90,862.94c.09,8.22,2.18,17.07-1.86,24.23-3.45,6.09-10.9,9.84-12.36,16.69-1.19,5.54,2.07,11.4.57,16.87C73.3,932,52.67,934.67,54.88,946.15c.47,2.41,2,4.47,2.86,6.76,5,13.34-13.69,28-7.06,40.61,5.32,10.1,20.13,7.25,31.36,9.27a10.38,10.38,0,0,1,5.95,2.72c3.31,3.57,1.36,9.54-1.92,13.14s-7.72,6.23-10,10.51c-7.54,13.81,11.86,31.89,3.75,45.37-4.41,7.33-15.46,9.59-17.91,17.79-1.53,5.13,1,10.45,2.5,15.6s1.09,12-3.77,14.23c-2,.94-4.35.82-6.56,1.12-9.64,1.35-16.47,12.7-13.14,21.84.69,1.89,1.74,3.73,1.71,5.74-.08,4.05-4.24,6.54-7.48,9-7.61,5.69-12,17.43-6,24.77,3,3.68,7.91,5.31,12.63,6,15.07,2,32.76-3.59,44.15,6.5,2.06,1.83,3.8,4.24,4,7,.49,5.79-5.66,10-11.34,11.15s-11.89.88-16.86,3.87c-8.79,5.29-9,19.17-2.24,26.92s17.81,10.24,28.06,9.85a65.73,65.73,0,0,0,35.1-11.84c3.63-2.55,7.89-5.64,12.06-4.13,1.95.71,3.41,2.32,4.79,3.87L161.94,1269l3.4,4.85a15.08,15.08,0,0,1,6.38,12.43,5.29,5.29,0,0,1-.81,3.07c-2.15,2.92-6.59.51-10.06-.55-6.2-1.9-13.53,2.65-14.59,9-.51,3.08-.14,7-2.9,8.49-1.57.83-3.49.37-5.15-.26-9-3.46-15.4-11.33-23.07-17.15s-18.92-9.46-26.63-3.7c-7.09,5.31-7.48,16.17-3.93,24.28s10,14.5,15.14,21.73a72.51,72.51,0,0,1,8.33,15.46c1.76,4.49,2.6,10.6-1.43,13.26-1.94,1.28-4.43,1.27-6.75,1.21l-26.36-.66c-6.38-.15-13.49,0-18.13,4.34-4.37,4.13-5.07,11.22-2.64,16.73s7.45,9.53,12.94,12c4.84,2.18,10.11,3.31,15,5.45a39.33,39.33,0,0,1,21.73,25.14c.47,1.71.78,3.67-.2,5.15a6.42,6.42,0,0,1-2.79,2c-9.77,4.38-20.84,4.79-31,8.08s-20.38,11.2-20.59,21.91c0,1.94.42,4.13,2.06,5.17a6.88,6.88,0,0,0,3.14.78l40.19,3.44,7.09,3.9c5.85,3.68,7.9,12.45,14.57,14.27a22.17,22.17,0,0,0,6.31.27A38,38,0,0,1,149.42,1501c3.39,3.62,6.05,7.9,9.6,11.37a31.21,31.21,0,0,0,28.68,7.83c6.71-1.65,12.73-5.54,19.49-7s15.25.71,17.5,7.24l1.12,5.59c-.48,31.6-10.32,62.24-20.85,92-20,56.62-44.61,114.6-90.73,153.08-13.06,10.89-28.16,20.64-35.5,36-5.74,12-6,25.85-10.41,38.34-4.07,11.39-11.72,21.94-11.74,34,0,10.23,6.35,20.43,15.92,24s21.66-.31,26.53-9.3c5.86-10.83.72-24.55,4.26-36.35,2.63-8.81,9.73-15.44,16.45-21.73,34.17-32,66-66.85,91.14-106.31s43.56-83.73,49.57-130.15c2.9-22.47,2.91-45.27,6.46-67.64,6.63,3.34,10.18,10.54,13.74,17.06a170.81,170.81,0,0,0,85.62,76.08c2,.81,4.2,1.6,6.37,1.28,7-1,7.39-11.07,5.27-17.83-3-9.39-7.07-18.45-9-28.12-2-10.44-1.41-21.24-3.07-31.75s-6.3-21.43-15.6-26.6a135.82,135.82,0,0,0,39.92-6.26l4.29-3.12a130.55,130.55,0,0,0,17.37-9.13c3.85-2.54,7.43-5.48,11.3-8,6.74-4.36,14.25-7.33,21.71-10.28Z"></path>
    <path data-name="1a" data-official="" data-plain="Branch, with fructification" data-loc="" d="M29.11,2580.55c-6.54-36.5,11.85-74,5.79-110.55-1.83-11.09-5.87-21.69-8.82-32.54-9.37-34.4-7.74-71.09-.1-105.91s21.07-68.08,35.26-100.78c13.35-30.76,27.58-61.49,47.87-88.18,7.49-9.85,18.76-20.06,30.62-16.53,12.58,3.75,15.91,19.9,15.65,33a193.25,193.25,0,0,1-9.13,55c-3,9.47-6.5,20.77-.29,28.53,3.21,4,8.28,5.93,12.64,8.64,18.9,11.74,23.25,36.88,25.76,59,4.4,38.65,8.79,77.35,10,116.24.42,14.15.16,29.25-7.62,41.08-3.84,5.83-9.24,10.42-14.16,15.38-9.37,9.45-17.1,20.39-24.77,31.27-8.3,11.77-16.73,23.79-21,37.54-3.57,11.45-4.09,23.59-4.59,35.57l-1.68,40c-.18,4.52-.68,9.65-4.29,12.37-2.41,1.81-5.6,2.05-8.6,2.18A377.21,377.21,0,0,1,56,2640.68c-4.2-.38-8.56-.89-12.17-3.08-11.62-7.07-8-24.75-13-37.39Z"></path>
    <path data-name="1b" data-official="" data-plain="Upper capsule" data-loc="" d="M253.29,2591.48c1.34-14.9,2.53-30.68-4.09-44.09-5.51-11.16-15.73-19.17-23-29.26-15.64-21.68-16.29-50.37-16.34-77.1l-.06-31.32c0-17.06.55-35.82,12-48.52,9.65-10.75,25.79-15.43,32.22-28.37,2-4,2.85-8.53,4.72-12.61,4.7-10.31,15.61-16.91,26.83-18.5,8.79-1.25,19.08,1,23.53,8.69,2,3.52,2.58,7.7,4,11.51,5.55,14.72,22.72,20.9,33.77,32.11,13.06,13.24,16.89,32.82,19.28,51.27q3.83,29.61,4.78,59.49c.39,12.43.37,25.17-3.73,36.92-5.89,16.86-19.46,29.81-28.07,45.46a84.79,84.79,0,0,0-9.94,31.23c-1.07,9.44-.71,19.59-5.82,27.6-6.46,10.13-19.59,13.56-31.57,14.51-6.53.52-13.26.53-19.47-1.56s-11.9-6.6-14-12.81Z"></path>
    <path data-name="1c" data-official="" data-plain="Globule" data-loc="" d="M462.75,2596.53a25.3,25.3,0,0,0-3-29c-4.89-5.4-11.87-8.33-17.83-12.53-11.72-8.26-19.17-21.1-27.3-32.91-5.43-7.89-11.35-15.55-15.26-24.29s-5.65-18.92-2.35-27.9,11.07-15.54,15.47-24c5.13-9.87,5.64-22.2,13.1-30.45,5.15-5.7,12.75-8.42,20.08-10.69,27.05-8.37,55.91-13.54,83.66-7.94s54.22,23.65,63.79,50.3c6.42,17.87,4.83,37.53,2.44,56.37-1,8-2.2,16.11-5.51,23.47-6.58,14.62-20.69,24.4-35.09,31.44-7.78,3.8-16.5,7.65-20.15,15.5-2.49,5.34-2.08,11.5-2.39,17.39-.38,7.09-2.17,14.63-7.51,19.31-6,5.28-14.74,5.57-22.73,5.6l-19.66.05c-6.91,0-15.5-1.06-17.84-7.56Z"></path>
    <path data-name="1d" data-official="" data-plain="Capsule, sprouting" data-loc="" d="M616.51,2591.27q7-26.89,11.65-54.34c8.33-49.7,10.82-101.21,30.38-147.65,4.74-11.26,10.47-22.15,14.2-33.78a122.17,122.17,0,0,0,5.52-36.73c.07-16.34-2.8-33.08-11.17-47.1-9-15.12-24.49-27.55-26.36-45.07-.69-6.43.8-13.33,5.18-18.1,6.19-6.75,17-7.73,25.49-4.41s15.22,10.16,20.91,17.34a142.41,142.41,0,0,1,24.92,48.12c1.6,5.47,3,11.31,7,15.38,5.51,5.62,14.6,6.23,22.08,3.78s13.83-7.4,20.3-11.89a198.29,198.29,0,0,1,91.92-34.12c8.08-.84,16.44-1.16,24.12,1.49s14.6,8.82,16,16.81-4.26,17.17-12.37,17.68c-5.13.33-9.88-2.56-14.94-3.46-15.16-2.68-27,12-39.76,20.57-19,12.84-44.95,13.34-62.49,28.17-1.13.95-2.31,2.3-1.88,3.71a3.82,3.82,0,0,0,1.8,1.88c14.23,9,33.9,9.46,44.62,22.43,2.7,3.28,4.62,7.16,7.37,10.4,3.84,4.51,9.1,7.56,13.45,11.57a39.93,39.93,0,0,1,11,17.26c.68,2.13,1.16,4.49.31,6.55-1.08,2.62-3.92,4-6.56,5-19.51,7.64-40.48,10.62-61.22,13.54-21,3-43.83,5.61-62.3-4.87-6.34-3.61-13.88-8.79-20.15-5-5,3-5.64,9.86-5.81,15.7a493.33,493.33,0,0,1-14.21,104.5c-2.65,10.75-5.18,23.61,2.4,31.68,5.15,5.48,13.6,6.9,18.65,12.48,5.93,6.54,5.19,17.28.19,24.56s-13.29,11.64-21.66,14.45a89.71,89.71,0,0,1-58.47-.64Z"></path>
    <path data-name="1e" data-official="" data-plain="Motion of fluid within each joint" data-loc="" d="M1024.75,2611.25c9.23.26,20.54-.7,24.42-9.07,3.78-8.15-1.88-19.48,4.35-26,2.94-3.06,7.76-3.86,10.49-7.12,2.32-2.76,2.63-6.63,2.82-10.23a2290.4,2290.4,0,0,0-.07-246.09c24.37-7.57,41.92-29.59,51.43-53.27s12.4-49.38,17-74.49c.91-5,2.06-10.28,5.72-13.77,2.8-2.68,6.69-3.88,9.88-6.08,10.49-7.2,10.92-22.24,10.26-34.94-.22-4.38-.5-8.94-2.69-12.75-1.84-3.19-4.84-5.52-7.37-8.21a34.63,34.63,0,0,1-7.87-32.72l-5.25-8c-6.33-10.63-21.38-15-32.38-9.32-2.29,1.17-4.52,2.74-7.09,2.8-4.1.09-7.16-3.6-9.65-6.86-4.6-6-9.79-11.94-16.67-15.09-5-2.26-10.7-3-14.87-6.54-5.5-4.59-6.7-12.42-7.52-19.54l-3.11-26.8c-.73-6.24-1.48-12.59-4.1-18.3s-7.45-10.75-13.6-12c-5-1-10.18.6-15.29.41-5.92-.21-11.46-2.78-17.06-4.72a82.68,82.68,0,0,0-54,.14c-4.07,1.43-8.24,3.35-10.7,6.9s-2.81,8.28-3,12.68c-.67,21,.65,42.86,11,61.07l3.19,8.93c7,8,14.57,18,11.6,28.29a4.61,4.61,0,0,1-2,3c-1.23.64-2.71.23-4-.18-6.69-2.09-14.92-3.61-19.9,1.31-2.11,2.08-4.33,5.43-7.09,4.34a5.61,5.61,0,0,1-2.27-2.21c-3-4.33-5.89-8.8-9.84-12.27s-9.21-5.86-14.41-5.11c-9.84,1.43-14.82,12.72-16,22.59-1.5,12.19-.06,24.58-1.12,36.82-1.09,12.79-4.9,25.27-5.53,38.09-.6,12.35,1.75,24.64,4.3,36.74,2.37,11.26,5,22.64,10.52,32.73,3.45,6.3,8,11.95,11.66,18.13,8,13.4,12,29.27,22.34,40.94,8.4,9.47,20.84,16.07,25.15,28,2.15,5.9,1.95,12.39,1.23,18.62l.66,9.34q-2.44,107.48,5.16,214.85c.33,4.69,1,10,4.92,12.69,2.35,1.62,5.42,1.85,7.85,3.34,5.49,3.35,5.59,11.17,4.78,17.55s-1.47,13.94,3.4,18.14c3.22,2.78,7.83,3.06,12.07,3.2l24.1.82Z"></path>
    <path data-name="1f" data-official="" data-plain="Stem" data-loc="" d="M1201.64,2611.58a286.32,286.32,0,0,1-33,.91c-4.22-.12-8.86-.52-11.81-3.53-3.62-3.68-3.19-9.68-1.78-14.64s3.57-10,2.56-15.09c-1.49-7.55-9.19-11.92-14-17.94s-6.72-14-6.95-21.69,1.07-15.41,2-23.08c4.77-39.38-.19-79.65,6.75-118.71,1.35-7.58,3.9-16.07,10.88-19.31,2.71-1.26,5.76-1.53,8.74-1.78l20.73-1.77c12.86-1.09,26-2.17,38.55.68s24.81,10.3,30.15,22c3.77,8.32,3.76,17.79,3.68,26.92q-.5,56.85-1,113.69c-.05,5.74-.12,11.57-1.68,17.1s-4.83,10.82-9.88,13.55c-3.72,2-8.26,2.6-11.38,5.45-6.52,6-2.78,16.83-5.33,25.27a17.34,17.34,0,0,1-18.29,11.77Z"></path>
    <path data-name="1g" data-official="" data-plain="Section" data-loc="" d="M1354.2,2625.3l-11.93-1.71c-6.51-.93-13.75-2.29-17.54-7.66-6.67-9.42,2.3-22.84-1.17-33.85-2.55-8.11-11-12.54-17.46-18-10.68-9-17.15-22.29-19.68-36s-1.37-27.91,1.26-41.61c2-10.28,4.88-20.62,10.8-29.25,10.72-15.62,30-23.45,48.78-25.67,14.39-1.7,29.25-.56,42.87,4.43s25.91,14,33.89,26.08c10.9,16.53,13,37.43,11.52,57.18-.71,9.2-2.15,18.44-5.62,27s-9.1,16.41-16.88,21.37c-7.49,4.76-17.32,7.33-21.22,15.29-2.27,4.62-1.92,10-1.9,15.17,0,7.6-.92,15.59-5.28,21.82s-13,10-19.87,6.72Z"></path>
    <path data-name="1h" data-official="" data-plain="Filaments of globule" data-loc="" d="M1516.94,2607.42c.61-4.84-3.1-9.22-7.25-11.76s-9-4-12.89-6.86c-6.88-5-10-13.62-14.57-20.79-5.7-8.88-14-15.86-19.67-24.74-7.63-11.93-9.93-27.83-3.48-40.43,3-5.83,7.82-11.27,7.67-17.82-.12-5.14-3.32-9.6-5.66-14.19s-3.72-10.52-.56-14.58c2.8-3.58,8.07-4.23,11.34-7.39,7.84-7.57-.45-23.33,7.57-30.71,5.93-5.46,15.86-1.64,23.25-4.87,7.67-3.35,11.78-13.92,20.15-14,3.29,0,6.39,1.66,9.67,1.78,5.87.2,11.17-4.68,17-4,4,.48,7.11,3.42,10.75,5.06,8.26,3.71,17.77.37,26.81-.07,7-.34,14.33,1.3,19.38,6.09s7,13.19,3.06,19c-1.36,2-3.29,3.58-4.76,5.51-5.25,6.92-2.69,18.32,5,22.33,6.83,3.56,15.41,1.47,22.53,4.39,7.77,3.18,12.08,11.61,13.94,19.79,1.33,5.84,1.16,13.16-3.91,16.32-1.22.76-2.63,1.2-3.79,2-2.72,2-3.45,5.87-2.76,9.18s2.51,6.24,4.07,9.24a63.9,63.9,0,0,1,7,24.77c.46,6.36-.33,13.43-5,17.8-5.86,5.54-16.1,5.05-20.93,11.51-1.48,2-2.27,4.43-4,6.23-5.2,5.57-15.78,2.28-20.94,7.89s-.56,14.51.09,22.18c.84,9.95-6.05,19.33-14.8,24.16s-19,5.93-29,6.31a241,241,0,0,1-27.93-.57c-2.4-.18-4.91-.45-6.91-1.79-4.11-2.77-4.3-8.65-4.06-13.6Z"></path>
    <path data-name="1i" data-official="" data-plain="Phytozoom of filament. All highly magnified" data-loc="" d="M1734.16,2628.91l-14.93-.75c-6-.3-13.06-1.13-16.27-6.27-2.15-3.44-1.88-7.81-1.46-11.85a321,321,0,0,1,6.66-39.45c.92-3.89,1.9-7.93,1.08-11.84-1.35-6.37-7-10.7-11.58-15.36a54.85,54.85,0,0,1-15.36-35.17c-.34-6.82.49-14.16-3.06-20-3.43-5.64-10-8.31-15.56-11.91a46.25,46.25,0,0,1-15.6-17.09c-3.16-6-5-12.75-9.15-18.15-5.25-6.88-14.4-12.46-13.79-21.09.56-8,10-12.76,18-11.92a26.09,26.09,0,0,1,21,15.64c2.7,6.49,2.65,13.92,5.71,20.24a22.7,22.7,0,0,0,12.33,11.25,25.57,25.57,0,0,1,19.48-14.86c5.9-.85,12.42.3,17.43-2.93,8.39-5.41,7.2-19.56,15.68-24.84,5.56-3.46,13.25-1.29,17.89,3.33s6.86,11.09,8.59,17.4a85.83,85.83,0,0,1,3.38,20.08c.06,2.43-.06,5-1.33,7.08-5,8.24-20.39,1.05-26.29,8.66-1.94,2.49-2.16,5.9-3.61,8.7-2.74,5.31-9.11,7.4-13.69,11.23-9.31,7.76-9.32,24.4.46,31.56,8.65,6.34,21.77,4.89,29.22,12.6,3.46,3.57,5.21,8.72,9.29,11.57,2.72,1.9,6.11,2.5,9.14,3.87a19.73,19.73,0,0,1,10.52,11.73c2.65,8.15-.26,17.07.9,25.55.91,6.63,4.26,12.67,5.86,19.16s1,14.42-4.45,18.38c-2.32,1.69-5.19,2.42-8,3.06q-11.19,2.57-22.57,4.18Z"></path>
    <path data-name="2" data-official="Nitella flexilis" data-plain="Smooth Nitella" data-loc="Ponds and rivulets, England" d="M1088,1663.93c-2.58-13-9.58-27.27-22.58-29.84-4.63-.92-9.4-.17-14.12-.29s-9.82-1.35-12.66-5.12c-2.41-3.19-2.64-7.45-3.42-11.38a38,38,0,0,0-13.9-22.42c-7-5.38-16.39-8.92-19.58-17.15a4,4,0,0,1-.17-3.22,4.22,4.22,0,0,1,2.55-1.75c6-2,12.65-1.57,18.8-3.21a29,29,0,0,0,19.83-19l3.63-10c5-11.5,9.82-25.3,3.14-35.9-3.34-5.3-9.06-8.72-12.58-13.9a6.56,6.56,0,0,1-1.42-4.11c.15-1.71,1.41-3.1,2.57-4.37a118.49,118.49,0,0,0,13.72-18.27c2.94-4.82,5.59-10.72,3.37-15.91-1.17-2.76-3.55-4.8-5.94-6.61a91.53,91.53,0,0,0-69.43-17.18c-1.63.27-3.38.66-4.46,1.91-1.27,1.49-1.18,3.67-1,5.62q1.41,16.88,2.84,33.75c.27,3.26.53,6.66-.72,9.69-1.63,4-5.49,6.47-9.29,8.43-15,7.73-33.76,11.47-42.68,25.83-2.29,3.69-3.78,7.92-6.67,11.17-5.75,6.45-15.4,7.4-24,7.25-4.33-.08-9.09-.51-12.12-3.61-4.64-4.75-2.54-12.69.49-18.6,5.08-9.88,11.94-18.76,16.92-28.69s8-21.53,4.76-32.15a17.88,17.88,0,0,0-4.89-8.24,22.26,22.26,0,0,0-7.2-3.9c-19.79-7.32-42.6-6.93-60.16-18.63-5.36-3.58-10.34-8.85-10.64-15.29-.26-5.52,3.06-10.69,7.32-14.22s9.42-5.73,14.36-8.2c13.3-6.63,26-16.07,32.1-29.64l.06-7.06a24.43,24.43,0,0,0-4.29-11.73,12,12,0,0,0-5.46-4.65c-2.56-.92-5.39-.45-8.07,0a42.21,42.21,0,0,0-4.3.93c-2.27.66-4.43,1.71-6.76,2.09-2.06.33-4.18.13-6.25.4-3.54.47-6.74,2.29-9.83,4.08l-8.67,5-3.78,2.48a56.2,56.2,0,0,1-5,4.53,11.76,11.76,0,0,1-.15-7.33c1.89-7.91,7-14.6,12-21l7.83-10.08,1.56-6c1-3.45-1.19-7-3.83-9.49s-5.85-4.37-7.79-7.4c-2.33-3.6-2.46-8.15-2.53-12.44q-.07-5.61-.16-11.22a21,21,0,0,1,.56-6.39c1.22-4,4.67-6.91,7.9-9.61a313.83,313.83,0,0,0,31-29.7c2.42-2.66,4.83-5.42,6.26-8.72a17.33,17.33,0,0,0,1-10.75,7.65,7.65,0,0,0-1.83-3.75,9.79,9.79,0,0,0-2.86-1.77c-10.15-4.76-20.32-9.54-30.94-13.16a46.1,46.1,0,0,0-14-3c-7.5-.14-14.79,2.85-21,7.09s-11.42,9.7-16.6,15.12a15.06,15.06,0,0,0-3.64,5.07,12.47,12.47,0,0,0-.35,5.54,34.67,34.67,0,0,0,5.4,14.83c3.4,5.18,8.18,9.42,11.11,14.88,3.12,5.82,3.89,12.59,4,19.18s-.33,13.13-3.43,18.77-9.46,9.91-15.8,8.81c-2.53-.44-4.84-1.66-7.26-2.53a26.68,26.68,0,0,0-18.35.19l-4.35,2.64,2.4,4.18a5.42,5.42,0,0,1,3.11,6,6.74,6.74,0,0,1-4.8,5,24.63,24.63,0,0,0-2.56.66,5,5,0,0,0-2.83,6l.08,9.19c.5,5.66,5.26,9.94,10,13a5.57,5.57,0,0,1,2.27,2.16,3.51,3.51,0,0,1-.43,3.26,8.44,8.44,0,0,1-2.5,2.29l-6.33,10.15a67,67,0,0,0,28.33,33.17c3.75,2.2,8,4.26,10,8.12a18.23,18.23,0,0,1,1.55,7.37,119.78,119.78,0,0,1,0,14.43,5,5,0,0,1-.73,2.76c-.85,1.11-2.41,1.31-3.81,1.42q-17.45,1.33-35,.94c-7.16-.16-14.78-.43-20.92,3.26a6.29,6.29,0,0,0-2.76,2.78,7.62,7.62,0,0,0-.15,4q1.35,9.83,2.71,19.66c.78,5.62,1.15,12.34-3.27,15.9-5,4-12.29,1.13-18.54-.43a72.45,72.45,0,0,0-12.11-1.66q-16.51-1.31-33.09-1.72c-3.15-.08-6.41-.11-9.29,1.16-4,1.78-6.59,5.79-8.22,9.87s-2.57,8.44-4.57,12.34l-3.61,4.88c2.27,3.28,2.46,8,5.65,10.39,2.69,2,6.73,1.68,9.21,4,1.66,1.54,2.22,3.9,2.7,6.11a5.56,5.56,0,0,1,.13,2.59,5.27,5.27,0,0,1-2.18,2.55,53,53,0,0,1-6.49,4l-3.35,1.65-6.17.86a7.45,7.45,0,0,0-1.33.26,4,4,0,0,0-2.66,4l-1.37,3.5c.09,2.43-2.23,4.5-4.65,4.65a7.57,7.57,0,0,1-6.21-3.22c-1.48-1.93-2.23-4.32-3.5-6.4s-3.37-4-5.8-3.83c-2.89.16-4.9,3.2-5.1,6.08s.87,5.68,1.67,8.47,1.28,5.88,0,8.47c-1.65,3.28-5.87,4.67-9.47,4s-6.65-3.12-9.16-5.81l-4.14,4.88a8.81,8.81,0,0,1-9.08-.18c-3.35-2.17-4.77-6.31-5.75-10.18s-1.9-8-4.74-10.83c-3.53-3.49-9-3.91-13.92-4.12a23.33,23.33,0,0,0-8.13.6c-1.91.6-3.66,1.7-5.61,2.14-3.22.71-6.51-.43-9.76-.92-5.21-.78-10.52.1-15.78,0a3.9,3.9,0,0,1-3-1,3.57,3.57,0,0,1-.61-2.53c.18-3.9,2-7.51,3.49-11.11a35.93,35.93,0,0,0,3.24-12.61c.15-4.36-1.1-8.91-4.11-12.07a19.89,19.89,0,0,0-8.14-4.72l-7.53-5.94c-6,3.65-12.15,6.69-19,8l-4.27,1.54-12.34,5.75-9,5.83c-7.46,2.95-15,5.92-21.71,10.28-3.87,2.51-7.45,5.45-11.3,8l-2.77,9.9c-1.82,5.79,1.74,11.85,5.74,16.41s8.82,8.9,10.22,14.8c1.53,6.45-1.58,13.31-6.37,17.89s-11.06,7.25-17.26,9.58c-7.25,2.73-15.82,6.44-17.05,14.09-.74,4.61,1.59,9.12,4.13,13a96.38,96.38,0,0,0,61,41.5c3.47.7,7.52,1.6,9,4.82,1.67,3.66-1.08,7.69-3.49,10.92a95.84,95.84,0,0,0-18.32,46.28,25.09,25.09,0,0,0,.32,9.66c1.23,4.35,4.43,7.87,6.25,12,5.45,12.41-2.35,27,.57,40.22L445.4,1775c-2.26,6.67,4.39,13.56,11.35,14.68s13.88-1.52,20.7-3.32a87.6,87.6,0,0,1,34.68-2c3.17.45,6.56,1.22,8.63,3.66,2.65,3.14,2.06,8.08-.25,11.49s-6,5.63-9.48,7.75l-31.18,18.77c-6.34,3.81-13.45,8.89-13.59,16.29-.11,6.28,4.95,11.3,9.64,15.48,43.38,38.68,89.77,77.57,146.06,92-7.46,19.48-19.18,37-28,55.9s-14.84,40.31-9.85,60.56c.67,2.69,1.58,5.43,3.49,7.43a15.47,15.47,0,0,0,7,3.71c12.66,3.72,28.67.54,34.75-11.17,2.68-5.15,3.07-11.13,4.34-16.79,3.55-15.8,13.92-29,21.71-43.22a142.38,142.38,0,0,0,14.42-38.74c.85-4,1.64-8.25,4.42-11.24,5-5.35,13.52-4.21,20.74-3.12a164.22,164.22,0,0,0,119-28.86l4-7.75a71.92,71.92,0,0,0,42.56-27.69c1.3-1.8,2.65-3.76,4.72-4.56,3.8-1.48,7.69,1.52,11,3.85a41.35,41.35,0,0,0,33.74,6c3.05-.81,6.29-2.23,7.59-5.1,2.15-4.72-2.13-10.4-.41-15.3,2.15-6.17,12-6.72,14.14-12.9,1.36-4-1-9.12,2-12.07,1.29-1.3,3.21-1.67,4.89-2.39a12,12,0,0,0,7.1-10.49c.12-5.28-3.28-10.6-1.55-15.59,1.42-4.1,5.83-6.41,7.9-10.21,5.14-9.44-6.33-20.56-4.2-31.08.46-2.28,1.77-4.59,4-5.33a7.25,7.25,0,0,1,5.57.89c6.48,3.39,10.07,10.39,14.92,15.87,6.47,7.31,16,12.18,25.76,11.84s19.4-6.45,22.79-15.61c2.34-6.34,1.71-13.59,4.72-19.64l4.21-5c7.38-5,15.46-11.08,16.47-19.93.85-7.35-3-16.42,2.57-21.25,3.36-2.89,8.34-2.33,12.75-2.77,11.32-1.12,20.84-10.05,25.07-20.61S1090.17,1675.09,1088,1663.93Zm-318-342a5.86,5.86,0,0,1-1.92,1.37,15,15,0,0,1-4,1.35l-1.37.89c-1.64-2.26-3.36-4.72-3.41-7.51a3.39,3.39,0,0,1,.57-2.16,4.44,4.44,0,0,1,2-1.26c1.88-.71,4-1.34,5.86-.61a5.29,5.29,0,0,1,3.08,3.82A4.77,4.77,0,0,1,769.93,1321.91Z"></path>
    <path data-name="3" data-official="Nitella translucens" data-plain="Great transparent Nitella" data-loc="Poos, England" d="M870.44,1327.93a12,12,0,0,0-5.46-4.65c-2.56-.92-5.39-.45-8.07,0a42.21,42.21,0,0,0-4.3.93c-2.27.66-4.43,1.71-6.76,2.09-2.06.33-4.18.13-6.25.4-3.54.47-6.74,2.29-9.83,4.08l-8.67,5-3.78,2.48a56.2,56.2,0,0,1-5,4.53,11.76,11.76,0,0,1-.15-7.33c1.89-7.91,7-14.6,12-21l7.83-10.08,1.56-6,6.4.78c14.11-10,32.59-10.63,49.88-10.89,19.28-.3,38.94-.54,57.34,5.22,9.61,3,18.65,7.6,28.15,10.94,18.12,6.37,37.56,8.11,56,13.6,17.92,5.35,34.58,14.17,52,21.07s36.19,11.93,54.68,9.13c-44.72-16.16-78.49-52.82-109.4-89-16.38-19.15-32.79-39-41.53-62.66-5.53-15-9.26-33-23.42-40.33-7.7-4-16.82-3.78-25.27-5.78a48.52,48.52,0,0,1-24.75-14.75l-5.56-6.12c-.5-9.43-.07-19.08,3.14-28s9.52-17,18.21-20.65c6.44-2.73,13.63-2.89,20.54-4a2.87,2.87,0,0,0,1.8-.77,2.82,2.82,0,0,0,.07-2.67c-2.68-7.89-8.72-14.29-11.47-22.16a37.42,37.42,0,0,1-1.05-18.77c1.08-6.12,3.39-12.25,7.88-16.56s11.47-6.36,17.15-3.85c2.94,1.31,6.17,3.75,9,2.19a8.48,8.48,0,0,0,2.39-2.42,30.4,30.4,0,0,1,31.19-10.43l1.25-5.84A197.14,197.14,0,0,0,998,932.24c-1.11-3.32-3.38-7.3-6.84-6.75a7.14,7.14,0,0,0-2.58,1.12c-18.94,11.61-31.06,31.85-49.1,44.82-12.45,9-27.27,14.11-40,22.7-18.17,12.3-31,30.84-43.81,48.62-9.34,12.94-20.53,26.72-36.3,29.16-2.91.45-6.2.36-8.36-1.63-2-1.83-2.46-4.75-2.63-7.44-1.3-20.11,7.79-39.81,20.87-55.13s30-26.88,46.84-37.87,34.17-21.7,48.59-35.78c8.07-7.88,15.32-16.86,25-22.63a219.24,219.24,0,0,0-62.32,11.2c-9.67,3.24-19.17,7.16-29.17,9.17-11.83,2.38-24,2-36.09,1.61-9-.28-18.14-.59-26.8-3.14-7.82-2.3-15-6.35-22.47-9.59a113.77,113.77,0,0,0-34.68-8.84c-4-.37-8.19-.55-11.88-2.2s-6.87-5.24-6.65-9.28c.19-3.47,2.75-6.33,5.45-8.52,9.53-7.76,22.18-10.83,34.47-11s24.45,2.31,36.53,4.55c19.38,3.59,39.15,6.6,58.73,4.44,24-2.64,47.62-13,71.45-9.11l.17-5.56a260.29,260.29,0,0,0-66.66-18.37c-29.75-4-61.26-3.25-87.81-17.27-6.73-3.56-13.23-8.29-16.68-15.08-2-4-2.77-9-.27-12.69a13.06,13.06,0,0,1,4.84-4,28.34,28.34,0,0,1,14.39-3.23c8,.37,15.45,4.12,23,6.82,38.19,13.61,83.41,1.24,119,20.75-6.89-12.25-23.2-18.41-26.52-32.06-.59-2.43-.83-5.2-2.7-6.86a10.79,10.79,0,0,0-4.44-1.9,37.78,37.78,0,0,1-23.22-19.21c-3.87-7.74-5.13-17-10.87-23.43-3.13-3.54-7.66-6.46-8.38-11.13a13.15,13.15,0,0,1,1.12-6.66A39.22,39.22,0,0,1,869,707.18c2.11-.45,4.51-.89,5.69-2.7s.68-3.85.23-5.78Q872,686,868.41,673.46l-1.83-8.07a35.48,35.48,0,0,1,1.76-20.55c2.19-5.42,6-10.48,11.43-12.66,8.62-3.46,19.39.93,27.24-4,3.11-2,5.33-5.19,8.62-6.84,6.69-3.36,14.53,1,20.73,5.18l19.74,13.35a106,106,0,0,1,13.2,10c6.74,6.3,11.82,14.35,19.27,19.81,7.91,5.79,17.78,8.13,26.58,12.46s17.26,12.06,17.4,21.87l1.86,8.39q-.36,22.83.63,45.65c.13,3,.32,6.16,1.88,8.73s5,4.31,7.66,3A9.27,9.27,0,0,0,1048,766c12-19.2,24.15-38.52,32.57-59.54,1.45-3.6,2.78-7.68,1.26-11.25-1-2.25-2.91-3.91-4.87-5.39-11-8.31-24-13.73-34.67-22.43-2.29-1.86-4.55-4-5.48-6.79-1.79-5.34,1.84-11,6.18-14.62s9.62-6.16,13.09-10.61a4.58,4.58,0,0,0,1.25-3.57,5,5,0,0,0-1.29-2.13,68.26,68.26,0,0,0-33.58-20.88c-7.72-2.06-15.92-2.79-23-6.43a14.32,14.32,0,0,1-5.52-4.45c-2.54-3.76-1.95-9,.44-12.85s6.29-6.51,10.3-8.63c20.14-10.69,46.06-9.53,65.16,2.93l10.37.88c5.7-.63,7.87-7.66,12-11.66,4.26-4.15,10.94-5,16.71-3.54s10.88,4.72,15.86,8c14.92,9.74,30,19.65,41.86,33,3.39,3.82,6.64,8,11.22,10.29s11,1.81,13.76-2.5c2.57-4,.9-9.28.93-14.07a19.39,19.39,0,0,1,6.92-14.56,9.2,9.2,0,0,0,2.88-3c1.3-2.86-1.24-5.85-3.18-8.32A26.67,26.67,0,0,1,1223.94,531c2.75.4,5.64,1.21,8.24.23,2-.77,3.5-2.49,5-4,11.94-11.62,33.53-11,44.82,1.23,1.74-4.93-.16-10.34-2.09-15.2a762.67,762.67,0,0,0-89.78-163.67c-6.46-9-13.22-17.9-21.87-24.79s-19.49-11.61-30.52-10.93l-9.41-.38a343.73,343.73,0,0,1-59.93.88c-9.87-.73-19.79-1.89-29.18-5-7.5-2.51-14.54-6.23-21.61-9.78-16.53-8.29-33.93-15.85-52.38-17.11-10.72-.74-21.48.68-32,2.81-2,.4-4.07.82-6,.13a7.12,7.12,0,0,1-3.78-3.7c-3.59-7.45,2.85-15.76,9.29-20.95,7.57-6.1,16-11.34,25.43-13.81,13.82-3.63,28.42-1,42.47,1.6a119.37,119.37,0,0,0-23.92-27.9c-5.23-4.48-10.89-8.52-15.43-13.7s-8-11.79-7.56-18.66a18.88,18.88,0,0,1,26.87-16c4,1.87,7.16,5.05,10.45,8a105.71,105.71,0,0,0,19.1,13.48c1.6.88,3.74,1.67,5.09.44a4,4,0,0,0,1-2.75c.35-5.77-2.64-12,0-17.1.74-1.4,1.88-2.64,2.11-4.21s-.54-3.19-1.31-4.63q-6.39-12-13.23-23.65c-1.15-2-2.37-4-4.29-5.19-3-1.89-6.82-1.35-10.35-1.15a45.17,45.17,0,0,1-30.78-10.08c-5.82-4.77-11.43-11.42-18.95-11.16-3,.1-5.8,1.34-8.56,2.47-8.18,3.34-18,5.72-25.47,1l-6.26-4.44c-2.14-11.64-4-24.79,3-34.34,3.21-4.38,7.91-7.38,11.92-11,8.91-8.15,14.29-19.43,22.23-28.53a65.78,65.78,0,0,1,48.7-22.25c4.92,0,10.25.71,13.79,4.13,1.9,1.84,3.1,4.29,4.91,6.22,5.71,6.09,15.57,5.36,23.55,2.88s16.08-6.28,24.29-4.79c13.47,2.46,20.56,18.5,18.87,32.09s-9.46,25.49-15.57,37.74-10.7,26.69-5.72,39.44c3,7.61,9,13.56,14.86,19.27l19.76,19.27a9.68,9.68,0,0,0,3.22,2.37c3.65,1.38,7.61-2.25,8.17-6.12s-1.13-7.65-2.65-11.25c-5.27-12.48-8.52-28-.18-38.69,3.79-4.86,9.41-7.86,14.86-10.73,19.13-10.06,40.2-20.44,61.41-16.27,4.73.93,9.89,2.51,14.13.21,2.25-1.22,3.82-3.36,5.75-5,7.75-6.82,21.66-4.3,26.51,4.82s.82,21.26,5.67,30.5c3.68,7,11.54,10.61,18.84,13.7,5.68,2.4,12.58,4.71,17.62,1.17,2.22-1.56,3.62-4,5.37-6.09,7.45-8.86,22.38-10,31.11-2.39l6.2,2.95c.66,8.19-6.33,14.64-11.37,21.12-7.48,9.6-11.38,21.42-15.55,32.85a528.28,528.28,0,0,1-20.66,48.9c-3.39,7-7,14-11.79,20.11-5,6.28-11.14,11.48-17.39,16.48q-13.37,10.69-27.45,20.44l3,5A803.49,803.49,0,0,1,1321,482.67c7.25-8.64,18.89-12.73,30.16-12.9,6.56-.09,13.18,1,19.65-.11s13.08-5.13,14.51-11.53c1.62-7.28-4.08-14.33-10.6-17.94s-14.05-5.07-20.54-8.74-12.09-10.82-10.31-18.06c1.56-6.28,8-10.17,10.6-16.09,2.26-5.12,1.41-11.11,3.18-16.41,2.44-7.33,9.78-12.33,17.42-13.45s15.46,1.12,22.3,4.71c4.17,2.19,9,5,13.26,3.06,2.88-1.27,4.51-4.26,6.42-6.77,7.78-10.26,23.42-13.53,34.66-7.25,3.64,2,6.9,4.94,11,5.86,6.83,1.55,13.5-3,18.56-7.78s10-10.5,16.81-12.13c7.8-1.88,16,2.31,21.25,8.41s8,13.85,10.65,21.42l8.54,24.2c1.48,4.2,3,8.47,3.19,12.92.32,6.76-2.4,13.36-6.17,19a51.06,51.06,0,0,1-19,16.95l-5.45,1.44L1470,465c-3.9,1.29-7.92,2.65-11,5.4-6.49,5.86-6.58,15.84-6.19,24.57.07,1.33.2,2.82,1.22,3.67,1.63,1.38,4.07.14,5.9-1a39.87,39.87,0,0,1,17-5.64c2.6-.24,5.58-.07,7.3,1.9a8.35,8.35,0,0,1,1.6,4.81,40.36,40.36,0,0,1-11.17,31.51c-2.33,2.37-5,4.53-6.51,7.49s-1.38,7.11,1.32,9.05c1.74,1.25,4.12,1.29,5.92,2.45,4.18,2.67,3,9.18,5.58,13.43,2.29,3.81,7.39,5.18,11.75,4.28s8.08-3.64,11.47-6.51c21.08-17.89,34.37-43.68,55.82-61.12a17.12,17.12,0,0,1,5.87-3.48c5-1.43,10.48,1.75,13,6.3s2.66,10.06,1.9,15.21c-1.49,10.08-6,19.46-11.14,28.28a222.25,222.25,0,0,1-120.43,98.47l7.1,1.09c40.2,5.21,81.15,10.41,121.08,3.37,24.8-4.38,48.85-13.44,74-14.7,6.84-.35,14.91.55,18.43,6.42,2.53,4.22,1.69,9.82-.91,14s-6.66,7.21-10.75,10c-27.71,18.54-60.62,28.29-93.76,31.94s-66.65,1.41-99.76-2.44a3.91,3.91,0,0,0-2.83.38,3.68,3.68,0,0,0-1.13,2.08c-3.84,14.54,5.33,30.08,18.09,38s28.27,10,43.27,11c29.58,2.06,60.06,1.12,87.67-9.66,9.66-3.77,19.74-8.82,29.89-6.67a14.51,14.51,0,0,1,7.56,3.85c3.76,3.88,4,10.19,2,15.19s-6.1,8.9-10.26,12.35c-19.43,16.14-43.9,25.43-68.83,29.48s-50.43,3.09-75.55.48c-9.37-1-18.9-2.22-27.39-6.29-8.25-4-15.06-10.35-21.55-16.8a545.27,545.27,0,0,1-40.76-45.32c-2.83-3.52-5.73-7.18-9.7-9.33s-9.34-2.42-12.67.62c-4,3.69-3.41,10.1-2.38,15.46,10.15,53.09,28.5,106,23.19,159.76l-1.1,8.34a917.42,917.42,0,0,1-120.8,398.71c23.79-16.76,47.59-33.52,71.94-49.46,22.74-14.89,46.3-29.21,72.37-36.9,28.22-8.31,58.19-8.5,87.54-6.45A597,597,0,0,1,1632,1223.16c9.79,2.73,21.21,7.58,22.69,17.63,1.15,7.85-5,15.3-12.27,18.37s-15.53,2.79-23.46,2.46l-64.48-2.69c-23.35-1-46.7-2-70.07-2.44-11.33-.24-22.83-.35-33.81,2.46-12.14,3.09-23.09,9.59-33.84,16L1338,1322l5.28-.28c71.11,3.29,140.66,26.72,201.56,63.58,15.28,9.25,30.34,19.47,47.52,24.36,13.37,3.81,27.45,4.21,41.08,6.94a142.69,142.69,0,0,1,44.64,17.62c9.5,5.65,19.65,15.75,15.62,26-3.37,8.64-14.48,10.84-23.76,10.87-25.59.05-50.66-6.67-75.37-13.34-32.73-8.84-65.77-17.79-95.86-33.43-17.79-9.25-34.34-20.73-52.11-30-33.5-17.53-71-27-108.72-29.3,32,12.33,52.71,43.72,65.23,75.63s19.07,66.14,34.12,96.94c11.13,22.79,26.82,43.49,34.63,67.62s5.5,54.26-14.41,70a56,56,0,0,1-18.9,9.36c-7.9,2.33-16.88,3.26-24-.84s-10.71-14.83-5.16-20.93c4.5-4.94,12.55-4.89,17.59-9.28,5.4-4.71,5.7-13.3,2.86-19.87s-8.12-11.72-12.91-17c-21.72-24.13-35-54.56-46.56-84.89s-21.9-61.47-39-89.07-42.15-51.85-73.48-60.37l-.14,7.73c-5.86,47.89-11.72,96.37-5.63,144.24,11.56,90.82,66.69,172.9,139.93,227.84,30.85,23.14,64.77,41.9,96.14,64.32s60.79,49.34,78.06,83.83l4.6,7.53c13.71,11.81,21,29.67,23.72,47.55s1.36,36.1.47,54.17c-.59,11.83-.75,24.51,5.63,34.48,7,10.92,20.54,16.12,33.49,16.55s25.64-3.16,38.21-6.29,25.64-5.85,38.4-3.66c8.5,1.45,16.47,5,24.81,7.18,18.76,4.88,38.51,2.52,57.88,2.9,5.34.1,10.81.45,15.67,2.64s9.05,6.6,9.55,11.91c.86,9.21-8.68,15.59-17,19.69l2,5.18c14.57,17.67,46.64,9.92,61.47,27.36a25.82,25.82,0,0,1,5.32,22.48,7.08,7.08,0,0,1-1.8,3.6,16.71,16.71,0,0,1-3.36,1.89c-4.55,2.63-5.13,8.91-4.66,14.15s1.27,11.08-2,15.23c-4,5.19-12.45,4.61-17.82.83s-8.65-9.77-12.45-15.13c-1.37-1.93-2.92-3.88-5.08-4.86s-5.09-.67-6.42,1.3a7.36,7.36,0,0,0-.87,4.2c.06,7.67,1,16.87-5.19,21.44-5.1,3.79-12.26,2.05-18.33.15-3.92-1.22-8.44-3.06-9.4-7.05-.86-3.64,1.72-7.62.28-11.07-1-2.46-3.75-3.69-5.65-5.56-6-5.88-3.63-17.58-10.62-22.2-4.47-2.95-10.8-1.16-14.6,2.62s-5.66,9-7.41,14.08l-5.53,16c-1,3-1.94,6.76.27,9.07,1.16,1.21,2.9,1.65,4.47,2.24a18.76,18.76,0,0,1,4.19,32.86c-1.38,1-3,1.82-3.88,3.23-1.37,2-1,4.77-.45,7.16,3.57,14.24,15.16,26.14,15.73,40.8a6.61,6.61,0,0,1-.52,3.36,6.24,6.24,0,0,1-3,2.54c-7.62,3.68-17,1.72-24.13-2.79s-12.59-11.23-18-17.74-11.06-13.09-18.48-17.15c-9.61-5.27-22.12-6.37-28.76-15.1l-6.4-4.83c-5.81,2.41-7.13,9.91-7.61,16.19l-1,13.56c-.27,3.54-.67,7.38-3.13,9.95a11.94,11.94,0,0,1-5.05,2.87c-4.78,1.53-10.42,1.46-14.35-1.66-4.28-3.4-5.44-9.44-5.29-14.91s1.29-11,.35-16.36c-.74-4.19-3.55-8.7-7.8-8.83-8.72-.28-10.21,16.3-18.93,16-4.26-.13-6.95-4.42-9.27-8-3.36-5.18-8.4-10.26-14.57-10-7.69.31-12.5,8.61-14,16.17s-1.3,15.8-5.57,22.2c-4.53,6.8-12.89,9.74-20.66,12.25l-7.13-1.24c-7.87-1.14-10.83-11.27-17.68-15.31-4.1-2.42-9.15-2.39-13.77-3.57-8.83-2.27-16-9.07-20.54-17s-7-16.81-9.15-25.66c-1.72-6.95-4.94-15.37-12.07-16-3.9-.34-7.46,2-10.88,3.88-22.37,12.49-49.59,10.39-75.18,11.72-3,.15-6.25.48-8.34,2.61a11.52,11.52,0,0,0-2.45,4.87c-2.46,8.23-3.42,16.87-6.25,25s-8,16-16.07,19.1-18.83-.63-21-8.94c-.36-1.43-.47-2.91-1-4.3-2.32-6.52-11.76-7.3-17.78-3.88s-10.07,9.45-15.54,13.71-14,6.31-18.9,1.37c-4.66-4.74-2.95-12.64-.27-18.72s6.1-12.76,3.89-19a11.74,11.74,0,0,0-7.78-7.27c-3.84-1.07-7.91-.1-11.89.16s-8.55-.52-10.73-3.86l-4.28-6.21c-1.3-3.24.16-6.94,2.16-9.8s4.56-5.39,5.87-8.62.83-7.61-2.21-9.32c-1.74-1-3.87-.86-5.86-.71l-9.6.71c-4.25.32-9,.47-12.19-2.36-4.69-4.15-3-11.61-2-17.78a5.23,5.23,0,0,0-.08-2.78c-.63-1.54-2.45-2.14-4.07-2.5a79.94,79.94,0,0,0-18.44-2,7,7,0,0,1-3.64-.58c-1.45-.84-2.06-2.61-2.25-4.26a13.5,13.5,0,0,1,1-6.68c2.52-6,9.11-9.61,11.5-15.67,3.7-9.43-4-21.08,1.08-29.82,2-3.35,5.7-6,5.89-9.84.15-3-2-5.78-2.17-8.82-.19-4,3.11-7.3,6.34-9.71a74.22,74.22,0,0,1,27-12.65l7.11-2.65a131.87,131.87,0,0,1,31.8-11.47c4.22-.93,8.66-1.73,12.07-4.39s5.25-7.9,2.71-11.39c-1.83-2.52-5.19-3.29-8.25-3.88l-16.69-3.23c-6-1.16-12.6-2.72-16-7.79s-2.21-11.9,1.35-16.67,9.09-7.65,14.72-9.58a62.85,62.85,0,0,1,32.86-2.06c15,3.09,28.39,11.57,43.3,15,8.42,1.93,17.13,2.19,25.64,3.66,16,2.76,31,9.73,46.85,13,13.42,2.76,27.25,2.83,40.82,4.7s27.08,5.6,40.81,7.18,28.23.85,40.41-5.66a26.37,26.37,0,0,0,10.12-8.68c3.57-5.56,3.89-12.66,2.73-19.17-1.62-9.1-5.83-17.51-10.29-25.6a381.52,381.52,0,0,0-28.64-44.46l-4.79-8.32c-26.29-21.71-46.81-49.74-73.18-71.36-17.52-14.35-37.31-25.63-56.07-38.32a439.11,439.11,0,0,1-115.2-114.23c-34.42-50-58.73-109.8-53.13-170.2l1.49-10.33q-.78-64.11,3.9-128.12c-10.72,9.79-26.1,12.42-40.61,13.23-64.18,3.57-126.47-20-186.08-44-30-12.12-61.1-24.68-93.44-23.45Z"></path>
</svg>
