
<svg xmlns="http://www.w3.org/2000/svg" viewBox="0 0 1763 2585" id="illustration" preserveAspectRatio="xMidYMid meet">
    <title>Lichenaceæ</title>
    <path data-name="1" data-official="Centraria islandica" data-plain="" data-loc="Britain" d="M834.14,1284.07l-13.75,10.17a27.44,27.44,0,0,0-11.73,14.9c-2.1,4.87-4.22,9.89-4.4,15.18a45.62,45.62,0,0,0,1.42,10.81c2,9.42,3.16,20.22-2.84,27.73-3,3.76-7.42,6.1-10.93,9.4a19.18,19.18,0,0,1-4.35,3.61c-4.13,2.06-9.22-.28-13.67,1H767.3c-6.72,2.07-14.9,6.17-14.22,13.17a12.08,12.08,0,0,0,2.06,5.23c4.73,7.43,12.63,12.12,19.29,17.9a70.18,70.18,0,0,1,22.46,38.32c.65,3.13,1,6.61-.66,9.33-2,3.16-6,4.2-9.71,4.78a105.83,105.83,0,0,1-88.37-28c-1.35-1.3-2.82-2.72-4.69-2.88-3.13-.27-5.28,3-6.69,5.79l-14,27.94c-1.91,3.81-3.86,7.73-4.25,12-.64,6.92,3,13.6,7.66,18.75s10.4,9.23,15.29,14.17c13.09,13.19,19.32,31.52,25.16,49.17,3.58,10.85,7.18,21.75,9.15,33a118.18,118.18,0,0,1,1,33.59c-.64,5.65-2.07,11.86-6.77,15.07-8,5.43-21.42-.44-27.1,7.35-3.31,4.56-1.68,11.48-5.19,15.89-2.85,3.57-8,4.17-11.91,6.48a15,15,0,0,0-6.6,8.32c-1.47,4.71-.5,9.79-.67,14.73-.26,7.61-3.6,15.35-9.84,19.73s-15.47,4.62-21.21-.39c-6.16-5.37-6.88-14.79-5.14-22.78s5.45-15.5,6.55-23.6-1.28-17.59-8.54-21.35l-4.79-4c-2.25-3.58-5-7.49-9.1-8.27-3.7-.69-7.59,1.36-11.19.29a13.68,13.68,0,0,1-4-2.28l-13-9.53a21.76,21.76,0,0,1-2.37-1.91,10.75,10.75,0,0,1-3.17-8.06c.24-5.18,4.13-9.39,5.89-14.27a9.15,9.15,0,0,1,.73-1.74,11.71,11.71,0,0,1,1.49-1.66c3.78-4,3.62-10.17,5.33-15.4.87-2.66,2.26-5.11,3.34-7.69a34.78,34.78,0,0,0,2.64-11.81l1.68-5.62,2.61-14.18a56.1,56.1,0,0,0,1.14-8.55,58.33,58.33,0,0,0-1.17-11.61c-1.56-9.14-3.16-18.43-7.25-26.75-2.93-6-7-11.22-11.13-16.44-2.13-2.71-4.34-5.65-4.6-9.09l.62-4.06a22,22,0,0,0-11-7.57l-3.58.32c-3-.37-5.31-2.53-7.47-4.58l-1.14-1.08-2.79-3.85a6,6,0,0,0-9.18-2.39l-1.26,3.25c-.37,1.26-.73,2.53-1.08,3.8l-3.13,11.11c-.75,2.69-1.54,5.44-3.23,7.65-2,2.57-5,4.13-7.83,5.61l-9.24,4.76a30.65,30.65,0,0,1-5.71,2.46l-3.83,2.21a58.09,58.09,0,0,1-50-26.82c-1.26-2-2.42-4.23-2.41-6.61,0-4,3.27-7.3,3.75-11.26.69-5.79-4.69-10.52-10-12.86s-11.44-3.62-15.51-7.8c-5-5.12-5.46-13-4.91-20.16s1.77-14.52-.77-21.19a8.09,8.09,0,0,0-2.47-3.71c-4.45-3.39-10.18,1.85-15.5,3.58-8,2.61-16.28-3.44-21.58-10s-9.85-14.48-17.62-17.79c-3.53-1.49-7.59-2-10.52-4.44s-4.16-6.59-5.07-10.41a284.54,284.54,0,0,1-7.73-65.45c0-3.66.15-7.6,2.36-10.52a16.81,16.81,0,0,1,4.6-3.81c5-3.2,10.29-6.23,16.11-7.52s12.33-.64,17.06,3l6.89-.12a36.45,36.45,0,0,1,1.38-31.62,35.81,35.81,0,0,1,8.36-50.94c-21.25-6.52-35.44-30.6-30.84-52.36a25,25,0,0,1,2.54-7.2c4.06-7.21,12.89-10.65,21.16-10.57s16.2,3.08,23.93,6A29.28,29.28,0,0,1,475,1087.56l1,5.43c1.25.94,1.65,2.61,1.95,4.15l1.6,7.93c3.91.44,7.47-2.13,10.44-4.71s6.14-5.44,10.06-5.77c4.08-.34,7.77,2.15,11.37,4.08a93.63,93.63,0,0,0,9,4,3.2,3.2,0,0,0,1.62.34c1.05-.16,1.63-1.29,2-2.29,1.44-4.15,2.17-9.16,5.94-11.42a12.73,12.73,0,0,1,3.82-1.32,62.4,62.4,0,0,1,17.08-1.28,10.35,10.35,0,0,1,3.83.78c2.34,1.1,4,3.79,6.55,4l4.81,1.62c5.2,1.83,11,2.46,16.24.89l1.69-4.9c-.41-1.34.25-2.75.88-4l2.19-4.3a8.52,8.52,0,0,1,1-1.64,7.31,7.31,0,0,1,2.55-1.75,30.08,30.08,0,0,1,4.6-1.76l5.22.11c2.57-.11,4.61,2.32,7.16,2.68l3,3.57,3.52,2.69a16.64,16.64,0,0,1,4.18,4.06c1.16,1.84,1.54,4,2.15,6.12a26.69,26.69,0,0,0,2.86,6.38l5.24,8a13.81,13.81,0,0,1,2,9.4,1.62,1.62,0,0,0,.17,1.34,1.58,1.58,0,0,0,1.05.34c4.32.28,8.74,1,12.51,3.1s6.81,6,7,10.32l.45,4c1.37,3,2.75,6.12,3,9.42a28.23,28.23,0,0,1-.1,3.79l-.49,6.84,3,3.29c1.19,3.45,2.39,7.21,1.25,10.68-1,2.88-3.37,5-5.87,6.75-.47.33-1,.71-1.08,1.28a2.2,2.2,0,0,0,.45,1.39c2.2,3.86,2.54,8.49,2.48,12.93s-.47,8.94.41,13.29a1.8,1.8,0,0,0,.54,1.14,1.54,1.54,0,0,0,1,.23c3.08-.13,5-3.36,6-6.3,1.34-4.16,1.89-8.6,3.87-12.5a22.68,22.68,0,0,0,2-4.16c.31-1.15.34-2.36.62-3.52,1-4,4.91-6.66,8.74-8.32l4.83.58c2.83-3.21,6.73-5.23,10.58-7.1,1.78-.87,3.72-1.74,5.66-1.37l1.88-2.73,6.8-9.09c2.3-3.08,4.76-6.29,8.29-7.81a16.74,16.74,0,0,1,7.6-1l4.67-.49,17,11.35a25.18,25.18,0,0,0,4.24,2.44,24.56,24.56,0,0,0,7.13,1.37,7.51,7.51,0,0,0,4.08-.4,6.48,6.48,0,0,0,2-1.87,21.74,21.74,0,0,0,3-5.2c.86-2.15,1.36-4.42,2.26-6.55a10,10,0,0,1,4.34-5.21c3.11-1.58,6.86-.52,10.1.79a26.58,26.58,0,0,1,8.36,4.85c2.93,2.74,4.69,6.47,6.32,10.13a50.85,50.85,0,0,1,3.71,10.66c1.77,9.1-1.12,18.44-.92,27.7a21.53,21.53,0,0,0,.18,2.54c3-2.5,4.89-6.08,6.69-9.57l6-11.58a4.75,4.75,0,0,1,2.23-2.54l5.4-1.32c2.33-2.13,5.58-2.89,8.7-3.46a39,39,0,0,1,7.14-.76l4,1.58c4.31,3.26,10.56,4.45,13,9.27a10.7,10.7,0,0,1,.5,7.68,25.77,25.77,0,0,1-3.48,7c-1.4,2.15-3,4.47-2.8,7a25.21,25.21,0,0,0,1.17,4.37c.84,3.32,0,6.79-.62,10.17a62.13,62.13,0,0,0-.54,17.7l1.75,1.93a4.91,4.91,0,0,0,5-1c.66-.62,1.14-1.41,1.82-2,1.34-1.14,3.3-1.33,4.62-2.49s1.75-2.86,3.1-3.79a10.9,10.9,0,0,1,2-.92c3.65-1.61,6.07-5.87,10-6.21l4.61-2.13c2.16-1.51,5.18-1.28,7.53-.08a19.83,19.83,0,0,1,5.86,5.22c2.54,3,5,6.32,5.69,10.2a15.46,15.46,0,0,0,.77,3.73c1.25,2.76,4.7,3.68,6.74,5.91,1.61,1.74,2.28,4.23,4,5.82a20.92,20.92,0,0,0,2.53,1.73c4.75,3.19,6.94,9.27,6.77,15s-2.36,11.17-4.83,16.33a18.42,18.42,0,0,1-4.08,6.09l-3.42,2.46-10.24,1.36a20.3,20.3,0,0,1-3.73.27,20.75,20.75,0,0,1-3.48-.59l-9.89-2.26a25.2,25.2,0,0,1-6.31-2.05c-3.26-1.74-5.56-4.8-7.76-7.78l-3.31-3.48a6.55,6.55,0,0,0-.92-2.38,6.39,6.39,0,0,0-1.48-2c-1.6-1.24-3.89-.65-5.81,0l-7.41,2.48c-1,.34-2.21.85-2.43,1.91Z"></path>
    <path data-name="1a" data-official="" data-plain="Shield" data-loc="" d="M126.62,2484.56c3.91-5.89,8-12.35,7.57-19.41-.43-7.42-5.93-13.79-12.46-17.33s-14-4.77-21.38-6l-21.07-3.36c-7.93-1.27-16.36-2.76-22.27-8.2-5.15-4.74-7.59-12-7.42-19s2.74-13.78,6.33-19.8c1.27-2.14,2.78-4.3,5-5.45,2.71-1.4,6-1,9-1.42,9.17-1.17,16.44-9.22,25.66-10.05,3.81-.35,7.7.59,11.45-.2,9.59-2,15.25-14.47,25.06-14.25,3.69.09,7.48,2.06,10.91.68a12.76,12.76,0,0,0,4.35-3.61,105.45,105.45,0,0,1,29.42-22.61,40.17,40.17,0,0,1,12.68-4.55c4.3-.61,8.66-.08,13,.45l14.36,1.76c5.75.7,11.7,1.47,16.67,4.46,7,4.18,10.94,12.23,11.9,20.29s-.72,16.21-2.9,24c-1.76,6.35-3.88,12.84-3.1,19.38,1.65,13.66,15.62,25.23,12.31,38.59-2.66,10.77-15,15.59-25.71,18.41s-23.11,6.6-27.12,17c-2.45,6.31-1.08,13.86-4.63,19.63a21.21,21.21,0,0,1-5.93,5.86,55.15,55.15,0,0,1-42.31,9.13c-8.2-1.64-17.15-6.7-17.84-15Z"></path>
    <path data-name="2" data-official="Sticta pulmonacea" data-plain="" data-loc="Trees, England" d="M1311,1609.64c4.78,9.14,9.65,18.51,11,28.74s-1.39,21.64-9.53,28c-1.87,1.46-4,2.64-5.46,4.5s-2,4.73-.52,6.54c1,1.2,2.65,1.62,4.16,2a47.87,47.87,0,0,1,22.46,14.11c2.3,2.59,4.35,5.46,7.12,7.53s6.56,3.22,9.74,1.85c4.08-1.77,5.53-6.76,6.13-11.17,1.44-10.74.71-21.86,4-32.18,1.82-5.67,4.83-10.93,6.31-16.69,1.3-5,1.4-10.26,1.5-15.44.11-6,.11-12.41-3.19-17.42-1.29-2-3-3.62-4.06-5.75-1.38-2.91-1.17-6.36-.34-9.48,2.36-8.85,9.44-16,17.83-19.68s17.92-4.14,27-2.66c6.5,1.06,13,3.17,18.16,7.26,4.56,3.62,7.85,8.56,10.8,13.58a10.26,10.26,0,0,0,2.77,3.47c2.27,1.56,5.3,1,8,1.25,8.91.81,14.53,10.56,14.94,19.5s-2.75,17.62-3.85,26.49l-4.89,6.3c-6.28,5.32-13,11.53-13.67,19.73-.2,2.6.25,5.22,0,7.81-.67,7.67-7.14,13.68-14.13,16.88-4.05,1.85-9.11,3.89-9.6,8.31-.51,4.64,4.75,7.9,9.4,8.26s9.44-.9,13.92.39c7.64,2.21,11.34,10.75,13.34,18.45,4.79,18.4,5.6,38,.71,56.39-1.44,5.4-3.37,10.71-3.94,16.26s.38,11.58,4.08,15.76a14.84,14.84,0,0,0,17.07,3.44c2.76-1.33,5-3.5,7.54-5.24,8.61-6,22-5.93,28.37,2.38,3.91,5.08,4.49,12,4,18.37a29.74,29.74,0,0,1-2.19,10.17c-3.46,7.75-11.85,12.38-20.26,13.63s-16.93-.35-25.28-1.93l-5.83,5.89a12.91,12.91,0,0,1-9.4,10.22c-2.9.72-6.16.46-8.6,2.18-3.08,2.17-3.5,6.46-4.2,10.16-1,5.47-3.53,11-8.16,14-5.88,3.94-13.61,3.13-20.62,2.17l-10.91-1.5a76.33,76.33,0,0,1-10-1.82c-5-1.39-9.67-3.78-14.29-6.16l-14.14-7.27a137.85,137.85,0,0,1-14.78-8.4c-5.4-3.68-10.29-8.15-16.1-11.13a36.9,36.9,0,0,0-16.08-4l-5.18-.63c-6,.06-11.33,3.94-14.94,8.7s-5.83,10.38-8.5,15.71c-4.08,8.15-9.37,15.82-16.38,21.64s-15.87,9.68-25,9.68c-6.92,0-13.66-2.18-20.06-4.81-4.85-2-9.65-4.3-13.66-7.68s-7.42-8-12.2-10.55c-6.42-3.39-14.46-2.33-20.93,1s-11.73,8.5-16.86,13.64l-15.44,15.46a9.5,9.5,0,0,0-2.11,2.71c-1.3,2.94.6,6.2,2,9.09,3.62,7.46,3.81,17.07-1.4,23.53-1.74,2.15-4,3.88-5.47,6.21-3.38,5.29-2.13,12.43-4.95,18-1.47,2.93-3.93,5.21-6.34,7.42l-12.72,11.67c-3.82,3.51-7.72,7.07-12.39,9.33s-10.3,3.08-15,1l-6.94-.88c-4.86-2.38-10.24-5.37-11.56-10.62-.91-3.63.41-7.41,1.84-10.86s3-7,2.67-10.76-3.51-7.47-7.21-7c-2.48.34-4.31,2.36-6.21,4-6.19,5.28-14.76,7-22.89,6.61-4-.2-8.09-.84-11.75.69-5.94,2.49-8.35,10-7.45,16.34s4.26,12.11,6.85,18,4.44,12.68,2.21,18.73c-3,8-11.76,11.86-19.69,14.91-4.81,1.84-9.9,3.72-15,2.91-2.72-.44-5.51-1.63-8.12-.74-1.78.61-3.1,2.09-4.55,3.3-7.34,6.14-18.06,5.29-27.56,4.1-9.19-1.15-19.81-3.26-24-11.52-2.75-5.41-1.78-11.88-.76-17.86-8.82-.18-17.76-.58-26.18-3.23s-16.38-7.83-20.62-15.56c-11,7.66-28,4.54-35.52-6.53-2.52-3.7-5.52-8.79-9.87-7.71a8.54,8.54,0,0,0-3.85,2.68,59.22,59.22,0,0,0-10.36,14.88l1.24,6.28a29.58,29.58,0,0,1-10.36,27.26,19.8,19.8,0,0,1-5.67,3.34,29.23,29.23,0,0,1-4.82,1.18l-12.61,2.39a17.62,17.62,0,0,1-4.45.45,17.37,17.37,0,0,1-5.94-1.91q-3.63-1.66-7.26-3.36a13.95,13.95,0,0,1-8.35-8.21l-6-11.46a17.41,17.41,0,0,0-3.82-5.5c-3.35-2.88-8.6-3-11.47-6.4-1.76-2.06-2.24-4.92-2.33-7.62a38.5,38.5,0,0,1,9.23-25.54,25.69,25.69,0,0,1,6.87-6,31.45,31.45,0,0,0,4-2.27c5.29-4.07,4.36-12.92,9.33-17.39l6.25-4.56c.5-1.32,2.25-1.72,3-2.91a9.44,9.44,0,0,0,.45-.9,9.68,9.68,0,0,1,2.07-2.49,20.92,20.92,0,0,0,3.17-3.55,7.32,7.32,0,0,0,1.32-4.48l2.23-4.28,7.1-7.25a2,2,0,0,1,1-.7c.76-.13,1.9.38,2.07-.37a1,1,0,0,0,0-.48,69.49,69.49,0,0,0-3.51-9.88c-.91-2.06-2-4.29-1.41-6.48l-1.31-9a70.21,70.21,0,0,1,3.87-18.57,37.57,37.57,0,0,1,7-12.64,11.19,11.19,0,0,1,4.23-3.19,11.53,11.53,0,0,1,5.81-.29c6,.93,12.27,3.64,17.82,1.23a3.25,3.25,0,0,0,1.77-1.48,3.46,3.46,0,0,0-.23-2.59c-2.56-6.66-8.36-11.7-10.77-18.41-2.9-8.06-.43-16.94-.3-25.51s-2.06-16.78-1.81-25.22,3.8-17.67,11.58-20.94a30.12,30.12,0,0,0,4.57-1.9,15.31,15.31,0,0,0,4-4.22c6.09-8.4,12.92-17,22.57-20.82,1.26-.5,2.55-.91,3.85-1.33l8.06-2.57,8.91.47c10.73-1.77,17.11-12.46,23.56-21.21,7.58-10.29,18.68-19.77,31.44-19,7.17.43,15.34,3.82,20.88-.76-23.89-8.27-39-36.25-32.87-60.77a23.3,23.3,0,0,1,4.1-9.09c1.58-2,3.64-3.49,5.29-5.39,5.21-6,5.57-14.91,4.07-22.75s-4.55-15.36-5.25-23.31,1.6-16.9,8.37-21.11c4.69-2.92,11.82-4.35,12.39-9.84.18-1.73-.44-3.43-.54-5.17-.25-4.2,2.65-8.07,6.22-10.3s7.76-3.2,11.81-4.33c9.77-2.74,19.28-6.71,29.36-7.79s21.28,1.32,27.66,9.2a21.54,21.54,0,0,1-10.3,34.11c4.22,6.13,0,14.33-.27,21.77-.37,10.28,7,19,13.1,27.23s11.63,19.08,7.31,28.41c-1.72,3.72-4.85,8.13-2.31,11.34,1.08,1.34,2.87,1.9,4.09,3.12,3.4,3.38,1.28,10.49,5.46,12.82,3.43,1.91,7.58-1.74,8.48-5.56s0-7.9,1-11.69c2.26-8.66,12.78-12.09,21.73-12.27a67.1,67.1,0,0,1,27.53,5.33l6,2.55c.42-12.73,1.5-27,11-35.46a22.47,22.47,0,0,0,3.54-3.42c3-4.25,1.13-10.08.89-15.31a22.58,22.58,0,0,1,3.55-13.21,16.34,16.34,0,0,1,5.64-5.54c8.41-4.68,18.71,1.19,28.34,1a3.5,3.5,0,0,0,1.92-.45,3.74,3.74,0,0,0,1.18-2.56l3.75-21.45c.68-4,1.41-8,3.47-11.44,1.74-2.91,4.34-5.2,6.89-7.44l10.35-9.08c4.33-3.81,9.09-7.8,14.84-8.24,7.8-.59,14.36,5.46,19.62,11.24,4,4.42,8.14,9.49,8.24,15.46,17.54,1.25,32.78,17.19,33.22,34.77.08,2.86-.17,5.85,1,8.46s4.46,4.57,6.94,3.14a10.46,10.46,0,0,0,2.35-2.3c4.7-5.24,13-5.74,19.56-3.08s11.63,7.81,16.55,12.84Z"></path>
    <path data-name="2a" data-official="" data-plain="Section of Shield" data-loc="" d="M373,2507.79c-6-.07-11.49-2.9-16.78-5.65a17.82,17.82,0,0,1-5.19-3.56c-3.56-4-2.82-10-2.23-15.33s.33-11.69-4.16-14.57c-2.13-1.37-4.76-1.6-7.28-1.81-6.19-.51-12.47-1.14-18.23-3.47s-11-6.6-13.12-12.45-.27-13.25,5.08-16.41c3.36-2,8-2.5,9.77-6,1.53-3.06-.1-6.65-.68-10-1.05-6.12,1.62-12.41,5.66-17.12s9.36-8.12,14.59-11.46c4.17-2.67,8.39-5.36,13.07-7,5.68-2,11.79-2.33,17.81-2.4a208.57,208.57,0,0,1,32.46,2.2c7.19,1,14.55,2.57,20.55,6.68s10.34,11.38,9,18.53c-1.1,5.9-5.67,10.5-8.08,16a81.73,81.73,0,0,1,24.26,13.27c2.64,2.1,5.31,4.63,5.85,8,1,6.11-5.44,10.77-11.35,12.61s-12.77,2.89-16.37,7.93c-4.11,5.76-1.85,13.73-3.13,20.69-1.5,8.18-8,14.72-15.49,18.39s-15.84,4.93-24.06,6.15Z"></path>
    <path data-name="3" data-official="Roccella tinctoria" data-plain="" data-loc="Sea-coast rocks, England" d="M184.31,1828.06c-3.48-8.64-2.81-18.45-5.9-27.23-1.95-5.49-5.29-10.37-8.59-15.17A188,188,0,0,1,158,1767a95.41,95.41,0,0,1-9.47-60.87l4.15-6.82c-.73-6.3-9.28-7.51-15.6-7-11.34.94-23.25,1.92-33.63-2.73-6.93-3.1-13.21-11.26-9.4-17.82,3.12-5.37,10.59-5.74,16.78-5.47-2.3-6.89-8-12.06-13.82-16.43s-12.08-8.4-16.37-14.27-6.17-14.25-2.3-20.4c1-1.51,2.22-2.88,2.69-4.6.86-3.17-1.24-6.28-2.36-9.37-3.12-8.64,2.87-19.35,11.86-21.23,2.82-.59,5.95-.49,8.23-2.24,3.33-2.56,3.1-7.56,2.55-11.73-1.17-8.85-2.36-17.76-5.21-26.23-3.67-10.88-10-20.67-14.65-31.16-2.62-5.86-4.46-13.44-.06-18.1,3.41-3.61,9.35-3.68,13.85-1.59s8,5.86,11.45,9.4c2.26,2.3,5.25,4.72,8.35,3.83a18.43,18.43,0,0,0,3.13-1.59c4.69-2.38,10.73-.18,14.08,3.88s4.51,9.49,4.91,14.73a18.67,18.67,0,0,0,.84,5.27c.86,2.3,2.69,4.07,4.3,5.92a41,41,0,0,1,9.28,34c5.52-.89,8.39-7.07,9.44-12.56s1.51-11.63,5.5-15.54c1.72-1.68,3.95-2.76,5.67-4.43,3.16-3.08,4.18-7.67,6.12-11.64s5.9-7.79,10.19-6.75c3.3.8,5.66,4.29,9.05,4.4,7.43.24,6.89-13.77,14.06-15.71,2.47-.67,5.54.27,7.37-1.52,2-2,.68-5.32-.52-7.87a46.07,46.07,0,0,1-4.38-18.93c-.12-7.72,3.59-17.15,11.3-17.62,8.07-.5,12.62,8.82,15.54,16.36a171.49,171.49,0,0,0,20.48,37.89,47.42,47.42,0,0,1,12.45-15.5,133.25,133.25,0,0,1-1.81-24.75c0-2.17.26-4.59,1.89-6s3.67-1.32,5.62-1c13.9,1.91,24.32,17.3,20.93,30.92,9.92-4.29,21.64-2.53,31.34,2.24s17.76,12.27,25.55,19.76l6.35,5.28c3.64,3.52,7.15,7.37,9,12.1s1.63,10.51-1.65,14.37a47.83,47.83,0,0,1,25.11,22c5.24,10.09,6.2,22.48,1.9,33-3.51,8.58-10.23,15.56-17.91,20.75s-16.34,8.75-25,12q5.56,6.27,11.12,12.53c3.58,4,7.22,8.18,9.24,13.18s2.1,11.11-1.14,15.42a8.8,8.8,0,0,1-4.13,3.12,12.36,12.36,0,0,1-5.45.21,59.72,59.72,0,0,1-21.19-6.89c-4.34-2.38-8.45-5.35-13.23-6.66a37.71,37.71,0,0,0-10.87-.9q-7.56.18-15.1.93l-7.51.59c-4.08,1-8.45,2.1-11.18,5.29-2.94,3.42-3.23,8.3-3.52,12.81-.39,6-1,11.94-1.87,17.87a22,22,0,0,1-1,4.39,16.85,16.85,0,0,1-2.5,4.22,32.51,32.51,0,0,1-8.15,7.41c-2.16,1.37-4.57,2.56-6,4.66a13,13,0,0,0-1.61,3.6,60.89,60.89,0,0,0-2.37,26.14l-.36,5.31c1.79,22-11.56,42.15-25,59.64-3.54,4.59-7.2,9.28-8.86,14.83-2.28,7.64-.53,16.2-3.63,23.54-4.73,11.18-18.84,15.19-30.94,14.19a18.8,18.8,0,0,1-6.47-1.44c-5.65-2.67-8-9.83-7-16s4.48-11.61,7.92-16.83Z"></path>
    <path data-name="3a" data-official="" data-plain="Shields" data-loc="" d="M540,2522l-24.62,1.64c-3.44.23-7.07.42-10.14-1.15-5.45-2.8-6.89-9.82-7.43-15.93-.31-3.52-.52-7.12.38-10.53,2.11-8,9.89-13.69,11.42-21.81,1.24-6.6-1.94-13.12-4.05-19.5-5.1-15.43-4.09-32.12-3-48.34l2.12-32.44c.55-8.41,1.2-17.15,5.38-24.46,3.94-6.87,10.59-11.72,17.28-16,7.32-4.63,15.06-8.84,23.5-10.85s17.68-1.65,25.3,2.49c4.4,2.4,8.34,6.4,9,11.37.89,7.4-5.46,13.39-10.65,18.73-4.32,4.44-8.26,9.45-10.19,15.33a52.66,52.66,0,0,0-2,12.25c-2.67,32.57-5.13,66.55,7.21,96.82,2.67,6.57,6,13,7.15,20s-.64,15-6.41,19.17a25.78,25.78,0,0,1-8.52,3.52q-6.25,1.69-12.62,3Z"></path>
    <path data-name="3b" data-official="" data-plain="Section" data-loc="" d="M619.28,2507.28c-10.91,2.95-23.51-4.51-26.16-15.49a7.31,7.31,0,0,1-.18-3.41c.83-3.54,5.62-5.22,6-8.83.39-3.28-3-5.57-5.54-7.68-7.31-6-10.16-16.2-9.5-25.65s4.35-18.39,8.18-27c1.51-3.41,3.17-7,6.15-9.2s6.57-2.81,10.13-3.28a161.34,161.34,0,0,1,34-.84c9.53.78,19.67,2.75,26.41,9.53s7.8,19.77-.14,25.1c-1.34.9-3,1.72-3.38,3.29a4.34,4.34,0,0,0,.56,2.9c2.78,5.52,9.79,10,8,15.95-1.38,4.61-7.3,6.05-10.2,9.88-3.84,5.07-1.36,12.32-2.37,18.59-1.13,7-6.8,12.6-13.29,15.42s-13.74,3.3-20.81,3.36Z"></path>
    <path data-name="3c" data-official="" data-plain="Spores" data-loc="" d="M718.81,2505.13c-8.76-.07-17.94-.25-25.58-4.55s-12.89-14.16-9.06-22c1.66-3.42,4.85-6.26,5.1-10.05.18-2.78-1.3-5.35-2.36-7.92a28.49,28.49,0,0,1,0-21.34c1-2.36,2.26-4.63,2.69-7.14,1-5.61-2.63-11-6.83-14.86-2.52-2.3-5.37-4.33-7.18-7.22-2.7-4.28-2.66-9.69-2.38-14.75a12,12,0,0,1,.8-4.37c2.41-5.29,10.14-4.59,15.56-2.47s12.18,4.59,16.49.68c2.35-2.13,3-5.53,4.89-8.11,3.25-4.53,9.39-5.77,14.94-6.24a10.36,10.36,0,0,1,4.37.27c5.41,1.9,4.85,10.19,9.1,14,2,1.84,4.88,2.38,7.42,3.41,7.43,3,12.16,10.23,16.42,17,2.43,3.88,4.89,7.85,6,12.29s.59,9.54-2.41,13c-3.17,3.64-8.35,4.77-12.12,7.78a15.24,15.24,0,0,0-3.87,18.37c1.38,2.63,3.51,4.78,5.21,7.21,5.72,8.17,5.62,20.71-2,27.19-6.51,5.57-16.34,5.49-23.25,10.54Z"></path>
    <path data-name="4" data-official="Parmelia parietina" data-plain="" data-loc="Walls and trees, England" d="M905.69,2234.89c11.66.3,22.33,10.08,23.65,21.66,1,9.22-2.34,20.72,5.07,26.3,3.07,2.31,7.17,2.67,11,2.53,7.33-.29,15.3-2.64,19.14-8.88,2.73-4.44,2.88-10.05,5.38-14.62,4.27-7.84,14.28-10.66,23.2-10.36s17.7,2.91,26.62,2.65c21.07-.62,38.93-16.9,59.9-19,5.71-.56,12-.19,16.57-3.6,2-1.52,3.74-3.77,6.24-4.27,3.35-.67,6.29,2.06,9,4.21,11.55,9.33,28.81,10.06,42,3.17s22.12-20.52,25-35.09.1-29.89-6.05-43.41c-2.7-5.94-6.14-12-5.5-18.54.37-3.82,2.15-7.38,2.63-11.18.53-4.14-.49-8.3-1.62-12.32-3.74-13.42-9.09-27.11-19.66-36.2-12.24-10.51-29.39-13.08-45.52-13s-32.4,2.31-48.31-.37c-13.92-2.34-30-7.89-40.81,1.23-2.77,2.34-4.85,5.49-7.92,7.44-5.89,3.76-13.53,2.13-20.46,1.26-16.1-2-33.35,1.26-45.93,11.51-4,3.24-7.66,7.24-12.63,8.52-7.62,2-15.07-3.07-22.68-5.13-17.42-4.72-34.81,6.43-49.29,17.21q-12.06,9-24,18.11c-4.26,3.27-8.66,6.74-11,11.57-2.2,4.52-2.36,9.72-2.33,14.74.08,11.71,1.69,24.8,10.78,32.17,13,10.56,36.23,5,45.23,19.14,1.6,2.51,2.54,5.44,4.48,7.69,3.45,4,9.13,4.93,14,6.92s9.79,6.77,8.19,11.79Z"></path>
    <path data-name="4a" data-official="" data-plain="Shield" data-loc="" d="M871.51,2516.68c-6,.77-12.14,1.53-18,0s-11.32-6-12.21-12c-.81-5.42,2.19-10.57,3.67-15.85,3.78-13.5-2.62-27.86-11.2-38.95s-19.46-20.39-26.91-32.27c-8-12.77-11.58-27.74-15-42.41-1-4.28-1.64-9.64,1.89-12.26,2.41-1.78,5.74-1.39,8.7-.92l33.07,5.27c11,1.75,22,3.51,32.41,7.26a42.5,42.5,0,0,0,8.18,2.46c3.35.46,6.73-.1,10.08-.52,13.39-1.69,27.74-1.53,39.11-8.8,5.47-3.5,9.84-8.52,15.33-12s13-5.13,18.32-1.42c4.69,3.25,6.15,9.43,7,15.07,1.32,8.77,2,17.77.41,26.5s-5.65,17.26-12.51,22.89c-5,4.12-11.18,6.49-16.75,9.81-12.53,7.45-22.38,22.23-18.38,36.25,1.09,3.81,3.11,7.27,4.59,10.94a41.25,41.25,0,0,1,1.95,24.36,18.49,18.49,0,0,1-3.43,7.8c-3.08,3.72-8,5.2-12.76,6.22a129.44,129.44,0,0,1-28.17,2.92Z"></path>
    <path data-name="4b" data-official="" data-plain="Spore-cells" data-loc="" d="M1013.58,2533.67c-5.28,1.75-11.27-1.52-14-6.36s-2.8-10.77-1.8-16.24a6.27,6.27,0,0,0,0-3.54c-.65-1.51-2.4-2.16-4-2.6a70.08,70.08,0,0,0-12.28-2.27c-2.85-.26-5.82-.38-8.32-1.76-4.81-2.64-6.2-8.8-6.82-14.25-1.36-12-.41-26.26,9.49-33.25,3.77-2.67,8.53-4,11.68-7.35,4.31-4.61,4.4-11.62,4.25-17.92l-.71-28c-.1-4.22-.26-8.64-2.32-12.33-2.44-4.36-7.1-7-10.31-10.77-5.41-6.44-6.1-15.51-6.34-23.92-.29-10.13,0-21.14,6.31-29.08,1.28-1.61,2.81-3.08,3.67-5,2.5-5.44-1.39-11.61-1.49-17.6-.09-5.61,3.32-10.85,7.83-14.21s10-5.1,15.44-6.44c26.77-6.55,54.8-4.53,82.28-2.46a30.49,30.49,0,0,1,8.87,1.56,20.64,20.64,0,0,1,8.18,6.29c6.75,8.19,8.92,19.31,8.8,29.92s-2.27,21.09-3.13,31.67c-1.47,17.93.8,36.05-1.11,53.94-.87,8.12-2.59,16.12-3.61,24.23-2.67,21.05-.59,42.42-2.17,63.58-.4,5.44-1.71,11.82-6.7,14-3.68,1.62-8.3.35-11.69,2.52-4.21,2.69-4,8.79-3.42,13.76s.53,11.15-3.86,13.54a12.74,12.74,0,0,1-4.93,1.17l-49.72,5Z"></path>
    <path data-name="4c" data-official="" data-plain="Spores" data-loc="" d="M1150.38,2531.81c-6.61-.8-13.58.06-19.68-2.57-9.63-4.16-13.83-17.54-8.31-26.45,2.29-3.69,5.85-6.53,7.73-10.44,1.52-3.17,1.8-6.76,2.06-10.27l1.44-19.9c.33-4.48.5-9.48-2.43-12.89-2.23-2.61-5.8-3.67-8.38-5.94-2.75-2.42-4.14-6-5.43-9.43-3.65-9.7-7.24-20.86-2.38-30,2.08-3.9,5.56-7.05,7-11.25,1.14-3.41.78-7.14,1.52-10.66.84-4,3.06-7.58,5.49-10.87,7.36-10,19.38-18.93,31.33-15.55a13.12,13.12,0,0,1,7.85,5.56,19.56,19.56,0,0,1,2,6.94c1.52,9.18,2.92,19.17-1.55,27.33-3.9,7.14-12,12.34-12.67,20.45-.41,5.22,2.56,10.14,6.13,14s7.87,7,11.11,11.09c5.89,7.49,7.73,17.76,5.74,27.07-1.14,5.32-3.45,10.48-3.31,15.92.29,11.7,11.77,22.07,8.73,33.37-1.55,5.75-6.73,10-12.37,11.85s-11.74,1.79-17.68,1.44Z"></path>
    <path data-name="5" data-official="Cenomyce pyxidata" data-plain="" data-loc="Britain" d="M1157.18,2081.5a381.42,381.42,0,0,0-9.28-54.64,46.73,46.73,0,0,1-1.59-8.59,41.66,41.66,0,0,1,.89-9.3q1.14-6.48,2.47-12.94a20.29,20.29,0,0,1,1.36-4.6c1.82-3.8,5.74-6.07,9.48-8,4.64-2.43,9.68-4.8,14.87-4.18,3.12.37,6,1.79,8.79,3.2l15.92,8a5,5,0,0,0,3.33.76c1.6-.42,2.35-2.37,2.08-4a14.1,14.1,0,0,0-2.06-4.48c-1.47-2.59-2.42-5.88-1-8.5a10.9,10.9,0,0,1,3-3.11c8.83-7,18.32-14.17,29.5-15.32l5.16.14c16.76-5.37,34.45,8.2,51.84,5.56a8.14,8.14,0,0,0,3.92-1.44c1.42-1.14,2-3,2.95-4.55,2.28-3.94,6.54-6.41,11-7.52s9-1,13.57-.93c5.91.12,12.49.53,16.53,4.83,2.33,2.49,3.78,6.23,7.06,7.17,4.64,1.31,8.35-3.89,12.85-5.6,5.19-2,10.85.92,15.65,3.73a20.35,20.35,0,0,1,5,3.7c2.69,3,3.35,7.23,3.9,11.21l2.24,16.17c.22,1.61.6,3.45,2,4.22a4.48,4.48,0,0,0,2.49.34c5.43-.48,10-4,15.18-5.83,6.93-2.48,14.53-1.82,21.85-1.13l5.35,2.9c3.08,1.48,6.4,3.19,7.79,6.31,1.06,2.39.75,5.13.4,7.72-.73,5.34-1.6,10.73-1,16.08s2.89,10.78,7.29,13.88a55.59,55.59,0,0,0,5.9,3.16c6.33,3.37,11.19,8.93,17,13.16a19.93,19.93,0,0,0,5.41,3c5,1.65,10.4.11,15.62.53a29.52,29.52,0,0,1,10,2.9c5,2.31,9.66,5.51,12.9,9.94a24.21,24.21,0,0,1,3.81,20.15l-2.49,6.43a46.27,46.27,0,0,0-9.45,34.29,18.56,18.56,0,0,0,2.73,8.24c4,5.75,12,6.71,17.78,10.67,6.37,4.37,9.58,12.32,9.86,20s-2,15.3-4.7,22.53-5.87,14.57-5.08,22.2c.73,7,4.74,13.32,5.41,20.31,1.29,13.61-13.19,26.21-26.49,23.06-7.61-1.81-15.77-7.6-22.35-3.39-2.67,1.7-4.21,4.69-6.59,6.77-7.77,6.78-22.4,2.52-28,11.18-2,3.06-2.21,7.1-4.61,9.84-2.82,3.23-7.67,3.61-12,3.43a87.89,87.89,0,0,1-45.38-15c-7.89-5.35-17.53-12.3-25.91-7.77-4.84,2.62-7.15,8.36-7.89,13.81s-.32,11.06-1.5,16.44c-3.23,14.68-20,24.85-34.47,21-6.63-1.77-12.92-6.68-14.09-13.43-1.26-7.28,3.49-15.19.31-21.85-4-8.42-16-7.29-25.3-6.63-30.77,2.19-61.8-17.92-72.37-46.91-1.74-4.79-3.09-10-6.59-13.67s-10.14-5.1-13.55-1.31l-7.55-6.18c2.88-14.56.1-29.89-6.05-43.41-2.7-5.94-6.14-12-5.5-18.54.37-3.82,2.15-7.38,2.63-11.18.53-4.14-.49-8.3-1.62-12.32a109.84,109.84,0,0,0-7.27-19.73Z"></path>
    <path data-name="6" data-official="Cenomyce rangiferina" data-plain="" data-loc="Britain" d="M1604.13,2247.07c-6,9.54-5.51,24.51,4.49,29.7a20.3,20.3,0,0,0,11.5,1.71,33.35,33.35,0,0,0,27.38-22.08c4.23-12.71.39-27.12,5-39.68,3.08-8.3,9.52-14.83,15.78-21.09a15.58,15.58,0,0,1,4.93-3.74c2.94-1.16,6.26-.41,9.43-.58a16.41,16.41,0,0,0,14.5-11.47c2.39-8.19-2-16.61-4.51-24.74s-2.22-19.08,5.49-22.73c4.33-2.06,9.86-1.06,13.73-3.89,7.22-5.3,1.9-17,4.69-25.51,1.25-3.78,4.12-6.8,5.86-10.39,4-8.25.86-19.3-6.92-24.18-1.43-.9-3-1.66-3.94-3.09-2.9-4.61,3.73-9.1,6.42-13.83,3.4-6,.11-13.44.48-20.3.43-7.81,5.56-14.42,9.18-21.35s5.54-16.21.25-22a11.81,11.81,0,0,1-2.44-2.95c-.79-1.76-.2-3.79.37-5.63,2.92-9.38,5.13-19.57,2.08-28.91s-13.17-17-22.54-14l-1.23-6.49c3-7.6-3.31-15.41-5.18-23.36-1.08-4.62-.65-9.47-1.39-14.15-1.5-9.5-7.64-17.51-13.58-25.07-3.41-4.34-7-8.81-11.93-11.26s-11.69-2.19-15.2,2.07c-1.5,1.82-2.25,4.15-3.62,6.07-1.85,2.63-5.12,4.45-8.28,3.83s-5.63-4.22-4.42-7.2c1.09-2.71,4.35-3.78,6.3-6,2.6-2.88,2.53-7.44.81-10.92s-4.76-6.08-7.82-8.46c-6.18-4.81-13-9.23-20.68-10.68s-16.48.65-21.22,6.89c-6.08,8-3.76,19.22-3.26,29.26.27,5.63-1.32,12.77-6.85,13.86-3.6.71-7-1.64-10.12-3.59-5.55-3.47-12.27-6-18.59-4.32-6.62,1.77-11.21,7.68-17.13,11.11-16.61,9.65-38.7-2-56.61,5-5.82,2.25-10.72,6.31-15.65,10.14-11.62,9-24.13,17.11-38,22.12-9.58,3.47-21.09,6.64-24.67,16.18-2.88,7.7,1.23,16.67,7.75,21.68s14.91,6.83,23.06,7.93c2.51.34,5.11.64,7.29,1.93,4.06,2.38,5.66,7.69,5,12.35s-3.25,8.81-5.89,12.72l-3,7.07c1.06,2.39.75,5.13.4,7.72-.73,5.34-1.6,10.73-1,16.08s2.89,10.78,7.29,13.88a55.59,55.59,0,0,0,5.9,3.16c6.33,3.37,11.19,8.93,17,13.16a19.93,19.93,0,0,0,5.41,3c5,1.65,10.4.11,15.62.53a29.52,29.52,0,0,1,10,2.9c5,2.31,9.66,5.51,12.9,9.94a24.21,24.21,0,0,1,3.81,20.15l6.44-2.13,25.45-.43c1.86,0,3.86,0,5.37,1.08,1.78,1.3,2.28,3.71,2.59,5.9a124.23,124.23,0,0,1,1.2,14.16c.1,3.9,0,7.87,1.12,11.61s3.59,7.33,7.29,8.58,7.78,0,11.64-.83,8.48-.85,11.07,2.13a12.46,12.46,0,0,1,2.32,5.73q2.85,12.88,4.7,26a5.92,5.92,0,0,1-.25,3.59c-.83,1.56-2.8,2-4.55,2.28-9.6,1.29-20.35.33-27.85,6.46-7.19,5.87-8.66,16.15-9.11,25.42-.13,2.72-.16,5.64,1.33,7.92,2.28,3.46,7.26,4.05,11.22,2.85s7.37-3.76,11.14-5.47a28,28,0,0,1,16.65-2,13.6,13.6,0,0,1,6.25,2.63c3.49,2.9,4.27,7.87,4.8,12.38.94,7.9,1.84,16.12-.77,23.62Z"></path>
    <path data-name="7" data-official="Cenomyce uncialis" data-plain="" data-loc="Britain" d="M262.07,1785.42a207.53,207.53,0,0,1,21.26,53.16c2.06,8.35,3.61,16.94,3,25.52-.35,4.89-1.42,9.7-2.08,14.55-.7,5.08-1,10.21-1.16,15.33a576.18,576.18,0,0,0,23.54,186.28l1,10.53,17.77,83.42c1.18,5.54,2.58,11.47,6.84,15.2,7.61,6.66,19.65,2.83,29.18,6.18a20.24,20.24,0,0,1,13,15.57c1.4,8.78-3.15,17.76-1.45,26.49a18.85,18.85,0,0,0,30.86,10.6c10.49-9.12,8.76-27.32,19.39-36.28,8.42-7.1,22-5.95,29.59-13.94,7.4-7.8,5.57-20.11,5.83-30.85.32-12.76,4.27-25.1,7.67-37.41a452,452,0,0,0,15.31-150.24c-.61-9-1.48-18.16,0-27.08,2.09-12.15,8.47-23.07,14.73-33.69l3.94-8.8c3.3-11,8.84-21.26,12.93-32s6.74-22.63,3.92-33.8c-1.51-6-4.54-12-3-17.93.75-2.88,2.51-5.36,4.24-7.78q13.46-18.86,26.92-37.72a39.07,39.07,0,0,0,5.22-8.87c1.26-3.35,1.58-7,2.42-10.44,1.87-7.76,6.39-15.12,5.81-23.08-.53-7.17-5.24-13.49-11.07-17.69S535,1714,528.2,1711.68l-27.63-9.54c-10.49-3.62-21.47-7.29-32.45-5.73-8.95,1.28-18.82,5.79-26.34.78-3.3-2.21-5.35-5.89-8.49-8.32s-7-3.4-10.92-3.95a58.13,58.13,0,0,0-32.07,4.65c-10.05,4.59-19.28,12.2-30.32,12.61-8.27.31-16.05-3.55-24.07-5.6a56.91,56.91,0,0,0-45.18,7.77l-11.41,3.19a16.85,16.85,0,0,1-2.5,4.22,32.51,32.51,0,0,1-8.15,7.41c-2.16,1.37-4.57,2.56-6,4.66a13,13,0,0,0-1.61,3.6,60.89,60.89,0,0,0-2.37,26.14l-.36,5.31Z"></path>
    <path data-name="8" data-official="Steriocaulon paschale" data-plain="" data-loc="Moors, Scotland" d="M819.64,2136.32c-2.2,4.52-2.36,9.72-2.33,14.74.05,7.39.71,15.33,3.47,22l-9.78,4.8-22,5.75a15.79,15.79,0,0,1-4.95.76c-2.51-.14-4.8-1.44-7-2.62-7.44-3.93-16.17-6.85-24.19-4.32-1.86.59-3.78,1.62-4.46,3.44-1,2.75,1.23,5.5,3.05,7.79a36.89,36.89,0,0,1,5,36.34c-2.61,6.24-7.36,12-13.83,13.93-8.52,2.6-17.6-1.82-24.64-7.28s-13.38-12.19-21.7-15.38-19.64-1.18-23.08,7c-1.67,4-1.15,8.48-1.27,12.79-.26,9.29-4,18.83-11.52,24.32s-18.93,5.81-25.64-.62c-6.21-5.94-7-15.56-6.12-24.11s3.15-17.18,1.54-25.62a28.71,28.71,0,0,0-41.45-20.1c-2.62,1.36-5,3.12-7.55,4.65a49.62,49.62,0,0,1-16.48,6.3h-8.88c-6.62-.72-11.46-7.21-12.34-13.81s1.33-13.2,3.92-19.33c3-7.08,7.1-14.46,14.21-17.39,4.54-1.86,10.64-2.33,12.41-6.91a8.2,8.2,0,0,0,0-5.18c-1.89-6.61-8.49-10.8-15.09-12.71s-13.6-2.13-20.18-4.11c-4.07-1.22-8-3.11-12.17-3.63-11.37-1.41-22.72,7.31-33.72,4.11l-9.69-1.74c-5.75-13.48.12-30.85,12.89-38.07,1.61-.91,3.39-1.75,4.38-3.31a8.83,8.83,0,0,0,1-4.71c.07-11.51-3.52-23.09-1.36-34.39.56-2.93,1.76-6.1,4.46-7.36,2-1,4.39-.59,6.62-.65a17.23,17.23,0,0,0,14.2-8.49,3.78,3.78,0,0,0,.63-1.93,3.82,3.82,0,0,0-1.09-2.28c-9.46-11.58-28.75-11.57-37.34-23.81l-6-15.72c-.61-9-1.48-18.16,0-27.08,2.09-12.15,8.47-23.07,14.73-33.69l3.94-8.8c3.3-11,8.84-21.26,12.93-32s6.74-22.63,3.92-33.8c-1.51-6-4.54-12-3-17.93.75-2.88,2.51-5.36,4.24-7.78l17.16-8.47c10.23-.45,20.14-3.57,30.26-5.13s21.14-1.4,29.76,4.12c5.89,3.76,11.88,10.15,18.51,7.92,3-1,5.08-3.57,7-6l6.94-8.7c1.55-2,3.2-4.23,2.77-6.69-.49-2.89-3.52-4.48-6-6-12.7-7.56-19.34-24-15.45-38.29a20.1,20.1,0,0,1,5.22-9.5,19.37,19.37,0,0,1,8.23-4.32c13-3.59,27.06,2.06,37.47,10.66s18.15,19.92,26.91,30.2a4,4,0,0,0,1.48,1.25c2,.81,3.71-1.54,4.62-3.47a110.74,110.74,0,0,1,13.38-21.5c2.62-3.3,5.66-6.6,9.72-7.72a22.26,22.26,0,0,1,8.06-.17c5,.5,10.06,1,14.71,2.9s8.91,5.33,10.58,10.06c2.27,6.46-.25,14.83,4.66,19.6.91.88,2,1.55,2.92,2.43,4,3.88,3,10.32,2.53,15.85s.78,12.56,6.15,13.94c2.89.74,6.28-.47,8.72,1.23s2.4,5.62,1.83,8.71a120.1,120.1,0,0,1-4.88,18.18c-1.24,3.51-2.67,7.13-2.29,10.84.59,5.69,5.35,10.46,5.34,16.19,0,6.12-5.47,11.19-5.63,17.3-.16,6.5,5.53,11.44,10.7,15.37l3.69,7.42,1.31,9c-.54,2.19.5,4.42,1.41,6.48a69.49,69.49,0,0,1,3.51,9.88,1,1,0,0,1,0,.48c-.17.75-1.31.24-2.07.37a2,2,0,0,0-1,.7l-7.1,7.25-2.23,4.28a7.32,7.32,0,0,1-1.32,4.48,20.92,20.92,0,0,1-3.17,3.55,9.68,9.68,0,0,0-2.07,2.49,9.44,9.44,0,0,1-.45.9c-.76,1.19-2.51,1.59-3,2.91l-6.25,4.56c-5,4.47-4,13.32-9.33,17.39a31.45,31.45,0,0,1-4,2.27,25.69,25.69,0,0,0-6.87,6,38.5,38.5,0,0,0-9.23,25.54l-11.92,7c-8.19,2.73-11.6,12.59-11.79,21.22s1.65,17.51-.84,25.78c-2,6.63-6.58,12.11-10.65,17.72-.93,1.28-1.88,2.7-1.82,4.28a6,6,0,0,0,1.7,3.55c7.09,8.28,19.74,8,30.6,7.09,14.52-1.25,29.24-2.55,42.93-7.57,4.58-1.68,9.1-3.8,14-4.25a21.66,21.66,0,0,1,21.82,14.15c1.34,3.95,1.5,8.27,3.23,12.06Z"></path>
    <path data-name="8a" data-official="" data-plain="Fuctification" data-loc="" d="M1239.2,2526c-8,.74-16.53-.79-22.71-5.91s-9.29-14.33-5.86-21.59c2.29-4.83,7.1-8.45,8.13-13.7.92-4.68-1.44-9.29-2.55-13.93s-1-9.53-.83-14.32l.82-26.71c.12-3.62.18-7.45-1.61-10.6-1.61-2.83-4.49-4.7-6.33-7.38-4.28-6.22-1.87-14.68,1-21.68,1.93-4.76,4.07-9.58,7.64-13.28,6.73-7,17.18-8.65,26.85-8.87,9.85-.23,20.19.83,28.38,6.3s13.35,16.46,9.5,25.52c-.52,1.24-1.21,2.62-.69,3.85a4.64,4.64,0,0,0,2.71,2.06c9.56,4.12,18.32,11.61,21,21.67s-2.72,22.45-12.82,25c-3.19.79-6.56.59-9.75,1.39a16.16,16.16,0,0,0-5.71,28.69c2.35,1.73,5.18,2.83,7.23,4.91,2.24,2.27,3.29,5.43,4.24,8.47,1.94,6.2,3.71,13.17.75,18.94-2.65,5.15-8.37,7.87-13.8,9.88a140.07,140.07,0,0,1-20.86,5.93Z"></path>
    <path data-name="9" data-official="Varilario lactea" data-plain="" data-loc="Stone walls, England" d="M297.78,2089.06c-8.63-6.5-15.37-15.2-23.67-22.12s-19.19-12.15-29.71-9.7c-2.75.64-5.68,1.78-8.27.65-2.09-.92-3.31-3.07-4.57-5-9.12-13.69-26.77-19.21-43.21-19.51s-32.68,3.63-49.11,4.35c-7.45.32-15.49.15-21.61,4.42-2.5,1.74-4.56,4.17-7.36,5.38-4.06,1.76-8.7.61-13.07-.1-27-4.41-56.06,11.54-66.83,36.72-2.66,6.22-4.3,13-3.68,19.74.47,5.13,2.22,10.07,2.72,15.19.92,9.56-2.55,18.9-4.73,28.25a107,107,0,0,0-2.63,29.74A65.89,65.89,0,0,0,26,2197.46c5.84,15.14,19.13,26.42,33.74,33.48s30.66,10.47,46.45,14.23c10.5,2.51,22.34,6.31,26.61,16.22,4.2,9.75-.63,22.24,5.38,31,5,7.29,15.9,8.46,24,4.82S176,2286.32,181,2279.06s9.89-14.94,17-20.24c11-8.24,25.56-9.38,38.88-12.81,18.66-4.8,35.65-14.45,52.39-24,6.43-3.67,12.94-7.4,18.26-12.57a44.36,44.36,0,0,0,13.08-27l4.75-8.21-17.77-83.42Z"></path>
    <path data-name="9a" data-official="" data-plain="Shields" data-loc="" d="M1392.73,2534.85c-7.79,1.74-16.63.28-22.34-5.29s-7.06-15.64-1.78-21.62a14.29,14.29,0,0,0,2.31-2.85c1.34-2.72-.41-6.14-3-7.7s-5.76-1.74-8.79-1.88l-22.36-1c-4.3-.2-8.7-.42-12.65-2.11-7.19-3.08-11.75-10.95-11.8-18.77s4-15.36,9.88-20.49c2.72-2.36,5.83-4.27,8.43-6.77,3.9-3.73,6.49-8.58,9-13.34,3-5.7,6.11-11.61,6.5-18.05.16-2.71-.14-5.56,1-8,1.89-4,6.82-5.43,11.17-6.38,10.49-2.29,21.2-4.5,31.9-3.51s21.56,5.7,27.51,14.65a3.48,3.48,0,0,0,1.72,1.65,3.43,3.43,0,0,0,2.64-.78c15.33-9.44,37-6.93,49.77,5.77,6.6,6.58,10.89,16.53,7.79,25.31,6.33,2.78,10.62,9,12.72,15.56s2.3,13.59,2.48,20.49c.06,2.53.11,5.13-.82,7.47-2.37,5.91-9.79,7.76-16.16,8s-13.36-.21-18.35,3.74c-5.87,4.66-6.37,13.25-9.79,19.92-3.59,7-10.54,11.81-18,14.48s-15.34,3.44-23.18,4.18Z"></path>
    <path data-name="10" data-official="Ramalina fraxinea" data-plain="" data-loc="Trees, England" d="M1193.33,644.27l-17.55-9.15a20.72,20.72,0,0,1-4-2.5c-3.67-3.14-4.68-8.31-5.47-13.08-2.25-13.56-4.43-27.86.35-40.75l-.3-2.13c-.64-4.28.58-8.6,1.94-12.71,2.17-6.53,4.75-13,6.14-19.68.55-2.68,1-5.61,3-7.47a13.4,13.4,0,0,1,4.61-2.34c3.08-1.16,6.22-2.79,7.81-5.67a8.3,8.3,0,0,0,.18-7.56c-.7-1.41-1.8-2.6-2.47-4-1.52-3.16-.72-7,.88-10.11s3.93-5.81,5.69-8.84,2.93-6.24,5.46-8.49l3.41-1.63c2-4.34,7.57-5.71,12.31-5.22s9.37,2.27,14.13,2c2.59-.14,5.12-.87,7.71-1.09a22.64,22.64,0,0,1,12.5,2.87,18.75,18.75,0,0,1,5,3.75,29,29,0,0,1,4.17,6.64c2.91,5.72,5.85,11.54,7,17.85.65,3.54.73,7.17,1.43,10.7a5.7,5.7,0,0,0,1.37,3.12c1.24,1.18,3.15,1.16,4.85,1.33,4.92.47,9.34,3,13.59,5.57,12.47,7.4,25.72,15.64,31.43,29l2.41,5.94a89,89,0,0,1,12.8,38.67,16.05,16.05,0,0,1-.51,7,48.12,48.12,0,0,1-2.69,4.93c-3.69,7.24-.73,16.85-5.4,23.5-2.69,3.84-7.69,6.25-8.66,10.84-.71,3.35,1,6.66,2.37,9.81a46.2,46.2,0,0,1,3.34,23.57,15.51,15.51,0,0,1,8.5,6.39,22.5,22.5,0,0,1,25.17,2.77c2.76,2.46,4.85,5.56,7.08,8.52,4.19,5.56,9,10.7,12.67,16.6s6.34,12.81,5.59,19.74-5.53,13.71-12.34,15.18l-.18,4.65a19.51,19.51,0,0,0,6.26,6.39c1.56.91,3.28,1.51,4.9,2.3a22.26,22.26,0,0,1,12.2,17.92,45.13,45.13,0,0,0,.44,5.58c1.08,5.18,5.7,8.92,7.51,13.9a13.67,13.67,0,0,1-12.26,18.34c-2.18.09-4.7-.23-6.25,1.32-1.16,1.16-1.32,3-1.44,4.6A91.53,91.53,0,0,1,1374.9,857c-1.46,4.06-3.27,8.11-6.27,11.22-6.61,6.85-17.36,7.67-25.1,13.2a19.26,19.26,0,0,0-8.12,12.52c-.73,5.05,1.34,10.6,5.65,13.36,1.88,1.2,5,1.51,5.87-.53a6.6,6.6,0,0,0,.35-2.18c.43-4.15,4.48-7.27,8.64-7.68s8.24,1.34,11.67,3.72a33.64,33.64,0,0,1,13.79,21.59l1.67,5.34c-.54,6.16-1.14,12.53-4.06,18s-8.82,9.82-15,9c-1.93-.26-3.77-1-5.71-1.21s-4.15.3-5.2,1.94a5.9,5.9,0,0,0-.75,2.81c-.31,5.11,1.8,10.62-.6,15.15-1.24,2.35-3.51,4-5.09,6.11-4.89,6.58-2.22,15.75-.67,23.79a74,74,0,0,1,1,20.9c-.79,8.59-2.86,18.14,2.12,25.18a3.57,3.57,0,0,0,1.69,1.46,3.82,3.82,0,0,0,3-.75c4.28-2.6,9.18-6.42,13.69-4.22,1.38-4.37,2.94-9,6.54-11.86,4.22-3.34,10.49-3.55,14.2-7.45,5.43-5.72,2.15-15.14,4-22.81,2-8.27,11-14.15,19.41-12.58l3.81-.66,14.44,1.08c-5.88-14-1.74-31.66,9.79-41.6a22.81,22.81,0,0,1,8.56-4.91c3.74-1.06,7.7-.76,11.57-1,8.89-.47,18.91-3.25,25.9,2.24,1.66,1.3,3,3,4.71,4.2,2.71,1.88,6.11,2.41,9.14,3.73,4.79,2.09,8.45,6.07,12,9.94a28.36,28.36,0,0,1,6.82-10.68,27.28,27.28,0,0,0,4.51-4.8,21.48,21.48,0,0,0,2.1-5.88,71.2,71.2,0,0,1,17.43-31,13.48,13.48,0,0,0,3.39-4.61,18,18,0,0,0,.57-3.44c1.38-10.68,11.49-18.54,22-20.81s21.45-.14,32,2l6,3.12a86,86,0,0,1,19.86,12.89c2.36,2,4.68,4.34,5.78,7.26,1.43,3.79.6,8,1.26,12,1.81,10.87,13.74,17.14,17.92,27.33a40.5,40.5,0,0,1,2.26,10.17c1.73,13.41,2.65,28.2-5.13,39.25a13.68,13.68,0,0,1,7.87,10c.25,1.41.3,2.95,1.17,4.09,1,1.31,2.78,1.69,4.32,2.28,5.18,1.95,8.72,7,10.31,12.25s1.54,10.93,1.47,16.46c-.06,4.62-.42,9.88-4,12.77-1.58,1.27-3.59,1.9-5.17,3.15s-2.65,3.64-1.48,5.29c1.41,2,4.51,1.18,6.56-.11,5.06-3.19,9.66-8.43,15.63-8,5.7.41,9.63,6,11.39,11.44a37.27,37.27,0,0,1-1.86,27.37c-2.6,5.39-6.49,10.1-8.89,15.58s-3,12.37.65,17.06l2.86,6.19c-1.5,2.16-.23,5.31,1.89,6.87s4.83,2,7.36,2.73c17.61,5,28.43,25.49,24.58,43.39-1.87,8.64-8.4,17.63-17.24,17.24-2.48-.11-5.22-.9-7.24.53a8.77,8.77,0,0,0-2.46,3.7,34.88,34.88,0,0,1-10.21,12.74c3.3,6.28,6,13.36,4.72,20.34-1.82,10.07-11.22,16.91-20.49,21.26-9.89,4.66-22.27,7.52-31.25,1.28-.61,5.34-4.39,9.92-9,12.66s-10,3.86-15.33,4.55a108.6,108.6,0,0,1-20.71.69c-3.74-.23-7.57-.68-10.9-2.41s-6.1-4.95-6.31-8.7c-.08-1.45.19-3.05-.61-4.26a4.39,4.39,0,0,0-2.48-1.59c-4.85-1.46-10,.78-14.2,3.69s-7.86,6.57-12.54,8.52c-6.58,2.74-15.31,2.39-19.08,8.43-2.32,3.71-1.9,8.89-5,12l-2.84,5.64c-6.4,3.48-13.29,7.5-15.81,14.33-1,2.77-1.22,5.75-1.7,8.66-1.33,8.18-4.92,15.79-8.46,23.28a17.17,17.17,0,0,1-3.44,5.39c-2.67,2.51-6.58,3-10,4.35-7.82,3-13.2,10.18-17.36,17.45a9,9,0,0,0-1.42,3.69c-.23,2.91,2.16,5.29,4.33,7.25,11.67,10.53,22.72,22.67,27.34,37.69l4.38,4.28c.1,3.08,2.85,5.3,5.14,7.36a81.84,81.84,0,0,1,9.22,10.36c8.34,10.5,16.79,21.21,21.68,33.69,2.65,6.76,4.13,14.6.94,21.13-4.44,9.09-15.73,12-24.1,17.65-5.09,3.45-9.51,8.71-9.72,14.86a26.56,26.56,0,0,0,.63,5.74l2.92,15.93a2.51,2.51,0,0,0,3.11,2.49c7.85.12,16.92.12,21.88,6.2,3.17,3.88,3.68,9.25,3.58,14.25-.14,6.41-1.15,13-4.55,18.44a23.4,23.4,0,0,1-9.48,8.57c-4.42,2.18-9.39,2.9-14.27,3.59-8.7,1.24-17.59,2.47-26.24.88l-3.46-7.34c1.93-9.14,2.87-20.8-5.09-25.69-4-2.45-9-2.22-13.52-3.6-13.46-4.17-17.91-20.63-20.24-34.53a155.27,155.27,0,0,1-58.76,26.8,107.51,107.51,0,0,1-15.76,2.41c-14.95,1.05-29.86-2-44.54-4.94-8.19-1.67-17.2-3.85-22-10.72-1.67-2.41-2.69-5.26-4.64-7.45-6.29-7-19.1-4.29-25.4-11.32-4.49-5-4.63-14-10.92-16.42-2.52-1-5.31-.47-8-.17-16.89,1.89-34.17-4.56-47-15.71s-21.44-26.66-26.05-43c-2.57-9.09-4-18.61-8.31-27-1.15-2.23-3-4.65-5.48-4.52-4.47.23-4.3,6.74-5.21,11.12-1.81,8.7-12.71,12.3-21.51,11a37.64,37.64,0,0,1-26.75-18.06c-2.08-3.57-3.55-7.46-5.36-11.18a65.14,65.14,0,0,0-10.79-15.68l-4.13-6.67c-4.77-3.21-5.88-10.38-11-13.09-3.9-2.08-8.92-.81-12.85-2.82-3.26-1.65-5.1-5.24-6-8.8s-.93-7.26-1.78-10.81c-1.54-6.45-5.56-12.12-6.81-18.63a45.42,45.42,0,0,1-.49-9.33l.36-21.16a7.83,7.83,0,0,1,4.05-7.89c2.74-2.11,5.59-4.27,8.95-5.1a21.52,21.52,0,0,0,4.53-1.16c3.83-1.9,4.35-7,5.78-11a19.27,19.27,0,0,1,10.34-11.06,45.89,45.89,0,0,1,9.35-2.42c9.79-2,19.75-5.6,26.38-13.08a52.74,52.74,0,0,0,6.76-10.36c3.27-6.11,6.34-12.44,7.75-19.23s1.06-14.15-2.22-20.25l-.82-7.85a80.68,80.68,0,0,1-12.3-43.42,49.6,49.6,0,0,1,1.54-12.61c1.4-5.14,3.92-9.89,6.43-14.6s5.22-9.69,9.64-12.77c5-3.52,11.6-4.06,17.74-3.55a61.16,61.16,0,0,1,26.17,8.41c-5.68-14.56-1.37-32.46,10.32-42.84,2.8-2.49,6.5-4.67,10.12-3.68,1.78.48,3.28,1.68,4.88,2.6a11.53,11.53,0,0,0,8.54,1.52c2.87-.75,5.36-3.31,5.4-6.28l1-5.66c.93-3.7-.67-7.57-2.75-10.76s-4.69-6.09-6.17-9.6c-1.82-4.32-1.75-9.19-1.23-13.85,2.18-19.5,11.68-37.33,21.13-54.53a3.62,3.62,0,0,0,.63-2.89c-.42-1.12-1.78-1.5-2.94-1.77a55.56,55.56,0,0,1-18-7.73,10.9,10.9,0,0,1-4.22-4.22,11.92,11.92,0,0,1-.81-4.32c-.25-4-.5-8,.37-11.94,1.87-8.33,8.72-14.85,16.43-18.54l2.62-5a19.85,19.85,0,0,1,7.72-18.62c-5.28-7.83-10.69-16-12.21-25.29-1.82-11.1,2.11-22.25,6-32.81,1.66-4.53,3.36-9.14,6.29-13,1.78-2.36,4-4.42,5.25-7.11,2.06-4.54.82-9.8,0-14.72s-.72-10.69,3-14l-.44-3.45a148,148,0,0,1-4-25.18c-.22-3-.17-6.44,2.07-8.45s5.8-1.74,8.29-3.43c4.08-2.76,3.38-8.85,2.21-13.63q-6.45-26.42-12.89-52.81l-1.76-5.85c-9.07-10.18-8.27-25.89-15.15-37.66a8.2,8.2,0,0,0-1.76-2.24c-3.64-2.94-9.31.93-13.66-.8Z"></path>
    <path data-name="11" data-official="Usnea barbata" data-plain="" data-loc="Firs, England" d="M1112,1181.88c-5.16,9.81,1.09,22.13-1.9,32.81a28.25,28.25,0,0,1-6.45,10.89c-2.15,2.4-4.66,5.8-2.82,8.44a8.19,8.19,0,0,0,3.12,2.18,20.93,20.93,0,0,1,10.93,16.79l1.57,7.54c-6.63,7.48-16.59,11.1-26.38,13.08a45.89,45.89,0,0,0-9.35,2.42,19.27,19.27,0,0,0-10.34,11.06c-1.43,4-2,9.1-5.78,11a21.52,21.52,0,0,1-4.53,1.16c-3.36.83-6.21,3-8.95,5.1a7.83,7.83,0,0,0-4.05,7.89l-.36,21.16a45.42,45.42,0,0,0,.49,9.33c1.25,6.51,5.27,12.18,6.81,18.63.85,3.55.93,7.26,1.78,10.81s2.69,7.15,6,8.8l-5.69,5a34.56,34.56,0,0,0-7.57,19.22c-.32,4.56.26,9.17-.44,13.68-1,6.47-4.6,12.45-4.72,19-.14,7.7,4.59,14.91,4.26,22.6a34.73,34.73,0,0,1-1.76,8.4l-14.22,47.93c-1.65,5.57-4.21,12-9.88,13.28-3.09.68-6.25-.46-9.2-1.59-3.75-1.42-7.88-3.2-9.43-6.9-.88-2.11-.74-4.48-.6-6.75l.78-11.92c.24-3.65.4-7.61-1.64-10.66-.82-1.22-1.95-2.21-2.81-3.42a15.83,15.83,0,0,1-2.37-6.74,49.58,49.58,0,0,1,.36-17.89,29.34,29.34,0,0,0,.93-6c0-2.93-1.14-5.71-1.95-8.52a39.81,39.81,0,0,1-1.42-14.32c.16-2,.31-4.32-1.27-5.5-2-1.49-4.81.28-6.35,2.24a22.16,22.16,0,0,0-4.72,12.4c-.25,4.33.72,9-1.31,12.82s-6.56,5.68-9.79,8.65c-8.23,7.56-7.08,21-13,30.5-2.87,4.61-7.34,8.15-9.66,13.06a49.93,49.93,0,0,0-2.62,8.54c-2.12,7.85-5.91,15.11-9.31,22.49-2.87,6.24-5.52,13.35-3.19,19.82l.73,4.9c-6.77,4.21-9.07,13.17-8.37,21.11s3.76,15.48,5.25,23.31l-5.47,10.69c-7.9,3.66-16.3,6.7-25,6.83s-17.81-3-23.17-9.87c-6.21,7.91-9.49,17.67-12.66,27.22L861,1655.21a139.23,139.23,0,0,0-4,13.55c-3.38,15.29-1.75,32.31-10.27,45.45-2.88,4.45-7.47,8.44-12.77,8.21-1.79-.08-3.54-.65-5.33-.56s-3.57.84-5.39,1c-3.83.41-7.51-1.72-10.27-4.4a26.34,26.34,0,0,1-7.8-20.56c.32-4.17,1.63-8.39.66-12.45a37.91,37.91,0,0,0-2.14-5.46c-3.72-9-2.61-19.43.56-28.67s8.27-17.68,12.62-26.43a16.34,16.34,0,0,0,2-5.89c.47-6-5.27-10.86-6-16.85-.62-5.24,2.71-10.1,3.59-15.31.57-3.41.08-6.9-.41-10.32-1.29-9-2.62-18.1-6.34-26.37-1.22-2.71-2.69-5.33-3.38-8.22-.57-2.45-.56-5-.89-7.47a27.91,27.91,0,0,0-16.69-21.73l-4.13-6.08c-5-3.26-6.65-10-6.23-15.94s2.41-11.76,2.83-17.73l5.31-7.45c3.68-.58,7.74-1.62,9.71-4.78,1.69-2.72,1.31-6.2.66-9.33l-3-21.91a12.55,12.55,0,0,0-1.58-9.86,44.45,44.45,0,0,0-4.53-5.18,29.1,29.1,0,0,1-5-30.11l4.74-8.53a19.18,19.18,0,0,0,4.35-3.61c3.51-3.3,7.92-5.64,10.93-9.4,6-7.51,4.79-18.31,2.84-27.73a45.62,45.62,0,0,1-1.42-10.81c.18-5.29,2.3-10.31,4.4-15.18a27.44,27.44,0,0,1,11.73-14.9l13.75-10.17,10.41-9.71c.22-1.06,1.41-1.57,2.43-1.91l7.41-2.48c1.92-.64,4.21-1.23,5.81,0a6.39,6.39,0,0,1,1.48,2,6.55,6.55,0,0,1,.92,2.38l3.31,3.48c2.2,3,4.5,6,7.76,7.78a25.2,25.2,0,0,0,6.31,2.05l9.89,2.26a20.75,20.75,0,0,0,3.48.59,20.3,20.3,0,0,0,3.73-.27l10.24-1.36,3.42-2.46a18.42,18.42,0,0,0,4.08-6.09c2.47-5.16,4.66-10.61,4.83-16.33s-2-11.8-6.77-15a20.92,20.92,0,0,1-2.53-1.73c-1.76-1.59-2.43-4.08-4-5.82-2-2.23-5.49-3.15-6.74-5.91a15.46,15.46,0,0,1-.77-3.73c-.68-3.88-3.15-7.19-5.69-10.2a19.83,19.83,0,0,0-5.86-5.22c-2.35-1.2-5.37-1.43-7.53.08l-4.61,2.13c-4,.34-6.39,4.6-10,6.21a10.9,10.9,0,0,0-2,.92c-1.35.93-1.86,2.71-3.1,3.79s-3.28,1.35-4.62,2.49c-.68.59-1.16,1.38-1.82,2a4.91,4.91,0,0,1-5,1l-1.75-1.93a62.13,62.13,0,0,1,.54-17.7c.59-3.38,1.46-6.85.62-10.17a25.21,25.21,0,0,1-1.17-4.37c-.17-2.56,1.4-4.88,2.8-7a25.77,25.77,0,0,0,3.48-7,10.7,10.7,0,0,0-.5-7.68c-2.45-4.82-8.7-6-13-9.27l-4-1.58a39,39,0,0,0-7.14.76c-3.12.57-6.37,1.33-8.7,3.46l-5.4,1.32a4.75,4.75,0,0,0-2.23,2.54l-6,11.58c-1.8,3.49-3.67,7.07-6.69,9.57a21.53,21.53,0,0,1-.18-2.54c-.2-9.26,2.69-18.6.92-27.7a50.85,50.85,0,0,0-3.71-10.66c-1.63-3.66-3.39-7.39-6.32-10.13a26.58,26.58,0,0,0-8.36-4.85c-3.24-1.31-7-2.37-10.1-.79a10,10,0,0,0-4.34,5.21c-.9,2.13-1.4,4.4-2.26,6.55a21.74,21.74,0,0,1-3,5.2,6.48,6.48,0,0,1-2,1.87,7.51,7.51,0,0,1-4.08.4,24.56,24.56,0,0,1-7.13-1.37,25.18,25.18,0,0,1-4.24-2.44l-17-11.35-4.67.49a16.74,16.74,0,0,0-7.6,1c-3.53,1.52-6,4.73-8.29,7.81l-6.8,9.09-1.88,2.73c-1.94-.37-3.88.5-5.66,1.37-3.85,1.87-7.75,3.89-10.58,7.1l-4.83-.58c-3.83,1.66-7.74,4.27-8.74,8.32-.28,1.16-.31,2.37-.62,3.52a22.68,22.68,0,0,1-2,4.16c-2,3.9-2.53,8.34-3.87,12.5-.94,2.94-2.88,6.17-6,6.3a1.54,1.54,0,0,1-1-.23,1.8,1.8,0,0,1-.54-1.14c-.88-4.35-.47-8.85-.41-13.29s-.28-9.07-2.48-12.93a2.2,2.2,0,0,1-.45-1.39c.08-.57.61-1,1.08-1.28,2.5-1.72,4.91-3.87,5.87-6.75,1.14-3.47-.06-7.23-1.25-10.68l-3-3.29.49-6.84a28.23,28.23,0,0,0,.1-3.79c-.22-3.3-1.6-6.4-3-9.42l-.45-4c-.16-4.33-3.2-8.18-7-10.32s-8.19-2.82-12.51-3.1a1.58,1.58,0,0,1-1.05-.34,1.62,1.62,0,0,1-.17-1.34,13.81,13.81,0,0,0-2-9.4l-5.24-8a26.69,26.69,0,0,1-2.86-6.38c-.61-2.08-1-4.28-2.15-6.12a16.64,16.64,0,0,0-4.18-4.06l-3.52-2.69-3-3.57c-2.55-.36-4.59-2.79-7.16-2.68l-5.22-.11a30.08,30.08,0,0,0-4.6,1.76,7.31,7.31,0,0,0-2.55,1.75,8.52,8.52,0,0,0-1,1.64l-2.19,4.3c-.63,1.25-1.29,2.66-.88,4l-1.69,4.9c-5.28,1.57-11,.94-16.24-.89l-4.81-1.62c-2.58-.17-4.21-2.86-6.55-4a10.35,10.35,0,0,0-3.83-.78,62.4,62.4,0,0,0-17.08,1.28,12.73,12.73,0,0,0-3.82,1.32l-9.21-.32a55.21,55.21,0,0,1-14.73-32c-.69-6.61-.18-13.37-1.7-19.84-.8-3.38-2.14-6.61-3-10-3-11.67-.33-24-.94-36-.26-5.27-1.16-10.55-.46-15.78.45-3.34,1.56-6.61,1.62-10,.12-7.09-4.28-13.33-7.76-19.51s-6.13-14-2.57-20.15c.92-1.6,2.21-3,3.27-4.47,4.83-6.93,4.27-16.12,3.52-24.53l-2.12-6.5c1.3-8.81,4.54-17.22,8.13-25.38q5.75-13.08,12.74-25.57A64.52,64.52,0,0,0,522,828.57c1.3-3.89,1.76-8,2.71-12a132.87,132.87,0,0,1,4.68-14.09,207.32,207.32,0,0,0,9.77-38.2A28.66,28.66,0,0,1,540.3,759a31.52,31.52,0,0,1,4.25-7.1c4.52-6.46,8.12-13.51,11.7-20.54l10-19.59,4.42-9.32,6.94-23c1.53-5.07,3.1-10.22,5.92-14.71,2.55-4.06,6.11-7.55,7.8-12,.91-2.42,1.24-5.08,2.52-7.33a29.48,29.48,0,0,1,3.37-4.21,30,30,0,0,0,7-17,7.66,7.66,0,0,0-.72-4.62c-.77-1.27-2.12-2-3.2-3-4.19-3.86-4.09-10.39-3.68-16.07l.75-8.45c-1.86-5.84,1.26-12.11,5.17-16.82s8.77-8.8,11.39-14.33c2.73-5.76,2.71-12.4,4.45-18.53,3.4-11.93,13.1-20.85,22.38-29.1,8.44-7.51,17.91-15.45,29.21-15.68,5.93-.13,12.61,1.75,17.31-1.87s4.6-10.77,7.41-16c2.42-4.56,6.93-7.55,10.31-11.45,4.81-5.57,7.16-12.8,10.8-19.21,8.58-15.12,24.18-25.16,40.55-31a68,68,0,0,0,10.8-4.38l3.41-5.84a11,11,0,0,0,2.87-11.56c-.53-1.46-1.37-2.78-2-4.2a24.45,24.45,0,0,1-1.69-10.18,58,58,0,0,1,5.72-24.72c4.24-8.82,10.75-16.65,13.23-26.12a7.82,7.82,0,0,1,1.34-3.25c1-1.09,2.44-1.47,3.74-2.07,3.68-1.7,6.11-5.37,7.48-9.18s1.86-7.88,2.81-11.82a52,52,0,0,1,12.56-23.24,6.52,6.52,0,0,1,2.3-1.78,10.69,10.69,0,0,1,2.59-.41c7-.84,10.89-8.24,15.1-13.93a44.1,44.1,0,0,1,21.7-15.6l5.77-1.16c10.51-11.08,28.05-11.09,41.57-18.22,6.72-3.54,12.35-8.81,17.89-14l53.17-50c17.11-16.07,34.46-32.33,55.1-43.51s45.29-16.88,67.86-10.44c6,1.72,12.32,4.3,18.34,2.55,5.24-1.52,9-6,12.41-10.24,9.9-12.34,19.77-24.94,32.29-34.62s28.21-16.26,43.94-14.61c10,1.06,19.49,5.36,29.47,6.9s21.73-.59,27.08-9.15c2.16-3.44,3-7.52,4.72-11.21a26.46,26.46,0,0,1,49.21,3l6.12,2.23a117.47,117.47,0,0,1,21.3-3.83c4.62-.4,9.33-.52,13.81.64s8.75,3.75,11.1,7.73c4,6.73,1.63,15.3-1.2,22.58A45.33,45.33,0,0,1,1362.81,85c-5.35,7.19-14,11-22.31,14.41l-3.24.17c-3.62-2.62-8.64-2.31-12.84-.82s-8,4-12.17,5.59c-7.22,2.75-15.18,2.62-22.91,2.45a16.48,16.48,0,0,1-6.56-1c-2.12-1-3.71-2.81-5.69-4-7-4.34-15.9-.17-23.9,1.84-6.67,1.67-13.62,1.73-20.49,2.17-11.92.78-23.9,2.78-34.84,7.57-8.57,3.75-16.31,9.12-24,14.45-8.18,5.67-17.28,13.09-16.86,23,.46,10.58,11.29,17.2,20.79,21.88l35.57,17.52c6.33,3.12,13.76,8.35,12.24,15.24-1.29,5.85-8.26,8.23-14.19,9.08a110.2,110.2,0,0,1-23,.89c-3.29-.21-6.83-.52-9.66,1.17a10.72,10.72,0,0,0-4.43,6.3,17.78,17.78,0,0,0,6.06,18.69c3.31,2.54,7.66,4,9.79,7.6,4.52,7.59-4.19,18.22.37,25.79,3,5,10.43,5.75,14.07,10.39,4.1,5.22,1.81,12.87,3.38,19.32,3,12.51,20.2,19.46,19.45,32.32-.14,2.34-.91,4.71-.33,7,1.89,7.42,15.8,7.69,15.58,15.35l5.08,11.3c-.58,10.42,11.67,17.09,14.29,27.18,2,7.64-1.94,15.48-2.47,23.36-.33,4.91.67,9.81.69,14.73,0,6.95-1.89,13.73-3.8,20.41l-6.27,22-.5,8.39a22.64,22.64,0,0,0-12.5-2.87c-2.59.22-5.12.95-7.71,1.09-4.76.24-9.38-1.54-14.13-2s-10.35.88-12.31,5.22l-3.41,1.63c-2.53,2.25-3.76,5.57-5.46,8.49s-4.1,5.72-5.69,8.84-2.4,6.95-.88,10.11c.67,1.42,1.77,2.61,2.47,4a8.3,8.3,0,0,1-.18,7.56c-1.59,2.88-4.73,4.51-7.81,5.67a13.4,13.4,0,0,0-4.61,2.34c-2,1.86-2.49,4.79-3,7.47-1.39,6.73-4,13.15-6.14,19.68-1.36,4.11-2.58,8.43-1.94,12.71l.3,2.13c-4.78,12.89-2.6,27.19-.35,40.75.79,4.77,1.8,9.94,5.47,13.08a20.72,20.72,0,0,0,4,2.5l7.51,11.4c-1.23,3.78-5.33,5.78-7.59,9s-2.49,7.23-2.71,11.07c-.6,10.47-1.07,21.54,3.84,30.8,2.1,4,5.1,7.4,6.85,11.51s1.91,9.41-1.26,12.56c-1,1-2.2,1.66-3.17,2.64-2.93,3-2.83,7.82-1.65,11.83s3.22,7.81,3.57,12a25,25,0,0,1-1.59,9.75c-1,3-2.29,6.08-4.8,8-4.72,3.62-11.48,1.74-17.34,2.72a9.82,9.82,0,0,0-5.24,2.32c-2.71,2.57-2.88,6.89-1.91,10.5s2.86,6.93,3.68,10.57c.59,2.64.61,5.41,1.42,8,2.1,6.68,9,10.8,11.9,17.16,1.62,3.55,1.94,7.63,3.91,11,3,5.11,9,7.4,14.15,10.39s10.12,8.35,8.65,14.09c-.9,3.51-4.06,6.21-4.47,9.8l-1.19,7.86c.34,5.59,2.88,10.76,4.68,16.07s2.81,11.37.22,16.33a25.26,25.26,0,0,1-3.82,5l-10.79,12a14.88,14.88,0,0,1-4.13,3.59c-3.39,1.7-7.45.61-11.07-.51-6-1.87-12.75-4.27-15.53-10a19.74,19.74,0,0,1-1.48-9.18,63,63,0,0,1,1.91-14,6.75,6.75,0,0,0,.28-3.35,6.31,6.31,0,0,0-1.41-2.28l-14.84-17.68a14.81,14.81,0,0,0-4.22-3.87,5,5,0,0,0-5.45.21c-2.37,2-1.44,5.71-.69,8.7a34.79,34.79,0,0,1-1.44,21.08c-1.61,4-4,7.82-4.79,12.1s.13,8.86-.36,13.26-2.24,8.25-3.18,12.43a65.62,65.62,0,0,0-1.19,10.84c-.32,6.11-.64,12.25.2,18.31a42.5,42.5,0,0,1,.84,8.17,29.35,29.35,0,0,1-1.45,6.71l-5.31,17.78,1,6.42c-.39,2.25.93,4.48,2.63,6s3.76,2.57,5.58,4c5.25,4,7.83,10.54,10.17,16.72l3.84,10.13c2.11,5.57,4.25,11.54,2.93,17.34-1.21,5.32-5.26,10-5,15.45.23,4.46,3.31,8.19,4.89,12.37,1.37,3.64,1.6,7.59,1.8,11.47.23,4.08.42,8.34-1.23,12.08-2.33,5.27-7.75,8.38-11.55,12.72s-3.83,8.18-.38,12.8l3.65,2.9c-2.51,4.71-5,9.46-6.43,14.6a49.6,49.6,0,0,0-1.54,12.61Zm-512.9,313.57c-2.93-6-7-11.22-11.13-16.44-2.13-2.71-4.34-5.65-4.6-9.09l.62-4.06a22,22,0,0,0-11-7.57l-3.58.32c-3-.37-5.31-2.53-7.47-4.58l-1.14-1.08-2.79-3.85a6,6,0,0,0-9.18-2.39l-1.26,3.25c-.37,1.26-.73,2.53-1.08,3.8l-3.13,11.11c-.75,2.69-1.54,5.44-3.23,7.65-2,2.57-5,4.13-7.83,5.61l-9.24,4.76a30.65,30.65,0,0,1-5.71,2.46l.26,3.12c2.45,5.43,4,11.94,1.22,17.18a23,23,0,0,1-3.45,4.49l-6.75,7.43-4.82,7.29c-2.84,5.14-1.66,11.47-.35,17.19,2.86,12.5,6.2,25.35,14.1,35.46,4.7,6,11.21,11.55,11.84,19.16.25,3-.5,6-1.14,9-3.69,17.17-3.78,34.88-3.86,52.43a28.55,28.55,0,0,0,.69,7.89c.92,3.3,3,6.13,4.6,9.14a38.82,38.82,0,0,1,4.42,22.57c-.3,2.64-.84,5.42.15,7.88,1.66,4.14,6.68,5.48,10.66,7.49,3.59,1.81,7,4.61,11,4.54s7.37-3,10.34-5.72c4.66-4.3,9.88-8.74,16.2-9.19,6.71-.48,13.27,3.71,19.89,2.5,5.49-1,9.76-5.66,11.75-10.87s2.09-10.93,1.94-16.51c-.34-12.42-2-25.47-9.34-35.48l-1.49-5.85a13.68,13.68,0,0,1-4-2.28l-13-9.53a21.76,21.76,0,0,1-2.37-1.91,10.75,10.75,0,0,1-3.17-8.06c.24-5.18,4.13-9.39,5.89-14.27a9.15,9.15,0,0,1,.73-1.74l-2.09-6.48c-3.87-4.41-4.48-10.92-3.23-16.65s4.09-11,6.51-16.3a115.21,115.21,0,0,0,6.36-17.94c2-7.43,3.17-15,4.38-22.64Z"></path>
    <path data-name="12" data-official="" data-plain="Shield with Gonidia" data-loc="" d="M1613.31,2547c-7.57-.23-15.13,1.83-22.67,1.11s-15.67-5.6-16.19-13.16c-.5-7.16,5.74-15.2,1.23-20.78a13.7,13.7,0,0,0-5.17-3.41c-9.7-4.42-19.53-8.89-30-10.6-5.77-.94-11.7-1.05-17.29-2.74a62.22,62.22,0,0,1-10-4.34c-2.9-1.46-5.91-3-7.76-5.67a19.7,19.7,0,0,1-2.58-6.7l-14-55.73c-.75-3-1.4-6.49.52-8.9,1.37-1.73,3.66-2.36,5.79-2.89l18.32-4.6a10.25,10.25,0,0,0,4.68-2.07c2.28-2.17,2.07-5.79,1.71-8.91-1-9-1.81-18.2-.12-27.11s6.2-17.65,13.8-22.61,18.53-5.24,25.31.79c3.79,3.38,6,8.25,9.62,11.76,5.78,5.54,14.27,6.87,22.2,8,18.8,2.54,37.6,1.09,56.4,3.63a74.69,74.69,0,0,0,28.24-1.8c7.55-1.92,14.45-2.28,19.42-8.28,2.69-3.24,4.82-4.94,7.81-7.91s7.15-5.21,11.29-4.45c5.61,1,8.86,6.9,10.66,12.31a72.63,72.63,0,0,1,1.39,40.95c-.76,3-1.73,6-1.55,9s1.81,6.27,4.7,7.25c2.12.72,4.43.14,6.67.14,5.72,0,10.85,4,13.77,8.9s4,10.68,4.92,16.32a390,390,0,0,1,4.34,39.32c.28,4.72.37,9.83-2.33,13.71-3.71,5.31-11,6.26-17.51,6.73l-60.9,4.44c-6.08.45-12.57,1.05-17.3,4.87-8.3,6.71-7.75,20.33-15.7,27.43-5.53,4.95-13.64,5.4-21.06,5.58Z"></path>
</svg>
