
<svg xmlns="http://www.w3.org/2000/svg" viewBox="0 0 2179 3044" id="illustration" preserveAspectRatio="xMidYMid meet">
  <title>Polygalaceæ</title>
    <path data-name="1" data-official="Polygala vulgaris" data-plain="Common Milkwort" data-loc="England" d="M1425.68,2735.07a406.39,406.39,0,0,1,34.62-38.52c13.15-12.87,28.06-25.3,46.1-28.88,18.63-3.7,37.65,2.56,56.61,3.65,28.63,1.65,56.48-8.5,83.25-18.78,9.65-3.71,19.65-7.69,26.68-15.29,10.18-11,12-27.2,12.1-42.19s-1-30.58,4.84-44.36a47,47,0,0,1,28.35-25.86l20.56-10.26a401.86,401.86,0,0,0,183.92-104.25c14.84-14.78,28.49-30.71,42.12-46.61l37.75-44c54.28-63.31,110.57-130.68,126-212.63,15.3-81.25-12.37-164.78-50.9-237.92l-.48-21.58c-13.49-118.82,66.81-234,50.8-352.56-2.59-19.2-7.81-38.27-17.61-55-19.07-32.55-54.68-53.57-91.92-59.58s-75.8,1.84-110.25,17.22c-18.45,8.24-36.19,18.8-50,33.55-6.92,7.39-12.9,16-15.5,25.77-5.61,21.12,5.11,44.36-1.88,65.07-4.94,14.61-18.18,26-20.17,41.3-3,22.71,20.12,43.76,14.54,66l-4.88,11.74c-7.61,7.83-19.42,9.53-30.32,10.15a281.38,281.38,0,0,1-38.63-.43c-8.42-.68-16.91-1.73-25.29-.66-7.43.95-14.54,3.54-21.44,6.45-10.66,4.48-21.13,9.87-29.54,17.8-12,11.32-19,27.19-22,43.4s-2.3,32.89-.78,49.31q1.39,15.23,3.73,30.34c1,6.8,2.26,13.67,5.15,19.91,5.11,11.05,14.92,19,23.17,28s15.49,20.57,13.44,32.57l-.16,20.85c.53,3.67-.08,7.47.84,11.06,1,4.06,3.93,7.34,6.46,10.67,10.31,13.55,16,30.12,26.13,43.83l5.64,6.18c3.35,2.42,6.76,4.9,9.16,8.26s3.66,7.82,2.22,11.7c-.88,2.4-2.71,4.38-3.51,6.82-1.33,4,.4,8.45.1,12.7-.38,5.21-3.78,9.7-7.56,13.31s-8.1,6.7-11.23,10.88-4.9,9.92-2.74,14.67c1.1,2.41,3.07,4.3,4.73,6.37,7.58,9.49,8.33,22.55,8.75,34.69l3.75,11c6.68,14.4,11.06,29.73,15.41,45,2.92,10.23,5.85,20.53,6.86,31.13.88,9.26.26,18.61-.59,27.88-1.8,19.57-5.15,40.2-17.86,55.2-11.56,13.63-29,20.45-44.15,29.95-36.87,23.13-62.47,64-103.64,78.09l-26,12c-21.39,8.19-37.88,25.52-52.14,43.45s-27.28,37.2-45,51.71c-7.74,6.33-16.24,11.64-24.75,16.89-5.65,3.48-11.34,7-17.5,9.41-11,4.38-23,5.34-34.75,6.62a580.94,580.94,0,0,0-89.47,16.88l-12.82,8.84c-8.29,5.83-14.44,14.2-19.65,22.9s-9.62,17.87-15.28,26.27a38.46,38.46,0,0,0-2.79,4.48c-3.24,6.59-1.89,14.95-6,21.06l5.24,4.75c11.82,1.78,23.42,5.81,33.21,12.66s17.69,16.67,21.29,28.06a71.78,71.78,0,0,1,2.85,17.11,141.28,141.28,0,0,1-.35,22.25c-1,10.38-3.12,20.71-2.77,31.13s3.59,21.32,11.48,28.13c8.21,7.07,20,8.49,30.74,7.31,10.34-1.13,21-4.69,27.75-12.56Z"></path>
    <path data-name="1a" data-official="" data-plain="Flower" data-loc="" d="M1544.51,2926.52c-17.37-9.69-35.4-20-46.43-36.54s-12.44-41.35,2.31-54.69c9.81-8.87,25-11.44,32.26-22.49,4.51-6.85,5.08-15.86,10.16-22.3s13.71-9,21.77-10.94a419.86,419.86,0,0,1,42.21-7.76c23.31-3.06,49.5-3.32,67.34,12,14,12,19.72,31.69,18.8,50.16s-7.63,36.13-14.91,53.13c-3.53,8.24-7.39,16.67-14.06,22.66-4.22,3.79-9.4,6.45-13.36,10.52-17.91,18.39-1.12,50.28-9.87,74.42-7.52,20.75-34.68,30.26-55.07,21.81s-32.73-31.11-32.71-53.18l7.45-2.6Z"></path>
    <path data-name="1b" data-official="" data-plain="Seed-vessel and Calyx" data-loc="" d="M1682.52,2923.53c1.94-9.63,3.94-19.43,8.63-28.07s12.53-16.11,22.2-17.88c5.8-1.07,11.77,0,17.67,0,19.15,0,36.38-10.81,54.42-17.24s41.51-7,52.9,8.38c4.68,6.32,6.44,14.33,7.22,22.15a108,108,0,0,1-6.06,47.73c-3.36,9.18-8,18.08-9,27.81-1,10.46,2.14,22.19-4,30.75-3.78,5.3-10.22,7.89-16.38,10a254.46,254.46,0,0,1-37.93,9.69c-7.77,1.36-15.82,2.34-23.45.38-16.64-4.28-26.63-21-33.7-36.61s-14-32.95-28.79-41.68Z"></path>
    <path data-name="1c" data-official="" data-plain="Unnamed†" data-loc="" d="M1859.27,2888.54c25.73-16.48,57.61-19.49,88.14-20.75,19.54-.81,40-.89,57.43,8.07s30.21,29.85,23.57,48.25c-4.86,13.45-18.25,21.88-25.56,34.18-4.71,8-6.71,17.24-10.9,25.48-12.66,24.92-47.06,35.87-71.79,22.84-17.46-9.19-28.21-27.06-40.61-42.42-11-13.69-24.87-28.67-22.11-46Z"></path>
    <path data-name="2" data-official="Polygala cordifolia" data-plain="Heart-leaved Polygala" data-loc="Cape of Good Hope" d="M1132.38,2412.44c53.9,62.67,78.68,149.42,66,231.11l-9.86,15-21.4,18.86a37.21,37.21,0,0,1-7.39,5.49c-8,4.08-18,1.76-25.25-3.51a27,27,0,0,1-7.31-7.69c-2-3.37-3.1-7.23-4.3-11-4.84-15.14-12.12-29.45-16.26-44.79-3.4-12.59-4.62-25.65-5.83-38.63l-8.14-87.35-7.59-16A1724,1724,0,0,0,785,2239.72c-3-1.84-6.12-3.81-7.79-6.91s-1.17-7.64,1.95-9.26l4.82-6.16A515.25,515.25,0,0,1,864.13,2182c10.49-3.61,21.19-6.92,30.83-12.42,10.63-6.07,19.6-14.61,28.45-23.06l24.7-23.57c4.24-4,8.61-8.28,10.8-13.72,2.47-6.14,1.85-13,.83-19.57a175.78,175.78,0,0,0-17.19-52.93c-7-13.62-15.71-26.31-22-40.26-6.62-14.69-10.37-30.49-14.08-46.17-3.8-16-7.61-32.14-9.68-48.5-1.28-10.08-1.88-20.41.47-30.29,5.31-22.3,24.53-38.63,33.15-59.86,4.79-11.78,5.61-26.62-3-36-8.88-9.72-23.86-9.89-37-9.33l-11.65-7.41c-5.28,2.24-11.23,2-16.94,1.63-7.1-.46-14.25-1.07-21-3.15s-13.29-5.76-17.62-11.4c-1.57-2-2.88-4.49-2.77-7.07.11-2.75,1.83-5.22,3.94-7a55.76,55.76,0,0,1,6.94-4.46,45.16,45.16,0,0,0,11.77-10.62,64.92,64.92,0,0,0,5.77-9,106.7,106.7,0,0,0,12.84-51.94l3.19-8.32c1.33-14.06,10.26-26.36,20.72-35.87s22.62-17,33.29-26.21c5.06-4.41,9.88-9.36,12.63-15.48s3.11-13.66-.48-19.33l1.39-11a26.75,26.75,0,0,0-4.48-10.4,1.54,1.54,0,0,1-.42-1.16,1.48,1.48,0,0,1,.36-.6A112.76,112.76,0,0,1,946,1510.3l3.13,4.77,16.43.84c7,.07,14.21.09,20.63-2.66a39.09,39.09,0,0,0,10.82-7.5c7.5-7,13.8-15.56,16.35-25.46l6.14-10.81c7.41-1.23,14.29-5,21.78-5.62a1.88,1.88,0,0,1,1,.12,1.93,1.93,0,0,1,.71.94l3.36,7.35-4,6.25c-4.51,7-6.63,15.17-8.69,23.21l-4.05,15.84c-2.95,11.51-5.9,23-7.75,34.78-.9,5.72-1.54,11.49-2.89,17.13-1.47,6.15-3.77,12.11-4.64,18.37-.77,5.55-.39,11.18,0,16.76l-.08,1.55c8.31,1.78,17-.4,25-3.25s15.87-6.44,24.3-7.57a43.52,43.52,0,0,1,23.32,3.37c21.18,9.45,31.74,34.17,51.89,45.66,9.9,5.65,21.84,7.91,30.26,15.59,3.38,3.09,6,6.89,8.6,10.66l13.13,19.08,11.4,7.59c-1.27,14.55,4.55,28.67,7.14,43a97.84,97.84,0,0,1,1.2,25.4c-3.32-6.42-8.89-11.35-14.33-16.12-2.3-2-4.78-4.11-7.8-4.56-1.52-.23-3.07,0-4.6-.18a4.62,4.62,0,0,1-3.81-2.2L1164.1,1749a76.25,76.25,0,0,0-17.41,27.83l-6.22,10c.82,35.81-.11,71.82-6.32,107.09s-17.86,69.93-37.28,100c-6,9.23-12.64,18-17.87,27.69a107.9,107.9,0,0,0-12.27,39.12c-2.22,19.83,3.1,43,20.72,52.35,9.23,4.9,20.12,5.1,30.51,6.2a160.78,160.78,0,0,1,45.3,11.69c5.26,2.21,10.49,4.74,16.13,5.65,4.21.69,8.52.45,12.75,1a35,35,0,0,1,20.75,10.57l3.91,8.57a29.85,29.85,0,0,1,9.29,14.22c6.6.14,11.27,6.38,17.25,9.18,3.92,1.83,8.8,2.42,11.34,5.92l-9.53,6.41c-5.43-2.39-11.68-1.52-17.55-.6-2.62.41-5.65,1.1-6.81,3.5l-22.19,20.22c-8.26.23-15.13,6.12-21.24,11.68l-16,14.63c-3.44,3.13-7.15,6.4-11.74,7.19l-11.06,17.7c-4.83,7-7.34,15.27-11.06,22.9a79.19,79.19,0,0,1-27.24,31.12l-7.09,12.3-9.61,8.94a3.12,3.12,0,0,0-1,4.38c3.18,8,6.5,16.15,12.53,22.24,3.18,3.21,7,5.73,10.07,9.07ZM823,1395.18a185.1,185.1,0,0,0,8.49,16.89c12.1,22.16,24.4,44.61,41.85,62.85l8,7.74c7.1.75,14.36,1.6,20.73,4.83,8.4,4.25,14.43,12.23,22.78,16.55a2.8,2.8,0,0,0,1.3.41,2.94,2.94,0,0,0,1.42-.55l11.12-6.8,5.75-13.49c-3.2-10.57-9.86-19.71-16.69-28.39-22.35-28.42-47.78-54.25-73.15-80a5.12,5.12,0,0,0-2.34-1.63,5.29,5.29,0,0,0-2.82.37,86.35,86.35,0,0,1-26.94,3.93ZM798.77,783.91l-.72-60.81c-.47-38.72-.92-77.6,4-116,2.62-20.59,6.88-41.32,16.58-59.66s25.46-34.24,45.29-40.4c11.5-3.57,23.78-3.75,35.53-6.43,13.19-3,25.49-9.1,37.06-16.12l11.35-1.8c17.15-7.26,31.3-21.16,49.32-25.84l18.28-9.2c41.51,2.84,84.84-.57,123.07,15.83a31.21,31.21,0,0,1,7.8,4.41c8.06,6.76,8.4,18.82,8.09,29.33l-2,10a31.92,31.92,0,0,1-5.85,28.62c-6.18,7.54-15.85,12.21-20.16,21-2.58,5.26-2.86,11.36-2.4,17.2.73,9.37,3.46,19,10,25.74l8.11,3,25.12,25a27,27,0,0,1,5.48,6.77,25.5,25.5,0,0,1,2.11,8.1c.68,5,1.17,10.1.31,15.07s-3.22,9.86-7.29,12.84L1157.14,674c-6.66-3.18-15.19-1.72-21.06-6.18a11.32,11.32,0,0,0-2.12-1.47,9.26,9.26,0,0,0-3.79-.42c-8.81,0-16.91-4.53-24.53-8.95l-5.69,4.78-13-.17c-3.86,0-7.92-.16-11.24-2.13l-11-.71-14.83,1.65a4.33,4.33,0,0,0-2,.53,3.48,3.48,0,0,0-1.23,1.74c-1.23,3.22-.32,6.94,1.48,9.88s4.43,5.28,6.92,7.67a135.49,135.49,0,0,1,13,14.34l6.12,1.81a7.57,7.57,0,0,1,6.24-5.18l3.7-7.49,7.44,1.36a8.09,8.09,0,0,1,2.51.75,7.91,7.91,0,0,1,1.93,1.68l6.59,7.09a7.51,7.51,0,0,1,1.58,2.18c.66,1.67,0,3.67.82,5.3s2.53,2.3,3.9,3.37c3.17,2.49,4.18,6.84,6.75,10a24.34,24.34,0,0,0,6,4.74l11.64,7.35,8.34,2.55c5,2.44,10.74,3.45,15.48,6.43a28.07,28.07,0,0,1,7.56,7.34,40.52,40.52,0,0,1,5,9.08l3.52,10.92a76.36,76.36,0,0,1-.28,17.62c-.57,4.31-1.72,8.92-5.1,11.66l-6.65,6.08c-10.69.46-20-6.66-28.94-12.48a145.29,145.29,0,0,0-24.77-12.9c-3.8-1.53-7.75-2.92-11.85-3a34,34,0,0,0-11,2.09,23.67,23.67,0,0,0-7.56,3.57c-4.85,3.83-6.33,10.77-5.19,16.84s4.47,11.47,7.86,16.64,7,10.36,8.66,16.29c1.43,5,1.48,10.28,1.52,15.49q.06,11.49.1,23l-1.81,7.78c-1,23.72,12.18,45.38,19.19,68.06a134,134,0,0,1,5.38,51.83c-1.39,15-6,30.79-17.86,40.07-14.16,11.09-34.37,9.7-51.75,5.08s-34.58-12-52.54-11a16.28,16.28,0,0,0-6.19,1.28c-6.23,3-7.17,11.43-6.42,18.29,3.62,33.32,25.91,61.32,48.43,86.14l9.28,4.26,29.8,25.21c4.32,3.67,8.94,7.81,9.83,13.41l1.18,5.5c-2.65,2.76-6.58,3.76-10.17,5.1-6.58,2.44-12.5,6.33-18.36,10.2a63.4,63.4,0,0,0-10.33,7.86,21.39,21.39,0,0,0-6.26,11.17c-.83,4.9.59,10.27-1.7,14.69l-6,5.64a86,86,0,0,0-43.46,11.63l-8,4.61c-3.42,1.92-5.6,5.44-7.43,8.91-12.14,23.11-14.78,50.13-13.36,76.2.29,5.23.83,10.76,3.92,15,1.38,1.9,3.46,3.53,5.82,3.49a9.16,9.16,0,0,0,3.34-.89,64.32,64.32,0,0,0,11.47-6.24l5.08-2.47a37.16,37.16,0,0,1,40.06,9.9l8.85,7a144.27,144.27,0,0,1-1,33.41,61.45,61.45,0,0,1-1.76,9.14c-.94,3.17-2.32,6.2-3.26,9.37-3.26,11-.9,23.08-3.57,34.28l1.29,7.87a54.36,54.36,0,0,0,28-6.11l7.09-11.53c5.9-12.58,8.42-26.44,10.65-40.16,2-12.15,3.78-24.39,3.62-36.7l-1.52-7.41c-.85-1.57-.09-3.62,1.22-4.84a15.46,15.46,0,0,1,4.71-2.51,84.7,84.7,0,0,0,11.74-6.43,52.32,52.32,0,0,0,9.47-6.88,37,37,0,0,0,6.21-8.43,62.06,62.06,0,0,0,2.22-55.21l-1-1.85c1-6.63,2.69-13.23,6-19a77.83,77.83,0,0,1,6.6-9.26l8.09-10.22c1.77-2.24,3.55-4.48,5.49-6.58a99.09,99.09,0,0,1,10.86-9.7,258.56,258.56,0,0,1,26.58-19.14l.72-8.43a12.92,12.92,0,0,1,1.53-7.08c1.1-2,2.78-3.84,3.13-6.12.55-3.58-2.32-6.69-5-9.18a10.32,10.32,0,0,0-3.11-2.28c-2-.82-4.3-.31-6.45,0a43.91,43.91,0,0,1-9.3.54c-2.2-.11-4.86-.76-5.44-2.89l-6.8-8.38c2.15-5.25,7.11-8.94,12.41-11s11-2.6,16.66-3.34a289.7,289.7,0,0,0,61.54-15.06c5.63-2,11.25-4.31,16.21-7.66,10.11-6.84,17.09-18,28.06-23.32l10.34-10.82a64.41,64.41,0,0,1,1.37-11.24c.35-1.62.75-3.34.2-4.91l-4.89-7c-6.25-5.64-14.79-7.89-23.06-9.47a215.07,215.07,0,0,0-34.89-3.74l-13.14-7.84a56.61,56.61,0,0,1-12.81.24c-4.24-.56-8.48-2.19-11.42-5.29a24,24,0,0,1-4.79-8.85c-4-11.5-5-23.77-5.92-35.9l-1.15-6.19c-.3-9.78-.57-19.79,2.45-29.1.6-1.85,1.33-3.66,1.84-5.54a67.54,67.54,0,0,0,1.25-6.64,92.43,92.43,0,0,1,6.1-20.92l1.73-.81a72.24,72.24,0,0,0,14.19-1.8c-.58-.3.14-1.12.77-1.28,3.38-.84,7.3-.48,9.92-2.76,1.5-1.3,2.26-3.22,3.35-4.87a13.94,13.94,0,0,1,6.62-5.26c1.64-.61,3.47-1,4.76-2.13a8.94,8.94,0,0,0,1.61-2.23c2.77-4.76,5.58-9.63,6.71-15,.84-4,.73-8.08.77-12.14s.26-8.2,1.7-12,4.28-7.26,8.15-8.51l-5.38-21.06c-.12-9.74,3.46-19.09,7-28.17l2.82-5.79a50.2,50.2,0,0,0,1.64-10.83,4.87,4.87,0,0,0-.15-1.7c-.52-1.6-2.44-2.25-4.13-2.38a15.23,15.23,0,0,0-13.4,6.3l-1.85,6.3a30.26,30.26,0,0,1-4.19,5.3c-1,1-2.23,1.82-3.29,2.78-3.76,3.41-6,8.36-10.09,11.32a27.62,27.62,0,0,1-5.6,2.86l-9.71,4.07-2.77-5.54a14.12,14.12,0,0,0-1.4-3l-2.39-5.94.81-18.76c.17-4.16.55-8.77,3.59-11.62l3.69-10.15,6.13-17c1-2.77,2-5.6,3.92-7.87,2.13-2.59,5.18-4.24,8.21-5.69,3.42-1.64,6.91-3.1,10.4-4.56l7.83-3.28a23.18,23.18,0,0,1,7.35-2.16l7.82-6.07a84.48,84.48,0,0,0,15.62-17.86,53.7,53.7,0,0,1,4.48-6.41c1.59-1.81,3.49-3.33,5.26-5a53.8,53.8,0,0,0,9.1-11.29c1.43-2.33,2.71-4.76,4.31-7a29.07,29.07,0,0,1,15.88-10.91l-.89-5.41a35.69,35.69,0,0,1,14-13.68l-17.32,0c-13.78,0-27.6-.05-41.31,1.45s-27.35,4.57-39.81,10.46l-3.85-7.24c0-10,.38-20.51,5.49-29.1,3.6-6,9.23-10.56,13.77-15.94,4.09-4.86,7.27-10.41,10.43-15.92a131.22,131.22,0,0,0,7.13-13.66c8.07-19,6.69-41.07-.63-60.34l-.65-14.19q.42-12.63,1.06-25.25l2.35-10.49c6.16-7.46,17.48-7.48,27-6.07,23.91,3.5,47.21,11.87,71.37,12,13.22,0,26.33-2.4,39.55-2.77,23.67-.66,49,5.06,70-5.83,11.77-6.08,20.51-16.68,28.09-27.55,5-7.21,9.71-14.73,12.93-22.9,6.56-16.62,6.73-35,6.58-52.84,0-5.93-.13-11.91-1.43-17.7-1.76-7.8-5.67-14.94-9.75-21.81a364.51,364.51,0,0,0-33.69-47.58l-17-34.15a355.85,355.85,0,0,1-33.36-63.08c-12-29.59-21.84-63.17-48.55-80.66-18.43-12.06-42-14-63.71-10.07s-42,13-62.23,21.73c-5.37,2.32-11.14,4.66-16.91,3.69S1213.27,97,1209,92.91c-28.24-27-54.3-58.57-90.55-73.18a116.7,116.7,0,0,0-92.8,3C1013.73,28.4,1002.5,36.52,996,48c-5.62,10-7.26,21.62-8.48,33l-5.64,18.49c-4.18,17.49-18.44,31.33-34.84,38.69s-34.78,9-52.76,9c-46.49-.08-92.79-10.9-139.14-7.28C715.3,143,675.91,156.76,636.23,152c-55.83-6.67-100.13-47.84-146.69-79.37a477.14,477.14,0,0,0-73.46-40.79c-24.17-10.76-49.52-19.56-75.85-22.08-45.09-4.32-89.82,10-131.86,26.84C197.5,41,186.44,45.69,178,53.82c-19.72,19-19.63,50.32-31.84,74.83l10.65,20.56C122.88,203.35,162,277.7,138.5,337.13c-12.1,30.65-39.36,52.8-68,69-10.47,5.92-21.63,11.55-29,21.08-7.55,9.77-10.13,22.53-10.55,34.86-1.59,46.63,26.37,92.11,67,115,8.66,4.87,18.07,8.87,28,9.47,27.65,1.67,49.11-22,70-40.2,19.34-16.76,43.57-30.61,69.08-28.52,33.32,2.72,59.17,32.43,69.21,64.32,4,12.56,6.19,26,13.22,37.1,9.75,15.43,27,24,42.17,34.21,22.73,15.27,42.94,37.17,47.69,64.13C441,737.91,436,761,448,777.72l1.07,13.16c1.48,6.46-2.2,12.92-6.21,18.19a108.28,108.28,0,0,1-38.06,31.43c-10.9,5.39-23.12,9.22-31.31,18.2l-14.66,9.89a23,23,0,0,0-5.74,14.85c0,2.79.45,5.64-.34,8.32-1.26,4.32-5.41,7-9.1,9.59A100.62,100.62,0,0,0,330,912.88l0,9.82c27.52,3.65,53.3-13.73,80.82-17.35a45.8,45.8,0,0,1,13.83,0,78.32,78.32,0,0,1,11.2,3.25c8.11,2.68,16.43,4.71,24.56,7.33,33.54,10.82,62.91,31.42,91.71,51.73l6.69,18.42c26.86,24.11,39.85,59.71,50.88,94.07,5.26,16.4,10.36,33.27,9.62,50.47-.92,21.25-10.71,41.18-22.75,58.7s-26.49,33.3-38.5,50.85A225.46,225.46,0,0,0,533.93,1286c-3.63,9.39-6.66,19.19-6.74,29.26-.17,20.37,13,40.22,31.89,47.94a27.16,27.16,0,0,0,11.36,2.38c7.91-.35,14.58-5.61,21.18-10a111,111,0,0,1,34.8-15.15c5.75-1.39,11.72-2.36,16.92-5.18,4.77-2.58,8.66-6.59,13.48-9.08,13.25-6.85,30.4-.89,43.66-7.73,13.64-7,20.13-26.14,35.35-28.19,7.95-1.07,15.84,3.17,23.82,2.42l16.67-.75a195.71,195.71,0,0,0,17.52-18.56l1.22-11.71c-1.66-6.77-3.1-14.66,1.25-20.1a19.57,19.57,0,0,1,5-4.14c17-10.63,38-12.56,56.34-20.8a88.18,88.18,0,0,0,22.82-14.89c9.84-8.88,17.8-20.44,20-33.52,1-5.85.76-11.9,2.25-17.64,2.52-9.73,9.68-17.83,11.8-27.66a52.24,52.24,0,0,0-24.12-20.6l-8.21-20.13c-17.49-24.71-27.64-54.06-32.83-83.89s-5.62-60.27-5.05-90.54L853,890.1a16.72,16.72,0,0,1,1-11.6,3.36,3.36,0,0,0,.53-2.15l-.37-4.55a131.31,131.31,0,0,1-11.21-10.4c-13.09-13.63-23.14-30-36.74-43.13Z"></path>
    <path data-name="2a" data-official="" data-plain="Calyx" data-loc="" d="M256.22,2822.7c3.67-37.33,11.61-77.5,39.63-102.44,14.35-12.76,32.64-20.19,51.07-25.59a297.49,297.49,0,0,1,81.4-12c22.16-.16,45.11,2.42,64.22,13.63,22.39,13.13,37,36.9,44,61.9s7.1,51.35,6.09,77.29c-.72,18.74-2,37.62-7.08,55.68-5,17.8-13.42,34.4-21.83,50.85-5.18,10.15-10.52,20.51-18.79,28.36-8.11,7.7-18.5,12.46-28.68,17.09-30.69,14-63.95,28.25-97,21.71-22.49-4.45-42.18-18.26-58.08-34.78a186,186,0,0,1-50.92-113.38Z"></path>
    <path data-name="2b" data-official="" data-plain="Crested Petal" data-loc="" d="M579.62,2860.89c11.36,5.91,25.51-1.1,33.91-10.76s13.6-21.87,22.52-31.06c14.63-15.06,37.88-20.61,49.75-37.93,3.76-5.47,6.15-11.87,10.45-16.93,6.53-7.67,16.54-11.26,26.11-14.42,26.09-8.59,55.88-16,79.95-2.75,19,10.46,29.84,32.05,32.56,53.57s-1.51,43.27-6.16,64.46c-6,27.26-13,55.1-29.23,77.84-16,22.45-40,38.33-65.71,48.22s-53.26,14.18-80.69,16.85c-14.12,1.38-28.49,2.33-42.41-.4a81.14,81.14,0,0,1-50.95-126Z"></path>
    <path data-name="2c" data-official="" data-plain="Stamens and Petals" data-loc="" d="M826.64,2942.15a180.81,180.81,0,0,0,22.18-131.56c-3.14-14.34-7.68-30.68.85-42.62,6.24-8.75,17.56-12,28.07-14.23a419.28,419.28,0,0,1,98.1-9.1c12.15.31,24.91,1.34,35.08,8,4.76,3.11,8.82,7.38,14.06,9.58,12.13,5.08,28.06-1.87,38.23,6.47,8.47,6.94,7.38,19.84,9.46,30.59,2.65,13.68,11.32,25.29,19.75,36.38s17.1,22.7,19.75,36.37-2.75,30-15.66,35.21c-10.85,4.39-25.25.7-33.16,9.33-4.54,4.95-5.07,12.23-7,18.66-4,13.25-14.86,23.64-27.19,29.95s-26.17,9-39.88,11c-28,4.13-56.32,5.69-84.59,7.18-11.44.61-23.09,1.18-34.18-1.71s-21.7-9.87-26.1-20.45Z"></path>
    <path data-name="2d" data-official="" data-plain="Pistil" data-loc="" d="M1116.28,2937.12c2.84-20.17,17.72-38.16,37-44.73,4.2-1.43,8.91-2.59,11.49-6.2,5.91-8.29-4.5-18.23-7.81-27.87-5.63-16.38,10.44-31.63,25-41,17.46-11.21,36.36-21.73,57.07-23.07s43.53,9.09,50.3,28.71c4,11.59,2.06,24.75,7,36,3.25,7.4,9.19,13.26,13.33,20.19a46.79,46.79,0,0,1-32,70.11c-13.89,2.46-28.09-1.44-42.2-1.22-21.46.33-41.47,10-61.85,16.77s-44,10.16-62.31-1.09a20.92,20.92,0,0,1,16.8-10.66Z"></path>
    <path data-name="3" data-official="Polygala chamæbuxus" data-plain="Box-leaved Polygala" data-loc="Switzerland" d="M1772.67,2177c-1-10.6-3.94-20.9-6.86-31.13-4.35-15.26-8.73-30.59-15.41-45l-3.75-11c-.42-12.14-1.17-25.2-8.75-34.69-1.66-2.07-3.63-4-4.73-6.37-2.16-4.75-.39-10.49,2.74-14.67s7.45-7.28,11.23-10.88,7.18-8.1,7.56-13.31c.3-4.25-1.43-8.65-.1-12.7.8-2.44,2.63-4.42,3.51-6.82,1.44-3.88.18-8.33-2.22-11.7s-5.81-5.84-9.16-8.26l-5.64-6.18c-10.1-13.71-15.82-30.28-26.13-43.83-2.53-3.33-5.41-6.61-6.46-10.67-.92-3.59-.31-7.39-.84-11.06l.16-20.85c2-12-5.19-23.62-13.44-32.57s-18.06-16.94-23.17-28c-2.89-6.24-4.11-13.11-5.15-19.91q-2.32-15.11-3.73-30.34c-1.52-16.42-2.23-33.09.78-49.31l-7.26-6.39c-38.79-11.61-80.56-10.19-120.18-1.87a134.72,134.72,0,0,0-20.81,5.75c-22,8.46-39.37,25.69-56,42.45l-1.78,5.63c-2,2.83-2.33,6.5-2.48,10-.23,5.22-.24,10.45-.06,15.67a9,9,0,0,0-4.25,5.25,26.68,26.68,0,0,0-1.14,6.83c-7.63-6.18-15.9-12.63-25.69-13.41a153.56,153.56,0,0,0,3,17.56,16.44,16.44,0,0,0,1.23,4.08c1.3,2.58,3.85,4.25,6.25,5.87a180,180,0,0,1,26.28,21.57l-3.08,8a12.66,12.66,0,0,1-4-3.07c-6.54-6.64-13.32-13.25-21.5-17.71-5.53-3-11.57-5-17.57-6.86-3.07-1-6.25-1.95-9.46-1.65l-5.82-4.12a111.39,111.39,0,0,0-43.68,7,52.31,52.31,0,0,0-11.48,5.7,22.23,22.23,0,0,1-4.15,2.57,4.76,4.76,0,0,1-2.26.4c-1.75-.2-3-1.75-4.06-3.17l-9.26-4.31-7.05,6.35a33.69,33.69,0,0,0-8.43-14c-2.17,1.41-3.3,3.93-4.31,6.31-2,4.78-4.09,9.62-5,14.74-.77,4.35-.69,8.81-1.46,13.16s-2.6,8.78-6.22,11.32l-13.33,2.75c-4.85,3.46-10,7-15.92,7.64-2.22.24-4.47,0-6.67.36a19.19,19.19,0,0,0-10.08,5.33,56.74,56.74,0,0,0-7.23,9l-14.56-2.28a153.05,153.05,0,0,1-25.05-1,12.07,12.07,0,0,1-4.28-1.09c-.93-.5-1.72-1.23-2.64-1.75-2.61-1.51-5.86-1.25-8.76-2.09a15.67,15.67,0,0,1-8.12-6.24,46.65,46.65,0,0,1-4.72-9.29L1134.15,1894c-6.21,35.28-17.86,69.93-37.28,100-6,9.23-12.64,18-17.87,27.69a107.9,107.9,0,0,0-12.27,39.12c-2.22,19.83,3.1,43,20.72,52.35,9.23,4.9,20.12,5.1,30.51,6.2a160.78,160.78,0,0,1,45.3,11.69c5.26,2.21,10.49,4.74,16.13,5.65,4.21.69,8.52.45,12.75,1a35,35,0,0,1,20.75,10.57l3.91,8.57a29.85,29.85,0,0,1,9.29,14.22c6.6.14,11.27,6.38,17.25,9.18,3.92,1.83,8.8,2.42,11.34,5.92l-9.53,6.41c-5.43-2.39-11.68-1.52-17.55-.6-2.62.41-5.64,1.1-6.81,3.5l-22.19,20.22c-8.26.23-15.13,6.12-21.24,11.68l-16,14.63c-3.44,3.13-7.15,6.4-11.74,7.19l-11.06,17.7c-4.83,7-7.34,15.27-11.06,22.9a79.19,79.19,0,0,1-27.24,31.12l-7.09,12.3-9.61,8.94a3.12,3.12,0,0,0-1,4.38c3.18,8,6.5,16.15,12.53,22.24,3.18,3.21,7,5.73,10.07,9.07l27.26,34.62c53.9,62.67,78.68,149.42,66,231.11l-2.06,11.25c-1.64,7-7.92,11.79-14,15.7a230.26,230.26,0,0,1-78.38,32.15c-5.32,1.1-10.77,2-15.66,4.42a28.49,28.49,0,0,0-6.58,46.76c4.35,3.93,9.82,6.44,14.28,10.24,3.86,3.3,7,7.56,11.45,10s9.45,2.63,14.36,2.54c14-.28,29.33-4.36,37.05-16,6.87-10.39,6.48-25,15.35-33.73,4.79-4.72,11.46-6.85,17.58-9.63,19-8.64,33.83-24.56,44.68-42.33s18.07-37.47,25.21-57l-1.38-9.16c4.09-6.11,2.74-14.47,6-21.06a38.46,38.46,0,0,1,2.79-4.48c5.66-8.4,10.08-17.58,15.28-26.27s11.36-17.07,19.65-22.9l12.82-8.84,8.72-20.93a317.36,317.36,0,0,0,65-108.7c7.89-22.49,13.83-46.92,30.55-63.91l4.16-8.69a54.88,54.88,0,0,0,7-16.27L1435,2296c-1.67-5.62,2.16-11.28,5.93-15.77a234.84,234.84,0,0,1,23.63-24.31c2.15-1.91,4.87-3.91,7.63-3.13a7.13,7.13,0,0,1,3.32,2.43c4.1,4.89,5.15,11.58,5.91,17.91q1.68,13.93,2.5,28c.85,14.39,1.06,29.11,6,42.67,4.15,11.48,11.5,21.58,20,30.31s18.22,16.2,27.89,23.64l42.64-17.53,26-12c41.17-14.12,66.77-55,103.64-78.09,15.14-9.5,32.59-16.32,44.15-29.95,12.71-15,16.06-35.63,17.86-55.2C1772.94,2195.62,1773.55,2186.27,1772.67,2177Zm-379.21-192.78a134.32,134.32,0,0,0,17.35-1.48,8.72,8.72,0,0,0-3,1.51c4.38.15,7.9,3.63,12.11,4.83a23.86,23.86,0,0,0,6.37.63l14.76.13,4.13,7.19a36.06,36.06,0,0,1-18.59-.26c-1.89-.54-3.73-1.23-5.62-1.79-9.6-2.86-19.85-2.19-29.81-1.12Zm9,130.42-6.63-6.33a102.69,102.69,0,0,1-7.31-42.23,24,24,0,0,1,1.13-7.25,20.34,20.34,0,0,1,4.85-7.1c4.7-4.8,10.57-8.42,14.85-13.61,2.19-2.66,3.91-5.68,6.07-8.37,4.19-5.21,9.88-9,15.48-12.65l0-.13.09.08-.07,0c4.53,26.66,9,53.55,8.19,80.59l.1,1.8A74.92,74.92,0,0,0,1402.48,2114.65Zm63.42,123.63c-7.54,5.9-15.15,11.87-21.26,19.24a50.65,50.65,0,0,1-4.79,5.44,36.89,36.89,0,0,1-4.14,3.1l-6,4.07c-1,.7-2.48,1.39-3.43.58a2.82,2.82,0,0,1-.75-1.92,76.14,76.14,0,0,1,.55-22.15l.86-14.84a8.75,8.75,0,0,0,8.38.35,11.66,11.66,0,0,1,2.45-1.16c1.24-.29,2.57.12,3.79-.24a20.18,20.18,0,0,0,2.1-1,20.58,20.58,0,0,1,3.5-.76c3.94-.92,7.43-4.77,11.31-3.62,2.84.85,4.24,4,5,6.9.34,1.4,1.14,3.2,2.56,2.95Z"></path>
    <path data-name="4" data-official="Securidaca tomentosa" data-plain="Woolly-leaved Securidaca" data-loc="Meadows, Brazil" d="M1410.81,1982.75a8.72,8.72,0,0,0-3,1.51c4.38.15,7.9,3.63,12.11,4.83a23.86,23.86,0,0,0,6.37.63l14.76.13,4.13,7.19a36.06,36.06,0,0,1-18.59-.26c-1.89-.54-3.73-1.23-5.62-1.79-9.6-2.86-19.85-2.19-29.81-1.12l2.35-9.64A134.32,134.32,0,0,0,1410.81,1982.75Zm28.4,116.75-.1-1.8c.81-27-3.66-53.93-8.19-80.59-5.6,3.67-11.29,7.44-15.48,12.65-2.16,2.69-3.88,5.71-6.07,8.37-4.28,5.19-10.15,8.81-14.85,13.61a20.34,20.34,0,0,0-4.85,7.1,24,24,0,0,0-1.13,7.25,102.69,102.69,0,0,0,7.31,42.23l6.63,6.33A74.92,74.92,0,0,1,1439.21,2099.5ZM1430.9,2017l0,.13.07,0Zm6.88,214a11.66,11.66,0,0,0-2.45,1.16,8.75,8.75,0,0,1-8.38-.35l-.86,14.84a76.14,76.14,0,0,0-.55,22.15,2.82,2.82,0,0,0,.75,1.92c1,.81,2.39.12,3.43-.58l6-4.07a36.89,36.89,0,0,0,4.14-3.1,50.65,50.65,0,0,0,4.79-5.44c6.11-7.37,13.72-13.34,21.26-19.24l.09-3.06c-1.42.25-2.22-1.55-2.56-2.95-.71-2.88-2.11-6.05-5-6.9-3.88-1.15-7.37,2.7-11.31,3.62a20.58,20.58,0,0,0-3.5.76,20.18,20.18,0,0,1-2.1,1C1440.35,2231.11,1439,2230.7,1437.78,2231Zm77,154.74-4.9-11.7c-8.52-8.73-15.87-18.83-20-30.31-4.9-13.56-5.11-28.28-6-42.67q-.81-14-2.5-28c-.76-6.33-1.81-13-5.91-17.91a7.13,7.13,0,0,0-3.32-2.43c-2.76-.78-5.48,1.22-7.63,3.13A234.84,234.84,0,0,0,1441,2280.2c-3.77,4.49-7.6,10.15-5.93,15.77l-2.72,10.63a54.88,54.88,0,0,1-7,16.27l-4.16,8.69,2.8,4.18c4.64,8.54,5.69,18.54,6.12,28.25a267.74,267.74,0,0,1-.37,30.38c-.32,4.65-.79,9.38-2.65,13.66-2.94,6.73-9.08,11.61-15.71,14.78-3.49,1.66-7.31,3-9.81,6-4.33,5.09-3.09,12.71-1.6,19.24a10.46,10.46,0,0,0,1.73,4.39c2.42,3,7,2.43,10.85,2.83,7.42.78,13.77,6.28,17.16,12.93s4.21,14.33,4.16,21.79c0,1.54.11,3.39,1.46,4.13l5.77,7.5c6.16-2.45,11.85-5.93,17.5-9.41,8.51-5.25,17-10.56,24.75-16.89,17.72-14.51,30.74-33.79,45-51.71l-1.4-6.54C1526.8,2405.72,1520.72,2395.41,1514.83,2385.73Zm547.82-1173c-3.79,14.21-10.59,27.41-17.64,40.32-14.74,26.94-31,53.29-51.33,76.26s-45.18,42.55-73.8,53.71l-11.67,14.61c-18.45,8.24-36.19,18.8-50,33.55-6.92,7.39-12.9,16-15.5,25.77-5.61,21.12,5.11,44.36-1.88,65.07-4.94,14.61-18.18,26-20.17,41.3-3,22.71,20.12,43.76,14.54,66l-4.88,11.74c-7.61,7.83-19.42,9.53-30.32,10.15a281.38,281.38,0,0,1-38.63-.43c-8.42-.68-16.91-1.73-25.29-.66-7.43.95-14.54,3.54-21.44,6.45-10.66,4.48-21.13,9.87-29.54,17.8-12,11.32-19,27.19-22,43.4l-7.26-6.39c-38.79-11.61-80.56-10.19-120.18-1.87a134.72,134.72,0,0,0-20.81,5.75c-22,8.46-39.37,25.69-56,42.45l-1.78,5.63c-2,2.83-2.33,6.5-2.48,10-.23,5.22-.24,10.45-.06,15.67a9,9,0,0,0-4.25,5.25,26.68,26.68,0,0,0-1.14,6.83c-7.63-6.18-15.9-12.63-25.69-13.41a153.56,153.56,0,0,0,3,17.56,16.44,16.44,0,0,0,1.23,4.08c1.3,2.58,3.85,4.25,6.25,5.87a180,180,0,0,1,26.28,21.57l-3.08,8a12.66,12.66,0,0,1-4-3.07c-6.54-6.64-13.32-13.25-21.5-17.71-5.53-3-11.57-5-17.57-6.86-3.07-1-6.25-1.95-9.46-1.65l-5.82-4.12a111.39,111.39,0,0,0-43.68,7,52.31,52.31,0,0,0-11.48,5.7,22.23,22.23,0,0,1-4.15,2.57,4.76,4.76,0,0,1-2.26.4c-1.75-.2-3-1.75-4.06-3.17l-9.26-4.31-7.05,6.35a33.69,33.69,0,0,0-8.43-14c-2.17,1.41-3.3,3.93-4.31,6.31-2,4.78-4.09,9.62-5,14.74-.77,4.35-.69,8.81-1.46,13.16s-2.6,8.78-6.22,11.32l-13.33,2.75c-4.85,3.46-10,7-15.92,7.64-2.22.24-4.47,0-6.67.36a19.19,19.19,0,0,0-10.08,5.33,56.74,56.74,0,0,0-7.23,9l-14.56-2.28a153.05,153.05,0,0,1-25.05-1,12.07,12.07,0,0,1-4.28-1.09c-.93-.5-1.72-1.23-2.64-1.75-2.61-1.51-5.86-1.25-8.76-2.09a15.67,15.67,0,0,1-8.12-6.24,46.65,46.65,0,0,1-4.72-9.29L1134.15,1894c6.21-35.27,7.14-71.28,6.32-107.09l6.22-10A76.25,76.25,0,0,1,1164.1,1749l15.78-6.36a4.62,4.62,0,0,0,3.81,2.2c1.53.16,3.08-.05,4.6.18,3,.45,5.5,2.55,7.8,4.56,5.44,4.77,11,9.7,14.33,16.12a97.84,97.84,0,0,0-1.2-25.4c-2.59-14.38-8.41-28.5-7.14-43l-11.4-7.59-13.13-19.08c-2.6-3.77-5.22-7.57-8.6-10.66-8.42-7.68-20.36-9.94-30.26-15.59-20.15-11.49-30.71-36.21-51.89-45.66a43.52,43.52,0,0,0-23.32-3.37c-8.43,1.13-16.29,4.71-24.3,7.57s-16.65,5-25,3.25l.08-1.55c-.38-5.58-.76-11.21,0-16.76.87-6.26,3.17-12.22,4.64-18.37,1.35-5.64,2-11.41,2.89-17.13,1.85-11.74,4.8-23.27,7.75-34.78l4.05-15.84c2.06-8,4.18-16.24,8.69-23.21l4-6.25-3.36-7.35a1.93,1.93,0,0,0-.71-.94,1.88,1.88,0,0,0-1-.12c-7.49.58-14.37,4.39-21.78,5.62l-6.14,10.81c-2.55,9.9-8.85,18.51-16.35,25.46a39.09,39.09,0,0,1-10.82,7.5c-6.42,2.75-13.64,2.73-20.63,2.66l-16.43-.84q-1.58-2.38-3.13-4.77a112.76,112.76,0,0,0-18.07,17.14,1.48,1.48,0,0,0-.36.6,1.54,1.54,0,0,0,.42,1.16,26.75,26.75,0,0,1,4.48,10.4l-1.39,11c3.59,5.67,3.22,13.2.48,19.33S924,1581,918.89,1585.44c-10.67,9.26-22.84,16.71-33.29,26.21s-19.39,21.81-20.72,35.87l-3.19,8.32a106.7,106.7,0,0,1-12.84,51.94,64.92,64.92,0,0,1-5.77,9,45.16,45.16,0,0,1-11.77,10.62,55.76,55.76,0,0,0-6.94,4.46c-2.11,1.78-3.83,4.25-3.94,7L796.62,1759c-50,20-102.69,40.38-156.11,33.66a94.4,94.4,0,0,1-25-6.2c-19.94-8.4-35.49-26.25-56.54-31.23-6.69-1.58-13.63-1.76-20.43-2.82a80.6,80.6,0,0,1-57.27-40.19l-8.67-4.35c-6.73-8.93-11.46-19.17-16.15-29.33q-8-17.29-15.94-34.58c-5.62-12.18-10.67-28.12-1.22-37.62,8-8,22.05-6.24,30.88-13.36,10.82-8.73,8.72-25.84,15.33-38.07,9.53-17.64,33.31-20.25,53.36-20.69l56.63-1.26c12.81-.29,25.71-.58,38.28-3.07,11.73-2.33,23-6.54,34.18-10.75,22.1-8.31,44.43-16.83,63.76-30.38,14.19-9.94,27.29-24,28.67-41.31.89-11.09-3.17-21.89-6.48-32.51-12.57-40.31-13.54-88.26,13.57-120.63l8.83-2.37a195.71,195.71,0,0,0,17.52-18.56l1.22-11.71c-1.66-6.77-3.1-14.66,1.25-20.1a19.57,19.57,0,0,1,5-4.14c17-10.63,38-12.56,56.34-20.8a88.18,88.18,0,0,0,22.82-14.89c9.84-8.88,17.8-20.44,20-33.52,1-5.85.76-11.9,2.25-17.64,2.52-9.73,9.68-17.83,11.8-27.66a52.24,52.24,0,0,0-24.12-20.6l-8.21-20.13c-17.49-24.71-27.64-54.06-32.83-83.89s-5.62-60.27-5.05-90.54L853,890.1a16.72,16.72,0,0,1,1-11.6,3.36,3.36,0,0,0,.53-2.15l-.37-4.55a131.31,131.31,0,0,1-11.21-10.4c-13.09-13.63-23.14-30-36.74-43.13l-7.43-34.36-.72-60.81c-.47-38.72-.92-77.6,4-116,2.62-20.59,6.88-41.32,16.58-59.66s25.46-34.24,45.29-40.4c11.5-3.57,23.78-3.75,35.53-6.43,13.19-3,25.49-9.1,37.06-16.12l11.35-1.8c17.15-7.26,31.3-21.16,49.32-25.84l18.28-9.2c41.51,2.84,84.84-.57,123.07,15.83a31.21,31.21,0,0,1,7.8,4.41c8.06,6.76,8.4,18.82,8.09,29.33l-2,10a31.92,31.92,0,0,1-5.85,28.62c-6.18,7.54-15.85,12.21-20.16,21-2.58,5.26-2.86,11.36-2.4,17.2.73,9.37,3.46,19,10,25.74l8.11,3,25.12,25a27,27,0,0,1,5.48,6.77,25.5,25.5,0,0,1,2.11,8.1c.68,5,1.17,10.1.31,15.07s-3.22,9.86-7.29,12.84L1157.14,674c-6.66-3.18-15.19-1.72-21.06-6.18a11.32,11.32,0,0,0-2.12-1.47,9.26,9.26,0,0,0-3.79-.42c-8.81,0-16.91-4.53-24.53-8.95l-5.69,4.78-13-.17c-3.86,0-7.92-.16-11.24-2.13l-11-.71-14.83,1.65a4.33,4.33,0,0,0-2,.53,3.48,3.48,0,0,0-1.23,1.74c-1.23,3.22-.32,6.94,1.48,9.88s4.43,5.28,6.92,7.67a135.49,135.49,0,0,1,13,14.34l6.12,1.81a7.57,7.57,0,0,1,6.24-5.18l3.7-7.49,7.44,1.36a8.09,8.09,0,0,1,2.51.75,7.91,7.91,0,0,1,1.93,1.68l6.59,7.09a7.51,7.51,0,0,1,1.58,2.18c.66,1.67,0,3.67.82,5.3s2.53,2.3,3.9,3.37c3.17,2.49,4.18,6.84,6.75,10a24.34,24.34,0,0,0,6,4.74l11.64,7.35,8.34,2.55c5,2.44,10.74,3.45,15.48,6.43a28.07,28.07,0,0,1,7.56,7.34,40.52,40.52,0,0,1,5,9.08l3.52,10.92a76.36,76.36,0,0,1-.28,17.62c-.57,4.31-1.72,8.92-5.1,11.66l-6.65,6.08c-10.69.46-20-6.66-28.94-12.48a145.29,145.29,0,0,0-24.77-12.9c-3.8-1.53-7.75-2.92-11.85-3a34,34,0,0,0-11,2.09,23.67,23.67,0,0,0-7.56,3.57c-4.84,3.83-6.33,10.77-5.19,16.84s4.47,11.47,7.86,16.64,7,10.36,8.66,16.29c1.43,5,1.48,10.28,1.52,15.49q.06,11.49.1,23l-1.81,7.78c-1,23.72,12.18,45.38,19.19,68.06a134,134,0,0,1,5.38,51.83c-1.39,15-6,30.79-17.86,40.07-14.15,11.09-34.37,9.7-51.75,5.08s-34.58-12-52.54-11a16.28,16.28,0,0,0-6.19,1.28c-6.23,3-7.17,11.43-6.42,18.29,3.62,33.32,25.91,61.32,48.43,86.14l9.28,4.26,29.8,25.21c4.32,3.67,8.94,7.81,9.83,13.41l1.18,5.5c-2.65,2.76-6.58,3.76-10.17,5.1-6.58,2.44-12.5,6.33-18.36,10.2a63.4,63.4,0,0,0-10.33,7.86,21.39,21.39,0,0,0-6.26,11.17c-.83,4.9.59,10.27-1.7,14.69l-6,5.64a86,86,0,0,0-43.46,11.63l-8,4.61c-3.42,1.92-5.6,5.44-7.43,8.91-12.14,23.11-14.78,50.13-13.36,76.2.29,5.23.83,10.76,3.92,15,1.38,1.9,3.46,3.53,5.82,3.49a9.16,9.16,0,0,0,3.34-.89,64.32,64.32,0,0,0,11.47-6.24l5.08-2.47a37.16,37.16,0,0,1,40.06,9.9l8.85,7a144.27,144.27,0,0,1-1,33.41,61.45,61.45,0,0,1-1.76,9.14c-.94,3.17-2.32,6.2-3.26,9.37-3.26,11-.9,23.08-3.57,34.28l1.29,7.87a54.36,54.36,0,0,0,28-6.11l7.09-11.53c5.9-12.58,8.42-26.44,10.65-40.16,2-12.15,3.78-24.39,3.62-36.7l-1.52-7.41c-.85-1.57-.09-3.62,1.22-4.84a15.46,15.46,0,0,1,4.71-2.51,84.7,84.7,0,0,0,11.74-6.43,52.32,52.32,0,0,0,9.47-6.88,37,37,0,0,0,6.21-8.43,62.06,62.06,0,0,0,2.22-55.21l-1-1.85c1-6.63,2.69-13.23,6-19a77.83,77.83,0,0,1,6.6-9.26l8.09-10.22c1.77-2.24,3.55-4.48,5.49-6.58a99.09,99.09,0,0,1,10.86-9.7,258.56,258.56,0,0,1,26.58-19.14l.72-8.43a12.92,12.92,0,0,1,1.53-7.08c1.1-2,2.78-3.84,3.13-6.12.55-3.58-2.32-6.69-5-9.18a10.32,10.32,0,0,0-3.11-2.28c-2-.82-4.3-.31-6.45,0a43.91,43.91,0,0,1-9.3.54c-2.2-.11-4.86-.76-5.44-2.89l-6.8-8.38c2.15-5.25,7.11-8.94,12.41-11s11-2.6,16.66-3.34a289.7,289.7,0,0,0,61.54-15.06c5.63-2,11.25-4.31,16.21-7.66,10.11-6.84,17.09-18,28.06-23.32l10.34-10.82a64.41,64.41,0,0,1,1.37-11.24c.35-1.62.75-3.34.2-4.91l-4.89-7c-6.25-5.64-14.79-7.89-23.06-9.47a215.07,215.07,0,0,0-34.89-3.74l-13.14-7.84a56.61,56.61,0,0,1-12.81.24c-4.24-.56-8.48-2.19-11.42-5.29a24,24,0,0,1-4.79-8.85c-4-11.5-5-23.77-5.92-35.9l-1.15-6.19c-.3-9.78-.57-19.79,2.45-29.1.6-1.85,1.33-3.66,1.84-5.54a67.54,67.54,0,0,0,1.25-6.64,92.43,92.43,0,0,1,6.1-20.92l1.73-.81a72.24,72.24,0,0,0,14.19-1.8c-.58-.3.14-1.12.77-1.28,3.38-.84,7.3-.48,9.92-2.76,1.5-1.3,2.26-3.22,3.35-4.87a13.94,13.94,0,0,1,6.62-5.26c1.64-.61,3.47-1,4.76-2.13a8.94,8.94,0,0,0,1.61-2.23c2.77-4.76,5.58-9.63,6.71-15,.84-4,.73-8.08.77-12.14s.26-8.2,1.7-12,4.28-7.26,8.15-8.51l-5.38-21.06c-.12-9.74,3.46-19.09,7-28.17l2.82-5.79a50.2,50.2,0,0,0,1.64-10.83,4.87,4.87,0,0,0-.15-1.7c-.52-1.6-2.44-2.25-4.13-2.38a15.23,15.23,0,0,0-13.4,6.3l-1.85,6.3a30.26,30.26,0,0,1-4.19,5.3c-1,1-2.23,1.82-3.29,2.78-3.76,3.41-6,8.36-10.09,11.32a27.62,27.62,0,0,1-5.6,2.86l-9.71,4.07-2.77-5.54a14.12,14.12,0,0,0-1.4-3l-2.39-5.94.81-18.76c.17-4.16.55-8.77,3.59-11.62l3.69-10.15,6.13-17c1-2.77,2-5.6,3.92-7.87,2.13-2.59,5.18-4.24,8.21-5.69,3.42-1.64,6.91-3.1,10.4-4.56l7.83-3.28a23.18,23.18,0,0,1,7.35-2.16l7.82-6.07a84.48,84.48,0,0,0,15.62-17.86,53.7,53.7,0,0,1,4.48-6.41c1.59-1.81,3.49-3.33,5.26-5a53.8,53.8,0,0,0,9.1-11.29c1.43-2.33,2.71-4.76,4.31-7a29.07,29.07,0,0,1,15.88-10.91l-.89-5.41a35.69,35.69,0,0,1,14-13.68l-17.32,0c-13.78,0-27.6-.05-41.31,1.45s-27.35,4.57-39.81,10.46l-3.85-7.24c0-10,.38-20.51,5.49-29.1,3.6-6,9.23-10.56,13.77-15.94,4.09-4.86,7.27-10.41,10.43-15.92a131.22,131.22,0,0,0,7.13-13.66c8.07-19,6.69-41.07-.63-60.34l-.65-14.19q.42-12.63,1.06-25.25l2.35-10.49c6.16-7.46,17.48-7.48,27-6.07,23.91,3.5,47.21,11.87,71.37,12,13.22,0,26.33-2.4,39.55-2.77l31.08,5.67c24.14,3.73,48.3-4.69,72.54-7.69l14-5.17c18.28-5.78,37.35,3.87,55.57,9.83,74.68,24.42,159.27-13.18,233.72,11.94,34.39,11.61,63.63,36.12,84.28,66S1917.26,606.32,1924,642c.67,3.52,1.36,7.21,3.64,10,3.55,4.27,9.71,5,15.21,5.76a108.22,108.22,0,0,1,48.26,19.8l42.59,45.8c5.22,13.65,14.75,25.32,19.93,39,5.1,13.45,5.74,28.11,6.31,42.48q1.7,42.25,3.38,84.51c1.24,31,2.4,62.58-6.58,92.22-4.07,13.45-10.15,26.19-16.2,38.86l-13.2,16.26c-3.22,21-14.28,41.41-10.28,62.23,5.32,27.61,34.78,44.26,44.76,70.54C2067,1183.13,2066.44,1198.56,2062.65,1212.77ZM944.43,1483.61c-3.2-10.57-9.86-19.71-16.69-28.39-22.35-28.42-47.78-54.25-73.15-80a5.12,5.12,0,0,0-2.34-1.63,5.29,5.29,0,0,0-2.82.37,86.35,86.35,0,0,1-26.94,3.93l.54,17.3a185.1,185.1,0,0,0,8.49,16.89c12.1,22.16,24.4,44.61,41.85,62.85l8,7.74c7.1.75,14.36,1.6,20.73,4.83,8.4,4.25,14.43,12.23,22.78,16.55a2.8,2.8,0,0,0,1.3.41,2.94,2.94,0,0,0,1.42-.55l11.12-6.8Z"></path>
    <path data-name="4a" data-official="" data-plain="Seed-vessel of S. erecta" data-loc="" d="M2028.24,2948.53c20.89,3.06,38.66-18.88,39.28-40s-10.59-40.55-21.74-58.48c-27.36-44-57.83-88.06-101.43-116.08-14.92-9.59-31.08-17.08-46.75-25.41-19.46-10.33-38.21-22-56.94-33.57l-99.35-61.63c-15.67-9.72-31.38-19.47-45.86-30.88-2.68-2.11-5.51-4.61-5.93-8-.46-3.59,2-6.85,4.32-9.59,41.83-48.45,109.47-67.36,173.48-67.54,18,0,36.15,1.21,53.45,6.19,25.59,7.36,48.2,22.54,69.24,38.88,52.24,40.57,98.25,90.52,127.42,149.88S2158,2821,2141.8,2885.15c-2.54,10.08-5.69,21-1.37,30.51,5.65,12.35,22,17.25,27.07,29.86,3.91,9.71-.52,21.22-8.1,28.44s-17.72,11-27.68,14.27a437.72,437.72,0,0,1-81.7,18.27c-14.51,1.8-32.6,1.09-39.32-11.9-5-9.6-.92-21.19,3.15-31.2Z"></path>
    <path data-name="5" data-official="Muraltia mixta" data-plain="Heath-leaved Muraltia" data-loc="Cape of Good Hope" d="M785,2239.72q25.92,16,51.24,32.82l1.22,11.71c19.27,53,16,111.16,22.61,167.18l-3.77,18.72c1.59,11.67,3.18,23.34,5,35,.8,5,1.66,10,3.62,14.61,1.28,3,3,5.79,4.4,8.73,3,6.28,4.53,13.14,6,19.94l2.41,9.59a316.9,316.9,0,0,1,6.26,60.19c0,4.62,0,9.32-1.36,13.76-1.84,6.22-6,11.48-10.33,16.3a43.58,43.58,0,0,1-10,8.78c-7.1,4.19-15.72,4.63-24,5a16.81,16.81,0,0,1-4.7-.25c-3.19-.79-5.62-3.35-7.6-6-7-9.26-10.89-20.59-12.82-32.05s-2-23.13-2.07-34.74q-.22-36.75-.44-73.51l6.4-18a247,247,0,0,0-22.61-89.64l-8.4-33.52c-15.28-22.78-40.25-37.61-55.86-60.17l-8.71-28.4c2.93-7.52,5.9-15.15,10.66-21.68a84.3,84.3,0,0,1,11.64-12.33ZM161.94,1432c8.51,18.53-2.12,40.79,3.1,60.5,4.58,17.35,20.3,29.14,35.42,38.8,5.32,3.4,11.4,8,10.83,14.33l8.1,12.47a21.53,21.53,0,0,1-3,8.57c-1.43,2.32-3.28,4.35-4.65,6.7-3.31,5.71-3.41,12.69-2.93,19.28.64,8.72,2.14,17.41,1.72,26.15l3.22,4.27c3.22,1.12,6.65,2.39,8.65,5.15,1.07,1.49,1.63,3.28,2.64,4.8a9.74,9.74,0,0,0,7.24,4.27,2.22,2.22,0,0,1,1.09.25,1.88,1.88,0,0,1,.62,1,23.69,23.69,0,0,1,1,10.14l1,4a9.61,9.61,0,0,1-1,3.47c-1.49,2.47-4.94,3.23-6.38,5.73-.93,1.6-.81,3.58-.67,5.44l1.54,3.73c.53,3.21,1,6.77-.82,9.48-1.29,1.92-3.48,3-5.48,4.16s-4,2.7-4.6,5A52.88,52.88,0,0,1,235.92,1701l18.26,14.2c-.52,6.21-.86,13,2.88,18,2.6,3.46,6.72,5.37,10.67,7.14l7.09,3.19,7.64,6.17,14.74,10.39,8.41,5.46c-2.08,2.84-5.69,4.05-8.48,6.21a19.82,19.82,0,0,0-6.53,10.46,59.49,59.49,0,0,0-1.66,12.41,16.67,16.67,0,0,0,.2,5c1.11,4.49,5.63,7.16,9.81,9.17,6.67,3.23,13.64,6.12,21,7a49.65,49.65,0,0,0,21.4-2.58,95.84,95.84,0,0,0,19.51-9.48,26.91,26.91,0,0,0,4.65-3.35l8.23,10.38-.57,16.93a27.71,27.71,0,0,0,.65,8.77c1.08,3.68,3.62,6.73,6.1,9.65,1.79,2.12,3.67,4.3,6.21,5.4,3.87,1.67,8.38.45,12.16-1.41l14.61,8.95c5.89,7.16,16.06,9.83,25.22,8.39,5.07-.8,9.93-2.7,15-3.33s10.82.3,14.19,4.17c3.12,3.59,3.49,8.76,3.42,13.51a17.27,17.27,0,0,1-.59,5,11.42,11.42,0,0,1-1.94,3.62,26.3,26.3,0,0,1-7.06,5.81,133.42,133.42,0,0,1-12,6.71c-3.6,1.77-7.6,3.7-9.1,7.42l-.31,2.55c.74,4.11,4,7.22,6.7,10.37s5.23,7.25,4.11,11.27c-.82,3-3.42,5.07-5.88,7a9.33,9.33,0,0,1,4.26,1.76l-.3,12.34c-2.36,4.15-6.47,7-9.84,10.33s-6.19,8.16-4.88,12.75c.88,3.11,3.46,5.41,6.06,7.33a63.9,63.9,0,0,0,12.37,7.13c3.37,1.46,6.92,2.67,9.8,4.95,3.13,2.47,5.2,6,7.54,9.24a59.06,59.06,0,0,0,17.7,16.13l14.3,5.55a41.54,41.54,0,0,1,15,23.37c2,8.62,1.18,17.6,1.75,26.43s2.93,18.21,9.65,24c5.36,4.59,12.6,6.12,19,9,11.18,5.09,20.21,14.57,32,18,9.71,2.83,20.44,1.24,29.84,5,6,2.4,11,6.8,15.59,11.34a199.79,199.79,0,0,1,34.94,46.24c13.31,24.29,22.25,52.27,43.41,70.14l8.29,4.67a124.25,124.25,0,0,0,18.26-28.06c1.79-3.79,3.42-7.79,3.44-12l-2.37-6.9a123.46,123.46,0,0,0-8.74-21.66c-2.47-4.76-5.28-9.42-6.78-14.57-1.43-5-1.6-10.18-1.75-15.33-.27-9-.48-18.29,3-26.57,3.38-8,9.89-14.25,16.46-20,5.92-5.13,12.22-10.26,15.66-17.3,5.36-11,2.43-24.72-5.13-34.27-3.68-4.65-8.33-8.49-11.76-13.32-3.72-5.26-5.84-11.46-7.65-17.64-8.77-29.88-11.79-62.15-28-88.74l-5.21-12.76a34.1,34.1,0,0,1-12.21-5.38c-3.92-2.92-6.84-7-9.59-11a297.57,297.57,0,0,1-47.08-115.93l-6.2-19.38c-19.94-8.4-35.49-26.25-56.54-31.23-6.69-1.58-13.63-1.76-20.43-2.82a80.6,80.6,0,0,1-57.27-40.19l-8.67-4.35c-6.73-8.93-11.46-19.17-16.15-29.33q-8-17.29-15.94-34.58c-5.62-12.18-10.67-28.12-1.22-37.62,8-8,22.05-6.24,30.88-13.36,10.82-8.73,8.72-25.84,15.33-38.07,9.53-17.64,33.31-20.25,53.36-20.69l56.63-1.26c12.81-.29,25.71-.58,38.28-3.07,11.73-2.33,23-6.54,34.18-10.75,22.1-8.31,44.43-16.83,63.76-30.38,14.19-9.94,27.29-24,28.67-41.31.89-11.09-3.17-21.89-6.48-32.51-12.57-40.31-13.54-88.26,13.57-120.63l8.83-2.37-16.67.75c-8,.75-15.87-3.49-23.82-2.42-15.22,2-21.71,21.16-35.35,28.19-13.26,6.84-30.41.88-43.66,7.73-4.82,2.49-8.71,6.5-13.48,9.08-5.2,2.82-11.17,3.79-16.92,5.18a111,111,0,0,0-34.8,15.15c-6.6,4.35-13.27,9.61-21.18,10a27.16,27.16,0,0,1-11.36-2.38c-18.85-7.72-32.06-27.57-31.89-47.94.08-10.07,3.11-19.87,6.74-29.26A225.46,225.46,0,0,1,558,1240.15c12-17.55,26.45-33.33,38.5-50.85s21.83-37.45,22.75-58.7c.74-17.2-4.36-34.07-9.62-50.47-11-34.36-24-70-50.88-94.07l-6.69-18.42c-28.8-20.31-58.17-40.91-91.71-51.73-8.13-2.62-16.45-4.65-24.56-7.33a78.32,78.32,0,0,0-11.2-3.25,45.8,45.8,0,0,0-13.83,0c-27.52,3.62-53.3,21-80.82,17.35l0-9.82a100.62,100.62,0,0,1,13.71-11.53c3.69-2.58,7.84-5.27,9.1-9.59.79-2.68.31-5.53.34-8.32a23,23,0,0,1,5.74-14.85l14.66-9.89c8.19-9,20.41-12.81,31.31-18.2a108.28,108.28,0,0,0,38.06-31.43c4-5.27,7.69-11.73,6.21-18.19L448,777.72C436,761,441,737.91,437.37,717.6c-4.75-27-25-48.86-47.69-64.13-15.16-10.18-32.42-18.78-42.17-34.21-7-11.14-9.26-24.54-13.22-37.1-10-31.89-35.89-61.6-69.21-64.32-25.51-2.09-49.74,11.76-69.08,28.52l-11.25,15c-16.38,25.68-34.66,53-63.15,63.76-17.37,6.59-36.51,6.16-54.82,9.39s-37.68,11.85-44.88,29c-2.34,5.57-3.19,11.64-4,17.64A812.87,812.87,0,0,0,48.09,1025.5l16,14.44c1.1,44.35,26.37,83.94,40.64,126a260.37,260.37,0,0,1,13.7,75.62c.65,20.82-1.12,42.29,5.93,61.89,4.33,12,11.77,22.68,18,33.87a183.53,183.53,0,0,1,21.67,66.52Z"></path>
    <path data-name="5a" data-official="" data-plain="Calyx" data-loc="" d="M106.85,2837.68c-10.44,7.83-12.38,23-9.92,35.77s8.36,24.82,10.37,37.71c3.44,22.05-3.83,47.81,10.68,64.77a45.3,45.3,0,0,0,12.38,9.64c18.6,10.48,45.09,11.86,58.82-4.5,7.25-8.63,9.48-20.48,9.35-31.76s-2.36-22.43-2.87-33.69c-.66-14.88,1.68-29.77,1.23-44.66s-4.19-30.56-14.83-41c-5-4.87-11.59-8.44-18.54-8.3-4.17.08-8.19,1.46-12.19,2.63a124.48,124.48,0,0,1-35.52,4.94Z"></path>
    <path data-name="6" data-official="Mundia spinosa" data-plain="Spiny Mundia" data-loc="Cape of Good Hope" d="M878.83,2446.09a41,41,0,0,1,28.91,5.66c6.41,4.07,11.53,9.83,17.23,14.84,22.46,19.76,53.33,27.41,76.91,45.83a104.14,104.14,0,0,1,37.81,62c2.37,12.5,2.41,25.32,2.37,38a52.08,52.08,0,0,1-1,11.84c-2,8.55-8.14,15.46-14,22-5.45,6-12.23,12.56-20.29,11.62-5.11-.6-9.33-4.15-13.13-7.61a384.26,384.26,0,0,1-47-51.37c-7-9.18-13.78-18.9-23.42-25.23-9.45-6.2-20.84-8.62-32-10.55l-13.5-5.13-2.41-9.59c-1.5-6.8-3-13.66-6-19.94-1.4-2.94-3.12-5.73-4.4-8.73-2-4.63-2.82-9.65-3.62-14.61-1.86-11.63-3.45-23.3-5-35l3.77-18.72Zm-135.58-375.5c7.56,9.55,10.49,23.32,5.13,34.27-3.44,7-9.74,12.17-15.66,17.3-6.57,5.7-13.08,11.93-16.46,20-3.49,8.28-3.28,17.59-3,26.57.15,5.15.32,10.38,1.75,15.33,1.5,5.15,4.31,9.81,6.78,14.57a123.46,123.46,0,0,1,8.74,21.66l2.37,6.9c0,4.19-1.65,8.19-3.44,12a124.25,124.25,0,0,1-18.26,28.06l-8.29-4.67c-21.16-17.87-30.1-45.85-43.41-70.14a199.79,199.79,0,0,0-34.94-46.24c-4.61-4.54-9.58-8.94-15.59-11.34-9.4-3.76-20.13-2.17-29.84-5-11.8-3.42-20.83-12.9-32-18-6.42-2.92-13.66-4.45-19-9-6.72-5.74-9.08-15.12-9.65-24s.25-17.81-1.75-26.43a41.54,41.54,0,0,0-15-23.37l-14.3-5.55a59.06,59.06,0,0,1-17.7-16.13c-2.34-3.23-4.41-6.77-7.54-9.24-2.88-2.28-6.43-3.49-9.8-4.95A63.9,63.9,0,0,1,440,1986c-2.6-1.92-5.18-4.22-6.06-7.33-1.31-4.59,1.51-9.36,4.88-12.75s7.48-6.18,9.84-10.33l.3-12.34a9.33,9.33,0,0,0-4.26-1.76c2.46-1.88,5.06-4,5.88-7,1.12-4-1.38-8.12-4.11-11.27s-6-6.26-6.7-10.37l.31-2.55c1.5-3.72,5.5-5.65,9.1-7.42a133.42,133.42,0,0,0,12-6.71,26.3,26.3,0,0,0,7.06-5.81,11.42,11.42,0,0,0,1.94-3.62,17.27,17.27,0,0,0,.59-5c.07-4.75-.3-9.92-3.42-13.51-3.37-3.87-9.09-4.8-14.19-4.17s-10,2.53-15,3.33c-9.16,1.44-19.33-1.23-25.22-8.39l-14.61-8.95c-3.78,1.86-8.29,3.08-12.16,1.41-2.54-1.1-4.42-3.28-6.21-5.4-2.48-2.92-5-6-6.1-9.65a27.71,27.71,0,0,1-.65-8.77l.57-16.93-8.23-10.38a26.91,26.91,0,0,1-4.65,3.35,95.84,95.84,0,0,1-19.51,9.48,49.65,49.65,0,0,1-21.4,2.58c-7.36-.87-14.33-3.76-21-7-4.18-2-8.7-4.68-9.81-9.17a16.67,16.67,0,0,1-.2-5,59.49,59.49,0,0,1,1.66-12.41,19.82,19.82,0,0,1,6.53-10.46c2.79-2.16,6.4-3.37,8.48-6.21l-8.41-5.46-14.74-10.39-7.64-6.17-7.09-3.19c-4-1.77-8.07-3.68-10.67-7.14-3.74-5-3.4-11.82-2.88-18L235.92,1701a52.88,52.88,0,0,0-17.33-11.39c.57-2.25,2.61-3.78,4.6-5s4.19-2.24,5.48-4.16c1.81-2.71,1.35-6.27.82-9.48l-1.54-3.73c-.14-1.86-.26-3.84.67-5.44,1.44-2.5,4.89-3.26,6.38-5.73a9.61,9.61,0,0,0,1-3.47l-1-4a23.69,23.69,0,0,0-1-10.14,1.88,1.88,0,0,0-.62-1,2.22,2.22,0,0,0-1.09-.25,9.74,9.74,0,0,1-7.24-4.27c-1-1.52-1.57-3.31-2.64-4.8-2-2.76-5.43-4-8.65-5.15l-3.22-4.27c.42-8.74-1.08-17.43-1.72-26.15-.48-6.59-.38-13.57,2.93-19.28,1.37-2.35,3.22-4.38,4.65-6.7a21.53,21.53,0,0,0,3-8.57l-8.1-12.47c.57-6.29-5.51-10.93-10.83-14.33-15.12-9.66-30.84-21.45-35.42-38.8l-17.48-.09c-19.23-14.93-49.42-6.57-64.73,12.35s-18.74,44.83-18.06,69.17,4.82,48.7,2.2,72.9c-2.7,25-12.47,48.56-19.11,72.78-26.3,96,0,204.65,67.22,278,10.24,11.18,21.6,21.94,27.54,35.89,7,16.51,5.5,35.19,6.43,53.11,3.52,68.57,47.73,133.51,110.23,161.93,33,15,69.4,20.16,104.52,29,43.72,11,85.71,27.82,127.56,44.59,72.82,29.18,147.75,59.71,203.41,115,28.88,28.69,55.54,65.59,95.74,72l26.69-11.62a247,247,0,0,0-22.61-89.64l-8.4-33.52c-15.28-22.78-40.25-37.61-55.86-60.17l-8.71-28.4c2.93-7.52,5.9-15.15,10.66-21.68a84.3,84.3,0,0,1,11.64-12.33l41.06-12c-3-1.84-6.12-3.81-7.79-6.91s-1.17-7.64,1.95-9.26l4.82-6.16A515.25,515.25,0,0,1,864.13,2182l-4.56-21.05,9.61-28c2.67-7.77,5.34-15.55,7.48-23.49,9.23-34.29,8.24-70.38,7.18-105.88-.5-16.7-1-33.43-3.25-50-1.23-9.06-3.2-18.51-9.2-25.41-8.67-10-24-12-36.56-7.91s-22.91,13-32.23,22.38a302.9,302.9,0,0,0-43.81,55.78c-5.11,8.39-10.9,17.84-20.48,20Z"></path>
    <path data-name="7" data-official="Root of Polygala crotolarioides" data-plain="" data-loc="Himalayas" d="M215.4,2378.26c13.53-.12,19.1-16.75,26.3-28.2,8.53-13.55,24.73-22.48,40.61-20.51s30,15.95,30.34,31.95c.08,3.72-.5,7.6,1,11,3.77,8.86,16.37,7.6,26,6.73,37.49-3.4,70.37,22.34,102.76,41.54a333.36,333.36,0,0,0,55.87,26.45c24.89,9.06,55.66,14.09,75.45-3.51,7.68-6.84,12.68-16.38,20.8-22.69a35.16,35.16,0,0,1,56.3,22.36c1.13,7.3,0,15,2.35,22,5.44,16.08,25.37,20.65,39.86,29.51,12.4,7.58,21.58,19.32,30.48,30.81l27.88,36c14.9,19.23,30.16,39.15,36.39,62.67s1.16,51.8-18.51,66.11c-14.89,10.83-34.93,11.68-53.06,8.47-40.14-7.11-74.91-31.28-112.75-46.46-21.28-8.54-43.58-14.24-65.8-19.91L348,2584.15c-19.07-4.87-38.3-9.8-56-18.49-25-12.3-45.71-31.57-68.45-47.63-12-8.51-25-16.42-33.67-28.35-16.36-22.47-13.63-53.67-5-80.1Z"></path>
    <path data-name="" data-official="" data-plain="Unlabeled‡" data-loc="" d="M134.72,2535.13c-18.83,13.48-28.66,36.61-32.07,59.52s-1.32,46.21-1.2,69.37c.18,31.76-1.71,68,21.18,90.05,20.14,19.38,51.57,19.48,79.39,16.79,6-.58,12.18-1.31,17.35-4.39,5-3,8.46-7.82,11.63-12.66,21.5-32.83,34.15-72.1,31.88-111.28s-20.36-78-51.38-102c-14.86-11.51-33.1-19.67-51.88-18.93Z"></path>
</svg>
