
<svg xmlns="http://www.w3.org/2000/svg" viewBox="0 0 2132 2912" id="illustration" preserveAspectRatio="xMidYMid meet">
  <title>Resedaceæ</title>
    <path data-name="1" data-official="Reseda luteola" data-plain="Dyers’-weed, or Weld" data-loc="England" d="M1410.25,1719.71l-22.2-15.57c-38.59-30.6-38.66-91.4-73-126.66-7.62-7.81-16.8-14.21-23-23.17s-8.73-21.9-2-30.47c3.15-4,7.87-6.5,11.2-10.36,4.69-5.42,6.13-12.88,7-20,4-34.5-2.12-69.28-3.49-104-.88-22.38.23-44.87-2.18-67.13s-8.68-44.78-22.59-62.33l7.51-64.18c-16.63-159.19-73.85-311.2-137.23-458.17-54.33-126-113.73-250.27-153.85-381.46C977,293,962.08,227.91,934.06,168S862.75,52.23,802.44,25l-21-7.13c-13.6,1.14-26.89-3.64-40-7.46s-27.37-6.71-40.15-1.95c-9.56,3.55-17.09,11-24.31,18.17-3.27,3.26-6.62,6.64-8.41,10.9-2.26,5.39-1.74,11.5-1.11,17.32A630.76,630.76,0,0,0,695.93,185l3.38,47.67c21,47.1,40.77,94.9,54.52,144.59,8.88,32.1,15.2,64.83,22.23,97.37C801,589.91,835,703,868.89,815.93L1067,1475.21l4.75,25.06c2.14,35.66,17.06,69.08,29.27,102.66a711.77,711.77,0,0,1,30.93,113.45c6,32.58,10.64,67.47,31.92,92.87l7.12,8c2.89,1.8,5.07,4.52,7.19,7.19l19.35,24.39,4.56,4.42c2.69,1.16,4.43,3.91,5.11,6.76a27.89,27.89,0,0,1,.24,8.75q-3.06,38.12-9.5,75.86l-5.4,3.69a45.85,45.85,0,0,1-28.12,20c-6.61,1.56-13.46,1.68-20.25,1.79l-36.74.6-9.8-3.18c-7.25-13.85-14.73-28-26.33-38.48-1.63-1.46-3.44-2.9-5.6-3.25s-4.71.81-5.16,3a6.7,6.7,0,0,0,.3,3q3.47,13.35,6.92,26.71a31,31,0,0,1,1.38,8.62c-.13,3.91-1.73,7.58-3,11.27a72.21,72.21,0,0,0-3.9,27.11l-5.55,22.68,8,105.58c2,27,4.12,54.29,11.46,80.39,8.67,30.83,24.46,59.23,33.86,89.84,12.47,40.58,13.38,83.82,23.3,125.1,7.26,30.21,19.38,59.66,20.37,90.72.41,12.6-1,25.55,2.84,37.55,4.59,14.35,16,25.3,27,35.6,2.22,2.09,4.56,4.24,7.49,5.07,4.95,1.4,10.07-1.31,14.33-4.2a120.79,120.79,0,0,0,33.87-34.7l4.82-23c3.06-17.23,6.14-34.52,6.89-52,.78-18-.91-36-2.76-53.86q-9.36-90.72-24.27-180.76l-6.41-29.41a16.57,16.57,0,0,0-7.65-2.4c-2.87-.16-5.83.42-8.59-.39-3.59-1.07-6.1-4.26-9.3-6.21-4.42-2.7-9.87-2.89-15-3.13s-10.67-.73-14.8-3.85c-3.85-2.9-5.84-7.57-7.52-12.08-1.48-4-2.83-8.49-1.15-12.41,1.39-3.25,4.56-5.32,7.56-7.2l6,5.35c6.91-3,15.14-1.24,21.61,2.63,3.73,2.23,7.47,5.24,11.8,4.92,4-.3,7.21-3.42,10.7-5.48a22,22,0,0,1,14.71-2.67l3.6-6.32c1.15-2.06,1-4.57.68-6.89s-1-4.66-.7-7l1.25-7.63c8.53-12.68,26-16.7,35.11-29l18.78-11.1c45.93-40.88,73-102.18,72.27-163.67,0-4.34-.23-8.75.94-12.93,1.59-5.63,5.45-10.29,9-14.91C1409.6,1862.58,1426.07,1787.75,1410.25,1719.71Zm-132.1,204.43c-2.8,6.78-8.3,12.66-15.33,14.78-7.38,2.22-15.68.21-22.81,3.15l-8.18-4.63q3.32-31.9,7.33-63.74a6.67,6.67,0,0,1,.73-2.71,6,6,0,0,1,3.77-2.33c9.13-2.47,19.22,1.38,25.74,8.22s9.86,16.23,11,25.62C1281.3,1909.78,1281,1917.36,1278.15,1924.14Z"></path>
    <path data-name="1a" data-official="" data-plain="Flower, front" data-loc="" d="M875.74,2819.28a62.88,62.88,0,0,1-49.32-33.66c-4.08-8.11-6.27-18-2.28-26.16s13.17-12.6,18.59-20c5.77-7.81,6.73-18.08,10.43-27.05,3.3-8,8.73-14.87,14.09-21.65,4.56-5.75,9.3-11.66,15.74-15.18,7.12-3.9,15.52-4.46,23.63-4.74q23.71-.81,47.43.68c6.57.42,13.41,1.05,19,4.53,9.79,6.09,12.77,18.71,14.9,30q5.73,30.47,11.47,60.92c.7,3.72,1.39,7.57.47,11.24-.84,3.34-3,6.21-5.1,8.91-13.21,16.72-29.59,31.44-49.21,39.75s-42.76,9.66-62.08.67Z"></path>
    <path data-name="1b" data-official="" data-plain="Flower, side" data-loc="" d="M1034.12,2804c1.73-4.31-2.16-8.59-5-12.25-7.39-9.49-9.1-22.44-7.26-34.32s6.87-23,11.86-33.94c2.77-6.05,5.64-12.26,10.46-16.86,4.2-4,9.6-6.52,14.88-8.95l27.66-12.72c6.21-2.86,13-5.78,19.65-4.08s11.25,7.61,15.09,13.29a254.09,254.09,0,0,1,22.93,41.89c6,13.84,10.74,28.49,10.89,43.55s-4.84,30.69-15.93,40.9c-6.81,6.27-15.62,10.31-21.58,17.4-4.42,5.25-7,11.91-11.86,16.77-10.37,10.4-27.46,9.47-41.61,5.53-6.59-1.83-13.19-4.24-18.45-8.61a30,30,0,0,1-10.49-25.3Z"></path>
    <path data-name="1c" data-official="" data-plain="Seed-vessel, opened" data-loc="" d="M1250.43,2816.66a260.62,260.62,0,0,1-40.58-.88c-4-.39-8-.9-11.65-2.6-5.37-2.5-9.31-7.42-11.77-12.81-5.17-11.31-4.34-24.34-3.41-36.74l3-39.48c.31-4.23.66-8.56,2.46-12.4,2.11-4.5,6-7.86,9.77-11.09l19-16.25c4.27-3.64,8.63-7.35,13.82-9.51,9-3.74,19.15-2.39,28.76-.87,10.55,1.67,21.26,3.54,30.83,8.3,15.8,7.85,26.93,22.78,35.22,38.36s14.37,32.32,23.5,47.42c6.1,10.11,13.88,21,11.27,32.56-1.19,5.24-4.43,9.73-7.61,14.07l-19,26c-6.8,9.3-15.49,19.57-27,19.19-7.6-.25-14.12-5.23-20.06-10l-25.49-20.4Z"></path>
    <path data-name="2" data-official="Reseda lutea" data-plain="Wild Mignonette" data-loc="England" d="M1517.43,1185.15c1,40.13.88,81.14-11.94,119.17-11.64,34.52-33.34,65-59.28,90.62s-56.09,46.48-87,65.68c-11.75,7.29-24.17,14.9-30.81,27l-20.18,5.84c-.83,7.12-2.27,14.58-7,20-3.33,3.86-8,6.35-11.2,10.36-6.75,8.57-4.24,21.5,2,30.47s15.4,15.36,23,23.17c34.38,35.26,34.45,96.06,73,126.66l22.2,15.57c15.82,68-.65,142.87-43.59,198-3.59,4.62-7.45,9.28-9,14.91-1.17,4.18-1,8.59-.94,12.93.73,61.49-26.34,122.79-72.27,163.67l-18.78,11.1c-9.12,12.26-26.58,16.28-35.11,29l-1.25,7.63c-.27,2.34.33,4.67.7,7s.47,4.83-.68,6.89l-3.6,6.32a22,22,0,0,0-14.71,2.67c-3.49,2.06-6.65,5.18-10.7,5.48-4.33.32-8.07-2.69-11.8-4.92-6.47-3.87-14.7-5.64-21.61-2.63l-6-5.35c-3,1.88-6.17,3.95-7.56,7.2-1.68,3.92-.33,8.41,1.15,12.41,1.68,4.51,3.67,9.18,7.52,12.08,4.13,3.12,9.63,3.61,14.8,3.85s10.62.43,15,3.13c3.2,1.95,5.71,5.14,9.3,6.21,2.76.81,5.72.23,8.59.39a16.57,16.57,0,0,1,7.65,2.4l6.41,29.41q8,48.07,14.35,96.39l29.24,14.23a209.49,209.49,0,0,1,122.3,30.3c4.57,2.81,9.2,6,11.73,10.71,2.06,3.86,2.5,8.35,2.77,12.72,3.28,51.91-9.4,108,16,153.4,2.75,4.93,6,9.74,10.68,12.93,6.65,4.56,15.21,5.22,23.26,4.74a98.91,98.91,0,0,0,91.14-118l11.16-40.59c13.29-94.77,102.13-160,139.48-248.11,6.05-14.27,11.66-30.28,25-38.17,10.16-6,22.71-5.9,34.47-4.88,28.36,2.44,56.34,9.15,84.81,9.66s58.71-6.16,78.81-26.32c23.64-23.71,28.15-61.16,21.49-94-9.91-48.89-42.4-92.71-86.29-116.41-30.36-16.38-68.08-25.66-85.33-55.54-15.31-26.49-8.64-59.7-1.53-89.46l9.27-38.76.51-59.59c46.59-135.79,61.4-280.2,72.29-423.36,11.51-151.23,18.67-306-22.37-452-28.18-100.31-78.17-192.9-127.77-284.54-27.75-51.27-56-103.25-96.54-145.15s-95.62-73.21-153.91-72.29c-5.79.09-12.18.77-16.14,5-3.27,3.48-4.08,8.54-4.66,13.27-24.27,195.77,73,385.36,91.64,581.75,6.92,73,2.87,146.64-1.18,219.9Z"></path>
    <path data-name="2a" data-official="" data-plain="Flower, front" data-loc="" d="M1949.32,2604.94c1.69-12.85-6.19-24.76-10-37.15-6.2-20.12.78-45.47,19.89-54.32,7.76-3.59,16.54-4.18,24.74-6.59,6-1.78,11.76-4.54,17.9-5.88,18.6-4.05,37.19,5.37,53.9,14.48,8,4.35,16.33,9.06,20.94,16.89,3,5.17,4.14,11.22,5.19,17.12,2.81,15.76,5.39,33-2.34,47-2.1,3.81-4.89,7.2-7,11-8.27,14.61-6,33.05-12.34,48.58-7.26,17.62-26.43,29.58-45.45,28.33-10.57-.69-20.82-5-31.39-4.39-4.93.3-9.75,1.68-14.68,1.88-13.28.55-26.21-8.22-31.4-20.45s-2.78-27.14,5.33-37.67Z"></path>
    <path data-name="2b" data-official="" data-plain="Flower, back" data-loc="" d="M1803.21,2646.13a44.33,44.33,0,0,1-31.75-61.78c1.68-3.73,3.89-7.22,5.4-11,2.8-7.08,3.07-14.87,4.23-22.4,3.11-20.13,15.16-40.89,34.91-45.86,7.28-1.82,15-1.36,22.29-2.95,6.92-1.5,13.44-4.81,20.49-5.47,10.29-1,20.43,4,28,11s13,16,18.4,24.83l17.21,28.44c4.34,7.16,8.76,14.55,10.13,22.81,2.89,17.45-8.16,33.72-16.84,49.13-8,14.12-14.41,29.35-25.29,41.34s-27.81,20.34-43.3,15.6c-13.37-4.1-22.17-16.52-29.94-28.16Z"></path>
    <path data-name="2c" data-official="" data-plain="Upper Petal" data-loc="" d="M1684.08,2654.59a302.87,302.87,0,0,1-16.68-70.7c-1.2-10.78-1.8-21.88,1.23-32.3s10.26-20.15,20.55-23.59c11.19-3.75,23.88.67,32.69,8.51s14.42,18.62,19.18,29.41a303,303,0,0,1,17.81,53.08c.86,3.64,1.66,7.42,1,11.11a29.53,29.53,0,0,1-3.44,8.64L1745,2660.52c-6,11.36-13.62,24-26.27,26.15-11.2,1.91-21.71-5.28-30.8-12.1Z"></path>
    <path data-name="2d" data-official="" data-plain="Side Petal" data-loc="" d="M1655.44,2681.43c-10.4.22-20.64,3.66-31,3-18.21-1.25-33.56-15.41-41.2-32s-8.88-35.31-9.28-53.55c-.41-18.08.12-37.08,9.07-52.8s29-26.53,45.6-19.26c13.84,6.07,20.37,21.75,24.81,36.19,11,35.76,17.22,74.4,7.28,110.47Z"></path>
    <path data-name="2e" data-official="" data-plain="Disk with Stamens and Pistil" data-loc="" d="M2030.55,2701.66c10.53,13.72,30.21,15.73,44.89,24.86,9.51,5.92,16.8,14.8,23.24,24,5.47,7.8,10.58,16.25,11.91,25.69,1.69,12.05-3.23,24.5-11.64,33.29s-20,14.14-31.91,16.52-24.23,2-35.33,6.61c-3.82,1.58-7.38,3.71-11.17,5.36-16.94,7.42-36.69,4.7-54.15-1.39-5.36-1.87-10.73-4.12-14.91-8-7.8-7.17-10.06-18.63-9.74-29.21s2.76-21.07,2.53-31.65c-.3-13.33-4.82-26.23-5.89-39.52s2.45-28.42,13.83-35.36c6.33-3.86,14-4.55,21.42-5.14,15.94-1.27,32.6-2.43,47.35,3.74Z"></path>
    <path data-name="2f" data-official="" data-plain="Stamens" data-loc="" d="M1929.81,2817.55c3.61-6.42,7.28-13,8.38-20.3s-.54-15-2.48-22.24a279.94,279.94,0,0,0-17.41-47.52c-4.42-9.37-9.73-18.9-18.44-24.52a31.23,31.23,0,0,0-17.62-5c-3.92.09-8.06,1.07-10.78,3.89-2,2.09-3,4.94-3.86,7.73-6.89,23.23-5.09,48.06-2.47,72.15,1.87,17.32,4.23,34.92,11.59,50.71,2.33,5,5.8,10.25,11.21,11.26,3,.57,6.15-.34,9.11-1.26,11.44-3.56,23.41-7.76,31.15-16.91Z"></path>
    <path data-name="2g" data-official="" data-plain="Pistil" data-loc="" d="M1750.67,2792.86a90.53,90.53,0,0,1,7-47.86c2-4.64,4.51-9.12,6-13.95,1.1-3.43,1.74-7.05,3.54-10.16s4.75-5.55,7.61-7.83c4.23-3.38,8.62-6.75,13.77-8.43,9.93-3.25,20.85.42,29.85,5.75a33.9,33.9,0,0,1,7.7,5.85c3.54,3.8,5.55,8.73,7.66,13.48,6.77,15.21,15.3,29.8,19.47,45.92a90.82,90.82,0,0,1-12,71.78,26.19,26.19,0,0,1-7.15,7.84,30.65,30.65,0,0,1-6.74,3l-14.09,5c-3.9,1.37-7.9,2.76-12,2.73-5.46,0-10.58-2.55-15.29-5.32-10.24-6-19.7-13.65-26.55-23.35s-10.93-21.61-10-33.45Z"></path>
    <path data-name="2h" data-official="" data-plain="Section of Seed-vessel" data-loc="" d="M1629.25,2753.73c6-10.58,16.64-17.92,28-22.28s23.53-6.08,35.58-7.76l15.82-2.2a11.33,11.33,0,0,1,5.73.19,10.15,10.15,0,0,1,4.14,3.75c7.92,10.91,10.93,24.54,13.43,37.79q3,16.16,5.44,32.45a21.53,21.53,0,0,1,.22,7.46c-.92,4.46-4.44,7.85-6.67,11.82-2.94,5.26-3.64,11.62-7,16.59-2.05,3-5,5.27-7.8,7.5-7.92,6.19-16.17,12.46-25.87,15.1a67.45,67.45,0,0,1-15.91,1.85c-14.81.37-31-1.08-41.86-11.12-6.33-5.83-10.1-13.94-12.64-22.16-3.58-11.56-5-23.67-6.09-35.73-.76-8.5-.88-18.27,5.38-24.05Z"></path>
    <path data-name="2i" data-official="" data-plain="Seed" data-loc="" d="M1603.09,2763.27a145.23,145.23,0,0,1-3.23,31c-1.23,5.71-2.9,11.54-6.67,16-4.81,5.69-12.25,8.29-19.33,10.64l-28.82,9.58c-3.14,1.05-6.4,2.11-9.69,1.75a22.35,22.35,0,0,1-7.52-2.67q-6.52-3.26-12.93-6.75c-4.35-2.38-8.87-5-11.36-9.33-3.09-5.29-2.45-11.89-1.37-17.92a160.32,160.32,0,0,1,5.66-22.29c2-6.13,4.51-12.27,8.68-17.21s9.55-8.24,14.93-11.58c4.69-2.91,9.48-5.86,14.84-7.16,10.74-2.61,21.81,1.72,32,6l17.3,7.21Z"></path>
    <path data-name="3" data-official="Reseda odorata" data-plain="Mignonette" data-loc="Egypt" d="M1278.15,1924.14c-2.8,6.78-8.3,12.66-15.33,14.78-7.38,2.22-15.68.21-22.81,3.15l-8.18-4.63q3.32-31.9,7.33-63.74a6.67,6.67,0,0,1,.73-2.71,6,6,0,0,1,3.77-2.33c9.13-2.47,19.22,1.38,25.74,8.22s9.86,16.23,11,25.62C1281.3,1909.78,1281,1917.36,1278.15,1924.14ZM1076.09,2214c-7.34-26.1-9.42-53.35-11.46-80.39l-8-105.58,5.55-22.68a72.21,72.21,0,0,1,3.9-27.11c1.29-3.69,2.89-7.36,3-11.27a31,31,0,0,0-1.38-8.62q-3.46-13.35-6.92-26.71a6.7,6.7,0,0,1-.3-3c.45-2.15,3-3.31,5.16-3s4,1.79,5.6,3.25c11.6,10.47,19.08,24.63,26.33,38.48l9.8,3.18,36.74-.6c6.79-.11,13.64-.23,20.25-1.79a45.85,45.85,0,0,0,28.12-20l5.4-3.69q6.43-37.69,9.5-75.86a27.89,27.89,0,0,0-.24-8.75c-.68-2.85-2.42-5.6-5.11-6.76l-4.56-4.42-19.35-24.39c-2.12-2.67-4.3-5.39-7.19-7.19l-7.12-8c-21.28-25.4-25.87-60.29-31.92-92.87A711.77,711.77,0,0,0,1101,1602.93l-32.88-16.71c-22.58,3.68-48.84,6.31-65.37-9.5-6.72-6.43-10.75-15.08-14.87-23.41-27.31-55.23-64.4-104.94-101.28-154.3-16.86-22.55-34.31-45.66-58.36-60.3-10.28-6.26-22.06-11.25-28.82-21.2-4.92-7.25-6.48-16.2-7.79-24.86C766.85,1129,791,962,779.57,796.89l1.32-44.72c2.48-27-.89-54.1-4.25-81Q768.83,608.58,761,546c-2.5-20.06-5.11-40.47-13.51-58.86s-23.66-34.75-43.35-39.34c-15.42-3.6-31.68.35-46.25,6.56-54.14,23.1-90.06,74.79-118.94,126.08-52.36,93-91.37,192.78-130.2,292.19-11,28.09-22,56.27-29.36,85.51-20,79.28-12.62,162.47-9.91,244.19s-.27,167-38.3,239.44c-26,49.51-66.67,89.49-106.66,128.59l-9.88,47.91c3.81,17.46,12.63,33.41,17.67,50.56s5.65,37.29-5.52,51.24c-9.29,11.6-24.5,16.33-38.78,20.46l-83.37,24.1c-9.29,2.69-18.85,5.51-26.37,11.58-8.67,7-13.65,17.54-17.53,28-23.55,63.59-14.38,138.35,23.85,194.36,26.63,39,65.25,68,103.15,96.18,61.18,45.53,124.57,92.12,198.7,110,43,10.4,89.54,11.11,128,33.08,58.67,33.52,81.24,105.35,98.9,170.56,13.94,51.5,28,105.52,16.18,157.56-3.08,13.58-7.91,27.36-5.5,41.06,6,34.23,55.72,44.39,84,24.14s38.42-57.28,42.78-91.76c8.57-67.64,5.54-144.91,54.35-192.53,52.84-51.55,147-45.88,192.22-104.25Z"></path>
    <path data-name="3a" data-official="" data-plain="Flower, magnified" data-loc="" d="M107.74,2876c-12.8-10.77-26.79-22-43.47-23.29-11.75-.87-24.54,3.23-34.79-2.57-10.59-6-13.47-19.8-14.15-32-1.47-26.44,2.28-52.88,2.69-79.36.41-26-2.41-52-1.41-78s6.14-52.64,20.85-74.09a63.81,63.81,0,0,1,13.35-14.61c5.59-4.3,12-7.32,18.44-10.31,13.79-6.44,28.31-13,43.51-12.14,17.55,1,32.87,11.81,46.64,22.75a645.16,645.16,0,0,1,55.11,49.13c12.51,12.51,25,26.31,29.31,43.45,4.47,17.58-.19,36-4.83,53.57-7.25,27.38-15.23,56.09-35.14,76.23-3.58,3.63-7.67,7.18-9.09,12.07-1.53,5.23.34,10.77.94,16.19,1.31,11.86-3.68,23.73-11.07,33.1a70.1,70.1,0,0,1-48.8,26.13Z"></path>
    <path data-name="3b" data-official="" data-plain="Upper Petal" data-loc="" d="M292.27,2858.07c9.36-43-25.81-87.15-14.17-129.57a62.5,62.5,0,0,1,41.19-42.43c5.28-1.62,10.88-2.52,16.32-1.6,9.08,1.55,16.77,8.15,21.26,16.19s6.14,17.39,6.53,26.59c1.29,29.83-9.67,59.6-5.45,89.15,1.59,11.14,5.31,22.52,2.4,33.39a48.23,48.23,0,0,1-5.6,12.11c-7,11.73-16.23,23.12-29.13,27.63s-29.89-.69-34.17-13.66Z"></path>
    <path data-name="3c" data-official="" data-plain="Side Petal" data-loc="" d="M383.48,2837.44a153.39,153.39,0,0,1-7.73-62.7c.62-7.16,1.79-14.43,5.16-20.77s9.29-11.68,16.39-12.78c8-1.25,16.12,3.13,21.45,9.27s8.43,13.87,11.43,21.43c5.48,13.81,11,27.68,14.41,42.14a154.84,154.84,0,0,1,4.13,39.78c-.24,9-1.57,18.59-7.74,25.08-4.9,5.16-12.07,7.45-19.05,8.8a99.25,99.25,0,0,1-24.87,1.59c-2.64-.17-5.39-.48-7.56-2-2.34-1.63-3.61-4.38-4.66-7a113.21,113.21,0,0,1-7-27.14Z"></path>
    <path data-name="3d" data-official="" data-plain="Seed-vessel, opened" data-loc="" d="M606.88,2861.75a72.15,72.15,0,0,1-41.37,5.84c-18.18-2.86-34.69-12.68-48.35-25s-24.81-27.14-35.86-41.85c-4.84-6.46-9.7-12.94-13.62-20-12.93-23.33-14.57-51.08-15.08-77.75-.11-5.72-.14-11.64,2.08-16.92,3.51-8.35,12-13.52,20.57-16.55,13.06-4.63,27.11-5.53,41-6.21,22.24-1.11,44.5-1.77,66.76-2.44,11.95-.35,23.95-.71,35.8.79,12.62,1.59,24.88,5.26,37.07,8.92,3.16.95,6.44,2,8.86,4.21,3.75,3.5,4.53,9.06,5,14.17,1.27,12.89,2.22,25.88,1.16,38.78-1.9,23.05-10.12,45-18.26,66.69-6.71,17.82-13.67,36.08-26.25,50.37Z"></path>
    <path data-name="3e" data-official="" data-plain="Seed" data-loc="" d="M688.29,2783c5.94-11.28,20.62-13.92,33.3-15.26,8.63-.92,17.82-1.74,25.58,2.17,10,5,14.81,16.4,18.37,27,5.91,17.58,10.43,37.38,2.54,54.16-5.62,11.95-17.61,20.79-30.74,22.12s-26.88-5.14-33.8-16.39c-3.13-5.08-4.86-10.89-6.45-16.65a465.8,465.8,0,0,1-10.6-48.45Z"></path>
</svg>
