
<svg xmlns="http://www.w3.org/2000/svg" viewBox="0 0 2073 2778" id="illustration" preserveAspectRatio="xMidYMid meet">
    <title>Pittosporaceæ</title>
    <path data-name="1" data-official="Pittosporum Tobira" data-plain="Glossy-leaved Pittosporum" data-loc="China" d="M833.36,2210.83c20.23,60.35,24.91,125,22,188.59-.82,18.06-2.33,36.48-9.37,53.14s-20.53,31.52-38.1,35.84c-19.43,4.78-41.51-5.41-50.47-23.31-5.54-11.06-6.24-23.82-6.71-36.18-1-25.24-1.18-51.71,10.38-74.17l8.39-24.32q3.16-40.38,4.8-80.86l.88-14.84c1.66-3.52,1.89-7.52,2-11.4.41-10.39.47-21-2.56-30.92l-5.89-10.14q-1.14-22.8-4.14-45.45l.32-15.22a129,129,0,0,0-3.29-20.86l-13.28-9.19c-10.45-8.72-13.48-23.26-15.87-36.66L716,1962.43l-2.77-16.77c-1.9-17.07-1.94-34.74-8.46-50.63-3.91-9.55-10-18.06-14.16-27.51-3.85-8.76-6.14-18.52-12.5-25.66l-1.94-6.79c3.52-4.43,10.19-5,15.62-3.43s10.22,4.84,15.48,6.94a38,38,0,0,0,10.61,2.56,16.5,16.5,0,0,1,5,.91,23.09,23.09,0,0,1,3.7,2.46,15.46,15.46,0,0,0,7.38,2.65l21.47,17.27a225.75,225.75,0,0,1,27.12,78.43c1.87,12.57,2.67,25.31,4.91,37.83,2.62,14.65,7.19,28.87,11.74,43l-6,17.39a92.3,92.3,0,0,0,2.21,13.2l.63,2.88,3.6,16.47,10.44,18.59a200.25,200.25,0,0,1,5.84,44.61L812.83,2152q1.53,16.85,3.75,33.63ZM676.89,1818.37c13.36-5.06,28.22-2.65,42.49-3.2,4.78-.18,10.25-1.13,12.69-5.25l-4.64-9.12a60,60,0,0,0-4.61-9.16l-18.11-31.42-4-6.77L690.92,1729c-1.46-3.64-2.92-7.28-4.27-11-3.33-9-6-19.24-2.21-28.09L680.9,1683c-2.71-5.56-8.32-9-13.81-11.9-10.69-5.52-22.59-9.81-34.54-8.42l-1.26,5.5c-.49,18.85,4.15,37.41,8.76,55.7,7.45,29.61,14.94,59.32,26.24,87.69Zm-52.48-179.84a11.52,11.52,0,0,0,6.06,5.81,34,34,0,0,0,8.28,2.23l5.38,1c-4.9-3.31-9.88-6.7-13.51-11.37a50,50,0,0,0-3.11-4Zm-1.27-28.1,15.88,20.2c4.2,5.34,8.89,11,15.49,12.64a5.3,5.3,0,0,1,2,.75,5.23,5.23,0,0,1,1.32,1.93,15.74,15.74,0,0,0,20.27,7.16l3.29-7.74a362.33,362.33,0,0,1,11.65-105.46c2.21-8.39,4.75-16.76,8.76-24.45,4.54-8.69,10.85-16.31,17-24a779.37,779.37,0,0,0,50-70.19c8-12.7,15.82-26,18.23-40.87l-6.85-17.74c.55-4.24,3.84-7.54,5.59-11.43a29,29,0,0,0,2-8.4c2.85-23.38-1.34-48,7.12-70,2.57-6.69,5.26-12.92,7.76-19.65,2.63-7.09,4.33-15.26,10.44-19.71l3.18-7.75a109.33,109.33,0,0,0-2.56-58.45c-1.06-3.25-2.28-6.44-3.49-9.64l-7.7-20.23c-5.3-13.92-10.62-27.9-17.82-40.94-2.84-5.15-5.94-11.69-2.49-16.44,1.68-2.31,4.5-3.44,7.13-4.53,23.3-9.7,43.5-25.45,63.11-41.34,20.84-16.89,42.33-35.49,50.76-61l9.93-12.4c1.46-6.92,5.25-13.13,9.61-18.69s9.32-10.64,13.62-16.25c2.49-3.24,4.78-6.71,7.91-9.35,4.69-4,10.83-5.74,16.81-7.16,10.55-2.51,21.57-4.28,32.2-2.17,5.48,1.09,11.08,3.2,16.49,1.81a3.54,3.54,0,0,0,1.69-.83,3.76,3.76,0,0,0,.84-2,18.4,18.4,0,0,0-.85-9.75l-1.78-13.89c-.87-6.86-4.38-13.05-7.28-19.33a115.06,115.06,0,0,1-9.66-34l-6.91-20.51c-40-56.08-46.81-134.14-17.08-196.29,29.11-60.87,88.4-103.77,114.86-165.84,27.41-64.32,14.29-141-22.29-200.65S967.31,142.1,906,108.44C718.07,5.18,485.72-5.57,282.59,63.2c-39.77,13.46-79,30.06-112.59,55.27C90,178.57,51.91,280.36,38.59,379.53S32.63,579.58,23,679.18c-3.46,35.65-9,72.19.13,106.81,11.54,43.6,45.11,78.72,57.28,122.15,17.71,63.28-12.82,128.66-37.16,189.7s-41.46,135.61-2.31,188.39l10.31,26.34c5.82,42.79.59,87.29,13.34,128.55,15,48.55,53.9,87.13,98.81,110.91,12.73,6.75,26.15,12.5,40.33,15.06,27.65,5,56.05-2.54,82.13-13s51.05-23.86,78.07-31.56c33.92-9.67,69.81-9.94,105-7.58,15.5,1,31.18,2.63,45.71,8.12,13.88,5.26,26.18,13.89,38.32,22.43l53,37.27Z"></path>
    <path data-name="1a" data-official="" data-plain="Stamen" data-loc="" d="M242.6,2683.73c-4.16-14.86-8.33-29.76-10.65-45s-2.54-31.55,5.18-44.79,25.67-21.44,39.07-14c12.27,6.82,15.7,22.71,16.79,36.71,2.49,31.87-.19,65.4,13.54,94.27,3.17,6.67,7.27,13.4,6.91,20.77s-5.16,13.75-10.61,18.68a65.1,65.1,0,0,1-48.78,16.4c-3.21-.28-6.52-.85-9.19-2.65-4.33-2.9-6.11-8.34-7.14-13.46A89.84,89.84,0,0,1,240.1,2706Z"></path>
    <path data-name="1b" data-official="" data-plain="Ovary and Pistil" data-loc="" d="M346.12,2639.22c-1.69-13-7.1-25.24-11.07-37.76-9.69-30.56-10.56-64.89,3.08-93.91,5.59-11.91,13.55-22.89,16.63-35.68,4.37-18.13-1.56-37.94,4.82-55.46,1.2-3.31,2.94-6.6,5.81-8.64a19.26,19.26,0,0,1,8.14-2.85,69.63,69.63,0,0,1,20.23-.37,21.15,21.15,0,0,1,7.95,2.29c7.31,4.24,8.35,14.19,8.56,22.64.63,26.15,1.41,52.87,10.63,77.35,3.62,9.61,8.49,18.72,12,28.37a107,107,0,0,1,1.82,66.53c-3.28,10.9-8.3,21.27-10.82,32.37-7.36,32.46,7.44,67.07-.75,99.34-1.11,4.36-2.75,8.81-6.05,11.88-3.63,3.37-8.72,4.58-13.56,5.67-8.6,1.93-17.41,3.88-26.17,2.88s-17.63-5.52-21.49-13.45c-2.52-5.17-2.66-11.14-2.76-16.9l-.88-54.5Z"></path>
    <path data-name="1c" data-official="" data-plain="Section of Ovary" data-loc="" d="M465.13,2659.72c10.85-9.31,17.19-22.65,24.2-35.11s15.72-25,28.87-30.63c16.08-6.87,35.38-1.35,49,9.63s22.57,26.61,30.52,42.18c5.24,10.25,10.25,20.95,11.2,32.42s-3,24-12.46,30.49c-5.16,3.52-11.5,5-16.59,8.66-6.67,4.77-10.36,12.56-15.19,19.2-8.65,11.88-22.38,20.69-37.08,20.79s-29.63-10-32.66-24.35c-1.57-7.51-.09-15.78-3.66-22.57-4.43-8.45-14.88-11.47-22.12-17.7a30.36,30.36,0,0,1-9.59-29.12Z"></path>
    <path data-name="1d" data-official="" data-plain="Seed" data-loc="" d="M613.33,2645.79c5-8.37,14.47-13.34,24.07-15.18s19.49-.91,29.2.13c5.62.59,11.6,1.38,15.92,5,5.21,4.41,6.61,11.78,7.37,18.57a230.92,230.92,0,0,1-2.27,67c-1.73,9.54-4.39,19.54-11.48,26.14-9.74,9.07-24.71,9-37.89,7.25-3.72-.5-7.68-1.21-10.37-3.82-3.34-3.25-3.73-8.39-3.9-13.05l-3-78.27Z"></path>
    <path data-name="2" data-official="Billardiera linearis" data-plain="Slender-leaved Apple-berry" data-loc="Swan River" d="M2054.69,1846.9c-3.85-20.26-16.83-37.8-32.3-51.44s-33.5-24-50.85-35.13c-15.16-9.76-30-20.28-46.75-27-13.88-5.59-28.67-8.44-43.13-12.28A323.27,323.27,0,0,1,1730,1630.61l-11.12-3.56c-13.16,2.92-27.87-3.74-34.35-15.57-11.7-21.35,3.5-50.34-8.75-71.38a10.31,10.31,0,0,0-3.89-4.2,12.48,12.48,0,0,0-5.16-1c-6.27-.31-12.71-.6-18.7,1.29s-11.55,6.48-12.77,12.65l-14,3.78a9.66,9.66,0,0,1-15.13,3.48l-8.14-3.82q0-3.74,0-7.47c0-4.5.08-9.13,1.77-13.3,3-7.38,10.89-13.17,10.21-21.1a10.71,10.71,0,0,0-5.66-8.45l-7.79-1.78c-1.51-5-6.85-7.83-11.92-9.22-10.89-3-22.65-2-33.37,1.6s-20.49,9.6-29.4,16.54l-7.21,7.05-26.86,15.62-5.4-10.78c-3-28.59,15.51-55.42,16.29-84.16a69.87,69.87,0,0,0-16.68-47l-8.39-9.25a72.87,72.87,0,0,0-17-19.19,47,47,0,0,1-6.83-5.9c-5.47-6.35-5.79-15.65-4.45-23.92l.85-8.66-1.77-8.83-4.09-5c-8.4-7.54-19.66-10.81-30.16-15s-21.3-10.07-26-20.31l-10.88-7.17c5.06-2.55,10.36-5.32,13.38-10.11,2.12-3.35,2.88-7.35,4.09-11.12a33.6,33.6,0,0,1,7.13-12.8,21.48,21.48,0,0,1,12.73-6.89l.59-8.14a18.33,18.33,0,0,0-8.44,1.3c-1.44.59-2.8,1.36-4.25,1.91a29.56,29.56,0,0,1-4.66,1.22l-10.6,2.19-12,3.31c-4.23,2.64-5.32,8.16-7.09,12.82a34.68,34.68,0,0,1-14.33,17.24,3.32,3.32,0,0,1-2.07.68,3.71,3.71,0,0,1-1.84-1,40.84,40.84,0,0,0-11.25-6.65l-4-6.49c10-7.91,21.58-13.91,29.85-23.56l5.42-3.36a9.34,9.34,0,0,0-4.62-12.56,13.53,13.53,0,0,0-4-1,25.31,25.31,0,0,0-11.94,1.47l-7.93,2.49a77.41,77.41,0,0,1-18.73,21.22l-6.17.82c-4-.66-8.26.81-12.29,0a19.47,19.47,0,0,1-5-2c-4.63-2.4-9-5.22-13.39-8l-3.5-10.6c-3.62-.94-7.54.28-10.63,2.4s-5.5,5.07-7.87,8c-3.77,4.6-7.6,9.33-9.53,15l-4.2,13.5a52.8,52.8,0,0,1-9.79,23.45l-3.7,9.48a286,286,0,0,0-15.63,31.71c-3.87,9.25-7.26,18.7-11.11,28a294.34,294.34,0,0,1-28.51,52.59l-2.2-32a120.57,120.57,0,0,1,2.06-22.36c.8-4.26,1.83-8.54,1.53-12.86l8.69-12.51c-1.48-24.65-10.29-48.18-16.45-72.1-3.33-12.9-6.32-26.77-15.8-36.12-3-3-6.89-5.45-11.12-5.38-3.92.06-7.5,2.31-10.32,5a13.16,13.16,0,0,0-3.51,5,16.13,16.13,0,0,0-.65,4.54q-.35,8-.25,16.07a76.78,76.78,0,0,0,1.12,14c1.22,6.28,3.76,12.2,5.93,18.21,3.06,8.46,5.41,17.16,7.76,25.84l5.8,10c1.78,7.44,7.85,13.2,10.1,20.51a35.83,35.83,0,0,1,1.24,10.27,117.06,117.06,0,0,1-1.13,17.25l-6.94,2.62c-3.82,1.35-7.87,2.72-11.84,1.92h-9.34l-29.56-.41a108.81,108.81,0,0,1-14.56-.86c-15.15-2.28-29-11.18-38.28-23.35a30.47,30.47,0,0,1-5.44-10c-1.36-4.87-.77-10-.18-15.08l4.53-38.28-1.66-8.6q0-17.61-.08-35.22l4.18-8.64-2.28-6.31c-1.69-4.69-3.74-9.8-8.18-12.05a3.75,3.75,0,0,0-2.34-.5,4.62,4.62,0,0,0-2.08,1.25c-1.34,1.18-2.74,2.46-3.23,4.17s-.07,3.29-.44,4.89l-2.46,6.23c-.64,3.52.67,7.15.22,10.7-.38,3-1.94,5.62-3.48,8.18l-3.93,6.58-7,6.21c-4.19,6-12.37,7.65-19.69,7.56-3,0-6.18-.31-8.84-1.77-4-2.19-6.18-6.72-6.7-11.21s.42-9,1.39-13.43c1.89-8.59,4-17.25,8.19-25l1.69-7.69a22.87,22.87,0,0,1,5.7-18.94l13.08-14.16a11.2,11.2,0,0,1,8.25-9.8l11.85-3.05a42.17,42.17,0,0,0,26.28-46.32,7.85,7.85,0,0,0-1.67-4.19c-1.87-2-5.07-1.74-7.71-1.07-7.9,2-15,6.48-21.1,11.89s-11.29,11.74-16.46,18l-5.92,6.67a76.49,76.49,0,0,1-10.89,14.23l-9.71,8.88c.12,5.31-2.82,10.11-4.77,15-.57,1.44-1,2.91-1.54,4.38q-1.66,5-3.32,10l-3.52,1.36c-3.09-6-3.4-13.09-2.81-19.83s2-13.41,2.18-20.17l1.86-7c-1.37-4.58-1.73-9.45-3.41-13.93s-5.17-8.76-9.92-9.39a6.35,6.35,0,0,0-3.6.47c-3,1.48-3.62,5.46-3.9,8.81a229.44,229.44,0,0,1-5.14,32.76l-13.73,9c-10.58-6.28-19.73-16.24-21.69-28.38-.52-3.27-.52-6.62-1.22-9.85-.92-4.25-3-8.14-5.1-12l-6.31-11.63c-1.86-3.42-4.31-7.26-8.19-7.62-3.32-.31-6.32,2.22-7.94,5.13s-2.31,6.25-3.63,9.32c-2.89,6.71-8.68,11.68-14.57,16-6.81,5-14.38,9.6-22.8,10.28-10.92.87-22.5-4.86-32.46-.32l-5.57,4.39q3.85,10.13,7.7,20.23c1.21,3.2,2.43,6.39,3.49,9.64a109.33,109.33,0,0,1,2.56,58.45l-3.18,7.75c-6.11,4.45-7.81,12.62-10.44,19.71-2.5,6.73-5.19,13-7.76,19.65-8.46,22-4.27,46.6-7.12,70a29,29,0,0,1-2,8.4c-1.75,3.89-5,7.19-5.59,11.43l6.85,17.74c-2.41,14.83-10.21,28.17-18.23,40.87a779.37,779.37,0,0,1-50,70.19c-6.13,7.66-12.44,15.28-17,24-4,7.69-6.55,16.06-8.76,24.45a362.33,362.33,0,0,0-11.65,105.46l-3.29,7.74a15.74,15.74,0,0,1-20.27-7.16,5.23,5.23,0,0,0-1.32-1.93,5.3,5.3,0,0,0-2-.75c-6.6-1.63-11.29-7.3-15.49-12.64q-7.93-10.1-15.88-20.2l-17.23-27.63-53-37.27s-151.26-26.93-173.14,7.72c-16.92,26.8,10.92,54-.34,83.62C373.7,1652,361.7,1663.81,350,1675c-18.16,17.42-36.58,34.84-51.25,55.29s-25.53,44.4-26.53,69.55c-.28,7.07.26,14.35,3.27,20.75,6.17,13.1,20.86,19.48,34.35,24.76,79.61,31.18,163.89,62.94,248.39,49.92,24-3.7,49.33-10.88,71.93-1.91,5.23,2.07,10.49,5.4,12.36,10.7,1.76,5,.13,10.45-1.62,15.42a318.75,318.75,0,0,1-51.9,93.42l-12.55,19.85c-19.79,36.92-21.58,80.68-35.22,120.29-15.32,44.47-45,82.29-68,123.36-18.59,33.29-32.88,69.23-39.51,106.77-4,22.58-4.95,46.87,5.24,67.41s34.44,35.48,56.31,28.62c14.57-4.56,25-17.36,32.54-30.66,7.41-13.14,12.78-27.31,17.91-41.5q22-60.95,38.53-123.71c3.48-13.25,6.85-26.74,13.59-38.67s17.44-22.34,30.8-25.44c17-3.94,34.39,4.49,48.41,14.85s26.68,23.07,42.76,29.8,37.45,5.44,47.61-8.72l6.82-5.61.88-14.84c1.66-3.52,1.89-7.52,2-11.4.41-10.39.47-21-2.56-30.92l-5.89-10.14q-1.14-22.8-4.14-45.45l.32-15.22a129,129,0,0,0-3.29-20.86l-13.28-9.19c-10.45-8.72-13.48-23.26-15.87-36.66q-8.24-46.23-16.48-92.45l-2.77-16.77c-1.9-17.07-1.94-34.74-8.46-50.63-3.91-9.55-10-18.06-14.16-27.51-3.85-8.76-6.14-18.52-12.5-25.66l-1.94-6.79c3.52-4.43,10.19-5,15.62-3.43s10.22,4.84,15.48,6.94a38,38,0,0,0,10.61,2.56,16.45,16.45,0,0,1,5,.91,23.09,23.09,0,0,1,3.7,2.46,15.46,15.46,0,0,0,7.38,2.65l21.47,17.27a225.75,225.75,0,0,1,27.12,78.43c1.87,12.57,2.67,25.31,4.91,37.83,2.62,14.65,7.19,28.87,11.74,43l-6,17.39a92.3,92.3,0,0,0,2.21,13.2l.63,2.88,3.6,16.47,10.44,18.59a200.25,200.25,0,0,1,5.84,44.61L812.83,2152q1.53,16.85,3.75,33.63l16.78,25.21,17.52-7.93c11.07-2.18,18.3-12.45,27.11-19.48,14.38-11.47,33.69-14.5,52.08-15s37,1,55-3c23.19-5.18,43.37-19.21,61.65-34.39,10.61-8.8,20.88-18.18,29-29.35,14.48-20.06,21-44.58,30.32-67.5,6.16-15.15,13.63-29.78,19-45.25s8.44-32.13,5.51-48.22l2.88-14q2.87-9,5.72-17.91c.6-1.88,1.41-4,3.26-4.7l3.58-9.14c3.15-2.17,6.31-5.33,9.46-7.5a24.17,24.17,0,0,0,4.22-3.38c1.06-1.16,1.89-2.52,3-3.64,6.06-6.19,18.29-.54,25.24-5.7l10.56-.3a425,425,0,0,0,76.19-22.1c4.74-1.87,9.58-3.91,13.2-7.5s5.78-9.12,4-13.9c-2.16-5.84-8.88-8.32-14.78-10.35-8.22-2.82-16.52-6.23-22.79-12.25s-10.17-15.22-7.76-23.58c3.21-11.15,18.48-16.69,28.1-10.18l15.87,1.64a108.84,108.84,0,0,1,32.41,28.07c4.31,5.58,8.13,11.71,9.81,18.55l6.58,3.77a46.94,46.94,0,0,0,26.55-.39,15,15,0,0,0,4.81-2.29c2.39-1.86,3.66-4.77,4.84-7.56,1.31-3.11,2.64-6.31,2.75-9.68s-1.29-7-4.25-8.63c-1.93-1-4.21-1.12-6.4-1.29a57,57,0,0,1-13.91-2.87l-5.92-2.34c-6.22-9.09-16.43-15.1-21.73-24.76L1316,1755l-10.07-6.17a71.25,71.25,0,0,0-8.6-4.74c-7.27-3.19-16-4.19-21.34-10a4.73,4.73,0,0,1-1.39-2.46,2,2,0,0,1,1.32-2.26l4.94-4.41a130.85,130.85,0,0,0,59.88-29.42,66.49,66.49,0,0,1,7.72-6.22,16.49,16.49,0,0,1,9.34-2.86l6.17-9.76c2.14-4.36,3.57-10.13.24-13.66-1.48-1.55-3.69-2.39-4.8-4.23-2-3.38.91-7.68,4.27-9.75,5.88-3.63,13.28-4.2,20-2.71s12.92,4.88,18.66,8.73a119.7,119.7,0,0,1,30,28.87l7.79,4.32a39.79,39.79,0,0,0,6.13-17l.77-13.06a30.66,30.66,0,0,1,1.22-8.35l5.76-4.69a5.26,5.26,0,0,1,2.14,2.66l10.41,21.45-11,11.29-3.21,11.11a80.73,80.73,0,0,1-4.85,13.64l-1,11.64c-4.43,28.79-8.93,57.81-19,85.14-4,10.94-9,21.54-13.87,32.12q-8.4,18.09-16.81,36.2l-1.18,3.82a13.16,13.16,0,0,0-2.52,10.64l1.86,10.43a100.39,100.39,0,0,0,.34,21.85c.2,1.59.5,3.3,1.69,4.37s3,1.17,4.57,1.22l9.93.28.2,8.84a79.19,79.19,0,0,1,.55,14.6l3.24,10.21a41.83,41.83,0,0,0,2.43,18.18c-3.49,3.57-2.34,9.44-3.69,14.24-.6,2.14-1.72,4.09-2.38,6.21s-.77,4.58.52,6.39c1.09,1.54,3,2.29,4.75,2.89a79.64,79.64,0,0,0,23.09,4.16l14.54,3.91a124.65,124.65,0,0,0,52,5.1c3.51-.4,7.1-1,10.15-2.76,4.21-2.44,7-6.88,11.18-9.32,9-5.21,21.27.14,30.28-5,2.69-1.53,4.84-3.88,7.51-5.46,5.65-3.34,13-2.72,19,0s11,7.17,15.85,11.57c17.47,15.73,35.45,31.3,56.31,42.13s45.14,16.66,68.12,11.73c18.59-4,35-14.61,52.62-21.69,33.79-13.56,71.25-13.9,106.8-21.74,12.48-2.75,25.5-6.91,33.68-16.72l9-9.51,61.48-20.32c6.72-2.22,13.55-4.49,19.35-8.55,8.57-6,14.11-15.32,19.4-24.35C2043.79,1909.82,2060.74,1878.68,2054.69,1846.9ZM624.41,1638.53l3.1-6.33a50,50,0,0,1,3.11,4c3.63,4.67,8.61,8.06,13.51,11.37l-5.38-1a34,34,0,0,1-8.28-2.23A11.52,11.52,0,0,1,624.41,1638.53Zm95,176.64c-14.27.55-29.13-1.86-42.49,3.2l-10.6-6.78c-11.3-28.37-18.79-58.08-26.24-87.69-4.61-18.29-9.25-36.85-8.76-55.7l1.26-5.5c12-1.39,23.85,2.9,34.54,8.42,5.49,2.85,11.1,6.34,13.81,11.9l3.54,6.94c-3.8,8.85-1.12,19,2.21,28.09,1.35,3.67,2.81,7.31,4.27,11l9.78,24.45,4,6.77,18.11,31.42a59.49,59.49,0,0,1,4.61,9.16l4.64,9.12C729.63,1814,724.16,1815,719.38,1815.17Zm489.81-409.28a19,19,0,0,0,10.73-.07c3.34-1,6.33-2.94,9.51-4.4s6.81-2.44,10.16-1.45c5,1.48,7.78,6.74,10,11.5l3.55,9a47.77,47.77,0,0,1,0,11.21l-4.71,7a51.57,51.57,0,0,1-29.34,18,16.16,16.16,0,0,1-4.32.45c-4.27-.24-7.85-3.17-11.1-6Zm-172.38,333a4.88,4.88,0,0,1-2.78,2.19,5.43,5.43,0,0,1-2.79.65,3.87,3.87,0,0,1-2.82-2.19,11.22,11.22,0,0,1-.94-3.57c-.64-4.23-1.18-8.9,1.2-12.45l5.59,1.12c0,3.14,0,6.39,1.35,9.24C1036.36,1735.54,1037.51,1737.31,1036.81,1738.94Zm140.51,100-5.48,12.66-25.3,16.83-5.81-9.66a147.82,147.82,0,0,1,.93-18.82l2.43-15.1c6.41-17.59,13-35.48,24.24-50.44a9.92,9.92,0,0,1,3.84-3.5c1.62-.68,3.81-.32,4.64,1.23l1,15.67Q1177.57,1813.38,1177.32,1838.94Zm190.21-370.2a23.08,23.08,0,0,0-10.26,16.82c-.74,7.41,1.93,15.82-2.51,21.79a21.66,21.66,0,0,1-5,4.43l-9.33,6.68-13.65,7.52c-19.18,4.62-39.1,5-58.83,5.45-5.72.12-11.7.18-16.81-2.39-6.83-3.43-11.31-11.18-18.78-12.77-5.42-1.14-11,1.4-15.22,5s-7.29,8.32-10.88,12.54c-3.21,3.77-6.84,7.21-9.76,11.23-6.34,8.73-9,19.68-15.19,28.53l-2.29,12.1c-4.33,13.78-5.3,28.35-7.28,42.66a299.41,299.41,0,0,1-7.17,35.74c-2.34,8.82-5.07,17.52-7.8,26.21q-5.88,18.72-11.75,37.42l-11.7,2.81c-8,6.54-19,7.63-29.34,8-5.62.17-11.31.19-16.79-1.1s-10.77-4-14.22-8.43l-10.9.85a33.82,33.82,0,0,1-5.81-6l-9.07-11.09a20,20,0,0,1-3.65-5.66c-1.39-3.88-.28-8.16.85-12.13l1.59-5.65-1.09-10a40.87,40.87,0,0,0-7.29-24.72c-3.25-4.64-7.45-8.58-10.5-13.35s-4.88-10.87-2.71-16.11a20.48,20.48,0,0,1,3.19-5c17.92-22,47.52-30.86,68.28-50.19,4.21-3.93,8-8.26,12.31-12.13,5.88-5.31,12.57-9.68,18.4-15.06,13.61-12.56,21.74-29.87,28.68-47l4.57-5.12a167.49,167.49,0,0,1,22.51-.55l12.39-.82a71.3,71.3,0,0,0,11.24-1.89c2.65-.66,5.26-1.48,7.89-2.24a184,184,0,0,1,22.36-4.95l9.66-2.17,21.16-11.69c13.82-7.64,27.67-15.29,42.23-21.4l7.29-2.42,9.84.37c.9,0,1.79.06,2.69,0a37.33,37.33,0,0,0,6.8-1.08l8.83,1.22c4.75.42,9.57.85,14.06,2.47s8.69,4.61,10.75,8.92Zm108,102.71,3.77-7.41a19.57,19.57,0,0,1,7.92-9.79,45.7,45.7,0,0,1,11.68-5.2l-.34,7.52c-.52,2.74-1,5.48-1.55,8.22l-2,6.24a21,21,0,0,1-21.91,13.72l-.37-5.1A34.52,34.52,0,0,0,1475.53,1571.45Zm77.32,89.3L1538.4,1659c-8.46.93-16.5-3.24-24.51-6.1a83.28,83.28,0,0,0-22.45-4.66l-9.73-1a34,34,0,0,1-7.06-4.27c-5.58-4.75-8.15-13.1-15-15.7l2.15-6.92a33.19,33.19,0,0,1,1.71-14.92l3.31-6.35a148.55,148.55,0,0,0,20.74-3.65l11.33-2.58a29.07,29.07,0,0,0,16.19-1.4,59.65,59.65,0,0,0,8.68-4.44l16.13-9.39,18.23-8.71c.79.48,1.69-.4,2.29-1.11a10.26,10.26,0,0,1,8.15-3.5q-3.54,14.21-8.13,28.14l-2,10.67q-.57,8.27-.83,16.55c-.14,4.71-.17,9.6,1.83,13.86,2.53,5.4,8,9,10.63,14.31,1.64,3.31,2.17,7.17,4.31,10.17Z"></path>
    <path data-name="2a" data-official="" data-plain="Stamen and Pistil" data-loc="" d="M734.94,2684.69c3.61-15.73-2.77-31.86-3.86-48-1.69-24.8,9.18-48.6,20.88-70.52,3.5-6.55,7.55-13.49,14.35-16.49,9.72-4.29,21.58,1.6,27.26,10.58s6.61,20.09,6.75,30.72c.29,20.9-1.81,41.87.23,62.67,1.72,17.42,6.34,34.65,5.61,52.14s-8.3,36.23-24.11,43.75c-15.36,7.32-34.45,1.78-47.3-9.37-10.66-9.24-18.32-24.06-13.73-37.39Z"></path>
    <path data-name="2b" data-official="" data-plain="Pistil" data-loc="" d="M827.49,2665c-2.71-34.13-5.22-69.7,7.57-101.46,2.87-7.13,7.76-14.87,15.42-15.47,5.73-.45,11.07,3.54,13.93,8.51s3.76,10.82,4.59,16.5l13,87.76c2.6,17.62,5.1,36.21-1.53,52.73a50.79,50.79,0,0,1-15.66,20.89c-4.2,3.31-9.14,6-14.48,6.36-10.2.67-19.28-7.56-23-17.09s-3.23-20.09-2.71-30.3Z"></path>
    <path data-name="2c" data-official="" data-plain="Section of Fruit" data-loc="" d="M900,2644.57c-3.45-22.66-9.71-45.29-7.73-68.13s14.79-46.8,36.83-53.12a49.09,49.09,0,0,1,20.58-1.07,60.67,60.67,0,0,1,50.88,70.53c-1.8,10.27-6.2,19.87-9.09,29.89-7.4,25.66-4.64,53-1.83,79.57.83,7.89,1.63,16.07-.9,23.58-3.18,9.45-11.43,16.63-20.72,20.24s-19.56,4-29.48,3.1a31.49,31.49,0,0,1-10.91-2.52c-6.2-3-10.23-9.23-12.6-15.69-2.61-7.12-3.56-14.73-4.5-22.27l-5.69-46Z"></path>
    <path data-name="2d" data-official="" data-plain="Seed" data-loc="" d="M1002,2660.42c-2.18-6.89-4.27-14-4-21.19s3.37-14.72,9.52-18.52c7.66-4.72,17.86-2.52,25.52,2.2a45.36,45.36,0,0,1,16.06,17c7.05,13.11,7.2,28.75,6.39,43.61-.8,14.53-3.44,30.94-15.51,39.06-6.77,4.55-15.25,5.51-23.37,6.35-3.34.34-7,.61-9.77-1.28-2-1.36-3.19-3.63-4.17-5.86a69.17,69.17,0,0,1-4.19-42.67Z"></path>
    <path data-name="3" data-official="Bursaria spinosa" data-plain="Thorny Bursaria" data-loc="New South Wales" d="M1209.19,1405.89a19,19,0,0,0,10.73-.07c3.34-1,6.33-2.94,9.51-4.4s6.81-2.44,10.16-1.45c5,1.48,7.78,6.74,10,11.5l3.55,9a47.77,47.77,0,0,1,0,11.21l-4.71,7a51.57,51.57,0,0,1-29.34,18,16.16,16.16,0,0,1-4.32.45c-4.27-.24-7.85-3.17-11.1-6Zm-172.38,333a4.88,4.88,0,0,1-2.78,2.19,5.43,5.43,0,0,1-2.79.65,3.87,3.87,0,0,1-2.82-2.19,11.22,11.22,0,0,1-.94-3.57c-.64-4.23-1.18-8.9,1.2-12.45l5.59,1.12c0,3.14,0,6.39,1.35,9.24C1036.36,1735.54,1037.51,1737.31,1036.81,1738.94Zm140.51,100-5.48,12.66-25.3,16.83-5.81-9.66a147.82,147.82,0,0,1,.93-18.82l2.43-15.1c6.41-17.59,13-35.48,24.24-50.44a9.92,9.92,0,0,1,3.84-3.5c1.62-.68,3.81-.32,4.64,1.23l1,15.67Q1177.57,1813.38,1177.32,1838.94Zm190.21-370.2a23.08,23.08,0,0,0-10.26,16.82c-.74,7.41,1.93,15.82-2.51,21.79a21.66,21.66,0,0,1-5,4.43l-9.33,6.68-13.65,7.52c-19.18,4.62-39.1,5-58.83,5.45-5.72.12-11.7.18-16.81-2.39-6.83-3.43-11.31-11.18-18.78-12.77-5.42-1.14-11,1.4-15.22,5s-7.29,8.32-10.88,12.54c-3.21,3.77-6.84,7.21-9.76,11.23-6.34,8.73-9,19.68-15.19,28.53l-2.29,12.1c-4.33,13.78-5.3,28.35-7.28,42.66a299.41,299.41,0,0,1-7.17,35.74c-2.34,8.82-5.07,17.52-7.8,26.21q-5.88,18.72-11.75,37.42l-11.7,2.81c-8,6.54-19,7.63-29.34,8-5.62.17-11.31.19-16.79-1.1s-10.77-4-14.22-8.43l-10.9.85a33.82,33.82,0,0,1-5.81-6l-9.07-11.09a20,20,0,0,1-3.65-5.66c-1.39-3.88-.28-8.16.85-12.13l1.59-5.65-1.09-10a40.87,40.87,0,0,0-7.29-24.72c-3.25-4.64-7.45-8.58-10.5-13.35s-4.88-10.87-2.71-16.11a20.48,20.48,0,0,1,3.19-5c17.92-22,47.52-30.86,68.28-50.19,4.21-3.93,8-8.26,12.31-12.13,5.88-5.31,12.57-9.68,18.4-15.06,13.61-12.56,21.74-29.87,28.68-47l4.57-5.12a167.49,167.49,0,0,1,22.51-.55l12.39-.82a71.3,71.3,0,0,0,11.24-1.89c2.65-.66,5.26-1.48,7.89-2.24a184,184,0,0,1,22.36-4.95l9.66-2.17,21.16-11.69c13.82-7.64,27.67-15.29,42.23-21.4l7.29-2.42,9.84.37c.9,0,1.79.06,2.69,0a37.33,37.33,0,0,0,6.8-1.08l8.83,1.22c4.75.42,9.57.85,14.06,2.47s8.69,4.61,10.75,8.92Zm108,102.71,3.77-7.41a19.57,19.57,0,0,1,7.92-9.79,45.7,45.7,0,0,1,11.68-5.2l-.34,7.52c-.52,2.74-1,5.48-1.55,8.22l-2,6.24a21,21,0,0,1-21.91,13.72l-.37-5.1A34.52,34.52,0,0,0,1475.53,1571.45Zm77.32,89.3L1538.4,1659c-8.46.93-16.5-3.24-24.51-6.1a83.28,83.28,0,0,0-22.45-4.66l-9.73-1a34,34,0,0,1-7.06-4.27c-5.58-4.75-8.15-13.1-15-15.7l2.15-6.92a33.19,33.19,0,0,1,1.71-14.92l3.31-6.35a148.55,148.55,0,0,0,20.74-3.65l11.33-2.58a29.07,29.07,0,0,0,16.19-1.4,59.65,59.65,0,0,0,8.68-4.44l16.13-9.39,18.23-8.71c.79.48,1.69-.4,2.29-1.11a10.26,10.26,0,0,1,8.15-3.5q-3.54,14.21-8.13,28.14l-2,10.67q-.57,8.27-.83,16.55c-.14,4.71-.17,9.6,1.83,13.86,2.53,5.4,8,9,10.63,14.31,1.64,3.31,2.17,7.17,4.31,10.17ZM1657,2048.88c-20.86-10.83-38.84-26.4-56.31-42.13-4.88-4.4-9.85-8.89-15.85-11.57s-13.31-3.31-19,0c-2.67,1.58-4.82,3.93-7.51,5.46-9,5.1-21.32-.25-30.28,5-4.21,2.44-7,6.88-11.18,9.32-3.05,1.78-6.64,2.36-10.15,2.76a124.65,124.65,0,0,1-52-5.1l-14.54-3.91a79.64,79.64,0,0,1-23.09-4.16c-1.79-.6-3.66-1.35-4.75-2.89-1.29-1.81-1.17-4.28-.52-6.39s1.78-4.07,2.38-6.21c1.35-4.8.2-10.67,3.69-14.24a41.83,41.83,0,0,1-2.43-18.18l-3.24-10.21a79.19,79.19,0,0,0-.55-14.6l-.2-8.84-9.93-.28c-1.61,0-3.37-.15-4.57-1.22s-1.49-2.78-1.69-4.37a100.39,100.39,0,0,1-.34-21.85l-1.86-10.43a13.16,13.16,0,0,1,2.52-10.64l1.18-3.82q8.42-18.11,16.81-36.2c4.91-10.58,9.83-21.18,13.87-32.12,10.1-27.33,14.6-56.35,19-85.14l1-11.64a80.73,80.73,0,0,0,4.85-13.64l3.21-11.11,11-11.29-10.41-21.45a5.26,5.26,0,0,0-2.14-2.66l-5.76,4.69a30.66,30.66,0,0,0-1.22,8.35l-.77,13.06a39.79,39.79,0,0,1-6.13,17l-7.79-4.32a119.7,119.7,0,0,0-30-28.87c-5.74-3.85-11.92-7.23-18.66-8.73s-14.15-.92-20,2.71c-3.36,2.07-6.31,6.37-4.27,9.75,1.11,1.84,3.32,2.68,4.8,4.23,3.33,3.53,1.9,9.3-.24,13.66l-6.17,9.76a16.49,16.49,0,0,0-9.34,2.86,66.49,66.49,0,0,0-7.72,6.22,130.85,130.85,0,0,1-59.88,29.42l-4.94,4.41a2,2,0,0,0-1.32,2.26,4.73,4.73,0,0,0,1.39,2.46c5.38,5.84,14.07,6.84,21.34,10a71.25,71.25,0,0,1,8.6,4.74L1316,1755l10,11.73c5.3,9.66,15.51,15.67,21.73,24.76l5.92,2.34a57,57,0,0,0,13.91,2.87c2.19.17,4.47.24,6.4,1.29,3,1.62,4.35,5.26,4.25,8.63s-1.44,6.57-2.75,9.68c-1.18,2.79-2.45,5.7-4.84,7.56a15,15,0,0,1-4.81,2.29,46.94,46.94,0,0,1-26.55.39l-6.58-3.77c-1.68-6.84-5.5-13-9.81-18.55a108.84,108.84,0,0,0-32.41-28.07l-15.87-1.64c-9.62-6.51-24.89-1-28.1,10.18-2.41,8.36,1.49,17.55,7.76,23.58s14.57,9.43,22.79,12.25c5.9,2,12.62,4.51,14.78,10.35,1.77,4.78-.39,10.31-4,13.9s-8.46,5.63-13.2,7.5a425,425,0,0,1-76.19,22.1l-10.56.3c-7,5.16-19.18-.49-25.24,5.7-1.1,1.12-1.93,2.48-3,3.64a24.17,24.17,0,0,1-4.22,3.38c-3.15,2.17-6.31,5.33-9.46,7.5l-3.58,9.14c-1.85.7-2.66,2.82-3.26,4.7q-2.85,9-5.72,17.91l-2.88,14c2.93,16.09-.19,32.75-5.51,48.22l10.66,11.47c15.43,12.36,19,34.07,20.85,53.75,11.45,122-.93,246.42,23.18,366.61,6.32,31.46,15.14,62.72,15.79,94.81.29,14.47-.89,29.84,6.16,42.49,11.39,20.44,41.22,24.61,61.87,13.58s33.21-32.95,40.75-55.11a201.51,201.51,0,0,0-.35-129.86c-4.41-12.72-10.13-26.67-4.93-39.09,2.67-6.4,7.93-11.34,13.35-15.67,45.21-36.17,107.83-42.12,165.35-35.59s113.5,23.93,171.18,28.78c49.38,4.15,105.51-4.21,135.45-43.7l-6.37-26.52c4.27-9.66,8.57-19.44,10.43-29.84,3.85-21.48-3.27-43.84-15.39-62s-28.92-32.64-46.16-46q-13.62-10.59-27.8-20.44ZM1464.93,311.29c-11-45.42-22.66-92.17-50.35-129.83-11.95-16.26-26.56-30.33-41.15-44.27-10.91-10.43-22.07-21-35.6-27.7-33.79-16.76-76.56-5.33-104.75,19.72s-44.06,61.18-54.46,97.43l5,19.71a902.49,902.49,0,0,0-25.37,87.39c-7.83,33.11-15,68.91-39.63,92.39l-35,20.47c-26.46,62.07-85.75,105-114.86,165.84C939,674.59,945.77,752.65,985.79,808.73l6.91,20.51a115.06,115.06,0,0,0,9.66,34c2.9,6.28,6.41,12.47,7.28,19.33l1.78,13.89a18.4,18.4,0,0,1,.85,9.75,3.76,3.76,0,0,1-.84,2,3.54,3.54,0,0,1-1.69.83c-5.41,1.39-11-.72-16.49-1.81-10.63-2.11-21.65-.34-32.2,2.17-6,1.42-12.12,3.19-16.81,7.16-3.13,2.64-5.42,6.11-7.91,9.35-4.3,5.61-9.26,10.68-13.62,16.25s-8.15,11.77-9.61,18.69l-9.93,12.4c-8.43,25.46-29.92,44.06-50.76,61l0,9.36c-7.22,17-3.36,38.22,9.42,51.62l16,11.92c1.32-3.07,2-6.41,3.63-9.32s4.62-5.44,7.94-5.13c3.88.36,6.33,4.2,8.19,7.62L904,1111.9c2.08,3.82,4.18,7.71,5.1,12,.7,3.23.7,6.58,1.22,9.85,2,12.14,11.11,22.1,21.69,28.38l13.73-9a229.44,229.44,0,0,0,5.14-32.76c.28-3.35.88-7.33,3.9-8.81a6.35,6.35,0,0,1,3.6-.47c4.75.63,8.24,4.91,9.92,9.39s2,9.35,3.41,13.93l-1.86,7c-.16,6.76-1.59,13.43-2.18,20.17s-.28,13.81,2.81,19.83L974,1180q1.66-5,3.32-10c.49-1.47,1-2.94,1.54-4.38,2-4.94,4.89-9.74,4.77-15l9.71-8.88a76.49,76.49,0,0,0,10.89-14.23l5.92-6.67c5.17-6.3,10.36-12.64,16.46-18s13.2-9.89,21.1-11.89c2.64-.67,5.84-.91,7.71,1.07a7.85,7.85,0,0,1,1.67,4.19,42.17,42.17,0,0,1-26.28,46.32l-11.85,3.05a11.2,11.2,0,0,0-8.25,9.8l-13.08,14.16a22.87,22.87,0,0,0-5.7,18.94l-1.69,7.69c-4.19,7.72-6.3,16.38-8.19,25-1,4.41-1.9,8.93-1.39,13.43s2.74,9,6.7,11.21c2.66,1.46,5.8,1.74,8.84,1.77,7.32.09,15.5-1.55,19.69-7.56l7-6.21,3.93-6.58c1.54-2.56,3.1-5.22,3.48-8.18.45-3.55-.86-7.18-.22-10.7l2.46-6.23c.37-1.6,0-3.31.44-4.89s1.89-3,3.23-4.17a4.62,4.62,0,0,1,2.08-1.25,3.75,3.75,0,0,1,2.34.5c4.44,2.25,6.49,7.36,8.18,12.05l2.28,6.31-4.18,8.64q0,17.61.08,35.22l1.66,8.6-4.53,38.28c-.59,5-1.18,10.21.18,15.08a30.47,30.47,0,0,0,5.44,10c9.3,12.17,23.13,21.07,38.28,23.35a108.81,108.81,0,0,0,14.56.86l29.56.41h9.34c4,.8,8-.57,11.84-1.92l6.94-2.62a117.06,117.06,0,0,0,1.13-17.25,35.83,35.83,0,0,0-1.24-10.27c-2.25-7.31-8.32-13.07-10.1-20.51l-5.8-10c-2.35-8.68-4.7-17.38-7.76-25.84-2.17-6-4.71-11.93-5.93-18.21a76.78,76.78,0,0,1-1.12-14q-.11-8,.25-16.07a16.13,16.13,0,0,1,.65-4.54,13.16,13.16,0,0,1,3.51-5c2.82-2.71,6.4-5,10.32-5,4.23-.07,8.11,2.41,11.12,5.38,9.48,9.35,12.47,23.22,15.8,36.12,6.16,23.92,15,47.45,16.45,72.1l-8.69,12.51c.3,4.32-.73,8.6-1.53,12.86a120.57,120.57,0,0,0-2.06,22.36l2.2,32a294.34,294.34,0,0,0,28.51-52.59c3.85-9.26,7.24-18.71,11.11-28a286,286,0,0,1,15.63-31.71l3.7-9.48a52.8,52.8,0,0,0,9.79-23.45l4.2-13.5c1.93-5.63,5.76-10.36,9.53-15,2.37-2.9,4.78-5.85,7.87-8s7-3.34,10.63-2.4l3.5,10.6c4.38,2.81,8.76,5.63,13.39,8a19.47,19.47,0,0,0,5,2c4,.81,8.24-.66,12.29,0l6.17-.82a77.41,77.41,0,0,0,18.73-21.22l7.93-2.49a25.31,25.31,0,0,1,11.94-1.47,13.53,13.53,0,0,1,4,1,9.34,9.34,0,0,1,4.62,12.56l-5.42,3.36c-8.27,9.65-19.9,15.65-29.85,23.56l4,6.49a40.84,40.84,0,0,1,11.25,6.65,3.71,3.71,0,0,0,1.84,1,3.32,3.32,0,0,0,2.07-.68,34.68,34.68,0,0,0,14.33-17.24c1.77-4.66,2.86-10.18,7.09-12.82l12-3.31,10.6-2.19a29.56,29.56,0,0,0,4.66-1.22c1.45-.55,2.81-1.32,4.25-1.91a18.33,18.33,0,0,1,8.44-1.3l-.59,8.14a21.48,21.48,0,0,0-12.73,6.89,33.6,33.6,0,0,0-7.13,12.8c-1.21,3.77-2,7.77-4.09,11.12-3,4.79-8.32,7.56-13.38,10.11l10.88,7.17c4.75,10.24,15.55,16.17,26,20.31s21.76,7.42,30.16,15l4.09,5,1.77,8.83-.85,8.66c-1.34,8.27-1,17.57,4.45,23.92a47,47,0,0,0,6.83,5.9,72.87,72.87,0,0,1,17,19.19l8.39,9.25a69.87,69.87,0,0,1,16.68,47c-.78,28.74-19.31,55.57-16.29,84.16l5.4,10.78,26.86-15.62,7.21-7.05c8.91-6.94,18.68-13,29.4-16.54s22.48-4.59,33.37-1.6c5.07,1.39,10.41,4.2,11.92,9.22l7.79,1.78a10.71,10.71,0,0,1,5.66,8.45c.68,7.93-7.24,13.72-10.21,21.1-1.69,4.17-1.74,8.8-1.77,13.3q0,3.73,0,7.47l8.14,3.82a9.66,9.66,0,0,0,15.13-3.48l14-3.78c1.22-6.17,6.77-10.75,12.77-12.65s12.43-1.6,18.7-1.29a12.48,12.48,0,0,1,5.16,1,10.31,10.31,0,0,1,3.89,4.2c12.25,21-3,50,8.75,71.38,6.48,11.83,21.19,18.49,34.35,15.57l11.12,3.56,13.67-7c14.65,2.4,29.21-5.48,40-15.7s19-22.87,29.45-33.38c16.67-16.72,38.45-27.4,60.59-35.64s45.06-14.36,66.79-23.62c12.52-5.34,24.82-11.86,34.43-21.5,20-20.07,25.54-51.29,20.34-79.15l.92-21.3a117.67,117.67,0,0,0-55.48-75.22c-20.52-11.79-46.18-18.7-57.75-39.35-10.33-18.46-5.18-42.35,6.6-59.94s29.13-30.48,45.31-44.12c81.28-68.53,141-172.65,127-278-1.7-12.78-4.56-25.69-11.21-36.74-17.51-29.09-57.06-37.65-90.39-31.13-23.73,4.65-48.09,15.35-71.13,8-39.79-12.66-47.9-68.62-83.63-90.21-19.57-11.83-43.85-11.19-66.63-13.22s-48.05-9.05-59-29.14c-5.4-9.93-6.38-21.57-7.55-32.82a650.9,650.9,0,0,0-49.1-189c-11.63-27.12-25.34-53.79-45-75.77-23.21-25.91-53.59-44.11-83.47-61.9Z"></path>
    <path data-name="3a" data-official="" data-plain="Seed-vessel" data-loc="" d="M1350,2581.45c2.32-11.49,11.38-20.79,21.93-25.89s22.5-6.55,34.21-7c14.55-.56,29.85.49,42.27,8.08,13.23,8.09,21.6,23.23,22.36,38.72s-5.77,31-16.7,42c-5.13,5.16-11.34,9.62-14.43,16.21-6,12.85,2,27.55,3.28,41.68,1.56,16.73-7.24,33.76-21.24,43.05s-32.53,10.9-48.32,5.15a10.26,10.26,0,0,1-4.65-2.81,9.83,9.83,0,0,1-1.74-5.54c-1.63-20.79,13.24-38.68,22.25-57.49a15.25,15.25,0,0,0,2-6.72c-.05-2.71-1.43-5.2-2.92-7.47-6.67-10.12-16.27-17.91-24.17-27.1s-14.35-20.92-12.61-32.92Z"></path>
    <path data-name="3b" data-official="" data-plain="Seed" data-loc="" d="M1478.36,2622c6.82-10.11,22.22-11.35,32.87-5.4s17.31,17.11,22,28.36a145.23,145.23,0,0,1,11.25,58.15c-.06,4.53-.37,9.16-2.06,13.37-2.22,5.53-6.64,9.84-11,13.89-8,7.45-16.8,14.86-27.47,17.29s-23.68-1.83-27.61-12.05c-3.54-9.23,1.15-19.39,1.76-29.26.75-12.33-4.92-24-9-35.65s-6.32-25.41.49-35.71Z"></path>
    <path data-name="4a" data-official="" data-plain="Stamens and Pistil" data-loc="" d="M1575.75,2614.27c-.11-7.65-4.67-14.46-6.5-21.89-3.21-13.08,2.59-27.22,12.25-36.61s22.65-14.62,35.73-17.84c8-2,17.26-4,21.44-11.12,2.46-4.22,2.57-9.37,4.12-14,3-8.89,11.38-15.32,20.52-17.4s18.84-.22,27.39,3.62c5.32,2.39,10.41,5.63,13.91,10.3,9.84,13.07,4.7,33,13.87,46.53,3,4.49,7.44,7.93,10.32,12.52,4.39,6.95,4.75,15.73,3.72,23.88a81,81,0,0,1-9.41,28.91c-4.2,7.59-9.65,14.57-12.58,22.74-6.77,18.84,1,39.47,1.7,59.48.17,5.26-.19,10.69-2.45,15.44-3.15,6.65-9.54,11.11-16,14.69A124.3,124.3,0,0,1,1661.3,2746c-10.69,2.44-24.6,1.95-29.26-8-3.08-6.56-.48-14.19.73-21.34,2.83-16.82-2.61-34.18-11.56-48.7s-21.21-26.63-33.35-38.6Z"></path>
    <path data-name="4b" data-official="" data-plain="Section of Fruit" data-loc="" d="M1752.52,2604.06c1.86-12,3.93-24.59,11.21-34.33,10.12-13.54,27.9-18.6,44.58-21.35a291.58,291.58,0,0,1,60.48-3.56c7.81.36,15.76,1.07,23,4.06,12.26,5.09,21.18,16.44,25.64,28.94s4.89,26.11,3.86,39.34c-1.76,22.78-8,45.86-22.21,63.79-5,6.28-10.9,12-14.19,19.27-3.49,7.74-3.7,16.69-7.42,24.33-4.92,10.13-15.49,16.59-26.43,19.28s-22.37,2.13-33.62,1.55c-5.08-.26-10.43-.6-14.69-3.37-9.18-6-8.77-19.11-11.07-29.8-2.61-12.12-9.77-22.66-15.52-33.64a154.5,154.5,0,0,1-16.2-51.08Z"></path>
</svg>
