
<svg xmlns="http://www.w3.org/2000/svg" viewBox="0 0 1954 2962" id="illustration" preserveAspectRatio="xMidYMid meet">
    <title>Linaceæ</title>
    <path data-name="1" data-official="Linum usitatissimum" data-plain="Common Flax" data-loc="England" d="M1160.93,2264.46c-6.62-4.6-14.77-8.75-22.45-6.31l-13.69,5.35a67.39,67.39,0,0,0-25.8,15.63c-3.14,3-6,6.46-9.81,8.68-3.39,2-7.29,2.92-11.12,3.82-9.85,2.32-19.88,4.65-30,4l-11.86-12.27-31.39.28c-8.67.08-18.55-.35-24.18-7-4.06-4.77-4.71-11.48-5.18-17.73l-2.41-32.17c-.21-2.91-.47-6-2-8.42s-4.82-4.14-7.46-2.89l-6.89-11.4-7.51-2.22c-5.09-1.51-10.19-3-15.24-4.67l-9.34,23.25c-14.31,64.06-10.38,130.61-6.38,196.12l4.29,28.81c1.76,11.34,1.7,22.88,1.63,34.36,0,6.27-.08,12.58-1.27,18.73-.8,4.13-2.11,8.13-3.25,12.18-3.52,12.45-5.43,25.29-8,38a268.79,268.79,0,0,1-8.33,31.37L882,2568.34q-27.15-55.92-54.28-111.84c-21.5-44.3-43.38-89.19-75.76-126.29-9-10.36-18.94-20.17-25.66-32.16-4.28-7.63-7.15-16-10.46-24-10.38-25.35-25.2-48.87-33.45-75-14.61-46.28-7.37-96.27,0-144.24l.84-26.67-9.72-22a47,47,0,0,1-2.77-7.33,43.17,43.17,0,0,1-1-7.94,291,291,0,0,1-.35-30.41l11.68-26c-5.53-10.21-11.13-20.65-13.09-32.1-.52-3-.78-6.11-1.18-9.16-.43-3.26-1-6.49-1.63-9.72l-7.62-40.94a2.55,2.55,0,0,1,0-1.45c.36-.89,1.52-1.06,2.47-1.19,7.4-1,13.33-7,16.33-13.86s3.59-14.44,4.13-21.88q.85-11.84,1.73-23.68l1.76-38.22,3.86-16v-23.62l-1.28-10c-3.73-6-8.62-11.22-13.48-16.37-9.44-10-19.46-20.4-32.57-24.57l-10.08-19.31a200.14,200.14,0,0,1-14.74-36.74c-1.31-4.52-2.48-9.14-4.71-13.28-2.62-4.87-6.58-8.87-10.48-12.79l-8.78-5.72c-1.93-4.15-7.39-5-12-5.21l-16.38-2c-8.27-2.14-14.71-8.45-20.72-14.52-10.77-10.86-21.72-21.95-28.7-35.56-5.09-9.93-7.89-20.84-10.47-31.69q-8.47-35.62-14.39-71.79l-6.37-16.64-30.9-61.61-5.81-6.92q-1.59-8-3.17-16c-.88-4.46-1.77-9-1.34-13.51l2-37.8a437,437,0,0,0,8.65-80.08c.27-17.72-.54-35.51,1.55-53.1,4.15-35.08,19.67-68.48,20.26-103.79l4.5-18a55.47,55.47,0,0,1,17.56-45.81c23.08-21,60.2-19.44,84.06-39.58,11.19-9.45,18.28-22.75,25.06-35.73,17.1-32.76,34.27-67,35.71-103.94,1.87-47.81-23.9-93.93-60.6-124.63l-16.11.4c-6-.16-11.18-4.13-16.25-7.41s-11.41-6.08-17-3.74a43.23,43.23,0,0,1-4,1.85c-2.46.77-5.11.17-7.67-.09A28.3,28.3,0,0,0,489,658.13l-25.22,25.71L431.8,702.2a32.08,32.08,0,0,1-8.51,3.84c-4.89,1.14-10-.06-14.74-1.72a77.65,77.65,0,0,1-23.09-12.87c-3.65-3-7.42-6.4-12.11-6.67l-16.66-18.6c-5.45-15.71-.82-33.3,7-48,2-3.82,4.35-7.61,5.23-11.85l8.15-10.14c8.25-.75,54-19.87,50.62-49.87S394,516.73,394,516.73l-9.34-1.88c-6.65-3.31-11.71-9-16.86-14.38s-10.87-10.65-18-12.63L339.66,485c-24.24-6.84-44.8-25.14-69.83-27.91-19.85-2.2-39.28,5.77-57.51,13.9-24.72,11-50.57,23.9-64.49,47.11C140.36,530.55,137,545,132,558.59s-12.5,27.32-25.14,34.48L77.94,610.88C50,616.8,26.1,638.82,17.9,666.16c-4.07,13.59-4.46,28-4.82,42.14Q11.55,768.38,10,828.45C9.63,844,9.26,859.84,13.1,875s12.49,29.68,26.17,37.15,32.72,6,42.76-6c3.71-4.41,6-9.82,8.89-14.79,11.58-19.82,32.58-32,47.94-49.07,9.79-10.86,17.52-23.94,29.65-32.11,23-15.51,57.61-6.89,73.34,16s12.88,55.73-3.92,77.82c-3,3.89-6.38,7.64-7.8,12.33-1.21,4-.82,8.35-.27,12.52,3.15,23.88,10.89,46.87,18.59,69.69q12.29,36.38,24.56,72.76c3.86,11.44,7.74,22.92,13.25,33.66,5.88,11.44,13.58,22,18.11,34,13.34,35.48-6.22,78.51-39.76,96.18-16.89,8.89-36.1,12.11-54.07,18.54s-35.95,17.5-42.72,35.35l-18.51,30.22c-15.67,40.36-23,89.68,3.25,124.15a60.86,60.86,0,0,0,15.85,14.85c8.33,5.23,18,7.89,27.38,10.78a459.1,459.1,0,0,1,119.26,56.58c20.93,13.94,41,29.9,55.56,50.4,20,28.19,28.24,62.81,36.05,96.49l20.22,87.21c1.79,7.69,3.6,15.48,7.21,22.51,7,13.72,20,23.19,30.08,34.89,25,29.15,30,69.8,37.25,107.51L493.76,1953c1.47,18.45,11.77,34.91,16.93,52.68,5.46,18.79,5.09,38.7,4.68,58.26-.15,7.19-.35,14.62-3.4,21.12-6.33,13.49-22.85,18.92-37.74,19.3s-29.89-2.85-44.59-.43l-18.72,14.45c-4.22.61-8.48,1.33-12.32,3.16s-7.28,4.9-8.62,8.94a16.13,16.13,0,0,0,0,9.26c2.73,10.15,11.72,17.49,21.27,21.9s20,6.58,29.69,10.59c5.8,2.38,11.34,5.43,17.34,7.25,6.76,2.05,13.89,2.49,20.78,4a68.84,68.84,0,0,1,28.34,13.6l23.57,12c4.66-2.84,10.81-2,15.64.57s8.69,6.55,12.75,10.21c8.65,7.8,18.44,14.22,28.18,20.61l23.47,15.39,14.36,21.75,45.78,83.8c10.32,18.89,20.7,37.87,33.8,55,10.57,13.78,22.83,26.22,32.92,40.35,12.61,17.64,21.59,37.55,30.5,57.32l35.34,78.47c9.71,21.55,19.47,43.26,25,66.24,7.47,31,7,63.43,3.81,95.17-3.11,31-8.14,64.95,8.76,91.12l2.54,30.64a71.93,71.93,0,0,0,36.79,49.73,33.57,33.57,0,0,0,11.37,3.92c9.52,1.15,18.84-4.16,25.3-11.25,17.57-19.3,17.1-48.53,14.6-74.51-6.48-67.42-19.66-134.92-13.44-202.36l-1.66-27.18c8.47-23.87,10.91-49.39,13.21-74.61.66-7.29,1.8-15.48,7.69-19.83l7-2.15c3.76-25.42,15.13-49,26.36-72.12,9.65-19.87,20.08-40.66,38.37-53,10-6.81,21.78-10.57,33.23-14.59a609.06,609.06,0,0,0,102.67-47.18c9.17-5.3,18.4-11,24.94-19.34s10-19.86,6.09-29.72C1173.57,2274.23,1167.32,2268.9,1160.93,2264.46ZM434.07,1340.13c-3,2.18-7.32,1.86-10.33-.24a13.65,13.65,0,0,1-5.3-9.33,28.06,28.06,0,0,1,1-10.92c.94-3.61,2.69-7.61,6.29-8.62a12,12,0,0,1,4.59,0,8.13,8.13,0,0,1,2.84.71c2.11,1.13,2.76,3.81,3.18,6.18l2.22,12.43Zm224.05,645.08-1.5,15L644.84,2013a112.19,112.19,0,0,0-25.78,84.7l-9.67,22.16c-6.11,5.71-9.7,13.72-11.41,21.91s-1.67,16.63-1.45,25l6.38,45.54c-6.1,1.39-11.76-3.28-16.29-7.59L569,2187.93l-11.17-10.66a69.29,69.29,0,0,1-8.53-9.19l-8.37-24.19,5.38-23.74c4.17-13.61,1.94-28.86,7.84-41.81l6.86-6.55q1.66-5.43,3.34-10.86c.53-1.74,1.07-3.48,1.51-5.24,1.86-7.46,2-15.41,5.27-22.39l-3.48-26.85c-.32-13.62,11.06-24.17,18.27-35.72,7.11-11.39,10.4-24.66,14-37.6a674.18,674.18,0,0,1,24.54-72.38l5.82-13.93c6.36-1.32,14-.36,17.66,5,2,3,2.39,6.82,2.7,10.45q2.67,32.2,5.35,64.41L655,1954C660.09,1963.35,659.17,1974.65,658.12,1985.21ZM1560.75,187.7A195.83,195.83,0,0,0,1353.92,24.44c-51.87,3.62-99.85,27.53-146.26,51-28.34,14.33-57.39,29.18-78.57,52.84-12.84,14.34-22.25,31.34-31.55,48.18-19.58,35.47-39.77,73.5-37,113.93l8.67,18.63,37.55,27.56a9.84,9.84,0,0,1,5.22,10q.33,12.78.65,25.57c.09,3.16.26,6.58,2.27,9,2.3,2.81,6.7,3.86,7.89,7.3l8.7,6.2a28.4,28.4,0,0,0-3.69,6.46,29.12,29.12,0,0,0-1,4q-2.12,10.56-3.61,21.22l-9.7,17.16a15,15,0,0,0,16.71,1.73c1.8-1,3.38-2.39,5.27-3.22,6.53-2.88,13.88,1.72,18.9,6.8,14.52,14.67,22.48,34.84,25.87,55.21s2.58,41.18,1.75,61.82l17.24,16.95,11.31,28.8c3.08,7.87,6.16,16.84,2.56,24.49-1.18,2.52-3,4.68-4.43,7.08-4.09,7-4.27,15.57-3.78,23.66l1,11.83c4.46,20.62-10.22,41.84-5.64,62.42L1199,760.46a239.89,239.89,0,0,1-5,74.8c-5.22-7.51-7.51-16.61-9.69-25.49q-2.46-10-4.93-20c-1.24-5-2.49-10.27-1.49-15.36l.66-13.78c-.43-11.19-1-22.8-6.14-32.73l-5.59-8.95c-6.82-2.9-13.77-5.88-19.39-10.72-3.33-2.86-6.11-6.31-9.26-9.37a54,54,0,0,0-20.53-12.45,73,73,0,0,1,16.49,39.49l0,24.3c4.28,2.48,5.83,7.8,7,12.6,3.53,14.06,7.39,28.11,13.44,41.29s14.39,25.51,25.71,34.57l-17.82,34c-10.8,7-14.45,21.11-14.88,34s1.4,26-2.12,38.39c-3.15,11.09-10.38,20.58-18.31,29-13,13.72-31.61,26-49.66,20.42-7.8-2.42-14.28-7.9-21.78-11.15-18.75-8.14-40.29-1.33-59.55,5.52-2.23.79-4.6,1.69-5.95,3.63-1.52,2.19-1.34,5.1-.94,7.73,2.45,16,10.6,30.47,18.61,44.54,6.23,11,12.58,22.06,21.54,30.93s21,15.37,33.61,14.89l16.07,22.18a105.86,105.86,0,0,1,37,38.1c2.23,3.93,4.22,8,7,11.57s6.58,6.54,11,7.36q-8.6,29.17-17.2,58.35l-10,15.54a163.14,163.14,0,0,1-77.68-7.54c-12.68-4.48-25.4-10.64-38.82-9.73l-24.67,1.53c-3.66,5.41-10.39,8.19-16.91,8.32s-12.9-2-18.78-4.88c-4-1.91-7.84-4.15-12.15-5-5.44-1.09-11,.11-16.58.49s-11.66-.31-15.55-4.26c1.67,3.74-.34,8.21-3.26,11.08s-6.69,4.74-9.79,7.43c-5.49,4.75-8.57,11.8-9.85,18.94s-.94,14.47-.58,21.72a6.12,6.12,0,0,0-4.91,1,15.27,15.27,0,0,1-2,1.57,6.88,6.88,0,0,1-2.89.53l-12.69.47c5.56.67,9.4,5.69,12.58,10.3l20.94,30.37-2.73,32.06c15.06,17.45,19.88,41.74,19.09,64.78-.3,8.69-1.36,17.53-5,25.45a42.79,42.79,0,0,1-32.46,24.2c-4.79.66-10.06.64-13.79,3.7-2.29,1.88-3.63,4.66-4.83,7.37a184.63,184.63,0,0,0-15.14,88.7l.08,28.76q3.35,62,6.68,124c1,18.64,2.1,37.7,9.19,55l9.94,21.25C830.67,1865.23,865,1992.35,865,1992.35l-2.81,43.89c4.52,27.09,9.53,55.35,26.14,77.22,10.35,13.62,24.81,24.15,32.86,39.24L930,2174l11,4.52c2.17.9,4.34,1.79,6.58,2.5a41.64,41.64,0,0,0,20.16,1.23l12.8-20.5c8.15-11,13.55-23.78,18.88-36.4,3.58-8.48,7.17-17,9.47-25.9a187.72,187.72,0,0,0,4-23.24c4.51-35.2,8.93-71.66-1.37-105.63l-14.45-11a35.19,35.19,0,0,0-1.19-9.74,12.32,12.32,0,0,0-2.3-4.94,5.39,5.39,0,0,0-4.84-2,3.51,3.51,0,0,0-2.93,3.93,4.81,4.81,0,0,1,5,2.2,7.52,7.52,0,0,1,.78,5.64,18.12,18.12,0,0,1-2.34,5.31c-2.13,3.57-23.33,16.41-24.63,15.26L962,1960.08c-1-11.07.58-22.19,2.16-33.19q3.14-21.81,6.26-43.61a89.47,89.47,0,0,1,2.7-13.7,45.49,45.49,0,0,1,19.47-25.17l31.59-26.23c-.24-15.56,13.39-28.35,28.12-33.35s30.69-4.29,46.2-5.5c19.46-1.52,38.52-6.12,57.38-11.12,33.83-9,72-23.72,82.52-57.11,6.19-19.73.44-41.8-11.25-58.85s-28.71-29.73-46.41-40.41c-10.39-6.28-21.47-12.27-28.68-22-12.83-17.37-10-41.36-6.18-62.61,8.39-46.52,20.28-95.4,53.79-128.74,15.16-15.09,34.07-26.2,48.26-42.22,11.93-13.47,20-29.84,27.94-46,5.85-11.91,11.79-24.11,13.42-37.29s-1.83-27.75-12-36.23c-11.11-9.23-27.48-9.2-41.24-4.81s-26,12.47-39.26,18.25a125.45,125.45,0,0,1-54.08,10.38l-13.43-27.9q4.62-18.66,10-37.12c1.54-5.29,3.23-10.74,6.86-14.89,8-9.21,22.83-9.18,31.94-17.34l24.66-12.17,54.82-54.37c18.37-18.22,37.37-37.44,45.26-62.08,4.22-13.16,5-27.17,8.23-40.61,12.41-51.75,58.13-87.59,87.6-131.9l3.09-12.22c2.26-3.76,4.59-7.71,4.87-12.09.17-2.54-.36-5.08-.19-7.61l-2.65-10.37-6.11-4.59c-4.89-3.68-9.83-7.41-13.83-12s-7-10.32-7.49-16.43c-.65-9,4.32-17.38,9.12-25l17-54.44c24.87-28.93,32-72,17.82-107.38-5.58-13.91-14.09-26.52-19.28-40.58-5.62-15.19-7.16-31.54-8.44-47.69q-4.36-55.18-5.35-110.57c-.19-10.87-.07-22.51,6-31.51,12.35-18.23,39.28-14.89,61.22-16.61,36.74-2.89,70.2-26.61,88.89-58.36S1566.78,224.05,1560.75,187.7ZM961.07,1880.13q-4.7,40.27-9.38,80.54L945,1973a73.46,73.46,0,0,1-12.43,12.12,45.58,45.58,0,0,1-46.69,3.6l-10.94.59s-34.31-127.12-20.62-191.24l10.16-16.17a18.62,18.62,0,0,1,29.05-.91c4.39,5.15,5.63,12.18,7.3,18.74,3.11,12.27,8.19,23.92,13.25,35.52a111.91,111.91,0,0,0,7.42,14.91,8.78,8.78,0,0,0,3.12,3.33,9.49,9.49,0,0,0,4.07.76l13.12.5,9.59,1.94c4.66.63,8.18,4.86,9.44,9.39S961.61,1875.46,961.07,1880.13Z"></path>
    <path data-name="1a" data-official="" data-plain="Capsule" data-loc="" d="M981.64,2527c-6.17-22.3-11.77-48.23,1.87-66.92,5.11-7,12.39-12.06,19.53-17l28.72-19.78c2.09-1.44,4.3-2.93,6.82-3.23,3-.36,5.92,1,8.64,2.35l37.8,18.57c5,2.46,10.08,4.95,14.51,8.37,15.08,11.61,20.5,31.86,22.12,50.81,1.22,14.28,0,30.53-10.78,39.93-6.46,5.62-15.81,8.23-20,15.69-4.6,8.21-.93,18.8-4,27.68-4.48,12.75-20.55,16.82-34.07,16.55-12-.23-25-3-32.33-12.5-5.54-7.22-6.56-16.78-8.69-25.63s-6.5-18.35-15.09-21.34Z"></path>
    <path data-name="2" data-official="Linum Africanum" data-plain="African Flax" data-loc="Cape of Good Hope" d="M507.45,2197.07l23.57,12c4.66-2.84,10.81-2,15.64.57s8.69,6.55,12.75,10.21c8.65,7.8,18.44,14.22,28.18,20.61l23.47,15.39,14.36,21.75,5.71,33.78a1690.06,1690.06,0,0,1,44.36,217.46c2.76,20.24,5.16,40.76,2.76,61.05-3.82,32.36-19.49,61.93-29.58,92.91-15.86,48.7-18.16,101.69-39.89,148.07-5.16,11-11.55,21.75-20.85,29.58-11.25,9.47-25.95,14-40.57,15.58-37.81,4.09-79.82-13.77-94.59-48.82-19.39-46,12.65-96.76,15.29-146.62,1.22-23-3.92-45.72-9-68.13l-48.93-214.91c-8.44-37.07-16.91-75.37-10.09-112.76s33-74,70.44-80.72ZM655,1954l1-27.31q-2.68-32.21-5.35-64.41c-.31-3.63-.67-7.43-2.7-10.45-3.63-5.4-11.3-6.36-17.66-5l-5.82,13.93a674.18,674.18,0,0,0-24.54,72.38c-3.59,12.94-6.88,26.21-14,37.6-7.21,11.55-18.59,22.1-18.27,35.72l3.48,26.85c-3.22,7-3.41,14.93-5.27,22.39-.44,1.76-1,3.5-1.51,5.24q-1.67,5.43-3.34,10.86l-6.86,6.55c-5.9,12.95-3.67,28.2-7.84,41.81l-5.38,23.74,8.37,24.19a69.29,69.29,0,0,0,8.53,9.19L569,2187.93l17.62,16.82c4.53,4.31,10.19,9,16.29,7.59l-6.38-45.54c-.22-8.36-.26-16.8,1.45-25s5.3-16.2,11.41-21.91l9.67-22.16a112.19,112.19,0,0,1,25.78-84.7l11.78-12.84,1.5-15C659.17,1974.65,660.09,1963.35,655,1954Zm28.92-211.73-1.76,38.22q-.87,11.84-1.73,23.68c-.54,7.44-1.13,15-4.13,21.88s-8.93,12.86-16.33,13.86c-1,.13-2.11.3-2.47,1.19a2.55,2.55,0,0,0,0,1.45l7.62,40.94c.6,3.23,1.2,6.46,1.63,9.72.4,3,.66,6.13,1.18,9.16,2,11.45,7.56,21.89,13.09,32.1l-11.68,26a291,291,0,0,0,.35,30.41,43.17,43.17,0,0,0,1,7.94,47,47,0,0,0,2.77,7.33l9.72,22,14.14-6.5a19,19,0,0,1,12.37-2.21l17.12,3.72s57.79,82.86,119.57,125.05l18.18,27.73c5.19,7.59,13.93,11.79,20.87,17.82,9.36,8.13,15.27,19.42,21,30.43l18.17-3.7,9.34-23.25c5,1.65,10.15,3.16,15.24,4.67l7.51,2.22,6.89,11.4c2.64-1.25,5.91.41,7.46,2.89s1.81,5.51,2,8.42l2.41,32.17c.47,6.25,1.12,13,5.18,17.73,5.63,6.61,15.51,7,24.18,7l31.39-.28,11.86,12.27c10.1.63,20.13-1.7,30-4,3.83-.9,7.73-1.82,11.12-3.82,3.77-2.22,6.67-5.63,9.81-8.68a67.39,67.39,0,0,1,25.8-15.63l13.69-5.35c7.68-2.44,15.83,1.71,22.45,6.31,6.39,4.44,12.64,9.77,15.48,17l14.79,27.28c-10.78,28.84,27.12,57.05,56.7,48.51s47.59-38.29,58.35-67.14,17.75-60.21,37.59-83.76c35.88-42.6,99.26-45,151.1-65.37,75.25-29.53,126.87-98.09,174.45-163.44,22.93-31.49,46.07-63.36,61-99.35,10.27-24.8,16.42-51.08,22.54-77.22q23.92-102.4,47.87-204.81c31.8-136,63.74-277.18,36.18-414.15l-3.45-70.58A299.11,299.11,0,0,1,1872.26,972c9.88-17.41,21.52-33.81,30.63-51.64,10.44-20.45,17.39-42.46,24.3-64.36,7.19-22.76,14.43-45.85,15.52-69.7,1.44-31.39-7.83-62.18-17-92.25-8.84-29-18-58.59-35.93-83-15.51-21.12-36.76-37.2-57.71-53s-43.78-32.07-69.88-32c-11.75,0-23.19,3.49-34.44,6.91l-81.65,24.81c-9,2.73-18.79,6-23.76,14-3.37,5.41-3.91,12-5.11,18.28-6.5,33.68-34.52,60-66,73.66s-66.32,16.81-100.5,19.77l-48.31,23.79-17,54.44c-4.8,7.67-9.77,16-9.12,25,.44,6.11,3.49,11.79,7.49,16.43s8.94,8.36,13.83,12l6.11,4.59,2.65,10.37c-.17,2.53.36,5.07.19,7.61-.28,4.38-2.61,8.33-4.87,12.09l-3.09,12.22c-29.47,44.31-75.19,80.15-87.6,131.9l77.36,101.17a1049,1049,0,0,1,57.11,180.7c1.81,8.27,3.52,16.89,1.53,25.12-1.63,6.72-5.63,12.73-6.79,19.54-3.35,19.73,17,34.53,25.86,52.49,15.62,31.69-6.09,67.87-22.22,99.3a330.9,330.9,0,0,0-28.59,79.18c-9.6,43.17-10.67,88.68-28.07,129.34-25.17,58.78-82.74,103.24-92.25,166.47l9,77.59c-17.19,19.7-34.47,39.53-47.87,62-21.87,36.64-32.75,79.19-56.2,114.84-1.78,2.71-3.72,5.45-6.49,7.12-6.86,4.11-15.57.24-22.52-3.7q-41-23.22-79.47-50.45c-8.9-6.3-18-12.9-28.63-15.4s-23.28.18-29.26,9.31c-6.1,9.29-3.51,21.51-1.22,32.38a348.46,348.46,0,0,1,7.4,63.9c.15,6.37.08,13-2.45,18.79-3.87,8.91-13,14.65-22.44,16.92s-19.32,1.56-29,.85l-18.07.71a41.64,41.64,0,0,1-20.16-1.23c-2.24-.71-4.41-1.6-6.58-2.5L930,2174l-26-21.36c-3.69-1.21-6.67-3.9-9.62-6.41a161.56,161.56,0,0,0-33.1-21.77l-18.77-1.56C793,2084,737.86,1998.54,737.86,1998.54l-5.28-16.75-1.7-10.67c1.65-19.31,2.85-40.43-8.3-56.28-6.22-8.85-15.94-15.41-19.67-25.56-2.57-7-2.09-15.32-6.73-21.16l-3.36-19.56,3.94-11c.83-2.3,1.65-4.61,2.64-6.85a94.93,94.93,0,0,1,7.58-13.24q6.39-9.81,13.13-19.41l15.37-39q10.11-27.85,21.73-55.13a47,47,0,0,1,4.3-8.45c6.36-9.2,19-13.82,22.41-24.48l6.45-14.51c5-13.33,10-26.84,11.49-41,1-9.08.52-18.24.89-27.37.8-19.71,5.46-39,8.68-58.51a430.84,430.84,0,0,0,4.81-94.24c-.23-4.1-.64-8.5-3.32-11.61-3.36-3.9-9.45-4.43-14.26-2.58s-8.6,5.6-12.11,9.36q-8,8.54-15.16,17.83c-3.69,4.79-7.26,9.81-9.25,15.53-2.14,6.13-2.35,12.73-2.55,19.22l-1.47,48.19c-.6,19.69-1.38,40.09-10.16,57.73l-2.55,18.43c1,11.08,2.07,22.38-.31,33.25-1.31,6-3.62,11.67-5.92,17.34L735,1668.48c-5.64,13.89-11.34,27.9-19.81,40.26Z"></path>
    <path data-name="3" data-official="Linum trigynum" data-plain="Three-styled Flax" data-loc="East India" d="M434.07,1340.13c-3,2.18-7.32,1.86-10.33-.24a13.65,13.65,0,0,1-5.3-9.33,28.06,28.06,0,0,1,1-10.92c.94-3.61,2.69-7.61,6.29-8.62a12,12,0,0,1,4.59,0,8.13,8.13,0,0,1,2.84.71c2.11,1.13,2.76,3.81,3.18,6.18l2.22,12.43Zm527,540q-4.7,40.27-9.38,80.54L945,1973a73.46,73.46,0,0,1-12.43,12.12,45.58,45.58,0,0,1-46.69,3.6l-10.94.59s-34.31-127.12-20.62-191.24l10.16-16.17a18.62,18.62,0,0,1,29.05-.91c4.39,5.15,5.63,12.18,7.3,18.74,3.11,12.27,8.19,23.92,13.25,35.52a111.91,111.91,0,0,0,7.42,14.91,8.78,8.78,0,0,0,3.12,3.33,9.49,9.49,0,0,0,4.07.76l13.12.5,9.59,1.94c4.66.63,8.18,4.86,9.44,9.39S961.61,1875.46,961.07,1880.13ZM924.6,2220.45l-18.17,3.7c-5.69-11-11.6-22.3-21-30.43-6.94-6-15.68-10.23-20.87-17.82l-18.18-27.73c-61.78-42.19-119.57-125.05-119.57-125.05l-17.12-3.72a19,19,0,0,0-12.37,2.21l-14.14,6.5-.84,26.67c-7.37,48-14.61,98,0,144.24,8.25,26.12,23.07,49.64,33.45,75,3.31,8.09,6.18,16.41,10.46,24,6.72,12,16.62,21.8,25.66,32.16,32.38,37.1,54.26,82,75.76,126.29q27.13,55.92,54.28,111.84L903.24,2580a268.79,268.79,0,0,0,8.33-31.37c2.62-12.67,4.53-25.51,8-38,1.14-4.05,2.45-8.05,3.25-12.18,1.19-6.15,1.23-12.46,1.27-18.73.07-11.48.13-23-1.63-34.36l-4.29-28.81C914.22,2351.06,910.29,2284.51,924.6,2220.45ZM783.92,1671c-3.43,10.66-16,15.28-22.41,24.48a47,47,0,0,0-4.3,8.45q-11.61,27.25-21.73,55.13l-15.37,39q-6.74,9.59-13.13,19.41a94.93,94.93,0,0,0-7.58,13.24c-1,2.24-1.81,4.55-2.64,6.85l-3.94,11,3.36,19.56c4.64,5.84,4.16,14.15,6.73,21.16,3.73,10.15,13.45,16.71,19.67,25.56,11.15,15.85,9.95,37,8.3,56.28l1.7,10.67,5.28,16.75S793,2084,842.48,2122.85l19.69-86.61,2.81-43.89s-34.31-127.12-20.62-191.24l-9.94-21.25Zm160.83,846.45-7,2.15c-5.89,4.35-7,12.54-7.69,19.83-2.3,25.22-4.74,50.74-13.21,74.61l1.66,27.18,3.78,18.12a685,685,0,0,1,40.08,86.3c3.35,8.76,6.52,17.6,10.43,26.13a164.51,164.51,0,0,0,23.85,37.55c3.65,4.32,7.64,8.54,12.67,11.13,12.41,6.38,28.53.79,37.41-10s11.71-25.35,11.77-39.3c.1-24.72-7.5-48.88-17.21-71.61-23.69-55.47-60.22-105-80.92-161.68Zm47.84-673a45.49,45.49,0,0,0-19.47,25.17,89.47,89.47,0,0,0-2.7,13.7q-3.13,21.81-6.26,43.61c-1.58,11-3.16,22.12-2.16,33.19l2.54,15.12c1.3,1.15,22.5-11.69,24.63-15.26a18.12,18.12,0,0,0,2.34-5.31,7.52,7.52,0,0,0-.78-5.64,4.81,4.81,0,0,0-5-2.2,3.51,3.51,0,0,1,2.93-3.93,5.39,5.39,0,0,1,4.84,2,12.32,12.32,0,0,1,2.3,4.94,35.19,35.19,0,0,1,1.19,9.74l14.45,11,7.41-1.82c32.25,2.22,63.36-10.82,93.05-23.6,5.6-2.4,11.47-5,15-10s4.22-11.09,3.63-17c-2.3-23-22.44-40.37-43.56-49.77s-44.41-13.4-65.09-23.74ZM1203.25,1231a110.7,110.7,0,0,0-17.35-59.17l-7.86-8.55c-9.11,8.16-23.9,8.13-31.94,17.34-3.63,4.15-5.32,9.6-6.86,14.89q-5.38,18.45-10,37.12l13.43,27.9a125.45,125.45,0,0,0,54.08-10.38Zm-177-1017.1L873.08,142c-18.1-8.5-36.36-17.06-55.81-21.69-18.06-4.31-36.8-5.14-55.35-4.4a333.13,333.13,0,0,0-99.48,19.46c-89.88,32.42-160.94,101.37-229,168.39-12.93,12.74-25.94,25.56-36.41,40.38C370.23,382,362.08,430.78,366.56,477l1.22,23.5c5.15,5.35,10.21,11.07,16.86,14.38l9.34,1.88s30.38-.37,33.75,29.63-42.37,49.12-50.62,49.87L369,606.37c-.88,4.24-3.18,8-5.23,11.85-7.86,14.66-12.49,32.25-7,48l16.66,18.6c4.69.27,8.46,3.72,12.11,6.67a77.65,77.65,0,0,0,23.09,12.87c4.73,1.66,9.85,2.86,14.74,1.72a32.08,32.08,0,0,0,8.51-3.84l31.94-18.36L489,658.13A28.3,28.3,0,0,1,519.19,637c2.56.26,5.21.86,7.67.09a43.23,43.23,0,0,0,4-1.85c5.57-2.34,11.91.46,17,3.74s10.21,7.25,16.25,7.41l16.11-.4c36.7,30.7,62.47,76.82,60.6,124.63-1.44,36.92-18.61,71.18-35.71,103.94-6.78,13-13.87,26.28-25.06,35.73-23.86,20.14-61,18.56-84.06,39.58a55.47,55.47,0,0,0-17.56,45.81l-4.5,18c-.59,35.31-16.11,68.71-20.26,103.79-2.09,17.59-1.28,35.38-1.55,53.1a437,437,0,0,1-8.65,80.08l-2,37.8c-.43,4.52.46,9,1.34,13.51q1.59,8,3.17,16l5.81,6.92,30.9,61.61,6.37,16.64q5.91,36.14,14.39,71.79c2.58,10.85,5.38,21.76,10.47,31.69,7,13.61,17.93,24.7,28.7,35.56,6,6.07,12.45,12.38,20.72,14.52l16.38,2c4.58.25,10,1.06,12,5.21l8.78,5.72c3.9,3.92,7.86,7.92,10.48,12.79,2.23,4.14,3.4,8.76,4.71,13.28a200.14,200.14,0,0,0,14.74,36.74l10.08,19.31c13.11,4.17,23.13,14.56,32.57,24.57,4.86,5.15,9.75,10.35,13.48,16.37l1.28,10v23.62l-3.86,16,31.21-33.56c8.47-12.36,14.17-26.37,19.81-40.26l4.22-10.39c2.3-5.67,4.61-11.37,5.92-17.34,2.38-10.87,1.35-22.17.31-33.25l2.55-18.43c8.78-17.64,9.56-38,10.16-57.73l1.47-48.19c.2-6.49.41-13.09,2.55-19.22,2-5.72,5.56-10.74,9.25-15.53q7.15-9.27,15.16-17.83c3.51-3.76,7.31-7.51,12.11-9.36l71.9-63.27,2.73-32.06-20.94-30.37c-3.18-4.61-7-9.63-12.58-10.3l12.69-.47a6.88,6.88,0,0,0,2.89-.53,15.27,15.27,0,0,0,2-1.57,6.12,6.12,0,0,1,4.91-1c-.36-7.25-.71-14.57.58-21.72s4.36-14.19,9.85-18.94c3.1-2.69,6.86-4.56,9.79-7.43s4.93-7.34,3.26-11.08c3.89,4,10,4.64,15.55,4.26s11.14-1.58,16.58-.49c4.31.87,8.19,3.11,12.15,5,5.88,2.83,12.25,5,18.78,4.88s13.25-2.91,16.91-8.32l24.67-1.53c13.42-.91,26.14,5.25,38.82,9.73a163.14,163.14,0,0,0,77.68,7.54l10-15.54q8.6-29.17,17.2-58.35c-4.44-.82-8.22-3.82-11-7.36s-4.8-7.64-7-11.57a105.86,105.86,0,0,0-37-38.1L1063,1090.43c-12.6.48-24.65-6-33.61-14.89s-15.31-20-21.54-30.93c-8-14.07-16.16-28.54-18.61-44.54-.4-2.63-.58-5.54.94-7.73,1.35-1.94,3.72-2.84,5.95-3.63,19.26-6.85,40.8-13.66,59.55-5.52,7.5,3.25,14,8.73,21.78,11.15,18,5.57,36.69-6.7,49.66-20.42,7.93-8.38,15.16-17.87,18.31-29,3.52-12.37,1.68-25.54,2.12-38.39s4.08-27,14.88-34l17.82-34c-11.32-9.06-19.67-21.4-25.71-34.57s-9.91-27.23-13.44-41.29c-1.21-4.8-2.76-10.12-7-12.6l0-24.3a73,73,0,0,0-16.49-39.49,54,54,0,0,1,20.53,12.45c3.15,3.06,5.93,6.51,9.26,9.37,5.62,4.84,12.57,7.82,19.39,10.72l5.59,8.95c5.17,9.93,5.71,21.54,6.14,32.73l-.66,13.78c-1,5.09.25,10.32,1.49,15.36q2.46,10,4.93,20c2.18,8.88,4.47,18,9.69,25.49a239.89,239.89,0,0,0,5-74.8l1.21-19.39c-4.58-20.58,10.1-41.8,5.64-62.42l-1-11.83c-.49-8.09-.31-16.66,3.78-23.66,1.41-2.4,3.25-4.56,4.43-7.08,3.6-7.65.52-16.62-2.56-24.49l-11.31-28.8-17.24-16.95c.83-20.64,1.65-41.45-1.75-61.82s-11.35-40.54-25.87-55.21c-5-5.08-12.37-9.68-18.9-6.8-1.89.83-3.47,2.21-5.27,3.22a15,15,0,0,1-16.71-1.73l9.7-17.16q1.48-10.66,3.61-21.22a29.12,29.12,0,0,1,1-4,28.4,28.4,0,0,1,3.69-6.46l-8.7-6.2c-1.19-3.44-5.59-4.49-7.89-7.3-2-2.44-2.18-5.86-2.27-9q-.32-12.79-.65-25.57a9.84,9.84,0,0,0-5.22-10L1069.16,309l-8.67-18.63Z"></path>
    <path data-name="4" data-official="Radiola millegrana" data-plain="Allseed" data-loc="England" d="M1496.15,2754.22a27.56,27.56,0,0,1-13.16-47.67c4-3.54,9-5.9,12.59-9.81,8.73-9.41,7-24.27,11.69-36.22,3.81-9.71,11.73-17.15,19.59-24a569.69,569.69,0,0,1,128.15-84.4c19.55-9.37,41.89-20.13,47.71-41,4-14.22-1.13-29.23-6.25-43.08-18.15-49.08-38.57-99.5-76.87-135.17-28.75-26.77-65.89-43.33-104.16-52.21s-77.85-10.46-117.13-10.31c-16.1.07-32.83.57-47.21,7.8-27.1,13.63-37.94,46.93-39.76,77.21-.6,9.84-.53,19.75-2.33,29.44-4.14,22.22-17.64,41.37-30.32,60.08-11.58,17.09-22.88,34.72-29.14,54.38s-7,41.86,2.08,60.38c7.58,15.39,21.14,26.85,34.31,37.86,21.86,18.24,43.85,36.67,61.63,58.91s31.24,48.83,33.36,77.22c1.75,23.36-4.19,46.77-2.55,70.14s14.37,49,37.32,53.65c16.86,3.44,33.58-5.37,48.29-14.3,11.16-6.79,22.43-14.06,30.27-24.5s11.72-24.82,6.58-36.83Z"></path>
    <path data-name="4a" data-official="" data-plain="Flower magnified" data-loc="" d="M1568.89,2632.19c12.38-.19,24.4,4.89,34.44,12.13s18.35,16.59,26.42,26c7.32,8.54,14.7,17.53,17.86,28.34,2.64,9.07,2.1,18.72,2.55,28.16.54,11.25,2.5,22.73-.39,33.61-1.68,6.31-4.91,12.06-8.1,17.74l-21.3,37.82c-2.65,4.71-5.35,9.49-9.25,13.23-5.86,5.62-13.92,8.4-21.95,9.64a71.31,71.31,0,0,1-79.23-50l-9.1-7.05-4.69-27.55a27.56,27.56,0,0,1-13.16-47.67c4-3.54,9-5.9,12.59-9.81,8.73-9.41,7-24.27,11.69-36.22,3.81-9.71,11.73-17.15,19.59-24q8.45-7.37,17.17-14.4Z"></path>
</svg>
