
<svg xmlns="http://www.w3.org/2000/svg" viewBox="0 0 2139 2889" id="illustration" preserveAspectRatio="xMidYMid meet">
    <title>Cistaceæ</title>
    <path data-name="1" data-official="Cistus cyprius" data-plain="Gum Cistus, or Rock-rose" data-loc="Spain" d="M719.14,2430.33l.09,61.21c-7.28,29.44-14.6,59.07-16.57,89.34-.63,9.74-.7,19.5-.78,29.25l-.39,51.26c-.17,23.3-.35,46.61.26,69.9l3.86,22.56c1.58,6.18,3.16,12.63,1.85,18.88-1.81,8.66-9,15.39-17.13,19s-17.07,4.49-25.88,5.36l-38.16,3.79c-3.18.32-6.46.62-9.52-.28-5.67-1.67-9.48-7.24-10.79-13s-.56-11.77.14-17.63c3.45-29,5.49-58.37,3.34-87.54-1.88-25.33-6.91-50.64-4.67-75.95L606,2588.3l14.22-103.53c1.73-12.57,3.48-25.25,7.76-37.19,2.12-5.94,4.85-11.64,7.09-17.54a224.54,224.54,0,0,0,7.36-25.12l8.73-34.76,7.76-19.1a142.36,142.36,0,0,1,2.56-24.71,54.7,54.7,0,0,1,3.4-11.79,67.42,67.42,0,0,1,7-11.38,10,10,0,0,1,3.77-3.71c2.76-1.23,5.92.23,8.58,1.66q26.24,14.1,52.23,28.62l-.36,25.37C725.41,2381,714.53,2407.62,710,2435Zm108-394.85-3.54,10.33L805.37,2066c-15.77-6.77-25.12-22.9-38.19-34-3.29-2.8-7.12-5.39-11.44-5.54a4,4,0,0,0-2.41.51c-1.13.77-1.41,2.31-1.46,3.68-.19,5,1.23,10,1.67,15,.36,4.16.06,8.35.26,12.53a52.72,52.72,0,0,0,28.73,43.81l-8,25.66c-5.5,17.73-11.06,35.89-10.21,54.43l.4,7.86a25.56,25.56,0,0,0-.46,8.72l-1.5,8.88c-12.36-2.48-24.53,6.88-37.06,5.5a59.35,59.35,0,0,0,12.33,18.71c4,4.08,8.55,7.58,12.41,11.78s7.08,9.33,7.51,15l-1.81,8.93q-2.77,5.87-5.54,11.74c-3.43,7.29-6.93,14.86-7,22.91,0,2.6.28,5.41-1.15,7.58l-3.24,6.53c-6-6-15.13-7.45-22.64-11.45a111.58,111.58,0,0,1-10.69-7.13,99.78,99.78,0,0,0-21.12-11.12c1.58-2.89,1-6.57,2.39-9.54a19.46,19.46,0,0,1,2.86-3.87c10-11.94,11.14-28.8,11.77-44.4a91.78,91.78,0,0,0-.22-14.83c-1-8.57-4.4-17.91,0-25.34l3.91-8.61a82.31,82.31,0,0,0,23.24-14.28,21.61,21.61,0,0,0,4.43-4.88,14.75,14.75,0,0,0,.34-13.69,22,22,0,0,0-10-9.82c-2.13-1.1-4.44-2-6.15-3.66-2.77-2.73-3.36-6.93-3.54-10.81a91.87,91.87,0,0,1,2.58-26.43L711.93,2076c-.27-9.64,4.66-18.6,9.74-26.81q8.31-13.43,17.65-26.18l10.09-4.54a140.29,140.29,0,0,0,22,2.56l-2.75-3.53,34.24-5.06c3.38-.5,6.84-1,10.19-.35a23.92,23.92,0,0,1,6,2.21c4.1,2,8.23,4.94,9.53,9.32C829.77,2027.49,828.45,2031.64,827.13,2035.48Zm7.83-37.12a2.46,2.46,0,0,1-2.27.38c-4.8-.84-9.4-2.55-14-4a165.79,165.79,0,0,0-54.42-8l2.56-1.84L795,1963.94a162.77,162.77,0,0,1,17.09-11.58c4.64-2.6,9.67-4.83,13.26-8.76l6-3.74a19.11,19.11,0,0,1,2.62,5c1,3.09,1.07,6.41,1.1,9.66q.16,21,.32,42.07A2.51,2.51,0,0,1,835,1998.36Zm991.54-525.57c-14.49,11.27-39,10.76-48.5-4.94-7.25-12-4-28.41-12.22-39.76-4.44-6.18-11.53-9.78-18.35-13.16l-163-80.74s-29.43-25.54-33-36.6c-1.61-5-5.67-10.4-7.37-15.37-2.62-7.65-4.81-13.46-10.9-18.78-8.07-7.06-10.88-3.87-16.31-13.11-3.92-6.65-14.41-6.92-18-8.22-4.63-1.67-9.58-.72-14.48-.39-8.24.56-10.62-1.46-18.74,0l-27.9-11.89q-19.67-6.21-38.73-14.17l-17.34-4.92c-8.79-2.13-17.86-4.26-26.8-2.84-4,.63-8.09,1.95-11.91.7-3.2-1-5.82-3.8-9.18-4-2.15-.12-4.31.86-6.4.36a10.34,10.34,0,0,1-3.41-1.86,53.49,53.49,0,0,0-43.52-7.95,11.32,11.32,0,0,1-4.7.6,13.66,13.66,0,0,1-4-1.78c-4.37-2.35-9.42-3-14.34-3.62-6.22-.78-12.47-1.56-18.73-1.24-1.74.09-3.74.42-4.65,1.91a4.53,4.53,0,0,1-.94,1.46,2.63,2.63,0,0,1-1.42.35l-3,.13c-3.45.16-7,.35-10.1,1.84s-5.68,4.66-5.4,8.09l-2.4,1.11a21.15,21.15,0,0,0-21.94,9.28c-2.06,3.33-3.14,7.19-5.15,10.56-1.61,2.71-3.79,5-5.39,7.76-3.63,6.14-4,13.66-3.5,20.78.58,9,6.37,14.34,8.37,23.15,3.62,15.94,19.34,27.84,32.8,37.33a113.45,113.45,0,0,0-52.81-3.77,21.37,21.37,0,0,1-3.9.44,15.08,15.08,0,0,0-2.77,0c-2.8.44-4.47,3.31-6.91,4.76-2.29,1.37-5.11,1.38-7.76,1.72s-5.55,1.24-6.82,3.6c-.43.81-.64,1.73-1,2.57-1.14,2.46-3.71,3.87-5.93,5.42a30.78,30.78,0,0,0-12.55,19.69l-10.89,55.89c8.67,5.56,12,17.1,20.66,22.71a38.87,38.87,0,0,1,3.44,2.23,22.76,22.76,0,0,1,4.41,5.64,83.07,83.07,0,0,0,18.15,20l11.13,8.63,7.91-4.74c.87-1.26,3-.82,3.87.44s.84,2.91.78,4.44q-.13,3.32-.26,6.65a6,6,0,0,0,.43,3.15,5.83,5.83,0,0,0,1.76,1.77,93,93,0,0,0,11.65,7.48c1.9,1,4,2.19,4.72,4.24.26.75.31,1.55.56,2.3a4.36,4.36,0,0,0,3.67,2.85l.2,7.76a82,82,0,0,0-2.31,15.35l-1.22,11.52c5.08,11.29,15,19.75,20.67,30.77l-1.19,12.83c-2.51,10.35-12.48,18.12-13.32,28.74-.78,9.79,6.42,18.21,9.46,27.54,4.18,12.78.61,27.68,7.23,39.39,2,3.48,4.77,6.51,6.16,10.26,1.56,4.19,1.18,8.82,1.23,13.29a68.29,68.29,0,0,0,4.95,24.85l12.56,23.23,9.18,16.53c2.07,3.73,4.14,7.46,6.49,11,2.66,4,5.67,7.85,8.67,11.66l23.24,29.41,11.12,16.29a67.6,67.6,0,0,1,19.15,59.33,22.19,22.19,0,0,1-2,6.64c-1.09,2-2.71,3.73-3.92,5.7-3.85,6.24-3.22,14.16-2.32,21.44q1.57,12.69,3.7,25.29l-1.4,12.59c.69,12.14-2.59,24.11-5,36-.63,3.12-1.2,6.39-.31,9.44a11.48,11.48,0,0,1,.77,3.17c0,2.68-2.9,4.77-2.71,7.44l-5.2,5.24c-7-8.69-11.25-19.53-19.31-27.23l-5.45-9.74a156.23,156.23,0,0,0-40-59.3,36.58,36.58,0,0,0-8.51-6.31,41.84,41.84,0,0,0-10.63-3.07l-12.28-2.39a104.82,104.82,0,0,0-10.55-1.7c-10.76-1-21.68,1.23-32.39-.25l-14.65,4.92c-6.94-1.3-11.33-8-14.64-14.29s-7-13.17-13.65-15.54c-5.88-2.08-12.36.06-18.58-.28-2.35-.13-4.68-.62-7-.63-5,0-9.83,2.12-14.16,4.7a68.38,68.38,0,0,0-10.2,7.46c-1.48,1.3-3.52,2.76-5.22,1.75-1.46-.86-1.5-2.91-1.51-4.6a28.68,28.68,0,0,0-7.27-19,26,26,0,0,0-18.39-8.51c-9-.2-17.29,4.47-24.51,9.77-8.7,6.4-17,14.74-18.73,25.41l-7.77,5.09a26.39,26.39,0,0,1-10.24,5c-2.94.7-6,.91-8.73,2.31-2.87,1.5-4.9,4.18-7.33,6.32-3.06,2.69-7.14,5.07-7.63,9.11l-5,5.38c-2.68,2.33-6.5,2.78-10,2.66s-7.15-.69-10.63,0c-4.5.91-8.31,3.85-11.72,6.93-10.67,9.68-19,21.58-27.29,33.38L877,1986a51.39,51.39,0,0,0-14,4.32c-2.53,1.21-5,2.64-7.8,3s-6-.67-7.15-3.22a9.68,9.68,0,0,1-.65-3.17q-2.34-26.51-2.93-53.14a4,4,0,0,1,.36-2.18,4,4,0,0,1,1-1c6.08-4.78,12.65-8.94,18.48-14s11-11.26,13.29-18.65c1-3.1,1.45-6.51,3.61-8.94l14.56-13.78,8.44-2.31a5.36,5.36,0,0,0,4.09-3.18l18.46-29.88c3.82-6.17,7.63-12.35,10.86-18.85a116.52,116.52,0,0,0,9.25-26.08l3.9-16.69c6.15-21.46,8.51-43.8,10.84-66s4.64-44.69,1.08-66.71c-1.74-10.75-4.86-21.85-1.88-32.33l8.42-20c-.25-3.36-.49-6.71-.74-10.07a84.14,84.14,0,0,0-1.16-10.14c-1.6-8.15-5.57-15.6-9.5-22.93L952,1524.65c3.83-27.45-4.43-55.27-16.18-80.38-4.56-9.76-9.9-19.56-18.37-26.21-5.6-4.4-12.36-7.23-17.62-12-4.26-3.87-7.39-8.91-11.94-12.44-7.39-5.74-17.36-6.69-26.72-6.73s-19,.57-27.76-2.77l-29.27-12.67a52.56,52.56,0,0,0-20.29,3.71c-2.55,1-5.07,2.25-7.79,2.57-3.62.42-7.24-.8-10.88-.75-3.37,0-6.62,1.19-9.79,2.31-.82.68,1.17,1.81.78,2.78a1.34,1.34,0,0,1-.62.58,172.9,172.9,0,0,0-22.46,15.62c-3.43-5.55-3.46-12.45-4.14-18.94-1.13-10.72-4.3-21.09-7.44-31.4l6.67-4.92c11.19-11.06,23.26-22.6,38.65-25.85,3.52-.75,7.13-1,10.64-1.81,6.82-1.51,13.81-4.89,20.47-2.78,1.94.62,3.73,1.68,5.7,2.2,2.69.72,5.54.39,8.32.14,25.12-2.26,50.28,2.5,75,7.24l33.61,6.43,8.7-6.32a9.57,9.57,0,0,0,8.17-10.29c-.46-3.67-3-6.7-5.75-9.23a31.68,31.68,0,0,0-6.88-5.09c-3.87-2-8.46-3-11.48-6.14l-15-2.28a97.23,97.23,0,0,1-25.72,3.47c-2.76,0-5.66-.08-8.1,1.21-1.36.71-2.49,1.8-3.82,2.55-6,3.36-13.44-1.16-20.28-.39-1.94.22-3.82.87-5.77,1-2.58.23-5.15-.39-7.73-.73-8.34-1.1-16.76.72-25,2.54-3,.65-5.92,1.3-8.87,2q-9,2.13-17.89,4.82c2.25-4.29,8.1-5,11.86-8a11.08,11.08,0,0,0,4-9.33,3.2,3.2,0,0,1,.1-1.63,2.93,2.93,0,0,1,2-1.27c11.5-3.3,23.15-7.78,31.5-16.36,2.09-2.16,3.95-4.55,6.14-6.62a44.72,44.72,0,0,1,7-5.2,75.73,75.73,0,0,1,28.83-11.23l1.1-10.35c9.1-16,9.76-35.24,10.19-53.63l4.86-20.72c4.59-2.93,8-7.42,10.67-12.16s4.72-9.82,7.24-14.66c2.44-4.68,5.43-9.74,4.22-14.88l-.47-1.14c-10.52-1.8-17.6-11.49-26.66-17.14-4.92-3.07-10.71-5.11-14.41-9.58-2.59-3.12-3.86-7.1-5-11-.69-2.36-1.44-4.89-3.34-6.46a22.51,22.51,0,0,0-4-2.14,13.13,13.13,0,0,1-6.67-12.87l-2.76-2.15a118.25,118.25,0,0,1-8.37-13.83L822.16,1023a16.56,16.56,0,0,1-2.19-5.51c-.34-2.49.46-5,.62-7.5a15.13,15.13,0,0,0-8.25-14.22c-2.2-1.08-4.67-1.6-6.75-2.9-2.51-1.57-4.23-4.11-5.82-6.6-9.27-14.52-17.12-30.84-16.84-48.06.26-15.82,7.39-30.8,16.51-43.71,3.08-4.35,6.5-8.82,7.06-14.12.23-2.23,0-4.56.79-6.64a18.12,18.12,0,0,1,2.82-4.06,23.7,23.7,0,0,0,4.79-17.21L812,829.13c-9.42-20.44-17.16-42.18-17.58-64.68a142.31,142.31,0,0,1,3.66-32.62c4.86-22.5,13.36-44.59,27.74-62.56l18.75-17.95c17.94-4.19,27.27-25.23,25.93-43.6s-10.3-35.16-16.69-52.44a194.49,194.49,0,0,1-12-67.35c0-8.36.56-16.79,2.71-24.86,2.72-10.16,7.88-19.47,13-28.65,19.33-34.75,39.41-70.42,70.42-95.31,20.73-16.64,47.83-30.86,53.11-56.92,3.19-15.72-2.79-31.68-8.65-46.61l1.74-33.26A436.84,436.84,0,0,1,926.38,52.17c-1-8.27-1.47-17.75,4.33-23.73,4.52-4.64,11.5-5.7,18-6.15a177.8,177.8,0,0,1,115.38,33c13.92,10.06,27.07,22.5,43.82,26.29,22.09,5,44.13-6.25,65.19-14.55,62-24.41,133.14-24.42,195.09,0s114,72.94,142.7,133c13.72,28.76,22.23,61.9,13.35,92.51-4.09,14.1-11.69,27-15.87,41.07-9.77,32.87.09,68.56,15.47,99.21s36.17,58.43,50.39,89.63c25.86,56.77,28.5,121.46,50,180,38.41,104.69,134.06,182.5,164,289.93,3.63,13,6.18,27.24,1.3,39.87-12.92,33.5-64.1,31.5-86.89,59.24-22.4,27.25-6.8,69.36,17.13,95.28s55.77,45.78,71.17,77.52l6.89,19.52a353.45,353.45,0,0,1,41.73,112.43l10.34,28.17C1847.19,1442.57,1841,1461.51,1826.5,1472.79Z"></path>
    <path data-name="1a" data-official="" data-plain="Stamen magnified" data-loc="" d="M1528,2768.18a142.22,142.22,0,0,0-2.15-57.77c-1.91-7.75-4.49-15.36-5.82-23.23a142,142,0,0,1-1.56-18.67q-1.07-29.1-.71-58.23c.13-10.62.48-21.61,5.06-31.2s14.52-17.43,25.07-16.16c12.27,1.48,20,13.83,24.48,25.35,8.91,22.85,12.33,47.5,13.46,72,.41,8.93.52,18-1.27,26.72-1.48,7.22-4.22,14.13-6.11,21.26-3.49,13.2-4,27-4.45,40.62-.34,10-.68,19.94.48,29.82.89,7.45,2.62,14.84,2.57,22.35s-2.2,15.42-7.8,20.42c-3.85,3.44-8.93,5.16-14,6.27a74.39,74.39,0,0,1-26.44,1c-1.92-.27-3.95-.68-5.36-2s-2-3.35-2.34-5.26a70.2,70.2,0,0,1,1.2-32.6Z"></path>
    <path data-name="1b" data-official="" data-plain="Pistil" data-loc="" d="M1594.74,2773l-.06-25.6c0-15.58,1.1-33.59,13.67-42.8a33.8,33.8,0,0,1,11.52-5.18c18.54-4.9,39.76,1.27,52.2,15.87s15,37,5.6,53.75c-3.1,5.48-7.38,10.41-9.11,16.47-3.31,11.6,3.43,24.89-1.82,35.75-4.92,10.16-17.75,13.16-29,14.47-8.06,1-16.72,1.53-23.82-2.41-6.6-3.66-10.74-10.75-12.54-18.07s-1.56-15-1.31-22.53Z"></path>
    <path data-name="1c" data-official="" data-plain="Sepal magnified" data-loc="" d="M1722.07,2741.61a88.8,88.8,0,0,0-3.79-41.05c-7.33-21.61-22.84-39.91-28.9-61.92-3-11-3.56-22.43-3.8-33.79-.38-17.47-.08-34.94.23-52.41.24-13.77.5-27.73,4.37-41,3.56-12.14,10-23.19,15-34.79,4.81-11.13,8.35-22.89,14.8-33.15s16.63-19.12,28.71-20.1c10.74-.88,21,4.54,29.68,10.94,10.13,7.47,19.06,16.44,27.79,25.51,18.06,18.76,35.7,38.44,47.45,61.68s17.16,50.68,9.68,75.62c-7.21,24-25.51,43.64-32.13,67.84-7.24,26.53.37,55.64-8.12,81.79-2.32,7.15-5.83,14-6.85,21.43-1.77,13,4,27.34-2.63,38.63-4.82,8.25-14.65,11.88-23.72,14.91-9.23,3.09-18.69,6.21-28.43,6.07s-20-4.13-25.07-12.44c-9.42-15.4,1.91-38.5-10-52.1Z"></path>
    <path data-name="1d" data-official="" data-plain="Ovary" data-loc="" d="M1857.16,2758.31c-2.34-12.26-4.1-24.76-3.13-37.21s4.85-24.94,12.76-34.6c11.72-14.3,31.48-20.79,49.83-18.45s35.08,12.73,47.25,26.65a60.67,60.67,0,0,1,10.38,15.86c5.7,13.37,4.5,28.63,1.91,42.93-2.39,13.14-6.45,27-16.86,35.4-5.42,4.37-12.39,7.09-16.32,12.84-4.94,7.23-3.65,17.23-7.88,24.9-3.36,6.11-9.88,10-16.63,11.67s-13.82,1.55-20.79,1.38-14.48-.57-19.71-5.14c-7.62-6.64-6.68-18.42-7.09-28.52a77.25,77.25,0,0,0-10-34.88Z"></path>
    <path data-name="1e" data-official="" data-plain="Cross section" data-loc="" d="M1989.36,2740.1c-8.5-18.33,1-40.75,16-54.28a52.13,52.13,0,0,1,17.73-11c6.21-2.11,12.84-2.61,19.39-2.77,13.49-.31,27.26.88,39.75,6a66.35,66.35,0,0,1,39.33,77.1,46.61,46.61,0,0,1-8.44,18.16c-6.76,8.44-17.12,13.52-23.41,22.31-6.1,8.53-7.77,19.73-14.4,27.86-5.54,6.77-14,10.63-22.62,12.22s-17.44,1.14-26.18.65c-3.54-.19-7.36-.5-10.06-2.8-4-3.38-3.88-9.4-4.16-14.61-1.09-20.24-12.68-38.2-23.9-55.08Z"></path>
    <path data-name="2" data-official="Helianthemum polifolium" data-plain="White mountain Sun Cistus" data-loc="Devonshire" d="M949.06,2238.79l-3.75,7.73-15.85-1.87c-1.55-.19-3.34-.53-4.06-1.91-.26-.49-.34-1-.57-1.55a3.74,3.74,0,0,0-3-1.91,11.35,11.35,0,0,0-3.7.44l4.45-12.81,12.92-4.68,13-4.68,1.28,4.7A52.48,52.48,0,0,1,949.06,2238.79ZM1359.91,2497a385.74,385.74,0,0,0,40.8-1.26,51.6,51.6,0,0,0,12.37-2.11c6.25-2.12,11.53-6.37,16.39-10.83a166.66,166.66,0,0,0,51.45-95.43c1.69-10.45,2.37-21,4.19-31.46,3.1-17.71,9.46-34.93,10.05-52.89a83.85,83.85,0,0,0-19-55.62l-7.88-16.59q-6-7.2-12.43-14a15.29,15.29,0,0,0-4.39-3.55,13.65,13.65,0,0,0-6.81-.83c-16.16,1.2-30.65,10.36-46.54,13.56a122.67,122.67,0,0,1-19.05,1.85q-13.51.56-27,.81l-.26,7.39a11.33,11.33,0,0,1-7.18,6.81,43.19,43.19,0,0,1-4.53.9c-6.91,1.37-12.87,6-16.88,11.84s-6.27,12.63-7.74,19.52l-9.17,16q-1.18,15.54-3.36,31c-1,7.25-2.26,14.64-5.78,21.05-3.11,5.68-7.84,10.28-12.72,14.53-16.17,14.08-35,25.56-47.76,42.8s-17.51,43.19-3.45,59.37c9.88,11.36,26.6,14.81,41.44,12.2l13.48,13.1c8.75,1.33,16.57,6.41,25.29,7.88,7.91,1.34,16.44-.28,23.73,3.08Zm-431-298.17c3.73.74,7.6.05,11.27-1a34.91,34.91,0,0,0,13.5-6.71l5.46-6.24c3.91-3.39,8-6.85,12.86-8.48s10.94-1,14.34,2.88l3.85,16c2.76,5.19,5.55,10.46,6.82,16.19,2.22,10-.36,20.62,1.8,30.65,1.54,7.17,5.43,13.65,10,19.41a89.22,89.22,0,0,0,34.13,26.31c5.56,2.42,12.21,5.21,13.39,11.16l-.94,7.3c6,1.37,8.74,8.09,12.6,12.89a25.14,25.14,0,0,0,23.16,8.85,12.11,12.11,0,0,0,6.52-2.85,19.71,19.71,0,0,0,2.84-4,40.32,40.32,0,0,1,28.91-18.53,78.69,78.69,0,0,1,14.48,0l38.26,2.27,6.91-.51c3.26-.45,5.63-3.62,6.16-6.86s-.39-6.56-1.48-9.66c-4.24-12.08-11.13-23.09-15.33-35.18a84.87,84.87,0,0,1-4.39-34.45l4.35-10.89c3.74-21.54,18.31-40.08,21.67-61.68,1.62-10.38.57-21.12,2.93-31.36,2.92-12.7,10.91-24,12.55-36.89l3.17-20.37c.08-3.44.12-7-1.43-10.11-1.22-2.41-3.31-4.24-5.33-6-5.54-4.87-11.17-10-14.09-16.8a29.11,29.11,0,0,0-2.42-5.18,5.67,5.67,0,0,0-4.74-2.73,13.75,13.75,0,0,0-4.17-9.47,25.73,25.73,0,0,0-9-5.57,5.32,5.32,0,0,1-2.83-1.87,5.74,5.74,0,0,1-.56-2,26.84,26.84,0,0,0-7.22-14.25l3.48-6.56a44,44,0,0,1,21.13,2.66c1.46.56,3.11,1.21,4.54.54a8.82,8.82,0,0,0,1.7-1.3c1.82-1.52,4.23-2.09,6.54-2.6,4.79-1.08,9.57-2.14,14.37-3.19l8.26-1.89c2.51-2.18,1.87-6.3,3.57-9.16a15.58,15.58,0,0,1,3.18-3.31,27.85,27.85,0,0,0-.46-41.63c-9.08-7.88-22-9-34-9.86l-4.65-2.87c-10.76-1-21.68,1.23-32.39-.25l-14.65,4.92c-6.94-1.3-11.33-8-14.64-14.29s-7-13.17-13.65-15.54c-5.88-2.08-12.36.06-18.58-.28-2.35-.13-4.68-.62-7-.63-5,0-9.83,2.12-14.16,4.7a68.38,68.38,0,0,0-10.2,7.46c-1.48,1.3-3.52,2.76-5.22,1.75-1.46-.86-1.5-2.91-1.51-4.6a28.68,28.68,0,0,0-7.27-19,26,26,0,0,0-18.39-8.51c-9-.2-17.29,4.47-24.51,9.77-8.7,6.4-17,14.74-18.73,25.41l-7.77,5.09a26.39,26.39,0,0,1-10.24,5c-2.94.7-6,.91-8.73,2.31-2.87,1.5-4.9,4.18-7.33,6.32-3.06,2.69-7.14,5.07-7.63,9.11l-5,5.38,2.12,6.17c.62,1.19-.36,2.58-1.36,3.46s-2.22,1.9-2.14,3.24a10,10,0,0,0,.46,1.66c.72,2.81-2.1,5.59-1.53,8.44.48,2.37,3.14,3.83,3.63,6.2s-1.3,4.8-.44,7a26.61,26.61,0,0,0,1.5,2.44c1,2,.33,4.6,1.55,6.47a26.54,26.54,0,0,0,1.82,2c1.88,2.35,1.27,5.73.88,8.71s-.07,6.68,2.62,8l4.08,16.89,8.75,6.5a6.41,6.41,0,0,0-.36,2.39c.26,1.45,1.87,2.18,2.86,3.26a5.89,5.89,0,0,1,.89,5.79,14,14,0,0,1-3.45,5,47.12,47.12,0,0,1-8,6.55c-3.19,2.1-6.88,4.08-8.3,7.63l-2.77,4.69a5.62,5.62,0,0,0-2.73,1.18c-3.47,2.56-5,6.95-6.08,11.12s-2,8.6-4.79,11.89l-11.74,5.4c-4.77,2.45-8.14,7.11-10,12.15s-2.23,10.49-2.23,15.85l-2,1.58c-.42.66-.86,1.3-1.32,1.93l-.1,1.87c.55,6.76,2.6,13.3,4.64,19.77a49.51,49.51,0,0,0,3.71,9.44c1,1.77,2.19,3.42,3,5.28,1.76,4.06,1.42,8.67,2.07,13a77.28,77.28,0,0,0,2,8.6,106.46,106.46,0,0,1,3.23,20.15ZM906.1,2375.92a100.83,100.83,0,0,1,9,9.39,18.54,18.54,0,0,0,4.36,4.26,5.68,5.68,0,0,0,5.82.33l4.36.08,3.7,8.52q2.61,5.25,5.24,10.5l-.07,5.64c-.48,1,.23,2.15.94,3,4.13,5,9.47,8.86,13.11,14.18l4.29,5.92a19.09,19.09,0,0,1,4.67,10.74c.27,2.77-.07,5.55,0,8.33a30,30,0,0,0,5.36,16.55c1,1.44,2.18,3,2.06,4.71a7,7,0,0,1-.84,2.47c-3.81,7.72-8,15.76-15.22,20.47l.1-17.22a38.36,38.36,0,0,0-9.83-26.43l-4.49-9.45q-1.43-2.86-2.87-5.73l-4.07-8.11a29.63,29.63,0,0,0-2.82-4.85c-1.82-2.39-4.32-4.18-6.29-6.45L908.91,2402a44.94,44.94,0,0,0-14.47-17.49l-4-2.42a154,154,0,0,1-11.84-12.53l.82-4.67c-3.32-3.25-5.67-7.34-8-11.37q-2.19-3.86-4.39-7.69l-10.94-.36a19.37,19.37,0,0,0-6.67-.86,69.78,69.78,0,0,1-19.84-3.47,9.35,9.35,0,0,1-2-.89l-16.17-2q-13.54-3-26.91-6.74c-3.45-1-7.25-2.22-9-5.37l-3.34-17.52c.12-3.81,3-7.16,6.5-8.69s7.48-1.53,11.25-1a31.17,31.17,0,0,1,13.69,5.4c2.37,1.74,4.71,3,7.64,3l6.94,4a37.8,37.8,0,0,0,10.35.2c3.41-.56,6.8-2.21,8.7-5.11l5.62-5.91a17.48,17.48,0,0,0-.37-6.69c-.72-2.21-2.33-4.12-2.65-6.42l-23.23-2.79a28.55,28.55,0,0,1-15.16,2.07c-4.18-.58-8.18-2.08-12.33-2.82s-8.72-.62-12.2,1.76l-9.36-6.4c-3.64.66-13-.13-13-.13-3.43,7.29-8.59,14.52-11,22.91-.71,2.5.28,5.41-1.15,7.58l-3.24,6.53c-6-6-15.13-7.45-22.64-11.45a111.58,111.58,0,0,1-10.69-7.13,99.78,99.78,0,0,0-21.12-11.12c1.58-2.89,1-6.57,2.39-9.54a19.46,19.46,0,0,1,2.86-3.87c10-11.94,11.14-28.8,11.77-44.4a91.78,91.78,0,0,0-.22-14.83c-1-8.57-4.4-17.91,0-25.34l3.91-8.61a82.31,82.31,0,0,0,23.24-14.28,21.61,21.61,0,0,0,4.43-4.88,14.75,14.75,0,0,0,.34-13.69,22,22,0,0,0-10-9.82c-2.13-1.1-4.44-2-6.15-3.66-2.77-2.73-3.36-6.93-3.54-10.81a91.87,91.87,0,0,1,2.58-26.43l-10.43-7.7c-2.67-4.16-7.92-5.83-12.82-6.33s-10-.16-14.68-1.61L667,2082c-15.21-2.21-31.13,3.61-45.89-.67-20.18-5.85-30.91-29.11-30.17-50.11s10.09-40.57,17.78-60.12c6.57-16.71,11.56-37.17.58-51.37-10.47-13.54-32.73-17-37.82-33.33l-4.48-8.79a27.41,27.41,0,0,1,.29-9.89,13.62,13.62,0,0,1,3.78-7.4c4.26-3.82,11.67-3.26,14.9-8,1.25-1.82,1.81-4.34,3.82-5.25l-.66-5.43c2.45-3.14,7.11-3.21,11.07-2.86,8.54.76,17.1,2.12,25.65,1.45s17.31-3.69,22.87-10.22c2.84-3.34,4.72-7.45,7.87-10.49l11.16-5.5c2.43-1.22,3-4.39,3.11-7.11a62.77,62.77,0,0,0-1.1-14.28l-3.88-9.08c-2.85-6.52-5.75-13.24-6-20.36-.2-4.85.82-9.69.61-14.54-.34-7.91-3.92-15.28-7.51-22.34-1.85-3.65-3.77-7.35-6.63-10.28-5.66-5.81-14.1-7.79-22.1-9.18-11.73-2-24-3.37-35.42-.14l-9-1.45a14.71,14.71,0,0,1-12.92-1.87c-2.44-1.71-4.32-4.16-6.84-5.75-4-2.52-9-2.62-13.64-2.65l-26-.12c-3.89,0-8,0-11.37,1.93-3,1.71-5.41,4.88-8.87,5.22-1.41.14-2.82-.23-4.23-.14-2.62.18-4.9,1.91-6.61,3.91s-3,4.31-4.77,6.26l-10.1,1.89a66,66,0,0,0-16.29,5.56c-3,1.48-6,3.33-7.65,6.26-2.66,4.81-.76,10.76,1.19,15.9-2.43-1.43-5.74.27-7,2.79s-1,5.5-.7,8.3c.47,4,1.12,8,2.87,11.51s4.77,6.7,8.61,7.71a6.33,6.33,0,0,0-3.26.62,2.18,2.18,0,0,0-1,2.85,2.15,2.15,0,0,0,.86.75c2.6,1.35,5.85-.85,8.64,0,2.16.69,3.31,2.94,4.71,4.72a14.47,14.47,0,0,0,7.89,5.07l1.35.23a20.53,20.53,0,0,0,1.15,14.06c1.6,3.45,4.17,6.45,5.3,10.09,1.4,4.51.36,9.52-1.88,13.68s-5.58,7.61-9,10.87c-7.79,7.38-17.21,14.38-27.94,14.3l-4.59,1a63.95,63.95,0,0,0-71.36,51.84c-1.92,10.48-1.2,21.33-3.44,31.74-4.54,21.1-20.41,37.65-35.67,52.9L311,2007a229.67,229.67,0,0,0-6.48,83c1.2,11.39,3.38,23,9.52,32.68,13.26,20.83,40.62,26.85,65.2,29.15a486.45,486.45,0,0,0,105.91-1.71c7.92-1,16.86-1.93,23.07,3.1,9.79,7.93,5.51,23.3,6.46,35.87.94,12.36,8,23.7,17.2,32s20.61,13.78,32.14,18.36c4.65,1.84,9.46,3.62,13.21,6.94s6.21,8.61,4.69,13.38c-.9,2.83-3,5.08-5.28,7.05-10.79,9.55-24.68,15-35.59,24.4s-18.44,25.78-11.1,38.17c5.82,9.83,18.48,13.08,29.9,13.73a118.11,118.11,0,0,0,79.92-25.61c7.77-6.25,16-14,25.91-13.46l6.21-.82a10,10,0,0,1,3.77-3.71c2.76-1.23,5.92.23,8.58,1.66q26.24,14.1,52.23,28.62l-.36,25.37C725.41,2381,714.53,2407.62,710,2435l9.18-4.7c24.27-8.44,42.34-8.69,52.53-32.29,6.41-14.82,8.75-32.22,2.36-47.05l-1.48-5.3a152.4,152.4,0,0,1,40.13,6.18l3.3.69c11,.93,21.7,4.79,32.75,4.76l-.44,6.73A13.55,13.55,0,0,0,844,2377.8l-1.87,6.06c-.75,7.35-.43,14.78-1.3,22.12l1,12.8c-.93,34.63.08,70.7,15.7,101.63,8.49,16.82,21.11,31.65,26.92,49.59,9.54,29.49-.1,64.89,17.71,90.26,11.35,16.18,31.19,23.88,50.26,29.08,8.36,2.27,17.16,4.43,23.64,10.17,6.71,5.95,10,15.06,10.62,24s-1,17.88-2.61,26.7l-6.94,21.07a44.55,44.55,0,0,0,2.34,23.64c4.38,11.31,15.43,21.26,27.43,19.54,5.9-.85,11-4.31,16-7.67a56,56,0,0,0,8.88-7,28.22,28.22,0,0,0,7.36-23.94l-1.33-18.15q.27-23.62.53-47.24c.11-10.26.22-20.63-2-30.64s-7.14-19.77-15.32-26c-6.09-4.62-13.56-7-20.86-9.22l-30.34-9.4c-3.26-1-6.63-2.08-9.24-4.29s-4.35-5.59-6.33-8.55c-4.76-7.11-11.89-12.65-15.33-20.48-2.4-5.48-2.77-11.6-3-17.58-.4-8.6-.67-17.37,1.54-25.7s7.24-16.31,15-20.09l2.54-4.25a36.17,36.17,0,0,0,4.44-9.88l2.52-8,2.91-3.44,9.2-10.93c2.48-2.93,5.08-6.18,5.22-10l3.87-3.93a21.78,21.78,0,0,0,2.57-10.39l5.93-1c11.41.26,22.31,5.65,30.66,13.43s14.3,17.81,18.8,28.29a121.92,121.92,0,0,0,5.11,11.36,83.73,83.73,0,0,0,8.2,11.47l14,17.4c4.4,5.47,8.9,11,14.81,14.83l4.6,2.94a9.24,9.24,0,0,1,12,1.34,20.28,20.28,0,0,0,2.54,3,9.9,9.9,0,0,0,3.09,1.43,181.37,181.37,0,0,1,19.82,7.84,18.45,18.45,0,0,1,4.91,3l13.08,11.48c11.44-1,23.11-2,34.3.6,8.54,2,16.46,5.94,24.78,8.68a33.78,33.78,0,0,0,8.8,1.91c3.89.2,7.74-.68,11.58-1.32,7.89-1.32,16-1.65,23.69-3.65s15.4-6,19.61-12.78l4.76-7.5A19.73,19.73,0,0,0,1265,2586l-9.34-5.74c-3.69-2.27-7.38-4.54-10.83-7.15l-6.25-8.82a26.08,26.08,0,0,0-6.25-6.54,12.17,12.17,0,0,1-1.81-1.46c-.51-.54-.89-1.2-1.38-1.76a11.16,11.16,0,0,0-5.21-2.91,87.26,87.26,0,0,0-11.15-2.87l-6.39,6a70.13,70.13,0,0,1-13.18,5.78c-2.92.82-5.93,1.26-8.78,2.28-4,1.41-7.54,3.91-11.64,4.87a32.94,32.94,0,0,1-7.15.59l-18.52.18-12,7c-6.88-1.54-14-3.17-19.72-7.27a38.91,38.91,0,0,1-5.43-4.83,79.07,79.07,0,0,1-15.92-24.09l-5.36-10.65-34.13-50.79c-5.82-8.66-12-17.63-21-22.79-5.23-3-11.13-4.51-17-5.91-7.84-1.86-15.88-3.54-23.9-2.75l-3.85-7c.42-2.63-.48-5.28-1.37-7.8l-5.55-15.73.24-6c3.71-.07,6.57-3.1,9.32-5.6a44,44,0,0,1,10.63-7.12l7.47-5.07a58.78,58.78,0,0,1-12.44-13.79,36.12,36.12,0,0,0-2.73-4,13.93,13.93,0,0,0-10.21-4.78l-9.8-7.25c-9-5-14.53-14.37-18.56-23.8-7.28-17-11-35.25-14.68-53.37l.77-12.14c-1.55-1.86-3.11-3.71-4.66-5.56-1.29-1.53-2.59-3.07-4-4.49a34.79,34.79,0,0,0-5.75-4.59c-1.64-1-3.57-2-5.46-1.53-2.16.49-3.54,2.54-4.69,4.43l-2.53,4.12-3.7,13.67c-2.5,4.81-2.86,10.4-4,15.69a52.94,52.94,0,0,1-13,24.83c-2.59,2.77-5.67,5.72-5.67,9.52l-3.17,9.15a78.85,78.85,0,0,1,3.39,9.73,64.17,64.17,0,0,0,17.76,27.38Z"></path>
    <path data-name="2a" data-official="" data-plain="Pistil" data-loc="" d="M217.25,2813c-3.74-23.17-7.24-46.63-5.45-70,2.11-27.7,11.6-54.84,10-82.58-.71-12-3.49-23.73-4.83-35.65-.65-5.72-.89-11.83,1.83-16.91,3.94-7.34,12.86-10.39,21.11-11.56,11-1.55,23.79-.17,30.65,8.57,5.24,6.68,5.63,16,4.18,24.36s-4.5,16.43-5.33,24.88c-1.88,19.12,7.63,37.23,13.09,55.65,7.86,26.46,7.43,54.57,6.94,82.16-.1,5.47-.23,11.08-2.24,16.16-3.76,9.5-13.62,15.48-23.66,17.38s-20.37.4-30.47-1.11Z"></path>
    <path data-name="2b" data-official="" data-plain="Stamen magnified" data-loc="" d="M141.39,2811.41c-1.49-14.77-2.9-30.22,2.57-44,2-5.16,5-9.93,6.83-15.17,2.81-8.06,2.84-16.79,2.55-25.32-.68-20.62-3-41.17-4-61.78-.63-13-.63-26.49,5-38.15,1.45-3,3.38-5.93,6.31-7.52,3.38-1.83,7.47-1.54,11.29-1.07q6.85.84,13.63,2.28c6.44,1.37,13.4,3.56,16.85,9.17,2.44,3.95,2.62,8.85,2.74,13.49.36,15.11.71,30.42-2.7,45.14-2.19,9.46-5.9,18.51-8.06,28-5.81,25.4-.23,51.79,1.68,77.77.79,10.83-.1,23.75-9.33,29.47-4.38,2.72-9.76,3.14-14.91,3.19a135.75,135.75,0,0,1-15.35-.72Z"></path>
    <path data-name="2c" data-official="" data-plain="Hairs magnified" data-loc="" d="M67.59,2747.69l-35.42-36.84c-10.24-10.65-20.94-22.17-23.67-36.69a38.94,38.94,0,0,1,11.38-34.88,38.93,38.93,0,0,1,35.52-9.21c9.6,2.43,17.85,8.46,25.62,14.6,10.33,8.17,20.39,16.87,28.41,27.32,13.06,17,20.17,38,23.1,59.28s1.87,42.85-.08,64.21c-.4,4.48-.88,9.06-2.72,13.17-5.62,12.52-21.92,16.46-35.48,14.35-6.09-.94-12.55-3.15-15.84-8.35-3.77-6-2.17-13.64-1.64-20.67a61.83,61.83,0,0,0-4-27Z"></path>
    <path data-name="3" data-official="Helianthemum vulgare" data-plain="Common Sun Cistus" data-loc="Britain" d="M1026.82,2574.8q-.22,9.91-1,19.81c-.41,5.1-1,10.29-3,15-3.44,7.81-10.81,13.37-18.79,16.4s-16.62,3.81-25.15,4.33c-6.37.38-13.22.51-18.56-3l-6.1-4.94c-4.76-7.11-11.89-12.65-15.33-20.48-2.4-5.48-2.77-11.6-3-17.58-.4-8.6-.67-17.37,1.54-25.7s7.24-16.31,15-20.09l2.54-4.25a36.17,36.17,0,0,0,4.44-9.88l2.52-8,2.91-3.44,9.2-10.93c2.48-2.93,5.08-6.18,5.22-10l3.87-3.93a21.78,21.78,0,0,0,2.57-10.39l5.93-1,3.13,20.2a228.1,228.1,0,0,0,28.64,65.94,22.61,22.61,0,0,1,3.14,6.17A20.62,20.62,0,0,1,1026.82,2574.8Zm-91.08-132.62-4.07-8.11a29.63,29.63,0,0,0-2.82-4.85c-1.82-2.39-4.32-4.18-6.29-6.45L908.91,2402a44.94,44.94,0,0,0-14.47-17.49l-4-2.42a154,154,0,0,1-11.84-12.53l.82-4.67c-3.32-3.25-5.67-7.34-8-11.37q-2.19-3.86-4.39-7.69l-4.72-11.44-3.93-8.41c-3.16-6.74-6.35-13.55-11-19.38l-4.56-6a17.48,17.48,0,0,0-.37-6.69c-.72-2.21-2.33-4.12-2.65-6.42l-14.23-12.68q-7.83-7.38-16.21-14.12c-1.57-1.26-3.25-2.55-5.24-2.81-1.21-.16-2.69,0-3.34-1.06a3.4,3.4,0,0,1-.35-1.82,13.6,13.6,0,0,0-3.28-8.38c-1.17,1.81-2.33,3.62-3.5,5.42a3.46,3.46,0,0,1-1.77,1.67,3.72,3.72,0,0,1-2.48-.57,29,29,0,0,0-16.23-2.66l-15.26,8c-.43-5.68-3.65-10.82-7.51-15s-8.43-7.7-12.41-11.78A59.35,59.35,0,0,1,725.74,2213c12.53,1.38,24.7-8,37.06-5.5l5.35-1.6a138,138,0,0,1,33.14,14.33q1-11,2-22.05a118.58,118.58,0,0,0,.7-18.35,65.53,65.53,0,0,1-.41-9.17,66.9,66.9,0,0,1,1.51-8.28,57.36,57.36,0,0,0-.92-26.44l-3.88-12.7-2.37-2.29-6.83-6.61a3.27,3.27,0,0,1-.88-1.18,3.51,3.51,0,0,1,0-1.61,10.59,10.59,0,0,0-.7-6.15,6.33,6.33,0,0,0-4.8-3.63l-2.16.18a52.72,52.72,0,0,1-28.73-43.81c-.2-4.18.1-8.37-.26-12.53-.44-5-1.86-10-1.67-15,0-1.37.33-2.91,1.46-3.68a4,4,0,0,1,2.41-.51c4.32.15,8.15,2.74,11.44,5.54,13.07,11.13,22.42,27.26,38.19,34l18.22-20.15,3.54-10.33c1.32-3.84,2.64-8,1.48-11.88-1.3-4.38-5.43-7.28-9.53-9.32a23.92,23.92,0,0,0-6-2.21c-3.35-.65-6.81-.15-10.19.35l-34.24,5.06,2.75,3.53a140.29,140.29,0,0,1-22-2.56L739.32,2023l-14.16-7.23c-6.88-4.63-13.86-9.36-19.09-15.79s-8.55-14.93-6.89-23a7.19,7.19,0,0,1,1.09-2.82A7.73,7.73,0,0,1,703,1972c3.18-1.74,6.78-3,10.38-2.6a24.14,24.14,0,0,1,5.31,1.5,336,336,0,0,0,38.93,11.49l6.65,4.31a165.79,165.79,0,0,1,54.42,8c4.64,1.5,9.24,3.21,14,4a2.46,2.46,0,0,0,2.27-.38,2.51,2.51,0,0,0,.43-1.77q-.17-21-.32-42.07c0-3.25-.06-6.57-1.1-9.66l.69-3,.45-27.83c.08-5.07.15-10.23-1.31-15.09a41.13,41.13,0,0,1-8-5.38l-3.25-2.72c-2.59-3.66-5.29-8.29-3.34-12.33a9.63,9.63,0,0,0,1.29-2.88,2.86,2.86,0,0,0-3.41-2.93c-1.25.34-2.15,1.53-3.42,1.74-1.52.26-2.85-.93-3.92-2q-9.45-9.66-18.85-19.38l-8.45-4.56c-2.19-13.62-8.07-27-6.17-40.68.41-3,1.19-5.89,1.38-8.88.38-5.76-1.41-11.65,0-17.26q13.77,15.63,28.21,30.67l5.16,5.35,9.86,10.19,6.82-3.58c1.58.52,3.32-.57,4.12-2a10.92,10.92,0,0,0,.91-4.86l.24-8,3.66-4.49s-1.88-43.88-6.75-81l-3.38-6.75c-2.6-8.17-5.3-16.56-10.72-23.21a34.09,34.09,0,0,0-7.85-7.07l-5.36-8A81,81,0,0,1,778,1615.57l-.62-4.87a11.85,11.85,0,0,1-7.86-9.72,33.06,33.06,0,0,1-18.78,4.72V1610a2.49,2.49,0,0,1-.17,1.12,2.27,2.27,0,0,1-1.07.93,9.62,9.62,0,0,1-5.24,1l-6,1.81a59.69,59.69,0,0,0-14-3.59c-3.29-.43-6.89-.5-9.61,1.39s-3.79,5-4.75,8a159.91,159.91,0,0,0-6.88,32.44c-.44,4.13-.54,8.79,2.28,11.83,2.4,2.58,6.78,3.94,7,7.45l3.48,4.46a22.48,22.48,0,0,1,1,4.94c1.09,9.31-.06,18.72-1.21,28l.56,4.24c-2.76,5.35-8.14,9.08-10.47,14.63l-2.8,4.18a71.08,71.08,0,0,1-6.21,5.69,3.25,3.25,0,0,1-1.53.83,3.42,3.42,0,0,1-2-.53l-4-2a18.68,18.68,0,0,1-4.35-2.74c-2.87-2.66-3.73-6.77-4.89-10.51s-3.21-7.75-7-8.83l-3.11-1.6a23.09,23.09,0,0,1-14.18,13.45l-2.67-.2c-1.85-3.65-3.77-7.35-6.63-10.28-3.8-3.9-8.85-6.07-14.18-7.5-2.61-.7-5.29-1.22-7.92-1.68l3.6-17.27a69.29,69.29,0,0,1,25.3-43.72,11.83,11.83,0,0,0,3.62-3.77,10.5,10.5,0,0,0,.82-3.18q1-6.33,1.91-12.64l4.32-18.56c5.1-6,7.46-14.35,13.92-18.82l4.55-8.82c-9.24-14.89-11.14-33.49-20.65-48.21l-1.93-7.16a90.56,90.56,0,0,1,3.47-35.66c2.48-8.11,7.21-16.82,15.5-18.63a15.43,15.43,0,0,0,4.23-1.11c3.24-1.77,3.47-6.25,5.19-9.52a12.19,12.19,0,0,1,9.28-6,17.72,17.72,0,0,1,11,2.58c2.87,1.68,5.34,2,8.16,3.7s6.24,2.94,9.46,2.13c1.33-.33,6.29,1.81,7.32,2.46a186.15,186.15,0,0,1,21.51,15.85c3,2.58,7.1,5.44,10.61,3.56a95.37,95.37,0,0,1-7.12-22.86c-.68-3.79-1.07-7.92.79-11.28,1-1.85,2.68-3.32,3.61-5.22a29.66,29.66,0,0,0,1.51-5c2.2-7.62,9.14-12.93,16.3-16.35s15-5.54,21.69-9.73l10-7.85c3.76-4.54,10.71-4.31,16.53-3.32,9,1.52,17.9,3.95,25.66,8.68,3.67,2.24,7,5,10.67,7.29,10.45,6.66,23.34,10.07,31.43,19.46L926,1474.46c3.32,11.5,6.65,23,8.84,34.79a101.82,101.82,0,0,0,2.88,13.18,80.91,80.91,0,0,0,6.22,13.31c4.64,8.51,9.33,17.1,15.68,24.43,2.56,3,5.44,5.8,7,9.41a29.33,29.33,0,0,1,1.71,8.58q.68,7,1.36,14.06l-15,12.2-14.92,12.34a6,6,0,0,0-2.7,7q2.17,16.65,4.34,33.3a18,18,0,0,0,1.13,5c.75,1.71,2,3.15,2.81,4.84,1.92,4.13.71,9-.75,13.28a127.68,127.68,0,0,1-33.73,52.18,18.44,18.44,0,0,1-4.57,3.4,19.94,19.94,0,0,1-6.36,1.42c-5,.56-10.16,1.11-15.05-.13a39.13,39.13,0,0,1-7.25-2.85A296.66,296.66,0,0,1,849.78,1719l-6.52-1.13c-.52,31.77,7.63,63.22,6.82,95a9.19,9.19,0,0,0,.71,4.78c.8,1.42,2.78,2.31,4.12,1.38,1-.73,1.24-2.14,1.81-3.27s2.2-2,3-1a2.32,2.32,0,0,1,.38,1.49l.27,10.61c2.69,0,5-2.16,6.15-4.59s1.43-5.18,1.83-7.85a64.13,64.13,0,0,1,13.2-30.94c4.26-5.26,9.51-9.81,12.74-15.76a2.48,2.48,0,0,1,1.16-1.3,2.25,2.25,0,0,1,2.09.82c7.13,6.64,8.52,17.51,7.27,27.17s-4.67,19-5.44,28.71c-.3,3.83-.19,7.69-.43,11.54a62.2,62.2,0,0,1-2.3,13.27l-2.35,19.23L861,1895.21c-2.15,2.42-14.51,1-15.46,4.15-2.27,7.39-.5,31.81-.75,32.24a4,4,0,0,0-.36,2.18q.59,26.61,2.93,53.14a9.68,9.68,0,0,0,.65,3.17c1.17,2.55,4.38,3.59,7.15,3.22s5.27-1.79,7.8-3a51.39,51.39,0,0,1,14-4.32l13.3-4.62a161.89,161.89,0,0,1,46.18,16.14c7.74,4.11,15.26,8.9,23.71,11.23l8.75,6.5a6.41,6.41,0,0,0-.36,2.39c.26,1.45,1.87,2.18,2.86,3.26a5.89,5.89,0,0,1,.89,5.79,14,14,0,0,1-3.45,5,47.12,47.12,0,0,1-8,6.55c-3.19,2.1-6.88,4.08-8.3,7.63l-2.77,4.69a5.62,5.62,0,0,0-2.73,1.18c-3.47,2.56-5,6.95-6.08,11.12s-2,8.6-4.79,11.89l-11.74,5.4c-4.77,2.45-8.14,7.11-10,12.15s-2.23,10.49-2.23,15.85l-2,1.58c-5.49,8.54-13.92,14.69-22.16,20.63l-4.75,70.49c2.45-.78,5.09-.05,7.61.42,9.51,1.75,19.26-.38,28.69-2.51l9.12.08c3.73.74,7.6.05,11.27-1a34.91,34.91,0,0,0,13.5-6.71l5.46-6.24c3.91-3.39,8-6.85,12.86-8.48s10.94-1,14.34,2.88l-2.57,11.4c-.23,3.48-2,6.65-3.68,9.7-2.1,3.74-4.24,7.54-7.24,10.61s-7.05,5.37-11.35,5.36l-13.05,1.17-13,4.68-12.92,4.68-7.56,2.94-7.16-.13c-9.22-.15-18.69-.27-27.32,3l-15.34,33.1c-4.79,4.67-6.74,11.67-6.6,18.36s2.15,13.19,4.27,19.53c1.95,5.82,4.17,11.84,8.71,16l13.73,18.58a78.85,78.85,0,0,1,3.39,9.73,64.17,64.17,0,0,0,17.76,27.38l1.15-1.28c-.21-.86-.2-2.11.68-2.27a1.68,1.68,0,0,1,1,.22l5.09,2.35a21.87,21.87,0,0,1,3,1.56,19,19,0,0,1,2.24,1.87A64.44,64.44,0,0,1,929.62,2390l3.7,8.52q2.61,5.25,5.24,10.5l-.07,5.64c-.48,1,.23,2.15.94,3,4.13,5,9.47,8.86,13.11,14.18l4.29,5.92a19.09,19.09,0,0,1,4.67,10.74c.27,2.77-.07,5.55,0,8.33a30,30,0,0,0,5.36,16.55c1,1.44,2.18,3,2.06,4.71a7,7,0,0,1-.84,2.47c-3.81,7.72-8,15.76-15.22,20.47l.1-17.22a38.36,38.36,0,0,0-9.83-26.43l-4.49-9.45Q937.19,2445,935.74,2442.18ZM700.64,1609.4l-16.41,3.9c-8.93,5.33-13.3,15.75-16.65,25.6a4.75,4.75,0,0,0-.37,1.89,5,5,0,0,0,1.17,2.47A90.59,90.59,0,0,1,679.07,1663l13.12-.15a223.91,223.91,0,0,1,7.72-44.87C700.69,1615.15,701.52,1612.17,700.64,1609.4Zm160.82,469.26a92.23,92.23,0,0,1,14.25-14.44,49,49,0,0,0,6.39-5.64,12.17,12.17,0,0,0,3.31-7.68L869.29,2034c-2.24-2.51-4.53-5.07-7.47-6.71s-6.7-2.2-9.65-.59c-3.4,1.85-4.86,6-5,9.9s.76,7.7.72,11.57c0,2.87-.56,5.73-.35,8.59.28,3.85,1.89,7.46,3.48,11Z"></path>
    <path data-name="3a" data-official="" data-plain="Seed-vessel open" data-loc="" d="M313.45,2772.7q-13.24-30.61-25.09-61.8c-1.69-4.46-3.4-9.13-2.94-13.88.83-8.71,9-15.35,17.54-17.1s17.43.37,25.78,3c3.08,1,6.39,2,9.46,1,2.65-.83,4.61-3,6.66-4.85a38.46,38.46,0,0,1,42.21-5.62c5.93,3,11.1,7.64,17.5,9.45,15.24,4.31,32.34-8.46,46.69-1.78,10.95,5.09,14.45,19.37,12.55,31.29s-7.71,22.91-10.09,34.75c-2.57,12.84-1.22,26.92-7.9,38.19-3.72,6.27-9.61,11-13.42,17.23-2.6,4.24-4.19,9.11-7.31,13-6.11,7.57-16.58,9.73-26.18,11.36-15.57,2.64-33.11,4.74-45.78-4.7s-17.11-28.67-31.7-35.13Z"></path>
    <path data-name="3b" data-official="" data-plain="Seed magnified" data-loc="" d="M474.35,2768.94a142.46,142.46,0,0,1,3.27-34.88c2.26-10.25,6.64-21.37,16.27-25.55,11.58-5,25,2.65,32.88,12.53a62.19,62.19,0,0,1,11.42,22.68c2.47,9.28,2.76,19,3,28.58l.81,29c.12,4.28.23,8.64-.84,12.79-2.53,9.74-11.29,16.78-20.65,20.44-7.41,2.89-15.9,4.06-23.24,1-7.69-3.21-13-10.63-15.61-18.55s-2.94-16.37-3.23-24.7Z"></path>
    <path data-name="3c" data-official="" data-plain="Hairs magnified" data-loc="" d="M586.11,2691.49a72.92,72.92,0,0,0-90.88-40.92c-5.46,1.87-11.46,5.41-11.91,11.16-.21,2.76.95,5.43,2.3,7.84,11.7,21,36.81,30.33,53.31,47.8a73.32,73.32,0,0,1,19.57,43.72c1.46,17.13-3.13,34.82,1.63,51.35.86,3,2.09,6,4.36,8.15a20.42,20.42,0,0,0,6.89,3.78c8.15,3.13,16.8,5.75,25.47,4.82s17.38-6.23,20-14.56l-.05-14.07c-5.67-1.67-9.48-7.24-10.79-13s-.56-11.77.14-17.63c3.45-29,5.49-58.37,3.34-87.54Z"></path>
    <path data-name="4" data-official="Helianthemum formosum" data-plain="Beautiful Sun Cistus" data-loc="Portugal" d="M811.42,2338.24q-13.54-3-26.91-6.74c-3.45-1-7.25-2.22-9-5.37l-3.34-17.52c.12-3.81,3-7.16,6.5-8.69s7.48-1.53,11.25-1a31.17,31.17,0,0,1,13.69,5.4c2.37,1.74,4.71,3,7.64,3l6.94,4ZM700.64,1609.4l-16.41,3.9c-8.93,5.33-13.3,15.75-16.65,25.6a4.75,4.75,0,0,0-.37,1.89,5,5,0,0,0,1.17,2.47A90.59,90.59,0,0,1,679.07,1663l13.12-.15a223.91,223.91,0,0,1,7.72-44.87C700.69,1615.15,701.52,1612.17,700.64,1609.4Zm74.1,751.53c6.2,11.11,6.8,24.38,7.25,37.1l1.74,7.11c2.47,6.2,4.95,12.49,5.67,19.12.25,2.37.28,4.75.34,7.13a295.44,295.44,0,0,0,2.65,33.23l-3,11.88a114.07,114.07,0,0,0-1.92,30.91l-6.35,10.27a208.76,208.76,0,0,1,3.93,54c-.87,15-3.35,29.86-5.83,44.68-5,29.94-10,60-19.38,88.88-3.35,10.36-7.3,21.29-4.72,31.87,3,12.3,14.07,20.86,25.19,26.93a41.63,41.63,0,0,0,6.54,3c4.53,1.52,9.4,1.66,14.18,1.79,7.7.2,16.14.16,22.08-4.73,5.46-4.5,7.34-11.89,10.58-18.18,2.3-4.46,5.39-8.51,7.19-13.19,1.9-4.91,2.28-10.25,2.64-15.5l2.24-32.29,4.91-71c2-28.55,4-57.13,3.93-85.75l-6.83-8.92c-6.52-8.47-8.78-19.36-10.86-29.85a105.76,105.76,0,0,1-1.78-10.9c-.37-3.87-.31-7.77-.55-11.66-.85-13.66-5.32-26.82-10.1-39.65l-4.79-8.66c-6.53-18.79-4.68-39.3-6-59.15l2.3-6.88-3.3-.69a152.4,152.4,0,0,0-40.13-6.18L774,2351Zm-7.14-81.65,9.36,6.4c3.48-2.38,8-2.49,12.2-1.76s8.15,2.24,12.33,2.82a28.55,28.55,0,0,0,15.16-2.07l-7.21-24c-1.57-1.26-3.25-2.55-5.24-2.81-1.21-.16-2.69,0-3.34-1.06a3.4,3.4,0,0,1-.35-1.82,13.6,13.6,0,0,0-3.28-8.38c-1.17,1.81-2.33,3.62-3.5,5.42a3.46,3.46,0,0,1-1.77,1.67,3.72,3.72,0,0,1-2.48-.57,29,29,0,0,0-16.23-2.66Zm7-151.69c-5.5,17.73-11.06,35.89-10.21,54.43l.4,7.86a25.56,25.56,0,0,0-.46,8.72l-1.5,8.88,5.35-1.6a138,138,0,0,1,33.14,14.33q1-11,2-22.05a118.58,118.58,0,0,0,.7-18.35,65.53,65.53,0,0,1-.41-9.17,66.9,66.9,0,0,1,1.51-8.28,57.36,57.36,0,0,0-.92-26.44l-3.88-12.7-2.37-2.29-6.83-6.61a3.27,3.27,0,0,1-.88-1.18,3.51,3.51,0,0,1,0-1.61,10.59,10.59,0,0,0-.7-6.15,6.33,6.33,0,0,0-4.8-3.63l-2.16.18Zm48-236.8c-2.59-3.66-5.29-8.29-3.34-12.33a9.63,9.63,0,0,0,1.29-2.88,2.86,2.86,0,0,0-3.41-2.93c-1.25.34-2.15,1.53-3.42,1.74-1.52.26-2.85-.93-3.92-2q-9.45-9.66-18.85-19.38l-3.74,2.13a262.16,262.16,0,0,0-1.44,31.45l1.85,6a13.7,13.7,0,0,1,9.91,6.16,21.06,21.06,0,0,1,3.28,11.45,13,13,0,0,0-11.15-4.94,9.08,9.08,0,0,1,7.52,7.72,43.28,43.28,0,0,0-5.4-3.93,3.82,3.82,0,0,0-2.52-.79,2.66,2.66,0,0,0-1.24.6c-1.63,1.3-2.13,3.59-2,5.67a58.65,58.65,0,0,0,1.31,6.1,38.24,38.24,0,0,1,.45,7.26l0,28.89a3.21,3.21,0,0,0,.31,1.74,3.1,3.1,0,0,0,.73.76,25.82,25.82,0,0,0,5.14,3.29l1.11,1.45a162.77,162.77,0,0,1,17.09-11.58c1.91-1.07,3.88-2.07,5.79-3.16a29.89,29.89,0,0,0,7.47-5.6L819,1916.65a14,14,0,0,0-7.26-12q3.74-3,7.46-5.94ZM884.78,1737a39.13,39.13,0,0,1-7.25-2.85A296.66,296.66,0,0,1,849.78,1719l-6.52-1.13c-.52,31.77,7.63,63.22,6.82,95a9.19,9.19,0,0,0,.71,4.78c.8,1.42,2.78,2.31,4.12,1.38,1-.73,1.24-2.14,1.81-3.27s2.2-2,3-1a2.32,2.32,0,0,1,.38,1.49l.27,10.61c2.69,0,5-2.16,6.15-4.59s1.43-5.18,1.83-7.85a64.13,64.13,0,0,1,13.2-30.94c4.26-5.26,9.51-9.81,12.74-15.76a2.48,2.48,0,0,1,1.16-1.3,2.25,2.25,0,0,1,2.09.82c7.13,6.64,8.52,17.51,7.27,27.17s-4.67,19-5.44,28.71c-.3,3.83-.19,7.69-.43,11.54a62.2,62.2,0,0,1-2.3,13.27l-.85,27.29,8.44-2.31a5.36,5.36,0,0,0,4.09-3.18l18.46-29.88c3.82-6.17,7.63-12.35,10.86-18.85l.72-23.16c-3.72-10.33-7.47-20.72-13-30.24s-12.84-18.2-22.38-23.63ZM721.05,1673.9c6.44,2.94,14.51.41,20.71,3.83,6.94,3.82,9.07,13.75,16.36,16.84l4.29,4.72a13.34,13.34,0,0,1,8.48,6.34c.79,1.38,1.41,3,2.81,3.76a6.35,6.35,0,0,0,3.15.5c9.74-.14,20.1-.74,28.55,4.12l9.16-.49c-.64,5.86-1.13,12.33,2.33,17.09,1.67,2.3,4.3,5,2.83,7.45-.9,1.51-3.14,2-3.64,3.73a10,10,0,0,1-.33,1.44c-.62,1.33-2.76,1.24-3.49,2.52-.49.84-.13,1.92-.32,2.88-.34,1.63-2.18,2.51-3.84,2.64-5,.41-9.29-3.37-14.21-4.11-3.89-.57-8.33.67-11.46-1.69a21.87,21.87,0,0,1,1.05,10.58l-7.32-.42a32.84,32.84,0,0,0-21.75-9.18,4.17,4.17,0,0,0-2.78.64,3.53,3.53,0,0,0-1.08,2.2c-.75,4.33,1.73,8.46,3.48,12.48a40.73,40.73,0,0,1,3.2,12.46,18.48,18.48,0,0,1-.66,7.8c-1.9,5.35-7.39,8.82-9.21,14.19-.48-4.19-3.93-7.43-7.6-9.51s-7.78-3.4-11.17-5.89a38.52,38.52,0,0,1-7.15-7.55c-2.91-3.67-5.86-7.42-7.61-11.77-2.7-6.69-2.33-14.16-1.91-21.36l-15.25-1.64a3.25,3.25,0,0,1-1.53.83,3.42,3.42,0,0,1-2-.53l-16.72-.64,3.14,17.95a56.53,56.53,0,0,0,5.75,18.25l6.64,14.56,8.87,4.11,15,7.5a22.34,22.34,0,0,0,5.88,2.28,26.49,26.49,0,0,0,7.64-.24A147.06,147.06,0,0,1,747,1802l14.45.15a25.68,25.68,0,0,1,7.87.91,8.67,8.67,0,0,1,5.66,5.18l1.25-.54c.41-3,1.19-5.89,1.38-8.88.38-5.76-1.41-11.65,0-17.26q13.77,15.63,28.21,30.67l5.16,5.35,9.86,10.19,6.82-3.58c1.58.52,3.32-.57,4.12-2a10.92,10.92,0,0,0,.91-4.86l.24-8,3.66-4.49s-1.88-43.88-6.75-81l-3.38-6.75c-2.6-8.17-5.3-16.56-10.72-23.21a34.09,34.09,0,0,0-7.85-7.07l-5.36-8A81,81,0,0,1,778,1615.57l-.62-4.87a11.85,11.85,0,0,1-7.86-9.72,33.06,33.06,0,0,1-18.78,4.72V1610a2.49,2.49,0,0,1-.17,1.12,2.27,2.27,0,0,1-1.07.93,9.62,9.62,0,0,1-5.24,1l-6,1.81a59.69,59.69,0,0,0-14-3.59c-3.29-.43-6.89-.5-9.61,1.39s-3.79,5-4.75,8a159.91,159.91,0,0,0-6.88,32.44c-.44,4.13-.54,8.79,2.28,11.83,2.4,2.58,6.78,3.94,7,7.45Zm-97-41a12.76,12.76,0,0,0-5.67,5.25c-1.1,2.12-1.35,4.57-2,6.87-1.18,4-3.63,7.59-6.05,11.06l3.2,8.15a13.61,13.61,0,0,0,17.66,6.66,3.76,3.76,0,0,0,1.75-1.28l4.2-5.5a68.46,68.46,0,0,1,16-18.25,11.83,11.83,0,0,0,3.62-3.77,10.5,10.5,0,0,0,.82-3.18q1-6.33,1.91-12.64l-2.26.41a15.63,15.63,0,0,1-5.18,6.48c-4.49,3.24-10.34,3.85-15.88,3.87a7.88,7.88,0,0,1-2.82-.36,8.15,8.15,0,0,1-3.4-3.29ZM781.69,823.59c-12.51-11.63-14.16-30.42-19.43-46.67-12.54-38.63-49.17-70.36-46.42-110.87,1.57-23.13,16-43,26.54-63.66s17-47,3.63-66c-4.31-6.09-10.41-10.89-13.94-17.47-9.15-17.1,2.09-37.31,7.8-55.85,10.17-33.05.74-71.35-23.6-95.9-7.79-7.87-17.25-14.5-28.06-16.89-12.35-2.73-25.22.29-37.24,4.24a241.47,241.47,0,0,0-45.92,20.65c-14.69,8.55-28.92,18.84-45.56,22.28-18.72,3.87-39.12-1.27-56.7,6.24-21.56,9.22-31.44,34.14-35.87,57.16s-6,47.72-19.38,67c-18.9,27.26-58.71,39.62-66.52,71.86-9.31,38.45,34.86,73,30.44,112.28L410,746.11c1.45,37-28.61,69.2-62.88,83.34s-72.36,14.49-109.36,16.81S162.07,853.72,132,875.38c-16.3,11.73-29.13,27.74-39.47,45C60.86,973.07,52,1036.81,54.91,1098.25c1.2,25.38,4.32,50.87,12.35,75a190,190,0,0,0,208.41,127.85l18.74-4.91c5.59-1.79,11.21-3.58,16.39-6.32a22.09,22.09,0,0,0,7.05-5.34c2.37-2.91,3.5-6.6,5.27-9.91a27.71,27.71,0,0,1,7.54-8.89,18.08,18.08,0,0,1,6.08-3.22,26.73,26.73,0,0,1,7.42-.64c5.11,0,10.27.08,15.2,1.37,6.25,1.63,12.25,5.26,18.66,4.55l8,1a38.12,38.12,0,0,1,39.18,32.37l-.08,12.58c1.76,1,1.85,3.56.93,5.33s-2.53,3.11-3.62,4.79c-2.49,3.85-1.92,8.82-1.62,13.4a83.65,83.65,0,0,1-.45,15.58c-.29,2.36-.61,5,.83,6.88.69.91,1.7,1.51,2.44,2.37,3.3,3.85-.22,10.63,3,14.52l26.77,16.26c5.9,3.12,13,1.65,19.68,1.93a36.6,36.6,0,0,1,23,9.53l14.05,9.22c5.57,3,9.92,7.87,15,11.63,7.5,5.52,16.46,8.61,25.27,11.63a118.93,118.93,0,0,0,16.71,4.82c7.89,1.45,16.05,1.28,23.85,3.18l9.29,8.27,10.92,3a19.16,19.16,0,0,1,6.45,2.69c2.33,1.74,3.91,4.56,6.64,5.55l1,11.41a17,17,0,0,0,8.12-3.29c2.78-2.11,5.13-5.18,8.57-5.8-.43,2.46.61,5,2,7s3.3,3.77,4.83,5.74a23.16,23.16,0,0,1,4.08,8.3,3.19,3.19,0,0,0,.39,1,2.7,2.7,0,0,0,1,.78,12.94,12.94,0,0,0,7.53,1.4l1.31-1.87c2.48-8.11,7.21-16.82,15.5-18.63a15.43,15.43,0,0,0,4.23-1.11c3.24-1.77,3.47-6.25,5.19-9.52a12.19,12.19,0,0,1,9.28-6,17.72,17.72,0,0,1,11,2.58c2.87,1.68,5.34,2,8.16,3.7s6.24,2.94,9.46,2.13c1.33-.33,6.29,1.81,7.32,2.46a186.15,186.15,0,0,1,21.51,15.85c3,2.58,7.1,5.44,10.61,3.56a95.37,95.37,0,0,1-7.12-22.86c-.68-3.79-1.07-7.92.79-11.28,1-1.85,2.68-3.32,3.61-5.22a29.66,29.66,0,0,0,1.51-5c2.2-7.62,9.14-12.93,16.3-16.35s15-5.54,21.69-9.73l10-7.85-8.07-34.3a52.56,52.56,0,0,0-20.29,3.71c-2.55,1-5.07,2.25-7.79,2.57-3.62.42-7.24-.8-10.88-.75-3.37,0-6.62,1.19-9.79,2.31-.82.68,1.17,1.81.78,2.78a1.34,1.34,0,0,1-.62.58,172.9,172.9,0,0,0-22.46,15.62c-3.43-5.55-3.46-12.45-4.14-18.94-1.13-10.72-4.3-21.09-7.44-31.4l6.67-4.92c11.19-11.06,23.26-22.6,38.65-25.85,3.52-.75,7.13-1,10.64-1.81,6.82-1.51,13.81-4.89,20.47-2.78,1.94.62,3.73,1.68,5.7,2.2,2.69.72,5.54.39,8.32.14,25.12-2.26,50.28,2.5,75,7.24l33.61,6.43,8.7-6.32a9.57,9.57,0,0,0,8.17-10.29c-.46-3.67-3-6.7-5.75-9.23a31.68,31.68,0,0,0-6.88-5.09c-3.87-2-8.46-3-11.48-6.14l-15-2.28a97.23,97.23,0,0,1-25.72,3.47c-2.76,0-5.66-.08-8.1,1.21-1.36.71-2.49,1.8-3.82,2.55-6,3.36-13.44-1.16-20.28-.39-1.94.22-3.82.87-5.77,1-2.58.23-5.15-.39-7.73-.73-8.34-1.1-16.76.72-25,2.54-3,.65-5.92,1.3-8.87,2q-9,2.13-17.89,4.82c2.25-4.29,8.1-5,11.86-8a11.08,11.08,0,0,0,4-9.33,3.2,3.2,0,0,1,.1-1.63,2.93,2.93,0,0,1,2-1.27c11.5-3.3,23.15-7.78,31.5-16.36,2.09-2.16,3.95-4.55,6.14-6.62a44.72,44.72,0,0,1,7-5.2,75.73,75.73,0,0,1,28.83-11.23l1.1-10.35c9.1-16,9.76-35.24,10.19-53.63l4.86-20.72c4.59-2.93,8-7.42,10.67-12.16s4.72-9.82,7.24-14.66c2.44-4.68,5.43-9.74,4.22-14.88l-.47-1.14c-10.52-1.8-17.6-11.49-26.66-17.14-4.92-3.07-10.71-5.11-14.41-9.58-2.59-3.12-3.86-7.1-5-11-.69-2.36-1.44-4.89-3.34-6.46a22.51,22.51,0,0,0-4-2.14,13.13,13.13,0,0,1-6.67-12.87l-2.76-2.15a118.25,118.25,0,0,1-8.37-13.83L822.16,1023a16.56,16.56,0,0,1-2.19-5.51c-.34-2.49.46-5,.62-7.5a15.13,15.13,0,0,0-8.25-14.22c-2.2-1.08-4.67-1.6-6.75-2.9-2.51-1.57-4.23-4.11-5.82-6.6-9.27-14.52-17.12-30.84-16.84-48.06.26-15.82,7.39-30.8,16.51-43.71,3.08-4.35,6.5-8.82,7.06-14.12.23-2.23,0-4.56.79-6.64a18.12,18.12,0,0,1,2.82-4.06,23.7,23.7,0,0,0,4.79-17.21Z"></path>
    <path data-name="5" data-official="Helianthemum rhodanthum" data-plain="Rose-coloured Sun Cistus" data-loc="Spain" d="M928.89,2198.85l-9.12-.08c-9.43,2.13-19.18,4.26-28.69,2.51-2.52-.47-5.16-1.2-7.61-.42l4.75-70.49c7.6-5.48,15.37-11.14,20.84-18.7l-.1,1.87c.55,6.76,2.6,13.3,4.64,19.77a49.51,49.51,0,0,0,3.71,9.44c1,1.77,2.19,3.42,3,5.28,1.76,4.06,1.42,8.67,2.07,13a77.28,77.28,0,0,0,2,8.6,106.46,106.46,0,0,1,3.23,20.15Zm-67.43-120.19a92.23,92.23,0,0,1,14.25-14.44,49,49,0,0,0,6.39-5.64,12.17,12.17,0,0,0,3.31-7.68L869.29,2034c-2.24-2.51-4.53-5.07-7.47-6.71s-6.7-2.2-9.65-.59c-3.4,1.85-4.86,6-5,9.9s.76,7.7.72,11.57c0,2.87-.56,5.73-.35,8.59.28,3.85,1.89,7.46,3.48,11Zm-41.8,339.93c-6.53-18.79-4.68-39.3-6-59.15l2.3-6.88c11,.93,21.7,4.79,32.75,4.76l-.44,6.73A13.55,13.55,0,0,0,844,2377.8l-1.87,6.06ZM795,1963.94l-28.22,20.92-2.56,1.84-6.65-4.31a336,336,0,0,1-38.93-11.49,24.14,24.14,0,0,0-5.31-1.5c-3.6-.42-7.2.86-10.38,2.6a7.73,7.73,0,0,0-2.69,2.1,7.19,7.19,0,0,0-1.09,2.82c-1.66,8.12,1.66,16.62,6.89,23s12.21,11.16,19.09,15.79l14.16,7.23q-9.33,12.73-17.65,26.18c-5.08,8.21-10,17.17-9.74,26.81l4.52,20.33-10.43-7.7c-2.67-4.16-7.92-5.83-12.82-6.33s-10-.16-14.68-1.61L667,2082c-15.21-2.21-31.13,3.61-45.89-.67-20.18-5.85-30.91-29.11-30.17-50.11s10.09-40.57,17.78-60.12c6.57-16.71,11.56-37.17.58-51.37-10.47-13.54-32.73-17-37.82-33.33l-4.48-8.79a27.41,27.41,0,0,1,.29-9.89,13.62,13.62,0,0,1,3.78-7.4c4.26-3.82,11.67-3.26,14.9-8,1.25-1.82,1.81-4.34,3.82-5.25l-.66-5.43c2.45-3.14,7.11-3.21,11.07-2.86,8.54.76,17.1,2.12,25.65,1.45s17.31-3.69,22.87-10.22c2.84-3.34,4.72-7.45,7.87-10.49l11.16-5.5c2.43-1.22,3-4.39,3.11-7.11a62.77,62.77,0,0,0-1.1-14.28l-3.88-9.08c-2.85-6.52-5.75-13.24-6-20.36-.2-4.85.82-9.69.61-14.54-.34-7.91-3.92-15.28-7.51-22.34l2.67.2a23.09,23.09,0,0,0,14.18-13.45l3.11,1.6c3.77,1.08,5.82,5.09,7,8.83s2,7.85,4.89,10.51a18.68,18.68,0,0,0,4.35,2.74l4,2-16.72-.64,3.14,17.95a56.53,56.53,0,0,0,5.75,18.25l6.64,14.56,8.87,4.11,15,7.5a22.34,22.34,0,0,0,5.88,2.28,26.49,26.49,0,0,0,7.64-.24A147.06,147.06,0,0,1,747,1802l14.45.15a25.68,25.68,0,0,1,7.87.91,8.67,8.67,0,0,1,5.66,5.18l1.25-.54c-1.9,13.66,4,27.06,6.17,40.68l8.45,4.56-3.74,2.13a262.16,262.16,0,0,0-1.44,31.45l1.85,6a13.7,13.7,0,0,1,9.91,6.16,21.06,21.06,0,0,1,3.28,11.45,13,13,0,0,0-11.15-4.94,9.08,9.08,0,0,1,7.52,7.72,43.28,43.28,0,0,0-5.4-3.93,3.82,3.82,0,0,0-2.52-.79,2.66,2.66,0,0,0-1.24.6c-1.63,1.3-2.13,3.59-2,5.67a58.65,58.65,0,0,0,1.31,6.1,38.24,38.24,0,0,1,.45,7.26l0,28.89a3.21,3.21,0,0,0,.31,1.74,3.1,3.1,0,0,0,.73.76,25.82,25.82,0,0,0,5.14,3.29ZM696.67,1738.5l15.25,1.64c-.42,7.2-.79,14.67,1.91,21.36,1.75,4.35,4.7,8.1,7.61,11.77a38.52,38.52,0,0,0,7.15,7.55c3.39,2.49,7.5,3.82,11.17,5.89s7.12,5.32,7.6,9.51c1.82-5.37,7.31-8.84,9.21-14.19a18.48,18.48,0,0,0,.66-7.8,40.73,40.73,0,0,0-3.2-12.46c-1.75-4-4.23-8.15-3.48-12.48a3.53,3.53,0,0,1,1.08-2.2,4.17,4.17,0,0,1,2.78-.64,32.84,32.84,0,0,1,21.75,9.18l7.32.42a21.87,21.87,0,0,0-1.05-10.58c3.13,2.36,7.57,1.12,11.46,1.69,4.92.74,9.25,4.52,14.21,4.11,1.66-.13,3.5-1,3.84-2.64.19-1-.17-2,.32-2.88.73-1.28,2.87-1.19,3.49-2.52a10,10,0,0,0,.33-1.44c.5-1.69,2.74-2.22,3.64-3.73,1.47-2.44-1.16-5.15-2.83-7.45-3.46-4.76-3-11.23-2.33-17.09l-9.16.49c-8.45-4.86-18.81-4.26-28.55-4.12a6.35,6.35,0,0,1-3.15-.5c-1.4-.75-2-2.38-2.81-3.76a13.34,13.34,0,0,0-8.48-6.34l-4.29-4.72c-7.29-3.09-9.42-13-16.36-16.84-6.2-3.42-14.27-.89-20.71-3.83l-8.75-1.56,3.48,4.46a22.48,22.48,0,0,1,1,4.94c1.09,9.31-.06,18.72-1.21,28l.56,4.24c-2.76,5.35-8.14,9.08-10.47,14.63l-2.8,4.18A71.08,71.08,0,0,1,696.67,1738.5Zm12.31,913c6.74,5.71,17.3,4.78,24.75,0s12.39-12.52,16.63-20.27c11-20.1,24.83-29,29.37-51.44l5.29-8.16a208.76,208.76,0,0,0-3.93-54l6.35-10.27a114.07,114.07,0,0,1,1.92-30.91l3-11.88a295.44,295.44,0,0,1-2.65-33.23c-.06-2.38-.09-4.76-.34-7.13-.72-6.63-3.2-12.92-5.67-19.12L774.68,2421c-11.06,9.24-18.34,22.07-26.41,34a261.24,261.24,0,0,1-23,29.24l-6.07,7.3c-7.28,29.44-14.6,59.07-16.57,89.34-.63,9.74-.7,19.5-.78,29.25Zm118.61-311.26a9.35,9.35,0,0,0,2,.89,69.78,69.78,0,0,0,19.84,3.47,19.37,19.37,0,0,1,6.67.86l10.94.36-4.72-11.44-3.93-8.41c-3.16-6.74-6.35-13.55-11-19.38l-3,2.08a128.07,128.07,0,0,0-18.31,26.67Zm83-83.9c-1.75-3.27-4.8-5.64-8-7.55s-6.57-3.49-9.54-5.7c-.7-.52-1.44-1.41-1-2.16,7.34-.05,14.81-.12,21.76-2.46l1.12-8.65-7.16-.13c-9.22-.15-18.69-.27-27.32,3l-15.34,33.1c-4.79,4.67-6.74,11.67-6.6,18.36s2.15,13.19,4.27,19.53c1.95,5.82,4.17,11.84,8.71,16l16.9,9.43c0-3.8,3.08-6.75,5.67-9.52a52.94,52.94,0,0,0,13-24.83c1.14-5.29,1.5-10.88,4-15.69ZM287.81,1304.21c-11.16,24.34-35.59,39.6-59.64,51.4s-49.77,22.11-68.21,41.53c-22.4,23.59-30.77,59.58-21.08,90.63,7.54,24.15,24.64,44.14,34.51,67.43a122.12,122.12,0,0,1-.8,95.91c-6.93,15.61-17.09,29.57-24.92,44.76-9.28,18-15.28,38.32-13.06,58.45,2.08,18.83,11.15,36.18,21.69,51.92,20.59,30.71,47.84,57.42,80.62,74.52s71.28,24.18,107.49,16.67l22,4.66a63.95,63.95,0,0,1,71.36-51.84l4.59-1c10.73.08,20.15-6.92,27.94-14.3,3.43-3.26,6.77-6.71,9-10.87s3.28-9.17,1.88-13.68c-1.13-3.64-3.7-6.64-5.3-10.09a20.53,20.53,0,0,1-1.15-14.06l-1.35-.23a14.47,14.47,0,0,1-7.89-5.07c-1.4-1.78-2.55-4-4.71-4.72-2.79-.88-6,1.32-8.64,0a2.15,2.15,0,0,1-.86-.75,2.18,2.18,0,0,1,1-2.85,6.33,6.33,0,0,1,3.26-.62c-3.84-1-6.86-4.14-8.61-7.71s-2.4-7.56-2.87-11.51c-.33-2.8-.56-5.78.7-8.3s4.57-4.22,7-2.79c-1.95-5.14-3.85-11.09-1.19-15.9,1.62-2.93,4.65-4.78,7.65-6.26a66,66,0,0,1,16.29-5.56l10.1-1.89c1.75-2,3.07-4.27,4.77-6.26s4-3.73,6.61-3.91c1.41-.09,2.82.28,4.23.14,3.46-.34,5.85-3.51,8.87-5.22,3.38-1.92,7.48-2,11.37-1.93l26,.12c4.69,0,9.68.13,13.64,2.65,2.52,1.59,4.4,4,6.84,5.75a14.71,14.71,0,0,0,12.92,1.87l9,1.45,24.67-42.48-3.2-8.15c2.42-3.47,4.87-7,6.05-11.06.67-2.3.92-4.75,2-6.87a12.76,12.76,0,0,1,5.67-5.25l5.92.48a8.15,8.15,0,0,0,3.4,3.29,7.88,7.88,0,0,0,2.82.36c5.54,0,11.39-.63,15.88-3.87a15.63,15.63,0,0,0,5.18-6.48l2.26-.41,4.32-18.56c5.1-6,7.46-14.35,13.92-18.82l4.55-8.82c-9.24-14.89-11.14-33.49-20.65-48.21l-1.93-7.16a90.56,90.56,0,0,1,3.47-35.66l-1.31,1.87a12.94,12.94,0,0,1-7.53-1.4,2.7,2.7,0,0,1-1-.78,3.19,3.19,0,0,1-.39-1,23.16,23.16,0,0,0-4.08-8.3c-1.53-2-3.39-3.69-4.83-5.74s-2.48-4.55-2-7c-3.44.62-5.79,3.69-8.57,5.8a17,17,0,0,1-8.12,3.29l-1-11.41c-2.73-1-4.31-3.81-6.64-5.55a19.16,19.16,0,0,0-6.45-2.69l-10.92-3-9.29-8.27c-7.8-1.9-16-1.73-23.85-3.18a118.93,118.93,0,0,1-16.71-4.82c-8.81-3-17.77-6.11-25.27-11.63-5.12-3.76-9.47-8.59-15-11.63l-14.05-9.22a36.6,36.6,0,0,0-23-9.53c-6.65-.28-13.78,1.19-19.68-1.93l-26.77-16.26c-3.25-3.89.27-10.67-3-14.52-.74-.86-1.75-1.46-2.44-2.37-1.44-1.89-1.12-4.52-.83-6.88a83.65,83.65,0,0,0,.45-15.58c-.3-4.58-.87-9.55,1.62-13.4,1.09-1.68,2.7-3,3.62-4.79s.83-4.38-.93-5.33l.08-12.58A38.12,38.12,0,0,0,386,1268.76l-8-1c-6.41.71-12.41-2.92-18.66-4.55-4.93-1.29-10.09-1.34-15.2-1.37a26.73,26.73,0,0,0-7.42.64,18.08,18.08,0,0,0-6.08,3.22,27.71,27.71,0,0,0-7.54,8.89c-1.77,3.31-2.9,7-5.27,9.91a22.09,22.09,0,0,1-7.05,5.34c-5.18,2.74-10.8,4.53-16.39,6.32ZM834,1944.86a19.11,19.11,0,0,0-2.62-5l-6,3.74L819,1916.65a14,14,0,0,0-7.26-12q3.74-3,7.46-5.94l3.3-7.91,3.25,2.72a41.13,41.13,0,0,0,8,5.38c1.46,4.86,1.39,10,1.31,15.09l-.45,27.83ZM861,1895.21c-2.15,2.42-14.51,1-15.46,4.15-2.27,7.39-.5,31.81-.75,32.24a4,4,0,0,1,1-1c6.08-4.78,12.65-8.94,18.48-14s11-11.26,13.29-18.65Zm86,32.8c-2.68,2.33-6.5,2.78-10,2.66s-7.15-.69-10.63,0c-4.5.91-8.31,3.85-11.72,6.93-10.67,9.68-19,21.58-27.29,33.38L877,1986l13.3-4.62a161.89,161.89,0,0,1,46.18,16.14c7.74,4.11,15.26,8.9,23.71,11.23l-4.08-16.89c-2.69-1.34-3-5-2.62-8s1-6.36-.88-8.71a26.54,26.54,0,0,1-1.82-2c-1.22-1.87-.53-4.48-1.55-6.47a26.61,26.61,0,0,1-1.5-2.44c-.86-2.21.92-4.68.44-7s-3.15-3.83-3.63-6.2c-.57-2.85,2.25-5.63,1.53-8.44a10,10,0,0,1-.46-1.66c-.08-1.34,1.13-2.35,2.14-3.24s2-2.27,1.36-3.46Z"></path>
    <path data-name="6" data-official="Helianthemum canescens" data-plain="Hoary Sun Cistus" data-loc="South Europe" d="M1137.8,2621.29l-.52,48.31c-.1,9.33-.21,18.71-1.7,27.93-1.29,7.93-3.59,15.66-5.41,23.48a247.35,247.35,0,0,0-5.65,41.1c-.59,9.75-.76,19.57-2.56,29.18a99.93,99.93,0,0,1-6.9,21.84c-4.61,10.44-11.06,20.53-20.67,26.7s-22.88,7.58-32.31,1.13c-10.35-7.08-13.31-21-13.93-33.5-.55-11.16.07-22.33.68-33.48q.87-15.57,1.72-31.15c3-54.9,6.36-111.13,28.19-161.6l4.3-7.73,4.6,2.94a9.24,9.24,0,0,1,12,1.34,20.28,20.28,0,0,0,2.54,3,9.9,9.9,0,0,0,3.09,1.43,181.37,181.37,0,0,1,19.82,7.84,18.45,18.45,0,0,1,4.91,3l13.08,11.48Zm688.7-1148.5c-14.49,11.27-39,10.76-48.5-4.94-7.25-12-4-28.41-12.22-39.76-4.44-6.18-11.53-9.78-18.35-13.16l-163-80.74s-29.43-25.54-33-36.6c-1.61-5-5.67-10.4-7.37-15.37-2.62-7.65-4.81-13.46-10.9-18.78-8.07-7.06-10.88-3.87-16.31-13.11-3.92-6.65-14.41-6.92-18-8.22-4.63-1.67-9.58-.72-14.48-.39-8.24.56-10.62-1.46-18.74,0l-27.9-11.89q-19.67-6.21-38.73-14.17l-17.34-4.92c-8.79-2.13-17.86-4.26-26.8-2.84-4,.63-8.09,1.95-11.91.7-3.2-1-5.82-3.8-9.18-4-2.15-.12-4.31.86-6.4.36a10.34,10.34,0,0,1-3.41-1.86,53.49,53.49,0,0,0-43.52-7.95,11.32,11.32,0,0,1-4.7.6,13.66,13.66,0,0,1-4-1.78c-4.37-2.35-9.42-3-14.34-3.62-6.22-.78-12.47-1.56-18.73-1.24-1.74.09-3.74.42-4.65,1.91a4.53,4.53,0,0,1-.94,1.46,2.63,2.63,0,0,1-1.42.35l-3,.13c-3.45.16-7,.35-10.1,1.84s-5.68,4.66-5.4,8.09l-2.4,1.11a21.15,21.15,0,0,0-21.94,9.28c-2.06,3.33-3.14,7.19-5.15,10.56-1.61,2.71-3.79,5-5.39,7.76-3.63,6.14-4,13.66-3.5,20.78.58,9,6.37,14.34,8.37,23.15,3.62,15.94,19.34,27.84,32.8,37.33a113.45,113.45,0,0,0-52.81-3.77,21.37,21.37,0,0,1-3.9.44,15.08,15.08,0,0,0-2.77,0c-2.8.44-4.47,3.31-6.91,4.76-2.29,1.37-5.11,1.38-7.76,1.72s-5.55,1.24-6.82,3.6c-.43.81-.64,1.73-1,2.57-1.14,2.46-3.71,3.87-5.93,5.42a30.78,30.78,0,0,0-12.55,19.69l-10.89,55.89c8.67,5.56,12,17.1,20.66,22.71a38.87,38.87,0,0,1,3.44,2.23,22.76,22.76,0,0,1,4.41,5.64,83.07,83.07,0,0,0,18.15,20l11.13,8.63,7.91-4.74c.87-1.26,3-.82,3.87.44s.84,2.91.78,4.44q-.13,3.32-.26,6.65a6,6,0,0,0,.43,3.15,5.83,5.83,0,0,0,1.76,1.77,93,93,0,0,0,11.65,7.48c1.9,1,4,2.19,4.72,4.24.26.75.31,1.55.56,2.3a4.36,4.36,0,0,0,3.67,2.85l.2,7.76a82,82,0,0,0-2.31,15.35l-1.22,11.52c5.08,11.29,15,19.75,20.67,30.77l-1.19,12.83c-2.51,10.35-12.48,18.12-13.32,28.74-.78,9.79,6.42,18.21,9.46,27.54,4.18,12.78.61,27.68,7.23,39.39,2,3.48,4.77,6.51,6.16,10.26,1.56,4.19,1.18,8.82,1.23,13.29a68.29,68.29,0,0,0,4.95,24.85l12.56,23.23,9.18,16.53c2.07,3.73,4.14,7.46,6.49,11,2.66,4,5.67,7.85,8.67,11.66l23.24,29.41,11.12,16.29a67.6,67.6,0,0,1,19.15,59.33,22.19,22.19,0,0,1-2,6.64c-1.09,2-2.71,3.73-3.92,5.7-3.85,6.24-3.22,14.16-2.32,21.44q1.57,12.69,3.7,25.29l-1.4,12.59c.69,12.14-2.59,24.11-5,36-.63,3.12-1.2,6.39-.31,9.44a11.48,11.48,0,0,1,.77,3.17c0,2.68-2.9,4.77-2.71,7.44l-5.2,5.24-1.85,9.66a42.15,42.15,0,0,1-4,10.77c-.69,1.31-1.81,2.75-3.27,2.54a3.6,3.6,0,0,1-1.56-.78c-5.31-3.93-9.33-9.31-13.16-14.69-6.51-9.13-12.72-18.49-20-27s-15.64-16.32-25.58-21.5l-5-1.87-8.26,1.89c-4.8,1-9.58,2.11-14.37,3.19-2.31.51-4.72,1.08-6.54,2.6a8.82,8.82,0,0,1-1.7,1.3c-1.43.67-3.08,0-4.54-.54a44,44,0,0,0-21.13-2.66l-3.48,6.56a26.84,26.84,0,0,1,7.22,14.25,5.74,5.74,0,0,0,.56,2,5.32,5.32,0,0,0,2.83,1.87,25.73,25.73,0,0,1,9,5.57,13.75,13.75,0,0,1,4.17,9.47,5.67,5.67,0,0,1,4.74,2.73,29.11,29.11,0,0,1,2.42,5.18c2.92,6.77,8.55,11.93,14.09,16.8,2,1.78,4.11,3.61,5.33,6,1.55,3.07,1.51,6.67,1.43,10.11l-3.17,20.37c-1.64,12.92-9.63,24.19-12.55,36.89-2.36,10.24-1.31,21-2.93,31.36-3.36,21.6-17.93,40.14-21.67,61.68l-4.35,10.89a84.87,84.87,0,0,0,4.39,34.45c4.2,12.09,11.09,23.1,15.33,35.18,1.09,3.1,2,6.41,1.48,9.66s-2.9,6.41-6.16,6.86l-6.91.51-38.26-2.27a78.69,78.69,0,0,0-14.48,0,40.32,40.32,0,0,0-28.91,18.53,19.71,19.71,0,0,1-2.84,4,12.11,12.11,0,0,1-6.52,2.85,25.14,25.14,0,0,1-23.16-8.85c-3.86-4.8-6.6-11.52-12.6-12.89l.94-7.3c-1.18-5.95-7.83-8.74-13.39-11.16l-8.8-3.41q-9.93-3.33-19.61-7.36l-5.63-2.47c-9.73-.83-18.1-6.83-26.37-12a186.81,186.81,0,0,0-33.6-16.54l-3.59.4-15.85-1.87c-1.55-.19-3.34-.53-4.06-1.91-.26-.49-.34-1-.57-1.55a3.74,3.74,0,0,0-3-1.91,11.35,11.35,0,0,0-3.7.44l-4.23-1.22c-7,2.34-14.42,2.41-21.76,2.46-.44.75.3,1.64,1,2.16,3,2.21,6.37,3.78,9.54,5.7s6.23,4.28,8,7.55l6.67,4.86c1.15-1.89,2.53-3.94,4.69-4.43,1.89-.43,3.82.5,5.46,1.53a34.79,34.79,0,0,1,5.75,4.59c1.42,1.42,2.72,3,4,4.49,1.55,1.85,3.11,3.7,4.66,5.56l-.77,12.14c3.67,18.12,7.4,36.38,14.68,53.37,4,9.43,9.59,18.84,18.56,23.8l9.8,7.25a13.93,13.93,0,0,1,10.21,4.78,36.12,36.12,0,0,1,2.73,4,58.78,58.78,0,0,0,12.44,13.79l7.4,18c8.58,7.68,17.2,15.42,24.3,24.49s12.64,19.65,14.19,31.06l-.88,12.19,34.13,50.79,5.36,10.65a79.07,79.07,0,0,0,15.92,24.09,38.91,38.91,0,0,0,5.43,4.83c5.74,4.1,12.84,5.73,19.72,7.27l12-7,18.52-.18a32.94,32.94,0,0,0,7.15-.59c4.1-1,7.67-3.46,11.64-4.87,2.85-1,5.86-1.46,8.78-2.28a70.13,70.13,0,0,0,13.18-5.78l6.39-6a87.26,87.26,0,0,1,11.15,2.87,11.16,11.16,0,0,1,5.21,2.91c.49.56.87,1.22,1.38,1.76a12.17,12.17,0,0,0,1.81,1.46,26.08,26.08,0,0,1,6.25,6.54l6.25,8.82c3.45,2.61,7.14,4.88,10.83,7.15L1265,2586a19.73,19.73,0,0,1,5.59,4.45l6.54,13.72a589.05,589.05,0,0,0,91.38,65.9c21.21,12.4,43.59,23.77,60.47,41.61,6.24,6.59,11.6,13.94,17.23,21.06,2.91,3.69,6.07,7.46,10.4,9.3a19.34,19.34,0,0,0,9.08,1.26c12-.93,22.42-9.86,27.07-20.91s4-23.81.33-35.22c-6.23-19.1-20.4-34.48-35-48.25s-30.35-26.86-41.17-43.8c-6.53-10.22-11.08-21.57-16.93-32.2a150.07,150.07,0,0,0-77.39-67.27l-9.12-2.51c-8.72-1.47-16.54-6.55-25.29-7.88l-13.48-13.1c-14.84,2.61-31.56-.84-41.44-12.2-14.06-16.18-9.29-42.14,3.45-59.37s31.59-28.72,47.76-42.8c4.88-4.25,9.61-8.85,12.72-14.53,3.52-6.41,4.76-13.8,5.78-21.05q2.17-15.45,3.36-31l9.17-16c1.47-6.89,3.72-13.73,7.74-19.52s10-10.47,16.88-11.84a43.19,43.19,0,0,0,4.53-.9,11.33,11.33,0,0,0,7.18-6.81l.26-7.39q13.53-.24,27-.81a122.67,122.67,0,0,0,19.05-1.85c15.89-3.2,30.38-12.36,46.54-13.56a13.65,13.65,0,0,1,6.81.83,15.29,15.29,0,0,1,4.39,3.55l7.16,9.25a185.76,185.76,0,0,0,95.62,1.53c15.68-3.93,32.82-12,36.94-27.66,3.51-13.28-4-27.1-13.53-37s-21.37-17.49-29.92-28.23l-1.05-14.36c15.49-23.43,45.53-31.26,69.75-45.5,11.51-6.76,22.69-16.33,25.43-29.4,2.1-10-1.16-20.41-6.15-29.31s-11.64-16.75-17.17-25.34a115.36,115.36,0,0,1-16.06-39.71c-2.6-13-2.8-27.06,3-39,2.14-4.41,5.19-8.55,9.44-11s9.56-3,14.57-3.38a463.94,463.94,0,0,1,152.82,14.33l22.62,10.33c29.88-1.31,58.56-13.85,82.45-31.85s43.34-41.28,60.43-65.83c15.12-21.72,28.71-44.94,35.87-70.43,14.07-50.06,1.68-105-24.92-149.69s-66.25-80.22-108.55-110.47Z"></path>
</svg>
