
<svg xmlns="http://www.w3.org/2000/svg" viewBox="0 0 2189 2964" id="illustration" preserveAspectRatio="xMidYMid meet">
    <title>Malvaceæ</title>
    <path data-name="1" data-official="Malva moschata" data-plain="Musk Mallow" data-loc="England" d="M1222.58,2791.18a166.36,166.36,0,0,1-6.82,80.14,33.6,33.6,0,0,1-3.89,8.45c-2.13,3.05-5.1,5.39-8,7.68s-6.2,4.81-9.95,5.66c-5.26,1.2-10.66-.92-15.47-3.35-3-1.51-6.06-3.29-7.77-6.18s-1.8-6.7-1.74-10.19a606.16,606.16,0,0,1,4.3-62.57l5.88-35.55a455,455,0,0,0,3.44-56.92c0-2.39-.1-5-1.57-6.86l-.65-8.62c.55-5.36,1.19-11,4.31-15.4A31,31,0,0,1,1190,2682c6.65-5.74,13.62-11.65,22.12-13.86a323.46,323.46,0,0,0,0,61.37l4.45,20.9C1216.48,2764.17,1220.38,2777.6,1222.58,2791.18Zm412.23-1177.45c-.36,3-.74,6-2.12,8.67s-4,4.87-7,4.89-5.66-2.15-8.58-3.07-7.2.62-6.76,3.65c.31,2.15,2.74,3.19,4.16,4.84,1.71,2,1.87,4.87,1.9,7.5.07,5.48-.1,11.14-2.35,16.14s-7,9.23-12.52,9.2a20.81,20.81,0,0,1-5.92-1.17c-4.38-1.34-8.84-2.83-12.39-5.71-7.45-6-9.3-16.55-14.72-24.44-3.19-4.64-7.58-8.31-12-11.76-11.8-9.17-24.79-17.43-39.39-20.61-2.07-.44-4.41-.74-6.13.49a7.1,7.1,0,0,0-2.28,3.53c-3.13,8.62-1.87,18.1-1.67,27.27s-1.12,19.27-7.86,25.49l-.5,11c-6.4,3.85-9.51,11.64-10,19.11s1.36,14.84,2.57,22.22a144.72,144.72,0,0,1-18.73,97.16l-2.23,21.43a29.92,29.92,0,0,1-8.48,16.07l-3.53,9.94c-3.18,3.6-2.58,9-2.78,13.81a35.52,35.52,0,0,1-6.18,18.55l4.79,13.36c2.81,7.46,5.15,15.19,5.6,23.15.42,7.37-.8,14.73-2,22-2,12.14-4,24.3-7.19,36.2l.94,12.34a64.67,64.67,0,0,0,1.38,29.5,7.33,7.33,0,0,1,.43,3.54,7.16,7.16,0,0,1-1.45,2.59c-9.43,12.41-16.47,27.46-15.72,43l11.51,15.79c5.17-1.42,10.13,2.54,14,6.2,3.73,3.5,7.5,7,10.26,11.34,1.52,2.36,2.73,4.93,4.54,7.07,3.81,4.49,10.07,6.81,12.72,12.07,1.12,2.21,1.46,4.72,2.11,7.12a28.09,28.09,0,0,0,15.8,18.16c5.9,2.53,12.62,3,18.19,6.19,8.16,4.7,12.09,14.17,15.46,23l-15.13,9.35c-3.1-.54-6.1,1.54-9.24,1.5-2,0-3.85-.87-5.74-1.46a21.69,21.69,0,0,0-10.85-.48l-10,1.07a2.77,2.77,0,0,1-5.43.65q-.37,7.41-.43,14.84c0,2.82,0,5.82,1.62,8.17,2.07,3.12,6.55,4.73,7.12,8.44a20,20,0,0,1-15.36-5.39,11.72,11.72,0,0,1-4.69,9.78c-2.15-6.49-4.4-13.17-8.92-18.3-2.23-2.54-5-4.69-6.56-7.69-1.66-3.2-1.88-7.26-4.56-9.67a16.84,16.84,0,0,0-3.26-2,28.84,28.84,0,0,1-10.47-9.88l-8.7-4.29c-1.85,4.65-6.5,7.72-11.34,9s-9.93.95-14.92.65c4.42,1.36,8.2,4.2,12.08,6.7a92.41,92.41,0,0,0,23.19,10.79,33.71,33.71,0,0,1-15.71,17.06c9.23,2.15,19.6-.34,27.89,4.26,1.89,1,3.58,2.43,5.36,3.66a40.67,40.67,0,0,0,17.41,6.79c-5,7.3-13.47,11.21-21.66,14.49a20.6,20.6,0,0,1-6.62,1.82,7.28,7.28,0,0,1-6.17-2.44c.64,1.22,1.28,2.43,1.91,3.65-3.4,2.1-7.57,2.5-11.57,2.49-20.74-.08-41.7-11.11-51.38-29.45-5.36-10.15-7.24-22-13.67-31.53l-.44,2.56a98.94,98.94,0,0,1,.64,23.7,22.59,22.59,0,0,1-1.57,7.19c-2.22,4.95-7.38,8-12.59,9.55s-10.69,2-15.92,3.47a40,40,0,0,0-18.39,11.36,20.49,20.49,0,0,1-3.64-15.88c1.45-7.57,7-13.58,12.12-19.36s10.23-12.38,10.5-20.09a66.08,66.08,0,0,1-11.29,12.73c-1.93,1.67-4.29,3.33-6.81,2.9-3.22-.55-4.93-4.4-4.46-7.63s2.44-6,4.13-8.8c3-5,5.31-11.09,3.46-16.65l-13.49,7.79q-8.65,3.47-17.58,6.2l0,.38a20.22,20.22,0,0,0-8.77,2.4,16,16,0,0,1-1.15-5.75c0-2.33.44-4.63.43-6.95a16.55,16.55,0,0,0-3.83-10.4l7.72-9.06a47.6,47.6,0,0,0,5.13-9.63c-4.81,2.87-11.18-.07-14.79-4.34a5.51,5.51,0,0,1-1.05-1.65,6.07,6.07,0,0,1-.1-2.55c.3-2.93.74-6.14,2.93-8.1a13.44,13.44,0,0,1,3.56-2c4.86-2.21,9.57-5.33,12.19-10s2.58-11.1-1.19-14.88a6.59,6.59,0,0,0-2.55-1.66c-2.32-.76-4.84.31-6.91,1.61-9.75,6.18-14.77,17.55-18.33,28.54-1.17,3.61-2.31,7.38-4.85,10.21-2.31,2.56-6.17,4.07-9.31,2.87l.47.22a319.19,319.19,0,0,0-8.14,36.42,153.68,153.68,0,0,0-2.39,26.11l-1.47,4.28c-2.17,8.43-4.35,16.94-4.76,25.64-.19,3.94,0,7.9-.54,11.8a79.2,79.2,0,0,1-1.75,8.17c-3.89,16.16-5.3,32.81-6.7,49.38l1.68.24a29.39,29.39,0,0,0,15.68-8c6.68-6.63,10.15-16.46,18.18-21.37a35.2,35.2,0,0,1,8.15-3.34,37.39,37.39,0,0,1-5.5,30.51c7.17-3.37,10.45-11.59,15.69-17.54,9.79-11.1,26.18-13.75,40.91-12.35a39.31,39.31,0,0,1-12.63,19.47c-2.85,2.36-6,4.32-8.87,6.68-2.07,1.72-4,3.65-6,5.41-7.91,6.85-17.77,10.94-27.45,14.93a177.7,177.7,0,0,0,27.19,1.14c11.89-.41,24.78-2.54,32.86-11.28,5.18-5.6,8-13.57,14.55-17.48,5.6,6.74,4.78,17.88-1.74,23.75,1.88,1.86,4.8,2.07,7.43,2,14.13-.52,27.79-6.76,41.9-5.81l-1.2,7.72a47.8,47.8,0,0,0-2.52,10.74,10.11,10.11,0,0,0,.07,3.68,11.28,11.28,0,0,0,2.61,4.2l7,8.25c3.91,4.61,7.86,9.27,10.72,14.61s4.59,11.47,3.72,17.46l-5.58,3.06a53.47,53.47,0,0,0-10.12-.36l-8.25-2a53.57,53.57,0,0,1-16-3.22c-7.1-2.61-13.54-6.68-20.08-10.47q-8.43-4.89-17.18-9.22c-10.26-5.07-21.49-9.64-32.81-8l10.1,12.92c-7.78,4.89-17.9,2.65-26.73.09-6.32-1.83-12.66-3.77-18.53-6.74-9.63-4.87-18.71-12.67-29.48-12.2l-.6,5.68q17.93,26.73,38.4,51.62c3.4,4.14,6.89,8.27,11.21,11.43-3.84,5.49-11.78,6.53-18.26,4.79s-12.14-5.62-18.29-8.28c7.12,5,14.59,10.49,17.94,18.55,2.07,5,2.36,10.5,3.83,15.68a35.79,35.79,0,0,0,20.22,22.83l4.3,3.89.48,7.87.3,9,5.46,10.51-4.77-1.45c-2.06-.62-4.22-1.26-6.34-.9s-4.2,2-4.24,4.19l-3.35,8.26a66.59,66.59,0,0,0,19.74,48.22c-6.44,1.9-13.5.3-19.42-2.86s-10.94-7.75-15.94-12.24c-3.83-3.44-8.36-7.08-13.48-6.5l-3.13,12.75c-1.33,8.05-2.68,16.17-5.67,23.76-2.46,6.25-6.06,12.3-6.24,19l-7.22,12c-.29,7.78-.67,15.89-4.47,22.68-1.42,2.54-3.29,4.82-4.53,7.45-2.23,4.7-2.31,10.1-2.35,15.31a116.2,116.2,0,0,0-35.1,20.43l-.57-.5c3.62-5.63,4.68-12.47,5.65-19.09,2.47-16.86,4.81-34.83-2.29-50.33l-3-15.88q-18.6-21.63-39.13-41.5l-7.37-6.87a26.56,26.56,0,0,1-4-5.87l-1.22-4.48c-.61-9.62-6.67-17.87-10.57-26.69a95.23,95.23,0,0,1-4.35-12.57,204.42,204.42,0,0,1-7.3-42.74c-.3-4.71-.44-9.45-1.46-14.06s-3-9.13-6.47-12.34c-1.63-1.51-4.05-2.73-6-1.66-3,1.62-1.78,6.46-4,9l.67,10.43c-.37,12.09-.62,24.64,4.27,35.7,1.57,3.55,3.66,6.92,4.52,10.71.67,3,.56,6,1,9,.75,5.22,3.11,10,5.7,14.64a134.84,134.84,0,0,0,18.84,25.63l4.07,2.77q1.89,2.74,3.59,5.63a8,8,0,0,1,1.28,3.25,5.77,5.77,0,0,1-2.7,5,18.13,18.13,0,0,1-5.48,2.21,15,15,0,0,0-5.38,2.4l-7.82,1q-1.93,14.27-3.42,28.59c-4.61.13-8.42-3.38-11.66-6.66-11.36-11.49-23.21-24.13-25.75-40.08l-6.46,8.25q-7.67-22.29-15.34-44.57l-8.72,4.91a15.4,15.4,0,0,1-7.83,6.82,224.79,224.79,0,0,1,4.45,29.88,54.21,54.21,0,0,1-.09,12.54c-1,6.21-3.82,12-5.31,18.07-1.83,7.46-1.6,15.24-1.36,22.92-4.37-7.71-11.94-12.93-18.52-18.85s-12.68-13.69-12.35-22.54c-3.7,6-12.34,7.12-16.74,12.64-1.13,1.42-1.93,3.08-3.13,4.44a40,40,0,0,1-3.11,2.84,19.94,19.94,0,0,0-6.4,13.74l-14.14,13q-9.5,8.46-18.45,17.53c-.74.75-1.72,1.57-2.73,1.26l-4.6,3.77L889,2633c-9.37,1.78-19.09,3.56-28.38,1.38a11.94,11.94,0,0,1-3.44-1.26c-4.12-2.44-4.86-8.31-3.29-12.83,2.25-6.46,7.86-11.06,11.94-16.56,3-4,5.14-8.46,8.32-12.24,3.41-4.05,7.84-7.15,11.27-11.18,3-3.56,5.22-7.76,8-11.49s6.57-7.11,11.17-8l15.13,1.76a91.86,91.86,0,0,0,15.58-8.57c1.58-1.08,3.31-2.68,2.88-4.54-.51-2.13-3.29-2.57-5.48-2.57H919.6l6.2-9.3a35.82,35.82,0,0,0,3.76-6.62c2-5.17,1.54-10.93,1-16.45l21.32-8.68A87.51,87.51,0,0,0,982,2486.66c6.55-6.42,12.34-14.67,12.08-23.84l-12.09-6-18.9,6.44c-4.37,1.49-9.19,3.37-11.1,7.57l-4.8-1c-2.15-3-1.32-7.38.75-10.47s5.14-5.35,7.83-7.93a33.26,33.26,0,0,0,8.49-12.85c4.48-12.86-.69-27.67,4.2-40.37.84-2.19,6-4.26,7.2-6.27l10.38-1.54c7.34-.42,14.73,1.9,22,3,2.08.3,9.16-2.34,11.26-2.38,3.93-.07,3.82-3.6,6.75-6.23l-7-3-6.37.9a25.14,25.14,0,0,1-13.51-1c-4.36-1.19-8.72.61-13.07-.58l-3.24-.51c2.73-11.52-5.28-30.24-4.59-42.06a68.55,68.55,0,0,1,2.14-11.35l4.83-1.29c5.7-2.68,12.42-1.17,18.43.74s12.28,4.2,18.45,2.92l3.15,1.9c5.66,5.61,14.25,6.77,22.18,7.48a36.6,36.6,0,0,0,9.64,0c3.52-.62,6.77-2.23,10-3.81l11.51-5.72-.74-10.54a27.44,27.44,0,0,0-8.25-8.47,21.94,21.94,0,0,1-20.06,12.65,17.11,17.11,0,0,0-3.65.07c-4,.75-6.33,5.1-10.2,6.2-4.88,1.39-9.7-3.14-11.09-8s-.57-10.09-1-15.15l-7.52-10.43c-2.6-1.43-5.74.12-8.41,1.42a48.83,48.83,0,0,1-15.44,4.56c-4.06.49-8.72.75-11.21,4l-9.68-4.12a11.2,11.2,0,0,1-9.54-5c4.08-1.56,8.27-3.18,11.43-6.18a69.7,69.7,0,0,0,5.2-6.29,32.65,32.65,0,0,1,21.21-11.47c-2.26-3.5-6.25-5.47-9-8.58-5.37-6-5.28-15-4.87-23a50.14,50.14,0,0,1,21.74,5.88,12.49,12.49,0,0,0,4.66,1.82c3,.25,5.77-2.09,6.84-4.9s.77-6,.1-8.89-1.69-5.8-2-8.8a10.77,10.77,0,0,1,.8-6c1.84-3.69,6.51-5.23,10.6-4.66s7.72,2.77,11.23,4.93l7.62,19.61a132,132,0,0,0,7.12,15.31c2.73,5.27,5.61,10.72,10.35,14.29a75.83,75.83,0,0,1,6.14-28.47,29.41,29.41,0,0,0,21,17.09l-4.14-18.07a13.56,13.56,0,0,1-7.5-5.26,23,23,0,0,0-2-2.73c-1.35-1.43-3.27-2.14-5-3a32,32,0,0,1-7.63-5c-2.94-2.57-5.57-5.78-9.28-7a30.2,30.2,0,0,0-4.23-.86c-9.38-1.7-17.36-8-23.33-15.47l-6.61-7.55c.84-1.83,1.69-3.67,2.54-5.5a29.72,29.72,0,0,1,2.13-4.07c2.81-4.25,7.55-6.79,12.25-8.77,5-2.11,10.66-3.79,15.72-1.87l5.86,7.63a40.62,40.62,0,0,1,18.84,16.8l3.4-6.35a1.26,1.26,0,0,1,.58-.66,1.33,1.33,0,0,1,1.14.24,48.67,48.67,0,0,0,19.1,5.84l4.71,1a7.48,7.48,0,0,1,5,1.77c1.45,1.07,2.72,2.37,4.26,3.31a10.82,10.82,0,0,0,7.44,1.37l6.9,1a3.1,3.1,0,0,1,2.93-3.58,5.39,5.39,0,0,1,1.95.49c4.39,1.76,8.32,4.5,12.21,7.21l18.2,12.69,10.94,3.64c2.22-.07,4,1.76,5.26,3.61a25.87,25.87,0,0,1,3.6,8.17c2.93,11.93-2.86,24-5.94,35.9a54.18,54.18,0,0,0-1.63,21.33c.53,3.67,1.58,7.3,1.45,11-.15,4.58-2.1,9.1-1.34,13.62a27.75,27.75,0,0,1,22.39-11.78,69.83,69.83,0,0,1,.68-14.79q3.81-32.88,7.64-65.77,1.92-16.58,3.85-33.15l.53-4.55c.11-6.13.26-12.41,2.43-18.15,1.21-3.2,3-6.24,3.32-9.65.43-5.37-3.11-10.94-1.06-15.92.95-2.31,3-4.19,3.29-6.68.15-1.4-.33-2.85,0-4.22.56-2.32,3.11-3.51,4.49-5.46,1.25-1.77,1.45-4,1.62-6.19l6.72-88.19.18-1.33c5-1.32,10-2.71,14.14-5.77a29.93,29.93,0,0,0,6.08-6.38c7.66-10.38,11.7-23.18,20-33a95.94,95.94,0,0,1,11.34-10.73l11.49-9.74.77-13.29a88,88,0,0,0-6.73-34.17l-7.56-4.17q-8.7-17.89-17.41-35.77c-3.4-7-7.5-14.62-14.84-17.16l4.72-10.11c4.76-5.57,5.72-13.45,5.41-20.78a66,66,0,0,0-9.55-32.1,51.69,51.69,0,0,0-25.57-21.25l-13.73-.45c-3,.93-5.76-2.59-8.94-2.66-2.95-.07-5,2.75-7.63,4.18-2,1.09-4.26,1.38-6.37,2.15a27.14,27.14,0,0,0-7.79,5,306,306,0,0,0-25.54,24.1l-1.24,2a107.35,107.35,0,0,0-15.69,33.67c-4-2.38-5.5-7.68-4.74-12.28s3.36-8.76,5.89-12.73a24.21,24.21,0,0,0-11.7,6.2,81.36,81.36,0,0,1,1.93-26.19,124.43,124.43,0,0,1,10.49-29.35l-.83-5.28c-2.67-5.15-2.9-11.17-3.08-17-.26-8.62-.09-18.34,6.15-24.29L1139,1713l-8.34-6.67a27.39,27.39,0,0,1-5.7-5.52c-5.61-8-1.79-20.11-7.58-28a20.31,20.31,0,0,0-7.73-5.93c-8.14-3.91-17.72-5-24.79-10.63-7.78-6.18-10.92-17.1-9.09-26.86s8.09-18.32,15.94-24.4,17.22-9.92,26.73-12.78l4.78-7.15q-3.26-4-6.68-7.77a10.43,10.43,0,0,0-1.39-1.35,10.71,10.71,0,0,0-1.83-1c-3.41-1.64-6.93-3.16-9.89-5.52s-5.35-5.75-5.52-9.53l-1.85-13c-1.87-3-2.7-6.44-4.06-11.09-2-7-7.93-14.37-1.56-31.48,3.81-10.24,13.29-11.5,23.45-15.52l6.22-14.58c5.91-11.42,17.35-18.71,26.41-27.85,3.25-3.27,6.24-6.84,9.87-9.7,2.84-2.24,6-4,9-6,13.27-8.74,23.18-21.66,35.3-32s28.4-18.11,43.64-13.62l10.28,18.31a72.92,72.92,0,0,1,6.7,9.47,52.76,52.76,0,0,1,10.26-1,16.15,16.15,0,0,1,6.72,1.14,6.89,6.89,0,0,1,4.15,5.09c3.57-1.37,8-1.46,10.82,1.1,3.26,2.94,3.71,8.63,7.74,10.37,3.78,1.64,7.82-1.38,10.93-4.09a174.1,174.1,0,0,1,14.9-11.62l1.78-6.11q.56-11.74.83-23.49c.1-3.79.16-7.65-.9-11.3s-3.12-6.91-3-10.59c.19-4.54,3.87-8.34,8.07-10.06s8.87-1.8,13.41-1.84l5.94,1.89c9.62-2.85,19.83,3.73,29.73,2.16,2.08-.33,4.13-1,6.24-1s4.4,1.13,5,3.15l17.82-4.4,6.23,11.37a13.67,13.67,0,0,0,3.23,4.38c-.25-2.39,1.78-4.58,4.1-5.19a10.92,10.92,0,0,1,7,1,25.26,25.26,0,0,1,13.77,15.18c6.68-.57,12.39,5.47,14.16,11.93a3.52,3.52,0,0,0,1,1.91c.7.55,1.69.42,2.58.52,2.43.28,4.26,2.52,4.86,4.9a18.24,18.24,0,0,1-.15,7.28c-1.25,8-3,16.89-9.73,21.45-1.73,1.18-3.69,2-5.41,3.17-4.44,3.06-6.79,8.24-9.77,12.73-6.41,9.67-16.13,16.57-25.46,23.49a14.26,14.26,0,0,0-4.51,4.57c-2,3.93,0,8.8,2.82,12.18a26.86,26.86,0,0,0,20.78,9.42l3.91-7.71c-.4-2.88,1.66-5.47,3.64-7.61s4.14-4.58,4-7.49l6.64-8.17a14.44,14.44,0,0,1,3.67-5.42c1.72-1.36,4.4-1.8,6.07-.38a7,7,0,0,1,1.79,3.05,71.38,71.38,0,0,1,4.19,28.12,18.07,18.07,0,0,1,9.57-3.28c.18-12.33,4.88-24.09,7.55-36.13,3.84-17.31,3.48-35.24,3.33-53,0-4,0-8.14,1.28-11.94s4.23-7.31,8.15-8.21c1.16-.26,2.35-.3,3.49-.63,2.34-.69,4.21-2.6,6.6-3.09,5.06-1,8.85,4.41,11.12,9.06q2.21,4.48,4.39,9c.14-3.21,5-4.14,7.44-2s2.87,5.63,3.18,8.83q.82,8.37,1.64,16.76c.21,2.21,1.8,5.22,3.74,4.13-.11-4.19,5.17-6.4,9.34-6s8.37,2.21,12.42,1.13c3-.79,5.43-3.07,8.44-3.76,3.7-.85,7.63.92,10.24,3.68s4.09,6.38,5.27,10a80.89,80.89,0,0,1-.27,50.48c-.43,1.25-.83,2.8.07,3.78a3.73,3.73,0,0,0,2.31.89l25.85,3.53a3.36,3.36,0,0,1,1.65.53,3.25,3.25,0,0,1,1,1.8c4.87,18.15-2.25,37.26-10.62,54.09-2.93,5.88-6.68,12.24-13,14l-.33,1c7.74,1.53,14.54,6.32,19.86,12.16s9.32,12.72,13.29,19.55c3,5.13,6,10.42,7,16.28C1635.93,1604.25,1635.37,1609,1634.81,1613.73ZM1051.7,2380.56a4.62,4.62,0,0,0-1.18-3,4.18,4.18,0,0,0-2.82-.73,20.29,20.29,0,0,0-4.72.61,10.66,10.66,0,0,1-3.6.59,2.69,2.69,0,0,1-2.54-2.21c-1.72,1.84-3.9,3.21-5.65,5s-3.08,4.38-2.45,6.83l-.72,2.58c6.53,1.57,13.39-.4,19.54-3.08,1.68-.73,3.49-1.69,4.09-3.42A7,7,0,0,0,1051.7,2380.56Zm122.1-35.81q1.58,16.07,4,32h.93a147,147,0,0,0,1.65-23c0-3.85-.23-7.82-1.78-11.35l-2.67-1.32a1.76,1.76,0,0,0-2,1.13A5.14,5.14,0,0,0,1173.8,2344.75Zm24.52,155.6a300.41,300.41,0,0,0-4.3-51,165.56,165.56,0,0,1-12.49,29.76,120.2,120.2,0,0,0-6.8-25c-2-5.05-4.32-10-5.61-15.26-2.81-11.47-.5-23.5,1.81-35.07l.22-6c-3.37-14.74-5.14-31-10.1-45.27l-5.5-3.66-4,13.8a10.81,10.81,0,0,0-4.85,5.83c-.61,1.79-.74,3.71-1.32,5.51-.94,2.94-5,3.37-7,5.72l-6.38,19.06c-1,7.6,2.09,15.56,6.72,21.67,3.29,4.35,6.8,10.81,9.35,15.64,1.63,3.09,2.35,6.57,3.34,9.93a93.2,93.2,0,0,0,7.06,16.75c2.81,5.39,6,10.7,10.36,14.88a63.31,63.31,0,0,0,5.92,4.77l19.84,14.78Zm79.84-461.61-7.29-1.86a6.76,6.76,0,0,1-3.66-1.78,6.91,6.91,0,0,1-1.18-3c-.65-2.94-1.3-5.89-2-8.83a35.36,35.36,0,0,1-7.36,9.57,13,13,0,0,0-3.15,3.54,11.12,11.12,0,0,0-.83,4.55q-1.35,32.53-4.73,64.94l1.61,2.22c4.27-1,7.62-4.49,9.39-8.49s2.16-8.47,2.29-12.85c.09-2.87,0-5.89-1.34-8.41-.91-1.66-2.41-3.27-2.11-5.14.39-2.33,3.2-3.22,5.51-3.64a10.09,10.09,0,0,1,10.09-10.21,12,12,0,0,1,2.85-7.61C1272.83,2048.11,1273.8,2041.28,1278.16,2038.74Z"></path>
    <path data-name="2" data-official="Gossypium hrbaceum" data-plain="Common Cotton" data-loc="East Indies" d="M1216.56,2750.41l-4.45-20.9a323.46,323.46,0,0,1,0-61.37l1.33-1.45c2-.91,4.44,0,6,1.47a21.6,21.6,0,0,1,3.64,5.46c4.73,8.54,11.73,15.58,18.93,22.17,4.6,4.22,9.41,8.42,12.44,13.88L1263,2719c1.08,4.05,3.66,7.5,5.9,11,4.55,7.19,7.87,15.07,11.16,22.91l20.2,48c3.4,8.07,6.82,16.26,8,24.93,2.61,20-8.57,41-26.58,50a12.37,12.37,0,0,1-6.52,1.71,13,13,0,0,1-5-1.87,54.39,54.39,0,0,1-16.56-13.85,63.85,63.85,0,0,1-7.81-13.77c-11.32-26.11-12.59-55.78-24.43-81.66Zm-93.14-196.73a15,15,0,0,0-5.38,2.4l-7.82,1q-1.93,14.27-3.42,28.59c-4.61.13-8.42-3.38-11.66-6.66-11.36-11.49-23.21-24.13-25.75-40.08l-6.46,8.25q-7.67-22.29-15.34-44.57l-8.72,4.91a15.4,15.4,0,0,1-7.83,6.82,224.79,224.79,0,0,1,4.45,29.88,54.21,54.21,0,0,1-.09,12.54l7.94,2.59c-1.94.75-2.29,3.32-2.24,5.4.4,14.07,5.2,27.6,10,40.83,1.21,3.34,2.45,6.76,2.47,10.31l6.74,12.13a270.69,270.69,0,0,0,29.51,36.06c4.48,4.6,9.33,9.41,10.73,15.67,1.13,5-.16,10.26-.8,15.38s-.47,10.86,3,14.72c3,3.34,7.79,4.52,12.21,4s8.48-2.66,12.27-5a87.56,87.56,0,0,0,14.92-11.65c8.52-8.29,16.7-19,28.55-20l9.09-2.9-.57-.5c3.62-5.63,4.68-12.47,5.65-19.09,2.47-16.86,4.81-34.83-2.29-50.33l-3-15.88ZM51.5,1941.51c3.24,88.08,87.36,151.21,115,234.9,18,54.54,10.76,113.67,13.22,171.05,4.65,108.57,44.41,212,72.26,317.07,12.67,47.81,27.74,102.52,72.39,123.8,22.63,10.78,48.74,10.49,73.8,10,49.35-1,99.53-2.12,146.48-17.34s91.06-46.86,109.26-92.74c6.46-16.3,14.24-37.71,31.78-37.46,10.35.15,18.41,8.52,27.36,13.73,22.44,13,50.9,6,75.07-3.44,11.23-4.39,23.47-10.47,27.2-21.94,2.41-7.43.62-15.48.54-23.29-.32-29.61,28.65-56.08,58.11-53.09l4.72-9.76c4.81-10.24,9.69-20.66,11.41-31.85.57-3.67,1-7.77,3.75-10.24,2.5-2.21,6.28-2.45,8.81-4.63a10.26,10.26,0,0,1,2.65-2.15,6.12,6.12,0,0,1,2.56-.25l9.62.45c4.47.2,9.94,1.11,11.43,5.33l1.66,5,21.32-8.68A87.51,87.51,0,0,0,982,2486.66c6.55-6.42,12.34-14.67,12.08-23.84l-12.09-6-18.9,6.44c-4.37,1.49-9.19,3.37-11.1,7.57l-4.8-1c-2.15-3-1.32-7.38.75-10.47s5.14-5.35,7.83-7.93a33.26,33.26,0,0,0,8.49-12.85c4.48-12.86-.69-27.67,4.2-40.37.84-2.19,6-4.26,7.2-6.27l7.16-11.37c2.73-11.52-5.28-30.24-4.59-42.06a68.55,68.55,0,0,1,2.14-11.35l2.16-12-11.22-13.6a11.2,11.2,0,0,1-9.54-5c4.08-1.56,8.27-3.18,11.43-6.18a69.7,69.7,0,0,0,5.2-6.29,32.65,32.65,0,0,1,21.21-11.47c-1.9-3-5-4.81-7.62-7.17a18.62,18.62,0,0,1-1.4-1.41c-5.37-6-5.28-15-4.87-23l-.09-4.5a179.16,179.16,0,0,1-7.53-34.55,40.08,40.08,0,0,1-.11-11.52c.63-3.65,2.14-7.09,3.18-10.65,3.21-11,1.77-22.79.31-34.18-1.16-9-2.7-18.84-9.34-25.08l-14.87-16.72c-6.43-7.16-13.3-14.62-22.46-17.57-2.2-.71-4.5-1.14-6.63-2a33.59,33.59,0,0,1-6.33-3.9c-7-5-14.12-9.83-22-13.17s-16.62-5.13-25.09-3.83c-4.07.62-8.05,1.95-12.17,2.12a43.44,43.44,0,0,1-10.13-1.21l-28-5.57a33.81,33.81,0,0,0-7.55-.91c-9.07.28-16.21,7.66-21.52,15l-2.59-.12c.29-2.15-2.48-3.4-4.65-3.28s-4.54.81-6.37-.36a8.71,8.71,0,0,1-2.38-2.95,21.26,21.26,0,0,0-19.11-9.68c-2.18.16-4.47.65-6.51-.15a11,11,0,0,1-4.2-3.67l-18.1-22.31c-2.34-2.87-4.74-5.81-7.9-7.73-3-1.8-6.43-2.6-9.82-3.37-7-1.57-14-3.15-21.14-2.57a19.54,19.54,0,0,1-5.71.07c-2.93-.65-5.18-2.94-7.81-4.38-8.64-4.75-19.53.17-29.16-2-2.13-.47-4.2-1.29-6.38-1.37-4.9-.2-9.38,3.29-14.27,3.1s-9-4.16-11.28-8.56-3.24-9.34-5.12-13.92a37.69,37.69,0,0,0-13.11-16.42c-5.22-3.66-11.28-5.93-16.76-9.18s-10.64-7.9-12.19-14.08,2-13.85,8.26-14.86l-1.84-.52a28,28,0,0,1-20.05-10.06,11,11,0,0,1-2.77-5.67c-.39-3.85,2.48-7.56,1.79-11.37-.52-2.84-2.91-5-3.64-7.81-1-3.8,1.29-7.67,1.47-11.59a22,22,0,0,0-1.6-7.92l-5.1-15.21a16.55,16.55,0,0,1-1.22-6.1c.15-2.47,1.38-4.72,2.15-7.07,2.59-8-.29-16.59-.4-25-.18-12.67,6-25.11,4-37.62-1.1-6.9-4.65-13.19-9-18.69a71.53,71.53,0,0,0-20.26-17.69l-18.06-5.87c-2.29-3.79-5.75-6.68-9.15-9.51l-10.56-8.78c-11.1-9.23-22.22-18.47-34.15-26.59L424,1697.52c-5.75-6.8-15.92-7.55-24.76-6.53s-18,3.24-26.47.49c-2.64-.85-5.15-2.18-7.88-2.71-10-2-18.75,7-28.74,9-6.9,1.41-14-.57-20.69-2.84A231.27,231.27,0,0,1,276,1677.32c-4.71-2.66-9.4-5.52-14.59-7-17.2-5.07-34.64,5.16-51.38,11.57-7.24,2.77-14.75,4.87-21.72,8.28-9.05,4.43-16.91,10.93-24.36,17.7a336.4,336.4,0,0,0-51.14,58.63c-12.38,18-23,37.23-33.52,56.39-13.7,24.86-27.75,51-28.27,79.38Z"></path>
    <path data-name="2a" data-official="" data-plain="Seed" data-loc="" d="M659.79,2758.85c1-10.83-1.24-22.22,2.84-32.3,2-5.05,5.56-9.42,7.43-14.53,2.29-6.29,2-13.26,3.93-19.65a28.06,28.06,0,0,1,5.83-10.32,11.59,11.59,0,0,1,4.13-3.2,10.07,10.07,0,0,1,7.5.4c4.34,1.79,7.68,5.44,10.07,9.48s3.94,8.5,5.7,12.85a146.25,146.25,0,0,0,8.59,17.73c4.3,7.55,9.32,14.8,12,23.06,2.46,7.51,2.9,15.52,3.19,23.42.43,11.55.49,23.56-4.37,34.05-5,10.81-15.07,18.95-26.45,22.48s-23.92,2.65-35.07-1.56a21.57,21.57,0,0,1-6.9-3.81c-3.48-3.1-5-7.85-5.57-12.48-1.33-11.89,3.34-23.54,7.92-34.6Z"></path>
    <path data-name="3" data-official="Hibiscus syriacus" data-plain="Althea frutex" data-loc="Syria" d="M1068.24,2846a14.8,14.8,0,0,1,3.52-6c1.33-1.5,2.8-2.89,4.27-4.27l9-8.45c2.86-2.69,5.79-5.43,9.34-7.1a18.72,18.72,0,0,1,11.45-1.41l5.74,7.14a45.93,45.93,0,0,0,21.64,21.84c3.62,1.72,7.49,3,10.77,5.28,6.53,4.55,9.87,12.74,10,20.69s-2.58,15.71-6.16,22.82a18.19,18.19,0,0,1-4,5.69c-2.22,1.94-5.18,2.79-8.09,3.28a41.7,41.7,0,0,1-20.78-1.81c-6-2.15-11.56-5.68-17.79-7.2l-9-2.92a38.82,38.82,0,0,1-9.24-2.72,13,13,0,0,1-6.66-6.68,19.49,19.49,0,0,1-1-5.1l-1.48-15.43Zm21.6-181.94a270.69,270.69,0,0,1-29.51-36.06l-6.74-12.13c0-3.55-1.26-7-2.47-10.31-4.82-13.23-9.62-26.76-10-40.83,0-2.08.3-4.65,2.24-5.4l-7.94-2.59c-1,6.21-3.82,12-5.31,18.07-1.83,7.46-1.6,15.24-1.36,22.92-2.71-4.79-6.67-8.62-10.85-12.26l.32,4.23c4.38,11,4.22,23.28,7.11,34.78a23.34,23.34,0,0,1,1,5.35c0,3.31-1.6,6.54-1.18,9.83l4.69,43.09,3.8,32.42c.64,5.43,1.28,10.86,2.42,16.2,1.58,7.32,4.09,14.4,5.92,21.65,3.8,15,4.75,30.9,11.5,44.81l3.45,8.33c8.76-8.21,17.57-16.46,27.47-23.25a68.71,68.71,0,0,0,7.86-5.77,16.81,16.81,0,0,0,5.23-8.07l-10.14-15.23c-3.85-4.85-5.48-11.07-6.51-17.18a22.53,22.53,0,0,1-.41-4.1c0-2.94,1.13-5.77,2.19-8.52ZM986,2390.39c7.34-.42,14.73,1.9,22,3,2.08.3,9.16-2.34,11.26-2.38,3.93-.07,3.82-3.6,6.75-6.23l-7-3-6.37.9a25.14,25.14,0,0,1-13.51-1c-4.36-1.19-8.72.61-13.07-.58Zm38.5-69.13c-1.39-4.88-.57-10.09-1-15.15l-7.52-10.43c-2.6-1.43-5.74.12-8.41,1.42a48.83,48.83,0,0,1-15.44,4.56c-4.06.49-8.72.75-11.21,4l-9.68-4.12,11.22,13.6-2.16,12,4.83-1.29c5.7-2.68,12.42-1.17,18.43.74s12.28,4.2,18.45,2.92Zm253.67-282.52-7.29-1.86a6.76,6.76,0,0,1-3.66-1.78,6.91,6.91,0,0,1-1.18-3c-.65-2.94-1.3-5.89-2-8.83a35.36,35.36,0,0,1-7.36,9.57,13,13,0,0,0-3.15,3.54,11.12,11.12,0,0,0-.83,4.55q-1.35,32.53-4.73,64.94l1.61,2.22c4.27-1,7.62-4.49,9.39-8.49s2.16-8.47,2.29-12.85c.09-2.87,0-5.89-1.34-8.41-.91-1.66-2.41-3.27-2.11-5.14.39-2.33,3.2-3.22,5.51-3.64a10.09,10.09,0,0,1,10.09-10.21,12,12,0,0,1,2.85-7.61C1272.83,2048.11,1273.8,2041.28,1278.16,2038.74Zm11.5,153.33,0,.38a20.22,20.22,0,0,0-8.77,2.4,16,16,0,0,1-1.15-5.75c0-2.33.44-4.63.43-6.95a16.55,16.55,0,0,0-3.83-10.4l7.72-9.06a47.6,47.6,0,0,0,5.13-9.63c-4.81,2.87-11.18-.07-14.79-4.34a5.51,5.51,0,0,1-1.05-1.65,6.07,6.07,0,0,1-.1-2.55c.3-2.93.74-6.14,2.93-8.1a13.44,13.44,0,0,1,3.56-2c4.86-2.21,9.57-5.33,12.19-10s2.58-11.1-1.19-14.88a6.59,6.59,0,0,0-2.55-1.66c-2.32-.76-4.84.31-6.91,1.61-9.75,6.18-14.77,17.55-18.33,28.54-1.17,3.61-2.31,7.38-4.85,10.21-2.31,2.56-6.17,4.07-9.31,2.87l.47.22a319.19,319.19,0,0,0-8.14,36.42,153.68,153.68,0,0,0-2.39,26.11l-1.47,4.28c-.34,1.34-.69,2.68-1,4l.76.66a28.21,28.21,0,0,0,24.52-2.52,18.35,18.35,0,0,1-5.24-3c-.88-.71-1.77-1.75-1.46-2.84.37-1.32,2.12-1.57,3.49-1.45a25.66,25.66,0,0,1,7.22,1.69,36.24,36.24,0,0,0,4.78,1.79c3.52.85,7.18-.12,10.76-.69a50.23,50.23,0,0,1,27.07,3.16c-.16-5.3-2.56-10.35-5.92-14.45a54.55,54.55,0,0,0-12-10.3Zm-235-31.78a36.82,36.82,0,0,1,12.35-11.78,2.27,2.27,0,0,1,1.22-.42,2.31,2.31,0,0,1,1.24.63,109.34,109.34,0,0,1,18.13,18.42c2.74,3.55,5.38,7.63,5.2,12.11l10.9,17.31,4.71,1a7.48,7.48,0,0,1,5,1.77c1.45,1.07,2.72,2.37,4.26,3.31a10.82,10.82,0,0,0,7.44,1.37l6.9,1a3.1,3.1,0,0,1,2.93-3.58,5.39,5.39,0,0,1,1.95.49c4.39,1.76,8.32,4.5,12.21,7.21l18.2,12.69,44.17-4.74,2.73-23.48.53-4.55c.11-6.13.26-12.41,2.43-18.15,1.21-3.2,3-6.24,3.32-9.65.43-5.37-3.11-10.94-1.06-15.92.95-2.31,3-4.19,3.29-6.68.15-1.4-.33-2.85,0-4.22.56-2.32,3.11-3.51,4.49-5.46,1.25-1.77,1.45-4,1.62-6.19l6.72-88.19.18-1.33c5-1.32,10-2.71,14.14-5.77a29.93,29.93,0,0,0,6.08-6.38c7.66-10.38,11.7-23.18,20-33a95.94,95.94,0,0,1,11.34-10.73l11.49-9.74.77-13.29a88,88,0,0,0-6.73-34.17l-7.56-4.17q-8.7-17.89-17.41-35.77c-3.4-7-7.5-14.62-14.84-17.16l4.72-10.11c4.76-5.57,5.72-13.45,5.41-20.78a66,66,0,0,0-9.55-32.1,51.69,51.69,0,0,0-25.57-21.25l-13.73-.45c-3,.93-5.76-2.59-8.94-2.66-2.95-.07-5,2.75-7.63,4.18-2,1.09-4.26,1.38-6.37,2.15a27.14,27.14,0,0,0-7.79,5,306,306,0,0,0-25.54,24.1l-1.24,2a107.35,107.35,0,0,0-15.69,33.67c-4-2.38-5.5-7.68-4.74-12.28s3.36-8.76,5.89-12.73a24.21,24.21,0,0,0-11.7,6.2,81.36,81.36,0,0,1,1.93-26.19,124.43,124.43,0,0,1,10.49-29.35l-.83-5.28c-2.67-5.15-2.9-11.17-3.08-17-.26-8.62-.09-18.34,6.15-24.29L1139,1713l-8.34-6.67a27.39,27.39,0,0,1-5.7-5.52c-5.61-8-1.79-20.11-7.58-28a20.31,20.31,0,0,0-7.73-5.93c-8.14-3.91-17.72-5-24.79-10.63-7.78-6.18-10.92-17.1-9.09-26.86s8.09-18.32,15.94-24.4,17.22-9.92,26.73-12.78l4.78-7.15q-3.26-4-6.68-7.77a10.43,10.43,0,0,0-1.39-1.35,10.71,10.71,0,0,0-1.83-1c-3.41-1.64-6.93-3.16-9.89-5.52s-5.35-5.75-5.52-9.53l-1.85-13c-1.87-3-2.7-6.44-4.06-11.09-2-7-7.93-14.37-1.56-31.48,3.81-10.24,13.29-11.5,23.45-15.52l-16.73-.17c-2.42,1.12-5.16,1.29-7.77,1.83-9.66,2-17.43,9-24.51,15.82q-8,7.77-15.68,15.86c0-25.66,11.35-50.17,12.51-75.81a96.42,96.42,0,0,0-5.13-35.66l-4.7,1.42a63,63,0,0,1-6-6.68,8.9,8.9,0,0,1-1.66-2.91,8.71,8.71,0,0,1-.14-3.14c.83-9.41,4.17-18.79,2.51-28.09l-.83-.11a38.51,38.51,0,0,1,4.49-15.83c1-1.88,2.21-4.09,1.29-6-1.15-2.42-4.56-2.38-7.21-2l-9.69,1.53c-8.24,1.31-16.8,2.59-24.83.33-5.64-1.59-10.66-4.85-15.47-8.2-5.05-3.5-10-7.16-14.92-10.81l-8.51-2.67c-7-1.47-14.47-2.22-21.06.49-5.13,2.11-9.25,6.13-12.64,10.51a62.7,62.7,0,0,0-11.6,24.74l-6.87,11.46c-9.63,9.49-11.55,24.19-11.84,37.71s.38,27.72-5.76,39.76c-5.68,11.13-16.32,18.71-26.57,25.85l-15,10.43a41.55,41.55,0,0,1-8,4.72c-2.16.87-4.46,1.36-6.65,2.15a26.6,26.6,0,0,0-13.05,10.2c-1.36,2-2.5,4.33-4.52,5.71s-4.87,1.64-7.4,2.2a22.63,22.63,0,0,0-8.5,3.86c-1.85,1.35-3.49,3-5.43,4.21-4.35,2.72-9.77,3.09-14.43,5.25s-8.67,7.75-6.16,12.22l-1.87,2.23a11.4,11.4,0,0,1-8.38,3.7c-3.14-.15-6.26-2.41-6.76-5.51s1.56-6.13,1.69-9.31c.18-4-3-7.72-6.79-9.14s-8.06-1-12,0c-7.7,2-14.59,6.3-21.77,9.75s-15.16,6.17-23,4.84c-3.7-.63-7.19-2.14-10.81-3.18a43.62,43.62,0,0,0-19.18-1.09c-4.83.8-9.51,2.43-14.38,3-9.27,1.06-18.48-1.8-27.74-2.9a74,74,0,0,0-22,.69c-5.23,1-10.43,2.48-15.73,2.21-6.91-.35-13.4-3.73-20.31-4-12.69-.53-24.57,9.35-37.07,7.08l-.13,1.51c-3.45,11.53-7.5,23.91-17.3,30.89-2,1.43-4.22,2.59-6.1,4.2-4.73,4-6.82,10.39-7.56,16.56s-.38,12.44-1.23,18.59c-1.26,9.07-5.93,18.42-14.38,22-4.72,2-10.13,2-14.75,4.15-7.57,3.6-11.46,12.31-18.61,16.69-5.82,3.58-13.18,3.9-19,7.45-7.15,4.35-10.71,12.67-16.34,18.86a35.47,35.47,0,0,1-22.05,11.3l-2.63,1.45c8.84-1,19-.27,24.76,6.53l26.71,4.41c11.93,8.12,23.05,17.36,34.15,26.59l10.56,8.78c3.4,2.83,6.86,5.72,9.15,9.51l18.06,5.87a71.53,71.53,0,0,1,20.26,17.69c4.3,5.5,7.85,11.79,9,18.69,2,12.51-4.19,25-4,37.62.11,8.39,3,17,.4,25-.77,2.35-2,4.6-2.15,7.07a16.55,16.55,0,0,0,1.22,6.1l5.1,15.21A22,22,0,0,1,554,1888c-.18,3.92-2.47,7.79-1.47,11.59.73,2.8,3.12,5,3.64,7.81.69,3.81-2.18,7.52-1.79,11.37a11,11,0,0,0,2.77,5.67,28,28,0,0,0,20.05,10.06l1.84.52c-6.3,1-9.81,8.68-8.26,14.86s6.71,10.82,12.19,14.08,11.54,5.52,16.76,9.18a37.69,37.69,0,0,1,13.11,16.42c1.88,4.58,2.85,9.52,5.12,13.92s6.33,8.36,11.28,8.56,9.37-3.3,14.27-3.1c2.18.08,4.25.9,6.38,1.37,9.63,2.12,20.52-2.8,29.16,2,2.63,1.44,4.88,3.73,7.81,4.38a19.54,19.54,0,0,0,5.71-.07c7.1-.58,14.18,1,21.14,2.57,3.39.77,6.85,1.57,9.82,3.37,3.16,1.92,5.56,4.86,7.9,7.73l18.1,22.31a11,11,0,0,0,4.2,3.67c2,.8,4.33.31,6.51.15a21.26,21.26,0,0,1,19.11,9.68,8.71,8.71,0,0,0,2.38,2.95c1.83,1.17,4.2.48,6.37.36s4.94,1.13,4.65,3.28l2.59.12c5.31-7.35,12.45-14.73,21.52-15a33.81,33.81,0,0,1,7.55.91l28,5.57a43.44,43.44,0,0,0,10.13,1.21c4.12-.17,8.1-1.5,12.17-2.12,8.47-1.3,17.2.49,25.09,3.83s15.06,8.17,22,13.17a33.59,33.59,0,0,0,6.33,3.9c2.13.9,4.43,1.33,6.63,2,9.16,3,16,10.41,22.46,17.57l14.87,16.72c6.64,6.24,8.18,16,9.34,25.08,1.46,11.39,2.9,23.16-.31,34.18-1,3.56-2.55,7-3.18,10.65a40.08,40.08,0,0,0,.11,11.52,179.16,179.16,0,0,0,7.53,34.55l.09,4.5a50.14,50.14,0,0,1,21.74,5.88,12.49,12.49,0,0,0,4.66,1.82c3,.25,5.77-2.09,6.84-4.9s.77-6,.1-8.89-1.69-5.8-2-8.8a10.77,10.77,0,0,1,.8-6l4.37-26.78c.84-1.83,1.69-3.67,2.54-5.5a29.72,29.72,0,0,1,2.13-4.07c2.81-4.25,7.55-6.79,12.25-8.77Z"></path>
    <path data-name="4" data-official="Malope trifida" data-plain="Trifid-leaved Malope" data-loc="Barbary" d="M1167.28,2221.85l10.94,3.64c2.22-.07,4,1.76,5.26,3.61a25.87,25.87,0,0,1,3.6,8.17c2.93,11.93-2.86,24-5.94,35.9a54.18,54.18,0,0,0-1.63,21.33c.53,3.67,1.58,7.3,1.45,11-.15,4.58-2.1,9.1-1.34,13.62a27.75,27.75,0,0,1,22.39-11.78,69.83,69.83,0,0,1,.68-14.79q3.81-32.88,7.64-65.77.54-4.71,1.09-9.42M1129,2534.21l-1.22-4.48c-.61-9.62-6.67-17.87-10.57-26.69a95.23,95.23,0,0,1-4.35-12.57,204.42,204.42,0,0,1-7.3-42.74c-.3-4.71-.44-9.45-1.46-14.06s-3-9.13-6.47-12.34c-1.63-1.51-4.05-2.73-6-1.66-3,1.62-1.78,6.46-4,9l.67,10.43c-.37,12.09-.62,24.64,4.27,35.7,1.57,3.55,3.66,6.92,4.52,10.71.67,3,.56,6,1,9,.75,5.22,3.11,10,5.7,14.64a134.84,134.84,0,0,0,18.84,25.63l4.07,2.77Zm44.78-189.46q1.58,16.07,4,32h.93a147,147,0,0,0,1.65-23c0-3.85-.23-7.82-1.78-11.35l-2.67-1.32a1.76,1.76,0,0,0-2,1.13A5.14,5.14,0,0,0,1173.8,2344.75Zm24.52,155.6a300.41,300.41,0,0,0-4.3-51,165.56,165.56,0,0,1-12.49,29.76,120.2,120.2,0,0,0-6.8-25c-2-5.05-4.32-10-5.61-15.26-2.81-11.47-.5-23.5,1.81-35.07l.22-6c-3.37-14.74-5.14-31-10.1-45.27l-5.5-3.66-4,13.8a10.81,10.81,0,0,0-4.85,5.83c-.61,1.79-.74,3.71-1.32,5.51-.94,2.94-5,3.37-7,5.72l-6.38,19.06c-1,7.6,2.09,15.56,6.72,21.67,3.29,4.35,6.8,10.81,9.35,15.64,1.63,3.09,2.35,6.57,3.34,9.93a93.2,93.2,0,0,0,7.06,16.75c2.81,5.39,6,10.7,10.36,14.88a63.31,63.31,0,0,0,5.92,4.77l19.84,14.78Zm-31-278.5,44.17-4.74m24.77,5,.76.66a28.21,28.21,0,0,0,24.52-2.52,18.35,18.35,0,0,1-5.24-3c-.88-.71-1.77-1.75-1.46-2.84.37-1.32,2.12-1.57,3.49-1.45a25.66,25.66,0,0,1,7.22,1.69,36.24,36.24,0,0,0,4.78,1.79c3.52.85,7.18-.12,10.76-.69a50.23,50.23,0,0,1,27.07,3.16c-.16-5.3-2.56-10.35-5.92-14.45a54.55,54.55,0,0,0-12-10.3l-.5-2.18,0,.38,0-.38q8.92-2.73,17.58-6.2l13.49-7.79c1.85,5.56-.43,11.64-3.46,16.65-1.69,2.79-3.66,5.56-4.13,8.8s1.24,7.08,4.46,7.63c2.52.43,4.88-1.23,6.81-2.9a66.08,66.08,0,0,0,11.29-12.73c-.27,7.71-5.39,14.31-10.5,20.09s-10.67,11.79-12.12,19.36a20.49,20.49,0,0,0,3.64,15.88,40,40,0,0,1,18.39-11.36c5.23-1.5,10.72-1.91,15.92-3.47s10.37-4.6,12.59-9.55a22.59,22.59,0,0,0,1.57-7.19,98.94,98.94,0,0,0-.64-23.7l.44-2.56c6.43,9.51,8.31,21.38,13.67,31.53,9.68,18.34,30.64,29.37,51.38,29.45,4,0,8.17-.39,11.57-2.49-.63-1.22-1.27-2.43-1.91-3.65a7.28,7.28,0,0,0,6.17,2.44,20.6,20.6,0,0,0,6.62-1.82c8.19-3.28,16.7-7.19,21.66-14.49a40.67,40.67,0,0,1-17.41-6.79c-1.78-1.23-3.47-2.61-5.36-3.66-8.29-4.6-18.66-2.11-27.89-4.26a33.71,33.71,0,0,0,15.71-17.06,92.41,92.41,0,0,1-23.19-10.79c-3.88-2.5-7.66-5.34-12.08-6.7,5,.3,10.08.6,14.92-.65s9.49-4.32,11.34-9l8.7,4.29a28.84,28.84,0,0,0,10.47,9.88,16.84,16.84,0,0,1,3.26,2c2.68,2.41,2.9,6.47,4.56,9.67,1.55,3,4.33,5.15,6.56,7.69,4.52,5.13,6.77,11.81,8.92,18.3a11.72,11.72,0,0,0,4.69-9.78,20,20,0,0,0,15.36,5.39c-.57-3.71-5-5.32-7.12-8.44-1.57-2.35-1.63-5.35-1.62-8.17q.06-7.42.43-14.84a2.77,2.77,0,0,0,5.43-.65l10-1.07a21.69,21.69,0,0,1,10.85.48c1.89.59,3.76,1.44,5.74,1.46,3.14,0,6.14-2,9.24-1.5l15.13-9.35c-3.37-8.79-7.3-18.26-15.46-23-5.57-3.2-12.29-3.66-18.19-6.19a28.09,28.09,0,0,1-15.8-18.16c-.65-2.4-1-4.91-2.11-7.12-2.65-5.26-8.91-7.58-12.72-12.07-1.81-2.14-3-4.71-4.54-7.07-2.76-4.3-6.53-7.84-10.26-11.34-3.91-3.66-8.87-7.62-14-6.2l-11.51-15.79c-.75-15.57,6.29-30.62,15.72-43a7.16,7.16,0,0,0,1.45-2.59,7.33,7.33,0,0,0-.43-3.54,64.67,64.67,0,0,1-1.38-29.5l-.94-12.34c3.14-11.9,5.17-24.06,7.19-36.2,1.22-7.29,2.44-14.65,2-22-.45-8-2.79-15.69-5.6-23.15l-4.79-13.36a35.52,35.52,0,0,0,6.18-18.55c.2-4.8-.4-10.21,2.78-13.81l3.53-9.94a29.92,29.92,0,0,0,8.48-16.07l2.23-21.43a142.4,142.4,0,0,0,15-34.76l6.65-2.28a272.79,272.79,0,0,0,41.06-11.6c7.14-2.64,14.23-5.59,21.71-7,19.27-3.59,39.19,3.61,55.4,14.63s29.53,25.68,43.67,39.25l3.8,2.23,11,12.37a2.91,2.91,0,0,0,1.89,1.22,2.53,2.53,0,0,0,1.39-.48c4.57-2.82,6.69-8.2,9.12-13a67.53,67.53,0,0,1,37.19-32.62l11.06,1.14a232.67,232.67,0,0,1,128.94,14.36c12.25,5.12,24.17,11.36,34.3,19.94,21.06,17.82,33.11,45.36,33.53,72.94.38,25.38-8.15,52.39,3,75.19,8.68,17.74,27.17,28.14,40.82,42.4,21.52,22.47,30.43,53.85,38.59,83.87,4,14.76,8.06,29.89,6.75,45.12-1.55,17.94-10.4,34.4-20.29,49.44a327.93,327.93,0,0,1-42,51.55c-16.61,16.62-35.22,31.69-48,51.42l-5.37,17.31c17.78,21.95,19,55.75,2.94,79-16.29,23.49-46.44,34.66-62,58.65-10.87,16.78-13.12,37.65-13.25,57.64-.22,32.48,4.33,65.21-.85,97.27s-22.77,64.79-53.14,76.28c-17.1,6.47-36.41,5.42-53.84-.11s-33.22-15.28-48-26l-28.67-4.59a173.47,173.47,0,0,0-72.24,23.14c-6.48,3.81-12.86,8.18-17.23,14.29-8.39,11.73-7.92,27.38-7.11,41.77l2.83,50c.41,7.23.53,15.32-4.36,20.67-2.78,3.05-6.79,4.67-10.76,5.82-35.89,10.41-73.94-10.44-111.08-6.29-10.45,1.17-20.61,4.31-31.07,5.33-18.78,1.84-37.72-3.28-54.71-11.51s-32.3-19.47-47.51-30.65l-11.66,1.54c-3.29-7.84-6.61-15.72-11.16-22.91-2.24-3.54-4.82-7-5.9-11l-8.49-9.35c-3-5.46-7.84-9.66-12.44-13.88-7.2-6.59-14.2-13.63-18.93-22.17a21.6,21.6,0,0,0-3.64-5.46c-1.6-1.51-4-2.38-6-1.47l-1.33,1.45c-8.5,2.21-15.47,8.12-22.12,13.86a31,31,0,0,0-5.39,5.47c-3.12,4.41-3.76,10-4.31,15.4l.65,8.62c1.47,1.89,1.56,4.47,1.57,6.86a455,455,0,0,1-3.44,56.92l-5.88,35.55-1.46,13.9a9.64,9.64,0,0,1-3.48,7.7,18.94,18.94,0,0,1-7.79,3.81c-12.09,3.26-25,.32-36.68-4.26l-12.26-6-5.74-7.14a18.72,18.72,0,0,0-11.45,1.41c-3.55,1.67-6.48,4.41-9.34,7.1l-9,8.45c-1.47,1.38-2.94,2.77-4.27,4.27a14.8,14.8,0,0,0-3.52,6l1.63,17.69,1.48,15.43a19.49,19.49,0,0,0,1,5.1l-.63,10.14c-.07,9.66-6.44,18.55-14.76,23.44s-18.33,6.25-28,5.83c-4.7-.21-9.52-.85-13.63-3.15-6.67-3.75-10.34-11.2-12.59-18.51a106.64,106.64,0,0,1-4.24-25.23c-.52-9.07-.16-18.41,3.21-26.85,2.36-5.92,6.11-11.16,10-16.23,7-9.27,14.71-18.34,24.6-24.46l20.64-3c8.76-8.21,17.57-16.46,27.47-23.25a68.71,68.71,0,0,0,7.86-5.77,16.81,16.81,0,0,0,5.23-8.07l-10.14-15.23c-3.85-4.85-5.48-11.07-6.51-17.18a22.53,22.53,0,0,1-.41-4.1c0-2.94,1.13-5.77,2.19-8.52l32.36-10.25c4.41-.57,8.48-2.66,12.27-5a87.56,87.56,0,0,0,14.92-11.65c8.52-8.29,16.7-19,28.55-20l9.09-2.9-.57-.5.57.5a116.2,116.2,0,0,1,35.1-20.43c0-5.21.12-10.61,2.35-15.31,1.24-2.63,3.11-4.91,4.53-7.45,3.8-6.79,4.18-14.9,4.47-22.68l7.22-12c.18-6.7,3.78-12.75,6.24-19,3-7.59,4.34-15.71,5.67-23.76l3.13-12.75c5.12-.58,9.65,3.06,13.48,6.5,5,4.49,10,9.09,15.94,12.24s13,4.76,19.42,2.86a66.59,66.59,0,0,1-19.74-48.22l3.35-8.26c0-2.15,2.11-3.83,4.24-4.19s4.28.28,6.34.9l4.77,1.45-5.46-10.51-.3-9-.48-7.87-4.3-3.89a35.79,35.79,0,0,1-20.22-22.83c-1.47-5.18-1.76-10.71-3.83-15.68-3.35-8.06-10.82-13.52-17.94-18.55,6.15,2.66,11.82,6.54,18.29,8.28s14.42.7,18.26-4.79c-4.32-3.16-7.81-7.29-11.21-11.43q-20.44-24.86-38.4-51.62l.6-5.68c10.77-.47,19.85,7.33,29.48,12.2,5.87,3,12.21,4.91,18.53,6.74,8.83,2.56,19,4.8,26.73-.09l-10.1-12.92c11.32-1.63,22.55,2.94,32.81,8q8.74,4.32,17.18,9.22c6.54,3.79,13,7.86,20.08,10.47a53.57,53.57,0,0,0,16,3.22l8.25,2a53.47,53.47,0,0,1,10.12.36l5.58-3.06c.87-6-.86-12.13-3.72-17.46s-6.81-10-10.72-14.61l-7-8.25a11.28,11.28,0,0,1-2.61-4.2,10.11,10.11,0,0,1-.07-3.68,47.8,47.8,0,0,1,2.52-10.74l1.2-7.72c-14.11-.95-27.77,5.29-41.9,5.81-2.63.09-5.55-.12-7.43-2,6.52-5.87,7.34-17,1.74-23.75-6.57,3.91-9.37,11.88-14.55,17.48-8.08,8.74-21,10.87-32.86,11.28a177.7,177.7,0,0,1-27.19-1.14c9.68-4,19.54-8.08,27.45-14.93,2-1.76,3.92-3.69,6-5.41,2.85-2.36,6-4.32,8.87-6.68a39.31,39.31,0,0,0,12.63-19.47c-14.73-1.4-31.12,1.25-40.91,12.35-5.24,6-8.52,14.17-15.69,17.54a37.39,37.39,0,0,0,5.5-30.51A35.2,35.2,0,0,0,1259,2284c-8,4.91-11.5,14.74-18.18,21.37a29.39,29.39,0,0,1-15.68,8l-1.68-.24c1.4-16.57,2.81-33.22,6.7-49.38a79.2,79.2,0,0,0,1.75-8.17c.53-3.9.35-7.86.54-11.8.34-7.25,1.92-14.37,3.69-21.42Z"></path>
    <path data-name="4a" data-official="" data-plain="Fruit of distinct carpels crowded into a heap" data-loc="" d="M1592.67,2671.66c5.68-8,13-15,21.71-19.5s19-6.27,28.58-4c7.57,1.77,14.38,5.92,20.49,10.73,13,10.18,23.71,24.54,25.1,41,1.25,14.76-5.08,28.95-10.54,42.71a14.79,14.79,0,0,0-1.44,6,12.25,12.25,0,0,0,2.55,6.28c8.37,12.05,24,17.62,31.89,30a14.64,14.64,0,0,1,2.66,7.31c.14,4.33-2.67,8.26-6,11-9,7.35-21.56,8.23-33.16,7.67s-23.52-2.19-34.61,1.27c-5.6,1.75-10.72,4.73-16.1,7.08-11,4.79-23,6.9-34.86,8.2-8,.87-17.87.52-21.91-6.48-3.12-5.39-1.14-12.22,1.38-17.92a111.22,111.22,0,0,1,12.58-21.49c2.26-3,4.73-6,5.84-9.64,2.54-8.28-2.7-16.86-8.36-23.43s-12.3-13.25-13.25-21.87c-.88-8,3.52-15.69,8.51-22.06s10.83-12.31,13.72-19.87Z"></path>
    <path data-name="5" data-official="Hibiscus Rosa-sinensis" data-plain="Chinese Hibiscus" data-loc="China" d="M925.8,2537.69l-6.2,9.3h13.18c2.19,0,5,.44,5.48,2.57.43,1.86-1.3,3.46-2.88,4.54a91.86,91.86,0,0,1-15.58,8.57l-29.7-41.53c.57-3.67,1-7.77,3.75-10.24,2.5-2.21,6.28-2.45,8.81-4.63a10.26,10.26,0,0,1,2.65-2.15,6.12,6.12,0,0,1,2.56-.25l9.62.45c4.47.2,9.94,1.11,11.43,5.33l1.66,5c.52,5.52,1,11.28-1,16.45A35.82,35.82,0,0,1,925.8,2537.69Zm154.45-302.87a23,23,0,0,0-2-2.73c-1.35-1.43-3.27-2.14-5-3a32,32,0,0,1-7.63-5c-2.94-2.57-5.57-5.78-9.28-7a30.2,30.2,0,0,0-4.23-.86l-4.86,23.64a132,132,0,0,0,7.12,15.31c2.73,5.27,5.61,10.72,10.35,14.29a75.83,75.83,0,0,1,6.14-28.47,29.41,29.41,0,0,0,21,17.09l-4.14-18.07A13.56,13.56,0,0,1,1080.25,2234.82Zm-10.76,75.54a21.94,21.94,0,0,1-20.06,12.65,17.11,17.11,0,0,0-3.65.07c-4,.75-6.33,5.1-10.2,6.2-4.88,1.39-9.7-3.14-11.09-8l-2.46,8.26,3.15,1.9c5.66,5.61,14.25,6.77,22.18,7.48a36.6,36.6,0,0,0,9.64,0c3.52-.62,6.77-2.23,10-3.81l11.51-5.72-.74-10.54A27.44,27.44,0,0,0,1069.49,2310.36Zm-43.2,319.45a23.34,23.34,0,0,0-1-5.35c-2.89-11.5-2.73-23.77-7.11-34.78l-.32-4.23c-2.55-2.21-5.18-4.35-7.67-6.59-6.58-5.93-12.68-13.69-12.35-22.54-3.7,6-12.34,7.12-16.74,12.64-1.13,1.42-1.93,3.08-3.13,4.44a40,40,0,0,1-3.11,2.84,19.94,19.94,0,0,0-6.4,13.74l-14.14,13q-9.5,8.46-18.45,17.53c-.74.75-1.72,1.57-2.73,1.26l-4.6,3.77L889,2633c-9.37,1.78-19.09,3.56-28.38,1.38l7.51,9.71c19.77,8.57,39.34,18,56.61,30.92,7.27,5.42,14.24,11.61,18.57,19.58,10.84,19.95,2.48,44.5-6.3,65.44-5.45,13-11.08,26-19.31,37.48-10.46,14.55-24.81,26-34.84,40.88s-15,35.57-4.85,50.35c5.05,7.35,13.07,12.11,21.25,15.65a113,113,0,0,0,49.79,9.14c9-.41,18.66-2.24,25-8.7,7.41-7.6,8.14-19.23,9.37-29.76,6-51.46,33.42-98.53,39.62-150l6.75-42.42-4.69-43.09C1024.69,2636.35,1026.32,2633.12,1026.29,2629.81Zm24.23-252.24a4.18,4.18,0,0,0-2.82-.73,20.29,20.29,0,0,0-4.72.61,10.66,10.66,0,0,1-3.6.59,2.69,2.69,0,0,1-2.54-2.21c-1.72,1.84-3.9,3.21-5.65,5s-3.08,4.38-2.45,6.83l-.72,2.58c6.53,1.57,13.39-.4,19.54-3.08,1.68-.73,3.49-1.69,4.09-3.42a7,7,0,0,0,0-3.21A4.62,4.62,0,0,0,1050.52,2377.57Zm290.27-1917.8a299.64,299.64,0,0,0-34.73,54.61l4.94,5.75,30.35-5.59a40.42,40.42,0,0,0,10.12-2.8,13.52,13.52,0,0,0,7.19-7.3,20.11,20.11,0,0,0,.76-6.92l-.14-20.11a9.49,9.49,0,0,1-5.49,3,93.81,93.81,0,0,1-.65-35.07Q1346.73,452.34,1340.79,459.77ZM1087.62,2167.14a109.34,109.34,0,0,0-18.13-18.42,2.31,2.31,0,0,0-1.24-.63,2.27,2.27,0,0,0-1.22.42,36.82,36.82,0,0,0-12.35,11.78l-15.6,14.64c5-2.11,10.66-3.79,15.72-1.87l5.86,7.63a40.62,40.62,0,0,1,18.84,16.8l3.4-6.35a1.26,1.26,0,0,1,.58-.66,1.33,1.33,0,0,1,1.14.24,48.67,48.67,0,0,0,19.1,5.84l-10.9-17.31C1093,2174.77,1090.36,2170.69,1087.62,2167.14ZM1507,1028c9.06,13.53,16.7,29.72,13.14,45.61a13.18,13.18,0,0,1-2.44,5.66,12.12,12.12,0,0,1-5.11,3.36c-8.57,3.29-18.12,1.38-27.28.77s-19.69.83-25,8.36a80.7,80.7,0,0,1,15.23,24l1.73,31c-3,6.21-10,9.47-13.67,15.29-4.19,6.69-3.14,15.35-5.54,22.88-3.48,10.95-13.71,18.18-23.68,23.89s-20.78,11.11-27.13,20.68c-2.66,4-4.41,8.58-7.25,12.46-5,6.77-12.78,10.75-19.94,15.17-9.94,6.13-19.36,13.81-24.82,24.14-9.91,18.73-5.55,43.45-18.44,60.26l-3.2,10.85c-4.2,1.72-7.88,5.52-8.07,10.06-.16,3.68,1.93,7,3,10.59s1,7.51.9,11.3q-.27,11.75-.83,23.49l-1.78,6.11a174.1,174.1,0,0,0-14.9,11.62c-3.11,2.71-7.15,5.73-10.93,4.09-4-1.74-4.48-7.43-7.74-10.37-2.83-2.56-7.25-2.47-10.82-1.1a6.89,6.89,0,0,0-4.15-5.09,16.15,16.15,0,0,0-6.72-1.14,52.76,52.76,0,0,0-10.26,1,72.92,72.92,0,0,0-6.7-9.47l-10.28-18.31c-15.24-4.49-31.52,3.34-43.64,13.62s-22,23.21-35.3,32c-3,2-6.2,3.75-9,6-3.63,2.86-6.62,6.43-9.87,9.7-9.06,9.14-20.5,16.43-26.41,27.85l-6.22,14.58-16.73-.17c-2.42,1.12-5.16,1.29-7.77,1.83-9.66,2-17.43,9-24.51,15.82q-8,7.77-15.68,15.86c0-25.66,11.35-50.17,12.51-75.81a96.42,96.42,0,0,0-5.13-35.66l-4.7,1.42a63,63,0,0,1-6-6.68,8.9,8.9,0,0,1-1.66-2.91,8.71,8.71,0,0,1-.14-3.14c.83-9.41,4.17-18.79,2.51-28.09l-.83-.11a38.51,38.51,0,0,1,4.49-15.83c1-1.88,2.21-4.09,1.29-6-1.15-2.42-4.56-2.38-7.21-2l-9.69,1.53c-8.24,1.31-16.8,2.59-24.83.33-5.64-1.59-10.66-4.85-15.47-8.2-5.05-3.5-10-7.16-14.92-10.81l-8.51-2.67c-7-1.47-14.47-2.22-21.06.49-5.13,2.11-9.25,6.13-12.64,10.51a62.7,62.7,0,0,0-11.6,24.74l-6.87,11.46c-9.63,9.49-11.55,24.19-11.84,37.71s.38,27.72-5.76,39.76c-5.68,11.13-16.32,18.71-26.57,25.85l-15,10.43a41.55,41.55,0,0,1-8,4.72c-2.16.87-4.46,1.36-6.65,2.15a26.6,26.6,0,0,0-13.05,10.2c-1.36,2-2.5,4.33-4.52,5.71s-4.87,1.64-7.4,2.2a22.63,22.63,0,0,0-8.5,3.86c-1.85,1.35-3.49,3-5.43,4.21-4.35,2.72-9.77,3.09-14.43,5.25s-8.67,7.75-6.16,12.22l-1.87,2.23a11.4,11.4,0,0,1-8.38,3.7c-3.14-.15-6.26-2.41-6.76-5.51s1.56-6.13,1.69-9.31c.18-4-3-7.72-6.79-9.14s-8.06-1-12,0c-7.7,2-14.59,6.3-21.77,9.75s-15.16,6.17-23,4.84c-3.7-.63-7.19-2.14-10.81-3.18a43.62,43.62,0,0,0-19.18-1.09c-4.83.8-9.51,2.43-14.38,3-9.27,1.06-18.48-1.8-27.74-2.9a74,74,0,0,0-22,.69c-5.23,1-10.43,2.48-15.73,2.21-6.91-.35-13.4-3.73-20.31-4-12.69-.53-24.57,9.35-37.07,7.08l-.13,1.51c-3.45,11.53-7.5,23.91-17.3,30.89-2,1.43-4.22,2.59-6.1,4.2-4.73,4-6.82,10.39-7.56,16.56s-.38,12.44-1.23,18.59c-1.26,9.07-5.93,18.42-14.38,22-4.72,2-10.13,2-14.75,4.15-7.57,3.6-11.46,12.31-18.61,16.69-5.82,3.58-13.18,3.9-19,7.45-7.15,4.35-10.71,12.67-16.34,18.86a35.47,35.47,0,0,1-22.05,11.3l-2.63,1.45c-8.85,1-18,3.24-26.47.49-2.64-.85-5.15-2.18-7.88-2.71-10-2-18.75,7-28.74,9-6.9,1.41-14-.57-20.69-2.84A231.27,231.27,0,0,1,276,1677.32c-4.71-2.66-9.4-5.52-14.59-7-17.2-5.07-34.64,5.16-51.38,11.57l-83.12-65.69c-64.39-106-28.07-247.84-80.35-360.3-9.57-20.6-22-40-28.77-61.68-5.7-18.37-7.08-37.88-6-57.09,5.3-92.39,65.9-174.37,73.38-266.61,2.28-28.13-.38-57.16,8.45-84,8.46-25.71,26.87-47.06,47.61-64.45,76.5-64.16,182-79.08,270.91-124.62l39.11-5,60.05-28.12c16.45-7.71,33.65-16,44.22-30.8,6-8.43,9.46-18.41,14.59-27.41a83.61,83.61,0,0,1,62.36-41c11.28-1.26,22.68-.17,34,1.18,10.19,1.22,20.45,2.67,30.09,6.19l6.73,17.86a25.79,25.79,0,0,0,16.39,2.35,44.63,44.63,0,0,0,15.6-6.15l8.8-5.09c6.24-3.41,10.54-9.47,16-14.06,9.69-8.19,22.83-11.46,35.51-11.15s25.06,3.91,37,8.15a343.29,343.29,0,0,1,66,31.68c13.06,8.08,26,17.23,41.06,20.27,2.53.51,5.31.81,7.55-.47s3.34-4.7,1.48-6.48l-6.36-11.66c-6.06-9-13-17.5-18-27.19-2-3.93-3.66-8-6-11.74a69,69,0,0,0-5.31-6.86L894.81,430.3,886.25,417a148.22,148.22,0,0,0-18.93-33.77c-5.67-7.58-12.44-14.87-21.33-18.12a58.81,58.81,0,0,0-11.84-2.56l-20.41-3a137.4,137.4,0,0,0-19.82-1.92L783.63,362c-6.52.23-12.82-2.12-19-4.07-12.7-4-25.82-6.43-38.9-8.87l-8.59-3.4c-6.09-3-13.08-3.31-19.68-4.84-7.89-1.83-15.28-5.41-23-7.74a143.43,143.43,0,0,0-14.91-3.37c-4.11-.77-8.22-1.52-12.25-2.58-12.87-3.4-25.21-10-38.51-9.74l-20.61,11.13c-31.59-2.81-63.37-2.19-95.08-1.56l-233.67,4.59c-19.51.39-39.28.75-58.25-3.83S163.71,313,153.25,296.54c-9-14.21-11.33-32.07-8.17-48.6s11.48-31.76,22.14-44.77c26.71-32.6,67.4-51.29,108.77-59.33s83.92-6.42,126-4.78l187.88,7.33,22.88,4c65-12.23,135.48,20,196.47-5.45,55.16-23,85.13-86.82,140.56-109.17,17.22-7,35.89-9.4,53.71-14.64,15.61-4.59,31.17-11.42,47.4-10.21,16.9,1.26,32.33,11.18,49.27,11.89,19.35.8,37.22-10.47,56.48-12.57,32.13-3.5,60.94,18.46,92.1,27.08,23.23,6.43,47.75,5.35,71.84,6.12a460.42,460.42,0,0,1,113.21,17.92l22.88,8.25c29.81-1.28,59.51,17.13,71.63,44.39a40.65,40.65,0,0,1,3.82,14c1,16.4-12.13,30.08-25.36,39.83-32.43,23.92-70.91,38.13-109.33,50.28-9.45,3-19,5.88-28,9.92-19.22,8.56-36.24,22.43-47.46,40.23s-16.43,39.56-13.24,60.36l4.57,16a50.38,50.38,0,0,1-2.58,25.16l-.61,1.75q-.64,5.91-1.31,11.82a1.37,1.37,0,0,1-.36.95c-.33.27-.83.17-1.26.28-1.16.29-1.28,1.87-1.19,3.06,1.06,14.12-4.29,27.83-9.55,41a56.53,56.53,0,0,0,38-14.22,55.45,55.45,0,0,0,0,10,43.46,43.46,0,0,0,23-7.67,16,16,0,0,0-2.52,6.16,4.49,4.49,0,0,0,.23,2.9,1.87,1.87,0,0,0,2.49.86q-36.54,42.94-69.51,88.78l-14.71,14.51A807.35,807.35,0,0,1,1192.68,575l-6.14,3.4a65,65,0,0,0-27.75,5.71,46.93,46.93,0,0,0-20.94,18.78l-5.07,16.81c-18.29,12.45-25.23,36.49-42,50.86-5.23,4.47-11.26,7.87-17.28,11.19-13.61,7.5-28.17,14.94-43.71,14.45l-.71,1.93c1.6,16.54,6.35,32.59,11.08,48.52,2.07,7,4.14,13.94,6.56,20.79,7.35,20.79,18.79,43.84,32.16,61.37a541.39,541.39,0,0,1,87.55,122.65c1.42-6.79-1.59-13.66-4.67-19.88-8.76-17.78-18.69-35.25-23.52-54.47a70.6,70.6,0,0,1,21.7,29.24c2,5.16,3.46,10.55,5.54,15.69.64,1.58,1.85,3.44,3.53,3.11,1.17-.22,1.83-1.42,2.39-2.46a41.88,41.88,0,0,1,25.36-20.29c.14,6-3.88,11.25-8.23,15.36s-9.33,7.8-12.17,13.07c-3.77,7-3.08,15.45-2.28,23.35a4.93,4.93,0,0,0,.82,2.68c1.61,1.93,4.7.39,6.66-1.17,7.44-5.93,15.45-11.36,24.45-14.46s19.13-3.68,27.92,0c-4.71,1.33-8.39,4.9-12.43,7.66a40.87,40.87,0,0,1-20.61,7,23.7,23.7,0,0,0-6.13.72c-2.88.93-5.13,3.23-6.81,5.74a26,26,0,0,0-3.34,21.31l.1,2.32c9,.12,17.1-5.21,24.14-10.8s14-11.86,22.7-14.22,17.88-.51,26.73,1.13a9.79,9.79,0,0,0,3.65.2,11,11,0,0,0,3.82-2,40.89,40.89,0,0,1,34-5.08c3.92,1.18,7.68,3,11.72,3.6,6.5,1,13.12-1,19.69-.62,13.26.73,23.92,10.63,33.79,19.52a7.21,7.21,0,0,0,2.45,1.65,7.07,7.07,0,0,0,2.47.23l14.4-.3,29.92,5c6,.4,11.18,4.45,17.06,5.86a41.76,41.76,0,0,0,4.34.71l13.21,1.66,21.2-3.16c9.37,2,16,10.08,21.81,17.68C1497,1014,1502.22,1020.82,1507,1028ZM1072.7,626.6a269.9,269.9,0,0,1-12.8,38.87,79,79,0,0,0,41.16-46.88l8.07-17q2.77-4.49,5.56-9l5.26-8.48,7-11.32-33.33-9.38a139,139,0,0,0-7.6,27.9l.82,9.6c1.36,1.56.65,4.1-.79,5.58s-3.42,2.3-5.1,3.51C1075.87,613.74,1074.21,620.48,1072.7,626.6ZM989.22,513.22a231.89,231.89,0,0,0,6.56,28.61l5.32,27.35,2,13.76c.43,2.88,1,6,3,8l1.56,9.77a5.67,5.67,0,0,0,8.92,5.67c6.61,7.28,8,17.75,9.16,27.52,1.33,11.6,2.57,23.82-2.06,34.53a8,8,0,0,0,6.7,3.79c3.06,0,5.89-1.85,7.82-4.23a30.88,30.88,0,0,0,4.28-8.09c9.12-22.3,18.28-44.79,22.76-68.47a50.92,50.92,0,0,1,2.31-9.39c.79-2,1.86-3.84,2.65-5.82,1.48-3.73,1.92-7.78,2.3-11.78q1.92-20.09,2.08-40.29l-18.11-5.84c-17.81-11.66-39.48-19.86-60.26-15.25-2.64.58-5.51,1.58-6.74,4C988.6,508.94,988.88,511.16,989.22,513.22Zm-9.33,238.37c7.36,11.07,14.08,22.63,22.6,32.85s19.11,19.18,31.77,23.24l.45-3.17a609.11,609.11,0,0,1-33-103.44l-23.17,27.1a19.94,19.94,0,0,0-3.84,5.73C972.47,739.89,976.34,746.26,979.89,751.59Zm148.47,210.35-1.7-4.85a159.46,159.46,0,0,0-36.74-67.48c-4.91-5.33-10.17-10.33-15-15.77-10.22-11.62-18.1-25.06-27-37.71a9.56,9.56,0,0,0-2.84-3,9.77,9.77,0,0,0-3.11-.95l-8.62-1.62c-6.23-1.18-13.78-1.91-17.83,3-4.62,5.56-1.44,14.88-6,20.45-2.42,2.94-6.42,4-10.2,4.5-4.38.53-9.23.31-12.61-2.53,2.59,1.65,6.23.35,8.17-2s2.6-5.53,3.2-8.54l2.43-12.13c.67-3.36,1.62-7.12,4.58-8.86l-1.25-1.34c-2.83,1.56-6.44.37-9-1.58s-4.57-4.59-7.2-6.46c-3.28-2.36-7.5-3.46-10.18-6.49a121.17,121.17,0,0,0,30.75-2.45c-15.79-11.92-26.89-28.85-37.66-45.44l-12.93-19.9.25-2.35c-8.45.57-16.09-4.52-23.3-9a213.61,213.61,0,0,0-126.4-31.14l.72,1.58a13.71,13.71,0,0,1,8.16,6.61c.62,1.16,1.15,2.51,2.32,3.13a5.66,5.66,0,0,0,2.75.39,93.12,93.12,0,0,1,12.15.52,8.51,8.51,0,0,1,4.87,1.62c3.37,3,.71,9,3,12.83a19.59,19.59,0,0,0,2.43,17.09A14,14,0,0,1,847,746.2c1.07,4-2.92,8-2.29,12.14s5.07,6,7.84,9c3.07,3.28,4.13,8,4,12.52s-1.44,8.85-2.49,13.22a136.43,136.43,0,0,0-.7,60.38c1.21,5.6,2.87,11.31,6.52,15.72,1.62,2,3.62,3.63,4.76,5.89,2.65,5.2,0,11.41-2.56,16.63s-5.18,11.47-2.47,16.64l.15,2.52c2.29,3.37,1.68,7.93.21,11.72s-3.7,7.32-4.51,11.3c-1.73,8.5,3.22,17.88-.54,25.7-2.24,4.67-7.06,7.46-11.6,10L829.75,977c-4.77,2.63-6.12,3.8-9.22,8.28a17.26,17.26,0,0,0,0,18.49c1.21,1.86-.78,4.21-2.48,5.65s-4,2.07-3.43,4.24c.62,2.64,1.79,5.23,1.57,7.88a13,13,0,0,1-9,11.1c-2.42.72-5,.72-7.4,1.63-5.43,2.11-7.87,8.21-11.22,13s-8,8.49-11.8,12.87-7,9.89-6.53,15.7l-1.93,9c-.07,2.27-.09,4.7,1.19,6.57,2,2.85,6,3.15,9.42,3.16l4.62,3a37.14,37.14,0,0,1,13,17.25c1.1,3,1.38,6.92,4.1,8.61,5.89,3.67,17.14.46,19.86,1.34,15.58,5.07,22.44,12.27,34.43,17.76a122.19,122.19,0,0,1,9.3-44.15c-5.43,3.85-15.23,3-20.8-.63l36.25-91.21c3.85-9.68,10.09-18.89,18.52-25,12.46-9,30.3-6.55,43.52-14.43,5.89-3.51,10.65-9,17.1-11.29,6.7-2.41,14.17-1,21.14-2.54s13-5.66,20-6.11c9.67-.62,18.1,5.91,26.7,10.38a68.67,68.67,0,0,0,48.34,5.53c9.18-2.37,17.84-6.65,27.17-8.33S1122.35,954.6,1128.36,961.94Z"></path>
    <path data-name="6" data-official="Abutilon striatum" data-plain="Striated Abutilon" data-loc="Brazil" d="M979.89,751.59c-3.55-5.33-7.42-11.7-5.19-17.69a19.94,19.94,0,0,1,3.84-5.73l23.17-27.1a609.11,609.11,0,0,0,33,103.44l-.45,3.17c-12.66-4.06-23.26-13-31.77-23.24S987.25,762.66,979.89,751.59Zm80-86.12a79,79,0,0,0,41.16-46.88l8.07-17q2.77-4.49,5.56-9l5.26-8.48,7-11.32-33.33-9.38a139,139,0,0,0-7.6,27.9l.82,9.6c1.36,1.56.65,4.1-.79,5.58s-3.42,2.3-5.1,3.51c-5.11,3.68-6.77,10.42-8.28,16.54A269.9,269.9,0,0,1,1059.9,665.47ZM795.57,456.22c12.69.31,25.06,3.91,37,8.15a343.29,343.29,0,0,1,66,31.68c13.06,8.08,26,17.23,41.06,20.27,2.53.51,5.31.81,7.55-.47s3.34-4.7,1.48-6.48l-6.36-11.66c-6.06-9-13-17.5-18-27.19-2-3.93-3.66-8-6-11.74a69,69,0,0,0-5.31-6.86L894.81,430.3,886.25,417a148.22,148.22,0,0,0-18.93-33.77c-5.67-7.58-12.44-14.87-21.33-18.12a58.81,58.81,0,0,0-11.84-2.56l-20.41-3a137.4,137.4,0,0,0-19.82-1.92L783.63,362c-6.52.23-12.82-2.12-19-4.07-12.7-4-25.82-6.43-38.9-8.87l-8.59-3.4c-6.09-3-13.08-3.31-19.68-4.84-7.89-1.83-15.28-5.41-23-7.74a143.43,143.43,0,0,0-14.91-3.37c-4.11-.77-8.22-1.52-12.25-2.58-12.87-3.4-25.21-10-38.51-9.74l-20.61,11.13,44.43,136.57c11.28-1.26,22.68-.17,34,1.18,10.19,1.22,20.45,2.67,30.09,6.19l6.73,17.86a25.79,25.79,0,0,0,16.39,2.35,44.63,44.63,0,0,0,15.6-6.15l8.8-5.09c6.24-3.41,10.54-9.47,16-14.06C769.75,459.18,782.89,455.91,795.57,456.22Zm200.21,85.61,5.32,27.35,2,13.76c.43,2.88,1,6,3,8l1.56,9.77a5.67,5.67,0,0,0,8.92,5.67c6.61,7.28,8,17.75,9.16,27.52,1.33,11.6,2.57,23.82-2.06,34.53a8,8,0,0,0,6.7,3.79c3.06,0,5.89-1.85,7.82-4.23a30.88,30.88,0,0,0,4.28-8.09c9.12-22.3,18.28-44.79,22.76-68.47a50.92,50.92,0,0,1,2.31-9.39c.79-2,1.86-3.84,2.65-5.82,1.48-3.73,1.92-7.78,2.3-11.78q1.92-20.09,2.08-40.29l-18.11-5.84c-17.81-11.66-39.48-19.86-60.26-15.25-2.64.58-5.51,1.58-6.74,4-.95,1.86-.67,4.08-.33,6.14A231.89,231.89,0,0,0,995.78,541.83Zm94.14,347.78c-4.91-5.33-10.17-10.33-15-15.77-10.22-11.62-18.1-25.06-27-37.71a9.56,9.56,0,0,0-2.84-3,9.77,9.77,0,0,0-3.11-.95l-8.62-1.62c-6.23-1.18-13.78-1.91-17.83,3-4.62,5.56-1.44,14.88-6,20.45-2.42,2.94-6.42,4-10.2,4.5-4.38.53-9.23.31-12.61-2.53,2.59,1.65,6.23.35,8.17-2s2.6-5.53,3.2-8.54l2.43-12.13c.67-3.36,1.62-7.12,4.58-8.86l-1.25-1.34c-2.83,1.56-6.44.37-9-1.58s-4.57-4.59-7.2-6.46c-3.28-2.36-7.5-3.46-10.18-6.49a121.17,121.17,0,0,0,30.75-2.45c-15.79-11.92-26.89-28.85-37.66-45.44l-12.93-19.9.25-2.35c-8.45.57-16.09-4.52-23.3-9a213.61,213.61,0,0,0-126.4-31.14l.72,1.58a13.71,13.71,0,0,1,8.16,6.61c.62,1.16,1.15,2.51,2.32,3.13a5.66,5.66,0,0,0,2.75.39,93.12,93.12,0,0,1,12.15.52,8.51,8.51,0,0,1,4.87,1.62c3.37,3,.71,9,3,12.83a19.59,19.59,0,0,0,2.43,17.09A14,14,0,0,1,847,746.2c1.07,4-2.92,8-2.29,12.14s5.07,6,7.84,9c3.07,3.28,4.13,8,4,12.52s-1.44,8.85-2.49,13.22a136.43,136.43,0,0,0-.7,60.38c1.21,5.6,2.87,11.31,6.52,15.72,1.62,2,3.62,3.63,4.76,5.89,2.65,5.2,0,11.41-2.56,16.63s-5.18,11.47-2.47,16.64l.15,2.52c2.29,3.37,1.68,7.93.21,11.72s-3.7,7.32-4.51,11.3c-1.73,8.5,3.22,17.88-.54,25.7-2.24,4.67-7.06,7.46-11.6,10L829.75,977c-4.77,2.63-6.12,3.8-9.22,8.28a17.26,17.26,0,0,0,0,18.49c1.21,1.86-.78,4.21-2.48,5.65s-4,2.07-3.43,4.24c.62,2.64,1.79,5.23,1.57,7.88a13,13,0,0,1-9,11.1c-2.42.72-5,.72-7.4,1.63-5.43,2.11-7.87,8.21-11.22,13s-8,8.49-11.8,12.87-7,9.89-6.53,15.7l-1.93,9c-.07,2.27-.09,4.7,1.19,6.57,2,2.85,6,3.15,9.42,3.16l4.62,3a37.14,37.14,0,0,1,13,17.25c1.1,3,1.38,6.92,4.1,8.61,5.89,3.67,17.14.46,19.86,1.34,15.58,5.07,22.44,12.27,34.43,17.76a122.19,122.19,0,0,1,9.3-44.15c-5.43,3.85-15.23,3-20.8-.63l36.25-91.21c3.85-9.68,10.09-18.89,18.52-25,12.46-9,30.3-6.55,43.52-14.43,5.89-3.51,10.65-9,17.1-11.29,6.7-2.41,14.17-1,21.14-2.54s13-5.66,20-6.11c9.67-.62,18.1,5.91,26.7,10.38a68.67,68.67,0,0,0,48.34,5.53c9.18-2.37,17.84-6.65,27.17-8.33s20.11-.11,26.12,7.23l-1.7-4.85A159.46,159.46,0,0,0,1089.92,889.61ZM2165.3,1344.94c-19.8,40.28-77.48,53.32-91.69,95.89-6.24,18.67-2.42,39.07,2.12,58.23a847.25,847.25,0,0,0,40.57,126.25c17.27,42.11,38.43,86.26,30.38,131.06-.8,4.44-2,9-4.88,12.46-2.69,3.2-6.58,5.1-10.4,6.8a215.16,215.16,0,0,1-133.7,13.09c-15.17-3.43-30-8.53-45.44-10.42s-32-.22-44.72,8.79l-47.12,4.5a232.67,232.67,0,0,0-128.94-14.36l-11.06-1.14a67.53,67.53,0,0,0-37.19,32.62c-2.43,4.77-4.55,10.15-9.12,13a2.53,2.53,0,0,1-1.39.48,2.91,2.91,0,0,1-1.89-1.22l-11-12.37-3.8-2.23c-14.14-13.57-27.46-28.23-43.67-39.25s-36.13-18.22-55.4-14.63c-7.48,1.4-14.57,4.35-21.71,7,4.56-1.69-7.73,5-41.06,11.6l-6.65,2.28,0,.11a144.49,144.49,0,0,0,3.73-62.51c-1.21-7.38-3-14.76-2.57-22.22s3.55-15.26,10-19.11l.5-11c6.74-6.22,8.06-16.32,7.86-25.49s-1.46-18.65,1.67-27.27a7.1,7.1,0,0,1,2.28-3.53c1.72-1.23,4.06-.93,6.13-.49,14.6,3.18,27.59,11.44,39.39,20.61,4.44,3.45,8.83,7.12,12,11.76,5.42,7.89,7.27,18.41,14.72,24.44,3.55,2.88,8,4.37,12.39,5.71a20.81,20.81,0,0,0,5.92,1.17c5.48,0,10.28-4.19,12.52-9.2s2.42-10.66,2.35-16.14c0-2.63-.19-5.5-1.9-7.5-1.42-1.65-3.85-2.69-4.16-4.84-.44-3,3.84-4.57,6.76-3.65s5.52,3.1,8.58,3.07,5.62-2.24,7-4.89,1.76-5.7,2.12-8.67c.56-4.7,1.12-9.48.34-14.15-1-5.86-4-11.15-7-16.28-4-6.83-8-13.71-13.29-19.55s-12.12-10.63-19.86-12.16l.33-1c6.33-1.75,10.08-8.11,13-14,8.37-16.83,15.49-35.94,10.62-54.09a3.25,3.25,0,0,0-1-1.8,3.36,3.36,0,0,0-1.65-.53l-25.85-3.53a3.73,3.73,0,0,1-2.31-.89c-.9-1-.5-2.53-.07-3.78a80.89,80.89,0,0,0,.27-50.48c-1.18-3.6-2.67-7.22-5.27-10s-6.54-4.53-10.24-3.68c-3,.69-5.45,3-8.44,3.76-4,1.08-8.25-.72-12.42-1.13s-9.45,1.8-9.34,6c-1.94,1.09-3.53-1.92-3.74-4.13q-.83-8.38-1.64-16.76c-.31-3.2-.78-6.71-3.18-8.83s-7.3-1.19-7.44,2q-2.19-4.5-4.39-9c-2.27-4.65-6.06-10.1-11.12-9.06-2.39.49-4.26,2.4-6.6,3.09-1.14.33-2.33.37-3.49.63-3.92.9-6.83,4.4-8.15,8.21s-1.31,7.92-1.28,11.94c.15,17.73.51,35.66-3.33,53-2.67,12-7.37,23.8-7.55,36.13a18.07,18.07,0,0,0-9.57,3.28,71.38,71.38,0,0,0-4.19-28.12,7,7,0,0,0-1.79-3.05c-1.67-1.42-4.35-1-6.07.38a14.44,14.44,0,0,0-3.67,5.42l-6.64,8.17c.15,2.91-2,5.35-4,7.49s-4,4.73-3.64,7.61l-3.91,7.71a26.86,26.86,0,0,1-20.78-9.42c-2.85-3.38-4.84-8.25-2.82-12.18a14.26,14.26,0,0,1,4.51-4.57c9.33-6.92,19-13.82,25.46-23.49,3-4.49,5.33-9.67,9.77-12.73,1.72-1.18,3.68-2,5.41-3.17,6.68-4.56,8.48-13.46,9.73-21.45a18.24,18.24,0,0,0,.15-7.28c-.6-2.38-2.43-4.62-4.86-4.9-.89-.1-1.88,0-2.58-.52a3.52,3.52,0,0,1-1-1.91c-1.77-6.46-7.48-12.5-14.16-11.93a25.26,25.26,0,0,0-13.77-15.18,10.92,10.92,0,0,0-7-1c-2.32.61-4.35,2.8-4.1,5.19a13.67,13.67,0,0,1-3.23-4.38l-6.23-11.37-17.82,4.4c-.62-2-2.91-3.09-5-3.15s-4.16.64-6.24,1c-9.9,1.57-20.11-5-29.73-2.16l-5.94-1.89c-4.54,0-9.21.11-13.41,1.84l3.2-10.85c12.89-16.81,8.53-41.53,18.44-60.26,5.46-10.33,14.88-18,24.82-24.14,7.16-4.42,15-8.4,19.94-15.17,2.84-3.88,4.59-8.45,7.25-12.46,6.35-9.57,17.16-15,27.13-20.68s20.2-12.94,23.68-23.89c2.4-7.53,1.35-16.19,5.54-22.88,3.66-5.82,10.71-9.08,13.67-15.29l-1.73-31a80.7,80.7,0,0,0-15.23-24c5.26-7.53,15.79-9,25-8.36s18.71,2.52,27.28-.77a12.12,12.12,0,0,0,5.11-3.36,13.18,13.18,0,0,0,2.44-5.66c3.56-15.89-4.08-32.08-13.14-45.61-4.79-7.17-10-14-15.29-20.86-5.82-7.6-12.44-15.72-21.81-17.68l-21.2,3.16L1435.5,991a41.76,41.76,0,0,1-4.34-.71c-5.88-1.41-11-5.46-17.06-5.86l-29.92-5-14.4.3a7.07,7.07,0,0,1-2.47-.23,7.21,7.21,0,0,1-2.45-1.65c-9.87-8.89-20.53-18.79-33.79-19.52-6.57-.35-13.19,1.65-19.69.62-4-.64-7.8-2.42-11.72-3.6a40.89,40.89,0,0,0-34,5.08,11,11,0,0,1-3.82,2,9.79,9.79,0,0,1-3.65-.2c-8.85-1.64-18-3.5-26.73-1.13s-15.65,8.62-22.7,14.22-15.14,10.92-24.14,10.8l-.1-2.32a26,26,0,0,1,3.34-21.31c1.68-2.51,3.93-4.81,6.81-5.74a23.7,23.7,0,0,1,6.13-.72,40.87,40.87,0,0,0,20.61-7c4-2.76,7.72-6.33,12.43-7.66-8.79-3.64-18.92-3.05-27.92,0s-17,8.53-24.45,14.46c-2,1.56-5,3.1-6.66,1.17a4.93,4.93,0,0,1-.82-2.68c-.8-7.9-1.49-16.36,2.28-23.35,2.84-5.27,7.83-9,12.17-13.07s8.37-9.37,8.23-15.36a41.88,41.88,0,0,0-25.36,20.29c-.56,1-1.22,2.24-2.39,2.46-1.68.33-2.89-1.53-3.53-3.11-2.08-5.14-3.5-10.53-5.54-15.69a70.6,70.6,0,0,0-21.7-29.24c4.83,19.22,14.76,36.69,23.52,54.47,3.08,6.22,6.09,13.09,4.67,19.88a541.39,541.39,0,0,0-87.55-122.65c-13.37-17.53-24.81-40.58-32.16-61.37-2.42-6.85-4.49-13.82-6.56-20.79-4.73-15.93-9.48-32-11.08-48.52l.71-1.93c15.54.49,30.1-7,43.71-14.45,6-3.32,12-6.72,17.28-11.19,16.81-14.37,23.75-38.41,42-50.86l5.07-16.81a46.93,46.93,0,0,1,20.94-18.78,65,65,0,0,1,27.75-5.71l6.14-3.4a807.35,807.35,0,0,0,80.83-45.13l14.71-14.51q32.94-45.78,69.51-88.78a1.87,1.87,0,0,1-2.49-.86,4.49,4.49,0,0,1-.23-2.9,16,16,0,0,1,2.52-6.16,43.46,43.46,0,0,1-23,7.67,55.45,55.45,0,0,1,0-10,56.53,56.53,0,0,1-38,14.22c5.26-13.14,10.61-26.85,9.55-41-.09-1.19,0-2.77,1.19-3.06.43-.11.93,0,1.26-.28a1.37,1.37,0,0,0,.36-.95q.66-5.91,1.31-11.82l.61-1.75a50.38,50.38,0,0,0,2.58-25.16l-4.57-16c-3.19-20.8,2-42.56,13.24-60.36s28.24-31.67,47.46-40.23l25.74-4.07c91.17-.85,185-43.57,270.49-11.83,40.62,15.08,73.5,45.37,110.94,67.19,53.89,31.39,122.55,50,149.91,106.05,12,24.48,13.78,52.77,24.35,77.88,14.94,35.48,45.93,61.54,77.9,83s66.37,40,93.76,67,47.35,65.27,41,103.23c-3.61,21.53-15.24,40.85-28.09,58.51a400.1,400.1,0,0,1-64.14,69.21C2053,859.74,2033,874,2020,894.14c-31.09,48.05-13.09,111.32,5.82,165.33l-.06,20.87,102.42,136.19c14.13,18.8,28.45,37.92,36.94,59.85S2175.68,1323.84,2165.3,1344.94ZM1359.42,497.52l-.14-20.11a9.49,9.49,0,0,1-5.49,3,93.81,93.81,0,0,1-.65-35.07q-6.41,7-12.35,14.47a299.64,299.64,0,0,0-34.73,54.61l4.94,5.75,30.35-5.59a40.42,40.42,0,0,0,10.12-2.8,13.52,13.52,0,0,0,7.19-7.3A20.11,20.11,0,0,0,1359.42,497.52Z"></path>
    <path data-name="7" data-official="Fruit of Malva sylvestris" data-plain="Common Mallow" data-loc="" d="M857.15,2652.84a29.11,29.11,0,0,1-14.83,8.11c-6.52,1.35-13.27.41-19.92.18s-13.75.38-19.13,4.3c-6.24,4.54-8.84,12.44-13.25,18.78a12.22,12.22,0,0,1-4,3.94,17.71,17.71,0,0,1-5.88,1.46c-8.15,1.22-16.64,5.45-19.54,13.17-2.22,5.91-.7,12.52,1.37,18.48,6.32,18.17,17.86,36,14.9,55-.91,5.86-3.21,11.55-3,17.48.21,6.58,3.56,12.77,8.07,17.57s10.14,8.39,15.8,11.75a44.83,44.83,0,0,0,10.45,4.95c11.5,3.26,23.59-2.33,33.49-9s19.33-14.83,30.95-17.59c11.23-2.66,23.48,0,34.25-4.15l10.83.32c8.23-11.43,13.86-24.49,19.31-37.48,8.78-20.94,17.14-45.49,6.3-65.44-4.33-8-11.3-14.16-18.57-19.58-17.27-12.9-36.84-22.35-56.61-30.92Z"></path>
</svg>
