
<svg xmlns="http://www.w3.org/2000/svg" viewBox="0 0 2103 2682" id="illustration" preserveAspectRatio="xMidYMid meet">
    <title>Byttneriaceæ</title>
    <path data-name="1" data-official="Byttneria catalpæfolia" data-plain="Catalpa-leaved Byttneria" data-loc="Caraccas" d="M1049.75,2324.57c5,68.18,1.67,136.65-1.61,204.93-.86,17.82-1.71,35.65-3.59,53.39-.51,4.84-1.11,9.74-3,14.21-2.73,6.39-7.92,11.39-13.31,15.78-8.58,7-18.16,13-28.75,16.14s-22.31,3.41-32.54-.8c-2.45-1-4.9-2.34-6.42-4.5a16.19,16.19,0,0,1-2.28-6.82,168.24,168.24,0,0,1-2.32-28.52c.08-19.81,3.63-39.41,6.91-59q16.2-96.6,23.53-194.42l1.39-11.72,16.89-9.34a46.91,46.91,0,0,1,7.61-3.62c2.67-.9,5.49-1.31,8.17-2.16,3.57-1.14,6.95-3.06,10.69-3.34,5.29-.39,10.18,2.6,14.66,5.46ZM1440.87,816.05c-37.12-35.35-74.21-71.76-100.35-115.86-14.1-23.8-24.52-54.9-9.41-78.07,14.72-22.56,45.75-26.07,72.65-27.33,58.7-2.75,117.8-5.49,176,2.52,112.73,15.5,229.14,70.42,335,28.77,7.61-3,15.44-6.81,19.82-13.72,5.16-8.13,4.35-18.58,2.8-28.09-9.43-58-38.81-111.06-73.4-158.6-149-204.84-408.78-323.62-661.19-302.34-19.94,1.68-43.45,2.78-56.09-12.73-13.39-16.44-6.17-41.79-15.26-60.95-12-25.34-45.63-29.6-73.65-30.32q-206.77-5.32-413.65-4c-93.17.6-186.91,2.27-278.4,19.87-62.17,12-93.38,31.46-148.19,63.14-32,18.51-65.51,53.63-50.38,87.38,10.37,23.14,38.5,31.55,63.46,36,42.58,7.54,55.86,11.13,99.1,10.72,62.11-.6,124.33-9.42,186.14-3.31s125.68,30,161.64,80.67c19.82,27.92,29.73,62.2,31.08,96.42,2.67,67.33-28.52,135.16-81.37,177L613.9,603.4a286.37,286.37,0,0,0-28.45,14.42c-5.41,3.14-10.77,6.49-15.28,10.83a70.6,70.6,0,0,0-10.67,13.79c-22.67,36.39-29.67,80.72-28.12,123.57.82,22.61,3.93,45.36,12,66.48,2.11,5.5,4.57,10.91,5.79,16.67,2.25,10.63.17,21.65.3,32.52a80,80,0,0,0,7.43,32.62l2.32,14.47c2.8,2.55,7.39,1.88,10.53-.23s5.32-5.35,7.9-8.11a35,35,0,0,1,12.64-8.6,3.7,3.7,0,0,1,2.25-.35,3.77,3.77,0,0,1,2,1.72,57.67,57.67,0,0,1,10,28.08,14.29,14.29,0,0,0,1.08,5.52c.87,1.68,2.82,3,4.63,2.43,1.21-.37,2.42-1.5,3.54-.9a2.69,2.69,0,0,1,1.05,2l1.81,10a3,3,0,0,0,.63,1.62c1.16,1.21,3.16-.14,4.06-1.55,2.86-4.46,3.57-9.94,5.69-14.8a27.48,27.48,0,0,1,13-13.55c-1.26,2.1.3,5.08,2.63,5.81s4.94-.33,6.68-2a20.46,20.46,0,0,0,3.82-6.22l4.1-9c1.45-3.15,3.58-6.79,7-6.88,3.08-.08,5.36,2.74,7.12,5.27,8.23-11.31,23.33-14.72,37.08-17.32-1.76,4.3-3.56,8.65-6.33,12.38-2.34,3.15-5.34,5.79-7.61,9s-3.62,6.58-5.45,9.87a84.48,84.48,0,0,1-7.15,10.4,352.31,352.31,0,0,1-88.33,80.86l.53,2.35a199.39,199.39,0,0,1,10.21,55.69L597,1100.6l-4.37,18.91a195.37,195.37,0,0,0-4.37,23.22c-.77,7.31-.86,15.17-5.12,21.16L580,1175.41a57,57,0,0,0-5,22.4c-.06,3.88.38,8,2.79,11.06,2.58,3.26,6.91,4.59,11,5.06,10.76,1.24,21.47-2.1,31.8-5.4l5.81-3.8c4.81-3.67,6.24-10.14,9-15.49a30.88,30.88,0,0,1,20.27-15.55,22.21,22.21,0,0,0,4.31,6.67,85.41,85.41,0,0,0,7.32-22.46l4.81-4a39.81,39.81,0,0,1,19.48-8.92l4.3-9.89a24.28,24.28,0,0,1,25-7c4.31,1.36,8.12,3.92,11.87,6.44l9,6,.45,8.09c3.91,6.34.87,14.44,0,21.84-.8,7.08.54,14.46-1.7,21.23,5.09.74,11.1,2.21,12.81,7.07,1.19,3.41-.42,7.29-3,9.82l5.74-.31,1.79-.17a58.19,58.19,0,0,1,31.69,7.22,8.15,8.15,0,0,1,3.42,2.93c.72,1.34.54,3.28-.77,4-.31.19-.71.34-.82.69s.34.9.81,1.06c1.87.63,4.12-.55,5.82.46.9.54,1.38,1.56,2.1,2.33,2.9,3.08,8.22,1,12.14,2.6a2.9,2.9,0,0,1,1.34,1c.85,1.3-.21,3-1.38,4-7,6.13-17.73,4.86-26.37,8.34a27.79,27.79,0,0,1,8,5.81,54.62,54.62,0,0,1,5.83,7.76l7.16,10.77c-3.09,5-9.39,6.81-15.11,8.21L781.13,1278l-.87,1c11.09,7.14,24.57,9.22,37.25,12.86,9.16,2.62,18.07,6.13,27.31,8.5,3.78,1,7.66,1.76,11.13,3.56a32.47,32.47,0,0,1,8.43,6.76c-12.19-3.25-25.22-1.21-37.26,2.55l3.61,2c-2.1,2.25-5.5,2.92-8.53,2.38a22.88,22.88,0,0,1-8.34-3.81,56,56,0,0,1-.37,9.6,3,3,0,0,1-3,3.37,110.36,110.36,0,0,1-29.21,1l-7.26.25c-11.07-5.84-23.11-10.23-35.61-11l-1.81,2.92a40,40,0,0,1-1.66,5l-1.18,4.4c4.88.56,9.7,2.21,14.58,1.68,2.56-.27,5.36-1.1,7.55.24a7.33,7.33,0,0,1,2.42,2.89,22.15,22.15,0,0,1,2.53,8.29,39.64,39.64,0,0,0,.66,6.36c.55,2.06,1.94,4.08,4,4.59,3,.75,6.16-2,9.21-1.21,2,.49,3.33,2.34,4.22,4.19s1.53,3.87,2.91,5.39l16.24,9.7c7.35,1.89,15.16,4.13,20,9.93,3.85,4.57,5.27,10.64,6.65,16.45A684.67,684.67,0,0,0,849,1477.92l8,8.71a328.66,328.66,0,0,1,15.1-37.22c5.71-12,12.34-24.46,11-37.63l5.6-16c3.52-8.35,9.47-15.5,16.2-21.57a96.42,96.42,0,0,1,15.4-11.32l7.24-2.72c5-3.28,8.41-8.44,11.84-13.34,19.29-27.49,43.65-51,65.86-76.16a38.84,38.84,0,0,0,6.22-8.57c3.8-7.9,2.8-18.74,10-23.78l7.49-32.7c6.58-15.06,18.39-27.12,30.07-38.7q30.54-30.29,62.16-59.46c9.73-9,19.58-17.92,30.55-25.34,43.23-29.28,98.52-32.2,147.89-49.2,24.53-8.45,48.24-20.59,74.06-23.22,10.94-1.11,22-.47,33-.23a443.82,443.82,0,0,0,83.56-6.16l22.73-5.91c9.28-1.28,18.75-2.56,28-.93,5.36.94,10.49,2.83,15.62,4.64,20.51,7.24,41.63,13.3,63.31,15,14.68,1.12,29.57.21,44,3-7.89-9.22-19.17-14.85-30.56-19.06s-23.23-7.27-34.15-12.58A90.23,90.23,0,0,1,1581.22,976c-4-3.28-7.72-6.9-12-9.88-4.8-3.37-10.15-5.85-15.11-9-15.8-10-26.73-25.88-37-41.47Z"></path>
    <path data-name="1a" data-official="" data-plain="Stamens and Nectaries" data-loc="" d="M214.42,2555.32c-3.93-5.91-13.34-4.08-19.22-8.06-5-3.35-6.29-10-6.86-16-.81-8.52-.86-17.39,2.35-25.34a61.73,61.73,0,0,1,6.88-11.8c3.37-4.87,6.9-9.77,11.69-13.24,8.72-6.28,20.21-6.89,31-6.54,12.91.41,26,1.92,37.89,6.94s22.58,13.94,27.47,25.89,3,27-6.34,35.9c-2.4,2.3-5.21,4.15-7.53,6.53-7.89,8.12-8.65,20.6-8.82,31.92-.16,10.21-.54,21.35-7.19,29.1a33.35,33.35,0,0,1-11.14,7.93c-14.22,6.84-30.46,8.73-46.19,7.49-2.8-.22-5.69-.56-8.08-2-5-3.08-6.12-10.09-4.62-15.77s5-10.6,7.32-16a44.26,44.26,0,0,0,1.88-30.25Z"></path>
    <path data-name="1b" data-official="" data-plain="Pistil" data-loc="" d="M319,2556.5c-.58-7.35-1.08-15.11,2.17-21.73,2.83-5.75,8.17-9.92,11.18-15.57,4.3-8.08,3.26-17.92,5.85-26.69,3.18-10.75,12.56-19.73,23.66-21.32s23.15,5,26.78,15.65-1.09,23,2.9,33.6c1.59,4.24,4.47,7.84,6.69,11.79a41.74,41.74,0,0,1,3.05,33.47c-1.51,4.38-3.76,8.55-4.45,13.13a45.68,45.68,0,0,0,0,9.78,164,164,0,0,1-.13,23.25c-.42,5.55-1.27,11.42-4.82,15.7-4.65,5.62-12.61,7-19.88,7.53a164.81,164.81,0,0,1-27.39-.32c-5.57-.53-11.72-1.7-15.05-6.19-2.93-3.95-2.79-9.37-1.78-14.18s2.78-9.54,2.7-14.45c-.21-12-11.26-22.11-10.22-34Z"></path>
    <path data-name="1c" data-official="" data-plain="Petals" data-loc="" d="M432,2539l-8.92-53.29c-4.9-29.29-9.83-58.69-18.64-87.06-7.89-25.38-19-50.52-18.73-77.09,0-3,.28-6.15,2.22-8.39,1.6-1.86,4.05-2.7,6.39-3.46,22.26-7.24,44.63-14.5,67.75-18.14,13.61-2.14,27.63-3,41.08,0,9.52,2.09,18.51,6,27.43,9.93,8.65,3.79,17.72,7.92,23.22,15.6,8.16,11.41,6,27.35.33,40.19s-14.35,24.27-18.94,37.52c-3,8.59-4.14,17.69-5,26.73a399.5,399.5,0,0,0-1.51,49.41c.73,23.56,2.82,49.6-11.75,68.12-5.56,7.06-13.7,13.59-13.52,22.57.23,11.63,14.31,18.57,16.69,29.95,1.45,6.92-1.93,14.18-7.09,19s-11.89,7.61-18.59,9.86c-15.34,5.16-32.85,7.89-47.23.48a13,13,0,0,1-5.37-4.41c-1.83-2.94-1.54-6.69-1.14-10.13,2-16.75,4.76-35.23-4.64-49.23Z"></path>
    <path data-name="2" data-official="Theobroma Cacao" data-plain="Chocolate Nut Tree" data-loc="South America" d="M1964.93,889c16.58,46.31,19.44,96.27,21,145.43s2,98.89,14.09,146.57c5.87,23.12,14.43,45.46,22.26,68,21.63,62.26,37.8,126.25,54,190.16l7.59,35.34c22.5,76.75,7.6,158.94,12.62,238.76,1,16.52,2.92,33.22,0,49.5-2.92,16.08-10.41,30.91-17.22,45.77a618.23,618.23,0,0,0-38.43,110.19l-4.49,18.82c-21.19,50.73-24.25,112.58,6.63,158,5.87,8.63,12.83,16.53,18,25.6,10.48,18.45,12.74,40.4,12.94,61.62.08,9.15-.21,18.49-3.25,27.12-2.65,7.53-7.26,14.17-11.82,20.72L2030,2271.84c-12.9,18.5-27.84,38.42-49.88,43.18-12.73,2.75-27.71.49-37.2,9.4-6,5.61-7.92,14.15-11.68,21.42-8.15,15.73-24.83,25.26-41.65,30.83-55.83,18.47-122.14-.89-159.25-46.5-4.53-5.56-9.3-11.88-16.33-13.23s-15.26,6.74-11,12.53l-16.74,7.33c-33,60.59-82.29,110.39-130.93,159.32l-69.38,69.78c-16.07,16.16-32.51,32.6-52.87,42.82-28.14,14.14-60.83,15-92.31,15.65-30.59.6-62.25,1-90.36-11.06-45.86-19.65-72.51-68.29-86-116.33s-17.33-98.73-35.15-145.33c-5.37-14-12.44-28.17-24.62-37s-30.65-10.42-41.51,0l-17.36-4.35c-4.48-2.86-9.37-5.85-14.66-5.46-3.74.28-7.12,2.2-10.69,3.34-2.68.85-5.5,1.26-8.17,2.16a46.91,46.91,0,0,0-7.61,3.62l-16.89,9.34-45.06,25.78-26-2a78.09,78.09,0,0,0-12.51-.32,39.79,39.79,0,0,0-24.47,11.16c-1.62,1.58-3.17,3.48-3.29,5.74-.06,1.11.24,2.21.17,3.32-.15,2.2-1.71,4-3.19,5.65L851.07,2411l-96.66,92c-11.81,11.23-23.72,22.55-37.53,31.21-15.15,9.49-32.17,15.52-48,23.75-19.49,10.11-37.16,23.49-56.86,33.18s-42.61,15.55-63.65,9.28a12,12,0,0,1-5.23-2.68c-1.77-1.79-2.36-4.41-2.81-6.89-10.51-58,16.78-115.44,43.65-167.9s54.9-109.29,45.94-167.54c-1.86-12.11-5.45-24.23-12.7-34.1s-18.61-17.24-30.86-17.48l-21,.71c-86.14.59-172.33,1.17-258.37-2.89-24.22-1.15-48.72-2.71-71.83-10.05-19.48-6.19-37.43-16.32-55.23-26.37L41.54,2087.06c-7.09-4-14.33-8.13-19.62-14.33-9.74-11.41-10.84-29.36-2.56-41.88,5.22-7.9,13.35-13.29,21-18.89,23.18-17,43.4-37.66,64-57.71A1747.84,1747.84,0,0,1,442.1,1697.64c23.43-13.66,47.4-26.87,73.33-34.82,41.64-12.76,86.12-11.33,129.64-9.79l16.14,8.15c3.28-1.19,6.95-.42,10.22.8s6.41,2.9,9.84,3.54a34.4,34.4,0,0,0,8.24.22c9.22-.5,19-1.19,26.53-6.52l8.27-1.14c11.53-2,23.27,1.13,35,1.73,9.72.49,20.62-.38,27.9,6.07l4.35,3.57a18.14,18.14,0,0,0,13.18,3.35,15.19,15.19,0,0,0,11.06-7.66c1.26-2.37,1.79-5,2.69-7.57,1.87-5.26,5.29-9.79,7.88-14.74,12.25-23.44,4.5-53.1,14.93-77.41,1.55-3.61,3.48-7,5-10.68a46.81,46.81,0,0,0,3.22-12.93l-3.32-.68c-2.75-15.45,7.6-30.94,5.11-46.43l5.8-8.07a328.66,328.66,0,0,1,15.1-37.22c5.71-12,12.34-24.46,11-37.63l5.6-16c3.52-8.35,9.47-15.5,16.2-21.57a96.42,96.42,0,0,1,15.4-11.32l7.24-2.72c5-3.28,8.41-8.44,11.84-13.34,19.29-27.49,43.65-51,65.86-76.16a38.84,38.84,0,0,0,6.22-8.57c3.8-7.9,2.8-18.74,10-23.78l7.49-32.7c6.58-15.06,18.39-27.12,30.07-38.7q30.54-30.29,62.16-59.46c9.73-9,19.58-17.92,30.55-25.34,43.23-29.28,98.52-32.2,147.89-49.2,24.53-8.45,48.24-20.59,74.06-23.22,10.94-1.11,22-.47,33-.23a443.82,443.82,0,0,0,83.56-6.16l22.73-5.91c9.28-1.28,18.75-2.56,28-.93,5.36.94,10.49,2.83,15.62,4.64,20.51,7.24,41.63,13.3,63.31,15,14.68,1.12,29.57.21,44,3-7.89-9.22-19.17-14.85-30.56-19.06s-23.23-7.27-34.15-12.58A90.23,90.23,0,0,1,1581.22,976c-4-3.28-7.72-6.9-12-9.88-4.8-3.37-10.15-5.85-15.11-9-15.8-10-26.73-25.88-37-41.47l-76.27-99.62c-37.12-35.35-74.21-71.76-100.35-115.86-14.1-23.8-24.52-54.9-9.41-78.07,14.72-22.56,45.75-26.07,72.65-27.33,58.7-2.75,117.8-5.49,176,2.52,112.73,15.5,229.14,70.42,335,28.77Z"></path>
    <path data-name="2a" data-official="" data-plain="Nectaries, Stamens, and a Petal" data-loc="" d="M1592.08,2486.5c-4-5.79,1.72-13.89,8.39-16.11s14-1.1,20.86-2.67c14.11-3.25,23.2-16.93,36-23.68,6-3.16,12.71-4.72,19.13-6.92a100,100,0,0,0,39.25-24.93c5.62-5.81,10.63-12.39,17.45-16.74,6.49-4.13,14.2-5.94,21.85-6.76,15.15-1.64,32.73,1.61,40.78,14.54,4.09,6.56,5,14.69,4.16,22.37-2.77,24.1-21.52,42.89-31.67,64.93-8.1,17.59-11.47,38.57-26.16,51.18-5.21,4.47-12.09,8.35-13.26,15.11-1.57,9.09,8,15.73,12.51,23.79,5.34,9.6,3.08,22-3,31.19s-15.37,15.64-24.7,21.45c-2.69,1.67-5.45,3.35-7.5,5.77a57.85,57.85,0,0,0-4,6.21c-9.42,14.55-29.07,17.92-46.4,18.4q-13,.36-26-.4a17.4,17.4,0,0,1-6.83-1.38c-4.6-2.32-6.29-8.09-6.41-13.24s.83-10.44-.56-15.41c-5.1-18.28-35.26-18.08-42.1-35.79-3.83-9.91,1.56-20.68,4.22-31,5.4-20.85-.35-44.4,9.8-63.39Z"></path>
    <path data-name="2b" data-official="" data-plain="Pistil" data-loc="" d="M1790.5,2498.48c3-6.45,6.24-13,11.39-17.95s12.7-8,19.52-5.92c5.5,1.65,9.69,6.35,12,11.6a57.74,57.74,0,0,1,3.39,12.84c5.35,29.26,10.71,58.73,10.36,88.46,0,2.87-.13,5.83-1.28,8.46a18.43,18.43,0,0,1-5.55,6.62c-14.87,12.13-37.22,14.13-54,4.83a12.87,12.87,0,0,1-4.28-3.38c-2.93-4-1.27-9.49,0-14.26,6.83-25.66-1.48-53.32,4.09-79.28Z"></path>
    <path data-name="2c" data-official="" data-plain="Stamen" data-loc="" d="M1864.51,2493.24a99.85,99.85,0,0,1,24.79-47.41,14.59,14.59,0,0,1,5.37-4.07c2.3-.84,4.83-.56,7.26-.27,8.17,1,17.43,2.59,21.85,9.53a19.93,19.93,0,0,1,2.74,9.19,34,34,0,0,1-2.27,15c-3.73,9.41-11.52,16.77-15.31,26.15s-3.24,20.19-.83,30.11,6.54,19.31,9.75,29c2.26,6.81,4.06,14.27,1.76,21.08-2.36,7-8.77,12-15.75,14.41s-14.52,2.45-21.88,2.12c-4.3-.19-8.76-.56-12.5-2.69-6-3.41-8.85-10.72-9.12-17.63s1.53-13.7,2.61-20.53a98.15,98.15,0,0,0-2.19-40.82Z"></path>
    <path data-name="2d" data-official="" data-plain="Seed" data-loc="" d="M1928.64,2486.56c5.22-9,5.53-19.91,6.17-30.3.92-14.91,2.83-30,8.3-43.85s14.82-26.69,27.86-34,30-8.27,42.74-.44c6.6,4.07,11.72,10.17,15.9,16.7,15.29,23.85,18.84,53.2,20.77,81.47,1.52,22.36,2.27,44.76,3,67.16.25,7.17.44,14.59-2.26,21.24-4,9.92-14.16,17.31-15,28-.65,7.74,3.9,15.56,1.83,23.05s-9.71,11.61-16.89,14.34a127.9,127.9,0,0,1-58.86,7.53,10.23,10.23,0,0,1-5.38-1.67c-2.58-2-2.73-6-1.7-9.08s3-5.9,3.85-9.06c1.69-6-.62-12.47-4.21-17.55s-8.39-9.17-12.55-13.8a69.38,69.38,0,0,1-16.67-34.56c-3.06-18.12,1.19-36.83-1.39-55Z"></path>
    <path data-name="3" data-official="Lasiopetalum grandiflorum" data-plain="Large-flowered Lasiopetalum" data-loc="Australia" d="M543.42,832.49c2.11,5.5,4.57,10.91,5.79,16.67,2.25,10.63.17,21.65.3,32.52a80,80,0,0,0,7.43,32.62l2.32,14.47c2.8,2.55,7.39,1.88,10.53-.23s5.32-5.35,7.9-8.11a35,35,0,0,1,12.64-8.6,3.7,3.7,0,0,1,2.25-.35,3.77,3.77,0,0,1,2,1.72,57.67,57.67,0,0,1,10,28.08,14.29,14.29,0,0,0,1.08,5.52c.87,1.68,2.82,3,4.63,2.43,1.21-.37,2.42-1.5,3.54-.9a2.69,2.69,0,0,1,1.05,2l1.81,10a3,3,0,0,0,.63,1.62c1.16,1.21,3.16-.14,4.06-1.55,2.86-4.46,3.57-9.94,5.69-14.8a27.48,27.48,0,0,1,13-13.55c-1.26,2.1.3,5.08,2.63,5.81s4.94-.33,6.68-2a20.46,20.46,0,0,0,3.82-6.22l4.1-9c1.45-3.15,3.58-6.79,7-6.88,3.08-.08,5.36,2.74,7.12,5.27,8.23-11.31,23.33-14.72,37.08-17.32-1.76,4.3-3.56,8.65-6.33,12.38-2.34,3.15-5.34,5.79-7.61,9s-3.62,6.58-5.45,9.87a84.48,84.48,0,0,1-7.15,10.4,352.31,352.31,0,0,1-88.33,80.86l.53,2.35a199.39,199.39,0,0,1,10.21,55.69L597,1100.6l-4.37,18.91a195.37,195.37,0,0,0-4.37,23.22c-.77,7.31-.86,15.17-5.12,21.16L580,1175.41a57,57,0,0,0-5,22.4c-.06,3.88.38,8,2.79,11.06,2.58,3.26,6.91,4.59,11,5.06,10.76,1.24,21.47-2.1,31.8-5.4l5.81-3.8c4.81-3.67,6.24-10.14,9-15.49a30.88,30.88,0,0,1,20.27-15.55,22.21,22.21,0,0,0,4.31,6.67,85.41,85.41,0,0,0,7.32-22.46l4.81-4a39.81,39.81,0,0,1,19.48-8.92l4.3-9.89a24.28,24.28,0,0,1,25-7c4.31,1.36,8.12,3.92,11.87,6.44l9,6,.45,8.09c3.91,6.34.87,14.44,0,21.84-.8,7.08.54,14.46-1.7,21.23,5.09.74,11.1,2.21,12.81,7.07,1.19,3.41-.42,7.29-3,9.82l5.74-.31,1.79-.17a58.19,58.19,0,0,1,31.69,7.22,8.15,8.15,0,0,1,3.42,2.93c.72,1.34.54,3.28-.77,4-.31.19-.71.34-.82.69s.34.9.81,1.06c1.87.63,4.12-.55,5.82.46.9.54,1.38,1.56,2.1,2.33,2.9,3.08,8.22,1,12.14,2.6a2.9,2.9,0,0,1,1.34,1c.85,1.3-.21,3-1.38,4-7,6.13-17.73,4.86-26.37,8.34a27.79,27.79,0,0,1,8,5.81,54.62,54.62,0,0,1,5.83,7.76l7.16,10.77c-3.09,5-9.39,6.81-15.11,8.21L781.13,1278l-.87,1c11.09,7.14,24.57,9.22,37.25,12.86,9.16,2.62,18.07,6.13,27.31,8.5,3.78,1,7.66,1.76,11.13,3.56a32.47,32.47,0,0,1,8.43,6.76c-12.19-3.25-25.22-1.21-37.26,2.55l3.61,2c-2.1,2.25-5.5,2.92-8.53,2.38a22.88,22.88,0,0,1-8.34-3.81,56,56,0,0,1-.37,9.6,3,3,0,0,1-3,3.37,110.36,110.36,0,0,1-29.21,1l-7.26.25c-11.07-5.84-23.11-10.23-35.61-11l-1.81,2.92a40,40,0,0,1-1.66,5l-1.18,4.4c4.88.56,9.7,2.21,14.58,1.68,2.56-.27,5.36-1.1,7.55.24a7.33,7.33,0,0,1,2.42,2.89,22.15,22.15,0,0,1,2.53,8.29,39.64,39.64,0,0,0,.66,6.36c.55,2.06,1.94,4.08,4,4.59,3,.75,6.16-2,9.21-1.21,2,.49,3.33,2.34,4.22,4.19s1.53,3.87,2.91,5.39l16.24,9.7c7.35,1.89,15.16,4.13,20,9.93,3.85,4.57,5.27,10.64,6.65,16.45A684.67,684.67,0,0,0,849,1477.92l8,8.71-5.8,8.07c2.49,15.49-7.86,31-5.11,46.43l3.32.68a46.81,46.81,0,0,1-3.22,12.93c-1.49,3.64-3.42,7.07-5,10.68-10.43,24.31-2.68,54-14.93,77.41-2.59,5-6,9.48-7.88,14.74-.9,2.53-1.43,5.2-2.69,7.57a15.19,15.19,0,0,1-11.06,7.66,18.14,18.14,0,0,1-13.18-3.35l-4.35-3.57c-7.28-6.45-18.18-5.58-27.9-6.07-11.69-.6-23.43-3.72-35-1.73l-8.27,1.14c-7.54,5.33-17.31,6-26.53,6.52a34.4,34.4,0,0,1-8.24-.22c-3.43-.64-6.57-2.31-9.84-3.54s-6.94-2-10.22-.8L645.07,1653c-43.52-1.54-88-3-129.64,9.79-25.93,8-49.9,21.16-73.33,34.82l-35.49-3.15a101.36,101.36,0,0,0-74.36-36.92c-20.4-.67-41.73,4.79-60.75-2.63-23-9-35.61-35-36.31-59.64s8.17-48.45,16.9-71.52l29.61-78.23c10-26.53,20.19-53.5,22.56-81.78s-4-58.54-23.36-79.29c-7.24-7.76-16.13-14.06-22.12-22.83-12.6-18.48-9.43-43.77-.34-64.21s23.34-38.22,32.82-58.48,13.62-45.22,2.07-64.38c-14.17-23.51-45.93-29.69-64.75-49.68-18.29-19.42-21.3-50.18-11.27-74.9s31.28-43.65,55.13-55.6c12.88-6.45,28-12.41,33.42-25.75,3-7.41,2.37-15.74,3.76-23.61,4.24-24,27.49-40.94,51.39-45.68s48.53.15,72.44,4.84,48.69,9.19,72.42,3.7ZM916.64,2347a78.09,78.09,0,0,0-12.51-.32,39.79,39.79,0,0,0-24.47,11.16c-1.62,1.58-3.17,3.48-3.29,5.74-.06,1.11.24,2.21.17,3.32-.15,2.2-1.71,4-3.19,5.65l3.39,8.24q9.59,70.69,25.25,140.4c1.87,8.28,4.74,17.71,12.59,20.93,4.44,1.82,9.56,1.11,14-.59,14.1-5.33,23.26-19.62,26.48-34.35s1.44-30-.44-45c-2.44-19.4-5.07-38.92-11.22-57.48-5.33-16.1-13.23-31.21-21.08-46.23Z"></path>
</svg>
