
<svg xmlns="http://www.w3.org/2000/svg" viewBox="0 0 2216 2594" id="illustration" preserveAspectRatio="xMidYMid meet">
    <title>Tiliaceæ</title>
    <path data-name="1" data-official="Tilia Europæa" data-plain="European Lime" data-loc="England" d="M1333.32,2551c-4.08,10.34-18.87,10.09-29.37,6.46-22.7-7.85-44.37-23.08-68.24-20.43-9.42,1-18.44,4.91-27.91,5.2-19.6.6-38-16.72-38.53-36.32-.11-3.78.34-7.67-.85-11.25-2.3-6.92-9.75-10.47-16.48-13.27l-37.42-15.57-3.16-22.66A1588.64,1588.64,0,0,1,1101,2232.35l2.12-8.87q-2.35-17.54-4.73-35.07a57.69,57.69,0,0,1-.77-12.16,19.27,19.27,0,0,1,4.25-11.22c3.25-3.74,8.17-5.53,13-6.81a98.79,98.79,0,0,1,11.54-2.37,5.07,5.07,0,0,1,1.82,0,4.69,4.69,0,0,1,1.66.89,43.12,43.12,0,0,1,6.81,6.28c2.26,2.58,4.77,5.71,8.2,5.57l0,1.18a33.53,33.53,0,0,0-11.23,21.59l1,.34c-.58,7.4-1,14.9.36,22.21s4.47,14.5,10,19.44l1-1.16q1.39-3.43,2.81-6.85c1.33-3.25,2.68-6.62,2.56-10.13a49.77,49.77,0,0,0,4.75,16.19,11.27,11.27,0,0,0,4.7-2.76q0,3.74,0,7.47a7.9,7.9,0,0,0,.36,2.83,28.24,28.24,0,0,0,1.66,2.72c1.75,3.26,0,7.59,1.75,10.84l19.26,31.95q5.57,34.37,11.14,68.73c2,12.51,4.08,25.11,8.42,37,8,22,23.43,40.47,38.53,58.42l25.32,30.09c6.34,7.54,12.75,15.14,20.58,21.13,8.58,6.57,18.62,11,27.51,17.15s17,14.75,18.67,25.44A16.56,16.56,0,0,1,1333.32,2551Zm-231.83-480.77c-4.76,2.9-10.52,4.55-16,3.33l-4-46.8a61.65,61.65,0,0,0-5.08-27c-1.23-2.81-2.66-5.52-4.09-8.23q-2.58-4.85-5.15-9.71c-2.25-4.25-4.53-8.55-7.77-12.1s-7.6-6.34-12.39-6.7l-32.7,1a6.65,6.65,0,0,0-3.32,3.29,3.65,3.65,0,0,1-2.38-2,32.25,32.25,0,0,0-6.33,7.06l-2.54-2a90.08,90.08,0,0,1-17,13.33,23.42,23.42,0,0,1-2.38-6c-3.42,2.78-7.53,4.67-10.8,7.64-1.8,1.64-3.3,3.57-5,5.33a54.83,54.83,0,0,1-11.43,8.76c-9.63,5.8-20.35,10.09-31.55,11.11s-22.92-1.45-32-8.07l-24-6.2a1062.35,1062.35,0,0,0-107.33-20.42c-17.5-2.41-36.43-4.11-51.78,4.62-7.38,4.2-13.58,10.67-21.7,13.17l-16.83,2.79-3.74-.75c-2.12-.43-4.32-.89-6-2.23a13.24,13.24,0,0,1-3.44-5.1,130.38,130.38,0,0,1-5.36-13.88l-11.45-20.18c-1.6-15-4.35-31.92-16.9-40.23-7.1-4.71-16-5.59-24.48-6.19-79.22-5.61-160,1.47-237.22-16.89-15.7-3.73-31.17-8.5-47.08-11.2-60.71-10.32-124.22,11-172.43,49.26-16.1,12.79-32.24,28.09-52.69,30.25-3.25.34-6.88.2-9.28-2s-2.81-6-2.91-9.29c-1.13-37.22,11.17-73.36,17.84-110,12.91-71,4.61-143.93-3.72-215.6l7.09-33.34a304.57,304.57,0,0,1,4.91-150.55c2.73-9.35,5.94-18.83,5.36-28.54-1.15-19.39-16.61-34.36-26.49-51.08C75.3,1351.05,71.73,1342,73,1333c1-6.78,4.57-12.85,8.07-18.74,13-21.87,25.51-49.8,12-71.33-5.4-8.57-14.37-14.73-18.45-24-5.28-12-1.06-25.77,1.65-38.6s2.9-28.42-7.41-36.53c-6.71-5.27-16.1-5.77-23.24-10.44-9.94-6.51-13.25-19.3-15.78-30.92-4.47-20.53-9-41.59-6.08-62.41,4.41-31.83,25.23-58.51,39.73-87.19A232.83,232.83,0,0,0,88.23,840l-5.16-38.65c2.28-65.08-34-124.61-49.71-187.81-11.45-46-11.95-94-12.38-141.4q-.69-77.53-1.4-155.08c0-5.61,0-11.53,2.81-16.37,4.43-7.57,14.52-10.08,23.16-8.59s16.37,6.07,24.3,9.8c30.4,14.3,65.21,16.35,98.69,13.63s66.45-10,99.87-13.3c19.31-1.93,39-2.54,57.93,1.82,18.24,4.21,35.12,12.9,51.34,22.26C419,350.19,458.46,380,483.29,420.77l1.29,16.09c-3.79,23.24-13.37,45.08-22.85,66.64-1.76,4-3.55,8-6.29,11.42,2.92.87,11.21,4.35,11.21,4.35s-12.47,15.27-20.36,18.62l13,6.08a46.62,46.62,0,0,1-17.45,17.23,31.14,31.14,0,0,0,10.13,2.89c.51,2.3-1.5,4.32-3.37,5.76a109.32,109.32,0,0,1-52.43,21.76l-1.76,1a302.2,302.2,0,0,1,144.39,33.15c4.44,2.28,9.28,5.26,10.3,10.15l1.5.85c12.62-2.78,25.75-.9,38.55,1l19.53,2.88c5.35.79,10.81,1.62,15.63,4.08a24.35,24.35,0,0,0,5.13,2.38c1.5.36,3.06.29,4.58.54,4.2.69,7.62,3.67,10.7,6.6,3.49,3.33,7,6.93,8.58,11.48,2.17,6.17.53,12.95-1.13,19.28l-1.34.89c4.75,6.93,6.42,15.43,8.61,23.54,5.2,19.28,13.82,37.63,17.37,57.28,1.18,6.55,1.8,13.23,3.68,19.62,1.55,5.26,3.94,10.26,5.33,15.57,1.55,5.9,1.85,12.11,3.76,17.91,2.85,8.67,9.18,16,11.1,25l7,8.15c7.92,38.83,16.07,78.31,34.9,113.19,2.55,4.72,7.82,10.07,12.33,7.15,2.61-1.69,3.06-5.23,3.8-8.25,3.46-13.93,17.92-22.65,32.1-24.86s28.6.53,42.93,1.34c34.7,2,69.91-7.4,104-.62,10.71,2.13,22,6.52,27.47,15.95,7.31,12.51,1.78,28.32-4.11,41.55s-12.1,28.54-5.85,41.61c4.11,8.59,12.8,14,21.62,17.63s18.21,5.83,26.55,10.42c13.77,7.58,24.09,21.27,39.08,26,9.62,3,20,2,30,.89l37.91,21.52a36.17,36.17,0,0,1,30.27,3.38,18.32,18.32,0,0,0,4.22,2.22c1.12.32,2.31.36,3.45.6a10.38,10.38,0,0,1,7.22,5.71l3,5.22c-.79,17.72.54,36,8,52.08,2.29,4.93,5.16,9.66,6.54,14.92,1.61,6.09,1.13,12.52.63,18.8l1.19,22.71c-.45,2.67-.91,5.35-1.37,8a3.07,3.07,0,0,1-.39,1.22,3.16,3.16,0,0,1-.92.78l-8.54,5.55a45.42,45.42,0,0,1,.62,10.35c-.15,2.83-.5,5.93,1.14,8.25,1.39,2,3.91,2.86,5.5,4.68l1.23,2c1.69,4.21-2,8.55-2.72,13-.5,2.88.23,5.8.46,8.71.28,3.47-.15,7-.21,10.44-.15,9.4,2.4,18.61,3.79,27.92,3.17,21.26.28,43-4,64s-10,41.89-12.45,63.25c-.69,5.94-1.14,12-2.64,17.75a77.65,77.65,0,0,1-8.13,18.68l-6.7,10.76a54.21,54.21,0,0,0-9.37,8,52.85,52.85,0,0,0-4.6,6.59l-13,20.68,2.27,18.46q1,37.89.82,75.81l2,11.31a103.63,103.63,0,0,1-1.09,22.88c-.57,3.42-1.36,6.8-1.72,10.24a82,82,0,0,0-.21,10.52q.42,18.33.85,36.66c.06,2.64.42,5.79,2.78,7l-2.22,5.82a164.33,164.33,0,0,1-3.06,36.09,14.15,14.15,0,0,0-9.43-2.72,50.9,50.9,0,0,1,8.44,40.66l.42,8.89q.51,8.58,1,17.15c.46,7.64.93,15.33,2.62,22.79,2.21,9.75,6.47,18.93,9,28.6a21,21,0,0,0,1.68,4.92,6.09,6.09,0,0,0,3.93,3.18l7.85,1.1a192.54,192.54,0,0,1-2.93,103.63l-.29,9c-.72,5.3-1.5,10.75-4.15,15.39a42.22,42.22,0,0,1-6.52,8L1114,2059.32C1110.16,2063.32,1106.24,2067.37,1101.49,2070.27ZM573.07,649.7l1,.53c15.1,8.32,28.76,19.76,45.3,24.65q.35-7.68.7-15.35a3.73,3.73,0,0,0-.18-1.7,3.82,3.82,0,0,0-1.4-1.45,28.12,28.12,0,0,0-6.8-3.86,29.54,29.54,0,0,0-6.68-1.27C594.43,650,583.73,648.84,573.07,649.7ZM456.36,678.76a169.07,169.07,0,0,0,38.71-22.45,68.35,68.35,0,0,1,9.8-6.89,57.25,57.25,0,0,1,9-3.52l25.21-8.21c-1.81-3.64-5.61-5.77-9.23-7.61-40.44-20.55-86.64-31.51-131.57-25.34a4.29,4.29,0,0,0-1.73.51c-1.61,1-1.13,3.46-.5,5.27A98.27,98.27,0,0,1,400.68,654l3.13,5.67a112.84,112.84,0,0,0,42.91,22.21ZM673.54,818.21c-3.34-22.8-6.71-45.75-14.08-67.58-4.48-13.27-10.4-26-16.3-38.7L634.82,694l-1.38-.19c-3.91.79-7.86-.87-11.46-2.58a282.48,282.48,0,0,1-60.28-38.56c-5,2.66-10.92,3-15.77,5.83-10.92,6.35-12.19,22.37-22.1,30.21-4.91,3.88-11.3,5.24-16.89,8a36.14,36.14,0,0,0-19.27,34.88l.84,13c7.57,36.78,21.65,72.17,26.16,110.41,2.57,21.79,4.89,43.84,5.91,65.75a268.61,268.61,0,0,0,4.33,37.08c.73,3.85,1.58,7.79,3.73,11.07s5.87,5.81,9.77,5.43c4.5-.44,7.75-4.37,10.23-8.14,12.23-18.6,18.53-40.9,32.64-58.11C604,880.46,642,871.13,670,848.92l4.37-5C676,835.47,674.79,826.74,673.54,818.21Zm440.35,512A32.15,32.15,0,0,0,1115,1338q1.48,6.39,3,12.78h2.22a31.93,31.93,0,0,1,19.75-8,2.86,2.86,0,0,0,2.26-.76,3.22,3.22,0,0,0,.41-1.75c.23-2.77,1.88-5.18,3.1-7.68s2-5.61.47-8c-3.59,1.2-6.47,3.86-9.52,6.12s-6.67,4.24-10.43,3.75c2.39-12,5.58-24.21,12.55-34.29,1.81-2.61,4-5.28,4.13-8.45a7.68,7.68,0,0,0-5.28-7.56l-4.68,1.74c.14,7.82-6.61,13.74-10.76,20.37-2.77,4.41-4.46,9.39-6.13,14.32A32.22,32.22,0,0,0,1113.89,1330.23Zm-21.84,136q.79,28.48,1.58,57l7,6.14a63.08,63.08,0,0,0,15.85-26.23c-5.29-2.09-6.57-8.86-7-14.53-1.81-21.7-3.21-43.56-1-65.22,1.77-17.19,5.66-35.39-1.45-51.15-5.32,17.33-8.64,35-11.94,52.78a178.52,178.52,0,0,0-3,22.3C1091.7,1453.54,1091.87,1459.87,1092.05,1466.18Zm10.36,493,14.81-34.14q-2.87-10.42-6.68-20.55a81.16,81.16,0,0,1-3.17-9.32c-1.39-5.67-1.37-11.72-3.63-17.11-.93-2.22-2.45-4.44-4.76-5.1l-14.88,23.53a19.34,19.34,0,0,0-.92,8.4C1084.25,1924.25,1092.16,1942.69,1102.41,1959.17Zm45.93,119.68c-3.24.4-5.7,3-7.73,5.59-3.87,4.88-7.32,10.13-11.72,14.53-9,9-21.24,13.85-31.3,21.62l2.56,19.53c7.27-3.95,16.78-1.59,23,3.88a12.53,12.53,0,0,0,2.16,1.7,5.16,5.16,0,0,0,3.13.58,7.34,7.34,0,0,0,4.78-3.32,45.33,45.33,0,0,0,2.75-5.32c2.71-5.41,7-9.84,11.42-14,3.2-3,7-6.11,11.38-5.84l8.89-24.93a102.59,102.59,0,0,0-10-9.89C1155,2080.7,1151.82,2078.42,1148.34,2078.85Z"></path>
    <path data-name="1a" data-official="" data-plain="Capsule" data-loc="" d="M747.86,2384l33.95-4.59c11.78-1.59,24.91-4,31.77-13.68,5.19-7.34,5.33-17.24,3.08-25.94s-6.59-16.71-9.84-25.09c-6-15.33-8.29-32-15.5-46.77s-21.48-28-37.88-26.84c-10.57.77-20.06,7.58-26.05,16.32s-8.91,19.24-10.58,29.71a108.66,108.66,0,0,0-.95,29.91c2.5,21,12.57,40.14,22.47,58.78Z"></path>
    <path data-name="1b" data-official="" data-plain="Cross-section of capsule" data-loc="" d="M690,2341.83a37.1,37.1,0,0,0,6-29.71c-3.06-13.1-12.94-23.37-22.6-32.72a29.13,29.13,0,0,0-6.32-5c-3.24-1.71-7-2.15-10.66-2.32-11.17-.52-22.61,1.22-32.52,6.39s-18.14,14-21.25,24.77c-1.73,6-1.85,12.32-2,18.56-.08,4.3-.07,8.88,2.25,12.5,1.76,2.74,4.63,4.56,6.81,7,8.87,9.81,4.22,25.65,8.92,38,5.31,14,23.34,20.79,37.27,15.38s22.54-21,21.54-35.92Z"></path>
    <path data-name="1c" data-official="" data-plain="Seed" data-loc="" d="M587.59,2349.39c-.65-5,1.73-9.92,3.26-14.77,4.4-14,1-30.69-10-40.28s-29.76-9.88-39.74.84c-6.26,6.72-8.41,16.18-10.32,25.16q-5.78,27.15-11.56,54.29c-1.15,5.4-2.29,11.06-.79,16.37,2.13,7.58,9.23,12.77,16.58,15.57,13.65,5.2,30.13,3.63,41.46-5.59s16.1-26.33,9.6-39.41Z"></path>
    <path data-name="2" data-official="Sparmannia Africana" data-plain="African Sparmannia" data-loc="Cape of Good Hope" d="M990.57,2259.25l3.09-3.92q6.63-8.39,13.45-16.59a51.51,51.51,0,0,1,4.21-4.64c1.45-1.35,3-2.53,4.39-4a43.94,43.94,0,0,0,4.53-6.56,114.31,114.31,0,0,1,7.48-10l6-7.55a19.86,19.86,0,0,1,2.82-3c3.27-2.63,7.82-2.85,11.64-4.58l.92,5.1c-2.82,39,11.57,77.84,7.78,116.75-1,10.41-3.25,21.38.88,31,1.56,3.61,3.93,6.8,5.89,10.22,7.75,13.57,8.44,30,7.36,45.6-.67,9.7-2.26,20.05-8.88,27.16-6,6.46-15,9-23.54,11.26-15.82,4.2-34.4,7.89-47.18-2.34-7.28-5.83-11-15.19-12-24.45s.19-18.61,1.12-27.89a409.83,409.83,0,0,0-1.23-92.75l3.34-8q2.9-7.93,5.57-15.95a11.79,11.79,0,0,0,.8-3.69Zm92.61-354.37a19.34,19.34,0,0,1,.92-8.4L1099,1873c2.31.66,3.83,2.88,4.76,5.1,2.26,5.39,2.24,11.44,3.63,17.11a81.16,81.16,0,0,0,3.17,9.32q3.81,10.11,6.68,20.55l-14.81,34.14C1092.16,1942.69,1084.25,1924.25,1083.18,1904.88Zm-1.63,121.92a61.65,61.65,0,0,0-5.08-27c-1.23-2.81-2.66-5.52-4.09-8.23q-2.58-4.85-5.15-9.71c-2.25-4.25-4.53-8.55-7.77-12.1s-7.6-6.34-12.39-6.7l-8.43,8.79c.12,5.78.18,11.83-2.44,17-1.27,2.5-3.12,4.65-4.53,7.07-2.18,3.76-3.29,8.11-5.78,11.67-1.93,2.77-4.62,5-6.49,7.75-2.86,4.3-3.55,9.64-4.17,14.76l-4.58,16.49c-3.58,14.55-7.17,29.16-8.71,44.06-1,9.94-1.15,20-3,29.8-1.47,7.81-4,15.42-4.92,23.31-.92,8.17-.09,16.7-3.08,24.35-1.68,4.31-4.52,8.15-5.79,12.59-1.22,4.25-.93,8.77-.63,13.19l1.42,6a10.17,10.17,0,0,0,7.37-.62,19.28,19.28,0,0,0,3.91-2.83,214.81,214.81,0,0,0,47.83-59.39c4-7.39,7.66-15.12,9.34-23.37,1-5.16,1.31-10.45,2.21-15.65a66,66,0,0,1,16.87-33.8Zm102.24-357.59-9.09,32.61a123.67,123.67,0,0,1-4.82,14.85A62.11,62.11,0,0,1,1138,1749l-19.55-3.4-2.22,5.82a164.33,164.33,0,0,1-3.06,36.09,14.15,14.15,0,0,0-9.43-2.72,50.9,50.9,0,0,1,8.44,40.66l.42,8.89q.51,8.58,1,17.15c.46,7.64.93,15.33,2.62,22.79,2.21,9.75,6.47,18.93,9,28.6a21,21,0,0,0,1.68,4.92,6.09,6.09,0,0,0,3.93,3.18l7.85,1.1,8.48-3.48a115.17,115.17,0,0,0,28.69-51,49.63,49.63,0,0,1,2.52-8.15,41,41,0,0,1,3.73-6.15l47-68.1c4.42-6.39,8.89-12.9,11.39-20.26,2.14-6.27,2.76-12.94,3.36-19.54,1.37-14.8,2.72-29.74.77-44.47-2.24-16.78-8.76-33.15-7.82-50.06l-3.14-17.07a6.74,6.74,0,0,0-2.55-5,11,11,0,0,0-5.32-2.22c-6.61-1-13.24,2.1-18.41,6.34-2.27,1.87-4.36,4-6.44,6-4.56,4.56-9.27,9.36-11.31,15.48Zm41.36-139.51c-2.74-5-1.13-12.06-5.25-16-2.12-2-5.19-2.58-8-3.38a40.29,40.29,0,0,1-23.48-18,13,13,0,0,1-3.39,3.21c-1.82-2.91-3.85-6-7-7.3s-7.72.25-8.08,3.67l3.11,10c4.91,11.3,3,24.22,3.59,36.53.82,18,7,35.57,6.51,53.58l3,6.48c10.68-7.73,21.39-15.48,30.88-24.63a33.85,33.85,0,0,0,4.27-4.76c4.58-6.54,4.58-15.14,4.41-23.12ZM605.06,651.25a29.54,29.54,0,0,1,6.68,1.27,28.12,28.12,0,0,1,6.8,3.86,3.82,3.82,0,0,1,1.4,1.45,3.73,3.73,0,0,1,.18,1.7q-.36,7.68-.7,15.35c-16.54-4.89-30.2-16.33-45.3-24.65l-1-.53C583.73,648.84,594.43,650,605.06,651.25ZM446.72,681.91a112.84,112.84,0,0,1-42.91-22.21L400.68,654a98.27,98.27,0,0,0-4.62-43.51c-.63-1.81-1.11-4.24.5-5.27a4.29,4.29,0,0,1,1.73-.51c44.93-6.17,91.13,4.79,131.57,25.34,3.62,1.84,7.42,4,9.23,7.61l-25.21,8.21a57.25,57.25,0,0,0-9,3.52,68.35,68.35,0,0,0-9.8,6.89,169.07,169.07,0,0,1-38.71,22.45Zm227.67,162-4.37,5c-28,22.21-66.07,31.54-88.74,59.19-14.11,17.21-20.41,39.51-32.64,58.11-2.48,3.77-5.73,7.7-10.23,8.14-3.9.38-7.63-2.14-9.77-5.43s-3-7.22-3.73-11.07a268.61,268.61,0,0,1-4.33-37.08c-1-21.91-3.34-44-5.91-65.75-4.51-38.24-18.59-73.63-26.16-110.41l-.84-13a36.14,36.14,0,0,1,19.27-34.88c5.59-2.81,12-4.17,16.89-8,9.91-7.84,11.18-23.86,22.1-30.21,4.85-2.83,10.82-3.17,15.77-5.83A282.48,282.48,0,0,0,622,691.21c3.6,1.71,7.55,3.37,11.46,2.58l1.38.19,8.34,17.95c5.9,12.7,11.82,25.43,16.3,38.7,7.37,21.83,10.74,44.78,14.08,67.58C674.79,826.74,676,835.47,674.39,843.93ZM483.29,420.77l1.29,16.09c-3.79,23.24-13.37,45.08-22.85,66.64-1.76,4-3.55,8-6.29,11.42,2.92.87,11.21,4.35,11.21,4.35s-12.47,15.27-20.36,18.62l13,6.08a46.62,46.62,0,0,1-17.45,17.23,31.14,31.14,0,0,0,10.13,2.89c.51,2.3-1.5,4.32-3.37,5.76a109.32,109.32,0,0,1-52.43,21.76l-1.76,1a302.2,302.2,0,0,1,144.39,33.15c4.44,2.28,9.28,5.26,10.3,10.15l1.5.85c12.62-2.78,25.75-.9,38.55,1l19.53,2.88c5.35.79,10.81,1.62,15.63,4.08a24.35,24.35,0,0,0,5.13,2.38c1.5.36,3.06.29,4.58.54,4.2.69,7.62,3.67,10.7,6.6,3.49,3.33,7,6.93,8.58,11.48,2.17,6.17.53,12.95-1.13,19.28l-1.34.89c4.75,6.93,6.42,15.43,8.61,23.54,5.2,19.28,13.82,37.63,17.37,57.28,1.18,6.55,1.8,13.23,3.68,19.62,1.55,5.26,3.94,10.26,5.33,15.57,1.55,5.9,1.85,12.11,3.76,17.91,2.85,8.67,9.18,16,11.1,25l7,8.15c7.92,38.83,16.07,78.31,34.9,113.19,2.55,4.72,7.82,10.07,12.33,7.15,2.61-1.69,3.06-5.23,3.8-8.25,3.46-13.93,17.92-22.65,32.1-24.86s28.6.53,42.93,1.34c34.7,2,69.91-7.4,104-.62,10.71,2.13,22,6.52,27.47,15.95,7.31,12.51,1.78,28.32-4.11,41.55s-12.1,28.54-5.85,41.61c4.11,8.59,12.8,14,21.62,17.63s18.21,5.83,26.55,10.42c13.77,7.58,24.09,21.27,39.08,26,9.62,3,20,2,30,.89l37.91,21.52a36.17,36.17,0,0,1,30.27,3.38,18.32,18.32,0,0,0,4.22,2.22c1.12.32,2.31.36,3.45.6a10.38,10.38,0,0,1,7.22,5.71l2.91-24.58c-3.21-13.45,12.84-27.1,25.59-21.77,5.06,2.11,8.91,6.28,13.3,9.55,13.19,9.84,30.62,11.3,47,12.41,6.14.41,12.44.81,18.32-1,5.39-1.66,10-5.06,14.58-8.43,14.34-10.63,28.92-21.64,46-26.94,9-2.82,18.51-3.94,27.91-5l108.66-12.78,29.8-5.22c.92-3,5-3.19,7.85-4.59,4.15-2.07,5.69-7.19,9.08-10.36,3.91-3.67,10.41-4.91,12.26-9.94,1.45-4-.83-8.22-3-11.82l-3,3.07c-8.15-9.91-9.48-23.58-10.74-36.35a20.61,20.61,0,0,0-1.58-7.1,22.18,22.18,0,0,0-3.52-4.74c-13.29-15.1-23.92-33.73-24.45-53.84a26,26,0,0,0,9.7,3.32c-6.93-5.31-9.6-14.52-10.33-23.22s0-17.56-1.92-26.07a17.38,17.38,0,0,1,10.77,8.56,77.89,77.89,0,0,1,8.11-37l1.38.15a21.72,21.72,0,0,1,5,9.15,44,44,0,0,1,12.7-35.92,23.35,23.35,0,0,0,1.41,10.79,41.64,41.64,0,0,1,25.09-23l.33,7.9c6.94-9.09,14.9-18.84,26.14-20.94a6.2,6.2,0,0,1-.74,4.59c2.78-3.38,5.72-6.78,9.53-8.92,5.16-2.9,11.67-3.38,16-7.4,2.43-2.26,3.87-5.39,6.11-7.84s6-4.17,8.86-2.51l3.06-1a12.76,12.76,0,0,1,9.78-11.09c2-2.13,2.72-5.12,4.39-7.5s5.2-4,7.43-2.17a23.77,23.77,0,0,1,7.85-10.33c-.74-3.58,3.88-6.95,7.07-5.13,1.17.67,2.69,1.81,3.6.81a2.83,2.83,0,0,0,.46-1.72,6.46,6.46,0,0,1,5.88-5.66,49.73,49.73,0,0,1,10.12-13.08,3.14,3.14,0,0,1,.4,3.52,12.42,12.42,0,0,1,8.66-7.46c-.65-3.1,1.24-6.08,2.63-8.93a31.21,31.21,0,0,0-4.56-33.52l-10.07-14.62c-47.1-66.1-140.65-73.61-212.76-110.86-20.51-10.6-41.58-27.13-43.09-50.17-.61-9.3,2.14-18.44,4.63-27.42a531.24,531.24,0,0,0,18.39-171.8c-1.13-19.83-3.47-40-11.52-58.12-7.1-16-18.32-29.78-29.84-43a810.6,810.6,0,0,0-148-132.46c-14-9.71-28.58-19.12-45-23.47-13.81-3.65-28.28-3.56-42.56-3.45l-84.19.64c-17.77.14-35.78.31-52.91,5-32.51,8.93-58.5,33.11-89.18,47.09-35.52,16.19-75.62,18-114.55,21a1617,1617,0,0,0-269.43,43.89c-11.55,2.91-23.95,6.51-31.11,16-6.2,8.23-7.13,19.18-7.54,29.48-.81,20.29-.11,42.06,11.59,58.66,18.09,25.65,57.53,31.87,70.71,60.37,9.69,20.94.29,46.95-16.84,62.41s-40.26,22.35-62.93,26.68Zm1048.15,584.54,44.94-34.93A120.86,120.86,0,0,0,1590.7,958c4.76-5.1,8.6-11,12.4-16.83q7.65-11.74,15.29-23.49c4.59-7,9.37-14.82,8.6-23.2-.72-7.83-6.13-14.28-10.57-20.77-8.85-13-14.53-27.77-20.12-42.43a330.45,330.45,0,0,1-20.37,57,9.53,9.53,0,0,1,6.27-2.67,142.19,142.19,0,0,1-52.76,53c-2.91,1.66-6,3.3-8,6s-2.68,6-3.15,9.28a89.91,89.91,0,0,0,9.62,54.78ZM1746.18,749.1c-11.36,2.4-23.82,5.52-30.39,15.09-2,2.92-3.33,6.28-5.47,9.1-2.78,3.65-6.77,6.15-10.71,8.49a364.61,364.61,0,0,1-46.49,23.35c-10.08,4.19-21.11,8.56-26.59,18a40.54,40.54,0,0,0-3.5,8.73c-2.33,7.74-4,15.88-2.84,23.88a55,55,0,0,0,4.82,14.82,132,132,0,0,0,11.18,19.71,91,91,0,0,0,32.34-38.5c.78-1.77,1.72-3.76,3.56-4.35,2.32-.74,4.78,1.39,5.26,3.78s-.44,4.83-1.46,7a71.1,71.1,0,0,1-13.43,19.69c5.23-.81,9.67-4.35,13.09-8.39s6.09-8.67,9.45-12.76A47.85,47.85,0,0,1,1706.44,842a94.74,94.74,0,0,1,14.07-3.24l33-5.85,6.7-11.17c-2.19-12.26,2.72-24.75,1.88-37.17-.57-8.5-3.79-16.56-7-24.42Zm-236.24,315.24c8.1,8.67,16.52,17.58,27.4,22.3,5.78,2.51,12.59,3.69,18.32,1,6.82-3.15,10.32-10.81,12-18.13,3.59-15.52,1.6-31.71-.39-47.51-.65-5.09-1.31-10.25-3.34-15-1-2.43-3-5-5.66-4.77a7,7,0,0,0-3.44,1.69,280.71,280.71,0,0,0-50.41,48.69ZM1759.43,963.8c3.62-7.72,3.69-16.67,2.37-25.1-3.81-24.28-18.41-45.73-36-62.89-1.4-1.37-2.91-2.76-4.81-3.2s-4.26.49-4.69,2.39a41.13,41.13,0,0,1-15.11-16.26q-18.72,18-38.81,34.62c-1.47,1.22-3.14,2.49-5,2.38s-3.47-1.53-5.31-1.44c-2.51.12-4,2.81-6,4.34-1.43,1.09-3.23,1.62-4.7,2.67-2.75,2-3.92,5.43-5.11,8.61-4,10.53-9.86,20.23-16.52,29.3a309.73,309.73,0,0,1-22.3,26.52,53,53,0,0,0,47.1,3.87c3.92-1.6,9-3.47,11.87-.31a15.75,15.75,0,0,0,1.39,1.65c1.72,1.45,4.47.45,6-1.22s2.35-3.87,3.89-5.52a4.26,4.26,0,0,1,2.89-1.55c.68,0,1.35.22,2,.24,1.64.05,3.05-1.09,4.41-2,7-4.78,16.14-4.74,24.62-4.53,3.71.09,7.52.2,10.93,1.65a19.76,19.76,0,0,0,3.11,1.24,13,13,0,0,0,4,0,57.75,57.75,0,0,1,27,4.32Z"></path>
    <path data-name="3" data-official="Grewia occidentalis" data-plain="Elm-leaved Grewia" data-loc="Cape of Good Hope" d="M1047.07,1963l-8.43,8.79c.12,5.78.18,11.83-2.44,17-1.27,2.5-3.12,4.65-4.53,7.07-2.18,3.76-3.29,8.11-5.78,11.67-1.93,2.77-4.62,5-6.49,7.75-2.86,4.3-3.55,9.64-4.17,14.76l-4.58,16.49c-3.58,14.55-7.17,29.16-8.71,44.06-1,9.94-1.15,20-3,29.8-1.47,7.81-4,15.42-4.92,23.31-.92,8.17-.09,16.7-3.08,24.35-1.68,4.31-4.52,8.15-5.79,12.59-1.22,4.25-.93,8.77-.63,13.19l-7.65-2.84c-9.43-1-17.39-7.5-23.4-14.82-3.49-4.25-6.54-8.86-10.07-13.07-5.4-6.43-12.2-12.44-13.82-20.68-2.66-13.53,9.87-27.18,5.67-40.32-.86-2.69-2.38-5.13-3.36-7.78-3-8-.67-17,1.65-25.23l10.59-37.65,9-32a54.83,54.83,0,0,0,11.43-8.76c1.68-1.76,3.18-3.69,5-5.33,3.27-3,7.38-4.86,10.8-7.64a23.42,23.42,0,0,0,2.38,6,90.08,90.08,0,0,0,17-13.33l2.54,2a32.25,32.25,0,0,1,6.33-7.06,3.65,3.65,0,0,0,2.38,2,6.65,6.65,0,0,1,3.32-3.29Zm62.38-474.51c-1.81-21.7-3.21-43.56-1-65.22,1.77-17.19,5.66-35.39-1.45-51.15-5.32,17.33-8.64,35-11.94,52.78a178.52,178.52,0,0,0-3,22.3c-.37,6.31-.2,12.64,0,19q.79,28.48,1.58,57l7,6.14a63.08,63.08,0,0,0,15.85-26.23C1111.2,1501,1109.92,1494.19,1109.45,1488.52Zm751.26-598.45c-1.45,11.52-6.46,23.2-16.06,29.75-10.58,7.21-24.38,6.92-37.17,6.35-8.28-.37-16.74-.77-24.45-3.82a72.76,72.76,0,0,1-13.21-7.49q-14.82-9.84-29.4-20l-5.64-9.54c-2.87-3.29-5.89-6.45-9-9.48-1.4-1.37-2.91-2.76-4.81-3.2s-4.26.49-4.69,2.39a41.13,41.13,0,0,1-15.11-16.26q-18.72,18-38.81,34.62c-1.47,1.22-3.14,2.49-5,2.38s-3.47-1.53-5.31-1.44c-2.51.12-4,2.81-6,4.34-1.43,1.09-3.23,1.62-4.7,2.67-2.75,2-3.92,5.43-5.11,8.61-4,10.53-9.86,20.23-16.52,29.3a309.73,309.73,0,0,1-22.3,26.52,53,53,0,0,0,47.1,3.87c3.92-1.6,9-3.47,11.87-.31a15.75,15.75,0,0,0,1.39,1.65c1.72,1.45,4.47.45,6-1.22s2.35-3.87,3.89-5.52a4.3,4.3,0,0,1,2.89-1.55c.68,0,1.35.22,2,.24,1.65.05,3.06-1.09,4.42-2,7-4.78,16.14-4.74,24.62-4.53,3.71.09,7.52.2,10.93,1.65a19.76,19.76,0,0,0,3.11,1.24,13,13,0,0,0,4,0,57.75,57.75,0,0,1,27,4.32l12.81.2,18.55,4c23.34,18.47,36,47,47,74.69l-2.28,15.72c.91,6.83-1.38,13.78-5,19.64s-8.53,10.8-13.39,15.68q-3.94,4-7.91,8a3.74,3.74,0,0,1-1.21.93,3.81,3.81,0,0,1-1.78.14c-10.79-1-21.43-5.42-32.15-3.78l-19.38-3.65c-16.68-.8-32-9.1-46-18.33-18.49-12.27-35.62-26.54-54.54-38.14s-40.21-20.57-62.4-20.7l-11.65,4.07c-.65-5.09-1.31-10.25-3.34-15-1-2.43-3-5-5.66-4.77a7,7,0,0,0-3.44,1.69,280.71,280.71,0,0,0-50.41,48.69l5.5,11.64,7.24,9.87,37.21,25c6.54,4.39,13.41,9.17,16.54,16.4s1.94,15.38,1.75,23.21a88.37,88.37,0,0,0,8.4,39.74l4.89,21.54q5.91,13.2,10.66,26.86c1.06,3.07,2.1,6.27,1.7,9.49s-2.28,6.27-4.14,9c-5.76,8.62-12.84,17.66-23,19.65-11.52,2.25-24.23-5.28-34.75-.06-4.91,2.43-9.56,7.57-14.76,5.84l2.83,25.18a33,33,0,0,0,8.15,23.84l5.63,17.56a147.29,147.29,0,0,0,6.48,20.73l6.9,28.44a30.41,30.41,0,0,1-7.29,10.5,17,17,0,0,0-2.6,2.7,16.3,16.3,0,0,0-1.62,3.7c-1.06,2.9-2.52,5.65-3.46,8.59s-1.3,6.22-.16,9.09l1.82,19.83q.47,16.74.94,33.47c.13,4.52.28,9.14,1.9,13.37s4.67,7.8,7.36,11.48c18,24.58,21.46,59,8.83,86.67l-9.69,8.6a39.06,39.06,0,0,1-17,.12,106.77,106.77,0,0,0-4.07,15.55,102.59,102.59,0,0,1-19.41-8.9,29.93,29.93,0,0,1-8.46,3.53,3.22,3.22,0,0,1-1.79.09,4,4,0,0,1-1.81-1.67c-7.87-10.45-26.67-7.46-33.64-18.54a30,30,0,0,0-1.83,10.35c-5.53.14-10.84-2.52-15-6.19s-7.28-8.3-10.36-12.9l-3.72,5.87a2.47,2.47,0,0,1-3.78,1.17,105.37,105.37,0,0,1-29.95-18.53,26.61,26.61,0,0,0-6.27-4.64c-1.68-.78-3.52-1.15-5.26-1.78-9-3.24-14.17-12.79-22.56-17.36-4.4-2.39-9.46-3.29-14-5.51-2.95-1.46-5.62-3.47-8.71-4.57s-6.9-1.11-9.29,1.15l-7.37,1.54c-3,1.56-6.42,1.7-9.71,2.34-10.11,2-18.57,8.61-26.6,15.06-2.35,1.89-4.76,3.85-6.3,6.45l-19.29,14.28c-3-.15-5.87,1.25-8.5,2.73a109.51,109.51,0,0,0-13.65,9l-1.61,9.51q8.57-.88,17.13-1.83l10-6.39c4.41.53,8.81-1,12.79-2.91s7.73-4.41,11.85-6c3.21-1.26,7.11-2.49,8.07-5.8l4.79-3.62L1317,1565a32.67,32.67,0,0,0,4.75-.63c1.72-.41,3.41-1.1,5.17-1l6.76-1.36a20.94,20.94,0,0,1,13.61,3.05,28.25,28.25,0,0,0,4.64,2.81,16.63,16.63,0,0,0,5.84.77l16.48.21a9,9,0,0,1,3.57.54c2.24,1,3.94,3.88,6.32,3.29,1.1-.28,1.88-1.26,3-1.62,2.1-.71,4.15,1.18,5.4,3s2.6,4,4.81,4.3c1.28.14,2.62-.43,3.84,0,1.61.59,2.1,2.57,3,4,2.13,3.32,7.68,3.59,10.12.49a84.2,84.2,0,0,1,26.69,73.27c-1.08,7.56-3.21,15.21-1.77,22.71l6.88,22.22c-.28,6.37-1.54,14.15-7.54,16.31a16.24,16.24,0,0,1-6.18.54c-12.73-.51-26.73-1.55-35.76-10.53-3.26-3.25-5.58-7.29-8.33-11-7-9.34-17.21-17.1-19.68-28.51l-2-9.38c-5-5.77-10.74-11.92-18.32-12.76-3.38-.37-6.79.38-10.18.28a41.24,41.24,0,0,1-7.94-1.3L1320,1642.5l-10.78.66a33.5,33.5,0,0,1-13.47-1.77l-7.32-6.38-4.56-5a23.91,23.91,0,0,0-3.1-3c-1.06-.82-2.25-1.46-3.34-2.25-1.78-1.31-3.24-3-4.93-4.42a41.89,41.89,0,0,0-5.1-3.51l-6-3.69-7.32-6.81a11.14,11.14,0,0,0-4.95,1l-9.07,3.35-8.93,8.17a11,11,0,0,0-5.32-2.22c-6.61-1-13.24,2.1-18.41,6.34-2.27,1.87-4.36,4-6.44,6-4.56,4.56-9.27,9.36-11.31,15.48l-5.89,24.77-9.09,32.61a123.67,123.67,0,0,1-4.82,14.85A62.11,62.11,0,0,1,1138,1749l-19.55-3.4c-2.36-1.19-2.72-4.34-2.78-7q-.44-18.33-.85-36.66a82,82,0,0,1,.21-10.52c.36-3.44,1.15-6.82,1.72-10.24a103.63,103.63,0,0,0,1.09-22.88l-2-11.31q.23-37.9-.82-75.81l-2.27-18.46,13-20.68a52.85,52.85,0,0,1,4.6-6.59,54.21,54.21,0,0,1,9.37-8l6.7-10.76a77.65,77.65,0,0,0,8.13-18.68l15.48,3.85,3.11,10c4.91,11.3,3,24.22,3.59,36.53.82,18,7,35.57,6.51,53.58l3,6.48c10.68-7.73,21.39-15.48,30.88-24.63a33.85,33.85,0,0,0,4.27-4.76c4.58-6.54,4.58-15.14,4.41-23.12l-.5-16.25,18.47,20.12a124,124,0,0,1,18.71-12l-4-71-3.66-9.69-1.26-3.32c-1.8-4.79-3.63-9.65-4.12-14.75-.22-2.31-.16-4.64-.48-6.94-.48-3.49-1.83-6.81-2.48-10.28a67.84,67.84,0,0,1-.76-8.79,107.57,107.57,0,0,0-6.46-31l-22.48-30.59-13.47-6.65c-3-1.47-6.08-3-9.4-3-3-.07-5.83,1-8.77.94-2,0-4.2-.59-6,.27-1.69.78-2.67,2.55-3.53,4.2l-1.21,1.39,0,.33q-.29-2.94-.72-5.86c-1.39-9.31-3.94-18.52-3.79-27.92.06-3.48.49-7,.21-10.44-.23-2.91-1-5.83-.46-8.71.77-4.46,4.41-8.8,2.72-13l-1.23-2c-1.59-1.82-4.11-2.7-5.5-4.68-1.64-2.32-1.29-5.42-1.14-8.25a45.42,45.42,0,0,0-.62-10.35l8.54-5.55a3.16,3.16,0,0,0,.92-.78,3.07,3.07,0,0,0,.39-1.22c.46-2.67.92-5.35,1.37-8l-1.19-22.71c.5-6.28,1-12.71-.63-18.8-1.38-5.26-4.25-10-6.54-14.92-7.47-16.09-8.8-34.36-8-52.08l-3-5.22,2.91-24.58c-3.21-13.45,12.84-27.1,25.59-21.77,5.06,2.11,8.91,6.28,13.3,9.55,13.19,9.84,30.62,11.3,47,12.41,6.14.41,12.44.81,18.32-1,5.39-1.66,10-5.06,14.58-8.43,14.34-10.63,28.92-21.64,46-26.94,9-2.82,18.51-3.94,27.91-5l108.66-12.78,29.8-5.22c.92-3,5-3.19,7.85-4.59,4.15-2.07,5.69-7.19,9.08-10.36,3.91-3.67,10.41-4.91,12.26-9.94,1.45-4-.83-8.22-3-11.82q-1.5,1.54-3,3.07c-8.15-9.91-9.48-23.58-10.74-36.35a20.61,20.61,0,0,0-1.58-7.1,22.18,22.18,0,0,0-3.52-4.74c-13.29-15.1-23.92-33.73-24.45-53.84a26,26,0,0,0,9.7,3.32c-6.93-5.31-9.6-14.52-10.33-23.22s0-17.56-1.92-26.07a17.38,17.38,0,0,1,10.77,8.56,77.89,77.89,0,0,1,8.11-37l1.38.15a21.72,21.72,0,0,1,5,9.15,44,44,0,0,1,12.7-35.92,23.35,23.35,0,0,0,1.41,10.79,41.64,41.64,0,0,1,25.09-23l.33,7.9c6.94-9.09,14.9-18.84,26.14-20.94a6.2,6.2,0,0,1-.74,4.59c2.78-3.38,5.72-6.78,9.53-8.92,5.16-2.9,11.67-3.38,16-7.4,2.43-2.26,3.87-5.39,6.11-7.84s6-4.17,8.86-2.51l3.06-1a12.77,12.77,0,0,1,9.78-11.09c2-2.13,2.72-5.12,4.39-7.5s5.2-4,7.43-2.17a23.77,23.77,0,0,1,7.85-10.33c-.74-3.58,3.88-6.95,7.07-5.13,1.17.67,2.69,1.81,3.6.81a2.83,2.83,0,0,0,.46-1.72,6.46,6.46,0,0,1,5.88-5.66,49.73,49.73,0,0,1,10.12-13.08,3.14,3.14,0,0,1,.4,3.52,12.42,12.42,0,0,1,8.66-7.46c-.65-3.1,1.24-6.08,2.63-8.93a31.21,31.21,0,0,0-4.56-33.52l23.21,4.79a24.23,24.23,0,0,0,19.93-5.56c4.48-3.93,7.38-9.44,11.94-13.28,6-5.08,14.2-6.65,22-7.65,6.71-.87,13.58-1.44,20.18,0s13,5.31,16,11.33c2.83,5.55,2.55,12.14,1.82,18.32a151.46,151.46,0,0,1-26.48,69.11l-9.89,14.74c-11.36,2.4-23.82,5.52-30.39,15.09-2,2.92-3.33,6.28-5.47,9.1-2.78,3.65-6.77,6.15-10.71,8.49a364.61,364.61,0,0,1-46.49,23.35c-10.08,4.19-21.11,8.56-26.59,18a40.54,40.54,0,0,0-3.5,8.73c-2.33,7.74-4,15.88-2.84,23.88a55,55,0,0,0,4.82,14.82,132,132,0,0,0,11.18,19.71,91,91,0,0,0,32.34-38.5c.78-1.77,1.72-3.76,3.56-4.35,2.32-.74,4.78,1.39,5.26,3.78s-.44,4.83-1.46,7a71.1,71.1,0,0,1-13.43,19.69c5.23-.81,9.67-4.35,13.09-8.39s6.09-8.67,9.45-12.76A47.85,47.85,0,0,1,1706.44,842a94.74,94.74,0,0,1,14.07-3.24l33-5.85,6.7-11.17,12.63-1.72a65.85,65.85,0,0,1,87.87,70.1ZM1627,894.47c-.72-7.83-6.13-14.28-10.57-20.77-8.85-13-14.53-27.77-20.12-42.43a330.45,330.45,0,0,1-20.37,57,9.53,9.53,0,0,1,6.27-2.67,142.19,142.19,0,0,1-52.76,53c-2.91,1.66-6,3.3-8,6s-2.68,6-3.15,9.28a89.91,89.91,0,0,0,9.62,54.78l3.49-3.39,44.94-34.93A120.86,120.86,0,0,0,1590.7,958c4.76-5.1,8.6-11,12.4-16.83q7.65-11.74,15.29-23.49C1623,910.62,1627.76,902.85,1627,894.47Zm-509,456.32h2.22a31.93,31.93,0,0,1,19.75-8,2.86,2.86,0,0,0,2.26-.76,3.22,3.22,0,0,0,.41-1.75c.23-2.77,1.88-5.18,3.1-7.68s2-5.61.47-8c-3.59,1.2-6.47,3.86-9.52,6.12s-6.67,4.24-10.43,3.75c2.39-12,5.58-24.21,12.55-34.29,1.81-2.61,4-5.28,4.13-8.45a7.68,7.68,0,0,0-5.28-7.56l-4.68,1.74c.14,7.82-6.61,13.74-10.76,20.37-2.77,4.41-4.46,9.39-6.13,14.32a24.17,24.17,0,0,0-1,17.41Q1116.51,1344.4,1118,1350.79Z"></path>
    <path data-name="4" data-official="Elæocarpus cyaneus" data-plain="Blue-fruited Elæocarpus" data-loc="New Holland" d="M2172.2,1619.76c-7.92-25.72-17.88-52.22-38.14-69.92-12.42-10.85-29.58-20.09-31.33-36.49-1.63-15.23,11.28-27.75,23.42-37.09a555.06,555.06,0,0,1,49.28-33.89l13.26-48.36a945.66,945.66,0,0,0,1.16-123.13c-.29-5.21-.78-10.81-4.16-14.78-5.41-6.33-15.27-5.53-23.45-4-40.65,7.64-83.59,19.87-122.19,5-11.27-4.33-22.2-11.47-27.3-22.41-2.66-5.71-3.56-12-4.3-18.3-8.31-70.19-.36-142.59-19-210.78a134,134,0,0,0-6.5-19,176.83,176.83,0,0,0-11.36-20.51q-17.41-28.38-34.82-56.77c-3.12-5.07-6.42-10.34-11.52-13.43-12.73-7.71-29.23,1.94-38.35,13.71-10.56,13.6-16.74,30.29-19.31,47.32-1.9,12.52-1.94,25.38-5.37,37.56s-11.16,24.15-23.14,28.23L1825,1042.51l-2.28,15.72c.91,6.83-1.38,13.78-5,19.64s-8.53,10.8-13.39,15.68q-3.94,4-7.91,8a3.74,3.74,0,0,1-1.21.93,3.81,3.81,0,0,1-1.78.14c-10.79-1-21.43-5.42-32.15-3.78l-48,16.57c-17.32,0-32.07,11.88-45.24,23.12-5,4.26-10,8.52-14.61,13.15-3.25,3.26-6.33,6.69-9.4,10.12l-38.64,43.13-8.67,22c1.06,3.07,2.1,6.27,1.7,9.49s-2.28,6.27-4.14,9c-5.76,8.62-12.84,17.66-23,19.65-11.52,2.25-24.23-5.28-34.75-.06-4.91,2.43-9.56,7.57-14.76,5.84l2.83,25.18a33,33,0,0,0,8.15,23.84l5.63,17.56a147.29,147.29,0,0,0,6.48,20.73l6.9,28.44a30.41,30.41,0,0,1-7.29,10.5,17,17,0,0,0-2.6,2.7,16.3,16.3,0,0,0-1.62,3.7c-1.06,2.9-2.52,5.65-3.46,8.59s-1.3,6.22-.16,9.09l1.82,19.83q.47,16.74.94,33.47c.13,4.52.28,9.14,1.9,13.37s4.67,7.8,7.36,11.48c18,24.58,21.46,59,8.83,86.67l-9.69,8.6a39.06,39.06,0,0,1-17,.12,106.77,106.77,0,0,0-4.07,15.55,102.59,102.59,0,0,1-19.41-8.9,29.93,29.93,0,0,1-8.46,3.53,3.22,3.22,0,0,1-1.79.09,4,4,0,0,1-1.81-1.67c-7.87-10.45-26.67-7.46-33.64-18.54a30,30,0,0,0-1.83,10.35c-5.53.14-10.84-2.52-15-6.19s-7.28-8.3-10.36-12.9l-3.72,5.87a2.47,2.47,0,0,1-3.78,1.17,105.37,105.37,0,0,1-29.95-18.53,26.61,26.61,0,0,0-6.27-4.64c-1.68-.78-3.52-1.15-5.26-1.78-9-3.24-14.17-12.79-22.56-17.36-4.4-2.39-9.46-3.29-14-5.51-2.95-1.46-5.62-3.47-8.71-4.57s-6.9-1.11-9.29,1.15l-7.37,1.54c-3,1.56-6.42,1.7-9.71,2.34-10.11,2-18.57,8.61-26.6,15.06-2.35,1.89-4.76,3.85-6.3,6.45l-19.29,14.28c-3-.15-5.87,1.25-8.5,2.73a109.51,109.51,0,0,0-13.65,9l-1.61,9.51q8.57-.88,17.13-1.83l10-6.39c4.41.53,8.81-1,12.79-2.91s7.73-4.41,11.85-6c3.21-1.26,7.11-2.49,8.07-5.8l4.79-3.62L1317,1565a32.67,32.67,0,0,0,4.75-.63c1.72-.41,3.41-1.1,5.17-1l6.76-1.36a20.94,20.94,0,0,1,13.61,3.05,28.25,28.25,0,0,0,4.64,2.81,16.63,16.63,0,0,0,5.84.77l16.48.21a9,9,0,0,1,3.57.54c2.24,1,3.94,3.88,6.32,3.29,1.1-.28,1.88-1.26,3-1.62,2.1-.71,4.15,1.18,5.4,3s2.6,4,4.81,4.3c1.28.14,2.62-.43,3.84,0,1.61.59,2.1,2.57,3,4,2.13,3.32,7.68,3.59,10.12.49a84.2,84.2,0,0,1,26.69,73.27c-1.08,7.56-3.21,15.21-1.77,22.71l6.88,22.22c-.28,6.37-1.54,14.15-7.54,16.31a16.24,16.24,0,0,1-6.18.54c-12.73-.51-26.73-1.55-35.76-10.53-3.26-3.25-5.58-7.29-8.33-11-7-9.34-17.21-17.1-19.68-28.51l-2-9.38c-5-5.77-10.74-11.92-18.32-12.76-3.38-.37-6.79.38-10.18.28a41.24,41.24,0,0,1-7.94-1.3L1320,1642.5l-10.78.66a33.5,33.5,0,0,1-13.47-1.77l-7.32-6.38-4.56-5a23.91,23.91,0,0,0-3.1-3c-1.06-.82-2.25-1.46-3.34-2.25-1.78-1.31-3.24-3-4.93-4.42a41.89,41.89,0,0,0-5.1-3.51l-6-3.69-7.32-6.81a11.14,11.14,0,0,0-4.95,1l-9.07,3.35-8.93,8.17a6.74,6.74,0,0,1,2.55,5l3.14,17.07c-.94,16.91,5.58,33.28,7.82,50.06,1.95,14.73.6,29.67-.77,44.47-.6,6.6-1.22,13.27-3.36,19.54-2.5,7.36-7,13.87-11.39,20.26l-47,68.1a41,41,0,0,0-3.73,6.15,49.63,49.63,0,0,0-2.52,8.15,115.17,115.17,0,0,1-28.69,51l-8.48,3.48a192.54,192.54,0,0,1-2.93,103.63l-.29,9c-.72,5.3-1.5,10.75-4.15,15.39a42.22,42.22,0,0,1-6.52,8L1114,2059.32c-3.87,4-7.79,8-12.54,10.95s-10.52,4.55-16,3.33l-12.07-9.37a66,66,0,0,0-16.87,33.8c-.9,5.2-1.17,10.49-2.21,15.65-1.68,8.25-5.31,16-9.34,23.37a214.81,214.81,0,0,1-47.83,59.39,19.28,19.28,0,0,1-3.91,2.83,10.17,10.17,0,0,1-7.37.62l-1.42-6-7.65-2.84c-9.43-1-17.39-7.5-23.4-14.82-3.49-4.25-6.54-8.86-10.07-13.07-5.4-6.43-12.2-12.44-13.82-20.68-2.66-13.53,9.87-27.18,5.67-40.32-.86-2.69-2.38-5.13-3.36-7.78l-12.58-5c2.11-10.3-3.93-20.8-12-27.49s-18.14-10.52-27.55-15.22a155.37,155.37,0,0,1-20.18-12.08c-3.48-2.46-6.93-5.1-10.95-6.54-5.06-1.81-10.59-1.56-16-1.6a142.68,142.68,0,0,1-76.45-23c-10.18-6.63-20-14.78-31.93-17l-17.77-5.91c-7.38,4.2-13.58,10.67-21.7,13.17l-16.83,2.79-3.74-.75c-2.12-.43-4.32-.89-6-2.23a13.24,13.24,0,0,1-3.44-5.1,130.38,130.38,0,0,1-5.36-13.88L598.13,1982c-21.46-6.8-44.79-4.88-66.72.16s-43.09,13.08-64.92,18.57c-24,6-48.81,9-71.91,17.74-38,14.47-68.49,43.6-104,63.4-15.89,8.85-33.27,16.17-45.47,29.66s-17.27,35.87-5.33,49.6c5.09,5.86,12.39,9.23,19.45,12.44,21.22,9.63,43.62,19.48,66.84,17.49l26.23-3.65L472,2213.7c15.25,3.35,30.54,6.7,46.08,8.11,17.43,1.58,35,.71,52.46-.17L796,2210.32c17.53-.88,35.51-1.7,52.25,3.59s32.27,18.06,35.69,35.28c4.74,23.8-13.79,45.09-28.8,64.16-16.79,21.33-30.6,44.82-44.35,68.22l-38.87,66.14c-5.23,8.9-10.49,17.88-13.87,27.63a78.86,78.86,0,0,0-3.36,37.94c1.14,7.17,3.48,14.52,8.75,19.53,9.05,8.61,23.29,7.63,35.69,6.09,18.72-2.34,41-7.45,47.15-25.3,3.14-9.19.85-19.63,4.31-28.71,2.33-6.11,7-11,11.5-15.73a492.38,492.38,0,0,0,79-111.88c7.06-13.73,13.76-28.16,25.18-38.54l13-20.75,3.34-8q2.9-7.93,5.57-15.95a11.79,11.79,0,0,0,.8-3.69l1.55-11.1,3.09-3.92q6.63-8.39,13.45-16.59a51.51,51.51,0,0,1,4.21-4.64c1.45-1.35,3-2.53,4.39-4a43.94,43.94,0,0,0,4.53-6.56,114.31,114.31,0,0,1,7.48-10q3-3.78,6-7.55a19.86,19.86,0,0,1,2.82-3c3.27-2.63,7.82-2.85,11.64-4.58l49.34-22.09a19.27,19.27,0,0,1,4.25-11.22c3.25-3.74,8.17-5.53,13-6.81a98.79,98.79,0,0,1,11.54-2.37,5.07,5.07,0,0,1,1.82,0,4.69,4.69,0,0,1,1.66.89,43.12,43.12,0,0,1,6.81,6.28c2.26,2.58,4.77,5.71,8.2,5.57l0,1.18a33.53,33.53,0,0,0-11.23,21.59l1,.34c-.58,7.4-1,14.9.36,22.21s4.47,14.5,10,19.44l1-1.16q1.39-3.43,2.81-6.85c1.33-3.25,2.68-6.62,2.56-10.13a49.77,49.77,0,0,0,4.75,16.19,11.27,11.27,0,0,0,4.7-2.76q0,3.74,0,7.47a7.9,7.9,0,0,0,.36,2.83,28.24,28.24,0,0,0,1.66,2.72c1.75,3.26,0,7.59,1.75,10.84l37.29,22.57c20.85,5.68,41.78,11.37,63.21,14.14,19.84,2.57,39.93,2.61,59.94,2.29,19.56-.31,39.21-1,58.49-4.31,7.55-1.31,15.1-3.06,22-6.4,3-1.43,5.77-3.14,8.77-4.46,6.23-2.73,13.06-3.7,19.8-4.64l15.23-2.12c19.46-2.71,39.27-5.43,58.68-2.34l19.69-8.48c46.79-11,89.35,25.9,131.37,49.26,16.24,9,33.42,16.22,50,24.67,53.83,27.51,100.1,67.87,153,97.1,32.69,18.06,75.2,31.09,105.6,9.4,26.52-18.93,31.63-55.88,31.7-88.46s-1.78-68,17.1-94.51c5.07-7.14,11.5-13.34,15.73-21,5.42-9.8,6.86-21.25,7.71-32.41,2.16-28.25,1.19-56.86,6.72-84.64s18.76-55.6,42.64-70.85c33.8-21.57,86-17.36,105.07-52.64,5.07-9.38,6.68-20.2,8-30.79A825.47,825.47,0,0,0,2172.2,1619.76ZM1158.76,2117.81c-4.38-.27-8.18,2.83-11.38,5.84-4.4,4.15-8.71,8.58-11.42,14a45.33,45.33,0,0,1-2.75,5.32,7.34,7.34,0,0,1-4.78,3.32,5.16,5.16,0,0,1-3.13-.58,12.53,12.53,0,0,1-2.16-1.7c-6.21-5.47-15.72-7.83-23-3.88l-2.56-19.53c10.06-7.77,22.32-12.63,31.3-21.62,4.4-4.4,7.85-9.65,11.72-14.53,2-2.56,4.49-5.19,7.73-5.59,3.48-.43,6.66,1.85,9.31,4.14a102.59,102.59,0,0,1,10,9.89Zm103.57-580a124,124,0,0,0-18.71,12l-18.47-20.12c-2.74-5-1.13-12.06-5.25-16-2.12-2-5.19-2.58-8-3.38a40.29,40.29,0,0,1-23.48-18,13,13,0,0,1-3.39,3.21c-1.82-2.91-3.85-6-7-7.3s-7.72.25-8.08,3.67l-15.48-3.85c1.5-5.8,2-11.81,2.64-17.75,2.48-21.36,8.16-42.19,12.45-63.25,3.91-19.24,6.67-39,4.7-58.5l1.21-1.39c.86-1.65,1.84-3.42,3.53-4.2,1.85-.86,4-.31,6-.27,2.94,0,5.82-1,8.77-.94,3.32.08,6.42,1.58,9.4,3l13.47,6.65,22.48,30.59a107.57,107.57,0,0,1,6.46,31,67.84,67.84,0,0,0,.76,8.79c.65,3.47,2,6.79,2.48,10.28.32,2.3.26,4.63.48,6.94.49,5.1,2.32,10,4.12,14.75l1.26,3.32,3.66,9.69Z"></path>
    <path data-name="4a" data-official="" data-plain="Petal" data-loc="" d="M1265.93,2458.07a46.16,46.16,0,0,0,9.15-29.63c-.45-9.69-3.95-18.93-6.72-28.23a192.46,192.46,0,0,1-7.38-39.66c-.71-8.83-.57-18.46,4.77-25.52,6.25-8.28,17.55-10.47,27.8-12.06l15.06-2.34c12.73-2,26.72-3.72,37.68,3.06,9,5.61,14.11,16.16,15.53,26.71s-.31,21.24-2.13,31.72c-3.11,17.82-6.52,35.72-6.45,53.8s3.87,36.64,14,51.59c2,2.94,4.28,5.83,5.08,9.3a18.86,18.86,0,0,1-.22,7.84c-1.34,6.63-4.35,13.08-9.4,17.56s-12.33,6.72-18.81,4.8L1334,2542.4c-1.68-10.69-9.77-19.29-18.67-25.44s-18.93-10.58-27.51-17.15c-7.83-6-14.24-13.59-20.58-21.13Z"></path>
    <path data-name="4b" data-official="" data-plain="Stamen and Pistil" data-loc="" d="M1406.05,2493.5c8-40.86-13.59-81.54-15.46-123.12-.29-6.41.14-13.49,4.53-18.16,2.45-2.61,5.86-4.13,8.42-6.62,6.58-6.43,5.85-16.95,5.66-26.15s2.06-20.39,10.77-23.37c6-2.06,12.83,1.07,17.11,5.8s6.66,10.82,9.33,16.62c6.16,13.35,15.22,26.52,28.95,31.79,4,1.55,8.31,2.35,12.26,4.08a28.81,28.81,0,0,1,16.73,27.13,19,19,0,0,1-1.74,7.4,44.1,44.1,0,0,1-3.9,5.82c-12.19,17.33-8.69,40.65-11,61.72-2.57,23.67-12.93,45.73-24,66.82-7.31,14-16.31,28.95-31.29,33.94-12,4-25.13.58-36.7-4.42-4.56-2-9.14-4.28-12.44-8a20.56,20.56,0,0,1-3.73-20.34,21.84,21.84,0,0,1,15.83-13.49Z"></path>
    <path data-name="4c" data-official="" data-plain="Anther" data-loc="" d="M1481.66,2506.09c8.08-8.53,11.32-20.41,14.27-31.78l17.16-65.94c2.56-9.81,5.11-19.64,7-29.61.59-3.15,1.11-6.42.39-9.55-1.65-7.16-8.94-11.22-14.87-15.58s-11.47-12-8-18.52c2.56-4.76,8.64-6.12,14-7l15.13-2.42c8.55-1.36,17.39-2.72,25.79-.59s16.29,8.7,17.17,17.31c.84,8.21-4.57,15.55-7.65,23.2-9.83,24.4,3.79,54.44-8.85,77.51-5.75,10.48-16.72,19.12-16.73,31.08,0,7.31,4.25,13.83,7.32,20.47,4.35,9.44,6.46,20.18,4.24,30.33s-9.2,19.53-19,23.08c-6.09,2.21-12.8,2.1-19.2,1.06-7.76-1.25-15.46-3.9-21.53-8.89s-10.29-12.58-10-20.43Z"></path>
</svg>
