
<svg xmlns="http://www.w3.org/2000/svg" viewBox="0 0 2134 2683" id="illustration" preserveAspectRatio="xMidYMid meet">
    <title>Hippocastanaceæ</title>
    <path data-name="1" data-official="Æsculus Hippocastanum" data-plain="Common Horse-Chesnut" data-loc="Asia" d="M617.92,1623.68c-1.42-9.69,3.4-19.43,10.23-26.47s15.5-11.91,23.84-17.06c3.78-2.33,7.52-4.73,11.25-7.13l14.11-9.08,17-6.13c4.08,0,8.45,1,11.14,4.06,1.77,2,2.61,4.66,3.41,7.22L726.63,1626a144.94,144.94,0,0,1,4.78,18l.67,6.51a156.66,156.66,0,0,1,10.31,30l-4.35,2.17A165,165,0,0,0,689,1670.17l-24.64-9.44-18.17-11.4c-3-1.87-6-3.75-8.77-5.91a64.14,64.14,0,0,0-6.24-4.67c-2.36-1.39-5-2.29-7.19-3.93C620.5,1632.22,618.54,1628,617.92,1623.68Zm1505.74,426.43c-.13,23.89-.6,47.84-3.54,71.55-2.34,18.9-6.23,37.56-8.86,56.42-9.23,66.24-2.73,133.54,3.78,200.1l.6,35.68a573.36,573.36,0,0,0-10.64,89.91c-1.12,28.94-3.91,64.4-30.27,76.39-14.74,6.7-32.41,2.92-46.54-5s-25.75-19.52-38.35-29.7a227.37,227.37,0,0,0-139.43-50c-21.1-.19-43.18,3-60.36,15.2-21.33,15.2-31.29,41.27-43.16,64.62-13,25.45-29.91,49.66-53.57,65.65s-54.89,22.63-81.41,12c-28.09-11.2-46-38.69-70.81-55.93-35.57-24.69-81.77-26.31-122.77-40.25-48.62-16.54-89.21-50.19-128.59-83.15-30.38-25.42-61-51.07-85.77-82-21.31-26.59-38-56.66-51.93-87.75l-13.1,1.92c-19.63,53.24-56.94,97.78-93.54,141.14-10.51,12.45-21.05,24.93-32.75,36.28-17.15,16.63-36.63,30.66-54.61,46.4-15.4,13.48-30.1,28.49-48.73,37-5.14,2.34-11.1,4.15-16.36,2.08-4.1-1.62-7-5.34-9.13-9.21-13.31-24.25-2.5-56.52-16.1-80.61l-2.1-11.56a70.18,70.18,0,0,1-5.58-15.18l-3.3,1.86a1.34,1.34,0,0,1-.83.26,1.38,1.38,0,0,1-.79-.58q-5-6-10-12a21.47,21.47,0,0,1-3.48-5.16c-1.56-3.7-1-8.13-3-11.59l-.89,4.72c-6.76-6.53-6.59-17.47-11.57-25.43a15.15,15.15,0,0,0-.86,3.37c-.31,1.12-1.19,2.28-2.35,2.19a3.14,3.14,0,0,1-1.73-1A40.78,40.78,0,0,1,813,2398.5a2.2,2.2,0,0,0-.7-.86c-.92-.54-1.93.46-2.7,1.18a6.59,6.59,0,0,1-10.73-2.62l-15.79-13.7c.73-6.07,1.16-12.19,1.3-18.31.06-2.76,0-5.69-1.46-8-1.29-2-3.48-3.29-5.46-4.66a39,39,0,0,1-16.16-26L759,2312.77a56.49,56.49,0,0,0-4.08-51c-3.52-5.62-8.09-10.71-10.25-17-1.83-5.32-1.77-11.08-1.65-16.7q.76-33.47,3.86-66.84c2.41-25.93,6.13-52.52,19.05-75.13l6.31-17.29c6-2.21,12-4.47,17.2-8.15,11.52-8.19,17.65-22.53,29.54-30.17a70.39,70.39,0,0,0-12.9.34,83.1,83.1,0,0,1,25.06-42.78l5.11-27.31a218.87,218.87,0,0,0-2-30c-.39-2.86-.93-5.93-3-8-3.55-3.59-9.53-2.33-14.3-.67A236.82,236.82,0,0,0,782,1937.55l-16.18,15.11c-93.92,62.72-187.89,125.47-278.42,193-31.69,23.64-63.18,48.06-89.21,77.83-37.11,42.44-61.75,94.12-85.14,145.42S266.67,2472.42,232.2,2517s-82.37,81.61-138,90.73c-23.8,3.9-51.42,1.17-66.85-17.36-12.54-15-13.65-36.7-10-56,9.26-49.51,44.13-89.72,77.67-127.3l21.76-25.85c75-85.84,131.93-188.35,219.29-261.61l17.34-2.49c9.2-1.17,17.19-6.95,23.71-13.55s12-14.18,18.86-20.46c5-4.58,11-8.92,12.65-15.5.73-2.91,1.1-6.75,4-7.49a7.23,7.23,0,0,1,2.23-.08,22.88,22.88,0,0,0,13.19-3.44c4.78-3,8.26-7.61,11.63-12.12l15.76-21.14,5.46-6.85c1.42-12,7.83-22.71,14.94-32.43s15.11-18.9,20.52-29.66a143.4,143.4,0,0,0,6.46-15.9l6.63-18.38c2.38-6.61,4.77-13.26,6-20.17,1.14-6.26,1.33-12.66,2.39-18.93a69,69,0,0,1,3.93-14c.74-1.86,1.66-3.8,3.35-4.87s4.37-.8,5.21,1l7.49,4a25.89,25.89,0,0,0,1.51,6.26,5.13,5.13,0,0,0,1.31,2.17,2,2,0,0,0,2.36.31c-.09,1.66-.14,3.33-.14,5a3.85,3.85,0,0,0,.62,2.5c.56.66,1.85.74,2.19-.07a4.66,4.66,0,0,0,3.07,3.81,1.4,1.4,0,0,1,.53.27,1.13,1.13,0,0,1,.25.53l1.2,4.58a54.65,54.65,0,0,1,1.66,7.88,21.81,21.81,0,0,0,.85,5.29,32.27,32.27,0,0,0,2.32,4.13,29.18,29.18,0,0,1,2.55,7.72l2.8,8.32a30.51,30.51,0,0,0,2,10.71,17.51,17.51,0,0,0,6.78,8.37,6.72,6.72,0,0,0,2.91,1.1l7.22,1.57,4,9.44c.36-.58.72-1.16,1.09-1.74,5,5.24,6.59,12.91,11,18.63a45,45,0,0,0,5.6,5.7l8.52,7.7a61.91,61.91,0,0,0-6.57-18.76,2.08,2.08,0,0,1-.37-1.28,2.21,2.21,0,0,1,.68-1.06c3.12-3.39,4.06-8.26,4.19-12.87s-.4-9.26.33-13.81a6.73,6.73,0,0,1,.76-2.41c1.18-2,3.74-2.51,5.79-3.58a21.15,21.15,0,0,0,4.89-4l16.09-16.26,16.16-4.41c15.16-12,30.36-24.12,46.7-34.51a276.84,276.84,0,0,1,45.56-23.34l17.13.21c2.8-.1,5.08,2.08,7.61,3.29,4.66,2.23,10.18,1.08,15.15-.34q5.91-1.68,11.69-3.79a29.1,29.1,0,0,0,5.94-2.74,27.55,27.55,0,0,0,6.57-6.58,32,32,0,0,0,5-8.45c2.69-7.51.45-15.86,1.43-23.78l-3.46-8.21q-1.82-7.69-4.31-15.21a19.76,19.76,0,0,0-2.85-6.07l-4.38-5.53-.51-19a12.62,12.62,0,0,0-.52-3.88c-.61-1.68-1.91-3-2.9-4.49a23.77,23.77,0,0,1-3.07-7.94,79.16,79.16,0,0,1-1.71-25.9l-14-18.1-10.36-25.87a11.27,11.27,0,0,1-1.18-5.27c.21-2,1.51-3.8,2.75-5.44l-1.43-7.73c-2.15-.17-4.53-.44-6-2a9.57,9.57,0,0,1-1.67-3.68c-1.27-4.19-3.15-8.17-4.8-12.23-2.72-6.65-4.84-13.52-7-20.38l-5.34-17.32q-3.72-12.07-7.45-24.17a44,44,0,0,1-1.92-7.9,22.36,22.36,0,0,1,4.81-16.44l6.46-7.08c19,.21,37.57,5.76,56.51,7.46s39.86-1.28,53.07-15c6.61-6.84,10.64-15.71,16-23.56,6.39-9.33,14.67-17.22,21.11-26.51s11-20.78,8.53-31.8l1.08-17.81c-.07-7.43-.13-14.91,1.23-22.21,1.8-9.67,6-18.7,10.42-27.51,4.06-8.14,8.3-16.19,12.53-24.24l0-5.92c14-1.41,26.17-13.43,27.77-27.4.39-3.43.15-7.09-1.69-10a18.22,18.22,0,0,1-1.55-2.47,14.11,14.11,0,0,1-.67-3.73c-.64-5-3.67-9.38-5-14.25s0-11.35,4.85-12.76a7.81,7.81,0,0,1-.1-11.67,6.68,6.68,0,0,0,1.69-1.57,4.75,4.75,0,0,0,.48-2l2.52-34.63-6.26-4c-6.57-1.15-13.19-2.31-19.43-4.65s-12.16-6-16.21-11.27c-2.46-3.22-4.29-7.09-7.69-9.28l-10.71-1.83c-6.24-11.1-19.17-16.18-30.66-21.65a191,191,0,0,1-24-13.61A64.36,64.36,0,0,1,825.47,1155c-4.18-4.66-7.22-11.62-4.13-17.07,2.15-3.8,6.6-5.59,10.8-6.81a90.3,90.3,0,0,1,13.32-2.78l6.92-2.65a139.68,139.68,0,0,0,20-8.18c5.4-2.56,10.86-5.22,15.25-9.27s7.61-9.79,7.27-15.75l1.37-10.32a31.69,31.69,0,0,0-1.53-9.71,6.27,6.27,0,0,0-1.62-2.89c-1.3-1.12-3.19-1.11-4.89-1.32a10.11,10.11,0,0,1-6-2.64,6.05,6.05,0,0,1-1.64-6.06,10.6,10.6,0,0,0,1-2.71c.06-1.14-.65-2.23-.53-3.36a4.46,4.46,0,0,1,.93-2c5.16-7.44,12.39-13.19,18.18-20.16s10.22-16.07,8.17-24.89l28.89-21.33c6.38-6.75,9.28-16,11.36-25.07a206.5,206.5,0,0,0,3.94-22.91c.52-4.6.93-9.35,3-13.5,2.45-4.89,7.09-8.62,8.6-13.88l1.07-6A22.67,22.67,0,0,0,949,902.1c-5.14,1.41-9.64,4.61-14.77,6-3.89,1.1-9.26.3-10.23-3.64a4.88,4.88,0,0,0-.52-1.7c-.76-1.06-2.36-.79-3.66-.7a8.47,8.47,0,0,1-7.75-12.93l-8,.08a8.94,8.94,0,0,1-4-.58c-3-1.49-3.32-5.62-3.19-9a32,32,0,0,1-10.25.12,4.26,4.26,0,0,1-2.41-.95,4.35,4.35,0,0,1-.95-2.77,66,66,0,0,1-.19-9.74l-14.59-10.6c8.11-14.28,26.16-22,31-37.65,1.28-4.12,1.51-8.49,1.73-12.81q.52-10,1-20.1l4.88-8.13A30.13,30.13,0,0,0,928,785.9a47.24,47.24,0,0,1-3.15-16.11c0-2,.1-4.14,1.3-5.74.93-1.24,2.44-2.06,3.06-3.48.76-1.73,0-3.77.3-5.63.64-3.42,4.6-4.9,7.07-7.35a10.15,10.15,0,0,0,2.18-10.85l-10.48-13.8c-7.67-4.48-12.25-12.69-16.32-20.59l-7.38-10.2c-3.75-2.62-4.66-7.71-4.94-12.27A73.65,73.65,0,0,1,901,659.51c1.61-7.3,4.63-14.25,6.1-21.58s1.18-15.53-3.27-21.54c-5.66-7.64-16.11-9.6-24.14-14.71S866,588.05,862.78,579s-4.31-18.7-5-28.28q-.91-12.37-1-24.79c-.1-12.76,1-27,10.35-35.7l-2.45-11c9.07-2.07,15.11-10.43,20-18.37,1.58-2.59,3.17-5.31,3.44-8.34s-.9-6.21-1.45-9.32-.27-6.77,2.19-8.75c-3.87.46-7.18-4.46-5.28-7.87-2,0-3.64-1.77-4.33-3.67s-.73-4-1.23-5.91c-1-4-4-8-2.73-11.91.47-1.45,1.51-2.83,1.23-4.33a10.41,10.41,0,0,0-1.31-2.6c-1.12-2.22-.5-4.88.14-7.28l3.81-14.31-3.47-9.71c-6.77-11.24-16.46-20.44-23.77-31.33a178.19,178.19,0,0,1-9-15.58l-16.39-30.8-11.78-20c-54-46.42-37.44-140.62,16-187.69s129-58.16,200.08-61.71c120.27-6,253,8.93,337,95.16,32.64,33.47,55.28,75.27,75.43,117.46a1439.76,1439.76,0,0,1,130.22,449.79c10.32,87,12.67,174.76,24.55,261.52a1202,1202,0,0,0,95.77,332.21c35.25,77.83,82.88,155.84,159,194.67,44.44,22.68,96,30.47,137.73,57.79l34.18,58.7C2107.7,1723.72,2124.5,1890.2,2123.66,2050.11ZM927.42,1684.43a24.73,24.73,0,0,0-4.29-5.61l-5.55-6L905.12,1674a136.46,136.46,0,0,1-4,24,22,22,0,0,1-1.91,5.31l5.3,2.93a87.74,87.74,0,0,0,16.16-5l6.48-5.43A12.51,12.51,0,0,0,927.42,1684.43Zm53-32.09a15.43,15.43,0,0,0-2.8-1.92,17.83,17.83,0,0,1-5.28-5.1l-13,2.57a207.3,207.3,0,0,0-20.42,4.82l-11,3.58a9.33,9.33,0,0,1,2.08,8.06c-.42,1.85-1.41,3.68-1,5.55.33,1.69,1.69,2.95,2.91,4.16a43,43,0,0,1,10.25,16.34l18-8.47q5.85-1.7,11.83-2.84l7.89-1.61a43.23,43.23,0,0,1,1.19-13,34.65,34.65,0,0,0,1.3-6.26A7.66,7.66,0,0,0,980.4,1652.34Zm71.56-18.59c-.67-1.47-2.29-2.22-3.8-2.76-6.69-2.42-13.81-3.36-20.86-4.29l-15.51-2-7.52-.15a43.76,43.76,0,0,1-10.21-2.61l-4.55,5.7c3.16,1.05,6.45,2.19,8.77,4.59,2.91,3,3.73,7.45,5.82,11.09.29.5.68,1,1.27,1.12a3.5,3.5,0,0,0,1.13-.23c1.61-.38,3.2,1,3.67,2.59a9.93,9.93,0,0,1-.26,4.89l15.86.42a138.16,138.16,0,0,0,22-11.25,12,12,0,0,0,3.45-2.84A4.35,4.35,0,0,0,1052,1633.75Zm-438.59,18.88c1.5,1.53,2.63,3.41,4.23,4.85s3.89,2.41,5.89,1.62l5.49-2.94L617.14,1646c-4.13-3.55-8.25-7.1-12.56-10.43a13,13,0,0,0-4.71-2.63,12.25,12.25,0,0,0-4.27,0,69.29,69.29,0,0,0-9.58,1.87l22,13.87A28.38,28.38,0,0,1,613.37,1652.63Z"></path>
    <path data-name="1a" data-official="" data-plain="Petal" data-loc="" d="M1111.46,2617.36c1.83-5.91,3.58-12.61.59-18-1.67-3-4.57-5.11-7.42-7-11.66-7.88-24.1-14.65-35-23.5s-20.52-20.21-24-33.85.43-29.73,11.89-37.9c4.9-3.5,10.76-5.35,16.62-6.72a122.08,122.08,0,0,1,38-2.79c7.85.65,15.81,2.13,22.67,6,8.93,5,15.21,13.6,21.21,21.92,4.31,6,8.67,12.05,11.35,18.92s3.56,14.74.8,21.58c-1.74,4.31-4.88,8.18-5.27,12.81-.44,5.2,2.74,10,6.42,13.74s8,6.8,11,11.1c6.07,8.78,4.9,21.4-1.47,30s-17.07,13.27-27.73,13.94-21.28-2.33-31-6.81Z"></path>
    <path data-name="1b" data-official="" data-plain="Calyx and Pistil" data-loc="" d="M1283.18,2475.34c-9.41-7.82-19.25-15.36-30.48-20.23s-24.1-6.85-35.8-3.27c-18.45,5.65-30.83,24.94-31.34,44.23s9.36,37.89,23.55,51c3.68,3.39,7.68,6.51,10.59,10.58,10.8,15.13,3.35,38.18,14.4,53.13,5.35,7.23,14.09,11.1,22.68,13.78,9.33,2.91,19.34,4.8,28.86,2.57s18.39-9.44,20.1-19.06c1.43-8-2.22-16.16-7.32-22.5s-11.62-11.35-17.34-17.14a13.1,13.1,0,0,1-3.36-4.74c-.76-2.27-.3-4.76.41-7.05,5-16,22.08-27.71,22.18-44.5.06-10.09-6.2-19-12.19-27.09Z"></path>
    <path data-name="1c" data-official="" data-plain="Fruit" data-loc="" d="M743.05,2228.09c-.12,5.62-.18,11.38,1.65,16.7,2.16,6.27,6.73,11.36,10.25,17a56.49,56.49,0,0,1,4.08,51l2.31,12.79a39,39,0,0,0,16.16,26c2,1.37,4.17,2.62,5.46,4.66,1.48,2.33,1.52,5.26,1.46,8-.14,6.12-.57,12.24-1.3,18.31l15.79,13.7-.32,10c3.51,19.16-6.67,37.9-16.48,54.73l-44.05,75.57c-13.52,23.19-27.23,46.64-45.89,65.95s-43,34.39-69.8,36.59c-11.64,1-23.47-.52-35,1.57-16.33,3-30.42,12.8-45.44,19.86a141.84,141.84,0,0,1-94.55,8.95c-9.43-2.41-19.21-6.26-24.76-14.26-9.81-14.14-2.21-33.12,2.34-49.71,12.85-46.95-2.25-96.83-21.22-141.65s-42.28-89.17-46.66-137.65l-5.72-35.05c13.48-24,28.63-46.93,46.74-67.65,26-29.77,57.52-54.19,89.21-77.83l10,3.24a72.76,72.76,0,0,0,35.18-11.82c8.2-5.42,16.42-12.87,26.22-12,4.62.39,8.95,2.66,13.59,2.92,11.68.67,19.87-10.81,29.75-17.09a37,37,0,0,1,33.39-2.95c12,4.95,20.92,16.09,33.36,19.81,4.8,1.43,9.91,1.68,14.64,3.35,6.8,2.41,12.22,7.56,17.43,12.56L724,2165.92Z"></path>
    <path data-name="2" data-official="Pavia rubra" data-plain="Red-flowered Pavia" data-loc="North America" d="M899.21,1449.74l1.08-17.81c-.07-7.43-.13-14.91,1.23-22.21,1.8-9.67,6-18.7,10.42-27.51,4.06-8.14,8.3-16.19,12.53-24.24l0-5.92c14-1.41,26.17-13.43,27.77-27.4.39-3.43.15-7.09-1.69-10a18.22,18.22,0,0,1-1.55-2.47,14.11,14.11,0,0,1-.67-3.73c-.64-5-3.67-9.38-5-14.25s0-11.35,4.85-12.76a7.81,7.81,0,0,1-.1-11.67,6.68,6.68,0,0,0,1.69-1.57,4.75,4.75,0,0,0,.48-2l2.52-34.63-6.26-4c-6.57-1.15-13.19-2.31-19.43-4.65s-12.16-6-16.21-11.27c-2.46-3.22-4.29-7.09-7.69-9.28l-10.71-1.83c-6.24-11.1-19.17-16.18-30.66-21.65a191,191,0,0,1-24-13.61A64.36,64.36,0,0,1,825.47,1155c-4.18-4.66-7.22-11.62-4.13-17.07,2.15-3.8,6.6-5.59,10.8-6.81a90.3,90.3,0,0,1,13.32-2.78l6.92-2.65a139.68,139.68,0,0,0,20-8.18c5.4-2.56,10.86-5.22,15.25-9.27s7.61-9.79,7.27-15.75l1.37-10.32a31.69,31.69,0,0,0-1.53-9.71,6.27,6.27,0,0,0-1.62-2.89c-1.3-1.12-3.19-1.11-4.89-1.32a10.11,10.11,0,0,1-6-2.64,6.05,6.05,0,0,1-1.64-6.06,10.6,10.6,0,0,0,1-2.71c.06-1.14-.65-2.23-.53-3.36a4.46,4.46,0,0,1,.93-2c5.16-7.44,12.39-13.19,18.18-20.16s10.22-16.07,8.17-24.89l28.89-21.33c6.38-6.75,9.28-16,11.36-25.07a206.5,206.5,0,0,0,3.94-22.91c.52-4.6.93-9.35,3-13.5,2.45-4.89,7.09-8.62,8.6-13.88l1.07-6A22.67,22.67,0,0,0,949,902.1c-5.14,1.41-9.64,4.61-14.77,6-3.89,1.1-9.26.3-10.23-3.64a4.88,4.88,0,0,0-.52-1.7c-.76-1.06-2.36-.79-3.66-.7a8.47,8.47,0,0,1-7.75-12.93l-8,.08a8.94,8.94,0,0,1-4-.58c-3-1.49-3.32-5.62-3.19-9a32,32,0,0,1-10.25.12,4.26,4.26,0,0,1-2.41-.95,4.35,4.35,0,0,1-.95-2.77,66,66,0,0,1-.19-9.74l-14.59-10.6c8.11-14.28,26.16-22,31-37.65,1.28-4.12,1.51-8.49,1.73-12.81q.52-10,1-20.1l4.88-8.13A30.13,30.13,0,0,0,928,785.9a47.24,47.24,0,0,1-3.15-16.11c0-2,.1-4.14,1.3-5.74.93-1.24,2.44-2.06,3.06-3.48.76-1.73,0-3.77.3-5.63.64-3.42,4.6-4.9,7.07-7.35a10.15,10.15,0,0,0,2.18-10.85l-10.48-13.8c-7.67-4.48-12.25-12.69-16.32-20.59l-7.38-10.2c-3.75-2.62-4.66-7.71-4.94-12.27A73.65,73.65,0,0,1,901,659.51c1.61-7.3,4.63-14.25,6.1-21.58s1.18-15.53-3.27-21.54c-5.66-7.64-16.11-9.6-24.14-14.71S866,588.05,862.78,579s-4.31-18.7-5-28.28q-.91-12.37-1-24.79c-.1-12.76,1-27,10.35-35.7l-2.45-11c9.07-2.07,15.11-10.43,20-18.37,1.58-2.59,3.17-5.31,3.44-8.34s-.9-6.21-1.45-9.32-.27-6.77,2.19-8.75c-3.87.46-7.18-4.46-5.28-7.87-2,0-3.64-1.77-4.33-3.67s-.73-4-1.23-5.91c-1-4-4-8-2.73-11.91.47-1.45,1.51-2.83,1.23-4.33a10.41,10.41,0,0,0-1.31-2.6c-1.12-2.22-.5-4.88.14-7.28l3.81-14.31-3.47-9.71c-6.77-11.24-16.46-20.44-23.77-31.33a178.19,178.19,0,0,1-9-15.58l-16.39-30.8-11.78-20-89.4-96.33C678,134.74,607.17,117.18,556.43,150.6c-24.51,16.15-41,41.78-54.93,67.65-19.8,36.93-35.64,75.82-51.44,114.64l-61.3,150.63c-14.68,36.07-29.41,72.27-39.06,110-10.19,39.85-14.59,80.92-22.38,121.3-6.5,33.65-15.34,66.8-24.17,99.92-18.52,69.4-37,138.86-60,206.92-12.72,37.78-26.81,75.15-36.76,113.75a561.83,561.83,0,0,0-15.27,87.9l-25,59.35c3.1,39.81,3.66,83.27-20,115.41-29.21,39.64-87,50.38-114.82,91-18.74,27.41-19.87,63.69-11.95,95.93,6.2,25.24,17.53,49.65,17.86,75.63.31,24.27-9,47.48-13.94,71.24-17.11,82.48,19,167.48,11.46,251.37-2.93,32.51-12.4,64.18-15.06,96.71a233.82,233.82,0,0,0,16.47,106.84c12.18,29.85,31.59,58,59.75,73.68s66,16.32,90.94-4.14l41.55-19.27c32.53-42.4,66.75-83.11,107.64-117.4l17.34-2.49c9.2-1.17,17.19-6.95,23.71-13.55s12-14.18,18.86-20.46c5-4.58,11-8.92,12.65-15.5.73-2.91,1.1-6.75,4-7.49a7.23,7.23,0,0,1,2.23-.08,22.88,22.88,0,0,0,13.19-3.44c4.78-3,8.26-7.61,11.63-12.12l15.76-21.14,5.46-6.85c1.42-12,7.83-22.71,14.94-32.43s15.11-18.9,20.52-29.66a143.4,143.4,0,0,0,6.46-15.9l6.63-18.38c2.38-6.61,4.77-13.26,6-20.17,1.14-6.26,1.33-12.66,2.39-18.93a69,69,0,0,1,3.93-14c.74-1.86,1.66-3.8,3.35-4.87s4.37-.8,5.21,1l7.49,4a25.89,25.89,0,0,0,1.51,6.26,5.13,5.13,0,0,0,1.31,2.17,2,2,0,0,0,2.36.31c-.09,1.66-.14,3.33-.14,5a3.85,3.85,0,0,0,.62,2.5c.56.66,1.85.74,2.19-.07a4.66,4.66,0,0,0,3.07,3.81,1.4,1.4,0,0,1,.53.27,1.13,1.13,0,0,1,.25.53l1.2,4.58a54.65,54.65,0,0,1,1.66,7.88,21.81,21.81,0,0,0,.85,5.29,32.27,32.27,0,0,0,2.32,4.13,29.18,29.18,0,0,1,2.55,7.72l2.8,8.32a30.51,30.51,0,0,0,2,10.71,17.51,17.51,0,0,0,6.78,8.37,6.72,6.72,0,0,0,2.91,1.1l7.22,1.57,4,9.44c.36-.58.72-1.16,1.09-1.74,5,5.24,6.59,12.91,11,18.63a45,45,0,0,0,5.6,5.7l8.52,7.7a61.91,61.91,0,0,0-6.57-18.76,2.08,2.08,0,0,1-.37-1.28,2.21,2.21,0,0,1,.68-1.06c3.12-3.39,4.06-8.26,4.19-12.87s-.4-9.26.33-13.81a6.73,6.73,0,0,1,.76-2.41c1.18-2,3.74-2.51,5.79-3.58a21.15,21.15,0,0,0,4.89-4l16.09-16.26,16.16-4.41c15.16-12,30.36-24.12,46.7-34.51a276.84,276.84,0,0,1,45.56-23.34l17.13.21c2.8-.1,5.08,2.08,7.61,3.29,4.66,2.23,10.18,1.08,15.15-.34q5.91-1.68,11.69-3.79a29.1,29.1,0,0,0,5.94-2.74,27.55,27.55,0,0,0,6.57-6.58,32,32,0,0,0,5-8.45c2.69-7.51.45-15.86,1.43-23.78l-3.46-8.21q-1.82-7.69-4.31-15.21a19.76,19.76,0,0,0-2.85-6.07l-4.38-5.53-.51-19a12.62,12.62,0,0,0-.52-3.88c-.61-1.68-1.91-3-2.9-4.49a23.77,23.77,0,0,1-3.07-7.94,79.16,79.16,0,0,1-1.71-25.9l-14-18.1-10.36-25.87a11.27,11.27,0,0,1-1.18-5.27c.21-2,1.51-3.8,2.75-5.44l-1.43-7.73c-2.15-.17-4.53-.44-6-2a9.57,9.57,0,0,1-1.67-3.68c-1.27-4.19-3.15-8.17-4.8-12.23-2.72-6.65-4.84-13.52-7-20.38l-5.34-17.32q-3.72-12.07-7.45-24.17a44,44,0,0,1-1.92-7.9,22.36,22.36,0,0,1,4.81-16.44l6.46-7.08c19,.21,37.57,5.76,56.51,7.46s39.86-1.28,53.07-15c6.61-6.84,10.64-15.71,16-23.56,6.39-9.33,14.67-17.22,21.11-26.51S901.7,1460.76,899.21,1449.74ZM623.49,1659.1c-2,.79-4.3-.19-5.89-1.62s-2.73-3.32-4.23-4.85a28.38,28.38,0,0,0-5.35-4l-22-13.87a69.29,69.29,0,0,1,9.58-1.87,12.25,12.25,0,0,1,4.27,0,13,13,0,0,1,4.71,2.63c4.31,3.33,8.43,6.88,12.56,10.43L629,1656.16Zm118.9,21.49-4.35,2.17A165,165,0,0,0,689,1670.17l-24.64-9.44-18.17-11.4c-3-1.87-6-3.75-8.77-5.91a64.14,64.14,0,0,0-6.24-4.67c-2.36-1.39-5-2.29-7.19-3.93-3.46-2.6-5.42-6.85-6-11.14-1.42-9.69,3.4-19.43,10.23-26.47s15.5-11.91,23.84-17.06c3.78-2.33,7.52-4.73,11.25-7.13l14.11-9.08,17-6.13c4.08,0,8.45,1,11.14,4.06,1.77,2,2.61,4.66,3.41,7.22L726.63,1626a144.94,144.94,0,0,1,4.78,18l.67,6.51A156.66,156.66,0,0,1,742.39,1680.59Zm63.72,350.26a70.39,70.39,0,0,1,12.9-.34c-11.89,7.64-18,22-29.54,30.17l-1.56-10a792.57,792.57,0,0,0-8.3-84.65l2.34-28.44A236.82,236.82,0,0,1,817,1922.06c4.77-1.66,10.75-2.92,14.3.67,2,2,2.58,5.12,3,8a218.87,218.87,0,0,1,2,30l-5.11,27.31A83.1,83.1,0,0,0,806.11,2030.85Zm61.61,448.06c13.6,24.09,2.79,56.36,16.1,80.61l-1,8.2a37,37,0,0,1-35.34,20.37c-5.21-.4-10.28-1.93-15.49-2.44-6.64-.64-13.32.39-19.87,1.59a21.73,21.73,0,0,1-6.56.55c-4.65-.58-8.4-4.22-10.72-8.29-3.62-6.36-4.53-13.87-5.25-21.16a654.66,654.66,0,0,1-3-75.41l-4.47-22c9.81-16.83,20-35.57,16.48-54.73l.32-10a6.59,6.59,0,0,0,10.73,2.62c.77-.72,1.78-1.72,2.7-1.18a2.2,2.2,0,0,1,.7.86,40.78,40.78,0,0,0,8.22,10.32,3.14,3.14,0,0,0,1.73,1c1.16.09,2-1.07,2.35-2.19a15.15,15.15,0,0,1,.86-3.37c5,8,4.81,18.9,11.57,25.43l.89-4.72c2,3.46,1.47,7.89,3,11.59a21.47,21.47,0,0,0,3.48,5.16q5,6,10,12a1.38,1.38,0,0,0,.79.58,1.34,1.34,0,0,0,.83-.26l3.3-1.86a70.18,70.18,0,0,0,5.58,15.18Zm59.7-794.48a12.51,12.51,0,0,1-.26,11.39l-6.48,5.43a87.74,87.74,0,0,1-16.16,5l-5.3-2.93a22,22,0,0,0,1.91-5.31,136.46,136.46,0,0,0,4-24l12.46-1.11,5.55,6A24.73,24.73,0,0,1,927.42,1684.43ZM1051.26,1638a12,12,0,0,1-3.45,2.84,138.16,138.16,0,0,1-22,11.25l-15.86-.42a9.93,9.93,0,0,0,.26-4.89c-.47-1.58-2.06-3-3.67-2.59a3.5,3.5,0,0,1-1.13.23c-.59-.07-1-.62-1.27-1.12-2.09-3.64-2.91-8.07-5.82-11.09-2.32-2.4-5.61-3.54-8.77-4.59l4.55-5.7a43.76,43.76,0,0,0,10.21,2.61l7.52.15,15.51,2c7,.93,14.17,1.87,20.86,4.29,1.51.54,3.13,1.29,3.8,2.76A4.35,4.35,0,0,1,1051.26,1638Zm-70.86,14.36a7.66,7.66,0,0,1,1.91,5.91,34.65,34.65,0,0,1-1.3,6.26,43.23,43.23,0,0,0-1.19,13l-7.89,1.61q-6,1.14-11.83,2.84l-18,8.47a43,43,0,0,0-10.25-16.34c-1.22-1.21-2.58-2.47-2.91-4.16-.36-1.87.63-3.7,1-5.55a9.33,9.33,0,0,0-2.08-8.06l11-3.58a207.3,207.3,0,0,1,20.42-4.82l13-2.57a17.83,17.83,0,0,0,5.28,5.1A15.43,15.43,0,0,1,980.4,1652.34Z"></path>
</svg>
