
<svg xmlns="http://www.w3.org/2000/svg" viewBox="0 0 2210 2572" id="illustration" preserveAspectRatio="xMidYMid meet">
    <title>Magnoliaceæ</title>
    <path data-name="1" data-official="Magnolia grandiflora" data-plain="Laurel-leaved Magnolia" data-loc="Carolina" d="M2190.78,2039.16c-22.9,78-126.32,101.62-168.13,171.35-4.52,7.54-8.35,16-7.84,24.77,1.42,24.51,31.65,33.88,51.24,48.69,33,25,38,74.81,22.84,113.33-19.88,50.33-67.2,85.88-118.19,104s-105.94,21.12-160,23.21c-262,10.08-524.61,2.43-786.06-17.94-69.7-5.44-143.87-10.91-205.56,22-16.78,9-32.44,20.66-50.8,25.61-60,16.17-124.54-44.46-181.62-19.84l-13.14-7.12a48.07,48.07,0,0,1-24-23.24,17.19,17.19,0,0,1-2-8.31c.42-6.19,6-10.56,11.24-13.95A390.46,390.46,0,0,1,727.55,2421c18.6-2.1,37.83-3,54.81-10.86,12-5.56,22.21-14.33,33.94-20.43,21.26-11,46.09-12.63,68.74-20.47s45.22-26.05,44.87-50c-.22-14.8-9.21-28-19-39.1A218.66,218.66,0,0,0,786,2209.64c-19.85-3.53-40.69-4.44-58.68-13.56-9.12-4.62-17.58-11.37-27.72-12.67-15.41-2-30.55,9.22-45.78,6.17l-11.55,1a969.37,969.37,0,0,1-178.06-16.23c-15.08-2.8-30.17-6-44.5-11.42-16-6.08-30.81-14.89-46.09-22.63a374,374,0,0,0-59.8-24.06c-32.72-10-66.85-15.51-98.64-28.16s-62.15-34-75.39-65.59c-4.6-11-7-23.21-4.46-34.84,4.76-21.9,25.48-37.21,32-58.65,7.68-25.29-6.21-52-22.88-72.55a249.61,249.61,0,0,0-71.19-60L63,1781.49c-10.09-5.94-20.78-12.55-25.45-23.28-4.44-10.23-2.28-22.45,3.37-32.08s14.41-17,23.51-23.49c44-31.23,98.06-43.81,148.64-62.61,25.83-9.61,51-21,76.11-32.3,9.81-4.42,19.82-9,27.57-16.46a47.42,47.42,0,0,0,13.65-25.59c2.23-12.53-.62-25.88,3.76-37.83,9.37-25.55,45.91-31.7,57.05-56.54l9.49-8.27a46.31,46.31,0,0,1,16.74-24.57l5.22-14,13.83-17.4,3.73-10.55q-12.44-25.65-24.55-51.46c-17.26-36.76-34.24-74.46-39.41-114.75-2.12-16.51-2.21-33.21-2.3-49.86q-.33-60.93-.65-121.85c0-4.36.08-9.1,2.82-12.49,1.81-2.23,4.51-3.53,7.17-4.64a105.52,105.52,0,0,1,38.07-8.14l15.56-6.63a69.53,69.53,0,0,1,41.34,27.22c5.67,7.92,9.6,17,15,25.05,5.74,8.57,13.08,15.95,20.89,22.68a98.2,98.2,0,0,0,19,13.34c7.88,4,16.49,6.41,25,8.76l49.16,13.51a24.66,24.66,0,0,0,7.48,1.26c3.88-.14,7.53-2.08,11.41-2.18,8.37-.22,14.57,8.19,22.94,8.52,10.73.42,18.81-9.09,21.77-16.81a95,95,0,0,0,7.72,29.18,140.12,140.12,0,0,1,26.41-34.93l16.39-1.16a88.44,88.44,0,0,1,14.54,20.72l2.59,10.43c6.3-12.11,9.46-25.56,13.78-38.5s10.19-25.92,20.47-34.89L810,1053c33.17-19.24,20.13-12.67,52-34,10.45-7,23.7-15,31.43-22.12s9.93-13.39,14.29-16.89c12.28,7,22.88,11.52,35.57,13.92,8.27,1.56,16.53,3.13,24.82,4.6,26.79,4.75,53.9,8.55,79.71,17.15,8.51,2.83,16.93,6.23,24.29,11.36,7,4.86,12.8,11.17,19.56,16.32,16.67,12.72,38.35,18.06,53.88,32.15l6.87,2.62c29.32,11.14,52.26,19.91,73.59,42.91,3.25,3.49,8.5,11.84,12,15,20,18,25.93,40.68,33.23,62.59,10.09,30.28,18.61,61.44,19.82,93.34,18.92-58,49.21-103,62.45-115.14,19.23-17.7,46.57-31.83,62.82-37.5,6.65-2.32,17.3-1.19,25.65-2.32,5.77-.78,11.3-4.32,17-4,18,1,29.73,2.54,42.71-.2C1515,1130,1525,1123,1535,1120c8-2.41,12.66.15,21-.71,15.31-1.57,32.06-8.32,47.21-5.61,11.79,2.1,19,9,31,9,5,0,8.89-.5,13.87-.36,3.39.09,9.69.19,13.07.45,28.9,2.19,36.23-9.62,36.23-9.62l10.53,32.75c1.85,5.75,3.72,11.57,6.89,16.73,3.46,5.63,7.34,11.25,11.1,16.69,6.12,8.87,9,18.51,11.67,29,2.26,9,3.08,18,4.58,27.06,3.53,21.24,7.36,42.73,9.19,64.32,1.14,13.51-4.13,44.15-10.29,69.3-1.5,6.14-.25,16.68-4,30-5.94,21.11-20.2,39.27-28.15,61.59l5.85,56.26c8.77,24.6,10,52.22,24.07,74.21,4.34,6.78,6.78,12.8,11.16,19.56s9.72,16.61,9.11,24.63c0,0,13.73-4.69,19.72-7,14.61-5.62,27.9-16.38,38.21-28.16,3.28-3.74,18.75-14.1,24.49-16,19-6.2,37.13-20.17,52.14-33.31s28-28.44,40.21-44.21l34.68-12.9a363.91,363.91,0,0,1,147-1c20.62,4.13,41.82,10.58,56.77,25.38,19.83,19.64,24.64,50.25,21.4,78-8.34,71.6-61.83,134.46-59.16,206.49C2137.56,1885,2214,1960.05,2190.78,2039.16Z"></path>
    <path data-name="1a" data-official="" data-plain="Stamens" data-loc="" d="M524.88,2517.6a158.1,158.1,0,0,1-46.57,10.85c-3.67.29-7.46.43-10.93-.79-4-1.4-7.12-4.42-9.91-7.55-22.19-24.9-28.51-59.86-31.94-93-2.58-25.07-4-50.23-5.2-75.4-1.72-37.2-2.79-74.76,3.89-111.39,2.67-14.68,7-29.83,17.38-40.51,10.73-11,26.55-15.64,41.88-16.57,14.38-.88,29.11,1.21,42.12,7.42s24.17,16.72,29.86,30c3.28,7.62,4.7,15.88,6,24.08A1036.13,1036.13,0,0,1,573,2358.19c1.12,24.16,1.31,48.95-6.7,71.77-9.59,27.29-30.06,49.37-42.48,75.49Z"></path>
    <path data-name="2" data-official="Talauma Candollii" data-plain="" data-loc="Java" d="M1473.82,536.46c3.38-2,4.13-6.7,3.41-10.58a21,21,0,0,0-3.75-8.59c-1.16-1.57-2.56-3-3.29-4.82-1.24-3.07-.32-6.52.23-9.79a42.87,42.87,0,0,0-1.46-20.21,6.6,6.6,0,0,1-.51-3.34c.32-1.48,1.65-2.49,2.83-3.44,13.25-10.57,18.13-30.39,11.31-45.9a10.78,10.78,0,0,1-1.12-9.66,39.23,39.23,0,0,0-.5-19.46c-11.54,6.35-26.86-1.44-38.76,4.22l-5.36.15-12.12-7.57c-5.3-3.31-10.88-6.93-13.46-12.62-2.35-5.15-1.8-11.16-.43-16.65,1-4,2.76-8.25,6.51-9.88,1.94-.85,4.21-.88,6-2.06s2.68-3.36,4.42-4.59c3-2.11,8.13-1.41,9.49-4.81.75-1.89-.2-4.26.93-5.95,1.87-2.81,6.74-.55,9.41-2.6,1.23-.94,1.67-2.56,2.1-4a53.16,53.16,0,0,1,16.6-25.61L1473,288.4c11.4-57.83-1-120-33.83-169-17.77-26.56-40.92-49-63.89-71.18-9.48-9.17-19.14-18.46-30.87-24.48-12.36-6.35-26.32-8.7-40.07-10.69-36.51-5.27-74.44-8.41-109.72,2.36-14,4.26-27.2,10.61-40.91,15.61-30,11-62,15.36-93.93,17.2-88.74,5.09-177.33-9.19-265.07-23.43l-24.54,4.25A688,688,0,0,0,429.4,124.26c-32,18.94-62.62,40.54-96.52,55.87C276.65,205.55,213.59,212.69,157,237.37c-14.92,6.51-31.22,17-32.31,33.2-.8,11.91,7.5,22.94,17.83,28.91s22.43,7.91,34.23,9.74l115,17.79c5.84.91,12.4,2.26,15.54,7.26,5.39,8.58-3.6,19-12.32,24.18-21.92,13-47.31,18.63-71,28-75.54,29.89-129.92,95.76-180.87,159-17.57,21.82-25.78,45.06-29.87,72.77C8.11,653,17,687.74,43.41,710.84s59.61,36.7,92.13,49.9l20.57,10.62c9.29,10.3,12,24.87,13,38.71a209.35,209.35,0,0,1-15.17,94c-10.73,26.08-26.66,49.78-37.25,75.92-20,49.19-19.89,103.88-19.23,157,.41,33,1,66.51,10.29,98.19,9,30.71,25.78,58.43,41.06,86.55a998.15,998.15,0,0,1,77,183.13c5.55,18,11.43,37.53,26.42,49,18.06,13.83,47,10.15,61-7.76l20.92-18.22c9.37-25.55,45.91-31.7,57.05-56.54l9.49-8.27a46.31,46.31,0,0,1,16.74-24.57l5.22-14,13.83-17.4,3.73-10.55q-12.44-25.65-24.55-51.46c-17.26-36.76-34.24-74.46-39.41-114.75-2.12-16.51-2.21-33.21-2.3-49.86q-.33-60.93-.65-121.85c0-4.36.08-9.1,2.82-12.49,1.81-2.23,4.51-3.53,7.17-4.64a105.52,105.52,0,0,1,38.07-8.14l15.56-6.63a69.53,69.53,0,0,1,41.34,27.22c5.67,7.92,9.6,17,15,25.05,5.74,8.57,13.08,15.95,20.89,22.68a98.2,98.2,0,0,0,19,13.34c7.88,4,16.49,6.41,25,8.76l49.16,13.51a24.66,24.66,0,0,0,7.48,1.26c3.88-.14,7.53-2.08,11.41-2.18,8.37-.22,14.57,8.19,22.94,8.52,10.73.42,18.81-9.09,21.77-16.81a95,95,0,0,0,7.72,29.18,140.12,140.12,0,0,1,26.41-34.93l16.39-1.16a88.44,88.44,0,0,1,14.54,20.72l2.59,10.43c6.3-12.11,9.46-25.56,13.78-38.5s10.19-25.92,20.47-34.89L810,1053c33.17-19.24,20.13-12.67,52-34,8.69-5.82,19.31-12.33,27.09-18.45l0-.37C896,947,924.36,906.84,934,859c1.86-9.24-1.82-19.79-7.73-27.14C923.16,828,890,806,864.45,796.48c15.33-9.91,23.49-23.18,33.27-38.59-.37,1.64,6.93,4.44,8.61,4.49,11.21.28,17.78-.7,28.3,3.17,16,5.87,27.07,17.55,41.57,26.41,19.88,12.15,44,11,67.14,8.51,12-1.3,24.1-1.64,35.24-6.17,8.56-3.47,16.2-9,24.88-12.19s20.54-2.11,26.85-.65a157.3,157.3,0,0,1-16.81-66.82c-.42-22.92,1.32-48.55-7-69.92,4.53,5.55,11,9.11,17.27,12.53l22.32,12.15c5.46,3,11,6,17,7.66,13.62,3.81,27.11,1.46,40.88-1.8a10.19,10.19,0,0,1,4.18-.16c1.1.36,1.87,3.31,2.59,4.22,4.34,5.5,7,12,10.27,16.68,3,4.26,6.59,6.76,10.51,11.73a11.94,11.94,0,0,0,4.28,2.95c1.4.59,6,.4,7.5.16,10.12-1.62,20.85-3,30.52-6.44,5-1.76,13.06-6.56,17.34-9.68a47,47,0,0,1,.26-19.57c15.08-8.91,45.15-13.33,62.41-10.34s33.39,13.9,40.88,29.74l2.52,21.45c-1.57,12.23,6.73,23.3,14.55,32.83l9.52,11.59c2.73,3.33,5.59,6.76,9.49,8.6,4.5,2.12,9.84,1.8,14.54.2l8.7-12.47a537.5,537.5,0,0,1,5.71-87L1458,655a144.63,144.63,0,0,0-24.82-19.11c-10-6.23-18.41-12.14-30.18-11.89l-13.54-1.42c-19.45-9.06-40.13-18.34-61.47-16.13a90.86,90.86,0,0,0-21.34,5.36,40.44,40.44,0,0,0-9.81,4.69,41.22,41.22,0,0,0-8.21,8.47A215.06,215.06,0,0,0,1273,648l-12,10c-1.77,3.36-6.71,7.76-10.22,6.31s-6.08-4.5-8.46-7.46c-22-27.22-42.94-57.35-47.55-92l10.62-.81c22.4-1.78,44.81-3.57,67.26-4.28a251.23,251.23,0,0,1,32,.58c11.95,1.15,23.71,3.7,35.45,6.24a238.64,238.64,0,0,1,24.19,6.15,118.4,118.4,0,0,1,35.08,18.63l10.38,13.61C1428.16,612,1442,624,1460,633l13.8-5.66c2.39-2.5,2.49-6.36,2.34-9.82a154.67,154.67,0,0,0-5.53-34.78c-3-10.84-7.27-21.58-7.37-32.83l-2.33-19C1463.54,535.46,1469.35,539.15,1473.82,536.46ZM1162.38,647.74c-12-3.59-21.66-12.41-31.39-20.36s-20.8-15.6-33.35-16c0,0-3.38-10.76-5.09-15.66l2.36-10.93c12.09-8.53,25.41-17.43,40.18-16.68,4.08.21,8.36,1.31,11.13,4.3,2,2.13,7.78,6.88,8.78,9.61a263.47,263.47,0,0,0,35.79,65.63C1181.49,649.91,1171.57,650.48,1162.38,647.74Z"></path>
    <path data-name="3" data-official="Liriodendron tulipifera" data-plain="Tulip-tree" data-loc="North America" d="M1968.49,1493.7l-34.68,12.9c-12.22,15.77-25.2,31.07-40.21,44.21s-33.18,27.11-52.14,33.31c-5.74,1.88-21.21,12.24-24.49,16-10.31,11.78-23.6,22.54-38.21,28.16-6,2.3-19.72,7-19.72,7,.61-8-4.73-17.87-9.11-24.63s-6.82-12.78-11.16-19.56c-14.08-22-15.3-49.61-24.07-74.21l-5.85-56.26c8-22.32,22.21-40.48,28.15-61.59,3.75-13.32,2.5-23.86,4-30,6.16-25.15,11.43-55.79,10.29-69.3-1.83-21.59-5.66-43.08-9.19-64.32-1.5-9.07-2.32-18.09-4.58-27.06-2.64-10.45-5.55-20.09-11.67-29-3.76-5.44-7.64-11.06-11.1-16.69-3.17-5.16-5-11-6.89-16.73l-10.53-32.75s-7.33,11.81-36.23,9.62c-3.38-.26-9.68-.36-13.07-.45-5-.14-8.89.39-13.87.36-12-.06-19.16-6.94-31-9-15.15-2.71-31.9,4-47.21,5.61-8.34.86-13-1.7-21,.71-10,3-20,10-33.29,12.8-13,2.74-24.71,1.2-42.71.2-5.7-.32-11.23,3.22-17,4-8.35,1.13-19,0-25.65,2.32-16.25,5.67-43.59,19.8-62.82,37.5C1340.29,1189,1310,1234,1291.08,1292c-1.21-31.9-9.73-63.06-19.82-93.34C1264,1176.71,1258,1154,1238,1136c-3.52-3.17-8.77-11.52-12-15-21.33-23-44.27-31.77-73.59-42.91l-6.87-2.62c-15.53-14.09-37.21-19.43-53.88-32.15-6.76-5.15-12.6-11.46-19.56-16.32-7.36-5.13-15.78-8.53-24.29-11.36-25.81-8.6-52.92-12.4-79.71-17.15-8.29-1.47-16.55-3-24.82-4.6C930.6,991.51,920,987,907.72,980c-4.36,3.5-6.56,9.76-14.29,16.89S872.45,1012,862,1019c-31.87,21.33-18.83,14.76-52,34,33.17-19.24,20.13-12.67,52-34,8.69-5.82,19.31-12.33,27.09-18.45l0-.37C896,947,924.36,906.84,934,859c1.86-9.24-1.82-19.79-7.73-27.14C923.16,828,890,806,864.45,796.48c15.33-9.91,23.49-23.18,33.27-38.59-.37,1.64,6.93,4.44,8.61,4.49,11.21.28,17.78-.7,28.3,3.17,16,5.87,27.07,17.55,41.57,26.41,19.88,12.15,44,11,67.14,8.51,12-1.3,24.1-1.64,35.24-6.17,8.56-3.47,16.2-9,24.88-12.19s20.54-2.11,26.85-.65a157.3,157.3,0,0,1-16.81-66.82c-.42-22.92,1.32-48.55-7-69.92,4.53,5.55,11,9.11,17.27,12.53l22.32,12.15c5.46,3,11,6,17,7.66,13.62,3.81,27.11,1.46,40.88-1.8a10.19,10.19,0,0,1,4.18-.16c1.1.36,1.87,3.31,2.59,4.22,4.34,5.5,7,12,10.27,16.68,3,4.26,6.59,6.76,10.51,11.73a11.94,11.94,0,0,0,4.28,2.95c1.4.59,6,.4,7.5.16,10.12-1.62,20.85-3,30.52-6.44,5-1.76,13.06-6.56,17.34-9.68a47,47,0,0,1,.26-19.57c15.08-8.91,45.15-13.33,62.41-10.34s33.39,13.9,40.88,29.74l2.52,21.45c-1.57,12.23,6.73,23.3,14.55,32.83l9.52,11.59c2.73,3.33,5.59,6.76,9.49,8.6,4.5,2.12,9.84,1.8,14.54.2l8.7-12.47a537.5,537.5,0,0,1,5.71-87L1458,655a144.63,144.63,0,0,0-24.82-19.11c-10-6.23-18.41-12.14-30.18-11.89l-13.54-1.42c-19.45-9.06-40.13-18.34-61.47-16.13a90.86,90.86,0,0,0-21.34,5.36,40.44,40.44,0,0,0-9.81,4.69,41.22,41.22,0,0,0-8.21,8.47A215.06,215.06,0,0,0,1273,648l-12,10c-1.77,3.36-6.71,7.76-10.22,6.31s-6.08-4.5-8.46-7.46c-22-27.22-42.94-57.35-47.55-92l10.62-.81c22.4-1.78,44.81-3.57,67.26-4.28a251.23,251.23,0,0,1,32,.58c11.95,1.15,23.71,3.7,35.45,6.24a238.64,238.64,0,0,1,24.19,6.15,118.4,118.4,0,0,1,35.08,18.63l10.38,13.61C1428.16,612,1442,624,1460,633l13.8-5.66c2.39-2.5,2.49-6.36,2.34-9.82a154.67,154.67,0,0,0-5.53-34.78c-3-10.84-7.27-21.58-7.37-32.83l-2.33-19c2.63,4.51,8.44,8.2,12.91,5.51,3.38-2,4.13-6.7,3.41-10.58a21,21,0,0,0-3.75-8.59c-1.16-1.57-2.56-3-3.29-4.82-1.24-3.07-.32-6.52.23-9.79a42.87,42.87,0,0,0-1.46-20.21,6.6,6.6,0,0,1-.51-3.34c.32-1.48,1.65-2.49,2.83-3.44,13.25-10.57,18.13-30.39,11.31-45.9a10.78,10.78,0,0,1-1.12-9.66,39.23,39.23,0,0,0-.5-19.46c-11.54,6.35-26.86-1.44-38.76,4.22l-5.36.15-12.12-7.57c-5.3-3.31-10.88-6.93-13.46-12.62-2.35-5.15-1.8-11.16-.43-16.65,1-4,2.76-8.25,6.51-9.88,1.94-.85,4.21-.88,6-2.06s2.68-3.36,4.42-4.59c3-2.11,8.13-1.41,9.49-4.81.75-1.89-.2-4.26.93-5.95,1.87-2.81,6.74-.55,9.41-2.6,1.23-.94,1.67-2.56,2.1-4a53.16,53.16,0,0,1,16.6-25.61L1473,288.4l17.56-7.47c37.72,17.07,81.91-10.32,122.58-2.57,15.25,2.91,30.58,10.75,45.53,6.59,8.24-2.3,15.08-8,22.93-11.42,11.51-5,24.52-4.88,37.07-4.43q33.91,1.23,67.72,4.72c17.72,1.83,35.77,4.23,51.77,12.09s29.81,22.17,32.61,39.76c3.12,19.59-6.6,43.07,6.92,57.58s36.89,6.59,56.16,2.37A120.51,120.51,0,0,1,2026,403.3c7,4.76,13.75,10.51,17.4,18.18,3.4,7.15,3.84,15.31,4.22,23.22,2.59,54,4.78,110.4-17.26,159.81-3.95,8.86-8.76,18.54-5.88,27.81,2.4,7.74,9.51,12.85,15.6,18.21,27.81,24.51,39.67,65.68,29.14,101.22l7,33.9c-2.73,8.59-13.07,13-15.82,21.57-3,9.31,4.09,18.49,10,26.29,27,35.7,37.51,83.43,27.92,127.17-3.21,14.65-8.58,29.38-6.51,44.24,2.91,20.89,19.72,36.9,36.66,49.47s35.7,24.28,46,42.69c12.62,22.58,9.62,51.4-2,74.5s-30.8,41.45-50.53,58.17c-2.85,2.41-5.88,5-6.85,8.64-.91,3.39.19,7,1.54,10.21,8.12,19.43,25.08,33.45,39.18,49.09,21.19,23.53,37.1,53.78,35.84,85.42-1.54,38.3-30.83,73.8-68.14,82.58Zm-777.7-846.07A263.47,263.47,0,0,1,1155,582c-1-2.73-6.8-7.48-8.78-9.61-2.77-3-7-4.09-11.13-4.3-14.77-.75-28.09,8.15-40.18,16.68l-2.36,10.93c1.71,4.9,5.09,15.66,5.09,15.66,12.55.42,23.63,8.06,33.35,16s19.36,16.77,31.39,20.36C1171.57,650.48,1181.49,649.91,1190.79,647.63Z"></path>
    <path data-name="3a" data-official="" data-plain="Stamens" data-loc="" d="M277.61,2459.27c8-37.42,1.42-76.24-5.17-113.93q-6.21-35.6-12.44-71.18l-10.46-59.81c-1.93-11.06-4.26-22.9-12.29-30.73-5.42-5.28-12.78-8-20.08-10-12.62-3.41-26-4.88-38.76-1.9s-24.69,10.86-30.55,22.54c-4.1,8.18-5,17.55-5.46,26.69a345.53,345.53,0,0,0,11.17,106.41c5.72,21.48,13.5,42.38,18.87,64a295,295,0,0,1,7.11,101.39c-1,9.59-2.46,19.23-1.57,28.82s4.47,19.39,11.89,25.55c13.54,11.23,33.66,6.75,50.51,1.68,5.36-1.62,11-3.39,14.84-7.46s5.4-10.13,6.66-15.77q6.27-27.81,12.52-55.62Z"></path>
    <path data-name="3b" data-official="" data-plain="Pistil" data-loc="" d="M290.75,2425.78q-10.15-44.73-18-89.94c-1.84-10.61-3.6-21.28-3.75-32.05-.18-13.62,2.21-27.12,4.6-40.53,6.45-36.27,13-72.8,26.26-107.15,3-7.85,7-16.21,14.66-19.75,11.43-5.31,24.66,2.91,32.85,12.48,8.65,10.11,14.88,22,20.72,34q13.76,28.16,25.17,57.37c7.86,20.12,14.92,40.89,16.25,62.44.87,14.19-.77,28.39-2.4,42.51l-7.76,67c-1.86,16.09-3.73,32.23-7.59,48-3.35,13.62-8.18,26.88-10.64,40.68-3.29,18.53-3.54,40.31-18.48,51.75-11.18,8.55-26.65,7.87-40.69,6.8-6.9-.53-15.12-2-17.84-8.32-1.09-2.54-1-5.4-.93-8.16,1.16-35.61,3.32-72.57-10.21-105.53Z"></path>
    <path data-name="4" data-official="Illicium anisatum" data-plain="Star-anise" data-loc="China" d="M589.29,2343.49c-5.25-3.19-7.62-6.48-11.46-11.28s-5.91-11.5-3.64-17.21c4-10,15-11.7,21.56-20.29,3.92-5.17,4.54-12.21,3.38-18.59s-3.93-12.33-6.25-18.38a141.79,141.79,0,0,1-8.37-33.88c-.28-2.35-.34-5.14,1.52-6.61a6.89,6.89,0,0,1,3.59-1.13,83.09,83.09,0,0,1,33.9,3.22c5.75,1.79,11.51,4.24,17.52,3.94,11.52-.59,19.9-10.73,26.83-19.94S683.46,2184.12,695,2184c9.82-.13,18.29,7.31,23.22,15.81s7.3,18.21,11.38,27.15c1,2.17,2.21,4.44,4.34,5.52a10.46,10.46,0,0,0,5.47.69,55.49,55.49,0,0,0,20.28-5.41c6.89-3.34,13-8.08,19.83-11.59s14.77-5.79,22.13-3.68c8.29,2.38,14.37,10.18,16,18.64s-.71,17.35-5.08,24.77c-3.22,5.45-7.68,10.93-7,17.22.61,5.85,5.69,10.37,11.17,12.51s11.47,2.46,17.25,3.55a65.91,65.91,0,0,1,22.53,8.74c5.24,3.25,10.35,7.81,11.28,13.9a18.47,18.47,0,0,1-1.47,9.51c-4.93,12.37-16.93,20.56-29.32,25.44s-25.66,7.17-38.06,12c-1.61.63-3.35,1.44-4,3-.6,1.44-.13,3.08.29,4.59a59.06,59.06,0,0,1,1.12,26.86c-.61,3.2-1.58,6.51-3.9,8.81-2.11,2.09-5,3.06-7.89,3.95-13.49,4.26-28.67,8.14-41.3,1.76-3.27-1.66-6.31-4-9.92-4.6-9.2-1.57-15.9,7.91-22.82,14.17-6.29,5.71-16.1,9.22-23.21,4.57-6.36-4.16-7.89-13-13.42-18.22-7-6.62-18.31-5.64-27.24-2s-17,9.41-26.46,11.41a9.62,9.62,0,0,1-5.5-.06,8.87,8.87,0,0,1-4-3.84c-5-8.1-3.9-18.35-5-27.8a56.81,56.81,0,0,0-13-29.72Z"></path>
</svg>

