
<svg xmlns="http://www.w3.org/2000/svg" viewBox="0 0 2170 2131" id="illustration" preserveAspectRatio="xMidYMid meet">
    <title>Hypericaceæ</title>
    <path data-name="1" data-official="Hypericum calycinum" data-plain="Large-flowered St. John’s Wort" data-loc="Ireland" d="M1790.66,1242.2c-2.48-5.43-6.12-10.25-9.73-15l-17.32-22.85c-4.36-5.75-8.72-11.5-13.27-17.1s-9.5-11.24-15.85-14.77l-34.17-2.75c-5-3.85-10.77-6.66-16.13-10s-10.51-7.48-13.5-13.06l-2.57-10c-.4-9.58,3.58-18.93,9.26-26.65s13-14,20.29-20.3l7.8-21.3a57.88,57.88,0,0,0,2.49-18.9,82.36,82.36,0,0,0-1.08-10.28c-1.59-10.13-4.27-20.32-10-28.86-5.2-7.78-12.61-13.77-19.37-20.24-2.19-2.1-4.38-4.34-5.45-7.18-1.87-4.92,0-10.41-.29-15.67l1.47-13.41L1688,914.38c2.47-6.64,5.35-13.77,11.43-17.39,4.06-2.42,9.41-3.19,12-7.12,2.1-3.15,1.64-7.48-.22-10.78s-4.88-5.77-7.92-8A141.39,141.39,0,0,0,1677.66,856c-4.55-2.08-9.33-4-12.92-7.47-7-6.79-7.75-17.71-6.92-27.44,1-11.41,3.5-22.66,4.26-34.09s-.39-23.4-6.2-33.27c-3.64-6.21-8.94-11.28-14.45-15.93a181.65,181.65,0,0,0-92.48-41L1535.44,695c-11.61,7.61-23.37,15.31-36.49,19.84-7.37,2.55-15.12,4.08-22.18,7.4a47.73,47.73,0,0,0-19.34,16.7l-2,3.57a48,48,0,0,0-7.16,12.19c-1,2.36-1.71,4.79-2.76,7.1a57.71,57.71,0,0,1-3.52,6.34q-7.25,11.72-15.25,22.94-3.56-9.06-7.9-17.79c-1.29-2.6-3-5.43-5.77-6.1a7.6,7.6,0,0,1-1.64-.42c-1.23-.6-2.08-2.34-3.41-2a10.72,10.72,0,0,0-2.37-3.26,3.67,3.67,0,0,0-3.78-.72,2.27,2.27,0,0,0-.87,3.37c1.06,1.11,2.94.5,4.39,1a5.71,5.71,0,0,1,2.38,2.07c3.86,4.89,7.79,9.92,9.63,15.87,1.76,5.66,1.48,11.75.55,17.61-2-5.18-4.1-10.41-7.65-14.67s-8.78-7.45-14.31-7.24a4,4,0,0,0-4.19-1.84,2.85,2.85,0,0,0-1.91,3.8c.64,1.25,2.17,1.67,3.51,2.1,6,1.91,10.87,6.25,15.54,10.48,1.82,1.65,3.79,3.63,3.69,6.09l-1.65,2-2.79,3.05a12,12,0,0,1-1.19,1.18,12.54,12.54,0,0,1-1.62,1.06L1398,811l-.33,1.39c0,.43-.71.48-1,.15a2.36,2.36,0,0,1-.33-1.21c-.29-2-2.17-3.27-3.88-4.32-1.29-.79-3.15-1.53-4.16-.4a2.68,2.68,0,0,0-.57,1.4,6.64,6.64,0,0,0,2.5,6.15,25.94,25.94,0,0,0-4.11,6.29c-.1.21-.21.45-.44.52a.81.81,0,0,1-.68-.2c-1.91-1.29-3.47-3-5.35-4.38s-4.31-2.22-6.49-1.46l-.54-1.55c-18.3-23.74-37.2-47.62-61.58-65.06l-3.4-1.13c-14.47-6.21-25.45-18.53-39.31-26-21.88-11.76-48.75-10.18-72.54-3-3.76,1.13-8.07,3-8.79,6.88l-1.75,2.6c-6.86,7-7.75,17.92-6.27,27.59,2.07,13.63,8,26.45,15.41,38s16.5,22.07,25.51,32.5a29.32,29.32,0,0,1,4.56,6.37c1.76,3.73,1.85,8,2.06,12.1.55,11.13,2.29,22.66,8.53,31.89,4.38,6.48,10.68,11.39,16.87,16.17l1,1.77a26.12,26.12,0,0,0,5.31,23.52,41,41,0,0,0-19.26-8.88c-5.65-1-11.43-.72-17.11-1.4-17.68-2.14-33-13-49.62-19.21-17.27-6.48-36.12-8-54.51-6.53a67.36,67.36,0,0,0-17.49,3.3c-6.24,2.26-11.83,6-17.36,9.64-3.51,2.34-7.06,4.71-9.89,7.83-8.41,9.32-8.77,23.15-8.66,35.7l-8-4.21-2.26-1.85c-6-3.58-13.12-4.49-20-5.32s-14-1.68-20.93-.68-13.85,4.07-18,9.69c-3.71,5-5.35,12-10.84,14.92,3.68.34,8,1.1,9.63,4.43,1.85,3.8-1.07,8-2.79,11.9-2.12,4.77-2.4,10.13-2.65,15.35a57.65,57.65,0,0,0,.32,12.6c.85,4.86,3,9.4,5,13.88l15.25,33,.75.91c-5.72,4-9.25,10.47-11.21,17.15s-2.53,13.69-3.54,20.58a6.37,6.37,0,0,1-.84,2.72,2.22,2.22,0,0,1-2.47,1l.47,1a144.5,144.5,0,0,0,30.83,14.13l2.34,1.55c1.8,4,3.68,8,5.56,12.06a64.64,64.64,0,0,0,3.12,6.09c1.48,2.48,3.3,4.78,4.38,7.46,1.44,3.58,1.5,7.66,3.37,11,2.31,4.18,7.24,7,8,11.68a81.24,81.24,0,0,0-23.56.34l-8.29,6.21c-2,1.84-3,4.4-4.6,6.56-.85,1.17-1.84,2.22-2.79,3.31a56.79,56.79,0,0,0-11,19l1.09,12.12c-1.69,7.54,1.25,15.24,3.26,22.71,3.55,13.14,4.29,26.85,5,40.44l.08,14.9-.3,6.68a25,25,0,0,1-.73,5.86c-.64,2.16-1.85,4.12-2.49,6.28a25,25,0,0,0-.61,7.54l-1.22,8.93c-4.18.13-8.25-1.17-12.31-2.17a87.15,87.15,0,0,0-24.93-2.41l-12.65-2.72c-8.25-.86-16.49,1.31-24.77,1.83-4.4.27-8.82.08-13.24.19a99.17,99.17,0,0,0-17.6,2l-6.28,4.54c-6.88.9-12.8,5.22-18.08,9.72s-10.44,9.43-16.88,12a1.19,1.19,0,0,1-.55.12,1.34,1.34,0,0,1-.8-.57,11,11,0,0,0-14.67-1.42l-11,4.45c-16.21,8.37-33.12,17.37-43.16,32.59-7.11,10.76-10.12,23.92-9.8,36.82.11,4.49.67,9.16,3.07,13s7.08,6.48,11.43,5.31l7.24,5.18c4-1.41,8.37-.8,12.31.65s7.5,3.72,11.2,5.7A88.77,88.77,0,0,0,857,1445c8.18.65,16.42.15,24.63.21a183.64,183.64,0,0,1,51.12,7.63l15.53,7c4.05-2.47,9.19-2.32,13.81-1.24a74.65,74.65,0,0,1,8.6,2.73,17,17,0,0,1,5.5,2.82c1.78,1.56,2.93,3.88,5,4.94l28.39,32.4a325.35,325.35,0,0,1,3.45,85.79L1003,1592.4c-5.33-1.27-10.84-2.63-15.14-6A35.59,35.59,0,0,1,982,1580c-10.15-13-20-27.19-34.66-34.83l-14.72-2.28c-27.89,6.53-50.36,26.53-71.53,45.83l-33.56,30.6-4.33,11c-4.88,7.75-9.88,15.42-14.87,23.09L805,1658.5a2.65,2.65,0,0,1-.56.69,2.68,2.68,0,0,1-1.27.47c-3.1.56-6.45.78-9,2.69a20.74,20.74,0,0,0-3.62,4.18,33.8,33.8,0,0,1-5.41,5.61,2.35,2.35,0,0,1-1,.58,2.44,2.44,0,0,1-1.18-.22,55.2,55.2,0,0,1-5.36-2.32l-2.47-3c-15-5.81-33,.61-47.39-6.46l-12.5-1.29a37.09,37.09,0,0,0-22-.39c-2.59.75-5.8,1.64-7.63-.34-1.23-1.32-1.17-3.43-.49-5.1a39,39,0,0,1,2.77-4.65,27,27,0,0,0,2.64-7.86c2.63-12.36,3.34-25.6-1.41-37.31-2.38-5.85-6-11.1-8.76-16.79s-4.56-12.2-2.94-18.31l-11.41.18-10,19.87a666.83,666.83,0,0,0-30.8,88.37l-1,26.17c-5.15,17.56-2.92,36.79-9.11,54l-1,4.5c1.88,11-1,22.34-4.51,33s-7.78,21.2-8.79,32.36a5.25,5.25,0,0,1-.68,2.6c-.69,1-1.95,1.33-3,1.91-3,1.61-4.31,5.06-5.39,8.25q-6.76,19.88-11.6,40.34l-10.1,8.72c-5.48,6.59-7.81,15.21-9.32,23.64s-2.37,17.09-5.52,25.06l-6.93,20q-5.88,23-11.77,46c-3.33,13-6.66,26.57-3.54,39.6,2.46,10.26,8.86,19.69,8.74,30.24-.1,8.58-4.27,18.28,1,25a17,17,0,0,0,7.09,4.86c9,3.75,20.5,3.53,27.3-3.46s6.78-18.42,11.52-27.12c4.89-9,14.46-14.34,20.84-22.32,5.56-6.93,8.51-15.61,10.29-24.32,3.89-19,2.68-38.68,5.67-57.83,2.36-15.14,7.3-29.73,12.27-44.22,5-14.72,10.52-30,21.81-40.75,17-16.1,42.55-18,65.93-18.91L783,1862l8.85-3.93a62.17,62.17,0,0,0,10.25-11.48l7.41-6.17a132.82,132.82,0,0,0-1.84-29.8,32.57,32.57,0,0,0-3.07-10.08,13.19,13.19,0,0,0-7.83-6.69l-2.41-6.4a73.86,73.86,0,0,1-6.16-38.59l4.85-9.75,9.42-.07,5.5,0c1.92,0,3.84,0,5.76,0a61.86,61.86,0,0,1,22.33,5.16l3,14.18q-.23,16.63-.46,33.26l-2.31,7.29c1.53,12.9,3.09,25.93,7.63,38.1l4.67,9a37.48,37.48,0,0,1,17,7.81c6.73,5.5,11.29,13.14,15.77,20.59,9.87,16.39,20.09,32.63,31.92,47.66,14.47,18.38,31.25,34.82,48.49,50.64,5.73,5.26,11.62,10.53,18.63,13.89,8.37,4,17.82,5.09,27.06,6.09l12.07-7.28,10.5-2.32a87.9,87.9,0,0,0,14.8-4.17c3.21-1.33,6.28-3,9.62-4,5.33-1.6,11-1.28,16.54-2a15.79,15.79,0,0,0,5.62-1.55,16.58,16.58,0,0,0,3.83-3.06,68.21,68.21,0,0,0,9.44-11.79l1.37-18.58c.31-16.45.61-33-2.58-49.2s-10.2-32-22.42-43l-6.16-2.76c-.73.76-1.94.66-3,.63a14,14,0,0,0-6.3,1.28,11.89,11.89,0,0,1-4,1.49,7.6,7.6,0,0,1-3-.6c-8.4-3.06-15.7-8.65-24.14-11.6-3.77-1.32-8.12-2.37-10.21-5.78-1.07-1.75-1.69-4.22-3.7-4.67l-3.25-6.84v-18.62l1.28-11.7c-.38-11.75-.82-23.78-5.17-34.71-.89-2.23-2.1-4.58-4.3-5.56l.15-10.27,0-4.19c2.87.31,5.63-1,8.21-2.34,4.19-2.14,8.76-4.69,10.26-9.15a18.25,18.25,0,0,0,8.61,1.37l-1.12,12.11a122.33,122.33,0,0,0,7.24,26.71c2.11,5.29,4.77,10.66,9.4,14l10.73,2.15c12.5-7,26.73-13.52,40.61-10.12,9.62,2.36,17.42,9.16,24.84,15.71,6.19,5.47,12.4,10.93,19.08,15.79,36.75,26.69,87.59,32.62,129.49,15.1,8.11-3.39,16.08-7.74,21.73-14.47l5.79-6c4.14-1,8.16-3.89,9-8.07a18.65,18.65,0,0,0,.18-3.74,62.89,62.89,0,0,1,1.11-12.09l5.22-9.83a52,52,0,0,1,26.72,23c2.62,4.7,4.54,10,4.24,15.37l7.72,8.31c38.2,22.26,79.68,40.53,123.65,45.19,13.22,1.4,26.53,1.56,39.83,1.72,14.66.17,30.17.13,42.79-7.34,2.21-1.3,4.38-2.92,5.48-5.23s1-5.21.81-7.87c-3.91-54.13-13.65-110.43-46.62-153.53l-7.55-9.28c-3.79-9.85,5.35-20.57,15.51-23.46s21-.72,31.53-.72,22.51-3.22,27.25-12.66a28.48,28.48,0,0,0,2.5-11.41c.54-11.11-1.51-22.17-2-33.28s.71-22.86,7-32c4.21-6.12,10.47-10.77,13.79-17.41,4.17-8.32,3-18.18,2-27.43-2.47-22-3.55-45,4.7-65.47,10.14-25.23,32.91-43.18,46.34-66.83a101.5,101.5,0,0,0,13-42.86l-1.22-10.9a269.08,269.08,0,0,1,11.06-46.75q5.07,1.15,10,2.74l5.78-2.9q8.6-1.1,17-3l6.44-1.36c3.25-.18,6.51-.26,9.76-.23l12.81-3.35a81.12,81.12,0,0,0,8.81-3.17c3.63-1.63,7-3.81,10.81-5,5.2-1.71,10.81-1.57,16.28-1.41l5.59-1a35.3,35.3,0,0,0,9.13-1.39,11.29,11.29,0,0,0,3.6-1.59,8.57,8.57,0,0,0,3.14-6.83A17.92,17.92,0,0,0,1790.66,1242.2Zm-401.18,297.3c-.67,5.41-1,10.86-1.32,16.31q-.66,10.76-1.3,21.52l-6,8.38c-5.74,3.77-13.27,2.69-20,1.36-8.93-1.76-18.25-3.93-25-10l-2.54-10.79c-2.41-8.56-9.62-14.83-13.79-22.67-5.31-10-5.41-21.82-5.38-33.12l.09-35.71,4.07-4.08a63,63,0,0,1,11.58.72,21.33,21.33,0,0,1,10.44,4.76l14.2,2.2c14.5,2.65,30,.37,43.62,6l7.1,3C1397.59,1503.92,1391.69,1521.41,1389.48,1539.5Z"></path>
    <path data-name="2" data-official="Hypericum pulchrum" data-plain="Upright St. John’s Wort" data-loc="England" d="M883.62,1940.91c1.6,5.62,1.58,11.56,1.56,17.4a41.41,41.41,0,0,1-.8,9.57,22.84,22.84,0,0,1-11.62,14.45,28.19,28.19,0,0,1-18.58,2.41c-5.63-1.14-10.85-3.77-16.37-5.36-7.23-2.08-15-2.36-21.86-5.47a7.32,7.32,0,0,1-2.28-1.45,8.15,8.15,0,0,1-1.71-3.62c-8.37-30.24-7.05-62.28-12.4-93.19l2.55-29,7.41-6.17a132.82,132.82,0,0,0-1.84-29.8,32.57,32.57,0,0,0-3.07-10.08,13.19,13.19,0,0,0-7.83-6.69l-2.41-6.4a73.86,73.86,0,0,1-6.16-38.59l4.85-9.75,9.42-.07,5.5,0c1.92,0,3.84,0,5.76,0a61.86,61.86,0,0,1,22.33,5.16l3,14.18q-.23,16.63-.46,33.26l-2.31,7.29c1.53,12.9,3.09,25.93,7.63,38.1l4.67,9,9.62,13.89c8.45,22.49,10.48,47.14,20.38,69C880.41,1932.94,882.43,1936.78,883.62,1940.91Zm166.19-791.84a81.24,81.24,0,0,0-23.56.34l-8.29,6.21c-2,1.84-3,4.4-4.6,6.56-.85,1.17-1.84,2.22-2.79,3.31a56.79,56.79,0,0,0-11,19l-45.8,118.16c-8.25-.86-16.49,1.31-24.77,1.83-4.4.27-8.82.08-13.24.19a99.17,99.17,0,0,0-17.6,2l-6.28,4.54c-6.88.9-12.8,5.22-18.08,9.72s-10.44,9.43-16.88,12a1.19,1.19,0,0,1-.55.12,1.34,1.34,0,0,1-.8-.57,11,11,0,0,0-14.67-1.42l-11,4.45c-16.21,8.37-33.12,17.37-43.16,32.59-7.11,10.76-10.12,23.92-9.8,36.82.11,4.49.67,9.16,3.07,13s7.08,6.48,11.43,5.31l7.24,5.18c4-1.41,8.37-.8,12.31.65s7.5,3.72,11.2,5.7A88.77,88.77,0,0,0,857,1445c8.18.65,16.42.15,24.63.21a183.64,183.64,0,0,1,51.12,7.63l-4.84,16a281,281,0,0,1-7.57,64.46l12.27,9.54c-27.89,6.53-50.36,26.53-71.53,45.83l-33.56,30.6-4.33,11c-4.88,7.75-9.88,15.42-14.87,23.09L805,1658.5a2.65,2.65,0,0,1-.56.69,2.68,2.68,0,0,1-1.27.47c-3.1.56-6.45.78-9,2.69a20.74,20.74,0,0,0-3.62,4.18,33.8,33.8,0,0,1-5.41,5.61,2.35,2.35,0,0,1-1,.58,2.44,2.44,0,0,1-1.18-.22,55.2,55.2,0,0,1-5.36-2.32l-2.47-3c-15-5.81-33,.61-47.39-6.46l-12.5-1.29a37.09,37.09,0,0,0-22-.39c-2.59.75-5.8,1.64-7.63-.34-1.23-1.32-1.17-3.43-.49-5.1a39,39,0,0,1,2.77-4.65,27,27,0,0,0,2.64-7.86c2.63-12.36,3.34-25.6-1.41-37.31-2.38-5.85-6-11.1-8.76-16.79s-4.56-12.2-2.94-18.31l-.78-2.33a217.57,217.57,0,0,1,4.53-39.82,50.07,50.07,0,0,1,3.62-11.82,28.67,28.67,0,0,1,16.85-14.59c4.09-1.31,8.92-2,11.36-5.51s1.37-8.22.23-12.32l-17-23.82A303.46,303.46,0,0,1,650,1393.37c-7.52-14.23-14-29.27-24.74-41.29-2.89-3.26-6.15-6.32-10.11-8.13-10.17-4.65-21.88-.12-32.69,2.77s-24.8,2.81-30.35-6.9c-6.31-11,3.55-24.54,2.8-37.24-.61-10.41-8.29-19-16.33-25.61s-17.13-12.53-22.53-21.45c-5.88-9.7-6.56-21.55-9.18-32.59-6.3-26.61-24.13-49-33-74.88-3.66-10.62-5.76-22.21-2.88-33.07s11.68-20.68,22.83-22c8.35-1,18.95,1.84,23.68-5.12a16.53,16.53,0,0,0,2.23-7.12c2.5-18,.74-38,11.9-52.26,2.77-3.53,6.26-6.6,8.1-10.69,4.12-9.15-1.34-19.54-6.63-28.07l-16.14-6.33c-7-19.62-27.49-30.26-43-44.18-14.16-12.73-24.65-29-33.87-45.65-8.1-14.62-15.44-29.94-18.39-46.39s-1.14-34.28,8-48.29c18.47-28.36,61.26-34.55,76.66-64.7,13.58-26.58-.32-60.17,10.16-88.12,8.9-23.72,33-37.79,48.32-58C591.69,552.76,589,503,609.1,463.38l9.08-5.19c27.71-14.72,60.6-22.11,90.86-13.8a40.78,40.78,0,0,1,8.26,3.07c10.47,5.47,16,17,23.84,25.81,4.6,5.15,10.09,9.41,15,14.24s9.42,10.43,11.26,17.09l8.49,13.67a103.4,103.4,0,0,0,31.33,31.55c5,3.22,10.33,6,14.65,10.13l11,8.2a185,185,0,0,1,18,39.49c2.76,8.63,5.05,17.77,10.93,24.65,2.83,3.3,6.35,5.91,9.63,8.74,5.25,4.52,10,9.75,13,16s4,13.6,1.85,20.16L880.68,680a149.24,149.24,0,0,1-20,3.74l-4.31,5.57c-3.08,1.21-5.07,4.35-5.78,7.58s-.34,6.59,0,9.88l1,7.65A65.37,65.37,0,0,0,857.43,729a12.92,12.92,0,0,0,3.76,4.75c3.09,2.11,7.21,1.51,10.89.82l22-4.1c2.42-.46,5-.9,7.32-.09a13.52,13.52,0,0,1,5.17,3.95,134.23,134.23,0,0,1,13.54,17.16,23,23,0,0,1,3.23,6.29c1.51,5.27-.52,10.8-1.83,16.13s-1.6,11.71,2.38,15.48c1.57,1.49,3.63,2.35,5.48,3.48,7.28,4.41,11.34,12.86,12.48,21.29s-.24,17-1.62,25.38l-1.44,6.91c.91,6.55-4.9,12.09-6.22,18.57-1.18,5.82,1.22,12.48-2,17.44a16.63,16.63,0,0,1,10.16-4.61,49.72,49.72,0,0,1,11.36.4l1.82-1.39a33.93,33.93,0,0,0,3.86-5.79,10.15,10.15,0,0,1,3,5q3.78-.49,7.59-.61c2.54-.08,5.2,0,7.43,1.21A8.16,8.16,0,0,1,979.5,886l-1,4.31a54.13,54.13,0,0,1-16.65,22.62c4.86-.67,10.07-1.27,14.42,1,4,2.08,6.56,6.34,7.57,10.75s.65,9,.12,13.51l-1.86,2.12-22.53-1.11a17.44,17.44,0,0,1-5.84-.95c-2.32-1-4.1-2.84-6.07-4.39a25.35,25.35,0,0,0-12.69-5.29,2.65,2.65,0,0,0-2,.31,3.63,3.63,0,0,0-.86,1.52c-2,4.5-8.31,4.36-12.59,6.75-1.15.65-2.19,1.51-3.39,2.06a20.91,20.91,0,0,1-5.8,1.17C906,941,902,942.63,898,944.28c-27,11.14-54,22.29-80.39,34.89l-1.07,2.33c-12,51-44.51,104.76-44.51,104.76,7.47,1.07,15.12,2.14,22.51.6,2.64-.56,5.22-1.44,7.88-1.86a23.6,23.6,0,0,1,15.81,3.14,16.54,16.54,0,0,1,5.42-13.49l.92-1.77c-2.25-1.08-4.64-2.3-5.85-4.48a9.14,9.14,0,0,1-.92-4.65,17.77,17.77,0,0,1,9.57-15.07c8.68-4.36,19.08-.86,28.08,2.79s19.2,7.44,28.1,3.54a52,52,0,0,1-12-23.08,45.82,45.82,0,0,1,10.16,7.32l.24-2.62a45.77,45.77,0,0,1-4-16.34c-.38-7.12,1.07-14.63,5.6-20.14s12.59-8.42,19.14-5.6c6.87,3,10,10.74,12.58,17.78l4.52,12.6c.58,1.62,1.43,3.48,3.11,3.82s3.07-.92,4.23-2.07c4.65-4.62,9.37-9.38,15.28-12.19,6.1-2.88,13-3.47,19.78-3.2,5.27.22,11.11,1.24,14.3,5.45,2.4,3.16,2.73,7.42,2.43,11.38-1.45,19.58-17.09,37.23-36.35,41l-.28.34a40.58,40.58,0,0,1,25,17.06,5.58,5.58,0,0,1,1.15,2.82c0,.93-.35,1.88-.1,2.77.38,1.31,1.88,1.85,3,2.57a7.28,7.28,0,0,1,1.37,10.7c-1.08,1.14-2.59,2-3.25,3.39-1,2.09.23,4.61-.36,6.84-.95,3.58-5.63,4.41-9.32,4.16a55.18,55.18,0,0,1-40.51-22.53c-.42,12.08,1.49,24.11,2.48,36.17s1,24.48-3,35.88l9.11,3.84c10.44-2.33,18.63-10.43,24.94-19.07s11.43-18.25,19-25.86l7.09-6.17c.76-1.94,3-2.79,4.37-4.38a8.4,8.4,0,0,0,1.57-3.35c2.15-8.36-2.28-16.86-3.19-25.44a5.92,5.92,0,0,1,.22-2.87,4.4,4.4,0,0,1,3.16-2.4,12.87,12.87,0,0,1,4.11-.06l2.73.5.47,1a144.5,144.5,0,0,0,30.83,14.13l2.34,1.55c1.8,4,3.68,8,5.56,12.06a64.64,64.64,0,0,0,3.12,6.09c1.48,2.48,3.3,4.78,4.38,7.46,1.44,3.58,1.5,7.66,3.37,11C1044.13,1141.57,1049.06,1144.36,1049.81,1149.07ZM848.1,950.77,883,934.44c5.13-2.4,10.93-5.68,11.68-11.29a5.86,5.86,0,0,0-1-4.36,3.61,3.61,0,0,0-4.08-1.26c1.91-5.16,8-7.15,13.34-8.48l-4.68-25.15a3.8,3.8,0,0,0-1.27-2.63,3.7,3.7,0,0,0-2.67-.25,62.65,62.65,0,0,0-26.48,11.14L863,899.92l.17,15.37a69.81,69.81,0,0,1-.65,12.93A35.33,35.33,0,0,1,848.1,950.77ZM725.46,1168.14c.93-9.74,2.84-19.56,1.37-29.23-16.87,9-28,27.21-29.84,46.23-.69,7.27,0,14.92,3.52,21.29s10.52,11.19,17.81,10.68l7.78-1.32C725,1199.92,724,1184,725.46,1168.14Zm12.2-51.12a35.79,35.79,0,0,1,21.93-26.89l3.4-3.87S795.5,1032.5,807.5,981.5l1.16-3.8,2.3-9.13a11.37,11.37,0,0,0,.52-4.12,12.41,12.41,0,0,0-1-3.07A53.24,53.24,0,0,1,807,938.52l-5.87-5.36a12.82,12.82,0,0,0-8-1.25l-3,4.69A300.61,300.61,0,0,0,748,1008.8l-2.22,9c-7,15.14-9.18,32.06-9.57,48.72s.91,33.33.52,50ZM859,1195.89a307.16,307.16,0,0,1-4.44-58.16c-3.06,2.41-7.63.88-10.75-1.45a25.7,25.7,0,0,1-9.86-16.53l-1.08,1.84c-4.74,8.06-13,13.26-21,18.16l-13,8c-6.26,3.84-12.57,7.71-19.46,10.25s-14.48,3.7-21.62,2-13.71-6.68-16.21-13.59l4.29,67.22c.13,2,.42,4.32,2.1,5.43l3.67,2.91c35.72,4.32,73.68-.1,104-19.44Zm54-101.45a17.9,17.9,0,0,0-6.64-3.93c1.24,5.15-1.08,10.65-4.73,14.49s-8.47,6.3-13.26,8.57c-4.12,2-8.29,3.83-12.46,5.69L865,1124.15l1.32,2.26a226.26,226.26,0,0,0,.19,51.89,125.24,125.24,0,0,0,3.74,19.8,3.37,3.37,0,0,0,3.57,3.08c6,.69,13,.22,16.43-4.68l8.08-6.18c8.21-6.47,11.18-17.48,12.72-27.81a173.36,173.36,0,0,0,1-42.94C911.14,1111.13,909.72,1102.26,913,1094.44Z"></path>
    <path data-name="2a" data-official="" data-plain="Cross section of Seed-vessel" data-loc="" d="M657.18,1991.69a284.16,284.16,0,0,1-2-42.36c.14-4.87.41-9.79,1.88-14.43,1.82-5.74,5.38-10.74,9.08-15.48,3.21-4.11,6.65-8.16,11.05-11,5.43-3.47,11.93-4.79,18.29-5.85,12.15-2,24.69-3.29,36.71-.61,17.17,3.83,32.16,16,40,31.72a65.26,65.26,0,0,1,2.32,51.25,71.27,71.27,0,0,1-34.72,38.09c-10.79,5.38-23.31,8.43-31.39,17.38-3.93,4.35-6.58,9.89-11.22,13.47-6.5,5-15.39,5.09-23.58,5l-24.54-.39a13.22,13.22,0,0,1-6.09-1.07c-3.79-2-4.62-7-4.78-11.35-.28-7.78.36-16.07,4.93-22.38,2.91-4,7.15-6.84,10.54-10.46s6-8.74,4.43-13.45Z"></path>
    <path data-name="2b" data-official="" data-plain="Sepal of Calyx, magnified" data-loc="" d="M838.51,1987.2c2.66,9.74,5.34,20,3,29.8-1.71,7.25-6.1,14.1-5.39,21.52.83,8.66,8.28,15.06,15.62,19.73,4.6,2.94,9.57,5.77,12.43,10.42,4,6.51,2.86,14.8,1.58,22.33a7.7,7.7,0,0,1-1.39,3.84,7.8,7.8,0,0,1-3.13,1.88,64.72,64.72,0,0,1-13.82,4.17c-6.9,1.05-13.93.1-20.87-.61a293.53,293.53,0,0,0-53.44-.55c-5.87.48-11.8,1.13-17.64.3s-11.69-3.33-15.24-8c-2.64-3.51-3.78-7.9-4.58-12.22a63.09,63.09,0,0,1-1.16-15.86c.8-11.39,5.87-22.15,12.62-31.36s15.15-17,23.5-24.84l27.08-25.26a89.87,89.87,0,0,0,9.36-9.66l4.9-4a8.15,8.15,0,0,0,1.71,3.62,7.32,7.32,0,0,0,2.28,1.45c6.85,3.11,14.63,3.39,21.86,5.47Z"></path>
    <path data-name="3" data-official="Androsæmum officinale" data-plain="Tutsan" data-loc="England" d="M1050.81,1845a11.89,11.89,0,0,1-4,1.49,7.6,7.6,0,0,1-3-.6c-8.4-3.06-15.7-8.65-24.14-11.6-3.77-1.32-8.12-2.37-10.21-5.78-1.07-1.75-1.69-4.22-3.7-4.67l-3.25-6.84v-18.62l1.28-11.7c-.38-11.75-.82-23.78-5.17-34.71-.89-2.23-2.1-4.58-4.3-5.56l.15-10.27,0-4.19c2.87.31,5.63-1,8.21-2.34,4.19-2.14,8.76-4.69,10.26-9.15a18.25,18.25,0,0,0,8.61,1.37l-1.12,12.11a122.33,122.33,0,0,0,7.24,26.71c2.11,5.29,4.77,10.66,9.4,14l10.73,2.15Zm-118.07-392.1,15.53,7c4.05-2.47,9.19-2.32,13.81-1.24a74.65,74.65,0,0,1,8.6,2.73,17,17,0,0,1,5.5,2.82c1.78,1.56,2.93,3.88,5,4.94l28.39,32.4a325.35,325.35,0,0,1,3.45,85.79L1003,1592.4c-5.33-1.27-10.84-2.63-15.14-6A35.59,35.59,0,0,1,982,1580c-10.15-13-20-27.19-34.66-34.83l-14.72-2.28m67-358.37,1.09,12.12c-1.69,7.54,1.25,15.24,3.26,22.71,3.55,13.14,4.29,26.85,5,40.44l.08,14.9-.3,6.68a25,25,0,0,1-.73,5.86c-.64,2.16-1.85,4.12-2.49,6.28a25,25,0,0,0-.61,7.54l-1.22,8.93c-4.18.13-8.25-1.17-12.31-2.17a87.15,87.15,0,0,0-24.93-2.41l-12.65-2.72m-21,150.17-4.84,16a281,281,0,0,1-7.57,64.46l12.27,9.54m67-358.37-45.8,118.16M848.1,950.77,883,934.44c5.13-2.4,10.93-5.68,11.68-11.29a5.86,5.86,0,0,0-1-4.36,3.61,3.61,0,0,0-4.08-1.26c1.91-5.16,8-7.15,13.34-8.48l-4.68-25.15a3.8,3.8,0,0,0-1.27-2.63,3.7,3.7,0,0,0-2.67-.25,62.65,62.65,0,0,0-26.48,11.14L863,899.92l.17,15.37a69.81,69.81,0,0,1-.65,12.93A35.33,35.33,0,0,1,848.1,950.77ZM725.46,1168.14c.93-9.74,2.84-19.56,1.37-29.23-16.87,9-28,27.21-29.84,46.23-.69,7.27,0,14.92,3.52,21.29s10.52,11.19,17.81,10.68l7.78-1.32C725,1199.92,724,1184,725.46,1168.14Zm12.2-51.12a35.79,35.79,0,0,1,21.93-26.89l3.4-3.87S795.5,1032.5,807.5,981.5l1.16-3.8,2.3-9.13a11.37,11.37,0,0,0,.52-4.12,12.41,12.41,0,0,0-1-3.07A53.24,53.24,0,0,1,807,938.52l-5.87-5.36a12.82,12.82,0,0,0-8-1.25l-3,4.69A300.61,300.61,0,0,0,748,1008.8l-2.22,9c-7,15.14-9.18,32.06-9.57,48.72s.91,33.33.52,50ZM859,1195.89a307.16,307.16,0,0,1-4.44-58.16c-3.06,2.41-7.63.88-10.75-1.45a25.7,25.7,0,0,1-9.86-16.53l-1.08,1.84c-4.74,8.06-13,13.26-21,18.16l-13,8c-6.26,3.84-12.57,7.71-19.46,10.25s-14.48,3.7-21.62,2-13.71-6.68-16.21-13.59l4.29,67.22c.13,2,.42,4.32,2.1,5.43l3.67,2.91c35.72,4.32,73.68-.1,104-19.44Zm54-101.45a17.9,17.9,0,0,0-6.64-3.93c1.24,5.15-1.08,10.65-4.73,14.49s-8.47,6.3-13.26,8.57c-4.12,2-8.29,3.83-12.46,5.69L865,1124.15l1.32,2.26a226.26,226.26,0,0,0,.19,51.89,125.24,125.24,0,0,0,3.74,19.8,3.37,3.37,0,0,0,3.57,3.08c6,.69,13,.22,16.43-4.68l8.08-6.18c8.21-6.47,11.18-17.48,12.72-27.81a173.36,173.36,0,0,0,1-42.94C911.14,1111.13,909.72,1102.26,913,1094.44ZM1071,1973c-5.52.69-11.21.37-16.54,2-3.34,1-6.41,2.7-9.62,4a87.9,87.9,0,0,1-14.8,4.17l-10.5,2.32-12.07,7.28-5,8.22c-5.06,21.39-8.62,43.8-3.81,65.24,1.07,4.77,2.65,9.64,6,13.18,6.49,6.81,17.2,6.68,26.58,6.06,8.6-.57,17.61-1.27,24.9-5.87a36,36,0,0,0,10.93-11.67c7.42-11.91,10.26-26.21,10.39-40.24s-2.28-28-4.69-41.77ZM709,444.39a40.78,40.78,0,0,1,8.26,3.07c10.47,5.47,16,17,23.84,25.81,4.6,5.15,10.09,9.41,15,14.24s9.42,10.43,11.26,17.09l8.49,13.67a103.4,103.4,0,0,0,31.33,31.55c5,3.22,10.33,6,14.65,10.13l11,8.2a185,185,0,0,1,18,39.49c2.76,8.63,5.05,17.77,10.93,24.65,2.83,3.3,6.35,5.91,9.63,8.74,5.25,4.52,10,9.75,13,16s4,13.6,1.85,20.16L880.68,680a149.24,149.24,0,0,1-20,3.74l-4.31,5.57c-3.08,1.21-5.07,4.35-5.78,7.58s-.34,6.59,0,9.88l1,7.65A65.37,65.37,0,0,0,857.43,729a12.92,12.92,0,0,0,3.76,4.75c3.09,2.11,7.21,1.51,10.89.82l22-4.1c2.42-.46,5-.9,7.32-.09a13.52,13.52,0,0,1,5.17,3.95,134.23,134.23,0,0,1,13.54,17.16,23,23,0,0,1,3.23,6.29c1.51,5.27-.52,10.8-1.83,16.13s-1.6,11.71,2.38,15.48c1.57,1.49,3.63,2.35,5.48,3.48,7.28,4.41,11.34,12.86,12.48,21.29s-.24,17-1.62,25.38l-1.44,6.91c.91,6.55-4.9,12.09-6.22,18.57-1.18,5.82,1.22,12.48-2,17.44a16.63,16.63,0,0,1,10.16-4.61,49.72,49.72,0,0,1,11.36.4l1.82-1.39a33.93,33.93,0,0,0,3.86-5.79,10.15,10.15,0,0,1,3,5q3.78-.49,7.59-.61c2.54-.08,5.2,0,7.43,1.21A8.16,8.16,0,0,1,979.5,886l-1,4.31a54.13,54.13,0,0,1-16.65,22.62c4.86-.67,10.07-1.27,14.42,1,4,2.08,6.56,6.34,7.57,10.75s.65,9,.12,13.51l-1.86,2.12-22.53-1.11a17.44,17.44,0,0,1-5.84-.95c-2.32-1-4.1-2.84-6.07-4.39a25.35,25.35,0,0,0-12.69-5.29,2.65,2.65,0,0,0-2,.31,3.63,3.63,0,0,0-.86,1.52c-2,4.5-8.31,4.36-12.59,6.75-1.15.65-2.19,1.51-3.39,2.06a20.91,20.91,0,0,1-5.8,1.17C906,941,902,942.63,898,944.28c-27,11.14-54,22.29-80.39,34.89l-1.07,2.33c-12,51-44.51,104.76-44.51,104.76,7.47,1.07,15.12,2.14,22.51.6,2.64-.56,5.22-1.44,7.88-1.86a23.6,23.6,0,0,1,15.81,3.14,16.54,16.54,0,0,1,5.42-13.49l.92-1.77c-2.25-1.08-4.64-2.3-5.85-4.48a9.14,9.14,0,0,1-.92-4.65,17.77,17.77,0,0,1,9.57-15.07c8.68-4.36,19.08-.86,28.08,2.79s19.2,7.44,28.1,3.54a52,52,0,0,1-12-23.08,45.82,45.82,0,0,1,10.16,7.32l.24-2.62a45.77,45.77,0,0,1-4-16.34c-.38-7.12,1.07-14.63,5.6-20.14s12.59-8.42,19.14-5.6c6.87,3,10,10.74,12.58,17.78l4.52,12.6c.58,1.62,1.43,3.48,3.11,3.82s3.07-.92,4.23-2.07c4.65-4.62,9.37-9.38,15.28-12.19,6.1-2.88,13-3.47,19.78-3.2,5.27.22,11.11,1.24,14.3,5.45,2.4,3.16,2.73,7.42,2.43,11.38-1.45,19.58-17.09,37.23-36.35,41l-.28.34a40.58,40.58,0,0,1,25,17.06,5.58,5.58,0,0,1,1.15,2.82c0,.93-.35,1.88-.1,2.77.38,1.31,1.88,1.85,3,2.57a7.28,7.28,0,0,1,1.37,10.7c-1.08,1.14-2.59,2-3.25,3.39-1,2.09.23,4.61-.36,6.84-.95,3.58-5.63,4.41-9.32,4.16a55.18,55.18,0,0,1-40.51-22.53c-.42,12.08,1.49,24.11,2.48,36.17s1,24.48-3,35.88l9.11,3.84c10.44-2.33,18.63-10.43,24.94-19.07s11.43-18.25,19-25.86l7.09-6.17c.76-1.94,3-2.79,4.37-4.38a8.4,8.4,0,0,0,1.57-3.35c2.15-8.36-2.28-16.86-3.19-25.44a5.92,5.92,0,0,1,.22-2.87,4.4,4.4,0,0,1,3.16-2.4,12.87,12.87,0,0,1,4.11-.06l2.73.5a2.22,2.22,0,0,0,2.47-1,6.37,6.37,0,0,0,.84-2.72c1-6.89,1.58-13.89,3.54-20.58s5.49-13.18,11.21-17.15l-.75-.91-15.25-33c-2.07-4.48-4.17-9-5-13.88a57.65,57.65,0,0,1-.32-12.6c.25-5.22.53-10.58,2.65-15.35,1.72-3.87,4.64-8.1,2.79-11.9-1.62-3.33-5.95-4.09-9.63-4.43,5.49-2.94,7.13-9.92,10.84-14.92,4.17-5.62,11.09-8.69,18-9.69s14-.16,20.93.68,14.07,1.74,20,5.32l2.26,1.85,8,4.21c-.11-12.55.25-26.38,8.66-35.7,2.83-3.12,6.38-5.49,9.89-7.83,5.53-3.67,11.12-7.38,17.36-9.64a67.36,67.36,0,0,1,17.49-3.3c18.39-1.49,37.24,0,54.51,6.53,16.67,6.25,31.94,17.07,49.62,19.21,5.68.68,11.46.44,17.11,1.4a41,41,0,0,1,19.26,8.88,26.12,26.12,0,0,1-5.31-23.52l-1-1.77c-6.19-4.78-12.49-9.69-16.87-16.17-6.24-9.23-8-20.76-8.53-31.89-.21-4.11-.3-8.37-2.06-12.1a29.32,29.32,0,0,0-4.56-6.37c-9-10.43-18.05-20.91-25.51-32.5s-13.34-24.41-15.41-38c-1.48-9.67-.59-20.61,6.27-27.59l1.75-2.6c.72-3.86,5-5.75,8.79-6.88,23.79-7.15,50.66-8.73,72.54,3,13.86,7.45,24.84,19.77,39.31,26l3.4,1.13c24.38,17.44,43.28,41.32,61.58,65.06l.54,1.55c2.18-.76,4.61.13,6.49,1.46s3.44,3.09,5.35,4.38a.81.81,0,0,0,.68.2c.23-.07.34-.31.44-.52a25.94,25.94,0,0,1,4.11-6.29,6.64,6.64,0,0,1-2.5-6.15,2.68,2.68,0,0,1,.57-1.4c1-1.13,2.87-.39,4.16.4,1.71,1,3.59,2.34,3.88,4.32a2.36,2.36,0,0,0,.33,1.21c.27.33,1,.28,1-.15L1398,811l7.33-4.18a12.54,12.54,0,0,0,1.62-1.06,12,12,0,0,0,1.19-1.18l2.79-3.05,1.65-2c.1-2.46-1.87-4.44-3.69-6.09-4.67-4.23-9.54-8.57-15.54-10.48-1.34-.43-2.87-.85-3.51-2.1a2.85,2.85,0,0,1,1.91-3.8,4,4,0,0,1,4.19,1.84c5.53-.21,10.77,3,14.31,7.24s5.68,9.49,7.65,14.67c.93-5.86,1.21-12-.55-17.61-1.84-5.95-5.77-11-9.63-15.87a5.71,5.71,0,0,0-2.38-2.07c-1.45-.51-3.33.1-4.39-1a2.27,2.27,0,0,1,.87-3.37,3.67,3.67,0,0,1,3.78.72,10.72,10.72,0,0,1,2.37,3.26c1.33-.34,2.18,1.4,3.41,2a7.6,7.6,0,0,0,1.64.42c2.81.67,4.48,3.5,5.77,6.1q4.34,8.71,7.9,17.79,8-11.21,15.25-22.94a57.71,57.71,0,0,0,3.52-6.34c1-2.31,1.81-4.74,2.76-7.1a48,48,0,0,1,7.16-12.19l2-3.57a47.73,47.73,0,0,1,19.34-16.7l-6.48-6.23q10.88-54.46,26.31-107.88c2.8-9.7,5.74-19.57,5.4-29.66s-4.61-20.63-13.25-25.84l-15.34-26.88c-16.36,7.89-37.16-1.69-46.59-17.21s-9.72-35-6.79-52.9c7.87-48.07,36.39-91.29,41.36-139.74.82-8,.94-16.31-2-23.8-12.12-31.09-63.3-26.3-80.38-55-14.42-24.2,4.46-53.78,9.32-81.54,8.36-47.74-28.78-93.86-73.26-113.1S1220.41,24.25,1171.94,24q-91-.45-181.71-8.07c-32.31-2.72-65.5-6-96.63,3C871.11,25.51,851,38.2,831.52,51.27c-37.22,25-73.07,52-107.9,80.32C680.66,166.46,638,205,615.9,255.72S598,372.57,639.63,409.07Z"></path>
    <path data-name="4" data-official="Hypericum ægyptiacum" data-plain="Egyptian St. John’s Wort" data-loc="Egypt" d="M1389.48,1539.5c-.67,5.41-1,10.86-1.32,16.31q-.66,10.76-1.3,21.52l-6,8.38c-5.74,3.77-13.27,2.69-20,1.36-8.93-1.76-18.25-3.93-25-10l-2.54-10.79c-2.41-8.56-9.62-14.83-13.79-22.67-5.31-10-5.41-21.82-5.38-33.12l.09-35.71,4.07-4.08a63,63,0,0,1,11.58.72,21.33,21.33,0,0,1,10.44,4.76l14.2,2.2c14.5,2.65,30,.37,43.62,6l7.1,3C1397.59,1503.92,1391.69,1521.41,1389.48,1539.5Zm-45.88,266.26-7.72-8.31c.3-5.38-1.62-10.67-4.24-15.37a52,52,0,0,0-26.72-23l-5.22,9.83a62.89,62.89,0,0,0-1.11,12.09,18.65,18.65,0,0,1-.18,3.74c-.82,4.18-4.84,7.09-9,8.07l-5.79,6c-5.65,6.73-13.62,11.08-21.73,14.47l-3.6,10.83c-7.6,14.92-21.53,25.46-35.36,34.91s-28.35,18.65-38.21,32.18-14,32.8-5.18,47c7.94,12.84,24.61,18.33,39.57,16.35s28.39-10.22,40.08-19.76c33.77-27.57,56.09-66.35,77.66-104.22Zm297.83-1068c5.51,4.65,10.81,9.72,14.45,15.93,5.81,9.87,6.95,21.84,6.2,33.27s-3.28,22.68-4.26,34.09c-.83,9.73-.09,20.65,6.92,27.44,3.59,3.48,8.37,5.39,12.92,7.47a141.39,141.39,0,0,1,25.61,15.09c3,2.25,6.06,4.72,7.92,8s2.32,7.63.22,10.78c-2.62,3.93-8,4.7-12,7.12-6.08,3.62-9,10.75-11.43,17.39l-14.67,39.42-1.47,13.41c.28,5.26-1.58,10.75.29,15.67,1.07,2.84,3.26,5.08,5.45,7.18,6.76,6.47,14.17,12.46,19.37,20.24,5.69,8.54,8.37,18.73,10,28.86a82.36,82.36,0,0,1,1.08,10.28,57.88,57.88,0,0,1-2.49,18.9l-7.8,21.3c-7.27,6.26-14.6,12.58-20.29,20.3s-9.66,17.07-9.26,26.65l2.57,10c3,5.58,8.14,9.69,13.5,13.06s11.09,6.18,16.13,10l34.17,2.75L1744.9,1159c4.17-23.31,30.62-35.28,54.13-38.11a162.82,162.82,0,0,1,56.35,3.1c30.65,7.17,58.44,23,87.45,35.23s61.37,20.92,91.8,12.86c29.25-7.74,52.91-30.36,67.66-56.77s21.58-56.46,26.36-86.33a727.28,727.28,0,0,0,9-100.35c.34-17.06,0-34.74-7.24-50.22-13-28-45.32-42.13-76-44.91-6.51-.59-13.44-.9-18.83-4.62-6.25-4.31-8.91-12.18-10.44-19.62-4.91-23.91-2.24-48.62-.69-73a781.52,781.52,0,0,0-23.81-246.82l-8.38-21.81a651.79,651.79,0,0,0-156-151.57c-12.41-8.54-25.35-16.77-39.84-20.91-16.74-4.78-34.59-3.83-51.8-1.22-53.9,8.17-106.72,33.79-139.28,77.51-38.63,51.85-44.12,120.55-46,185.18-.43,14.76-.71,29.84,3.76,43.91,6.88,21.63,24,38.15,39.39,54.79s30.47,36,31.47,58.72Z"></path>
    <path data-name="4a" data-official="" data-plain="Petal" data-loc="" d="M1664,1995.22c-2.2-6.76,0-14.47,4.56-19.9s11.25-8.8,18.16-10.49,14.08-1.84,21.18-1.79c9.16.08,18.48.52,27.13,3.55,8.41,2.93,16.28,8.31,25.18,8.38,2,0,4-.21,5.75.67,2.31,1.18,3.3,3.91,4,6.42,4.57,17.35,3.37,35.83-.81,53.28a26.73,26.73,0,0,1-2.18,6.42c-3.14,5.91-10.24,9-16.93,8.68-2.91-.15-5.75-.87-8.65-1.09-8.53-.67-16.75,2.84-25.07,4.83-7.38,1.76-15,2.32-22.55,2.88-10,.73-20.27,1.42-29.63-2-4.69-1.73-9.3-4.84-10.93-9.58s.16-10.2,2.89-14.51,6.36-8,8.9-12.44,3.87-10,1.59-14.6Z"></path>
    <path data-name="4b" data-official="" data-plain="Pistils" data-loc="" d="M1787.07,1992c1.54-7.89-1.68-16-.63-24,.88-6.76,4.77-12.88,5.42-19.67,1.22-12.8-9.22-24.22-9.39-37.08-.14-10.82,7.35-20.71,16.86-25.87s20.72-6.26,31.53-5.89c10.35.36,21.43,2.35,28.73,9.71a25.3,25.3,0,0,1,3.28,30.43c-3.81,6-10.17,10.27-12.9,16.82-1.64,4-1.79,8.36-1.58,12.64a81.53,81.53,0,0,0,4.43,22.67c2.29,6.55,5.39,13.87,2.26,20.06-3.76,7.4-15,9.48-17.08,17.51-1.26,4.78,1.34,9.62,3.53,14.06a99.32,99.32,0,0,1,7.93,22.58c1.5,6.8,2.15,14.38-1.5,20.32-4,6.58-12.24,9.27-19.89,10.35a81.54,81.54,0,0,1-29.09-1.14c-6.69-1.49-13.89-4.47-16.55-10.78s.41-13.87,4.65-19.4,9.7-10.26,12.69-16.57c4.92-10.37,1.42-24-7.88-30.75Z"></path>
    <path data-name="4c" data-official="" data-plain="Stamens" data-loc="" d="M1878,1962.72c-1.48-11.8,3-24.06,11.12-32.72a29.2,29.2,0,0,1,9.26-6.88c4.13-1.84,8.73-2.36,13.25-2.48,11.9-.33,24.45,2.2,33.37,10.09s12.86,22,6.61,32.18c-1.46,2.35-3.48,4.9-2.69,7.55.88,3,4.53,3.81,7.53,4.54,13.09,3.18,24.37,14,26.82,27.25s-4.92,28-17.47,32.94c-5.63,2.2-11.8,2.45-17.69,3.8-1.76.4-3.89,1.43-3.75,3.23a4.28,4.28,0,0,0,1.78,2.56c6.66,5.87,11.41,15.34,8.22,23.63a23.34,23.34,0,0,1-5.68,8,51.32,51.32,0,0,1-65.62,5.44c-2.82-2-5.54-4.4-6.8-7.62-1.83-4.68-.14-10.07,2.6-14.29s6.46-7.72,9.3-11.88c1.71-2.52,3.13-5.48,2.75-8.5a10.85,10.85,0,0,0-3.31-6.1c-4.81-4.85-11.87-6.49-18.22-9s-12.92-7.07-13.71-13.86,4.64-12.87,5.89-19.67c.69-3.72.1-7.64,1.16-11.27,1.65-5.71,7-9.53,12.27-12.24Z"></path>
    <path data-name="5" data-official="Hpericum elodes" data-plain="Marsh St. John&amp;rsquo's Wort" data-loc="England" d="M1172.23,1959.26c-17.38,7-35.42,14.37-47.84,28.38-15.69,17.7-19.59,42.61-22.84,66-1,7.11-1.94,14.53.41,21.31,3.24,9.35,12.07,15.53,20.86,20.07,35.38,18.27,76.74,19.93,116.55,20.24,26.22.21,52.44,0,78.66-.23,71.46-.6,147.27-2.44,207.32-41.18,12.28-7.92,23.59-17.23,34.88-26.52l43.33-35.65c23.2-19.09,46.52-38.29,66.3-60.9,10.45-11.95,19.86-24.78,29.24-37.59l52.79-72,15.78-21.14c35.72-43,100.5-58.13,126.73-107.52,14.4-27.11,14-59.29,15.49-90s6.2-63.68,27.6-85.7c31.56-32.48,88.85-30.23,117.18-65.55,6.45-8,10.88-17.54,14.37-27.25a173.25,173.25,0,0,0,10.18-62.22c-.3-14.26-2.41-28.61-7.82-41.81-5.93-14.46-15.6-27-25.14-39.4l-34.1-44.19c-13.56-17.57-28.62-36.19-50-42.07-18.85-5.18-39.19.62-58.37-3.13a59.67,59.67,0,0,1-26.92-12.93c-6.46-5.46-12.51-12.68-20.92-13.57-4.79-.5-9.51,1.2-14,2.88l-42.42,15.79-18.55,23.76c3.61,4.76,7.25,9.58,9.73,15a17.92,17.92,0,0,1,1.92,7.48,8.57,8.57,0,0,1-3.14,6.83,11.29,11.29,0,0,1-3.6,1.59,35.3,35.3,0,0,1-9.13,1.39l-5.59,1c-5.47-.16-11.08-.3-16.28,1.41-3.78,1.24-7.18,3.42-10.81,5a81.12,81.12,0,0,1-8.81,3.17l-12.81,3.35c-3.25,0-6.51,0-9.76.23l-6.44,1.36q-8.45,1.93-17,3l-5.78,2.9q-5-1.59-10-2.74a269.08,269.08,0,0,0-11.06,46.75l1.22,10.9a101.5,101.5,0,0,1-13,42.86c-13.43,23.65-36.2,41.6-46.34,66.83-8.25,20.52-7.17,43.5-4.7,65.47,1,9.25,2.21,19.11-2,27.43-3.32,6.64-9.58,11.29-13.79,17.41-6.3,9.16-7.53,20.9-7,32s2.56,22.17,2,33.28a28.48,28.48,0,0,1-2.5,11.41c-4.74,9.44-16.69,12.66-27.25,12.66s-21.37-2.17-31.53.72-19.3,13.61-15.51,23.46l7.55,9.28c33,43.1,42.71,99.4,46.62,153.53.19,2.66.35,5.46-.81,7.87s-3.27,3.93-5.48,5.23c-12.62,7.47-28.13,7.51-42.79,7.34-13.3-.16-26.61-.32-39.83-1.72-44-4.66-85.45-22.93-123.65-45.19l-6.73,24.78c-21.57,37.87-43.89,76.65-77.66,104.22-11.69,9.54-25.12,17.78-40.08,19.76Z"></path>
    <path data-name="6" data-official="Parnassia palustris" data-plain="Grass of Parnassus" data-loc="England" d="M385.89,793.44A776.2,776.2,0,0,0,272,795.85c-19.7,1.88-39.68,4.6-57.67,12.84-34.37,15.73-57.4,50.1-68,86.38S136,969.81,137,1007.59c2,73,7.51,148.61,42.33,212.8,14.45,26.63,33.75,50.86,44,79.38,4.85,13.52,7.56,28.21,4.75,42.3s-11.87,27.43-25.22,32.73l-24.51,9.87c-37.26-1.08-70.83,26.43-87.15,59.94s-18.52,72-18.16,109.31c.52,54.84,7.88,114.13,45.54,154,8.09,8.57,17.57,16.22,22.92,26.71,17.45,34.18-16.76,77.11-2.61,112.78,1.25,3.12,3,6.28,6,7.87,2.65,1.41,5.8,1.33,8.8,1.22l71.58-2.59c9.15-.33,18.6-.61,27.09,2.79,21.33,8.56,27.51,35.48,28.88,58.42.91,15.06,1.27,31,9.4,43.73,4.52,7.06,11.12,12.53,17.93,17.42,62.38,44.78,152.88,45.83,216.28,2.51l23.49-21.16,6.93-20c3.15-8,4-16.62,5.52-25.06s3.84-17,9.32-23.64l10.1-8.72q4.83-20.43,11.6-40.34c1.08-3.19,2.43-6.64,5.39-8.25,1.05-.58,2.31-.93,3-1.91a5.25,5.25,0,0,0,.68-2.6c1-11.16,5.26-21.73,8.79-32.36s6.39-21.93,4.51-33l1-4.5c6.19-17.22,4-36.45,9.11-54l1-26.17A666.83,666.83,0,0,1,656,1588.7l10-19.87,11.41-.18-.78-2.33a217.57,217.57,0,0,1,4.53-39.82,50.07,50.07,0,0,1,3.62-11.82,28.67,28.67,0,0,1,16.85-14.59c4.09-1.31,8.92-2,11.36-5.51s1.37-8.22.23-12.32l-17-23.82A303.46,303.46,0,0,1,650,1393.37c-7.52-14.23-14-29.27-24.74-41.29-2.89-3.26-6.15-6.32-10.11-8.13-10.17-4.65-21.88-.12-32.69,2.77s-24.8,2.81-30.35-6.9c-6.31-11,3.55-24.54,2.8-37.24-.61-10.41-8.29-19-16.33-25.61s-17.13-12.53-22.53-21.45c-5.88-9.7-6.56-21.55-9.18-32.59-6.3-26.61-24.13-49-33-74.88-3.66-10.62-5.76-22.21-2.88-33.07s11.68-20.68,22.83-22c8.35-1,18.95,1.84,23.68-5.12a16.53,16.53,0,0,0,2.23-7.12c2.5-18,.74-38,11.9-52.26,2.77-3.53,6.26-6.6,8.1-10.69,4.12-9.15-1.34-19.54-6.63-28.07l-16.14-6.33c-7-19.62-27.49-30.26-43-44.18-14.16-12.73-24.65-29-33.87-45.65-8.1-14.62-15.44-29.94-18.39-46.39s-1.14-34.28,8-48.29Z"></path>
    <path data-name="6a" data-official="" data-plain="Stamen" data-loc="" d="M137.56,1922.27c3-1.51,3.47-5.53,4.48-8.77,2.88-9.26,12.63-14.47,21.9-17.3,5.2-1.58,10.64-2.79,15.12-5.84s7.84-8.6,6.42-13.84a12.45,12.45,0,0,0-6.35-7.35,28.14,28.14,0,0,0-9.56-2.66,79,79,0,0,0-18-.3c-6.59.65-14,1.93-19.24-2.07l-4.33-3.21c-.91-10.26-2.82-20.66-7.88-29.63s-13.73-16.37-23.93-17.8a18.28,18.28,0,0,0-6.39.11c-5.32,1.16-9.47,5.33-12.59,9.78a33.23,33.23,0,0,0-4.4,8.38c-2.28,6.86-1.35,14.31-.38,21.47,1.08,8,2.31,16.47,7.13,23a66,66,0,0,0,6.67,7.12,88.94,88.94,0,0,1,10.75,13.12l1.61,6.51c5.16.88,10.51,2.35,14.17,6.09,3.32,3.39,5,8.4,9,10.91,2.63,1.64,5.84,1.94,8.8,2.81Z"></path>
    <path data-name="6b" data-official="" data-plain="Nectary" data-loc="" d="M34.9,1916.77c3.29-4.2,8.26-6.7,13.22-8.64A94.93,94.93,0,0,1,98.54,1903c5.16.88,10.51,2.35,14.17,6.09,3.32,3.39,5,8.4,9,10.91,2.63,1.64,5.84,1.94,8.8,2.81,10.33,3,17.72,13.93,16.65,24.63-1.3,13-12.69,22.13-20.46,32.59A65.2,65.2,0,0,0,114,2015.46c-.39,7.69.49,15.89-3.29,22.6-2.68,4.78-7.46,8.11-12.57,10.07s-10.6,2.72-16,3.38a102.73,102.73,0,0,1-17.94,1.06c-4.67-.25-9.58-1.22-13.07-4.34-4.51-4-5.6-10.81-4.58-16.78s3.79-11.46,5.92-17.12,3.66-11.9,2.06-17.74c-2.57-9.4-12.11-14.82-20.72-19.4s-18-10.49-19.84-20.07a23.89,23.89,0,0,1,1-11.3,41.78,41.78,0,0,1,12.11-19Z"></path>
    <path data-name="6c" data-official="" data-plain="Ovary" data-loc="" d="M169.89,1921.31c7.56-9.71,20.8-12.72,33-14.12a77.06,77.06,0,0,1,16.27-.52c14.15,1.4,27.24,9.57,35.73,21s12.57,25.77,12.61,40c0,12.41-3.06,25.15-10.61,35-3.24,4.21-7.28,7.91-9.54,12.73-5.49,11.69.8,27-6.29,37.76-5.52,8.42-16.85,10.49-26.91,11-5.71.27-11.45.28-17.16,0-4.34-.2-8.88-.61-12.5-3-6.34-4.16-7.81-12.79-7.57-20.36s1.53-15.51-1.44-22.48c-2.77-6.51-8.81-11-12.61-17-3.29-5.17-4.78-11.26-5.95-17.27-1.81-9.38-2.94-19-1.76-28.47s4.87-18.85,11.6-25.62Z"></path>
    <path data-name="7" data-official="" data-plain="Capsule of Vismia guianensis" data-loc="" d="M2003.37,1770.77c-.6-9.23,6.33-17,12.61-23.82s12.77-15.2,11.09-24.3c-.83-4.47-3.59-8.39-4.52-12.84-1.65-7.85,2.7-15.83,8.39-21.5,12.2-12.17,30.48-16.77,47.67-15.48,9.48.71,19.18,3.23,26.42,9.39s11.39,16.57,8.2,25.53c-1.42,4-4.22,7.71-4,12,.27,5.11,4.77,8.82,8.74,12.06a157,157,0,0,1,24.65,25.24c5.39,6.92,10.24,14.41,13,22.74,2.64,8.06,3.2,16.67,3,25.15-.38,15.58-3.39,31.29-10.48,45.18s-18.5,25.84-32.83,32c-6.11,2.62-12.72,4.2-18.29,7.84-8,5.25-12.86,14.07-18.78,21.64s-14.48,14.58-24,13.46a10.48,10.48,0,0,1-5.75-2.28c-4.37-3.82-3-10.71-3.52-16.49-.81-9.52-7.48-17.49-14.67-23.79s-15.32-11.75-20.85-19.54c-8.8-12.39-9.61-28.57-10.12-43.76-.42-12.76-.84-25.54-.39-38.3Z"></path>
    <path data-name="7a" data-official="" data-plain="Cross-section of Capsule" data-loc="" d="M1873.07,1787.82c-4-11.88.58-25.6,9.55-34.34s21.69-12.91,34.2-13.43,24.94,2.31,36.91,6c8.17,2.51,16.37,5.52,23.1,10.8a41.29,41.29,0,0,1,15.27,27.2,42,42,0,0,1-8.24,30.12c-5.17,6.77-12.24,11.77-18.55,17.5s-12.12,12.73-13.44,21.14c-.76,4.84,0,9.88-1.21,14.61a17.67,17.67,0,0,1-8.18,10.71,28.19,28.19,0,0,1-10.67,3.12c-9,1.16-18.22.6-27.31-.11-6-.47-13-1.65-15.76-7-1.28-2.5-1.31-5.44-1.21-8.25.48-12.85,3.18-26.16-1.13-38.28-3.79-10.66-12.83-19.82-12.6-31.13Z"></path>
</svg>
