
<svg xmlns="http://www.w3.org/2000/svg" viewBox="0 0 2330 2904" id="illustration" preserveAspectRatio="xMidYMid meet">
    <title>Clusiaceæ</title>
    <path data-name="1" data-official="Clusia insignis" data-plain="Noble Balsam-tree" data-loc="Tropicla America" d="M1308.57,1144.91c-3.07,10.88-5.65,22.3-3.6,33.41l-2.22,1.36a6.51,6.51,0,0,0,.4,6.2l3.81.87a15.29,15.29,0,0,0,7,12.17,20.39,20.39,0,0,0,14,2.78c-2.61,2.64-2.69,6.81-2.47,10.52.19,3.27.5,6.53.91,9.79l-7.2,6.68a26.4,26.4,0,0,1-10.8,1.81c-4.11-.18-8.11-1.31-12.14-2.12-13.78-2.77-28-1.77-42-.77-5.66.4-11.38.82-16.77,2.57l-6.56-2.37a26,26,0,0,1-3.4-15.32,51.85,51.85,0,0,1,1.85-8.79c1.43-5.25,1.86-8.5,3.29-13.75l5.31-6.74a24.85,24.85,0,0,1,1.19-6.82q3.32-12.08,7-24.05l1.49-3.93-2.32-6.92a24.68,24.68,0,0,0,1.71-9.73c4.37,1,8.53-2,12.28-4.45a66.33,66.33,0,0,1,36.84-10.75c3.1,0,6.33.33,9,1.94,1.66,1,3.06,2.53,4.93,3.07s4,.11,5.45,1.34l2.75,4c-.61,4.65-5.08,7.7-7.43,11.76A26.4,26.4,0,0,0,1308.57,1144.91Zm131,496.76c-19.49-2.74-39.63-6.2-55.85-17.34-2.55-1.76-5.06-3.73-8-4.55a11.88,11.88,0,0,0-13,5.29l-1.27,6.33c1.38,13.62,1.57,27.32,1.75,41l1.11,81.78-.58,4.5c2.26,4.17,4.56,8.44,5.24,13.13a39.34,39.34,0,0,1,0,8.61q-4.17,55.9-12.52,111.39l-1.09,4c-1.14,10.28-2.3,20.64-5.37,30.52-1.79,5.76-4.23,11.34-5.23,17.29a85.1,85.1,0,0,0-.67,13.92c-.11,47.42-12.8,93.8-25.39,139.51l-2.58,5.58a155.59,155.59,0,0,0-6.44,39.2,21.66,21.66,0,0,1-.88,6.63c-.51,1.41-1.33,2.7-1.7,4.14-.53,2-.16,4.12-.3,6.18-.38,5.64-4.43,11.59-1.56,16.45l-1.8.87c-2,1.2-2.57,3.73-3,6-7.25,39.24-12.42,78.82-17.59,118.38-2.33,17.83-4.66,35.68-5.71,53.64l-1,5.62q-4.11,22.62-6.92,45.46c-2.43,19.65-4.14,39.38-5.85,59.11l-4.32,50c-1.16,13.42-2.33,26.95-.78,40.33l.62,5.27c.73,13-.47,26-1.68,39l-6.21,66.92c-.33,3.5-.67,7.08-2.1,10.3s-4.16,6.06-7.63,6.68l-15.63,3.79c-11.1,34.28-22.34,69.54-20.18,105.5.47,7.73,1.57,15.51,4.4,22.73,3.14,8,8.26,15,12.46,22.48,4.68,8.36,8.23,17.34,13.3,25.46s12.06,15.57,21.14,18.64,19,1.39,27.92-2,17.07-8.42,25.72-12.41a118.11,118.11,0,0,1,32.42-9.6c15.21-2.2,32.3-2,43.46-12.6,5-4.75,8.14-11.15,10.73-17.57,3.25-8.06,5.86-16.8,4.37-25.37-1-6-4-11.48-7-16.76a454.88,454.88,0,0,0-36-53.47l-12.73-18.14a274.25,274.25,0,0,1-6.79-66.24c0-1.12.17-2.44,1.15-3,1.17-.64,2.62.39,3.24,1.58s.86,2.6,1.76,3.6c1.64,1.83,4.84,1.33,6.56-.42s2.32-4.3,2.66-6.73a53.66,53.66,0,0,0-1.85-23.39l-.06-1.29a26.07,26.07,0,0,0-1.07-19.44c-1.26-2.67-4.82-5.32-6.75-3.08-.88,1-.77,2.53-1.06,3.85s-1.64,2.71-2.82,2.06c-.8-.44-.94-1.51-1-2.42l.31-2.69,1.32-31c1.54,2.39,3.6,5.06,6.43,4.94a5.52,5.52,0,0,0,4.4-3.18,15.11,15.11,0,0,0,1.28-5.5q.32-3.3.47-6.63a17.71,17.71,0,0,0-.5-6.12,6.52,6.52,0,0,0-4-4.41c-2-.61-4.44.35-5.06,2.32l-.45-2.29a151.76,151.76,0,0,1,1-16,6.29,6.29,0,0,0,8.23,3.71c3.41-1.53,4.63-5.72,5.06-9.43a63.57,63.57,0,0,0,.22-11.46c-.18-2.69-.7-5.73-3-7.21-3-2-7.27.32-8.8,3.57l.08-3.55a137.43,137.43,0,0,0,1.65-14.87c1.89,1.81,4.83,3,7.12,1.76,3.13-1.73,2.66-6.31,4.1-9.59.73-1.67,2-3,2.94-4.62a12.16,12.16,0,0,0-.28-12.42c3.62-.21,5.94-5.11,3.83-8.05l-.65-1.89c3.27-1.51,3.64-6.14,2.36-9.49s-3.7-6.28-4.47-9.79a21.88,21.88,0,0,1-.2-6q1.23-21.24,2.45-42.48l.54-.51c.51,1.46,2.48,2,3.9,1.37a7.06,7.06,0,0,0,3.16-3.27,25.25,25.25,0,0,0,2.17-19.38c-.57-1.87-1.45-3.79-3.14-4.78s-4.31-.48-4.92,1.37l-1.07-.58a255.8,255.8,0,0,0,1.51-27.25c3,2.43,5.66,6.45,9.55,6.11a6.41,6.41,0,0,0,4.79-3.41,14.83,14.83,0,0,0,1.55-5.87,45.48,45.48,0,0,0-.72-13.82,9,9,0,0,0-1.46-3.79,6.44,6.44,0,0,0-6.34-2.06,12.41,12.41,0,0,0-6,3.47l.43-1.68q.95-11.07,1.9-22.14a17.3,17.3,0,0,0,3.93,4.65,6,6,0,0,0,5.75,1c2.34-1,3.39-3.65,4.08-6.08,1.31-4.67,2.12-9.77.34-14.28s-7-8-11.52-6.3l.05-1.22a46.81,46.81,0,0,1,1.42-13.65c2.72,2.22,7.06,1.4,9.58-1.05s3.55-6.06,3.9-9.56a32.5,32.5,0,0,0-1.2-12.52c-.58-2-1.48-4-3.26-5s-4.59-.2-4.87,1.82q-.08-7.86-.14-15.71c2.18,2,3.42,5.29,6.29,5.86a5.07,5.07,0,0,0,4.62-1.81,11.29,11.29,0,0,0,2.25-4.64,31.51,31.51,0,0,0-2.83-23.54,8.5,8.5,0,0,0-3-3.45,3.56,3.56,0,0,0-4.27.35l.81-.83,16.66-100.68.67.52c1.65-.44,3.4-.47,5-1s3.24-1.68,3.52-3.37-1.56-3.56-3.1-2.81q-.27-4.62-.56-9.24a1.85,1.85,0,0,1,.18-1.14c.42-.61,1.34-.48,2.07-.62a3.17,3.17,0,0,0,2.13-3.78,6.26,6.26,0,0,0-2.93-3.69c-1.35-.88-2.86-1.51-4.18-2.43l.65-1.75,2.58-14.69a4.52,4.52,0,0,0,5,2.78,7,7,0,0,0,4.78-3.71,16.51,16.51,0,0,0,1.66-6,49.79,49.79,0,0,0,.19-11.38c-.16-1.51-.71-3.36-2.22-3.6-1.69-.27-2.94,1.81-4.65,1.9l.31-2.29a258.84,258.84,0,0,0,5.79-29.32c1.86,3.14,3.82,6.38,6.84,8.43s7.44,2.53,10.18.11c2-1.81,2.66-4.72,2.84-7.44.28-4.1-.32-8.54-3.08-11.59s-8.15-3.88-10.9-.82l.15-10c3.44,4.14,10.71,2.71,14-1.57s3.41-10.16,2.72-15.5a13.34,13.34,0,0,0-1.49-5.2c-2.65-4.46-8.79-5-14-5l1.29-1.39q3.59-22.66,7.19-45.34c1.73-10.92,3.46-21.85,4.48-32.87.56-6,.9-12,1.24-18.07q3.38-59.37,6.74-118.75l.6-3.12a28.23,28.23,0,0,1,6.55-18l3.48-10.69q1.39-13.74,2.78-27.48c.49-4.77.89-9.94-1.63-14C1453.33,1644,1446,1642.57,1439.57,1641.67Zm-280.84-213s-11.67,21.94-17.81,27.93-33.73,25.27-44,39.24-61.85,88.79-59.19,110.4l4.35,5c6.16-.86,11.93-3.45,17.6-6,17.23-7.77,34.5-15.56,50.63-25.39l8.3-8c1.87-2.09,3.74-4.17,5.54-6.32,13.43-16,23.11-35.38,39.17-48.76l-.11-2.35c2.11-12.85,4.21-25.72,5.24-38.7,1.13-14.28,1-29,6.41-42.3l-.46-3.34A37.91,37.91,0,0,1,1158.73,1428.63Zm-332.25,99.12c-2.47-2.7-5.08-5.45-8.44-6.9a47.9,47.9,0,0,1-20,39.59l-2.75,12.16a25.45,25.45,0,0,0-.75,20.65c4.12,10.62,6.36,20.28,13,29.54a203.72,203.72,0,0,0,18.72,23,37.86,37.86,0,0,0,9,7.42c4.42,2.39,9.51,3.21,14.52,3.61a100,100,0,0,0,38.27-4.4c4.94-1.57,10.3-4.09,11.92-9,1.45-4.38-.62-9.07-2.7-13.19A460,460,0,0,0,826.48,1527.75Zm448.22-443.3c-4.73-3.1-9.7-6-15.14-7.49s-11.46-1.59-16.6.76c-7.89,3.62-12.24,12-15.82,19.93q-6.32,13.93-11.79,28.24a11.54,11.54,0,0,1,3.44,1.8,3.85,3.85,0,0,1,1.46,3.42L1229,1138a15,15,0,0,1,14.12-9.49,6.76,6.76,0,0,1,2.15-6.28,19.81,19.81,0,0,1,5.93-3.56l23.52-10.65a5.17,5.17,0,0,0,2.35-1.65,4.87,4.87,0,0,0,.61-2.38,73.86,73.86,0,0,0,.17-9ZM1107.18,1416c6.89-6.56,20-15.31,20-15.31-12-7.75-41-39.86-71.34-71.58-39.93-41.79-81.3-84.38-81.3-84.38-59.52,58.86-96.1,30.93-161.53,91.39,2.48,3.05,2.9,7.34,3.43,11.26a96.84,96.84,0,0,1,0,26.07l-1,1.34c2.19.92,2.79,3.74,2.72,6.12s-.46,5,.83,7a13.26,13.26,0,0,0,1.89,2.08c5.82,6,5.57,15.36,7,23.58,1.51,8.5,5.17,16.44,8.17,24.54s5.38,16.75,4.16,25.3l.22,3.82a117,117,0,0,1-.24,11.84c1.47-.64,3.32-.92,4.56.1a5.35,5.35,0,0,1,1.33,2q8.4,18.82,17.23,37.44a25.58,25.58,0,0,0,4.15,6.81l.92,2c7.32,10.64,75.16,117.4,75.16,117.4h11.35c7.22-.16,14.6-.34,21.37-2.85,8.54-3.17,15.31-9.72,21.81-16.09l6-8.34c11.31-31.93,62.91-133,76.48-154.3C1094.55,1441.26,1093.55,1429,1107.18,1416Zm1143.15-169.2c-3.2,24.73-8.29,50.83-25.34,69-14.39,15.36-35.61,22.87-56.58,24.7s-42-1.46-62.81-4.74l-8.15-14.69c1.86-15.54,9.27-29.88,12.5-45.19,1.9-9,2.33-18.21,2.59-27.39.73-25.33.21-50.71-1.54-76-.5-7.17-1.09-14.41-.08-21.52,2.74-19.21,16.82-35.4,19.38-54.63,1.12-8.46-.06-17.1,1.25-25.53a44,44,0,0,1,12.83-24.73l9.65-4.57V986c0-3.86,0-7.82-1.33-11.45s-4.21-6.94-8-7.63c-2.72-.51-5.5.37-8.09,1.34a94.07,94.07,0,0,0-29.25,17.67l-7.62,10.4c-2.26,5.27-1.36,11.9-5.08,16.27-1.66,2-1,5.17-3.42,6.13-5.38,2.16-14.1,3.33-19.75,4.64-26.88,6.25-52.93,20-77.28,33l-5.54,1.43c-11.14,6.53-23.17,11.37-35.14,16.19l-104.11,41.86a177.18,177.18,0,0,1-18.65,6.72c-6.19,1.73-12.54,2.79-18.81,4.17-19.79,4.37-38.7,12-57.5,19.51l-22.91.94c-48.78,19.75-88.31,57.32-121.45,98.2-18.41,22.71-36.58,47.76-63.57,59l-14.27,6a138.2,138.2,0,0,1-52.43,4.83,11.59,11.59,0,0,1-2.41-.42c-.82-.27-1.56-.71-2.36-1a9.76,9.76,0,0,0-5.75-.55c-.81.17-1.6.44-2.41.57a14.14,14.14,0,0,1-2.76.09,140.83,140.83,0,0,0-28.85,2.17l-3.87-7.67q-9.24-17.84-17.6-36.1l2.31-7.31c25.27-25.93,9-56.53,9-56.53l5.64,3.66,12.26,8.21c2.28,1.52,4.67,3.09,7.38,3.42l6.07,2.25a46.8,46.8,0,0,0,18.19.48,77.45,77.45,0,0,0,12.47-3.48q5.06-1.77,10-3.77c1.78-.72,3.74-1.65,4.36-3.46l7.24-5.55a131.42,131.42,0,0,0,9.1-13.23,32.59,32.59,0,0,0,3.59-7.51,31.18,31.18,0,0,0,1-7.27c.31-6.23-1-11.48-1.89-17.65l-6.68-12.13c-13-69.34-75.81-41.75-75.81-41.75s17.15-19.23,4.32-48.2c-12-27-44.23-27-44.23-27-1.66-5.43-14-10.58-14-10.58s22.28-3.44,43.23-23.57c20.94-17.29,17-65.18-10-88.46s-63.52,15-63.52,15S1342,864,1286.43,872c-31.94,4.59-43.79,44.58-43.79,44.58C1170.37,894.61,1130,812.2,1130,812.2c-14.87,6.79-25.74,12.87-29.5,15.52-14.64,10.31-39.91,30.26-62.7,66.84s-8.18,87.17-8.18,87.17l5.24,5.38c2.2,2.26,4.56,4.91,4.39,8.07-.15,3-2.58,6.09-1.09,8.7,1.18,2.06,4,2.25,6.18,3.18a11.33,11.33,0,0,1,5.56,5.86,33.39,33.39,0,0,1,2.19,7.94l1.91.58a619,619,0,0,0,82,25.6l12.68-8.81a184.66,184.66,0,0,0,32.15-28.7l9.75,3.08c4.72,3.13,8,8,11.13,12.71l21.92,33,3.16,9.06c-10.49,20.61-20.51,41.69-25.87,64.18l-8.69-9.5c-2-2.81-5.35-4.27-8.53-5.6l-13.7-5.74-4,14.32q-.72,28.43-.72,56.86l.89,7.53c7.37,3.07,15.52,6.94,18.09,14.49a26.73,26.73,0,0,1,1.08,7.35,228.1,228.1,0,0,1-.69,31.15l-.74,17.95q-1.23,30.57-.41,61.2l-1.23,13a284.39,284.39,0,0,1-3,69.39c-.19,1.15-.69,2.58-1.85,2.64a2.58,2.58,0,0,1-1.14-.3l-9.47-4.09c4.8-5.14,8.07-12,7.64-19s-5.13-13.92-11.92-15.76c-5-1.34-10.35.08-14.76,2.7s-8.05,6.38-11.62,10.08l-2.29,2.19c1.23-3-2.23-6.66-5.29-5.61-.63-2.8-2.29-5.25-3.93-7.6-12.08-17.32-25.37-33.84-36-52.08-10.94-18.77-18.91-39.09-27-59.25q-10.47-26.13-21.28-52.11l19-6.69c12-7.11,17.81-21.12,27.67-30.94l.44-8.11c3.39-2.84,5.44-6.92,7.4-10.89l13-26.34a24.5,24.5,0,0,1,3.16-5.25c2.74-3.19,7.19-5.14,8.44-9.16l6.78-16.45c-2.2-6.52-9.47-9.58-16-11.88l-63-22.36c-2.16-.77-4.46-1.55-6.71-1.11a13,13,0,0,0-4.42,2.11c-16.49,10.64-34.54,21.6-54.13,20.33-5.66-.36-11.21-1.76-16.87-2.06s-11.71.67-16,4.37c-.57-4,3.17-7.19,6.56-9.41a208.53,208.53,0,0,1,67.61-28.71l-.8-1.32c-25.63-3.45-48.84-16.45-71.35-29.19l-47.54-26.92c-7.44-4.22-14.93-8.45-22.91-11.54l-2.31-.7c-9.94,7.12-22.89,9.07-35,7.62s-23.68-6-34.87-11a484.46,484.46,0,0,1-76.28-42.31l-1.32-.74c-10.36,2-20.8-2-31-4.79-11.65-3.25-23.66-5-35.63-6.73l-70.3,48.82c-54.42,14.11-104.5,42.08-159,55.83-23.64,6-47.89,9.19-71.71,14.37a446.53,446.53,0,0,0-110.21,39.73L223.62,1076c-47.86-27.46-62.17-57.63-106.64-90.31-22.43-16.49-45-34.38-58.1-59-13.33-25.11-15.27-54.51-16.59-82.91a3485,3485,0,0,1,1.54-353.94c4.06-73.5,13.26-153.32,64.78-205.9,23.07-23.54,52.77-39.38,82.79-53,118.1-53.45,215.14-77.07,342.69-100.24C786.52,84.87,1039.27,39,1294.53,13.25c29.78-3,60.3-5.67,89.27,1.81,27.1,7,51.29,22.53,72.8,40.43a352.67,352.67,0,0,1,113.77,176.82l-4.75,9.62c-2.15,7.57-8.61,12.93-13.91,18.74-5.76,6.31-10.39,13.55-15,20.76L1529.55,292a367.87,367.87,0,0,1-.77,68.41c-1.8,17.25-4.83,34.46-4.49,51.8l1.63-1.14a74.34,74.34,0,0,1,53.58,18.79,187.39,187.39,0,0,1,66.41-60.22l28.42-17.29c39-5.7,78.81-2.48,118,1.8,21.87,2.39,43.93,5.15,64.64,12.58,27.53,9.89,51.46,27.57,74.94,45,15.94,11.84,32,23.84,44.7,39.15s21.34,33.29,29,51.54a547.21,547.21,0,0,1,35.19,294.76l6.1,35.67c32.52,1.06,65.23,8.16,93.66,24,39.74,22.09,69,60.14,86.77,102s24.81,87.5,27.83,132.86A797.87,797.87,0,0,1,2250.33,1246.8ZM711.39,836.71c3.84,2.66,8.34,4.16,12.81,5.54,30.94,9.55,63.37,15,92.6,28.9l-1.48-1.54c-14.12-14.85-20-35.52-25.3-55.3l-43.57-6a10.92,10.92,0,0,0-4.41,0c-1.89.53-3.33,2-4.84,3.29-5.4,4.48-13.65,6.17-19.52,2.33L703.82,825.4C704.4,830,707.54,834.05,711.39,836.71ZM858,938.73a139.47,139.47,0,0,1-23.78-24.17l-.87-2.27c-5.82,1.68-12.14.27-17.67-2.22s-10.53-6-15.92-8.79a105.13,105.13,0,0,0-20.39-7.57,235.21,235.21,0,0,0-55.49-8.49l-1.68,1.22c15.39,17.4,34.86,30.69,54.9,42.45,12.09,7.09,24.66,13.78,38.33,16.92s28.69,2.45,40.82-4.59Zm3.44-138.19a59.61,59.61,0,0,1-29.82,11.35l-.88.19a140.44,140.44,0,0,0,37.37,92.1l2.39,2C874.84,871,861.73,836,861.45,800.54Zm145,182.14a148.47,148.47,0,0,1-.69-80.72l.86-3.39c-2.84-11.75-10.12-22.29-11.48-34.3-.64-5.62.06-11.29-.18-16.94-.3-6.88-2-13.61-3.65-20.29L974.68,760.7l-1.13-.78a75,75,0,0,1-30.07,2.15c-2,4.44-5.88,7.7-9.83,10.52a113.57,113.57,0,0,1-48.33,19.72l-.94,1.46c7.14,25.5-.61,53.26,5.84,79,1.61,6.44,4.1,12.63,5.58,19.1,3.41,14.95,1.33,30.55-1.17,45.67l.07,1.71a330.83,330.83,0,0,0,108.72,57.11l1.18-.71a7.69,7.69,0,0,1,.64-6.81,10.53,10.53,0,0,0,1.57-2.63A6.33,6.33,0,0,0,1006.44,982.68Z"></path>
    <path data-name="1a" data-official="" data-plain="Stamens and Pistil" data-loc="" d="M2090.61,1816.58l37.66,7.17c3.39.64,7.42,1.11,9.82-1.38a9.72,9.72,0,0,0,2.13-5.15c3-16.4-1.21-33.37,1.09-49.87,1.35-9.72,4.9-19,8.43-28.13,5.9-15.33,12-31,22.87-43.34,4.84-5.49,10.5-10.17,15.63-15.39,17.54-17.88,28.09-41.28,38.3-64.15,7.2-16.17,14.51-32.66,16.41-50.26,1.07-9.94.34-20.22-3.41-29.49-6.25-15.42-20.38-26.62-35.85-32.73s-32.33-7.7-48.94-8.56a618.59,618.59,0,0,0-126.81,6.5l-12.71-3.87c-22,24-49.87,43.34-81.36,51.56-12,3.12-26,5.71-32.06,16.5-3.75,6.66-3.35,14.8-2.66,22.42a448.67,448.67,0,0,0,7.65,50.92l21.61,21.91c31.75,25,63.72,50.2,90.09,80.81,16.92,19.64,31.43,41.38,49.73,59.73Z"></path>
    <path data-name="1b" data-official="" data-plain="Stamen, magnified" data-loc="" d="M2169.83,1726.27c-25.67,99.66-17.23,204.77-3,306.7,2.11,15.11,4.42,30.49,11.17,44.17,3.46,7,8.4,13.75,15.55,16.88,5.7,2.49,12.14,2.41,18.35,2.14,17.84-.79,36.23-3.09,51.66-12.08s27.28-26.14,25.28-43.89c-2.14-18.94-18.38-32.78-27.16-49.7-7.52-14.52-9.43-31.21-11.22-47.46q-7.87-71.8-15.76-143.61c-2.61-23.87-5.29-48-13.4-70.59-3-8.36-6.95-16.77-13.84-22.38s-17.36-7.65-24.71-2.67c-5.21,3.53-7.88,9.68-10.29,15.49Z"></path>
    <path data-name="2" data-official="Garcinia speciosa" data-plain="Showy Garcinia" data-loc="East Indies" d="M703.82,825.4l13.86-11.51c5.87,3.84,14.12,2.15,19.52-2.33,1.51-1.26,2.95-2.76,4.84-3.29a10.92,10.92,0,0,1,4.41,0l43.57,6c5.35,19.78,11.18,40.45,25.3,55.3l1.48,1.54c-29.23-13.93-61.66-19.35-92.6-28.9-4.47-1.38-9-2.88-12.81-5.54S704.4,830,703.82,825.4Zm166.69,80.79c4.33-35.18-8.78-70.21-9.06-105.65a59.61,59.61,0,0,1-29.82,11.35l-.88.19a140.44,140.44,0,0,0,37.37,92.1Zm-70.74-4.91a105.13,105.13,0,0,0-20.39-7.57,235.21,235.21,0,0,0-55.49-8.49l-1.68,1.22c15.39,17.4,34.86,30.69,54.9,42.45,12.09,7.09,24.66,13.78,38.33,16.92s28.69,2.45,40.82-4.59l1.75-2.49a139.47,139.47,0,0,1-23.78-24.17l-.87-2.27c-5.82,1.68-12.14.27-17.67-2.22S805.16,904.07,799.77,901.28ZM1142.94,2641.1l-23.06-26.34c-5.25-5-10.59-9.8-15.93-14.65l-10.12-9.2c-8.92-8.1-17.84-16.21-27.22-23.76-3.1-2.5-6.37-5-10.22-6a4,4,0,0,0-3,.1,4.54,4.54,0,0,0-1.59,2l-3,25.74c-3.22,53.22,17.08,105,21,158.19,1,13.86,1,27.88,3.94,41.46,3.38,15.41,10.57,29.72,18.51,43.36,2.33,4,4.87,8.11,8.76,10.63,11.59,7.5,26.64-2.74,40.4-1.69,10.81.82,21,8.74,31.54,6.18,7.82-1.9,13.31-9.38,15.17-17.21s.77-16-.47-24A766.35,766.35,0,0,0,1142.94,2641.1ZM890.22,872.72c1.61,6.44,4.1,12.63,5.58,19.1,3.41,14.95,1.33,30.55-1.17,45.67l.07,1.71a330.83,330.83,0,0,0,108.72,57.11l1.18-.71a7.69,7.69,0,0,1,.64-6.81,10.53,10.53,0,0,0,1.57-2.63,6.33,6.33,0,0,0-.37-3.48,148.47,148.47,0,0,1-.69-80.72l.86-3.39c-2.84-11.75-10.12-22.29-11.48-34.3-.64-5.62.06-11.29-.18-16.94-.3-6.88-2-13.61-3.65-20.29L974.68,760.7l-1.13-.78a75,75,0,0,1-30.07,2.15c-2,4.44-5.88,7.7-9.83,10.52a113.57,113.57,0,0,1-48.33,19.72l-.94,1.46C891.52,819.27,883.77,847,890.22,872.72ZM2154,1041.55l-9.65,4.57a44,44,0,0,0-12.83,24.73c-1.31,8.43-.13,17.07-1.25,25.53-2.56,19.23-16.64,35.42-19.38,54.63-1,7.11-.42,14.35.08,21.52,1.75,25.28,2.27,50.66,1.54,76-.26,9.18-.69,18.4-2.59,27.39-3.23,15.31-10.64,29.65-12.5,45.19l8.15,14.69,1.74,13.63c-4.12,13.73-15.12,24.09-23.23,35.91-6.57,9.58-11.31,20.26-16.31,30.74-14,29.38-30.56,57.88-52.57,81.86s-49.87,43.34-81.36,51.56c-12,3.12-26,5.71-32.06,16.5-3.75,6.66-3.35,14.8-2.66,22.42a448.67,448.67,0,0,0,7.65,50.92l-17.33,25.5A334.37,334.37,0,0,1,1893,1777.4c-9.79-10.27-19.77-20.69-32.11-27.68-6.94-3.93-14.51-6.7-21.3-10.9-14.68-9.1-24.67-24.2-38.6-34.4-24.38-17.84-57.17-18.36-87.21-15.19-17.55,1.85-35.39,4.7-52.73,1.39-9.85-1.89-19.21-5.71-28.61-9.21-27.83-10.35-56.58-18-85.27-25.6a160.06,160.06,0,0,0-19.8-4.36,79.43,79.43,0,0,0-28.33,1.4l-42.31-3.35c-3.42-5.54-10.73-6.93-17.18-7.83-19.49-2.74-39.63-6.2-55.85-17.34-2.55-1.76-5.06-3.73-8-4.55a11.88,11.88,0,0,0-13,5.29l-1.27,6.33-18,14.14c-3.85.53-7.61-1.22-11-3.08a130.63,130.63,0,0,1-22.13-15.17c-3.4-2.89-6.76-6-10.92-7.61a33.88,33.88,0,0,0-8.66-1.67c-17.12-1.77-34.41-3.29-51.49-1.2-7.22.89-14.34,2.42-21.54,3.45a160.69,160.69,0,0,1-58.32-2.34l-.65-.32a1084.42,1084.42,0,0,1-65.14,91.87c-7,8.78-14.14,17.5-19.45,27.37-7.19,13.38-10.7,28.37-15.94,42.63-5,13.7-12.25,27.35-24.08,35.77,3.18-1.38,7.73,1.25,8.83,4.9,1.29,4.24-.39,8.75-1.81,13a110.41,110.41,0,0,0-4.61,50.61l24.18,46L1049,1942c-7.41,7.89-14.92,16-19.72,25.65-1.84,3.74-3.27,7.71-5.51,11.22a56.26,56.26,0,0,1-7,8.31l-31,32.45-6.8-10.36a418.48,418.48,0,0,1-1.37-61.22l7-29.74a90,90,0,0,0-7.94-45.44c-3.31-7.15-7.56-13.85-10.62-21.12a5.71,5.71,0,0,1-.63-2.9,9.43,9.43,0,0,1,1.38-3c1.42-2.72,1.19-6,.78-9s-1-6.19-.1-9.13,3.72-5.58,6.74-5l1-1.47a415.2,415.2,0,0,0-21.09-67,4.35,4.35,0,0,0-1.16-1.85,4.24,4.24,0,0,0-2.3-.67,96.07,96.07,0,0,0-46.83,7.62l-9.85,11.38q-25.61,31.65-49,65l-5.07,13c10.19,60.3,37.68,90.46,28.37,207.51l9.58,11.51-4.8,55.88c-1.79,20.8-3.59,41.66-7.84,62.09-1.8,8.66-4.35,17.74-10.9,23.68l-20.18,11.78s-32.48-51.09-84.68-98.42l-1.24-4.34a27.75,27.75,0,0,1-7.89-21.66,2.71,2.71,0,0,1,.27-1.12,3.06,3.06,0,0,1,1.15-1,9,9,0,0,0,3.86-4.09c1.24-3.18-.69-6.91-3.56-8.76s-6.42-2.25-9.83-2.43a12,12,0,0,0,2.87-2.94,4,4,0,0,0,.32-3.93c-.76-1.39-2.45-1.94-4-2.24a30,30,0,0,0-10.94-.12A9,9,0,0,0,716,2072a3.87,3.87,0,0,0-1,4.57,30.68,30.68,0,0,0-9.42-.11,6.37,6.37,0,0,0-3.43,1.29c-2.11,1.88-1.28,5.4.32,7.73-3.26-.56-7-1-9.48,1.25-1.67,1.52-2.25,3.91-2.37,6.16a5.75,5.75,0,0,0,1.19,4.44c1.25,1.24,3.23,1.28,5,1.23l-.06,20.17a1.87,1.87,0,0,1-.22,1.07,2.42,2.42,0,0,1-1.24.67,4.12,4.12,0,0,0-1.34,6.46s-88.61,109.59-89.53,235.4c-.61,83.16,22,186.92,22,186.92l-3.52,15.88-4.41,11.42c-2.36,6.09-5.68,13-12.08,14.3l-6.29-.78c-5,1.87-9.27,5.14-13.48,8.37l-35.37,27.12a115.56,115.56,0,0,1-14.57,10c-3.79,2.07-7.83,3.73-11.31,6.27a53.07,53.07,0,0,0-7.25,6.81c-16,16.95-32.69,34.17-54,43.45-7.14,3.09-14.73,5.27-21.31,9.42-7.15,4.52-12.77,11.17-20,15.56l-1.44,12.65c-39.91,65.95-105.84,119.21-182.21,129.77-8.74,1.21-18.1,1.76-26-2.28-13.9-7.17-17.38-25.2-18.52-40.79-3.8-52.38.75-105.23-5.47-157.38-5.86-49-21.13-96.41-31.19-144.76a691.81,691.81,0,0,1-10.59-213.68l12.56-23.48c-10.95-139.4,20.12-286.44,108.84-394.52,35.16-42.83,78.19-78.41,120.93-113.7-26.28-3.06-52.79-6.18-77.85-14.66-65.23-22.07-112.82-77.2-157.06-130l-24-18c-27.89-25.19-48.33-57.54-65.93-90.75C50.4,1488.36,37.53,1460,31.23,1429.8c-5.39-25.8-5.88-52.33-6.34-78.68-1.68-94.43-3.35-188.91-.09-283.3.47-13.66,3.69-30.76,17-34,6.05-1.5,12.36.65,18.14,3,35.33,14.48,66.1,38,96.41,61.21L223.62,1076l29.64-1.64a446.53,446.53,0,0,1,110.21-39.73c23.82-5.18,48.07-8.4,71.71-14.37,54.52-13.75,104.6-41.72,159-55.83l70.3-48.82c12,1.74,24,3.48,35.63,6.73,10.17,2.83,20.61,6.84,31,4.79l1.32.74a484.46,484.46,0,0,0,76.28,42.31c11.19,4.94,22.73,9.51,34.87,11s25.09-.5,35-7.62l2.31.7c8,3.09,15.47,7.32,22.91,11.54l47.54,26.92c22.51,12.74,45.72,25.74,71.35,29.19l.8,1.32a208.53,208.53,0,0,0-67.61,28.71c-3.39,2.22-7.13,5.4-6.56,9.41,4.29-3.7,10.34-4.66,16-4.37s11.21,1.7,16.87,2.06c19.59,1.27,37.64-9.69,54.13-20.33a13,13,0,0,1,4.42-2.11c2.25-.44,4.55.34,6.71,1.11l63,22.36c6.48,2.3,13.75,5.36,16,11.88l-6.78,16.45c-1.25,4-5.7,6-8.44,9.16a24.5,24.5,0,0,0-3.16,5.25l-13,26.34c-2,4-4,8-7.4,10.89l-.44,8.11c-9.86,9.82-15.71,23.83-27.67,30.94l-19,6.69q10.82,26,21.28,52.11c8.09,20.16,16.06,40.48,27,59.25,10.63,18.24,23.92,34.76,36,52.08,1.64,2.35,3.3,4.8,3.93,7.6,3.06-1,6.52,2.62,5.29,5.61l2.29-2.19c3.57-3.7,7.2-7.45,11.62-10.08s9.8-4,14.76-2.7c6.79,1.84,11.48,8.74,11.92,15.76s-2.84,13.91-7.64,19l9.47,4.09a2.58,2.58,0,0,0,1.14.3c1.16-.06,1.66-1.49,1.85-2.64a284.39,284.39,0,0,0,3-69.39l1.23-13q-.82-30.6.41-61.2l.74-17.95a228.1,228.1,0,0,0,.69-31.15,26.73,26.73,0,0,0-1.08-7.35c-2.57-7.55-10.72-11.42-18.09-14.49l-.89-7.53q0-28.44.72-56.86l4-14.32,13.7,5.74c3.18,1.33,6.53,2.79,8.53,5.6l8.69,9.5c5.36-22.49,15.38-43.57,25.87-64.18l-3.16-9.06-21.92-33c-3.14-4.73-6.41-9.58-11.13-12.71l-9.75-3.08a184.66,184.66,0,0,1-32.15,28.7l-12.68,8.81a619,619,0,0,1-82-25.6l-1.91-.58a33.39,33.39,0,0,0-2.19-7.94,11.33,11.33,0,0,0-5.56-5.86c-2.18-.93-5-1.12-6.18-3.18-1.49-2.61.94-5.71,1.09-8.7.17-3.16-2.19-5.81-4.39-8.07l-5.24-5.38s-14.61-50.59,8.18-87.17,48.06-56.53,62.7-66.84c3.76-2.65,14.63-8.73,29.5-15.52,0,0,40.33,82.41,112.6,104.33,0,0,11.85-40,43.79-44.58,55.53-8,67.5,55.87,67.5,55.87s36.58-38.25,63.52-15,30.91,71.17,10,88.46c-21,20.13-43.23,23.57-43.23,23.57s12.31,5.15,14,10.58c0,0,32.26,0,44.23,27,12.83,29-4.32,48.2-4.32,48.2s62.84-27.59,75.81,41.75l6.68,12.13c.9,6.17,2.2,11.42,1.89,17.65a31.18,31.18,0,0,1-1,7.27,32.59,32.59,0,0,1-3.59,7.51,131.42,131.42,0,0,1-9.1,13.23l-7.24,5.55c-.62,1.81-2.58,2.74-4.36,3.46q-5,2-10,3.77a77.45,77.45,0,0,1-12.47,3.48,46.8,46.8,0,0,1-18.19-.48l-6.07-2.25c-2.71-.33-5.1-1.9-7.38-3.42l-12.26-8.21-5.64-3.66s16.29,30.6-9,56.53l-2.31,7.31q8.36,18.27,17.6,36.1l3.87,7.67a140.83,140.83,0,0,1,28.85-2.17,14.14,14.14,0,0,0,2.76-.09c.81-.13,1.6-.4,2.41-.57a9.76,9.76,0,0,1,5.75.55c.8.33,1.54.77,2.36,1a11.59,11.59,0,0,0,2.41.42,138.2,138.2,0,0,0,52.43-4.83l14.27-6c27-11.24,45.16-36.29,63.57-59,33.14-40.88,72.67-78.45,121.45-98.2l22.91-.94c18.8-7.56,37.71-15.14,57.5-19.51,6.27-1.38,12.62-2.44,18.81-4.17a177.18,177.18,0,0,0,18.65-6.72L1953.52,1074c12-4.82,24-9.66,35.14-16.19l5.54-1.43c24.35-13,50.4-26.77,77.28-33,5.65-1.31,14.37-2.48,19.75-4.64,2.38-1,1.76-4.17,3.42-6.13,3.72-4.37,2.82-11,5.08-16.27l7.62-10.4a94.07,94.07,0,0,1,29.25-17.67c2.59-1,5.37-1.85,8.09-1.34,3.8.69,6.7,4,8,7.63S2154,982.13,2154,986ZM897.27,1630.23a460,460,0,0,0-70.79-102.48c-2.47-2.7-5.08-5.45-8.44-6.9a47.9,47.9,0,0,1-20,39.59l-2.75,12.16a25.45,25.45,0,0,0-.75,20.65c4.12,10.62,6.36,20.28,13,29.54a203.72,203.72,0,0,0,18.72,23,37.86,37.86,0,0,0,9,7.42c4.42,2.39,9.51,3.21,14.52,3.61a100,100,0,0,0,38.27-4.4c4.94-1.57,10.3-4.09,11.92-9C901.42,1639,899.35,1634.35,897.27,1630.23Zm100.84-4.38,6-8.34c11.31-31.93,62.91-133,76.48-154.3,14-22,13-34.24,26.6-47.21,6.89-6.56,20-15.31,20-15.31-12-7.75-41-39.86-71.34-71.58-39.93-41.79-81.3-84.38-81.3-84.38-59.52,58.86-96.1,30.93-161.53,91.39,2.48,3.05,2.9,7.34,3.43,11.26a96.84,96.84,0,0,1,0,26.07l-1,1.34c2.19.92,2.79,3.74,2.72,6.12s-.46,5,.83,7a13.26,13.26,0,0,0,1.89,2.08c5.82,6,5.57,15.36,7,23.58,1.51,8.5,5.17,16.44,8.17,24.54s5.38,16.75,4.16,25.3l.22,3.82a117,117,0,0,1-.24,11.84c1.47-.64,3.32-.92,4.56.1a5.35,5.35,0,0,1,1.33,2q8.4,18.82,17.23,37.44a25.58,25.58,0,0,0,4.15,6.81l.92,2c7.32,10.64,75.16,117.4,75.16,117.4h11.35c7.22-.16,14.6-.34,21.37-2.85C984.84,1638.77,991.61,1632.22,998.11,1625.85Zm133.65-4.31a3.74,3.74,0,0,0-3.22-1.64c-2.41-.06-4.62,1.22-6.68,2.48-10.08,6.11-20.09,12.38-29.58,19.38-21.71,16-40.51,35.74-56.8,57.24-6,7.91-11.7,16.11-18.65,23.2-6.23,6.36-13.62,11.87-22,14.71l.67,1.58a136.56,136.56,0,0,1,15.12,44.66c4.68-3.37,6.36-9.43,9.23-14.44,4.25-7.42,11.32-12.71,17.75-18.34,16-14,29-31.21,41.78-48.26L1096,1680c7.11-9.47,14.26-19,20-29.37l3.24-5c5-6.72,11.71-13,12.88-21.28A4.56,4.56,0,0,0,1131.76,1621.54Zm43.06-188.21-.46-3.34a37.91,37.91,0,0,1-15.63-1.36s-11.67,21.94-17.81,27.93-33.73,25.27-44,39.24-61.85,88.79-59.19,110.4l4.35,5c6.16-.86,11.93-3.45,17.6-6,17.23-7.77,34.5-15.56,50.63-25.39l8.3-8c1.87-2.09,3.74-4.17,5.54-6.32,13.43-16,23.11-35.38,39.17-48.76l-.11-2.35c2.11-12.85,4.21-25.72,5.24-38.7C1169.54,1461.35,1169.44,1446.61,1174.82,1433.33Zm45.43-302.22L1229,1138a15,15,0,0,1,14.12-9.49,6.76,6.76,0,0,1,2.15-6.28,19.81,19.81,0,0,1,5.93-3.56l23.52-10.65a5.17,5.17,0,0,0,2.35-1.65,4.87,4.87,0,0,0,.61-2.38,73.86,73.86,0,0,0,.17-9l-3.17-10.52c-4.73-3.1-9.7-6-15.14-7.49s-11.46-1.59-16.6.76c-7.89,3.62-12.24,12-15.82,19.93q-6.32,13.93-11.79,28.24a11.54,11.54,0,0,1,3.44,1.8A3.85,3.85,0,0,1,1220.25,1131.11Zm107.8,70.59a20.39,20.39,0,0,1-14-2.78,15.29,15.29,0,0,1-7-12.17l-3.81-.87a6.51,6.51,0,0,1-.4-6.2l2.22-1.36c-2-11.11.53-22.53,3.6-33.41a26.4,26.4,0,0,1,2.36-6.24c2.35-4.06,6.82-7.11,7.43-11.76l-2.75-4c-1.44-1.23-3.63-.81-5.45-1.34s-3.27-2-4.93-3.07c-2.65-1.61-5.88-1.91-9-1.94a66.33,66.33,0,0,0-36.84,10.75c-3.75,2.46-7.91,5.45-12.28,4.45a24.68,24.68,0,0,1-1.71,9.73l2.32,6.92-1.49,3.93q-3.69,12-7,24.05a24.85,24.85,0,0,0-1.19,6.82l-5.31,6.74c-1.43,5.25-1.86,8.5-3.29,13.75a51.85,51.85,0,0,0-1.85,8.79,26,26,0,0,0,3.4,15.32l6.56,2.37c5.39-1.75,11.11-2.17,16.77-2.57,14-1,28.24-2,42,.77,4,.81,8,1.94,12.14,2.12a26.4,26.4,0,0,0,10.8-1.81l7.2-6.68c-.41-3.26-.72-6.52-.91-9.79C1325.36,1208.51,1325.44,1204.34,1328.05,1201.7Zm197.87-790.63a74.34,74.34,0,0,1,53.58,18.79,187.39,187.39,0,0,1,66.41-60.22l19.22-33.75c-1.43-13.48,4.81-26.54,11.87-38.12s15.25-22.85,18.44-36c.45-1.84.62-4.19-1-5.25a4.9,4.9,0,0,0-2.89-.56c-15.49.19-31.09.39-46.27,3.49l-108.6,22L1529.55,292a367.87,367.87,0,0,1-.77,68.41c-1.8,17.25-4.83,34.46-4.49,51.8Z"></path>
    <path data-name="3" data-official="Mammea Americana" data-plain="Mammee Apple" data-loc="South America" d="M1131.76,1621.54a3.74,3.74,0,0,0-3.22-1.64c-2.41-.06-4.62,1.22-6.68,2.48-10.08,6.11-20.09,12.38-29.58,19.38-21.71,16-40.51,35.74-56.8,57.24-6,7.91-11.7,16.11-18.65,23.2-6.23,6.36-13.62,11.87-22,14.71l.67,1.58a136.56,136.56,0,0,1,15.12,44.66c4.68-3.37,6.36-9.43,9.23-14.44,4.25-7.42,11.32-12.71,17.75-18.34,16-14,29-31.21,41.78-48.26L1096,1680c7.11-9.47,14.26-19,20-29.37l3.24-5c5-6.72,11.71-13,12.88-21.28A4.56,4.56,0,0,0,1131.76,1621.54Zm-726.41,1132q8.52-11.53,15.91-23.75l1.44-12.65c7.23-4.39,12.85-11,20-15.56,6.58-4.15,14.17-6.33,21.31-9.42,21.35-9.28,38.07-26.5,54-43.45a53.07,53.07,0,0,1,7.25-6.81c3.48-2.54,7.52-4.2,11.31-6.27a115.56,115.56,0,0,0,14.57-10l35.37-27.12c4.21-3.23,8.51-6.5,13.48-8.37l6.29.78,7.59,8Q617,2670.63,617,2742.5c0,8.09-.08,16.43-3.22,23.89-3.57,8.46-10.83,15.09-13.66,23.82-3.46,10.69.31,22.66-2.84,33.45-5,17-24.34,24.6-41.29,29.84-8.69,2.68-18.21,5.34-26.66,1.95-3.31-1.33-6.22-3.53-9.48-5-12.44-5.59-26.68.34-39.43,5.19-11.65,4.44-23.95,8-36.39,7.19s-25.11-6.78-31.26-17.62c-9.89-17.42-.33-40.25-7.46-59Zm737.59-112.44-23.06-26.34c-5.25-5-10.59-9.8-15.93-14.65l-10.12-9.2c-8.92-8.1-17.84-16.21-27.22-23.76-3.1-2.5-6.37-5-10.22-6a4,4,0,0,0-3,.1,4.54,4.54,0,0,0-1.59,2l-28.23-5.05c-30.8-16.74-51.86-47-68.23-78a470,470,0,0,1-52.25-258.93c2-23.32,5.86-46.62,4.83-70s-7.46-47.48-23.25-64.77L878,2067.75l-9.58-11.51c9.31-117-18.18-147.21-28.37-207.51l5.07-13q23.36-33.35,49-65l9.85-11.38a96.07,96.07,0,0,1,46.83-7.62,4.24,4.24,0,0,1,2.3.67,4.35,4.35,0,0,1,1.16,1.85,415.2,415.2,0,0,1,21.09,67l-1,1.47c-3-.56-5.87,2.07-6.74,5s-.32,6.09.1,9.13.64,6.3-.78,9a9.43,9.43,0,0,0-1.38,3,5.71,5.71,0,0,0,.63,2.9c3.06,7.27,7.31,14,10.62,21.12a90,90,0,0,1,7.94,45.44l-7,29.74a418.48,418.48,0,0,0,1.37,61.22l6.8,10.36,31-32.45a56.26,56.26,0,0,0,7-8.31c2.24-3.51,3.67-7.48,5.51-11.22,4.8-9.7,12.31-17.76,19.72-25.65l11.57-12.34-24.18-46a110.41,110.41,0,0,1,4.61-50.61c1.42-4.21,3.1-8.72,1.81-13-1.1-3.65-5.65-6.28-8.83-4.9,11.83-8.42,19-22.07,24.08-35.77,5.24-14.26,8.75-29.25,15.94-42.63,5.31-9.87,12.48-18.59,19.45-27.37a1084.42,1084.42,0,0,0,65.14-91.87l.65.32a160.69,160.69,0,0,0,58.32,2.34c7.2-1,14.32-2.56,21.54-3.45,17.08-2.09,34.37-.57,51.49,1.2a33.88,33.88,0,0,1,8.66,1.67c4.16,1.59,7.52,4.72,10.92,7.61a130.63,130.63,0,0,0,22.13,15.17c3.42,1.86,7.18,3.61,11,3.08l18-14.14c1.38,13.62,1.57,27.32,1.75,41l1.11,81.78-.58,4.5c2.26,4.17,4.56,8.44,5.24,13.13a39.34,39.34,0,0,1,0,8.61q-4.17,55.9-12.52,111.39l-1.09,4c-1.14,10.28-2.3,20.64-5.37,30.52-1.79,5.76-4.23,11.34-5.23,17.29a85.1,85.1,0,0,0-.67,13.92c-.11,47.42-12.8,93.8-25.39,139.51l-2.58,5.58a155.59,155.59,0,0,0-6.44,39.2,21.66,21.66,0,0,1-.88,6.63c-.51,1.41-1.33,2.7-1.7,4.14-.53,2-.16,4.12-.3,6.18-.38,5.64-4.43,11.59-1.56,16.45l-1.8.87c-2,1.2-2.57,3.73-3,6-7.25,39.24-12.42,78.82-17.59,118.38-2.33,17.83-4.66,35.68-5.71,53.64l-1,5.62q-4.11,22.62-6.92,45.46c-2.43,19.65-4.14,39.38-5.85,59.11l-4.32,50c-1.16,13.42-2.33,26.95-.78,40.33l.62,5.27c.73,13-.47,26-1.68,39l-6.21,66.92c-.33,3.5-.67,7.08-2.1,10.3s-4.16,6.06-7.63,6.68l-15.63,3.79Zm785.47-979.86c31.75,25,63.72,50.2,90.09,80.81,16.92,19.64,31.43,41.38,49.73,59.73,8.59,8.62,18,16.47,25.66,25.93,10.87,13.43,17.79,29.59,23.53,45.88,37.09,105.11,29.66,221.12,5.8,330l-16.83,13.67a170.6,170.6,0,0,1-22.78,20.27,25.27,25.27,0,0,0-4.63,4c-1,1.21-1.76,2.61-2.66,3.89-2.79,4-6.91,6.81-10.71,9.85-17.66,14.16-29.45,34.24-40,54.27-5.85,11.09-11.51,22.5-13.89,34.81-2,10.63-1.59,21.57-1.12,32.39l-4,9.15a450.83,450.83,0,0,0-20.34,56.13l-5.87,13.14c-8.41,16.62-24.35,27.83-39.19,39.1a589.59,589.59,0,0,0-100.92,97.64c-18.26,22.47-35.75,50.65-28.19,78.59-31.91-1.19-64.17-2.36-95.49,3.83-32.14,6.34-62.23,20.22-93.37,30.39-78.08,25.52-161.62,27.45-243.75,29.16l-21.23-2.27-12.73-18.14a274.25,274.25,0,0,1-6.79-66.24c0-1.12.17-2.44,1.15-3,1.17-.64,2.62.39,3.24,1.58s.86,2.6,1.76,3.6c1.64,1.83,4.84,1.33,6.56-.42s2.32-4.3,2.66-6.73a53.66,53.66,0,0,0-1.85-23.39l-.06-1.29a26.07,26.07,0,0,0-1.07-19.44c-1.26-2.67-4.82-5.32-6.75-3.08-.88,1-.77,2.53-1.06,3.85s-1.64,2.71-2.82,2.06c-.8-.44-.94-1.51-1-2.42l.31-2.69,1.32-31c1.54,2.39,3.6,5.06,6.43,4.94a5.52,5.52,0,0,0,4.4-3.18,15.11,15.11,0,0,0,1.28-5.5q.32-3.3.47-6.63a17.71,17.71,0,0,0-.5-6.12,6.52,6.52,0,0,0-4-4.41c-2-.61-4.44.35-5.06,2.32l-.45-2.29a151.76,151.76,0,0,1,1-16,6.29,6.29,0,0,0,8.23,3.71c3.41-1.53,4.63-5.72,5.06-9.43a63.57,63.57,0,0,0,.22-11.46c-.18-2.69-.7-5.73-3-7.21-3-2-7.27.32-8.8,3.57l.08-3.55a137.43,137.43,0,0,0,1.65-14.87c1.89,1.81,4.83,3,7.12,1.76,3.13-1.73,2.66-6.31,4.1-9.59.73-1.67,2-3,2.94-4.62a12.16,12.16,0,0,0-.28-12.42c3.62-.21,5.94-5.11,3.83-8.05l-.65-1.89c3.27-1.51,3.64-6.14,2.36-9.49s-3.7-6.28-4.47-9.79a21.88,21.88,0,0,1-.2-6q1.23-21.24,2.45-42.48l.54-.51c.51,1.46,2.48,2,3.9,1.37a7.06,7.06,0,0,0,3.16-3.27,25.25,25.25,0,0,0,2.17-19.38c-.57-1.87-1.45-3.79-3.14-4.78s-4.31-.48-4.92,1.37l-1.07-.58a255.8,255.8,0,0,0,1.51-27.25c3,2.43,5.66,6.45,9.55,6.11a6.41,6.41,0,0,0,4.79-3.41,14.83,14.83,0,0,0,1.55-5.87,45.48,45.48,0,0,0-.72-13.82,9,9,0,0,0-1.46-3.79,6.44,6.44,0,0,0-6.34-2.06,12.41,12.41,0,0,0-6,3.47l.43-1.68q.95-11.07,1.9-22.14a17.3,17.3,0,0,0,3.93,4.65,6,6,0,0,0,5.75,1c2.34-1,3.39-3.65,4.08-6.08,1.31-4.67,2.12-9.77.34-14.28s-7-8-11.52-6.3l.05-1.22a46.81,46.81,0,0,1,1.42-13.65c2.72,2.22,7.06,1.4,9.58-1.05s3.55-6.06,3.9-9.56a32.5,32.5,0,0,0-1.2-12.52c-.58-2-1.48-4-3.26-5s-4.59-.2-4.87,1.82q-.08-7.86-.14-15.71c2.18,2,3.42,5.29,6.29,5.86a5.07,5.07,0,0,0,4.62-1.81,11.29,11.29,0,0,0,2.25-4.64,31.51,31.51,0,0,0-2.83-23.54,8.5,8.5,0,0,0-3-3.45,3.56,3.56,0,0,0-4.27.35l.81-.83,16.66-100.68.67.52c1.65-.44,3.4-.47,5-1s3.24-1.68,3.52-3.37-1.56-3.56-3.1-2.81q-.27-4.62-.56-9.24a1.85,1.85,0,0,1,.18-1.14c.42-.61,1.34-.48,2.07-.62a3.17,3.17,0,0,0,2.13-3.78,6.26,6.26,0,0,0-2.93-3.69c-1.35-.88-2.86-1.51-4.18-2.43l.65-1.75,2.58-14.69a4.52,4.52,0,0,0,5,2.78,7,7,0,0,0,4.78-3.71,16.51,16.51,0,0,0,1.66-6,49.79,49.79,0,0,0,.19-11.38c-.16-1.51-.71-3.36-2.22-3.6-1.69-.27-2.94,1.81-4.65,1.9l.31-2.29a258.84,258.84,0,0,0,5.79-29.32c1.86,3.14,3.82,6.38,6.84,8.43s7.44,2.53,10.18.11c2-1.81,2.66-4.72,2.84-7.44.28-4.1-.32-8.54-3.08-11.59s-8.15-3.88-10.9-.82l.15-10c3.44,4.14,10.71,2.71,14-1.57s3.41-10.16,2.72-15.5a13.34,13.34,0,0,0-1.49-5.2c-2.65-4.46-8.79-5-14-5l1.29-1.39q3.59-22.66,7.19-45.34c1.73-10.92,3.46-21.85,4.48-32.87.56-6,.9-12,1.24-18.07q3.38-59.37,6.74-118.75l.6-3.12a28.23,28.23,0,0,1,6.55-18l3.48-10.69q1.39-13.74,2.78-27.48c.49-4.77.89-9.94-1.63-14l42.31,3.35a79.43,79.43,0,0,1,28.33-1.4,160.06,160.06,0,0,1,19.8,4.36c28.69,7.62,57.44,15.25,85.27,25.6,9.4,3.5,18.76,7.32,28.61,9.21,17.34,3.31,35.18.46,52.73-1.39,30-3.17,62.83-2.65,87.21,15.19,13.93,10.2,23.92,25.3,38.6,34.4,6.79,4.2,14.36,7,21.3,10.9,12.34,7,22.32,17.41,32.11,27.68a334.37,334.37,0,0,0-3.55-112.57l17.33-25.5Z"></path>
    <path data-name="3a" data-official="" data-plain="Seed" data-loc="" d="M1995.42,2497.06a284.39,284.39,0,0,0,57.12,177.56c13.36,17.63,29.55,35.5,30.68,57.59.49,9.71-2.07,19.31-2.63,29s1.41,20.45,8.89,26.67c6.73,5.6,16.17,6.19,24.92,6.52,17.55.64,35.39,1.19,52.4-3.18s33.38-14.4,41.35-30.05c6.52-12.8,7-28.29,14.93-40.27,4.65-7,11.49-12.25,17.8-17.83,39.22-34.69,60.22-86.32,67.71-138.15s2.76-104.54-2-156.68c-1.53-16.84-3.08-33.78-7.67-50.05-5-17.89-13.65-34.54-22.19-51-12.59-24.32-25.64-49.24-46.22-67.31-24.38-21.38-57.17-31-89.48-33.7l-17.82-2.58-16.83,13.67a170.6,170.6,0,0,1-22.78,20.27,25.27,25.27,0,0,0-4.63,4c-1,1.21-1.76,2.61-2.66,3.89-2.79,4-6.91,6.81-10.71,9.85-17.66,14.16-29.45,34.24-40,54.27-5.85,11.09-11.51,22.5-13.89,34.81-2,10.63-1.59,21.57-1.12,32.39l-4,9.15a450.83,450.83,0,0,0-20.34,56.13l-5.87,13.14Z"></path>
    <path data-name="4" data-official="Fruit of Clusia alba" data-plain="White-flowered Balsam-tree" data-loc="South America" d="M932.35,2429.32A471.73,471.73,0,0,1,903,2300.46l-12.65-20A393.48,393.48,0,0,0,853.78,2220l-19.5,1.18s-32.48-51.09-84.68-98.42l-1.24-4.34a27.75,27.75,0,0,1-7.89-21.66,2.71,2.71,0,0,1,.27-1.12,3.06,3.06,0,0,1,1.15-1,9,9,0,0,0,3.86-4.09c1.24-3.18-.69-6.91-3.56-8.76s-6.42-2.25-9.83-2.43a12,12,0,0,0,2.87-2.94,4,4,0,0,0,.32-3.93c-.76-1.39-2.45-1.94-4-2.24a30,30,0,0,0-10.94-.12A9,9,0,0,0,716,2072a3.87,3.87,0,0,0-1,4.57,30.68,30.68,0,0,0-9.42-.11,6.37,6.37,0,0,0-3.43,1.29c-2.11,1.88-1.28,5.4.32,7.73-3.26-.56-7-1-9.48,1.25-1.67,1.52-2.25,3.91-2.37,6.16a5.75,5.75,0,0,0,1.19,4.44c1.25,1.24,3.23,1.28,5,1.23l-.06,20.17a1.87,1.87,0,0,1-.22,1.07,2.42,2.42,0,0,1-1.24.67,4.12,4.12,0,0,0-1.34,6.46s-88.61,109.59-89.53,235.4c-.61,83.16,22,186.92,22,186.92l-3.52,15.88,5.9,46.69a973.38,973.38,0,0,0,82.16,221.58c6.33,12.26,13.1,24.62,23.18,34s24.13,15.61,37.69,13c6-1.13,11.52-3.87,16.8-6.89,9.94-5.69,19.38-12.62,26.33-21.73,11.15-14.62,14.91-33.35,20.58-50.85,6.51-20.08,15.82-39.1,24.35-58.4a806.1,806.1,0,0,0,65.91-258.57Z"></path>
</svg>
