
<svg xmlns="http://www.w3.org/2000/svg" viewBox="0 0 2196 2978" id="illustration" preserveAspectRatio="xMidYMid meet">
    <title>Dipterocarpaceæ</title>
    <path data-name="1" data-official="Dipterocarpus gracilis" data-plain="Slender-flowered Dipterocarpus" data-loc="India and Java" d="M1888.28,1384.17c16.87-4.89,34.7-5.11,52.26-5q52.14.25,104.2,3.65l21.11,9.46c21,3.81,31.4,28.83,30.26,50.17s-9.84,41.76-10.59,63.12c-1,27.75,11.52,54.16,25.84,78s30.92,46.68,39.69,73c7.75,23.3,9,48.18,10.15,72.71,3.33,69.77,6.65,139.57,6.74,209.42,0,22.26-.34,44.93-7.25,66.09-11,33.69-38.5,65.39-30.24,99.86l.2,29.41c3.91,36.88,3.12,74.07,2.33,111.15a220.54,220.54,0,0,1-1.43,24.52c-.76,5.66-2,11.38-4.84,16.34s-7.49,9.12-13.09,10.25c-8,1.63-16.17-3.26-21.22-9.72s-7.82-14.35-11.37-21.73c-12.4-25.77-34.59-45.44-57.75-62.21-9.64-7-20.89-13.89-32.61-11.85l-10.22-3.48c-5.27-1.06-9.34-5.54-11.33-10.53s-2.23-10.49-2.34-15.86c-.56-28.45,2-56.86,5.51-85.1.91-7.33,1.88-14.72,1.27-22.08s-2.93-14.8-7.87-20.3-12.79-8.68-19.94-6.82c-8.75,2.28-14.07,10.91-18.37,18.87-16.2,30-30.66,61-48,90.42l-20.18,2c-38.74-17.38-74.55-40.7-108.9-65.67-8.6-6.25-17.14-12.63-24.89-19.91a142.76,142.76,0,0,1-39-63.13l-.55-13.74c.09-2.44.14-4.87.14-7.31a43.43,43.43,0,0,0-.41-7.12,78.25,78.25,0,0,0-2.47-9c-2.4-8.3-3-17-4.49-25.51s-3.9-17.16-9.33-23.88l-5.91.91a152.19,152.19,0,0,0-11.47-14.7c-3.68-4.16-7.65-8.16-12.45-11s-10.35-4.36-15.79-5.82c-24.93-6.69-50.94-13-76.33-8.26l-13,3.93a15.2,15.2,0,0,0-5.95,2.88c-4.41,4.09-2.67,11.77-6.16,16.67a11.93,11.93,0,0,0-2,3,8.24,8.24,0,0,0-.25,2.43,35.18,35.18,0,0,1-3,13.71l-3.06,31.13a384.7,384.7,0,0,0,6.93,82.59c4,21.11,9.64,42,12.14,63.29,2.68,22.84,1.82,46.36,8.91,68.23l3.15,23.67c25,77.83,69.13,147.87,113.49,216.53,13.73,21.26,27.71,42.88,34.63,67.22l2.3,6.36s33,40,92,80c-33-10-87-36-87-36l-14.56,9.21c2.83,9.06-2.88,19.11-11,23.95s-18.1,5.51-27.57,5.13c-3.77-.16-7.68-.5-10.95-2.4-5.29-3.08-7.64-9.55-8.19-15.65s.27-12.28-.59-18.35c-2.9-20.5-23-33.11-38.27-47.09-17.73-16.22-30.52-37-42.68-57.74-19.09-32.54-37.31-65.82-49.87-101.39-10.23-29-16.74-59.53-31.53-86.46-10.64-19.39-25.61-37-30.37-58.64l-6-20.27s-73.72-131.68-116.28-233.32l.22.47c12.72.33,25.15-3.35,37.53-6.26,1.39-.33,2.78-.64,4.18-1l.32,1.13c19.91,47.56,46.65,101.69,69.46,145.83l7,.07c4.35,2.3,9.37-1.45,12.68-5.09,3.77-4.16,7.35-8.69,9.11-14,1.45-4.36,1.59-9,1.72-13.64.45-15.54.9-31.08.47-46.62a154.33,154.33,0,0,0-2-23c-3-16.41-10.33-32.7-7.36-49.12l-6.16-9.66a71.68,71.68,0,0,1,14.44-10.5,10.91,10.91,0,0,1,3.22-1.33,13.61,13.61,0,0,1,5.43.56,53.47,53.47,0,0,0,15.55,1.16l15.83,13.15c.33-2.44,2-4.45,3.4-6.47,3.44-5,5.48-10.78,7.45-16.5,1.39-4,2.79-8.33,1.91-12.51l-1.34-10.39a36.58,36.58,0,0,0-16.6-14l-11.36-3.16a35.59,35.59,0,0,1-16.06-16.09c-4.27-8.69-5.24-19.52-12.58-25.85l-7.87-11.79c-9.49-5.8-16-15.31-23.84-23.18-4.31-4.3-9.07-8.15-13.21-12.61-6.22-6.69-10.92-14.63-15.44-22.58q-7.79-13.69-15-27.7a88.32,88.32,0,0,1-6.53-14.93c-3.23-10.7-2.53-22.14-1.81-33.29l0-9c5.46-18.84,20.87-76.08,28.7-122,3.36-19.72,7.09-31.42,9.06-46,2.4-17.66,1.7-29.26,1.7-29.26s7.47-1,18.18,3.55c16.57,7,32.48,42.12,53.43,52.09,12.8,6.1,29.6,13.72,61.85,13.53,77.88-.47,193.32-31.93,216.82-55.87s88.68-45.67,88.68-45.67ZM1285.61,1575.1c-1.66-3.83-3.38-7.76-6.38-10.66s-7.61-4.54-11.43-2.88a12,12,0,0,0-4.31,3.54,42.13,42.13,0,0,0-4.77,7.75l-5.76-2.25c-2.08-1.28-3.92-2.91-5.92-4.32A34.77,34.77,0,0,0,1230,1560l-6,1.17c-4.72,1.89-7.22,6.94-9.48,11.51a198,198,0,0,1-20.51,32.87l1,6.16c5.24,12.16,2.52,26.68,8,38.74l10.38,10.74c10.12,13.55,15.22,30.1,20.14,46.28L1230,1715a47.8,47.8,0,0,1,1.44,10.74,210.16,210.16,0,0,0,4.23,30.18,76.71,76.71,0,0,0,5.74,17.93A34.09,34.09,0,0,0,1253.6,1788l13.65,1c8.42,21,16.85,42.07,27.09,62.26,2.19,4.34,4.47,8.64,6.55,13a159.17,159.17,0,0,1,7.38,18.48l1.24,1.13a16.84,16.84,0,0,0,7.34-1c1.24-.47,2.43-1.09,3.7-1.47a22.66,22.66,0,0,1,4.79-.67c8-.56,16.58-1.87,22.61-7.22l1.5-8.15a228.74,228.74,0,0,0-24-60.15l-15.68-9.63c-2.9-10.86-9.11-20.48-14.14-30.54s-9-21.36-6.86-32.4l-6.62-7.7q-5.58-11.88-10.64-24c-3.47-8.31-6.77-17.72-3.45-26.1l4.24-15.07A112.69,112.69,0,0,0,1290,1598Zm-5.15-41,4.69,7.19c2.08,3.19,4.48,6.62,8.15,7.65l3.16-19q-1.65-5.91-3.52-11.74c-.56-1.72-1.22-3.57-2.73-4.55a7.17,7.17,0,0,0-4.27-.82Zm48.34-462.56c0,3.74-3.17,6.94-3.17,10.68a13,13,0,0,0,.84,4c12.41,38.21,25.28,77.3,50.06,108.94l2.28,2.09a559.43,559.43,0,0,0,2.53-82c-.49-11.55-1.34-23.11-.59-34.64.51-8,1.78-16,1.08-23.92a96,96,0,0,0-2.52-13.54l-7.89-33.57-.85-3.89a74.92,74.92,0,0,0-5.42-23l-7.1-6.6c-4-6.09-8.63-12-14.78-16s-14.12-5.72-20.9-2.95a5,5,0,0,0-2,1.27,5.29,5.29,0,0,0-1,2.41,32.61,32.61,0,0,0,0,13.7c1,4.72,3.1,9.15,4.71,13.71,6.48,18.4,5.29,38.5,4,58Zm84.5-7.33a51.29,51.29,0,0,0-8.33,11.2,10.91,10.91,0,0,0-1.41,3.66,21.08,21.08,0,0,0,.22,4.19c.3,4.15-1.21,8.21-1.61,12.35a49.93,49.93,0,0,0,.15,8.29,334.11,334.11,0,0,1-1.55,63l1.35-1.61c8.33-9.83,16.71-19.74,23.15-30.9s10.9-23.79,10.71-36.68ZM320.49,676.75c-7.63,8.21-17.32,14.17-26,21.3s-16.62,16.1-18.73,27.11,2,22.35,7.49,32.16c12.74,22.78,33.75,41.19,58.64,49,16.19,5.1,33.53,5.74,49.67,10.95,8,2.57,16.16,6.85,19.49,14.51,5.3,12.16-4,25.38-12.8,35.3-34.15,38.54-69.57,76-101.95,116-8.71,10.76-17.61,22.89-17.39,36.73.09,5.06,1.54,10.26,4.95,14,5.82,6.37,15.52,7,24.14,6.67a247,247,0,0,0,68-12l16.5-3A146.42,146.42,0,0,1,450.18,996c7.13-1.81,14.41-4.08,21.4-6.38,5.63-1.85,11.11-5.37,17-6.08,6.41-.78,12.93.64,19.36,0,8.25-.84,15.85-5,24.07-6.07,7-.9,14.09.5,21.1-.09,8.32-.71,16.16-4.17,24.39-5.61,13.64-2.38,27.57,1.93,41.42,2.3,14.86.4,30.57-2.45,44,3.93l14.72,4.6c10.23,7,16.86,18.14,26.11,26.4,6.26,5.58,13.64,9.77,21.18,13.45q5,2.45,10.13,4.61l.54,1.67a13.06,13.06,0,0,0-7.23,3.47,5.28,5.28,0,0,1-1.91,1.42,4.52,4.52,0,0,1-2.65-.3,54.21,54.21,0,0,0-41.55,3.91l5.6,1.19c-4.52,2.07-9.74.23-14.65-.62a36.13,36.13,0,0,0-24.71,4.7,9.81,9.81,0,0,1-3.29,1.54,11.35,11.35,0,0,1-2.79-.08,18.14,18.14,0,0,0-11,2.59l2.07,1.62c10.5,13.35,26.57,21.47,43.15,25.16s33.77,3.34,50.72,2.29c4.94-.31,9.9-1.68,14.73-2.73a52.68,52.68,0,0,0,24.19-12.53,65.23,65.23,0,0,0-18.76,28.51c13.45,1.17,27.15-7.58,31.77-20.27l.54-.58a147.7,147.7,0,0,0,59.37,27.75c3,.64,6.31,1.14,8.9-.47l-2.14,2.81c-3.44,3.15-5.53,7.47-7.54,11.67l-2.87,6v1.66c-11.18-.51-21.18,6.68-29.39,14.29s-16.1,16.28-26.67,20c-7.2,2.51-16,3-20.5,9.12a6.08,6.08,0,0,0-1.35,5.19c.75,2.52,3.63,3.64,6.2,4.19a46.45,46.45,0,0,0,39.89-10.53c-23.22,23.88-43.66,51.26-54.6,82.72-2.92,8.38-5.15,17-8.58,25.21-.28.66-.54,1.5,0,2s1.59-.39,1-.74l-26.08,40.88,4.57,0a112.49,112.49,0,0,0,54.53-33.51c3.94-4.42,7.74-9.85,7-15.72l1.3-.17c15.31-9.59,31.29-19.88,39.85-35.79l.16-.52a1.52,1.52,0,0,0,.6,1.31l25.26-57.6a158.69,158.69,0,0,1,8.34-17.15c4.51-7.65,9.25-14.5,14.1-21.93s8.87-15.75,9.32-24.61l1.7-3.39c6,.93,12.15-.56,18-2.22s11.8-3.54,17.9-3.41,12.53,2.66,15.61,7.93l2.37,2.13c15.78,20.06,35.3,37,55.88,52.07a141.47,141.47,0,0,0,16.66,10.79c14.57,7.85,30.93,10.78,45.87,17.9,7.62,3.64,14.85,8.1,22.66,11.3,6.92,2.85,14.24,4.68,21,7.79a61.16,61.16,0,0,1,15,9.78c3.46,3.07,6.76,6.65,11.17,8.07l.89-9.72,1.53-10.65q-10.14-57.48-20.29-115c-4.53-25.66-9.07-51.86-5.32-77.65a123,123,0,0,1,13.55-40.75l-.84-12.71,5.48-12.15a28.28,28.28,0,0,1,1.5-3,35,35,0,0,1,2.16-3,151,151,0,0,0,20.31-35l-.14-10.72c1.54-4.16,4.55-7.67,5.94-11.88l3.16-4a31.31,31.31,0,0,1,2.37-4.47l-1.27-5.4a16.28,16.28,0,0,0,1.7-3.09l2.46-5.34a14.78,14.78,0,0,0,1.65-5.12l4.29-3,12.61-6.54,1.91-4.36a55.12,55.12,0,0,1,36.74-25.27l4.15-6.34,9.71-5.62c2.78-1.61,5.57-3.22,8.2-5.07,8.27-5.79,14.77-13.69,21.89-20.84,6.57-6.6,13.71-12.59,20.83-18.58l4.76-10.8a29.17,29.17,0,0,1,10.7-7.71,62.51,62.51,0,0,1,12.72-3.8l9-6.38q4.69-1.58,9.53-2.68l6.64.19c3.25-.37,6.21-2,9.29-3.1a63.94,63.94,0,0,1,7.6-2l5.69-5.59q14.83-7.49,29-16.29l7.42-9.14a22.14,22.14,0,0,0,4.67-4.65,26.5,26.5,0,0,1,3-3.84,21.15,21.15,0,0,0,1.56-1.43,16.2,16.2,0,0,0,1.81-3.2,21.77,21.77,0,0,1,2.86-3.84l5.2-4.77a19.89,19.89,0,0,0,4.85-6.87l.78-7.7c1.28-2.87,1.87-6,3-8.93,2.48-6.29,7.43-11.31,10.39-17.4a95.06,95.06,0,0,0,3.95-10.82c1-2.9,2.14-5.74,3.3-8.58l2.72-6.72c2.32-5.73,4.66-11.49,7.92-16.75l2.62-5.52a99.49,99.49,0,0,0,5.23-31.07l-.56-11.33a327.83,327.83,0,0,1-2.53-36.26c-.2-7.55-.25-15.48,3.24-22.18l-.06-5.27c-3.57-15.6-2.76-31.83-1.92-47.81l-.87-9.51c.08-2.15-2-3.78-2.41-5.9a7.69,7.69,0,0,1,.31-3.22l3.81-15.77a20.22,20.22,0,0,1,2.55-6.82l3.76-9.77a13.52,13.52,0,0,1,3.89-11.41c-2.58.49-5.15,1.07-7.69,1.74l-16.73,2.3a116.4,116.4,0,0,0-13.13,3.88c-5,1.91-9.63,4.48-14.49,6.64a95.1,95.1,0,0,1-22.13,6.79l-7.51,5.87a141.93,141.93,0,0,0-16.92,5.08,98.69,98.69,0,0,1-9.63,3.59,61.65,61.65,0,0,1-11.33,1.63l-20.21,1.65-10-1.48q-15.75.74-31.48,1.92l-8.53,3.11c-16.33,7.57-34.74,9.38-51.55,15.81-11.88,4.55-22.77,11.33-33.56,18.06l-11.43.83c-9.08,4.85-15.5,13.41-23.37,20.05-9.1,7.68-20.3,12.91-28.13,21.87l-8.36,2.29c-8.48.88-13.63,9.59-17,17.45a230.36,230.36,0,0,0-15,126l2.72,12.48a930.79,930.79,0,0,0,6.14,97.16c1.37,11.78,3,23.8,8.45,34.36l4.65,6.58c4.24.78,7.5,4.11,10.29,7.4,4.62,5.45,8.84,11.36,11.4,18L1141,828.45a73.91,73.91,0,0,1,.47,13.71,17.65,17.65,0,0,1-.85,5.06c-1.17,3.25-3.88,5.65-6.49,7.92L1128.53,873c-.24,4-2.57,7.58-3.2,11.53a44.86,44.86,0,0,1-.61,4.47l-5.62,8.38c-1.63,2.45-2.44,5.35-3.34,8.16a114,114,0,0,1-5.53,14l-1.7,7.29c-.54,6.1-3,11.89-6.32,17.06a115.88,115.88,0,0,1-11.47,14.32L1072,962.33c-6.24,2.6-13.66,4-19.55.73a18.53,18.53,0,0,1-7.27-8.23,55.49,55.49,0,0,1-3.49-10.57l-1.91-8.2c-1.44-15.28-16.08-27.13-16.64-42.47l1.27-5c-.77-5.55-4.69-10-8.36-14.28s-7.41-9-7.69-14.56c-.08-1.58,0-3.49-1.36-4.35A87.17,87.17,0,0,1,983.9,870.6l-13.78,10.52a37.08,37.08,0,0,1-9.92.67,16.85,16.85,0,0,1-6.64-1.58c-5-2.55-7.25-8.78-6.45-14.3s4.15-10.38,8.06-14.35a50.93,50.93,0,0,1,12.72-9.39l8.38-.09,9-6.58a31,31,0,0,1,8.11-4.75,57,57,0,0,1,6.75-1.43,34.41,34.41,0,0,0,16.14-8.18l-1.1-6.39c-3.8-2.91-9-3-13.77-2.91a9.31,9.31,0,0,0-3.2.43,9.89,9.89,0,0,0-2.73,1.91,52.58,52.58,0,0,1-23.68,11.67l-13.61,4.53a55.45,55.45,0,0,1-29.34-4,10.65,10.65,0,0,1-3.61-2.26,9.94,9.94,0,0,1-2.15-4.78c-.93-4.17-1-8.9,1.6-12.32a16.37,16.37,0,0,1,3.86-3.46A62.47,62.47,0,0,1,957,792.7l8,2.62c2.45,1,5.22.88,7.89.76,7.83-.37,16.25,0,22.56,4.63l4.34-5.93A128.63,128.63,0,0,0,994,762.59l-.91-8.8A32.53,32.53,0,0,0,984.32,740a98.8,98.8,0,0,0-13-10.2l-13.21-9.2-5.87,3.11a33.46,33.46,0,0,1-7.82,4.35l-5.95,3.16-4.41,3.73a26.93,26.93,0,0,1-6.74,4.6l-4,6.43c-4.63,2.64-10.18,3.11-15.51,3a22.21,22.21,0,0,1-7.12-1,9.29,9.29,0,0,1-5.37-4.55,11.82,11.82,0,0,1-.86-4.65,18.66,18.66,0,0,1,.62-5.52c1.64-5.62,6.76-9.39,11.57-12.73l7.32-2.89a24.88,24.88,0,0,1,8.74-5.65l-1.14-8.47c-14.29-7-24.52-20-34.26-32.64-1.53-2-3.1-4-3.7-6.48-.72-3,.11-6.07,1-9l2.82-6.91c4-9.61,9.21-19,16.84-26s18-11.71,28.39-10.63L945,609.1a168.69,168.69,0,0,1,7.7,71.75l2.77,8.44a28.82,28.82,0,0,0,5.74,19.9c3.52,4.61,8.34,8,13.09,11.37l8.8,6.2,2.38-7.54q0-17.36-.11-34.7c0-6.67.07-13.73,3.57-19.4l2.77-6.1c6.19-17.31,20.29-30.35,31.4-45,23.79-31.38,34.14-71.08,37.91-110.27s1.52-78.7,2.9-118.06c.27-7.45.7-15.08,3.66-21.92,2.78-6.45,7.62-11.76,12.37-16.94l-.83-10.12c3.4-3.65,4.58-8.78,6.86-13.21a28.65,28.65,0,0,1,6.54-8.37l7.4-6.36a37.65,37.65,0,0,1,10.63-12l35.37-28.7,11-10.42c40.39-20.6,69.14-63.39,70.75-108.71s-25.11-91-66.34-109.83C1141.41,30,1119.27,27,1097.44,24.9a922.92,922.92,0,0,0-145.32-2.38C927.9,24,901.65,27.45,884.5,44.61c-16,16-24.07,43.33-46.35,47-7.49,1.21-15.11-.78-22.35-3.07-24-7.62-47-18.75-71.74-23.93s-52.5-3.51-72.2,12.26C659,87.1,651.08,102.09,642.55,116.15c-15.26,25.13-34.39,49.28-60.79,62.22-17.71,8.67-37.88,11.89-54.81,22C492.18,221.14,479.4,266,480.62,306.48s13.22,80,14.78,120.51c1.25,32.38-4.22,64.68-11.9,96.17-4.36,17.89-9.54,35.84-19,51.61C439,617,388.59,635.67,341.92,651.43ZM1364,1488.41c3-7.63,3.42-15.94,4-24.09,1.92-25.73,5.59-51.31,10-76.74,1-5.53,2-11.16,4.64-16.1l-.88-1.43c-7-5.25-10.79-13.76-13-22.21s-3.31-17.25-6.3-25.47c-2.05-5.65-5-11-6.57-16.76s-1.74-11.77-1.78-17.72c-.09-12.82.39-25.71,2.89-38.28,2.24-11.2,6.14-22.19,12.34-31.76l-1.51-1.18a447.64,447.64,0,0,1-41.93-91.23l-1.62-2a83.67,83.67,0,0,0-5.63-6.42,74.9,74.9,0,0,0-12.06-9.17c-4-2.62-8.16-5.2-12.74-6.67-7.49-2.4-15.58-1.64-23.4-.85l-.2,12.58q-8.25,16.11-15.57,32.66c-4.45,10.06-8.71,20.78-7.51,31.71l2.74,14.91a42,42,0,0,1,5.22,11.68c.56,2,.78,4.56-.9,5.8a4.82,4.82,0,0,1-2.44.77c-7.14.81-15.38-1.43-20.89,3.18a20.57,20.57,0,0,1,16.8,9.65c4,6.51,4,14.62,3.83,22.25a24.5,24.5,0,0,1-1,7.78,8.22,8.22,0,0,1-5.31,5.39c-3.42.87-6.79-1.31-9.71-3.29a177.87,177.87,0,0,0-23-13.22,18.18,18.18,0,0,0-6.77-2.18,16.28,16.28,0,0,0-7.12,1.64,50.68,50.68,0,0,0-13.46,8.46l5.41,4,6.92,8.37,3.32,8.31s114.73,100.1,107.42,149c0,0-4.33,35.57-18,35.91h-8.2c15.29,23.49,28.15,59.64,28.15,59.64l3.82,1.9a14.7,14.7,0,0,0,5.46.39,76.42,76.42,0,0,0,13.67-1.54l9,72.18c8.72-28.45,10.49-58.61,18.45-87.28l1.22-7.62Z"></path>
    <path data-name="1a" data-official="" data-plain="Pistil" data-loc="" d="M2098.79,2676.78a196.54,196.54,0,0,1-.82,83.7c-2.3,10.05-5.4,19.95-6.54,30.2-3,26.81,7.65,53.27,8.55,80.23.2,6.05.29,13,4.94,16.9,2.75,2.3,6.49,2.92,10,3.34,13.51,1.6,27.66,1.36,40.11-4.13s22.83-17.14,23.74-30.71c.49-7.26-2.46-15.43-9.15-18.28-2.55-1.08-5.41-1.3-8-2.39-8.52-3.64-10.23-15-9.13-24.18,1.15-9.53,4-19,2.8-28.58a34.86,34.86,0,0,0-7.91-18.12c-2.66-3.15-5.9-5.85-8.12-9.33a31.62,31.62,0,0,1-3.9-10.71c-2.59-12.59-1.94-25.58-2.18-38.43a274.43,274.43,0,0,0-11.17-72.46c-2.3-7.8-5.57-16.25-12.83-19.93a16.38,16.38,0,0,0-20.24,5.18l-1.06,8.7c5.43,4,6.31,11.79,5.42,18.48C2092.19,2655.28,2098.79,2676.78,2098.79,2676.78Z"></path>
    <path data-name="1b" data-official="" data-plain="Stamens" data-loc="" d="M2051.58,2648.72a57.53,57.53,0,0,1,12.75-16.18c6.53-5.76,16.63-9.93,23.64-4.76,5.43,4,6.31,11.79,5.42,18.48-1.2,9-4.72,17.54-7.64,26.16-18.91,55.64-13.66,116.39-4.66,174.46,1.49,9.61,2.92,20.12-2,28.5-2.36,4-6,7.12-9.78,9.85-8.63,6.23-18.81,11-29.45,10.86s-21.66-6.16-25.33-16.16l-7-4.94c7.5-16.8,7.64-35.89,12.66-53.59,2.63-9.27,6.61-18.16,8.64-27.59,2.35-10.92,2-22.25,3.75-33.28a89.91,89.91,0,0,1,12.37-33.31c3.39-5.46,7.53-11.16,7-17.56-.26-3.34-1.78-6.43-2.75-9.64-4.16-13.82,2.1-29.42-3.11-42.88Z"></path>
    <path data-name="1c" data-official="" data-plain="Pistil and stamens" data-loc="" d="M1946.21,2725.89c-9-15.43-13.38-33.76-10.87-51.44s12.21-34.51,27.1-44.37,34.9-12.08,51.06-4.49c7.94,3.73,14.7,9.55,20.94,15.7,4.7,4.65,9.28,9.68,11.66,15.85,5.21,13.46-1,29.06,3.11,42.88,1,3.21,2.49,6.3,2.75,9.64.5,6.4-3.64,12.1-7,17.56a89.91,89.91,0,0,0-12.37,33.31c-1.73,11-1.4,22.36-3.75,33.28-2,9.43-6,18.32-8.64,27.59-5,17.7-5.16,36.79-12.66,53.59-2.59,5.81-6.16,11.37-11.34,15.07a37.9,37.9,0,0,1-12.56,5.37,80.1,80.1,0,0,1-23.38,2.51c-3.77-.15-7.71-.64-10.82-2.77-4.93-3.38-6.49-10-6.57-15.92a49,49,0,0,1,4.67-21.44c3.55-7.55,9-14.15,11.87-22,2.79-7.68,2.88-16,2.91-24.2.07-23.26-.35-47.34-10.14-68.43Z"></path>
    <path data-name="1d" data-official="" data-plain="Seed-vessel" data-loc="" d="M1859.21,2137.88l3.83,20.86a68.17,68.17,0,0,0,28.94,11.58c2.38.35,4.92.64,6.77,2.17,1.17,1,2,2.32,3.12,3.27a12,12,0,0,0,3.13,1.64q22.59,9.07,45.89,16.25c3.92,1.21,7.94,2.38,12,2.3,5.14-.1,10-2.17,14.72-4.19l2.8-4.46c-5.27-1.06-9.34-5.54-11.33-10.53s-2.23-10.49-2.34-15.86c-.56-28.45,2-56.86,5.51-85.1.91-7.33,1.88-14.72,1.27-22.08s-2.93-14.8-7.87-20.3-12.79-8.68-19.94-6.82c-8.75,2.28-14.07,10.91-18.37,18.87-16.2,30-30.66,61-48,90.42Zm111.66,172.34c-15.27,90.21-8.62,187.65-53.91,267.15-7.08,12.42-15.43,24.39-19.33,38.15-4.32,15.2-2.86,31.37-1.29,47.1,1.68,16.83,3.45,33.73,7.58,50.13,8.94,35.57,28.9,71.95,17.31,106.75-5.09,15.29-16,28.41-19.33,44.17-2.32,10.85-.93,22.49-5,32.81-8.58,21.64-35.92,27.62-59.1,29.83-13,1.24-26.31,2.23-38.88-1.24s-24.42-12.32-27.94-24.88c-1.74-6.17-1.42-12.94-4.24-18.7-5.47-11.12-20.19-14.23-28-23.89-4.55-5.65-6.28-13-7.11-20.26-5.09-44.55,19.56-90,7.91-133.34-5.52-20.52-18.65-38-28.75-56.68a207.93,207.93,0,0,1-24.88-98.53l-11-6.13c8.15-4.84,13.86-14.89,11-23.95l14.56-9.21s54,26,87,36c-59-40-92-80-92-80l-2.3-6.36c-6.92-24.34-20.9-46-34.63-67.22-44.36-68.66-88.53-138.7-113.49-216.53l-3.15-23.67c-7.09-21.87-6.23-45.39-8.91-68.23-2.5-21.34-8.12-42.18-12.14-63.29l52.81-14.13c31.39,31.3,62.86,62.67,97.51,90.32,42.11,33.62,88.49,61.42,134.71,89.1,7.22,4.33,14.49,8.68,22.41,11.52l11.44-1.39c10.94,3.38,21.92,6.79,32.37,11.49,6.33,2.86,12.47,6.19,19,8.39,5.51,1.84,11.26,2.85,16.83,4.46,12.3,3.56,23.66,10,36.11,12.95,4.58,1.09,9.32,1.71,13.68,3.49s8.44,5,9.83,9.51l1.64,9.21Z"></path>
    <path data-name="1e" data-official="" data-plain="Section of Ovary, magnified" data-loc="" d="M1569.06,2748.28c4.94-15,18.34-26.17,33.16-31.71s31-6.14,46.8-5.54c12.07.46,24.38,1.66,35.36,6.69,13.52,6.19,24,17.89,30.65,31.22s9.52,28.22,10.55,43c1.31,18.77-.71,38.86-12,53.87-10.65,14.1-28.28,22.07-37.5,37.14-4.68,7.64-6.91,16.72-12.47,23.74s-13.93,11.31-22.58,13.51-17.66,2.49-26.59,2.77c-4.4.14-9.12.19-12.79-2.24-4.68-3.11-6.19-9.36-6-15s1.69-11.17,1.37-16.78c-.51-8.88-5.49-16.9-11.29-23.64s-12.54-12.68-17.72-19.91c-8.52-11.87-12.3-26.67-12.77-41.28s2.2-29.14,5.6-43.36Z"></path>
    <path data-name="2" data-official="Hopea odorata" data-plain="Sweet-scented Hopea" data-loc="Chittagong" d="M1859.21,2137.88c-38.74-17.38-74.55-40.7-108.9-65.67-8.6-6.25-17.14-12.63-24.89-19.91a142.76,142.76,0,0,1-39-63.13l-.55-13.74c.09-2.44.14-4.87.14-7.31a43.43,43.43,0,0,0-.41-7.12,78.25,78.25,0,0,0-2.47-9c-2.4-8.3-3-17-4.49-25.51s-3.9-17.16-9.33-23.88l-5.91.91a152.19,152.19,0,0,0-11.47-14.7c-3.68-4.16-7.65-8.16-12.45-11s-10.35-4.36-15.79-5.82c-24.93-6.69-50.94-13-76.33-8.26l-13,3.93a15.2,15.2,0,0,0-5.95,2.88c-4.41,4.09-2.67,11.77-6.16,16.67a11.93,11.93,0,0,0-2,3,8.24,8.24,0,0,0-.25,2.43,35.18,35.18,0,0,1-3,13.71l-3.06,31.13,12.29,5.83c2.58,5.76,6.74,10.65,10.85,15.44q15.65,18.21,31.43,36.29l5.17,10.9c31.39,31.3,62.86,62.67,97.51,90.32,42.11,33.62,88.49,61.42,134.71,89.1,7.22,4.33,14.49,8.68,22.41,11.52l11.44-1.39c10.94,3.38,21.92,6.79,32.37,11.49,6.33,2.86,12.47,6.19,19,8.39,5.51,1.84,11.26,2.85,16.83,4.46,12.3,3.56,23.66,10,36.11,12.95,4.58,1.09,9.32,1.71,13.68,3.49s8.44,5,9.83,9.51l1.64,9.21c8.13,13,10.84,28.85,18.94,41.9a58.55,58.55,0,0,0,14.28,15.69l8.64,3.67c10.7,4.13,22.75,1.21,33.54-2.66,8.45-3,16.85-6.73,23.6-12.65s11.7-14.41,11.62-23.39l1.14-12.84c-12.4-25.77-34.59-45.44-57.75-62.21-9.64-7-20.89-13.89-32.61-11.85l-10.22-3.48-2.8,4.46c-4.72,2-9.58,4.09-14.72,4.19-4.1.08-8.12-1.09-12-2.3q-23.28-7.16-45.89-16.25a12,12,0,0,1-3.13-1.64c-1.17-1-1.95-2.31-3.12-3.27-1.85-1.53-4.39-1.82-6.77-2.17a68.17,68.17,0,0,1-28.94-11.58ZM970.05,1520.31a53.69,53.69,0,0,1,12.76-9l-7-20.86c-.78-2.31-1.6-4.69-3.27-6.45a8.15,8.15,0,0,0-7.44-2.39,7.49,7.49,0,0,0-5.65,5.3c-.57,2.2,0,4.53.54,6.72a114.49,114.49,0,0,0,10,25ZM1332.33,1751c-2.45-4.6-7.24-7.38-11.79-9.93l-7.79-4.36c-6.85-3.84-13.86-7.74-21.58-9.22l-9-2.57q-5.58-11.88-10.64-24c-3.47-8.31-6.77-17.72-3.45-26.1l8.92,5.27q9.16,5.88,17.86,12.43l5.58,5.67c16.3,1.72,29.92,12.91,45.42,18.24l13-.11a423.79,423.79,0,0,0,38.93,18.22l6.48,1.54c4.14,4.46,8.9,8.31,13.21,12.61,7.86,7.87,14.35,17.38,23.84,23.18l7.87,11.79c7.34,6.33,8.31,17.16,12.58,25.85a35.59,35.59,0,0,0,16.06,16.09l11.36,3.16a36.58,36.58,0,0,1,16.6,14l1.34,10.39c.88,4.18-.52,8.47-1.91,12.51-2,5.72-4,11.51-7.45,16.5-1.39,2-3.07,4-3.4,6.47l-15.83-13.15a53.47,53.47,0,0,1-15.55-1.16,13.61,13.61,0,0,0-5.43-.56,10.91,10.91,0,0,0-3.22,1.33,71.68,71.68,0,0,0-14.44,10.5l6.16,9.66c-3,16.42,4.39,32.71,7.36,49.12a154.33,154.33,0,0,1,2,23c.43,15.54,0,31.08-.47,46.62-.13,4.6-.27,9.28-1.72,13.64-1.76,5.33-5.34,9.86-9.11,14-3.31,3.64-8.33,7.39-12.68,5.09l-7-.07c-22.81-44.14-49.55-98.27-69.46-145.83l-.32-1.13c-1.4.31-2.79.62-4.18,1-12.38,2.91-24.81,6.59-37.53,6.26l-.22-.47c42.56,101.64,116.28,233.32,116.28,233.32l6,20.27,3.3,8.71A203.88,203.88,0,0,0,1460,2217c2.7,4.37,5.59,8.66,7.65,13.36a43.26,43.26,0,0,1,3.42,13c.64,6.33-.34,13.22-4.61,17.94s-12.5,6.06-17,1.54l-3,13.19c20,72.19,2.42,150,17.2,223.46,9,44.57,29.83,88.06,25,133.27-.31,2.86-.75,5.8-2.24,8.27-2.34,3.85-6.86,5.85-11.29,6.72-14.83,2.91-29.65-4.27-42.7-11.89A449.55,449.55,0,0,1,1257.14,2448l-17.2-34.13c-14-25-34-46-54.06-66.39l-5.5,9.47a933.69,933.69,0,0,0-14.48,116.89c-1.24,20.6-1.81,41.36-6.11,61.55-2.85,13.41-7.65,27-17.5,36.53-3.12,3-7,5.69-11.34,5.83-9.35.3-14.79-10.19-22.47-15.54-8-5.59-19-5.33-28.11-1.65s-16.58,10.31-23.7,17a480.87,480.87,0,0,0-49.22,54.14l-17.58,11A263,263,0,0,0,925,2739.68c-5.94,15.52-10.47,31.76-19.11,46-1.32,2.17-2.92,4.42-5.34,5.17-2.93.91-6-.7-8.52-2.49-22.87-16.31-27.44-47.59-34-74.9-14.41-59.69-47.06-114.34-56.53-175-2-12.82-3-25.93-7.22-38.19s-12.47-23.92-24.57-28.59c-10.13-3.92-21.5-2.47-32.06.08-27.51,6.65-55.13,20.51-82.74,14.26-17.44-4-32.31-15.72-43.37-29.77s-18.78-30.39-26.4-46.57L566.81,2391a224.35,224.35,0,0,0-32.52-97c-10.2-16.48-22.95-32-39.81-41.49-17.3-9.78-37.5-12.58-56.8-17.25-71.41-17.29-134.47-61.68-206.65-75.36-34.81-6.59-74.53-7.55-98.66-33.49-20.36-21.89-22.51-54.37-28.93-83.57-6.09-27.69-16.86-54.13-23.93-81.58C55.77,1869,74,1767.09,34,1680.73L22.91,1646C13,1603.47,7.35,1559.4,13,1516.1c3.48-26.73,11.2-52.77,14.87-79.48,5.12-37.36,2.4-76.34,15.44-111.72,2.39-6.49,5.38-12.92,10.2-17.87,7.71-7.93,19-11,29.9-13.07,64.09-12,132.88,4,185.21,42.84,11.06,8.22,21.59,17.51,34.27,22.91,24.24,10.32,52,4.82,77.71-.84l44.41-2.1c19-1.65,38,1.79,56.72,5.22l10.18,1.85a89.31,89.31,0,0,0,20.85,10.57c8.79,3.09,18.14,4.84,26.26,9.41,6,3.38,11.11,8.18,15.67,13.34l9.2,5.33a257.26,257.26,0,0,1,60.89,32.23l25.84,11.06q18.17,14.52,36.16,29.26c7.89,6.46,15.84,13,21.92,21.22,6.46,8.68,10.56,18.84,15.72,28.36A143.19,143.19,0,0,0,766,1572.06l2.86,1.6c7.14,5,14.53,10.07,23,12,2.24.51,4.53.79,6.75,1.4,3.63,1,7,2.79,10.49,4.1,3.92,1.45,8,2.27,12,3.66,3.22,1.14,6.29,2.66,9.4,4,14.52,6.44,30.09,10.07,45.56,13.66l2.09,2c-3.88,5.14-7.15,11.32-6.46,17.72l4.08,0a1,1,0,0,1,.71.2.94.94,0,0,1,.18.68l0,5.77-3.81,15c1.56,6.5,6.51,11.61,11.61,15.93,8.42,7.15,18,13.22,28.69,16,18.27,4.76,37.49-.5,55.63-5.72l8.12-3.53a12,12,0,0,0-1.23-10.68l10.95,5.4a222,222,0,0,0,132.32,11.32l5.88-3.83c-6.56-9.71-18.51-14-29.81-17.14a316.65,316.65,0,0,0-44.09-8.76c-8.83-1.1-17.72-1.84-26.4-3.8-4.85-1.1-9.62-2.58-14.5-3.52-4.28-.83-8.63-1.24-13-1.64-10-.94-20-1.88-29.94-1.41l-3.07,0a50.54,50.54,0,0,1,3-17l.77-2.28a259.53,259.53,0,0,1,31.91,1.47l6-.62c-6.69-11.39-13.57-23.6-13.12-36.81l-1.16-1.85a52.77,52.77,0,0,1,11-16.64l3.44-2.29c3.54,6.75,7.1,13.54,9.35,20.81,1,3.07,1.67,6.22,2.74,9.26a84.08,84.08,0,0,0,4.68,10.22l10.29,20,1.77,2.15a549.2,549.2,0,0,1,120.72,18.76l16.92-1.85,10.12,4.13c7.93,3.23,15.92,6.48,24.33,8l6.55,3.2c10.12,13.55,15.22,30.1,20.14,46.28L1230,1715a47.8,47.8,0,0,1,1.44,10.74,210.16,210.16,0,0,0,4.23,30.18,76.71,76.71,0,0,0,5.74,17.93A34.09,34.09,0,0,0,1253.6,1788l1.35,33.54c2.62,4.28,7.7,6.19,12.19,8.41a59.9,59.9,0,0,1,13.18,8.88c3.18,2.82,6.23,6.09,10.28,7.38l2.11,1.79c.54,1.09,1.08,2.17,1.63,3.24,2.19,4.34,4.47,8.64,6.55,13a159.17,159.17,0,0,1,7.38,18.48l1.24,1.13a16.84,16.84,0,0,0,7.34-1c1.24-.47,2.43-1.09,3.7-1.47a22.66,22.66,0,0,1,4.79-.67c8-.56,16.58-1.87,22.61-7.22l1.5-8.15a228.74,228.74,0,0,0-24-60.15Z"></path>
    <path data-name="2a" data-official="" data-plain="Flower, magnified" data-loc="" d="M922.82,2753.94c6.34-9.65,18.32-14,29.77-15.59s23.2-1,34.42-3.78c5.76-1.42,12.1-4.63,13.14-10.46a16.1,16.1,0,0,0-.69-6.84c-1.71-6.43-4.25-12.71-4.79-19.35s1.38-14,6.84-17.79c6.83-4.75,16.07-2.35,24.18-.44a147.62,147.62,0,0,0,23.75,3.62c2,.14,4.07.2,5.66-.93,1.41-1,2.09-2.69,3-4.18,4.66-8.1,15-10.84,24.38-11.21,14-.56,28.72,2.87,38.76,12.56,11.18,10.78,14.6,27,20.48,41.36,1,2.39,2.8,5.18,5.35,4.74,1.39-.24,2.39-1.42,3.42-2.39,8.67-8.29,23.55-4.26,32.44,3.79,11.5,10.42,17.38,26.21,17.44,41.72s-5.31,30.73-13.42,44a110.53,110.53,0,0,1-37.76,37.26c-12.73,7.51-26.85,12.32-40,19.08-13.32,6.86-25.69,15.73-39.82,20.72s-31.09,5.4-42.87-3.86c-4.44-3.49-7.85-8.12-12-11.92-12.78-11.58-31.17-14.18-48.39-15.22q-20.35-1.23-40.76-.53c-10.56.36-23.62-.28-28.18-9.81a18.85,18.85,0,0,1-1.3-10.3,32.12,32.12,0,0,1,12.53-21.75c8.26-6.18,20.6-9.8,22.34-20,2-11.78-12.84-22.08-9.63-33.59Z"></path>
    <path data-name="2b" data-official="" data-plain="Stamens, magnified" data-loc="" d="M802.57,2797.63a83,83,0,0,1-7.87-19.31c-1.92-7.21-2.71-15.4,1.3-21.7a9.09,9.09,0,0,1,4.07-3.72,12.2,12.2,0,0,1,5.89-.35c8.46.94,16.84,2.47,25.22,4,5.89,1.07,12.14,2.32,16.47,6.46,3.42,3.27,5.14,7.89,6.76,12.34,1.51,4.17,3.05,8.45,3,12.89,0,8.87-6.14,16.56-7.9,25.25a42.81,42.81,0,0,0-.5,10.85,115.76,115.76,0,0,0,4,24.45c3.28,11.86,8.4,24.81,3,35.89-2.89,6-8.41,10.22-14.24,13.36a65.51,65.51,0,0,1-32.21,7.79c-3.14-.06-6.38-.38-9.14-1.88s-4.84-4.07-6.8-6.56-3.75-4.82-4.23-7.75a15.41,15.41,0,0,1,.79-6.75c2.15-7.41,5.7-14.33,8.12-21.65,5.77-17.41,5-36.22,4.1-54.54Z"></path>
    <path data-name="2c" data-official="" data-plain="Pistil, magnified" data-loc="" d="M727.41,2771.59c.61,28.18-16.08,54.27-17.19,82.43a76,76,0,0,0,1.84,19.84c1.13,4.93,2.83,9.88,6.15,13.69,4.24,4.88,10.76,7.36,17.2,7.88s12.91-.72,19.2-2.25c11.72-2.84,24.43-7.73,29.54-18.66,3-6.32,2.81-13.6,2.6-20.58-.54-17.41-1.14-35.2-7.32-51.48-3.61-9.52-9-18.25-13.1-27.59-5.11-11.72-8.06-24.37-14-35.69-1.18-2.26-2.72-4.65-5.18-5.35s-5.29.69-6.91,2.78a18.43,18.43,0,0,0-2.89,7.29,141.9,141.9,0,0,0-3.13,20.7Z"></path>
    <path data-name="2d" data-official="" data-plain="Seed-vessel" data-loc="" d="M474.94,2538.81a210.57,210.57,0,0,1,111.62,105.36c8.48-24.21,28.39-42.55,49.09-57.7,22.59-16.53,46.93-30.5,71.21-44.44,12.07-6.93,24.29-13.92,37.66-17.82,8.43-2.45,19-3,24.55,3.78,2.41,3,3.4,6.79,4.07,10.54,6.68,37.28-14.61,77.77-49.12,93.39-8.56,3.88-17.81,6.38-25.73,11.44-21.61,13.79-27.84,42.7-26.76,68.31,1,23.09,6.24,45.77,9,68.72s2.71,47-6.37,68.23c-5.36,12.56-13.68,23.64-19.81,35.85s-10,26.53-5.8,39.51c1.09,3.31,2.7,6.51,3,10,.71,7.56-4.81,14.38-11.1,18.62-14.75,9.93-33.74,10.2-51.52,10.12-10.6,0-22.55-.66-29.62-8.57-11.6-13-1.28-33.47-4-50.66-1.3-8.26-5.67-15.66-8.78-23.43-13.73-34.24-2.48-73.53-10.22-109.6-5.39-25.08-19.85-47.51-37.71-65.93s-39.08-33.18-60.48-47.33l-12.67-19.95c-8.81-8.46-12.75-21.22-19.21-31.59-1.83-2.93-4-5.69-5.63-8.72-6-10.83-6.55-23.89-6-36.24.13-2.62,2.26-6.3,3.21-8.75,1.79-4.59,6.28-6.69,11-8.08s9.75-1.33,14.68-1.31c7.23,0,14.53-.05,21.56-1.71Z"></path>
    <path data-name="3" data-official="Shorea robusta" data-plain="Saul-tree" data-loc="Hindostan" d="M1332.33,1751l-6.88,54.19-15.68-9.63c-2.9-10.86-9.11-20.48-14.14-30.54-4.47-8.94-8.08-18.86-7.34-28.71l-6.14-11.39,9,2.57c7.72,1.48,14.73,5.38,21.58,9.22l7.79,4.36C1325.09,1743.63,1329.88,1746.41,1332.33,1751ZM741.46,1268.89l-.57.9C741.39,1269.77,741.94,1269.16,741.46,1268.89ZM1267.25,1789l-13.65-1,1.35,33.54c2.62,4.28,7.7,6.19,12.19,8.41a59.9,59.9,0,0,1,13.18,8.88c3.18,2.82,6.23,6.09,10.28,7.38l2.11,1.79,0,0C1283.19,1828.76,1275.21,1808.85,1267.25,1789Zm-12.44,841.47c-8.45-30.49-7.83-62.68-6.75-94.3q1.43-41.88,3.83-83.72l5.25-4.39-17.2-34.13c-14-25-34-46-54.06-66.39l-5.5,9.47a933.69,933.69,0,0,0-14.48,116.89c-1.24,20.6-1.81,41.36-6.11,61.55l-9.41,45.22-12.07,47.67c-2.31,9.14-4.46,19.49.56,27.47,5.65,9,18,11,28.56,9.64s21-5,31.52-3.76,20.06,7.4,26.44,15.8c1.8,2.37,3.43,5,5.89,6.63,4.47,3,10.4,2.19,15.7,1.21,5.09-1,10.79-2.35,13.4-6.82a16.15,16.15,0,0,0,1.75-7.14,69.73,69.73,0,0,0-.82-16.7C1259.91,2646.41,1257.05,2638.5,1254.81,2630.44Zm880.93-1586.82c-1.49,36-3.09,72.67-15.18,106.63-11.38,32-31.54,60.08-44,91.62-15,38.07-21.36,84.41-55.69,106.7l-80.33,30.58c-17.56-.09-35.39.13-52.26,5l-44.44,14.73s-65.18,21.73-88.68,45.67-138.94,55.4-216.82,55.87c-32.25.19-49-7.43-61.85-13.53-21-10-36.86-45.05-53.43-52.09-10.71-4.56-18.18-3.55-18.18-3.55s.7,11.6-1.7,29.26c-2,14.58-5.7,26.28-9.06,46-7.83,46-23.24,103.21-28.7,122l0,9c-.72,11.15-1.42,22.59,1.81,33.29l-21.36,45.56c-15.5-5.33-29.12-16.52-45.42-18.24l-5.58-5.67q-8.68-6.54-17.86-12.43l-8.92-5.27,4.24-15.07A112.69,112.69,0,0,0,1290,1598l-4.37-22.88c-1.66-3.83-3.38-7.76-6.38-10.66s-7.61-4.54-11.43-2.88a12,12,0,0,0-4.31,3.54,42.13,42.13,0,0,0-4.77,7.75l-5.76-2.25c-2.08-1.28-3.92-2.91-5.92-4.32A34.77,34.77,0,0,0,1230,1560l-6,1.17c-4.72,1.89-7.22,6.94-9.48,11.51a198,198,0,0,1-20.51,32.87l1,6.16c5.24,12.16,2.52,26.68,8,38.74l10.38,10.74-6.55-3.2c-8.41-1.55-16.4-4.8-24.33-8l-10.12-4.13-16.92,1.85A549.2,549.2,0,0,0,1034.64,1629l-1.77-2.15-10.29-20a84.08,84.08,0,0,1-4.68-10.22c-1.07-3-1.79-6.19-2.74-9.26-2.25-7.27-5.81-14.06-9.35-20.81l-3.44,2.29a52.94,52.94,0,0,0-11,16.64l1.16,1.85c-.45,13.21,6.43,25.42,13.12,36.81l-6,.62a259.53,259.53,0,0,0-31.91-1.47l-.77,2.28a50.54,50.54,0,0,0-3,17l3.07,0c10-.47,20,.47,29.94,1.41,4.34.4,8.69.81,13,1.64,4.88.94,9.65,2.42,14.5,3.52,8.68,2,17.57,2.7,26.4,3.8a316.65,316.65,0,0,1,44.09,8.76c11.3,3.1,23.25,7.43,29.81,17.14l-5.88,3.83a222,222,0,0,1-132.32-11.32l-10.95-5.4a12,12,0,0,1,1.23,10.68l-8.12,3.53c-18.14,5.22-37.36,10.48-55.63,5.72-10.69-2.78-20.27-8.85-28.69-16-5.1-4.32-10-9.43-11.61-15.93l3.81-15c0-1.92,0-3.84,0-5.77a.94.94,0,0,0-.18-.68,1,1,0,0,0-.71-.2l-4.08,0c-.69-6.4,2.58-12.58,6.46-17.72l-2.09-2c-15.47-3.59-31-7.22-45.56-13.66-3.11-1.38-6.18-2.9-9.4-4-3.93-1.39-8-2.21-12-3.66-3.52-1.31-6.86-3.12-10.49-4.1-2.22-.61-4.51-.89-6.75-1.4-8.49-1.94-15.88-7-23-12l-2.86-1.6a143.19,143.19,0,0,1-41.56-47.44c-5.16-9.52-9.26-19.68-15.72-28.36-6.08-8.19-14-14.76-21.92-21.22q-18-14.73-36.16-29.26l-25.84-11.06a257.26,257.26,0,0,0-60.89-32.23l-9.2-5.33c-4.56-5.16-9.66-10-15.67-13.34-8.12-4.57-17.47-6.32-26.26-9.41a89.31,89.31,0,0,1-20.85-10.57L481.7,1362c-18.73-3.43-37.74-6.87-56.72-5.22l-7.47-14q-22.78-66.81-45.58-133.62c-4.55-13.33-9.12-26.73-15.84-39.11a125.79,125.79,0,0,0-30.26-36.79c-10.64-8.8-22.94-16.07-30.89-27.36s-9.86-28.65.47-37.82L308,1040.52a247,247,0,0,0,68-12l16.5-3A146.42,146.42,0,0,1,450.18,996c7.13-1.81,14.41-4.08,21.4-6.38,5.63-1.85,11.11-5.37,17-6.08,6.41-.78,12.93.64,19.36,0,8.25-.84,15.85-5,24.07-6.07,7-.9,14.09.5,21.1-.09,8.32-.71,16.16-4.17,24.39-5.61,13.64-2.38,27.57,1.93,41.42,2.3,14.86.4,30.57-2.45,44,3.93l14.72,4.6c10.23,7,16.86,18.14,26.11,26.4,6.26,5.58,13.64,9.77,21.18,13.45q5,2.45,10.13,4.61l.54,1.67a13.06,13.06,0,0,0-7.23,3.47,5.28,5.28,0,0,1-1.91,1.42,4.52,4.52,0,0,1-2.65-.3,54.21,54.21,0,0,0-41.55,3.91l5.6,1.19c-4.52,2.07-9.74.23-14.65-.62a36.13,36.13,0,0,0-24.71,4.7,9.81,9.81,0,0,1-3.29,1.54,11.35,11.35,0,0,1-2.79-.08,18.14,18.14,0,0,0-11,2.59l2.07,1.62c10.5,13.35,26.57,21.47,43.15,25.16s33.77,3.34,50.72,2.29c4.94-.31,9.9-1.68,14.73-2.73a52.68,52.68,0,0,0,24.19-12.53,65.23,65.23,0,0,0-18.76,28.51c13.45,1.17,27.15-7.58,31.77-20.27l.54-.58a147.76,147.76,0,0,0,59.37,27.75c3,.64,6.31,1.14,8.9-.47l-2.14,2.81c-3.44,3.15-5.53,7.47-7.54,11.67q-1.42,3-2.87,6v1.66c-11.18-.51-21.18,6.68-29.39,14.29s-16.1,16.28-26.67,20c-7.2,2.51-16,3-20.5,9.12a6.08,6.08,0,0,0-1.35,5.19c.75,2.52,3.63,3.64,6.2,4.19a46.45,46.45,0,0,0,39.89-10.53c-23.22,23.88-43.66,51.26-54.6,82.72-2.92,8.38-5.15,17-8.58,25.21-.28.66-.54,1.5,0,2a.51.51,0,0,0,.4.16l-25.51,40,4.57,0a112.49,112.49,0,0,0,54.53-33.51c3.94-4.42,7.74-9.85,7-15.72l1.3-.17c15.31-9.59,31.29-19.88,39.85-35.79l.16-.52a1.52,1.52,0,0,0,.6,1.31l25.26-57.6a158.69,158.69,0,0,1,8.34-17.15c4.51-7.65,9.25-14.5,14.1-21.93s8.87-15.75,9.32-24.61l1.7-3.39c6,.93,12.15-.56,18-2.22s11.8-3.54,17.9-3.41,12.53,2.66,15.61,7.93l2.37,2.13c15.78,20.06,35.3,37,55.88,52.07a141.47,141.47,0,0,0,16.66,10.79c14.57,7.85,30.93,10.78,45.87,17.9,7.62,3.64,14.85,8.1,22.66,11.3,6.92,2.85,14.24,4.68,21,7.79a60.92,60.92,0,0,1,15,9.78c3.47,3.07,6.77,6.65,11.18,8.07q.45-4.86.89-9.72l1.53-10.65q-10.14-57.48-20.29-115c-4.53-25.66-9.07-51.86-5.32-77.65a123,123,0,0,1,13.55-40.75l-.84-12.71,5.48-12.15a28.28,28.28,0,0,1,1.5-3,35,35,0,0,1,2.16-3,151,151,0,0,0,20.31-35l-.14-10.72c1.54-4.16,4.55-7.67,5.94-11.88l3.16-4a31.31,31.31,0,0,1,2.37-4.47l-1.27-5.4a16.28,16.28,0,0,0,1.7-3.09l2.46-5.34a14.78,14.78,0,0,0,1.65-5.12l4.29-3,12.61-6.54,1.91-4.36a55.12,55.12,0,0,1,36.74-25.27l4.15-6.34,9.71-5.62c2.78-1.61,5.57-3.22,8.2-5.07,8.27-5.79,14.77-13.69,21.89-20.84,6.57-6.6,13.71-12.59,20.83-18.58l4.76-10.8a29.17,29.17,0,0,1,10.7-7.71,62.51,62.51,0,0,1,12.72-3.8l9-6.38q4.69-1.58,9.53-2.68l6.64.19c3.25-.37,6.21-2,9.29-3.1a63.94,63.94,0,0,1,7.6-2l5.69-5.59q14.83-7.49,29-16.29l7.42-9.14a22.14,22.14,0,0,0,4.67-4.65,26.5,26.5,0,0,1,3-3.84,21.15,21.15,0,0,0,1.56-1.43,16.2,16.2,0,0,0,1.81-3.2,21.77,21.77,0,0,1,2.86-3.84l5.2-4.77a19.89,19.89,0,0,0,4.85-6.87l.78-7.7c1.28-2.87,1.87-6,3-8.93,2.48-6.29,7.43-11.31,10.39-17.4a95.06,95.06,0,0,0,3.95-10.82c1-2.9,2.14-5.74,3.3-8.58l2.72-6.72c2.32-5.73,4.66-11.49,7.92-16.75l2.62-5.52a99.49,99.49,0,0,0,5.23-31.07l-.56-11.33a327.83,327.83,0,0,1-2.53-36.26c-.2-7.55-.25-15.48,3.24-22.18l-.06-5.27c-3.57-15.6-2.76-31.83-1.92-47.81l-.87-9.51c.08-2.15-2-3.78-2.41-5.9a7.69,7.69,0,0,1,.31-3.22l3.81-15.77a20.22,20.22,0,0,1,2.55-6.82l3.76-9.77a13.52,13.52,0,0,1,3.89-11.41c-2.58.49-5.15,1.07-7.69,1.74l-16.73,2.3a116.4,116.4,0,0,0-13.13,3.88c-5,1.91-9.63,4.48-14.49,6.64a95.1,95.1,0,0,1-22.13,6.79l-7.51,5.87a141.93,141.93,0,0,0-16.92,5.08,98.69,98.69,0,0,1-9.63,3.59,61.65,61.65,0,0,1-11.33,1.63l-20.21,1.65-10-1.48q-15.75.74-31.48,1.92l-8.53,3.11c-16.33,7.57-34.74,9.38-51.55,15.81-11.88,4.55-22.77,11.33-33.56,18.06l-11.43.83c-9.08,4.85-15.5,13.41-23.37,20.05-9.1,7.68-20.3,12.91-28.13,21.87l-8.36,2.29c-8.48.88-13.63,9.59-17,17.45a230.36,230.36,0,0,0-15,126l2.72,12.48a930.79,930.79,0,0,0,6.14,97.16c1.37,11.78,3,23.8,8.45,34.36l4.65,6.58c4.24.78,7.5,4.11,10.29,7.4,4.62,5.45,8.84,11.36,11.4,18L1141,828.45a73.91,73.91,0,0,1,.47,13.71,17.65,17.65,0,0,1-.85,5.06c-1.17,3.25-3.88,5.65-6.49,7.92L1128.53,873c-.24,4-2.57,7.58-3.2,11.53a44.86,44.86,0,0,1-.61,4.47l-5.62,8.38c-1.63,2.45-2.44,5.35-3.34,8.16a114,114,0,0,1-5.53,14l-1.7,7.29c-.54,6.1-3,11.89-6.32,17.06a115.88,115.88,0,0,1-11.47,14.32L1072,962.33c-6.24,2.6-13.66,4-19.55.73a18.53,18.53,0,0,1-7.27-8.23,55.49,55.49,0,0,1-3.49-10.57l-1.91-8.2c-1.44-15.28-16.08-27.13-16.64-42.47l1.27-5c-.77-5.55-4.69-10-8.36-14.28s-7.41-9-7.69-14.56c-.08-1.58,0-3.49-1.36-4.35A87.17,87.17,0,0,1,983.9,870.6l-13.78,10.52a37.08,37.08,0,0,1-9.92.67,16.85,16.85,0,0,1-6.64-1.58c-5-2.55-7.26-8.78-6.45-14.3s4.15-10.38,8.06-14.35a50.93,50.93,0,0,1,12.72-9.39l8.38-.09,9-6.58a31,31,0,0,1,8.11-4.75,57,57,0,0,1,6.75-1.43,34.41,34.41,0,0,0,16.14-8.18l-1.1-6.39c-3.8-2.91-9-3-13.77-2.91a9.31,9.31,0,0,0-3.2.43,9.89,9.89,0,0,0-2.73,1.91,52.58,52.58,0,0,1-23.68,11.67l-13.61,4.53a55.45,55.45,0,0,1-29.34-4,10.65,10.65,0,0,1-3.61-2.26,9.94,9.94,0,0,1-2.15-4.78c-.93-4.17-1-8.9,1.6-12.32a16.37,16.37,0,0,1,3.86-3.46A62.47,62.47,0,0,1,957,792.7l8,2.62c2.45,1,5.22.88,7.89.76,7.83-.37,16.25,0,22.56,4.63l4.34-5.93A128.63,128.63,0,0,0,994,762.59l-.91-8.8A32.53,32.53,0,0,0,984.32,740a98.8,98.8,0,0,0-13-10.2l-13.21-9.2-5.87,3.11a33.46,33.46,0,0,1-7.82,4.35l-5.95,3.16-4.41,3.73a26.93,26.93,0,0,1-6.74,4.6l-4,6.43c-4.63,2.64-10.18,3.11-15.51,3a22.21,22.21,0,0,1-7.12-1,9.29,9.29,0,0,1-5.37-4.55,11.82,11.82,0,0,1-.86-4.65,18.66,18.66,0,0,1,.62-5.52c1.64-5.62,6.76-9.39,11.57-12.73l7.32-2.89a24.88,24.88,0,0,1,8.74-5.65l-1.14-8.47c-14.29-7-24.52-20-34.26-32.64-1.53-2-3.1-4-3.7-6.48-.72-3,.11-6.07,1-9l2.82-6.91c4-9.61,9.21-19,16.84-26s18-11.71,28.39-10.63L945,609.1a168.69,168.69,0,0,1,7.7,71.75l2.77,8.44a28.82,28.82,0,0,0,5.74,19.9c3.52,4.61,8.34,8,13.09,11.37l8.8,6.2,2.38-7.54q0-17.36-.11-34.7c0-6.67.07-13.73,3.57-19.4l2.77-6.1c6.19-17.31,20.29-30.35,31.4-45,23.79-31.38,34.14-71.08,37.91-110.27s1.52-78.7,2.9-118.06c.27-7.45.7-15.08,3.66-21.92,2.78-6.45,7.62-11.76,12.37-16.94l-.83-10.12c3.4-3.65,4.58-8.78,6.86-13.21a28.65,28.65,0,0,1,6.54-8.37l7.4-6.36a37.65,37.65,0,0,1,10.63-12l35.37-28.7,11-10.42c40.39-20.6,69.14-63.39,70.75-108.71l13.72-8.53c48.24-26.48,108.08-24.34,160.26-6.88s98.44,48.74,144.07,79.51c88.89,59.94,178.48,119.5,274.71,166.78,31.13,15.3,63.27,29.51,90.34,51.21,32.74,26.26,56.26,62,79.22,97.15,53.34,81.61,107.55,165.15,131.56,259.64C2142.68,870.89,2139.28,958,2135.74,1043.62ZM982.81,1511.27l-7-20.86c-.78-2.31-1.6-4.69-3.27-6.45a8.15,8.15,0,0,0-7.44-2.39,7.49,7.49,0,0,0-5.65,5.3c-.57,2.2,0,4.53.54,6.72a114.49,114.49,0,0,0,10,25l.12,1.7A53.69,53.69,0,0,1,982.81,1511.27Zm336.63-536.69c1,4.72,3.1,9.15,4.71,13.71,6.48,18.4,5.29,38.5,4,58l.62,25.32c0,3.74-3.17,6.94-3.17,10.68a13,13,0,0,0,.84,4c12.41,38.21,25.28,77.3,50.06,108.94l2.28,2.09a559.43,559.43,0,0,0,2.53-82c-.49-11.55-1.34-23.11-.59-34.64.51-8,1.78-16,1.08-23.92a96,96,0,0,0-2.52-13.54l-7.89-33.57-.85-3.89a74.92,74.92,0,0,0-5.42-23l-7.1-6.6c-4-6.09-8.63-12-14.78-16s-14.12-5.72-20.89-2.95a5,5,0,0,0-2,1.27,5.29,5.29,0,0,0-1,2.41A32.61,32.61,0,0,0,1319.44,974.58Zm-23,555.38q-1.65-5.91-3.52-11.74c-.56-1.72-1.22-3.57-2.73-4.55a7.17,7.17,0,0,0-4.27-.82l-5.48,21.29,4.69,7.19c2.08,3.19,4.48,6.62,8.15,7.65Zm86.18-158.48-.88-1.43c-7-5.25-10.79-13.76-13-22.21s-3.31-17.25-6.3-25.47c-2.05-5.65-5-11-6.57-16.76s-1.74-11.77-1.78-17.72c-.09-12.82.39-25.71,2.89-38.28,2.24-11.2,6.14-22.19,12.34-31.76l-1.51-1.18a447.64,447.64,0,0,1-41.93-91.23l-1.62-2a83.67,83.67,0,0,0-5.63-6.42,74.9,74.9,0,0,0-12.06-9.17c-4-2.62-8.16-5.2-12.74-6.67-7.49-2.4-15.58-1.64-23.4-.85l-.2,12.58q-8.25,16.11-15.57,32.66c-4.45,10.06-8.71,20.78-7.51,31.71l2.74,14.91a42,42,0,0,1,5.22,11.68c.56,2,.78,4.56-.9,5.8a4.82,4.82,0,0,1-2.44.77c-7.14.81-15.38-1.43-20.89,3.18a20.57,20.57,0,0,1,16.8,9.65c4,6.51,4,14.62,3.83,22.25a24.5,24.5,0,0,1-1,7.78,8.22,8.22,0,0,1-5.31,5.39c-3.42.87-6.79-1.31-9.71-3.29a177.87,177.87,0,0,0-23-13.22,18.18,18.18,0,0,0-6.77-2.18,16.28,16.28,0,0,0-7.12,1.64,50.68,50.68,0,0,0-13.46,8.46l5.41,4,6.92,8.37,3.32,8.31s114.73,100.1,107.42,149c0,0-4.33,35.57-18,35.91h-8.2c15.29,23.49,28.15,59.64,28.15,59.64l3.82,1.9a14.7,14.7,0,0,0,5.46.39,76.42,76.42,0,0,0,13.67-1.54l9,72.18c8.72-28.45,10.49-58.61,18.45-87.28l1.22-7.62,2.15-4.91c3-7.63,3.42-15.94,4-24.09,1.92-25.73,5.59-51.31,10-76.74C1379,1382.05,1380,1376.42,1382.64,1371.48ZM1436,1097.75l-22.68-33.5a51.29,51.29,0,0,0-8.33,11.2,10.91,10.91,0,0,0-1.41,3.66,21.08,21.08,0,0,0,.22,4.19c.3,4.15-1.21,8.21-1.61,12.35a49.93,49.93,0,0,0,.15,8.29,334.11,334.11,0,0,1-1.55,63l1.35-1.61c8.33-9.83,16.71-19.74,23.15-30.9S1436.17,1110.64,1436,1097.75Z"></path>
    <path data-name="3a" data-official="" data-plain="Stamen, magnified" data-loc="" d="M454.74,2754.78l-1.63,82.86c-.15,7.7-.33,15.57-3,22.81-2.91,8-8.65,14.77-12,22.65a41.09,41.09,0,0,0-3.12,18.78c.25,3.57,1,7.22,3.13,10.11,3.95,5.41,11.36,6.73,18,7.27a188.9,188.9,0,0,0,35.11-.48c3.8-.41,7.67-1,11.09-2.69,9.29-4.68,12.52-16.72,11.08-27s-6.39-19.74-9.37-29.7c-6.75-22.57-3.17-46.71-1.74-70.23.53-8.81.76-17.63.94-26.45.15-7,.25-14.13-1.85-20.79a20.11,20.11,0,0,0-5.83-9.51c-5.32-4.5-13.46-4.5-19.69-1.38s-10.78,8.85-14.16,14.95Z"></path>
    <path data-name="3b" data-official="" data-plain="Pistil, magnified" data-loc="" d="M387.86,2724.64c-1.47,20.44,2.24,41.15-1,61.4-3.2,20.1-13,38.46-19.19,57.86a162.76,162.76,0,0,0-7.52,55c.15,4.29.49,8.67,2.16,12.62,3,7,9.82,11.83,17.15,13.89s15.11,1.69,22.66.75c9.22-1.15,19.42-3.88,24-11.94,3.85-6.7,2.63-15,2.84-22.7a58,58,0,0,1,5.11-22.22c2.63-5.81,6.24-11.21,8.06-17.33,2.32-7.76,1.6-16.07.86-24.14-3.79-41.09-7.82-83.13-25.25-120.53-.77-1.64-1.67-3.39-3.29-4.2a7.19,7.19,0,0,0-4.31-.39,28.79,28.79,0,0,0-22.08,16.81Z"></path>
    <path data-name="3c" data-official="" data-plain="Seed-vessel" data-loc="" d="M425.46,2637.23c-8.81-8.46-12.75-21.22-19.21-31.59-1.83-2.93-4-5.69-5.63-8.72-6-10.83-6.55-23.89-6-36.24.13-2.62,2.26-6.3,3.21-8.75,1.79-4.59,6.28-6.69,11-8.08s9.75-1.33,14.68-1.31c7.23,0,14.53-.05,21.56-1.71s13.87-5,18.49-10.58l5.65-10.21c9.56-25.54,16.46-53.17,11.38-80s-24.82-52.29-51.71-56.84c-19.57-3.31-39.06,4.5-57.95,10.61s-40.45,10.38-57.84.79c-23.61-13-33-48.17-59.62-52.24-26.41-4-48.51,26.8-75,23.45-6.22-.78-12.06-3.45-18.24-4.47-14-2.29-28.41,4.37-38.34,14.53s-16,23.42-20.85,36.78c-23.34,64.69-19.91,138.58,9.31,200.83,19.46,41.46,49.65,77.63,65.38,120.64,9,24.73,13,51,16.93,77q7.93,52.72,15.88,105.44c1.08,7.14,2.25,14.54,6.28,20.53,7.79,11.61,23.82,14.41,37.71,12.84,33.76-3.81,63.13-27.23,80.65-56.34s24.59-63.36,27.59-97.2c1.62-18.27,2.2-36.89,8-54.29,10.3-31,35.61-54.16,59.93-75.91Z"></path>
</svg>
