
<svg xmlns="http://www.w3.org/2000/svg" viewBox="0 0 2108 2472" id="illustration" preserveAspectRatio="xMidYMid meet">
    <title>Vitaceæ</title>
    <path data-name="1" data-official="Vitis vinifera" data-plain="Grape-vine" data-loc="Shores of the Caspian Sea" d="M572.5,975.65c14.76-18.45,6.91-45.9-4.69-66.48-5-8.95-10.95-17.84-19.58-23.42-17.9-11.58-42.84-5.31-59,8.62s-25.6,33.84-35.06,52.94-20,38.72-37.29,51.13c-6.48,4.65-13.84,8.22-19.38,14-4.66,4.82-7.78,10.94-12.3,15.9-9.21,10.1-23.15,14.35-36.59,16.86-48.08,9-98.94.9-142.62-21.13S125.9,966.35,101.51,924c-8.19-14.24-15.15-29.52-17.2-45.81-4.53-36,15-69.88,28.79-103.4a346.18,346.18,0,0,0,25.6-114.9c.77-16.08.33-32.67-5.86-47.54s-19.19-27.78-35.16-29.84L77.4,561.83c-32-15.78-51.29-50.65-57-85.89s.13-71.25,6.84-106.32c4.84-25.31,10.18-50.7,19.8-74.6,10.56-26.25,26.07-50.18,38.34-75.67C101.89,185,112.53,147.87,131.81,115s50.06-62.21,87.94-66.35c66.88-7.3,124.5,64.39,191,54.1,16.15-2.49,32.82-9.8,48.16-4.17,21.32,7.83,29.2,37,50.83,43.89,23.49,7.52,50-15.49,72.33-4.91,8.21,3.9,13.79,11.65,20.5,17.77s16.46,10.89,24.71,7.08l9.63,9.06a14.67,14.67,0,0,0,2.55,7.93c.66,1,1.45,1.86,2,2.87,1.09,1.87,1.63,4.22,3.43,5.41l3.8,4.56A20.94,20.94,0,0,0,651.8,199a13.51,13.51,0,0,0,3.83,4.26c3.06,2,7,1.58,10.62,1.11l5.49-.81c2.91,4.53,4,10,4.51,15.34s.29,10.77.86,16.12a1,1,0,0,0,.28.7,1,1,0,0,0,.78.08l8.75-1.56a14.18,14.18,0,0,0,5.54-1.8l5.58-1c4.64.06,9.22,1.5,13.85,1.17l4.63-1.45a8.65,8.65,0,0,1,2.26,9.12l-1.35,6.63c-2.45,1.53-4.89,3.25-6.43,5.69-2,3.12-2.24,7-2.74,10.62s-1.45,7.55-4.29,9.9l7.56,2.11,8,4.48,4.27,5.82c.84,5.45-2.71,10.45-5.1,15.42a58.83,58.83,0,0,1-3.14,6.31c-2.33,3.61-6,6.31-7.68,10.27a11.56,11.56,0,0,0-.22,8.19l2.88,8.35c8.72,14.31,20.47,28.78,37,31.81,6.16,1.13,12.56.55,18.64,2,12.23,3,21.07,13.79,26.46,25.17l10.38,8.5a18,18,0,0,0,14.49,6.32l6.91,0c1.76.8,4,.25,5.57,1.46,1.32,1.06,1.46,3,1.5,4.68a30.8,30.8,0,0,1-.38,6.79l.14,4q8.23.75,16.41,2.16l17,.65c4.25.92,8.83,2.05,11.55,5.44,3.34,4.16,2.67,10.09,3.14,15.4a33.26,33.26,0,0,0,19,26.83l12.75,3.82c4,2.29,6.54,6.52,9.73,9.92,4.34,4.65,10,7.79,15,11.69s9.64,9.08,10.39,15.4l-6.49,12.38q-15.15,16.51-31,32.42l-10.64,15.21-5.28,3.31a23.4,23.4,0,0,0-3.39,2.42,15.37,15.37,0,0,0-4.23,7.62,45.81,45.81,0,0,0-1.07,8.75l.21,25.37a97.47,97.47,0,0,0-7.61,31.62c-.23,3.39-.31,6.91-1.78,10a23.67,23.67,0,0,1-4.09,5.52l-22,24.41,1.27,6.26c26.38-1.14,52.78.87,79.1,2.87a4.38,4.38,0,0,1,1.55-2.25,107.34,107.34,0,0,0,28.89,8.7l9-1.53c-3.5,2.63-6.21,6.15-8.87,9.62l-11.8,15.35c-1.42,1.85-2.92,4-2.56,6.28l-12.71,6.33q0,21.13,1,42.26c.25,5.24.55,10.54,2.11,15.54a19.56,19.56,0,0,0,5,8.55,22.56,22.56,0,0,0,5.73,3.69c7.26,3.52,15.67,5.46,23.43,3.29,9.26-2.59,16-10.4,22.09-17.82l15.21-18.42c3.79-4.6,7.68-9.38,9.26-15.13l-.9-7.8a99.54,99.54,0,0,0-.88-33.82l4.13-2.31c6.1-1.09,12.14,2,18.32,2.45l5.63,1.81a16.42,16.42,0,0,1,.76,8.52c-.36,2.86-1.08,5.68-1.33,8.56a26.27,26.27,0,0,0,1.65,11.64l.39,5.12q2.16,8.24,3.62,16.63l2.15,7.32a332,332,0,0,1,9.67,40.07c1.94,11,3.35,22.22,7.22,32.72,3.73,10.1,9.61,19.24,14.65,28.76a186.07,186.07,0,0,1,19.88,62.07l9.93,7s24,2,30,4l3-1.87a14.25,14.25,0,0,0,4.82-2.36l5.26-1.46,4.28-6.44a70.57,70.57,0,0,0,4.61-7.58c5.14-10.26,5.14-22.2,6.27-33.61,1.76-17.69,6.51-35.13,6.17-52.9l3.64-6.87.21-28.37L1174.5,813l-1.56-28.9c-.54-9.92-1.38-20.62-7.86-28.14l-5.79-4.53a209,209,0,0,1-23.27,6.1l-4.45,6.61c-1.17.55-2.35,1.1-3.53,1.63a173.57,173.57,0,0,1-17.49,6.32,6.77,6.77,0,0,1-2,.44l-6,.54a117,117,0,0,0,.26-17.46,39.38,39.38,0,0,0-4.81-16.66,8.1,8.1,0,0,1,3.25,2.29,10.11,10.11,0,0,0,3.7-8.42l19.56-3.91a44.44,44.44,0,0,0,29-5.16.84.84,0,0,0,.44-.41.9.9,0,0,0,0-.58,105.58,105.58,0,0,0-18.47-35.29l-5.24-6.35a153.73,153.73,0,0,1-11.85-21.67c-7.24-16.22-11.6-33.57-15.42-50.91l-3.62-9.59c-5.39,5.13-11.54,9.91-18.82,11.44-2.86.6-5.8.67-8.69,1.15a62.66,62.66,0,0,0-10.83,3.16l-14.11,5.06-8.37.34a11.65,11.65,0,0,1-5-3.82,25.25,25.25,0,0,1-3.15-5.54l-4-1.94c-5.83,2-12,3.81-18,2.5l-1.45,4.28c-2.06.2-4-1-5.84-1.82a21.72,21.72,0,0,0-13.81-1.38,11.73,11.73,0,0,1,2.12-11.83l1.36-4.93c5.23-4.72,7.84-11.8,8.56-18.81s-.22-14.08-1.06-21.08-1.56-14.12-.36-21.06c1.22-7.16,4.42-13.81,7.57-20.35,2.46-5.08,5-10.25,8.83-14.36l13-10c3.9-3.72,8.83-6.62,11.32-11.4,2.1-4,2.13-8.75,2.12-13.28l-.22-7.3a41.44,41.44,0,0,0-3.36-27.22l1.09-8.62c4.1-8.9.38-19.49,2.42-29.07,1.62-7.58,6.67-13.89,11.6-19.86l8.23-4.51c2.46-4.21,6.58-7.09,10.27-10.27s7.21-7.15,7.67-12l1.46-6.89-3.72-7.69a17.58,17.58,0,0,1-1.75-4.67l2.13-9.52a136.14,136.14,0,0,0,1.32-15.09l4.52-6.43a39.18,39.18,0,0,1,5.74-20.24,13.79,13.79,0,0,0,1.63-3.14,18,18,0,0,0,.36-4.29,16.64,16.64,0,0,1,5.6-11.59l7.6,1.72c3.76,1.82,8.19,1.21,12.31,1.89a39.16,39.16,0,0,1,6.27,1.75l9.51,7.49a26,26,0,0,1,4.42-4.23,1.26,1.26,0,0,1,.68-.32,1.41,1.41,0,0,1,.65.2,15.09,15.09,0,0,0,6,1l9.58.38,5.21-1.49a4,4,0,0,1,1.36-2.74c.74-.73,1.61-1.33,2.33-2.09,1.64-1.75,2.27-4.19,2.85-6.52l1.13-4.6,4.45-6.65a347.57,347.57,0,0,1,7.57-35.68l3.43-6c.3-2.83,1.43-5.49,2.37-8.18a66.78,66.78,0,0,0,2.5-9.22c2.39.38,4.8-.37,7.1-1.11l6,4.51a188.19,188.19,0,0,1,26.55,9l5.61-2.29c1.86-1.4,3-3.55,4-5.64q2.85-5.93,5.32-12c2.12-5.24,4-10.64,7.34-15.23,3.09-4.33,7.26-7.77,11.37-11.15l7.89-16.13,43.68-27.35c3.13-2,6.5-4,10.19-3.86,5.25.17,9.24,4.51,13,8.13,19.47,18.49,48.37,23.94,75.11,21.51s52.29-11.76,78.07-19.26c96.8-28.13,206.11-29.43,293.54,20.76,38.77,22.26,71.57,53.55,101.78,86.5,41.18,44.91,79.51,96,90.64,155.92,7.57,40.74,2.47,84.85,21.39,121.72,15.88,30.91,46.29,51.69,66,80.32,31.38,45.57,32.15,104.81,31.79,160.13-.27,39.52-.59,79.53-10.75,117.72-8.79,33-27.71,66.63-59.82,78.34-20.25,7.39-43.79,5.29-62.18,16.55-9.31,5.71-16.47,14.41-25.67,20.31-17.56,11.24-39.9,10.83-60.71,9.5a1198.23,1198.23,0,0,1-195.72-28.94l-28.64,7a188.17,188.17,0,0,1,42.89,103c1.39,15.19.89,30.67-2.94,45.44-11.14,42.9-49.32,76.73-53,120.9l-2,16.25c-8.11,21.1-30.94,33.54-40,54.25l-4.74,14a164.8,164.8,0,0,1-1.87,97.81l-8,12.32c-8.93,7-19.3,12.63-30.55,14.37s-23.42-.7-32.1-8.06a39.71,39.71,0,0,1-9.85,23.27l-8.1,40c-3.61,11.14-7.45,22.68-15.52,31.15-7.35,7.72-17.68,12.3-24.27,20.68l-2.2,6.45c44,33,18,142-15.57,155.3,5.71,1.36,10.12,5.79,14,10.24a47.24,47.24,0,0,1,5.95,8.13c2.36,4.3,3.53,9.14,4.68,13.9l17.12,43.38c2.16,19.7,4,41-6.29,58-10,16.62-30.67,27-34.65,46-1.41,6.72-.46,13.67.07,20.51.93,11.92.54,24.12-3.22,35.46-1.24,3.74-3,7.55-6.21,9.82-2.47,1.74-5.53,2.38-8.5,2.9a155.13,155.13,0,0,1-50.56.37l-15,2.77a87.83,87.83,0,0,1-67.18,25.8,68.21,68.21,0,0,1-24.45-5.83c-8.66-4-16.19-10.2-22.59-17.28-14.31-15.85-23.08-36.08-28-56.86-2.57-10.81-4.18-21.93-8.38-32.22s-11.5-19.94-21.9-23.86l-5.08-6.36-4.56-2.07c-8.67-3.94-17.49-8-24.55-14.38l-15.11-6.59a65.23,65.23,0,0,1-12.69-29.15c-2.14-13-.46-27.13-6.8-38.69l-3.48-2.46a67.15,67.15,0,0,1-40.31,1.15l-13.72,2.1q-13-1.78-26.06-2.55c-3.16-.18-6.45-.29-9.34,1s-5.08,3.91-7.2,6.33c-9.52,10.84-21,19.87-30.46,30.73s-16.82,23.16-23.57,35.78l-8.7,12A56.76,56.76,0,0,1,942,1855.07l7.94,12.13c4.13,11.59,12.58,21,19,31.53,7.67,12.63,12.35,26.8,17,40.84l.81,16c-1.82,21.69-3.9,44.24-15.07,62.92-8.81,14.71-22.54,25.74-33.54,38.89-5.91,7.06-11,14.75-16.94,21.83-10.34,12.43-22.87,22.82-35.32,33.13-14.57,12.07-29.55,24.37-47.41,30.62-15.14,5.29-31.46,5.9-47.49,6.46-28.62,1-60.53.85-81.44-18.71-15.37-14.37-23.57-38.22-43.8-43.94-11.81-3.34-24.27.78-36.51,1.72-35.5,2.72-70.53-25.95-74.89-61.29-1.79-14.52,1-29.5-2.33-43.75-3.42-14.75-13-27.33-17.81-41.69-6.87-20.55-3.45-42.94,0-64.33l4.37-11.9c1-8.57,4.8-16.6,9.33-24s9.86-14.17,14.49-21.46c1.84-2.89,3.61-5.94,4.18-9.32l-2.1-6.6c-4.9-6.66-9.51-13.7-11.85-21.62a73.43,73.43,0,0,1-2.35-14.22c-.29-3.31-.52-6.63-.58-9.95-.32-17.28,4-34.35,10-50.55l3.15-5.34c1.06-3.52,4-6.11,6-9.17a20.44,20.44,0,0,0,1.31-19.94l-3.64-5.9c-10-9-17-57-10-78,1-17,1-17-14-25-25-5-49-41-50-61-7-13-6-18,1-22-23-5-48-18-52-58-4.41-44.06,33-103,71-107-5-18-2-47,15-65-41-15-45-71-10-110-29-36-10-87,32-111ZM958.38,264.1c3.7,3.35,4.81,8.65,5.43,13.6a125.73,125.73,0,0,1,.63,24.91l.37,13.53a43.69,43.69,0,0,1-.1,21.73l-4.71,8c-1.44,9.34-3.51,18.57-5.59,27.79l-5.06,22.52c-1.16,5.16-2.32,10.33-4,15.36A130.73,130.73,0,0,1,937.83,429a177.32,177.32,0,0,1-10.66,18.79l-4.53,7.16c-.1,3.88-.19,7.84,1,11.53a28.26,28.26,0,0,0,3,6,83.46,83.46,0,0,0,21.28,23.15c1.59,1.18,3.67,2.34,5.43,1.44l12.18-9.51c8.35-4.78,13-14,16.76-22.88a281.93,281.93,0,0,0,17.37-53.38c1.48-7,2.61-14.15,4.42-21.1,1.64-6.25,3.82-12.36,5.1-18.7,2.05-10.09,1.76-20.49,1.47-30.79-.11-3.83-.28-7.88-2.38-11.08l-3.31-6.64c-1.48-1.17-1.89-3.21-2.13-5.08a69.49,69.49,0,0,1,3.09-31l-.36-9.54.08-16.55c0-6.28-.12-13.09-4-18.06-2-2.63-4.93-4.44-7.46-6.61-6.83-5.83-11.08-14.19-17.73-20.23-4.2-3.81-9.34-6.7-12.55-11.37-2.12-3.09-3.23-6.74-4.55-10.25a84.86,84.86,0,0,0-6.74-13.94l-4.88,2.95a197.9,197.9,0,0,0,.39,25.31,29,29,0,0,0,.92,5.95c.5,1.67,1.27,3.24,1.82,4.9,2.58,7.79,0,16.57,2.52,24.39Z"></path>
    <path data-name="1a" data-official="" data-plain="Flower-bud" data-loc="" d="M463.77,2337c-7.75-9.8-14.84-21.55-13.32-34,1.15-9.39,7.32-17.7,15.2-22.93s17.35-7.65,26.76-8.57c4.61-.45,9.47-.52,13.61,1.54s7,5.92,10.86,8.35c8.24,5.18,18.86,3,28.47,1.4s21.13-1.54,27,6.18c2.46,3.22,3.5,7.31,3.93,11.33,1.16,10.91-2,22.37-9.29,30.59-4.88,5.52-11.33,9.41-17.75,13q-7.51,4.24-15.2,8.19c-1.53.79-3.25,1.79-3.55,3.49-.37,2,1.49,3.72,2.91,5.24,6,6.41,5.5,17.75-1,23.61-2.06,1.85-4.6,3.2-6.29,5.39-5.82,7.56,1.75,19.06-1.88,27.88-2.4,5.84-8.92,8.67-14.89,10.72-10.65,3.65-22.12,6.65-33.06,4s-20.8-12.8-19.42-24c.63-5.1,3.4-9.63,5.45-14.34a53.92,53.92,0,0,0,.4-41.6Z"></path>
    <path data-name="1b" data-official="" data-plain="Petals, united and cast off" data-loc="" d="M586.45,2313.4,597.24,2297c3.1-4.73,6.33-9.58,11-12.7,3.92-2.59,8.59-3.78,13.16-4.87a85.79,85.79,0,0,1,15.39-2.6c10.19-.49,20.31,2.45,29.5,6.87,11.69,5.61,22.32,13.8,29.68,24.48s11.26,24,9.57,36.81c-1.08,8.15-4.31,15.88-8.23,23.1a124,124,0,0,1-19.7,26.92c-3.38,3.51-7,6.85-9.68,10.91-6,9.12-7.09,21.35-14.94,28.95-6.42,6.21-15.86,7.83-24.68,9.16-10.07,1.51-20.31,3-30.39,1.58-2.5-.35-5.1-1-7-2.64s-2.85-4.41-3.45-7a53,53,0,0,1-.87-19.49c.89-6.2,2.88-12.39,2.11-18.61-.88-7-5.15-13.08-7.83-19.63-5.84-14.3-3.94-30.44-1.94-45.77Z"></path>
    <path data-name="1c" data-official="" data-plain="Petals cast, seen from above" data-loc="" d="M744.29,2304.94c-.33-10.26,6.5-19.7,15.11-25.28s18.85-8,28.87-10.23c13-2.91,26.94-5.62,39.47-1,7.49,2.76,13.81,7.92,20,13,5,4.09,10,8.24,13.9,13.37,8.58,11.28,10.84,26.16,10.79,40.34-.06,17.18-3.56,35.31-15.06,48.08-4.81,5.34-10.84,9.55-15.15,15.3-6.09,8.11-8.35,18.79-15.29,26.19-9.46,10.1-24.8,11.43-38.64,11.77-7.14.17-14.52.22-21.13-2.48s-12.36-8.84-12.35-16c0-3.56,1.39-7,2-10.47,1.4-8.35-1.78-16.81-6-24.14s-9.57-14-13.15-21.71a54.39,54.39,0,0,1-.33-44.63Z"></path>
    <path data-name="1d" data-official="" data-plain="Pistil and stamens" data-loc="" d="M895.41,2306.29a33.46,33.46,0,0,1-2.26-35.21c5.24-9.46,14.72-15.67,23.83-21.5,14-8.92,29.81-18.24,46.06-15,7.84,1.57,14.78,5.94,21.53,10.23l18.26,11.61c3,1.94,6.15,3.93,8.5,6.68a29.11,29.11,0,0,1,5.12,10c5,15.21,4.9,31.79,1.67,47.48s-9.45,30.61-16.4,45c-4.87,10.1-10.22,20.38-11,31.56-.7,10.46,2.64,21.39-1,31.23a32.14,32.14,0,0,1-8.52,12,51.35,51.35,0,0,1-16.37,10.32c-13.11,5.14-27.74,4.68-41.67,2.62-5.15-.76-10.52-1.85-14.46-5.24-7.23-6.24-6.82-17.63-3.92-26.72,1.63-5.1,3.85-10,5.3-15.17a74,74,0,0,0,2.39-20.22,120.86,120.86,0,0,0-14.31-56.6Z"></path>
    <path data-name="1e" data-official="" data-plain="Ovary" data-loc="" d="M1051.65,2338.22c.54-14.26,1.22-28.71,5.57-42.3s12.9-26.42,25.61-32.89,29.86-5.11,39.43,5.47c6.7,7.41,8.82,17.76,10.63,27.58,6,32.83,11.6,66,11.07,99.35-.14,8.09-.64,16.26-2.9,24s-6.42,15.18-12.79,20.17c-4.09,3.2-8.92,5.28-13.75,7.2-8.12,3.21-16.71,6.08-25.41,5.29-11.63-1.06-21.9-8.65-28.7-18.14-8.17-11.39-12-25.43-13.17-39.4s.19-28,1.54-42Z"></path>
    <path data-name="1f" data-official="" data-plain="Seed" data-loc="" d="M1158.61,2347.25c4-8.5,7.28-17.38,12.57-25.11a46.43,46.43,0,0,1,18.31-16.12c7.47-3.47,16.23-4.41,24-1.81,8.59,2.87,15.42,9.79,19.7,17.77s6.25,17,7.47,26c3,22.52,1.57,45.45-1.77,67.93-.6,4-1.29,8.12-3.25,11.69-5.35,9.75-17.93,12.33-28.94,13.89l-19.82,2.8c-5.94.84-12.3,1.61-17.67-1.07-6.58-3.28-9.81-10.87-11.19-18.09-1.44-7.56-1.45-15.32-1.44-23l0-44.38Z"></path>
    <path data-name="2" data-official="Cissus quinquefolia" data-plain="Virginian creeper" data-loc="North America" d="M2070.39,1869c-5.89,16.88-18.81,32.3-36.18,36.56-22.57,5.54-44.68-8.32-66.35-16.73a147.53,147.53,0,0,0-79-7.66c-6.65,1.19-13.64,3.08-18.2,8.07-6.2,6.79-6.06,17.06-5.55,26.25q1.71,31.18,3.43,62.38c1,17.81.9,38.31-12.58,50-17.42,15.12-44.5,5.29-64-7-43-27.07-79.63-63-115-99.49q-77.72-80.16-149.68-165.63-5.43,8.24-10.87,16.48l-33.74,9.22-17.12-43.38c-1.15-4.76-2.32-9.6-4.68-13.9a47.24,47.24,0,0,0-5.95-8.13c-3.84-4.45-8.25-8.88-14-10.24,33.57-13.3,59.57-122.3,15.57-155.3l2.2-6.45c6.59-8.38,16.92-13,24.27-20.68,8.07-8.47,11.91-20,15.52-31.15l8.1-40a39.71,39.71,0,0,0,9.85-23.27c8.68,7.36,20.86,9.8,32.1,8.06s21.62-7.32,30.55-14.37l8-12.32a164.8,164.8,0,0,0,1.87-97.81l4.74-14c9.07-20.71,31.9-33.15,40-54.25l2-16.25,63.67-45a416.12,416.12,0,0,0,180.16-25c33.81-12.68,66.87-30,102.91-32.24,21.45-1.33,45.23,4.15,57.9,21.51,5.82,8,8.73,17.76,10.18,27.53,7.58,51.29-22.21,99.7-48.6,144.33s-51.22,97.74-33.57,146.49c8.82,24.36,27.18,43.83,41.15,65.65,18.39,28.7,29.19,61.57,37.87,94.53a874,874,0,0,1,28.18,190.06C2076.23,1833.8,2076.28,1852.11,2070.39,1869ZM548.23,885.75c-17.9-11.58-42.84-5.31-59,8.62s-25.6,33.84-35.06,52.94-20,38.72-37.29,51.13c-6.48,4.65-13.84,8.22-19.38,14-4.66,4.82-7.78,10.94-12.3,15.9-9.21,10.1-23.15,14.35-36.59,16.86-48.08,9-98.94.9-142.62-21.13L84.36,979.78c-20,4.74-35.5,21.65-43.36,40.67s-9.17,40.06-9.3,60.64a594.37,594.37,0,0,0,35.7,206.63c12.95,35.57,29.51,70.86,31.07,108.68,2.32,56.23-28.53,107.72-44.85,161.57C31.7,1630.3,36.09,1708,48.14,1782.64c1.79,11.1,3.84,22.44,9.45,32.18,11.43,19.85,34.8,28.91,56.4,36.55,25.13,8.89,55.77,16.93,76.23-.17,24.86-20.76,23-70.37,55-75.76,18.3-3.09,34.23,12.55,44.25,28.18,43.81,68.35,40.6,155.53,36.21,236.6-.79,14.66-.92,31.17,9.31,41.69,8,8.18,20.13,10.4,31.51,11.23,70.07,5.08,141.66-30,180.61-88.45l4.82-21.25c-3.42-14.75-13-27.33-17.81-41.69-6.87-20.55-3.45-42.94,0-64.33l4.37-11.9c1-8.57,4.8-16.6,9.33-24s9.86-14.17,14.49-21.46c1.84-2.89,3.61-5.94,4.18-9.32l-2.1-6.6c-4.9-6.66-9.51-13.7-11.85-21.62a73.43,73.43,0,0,1-2.35-14.22c-.29-3.31-.52-6.63-.58-9.95-.32-17.28,4-34.35,10-50.55l3.15-5.34c1.06-3.52,4-6.11,6-9.17a20.44,20.44,0,0,0,1.31-19.94l-3.64-5.9c-10-9-17-57-10-78,1-17,1-17-14-25-25-5-49-41-50-61-7-13-6-18,1-22-23-5-48-18-52-58-4.41-44.06,33-103,71-107-5-18-2-47,15-65-41-15-45-71-10-110-29-36-10-87,32-111l23-54.85c14.76-18.45,6.91-45.9-4.69-66.48C562.76,900.22,556.86,891.33,548.23,885.75Zm398.39-68.94a22.56,22.56,0,0,1-5.73-3.69,19.56,19.56,0,0,1-5-8.55c-1.56-5-1.86-10.3-2.11-15.54q-1-21.12-1-42.26l12.71-6.33c-.36-2.3,1.14-4.43,2.56-6.28l11.8-15.35c2.66-3.47,5.37-7,8.87-9.62l-9,1.53a107.34,107.34,0,0,1-28.89-8.7,4.38,4.38,0,0,0-1.55,2.25c-26.32-2-52.72-4-79.1-2.87l-1.27-6.26,22-24.41a23.67,23.67,0,0,0,4.09-5.52c1.47-3.08,1.55-6.6,1.78-10a97.47,97.47,0,0,1,7.61-31.62l-.21-25.37a45.81,45.81,0,0,1,1.07-8.75,15.37,15.37,0,0,1,4.23-7.62,23.4,23.4,0,0,1,3.39-2.42l5.28-3.31,10.64-15.21q15.81-15.9,31-32.42l6.49-12.38c-.75-6.32-5.37-11.49-10.39-15.4s-10.7-7-15-11.69c-3.19-3.4-5.68-7.63-9.73-9.92l-12.75-3.82a33.26,33.26,0,0,1-19-26.83c-.47-5.31.2-11.24-3.14-15.4-2.72-3.39-7.3-4.52-11.55-5.44l-17-.65q-8.16-1.41-16.41-2.16l-.14-4a30.8,30.8,0,0,0,.38-6.79c0-1.7-.18-3.62-1.5-4.68-1.52-1.21-3.81-.66-5.57-1.46l-6.91,0A18,18,0,0,1,803,401.58l-10.38-8.5c-5.39-11.38-14.23-22.19-26.46-25.17-6.08-1.48-12.48-.9-18.64-2-16.48-3-28.23-17.5-37-31.81l-2.88-8.35a11.56,11.56,0,0,1,.22-8.19c1.65-4,5.35-6.66,7.68-10.27a58.83,58.83,0,0,0,3.14-6.31c2.39-5,5.94-10,5.1-15.42l-4.27-5.82-8-4.48L704,273.12c2.84-2.35,3.8-6.25,4.29-9.9s.76-7.5,2.74-10.62c1.54-2.44,4-4.16,6.43-5.69l1.35-6.63a8.65,8.65,0,0,0-2.26-9.12l-4.63,1.45c-4.63.33-9.21-1.11-13.85-1.17l-5.58,1a14.18,14.18,0,0,1-5.54,1.8l-8.75,1.56a1,1,0,0,1-.78-.08,1,1,0,0,1-.28-.7c-.57-5.35-.4-10.76-.86-16.12s-1.6-10.81-4.51-15.34l-5.49.81c-3.61.47-7.56.86-10.62-1.11A13.51,13.51,0,0,1,651.8,199a20.94,20.94,0,0,1-3.08-6.79l-3.8-4.56c-1.8-1.19-2.34-3.54-3.43-5.41-.59-1-1.38-1.9-2-2.87a14.67,14.67,0,0,1-2.55-7.93l-9.63-9.06c-8.25,3.81-18-.95-24.71-7.08l0-24.62c2.29-32.91,28.3-60.52,58.58-73.61s64.27-14.18,97.25-13.36A962.21,962.21,0,0,1,875.84,53.9c23.52,3.49,47.4,7.87,70.93,4.43,17.9-2.61,34.8-9.65,51.7-16.12,47.26-18.09,97.32-32.32,147.81-28.84S1248,40.63,1274,84.07l-7,49.54-7.89,16.13c-4.11,3.38-8.28,6.82-11.37,11.15-3.29,4.59-5.22,10-7.34,15.23q-2.46,6.1-5.32,12c-1,2.09-2.11,4.24-4,5.64l-5.61,2.29a188.19,188.19,0,0,0-26.55-9l-6-4.51c-2.3.74-4.71,1.49-7.1,1.11a66.78,66.78,0,0,1-2.5,9.22c-.94,2.69-2.07,5.35-2.37,8.18l-3.43,6a350.25,350.25,0,0,0-7.57,35.68l-4.45,6.65c-.37,1.53-.75,3.07-1.13,4.6-.58,2.33-1.21,4.77-2.85,6.52-.72.76-1.59,1.36-2.33,2.09a4,4,0,0,0-1.36,2.74l-5.21,1.49-9.58-.38a15.09,15.09,0,0,1-6-1,1.41,1.41,0,0,0-.65-.2,1.26,1.26,0,0,0-.68.32,26,26,0,0,0-4.42,4.23l-9.51-7.49a39.16,39.16,0,0,0-6.27-1.75c-4.12-.68-8.55-.07-12.31-1.89l-7.6-1.72a16.64,16.64,0,0,0-5.6,11.59,18,18,0,0,1-.36,4.29,13.79,13.79,0,0,1-1.63,3.14,39.18,39.18,0,0,0-5.74,20.24l-4.52,6.43a136.14,136.14,0,0,1-1.32,15.09l-2.13,9.52a17.58,17.58,0,0,0,1.75,4.67l3.72,7.69-1.46,6.89c-.46,4.84-4,8.81-7.67,12s-7.81,6.06-10.27,10.27l-8.23,4.51c-4.93,6-10,12.28-11.6,19.86-2,9.58,1.68,20.17-2.42,29.07l-1.09,8.62a41.44,41.44,0,0,1,3.36,27.22l.22,7.3c0,4.53,0,9.27-2.12,13.28-2.49,4.78-7.42,7.68-11.32,11.4l-13,10c-3.86,4.11-6.37,9.28-8.83,14.36-3.15,6.54-6.35,13.19-7.57,20.35-1.2,6.94-.48,14.06.36,21.06s1.79,14.07,1.06,21.08-3.33,14.09-8.56,18.81l-1.36,4.93a11.73,11.73,0,0,0-2.12,11.83,21.72,21.72,0,0,1,13.81,1.38c1.88.86,3.78,2,5.84,1.82l1.45-4.28c6,1.31,12.21-.54,18-2.5l4,1.94a25.25,25.25,0,0,0,3.15,5.54,11.65,11.65,0,0,0,5,3.82l8.37-.34,14.11-5.06a62.66,62.66,0,0,1,10.83-3.16c2.89-.48,5.83-.55,8.69-1.15,7.28-1.53,13.43-6.31,18.82-11.44l3.62,9.59c3.82,17.34,8.18,34.69,15.42,50.91a153.73,153.73,0,0,0,11.85,21.67l5.24,6.35a105.58,105.58,0,0,1,18.47,35.29.9.9,0,0,1,0,.58.84.84,0,0,1-.44.41,44.44,44.44,0,0,1-29,5.16L1105,732.8a10.11,10.11,0,0,1-3.7,8.42,8.1,8.1,0,0,0-3.25-2.29,39.38,39.38,0,0,1,4.81,16.66,117,117,0,0,1-.26,17.46l6-.54a6.77,6.77,0,0,0,2-.44,173.57,173.57,0,0,0,17.49-6.32c1.18-.53,2.36-1.08,3.53-1.63l4.45-6.61a209,209,0,0,0,23.27-6.1l5.79,4.53c6.48,7.52,7.32,18.22,7.86,28.14l1.56,28.9,5.27,7.06-.21,28.38-3.64,6.86c.34,17.77-4.41,35.21-6.17,52.9-1.13,11.41-1.13,23.35-6.27,33.61a72.14,72.14,0,0,1-4.6,7.58l-4.29,6.44-5.26,1.46a14.25,14.25,0,0,1-4.82,2.36l-3,1.87c-6-2-30-4-30-4l-9.93-7a186.07,186.07,0,0,0-19.88-62.07c-5-9.52-10.92-18.66-14.65-28.76-3.87-10.5-5.28-21.71-7.22-32.72a332,332,0,0,0-9.67-40.07l-2.15-7.32q-1.45-8.38-3.62-16.63l-.39-5.12a26.27,26.27,0,0,1-1.65-11.64c.25-2.88,1-5.7,1.33-8.56a16.42,16.42,0,0,0-.76-8.52l-5.63-1.81c-6.18-.45-12.22-3.54-18.32-2.45l-4.13,2.31a99.54,99.54,0,0,1,.88,33.82l.9,7.8c-1.58,5.75-5.47,10.53-9.26,15.13l-15.21,18.42c-6.12,7.42-12.83,15.23-22.09,17.82C962.29,822.27,953.88,820.33,946.62,816.81Zm35.65-352.2a281.93,281.93,0,0,0,17.37-53.38c1.48-7,2.61-14.15,4.42-21.1,1.64-6.25,3.82-12.36,5.1-18.7,2.05-10.09,1.77-20.49,1.47-30.79-.11-3.83-.28-7.88-2.38-11.08l-3.31-6.64c-1.48-1.17-1.89-3.21-2.13-5.08a69.49,69.49,0,0,1,3.09-31l-.36-9.54q0-8.28.08-16.55c0-6.28-.12-13.09-4-18.06-2-2.63-4.93-4.44-7.46-6.61-6.83-5.83-11.08-14.19-17.73-20.23-4.2-3.81-9.34-6.7-12.55-11.37-2.12-3.09-3.23-6.74-4.55-10.25a84.86,84.86,0,0,0-6.74-13.94l-4.88,2.95a197.9,197.9,0,0,0,.39,25.31,29,29,0,0,0,.92,5.95c.5,1.67,1.27,3.24,1.82,4.9,2.58,7.79,0,16.57,2.52,24.39l5,20.27c3.7,3.35,4.81,8.65,5.43,13.6a125.73,125.73,0,0,1,.63,24.91l.37,13.53a43.69,43.69,0,0,1-.1,21.73l-4.71,8c-1.44,9.34-3.51,18.57-5.59,27.79q-2.52,11.26-5.06,22.52c-1.16,5.16-2.32,10.33-4,15.36A130.73,130.73,0,0,1,937.83,429a177.32,177.32,0,0,1-10.66,18.79l-4.53,7.16c-.1,3.88-.19,7.84,1,11.53a28.26,28.26,0,0,0,3,6,83.46,83.46,0,0,0,21.28,23.15c1.59,1.18,3.67,2.34,5.43,1.44l12.18-9.51C973.86,482.71,978.47,473.46,982.27,464.61Zm289,1540.35-4.54-27.71c-8.66-4-16.19-10.2-22.59-17.28-14.31-15.85-23.08-36.08-28-56.86-2.57-10.81-4.18-21.93-8.38-32.22s-11.5-19.94-21.9-23.86l-5.08-6.36-4.56-2.07c-8.67-3.94-17.49-8-24.55-14.38l-15.11-6.59a65.23,65.23,0,0,1-12.69-29.15c-2.14-13-.46-27.13-6.8-38.69l-3.48-2.46a67.15,67.15,0,0,1-40.31,1.15l-13.72,2.1q-13-1.78-26.06-2.55c-3.16-.18-6.45-.29-9.34,1s-5.08,3.91-7.2,6.33c-9.52,10.84-21,19.87-30.46,30.73s-16.82,23.16-23.57,35.78l-8.7,12A56.76,56.76,0,0,1,942,1855.07l7.94,12.13c4.13,11.59,12.58,21,19,31.53,7.67,12.63,12.35,26.8,17,40.84l.81,16,26.38,39.66c36.9,11.4,65.16,41.67,85.28,74.64s33.79,69.47,52.65,103.18a380.3,380.3,0,0,0,52,71.72c11.13,12.08,23.09,23.49,32.69,36.82,19.49,27.05,29.74,62.33,57.55,80.72,20.09,13.28,45.44,14.92,69.5,16.14,8.19.42,16.87.73,24-3.26,14.51-8.1,15.18-28.51,12.82-45C1382.92,2214.45,1310.93,2115,1271.22,2005Z"></path>
    <path data-name="2a" data-official="" data-plain="Flower" data-loc="" d="M1515.36,2305.87c3.53-10.85,7.27-22.08,15.05-30.42,6.36-6.83,14.91-11.15,23.45-14.9,9-3.93,18.18-7.41,27.84-8.92a71.93,71.93,0,0,1,39.87,5.18c14.89,6.56,27.77,19,32.08,34.67,5,18.15-1.73,38.18,4.24,56,2.73,8.16,8,15.47,9.39,24a27.36,27.36,0,0,1-5,20.41c-6.12,8.27-16.39,12.38-26.44,14.59-17.48,3.85-35.63,3.19-53.46,1.55-10.47-1-21.1-2.3-30.72-6.56-14.32-6.33-25.35-18.84-31.91-33.06s-8.92-30.06-9.12-45.72Z"></path>
    <path data-name="2b" data-official="" data-plain="Stamen" data-loc="" d="M1699.32,2290.79c2.71-6.18,9-10.19,15.58-11.76s13.41-1.07,20.13-.43c8.26.78,16.71,1.8,24.1,5.57,13.25,6.75,20.84,21.11,25.29,35.3,6.59,21,8,44.05.93,64.85-1.74,5.08-4.09,10.15-8.2,13.6-3.86,3.24-8.86,4.72-13.71,6.11-16,4.59-32.67,9.22-49,6.27a19.59,19.59,0,0,1-8-3,23.91,23.91,0,0,1-5.34-6c-2.88-4.11-5.79-8.28-7.44-13-1.71-4.89-2-10.14-2.22-15.32q-1.47-33.61-.8-67.3Z"></path>
</svg>
