
<svg xmlns="http://www.w3.org/2000/svg" viewBox="0 0 2252 2896" id="illustration" preserveAspectRatio="xMidYMid meet">
    <title>Meliaceæ</title>
    <path data-name="1" data-official="Melia Azedarach" data-plain="Bead-Tree" data-loc="Syria and South Europe" d="M737.62,1517.5a52.2,52.2,0,0,1,9.78,4.36c-5.28,3.18-11,6.47-17.13,6.22a17.13,17.13,0,0,0-4.11,0,25.41,25.41,0,0,0-2.51.83c-2.46.79-5.11.58-7.68.37l-5,6c1.59.21,3.44.78,3.88,2.32a3.67,3.67,0,0,1-.37,2.46c-1.38,3-4.1,5.18-6.82,7.09-6.38,4.48-13.51,8.51-17.48,15.22l-2.3,5.29c.18,3.25-.93,6.48-.57,9.71a41.24,41.24,0,0,0,1.74,6.4c1.15,4.16,1.1,8.55,1,12.86l-2.21,5.74c-5.78-1.1-10.19-5.6-14.43-9.68-14-13.53-30.21-24.65-46.3-35.69l.85-5.9a2.8,2.8,0,0,0,.58-2.11c-.08-3-.73-6-.21-9a36.4,36.4,0,0,1,1.33-4.55,31.44,31.44,0,0,0,1.26-12.82l-.41-4.39c-1.75-4.2-1.86-8.88-2-13.42a445.72,445.72,0,0,0-5.39-56.14l3.9-5.38c-.36,3.62,1.84,7,4,9.9a42.27,42.27,0,0,0,5.83,6.82c6.94,6.16,17.16,7.46,26.26,5.66a45.91,45.91,0,0,0,18.43-8.16c4-3,7.61-6.65,12.17-8.69l7.8,1.07c7.81,4.72,13.76,12.17,17.61,20.44s5.72,17.36,6.52,26.44Zm-182-31.75-6.08,3.86.1,3.47,6.61,4.56a126.57,126.57,0,0,0,26.3,15.7c2.18,1,4.5,1.89,6.88,1.7l5.92-4.23c4.11-5.48,5.1-12.64,5.66-19.47a232.75,232.75,0,0,0-.13-39.6l-8.63-4a30.7,30.7,0,0,0-27.41,7.3c-3.35,3.12-6.07,7.33-6,11.91.11,5.15,3.67,10.64,1,15.06A12.26,12.26,0,0,1,555.58,1485.75Zm115.8,119.09c-5.11-5.87-11.29-10.69-17.42-15.48l-30.27-23.59c-.8,7.69-2,15.35-3.54,22.93-.73,3.54-2.73,8-6.32,7.52,4.72,5.55,4.57,14,1.56,20.64s-8.36,11.88-13.6,16.94c-1.19,1.16-2.7,2.4-4.31,2-2.49-.63-2.7-4.49-5-5.59a5.56,5.56,0,0,0-2.4-.37l-14.06-.12-13.49-.33a53.11,53.11,0,0,0-30,45.39,104.77,104.77,0,0,0,.76,13.7q1.65,16.68,3.31,33.37c1.62,16.37,3.43,33.32,11.73,47.52a8.33,8.33,0,0,0,3.06,3.4,7.52,7.52,0,0,0,3.58.62,27,27,0,0,0,15.7-5.32,74.33,74.33,0,0,0,7.14-6.61,195.26,195.26,0,0,1,18.8-15.49c3.85-2.9,7.73-5.83,12.12-7.83,5.19-2.36,10.93-3.36,16.07-5.81,7.1-3.39,12.61-9.32,17.93-15.12l5.73-9c6.5-12.75,20-20.56,27.66-32.63a85.71,85.71,0,0,0,5.4-10.48l2.79-6.11c2-4.45,4.1-9,4.66-13.85.94-8.22-2.51-16.28-6.41-23.58A89.74,89.74,0,0,0,671.38,1604.84Zm679.12-217.65-24.22,1.3c-5.15,1.53-10.63,1.36-16,1.17l-37.17-1.27-6.48,2.71a23.67,23.67,0,0,0-7.25.87c-1.5.43-3,1-4.51,1.32-4.55,1-9.3-.41-13.45-2.52l-5.58-4.38c-8.24-4.93-17.3-8.29-26.3-11.63l-38.39-14.2c-10-3.69-20.17-7.42-30.8-7.59l-8.51,1.09c-2.19-.29-4.49-.56-6.56.22s-3.79,3-3.22,5.13a7.35,7.35,0,0,0,1.13,2.12,57.47,57.47,0,0,1,7.77,16.73l10.68,12.31c1.62,1.43,4,2.7,5.81,1.48l5.41-3.35q16.85,2.82,33.66,5.74c7.1,1.23,14.25,2.49,20.91,5.23s12.88,7.09,16.55,13.29l19.88-7a31.6,31.6,0,0,1,12.24,1.37c5.11,1.79,9.37,5.38,13.5,8.89l6.27,2.78c16.71,3.83,33.84,5.42,50.92,7,4.17.38,8.51.75,12.41-.78l11.54-5.71a78.48,78.48,0,0,0,5-19.73,14.37,14.37,0,0,0-.37-6.72C1354.43,1390.7,1352.43,1388.9,1350.5,1387.19Zm52.24-213.53a3.59,3.59,0,0,0-.07,2.69c.35.67,1.1,1.06,1.5,1.7.59,1,.27,2.2-.06,3.27q-3.57,11.36-7.12,22.7c1.87.43,2.41,2.79,2.58,4.7q2.4,26.41,4.79,52.83l13.9,16.8,17.31,74.94c1.45,6.3,2.91,12.6,4.8,18.77,2,6.37,4.39,12.59,6.4,19,7.21,22.74,9,46.79,13.08,70.3l1.77,8.32c-3.7,3-7.8,6.24-12.59,6.32a43.32,43.32,0,0,1-5.08-.54,22,22,0,0,0-14.92,3.94,25.25,25.25,0,0,0-7.73-6l-6.76-10.48-40.75-27.94c-3.86-2.64-7.81-5.33-12.32-6.59l-4.06-6.39q1.78-7.38,3.58-14.77a105.59,105.59,0,0,1,3.89-13.45,107.07,107.07,0,0,1,6.83-13.63l2.51-10.48q2.85-36.24,3.72-72.58l4.33-15.31q-3.23-33.84-9.27-67.34c-1-5.75-2.16-11.56-4.68-16.83-3-6.38-8-11.63-12.34-17.18-11.34-14.4-19.13-31.2-27.14-47.68a1435.57,1435.57,0,0,0-72.35-131l-.33-.44c-5.16-3.22-11.74-2.58-17.78-1.92q-30.77,3.39-61.73,4l-14.37,2.5L1099,996.91,1085.26,995l-40-5.64-1.64.32c-5.29,6.34-13,10.11-20.4,13.7l-12.91,6.22a183.67,183.67,0,0,1-17,7.52c-9.7,3.54-20,5.46-29.36,9.77a83.36,83.36,0,0,1,7.54,16.16,68.73,68.73,0,0,1-33.36,2l-5.76,7.75c-1.62,9.77,3.78,19.37,10.31,26.81s14.44,13.8,19.61,22.24c4.49,7.34,6.67,15.88,11,23.34,6.4,11.18,17.14,19.35,23.65,30.46l6.37,6.11c3-2.26,7.13-2.69,10.82-1.92a33.27,33.27,0,0,1,10.29,4.6c8.31,5.1,16,10.19,22.87,17.11,1.8,1.81,3.55,2.69,5.58,4.24,2.39,1.81,5.1,4.12,7.79,5.43,4,1.93,8,4.86,12,6.79-11.33-.51-23.29-.88-33.28,4.48a22.51,22.51,0,0,1-4.73,2.25,29.46,29.46,0,0,1-4.6.53,20,20,0,0,0-15.42,10.4,5.07,5.07,0,0,1-1.2,1.74,4.53,4.53,0,0,1-2.06.74c-4.08.75-8.26,1.51-11.83,3.61s-6.49,5.84-6.37,10a16.45,16.45,0,0,0,1.49,5.59c5.83,14.42,13.93,27.81,22.41,40.85q15.88,24.43,33.72,47.52l7.66,8.25q7.63,5,15,10.43l8.52,3.06c2.25,3.57,2,9-1.57,11.28-2.17,1.38-5.12,1.38-6.95,3.18a9.3,9.3,0,0,0-1.7,2.69l-1.81,3.77-5.67,3.52-9.87,20.57-5.18,9.81a148.38,148.38,0,0,1-46,49.26c-10.69,7.14-22.89,13.49-28.91,24.84-7.65,14.44-2.74,32.47,5.53,46.56s19.72,26.32,26.28,41.29c11.12,25.39,6.63,54.57,1.94,81.9-1,6-2.09,12.16-4.68,17.71s-6.69,10.43-10.71,15.15c-16.54,19.46-36,40.42-61.49,41.9l-13.72,5.51c-2-4.37-7.13-6.45-9.78-10.45-2.14-3.23-2.43-7.31-2.42-11.18a62.73,62.73,0,0,1-11.7,17.63l-16.54,19.15c-5.28,7.88-13.52,14.27-23,15.2s-19.71-4.78-22.07-14a29.47,29.47,0,0,1-.75-6.29c-.88-22.94,5-46.86,20.14-64.17l2.74-12.19c3.69-4.44,9.25-6.84,14.65-8.9a74,74,0,0,1,14.07-4.18c2.57-.43,5.18-.62,7.78-.82l18.3-1.39c-13.27-13.45-19.53-32.17-24.7-50.34-.9-3.14-1.78-6.42-1.19-9.63l-8.15-13.21c-2.14-2.77-5.73-4.06-8.08-6.65a10.41,10.41,0,0,1-2.45-8.86l-6.82-9.28c-4.48,0-8.4-2.74-12.22-5.08-6.45-3.94-13.47-6.84-20.46-9.72-8-3.31-16.29-6.65-25-6.94l-15.4-10.5-24.72,5.08c-.44.1-1,.16-1.28-.2a1.25,1.25,0,0,1-.2-.81l-.11-7.19a23.55,23.55,0,0,1,.23-4.52,11.4,11.4,0,0,1,1.69-4.2l1.46-8.58q-5.46-22.76-10.91-45.51c-.84-3.51-1.69-7.09-1.42-10.69l-1.41-5.37a43.33,43.33,0,0,0-1.7-8.9,14.5,14.5,0,0,0-5.12-7.31c-1.34-.94-2.89-1.56-4.28-2.43a13.71,13.71,0,0,1-6.2-9.69l-1.84-3.43c-.43-2.27-2.1-4.08-3.69-5.77q-10.27-10.92-19.83-22.46l-3.68-1.38-7.26-3.74a15.89,15.89,0,0,0-6-2.13c-1.13-.09-2.27.08-3.4,0a8.5,8.5,0,0,1-4.69-1.74,1.94,1.94,0,0,1,.48-2,5.75,5.75,0,0,1,1.86-1.19l4.56-2.15-3.36-15.76A34.69,34.69,0,0,1,695,1307.2c2.68-2.15,5.71-3.92,8-6.49,3.42-3.86,4.78-9.08,7.35-13.55,3.65-6.35,9.61-11,14.94-16a106.84,106.84,0,0,0,20.69-27l5.24-13.95,8.13-8.51a13.3,13.3,0,0,0,1.8-2.17c.48-.77.79-1.63,1.26-2.41,2.09-3.52,6.54-4.6,10.19-6.45l3.24-10.36a34.43,34.43,0,0,0,6.33-33.38,36.63,36.63,0,0,0-25.32-22.94c-6.44-1.62-13.19-1.49-19.8-.88l-7.64,5.9q-5.61,1.44-11.13,3.22l-6.26,2c-1.59,0-2.52,1.69-3.4,3-1.83,2.74-4.75,4.52-7.58,6.21-2.4,1.43-5.15,2.92-7.84,2.16l-.82,6.59a32.6,32.6,0,0,1-4.9,7.24l-9.09,3.63c-7.52,2.57-15.44,4.94-23.29,3.72l-9.93-5.41a4.64,4.64,0,0,1-2.27-2.59,11.22,11.22,0,0,1-.65-3.45,49.2,49.2,0,0,1,1-14l-.22-9.2-10.68-28c-1.56-4.1-3.35-8.48-7.05-10.84-3.39-2.17-7.68-2.18-11.71-2.11l-31.75.5-12.38-6.26c-2.45.06-5.15.68-7.19-.69-2.62-1.76-2-6.55,1-7.55-6.92.76-10.89,8.52-17.35,11.13a25.23,25.23,0,0,1-6.74,1.36l-9.44,1c-1.83.2-4.42-.27-4.33-2.1q11.85-12.57,23.71-25.15a46.5,46.5,0,0,1,5.72-5.42,23.33,23.33,0,0,1,14.43-4.6c-1.39-1.57-3.56-2.13-5.46-3s-3.8-2.59-3.57-4.68c.32-2.94,4.12-3.69,6.8-5a10.24,10.24,0,0,0,5.46-6.76l-4.44-2.91a41.67,41.67,0,0,1-5.52-1.39c-1.28-.44-2.51-1-3.79-1.49a26.9,26.9,0,0,0-14-1.31l-10.06.74c-12.57,12.39-33.3,11.31-48.16,20.83-1.85,1.18-3.59,2.52-5.45,3.68l.93-10a17.72,17.72,0,0,0,0-4.77,10.28,10.28,0,0,0-8.15-7.84,13.8,13.8,0,0,0-11.19,3.15l-10.18,2.56a35.8,35.8,0,0,0-14.22,11.34l-5.66,6.75a418.62,418.62,0,0,0-37.92,52.11l-9.38-1.55a26.81,26.81,0,0,0-6.24-5.61,25.68,25.68,0,0,0-7.79-2.52q-7.74-1.58-15.55-2.72l-6.9-3.37c-3.85-2.11-6.95-5.33-10-8.51L326,1087.82c-7.52-7.88-15.26-16.08-18.85-26.37-3.34,7.13-10.92,11.08-18,14.53l-19.21.85c-8.88-4.92-20.38-5.5-27.23-13-3.53-3.85-5.24-9-6.86-13.93-8.88-27.23-17.81-56.58-9.5-84,2.47-8.11,6.43-16,6.55-24.47V912.18c-.51-34.72-1.1-70-11.15-103.22-9.25-30.61-26.14-58.23-39.59-87.24a414.72,414.72,0,0,1-35-224.67c2.85-22.67,9.16-47.53,28.33-59.95,16.5-10.68,37.71-9.05,57.35-8.55a384,384,0,0,0,148.78-26c6.85-2.67,13.79-5.65,19.05-10.79,14-13.74,11.1-36.65,7.13-55.88l1.27-44.64c-6.2-80.4,16.66-166,75-221.7A218,218,0,0,1,629.32,9.94c29.17-.51,58.08,4.9,86.71,10.53,55.43,10.9,111,22.84,163.38,44,191.15,77.32,314.16,265,489.26,373.9,29.19,18.14,61.43,34.47,95.8,34.07l41.33-3.59c25.06-12.75,41.58-37.3,57-60.83l33.77-51.59c3.62-5.53,7.43-11.25,13.11-14.64,7.87-4.7,18.17-3.93,26.35.2s14.53,11.19,19.72,18.75c13.4,19.51,20.16,42.75,31.36,63.61a167.24,167.24,0,0,0,33.51,43.35c4.46,4.13,9.35,8.13,15.23,9.72,12.5,3.38,24.82-4.87,37.33-8.23a14,14,0,0,1,7.35-.42c2.53.72,4.53,2.61,6.42,4.43,19.59,19,40.53,40.79,41.44,68,.88,26.25-17.33,49.11-36.5,67.06s-41,34.7-51.53,58.77l-5.47,28.21c-.82,12.84-8.59,24-15.15,35.05a219.42,219.42,0,0,0-21.48,49.07l-5.43,8.25c-1.43,6.78-6.13,12.33-10.67,17.56L1665,824.93c-3.58,4.13-7.26,8.42-8.93,13.63-1.54,4.8-1.27,10.06-3,14.77-2.64,7.08-9.7,12.67-9.55,20.23l-7.08,6.5c3.47,3.51,4.35,8.93,3.62,13.81s-2.85,9.43-4.67,14a125.13,125.13,0,0,0-8.72,51.37c.1,2.25.29,4.62,1.58,6.47-2.37,2.51-2.82,6.21-3.15,9.64-.68,7.08-1.37,14.25-.3,21.28l-11.17,30.67-19.72,17.86c-4.8,4.36-9.89,8.87-16.2,10.39-7.36,1.78-15-.83-22.26-2.91a169.61,169.61,0,0,0-78.66-3.48l-20.33.9a28.3,28.3,0,0,0-12,10.06,54.65,54.65,0,0,0-4.61,9.21A961,961,0,0,0,1402.74,1173.66Zm-447.83,80.52c.62,2.7,4.8,8.63,5.89,9.26,3.46,2,6.36,5.87,9.23,8.67l32,31.33c5.25,5.12,11.29,10.6,18.63,10.58l1.08-7.63c-9.74-24.16-28-44.43-35.85-69.26a33,33,0,0,0-3-7.57c-1.43-2.32-3.72-4.28-6.43-4.56-2.18-.22-4.31.66-6.33,1.52l-11.52,4.91a8.64,8.64,0,0,0-3.24,2,8,8,0,0,0-1.53,3.57C952.55,1243,953.56,1248.22,954.91,1254.18Zm72.19-269.67c-5.28-2.38-11.63-.5-17.1-2.38a35.11,35.11,0,0,1-5.81-3A49.83,49.83,0,0,0,978,972.69c-2.5.09-5.36.59-6.65,2.74a8.22,8.22,0,0,0-.86,3.18l-1,7.87a8.15,8.15,0,0,0,0,3.3,8,8,0,0,0,3,3.72,86,86,0,0,0,11.6,8l11.42,1a136.11,136.11,0,0,0,24.37-10.84C1022.86,989.91,1026,987.81,1027.1,984.51Zm3.57-9.83-.46-2.33-16.39-20.6c-3.05-3.83-6.3-7.82-10.82-9.71-6.24-2.61-13.35-.65-19.82,1.33l-5.92,4.08a102.88,102.88,0,0,1-2.63,14C993.65,964.35,1011.44,974,1030.67,974.68Zm213.66,2.76a12.54,12.54,0,0,0-1.69-4.52l-17.74-33.59c-2.44-4.62-5.4-9.68-10.44-11.09a4.45,4.45,0,0,0-2.45-.09,5.63,5.63,0,0,0-1.43.76c-8.86,5.87-17.56,12.45-23.41,21.33l-3.48,5.86c-7.7-.36-14.24,5.62-21.81,7.06-5.68,1.08-11.55-.49-16.85-2.8s-10.25-5.37-15.62-7.52c-11.31-4.52-24-4.84-35.18-9.68-5.4-2.34-10.3-5.67-15.49-8.45a83.54,83.54,0,0,0-22.91-8.25c-10.39-2.1-21.6-2.1-31.15,2.52l-5.57,4.11c-2.69,5.06.26,11.24,3.65,15.86,6.89,9.42,15.76,17.19,24.82,24.55a30.13,30.13,0,0,0,5.26,3.65,30.74,30.74,0,0,0,7,2.2l11.9,2.75c3.7.85,7.39,1.71,11.14,2.29,3.32.52,6.67.83,10,1.14l28.86,2.67c8.44.78,17,1.55,25.32-.34l28.25-1c13.8.9,27.64-.56,41.39-2l23.26-2.47a6.53,6.53,0,0,0,2.6-.66A4.34,4.34,0,0,0,1244.33,977.44Zm79.16-73.58a131.24,131.24,0,0,0-15.34,40.28c4.33,3.86,7.14,9.09,10,14.15a365.36,365.36,0,0,0,37,53.86l2.78-6.47a136.84,136.84,0,0,0-28.59-102.8,4,4,0,0,0-2.23-1.7C1325.54,900.9,1324.3,902.47,1323.49,903.86Zm-27.66,1.85-2.16,6.29,5.69,13.66a1.51,1.51,0,0,0,.61.84c.63.32,1.31-.32,1.71-.91,4.68-6.85,6.87-15.16,11.62-22,1.42-2,3.16-4.51,2.14-6.79-.72-1.6-2.55-2.35-4.26-2.76-3.89-1-8.23-.86-11.61,1.29S1294.2,902.05,1295.83,905.71ZM1278.74,916l.9,5.23,12.92,8.87a38.66,38.66,0,0,0-2.75-9.27,15.81,15.81,0,0,0-6.32-7.15,4.47,4.47,0,0,0-3.56-.64C1278.75,913.4,1278,915,1278.74,916Zm89.6,233.61q-.6-13.08-1.22-26.16a31.09,31.09,0,0,0-.62-5.71,15.48,15.48,0,0,0-5.29-8.39l-1.83-9.42q.07-19.7.8-39.37l-1.39-18.79c-15.81-30.14-34.73-58.51-53.62-86.83a7.06,7.06,0,0,0-2.3-2.46,11.23,11.23,0,0,0-3.43-.73,9.45,9.45,0,0,1-7.62-8.22,6.62,6.62,0,0,0-.41-2.4,5.36,5.36,0,0,0-2-1.83c-5.76-3.89-10.06-9.59-15.48-14s-12.92-7.34-19.29-4.56l-5.45,2.56a614.21,614.21,0,0,0,47.82,112.56c2.17,4,4.39,7.9,6.6,11.83q5.49,9.75,11,19.49c9.14,16.24,18.3,32.5,28.54,48.08l2.87,2.52c2.87,8.76,11,14.67,15.45,22.76a61.09,61.09,0,0,1,3.57,8.56,4,4,0,0,0,1.08,1.86,1.4,1.4,0,0,0,1.95,0A2.06,2.06,0,0,0,1368.34,1149.57Zm23.43-78.09c1,2.22,3,3.78,5,5.24l11,8.25,11.7,1.91c1.69-11.23,13.5-19.31,13.92-30.65a3,3,0,0,0-.36-1.82,3.21,3.21,0,0,0-1.22-.92,52,52,0,0,0-12.58-4.56c-4.56-1-9.42-1.39-13.81.18-5.45,1.94-9.51,6.63-12.2,11.75C1391.51,1064.14,1390.25,1068.1,1391.77,1071.48Zm16.3,43.27c.86-2.19,1.73-4.5,1.42-6.83-.66-4.84-6.16-7.57-11-7.71a21.39,21.39,0,0,0-14.43,5.13l-3.6,6.23a255.76,255.76,0,0,1,6.14,58Zm641.72,633.06L2030.3,1750c-6.5,2.07-13.37-.92-20-2.48-10.77-2.54-22-1.28-33,0-10.61,1.23-22,2.84-29.69,10.3-4.49,4.4-7.1,10.34-11,15.29-3,3.91-6.84,7.16-10.5,10.5a226.06,226.06,0,0,0-25.07,27c-2,2.49-3.91,5.06-6.57,6.78-5,3.22-12,3.07-16,7.36l-15.35-1.39a45.35,45.35,0,0,1-14.51,3.78L1820.89,1841c-7.48-8.43-4.13-21.44-5.42-32.64-2-17.38-16.09-31.2-31.66-39.17-10.72-5.49-22.66-8.94-34.7-8.69s-24.19,4.39-33,12.55c-11.18,10.29-16.09,25.56-20.33,40.15-8.34-24.16-33.12-41.62-58.68-41.34l-15.82-1.15a16.66,16.66,0,0,0-5.9,3.65c-4.7,3.92-9.45,7.9-12.94,12.92-3,4.36-5,9.36-6.94,14.3-5.77,14.69-11.64,30.15-9.72,45.82l-4.8,20.11c-1.92,7.09-3.85,14.25-4.26,21.59-.22,3.9,0,7.82-.32,11.71-1.12,13.48-8.56,25.61-17,36.16l-12.63-6.76-4.67-18.79a62.51,62.51,0,0,1-2.28-13c-.27-8.09,2.58-16.25,1-24.18l-1.09-7.44c-2.7-6.25-2.59-13.29-3.27-20.06a83.27,83.27,0,0,0-4.28-19.22c-1.25-3.57-2.78-7.25-2.27-11l-4.26-8.28-4.82,3.26c-4.72,3.19-9.46,6.39-14.68,8.67a46.92,46.92,0,0,1-11,3.28l-2.69,14.18c.52,8.08,5.3,15.23,7.23,23.1.81,3.31,1.11,6.72,1.65,10.09,2.46,15.27,9.94,30.25,7.24,45.49l6,10.75c2.41,2.75,5.78,4.61,7.89,7.6a23.81,23.81,0,0,1,3,7.33,149.45,149.45,0,0,1,4.65,19.08l-5.25,47.47c9.8,25.18,9.38,53,14.34,79.59,8.47,45.3,32.41,86,48.37,129.24,14.07,38.09,22,78.25,36.22,116.26,11.12,29.63,26.13,58.06,32.51,89.06l-9.58,25.83c-4.29,16.11-8.62,32.7-6.57,49.24s12,33.23,27.94,38.13c11.56,3.55,24.19.42,35.12-4.76,40.64-19.26,63.71-65.3,65.94-110.22s-13.19-88.87-32.45-129.51c-11.09-23.41-23.86-47.76-21.79-73.58,1-12.49,6-25.21,15.94-32.82,6.65-5.09,14.9-7.52,23-9.84,31.23-9,62.91-18.07,95.41-18.65,16.57-.29,33.19,1.63,49.67-.09,50-5.23,93.71-47.85,100.14-97.75,3.74-29-3.77-59.39,5.11-87.27,9.15-28.75,34.15-49.72,46.73-77.15,7.18-15.66,10.07-32.93,11.68-50.08C2065.48,1811.51,2063.84,1777.44,2049.79,1747.81Z"></path>
    <path data-name="1a" data-official="" data-plain="Stamens" data-loc="" d="M81.27,2685.68C73,2641,45.1,2602.18,34.59,2558c-1.74-7.29-2.66-15.93,2.45-21.42,2.4-2.57,5.77-4,9-5.27a439,439,0,0,1,233.66-24.55c6.94,1.17,14.06,2.6,19.92,6.49,9.78,6.48,14.3,18.82,14.57,30.55s-3.06,23.2-5.87,34.59c-15.69,63.46-16.42,129.87-32,193.36-2.19,8.95-4.88,18.21-11.19,24.94-4.06,4.34-9.42,7.38-13.14,12-5.41,6.74-6.59,15.79-9.21,24a21.4,21.4,0,0,1-4.13,8.08c-2.57,2.84-6.24,4.35-9.79,5.78-13.59,5.46-27.53,11-42.16,11.38s-30.34-5.49-37.7-18.15c-5.89-10.14-7.42-25-18.59-28.54-3.4-1.1-7.21-.83-10.4-2.45s-5.25-4.92-7.06-8.07a432.16,432.16,0,0,1-40-93.22Z"></path>
    <path data-name="1b" data-official="" data-plain="Pistil" data-loc="" d="M325.15,2674.52a142.46,142.46,0,0,0,24.61-82.3c-.82-45.51-23.43-88.55-24-134.06-.14-11.31,1.61-23.72,9.91-31.4,9.55-8.85,24.18-8.4,37.16-7.41,10.35.79,21.53,1.93,29.19,8.93,8.46,7.74,10.08,20.3,10.66,31.75a383.58,383.58,0,0,1-1.51,58.41c-2.83,27.6-8.66,55-8.37,82.73.4,38.19,12.35,75.16,20.92,112.38s13.67,77,.77,113c-2.33,6.5-5.73,13.31-12,16.19-3.83,1.74-8.18,1.76-12.39,1.74l-23.89-.09c-13.14-.06-28.08-.91-36.47-11-4.36-5.25-6.1-12.14-7.6-18.81A606.72,606.72,0,0,1,318,2710.68Z"></path>
    <path data-name="1c" data-official="" data-plain="Section of Fruit" data-loc="" d="M438.62,2708.35c-1.66-10.47-2.74-21.26-.44-31.61,4.52-20.39,21.87-36.15,41.33-43.72s40.9-8.15,61.77-7.31c9.09.36,18.33,1,26.8,4.3a55.83,55.83,0,0,1,17.42,11.2c27.45,25.27,30.07,72.86,5.58,101-7.36,8.45-16.77,15.35-22,25.26-3.82,7.28-5.14,15.82-9.91,22.52-8.78,12.37-25.94,14.61-41.07,15.76-10.61.81-22.54,1.2-30.42-6-6.32-5.73-8.22-14.79-12.79-22-5.33-8.4-14-13.93-21.54-20.45S439,2742,439.58,2732.1Z"></path>
    <path data-name="2" data-official="Guarea tuberculata" data-plain="Tuberculated Guarea" data-loc="South America" d="M1297.06,1035.87a614.21,614.21,0,0,1-47.82-112.56l5.45-2.56c6.37-2.78,13.87.21,19.29,4.56s9.72,10.06,15.48,14a5.36,5.36,0,0,1,2,1.83,6.62,6.62,0,0,1,.41,2.4,9.45,9.45,0,0,0,7.62,8.22,11.23,11.23,0,0,1,3.43.73,7.06,7.06,0,0,1,2.3,2.46c18.89,28.32,37.81,56.69,53.62,86.83l1.39,18.79q-.73,19.68-.8,39.37l1.83,9.42a15.48,15.48,0,0,1,5.29,8.39,31.09,31.09,0,0,1,.62,5.71q.62,13.08,1.22,26.16a2.06,2.06,0,0,1-.25,1.35,1.4,1.4,0,0,1-1.95,0,4,4,0,0,1-1.08-1.86,61.09,61.09,0,0,0-3.57-8.56c-4.41-8.09-12.58-14-15.45-22.76l-2.87-2.52c-10.24-15.58-19.4-31.84-28.54-48.08q-5.48-9.75-11-19.49C1301.45,1043.77,1299.23,1039.83,1297.06,1035.87Zm-17.42-114.68,12.92,8.87a38.66,38.66,0,0,0-2.75-9.27,15.81,15.81,0,0,0-6.32-7.15,4.47,4.47,0,0,0-3.56-.64c-1.18.4-2,2-1.19,3Zm38.49,37.1a365.36,365.36,0,0,0,37,53.86l2.78-6.47a136.84,136.84,0,0,0-28.59-102.8,4,4,0,0,0-2.23-1.7c-1.58-.28-2.82,1.29-3.63,2.68a131.24,131.24,0,0,0-15.34,40.28C1312.48,948,1315.29,953.23,1318.13,958.29Zm-18.77-32.63a1.51,1.51,0,0,0,.61.84c.63.32,1.31-.32,1.71-.91,4.68-6.85,6.87-15.16,11.62-22,1.42-2,3.16-4.51,2.14-6.79-.72-1.6-2.55-2.35-4.26-2.76-3.89-1-8.23-.86-11.61,1.29s-5.37,6.69-3.74,10.35l-2.16,6.29Zm108.71,189.09c.86-2.19,1.73-4.5,1.42-6.83-.66-4.84-6.16-7.57-11-7.71a21.39,21.39,0,0,0-14.43,5.13l-3.6,6.23a255.76,255.76,0,0,1,6.14,58Zm-11.32-38,11,8.25,11.7,1.91c1.69-11.23,13.5-19.31,13.92-30.65a3,3,0,0,0-.36-1.82,3.21,3.21,0,0,0-1.22-.92,52,52,0,0,0-12.58-4.56c-4.56-1-9.42-1.39-13.81.18-5.45,1.94-9.51,6.63-12.2,11.75-1.72,3.28-3,7.24-1.46,10.62C1392.77,1073.7,1394.8,1075.26,1396.75,1076.72Zm829.68,461.8c-8.72,14.11-26.48,19.92-43,21s-33.3-1.44-49.72,1c-15.81,2.3-30.59,9-45,16-27.8,13.42-55.73,28.4-76.25,51.46s-32.51,55.94-23.35,85.42l-11.83,34.17c-10.61,1.23-22,2.84-29.69,10.3-4.49,4.4-7.1,10.34-11,15.29-3,3.91-6.84,7.16-10.5,10.5a226.06,226.06,0,0,0-25.07,27c-2,2.49-3.91,5.06-6.57,6.78-5,3.22-12,3.07-16,7.36l-15.35-1.39a45.35,45.35,0,0,1-14.51,3.78L1820.89,1841c-7.48-8.43-4.13-21.44-5.42-32.64-2-17.38-16.09-31.2-31.66-39.17-10.72-5.49-22.66-8.94-34.7-8.69s-24.19,4.39-33,12.55c-11.18,10.29-16.09,25.56-20.33,40.15-8.34-24.16-33.12-41.62-58.68-41.34l-15.82-1.15a16.66,16.66,0,0,0-5.9,3.65c-4.7,3.92-9.45,7.9-12.94,12.92-3,4.36-5,9.36-6.94,14.3-5.77,14.69-11.64,30.15-9.72,45.82l-4.8,20.11c-1.92,7.09-3.85,14.25-4.26,21.59-.22,3.9,0,7.82-.32,11.71-1.12,13.48-8.56,25.61-17,36.16l-12.63-6.76-4.67-18.79a62.51,62.51,0,0,1-2.28-13c-.27-8.09,2.58-16.25,1-24.18l-1.09-7.44c-2.7-6.25-2.59-13.29-3.27-20.06a83.27,83.27,0,0,0-4.28-19.22c-1.25-3.57-2.78-7.25-2.27-11l-4.26-8.28-4.82,3.26c-4.72,3.19-9.46,6.39-14.68,8.67a46.92,46.92,0,0,1-11,3.28l-2.69,14.18c.52,8.08,5.3,15.23,7.23,23.1.81,3.31,1.11,6.72,1.65,10.09,2.46,15.27,9.94,30.25,7.24,45.49l6,10.75c2.41,2.75,5.78,4.61,7.89,7.6a23.81,23.81,0,0,1,3,7.33,149.45,149.45,0,0,1,4.65,19.08l-5.25,47.47-12.56,34.36A250.29,250.29,0,0,1,1424,2141c-17.91,11.49-37.62,20.93-52.12,36.52-31.43,33.82-29.84,85.32-36.46,131-5,34.19-15.44,67.29-25.9,100.22L1279.3,2504c-9.61,30.27-19.69,61.4-40.2,85.65-12.19,14.4-28.55,26.2-47.23,28.89s-39.54-5.48-48.14-22.28c-13.06-25.48,5.25-54.75,16.82-81,7.31-16.55,12-34.13,16.64-51.62,17.06-64.22,33.51-135.44,3.26-194.61-12.67-24.77-32.53-45-52.09-64.79-7.26-7.36-15-15-24.88-17.94-10.3-3.08-21.34-.63-32.09-.76-22.69-.27-43.47-12-63.11-23.35-28.31-16.39-57.43-33.5-76.85-59.82-14.63-19.83-22.79-43.68-28.74-67.6a448.68,448.68,0,0,1-12.9-126.18c1.1-27.21,4.89-55,17.55-79.1,13-24.69,35.58-48,31.5-75.56l-7.75-33.15c25.49-1.48,44.95-22.44,61.49-41.9,4-4.72,8.09-9.52,10.71-15.15s3.65-11.67,4.68-17.71c4.69-27.33,9.18-56.51-1.94-81.9-6.56-15-18-27.2-26.28-41.29s-13.18-32.12-5.53-46.56c6-11.35,18.22-17.7,28.91-24.84a148.38,148.38,0,0,0,46-49.26l5.18-9.81,9.87-20.57,5.67-3.52,1.81-3.77a9.3,9.3,0,0,1,1.7-2.69c1.83-1.8,4.78-1.8,6.95-3.18,3.56-2.26,3.82-7.71,1.57-11.28l-8.52-3.06q-7.35-5.41-15-10.43l-7.66-8.25q-17.82-23.07-33.72-47.52c-8.48-13-16.58-26.43-22.41-40.85a16.45,16.45,0,0,1-1.49-5.59c-.12-4.15,2.79-7.9,6.37-10s7.75-2.86,11.83-3.61a4.53,4.53,0,0,0,2.06-.74,5.07,5.07,0,0,0,1.2-1.74,20,20,0,0,1,15.42-10.4,29.46,29.46,0,0,0,4.6-.53,22.51,22.51,0,0,0,4.73-2.25c10-5.36,22-5,33.28-4.48-4-1.93-8-4.86-12-6.79-2.69-1.31-5.4-3.62-7.79-5.43-2-1.55-3.78-2.43-5.58-4.24-6.87-6.92-14.56-12-22.87-17.11a33.27,33.27,0,0,0-10.29-4.6c-3.69-.77-7.79-.34-10.82,1.92l-6.37-6.11c-6.51-11.11-17.25-19.28-23.65-30.46-4.28-7.46-6.46-16-11-23.34-5.17-8.44-13.08-14.79-19.61-22.24s-11.93-17-10.31-26.81l5.76-7.75a68.73,68.73,0,0,0,33.36-2,83.36,83.36,0,0,0-7.54-16.16c9.38-4.31,19.66-6.23,29.36-9.77a183.67,183.67,0,0,0,17-7.52l12.91-6.22c7.43-3.59,15.11-7.36,20.4-13.7l1.64-.32,40,5.64,13.71,1.94,63.31,8.93,14.37-2.5q30.93-.57,61.73-4c6-.66,12.62-1.3,17.78,1.92l.33.44a1435.57,1435.57,0,0,1,72.35,131c8,16.48,15.8,33.28,27.14,47.68,4.37,5.55,9.29,10.8,12.34,17.18,2.52,5.27,3.65,11.08,4.68,16.83q6,33.45,9.27,67.34l-4.33,15.31q-.87,36.33-3.72,72.58l-2.51,10.48a107.07,107.07,0,0,0-6.83,13.63,105.59,105.59,0,0,0-3.89,13.45q-1.8,7.39-3.58,14.77l4.06,6.39c4.51,1.26,8.46,4,12.32,6.59l40.75,27.94,6.76,10.48a25.25,25.25,0,0,1,7.73,6,22,22,0,0,1,14.92-3.94,43.32,43.32,0,0,0,5.08.54c4.79-.08,8.89-3.28,12.59-6.32l-1.77-8.32c-4.08-23.51-5.87-47.56-13.08-70.3-2-6.36-4.44-12.58-6.4-19-1.89-6.17-3.35-12.47-4.8-18.77l-17.31-74.94-13.9-16.8q-2.38-26.41-4.79-52.83c-.17-1.91-.71-4.27-2.58-4.7q3.55-11.34,7.12-22.7c.33-1.07.65-2.31.06-3.27-.4-.64-1.15-1-1.5-1.7a3.59,3.59,0,0,1,.07-2.69,961,961,0,0,1,37.17-104.32,54.65,54.65,0,0,1,4.61-9.21,28.3,28.3,0,0,1,12-10.06l20.33-.9a169.61,169.61,0,0,1,78.66,3.48c7.29,2.08,14.9,4.69,22.26,2.91,6.31-1.52,11.4-6,16.2-10.39l19.72-17.86,11.17-30.67c-1.07-7-.38-14.2.3-21.28.33-3.43.78-7.13,3.15-9.64-1.29-1.85-1.48-4.22-1.58-6.47a125.13,125.13,0,0,1,8.72-51.37c1.82-4.58,3.94-9.13,4.67-14s-.15-10.3-3.62-13.81l7.08-6.5c-.15-7.56,6.91-13.15,9.55-20.23,1.76-4.71,1.49-10,3-14.77,1.67-5.21,5.35-9.5,8.93-13.63l17.09-19.71c4.54-5.23,9.24-10.78,10.67-17.56l5.43-8.25a219.42,219.42,0,0,1,21.48-49.07c6.56-11.06,14.33-22.21,15.15-35.05l5.47-28.21c10.5-24.07,32.36-40.81,51.53-58.77l33.68-13c27.07-3.38,55.36,13.66,65,39.17,3.43,9,4.66,18.73,6.52,28.21a216.49,216.49,0,0,0,61.24,112.92c1.9,1.84,3.92,3.7,6.45,4.48,5.45,1.69,10.93-2.09,15.45-5.56a442.56,442.56,0,0,1,148.08-74.38c11.14-3.16,22.8-5.9,34.19-3.89,28.11,5,43.7,36.82,44.21,65.36s-9.3,56.3-10.88,84.79l3.48,45.35c19,62.76,11.39,130.09,3.62,195.21l-24.84,207.9c-2.21,18.53-4.33,37.89,2.2,55.37,6.62,17.75,21.27,31.13,31.29,47.2,18.73,30,20.27,67.31,21.27,102.7C2233.21,1513.3,2233.36,1527.32,2226.43,1538.52Zm-871.09-145.41c-.91-2.41-2.91-4.21-4.84-5.92l-24.22,1.3c-5.15,1.53-10.63,1.36-16,1.17l-37.17-1.27-6.48,2.71a23.67,23.67,0,0,0-7.25.87c-1.5.43-3,1-4.51,1.32-4.55,1-9.3-.41-13.45-2.52l-5.58-4.38c-8.24-4.93-17.3-8.29-26.3-11.63l-38.39-14.2c-10-3.69-20.17-7.42-30.8-7.59l-8.51,1.09c-2.19-.29-4.49-.56-6.56.22s-3.79,3-3.22,5.13a7.35,7.35,0,0,0,1.13,2.12,57.47,57.47,0,0,1,7.77,16.73l10.68,12.31c1.62,1.43,4,2.7,5.81,1.48l5.41-3.35q16.85,2.82,33.66,5.74c7.1,1.23,14.25,2.49,20.91,5.23s12.88,7.09,16.55,13.29l19.88-7a31.6,31.6,0,0,1,12.24,1.37c5.11,1.79,9.37,5.38,13.5,8.89l6.27,2.78c16.71,3.83,33.84,5.42,50.92,7,4.17.38,8.51.75,12.41-.78l11.54-5.71a78.48,78.48,0,0,0,5-19.73A14.37,14.37,0,0,0,1355.34,1393.11ZM1047.58,973.5a30.13,30.13,0,0,0,5.26,3.65,30.74,30.74,0,0,0,7,2.2l11.9,2.75c3.7.85,7.39,1.71,11.14,2.29,3.32.52,6.67.83,10,1.14l28.86,2.67c8.44.78,17,1.55,25.32-.34l28.25-1c13.8.9,27.64-.56,41.39-2l23.26-2.47a6.53,6.53,0,0,0,2.6-.66,4.34,4.34,0,0,0,1.8-4.23,12.54,12.54,0,0,0-1.69-4.52l-17.74-33.59c-2.44-4.62-5.4-9.68-10.44-11.09a4.45,4.45,0,0,0-2.45-.09,5.63,5.63,0,0,0-1.43.76c-8.86,5.87-17.56,12.45-23.41,21.33l-3.48,5.86c-7.7-.36-14.24,5.62-21.81,7.06-5.68,1.08-11.55-.49-16.85-2.8s-10.25-5.37-15.62-7.52c-11.31-4.52-24-4.84-35.18-9.68-5.4-2.34-10.3-5.67-15.49-8.45a83.54,83.54,0,0,0-22.91-8.25c-10.39-2.1-21.6-2.1-31.15,2.52l-5.57,4.11c-2.69,5.06.26,11.24,3.65,15.86C1029.65,958.37,1038.52,966.14,1047.58,973.5Zm-75.12,20a86,86,0,0,0,11.6,8l11.42,1a136.11,136.11,0,0,0,24.37-10.84c3-1.71,6.19-3.81,7.25-7.11-5.28-2.38-11.63-.5-17.1-2.38a35.11,35.11,0,0,1-5.81-3A49.83,49.83,0,0,0,978,972.69c-2.5.09-5.36.59-6.65,2.74a8.22,8.22,0,0,0-.86,3.18l-1,7.87a8.15,8.15,0,0,0,0,3.3A8,8,0,0,0,972.46,993.5Zm57.75-21.15-16.39-20.6c-3.05-3.83-6.3-7.82-10.82-9.71-6.24-2.61-13.35-.65-19.82,1.33l-5.92,4.08a102.88,102.88,0,0,1-2.63,14c19,2.87,36.81,12.47,56,13.2ZM960.8,1263.44c3.46,2,6.36,5.87,9.23,8.67l32,31.33c5.25,5.12,11.29,10.6,18.63,10.58l1.08-7.63c-9.74-24.16-28-44.43-35.85-69.26a33,33,0,0,0-3-7.57c-1.43-2.32-3.72-4.28-6.43-4.56-2.18-.22-4.31.66-6.33,1.52l-11.52,4.91a8.64,8.64,0,0,0-3.24,2,8,8,0,0,0-1.53,3.57c-1.34,6-.33,11.23,1,17.19C955.53,1256.88,959.71,1262.81,960.8,1263.44Z"></path>
    <path data-name="2a" data-official="" data-plain="Fruit" data-loc="" d="M713.89,2700.46c-.34-21.43-.35-43.22,5.63-63.8s18.87-40.12,38.24-49.3c12-5.69,25.72-7.05,39-6.31,26.75,1.48,54.26,12.26,69.86,34,12.68,17.73,16.09,40.33,18,62.05,2.64,30.76,1.93,64.75-18,88.33-6,7.05-13.66,13.24-16.29,22.09-5.35,18,12.87,35.5,11.4,54.24-1.1,14.09-13.55,25.21-27.09,29.28s-28,2.6-42.1,1.08C782,2871,770,2868.9,764.86,2859.69c-5.5-9.91.2-22,.65-33.38.72-18.53-12.72-34.16-24.69-48.32s-24-31.74-19.7-49.79Z"></path>
    <path data-name="2b" data-official="" data-plain="Section" data-loc="" d="M902.21,2730.88c.42-21.55-9.53-43-5.41-64.11,3.21-16.49,14.48-30.09,25.35-42.9,5.92-7,12-14,19.81-18.75,12.47-7.46,27.76-7.95,42.29-8.23,20.49-.39,42.08-.53,60,9.48,17,9.53,28.32,27.26,34,46s6.23,38.5,6.32,58c.08,17.8-.39,36.3-8.37,52.2-5.24,10.42-13.59,19.47-16.25,30.83-3.54,15.12,3.71,31.57-1.32,46.26-6,17.5-26.71,25.08-45.17,26.33-14.26,1-31.61-2.56-36.57-16-3.18-8.6,0-18.77-4-27-5.92-12.13-22.47-12.69-35.49-16.28-23.33-6.43-41.16-29.13-41.9-53.32Z"></path>
    <path data-name="2c" data-official="" data-plain="Section of Ovary" data-loc="" d="M1114,2722.19c-6.53-15-1-33.56,10.82-44.94s28.71-16.31,45.11-16.49,32.52,3.95,48.24,8.6c4.77,1.41,9.62,2.92,13.6,5.9,4.74,3.56,7.82,8.89,10.3,14.28a106.25,106.25,0,0,1,9.72,44c0,10.07-1.38,20.08-2.79,30.05l-6,42.81c-.84,5.94-1.73,12-4.71,17.25-4.39,7.67-12.6,12.25-20.59,16-10.52,5-21.67,9.25-33.29,9.42-22.36.33-42.64-15-54.25-34.13s-16.06-41.62-19.83-63.67Z"></path>
    <path data-name="3" data-official="Turræa lobata" data-plain="Various-leaved Turræe" data-loc="East Indies" d="M1116.7,2525.09a1481,1481,0,0,0-33.25-209c-10.71-45.89-25.29-94-60.86-124.91l-14.31-28.91c-28.31-16.39-57.43-33.5-76.85-59.82-14.63-19.83-22.79-43.68-28.74-67.6a448.68,448.68,0,0,1-12.9-126.18c1.1-27.21,4.89-55,17.55-79.1,13-24.69,35.58-48,31.5-75.56l-7.75-33.15-13.72,5.51c-2-4.37-7.13-6.45-9.78-10.45-2.14-3.23-2.43-7.31-2.42-11.18a62.73,62.73,0,0,1-11.7,17.63l-16.54,19.15c-5.28,7.88-13.52,14.27-23,15.2s-19.71-4.78-22.07-14a29.47,29.47,0,0,1-.75-6.29c-.88-22.94,5-46.86,20.14-64.17l2.74-12.19c3.69-4.44,9.25-6.84,14.65-8.9a74,74,0,0,1,14.07-4.18c2.57-.43,5.18-.62,7.78-.82l18.3-1.39c-13.27-13.45-19.53-32.17-24.7-50.34-.9-3.14-1.78-6.42-1.19-9.63l-8.15-13.21c-2.14-2.77-5.73-4.06-8.08-6.65a10.41,10.41,0,0,1-2.45-8.86l-6.82-9.28c-4.48,0-8.4-2.74-12.22-5.08-6.45-3.94-13.47-6.84-20.46-9.72-8-3.31-16.29-6.65-25-6.94l-15.4-10.5-24.72,5.08c-.44.1-1,.16-1.28-.2a1.25,1.25,0,0,1-.2-.81l-.11-7.19a23.55,23.55,0,0,1,.23-4.52,11.4,11.4,0,0,1,1.69-4.2l1.46-8.58q-5.46-22.76-10.91-45.51c-.84-3.51-1.69-7.09-1.42-10.69l-1.41-5.37a43.33,43.33,0,0,0-1.7-8.9,14.5,14.5,0,0,0-5.12-7.31c-1.34-.94-2.89-1.56-4.28-2.43a13.71,13.71,0,0,1-6.2-9.69l-1.84-3.43c-.43-2.27-2.1-4.08-3.69-5.77q-10.27-10.92-19.83-22.46l-3.68-1.38-7.26-3.74a15.89,15.89,0,0,0-6-2.13c-1.13-.09-2.27.08-3.4,0a8.5,8.5,0,0,1-4.69-1.74,1.94,1.94,0,0,1,.48-2,5.75,5.75,0,0,1,1.86-1.19l4.56-2.15-3.36-15.76A34.69,34.69,0,0,1,695,1307.2c2.68-2.15,5.71-3.92,8-6.49,3.42-3.86,4.78-9.08,7.35-13.55,3.65-6.35,9.61-11,14.94-16a106.84,106.84,0,0,0,20.69-27l5.24-13.95,8.13-8.51a13.3,13.3,0,0,0,1.8-2.17c.48-.77.79-1.63,1.26-2.41,2.09-3.52,6.54-4.6,10.19-6.45l3.24-10.36a34.43,34.43,0,0,0,6.33-33.38,36.63,36.63,0,0,0-25.32-22.94c-6.44-1.62-13.19-1.49-19.8-.88l-7.64,5.9q-5.61,1.44-11.13,3.22l-6.26,2c-1.59,0-2.52,1.69-3.4,3-1.83,2.74-4.75,4.52-7.58,6.21-2.4,1.43-5.15,2.92-7.84,2.16l-.82,6.59a32.6,32.6,0,0,1-4.9,7.24l-9.09,3.63c-7.52,2.57-15.44,4.94-23.29,3.72l-9.93-5.41a4.64,4.64,0,0,1-2.27-2.59,11.22,11.22,0,0,1-.65-3.45,49.2,49.2,0,0,1,1-14l-.22-9.2-10.68-28c-1.56-4.1-3.35-8.48-7.05-10.84-3.39-2.17-7.68-2.18-11.71-2.11l-31.75.5-12.38-6.26c-2.45.06-5.15.68-7.19-.69-2.62-1.76-2-6.55,1-7.55-6.92.76-10.89,8.52-17.35,11.13a25.23,25.23,0,0,1-6.74,1.36l-9.44,1c-1.83.2-4.42-.27-4.33-2.1q11.85-12.57,23.71-25.15a46.5,46.5,0,0,1,5.72-5.42,23.33,23.33,0,0,1,14.43-4.6c-1.39-1.57-3.56-2.13-5.46-3s-3.8-2.59-3.57-4.68c.32-2.94,4.12-3.69,6.8-5a10.24,10.24,0,0,0,5.46-6.76l-4.44-2.91a41.67,41.67,0,0,1-5.52-1.39c-1.28-.44-2.51-1-3.79-1.49a26.9,26.9,0,0,0-14-1.31l-10.06.74c-12.57,12.39-33.3,11.31-48.16,20.83-1.85,1.18-3.59,2.52-5.45,3.68l.93-10a17.72,17.72,0,0,0,0-4.77,10.28,10.28,0,0,0-8.15-7.84,13.8,13.8,0,0,0-11.19,3.15l-10.18,2.56a35.8,35.8,0,0,0-14.22,11.34l-5.66,6.75a418.62,418.62,0,0,0-37.92,52.11l-9.38-1.55a26.81,26.81,0,0,0-6.24-5.61,25.68,25.68,0,0,0-7.79-2.52q-7.74-1.58-15.55-2.72l-6.9-3.37c-3.85-2.11-6.95-5.33-10-8.51L326,1087.82c-7.52-7.88-15.26-16.08-18.85-26.37-3.34,7.13-10.92,11.08-18,14.53l-19.21.85c-8.88-4.92-20.38-5.5-27.23-13l-18.92,35.9c-30.49,42.75-61.77,87.32-71.34,139a207.9,207.9,0,0,0-2.06,58.2c.31,3.2.5,6.94-1.89,9.1a10.2,10.2,0,0,1-4.62,1.94l-48.35,11.42-35.05,32-25.95,43.59c-10.12,17-20.41,34.43-24.2,53.85a172.65,172.65,0,0,0-2.31,20c-.79,10.45-1.58,21-.06,31.36a175.89,175.89,0,0,0,4,17.65,361.74,361.74,0,0,1,8.9,48.77l7.18,20.54c6.23,33.51,12.64,67.57,28.2,97.9,35,68.16,108.55,105.28,173.11,146.52,26.27,16.78,54.54,40.24,53.43,71.4l.12,36a368.41,368.41,0,0,0-19.81,188.5c1.55,9.82,3.76,20.11,10.42,27.49,11.66,12.91,31.64,12.12,48.57,16.11,40.34,9.5,66,48.18,86.16,84.37,17.49,31.31,34.44,64.62,35.2,100.48.72,33.84-10.87,74.35,14.38,96.89,21.49,19.18,55,10.7,82,.79,26.61-9.75,53.31-20,77.16-35.26,25.16-16.14,46.46-37.5,67.55-58.69,19.77-19.87,40.12-40.62,49.66-67,16.15-44.57-2-94.17,3.51-141.26.59-5.08,1.85-10.74,6.18-13.47s10-1.4,14.84.47c41.49,16.15,62.81,60.78,83.77,100.06a786.72,786.72,0,0,0,97.28,142.22c9.5,11.05,19.49,22.14,24.85,35.68,9.19,23.19,3.38,49.19,0,73.9s-3.07,53,14.64,70.58c8.21,8.14,19.2,12.85,30.22,16.4a197.14,197.14,0,0,0,67.48,9.32c7.62-.28,15.48-1.08,22.15-4.78C1117.51,2571.58,1118.51,2546,1116.7,2525.09ZM555.58,1485.75a12.26,12.26,0,0,0,4.27-3.74c2.65-4.42-.91-9.91-1-15.06-.1-4.58,2.62-8.79,6-11.91a30.7,30.7,0,0,1,27.41-7.3l8.63,4a232.75,232.75,0,0,1,.13,39.6c-.56,6.83-1.55,14-5.66,19.47l-5.92,4.23c-2.38.19-4.7-.73-6.88-1.7a126.57,126.57,0,0,1-26.3-15.7l-6.61-4.56-.1-3.47Zm133.33,159.44c-.56,4.86-2.62,9.4-4.66,13.85l-2.79,6.11a85.71,85.71,0,0,1-5.4,10.48c-7.69,12.07-21.16,19.88-27.66,32.63l-5.73,9c-5.32,5.8-10.83,11.73-17.93,15.12-5.14,2.45-10.88,3.45-16.07,5.81-4.39,2-8.27,4.93-12.12,7.83a195.26,195.26,0,0,0-18.8,15.49,74.33,74.33,0,0,1-7.14,6.61,27,27,0,0,1-15.7,5.32,7.52,7.52,0,0,1-3.58-.62,8.33,8.33,0,0,1-3.06-3.4c-8.3-14.2-10.11-31.15-11.73-47.52q-1.66-16.68-3.31-33.37a104.77,104.77,0,0,1-.76-13.7,53.11,53.11,0,0,1,30-45.39l13.49.33,14.06.12a5.56,5.56,0,0,1,2.4.37c2.32,1.1,2.53,5,5,5.59,1.61.4,3.12-.84,4.31-2,5.24-5.06,10.6-10.3,13.6-16.94s3.16-15.09-1.56-20.64c3.59.44,5.59-4,6.32-7.52,1.56-7.58,2.74-15.24,3.54-22.93L654,1589.36c6.13,4.79,12.31,9.61,17.42,15.48a89.74,89.74,0,0,1,11.12,16.77C686.4,1628.91,689.85,1637,688.91,1645.19Zm41.36-117.11a17.13,17.13,0,0,0-4.11,0,25.41,25.41,0,0,0-2.51.83c-2.46.79-5.11.58-7.68.37l-5,6c1.59.21,3.44.78,3.88,2.32a3.67,3.67,0,0,1-.37,2.46c-1.38,3-4.1,5.18-6.82,7.09-6.38,4.48-13.51,8.51-17.48,15.22l-2.3,5.29c.18,3.25-.93,6.48-.57,9.71a41.24,41.24,0,0,0,1.74,6.4c1.15,4.16,1.1,8.55,1,12.86l-2.21,5.74c-5.78-1.1-10.19-5.6-14.43-9.68-14-13.53-30.21-24.65-46.3-35.69l.85-5.9a2.8,2.8,0,0,0,.58-2.11c-.08-3-.73-6-.21-9a36.4,36.4,0,0,1,1.33-4.55,31.44,31.44,0,0,0,1.26-12.82l-.41-4.39c-1.75-4.2-1.86-8.88-2-13.42a445.72,445.72,0,0,0-5.39-56.14l3.9-5.38c-.36,3.62,1.84,7,4,9.9a42.27,42.27,0,0,0,5.83,6.82c6.94,6.16,17.16,7.46,26.26,5.66a45.91,45.91,0,0,0,18.43-8.16c4-3,7.61-6.65,12.17-8.69l7.8,1.07c7.81,4.72,13.76,12.17,17.61,20.44s5.72,17.36,6.52,26.44l12,20.74a52.2,52.2,0,0,1,9.78,4.36C742.12,1525,736.43,1528.33,730.27,1528.08Z"></path>
    <path data-name="3a" data-official="" data-plain="Stamens and Pistil" data-loc="" d="M1363.15,2671c2.68-34.38,5-70.58-9.72-101.75-3.13-6.6-7-13-8.67-20.08-2.25-9.68-.13-19.8,2.65-29.33a211.49,211.49,0,0,1,25.87-56.26c10.91-16.71,26.53-33.07,46.47-34,14.13-.68,27.72,6.88,37.19,17.39s15.38,23.72,20.27,37a332.22,332.22,0,0,1,15.87,59.38c1.29,7.58,2.32,15.34,1.14,22.94-1.12,7.28-4.22,14.07-6.88,20.94-24.77,64-12,135.54-16.12,204-.6,10-1.63,20.17-5.9,29.21-8.57,18.16-28.47,28.17-47.92,33.15-15.54,4-33.85,5-45.8-5.74-12.41-11.13-12.94-30.05-12.54-46.72q1.26-52,2.5-104Z"></path>
    <path data-name="4a" data-official="" data-plain="Ekebergia senegalensis, Flower" data-loc="" d="M1620.82,2754.35l-4.58-45.45c-.9-8.92-1.73-18.32,1.89-26.52,4-9,12.77-15.05,22.11-18s19.28-3.26,29.08-3.52c26.34-.69,54.65-.84,76.41,14,3.56,2.43,7,5.36,8.8,9.26a27.93,27.93,0,0,1,2,9.42,206.39,206.39,0,0,1-7.08,74.78c-3.2,11.2-7.37,22.22-8.86,33.78-1.74,13.49.24,27.19-.74,40.76s-5.77,28-17.21,35.35c-8.86,5.68-20,6.08-30.56,5.73a298.19,298.19,0,0,1-43.9-4.71c-7-1.28-14.65-3.34-18.24-9.43-4.22-7.16-.8-16.14,1.6-24.1a89.91,89.91,0,0,0-3.59-61.12Z"></path>
    <path data-name="4b" data-official="" data-plain="Fruit" data-loc="" d="M1799.49,2761.37c-4.49-26.32,13-51,30.82-70.92,10.9-12.15,22.59-24,37.07-31.57s32.34-10.14,47.16-3.3c9.26,4.27,16.64,11.86,22.48,20.23,20.37,29.2,23.13,67.14,20.6,102.65-2.12,29.76-9.91,63-35.61,78.21-15.3,9-34,9.67-51.79,9.38q-21.9-.36-43.76-2.08c-2.52-.2-5.15-.45-7.27-1.83-2.52-1.63-3.85-4.53-5-7.29A338.81,338.81,0,0,1,1795.4,2796Z"></path>
    <path data-name="5a" data-official="" data-plain="Seed of Ekebergia indica" data-loc="" d="M1995.81,2769l3.78-23.8c.52-3.22,1.06-6.53,2.73-9.33,2.16-3.63,5.93-6,9.66-8a128.23,128.23,0,0,1,30.15-11.58c5.46-1.34,11.29-2.31,16.63-.56,4.82,1.57,8.68,5.16,12.11,8.88a112.26,112.26,0,0,1,29.22,67.85c1,14.28-1.13,29.48-9.86,40.83-8.49,11-22.25,17-36,19s-27.8.32-41.62-1.31c-4.24-.5-8.74-1.11-12-3.87-3.1-2.64-4.47-6.74-5.56-10.67a169,169,0,0,1-6-51.71Z"></path>
</svg>
