
<svg xmlns="http://www.w3.org/2000/svg" viewBox="0 0 2133 2857" id="illustration" preserveAspectRatio="xMidYMid meet">
    <title>Aurantiaceæ</title>
    <path data-name="1" data-official="Citrus aurantium" data-plain="Sweet Orange" data-loc="China" d="M1099.28,2631.84c1,16.89-.52,33.82-2.06,50.67q-2.09,22.59-4.15,45.17c-.29,3.07-.6,6.24-2.09,8.93-3.76,6.82-13.11,7.82-20.86,7s-16.26-2.4-22.81,1.81c-2.56,1.65-4.54,4-6.86,6-10.31,8.8-26.63,7.94-37.85.33s-17.82-20.63-20.69-33.88-2.44-27-2.34-40.52c.29-38-2.16-76.43-13.19-112.8-4.26-14.07-9.79-27.76-13.15-42.08-2.47-10.49-3.76-21.29-7.17-31.52-5.25-15.77-15.31-29.6-20.57-45.37-7.9-23.7-4.31-49.51-.63-74.22l5-7.06c3.08-4.11,8.6-5.79,13.72-5.49s10,2.29,14.7,4.31q7.59,3.26,15.09,6.74c5,2.33,10.07,4.78,14.2,8.46,4.42,3.94,7.55,9.08,10.62,14.15l11.85,12.22,35.85,27.82a53,53,0,0,1,4.79,4c5.94,5.86,8.73,14.11,11.32,22l5,10.8c10.06,17.06,13.37,37.15,16.49,56.71l11.74,73.64C1096.93,2610.42,1098.63,2621.08,1099.28,2631.84Zm471-1030.5a51.91,51.91,0,0,1-19.7,21.87l-14.2,2.73a58.65,58.65,0,0,0-25.18,5.29l-10.09,6.71c-8.44-2.18-17.19,1.29-25.21,4.68-2.54,1.07-5.32,2.4-6.29,5l-5.78,1.44c-13.53,3-26.5,8-39.41,13-5.38,2.1-11.09,4.44-14.36,9.21a8.17,8.17,0,0,1,8.1,13.83c1.51.58,2.08,2.54,1.65,4.1a9.89,9.89,0,0,1-2.69,4q-6,6.22-12,12.35l-1,7.87c4.24,1.69,7.3,5.58,9,9.8s2.28,8.82,2.82,13.35q.93,7.8,1.87,15.61c1.67,14,3.33,28.29.26,42l-2,18.24q-2.22,14.21-5.52,28.22l-4.26,14a150.06,150.06,0,0,1-28.06,68.52c-4.89,6.58-10.31,12.73-15.72,18.88-25.36,28.81-52,58.59-87.63,73l-9.28,3.17c-10.2.41-20.86-6.86-30-2.26a25.85,25.85,0,0,0-5.75,4.42l-16.66,15.58a10.33,10.33,0,0,0-3.89,7.12q-3.71,17-7.4,34c-5.5,25.31-11,50.72-20.09,75a270.77,270.77,0,0,1-29,56.34l-16.25,39.37c-8.93,6-15.28,15-23.22,22.21-15.68,14.23-36.72,20.69-57,26.73l-11.34,4.72c-8.75,1.64-17.79,2.49-25.93,6.08s-15.48,10.7-16.27,19.57l-.6,8.85a64.72,64.72,0,0,0-1.54,17.66l-6.49,6.31c-3.36,2.11-7.73.53-11.36-1.09l-7.5-3.34c-13.23-5.89-27.22-12.43-34.92-24.69l2-8.3c2.5-14.87,12.57-27.56,24.52-36.74l4,3.62a80.6,80.6,0,0,0,18.9-6.94c4.32-2.23,9-5.75,8.82-10.61a14.43,14.43,0,0,0-1.34-4.9q-5.54-13.55-11.08-27.08l-3.22-14.19c-6.11-1.72-10.24-7.26-13.76-12.54a391.73,391.73,0,0,1-33.51-61.39l-12.89-10.17a38.51,38.51,0,0,0-9.57-11.62c-5.44-4.44-12-7.28-18.41-10.08-26.83-11.64-54.31-23.44-83.49-25.49l-19.15-1.07a159.13,159.13,0,0,1-33.12,3.95c-1.66,0-3.46.06-4.77,1.09s-1.74,2.63-2.1,4.19l-3.25,5.23c-8.23-.86-17,1.3-24.58-1.95l-8-3.93a200,200,0,0,0-65.32,38.26,80.06,80.06,0,0,0-7.41,7.21,100.45,100.45,0,0,0-7.16,9.5c-9.12,13.13-18.26,26.28-25.89,40.33-1.7,3.13-3.46,6.45-6.48,8.35a10.23,10.23,0,0,0-3,2.13,7.12,7.12,0,0,0-1,2.79,63.68,63.68,0,0,1-14.59,28.32,4,4,0,0,1-2.1,1.49,4.1,4.1,0,0,1-2.92-1,63.92,63.92,0,0,1-9.67-8.09l-.11.78a55.87,55.87,0,0,1-36.74,29.38,32.11,32.11,0,0,1-.37-9l-.4.26c-5.27,7.74-13.49,13.18-22.34,16.23s-18.36,3.82-27.72,3.56a39,39,0,0,0-.88-8,53.67,53.67,0,0,1-37.5,11.58l1.23-7.44a54.9,54.9,0,0,1-28.1,13.29l-12.62-3a39.28,39.28,0,0,1-21.07-5.47,59.62,59.62,0,0,0,11.85-4.39c-7.24-4.18-16.72,3.19-24.56.28-4-1.48-7.62-5.53-11.61-4.11l-1-4.45-41-6.37-20.55-5.11a49.41,49.41,0,0,1-39.7-12.82c-3.35-3.15-6.31-6.82-10.27-9.16-6.79-4-15.21-3.43-23-4.84a8.22,8.22,0,0,1-4-1.6c-1.45-1.29-1.89-3.33-2.26-5.24-1-5.49-2-11.6,1-16.34,2.08-3.31,5.69-5.29,9.11-7.19a286.82,286.82,0,0,0,54.6-39.4l6.53-4.64c8.28-2.82,16.75-5.75,23.58-11.21,2.27-1.83,4.33-3.9,6.62-5.7,4.94-3.87,10.81-6.34,16.16-9.61,11.07-6.77,19.77-16.91,30.77-23.78,12.39-7.73,27-10.92,40.4-16.72,3.05-1.32,6.07-2.79,9.33-3.41a37.84,37.84,0,0,1,8.58-.32l11.72-2.33c9.23.27,18.55.53,27.62-1.17a47.38,47.38,0,0,1,7.92-1.21,44.14,44.14,0,0,1,6.68.62c12.21,1.59,24.59.39,36.84-.81l20.33,9.25L552.3,2080c2.62-.25,5.34-.52,7.63-1.84,1.45-.83,2.66-2,4.13-2.87,1.77-1,3.82-1.34,5.68-2.15,3.33-1.44,5.85-4.22,8.27-6.92l9.16-9.3a30.93,30.93,0,0,1,15.74-10.31c1.73-.48,3.51-.81,5.2-1.41a34.86,34.86,0,0,0,7.31-4q11.22-7.37,23-13.89l5.48.13c2.83-1.24,6.49.1,9-1.69a10.61,10.61,0,0,0,2.28-2.74c5.29-7.61,14.6-11.19,23.45-14s18.24-5.47,24.7-12.13c2.93-3,5.19-6.79,8.78-9l12.66,1.61a258.54,258.54,0,0,1,35.31-8.82s-47.29-47.45-60.79-115,9.44-186.31,55.85-235.25,135.47-103.09,199.59-103.09l-.71-1.81c-11-2.95-19.86-10.83-27.8-18.95-7.54-7.73-14.62-15.9-21.69-24.06-4.52-5.22-9.32-11.21-8.88-18.09l-.28-.25c-8.56,3.89-14.5,11.87-19.18,20s-8.58,16.87-14.8,23.91c-2.28,2.59-5,5-8.25,6s-7.26.54-9.59-2a14.38,14.38,0,0,1-1.81-2.73l-1.92-.17c-5.15,5.38-12.14,8.61-19.19,11-10.36,3.53-21.59,5.51-32.26,3.06-5.46-1.25-10.59-3.62-15.62-6.09-6.9-3.39-14-7.26-18.24-13.66-1.5-2.25-2.88-5-5.48-5.75-2-.58-4.73,0-5.72-1.89s1.24-4,3-5.46c2-1.74,3.62-4.3,3.29-7s-3.28-4.93-5.72-3.84a7.05,7.05,0,0,1,1.54-10.07c1.44-.91,3.17-1.25,4.66-2.08s2.79-2.47,2.33-4.11c-.59-2.14-3.82-3.17-3.55-5.38.17-1.42,1.76-2.16,2.64-3.29,1-1.32,1.07-3.13,1-4.8s-.08-3.45.85-4.84,3.23-1.93,4.22-.59c3.32-9.89,12.47-16.82,22.17-20.65,17.49-6.9,39-4.87,53,7.63a43.25,43.25,0,0,1-2.71-14.89c0-3,.94-6.85,3.93-7.41,2.11-.4,4,1.11,5.71,2.47a114.14,114.14,0,0,0,42.33,22s-65.27-107.58-63.89-219.58l-.49-.93c-7-1.8-12.43-7.57-16-13.9s-5.6-13.38-8.53-20a82.47,82.47,0,0,0-20.49-28.17c-4.93-4.39-10.41-8.23-14.61-13.32s-6.94-11.28-10.11-17.11c-4.23-7.77-9.32-15.06-13.13-23-2.93-6.14-5.07-12.63-7.8-18.86-10.08-23-28-41.91-48.34-56.71s-43.07-25.83-65.75-36.66l-.71-.08c-.14-1.87-.27-3.75-.41-5.62-7.11,4.67-12.65,11.33-18.08,17.89-2.28,2.75-4.62,5.61-5.58,9a10.63,10.63,0,0,0-2.38-7.7l.48,1a16.8,16.8,0,0,1-2.9,7.82,51.61,51.61,0,0,1-17.87,17.47,42.81,42.81,0,0,1-.94-8.89,50.38,50.38,0,0,0-9,11.27,31.08,31.08,0,0,1-3.49,5.32,23.37,23.37,0,0,1-4.85,3.75q-6.43,4.15-12.89,8.29a40.9,40.9,0,0,1-9.8,5.12,41.91,41.91,0,0,1,.4-12l-1.57.61a16.42,16.42,0,0,0-3.43,5.64,22.15,22.15,0,0,1-1.67,4.37,13.3,13.3,0,0,1-3.6,3.45q-2.44,1.83-4.9,3.65a22.82,22.82,0,0,1-7.21,4.1c-2.68.75-5.86.35-7.73-1.71-1.55-1.69-1.92-4.12-2.31-6.38a90,90,0,0,0-2.26-9.85l-.79.5c-.6,3.44-1.28,7-3.53,9.72-2.39,2.84-6.1,4.09-9.44,5.7A39.33,39.33,0,0,0,466,1065.2a35.34,35.34,0,0,1-.89-14.86c-1.28,3.94-5,6.46-8.54,8.67l-19.6,12.37a39.62,39.62,0,0,1,1-11.74l-.61,1.12a94.44,94.44,0,0,1-19.45,14,3.52,3.52,0,0,1-2,.61,2.49,2.49,0,0,1-2-2.25,7.32,7.32,0,0,1,.56-3.15q-3.81,5.09-7.86,10c-.9,1.1-2,2.28-3.4,2.38a12.14,12.14,0,0,0-1.81,0,3.79,3.79,0,0,0-2,1.55l-5.84,7.22c-2.25,2.79-4.61,5.82-4.83,9.4-2.48-9.19-9.68-16.79-11-26.21a6.79,6.79,0,0,0-.5-2.1,8.13,8.13,0,0,0-1.35-1.64c-4.7-5.06-4.1-12.91-3.19-19.75l-.22.34-7.56,4.25a47.86,47.86,0,0,0-5-24c.17,1.18-.82,2.6-1.9,3.4-1.38,1-3.13,2.22-2.95,3.93a65.42,65.42,0,0,1-.56-32.21c-.63,2.08-2.77,4-4.79,3.25-2.31-.9-2.2-4.11-2.75-6.53a8.85,8.85,0,0,0-7.18-6.65l-7-9.3c3.42-20.9,8.43-43.63,25.13-56.65,5.85-4.57,12.76-7.57,19.72-10.18a222.86,222.86,0,0,1,75.63-14.11c8.14-.09,16.84.12,23.7-4.27l15.62-11.17A99.09,99.09,0,0,0,472,877.61a27.21,27.21,0,0,1-5.33-3,7.67,7.67,0,0,1-3-5.15,7.45,7.45,0,0,0-.28-2.37,4.09,4.09,0,0,0-2.31-1.87c-3.47-1.49-7.24-2.06-10.88-3a49.49,49.49,0,0,1-17.39-8.66l-19.27-8.36c-16.83-19.89-34.5-40.42-58.31-51-41-18.16-90.51-2.81-132.17-19.32-4.43-1.75-9-4.09-11.36-8.23-4.89-8.53,1.91-19,9-25.74,14.68-13.94,32.19-24.53,47.85-37.35s30-28.82,34.74-48.5c6.34-26.22-5.48-53.48-20.7-75.75S248.31,537,237.28,512.38c-3.18-7.09-5.69-15-4-22.56,3.53-15.6,22.16-21.95,38-23.88,54.51-6.62,109.82,6.52,164.49,1.45,9.53-.88,19.21-2.38,27.7-6.8,9.29-4.85,16.5-12.85,23.1-21C511.82,408.48,531,373,550,337.82l19.78-11.94c18.25-9.15,29.21-28,39.14-45.85q11.43-20.58,22.88-41.14c5.09-9.15,10.37-18.53,18.48-25.14,8.79-7.18,20.16-10.46,31.42-11.89,21.29-2.71,43.83.87,61.73,12.71,9.78,6.47,17.88,15.13,26.18,23.42,22.22,22.2,46.5,42.23,70.86,62.06,7.93,6.45,16,13,21.56,21.6,5.73,8.83,8.45,19.23,10.74,29.5A488.13,488.13,0,0,1,884,435.4l13.39,7.94q11.43,8,23.38,15.14l1.8,5.52c1.31,2.69,2.69,5.49,5,7.33,1.27,1,2.85,1.77,3.47,3.26a3.7,3.7,0,0,0,.7,1.45,3.21,3.21,0,0,0,1.51.52c2.28.49,3.87,2.55,4.95,4.62a29.68,29.68,0,0,1,2.54,18.91,46.47,46.47,0,0,1-7.61,17.73,79.81,79.81,0,0,0-4.58,7l-1.52,4c.09,3.06.17,6.11.26,9.17a26,26,0,0,0,1.08,8.11c1,2.83,2.95,5.21,4.31,7.88,2.77,5.45,3,11.78,3.17,17.89l-7.52-3.11C930.32,580,936.2,590.15,942,600l-6-.26c3.31,8.46,7,17.39,14.27,22.8q.64,7.79,1.81,15.52l3,17.51c.75,28.6-14.71,57.07-39.1,72-14.37,8.81-31,3-47.31,7.3-29.93,8-60.7,17.62-83.49,38.59L773.94,788.4a178.19,178.19,0,0,1-33.78,13.88,12.64,12.64,0,0,0-4.65,2.08,9.82,9.82,0,0,0-2.71,4.53,25.37,25.37,0,0,0-.47,14.29L728.05,839a32.54,32.54,0,0,0-3.44,16.2,74.65,74.65,0,0,0,2.72,16.49,12.12,12.12,0,0,0,1.51,3.89l10.52,1.77c3.73,2.92,8.25,4.61,12.72,6.18,11.48,4,23.22,7.57,35.32,8.82a97,97,0,0,0,57.48-12l9-2.42c.58-7.41.29-15-1.83-22.11s-6.17-13.82-12.11-18.29l-4.25-4.4c-10.82-12.48-22-25.22-36.45-33.14-3.88-2.11-8.47-4.52-9.15-8.89-.54-3.51,1.86-6.87,4.74-9s6.3-3.31,9.25-5.29c5.89-4,9.51-10.58,15.25-14.74s13.26-5.49,20.44-6.13c6.5-.57,13-.74,19.57-.9,5.26-.12,10.62-.24,15.69,1.16,3.93,1.08,7.57,3,11.44,4.3,4,1.31,8.36,1.86,12.13,3.8a29.92,29.92,0,0,1,7.68,6.19,38.2,38.2,0,0,1,6.37,8.41,24.69,24.69,0,0,1,.94,20.6c-2.5,6-7.27,10.77-11.29,15.91a75.59,75.59,0,0,0-13.74,28.06l-5.22,3.83c-2.84,2.32-5.84,4.9-6.71,8.46a17,17,0,0,0-.29,4.34l.42,24.24,5.56,9.35c1.4,22.56,2.63,46.15-6.62,66.76l-2.35,4.71c-1.16,3.46-4.74,5.54-6.52,8.73a17.81,17.81,0,0,0-1.19,2.81q-1.85,5.06-3.68,10.13l1.29,16a49.34,49.34,0,0,1-11,18.65c-2.48,2.63-5.31,5-7,8.26-2.21,4.24-2.13,9.34-4,13.74l-1.36,2.31c-9.9,130.44,1.87,275.74,70.45,381.13l1.56,5c18.32.18,36.23,12.3,45.84,27.9a136.17,136.17,0,0,0-5.55-43.78c-.78-2.61-1.63-5.5-.5-8l-.13-1a47.26,47.26,0,0,1-.79-9.27,7.43,7.43,0,0,0-.18-2.21,7.89,7.89,0,0,0-1.47-2.41c-4.49-5.94-6.18-13.45-7.6-20.79-.21,1.4-1.85,2.7-3.2,2s-1.65-2.28-2.15-3.64c-1.86-5.06-7.1-7.85-11.51-10.95a51.19,51.19,0,0,1-18.9-25.2l-.6-.91a3,3,0,0,1-3.78-.74,8.31,8.31,0,0,1-1.6-3.85,74.29,74.29,0,0,1-1.77-14.7c-.52.6-1.31-.47-1.38-1.27a92.72,92.72,0,0,1,.82-21.89,24.47,24.47,0,0,0,7.25,0,63.1,63.1,0,0,1,2.23-11.15c2.46-7.93,7.07-15,11.63-22l7.1,6.59c.22-4.84,3.67-9,7.58-11.81s8.42-4.82,12.27-7.76c.73-.55,1.59-1.18,2.47-.93a2.72,2.72,0,0,1,1.15.81,33.39,33.39,0,0,1,3.48,4.21l.83-.44a75.29,75.29,0,0,1,25.21-12.35l1.1,3c12.42-1.37,24.78-3.35,37-5.93l5.91,1c10.64-3.18,21.68,3,32.77,3.72,6.19.39,12.4-1,18.6-.54,12.61.9,23.65,9.1,36.14,11l8.34,6c5.45,2.9,12,.79,18.13-.24,9.8-1.67,19.83-.32,29.68,1a79.33,79.33,0,0,1,13.28,2.59c8,2.51,14.9,7.42,21.7,12.25,2.85,2,5.7,4,8.53,6.12,16.5,12.08,32,25.46,47.14,39.24,2.25,2,4.7,4.65,4.23,7.67-.07.43-.32,1-.76.94a.28.28,0,0,1-.27-.27l-.87,1.09c-.31.75.9,1.11,1.71,1.13,3,.06,5.62,2,8,3.88l15,11.76a24.13,24.13,0,0,0-9.23.27,88.64,88.64,0,0,0-30,11.25,11.25,11.25,0,0,1-3.57,1.65c-5,1-8.86-5.07-13.93-5.31l-.59.81a12.78,12.78,0,0,0-6.26,6.59l-5-7.27.27,3.46a40,40,0,0,0-12.4-2.63,18.93,18.93,0,0,0-12,3.57c-3-3.7-7.86-5.4-12.58-6.09s-9.54-.55-14.24-1.41a33.71,33.71,0,0,1-16.29-8c-2-1.84-3.88-3.94-6.09-5.59a11,11,0,0,0-7.65-2.56c-3.31.36-6,2.85-7.9,5.59s-3.21,5.86-5.23,8.5l-43.21-6.7c-1-1.17-1.59-2.59-2.44-3.85a5.57,5.57,0,0,0-3.56-2.65,7,7,0,0,0-4.22,1.22,11.71,11.71,0,0,0-3.15,2.17,10.55,10.55,0,0,1-1.38,1.45,5.41,5.41,0,0,1-2.5.75l-13.1,1.7-2-1.63c-7,.39-14.71.61-20.46-3.48a9.75,9.75,0,0,0-3-1.77,7.13,7.13,0,0,0-3.08.09c-11.54,2.17-22.66,7.88-34.36,6.91l-.39.64c-1.47,3.29-5.33,4.82-8.92,5.21a6.57,6.57,0,0,0-2.78.66,5.53,5.53,0,0,0-1.73,2,85.21,85.21,0,0,0-12,33.53,33.88,33.88,0,0,0-.09,10.3c1,5.47,4.13,10.51,4.27,16.07l-.22,1.83q2.45,10.44,4.9,20.87c6,25.44,12,51.65,7.89,77.45a1.39,1.39,0,0,1-.52.83l1,.12a9.22,9.22,0,0,1,6.28.21,39.08,39.08,0,0,1,5.09,3.1c5.67,3.43,12.71,3.38,19.33,3.23l9.28-1.12c21.95-1.77,44-2.36,66-1.94,8.07.15,16.29.46,23.89,3.16,6.88,2.44,12.92,6.72,18.87,10.95l9.35,2.33a48.63,48.63,0,0,1,13,6.49l.62,8.13c2.78,10.09,13.2,16.65,22,22.3,17.69,11.36,32,26.17,45.64,42.19l7.55-.51a84.59,84.59,0,0,1,25.93,32.78l-6.29,5.67c-2.49,6.86-.56,14.45,1.38,21.48q3.66,13.32,7.34,26.64l8.53,4c18.77,5.73,38.9-.48,57.4-7,11.24-4,22.49-8.11,32.8-14.08l13.94-7.14q3.78-7.92,6.94-16.13l2.22-5.32a40.16,40.16,0,0,1,17-5.9c4.17-.46,8.89,0,11.74,3,2.23,2.42,2.79,5.92,2.95,9.21a38.42,38.42,0,0,0,18.5-20.75c.58,1.63,1.17,3.25,1.75,4.88,3.54-7.4,6.64-15.3,6.47-23.5-.13-6.05-2.06-12-1.6-18.06l-4.11-12.89a21.37,21.37,0,0,1-.35-7.35l7.55-4.73c33,12.5,67.33,24.4,102.6,23.08,10.71-.41,22-1.91,31.63,2.88Zm-754.2-422.9-1.9-4.63c1.22-30.73,2.27-61.81-4-91.92-1.15-5.57-2.56-11.09-4-16.59-5-19-11-38.92-25.7-51.94-3.89,12-7.79,24.06-10.2,36.45a157.12,157.12,0,0,0,3.29,73.33,67.38,67.38,0,0,0,5.45,14,75.29,75.29,0,0,0,8.38,11.58A300.49,300.49,0,0,0,816.05,1178.44Zm435.23,724.69c-2.45-10.08-7.93-19.8-16.68-25.37-4.32,14.45-15.09,25.92-25.52,36.82l-33.38,34.87c-3.88,4.06-7.86,8.26-9.8,13.52l-3.33,12.55c-1.82,3.33-2.29,7.19-2.74,11q-.49,4.23-1,8.44c-1.09,9.23-2,19.27,2.88,27.17l4.41,4.75c10-11,20.15-22,32.12-30.87,10-7.34,21.07-13,30.89-20.57s18.57-17.44,21.17-29.54l2.55-11.75C1253.45,1923.74,1253.72,1913.22,1251.28,1903.13Z"></path>
    <path data-name="1a" data-official="" data-plain="Cross-section of Fruit" data-loc="" d="M389.24,2711.11q-7.69,20.8-15.4,41.61c-5,13.46-10.36,27.52-21.19,36.94-22.78,19.81-60.84,12.07-83.55,32-4,3.5-7.31,7.72-11.44,11-9.88,7.94-23.29,9.93-36,9.63-20.56-.47-42.67-7.48-53.81-24.76-2.78-4.3-4.77-9.09-7.69-13.29-12-17.24-35.95-20.61-53-32.86-9.34-6.7-16.46-16-23.43-25.11-9.32-12.21-18.85-24.81-22.93-39.62-2.78-10.06-2.89-20.64-3-31.08-.28-31.3.1-64.87,18-90.58l15.27-14.16c7.77-7.22,12.46-17.18,19.78-24.85,11.21-11.74,27.44-17,43.14-21.16a521.64,521.64,0,0,1,104-16.34c26-1.42,56.84,1.73,69.84,24.25l11,23.88a395.16,395.16,0,0,1,48.05,125.18Z"></path>
    <path data-name="1b" data-official="" data-plain="Seed" data-loc="" d="M407.87,2709.71c-1.4,17.76-2.7,35.7-.27,53.36s8.92,35.23,21.25,48.1a39.35,39.35,0,0,0,13.1,9.47c7.69,3.17,16.38,2.79,24.61,1.52a125.14,125.14,0,0,0,43.93-15.55c5.43-3.16,10.85-7,13.62-12.63,1.88-3.83,2.38-8.18,2.65-12.44.4-6.19.24-12.87-3.36-17.93s-9.89-7.37-15.53-10.05-11.5-6.72-12.57-12.88l.44-9.18c-3.67.37-7.66.48-10.75-1.54-7.41-4.85-3.87-16-3.09-24.85s-2.2-17.56-5.37-25.85c-3.26-8.53-6.91-17.17-13.17-23.81s-15.74-11-24.61-8.78c-12.49,3.07-18.79,17.1-20.84,29.8-.91,5.63-1.38,11.47-3.9,16.59Z"></path>
    <path data-name="2" data-official="Citrus medica" data-plain="Citron" data-loc="Asia" d="M1404.59,2541.55a128.23,128.23,0,0,0-16.68,47.63c-.9,6.51-1.32,13.15-3.4,19.39s-5.67,11.68-8.43,17.57c-6.33,13.48-8.54,29.46-19,40.09-7.29,7.42-17.53,11.05-26.08,17a57,57,0,0,0-20.94,27.34c-1.94,5.43-3.08,11.22-6,16.22-5.39,9.33-16,14.38-26.31,17.38-9.39,2.72-19.48,4.2-28.92,1.62s-18-9.94-19.75-19.57c-.79-4.43-.12-9,.89-13.39,5.28-23.07,19.51-43.18,26-65.95,4-14.21,5-29.27,10.39-43,12.3-31,46.24-52,50.7-85.1l18-18.1a189.26,189.26,0,0,0,48-46.22c11.72-16.2,20.78-34.13,29.79-52l2.33-2.35a305.57,305.57,0,0,0,7.8,74.49c1.26,5.4,2.62,11.27.3,16.31Zm24.67-308.22a275.86,275.86,0,0,1,33.92-26.82c4.61-3.09,9.64-6.44,11.42-11.7a38.19,38.19,0,0,1,1.55-5c2.21-4.35,7.86-5.37,12.72-5.86a28.57,28.57,0,0,1,.49-12.07,31,31,0,0,0,1.4-6.18c.18-3.57-1.53-6.94-3.31-10-4.15-7.25-9.25-14.43-16.7-18.23-5.19-2.64-11.09-3.42-16.85-4.16l-21.63-2.79c-2.75-.35-5.94-.57-7.92,1.38a8,8,0,0,0-1.84,3.61c-2.79,9.76-.44,20.14.45,30.26,1.7,19.37-2,39.18,2.18,58.17Zm4.08-121,38.44,6.73a24.51,24.51,0,0,0,6.49.56,24.77,24.77,0,0,0,6.46-1.81l13-4.94a4.48,4.48,0,0,0,2.26-1.46,4.32,4.32,0,0,0,.47-2.44c0-7.42-.46-14.85.14-22.25.91-11.34,4.17-23,.5-33.82l-2.18.53c-10.68,2.41-16.33,13.86-24.82,20.76-10.91,8.87-26,9.84-40.07,10.33Zm64.35-149.07c1-8.94-.77-18.51-6.48-25.46s-15.9-10.51-24.15-7c-7.31,3.16-11.5,10.69-16,17.26a99.48,99.48,0,0,1-15.57,17.72,7.06,7.06,0,0,0-2.3,2.91,6.77,6.77,0,0,0-.14,2.62l.76,10.26.71.81c2.84,4.19,8.61,5.26,13.65,4.75s9.95-2.24,15-2.17a21.48,21.48,0,0,1,12.61,4.37,8.22,8.22,0,0,0,2.56,1.58,7,7,0,0,0,2.54.07l13.78-1.34a1.79,1.79,0,0,0,2-1.8,143.79,143.79,0,0,0,2.2-18.61Zm-28.11-315.63-5.78,1.44c-13.53,3-26.5,8-39.41,13-5.38,2.1-11.09,4.44-14.36,9.21a8.17,8.17,0,0,1,8.1,13.83c1.51.58,2.08,2.54,1.65,4.1a9.89,9.89,0,0,1-2.69,4q-6,6.22-12,12.35l-1,7.87c4.24,1.69,7.3,5.58,9,9.8s2.28,8.82,2.82,13.35q.93,7.8,1.87,15.61c1.67,14,3.33,28.29.26,42l-2,18.24q-2.22,14.21-5.52,28.22l-4.26,14,18.56,72.13a587.25,587.25,0,0,0,45.28-53.82,123.34,123.34,0,0,0,9.72-14.63,68.79,68.79,0,0,0,8-38.31l-.71-7.22c1.51-23.15-1.28-46.35-4.08-69.39l-3.72-30.73c-2.23-18.42-4.51-37-10.83-54.48Zm-257-98a37.37,37.37,0,0,0,2,14.54l34.71,75.69-6.29,5.67c-2.49,6.86-.56,14.45,1.38,21.48q3.66,13.32,7.34,26.64l8.53,4c18.77,5.73,38.9-.48,57.4-7,11.24-4,22.49-8.11,32.8-14.08l13.94-7.14q3.78-7.92,6.94-16.13l2.22-5.32a40.16,40.16,0,0,1,17-5.9c4.17-.46,8.89,0,11.74,3,2.23,2.42,2.79,5.92,2.95,9.21a38.42,38.42,0,0,0,18.5-20.75c.58,1.63,1.17,3.25,1.75,4.88,3.54-7.4,6.64-15.3,6.47-23.5-.13-6.05-2.06-12-1.6-18.06l-4.11-12.89a21.37,21.37,0,0,1-.35-7.35L1409,1562.82c-9.37-11.39-23.52-17.51-37.11-23.24-4.34-1.82-8.76-3.67-13.44-4.17-3.8-.4-7.62.1-11.44.15-13,.18-25.49-4.84-38.33-7-2.85-.48-6.76-.14-7.3,2.69ZM1717,738.41a17.67,17.67,0,0,0,15.5-7.26,31.9,31.9,0,0,0,3.48-7,60.6,60.6,0,0,0,2.72-8.2c1.2-5,1.27-10.26,1.35-15.44a16.38,16.38,0,0,0-.47-5.09,15.19,15.19,0,0,0-2.21-4c-1.51-2.18-3.1-4.32-4.76-6.39-3.53-4.43-7.53-8.72-12.7-11-7.23-3.25-15.64-2.16-23.32-.19-5.59,1.43-12.06,3.13-16.67-.33l1.19-14.69a33.17,33.17,0,0,0,20.6-3.16,49,49,0,0,0,16.21-13.41,65.38,65.38,0,0,0,13.73-49.71l-5.62,1.75a16.59,16.59,0,0,0-14-15.54c-.39-2-.2-4.15-.74-6.13s-2.23-3.94-4.29-3.75c-2.37.22-3.55,2.92-4.23,5.21a9.05,9.05,0,0,0-6.37-4.57c4.41-1.42,7.28-6.32,6.77-10.93a12.6,12.6,0,0,0-8.46-10.13,9.52,9.52,0,0,0-5.94-.25,11.93,11.93,0,0,0-4.49,3,37,37,0,0,0-7,9.19,24.85,24.85,0,0,0-16.17-17.17l1.27-13.49a225.36,225.36,0,0,1,8.3-69.65c.76-2.71,1.73-5.61,4.06-7.17l9.64-20.22a87.91,87.91,0,0,0,32.29-20.35l-9.61-.67a103.06,103.06,0,0,0,36.89-35.8l-9.51,1.08c8-5.55,12.66-14.67,16.23-23.72s6.43-18.54,12.08-26.46l9.89-10.33c21.46-16.42,43.44-33.13,69.08-41.63,10.39-3.44,21.18-5.47,31.84-7.92a397.87,397.87,0,0,0,68.21-22.37c5.31-2.29,11-5.11,13.39-10.38,2-4.42,1.19-9.55.26-14.32-4-20.49-9.92-41.64-24.27-56.8-9-9.49-20.66-16-32.64-21.18a214.15,214.15,0,0,0-153.76-6c-13.21,4.56-26,10.46-39.71,13.33-14.93,3.14-30.37,2.58-45.61,1.76-10.68-.57-21.43-1.27-31.8-3.89s-20.29-7.19-30.81-9.38c-21.81-4.53-44.75,1.56-64.25,12.33s-36.13,26-52.56,41l-71.89,65.79-17.07,21.11c-16.85,14.94-34.71,30.41-56.68,35.34-8.64,1.95-17.56,2.15-26.41,2.36l-89.64,2c-3.73.08-7.6.2-11,1.83l-13.3,7.17c-3.6,1.67-7.55,3.73-8.76,7.5a12,12,0,0,0-.35,4.43c1,14,10.8,25.61,15.58,38.8a87.4,87.4,0,0,1,3.24,12,216.63,216.63,0,0,1,3.7,63.81l4,6.55c3.16,2.71,4.65,6.81,6.41,10.58a122.68,122.68,0,0,0,6.31,11.38q4.44,7.39,8.9,14.79l12,10c4.33,1.71,7.35,5.56,10.65,8.83a50.59,50.59,0,0,0,16.61,10.92,5.6,5.6,0,0,0,2.91.56c1.25-.21,2.28-1.23,3.55-1.34a6.92,6.92,0,0,1,3.14.91c4.86,2,10.32.07,15.53-.53a31.3,31.3,0,0,1,26.44,10l8.87,7A217.68,217.68,0,0,1,1360,565.67c13.36,13.27,24.93,28.2,36.92,42.72,8.89,10.77,18.14,21.43,29.43,29.64,3.77,2.73,7.81,5.25,10.69,8.9s4.37,8.87,2.28,13c-1.19,2.35-3.33,4-5.46,5.6a113,113,0,0,1-16.52,10l-6.22,6.42a24.38,24.38,0,0,0-5.34,7.17c-1.45,2.69-2.72,5.48-4,8.27-1.14,2.5-2.27,5-3.27,7.56l-6.63,5.07c-5.26,6.49-6.3,15.32-7.13,23.63a18.44,18.44,0,0,0,.2,7,18,18,0,0,0,2.22,4.37q5.43,8.52,11.48,16.63a18.46,18.46,0,0,0,5.07,5.16,18.15,18.15,0,0,0,5.82,1.93,210.75,210.75,0,0,0,25.5,3.67l7.3-7,19.69.26,4.3,2.17c-.73,7,.13,14,1.09,21q3.12,22.47,7.63,44.72l.27,12.17a4.83,4.83,0,0,1,3.09,9.12c7.89,1.12,15.74-2,22.86-5.57s14.19-7.72,22.07-8.9l71.66-8.2,48.63-27.25a36.78,36.78,0,0,1,6.4-3.05c2.23-.73,4.6-1,6.79-1.88a14,14,0,0,0,7.25-6.66Z"></path>
    <path data-name="3" data-official="Citrus Limonum" data-plain="Lemon" data-loc="Asia" d="M875.16,2617.05c8.46,10.81,13.06,24.23,15.17,37.79s1.86,27.36,1.49,41.07c-.12,4.49-.28,9.08-1.83,13.3-1.92,5.21-5.81,9.42-9.82,13.27A154,154,0,0,1,857,2740.83c-10.32,6.66-22.86,12.22-34.6,8.62-8.13-2.5-14.48-9.14-18.5-16.63s-6-15.89-8-24.17c-3.74-15.83-7.51-31.87-7.06-48.12l4.71-13.62c9.2-3.21,18.57-6.76,25.86-13.22,1.74-1.55,3.35-3.24,5.17-4.69,1.56-1.24,3.27-2.29,4.84-3.52,5.42-4.27,9-10.58,14.7-14.49a22.7,22.7,0,0,1,18.76-3.1Zm-143.07-224c13.14-3.15,23.31-13.25,35-19.93,6.69-3.81,13.94-6.52,21.15-9.22l16.59-6.2-.22-16.84c-2.3-5.94-4.66-11.92-8.24-17.18s-8.53-9.81-14.58-11.79c-4.65-1.52-9.65-1.44-14.55-1.34l-45.39.88c-4,.08-8.49.43-10.91,3.57l-1.8,7.47a236.18,236.18,0,0,0,.63,29.14,48.29,48.29,0,0,0,2.41,12.92c2.17,5.78,6.28,10.67,8.44,16.46Zm6-224.94c-.76-3.28-4.71-4.48-8-5.1-13.58-2.54-27.17-5.07-40.84-7,5,1.77,9.19,5.37,13.1,9a22.18,22.18,0,0,1,4.23,4.85c1.65,2.84,1.58,6.27,2.2,9.49,5.43,28.31-6.12,56-5.65,84.07l.85,5a17.42,17.42,0,0,0,2.3,6.57,19.75,19.75,0,0,0,2.75,3.1,275.51,275.51,0,0,0,22.35,18.7,8,8,0,0,0,2.12,1.31,7.54,7.54,0,0,0,2.64.26l31.43-.46-3.86.17q7.6-.21,15.16-.94l.44-7.25c-5.06-11-16.77-17.07-26.61-24.2-17.35-12.56-31.54-30.77-38.08-51.16l-.55-3.7c-.72-2.79,1.07-5.53,2.76-7.86a25.82,25.82,0,0,1,3-3.56c4.3-4.07,11.71-4.62,17.56-5.47s12.37-2.75,15-8Zm-13.63-62.32-8-3.93a199.66,199.66,0,0,0-44.83,22.5l2,.69c12.83,7.09,27.37,10.47,41.86,12.63a34.75,34.75,0,0,0,10.42.43c3.45-.53,6.87-2.18,8.8-5.09ZM708,1896.45a205.28,205.28,0,0,1-8.74-30.72c-4.34-21.7-4.91-48.71-2.15-77h-1.77q-14.22,5.82-28.21,12.16L655.34,1823c0,8.21-5.11,15.46-7.26,23.38-1.66,6.09-1.53,12.5-1.39,18.81l1.44,13c-3.64,24-.61,48.43-.6,72.7,0,16.42-1.36,32.81-2.74,49.17-.67,8-1.45,16.28-5.68,23.06l-.72,4.15,5.48.13c2.83-1.24,6.49.1,9-1.69a10.61,10.61,0,0,0,2.28-2.74c5.29-7.61,14.6-11.19,23.45-14s18.24-5.47,24.7-12.13c2.93-3,5.19-6.79,8.78-9Zm212.81-1438,1.8,5.52c1.31,2.69,2.69,5.49,5,7.33,1.27,1,2.85,1.77,3.47,3.26a3.7,3.7,0,0,0,.7,1.45,3.21,3.21,0,0,0,1.51.52c2.28.49,3.87,2.55,4.95,4.62a29.68,29.68,0,0,1,2.54,18.91,46.47,46.47,0,0,1-7.61,17.73,79.81,79.81,0,0,0-4.58,7l-1.52,4c.09,3.06.17,6.11.26,9.17a26,26,0,0,0,1.08,8.11c1,2.83,2.95,5.21,4.31,7.88,2.77,5.45,3,11.78,3.17,17.89l-7.52-3.11C930.32,580,936.2,590.15,942,600l-6-.26c3.31,8.46,7,17.39,14.27,22.8q.64,7.79,1.81,15.52l23,36.37a38.1,38.1,0,0,1,20.6-1.28c-.8-1-.13-2.55,1-3.12a6.29,6.29,0,0,1,3.68-.3,27.4,27.4,0,0,1,1.28-15.44,18,18,0,0,1,10.72,10.38q2.22-4.51,4.73-8.89a14.28,14.28,0,0,1,6.12,8,22.62,22.62,0,0,1,2.91-7.25,31.25,31.25,0,0,1,3.82,19.74c-.23,1.64-.57,3.41.23,4.86a9.93,9.93,0,0,0,1.45,1.73c2.11,2.32,3.12,5.41,4.37,8.28A46.52,46.52,0,0,0,1053.93,712l1.3-.47-2.18-8.27-3.15-12c-3-11.46-6-22.92-9.47-34.26a8.47,8.47,0,0,0-1.14-2.63c-.59-.78-1.42-1.33-2-2.07-1.47-1.74-1.59-4.19-2.07-6.42-1.59-7.31-7.45-12.81-13-17.82l-1.71-1.77c-2.63-.73-5.23,1-7.82,1.89a12.53,12.53,0,0,1-8.9-.41,16.42,16.42,0,0,1-7.49,15.59c.08-2.87-2.17-5.17-3.55-7.69-2.09-3.82-2.19-8.37-2.23-12.73-5.55,3.14-7.15,10.42-11.66,14.92a7.89,7.89,0,0,1-3.21,2.08c-2.32.7-4.79-.23-7-1.14a2.88,2.88,0,0,1-1.53-1.07,2.92,2.92,0,0,1-.27-1.41l-.15-8.17a3.39,3.39,0,0,1-4.75-.64,5.08,5.08,0,0,1-.31-5.13l-2.11-.67a20.71,20.71,0,0,1,6.15-8.75,8.82,8.82,0,0,0,1.7-1.64,9.81,9.81,0,0,0,.91-1.94,8.05,8.05,0,0,1,4.2-4.72c2-.77,4.74.09,5.38,2.16a4.55,4.55,0,0,0,.38,1.11c.63,1,2.1.71,3.2.32a1.88,1.88,0,0,0,1.18-.83,1.94,1.94,0,0,0-.28-1.57,21.06,21.06,0,0,1,.38-18.82,15.73,15.73,0,0,1,11.54,12.4,30.05,30.05,0,0,1,20.09-8.12l1,.38a20.24,20.24,0,0,1-9.06,15l9.34,2.24a5.75,5.75,0,0,1,2.61,1.1,3.93,3.93,0,0,1,.87,4,11.63,11.63,0,0,1-2.22,3.71,32.59,32.59,0,0,1,17.2,13L1032.33,587a11.13,11.13,0,0,0-.64-4,10.4,10.4,0,0,0-2.44-3.17,71.28,71.28,0,0,0-12.44-9.71,6.09,6.09,0,0,0-2.76-1.11c-1.47-.09-2.79.81-4.17,1.3a8.06,8.06,0,0,1-9.9-4.69,5.32,5.32,0,0,1-5.14.4c-1-.45-1.75-1.18-2.68-1.65a16.34,16.34,0,0,0-3.91-1.1,20.49,20.49,0,0,1-15.36-20.66,11.53,11.53,0,0,1,1.39-5.09c2.56-4.36,8.34-5.33,13.38-5.83l5.26-.53A22.86,22.86,0,0,1,996,531a14.14,14.14,0,0,1,9.91,5.06,23.89,23.89,0,0,1,4.91,10.22,26.12,26.12,0,0,0,1.75,6c1,2,2.74,3.66,3.63,5.75a8.23,8.23,0,0,1,.49,4.73l.39.9a20.64,20.64,0,0,1,13.57,9c.68,1.07,1.63,2.37,2.86,2.08,1-.24,1.42-1.37,1.72-2.35a66.22,66.22,0,0,1,6.55-14.81l-1-1.12c-3.58-2.36-4.8-7.1-4.72-11.39a28.26,28.26,0,0,1,15.38-24.26c1.25-.62,3-1,3.84.09a7.17,7.17,0,0,1,.64,2.06c1.11,3.26,6.59,2.4,8.48,5.28a5.83,5.83,0,0,1,.75,3.11c.23,9.53-5.62,18.05-11.52,25.55-4.52,5.75-9.33,11.56-11.48,18.56-1.77,5.72-1.63,11.83-1.47,17.82.22,8.43.47,17,3.21,25A47.58,47.58,0,0,1,1059.33,590l1.7-.47a26.51,26.51,0,0,1,6.93-25,13.34,13.34,0,0,1,6.61-3.89,6.87,6.87,0,0,1,6.93,2.46c1.07-.9,2.38-1.87,3.74-1.52,1.56.4,2.19,2.29,2.18,3.89s-.37,3.29.23,4.78a28.52,28.52,0,0,1,9.22,1.42l.05,4a1.69,1.69,0,0,0,.21.95c.39.52,1.18.39,1.8.52,1.54.34,2,2.27,2,3.84a17.63,17.63,0,0,1-5.44,12.57c1.33-.11,2.18,1.64,1.72,2.89a5.72,5.72,0,0,1-2.86,2.68,60.43,60.43,0,0,1-28.7,7.58l-.32-2.66-.72-.38c-4.12-1.64-9,.71-11.6,4.28s-3.56,8.09-4.42,12.44l-1.42,7.17-2.53.32-.1,8.47a2.3,2.3,0,0,0,.23,1.25,3.27,3.27,0,0,0,1.16.9c2.76,1.79,2,5.89,1.87,9.18-.23,4.4,1.16,8.69,2.54,12.87a10.54,10.54,0,0,0,1.75,3.65,3.58,3.58,0,0,0,3.61,1.31,5.29,5.29,0,0,0,2.64-2.69l7.38-12.48c-6.44-.07-12-6.67-11-13a7,7,0,0,1,1.77-3.85,8.66,8.66,0,0,1,2.84-1.75,29.6,29.6,0,0,1,8.87-2.29l.69-.66c-.87-4.19-.11-8.52.64-12.72a9.61,9.61,0,0,1,1.13-3.54,5,5,0,0,1,4.13-1.62,4.45,4.45,0,0,1,2.53,2,25.08,25.08,0,0,1,4.6,11.35,3.24,3.24,0,0,1,4.06.69,8.7,8.7,0,0,1,6.47-4.53,1.47,1.47,0,0,0,1-.4,1.28,1.28,0,0,0,.11-1,11.53,11.53,0,0,1-.44-3.76c.21-1.26,1.38-2.48,2.61-2.16a2.89,2.89,0,0,1,1.68,1.8,10.21,10.21,0,0,1,.41,6.89,4,4,0,0,1,4,6.38,7.89,7.89,0,0,1,7.85,4c1.16-1.41,3.3-2.9,4.54-1.56a2.56,2.56,0,0,1,.52,1,6.09,6.09,0,0,1-1.31,5.75l0-.14a11.88,11.88,0,0,1,13.07,13.53c-7.93-2.86-16.52,4.9-24.68,2.82,1.59-.45,3.25.8,3.85,2.34a10.08,10.08,0,0,1,.24,4.89l-1.27,10.9a1.79,1.79,0,0,1-.42,1.16,1.81,1.81,0,0,1-1.57.2l-3.2-.56c-4.67-.83-9.53-1.74-13.35-4.55s-6.25-8.13-4.25-12.43l-.48-1.66c-4.67-.12-9.12,2.33-12.37,5.69s-5.47,7.56-7.5,11.77a30.83,30.83,0,0,0-2.94,8c-.88,5.11.64,10.3,2.15,15.27l8.09,26.58a13,13,0,0,1,20.33.46c2.88,3.79,3.5,8.92,6.34,12.75.1-8.53.74-18.12,7.15-23.75,1.88-1.64,4.34-3.11,4.73-5.58a33.58,33.58,0,0,1,4,22.14,4.58,4.58,0,0,1,4.85,3.41l4.49-1.9,2.71-.55a10.84,10.84,0,0,1,8.92,2.51,8.35,8.35,0,0,1,2.33,8.74,11.48,11.48,0,0,1-4.55,5.19,26,26,0,0,1-16.07,4.44c6.51,7.22,5.69,19.8-1.7,26.12a15.36,15.36,0,0,0-11.53-14.25c-4.19,4.27-4.91,11-3.35,16.81s5,10.81,8.48,15.71l13.29,3.31a73.69,73.69,0,0,0,26.77,5.93c4.21.13,8.46-.1,12.62.61a42.87,42.87,0,0,1,11.62,4.08c17.87,8.79,33.22,24.93,36.17,44.63a82.43,82.43,0,0,1,.26,17.63,307.89,307.89,0,0,1-7.55,50.25c-1.37,5.81-2.94,11.66-6,16.78s-7.29,9.08-11.57,13c-11.85,11-24,21.61-36.15,32.24l-10.1,14.44L1110,1021.76l-10.71,10.77c-2.94,3-5.87,5.92-8.81,8.88l-10,10a10,10,0,0,1-3.06,2.37,11.28,11.28,0,0,1-4.18.56,42.81,42.81,0,0,0-13.39,2.53l-29.75,5.31q-6,17.51-11.89,35a9,9,0,0,1-1.26,2.67,9.69,9.69,0,0,1-1.66,1.54c-9.14,7.31-15.4,17.59-20.64,28s-9.66,21.39-16.07,31.19a180.29,180.29,0,0,1-13.6,17.48l21.52,31.08c5.09,7.36,10.21,14.75,14,22.87l16.18,1.46,5.91,1c10.64-3.18,21.68,3,32.77,3.72,6.19.39,12.4-1,18.6-.54,12.61.9,23.65,9.1,36.14,11l8.34,6c5.45,2.9,12,.79,18.13-.24,9.8-1.67,19.83-.32,29.68,1a79.33,79.33,0,0,1,13.28,2.59c8,2.51,14.9,7.42,21.7,12.25,2.85,2,5.7,4,8.53,6.12,16.5,12.08,32,25.46,47.14,39.24,2.25,2,4.7,4.65,4.23,7.67-.07.43-.32,1-.76.94a.28.28,0,0,1-.27-.27l-.87,1.09c-.31.75.9,1.11,1.71,1.13,3,.06,5.62,2,8,3.88l15,11.76a24.13,24.13,0,0,0-9.23.27,88.64,88.64,0,0,0-30,11.25,11.25,11.25,0,0,1-3.57,1.65c-5,1-8.86-5.07-13.93-5.31l-.59.81a12.78,12.78,0,0,0-6.26,6.59l-5-7.27.27,3.46a40,40,0,0,0-12.4-2.63,18.93,18.93,0,0,0-12,3.57c-3-3.7-7.86-5.4-12.58-6.09s-9.54-.55-14.24-1.41l-2.93,1.44c4,12.69,10.56,24.4,17.06,36l20,35.79a80.63,80.63,0,0,1,6.68,14l9.43,41.55c5.43,12.09,15.48,21.37,25.27,30.29,6.34,5.78,12.9,11.7,21,14.59,6.26,2.24,14,3.12,17.3,8.88l23.06,1.8c.54-2.83,4.45-3.17,7.3-2.69,12.84,2.19,25.31,7.21,38.33,7,3.82,0,7.64-.55,11.44-.15,4.68.5,9.1,2.35,13.44,4.17,13.59,5.73,27.74,11.85,37.11,23.24l16.78,13.79,7.55-4.73c33,12.5,67.33,24.4,102.6,23.08,10.71-.41,22-1.91,31.63,2.88l2.69,3.5,7.61,7.17a57.94,57.94,0,0,1,22.4-24.6c5.89-3.52,12.36-6,18.78-8.37l7.49-2.82a49.36,49.36,0,0,1,10.36,19l10.32,39.65a157.27,157.27,0,0,0,16.75,27.91l3.94,4.81a12.69,12.69,0,0,1,14-7.42,2.86,2.86,0,0,1,.95.35,2.8,2.8,0,0,1,.9,1.21c1.29,2.67,2.3,6,5.14,6.93a5.45,5.45,0,0,1,1.92.69,3.37,3.37,0,0,1,.8,2.77l-.14,7.25.62,6.27,13.92,1.1a5.24,5.24,0,0,1,1.93.4,5.39,5.39,0,0,1,1.51,1.31l6.31,7.07a16.26,16.26,0,0,1,3.11,4.41,16.08,16.08,0,0,1,.76,6.74l.17,2.37a150,150,0,0,1,12.93,14.88l9.44,2.53,15.73-1a8.24,8.24,0,0,0,3.52-.74c.85-.46,1.53-1.22,2.42-1.61,2.37-1,4.86.94,6.92,2.48a28.09,28.09,0,0,0,12.44,5.22c-.93-2.3-1.55-5.57.64-6.74,1.26-.67,2.8-.2,4.1.36a34.17,34.17,0,0,1,9.72,6.38c3.5,3.29,6.5,7.45,11,9.08l13.08,14.93q56.89-1.23,113.59-6.91c15.12-1.52,30.54-3.36,44.26-9.88,15.47-7.35,27.61-20.07,39.23-32.65,15.38-16.65,30.72-33.88,40.17-54.49,7-15.3,10.53-31.93,13.92-48.42,4.75-23.11,9.38-46.6,7.58-70.12-1-13.67-4.24-27.06-6.79-40.52-9.43-49.78-10.11-100.75-10.75-151.41L2048.77,1304c-13.48-13.87-29.35-25.17-45.28-36.15q-35.74-24.62-72.58-47.58c-7.14-4.45-14.32-8.86-21.85-12.6-5.83-2.89-11.85-5.37-17.87-7.85q-15.66-6.46-31.34-12.89c-6-2.47-12-4.93-17.94-7.71-14.16-6.69-28.18-15.44-43.84-15.7l-10.58-.34c-8.31.61-16.36-4.21-24.64-3.33a3.68,3.68,0,0,1-1.84-.08,3.33,3.33,0,0,1-1.27-1.15l-10.33-13.28-2.43-17-3.78-14.57c-1.53-5.92-3.08-12.06-2-18.08l-1.86-10.44a30.08,30.08,0,0,1-21.31-13.93,193.2,193.2,0,0,0,25.82-9.67c-1.43-6.07.68-12.37,3.06-18.13s5.12-11.64,5-17.87a13.52,13.52,0,0,0,7.94,8.24l2.59-25.66,1.53-33.2c.27-5.93.82-12.48,5.12-16.56a18.12,18.12,0,0,1,7.43-3.89,40.77,40.77,0,0,1,28.92,2.19l5.93,5.83a10.88,10.88,0,0,0,12.31-2.46c.32-.35.7-.76,1.17-.67a1.32,1.32,0,0,1,.56.32,12.38,12.38,0,0,1,3.93,6.42l17.35.4c1.8-1.79,3.69-3.51,5.65-5.15a6.82,6.82,0,0,1,2.8-1.64c2-.43,3.89.87,5.5,2.1,6.39,4.87,12.84,9.79,18,15.92,2,2.41,3.88,5,6,7.33a37.89,37.89,0,0,0,11.27,8.43l5.38,3.94,21.82,14.85c16,10.91,32.12,21.85,49.4,30.66l20,5.1c26.47-4.53,52.74-12.6,75.08-27.49s40.51-37.18,46.69-63.31c3.39-14.36,3.12-29.31,2.83-44.07l-1.55-78.66c-.17-8.59-.36-17.29-2.61-25.59-7-26-32.08-42.25-55.18-56.06l-59.13-35.35c-6.26-3.74-12.76-7.71-16.58-13.92-5.75-9.36-4.06-21.29-2.19-32.11,15.58-90.15,30.29-181.35,25-272.68-.77-13.23-2-26.76-7.7-38.74-7-14.76-20.39-26.61-23.49-42.64-2.14-11.07,1-22.46.57-33.73A52.86,52.86,0,0,0,1959.06,249l-17.29-4.64a397.87,397.87,0,0,1-68.21,22.37c-10.66,2.45-21.45,4.48-31.84,7.92-25.64,8.5-47.62,25.21-69.08,41.63l-9.89,10.33c-5.65,7.92-8.51,17.42-12.08,26.46s-8.25,18.17-16.23,23.72l9.51-1.08a103.06,103.06,0,0,1-36.89,35.8l9.61.67a87.91,87.91,0,0,1-32.29,20.35l-9.64,20.22c-2.33,1.56-3.3,4.46-4.06,7.17a225.36,225.36,0,0,0-8.3,69.65l-1.27,13.49a24.85,24.85,0,0,1,16.17,17.17,37,37,0,0,1,7-9.19,11.93,11.93,0,0,1,4.49-3,9.52,9.52,0,0,1,5.94.25,12.6,12.6,0,0,1,8.46,10.13c.51,4.61-2.36,9.51-6.77,10.93a9.05,9.05,0,0,1,6.37,4.57c.68-2.29,1.86-5,4.23-5.21,2.06-.19,3.74,1.76,4.29,3.75s.35,4.1.74,6.13a16.59,16.59,0,0,1,14,15.54l5.62-1.75a65.38,65.38,0,0,1-13.73,49.71,49,49,0,0,1-16.21,13.41,33.17,33.17,0,0,1-20.6,3.16l-1.19,14.69c4.61,3.46,11.08,1.76,16.67.33,7.68-2,16.09-3.06,23.32.19,5.17,2.32,9.17,6.61,12.7,11,1.66,2.07,3.25,4.21,4.76,6.39a15.19,15.19,0,0,1,2.21,4,16.38,16.38,0,0,1,.47,5.09c-.08,5.18-.15,10.4-1.35,15.44a60.6,60.6,0,0,1-2.72,8.2,31.9,31.9,0,0,1-3.48,7,17.67,17.67,0,0,1-15.5,7.26l-53,54.84a14,14,0,0,1-7.25,6.66c-2.19.86-4.56,1.15-6.79,1.88a36.78,36.78,0,0,0-6.4,3.05L1595,832.09l-71.66,8.2c-7.88,1.18-14.94,5.33-22.07,8.9s-15,6.69-22.86,5.57a4.83,4.83,0,0,0-3.09-9.12l-.27-12.17q-4.52-22.23-7.63-44.72c-1-7-1.82-14-1.09-21l-4.3-2.17-19.69-.26-7.3,7a210.75,210.75,0,0,1-25.5-3.67,18.15,18.15,0,0,1-5.82-1.93,18.46,18.46,0,0,1-5.07-5.16q-6-8.1-11.48-16.63a18,18,0,0,1-2.22-4.37,18.44,18.44,0,0,1-.2-7c.83-8.31,1.87-17.14,7.13-23.63l6.63-5.07c1-2.55,2.13-5.06,3.27-7.56,1.27-2.79,2.54-5.58,4-8.27a24.38,24.38,0,0,1,5.34-7.17l6.22-6.42a113,113,0,0,0,16.52-10c2.13-1.55,4.27-3.25,5.46-5.6,2.09-4.15.6-9.36-2.28-13s-6.92-6.17-10.69-8.9c-11.29-8.21-20.54-18.87-29.43-29.64-12-14.52-23.56-29.45-36.92-42.72a217.68,217.68,0,0,0-27.16-22.92l-8.87-7a31.3,31.3,0,0,0-26.44-10c-5.21.6-10.67,2.51-15.53.53a6.92,6.92,0,0,0-3.14-.91c-1.27.11-2.3,1.13-3.55,1.34a5.6,5.6,0,0,1-2.91-.56,50.59,50.59,0,0,1-16.61-10.92c-3.3-3.27-6.32-7.12-10.65-8.83l-12-10q-4.46-7.39-8.9-14.79a122.68,122.68,0,0,1-6.31-11.38c-1.76-3.77-3.25-7.87-6.41-10.58l-4-6.55a216.63,216.63,0,0,0-3.7-63.81,87.4,87.4,0,0,0-3.24-12c-4.78-13.19-14.59-24.82-15.58-38.8a12,12,0,0,1,.35-4.43c1.21-3.77,5.16-5.83,8.76-7.5l13.3-7.17,11.75-29.77a190.18,190.18,0,0,0-14.31-100.11c-8.85-20.2-21.15-38.67-33.38-57L1132.7,74.33C1126,64.2,1119,53.87,1109.37,46.45,1084,27,1043.61,34.4,1024,59.64c-29,37.27-14,95.91-43.08,133.12-10.49,13.45-25.64,22.44-37.38,34.81-20.24,21.33-29,51.58-29.39,81s7,58.32,15.35,86.5Z"></path>
    <path data-name="4" data-official="Cookia punctata" data-plain="Wampee" data-loc="China" d="M724.61,855.24a32.54,32.54,0,0,1,3.44-16.2l4.28-15.86a25.37,25.37,0,0,1,.47-14.29,9.82,9.82,0,0,1,2.71-4.53,12.64,12.64,0,0,1,4.65-2.08,178.19,178.19,0,0,0,33.78-13.88l11.22-14.91c22.79-21,53.56-30.61,83.49-38.59,16.29-4.34,32.94,1.51,47.31-7.3,24.39-15,39.85-43.42,39.1-72l-3-17.51,23,36.37a38.1,38.1,0,0,1,20.6-1.28c-.8-1-.13-2.55,1-3.12a6.29,6.29,0,0,1,3.68-.3,27.4,27.4,0,0,1,1.28-15.44,18,18,0,0,1,10.72,10.38q2.22-4.51,4.73-8.89a14.28,14.28,0,0,1,6.12,8,22.62,22.62,0,0,1,2.91-7.25,31.25,31.25,0,0,1,3.82,19.74c-.23,1.64-.57,3.42.23,4.86a9.93,9.93,0,0,0,1.45,1.73c2.11,2.32,3.12,5.41,4.37,8.28A46.52,46.52,0,0,0,1053.93,712l1.3-.47c-.73-2.76-1.46-5.51-2.18-8.27l-3.15-12c-3-11.46-6-22.92-9.47-34.26a8.47,8.47,0,0,0-1.14-2.63c-.59-.78-1.42-1.33-2-2.07-1.47-1.74-1.59-4.19-2.07-6.42-1.59-7.31-7.45-12.81-13-17.82l-1.71-1.77c-2.63-.73-5.23,1-7.82,1.89a12.53,12.53,0,0,1-8.9-.41,16.42,16.42,0,0,1-7.49,15.59c.08-2.87-2.17-5.17-3.55-7.69-2.09-3.82-2.19-8.37-2.23-12.73-5.55,3.14-7.15,10.42-11.66,14.92a7.89,7.89,0,0,1-3.21,2.08c-2.32.7-4.79-.23-7-1.14a2.88,2.88,0,0,1-1.53-1.07,2.92,2.92,0,0,1-.27-1.41l-.15-8.17a3.39,3.39,0,0,1-4.75-.64,5.08,5.08,0,0,1-.31-5.13l-2.11-.67a20.71,20.71,0,0,1,6.15-8.75,8.82,8.82,0,0,0,1.7-1.64,9.81,9.81,0,0,0,.91-1.94,8.05,8.05,0,0,1,4.2-4.72c2-.77,4.74.09,5.38,2.16a4.55,4.55,0,0,0,.38,1.11c.63,1,2.1.71,3.2.32a1.88,1.88,0,0,0,1.18-.83,1.94,1.94,0,0,0-.28-1.57,21.06,21.06,0,0,1,.38-18.82,15.73,15.73,0,0,1,11.54,12.4,30.05,30.05,0,0,1,20.09-8.12l1,.38a20.24,20.24,0,0,1-9.06,15l9.34,2.24a5.75,5.75,0,0,1,2.61,1.1,3.93,3.93,0,0,1,.87,4,11.63,11.63,0,0,1-2.22,3.71,32.59,32.59,0,0,1,17.2,13L1032.33,587a11.13,11.13,0,0,0-.64-4,10.4,10.4,0,0,0-2.44-3.17,71.28,71.28,0,0,0-12.44-9.71,6.09,6.09,0,0,0-2.76-1.11c-1.47-.09-2.79.81-4.17,1.3a8.06,8.06,0,0,1-9.9-4.69,5.32,5.32,0,0,1-5.14.4c-1-.45-1.75-1.18-2.68-1.65a16.34,16.34,0,0,0-3.91-1.1,20.49,20.49,0,0,1-15.36-20.66,11.53,11.53,0,0,1,1.39-5.09c2.56-4.36,8.34-5.33,13.38-5.83l5.26-.53A22.86,22.86,0,0,1,996,531a14.14,14.14,0,0,1,9.91,5.06,23.89,23.89,0,0,1,4.91,10.22,26.12,26.12,0,0,0,1.75,6c1,2,2.74,3.66,3.63,5.75a8.23,8.23,0,0,1,.49,4.73l.39.9a20.64,20.64,0,0,1,13.57,9c.68,1.07,1.63,2.37,2.86,2.08,1-.24,1.42-1.37,1.72-2.35a66.22,66.22,0,0,1,6.55-14.81l-1-1.12c-3.58-2.36-4.8-7.1-4.72-11.39a28.26,28.26,0,0,1,15.38-24.26c1.25-.62,3-1,3.84.09a7.17,7.17,0,0,1,.64,2.06c1.11,3.26,6.59,2.4,8.48,5.28a5.83,5.83,0,0,1,.75,3.11c.23,9.53-5.62,18.05-11.52,25.55-4.52,5.75-9.33,11.56-11.48,18.56-1.77,5.72-1.63,11.83-1.47,17.82.22,8.43.47,17,3.21,25A47.58,47.58,0,0,1,1059.33,590l1.7-.47a26.51,26.51,0,0,1,6.93-25,13.34,13.34,0,0,1,6.61-3.89,6.87,6.87,0,0,1,6.93,2.46c1.07-.9,2.38-1.87,3.74-1.52,1.56.4,2.19,2.29,2.18,3.89s-.37,3.29.23,4.78a28.52,28.52,0,0,1,9.22,1.42c0,1.34,0,2.68.05,4a1.69,1.69,0,0,0,.21.95c.39.52,1.18.39,1.8.52,1.54.34,2,2.27,2,3.84a17.63,17.63,0,0,1-5.44,12.57c1.33-.11,2.18,1.64,1.72,2.89a5.72,5.72,0,0,1-2.86,2.68,60.43,60.43,0,0,1-28.7,7.58c-.1-.89-.21-1.78-.32-2.66l-.72-.38c-4.12-1.64-9,.71-11.6,4.28s-3.56,8.09-4.42,12.44c-.47,2.39-1,4.78-1.42,7.17l-2.53.32c0,2.82-.07,5.65-.1,8.47a2.3,2.3,0,0,0,.23,1.25,3.27,3.27,0,0,0,1.16.9c2.76,1.79,2,5.89,1.87,9.18-.23,4.4,1.16,8.69,2.54,12.87a10.54,10.54,0,0,0,1.75,3.65,3.58,3.58,0,0,0,3.61,1.31,5.29,5.29,0,0,0,2.64-2.69l7.38-12.48c-6.44-.07-12-6.67-11-13a7,7,0,0,1,1.77-3.85,8.66,8.66,0,0,1,2.84-1.75,29.6,29.6,0,0,1,8.87-2.29l.69-.66c-.87-4.19-.11-8.52.64-12.72a9.61,9.61,0,0,1,1.13-3.54,5,5,0,0,1,4.13-1.62,4.45,4.45,0,0,1,2.53,2,25.08,25.08,0,0,1,4.6,11.35,3.24,3.24,0,0,1,4.06.69,8.7,8.7,0,0,1,6.47-4.53,1.47,1.47,0,0,0,1-.4,1.28,1.28,0,0,0,.11-1,11.53,11.53,0,0,1-.44-3.76c.21-1.26,1.38-2.48,2.61-2.16a2.89,2.89,0,0,1,1.68,1.8,10.21,10.21,0,0,1,.41,6.89,4,4,0,0,1,4,6.38,7.89,7.89,0,0,1,7.85,4c1.16-1.41,3.3-2.9,4.54-1.56a2.56,2.56,0,0,1,.52,1,6.1,6.1,0,0,1-1.19,5.6,11.87,11.87,0,0,1,12.92,13.54c-7.25-2.61-15,3.64-22.57,3.14a4,4,0,0,1,1.74,2,10.08,10.08,0,0,1,.24,4.89q-.63,5.44-1.27,10.9a1.79,1.79,0,0,1-.42,1.16,1.81,1.81,0,0,1-1.57.2l-3.2-.56c-4.67-.83-9.53-1.74-13.35-4.55s-6.25-8.13-4.25-12.43l-.48-1.66c-4.67-.12-9.12,2.33-12.37,5.69s-5.47,7.56-7.5,11.77a30.83,30.83,0,0,0-2.94,8c-.88,5.11.64,10.3,2.15,15.27q4,13.29,8.09,26.58a13,13,0,0,1,20.33.46c2.88,3.79,3.5,8.92,6.34,12.75.1-8.53.74-18.12,7.15-23.75,1.88-1.64,4.34-3.11,4.73-5.58a33.58,33.58,0,0,1,4,22.14,4.58,4.58,0,0,1,4.85,3.41l4.49-1.9,2.71-.55a10.84,10.84,0,0,1,8.92,2.51,8.35,8.35,0,0,1,2.33,8.74,11.48,11.48,0,0,1-4.55,5.19,26,26,0,0,1-16.07,4.44c6.51,7.22,5.69,19.8-1.7,26.12a15.36,15.36,0,0,0-11.53-14.25c-4.19,4.27-4.91,11-3.35,16.81s5,10.81,8.48,15.71l13.29,3.31a73.69,73.69,0,0,0,26.77,5.93c4.21.13,8.46-.1,12.62.61a42.87,42.87,0,0,1,11.62,4.08c17.87,8.79,33.22,24.93,36.17,44.63a82.43,82.43,0,0,1,.26,17.63,307.89,307.89,0,0,1-7.55,50.25c-1.37,5.81-2.94,11.66-6,16.78s-7.29,9.08-11.57,13c-11.85,11-24,21.61-36.15,32.24l-10.1,14.44L1110,1021.76l-10.71,10.77c-2.94,3-5.87,5.92-8.81,8.88l-10,10a10,10,0,0,1-3.06,2.37,11.28,11.28,0,0,1-4.18.56,42.81,42.81,0,0,0-13.39,2.53l-29.75,5.31q-6,17.51-11.89,35a9,9,0,0,1-1.26,2.67,9.69,9.69,0,0,1-1.66,1.54c-9.14,7.31-15.4,17.59-20.64,28s-9.66,21.39-16.07,31.19a180.29,180.29,0,0,1-13.6,17.48l21.52,31.08c5.09,7.36,10.21,14.75,14,22.87l16.18,1.46c-12.22,2.58-24.58,4.56-37,5.93l-1.1-3a75.29,75.29,0,0,0-25.21,12.35l-.83.44a33.39,33.39,0,0,0-3.48-4.21,2.72,2.72,0,0,0-1.15-.81c-.88-.25-1.74.38-2.47.93-3.85,2.94-8.35,4.91-12.27,7.76s-7.36,7-7.58,11.81l-7.1-6.59c-4.56,7-9.17,14-11.63,22a63.1,63.1,0,0,0-2.23,11.15,24.47,24.47,0,0,1-7.25,0,92.72,92.72,0,0,0-.82,21.89c.07.8.86,1.87,1.38,1.27a74.29,74.29,0,0,0,1.77,14.7,8.31,8.31,0,0,0,1.6,3.85,3,3,0,0,0,3.78.74l.6.91a51.19,51.19,0,0,0,18.9,25.2c4.41,3.1,9.65,5.89,11.51,10.95.5,1.36.86,3,2.15,3.64s3-.61,3.2-2c1.42,7.34,3.11,14.85,7.6,20.79a7.89,7.89,0,0,1,1.47,2.41,7.43,7.43,0,0,1,.18,2.21,47.26,47.26,0,0,0,.79,9.27l.13,1c-1.13,2.49-.28,5.38.5,8a136.17,136.17,0,0,1,5.55,43.78c-9.61-15.6-27.52-27.72-45.84-27.9l-1.56-5c-68.58-105.39-80.35-250.69-70.45-381.13l1.36-2.31c1.87-4.4,1.79-9.5,4-13.74,1.68-3.21,4.51-5.63,7-8.26a49.34,49.34,0,0,0,11-18.65l-1.29-16q1.84-5.07,3.68-10.13a17.81,17.81,0,0,1,1.19-2.81c1.78-3.19,5.36-5.27,6.52-8.73l2.35-4.71c9.25-20.61,8-44.2,6.62-66.76l-5.56-9.35-.42-24.24a17,17,0,0,1,.29-4.34c.87-3.56,3.87-6.14,6.71-8.46l5.22-3.83a75.59,75.59,0,0,1,13.74-28.06c4-5.14,8.79-9.88,11.29-15.91a24.69,24.69,0,0,0-.94-20.6,38.2,38.2,0,0,0-6.37-8.41,29.92,29.92,0,0,0-7.68-6.19c-3.77-1.94-8.09-2.49-12.13-3.8-3.87-1.26-7.51-3.22-11.44-4.3-5.07-1.4-10.43-1.28-15.69-1.16-6.53.16-13.07.33-19.57.9-7.18.64-14.6,1.91-20.44,6.13s-9.36,10.79-15.25,14.74c-3,2-6.37,3.21-9.25,5.29s-5.28,5.44-4.74,9c.68,4.37,5.27,6.78,9.15,8.89,14.49,7.92,25.63,20.66,36.45,33.14l4.25,4.4c5.94,4.47,10,11.16,12.11,18.29s2.41,14.7,1.83,22.11l-9,2.42a97,97,0,0,1-57.48,12c-12.1-1.25-23.84-4.79-35.32-8.82-4.47-1.57-9-3.26-12.72-6.18l-10.52-1.77a12.12,12.12,0,0,1-1.51-3.89A74.65,74.65,0,0,1,724.61,855.24Zm85.56,226.65c-1.15-5.57-2.56-11.09-4-16.59-5-19-11-38.92-25.7-51.94-3.89,12-7.79,24.06-10.2,36.45a157.12,157.12,0,0,0,3.29,73.33,67.38,67.38,0,0,0,5.45,14,75.29,75.29,0,0,0,8.38,11.58,300.49,300.49,0,0,0,28.66,29.75l-1.9-4.63C815.37,1143.08,816.42,1112,810.17,1081.89Zm-98.09,906,12.66,1.61a258.54,258.54,0,0,1,35.31-8.82s-33.38-33.49-52-84.23Zm522.52-110.13c-4.32,14.45-15.09,25.92-25.52,36.82l-33.38,34.87c-3.88,4.06-7.86,8.26-9.8,13.52l-3.33,12.55c-1.82,3.33-2.29,7.19-2.74,11q-.49,4.23-1,8.44c-1.09,9.23-2,19.27,2.88,27.17l4.41,4.75c10-11,20.15-22,32.12-30.87,10-7.34,21.07-13,30.89-20.57s18.57-17.44,21.17-29.54l2.55-11.75c.6-10.36.87-20.88-1.57-31S1243.35,1883.33,1234.6,1877.76Zm504.71-792.5,1.86,10.44c-1.05,6,.5,12.16,2,18.08l3.78,14.57,2.43,17,10.33,13.28a3.33,3.33,0,0,0,1.27,1.15,3.68,3.68,0,0,0,1.84.08c8.28-.88,16.33,3.94,24.64,3.33l10.58.34c15.66.26,29.68,9,43.84,15.7,5.89,2.78,11.91,5.24,17.94,7.71q15.68,6.42,31.34,12.89c6,2.48,12,5,17.87,7.85l14-195.31-21.82-14.85-5.38-3.94a37.89,37.89,0,0,1-11.27-8.43c-2.13-2.33-4-4.92-6-7.33-5.18-6.13-11.63-11.05-18-15.92-1.61-1.23-3.51-2.53-5.5-2.1a6.82,6.82,0,0,0-2.8,1.64c-2,1.64-3.85,3.36-5.65,5.15l-17.35-.4a12.38,12.38,0,0,0-3.93-6.42,1.32,1.32,0,0,0-.56-.32c-.47-.09-.85.32-1.17.67a10.88,10.88,0,0,1-12.31,2.46l-5.93-5.83a40.77,40.77,0,0,0-28.92-2.19,18.12,18.12,0,0,0-7.43,3.89c-4.3,4.08-4.85,10.63-5.12,16.56l-1.53,33.2-2.59,25.66a13.52,13.52,0,0,1-7.94-8.24c.12,6.23-2.62,12.11-5,17.87s-4.49,12.06-3.06,18.13a193.2,193.2,0,0,1-25.82,9.67A30.11,30.11,0,0,0,1739.31,1085.26Zm-540.64,334.88-20-35.79c-6.5-11.62-13.05-23.33-17.06-36l2.93-1.44a33.71,33.71,0,0,1-16.29-8c-2-1.84-3.88-3.94-6.09-5.59a11,11,0,0,0-7.65-2.56c-3.31.36-6,2.85-7.9,5.59s-3.21,5.86-5.23,8.5l-43.21-6.7c-1-1.17-1.59-2.59-2.44-3.85a5.57,5.57,0,0,0-3.56-2.65,7,7,0,0,0-4.22,1.22,11.71,11.71,0,0,0-3.15,2.17,10.55,10.55,0,0,1-1.38,1.45,5.41,5.41,0,0,1-2.5.75l-13.1,1.7-2-1.63c-7,.39-14.71.61-20.46-3.48a9.75,9.75,0,0,0-3-1.77,7.13,7.13,0,0,0-3.08.09c-11.54,2.17-22.66,7.88-34.36,6.91l-.39.64c-1.47,3.29-5.33,4.82-8.92,5.21a6.57,6.57,0,0,0-2.78.66,5.53,5.53,0,0,0-1.73,2,85.21,85.21,0,0,0-12,33.53,33.88,33.88,0,0,0-.09,10.3c1,5.47,4.13,10.51,4.27,16.07l-.22,1.83q2.45,10.44,4.9,20.87c6,25.44,12,51.65,7.89,77.45a1.39,1.39,0,0,1-.52.83l1,.12a9.22,9.22,0,0,1,6.28.21,39.08,39.08,0,0,1,5.09,3.1c5.67,3.43,12.71,3.38,19.33,3.23l9.28-1.12c21.95-1.77,44-2.36,66-1.94,8.07.15,16.29.46,23.89,3.16,6.88,2.44,12.92,6.72,18.87,10.95l9.35,2.33a48.63,48.63,0,0,1,13,6.49l.62,8.13c2.78,10.09,13.2,16.65,22,22.3,17.69,11.36,32,26.17,45.64,42.19l7.55-.51a84.59,84.59,0,0,1,25.93,32.78l-34.71-75.69a37.37,37.37,0,0,1-2-14.54l88.85-18.38-23.06-1.8c-3.32-5.76-11-6.64-17.3-8.88-8.07-2.89-14.63-8.81-21-14.59-9.79-8.92-19.84-18.2-25.27-30.29l-9.43-41.55A80.63,80.63,0,0,0,1198.67,1420.14ZM264.54,2107.58l18.26,45,6.53-4.64c8.28-2.82,16.75-5.75,23.58-11.21,2.27-1.83,4.33-3.9,6.62-5.7,4.94-3.87,10.81-6.34,16.16-9.61,11.07-6.77,19.77-16.91,30.77-23.78,12.39-7.73,27-10.92,40.4-16.72,3.05-1.32,6.07-2.79,9.33-3.41a37.84,37.84,0,0,1,8.58-.32l11.72-2.33c9.23.27,18.55.53,27.62-1.17a47.38,47.38,0,0,1,7.92-1.21,44.14,44.14,0,0,1,6.68.62c12.21,1.59,24.59.39,36.84-.81l20.33,9.25L552.3,2080c2.62-.25,5.34-.52,7.63-1.84,1.45-.83,2.66-2,4.13-2.87,1.77-1,3.82-1.34,5.68-2.15,3.33-1.44,5.85-4.22,8.27-6.92l9.16-9.3a30.93,30.93,0,0,1,15.74-10.31c1.73-.48,3.51-.81,5.2-1.41a34.86,34.86,0,0,0,7.31-4q11.22-7.37,23-13.89l.72-4.15c4.23-6.78,5-15.09,5.68-23.06,1.38-16.36,2.75-32.75,2.74-49.17,0-24.27-3-48.71.6-72.7l-1.44-13c-.14-6.31-.27-12.72,1.39-18.81,2.15-7.92,7.27-15.17,7.26-23.38l11.79-22.08q14-6.35,28.21-12.16h1.77c5.83-59.69,26.51-125.06,58-158.26,46.4-48.94,135.47-103.09,199.59-103.09l-.71-1.81c-11-2.95-19.86-10.83-27.8-18.95-7.54-7.73-14.62-15.9-21.69-24.06-4.52-5.22-9.32-11.21-8.88-18.09l-.28-.25c-8.56,3.89-14.5,11.87-19.18,20s-8.58,16.87-14.8,23.91c-2.28,2.59-5,5-8.25,6s-7.26.54-9.59-2a14.38,14.38,0,0,1-1.81-2.73l-1.92-.17c-5.15,5.38-12.14,8.61-19.19,11-10.36,3.53-21.59,5.51-32.26,3.06-5.46-1.25-10.59-3.62-15.62-6.09-6.9-3.39-14-7.26-18.24-13.66-1.5-2.25-2.88-5-5.48-5.75-2-.58-4.73,0-5.72-1.89s1.24-4,3-5.46c2-1.74,3.62-4.3,3.29-7s-3.28-4.93-5.72-3.84a7.05,7.05,0,0,1,1.54-10.07c1.44-.91,3.17-1.25,4.66-2.08s2.79-2.47,2.33-4.11c-.59-2.14-3.82-3.17-3.55-5.38.17-1.42,1.76-2.16,2.64-3.29,1-1.32,1.07-3.13,1-4.8s-.08-3.45.85-4.84,3.23-1.93,4.22-.59c3.32-9.89,12.47-16.82,22.17-20.65,17.49-6.9,39-4.87,53,7.63a43.25,43.25,0,0,1-2.71-14.89c0-3,.94-6.85,3.93-7.41,2.11-.4,4,1.11,5.71,2.47a114.14,114.14,0,0,0,42.33,22s-65.27-107.58-63.89-219.58l-.49-.93c-7-1.8-12.43-7.57-16-13.9s-5.6-13.38-8.53-20a82.47,82.47,0,0,0-20.49-28.17c-4.93-4.39-10.41-8.23-14.61-13.32s-6.94-11.28-10.11-17.11c-4.23-7.77-9.32-15.06-13.13-23-2.93-6.14-5.07-12.63-7.8-18.86-10.08-23-28-41.91-48.34-56.71s-43.07-25.83-65.75-36.66l-.71-.08c-.14-1.87-.27-3.75-.41-5.62-7.11,4.67-12.65,11.33-18.08,17.89-2.28,2.75-4.62,5.61-5.58,9a10.63,10.63,0,0,0-2.38-7.7l.48,1a16.8,16.8,0,0,1-2.9,7.82,51.61,51.61,0,0,1-17.87,17.47,42.81,42.81,0,0,1-.94-8.89,50.38,50.38,0,0,0-9,11.27,31.08,31.08,0,0,1-3.49,5.32,23.37,23.37,0,0,1-4.85,3.75q-6.43,4.15-12.89,8.29a40.9,40.9,0,0,1-9.8,5.12,41.91,41.91,0,0,1,.4-12l-1.57.61a16.42,16.42,0,0,0-3.43,5.64,22.15,22.15,0,0,1-1.67,4.37,13.3,13.3,0,0,1-3.6,3.45q-2.44,1.83-4.9,3.65a22.82,22.82,0,0,1-7.21,4.1c-2.68.75-5.86.35-7.73-1.71-1.55-1.69-1.92-4.12-2.31-6.38a90,90,0,0,0-2.26-9.85l-.79.5c-.6,3.44-1.28,7-3.53,9.72-2.39,2.84-6.1,4.09-9.44,5.7A39.33,39.33,0,0,0,466,1065.2a35.34,35.34,0,0,1-.89-14.86c-1.28,3.94-5,6.46-8.54,8.67l-19.6,12.37a39.62,39.62,0,0,1,1-11.74l-.61,1.12a94.44,94.44,0,0,1-19.45,14,3.52,3.52,0,0,1-2,.61,2.49,2.49,0,0,1-2-2.25,7.32,7.32,0,0,1,.56-3.15q-3.81,5.09-7.86,10c-.9,1.1-2,2.28-3.4,2.38a12.14,12.14,0,0,0-1.81,0,3.79,3.79,0,0,0-2,1.55l-5.84,7.22c-2.25,2.79-4.61,5.82-4.83,9.4-2.48-9.19-9.68-16.79-11-26.21a6.79,6.79,0,0,0-.5-2.1,8.13,8.13,0,0,0-1.35-1.64c-4.7-5.06-4.1-12.91-3.19-19.75l-.22.34-7.56,4.25a47.86,47.86,0,0,0-5-24c.17,1.18-.82,2.6-1.9,3.4-1.38,1-3.13,2.22-2.95,3.93a65.42,65.42,0,0,1-.56-32.21c-.63,2.08-2.77,4-4.79,3.25-2.31-.9-2.2-4.11-2.75-6.53a8.85,8.85,0,0,0-7.18-6.65l-7-9.3c3.42-20.9,8.43-43.63,25.13-56.65,5.85-4.57,12.76-7.57,19.72-10.18a222.86,222.86,0,0,1,75.63-14.11c8.14-.09,16.84.12,23.7-4.27l15.62-11.17A99.09,99.09,0,0,0,472,877.61a27.21,27.21,0,0,1-5.33-3,7.67,7.67,0,0,1-3-5.15,7.45,7.45,0,0,0-.28-2.37,4.09,4.09,0,0,0-2.31-1.87c-3.47-1.49-7.24-2.06-10.88-3a49.49,49.49,0,0,1-17.39-8.66l-19.27-8.36L374,847.23a896,896,0,0,0-148,55.36c-9.74,4.66-19.45,9.52-28.2,15.84-13.83,10-24.89,23.27-35.26,36.8A667.53,667.53,0,0,0,41.47,1214.49C18,1319.62,20.32,1428.6,22.8,1536.3q1.29,56.64,2.6,113.28c1.06,46.11,2.55,94,23.36,135.16L40.38,1816C118.58,1911,169,2030.06,264.54,2107.58Zm1726.52,635.2c-1.67,10.68-4.83,22.24-13.76,28.33-11.57,7.88-27.43,3.11-39.63-3.77-35-19.75-59.55-53.64-90.76-79-20.1-16.33-42.85-29-65.47-41.62l-66.84-37.23c-26.93-15-54.78-30.29-85.41-33.7-44-4.89-89.85,17.84-112.6,55.79-6.42,10.71-11.08,22.37-17.1,33.31-1.56,2.82-3.68,5.91-6.89,6.18-2.42.21-4.63-1.3-6.49-2.85a58.32,58.32,0,0,1-20.22-36.16c-1-6.65-.8-13.66-3.76-19.69s-10.64-10.54-16.46-7.18c-3.25,1.88-4.94,5.58-7.62,8.21-8.92,8.79-25.45,1.77-30.35-9.75s-1.92-24.71,1.14-36.86l-4.25-25.24,18.62-50.64c2.32-5,1-10.91-.3-16.31a305.57,305.57,0,0,1-7.8-74.49l-2.33,2.35c-9,17.85-18.07,35.78-29.79,52a189.26,189.26,0,0,1-48,46.22l-18,18.1-33.3-20.82c3.61-38.57-9.16-76.51-15.48-114.73a347.06,347.06,0,0,1-1.64-102.21c.88-6.59,1.45-14.52-3.78-18.64s-13.9-1.15-17.74,4.53-4.28,12.91-4.6,19.75q-4.63,98.59-9.26,197.17c-.8,17.2-1.62,34.5-5.25,51.33-3.44,16-9.38,31.35-12,47.46-2.35,14.33-2,28.94-2.89,43.43a275.87,275.87,0,0,1-23.38,96.07c-1.56,3.5-3.23,7-5.83,9.83a29.19,29.19,0,0,1-10.15,6.52,65.86,65.86,0,0,1-61.91-6.37l-18.85,4.53c1.49-2.69,1.8-5.86,2.09-8.93q2.07-22.57,4.15-45.17c1.54-16.85,3.09-33.78,2.06-50.67-.65-10.76-2.35-21.42-4-32.06l-11.74-73.64c-3.12-19.56-6.43-39.65-16.49-56.71l-5-10.8c-2.59-7.92-5.38-16.17-11.32-22a53,53,0,0,0-4.79-4L1010,2404.74l-11.85-12.22c-3.07-5.07-6.2-10.21-10.62-14.15-4.13-3.68-9.18-6.13-14.2-8.46s-10-4.57-15.09-6.74c-4.71-2-9.57-4-14.7-4.31s-10.64,1.38-13.72,5.49l-5,7.06-20.48-1.47c-9.39,4.75-14.89,14.87-17.79,25-6.54,22.83-2.58,47.14.19,70.73,5.06,43.17,6,86.77,4.35,130.2l-16,21.19-12.3-9.16a22.7,22.7,0,0,0-18.76,3.1c-5.68,3.91-9.28,10.22-14.7,14.49-1.57,1.23-3.28,2.28-4.84,3.52-1.82,1.45-3.43,3.14-5.17,4.69-7.29,6.46-16.66,10-25.86,13.22l-4.71,13.62L759.2,2715c-21.85-1.09-42,10.35-62.61,17.78-35,12.63-75.91,13.29-107.78-5.89-10.36-6.24-20.53-14.71-32.63-14.63-9.58.07-18.13,5.59-26.77,9.75a101.93,101.93,0,0,1-33.67,9.51c-3.67.37-7.66.48-10.75-1.54-7.41-4.85-3.87-16-3.09-24.85s-2.2-17.56-5.37-25.85c-3.26-8.53-6.91-17.17-13.17-23.81s-15.74-11-24.61-8.78c-12.49,3.07-18.79,17.1-20.84,29.8-.91,5.63-1.38,11.47-3.9,16.59s-7.78,9.44-13.45,8.77c-8.61-1-11.94-11.52-13.63-20a395.16,395.16,0,0,0-48.05-125.18l-11-23.88c-13-22.52-43.88-25.67-69.84-24.25a521.64,521.64,0,0,0-104,16.34c-15.7,4.13-31.93,9.42-43.14,21.16-7.32,7.67-12,17.63-19.78,24.85s-20.9,10.78-28.65,3.55c-3.41-3.19-5-7.8-6.3-12.29-15.16-54.19,9.63-111.66,41.81-157.83a494.8,494.8,0,0,1,177.34-155.6l22.08.51,20.55,5.11,41,6.37,1,4.45c4-1.42,7.64,2.63,11.61,4.11,7.84,2.91,17.32-4.46,24.56-.28a59.62,59.62,0,0,1-11.85,4.39,39.28,39.28,0,0,0,21.07,5.47l12.62,3a54.9,54.9,0,0,0,28.1-13.29l-1.23,7.44a53.67,53.67,0,0,0,37.5-11.58,39,39,0,0,1,.88,8c9.36.26,18.86-.52,27.72-3.56s17.07-8.49,22.34-16.23l.4-.26a32.11,32.11,0,0,0,.37,9A55.87,55.87,0,0,0,570.79,2232l.11-.78a63.92,63.92,0,0,0,9.67,8.09,4.1,4.1,0,0,0,2.92,1,4,4,0,0,0,2.1-1.49,63.68,63.68,0,0,0,14.59-28.32,7.12,7.12,0,0,1,1-2.79,10.23,10.23,0,0,1,3-2.13c3-1.9,4.78-5.22,6.48-8.35,7.63-14.05,16.77-27.2,25.89-40.33a100.45,100.45,0,0,1,7.16-9.5,80.06,80.06,0,0,1,7.41-7.21,199.08,199.08,0,0,1,20.49-15.76l2,.69c12.83,7.09,27.37,10.47,41.86,12.63a34.75,34.75,0,0,0,10.42.43c3.45-.53,6.87-2.18,8.8-5.09l-10.26-27.23c7.61,3.25,16.35,1.09,24.58,1.95l3.25-5.23c.36-1.56.84-3.21,2.1-4.19s3.11-1.07,4.77-1.09a159.13,159.13,0,0,0,33.12-3.95l19.15,1.07c29.18,2,56.66,13.85,83.49,25.49,6.44,2.8,13,5.64,18.41,10.08a38.51,38.51,0,0,1,9.57,11.62l12.89,10.17a391.73,391.73,0,0,0,33.51,61.39c3.52,5.28,7.65,10.82,13.76,12.54l3.22,14.19q5.54,13.54,11.08,27.08a14.43,14.43,0,0,1,1.34,4.9c.13,4.86-4.5,8.38-8.82,10.61a80.6,80.6,0,0,1-18.9,6.94l-4-3.62c-12,9.18-22,21.87-24.52,36.74l-2,8.3c7.7,12.26,21.69,18.8,34.92,24.69l7.5,3.34c3.63,1.62,8,3.2,11.36,1.09l6.49-6.31a64.72,64.72,0,0,1,1.54-17.66l.6-8.85c.79-8.87,8.12-16,16.27-19.57s17.18-4.44,25.93-6.08l11.34-4.72c20.3-6,41.34-12.5,57-26.73,7.94-7.21,14.29-16.25,23.22-22.21l16.25-39.37a270.77,270.77,0,0,0,29-56.34c9.06-24.27,14.59-49.68,20.09-75q3.7-17,7.4-34a10.33,10.33,0,0,1,3.89-7.12l16.66-15.58a25.85,25.85,0,0,1,5.75-4.42c9.11-4.6,19.77,2.67,30,2.26l9.28-3.17c35.58-14.37,62.27-44.15,87.63-73,5.41-6.15,10.83-12.3,15.72-18.88a150.06,150.06,0,0,0,28.06-68.52l18.56,72.13a587.25,587.25,0,0,0,45.28-53.82,123.34,123.34,0,0,0,9.72-14.63,68.79,68.79,0,0,0,8-38.31l-.71-7.22c1.52-23.15-1.28-46.35-4.08-69.39l-3.72-30.73c-2.23-18.42-4.51-37-10.83-54.48l1.09-10.62c1-2.57,3.75-3.9,6.29-5,8-3.39,16.77-6.86,25.21-4.68l10.09-6.71a58.65,58.65,0,0,1,25.18-5.29l14.2-2.73a51.91,51.91,0,0,0,19.7-21.87l7.61,7.17a57.94,57.94,0,0,1,22.4-24.6c5.89-3.52,12.36-6,18.78-8.37l7.49-2.82a49.36,49.36,0,0,1,10.36,19l10.32,39.65a157.27,157.27,0,0,0,16.75,27.91l3.94,4.81a12.69,12.69,0,0,1,14-7.42,2.86,2.86,0,0,1,.95.35,2.8,2.8,0,0,1,.9,1.21c1.29,2.67,2.3,6,5.14,6.93a5.45,5.45,0,0,1,1.92.69,3.37,3.37,0,0,1,.8,2.77l-.14,7.25.62,6.27,13.92,1.1a5.24,5.24,0,0,1,1.93.4,5.39,5.39,0,0,1,1.51,1.31q3.15,3.54,6.31,7.07a16.26,16.26,0,0,1,3.11,4.41,16.08,16.08,0,0,1,.76,6.74l.17,2.37a150,150,0,0,1,12.93,14.88l9.44,2.53,15.73-1a8.24,8.24,0,0,0,3.52-.74c.85-.46,1.53-1.22,2.42-1.61,2.37-1,4.86.94,6.92,2.48a28.09,28.09,0,0,0,12.44,5.22c-.93-2.3-1.55-5.57.64-6.74,1.26-.67,2.8-.2,4.1.36a34.17,34.17,0,0,1,9.72,6.38c3.5,3.29,6.5,7.45,11,9.08l-3.62,31.49c-2.74,16.85,5,34,16.34,46.78s25.89,22.14,39.85,32c16.42,11.56,32.33,24.12,45.28,39.46,30.84,36.55,42.46,87.53,34.36,134.66s-34.83,90.13-71,121.46l2.42,44.31a109.22,109.22,0,0,1,30.84,60.64c3.83,25.09-1.1,51.65,7.75,75.44,7.31,19.63,23,34.68,36.09,51A223.89,223.89,0,0,1,1994.8,2493c3.38,38.43-3.27,77-3.81,115.58C1990.36,2653.36,1998,2698.5,1991.06,2742.78ZM709,2278.08a275.51,275.51,0,0,0,22.35,18.7,8,8,0,0,0,2.12,1.31,7.54,7.54,0,0,0,2.64.26l31.43-.46-3.86.17q7.6-.21,15.16-.94l.44-7.25c-5.06-11-16.77-17.07-26.61-24.2-17.35-12.56-31.54-30.77-38.08-51.16l-.55-3.7c-.72-2.79,1.07-5.54,2.76-7.86a25.82,25.82,0,0,1,3-3.56c4.3-4.07,11.71-4.62,17.56-5.47s12.37-2.75,15-8l-14.26-17.76c-.76-3.28-4.71-4.48-8-5.1-13.58-2.54-27.17-5.07-40.84-7,5,1.77,9.19,5.37,13.1,9a22.18,22.18,0,0,1,4.23,4.85c1.65,2.84,1.58,6.27,2.2,9.49,5.43,28.31-6.12,56-5.65,84.07l.85,5a17.42,17.42,0,0,0,2.3,6.57A19.75,19.75,0,0,0,709,2278.08Zm95.87,79.63-.22-16.84c-2.3-5.94-4.66-11.92-8.24-17.18s-8.53-9.81-14.58-11.79c-4.65-1.52-9.65-1.44-14.55-1.34l-45.39.88c-4,.08-8.49.43-10.91,3.57l-1.8,7.47a236.18,236.18,0,0,0,.63,29.14,48.29,48.29,0,0,0,2.41,12.92c2.17,5.78,6.28,10.67,8.44,16.46l11.42,12.06c13.14-3.15,23.31-13.25,35-19.93,6.69-3.81,13.94-6.52,21.15-9.22Zm628.17-386.39q.38,5.13.76,10.26l.71.81c2.84,4.19,8.61,5.26,13.65,4.75s9.95-2.24,15-2.17a21.48,21.48,0,0,1,12.61,4.37,8.22,8.22,0,0,0,2.56,1.58,7,7,0,0,0,2.54.07l13.78-1.34a1.79,1.79,0,0,0,2-1.8,143.79,143.79,0,0,0,2.2-18.61l-1.23-6c1-8.94-.77-18.51-6.48-25.46s-15.9-10.51-24.15-7c-7.31,3.16-11.5,10.69-16,17.26a99.48,99.48,0,0,1-15.57,17.72,7.06,7.06,0,0,0-2.3,2.91A6.77,6.77,0,0,0,1433.05,1971.32Zm57.71,194.41c.18-3.57-1.53-6.94-3.31-10-4.15-7.25-9.25-14.43-16.7-18.23-5.19-2.64-11.09-3.42-16.85-4.16l-21.63-2.79c-2.75-.35-5.94-.57-7.92,1.38a8,8,0,0,0-1.84,3.61c-2.79,9.76-.44,20.14.45,30.26,1.7,19.37-2,39.18,2.18,58.17l4.12,9.4a275.86,275.86,0,0,1,33.92-26.82c4.61-3.09,9.64-6.44,11.42-11.7a38.19,38.19,0,0,1,1.55-5c2.21-4.35,7.86-5.37,12.72-5.86a28.57,28.57,0,0,1,.49-12.07A31,31,0,0,0,1490.76,2165.73Zm10.34-112.87-2.18.53c-10.68,2.41-16.33,13.86-24.82,20.76-10.91,8.87-26,9.84-40.07,10.33l-.69,27.81,38.44,6.73a24.51,24.51,0,0,0,6.49.56,24.77,24.77,0,0,0,6.46-1.81l13-4.94a4.48,4.48,0,0,0,2.26-1.46,4.32,4.32,0,0,0,.47-2.44c0-7.42-.46-14.85.14-22.25C1501.51,2075.34,1504.77,2063.63,1501.1,2052.86Z"></path>
    <path data-name="4a" data-official="" data-plain="Calyx" data-loc="" d="M1340,2724.36a34.57,34.57,0,0,1-13.28-14.58c-3-6.33-3.57-15,1.92-19.38,2.58-2.05,6-2.72,9.19-3.32,14.91-2.77,29.89-5.55,45.05-5.89s30.64,1.89,44.2,8.66a12.19,12.19,0,0,1,3.69,2.51c1.78,1.95,2.24,4.8,2,7.44-1.09,13.17-15.71,20.7-21.52,32.58-6.22,12.74-1.33,27.91-2.57,42-.5,5.72-2.22,11.65-6.45,15.53-5.75,5.27-14.4,5.4-22.21,5.22l-46.88-1.05a23.14,23.14,0,0,1-7.78-1.07c-2.46-.93-4.68-2.91-5.17-5.49-.45-2.39.62-4.78,1.87-6.86,6.45-10.73,17.78-17.35,27.42-25.32,3.16-2.61,6.41-6,6.25-10-.18-4.85-5-8-9.19-10.42Z"></path>
    <path data-name="4b" data-official="" data-plain="Pistil" data-loc="" d="M1499.53,2690.74A58.11,58.11,0,0,1,1509.7,2733c-.79,5.19-2.29,10.25-3.11,15.44-.88,5.69-.93,11.49-1.74,17.19a65.8,65.8,0,0,1-8.92,25,24.46,24.46,0,0,1-5.9,7.08c-4.39,3.34-10.19,4-15.68,4.56-10.14,1-20.67,1.78-30.22-1.75s-17.81-12.66-17-22.81c.49-6,3.94-11.28,5.64-17a30.1,30.1,0,0,0-3.6-24.57l0-11.81a80.28,80.28,0,0,1,11.08-26.43c1.7-2.63,3.59-5.2,4.62-8.16,1.64-4.72,1-9.93,1.88-14.85a22.82,22.82,0,0,1,8.64-13.86l16.73-9.89a57.92,57.92,0,0,0,13.91,17.1c1.86,1.55,4.07,3.06,6.49,2.85Z"></path>
    <path data-name="4c" data-official="" data-plain="Stamen, magnified" data-loc="" d="M1575.6,2602c6.26,8.16,8.69,18.71,9.06,29s-1.15,20.52-2,30.78a226.39,226.39,0,0,0,11.21,90.25c2,5.83,4.21,11.7,4.53,17.86.67,12.71-7.35,24.91-18.37,31.3s-24.48,7.53-37,5.4c-7.25-1.24-14.88-3.9-19-10s-3.72-14.23-3.08-21.64c1.63-18.79,3.56-37.58,7.35-56.05,1-5.12,2.23-10.21,3.07-15.36,2.75-17,1.63-34.28.31-51.41-.61-7.95-1.44-16.39-6.32-22.7l-8.79,2.14c11.88-19.81,30-35.47,51-45.22Z"></path>
    <path data-name="4d" data-official="" data-plain="Section of Fruit" data-loc="" d="M1793.76,2677.23c2.4,9.48,4.82,19.09,4.76,28.87s-2.87,19.93-9.67,27c-8.22,8.5-21,11.34-29.37,19.66-2.69,2.67-5,6.16-4.77,9.94.39,7.58,9.44,11,14.67,16.49,7,7.33,7,18.64,6.64,28.75-.11,2.88-.31,6-2.23,8.15-2,2.31-5.43,2.77-8.51,3-15.86,1.4-31.79,1.75-47.72,2.1-6.6.14-13.34.27-19.66-1.68-7.05-2.18-13.09-6.81-18.5-11.84-5-4.62-9.64-9.79-12.21-16.07-2-4.84-2.62-10.14-4.37-15.07-6.91-19.49-28.84-29-41.16-45.63-10.69-14.42-13.4-33.41-11.94-51.3.68-8.38,2.31-17,7.12-23.88,3.52-5,8.51-8.85,13.54-12.38,21.5-15.1,46.6-27.13,72.85-26.15l11.37-7.7,66.84,37.23Z"></path>
</svg>
