
<svg xmlns="http://www.w3.org/2000/svg" viewBox="0 0 2203 3125" id="illustration" preserveAspectRatio="xMidYMid meet">
    <title>Camelliaceæ</title>
    <path data-name="1" data-official="Camellia oleifera" data-plain="Oil-seed Camellia" data-loc="China" d="M1511,1757.41c-8.89-3.82-18-7.69-27.58-8.64-10.61-1-21.32,1.53-32,.69-15.06-1.18-29.48-9.15-44.48-7.35-1.9.23-4,.72-5.08,2.27a99,99,0,0,1,2-30.9c1-4.33,2.24-8.67,2.14-13.11s-1.86-9.14-5.65-11.46l-24.9-7.7c-9-2.15-18,4.12-27.23,3.84-6.7-.2-12.76-3.78-19.12-5.93a45.73,45.73,0,0,0-19-2.16l-1.08-.31c-2.26,2.42-5.8,3.23-9.11,3.24s-6.62-.66-9.94-.64c-4.08,0-8.09,1.1-12.13,1.68-10.66,1.54-21.55-.3-32.26.85-10.88,1.17-21.77,5.4-32.46,3.08l-.9,4.56a11.94,11.94,0,0,0-10.59,6.67c-.3.62-.62,1.35-1.29,1.53s-1.31-.26-2-.21c-1.27.1-1.72,1.7-1.86,3l-1.68,2c.57-7.65,1.11-15.54-1.26-22.84-2-6.13-5.92-11.43-9.8-16.59a29,29,0,0,0-5.78-6.26c-2.9-2.11-6.45-3.06-9.91-4-7.71-2-15.47-4-23.41-4.71-22.52-1.87-44.34,7.22-65.11,16.14H1078c8.6-10.94,24.77-13.52,33.58-24.3,3.76-4.59,5.85-10.33,7.19-16.11a75.39,75.39,0,0,0-7.8-53.56c-7.59-13.38-19.26-24.33-25.24-38.5-4.78-11.35-5.55-23.92-8.29-35.92-.8-3.48-1.8-7-3.9-9.89s-5.5-5-9.06-4.77c-5.12.38-8.53,5.27-11.18,9.67l-15.5,25.71q-9.35,15.49-18.68,31l.53,3c-3.95-7.79-7.93-15.6-13-22.67-4.66-6.43-10.28-12.27-13.59-19.49-1.7-3.69-2.76-7.7-4.95-11.12s-5.21-5.92-8.24-8.45l-8.06-6.72-21.19,15.3c-8.24,6-16.71,12.14-22,20.83-5.05,8.3-6.75,18.22-7.32,27.92-.41,7-.25,14.2,2,20.87,1.57,4.75,4.14,9.1,6.43,13.55,4.88,9.44,8.6,19.44,12.3,29.41l-.33,1.4a12.24,12.24,0,0,0-4.41,3q3.07,3.62,6.14,7.25c-3.22-.12-5.23-3.43-6.65-6.33-4.3-8.82-8.61-17.65-12.5-26.67-3.21-7.45-6.15-15.07-10.5-21.91a88.92,88.92,0,0,0-9.81-12.43c-18.08-19.68-41.49-35.11-67.65-40.56-4.67-1-9.8-1.56-14,.76-5,2.79-7.06,8.84-8.56,14.38-.74,2.72-1.72,5.79-4.29,7-2.85,1.31-6.16-.42-8.5-2.5s-4.49-4.67-7.51-5.48c-5-1.35-9.8,2.71-13,6.78-10.48,13.15-16.23,29.75-17.52,46.52s1.73,33.71,7.44,49.53c2.7,7.5,6,14.94,6.55,22.89l-1,2.63c-1.78,4.56-6.42,7.21-10.58,9.8-5.52,3.44-10.83,7.5-14.48,12.89a59.38,59.38,0,0,0-4.27,7.89q-2.71,5.68-5.44,11.38a73.86,73.86,0,0,0-3.81,9c-3.19,9.86-2.09,20.56-.48,30.8,1.52,9.64,3.91,20,11.42,26.26l-.34,1.5c-3.61,5.65-2.54,13.43,1.32,18.91s10,9,16.34,11.17a28.13,28.13,0,0,0,9.44,1.84c3.1,0,6.14-.84,9.23-1.06s6.46.27,8.71,2.4l1.7.46a44.08,44.08,0,0,0-20.68,29,73.35,73.35,0,0,0-1.05,15.39c.1,6.94.59,14.14,3.91,20.24s10.19,10.77,17,9.44c4.47-.88,9.08-4.14,13.15-2.07,4.36,2.22,4,8.4,5.5,13.08a14.89,14.89,0,0,0,11.27,10l-1.37,20.88a257.83,257.83,0,0,0-6.23,59.84l-.71,9.33c.19,14.27.39,28.62,3.1,42.63,1.71,8.82,4.41,17.46,5.37,26.38a69.38,69.38,0,0,1-8,40.5l-6.21,5.48c-3.31.09-5.94-2.57-8.42-4.76a42,42,0,0,0-16.57-9c.3-1.32,1.57-2.13,2.56-3.06s1.76-2.52.89-3.56a3.26,3.26,0,0,0-1.76-.84,135.17,135.17,0,0,1-18.81-6.17,72.17,72.17,0,0,1-8.19-3.89c-1.88-1.06-4.3-2.23-6-.92-.7.54-1.12,1.43-1.92,1.8a7.27,7.27,0,0,1-1.63.35c-1.55.33-2.7,1.63-4.14,2.31-2,.94-4.34.61-6.55.6a22.31,22.31,0,0,0-18.28,9.55,9.4,9.4,0,0,1-2.13,2.55,11.86,11.86,0,0,1-2.47,1.08,11.7,11.7,0,0,0-4.55,3.18l-7.92,25q3.18,18.57,5.42,37.29l.77,22.09,13.72,18.64c-14.86-.18-30-.32-44.22,4.08-4,1.23-7.91,2.86-11,5.61s-5.26,6.54-7.31,10.21c-7.18,12.89-14.45,26-17.88,40.33-1.75,7.32-2.4,15.33.86,22.12.81,1.67,1.84,3.24,2.49,5,2,5.37.15,11.31-.34,17a35,35,0,0,0,34.8,38l2.26,1.92a9.11,9.11,0,0,0,2.62,9.29A135.69,135.69,0,0,0,670.06,2360a17.15,17.15,0,0,0-2.93,4,17.76,17.76,0,0,0-1.32,6.23c-.63,7.41-.91,14.91.34,22.24s4.1,14.53,9.12,20c3.49,3.81,7.87,6.65,12.2,9.46l.32,1.64a32.38,32.38,0,0,0-1.12,35.32,17,17,0,0,0,4.57,5.06c3.72,2.56,8.54,2.7,13,2.76l14.51.19a12.6,12.6,0,0,0,4.29-.44c.81-.27,1.56-.72,2.38-1a15.1,15.1,0,0,1,3-.54,33.25,33.25,0,0,0,21.35-11.78l2.25.79a39.75,39.75,0,0,0,4.13,16.32c1.52,3,3.84,6.16,7.21,6.59l-.45,1.91a60.66,60.66,0,0,0-9.45,10.6c-1.59,2.27-3.06,4.7-5.17,6.5s-4.44,2.74-6.59,4.23c-3,2.08-5.3,5-7.85,7.57-7.48,7.63-17,12.81-26.45,17.87l-25.83,5.16c-27.3,20.4-37.64,57.33-35.8,91.36s13.87,66.52,23.33,99.26,16.45,67.63,8.11,100.67c-4,15.65-11.3,31.85-6.42,47.24,1,3.25,2.77,6.52,5.76,8.15a13.24,13.24,0,0,0,7.21,1.2c12.28-.77,22.66-8.88,32.75-15.93a248.62,248.62,0,0,1,37-21.33c14.07-6.58,28.8-11.87,42.11-19.87s25.41-19.27,30.61-33.91l7.14-7.91c.56-14.88,3.27-29.61,6.6-44.12,4-17.29,9.1-34.92,20.3-48.68,4.75-5.85,10.47-10.82,16.18-15.73,3-2.59,6.06-5.17,9.27-7.52,16.74-12.17,38.74-18.1,50.69-35,7.82-11.05,10.33-25.66,20.07-35.06l4.67-7.34a39.32,39.32,0,0,0,13.37-23.84,78.94,78.94,0,0,0,.64-10.43q.14-7.18.25-14.38l-1.78-11.1c3.61-7,12.12-10.63,20-10s15.1,4.79,21,10,10.8,11.52,16.09,17.39l7.91,3.82q20.44,5.84,41.36,9.82l1.32,1.78,8.93,16.23c5,9.09,10,18.2,15.92,26.73,13.71,19.75,32.49,36.75,39.92,59.62l-4.58,23.37c29.31,45.71,35.21,102.3,56.24,152.36,12.09,28.79,29.46,56.24,32.87,87.28.65,5.89.79,11.9,2.52,17.56s5.41,11.12,10.95,13.21c7.13,2.69,15-.78,21.53-4.75s13.2-8.67,20.82-8.59c7.28.07,13.67,4.51,20.36,7.4s15.58,3.78,20.28-1.78c2.92-3.45,3.27-8.41,2.59-12.88-2.72-17.93-18.61-30.43-28.43-45.68-6.22-9.64-10.06-20.58-14.18-31.29a562.31,562.31,0,0,0-35.87-75.84l-12.39-8.35c-3.8.7-6.61-3.33-8.33-6.78l-17.41-34.84a51.72,51.72,0,0,1-4.57-11.28,73.86,73.86,0,0,1-1.17-10.41c-.66-7.68-2.37-15.23-4.07-22.74l-16.55-45.43c-2.3.3-3.82-2.26-4.68-4.4q-10.71-26.66-19.8-53.92a4.2,4.2,0,0,1-.29-2.58,4.35,4.35,0,0,1,1.72-1.94c10.89-8.26,18.92-19.64,26.78-30.83l9.06-12.91a62.88,62.88,0,0,0,6.22-10.18l4.25-33.46q8.43-52.41,13.38-105.32l.58-1.28c7.59-5,13.47-12.27,18-20.15s7.83-16.39,11.1-24.87l2.78-8.22-.08-13.48.39-20.28c.14-7.44.8-15.95,6.73-20.44l-.3-11c-.55-14.34,4-28.33,8.49-42l6.84-20.73q1.52-4.6,3-9.23c3.15-9.55,6.33-19.17,11.07-28,.63,3.48,1.29,7.05,3.18,10s5.31,5.29,8.8,4.78a67.63,67.63,0,0,0,28.69,31.41l2.87,2.57a72.91,72.91,0,0,1,10.26-25.47c2.85-4.34,6.22-8.39,8.46-13.08,3.41-7.17,4.19-15.88,9.81-21.49,4.55-4.57,11.24-6,17.32-8.16s12.48-6,13.82-12.27l-5.46-9.13q-8.64-19.76-15.65-40.18l-2.63-13.81c-7.5-9.82-15.79-20.12-27.56-23.88-4.21-1.35-8.83-1.84-12.42-4.41s-5.65-6.93-9.14-9.7c-6.24-4.95-16.53-4.47-20.55-11.35L1288,2008.83a91.16,91.16,0,0,0-21.74-14.68c-2-1-4.23-1.88-6.39-1.38l-.87,1.09a16.63,16.63,0,0,1,3,3.19,12.51,12.51,0,0,1,1.33,3.64c10.46,41.53,15.46,85.11,8,127.28-4.58-6.24-4.39-14.62-5.27-22.32-1.49-13.11-6.58-25.51-11.61-37.71-1.36-3.29-2.72-6.59-4.35-9.75a63.18,63.18,0,0,0-11.13-15.33c-6-6.06-13.13-10.82-20.22-15.55l-13.44-8.94a76.8,76.8,0,0,0-11.68-6.83c-5.3-2.32-11.05-3.42-16.74-4.49l-17.88-3.39-4-5.39a25.09,25.09,0,0,1-2.17-7l-1.61-3.5c.51-1.23,2-1.67,3.16-2.31s2.2-2.24,1.29-3.23-2.89-.6-3.08-1.85l15.49-8.23c6.94-3.69,14.41-7.5,22.24-6.74l6.35-4a44.08,44.08,0,0,0-.47-9.18l30.81-14a4.43,4.43,0,0,0,1.71-1.12c1.6-2-1-5,0-7.43,7.63,1,15.34-.53,22.88-2l18.65-3.77,7.22-4.48a92.8,92.8,0,0,0,32.17-18.62l2.51-5c-7.74-5.25-17.54-6.64-26.87-6s-18.44,3-27.63,4.75c-24.51,4.64-49.64,4.51-74.5,6.65-7.57.65-15.56,1.67-21.58,6.31,4.61-4.56,5.88-11.51,5.89-18s-1-13,.08-19.42c2.67-16,17.72-27.36,33.25-32.11s32.09-4.58,48.1-7.28a135.45,135.45,0,0,0,31.89-9.53c2.79-1.22,5.54-2.54,8.43-3.49a70.34,70.34,0,0,1,10.66-2.33,155.48,155.48,0,0,1,17.71-2.21c9.87-.46,19.89,1,29.57-1,4.22-.87,8.28-2.37,12.48-3.35a52.33,52.33,0,0,1,51,17.15l1.84.13c-.39-.93.74-1.83,1.74-2s2.13,0,3-.56c.55-.4.85-1.06,1.38-1.49a4.14,4.14,0,0,1,3-.55q5.24.38,10.4,1.26a2.91,2.91,0,0,1,2.21-2.66c.82-.18,1.76,0,2.4-.57a3,3,0,0,0,.74-2c1.19-9.63,10-17.35,19.62-18.62s19.47,3.23,26,10.43c-1.85-6.51-3.42-14.31,1.08-19.36,3.11-3.49,8.11-4.38,12.42-6.2,8.21-3.48,14.27-10.67,19-18.26Zm-507.93,744a32.49,32.49,0,0,1-9.66-.79l-15.24-2.79c-3.7-.68-7.62-1.47-10.34-4.06-1.82-1.72-2.89-4.06-4.12-6.23A42.26,42.26,0,0,0,946.59,2471l-7-8a228.16,228.16,0,0,1-38-51.69l-7.54-17.5q-1.61-18.42-4.27-36.72c10.2,12.25,20.52,24.6,33.26,34.18s28.29,16.27,44.2,15.5c2.36-.12,4.83-.37,7,.61,3.77,1.73,4.94,6.4,5.94,10.43,6,24,21.18,44.48,30.42,67.37l.67,11.62C1009.57,2499.51,1006.33,2501,1003.11,2501.41ZM1232.54,2125c0-2.41.15-4.91,1.25-7s3.48-3.82,5.84-3.34c1.72.34,3,1.7,4.22,3a159,159,0,0,1,23.75,34.88,6.48,6.48,0,0,0,1.62,2.32,9.14,9.14,0,0,0,2.16,1,11.36,11.36,0,0,1,6,14.18,24.85,24.85,0,0,1-3.18,5.14,104.63,104.63,0,0,0-14.69,28.75c-1.41,4.32-3.47,9.57-8,10.09l-1.87-7.11c-3-14.87-11.52-28.14-14.72-43-1.51-7-1.79-14.18-2.06-21.33C1232.67,2136.72,1232.45,2130.84,1232.54,2125ZM1090.06,2445.7c-8.26-4.24-16.63-8.55-23.5-14.79-3.2-2.89-6-6.17-9.16-9.12-10.66-10-24.86-16.33-33.51-28.14l.1-12.08c5.5-4.15,11.26-8.64,13.74-15.07,1.36-3.54,1.62-7.41,2.73-11,1.07-3.47,2.91-6.65,4.17-10.06a32.28,32.28,0,0,0-5.14-30.92c-2.1-2.6-4.73-6.21-2.64-8.82,1.44-1.79,4.29-1.67,6-3.15,1.45-1.22,1.87-3.25,2.1-5.12a54,54,0,0,0-.46-16.1c3.42,3.5,6.88,7,11.1,9.5s9.35,3.75,14,2.42l.66,3.81,10.3,1.34a2,2,0,0,1,2.23,2,1317.9,1317.9,0,0,1,18.05,140.8c.16,2.15-.21,5-2.33,5.37Zm8.84,92.73,4.49-5.44a44.41,44.41,0,0,1,7.95-4,6.29,6.29,0,0,1,3.6-.56c1.93.45,3,2.43,3.86,4.22a157.6,157.6,0,0,1,12.7,41.85Q1114.4,2557.22,1098.9,2538.43Zm52.51-239.06a33.19,33.19,0,0,0,1.3,7.91c7.34-1.78,15.27-3.53,22.28-.71,9.46,3.82,13.86,14.37,19.79,22.67,3.07,4.3,6.87,8.42,7.85,13.62l1.4,9.65c.15,9.89-1,19.75-2,29.59q-3.49,31.11-7,62.23c-1.56,13.89-3.26,28.22-10.17,40.38-3.76,6.62-9.19,13.14-8.57,20.73l-.64,8a41.86,41.86,0,0,1-1.15,10.54c-1.45,5.22-4.68,9.75-8.16,13.9-2.11,2.51-5.66,5.12-8.3,3.17a13.94,13.94,0,0,1-.45,5.65,4.79,4.79,0,0,1-4.18,3.36,378.76,378.76,0,0,1-11.8-60.54l5.35-10.23-9.52-14.61c-2.9-3.56-4.21-8.14-5.39-12.58q-8.18-30.56-13.62-61.77c-1-5.75-1.94-11.51-2.7-17.3-3.18-24.29-3.3-48.86-3.42-73.35l2-.06Q1132.81,2299.55,1151.41,2299.37Z"></path>
    <path data-name="2" data-official="Camellia japonica" data-plain="Red Camellia" data-loc="Japan" d="M1003.11,2501.41a32.49,32.49,0,0,1-9.66-.79l-15.24-2.79c-3.7-.68-7.62-1.47-10.34-4.06-1.82-1.72-2.89-4.06-4.12-6.23A42.26,42.26,0,0,0,946.59,2471l-7-8a228.16,228.16,0,0,1-38-51.69l-7.54-17.5q-1.61-18.42-4.27-36.72c10.2,12.25,20.52,24.6,33.26,34.18s28.29,16.27,44.2,15.5c2.36-.12,4.83-.37,7,.61,3.77,1.73,4.94,6.4,5.94,10.43,6,24,21.18,44.48,30.42,67.37l.67,11.62C1009.57,2499.51,1006.33,2501,1003.11,2501.41Zm15.4,235.91c-1.17,38.08,5,76,11.13,113.55,1.59,9.75,3.19,19.53,6.16,28.94a96.85,96.85,0,0,0,18.12,33.26,17.77,17.77,0,0,0,5.84,5c2.66,1.21,5.7,1.17,8.62,1,12.34-.66,25.25-3.32,34.47-11.56,6.94-6.19,11.12-15,13.09-24.13s1.9-18.51,1.45-27.8c-1-19.78-3.53-39.43-6.12-59-4.39-33.33-8.81-66.83-18.45-99l-11.62-5a44,44,0,0,0-27.51,6.39c-4.68,2.91-8.75,6.67-12.79,10.4-2.43,2.25-4.93,4.59-6.18,7.65Zm-27-165.93,2.88,7.07a72.49,72.49,0,0,1,29.39-14.05c-1-.72-.77-2.38.09-3.28a10.74,10.74,0,0,1,3.21-1.84,11.29,11.29,0,0,0,5.73-6.8l-2-8.69c-5.29-5.87-10.16-12.17-16.09-17.39s-13.15-9.4-21-10-16.39,3-20,10l1.78,11.1q-.12,7.18-.25,14.38ZM159,2265c-15.64,111.33,28.67,223.3,90.2,317.38,10.32,15.77,21.22,31.32,34.73,44.46,10.71,10.42,23,19.24,33,30.33,9.27,10.27,16.41,22.26,24.83,33.24,13.75,18,30.79,33.08,47.71,48.09,10.79,9.57,24.13,19.82,38.12,16.34,10.81-2.69,18.23-13.38,20.05-24.36s-1-22.21-4.55-32.75c-4.55-13.38-10.49-26.48-12.18-40.51-3.32-27.56,10-54.09,23-78.63,2.87-5.43,5.86-11,10.6-14.91,5.68-4.68,13.15-6.38,19.94-9.21,19.67-8.22,33.79-26.18,52.94-35.55,16.1-7.87,34.52-9.1,52.4-10.2,27.11-1.67,56.36-2.8,79.08,12.09l12.81,9.93,25.83-5.16c9.41-5.06,19-10.24,26.45-17.87,2.55-2.6,4.86-5.49,7.85-7.57,2.15-1.49,4.6-2.54,6.59-4.23s3.58-4.23,5.17-6.5a60.66,60.66,0,0,1,9.45-10.6l.45-1.91c-3.37-.43-5.69-3.55-7.21-6.59a39.75,39.75,0,0,1-4.13-16.32l-2.25-.79a33.25,33.25,0,0,1-21.35,11.78,15.1,15.1,0,0,0-3,.54c-.82.27-1.57.72-2.38,1a12.6,12.6,0,0,1-4.29.44l-14.51-.19c-4.51-.06-9.33-.2-13-2.76a17,17,0,0,1-4.57-5.06,32.38,32.38,0,0,1,1.12-35.32l-.32-1.64c-4.33-2.81-8.71-5.65-12.2-9.46-5-5.48-7.88-12.68-9.12-20s-1-14.83-.34-22.24a17.76,17.76,0,0,1,1.32-6.23,17.15,17.15,0,0,1,2.93-4,135.69,135.69,0,0,1,15.84-14.85,9.11,9.11,0,0,1-2.62-9.29L681,2334a35,35,0,0,1-34.8-38c.49-5.72,2.36-11.66.34-17-.65-1.74-1.68-3.31-2.49-5-3.26-6.79-2.61-14.8-.86-22.12,3.43-14.35,10.7-27.44,17.88-40.33,2-3.67,4.15-7.42,7.31-10.21s7.05-4.38,11-5.61c14.2-4.4,29.36-4.26,44.22-4.08L709.92,2173l-.77-22.09q-2.24-18.7-5.42-37.29l7.92-25a11.7,11.7,0,0,1,4.55-3.18,11.86,11.86,0,0,0,2.47-1.08,9.4,9.4,0,0,0,2.13-2.55,22.31,22.31,0,0,1,18.28-9.55c2.21,0,4.55.34,6.55-.6,1.44-.68,2.59-2,4.14-2.31a7.27,7.27,0,0,0,1.63-.35c.8-.37,1.22-1.26,1.92-1.8,1.71-1.31,4.13-.14,6,.92a72.17,72.17,0,0,0,8.19,3.89,135.17,135.17,0,0,0,18.81,6.17,3.26,3.26,0,0,1,1.76.84c.87,1,.1,2.64-.89,3.56s-2.26,1.74-2.56,3.06a42,42,0,0,1,16.57,9c2.48,2.19,5.11,4.85,8.42,4.76l6.21-5.48a69.38,69.38,0,0,0,8-40.5c-1-8.92-3.66-17.56-5.37-26.38-2.71-14-2.91-28.36-3.1-42.63l.71-9.33a257.83,257.83,0,0,1,6.23-59.84l1.37-20.88a14.89,14.89,0,0,1-11.27-10c-1.47-4.68-1.14-10.86-5.5-13.08-4.07-2.07-8.68,1.19-13.15,2.07-6.82,1.33-13.7-3.34-17-9.44s-3.81-13.3-3.91-20.24a73.35,73.35,0,0,1,1.05-15.39,44.08,44.08,0,0,1,20.68-29l-1.7-.46c-2.25-2.13-5.61-2.62-8.71-2.4s-6.13,1-9.23,1.06a28.13,28.13,0,0,1-9.44-1.84c-6.33-2.2-12.48-5.68-16.34-11.17s-4.93-13.26-1.32-18.91l.34-1.5c-7.51-6.24-9.9-16.62-11.42-26.26-1.61-10.24-2.71-20.94.48-30.8a73.86,73.86,0,0,1,3.81-9q2.73-5.68,5.44-11.38a59.38,59.38,0,0,1,4.27-7.89c3.65-5.39,9-9.45,14.48-12.89,4.16-2.59,8.8-5.24,10.58-9.8l1-2.63c-.51-8-3.85-15.39-6.55-22.89-5.71-15.82-8.74-32.76-7.44-49.53s7-33.37,17.52-46.52c3.23-4.07,8-8.13,13-6.78,3,.81,5.16,3.4,7.51,5.48s5.65,3.81,8.5,2.5c2.57-1.18,3.55-4.25,4.29-7,1.5-5.54,3.55-11.59,8.56-14.38,4.17-2.32,9.3-1.73,14-.76,26.16,5.45,49.57,20.88,67.65,40.56a88.92,88.92,0,0,1,9.81,12.43c4.35,6.84,7.29,14.46,10.5,21.91,3.89,9,8.2,17.85,12.5,26.67,1.42,2.9,3.43,6.21,6.65,6.33q-3.06-3.63-6.14-7.25a12.24,12.24,0,0,1,4.41-3l.33-1.4c-3.7-10-7.42-20-12.3-29.41-2.29-4.45-4.86-8.8-6.43-13.55-2.21-6.67-2.37-13.85-2-20.87.57-9.7,2.27-19.62,7.32-27.92,5.28-8.69,13.75-14.87,22-20.83l12.59-9.09.38-2.89c1.66-1.83,2.15-4.4,2.5-6.85a142.27,142.27,0,0,0,.12-40c-3.39,8.15-8.75,15.79-16.41,20.18s-17.83,5-25.1,0l-2,9.83c-5.82-8.53-7.29-19.19-8.88-29.4a6.28,6.28,0,0,0-1-3c-.84-1-2.24-1.43-3.43-2-2.51-1.31-4.19-3.74-6.1-5.83s-4.48-4-7.29-3.69a7.17,7.17,0,0,1-3,.18c-1.07-.36-1.66-1.47-2.38-2.34-3.37-4.1-9.7-3.22-15-4-1.65-.24-3.44-.81-4.23-2.27a5.09,5.09,0,0,0-1-1.74,2.83,2.83,0,0,0-1.62-.48l-14.07-1.21a22.89,22.89,0,0,0-3.2-.12,26.9,26.9,0,0,0-4.07.72,60,60,0,0,1-53.17-15l-.59-.54c-8.86-.93-14.74-9.42-22.54-13.74-5.62-3.11-12.18-4-18.59-4.47a87.71,87.71,0,0,0-13.56-.16,57.24,57.24,0,0,0-11.25,2c-7.71,2.21-14.85,6-21.93,9.76l-9.57,5.09a4.26,4.26,0,0,0-1.86,1.51,4.9,4.9,0,0,0-.32,2.53,15,15,0,0,1-8.28,13.49c-4.95,2.4-11.8,2.49-14.28,7.4a49.14,49.14,0,0,0-2.08-7.81c-3.34,2.81-6.77,5.67-10.85,7.21s-9,1.53-12.48-1.15a23.42,23.42,0,0,1-14.76,7.43l-19.2,4.18c-9.53-6-20.79-10.89-31.82-8.59-5.26,1.09-10.05,3.74-15.06,5.71s-10.63,3.24-15.71,1.48l-13.74-2.28c-7.27-1-13.52-5.48-19.44-9.83-15.73-11.54-31.79-23.42-42.66-39.62a84.74,84.74,0,0,1-9.64-19.27L461.6,1355c-3.34-9-17.07-11.42-19.16-20.84a9.34,9.34,0,0,1-4.08.73,3.23,3.23,0,0,1-2.95-2.52,19.57,19.57,0,0,0,0-2.42,4.28,4.28,0,0,0-1.82-2.07c-8-6.12-9.53-17.51-8.75-27.53s3.25-20.21.87-30a11.48,11.48,0,0,0-3.07-6c-1.43-1.27-3.32-1.89-4.88-3-1.81-1.26-3.14-3.1-4.9-4.43-3.76-2.87-8.86-3-13.59-3.08l-43.88-1.49c-59.29,11-105.47,56.55-145.47,101.69-17.94,20.25-35.59,41.08-48.36,64.92s-20.48,51.16-17.16,78L136,1528.17c-18.19,37-15.21,80.83-27.61,120.16-16.2,51.37-56.85,90.56-87.86,134.61-5.11,7.26-10,14.83-12.6,23.34-3,10-2.53,20.71-1.77,31.13q2,27.19,6.23,54.15c5.59,35.45,15.78,73.12,43.75,95.59,23.1,18.56,53.93,23.23,82.32,31.71s58.37,24.57,66.56,53c3.42,11.89,2.54,24.57.8,36.82a277.84,277.84,0,0,1-35.43,101.51Z"></path>
    <path data-name="2a" data-official="" data-plain="Seed-vessel" data-loc="" d="M427.52,2754.79c10.81-2.69,18.23-13.38,20.05-24.36l18.84-6.94c11.36-2.72,23-4,34.27-7.16s22.34-8.41,29.72-17.45c6.79-8.33,10.13-19.46,18.47-26.25,7.42-6.06,17.52-7.56,27.09-7.89,14.23-.48,30.44,2.24,38.33,14.09,6.2,9.32,5.35,21.47,4.33,32.62-2,21.94-3,46.55,11.47,63.2,8.93,10.3,22.33,15.63,32.19,25l15,22.28c-4,15.65-11.3,31.85-6.42,47.24,1,3.25,2.77,6.52,5.76,8.15a13.24,13.24,0,0,0,7.21,1.2l5.35,27.09c5.11,17.68,2.88,36.82-2.95,54.27s-15.09,33.52-24.29,49.45l-31.22,54.06c-9.33,16.16-19.4,33.06-35.65,42.22-10.43,5.88-22.5,8-34.35,9.73-17.39,2.55-35.1,4.45-52.49,1.94s-34.63-9.86-46.07-23.2c-9-10.5-14.29-24.43-25.64-32.33-17.94-12.49-43.14-5-63.64-12.58-20.93-7.74-33-29.46-41-50.31a314.58,314.58,0,0,1-18.74-76.62c-1.69-14.81-2.31-30,1.4-44.45,3.31-12.89,9.93-24.65,16.48-36.24,17.78-31.46,36.79-64.24,67.5-83.3Z"></path>
    <path data-name="3" data-official="Kielmeyera rosea" data-plain="Rose-coloured Kielmeyera" data-loc="Brazli" d="M1232.54,2125c0-2.41.15-4.91,1.25-7s3.48-3.82,5.84-3.34c1.72.34,3,1.7,4.22,3a159,159,0,0,1,23.75,34.88,6.48,6.48,0,0,0,1.62,2.32,9.14,9.14,0,0,0,2.16,1,11.36,11.36,0,0,1,6,14.18,24.85,24.85,0,0,1-3.18,5.14,104.63,104.63,0,0,0-14.69,28.75c-1.41,4.32-3.47,9.57-8,10.09l-1.87-7.11c-3-14.87-11.52-28.14-14.72-43-1.51-7-1.79-14.18-2.06-21.33C1232.67,2136.72,1232.45,2130.84,1232.54,2125ZM1090.06,2445.7c-8.26-4.24-16.63-8.55-23.5-14.79-3.2-2.89-6-6.17-9.16-9.12-10.66-10-24.86-16.33-33.51-28.14l.1-12.08c5.5-4.15,11.26-8.64,13.74-15.07,1.36-3.54,1.62-7.41,2.73-11,1.07-3.47,2.91-6.65,4.17-10.06a32.28,32.28,0,0,0-5.14-30.92c-2.1-2.6-4.73-6.21-2.64-8.82,1.44-1.79,4.29-1.67,6-3.15,1.45-1.22,1.87-3.25,2.1-5.12a54,54,0,0,0-.46-16.1c3.42,3.5,6.88,7,11.1,9.5s9.35,3.75,14,2.42l.66,3.81,10.3,1.34a2,2,0,0,1,2.23,2,1317.9,1317.9,0,0,1,18.05,140.8c.16,2.15-.21,5-2.33,5.37Zm8.84,92.73,4.49-5.44a44.41,44.41,0,0,1,7.95-4,6.29,6.29,0,0,1,3.6-.56c1.93.45,3,2.43,3.86,4.22a157.6,157.6,0,0,1,12.7,41.85Q1114.4,2557.22,1098.9,2538.43Zm52.51-239.06a33.19,33.19,0,0,0,1.3,7.91c7.34-1.78,15.27-3.53,22.28-.71,9.46,3.82,13.86,14.37,19.79,22.67,3.07,4.3,6.87,8.42,7.85,13.62l1.4,9.65c.15,9.89-1,19.75-2,29.59q-3.49,31.11-7,62.23c-1.56,13.89-3.26,28.22-10.17,40.38-3.76,6.62-9.19,13.14-8.57,20.73l-.64,8a41.86,41.86,0,0,1-1.15,10.54c-1.45,5.22-4.68,9.75-8.16,13.9-2.11,2.51-5.66,5.12-8.3,3.17a13.94,13.94,0,0,1-.45,5.65,4.79,4.79,0,0,1-4.18,3.36,378.76,378.76,0,0,1-11.8-60.54l5.35-10.23-9.52-14.61c-2.9-3.56-4.21-8.14-5.39-12.58q-8.18-30.56-13.62-61.77c-1-5.75-1.94-11.51-2.7-17.3-3.18-24.29-3.3-48.86-3.42-73.35l2-.06Q1132.81,2299.55,1151.41,2299.37Zm-9.87,385.8,4.58-23.37c-7.43-22.87-26.21-39.87-39.92-59.62-5.92-8.53-10.93-17.64-15.92-26.73l-8.93-16.23-1.32-1.78q-20.88-4-41.36-9.82l-7.91-3.82,2,8.69a11.29,11.29,0,0,1-5.73,6.8,10.74,10.74,0,0,0-3.21,1.84c-.86.9-1.1,2.56-.09,3.28a72.49,72.49,0,0,0-29.39,14.05l-2.88-7.07-16.29-19.49a78.94,78.94,0,0,1-.64,10.43,39.32,39.32,0,0,1-13.37,23.84l-4.67,7.34c-9.74,9.4-12.25,24-20.07,35.06-11.95,16.9-33.95,22.83-50.69,35-3.21,2.35-6.25,4.93-9.27,7.52-5.71,4.91-11.43,9.88-16.18,15.73-11.2,13.76-16.33,31.39-20.3,48.68-3.33,14.51-6,29.24-6.6,44.12l-7.14,7.91-8.12,28.91c9.51,13.67,30.39,17.74,44.33,8.62,3.63-2.37,6.76-5.45,10.41-7.8,16.37-10.51,37.88-3.86,57.21-6.09,17.87-2.06,33.78-11.82,49-21.35,14-8.74,29.19-19.07,33-35.13l6.39-17.37,16.21-20.32c1.25-3.06,3.75-5.4,6.18-7.65,4-3.73,8.11-7.49,12.79-10.4a44,44,0,0,1,27.51-6.39l11.62,5Zm158-504a11,11,0,0,1-4.32-4c-1.89-3-2.55-6.56-3.18-10-4.74,8.87-7.92,18.49-11.07,28q-1.52,4.62-3,9.23l-6.84,20.73c-4.49,13.62-9,27.61-8.49,42l.3,11,7.52,36.59a50.58,50.58,0,0,1,31.74-24.26,22.64,22.64,0,0,0-8.91-2,43.37,43.37,0,0,1,24.28-17.25C1319.34,2270.68,1300.91,2181.84,1299.52,2181.14Zm44.73,736.61a238.84,238.84,0,0,1,42.7-.53c6.61.51,13.28,1.3,19.83.3s13.12-4.05,16.7-9.62c2.67-4.15,3.42-9.21,4-14.1a483.83,483.83,0,0,0,3-86.18l-5-30.67c-4.8-14.77-4.11-30.66-5.52-46.13-2.47-27.19-11.56-54.18-7.85-81.23l-1.32-10c.7-14,7.64-26.82,14.41-39.08q6.72-12.17,13.43-24.32c.14,1.83,2.65,2.47,4.39,1.87s3.22-1.92,5-2.2c2.09-.32,4.09.78,6.08,1.47,5.54,1.92,11.61.76,17.47,1,9.24.3,18,4,26.08,8.56,27.9,15.82,48.49,41.83,66.18,68.59s33.38,55.1,54.9,78.88l5.35,7.88c16.5,6.37,28.85,20.42,44.56,28.55a123.55,123.55,0,0,0,20.19,7.75c65.47,20.35,134,29.08,202.32,34.67,19.55,1.6,42,1.87,55.3-12.59,10.65-11.6,11.58-29,10.81-44.69-1.91-39.16-11.14-78.83-33-111.38-7-10.4-15.14-19.93-23.47-29.28-23.57-26.45-49.47-52.19-82-66.32-19-8.27-39.6-12.24-60-16.15l-41.68-8c-10.16-2-20.35-3.9-30.65-4.85-32.48-3-65.09,4.11-97.7,3.26l-14.54.14c-18.27,3.7-36.57,7.4-55.06,9.77-5.31.68-10.68,1.26-15.77,2.93s-10,4.52-13,8.92c-1.23,1.77-2.19,3.8-3.92,5.06-2.06,1.51-4.78,1.63-7.33,1.7l-29.77.8a12.66,12.66,0,0,1-3.59-.25,16.88,16.88,0,0,1-3.36-1.58,24.35,24.35,0,0,0-8.68-2.71h-5.31c-19.45-14.7-30.28-37.85-40.37-60.05-1.39-3-2.77-6.1-3.86-9.27a106,106,0,0,1-3.31-13l-7-33.21-1.63-6.43c-1.14-5.48-7.11-8.73-12.69-9.05s-11,1.49-16.54,2.43c-2.54.44-5.11.69-7.67.94l-38.88,3.83c-6.88.68-14,1.45-19.92,5.08l.84.68-10.27,7.88a50.33,50.33,0,0,0-15,5.14,14.24,14.24,0,0,1-9.46,2.42,48.4,48.4,0,0,0-16,2.89,2,2,0,0,1-1.55.13,1.91,1.91,0,0,1-.75-.86l-5.29-9.18L1218,2436q-3.51,28.11-8,56.08l-4.25,33.46a62.88,62.88,0,0,1-6.22,10.18l-9.06,12.91c-7.86,11.19-15.89,22.57-26.78,30.83a4.35,4.35,0,0,0-1.72,1.94,4.2,4.2,0,0,0,.29,2.58q9.09,27.26,19.8,53.92c.86,2.14,2.38,4.7,4.68,4.4l16.55,45.43c1.7,7.51,3.41,15.06,4.07,22.74a73.86,73.86,0,0,0,1.17,10.41,51.72,51.72,0,0,0,4.57,11.28L1230.5,2767c1.72,3.45,4.53,7.48,8.33,6.78l12.39,8.35a562.31,562.31,0,0,1,35.87,75.84c4.12,10.71,8,21.65,14.18,31.29Zm-84.13-927.87c.23-2,.43-4.09-.42-5.9a10.56,10.56,0,0,0-2.94-3.35,50.32,50.32,0,0,0-11.52-7.81,21,21,0,0,0-13.6-1.64l4-5.26c1.69-2.24,3.82-4.7,6.62-4.61A35.07,35.07,0,0,1,1260,1943l1.28-1.88a62,62,0,0,1-.88-12.91l-.1-2.37-8.74,1.77c-7.54,1.52-15.25,3-22.88,2-.93,2.38,1.65,5.43,0,7.43a4.43,4.43,0,0,1-1.71,1.12l-30.81,14a44.08,44.08,0,0,1,.47,9.18l-6.35,4c-7.83-.76-15.3,3-22.24,6.74l-15.49,8.23c.19,1.25,2.23.93,3.08,1.85s-.12,2.58-1.29,3.23-2.65,1.08-3.16,2.31l1.61,3.5a25.09,25.09,0,0,0,2.17,7l4,5.39,17.88,3.39c5.69,1.07,11.44,2.17,16.74,4.49a76.8,76.8,0,0,1,11.68,6.83l13.44,8.94c7.09,4.73,14.23,9.49,20.22,15.55a63.18,63.18,0,0,1,11.13,15.33c1.63,3.16,3,6.46,4.35,9.75,5,12.2,10.12,24.6,11.61,37.71.88,7.7.69,16.08,5.27,22.32,7.46-42.17,2.46-85.75-8-127.28a12.51,12.51,0,0,0-1.33-3.64,16.63,16.63,0,0,0-3-3.19l.87-1.09ZM400.5,799.55a112.2,112.2,0,0,0-12.33,50,38.9,38.9,0,0,0,1.53,12.67c1.41,4.25,4,8,6,12,4,7.8,5.79,16.52,9.51,24.43a56.49,56.49,0,0,0,29.14,27.82c6.23,2.59,13.08,4,19.76,3,7.93-1.2,15.46-5.79,23.43-4.81l-2.77,5.62c6.64-3.81,14.89-2.44,22.5-1.56,14.5,1.66,29.51,1,43.2-4s26-14.86,32.11-28.11l.11.28c25.55,9.63,52.62,19.42,79.54,14.84a77.51,77.51,0,0,0,64.12-68.65l12,.27c1.7-12.38-6.2-23.72-12.26-34.65a134.09,134.09,0,0,1-11.36-27.22L708,764.56l11-21.36c1.79-3.49,3.59-7,5.53-10.41,4.3-7.6,9.27-14.79,14.24-22l7.59-13.72c-.05-4.91,6.45-6.64,9.7-10.31a18,18,0,0,0,2.67-4.52l12.09-26A30.82,30.82,0,0,1,777,673.67a272.08,272.08,0,0,1,16.11-48.55,81.14,81.14,0,0,0,6.48,17.31c1.36-13.54,2.76-27.29,7.83-39.92,8.1-20.21,25.48-37.77,25-59.53l7.47-10.77,10.87-38.13c.82-2.88,1.71-5.89,3.76-8.07,2.19-2.34,5.39-3.4,8.1-5.12,11.52-7.26,13.13-25.18,25.28-31.35a9.36,9.36,0,0,1,7-1c5.3,1.67,6,8.8,5.49,14.33-1.12,11.65-3.37,23.23-3.27,34.93.16,18.19,6,35.79,11.73,53,5,14.86,9.93,29.75,16.49,44,5.32,11.55,11.65,22.59,17.44,33.91,17,33.3,29.68,69.64,54.45,97.66l3.39,13.49a183.42,183.42,0,0,0,19.12,48.84c3.08,5.43,6.45,10.7,9.2,16.3,10.09,20.5,11.45,44.06,12.62,66.88l1.78-.39c1.58-1.2,2.49-3.06,3.79-4.56s3.41-2.67,5.22-1.85c1.34.61,2,2.12,3.27,2.92a5.85,5.85,0,0,0,3.21.76,5.08,5.08,0,0,0,2.38-.44c2.87-1.45,2.49-6.29,5.36-7.73,2-1,4.39.27,6,1.86a2.57,2.57,0,0,0,1.23.87,2.26,2.26,0,0,0,1.85-.77c2.75-2.35,5-5.18,7.61-7.7s5.6-4.79,9.11-5.61l7-6.44c15.51,9.87,24,29.64,20.51,47.69l-8.8,13.86c-2.75.53-3.39,4.21-2.91,7s1.38,5.91-.34,8.11c-.84,1.08-2.18,1.71-2.88,2.87a3.48,3.48,0,0,0,2.41,5c.12,1.41-1.68,2.07-3.08,2.26-5.81.78-11.69,1.45-17.23,3.37s-10.79,5.27-13.83,10.28c-3.4,5.61-3.65,12.5-3.81,19l-1.28,54.92c-.13,5.3-.25,10.61,0,15.9.26,4.86.87,9.68,1.48,14.5l3.24,25.64-.31,13.3c-1.21,8.32-2,18,4.11,23.84,4.09,3.89,10.1,4.76,15.7,5.43,9.89,1.2,20,2.39,29.76.68,3.93-.69,7.86-1.84,11.84-1.5,3.75.32,7.26,2,11,2.7,7.07,1.41,14.33-.51,21.28-2.42l7,4.35c5.88,2.21,10.77,6.39,15.53,10.49,16,13.77,32.16,27.76,44,45.25l-6.37,16.28c-2,4.22,3,8.16,5.32,12.23,3.06,5.33,1.39,12.11,2.92,18.07,1.11,4.34,3.87,8,5.84,12.06,4.8,9.79,4.87,21.21,3.67,32a153,153,0,0,1-5.6,27.39c-3.89,12.84-9.44,25.11-15,37.33l-28.53,63-6.34.66c-6.76,2.37-12.86,6.29-18.88,10.17l-32.61,21-2.55,1.29a212.86,212.86,0,0,0-36.55,2.28l12.61,6.62c-5.72-1.85-11.91-.87-17.87-.07a274.35,274.35,0,0,1-55.69,1.81c-13.87-1-28.69-3.47-38.6-13.21a2.75,2.75,0,0,0-1.89-1.07c-1.08.06-1.62,1.32-1.83,2.38-1.5,7.28.39,14.81,2.59,21.91a254.9,254.9,0,0,0,36.59,73.59l.08,1.73,3.8-6.31,15.5-25.71c2.65-4.4,6.06-9.29,11.18-9.67,3.56-.27,7,1.89,9.06,4.77s3.1,6.41,3.9,9.89c2.74,12,3.51,24.57,8.29,35.92,6,14.17,17.65,25.12,25.24,38.5a73.69,73.69,0,0,1,7.55,19.2l.76-1.34c-1.66-9.19,2.83-18.61,9.44-25.21s15.12-10.86,23.47-15l46.61-23.24a70.24,70.24,0,0,0,12.24-7.16c6-4.7,10.29-11.18,14.47-17.55l9.25-14.07,7.63-11.32a81.14,81.14,0,0,1,16.26-19.53c2.8-2.45,5.78-4.72,8.45-7.31a101.22,101.22,0,0,0,10.45-12.7c18.18-24.45,38.38-47.57,61.83-67,3.53-2.92,7.19-5.8,11.45-7.49s8.9-2.1,13.47-2.5l41.22-3.61,14.24-1.13c13.9,1.5,28.58,2.89,41.32-2.86a11.35,11.35,0,0,1,4.21-1.35,10,10,0,0,1,4.37,1.28c17.37,8.1,36,15,55.13,14.37,2.45-.08,5.83-1.81,4.64-4a55.62,55.62,0,0,0,36.08-1.9,19.63,19.63,0,0,1,5.38-1.72,18.41,18.41,0,0,1,4.12.25,151.36,151.36,0,0,0,70.41-7.3c-3.2-11.69-7.5-23.06-11.79-34.4l-15.83-41.83,3.29-7.35c9-17.72,27.74-27.88,44.78-38.13a465.57,465.57,0,0,0,58.63-41.76l20.23-11.82c2.78-7.43,8.56-13.28,14.17-18.88a18.94,18.94,0,0,1,5.33-4.16,17.75,17.75,0,0,1,7.1-1.1c13.33-.13,27.79,1.13,38.81-6.37l41-.09c75.33-59.3,121.36-154.15,121.35-250s-46.08-190.7-121.42-250c-15.77-12.41-33.45-24.21-41.72-42.49-5-11.14-6-23.66-6.28-35.89a331.82,331.82,0,0,1,34.8-154.22c12.85-25.71,29.3-50.43,34.12-78.77,5.82-34.2-6.11-68.65-17.86-101.3-24.7-68.66-54.91-143.72-120.33-176.06-33.34-16.48-71.55-19.31-108.67-21.59A7570.11,7570.11,0,0,0,830.57,26.9c-59.56,2.61-121.22,6.49-174,34.26-33,17.37-60.72,43.24-86.85,69.87C496.33,205.83,432,288.94,367.84,371.83l-20.77,26.84-3.67,40.87-10.81,87c-7.08,57-14,115.92,2.3,171,3,10.1,6.78,20,12.47,28.92,8.46,13.21,20.73,23.46,32.8,33.49Zm588.32,696.29c-.38-5.11-3.42-9.56-5.89-14-5.13-9.32-8.08-19.65-11-29.88l-15.53-54.66a7.32,7.32,0,0,1-8.76-.07c-1.21,5.75-4.73,10.7-8,15.61-9,13.6-16.55,29.4-14.51,45.56l-.51.31c7.27,5,17.45,4.44,25.1,0s13-12,16.41-20.18a142.27,142.27,0,0,1-.12,40c-.35,2.45-.84,5-2.5,6.85l-.38,2.89,0,0,8.57-6.19,8.06,6.72c3,2.53,6.11,5.12,8.24,8.45Zm-76.7-62.94a56.4,56.4,0,0,1-7.84-24.72,43.26,43.26,0,0,0-.94-8.36c-.73-2.71-2.33-5.35-4.87-6.55a86.61,86.61,0,0,1,1.62-16l-5.38,10.8a43.36,43.36,0,0,1-4.87,8.2,35.68,35.68,0,0,1-7.17,6.31c-7.09,5-14.57,9.19-23.17,10.44l9.31.8a2.83,2.83,0,0,1,1.62.48,5.09,5.09,0,0,1,1,1.74c.79,1.46,2.58,2,4.23,2.27,5.25.77,11.58-.11,15,4,.72.87,1.31,2,2.38,2.34a7.17,7.17,0,0,0,3-.18c2.81-.3,5.38,1.61,7.29,3.69s3.59,4.52,6.1,5.83c1.19.62,2.59,1,3.43,2Z"></path>
    <path data-name="3a" data-official="" data-plain="Stamen, magnified" data-loc="" d="M1548.85,2927.79c-2.2-10.47-4.41-21.06-4.07-31.75s3.5-21.67,10.8-29.5a47.47,47.47,0,0,1,13.76-9.75c10.38-5.15,22.12-8,33.64-6.67s22.72,7.17,29.28,16.72c3.86,5.61,6,12.22,7.66,18.83a157.27,157.27,0,0,1-9.39,102.49c-4.2,9.22-9.36,18.21-11.08,28.2-2.07,12.1,1.11,24.41,1.79,36.66s-2.09,26.16-12.34,32.9c-3.55,2.33-7.69,3.58-11.8,4.66a187,187,0,0,1-48,6.12c-7.29,0-15.14-.68-20.7-5.39-7-5.94-8.06-16.75-5-25.41s9.38-15.69,15.49-22.55,12.31-14,15-22.82c3.13-10.15,1.2-21.09-.76-31.53q-4.22-22.58-8.45-45.13Z"></path>
    <path data-name="3b" data-official="" data-plain="Pistil" data-loc="" d="M1685.9,2906c-3.54-19.16-6.37-41.23,6.23-56.09,11.57-13.65,33.55-15.4,49-6.37s24.47,26.71,26.37,44.5c1.1,10.32.09,20.72-.07,31.09-.52,36.14,9.39,71.57,12.65,107.56,1.22,13.52,1.27,28-5.93,39.55-5.76,9.21-15.56,15.31-25.88,18.7s-21.25,4.34-32.07,5.27l-23,2c-2.4.21-4.92.39-7.13-.57-2.85-1.26-4.57-4.16-5.89-7-6.12-13-7.75-27.64-8.58-42a435.12,435.12,0,0,1,9.66-119.51Z"></path>
    <path data-name="3c" data-official="" data-plain="Cross-section of Ovary" data-loc="" d="M1829.82,2933.21c12.2-11.29,14.9-30.2,27.07-41.53,14.95-13.92,39.65-11.43,57-.58s29.34,28.14,42.27,44c7,8.54,14.43,16.85,19.73,26.53s8.36,21.11,5.81,31.85c-2.9,12.22-12.64,21.83-23.56,28-3.24,1.84-6.73,3.54-9,6.52-3.15,4.16-3.2,9.94-5.76,14.49-3.53,6.27-11,9-17.94,11a222.1,222.1,0,0,1-52.5,8c-4.46.13-9.38,0-12.68-3-5.84-5.31-2.66-14.88-4.08-22.63-1.33-7.26-7-13.06-13.34-16.82s-13.51-5.88-20.29-8.79c-5.37-2.31-10.79-5.38-13.71-10.44a22.78,22.78,0,0,1-2.67-9.89c-1-13.71,5.23-26.79,11.27-39.13Z"></path>
    <path data-name="3d" data-official="" data-plain="Seed-vessel" data-loc="" d="M1950.88,2667.3a266.56,266.56,0,0,1,44-175.12c16.07-23.72,40.85-46.7,69.27-43,18.71,2.44,33.83,16,47.37,29.11,37.73,36.64,75.1,78.82,82.82,130.84,3,20.4,1.26,41.18-.52,61.73l-9.6,110.71c-2.38,27.4-4.78,54.94-11.4,81.64-8.34,33.61-23.2,65.17-35.4,97.58a642.38,642.38,0,0,0-22.75,73.54c-2.56,10.43-4.94,21.14-10.62,30.26-16.24,26.07-52.94,30-83.1,24.18-8.68-1.68-18.22-4.64-22.42-12.42-2.18-4-2.55-8.81-2.22-13.38,1.2-16.39,10.62-31,21.12-43.65,4.21-5.07,8.8-10.25,10.25-16.67,1.81-8-1.64-16.24-5-23.76l-71.83-160.09-4.39-18.22c10.65-11.6,11.58-29,10.81-44.69Z"></path>
    <path data-name="4" data-official="Thea Bohea" data-plain="Black Tea-plant" data-loc="China" d="M1430.5,2807.62l-5-30.67c-4.8-14.77-4.11-30.66-5.52-46.13-2.47-27.19-11.56-54.18-7.85-81.23l-1.32-10c.7-14,7.64-26.82,14.41-39.08q6.72-12.17,13.43-24.32c.14,1.83,2.65,2.47,4.39,1.87s3.22-1.92,5-2.2c2.09-.32,4.09.78,6.08,1.47,5.54,1.92,11.61.76,17.47,1a47.9,47.9,0,0,1,16.89,4l-.69,1.27-1,22.88c-.11,2.56-.22,5.13-.14,7.69a73.3,73.3,0,0,0,3.61,19.61l17.71,65.7a403.57,403.57,0,0,0,24.67,140.31c2,5.39,4.09,10.82,4.61,16.54,1.3,14.2-8,28.07-20.65,34.67s-27.92,6.74-41.72,3.11-26.4-10.75-38.54-18.24Zm-70.78-390.69c-5.58-.32-11,1.49-16.54,2.43-2.54.44-5.11.69-7.67.94l-38.88,3.83c-6.88.68-14,1.45-19.92,5.08l.84.68-10.27,7.88a50.33,50.33,0,0,0-15,5.14,14.24,14.24,0,0,1-9.46,2.42,48.4,48.4,0,0,0-16,2.89,2,2,0,0,1-1.55.13,1.91,1.91,0,0,1-.75-.86l-5.29-9.18L1218,2436l0,.12q3.09-24.63,5.39-49.36l.58-1.28c7.59-5,13.47-12.27,18-20.15s7.83-16.39,11.1-24.87l2.78-8.22-.08-13.48,14.64-4.13a50.58,50.58,0,0,1,31.74-24.26,22.64,22.64,0,0,0-8.91-2,43.26,43.26,0,0,1,29.86-18.36,4,4,0,0,1-.41-4.84,10.26,10.26,0,0,1,3.9-3.42,53.84,53.84,0,0,1,9.92-4.53l-.94-41.35a72.91,72.91,0,0,1,10.26-25.47c2.85-4.34,6.22-8.39,8.46-13.08,3.41-7.17,4.19-15.88,9.81-21.49,4.55-4.57,11.24-6,17.32-8.16s12.48-6,13.82-12.27l-5.46-9.13q-8.64-19.76-15.65-40.18l-2.63-13.81c-7.5-9.82-15.79-20.12-27.56-23.88-4.21-1.35-8.83-1.84-12.42-4.41s-5.65-6.93-9.14-9.7c-6.24-4.95-16.53-4.47-20.55-11.35L1288,2008.83a91.16,91.16,0,0,0-21.74-14.68c-2-1-4.23-1.88-6.39-1.38l.25-2.89c.23-2,.43-4.09-.42-5.9a10.56,10.56,0,0,0-2.94-3.35,50.32,50.32,0,0,0-11.52-7.81,21,21,0,0,0-13.6-1.64l4-5.26c1.69-2.24,3.82-4.7,6.62-4.61A35.07,35.07,0,0,1,1260,1943l1.28-1.88a62,62,0,0,1-.88-12.91l-.1-2.37,9.91-2,7.22-4.48a92.8,92.8,0,0,0,32.17-18.62l2.51-5c-7.74-5.25-17.54-6.64-26.87-6s-18.44,3-27.63,4.75c-24.51,4.64-49.64,4.51-74.5,6.65-7.57.65-15.56,1.67-21.58,6.31,4.61-4.56,5.88-11.51,5.89-18s-1-13,.08-19.42c2.67-16,17.72-27.36,33.25-32.11s32.09-4.58,48.1-7.28a135.45,135.45,0,0,0,31.89-9.53c2.79-1.22,5.54-2.54,8.43-3.49a70.34,70.34,0,0,1,10.66-2.33,155.48,155.48,0,0,1,17.71-2.21c9.87-.46,19.89,1,29.57-1,4.22-.87,8.28-2.37,12.48-3.35a52.33,52.33,0,0,1,51,17.15l1.84.13c-.39-.93.74-1.83,1.74-2s2.13,0,3-.56c.55-.4.85-1.06,1.38-1.49a4.14,4.14,0,0,1,3-.55q5.24.38,10.4,1.26a2.91,2.91,0,0,1,2.21-2.66c.82-.18,1.76,0,2.4-.57a3,3,0,0,0,.74-2c1.19-9.63,10-17.35,19.62-18.62s19.47,3.23,26,10.43c-1.85-6.51-3.42-14.31,1.08-19.36,3.11-3.49,8.11-4.38,12.42-6.2,8.21-3.48,14.27-10.67,19-18.26l-4.26-8c-8.89-3.82-18-7.69-27.58-8.64-10.61-1-21.32,1.53-32,.69-15.06-1.18-29.48-9.15-44.48-7.35-1.9.23-4,.72-5.08,2.27a99,99,0,0,1,2-30.9c1-4.33,2.24-8.67,2.14-13.11s-1.86-9.14-5.65-11.46l-6.54-14.14,11.3-17.07,8.41-12.71c4.24-6.4,8.48-12.81,13.2-18.88l45.83-39.42a12.14,12.14,0,0,0,2.93-2,11.82,11.82,0,0,0,2.32-4.51l5.89-17.14c2.26-6.56,26.22-10.16,22.59-23.47l-12.11-5.36,27.09-34.74a17,17,0,0,1,2.26-2.54,18.14,18.14,0,0,1,2.91-1.89q13.93-7.85,27.18-16.82a43.39,43.39,0,0,0,7.22-5.71c2.9-3,5-6.81,8.14-9.55a35,35,0,0,1,7.14-4.38l14.63-7.41a94.75,94.75,0,0,1,14.8-6.46c3.39-1,6.93-1.7,10.15-3.2,4.65-2.16,8.37-6,11.45-10l6.11-13.2c9.45-17.26,20.5-34.74,37.56-44.55a119,119,0,0,1,16.75-7.46,132.36,132.36,0,0,1,14.57-5c7.18-1.86,14.61-2.51,22-3.13l9.78-1.24c14.89-14.16,23.48-34.15,26-54.53s-.57-41.17-6.53-60.83c-4.34-14.34-10.2-28.35-12-43.22l3.31-23.58c2.78-7.43,8.56-13.28,14.17-18.88a18.94,18.94,0,0,1,5.33-4.16,17.75,17.75,0,0,1,7.1-1.1c13.33-.13,27.79,1.13,38.81-6.37l41-.09,4.3,12.61c24.85,25.53,53.47,52.81,89.08,53.85,37,1.08,72.4-27.15,108.35-18.28,28.48,7,46.42,35.07,57.21,62.35a294.5,294.5,0,0,1,17.3,150.93l8.15,49.24q12.64,57.62,20.2,116.19c5,38.62,8.27,77.77,3.86,116.46s-16.94,77.17-40.95,107.84c-17.53,22.39-40.83,40.29-55.16,64.85-22.54,38.65-19.15,86.53-15.07,131.08.83,9.08,1.72,18.4,5.82,26.55,3.1,6.17,7.87,11.31,12.58,16.37l51,54.73c11,11.78,22.26,24.12,26.92,39.51,2.76,9.07,3,18.69,3.11,28.17.25,28-1,56.4-10,82.87s-26.69,51-52,62.9L2056,2312.5c-15.62,8.84-32.94,18-50.59,14.72-15.29-2.83-27.21-14.36-40.39-22.61a103.57,103.57,0,0,0-86.85-10.13c-31,10.52-54.84,35-80.67,55.15a336.63,336.63,0,0,1-64.73,39.64c-25.5,11.89-53,20.87-74.63,38.79-31.34,25.91-48.43,68.75-85.31,85.86l1.47,9.41c-18.27,3.7-36.57,7.4-55.06,9.77-5.31.68-10.68,1.26-15.77,2.93s-10,4.52-13,8.92c-1.23,1.77-2.19,3.8-3.92,5.06-2.06,1.51-4.78,1.63-7.33,1.7l-29.77.8a12.66,12.66,0,0,1-3.59-.25,16.88,16.88,0,0,1-3.36-1.58,24.35,24.35,0,0,0-8.68-2.71l4.73-3.15Q1451,2514,1461,2482.25l-6-8.79q-4.53-10.53-9.07-21.05c-5.28-12.25-10.6-24.57-17.94-35.7l-3-6.32a20.83,20.83,0,0,0-11.18-4.44c-6.39-.53-12.59,1.91-18.72,3.79a113.11,113.11,0,0,1-23.06,4.52Z"></path>
    <path data-name="5" data-official="Stuartia pentagyna (Malochodendron ovatum)" data-plain="" data-loc="North America" d="M1640.62,2769.54c1.73,9.78,3.08,21.07-3.45,28.56-6.27,7.2-17.32,7.72-26.67,5.76s-18.46-5.85-28-5.48c-5.49.21-11,1.83-16.38,1.08-10.68-1.47-18.14-11.67-21.28-22s-3.29-21.34-6.33-31.68a59,59,0,0,0-22.66-31.52l-7.81-14.84-17.71-65.7a73.3,73.3,0,0,1-3.61-19.61c-.08-2.56,0-5.13.14-7.69l1-22.88.69-1.27-.08,0a87.8,87.8,0,0,1,9.27,4.6c27.9,15.82,48.49,41.83,66.18,68.59s33.38,55.1,54.9,78.88l5.35,7.88Zm97.24-1503.81c-9.16-1.14-19.09-2.13-27,2.54-3.48,2-6.31,5-9.72,7.18-4.34,2.75-9.42,4-14.41,5.21-17.84,4.21-36.2,7.74-54.42,5.71l-9.44.59,10.84,28.65c4.29,11.34,8.59,22.71,11.79,34.4a151.36,151.36,0,0,1-70.41,7.3,18.41,18.41,0,0,0-4.12-.25,19.63,19.63,0,0,0-5.38,1.72,55.62,55.62,0,0,1-36.08,1.9c1.19,2.15-2.19,3.88-4.64,4-19.17.67-37.76-6.27-55.13-14.37a10,10,0,0,0-4.37-1.28,11.35,11.35,0,0,0-4.21,1.35c-12.74,5.75-27.42,4.36-41.32,2.86l-14.24,1.13-41.22,3.61c-4.57.4-9.21.81-13.47,2.5s-7.92,4.57-11.45,7.49c-23.45,19.45-43.65,42.57-61.83,67a101.22,101.22,0,0,1-10.45,12.7c-2.67,2.59-5.65,4.86-8.45,7.31a81.14,81.14,0,0,0-16.26,19.53l-7.63,11.32-9.25,14.07c-4.18,6.37-8.48,12.85-14.47,17.55a70.24,70.24,0,0,1-12.24,7.16l-46.61,23.24c-8.35,4.16-16.86,8.43-23.47,15s-11.1,16-9.44,25.21l-.76,1.34,0,.06a75.27,75.27,0,0,1,.23,34.3c-1.34,5.78-3.43,11.52-7.19,16.11-8.81,10.78-25,13.36-33.58,24.3h1.55c20.77-8.92,42.59-18,65.11-16.14,7.94.66,15.7,2.68,23.41,4.71,3.46.91,7,1.86,9.91,4a29,29,0,0,1,5.78,6.26c3.88,5.16,7.8,10.46,9.8,16.59,2.37,7.3,1.83,15.19,1.26,22.84l1.68-2c.14-1.27.59-2.87,1.86-3,.67-.05,1.34.39,2,.21s1-.91,1.29-1.53a11.94,11.94,0,0,1,10.59-6.67l.9-4.56c10.69,2.32,21.58-1.91,32.46-3.08,10.71-1.15,21.6.69,32.26-.85,4-.58,8.05-1.65,12.13-1.68,3.32,0,6.62.65,9.94.64s6.85-.82,9.11-3.24l1.08.31a45.73,45.73,0,0,1,19,2.16c6.36,2.15,12.42,5.73,19.12,5.93,9.25.28,18.23-6,27.23-3.84l24.9,7.7-6.54-14.14,11.3-17.07,8.41-12.71c4.24-6.4,8.48-12.81,13.2-18.88l45.83-39.42a12.14,12.14,0,0,0,2.93-2,11.82,11.82,0,0,0,2.32-4.51l5.89-17.14c2.26-6.56,26.22-10.16,22.59-23.47l-12.11-5.36,27.09-34.74a17,17,0,0,1,2.26-2.54,18.14,18.14,0,0,1,2.91-1.89q13.93-7.85,27.18-16.82a43.39,43.39,0,0,0,7.22-5.71c2.9-3,5-6.81,8.14-9.55a35,35,0,0,1,7.14-4.38l14.63-7.41a94.75,94.75,0,0,1,14.8-6.46c3.39-1,6.93-1.7,10.15-3.2,4.65-2.16,8.37-6,11.45-10l6.11-13.2c9.45-17.26,20.5-34.74,37.56-44.55a119,119,0,0,1,16.75-7.46,132.36,132.36,0,0,1,14.57-5c7.18-1.86,14.61-2.51,22-3.13l9.78-1.24c14.89-14.16,23.48-34.15,26-54.53ZM336.79,778.28c-36.78.55-73.09,7.86-109.15,15.15l-56.4,11.39c-9.68,2-19.51,4-28.27,8.54a53.61,53.61,0,0,0-28.16,43.93c-1.35,26.6,17,49.66,34.38,69.87l68.15,79.38c9.75,11.36,19.61,22.82,31.65,31.73,12.59,9.32,27.16,15.54,41.58,21.67L394,1104c13.59,5.78,28.89,13.52,32.13,27.93,2.78,12.36-4.6,24.42-10.55,35.61a186.25,186.25,0,0,0-20.78,67.82l4.47,18.54c4.73.05,9.83.21,13.59,3.08,1.76,1.33,3.09,3.17,4.9,4.43,1.56,1.1,3.45,1.72,4.88,3a11.48,11.48,0,0,1,3.07,6c2.38,9.76-.08,20-.87,30s.78,21.41,8.75,27.53a4.28,4.28,0,0,1,1.82,2.07,19.57,19.57,0,0,1,0,2.42,3.23,3.23,0,0,0,2.95,2.52,9.34,9.34,0,0,0,4.08-.73c2.09,9.42,15.82,11.79,19.16,20.84l2.49,3.69a84.74,84.74,0,0,0,9.64,19.27c10.87,16.2,26.93,28.08,42.66,39.62,5.92,4.35,12.17,8.83,19.44,9.83l13.74,2.28c5.08,1.76,10.71.48,15.71-1.48s9.8-4.62,15.06-5.71c11-2.3,22.29,2.57,31.82,8.59l19.2-4.18a23.42,23.42,0,0,0,14.76-7.43c3.45,2.68,8.39,2.69,12.48,1.15s7.51-4.4,10.85-7.21a49.14,49.14,0,0,1,2.08,7.81c2.48-4.91,9.33-5,14.28-7.4a15,15,0,0,0,8.28-13.49,4.9,4.9,0,0,1,.32-2.53,4.26,4.26,0,0,1,1.86-1.51l9.57-5.09c7.08-3.76,14.22-7.55,21.93-9.76a57.24,57.24,0,0,1,11.25-2,87.71,87.71,0,0,1,13.56.16c6.41.49,13,1.36,18.59,4.47,7.8,4.32,13.68,12.81,22.54,13.74l.59.54a60,60,0,0,0,53.17,15,26.9,26.9,0,0,1,4.07-.72,22.89,22.89,0,0,1,3.2.12l4.76.41c8.6-1.25,16.08-5.41,23.17-10.44a35.68,35.68,0,0,0,7.17-6.31,43.36,43.36,0,0,0,4.87-8.2l5.38-10.8a86.61,86.61,0,0,0-1.62,16c2.54,1.2,4.14,3.84,4.87,6.55a43.26,43.26,0,0,1,.94,8.36,56.4,56.4,0,0,0,7.84,24.72l.63,3.15a6.28,6.28,0,0,1,1,3c1.59,10.21,3.06,20.87,8.88,29.4l2-9.83.51-.31c-2-16.16,5.55-32,14.51-45.56,3.23-4.91,6.75-9.86,8-15.61a7.32,7.32,0,0,0,8.76.07L972,1451.91c2.9,10.23,5.85,20.56,11,29.88,2.47,4.49,5.51,8.94,5.89,14l-.73,1.35c2.19,3.42,3.25,7.43,4.95,11.12,3.31,7.22,8.93,13.06,13.59,19.49,5.12,7.07,9.1,14.88,13,22.67l-.53-3q7.39-12.29,14.81-24.57l.07-.11-.08-1.73a254.9,254.9,0,0,1-36.59-73.59c-2.2-7.1-4.09-14.63-2.59-21.91.21-1.06.75-2.32,1.83-2.38a2.75,2.75,0,0,1,1.89,1.07c9.91,9.74,24.73,12.24,38.6,13.21a274.35,274.35,0,0,0,55.69-1.81c6-.8,12.15-1.78,17.87.07l-12.61-6.62a212.86,212.86,0,0,1,36.55-2.28l2.55-1.29,32.61-21c6-3.88,12.12-7.8,18.88-10.17l6.34-.66,28.53-63c5.54-12.22,11.09-24.49,15-37.33a153,153,0,0,0,5.6-27.39c1.2-10.83,1.13-22.25-3.67-32-2-4-4.73-7.72-5.84-12.06-1.53-6,.14-12.74-2.92-18.07-2.34-4.07-7.35-8-5.32-12.23l6.37-16.28c-11.8-17.49-28-31.48-44-45.25-4.76-4.1-9.65-8.28-15.53-10.49l-7-4.35c-7,1.91-14.21,3.83-21.28,2.42-3.7-.74-7.21-2.38-11-2.7-4-.34-7.91.81-11.84,1.5-9.81,1.71-19.87.52-29.76-.68-5.6-.67-11.61-1.54-15.7-5.43-6.08-5.79-5.32-15.52-4.11-23.84l.31-13.3-3.24-25.64c-.61-4.82-1.22-9.64-1.48-14.5-.29-5.29-.17-10.6,0-15.9l1.28-54.92c.16-6.55.41-13.44,3.81-19,3-5,8.3-8.35,13.83-10.28s11.42-2.59,17.23-3.37c1.4-.19,3.2-.85,3.08-2.26a3.48,3.48,0,0,1-2.41-5c.7-1.16,2-1.79,2.88-2.87,1.72-2.2.83-5.35.34-8.11s.16-6.44,2.91-7l8.8-13.86c3.5-18-5-37.82-20.51-47.69l-7,6.44c-3.51.82-6.52,3.08-9.11,5.61s-4.86,5.35-7.61,7.7a2.26,2.26,0,0,1-1.85.77,2.57,2.57,0,0,1-1.23-.87c-1.56-1.59-4-2.86-6-1.86-2.87,1.44-2.49,6.28-5.36,7.73a5.08,5.08,0,0,1-2.38.44,5.85,5.85,0,0,1-3.21-.76c-1.23-.8-1.93-2.31-3.27-2.92-1.81-.82-3.92.36-5.22,1.85s-2.21,3.36-3.79,4.56l-1.78.39c-1.17-22.82-2.53-46.38-12.62-66.88-2.75-5.6-6.12-10.87-9.2-16.3a183.42,183.42,0,0,1-19.12-48.84l-3.39-13.49c-24.77-28-37.44-64.36-54.45-97.66-5.79-11.32-12.12-22.36-17.44-33.91-6.56-14.23-11.53-29.12-16.49-44-5.75-17.25-11.57-34.85-11.73-53-.1-11.7,2.15-23.28,3.27-34.93.54-5.53-.19-12.66-5.49-14.33a9.36,9.36,0,0,0-7,1c-12.15,6.17-13.76,24.09-25.28,31.35-2.71,1.72-5.91,2.78-8.1,5.12-2,2.18-2.94,5.19-3.76,8.07l-10.87,38.13L832.44,543c.5,21.76-16.88,39.32-25,59.53-5.07,12.63-6.47,26.38-7.83,39.92a81.14,81.14,0,0,1-6.48-17.31A272.08,272.08,0,0,0,777,673.67a30.82,30.82,0,0,0-6.24-17.37l-12.09,26a18,18,0,0,1-2.67,4.52c-3.25,3.67-9.75,5.4-9.7,10.31l-7.59,13.72c-5,7.18-9.94,14.37-14.24,22-1.94,3.42-3.74,6.92-5.53,10.41l-11,21.36-3.29,16.91a134.09,134.09,0,0,0,11.36,27.22c6.06,10.93,14,22.27,12.26,34.65l-12-.27a77.51,77.51,0,0,1-64.12,68.65c-26.92,4.58-54-5.21-79.54-14.84l-.11-.28c-6.12,13.25-18.41,23.06-32.11,28.11s-28.7,5.71-43.2,4c-7.61-.88-15.86-2.25-22.5,1.56l2.77-5.62c-8-1-15.5,3.61-23.43,4.81-6.68,1-13.53-.45-19.76-3a56.49,56.49,0,0,1-29.14-27.82c-3.72-7.91-5.55-16.63-9.51-24.43-2-4-4.61-7.73-6-12a38.9,38.9,0,0,1-1.53-12.67,112.2,112.2,0,0,1,12.33-50Zm962.73,1402.86c1.39.7,19.82,89.54,18,90a42,42,0,0,1,5.58-1.11,4,4,0,0,1-.41-4.84,10.26,10.26,0,0,1,3.9-3.42,53.84,53.84,0,0,1,9.92-4.53l-.94-41.35-2.87-2.57a67.63,67.63,0,0,1-28.69-31.41,7.37,7.37,0,0,1-4-.59ZM1372.41,2426l1.63,6.43,7,33.21a106,106,0,0,0,3.31,13c1.09,3.17,2.47,6.22,3.86,9.27,10.09,22.2,20.92,45.35,40.37,60.05h5.31l4.73-3.15Q1451,2514,1461,2482.25l-6-8.79q-4.53-10.53-9.07-21.05c-5.28-12.25-10.6-24.57-17.94-35.7l-3-6.32a20.83,20.83,0,0,0-11.18-4.44c-6.39-.53-12.59,1.91-18.72,3.79a113.11,113.11,0,0,1-23.06,4.52l-12.22,2.67C1365.3,2417.25,1371.27,2420.5,1372.41,2426Z"></path>
    <path data-name="5a" data-official="" data-plain="Pistils and Stamen" data-loc="" d="M759.31,2932.74c-6.9-11.62-9.66-27.33-1.63-38.2,3.39-4.59,8.3-7.78,13.1-10.87,12.4-8,24.92-16,38.74-21.18s29.23-7.23,43.36-3c9.79,2.92,19.18,8.83,29.35,7.81,6.78-.68,12.81-4.38,19-7.3a89,89,0,0,1,72.73-1.1c7.53,3.3,15.25,8.51,17,16.53,2.44,10.93-7.37,20.94-17.61,25.46s-21.92,6.15-30.92,12.8c-10.51,7.75-15.44,20.9-18.51,33.58-5.21,21.59-6.59,44-11.53,65.61s-14.1,43.4-31.38,57.37c-3.78,3.06-7.92,5.71-11.4,9.12-6,5.84-9.76,13.65-15.92,19.29-14.67,13.42-37.4,10.82-57,7.37-5.84-1-12-2.23-16.36-6.29-6.28-5.92-6.46-15.9-4.43-24.28s5.81-16.49,5.91-25.12c.19-16.77-13.29-30.65-16.48-47.11-3.64-18.76,6-40.43-4.82-56.17Z"></path>
</svg>
