
<svg xmlns="http://www.w3.org/2000/svg" viewBox="0 0 2081 2832" id="illustration" preserveAspectRatio="xMidYMid meet">
    <title>Terebinthaceæ</title>
    <path data-name="1" data-official="Pistacia Terebinthus" data-plain="Turpentine Tree" data-loc="South Europe" d="M1655.34,2398.14c2.25,12.14,2.81,24.84-.7,36.67s-11.53,22.71-22.85,27.63c-6,2.6-12.6,3.45-19.13,3.72-3.41.14-6.9.13-10.11-1-4-1.41-7.23-4.43-9.92-7.7-10.3-12.54-14-29.06-17.72-44.85q-10.73-45.27-25.36-89.5c-4.15-12.54-8.54-25-12.1-37.74-8.39-30-12.09-61.11-15.76-92.05L1514.8,2157a158.44,158.44,0,0,0-3-21.08l-3.42-18.25a131.17,131.17,0,0,0-3.57-15.58c-2.15-6.84-5.45-13.93-3.6-20.85,5,7,13.12,11,20.76,15s15.54,8.68,19.53,16.32l-2,4c2.43,11.84,8.25,31.55,12,43.06q8.1,25.24,16.21,50.48a51.44,51.44,0,0,0,3.57,9.08c1.17,2.14,2.63,4.11,3.81,6.24a52.7,52.7,0,0,1,3.67,9.28l6.13,16.47C1604.71,2302,1645.39,2344.47,1655.34,2398.14Zm378.72-910a731,731,0,0,1,3.4,92.29c-.36,13.22-1.1,26.61-5.09,39.23-3.88,12.3-10.73,23.45-18.1,34-3,4.27-6.14,8.57-10.47,11.44-4.68,3.11-10.36,4.32-15.94,4.92a88.09,88.09,0,0,1-38.68-4.47l-10.45-4.93c-3.33-2.42-6.74-4.88-10.67-6.11-4.37-1.37-9.48-1.29-12.87-4.37-1.39-1.26-2.34-2.93-3.68-4.24a31.82,31.82,0,0,0-3-2.39c-3.73-2.83-6.64-6.6-10.17-9.67a35.36,35.36,0,0,0-21.56-8.56,19.09,19.09,0,0,1,3.33,5.34l.58,2.28c9.54,21.86,13.5,45.87,13.8,69.72.11,9.14-.41,18.7-4.94,26.64a10,10,0,0,1,3.67,6.48l-.94,14.19c-2.1,2.37-2.21,5.86-3.35,8.82-1.61,4.15-5.21,7.14-8.67,9.94a121.91,121.91,0,0,1-13.22,9.74,82.94,82.94,0,0,1-24.15,9.36c-29.67,7-61.58,3.14-89.3-9.54-12-5.47-23.11-12.5-34.23-19.5l-6.61-10c-4.3-6.89-8.64-13.89-11-21.65a28.76,28.76,0,0,0-2.46-6.68,22,22,0,0,0-4-4.55,45.28,45.28,0,0,0-7.42-6.06,15.07,15.07,0,0,0-9.12-2.39l-3-.19c-3.64-.93-7.48-.11-11.23-.42a18.79,18.79,0,0,1-6.72-1.87l-5.11-2.46c.28-2.63-1.79-5-4.18-6.13s-5.09-1.31-7.68-1.82c-6.1-1.2-11.67-4.2-17.14-7.17a28.55,28.55,0,0,1-3.6-2.19c-1-.73-1.84-1.58-2.8-2.3a26.59,26.59,0,0,0-4.73-2.69l-9.83,9.39c-10.67,1.58-22,3.58-29.85,11-3.67,3.5-6.26,8-8.58,12.47-9.38,18.25-15,38.22-24.06,56.65-3.76,7.66-8.09,15-11.94,22.63-8.56,16.93-14.67,35-19.73,53.3l-5.16,14.45c.3,3.11-1.29,6-2.41,9-2.76,7.16-2.8,15-2.8,22.71a2.57,2.57,0,0,0,.59,2,5.33,5.33,0,0,0,1.39.63,2.43,2.43,0,0,1-1.44,4.6l4.89,21c.28,1.2.83,2.65,2.06,2.76l6.8.93c2.27,2,2.76,5.24,3.28,8.2a76.26,76.26,0,0,0,3.58,13.29l.63,4.54c-2.54,6.38-7.35,11.64-12.84,15.75s-11.69,7.18-17.84,10.22a82.23,82.23,0,0,1-8.46,3.81,3.32,3.32,0,0,1-1.51.27,3.85,3.85,0,0,1-1.58-.81,14.15,14.15,0,0,0-6.26-2.47l-.25-5.2,4.23-18.81a21.78,21.78,0,0,0,.76-5.55c-.1-2.64-1.15-5.15-2.1-7.62a118,118,0,0,1-5.36-18.23c-1.06-5.12-2.32-11.07-7-13.39l-14-10.76a246.77,246.77,0,0,0-29.94-67.61l-9.68-10.05c-5.66-16.22-18.27-29-25.76-44.48-7.22-14.91-9.42-31.69-14.33-47.51-4.6-14.81-11.57-28.76-18.63-42.57q-11.87-23.22-24.21-46.19l-2.37-6.63c1.49-3.48,5.55-4.94,9.17-6,8.74-2.64,17.54-5.28,26.62-6.25l6.31-1c2.67-2.88,7-3.11,11-3.54a58.89,58.89,0,0,0,13.9-3.3l-.65-4.59a5.87,5.87,0,0,0,2.25-4.07,26.19,26.19,0,0,1,.89-4.7c1.39-3.64,5.41-5.42,8.12-8.22a2.24,2.24,0,0,1,.66-.53,2.12,2.12,0,0,1,.9-.13,10.51,10.51,0,0,0,9.17-6.21l4.84-4.06c1.15-3.42.29-7.16-.58-10.67l-8.16-33,.27-2.44c-5,1-10.26-.54-15.15.81a29.09,29.09,0,0,0-7.21,3.59c-15.92,9.61-33.37,13.66-52,12.92a98.6,98.6,0,0,1-31.18-6.91c-6.74-2.59-13.39-5.82-18.52-10.89-7.63-7.55-12-16.26-15.14-26.54-2.46-8.18-4.92-16.54-4.64-25.08.07-2.17.28-4.52-.92-6.34s-4-3.46-3.29-5.62c3-1,6.15.49,9.27.43,4.22-.09,7.93-3,10.23-6.57s3.51-7.64,5-11.59c3.6-9.53,9.18-18.51,17.19-24.79A64.19,64.19,0,0,1,1312,1420a127.82,127.82,0,0,1,46.79-13.25c7.8-.66,16.58-1,21.84-6.8l.88-.05-6.42-28.9a15.56,15.56,0,0,0-6.22-10.3l-2.1-2.16a108.72,108.72,0,0,0-27.88-16.47l-5.42-2.65c-6.36-2.41-13.33-2.51-20.13-2.41a53.39,53.39,0,0,0-6.93.43c-2.78.41-5.48,1.24-8.27,1.56a45.78,45.78,0,0,1-6.73.15,30.53,30.53,0,0,1-7.46-.82c-3.71-1-7.39-3.52-11.09-2.44l-5.69-1a36.61,36.61,0,0,0-9.85.76c-2.43.53-4.8,1.3-7.25,1.71a46.31,46.31,0,0,1-8.24.4q-5.79-.08-11.57-.31l-5.49.25q-12,1.32-24.11,1.71l-5.17,1.28c-3.94.06-8.14.2-11.38,2.43-1.74,1.19-3.07,2.9-4.84,4-2.38,1.52-5.29,1.87-8,2.61-4.21,1.15-8.09,3.31-12.3,4.44a26.35,26.35,0,0,1-13.43,0l-5.07-.42a172.23,172.23,0,0,0-19.76,10.76c-7.5,5-14.32,11.22-22.68,14.57l-3.34-3.49a45.19,45.19,0,0,1-5.3-7.6c-3.26-6.38-3.31-13.88-3.11-21l0-3a50.64,50.64,0,0,0-2.74-16.23c-2-5.74-5-11.11-6.51-17-.69-2.56-1.1-5.23-2.35-7.56l-2.43-2.38a144.74,144.74,0,0,1-14-18.45,14.87,14.87,0,0,1-1.1-1.94,15.39,15.39,0,0,1-.9-3q-3-12.69-5.89-25.37l-3.06-9.78a91.82,91.82,0,0,1,4.77-48.29c2-5.17,4.51-10.47,3.88-16l.21-12.88,1.65-91.73c.3-16.49,1.66-35.25,14.57-45.51,5-4,11.42-6.27,15.79-11,6.38-6.87,7-17.38,5.15-26.57s-5.74-17.9-7.17-27.17c-1.67-10.87.13-21.94,1.93-32.79q4.62-27.87,9.25-55.74c1.89-11.42,4-23.32,10.88-32.61,10.75-14.47,31-19.08,48.78-16.2a76.5,76.5,0,0,1,25.6,9c7.94,4.52,15,10.42,22,16.29l84.85,71,8.46,3.78a7.12,7.12,0,0,0,7.62-2c.91-1.05,1.63-2.46,3-2.78a7.29,7.29,0,0,1,0,2.51,2.06,2.06,0,0,0,1.07,2.1,1.73,1.73,0,0,0,1.72-.54,7.46,7.46,0,0,0,1-1.57c.87-1.48,2.34-2.83,4.05-2.73-.36.81-.71,1.63-1.06,2.44a5.65,5.65,0,0,0-.64,2.39,1.91,1.91,0,0,0,1.37,1.86,2.15,2.15,0,0,0,2.11-1.33,2.17,2.17,0,0,1,.41-.65c.66-.57,1.65.13,2.16.83,2.65,3.65,3.32,8.37,3.4,12.87s-.32,9.07.51,13.5l1.15,2.7a15.76,15.76,0,0,1,6.16,3.37c.89.8,2,1.78,3.11,1.47a2.23,2.23,0,0,0,1.46-2,6.35,6.35,0,0,0-.42-2.54,3.55,3.55,0,0,1,3.58,1.88A5.53,5.53,0,0,1,1340,962a8.71,8.71,0,0,1,4.33.2c.68.2,1.48.76,1.25,1.43a6.29,6.29,0,0,0-2.59.81,2.19,2.19,0,0,0-1,2.33,3.72,3.72,0,0,0,1,1.35,13.61,13.61,0,0,1,3.15,5l1.39,2.28,4.44,3.43a6.41,6.41,0,0,0,2.09,1.22,8.14,8.14,0,0,1,1.87.47,2.53,2.53,0,0,1,1.13,2,11.41,11.41,0,0,1-.15,2.33,2.63,2.63,0,0,0,0,1,3.28,3.28,0,0,0,.87,1.31,14.8,14.8,0,0,1,3.74,9.79l1.9,7.23a163.1,163.1,0,0,0,28.92,39.28l5.93,2.4c2.32-1,4.1-3,6.2-4.36a15.58,15.58,0,0,1,7-2.55,8,8,0,0,1,2.92.13,9.1,9.1,0,0,1,2.68,1.34,15.35,15.35,0,0,1,7.28,12.59,50.26,50.26,0,0,1-.31,9.65,9.69,9.69,0,0,1,5.8-6.4,16.39,16.39,0,0,1,8.81-.81,9.78,9.78,0,0,1,4.31,1.52,9.07,9.07,0,0,1,2.9,4.08c1.53,3.78,1.75,7.93,2,12a10.86,10.86,0,0,1-.61,5.2c-.25.51-.57,1-.78,1.52a13.84,13.84,0,0,0-.5,2.67c-.63,3.59-3.57,6.25-6.34,8.62l1.78,7.49a6.54,6.54,0,0,0,3.14,2.1c1,.3,2,.36,3,.63a10.65,10.65,0,0,1,3.3,1.65c2.1,1.45,4,3.46,4.42,6,.28,1.86-.3,3.9.56,5.58l1.43,2.53a72.65,72.65,0,0,1,11.41-.73,7.24,7.24,0,0,1,2,.24,6.69,6.69,0,0,1,1.37.67,16.66,16.66,0,0,1,5.56,5.19,10.23,10.23,0,0,1,1.55,7.34c-.52,2.61-2.23,4.81-4,6.84-1.35,1.57-2.84,3.48-2.31,5.48l1.35,13.43c.3,3.68.62,7.43,2.14,10.8,2,4.36,5.73,7.62,9.51,10.55a156.29,156.29,0,0,0,28.47,17.55l3.69,2.76c3.19.39,6.79,1,8.53,3.73a14.31,14.31,0,0,1,1,2.17,26.79,26.79,0,0,0,6.17,9c.56.53,1.34,1.07,2,.71s.7-1.19.68-1.89q-.37-14.41-.76-28.82a.66.66,0,0,0-.09-.39.72.72,0,0,0-.58-.17,10.42,10.42,0,0,1-9.18-5.47,18.81,18.81,0,0,1-1.64-7.59c-.29-4.49-.27-9.11,1.26-13.35a4.74,4.74,0,0,1,.71-1.4,5.45,5.45,0,0,1,1.72-1.28l5.13-2.87a7.68,7.68,0,0,0,2.16-1.57,6.69,6.69,0,0,1,1.45-1.67,3.14,3.14,0,0,1,1.48-.36,11.09,11.09,0,0,1,6.49,1.3,10.27,10.27,0,0,1,4.16,5.43,22.7,22.7,0,0,1,1.06,6.86,33.46,33.46,0,0,1-1.18,10.83,18.33,18.33,0,0,1-5.84,9.06l-.29.92a236.42,236.42,0,0,0,.29,26.22,134.27,134.27,0,0,1,6.94-15.84,7.77,7.77,0,0,0,1-3,8.42,8.42,0,0,0-.21-1.86,47.22,47.22,0,0,1-.6-9.28c.08-4.41.57-9,3-12.7a13.79,13.79,0,0,1,12.07-6,6.89,6.89,0,0,1,2.34.49,6.37,6.37,0,0,1,2.13,1.66,13.59,13.59,0,0,1,2.83,10.57,29.25,29.25,0,0,1-3.88,10.5,19.24,19.24,0,0,1-1.77,2.75c-2.9,3.63-7.67,5.11-12.18,6.22a130.64,130.64,0,0,1-6.15,17.29l-.21.69c2.88,1.64,4.37,4.9,5.67,8a18.77,18.77,0,0,0,2.24-1.52,1.57,1.57,0,0,0,.54-.61,1.59,1.59,0,0,0,0-.84,45.26,45.26,0,0,1-.63-8.53,12.27,12.27,0,0,1,3.07-7.8,16.5,16.5,0,0,1,3.59-2.59c3.07-1.8,6.43-3.5,10-3.31a3.15,3.15,0,0,1,2.76,1.44,15,15,0,0,1,2.68,6.82,20.37,20.37,0,0,1-1.09,11.31,13.84,13.84,0,0,1-8.06,7.76c-3.45,1.14-7.2.62-10.79.09a2.46,2.46,0,0,0-1.48,1.48,3,3,0,0,0,.17,1.51c.74,2.52,1.17,5.57-.63,7.48-1.1,1.17-3,1.81-3.3,3.38-.21,1,.29,2,0,3a3.24,3.24,0,0,1-1.15,1.37,20.89,20.89,0,0,1-5.28,3.09l.54,1.12,0,1c3.91-3.61,9.49-4.94,14.81-4.87a35.09,35.09,0,0,1,6.39.68l.48.19a45.16,45.16,0,0,1,17.37-13.38,89.71,89.71,0,0,1,14.11-4.38l7.31-1.84,3.13,4.78c1.65-2.47,3.81-4.57,5.38-7.09s2.54-5.68,1.48-8.45l.66-4.69c6-3.19,12.44-5.64,19.18-6.1a53.87,53.87,0,0,1,9.91.39,51.83,51.83,0,0,1,9.34,1.77c8.06,2.49,14.93,8.19,19.68,15.17s7.52,15.17,9,23.49a32.87,32.87,0,0,1,.6,7.91c-.46,6.94-4.28,13.11-7.13,19.44a74.33,74.33,0,0,0-6.47,27.75l-2,3.71c-3.77,2.66-3.93,8.07-3.85,12.68q.12,7.84-.29,15.68a40.8,40.8,0,0,1-.77,6.71c-1.15,5.16-4.08,9.71-6.39,14.47-5.75,11.84-7.89,25.52-15.79,36a2.41,2.41,0,0,0-.21,3.21q2.31,4.86,4.64,9.73l3.88,4c12.56-15.78,21-34.39,31.38-51.66,4.07-6.75,8.63-14,7.86-21.83v-6.66a436.55,436.55,0,0,0,9.4-60.48l4.16-9.78a67.58,67.58,0,0,1,5.07-16.36c3.51-8.32,7.54-16.4,11.57-24.48q2.63-5.25,5.24-10.51c1.12-2.24,2.24-4.48,3.43-6.69,5.91-11,13.51-21.21,17.47-33,1.42-4.24,2.36-8.65,4-12.8,2.43-6.09,6.34-11.46,10.31-16.67l8.19-5.09c3.27-.51,6.48,1.23,9,3.36s4.74,4.69,7.59,6.37c2.6,1.53,5.62,2.25,8.14,3.9,1.85,1.21,3.36,2.88,5.16,4.16s4.1,2.16,6.21,1.5c.18,1.61.36,3.22.55,4.82l-.53,1.87a7.86,7.86,0,0,0,7.69-5.51c.39-1.32.42-2.77,1.1-4a10.94,10.94,0,0,1,2.81-2.74c6.19-5.07,8.31-13.42,11.56-20.73,1.17-2.65,2.52-5.21,3.63-7.88a46.62,46.62,0,0,0,3.37-21.74l6.77-.75a35.89,35.89,0,0,1,13.39-2.82c10.61-.16,20.78,4.37,31.37,4.89,3.52.17,7.06-.1,10.58,0,3,.1,6,.49,9,.56a42.61,42.61,0,0,0,25.61-7.91l28.53-4.09c8,1.18,16.14,2.38,23.69,5.34,11.83,4.63,21.62,13.31,30.42,22.48,5.59,5.82,10.94,12,14.71,19.12,4.79,9.1,6.8,19.41,7.74,29.65a156.11,156.11,0,0,1-8.4,66.37c-3.48,9.76-8.58,19.86-17.85,24.49-7.65,3.82-16.72,3.17-25.12,1.63-27.93-5.13-54-19.13-82.38-21a99.13,99.13,0,0,0-81.71,35.55l-13.9,9.16c-5.44,2.32-9.23,7.26-12.76,12q-2.73,3.67-5.45,7.37l-29.61,19a173.75,173.75,0,0,0-22.12.91c-2.8.3-5.82.78-7.75,2.82l-4.87,4c-3.44,4-5.1,9.23-7.52,14a92.31,92.31,0,0,1-5.8,9.37l-5.61,6a58.81,58.81,0,0,0-6.59-1.23c-2.16-.27-4.53-.38-6.33.85a9.74,9.74,0,0,0-2.8,3.65L1674,1378.51q-3.29,6.08-6.56,12.14l-5.59,10.35a19.61,19.61,0,0,0-2.48,6.19,6.64,6.64,0,0,0,1.94,6.1l.57,3.87c2.29,2,5.75,1.22,8.66.42a220.57,220.57,0,0,1,24.77-5.32l1.58-1c4.82-14.88,15.46-27,23.71-40.31l15.57-19.37a8.2,8.2,0,0,1,4.73,3.47,58.63,58.63,0,0,1,13.69-6.07c-.24-1.16-1.13-2.07-1.56-3.18a5.75,5.75,0,0,1,1.29-5.62,16.85,16.85,0,0,1,4.86-3.56l6.81-1.69c4.77-2.87,9.6-5.76,14.93-7.34a55.75,55.75,0,0,1,8.89-1.68q8.06-1,16.19-1.22l3.67,2.46c.5,1.22,2,1.51,3.35,1.64l16.74,1.56a105.83,105.83,0,0,0,14.88.68c6.23-.29,12.35-1.68,18.43-3.06,10.6-2.42,21.21-4.83,31.63-7.94,7.33-2.19,14.71-4.74,22.36-4.73l10.11-3.66c24.6,4.54,41.72,26.3,56.46,46.51,11.77,16.12,23.61,32.39,31.94,50.53C2027,1433.5,2031.33,1461,2034.06,1488.16Zm-199.45,51.16c-8.42-15.88-17.36-31.73-29.75-44.75a218.13,218.13,0,0,0-16.81-15.35c-8.1-6.9-16.22-13.8-24.81-20.08-9.44-6.9-19.43-13-29.4-19.11-6.13-3.75-12.29-7.52-18.94-10.24-14.9-6.09-31.58-6.64-47.52-4.47l.6,6.78c1.12,14.62,11.13,26.82,20.67,38q17.44,20.32,34.87,40.66l4.37,5.34c3.08,2.68,7.53,2.88,11.6,3.12,34.15,2,65.42,6.2,103.84,52.61l.82-.45C1845.18,1560.08,1839.9,1549.31,1834.61,1539.32Z"></path>
    <path data-name="1a" data-official="" data-plain="Seed" data-loc="" d="M88.76,2708.25c6.71-12.78,4.88-28.21,2.25-42.4s-5.86-29-1.53-42.8a25.74,25.74,0,0,1,7.35-12c6.38-5.44,15.48-5.93,23.86-6,4.12,0,8.38.06,12.12,1.78a23.12,23.12,0,0,1,8,6.78,54.81,54.81,0,0,1,10.45,47.19c-1.28,5.06-3.28,9.92-4.31,15a40.69,40.69,0,0,0,2.17,23.22c2.39,5.89,6.25,11.76,5.23,18-1.17,7.17-8.27,11.72-15,14.39a79.11,79.11,0,0,1-30.64,5.5c-5.75-.12-11.71-.95-16.55-4.06s-8.27-9-7.05-14.6Z"></path>
    <path data-name="2" data-official="Anacardium occidentale" data-plain="Cashew Nut" data-loc="West Indies" d="M2019,2240.88c-3.46,14.8-10.21,28.6-16.9,42.26-6.09,12.43-12.79,25.54-24.67,32.65-8.84,5.28-19.46,6.54-29.74,7-29.85,1.32-60-3.14-89.56.89-16.89,2.3-35.5,9.16-41.88,25l-20-7.44c-10.85,2.47-22.32,1.29-32.93-2.09s-20.42-8.88-29.66-15.08a98.66,98.66,0,0,1-15.71-12.55c-9.05-9.21-15.1-20.88-20.93-32.41l-4.66-7.07c-15.81-21.43-40.86-34.87-55.66-57l-6.16-5.87q-10.14-20.16-22.11-39.34a138.66,138.66,0,0,0-11-15.74c-11.22-13.38-26.41-22.71-41.33-31.79l-14.52-9.72c-4-7.64-11.89-12.32-19.53-16.32s-15.73-8-20.76-15l-1.63-2.73c-3.36-5-9-7.9-14.34-10.62a50.1,50.1,0,0,0-9.6-4c-4.78-1.28-9.81-1.13-14.76-1l-9.54.31c-4.72.15-10.14.67-12.84,4.54l-15.67,19.88c-22,16.71-27,48.49-21.2,75.46s20.28,51.15,31.1,76.54a297.65,297.65,0,0,1,16.33,180.84c-1.17,5.15-2.5,10.33-5,15-4.08,7.76-11,13.6-18.15,18.67-21.12,15-47,25.27-72.69,21.76-8.9-1.22-17.89-4.27-24.27-10.6-7.34-7.3-10.22-17.83-12.65-27.9a898.24,898.24,0,0,1-20.12-116.89l-6.79-11.94c-26.26-23.15-60.94-34.69-88.29-56.53-5.69-4.54-11.1-9.55-17.53-12.95-5-2.65-10.55-4.24-16-5.81L1095,2212.43l-3.44-1c-29.47-7.27-60.82-2.18-90.49-8.57-10.41-2.25-20.51-5.88-31-7.68-10.25-1.75-20.71-1.72-31-2.89-34.09-3.88-65.2-20.56-95.35-36.93-21.05-11.43-42.15-22.89-61.9-36.46-6-4.12-12.17-8.87-14.44-15.76l.36-1.51c4.83-1.73,10.06-3.5,14.48-6.09s7.54-5.66,11.63-8.59c2.81-2,6-3.45,8.77-5.53a44.22,44.22,0,0,0,7.58-7.94c10.89-13.61,21.26-28.68,23.44-46a53.75,53.75,0,0,0-1-19c-.55-2.33-1-5.4,1.14-6.56-16.74-7.67-36-6.71-54.36-5.6-8.32.51-16.69,1-24.79,3a137.94,137.94,0,0,0-16.5,5.57L719.56,2012c-5.17,2-10.38,4-15.09,6.92-7,4.31-12.62,10.47-19.66,14.64l-30.88-4.1c-13.1-4.23-22.42-15.92-28.74-28.15s-10.49-25.54-17.7-37.27l1.25-11.6c-4.92-17.25-9.86-34.54-16.55-51.19-2.28-5.68-4.77-11.29-6.49-17.16-4.38-14.9-3.64-30.75-2.87-46.26q.42-8.64.86-17.27c.26-5.32.53-10.66.26-16-.58-11.37-3.6-22.78-1.76-34l4.4-9.24a107.44,107.44,0,0,1,33.66-52.92c11-9.39,23.79-16.42,36.47-23.39l7.37-3a146.18,146.18,0,0,0,62.43,26.83v.35c.35,29.43,6.34,56.8,17.56,84,5.24,12.73,11.83,25.29,22,34.54,11.93,10.82,36.69,20.19,52,25,52.12,16.45,53,20.1,106.85,17.33,39.38-2,79.81-17.4,102.27-49.81l2.12-2c4.93,2.85,10.69-3.34,16.35-2.74,2.36.25,4.4,1.65,6.31,3.05,20.47,15,37.21,34.51,53.75,53.8L1132,1903c14.53,17,29.15,34,40.45,53.28,5.19,8.84,9.66,18.12,15.5,26.54,6.07,8.75,13.59,16.51,18.66,25.87,2.08,3.83,3.82,8,7.16,10.83s9,3.53,11.74.19l4.44-8.19a386.05,386.05,0,0,0-5.8-54.68c-4.9-27.42-12.79-54.32-16-82-3.06-26.24-1.89-52.77-.71-79.16.17-3.78.35-7.65,1.76-11.16,1.71-4.27,5.06-7.64,8.33-10.88,4.88-4.85,10-9.87,16.64-11.83l11.59-6.41c10.47-1.2,22-.19,29.9,6.82,6.88,6.13,9.58,15.56,12,24.46q10.18,38,20.35,76.09l10.58,12.13c20.1,34.33,25.94,76.31,50.09,107.93,4.94,6.46,11,12.64,18.82,14.85l9.44-2.37c5.83-5.56,10-12.62,15.69-18.37a52.25,52.25,0,0,0,4.22-4.46,36,36,0,0,0,2.5-4l11.56-20.28,1.8-7.28q4.44-18.51,8.89-37l6.2-7,14,10.76c4.68,2.32,5.94,8.27,7,13.39a118,118,0,0,0,5.36,18.23c1,2.47,2,5,2.1,7.62a21.78,21.78,0,0,1-.76,5.55l-4.23,18.81.25,5.2a14.15,14.15,0,0,1,6.26,2.47,3.85,3.85,0,0,0,1.58.81,3.32,3.32,0,0,0,1.51-.27,82.23,82.23,0,0,0,8.46-3.81c6.15-3,12.34-6.1,17.84-10.22s10.3-9.37,12.84-15.75l-.63-4.54a76.26,76.26,0,0,1-3.58-13.29c-.52-3-1-6.23-3.28-8.2l-6.8-.93c-1.23-.11-1.78-1.56-2.06-2.76l-4.89-21a2.43,2.43,0,0,0,1.44-4.6,5.33,5.33,0,0,1-1.39-.63,2.57,2.57,0,0,1-.59-2c0-7.67,0-15.55,2.8-22.71,1.12-2.92,2.71-5.85,2.41-9l5.16-14.45c5.06-18.29,11.17-36.37,19.73-53.3,3.85-7.61,8.18-15,11.94-22.63,9-18.43,14.68-38.4,24.06-56.65,2.32-4.51,4.91-9,8.58-12.47,7.81-7.43,19.18-9.43,29.85-11l9.83-9.39a26.59,26.59,0,0,1,4.73,2.69c1,.72,1.83,1.57,2.8,2.3a28.55,28.55,0,0,0,3.6,2.19c5.47,3,11,6,17.14,7.17,2.59.51,5.29.71,7.68,1.82s4.46,3.5,4.18,6.13l5.11,2.46a18.79,18.79,0,0,0,6.72,1.87c3.75.31,7.59-.51,11.23.42l3,.19a15.07,15.07,0,0,1,9.12,2.39,45.28,45.28,0,0,1,7.42,6.06,22,22,0,0,1,4,4.55,28.76,28.76,0,0,1,2.46,6.68c2.38,7.76,6.72,14.76,11,21.65l6.61,10c11.12,7,22.28,14,34.23,19.5l76.77,45.08,53.55,19.75c10.24,3.78,20.65,7.64,29.38,14.2,14.34,10.76,22.74,27.75,28,44.9s7.87,35,13.47,52.08c8.7,26.46,24.28,50,35.89,75.38,23.52,51.33,30.22,108.78,31.56,165.23C2022.53,2210.31,2022.5,2225.88,2019,2240.88Z"></path>
    <path data-name="2a" data-official="" data-plain="Section of Seed" data-loc="" d="M939.24,2620.26c.92-20.09,5.11-40.36,15-57.86s26-32,45.41-37.34c9.18-2.52,18.8-2.95,28.32-2.85s19.22.71,28.39,3.4a65,65,0,0,1,33.12,22.8c6.26,8.22,10.57,18.38,9.85,28.68-1.08,15.3-12.57,27.6-18.42,41.78-2.19,5.33-3.6,11.25-2.24,16.85,1.68,6.84,7.12,12,11.54,17.48,6.26,7.78,10.85,17.09,12,27s-1.22,20.43-7.53,28.17c-3.9,4.78-9.07,8.33-13.59,12.52a63.24,63.24,0,0,0-16.91,26.27c-1.94,5.84-3.28,12.37-8,16.33-3.08,2.6-7.13,3.65-11,4.63-22.89,5.72-46.39,11.48-69.82,8.7-7.16-.86-15.27-3.34-18-10-3.12-7.71,2.69-15.79,5.54-23.6,6.09-16.72-1.73-35.09-10.43-50.61s-18.79-31.84-17.38-49.58Z"></path>
    <path data-name="3" data-official="Mangifera indica" data-plain="Mango Tree" data-loc="East Indies" d="M1422.85,2087.61l15.67-19.88c2.7-3.87,8.12-4.39,12.84-4.54l9.54-.31c4.95-.17,10-.32,14.76,1a50.1,50.1,0,0,1,9.6,4c5.37,2.72,11,5.63,14.34,10.62l1.63,2.73c-1.85,6.92,1.45,14,3.6,20.85a131.17,131.17,0,0,1,3.57,15.58l3.42,18.25a158.44,158.44,0,0,1,3,21.08Zm162,163.5-6.13-16.47a52.7,52.7,0,0,0-3.67-9.28c-1.18-2.13-2.64-4.1-3.81-6.24a51.44,51.44,0,0,1-3.57-9.08q-8.1-25.24-16.21-50.48c-3.7-11.51-9.52-31.22-12-43.06l2-4,14.52,9.72c14.92,9.08,30.11,18.41,41.33,31.79a138.66,138.66,0,0,1,11,15.74q12,19.15,22.11,39.34l6.16,5.87c14.8,22.14,39.85,35.58,55.66,57l4.66,7.07c5.83,11.53,11.88,23.2,20.93,32.41a98.66,98.66,0,0,0,15.71,12.55c9.24,6.2,19.06,11.7,29.66,15.08l29.69,18.55c7,18.12,4.51,40.28-8.58,54.59s-37.17,18.22-52.64,6.52c-11.2-8.45-16.22-22.56-24.1-34.17s-18.93-21-29.23-30.71c-24.56-23.18-45.79-49.61-67-75.94ZM884.4,1100.25a372.72,372.72,0,0,1-39.93-2.56l-9.45-8a49.91,49.91,0,0,0-20.11-4.55c-4.76-.07-9.67.59-13.76,3l-7.24,4.85a254.55,254.55,0,0,1-29.23.46l-7.56-3.66-13.25-5-6.2-.1c-6.58,1.24-13.47,3.4-17.67,8.61-2.68,3.33-4,7.54-5.72,11.43a48.65,48.65,0,0,1-32.44,26.86,77.69,77.69,0,0,1-17.69,1.74,210.74,210.74,0,0,1-24.09-1.17l-10.41,4.13a114.82,114.82,0,0,0-21.11,16.9c-7.9,7.87-15.06,16.87-18.6,27.44a71.06,71.06,0,0,0-3.07,16.32c-.6,6.84-.71,13.72-.82,20.59l-.66,43.35-1.57,5.87a77.17,77.17,0,0,0,3.66,40.16c2.19,5.88,5.1,11.47,7.47,17.28a101.81,101.81,0,0,1,7.36,43.19,117.06,117.06,0,0,1-21.64,3l-.65,2.87a380.74,380.74,0,0,1,4.75,73.42l-.84,11.89c-1.72,35.94-3.25,73.13,9.9,106.62l4.08,13.09c6.51,4.69,10.05,12.38,13.23,19.75,9.53,22.12,18.51,45,33.79,63.57l-1.49,6.29a60.78,60.78,0,0,0,7.12,10.57,20.6,20.6,0,0,0,10.64,6.69l2.89-3.11a146.18,146.18,0,0,0,62.43,26.83v.35c.35,29.43,6.34,56.8,17.56,84,5.24,12.73,11.83,25.29,22,34.54,11.93,10.82,36.69,20.19,52,25,52.12,16.45,53,20.1,106.85,17.33,39.38-2,79.81-17.4,102.27-49.81l2.12-2c4.93,2.85,10.69-3.34,16.35-2.74,2.36.25,4.4,1.65,6.31,3.05,20.47,15,37.21,34.51,53.75,53.8L1132,1903c14.53,17,29.15,34,40.45,53.28,5.19,8.84,9.66,18.12,15.5,26.54,6.07,8.75,13.59,16.51,18.66,25.87,2.08,3.83,3.82,8,7.16,10.83s9,3.53,11.74.19l4.44-8.19a386.05,386.05,0,0,0-5.8-54.68c-4.9-27.42-12.79-54.32-16-82-3.06-26.24-1.89-52.77-.71-79.16.17-3.78.35-7.65,1.76-11.16,1.71-4.27,5.06-7.64,8.33-10.88,4.88-4.85,10-9.87,16.64-11.83l11.59-6.41c10.47-1.2,22-.19,29.9,6.82,6.88,6.13,9.58,15.56,12,24.46q10.18,38,20.35,76.09l10.58,12.13c20.1,34.33,25.94,76.31,50.09,107.93,4.94,6.46,11,12.64,18.82,14.85l9.44-2.37c5.83-5.56,10-12.62,15.69-18.37a52.25,52.25,0,0,0,4.22-4.46,36,36,0,0,0,2.5-4l11.56-20.28,1.8-7.28q4.44-18.51,8.89-37l6.2-7a246.77,246.77,0,0,0-29.94-67.61l-9.68-10.05c-5.66-16.22-18.27-29-25.76-44.48-7.22-14.91-9.42-31.69-14.33-47.51-4.6-14.81-11.57-28.76-18.63-42.57q-11.87-23.22-24.21-46.19l-2.37-6.63c1.49-3.48,5.55-4.94,9.17-6,8.74-2.64,17.54-5.28,26.62-6.25l6.31-1c2.67-2.88,7-3.11,11-3.54a58.89,58.89,0,0,0,13.9-3.3l-.65-4.59a5.87,5.87,0,0,0,2.25-4.07,26.19,26.19,0,0,1,.89-4.7c1.39-3.64,5.41-5.42,8.12-8.22a2.24,2.24,0,0,1,.66-.53,2.12,2.12,0,0,1,.9-.13,10.51,10.51,0,0,0,9.17-6.21l4.84-4.06c1.15-3.42.29-7.16-.58-10.67l-8.16-33,.27-2.44c-5,1-10.26-.54-15.15.81a29.09,29.09,0,0,0-7.21,3.59c-15.92,9.61-33.37,13.66-52,12.92a98.6,98.6,0,0,1-31.18-6.91c-6.74-2.59-13.39-5.82-18.52-10.89-7.63-7.55-12-16.26-15.14-26.54-2.46-8.18-4.92-16.54-4.64-25.08.07-2.17.28-4.52-.92-6.34s-4-3.46-3.29-5.62c3-1,6.15.49,9.27.43,4.22-.09,7.93-3,10.23-6.57s3.51-7.64,5-11.59c3.6-9.53,9.18-18.51,17.19-24.79A64.19,64.19,0,0,1,1312,1420a127.82,127.82,0,0,1,46.79-13.25c7.8-.66,16.58-1,21.84-6.8l.88-.05-6.42-28.9a15.56,15.56,0,0,0-6.22-10.3l-2.1-2.16a108.72,108.72,0,0,0-27.88-16.47l-5.42-2.65c-6.36-2.41-13.33-2.51-20.13-2.41a53.39,53.39,0,0,0-6.93.43c-2.78.41-5.48,1.24-8.27,1.56a45.78,45.78,0,0,1-6.73.15,30.53,30.53,0,0,1-7.46-.82c-3.71-1-7.39-3.52-11.09-2.44l-5.69-1a36.61,36.61,0,0,0-9.85.76c-2.43.53-4.8,1.3-7.25,1.71a46.31,46.31,0,0,1-8.24.4q-5.79-.08-11.57-.31l-5.49.25q-12,1.32-24.11,1.71l-5.17,1.28c-3.94.06-8.14.2-11.38,2.43-1.74,1.19-3.07,2.9-4.84,4-2.38,1.52-5.29,1.87-8,2.61-4.21,1.15-8.09,3.31-12.3,4.44a26.35,26.35,0,0,1-13.43,0l-5.07-.42a172.23,172.23,0,0,0-19.76,10.76c-7.5,5-14.32,11.22-22.68,14.57l-3.34-3.49a45.19,45.19,0,0,1-5.3-7.6c-3.26-6.38-3.31-13.88-3.11-21l0-3a50.64,50.64,0,0,0-2.74-16.23c-2-5.74-5-11.11-6.51-17-.69-2.56-1.1-5.23-2.35-7.56l-2.43-2.38a144.74,144.74,0,0,1-14-18.45,14.87,14.87,0,0,1-1.1-1.94,15.39,15.39,0,0,1-.9-3q-3-12.69-5.89-25.37l-3.06-9.78-9.55-5q-14.61-3.46-28.94-8c-3.25-1-6.73-2.31-8.62-5.16-1.31-2-1.64-4.4-2-6.74-4.48-33.51-12.19-68.71-35.6-93.09A90.58,90.58,0,0,0,905,1096.94ZM1201.16,2252c-5.69-4.54-11.1-9.55-17.53-12.95-5-2.65-10.55-4.24-16-5.81L1095,2212.43l-3.44-1c-29.47-7.27-60.82-2.18-90.49-8.57-10.41-2.25-20.51-5.88-31-7.68-10.25-1.75-20.71-1.72-31-2.89-34.09-3.88-65.2-20.56-95.35-36.93-21.05-11.43-42.15-22.89-61.9-36.46-6-4.12-12.17-8.87-14.44-15.76l.36-1.51-9.48,5.6a42.41,42.41,0,0,0-26.89,32.52l6.1,9.23a140.58,140.58,0,0,1,95.15,6.76c19.1,8.54,37.31,23,42.36,43.34A46.18,46.18,0,0,1,876,2215c-.24,2.29-.72,4.7-2.27,6.4a12.33,12.33,0,0,1-4.11,2.6c-13.87,6.39-28,12.81-43.2,14.57-21.2,2.46-42.2-4.37-63.13-8.56-9.7-1.95-19.74-3.33-29.47-1.54s-19.24,7.21-23.82,16l.58,5.46c-1.49,3.09-.81,6.87.83,9.89s4.15,5.45,6.52,7.94c17.08,17.92,28.71,40.43,37,63.76,3.37,9.46,6.24,19.16,7.42,29.13a89.34,89.34,0,0,1-16.25,62.27,3.17,3.17,0,0,1-1.56,1.34,3,3,0,0,1-2.61-1.16c-5-4.91-8.23-11.83-14.41-15.14-4.87-2.61-11-2.61-15.32-6.06-2.62-2.1-4.3-5.3-7.19-7-1.84-1.07-4-1.44-6-2.19-8.23-3.13-12.36-12.05-16.57-19.78s-11-15.88-19.75-15.2l-11.32,6.62c-7.18,9.64-14.59,19.22-23.64,27.14s-19.91,14.14-31.79,16c-10.19,1.56-20.55-.16-30.73-1.68q-23.57-3.53-47.3-5.65c-12.17-1.09-25.89-1.41-34.88,6.88l-12.74,3.37-9.13,1.56c-1.8.31-3.71.67-5.08,1.88s-1.88,3.59-.55,4.85l-2.3,12.15c15.69,27.36,34.28,53.86,59.79,72.4s59,28.2,89.26,19.29c14.41-4.24,27.48-12.41,42.06-16,15.11-3.74,31-2.35,46.36.37,50.31,8.93,100.67,32,150.46,20.57,37.84-8.69,68.29-36,103.18-53,38.72-18.9,82.82-25,121-45,61.64-32.23,99.62-95.51,134.46-155.72Z"></path>
    <path data-name="4" data-official="Melanorrh&amp;oelic;a usitata" data-plain="Varnish Tree" data-loc="Martaban" d="M1995.36,1690.44q27.06,33.35,53.39,67.28c6.69,8.62,13.49,17.55,16.4,28.06,7.59,27.38-13,55.47-10.05,83.72,1.12,10.63,5.55,20.64,7.27,31.19s-.07,22.84-8.65,29.21c-12.34,9.18-31,1.29-44.65,8.46-9.6,5.05-16,17.22-26.81,17.31-7.71.07-14.11-6.63-16.49-14s-1.72-15.25-1.44-23a215.66,215.66,0,0,0-33.45-122.88c-7.93-12.44-17.44-24.31-30.07-31.94l-8.56-14,.94-14.19a10,10,0,0,0-3.67-6.48c4.53-7.94,5-17.5,4.94-26.64-.3-23.85-4.26-47.86-13.8-69.72l-.58-2.28a19.09,19.09,0,0,0-3.33-5.34,35.36,35.36,0,0,1,21.56,8.56c3.53,3.07,6.44,6.84,10.17,9.67a31.82,31.82,0,0,1,3,2.39c1.34,1.31,2.29,3,3.68,4.24,3.39,3.08,8.5,3,12.87,4.37,3.93,1.23,7.34,3.69,10.67,6.11l10.45,4.93a88.09,88.09,0,0,0,38.68,4.47Zm-151.21-119.1-.82.45c-38.42-46.41-69.69-50.61-103.84-52.61-4.07-.24-8.52-.44-11.6-3.12l-4.37-5.34q-17.43-20.33-34.87-40.66c-9.54-11.14-19.55-23.34-20.67-38l-.6-6.78c15.94-2.17,32.62-1.62,47.52,4.47,6.65,2.72,12.81,6.49,18.94,10.24,10,6.1,20,12.21,29.4,19.11,8.59,6.28,16.71,13.18,24.81,20.08a218.13,218.13,0,0,1,16.81,15.35c12.39,13,21.33,28.87,29.75,44.75C1839.9,1549.31,1845.18,1560.08,1844.15,1571.34Zm-22.12-312-13.9,9.16c-5.44,2.32-9.23,7.26-12.76,12q-2.73,3.67-5.45,7.37l-29.61,19a173.75,173.75,0,0,0-22.12.91c-2.8.3-5.82.78-7.75,2.82l-4.87,4c-3.44,4-5.1,9.23-7.52,14a92.31,92.31,0,0,1-5.8,9.37l-5.61,6a58.81,58.81,0,0,0-6.59-1.23c-2.16-.27-4.53-.38-6.33.85a9.74,9.74,0,0,0-2.8,3.65L1674,1378.51q-3.29,6.08-6.56,12.14l-5.59,10.35a19.61,19.61,0,0,0-2.48,6.19,6.64,6.64,0,0,0,1.94,6.1l.57,3.87c2.29,2,5.75,1.22,8.66.42a220.57,220.57,0,0,1,24.77-5.32l1.58-1c4.82-14.88,15.46-27,23.71-40.31l15.57-19.37a8.2,8.2,0,0,1,4.73,3.47,58.63,58.63,0,0,1,13.69-6.07c-.24-1.16-1.13-2.07-1.56-3.18a5.75,5.75,0,0,1,1.29-5.62,16.85,16.85,0,0,1,4.86-3.56l6.81-1.69c4.77-2.87,9.6-5.76,14.93-7.34a55.75,55.75,0,0,1,8.89-1.68q8.06-1,16.19-1.22l3.67,2.46c.5,1.22,2,1.51,3.35,1.64l16.74,1.56a105.83,105.83,0,0,0,14.88.68l1.39-7.55a43.68,43.68,0,0,0-6-28.84,86,86,0,0,0-5.45-7.58l-12.35-15.91ZM241,2077.8a395.6,395.6,0,0,0-9.74,79c-.19,8.43-.08,17,2.37,25.08,7.4,24.28,33.27,37.32,57.17,45.84s50.36,16.68,64.47,37.78c8,12,10.83,26.6,12.63,40.89a363.88,363.88,0,0,1,2.06,69.76c-.93,13.9-2.65,27.89-.87,41.71s7.6,27.8,18.86,36,28.61,8.75,38.28-1.28l27-21.77,2.3-12.15c-1.33-1.26-.82-3.64.55-4.85s3.28-1.57,5.08-1.88l9.13-1.56,12.74-3.37c9-8.29,22.71-8,34.88-6.88q23.73,2.13,47.3,5.65c10.18,1.52,20.54,3.24,30.73,1.68,11.88-1.81,22.75-8,31.79-16s16.46-17.5,23.64-27.14l11.32-6.62c8.78-.68,15.54,7.47,19.75,15.2s8.34,16.65,16.57,19.78c2,.75,4.13,1.12,6,2.19,2.89,1.7,4.57,4.9,7.19,7,4.31,3.45,10.45,3.45,15.32,6.06,6.18,3.31,9.39,10.23,14.41,15.14a3,3,0,0,0,2.61,1.16,3.17,3.17,0,0,0,1.56-1.34,89.34,89.34,0,0,0,16.25-62.27c-1.18-10-4.05-19.67-7.42-29.13-8.3-23.33-19.93-45.84-37-63.76-2.37-2.49-4.88-4.93-6.52-7.94s-2.32-6.8-.83-9.89l-.58-5.46c4.58-8.78,14.08-14.2,23.82-16s19.77-.41,29.47,1.54c20.93,4.19,41.93,11,63.13,8.56,15.16-1.76,29.33-8.18,43.2-14.57a12.33,12.33,0,0,0,4.11-2.6c1.55-1.7,2-4.11,2.27-6.4a46.18,46.18,0,0,0-1.11-15.93c-5-20.3-23.26-34.8-42.36-43.34a140.58,140.58,0,0,0-95.15-6.76l-6.1-9.23a42.41,42.41,0,0,1,26.89-32.52l9.48-5.6c4.83-1.73,10.06-3.5,14.48-6.09s7.54-5.66,11.63-8.59c2.81-2,6-3.45,8.77-5.53a44.22,44.22,0,0,0,7.58-7.94c10.89-13.61,21.26-28.68,23.44-46a53.75,53.75,0,0,0-1-19c-.55-2.33-1-5.4,1.14-6.56-16.74-7.67-36-6.71-54.36-5.6-8.32.51-16.69,1-24.79,3a137.94,137.94,0,0,0-16.5,5.57L719.56,2012c-5.17,2-10.38,4-15.09,6.92-7,4.31-12.62,10.47-19.66,14.64l-30.88-4.1c-13.1-4.23-22.42-15.92-28.74-28.15s-10.49-25.54-17.7-37.27l1.25-11.6c-4.92-17.25-9.86-34.54-16.55-51.19-2.28-5.68-4.77-11.29-6.49-17.16-4.38-14.9-3.64-30.75-2.87-46.26q.42-8.64.86-17.27c.26-5.32.53-10.66.26-16-.23-4.37-.81-8.75-1.34-13.12l-8.23-5.53c-3.14-6.89-3.17-14.74-3.13-22.31,0-11.86.29-24.38,6.43-34.52,5.4-8.91,14.59-14.69,23-20.83a199.18,199.18,0,0,0,36.74-34.78l6-5.6,1.49-6.29c-15.28-18.62-24.26-41.45-33.79-63.57-3.18-7.37-6.72-15.06-13.23-19.75l-4.08-13.09c-13.15-33.49-11.62-70.68-9.9-106.62l.84-11.89a380.74,380.74,0,0,0-4.75-73.42l.65-2.87a117.06,117.06,0,0,0,21.64-3,101.81,101.81,0,0,0-7.36-43.19c-2.37-5.81-5.28-11.4-7.47-17.28a77.17,77.17,0,0,1-3.66-40.16l1.57-5.87.66-43.35c.11-6.87.22-13.75.82-20.59a71.06,71.06,0,0,1,3.07-16.32c3.54-10.57,10.7-19.57,18.6-27.44a114.82,114.82,0,0,1,21.11-16.9l10.41-4.13a210.74,210.74,0,0,0,24.09,1.17,77.69,77.69,0,0,0,17.69-1.74,48.65,48.65,0,0,0,32.44-26.86c1.76-3.89,3-8.1,5.72-11.43,4.2-5.21,11.09-7.37,17.67-8.61l6.2.1,13.25,5,7.56,3.66a254.55,254.55,0,0,0,29.23-.46l7.24-4.85c4.09-2.42,9-3.08,13.76-3a49.91,49.91,0,0,1,20.11,4.55l9.45,8a372.72,372.72,0,0,0,39.93,2.56l20.55-3.31a90.58,90.58,0,0,1,57.68,27.28c23.41,24.38,31.12,59.58,35.6,93.09.32,2.34.65,4.78,2,6.74,1.89,2.85,5.37,4.11,8.62,5.16q14.31,4.57,28.94,8l9.55,5a91.82,91.82,0,0,1,4.77-48.29c2-5.17,4.51-10.47,3.88-16l.21-12.88,1.65-91.73c.3-16.49,1.66-35.25,14.57-45.51,5-4,11.42-6.27,15.79-11,6.38-6.87,7-17.38,5.15-26.57s-5.74-17.9-7.17-27.17c-1.67-10.87.13-21.94,1.93-32.79q4.62-27.87,9.25-55.74c1.89-11.42,4-23.32,10.88-32.61,10.75-14.47,31-19.08,48.78-16.2a76.5,76.5,0,0,1,25.6,9c7.94,4.52,15,10.42,22,16.29l84.85,71,8.46,3.78a7.12,7.12,0,0,0,7.62-2c.91-1.05,1.63-2.46,3-2.78a7.29,7.29,0,0,1,0,2.51,2.06,2.06,0,0,0,1.07,2.1,1.73,1.73,0,0,0,1.72-.54,7.46,7.46,0,0,0,1-1.57c.87-1.48,2.34-2.83,4.05-2.73-.36.81-.71,1.63-1.06,2.44a5.65,5.65,0,0,0-.64,2.39,1.91,1.91,0,0,0,1.37,1.86,2.15,2.15,0,0,0,2.11-1.33,2.17,2.17,0,0,1,.41-.65c.66-.57,1.65.13,2.16.83,2.65,3.65,3.32,8.37,3.4,12.87s-.32,9.07.51,13.5l1.15,2.7a15.76,15.76,0,0,1,6.16,3.37c.89.8,2,1.78,3.11,1.47a2.23,2.23,0,0,0,1.46-2,6.35,6.35,0,0,0-.42-2.54,3.55,3.55,0,0,1,3.58,1.88A5.53,5.53,0,0,1,1340,962a8.71,8.71,0,0,1,4.33.2c.68.2,1.48.76,1.25,1.43a6.29,6.29,0,0,0-2.59.81,2.19,2.19,0,0,0-1,2.33,3.72,3.72,0,0,0,1,1.35,13.61,13.61,0,0,1,3.15,5l1.39,2.28,4.44,3.43a6.41,6.41,0,0,0,2.09,1.22,8.14,8.14,0,0,1,1.87.47,2.53,2.53,0,0,1,1.13,2,11.41,11.41,0,0,1-.15,2.33,2.63,2.63,0,0,0,0,1,3.28,3.28,0,0,0,.87,1.31,14.8,14.8,0,0,1,3.74,9.79l1.9,7.23a163.1,163.1,0,0,0,28.92,39.28l5.93,2.4c2.32-1,4.1-3,6.2-4.36a15.58,15.58,0,0,1,7-2.55,8,8,0,0,1,2.92.13,9.1,9.1,0,0,1,2.68,1.34,15.35,15.35,0,0,1,7.28,12.59,50.26,50.26,0,0,1-.31,9.65,9.69,9.69,0,0,1,5.8-6.4,16.39,16.39,0,0,1,8.81-.81,9.78,9.78,0,0,1,4.31,1.52,9.07,9.07,0,0,1,2.9,4.08c1.53,3.78,1.75,7.93,2,12a10.86,10.86,0,0,1-.61,5.2c-.25.51-.57,1-.78,1.52a13.84,13.84,0,0,0-.5,2.67c-.63,3.59-3.57,6.25-6.34,8.62l1.78,7.49a6.54,6.54,0,0,0,3.14,2.1c1,.3,2,.36,3,.63a10.65,10.65,0,0,1,3.3,1.65c2.1,1.45,4,3.46,4.42,6,.28,1.86-.3,3.9.56,5.58l1.43,2.53a72.65,72.65,0,0,1,11.41-.73,7.24,7.24,0,0,1,2,.24,6.69,6.69,0,0,1,1.37.67,16.66,16.66,0,0,1,5.56,5.19,10.23,10.23,0,0,1,1.55,7.34c-.52,2.61-2.23,4.81-4,6.84-1.35,1.57-2.84,3.48-2.31,5.48l1.35,13.43c.3,3.68.62,7.43,2.14,10.8,2,4.36,5.73,7.62,9.51,10.55a156.29,156.29,0,0,0,28.47,17.55l3.69,2.76c3.19.39,6.79,1,8.53,3.73a14.31,14.31,0,0,1,1,2.17,26.79,26.79,0,0,0,6.17,9c.56.53,1.34,1.07,2,.71s.7-1.19.68-1.89q-.37-14.41-.76-28.82a.66.66,0,0,0-.09-.39.72.72,0,0,0-.58-.17,10.42,10.42,0,0,1-9.18-5.47,18.81,18.81,0,0,1-1.64-7.59c-.29-4.49-.27-9.11,1.26-13.35a4.74,4.74,0,0,1,.71-1.4,5.45,5.45,0,0,1,1.72-1.28l5.13-2.87a7.68,7.68,0,0,0,2.16-1.57,6.69,6.69,0,0,1,1.45-1.67,3.14,3.14,0,0,1,1.48-.36,11.09,11.09,0,0,1,6.49,1.3,10.27,10.27,0,0,1,4.16,5.43,22.7,22.7,0,0,1,1.06,6.86,33.46,33.46,0,0,1-1.18,10.83,18.33,18.33,0,0,1-5.84,9.06l-.29.92a236.42,236.42,0,0,0,.29,26.22,134.27,134.27,0,0,1,6.94-15.84,7.77,7.77,0,0,0,1-3,8.42,8.42,0,0,0-.21-1.86,47.22,47.22,0,0,1-.6-9.28c.08-4.41.57-9,3-12.7a13.79,13.79,0,0,1,12.07-6,6.89,6.89,0,0,1,2.34.49,6.37,6.37,0,0,1,2.13,1.66,13.59,13.59,0,0,1,2.83,10.57,29.25,29.25,0,0,1-3.88,10.5,19.24,19.24,0,0,1-1.77,2.75c-2.9,3.63-7.67,5.11-12.18,6.22a130.64,130.64,0,0,1-6.15,17.29l-.21.69c2.88,1.64,4.37,4.9,5.67,8a18.77,18.77,0,0,0,2.24-1.52,1.57,1.57,0,0,0,.54-.61,1.59,1.59,0,0,0,0-.84,45.26,45.26,0,0,1-.63-8.53,12.27,12.27,0,0,1,3.07-7.8,16.5,16.5,0,0,1,3.59-2.59c3.07-1.8,6.43-3.5,10-3.31a3.15,3.15,0,0,1,2.76,1.44,15,15,0,0,1,2.68,6.82,20.37,20.37,0,0,1-1.09,11.31,13.84,13.84,0,0,1-8.06,7.76c-3.45,1.14-7.2.62-10.79.09a2.46,2.46,0,0,0-1.48,1.48,3,3,0,0,0,.17,1.51c.74,2.52,1.17,5.57-.63,7.48-1.1,1.17-3,1.81-3.3,3.38-.21,1,.29,2,0,3a3.24,3.24,0,0,1-1.15,1.37,20.89,20.89,0,0,1-5.28,3.09l.54,1.12,0,1c3.91-3.61,9.49-4.94,14.81-4.87a35.09,35.09,0,0,1,6.39.68l.48.19a45.16,45.16,0,0,1,17.37-13.38,89.71,89.71,0,0,1,14.11-4.38l7.31-1.84,3.13,4.78c1.65-2.47,3.81-4.57,5.38-7.09s2.54-5.68,1.48-8.45l.66-4.69c6-3.19,12.44-5.64,19.18-6.1a53.87,53.87,0,0,1,9.91.39,51.83,51.83,0,0,1,9.34,1.77c8.06,2.49,14.93,8.19,19.68,15.17s7.52,15.17,9,23.49a32.87,32.87,0,0,1,.6,7.91c-.46,6.94-4.28,13.11-7.13,19.44a74.33,74.33,0,0,0-6.47,27.75l-2,3.71c-3.77,2.66-3.93,8.07-3.85,12.68q.12,7.84-.29,15.68a40.8,40.8,0,0,1-.77,6.71c-1.15,5.16-4.08,9.71-6.39,14.47-5.75,11.84-7.89,25.52-15.79,36a2.41,2.41,0,0,0-.21,3.21q2.31,4.86,4.64,9.73l3.88,4c12.56-15.78,21-34.39,31.38-51.66,4.07-6.75,8.63-14,7.86-21.83v-6.66a436.55,436.55,0,0,0,9.4-60.48l4.16-9.78a67.58,67.58,0,0,1,5.07-16.36c3.51-8.32,7.54-16.4,11.57-24.48q2.63-5.25,5.24-10.51c1.12-2.24,2.24-4.48,3.43-6.69,5.91-11,13.51-21.21,17.47-33,1.42-4.24,2.36-8.65,4-12.8,2.43-6.09,6.34-11.46,10.31-16.67l8.19-5.09c3.27-.51,6.48,1.23,9,3.36s4.74,4.69,7.59,6.37c2.6,1.53,5.62,2.25,8.14,3.9,1.85,1.21,3.36,2.88,5.16,4.16s4.1,2.16,6.21,1.5c.18,1.61.36,3.22.55,4.82l-.53,1.87a7.86,7.86,0,0,0,7.69-5.51c.39-1.32.42-2.77,1.1-4a10.94,10.94,0,0,1,2.81-2.74c6.19-5.07,8.31-13.42,11.56-20.73,1.17-2.65,2.52-5.21,3.63-7.88a46.62,46.62,0,0,0,3.37-21.74l6.77-.75a35.89,35.89,0,0,1,13.39-2.82c10.61-.16,20.78,4.37,31.37,4.89,3.52.17,7.06-.1,10.58,0,3,.1,6,.49,9,.56a42.61,42.61,0,0,0,25.61-7.91l28.53-4.09,7-23.9c-6.56-12.1-13.12-27.17-5.83-38.85,9.46-15.17,32.33-10.83,49.26-16.55s28.14-22.61,32-40.06,1.53-35.61-1-53.3c-4.72-33.29-11.34-69-35.53-92.34C1991.9,796.27,1972,788.38,1954.6,777s-33.41-29-32.72-49.79c.35-10.34,4.82-20,8.79-29.57,17.09-41.16,25.69-88.73,8.72-129.93-16-38.73-52.4-66-91.47-81.06s-81.21-19.84-122.67-25.86c-8.73-1.26-18-2.82-24.63-8.63-5.2-4.53-8.13-11.1-10.38-17.63-12.94-37.38-8.56-78.16-8.65-117.72-.13-55.13-12.84-116.18-57.63-148.32-38.24-27.43-89.78-26.39-136.16-18.42-23.36,4-46.71,9.51-70.41,9-95.7-2.24-167.61-99.72-263.08-106.76l-27.9-4.37A558.35,558.35,0,0,0,895.68,60.68c-17.26,4.67-34.89,10.24-52.66,8.19-23.43-2.69-43.08-18-63.77-29.34C719.13,6.69,641.76,8,582.83,43,565,53.55,548.67,67,529.54,75.06c-38.85,16.38-83.3,8.43-124.18-1.89s-83.1-22.85-124.48-14.8-80.81,45.09-74.66,86.79c2.42,16.45,11.25,34.21,2.83,48.54-6.16,10.48-19.1,14.29-30.52,18.44-44.72,16.29-80.74,49.68-115.45,82.26-14.33,13.45-29,27.42-37,45.4-7.72,17.45-8.36,37.09-8.88,56.16Q15.62,453.77,14,511.56c-1.29,47.33-1.52,98.39,25.83,137C56.1,671.54,80.5,687.54,97.7,709.76s25.41,56.47,6.46,77.22c-10.77,11.79-27.27,15.95-41.6,23-42.2,20.71-66.68,72.22-56.1,118,6.3,27.27,23.2,51,30.71,78,7,25.21,5.52,51.91,3.95,78L26.36,1330.14,32.67,1351q9.3,19.7,18.3,39.52c11,24.15,21.83,50.5,16.3,76.44-3.68,17.27-14.24,32.13-22.15,47.92-19.47,38.85-22.95,83.57-24.3,127-.46,14.86-.6,30.28,5.39,43.88,15.2,34.52,65.45,48.59,69.81,86,2.23,19.16-9.06,36.88-17.94,54A246.29,246.29,0,0,0,53,1972.22c1.5,10.72,3.83,21.64,9.83,30.65,16,24,50.37,25.45,79.12,22.69s61.68-5.82,82.65,14Z"></path>
    <path data-name="4a" data-official="" data-plain="Section of Fruit" data-loc="" d="M645.5,2673.88c-7.67-7.54-11.87-18.22-12.5-29s2.11-21.5,6.77-31.19c7.68-15.94,20.5-29.13,35.46-38.57s32-15.28,49.41-18.51c12.61-2.34,25.77-3.33,38.15,0,10.32,2.77,19.61,8.4,28.52,14.29s17.68,12.33,22.35,21.76a45.19,45.19,0,0,1,4.14,16.51,76.26,76.26,0,0,1-20.14,57.65c-5,5.39-11.18,10.5-12.86,17.69-1.51,6.46.94,13.09,2.82,19.45a117.09,117.09,0,0,1,4.23,21.73c.39,3.93.54,8.06-1,11.69-2,4.55-6.39,7.54-10.71,10-29.8,16.89-66,19.54-99.83,14.34-7-1.08-15-3.22-18.07-9.67-3.18-6.77.76-14.52,1.87-21.92,2.08-13.83-6-26.94-13.74-38.6Z"></path>
    <path data-name="5a" data-official="Pistacia atlantica" data-plain="Pistil flower" data-loc="" d="M173.27,2672.54c1.88-9.59-3.56-18.89-8.33-27.42-6.89-12.33-12.93-25.7-13.15-39.82s6.67-29.16,19.58-34.89c6.72-3,14.32-3.22,21.66-2.88,8.17.37,16.75,1.56,23.27,6.5,4.47,3.39,7.59,8.26,10,13.31a76.72,76.72,0,0,1,3.36,58.39c-2.76,7.83-6.79,15.17-9.53,23s-4.14,16.53-1.48,24.39c4.66,13.75,20.48,21.85,23.72,36a11.88,11.88,0,0,1,.3,4.48,11.51,11.51,0,0,1-3.19,5.95c-5.26,5.6-13.32,7.41-20.91,8.65-6.63,1.08-13.31,1.95-20,2.6-9.53.92-20.61.79-26.77-6.55-3.48-4.13-4.58-9.83-4.33-15.22s1.68-10.66,2.73-16a111.54,111.54,0,0,0,1.68-31.48Z"></path>
    <path data-name="5b" data-official="" data-plain="Ovary and Pistil" data-loc="" d="M297.88,2642.92c-9.05-13.1-.39-31.69-5.7-46.71-1.51-4.29-4.13-8.11-6-12.28s-2.87-9-1.09-13.23c1.42-3.31,4.36-5.68,7.19-7.9,7-5.48,14.26-11.11,22.92-13a58,58,0,0,1,13.3-.75c6.21.12,12.42.25,18.62.68,4.29.31,8.67.79,12.55,2.66,6.05,2.94,10,8.84,13.63,14.52,4,6.25,7.89,14.15,4.34,20.63-1.42,2.6-3.87,4.49-5.44,7-3.48,5.56-2,12.74-.66,19.16q2.58,12.24,4,24.68c1.06,9.05,1.64,18.44-1.29,27.07-1.92,5.64-5.3,10.87-5.92,16.79-.88,8.26,3.74,16,6,24a43.66,43.66,0,0,1-1.14,27.09,26.17,26.17,0,0,1-5.67,9.38c-4.85,4.88-11.93,6.69-18.7,7.91a175.49,175.49,0,0,1-24.09,2.6c-5.56.21-11.26.13-16.48-1.77s-10-5.93-11.37-11.31c-1.86-7.19,2.41-14.33,5.07-21.26,7.11-18.58,2.73-39.35-1.9-58.7Z"></path>
    <path data-name="6a" data-official="Pistacia vera" data-plain="Section of Seed" data-loc="" d="M420.93,2643.26c-3.27-16-4.66-33.19,2.06-48,8.05-17.77,28-29.36,47.43-27.53,18.23,1.71,34.25,14.2,43.69,29.89s13,34.25,14.11,52.52c.69,11.44.44,23.11-2.89,34.08-2.69,8.84-7.3,18.62-2.89,26.75,3.56,6.55,11.49,9,18,12.52a47.31,47.31,0,0,1,18.32,17.6c2.28,3.86,4,8.51,2.62,12.77s-5.53,6.91-9.49,9a108.89,108.89,0,0,1-70.41,10.27,5.53,5.53,0,0,1-5.59-6,78.41,78.41,0,0,1-.28-13.53c.21-3.14.59-6.42-.64-9.31-1-2.45-3.12-4.29-5.09-6.09a167.61,167.61,0,0,1-47.81-77.51Z"></path>
    <path data-name="7a" data-official="Rhus lasiocarpa" data-plain="Fruit" data-loc="" d="M1144.22,2644.3a166.51,166.51,0,0,1,11.42-62.73c2.34-6,5.06-11.88,9-17,6.52-8.38,16-14,25.94-17.82a100.25,100.25,0,0,1,69.65-.67c24.34,8.86,45.34,28.39,52.76,53.22,2.77,9.25,3.64,19,3.81,28.62.41,24-4.58,50-22.5,65.87-8.11,7.2-19.27,13.21-20.75,23.95-.62,4.56.73,9.12,1.26,13.69s0,9.76-3.49,12.78c-2.13,1.85-5,2.55-7.76,3.17q-19.17,4.28-38.65,6.91c-5.28.72-10.66,1.34-15.92.5s-10.49-3.32-13.53-7.7c-6.3-9.09-1.14-21.76-4-32.44-2-7.43-7.61-13.22-12.86-18.83a356.59,356.59,0,0,1-30.34-37.16Z"></path>
    <path data-name="8a" data-official="Melanorrhœa glabra" data-plain="Calyx" data-loc="" d="M1345.39,2609.6a136.88,136.88,0,0,1,32.77-101.54c5.95-6.8,13.74-13.46,22.75-12.83,7.74.55,14,6.35,19.06,12.26a134,134,0,0,1,30.47,67.09c2,13.88,1.88,28.06,4.84,41.78,1.5,7,3.8,13.79,4.7,20.87s.25,14.69-3.7,20.63c-4.71,7.08-13.29,10.7-18.51,17.42-8.72,11.25-5.67,27.57-.08,40.66s13.43,26,13.16,40.22c-.08,4.51-1.21,9.34-4.64,12.26-2.27,1.92-5.24,2.75-8.11,3.51-17.65,4.65-35.66,8.5-53.92,8.78-9.13.14-20.17-1.94-23.4-10.49-3-7.92,2.64-16.16,5.68-24.07,4.41-11.49,3.3-24.43,0-36.27s-8.73-23-13-34.54a180.42,180.42,0,0,1-9.87-42.62Z"></path>
    <path data-name="8b" data-official="" data-plain="Flower" data-loc="" d="M1472.15,2594.51c5.85-1.08,9.74-6.65,12.1-12.11s4-11.48,8-15.81c3.39-3.61,8.19-5.7,11.44-9.44,2.74-3.16,4.14-7.22,5.87-11A62.83,62.83,0,0,1,1539,2516a23.8,23.8,0,0,1,10-2.86c4.3-.05,8.39,1.79,12.64,2.41,13.37,1.94,25.93-8.13,39.43-7.81,8.61.2,16.5,4.59,24.87,6.59,13,3.1,26.52.4,39.85.17,6.22-.11,12.74.41,18,3.67,7.43,4.58,10.82,13.39,14.94,21.09a87.74,87.74,0,0,0,23.45,27.8c5.68,4.41,12.59,9.35,12.52,16.54,0,5.1-3.78,9.53-4.29,14.6-1,10.2,10.84,17.94,10.82,28.19,0,8.12-7.38,14.13-14.39,18.23-16.11,9.43-34,15.55-49.9,25.37s-30.23,24.63-32.83,43.12c-.73,5.13-.56,10.52-2.75,15.21-3.64,7.75-12.58,11.34-20.9,13.36A126.86,126.86,0,0,1,1582,2745c-5.61-.38-11.93-1.57-15-6.31-3.38-5.3-1-12.17-.42-18.43,1.27-14.18-7.72-27.52-18.87-36.4s-24.47-14.49-36.56-22a134.24,134.24,0,0,1-47.52-51Z"></path>
    <path data-name="8c" data-official="" data-plain="Stamen" data-loc="" d="M1752.55,2722.05c8.1-17.73,9-37.76,9.84-57.23,1.56-37.62,3-76.08-7.87-112.12-4-13.39-9.78-26.38-11.79-40.23s.39-29.3,10.44-39a32.1,32.1,0,0,1,36.24-5.25,18.86,18.86,0,0,1,6.06,4.7c2.29,2.84,3.32,6.47,4,10a76.24,76.24,0,0,1-.16,30.76c-1.55,7.3-4.18,14.36-5.21,21.75-1.21,8.72-.17,17.57,1.1,26.28,7.18,49.39,21.44,99.42,11.72,148.37-3.27,16.44-9.23,32.67-8.31,49.39.52,9.37,2.52,20.58-4.69,26.58-2.75,2.29-6.36,3.23-9.85,4a170.67,170.67,0,0,1-28.11,3.79c-4.72.24-9.6.26-14-1.54-6.62-2.74-11-9.29-13.09-16.14-5-16.31,2.39-35.52,17-44.38Z"></path>
    <path data-name="8d" data-official="" data-plain="Ovary and Pistil" data-loc="" d="M1865.2,2764.73c5.42-11.61,9.93-24.9,5.79-37-3.08-9-10.37-15.72-17-22.54-14.63-15.14-27.65-35.22-23.69-55.9,2-10.5,8.25-19.76,15.61-27.51,5.8-6.09,12.76-12.24,13.7-20.59.84-7.58-3.58-14.59-6.29-21.72a50.27,50.27,0,0,1,.13-35.59c3.45-8.9,9.38-16.6,13.62-25.15a72.88,72.88,0,0,0,6.37-45c-1.93-10.63-6.2-20.67-9.83-30.85s-6.69-20.84-6-31.63,5.66-21.82,15-27.33,23-3.69,28.78,5.45c6.59,10.45.94,24.36,3.77,36.39,3,12.89,15.23,21.63,20.25,33.88,6.81,16.6-.67,36.45,6.08,53.07,2.31,5.67,6.12,10.56,9.64,15.56,9.65,13.76,17.5,30,16,46.72-.83,9-4.36,17.72-4.1,26.75.64,22.23,22.73,37.17,32.27,57.25,10.31,21.7,3.72,50.11-15.09,65.06-8.23,6.54-19.08,11.58-22.07,21.66-3.43,11.58,5.57,24,2.77,35.71-3,12.76-17.92,18.31-30.84,20.51a200.89,200.89,0,0,1-42.77,2.61c-2.92-.14-5.92-.36-8.53-1.66-7.68-3.8-8.39-14.28-8-22.84Z"></path>
</svg>
