
<svg xmlns="http://www.w3.org/2000/svg" viewBox="0 0 2097 3031" id="illustration" preserveAspectRatio="xMidYMid meet">
  <title>Menispermaceæ</title>
    <path data-name="1" data-official="Menispermum canadense" data-plain="Canadian Moon-seed" data-loc="N. America" d="M1775.3,283.59c-5.48-34.07-24.12-64.45-43.47-93-32.28-47.68-68.41-94-115.47-127.16-7.83-5.52-16.58-10.85-26.16-10.67-7.34.14-14.18,3.51-20.74,6.8-28.71,14.43-58.43,29.67-78,55.16-19.32,25.2-26.48,57.77-28.19,89.48s1.48,63.5.34,95.23c-.53,14.9-3.49,32.15-16.56,39.34-16.48,9.08-35.71-3.89-53.15-11-27.67-11.22-60.23-6.85-86.24,7.81s-45.88,38.69-59.45,65.29c-6.68,13.09-12,27-20.39,39-10,14.48-24.15,25.89-33.63,40.76-18.9,29.67-16.48,67.62-13.4,102.66L1154,617c2.49,7.45,2.91,13.29,3.52,21.11L1156.45,649q-11.57,6.09-22.76,12.88S1138,642,1138,635s1-8-3-12c-5.7-5.7-33,11-33,11-4,9-2.9,22-11.14,23.18l-4.14,4.93C1077,666,1065.55,680.23,1060,688l-25.08,11.88A197.14,197.14,0,0,0,963.24,782c-8.5,18.24-14.19,37.79-23.92,55.41S914.69,871.13,895.16,876c-4.92,1.23-10.29,1.67-14.95-.35-5.5-2.38-9.05-7.71-12.05-12.9a201.59,201.59,0,0,1-24.48-68.39c-3.48-21.25-3.9-44.08-15.76-62.05-9-13.66-23.5-22.61-34.72-34.51-16.88-17.89-26.15-42.14-44.16-58.89-14.79-13.76-34.46-21.35-54.36-24.79s-40.25-3-60.45-2.58l-30.58,4.17a59.79,59.79,0,0,1-11.62-6c-4.29-3.07-7.78-7.27-12.48-9.67l-19.22-14.74c-14.71-2.77-27.59-11.42-39.37-20.67a94.94,94.94,0,0,0-11.7-8.39,42.47,42.47,0,0,0-43,1.3L463,576c-8,9-14,22-19.09,29.77C438,612,426.38,619,424,623c-6,10-14.7,23.72-20,33s-12.18,11.89-22.6,14.26l-13.65,5.44c-13.28,5.89-27.14,12.22-35.92,23.79-3.41,4.49-5.91,9.59-9.1,14.24-4.18,6.1-9.61,11.53-12.08,18.5-4.41,12.43,1.63,25.85,6.78,38A308.26,308.26,0,0,1,334,821.09c4.37,18.92,7,38.33,13.61,56.58s18,35.73,35.27,44.66c17.57,9.11,39.27,8,57.44.21l36.89-14.76q18.57,3.88,37.27,7l19.46,8.51c18.24,7.11,38.69,3,58.22,4.29,5.82.39,12.88,2.42,14,8.13.79,3.86-1.63,7.57-3.93,10.77l-11.73,16.34c-15.88,22.13-32,44.82-39.7,71l-6.73,19.9q1.94,20.82,3.88,41.64c.54,5.88.79,12.65-3.48,16.75-2.86,2.75-7,3.51-10.82,4.66-20.09,6-33.81,25.45-39.3,45.71s-4.26,41.63-3.74,62.61a870.7,870.7,0,0,1-7.7,139c-2.48,18.16-5.59,36.48-13,53.24a110.8,110.8,0,0,1-45.14,50.44l-14.56,10.92a203.9,203.9,0,0,0-37.51,22l-22.67,9-23.45-7.17c-4.35-1.33-8.91-2.67-13.38-1.83l-11-1.85a286.74,286.74,0,0,0-87.07,27.68c-8,4-15.88,8.49-24.43,11.18-21.09,6.63-44.57,2-65.44,9.33-10,3.51-19,9.59-27.72,15.6-16.89,11.57-33.77,23.13-50.42,35.05-3.9,2.8-7.83,5.65-11,9.27a55.52,55.52,0,0,0-6.45,9.71A226.92,226.92,0,0,0,16.27,1645l.81,19.65c14.83,67.1,29.72,134.64,32.22,203.3.82,22.42.34,45.18,6,66.88,10.42,39.75,42.56,73.08,81.91,84.92l41.77-.35c5.63,2.35,12.19,1.23,18,3.27a33.92,33.92,0,0,1,7.64,4.31c5.34,3.65,10.83,7.44,14.34,12.87L230.53,2054a280.24,280.24,0,0,1,59.28,34.3c7.81,5.9,15.5,12.44,20.08,21.09,9.59,18.11,3.37,40.17-3,59.63q-9.14,27.87-18.29,55.74c-5.63,17.15-11.32,34.45-20.4,50-12.51,21.51-31.1,39.18-42.26,61.41-8.9,17.73-12.65,37.51-16.31,57l-18.33,97.58L187,2504.13a542.41,542.41,0,0,1-35.46,123c-5.64,13.37-12,27.56-9.36,41.83,3.49,19.25,21.82,31.91,39.44,40.42,12.2,5.89,25.49,11,39,9.51,16.11-1.75,29.62-12.45,42.15-22.72l26.56-27.1c10.85-5.27,18-16.28,21.41-27.85s3.53-23.8,3.64-35.86q.47-52.18.92-104.37c.28-31.63,1.77-66.46,23.31-89.62,18.92-20.35,48.8-26.26,76.59-26.5,13.4-.12,27.56.65,39.36-5.71,17.59-9.46,23.95-31.15,28.08-50.69a1027.41,1027.41,0,0,0,20.12-146.84l.4-16.76a425.48,425.48,0,0,0,5.45-74.77l5.25-18.79c5.82-7.69,13.65-13.57,21.06-19.76,6.52-5.44,12.77-11.2,19-17l11.78-10.84c22-20.28,44.34-40.83,60.89-65.81l3.48-.59c12.15,0,25-.07,35.43-6.27l2.08-6.7a106.72,106.72,0,0,1,20-65c5.08-7.05,11.11-13.58,14.58-21.55,4.88-11.21,4.19-24,6.36-36a76.07,76.07,0,0,1,12-29.19l9.47-2.85c16.49-7.67,36.88-.55,49.62,12.43s19.39,30.62,25,47.9,10.8,35.16,21.42,49.92a79.08,79.08,0,0,0,19.45,19,27.06,27.06,0,0,0,9,4.39c4.42,1,9,.14,13.49-.73,22-4.31,45.95-9.8,59.62-27.55,5-6.43,8.14-14,12.15-21.08,12-21.18,31.83-38.4,37.91-62,4.67-18.08.55-37.78,6.59-55.45l3.74-19c11.61-33.18,40.89-56.79,58.69-87.11L1062,1631c10.87-5.08,17.18-6.09,29-4h25c9-2,19-2,24-1,2.68.54,30.64,9.31,30.64,9.31,6.93.35,14.76-1.17,18.64-6.92,2.41-3.58,2.82-8.1,3-12.41,1-21.5-1.42-43.15,1.27-64.5s11.54-43.35,29.58-55.09L1230,1470c11.44-13.5,23.75-25.32,39.59-33.2-5.39-13.47-10.85-27.19-12.12-41.65-.73-8.31,0-16.69-.41-25a101.12,101.12,0,0,0-8.28-35.9c-4-9.26-7.48-18-9.51-27.93-1.18-5.77-1.15-11.71-1.1-17.6.07-6.54-2.31-25.32-2.31-25.32C1220,1236,1209,1205.22,1217,1175l-3-6.12a64.93,64.93,0,0,1-13.88-14.49c-6.59-9.46-10.79-20.85-19.54-28.36-18.87-16.19-50.77-8-69.27-24.65l-20.82-5.55c-43.65-7.55-88.32,2.5-130.87,14.79s-85.07,27-129.32,29c-9.47.42-21.33-1.36-24.25-10.38-1.46-4.51,0-9.42,1.71-13.83,14-35.74,46.2-60.65,77.2-83.31,29.09-21.27,58.68-42.3,91.42-57.36s69.15-23.94,104.93-19.64l37-4.67,77.23,3.85c11.17.55,22.66,1.06,33.21-2.64,14.15-5,24.63-16.78,34.44-28.12,11.09-12.81,22.66-26.7,24.65-43.52,1.1-9.28-.86-18.81.94-28l-6.6-45.77c2.4-12.76,1.1-25.88.34-38.85a2.67,2.67,0,0,1,.27-1.66,3,3,0,0,1,2-.89,16.1,16.1,0,0,0,11.21-8.15l3.21-8.39c2.19-2,2.93-5.18,3.55-8.13,1.61-7.6,3.17-15.33,2.7-23.09l.1-1.63a184.42,184.42,0,0,0,38.61,5.61,6.83,6.83,0,0,0,2.59-.25,8.41,8.41,0,0,0,2.83-2.22c2.92-2.89,6.66-4.79,10.34-6.64s6.4-5.08,10.08-6.93c2.38-1.2,4.44-3.24,7-4,8.13-2.41,18.16,2.11,26.62,1.51l13.07.32,48.59-11.62c7.87-1.88,16.75-4.54,20.22-11.85,2.11-4.45,1.67-9.67.6-14.47-6.11-27.6-30.81-54.23-19.55-80.16,3.62-8.35,10.54-14.75,17.53-20.58a308.24,308.24,0,0,1,110-58.77c26.75-7.87,54.48-12.07,81.07-20.46s52.71-21.63,69.85-43.61c19.68-25.23,25.07-58.46,28.91-90.22C1776.64,328.67,1778.89,305.88,1775.3,283.59ZM597.53,1959c-19.61,21.18-39.38,42.51-62.81,59.36l-5.29-6.72a138.73,138.73,0,0,1,24.3-46.34c4.8-6,10.29-11.76,17.28-15,10.48-4.84,22.91-3.28,33.69.85C602.34,1953.78,599.93,1956.38,597.53,1959Z"></path>
    <path data-name="1a" data-official="" data-plain="Stamen flower" data-loc="" d="M162.5,2953.26c1.53-14.91,2.78-31.12-5.28-43.76-3.29-5.15-7.91-9.31-11.62-14.17s-6.58-10.95-5.43-17c.63-3.33,2.3-7.26,0-9.71a7.44,7.44,0,0,0-3.3-1.7c-11.64-3.59-24.28-4.74-34.68-11.1-6.1-3.73-11.08-9.09-15.2-14.93-6.93-9.83-11.65-21.36-12.64-33.34-1.67-20.11,8.1-41,25.14-51.8,8.63-5.47,18.66-8.32,28.68-10.33a201.24,201.24,0,0,1,34.18-3.87c6.32-.17,12.75,0,18.79,1.81,5.55,1.7,10.57,4.76,15.52,7.79l34.67,21.22c5.57,3.41,11.26,6.92,15.36,12,4.47,5.52,6.73,12.53,7.89,19.54,1.89,11.31,1,23.35-4.27,33.51a41.62,41.62,0,0,1-17.76,17.65c-7.55,3.87-17.4,6.58-19.7,14.75-.93,3.33-.29,6.89.64,10.22,4.87,17.45,17.66,33.4,15.82,51.42-.77,7.47-4.07,14.8-2.83,22.2,1.13,6.82,6,12.59,7.09,19.41,1.54,9.63-5.07,19.14-13.63,23.81s-18.66,5.46-28.41,5.58c-6.86.08-14.28-.31-19.63-4.61-4.9-3.94-7-10.43-7.76-16.67s-.34-12.61-1.4-18.81Z"></path>
    <path data-name="1b" data-official="" data-plain="Petal" data-loc="" d="M281.43,2922.79a127.88,127.88,0,0,1-13.25-55.7c-.07-9.49.93-19,1.93-28.4.45-4.14.91-8.35,2.47-12.21,4.08-10.09,15.05-15.94,25.83-17.38,7.17-1,14.73-.27,21.1,3.15,7.2,3.86,12.21,10.75,16.63,17.61,15.74,24.44,27.39,52,30.48,80.87,1.59,14.94.89,30,.19,45-.25,5.34-.51,10.72-1.82,15.9-4.81,18.9-23.55,32-42.87,34.69-10.8,1.51-23.51-.64-29.25-9.91-3.26-5.25-3.61-11.81-2.94-18s2.26-12.18,2.54-18.35c.5-11-3.21-21.81-7.64-31.92Z"></path>
    <path data-name="1c" data-official="" data-plain="Stamen" data-loc="" d="M396.07,2979.25c-.37-14.13,8.36-27.35,7.8-41.48-.74-18.7-17-32.71-24.2-50-2-4.79-3.29-10-2.68-15.15,1.09-9.13,8-16.57,15.59-21.72,12-8.13,28.68-11.94,40.82-4,6.41,4.19,10.63,11,13.66,18.08s5.1,14.42,7.16,21.79l11.95,42.84c2.47,8.85,5,17.78,5.56,26.95s-.82,18.73-5.66,26.54a25,25,0,0,1-10.31,9.66c-4,1.9-8.55,2.4-13,2.87-8.39.89-16.89,1.77-25.25.59s-16.71-4.66-22.1-11.15Z"></path>
    <path data-name="1d" data-official="" data-plain="Fruit" data-loc="" d="M587.41,2993.19c12.62-10.4,15.35-28.79,13.61-45.05-.23-2.12-.5-4.35.33-6.31,1.6-3.8,6.35-4.85,10.33-5.9,18-4.78,32.09-19.55,39.61-36.53s9.18-36,8.73-54.58c-.24-9.85-1.07-19.79-4.06-29.18-5.7-17.83-18.69-32.23-31.32-46-4.88-5.33-10-10.85-16.86-13.26-5.74-2-12.08-1.62-18-.35a66.86,66.86,0,0,0-31.46,16.33c-1.16,1.09-2.44,2.28-4,2.36a7.31,7.31,0,0,1-3.32-1c-7.3-3.39-15.64-3.51-23.69-3.58-14.52-.11-30,0-42.17,7.95-8.7,5.65-14.73,14.79-18.2,24.57s-4.59,20.22-5.11,30.59a285,285,0,0,0,.65,38.32c1.06,12.51,3,25.2,8.65,36.43s15.43,20.91,27.66,23.78c11.64,2.73,24.1-.87,35.7,2.06-3.08,11.32-9.24,21.67-11.73,33.13s-.11,25.39,10,31.34c4,2.34,8.64,3.16,13.22,3.63a103.75,103.75,0,0,0,37.82-3.14Z"></path>
    <path data-name="1e" data-official="" data-plain="Seed" data-loc="" d="M677.82,2949.89l7.91-25.38c2.49-8,5-16.3,3.95-24.61-1.95-15.23-15.32-26.73-19-41.64-1.48-6.06-1.28-12.39-1.06-18.63.38-10.54,1.57-22.6,10.12-28.77,3.35-2.41,7.43-3.56,11.48-4.34a71.14,71.14,0,0,1,43.59,5.17c13.44,6.39,24.63,17.65,30.27,31.42a56.58,56.58,0,0,1,4.11,18c.86,14.61-4.11,29.26-12.55,41.22-2.1,3-4.44,5.86-5.85,9.23-5,11.88,2.65,27.14-4.66,37.74-3.22,4.68-8.66,7.23-13.84,9.56-8.28,3.74-16.77,7.54-25.83,8.21s-19-2.41-24-9.94Z"></path>
    <path data-name="2" data-official="Menispermum virginicum" data-plain="Virginian Moon-seed" data-loc="N. America" d="M234.28,2308.33c-2.85,15.6-12.26,29.13-17.86,44-5.83,15.46-7.6,32.58-16.16,46.72-4.9,8.08-11.8,14.77-19.1,20.77-8.06,6.62-17.06,12.66-27.32,14.49s-22-1.49-27.65-10.27c-5.77-9-3.66-21.2,1.49-30.61s12.92-17.09,19-25.94a77.65,77.65,0,0,0,13.85-43c.26-37.07-27.54-68.65-33.78-105.2-3.31-19.41-.37-39.31,3-58.71,6.09-34.62,13.67-69,21.53-103.22,3.06-13.3,7.69-28.47,20.31-33.63l7.39-4.32c5.63,2.35,12.19,1.23,18,3.27a33.92,33.92,0,0,1,7.64,4.31c5.34,3.65,10.83,7.44,14.34,12.87l5.83,14.86a484.78,484.78,0,0,0-17.15,51c-9.38,34-14.94,70.72-4.12,104.33,5.34,16.6,14.45,31.7,21.57,47.61S237.42,2291.17,234.28,2308.33ZM504.85,1054.89c-7.16,15.24-17.43,28.76-26.62,42.86a348.4,348.4,0,0,0-39.75,83.6c-2.62,8.17-5,16.57-4.93,25.15.06,18.81,11.25,35.51,17.22,53.35,13.11,39.17.5,82.3-17.27,119.6s-40.91,72.67-50.37,112.89l-10.47,8.34-22.67,9-23.45-7.17c-4.35-1.33-8.91-2.67-13.38-1.83l-11-1.85-13.24-1c-21.38,1.7-42.38,11.7-62.72,20.14s-40.77,21.86-62.74,22-44.68-8-58.7-24.9a58,58,0,0,1-6.49-9.63l-9.74-8.28A364.64,364.64,0,0,0,61.66,1410c-9.74-21.58-21.7-42.52-26.52-65.71-5.42-26.1-1.4-53.13,2.64-79.48,1.31-8.52,2.78-17.44,8.08-24.24,7.83-10,21.63-12.68,32.88-18.64,32.41-17.16,43.91-62.23,78-75.71,23.85-9.41,52-.25,75.79-9.88,24.13-9.79,37.12-36.47,41.66-62.11s2.86-52.18,8.57-77.59,21.52-51.19,46.76-57.58c12.35-3.13,25.32-1.24,38-.51a204.76,204.76,0,0,0,60.91-5.69l11.79-10.33,36.89-14.76q18.57,3.88,37.27,7l6.09,40.45C520,989.13,519.26,1024.21,504.85,1054.89ZM983.45,453.1a25.22,25.22,0,0,0-6.77,2.42,44.88,44.88,0,0,0-5.28,4,44.07,44.07,0,0,1-21.49,9.07c-4.2.56-8.55.51-12.55,1.95-4.46,1.6-8.08,4.9-11.57,8.11-4.52,4.17-9.08,8.4-12.5,13.51l-15.62,10.11A348.79,348.79,0,0,1,782.22,505c-16.68-2.39-34.65-5.8-49.67,1.86-6.8,3.47-12.33,8.94-17.72,14.35-7.6,7.63-15.45,15.82-18.09,26.26-2.31,9.11-.42,19.21-4.47,27.68-7,14.59-27.36,17-37.61,29.56l-20.43,6.79-30.58,4.17a59.79,59.79,0,0,1-11.62-6c-4.29-3.07-7.78-7.27-12.48-9.67l-19.22-14.74-18.87-9.81c-10.2-6.86-20.49-13.77-31.84-18.48s-24-7.12-36-4.63l-7.34,5.16L463,576c-8,9-14,22-19.09,29.77C438,612,426.38,619,424,623c-6,10-14.7,23.72-20,33s-12.18,11.89-22.6,14.26l-29.12.86c-15.65,9.11-37,2.37-48.64-11.49s-15.22-32.89-15.1-51c.07-9.78.66-20.82-6.08-27.91-4-4.23-9.92-6.1-15.65-7.22-22.08-4.3-44.78.29-67.24,1.78s-47-.93-63.57-16.22c-14.79-13.69-20-34.92-21.27-55-.64-9.85-.42-20.21,4.26-28.9,11-20.29,41-23.21,53.15-42.77,7.52-12,6.32-27.74,1.46-41.07s-13-25.21-19.09-38a137.71,137.71,0,0,1-13-68.9c.28-4,.78-8,2.76-11.49,2.65-4.64,7.55-7.46,12.35-9.8,31.49-15.33,67.49-18.6,102.52-18.22a542.9,542.9,0,0,1,106.7,11.8c20,4.25,40.63,9.66,60.68,5.56,14.94-3.06,28.26-11.15,42.21-17.29C526.9,219.37,599.4,230.44,647.3,272.2c24.89,21.7,42.79,50.13,64.23,75.26,2.63,3.08,5.44,6.22,9.16,7.85,12.66,5.56,27.47-8.82,40.35-3.77l15.09,1.76c6,3.09,12.23,6.22,19,7.24a65.46,65.46,0,0,0,9.5.5c17.42.08,35.91.83,50.4,10.49,2.73,1.82,5.26,3.92,8,5.65,8.39,5.19,18.56,6.64,27.48,10.87,3.72,1.76,7.21,4,11,5.68,7,3.12,23,3.77,28.52,9.27s7.2,9,15,11.86c2.83,1.05,5.87,1.45,8.69,2.53,6.14,2.33,10.78,7.63,16.91,10,2.11.81,4.35,1.24,6.5,1.91A50.94,50.94,0,0,1,987.29,434c8.3,4.78,25.06,17.07,25.06,17.07A88.37,88.37,0,0,0,983.45,453.1Z"></path>
    <path data-name="3" data-official="Cocculus Plukenetii" data-plain="Officinal Cocculus" data-loc="East Indies" d="M597.53,1959c-19.61,21.18-39.38,42.51-62.81,59.36l-5.29-6.72a138.73,138.73,0,0,1,24.3-46.34c4.8-6,10.29-11.76,17.28-15,10.48-4.84,22.91-3.28,33.69.85C602.34,1953.78,599.93,1956.38,597.53,1959Zm-146.91,750.2c40.21,15.48,88.5,7.59,121.69-19.88,17.12-14.17,30-32.7,41.78-51.56,20-32.1,37.29-66,49.77-101.67,28-80.17,32.61-170.88,82.88-239.33,9.92-13.51,24.91-27,41.25-23.32,18.33,4.17,25,26.36,28.31,44.86q16.46,91.41,32.89,182.83c6.53,36.28,13.23,73.11,29.48,106.2s43.6,62.54,79,72.69c21.92,6.27,45.44,4.81,67.65-.32,17.81-4.12,35.34-10.7,49.89-21.77,23.22-17.65,37-45.43,43.38-73.89s6-57.94,5.56-87.1l-6.3-12.12c-3.72-19.22-7.28-38.49-9.45-58-2.07-18.67-2.86-37.55-6.9-55.91s-11.66-36.5-25.27-49.45c-4.27-4-9.18-7.69-11.9-12.9-4.95-9.5-1.25-20.92.19-31.53.92-6.7.9-13.6,3.07-20,1.89-5.58,5.34-10.46,8.75-15.26,12.29-17.32,24.76-34.83,40.86-48.67l6.43-10.13a214.18,214.18,0,0,0,80.07-38.11c6.31-4.84,12.34-10,18.3-15.29A114.94,114.94,0,0,0,1235.7,2116c20.26-25,22.09-65.13,47.28-85.21l13.08-14.47,13.18-21.89,3.52-5.85c1.56-2.6,3.12-5.19,4.62-7.82a190.33,190.33,0,0,0,10.37-21.12l5-12.7a109.12,109.12,0,0,0,21.93-48.36c2.9-16.11,2-33.12-4.06-48.31-4.51-11.25-11.8-21.38-15-33.08s-2-24.24-3.74-36.3c-3.89-27.22-23.87-51.51-49.81-60.59-10.78-3.77-22.23-5-33.42-7.3-17.8-3.59-35.56-10-49.07-22.11s-22.08-30.84-18.56-48.65l-10.4-6.92s-28-8.77-30.64-9.31c-5-1-15-1-24,1h-25c-11.82-2.09-18.13-1.08-29,4l-15.36,19.59c-17.8,30.32-47.08,53.93-58.69,87.11l-3.74,19c-6,17.67-1.92,37.37-6.59,55.45-6.08,23.58-25.89,40.8-37.91,62-4,7.07-7.19,14.65-12.15,21.08-13.67,17.75-37.64,23.24-59.62,27.55-4.46.87-9.07,1.75-13.49.73a27.06,27.06,0,0,1-9-4.39,79.08,79.08,0,0,1-19.45-19c-10.62-14.76-15.78-32.63-21.42-49.92s-12.29-34.93-25-47.9-33.13-20.1-49.62-12.43l-9.47,2.85a76.07,76.07,0,0,0-12,29.19c-2.17,12-1.48,24.78-6.36,36-3.47,8-9.5,14.5-14.58,21.55a106.72,106.72,0,0,0-20,65l-2.08,6.7c-10.45,6.2-23.28,6.32-35.43,6.27l-3.48.59c-16.55,25-38.84,45.53-60.89,65.81l-11.78,10.84c-6.26,5.75-12.51,11.51-19,17-7.41,6.19-15.24,12.07-21.06,19.76l-5.25,18.79a425.48,425.48,0,0,1-5.45,74.77l-.4,16.76,5.76,12.44c14,10,21.22,27.22,23.57,44.24s.48,34.29-.11,51.46a345.83,345.83,0,0,0,21.26,131.68c6.61,17.86,14.85,36,13.4,55-.8,10.4-4.5,20.38-9,29.79a176.32,176.32,0,0,1-63.15,71.57c-16.32,10.51-34.52,18.4-48.9,31.45-23.53,21.36-33.39,59.57-15.84,86.05Z"></path>
    <path data-name="4" data-official="Cissampelos Caapeba" data-plain="Brava-root" data-loc="S. America" d="M1798.85,443.46c27.57-18.34,61.53-31.38,93.56-23,25.37,6.62,45.48,25.47,63.87,44.16,36.71,37.29,72.32,78.4,87.31,128.54,7.51,25.13,9.51,51.53,11,77.71q4.61,83.52,2.19,167.24c-1.17,40.66-4,82.83-23.45,118.55-38,69.93-128.31,96.42-172.17,162.85-5.59,8.46-10.5,18.39-8.62,28.35,1.58,8.37,7.64,15.08,13.59,21.17a530.54,530.54,0,0,0,73.06,62.27l18.54,36a1156.43,1156.43,0,0,1,127.65,481.55c1.68,40.86,1.07,82.54-11.29,121.52s-38,75.36-75.16,92.46c-25,11.49-57.3,16.85-68.19,42.07-4,9.3-4.12,19.75-4.17,29.88q-1,215.22-1.94,430.45c-.19,43-1,88.33-22.81,125.4s-72.5,60.83-109.31,38.56c-28.46-17.22-38-53.46-58.53-79.62-24-30.58-62.84-46.29-101.3-52.06s-77.62-2.89-116.51-3.37c-107.89-1.31-213.61-28.36-318.1-55.25-35.31-9.08-74.57-21.15-91.66-53.36l-4.83-14.51c-4-18.35-11.66-36.5-25.27-49.45-4.27-4-9.18-7.69-11.9-12.9-4.95-9.5-1.25-20.92.19-31.53.92-6.7.9-13.6,3.07-20,1.89-5.58,5.34-10.46,8.75-15.26,12.29-17.32,24.76-34.83,40.86-48.67l6.43-10.13a214.18,214.18,0,0,0,80.07-38.11c6.31-4.84,12.34-10,18.3-15.29A114.94,114.94,0,0,0,1235.7,2116c20.26-25,22.09-65.13,47.28-85.21l13.08-14.47,13.18-21.89,3.52-5.85c1.56-2.6,3.12-5.19,4.62-7.82a190.33,190.33,0,0,0,10.37-21.12l5-12.7a109.12,109.12,0,0,0,21.93-48.36c2.9-16.11,2-33.12-4.06-48.31-4.51-11.25-11.8-21.38-15-33.08s-2-24.24-3.74-36.3c-3.89-27.22-23.87-51.51-49.81-60.59-10.78-3.77-22.23-5-33.42-7.3l-1.64-12.85c-10.53-49.58-42.65-93.09-49.62-143.3l-3.84-5.36c2.68-21.36,11.54-43.35,29.58-55.09L1230,1470c11.44-13.5,23.75-25.32,39.59-33.2-5.39-13.47-10.85-27.19-12.12-41.65-.73-8.31,0-16.69-.41-25a101.12,101.12,0,0,0-8.28-35.9c-4-9.26-7.48-18-9.51-27.93-1.18-5.77-1.15-11.71-1.1-17.6.07-6.54-2.31-25.32-2.31-25.32C1220,1236,1209,1205.22,1217,1175l-3-6.12a64.93,64.93,0,0,1-13.88-14.49c-6.59-9.46-10.79-20.85-19.54-28.36-18.87-16.19-50.77-8-69.27-24.65l4.29-24c-4.44-36.53,13.8-72.74,39.25-99.31,7.35-7.68,16.7-15.25,27.28-14.24l13.42-9.59c11.17.55,22.66,1.06,33.21-2.64,14.15-5,24.63-16.78,34.44-28.12,11.09-12.81,22.66-26.7,24.65-43.52,1.1-9.28-.86-18.81.94-28l-6.6-45.77c2.4-12.76,1.1-25.88.34-38.85a2.67,2.67,0,0,1,.27-1.66,3,3,0,0,1,2-.89,16.1,16.1,0,0,0,11.21-8.15l3.21-8.39c2.19-2,2.93-5.18,3.55-8.13,1.61-7.6,3.17-15.33,2.7-23.09l.1-1.63a184.42,184.42,0,0,0,38.61,5.61,6.83,6.83,0,0,0,2.59-.25,8.41,8.41,0,0,0,2.83-2.22c2.92-2.89,6.66-4.79,10.34-6.64s6.4-5.08,10.08-6.93c2.38-1.2,4.44-3.24,7-4,8.13-2.41,18.16,2.11,26.62,1.51l13.07.32,48.59-11.62c7.87-1.88,16.75-4.54,20.22-11.85,2.11-4.45,1.67-9.67.6-14.47-6.11-27.6-30.81-54.23-19.55-80.16,3.62-8.35,10.54-14.75,17.53-20.58a308.24,308.24,0,0,1,110-58.77c26.75-7.87,54.48-12.07,81.07-20.46s52.71-21.63,69.85-43.61ZM1249.24,376.3a1631.94,1631.94,0,0,0,4-199.64l-2-13.14c-8.28-46.19-40.72-85.71-80.75-110.21s-87-35.37-133.77-39.76S943,10.9,896.09,9.65c-31.67-.84-63.92-3-94.55,5.08s-60.11,28.67-69.15,59c-6.07,20.38-2.34,42.19-2.5,63.45-.27,36.64-12.23,72.7-10.2,109.29A144.77,144.77,0,0,0,752,329.56l9,22,15.09,1.76c6,3.09,12.23,6.22,19,7.24a65.46,65.46,0,0,0,9.5.5c17.42.08,35.91.83,50.4,10.49,2.73,1.82,5.26,3.92,8,5.65,8.39,5.19,18.56,6.64,27.48,10.87,3.72,1.76,7.21,4,11,5.68,7,3.12,23,3.77,28.52,9.27s7.2,9,15,11.86c2.83,1.05,5.87,1.45,8.69,2.53,6.14,2.33,10.78,7.63,16.91,10,2.11.81,4.35,1.24,6.5,1.91A50.94,50.94,0,0,1,987.29,434c8.3,4.78,25.06,17.07,25.06,17.07a88.37,88.37,0,0,0-28.9,2,25.22,25.22,0,0,0-6.77,2.42,44.88,44.88,0,0,0-5.28,4,44.07,44.07,0,0,1-21.49,9.07c-4.2.56-8.55.51-12.55,1.95-4.46,1.6-8.08,4.9-11.57,8.11-4.52,4.17-9.08,8.4-12.5,13.51L923,512.86c11,10.63,15.3,26.42,16.67,41.62s.24,30.62,2.47,45.72c6,40.45,38,75.8,77.65,85.72l15.18,14L1060,688c5.55-7.77,17-22,26.72-25.89l4.14-4.93C1099.1,656,1098,643,1102,634c0,0,27.3-16.7,33-11,4,4,3,5,3,12s-4.31,26.87-4.31,26.87q11.18-6.79,22.76-12.88l1.07-10.88c-.61-7.82-1-13.66-3.52-21.11l26.8-33.66c-3.08-35-5.5-73,13.4-102.66,9.48-14.87,23.58-26.28,33.63-40.76,8.38-12.07,13.71-25.94,20.39-39Z"></path>
    <path data-name="5" data-official="Cocculus palmataus" data-plain="Section of Root" data-loc="" d="M787.11,2969.56c-11.08-14-11.41-33.41-11.24-51.26q.25-28.05.53-56.09c.19-19.58.65-40.21,10.66-57,9.64-16.22,26.68-26.4,43.36-35.22,13.32-7,27-13.72,41.62-17.38,41.37-10.33,84.55,4.49,123.79,21.15,21.58,9.16,43.55,19.41,59.21,36.85,12.4,13.8,20,31.37,24.15,49.46a156.39,156.39,0,0,1,.46,65.86c-3.77,18.33-12.06,37.52-28.75,46-4.38,2.22-9.43,3.8-12.33,7.77-1.93,2.63-2.6,5.94-3.55,9.06a48,48,0,0,1-34.29,32.09c-8.8,2-20.5-.26-22.64-9-1.12-4.58.81-9.73-1.28-13.95-2.59-5.23-9.6-6-15.44-6.08q-44.74-.55-89.5.13c-12,.18-24.27.41-35.88-2.77-14.19-3.89-26.85-12.72-41.38-15Z"></path>
    <path data-name="6" data-official="Cocculus macrocarpus" data-plain="Fruit" data-loc="" d="M1885.33,2965.5c1.83-11.3,6.29-22,8.76-33.2s2.71-23.6-3.33-33.32c-5-8.09-13.84-13.41-18.29-21.83-5.15-9.75-3.45-21.52-4.86-32.46-2.71-21.16-17-38.82-24.76-58.68-9.21-23.53-9-49.53-8.77-74.79.27-23.67.89-48.63,13.2-68.85,2.34-3.85,5.19-7.55,9.07-9.84,4.54-2.69,10-3.16,15.28-3.58,32.79-2.57,67.46-4.8,96.91,9.84,26.25,13.05,45,38.33,55.18,65.8s12.82,57.18,13.47,86.49c.57,25.93-.72,53.36-14.69,75.22-14.6,22.85-41.53,37-51.86,62-6.77,16.46-5.26,35.2-10.34,52.26-1.63,5.47-4,10.84-7.79,15.11-8.71,9.83-23,12.08-36.1,13-4.54.31-9.22.51-13.49-1-12-4.29-15.4-19.28-17-31.9Z"></path>
    <path data-name="7a" data-official="" data-plain="Pistil flower" data-loc="" d="M1483.59,2977.09c-8.3-1.35-14.58-9.05-16.17-17.31s.75-16.83,4.49-24.36,8.81-14.31,13.16-21.51a14,14,0,0,0,2.28-5.53,10.8,10.8,0,0,0-1.83-6.62c-6.2-10.28-20.67-13.74-25.8-24.59-4.09-8.62.17-20.19,8.86-24.12,3.78-1.7,8.59-2.48,10.41-6.2,2-4-.92-8.54-2.07-12.84-2-7.61,1.78-16,7.95-20.86s14.26-6.8,22.13-7.09,15.72.88,23.57,1.44a204.27,204.27,0,0,0,26,0c12.11-.68,24.43-2,36.24.73a52.72,52.72,0,0,1,39.48,62.58c-2.94,13.49-11.18,26.11-10.11,39.87.53,6.75,3.29,13.11,4.64,19.74s1,14.28-3.7,19.14c-6.7,6.92-19.4,5.48-25.25,13.12-5.06,6.6-2.38,16.77-7.07,23.65-2.59,3.8-7,5.9-11.26,7.59a145.24,145.24,0,0,1-37.23,8.92c-9.3,1-18.85,1.34-27.9-1.07s-17.62-7.79-22.2-16Z"></path>
    <path data-name="7b" data-official="" data-plain="Stamen flower" data-loc="" d="M1696.1,2976.94a135.77,135.77,0,0,1,4-37.24c1.22-4.89,2.52-10.68-.82-14.46s-9-3.24-13.85-3.5c-13.17-.69-25.5-9-31.65-20.71s-6.19-26.19-.77-38.2c2.69-5.95,6.83-11.5,12.63-14.49,7.62-3.93,16.7-2.94,25.23-3.71a9.81,9.81,0,0,0,4.71-1.3c3.79-2.56,2.84-8.24,2-12.74-2.2-11.66-.51-24.19,5.54-34.4s16.61-17.86,28.36-19.5c7.1-1,14.35.14,21.21,2.19,15.22,4.56,30.1,15.25,33.32,30.81,2.13,10.32-1.17,20.87-3.19,31.22-.47,2.4-.83,5,.36,7.17,2,3.56,6.93,3.74,11,3.71,13.46-.09,27.49,2.73,38,11.18s16.34,23.48,11.28,36c-4.14,10.19-14.62,16.77-25.42,18.82s-22,.23-32.66-2.31c-2.46,7.25-.72,15.15,0,22.77a84.93,84.93,0,0,1-8.41,45.66c-2.52,5.06-5.64,10-10.13,13.41-4.18,3.18-9.32,4.88-14.49,5.84a60,60,0,0,1-53.48-17.4Z"></path>
    <path data-name="8a" data-official="" data-plain="Section of Fruit, showing Seed" data-loc="" d="M1149.57,2973.58c-8.3-15.93-5.72-36.87,6.19-50.32,4.21-4.75,9.69-9.09,10.74-15.34.71-4.2-.79-8.44-2.45-12.37-7-16.49-17.4-31.7-21.39-49.16a96.82,96.82,0,0,1-2-24.09c.59-22.3,7-45.86,23.83-60.45,12.46-10.78,29.75-15.44,46.1-13.4s31.64,10.54,42.82,22.65a67.27,67.27,0,0,1,12.6,19.17c5.39,12.68,6.16,26.82,5.9,40.59-.47,24.71-4.49,50.56-19.43,70.25-6.25,8.23-14.39,15.41-17.83,25.15-3.81,10.85-1.11,23-4.3,34.1a17.57,17.57,0,0,1-4,7.49,20.88,20.88,0,0,1-6.69,4.14,87.53,87.53,0,0,1-55.05,4.85Z"></path>
    <path data-name="8b" data-official="" data-plain="Section of Fruit and Seed" data-loc="" d="M1331.52,2978.62l8.8-25.34c1.12-3.23,2.25-6.53,2.27-10,.05-8.89-7.12-15.85-12.74-22.75-11.16-13.7-17.54-30.81-20.63-48.21s-3-35.19-2.47-52.85c.41-12.8,1.14-25.86,5.84-37.78a57.34,57.34,0,0,1,28.67-30.79,52.61,52.61,0,0,1,41.85-1.08c9,3.77,16.79,10.14,23.57,17.2a127.35,127.35,0,0,1,17.65,23.17c11.6,19.53,17.8,41.91,20.36,64.48,2,17.94,1.4,37.55-9.44,52-6,8-15,14.13-18.63,23.5-6.19,15.92,4.89,36.31-5.35,50-5.11,6.83-14,9.46-22.28,11.44s-16.6,3.74-25.06,3.58-17.11-2.4-23.73-7.68Z"></path>
</svg>
