
<svg xmlns="http://www.w3.org/2000/svg" viewBox="0 0 2014 2784" id="illustration" preserveAspectRatio="xMidYMid meet">
  <title>Pomaceæ</title>
    <path data-name="1" data-official="Pyrus Malus" data-plain="Apple or Crab-Tree" data-loc="Britain" d="M909.24,1784c-2.55,21.56-1.18,43.37.19,65,.49,7.76,1,15.54,2.6,23.14,1,4.62,2.36,9.14,3.41,13.75a96,96,0,0,1,2.31,25.79l1.14,6.1c-.55,8.72,2.44,17.62.32,26.1-.51,2-1.44,4.18-3.26,5.27a8.66,8.66,0,0,1-2.63.92,41.54,41.54,0,0,1-12.87.85l-5.61-1.65a35.83,35.83,0,0,1-5.71-2.42,8.9,8.9,0,0,1-2.09-1.43,7.44,7.44,0,0,1-1.58-2.43c-1.5-3.45-1.5-7.34-1.48-11.11l.06-9.6-.07-6.72c-10.47-1.59-18.45-10.86-21.7-20.94s-2.67-20.94-2-31.51q.81-13.93,1.61-27.86l-1.13-7.24a191.64,191.64,0,0,1,5-41.32l-5.85.11-2-3.44c-4.6-27.55-19.14-52.45-26-79.53l-3.81-8.54c-3-13.15-6.82-26.5-14.73-37.44a12.37,12.37,0,0,0-4.29-4.13,13,13,0,0,0-5.71-1,96.87,96.87,0,0,0-40.86,8.62c-3.41,1.54-6.77,3.31-10.45,4-7.28,1.37-14.59-1.63-21.38-4.56l-8-2.54c-1-1.74-3.25-2.17-5.12-2.88-5.44-2.08-8.74-7.47-12.09-12.24a138.44,138.44,0,0,0-13.87-16.53,18.54,18.54,0,0,0-4-3.4,15.76,15.76,0,0,1-2.42-1.41,8.68,8.68,0,0,1-1.35-1.55l-5.75-7.81a28.47,28.47,0,0,1-2.62-4c-1.26-2.5-1.81-5.41-3.62-7.55l-2.58-5.1c-6.41-7.29-14.74-12.57-22.1-18.89a12.84,12.84,0,0,1-3.14-3.48c-2-3.67-.3-8.13.74-12.17,2.48-9.63,1.08-19.79-.33-29.64l-2.83-5.25c-.3-4.58-.3-9.92,3.25-12.83a9.45,9.45,0,0,1,7.08-1.79,22.24,22.24,0,0,1,7.09,2.38c1.69.83,3.9,1.67,5.29.39,1.77-1.64.12-4.81,1.25-6.94s3.91-2,6.16-1.69c16.59,2.63,31.36,11.75,45.21,21.26,3.09,2.12,6.36,4.53,7.47,8.1l4.32,9c-.45,4.55,1.35,9.12,4.14,12.74a41.05,41.05,0,0,0,10.33,9,72.24,72.24,0,0,0,19.87,9.54l4.87,1.65a16.22,16.22,0,0,0,7.52-1c2.8-1.24,4.85-3.71,6.58-6.25a53.23,53.23,0,0,0,7.77-17.7l.64-4.8,1.19-8.8c.34-2.45.67-4.9.82-7.37.29-4.65-.05-9.32.21-14s1.15-9.4,3.67-13.31l6.31-2.73,5.91,6.07a6,6,0,0,0,1.88,1.47c1,.42,2.2.23,3.29.46,3.14.65,4.58,4.39,7.35,6,3.1,1.82,7.07.62,10.59,1.31,4.71.92,8.2,5.1,12.82,6.38a22.38,22.38,0,0,0,5.48.57l13.91.28.3.22a44.66,44.66,0,0,0-1.76,8.9,22.65,22.65,0,0,0,8.46,18.81,31.1,31.1,0,0,1,3.45,2.81c2.83,3,3.31,7.41,3.64,11.5l-.51,4.53a35,35,0,0,1-9.15,10.11,35.61,35.61,0,0,0-3,2.32,21.35,21.35,0,0,0-2.3,2.72c-1.22,1.64-2.44,3.45-2.48,5.5,0,1.27.42,2.63-.16,3.76l3.25,10.62c9.78,24,15.25,49.48,23,74.21,9.41,30.26,22.34,60.58,20.54,92.22ZM763.8,1333.75l-6.39,1.09a1.56,1.56,0,0,0-1,.46,1.54,1.54,0,0,0-.21.85l-.18,3.06c-1,.34-2-.09-3.07-.08s-2.25.93-1.81,1.86c-2.71-.89-5.46.92-8.07,2.07a18.62,18.62,0,0,1-6.73,1.55c.9,1.23.2,2.93-.25,4.4a11.74,11.74,0,0,0-.45,4.86l.06.44,2.41,0c.88-.72.24-2.39,1.11-3.12a2.17,2.17,0,0,1,1.36-.35l5.31-.15c1,0,2.35-.27,2.56-1.29.12-.61-.23-1.35.2-1.81a1.39,1.39,0,0,1,1-.33l10.2-.59a3.43,3.43,0,0,1,1.27-2.4,4.22,4.22,0,0,0,1-.81,2.89,2.89,0,0,0,.37-1.24c.29-1.73,1.52-3.7,3.25-3.43a2.7,2.7,0,0,1,2,1.89,8.14,8.14,0,0,1,.23,2.87l2.25-.19-.29-7.94a1.62,1.62,0,0,0-.26-1,1.49,1.49,0,0,0-.91-.4,18.79,18.79,0,0,0-3.42-.34Zm-53.68-114.83a12.17,12.17,0,0,1-10,3.61,9,9,0,0,1-1.86,4.51,1.27,1.27,0,0,0-.32.59,1.25,1.25,0,0,0,.08.54l.66,2a6,6,0,0,1,3.22-.79,1.15,1.15,0,0,0,.58-.06,1.26,1.26,0,0,0,.45-.54c1-1.66,3.31-2,5.26-1.86s4,.52,5.79-.32a8.37,8.37,0,0,0,3.22-3.32ZM212.32,684.73c2.93,42.16,8.61,84.54,23,124.27s38.17,76.92,72.15,102.06c9.27,6.86,19.29,12.83,27.44,21s14.4,19.13,13.65,30.64c-.68,10.47-6.9,19.62-11.33,29.14a89.91,89.91,0,0,0-8.38,37.41c0,3.34.21,6.85,2,9.68,2.73,4.31,8.22,5.8,13.23,6.75,68.38,13.08,142.45-7.19,206.79,19.41,10.21,4.22,20.64,10.28,25.05,20.41l7.91,5.16c4.58.69,8.57,3.49,11.9,6.7s6.19,6.89,9.64,10a2.24,2.24,0,0,0,1,.6,2.28,2.28,0,0,0,1.48-.46,32.49,32.49,0,0,1,16.25-4.31,1.64,1.64,0,0,0,1-.23,2.14,2.14,0,0,0,.5-.77,3.25,3.25,0,0,1,6.06,2.22,8.94,8.94,0,0,1,9.31,4.8,14.07,14.07,0,0,1,1.13,4.57,17.27,17.27,0,0,1-.65,8.09,8.28,8.28,0,0,1-5.76,5.33l.05.06a10.27,10.27,0,0,1,4.46,5.37,23.2,23.2,0,0,1,.28,13.38,10.52,10.52,0,0,1-3.63,5.23c-1.15.84-2.55,1.42-3.35,2.6a4.8,4.8,0,0,0-.53,3.71,14.12,14.12,0,0,0,1.48,3.55l2.3,4.34a6.44,6.44,0,0,0,1.21,1.78,2.22,2.22,0,0,0,2,.64l4.23,1.91a5,5,0,0,0,2.79,1c1.45-.1,2.46-1.42,3.65-2.26,1.94-1.39,4.48-1.55,6.87-1.65l8.78-.39a14.58,14.58,0,0,1,3.79.17,33.15,33.15,0,0,1,4.32,1.71,5.42,5.42,0,0,0,4.51,0,4.59,4.59,0,0,0,2.07-3.84,13.67,13.67,0,0,0-.82-4.45l-1.27-1.62q-3.15-3-6.11-6.09c-3.35-3.54-6.6-7.36-8.29-11.94-2.85-7.74-.85-16.49-2.93-24.47l-1.33-6.69c-1-12.81-1.9-26.22,3.2-38,4.26-9.88,12.35-17.64,17.35-27.18l5-7.52a22.13,22.13,0,0,1,7-9.61,5.62,5.62,0,0,0,1.91-2c.43-1,.15-2.25.6-3.26a6.19,6.19,0,0,1,2.29-2.16c3.63-2.65,5.79-7.53,10.16-8.6a8,8,0,0,1-1.33-6.79,5.36,5.36,0,0,0,.39-2.51,6.1,6.1,0,0,0-1.37-2.15c-1.59-2.16-1.57-5.07-1.47-7.75l.41-11.55a11.76,11.76,0,0,1,3.72-9.26c1.92-2.32,3.9-4.69,6.53-6.15a13,13,0,0,0,2.46-1.49c1.53-1.37,1.84-3.6,2.58-5.52,2.14-5.62,8.25-9.08,10-14.81l5.71-6.37,2.73-25.22c1-8.7,1.9-17.45,4.45-25.82s6.83-16.41,13.45-22.12l2.66-4c1.22-3.62,4.42-6.15,7.53-8.37a23.34,23.34,0,0,1,6.65-3.68,23.77,23.77,0,0,1,6.52-.72q4.82-.08,9.65-.06a38.84,38.84,0,0,0,8.21-.54,12.54,12.54,0,0,0,7.08-3.92c2-2.45,2.7-5.78,4.5-8.41s4.4-4.26,6.57-6.44c4.17-4.17,6.35-9.87,8.43-15.39l8.4,1a13.34,13.34,0,0,1,8.08,4.33c.91,1.05,1.67,2.23,2.64,3.23a5.3,5.3,0,0,0,3.63,1.8c2,0,3.6-1.58,4.86-3.12,3.66-4.46,6.71-9.61,7.61-15.3.66-4.21.12-8.54.8-12.75.41-2.55,1.27-5,1.2-7.63l-13.65-16.51L842.89,764a16,16,0,0,0-3.13-9.16,47.39,47.39,0,0,0-6.63-7.25c-1.92-1.83-3.93-3.72-6.46-4.53l3-4.16a4.47,4.47,0,0,1-4.69-1.36,10.37,10.37,0,0,1-2.18-4.64,1.86,1.86,0,0,0-.54-1.1,1.92,1.92,0,0,0-1.11-.25l-18.11,0a22,22,0,0,0,1.91-9,16.63,16.63,0,0,1-9.21.77c-2.5-.51-4.87-1.6-7.4-1.94s-5.46.3-6.83,2.45l-.13.24-.48-1.83-5.8.18a2.15,2.15,0,0,0-1.33-2.57,7.33,7.33,0,0,0-3.17-.31,5,5,0,0,1-3.08-.61c3.25-3.41,6.55-6.85,10.49-9.42s8.66-4.26,13.35-3.75l.83-.85c1.84-6,3.73-12.21,7.36-17.38a43,43,0,0,0,3.27-4.78,7.41,7.41,0,0,0,.76-5.6,35.69,35.69,0,0,0,18.78,10.18,30.15,30.15,0,0,0,20.91-3.63,56.16,56.16,0,0,0,7.5-5.82c2.38-2.08,4.82-4.24,6.16-7.1a18.18,18.18,0,0,0,1.32-8.41,34.39,34.39,0,0,0-.87-6.78,58.57,58.57,0,0,0-1.91-6l-2.43-6.74a15,15,0,0,0-1.43-3.2c-1.85-2.85-5.5-4.16-8.89-3.9l-.59.08a21.8,21.8,0,0,0,8.06-22,12.94,12.94,0,0,0-3-6,7.36,7.36,0,0,1-1.57-1.92c-.83-2,.91-4.67-.57-6.23-.31-.34-.75-.56-1-1a10.38,10.38,0,0,1-.43-1.5c-.69-1.7-3.36-1.21-4.76-2.39-.55-.47-.85-1.18-1.4-1.66-.85-.76-2.22-.9-2.85-1.86s-.34-2-.85-2.86-1.31-1.08-1.92-1.66-1.07-1.66-1.81-2.29a5.19,5.19,0,0,0-3.16-1,33,33,0,0,0-11.14,1.26l-.32-.75a3.31,3.31,0,0,0-1-2.43,5,5,0,0,1-1-.7c-.58-.72.08-1.75.19-2.67.23-1.92-2.37-3.25-4.1-2.39a5.35,5.35,0,0,0-.11-2.64,3.49,3.49,0,0,1-2.84-3.24,4.93,4.93,0,0,0-2.13-.74,49.47,49.47,0,0,0-5.57-.65,17.86,17.86,0,0,0-3.16-5.39c-1.61,1.62-4.06,2-6.34,2.06s-4.58-.33-6.82.09a10.45,10.45,0,0,0-6.07,3.62l-.58-.76a10.72,10.72,0,0,0-1.61-8.07,21.88,21.88,0,0,0-6-5.91,5.73,5.73,0,0,1-1.54-1.4,20.76,20.76,0,0,1-.83-1.93c-.73-1.46-2.32-2.23-3.72-3.07a22,22,0,0,1-8.73-9.91l6.51-.72c.9-.1,2.12-.73,1.71-1.54a69.09,69.09,0,0,0,10.47-.38c2.35-.32,4.66-.89,7-1.16a56.94,56.94,0,0,1,6.66-.23l8.76,0a46.46,46.46,0,0,1,9.57.72c-1.88-4.75-5.68-8.42-9.37-11.94-2.92-2.79-5.94-5.64-9.68-7.15a25.54,25.54,0,0,0-10.43-1.38,7.08,7.08,0,0,1,4.5-2.08,14.41,14.41,0,0,0-19-3.56l.23-.24a10.88,10.88,0,0,0-18.52-1.84,66.47,66.47,0,0,0-11.68-3.9,22,22,0,0,0-12.15.66l.25-1.33,1.19-8.64c1.2-8.67,2.4-17.38,4.71-25.82s5.8-16.67,11.16-23.58c1.49-1.92,3.3-3.84,5.68-4.29a25.32,25.32,0,0,0-26.45,17.89c-2.28-.37-4.78-.71-6.76.48a8.89,8.89,0,0,0-2.57,2.68,47.65,47.65,0,0,0-6.45,13.16,9.74,9.74,0,0,0-9.39,2.37c-3.71,3.68-3.78,9.54-3.61,14.75l-.43.75a6,6,0,0,1-5.78-2.51,24,24,0,0,0-6.14,18.71,15.53,15.53,0,0,0-4.22-6.35,10.85,10.85,0,0,0-3.79,11.31c-.75.05-.93-1.06-1.5-1.56a1.49,1.49,0,0,0-1.83.07,3.9,3.9,0,0,0-1.1,1.62,21.94,21.94,0,0,0-1.77,7.82c-.13,3.13.41,6.32-.32,9.37s-3.34,6-6.46,5.68l-.17-1a20.18,20.18,0,0,0,.24-12.23,34.83,34.83,0,0,0-4.35-8.66,47.88,47.88,0,0,0-7.22-9.21c-4.18-4-9.43-6.6-14.59-9.17a32.39,32.39,0,0,0-6.78-2.76,31.77,31.77,0,0,0-6.89-.59c-4.54-.07-9.19-.12-13.48,1.38a34,34,0,0,0-6.54,3.36c-5,3.13-9.89,6.67-13.6,11.28s-6.19,10.41-5.92,16.32l-1.58.25c-.93-1.5-2.94-1.81-4.7-1.93-.83-.06-1.82-.22-2.14-1l.5-1c.86-8.45.36-17.4-3.85-24.78a41.59,41.59,0,0,0-5.13-6.9,57.4,57.4,0,0,0-15.76-13c-6.06-3.21-13.08-4.88-19.86-3.81l-8.92-1.25c-11.83,1.45-21.92-8.23-29.07-17.76-12.19-16.27-21.66-34.48-34.25-50.45s-29.27-30-49.3-33.51c-13.17-2.29-26.65.16-39.73,2.84-7.59,1.56-16.76,4.84-17.69,12.53-.36,2.94.69,5.87,1.9,8.58,5.87,13.18,16.09,25.14,16.57,39.57a13.11,13.11,0,0,1-1.29,6.89c-1.3,2.35-3.64,3.92-6,5.27-24.65,14.41-54.91,14.64-81.86,24.06-12.75,4.46-24.68,11-36.27,17.91-5.67,3.4-11.65,7.36-14,13.56-2.93,7.94,1.3,16.92,7.34,22.85s13.76,9.81,20.33,15.15,12.25,13,11.62,21.45c-.51,6.78-4.93,12.53-9,18a258.78,258.78,0,0,0-40.47,82.53Z"></path>
    <path data-name="1a" data-official="" data-plain="Fruit" data-loc="" d="M242.51,2510.24c8.33,5.21,19.62,1.51,27.09-4.87s12.67-15,19.81-21.8a53.32,53.32,0,0,1,22-12.53c5.38-1.52,11.17-2.18,16.52-.55s10.12,5.87,11.19,11.35c1.41,7.16-3.49,14.77-1,21.64,2,5.55,8,8.38,13,11.46,23.37,14.33,33.52,43.16,36.85,70.38,1.94,15.86,2.13,32.1-1.54,47.66-7.7,32.66-31.69,59.27-58.6,79.33-4.82,3.59-10.09,7.48-11.69,13.28-.59,2.16-.62,4.46-1.32,6.6-1.83,5.6-7.65,8.74-13.06,11.09a212.78,212.78,0,0,1-72.63,17.28c-2.28.13-4.67.21-6.73-.77-4.56-2.16-5.5-8.43-4.1-13.27s4.43-9.12,5.67-14c2.75-10.87-3.91-21.87-11.5-30.12-17.51-19-42-32.35-53.52-55.49-6.55-13.13-8.18-28.19-7.94-42.87a132.79,132.79,0,0,1,4.83-34.93c9.87-34,38.23-62,72.36-71.49Z"></path>
    <path data-name="1b" data-official="" data-plain="Section" data-loc="" d="M397.62,2560.21l17.08-23.48c7.53-10.36,15.18-20.84,25.12-28.92,18.4-14.95,43.66-20.28,67-16.32s44.79,16.64,61.34,33.62c13.16,13.5,23.57,30,28.48,48.18,3.45,12.83,4.14,26.24,4.34,39.52.23,14.89-.15,30-4.33,44.28s-12.58,27.85-25.34,35.52c-14.24,8.57-32.62,9.19-45.62,19.56a15.89,15.89,0,0,0-4.33,4.84c-2,3.79-1.34,8.36-.72,12.6,1.26,8.55,2.08,17.94-2.62,25.19-5,7.71-14.79,10.64-23.87,12.13a146,146,0,0,1-34.75,1.52,20.11,20.11,0,0,1-6.58-1.3,15.35,15.35,0,0,1-6.6-6.2,26.65,26.65,0,0,1-1.18-25.54c1.66-3.31,4-6.27,5.29-9.75,3.56-9.8-2.59-20.65-10.56-27.37s-17.79-11-25.47-18.06c-9-8.26-14.44-19.84-17.19-31.74s-3-24.23-2.95-36.44c0-15.08.5-30.15,1-45.23Z"></path>
    <path data-name="2" data-official="Cratægus Oxycantha" data-plain="Common Hawthorn" data-loc="England" d="M1099.37,2170.8c-1.54-7.31-3.71-15.32-10-19.36-3-1.9-6.54-2.69-9.41-4.71-4-2.79-6-7.48-7.92-11.94l-10.19-24.08a9,9,0,0,1-.9-3.14c-.16-4.27,5-6.26,8.74-8.34,9.51-5.28,13.1-19,7.4-28.25-2.2-3.56-5.65-7.59-3.75-11.32a10,10,0,0,1,3-3.07,76.84,76.84,0,0,0,17.12-19.06c2.59-4.09,4.83-8.57,5.32-13.39s-1-10.08-4.84-13.08a15.46,15.46,0,0,0-10.15-2.85c-11.49.42-20.93,9.07-28.09,18.07s-13.54,19.17-23.47,25l-7.5,8.05a87.27,87.27,0,0,1-16.84,19.71,3.55,3.55,0,0,1-1.66,1c-1.27.21-2.33-.91-3.11-1.93-3.25-4.2-6.75-10.75-11.86-12.21a16.23,16.23,0,0,1-2.37-.73,10,10,0,0,1-3.22-3,102.28,102.28,0,0,0-13.34-13.79c-2.82-2.41-5.78-4.68-8.49-7.22a109.16,109.16,0,0,1-9.2-10.26c-5.81-7.07-11.63-12.13-17.44-19.2a72.46,72.46,0,0,1-7.27-9.91c-4.07-7.13-5.88-15.83-12-21.33L900.45,1951l-5.61-1.65a35.83,35.83,0,0,1-5.71-2.42,8.9,8.9,0,0,1-2.09-1.43,7.55,7.55,0,0,1-1.58-2.43c-1.5-3.45-1.5-7.34-1.48-11.11l.06-9.6-.07-6.72c-10.47-1.59-18.45-10.86-21.7-20.94s-2.67-20.94-2-31.51q.81-13.93,1.61-27.86l-1.13-7.24a191.64,191.64,0,0,1,5-41.32l-5.85.11-2-3.44c-4.6-27.55-19.14-52.45-26-79.53l-3.81-8.54c-3-13.15-6.82-26.5-14.73-37.44a12.37,12.37,0,0,0-4.29-4.13,13,13,0,0,0-5.71-1,96.87,96.87,0,0,0-40.86,8.62c-3.41,1.54-6.77,3.31-10.45,4-7.28,1.37-14.59-1.63-21.38-4.56l-8-2.54c-1-1.74-3.25-2.17-5.12-2.88-5.44-2.08-8.74-7.47-12.09-12.24a138.44,138.44,0,0,0-13.87-16.53,18.54,18.54,0,0,0-4-3.4,15.76,15.76,0,0,1-2.42-1.41,8.68,8.68,0,0,1-1.35-1.55l-5.75-7.81a28.47,28.47,0,0,1-2.62-4c-1.26-2.5-1.81-5.41-3.62-7.55l-2.58-5.1c-6.41-7.29-14.74-12.57-22.1-18.89a12.84,12.84,0,0,1-3.14-3.48c-2-3.67-.3-8.13.74-12.17,2.48-9.63,1.08-19.79-.33-29.64l-2.83-5.25c-.3-4.58-.3-9.92,3.25-12.83a9.45,9.45,0,0,1,7.08-1.79,22.24,22.24,0,0,1,7.09,2.38c1.69.83,3.9,1.67,5.29.39,1.77-1.64.12-4.81,1.25-6.94s3.91-2,6.16-1.69c16.59,2.63,31.36,11.75,45.21,21.26,3.09,2.12,6.36,4.53,7.47,8.1l4.32,9c-.45,4.55,1.35,9.12,4.14,12.74a41.05,41.05,0,0,0,10.33,9,72.24,72.24,0,0,0,19.87,9.54l4.87,1.65a16.22,16.22,0,0,0,7.52-1c2.8-1.24,4.85-3.71,6.58-6.25a53.23,53.23,0,0,0,7.77-17.7l.64-4.8q.6-4.41,1.19-8.8c.34-2.45.67-4.9.82-7.37.29-4.65-.05-9.32.21-14s1.15-9.4,3.67-13.31l.25-6.25c-1.05-4.64,1.86-9.17,4.63-13a26.51,26.51,0,0,0,8.31-3.36,3,3,0,0,0,2.06,2.82,7.07,7.07,0,0,0,3.71.07,9,9,0,0,0,.6,3.94,2.73,2.73,0,0,0,5.33-.59,9,9,0,0,0-.19-3.38,16.07,16.07,0,0,0,8.22,6.64l.81.84a3.94,3.94,0,0,0,1.19,5,6,6,0,0,0,2.35.83c3.36.6,6.8,0,10.19-.37s7-.31,10,1.41a25.87,25.87,0,0,0,3.67,2.26,8.44,8.44,0,0,0,3.16.44,19.06,19.06,0,0,0,12.89-5.37c3.67-3.59,5.71-8.49,7.2-13.39a10.9,10.9,0,0,0,.64-5.19,4.11,4.11,0,0,0-3.44-3.49c.89,0,1.13-1.23,1.1-2.12-.08-2-.15-4-.23-6a36,36,0,0,0-.63-6.39,18.23,18.23,0,0,0-3.24-7.07,5.48,5.48,0,0,1-.72-1.12,4.84,4.84,0,0,1-.22-1.78c0-3.07-.63-6.7-3.4-8l.33.16c2.24.22,3.8-2.11,5.8-3.15,1-.52,2.14-.72,3.16-1.2,2.23-1.06,3.62-3.34,5.67-4.73.89-.61,1.89-1,2.8-1.61,3.18-2,5-5.79,5.33-9.55a25.5,25.5,0,0,0-1.89-11.08,9.11,9.11,0,0,0-2.35-4,3.57,3.57,0,0,0-4.29-.46l-.31-.14a8.66,8.66,0,0,0,.87-5.43,6.42,6.42,0,0,0,4.82-2.4,18.9,18.9,0,0,0,2.74-4.81,11.63,11.63,0,0,0,.94-2.61c.49-2.62-.8-5.2-2-7.55l-.45-2.32a11,11,0,0,0-6.78-3.28,3.79,3.79,0,0,0-1.55-4.31c-1.83-1.13-4.22-.47-6.32-.94a24.18,24.18,0,0,1-4.34-2,11.92,11.92,0,0,0-9.12-.29,8.4,8.4,0,0,0-2.78-4.65l.31-.35c3-1,6.11-2,8.65-3.94,3.17-2.4,5.44-6.13,9.19-7.44a21.54,21.54,0,0,0,3-1c2.32-1.24,3.15-4.17,3.15-6.79s-.63-5.26-.21-7.85c.32-2,1.26-4,1.31-6a13.85,13.85,0,0,0-1.39-5.42,7.52,7.52,0,0,0-1.93-3.12,7.17,7.17,0,0,0-4.47-1.15,65.87,65.87,0,0,0-8.88.45l-.67.42c.72-.72-.32-1.81-.62-2.78a3.91,3.91,0,0,1,0-1.67,30.08,30.08,0,0,0-.23-10.87,14.87,14.87,0,0,0-5.8-9,14,14,0,0,0-6.09-2.18c-1.24-.16-2.63-.24-3.49-1.15a18.32,18.32,0,0,1-1.18-1.9,3.4,3.4,0,0,0-5.47.45,3.45,3.45,0,0,1-.75,1.27,2.39,2.39,0,0,1-1.63.26,45.77,45.77,0,0,0-11,.43l-.56-.42a96.44,96.44,0,0,1,14.86-11.86,10.53,10.53,0,0,1,2.77-1.42c1.42-.41,3-.25,4.38-.74a6.71,6.71,0,0,0,4-4.73,19.69,19.69,0,0,0,.31-6.37,12.83,12.83,0,0,0,5.3.19,4.38,4.38,0,0,0,3.49-3.57c3-.28,5.51-2.12,7.84-3.94,3-2.34,6-4.93,7.44-8.46s.56-8.25-2.8-10a1.59,1.59,0,0,1-.72-.55c-.21-.41,0-.88.19-1.31a4.77,4.77,0,0,0-1.32-4.84,9.83,9.83,0,0,0-4.67-2.35,1.76,1.76,0,0,1-.95-.45,2.64,2.64,0,0,1-.4-1.23,2.56,2.56,0,0,0-2-1.89c-.57-.11-1.27-.07-1.61-.55a2.87,2.87,0,0,1-.25-1.18c-.3-1.67-2.52-2-4.21-2l-5.06.14c-2,.06-4.08.16-5.76,1.21s-2.66,2.69-4.41,3.24c-.86.28-1.92.3-2.43,1a2.59,2.59,0,0,0-.34,1.31c-.09,1-.18,2.09-.26,3.13a3.66,3.66,0,0,0,.17,1.89,1.28,1.28,0,0,0,1.56.76,23.39,23.39,0,0,0-2.54,9.22l2.17.23c.19,2.71.31,5.43.35,8.14,0,1.51-.07,3.24-1.25,4.18l-1,1.12a8.3,8.3,0,0,0-6.37,6.72c-.36,2.41.36,4.93-.26,7.29-2.12-.88-4.45.77-5.84,2.59s-2.55,4-4.65,5c-.49.22-1,.36-1.49.62-2,1.15-2.06,4-1.85,6.3a7.93,7.93,0,0,0-8.25,4,3.66,3.66,0,0,1-1.1,1.53,3,3,0,0,1-1.51.3,67.52,67.52,0,0,0-16.42,2.4l-.9.1a15.46,15.46,0,0,0,2-16.18,26.2,26.2,0,0,0,16.86-2.54,20.77,20.77,0,0,0,10.37-13.3,28.65,28.65,0,0,0,.57-6.27,30.73,30.73,0,0,0-.88-8c-.54-2-1.6-4.12-3.55-4.8s-4.34.15-5.78-1.25l-.28-.48c5.12-2,10.74-4.59,12.82-9.69a16.65,16.65,0,0,0,1-5.09c.29-4-.06-8.34-2.26-11.75-.87-1.35-2-2.5-2.88-3.83a13.23,13.23,0,0,1-2.21-7.87l-9.11-9.12-10.91.19a18.06,18.06,0,0,1-4.47-.3c-3.3-.78-5.84-3.33-8.53-5.4a34.43,34.43,0,0,0-16.65-6.81l-5.51-6c.08-1.64.24-3.46,1.45-4.56s2.71-1.07,4.17-1.22c9.13-1,17.47-6.61,22.43-14.33.94-1.45,1.8-3.17,1.37-4.85s-1.93-2.74-3.34-3.68l.2-1.24a8.56,8.56,0,0,0-1.55-6.82,19.43,19.43,0,0,0-5.33-4.8,23.51,23.51,0,0,0-7.35-3.52,11.16,11.16,0,0,0-8,.76,1.1,1.1,0,0,0-.43-1.41,2.93,2.93,0,0,0-1.56-.37,18.83,18.83,0,0,0-7.2,1.23c.7-1.91.24-4-.23-6q-.6-2.55-1.21-5.1a14.31,14.31,0,0,0-.91-2.94,7.33,7.33,0,0,0-3.14-3.28l-1.7-6a26.41,26.41,0,0,0-9.62-7l-5.67-3c-14.51-1.12-29.7-2.13-43,3.66-7.81,3.39-15.47,9.13-23.87,7.78l-10.76.7c2.08,8,.08,16.73,2.93,24.47,1.69,4.58,4.94,8.4,8.29,11.94q3,3.14,6.11,6.09l1.27,1.62a13.67,13.67,0,0,1,.82,4.45,4.59,4.59,0,0,1-2.07,3.84,5.42,5.42,0,0,1-4.51,0,33.15,33.15,0,0,0-4.32-1.71,14.15,14.15,0,0,0-3.79-.17l-8.78.39c-2.39.11-4.93.26-6.87,1.65-1.19.84-2.2,2.16-3.65,2.26a5,5,0,0,1-2.79-1l-4.23-1.91a2.22,2.22,0,0,1-2-.64,6.44,6.44,0,0,1-1.21-1.78l-2.3-4.34a14.12,14.12,0,0,1-1.48-3.55,4.8,4.8,0,0,1,.53-3.71c.8-1.18,2.2-1.76,3.35-2.6a10.52,10.52,0,0,0,3.63-5.23,23.2,23.2,0,0,0-.28-13.38,10.27,10.27,0,0,0-4.46-5.37l-.05-.06a8.28,8.28,0,0,0,5.76-5.33,17.27,17.27,0,0,0,.65-8.09,14.07,14.07,0,0,0-1.13-4.57,8.94,8.94,0,0,0-9.31-4.8,3.25,3.25,0,0,0-6.06-2.22,2.14,2.14,0,0,1-.5.77,1.64,1.64,0,0,1-1,.23,32.6,32.6,0,0,0-16.25,4.31,2.28,2.28,0,0,1-1.48.46,2.24,2.24,0,0,1-1-.6c-3.45-3.08-6.31-6.76-9.64-10s-7.32-6-11.9-6.7l-7.91-5.16-29.38.36c-19.83-3.37-39.92,3.43-58.33,11.52s-36.63,17.68-56.56,20.37c-26.83,3.61-54-5.85-77.09-20s-43-32.83-63.92-50c-7.38-6.06-15.17-12.07-24.35-14.71-16.07-4.64-33.52,2-46.77,12.24s-23.49,23.74-35.25,35.63A188.35,188.35,0,0,1,127,1120.5l-9.43,4.46c-19.23,9.15-40.34,20.35-46.85,40.63-4.66,14.54-.5,30.37,5,44.61s12.41,28.34,13.38,43.57a12.38,12.38,0,0,1-.74,6c-1.3,2.78-4.24,4.33-7,5.75a211.32,211.32,0,0,0-56.41,43c-5.1,5.47-10,11.37-12.53,18.41-2.18,6-2.49,12.58-2.77,19L7,1407.29c-.69,15.73-1,32.81,8.29,45.52l11.38,25.78a346.7,346.7,0,0,0,54.86,113.3c15.27,20.76,33.34,40.78,39.44,65.82,5.09,20.89,1.22,43.27,6.88,64,3.74,13.74,11.47,26,19.58,37.74,29.89,43.1,67.68,84.34,75.52,136.2,5.68,37.53-5.38,76.12.48,113.63A128.56,128.56,0,0,0,268,2087.75L295.38,2115a26.87,26.87,0,0,0,11.92,14.63c2.8,1.62,5.88,2.71,8.82,4.08a103.4,103.4,0,0,1,9.66,5.35c4.07,2.44,8.18,4.92,11.55,8.26a16.52,16.52,0,0,0,2.27,2.08,12.27,12.27,0,0,0,2.79,1.31,78.64,78.64,0,0,0,26.21,4.73l15.74,6.29,104.12,3.12c8.08.24,16.32.51,23.94,3.2s14.68,8.26,17.08,16c2.55,8.15-.41,17.05,1,25.46,1.81,10.56,10.36,18.83,19.8,23.9,19.05,10.23,41.81,10.08,63.41,9A977.64,977.64,0,0,0,861.1,2197l10.92-5.37a59.49,59.49,0,0,1,30.61.41c2.5.7,5,1.57,7.4,2.44l25.72,9.11c6.8,2.41,13.64,4.83,19.92,8.38,4.23,2.39,8.46,5.35,13.32,5.53a21.28,21.28,0,0,1,2.88.11,9.52,9.52,0,0,1,4.81,2.72,23.2,23.2,0,0,1,7.2,15.26l3.66,12c5.61,12.17,16.88,21.42,29.71,25.26s27,2.39,39.18-3.29a8.31,8.31,0,0,0,2.69-1.74,8.43,8.43,0,0,0,1.74-4.56c2.23-14.82-1.58-31.87,7.94-43.45,8-9.77,23.33-12.15,29.55-23.17C1102.69,2189,1101.19,2179.44,1099.37,2170.8ZM736.06,1349c.45-1.47,1.15-3.17.25-4.4a18.62,18.62,0,0,0,6.73-1.55c2.61-1.15,5.36-3,8.07-2.07-.44-.93.77-1.86,1.81-1.86s2.09.42,3.07.08l.18-3.06a1.54,1.54,0,0,1,.21-.85,1.56,1.56,0,0,1,1-.46l6.39-1.09h1.47a18.79,18.79,0,0,1,3.42.34,1.49,1.49,0,0,1,.91.4,1.62,1.62,0,0,1,.26,1c.1,2.65.19,5.29.29,7.94l-2.25.19a8.14,8.14,0,0,0-.23-2.87,2.7,2.7,0,0,0-2-1.89c-1.73-.27-3,1.7-3.25,3.43a2.89,2.89,0,0,1-.37,1.24,4.22,4.22,0,0,1-1,.81,3.43,3.43,0,0,0-1.27,2.4l-10.2.59a1.39,1.39,0,0,0-1,.33c-.43.46-.08,1.2-.2,1.81-.21,1-1.53,1.27-2.56,1.29l-5.31.15a2.17,2.17,0,0,0-1.36.35c-.87.73-.23,2.4-1.11,3.12l-2.41,0-.06-.44A11.74,11.74,0,0,1,736.06,1349Zm-37.81-122a9,9,0,0,0,1.86-4.51,12.17,12.17,0,0,0,10-3.61l7.07,4.41a8.37,8.37,0,0,1-3.22,3.32c-1.77.84-3.84.45-5.79.32s-4.23.2-5.26,1.86a1.26,1.26,0,0,1-.45.54,1.15,1.15,0,0,1-.58.06,6,6,0,0,0-3.22.79l-.66-2a1.25,1.25,0,0,1-.08-.54A1.27,1.27,0,0,1,698.25,1227Zm304.35,914.39a66.71,66.71,0,0,1-12.16,29.66,7.11,7.11,0,0,1-2.54,2.43c-2.08,1-4.49-.06-6.65-.84a28.19,28.19,0,0,0-10-1.7c-2.71,0-5.42.45-8.13.28-4.5-.3-8.7-2.23-12.8-4.1-15.91-7.3-32.17-14.41-49.46-17.07a16.32,16.32,0,0,1-4-.93c-1.36-.59-2.55-1.57-4-1.87-1-.21-2.13-.08-3-.61a4.58,4.58,0,0,1-1.59-2.07c-1.24-2.48-2.48-5-3.71-7.45l3.18-7.28c-.54-21.55,4.85-42.75,10.21-63.63,1.3-5.11,2.64-10.27,5.2-14.88s6.52-8.65,11.56-10.18l7.92,1c6.53,7.88,13.09,15.8,20.83,22.49,2.52,2.19,5.17,4.23,7.74,6.36,13.09,10.82,24.32,23.67,35.49,36.46l7.91,9.06c4.28,4.91,8.81,10.4,8.88,16.91Z"></path>
    <path data-name="2a" data-official="" data-plain="Stamens and Pistils" data-loc="" d="M652,2562.24c25.13-7.48,52.63-8.83,77.37-.16,15.78,5.54,30.57,15.55,38.75,30.14,7.6,13.56,8.87,29.85,7.3,45.32-1.18,11.66-4.52,24.17-13.93,31.16-6.22,4.62-14.18,6.11-21.13,9.54s-13.43,10.43-11.86,18c.68,3.3,2.78,6.1,5,8.59,4.37,4.81,9.58,8.92,13.19,14.34s5.33,12.78,2,18.38c-3.55,6-11.3,7.78-18.22,8.73a280.2,280.2,0,0,1-37.74,2.58c-8.08,0-16.3-.38-23.93-3a3.9,3.9,0,0,1-2.07-1.31,3.78,3.78,0,0,1-.34-2.49c.78-6.83,4.46-12.93,7.07-19.3,5.08-12.41,6.13-26.57,2.15-39.37-1.52-4.92-3.86-9.75-7.72-13.17-3.09-2.74-7-4.41-10.43-6.67-9.32-6.06-15.27-16-20.89-25.57-5.28-9-10.69-18.4-11.57-28.8-1.13-13.37,5.59-26.44,15-36Z"></path>
    <path data-name="2b" data-official="" data-plain="Stamens" data-loc="" d="M772.32,2564.18c1.86-6.49,3.93-13.3,8.84-17.93,5.41-5.09,13.57-6.57,20.85-5s13.73,5.76,19.21,10.79c4.66,4.27,8.82,9.31,11,15.26,1.67,4.62,2.06,9.59,3,14.42,4.17,21.82,19,40.47,23.09,62.31.9,4.84,1.26,9.77,2.12,14.61,1.68,9.44,5.26,18.49,6.33,28s-.93,20.2-8.37,26.24c-4.61,3.74-10.64,5.18-16.47,6.27a219.69,219.69,0,0,1-32.44,3.63c-7.18.27-15.4-.27-19.89-5.89a17.23,17.23,0,0,1-3.31-9.39c-.72-8.84,2.73-17.5,7-25.27s9.49-15.08,12.8-23.31a56.26,56.26,0,0,0,2.44-34,36.1,36.1,0,0,0-4.25-10.66c-4.54-7.24-12.19-11.79-19-16.91S771.74,2585.52,771,2577Z"></path>
    <path data-name="2c" data-official="" data-plain="Seed" data-loc="" d="M911.84,2595.44c11.71-2.23,23.83-4.46,35.47-1.86a71,71,0,0,1,16.55,6.43c5.2,2.64,10.33,5.56,14.56,9.57,11.24,10.68,14.38,27.24,15.51,42.71.92,12.7.9,25.44.87,38.17,0,5.81,0,11.77-2.13,17.2-3.61,9.42-13,15.72-22.84,18s-20.13,1-30-1c-11.42-2.25-23.19-5.68-31.56-13.77-11.73-11.35-14.13-29-15.39-45.29-.82-10.5-1.43-21.08-.16-31.53s4.53-20.86,10.83-29.29Z"></path>
    <path data-name="3" data-official="Mespilus Germanica" data-plain="Eatable Medlar" data-loc="Germany" d="M1124.94,2488.83q.11,7.74.19,15.48l-.47,21.09a238.89,238.89,0,0,1-14.92,38.51c-8,16.3-18,32.16-20.66,50.12-2.09,14.2.12,30.31-9,41.4a24.53,24.53,0,0,1-43-20.47c1.72-8.51,7.9-15.91,8.12-24.59.17-6.57-3.11-12.66-5.77-18.67-7-15.91-10-34.79-2.62-50.55,3-6.46,7.62-12,12.17-17.54l33-40,10.1-4.34a6.23,6.23,0,0,1,5.08-1.77,12.75,12.75,0,0,1,3.67,1.25,106.65,106.65,0,0,0,21.92,7.08,3.16,3.16,0,0,1,1.47.58A3.12,3.12,0,0,1,1124.94,2488.83Zm-14.63-30.9a15.15,15.15,0,0,0,4.31,1.24l2.75.5c1.12.2,2.6.23,3.06-.82a2.59,2.59,0,0,0,.1-1.21c-.26-3.82-.67-8-3.32-10.73a5.28,5.28,0,0,0-1.69-1.24c-2.06-.89-4.61.26-5.79,2.16a19,19,0,0,1-1.19,2.06,2.17,2.17,0,0,1-2.06.92l1.07,3.75A5.06,5.06,0,0,0,1110.31,2457.93ZM2005,1494.26q-.88,52.24-1.76,104.48c-.29,17-.6,34.15-4.68,50.65-4.17,16.86-12.15,32.49-20.07,47.95-11.13,21.74-22.28,43.51-35.11,64.3-12.09,19.58-25.66,38.27-36.66,58.48-33.46,61.45-41.77,134.15-75.32,195.55l-4.81,22.9c63.35,54.14,89.54,143.22,81.87,226.2-4.3,46.44-17.79,94.93-.83,138.39,4.75,12.17,11.79,23.48,15.2,36.1,5.11,18.94,1.63,39,1.41,58.58a174.68,174.68,0,0,0,17.88,78.75c7.63,15.52,17.88,31.07,17,48.35-.22,4.09-1.22,8.41-4.16,11.26-2.72,2.64-6.63,3.58-10.35,4.28-64.1,12.07-128.09-16.57-187-44.49-27.44-13-55-26.09-79.77-43.73-19.84-14.16-37.54-31.07-55.16-47.91l-13.92-2.18q-15.63-32.49-28-66.41c-1.83-5-3.61-10.1-5.18-15.23-1.64-5.37-3-10.82-5.18-16-5-12.14-13.84-22.54-17.82-35.06-.77-2.42-1.35-4.9-2.3-7.25-2.77-6.82-8.57-12.11-15.14-15.42l-7.36-.23c-3.08,3.71-8.23,5.19-13,5s-9.45-1.92-14-3.6c-10.72-4-21.48-8-31.57-13.36-6.59-3.53-13-7.68-20.15-9.72s-15.61-1.63-21.25,3.29a146.4,146.4,0,0,0-79.33-6.33c-8.14,1.62-16.12,3.94-24.28,5.45-7.62,1.41-15.35,2.11-23.07,2.81-4.31.39-8.73.77-12.92-.32-3.39-.9-6.46-2.72-9.78-3.85-5.34-1.81-11.11-1.78-16.75-1.73l-8.6-3.36c-10.94,4.33-19.43,13.13-27.25,21.92-12.94,14.56-25.15,30-34.27,47.18-3.65,6.9-6.79,14.06-9.93,21.21q-9.09,20.76-18.2,41.5l-9.32,1.91a6.27,6.27,0,0,1-4.72-3.11,19.59,19.59,0,0,1-2.06-5.48q-2.73-10.28-6.15-20.34a53.9,53.9,0,0,0-2.14-5.55c-1-2.19-2.32-4.25-3.16-6.51a35.27,35.27,0,0,1-1.66-10.18l-1.29-19.93,3.77-13.08a102.33,102.33,0,0,1,17.09-48.28c14.67-21.69,38.48-39.59,41-65.66s-17.69-48.37-26.82-73c-7.89-21.31-7.42-44.67-6.84-67.38,1.31-52.2,2.94-105.92,23.8-153.79L1188,1951q-.52-8.45-1.06-16.89a19.34,19.34,0,0,0-.75-4.92,18.88,18.88,0,0,0-2.19-4.08,28.73,28.73,0,0,0-7.5-8.51,149.2,149.2,0,0,0-16.28-12.42l-10.62,1.18-19.52-7.5c-6.43-2.47-12.87-4.94-19.25-7.55-5.1-2.09-10.17-4.26-15.39-6-3.31-1.12-6.8-2.15-9.4-4.49l-10.35,3.62c-2-7.22-4.06-14.73-9.08-20.27-3.2-3.52-7.36-6-11.46-8.42l-24.65-14.55c-6.67-3.94-13.37-7.89-19.41-12.75-6.93-5.58-12.89-12.25-18.82-18.89l-4.31-4.84c-2-2.25-4.17-5.13-3.25-8-2,.8-4-1.17-5.13-3.06s-2.29-4.15-4.45-4.41l-9.24-9a91.71,91.71,0,0,1-17-42.57c-.61-4.9-.84-9.85-1.86-14.68-2-9.48-7-18.12-9-27.62l-3.73-7.69a59.1,59.1,0,0,1-9.7-20.81c-.88-3.64-1.42-7.36-2.43-11-3-10.69-10-20-18.51-27a3.17,3.17,0,0,0-3.66-.8l-6.4,1.73-3.58-1.67A88.36,88.36,0,0,1,869,1605.11l-5.35.48L860.37,1595c.58-1.13.14-2.49.16-3.76,0-2,1.26-3.86,2.48-5.5a21.35,21.35,0,0,1,2.3-2.72,35.61,35.61,0,0,1,3-2.32,35,35,0,0,0,9.15-10.11l4,.61,9.38-1.44a29.4,29.4,0,0,1,4.76-.46c3,0,5.94,1,8.94,1.28,4.4.34,8.83-1,13.21-.46,5,.56,9.45,3.37,14.31,4.65,5.11,1.35,10.54,1,15.7,2.1,3.07.68,6,1.87,9.06,2.57a80.45,80.45,0,0,0,11.41,1.25,98.08,98.08,0,0,1,37.55,10.92l10.37,4.59a13.08,13.08,0,0,1,6,5.38,4.18,4.18,0,0,0,1.11,1.47,3.38,3.38,0,0,0,1.4.44c3.25.46,6.84.28,9.45,2.27a12.85,12.85,0,0,0,1.68,1.28,9.06,9.06,0,0,0,2.58.65,12.27,12.27,0,0,1,9.25,8.11l.68.06a44,44,0,0,0,9.14-2.77,49.23,49.23,0,0,0,11.66-7.11,9.68,9.68,0,0,1,2.44-1.64,16.06,16.06,0,0,0,2.93-1,10.67,10.67,0,0,0,1.32-1.2,6.33,6.33,0,0,1,8.06-.15c-.92-2,1.49-4.52,3.52-3.71-.21-1.52-.31-3.34.9-4.29a4.39,4.39,0,0,1,1.31-.62c6.82-2.38,13.76-4.78,21-5.18a10.66,10.66,0,0,0,2.11-.24,9,9,0,0,0,1.57-.65l5.65-2.72-.09-.28a211.66,211.66,0,0,0-6.35-46.44c-1.16-4.6-2.51-9.23-5-13.3s-5.7-7.22-8.91-10.52a17.1,17.1,0,0,1-3.23-4.12,16.91,16.91,0,0,1-1.21-3.83l-4.11-17.63a23.73,23.73,0,0,0-1.14-3.86c-.65-1.53-1.62-2.91-2.41-4.38-3.32-6.2-3.58-14.28-9-18.82,6.15,1.6,10.52,7,13.75,12.45s5.89,11.45,10.56,15.75c6.75,6.21,16.88,8.13,22.81,15.13a4.37,4.37,0,0,1-.33-3.23l3.77,2.49.85.5,2.72,1.29c3.13-11.53,7-23.19,14.64-32.4s19.71-15.53,31.44-13.29a17.08,17.08,0,0,1,15.73-8l.17-.12q.26-12.47-.37-24.92a45.7,45.7,0,0,0-.91-8,48.91,48.91,0,0,0-3.65-9.6c-5.43-11.73-11-23.69-19.94-33a39.84,39.84,0,0,1,15.87,11.83c2.68,3.32,4.86,7.12,8.15,9.85,1.84,1.53,4,2.68,5.8,4.23,4.94,4.18,7.07,10.69,10.39,16.24,1.35,2.26,2.92,4.39,4.29,6.64,5.84,9.6,7.77,21,9.59,32.09l.53.3a29,29,0,0,1,14.12,3.41c2.77,1.48,5.28,3.4,8,4.9a61.08,61.08,0,0,1,6.42,3.48c2.54,1.81,4.51,4.39,7.2,6a12.09,12.09,0,0,0,11,.6l3.59-4.13,13.24-23.87c5.25-9.46,11.34-19.66,21.54-23.28,7.7-2.73,16.15-1.1,24.3-.8,10.74.39,21.69-1.56,32.11,1,3.69.92,7.72,2.94,8.53,6.66.64,2.93-1,5.84-2.52,8.41-18.32,30.38-37.12,61.46-44.17,96.23l-2.26,12.19c-7.2,20.81-19.78,39.66-25,61l.56,3.27c4.83,2.54,10.67,1.9,16,.95s11-2.13,16.22-.5c5.83,1.82,10.58,7,16.68,7.14l5.84-7.39,12.29-25.35c1.69-3.51,3.52-7.17,6.72-9.39a20.77,20.77,0,0,1,6.33-2.64c4-1.13,8.12-2.06,12.25-1.66,1.83.17,3.62.61,5.43.9,5.87.94,11.86.41,17.77-.13l11.73-4.35a84.93,84.93,0,0,1,75.41,7.44c6.79,4.35,13,9.69,20.15,13.37s15.86,5.55,23.32,2.46c4.8-2,9.26-6,14.41-5.28,4.21.6,7.27,4.22,9.7,7.71,14,20,21.41,44.34,37.12,63.06,3.52,4.19,7.57,8.16,12.66,10.18,4,1.6,8.5,1.85,12.85,1.84a113.62,113.62,0,0,0,33.16-5.07l8.64-4.79c20.62,3.63,41.44-3.78,62.34-5,5.16-.31,10.43-.24,15.39,1.21a48.85,48.85,0,0,1,10.69,4.93,169.85,169.85,0,0,1,18.5,12.38c-1.24-8.44-2.38-17.51,1.46-25.13,4.35-8.62,14-13.27,19.44-21.28,5.2-7.74,5.76-17.57,8-26.62a69.32,69.32,0,0,1,26.38-38.95l11.33-11q46.35-39.14,96.28-73.73c8.83-6.11,18.09-12.26,28.67-14.08s22.88,1.87,27.9,11.36C2005.13,1481,2005.09,1487.78,2005,1494.26Zm-895.33,132.21a21,21,0,0,0-6.38-.84,34.85,34.85,0,0,0-8.84.49c-3.54.82-6.77,2.73-10.31,3.54a17.45,17.45,0,0,1-9.26-.44c3.33,4.71,9.85,5.49,15.07,7.94,2.16,1,4.15,2.36,6.33,3.31,2,.9,4.22,1.45,6.12,2.6,3,1.82,5.36,5.12,8.86,5.4,1.14.09,2.58-.52,2.52-1.66L1116,1640A10.93,10.93,0,0,0,1109.65,1626.47Zm170.51,73.08c0-1.46-1.38-2.49-2-3.8-.83-1.67-.32-3.66,0-5.5a18,18,0,0,0-1.62-11.21c-1.35-2.52-3.38-4.6-4.89-7a29.11,29.11,0,0,1-3.33-8.61,9.85,9.85,0,0,0-1.21-3.37,3,3,0,0,0-3.07-1.4,3.94,3.94,0,0,0-1.48.89c-6.92,5.8-10.07,14.87-15.48,22.09l-7.58,16.65a3.87,3.87,0,0,1,2.2,1.93,9.54,9.54,0,0,0,.67,1.36c1,1.43,3.53,1.22,4.43,2.75,8.84-3.4,18.64-2.75,28.1-2.13a8.1,8.1,0,0,0,3.29-.23A2.82,2.82,0,0,0,1280.16,1699.55Z"></path>
    <path data-name="3a" data-official="" data-plain="Pistils and Stamens" data-loc="" d="M1689.41,2703.4c-.4-11.35-.28-24.13,7.81-32.11,3.91-3.86,9.19-6,13.46-9.46a27.73,27.73,0,0,0,9.29-27.24c-1.79-7.59-6.74-14.05-9.34-21.4-2.47-7-2.79-14.62-5.74-21.4-5.23-12-17.5-19-27.49-27.49-10.56-9-19-20.17-29.58-29.13s-24.3-15.75-37.91-13.25c-13.11,2.39-23.49,13.1-28.94,25.25s-6.76,25.7-7.73,39c-1.73,23.53-2.15,49,11.07,68.52,5.4,8,12.75,14.42,19,21.73s11.68,16.09,11.87,25.73c.11,5.24-1.16,11.15,2.13,15.23,1.58,2,4,3.09,6.27,4.06a91.56,91.56,0,0,0,19.32,5.61c17,3,36.69,0,47.4-13.55Z"></path>
    <path data-name="3b" data-official="" data-plain="Fruit" data-loc="" d="M1592.07,2490.07c-10,52.64-42.52,102.73-91.4,124.65-11.77,5.27-24.27,8.88-35.77,14.7s-22.32,14.37-27.31,26.26c-4.38,10.43-4.1,22.92-11,31.87s-19.39,11.81-30.76,13.49q-12.75,1.88-25.59,3c-7.88.7-16.49,1-22.92-3.6-11.81-8.46-8.77-26.6-13.94-40.17-4.09-10.76-13.62-18.62-23.86-23.88s-21.43-8.37-32.06-12.79a141.33,141.33,0,0,1-55.44-41.47l-9.54,1.71c-5.22-11.85-11.72-23.09-17.17-34.84-6.08-13.09-10.83-26.75-15.58-40.39s-9.63-27.7-11.35-42.2l-5-13.8q9.11-20.74,18.2-41.5c3.14-7.15,6.28-14.31,9.93-21.21,9.12-17.22,21.33-32.62,34.27-47.18,7.82-8.79,16.31-17.59,27.25-21.92l8.6,3.36c5.64-.05,11.41-.08,16.75,1.73,3.32,1.13,6.39,2.95,9.78,3.85,4.19,1.09,8.61.71,12.92.32,7.72-.7,15.45-1.4,23.07-2.81,8.16-1.51,16.14-3.83,24.28-5.45a146.4,146.4,0,0,1,79.33,6.33c5.64-4.92,14.06-5.34,21.25-3.29s13.56,6.19,20.15,9.72c10.09,5.39,20.85,9.38,31.57,13.36,4.52,1.68,9.14,3.37,14,3.6s10-1.26,13-5l7.36.23c6.57,3.31,12.37,8.6,15.14,15.42,1,2.35,1.53,4.83,2.3,7.25,4,12.52,12.82,22.92,17.82,35.06,2.14,5.19,3.54,10.64,5.18,16,1.57,5.13,3.35,10.19,5.18,15.23q6.71,18.43,14.41,36.49Z"></path>
    <path data-name="4" data-official="Cydonia vulgaris" data-plain="Common Quince" data-loc="Cydon, Crete" d="M1280.16,1699.55c0-1.46-1.38-2.49-2-3.8-.83-1.67-.32-3.66,0-5.5a18,18,0,0,0-1.62-11.21c-1.35-2.52-3.38-4.6-4.89-7a29.11,29.11,0,0,1-3.33-8.61,9.85,9.85,0,0,0-1.21-3.37,3,3,0,0,0-3.07-1.4,3.94,3.94,0,0,0-1.48.89c-6.92,5.8-10.07,14.87-15.48,22.09l-7.58,16.65a3.87,3.87,0,0,1,2.2,1.93,9.54,9.54,0,0,0,.67,1.36c1,1.43,3.53,1.22,4.43,2.75,8.84-3.4,18.64-2.75,28.1-2.13a8.1,8.1,0,0,0,3.29-.23A2.82,2.82,0,0,0,1280.16,1699.55Zm-179,304.7c.93-9,4.1-17.57,7.39-26q13.82-35.35,31-69.27l10.07-3.68,10.62-1.18a149.2,149.2,0,0,1,16.28,12.42,28.73,28.73,0,0,1,7.5,8.51,18.88,18.88,0,0,1,2.19,4.08,19.34,19.34,0,0,1,.75,4.92q.52,8.45,1.06,16.89l-3.22,11.28c-20.86,47.87-22.49,101.59-23.8,153.79-.58,22.71-1,46.07,6.84,67.38l-3.14,6.95c-3.52,8.51-3.23,18-3.88,27.21s-2.64,19-9.39,25.27-16.57,7.52-25.51,6.09c-7.85-1.25-15.57-4.55-21-10.32s-8.4-14.21-6.49-21.94l0-20c4.34-7.69,2.84-17.24,1-25.88-1.54-7.31-3.71-15.32-10-19.36-3-1.9-6.54-2.69-9.41-4.71-4-2.79-6-7.48-7.92-11.94l-10.19-24.08a9,9,0,0,1-.9-3.14c-.16-4.27,5-6.26,8.74-8.34,9.51-5.28,13.1-19,7.4-28.25-2.2-3.56-5.65-7.59-3.75-11.32a10,10,0,0,1,3-3.07,76.84,76.84,0,0,0,17.12-19.06c2.59-4.09,4.83-8.57,5.32-13.39ZM1083,1468.06c1.58,3.93,2.47,8.37,4.48,12.13.79,1.47,1.76,2.85,2.41,4.38a23.73,23.73,0,0,1,1.14,3.86l4.11,17.63a16.91,16.91,0,0,0,1.21,3.83,17.1,17.1,0,0,0,3.23,4.12c3.21,3.3,6.53,6.57,8.91,10.52s3.79,8.7,5,13.3a211.66,211.66,0,0,1,6.35,46.44l.09.28-5.65,2.72a9,9,0,0,1-1.57.65,10.66,10.66,0,0,1-2.11.24c-7.22.4-14.16,2.8-21,5.18a4.39,4.39,0,0,0-1.31.62c-1.21,1-1.11,2.77-.9,4.29-2-.81-4.44,1.73-3.52,3.71a6.33,6.33,0,0,0-8.06.15,10.67,10.67,0,0,1-1.32,1.2,16.06,16.06,0,0,1-2.93,1,9.68,9.68,0,0,0-2.44,1.64,49.23,49.23,0,0,1-11.66,7.11,44,44,0,0,1-9.14,2.77l-.68-.06a12.16,12.16,0,0,0-4.73-6.22l.66-1.37-.58-24.23c-.14-5.52-.26-11.12,1.13-16.46a38.48,38.48,0,0,0,1.15-4.68,24.92,24.92,0,0,0,0-5c-1.28-19.42,1-40,12.36-55.85,3-4.14,6.51-7.85,9.72-11.82,5.11-6.32,9.39-13.27,13.65-20.19Zm766.29,83.63-11.33,11a69.32,69.32,0,0,0-26.38,38.95c-2.27,9.05-2.83,18.88-8,26.62-5.39,8-15.09,12.66-19.44,21.28-3.84,7.62-2.7,16.69-1.46,25.13a169.85,169.85,0,0,0-18.5-12.38,48.85,48.85,0,0,0-10.69-4.93c-5-1.45-10.23-1.52-15.39-1.21-20.9,1.26-41.72,8.67-62.34,5l-8.64,4.79a113.62,113.62,0,0,1-33.16,5.07c-4.35,0-8.8-.24-12.85-1.84-5.09-2-9.14-6-12.66-10.18-15.71-18.72-23.15-43-37.12-63.06-2.43-3.49-5.49-7.11-9.7-7.71-5.15-.72-9.61,3.29-14.41,5.28-7.46,3.09-16.14,1.22-23.32-2.46s-13.36-9-20.15-13.37a84.93,84.93,0,0,0-75.41-7.44l-11.73,4.35c-5.91.54-11.9,1.07-17.77.13-1.81-.29-3.6-.73-5.43-.9-4.13-.4-8.26.53-12.25,1.66a20.77,20.77,0,0,0-6.33,2.64c-3.2,2.22-5,5.88-6.72,9.39l-12.29,25.35-5.84,7.39c-6.1-.14-10.85-5.32-16.68-7.14-5.22-1.63-10.83-.45-16.22.5s-11.22,1.59-16-.95l-.56-3.27c5.26-21.38,17.84-40.23,25-61l2.26-12.19c7-34.77,25.85-65.85,44.17-96.23,1.55-2.57,3.16-5.48,2.52-8.41-.81-3.72-4.84-5.74-8.53-6.66-10.42-2.6-21.37-.65-32.11-1-8.15-.3-16.6-1.93-24.3.8-10.2,3.62-16.29,13.82-21.54,23.28l-13.24,23.87-3.59,4.13a12.09,12.09,0,0,1-11-.6c-2.69-1.58-4.66-4.16-7.2-6a61.08,61.08,0,0,0-6.42-3.48c-2.75-1.5-5.26-3.42-8-4.9a29,29,0,0,0-14.12-3.41l-.53-.3c-1.82-11.09-3.75-22.49-9.59-32.09-1.37-2.25-2.94-4.38-4.29-6.64-3.32-5.55-5.45-12.06-10.39-16.24-1.83-1.55-4-2.7-5.8-4.23-3.29-2.73-5.47-6.53-8.15-9.85a39.84,39.84,0,0,0-15.87-11.83c8.93,9.34,14.51,21.3,19.94,33a48.91,48.91,0,0,1,3.65,9.6,45.7,45.7,0,0,1,.91,8q.63,12.45.37,24.92l-.17.12a17.08,17.08,0,0,0-15.73,8c-11.73-2.24-23.83,4.09-31.44,13.29s-11.51,20.87-14.64,32.4l-2.72-1.29-.85-.5-3.77-2.49a4.37,4.37,0,0,0,.33,3.23c-5.93-7-16.06-8.92-22.81-15.13-4.67-4.3-7.32-10.29-10.56-15.75a35.55,35.55,0,0,0-6.56-8.41l1.08-1.61,8.51-16.55c2.51-4.9,5.06-9.85,8.6-14.07a32.64,32.64,0,0,0,3.62-4.61,22.5,22.5,0,0,0,2.09-6.07c1.32-5.49,2.64-11.18,6-15.72s8.22-7.39,12.13-11.33,6.61-8.62,9.54-13.21a191.36,191.36,0,0,1,27.83-34.14l6.07-6.09a141.65,141.65,0,0,0,15.91-13.23c4.56-4.4,8.82-9.1,13.48-13.38,6-5.48,12.55-10.23,18.8-15.38a192.13,192.13,0,0,0,24.69-24.38l3.42-10.26c1.94-4,2.47-8.51,4.6-12.36a33.31,33.31,0,0,1,4.85-6.21c3.16-3.45,6.32-6.9,9.78-10,9.26-8.41,20.4-14.42,31.42-20.34a77,77,0,0,1,12.85-5.93c7.55-2.4,15.61-2.42,23.53-2.71,15.3-.57,31.4-2.59,43.62-11.82,6-4.52,10.69-10.53,16-15.83s11.71-10.1,19.15-11.15l10.35-8a81.25,81.25,0,0,1,26.17-29.52l9.32-8.11c-4.13-.07-7-3.86-10-6.73-7.72-7.44-19-9.92-29.69-10.48-4.33-.23-8.88-.24-12.69-2.34a24.68,24.68,0,0,1-6.28-5.62c-8.43-9.54-16.59-20-19.62-32.31-1.94-7.91-1.66-16.18-1.36-24.33a1.91,1.91,0,0,1,.31-1.21c.27-.33.89-.39,1.08,0l1-1.81q-.13-6.23-.2-12.44a5.57,5.57,0,0,1,.62-3.22,5.46,5.46,0,0,1,1.1-1.1l3.7-3.06a7.87,7.87,0,0,1,2.27-1.48,7.37,7.37,0,0,1,2.48-.28,46,46,0,0,1,23.24,6.72l1.23-.57a132.66,132.66,0,0,1-6.84-33.5c-.53-7.31-.32-15.13,3.65-21.29,1.67-2.61,4-4.81,5.42-7.54,2.68-5,2.76-11.9,7.58-14.91,5.24-3.28,12.48.46,18.16-2,2.28-1,4.09-2.86,6.39-3.77,4.41-1.75,9.7.37,14-1.61,1.49-.68,2.74-1.81,4.25-2.47,2.4-1.06,5.16-.81,7.77-.54,4.94.52,10,1.06,14.52,3,2,.86,3.89,2,5.89,2.84,2.16.93,4.47,1.55,6.54,2.68,4.45,2.45,7.34,7.12,8.75,12s1.51,10,1.6,15.12c2.61-.12,3.17-3.62,3.6-6.19,1.28-7.53,7.77-13,14.29-17a10.73,10.73,0,0,0,3.42-2.76,6.68,6.68,0,0,1,1.47-1.95,4.14,4.14,0,0,1,2.29-.47c9.12,0,19.33.35,25.69,6.9,2.87,3,5.24,7.26,9.34,7.53,2.54.16,4.84-1.37,7.3-2,3.92-1,8.1.44,11.44,2.71s6,5.33,9,8.13a74,74,0,0,0,18.73,13.12l15.1,2.88c98.21,4.82,191.48-63.15,288.73-48.63,7.46,1.11,15.07,2.8,21.23,7.15s10.33,10.94,14,17.56c11.16,20.34,18.91,42.65,21.68,65.68,4.07,33.82-2.62,67.91-9.27,101.32-3.41,17.12-7.11,34.89-17.64,48.81-7.07,9.33-16.74,16.27-25.66,23.84a209.76,209.76,0,0,0-36.29,40c-7.15,10.28-13.38,21.22-21.13,31.06-11.37,14.42-25.75,26.2-37.67,40.16s-21.62,31.28-20.68,49.62c1.15,22.58,17.62,40.89,28.9,60.49a142.56,142.56,0,0,1,15.77,99.28Z"></path>
    <path data-name="5" data-official="Cdonia Japonica" data-plain="Japan Quince" data-loc="Japan" d="M916,1949.22c1.82-1.09,2.75-3.22,3.26-5.27,2.12-8.48-.87-17.38-.32-26.1l-1.14-6.1a96,96,0,0,0-2.31-25.79c-1.05-4.61-2.43-9.13-3.41-13.75-1.62-7.6-2.11-15.38-2.6-23.14-1.37-21.66-2.74-43.47-.19-65l-2.13-12c1.8-31.64-11.13-62-20.54-92.22-7.7-24.73-13.17-50.22-23-74.21l5.35-.48A88.36,88.36,0,0,0,890,1627.05l3.58,1.67L900,1627a3.17,3.17,0,0,1,3.66.8c8.54,7.07,15.54,16.35,18.51,27,1,3.6,1.55,7.32,2.43,11a59.1,59.1,0,0,0,9.7,20.81l3.73,7.69c2,9.5,7,18.14,9,27.62,1,4.83,1.25,9.78,1.86,14.68a91.71,91.71,0,0,0,17,42.57L960,1781q.06,18-.08,36c0,4.84-.1,9.73-1.31,14.41-.82,3.18-2.15,6.2-3,9.38a47.61,47.61,0,0,0-1.3,10.17,99.73,99.73,0,0,0,1,18.19c.59,3.94,1.41,7.85,1.66,11.82a83.6,83.6,0,0,1-1,15.39c-1.85,14.88-3.88,30.29-11.77,43l-2.8,6-4.47,3.78a26.42,26.42,0,0,1-6.05,4.22,13.29,13.29,0,0,1-8.83.72ZM960,900.5c-1.6-3.82-.49-8.23,1.12-12s3.73-7.54,4.17-11.66c.23-2.09,0-4.2.16-6.29.68-9.25,8.45-17,8.52-26.27a45.31,45.31,0,0,1-7.71,9.78,34.82,34.82,0,0,0-5.3,5.56c-1.42,2.13-2.16,4.93-1.13,7.29a5.57,5.57,0,0,0-2.51-1.83,1.92,1.92,0,0,0-2.41,1.36c-.14,1.32,1.46,2,2.49,2.85,2.81,2.24,1.92,6.66.62,10-1.41,3.62-3,7.17-4.77,10.64l-33.58-29.41a143.53,143.53,0,0,1-11.43-10.76c-3.55-3.88-6.68-8.14-10.48-11.78-10.14-9.74-24.15-14.25-35.67-22.31L856.24,812a42.25,42.25,0,0,1-4.76,7c-1.26,1.54-2.86,3.13-4.86,3.12a5.3,5.3,0,0,1-3.63-1.8c-1-1-1.73-2.18-2.64-3.23a13.34,13.34,0,0,0-8.08-4.33l-8.4-1c-2.08,5.52-4.26,11.22-8.43,15.39-2.17,2.18-4.84,3.9-6.57,6.44s-2.45,6-4.5,8.41a12.54,12.54,0,0,1-7.08,3.92,38.84,38.84,0,0,1-8.21.54q-4.83,0-9.65.06a23.77,23.77,0,0,0-6.52.72,23.34,23.34,0,0,0-6.65,3.68c-3.11,2.22-6.31,4.75-7.53,8.37l-2.66,4c-6.62,5.71-10.9,13.76-13.45,22.12s-3.5,17.12-4.45,25.82l-2.73,25.22-5.71,6.37c-1.79,5.73-7.9,9.19-10,14.81-.74,1.92-1.05,4.15-2.58,5.52a13,13,0,0,1-2.46,1.49c-2.63,1.46-4.61,3.83-6.53,6.15a11.76,11.76,0,0,0-3.72,9.26L704,991.66c-.1,2.68-.12,5.59,1.47,7.75a6.1,6.1,0,0,1,1.37,2.15,5.36,5.36,0,0,1-.39,2.51,8,8,0,0,0,1.33,6.79c-4.37,1.07-6.53,5.95-10.16,8.6a6.19,6.19,0,0,0-2.29,2.16c-.45,1-.17,2.24-.6,3.26a5.62,5.62,0,0,1-1.91,2,22.13,22.13,0,0,0-7,9.61l-5,7.52.69,12c2.63,12.21,11,22.74,21.4,29.64s22.79,10.42,35.19,11.94l1.18,6.22,5.67,3a26.41,26.41,0,0,1,9.62,7l1.7,6a7.33,7.33,0,0,1,3.14,3.28,14.31,14.31,0,0,1,.91,2.94q.61,2.55,1.21,5.1c.47,2,.93,4.12.23,6a18.83,18.83,0,0,1,7.2-1.23,2.93,2.93,0,0,1,1.56.37,1.1,1.1,0,0,1,.43,1.41,11.16,11.16,0,0,1,8-.76,23.51,23.51,0,0,1,7.35,3.52,19.43,19.43,0,0,1,5.33,4.8,8.56,8.56,0,0,1,1.55,6.82l-.2,1.24c1.41.94,2.93,2,3.34,3.68s-.43,3.4-1.37,4.85c-5,7.72-13.3,13.38-22.43,14.33-1.46.15-3.07.23-4.17,1.22s-1.37,2.92-1.45,4.56l5.51,6a34.43,34.43,0,0,1,16.65,6.81c2.69,2.07,5.23,4.62,8.53,5.4a18.06,18.06,0,0,0,4.47.3l10.91-.19,9.11,9.12a13.23,13.23,0,0,0,2.21,7.87c.89,1.33,2,2.48,2.88,3.83,2.2,3.41,2.55,7.7,2.26,11.75a16.65,16.65,0,0,1-1,5.09c-2.08,5.1-7.7,7.64-12.82,9.69l.28.48c1.44,1.4,3.88.59,5.78,1.25s3,2.8,3.55,4.8a30.73,30.73,0,0,1,.88,8,28.65,28.65,0,0,1-.57,6.27,20.77,20.77,0,0,1-10.37,13.3,26.2,26.2,0,0,1-16.86,2.54,15.46,15.46,0,0,1-2,16.18l.9-.1a67.52,67.52,0,0,1,16.42-2.4,3,3,0,0,0,1.51-.3,3.66,3.66,0,0,0,1.1-1.53,7.93,7.93,0,0,1,8.25-4c-.21-2.31-.16-5.15,1.85-6.3.47-.26,1-.4,1.49-.62,2.1-.93,3.25-3.14,4.65-5s3.72-3.47,5.84-2.59c.62-2.36-.1-4.88.26-7.29a8.3,8.3,0,0,1,6.37-6.72l1-1.12c1.18-.94,1.28-2.67,1.25-4.18,0-2.71-.16-5.43-.35-8.14l-2.17-.23a23.39,23.39,0,0,1,2.54-9.22,1.28,1.28,0,0,1-1.56-.76,3.66,3.66,0,0,1-.17-1.89c.08-1,.17-2.09.26-3.13a2.59,2.59,0,0,1,.34-1.31c.51-.75,1.57-.77,2.43-1,1.75-.55,2.84-2.27,4.41-3.24s3.77-1.15,5.76-1.21l5.06-.14c1.69,0,3.91.3,4.21,2a2.87,2.87,0,0,0,.25,1.18c.34.48,1,.44,1.61.55a2.56,2.56,0,0,1,2,1.89,2.64,2.64,0,0,0,.4,1.23,1.76,1.76,0,0,0,.95.45,9.83,9.83,0,0,1,4.67,2.35,4.77,4.77,0,0,1,1.32,4.84c-.16.43-.4.9-.19,1.31a1.59,1.59,0,0,0,.72.55c3.36,1.76,4.21,6.48,2.8,10s-4.44,6.12-7.44,8.46c-2.33,1.82-4.88,3.66-7.84,3.94a4.38,4.38,0,0,1-3.49,3.57,12.83,12.83,0,0,1-5.3-.19,19.69,19.69,0,0,1-.31,6.37,6.71,6.71,0,0,1-4,4.73c-1.4.49-3,.33-4.38.74a10.53,10.53,0,0,0-2.77,1.42A96.44,96.44,0,0,0,832,1295.27l.56.42a45.77,45.77,0,0,1,11-.43,2.39,2.39,0,0,0,1.63-.26,3.45,3.45,0,0,0,.75-1.27,3.4,3.4,0,0,1,5.47-.45,18.32,18.32,0,0,0,1.18,1.9c.86.91,2.25,1,3.49,1.15a14,14,0,0,1,6.09,2.18,14.87,14.87,0,0,1,5.8,9,30.08,30.08,0,0,1,.23,10.87,3.91,3.91,0,0,0,0,1.67c.3,1,1.34,2.06.62,2.78l.67-.42a65.87,65.87,0,0,1,8.88-.45,7.17,7.17,0,0,1,4.47,1.15,7.52,7.52,0,0,1,1.93,3.12,13.85,13.85,0,0,1,1.39,5.42c0,2.06-1,4-1.31,6-.42,2.59.2,5.22.21,7.85s-.83,5.55-3.15,6.79a21.54,21.54,0,0,1-3,1c-3.75,1.31-6,5-9.19,7.44-2.54,1.92-5.62,3-8.65,3.94l-.31.35a8.4,8.4,0,0,1,2.78,4.65,11.92,11.92,0,0,1,9.12.29,24.18,24.18,0,0,0,4.34,2c2.1.47,4.49-.19,6.32.94a3.79,3.79,0,0,1,1.55,4.31,11,11,0,0,1,6.78,3.28l.45,2.32c1.25,2.35,2.54,4.93,2,7.55a11.63,11.63,0,0,1-.94,2.61,18.9,18.9,0,0,1-2.74,4.81,6.42,6.42,0,0,1-4.82,2.4,8.66,8.66,0,0,1-.87,5.43l.31.14a3.57,3.57,0,0,1,4.29.46,9.11,9.11,0,0,1,2.35,4,25.5,25.5,0,0,1,1.89,11.08c-.35,3.76-2.15,7.53-5.33,9.55-.91.58-1.91,1-2.8,1.61-2,1.39-3.44,3.67-5.67,4.73-1,.48-2.16.68-3.16,1.2-2,1-3.56,3.37-5.8,3.15l-.33-.16c2.77,1.31,3.4,4.94,3.4,8a4.84,4.84,0,0,0,.22,1.78,5.48,5.48,0,0,0,.72,1.12,18.23,18.23,0,0,1,3.24,7.07,36,36,0,0,1,.63,6.39c.08,2,.15,4,.23,6,0,.89-.21,2.1-1.1,2.12a4.11,4.11,0,0,1,3.44,3.49,10.9,10.9,0,0,1-.64,5.19c-1.49,4.9-3.53,9.8-7.2,13.39a19.06,19.06,0,0,1-12.89,5.37,8.44,8.44,0,0,1-3.16-.44,25.87,25.87,0,0,1-3.67-2.26c-2.94-1.72-6.57-1.75-10-1.41s-6.83,1-10.19.37a6,6,0,0,1-2.35-.83,3.94,3.94,0,0,1-1.19-5l-.81-.84a16.07,16.07,0,0,1-8.22-6.64,9,9,0,0,1,.19,3.38,2.73,2.73,0,0,1-5.33.59,9,9,0,0,1-.6-3.94,7.07,7.07,0,0,1-3.71-.07,3,3,0,0,1-2.06-2.82,26.51,26.51,0,0,1-8.31,3.36c-2.77,3.87-5.68,8.4-4.63,13l-.25,6.25,6.31-2.73,5.91,6.07a6,6,0,0,0,1.88,1.47c1,.42,2.2.23,3.29.46,3.14.65,4.58,4.39,7.35,6,3.1,1.82,7.07.62,10.59,1.31,4.71.92,8.2,5.1,12.82,6.38a22.38,22.38,0,0,0,5.48.57l13.91.28.3.22a44.66,44.66,0,0,0-1.76,8.9,22.65,22.65,0,0,0,8.46,18.81,31.1,31.1,0,0,1,3.45,2.81c2.83,3,3.31,7.41,3.64,11.5l-.51,4.53,4,.61,9.38-1.44a29.4,29.4,0,0,1,4.76-.46c3,0,5.94,1,8.94,1.28,4.4.34,8.83-1,13.21-.46,5,.56,9.45,3.37,14.31,4.65,5.11,1.35,10.54,1,15.7,2.1,3.07.68,6,1.87,9.06,2.57a80.45,80.45,0,0,0,11.41,1.25l5.86-4.6a37.15,37.15,0,0,0,25.11-24.1,2.52,2.52,0,0,1,.69-1.26,2.44,2.44,0,0,1,1.31-.37,52.42,52.42,0,0,0,23.39-8l4.69-5c2-5.39,6.83-9.15,10.48-13.61a36.63,36.63,0,0,0,7.73-17.07,76.69,76.69,0,0,0,.74-8.28l1.06-21a3,3,0,0,0-.27-1.76c-.27-.42-.73-.67-1-1a4.07,4.07,0,0,1-.58-2.94c.27-5,.27-10.29-1.94-14.82l-.5-5.39c2.23-3.2,2.13-7.5,3.91-11,.67-1.3,1.59-2.45,2.36-3.7,2.5-4,3.32-8.91,5.61-13.07a18.51,18.51,0,0,0,1.33-2.58,13.26,13.26,0,0,0,.59-3.71l.3-5.16,1.57-2.07c7.16,5.89,12.91,14.28,21.84,16.74,5.15,1.42,10.66.6,15.75-1a16.55,16.55,0,0,0,6.41-3.31,7.11,7.11,0,0,0,2.36-6.54l3.22-.54,1.27,0a28.89,28.89,0,0,1,4.15-8.69,25.23,25.23,0,0,1,2.73-3.1l-.39-1.87c.17-3.55,3.39-6.06,6.2-8.22,3.54-2.72,7-5.75,9.26-9.58a44,44,0,0,0,2.5-5.17l3.82-8.85a35.63,35.63,0,0,0,1.83-4.9,17.62,17.62,0,0,0-12.18-21.44l.63-1.13a58.45,58.45,0,0,0,6.54-4.84,20.83,20.83,0,0,0,6-7.45,23,23,0,0,0,1.39-7.18c.54-7.24.32-15-3.81-21l-.39-.75c2-1,2.8-3.52,2.41-5.7a16.52,16.52,0,0,0-2.9-5.94,13.37,13.37,0,0,1-2.6-6.05c-.14-1.83.43-3.7,0-5.49-.92-4.18-6.2-5.56-9-8.83-2.23-2.63-2.66-6.28-3.63-9.59-1.64-5.6-5-10.49-8.34-15.28l-3.64-7.65c-3-3.54-3.72-8.49-5.49-12.82-2-4.82-5.35-8.91-8.56-13-10.53-13.54-19.82-28.49-23.85-45.16-3.86-15.92-2.75-32.65.17-48.76s7.61-31.85,10.93-47.89l-1.72-10.85-13.32-24.56a13.74,13.74,0,0,0-1.94-2.94,15.45,15.45,0,0,0-3.46-2.47c-15.93-9.61-26.32-26.9-42.82-35.49l-5.55-8.13c-17.85-17.28-31.35-38.45-44.68-59.41Z"></path>
    <path data-name="6" data-official="Eriobotrya Japonica" data-plain="Loquat" data-loc="Japan" d="M1002.6,2141.43a66.71,66.71,0,0,1-12.16,29.66,7.11,7.11,0,0,1-2.54,2.43c-2.08,1-4.49-.06-6.65-.84a28.19,28.19,0,0,0-10-1.7c-2.71,0-5.42.45-8.13.28-4.5-.3-8.7-2.23-12.8-4.1-15.91-7.3-32.17-14.41-49.46-17.07a16.32,16.32,0,0,1-4-.93c-1.36-.59-2.55-1.57-4-1.87-1-.21-2.13-.08-3-.61a4.58,4.58,0,0,1-1.59-2.07c-1.24-2.48-2.48-5-3.71-7.45l3.18-7.28c-.54-21.55,4.85-42.75,10.21-63.63,1.3-5.11,2.64-10.27,5.2-14.88s6.52-8.65,11.56-10.18l7.92,1c6.53,7.88,13.09,15.8,20.83,22.49,2.52,2.19,5.17,4.23,7.74,6.36,13.09,10.82,24.32,23.67,35.49,36.46l7.91,9.06c4.28,4.91,8.81,10.4,8.88,16.91Zm107.05-515a21,21,0,0,0-6.38-.84,34.85,34.85,0,0,0-8.84.49c-3.54.82-6.77,2.73-10.31,3.54a17.45,17.45,0,0,1-9.26-.44c3.33,4.71,9.85,5.49,15.07,7.94,2.16,1,4.15,2.36,6.33,3.31,2,.9,4.22,1.45,6.12,2.6,3,1.82,5.36,5.12,8.86,5.4,1.14.09,2.58-.52,2.52-1.66L1116,1640A10.93,10.93,0,0,0,1109.65,1626.47ZM987.54,2247.63l-3.66-12a23.2,23.2,0,0,0-7.2-15.26,9.52,9.52,0,0,0-4.81-2.72,21.28,21.28,0,0,0-2.88-.11c-4.86-.18-9.09-3.14-13.32-5.53-6.28-3.55-13.12-6-19.92-8.38L910,2194.51c-2.45-.87-4.9-1.74-7.4-2.44a59.49,59.49,0,0,0-30.61-.41L861.1,2197l-.19,10.13a57,57,0,0,1-20.38,30.93c-7.27,5.58-16,9.49-21.72,16.65-6.78,8.48-8.12,20-8.71,30.81-.24,4.27-.38,8.64.84,12.74,3,10,13.55,16.09,23.91,17.23s20.67-1.64,30.81-4a409.28,409.28,0,0,1,70.08-10.14c11-.62,22.2-.85,32.55-4.57s19.89-11.78,22.06-22.56Zm88.16-364.28c-2-7.22-4.06-14.73-9.08-20.27-3.2-3.52-7.36-6-11.46-8.42l-24.65-14.55c-6.67-3.94-13.37-7.89-19.41-12.75-6.93-5.58-12.89-12.25-18.82-18.89l-4.31-4.84c-2-2.25-4.17-5.13-3.25-8-2,.8-4-1.17-5.13-3.06s-2.29-4.15-4.45-4.41l-9.24-9L960,1781q.06,18-.08,36c0,4.84-.1,9.73-1.31,14.41-.82,3.18-2.15,6.2-3,9.38a47.61,47.61,0,0,0-1.3,10.17,99.73,99.73,0,0,0,1,18.19c.59,3.94,1.41,7.85,1.66,11.82a83.6,83.6,0,0,1-1,15.39c-1.85,14.88-3.88,30.29-11.77,43l-2.8,6-4.47,3.78a26.42,26.42,0,0,1-6.05,4.22l-2.41,9.5-2.16,10.61-8.41,6.81c6.09,5.5,7.9,14.2,12,21.33a72.46,72.46,0,0,0,7.27,9.91c5.81,7.07,11.63,12.13,17.44,19.2a109.16,109.16,0,0,0,9.2,10.26c2.71,2.54,5.67,4.81,8.49,7.22a102.28,102.28,0,0,1,13.34,13.79,10,10,0,0,0,3.22,3,16.23,16.23,0,0,0,2.37.73c5.11,1.46,8.61,8,11.86,12.21.78,1,1.84,2.14,3.11,1.93a3.55,3.55,0,0,0,1.66-1,87.27,87.27,0,0,0,16.84-19.71l7.5-8.05,7.12-16.55a1053.34,1053.34,0,0,0,43.24-130.83Zm732.53-968.59c53.72-26.17,94.17-74.86,119.42-129s36.49-113.79,43.21-173.17c17.92-158.3,4.55-321.74-52.79-470.38-10.23-26.52-23.53-54.42-48.64-67.74-31.94-17-73-3.65-99.38,21.07s-41.77,58.61-58.16,90.84-35.61,65-66.35,84c-41.58,25.76-100.54,18.86-135-15.8-20.12-20.22-31.69-47.6-51.24-68.37-45.25-48.09-119.8-49.78-185.82-48.1-32.89.84-74.12,7.83-82.69,39.6C1032.39,41,810.81,2.85,601.65,6.32c-16.91.28-35.86,1.7-47,14.39-32.09,36.43,42.4,92.94,20,136-13.36,25.65-49.72,24.6-78.38,20.78a1367.72,1367.72,0,0,0-168.46-11.87c-18.76-.16-39.54.85-53,13.9-19.76,19.16-11.82,54.3,7.78,73.62s47,27.93,71.86,39.68,50,29.89,55.74,56.81l-10.93,19.73c20,3.48,36.72,17.55,49.3,33.51s22.06,34.18,34.25,50.45c7.15,9.53,17.24,19.21,29.07,17.76l8.92,1.25c6.78-1.07,13.8.6,19.86,3.81a57.4,57.4,0,0,1,15.76,13,41.59,41.59,0,0,1,5.13,6.9c4.21,7.38,4.71,16.33,3.85,24.78l-.5,1c.32.77,1.31.93,2.14,1,1.76.12,3.77.43,4.7,1.93l1.58-.25c-.27-5.91,2.21-11.71,5.92-16.32s8.57-8.15,13.6-11.28a34,34,0,0,1,6.54-3.36c4.29-1.5,8.94-1.45,13.48-1.38a31.77,31.77,0,0,1,6.89.59,32.39,32.39,0,0,1,6.78,2.76c5.16,2.57,10.41,5.2,14.59,9.17a47.88,47.88,0,0,1,7.22,9.21,34.83,34.83,0,0,1,4.35,8.66,20.18,20.18,0,0,1-.24,12.23l.17,1c3.12.34,5.73-2.63,6.46-5.68s.19-6.24.32-9.37a21.94,21.94,0,0,1,1.77-7.82,3.9,3.9,0,0,1,1.1-1.62,1.49,1.49,0,0,1,1.83-.07c.57.5.75,1.61,1.5,1.56a10.85,10.85,0,0,1,3.79-11.31,15.53,15.53,0,0,1,4.22,6.35,24,24,0,0,1,6.14-18.71,6,6,0,0,0,5.78,2.51l.43-.75c-.17-5.21-.1-11.07,3.61-14.75a9.74,9.74,0,0,1,9.39-2.37,47.65,47.65,0,0,1,6.45-13.16,8.89,8.89,0,0,1,2.57-2.68c2-1.19,4.48-.85,6.76-.48a25.32,25.32,0,0,1,26.45-17.89c-2.38.45-4.19,2.37-5.68,4.29-5.36,6.91-8.84,15.14-11.16,23.58s-3.51,17.15-4.71,25.82l-1.19,8.64-.25,1.33a22,22,0,0,1,12.15-.66,66.47,66.47,0,0,1,11.68,3.9,10.88,10.88,0,0,1,18.52,1.84l-.23.24a14.41,14.41,0,0,1,19,3.56,7.08,7.08,0,0,0-4.5,2.08,25.54,25.54,0,0,1,10.43,1.38c3.74,1.51,6.76,4.36,9.68,7.15,3.69,3.52,7.49,7.19,9.37,11.94a46.46,46.46,0,0,0-9.57-.72l-8.76,0a56.94,56.94,0,0,0-6.66.23c-2.36.27-4.67.84-7,1.16a69.09,69.09,0,0,1-10.47.38c.41.81-.81,1.44-1.71,1.54l-6.51.72a22,22,0,0,0,8.73,9.91c1.4.84,3,1.61,3.72,3.07a20.76,20.76,0,0,0,.83,1.93,5.73,5.73,0,0,0,1.54,1.4,21.88,21.88,0,0,1,6,5.91,10.72,10.72,0,0,1,1.61,8.07l.58.76a10.45,10.45,0,0,1,6.07-3.62c2.24-.42,4.54-.09,6.82-.09s4.73-.44,6.34-2.06a17.86,17.86,0,0,1,3.16,5.39,49.47,49.47,0,0,1,5.57.65,4.93,4.93,0,0,1,2.13.74,3.49,3.49,0,0,0,2.84,3.24,5.35,5.35,0,0,1,.11,2.64c1.73-.86,4.33.47,4.1,2.39-.11.92-.77,2-.19,2.67a5,5,0,0,0,1,.7,3.31,3.31,0,0,1,1,2.43l.32.75a33,33,0,0,1,11.14-1.26,5.19,5.19,0,0,1,3.16,1c.74.63,1.1,1.61,1.81,2.29s1.48.93,1.92,1.66.29,2,.85,2.86,2,1.1,2.85,1.86c.55.48.85,1.19,1.4,1.66,1.4,1.18,4.07.69,4.76,2.39a10.38,10.38,0,0,0,.43,1.5c.24.4.68.62,1,1,1.48,1.56-.26,4.25.57,6.23a7.36,7.36,0,0,0,1.57,1.92,12.94,12.94,0,0,1,3,6,21.8,21.8,0,0,1-8.06,22l.59-.08c3.39-.26,7,1,8.89,3.9a15,15,0,0,1,1.43,3.2l2.43,6.74a58.57,58.57,0,0,1,1.91,6,34.39,34.39,0,0,1,.87,6.78,18.18,18.18,0,0,1-1.32,8.41c-1.34,2.86-3.78,5-6.16,7.1a56.16,56.16,0,0,1-7.5,5.82,30.15,30.15,0,0,1-20.91,3.63,35.69,35.69,0,0,1-18.78-10.18,7.41,7.41,0,0,1-.76,5.6,43,43,0,0,1-3.27,4.78c-3.63,5.17-5.52,11.33-7.36,17.38l-.83.85c-4.69-.51-9.4,1.17-13.35,3.75s-7.24,6-10.49,9.42a5,5,0,0,0,3.08.61,7.33,7.33,0,0,1,3.17.31,2.15,2.15,0,0,1,1.33,2.57l5.8-.18.48,1.83.13-.24c1.37-2.15,4.29-2.78,6.83-2.45s4.9,1.43,7.4,1.94a16.63,16.63,0,0,0,9.21-.77,22,22,0,0,1-1.91,9l18.11,0a1.92,1.92,0,0,1,1.11.25,1.86,1.86,0,0,1,.54,1.1,10.37,10.37,0,0,0,2.18,4.64,4.47,4.47,0,0,0,4.69,1.36l-3,4.16c2.53.81,4.54,2.7,6.46,4.53a47.39,47.39,0,0,1,6.63,7.25,16,16,0,0,1,3.13,9.16l4.55,2.86,13.65,16.51c.07,2.58-.79,5.08-1.2,7.63-.68,4.21-.14,8.54-.8,12.75a26.87,26.87,0,0,1-2.9,8.37l0-.11,5.86,3.59c11.52,8.06,25.53,12.57,35.67,22.31,3.8,3.64,6.93,7.9,10.48,11.78a143.53,143.53,0,0,0,11.43,10.76l33.58,29.41c1.76-3.47,3.36-7,4.77-10.64,1.3-3.34,2.19-7.76-.62-10-1-.83-2.63-1.53-2.49-2.85a1.92,1.92,0,0,1,2.41-1.36,5.57,5.57,0,0,1,2.51,1.83c-1-2.36-.29-5.16,1.13-7.29a34.82,34.82,0,0,1,5.3-5.56,45.31,45.31,0,0,0,7.71-9.78c-.07,9.28-7.84,17-8.52,26.27-.15,2.09.07,4.2-.16,6.29-.44,4.12-2.56,7.84-4.17,11.66s-2.72,8.22-1.12,12l11.81,24.74c13.33,21,26.83,42.13,44.68,59.41l5.55,8.13c16.5,8.59,26.89,25.88,42.82,35.49a15.45,15.45,0,0,1,3.46,2.47,13.74,13.74,0,0,1,1.94,2.94l13.32,24.56,1.72,10.85c-3.32,16-8,31.78-10.93,47.89s-4,32.84-.17,48.76c4,16.67,13.32,31.62,23.85,45.16,3.21,4.12,6.58,8.21,8.56,13,1.77,4.33,2.44,9.28,5.49,12.82l3.64,7.65c3.32,4.79,6.7,9.68,8.34,15.28,1,3.31,1.4,7,3.63,9.59,2.76,3.27,8,4.65,9,8.83.39,1.79-.18,3.66,0,5.49a13.37,13.37,0,0,0,2.6,6.05,16.52,16.52,0,0,1,2.9,5.94c.39,2.18-.4,4.75-2.41,5.7l.39.75c4.13,6,4.35,13.78,3.81,21a23,23,0,0,1-1.39,7.18,20.83,20.83,0,0,1-6,7.45,58.45,58.45,0,0,1-6.54,4.84l-.63,1.13a17.62,17.62,0,0,1,12.18,21.44,35.63,35.63,0,0,1-1.83,4.9l-3.82,8.85a44,44,0,0,1-2.5,5.17c-2.3,3.83-5.72,6.86-9.26,9.58-2.81,2.16-6,4.67-6.2,8.22l.39,1.87a25.23,25.23,0,0,0-2.73,3.1,28.89,28.89,0,0,0-4.15,8.69l-1.27,0-3.22.54a7.11,7.11,0,0,1-2.36,6.54,16.55,16.55,0,0,1-6.41,3.31c-5.09,1.62-10.6,2.44-15.75,1-8.93-2.46-14.68-10.85-21.84-16.74l-1.57,2.07-.3,5.16a13.26,13.26,0,0,1-.59,3.71,18.51,18.51,0,0,1-1.33,2.58c-2.29,4.16-3.11,9-5.61,13.07-.77,1.25-1.69,2.4-2.36,3.7-1.78,3.46-1.68,7.76-3.91,11l.5,5.39c2.21,4.53,2.21,9.79,1.94,14.82a4.07,4.07,0,0,0,.58,2.94c.32.38.78.63,1,1a3,3,0,0,1,.27,1.76l-1.06,21a76.69,76.69,0,0,1-.74,8.28,36.63,36.63,0,0,1-7.73,17.07c-3.65,4.46-8.46,8.22-10.48,13.61l-4.69,5-4.67,9.51c-.32,11.16-3.66,22-7,32.64l-7.17,7.12,10.37,4.59a13.08,13.08,0,0,1,6,5.38,4.18,4.18,0,0,0,1.11,1.47,3.38,3.38,0,0,0,1.4.44c3.25.46,6.84.28,9.45,2.27a12.85,12.85,0,0,0,1.68,1.28,9.06,9.06,0,0,0,2.58.65,12,12,0,0,1,4.54,1.89h0l.66-1.37-.58-24.23c-.14-5.52-.26-11.12,1.13-16.46a38.48,38.48,0,0,0,1.15-4.68,24.92,24.92,0,0,0,0-5c-1.28-19.42,1-40,12.36-55.85,3-4.14,6.51-7.85,9.72-11.82,5.11-6.32,9.39-13.27,13.65-20.19l2.06-1.93h0a16.43,16.43,0,0,0-4.47-6.69,17.4,17.4,0,0,1,7.2,4h0l1.08-1.61,8.51-16.55c2.51-4.9,5.06-9.85,8.6-14.07a32.64,32.64,0,0,0,3.62-4.61,22.5,22.5,0,0,0,2.09-6.07c1.32-5.49,2.64-11.18,6-15.72s8.22-7.39,12.13-11.33,6.61-8.62,9.54-13.21a191.36,191.36,0,0,1,27.83-34.14l6.07-6.09a141.65,141.65,0,0,0,15.91-13.23c4.56-4.4,8.82-9.1,13.48-13.38,6-5.48,12.55-10.23,18.8-15.38a192.13,192.13,0,0,0,24.69-24.38l3.42-10.26c1.94-4,2.47-8.51,4.6-12.36a33.31,33.31,0,0,1,4.85-6.21c3.16-3.45,6.32-6.9,9.78-10,9.26-8.41,20.4-14.42,31.42-20.34a77,77,0,0,1,12.85-5.93c7.55-2.4,15.61-2.42,23.53-2.71,15.3-.57,31.4-2.59,43.62-11.82,6-4.52,10.69-10.53,16-15.83s11.71-10.1,19.15-11.15l10.35-8a81.25,81.25,0,0,1,26.17-29.52l9.32-8.11c-4.13-.07-7-3.86-10-6.73-7.72-7.44-19-9.92-29.69-10.48-4.33-.23-8.88-.24-12.69-2.34a24.68,24.68,0,0,1-6.28-5.62c-8.43-9.54-16.59-20-19.62-32.31-1.94-7.91-1.66-16.18-1.36-24.33a1.91,1.91,0,0,1,.31-1.21c.27-.33.89-.39,1.08,0l1-1.81q-.13-6.23-.2-12.44a5.57,5.57,0,0,1,.62-3.22,5.46,5.46,0,0,1,1.1-1.1l3.7-3.06a7.87,7.87,0,0,1,2.27-1.48,7.37,7.37,0,0,1,2.48-.28,46,46,0,0,1,23.24,6.72l1.23-.57a132.66,132.66,0,0,1-6.84-33.5c-.53-7.31-.32-15.13,3.65-21.29,1.67-2.61,4-4.81,5.42-7.54,2.68-5,2.76-11.9,7.58-14.91,5.24-3.28,12.48.46,18.16-2,2.28-1,4.09-2.86,6.39-3.77,4.41-1.75,9.7.37,14-1.61,1.49-.68,2.74-1.81,4.25-2.47,2.4-1.06,5.16-.81,7.77-.54,4.94.52,10,1.06,14.52,3,2,.86,3.89,2,5.89,2.84,2.16.93,4.47,1.55,6.54,2.68,4.45,2.45,7.34,7.12,8.75,12s1.51,10,1.6,15.12c2.61-.12,3.17-3.62,3.6-6.19,1.28-7.53,7.77-13,14.29-17a10.73,10.73,0,0,0,3.42-2.76,6.68,6.68,0,0,1,1.47-1.95,4.14,4.14,0,0,1,2.29-.47c9.12,0,19.33.35,25.69,6.9,2.87,3,5.24,7.26,9.34,7.53,2.54.16,4.84-1.37,7.3-2,3.92-1,8.1.44,11.44,2.71s6,5.33,9,8.13a74,74,0,0,0,18.73,13.12l15.1,2.88c52.21,2.57,103-15.44,153.78-30.69Z"></path>
    <path data-name="7" data-official="Cotoneaster microphylla" data-plain="Small-leaved Cotoneaster" data-loc="Nepal" d="M1230.38,2672.16c-.75-30.22-5.74-60.65-17.93-88.31-5.22-11.85-11.72-23.09-17.17-34.84-6.08-13.09-10.83-26.75-15.58-40.39s-9.63-27.7-11.35-42.2l-5-13.8-9.32,1.91a6.27,6.27,0,0,1-4.72-3.11,19.59,19.59,0,0,1-2.06-5.48q-2.73-10.28-6.15-20.34a53.9,53.9,0,0,0-2.14-5.55c-1-2.19-2.32-4.25-3.16-6.51a35.27,35.27,0,0,1-1.66-10.18l-1.29-19.93,3.77-13.08-3.8-30.39a130,130,0,0,0-18.26-43.87c-2.75-4.21-5.89-8.39-10.32-10.76-3-1.6-6.37-2.27-9.45-3.67-9.43-4.28-16.36-15.3-26.7-14.67l-7.21-3.69a8.43,8.43,0,0,1-1.74,4.56,8.31,8.31,0,0,1-2.69,1.74l-7.11,11.89a81.54,81.54,0,0,0,2.28,28.47c.67,2.56,1.47,5.25.78,7.82-.77,2.86-3.23,4.9-5.55,6.75-10.7,8.51-21.65,17.17-34.49,21.88s-28.14,4.92-39.37-2.89c-7.37-5.11-12.24-13-18.66-19.26a53.28,53.28,0,0,0-26.63-14l-12.92-7.17a410.08,410.08,0,0,0-49.1,8.4c-10.14,2.38-20.46,5.16-30.81,4s-20.94-7.25-23.91-17.23c-1.22-4.1-1.08-8.47-.84-12.74L794,2269.94c-52.39-5-104.93,9-157.52,7-7.73-.31-15.5-1-22.94-3.05-14.53-4.06-27-13.23-39.13-22.21l-24.1-18.3c-9.44-5.07-18-13.34-19.8-23.9-1.44-8.41,1.52-17.31-1-25.46-2.4-7.71-9.46-13.27-17.08-16s-15.86-3-23.94-3.2l-104.12-3.12-15.74-6.29a78.64,78.64,0,0,1-26.21-4.73,12.27,12.27,0,0,1-2.79-1.31,16.52,16.52,0,0,1-2.27-2.08c-3.37-3.34-7.48-5.82-11.55-8.26a103.4,103.4,0,0,0-9.66-5.35c-2.94-1.37-6-2.46-8.82-4.08A26.87,26.87,0,0,1,295.38,2115l-26.95,7c-32.84,10.57-69.82,25-81.55,57.4-10.13,28,2.91,58.83,18.2,84.38,17.4,29.1,38.35,56.53,65,77.55,24,19,52,32.24,80.17,44.22a1167.91,1167.91,0,0,0,247.93,74.3c61.31,11.15,123.53,17.4,184.27,31.33,52.65,12.09,106.53,30,159.51,19.46,37.06-7.39,72.85-28.61,110.12-22.34l30-4.6,10.1-4.34a6.23,6.23,0,0,1,5.08-1.77,12.75,12.75,0,0,1,3.67,1.25,106.65,106.65,0,0,0,21.92,7.08,3.16,3.16,0,0,1,1.47.58,3.12,3.12,0,0,1,.71,2.38q.11,7.74.19,15.48l-.47,21.09.93,26c11,20.43,8.78,45,11.91,68,1.65,12.08,4.83,23.9,8.23,35.61,3.75,12.91,8.44,26.66,19.39,34.45,14.67,10.44,35,6.4,51.82.12,5-1.86,10.41-4.33,12.46-9.25C1230.47,2677.78,1230.45,2674.92,1230.38,2672.16Zm-110-213.31c-.46,1.05-1.94,1-3.06.82l-2.75-.5a15.15,15.15,0,0,1-4.31-1.24,5.06,5.06,0,0,1-2.76-3.37l-1.07-3.75a2.17,2.17,0,0,0,2.06-.92,19,19,0,0,0,1.19-2.06c1.18-1.9,3.73-3,5.79-2.16a5.28,5.28,0,0,1,1.69,1.24c2.65,2.76,3.06,6.91,3.32,10.73A2.59,2.59,0,0,1,1120.43,2458.85Z"></path>
</svg>
