
<svg xmlns="http://www.w3.org/2000/svg" viewBox="0 0 1883 2572" id="illustration" preserveAspectRatio="xMidYMid meet">
    <title>Lythraceæ</title>
    <path data-name="1" data-official="Lythrum Salicaria" data-plain="Purple Loosestrife" data-loc="River Banks, England" d="M1245.17,374.2c-4.29-23.05-12.2-45.5-13.87-68.88-1.15-16.19.7-32.73-3.23-48.47-3.3-13.23-10.49-25.09-15.83-37.63-22.14-51.93-11.43-111.68,4.34-165.88,2.93-10.08,6-21,2.47-30.82-3.9-10.89-15.32-17.76-26.8-19.16s-23,1.79-33.85,5.82A213.27,213.27,0,0,0,1043.68,112c-5.25,10.41-10,21.71-19.16,28.88-8.55,6.66-19.67,8.75-29.7,12.85s-20.11,11.93-20.71,22.75c-.54,9.56,6.6,18.75,4.49,28.09-2,8.78-11.05,13.68-19.06,17.77-13.67,7-27.09,15-37.52,26.26s-17.64,26.2-16.84,41.52c.86,16.68,10.87,31.81,11.9,48.48,1.09,17.55-8,34.29-19.58,47.54s-25.7,24-37.69,36.89a155.85,155.85,0,0,0-39,77.54l1.44,36.2c-8.46,27.68-17.46,56.34-36.92,77.76-9.45,10.4-21,18.66-31,28.52C740.64,656.47,730,672.74,721,689.67c-5.75,10.8-11,22.32-11.34,34.55-.36,12.91,4.75,25.24,9.06,37.42,7.62,21.53,13,44.1,13.06,66.94s-5.31,46-17.83,65.17c-11.18,17.09-27.52,30.28-39.1,47.11s-17.71,40.35-6.32,57.31l8.58,26.26c5.34,22.25,5.89,45.39,10.28,67.85a74.89,74.89,0,0,0,3.2,12.08,92.12,92.12,0,0,0,6.82,13.48q5.6,9.72,11.2,19.43c3.7,6.43,7.43,12.92,9.7,20,.26.82.25,2.07-.61,2.16l-.5,5.91c.61,3.52-1.49,6.93-3.87,9.59s-5.21,5.08-6.58,8.37a15.33,15.33,0,0,0-1,5.23c-.11,2.55.28,5.32,2.06,7.14a7.24,7.24,0,0,0,5.88,1.92,12.8,12.8,0,0,0,5.85-2.39l4.28,5.53a50.56,50.56,0,0,1,3.61,34.11,43,43,0,0,0-1.68,8c-.09,1.85.12,3.83-.81,5.43a17,17,0,0,1-1.35,1.72c-2.74,3.49-2.4,8.41-1.92,12.82l2.57,4.12c2.67,5.2,9,7.18,13.17,11.32,2.26,2.28,3.8,5.17,5.71,7.75s4.41,5,7.57,5.6a10,10,0,0,1,3.23.77c1.91,1.14,1.94,4.09.64,5.89s-3.45,2.74-5.5,3.59L731.75,1309c-1.59.66-3.45,1.31-4.94.46l-9.35-.08-19.73,1-10.68,2.1c-8.19,7.49-20.17,9.13-31.26,8.62a63,63,0,0,0-10.73-.06c-3.55.45-7.14,1.8-9.51,4.48l3.67-5.09.37-2.24a52.09,52.09,0,0,0-43.77-2,5.81,5.81,0,0,0-3.12,2.3,21.12,21.12,0,0,0-.82,2.63,5.78,5.78,0,0,1-3.94,3.21,17.37,17.37,0,0,1-5.24.32l1.93,9.21c7,11.15,19.36,17.78,31.76,22.17s25.46,7.09,37.28,12.88a78.26,78.26,0,0,1,32.57,30c2,3.28,3.73,7.11,2.76,10.81-.74,2.77-2.89,4.92-5.06,6.79a74.8,74.8,0,0,1-20.59,12.63c-9.72,4-20.25,5.87-29.64,10.58s-17.9,13.32-18.23,23.81l8.09,6.5a230.8,230.8,0,0,0,27.18,16.63c5.58,2.9,11.5,5.76,15.28,10.8l2.14,5a28.82,28.82,0,0,1,3.82,7.82,7,7,0,0,1,.42,3.13c-.28,1.94-1.88,3.39-2.77,5.14a7.55,7.55,0,0,0,.78,7.91c1.55,2,4,3,6.29,3.91,11,4.31,23.18,7.46,34.58,4.31l.12-.11a4.3,4.3,0,0,0,2.38,3,2.7,2.7,0,0,1,1.28.8,2.06,2.06,0,0,1,.2,1.16l-.15,8.37c0,3.32-.15,6.8-1.79,9.69-1.12,2-3,4-2.39,6.19a4.06,4.06,0,0,0,4.09,2.62,9.94,9.94,0,0,0,4.86-1.79c5.07-3.09,9.46-7.28,14.82-9.84,4.27-2,9.3-3.19,12.24-6.9l1.38,3.48c-.73,2.08-.13,4.47-1,6.49-.72,1.68-2.31,2.79-3.47,4.21-2,2.51-2.62,5.88-3,9.09a31.92,31.92,0,0,0-.14,9.85,12.32,12.32,0,0,0,5,8.22c2.69,1.76,6.07,2,9.28,2.06s6.5-.07,9.74-.34l.35.45c1.27,6.89,7,12.16,13.24,15.36,2.06,1.06,4.21,1.95,6.3,2.95a3.1,3.1,0,0,1,1.26.9,2.65,2.65,0,0,1,.39,1.33c.46,5-2.84,10.23-1,15l-1.1-1.76a3.6,3.6,0,0,1-2.42-1.49,11.74,11.74,0,0,1-1.31-2.6c-1.91-4.77-4-9.46-6.37-14a18.23,18.23,0,0,0-.52,14c.43,1.12,1,2.19,1.37,3.32a.7.7,0,0,1,0,.53.57.57,0,0,1-.33.26,3.36,3.36,0,0,1-3-.34,8.15,8.15,0,0,1-2.23-2.19,29.93,29.93,0,0,1-3.85-6.73.69.69,0,0,1-1.13.59,1.32,1.32,0,0,1-.25-.81,25.65,25.65,0,0,1,0-3.92c0-.61.24-1.36.84-1.5-.35-1.14-2-1.37-3-.67a4.72,4.72,0,0,0-1.56,3.12c-.59,3.31-.18,7,1.86,9.64,1.14,1.49,2.78,2.73,3.23,4.55a4,4,0,0,1-1.18,3.86c-.08-2.92-1.72-5.58-3.69-7.74a12.81,12.81,0,0,0-4.16-3.23,6.51,6.51,0,0,0-5.15-.21,14.79,14.79,0,0,1,6.45,11.68.49.49,0,0,1-.09.36.46.46,0,0,1-.29.11,6.56,6.56,0,0,1-4.7-1.62c-1.34-1-2.45-2.36-3.74-3.47a16,16,0,0,0-5.18-3,30.85,30.85,0,0,1,7,11.71,9.3,9.3,0,0,1,.48,5.45l-2.33,1.17c-5.52.44-11.4.26-16.07-2.71-.66-.42-1.29-.89-2-1.28-2.78-1.59-6.16-1.67-9.34-1.38l-1.88-.62c-1.65-.54-3.51-1.26-4.13-2.88a11.72,11.72,0,0,1-.35-1.29,5.14,5.14,0,0,0-5-3.63,14.37,14.37,0,0,0-4.15,1.2c-5.57,2-11.71.79-17.42-.74l-9.7-3-26.64-21.2c-3.55-2.82-7.16-5.68-11.33-7.45s-9.08-2.33-13.23-.5a6.71,6.71,0,0,0-3.15,2.52,8.94,8.94,0,0,0-.76,5.13,121.22,121.22,0,0,0,1.74,14.48c.73,4.07,1.67,8.24.82,12.29s-4.14,7.92-8.27,7.91l-1.71,20.74q-15.25,0-30.5-.74a27.62,27.62,0,0,1-4.44-.45c-1.39-.3-2.73-.81-4.1-1.21a57.12,57.12,0,0,0-12-1.79l-7.83-3.26A286.74,286.74,0,0,0,523,1650.5c-6.23.18-12.61.72-18.27,3.34-2.08,1-4.24,2.49-4.58,4.75a5.26,5.26,0,0,0,1.48,4.21,12.2,12.2,0,0,0,3.78,2.58c3.8,1.86,7.89,3.09,11.74,4.86,3.37,1.56,6.54,3.53,9.75,5.41,8.53,5,17.59,9.4,27.31,11.17s20.28.67,28.59-4.69l5.19-5.38a21.65,21.65,0,0,0,6.51-2.62,2,2,0,0,1,1.07-.4,1.86,1.86,0,0,1,.91.37c3.26,2.11,6.34,4.5,9.67,6.5,8.16,4.91,17.6,7.36,27.06,8.49l10,9.34a212,212,0,0,1,28.8,39.82l4.57,9.67c3,7.52,3.63,15.76,6.18,23.44,2.07,6.24,5.35,12,8.43,17.8s6,11.8,7.35,18.24.88,13.47-2.48,19.12l-3.47,4.24a52.26,52.26,0,0,0-.1,11.25,17.29,17.29,0,0,0,4.62,10.07c1.94,1.91,4.56,3.29,5.65,5.78a11.62,11.62,0,0,1,.74,3.09c.29,2.08.59,4.17.89,6.25a10,10,0,0,0,1.37,4.44c1.32,1.86,3.76,2.61,5.26,4.32,2.27,2.57,1.85,6.47,1.29,9.86q-1.08,6.5-2.15,13l-.86,11.5c2.23,7.6,2.71,15.59,3.17,23.49.42,7.27.8,14.82-2,21.55-2,4.87-5.55,8.94-9,12.91-5.42,6.19-10.84,12.39-16.51,18.36-6.25,6.58-13,13-21.32,16.62-10.35,4.47-22,4.16-33.27,4.74-21.85,1.12-43.34,5.89-64.7,10.63l-8.92,4.24c-8.67,1.36-15.42,8.84-24.09,10.22-3,.48-6,.19-9.07.37-4,.24-7.87,1.29-11.83,1.83a93.71,93.71,0,0,1-9.48.63c-10,.32-19.92.63-29.87.31-3.22-.1-6.44-.28-9.65-.08-4.1.25-8.14,1.1-12.21,1.63a77.62,77.62,0,0,1-12.66.62l-12.63-3.11-10.77-.36c-7.68-.25-15.47-.5-23,1.24-2.69.63-5.33,1.51-8,2a55.55,55.55,0,0,1-7.74.59l-13.48.38a40.6,40.6,0,0,1-9.29-.44l-8.39-3.08c-23.84,3.35-47.32,8.86-70.76,14.35-3.94.93-7.89,1.85-11.74,3.14a85.85,85.85,0,0,0-12,5.21,125.56,125.56,0,0,0-15.66,9.6c-2.54,1.82-5.08,3.82-6.52,6.58,3.16,1.77,7,1.66,10.61,1.55a332.4,332.4,0,0,1,64.72,4.4c10.92,1.83,21.86,4.22,32.93,3.87l10.89-1.45c3,.72,6-1.53,9-.91,1.56.32,2.86,1.38,4.34,2,3.45,1.35,7.29,0,11-.25a5.69,5.69,0,0,1,2.36.23c1.54.59,2.4,2.18,3.38,3.51,2.9,4,7.6,6.09,12.08,8.06l13.18,10.08c17.5,15.45,42.13,19.13,65.28,22.09s47.78,6.48,65.46,21.72l7.88,1.82a98.37,98.37,0,0,0,14.56.29c.69,0,1.37-.12,2.05-.2l4.1-2.4a143.12,143.12,0,0,0,21.7,9.94l6.28,6.36c4.75,9.22,14.57,14.83,24.52,17.75s20.42,3.69,30.51,6.11c7,1.67,13.73,4.12,20.78,5.36,6.64,1.16,13.4,1.23,20.14,1.29l44.34.42,5,10.43c8.76,17.65,4.56,39.93,14.56,56.91a21.73,21.73,0,0,1,2.2,4.22,16.76,16.76,0,0,1,.53,5.48c-.15,8.2-.66,16.38-1.17,24.57-.12,1.89-.3,3.92-1.55,5.34l-2.18,4.87c-.7,11.89,1.15,24.16-2.54,35.48a7.38,7.38,0,0,1-1.38,2.72c-.92,1-2.36,1.58-3,2.82l-.32,4.17C734.1,2409.48,728,2466,727.35,2522.73c-.09,8.06,0,16.54,4.06,23.53a23.6,23.6,0,0,0,18,11.52c6.85.64,13.72-1.82,19.43-5.68s10.38-9,14.78-14.31a109.26,109.26,0,0,0,9.88-13.49,119.4,119.4,0,0,0,8.21-17.38,84.65,84.65,0,0,0,5.27-16.71c1-5.72,1-11.56.9-17.37q-.29-28.15-.58-56.32l-1.72-7.32c0-12.64-3-25.14-2.81-37.77a64.06,64.06,0,0,0-.13-9.7,7,7,0,0,0-.65-2.33,16.44,16.44,0,0,0-1.76-2.25c-3-3.84-1.88-9.38-.14-13.91s4-9.28,3-14l-2.47-13.35c-.44-1.77-1.94-3.11-2.49-4.85a10.15,10.15,0,0,1-.29-3.11q.12-7.68.22-15.35a18.27,18.27,0,0,1,.7-5.71c1.36-3.92,5.33-6.71,6-10.82l6.88-7.61a402.68,402.68,0,0,1,2.91-63.72c.48-3.77,1.19-7.89,4.08-10.37s7-2.54,10.8-2.77a82.87,82.87,0,0,0,59.29-30.83l13.06-23.88a5.46,5.46,0,0,0,4.13-8,3.68,3.68,0,0,1-.64-1.6,2.63,2.63,0,0,1,.77-1.58,11.16,11.16,0,0,1,4.27-3.76c1.11-.44,2.38-.54,3.35-1.24a6.46,6.46,0,0,0,1.55-1.92,40.81,40.81,0,0,1,6.53-8.47,16.36,16.36,0,0,1,9.47-4.61l11.92.42a75.63,75.63,0,0,0,29.4-15.34l13.18-7.24c12.43-7.27,23.55-18.5,37.9-19.7,11-.92,21.44,4.35,32.27,6.44a67.9,67.9,0,0,0,25-.19,17.94,17.94,0,0,0,7.32-2.62c2.13-1.52,3.66-4.13,3.2-6.7-1-5.45-9.33-6.74-10.74-12.09-1.18-4.47,3.21-8.34,7.22-10.63,16.55-9.48,35.72-14,51.48-24.72l6.44-27.25c6.32-2.6,11.12-8.81,17.91-9.61,2.4-.29,4.84.15,7.24-.17,5-.67,9.53-4.55,14.43-3.51a24.1,24.1,0,0,0-19.11-9c-3.5.08-6.93.93-10.42,1.26a69,69,0,0,1-13.08-.43,47.48,47.48,0,0,1-9-1.48c-7.59-2.28-14.39-8.44-22.25-7.46l-18.57-.61L1061,1962.5c-7.8,1.81-15.61,3.63-23.51,4.91-16.21,2.63-32.7,3-49.13,2.95a38.48,38.48,0,0,1-11-1.12c-5-1.51-9.18-4.94-13.21-8.29-7.78-6.47-15.86-13.08-25.54-16.06-8.35-2.56-17.26-2.22-26-2.54s-17.85-1.46-25-6.46l-1.63-6.05a15.79,15.79,0,0,1,5.79-7.93,59.71,59.71,0,0,1,8.57-5.12c6.95-3.75,13.69-8.15,18.85-14.12,2.29-2.65,4.3-5.75,4.62-9.23.22-2.36-.35-4.71-.54-7.08a10.29,10.29,0,0,0-.61-3.63,7.71,7.71,0,0,0-3.47-3.15,38.63,38.63,0,0,0-16.61-4.78l-8-2.48c-4-2.49-8.89-2.68-13.45-3.73-2.14-.5-4.22-1.19-6.3-1.88l-15.1-5c4.67-2.2,9.78-4.27,14.86-3.34,3.14.59,6.11,2.3,9.3,2.1a11.59,11.59,0,0,0,6.86-3.34c1.92-1.74,3.51-3.82,5.34-5.66a29.87,29.87,0,0,1,10.23-6.68,2.7,2.7,0,0,0,1.64-1.19,1.93,1.93,0,0,0,.13-.76c0-2.22-2-4.06-4.1-4.65a13.46,13.46,0,0,0-6.57.3,69.25,69.25,0,0,0-11.15,3.57,32.45,32.45,0,0,1-5.21,1.89c-3.35.76-6.86.17-10.26.66l.37-1a16.56,16.56,0,0,0,4.41-10.69,5.17,5.17,0,0,0,4.29-1.31,40.25,40.25,0,0,1,3.57-3c2.53-1.53,5.79-1.42,8.35-2.9,4-2.31,5-7.51,7.28-11.47,1.38-2.35,3.31-4.33,4.87-6.56a50.44,50.44,0,0,0,4.61-8.91l4.44-5.85a125.92,125.92,0,0,1,62.43-14.51c33.79,1,66.54,15.65,100.26,13.23,6.33-.45,12.74-1.55,18.33-4.54s10.31-8.12,11.58-14.34-1.57-13.38-7.33-16l-4.48-11.88a179.5,179.5,0,0,1-58.62-38.29c-8.93-8.76-17-18.59-22.3-29.94-7.59-16.31-8.94-34.76-9.44-52.74-.67-24.28.2-49.46,10.7-71.37,11.61-24.23,33.77-41.78,57.07-55.14s48.43-23.46,71.13-37.83c12.68-8,25.91-20.72,23-35.43-1.71-8.58-8.54-15-14.6-21.32a182.31,182.31,0,0,1-30.57-42.83l-1.92-22.06a48.24,48.24,0,0,1-26.36-28.32c-8.65-25.18,4.68-52,8.76-78.31,3.93-25.32-.88-51.16-7.17-76-3.51-13.82-6.7-30.66,3.59-40.53,4.38-4.2,10.39-6.13,16.09-8.21,7.73-2.81,15.45-6.25,21.34-12s9.71-14.17,8-22.22c-.82-4-2.88-7.56-4-11.45-3.32-11.12,1-22.91,1.79-34.49.52-7.93-.68-15.85-1.88-23.71l-9.81-64.41,10-16.1q-1.62-25.38-3.23-50.75c-.77-12.08-1.29-25.15,5.45-35.21,12.67-18.89,43.85-17.31,56.47-36.22,7-10.5,5.54-25.83-3.31-34.81-4-4-9.08-6.77-13-10.79-9.57-9.72-10.66-24.75-10.5-38.38a408.91,408.91,0,0,1,5.87-64.39c.92-5.32,2-10.85,5.37-15.09,3-3.88,7.57-6.22,11.52-9.16,15.64-11.67,21.75-33,19.65-52.38s-11.16-37.33-21-54.17l8.81-19.09c-1.09-23.77,24.15-39,36.7-59.25C1249.72,422.54,1249.46,397.24,1245.17,374.2ZM796.9,1635c-2.17-5.27-1.26-11.23-1.65-16.91l.24-1.6a18.83,18.83,0,0,1,8.75,4.22,2.38,2.38,0,0,1,.62.72,2.42,2.42,0,0,1,.16,1q.11,11.41.22,22.82C802,1642.25,798.6,1639.1,796.9,1635Zm47.51,231.22a31.77,31.77,0,0,1-3.54,2.88,15.67,15.67,0,0,0-4.53,6.06c-2.39-6.88-5.43-14-11.4-18.2a11.47,11.47,0,0,1-2.77-2.26,8.93,8.93,0,0,1-1.27-3c-.46-1.67-.93-3.35-1.4-5l1.15-5.94a24.75,24.75,0,0,1,5.68-14.87,47.29,47.29,0,0,1,12.3-10.44,1.94,1.94,0,0,1,.9-.38,1.73,1.73,0,0,1,1.1.4,6.77,6.77,0,0,1,2.52,4.77,21.84,21.84,0,0,1-.33,5.52,183.19,183.19,0,0,0-1.71,29.51,10.39,10.39,0,0,0,.83,4.63,3.75,3.75,0,0,0,3.84,2.19A4.63,4.63,0,0,1,844.41,1866.2Z"></path>
    <path data-name="1a" data-official="" data-plain="Calyx and Pistil" data-loc="" d="M1115.43,2411.21a126.51,126.51,0,0,0-3.58-31.43c-.73-3-1.65-6.14-3.81-8.38-3.75-3.89-9.85-3.88-15.25-4-9.07-.24-18.36-1.76-26.12-6.45a13.16,13.16,0,0,1-5.43-5.33c-2.81-6,2.73-12.88,8.84-15.5s13.14-3,18.77-6.53a7.33,7.33,0,0,0,2.81-2.77c2.24-4.53-3.68-8.67-5.48-13.39-1.61-4.23.51-9.28,4.21-11.88s8.59-3.06,13-2.17c1.79.36,3.64.92,5.41.48,4-1,5-6.07,5.52-10.16,1.25-10.77,4-21.69,10.39-30.46s17-15,27.82-13.82a10.68,10.68,0,0,1,6.41,2.53c2.83,2.78,2.65,7.4,1.55,11.21s-2.94,7.54-2.77,11.5c.16,3.52,1.89,6.75,3.58,9.85l12.39,22.65c1.43,2.61,2.92,5.29,5.23,7.15,5.39,4.33,13.14,2.93,20.06,3a43,43,0,0,1,22.37,6.49c4.56,2.85,8.94,7.42,8.47,12.78-.57,6.6-7.83,10.27-14.23,12-1.31.35-2.78.79-3.43,2a4,4,0,0,0-.26,2.53c1.28,7.55,11.48,13.18,8.77,20.34-2.34,6.17-11.44,5.38-16.86,9.13-5.24,3.62-6.22,10.82-6.72,17.17l-3.3,41.27c-1.44,18.06-2.88,36.35.21,54.2,2,11.43,5.46,24.41-1.49,33.7-6.23,8.32-18,9.6-28.37,10.17l-19.55,1.07c-4.32.24-8.77.45-12.83-1-8.32-3.06-12.64-12.58-13-21.45s2.28-17.54,3.57-26.31c3.08-21-1.66-42.3-6.38-63Z"></path>
    <path data-name="1b" data-official="" data-plain="Calyx and Stamens" data-loc="" d="M1264,2346.8c-10.35-7.1-14-22.4-8-33.42,3.14-5.76,8.38-10.11,13.89-13.68,24.26-15.71,54.48-18.42,83.35-19.83,21.49-1,43.2-1.6,64.35,2.34s41.93,12.71,57,28.05c6.29,6.4,11.63,14.12,13.34,22.93,3.24,16.62-6.71,32.55-14.48,47.6-2.77,5.36-4.63,13.29.61,16.27,3.75,2.14,10.1.81,11.31,5,.48,1.63-.27,3.36-1.11,4.83-9.87,17.28-32.66,21.36-48.75,33.08-7.12,5.18-12.94,11.92-18.69,18.59-5.57,6.47-11.38,13.46-12.47,21.93-.55,4.36.2,8.88-.89,13.15-2,7.93-9.9,13.22-12.37,21-2.21,7-.15,15.79-5.51,20.76-2.61,2.43-6.34,3.16-9.87,3.69a199.69,199.69,0,0,1-56.94.4c-3.79-.52-8-1.43-10.11-4.63-3.84-5.87,2.41-13,4-19.79,2.36-10-5.57-19.1-10.73-28-6.63-11.43-9.08-24.81-14.76-36.74-8.5-17.84-23.71-31.46-39-43.91-6-4.87-12.32-9.94-15.34-17.05s-1.31-16.88,5.67-20.18c4.66-2.2,10.19-1,15.2-2.19s9.6-7.49,6-11.18Z"></path>
    <path data-name="1c" data-official="" data-plain="Pistil" data-loc="" d="M1497.86,2471.27c-10.06-10.93-20.9-24.68-17.06-39,2.07-7.76,8.19-13.91,10.51-21.6,2-6.55,1-13.57,1.32-20.41.59-14.51,6.69-28.17,9.89-42.34,5.42-23.91,2.56-49.28,9.39-72.83,5.13-17.71,15.69-34.24,16-52.68.19-12.5-4.12-26.39,3-36.64,6.7-9.61,21-11,31.87-6.73,2.5,1,5,2.27,6.59,4.43a14.88,14.88,0,0,1,2.28,6.26,46.26,46.26,0,0,1-.24,18.46c-1.22,5.28-3.52,10.23-5.58,15.23-5.37,13-9.29,26.48-13.2,40-10.75,37.09-21.58,76.3-12.28,113.78,4.65,18.75,14.14,36,19.21,54.63,5.44,20,5.61,41.08,5.75,61.84,0,5.49,0,11.21-2.39,16.14-4.64,9.48-16.33,12.9-26.8,14.18a146.35,146.35,0,0,1-21.95,1c-5.53-.16-11.41-.78-15.71-4.25-4.69-3.77-6.48-10.25-6-16.25s2.77-11.67,5.08-17.23Z"></path>
    <path data-name="1d" data-official="" data-plain="Section of Seed-vessel" data-loc="" d="M1589.06,2444.24c-4.91-9.89-9.39-20.25-10.43-31.25s1.82-22.84,9.77-30.5a43.73,43.73,0,0,1,11.31-7.47c21.42-10.45,46.07-12.14,69.88-11,7.37.35,14.78.95,21.9,2.89,10.18,2.76,19.72,8.37,26.29,16.6s10,19.18,8.21,29.57c-3.23,19-21.77,31.68-28.71,49.66-5,12.88-3.57,27.3-6.53,40.79-.87,4-2.29,8.11-5.52,10.59a19,19,0,0,1-6.6,2.85,176.31,176.31,0,0,1-61.67,6c-2.56-.21-5.32-.56-7.18-2.33a10,10,0,0,1-2.51-5.37,32.68,32.68,0,0,1,.67-15.78c.75-2.55,1.82-5,2-7.68.5-7.37-5.7-13.18-10.44-18.84a59.42,59.42,0,0,1-9.6-16Z"></path>
    <path data-name="2" data-official="Peplis Portula" data-plain="Water Purslane" data-loc="England" d="M820.78,2262.17c24.2,2.08,47.64,9.9,71.85,11.78,8,.63,16.19.59,24.12,2.11s15.85,4.77,21.18,10.84c6.44,7.33,8.2,17.56,9.33,27.25a381.59,381.59,0,0,1,.55,83.37c-.81,7.75-1.87,15.57-4.71,22.82s-7.66,14-14.47,17.77c-5.89,3.27-12.78,4.14-19.5,4.55s-14.12.07-18.47-4.9c-3.66-4.19-4.15-10.78-8.58-14.15-3.92-3-9.54-2.27-14.09-.39s-8.71,4.78-13.48,6c-7.46,1.85-15.37-.77-21.9-4.82s-12.09-9.45-18.29-14l-8.78-1.19c0-12.64-3-25.14-2.81-37.77a64.06,64.06,0,0,0-.13-9.7,7,7,0,0,0-.65-2.33,16.44,16.44,0,0,0-1.76-2.25c-3-3.84-1.88-9.38-.14-13.91s4-9.28,3-14l-2.47-13.35c-.44-1.77-1.94-3.11-2.49-4.85a10.15,10.15,0,0,1-.29-3.11q.12-7.68.22-15.35a18.27,18.27,0,0,1,.7-5.71c1.36-3.92,5.33-6.71,6-10.82l6.88-7.61ZM326.27,2103.11c-2.42,22.71-21.06,40.54-41.21,51.31s-42.65,16.62-62.63,27.69a135.09,135.09,0,0,0-38.93,32.51,42.23,42.23,0,0,0-7.1,11.23c-5.71,14.69,4.1,31.92,18.09,39.18s30.68,6.76,46.27,4.42,31.12-6.34,46.85-5.45a97.31,97.31,0,0,1,27.79,6.12c8.33,3,16.57,7.05,22.62,13.54s9.41,14.86,14.18,22.29,11.9,14.38,20.72,14.84l11.23,6.57c.58,18.29,2.65,36.71,8.63,54s16.06,33.51,30.59,44.64c19.93,15.29,45.93,19.67,70.85,22.92,12,1.57,24.12,3,36.19,2.06,25.47-2,48.87-14.16,71.45-26.1,24.07-12.74,48.79-26,66.26-46.88,5-6,10.08-13,17.73-14.35,4.94-.88,9.93.83,14.65,2.52l23.94,8.57,12.85,5.34q1.44-13.52,2.9-27l.32-4.17c.59-1.24,2-1.8,3-2.82a7.38,7.38,0,0,0,1.38-2.72c3.69-11.32,1.84-23.59,2.54-35.48l2.18-4.87c1.25-1.42,1.43-3.45,1.55-5.34.51-8.19,1-16.37,1.17-24.57a16.76,16.76,0,0,0-.53-5.48,21.73,21.73,0,0,0-2.2-4.22c-10-17-5.8-39.26-14.56-56.91l-5-10.43-44.34-.42c-6.74-.06-13.5-.13-20.14-1.29-7-1.24-13.82-3.69-20.78-5.36-10.09-2.42-20.56-3.18-30.51-6.11s-19.77-8.53-24.52-17.75l-6.28-6.36a143.12,143.12,0,0,1-21.7-9.94l-4.1,2.4c-.68.08-1.36.15-2.05.2a98.37,98.37,0,0,1-14.56-.29l-7.88-1.82c-17.68-15.24-42.3-18.76-65.46-21.72s-47.78-6.64-65.28-22.09l-13.18-10.08c-4.48-2-9.18-4.11-12.08-8.06-1-1.33-1.84-2.92-3.38-3.51a5.69,5.69,0,0,0-2.36-.23c-3.7.25-7.54,1.6-11,.25-1.48-.59-2.78-1.65-4.34-2-3-.62-6.06,1.63-9,.91l-10.89,1.45Zm-64.19-50.05c3.85-1.29,7.8-2.21,11.74-3.14,23.44-5.49,46.92-11,70.76-14.35l8.39,3.08a40.6,40.6,0,0,0,9.29.44l13.48-.38a55.55,55.55,0,0,0,7.74-.59c2.72-.47,5.36-1.35,8-2,7.49-1.74,15.28-1.49,23-1.24l10.77.36,12.63,3.11a77.62,77.62,0,0,0,12.66-.62c4.07-.53,8.11-1.38,12.21-1.63,3.21-.2,6.43,0,9.65.08,9.95.32,19.91,0,29.87-.31a93.71,93.71,0,0,0,9.48-.63c4-.54,7.85-1.59,11.83-1.83,3-.18,6.08.11,9.07-.37,8.67-1.38,15.42-8.86,24.09-10.22l-.8-8.29a123.46,123.46,0,0,0-68.1-40.44c-10.62-2.23-21.5-3-32.15-5.14s-21.31-5.67-29.64-12.62a13.49,13.49,0,0,1-3.75-4.36c-2.74-5.78,2-12.1,6.09-17,9.1-11.11,16.17-24.13,18.92-38.22s.91-29.33-6.52-41.62c-3.14-5.2-7.19-9.79-10.59-14.83s-6.18-10.76-6.27-16.84,3.07-12.5,8.71-14.76l4.28-2.28q1.41-4.77,3.26-9.38a16.42,16.42,0,0,1,3-5.24c1.77-1.88,4.24-2.89,6.56-4,6.88-3.38,13.12-8.56,16.45-15.47,4.89-10.16,2.37-23.31-5.74-31.15a44.14,44.14,0,0,0-6.42-5,105.33,105.33,0,0,0-45.34-16.62l-8.34-5.59c-5,1.44-10.34-1.85-12.83-6.37s-2.72-9.92-2.52-15.08a40.76,40.76,0,0,1,2.18-13c2.63-7,8.17-12.38,11.77-18.88,6.54-11.83,6.17-26.12,5.62-39.63-.17-4.38-.36-8.83-1.66-13-3.77-12.15-16.31-19.78-28.84-22s-25.36-.13-38,1c-11.67,1-24.68.82-33.39-7C292,1570.33,292,1553,282.33,1542.36l-6.62-14.88a259.36,259.36,0,0,0-27-20.55,80.41,80.41,0,0,0-11-6.38c-14.19-6.42-31.21-5.37-45.22,1.44-1.71.84-3.7,1.77-5.44,1l-17.21,3.18q-30.83,13.46-60.46,29.44c-11.11,6-22.2,12.34-31.47,20.92-19.27,17.82-29.14,44.23-30.64,70.43s4.74,52.32,13.72,77c5.07,13.92,11.14,27.71,20.46,39.23,20.54,25.39,53.65,36.34,85.05,45.31s64.64,18.1,87.48,41.45c10.84,11.09,18.64,24.76,25.38,38.72,10.46,21.63,18.14,49,3.9,68.35-6.07,8.24-15.25,13.56-24.36,18.24a349.84,349.84,0,0,1-47.95,20.26c-5.14,1.73-10.49,3.44-14.46,7.13-8.12,7.56-7.69,20.32-6.65,31.36.64,6.76,1.53,14.07,6.27,18.93,2.71,2.79,6.39,4.4,10,5.94l31.15,13.49Z"></path>
    <path data-name="2a" data-official="" data-plain="Flower" data-loc="" d="M292.41,2418.79c1.52-11,8.87-20.6,18.21-26.55s20.49-8.55,31.54-9.26a50,50,0,0,1,14.71.87c5.31,1.25,10.23,3.8,14.94,6.58a157.1,157.1,0,0,1,17,11.59c4.17,3.26,8.24,6.79,11.23,11.16,6.21,9,7.2,20.66,6.6,31.61s-2.59,21.9-1.56,32.81c1.25,13.27,6.8,27.33,1,39.31-3.06,6.29-9,10.88-15.44,13.51s-13.55,3.5-20.54,3.83c-14.4.69-28.81-.73-43.16-2.16-2.42-.24-4.92-.5-7-1.71-3.9-2.2-5.51-7-5.89-11.47-.62-7.36,1.23-15-.79-22.06-3-10.53-13.28-16.86-21.94-23.55a23.45,23.45,0,0,1-6.25-6.43c-1.65-2.82-2.18-6.15-2.47-9.4a78.2,78.2,0,0,1,1-21.49Z"></path>
    <path data-name="2b" data-official="" data-plain="Flower, magnified" data-loc="" d="M126.86,2405.3c-3.41-4.21-6.76-8.57-8.81-13.59s-2.66-10.85-.53-15.83c1.56-3.64,4.41-6.54,7.26-9.29,4.71-4.56,9.65-9,15.51-12s12.81-4.26,19.05-2.22c2.3.75,4.45,1.94,6.8,2.54,4.67,1.2,9.58,0,14.25-1.19,16.88-4.22,34.18-7.94,51.55-6.81s35,7.67,46.28,21a63.19,63.19,0,0,1,9.75,16.34c1.82,4.29,3.32,8.91,2.78,13.54-1,8.94-9,15.14-15.15,21.7-13.64,14.53-20.74,35-37,46.63a16.24,16.24,0,0,0-3.68,3.12c-3.12,4.09-.92,9.91,1.13,14.63A144,144,0,0,1,245,2511.9c1.7,8.18,2.3,17.77-3.47,23.81-2.58,2.7-6.09,4.27-9.57,5.62a121,121,0,0,1-44.08,8.12c-5.51,0-11.72-.78-15.12-5.11-3.62-4.61-2.53-11.24-.92-16.87s3.53-11.8,1.12-17.14c-3-6.63-11.43-9.07-15.47-15.13-3.57-5.34-3-12.28-3.85-18.65-2.46-19.29-17.69-34.2-25.8-51.89Z"></path>
    <path data-name="2c" data-official="" data-plain="Section of Seed-vessel" data-loc="" d="M26.14,2452.26c-1.91-12.41-3.67-25.83,2.23-36.9,2-3.77,4.81-7.05,7.2-10.59,3.88-5.74,6.66-12.14,10.2-18.1s8-11.64,14.22-14.78,14.32-3.15,19.53,1.43c6.1,5.37,6.36,14.74,10.5,21.74,4.48,7.57,13.15,11.79,18.11,19.06s5.58,16.46,6.05,25.2c.32,6.11.63,12.32-.8,18.27-1.33,5.53-4.12,10.65-5.15,16.24-1.28,7,.31,14.22.7,21.35a14,14,0,0,1-.61,5.91c-1.51,3.82-5.66,5.78-9.51,7.21A134.52,134.52,0,0,1,49,2516.68c-5.17-.12-10.71-.68-14.67-4-5.28-4.42-6-12.16-6-19,.08-10.41,1.05-21.08-2.06-31Z"></path>
    <path data-name="3" data-official="Lagerstrœmia indica" data-plain="Indian Lagerstrœmia" data-loc="East Indies" d="M1589.14,1969c-16,10.17-31.8,21.22-43.66,36s-19.47,33.9-16.8,52.66c2.81,19.8,16.62,37.89,14.39,57.77-1.26,11.26-7.58,21.27-14.29,30.4-49.85,67.8-132.28,110.46-216.43,112-63.57,1.17-125.18-19.57-187.55-31.94-5.81-1.15-11.85-2.23-17.62-.85-9.73,2.32-16.49,11-21.85,19.44-39.87,62.85-46,140.86-72.73,210.31-6.49,16.84-16.44,35.11-34,39.24-13,3-27.56-3.69-33.65-15.52s-3.11-27.62,6.89-36.4l-8.74-21.75c2.84-7.25,3.9-15.07,4.71-22.82a381.59,381.59,0,0,0-.55-83.37l20.62-1.35c4.17-22.85,14.84-44,25.85-64.4a1511.69,1511.69,0,0,1,159-238.23l-7-24.14c6.32-2.6,11.12-8.81,17.91-9.61,2.4-.29,4.84.15,7.24-.17,5-.67,9.53-4.55,14.43-3.51a24.1,24.1,0,0,0-19.11-9c-3.5.08-6.93.93-10.42,1.26a69,69,0,0,1-13.08-.43,47.48,47.48,0,0,1-9-1.48c-7.59-2.28-14.39-8.44-22.25-7.46l-7-8.45c-9-8.25-14.21-19.88-16.82-31.77s-2.76-24.16-2.91-36.34c-.29-24.69-.58-49.54,3.62-73.87l5.64-18.16c5.6-3,10.31-8.12,11.58-14.34s-1.57-13.38-7.33-16l-4.48-11.88,4.53-22.12c1.63-7.13-.32-14.51-1.14-21.78s-.11-15.55,5.37-20.39c6.81-6,17.21-3.91,26.12-2.2a161.51,161.51,0,0,0,71.17-2.39c4.57-1.19,9.27-2.7,12.63-6s4.86-7.82,6.26-12.23c13.66-43,22.59-90.21,54-122.56,13.74-14.14,32.34-26.65,35-46.18.94-6.93-.36-14-2.53-20.66-6.91-21.16-22.15-38.35-35.37-56.26a348.15,348.15,0,0,1-32-52.43l-13.1-22c-43.5-52.42-62.94-124-51.89-191.27,2.66-16.14,7-32,8.5-48.32,3.1-33.22-5.32-68.19,6.79-99.29,11.69-30,40.64-50.9,51.53-81.2,12-33.55-.5-70.27-3.6-105.79a198.59,198.59,0,0,1,20-105.21l2.44-19.47c5.52-14.48-7.16-28.79-12.81-43.22-5.55-14.2-4.17-30.36.73-44.79s13.07-27.5,21.17-40.41l25.26-40.27c6.29-10,12.74-20.24,21.85-27.8,10.7-8.89,24.25-13.45,37.56-17.49,20.78-6.31,43.1-11.79,63.93-5.67,20,5.87,35.67,21.62,55.17,28.93,13.58,5.09,28.38,5.84,42.88,5.62,55.2-.87,113-14.71,164,6.52,51.92,21.62,83,74,110.52,123.08l1.69,28.61-6.13,41.28c-1.9,12.81-3.8,25.89-1.51,38.64,2.69,15,11,28.61,13.12,43.7,2.22,16.06-2.65,33.43,4.35,48,4.09,8.54,11.66,14.77,18.45,21.35,27.72,26.84,45.13,63.4,51.67,101.42S1873,1032,1862.1,1069c-4,13.54-8.92,27-9.61,41.11-.56,11.54,1.77,23.19,0,34.61-2.48,16.22-12.76,30-20.59,44.37s-13.29,32.28-5.82,46.88l3.32,13.17c-4.06,26.61-27.69,45-44.09,66.33a137,137,0,0,0-25.7,56.87c-1.05,5.33-1.66,11.29,1.37,15.8,2.54,3.79,7.06,5.65,11.3,7.36,31.65,12.78,63.54,30.18,81.21,59.38,8.82,14.56,13.53,31.19,17.69,47.69,3.2,12.75,6.16,25.92,4.34,38.94-3.11,22.26-19.59,40.28-37.22,54.22-8.82,7-18.62,14-22.44,24.52-2,5.56-2.15,11.61-2.26,17.52l-.7,37.54-4.07,21c-2.9,12.37-6.8,24.58-12.68,35.84-9.42,18-23.58,33.08-36.37,48.92-47.24,58.53-78.79,132-140.58,174.9Z"></path>
    <path data-name="4" data-official="Cuphea tubiflora" data-plain="Tubular-flowered Cuphea" data-loc="South America" d="M796.9,1635c-2.17-5.27-1.26-11.23-1.65-16.91l.24-1.6a18.83,18.83,0,0,1,8.75,4.22,2.38,2.38,0,0,1,.62.72,2.42,2.42,0,0,1,.16,1q.11,11.41.22,22.82C802,1642.25,798.6,1639.1,796.9,1635Zm47.51,231.22a31.77,31.77,0,0,1-3.54,2.88,15.67,15.67,0,0,0-4.53,6.06c-2.39-6.88-5.43-14-11.4-18.2a11.47,11.47,0,0,1-2.77-2.26,8.93,8.93,0,0,1-1.27-3c-.46-1.67-.93-3.35-1.4-5l1.15-5.94a24.75,24.75,0,0,1,5.68-14.87,47.29,47.29,0,0,1,12.3-10.44,1.94,1.94,0,0,1,.9-.38,1.73,1.73,0,0,1,1.1.4,6.77,6.77,0,0,1,2.52,4.77,21.84,21.84,0,0,1-.33,5.52,183.19,183.19,0,0,0-1.71,29.51,10.39,10.39,0,0,0,.83,4.63,3.75,3.75,0,0,0,3.84,2.19A4.63,4.63,0,0,1,844.41,1866.2Zm148.87,367.07a354.87,354.87,0,0,0-54.58-118.7l-7.52-8.92a16.36,16.36,0,0,0-9.47,4.61,40.81,40.81,0,0,0-6.53,8.47,6.46,6.46,0,0,1-1.55,1.92c-1,.7-2.24.8-3.35,1.24a11.16,11.16,0,0,0-4.27,3.76,2.63,2.63,0,0,0-.77,1.58,3.68,3.68,0,0,0,.64,1.6,5.46,5.46,0,0,1-4.13,8l-13.06,23.88,8.93,1.61c8.37,25.51,16.82,51.56,16.86,78.41a163.22,163.22,0,0,1-2.22,25.92l4.49,9.39c7.94,1.51,15.85,4.77,21.18,10.84l9.66-2.91a83.19,83.19,0,0,1,18.17-1.38l11.28-.05a363,363,0,0,1,16.69-34.16Zm-44-452.9A125.74,125.74,0,0,0,913,1792.91l-4.44,5.85a50.44,50.44,0,0,1-4.61,8.91c-1.56,2.23-3.49,4.21-4.87,6.56-2.33,4-3.3,9.16-7.28,11.47-2.56,1.48-5.82,1.37-8.35,2.9a40.25,40.25,0,0,0-3.57,3,5.17,5.17,0,0,1-4.29,1.31,16.56,16.56,0,0,1-4.41,10.69l-.37,1c3.4-.49,6.91.1,10.26-.66a32.45,32.45,0,0,0,5.21-1.89,69.25,69.25,0,0,1,11.15-3.57,13.46,13.46,0,0,1,6.57-.3c2.14.59,4.09,2.43,4.1,4.65a1.93,1.93,0,0,1-.13.76,2.7,2.7,0,0,1-1.64,1.19,29.87,29.87,0,0,0-10.23,6.68c-1.83,1.84-3.42,3.92-5.34,5.66a11.59,11.59,0,0,1-6.86,3.34c-3.19.2-6.16-1.51-9.3-2.1-5.08-.93-10.19,1.14-14.86,3.34l15.1,5c2.08.69,4.16,1.38,6.3,1.88,4.56,1.05,9.48,1.24,13.45,3.73l8,2.48a38.63,38.63,0,0,1,16.61,4.78,7.71,7.71,0,0,1,3.47,3.15,10.29,10.29,0,0,1,.61,3.63c.19,2.37.76,4.72.54,7.08l8.14,3a276.91,276.91,0,0,1,46,8.88c6.59,1.87,13.71,4.45,17.09,10.41a19.07,19.07,0,0,1,2.19,8.88c.42,13.9-8.73,26.46-19.68,35l-.17,9.59a38.48,38.48,0,0,0,11,1.12c16.43.05,32.92-.32,49.13-2.95,7.9-1.28,15.71-3.1,23.51-4.91l-2.84-5.1c4.37-6.57,8.8-13.25,11.15-20.78,2.27-7.26,2.5-15,2.71-22.59a168,168,0,0,0-.2-19c-1.91-22.09-12.54-42.58-25.7-60.41-6.69-9-14.25-17.74-23.89-23.53a106.64,106.64,0,0,0-15.49-7.17l-44.36-17.73ZM169.75,1506.16,187,1503c1.74.78,3.73-.15,5.44-1,14-6.81,31-7.86,45.22-1.44a80.41,80.41,0,0,1,11,6.38,259.36,259.36,0,0,1,27,20.55l6.62,14.88c9.64,10.66,9.64,28,20.32,37.58,8.71,7.84,21.72,8.06,33.39,7,12.67-1.13,25.5-3.22,38-1s25.07,9.84,28.84,22c1.3,4.19,1.49,8.64,1.66,13,.55,13.51.92,27.8-5.62,39.63-3.6,6.5-9.14,11.93-11.77,18.88a40.76,40.76,0,0,0-2.18,13c-.2,5.16,0,10.56,2.52,15.08s7.87,7.81,12.83,6.37l8.34,5.59A105.33,105.33,0,0,1,454,1736.17a44.14,44.14,0,0,1,6.42,5c8.11,7.84,10.63,21,5.74,31.15-3.33,6.91-9.57,12.09-16.45,15.47-2.32,1.13-4.79,2.14-6.56,4a16.42,16.42,0,0,0-3,5.24q-1.85,4.6-3.26,9.38l-4.28,2.28c-5.64,2.26-8.81,8.69-8.71,14.76s2.88,11.8,6.27,16.84,7.45,9.63,10.59,14.83c7.43,12.29,9.27,27.52,6.52,41.62s-9.82,27.11-18.92,38.22c-4.06,5-8.83,11.27-6.09,17a13.49,13.49,0,0,0,3.75,4.36c8.33,7,19,10.51,29.64,12.62l-.19-9.12a42.13,42.13,0,0,1,14-7.09c14.24-4.43,29.57-3.88,44.33-1.8s29.32,5.65,44.16,7.15c13.46,1.35,27,1,40.54.61,8.35-.23,16.75-.48,24.93-2.2,11-2.31,21.27-7.24,31.31-12.32,8.59-4.34,17.17-8.87,24.63-15,5.76-4.69,11-10.42,18.11-12.72l11.76-6.23.86-11.5q1.08-6.49,2.15-13c.56-3.39,1-7.29-1.29-9.86-1.5-1.71-3.94-2.46-5.26-4.32a10,10,0,0,1-1.37-4.44c-.3-2.08-.6-4.17-.89-6.25a11.62,11.62,0,0,0-.74-3.09c-1.09-2.49-3.71-3.87-5.65-5.78A17.29,17.29,0,0,1,692.5,1842a52.26,52.26,0,0,1,.1-11.25l3.47-4.24c3.36-5.65,3.8-12.68,2.48-19.12s-4.26-12.43-7.35-18.24-6.36-11.56-8.43-17.8c-2.55-7.68-3.22-15.92-6.18-23.44l-4.57-9.67a212,212,0,0,0-28.8-39.82l-10-9.34c-9.46-1.13-18.9-3.58-27.06-8.49-3.33-2-6.41-4.39-9.67-6.5a1.86,1.86,0,0,0-.91-.37,2,2,0,0,0-1.07.4,21.65,21.65,0,0,1-6.51,2.62l-5.19,5.38c-8.31,5.36-18.86,6.46-28.59,4.69s-18.78-6.17-27.31-11.17c-3.21-1.88-6.38-3.85-9.75-5.41-3.85-1.77-7.94-3-11.74-4.86a12.2,12.2,0,0,1-3.78-2.58,5.26,5.26,0,0,1-1.48-4.21c.34-2.26,2.5-3.78,4.58-4.75,5.66-2.62,12-3.16,18.27-3.34a286.74,286.74,0,0,1,34.54,1.53l7.83,3.26a57.12,57.12,0,0,1,12,1.79c1.37.4,2.71.91,4.1,1.21a27.62,27.62,0,0,0,4.44.45q15.24.69,30.5.74l1.71-20.74c4.13,0,7.41-3.87,8.27-7.91s-.09-8.22-.82-12.29a121.22,121.22,0,0,1-1.74-14.48,8.94,8.94,0,0,1,.76-5.13,6.71,6.71,0,0,1,3.15-2.52c4.15-1.83,9-1.26,13.23.5s7.78,4.63,11.33,7.45l26.64,21.2,9.7,3c5.71,1.53,11.85,2.7,17.42.74a14.37,14.37,0,0,1,4.15-1.2,5.14,5.14,0,0,1,5,3.63,11.72,11.72,0,0,0,.35,1.29c.62,1.62,2.48,2.34,4.13,2.88l1.88.62c3.18-.29,6.56-.21,9.34,1.38.68.39,1.31.86,2,1.28,4.67,3,10.55,3.15,16.07,2.71l2.33-1.17a9.3,9.3,0,0,0-.48-5.45,30.85,30.85,0,0,0-7-11.71,16,16,0,0,1,5.18,3c1.29,1.11,2.4,2.42,3.74,3.47a6.56,6.56,0,0,0,4.7,1.62.46.46,0,0,0,.29-.11.49.49,0,0,0,.09-.36,14.79,14.79,0,0,0-6.45-11.68,6.51,6.51,0,0,1,5.15.21,12.81,12.81,0,0,1,4.16,3.23c2,2.16,3.61,4.82,3.69,7.74a4,4,0,0,0,1.18-3.86c-.45-1.82-2.09-3.06-3.23-4.55-2-2.68-2.45-6.33-1.86-9.64a4.72,4.72,0,0,1,1.56-3.12c1-.7,2.63-.47,3,.67-.6.14-.79.89-.84,1.5a25.65,25.65,0,0,0,0,3.92,1.32,1.32,0,0,0,.25.81.69.69,0,0,0,1.13-.59,29.93,29.93,0,0,0,3.85,6.73,8.15,8.15,0,0,0,2.23,2.19,3.36,3.36,0,0,0,3,.34.57.57,0,0,0,.33-.26.7.7,0,0,0,0-.53c-.4-1.13-.94-2.2-1.37-3.32a18.23,18.23,0,0,1,.52-14c2.33,4.57,4.46,9.26,6.37,14a11.74,11.74,0,0,0,1.31,2.6,3.6,3.6,0,0,0,2.42,1.49l1.1,1.76c-1.8-4.72,1.5-9.91,1-15a2.65,2.65,0,0,0-.39-1.33,3.1,3.1,0,0,0-1.26-.9c-2.09-1-4.24-1.89-6.3-2.95-6.23-3.2-12-8.47-13.24-15.36l-.35-.45c-3.24.27-6.49.39-9.74.34s-6.59-.3-9.28-2.06a12.32,12.32,0,0,1-5-8.22,31.92,31.92,0,0,1,.14-9.85c.42-3.21,1-6.58,3-9.09,1.16-1.42,2.75-2.53,3.47-4.21.87-2,.27-4.41,1-6.49l-1.38-3.48c-2.94,3.71-8,4.85-12.24,6.9-5.36,2.56-9.75,6.75-14.82,9.84a9.94,9.94,0,0,1-4.86,1.79,4.06,4.06,0,0,1-4.09-2.62c-.61-2.2,1.27-4.2,2.39-6.19,1.64-2.89,1.74-6.37,1.79-9.69l.15-8.37a2.06,2.06,0,0,0-.2-1.16,2.7,2.7,0,0,0-1.28-.8,4.3,4.3,0,0,1-2.38-3l-.12.11c-11.4,3.15-23.57,0-34.58-4.31-2.33-.91-4.74-2-6.29-3.91a7.55,7.55,0,0,1-.78-7.91c.89-1.75,2.49-3.2,2.77-5.14a7,7,0,0,0-.42-3.13,28.82,28.82,0,0,0-3.82-7.82l-2.14-5c-3.78-5-9.7-7.9-15.28-10.8a230.8,230.8,0,0,1-27.18-16.63l-8.09-6.5c.33-10.49,8.84-19.1,18.23-23.81s19.92-6.61,29.64-10.58a74.8,74.8,0,0,0,20.59-12.63c2.17-1.87,4.32-4,5.06-6.79,1-3.7-.8-7.53-2.76-10.81a78.26,78.26,0,0,0-32.57-30c-11.82-5.79-24.88-8.48-37.28-12.88s-24.76-11-31.76-22.17l-1.93-9.21a17.37,17.37,0,0,0,5.24-.32,5.78,5.78,0,0,0,3.94-3.21,21.12,21.12,0,0,1,.82-2.63,5.81,5.81,0,0,1,3.12-2.3,52.09,52.09,0,0,1,43.77,2l-.37,2.24-3.67,5.09c2.37-2.68,6-4,9.51-4.48a63,63,0,0,1,10.73.06c11.09.51,23.07-1.13,31.26-8.62l10.68-2.1,19.73-1,9.35.08c1.49.85,3.35.2,4.94-.46L749,1301.8c2.05-.85,4.21-1.79,5.5-3.59s1.27-4.75-.64-5.89a10,10,0,0,0-3.23-.77c-3.16-.6-5.67-3-7.57-5.6s-3.45-5.47-5.71-7.75c-4.12-4.14-10.5-6.12-13.17-11.32l-2.57-4.12c-.48-4.41-.82-9.33,1.92-12.82a17,17,0,0,0,1.35-1.72c.93-1.6.72-3.58.81-5.43a43,43,0,0,1,1.68-8,50.56,50.56,0,0,0-3.61-34.11l-4.28-5.53a12.8,12.8,0,0,1-5.85,2.39,7.24,7.24,0,0,1-5.88-1.92c-1.78-1.82-2.17-4.59-2.06-7.14a15.33,15.33,0,0,1,1-5.23c1.37-3.29,4.2-5.71,6.58-8.37s4.48-6.07,3.87-9.59l.5-5.91c.86-.09.87-1.34.61-2.16-2.27-7.06-6-13.55-9.7-20s-7.47-13-11.2-19.43a92.12,92.12,0,0,1-6.82-13.48,74.89,74.89,0,0,1-3.2-12.08L660.13,1038c-27.4,5.57-53-19.77-59.42-47s.7-55.52,5.41-83.08a489.65,489.65,0,0,0,6-114.26c-1.48-22.71-4.93-46.36-18.17-64.87-13.88-19.42-37.07-30.64-60.63-34.47s-47.67-1-71.19,3C382.51,710.91,305.81,737.8,231,768.21c-28.55,11.61-57.44,24.09-80.5,44.55s-39.7,50.5-36.64,81.17c3.89,39,37.93,71.56,36.2,110.7-1.37,31.22-25.72,59.4-21.57,90.38,2,15.35,10.89,28.78,17.3,42.87,24.59,54.08,10.42,123.26-33.44,163.32-15.37,14-34.08,25-45.71,42.22-16.22,24.07-15.38,56.49-5,83.61s29,50.11,47.35,72.6Z"></path>
</svg>
