
<svg xmlns="http://www.w3.org/2000/svg" viewBox="0 0 2031 2798" id="illustration" preserveAspectRatio="xMidYMid meet">
    <title>Myrtaceæ</title>
    <path data-name="1" data-official="Myrtus communis" data-plain="Common Myrtle" data-loc="Persia and S. Europe" d="M924.74,2502.28c.6,29,7.06,57.59,9.82,86.49q1.25,13.16,1.48,26.39c.28,16.78-1.52,35.47-14,46.7-7.69,6.93-18.73,10.24-24.27,19-3.39,5.36-4.12,11.94-4.33,18.28s0,12.79-1.76,18.87-6,11.9-12.18,13.48c-7.12,1.83-14.79-2.79-18.18-9.32s-3.17-14.39-1.4-21.53,5-13.81,7.49-20.73a106,106,0,0,0,3.34-60.1l-.68-7.66.14-56.2.39-9.35a635.58,635.58,0,0,0,5.75-85.09l.94-4.3c0-3.29,4.42-4.53,6.22-7.28,1.12-1.73,1.12-3.94,1-6-.5-8-2.31-15.89-2.85-23.9-.57-8.41.28-16.85,1.12-25.24l3.59-35.66c7.39,16,14.86,32.06,25.39,46.16,1.79,2.39,3.77,5,3.64,8a22.32,22.32,0,0,1,7-1.28l.73,0a154.17,154.17,0,0,0-1.13,73Zm-42.45-321.15a347.69,347.69,0,0,1,4.48,34.61l1.3,5c3.33,7.13,7.7,15.12,15.42,16.69,3.71.75,8.15,0,10.74,2.8,2,2.17,1.88,5.69.62,8.39s-3.42,4.85-5.22,7.22a18.74,18.74,0,0,1-3.43,3.93,4.61,4.61,0,0,1-4.9.64q-3.54,7.58-6.82,15.25a52.94,52.94,0,0,0-3.31,9.42c-1.1,5.07-.75,10.33-.39,15.51l1.24,17.81.12-1A47.24,47.24,0,0,0,908,2290c.19-1.08.44-2.3,1.38-2.86.53-.32,1.2-.35,1.74-.65,1.79-1,1-3.74-.18-5.4s-2.65-3.81-1.55-5.53c.86-1.32,2.81-1.52,3.75-2.78s.39-3.29.13-5,.44-4,2.15-3.93a5.27,5.27,0,0,1,.93-7.47,16.45,16.45,0,0,0,2.06-1.33c2.14-2.06.39-5.56,0-8.5-1-6.3,4.9-12.53,2.91-18.59l2.69-6.92c.34-10.52,1-21.09-.09-31.56s-4.11-21-10.44-29.41a4.67,4.67,0,0,0-1.53-1.47c-1.18-.58-2.59-.15-3.82.3q-13.11,4.7-26.13,9.6Zm310.86-676.71c-.22,2.9-1.18,5.7-1.62,8.58-.64,4.17-.4,9-3.41,11.92-1.81,1.78-4.56,2.55-5.95,4.67a19.58,19.58,0,0,0-1.51,4c-1.26,3.42-4.15,5.92-6.52,8.68s-4.4,6.42-3.38,9.93l-3.63,3.35c-11.58,4.53-23.91,9.67-30.62,20.12-2.73,4.24-4.41,9.21-7.92,12.82-4,4.08-9.8,5.87-14.07,9.65l-6.82,1.28c-6.11,4.14-12.65,8.44-20,8.73a12.11,12.11,0,0,0-2.42.22,16.59,16.59,0,0,0-2.27.92c-2.53,1-5.37.94-8.1.82-.91,2.87-3.5,5-6.31,6a29.83,29.83,0,0,1-8.88,1.48l-10,.66-.11.72c-.87,16.76,3,34-1.8,50.09-.51,1.7-1.12,3.38-1.74,5-4.31,11.68-9.27,23.64-18.43,32.08l1,.19c6.39-1.66,12.88-3.35,18.5-6.8,6.64-4.09,11.6-10.34,16.43-16.46a17.32,17.32,0,0,0,3-4.88c1-2.77.48-5.81-.09-8.69l4.52.26.35-1.15q-.07-7.32-.14-14.64c2.84-.19,4.91-3,5.16-5.88s-.88-5.58-2.12-8.14-2.62-5.12-3-7.94a11.18,11.18,0,0,1,2.86-8.75,6.84,6.84,0,0,0,4.35,5.65,37.62,37.62,0,0,1,10.24-16.63,7.29,7.29,0,0,1,1.94-1.42,7.67,7.67,0,0,1,3.57-.39,94.25,94.25,0,0,1,11.11,1.29l.47.57c1.72-2.2,4.73-3.57,7.38-2.68a7.12,7.12,0,0,1,4,4.13,18.23,18.23,0,0,1,1.07,5.83l.24,0c2.52,1.1,3.85,3.84,4.7,6.45a38.34,38.34,0,0,1,1.16,18.93,16,16,0,0,1-1.92,5.51,7.54,7.54,0,0,1-4.52,3.49l.07.1a8.47,8.47,0,0,1,5.38,6.34c-3.73-1.92-8.37-1.49-12.14.36a27.13,27.13,0,0,0-9.32,8.32c-2.29,3-4.37,6.41-7.68,8.27a17.29,17.29,0,0,1-8.73,1.79,38.9,38.9,0,0,1-7.76-.84,4.09,4.09,0,0,0-2.08-.08c-.7.24-1.22.86-1.92,1.09s-1.61,0-2.33.32a3.25,3.25,0,0,0-1.22,1.22,120.82,120.82,0,0,1-19.49,21.84l0,.39c5.46.95,11-.89,16.06-3.22s9.89-5.2,15.28-6.48,10.76-.92,16.15-.42c12.36,1.13,24.86,3.16,36,8.64,1.43.71,2.94,1.58,3.58,3s-.21,3.62-1.81,3.65l.91,8.33a165.72,165.72,0,0,0-25.33,14.07l.21,6.34q1.35,8.53,2.71,17.07c.3,1.87.64,3.86,1.89,5.28,1.11,1.27,2.75,1.9,4.17,2.79s2.75,2.37,2.55,4c-.14,1.18-1,2.29-.72,3.43.65,2.4,5,1.22,6.25,3.39.9,1.57-.52,4,.83,5.21.67.61,1.82.61,2.29,1.38s.08,2.11.91,2.54a2.05,2.05,0,0,0,1,.1,4.1,4.1,0,0,1,3.53,5.59c-.66,1.36-2.15,2.7-1.52,4.07a2.76,2.76,0,0,1,4.09,0c2.29,2.82-2.41,7.68,0,10.38l.31,2.72,2.22,11.67c.51,2.68,1.07,5.48,2.79,7.6,2.41,3,7,4.47,7.68,8.22.65,3.38-2.27,7.1-.54,10.08.73,1.26,2.11,2,3.33,2.78a16.38,16.38,0,0,1,7.11,11.67l-1,2.54c-.27,6-.68,12.35-4.3,17.1-2.52,3.3-6.7,6.38-5.9,10.45a11.09,11.09,0,0,0,1.92,3.76,51.81,51.81,0,0,1,8.55,25.15l-1.75,5.48c-5.93-.82-9.87-8.28-15.83-7.71-2.74.26-5.84,2.17-7.93.39-1-.84-1.33-2.27-2.32-3.1-1.7-1.44-4.31-.47-6.16.76s-3.93,2.74-6.09,2.2c-2.88-.73-4.82-4.94-7.62-3.91-1.53.57-2.3,2.61-3.93,2.8s-2.84-1.65-4.44-2.17a6,6,0,0,0-2.43-.07l-12,1.34-4.31.48a12.39,12.39,0,0,0-2.56.46c-1,.35-2,1-3,1.3-1.94.64-4,.31-6.08.48s-4.3,1.18-4.78,3.16l-.66.91c-3.58-.21-7.78-.15-9.93,2.72-1.37,1.84-1.49,4.39-2.9,6.19-1.17,1.49-3.12,2.32-4,4-1.31,2.61.55,6.14-1.13,8.53-1,1.49-3.19,2-4,3.64-1.28,2.52,1.37,6.16-.61,8.19-.85.86-2.19,1-3.23,1.58-2.84,1.66-2.26,6-3.93,8.8s-5.2,3.71-8.38,3.53-6.27-1.25-9.45-1.49a20.52,20.52,0,0,1-4.15-.45,18.23,18.23,0,0,1-3.93-2c-9.92-5.67-22.31-3.22-33.45-.61-5.46,1.28-11,2.6-15.81,5.53-6.09,3.74-10.38,9.75-14.49,15.6-3,4.29-6.09,8.66-7.7,13.66-.79,2.44-1.22,5-2.29,7.35s-3,4.51-5.46,5l-2.73,5.72c-3.12,1.71-4.76,5.18-6.2,8.43q-8.49,19.11-17,38.23l-3.88,11.34c.68,2.64-1,5.26-2.58,7.48a45.46,45.46,0,0,1-4.81,6c-2.86,2.84-6.41,4.88-9.91,6.88L868.51,2104l-7.34,1.82-4.95,11.91a44.15,44.15,0,0,0-3.38,10.51c-1.46,10.07,4,19.88,4.37,30.05.18,5.73-1.19,11.94,1.69,16.9l1.44,3.93a4.83,4.83,0,0,1-9.53,1.52c-.4-2,.43-3.94.53-5.93a16.22,16.22,0,0,0-1-5.45l-2.18-7.34a23.14,23.14,0,0,0-2-5.22,23.48,23.48,0,0,0-3-3.86L832.33,2141l-9.32-1.49c-14.23-10.64-29.21-22.27-35-39.06-3.27-9.44-3.29-19.71-2.26-29.64l2.78-6.29c-1.93-12.27-.54-24.78.85-37.12a9.73,9.73,0,0,1,1.17-4.27,3.31,3.31,0,0,1,3.83-1.51,47.27,47.27,0,0,1,2.49-23.21c1.87-5,4.61-9.77,5.29-15.07a5.94,5.94,0,0,0-.56-4c-2.09-3.26-7.46-1.14-10.83-3l-9,1.21c-6.66,1.42-10.22,8.45-13.72,14.3-4.3,7.18-9.82,13.63-13.62,21.1-4.77,9.37-6.63,20-10.9,29.59-3.82,8.63-9.63,16.61-11.1,25.94l2.83,7.33c-1.14,16.18,4.15,32.63.75,48.49a9,9,0,0,1-1.64,4c-1.92,2.3-5.36,2.43-8.36,2.33-2.35-.08-4.8-.21-6.84-1.37-3.12-1.78-4.51-5.48-5.5-8.92a110.26,110.26,0,0,1-3.85-40.2l1.86-8.14-4.38-15.24a231.14,231.14,0,0,1-5.64-22.42c-3.13-17.26-2.28-35-1.8-52.49.08-3-.16-6.54-2.74-8-.85-.49-1.85-.66-2.73-1.09a5.29,5.29,0,0,1-2.48-6.51l.8-3.8a165.24,165.24,0,0,0,5.61-43.58l1.7-9.25a51,51,0,0,0-3.12-23.34,13.73,13.73,0,0,0-2.21-4.07c-1.59-1.84-3.93-2.83-6.18-3.76l-24.44-10.07-6.43-11.23c-2.75-3.78-7.08-6-11.37-7.9a105,105,0,0,0-48.66-8.33c-1.31.09-2.92.43-3.3,1.69-3.13-.88-4-5-3.48-8.21,1.46-8.9,8.69-15.57,15.49-21.49l10.56-9.21a169.85,169.85,0,0,1,16.7-13.35c17.82-12,39.47-16.69,60.73-19.58a13.79,13.79,0,0,0,4.75-1.24,13.58,13.58,0,0,0,3.85-3.78c2.91-3.76,5.9-7.65,7.2-12.24l-.71-17.55a1.67,1.67,0,0,0,1.19,1.13q-3.66-5.41-7.14-10.94c-2.38-3.77-4.74-7.67-5.66-12-1.24-5.87.15-12.42-2.8-17.65-.8-1.42-1.89-2.65-2.76-4a15.78,15.78,0,0,1-1.46-13.64l-.83-10q-.36-10.17-.71-20.34c-.31-9-.64-18.09-3.11-26.74l-5.29-12.55q-29.26-24.33-60.56-46.06c-5.81-4-13.88-8-19.4-3.56-3.6,2.9-4.23,8.16-7.07,11.8-3.3,4.22-9.24,5.66-14.52,4.82s-10-3.58-14.54-6.49c-9.32-6-18.2-13.21-24.19-22.56-8.44-13.19-10.39-29.47-10.7-45.13-.18-9.23.13-18.52,2-27.56,2.07-10.13,6-19.76,9.95-29.31,3.5-8.54,7.08-17.21,12.82-24.43,6.18-7.77,14.52-13.46,22.73-19l17.27-11.71c11.09-7.53,24.06-15.41,37-12l5.77-1.54c1.15-1.93,2.45-4,4.56-4.78,1-.38,2.3-.52,2.84-1.47a5.67,5.67,0,0,0,.38-1.07c.61-1.77,2.53-2.75,4.37-3.1s3.75-.28,5.55-.82a1.24,1.24,0,0,0,.66-.37,1.34,1.34,0,0,0,.19-.84,24.21,24.21,0,0,1,.18-5.52,3,3,0,0,1,1.18-2,2.81,2.81,0,0,1,3.19.65c.87.77,1.47,1.81,2.34,2.58a2.79,2.79,0,0,0,3.2.6c1.27-.81,1-2.68,1.32-4.16a3.47,3.47,0,0,1,2.77-3c1.57-.16,2.89,1.13,3.8,2.42s1.8,2.76,3.29,3.29c.59-1.29.49-2.78.71-4.18s1-2.94,2.42-3.18,2.75,1,3.56,2.31,1.6,2.75,3,3.2a2.85,2.85,0,0,0,3.32-1.47c.56-1.22.26-2.84,1.23-3.76s2.51-.53,3.49.3a23.36,23.36,0,0,1,2.37,3,3.49,3.49,0,0,0,3.31,1.51c1.86-.47,2.89-3.28,4.77-2.86.82.18,1.35.94,2,1.49s1.74.84,2.23.15l1.29-1,.06-3.76a38.78,38.78,0,0,1,23.37,7.78l1-.25a1.17,1.17,0,0,1-.13-1.3c7.83,1,15.29,3.84,22.44,7.17a82.66,82.66,0,0,1,13.51,7.62,53.92,53.92,0,0,1,16.16,18.58l2.54,1.42a8.69,8.69,0,0,1,1.93-3.36l1.09-3.32a7.77,7.77,0,0,0-1.78-6.15,21.6,21.6,0,0,0-5-4.26q-6.84-4.65-14-8.85a32.82,32.82,0,0,1-6.36-4.38,31.37,31.37,0,0,1-4.68-6.32,57.2,57.2,0,0,1-6-11.68c-1.71-5.08-2-10.52-2-15.87,0-4.69.25-9.37.52-14.05l1.89,1.91.27-.64c-.68-4.31,1-8.59,2.11-12.8,3.66-13.61,1.87-28.13-1.75-41.75,4.86,6.37,9.88,12.89,16.74,17l.1-.93c-4.65-9.56-4.84-20.7-3.49-31.24s4.14-20.88,5.12-31.46l1.54,1.52q.14-7.73.28-15.44a2.48,2.48,0,0,0-.17-1.18c-.4-.77-1.49-.92-2-1.61-.64-.85-.15-2.1.61-2.83s1.77-1.19,2.48-2c1-1.15,1.29-2.8,1.86-4.26s1.88-2.91,3.42-2.63l.06-2.16c-7.59-1.21-15.3-2.45-22.24-5.75-5.94-2.82-11.14-7.07-17.19-9.64-7.92-3.38-16.77-3.69-25.37-3.42a211,211,0,0,0-35.95,4.22c1.46-9.62,8.06-17.84,16-23.44s17.23-9,26.38-12.24a104.34,104.34,0,0,1,15-4.56c20.47-4,41.26,4.59,59.36,14.94,5.63,3.22,11.22,6.68,15.66,11.41,4.66,5,7.86,11.07,11.54,16.8A110.46,110.46,0,0,0,875.76,1213l.54-.64q-6.82-18.3-13.66-36.6c-5-13.29-10-27-9.84-41.14l1-.11a5.31,5.31,0,0,0,2.58-.71,1.8,1.8,0,0,0,.63-2.35,3,3,0,0,0-2.15-.88c-3.42-.55-6.32-2.91-8.42-5.67s-3.53-6-5.21-9a36.2,36.2,0,0,0-8.91-11.18,19.59,19.59,0,0,0-13.32-4.53,2.41,2.41,0,0,1-2-.4c-.47-.52.15-1.64.71-1.22l-.37-.28c-7,.88-14.07-1.15-20.7-3.63-5.78-2.17-11.52-4.75-16.2-8.79-6.49-5.59-10.49-13.55-16.55-19.6-1.87-1.87-4-3.63-5-6.07l.4-1.42c0-3-2.75-5.18-5.26-6.82s-5.33-3.57-5.71-6.54c-.19-1.45.26-2.91.31-4.37s-.48-3.15-1.85-3.66c-1-.39-2.29,0-3.28-.5-1.33-.71-1.32-2.77-.36-3.93a7.65,7.65,0,0,1,3.92-2.07c-.74-.79-.23-2.18.7-2.74a6.74,6.74,0,0,1,3.16-.61,4,4,0,0,0,2.94-1.15,1.43,1.43,0,0,0-.81-1.59,18.82,18.82,0,0,0-1.82-.67,4.14,4.14,0,0,1-2.16-4.81,5.2,5.2,0,0,1,4.16-3.53,3.53,3.53,0,0,1,2.57.45,6.69,6.69,0,0,1,1.72,2.63c.49.94,1.34,1.89,2.39,1.8,1.62-.14,2-2.32,1.91-3.94a14.92,14.92,0,0,0-.46-3.53c-.47-1.59-1.48-3.15-1.13-4.76a4,4,0,0,1,2.87-2.76,10.48,10.48,0,0,1,4.14-.12l1.58-1c1.74-.36,2.18-2.59,2.34-4.37s1-4,2.73-4,3.08,2.73,4.89,2.28c1.12-.28,1.57-1.66,1.5-2.82a12.13,12.13,0,0,1-.19-3.44,3.68,3.68,0,0,1,3.47-2.68,5.13,5.13,0,0,1,4,2.06c.25.32.51.68.9.73.73.1,1-.86,1.38-1.51,1-1.87,3.64-2,5.6-1.28s3.68,2.12,5.74,2.52a6.67,6.67,0,0,0,7.62-6,5.78,5.78,0,0,1,.31-2.6c.92-1.69,3.59-1.15,5,.2s2.2,3.26,3.86,4.22a4.47,4.47,0,0,0,4.3.07c.83-.46,1.5-1.17,2.31-1.66,3.75-2.25,9,.81,12.81-1.35l-.22-.72a57.94,57.94,0,0,0-22.57-14l3.92-1.51a2,2,0,0,0,1.27-.95c.31-.77-.43-1.55-1.13-2a12.08,12.08,0,0,0-5.48-1.87c-3.35-.28-7.39.6-9.55-2a17.68,17.68,0,0,0-1.46-2c-1.16-1.07-3-1-4.48-.54a43.12,43.12,0,0,1-4.44,1.64,17.75,17.75,0,0,1-3.79.13c-7.83-.16-15.56,2.41-23.38,2-1.47-.08-3.23-.49-3.72-1.88-.55-1.56,1-3.12,2.53-3.64a7,7,0,0,1,3.75-.15c1.61.4,3,1.36,4.61,1.86s3.58.39,4.56-1a4.2,4.2,0,0,0,.1-4,89.72,89.72,0,0,0,14.57,0c3.38-.32,6.83-.91,10.15-.15a23.66,23.66,0,0,0,3.71.83,3.6,3.6,0,0,0,3.34-1.42c.26-.43.39-.94.67-1.37a3.22,3.22,0,0,1,3.12-1.2,12,12,0,0,1,3.31,1.16,9.53,9.53,0,0,0,5.51,1c1.87-.35,3.61-1.94,3.54-3.84a3.18,3.18,0,0,1,0-1.11,1.68,1.68,0,0,1,.66-.83,5,5,0,0,1,4.45-.26,38.15,38.15,0,0,0,4.34,1.57,7.27,7.27,0,0,0,7.19-2.83l-.08-1c5.43-1.82,11.26-2,17-2a26.53,26.53,0,0,1,6.48.53,27.15,27.15,0,0,1,4.95,1.93l6.45,3h1.58c4.47-1.16,9.13,1.21,12.63,4.21s6.43,6.74,10.35,9.17c2.53,1.56,5.37,2.53,8,3.95,6,3.3,10.47,8.94,13.63,15s5.17,12.7,7.43,19.19c3.11,8.92,6.73,17.78,7.91,27.16l1.15,1.84c3.91,3.08,5.91,7.92,7.76,12.54q1.05,2.61,2.08,5.22l.49.94A441.61,441.61,0,0,0,968.69,981l0-1c-13.6-5.66-25.12-15.27-36.26-24.9-4.92-4.25-9.83-8.57-13.89-13.65-6-7.5-9.91-16.4-13.76-25.19-5-11.32-10-22.73-12.58-34.8a103.64,103.64,0,0,1-1.61-33.1c.9-8.34,2.7-16.64,2.28-25a47.56,47.56,0,0,0-5.21-19.32c7.53,2.09,10,11.37,15.34,17.07,4.31,4.62,10.56,6.84,15.67,10.55,5.63,4.08,9.81,9.93,15.52,13.89,4.76,3.32,10.41,5.19,15.17,8.53,9.37,6.56,14.06,17.81,18.29,28.44,7.11,17.9,14.36,36.83,11.66,55.91h.21c2.79-15.13,11.91-29.63,9.28-44.79-1.42-8.19-6.14-15.35-10.13-22.64-11.35-20.76-17.26-44-23.05-66.92-4.17-16.48-8.36-33.21-7.87-50.21.72-24.92,13.52-32,8-74.08l1.53-.12a86.69,86.69,0,0,0,12.27,41c3.46,5.76,7.59,11.09,11,16.9,3.89,6.68,6.76,13.9,9.58,21.11,8.19,20.91,16.21,42.49,16.39,65,.14,17.29-4.38,34.8-.7,51.69a18.21,18.21,0,0,1,2.37-7.45l1.14-2.77c6-13.1,12-26.23,19.33-38.62a47.61,47.61,0,0,0,2.42-4.37,42.23,42.23,0,0,0,2-5.82q8-27.09,13.25-54.89l1.3-2.67c-1.81-1-2.66-3.14-2.85-5.19s.15-4.11,0-6.16c-.41-5.56-4.21-10.18-6.66-15.19-6-12.25-3.8-27,1.29-39.69s12.83-24.08,18.19-36.62c1.24-2.92,2.36-5.89,3.67-8.77,2.31-5,5.23-9.79,7.42-14.88s3.66-10.69,2.83-16.17l.94.48c2.61,7.13,1,15.14,2.64,22.56.55,2.45,1.45,4.81,1.93,7.28a43.31,43.31,0,0,1,.49,8.67l-.3,27.92.47.64a56.84,56.84,0,0,1,5.92-9.66c1.35-1.78,2.91-3.56,5-4.27a46.39,46.39,0,0,1,3.87,21.27l0,.29,13.7-10c0,6,1.41,11.91,1.32,17.89a35.26,35.26,0,0,1-5.08,17.62c-3.39,5.58-8.34,10.21-11,16.19l.31.24a270.15,270.15,0,0,1,28-18.83c1.92-1.13,3.86-2.23,5.66-3.54,1.62-1.18,3.12-2.52,4.62-3.86l10.7-9.55,6.11-3.12a51.67,51.67,0,0,1,23.61-8.91,21.42,21.42,0,0,1,9,.54A9.89,9.89,0,0,1,1186,692c1.5,4.6-1.62,9.49-5.44,12.45s-8.46,4.82-11.95,8.17c-3.31,3.17-5.33,7.42-7.32,11.55-4.18,8.68-8.54,17.32-14.3,25s-13,14.51-21.77,18.49l-4.13,2.1c-16.2,10.55-33.42,19.45-51,27.54-4.94,2.28-10,4.52-14.27,7.86-5.66,4.4-9.76,10.47-13.54,16.56A163.27,163.27,0,0,0,1033,838.5c-5.23,11.15-8.66,23.28-15.79,33.34l-.66.51c6.14-2.91,9.12-10,14.59-14,3.22-2.37,7.14-3.55,10.69-5.38,5.84-3,10.6-7.7,15.61-12a128.41,128.41,0,0,1,34.06-20.76l4,.46q25.34.73,50.53,3.82c2.9.35,5.87.73,8.72.11,1.91-.41,3.7-1.25,5.58-1.77,4.87-1.33,10-.41,15,.51l.88.61c-2.84-.48-5.11,2.19-6.85,4.49s-4.4,4.77-7.1,3.75q-5,9.46-10.94,18.4c-2.32,3.5-5.11,7.2-9.22,8.11l-1,.19c-10.25,13.94-25.81,24.18-42.91,26.81-16.47,2.53-33.51-1.85-49.85,1.36-10.54,2.06-20.2,7.18-29.68,12.23a42.91,42.91,0,0,0-9.46,6.17c-2.69,2.54-5.12,6-8.8,6.34l-.09.23a14.55,14.55,0,0,1,0,5,5,5,0,0,1-3,3.7l-.95,1a226.48,226.48,0,0,1-9.8,36c-.88,2.43-1.82,5-1.21,7.53l.52.75c3.1-2.68,5.14-6.35,7.48-9.72a57.16,57.16,0,0,1,18.11-16.63c6.44-3.73,13.57-6.18,19.88-10.13,4.09-2.57,7.79-5.74,11.89-8.28,15.34-9.52,34.56-9.41,52.59-8.57q12.4.57,24.79,1.42c6.11.42,12.28.9,18.12,2.75,7.3,2.32,14.15,6.78,21.81,6.8l.23,1.44c-8.52-.76-16.75,3.11-24,7.67s-14.09,9.94-22.14,12.81c-22.51,8-47.32-5.45-71-2.22-18.53,2.53-34.27,15.11-46.16,29.55-4.41,5.35-8.89,11.34-15.54,13.31l-1.11.59-4.59,22.44a165,165,0,0,0-2.88,17.08c-.21,2.21-.34,4.44-.65,6.64-.91,6.35-3.4,12.5-3.23,18.91l4.83-6a46,46,0,0,1,6.22-6.71,15.42,15.42,0,0,1,8.23-3.71l.6.49a6.33,6.33,0,0,1,6-8.3c-.47-1.12.18-2.4,1-3.33a9.6,9.6,0,0,0,2.16-2.9c.21-.63.22-1.3.37-1.94a4.87,4.87,0,0,1,4.29-3.66c1.19-.08,2.38.29,3.57.2a4.79,4.79,0,0,0,4.26-4.33l2-1.64c2.13-1.59,5.46-1.86,7.27.08.45.48.84,1.11,1.49,1.26s1.5-.44,2.16-.91a7.06,7.06,0,0,1,6.47-.81,12.09,12.09,0,0,0,2,.73,17.78,17.78,0,0,0,2.31,0,10.1,10.1,0,0,1,3.77,1.24l8.06,3.93a14.29,14.29,0,0,1,3.51,2.14,9.48,9.48,0,0,0,1.93,1.66,5.44,5.44,0,0,0,4.06-.1,41,41,0,0,0,9.82-4.57l3.57-1.09c19.26,3.44,35.82,15.32,51.26,27.35,7.08,5.51,14.13,11.18,19.81,18.12s10,15.31,10.66,24.25l2.33,7.69a128.64,128.64,0,0,1-4.31,14.48c-1.65,4.56-3.88,9.38-8.2,11.6-2.69,1.39-5.83,1.55-8.86,1.69l-15.83.72A31.55,31.55,0,0,0,1099,1124c-10.19,5.18-20.86,10.36-32.29,10.58l-5,1.33c-7.59,2-15,5.42-20.58,11s-9.1,13.47-8.12,21.27l-3.43,6.4c3.46,8.9,7,18.5,4.72,27.78-.54,2.22-1.41,4.35-1.81,6.6-.76,4.25.17,8.58.72,12.86,1.07,8.21.77,16.52.29,24.79l1.48.71a40.09,40.09,0,0,1,19.1,6.36l1.35.26a77.45,77.45,0,0,1,42,7.62,44.5,44.5,0,0,1,8.61,5.37,61.47,61.47,0,0,1,5.92,5.83c4.41,4.73,8.85,9.5,12.13,15.07,7,11.82,8.11,26.18,7.45,39.89s-2.93,27.21-2.19,40.83a51.92,51.92,0,0,0-30.87-26.1c-3.12-1-6.33-1.6-9.35-2.82a53.45,53.45,0,0,1-7.74-4.17c-10.69-6.55-21.44-13.16-30.66-21.65l.27-.29a3.61,3.61,0,0,0,2.48-2.22c-7.74-.91-13.62-7.11-19-12.75-8.36-8.76-17.22-17.12-27.24-23.92s-21.25-12-33.18-14.07a52.56,52.56,0,0,0-17.56-.24,59.25,59.25,0,0,0-17.88,6.49c-6.48,3.45-12.62,7.7-17.39,13.27l.73.76a25.74,25.74,0,0,0,8.61-.65c-.06,2.21-1.63,4-3.12,5.68l-8.07,8.85a7.76,7.76,0,0,0-2.32,3.86c-.17,1.16.19,2.37-.09,3.5-.57,2.23-3.19,3.11-5.43,3.63l-.2.32c.5,2.89-1.52,5.52-3.13,8a34.33,34.33,0,0,0-4.53,10.29,11.26,11.26,0,0,1-1.22,3.42,5,5,0,0,1-5.63,1.91,248.87,248.87,0,0,1-7.79,37.63l-1,1.13a28.13,28.13,0,0,1,17.22,1.75,36.68,36.68,0,0,1,38.93-6.16l.73-.27a34.11,34.11,0,0,1-3.46-20.27,2.5,2.5,0,0,0-.07-1.44,2.8,2.8,0,0,0-1.34-1,10.93,10.93,0,0,1-5-6.39,29,29,0,0,1-1.09-8.2q-.1-4,0-8a8.77,8.77,0,0,1,.69-3.84,4.64,4.64,0,0,1,6.14-1.85l-1.74-7.1a7.5,7.5,0,0,0-.84-2.32,14.15,14.15,0,0,0-1.58-1.79c-2.94-3.29-2.68-8.25-2.24-12.64a5.28,5.28,0,0,1,.85-2.82c1.18-1.46,3.42-1.22,5.25-1.65s3.6-1.84,5.4-2.79,4.14-1.45,5.76-.22,1.78,3.62,1.77,5.68a19.87,19.87,0,0,1,6.21.23,6.77,6.77,0,0,1,4.75,3.7,15.07,15.07,0,0,1,9.9,1.3,4.65,4.65,0,0,0,1.31.54,4.19,4.19,0,0,0,1.75-.22c2.71-.73,5.62-1.25,8.27-.35s4.88,3.63,4.27,6.37c1.6-1.18,4-.71,5.49.59a10.33,10.33,0,0,1,2.82,5.16,29.42,29.42,0,0,1,.84,11.66,24.89,24.89,0,0,1,11.12,1.3,30.77,30.77,0,0,1-1.78,5.79l-.35.79a3.47,3.47,0,0,1,3.67,2.28,10.08,10.08,0,0,1,.38,4.64c-.16,2.24-.37,4.6-1.7,6.41-.76,1-1.89,1.88-2.17,3.13-.24,1.08.2,2.22-.06,3.29-.73,2.9-5.5,2.67-6.84,5.33-.51,1-.42,2.3-1.14,3.17s-2.31,1-3.59,1.28a8.81,8.81,0,0,0-6,4.31c-.81,1.46-1.22,3.17-2.36,4.4-2.71,2.92-7.66,1.48-11.31,3.08-1.13.49-2.12,1.28-3.2,1.87-2.65,1.45-5.77,1.69-8.78,1.91l-10,.71-.38.75q9.15,5.67,17.76,12.16a44.57,44.57,0,0,1,7,6.16,71.35,71.35,0,0,1,4.46,6.15c7.58,10.83,17.87,19.46,28.41,27.45l.17.08c.79-.2.66-1.4,1.18-2,.35-.4.95-.5,1.36-.86a2.17,2.17,0,0,0,.19-2.52,12.73,12.73,0,0,1-1.18-2.44,4.84,4.84,0,0,1,.14-2.17,3.74,3.74,0,0,1,1.11-2.13,3.8,3.8,0,0,1,3-.46,5.82,5.82,0,0,1,3.24,1.38c1.54,1.5,1.39,4.12.29,6a4.19,4.19,0,0,1-1.84,1.79,2.26,2.26,0,0,1-2.43-.33,12.19,12.19,0,0,1-3.16,4.47,34.56,34.56,0,0,1,5.88,1.16l0,1c.86.09,1.46.85,2,1.49s1.38,1.29,2.21,1,1.15-1.15,1.53-1.9,1.17-1.53,1.94-1.19c.55.25.76,1,1.3,1.22.81.38,1.65-.47,2-1.28a8.52,8.52,0,0,0,.26-6.59,15.64,15.64,0,0,1-.83-2.19,2.33,2.33,0,0,1,.49-2.18,2.06,2.06,0,0,1,1-.5,3.92,3.92,0,0,1,3.93,1.86,11.49,11.49,0,0,1,1.46,4.35,2.57,2.57,0,0,1,0,1.2,4.81,4.81,0,0,1-.91,1.26,2.74,2.74,0,0,0-.18,2.9l.14,1.57c1,.33,2-.36,2.82-1s1.91-1.26,2.85-.81,1.11,1.56,1.3,2.54.62,2.11,1.6,2.27a11.91,11.91,0,0,0,0-3.86l-.58-1.66a1.8,1.8,0,0,1-.31-2.84c.45-.37,1.17-.65,1.12-1.24a1.52,1.52,0,0,0-.39-.71,3.38,3.38,0,0,1,.65-4.34,5.46,5.46,0,0,1,4.53-1.1,3.37,3.37,0,0,1,3.12,3.32,16.73,16.73,0,0,1-.09,3.08,21.54,21.54,0,0,0,.16,4.17,1.84,1.84,0,0,0,.36,1,2,2,0,0,0,1,.49,5.51,5.51,0,0,1,2.37,1.3,2.52,2.52,0,0,1,.7,2.5l.61-.29a26.44,26.44,0,0,1,3.55-5.74,8.77,8.77,0,0,1,5.79-3.14,2.28,2.28,0,0,1,1.62.37,2.81,2.81,0,0,1,.73,2l.48,4.75a3.12,3.12,0,0,0,2.86-1.32,32.65,32.65,0,0,1,2-2.64,9.65,9.65,0,0,1,3.42-1.86c1.41-.53,3.12-1,4.31-.09,1.78,1.4.69,4.71,2.44,6.17.86.71,2.09.69,3.15,1.06,2.4.85,3.92,3.77,6.46,3.83,1.86,0,3.63-1.55,5.41-1,1.58.48,2.27,2.38,3.66,3.26,2.31,1.47,5.23-.31,7.42-1.94a2.12,2.12,0,0,1,1.41-.57c1.51.2,1.06,3,2.44,3.57s2.34-1.47,3.62-2.31c1.54-1,3.75.12,4.55,1.78s.58,3.62.36,5.45l1.2,1a15.38,15.38,0,0,0,16.39,1.56c1.65.73.27,3.34.91,5,.58,1.49,2.54,1.78,4.14,1.74a45.87,45.87,0,0,0,9.47-1.18,8.21,8.21,0,0,1,3.29-.34,2.49,2.49,0,0,1,2.16,2.19c0,.81-.52,1.65-.16,2.37a1.94,1.94,0,0,0,1.18.82c2,.71,4.58,1,5.61,2.93.38.71.48,1.55.87,2.27a7.83,7.83,0,0,0,2.64,2.33,28.12,28.12,0,0,1,4.61,4.45l10.23,11.51,2.84,3.46,2.79,14.58A34.51,34.51,0,0,1,1193.15,1504.42ZM967.28,1216c-1.76,1.63-3.67,3.1-5.3,4.86a61.23,61.23,0,0,0-5.08,6.87c-7.27,10.33-17.34,18.77-22.77,30.17l1.7-.64a156.77,156.77,0,0,1,41.82-16.83c6-1.45,12.25-2.55,18.28-1.29,4.82,1,9.3,3.46,14.2,4-1.39-3.77-1.94-7.79-3.17-11.61-2-6.16-5.73-11.6-9.41-16.94s-7.83-11.19-13.89-13.9C977,1204.13,972.79,1210.9,967.28,1216Zm-40.66,29c8.37-8,16.61-16.28,23.37-25.7a82.05,82.05,0,0,1,5.44-7.25c3.72-4.14,8.56-7.2,11.94-11.61,1.83-2.39,3.35-5.26,6.07-6.54l-1.84-.73a210.7,210.7,0,0,0-24.2-13.43c-2.55-1.21-5.25-2.39-8.07-2.21a47,47,0,0,0-1.39,15.45c.27,3.63.89,7.63-1.15,10.65-.56.83-1.29,1.53-1.87,2.34-1.9,2.61-2.13,6-2.4,9.24A138.65,138.65,0,0,1,926.62,1245Zm-49-53.19c1.9,5.17,4,10.27,6.13,15.36,4.69,11.28,9.43,22.65,16.27,32.77,3.2,4.74,7,9.6,7.16,15.33l.88,1.06q8.28-42.46,17-84.84l1.51-1.87a33.82,33.82,0,0,1-17.13-20.57c-.95-3.26-1.36-6.89.11-9.95-3.23,3.29-8.4,4-12.89,2.95s-8.47-3.57-12.34-6c-4.84-3.1-10.1-6.81-11.17-12.45a12.35,12.35,0,0,1-7.37,0A195.22,195.22,0,0,0,877.62,1191.85Zm-2,102,1.61-1.25a43.93,43.93,0,0,0-3.31-15.17,6.35,6.35,0,0,0-1.35-2.25c-1.26-1.18-3.17-1.23-4.88-1.46-6.35-.88-11.64-5.21-16.12-9.79a100.37,100.37,0,0,1-20.37-30.36,21.51,21.51,0,0,0-3.32-6.06c-1.53-1.73-3.91-2.92-6.15-2.36-3.81,4.3-4.1,10.58-4.19,16.33q-.48,31.23-1,62.45a37.62,37.62,0,0,1-1.12,10.38,19.24,19.24,0,0,0-.67,2.36,15.28,15.28,0,0,0-.12,2.62,44.43,44.43,0,0,1-3.73,17.86c-2.29,5.24-5.69,10.55-4.73,16.19,2-8.44,8.81-14.78,15.26-20.59l10.39-9.35-.86.13a101.52,101.52,0,0,1-5.23-55,37.25,37.25,0,0,0,29.56,17.77c2.24.12,5.05.41,5.76,2.53.28.85.11,1.8.4,2.65.52,1.56,2.32,2.24,3.93,2.55A24.74,24.74,0,0,0,875.58,1293.86Zm9.43,34.42a91,91,0,0,0,4.94-33.41,3.84,3.84,0,0,0-3.77.49,11.68,11.68,0,0,0-2.65,3l-10,14.29c3.72.61,6.68,3.62,8.25,7s2,7.24,2.37,11ZM1037.16,1624a69.88,69.88,0,0,1-39.77-10.12l-2.32,5.42a58.66,58.66,0,0,0,4.37,12.48,22.69,22.69,0,0,0,8.83,9.62,2.68,2.68,0,0,0,1.27.43,3,3,0,0,0,1.44-.56Q1024.32,1633,1037.16,1624ZM1130,1369.84c-.21-.44-.44-.88-.65-1.31a2.09,2.09,0,0,0,0,.25Z"></path>
    <path data-name="1a" data-official="" data-plain="Section of Ovary" data-loc="" d="M806.16,2492.1l1.07,24c.27,6,.55,12,2.17,17.83,1.48,5.23,4,10.11,5.58,15.32,3,10,2.24,20.69,4.66,30.81,1.76,7.35,5.17,14.25,6.62,21.67,2.89,14.7-2.1,29.76-1.86,44.74.07,4.32.86,9.15,4.31,11.76,2.11,1.59,4.86,2.05,7.5,2.21,10.32.64,20.49-2.52,30.11-6.31l7-2.47a105.5,105.5,0,0,0-2.59-31.88l-.68-7.66.14-56.2.39-9.35a635.58,635.58,0,0,0,5.75-85.09l.94-4.3-1.58-4.6c1.45-5.68-1.93-11.84-7-14.83a17.52,17.52,0,0,0-11.37-2.23,4.28,4.28,0,0,1-2,0,4.65,4.65,0,0,1-1.87-1.58c-4.13-4.63-11.16-5.09-17.35-4.59-4.54.36-9.68,1.46-12,5.41-1,1.79-1.46,4.14-3.27,5.11a7.11,7.11,0,0,1-3.67.45,35.91,35.91,0,0,0-14.47,2.45c-1.88.74-3.81,1.73-4.85,3.46a9.35,9.35,0,0,0-1,4.46,8.8,8.8,0,0,0,.95,5.05c1.06,1.69,3,2.57,4.46,3.93,2.63,2.46,3.48,6.25,4,9.81a86.7,86.7,0,0,1,.76,14.58Z"></path>
    <path data-name="1b" data-official="" data-plain="Seed" data-loc="" d="M801.8,2489.49a33.34,33.34,0,0,1-32.78,1.59c-2.29-1.18-4.53-2.75-5.61-5.09-2.2-4.79,1.33-10.21,1.42-15.48.08-4.52-2.37-8.64-4-12.84a38.15,38.15,0,0,1-2.52-17.14,24.24,24.24,0,0,1,2.08-8.43,17.65,17.65,0,0,1,13.92-9.88,16.64,16.64,0,0,1,15.3,7.34c3.14,4.91,3.33,11.09,3.43,16.93l4,4.24a8.8,8.8,0,0,0,.95,5.05c1.06,1.69,3,2.57,4.46,3.93,2.63,2.46,3.48,6.25,4,9.81a86.7,86.7,0,0,1,.76,14.58Z"></path>
    <path data-name="2" data-official="Eucalyptus pulverulenta" data-plain="Powdery Gum-tree" data-loc="New Holland" d="M1037.16,1624a69.88,69.88,0,0,1-39.77-10.12l-2.32,5.42a58.66,58.66,0,0,0,4.37,12.48,22.69,22.69,0,0,0,8.83,9.62,2.68,2.68,0,0,0,1.27.43,3,3,0,0,0,1.44-.56Q1024.32,1633,1037.16,1624Zm416.21-502.64v-3.24a1,1,0,0,1,.1-.55c.21-.32.68-.28,1.06-.21l17.9,3.38c-.87.4-.94,1.79-1.83,2.14a2.12,2.12,0,0,1-.87.08l-16.78-1Zm1.12,5.26a59.86,59.86,0,0,1,15.53.62c.8.13,1.73.39,2,1.16a1.83,1.83,0,0,1-.08,1.28c-.86,2.38-3.57,3.84-4.06,6.32-.15.71-.08,1.45-.19,2.17a2.27,2.27,0,0,1-1.12,1.76,3,3,0,0,1-1.22.17l-8.54-.08a8,8,0,0,1-1.62-.13,2.89,2.89,0,0,1-2.36-3,3,3,0,0,1,2-2.18,11.12,11.12,0,0,1,3.05-.5,31.42,31.42,0,0,0,5.61-1,2.82,2.82,0,0,0,2-1.37c.45-1.18-.77-2.32-1.92-2.84a15.46,15.46,0,0,0-8.18-.88,3,3,0,0,1-1.57-.08,1,1,0,0,1-.56-1.29Zm9.62,24.65a5.31,5.31,0,0,0,1.66-3.44c.18-1.29.11-2.61.28-3.9a1.2,1.2,0,0,1,.32-.8,1.27,1.27,0,0,1,.66-.22l1.37-.2a1.28,1.28,0,0,1,.7,0,1.65,1.65,0,0,1,.51.51,3.5,3.5,0,0,0,3.18.75,9.43,9.43,0,0,1,3.37-.29c.15,0,.31.09.36.23a.48.48,0,0,1,0,.31c-.59,1.62-2,2.84-2.58,4.44a16.73,16.73,0,0,0-.57,4.13,1,1,0,0,1-.41.86,1,1,0,0,1-.6,0l-7.21-.8Zm-620.82,1028c-4.42-.15-8.63,2-12,4.87s-6.18,6.33-9.32,9.44a56.25,56.25,0,0,1-19.4,12.5,28.94,28.94,0,0,1-11.4,2.25,14.79,14.79,0,0,1-10.46-4.51,7.74,7.74,0,0,1-2.1-4.46c-.26-3.52,2.65-6.36,5.24-8.75a170.31,170.31,0,0,0,35.4-45.9l3.79-5.22,9.32,1.49,10.8,11.88a23.48,23.48,0,0,1,3,3.86,23.14,23.14,0,0,1,2,5.22l2.18,7.34a16.22,16.22,0,0,1,1,5.45c-.1,2-.93,4-.53,5.93ZM1527.4,1016a281.47,281.47,0,0,0-40.94-61c-6.11-6.93-13-15.22-11-24.24,2.13-9.61,13.16-14.09,22.86-15.74,32.81-5.58,66.69,3.4,99.62-1.41,4.28-.62,8.71-1.56,12-4.31,3.07-2.52,4.84-6.29,6.18-10,3.45-9.67,4.65-20,5.7-30.19,2.62-25.3,4.53-50.66,6.45-76,.46-6.1.87-12.51-1.65-18.09-1.8-4-5-7.19-7.24-10.92a28.27,28.27,0,0,1,19.16-42.59c6.68-1.18,13.55.06,20.32-.34s14.18-3.1,17-9.29c2.55-5.67.47-12.55,2.82-18.31,1.68-4.11,5.39-7,9.13-9.43a84,84,0,0,1,126.4,47.68l4.68,11.22c3.17,15.8,6.05,33.38-2.48,47-6.27,10-17.69,16-23.84,26.14-13.7,22.54,4.61,52.12-1.65,77.75-5.84,23.91-30.58,37.21-47,55.56a16.88,16.88,0,0,0-3.9,6c-.93,3-.25,6.3.74,9.31,6,18.4,22.32,31.08,35.18,45.55,7.86,8.85,14.81,21.89,8.49,31.9-6.86,10.85-23.54,9.18-33.85,16.83-5.79,4.3-9.14,11.26-14.91,15.59-7.21,5.42-16.88,5.85-25.9,6.06l-82,1.9c-5.58.12-11.39.31-16.33,2.92-8.67,4.57-12.23,15.79-10.3,25.4s8.28,17.75,15.34,24.55l1.08,13.8a98.09,98.09,0,0,1-4.22,41.88c-2.16,6.55-5,12.92-6.06,19.72-1,6.12-.39,12.35.16,18.51,1.08,12.06,2.2,24.27,6.27,35.68,3.18,8.93,8.22,17.72,7.51,27.18l1.3,4.45c5.14,8.66,10.15,18.08,9.76,28.14l.54,4.07a425.19,425.19,0,0,1,21.15,59.17c4.56,16.54,8.14,33.84,5.39,50.78l-.13,6.25-12.44,18.28c-2.25,3.32-5,6.93-8.94,7.51-3.38.49-6.71-1.49-8.9-4.1s-3.52-5.83-5.06-8.87a62.25,62.25,0,0,0-25.17-26.11v.6a255.77,255.77,0,0,1,4.38,43.21c.12,8-.13,16-2.29,23.66-3.21,11.36-10.39,21.16-18.16,30.05-2,2.29-4.12,4.64-5,7.55l-.35,14.15,21.15,41.63,6.18,8.14a89,89,0,0,0-1,23.79,33.39,33.39,0,0,1,.19,7.67c-.71,4.76-3.8,8.75-6.55,12.7-7.94,11.38-13.76,24.09-19.54,36.71-2.9,6.31-5.81,12.68-7.41,19.43-2.35,9.92-1.79,20.27-.8,30.41q1.3,13.37,3.56,26.62l-7.44.09a29.33,29.33,0,0,1-7.1-2.06,58.55,58.55,0,0,1-6.34-3.41l-13.12-7.76.1,0-39.24.81a49.71,49.71,0,0,0-12.18,1.25c-3,.8-5.74,2.14-8.74,2.76s-6.39.39-8.7-1.61a2.74,2.74,0,0,0-1.13-.75,2.63,2.63,0,0,0-1.61.41c-3.62,1.74-7.81,1.67-11.82,1.46q-12.09-.63-24.09-2.46c-2.52-.38-5.15-.85-7.2-2.37a12.09,12.09,0,0,0-2.62-1.85c-2-.76-4.87.15-5.91-1.7-.37-.66-.38-1.54-1-2a2.16,2.16,0,0,0-1.3-.32,15.9,15.9,0,0,0-6.53,1.29l-.13,3.14a6.88,6.88,0,0,1,4.17,3,6.23,6.23,0,0,0,2.14,2.13c1.17.53,2.53.14,3.82.21a5.3,5.3,0,0,1,2.62,9.71l-.16.63.71.09,6.43-.51a1.42,1.42,0,0,0,.79-.24,1.84,1.84,0,0,0,.36-1,3.19,3.19,0,0,1,2.4-2.32,5.4,5.4,0,0,1,3.44.42,8.51,8.51,0,0,1,4.86,8.77,4.79,4.79,0,0,1-.75,2.08,4.52,4.52,0,0,1-2.43,1.56,6.83,6.83,0,0,1-6.29-1.47c-.91-.82-1.59-1.88-2.51-2.69a3.32,3.32,0,0,0-3.38-.86,2.78,2.78,0,0,0-1.48,2.63,5.48,5.48,0,0,0,1.12,2.94,11.39,11.39,0,0,0,7,4.64,3.39,3.39,0,0,1,1.68.65,2.42,2.42,0,0,1,.56,1,7.73,7.73,0,0,1-1.89,7.67l-.26,1.83a15.66,15.66,0,0,1,6.51,1.9c.35-2,.74-4,2-5.59s3.76-2.29,5.33-1a4.16,4.16,0,0,1,1.33,2.33,7.31,7.31,0,0,1-8.11,9,4.61,4.61,0,0,1-2.51,5.8,4.84,4.84,0,0,0-1.23.54,1,1,0,0,0-.32,1.19c.32.48,1.06.33,1.6.13l4.49-1.68a3.62,3.62,0,0,0,1.87-1.17,7.58,7.58,0,0,0,.62-1.6,6.09,6.09,0,0,1,2.65-2.64,36.37,36.37,0,0,1,7.29-3.47c.7-.24,1.58-.43,2.12.08a2.18,2.18,0,0,1,.53,1.24l.62,3.32a3,3,0,0,1,0,1.36,2.45,2.45,0,0,1-1.17,1.29c-2.3,1.43-5.16,1.48-7.82,2-4.17.75-8,2.62-11.86,4.46a2.79,2.79,0,0,0-1.22.91,1,1,0,0,0,.24,1.35,1.38,1.38,0,0,0,1.1-.11l6-2.3,1.86.31a26.25,26.25,0,0,1,7.56.22,4.54,4.54,0,0,1,1.69.55c1.2.77,1.52,2.38,1.58,3.81a6.78,6.78,0,0,1-1.18,4.8c-2,2.35-5.82,1.57-8.7,2.7a1.6,1.6,0,0,0-.82.59,1.23,1.23,0,0,0,.63,1.58,4,4,0,0,0,1.86.27,7.08,7.08,0,0,1,4.51,1.22,4.65,4.65,0,0,1,0,6.84,5.12,5.12,0,0,1-7-.66,24.13,24.13,0,0,0-1.55-2,2,2,0,0,0-2.33-.49c-1,.6-.78,2.1-.16,3.07s1.54,1.79,1.75,2.91a2.47,2.47,0,0,1-1,2.41,2.28,2.28,0,0,1-2.57,0,2.07,2.07,0,0,1-1.82,2.44,8.43,8.43,0,0,0-1.42,0,1.9,1.9,0,0,0-1.34,1.6,5.63,5.63,0,0,0,.22,2.19,5,5,0,0,0,.78,2c.93,1.2,2.69,1.31,4.18,1.08s3-.71,4.49-.33c2.07.54,3.38,2.72,3.58,4.85a15.82,15.82,0,0,1-1.1,6.27l.47,2.19c11.18,1.22,21.91-4.2,31.75-9.63s20.28-11.2,31.51-10.74a48.9,48.9,0,0,1,9.61,1.56c7.24,1.78,14.73,4.48,19.38,10.3a33,33,0,0,1,5.11,10.27,98.41,98.41,0,0,1,5.1,33,34.68,34.68,0,0,0,.38,8.09,9.45,9.45,0,0,0,4.43,6.49l6.39,3.65a102.42,102.42,0,0,0-1.67,23.84,10,10,0,0,1-.36,4.11,6.36,6.36,0,0,1-3.78,3.36,18.82,18.82,0,0,1-5.12.87l-8.72.66-6.27,4.3c-5.07,6.7-4.09,16.45-8.68,23.5-3.14,4.84-8.88,8.45-9.41,14.2-.42,4.53,2.66,9.19,1,13.43a9.17,9.17,0,0,1-2.69,3.55c-4.84,4.14-11.86,5.08-16.53,9.41-5.43,5-6.27,13.23-6.23,20.64s.48,15.3-3.31,21.66c-2.79,4.68-7.85,8.55-7.89,14l.48,1a81.93,81.93,0,0,1,63.56,2.51,49.92,49.92,0,0,1,11.63,7.35c3.81,3.34,6.88,7.42,9.92,11.48l10.77,14.37c3.47,4.64,7.5,9.63,13.21,10.6l-.25,1.32a32.25,32.25,0,0,0-30.73,13.49c-6.46,9.53-7.26,21.77-12.18,32.18-4.43,9.35-12.11,16.92-20.89,22.4s-18.66,9-28.66,11.62a108.54,108.54,0,0,1-16.23,3.19c-15.28,1.65-30.75-1.32-46,.15l-3.13,1.54c-6.18,2.7-11.82,6.86-18.43,8.19-14.74,3-29.13-5.85-44.07-4.12-7.9.91-14.89,5.53-22.65,7.29-12.61,2.87-25.54-2-37.53-6.86l-29.42-11.83c-8-3.24-16.2-6.53-23.19-11.66s-12.84-12.38-14.45-20.91a130.64,130.64,0,0,1-30.9,59.06l-.27,1.29a24.73,24.73,0,0,0,7.34,4.72,6.31,6.31,0,0,0,2.39.58,7.66,7.66,0,0,0,3.94-1.74c14.17-9.46,34.46-8.51,47.68,2.24l.91.79c4.7-2.57,10.45-2.74,15.61-1.32A15.36,15.36,0,0,1,1294,2225c4.27,4.63,3.6,11.82,5.49,17.84,1.6,5.1,5.08,9.35,8.48,13.47,2.71,3.28,5.54,6.66,9.39,8.48,2.43,1.16,5.16,1.62,7.54,2.89a15.86,15.86,0,0,1,6.88,8.17,6.06,6.06,0,0,1,.57,3.17,4.83,4.83,0,0,1-3.49,3.55,14.4,14.4,0,0,1-5.2.27,58.83,58.83,0,0,0,8.36,14.55c2.13,2.72,4.61,5.48,5,8.91.19,1.79-.22,3.65.29,5.38.87,2.89,3.94,4.4,6.5,6s5.14,4.43,4.14,7.28l2.6,10.12a178.17,178.17,0,0,1,1.74,73.25l-4.82,13.19c-5.69,1.08-10.68,4.34-15.51,7.53-9.07,6-18.31,12.14-24.94,20.75-6,7.79-9.51,17.17-13,26.38-2.72,7.3-5.44,14.63-7,22.25-3.93,19.47-.27,41-10.08,58.25-1.78,3.13-4,6-5.38,9.36s-1.91,7.25-.27,10.45l-.43,12.66v27.27l-7.59,12.48c1.45,3.68,0,8.11-2.88,10.77a14.52,14.52,0,0,1-11,3.33c-9.19-.81-16.4-8.18-21.6-15.8a98.32,98.32,0,0,1-10.79-20.81c-3.93-10.51-6-21.61-9.61-32.24s-8.92-21.13-17.78-28c-8.67-6.72-20-9.34-30.93-9.36s-21.78,2.36-32.49,4.73l-10-2a1209.51,1209.51,0,0,1-5.17,145.21c-.56,5.83-1.26,11.93-4.58,16.76-4.08,5.92-11.27,8.76-18.11,11a257,257,0,0,1-32.43,8.21c-3,.56-6.39,1-9.1-.48a12.94,12.94,0,0,1-4.15-4.36c-4-5.91-7.19-12.58-7.39-19.68-.32-11.16,6.79-21.14,8.72-32.13,1.77-10.08-.91-20.35-1.15-30.57-.18-7.43.93-14.83,2.19-22.16,4.1-24,9.76-47.62,15.41-71.26l3.53-7.19a35.22,35.22,0,0,0,8.11-8.28,115.89,115.89,0,0,1-38.8-22.62,38.48,38.48,0,0,1-8-9c-2.26-3.84-3.35-8.23-4.87-12.41a3.25,3.25,0,0,0-.92-1.56,3.45,3.45,0,0,0-2.15-.51l-11.15-.16-11.92-9.77a96.08,96.08,0,0,0-30.42-30,76.86,76.86,0,0,1-7.1-4.6c-2.58-2-4.77-4.46-7.15-6.71a58.8,58.8,0,0,0-26-14.23l-.5-1.07-.73,0a22.32,22.32,0,0,0-7,1.28c.13-3-1.85-5.61-3.64-8-10.53-14.1-18-30.19-25.39-46.16l-1.21-4.37q0-12.88.42-25.77a3.61,3.61,0,0,1,.18-1.19,3.56,3.56,0,0,1,1.24-1.35c2.08-1.59,4.34-3.65,4.19-6.27l.82-1.72.12-1A47.24,47.24,0,0,0,908,2290c.19-1.08.44-2.3,1.38-2.86.53-.32,1.2-.35,1.74-.65,1.79-1,1-3.74-.18-5.4s-2.65-3.81-1.55-5.53c.86-1.32,2.81-1.52,3.75-2.78s.39-3.29.13-5,.44-4,2.15-3.93a5.27,5.27,0,0,1,.93-7.47,16.45,16.45,0,0,0,2.06-1.33c2.14-2.06.39-5.56,0-8.5-1-6.3,4.9-12.53,2.91-18.59l2.69-6.92c.34-10.52,1-21.09-.09-31.56s-4.11-21-10.44-29.41a4.67,4.67,0,0,0-1.53-1.47c-1.18-.58-2.59-.15-3.82.3q-13.11,4.7-26.13,9.6l.38,12.65-21.95-2-1.44-3.93c-2.88-5-1.51-11.17-1.69-16.9-.33-10.17-5.83-20-4.37-30.05a44.15,44.15,0,0,1,3.38-10.51l4.95-11.91,7.34-1.82,19.58-11.2c3.5-2,7-4,9.91-6.88a45.46,45.46,0,0,0,4.81-6c1.59-2.22,3.26-4.84,2.58-7.48l3.88-11.34q8.49-19.12,17-38.23c1.44-3.25,3.08-6.72,6.2-8.43l2.73-5.72c2.51-.52,4.4-2.69,5.46-5s1.5-4.91,2.29-7.35c1.61-5,4.68-9.37,7.7-13.66,4.11-5.85,8.4-11.86,14.49-15.6,4.79-2.93,10.35-4.25,15.81-5.53,11.14-2.61,23.53-5.06,33.45.61a18.23,18.23,0,0,0,3.93,2,20.52,20.52,0,0,0,4.15.45c3.18.24,6.26,1.3,9.45,1.49s6.76-.78,8.38-3.53,1.09-7.14,3.93-8.8c1-.61,2.38-.72,3.23-1.58,2-2-.67-5.67.61-8.19.82-1.63,3-2.15,4-3.64,1.68-2.39-.18-5.92,1.13-8.53.85-1.69,2.8-2.52,4-4,1.41-1.8,1.53-4.35,2.9-6.19,2.15-2.87,6.35-2.93,9.93-2.72l.66-.91c.48-2,2.74-3,4.78-3.16s4.14.16,6.08-.48c1-.34,2-1,3-1.3a12.39,12.39,0,0,1,2.56-.46l4.31-.48,12-1.34a6,6,0,0,1,2.43.07c1.6.52,2.77,2.38,4.44,2.17s2.4-2.23,3.93-2.8c2.8-1,4.74,3.18,7.62,3.91,2.16.54,4.23-1,6.09-2.2s4.46-2.2,6.16-.76c1,.83,1.32,2.26,2.32,3.1,2.09,1.78,5.19-.13,7.93-.39,6-.57,9.9,6.89,15.83,7.71l1.75-5.48a51.81,51.81,0,0,0-8.55-25.15,11.09,11.09,0,0,1-1.92-3.76c-.8-4.07,3.38-7.15,5.9-10.45,3.62-4.75,4-11.13,4.3-17.1l1-2.54a16.38,16.38,0,0,0-7.11-11.67c-1.22-.81-2.6-1.52-3.33-2.78-1.73-3,1.19-6.7.54-10.08-.73-3.75-5.27-5.25-7.68-8.22-1.72-2.12-2.28-4.92-2.79-7.6l-2.22-11.67-.31-2.72c-2.43-2.7,2.27-7.56,0-10.38a2.76,2.76,0,0,0-4.09,0c-.63-1.37.86-2.71,1.52-4.07a4.1,4.1,0,0,0-3.53-5.59,2.05,2.05,0,0,1-1-.1c-.83-.43-.42-1.75-.91-2.54s-1.62-.77-2.29-1.38c-1.35-1.22.07-3.64-.83-5.21-1.23-2.17-5.6-1-6.25-3.39-.31-1.14.58-2.25.72-3.43.2-1.66-1.13-3.13-2.55-4s-3.06-1.52-4.17-2.79c-1.25-1.42-1.59-3.41-1.89-5.28q-1.35-8.54-2.71-17.07l-.21-6.34a165.72,165.72,0,0,1,25.33-14.07l-.91-8.33c1.6,0,2.45-2.18,1.81-3.65s-2.15-2.34-3.58-3c-11.14-5.48-23.64-7.51-36-8.64-5.39-.5-10.88-.83-16.15.42s-10.25,4.15-15.28,6.48-10.6,4.17-16.06,3.22l0-.39a120.82,120.82,0,0,0,19.49-21.84,3.25,3.25,0,0,1,1.22-1.22c.72-.32,1.58-.08,2.33-.32s1.22-.85,1.92-1.09a4.09,4.09,0,0,1,2.08.08,38.9,38.9,0,0,0,7.76.84,17.29,17.29,0,0,0,8.73-1.79c3.31-1.86,5.39-5.24,7.68-8.27a27.13,27.13,0,0,1,9.32-8.32c3.77-1.85,8.41-2.28,12.14-.36a8.47,8.47,0,0,0-5.38-6.34l-.07-.1a7.54,7.54,0,0,0,4.52-3.49,16,16,0,0,0,1.92-5.51,38.34,38.34,0,0,0-1.16-18.93c-.85-2.61-2.18-5.35-4.7-6.45l-.24,0a18.23,18.23,0,0,0-1.07-5.83,7.12,7.12,0,0,0-4-4.13c-2.65-.89-5.66.48-7.38,2.68l-.47-.57a94.25,94.25,0,0,0-11.11-1.29,7.67,7.67,0,0,0-3.57.39,7.29,7.29,0,0,0-1.94,1.42,37.62,37.62,0,0,0-10.24,16.63,6.84,6.84,0,0,1-4.35-5.65,11.18,11.18,0,0,0-2.86,8.75c.33,2.82,1.72,5.38,3,7.94s2.37,5.31,2.12,8.14-2.32,5.69-5.16,5.88q.07,7.32.14,14.64l-.35,1.15-4.52-.26c.57,2.88,1.06,5.92.09,8.69a17.32,17.32,0,0,1-3,4.88c-4.83,6.12-9.79,12.37-16.43,16.46-5.62,3.45-12.11,5.14-18.5,6.8l-1-.19c9.16-8.44,14.12-20.4,18.43-32.08.62-1.66,1.23-3.34,1.74-5,4.84-16.06.93-33.33,1.8-50.09l.11-.72,10-.66a29.83,29.83,0,0,0,8.88-1.48c2.81-1.07,5.4-3.17,6.31-6,2.73.12,5.57.22,8.1-.82a16.59,16.59,0,0,1,2.27-.92,12.11,12.11,0,0,1,2.42-.22c7.38-.29,13.92-4.59,20-8.73l6.82-1.28c4.27-3.78,10.09-5.57,14.07-9.65,3.51-3.61,5.19-8.58,7.92-12.82,6.71-10.45,19-15.59,30.62-20.12l3.63-3.35c-1-3.51,1-7.16,3.38-9.93s5.26-5.26,6.52-8.68a19.58,19.58,0,0,1,1.51-4c1.39-2.12,4.14-2.89,5.95-4.67,3-3,2.77-7.75,3.41-11.92.44-2.88,1.4-5.68,1.62-8.58a34.51,34.51,0,0,0-.9-9l-2.79-14.58-2.84-3.46,3.6-1.71c3.63-1.46,7.35-3,11.26-3.12,4.08-.17,8.06,1.09,12.07,1.84,15.92,2.95,32.2-2.32,47-8.93,4.39-2,8.74-4.06,13.26-5.7,4-1.47,8.2-2.58,12.26-4,8.9-3,17.28-7.4,25.55-11.87,10.22-5.53,20.4-11.27,29.47-18.54l2.81-2.06a65.05,65.05,0,0,0,17.78-13.48l2.06-1.57c1.55-.85,2-2.84,2.12-4.61s0-3.66,1-5.13a4.16,4.16,0,0,1,4.94-1.44,12.52,12.52,0,0,1,2.18,1.45,3.18,3.18,0,0,0,3,.71c.65-.29,1.06-.92,1.65-1.33,1.12-.78,2.63-.58,4-.79,3.69-.58,6.8-4.33,10.43-3.47a28.72,28.72,0,0,1,3.49,1.58c4.26,1.67,9-1.55,11.33-5.48l1.2-.68a13.72,13.72,0,0,0,7.14-.48,7.44,7.44,0,0,0,4.69-5.1c.36-1.67,0-3.41.2-5.1s1.38-3.53,3.09-3.49c1.08,0,2,.79,2.93,1.32a7.26,7.26,0,0,0,10.09-9.51l.16-2.21,3.71-1.07a7.75,7.75,0,0,0,3.56-1.72,5.12,5.12,0,0,0,.8-1c1.42-2.31,1.92-5,2.4-7.72l.42-2.11c2.25-1.65,4.59-3.39,5.85-5.89s1.06-6-1.21-7.6a6.39,6.39,0,0,1-1.28-1,2.7,2.7,0,0,1,.21-3.24,13.83,13.83,0,0,1,2.63-2.3,12.15,12.15,0,0,0,4.22-6.89c.45-2.11.33-4.29.59-6.43s1-4.37,2.75-5.64,4.63-1.5,6-3.39a10.07,10.07,0,0,0,.92-1.93c.74-1.72,1.92-3.22,2.8-4.87a7.23,7.23,0,0,0,.91-5.41l1.58-.74L1489.5,1264c5.43-11.24,11-23,10.72-35.49l1-3.39c-.43-3.12,2-5.81,3.72-8.43A24.39,24.39,0,0,0,1509,1205c.22-2.67-.19-5.73-2.33-7.34a6.06,6.06,0,0,0-4.21-1,2,2,0,0,1-1.19-.08,1.76,1.76,0,0,1-.66-1.47c-.2-2.3-.13-4.66-.87-6.85s-2.53-4.24-4.84-4.38l-1.26-.47c.08.36-.57.09-.65-.27-.67-2.87.47-6-.44-8.79a6.44,6.44,0,0,0-4.48-4.19,8.92,8.92,0,0,0,3.26-3.78,2.71,2.71,0,0,1,.79-1.19,1.93,1.93,0,0,1,.86-.27c3.13-.41,6.23,1.65,9.33,1.08a3.68,3.68,0,0,1,2.12-.1,2.8,2.8,0,0,1,1.13,1.18,13.1,13.1,0,0,0,2.73,3.4,4.53,4.53,0,0,0,4.1,1c2.11-.68,3-3.21,3.06-5.42a8.8,8.8,0,0,0-1.31-5.13,5.24,5.24,0,0,0-4.54-2.41c-1.66.13-3.08,1.2-4.54,2s-3.31,1.39-4.74.53a2.83,2.83,0,0,1-1.31-1.9c-.11-.63,0-1.28-.17-1.89a2.87,2.87,0,0,0-2.74-2,5.14,5.14,0,0,0-3.29,1.35,9.36,9.36,0,0,1-2.54,1.92,5.91,5.91,0,0,1-2.09.24H1483a2,2,0,0,1-1.34-.33,1.46,1.46,0,0,1,0-1.9,10.83,10.83,0,0,1,1.55-1.39c2.47-2.23,1.93-6.13,2.22-9.45a1.87,1.87,0,0,1,.37-1.11,2,2,0,0,1,1.76-.33c1.43.19,3.05.5,3.8,1.74.93,1.53,0,3.62.7,5.26a3.89,3.89,0,0,0,3.6,2,17.75,17.75,0,0,0,4.25-.82,21.31,21.31,0,0,1,6.89-.52,5.25,5.25,0,0,1,3.21,1.12c.91.84,1.2,2.17,2,3.1a5.34,5.34,0,0,0,4.26,1.44,5.15,5.15,0,0,0,3.55-1.33,6.28,6.28,0,0,0,1.35-3.86,12.09,12.09,0,0,0-.12-4.45,4.77,4.77,0,0,0-2.75-3.32c-3-1.07-5.78,1.91-8.87,2.49s-5.92-1.25-7.62-3.71a10.85,10.85,0,0,0-2.09-2.69c-1.55-1.15-3.71-.89-5.58-.42a5.57,5.57,0,0,1-1.76.27,10.63,10.63,0,0,1-1.72-.45c-2.73-.72-5.71.76-8.4-.07-2.4-.74-4.4-3.26-6.86-2.72l-1-2.29c3,.1,5.07-2.78,6.6-5.33l1.16-.88c1.1-.25,2.07.8,2.46,1.85a13,13,0,0,0,1.1,3.16c1.33,1.94,4.18,1.72,6.53,1.56a30.72,30.72,0,0,1,10.87,1.22,4.74,4.74,0,0,1,1.8.85,6.89,6.89,0,0,1,1.27,1.89,5.44,5.44,0,0,0,3.74,3c2,.26,4-1.39,4.71-3.32a14.14,14.14,0,0,0,.45-6.15,3.57,3.57,0,0,0-.39-1.64,3,3,0,0,0-2.33-1.16,9.11,9.11,0,0,0-4.75.72c-.63.28-1.35.63-2,.32s-.78-1.2-1.29-1.71-1.53-.61-2.14-1.14-.72-1.85-1.06-2.8c-1-2.76-4.71-3.08-7.63-2.91-2.1.13-4.45.38-5.78,2-.34.43-.68,1-1.23,1a1.33,1.33,0,0,1-.87-.36c-1.46-1.13-2.11-3-3-4.61s-2.28-3.27-4.13-3.29a15.15,15.15,0,0,0-2.57.5,10.17,10.17,0,0,1-4.12-.44l-14.93-3.67c-.47-.12-1-.31-1.15-.78a1.27,1.27,0,0,1,.34-1,9.71,9.71,0,0,1,11.38-3.11,2.46,2.46,0,0,1,1.14.83c.53.8.13,1.88.25,2.84.28,2.28,3.15,3.06,5.44,3.31a5.75,5.75,0,0,0,2.8-.17,12.1,12.1,0,0,0,1.48-.92c2.27-1.39,5.17-1,7.8-.58a2.23,2.23,0,0,1,1.42.61,2.76,2.76,0,0,1,.33,1.67,5.46,5.46,0,0,0,10.6,1.64,7.31,7.31,0,0,1,.83-2.11,2.29,2.29,0,0,1,3.78.62c.15.43.16.9.33,1.33a3,3,0,0,0,2.89,1.52,4.9,4.9,0,0,0,3.53-1.25,3.08,3.08,0,0,0,.67-3.53l-.12-1.64a7.15,7.15,0,0,0-2-5.64c-1.55-1.36-4.31-1.39-5.45.33-.61.9-.71,2.14-1.56,2.83-1.16.94-2.85.26-4.31-.1a9,9,0,0,0-4.56,0c-1.49.41-3.41,1.06-4.32-.19a3.24,3.24,0,0,1-.45-1.5l-.47-3.78-1.42.31-4.12-.26a6.56,6.56,0,0,1-3.17-.75c-1.22-.78-1.93-2.35-3.34-2.66-1.26-.28-2.7.59-3.82-.06a6.76,6.76,0,0,1-1.27-1.34c-1.55-1.57-4.14-1-6.32-1.37-1.06-.17-2.31-1.06-1.89-2l1.32-.76a16.43,16.43,0,0,1,4.51,1.23c1.5.47,3.28.63,4.5-.35.66-.54,1.07-1.35,1.74-1.88,1.29-1,3.2-.77,4.7-.06s2.79,1.8,4.34,2.38a7.4,7.4,0,0,0,8.72-3.14,2.52,2.52,0,0,1,.58-.78c.91-.69,2.13.45,2.42,1.55s.31,2.42,1.23,3.08a3.48,3.48,0,0,0,2.37.35c2.39-.24,4.93-.52,6.82-2s2.67-4.62.94-6.28c-.61-.58-1.53-1.09-1.46-1.93a14.06,14.06,0,0,1,4.67-1.35,4.82,4.82,0,0,1,4.3,1.85c.44.67.69,1.51,1.36,1.95a2.45,2.45,0,0,0,2,.17,4.83,4.83,0,0,0-.41-9.38,10.34,10.34,0,0,0-3,0,95.77,95.77,0,0,1-19.45.09,10.47,10.47,0,0,0-3.21,0c-1,.23-2,.78-3,1.07-2.63.74-6-.14-7.77,1.91l-.51,1.39a5.23,5.23,0,0,1-5,2.17c-.67-.1-1.32-.34-2-.4a12.92,12.92,0,0,0-3.08.38,10.83,10.83,0,0,1-4.6-.27l.23-1.24a8.38,8.38,0,0,1,5.35-4c1.33-.3,2.72-.27,4-.63a3.75,3.75,0,0,0,2.88-2.59c.26-1.33-.45-3.08.68-3.84a2.05,2.05,0,0,1,1.06-.28,5.06,5.06,0,0,1,4.43,2.42,12.82,12.82,0,0,0,1.58,2.86,3.73,3.73,0,0,0,3.63.71,9.37,9.37,0,0,0,3.29-2c1.4-1.16,3-2.49,4.81-2.06a10.39,10.39,0,0,1,2.46,1.35,6.09,6.09,0,0,0,7.1-1,2.21,2.21,0,0,1,1.15-.8c.61-.09,1.12.4,1.63.75a4.66,4.66,0,0,0,5.25-.35,8,8,0,0,0,2.79-4.73,6.33,6.33,0,0,0-.48-4.71,3.26,3.26,0,0,0-4.17-1.33c-.78.45-1.27,1.3-2.08,1.69-1.88.91-3.88-1.09-6-1.28-1.87-.18-3.51,1.09-5,2.16s-3.55,2-5.21,1.15a16.24,16.24,0,0,1-2.3-2c-2.47-1.92-6.12-.67-8.63,1.18a2.53,2.53,0,0,1-1,.55,2.37,2.37,0,0,1-1-.06l-7.83-1.55a2.2,2.2,0,0,1-1.29-.56,1.77,1.77,0,0,1-.39-1.14,5,5,0,0,1,5.49-5c1.92.3,3.54,1.75,5.47,1.92,1.63.14,3.19-.66,4.8-.92,2.77-.46,5.53.64,8.27,1.25a23.54,23.54,0,0,0,16.46-2.49,4.1,4.1,0,0,0,1.77-1.57,3.15,3.15,0,0,0,0-2.57,4.94,4.94,0,0,0-9.1-.27,5.9,5.9,0,0,1-1.09,2.06,3.53,3.53,0,0,1-1.69.7,27,27,0,0,1-8.17,1,9.29,9.29,0,0,1-7.06-3.72l.42-.91c1.71-.08,2.87,1.7,4.42,2.43a4.92,4.92,0,0,0,5-.9,10.37,10.37,0,0,0,2.9-4.5,3.68,3.68,0,0,1,1-1.74,3.31,3.31,0,0,1,1.6-.53l7.31-1.12c1.33-.21,3-.3,3.73.79a14.24,14.24,0,0,1,.68,1.42,3.12,3.12,0,0,0,2.77,1.43,3.9,3.9,0,1,0-.9-7.71c-1.27.27-2.34,1.16-3.61,1.43a8.92,8.92,0,0,1-2.68,0,29,29,0,0,0-10.36,1.08,7,7,0,0,1-3,.48,3.16,3.16,0,0,1-.48-6.16c1.34-.41,2.76.1,4.14.37a6.61,6.61,0,0,0,5.41-.93c1.47-1.18,1.94-3.67.57-5s-3.83-.76-5.74-.09-4.36,1.16-5.66-.39c-1.09-1.31-.58-3.41.64-4.59a9.78,9.78,0,0,1,4.59-2.07,21.15,21.15,0,0,1,5.16-.84c1.87,0,3.77.46,5.58,0s3.49-2.35,2.78-4.08Z"></path>
    <path data-name="3" data-official="Eucalyptus macroearpa" data-plain="" data-loc="Swan River" d="M983.66,1200.68c6.06,2.71,10.13,8.44,13.89,13.9s7.41,10.78,9.41,16.94c1.23,3.82,1.78,7.84,3.17,11.61-4.9-.51-9.38-3-14.2-4-6-1.26-12.29-.16-18.28,1.29a156.77,156.77,0,0,0-41.82,16.83l-1.7.64c5.43-11.4,15.5-19.84,22.77-30.17a61.23,61.23,0,0,1,5.08-6.87c1.63-1.76,3.54-3.23,5.3-4.86C972.79,1210.9,977,1204.13,983.66,1200.68Zm-87-58.59c-4.49-1-8.47-3.57-12.34-6-4.84-3.1-10.1-6.81-11.17-12.45a12.35,12.35,0,0,1-7.37,0,195.22,195.22,0,0,0,11.89,68.26c1.9,5.17,4,10.27,6.13,15.36,4.69,11.28,9.43,22.65,16.27,32.77,3.2,4.74,7,9.6,7.16,15.33l.88,1.06q8.28-42.46,17-84.84l1.51-1.87a33.82,33.82,0,0,1-17.13-20.57c-.95-3.26-1.36-6.89.11-9.95C906.27,1142.43,901.1,1143.14,896.61,1142.09ZM698,1144.91c7.95-5.6,17.23-9,26.38-12.24a104.34,104.34,0,0,1,15-4.56c20.47-4,41.26,4.59,59.36,14.94,5.63,3.22,11.22,6.68,15.66,11.41,4.66,5,7.86,11.07,11.54,16.8A110.46,110.46,0,0,0,875.76,1213l.54-.64q-6.82-18.3-13.66-36.6c-5-13.29-10-27-9.84-41.14l1-.11a5.31,5.31,0,0,0,2.58-.71,1.8,1.8,0,0,0,.63-2.35,3,3,0,0,0-2.15-.88c-3.42-.55-6.32-2.91-8.42-5.67s-3.53-6-5.21-9a36.2,36.2,0,0,0-8.91-11.18,19.59,19.59,0,0,0-13.32-4.53,2.41,2.41,0,0,1-2-.4c-.47-.52.15-1.64.71-1.22l-.37-.28c-7,.88-14.07-1.15-20.7-3.63-5.78-2.17-11.52-4.75-16.2-8.79-6.49-5.59-10.49-13.55-16.55-19.6-1.87-1.87-4-3.63-5-6.07l.4-1.42c0-3-2.75-5.18-5.26-6.82s-5.33-3.57-5.71-6.54c-.19-1.45.26-2.91.31-4.37s-.48-3.15-1.85-3.66c-1-.39-2.29,0-3.28-.5-1.33-.71-1.32-2.77-.36-3.93a7.65,7.65,0,0,1,3.92-2.07c-.74-.79-.23-2.18.7-2.74a6.74,6.74,0,0,1,3.16-.61,4,4,0,0,0,2.94-1.15,1.43,1.43,0,0,0-.81-1.59,18.82,18.82,0,0,0-1.82-.67,4.14,4.14,0,0,1-2.16-4.81,5.2,5.2,0,0,1,4.16-3.53,3.53,3.53,0,0,1,2.57.45,6.69,6.69,0,0,1,1.72,2.63c.49.94,1.34,1.89,2.39,1.8,1.62-.14,2-2.32,1.91-3.94a14.92,14.92,0,0,0-.46-3.53c-.47-1.59-1.48-3.15-1.13-4.76a4,4,0,0,1,2.87-2.76,10.48,10.48,0,0,1,4.14-.12l1.58-1c1.74-.36,2.18-2.59,2.34-4.37s1-4,2.73-4,3.08,2.73,4.89,2.28c1.12-.28,1.57-1.66,1.5-2.82a12.13,12.13,0,0,1-.19-3.44,3.68,3.68,0,0,1,3.47-2.68,5.13,5.13,0,0,1,4,2.06c.25.32.51.68.9.73.73.1,1-.86,1.38-1.51,1-1.87,3.64-2,5.6-1.28s3.68,2.12,5.74,2.52a6.67,6.67,0,0,0,7.62-6,5.78,5.78,0,0,1,.31-2.6c.92-1.69,3.59-1.15,5,.2s2.2,3.26,3.86,4.22a4.47,4.47,0,0,0,4.3.07c.83-.46,1.5-1.17,2.31-1.66,3.75-2.25,9,.81,12.81-1.35l-.22-.72a57.94,57.94,0,0,0-22.57-14l3.92-1.51a2,2,0,0,0,1.27-.95c.31-.77-.43-1.55-1.13-2a12.08,12.08,0,0,0-5.48-1.87c-3.35-.28-7.39.6-9.55-2a17.68,17.68,0,0,0-1.46-2c-1.16-1.07-3-1-4.48-.54a43.12,43.12,0,0,1-4.44,1.64,17.75,17.75,0,0,1-3.79.13c-7.83-.16-15.56,2.41-23.38,2-1.47-.08-3.23-.49-3.72-1.88-.55-1.56,1-3.12,2.53-3.64a7,7,0,0,1,3.75-.15c1.61.4,3,1.36,4.61,1.86s3.58.39,4.56-1a4.2,4.2,0,0,0,.1-4,89.72,89.72,0,0,0,14.57,0c3.38-.32,6.83-.91,10.15-.15a23.66,23.66,0,0,0,3.71.83,3.6,3.6,0,0,0,3.34-1.42c.26-.43.39-.94.67-1.37a3.22,3.22,0,0,1,3.12-1.2,12,12,0,0,1,3.31,1.16,9.53,9.53,0,0,0,5.51,1c1.87-.35,3.61-1.94,3.54-3.84a3.18,3.18,0,0,1,0-1.11,1.68,1.68,0,0,1,.66-.83,5,5,0,0,1,4.45-.26,38.15,38.15,0,0,0,4.34,1.57,7.27,7.27,0,0,0,7.19-2.83l-.08-1c5.43-1.82,11.26-2,17-2a26.53,26.53,0,0,1,6.48.53,27.15,27.15,0,0,1,4.95,1.93l6.45,3h1.58c4.47-1.16,9.13,1.21,12.63,4.21s6.43,6.74,10.35,9.17c2.53,1.56,5.37,2.53,8,3.95,6,3.3,10.47,8.94,13.63,15s5.17,12.7,7.43,19.19c3.11,8.92,6.73,17.78,7.91,27.16l1.15,1.84c3.91,3.08,5.91,7.92,7.76,12.54q1.05,2.61,2.08,5.22l.49.94A441.61,441.61,0,0,0,968.69,981l0-1c-13.6-5.66-25.12-15.27-36.26-24.9-4.92-4.25-9.83-8.57-13.89-13.65-6-7.5-9.91-16.4-13.76-25.19-5-11.32-10-22.73-12.58-34.8a103.64,103.64,0,0,1-1.61-33.1c.9-8.34,2.7-16.64,2.28-25a47.56,47.56,0,0,0-5.21-19.32c7.53,2.09,10,11.37,15.34,17.07,4.31,4.62,10.56,6.84,15.67,10.55,5.63,4.08,9.81,9.93,15.52,13.89,4.76,3.32,10.41,5.19,15.17,8.53,9.37,6.56,14.06,17.81,18.29,28.44,7.11,17.9,14.36,36.83,11.66,55.91h.21c2.79-15.13,11.91-29.63,9.28-44.79-1.42-8.19-6.14-15.35-10.13-22.64-11.35-20.76-17.26-44-23.05-66.92-4.17-16.48-8.36-33.21-7.87-50.21.72-24.92,13.52-32,8-74.08l1.53-.12a86.69,86.69,0,0,0,12.27,41c3.46,5.76,7.59,11.09,11,16.9,3.89,6.68,6.76,13.9,9.58,21.11,8.19,20.91,16.21,42.49,16.39,65,.14,17.29-4.38,34.8-.7,51.69a18.21,18.21,0,0,1,2.37-7.45l1.14-2.77c6-13.1,12-26.23,19.33-38.62a47.61,47.61,0,0,0,2.42-4.37,42.23,42.23,0,0,0,2-5.82q8-27.09,13.25-54.89l1.3-2.67c-1.81-1-2.66-3.14-2.85-5.19s.15-4.11,0-6.16c-.41-5.56-4.21-10.18-6.66-15.19-6-12.25-3.8-27,1.29-39.69s12.83-24.08,18.19-36.62c1.24-2.92,2.36-5.89,3.67-8.77,2.31-5,5.23-9.79,7.42-14.88s3.66-10.69,2.83-16.17l.94.48c2.61,7.13,1,15.14,2.64,22.56.55,2.45,1.45,4.81,1.93,7.28a43.31,43.31,0,0,1,.49,8.67l-.3,27.92.47.64a56.84,56.84,0,0,1,5.92-9.66c1.35-1.78,2.91-3.56,5-4.27a46.39,46.39,0,0,1,3.87,21.27l0,.29,13.7-10c0,6,1.41,11.91,1.32,17.89a35.26,35.26,0,0,1-5.08,17.62c-3.39,5.58-8.34,10.21-11,16.19l.31.24a270.15,270.15,0,0,1,28-18.83c1.92-1.13,3.86-2.23,5.66-3.54,1.62-1.18,3.12-2.52,4.62-3.86l10.7-9.55,6.11-3.12,8.89-20.38c76.45-9.66,153.83-22.58,223.08-56.36,12-5.84,23.69-12.3,36.33-16.46,19.66-6.47,40.82-7.11,61.43-5.2,16,1.48,32,4.46,48,3.47s32.68-6.62,42.7-19.19c14.65-18.38,10.58-46.45-3-65.6s-34.62-31.47-55-43.2L1457,441.3l-32.5-.31a507.73,507.73,0,0,0-224.64-3.74c-10.14,2.14-22.33,4-29.43-3.55-3.34-3.55-4.7-8.47-5.94-13.18-5.06-19.16-9.59-41.2,1.74-57.46,5.92-8.49,15.24-13.82,23.81-19.63,50.49-34.19,82.45-97.74,70.58-157.55s-72.75-108.39-132.91-98.46c-16.81,2.78-34,9.57-50.33,4.74-28.6-8.46-41-48.6-70.65-51.95-22.67-2.57-41.49,18.45-64.11,21.47-29.09,3.89-52.5-21.76-78.22-35.9-55.31-30.39-125.55-6.2-176.27,31.34C667,72.74,646.72,91,621.44,98.08c-36.25,10.15-74.34-4.74-112-6.36-13-.55-27.72,1.35-35.56,11.71-5.31,7-6.19,16.53-4.92,25.24,3.68,25.29,22.67,45.07,37.9,65.59s27.64,47.9,16.54,70.91c-6.63,13.75-20.26,22.6-33.65,29.91-107.25,58.59-235.28,62.24-351.57,99.82-34.18,11-72.52,31.47-76.21,67.2-2.4,23.13,11.15,44.72,25.43,63.07,31.31,40.24,76.1,78,126.85,73.1,13.21-1.29,26.09-5.48,39.35-5.81s27.93,4.35,34.26,16S286.25,638.36,273,637.6l-17.2,12C143.4,698.57,65.39,817.75,65.49,940.33c0,34.93,5.84,69.74,4.57,104.64s-10.77,71.48-36,95.6c-5.66,5.39-12.17,10.28-15.6,17.31s-3.26,15.6-2.29,23.54c8.05,65.85,59,117.79,111.14,158.78,39.59,31.12,82.11,59.42,129.4,76.7s100,22.94,148.26,8.66c21.4-6.32,41.61-16.41,63.28-21.69,35.22-8.57,72.56-4.06,107.9-12.11l18.48-1.91c11.09-7.53,24.06-15.41,37-12l5.77-1.54c1.15-1.93,2.45-4,4.56-4.78,1-.38,2.3-.52,2.84-1.47a5.67,5.67,0,0,0,.38-1.07c.61-1.77,2.53-2.75,4.37-3.1s3.75-.28,5.55-.82a1.24,1.24,0,0,0,.66-.37,1.34,1.34,0,0,0,.19-.84,24.21,24.21,0,0,1,.18-5.52,3,3,0,0,1,1.18-2,2.81,2.81,0,0,1,3.19.65c.87.77,1.47,1.81,2.34,2.58a2.79,2.79,0,0,0,3.2.6c1.27-.81,1-2.68,1.32-4.16a3.47,3.47,0,0,1,2.77-3c1.57-.16,2.89,1.13,3.8,2.42s1.8,2.76,3.29,3.29c.59-1.29.49-2.78.71-4.18s1-2.94,2.42-3.18,2.75,1,3.56,2.31,1.6,2.75,3,3.2a2.85,2.85,0,0,0,3.32-1.47c.56-1.22.26-2.84,1.23-3.76s2.51-.53,3.49.3a23.36,23.36,0,0,1,2.37,3,3.49,3.49,0,0,0,3.31,1.51c1.86-.47,2.89-3.28,4.77-2.86.82.18,1.35.94,2,1.49s1.74.84,2.23.15l1.29-1,.06-3.76a38.78,38.78,0,0,1,23.37,7.78l1-.25a1.17,1.17,0,0,1-.13-1.3c7.83,1,15.29,3.84,22.44,7.17a82.66,82.66,0,0,1,13.51,7.62,53.92,53.92,0,0,1,16.16,18.58l2.54,1.42a8.69,8.69,0,0,1,1.93-3.36l1.09-3.32a7.77,7.77,0,0,0-1.78-6.15,21.6,21.6,0,0,0-5-4.26q-6.84-4.65-14-8.85a32.82,32.82,0,0,1-6.36-4.38,31.37,31.37,0,0,1-4.68-6.32,57.2,57.2,0,0,1-6-11.68c-1.71-5.08-2-10.52-2-15.87,0-4.69.25-9.37.52-14.05l1.89,1.91.27-.64c-.68-4.31,1-8.59,2.11-12.8,3.66-13.61,1.87-28.13-1.75-41.75,4.86,6.37,9.88,12.89,16.74,17l.1-.93c-4.65-9.56-4.84-20.7-3.49-31.24s4.14-20.88,5.12-31.46l1.54,1.52q.14-7.73.28-15.44a2.48,2.48,0,0,0-.17-1.18c-.4-.77-1.49-.92-2-1.61-.64-.85-.15-2.1.61-2.83s1.77-1.19,2.48-2c1-1.15,1.29-2.8,1.86-4.26s1.88-2.91,3.42-2.63l.06-2.16c-7.59-1.21-15.3-2.45-22.24-5.75-5.94-2.82-11.14-7.07-17.19-9.64-7.92-3.38-16.77-3.69-25.37-3.42a211,211,0,0,0-35.95,4.22C683.41,1158.73,690,1150.51,698,1144.91Zm249.45,34.87c-2.55-1.21-5.25-2.39-8.07-2.21a47,47,0,0,0-1.39,15.45c.27,3.63.89,7.63-1.15,10.65-.56.83-1.29,1.53-1.87,2.34-1.9,2.61-2.13,6-2.4,9.24a138.65,138.65,0,0,1-5.9,29.79c8.37-8,16.61-16.28,23.37-25.7a82.05,82.05,0,0,1,5.44-7.25c3.72-4.14,8.56-7.2,11.94-11.61,1.83-2.39,3.35-5.26,6.07-6.54l-1.84-.73A210.7,210.7,0,0,0,947.4,1179.78Zm-70.21,112.83a43.93,43.93,0,0,0-3.31-15.17,6.35,6.35,0,0,0-1.35-2.25c-1.26-1.18-3.17-1.23-4.88-1.46-6.35-.88-11.64-5.21-16.12-9.79a100.37,100.37,0,0,1-20.37-30.36,21.51,21.51,0,0,0-3.32-6.06c-1.53-1.73-3.91-2.92-6.15-2.36-3.81,4.3-4.1,10.58-4.19,16.33q-.48,31.23-1,62.45a37.62,37.62,0,0,1-1.12,10.38,19.24,19.24,0,0,0-.67,2.36,15.28,15.28,0,0,0-.12,2.62,44.43,44.43,0,0,1-3.73,17.86c-2.29,5.24-5.69,10.55-4.73,16.19,2-8.44,8.81-14.78,15.26-20.59l10.39-9.35-.86.13a101.52,101.52,0,0,1-5.23-55,37.25,37.25,0,0,0,29.56,17.77c2.24.12,5.05.41,5.76,2.53.28.85.11,1.8.4,2.65.52,1.56,2.32,2.24,3.93,2.55a24.74,24.74,0,0,0,10.21-.15Zm12.76,2.26a3.84,3.84,0,0,0-3.77.49,11.68,11.68,0,0,0-2.65,3l-10,14.29c3.72.61,6.68,3.62,8.25,7s2,7.24,2.37,11l.91-2.34A91,91,0,0,0,890,1294.87Zm711.12-571.44c-4.29,5.86-10.24,10.23-15.79,14.92-48,40.54-70.1,108.39-124.32,140.2-7.68,4.5-17.28,11.35-14.46,19.78,2.34,7,12.4,9.69,13.39,17l15.53,15.46c-2,9,4.93,17.31,11,24.24a281.47,281.47,0,0,1,40.94,61l-13.55,8.75c.71,1.73-1,3.63-2.78,4.08s-3.71,0-5.58,0a21.15,21.15,0,0,0-5.16.84,9.78,9.78,0,0,0-4.59,2.07c-1.22,1.18-1.73,3.28-.64,4.59,1.3,1.55,3.76,1.06,5.66.39s4.28-1.31,5.74.09.9,3.79-.57,5a6.61,6.61,0,0,1-5.41.93c-1.38-.27-2.8-.78-4.14-.37a3.16,3.16,0,0,0,.48,6.16,7,7,0,0,0,3-.48,29,29,0,0,1,10.36-1.08,8.92,8.92,0,0,0,2.68,0c1.27-.27,2.34-1.16,3.61-1.43a3.9,3.9,0,1,1,.9,7.71,3.12,3.12,0,0,1-2.77-1.43,14.24,14.24,0,0,0-.68-1.42c-.78-1.09-2.4-1-3.73-.79l-7.31,1.12a3.31,3.31,0,0,0-1.6.53,3.68,3.68,0,0,0-1,1.74,10.37,10.37,0,0,1-2.9,4.5,4.92,4.92,0,0,1-5,.9c-1.55-.73-2.71-2.51-4.42-2.43l-.42.91a9.29,9.29,0,0,0,7.06,3.72,27,27,0,0,0,8.17-1,3.53,3.53,0,0,0,1.69-.7,5.9,5.9,0,0,0,1.09-2.06,4.94,4.94,0,0,1,9.1.27,3.15,3.15,0,0,1,0,2.57,4.1,4.1,0,0,1-1.77,1.57,23.54,23.54,0,0,1-16.46,2.49c-2.74-.61-5.5-1.71-8.27-1.25-1.61.26-3.17,1.06-4.8.92-1.93-.17-3.55-1.62-5.47-1.92a5,5,0,0,0-5.49,5,1.77,1.77,0,0,0,.39,1.14,2.2,2.2,0,0,0,1.29.56l7.83,1.55a2.37,2.37,0,0,0,1,.06,2.53,2.53,0,0,0,1-.55c2.51-1.85,6.16-3.1,8.63-1.18a16.24,16.24,0,0,0,2.3,2c1.66.86,3.67-.08,5.21-1.15s3.18-2.34,5-2.16c2.07.19,4.07,2.19,6,1.28.81-.39,1.3-1.24,2.08-1.69a3.26,3.26,0,0,1,4.17,1.33,6.33,6.33,0,0,1,.48,4.71,8,8,0,0,1-2.79,4.73,4.66,4.66,0,0,1-5.25.35c-.51-.35-1-.84-1.63-.75a2.21,2.21,0,0,0-1.15.8,6.09,6.09,0,0,1-7.1,1,10.39,10.39,0,0,0-2.46-1.35c-1.77-.43-3.41.9-4.81,2.06a9.37,9.37,0,0,1-3.29,2,3.73,3.73,0,0,1-3.63-.71,12.82,12.82,0,0,1-1.58-2.86,5.06,5.06,0,0,0-4.43-2.42,2.05,2.05,0,0,0-1.06.28c-1.13.76-.42,2.51-.68,3.84a3.75,3.75,0,0,1-2.88,2.59c-1.32.36-2.71.33-4,.63a8.38,8.38,0,0,0-5.35,4l-.23,1.24a10.83,10.83,0,0,0,4.6.27,12.92,12.92,0,0,1,3.08-.38c.68.06,1.33.3,2,.4a5.23,5.23,0,0,0,5-2.17l.51-1.39c1.81-2,5.14-1.17,7.77-1.91,1-.29,2-.84,3-1.07a10.47,10.47,0,0,1,3.21,0,95.77,95.77,0,0,0,19.45-.09,10.34,10.34,0,0,1,3,0,4.83,4.83,0,0,1,.41,9.38,2.45,2.45,0,0,1-2-.17c-.67-.44-.92-1.28-1.36-1.95a4.82,4.82,0,0,0-4.3-1.85,14.06,14.06,0,0,0-4.67,1.35c-.07.84.85,1.35,1.46,1.93,1.73,1.66.94,4.8-.94,6.28s-4.43,1.77-6.82,2a3.48,3.48,0,0,1-2.37-.35c-.92-.66-.94-2-1.23-3.08s-1.51-2.24-2.42-1.55a2.52,2.52,0,0,0-.58.78,7.4,7.4,0,0,1-8.72,3.14c-1.55-.58-2.85-1.67-4.34-2.38s-3.41-1-4.7.06c-.67.53-1.08,1.34-1.74,1.88-1.22,1-3,.82-4.5.35a16.43,16.43,0,0,0-4.51-1.23l-1.32.76c-.42,1,.83,1.88,1.89,2,2.18.35,4.77-.2,6.32,1.37a6.76,6.76,0,0,0,1.27,1.34c1.12.65,2.56-.22,3.82.06,1.41.3,2.12,1.88,3.34,2.66a6.56,6.56,0,0,0,3.17.75l4.12.26,1.42-.31c.16,1.26.31,2.52.47,3.78a3.24,3.24,0,0,0,.45,1.5c.91,1.25,2.83.6,4.32.19a9,9,0,0,1,4.56,0c1.46.36,3.15,1,4.31.1.85-.69,1-1.93,1.56-2.83,1.14-1.72,3.9-1.69,5.45-.33a7.15,7.15,0,0,1,2,5.64l.12,1.64a3.08,3.08,0,0,1-.67,3.53,4.9,4.9,0,0,1-3.53,1.25,3,3,0,0,1-2.89-1.52c-.17-.42-.18-.9-.33-1.33a2.29,2.29,0,0,0-3.78-.62,7.31,7.31,0,0,0-.83,2.11,5.46,5.46,0,0,1-10.6-1.64,2.76,2.76,0,0,0-.33-1.67,2.23,2.23,0,0,0-1.42-.61c-2.63-.43-5.53-.81-7.8.58a12.1,12.1,0,0,1-1.48.92,5.75,5.75,0,0,1-2.8.17c-2.29-.25-5.16-1-5.44-3.31-.12-1,.28-2-.25-2.84a2.46,2.46,0,0,0-1.14-.83,9.71,9.71,0,0,0-11.38,3.11,1.27,1.27,0,0,0-.34,1c.12.47.68.66,1.15.78l14.93,3.67a10.17,10.17,0,0,0,4.12.44,15.15,15.15,0,0,1,2.57-.5c1.85,0,3.26,1.66,4.13,3.29s1.52,3.48,3,4.61a1.33,1.33,0,0,0,.87.36c.55,0,.89-.58,1.23-1,1.33-1.63,3.68-1.88,5.78-2,2.92-.17,6.64.15,7.63,2.91.34,1,.3,2.13,1.06,2.8s1.57.56,2.14,1.14.64,1.39,1.29,1.71,1.33,0,2-.32a9.11,9.11,0,0,1,4.75-.72,3,3,0,0,1,2.33,1.16,3.57,3.57,0,0,1,.39,1.64,14.14,14.14,0,0,1-.45,6.15c-.75,1.93-2.66,3.58-4.71,3.32a5.44,5.44,0,0,1-3.74-3,6.89,6.89,0,0,0-1.27-1.89,4.74,4.74,0,0,0-1.8-.85,30.72,30.72,0,0,0-10.87-1.22c-2.35.16-5.2.38-6.53-1.56a13,13,0,0,1-1.1-3.16c-.39-1.05-1.36-2.1-2.46-1.85l-1.16.88c-1.53,2.55-3.63,5.43-6.6,5.33.34.76.68,1.52,1,2.29,2.46-.54,4.46,2,6.86,2.72,2.69.83,5.67-.65,8.4.07a10.63,10.63,0,0,0,1.72.45,5.57,5.57,0,0,0,1.76-.27c1.87-.47,4-.73,5.58.42a10.85,10.85,0,0,1,2.09,2.69c1.7,2.46,4.68,4.25,7.62,3.71s5.91-3.56,8.87-2.49a4.77,4.77,0,0,1,2.75,3.32,12.09,12.09,0,0,1,.12,4.45,6.28,6.28,0,0,1-1.35,3.86,5.15,5.15,0,0,1-3.55,1.33,5.34,5.34,0,0,1-4.26-1.44c-.83-.93-1.12-2.26-2-3.1a5.25,5.25,0,0,0-3.21-1.12,21.31,21.31,0,0,0-6.89.52,17.75,17.75,0,0,1-4.25.82,3.89,3.89,0,0,1-3.6-2c-.73-1.64.23-3.73-.7-5.26-.75-1.24-2.37-1.55-3.8-1.74a2,2,0,0,0-1.76.33,1.87,1.87,0,0,0-.37,1.11c-.29,3.32.25,7.22-2.22,9.45a10.31,10.31,0,0,0-1.55,1.39,1.46,1.46,0,0,0,0,1.9,2,2,0,0,0,1.34.33h5.11a5.91,5.91,0,0,0,2.09-.24,9.36,9.36,0,0,0,2.54-1.92,5.14,5.14,0,0,1,3.29-1.35,2.87,2.87,0,0,1,2.74,2c.16.61.06,1.26.17,1.89a2.83,2.83,0,0,0,1.31,1.9c1.43.86,3.29.29,4.74-.53s2.88-1.89,4.54-2a5.24,5.24,0,0,1,4.54,2.41,8.8,8.8,0,0,1,1.31,5.13c-.05,2.21-1,4.74-3.06,5.42a4.53,4.53,0,0,1-4.1-1,13.1,13.1,0,0,1-2.73-3.4,2.8,2.8,0,0,0-1.13-1.18,3.68,3.68,0,0,0-2.12.1c-3.1.57-6.2-1.49-9.33-1.08a1.93,1.93,0,0,0-.86.27,2.71,2.71,0,0,0-.79,1.19,8.92,8.92,0,0,1-3.26,3.78,6.44,6.44,0,0,1,4.48,4.19c.91,2.81-.23,5.92.44,8.79.08.36.73.63.65.27l1.26.47c2.31.14,4.1,2.19,4.84,4.38s.67,4.55.87,6.85a1.76,1.76,0,0,0,.66,1.47,2,2,0,0,0,1.19.08,6.06,6.06,0,0,1,4.21,1c2.14,1.61,2.55,4.67,2.33,7.34a24.39,24.39,0,0,1-4.07,11.63c-1.76,2.62-4.15,5.31-3.72,8.43l-1,3.39c.26,12.48-5.29,24.25-10.72,35.49l-15.29,31.62-1.58.74a7.23,7.23,0,0,1-.91,5.41c-.88,1.65-2.06,3.15-2.8,4.87a10.07,10.07,0,0,1-.92,1.93c-1.34,1.89-4.11,2-6,3.39s-2.48,3.5-2.75,5.64-.14,4.32-.59,6.43a12.15,12.15,0,0,1-4.22,6.89,13.83,13.83,0,0,0-2.63,2.3,2.7,2.7,0,0,0-.21,3.24,6.39,6.39,0,0,0,1.28,1c2.27,1.63,2.47,5.11,1.21,7.6s-3.6,4.24-5.85,5.89l-.42,2.11c-.48,2.67-1,5.41-2.4,7.72a5.12,5.12,0,0,1-.8,1,7.75,7.75,0,0,1-3.56,1.72l-3.71,1.07-.16,2.21a7.26,7.26,0,0,1-10.09,9.51c-1-.53-1.85-1.3-2.93-1.32-1.71,0-2.88,1.8-3.09,3.49s.16,3.43-.2,5.1a7.44,7.44,0,0,1-4.69,5.1,13.72,13.72,0,0,1-7.14.48l-1.2.68c-2.33,3.93-7.07,7.15-11.33,5.48a28.72,28.72,0,0,0-3.49-1.58c-3.63-.86-6.74,2.89-10.43,3.47-1.35.21-2.86,0-4,.79-.59.41-1,1-1.65,1.33a3.18,3.18,0,0,1-3-.71,12.52,12.52,0,0,0-2.18-1.45,4.16,4.16,0,0,0-4.94,1.44c-1,1.47-.92,3.37-1,5.13s-.57,3.76-2.12,4.61l-2.06,1.57a65.05,65.05,0,0,1-17.78,13.48l-2.81,2.06c-9.07,7.27-19.25,13-29.47,18.54-8.27,4.47-16.65,8.84-25.55,11.87-4.06,1.39-8.22,2.5-12.26,4-4.52,1.64-8.87,3.74-13.26,5.7-14.78,6.61-31.06,11.88-47,8.93-4-.75-8-2-12.07-1.84-3.91.17-7.63,1.66-11.26,3.12l-3.6,1.71-10.23-11.51a28.12,28.12,0,0,0-4.61-4.45,7.83,7.83,0,0,1-2.64-2.33c-.39-.72-.49-1.56-.87-2.27-1-1.91-3.56-2.22-5.61-2.93a1.94,1.94,0,0,1-1.18-.82c-.36-.72.16-1.56.16-2.37a2.49,2.49,0,0,0-2.16-2.19,8.21,8.21,0,0,0-3.29.34,45.87,45.87,0,0,1-9.47,1.18c-1.6,0-3.56-.25-4.14-1.74-.64-1.68.74-4.29-.91-5a15.38,15.38,0,0,1-16.39-1.56l-1.2-1c.22-1.83.43-3.78-.36-5.45s-3-2.79-4.55-1.78c-1.28.84-2.23,2.93-3.62,2.31s-.93-3.37-2.44-3.57a2.12,2.12,0,0,0-1.41.57c-2.19,1.63-5.11,3.41-7.42,1.94-1.39-.88-2.08-2.78-3.66-3.26-1.78-.54-3.55,1-5.41,1-2.54-.06-4.06-3-6.46-3.83-1.06-.37-2.29-.35-3.15-1.06-1.75-1.46-.66-4.77-2.44-6.17-1.19-.93-2.9-.44-4.31.09a9.65,9.65,0,0,0-3.42,1.86,32.65,32.65,0,0,0-2,2.64,3.12,3.12,0,0,1-2.86,1.32l-.48-4.75a2.81,2.81,0,0,0-.73-2,2.28,2.28,0,0,0-1.62-.37,8.77,8.77,0,0,0-5.79,3.14,26.44,26.44,0,0,0-3.55,5.74l-.61.29a2.52,2.52,0,0,0-.7-2.5,5.51,5.51,0,0,0-2.37-1.3,2,2,0,0,1-1-.49,1.84,1.84,0,0,1-.36-1,21.54,21.54,0,0,1-.16-4.17,16.73,16.73,0,0,0,.09-3.08,3.37,3.37,0,0,0-3.12-3.32,5.46,5.46,0,0,0-4.53,1.1,3.38,3.38,0,0,0-.65,4.34,1.52,1.52,0,0,1,.39.71c0,.59-.67.87-1.12,1.24a1.8,1.8,0,0,0,.31,2.84l.58,1.66a11.91,11.91,0,0,1,0,3.86c-1-.16-1.42-1.3-1.6-2.27s-.41-2.12-1.3-2.54-2,.18-2.85.81-1.83,1.32-2.82,1l-.14-1.57a2.74,2.74,0,0,1,.18-2.9,4.81,4.81,0,0,0,.91-1.26,2.57,2.57,0,0,0,0-1.2,11.49,11.49,0,0,0-1.46-4.35,3.92,3.92,0,0,0-3.93-1.86,2.06,2.06,0,0,0-1,.5,2.33,2.33,0,0,0-.49,2.18,15.64,15.64,0,0,0,.83,2.19,8.52,8.52,0,0,1-.26,6.59c-.39.81-1.23,1.66-2,1.28-.54-.26-.75-1-1.3-1.22-.77-.34-1.57.44-1.94,1.19s-.72,1.67-1.53,1.9-1.64-.4-2.21-1-1.17-1.4-2-1.49l0-1a34.56,34.56,0,0,0-5.88-1.16,12.19,12.19,0,0,0,3.16-4.47,2.26,2.26,0,0,0,2.43.33,4.19,4.19,0,0,0,1.84-1.79c1.1-1.84,1.25-4.46-.29-6a5.82,5.82,0,0,0-3.24-1.38,3.8,3.8,0,0,0-3,.46,3.74,3.74,0,0,0-1.11,2.13,4.84,4.84,0,0,0-.14,2.17,12.73,12.73,0,0,0,1.18,2.44,2.17,2.17,0,0,1-.19,2.52c-.41.36-1,.46-1.36.86-.52.62-.39,1.82-1.18,2l-.17-.08c-10.54-8-20.83-16.62-28.41-27.45a71.35,71.35,0,0,0-4.46-6.15,44.57,44.57,0,0,0-7-6.16q-8.6-6.48-17.76-12.16l.38-.75,10-.71c3-.22,6.13-.46,8.78-1.91,1.08-.59,2.07-1.38,3.2-1.87,3.65-1.6,8.6-.16,11.31-3.08,1.14-1.23,1.55-2.94,2.36-4.4a8.81,8.81,0,0,1,6-4.31c1.28-.24,2.77-.27,3.59-1.28s.63-2.16,1.14-3.17c1.34-2.66,6.11-2.43,6.84-5.33.26-1.07-.18-2.21.06-3.29.28-1.25,1.41-2.1,2.17-3.13,1.33-1.81,1.54-4.17,1.7-6.41a10.08,10.08,0,0,0-.38-4.64,3.47,3.47,0,0,0-3.67-2.28l.35-.79a30.77,30.77,0,0,0,1.78-5.79,24.89,24.89,0,0,0-11.12-1.3,29.42,29.42,0,0,0-.84-11.66,10.33,10.33,0,0,0-2.82-5.16c-1.5-1.3-3.89-1.77-5.49-.59.61-2.74-1.61-5.48-4.27-6.37s-5.56-.38-8.27.35a4.19,4.19,0,0,1-1.75.22,4.65,4.65,0,0,1-1.31-.54,15.07,15.07,0,0,0-9.9-1.3,6.77,6.77,0,0,0-4.75-3.7,19.87,19.87,0,0,0-6.21-.23c0-2.06-.13-4.43-1.77-5.68s-4-.74-5.76.22-3.43,2.31-5.4,2.79-4.07.19-5.25,1.65a5.28,5.28,0,0,0-.85,2.82c-.44,4.39-.7,9.35,2.24,12.64a14.15,14.15,0,0,1,1.58,1.79,7.5,7.5,0,0,1,.84,2.32l1.74,7.1a4.64,4.64,0,0,0-6.14,1.85,8.77,8.77,0,0,0-.69,3.84q-.09,4,0,8a29,29,0,0,0,1.09,8.2,10.93,10.93,0,0,0,5,6.39,2.8,2.8,0,0,1,1.34,1,2.5,2.5,0,0,1,.07,1.44,34.11,34.11,0,0,0,3.46,20.27l-.73.27a36.68,36.68,0,0,0-38.93,6.16,28.13,28.13,0,0,0-17.22-1.75l1-1.13a248.87,248.87,0,0,0,7.79-37.63,5,5,0,0,0,5.63-1.91,11.26,11.26,0,0,0,1.22-3.42,34.33,34.33,0,0,1,4.53-10.29c1.61-2.46,3.63-5.09,3.13-8l.2-.32c2.24-.52,4.86-1.4,5.43-3.63.28-1.13-.08-2.34.09-3.5a7.76,7.76,0,0,1,2.32-3.86l8.07-8.85c1.49-1.63,3.06-3.47,3.12-5.68a25.74,25.74,0,0,1-8.61.65l-.73-.76c4.77-5.57,10.91-9.82,17.39-13.27a59.25,59.25,0,0,1,17.88-6.49,52.56,52.56,0,0,1,17.56.24c11.93,2,23.17,7.27,33.18,14.07s18.88,15.16,27.24,23.92c5.38,5.64,11.26,11.84,19,12.75a3.61,3.61,0,0,1-2.48,2.22l-.27.29c9.22,8.49,20,15.1,30.66,21.65a53.45,53.45,0,0,0,7.74,4.17c3,1.22,6.23,1.87,9.35,2.82a51.92,51.92,0,0,1,30.87,26.1,2.09,2.09,0,0,0,0,.25l.64,1.06c-.21-.44-.44-.88-.65-1.31-.74-13.62,1.53-27.21,2.19-40.83s-.48-28.07-7.45-39.89c-3.28-5.57-7.72-10.34-12.13-15.07a61.47,61.47,0,0,0-5.92-5.83,44.5,44.5,0,0,0-8.61-5.37,77.45,77.45,0,0,0-42-7.62l-1.35-.26a40.09,40.09,0,0,0-19.1-6.36l-1.48-.71c.48-8.27.78-16.58-.29-24.79-.55-4.28-1.48-8.61-.72-12.86.4-2.25,1.27-4.38,1.81-6.6,2.26-9.28-1.26-18.88-4.72-27.78l3.43-6.4c-1-7.8,2.55-15.73,8.12-21.27s13-8.92,20.58-11l5-1.33c11.43-.22,22.1-5.4,32.29-10.58a31.55,31.55,0,0,1,17.16-4.4l15.83-.72c3-.14,6.17-.3,8.86-1.69,4.32-2.22,6.55-7,8.2-11.6a128.64,128.64,0,0,0,4.31-14.48l-2.33-7.69c-.69-8.94-5-17.31-10.66-24.25s-12.73-12.61-19.81-18.12c-15.44-12-32-23.91-51.26-27.35l-3.57,1.09a41,41,0,0,1-9.82,4.57,5.44,5.44,0,0,1-4.06.1,9.48,9.48,0,0,1-1.93-1.66,14.29,14.29,0,0,0-3.51-2.14l-8.06-3.93a10.1,10.1,0,0,0-3.77-1.24,17.78,17.78,0,0,1-2.31,0,12.09,12.09,0,0,1-2-.73,7.06,7.06,0,0,0-6.47.81c-.66.47-1.37,1.09-2.16.91s-1-.78-1.49-1.26c-1.81-1.94-5.14-1.67-7.27-.08l-2,1.64a4.79,4.79,0,0,1-4.26,4.33c-1.19.09-2.38-.28-3.57-.2a4.87,4.87,0,0,0-4.29,3.66c-.15.64-.16,1.31-.37,1.94a9.6,9.6,0,0,1-2.16,2.9c-.79.93-1.44,2.21-1,3.33a6.33,6.33,0,0,0-6,8.3l-.6-.49a15.42,15.42,0,0,0-8.23,3.71,46,46,0,0,0-6.22,6.71l-4.83,6c-.17-6.41,2.32-12.56,3.23-18.91.31-2.2.44-4.43.65-6.64a165,165,0,0,1,2.88-17.08l4.59-22.44,1.11-.59c6.65-2,11.13-8,15.54-13.31,11.89-14.44,27.63-27,46.16-29.55,23.68-3.23,48.49,10.24,71,2.22,8.05-2.87,14.9-8.26,22.14-12.81s15.46-8.43,24-7.67l-.23-1.44c-7.66,0-14.51-4.48-21.81-6.8-5.84-1.85-12-2.33-18.12-2.75q-12.39-.84-24.79-1.42c-18-.84-37.25-1-52.59,8.57-4.1,2.54-7.8,5.71-11.89,8.28-6.31,3.95-13.44,6.4-19.88,10.13a57.16,57.16,0,0,0-18.11,16.63c-2.34,3.37-4.38,7-7.48,9.72l-.52-.75c-.61-2.51.33-5.1,1.21-7.53a226.48,226.48,0,0,0,9.8-36l.95-1a5,5,0,0,0,3-3.7,14.55,14.55,0,0,0,0-5l.09-.23c3.68-.35,6.11-3.8,8.8-6.34a42.91,42.91,0,0,1,9.46-6.17c9.48-5,19.14-10.17,29.68-12.23,16.34-3.21,33.38,1.17,49.85-1.36,17.1-2.63,32.66-12.87,42.91-26.81l1-.19c4.11-.91,6.9-4.61,9.22-8.11q5.92-8.93,10.94-18.4c2.7,1,5.37-1.45,7.1-3.75s4-5,6.85-4.49l-.88-.61c-5-.92-10.13-1.84-15-.51-1.88.52-3.67,1.36-5.58,1.77-2.85.62-5.82.24-8.72-.11q-25.15-3.07-50.53-3.82l-4-.46A128.41,128.41,0,0,0,1057.46,841c-5,4.25-9.77,9-15.61,12-3.55,1.83-7.47,3-10.69,5.38-5.47,4-8.45,11.12-14.59,14l.66-.51c7.13-10.06,10.56-22.19,15.79-33.34a163.27,163.27,0,0,1,9.31-16.77c3.78-6.09,7.88-12.16,13.54-16.56,4.3-3.34,9.33-5.58,14.27-7.86,17.56-8.09,34.78-17,51-27.54l4.13-2.1,19.66-2.18c60.27-48.76,145.89-51.23,213.47-89.21,13-7.32,25.47-16,39.62-20.82,13.57-4.61,28.1-5.44,42.42-6.1q27-1.23,54-1.84c12.62-.28,25.51-.42,37.55,3.41,11.57,3.68,21.68,10.82,31.58,17.85l28.92,20.55c5.17,3.67,10.62,7.69,12.83,13.63C1607.8,709.76,1605.37,717.57,1601.07,723.43ZM1472.79,1144a3.5,3.5,0,0,1-3.18-.75,1.65,1.65,0,0,0-.51-.51,1.28,1.28,0,0,0-.7,0l-1.37.2a1.27,1.27,0,0,0-.66.22,1.2,1.2,0,0,0-.32.8c-.17,1.29-.1,2.61-.28,3.9a5.31,5.31,0,0,1-1.66,3.44l1,1.67,7.21.8a1,1,0,0,0,.6,0,1,1,0,0,0,.41-.86,16.73,16.73,0,0,1,.57-4.13c.61-1.6,2-2.82,2.58-4.44a.48.48,0,0,0,0-.31c0-.14-.21-.19-.36-.23A9.43,9.43,0,0,0,1472.79,1144Zm-19.42-22.65-.43.64,16.78,1a2.12,2.12,0,0,0,.87-.08c.89-.35,1-1.74,1.83-2.14l-17.9-3.38c-.38-.07-.85-.11-1.06.21a1,1,0,0,0-.1.55Zm1.83,18.53a8,8,0,0,0,1.62.13l8.54.08a3,3,0,0,0,1.22-.17,2.27,2.27,0,0,0,1.12-1.76c.11-.72,0-1.46.19-2.17.49-2.48,3.2-3.94,4.06-6.32a1.83,1.83,0,0,0,.08-1.28c-.28-.77-1.21-1-2-1.16a59.86,59.86,0,0,0-15.53-.62l-1.17.15a1,1,0,0,0,.56,1.29,3,3,0,0,0,1.57.08,15.46,15.46,0,0,1,8.18.88c1.15.52,2.37,1.66,1.92,2.84a2.82,2.82,0,0,1-2,1.37,31.42,31.42,0,0,1-5.61,1,11.12,11.12,0,0,0-3.05.5,3,3,0,0,0-2,2.18A2.89,2.89,0,0,0,1455.2,1139.88Zm-20.77,1452.39a304.42,304.42,0,0,1-63.29-115c-4.32-14.74-7.63-30.06-15.63-43.17l-8-12.58c-5.69,1.08-10.68,4.34-15.51,7.53-9.07,6-18.31,12.14-24.94,20.75-6,7.79-9.51,17.17-13,26.38-2.72,7.3-5.44,14.63-7,22.25-3.93,19.47-.27,41-10.08,58.25-1.78,3.13-4,6-5.38,9.36s-1.91,7.25-.27,10.45l-.43,12.66v27.27l7,8.7a142.44,142.44,0,0,1,27.76,83.25c.06,9.5-.81,19.22,1.91,28.33s10.29,17.65,19.79,17.86c7.95.17,14.87-5.32,22.64-7,10.81-2.37,22,2.91,30.34,10.15,4.71,4.08,8.88,8.81,14,12.3s11.73,5.64,17.65,3.72c10-3.23,13.14-15.35,17.14-25,4.49-10.88,11.73-20.4,16.83-31,6.88-14.31,9.7-30.19,12.44-45.84,2.6-14.87,5.16-30.49.37-44.81C1454.32,2613.5,1443.85,2603,1434.43,2592.27Z"></path>
    <path data-name="3a" data-official="" data-plain="Seed-vessel" data-loc="" d="M1472.09,2648.7a256.65,256.65,0,0,0,71,44.14c20.85,8.62,46.17,18,51,40.07,1.3,6,.89,12.6,4.07,17.86,5.25,8.71,17.32,9.6,27.49,9.42,35.55-.6,71.13-2,106.47-5.91,7.43-.82,15.07-1.81,21.57-5.49s11.69-10.71,10.94-18.14c-1.19-12-16.45-22.47-10.53-32.92,1.64-2.9,4.62-4.75,7.47-6.49,19.51-11.9,38.7-24.42,56.54-38.7a353.63,353.63,0,0,0,64.65-67.7c14.24-19.58,26.89-42.17,25.91-66.36-.33-8.4-2.45-17-7.53-23.66-4-5.3-9.61-9.13-15.2-12.74a427.75,427.75,0,0,0-212-67.7c-49.91-2.21-99.74,4.38-149.27,10.95-28.19,3.74-56.78,7.58-83,18.68a159.05,159.05,0,0,0-53.08,36.82l-9.36,20.21a304.7,304.7,0,0,0,55.24,91.23c9.42,10.71,19.89,21.23,24.42,34.76Z"></path>
    <path data-name="4" data-official="Psidium Cattleyanum" data-plain="Purple Guava" data-loc="South America" d="M1046.28,2556.85c-26.07,13.82-40.4,42.94-47.39,71.6s-8.36,58.61-17.15,86.77c-2.48,8-5.68,15.94-11.47,21.92a31.74,31.74,0,0,1-50.47-6.52c-2.57-4.59-4.15-10-8.2-13.36a41.66,41.66,0,0,1-4.25-3.31c-4.75-5-1.37-13.34,3.1-18.62s10.23-10.7,9.83-17.6l1.78-15.87c12.46-11.23,14.26-29.92,14-46.7l6.81-17.67c4.79-10.93,10.22-21.62,13.75-33s5.09-23.74,2-35.25a45.92,45.92,0,0,0-27.18-30.3l-9.38-14a154.17,154.17,0,0,1,1.13-73l-.73,0,.73,0,.5,1.07a58.8,58.8,0,0,1,26,14.23c2.38,2.25,4.57,4.7,7.15,6.71a76.86,76.86,0,0,0,7.1,4.6,96.08,96.08,0,0,1,30.42,30l11.92,9.77,11.15.16a3.45,3.45,0,0,1,2.15.51,3.25,3.25,0,0,1,.92,1.56c1.52,4.18,2.61,8.57,4.87,12.41a38.48,38.48,0,0,0,8,9,115.89,115.89,0,0,0,38.8,22.62,35.22,35.22,0,0,1-8.11,8.28l-3.53,7.19ZM832.57,2388.79c1,3.51,2.08,7,3.38,10.45A76.49,76.49,0,0,0,856,2428.75l1.38,6.78a17.52,17.52,0,0,1,11.37,2.23c5,3,8.41,9.15,7,14.83l1.58,4.6c0-3.29,4.42-4.53,6.22-7.28,1.12-1.73,1.12-3.94,1-6-.5-8-2.31-15.89-2.85-23.9-.57-8.41.28-16.85,1.12-25.24l3.59-35.66-1.21-4.37q0-12.88.42-25.77a3.61,3.61,0,0,1,.18-1.19,3.56,3.56,0,0,1,1.24-1.35c2.08-1.59,4.34-3.65,4.19-6.27l.82-1.72.12-1-.12,1-1.24-17.81-2.5,1.26c-.11,6.56-5.76,11.47-9,17.16-1.33,2.3-2.32,4.84-4.17,6.74a33.26,33.26,0,0,1-4.5,3.38,49.79,49.79,0,0,0-8.26,8.22,270,270,0,0,0-17.52,22c-2.17,3.15-4.24,6.45-7.19,8.88-2.5,2.05-5.93,4.2-5.47,7.4Zm528.1-46.79c23.2,3.79,46.08,11.81,69.55,10.37a87.68,87.68,0,0,0,40.38-12.79l2.28-7.16c2.27-4.71,1.71-10.38-.22-15.23s-5.12-9.1-8.15-13.36c-11.43-16.1-21.21-33.6-26.68-52.58s-6.45-38.55-.57-57.4l.06-.48c-1.5.07-3,.17-4.51.32l-3.13,1.54c-6.18,2.7-11.82,6.86-18.43,8.19-14.74,3-29.13-5.85-44.07-4.12-7.9.91-14.89,5.53-22.65,7.29-12.61,2.87-25.54-2-37.53-6.86l-29.42-11.83c-8-3.24-16.2-6.53-23.19-11.66s-12.84-12.38-14.45-20.91a130.64,130.64,0,0,1-30.9,59.06l-.27,1.29a24.73,24.73,0,0,0,7.34,4.72,6.31,6.31,0,0,0,2.39.58,7.66,7.66,0,0,0,3.94-1.74c14.17-9.46,34.46-8.51,47.68,2.24l.91.79c4.7-2.57,10.45-2.74,15.61-1.32A15.36,15.36,0,0,1,1294,2225c4.27,4.63,3.6,11.82,5.49,17.84,1.6,5.1,5.08,9.35,8.48,13.47,2.71,3.28,5.54,6.66,9.39,8.48,2.43,1.16,5.16,1.62,7.54,2.89a15.86,15.86,0,0,1,6.88,8.17,6.06,6.06,0,0,1,.57,3.17,4.83,4.83,0,0,1-3.49,3.55,14.4,14.4,0,0,1-5.2.27,58.83,58.83,0,0,0,8.36,14.55c2.13,2.72,4.61,5.48,5,8.91.19,1.79-.22,3.65.29,5.38.87,2.89,3.94,4.4,6.5,6s5.14,4.43,4.14,7.28l2.6,10.12Zm375-1267.28c-7.21,5.42-16.88,5.85-25.9,6.06l-82,1.9c-5.58.12-11.39.31-16.33,2.92-8.67,4.57-12.23,15.79-10.3,25.4s8.28,17.75,15.34,24.55l1.08,13.8a98.09,98.09,0,0,1-4.22,41.88c-2.16,6.55-5,12.92-6.06,19.72-1,6.12-.39,12.35.16,18.51,1.08,12.06,2.2,24.27,6.27,35.68,3.18,8.93,8.22,17.72,7.51,27.18l1.3,4.45c5.14,8.66,10.15,18.08,9.76,28.14l.54,4.07a425.19,425.19,0,0,1,21.15,59.17c4.56,16.54,8.14,33.84,5.39,50.78l-.13,6.25-12.44,18.28c-2.25,3.32-5,6.93-8.94,7.51-3.38.49-6.71-1.49-8.9-4.1s-3.52-5.83-5.06-8.87a62.25,62.25,0,0,0-25.17-26.11v.6a255.77,255.77,0,0,1,4.38,43.21c.12,8-.13,16-2.29,23.66-3.21,11.36-10.39,21.16-18.16,30.05-2,2.29-4.12,4.64-5,7.55l-.35,14.15,21.15,41.63,6.18,8.14a89,89,0,0,0-1,23.79,33.39,33.39,0,0,1,.19,7.67c-.71,4.76-3.8,8.75-6.55,12.7-7.94,11.38-13.76,24.09-19.54,36.71-2.9,6.31-5.81,12.68-7.41,19.43-2.35,9.92-1.79,20.27-.8,30.41q1.3,13.37,3.56,26.62l-7.44.09a29.33,29.33,0,0,1-7.1-2.06,58.55,58.55,0,0,1-6.34-3.41l-13.12-7.76.1,0-39.24.81a49.71,49.71,0,0,0-12.18,1.25c-3,.8-5.74,2.14-8.74,2.76s-6.39.39-8.7-1.61a2.74,2.74,0,0,0-1.13-.75,2.63,2.63,0,0,0-1.61.41c-3.62,1.74-7.81,1.67-11.82,1.46q-12.09-.63-24.09-2.46c-2.52-.38-5.15-.85-7.2-2.37a12.09,12.09,0,0,0-2.62-1.85c-2-.76-4.87.15-5.91-1.7-.37-.66-.38-1.54-1-2a2.16,2.16,0,0,0-1.3-.32,15.9,15.9,0,0,0-6.53,1.29l-.13,3.14a6.88,6.88,0,0,1,4.17,3,6.23,6.23,0,0,0,2.14,2.13c1.17.53,2.53.14,3.82.21a5.3,5.3,0,0,1,2.62,9.71l-.16.63.71.09,6.43-.51a1.42,1.42,0,0,0,.79-.24,1.84,1.84,0,0,0,.36-1,3.19,3.19,0,0,1,2.4-2.32,5.4,5.4,0,0,1,3.44.42,8.51,8.51,0,0,1,4.86,8.77,4.79,4.79,0,0,1-.75,2.08,4.52,4.52,0,0,1-2.43,1.56,6.83,6.83,0,0,1-6.29-1.47c-.91-.82-1.59-1.88-2.51-2.69a3.32,3.32,0,0,0-3.38-.86,2.78,2.78,0,0,0-1.48,2.63,5.48,5.48,0,0,0,1.12,2.94,11.39,11.39,0,0,0,7,4.64,3.39,3.39,0,0,1,1.68.65,2.42,2.42,0,0,1,.56,1,7.73,7.73,0,0,1-1.89,7.67l-.26,1.83a15.66,15.66,0,0,1,6.51,1.9c.35-2,.74-4,2-5.59s3.76-2.29,5.33-1a4.16,4.16,0,0,1,1.33,2.33,7.31,7.31,0,0,1-8.11,9,4.61,4.61,0,0,1-2.51,5.8,4.84,4.84,0,0,0-1.23.54,1,1,0,0,0-.32,1.19c.32.48,1.06.33,1.6.13l4.49-1.68a3.62,3.62,0,0,0,1.87-1.17,7.58,7.58,0,0,0,.62-1.6,6.09,6.09,0,0,1,2.65-2.64,36.37,36.37,0,0,1,7.29-3.47c.7-.24,1.58-.43,2.12.08a2.18,2.18,0,0,1,.53,1.24l.62,3.32a3,3,0,0,1,0,1.36,2.45,2.45,0,0,1-1.17,1.29c-2.3,1.43-5.16,1.48-7.82,2-4.17.75-8,2.62-11.86,4.46a2.79,2.79,0,0,0-1.22.91,1,1,0,0,0,.24,1.35,1.38,1.38,0,0,0,1.1-.11l6-2.3,1.86.31a26.25,26.25,0,0,1,7.56.22,4.54,4.54,0,0,1,1.69.55c1.2.77,1.52,2.38,1.58,3.81a6.78,6.78,0,0,1-1.18,4.8c-2,2.35-5.82,1.57-8.7,2.7a1.6,1.6,0,0,0-.82.59,1.23,1.23,0,0,0,.63,1.58,4,4,0,0,0,1.86.27,7.08,7.08,0,0,1,4.51,1.22,4.65,4.65,0,0,1,0,6.84,5.12,5.12,0,0,1-7-.66,24.13,24.13,0,0,0-1.55-2,2,2,0,0,0-2.33-.49c-1,.6-.78,2.1-.16,3.07s1.54,1.79,1.75,2.91a2.47,2.47,0,0,1-1,2.41,2.28,2.28,0,0,1-2.57,0,2.07,2.07,0,0,1-1.82,2.44,8.43,8.43,0,0,0-1.42,0,1.9,1.9,0,0,0-1.34,1.6,5.63,5.63,0,0,0,.22,2.19,5,5,0,0,0,.78,2c.93,1.2,2.69,1.31,4.18,1.08s3-.71,4.49-.33c2.07.54,3.38,2.72,3.58,4.85a15.82,15.82,0,0,1-1.1,6.27l.47,2.19c11.18,1.22,21.91-4.2,31.75-9.63s20.28-11.2,31.51-10.74a48.9,48.9,0,0,1,9.61,1.56c7.24,1.78,14.73,4.48,19.38,10.3a33,33,0,0,1,5.11,10.27,98.41,98.41,0,0,1,5.1,33,34.68,34.68,0,0,0,.38,8.09,9.45,9.45,0,0,0,4.43,6.49l6.39,3.65,6.54-9.11c3.74-9.81,14.95-14.78,25.42-15.63s21,1.35,31.47.92,20.81-3.53,31.31-4.71c19.84-2.23,39.74,2.4,59.17,7,17.74,4.2,35.57,8.43,52.45,15.32,7.92,3.23,15.79,7.09,24.31,7.89,15,1.43,29.18-6.83,41.67-15.35s25.38-17.94,40.43-19.35l11.49-3c27.35-11.25,48.45-36.6,54.57-65.53a92.93,92.93,0,0,0-23.4-82c-13.73-14.34-34-29.74-28.35-48.76,2.35-7.84,8.9-13.67,15.69-18.26,30.57-20.66,70.34-24.41,100.35-45.89,4.34-3.1,8.53-6.67,11-11.37,2.91-5.47,3.26-11.9,3.48-18.09q1.17-32.73-.16-65.5c-.79-19.5-2.85-40.52-15.77-55.17-10.18-11.54-25.34-17.05-38.66-24.78s-26.22-20.21-25.74-35.6c.26-8.24,4.38-15.83,8.63-22.9,12.29-20.49,26.63-40,35.11-62.34,10.51-27.67,11.36-58,11.56-87.56.15-22.51-.36-46.31-12.16-65.48-12.64-20.55-36.74-32.16-60.77-34.32s-48.09,4-70.64,12.63a125,125,0,0,0-86.4-60.54Z"></path>
    <path data-name="5" data-official="Punica Granatum" data-plain="Pomegranate" data-loc="S. Europe" d="M531.82,1474.33c-1.84,9-2.15,18.33-2,27.56.31,15.66,2.26,31.94,10.7,45.13,6,9.35,14.87,16.51,24.19,22.56,4.49,2.91,9.26,5.66,14.54,6.49s11.22-.6,14.52-4.82c2.84-3.64,3.47-8.9,7.07-11.8,5.52-4.43,13.59-.48,19.4,3.56q31.26,21.71,60.56,46.06l5.29,12.55c2.47,8.65,2.8,17.75,3.11,26.74q.36,10.17.71,20.34l.83,10a15.78,15.78,0,0,0,1.46,13.64c.87,1.38,2,2.61,2.76,4,3,5.23,1.56,11.78,2.8,17.65.92,4.37,3.28,8.27,5.66,12s4.7,7.33,7.14,10.94a1.67,1.67,0,0,1-1.19-1.13l.71,17.55c-1.3,4.59-4.29,8.48-7.2,12.24a13.58,13.58,0,0,1-3.85,3.78,13.79,13.79,0,0,1-4.75,1.24c-21.26,2.89-42.91,7.63-60.73,19.58a169.85,169.85,0,0,0-16.7,13.35l-10.56,9.21c-6.8,5.92-14,12.59-15.49,21.49-.52,3.22.35,7.33,3.48,8.21.38-1.26,2-1.6,3.3-1.69a105,105,0,0,1,48.66,8.33c4.29,1.85,8.62,4.12,11.37,7.9l6.43,11.23,24.44,10.07c2.25.93,4.59,1.92,6.18,3.76a13.73,13.73,0,0,1,2.21,4.07,51,51,0,0,1,3.12,23.34l-1.7,9.25a165.24,165.24,0,0,1-5.61,43.58l-.8,3.8a5.29,5.29,0,0,0,2.48,6.51c.88.43,1.88.6,2.73,1.09,2.58,1.49,2.82,5,2.74,8-.48,17.54-1.33,35.23,1.8,52.49a231.14,231.14,0,0,0,5.64,22.42l4.38,15.24-1.86,8.14a110.26,110.26,0,0,0,3.85,40.2c1,3.44,2.38,7.14,5.5,8.92,2,1.16,4.49,1.29,6.84,1.37,3,.1,6.44,0,8.36-2.33a9,9,0,0,0,1.64-4c3.4-15.86-1.89-32.31-.75-48.49l-2.83-7.33c1.47-9.33,7.28-17.31,11.1-25.94,4.27-9.62,6.13-20.22,10.9-29.59,3.8-7.47,9.32-13.92,13.62-21.1,3.5-5.85,7.06-12.88,13.72-14.3l9-1.21c3.37,1.91,8.74-.21,10.83,3a5.94,5.94,0,0,1,.56,4c-.68,5.3-3.42,10.07-5.29,15.07a47.27,47.27,0,0,0-2.49,23.21,3.31,3.31,0,0,0-3.83,1.51,9.73,9.73,0,0,0-1.17,4.27c-1.39,12.34-2.78,24.85-.85,37.12l-2.78,6.29c-1,9.93-1,20.2,2.26,29.64,5.81,16.79,20.79,28.42,35,39.06l-3.79,5.22a170.31,170.31,0,0,1-35.4,45.9c-2.59,2.39-5.5,5.23-5.24,8.75a7.74,7.74,0,0,0,2.1,4.46,14.79,14.79,0,0,0,10.46,4.51,28.94,28.94,0,0,0,11.4-2.25,56.25,56.25,0,0,0,19.4-12.5c3.14-3.11,5.93-6.6,9.32-9.44s7.61-5,12-4.87l7.52,1.39a4.83,4.83,0,0,0,9.53-1.52l21.95,2a347.69,347.69,0,0,1,4.48,34.61l1.3,5c3.33,7.13,7.7,15.12,15.42,16.69,3.71.75,8.15,0,10.74,2.8,2,2.17,1.88,5.69.62,8.39s-3.42,4.85-5.22,7.22a18.74,18.74,0,0,1-3.43,3.93,4.61,4.61,0,0,1-4.9.64q-3.54,7.58-6.82,15.25a52.94,52.94,0,0,0-3.31,9.42c-1.1,5.07-.75,10.33-.39,15.51l-2.5,1.26c-.11,6.56-5.76,11.47-9,17.16-1.33,2.3-2.32,4.84-4.17,6.74a33.26,33.26,0,0,1-4.5,3.38,49.79,49.79,0,0,0-8.26,8.22,270,270,0,0,0-17.52,22c-2.17,3.15-4.24,6.45-7.19,8.88-2.5,2.05-5.93,4.2-5.47,7.4l.44,13.14-5.53-1.07c-3.39,4.2-8,7.16-12.57,10.06a80.73,80.73,0,0,1-12.93,7.15c-8.18,3.29-17.18,3.8-25.78,5.81s-17.45,6.08-21.57,13.89c-2.49,4.71-2.93,10.23-2.93,15.56,0,9.78,1.69,20.31,8.53,27.3l5,3c-.09,5.27-3.62,10.69-1.42,15.48,1.08,2.34,3.32,3.91,5.61,5.09l9.43,8.66,16.4,31.13a153.57,153.57,0,0,1,7.28,15.14c2.79,7.07,4.52,14.5,6.24,21.9l7.2,31,.63,5.35a120.39,120.39,0,0,1,3.7,38.08c-.49,7.74-1.4,16.54,3.84,22.27l3.47,3.07a380.28,380.28,0,0,1,.88,49.15c-.43,9.16-1.45,19-7.37,26-7.8,9.22-21.32,10.55-33.4,10.87-6.41.17-13.85-.22-17.69-5.36-2.59-3.46-2.74-8.11-2.78-12.44l-.23-22.61c0-4.87-.16-10-2.62-14.18-4.09-7-13.32-9.13-21.39-8.49s-16,3.32-24.05,3.15c-13.77-.29-26-8.74-36.2-18-7.45-6.76-15.88-14.71-25.87-13.51-8.5,1-14.59,8.33-20.26,14.74-18.6,21.05-45.44,38.58-73.15,34-12-2-26.14-7.49-35.06.83-3.56,3.32-5.23,8.17-8.16,12.06-5.82,7.71-15.77,10.8-25.07,13.44-13.55,3.86-29.61,7.26-40.52-1.66-6.88-5.63-9.67-14.72-12.11-23.27q-20.66-72.24-41.3-144.49l-18.36-.29c-73.87,6.54-152.45,12.2-218.15-22.19C113.41,2518.74,76.19,2470,55.9,2416.2s-24.84-112.43-21.76-169.84c2.36-44.07,9.81-89.74,35.33-125.74,15.8-22.28,37.57-39.5,56.39-59.3s35.42-44,36.58-71.32c1.27-30-15.81-62.37-.93-88.43,11.06-19.38,38.7-33.85,32.46-55.27-1.79-6.12-6.25-11-10.08-16.11-31.27-41.55-22.6-101-2.23-148.8,5.84-13.72,12.57-27.23,15.6-41.83,4.58-22.08.42-45.06,2.91-67.48A114,114,0,0,1,340,1473.76l26.17,0c20.43-16.36,48.1-20.23,74.27-20.42a337,337,0,0,1,66,6Z"></path>
    <path data-name="6" data-official="Eugenia Malaccensis" data-plain="Malay Rose-apple" data-loc="East Indies" d="M1463.49,2361.33c-3,19.07,13.22,36.81,31.56,42.82s38.21,3.37,57.4,1.35a814,814,0,0,1,106.92-4.21c21.94.58,44.46,2,65.31-4.88,20-6.54,36.73-20.1,52.48-34,14.23-12.54,28-25.57,41.81-38.6,14.32-13.54,28.68-27.11,41.25-42.29,30.71-37.06,49.88-83,58.24-130.36s6.22-96.28-2.67-143.58l-.79-15.91c3.18-7,11-10.68,18.48-12.44s15.4-2.24,22.36-5.54c9.57-4.53,16.12-13.94,19.56-24s4.14-20.73,4.81-31.3c.63-9.71,1.24-19.52-.4-29.11s-5.78-19.07-13.21-25.34c-9.89-8.35-23.71-9.74-36.61-10.76l-21-2.06a90,90,0,0,1-26.87,17.3l-11.49,3c-15.05,1.41-28,10.83-40.43,19.35s-26.62,16.78-41.67,15.35c-8.52-.8-16.39-4.66-24.31-7.89-16.88-6.89-34.71-11.12-52.45-15.32-19.43-4.61-39.33-9.24-59.17-7-10.5,1.18-20.76,4.27-31.31,4.71s-21-1.77-31.47-.92-21.68,5.82-25.42,15.63l-6.54,9.11a102.42,102.42,0,0,0-1.67,23.84,10,10,0,0,1-.36,4.11,6.36,6.36,0,0,1-3.78,3.36,18.82,18.82,0,0,1-5.12.87l-8.72.66-6.27,4.3c-5.07,6.7-4.09,16.45-8.68,23.5-3.14,4.84-8.88,8.45-9.41,14.2-.42,4.53,2.66,9.19,1,13.43a9.17,9.17,0,0,1-2.69,3.55c-4.84,4.14-11.86,5.08-16.53,9.41-5.43,5-6.27,13.23-6.23,20.64s.48,15.3-3.31,21.66c-2.79,4.68-7.85,8.55-7.89,14l.48,1a81.93,81.93,0,0,1,63.56,2.51,49.92,49.92,0,0,1,11.63,7.35c3.81,3.34,6.88,7.42,9.92,11.48l10.77,14.37c3.47,4.64,7.5,9.63,13.21,10.6l-.25,1.32a32.25,32.25,0,0,0-30.73,13.49c-6.46,9.53-7.26,21.77-12.18,32.18-4.43,9.35-12.11,16.92-20.89,22.4s-18.66,9-28.66,11.62a108.54,108.54,0,0,1-16.23,3.19c-13.76,1.48-27.69-.78-41.5-.17h0l-.06.48c-5.88,18.85-4.9,38.43.57,57.4s15.25,36.48,26.68,52.58c3,4.26,6.21,8.5,8.15,13.36s2.49,10.52.22,15.23l-2.28,7.16Z"></path>
    <path data-name="7" data-official="Leptospermum scoparium" data-plain="New Zealand Tea Plant" data-loc="New Zealand" d="M1849.07,2418.29a61.6,61.6,0,0,1-24.6-37.45c-.46-2.21-.9-4.63-2.61-6.1a11.47,11.47,0,0,0-3.94-1.83,26.57,26.57,0,0,1-14.12-11.77,14.48,14.48,0,0,1-2.21-7.82c.35-6.68,7-11.07,12.92-14.09A249.89,249.89,0,0,1,1845.6,2326c2.47-.85,5.11-1.79,6.63-3.91a24.69,24.69,0,0,0,2-4.34c2.47-5.43,8.53-8.37,14.42-9.31,8.66-1.38,19.07,1.81,22.06,10.05,1.56,4.29.89,9.32,3.28,13.2,2.78,4.53,8.65,5.89,13.93,6.49,11.55,1.3,23.55.93,34.32,5.32a19,19,0,0,1,7.1,4.55c3,3.37,4,8.23,3.48,12.73s-2.39,8.74-4.41,12.8a13.75,13.75,0,0,0-1.8,5.13c-.33,4.91,4.48,8.36,7.36,12.35,5.23,7.29,4.08,17.38,1.11,25.85-1.6,4.59-3.75,9.13-7.3,12.44-4.21,3.94-9.92,5.76-15.45,7.38-4.14,1.22-8.72,2.38-12.63.54-6.37-3-7.2-11.85-12.16-16.84a13.27,13.27,0,0,0-15.36-2.22c-4.05,2.22-6.59,6.39-10,9.46-9,8-24.57,6.71-32.12-2.62Z"></path>
</svg>
