
<svg xmlns="http://www.w3.org/2000/svg" viewBox="0 0 2031 3080" id="illustration" preserveAspectRatio="xMidYMid meet">
    <title>Combretaceæ</title>
    <path data-name="1" data-official="Combretum purpureum" data-plain="" data-loc="Madagascar" d="M1764.21,1794.8a170.1,170.1,0,0,1-17-13c-9.61-8.76-17.4-19.9-28.92-25.93l-.24-.34c1-5,5.12-8.6,9-11.85l5.84-4.89a16,16,0,0,0,3.16-3.2c.62-.92,1-2,1.7-2.85a3.47,3.47,0,0,1,2.76-1.6l3.71.67c-.69,3.26,1.73,6.43,4.56,8.2,2.07,1.3,4.42,2.14,6.38,3.6,2.5,1.86,4.23,4.61,6.73,6.48,3.87,2.87,9.59,3.7,11.76,8a17.58,17.58,0,0,0,1.59,3.33,6.88,6.88,0,0,0,2.52,1.76c4.39,2.09,9.25,3.19,13.37,5.76,3.77,2.35,7,6,11.38,6.68,6.14,1,12.23-4.06,18.26-2.52l9.71,1,21.24,7.59c4.19,1.5,8.39,3,12.48,4.78,3.25,1.41,6.43,3,9.6,4.61,8.77,4.45,17.58,9.16,24.72,15.94,8.7,8.28,14.39,19.15,19.93,29.81l2.8,12.2a54.65,54.65,0,0,1,4.32,26.66c-.51,5.64-2.07,11.5-6.1,15.48-6.93,6.86-19.58,6.77-24.44,15.22-.8,1.4-1.33,3-2.19,4.33-2.63,4.19-7.84,5.86-12.67,6.9-6.3,1.35-12.91,2.15-19.14.5s-12-6.19-13.57-12.44c-2.23-9,4.48-18.11,3.14-27.24-1.14-7.7-7.61-13.33-13.65-18.24l-59.61-48.42Zm-124.08-170.36a19.92,19.92,0,0,1-10-7.31,40.31,40.31,0,0,1-2.9-4.91l-11.44-21.55a8.88,8.88,0,0,1-1-2.41,10.26,10.26,0,0,1,.45-4.17,31.57,31.57,0,0,0,.69-9l-5.23-9.25-7.89-14a5.45,5.45,0,0,0-1.27-1.69c-1.79-1.4-4.34-.12-6.28,1.06a121.56,121.56,0,0,1-11.69,6l-2.67,1.25a25.68,25.68,0,0,1-2.7,1.14c-1.79.6-3.69.79-5.53,1.22a43,43,0,0,0-5.72,1.88l-15.89,6,.27,3.65a11.65,11.65,0,0,1,1.85,2.54q3.81,6.38,7.24,13l3.94,8.38c-1.12-3.19,3.74-5.86,3.3-9.22a19.71,19.71,0,0,1-.6-2.61c0-2.09,2.64-3.4,2.82-5.49.08-.93-.35-1.92,0-2.78a6,6,0,0,1,1-1.24c2-2.57-.06-7.36,2.73-9.07a11.83,11.83,0,0,1,3.09-.82c1.76-.49,3.15-1.91,4.91-2.4,3.64-1,7.11,2.28,10.88,2.46,1.31.07,2.74-.22,3.84.49a4.76,4.76,0,0,1,1.34,1.61c1.28,2.08,2.6,4.33,2.49,6.77,0,.49-.06,1.07.34,1.36a2,2,0,0,0,.88.22c1.2.22,1.86,1.55,2.1,2.75a8.31,8.31,0,0,0,1,3.48c.78,1,2.12,1.41,3.11,2.22,1.9,1.55,2.19,4.34,2,6.79s-.63,5,.28,7.29c1,2.43,3.31,4,4.55,6.34a13.84,13.84,0,0,1,1.19,6.9c-.06,2.34-.12,5.06,1.68,6.55a13.79,13.79,0,0,0,2.45,1.33,9.13,9.13,0,0,1,4.49,8.31c0,1.64-.32,3.67,1,4.57.38.25.84.37,1.22.62,2,1.34.28,4.84,1.72,6.79l.79.43.28,10.08c0,.69.13,1.51.76,1.79a4.77,4.77,0,0,0,1.37.1,2.08,2.08,0,0,1,1.59,1.6,7.64,7.64,0,0,1,.09,2.39,2.07,2.07,0,0,0,.59,1.86c.22.16.49.23.7.39a1.85,1.85,0,0,1,.49.74c4.53,10.33,1.59,22.7,5.82,33.16l1.52.58a201.4,201.4,0,0,1,24,31.73l5.56,3.28c.34-10.62.7-21.38,3.69-31.58,2.51-8.54,6.89-17.09,5.39-25.87l-4.77,1.79c-3.29-.09-6-2.51-8.35-4.79-5-4.82-10.2-9.88-12.61-16.41-1.6-4.35-1.88-9.12-3.78-13.35Zm-84.94-159.52c-2.63-5.28-5.35-10.68-9.69-14.67-2-1.89-4.45-3.43-6.26-5.56s-3.21-5-5.85-6.1a2.64,2.64,0,0,0-1.91-.15,3.66,3.66,0,0,0-1.08.8,118.61,118.61,0,0,1-27.7,19.87l.32,7.89a74.2,74.2,0,0,0,4.85,14.74,146.53,146.53,0,0,0,8.26,15.11c4,6.67,8,13.34,12.06,20,2.33,3.78,4.71,7.55,7.32,11.15l3.51,2.83c2.1.19,4.06-1.25,5.26-3a48.43,48.43,0,0,0,2.78-5.7c1.48-3,3.69-5.51,5.55-8.27a39.38,39.38,0,0,0,6-14.77c1.59-8.57.29-17.38-1-26ZM1092.57,1979.2l17.48,22.36a83.83,83.83,0,0,0,25.13,23.48l16.34,11.13a105.26,105.26,0,0,0,13.15,8,78.75,78.75,0,0,0,10.49,4c15.75,5,33.14,7.39,48.58,1.55,12.31-4.66,22.13-14,31.59-23.19a74,74,0,0,0,8.85-9.64,73.19,73.19,0,0,0,7-13c3-6.78,6.11-13.62,7.73-20.88.86-3.84,1.32-7.81,3-11.39s4.76-6.79,8.67-7.15l7.86-4.34c5.6-1.24,11.13-4,14.37-8.7s3.57-11.69-.29-15.93-10.47-4.62-16.29-4.64c-31.7-.07-63.78-.1-94.57,7.47-20.24,5-40.85,13.25-61.24,9a5.7,5.7,0,0,1-3.16-1.44,5.87,5.87,0,0,1-1.09-3.64,137,137,0,0,1,2.44-35.85l-2-19.88a62,62,0,0,1,4.91-10.55l-5.53-.28,5.22-5.83a9.74,9.74,0,0,0,6.49.72,5.57,5.57,0,0,0,4.11-4.7,8.22,8.22,0,0,1-5.4-1.57,1.32,1.32,0,0,1-.62-.85,1.4,1.4,0,0,1,.43-1l10.87-13.57a32.14,32.14,0,0,1,4-4.36,43.94,43.94,0,0,1,4.77-3.3,62.36,62.36,0,0,0,9-7l7.43-6.58c17.92-15.29,29.86-36.27,41.43-56.79l1.43-15.3,7.78-14.17a69.8,69.8,0,0,1,3.8-6.39c2.73-3.94,6.24-7.29,9.06-11.18,7.23-10,9.57-22.89,17.15-32.59,2.54-3.25,5.72-6.25,6.78-10.24l1.14-12.49,2.87-9.84a10.12,10.12,0,0,1,2.32-4.7c.68-.64,1.53-1.08,2.25-1.68,2.92-2.42,3.18-6.73,3.3-10.52s.63-8.16,3.78-10.28c1.6-1.08,4-2,3.77-3.91l.1-2.82c.15-1.3,0-2.63.13-3.93a18.62,18.62,0,0,1,1-4l3.27-9.86a5.49,5.49,0,0,1,.9-1.87,1.9,1.9,0,0,1,1.85-.72l3.16-3.6.54-8.06a5.57,5.57,0,0,1,.59-2.56c1-1.59,3.25-1.86,4.4-3.32,1.48-1.87.43-4.6.67-7,.42-4.13,4.86-7.24,4.62-11.39a27.49,27.49,0,0,0-1.06-4.2c-.32-1.41-.19-3.11,1-4a5,5,0,0,1,2-.76l6.37-1.37,4.34-20.36a19.56,19.56,0,0,0-.87-7.12c-.48-1.25-1.21-2.39-1.7-3.64a19.67,19.67,0,0,1-1-5.34c-1-11.54-1.92-23.8,3.41-34.09l1.63-11c3.15-22.81,15.22-43.28,27-63,6.91-11.56,14.59-23.81,27-29.13,7.78-3.35,16.66-3.51,25-1.82s16.14,5.15,23.77,8.85c17.64,8.55,35.2,19.15,45.91,35.57,5.54,8.49,9.94,19.08,19.46,22.54l7.19,3.55a69.18,69.18,0,0,0,22.21-12.46,23.82,23.82,0,0,0,6.06-6.84c2.32-4.33,2.3-9.48,2.22-14.39l-3.45-6.45c-13.11-12.9-18.85-32-32.21-44.6l-8.42-7.11a39.64,39.64,0,0,1-7.41-8c-4-6.32-4.17-14.32-6.91-21.29l-2.77-4.77a268.59,268.59,0,0,0-28.79-42c-1.67-2-3.62-4.12-6.2-4.47a27.41,27.41,0,0,1-3.53-.25c-1.15-.3-2.21-1.49-1.77-2.58.24-.61.86-1,1.26-1.48s.5-1.43-.11-1.67l-5.77,1.89a2.07,2.07,0,0,1-1.22.14c-1.2-.37-.73-2.14-.22-3.29,2.26-5.09.29-10.93-.15-16.49-.37-4.69.38-9.38.9-14.06.92-8.31,1.09-16.68,1.27-25l.7-34.39,3.25-2.53c15.7-8.6,32.84-14.51,47.93-24.14l3.73-8.86c-10.65-9.89-15-24.67-18.46-38.78-.9-3.66-1.77-7.34-2.52-11-1.62-7.93-2.68-16-3.55-24,3-.8,5.57,1.94,8.28,3.41s5.86,1.71,8.93,1.92l22.1,1.52a74.6,74.6,0,0,1,13.5,1.76,58.18,58.18,0,0,1,10,3.79,132.21,132.21,0,0,1,13.06,7c7.22,4.43,14.93,9.79,23.33,8.62l11.47-.07a43.23,43.23,0,0,0,19.21-25.59c1.9-7.13,2.6-15.77,8.95-19.54,5.45-3.23,12.34-1.11,18.47.51a100,100,0,0,0,69.27-7.08c11.64-5.79,24.53-14.11,36.52-9.11,8.81,3.67,14.87,14,24.41,14,7.66,0,13.7-7.6,14.37-15.24s-2.77-15-6.94-21.46c-17.77-27.38-49-43.22-69.12-68.91-5.32-6.79-10-15.46-7.47-23.71,2.06-6.69,8.34-11.14,14.58-14.31,40.87-20.81,91.56-8,134.68-23.57,12.86-4.65,25.76-13,29.71-26.06,2.34-7.79,1.16-16.27-1.52-23.94-5.28-15.14-15.94-27.71-26.64-39.64-14.05-15.69-29.13-31.37-48.45-39.74-16.18-7-34.18-8.37-51.8-9.06a823.68,823.68,0,0,0-92,1.49l4.9-47.07C1679.28,632.33,1758,592,1819.9,536.75s109.14-149.12,64.63-219.2c-41.48-65.32-135-68.62-211.34-56.11a1063,1063,0,0,0-385.55,144.13C1247.28,430.48,1189,456,1158.82,419.4c-17.14-20.78-13.68-50.9-12.58-77.82,3.46-85.18-27.74-171.27-85-234.44-49-54-120.45-91.88-193-85s-141,67.36-142.32,140.27c-.34,18.84,2.61,40.44-10.5,54-17.85,18.44-48.65,6.48-70.85-6.41L390.73,62.75C339.13,32.82,283.45,1.88,224,6.09c-72.09,5.1-133.3,64.84-152.47,134.52s-1.25,145.81,35.71,207.91S198.63,460.39,255.94,504.4c25.31,19.44,53.07,40.43,60.9,71.37,8.14,32.16-8.33,66-30.95,90.22-39.72,42.6-96.37,64.12-146.22,94.25s-97.53,77.45-97.06,135.7c.57,70.1,71.64,120.77,140.64,133.23s140.16-.61,209.93,6.28c15.33,1.52,31.5,4.41,43,14.65,18,16.06,18.23,45.26,7.81,67.05s-29,38.34-45.75,55.72C329.9,1243.72,286,1337.74,275.54,1435.63c-5.83,54.6,0,114.14,35,156.45,31.65,38.24,81.88,56,130.85,64.17A469.47,469.47,0,0,0,678,1634.44c34.94-12.72,70-29.91,107.1-27.86,42.43,2.36,80.12,30.27,104.71,64.92s38.23,75.68,51.52,116l15.25,11c19.19,17.55,45.51,24.63,68,37.71l12.7,6a67.81,67.81,0,0,1,14.37,34.32c.16,1.39.37,3,1.47,3.81.41.32.92.51,1.3.87.91.86.79,2.31.67,3.55a37.44,37.44,0,0,0,2,16.19l-4.51,7.68.62,16.94a18.74,18.74,0,0,0,4.7,13.73l21.07,28.78Z"></path>
    <path data-name="1a" data-official="" data-plain="Flower" data-loc="" d="M172.92,2943.84c-13.73-15.76-9.6-40.85-20.79-58.5-4.81-7.6-12.12-13.24-19.39-18.55q-23.49-17.16-48.52-32.1c-23.45-14-49.73-28.61-59-54.3-6.09-17-3.28-36.32,5.08-52.29s21.84-28.78,36.78-38.86c22.77-15.35,49.13-24.8,76-30.33,72.41-14.91,154,.78,205.87,53.48,11.12,11.31,21.27,25.9,19.44,41.65-1.95,16.66-16.31,28.55-26.78,41.65-13.8,17.28-22,39-38.24,54-17,15.65-40.94,22.23-57.26,38.55-21.79,21.78-25,57.82-12.69,86.06,4.35,10,10.23,22.19,3.47,30.73-2.35,3-5.86,4.78-9.33,6.31a116.49,116.49,0,0,1-51.71,9.85c-2.47-.1-5.09-.33-7.06-1.82-3.65-2.75-3.39-8.21-2.76-12.74l7-50.71Z"></path>
    <path data-name="1b" data-official="" data-plain="Stamen" data-loc="" d="M364.39,2968.07c-3.3-8.49,4-17,7.25-25.48s2.45-17.71,1.68-26.66c-3.3-38.46-5.64-77.72,3.57-115.21,2.89-11.74,6.93-23.45,6.58-35.54-.49-17.29-9.91-33.53-9.58-50.83.12-5.93,1.52-12.08,5.39-16.57,4.48-5.22,11.67-7.45,18.55-7.42,7.23,0,14.89,2.67,19,8.61,3,4.4,3.77,9.93,4.41,15.23,1.4,11.56,2.81,23.29,1.09,34.82-1.23,8.27-4,16.22-6,24.36-3.93,16.57-4.17,33.76-4.4,50.79-.49,38-1,76.52,7.65,113.58,2,8.69,4.54,17.37,4.63,26.29s-2.65,18.35-9.47,24.09c-7,5.9-17,6.88-26.06,5.83-10.1-1.16-21.49-6.16-23.48-16.14Z"></path>
    <path data-name="1c" data-official="" data-plain="Pistil and Ovary" data-loc="" d="M467.69,2925.87c3.51-21.62-10.5-41.92-14.51-63.45-5.07-27.26,6.1-54.62,9.21-82.17a142.66,142.66,0,0,0-9.69-69.7c-6.6-16.11-16.15-31-22-47.36-4.1-11.54-5.5-26.31,3.81-34.27,7-6,18-5.47,26-.81s13.43,12.63,17.7,20.82c18.62,35.77,18.61,78,27.95,117.19,2.65,11.1,6.07,22,8.28,33.23,2.59,13.09,3.5,26.45,4.42,39.76,2.83,41.35,5.67,82.79,4.17,124.22-.25,6.93-.74,14.25-4.59,20-5.63,8.45-16.6,11.15-26.55,13.19-10.28,2.1-22.93,3.4-29.4-4.87-6-7.65-2.76-18.81,1.4-27.59s9.13-18.61,5.8-27.74Z"></path>
    <path data-name="1d" data-official="" data-plain="Section of Ovary" data-loc="" d="M545.27,2984.46c4.7-14.76,5.31-30.49,5.11-46a124.13,124.13,0,0,0-1.6-20.66c-1-5.62-2.75-11.09-4.24-16.61-7.29-26.93-9.51-55.08-8.16-82.94.27-5.5.69-11.08,2.54-16.26s5.3-10,10.26-12.41c3.47-1.67,7.4-2,11.25-2.25a148.34,148.34,0,0,1,20,.29c7.12.58,14.5,1.79,20.27,6a33.06,33.06,0,0,1,9.18,11.26c8.66,16,9.76,35,9.63,53.22q-.1,15.84-1.26,31.66c-.94,12.89-2.52,26.14-8.74,37.47a37.06,37.06,0,0,0-3.4,6.89c-2.37,7.86,2.59,15.78,5.49,23.45a48.45,48.45,0,0,1,2.46,24.9c-.73,4.44-2.26,9-5.71,11.93-3.14,2.64-7.39,3.47-11.45,4.09a237.55,237.55,0,0,1-43.53,2.7c-2.47-.08-5.07-.23-7.13-1.59s-3.25-4.34-1.85-6.37Z"></path>
    <path data-name="2" data-official="Terminalia Australis" data-plain="" data-loc="Brazil" d="M1551.18,2500.88c6.15,21.47,12.32,43,15.71,65.09,1.55,10.14,2.52,20.39,4.83,30.38a152.56,152.56,0,0,0,10.33,29.21c5.36,11.65,11.91,24.33,8.33,36.65a24.64,24.64,0,0,1-20.66,17.2c-7.84.79-15.89-2.28-23.54-.37-5,1.26-9.26,4.52-13.81,7s-10.13,4.13-14.84,2c-5.54-2.52-7.7-9.24-8.33-15.3-1.91-18.47,4.85-36.83,4.47-55.39-.25-12.3-3.62-24.29-5.93-36.37-5.89-30.7-5-62.24-4.09-93.49l3.82-3.42c4.18-1,8.46-1.94,12.72-1.42,2.39.3,4.69,1,7.06,1.47,6,1,12.67.08,17.55,3.67Zm349.74-1231.47c3.4,6.23,2.67,13.84,1.48,20.84-2.33,13.69-6.11,27.3-13,39.36s-17.14,22.52-29.93,27.94l-3,9.11c-7.65,39.42-28.83,74.68-49.65,109,23.24,17.18,47.64,36.69,55.36,64.54,3.06,11,3.24,22.64,3,34.08-.46,22.15-2.51,44.82-11.9,64.89-2.79,6-6.6,12-12.68,14.55-9.92,4.14-21.16-2.62-31.83-1.29a5.39,5.39,0,0,0-2.71.92c-1.38,1.08-1.58,3.06-1.67,4.81-.63,12.71-.62,27.11,8.52,36,6.38,6.17,16,8.25,21.89,14.94,6.82,7.82,6.39,19.72,3.13,29.57s-8.91,18.83-11.58,28.86l-5.52,5.58c-6-1.54-12.12,3.53-18.26,2.51-4.38-.72-7.61-4.32-11.38-6.67-4.12-2.57-9-3.67-13.37-5.76a6.88,6.88,0,0,1-2.52-1.76,17.58,17.58,0,0,1-1.59-3.33c-2.17-4.3-7.89-5.13-11.76-8-2.5-1.87-4.23-4.62-6.73-6.48-2-1.46-4.31-2.3-6.38-3.6-2.83-1.77-5.25-4.94-4.56-8.2l-3.71-.67a3.45,3.45,0,0,0-2.76,1.6c-.66.89-1.08,1.93-1.7,2.85a16,16,0,0,1-3.16,3.2l-5.84,4.89c-3.88,3.25-8,6.88-9,11.85l.24.34c11.52,6,19.31,17.17,28.92,25.93a170.1,170.1,0,0,0,17,13l-1.17,2.8c-3,3.18-7.53,4.45-11.78,5.63q-13.35,3.7-26.53,8c-6.66,2.17-13.35,4.48-19.33,8.16-1.64,1-3.39,2.42-3.4,4.34,0,2.21,2.25,3.67,4.27,4.56,18.28,8,39.83,4.29,58.52,11.25,6.71,2.5,12.85,6.31,18.77,10.33,12.13,8.24,24.34,18.72,27.18,33.11,1,5.32.51,11.38-3.18,15.36l-6.9,2.78c-2.69,1.91-6.18,2.26-9.48,2.32a71.53,71.53,0,0,1-32.87-7.34c-6.39-3.16-13.26-7.41-20.11-5.44-3.27.93-6,3.19-8.55,5.43-12.23,10.64-24.1,22.23-38.85,29-24.78,11.32-53.65,7.28-80.39,12.51-4.46.88-9.57,2.62-11,7l-9,4.67a18.67,18.67,0,0,0-7.91,8.34,50.56,50.56,0,0,0-3.73,11q-3.84,15.59-6.22,31.49c-.33,2.23-.63,4.57.1,6.7l3.14,7.29c-.4,11.19-.25,22.41.45,33.59l-1.94,4.41-9.3,7.6a9.29,9.29,0,0,1-3.09,1.91,8.91,8.91,0,0,1-3.22.17q-2.74-.21-5.47-.6a13.42,13.42,0,0,1-5.37-1.61c-2.81-1.76-4.08-5.12-5.17-8.24l-7.44-6.41a152.23,152.23,0,0,1-23.36-27.18c-4.2-6.24-7.93-12.79-11.62-19.35-7.44-13.21-14.9-27.06-15.92-42.18l3.95-2.29a60.59,60.59,0,0,1,10,3.75,15.46,15.46,0,0,1,3.56,2,26,26,0,0,1,3.18,3.67,18.31,18.31,0,0,0,4.29,3.75l6.48,5.47,8.45,7.21a58.2,58.2,0,0,0,5.24,4.15,50.1,50.1,0,0,0,11.07,5.3q4.14,1.51,8.35,2.79l4.27,1a277.66,277.66,0,0,1,8.33-36.35,3.06,3.06,0,0,1,.63-1.29c.63-.66,1.68-.62,2.55-.92a3.37,3.37,0,0,0,2.21-3.33,6.58,6.58,0,0,0-.74-2.27l-5.76-12.32-3.51-5.74a111.5,111.5,0,0,0-47.8-27.82l-7.27-2.9a13.63,13.63,0,0,0-12.42,5.6c-.71,1-1.48,2.24-2.7,2.29a4.61,4.61,0,0,1-2-.7c-2.19-1-4.81-.81-6.89-2-2.44-1.41-3.49-4.32-4.7-6.88a32.78,32.78,0,0,0-13.71-14.56l-5.82-3c-16.76-9.76-36.06-14-54.28-20.65a215.12,215.12,0,0,1-93.86-67.56c-1.7-2.12-3.43-4.35-5.84-5.59a19,19,0,0,0-6.72-1.55,495.32,495.32,0,0,1-61.78-10.6l-7.53-4,1.43-15.3q3.89-7.08,7.78-14.17a69.8,69.8,0,0,1,3.8-6.39c2.73-3.94,6.24-7.29,9.06-11.18,7.23-10,9.57-22.89,17.15-32.59,2.54-3.25,5.72-6.25,6.78-10.24l1.14-12.49,2.87-9.84a10.12,10.12,0,0,1,2.32-4.7c.68-.64,1.53-1.08,2.25-1.68,2.92-2.42,3.18-6.73,3.3-10.52s.63-8.16,3.78-10.28c1.6-1.08,4-2,3.77-3.91l.1-2.82c.15-1.3,0-2.63.13-3.93a18.62,18.62,0,0,1,1-4l3.27-9.86a5.49,5.49,0,0,1,.9-1.87,1.9,1.9,0,0,1,1.85-.72l3.16-3.6.54-8.06a5.57,5.57,0,0,1,.59-2.56c1-1.59,3.25-1.86,4.4-3.32,1.48-1.87.43-4.6.67-7,.42-4.13,4.86-7.24,4.62-11.39a27.49,27.49,0,0,0-1.06-4.2c-.32-1.41-.19-3.11,1-4a5,5,0,0,1,2-.76l6.37-1.37,4.34-20.36a19.56,19.56,0,0,0-.87-7.12c-.48-1.25-1.21-2.39-1.7-3.64a19.67,19.67,0,0,1-1-5.34c-1-11.54-1.92-23.8,3.41-34.09l1.63-11c3.15-22.81,15.22-43.28,27-63,6.91-11.56,14.59-23.81,27-29.13,7.78-3.35,16.66-3.51,25-1.82s16.14,5.15,23.77,8.85c17.64,8.55,35.2,19.15,45.91,35.57,5.54,8.49,9.94,19.08,19.46,22.54l7.19,3.55a69.18,69.18,0,0,0,22.21-12.46,23.82,23.82,0,0,0,6.06-6.84c2.32-4.33,2.3-9.48,2.22-14.39l-3.45-6.45c-13.11-12.9-18.85-32-32.21-44.6l-8.42-7.11a39.64,39.64,0,0,1-7.41-8c-4-6.32-4.17-14.32-6.91-21.29l-2.77-4.77a268.59,268.59,0,0,0-28.79-42c-1.67-2-3.62-4.12-6.2-4.47a27.41,27.41,0,0,1-3.53-.25c-1.15-.3-2.21-1.49-1.77-2.58.24-.61.86-1,1.26-1.48s.5-1.43-.11-1.67l-5.77,1.89a2.07,2.07,0,0,1-1.22.14c-1.2-.37-.73-2.14-.22-3.29,2.26-5.09.29-10.93-.15-16.49-.37-4.69.38-9.38.9-14.06.92-8.31,1.09-16.68,1.27-25q.35-17.19.7-34.39l3.25-2.53c15.7-8.6,32.84-14.51,47.93-24.14l3.73-8.86c-10.65-9.89-15-24.67-18.46-38.78-.9-3.66-1.77-7.34-2.52-11-1.62-7.93-2.68-16-3.55-24,3-.8,5.57,1.94,8.28,3.41s5.86,1.71,8.93,1.92l22.1,1.52a74.6,74.6,0,0,1,13.5,1.76,58.18,58.18,0,0,1,10,3.79,132.21,132.21,0,0,1,13.06,7c7.22,4.43,14.93,9.79,23.33,8.62l11.47-.07a43.23,43.23,0,0,0,19.21-25.59c1.9-7.13,2.6-15.77,8.95-19.54,5.45-3.23,12.34-1.11,18.47.51a100,100,0,0,0,69.27-7.08c11.64-5.79,24.53-14.11,36.52-9.11,8.81,3.67,14.87,14,24.41,14,7.66,0,13.7-7.6,14.37-15.24l9.18,5.42c11-6.18,20.93-14.13,31.77-20.63s23-11.6,35.66-11.16a23,23,0,0,1,11.45,3c4.68,2.94,7.46,8.18,8.92,13.51,5.62,20.43-5.35,41.41-7.71,62.48-.51,4.5-.57,9.28,1.49,13.32,1.79,3.5,5,6.08,8.45,8,7.69,4.3,16.83,5.87,23.93,11.09,8.83,6.49,13,17.43,16.26,27.89,8.21,26.34,13.19,56.06.72,80.67-3.53,7-8.54,14.43-6.23,21.89C1893.18,1260.92,1898.23,1264.49,1900.92,1269.41ZM1547.06,1522.1c1.48-3,3.69-5.51,5.55-8.27a39.38,39.38,0,0,0,6-14.77c1.59-8.57.29-17.38-1-26l-2.41-8.14c-2.63-5.28-5.35-10.68-9.69-14.67-2-1.89-4.45-3.43-6.26-5.56s-3.21-5-5.85-6.1a2.64,2.64,0,0,0-1.91-.15,3.66,3.66,0,0,0-1.08.8,118.61,118.61,0,0,1-27.7,19.87l.32,7.89a74.2,74.2,0,0,0,4.85,14.74,146.53,146.53,0,0,0,8.26,15.11c4,6.67,8,13.34,12.06,20,2.33,3.78,4.71,7.55,7.32,11.15l3.51,2.83c2.1.19,4.06-1.25,5.26-3A48.43,48.43,0,0,0,1547.06,1522.1Zm133.88,148.09-4.77,1.79c-3.29-.09-6-2.51-8.35-4.79-5-4.82-10.2-9.88-12.61-16.41-1.6-4.35-1.88-9.12-3.78-13.35l-11.3-13a19.92,19.92,0,0,1-10-7.31,40.31,40.31,0,0,1-2.9-4.91q-5.71-10.77-11.44-21.55a8.88,8.88,0,0,1-1-2.41,10.26,10.26,0,0,1,.45-4.17,31.57,31.57,0,0,0,.69-9l-5.23-9.25-7.89-14a5.45,5.45,0,0,0-1.27-1.69c-1.79-1.4-4.34-.12-6.28,1.06a121.56,121.56,0,0,1-11.69,6l-2.67,1.25a25.68,25.68,0,0,1-2.7,1.14c-1.79.6-3.69.79-5.53,1.22a43,43,0,0,0-5.72,1.88l-15.89,6,.27,3.65a11.65,11.65,0,0,1,1.85,2.54q3.81,6.38,7.24,13l3.94,8.38c-1.12-3.19,3.74-5.86,3.3-9.22a19.71,19.71,0,0,1-.6-2.61c0-2.09,2.64-3.4,2.82-5.49.08-.93-.35-1.92,0-2.78a6,6,0,0,1,1-1.24c2-2.57-.06-7.36,2.73-9.07a11.83,11.83,0,0,1,3.09-.82c1.76-.49,3.15-1.91,4.91-2.4,3.64-1,7.11,2.28,10.88,2.46,1.31.07,2.74-.22,3.84.49a4.76,4.76,0,0,1,1.34,1.61c1.28,2.08,2.6,4.33,2.49,6.77,0,.49-.06,1.07.34,1.36a2,2,0,0,0,.88.22c1.2.22,1.86,1.55,2.1,2.75a8.31,8.31,0,0,0,1,3.48c.78,1,2.12,1.41,3.11,2.22,1.9,1.55,2.19,4.34,2,6.79s-.63,5,.28,7.29c1,2.43,3.31,4,4.55,6.34a13.84,13.84,0,0,1,1.19,6.9c-.06,2.34-.12,5.06,1.68,6.56a14.42,14.42,0,0,0,2.45,1.32,9.13,9.13,0,0,1,4.49,8.31c0,1.64-.32,3.67,1,4.57.38.25.84.37,1.22.62,2,1.34.28,4.84,1.72,6.79l.79.43q.15,5,.28,10.08c0,.69.13,1.51.76,1.79a4.77,4.77,0,0,0,1.37.1,2.08,2.08,0,0,1,1.59,1.6,7.64,7.64,0,0,1,.09,2.39,2.07,2.07,0,0,0,.59,1.86c.22.16.49.23.7.39a1.85,1.85,0,0,1,.49.74c4.53,10.33,1.59,22.7,5.82,33.16l1.52.58a201.4,201.4,0,0,1,24,31.73l5.56,3.28c.34-10.62.7-21.38,3.69-31.58C1678.06,1687.52,1682.44,1679,1680.94,1670.19Z"></path>
    <path data-name="2a" data-official="" data-plain="Flower, magnified" data-loc="" d="M735.82,3005.4a293.61,293.61,0,0,1,.6-59.28c2.55-22.77,7.74-46.15,1.66-68.24-3.18-11.54-9.3-22.05-16-32-5.6-8.24-12.07-16.49-21.19-20.5-7.64-3.36-16.28-3.37-24.37-5.41-10.12-2.56-19.52-8.6-25.17-17.37s-7.18-20.35-3-29.93c2.57-5.9,7.08-10.85,9.19-16.93,4.57-13.13-3-26.95-7.68-40.06-6-16.86-7-36.16.74-52.3,8.78-18.28,27.56-30.08,47.05-35.69s40-5.95,60.29-7.22c21.61-1.35,43.26-3.81,64.86-2.26s43.54,7.49,60.37,21.11,27.63,35.92,23.52,57.18c-3.51,18.19-17,33.35-20,51.62-1.5,9-.37,18.2-.92,27.3s-3.22,18.77-10.38,24.4c-3.5,2.75-7.79,4.3-11.61,6.61-8.18,4.95-13.81,13.11-19.19,21-11.25,16.56-22.77,33.74-26.45,53.41-4.22,22.48,2.27,45.4,4.48,68.16s-1.49,48.9-19.95,62.4c-17.81,13-42.32,9.53-64,5.46Z"></path>
    <path data-name="2b" data-official="" data-plain="Fuit, magnified" data-loc="" d="M650.13,2969.41A152.83,152.83,0,0,1,659.61,2868c3.09-6.62,7.17-13.48,13.95-16.19a21,21,0,0,1,8.94-1.28A30.84,30.84,0,0,1,706.23,2864c8.73,13.18,6,30.51,8.39,46.13,1.23,8,3.89,15.77,5.45,23.74,2.5,12.71,2.2,25.79,1.88,38.75-.17,6.89-.43,14.12-3.89,20.08s-10,10-16.43,12.79c-7,3.06-14.51,5.26-22.11,4.75-14.17-.93-27-12.3-29.61-26.25Z"></path>
    <path data-name="3" data-official="Terminalia Catappa" data-plain="" data-loc="East Indies" d="M1653.8,1949.88A539.29,539.29,0,0,1,1835.38,2117q-6.92-53.94-8.64-108.37c-.45-14.23-.53-29,5.35-42,10.69-23.57,37.49-34.59,62.08-42.67,16-5.26,35.51-9.57,48.17,1.55,6,5.22,9,12.9,11.5,20.42,19.29,58.82,12.07,122.49,13.65,184.38,1.22,47.93,7.83,95.53,14.23,143.05,20,148.87,38.08,299,29.91,448.95-.18,3.3-.46,6.83-2.53,9.4a14,14,0,0,1-5.92,3.82c-22.65,9.07-51,.59-65-19.42l-7-15.84c-9.41-10.91-26.5-9.54-40.57-6.4s-30.11,6.75-41.83-1.65c-10.87-7.79-13.31-23.49-9.72-36.38s11.93-23.8,19.37-34.92,14.35-23.43,14.42-36.8c0-9.34-3.27-18.38-7.38-26.77-13.78-28.06-36.4-50.63-58.6-72.64-4.81-4.76-9.7-9.58-15.65-12.79-13.08-7-29.32-5.15-43.18.21s-26.25,13.87-39.7,20.18c-43,20.18-93.07,16.48-140.23,10.53l-16.89-2-6.38-13.13c-4.88-3.59-11.59-2.63-17.55-3.67-2.37-.42-4.67-1.17-7.06-1.47-4.26-.52-8.54.45-12.72,1.42l-3.82,3.42-17.52,15.93c-50.15,31.3-103.21,63.54-162.26,66.36-53.79,2.57-106.5-19.82-160.26-16.8-30.58,1.72-60,11.59-90.13,17.31-88,16.73-182.37-3.71-255.52-55.33-16.43-11.59-37.26-25.24-54.79-15.41-8.76,4.91-13.62,14.43-19.32,22.7-26,37.74-77,53.35-122.07,44.83s-84.1-37.86-112.78-73.64c-10.46-13.05-20.18-27.4-34.58-35.91-26.29-15.54-61.12-7.64-88.45-21.27-31.89-15.9-43.36-54.83-51.59-89.51l-10.77,1.91A280.2,280.2,0,0,1,159.14,2426c-24.84,2.64-50.46,1.84-74-6.45s-44.92-24.72-55.53-47.33c-6.13-13.09-8.47-27.59-10.75-41.87-7.68-48.25-15.38-96.92-12.94-145.71s15.82-98.37,46.29-136.56c27.68-34.7,67.12-57.53,101.79-85.25,3.71-3,7.66-6.53,8.05-11.27s-3-9-6.62-12.21C140,1925.51,118.94,1920.27,100,1912c-29.43-12.91-55.53-34.73-70.21-63.31-21-41-16.2-92.36,6.51-132.43s61.38-69.44,103.76-87.47,88.49-25.54,134.38-29.52l36.16-7.14c31.65,38.24,81.88,56,130.85,64.17A469.47,469.47,0,0,0,678,1634.44c34.94-12.72,70-29.91,107.1-27.86,42.43,2.36,80.12,30.27,104.71,64.92s38.23,75.68,51.52,116l15.25,11c19.19,17.55,45.51,24.63,68,37.71l12.7,6a67.81,67.81,0,0,1,14.37,34.32c.16,1.39.37,3,1.47,3.81.41.32.92.51,1.3.87.91.86.79,2.31.67,3.55a37.44,37.44,0,0,0,2,16.19l-4.51,7.68.62,16.94a18.74,18.74,0,0,0,4.7,13.73l21.07,28.78,13.64,11.1,17.48,22.36a83.83,83.83,0,0,0,25.13,23.48l16.34,11.13a105.26,105.26,0,0,0,13.15,8,78.75,78.75,0,0,0,10.49,4c15.75,5,33.14,7.39,48.58,1.55,12.31-4.66,22.13-14,31.59-23.19a74,74,0,0,0,8.85-9.64,73.19,73.19,0,0,0,7-13c3-6.78,6.11-13.62,7.73-20.88.86-3.84,1.32-7.81,3-11.39s4.76-6.79,8.67-7.15l7.86-4.34c5.6-1.24,11.13-4,14.37-8.7s3.57-11.69-.29-15.93-10.47-4.62-16.29-4.64c-31.7-.07-63.78-.1-94.57,7.47-20.24,5-40.85,13.25-61.24,9a5.7,5.7,0,0,1-3.16-1.44,5.87,5.87,0,0,1-1.09-3.64,137,137,0,0,1,2.44-35.85l-2-19.88a62,62,0,0,1,4.91-10.55l-5.53-.28,5.22-5.83a9.74,9.74,0,0,0,6.49.72,5.57,5.57,0,0,0,4.11-4.7,8.22,8.22,0,0,1-5.4-1.57,1.32,1.32,0,0,1-.62-.85,1.4,1.4,0,0,1,.43-1l10.87-13.57a32.14,32.14,0,0,1,4-4.36,43.94,43.94,0,0,1,4.77-3.3,62.36,62.36,0,0,0,9-7l7.43-6.58c17.92-15.29,29.86-36.27,41.43-56.79l7.53,4a495.32,495.32,0,0,0,61.78,10.6,19,19,0,0,1,6.72,1.55c2.41,1.24,4.14,3.47,5.84,5.59a215.12,215.12,0,0,0,93.86,67.56c18.22,6.65,37.52,10.89,54.28,20.65l5.82,3a32.78,32.78,0,0,1,13.71,14.56c1.21,2.56,2.26,5.47,4.7,6.88,2.08,1.21,4.7,1,6.89,2a4.61,4.61,0,0,0,2,.7c1.22-.05,2-1.28,2.7-2.29a13.63,13.63,0,0,1,12.42-5.6l7.27,2.9a111.5,111.5,0,0,1,47.8,27.82l3.51,5.74,5.76,12.32a6.58,6.58,0,0,1,.74,2.27,3.37,3.37,0,0,1-2.21,3.33c-.87.3-1.92.26-2.55.92a3.06,3.06,0,0,0-.63,1.29,277.66,277.66,0,0,0-8.33,36.35l-4.27-1q-4.21-1.28-8.35-2.79a50.1,50.1,0,0,1-11.07-5.3,58.2,58.2,0,0,1-5.24-4.15l-8.45-7.21-6.48-5.47a18.31,18.31,0,0,1-4.29-3.75,26,26,0,0,0-3.18-3.67,15.46,15.46,0,0,0-3.56-2,60.59,60.59,0,0,0-10-3.75l-3.95,2.29c1,15.12,8.48,29,15.92,42.18,3.69,6.56,7.42,13.11,11.62,19.35a152.23,152.23,0,0,0,23.36,27.18l7.44,6.41c1.09,3.12,2.36,6.48,5.17,8.24a13.42,13.42,0,0,0,5.37,1.61q2.73.39,5.47.6a8.91,8.91,0,0,0,3.22-.17,9.29,9.29,0,0,0,3.09-1.91l9.3-7.6,1.94-4.41c-.7-11.18-.85-22.4-.45-33.59l-3.14-7.29c-.73-2.13-.43-4.47-.1-6.7q2.37-15.88,6.22-31.49a50.56,50.56,0,0,1,3.73-11,18.67,18.67,0,0,1,7.91-8.34l9-4.67c1.4-4.33,6.51-6.07,11-7Z"></path>
    <path data-name="3a" data-official="" data-plain="Stone of Fruit" data-loc="" d="M1269.48,2927.73a148.24,148.24,0,0,1-10.9-85.68c3.31-19.17,10.42-37.71,11.66-57.12.8-12.44-.81-25.2,2.53-37.22,2.91-10.47,9.4-19.59,16.57-27.77,31.9-36.33,83.75-57.82,130.05-43.88,19.61,5.91,37.09,17.62,52.17,31.49,23.53,21.66,42.18,49.88,47.27,81.46,5.16,32-3.74,64.38-5.35,96.73-1,19.58.68,39.64-4.9,58.44a78.72,78.72,0,0,1-23.77,36.86c-13.49,11.7-31.24,19.06-41,34-2.75,4.22-4.75,8.9-7.5,13.14-12.6,19.44-38.58,25.85-61.67,23.86-10.94-1-23.2-4.48-28-14.37-3.7-7.66-1.82-17.16-5.74-24.71-2.83-5.44-8.21-9-13.21-12.53a193.36,193.36,0,0,1-51.66-54.67Z"></path>
    <path data-name="3b" data-official="" data-plain="A Valve removed" data-loc="" d="M1562.64,2976.35c-19.49-10.25-31.85-30.86-37.2-52.22s-4.64-43.71-3.88-65.72c1.24-35.89,2.58-72.38,14.09-106.39,3.21-9.5,7.25-18.82,13.17-26.91,7.22-9.86,17-17.55,26.73-24.9,19.12-14.41,41.4-28.76,65.1-25.43,12.83,1.8,24.33,8.66,35.21,15.68,33.63,21.67,66.63,48,82.46,84.72,14.2,33,12.87,70.42,8.59,106.06-2.47,20.65-5.9,41.4-13.75,60.66S1732.69,2979,1715,2990c-11.07,6.88-24.44,11.45-31.62,22.33-3,4.49-4.61,9.74-7.47,14.29-8.62,13.72-26.34,18.53-42.52,19.41-11.7.64-26-1.84-30.23-12.75-1.67-4.27-1.41-9.13-3.19-13.36-1.46-3.44-4.15-6.19-6.77-8.85l-29.09-29.41Z"></path>
    <path data-name="3c" data-official="" data-plain="Kernel" data-loc="" d="M1807.7,2947.47c-15.78-25.25-16-56.87-15.8-86.65.1-12.66.22-25.47,3.38-37.73,2.79-10.82,7.88-20.91,13.28-30.69,5.67-10.26,11.78-20.38,19.72-29,4-4.32,8.5-8.32,14-10.47,12.75-5,27.72,1.41,36.7,11.76,4.67,5.37,8.13,11.68,11.28,18.05,27,54.72,33,121.53,7.3,176.9-4.53,9.78-10,19.36-11.58,30-1.49,10.43,1,21,2.52,31.4.36,2.51.65,5.2-.5,7.47-1.24,2.45-3.88,3.83-6.4,4.93a96.11,96.11,0,0,1-49.32,7.44c-7.48-.86-16.2-3.84-18-11.15s4.63-14.11,6.73-21.46c1.55-5.45.64-11.26-.46-16.82a265.21,265.21,0,0,0-8.5-32.31Z"></path>
    <path data-name="4a" data-official="Terminalia fagigolia" data-plain="Winged Fruit" data-loc="Brazil" d="M961.36,2975.22c-26.78,3.37-54.14-10.42-70.34-32s-21.92-49.89-19.18-76.73,13.4-52.39,27.28-75.55c5.52-9.22,11.73-18.3,20.28-24.82,11.49-8.76,26.39-12.16,40.85-12s28.65,3.64,42.6,7.43c3.26.88,6.6,1.79,10,1.57a34.81,34.81,0,0,0,7.37-1.68c14.66-4.28,30.06-5.31,45.33-5.36,14.09-.05,28.48.77,41.57,6,15.29,6.09,27.62,17.67,39.46,29.1,6.59,6.36,13.31,13,16.89,21.42,3.28,7.72,3.66,16.33,3.65,24.72,0,26.84-3.59,54.1-14.58,78.59s-30,46.09-54.79,56.42c-5.53,2.31-11.65,4.29-15.25,9.08-3.94,5.24-3.83,12.47-6.56,18.43-5.92,12.92-22.51,16.08-36.65,17.58-6.73.71-13.57,1.41-20.22.17s-13.21-4.73-16.56-10.62c-2.66-4.66-3.05-10.3-5.33-15.15a21.68,21.68,0,0,0-22-11.89Z"></path>
    <path data-name="4b" data-official="" data-plain="Seed" data-loc="" d="M1174.35,2928.23c.18-32.78.36-65.68,4.84-98.16,1.11-8.11,2.53-16.3,6.08-23.67,3-6.34,7.93-12.12,14.51-14.59,8-3,17.31-.54,23.81,4.94s10.38,13.56,12.2,21.86,1.76,16.89,1.48,25.38c-.85,26.2-3.55,52.3-6,78.39-.5,5.41-1,10.93.26,16.22s4.28,10.28,5.9,15.6a48,48,0,0,1,1.69,14.22c0,4.61-.43,9.37-2.57,13.45-2.69,5.11-7.83,8.52-13.19,10.67-9.81,3.92-20.64,4.2-31.19,4.44-3.12.07-6.33.12-9.23-1-3.24-1.3-5.71-4-7.91-6.67-5.15-6.3-9.7-14.46-7.3-22.24,1.38-4.5,4.86-8,7.3-12a28.71,28.71,0,0,0,4-18Z"></path>
</svg>
