
<svg xmlns="http://www.w3.org/2000/svg" viewBox="0 0 2095 3084" id="illustration" preserveAspectRatio="xMidYMid meet">
  <title>Loasaceæ</title>
    <path data-name="1" data-official="Loasa grandiflora" data-plain="Large-flowered Loasa" data-loc="Caraccas" d="M1277,2632c-10.23-13.26-20.66-27-25.07-43.14-3.56-13-3-26.8-3.87-40.29s-3.77-27.63-12.8-37.7c-10.77,12-15.28,28.34-17.13,44.34s-1.4,32.23-3.91,48.13c-1.55,9.88-4.24,19.56-6,29.41-1.92,10.85-2.69,21.88-4.29,32.78-2.64,18-7.51,35.54-12.36,53.05l.85,23.33-9.67,104.44c-1.66,17.94-4.29,37.83-18.12,49.37s-34.29,10.53-50.7,3.57-30.09-18.94-44.89-28.89c-4.27-2.86-8.84-5.64-13.95-6.2-10.68-1.16-19.81,7.47-26.06,16.2s-12,18.81-21.83,23.07c-17.18,7.42-35.51-6.43-53.82-10.3-22.4-4.75-45.07,5.94-64.45,18.14s-38.47,26.58-61,30.42a71.62,71.62,0,0,1-58.38-16.53c-20.74-18.22-29-46.75-32.9-74.07-4.72-32.73-4.72-65.94-4.72-99,0-45.24.87-93.44,25.92-131.11,6.69-10.06,15.35-20.28,14.73-32.34-.42-8.28-5.29-15.67-10.81-21.87-16.12-18.12-39.5-30.73-49-53.05-11.61-27.32,2.18-59,20.92-82,33.82-41.5,84.93-68.44,138.27-72.9,29-2.42,58.83,1.42,86.68-6.93,9.57-2.87,20.55-11.05,17.08-20.42l-1-7.76a29.68,29.68,0,0,1-8.35-5.92,16.45,16.45,0,0,1-4.54-9.05c-.61-4.82,1.45-9.59,4.11-13.65l-1.3-3.89a53.72,53.72,0,0,1-12.31-4.37,11.5,11.5,0,0,0-3.73-1.4c-2.6-.29-5.14,1.4-7.73,1-2.8-.4-4.75-3-7.41-4a13.14,13.14,0,0,0-4.51-.53H895.26a36.8,36.8,0,0,1-8.26-.62,12.41,12.41,0,0,1-7-4.08c-1.9-2.38-2.5-5.53-2.8-8.56s-.35-5.84-.42-8.76l1.32-13a119.39,119.39,0,0,1,7.16-10c12.28-15.65,26.81-29.75,44-39.8s37.1-15.86,56.95-14.61l11,1.56a2.73,2.73,0,0,1,3.2,1.88,19.26,19.26,0,0,1,.19,2.16,4.74,4.74,0,0,0,3.38,3.51,12.68,12.68,0,0,0,5.1.23,13.12,13.12,0,0,0,4.93-1.23,11.78,11.78,0,0,0,3.05-2.62c2.56-2.84,4.82-6.15,8.21-7.91,3.82-2,8.4-1.67,12.68-1.18l16.66-.08c19.74,2.14,39.12,9,58.92,7.55a6.15,6.15,0,0,0,3.14-.84,5.78,5.78,0,0,0,2-3.48,26.92,26.92,0,0,0,.8-7.54c-.09-2.59-.51-5.4.87-7.59a9.36,9.36,0,0,1,4.67-3.31c10.6-4.3,22.4-4.14,33.84-3.92,8.41.16,17.57.61,23.91,6.13l3.32,3.69c1.76,3.79,4.25,8.11,8.42,8.44,2.1.17,4.13-.78,6.23-.85,4.72-.16,8.48,4.09,10.23,8.48.63,1.59,1.17,3.35,2.53,4.39s3,1.1,4.6,1.59c8.52,2.66,10.06,15.89,18.65,18.31,2.15.6,4.47.41,6.58,1.1,4.64,1.52,7.39,6.95,12.19,7.83,2,.36,4-.13,6-.44a32.2,32.2,0,0,1,12.06.46l5,1.51,2.35,7.8a6.39,6.39,0,0,0,1.18,2.51c1.53,1.71,4.25,1.31,6.49.81a195.21,195.21,0,0,1,36.68-4.63c3.13-.1,6.47-.19,9-2s3.81-5.13,5.85-7.63l-1.77-9.08.73-10.1c.18-2.51.07-5.6-2.16-6.78-1.59-.84-3.52-.26-5.22.31-9.23,3.09-19,5.37-28.64,3.94a2.3,2.3,0,0,1-1.53-.67,1.92,1.92,0,0,1-.12-1.72c.84-2.79,3.66-4.42,6.24-5.78a85.39,85.39,0,0,1-16.94,2.89c-3.16.21-6.57.33-9,2.31-2.24,1.79-3.23,4.76-5.32,6.72-3.35,3.12-8.51,2.9-13.07,2.5l-6.28,1.05c-8.09-.91-16.54-2-23.24-6.57-5.17-3.56-8.78-8.91-13.14-13.43-7.77-8.05-17.85-13.4-26.76-20.16a103.28,103.28,0,0,1-36.64-53.68l-1.72-7.75a95.29,95.29,0,0,1-9-19c-1.48-4.26-2.66-8.77-2-13.23l2.25-6.74c1.6-2.48,5-3.1,7.9-2.9s5.92.95,8.79.3a1.33,1.33,0,0,1-.12-1.32l11.06.25a27.42,27.42,0,0,1,.8-9.92c.27-1,.58-2.17,0-3a3.82,3.82,0,0,0-1.21-1,17.37,17.37,0,0,1-5.4-5.62c-1.78-3-3-6.83-6.33-7.91a6,6,0,0,0,2.61-.81,2.21,2.21,0,0,0,1-2.37c-.5-1.48-2.55-1.44-4.1-1.7-4.71-.78-7.82-6.66-12.57-6.22a5.19,5.19,0,0,1-1.36.06,3.36,3.36,0,0,1-1.59-1l-11.77-11.27c-4-3.84-8.21-7.8-13.48-9.54-4.46-1.47-9.29-1.22-14-1l-9.74-3.14c-4.46-3.45-3.85-10.85-.16-15.13s9.39-6.15,14.84-7.6c39.31-10.49,80.76-8.75,121.33-5.58l5.79.65c3.53,1.87,4.68,6.3,7.13,9.47,4,5.19,11.16,6.54,17,9.65,2.12,1.14,4.09,2.54,6.18,3.75a45.51,45.51,0,0,0,25.08,5.77c3.77-.18,7.62-.77,11.29.13a29.23,29.23,0,0,1,6.85,3c13.52,7.45,27.59,15.39,36,28.33-2.41-19.56,4.22-39,10.75-57.57,1.67-4.75,3.37-9.57,6.22-13.73l.85-.93c2.53,3.62,5.11,7.3,8.58,10,2.33,1.85,5,3.21,7.41,5,4.21,3,7.6,7.21,12.18,9.65l21.42-2c36.68,14,64.56,45.73,101.5,59,11.38,4.1,23.35,6.32,35.32,8.12,21,3.16,42.56,5.06,63.31.6s40.78-16.09,51.17-34.6l7-35.58c-4.52-14.37-12.64-27.3-20.92-39.87q-23.1-35-48.83-68.25c-17.63-22.76-36.36-45-59.24-62.53l-.65-.59,13.72-15.88.59,2.56a45.16,45.16,0,0,1,9.34,8l6.5-2.77a16.73,16.73,0,0,1-4.71,3.91l7.43,6.88,6-2.74c.71-.33,1.87-.43,2,.35l-6,4.61,7.72,6.74a1.7,1.7,0,0,0,.66.41c.52.12,1-.27,1.47-.56a4.28,4.28,0,0,1,3.75-.39,15.18,15.18,0,0,1-3.45,3.87l0,1.12c4.57,2.65,7.11,7.66,10.17,12a1.77,1.77,0,0,0,1.09.86,1.74,1.74,0,0,0,1.06-.34l4.94-2.86a8,8,0,0,1-3.78,4.86,38.9,38.9,0,0,1,4.33,5.41l3.84-.37a1.54,1.54,0,0,1,1.47.37c.36.48,0,1.19-.43,1.58a8.54,8.54,0,0,0-1.42,1.1c-1.12,1.42.46,3.36,1.9,4.46a1.85,1.85,0,0,0,1,.47c1.14.05,1.38-1.75,2.42-2.23s2.32,1.16,1.86,2.35-1.75,1.81-2.92,2.32l1.29.47,3.85,5.33a4.32,4.32,0,0,1,4.93-1.17c-.16,1.88-3.42,2.33-3.42,4.21a2.79,2.79,0,0,0,.52,1.39,29.78,29.78,0,0,0,5.1,6.31A3.26,3.26,0,0,1,1630,1864c.88,1.39-.94,3.17-.53,4.77a3.56,3.56,0,0,0,.65,1.19l22.48,30.75c1,1.32,2.33,2.8,3.92,2.42.6-.14,1.11-.54,1.71-.72s1.38,0,1.56.57a1.53,1.53,0,0,1-.11.91l-1.11,3.38.23,1a18.46,18.46,0,0,1,5.39,6.29,9.09,9.09,0,0,1,2.28-1.91c.7,1.3-1.27,2.68-1,4.15a2.93,2.93,0,0,0,.69,1.27l2.75,3.55a1.92,1.92,0,0,0,.66.61c1.49.68,3.15-2.57,4.25-1.36.57,1-.39,2.08-.85,3.12-1,2.15.4,4.57,1.69,6.54.9,1.36,2,2.86,3.65,3,.81.06,1.61-.25,2.41-.18s1.67.82,1.38,1.57a3.87,3.87,0,0,1-.34.55,2.59,2.59,0,0,0,.63,3.09,9.8,9.8,0,0,0,2.93,1.69,21.13,21.13,0,0,1,8.06,6.61l4.91,5.14c8.45,9.44,13.64,21.3,21,31.61s18.19,19.59,30.86,19.6c2.14,0,4.93-1,4.69-3.14l4.2-11.87a78.33,78.33,0,0,1,27.11,10.16c-1.32-7.21-2.63-14.46-2.69-21.79,0-6.28.61-13.31-3.48-18.08,2.54,2.69,6.06,4.24,8.78,6.74,2.37,2.18,4,5,5.8,7.66,7.49,11.28,17.5,20.6,27.41,29.81l9.24,7.19c29.86,53.08,32.22,116.78,49.39,175.22,6.12,20.82,14.16,41,21.91,61.3a2509.94,2509.94,0,0,1,78.25,240.11l4.43,27,36.46,280.09c1.83,14,2.78,30.61-7.86,40-5.15,4.53-12.09,6.36-18.82,7.67a184.72,184.72,0,0,1-47.35,3c-6.25-.41-12.73-1.22-18-4.63-7.84-5.08-11.21-14.71-13.63-23.74a288.46,288.46,0,0,1-9.69-80.61l3.34-23.43-58.46-174.7c-14.84-44.32-29.75-88.84-51.12-130.4-5-9.63-10.56-19.44-19.52-25.51s-22.21-7.15-30,.36c-4.68,4.5-6.58,11.09-8.12,17.39-16.67,68.06-13.2,139.15-12.7,209.22.22,31.38-1.37,66-22.78,88.92-15.42,16.53-39,23.8-61.59,23.15s-44.43-8.42-64.81-18.2c-18.77-9-37.45-20-58.22-21.33s-44.38,11.2-46.64,31.89c-.94,8.49,1.44,18.31-4.19,24.73-2.25,2.56-5.44,4.07-8.62,5.28-30.69,11.69-65.69,1-93.71-16.15s-51.94-40.39-80.21-57.12Zm550.32-778.71a11.22,11.22,0,0,0,3.78-.61,3.37,3.37,0,0,0,.24-6.42,9.91,9.91,0,0,0-4.43-.82,14.14,14.14,0,0,1-4.5-.53l-4.88-.24a286.24,286.24,0,0,0-39.71,1.65c-3.46.38-7.16.94-9.72,3.3-3.21,3-3.66,7.8-3.84,12.17-.53,12.11-.7,24.39,2,36.2a4.33,4.33,0,0,0,.83,2,4.25,4.25,0,0,0,3.29,1c7.47-.06,14.75-2.16,21.92-4.25l9.55-2.77a48,48,0,0,0,8.25-3c3.81-1.9,7-4.77,10.21-7.6,2.78-2.48,5.71-5.18,6.63-8.8a19.12,19.12,0,0,0,.07-6.75c-.44-3.92-1-8.08-3.45-11.15Zm-88.66-375q1.05,21,2.09,41.9c.5,10,1,20.11,2.63,30,1.39,8.39,3.57,16.64,5,25,1.79,10.49,2.37,21.14,3,31.76q5.88,98.49,17.67,196.53l2.77,6c1.81-.09,3.16-1.68,4.06-3.26s1.64-3.35,3.14-4.38,4.06-.71,4.53,1a4.13,4.13,0,0,1-.12,2l-1.61,7.17a24.92,24.92,0,0,0,4.64-.47,2.1,2.1,0,0,0,1.1-.46,2.14,2.14,0,0,0,.46-1.33,37.09,37.09,0,0,1,2.26-8.92c1.88,1.75,2,4.65,2,7.22a1.34,1.34,0,0,0,.36,1.07,1.36,1.36,0,0,0,.89.2l7.07-.07a8.1,8.1,0,0,0,4.63-1c1.36-1,2-2.64,2.94-4a8.38,8.38,0,0,1,6.9-3.37,38.37,38.37,0,0,1-5.57,6.57c1.4,1.37,3.66-.09,5.12-1.41a38.45,38.45,0,0,1,8.9-6l7.08-4c12.87-31.76,10.9-67.25,10.54-101.52-.39-38.67,1.54-77.49-2.59-116s-14.77-77.18-37.8-108.26l-6.63-1.6a9.72,9.72,0,0,1-9.84-3.46c-1.61-2.12-2.26-4.81-3.52-7.16-2.66-5-7.95-8.09-13.42-9.38s-11.19-1-16.79-.53a13.16,13.16,0,0,1,7.1,5.58,27.69,27.69,0,0,1,3.46,8.52,89.36,89.36,0,0,1-21.24,3.36Zm-295.28,250.73A379.31,379.31,0,0,1,1492,1760c1.25.94,2.65,2.29,2.24,3.8l6.25,5.09c3.3.09,6.26,1.94,9,3.72,5.78,3.71,11.74,7.6,15.49,13.36l.62-.26a90.6,90.6,0,0,0,11-10.87,4.91,4.91,0,0,0,.82-1.2c.72-1.73-.7-3.58-1-5.44-.48-3.57,3.41-6.68,2.84-10.23a5.85,5.85,0,0,0-4-4.24,17.18,17.18,0,0,0-6-.63l-10-3.15c-15.73-6.08-27.68-19.08-42.24-27.6l-5.65-13.47c-.83-3.06-3.45-5.25-5.92-7.23-6.85-5.47-13.74-11-21.45-15.16s-16.37-7-25.13-6.67l-6.89,1a50.72,50.72,0,0,1-22.12-2.71c-6.39-2.3-12.27-5.87-18.69-8.08a8.45,8.45,0,0,0-3-.6,9.37,9.37,0,0,0-2.87.75l-18.17,6.94.62.43c2.92,1.86,6.44,2.43,9.76,3.4a80,80,0,0,1,14.12,6.17l30.15,15.55a35.29,35.29,0,0,1,6.1,3.7c3.44,2.81,5.65,6.81,7.67,10.76Zm-112.24-60q14-4.85,27.7-10.34a25.4,25.4,0,0,0-10.76-6.21,68.14,68.14,0,0,1-7.07-1.89,28.35,28.35,0,0,1-6.38-4,312.17,312.17,0,0,1-28.58-24.68c-2.37-2.31-4.71-4.67-7.27-6.77a96.26,96.26,0,0,0-9.1-6.37l-8.19-7c-24.07-4.52-44.12-20.56-66.39-30.73-7.24-3.3-14.74-6-22.23-8.68-52.91-19-105.89-38-160.14-52.66l-8-1.67c-5.42-1.18-10.85,2.24-16.38,2a27.65,27.65,0,0,1-8.07-2.11,130.71,130.71,0,0,0-22.53-6l-.45-4.61c-1.88-6.93-7.89-12.08-14.42-15.1s-13.68-4.31-20.58-6.33c-7.86-2.29-15.4-5.53-23-8.49a340.61,340.61,0,0,0-141.74-22.37l-7.73,3.26a15.08,15.08,0,0,0-7.47,3.64,8.57,8.57,0,0,1-2.61,2,6.74,6.74,0,0,1-2.76.23l-7.09-.4a7.44,7.44,0,0,1-4.17-1.08c-1.75-1.34-2-4-3.63-5.46l-11.32-6.09q-63.57-18.3-128.38-31.84c-33.6-7-69.28-12.94-101.6-1.4-31.27,11.16-56.65,37.84-89.57,42.23s-64.18-14.79-90.61-35-53.27-43.06-86.16-48c-49.86-7.45-98,31.58-115,79-6.75,18.88-9,41.8,3.62,57.39,4.66,5.76,11.16,10.26,14,17.11,5,12.18-3.55,25.22-10.26,36.54-14.91,25.18-22.18,55.45-16.93,84.24s23.91,55.54,50.61,67.53c11.16,5,24.76,8.58,29.92,19.68,3.48,7.49,1.9,16.22.69,24.39-3.58,24.23-3,49.79,7,72.14,14.64,32.58,46.65,53.28,77,72.12,5.83,3.62,12.09,7.37,19,7.31,6.5,0,12.42-3.51,18-6.86,10.25-6.17,20.7-12.51,28.39-21.67,7.44-8.87,12.09-20.16,21.09-27.42,15.58-12.57,38-9,58-10a117.69,117.69,0,0,0,110.32-139.74c-2.59-13.51-7.57-26.84-6.67-40.57,1.62-24.82,22.12-45.94,21.65-70.81-.33-17.62-12.55-34.4-29.21-40.13L511,1531.45a23.79,23.79,0,0,1-4.83-16.16c.42-5.64,2.85-10.92,5.62-15.85A111.81,111.81,0,0,1,525,1480.79a39.15,39.15,0,0,1,8.93-8,43.32,43.32,0,0,1,11.62-4.36c37.75-9.77,77.36-9.84,116.22-6.68,9.54.77,19.15,1.76,28.22,4.8,9.49,3.19,18.17,8.56,27.8,11.3a54.09,54.09,0,0,0,28.29.34l7.36-6.2,12.28.61a10.25,10.25,0,0,1,4,.73c1.86.89,3,2.78,4.2,4.45,4.81,6.62,12.13,10.89,19.44,14.58a147,147,0,0,0,25.53,10.33c7.34,2.1,14.88,3.43,22.26,5.35,5.1,1.32,10.13,2.93,15.29,4a146.41,146.41,0,0,0,17.73,2.14l59.86,4.74,9.21,1.47a15,15,0,0,0,6.68-1.42,15.63,15.63,0,0,1,3-1.25,9.39,9.39,0,0,1,3,0,77.1,77.1,0,0,1,14.87,3.11c3.46,1.09,6.85,2.42,10.23,3.76a34.58,34.58,0,0,1,5.88,2.74c4.11,2.59,6.95,6.73,9.67,10.76l4.55,10.69c29.47,6.41,57,19.53,84.41,32.06q95.93,43.8,195.27,79.5c9,3.22,18.08,6.42,27.58,6.91Z"></path>
    <path data-name="1a" data-official="" data-plain="Hooded Petal and Filaments" data-loc="" d="M1392.05,2905a175,175,0,0,1,100.48-.92c10.57,3.09,21.61,7.82,27.15,17.33a35.46,35.46,0,0,1,4.21,15.09c.86,10.79-1.39,22.16-8.1,30.65-14.07,17.8-42.91,18.36-56.47,36.55-4.78,6.41-7.31,14.67-13.61,19.59-4.56,3.56-10.45,4.83-16.14,5.87a363,363,0,0,1-55.91,5.75,7.55,7.55,0,0,1-4.29-.75c-2.71-1.73-2.17-5.73-1.87-8.94,1-11.22-5.46-22.26-14.68-28.73s-20.76-8.92-32-9.21c-16.92-.42-35.37,3.31-49.68-5.73a12.06,12.06,0,0,1-4.9-5c-1.2-2.7-.69-5.81-.11-8.71,3.24-15.92,10.47-33.53,26-38.46,5.72-1.82,11.86-1.61,17.87-1.8a126.39,126.39,0,0,0,58.8-16.84Z"></path>
    <path data-name="1b" data-official="" data-plain="Section of Seed-vessel" data-loc="" d="M1541.89,2880.94c.63-13.48,3.95-27.16,11.78-38.15s20.62-18.93,34.12-18.72c7.26.12,14.29,2.49,21.51,3.28,8.57.94,17.32-.37,25.79,1.2,11.58,2.15,21.6,9.54,29.6,18.19,7,7.53,12.93,16.8,13.15,27.05.42,18.66-17.48,32.37-23.31,50.1-2.49,7.55-2.69,15.62-3.74,23.49s-2.93,15.58-3.31,23.47c-1,20.29,8,39.77,9.41,60,.45,6.66-.13,13.92-4.46,19-2.92,3.43-7.19,5.41-11.45,6.88-13.8,4.73-28.66,5-43.24,5.27-6.71.12-13.94.08-19.41-3.82-3.14-2.24-5.35-5.55-7.15-9a57.63,57.63,0,0,1-6.36-21.25c-1-10.23.76-20.58-.34-30.8-.94-8.77-4-17.16-6.58-25.58a313.24,313.24,0,0,1-13.27-68.69Z"></path>
    <path data-name="1c" data-official="" data-plain="Stinging hairs magnified" data-loc="" d="M1680.75,2810a477.44,477.44,0,0,1,90.16-2.3,40.55,40.55,0,0,1,11.13,1.87,31.24,31.24,0,0,1,10.6,7.1c11.43,11,17.86,26.06,23.74,40.78,15.68,39.26,29.72,80.4,28.36,122.65-.27,8.34-1.5,17.43-7.56,23.17-7.25,6.86-19.79,7.23-25,15.75-3.09,5-2.56,11.44-4.17,17.13-2.55,9-10.44,15.68-19.11,19.17s-18.17,4.24-27.49,5l-23.17,1.8c-2.81.22-6,.31-8-1.62-1.65-1.56-2-4-2.26-6.26a74.18,74.18,0,0,1,4.53-33c2.34-6.16,5.52-12,7-18.44,2.22-9.47.64-19.4-1.5-28.89-7.08-31.37-20.06-61-33-90.49-5.49-12.53-11.1-25.24-19.83-35.76-3.31-4-7.07-7.66-9.72-12.11s-4.11-10-2.32-14.85Z"></path>
    <path data-name="2" data-official="Bartonia aurea" data-plain="Golden-flowered Bartonia" data-loc="California" d="M1273.41,2218.83l5,1.51,2.35,7.8a6.39,6.39,0,0,0,1.18,2.51c1.53,1.71,4.25,1.31,6.49.81a195.21,195.21,0,0,1,36.68-4.63c3.13-.1,6.47-.19,9-2s3.81-5.13,5.85-7.63l-1.77-9.08.73-10.1c.18-2.51.07-5.6-2.16-6.78-1.59-.84-3.52-.26-5.22.31-9.23,3.09-19,5.37-28.64,3.94a2.3,2.3,0,0,1-1.53-.67,1.92,1.92,0,0,1-.12-1.72c.84-2.79,3.66-4.42,6.24-5.78a85.39,85.39,0,0,1-16.94,2.89c-3.16.21-6.57.33-9,2.31-2.24,1.79-3.23,4.76-5.32,6.72Zm-90.62,627.55,9.67-104.44-.85-23.33c4.85-17.51,9.72-35.07,12.36-53.05,1.6-10.9,2.37-21.93,4.29-32.78,1.75-9.85,4.44-19.53,6-29.41,2.51-15.9,2-32.14,3.91-48.13s6.36-32.37,17.13-44.34c9,10.07,11.88,24.21,12.8,37.7s.31,27.25,3.87,40.29c4.41,16.16,14.84,29.88,25.07,43.14l11.84,37.33.38,14.1-1.69,51c-1,28.42-1.91,57-7.29,84.91-2.49,13-6.78,26.93-17.91,34-4.35,2.77-9.4,4.22-14.44,5.34-16.9,3.75-37,3.12-48.43-9.9Zm169-854.63c-3.07,11.45-4.86,23.09-3.42,34.78-5.75-8.85-14.14-15.36-23.2-21l2.14-.72a71.3,71.3,0,0,0,22.56-11.76Zm-53.43-39.68c-1.8-8.24-6.29-15.63-8.88-23.65a84.21,84.21,0,0,1-3.34-18.53,202.55,202.55,0,0,1,.61-41.63,56.21,56.21,0,0,1,3.25-14.59c1.88-4.63,5-8.92,9.26-11.44l4.07-4a30.32,30.32,0,0,1,14.41,3.93,35.59,35.59,0,0,1,8.53,7.86,94.53,94.53,0,0,1,21.37,67.87,2.77,2.77,0,0,0-2.23,2.86,8.15,8.15,0,0,0,1.3,3.73,5.61,5.61,0,0,0-3.53,6.64,2.89,2.89,0,0,0-3.2,2.08,11.3,11.3,0,0,1-.33,1.77,3.75,3.75,0,0,1-1.49,1.49q-16.68,11.16-34.13,21.1Zm39.21-269.78,3.74-1.7,5.32-2.4.56-1,.62.43a23.71,23.71,0,0,0,6.84,2.62l.21.29c6.27,10.93,12.54,21.86,18.65,32.89a26.69,26.69,0,0,1,2.94,6.71c1.28,5.45-.89,11.34.76,16.69l5.26,11a144.43,144.43,0,0,1,15,80.18,42.06,42.06,0,0,1-2.71,12.28c-1.85,4.32-5,8.34-5,13l-3,6a67.39,67.39,0,0,1-10.61,6.93,10.78,10.78,0,0,1-5,1.59c-4.11,0-6.82-4.09-9.07-7.53-11.39-17.43-28.92-29.75-46-41.64l-3.16-8.14c-1.26-21.4.74-42.85,3-64.17A190.67,190.67,0,0,1,1319,1725a118.48,118.48,0,0,1,8-23.63Zm98.32,43.56,7.55,3.23A379.31,379.31,0,0,1,1492,1760c1.25.94,2.65,2.29,2.24,3.8l6.25,5.09c3.3.09,6.26,1.94,9,3.72,5.78,3.71,11.74,7.6,15.49,13.36l-1.87,2.19c-4.69,8.46-12.59,14.56-19.48,21.34-8.08,8-14.92,17.06-22.57,25.42s-16.34,16.13-26.82,20.44c-3.3,1.36-7.07,2.36-10.39,1a11.35,11.35,0,0,1-4.54-3.65c-3.3-4.24-4.55-9.73-4.93-15.09s0-10.75-.42-16.1c-.67-8-3.22-15.7-4.67-23.59-1.68-9.16-1.87-18.52-3.12-27.75-1.58-11.63-4.83-23-8.06-34.24Zm46.91-15c10.22-2,20.75,1.47,30,6.28s17.78,11,27.42,14.92a19.24,19.24,0,0,1,5,2.56,5.46,5.46,0,0,1,2.21,4.92c-.39,2.21-2.51,3.64-4.51,4.66a52.3,52.3,0,0,1-17.76,5.45l-5.85.27c-15.73-6.08-27.68-19.08-42.24-27.6l-5.65-13.47Zm177.75,267.65c-11.86-6.52-23.87-13.09-37-16.44-5.6-1.43-11.67-2.22-17-.09-13.21,5.23-15.51,24.64-28.24,30.93-7.85,3.88-17.73,1.35-24.47-4.24s-10.84-13.72-14-21.89c-7.25-18.83-10.33-39-16.23-58.27-1-3.32-2.18-6.72-4.51-9.29-3.15-3.47-7.89-4.88-12.12-6.89a41.17,41.17,0,0,1-16.34-14.12l-1.57-4.84,2.44-4.09a19.62,19.62,0,0,0,5.71,4.14c.62-2-1.23-3.74-2.43-5.43a2.18,2.18,0,0,1-.51-1.38,2.33,2.33,0,0,1,.51-1.12l3-4.5a7.62,7.62,0,0,0,7,.16l-3.12-3.06a1.23,1.23,0,0,1-.41-.6,1.26,1.26,0,0,1,.34-.94c10.15-14,20.88-27.67,31.83-41.11a44.93,44.93,0,0,1,6.55-7c1.33-1.06,3-2.36,2.65-4l1.81-1.24.65.59c22.88,17.49,41.61,39.77,59.24,62.53q25.71,33.18,48.83,68.25c8.28,12.57,16.4,25.5,20.92,39.87l-1.15,5.84Zm170.6,31.32-9.24-7.19c-9.91-9.21-19.92-18.53-27.41-29.81-1.78-2.67-3.43-5.48-5.8-7.66-2.72-2.5-6.24-4-8.78-6.74,4.09,4.77,3.44,11.8,3.48,18.08.06,7.33,1.37,14.58,2.69,21.79a78.33,78.33,0,0,0-27.11-10.16l-4.2,11.87c.24,2.12-2.55,3.14-4.69,3.14-12.67,0-23.51-9.28-30.86-19.6s-12.55-22.17-21-31.61l-4.91-5.14a21.13,21.13,0,0,0-8.06-6.61,9.8,9.8,0,0,1-2.93-1.69,2.59,2.59,0,0,1-.63-3.09,3.87,3.87,0,0,0,.34-.55c.29-.75-.57-1.5-1.38-1.57s-1.6.24-2.41.18c-1.63-.12-2.75-1.62-3.65-3-1.29-2-2.64-4.39-1.69-6.54.46-1,1.42-2.15.85-3.12-1.1-1.21-2.76,2-4.25,1.36a1.92,1.92,0,0,1-.66-.61l-2.75-3.55a2.93,2.93,0,0,1-.69-1.27c-.22-1.47,1.75-2.85,1-4.15a9.09,9.09,0,0,0-2.28,1.91,18.46,18.46,0,0,0-5.39-6.29l-.23-1,1.11-3.38a1.53,1.53,0,0,0,.11-.91c-.18-.6-1-.76-1.56-.57s-1.11.58-1.71.72c-1.59.38-3-1.1-3.92-2.42L1630.08,1870a3.56,3.56,0,0,1-.65-1.19c-.41-1.6,1.41-3.38.53-4.77a3.26,3.26,0,0,0-2.81,1.82,29.78,29.78,0,0,1-5.1-6.31,2.79,2.79,0,0,1-.52-1.39c0-1.88,3.26-2.33,3.42-4.21a4.32,4.32,0,0,0-4.93,1.17l-3.85-5.33-1.29-.47c1.17-.51,2.45-1.13,2.92-2.32s-.7-2.88-1.86-2.35-1.28,2.28-2.42,2.23a1.85,1.85,0,0,1-1-.47c-1.44-1.1-3-3-1.9-4.46a8.54,8.54,0,0,1,1.42-1.1c.46-.39.79-1.1.43-1.58a1.54,1.54,0,0,0-1.47-.37l-3.84.37a38.9,38.9,0,0,0-4.33-5.41,8,8,0,0,0,3.78-4.86l-4.94,2.86a1.74,1.74,0,0,1-1.06.34,1.77,1.77,0,0,1-1.09-.86c-3.06-4.32-5.6-9.33-10.17-12l0-1.12a15.18,15.18,0,0,0,3.45-3.87,4.28,4.28,0,0,0-3.75.39c-.46.29-.95.68-1.47.56a1.7,1.7,0,0,1-.66-.41l-7.72-6.74,6-4.61c-.09-.78-1.25-.68-2-.35l-6,2.74-7.43-6.88a16.73,16.73,0,0,0,4.71-3.91l-6.5,2.77a45.16,45.16,0,0,0-9.34-8l-.59-2.56,3.95-2.81c7-3,15-1.16,22.55-1.71,5.31-.39,10.44-2,15.67-3,21.27-4.13,43.32,1.4,64.85-1l11.61-.45a130.56,130.56,0,0,1,25.9-4.14c5.45-.32,11-.27,16.18,1.54s9.82,5.66,11.39,10.88c.93,3.06.78,6.46,2.31,9.26a11.56,11.56,0,0,0,7.66,5.29,34.36,34.36,0,0,0,9.56.41l12.38-.63,6.92,2.54,2.77,6c1.81-.09,3.16-1.68,4.06-3.26s1.64-3.35,3.14-4.38,4.06-.71,4.53,1a4.13,4.13,0,0,1-.12,2l-1.61,7.17a24.92,24.92,0,0,0,4.64-.47,2.1,2.1,0,0,0,1.1-.46,2.14,2.14,0,0,0,.46-1.33,37.09,37.09,0,0,1,2.26-8.92c1.88,1.75,2,4.65,2,7.22a1.34,1.34,0,0,0,.36,1.07,1.36,1.36,0,0,0,.89.2l7.07-.07a8.1,8.1,0,0,0,4.63-1c1.36-1,2-2.64,2.94-4a8.38,8.38,0,0,1,6.9-3.37,38.37,38.37,0,0,1-5.57,6.57c1.4,1.37,3.66-.09,5.12-1.41a38.45,38.45,0,0,1,8.9-6l7.08-4,8-2.53c7.63,1.22,15.37,1.69,23,3.08s15.19,3.79,21.37,8.44,10.78,11.81,10.94,19.54a15.8,15.8,0,0,1-3.42,10.56,24.36,24.36,0,0,1-5.78,4.55c-12.64,7.94-26.92,15.21-41.75,13.58l-9.47-3.42a3.78,3.78,0,0,0-2.19-3.66,9.91,9.91,0,0,0-4.43-.82,14.14,14.14,0,0,1-4.5-.53l-4.88-.24a286.24,286.24,0,0,0-39.71,1.65c-3.46.38-7.16.94-9.72,3.3-3.21,3-3.66,7.8-3.84,12.17-.53,12.11-.7,24.39,2,36.2a4.33,4.33,0,0,0,.83,2,4.25,4.25,0,0,0,3.29,1c7.47-.06,14.75-2.16,21.92-4.25l9.55-2.77a48,48,0,0,0,8.25-3c3.81-1.9,7-4.77,10.21-7.6,2.78-2.48,5.71-5.18,6.63-8.8l3.78-1.4a43.19,43.19,0,0,1,38.6,19.09c.5.76,1.09,1.62,2,1.71a3,3,0,0,0,1.37-.31c16.63-6.54,34.65-9.92,52.48-8.6s35.45,7.44,49.54,18.45c4.51,3.52,8.75,7.67,11,12.91s2.33,11.76-1.12,16.32c-2.43,3.2-6.17,5.06-9.7,7a133.13,133.13,0,0,0-28.07,20.35,82.87,82.87,0,0,0,47.13,20.29l8.14,2.71a371.76,371.76,0,0,1,55.57,27.85c5.59,3.42,11.28,7.17,14.77,12.72,2.81,4.49,4,9.83,4.47,15.1s.26,10.83-3,14.89c-2.09,2.6-5.15,4.2-8.2,5.54-24.92,11-53.29,9.83-80.5,8.45-21.29-1.07-42.85-2.2-63.16-8.69-7.51-2.4-14.78-5.51-22-8.62l-38.68-16.58ZM2062.94,905l-10.07-23.83c-6.55-46.06-13.62-93.6-38-133.2-15.49-25.11-37.16-45.68-57.27-67.28-10.37-11.13-20.45-22.68-32.59-31.83-10.37-7.82-22-13.74-33.84-19.13a478.68,478.68,0,0,0-79.36-28.06l-23-20.67c-27.72-10.18-57.06-15.62-84.36-26.86s-53.49-29.74-64.63-57.09L1626,481.86a59.92,59.92,0,0,0-93,15.42c-4.19,7.65-6.74,16.26-12.07,23.17s-14.87,11.82-22.82,8.2l-19.1-4.59c-15.82-8.5-21.16-28.38-33.14-41.77-10.36-11.58-25.34-17.85-40.2-22.42-3.39-1.05-7-2-10.46-1.27-7.92,1.73-11.14,11-13,18.94l-17,72.41c-3.68,15.75-9.67,34.07-25.16,38.74l2.53,18.76c-2.22,7.44-4.47,14.94-8.16,21.76s-9,13-16,16.45c-6.16,3-13.18,3.73-20,4.13-25.6,1.51-51.71-.3-76.51,6.22l-10.11,3c-6.2.14-11.06,5.43-17,7.12-8.92,2.52-17.81-3.31-26.82-5.46-7.87-1.88-16.1-.93-24.12,0-7,.84-14.14,1.73-20.43,4.88l-4.39,8.61a41.53,41.53,0,0,0,2,26.84,81.47,81.47,0,0,0,4.3,8.23q3.57,6.26,7.15,12.51C1115,727,1096.31,726,1078.06,725l-26.17,13.85A58.75,58.75,0,0,1,1029.53,768c-4,2.71-8.33,4.92-12.33,7.64-7.73,5.26-14,12.3-20.27,19.27l-3.39,14.67c.15,4.95-6.13,7.3-8.66,11.55-1.19,2-1.5,4.4-2.48,6.5-.75,1.6-1.87,3-2.62,4.61-2.06,4.39-1.11,9.53-.13,14.27q1.67,8,3.32,16c.61,2.93,1.25,5.94,2.9,8.45,2.12,3.23,5.64,5.21,9,7.08,8.67,4.78,17.61,9.64,27.42,11l9.52,1.53a4.83,4.83,0,0,1,.37,5.7c-1.31,1.95-3.84,2.63-5.66,4.13a7.63,7.63,0,0,0,2,13l4.1,3.45c11,1.37,20.15,9,28.15,16.64s16,16.06,26.45,19.76c-7.1-.72-14.23-1.44-21.34-.94-8.37.59-16.54,2.86-24.88,3.77s-17.27.31-24.28-4.3a76.75,76.75,0,0,1,.6,13.55L1003.71,977c-6.33.86-12.66-1.06-18.91-2.37a101.85,101.85,0,0,0-20.75-2.14c-1.91,0-4.21.3-5,2l-3.42,3.64A26.79,26.79,0,0,0,960.8,991c4.13,5.18,10.43,8,16.4,10.87,19.1,9.12,37.21,20.15,55.28,31.17a78.66,78.66,0,0,1,10.94,7.54,39.28,39.28,0,0,1,9.49,12.4l-.48.55a46.28,46.28,0,0,1,17.61,12.54,63.9,63.9,0,0,0,4.83,5.43c3.67,3.35,8.7,5.29,11.44,9.43a2.65,2.65,0,0,1,.57,1.66,3,3,0,0,1-1.35,1.88l-6.81,5.57c-3.77,3.07-7.91,6.29-12.77,6.46-2.91.1-5.73-.94-8.55-1.68a44.31,44.31,0,0,0-16.77-1.12l-.68.18c10.83,11,24.52,18.78,38.91,24.3s29.5,8.86,44.63,11.81a7.58,7.58,0,0,1,3.69,1.42c1,.88,1.44,2.57.54,3.56a3.83,3.83,0,0,1-1.14.75l-16.74,8.48c5.56,3,12,3.63,18.22,4.83s12.67,3.26,16.64,8.17a3.38,3.38,0,0,1,1,2.12c0,1.2-1.13,2.05-2.12,2.72l-6.47,4.37-1,.7a59,59,0,0,1,24.52,8.22c4.47,2.72,8.8,6.36,10.27,11.38-9-.28-17.71,4.79-26.59,3.42-4.63-.71-8.9-3.15-13.56-3.62l3.63,12.59c-8.69,1.1-17.89,2.12-25.88-1.47-5.48-2.46-9.85-6.89-15.14-9.74l12.16,12.41a38.7,38.7,0,0,0,8.3,7c3.39,1.94,7.26,2.81,11.06,3.67,19.59,4.38,39.38,8.79,59.45,8.66l57.11-2.06q10.73,46.68,21,93.47c4.53,20.54,9,41.39,8,62.4-.25,5.26-1.17,11.12-5.37,14.28-2.41,1.81-5.49,2.4-8.46,2.91q-16,2.73-32.19,4.18l-15.52,7.31c-3.39,4.15-3.78,10.14-2.31,15.3s4.55,9.68,7.57,14.11c28.74,42.1,57.49,84.21,87.63,125.32,3.14,4.28,7.85,9.08,12.86,7.32l4.87,2.57c5.22,0,10,3.44,12.82,7.81s4.16,9.54,5.37,14.62l3.87,9.92a2.5,2.5,0,0,1,3.16,3.87c-.92.8-2.38.91-3.07,1.92-1,1.46.42,3.32,1.71,4.51a477.07,477.07,0,0,1,37.37,38.68,51.08,51.08,0,0,0,21.15-14l5.51-6.84c2.65-14.08,9.89-26.84,14.14-40.52,5.91-19,5.92-39.29,8-59.09a277.45,277.45,0,0,1,26-91.09c3-6.29,6.46-12.66,11.92-17,5-4,11.26-6,17.38-7.86,9.54-2.93,19.4-5.85,29.33-4.85,6.45.65,12.6,2.92,18.67,5.18l50,18.56,1.83,1.59,7.89-7.62a10.41,10.41,0,0,1,6.71,3.3,15.29,15.29,0,0,0-7,5.85c1.87,0,3.42-1.37,4.91-2.49s3.47-2.1,5.17-1.34c1.12.5,1.79,1.62,2.64,2.5s1.84,1.55,2.17,2.66c.55,1.81-1.06,3.65-.81,5.53.22,1.61,1.71,2.71,3.07,3.61l6.62,4.36,2.85,2.78c10,10.62,24,16.36,37.76,21.19,8.69,3,18.48,5.82,26.83,1.93a336,336,0,0,1-6.31-34.77,92,92,0,0,1,14.51,5.15c2.46,1.11,5,2.41,6.53,4.6,1.37,1.91,1.87,4.3,2.93,6.4,1.93,3.86,5.59,6.51,9.12,9q9.65,6.83,19.34,13.56l9-.07,1.25-12.6a89.36,89.36,0,0,0,21.24-3.36,27.69,27.69,0,0,0-3.46-8.52,13.16,13.16,0,0,0-7.1-5.58c5.6-.46,11.32-.77,16.79.53s10.76,4.43,13.42,9.38c1.26,2.35,1.91,5,3.52,7.16a9.72,9.72,0,0,0,9.84,3.46l6.63,1.6,16.28,5.6c19.9,1.47,38.43-9.4,57.93-13.67,21.89-4.8,44.83-1.2,67-4.69,15.25-2.41,29.77-8.13,43.85-14.45,9.83-4.41,19.67-9.24,27.66-16.47a57.33,57.33,0,0,0,12.35-16c3.84-7.32,6.07-15.7,5-23.89s-5.93-16.09-13.38-19.68a41,41,0,0,0-11.15-3,506.43,506.43,0,0,0-76.57-6.68c-34.16-.38-68.29,2.71-102.45,2.09l-4.16-10.23c-8.16-4.25-9.74-16-5.56-24.22s12.37-13.47,20.43-17.89c41.47-22.73,88.83-32.81,130.84-54.55a262,262,0,0,0,49.68-33.42c9-7.69,17.58-16.11,23.83-26.18,5.82-9.35,9.47-19.9,12.23-30.56,7-27.09,8.57-55.27,9.52-83.24Q2067.07,992.2,2062.94,905Zm-771.12,147.82c-.78,6-2.33,11.84-2.39,17.84l-5.48-8.23c-1-3.37-3.44-6.11-5.79-8.73l-7.75-8.64c-3.69-4.12-7.49-8.32-12.39-10.89l-2.66-5.23c-.88-1.82-2.64-3.13-3.33-5a9.23,9.23,0,0,1-.43-3,57.87,57.87,0,0,1,7-29.12,3.83,3.83,0,0,1,1.64-1.84,2.7,2.7,0,0,1,3.18,1.33,7.73,7.73,0,0,1,.81,3.63l2.38,3.48,9.3,16.38a44.54,44.54,0,0,1,2.33,4.5c1,2.36,1.6,4.89,2.68,7.22s2.8,4.53,5.22,5.39l3.41,3.32C1292.51,1040.52,1292.59,1046.88,1291.82,1052.84Zm112.86,125.88a9.53,9.53,0,0,1-2.93,6.67,22.4,22.4,0,0,0-2.19,2,9.46,9.46,0,0,1-1.12,1.39,4.94,4.94,0,0,1-3,.82l-16,.78-8.54-7.51A137.39,137.39,0,0,1,1346.1,1148l-2.58-6.5a68.32,68.32,0,0,1,5.3-13.94c1.11-2.19,2.46-4.43,4.64-5.56a8.76,8.76,0,0,1,7.8.34,24.58,24.58,0,0,1,6.29,5,356.41,356.41,0,0,1,38,45.31Zm109,98.14a126.27,126.27,0,0,1-14.47,14.69l-5.35-3c-13.11-13.45-26.39-27-42.28-37l-8.45-8.42-.81-18.33,5.48-.58a30.19,30.19,0,0,1,3.68-.25,15.66,15.66,0,0,1,10.69,4.47l5.74,4.71a4.13,4.13,0,0,0,2.87,3.83,7,7,0,0,1,1.71.55c.72.47,1,1.38,1.53,2.08,1.16,1.54,3.31,1.85,5.22,2.14a54.07,54.07,0,0,1,26.49,12l4.48,4.87q2.38,4.89,4.75,9.77a8.35,8.35,0,0,1,1.11,3.62C1516.1,1273.87,1514.9,1275.45,1513.73,1276.86Zm-245,304.88a40.36,40.36,0,0,1-14.41,5.91c-3.25.64-6.68-2.13-9.85-3.11-3.45-1.06-6.32-3.44-9.08-5.76-3.84-3.22-7.67-3.45-11.51-6.67l-6.71-5.19a47.65,47.65,0,0,0-18.76-6.41c-5.25-.62-10.57-4.36-15.81-5a66.23,66.23,0,0,1-36.14-16c-5.93-5.16-11.66-9-19.16-11.41-5.46-1.71-11.33-1.36-17-2.23-13.26-2-24.64-10.63-37.66-13.86-16.52-4.09-35.09.54-50.16-7.37l-1.67-5.62c5.8-6.35,12.92-11.32,20-16.24,18.59-13,37.24-25.94,57.29-36.51a274.76,274.76,0,0,1,25.54-11.83,80.79,80.79,0,0,1,15.19-4.82c10.75-2,21.82-.25,32.73-1l1.91.52a9.72,9.72,0,0,0,7.23,7.55l.35.45q20.55,28.38,38.35,58.62l-4.29,1.86a9.52,9.52,0,0,1,10.17,8.21,17.28,17.28,0,0,0-3.52,4.71,15.47,15.47,0,0,0,6.74-3l21.59,30.39a5.85,5.85,0,0,1,1.28,2.68,2,2,0,0,1-1.47,2.27,6.6,6.6,0,0,1,5.9,1.73,22.21,22.21,0,0,1,3.85,5.1,105.83,105.83,0,0,0,10.94,14.51c2.79,3.11,6,6.72,5.37,10.85Zm-266.89-178.55a28.4,28.4,0,0,0,11.3,9.54c2.08,1,4.7,1.63,6.53.24,1.31-1,1.77-2.75,2.79-4,2.09-2.65,6-2.87,9.34-2.87l13.4,0,6.12-3.53a10.38,10.38,0,0,0,5.83-6.86c.69-2.71.25-5.6.87-8.32,1-4.32,4.68-7.68,8.84-9.19s8.76-1.41,13.13-.69,8.62,2,13,2.9c4.83.95,9.76,1.33,14.59,2.27,10.4,2,20.11,6.56,29.69,11.06l7.21,8.75c-1.68,3.4-5.62,4.91-9.22,6.07-9.89,3.17-20,5.87-29.41,10.19-16.93,7.74-31.08,20.31-45.91,31.57-18.95,14.39-39.32,26.8-59.66,39.14l-11.15,1c-18.09-8.89-36.25-17.8-55.36-24.19-29.9-10-62.5-14-88.77-31.43-4-2.67-8.16-6.08-9-10.83s1.76-9.38,5.45-12.33,8.3-4.43,12.83-5.75c41-12,84.41-15.79,126.66-9.89Z"></path>
    <path data-name="2a" data-official="" data-plain="Seed magnified" data-loc="" d="M435.77,2775.85c-14.49-12.1-26.52-28.15-30-46.69s2.94-39.62,18.64-50.09c17.36-11.59,40.52-8,60.51-2,5.16,1.54,10.45,3.32,14.43,6.95,5.93,5.4,7.87,13.8,9.35,21.69,2.24,12,4.07,24.7.32,36.36s-12.83,21.07-23.53,27-22.93,8.55-35.1,9.59Z"></path>
    <path data-name="2b" data-official="" data-plain="Section of Seed-vessel" data-loc="" d="M549.44,2735.32c-12.14-13.69-24.69-29-25.63-47.29-.28-5.26.56-10.81,3.74-15,4.37-5.77,12.07-7.73,19.22-8.83,18.3-2.81,37-2.42,55.42-.78,12.35,1.09,25,2.84,35.93,8.65s20.08,16.47,20.9,28.85c1.47,22.16-22.79,40.2-20.44,62.29.68,6.4,3.63,12.72,2.42,19.05-1.87,9.66-12.39,14.87-21.94,17.24-16.12,4-32.92,4.09-49.53,4.16-8.29,0-18-.68-22.5-7.67s-.93-16.31,2-24.2,4.32-18.42-2.57-23.26Z"></path>
    <path data-name="3" data-official="Microsperma bartonoides" data-plain="" data-loc="Mexico" d="M1291.82,1052.84c-.78,6-2.33,11.84-2.39,17.84l-5.48-8.23c-1-3.37-3.44-6.11-5.79-8.73l-7.75-8.64c-3.69-4.12-7.49-8.32-12.39-10.89l-2.66-5.23c-.88-1.82-2.64-3.13-3.33-5a9.23,9.23,0,0,1-.43-3,57.87,57.87,0,0,1,7-29.12,3.83,3.83,0,0,1,1.64-1.84,2.7,2.7,0,0,1,3.18,1.33,7.73,7.73,0,0,1,.81,3.63l2.38,3.48,9.3,16.38a44.54,44.54,0,0,1,2.33,4.5c1,2.36,1.6,4.89,2.68,7.22s2.8,4.53,5.22,5.39l3.41,3.32C1292.51,1040.52,1292.59,1046.88,1291.82,1052.84Zm112.86,125.88a9.53,9.53,0,0,1-2.93,6.67,22.4,22.4,0,0,0-2.19,2,9.46,9.46,0,0,1-1.12,1.39,4.94,4.94,0,0,1-3,.82l-16,.78-8.54-7.51A137.39,137.39,0,0,1,1346.1,1148l-2.58-6.5a68.32,68.32,0,0,1,5.3-13.94c1.11-2.19,2.46-4.43,4.64-5.56a8.76,8.76,0,0,1,7.8.34,24.58,24.58,0,0,1,6.29,5,356.41,356.41,0,0,1,38,45.31Zm109,98.14a126.27,126.27,0,0,1-14.47,14.69l-5.35-3c-13.11-13.45-26.39-27-42.28-37l-8.45-8.42-.81-18.33,5.48-.58a30.19,30.19,0,0,1,3.68-.25,15.66,15.66,0,0,1,10.69,4.47l5.74,4.71a4.13,4.13,0,0,0,2.87,3.83,7,7,0,0,1,1.71.55c.72.47,1,1.38,1.53,2.08,1.16,1.54,3.31,1.85,5.22,2.14a54.07,54.07,0,0,1,26.49,12l4.48,4.87q2.38,4.89,4.75,9.77a8.35,8.35,0,0,1,1.11,3.62C1516.1,1273.87,1514.9,1275.45,1513.73,1276.86Zm-437.81,702.55c-108,11.44-209.52,55.86-307.68,102.37-61.12,28.95-122.35,59.32-174.63,102.22-22.09,18.14-42.38,38.35-62.39,58.76-27.25,27.8-54.06,56.07-78.91,86-20.05,24.17-39,49.83-50.3,79.14s-14.18,62.93-2.1,91.91c2.35,5.64,5.36,11.21,10.06,15.11,4.33,3.6,9.77,5.53,15.19,7.06,28.24,8,59.91,6.12,85.19-8.77,21.07-12.4,36.2-32.56,50.75-52.2,21.46-28.95,43.1-58.23,57.44-91.3,12.07-27.85,21.52-61.19,49.05-74l8.65-2.17c34.46-9,71-10.45,105.86-3.15,11.29,2.37,22.38,5.63,33.5,8.73,43.32,12.07,88.58,21.74,133,14.89l13.18-5.26c-.61-4.82,1.45-9.59,4.11-13.65l-1.3-3.89a53.72,53.72,0,0,1-12.31-4.37,11.5,11.5,0,0,0-3.73-1.4c-2.6-.29-5.14,1.4-7.73,1-2.8-.4-4.75-3-7.41-4a13.14,13.14,0,0,0-4.51-.53H895.26a36.8,36.8,0,0,1-8.26-.62,12.41,12.41,0,0,1-7-4.08c-1.9-2.38-2.5-5.53-2.8-8.56s-.35-5.84-.42-8.76l1.32-13a119.39,119.39,0,0,1,7.16-10c12.28-15.65,26.81-29.75,44-39.8s37.1-15.86,56.95-14.61l11,1.56a2.73,2.73,0,0,1,3.2,1.88,19.26,19.26,0,0,1,.19,2.16,4.74,4.74,0,0,0,3.38,3.51,12.68,12.68,0,0,0,5.1.23,13.12,13.12,0,0,0,4.93-1.23,11.78,11.78,0,0,0,3.05-2.62c2.56-2.84,4.82-6.15,8.21-7.91,3.82-2,8.4-1.67,12.68-1.18l16.66-.08c19.74,2.14,39.12,9,58.92,7.55a6.15,6.15,0,0,0,3.14-.84,5.78,5.78,0,0,0,2-3.48,26.92,26.92,0,0,0,.8-7.54c-.09-2.59-.51-5.4.87-7.59a9.36,9.36,0,0,1,4.67-3.31c10.6-4.3,22.4-4.14,33.84-3.92l4.3-1.64a21,21,0,0,0,6-13.64l2.1-5.67a102.24,102.24,0,0,1-14-29.8l-1.72-7.75a95.29,95.29,0,0,1-9-19c-1.48-4.26-2.66-8.77-2-13.23l2.25-6.74c1.6-2.48,5-3.1,7.9-2.9s5.92.95,8.79.3a1.33,1.33,0,0,1-.12-1.32l11.06.25a27.42,27.42,0,0,1,.8-9.92c.27-1,.58-2.17,0-3a3.82,3.82,0,0,0-1.21-1,17.37,17.37,0,0,1-5.4-5.62c-1.78-3-3-6.83-6.33-7.91a6,6,0,0,0,2.61-.81,2.21,2.21,0,0,0,1-2.37c-.5-1.48-2.55-1.44-4.1-1.7-4.71-.78-7.82-6.66-12.57-6.22a5.19,5.19,0,0,1-1.36.06,3.36,3.36,0,0,1-1.59-1l-11.77-11.27c-4-3.84-8.21-7.8-13.48-9.54-4.46-1.47-9.29-1.22-14-1l-9.74-3.14c-4.46-3.45-3.85-10.85-.16-15.13s9.39-6.15,14.84-7.6ZM996.5,1538c-2.72-4-5.56-8.17-9.67-10.76a34.58,34.58,0,0,0-5.88-2.74c-3.38-1.34-6.77-2.67-10.23-3.76a77.1,77.1,0,0,0-14.87-3.11,9.39,9.39,0,0,0-3,0,15.63,15.63,0,0,0-3,1.25,15,15,0,0,1-6.68,1.42l-9.21-1.47-59.86-4.74a146.41,146.41,0,0,1-17.73-2.14c-5.16-1-10.19-2.66-15.29-4-7.38-1.92-14.92-3.25-22.26-5.35a147,147,0,0,1-25.53-10.33c-7.31-3.69-14.63-8-19.44-14.58-1.21-1.67-2.34-3.56-4.2-4.45a10.25,10.25,0,0,0-4-.73L753.4,1472l-7.36,6.2a54.09,54.09,0,0,1-28.29-.34c-9.63-2.74-18.31-8.11-27.8-11.3-9.07-3-18.68-4-28.22-4.8-38.86-3.16-78.47-3.09-116.22,6.68a43.32,43.32,0,0,0-11.62,4.36,39.15,39.15,0,0,0-8.93,8,111.81,111.81,0,0,0-13.18,18.65c-2.77,4.93-5.2,10.21-5.62,15.85a23.79,23.79,0,0,0,4.83,16.16l4.62,16.17c16.66,5.73,28.88,22.51,29.21,40.13.23,12.43-4.77,23.93-10,35.42l16.08-1.76a51.27,51.27,0,0,1,46.67,18c6.78,8.36,11.4,19.33,21.15,23.87,6.33,2.94,13.65,2.52,20.62,2l67.17-4.6c14-1,28.3-2,41.34-7.21,28.43-11.41,46.68-41,75.39-51.68,12.75-4.73,26.57-5.33,40.07-7a255.22,255.22,0,0,0,119-46.93Zm721.24,115.34c-2-2.21-4.2-4.58-4.4-7.55a12.53,12.53,0,0,1,.67-4.18,458.32,458.32,0,0,0,16.26-106.74l10.51-14.65q-1-21-2.09-41.9l-9,.07q-9.69-6.74-19.34-13.56c-3.53-2.5-7.19-5.15-9.12-9-1.06-2.1-1.56-4.49-2.93-6.4-1.56-2.19-4.07-3.49-6.53-4.6a92,92,0,0,0-14.51-5.15,336,336,0,0,0,6.31,34.77c-8.35,3.89-18.14,1.12-26.83-1.93-13.76-4.83-27.77-10.57-37.76-21.19l-2.85-2.78-6.62-4.36c-1.36-.9-2.85-2-3.07-3.61-.25-1.88,1.36-3.72.81-5.53-.33-1.11-1.37-1.83-2.17-2.66s-1.52-2-2.64-2.5c-1.7-.76-3.67.22-5.17,1.34s-3,2.46-4.91,2.49a15.29,15.29,0,0,1,7-5.85,10.41,10.41,0,0,0-6.71-3.3l-7.89,7.62-1.83-1.59-9.9,12.53a249.3,249.3,0,0,0,12.1,105.14c3.58,10.49,7.87,20.74,11.51,31.21a271,271,0,0,1,12.59,52.62c1.31,9.7,2.07,19.81-1.12,29.07-1.71,5-4.68,9.68-9.17,12.38a23,23,0,0,1-12.61,2.82c-13.83-.42-26.24-8.44-36.93-17.25s-20.71-18.81-33.29-24.58c-9.08-4.15-19-5.88-28.87-7.55-22.07-3.75-45.07-7.38-66.52-1l-13.27,1.28-5.51,6.84a51.08,51.08,0,0,1-21.15,14,477.07,477.07,0,0,0-37.37-38.68c-1.29-1.19-2.69-3-1.71-4.51.69-1,2.15-1.12,3.07-1.92a2.5,2.5,0,0,0-3.16-3.87l-3.87-9.92c-1.21-5.08-2.51-10.26-5.37-14.62s-7.6-7.86-12.82-7.81l-4.87-2.57c-5,1.76-9.72-3-12.86-7.32-30.14-41.11-58.89-83.22-87.63-125.32-3-4.43-6.1-9-7.57-14.11s-1.08-11.15,2.31-15.3l15.52-7.31q16.17-1.44,32.19-4.18c3-.51,6-1.1,8.46-2.91,4.2-3.16,5.12-9,5.37-14.28,1-21-3.52-41.86-8-62.4q-10.31-46.78-21-93.47l-57.11,2.06c-20.07.13-39.86-4.28-59.45-8.66-3.8-.86-7.67-1.73-11.06-3.67a38.7,38.7,0,0,1-8.3-7l-12.16-12.41c5.29,2.85,9.66,7.28,15.14,9.74,8,3.59,17.19,2.57,25.88,1.47l-3.63-12.59c4.66.47,8.93,2.91,13.56,3.62,8.88,1.37,17.61-3.7,26.59-3.42-1.47-5-5.8-8.66-10.27-11.38a59,59,0,0,0-24.52-8.22l1-.7,6.47-4.37c1-.67,2.09-1.52,2.12-2.72a3.38,3.38,0,0,0-1-2.12c-4-4.91-10.44-7-16.64-8.17s-12.66-1.83-18.22-4.83l16.74-8.48a3.83,3.83,0,0,0,1.14-.75c.9-1,.47-2.68-.54-3.56a7.58,7.58,0,0,0-3.69-1.42c-15.13-3-30.25-6.28-44.63-11.81s-28.08-13.34-38.91-24.3l.68-.18a44.31,44.31,0,0,1,16.77,1.12c2.82.74,5.64,1.78,8.55,1.68,4.86-.17,9-3.39,12.77-6.46l6.81-5.57a3,3,0,0,0,1.35-1.88,2.65,2.65,0,0,0-.57-1.66c-2.74-4.14-7.77-6.08-11.44-9.43a63.9,63.9,0,0,1-4.83-5.43,46.28,46.28,0,0,0-17.61-12.54l.48-.55a39.28,39.28,0,0,0-9.49-12.4,78.66,78.66,0,0,0-10.94-7.54c-18.07-11-36.18-22-55.28-31.17-6-2.85-12.27-5.69-16.4-10.87a26.79,26.79,0,0,1-5.19-12.89l3.42-3.64c.81-1.73,3.11-2,5-2a101.85,101.85,0,0,1,20.75,2.14c6.25,1.31,12.58,3.23,18.91,2.37l13.6-11.76a76.75,76.75,0,0,0-.6-13.55c7,4.61,15.94,5.21,24.28,4.3s16.51-3.18,24.88-3.77c7.11-.5,14.24.22,21.34.94-10.46-3.7-18.44-12.08-26.45-19.76s-17.13-15.27-28.15-16.64l-4.1-3.45a7.63,7.63,0,0,1-2-13c1.82-1.5,4.35-2.18,5.66-4.13a4.83,4.83,0,0,0-.37-5.7l-9.52-1.53c-9.81-1.31-18.75-6.17-27.42-11-3.39-1.87-6.91-3.85-9-7.08-1.65-2.51-2.29-5.52-2.9-8.45q-1.66-8-3.32-16c-1-4.74-1.93-9.88.13-14.27.75-1.6,1.87-3,2.62-4.61,1-2.1,1.29-4.5,2.48-6.5,2.53-4.25,8.81-6.6,8.66-11.55l3.39-14.67c6.23-7,12.54-14,20.27-19.27,4-2.72,8.33-4.93,12.33-7.64a58.75,58.75,0,0,0,22.36-29.19L1078.06,725c18.25,1,36.94,2,54.45-3.19q-3.59-6.25-7.15-12.51a81.47,81.47,0,0,1-4.3-8.23,41.53,41.53,0,0,1-2-26.84l4.39-8.61c6.29-3.15,13.44-4,20.43-4.88,8-1,16.25-1.92,24.12,0,9,2.15,17.9,8,26.82,5.46,6-1.69,10.83-7,17-7.12l10.11-3c24.8-6.52,50.91-4.71,76.51-6.22,6.86-.4,13.88-1.09,20-4.13,7-3.43,12.26-9.62,16-16.45s5.94-14.32,8.16-21.76l-2.53-18.76c15.49-4.67,21.48-23,25.16-38.74l17-72.41c1.84-7.89,5.06-17.21,13-18.94,3.47-.76,7.07.22,10.46,1.27,14.86,4.57,29.84,10.84,40.2,22.42l21.66-4.94c20.58-10.15,27.22-36.89,24.5-59.68a115.51,115.51,0,0,0-48-79.95c-10.1-7-21.4-12.49-30.39-20.9-21.56-20.18-25.42-52.62-25.88-82.14-.63-41,2.58-83.11-10.44-122A153.38,153.38,0,0,0,1313.65,32l-32.8-11.44c-44.34,2.22-81.95,46.46-77,90.58,1.61,14.34,7,28.23,6.9,42.66-.24,32.18-29.17,58.89-60.66,65.49s-64.24-2.89-93.4-16.5-56.37-31.38-86.42-42.9C908,136,838.41,140.74,773.11,154.13c-14.71,3-30.09,6.43-44.53,2.31-27.24-7.78-40-37.92-57.84-59.92C646,66,607.52,49.05,568.69,43s-78.46-2.14-117.46,2.64c-114,13.94-231,37-324.91,103-20.14,14.14-39.15,30.3-53.87,50-16.06,21.52-26.58,46.76-33.63,72.66C25.55,320.08,24.23,371.15,23,421.64,20,544.69,19.33,676.51,87.4,779.05l15.06,35.46c11.92,28.85,3.75,61.91-7.66,91s-26.18,57.8-27.39,89c-1.76,45,28.59,89.34,71.14,104,18.34,6.32,38,7.47,57.11,10.71a263.63,263.63,0,0,1,149.77,81.93c12.12,13.34,23.19,28.22,38.69,37.43,41.27,24.52,95.39.12,141.63,13,22.41,6.25,41.39,20.86,59.74,35.16,46.39,36.13,95.08,75.62,113.51,131.46l31.76,33.09,11.32,6.08c1.61,1.51,1.88,4.13,3.63,5.47a7.44,7.44,0,0,0,4.17,1.08l7.09.4a6.74,6.74,0,0,0,2.76-.23,8.57,8.57,0,0,0,2.61-2,15.08,15.08,0,0,1,7.47-3.64l7.73-3.26,7.9-10.73c-1.78-50-35.1-93.18-46.68-141.85-14.36-60.37,6.86-125.67,46.44-173.46,4.25-5.14,9.37-10.45,16-11.06s12.49,3.6,17.29,8.06a96.88,96.88,0,0,1,26.77,43.17c9.86,33.25,1.25,69.21,6.35,103.51,2.45,16.43,8,32.22,13.83,47.78,9.7,25.89,20.29,51.57,34.26,75.44l9.59,9a293.57,293.57,0,0,1,71.52,1l21,7.12a28.4,28.4,0,0,0,11.3,9.54c2.08,1,4.7,1.63,6.53.24,1.31-1,1.77-2.75,2.79-4,2.09-2.65,6-2.87,9.34-2.87l13.4,0,6.12-3.53a10.38,10.38,0,0,0,5.83-6.86c.69-2.71.25-5.6.87-8.32,1-4.32,4.68-7.68,8.84-9.19s8.76-1.41,13.13-.69,8.62,2,13,2.9c4.83.95,9.76,1.33,14.59,2.27,10.4,2,20.11,6.56,29.69,11.06l7.21,8.75c-1.68,3.4-5.62,4.91-9.22,6.07-9.89,3.17-20,5.87-29.41,10.19-16.93,7.74-31.08,20.31-45.91,31.57-18.95,14.39-39.32,26.8-59.66,39.14l-11.15,1-11.73,7,.45,4.61a130.71,130.71,0,0,1,22.53,6,27.65,27.65,0,0,0,8.07,2.11c5.53.24,11-3.18,16.38-2l-2.3-3.51-1.67-5.62c5.8-6.35,12.92-11.32,20-16.24,18.59-13,37.24-25.94,57.29-36.51a274.76,274.76,0,0,1,25.54-11.83,80.79,80.79,0,0,1,15.19-4.82c10.75-2,21.82-.25,32.73-1l1.91.52a9.72,9.72,0,0,0,7.23,7.55l.35.45q20.55,28.38,38.35,58.62l-4.29,1.86a9.52,9.52,0,0,1,10.17,8.21,17.28,17.28,0,0,0-3.52,4.71,15.47,15.47,0,0,0,6.74-3l21.59,30.39a5.85,5.85,0,0,1,1.28,2.68,2,2,0,0,1-1.47,2.27,6.6,6.6,0,0,1,5.9,1.73,22.21,22.21,0,0,1,3.85,5.1,105.83,105.83,0,0,0,10.94,14.51c2.79,3.11,6,6.72,5.37,10.85l-7.23,6.71,12.84,20.13,8.19,7a96.26,96.26,0,0,1,9.1,6.37c2.56,2.1,4.9,4.46,7.27,6.77a312.17,312.17,0,0,0,28.58,24.68,28.35,28.35,0,0,0,6.38,4,68.14,68.14,0,0,0,7.07,1.89,25.4,25.4,0,0,1,10.76,6.21q-13.72,5.49-27.7,10.34l-22.86-1.91c-9.5-.49-18.63-3.69-27.58-6.91L1257,1665.5c-57.64,28-118.72,56.71-182.63,52-16.54-1.21-32.93-4.68-49.51-4.39-12.59.23-26.74,3.72-32.93,14.69a11.3,11.3,0,0,0-1.69,7.21c1.3,7.93,14.09,10.85,13.64,18.87-.4,7.22-10.47,8.53-17.63,7.55-32.47-4.44-64.72-10.6-97.36-13.59-74.5-6.81-149.4,3-223.57,12.84l-128.31,17-19.21-.58a114.25,114.25,0,0,1-11.18,17.13,119.31,119.31,0,0,1-87.11,44.65l2.14,24.27c-17.6,35.76-9.76,78.14-13.47,117.82-1.75,18.75-6.16,37.13-10.55,55.44-3.27,13.65-6.67,27.59-14.28,39.38-7.78,12.06-19.45,21.07-31.47,28.91a287.22,287.22,0,0,1-36.51,20.2c-14.88,6.88-30.88,12.84-42,24.89-13.92,15.11-17.39,38.95-8.35,57.4,2.19,4.47,5.18,8.76,9.5,11.24,4.07,2.34,8.91,2.86,13.58,3.32l44.53,4.44,24-6.7C419.19,2189.63,462.85,2131.76,504,2076c14.79-20,29.61-40.12,42.48-61.44,9.64-16,18.16-32.62,28-48.48,28.2-45.39,66.82-83.57,108.81-116.63,12.25-9.65,25.06-19,39.75-24.24,15.57-5.53,32.41-6.09,48.94-6.14,54.56-.17,109,4.54,163.37,9.25l39.38-4.66c47,4.67,95.24,1.7,139.82-13.8,4.24-1.48,8.49-3.08,12.94-3.65a48,48,0,0,1,13.21.52c17.23,2.56,33.93,8.37,51.29,9.8,8.71.72,17.51.32,26.13,1.69,9.92,1.56,19.3,5.41,28.82,8.62a234.35,234.35,0,0,0,43.9,10.21l8.39,5.15,4.07-4a30.32,30.32,0,0,1,14.41,3.93,35.59,35.59,0,0,1,8.53,7.86,94.53,94.53,0,0,1,21.37,67.87,2.77,2.77,0,0,0-2.23,2.86,8.15,8.15,0,0,0,1.3,3.73,5.61,5.61,0,0,0-3.53,6.64,2.89,2.89,0,0,0-3.2,2.08,11.3,11.3,0,0,1-.33,1.77,3.75,3.75,0,0,1-1.49,1.49q-16.68,11.16-34.13,21.1l-5.67-5.46-12.37-3.72c-7.31-1.58-15-.67-22.12,1.63s-13.72,6-20.07,9.91l-4.91,6.52c3.53,1.87,4.68,6.3,7.13,9.47,4,5.19,11.16,6.54,17,9.65,2.12,1.14,4.09,2.54,6.18,3.75a45.51,45.51,0,0,0,25.08,5.77c3.77-.18,7.62-.77,11.29.13a29.23,29.23,0,0,1,6.85,3c4.25,2.35,8.57,4.74,12.74,7.32l.06,0,2.14-.72a71.3,71.3,0,0,0,22.56-11.76l1.92-1.33h0c2.06-7.71,4.7-15.32,7.33-22.8,1.67-4.75,3.37-9.57,6.22-13.73l.85-.93c2.53,3.62,5.11,7.3,8.58,10,2.33,1.85,5,3.21,7.41,5,4.21,3,7.6,7.21,12.18,9.65l21.42-2,5.76-5.67c32.77-14.24,56.28-43.34,78.44-71.37l7-7.54a41.17,41.17,0,0,1-16.34-14.12l-1.57-4.84,2.44-4.09a19.62,19.62,0,0,0,5.71,4.14c.62-2-1.23-3.74-2.43-5.43a2.18,2.18,0,0,1-.51-1.38,2.33,2.33,0,0,1,.51-1.12l3-4.5a7.62,7.62,0,0,0,7,.16l-3.12-3.06a1.23,1.23,0,0,1-.41-.6,1.26,1.26,0,0,1,.34-.94c10.15-14,20.88-27.67,31.83-41.11a44.93,44.93,0,0,1,6.55-7c1.33-1.06,3-2.36,2.65-4l1.81-1.24q6.85-7.93,13.72-15.88l3.95-2.81c7-3,15-1.16,22.55-1.71,5.31-.39,10.44-2,15.67-3,21.27-4.13,43.32,1.4,64.85-1l11.61-.45a130.56,130.56,0,0,1,25.9-4.14c5.45-.32,11-.27,16.18,1.54l4.08-10.92a88.17,88.17,0,0,0-5.2-111.55Zm-170.32,86.2c-.39,2.21-2.51,3.64-4.51,4.66a52.3,52.3,0,0,1-17.76,5.45l-5.85.27,10,3.15a17.18,17.18,0,0,1,6,.63,5.85,5.85,0,0,1,4,4.24c.57,3.55-3.32,6.66-2.84,10.23.25,1.86,1.67,3.71,1,5.44a4.91,4.91,0,0,1-.82,1.2,90.6,90.6,0,0,1-11,10.87l-.62.26-1.87,2.19c-4.69,8.46-12.59,14.56-19.48,21.34-8.08,8-14.92,17.06-22.57,25.42s-16.34,16.13-26.82,20.44c-3.3,1.36-7.07,2.36-10.39,1a11.35,11.35,0,0,1-4.54-3.65c-3.3-4.24-4.55-9.73-4.93-15.09s0-10.75-.42-16.1c-.67-8-3.22-15.7-4.67-23.59-1.68-9.16-1.87-18.52-3.12-27.75-1.58-11.63-4.83-23-8.06-34.24l5.64-3.22-8.2-15.61c-2-4-4.23-8-7.67-10.76a35.29,35.29,0,0,0-6.1-3.7l-30.15-15.55a80,80,0,0,0-14.12-6.17c-.88-.26-1.78-.49-2.67-.72l-.25-.06.21.29c6.27,10.93,12.54,21.86,18.65,32.89a26.69,26.69,0,0,1,2.94,6.71c1.28,5.45-.89,11.34.76,16.69l5.26,11a144.43,144.43,0,0,1,15,80.18,42.06,42.06,0,0,1-2.71,12.28c-1.85,4.32-5,8.34-5,13l-3,6a67.39,67.39,0,0,1-10.61,6.93,10.78,10.78,0,0,1-5,1.59c-4.11,0-6.82-4.09-9.07-7.53-11.39-17.43-28.92-29.75-46-41.64l-3.16-8.14c-1.26-21.4.74-42.85,3-64.17A190.67,190.67,0,0,1,1319,1725a118.48,118.48,0,0,1,8-23.63l10.49-19,3.74-1.7,5.32-2.4.56-1,18.17-6.94a9.37,9.37,0,0,1,2.87-.75,8.45,8.45,0,0,1,3,.6c6.42,2.21,12.3,5.78,18.69,8.08a50.72,50.72,0,0,0,22.12,2.71l6.89-1c8.76-.33,17.42,2.49,25.13,6.67s14.6,9.69,21.45,15.16c2.47,2,5.09,4.17,5.92,7.23l11.36,2c10.22-2,20.75,1.47,30,6.28s17.78,11,27.42,14.92a19.24,19.24,0,0,1,5,2.56A5.46,5.46,0,0,1,1547.42,1739.57Z"></path>
    <path data-name="3a" data-official="" data-plain="Long section of Seed-vessel" data-loc="" d="M73.82,2879.74c-22-36.21-25.72-80.34-26.95-122.68-.24-8.38-.39-16.88,1.58-25s6.36-16,13.43-20.54c5.17-3.29,11.34-4.55,17.39-5.54a265.06,265.06,0,0,1,52.79-3.27c11.75.45,23.69,1.74,34.44,6.51s20.24,13.5,23.5,24.79c1.8,6.21,1.65,12.79,1.4,19.25a787.47,787.47,0,0,1-12.07,110.44c-1.41,7.79-3,15.64-6.11,22.91-6.67,15.43-20.27,27.79-23.59,44.26-.94,4.68-.92,9.82,1.55,13.9,1.5,2.46,3.76,4.34,5.9,6.28,9.58,8.69,17.69,22.07,12.78,34-4.43,10.79-17.25,15.15-28.75,17.11a175.42,175.42,0,0,1-32.52,2.47c-5.63-.09-11.6-.57-16.17-3.85-7.43-5.34-8.49-16.19-6.22-25.05s7.08-16.95,9-25.89c4.5-20.38-6.39-40.83-18.4-57.89Z"></path>
    <path data-name="3b" data-official="" data-plain="Cross section" data-loc="" d="M217.8,2872.3c.59-16.84,6.71-33,14.4-48,4-7.85,8.66-15.65,15.54-21.18,8.76-7,20.23-9.66,31.38-11.1s22.69-1.85,33.24,1.92a57.23,57.23,0,0,1,18.28,11.25A82.72,82.72,0,0,1,338,2922.1c-3.42,3.86-7.28,7.51-9.34,12.24-3.32,7.64-1.33,16.38-.51,24.67s-.37,18.08-7.44,22.49c-3,1.86-6.55,2.44-10,3l-12,1.87c-8.38,1.31-16.91,2.61-25.3,1.41s-16.78-5.33-21.11-12.63c-6.16-10.39-2.62-23.72-5.2-35.53-4.54-20.74-27.54-35.32-27.3-56.55Z"></path>
    <path data-name="3c" data-official="" data-plain="Seed magnified" data-loc="" d="M397.27,2879.27c0-14.65.17-29.89,6.68-43s21.45-23.3,35.56-19.41c8.57,2.37,15.26,9.46,19,17.53s4.86,17.09,5.38,26a210.33,210.33,0,0,1-.48,31.15c-.77,8.58-2,17.4.38,25.67,1.65,5.6,5,10.75,5.56,16.55.69,6.52-2.23,13.06-6.69,17.85s-10.34,8.06-16.37,10.61a96.3,96.3,0,0,1-31.39,7.41c-8.93.56-19.13-.74-24.47-7.92-6.7-9-2.18-21.61,1.12-32.35a123.82,123.82,0,0,0,5.47-37Z"></path>
    <path data-name="3d" data-official="" data-plain="Hairs magnified" data-loc="" d="M491.69,2887.7c-6.92-16.85-.18-38.18,15.16-48,9.37-6,20.77-7.74,31.81-9.07a266.27,266.27,0,0,1,28.47-2.22,167.06,167.06,0,0,1,82.35,20.6c8.39,4.62,16.89,10.59,20.15,19.59,4.91,13.58-3.67,27.84-7.88,41.65-3.68,12.09-5.24,26.86-16.26,33-9.32,5.21-22.19,1.85-30.49,8.57-6.11,5-7.77,14-14,18.85-4.22,3.31-9.83,4.12-15.15,4.82l-18.33,2.4c-7.83,1-15.84,2-23.55.38s-15.22-6.54-17.81-14c-2.25-6.48-.7-14.32-4.84-19.79-6.93-9.13-23.18-4-31.3-12.07-7.41-7.37-3.1-19.81-4.49-30.17Z"></path>
    <path data-name="4" data-official="" data-plain="Magnified hairs of Loasa nitida" data-loc="" d="M1880.35,2901.52a460,460,0,0,1,106.44-2.83c13,1.17,27.06,3.47,35.76,13.16,9.75,10.88,9.4,27.18,8.49,41.75l-1.39,22.25-1.34,21.36c-.35,5.57-.81,11.47-4.08,16-4.49,6.22-13,8-20.71,7.5s-15.13-2.87-22.8-2.94-16.15,2.86-19.47,9.77c-2.14,4.46-1.81,9.84-4.18,14.18-4.21,7.69-14.59,8.84-23.36,9.05l-14.69.37c-4.07.1-8.77-.08-11.3-3.28-1.72-2.18-1.89-5.18-2-8l-.63-17.84c-.09-2.37-.23-4.91-1.71-6.77-2-2.53-5.7-2.83-8.94-2.91l-22.22-.59c-3.17-.08-7-.55-8.34-3.4a8.83,8.83,0,0,1-.5-4.25l4.42-90.59Z"></path>
</svg>
