
<svg xmlns="http://www.w3.org/2000/svg" viewBox="0 0 1987 2716" id="illustration" preserveAspectRatio="xMidYMid meet">
    <title>Onagraceæ</title>
    <path data-name="1" data-official="Œnothera biennis" data-plain="Evening Primrose" data-loc="England" d="M938.74,466.73a56.1,56.1,0,0,1,6.45-.74,15.37,15.37,0,0,1,12.22,6.13l2.71,2.93c5.9,5,9,12.65,14.73,17.91,3.28,3,7.32,5.17,10.53,8.29a23.56,23.56,0,0,1,6.67,12.49c-2.81-3.39-8-3.88-12.17-2.38s-7.48,4.58-10.77,7.51a73,73,0,0,1-12.2,9.26,28.82,28.82,0,0,1-14.58,4.13l-.23.7a39.27,39.27,0,0,1,6.92.91c1.94.42,4,1.07,5.2,2.61s1.42,3.51,2,5.33a12.81,12.81,0,0,0,9.08,8.26l2.46-.21c4.91,1.62,8.62,5.57,12.11,9.38l7,6.27c19,10.61,32.3,28.94,44.94,46.69l1.92,4.62q1.82,4.41,3.64,8.83a7.46,7.46,0,0,0,1.79,3c1.38,1.21,3.4,1.25,5.23,1.23.79,1.39-.72,3.46.35,4.65.91,1,2.54.25,3.91.19a4.66,4.66,0,0,1,3.81,2.15,13.94,13.94,0,0,1,1.72,4.2,4,4,0,0,1,.24,1.82c-.36,1.94-3,2.26-4.94,2.1.71,1.49-1.18,2.83-2.72,3.41-5,1.88-10.16,3.78-15.52,3.95l.4,6.14a76.14,76.14,0,0,1,10.94,25c.45,1.9.79,4-.21,5.71a6.85,6.85,0,0,1-4.18,2.69c-7.8,2.27-16.29-.13-23.36-4.14s-13.12-9.56-19.73-14.28-14.15-8.75-22.27-9c-4.86-.15-10.17,1.4-12.82,5.47-3.11,4.77-1.55,11.07.23,16.48q5.34,16.2,12.19,31.84a63.89,63.89,0,0,0,5.77,11,35.51,35.51,0,0,0,22.11,14.4c4.41.85,8.93.85,13.4,1.36a59.6,59.6,0,0,1,22.76,7.42l6,4.23a121.78,121.78,0,0,1,35.56,48.43l.07,6.85a15.06,15.06,0,0,1,5,6.36,44.65,44.65,0,0,1,2.43,7.8l1.29,5.21,1.24,4.4c2.81,2.12,5.68,4.41,7.15,7.6,1.3,2.8,1.37,6,1.41,9.08q.13,9,.26,18.06l1.38,4.54a121.34,121.34,0,0,1,8.91,21,31.87,31.87,0,0,1,1.78,8.81,60.33,60.33,0,0,1-1,8.87,45.81,45.81,0,0,0,.07,12.1l.17,5.64q3.78,5.94,7.55,11.88c.9,1.42,1.93,2.93,3.53,3.45.93.3,2.08.29,2.65,1.08a2.19,2.19,0,0,1-.26,2.43c-.5.7-1.21,1.24-1.72,1.95-1,1.44-1,3.33-1,5.09l.48,26.79a53.18,53.18,0,0,0,1.08,11.69l2.37,4.32c2.3,5.77,4.63,11.62,5.33,17.78.31,2.8.29,5.63.55,8.43.33,3.53,1.12,7,1.47,10.53a106.93,106.93,0,0,1,0,14.76c-.43,11.25,0,22.53.41,33.78l-1,8.15a388.7,388.7,0,0,1,13.5,68.17c2.34,22.09,2.8,44.44,7.08,66.25,1.11,5.61,2.09,12.41-2.21,16.18-1.66,1.45-3.84,2.14-5.88,3a31.07,31.07,0,0,0-16.4,16.72,30.15,30.15,0,0,0,.44,23.38l.52,6.23a443.1,443.1,0,0,1,23.59,41l1.42,3.47a4.34,4.34,0,0,1-1.4,4.93,11.66,11.66,0,0,1-5,2.15c-2.43.57-4.87,1-7.33,1.41-3.09.45-6.2.74-9.25,1.39a39.3,39.3,0,0,0-20.32,11.51,15.6,15.6,0,0,0-3.36,5,19.24,19.24,0,0,0-.89,6.33c-.16,5.58-.3,11.31,1.54,16.58a36.51,36.51,0,0,0,5.27,9.34l2.27,5-1.17,15.37a9.65,9.65,0,0,0,1.5,7.18q1.1,1.94,2.18,3.87a2.66,2.66,0,0,0,.94,1.1,2.58,2.58,0,0,0,1.51.14,75.78,75.78,0,0,0,19.15-4.69l.39.12a537,537,0,0,1,37.62,45.77l.07,1.52a2.69,2.69,0,0,0-3.76,1.89q-9.42-.32-18.84-.51c-3.36-.06-6.8-.11-10,1-3.42,1.15-6.43,3.55-10,3.94a12.36,12.36,0,0,1-8.08-2.33,33.3,33.3,0,0,1-6.19-5.91l-.47.28c-3.15-.46-6.11,1.63-8.32,3.93a32.57,32.57,0,0,0-5,6.75c-1.47,2.65-2.56,5.48-3.94,8.17a19.65,19.65,0,0,1-5.54,7.08,9.6,9.6,0,0,1-8.57,1.68c-2.86-1-5-4.08-4.38-7a3.37,3.37,0,0,0-3.15,2.4,7.18,7.18,0,0,0,.11,4.18c1,3.85,3.31,7.22,5.54,10.51,3.4,5,7.21,10.33,12.95,12.25,3.3,1.1,6.88.92,10.35.63a45.32,45.32,0,0,0,9.28-1.54,44.79,44.79,0,0,0,7.9-3.47c8-4.22,15.74-9.1,24.27-12.13s18.19-4.08,26.52-.52l3.11,1.21,7.34,4.18a30.46,30.46,0,0,0,6.24,3c1.52.45,3.11.67,4.6,1.23,2.48.94,4.49,2.78,6.44,4.58,2.45,2.25,5,4.59,6.36,7.62.6,1.3,1,2.77,2.16,3.65,1.94,1.51,4.91.55,7.09,1.69,3.17,1.67,2.82,6.5,5.25,9.13l2.75,6.67a368.66,368.66,0,0,1,46.06,113.12c7,31.25,9.9,63.39,18.58,94.22l3.11,9.62a10.82,10.82,0,0,0,9.17-1.31c2.51,1,4.06,3.75,6.61,4.71,1.77.67,3.74.39,5.63.56,3.92.34,7.38,2.58,11,4.15,8.34,3.62,17.73,3.72,26.82,3.77l3.8,6.25a17.9,17.9,0,0,0,2.55,3.54,9.45,9.45,0,0,0,11.43,1.26l4.86-4.81,5.45-79.84a95.47,95.47,0,0,1,1.83-15c1.41-6.13,4-12.26,3-18.47-.9-5.44-4.53-10.08-8.76-13.61s-9.12-6.17-13.64-9.33c-14.2-9.93-25-26.72-22.71-43.9.48-3.62,1.62-7.34,4.24-9.89,3.88-3.8,9.92-4.11,15.34-3.81,10.82.62,21.5,2.78,32.32,3.56s22.06,0,31.77-4.77l8.53-2.11c22.76-16.38,44.94-36.73,52.17-63.82,2.33-8.75,3-18,6.22-26.42a17.52,17.52,0,0,1,3.19-5.67c1.91-2.08,4.56-3.3,7.05-4.63a65.42,65.42,0,0,0,30.5-35.52,19.36,19.36,0,0,0,1.42-8.54c-.34-2.89-2-5.78-4.77-6.79-2.26-.83-4.79-.28-7.1.41a139.24,139.24,0,0,0-17.39,7c-32.11,14.49-64.75,27.79-97.62,40.47-20.72,8-42.11,15.86-64.32,15.75a10,10,0,0,1-5.24-1,10.23,10.23,0,0,1-3.36-4.39,145.39,145.39,0,0,1-14.85-54.76l-1.09-15.17a171.86,171.86,0,0,1-6.26-59.81c.33-4.59.88-9.28,2.93-13.41,5.15-10.37,18.17-14.21,29.75-14.06s23.13,3.15,34.62,1.74,23.59-9.25,24.26-20.81c.71-12.25-11.08-21.2-21.85-27.08-24-13.12-49.62-23.08-75.82-30.88-8.71-2.58-17.57-5-25.54-9.32s-15.12-11-18.09-19.53c-2.24-6.46-2-13.5-1.66-20.34q1.88-42.45,3.77-84.91l.82-11.08c-.15-7-.18-14,1.37-20.81s4.8-13.41,10.23-17.79c5.95-4.81,13.85-6.48,21.49-7s15.35,0,22.92-1.1c7.17-1.07,14.62-4,18.35-10.25s2.69-14.69-1.44-20.73-10.86-9.92-17.87-12-14.4-2.55-21.7-3q-29.75-2-59.46-4.43c-3.52-.29-7.2-.65-10.14-2.59-3.48-2.29-5.27-6.36-6.89-10.2-5.85-13.93-11.82-28.46-11-43.56l4.7-13c.71-5.45,4.4-10.16,8.89-13.32s9.75-5,15-6.8c22.75-7.77,46.22-14.91,70.25-14.54,6.73.1,13.6.78,20.09-1,6.17-1.7,11.57-5.54,16.15-10a37.45,37.45,0,0,0,8.84-12.47c3.37-8.38,2.27-17.79,2.49-26.83a88.7,88.7,0,0,1,4.22-24.87c1.32-4.14,3-8.25,3.23-12.59.3-5.16-1.39-10.23-3.51-14.94a81.61,81.61,0,0,0-32.23-36.2l-9.63-6.58L1306,761a21.66,21.66,0,0,1-6-2.15,20.62,20.62,0,0,1-5-4.71,242.45,242.45,0,0,1-19.11-26.07l-3.61-7a141.06,141.06,0,0,0-13.75-14.33,47.11,47.11,0,0,0-17.07-9.88,57.16,57.16,0,0,0-12.13-1.95c-3.38-.25-6.77-.37-10.15-.38s-6.64.08-9.8-.84a31.76,31.76,0,0,1-6.81-3.25l-5.83-3.39-16.94-18.84-45.12-20.09c-7.31-3.26-14.91-6.74-19.86-13-10.81-13.77-3.27-35.8,11.56-45.11,12.37-7.76,27.63-8.68,42-11.32s29.77-8.35,36.48-21.31c6.35-12.27,3.18-28,10.2-39.89,4.73-8,13.76-13.64,15.84-22.73,2.9-12.69-9-23.43-19.26-31.43s-21.31-20.28-16.35-32.32c4.19-10.2,17.11-12.87,28-14.34,20-2.69,40.22-6.16,58.58-14.59s34.92-22.39,42.62-41.07,4.9-42.27-9.76-56.16c-10.08-9.56-24.42-13.62-38.31-13.68-6.44,0-13.51.56-18.69-3.28-3.39-2.51-5.3-6.48-7.26-10.21-24.1-45.9-75-76.39-126.86-75.94l.58-8.55c-4-8.6-.6-19.07,5.32-26.49s14-12.73,21.08-19.08a92.94,92.94,0,0,0,29.6-55.82c1.88-13.64.27-28.63-8.59-39.17-9.48-11.27-25-15.08-39.36-18.17-63.08-13.56-127.89-25.77-191.8-16.88-35.12,4.89-69.53,16.11-105,16.16-4.21,0-8.68-.23-12.15-2.62-3.75-2.58-5.59-7.17-9-10.22-5.35-4.83-13.33-4.92-20.53-4.73-13,.33-26.69.83-38,7.32-15.35,8.83-24,27.45-40.66,33.56-16.92,6.22-35.12-2.72-52.47-7.6-45.69-12.86-96.33,4-131.81,35.52C522,92.8,513.76,101.81,509,112.75c-9.93,23-2.55,49.33,4.91,73.21l-5.73,16.11-22.73,19.44c-3.43,2.94-7,6-9,10-3.16,6.32-2.06,14.05.87,20.49,2.58,5.64,6.51,10.79,7.59,16.9,1.85,10.51-5.1,20.26-8.71,30.3A49.77,49.77,0,0,0,504.06,362c11.55,4.8,24.46,5.07,36.95,4.37,4.68-.26,9.72-.56,13.7,1.92s6,7.29,8.29,11.48c11,19.85,35.34,30.22,57.87,27.71l12.2-2.17c5.28-.56,10.55-1.22,15.8-2a96.2,96.2,0,0,0,16.79-3.69c8-2.73,15.29-7.24,22.48-11.71l19.8-12.32c2.79-1.73,5.63-3.51,7.65-6.1,2.45-3.15,3.42-7.18,5.17-10.77,2.81-5.78,8.52-10.77,14.93-10.33,3.78.26,7.16,2.31,10.56,4a58.62,58.62,0,0,0,25.81,6.05l8.71,5.69c4.54,3,8.11,8.18,7.61,13.62a1.6,1.6,0,0,1-.32,1,1.79,1.79,0,0,1-1.16.4,125.69,125.69,0,0,0-31.72,7.18l-5.94-.51a9.57,9.57,0,0,0-9.57,4.86A8.61,8.61,0,0,0,741.73,401c3,2.4,7.19,2.35,11,2.18l12.29-.83a66.26,66.26,0,0,0,18.25,3.27c9.88.36,19.93-1.48,29.57.74l4-1.07a47.08,47.08,0,0,0,7.43-2.43,14.81,14.81,0,0,1,7.67-1.05l6.1.05c8.39-.49,16.46-3.41,24.79-4.54a100.39,100.39,0,0,1,20.87-.11c7,.51,14,1.26,20.44,4a70.23,70.23,0,0,1,7.62,3.92c5.39,3.05,11,6.32,14.26,11.58a42.66,42.66,0,0,0-16.69,4.86L905,424.27c-2.86,2.84-7.52,3-11.33,1.72s-7.1-3.76-10.61-5.73-7.58-3.5-11.51-2.62a1.51,1.51,0,0,1-1.11,0,1.92,1.92,0,0,1-.5-.69c-.76-1.27-2.47-1.5-3.94-1.6l-7.62-.5c-.67,0-1.49,0-1.77.61a1.57,1.57,0,0,0-.08.78,22.06,22.06,0,0,0,5.94,13.51,8.86,8.86,0,0,1,2.23,2.93,5,5,0,0,1-1.34,5,14.66,14.66,0,0,1-4.48,2.93l3.12,6.24,4.92,2.34,5.89,3.25a212.15,212.15,0,0,0,52,13.83A56,56,0,0,0,938.74,466.73ZM874.9,324.47a4.33,4.33,0,0,1-1.13,1.36c-7.95,7.11-19.8,9-26.94,17l-7.37,1q-6.62-4-13.52-7.53l-2.22-5.23c2.52-2.81,3.51-6.67,4-10.41s.58-7.58,1.68-11.19,3.44-7.11,7-8.39l9.23-2a9.31,9.31,0,0,0,4,3.85,34.25,34.25,0,0,1,4,1.84,12.2,12.2,0,0,1,3.25,3.87l1.66,1.27c5.8,2.61,11.89,5.45,15.49,10.7C874.8,321.74,875.46,323.21,874.9,324.47Zm789.71,1407-3.07,4,1,3.62c-1.81,1.53-4.41,1.79-6.37,3.13a6.92,6.92,0,0,0-2.79,7,3.4,3.4,0,0,1,.17,1.57,3.07,3.07,0,0,1-.73,1.17c-4.15,5-4.47,12.12-4,18.61a12.76,12.76,0,0,1,0,2.05,17.21,17.21,0,0,1-.56,2.54,18.29,18.29,0,0,0,1.66,12.9,18.69,18.69,0,0,0-6.74,9.58,55.58,55.58,0,0,0-2.19,11.69,10.39,10.39,0,0,0,0,3.73c.48,2,2,3.5,3.5,4.9l5.2,7.76c2.91,5.36,4,11.48,5,17.49q2.64,15.81,4.75,31.7l.62,14.69c3.36,45.87-15,90.55-37.15,130.84-19.68,35.75-45,71.65-83.11,86.37-13.33,5.16-27.59,7.43-41.27,11.57-7.79,2.36-16.06,5.91-19.74,13.16-3.95,7.8-1.29,17.2,1.84,25.35,7.37,19.2,17.07,37.41,26.75,55.56l6.28,9.75c3,11.46,7.78,22.39,11.49,33.65s6.41,23.14,5.11,34.93a15.31,15.31,0,0,1-2.32,7.35c-2.34,3.25-6.55,4.53-10.53,5a43.55,43.55,0,0,1-32.18-8.89l-13.6-11a71.61,71.61,0,0,1-34.87,8.72c-8.33-.08-17.46-2.12-22.39-8.83-4.78-6.51-4.21-15.33-4.34-23.4a107.46,107.46,0,0,0-5-30.82c-1.93-6.06-4.53-12.16-9.22-16.45-10.62-9.74-28.59-6.52-39.2,3.22s-15.57,24.07-19.65,37.89-7.92,28.24-17.1,39.35c-4.63,5.61-10.44,10.11-16.32,14.4-10.65,7.78-21.71,15-32.75,22.2-18.12,11.82-37.28,24-58.86,25.58-4.84.35-10.17,0-13.78-3.27-4.27-3.85-4.66-10.31-4.74-16.07-.3-19.89-.34-40.82,9.36-58.19,2.74-4.9,6.23-9.47,7.94-14.82s1.16-12-3.18-15.54c-2.67-2.2-6.25-2.86-9.69-3.25-13-1.47-26.19-.1-39.3.35a283.21,283.21,0,0,1-61.51-4.6l-36.8-19.81a33.8,33.8,0,0,0-15.31-6c-2.81-.37-5.7-.38-8.38-1.33a29.66,29.66,0,0,1-5.73-3.15c-2.36-1.48-4.8-2.85-7.3-4.09a17.77,17.77,0,0,0-4.84-1.79c-3.71-.64-7.43.84-10.91,2.3l-12.22-2.83c-5.35-4.38-11.88-7-17.66-10.83-5.3-3.47-9.92-7.84-14.75-11.92-16.79-14.16-36.21-24.75-55.31-35.57a88.94,88.94,0,0,1-12.78-8.28,45.43,45.43,0,0,1-11.81-14.87c-3.32-6.72-4.37-16.06,1.53-20.69,2.57-2,5.94-2.65,9.17-3.14a169.56,169.56,0,0,1,85.9,9.52l27.34,12.79c2.6,2.8,3.88,6.69,6.78,9.18,2.72,2.34,6.46,3.08,10,3.47s7.26.56,10.53,2c2.12,1,4,2.44,6,3.49s4.58,1.65,6.71.73a2.36,2.36,0,0,0,1.4-1.31,3.65,3.65,0,0,0,.1-1.19c0-4.34,4.2-7.84,8.52-8.33,2.47-.28,5.08.18,7.35-.82L1076,2127c49.8,4.9,98.22,23.63,148.23,21.72,4-.15,8.58-.83,10.47-4.31,1-1.89,1-4.17.84-6.32-.64-11.51-1.84-23.48,2.38-34.21,3.4-8.66,10-15.64,16.93-21.89,3.36-3,7.12-6.58,7.08-11.11a13.23,13.23,0,0,0-2-6.18c-3.59-6.47-8.76-11.91-13-18s-7.65-13.24-6.91-20.61a26.44,26.44,0,0,1,4.63-11.88c7.83-11.69,21.23-18.21,34.21-23.64s26.66-10.62,36.35-20.82,13.91-27.24,5.32-38.39l4.6-9.87a6.4,6.4,0,0,1,4.49-2c6.79-.72,13.34,2.44,19.23,5.87s11.8,7.32,18.55,8.3l8.52,4.7c7.1,3.31,15.41,2.94,23,1s14.68-5.38,22-8.12c9.54-3.57,19.76-6.12,27.71-12.47,6.25-5,10.92-12.17,18.24-15.37l17.27-11a6.18,6.18,0,0,0,4.29-2.9,12.42,12.42,0,0,0,1.67-5,25.58,25.58,0,0,0-.72-10.48c3-1.4,4.71-4.86,4.91-8.21s-.79-6.63-1.78-9.83l.91-8.8c7-10.08,7.72-23.2,12.3-34.62,5.12-12.78,15-23,24.79-32.65,9.47-9.29,20.1-18.83,33.27-20.46l20.67,1.58a111.47,111.47,0,0,0,12.53-6c2.21-1.22,4.45-2.6,5.79-4.74a64.84,64.84,0,0,0,24.72-3.73c8.49-3.19,16-8.55,23.11-14.14a8.64,8.64,0,0,0,2.68-2.87c1-2.11.22-4.78,1.33-6.85l2.64-2.49,3.09.31a.54.54,0,0,1,.28.08.56.56,0,0,1,.22.35,33.3,33.3,0,0,0,3.77,7.4,2.91,2.91,0,0,1,.7,1.78A2.77,2.77,0,0,1,1664.61,1731.5Z"></path>
    <path data-name="1a" data-official="" data-plain="Capsule" data-loc="" d="M597.32,2600.3a29.45,29.45,0,0,1,19.49-24c6.24-2.07,13.7-2.32,17.94-7.34,3.66-4.32,3.49-10.59,3.06-16.23-1.4-18.12-3.57-36.18-5.75-54.22-2.53-21-5.14-42.3-13.44-61.73-7-16.47-18-31.13-24.23-47.91-2.63-7.06-4.36-15.13-1.24-22a27.38,27.38,0,0,1,5.5-7.52c12.55-13,29.8-20.73,47.44-24.66s35.87-4.34,53.95-4.62c12.75-.19,25.61-.32,38.14,2,9.6,1.8,18.86,5,28.08,8.23,8.89,3.1,18.4,6.65,23.7,14.43,5.65,8.27,5,19.51,1.38,28.83s-10,17.33-15.46,25.69c-8.27,12.55-14.87,26.11-21.44,39.62-5.58,11.47-11.21,23.1-13.7,35.61-2.37,11.93-1.8,24.21-2.13,36.37a242.49,242.49,0,0,1-8.46,57.25c-2.6,9.52-5.86,19-11.54,27.09-7.92,11.25-20.11,19.06-27.49,30.67-4.83,7.61-7.79,17-15.36,21.89-8.75,5.62-22,2-26.71-7.3-1.82-3.62-2.51-7.92-5.3-10.87s-6.71-3.81-10.55-4.29c-8.56-1.08-17.49-.32-25.57-3.32s-15.12-11.73-12.21-19.85Z"></path>
    <path data-name="1b" data-official="" data-plain="Seed" data-loc="" d="M758.93,2626.91A49.07,49.07,0,0,1,769.4,2605c2.59-3.09,5.63-6,7.11-9.72,1.8-4.57,1-9.68,1-14.6s1.06-10.46,5.21-13.09a17.09,17.09,0,0,1,6.36-2c8.68-1.52,18.29-2.8,25.73,1.92,4.16,2.63,7,6.82,9.81,10.89,3.59,5.28,7.34,11.16,6.65,17.51s-5.77,11.49-7.51,17.68c-2.37,8.41,1.57,18.07-2.39,25.86-2.53,5-7.74,8-12.87,10.16a88.59,88.59,0,0,1-19.32,5.83c-6.93,1.25-14.36,1.62-20.73-1.37s-11.2-10.19-9.49-17Z"></path>
    <path data-name="2" data-official="Œnothera macrocarpa" data-plain="Large-fruited Œnothera" data-loc="Missouri" d="M557.2,1954.34c-9.84-27.15-19.7-54.36-32.14-80.42s-27.53-51.07-46.95-72.45l-9.31-11.27c-37.05-25.8-93.24-18.47-122.43,16-25.74-9.38-55.22-3.33-78.87,10.49-8.83,5.16-17.15,11.45-23.38,19.54-13.35,17.34-15.61,40.64-15.35,62.52.71,58.47,15.78,115.73,31.63,172q10.16,36.08,20.8,72c6,20.16,12.23,40.65,24.09,58s30.38,31.45,51.37,32.77c32.27,2,63.08-25.64,94.18-16.8,16,4.53,27.65,17.74,40.5,28.24a140.35,140.35,0,0,0,71.27,30.44c28.67,3.52,59-1.73,85.7,9.24,17.91,7.34,34.47,21.9,53.69,19.66l26.11.72c16.56-2.81,33.06,4.79,47.37,13.59s28.19,19.2,44.55,23c11.76,2.71,24,1.79,36,.23,7.36-1,15-2.29,21-6.64,9.16-6.64,12.51-19.31,10.38-30.41s-8.86-20.82-16.6-29.06c-26.92-28.64-66-42.38-104.35-51s-78-13.19-114.33-28.09-70.25-42.68-79.94-80.78c-4.44-17.45-3.53-35.74-3.09-53.74q1-41.88-1.54-83.75Z"></path>
    <path data-name="2a" data-official="" data-plain="Pistil and Stamens" data-loc="" d="M167.9,2490.92c19.19-190.82-58.63-378.67-61.55-570.44-1.45-95.42,15.34-193.8-14.47-284.45-19.52-59.35-58-111.28-75.73-171.17a264.82,264.82,0,0,1-9.3-104c1.8-16.34,5.93-33.89,18.7-44.25,23.67-19.2,58.32-2.48,88.79-2.54,16,0,31.62-5,47.61-5.61,30.78-1.2,59.64,13.63,86.86,28l88,46.65c14.84,7.87,31.67,18.76,32.17,35.55.27,9-4.5,17.35-9.11,25.13C279,1580.31,200.93,1727.68,201.74,1886.33c.78,152.92,75.12,297.21,83.83,449.88,4.45,78-7.93,159.52,20.88,232.19,4.52,11.4,10.12,23,9.24,35.27-1.17,16.13-13.79,29.62-28.43,36.52S256.13,2648.6,240,2650c-26.71,2.35-59.32,1.88-73-21.17-20.59-34.64,24.1-81,6.2-117.1Z"></path>
    <path data-name="2b" data-official="" data-plain="Section of Ovary" data-loc="" d="M424.58,2626.44c-4.83-11.08-9.79-22.38-17.93-31.33-5.29-5.82-11.77-10.46-17.24-16.12-7.78-8-13.34-18-18.12-28.07-4.06-8.59-7.67-17.61-8.29-27.08a45.25,45.25,0,0,1,9.62-30.74c5-6.27,11.94-11.84,12.89-19.79.4-3.36-.37-6.73-1.05-10A222.46,222.46,0,0,1,379.9,2425c-.19-5.82-.11-11.84,2.22-17.18s7.45-9.86,13.28-9.77c4.23.06,8.13,2.51,11,5.67,6.58,7.37,8.73,18.91,17.51,23.45,7.61,3.94,17.07.69,24-4.37s12.56-11.83,20-16.13,17.85-5.38,23.85.74c3.64,3.72,4.79,9.2,5.15,14.39a64.29,64.29,0,0,1-4.06,27.19c-4.37,11.47-12.16,22.26-11.79,34.53.34,11.36,7.72,21.48,8.77,32.8.91,9.73-2.8,20.37,2,28.88,3.85,6.81,11.86,9.81,18.91,13.2,10.23,4.91,20.57,13.36,20.81,24.7.17,8.1-5,15.4-11,20.83a62.37,62.37,0,0,1-16.61,10.75c-5.54,2.44-11.85,4.37-15.24,9.4-3.52,5.23-2.95,12.63-7.1,17.38-2.22,2.55-5.48,3.92-8.7,4.95a61.64,61.64,0,0,1-29.42,1.93c-7.09-1.28-15.05-5.07-16.09-12.19Z"></path>
    <path data-name="3" data-official="Epilobium angustifolium" data-plain="Rose-bay, or Willow-herb" data-loc="England" d="M1229.06,532.44a183.06,183.06,0,0,0,7,36.6c3,10.1,7,20,8.51,30.44s.47,21.78-5.73,30.32c-2.67,3.68-6.17,6.67-9.62,9.63l-29,24.77-3.47,22.8,5.83,3.39a31.76,31.76,0,0,0,6.81,3.25c3.16.92,6.51.83,9.8.84s6.77.13,10.15.38a57.16,57.16,0,0,1,12.13,1.95,47.11,47.11,0,0,1,17.07,9.88A141.06,141.06,0,0,1,1272.33,721l3.61,7a242.45,242.45,0,0,0,19.11,26.07,20.62,20.62,0,0,0,5,4.71,21.66,21.66,0,0,0,6,2.15l14.56,3.7,9.63,6.58a81.61,81.61,0,0,1,32.23,36.2c2.12,4.71,3.81,9.78,3.51,14.94-.26,4.34-1.91,8.45-3.23,12.59a88.7,88.7,0,0,0-4.22,24.87c-.22,9,.88,18.45-2.49,26.83l9.59,3.26c10.22,10.89,21,22.85,22.74,37.68,1.4,11.63-3,23.61-.32,35,1.21,5.12,3.82,9.94,4.16,15.19.68,10.81-8.13,19.59-16.24,26.77l-24.45,21.65-12.26,7.44c4.13,6,5.2,14.45,1.44,20.73s-11.18,9.18-18.35,10.25l-15.77,19.84c-1.6,5.65-3.12,11.49-2.46,17.32s4,11.73,9.49,13.76c3.1,1.15,6.52,1,9.81.66a130.74,130.74,0,0,0,27.48-5.64c8.31-2.66,16.4-6.17,25-7.68s18.05-.78,25.08,4.39c5.94,4.37,9.39,11.29,12.38,18a311.26,311.26,0,0,1,11.36,29.63c1,3.18,2,6.54,1.43,9.83-.89,4.82-5,8.35-9,11.14-16.29,11.29-35.59,17.24-54.55,23l-36.78,11.22c-4.73,1.44-9.49,2.9-13.78,5.33-9.08,5.16-15.2,14.14-21,22.82l-9.54,8.86c8,4.35,16.83,6.74,25.54,9.32,13.73,4.09,27.3,8.77,40.56,14.18l22.12-8.49c12.86,2.57,25.69-4.51,38.81-4.83,14.35-.33,27.81,7.55,38,17.65s17.9,22.4,26.69,33.76a213.4,213.4,0,0,0,35,35.68c4.54,3.66,9.8,8.83,7.84,14.33s-9.1,6.18-14.81,6a371,371,0,0,1-44.16-4c-10.08-1.61-20.26-3.81-30.4-2.63s-20.5,6.53-24.48,15.93c-4.24,10.05.06,22.16,7.86,29.79s18.43,11.58,28.94,14.54a216.78,216.78,0,0,0,56.5,8.06l27.72,6.55c2.31-.69,4.84-1.24,7.1-.41,2.73,1,4.43,3.9,4.77,6.79l7.66,3.57a325.68,325.68,0,0,1,42,33.22c9.74,9.1,19.1,19,24.57,31.2s6.53,26.95-.1,38.52c-4,7-10.44,12.26-17.31,16.45-8.93,5.45-19.78,9.37-29.78,6.28-7.47-2.3-13.34-8.24-17.49-14.85s-6.87-14-10.16-21.1a139.92,139.92,0,0,0-23.55-35.37l-7.77-13.86c-2.49,1.33-5.14,2.55-7.05,4.63a17.52,17.52,0,0,0-3.19,5.67c-3.2,8.47-3.89,17.67-6.22,26.42a81.36,81.36,0,0,1-11,23.88l8.89,4.75,13.92,28.78a14.47,14.47,0,0,1,1.91,6.2,12.37,12.37,0,0,1-1.89,5.83c-10.08,18.21-31.46,26.33-47.88,39.12s-28.18,30.71-36.39,49.8c-10.56,24.53-15.61,51.62-13.08,78.21,1,10.35,3.2,20.82,8.64,29.68s14.55,15.92,24.9,16.86,21.5-5.46,24.13-15.51c3.09-11.76-5.4-24.14-2.77-36,1.71-7.73,7.76-13.63,13.53-19,8.84-8.3,19-17.13,31.11-17,7.15.1,13.85,3.38,20,7a178.42,178.42,0,0,1,30.1,21.93l12.87,14.77,20.67,1.58a111.47,111.47,0,0,0,12.53-6c2.21-1.22,4.45-2.6,5.79-4.74a64.84,64.84,0,0,0,24.72-3.73c8.49-3.19,16-8.55,23.11-14.14a8.64,8.64,0,0,0,2.68-2.87c1-2.11.22-4.78,1.33-6.85l2.64-2.49,3.09.31a.54.54,0,0,1,.28.08.56.56,0,0,1,.22.35,33.3,33.3,0,0,0,3.77,7.4,2.91,2.91,0,0,1,.7,1.78,2.77,2.77,0,0,1-.69,1.39l-3.07,4,1,3.62c-1.81,1.53-4.41,1.79-6.37,3.13a6.92,6.92,0,0,0-2.79,7,3.4,3.4,0,0,1,.17,1.57,3.07,3.07,0,0,1-.73,1.17c-4.15,5-4.47,12.12-4,18.61a12.76,12.76,0,0,1,0,2.05,17.21,17.21,0,0,1-.56,2.54,18.29,18.29,0,0,0,1.66,12.9,18.69,18.69,0,0,0-6.74,9.58,55.58,55.58,0,0,0-2.19,11.69,10.39,10.39,0,0,0,0,3.73c.48,2,2,3.5,3.5,4.9l5.2,7.76c2.91,5.36,4,11.48,5,17.49q2.64,15.81,4.75,31.7l.62,14.69c3.36,45.87-15,90.55-37.15,130.84-11.77,21.39-25.58,42.83-42.93,59.76l-4.48,26.09c-9.71,11.42-9.07,30.23,1.39,41,6.1,6.25,15.74,11.89,14.36,20.51-1.14,7.15-9.2,10.42-15.36,14.21-14.84,9.12-22.51,28.49-17.94,45.29,1,3.74,2.67,7.47,5.61,10,6.79,5.8,17.44,3,24.76-2.08s13.37-12.27,21.67-15.55c7.89-3.12,16.7-2.3,25.16-3s17.76-3.69,21.55-11.28c2.7-5.43,1.93-12,4-17.67,5-13.73,25-19.59,25.79-34.19.61-12-12.62-20.13-15.69-31.73-2.35-8.86,1.61-18.08,5.85-26.21,8.93-17.12,19.51-33.32,28.88-50.19a407.65,407.65,0,0,0,50.43-218l4.53-14.93c43.8-23.52,85.24-52.86,116.51-91.51s51.78-87.35,50.42-137c-.25-8.89-1.17-17.92.85-26.58,3.39-14.59,14.5-26,21.67-39.1s9.19-32.08-2.83-41c-5.59-4.15-13.16-5.2-18.29-9.92-6.72-6.19-7.12-16.48-7.05-25.62.32-41.16.65-82.44,6.08-123.23,2-14.73,4.69-29.67,11.78-42.72,5.45-10,13.27-18.56,19.36-28.2,18.87-29.86,19.17-70.44.75-100.57-5.63-9.21-12.85-17.51-17.16-27.41-8.67-19.94-4.26-42.93-7.38-64.45-4.49-31-26-58.95-54.77-71.25l.21-18.89c-17.92-33.2-23.69-72.74-46.56-102.74-32.61-42.78-90.54-55.18-143.32-65.52-8-1.58-16.33-3.29-22.91-8.14s-10.92-13.78-7.9-21.38c2.82-7.09,10.62-10.57,17.64-13.56a427.92,427.92,0,0,0,131.47-87.87c11.5-11.27,22.63-23.64,28.06-38.8,6-16.7,4.43-35,2.2-52.63-2.68-21.14-6.36-42.53-15.83-61.62-14.68-29.6-42.53-51.35-73.37-63.2s-64.54-14.53-97.53-12.91c-5.8.28-12,.6-17-2.44-8.77-5.38-8.92-18.42-4.75-27.82s11.47-17.28,14.78-27c7.06-20.74-6.31-43.65-24.26-56.21s-39.81-17.86-60.09-26.15l-13.27-10.5C1517.91,268,1504.37,232,1491,199.28q-16.92-41.53-37.6-81.41c-9.92-19.12-21-38.58-38.68-51s-43.52-15.61-60.08-1.82c-5.89,4.9-10.13,11.47-13.9,18.14-32.3,57.23-34.75,126.55-28.07,191.93l2.1,29.62c14.66,13.89,17.45,37.48,9.76,56.16s-24.26,32.65-42.62,41.07-38.56,11.9-58.58,14.59c-10.93,1.47-23.85,4.14-28,14.34-5,12,6.08,24.33,16.35,32.32s22.16,18.74,19.26,31.43Z"></path>
    <path data-name="3a" data-official="" data-plain="Capsule" data-loc="" d="M1323.44,2636.54c2.6-7-5.71-13.42-13.12-14.31s-15.49.72-22-3c-6.31-3.6-9.19-11.53-8.59-18.78s4.06-13.93,7.91-20.09c4.79-7.66,11-15.37,19.78-17.5,3.16-.77,6.51-.77,9.54-2,9.23-3.59,11.15-15.57,11.65-25.45,2.67-53.1,5.26-107.11-7.53-158.71-2.24-9-4.95-18-5.63-27.27-.48-6.64.3-13.86,4.65-18.9,4.55-5.27,11.89-7,18.75-8.17a321.15,321.15,0,0,1,53.25-4.72c7.78,0,16.72.79,21.26,7.1,3,4.11,3.21,9.55,2.95,14.62-1.33,25.71-12.73,49.73-18.14,74.9-10.06,46.86.88,96.27-8.85,143.2-3,14.51-7.95,28.53-12.88,42.51l-13.16,37.3c-1.15,3.26-2.41,6.68-5.09,8.87-2.36,1.93-5.5,2.61-8.54,2.86a38.59,38.59,0,0,1-25.82-7.33Z"></path>
    <path data-name="3b" data-official="" data-plain="Feathred Seed" data-loc="" d="M1414.17,2595.16c4.63-18.51-6-37.1-8.43-56a66.07,66.07,0,0,1,10.53-44.68c4.13-6.16,9.64-11.82,16.72-14,4.4-1.35,9.11-1.27,13.7-1,7.53.53,15.11,1.7,22.06,4.65,16.36,6.92,27.3,22.8,33.84,39.31a168.48,168.48,0,0,1,9.07,33.72c2,11.93,3.2,24.25.56,36.06s-9.59,23.13-20.36,28.65c-7.27,3.72-15.64,4.57-23.8,5a99,99,0,0,1-18.94-.33,59.5,59.5,0,0,1-40.48-24.89Z"></path>
    <path data-name="4" data-official="Fuchsia coccinea" data-plain="Scarlet Fuchsia" data-loc="Chile" d="M715.59,369.5c2.45-3.15,3.42-7.18,5.17-10.77,2.81-5.78,8.52-10.77,14.93-10.33,3.78.26,7.16,2.31,10.56,4a58.62,58.62,0,0,0,25.81,6.05l8.71,5.69c4.54,3,8.11,8.18,7.61,13.62a1.6,1.6,0,0,1-.32,1,1.79,1.79,0,0,1-1.16.4,125.69,125.69,0,0,0-31.72,7.18l-5.94-.51Zm159.31-45a4.33,4.33,0,0,1-1.13,1.36c-7.95,7.11-19.8,9-26.94,17l-7.37,1q-6.62-4-13.52-7.53l-2.22-5.23c2.52-2.81,3.51-6.67,4-10.41s.58-7.58,1.68-11.19,3.44-7.11,7-8.39l9.23-2a9.31,9.31,0,0,0,4,3.85,34.25,34.25,0,0,1,4,1.84,12.2,12.2,0,0,1,3.25,3.87l1.66,1.27c5.8,2.61,11.89,5.45,15.49,10.7C874.8,321.74,875.46,323.21,874.9,324.47Zm234.68,1596.08a412,412,0,0,0,38.58,85.8c3.08,5.18,6.47,10.49,11.64,13.61a5.31,5.31,0,0,0,3.92,1,7.31,7.31,0,0,0,2.67-1.76c6.06-5.08,14.79-5.29,22.64-4.32,5.74.7,11.88,1.84,17.08-.7,2.81-1.38,5-3.7,7.14-6,7.28-8,14.4-17.29,14.56-28.07.18-12.67-9.15-23.21-17.86-32.4q-20.55-21.66-40.82-43.6l-10.2-2.91c-4.37-.62-8.41-2.59-12.66-3.78-8.16-2.29-16.82-1.65-25.28-1a5.87,5.87,0,0,0-2.93.76c-1.38,1-1.64,2.89-1.77,4.57Zm-33.31-99.16c5.73,20.58,16.13,39.5,26.45,58.2l3.07,2.08c5-14.15-2.33-30.32,2.27-44.59.84-2.59,2-5,2.84-7.64a50.53,50.53,0,0,0,1.63-9.8l-3-4.44a107.5,107.5,0,0,1-8.08-18.15c-2.61-7.71-4.72-16.29-11.13-21.31l-8.64,16.44c-2.8,5.33-5.63,10.73-7,16.59Zm6-76.68a38.77,38.77,0,0,0-2.85-6.46,9.66,9.66,0,0,0-3-3.58,9.85,9.85,0,0,0-5.2-1.12c-6.45-.06-13.21,1.09-19.13-1.48l-1.94,3.76a147.19,147.19,0,0,0,1.22,45.17c1.4,7.65,3.66,15.63,9.4,20.88L1067,1804l14.18-27a38.75,38.75,0,0,0,2.83-6.31c1.86-5.92.76-12.31-.35-18.41Zm-65.34-174.92c.74,9.2,1.5,18.5,4.45,27.24,2.25,6.64,5.77,13,6,20.06.22,7.71-3.61,15.72-.77,22.9l.65,3.94a18.22,18.22,0,0,0,6-.17,1.57,1.57,0,0,1,1.17,0,1.46,1.46,0,0,1,.52.8,30.16,30.16,0,0,0,6.34,10.73c3,3,7.1,5,11.26,4.52a1.79,1.79,0,0,1,1.08.09,1.83,1.83,0,0,1,.65,1.13,9.25,9.25,0,0,0,7.63,6.36,2.59,2.59,0,0,0,1.46-.15,2.88,2.88,0,0,0,.82-.7,25.5,25.5,0,0,0,5.42-9.58l1.73-7a216.34,216.34,0,0,0-16-86c-2.41-5.9-5.17-11.8-9.56-16.41s-10.72-7.77-17-6.94c-4.91.65-9.72,3.62-14.49,2.32a82.52,82.52,0,0,1-5.57,16.18ZM477.6,336.19a50.39,50.39,0,0,1-1.34-37c3.61-10,10.56-19.79,8.71-30.3-1.08-6.11-5-11.26-7.59-16.9-2.93-6.44-4-14.17-.87-20.49,2-4,5.55-7.09,9-10l-14.91-1.7c-19.26-9.22-41.29-22.39-42.25-43.73-.48-10.42,4.48-20.19,7.68-30.12,4.71-14.59,5.29-31.81-3.95-44.05-4.07-5.39-9.69-9.35-14.83-13.73C403.35,76.37,392.69,61.27,380,48.24S351.23,23.8,333,22.67s-38,11.52-39.31,29.7c-.54,7.5,2,15.09.62,22.49-1.79,9.72-10.12,17.19-19.34,20.75s-19.3,3.92-29.18,4.27c-14.06.5-30.5,2.45-37.61,14.58-5.72,9.76-2.59,22.75,4.46,31.59s17.27,14.46,27.2,19.87c3.87,2.1,8.28,5.13,8.05,9.52-.17,3.49-3.27,6-6.18,7.94C230,191.11,216.9,196.53,205,204s-22.9,17.73-27.06,31.15.66,30.27,13.38,36.22c5,2.35,10.85,2.92,15.41,6.07,12,8.32,7.32,27.09.05,39.77A211,211,0,0,1,89,412.36C68.21,419,43.26,424.88,35,445.06c-6.3,15.28,1.73,34.9,16.92,41.39,5.88,2.52,12.51,3.26,18,6.56,11.74,7.1,14.11,23.28,12.08,36.85-4.55,30.51-24.54,57.7-25.64,88.53-.31,8.69,1.25,18.11,7.42,24.23,11.58,11.46,30.78,5.27,47,6.34l29.84,5.29c6.65-2.31,13.57-4.66,20.56-3.85s14,5.8,14.74,12.8c.93,9.15-8.4,15.65-16.51,20L121.1,703.72c-3.24,1.74-6.57,3.54-8.88,6.4-7,8.62-1.33,22,7,29.26s19.21,11.87,26,20.69c9.78,12.77,8.35,30.56,6.46,46.53q-3,25.67-6.08,51.32c-1.69,14.22-3.17,29.55,3.83,42s26.15,18.89,35.87,8.38a153.26,153.26,0,0,1,.77,64.39c-5.93,29.22-20.44,57.13-19.39,86.93.27,7.85,1.7,15.82,5.52,22.69,3.64,6.53,9.23,11.74,13.55,17.84,10,14.14,12.6,32,15.4,49.15s6.54,35.05,18.12,48,33.6,18,46.23,6.12l24.58,4c16.06,5.74,23.31,24.77,23.79,41.82s-3.74,34.15-1.61,51.08a69.32,69.32,0,0,0,22.6,42.8c8.75,7.75,19.35,13.16,28.15,20.86,24,21,30.69,59.34,15.16,87.22-7.21,12.94-19,25.55-16.45,40.15,2,11.65,13.73,20.17,25.54,20.5s23.1-6.37,30.36-15.7c5.73-7.35,9.28-16.21,14.94-23.61a51.18,51.18,0,0,1,23.86-17.18c7.59-2.6,16.08-3.33,23.62-.56,15.31,5.62,22.17,23.14,26.23,38.93A382.32,382.32,0,0,1,516.41,1551c1.27,12.71,4,28.35,16.19,32.2,4,1.28,8.41.88,12.64.45,10.61-1.09,21.38-2.32,31.21-6.46s18.76-11.65,22.14-21.76c2.51-7.49,1.79-15.66.5-23.46a168.46,168.46,0,0,0-10.6-37c-8.45-20.32-21-43.08-11.15-62.76C584,1419,599.23,1412.1,614,1410.19s29.65.11,44.48-.52,30.55-4.52,40.38-15.63l-.46-21.19c-.16-3.86-3.21-6.9-4.69-10.46a25.54,25.54,0,0,1-1.41-5.6,210.15,210.15,0,0,1-2-53.43l-1.88-3.67c-.09-8-1-16.28-4.69-23.44-2.17-4.25-5.23-8-7.69-12.06-8-13.37-10-30.87-22-40.81l-3-9.11a95.94,95.94,0,0,1-1.75-41.16c.79-4.5,1.91-8.94,3-13.37l4.08-16.23,5.24-20.82c1.19-4.73,2.38-9.46,3.77-14.14,1.74-5.88,3.88-11.81,7.83-16.51a25.76,25.76,0,0,1,36.56-2.93l14.39,1.28c20.36,9.08,41.9,20.63,50.63,41.14,6.41,15,4.64,32.1,4.38,48.45s1.85,34.31,13.61,45.66c4.56,4.4,10.35,7.56,14.06,12.68,4.15,5.73,5.12,13.12,5.64,20.17,2.76,37.27-3.09,75.78,8.15,111.42l4.16,11.23A129.12,129.12,0,0,0,835.36,1411c2.27,4.52,5.48,9.4,10.5,10.1,4.86.68,9.2-2.88,12.7-6.32s7.46-7.24,12.37-7.23l5.17-2.09c2.5-1.16,5.08-2.34,7.83-2.39s5.72,1.37,6.62,4c.35,1,.53,2.29,1.53,2.62a2.51,2.51,0,0,0,1.61-.18c2.49-.84,5.35-2.09,5.86-4.66.21-1.07-.06-2.19.08-3.27.35-2.67,2.94-4.37,5.28-5.69q10.41-5.85,21.16-11a29.17,29.17,0,0,1,8.13-3,10.31,10.31,0,0,1,8.21,1.9c2.7,2.29,3.51,6.14,3.46,9.68a28,28,0,0,1-7.78,18.87l-6.09,3.14-17.54,8.37a9.75,9.75,0,0,0-2,1.12,13.79,13.79,0,0,0-1.81,1.93,36.55,36.55,0,0,1-7.05,5.81l-2.53,7c.63,4.6,0,9.27-.61,13.86-1.54,10.77-3.48,21.51-3.87,32.38s.82,22,5.33,31.9a14.19,14.19,0,0,0,2.26,3.71,16.09,16.09,0,0,0,5.69,3.47c4.38,1.89,9.19,3.81,13.77,2.5a16.1,16.1,0,0,0,6-3.57c6.06-5.27,10.16-12.55,12.6-20.21S945.61,1488,946,1480c.26-5.14.34-10.3,1.1-15.39,1.3-8.63,4.78-17.23,11.28-23l2.85-4.39a37.25,37.25,0,0,0,.86-5.14,27.67,27.67,0,0,1,10.39,3.06,5,5,0,0,0,3.24.91c1.11-.25,1.84-1.92.88-2.55a68.42,68.42,0,0,0,12.39.41,1.08,1.08,0,0,0,.73-.22,1.19,1.19,0,0,0,.24-.64l.69-4.84a41.62,41.62,0,0,0,.6-6.59c0-2.35-.45-4.68-.63-7a68.86,68.86,0,0,1,.17-9.74l-2.72-5.51a12.75,12.75,0,0,1-14,10.76c-2.53-.27-5.15-1.5-6.25-3.8a9,9,0,0,1-.7-3.1c-.29-3.47.48-7.58,3.57-9.19a17.21,17.21,0,0,1,4.41-1.12,5.14,5.14,0,0,0,3.7-2.38,6,6,0,0,0,.43-2.41c.12-3.23.15-6.47.07-9.7l-2.7-6.29q-6.92-14.57-12.88-29.54l-2.56-2.34c-1.78-.16-3.89-.55-4.59-2.19-.21-.5-.28-1.09-.7-1.43a2.09,2.09,0,0,0-1-.32,33.05,33.05,0,0,1-13.51-4.82,1.23,1.23,0,0,1-.57-.58,1.18,1.18,0,0,1,.08-.78,14.09,14.09,0,0,1,3-5c1.75-1.85,4-3.28,5.18-5.55l2.72-3.62a5.63,5.63,0,0,0,.57-5.4,10.13,10.13,0,0,0-1.39-2.17c-.86-1.11-1.74-2.19-2.65-3.24a14.55,14.55,0,0,1-1.9-2.53,13.31,13.31,0,0,1-.91-2.5l-1.82-6.23,1.06-4.83c4.3-2.76,6.69-7.64,8.66-12.36a168.77,168.77,0,0,0,12.32-49.73c1.28-14.11.85-28.73,6.15-41.87l1.62-6.85a8.37,8.37,0,0,0,3.11-6.64,33,33,0,0,0-1-7.5,62.55,62.55,0,0,1-1.06-8.84,6.51,6.51,0,0,1,.58-3.69c1.21-2,4-2.23,5.89-3.57,2.44-1.72,3.14-5,3.64-7.93.88-5.18,1.74-10.61.09-15.6l1.59-5.65a4.07,4.07,0,0,1,2-4.75,8.32,8.32,0,0,1,5.46-.7,23,23,0,0,1,12.1,6.28,47.13,47.13,0,0,1,8.25,11.06l3.64.21a12.84,12.84,0,0,1,2.77-5.79,35.11,35.11,0,0,0,2.8-3.19,4.29,4.29,0,0,0,.64-4l-1.63-4.35c-1.29-.36-1.82-1.89-2-3.22s-.14-2.8-1-3.8c-.35-.4-.83-.69-1.14-1.12-.82-1.13-.28-2.68-.09-4.06.32-2.27-.4-4.53-.73-6.8a20.19,20.19,0,0,1,2.54-13l7.75-2.4c2.45-.67,5,.46,7.2,1.77a40.06,40.06,0,0,1,6.79,5.15l7.22,10.27a76,76,0,0,1,10.39,10.6,23.15,23.15,0,0,1,5.69,9.6l2.85,7.9,3.75-1.28a4,4,0,0,0,3.32-4.71l-4.76-1.11c-1.36-6.49-2.75-13.06-5.74-19-1.14-2.26-2.5-4.4-3.56-6.7-1.92-4.15-2.79-8.69-3.56-13.19s-1.45-8.92-2.13-13.38l-3.58-23.41-.52-10.48c-3.74-16-17-27.7-29.61-38.28L1005,979.14c-4-3.41-8.15-6.87-11.07-11.27s-4.43-9.19-5.74-14.13a145.06,145.06,0,0,1-4.68-31.13c-.3-7.4,0-14.83-1-22.17-.76-6-2.32-11.94-2.33-18,0-11.65,5.68-22.48,11.76-32.41l16.38-4.85c3.52,2.28,7.09,4.6,9.9,7.71a53.15,53.15,0,0,1,4.1,5.45,242.08,242.08,0,0,0,19.71,24.76l2.83,3.36a13.94,13.94,0,0,0,3.52,4,4.71,4.71,0,0,0,5,.37,5.23,5.23,0,0,0,2.06-3.85c.56-4.43-1.78-8.65-4-12.5l-9.32-15.91a57.52,57.52,0,0,0-6.67-9.77c-1.94-2.13-4.18-3.95-6.29-5.9-5.55-5.16-10.15-11.24-14.72-17.29a37.38,37.38,0,0,1-4.56-7.09c-2.32-5.17-2.17-11.06-2.64-16.72a72.74,72.74,0,0,0-9.54-30.38l-2.88-9-15.43-15.83-1.19-17.38a63.89,63.89,0,0,1-5.77-11q-6.84-15.62-12.19-31.84c-1.78-5.41-3.34-11.71-.23-16.48,2.65-4.07,8-5.62,12.82-5.47,8.12.25,15.66,4.27,22.27,9s12.66,10.27,19.73,14.28,15.56,6.41,23.36,4.14a6.85,6.85,0,0,0,4.18-2.69c1-1.68.66-3.81.21-5.71a76.14,76.14,0,0,0-10.94-25l-.4-6.14c5.36-.17,10.5-2.07,15.52-3.95,1.54-.58,3.43-1.92,2.72-3.41,2,.16,4.58-.16,4.94-2.1a4,4,0,0,0-.24-1.82,13.94,13.94,0,0,0-1.72-4.2,4.66,4.66,0,0,0-3.81-2.15c-1.37.06-3,.83-3.91-.19-1.07-1.19.44-3.26-.35-4.65-1.83,0-3.85,0-5.23-1.23a7.46,7.46,0,0,1-1.79-3q-1.82-4.42-3.64-8.83l-1.92-4.62c-12.64-17.75-25.91-36.08-44.94-46.69l-7-6.27c-3.49-3.81-7.2-7.76-12.11-9.38l-2.46.21a12.81,12.81,0,0,1-9.08-8.26c-.61-1.82-.83-3.84-2-5.33s-3.26-2.19-5.2-2.61a39.27,39.27,0,0,0-6.92-.91l.23-.7a28.82,28.82,0,0,0,14.58-4.13,73,73,0,0,0,12.2-9.26c3.29-2.93,6.63-6,10.77-7.51s9.36-1,12.17,2.38a23.56,23.56,0,0,0-6.67-12.49c-3.21-3.12-7.25-5.26-10.53-8.29-5.7-5.26-8.83-12.89-14.73-17.91l-2.71-2.93A15.37,15.37,0,0,0,945.19,466a56.1,56.1,0,0,0-6.45.74,56,56,0,0,1-13.92-.54,212.15,212.15,0,0,1-52-13.83L867,449.11,862,446.77l-3.12-6.24a14.66,14.66,0,0,0,4.48-2.93,5,5,0,0,0,1.34-5,8.86,8.86,0,0,0-2.23-2.93,22.06,22.06,0,0,1-5.94-13.51,1.57,1.57,0,0,1,.08-.78c.28-.61,1.1-.65,1.77-.61l7.62.5c1.47.1,3.18.33,3.94,1.6a1.92,1.92,0,0,0,.5.69,1.51,1.51,0,0,0,1.11,0c3.93-.88,8,.65,11.51,2.62s6.79,4.44,10.61,5.73,8.47,1.12,11.33-1.72l4.27-2.75A42.66,42.66,0,0,1,926,416.66c-3.26-5.26-8.87-8.53-14.26-11.58a70.23,70.23,0,0,0-7.62-3.92c-6.43-2.69-13.49-3.44-20.44-4a100.39,100.39,0,0,0-20.87.11c-8.33,1.13-16.4,4.05-24.79,4.54l-6.1-.05a14.81,14.81,0,0,0-7.67,1.05,47.08,47.08,0,0,1-7.43,2.43l-4,1.07c-9.64-2.22-19.69-.38-29.57-.74A66.26,66.26,0,0,1,765,402.35l-1.9,8.93a76.27,76.27,0,0,0,21.52,33c7.38,6.62,17,14.06,15.35,23.83s-13.55,13.56-22.73,17.65c-10.4,4.64-19.32,12-29.45,17.25-12,6.16-25.39,9.06-38.59,11.9-3.34.72-6.79,1.44-10.15.83s-6.66-2.9-7.39-6.24c-.43-2,0-4.24-1.06-6s-3.24-2.22-5.21-2.5c-25.35-3.62-48.75,12.54-73.12,20.42-3.83,1.23-7.87,2.28-11.84,1.63-4.24-.69-8-3.27-11.07-6.23-16.83-16-19-42.37-33.45-60.56-17-21.46-48.68-28.63-62.49-52.27-6.38-10.93-8-23.92-9.44-36.49Z"></path>
    <path data-name="4a" data-official="" data-plain="Flower opened" data-loc="" d="M1747.42,2645.89c1.24-20.09,1.23-41.22-8.06-59.09-9.41-18.1-26.94-30.23-42.75-43.14s-31.33-28.93-33.78-49.19c-1.71-14.2,3.33-28.21,6.26-42.21a145.79,145.79,0,0,0,1.56-50.72c-2.48-17-8-33.56-9.78-50.68s.66-35.78,12.05-48.67c9.93-11.24,24.85-16.3,38.36-22.79s27.28-16.42,30.07-31.15c1.86-9.85-1.61-19.81-3.64-29.62s-2.19-21.25,4.76-28.48c7.08-7.38,19.6-7.36,28.3-2s14,15,17.06,24.72c7,22.61,3.74,47.9,13.47,69.5,1.87,4.16,4.4,8.31,8.38,10.56,11.28,6.39,25-5.81,37.81-3.61,20.69,3.54,21.19,38.63,41.34,44.5,13.07,3.81,28.61-7.1,40,.42,7.19,4.77,8.6,14.57,9.18,23.18,2.12,31.62,2.1,63.7-5,94.58s-21.87,60.65-45.54,81.71c-12,10.64-25.93,18.85-37.92,29.46s-22.3,24.59-23.39,40.57c-1.18,17.43,8.58,33.43,14.24,50,1.13,3.32,2.11,6.91,1.17,10.29-1.82,6.58-9.65,9.15-16.37,10.3-17.71,3-35.74,3.51-53.7,4-7.16.18-14.9.19-20.66-4.05s-7.39-14.44-1.22-18.08Z"></path>
    <path data-name="4b" data-official="" data-plain="Berry" data-loc="" d="M1586.63,2628.38c-5.82-8.9-11.72-18-14.89-28.11a99.46,99.46,0,0,1-3.35-17.05,376.85,376.85,0,0,1-2.69-65.71c.48-10.39,1.73-21.56,8.68-29.3,4.81-5.36,11.74-8.3,18.64-10.36,12.47-3.73,27-4.77,37.55,2.89,5.87,4.28,9.72,10.72,13.4,17,6.14,10.44,12.37,21.11,14.93,32.95,1.62,7.51,1.71,15.25,1.79,22.94.23,21.84.3,44.47-8.58,64.43-4.29,9.62-10.71,19-10.36,29.5.22,6.78,3.28,13.1,4.89,19.69a46.55,46.55,0,0,1,1.26,13.51,10.24,10.24,0,0,1-1.41,5.35c-1.55,2.23-4.41,3-7,3.71l-25.72,6.5c-8.56,2.16-17.6,4.33-26.12,2s-16-11-13.71-19.57c1.87-7.14,9.31-11.25,13.2-17.53,5.05-8.18,3.41-18.66,1.6-28.11Z"></path>
    <path data-name="4c" data-official="" data-plain="Section" data-loc="" d="M1582.4,2435.14c-24.45-3.5-49.13-7.06-72.19-15.9-5.49-2.11-11.3-4.89-13.93-10.16-2.11-4.23-1.71-9.39.16-13.74,4.66-10.81,16.83-16.15,28.25-19,7.41-1.86,15.23-3.12,22.67-1.36,9.33,2.22,17.71,9.08,27.29,8.37,5.35-.39,10.19-3.15,15.19-5.1a53.91,53.91,0,0,1,50.79,6.76c5.39,4,10.09,9.17,12.56,15.41s2.45,13.65-1,19.43c-4.8,8.12-14.83,11.34-24.12,13a147.52,147.52,0,0,1-37.3,1.9Z"></path>
    <path data-name="5" data-official="Circea lutetiana" data-plain="Enchantr’s Nightshade" data-loc="England" d="M1492.5,1855.94l.91-8.8-7.83,4.06q-49-34.85-101.22-65l-7.23-5-4.86,4.81a9.45,9.45,0,0,1-11.43-1.26,17.9,17.9,0,0,1-2.55-3.54l-3.8-6.25c-9.09-.05-18.48-.15-26.82-3.77-3.61-1.57-7.07-3.81-11-4.15-1.89-.17-3.86.11-5.63-.56-2.55-1-4.1-3.67-6.61-4.71a10.82,10.82,0,0,1-9.17,1.31l-3.11-9.62c-8.68-30.83-11.59-63-18.58-94.22a368.66,368.66,0,0,0-46.06-113.12l-2.75-6.67c-2.43-2.63-2.08-7.46-5.25-9.13-2.18-1.14-5.15-.18-7.09-1.69-1.13-.88-1.56-2.35-2.16-3.65-1.4-3-3.91-5.37-6.36-7.62-2-1.8-4-3.64-6.44-4.58-1.49-.56-3.08-.78-4.6-1.23a30.46,30.46,0,0,1-6.24-3l-7.34-4.18-3.11-1.21c-8.33-3.56-18-2.52-26.52.52s-16.26,7.91-24.27,12.13a44.79,44.79,0,0,1-7.9,3.47,45.32,45.32,0,0,1-9.28,1.54c-3.47.29-7,.47-10.35-.63-5.74-1.92-9.55-7.24-12.95-12.25-2.23-3.29-4.51-6.66-5.54-10.51a7.18,7.18,0,0,1-.11-4.18,3.37,3.37,0,0,1,3.15-2.4c-.64,3,1.52,6.06,4.38,7a9.6,9.6,0,0,0,8.57-1.68,19.65,19.65,0,0,0,5.54-7.08c1.38-2.69,2.47-5.52,3.94-8.17a32.57,32.57,0,0,1,5-6.75c2.21-2.3,5.17-4.39,8.32-3.93l.47-.28a33.3,33.3,0,0,0,6.19,5.91,12.36,12.36,0,0,0,8.08,2.33c3.59-.39,6.6-2.79,10-3.94,3.19-1.08,6.63-1,10-1q9.42.2,18.84.51a2.69,2.69,0,0,1,3.76-1.89l-.07-1.52a537,537,0,0,0-37.62-45.77l-.39-.12a75.78,75.78,0,0,1-19.15,4.69,2.58,2.58,0,0,1-1.51-.14,2.66,2.66,0,0,1-.94-1.1q-1.08-1.93-2.18-3.87a9.65,9.65,0,0,1-1.5-7.18l1.17-15.37-2.27-5a36.51,36.51,0,0,1-5.27-9.34c-1.84-5.27-1.7-11-1.54-16.58a19.24,19.24,0,0,1,.89-6.33,15.6,15.6,0,0,1,3.36-5,39.3,39.3,0,0,1,20.32-11.51c3-.65,6.16-.94,9.25-1.39,2.46-.36,4.9-.84,7.33-1.41a11.66,11.66,0,0,0,5-2.15,4.34,4.34,0,0,0,1.4-4.93l-1.42-3.47a443.1,443.1,0,0,0-23.59-41l-.52-6.23a30.15,30.15,0,0,1-.44-23.38,31.07,31.07,0,0,1,16.4-16.72c2-.87,4.22-1.56,5.88-3,4.3-3.77,3.32-10.57,2.21-16.18-4.28-21.81-4.74-44.16-7.08-66.25a388.7,388.7,0,0,0-13.5-68.17l1-8.15c-.42-11.25-.84-22.53-.41-33.78a106.93,106.93,0,0,0,0-14.76c-.35-3.52-1.14-7-1.47-10.53-.26-2.8-.24-5.63-.55-8.43-.7-6.16-3-12-5.33-17.78l-2.37-4.32a53.18,53.18,0,0,1-1.08-11.69l-.48-26.79c0-1.76,0-3.65,1-5.09.51-.71,1.22-1.25,1.72-1.95a2.19,2.19,0,0,0,.26-2.43c-.57-.79-1.72-.78-2.65-1.08-1.6-.52-2.63-2-3.53-3.45q-3.77-5.94-7.55-11.88l-.17-5.64a45.81,45.81,0,0,1-.07-12.1,60.33,60.33,0,0,0,1-8.87,31.87,31.87,0,0,0-1.78-8.81,121.34,121.34,0,0,0-8.91-21l-1.38-4.54q-.12-9-.26-18.06c0-3.09-.11-6.28-1.41-9.08-1.47-3.19-4.34-5.48-7.15-7.6l-1.24-4.4-1.29-5.21a44.65,44.65,0,0,0-2.43-7.8,15.06,15.06,0,0,0-5-6.36l-.07-6.85a121.78,121.78,0,0,0-35.56-48.43l-6-4.23a59.6,59.6,0,0,0-22.76-7.42c-4.47-.51-9-.51-13.4-1.36a35.51,35.51,0,0,1-22.11-14.4l1.19,17.38,15.43,15.83,2.88,9a72.74,72.74,0,0,1,9.54,30.38c.47,5.66.32,11.55,2.64,16.72a37.38,37.38,0,0,0,4.56,7.09c4.57,6,9.17,12.13,14.72,17.29,2.11,2,4.35,3.77,6.29,5.9a57.52,57.52,0,0,1,6.67,9.77l9.32,15.91c2.26,3.85,4.6,8.07,4,12.5a5.23,5.23,0,0,1-2.06,3.85,4.71,4.71,0,0,1-5-.37,13.94,13.94,0,0,1-3.52-4l-2.83-3.36a242.08,242.08,0,0,1-19.71-24.76,53.15,53.15,0,0,0-4.1-5.45c-2.81-3.11-6.38-5.43-9.9-7.71L992,850c-6.08,9.93-11.77,20.76-11.76,32.41,0,6,1.57,12,2.33,18,.93,7.34.66,14.77,1,22.17a145.06,145.06,0,0,0,4.68,31.13c1.31,4.94,2.91,9.88,5.74,14.13s7,7.86,11.07,11.27l16.4,13.77c12.57,10.58,25.87,22.28,29.61,38.28l.52,10.48q1.8,11.7,3.58,23.41c.68,4.46,1.37,8.93,2.13,13.38s1.64,9,3.56,13.19c1.06,2.3,2.42,4.44,3.56,6.7,3,5.91,4.38,12.48,5.74,19l4.76,1.11a4,4,0,0,1-3.32,4.71l-3.75,1.28-2.85-7.9a23.15,23.15,0,0,0-5.69-9.6,76,76,0,0,0-10.39-10.6l-7.22-10.27a40.06,40.06,0,0,0-6.79-5.15c-2.18-1.31-4.75-2.44-7.2-1.77l-7.75,2.4a20.19,20.19,0,0,0-2.54,13c.33,2.27,1,4.53.73,6.8-.19,1.38-.73,2.93.09,4.06.31.43.79.72,1.14,1.12.88,1,.88,2.47,1,3.8s.68,2.86,2,3.22l1.63,4.35a4.29,4.29,0,0,1-.64,4,36.52,36.52,0,0,1-2.8,3.19,12.84,12.84,0,0,0-2.77,5.79l-3.64-.21a47.13,47.13,0,0,0-8.25-11.06,23,23,0,0,0-12.1-6.28,8.32,8.32,0,0,0-5.46.7,4.07,4.07,0,0,0-2,4.75l-1.59,5.65c1.65,5,.79,10.42-.09,15.6-.5,2.94-1.2,6.21-3.64,7.93-1.91,1.34-4.68,1.57-5.89,3.57a6.51,6.51,0,0,0-.58,3.69,62.55,62.55,0,0,0,1.06,8.84,33,33,0,0,1,1,7.5,8.37,8.37,0,0,1-3.11,6.64l-1.62,6.85c-5.3,13.14-4.87,27.76-6.15,41.87a168.77,168.77,0,0,1-12.32,49.73c-2,4.72-4.36,9.6-8.66,12.36l-1.06,4.83c.61,2.08,1.21,4.16,1.82,6.23a13.31,13.31,0,0,0,.91,2.5,14.55,14.55,0,0,0,1.9,2.53c.91,1,1.79,2.13,2.65,3.24a10.13,10.13,0,0,1,1.39,2.17,5.63,5.63,0,0,1-.57,5.4l-2.72,3.62c-1.14,2.27-3.43,3.7-5.18,5.55a14.09,14.09,0,0,0-3,5,1.18,1.18,0,0,0-.08.78,1.23,1.23,0,0,0,.57.58,33.05,33.05,0,0,0,13.51,4.82,2.09,2.09,0,0,1,1,.32c.42.34.49.93.7,1.43.7,1.64,2.81,2,4.59,2.19l2.56,2.34q6,15,12.88,29.54l2.7,6.29c.08,3.23,0,6.47-.07,9.7a6,6,0,0,1-.43,2.41,5.14,5.14,0,0,1-3.7,2.38,17.21,17.21,0,0,0-4.41,1.12c-3.09,1.61-3.86,5.72-3.57,9.19a9,9,0,0,0,.7,3.1c1.1,2.3,3.72,3.53,6.25,3.8a12.75,12.75,0,0,0,14-10.76l2.72,5.51a68.86,68.86,0,0,0-.17,9.74c.18,2.35.6,4.68.63,7a41.62,41.62,0,0,1-.6,6.59L990,1433a1.19,1.19,0,0,1-.24.64,1.08,1.08,0,0,1-.73.22,68.42,68.42,0,0,1-12.39-.41c1,.63.23,2.3-.88,2.55a5,5,0,0,1-3.24-.91,27.67,27.67,0,0,0-10.39-3.06,37.25,37.25,0,0,1-.86,5.14l-2.85,4.39c-6.5,5.81-10,14.41-11.28,23-.76,5.09-.84,10.25-1.1,15.39-.41,8-1.29,16.11-3.73,23.77s-6.54,14.94-12.6,20.21a16.1,16.1,0,0,1-6,3.57c-4.58,1.31-9.39-.61-13.77-2.5a16.09,16.09,0,0,1-5.69-3.47,14.19,14.19,0,0,1-2.26-3.71c-4.51-9.9-5.72-21-5.33-31.89s2.33-21.62,3.87-32.39c.66-4.59,1.24-9.26.61-13.86l2.53-7a36.55,36.55,0,0,0,7.05-5.81,13.79,13.79,0,0,1,1.81-1.93,9.75,9.75,0,0,1,2-1.12l17.54-8.37,6.09-3.14a28,28,0,0,0,7.78-18.87c0-3.54-.76-7.39-3.46-9.68a10.31,10.31,0,0,0-8.21-1.9,29.17,29.17,0,0,0-8.13,3q-10.74,5.21-21.15,11c-2.35,1.32-4.94,3-5.29,5.69-.14,1.08.13,2.2-.08,3.27-.51,2.57-3.37,3.82-5.86,4.66a2.51,2.51,0,0,1-1.61.18c-1-.33-1.18-1.62-1.53-2.62-.9-2.59-3.87-4-6.62-4s-5.33,1.23-7.83,2.39l-5.17,2.09c-4.91,0-8.87,3.8-12.37,7.23s-7.84,7-12.7,6.32c-5-.7-8.23-5.58-10.5-10.1a129.12,129.12,0,0,1-10.62-29.88l-4.16-11.23c-11.24-35.64-5.39-74.15-8.15-111.42-.52-7-1.49-14.44-5.64-20.17-3.71-5.12-9.5-8.28-14.06-12.68-11.76-11.35-13.86-29.31-13.61-45.66s2-33.41-4.38-48.45c-8.73-20.51-30.27-32.06-50.63-41.14l-14.39-1.28a25.76,25.76,0,0,0-36.56,2.93c-3.95,4.7-6.09,10.63-7.83,16.51-1.39,4.68-2.58,9.41-3.77,14.14q-2.62,10.41-5.24,20.82l-4.08,16.23c-1.12,4.43-2.24,8.87-3,13.37a96,96,0,0,0,1.75,41.16l3,9.11c12,9.94,14,27.44,22,40.81,2.46,4.08,5.52,7.81,7.69,12.06,3.66,7.16,4.6,15.4,4.69,23.44l1.88,3.67a210.15,210.15,0,0,0,2,53.43,25.54,25.54,0,0,0,1.41,5.6c1.48,3.56,4.53,6.6,4.69,10.46l.46,21.19,3.87,10c9.67-1.88,19.61-3.77,29.3-2s19.22,8,21.88,17.51c2.56,9.09-1.63,18.74-7.06,26.46-16.56,23.54-44.22,36.69-63.83,57.77-5.61,6-10.62,12.87-13,20.75-3.23,10.59-1.46,22.06,1.49,32.73,11.89,43.13,41.57,78.69,63.84,117.49,9.07,15.82,17.09,32.72,19,50.85s-3,37.8-16.61,50c-11.5,10.35-27.43,14.1-42.79,16a244.56,244.56,0,0,1-118.66-14.92c-16.44-6.44-32.17-14.66-48.85-20.46a179.51,179.51,0,0,0-64.13-9.85c-2.91.08-6.18.41-8,2.67-1.63,2-1.57,4.83-1.28,7.39a61.08,61.08,0,0,0,6.22,20.6l8.61,13.15,9.31,11.27c19.42,21.38,34.52,46.38,46.95,72.45s22.3,53.27,32.14,80.42l10.37,24.05,11.35,4.75q26.31,21.42,53.45,41.8c14.27,10.7,29.06,21.37,46.13,26.56,12.88,3.92,26.5,4.54,40,5.07,16,.64,32,1.18,48,1.34,20.21.19,40.59-.26,60.33-4.6s39-12.8,53.5-26.86c15.87-15.37,27.38-38,48.86-43.17,17.43-4.21,36,5.58,46.59,20.06S990.23,2036.11,992,2054s1.55,36,5.2,53.5l10,12.66c2.6,2.8,3.88,6.69,6.78,9.18,2.72,2.34,6.46,3.08,10,3.47s7.26.56,10.53,2c2.12,1,4,2.44,6,3.49s4.58,1.65,6.71.73a2.36,2.36,0,0,0,1.4-1.31,3.65,3.65,0,0,0,.1-1.19c0-4.34,4.2-7.84,8.52-8.33l2.85-10.07a365.85,365.85,0,0,1-13-91.4c-.14-10.26.16-20.66,3-30.52,4.68-16.29,15.84-29.82,26.71-42.83l20.22-24.18,12.51-8.64,6.71-18.83c.13-1.68.39-3.6,1.77-4.57a5.87,5.87,0,0,1,2.93-.76c8.46-.67,17.12-1.31,25.28,1,4.25,1.19,8.29,3.16,12.66,3.78l10.2,2.91,11.64,1c43.12,1.52,86.94,3.16,127.89,16.75l11.87,9.53,4.6-9.87a6.4,6.4,0,0,1,4.49-2c6.79-.72,13.34,2.44,19.23,5.87s11.8,7.32,18.55,8.3l8.52,4.7c7.1,3.31,15.41,2.94,23,1s14.68-5.38,22-8.12c9.54-3.57,19.76-6.12,27.71-12.47,6.25-5,10.92-12.17,18.24-15.37l17.27-11a6.18,6.18,0,0,0,4.29-2.9,12.42,12.42,0,0,0,1.67-5,25.58,25.58,0,0,0-.72-10.48c3-1.4,4.71-4.86,4.91-8.21S1493.49,1859.14,1492.5,1855.94Zm-451.25-200.6a30.16,30.16,0,0,1-6.34-10.73,1.46,1.46,0,0,0-.52-.8,1.57,1.57,0,0,0-1.17,0,18.22,18.22,0,0,1-6,.17l-.65-3.94c-2.84-7.18,1-15.19.77-22.9-.2-7-3.72-13.42-6-20.06-3-8.74-3.71-18-4.45-27.24l-8.27-10.62a82.52,82.52,0,0,0,5.57-16.18c4.77,1.3,9.58-1.67,14.49-2.32,6.31-.83,12.64,2.34,17,6.94s7.15,10.51,9.56,16.41a216.34,216.34,0,0,1,16,86l-1.73,7a25.5,25.5,0,0,1-5.42,9.58,2.88,2.88,0,0,1-.82.7,2.59,2.59,0,0,1-1.46.15,9.25,9.25,0,0,1-7.63-6.36,1.83,1.83,0,0,0-.65-1.13,1.79,1.79,0,0,0-1.08-.09C1048.35,1660.3,1044.2,1658.31,1041.25,1655.34Zm19.49,146.54c-5.74-5.25-8-13.23-9.4-20.88a147.19,147.19,0,0,1-1.22-45.17l1.94-3.76c5.92,2.57,12.68,1.42,19.13,1.48a9.85,9.85,0,0,1,5.2,1.12,9.66,9.66,0,0,1,3,3.58,38.77,38.77,0,0,1,2.85,6.46l1.42,7.58c1.11,6.1,2.21,12.49.35,18.41a38.75,38.75,0,0,1-2.83,6.31q-7.1,13.52-14.18,27Zm50.16,27.56c-.79,2.6-2,5-2.84,7.64-4.6,14.27,2.7,30.44-2.27,44.59l-3.07-2.08c-10.32-18.7-20.72-37.62-26.45-58.2l-1.65-12.62c1.39-5.86,4.22-11.26,7-16.59l8.64-16.44c6.41,5,8.52,13.6,11.13,21.31a107.5,107.5,0,0,0,8.08,18.15l3,4.44A50.53,50.53,0,0,1,1110.9,1829.44Zm-25.19,470.2c.82,6.49,1.19,13.84-3.12,18.76s-11.92,5.53-18.57,6.45-14.31,3.71-15.89,10.23c-.66,2.73-.08,5.61-.54,8.37-1.45,8.75-12,12.5-20.92,12.7-6.78.15-14-1-19.07-5.5-6.73-6.09-7.47-16.55-5.31-25.36s6.65-16.92,8.8-25.74c2.7-11.05,1.59-22.62.46-33.94l-5.15-51.76,1.38-7.92c3.48-1.46,7.2-2.94,10.91-2.3a17.77,17.77,0,0,1,4.84,1.79c2.5,1.24,4.94,2.61,7.3,4.09a29.66,29.66,0,0,0,5.73,3.15c2.68,1,5.57,1,8.38,1.33a33.8,33.8,0,0,1,15.31,6l8.78,4.73,4.32,19.11A311.23,311.23,0,0,1,1085.71,2299.64Z"></path>
    <path data-name="5a" data-official="" data-plain="Section of seed-vessel" data-loc="" d="M915.85,2588.52c6.07-7.17,12.55-16.06,9.95-25.09-2.08-7.25-9.26-11.57-14.45-17-12.43-13.14-12.91-35.43-2-49.87s31.45-20.24,48.72-14.85c6.21,1.94,12.18,5.31,16.05,10.55,3.47,4.7,5,10.56,5.69,16.36a63.52,63.52,0,0,1-7.34,37.53c-1.86,3.41-4.06,6.69-5.1,10.43a18.56,18.56,0,0,0,6.43,19.22c7.89,6,20.74,5.82,25.23,14.68a14.59,14.59,0,0,1,1.29,8.12c-.92,8.39-7.55,15.32-15.25,18.79s-16.36,4-24.8,4.08c-9.44.07-19-.44-28-3.5s-17.22-9-21.42-17.41Z"></path>
    <path data-name="6" data-official="Lopezia coronata" data-plain="" data-loc="" d="M1113.76,2610.74a44.81,44.81,0,0,1-15-30.81c-.58-10.48,2.57-20.77,4.11-31.15,2.09-14.09,1.26-28.6,4.67-42.43,2.58-10.49,7.53-20.23,12.43-29.87,5.28-10.38,10.77-21,19.52-28.72,7.53-6.62,17-10.61,26.69-13.32a124.34,124.34,0,0,1,59.94-1.69,68.67,68.67,0,0,1,19,6.78c7.17,4,13.18,9.82,18.65,15.95,11.3,12.64,20.91,27.57,23.42,44.34s-3.42,35.55-17.64,44.78c-7.32,4.75-16.28,6.75-23.13,12.16-8.69,6.86-12.65,18.1-14.71,29-1.15,6.09-2.35,13.07-7.62,16.35a18.25,18.25,0,0,1-7.26,2.18,70.54,70.54,0,0,1-18.19,0c-5.18-.67-10.29-1.91-15.51-2s-10.71,1.06-14.56,4.59c-4.2,3.85-5.78,9.87-9.77,14s-10.18,5.78-16,6.39a65.1,65.1,0,0,1-29.74-3.92Z"></path>
</svg>
