
<svg xmlns="http://www.w3.org/2000/svg" viewBox="0 0 2245 2985" id="illustration" preserveAspectRatio="xMidYMid meet">
    <title>Mesembryaceæ</title>
    <path data-name="1" data-official="Mesembryanthemum minutum" data-plain="Tiny Fig-Marigold" data-loc="Cape of Good Hope" d="M658.57,2280.64l.21.17-.54.15ZM1084,2577.55a84.76,84.76,0,0,1-23.23,13.44c-10.86,4.15-22.45,6-33.94,7.83-50.81,8.09-101.69,16.19-153,20.27-60.07,4.77-120.43,4-180.68,3.21-46.5-.61-95.08-1.73-136-23.85l-13-9.79a279,279,0,0,1-107-13.62c-7.55-2.52-15.27-5.41-23.22-4.92-4.66.29-9.18,1.74-13.82,2.27-12.58,1.43-24.9-3.89-37.51-5.08-10-.94-20,.71-30,.53-14.18-.24-28-4.13-41.65-8-53.63-15.16-107.86-30.57-156.29-58.14-21.4-12.18-42.77-28.34-50.06-51.86C81,2438.4,81,2425.57,74.39,2415.53c-7.35-11.21-21-16.25-31.34-24.78-8-6.57-13.94-15.24-18.91-24.3-8.7-15.89-14.64-33.82-13.54-51.91s10.11-36.27,25.76-45.42c12.81-7.49,28.93-8.59,40.65-17.69,30.42-23.63,10.74-81.1,41.47-104.32l10.16-5.88c5.56-2.89,12.05-3.24,18.32-3.53l17.91-.82.16-1.19a83.31,83.31,0,0,0-11.1-8.8,48.72,48.72,0,0,1,21.27,2.18,29.28,29.28,0,0,0-8.19-12.31c-1.46-1.3-3.1-2.53-3.87-4.32s-.18-4.35,1.71-4.86a4.86,4.86,0,0,1,2.8.36,84.73,84.73,0,0,1,21.35,10.9q-8.4-15.37-15.24-31.52c15.5,4.14,26.63,17.53,35.46,30.92q4.28,6.48,8.18,13.2c-.4-15.62-6.2-31.22-3.23-46.56.86-4.48,2.47-8.9,2.22-13.45a63.83,63.83,0,0,1,19.06,44.86c0,2.65.14,5.84,2.45,7.13a111.44,111.44,0,0,1,14.35-33.26l1.1.33a34.34,34.34,0,0,1,3.51,20.65c-1,6.62-3.83,13.43-1.63,19.75a2.22,2.22,0,0,0,1.31,1.59,2.15,2.15,0,0,0,1.83-.71c2.38-2.08,3.55-5.17,4.8-8.07,4.29-10,11.37-19.95,21.94-22.47q-4.58,14.42-9.14,28.83c12.54-7.84,25.55-15.85,40.18-18v1.63c-2,4-5.4,7.13-8.76,10.11l-19.86,17.62c11.47-3.2,23.16-6.43,35.06-6a58.79,58.79,0,0,1,27.94,8.31l-1.09.48c-1.79,1.2-4.1,1.25-6.26,1.15s-4.4-.28-6.39.57-3.56,3.13-2.79,5.15c-3-1-6,1.28-8.29,3.43-2.9,2.71-5.9,5.77-6.5,9.7,9.46,1.35,18.07,6.05,26.43,10.67a35,35,0,0,1,8.07,5.5c-5.25,2.48-11.42,2-17.06.68s-11.05-3.62-16.74-4.72l.46,1.62c1.94-.13,4.1-.19,5.57,1.09s1.12,4.36-.82,4.5a48.23,48.23,0,0,1,15.13,42.59c-6.68-9.95-14.66-20.25-26.2-23.45a44.9,44.9,0,0,1,4.46,25.61A47.09,47.09,0,0,0,302,2206.13c3,10.21,5.92,21.69.9,31.08a28.23,28.23,0,0,0-7.29-7.61l-1.17-.93a34.07,34.07,0,0,1-.69,13.56q-8.4-11.52-16.79-23c.32,3.88.62,7.86.56,11.77l.28,2c6.79,3.05,10.19,11.09,10,18.53s-3.28,14.46-6.3,21.26a79.37,79.37,0,0,1,61.37-2.3A74.67,74.67,0,0,0,321,2253.52c13.19-3.48,27,1.89,39.21,8a30.21,30.21,0,0,0-12-12.24c13.88-1.43,28.11,8,32.25,21.28l1-.28a26.74,26.74,0,0,1,15.88-10.18,44.34,44.34,0,0,1-2.93-20.48,23.05,23.05,0,0,1,3.29-10.64,24.69,24.69,0,0,1,6.74-6.42,58.67,58.67,0,0,1,15.28-7.6l-36.44,1.67c-5,.22-10,.44-14.83-.66a51.22,51.22,0,0,1,17.35-8.3l-.81-1.28a10.76,10.76,0,0,1-5.19-1.06c-1.53-.9-2.58-2.91-1.81-4.52a4.77,4.77,0,0,1,2.54-2.05c3.63-1.58,7.67-1.88,11.63-2a120.72,120.72,0,0,1,21.48,1.47,12.82,12.82,0,0,0-3.61-7.89c-2.65-2.69-6.4-4.12-8.91-6.94-3.15-3.52-3.8-8.55-4.32-13.24l14.51,6.62-2.7-13a119.52,119.52,0,0,0,12.73,5.12c1.1.37,2.59.59,3.18-.41a2.59,2.59,0,0,0,0-1.92,69.17,69.17,0,0,0-5.5-14.38,46.12,46.12,0,0,1,21.08,5.84,29.22,29.22,0,0,1,4.13-16.55,38.37,38.37,0,0,1,13.25,22.33l.95-.29c3-11.07,6.26-22.74,14.59-30.59a52.13,52.13,0,0,1-.08,21.65c-1.08,5-2.8,10.55,0,14.81a104.58,104.58,0,0,1,20.39-28.33c5.17,5.76,4.82,14.65,2.47,22s-6.37,14.24-7.71,21.86c5.74-6.91,11.52-13.87,18.39-19.66s15-10.41,23.83-11.91l.92,1.14c-.22,8-6.87,14.07-13,19.17l-16.78,13.93c6-1.89,11.66-4.88,17.52-7.24s12.19-4.12,18.46-3.35,12.49,4.54,14.69,10.47c-6.34,4.6-14.86,4.15-22.7,4.12s-16.72,1.11-21.33,7.44a69.82,69.82,0,0,1,18.77.42,33.22,33.22,0,0,1,13,4.42c3.86,2.49,7,6.43,7.64,11-11.6,5.06-25.51-5.79-37.29-1.15,7.42,3.27,14.92,6.71,21,12.08s10.64,13,10.43,21.11l-.2.17a58.3,58.3,0,0,1-25.28-13.44c-5.65-5.13-10.54-11.55-17.66-14.27,4.74,5.85,9.14,12.09,11.85,19.12s3.66,14.93,1.43,22.12c-5.5-9.14-8.3-20.47-16.84-26.87a264.21,264.21,0,0,0,11.1,31.76,5.86,5.86,0,0,1,4.42-1.57q0,9.38,0,18.75a21.26,21.26,0,0,1,19.75,4.77c6.25,5.75,9.08,15.31,16.86,18.72l.48-.4q-.82-10.87-1.66-21.76l-.63-8.1a70.24,70.24,0,0,0-1.77-12.77c3.8.75,6.53,4,8.94,7l7.14,9a46.71,46.71,0,0,1,5.49,8c2.67,5.37,3.19,11.6,5.92,16.93l1.28-.25q1.36-21,2.74-42c7,11.49,14.25,23.81,14,37.26a82.37,82.37,0,0,0,16.82-19.23,35.1,35.1,0,0,0-1.56,16.27c.52,3.68,1.63,7.29,1.76,11,.22,6.16-2.24,12.06-4.66,17.73a45.16,45.16,0,0,0,15.55-17.61,9.13,9.13,0,0,1,4.79,1.74A44.14,44.14,0,0,1,633.72,2294c.7-.55,1.65-1.11,2.42-.66a2.21,2.21,0,0,1,.87,1.52,23.82,23.82,0,0,1-3.9,19.22,64.06,64.06,0,0,1,26.5-13.24l.59,1.68a32,32,0,0,1-9.1,21.69,51.21,51.21,0,0,1,28.08-2.18,79.72,79.72,0,0,1-26.57,26.42c7.68-1.34,15.42-2.68,23.21-2.4s15.72,2.29,21.88,7.07a40.07,40.07,0,0,1-22,8.64l1.5.22a38.24,38.24,0,0,1,19.46,19.52c-5.92-3.09-13-2.34-19.69-2.47-7.91-.15-15.72-1.66-23.49-3.16l-.92,1.26c13.17,5.33,19.73,20,30.71,29,.46-3.29,4.09-5.19,7.39-5.54s6.71.3,9.94-.47l1-.86a34.81,34.81,0,0,1,42.26-25.32,14.07,14.07,0,0,1,10.63-4.48c-.54-2.63.21-5.33.46-8s-.17-5.73-2.34-7.32a40,40,0,0,1-7.59,6.45,79.56,79.56,0,0,1-1.76-18.79c.1-3.74.35-7.83-1.87-10.84l-.3,1-7,6.79c-5.23,5-11,10.36-18.26,11.11a39.56,39.56,0,0,0,5.76-19.38,5.09,5.09,0,0,1,.3-1.94,4.63,4.63,0,0,1,1.38-1.58l.05-.22c-.67-1.09-1.33-2.19-2-3.29-11.45,6.58-23.84,13.39-37,12.28-.54-7,4.62-13.24,10.4-17.26s12.47-6.7,17.71-11.4c-8.14,1.7-16.39,3.41-24.7,3.09s-16.84-2.88-22.8-8.68a111.89,111.89,0,0,1,21.39-10.05,41,41,0,0,0-11.28-3.2,42.67,42.67,0,0,1-5.64-.87c-4-1.08-7.33-3.84-10.5-6.55l22.83-6.29c-10.22-7.07-25.71-4.74-34-14l4.74-3.18a2.41,2.41,0,0,0,1.1-1.22,3.53,3.53,0,0,0-.19-1.5c-.34-1.68.63-3.34,1.7-4.68a23.84,23.84,0,0,1,25.29-7.59c4.69,1.52,8.76,4.47,12.93,7.1a104.39,104.39,0,0,0,18.55,9.21q-11-11-21.91-22.09c-2.71-2.74-5.46-5.52-7.24-8.94a1.89,1.89,0,0,1-.28-1.5c.26-.65,1.08-.84,1.78-.9a38.78,38.78,0,0,1,12.2.76l.84-1.86c-2.89-3.43-6-7.48-5.27-11.91a2.55,2.55,0,0,1,.82-1.69,3,3,0,0,1,2.13-.35,28.88,28.88,0,0,1,11.81,4,13.62,13.62,0,0,1,4.52-17.43l-5.86-1.57a31.85,31.85,0,0,1,.73-8.54l18.11,13.67a34.78,34.78,0,0,0-6.78-20.21c7.43,3.21,15.45,7,19,14.19,1.54,3.09,2.35,6.89,5.28,8.73a216.4,216.4,0,0,1,.45-30.45c7.7,10.12,9.7,23.59,16.85,34.1l4-10.83c2.68-7.16,6.2-15.17,13.45-17.59l-.39,1.25a151.73,151.73,0,0,0-2,26.16,62.3,62.3,0,0,0,20.08-20.26q1.23,5.65,2.47,11.32a9.78,9.78,0,0,1,6.86-5,28.82,28.82,0,0,1,8.75-.17,1.59,1.59,0,0,1,1.79,2c-.58,12.07-5.93,23.33-11.19,34.21,5.53-5.29,11.11-10.62,17.64-14.62s14.14-6.61,21.76-5.91l-1.06.76c0,3.86-3,7-5.83,9.6l-24.2,22.76c17.65-3.67,34.79-13.43,52.58-10.47l-25.38,18.66a322.72,322.72,0,0,1,46.51-10,5.58,5.58,0,0,1,2.93.13,1.93,1.93,0,0,1,1.15,2.4,2.63,2.63,0,0,1-1.28,1.06,36.64,36.64,0,0,1-9.1,3.21,2,2,0,0,1,1.75,2.17,5.09,5.09,0,0,1-2.16,3,87.23,87.23,0,0,1-19.53,12.3l7.88,6.06,1.35-.17a17.15,17.15,0,0,1,14.16,8.32,31.71,31.71,0,0,0-15.79,8.17l.61.93c16.78-1.1,31.78,12.86,48.58,11.89l-.34,1.45a76.85,76.85,0,0,1-45.35,9.27,19.23,19.23,0,0,1,7.82,15.75,58.7,58.7,0,0,1-29.84-8.23c.19,3.56,2.95,6.41,5.74,8.62s5.93,4.27,7.47,7.48c1.35,2.8,1.38,6.28,3.48,8.58,1.85,2,4.77,2.53,7.29,3.6a16.63,16.63,0,0,1,9.86,15.73l7.58-.63c3.64,4,10.35.76,13.86-3.33s7-9.41,12.36-9.58c8.14-.26,11.64,11.08,19.28,13.89,2.65,1,5.58.81,8.3,1.55,11.5,3.18,12.65,18.66,12.85,30.58.28,15.86,3.82,33,15.82,43.36,5.49,4.74,12.35,7.66,19.34,9.59,24.86,6.85,55.21,3.32,72.42,22.53,17.75,19.81,10.35,52.37,24.36,75,2.78,4.48,6.45,8.7,7.24,13.91C1096.19,2565.14,1090.24,2572.42,1084,2577.55Zm-670-335.27c-2.51,4.24-5.08,8.55-8.74,11.85a20,20,0,0,0-2.91,2.83c-1.38,1.86-1.78,4.26-2.13,6.56a.58.58,0,0,0,0,.32c.11.32.56.3.9.23a35.32,35.32,0,0,1,11.23-.82l1.22-1Q414,2252.26,413.92,2242.28Zm21.84,24.83a108.91,108.91,0,0,1-2.84-28.22,56.53,56.53,0,0,0-8.2,9.5c-2.73,4.32-4.24,9.27-5.72,14.16l1.35.31Q428.12,2264.74,435.76,2267.11ZM544.36,2321c-6-3-12.77-3.65-19.42-4s-13.42-.54-19.75-2.64-12.27-6.51-14.36-12.83l-.19-2.34a31.48,31.48,0,0,0-13.75-21.61,57.32,57.32,0,0,1,12.62-.71,163.1,163.1,0,0,0-16.31-29.57,7.58,7.58,0,0,0-2.44-2.53,10.08,10.08,0,0,0-3.51-.77,17.2,17.2,0,0,1-7.75-3.05,102.19,102.19,0,0,1-4,16.19c-1.29,3.84-3.05,7.89-6.57,9.9l1,1.92c1.23-.48,2.24,1.47,1.54,2.59s-2.18,1.43-3.49,1.62c-2.18.32-4.38.55-6.57.79l10.21,3.93-9.92,3.15a64.45,64.45,0,0,1,26.38,9c1,.61,2.13,1.57,1.86,2.72a21.66,21.66,0,0,0-13.59,3.73,26.19,26.19,0,0,1,17.21,19.32,65.33,65.33,0,0,0-24.89-.17c9.09,3.72,19,8.25,22.89,17.27a5.17,5.17,0,0,0,1.74,2.6,7.39,7.39,0,0,0,2.25.58c2.69.59,4.53,3,6,5.35a73,73,0,0,1,7.2,15.11,6.92,6.92,0,0,0,1.13,2.35,5,5,0,0,0,2.18,1.38c4.13,1.49,8.69.23,12.9-1l23.16-7a42,42,0,0,1-22.84-4.94c1.23-1.39,3.22-1.73,5.06-2l21.61-3c-13.62-5.14-30.19-.92-42.34-8.92q7.94-3.8,16-7.43c4.61-2.09,9.61-4.19,14.58-3.25,1.42.27,2.79.78,4.22,1a18.91,18.91,0,0,0,5.14-.32Z"></path>
    <path data-name="2" data-official="Mesembryanthemum depressum" data-plain="Depressed-leaved Fig-Marigold" data-loc="Cape of Good Hope" d="M658.57,2280.64l.21.17-.54.15Zm-244.65-38.36c-2.51,4.24-5.08,8.55-8.74,11.85a20,20,0,0,0-2.91,2.83c-1.38,1.86-1.78,4.26-2.13,6.56a.58.58,0,0,0,0,.32c.11.32.56.3.9.23a35.32,35.32,0,0,1,11.23-.82l1.22-1Q414,2252.26,413.92,2242.28Zm21.84,24.83a108.91,108.91,0,0,1-2.84-28.22,56.53,56.53,0,0,0-8.2,9.5c-2.73,4.32-4.24,9.27-5.72,14.16l1.35.31Q428.12,2264.74,435.76,2267.11ZM544.36,2321c-6-3-12.77-3.65-19.42-4s-13.42-.54-19.75-2.64-12.27-6.51-14.36-12.83l-.19-2.34a31.48,31.48,0,0,0-13.75-21.61,57.32,57.32,0,0,1,12.62-.71,163.1,163.1,0,0,0-16.31-29.57,7.58,7.58,0,0,0-2.44-2.53,10.08,10.08,0,0,0-3.51-.77,17.2,17.2,0,0,1-7.75-3.05,102.19,102.19,0,0,1-4,16.19c-1.29,3.84-3.05,7.89-6.57,9.9l1,1.92c1.23-.48,2.24,1.47,1.54,2.59s-2.18,1.43-3.49,1.62c-2.18.32-4.38.55-6.57.79l10.21,3.93-9.92,3.15a64.45,64.45,0,0,1,26.38,9c1,.61,2.13,1.57,1.86,2.72a21.66,21.66,0,0,0-13.59,3.73,26.19,26.19,0,0,1,17.21,19.32,65.33,65.33,0,0,0-24.89-.17c9.09,3.72,19,8.25,22.89,17.27a5.17,5.17,0,0,0,1.74,2.6,7.39,7.39,0,0,0,2.25.58c2.69.59,4.53,3,6,5.35a73,73,0,0,1,7.2,15.11,6.92,6.92,0,0,0,1.13,2.35,5,5,0,0,0,2.18,1.38c4.13,1.49,8.69.23,12.9-1l23.16-7a42,42,0,0,1-22.84-4.94c1.23-1.39,3.22-1.73,5.06-2l21.61-3c-13.62-5.14-30.19-.92-42.34-8.92q7.94-3.8,16-7.43c4.61-2.09,9.61-4.19,14.58-3.25,1.42.27,2.79.78,4.22,1a18.91,18.91,0,0,0,5.14-.32Zm770.78-46.37c-5.06-13.62-15-24.92-25.92-34.48A170.45,170.45,0,0,0,1258.9,2219c-16.11-8.81-33.74-15.06-48.39-26.12-6.44-4.85-12.56-11.25-13.48-19.26-1.18-10.36,6.54-19.39,13.74-26.94l39.78-41.77,7.89-6.86a57.78,57.78,0,0,0,15.19-13.28c7.47-9.3,12.21-21.07,21.79-28.19,3.43-2.55,7.48-4.51,9.92-8,4.17-6,2.33-14.45,5.58-21l-4.54-6.49a76.89,76.89,0,0,0-.79-29.31,37.58,37.58,0,0,1-1.24-7.19c-.08-3.49,1-7,.11-10.42a9.09,9.09,0,0,0-5.9-6.14l-11.72.5-37.5,3.68c-6.72.67-13.46,1.33-20.1,2.62a201.75,201.75,0,0,0-25.2,7.14c-22.68,7.56-45.18,15.64-67.67,23.72-5.74,2.06-11.54,4.15-16.69,7.43-3.65,2.33-6.9,5.22-10.43,7.73a59.55,59.55,0,0,1-22.79,9.78c-4.18.83-8.75,1.33-11.88,4.22l-1-.36c-.23-13.35.83-27,5.79-39.37s14.26-23.52,26.73-28.3c3.33-1.27,6.82-2.07,10.2-3.2a56.59,56.59,0,0,0,27.11-19.48l0-5.79q-.66-5.85-1.31-11.69a26.71,26.71,0,0,0-.62-3.89c-1-4-3.79-7.31-6.46-10.46l-5.23-8.51c-6.59-4.86-14.71-7-22.43-9.77a147,147,0,0,1-26.81-12.69l-10.16-5.66c-19.49,3.16-38,10.53-57.27,15a195.5,195.5,0,0,1-98.81-3c-8.73-2.58-17.3-5.78-26.25-7.42-15-2.75-30.49-1-45.68.75a30,30,0,0,0,5-14l-4.49-8.59c0-5.35,1.61-10.56,3.15-15.69a40.88,40.88,0,0,1,2.22-6.17,35.43,35.43,0,0,1,7.11-9.25,124.26,124.26,0,0,1,15.65-13.33l4.72-5.44c4.39-3.77,10-6.21,13.49-10.82l1.35-7.31c1.28-1.71,2.57-3.41,3.86-5.12l3.91-5.21c1.2-1.59,2.48-3.25,4.33-4l10-11a30.76,30.76,0,0,1,6.75-5.36,15.48,15.48,0,0,1,7.18-1.75l8.83.25q3.24,3.87,6.47,7.73c1.08,1.3,2.17,2.6,3.12,4s1.65,2.66,2.6,3.91a31.85,31.85,0,0,0,4.84,4.73l8.35,7.09,4,1.77c3.9.37,8.26-.6,10.61-3.74s2.13-7.11,1.9-10.86l-3.86-4.33c-2.27-.63-5,.38-6.89-1a6.57,6.57,0,0,1-2-3.11l-2.07-5.19c-1-2.67-2.2-5.47-4.46-7.25s-6-2-7.74.21a4.33,4.33,0,0,1,2-5.23,1.86,1.86,0,0,0,.83-.59,1.56,1.56,0,0,0,.06-1c-1-5.76-.77-12.31,3.17-16.64l3.83-2.42a170.49,170.49,0,0,0,27.79-15.33c2.46-1.68,5.09-3.76,5.43-6.72A10.27,10.27,0,0,0,993,1700a9.06,9.06,0,0,0-1.68-3.54c-2-2.28-5.59-2-8.64-2.07-6.89-.14-13.47-2.91-20.33-3.53-2.66-.24-5.35-.15-8-.51a13.1,13.1,0,0,1-7.29-3A18.11,18.11,0,0,1,944,1683a41.13,41.13,0,0,1-4.5-9.79c-.32-1.23-.58-2.6-1.55-3.42a5.25,5.25,0,0,0-3.21-.93,63.37,63.37,0,0,0-15,1l-6.85,1.91c-7.82.32-13.88,7.46-21.61,8.68a46.39,46.39,0,0,1-7.08.19,41.67,41.67,0,0,0-30.8,14.17c-1.81,2.1-3.44,4.4-5.6,6.13s-5.07,2.84-7.74,2.08l-7,.06-13.42-1a3.13,3.13,0,0,1-1.66-.45c-1.08-.82-.65-2.48-.55-3.83a8.37,8.37,0,0,0-2.94-6.53,24.71,24.71,0,0,0-6.3-3.85l-7.94-3.83-11.72-4a25.58,25.58,0,0,0-14.21-2.51l-8.72,1.23c-4,5-8.15,10.12-13.67,13.39-3.59,2.12-7.67,3.41-11,5.95a11.6,11.6,0,0,1-2.63,1.78c-2,.79-4.25,0-6.26-.73a46.18,46.18,0,0,0,.54-9.32,6,6,0,0,1,.3-2.81,6.89,6.89,0,0,1,1.33-1.68c2.79-3,4.32-7.55,2.54-11.22l-5-4.88c-1.12-2.42-1.25-5.24-2.59-7.54-2.06-3.53-6.45-5-10.52-5.29s-8.23.18-12.2-.77c-8.36-2-14.15-9.91-22.28-12.68-3.62-1.24-7.55-1.39-11.15-2.67-6.48-2.29-11.53-8.06-18.31-9.21-5.49-.93-11,1.4-15.84,4.18s-9.49,6.11-14.9,7.48l-4.37.08a8.56,8.56,0,0,1-4.91-.2,11.16,11.16,0,0,0-2.31-.76,6.74,6.74,0,0,0-2.73.4c-1.87.54-3.72,1.12-5.57,1.73-3.23,1.07-6.63,2.39-8.59,5.17l-4.29,1.91c-3.9,1.84-9-.31-12.56,2.18-.87.62-1.56,1.48-2.42,2.11-1.1.79-2.49,1.23-3.3,2.32l-3.69.09c-2.38.15-4.9.34-6.85,1.72-.46.33-.87.72-1.35,1a9.22,9.22,0,0,1-1.56.73l-3.34,1.3-5.36,1.2c-3.86.55-7.72-.66-11.51-1.61s-7.9-1.62-11.48-.06a2.51,2.51,0,0,0-1.23.93,2.89,2.89,0,0,0,.08,2.37c.31.95.63,1.9.94,2.85s.45,2.49-.58,2.79a1.89,1.89,0,0,1-1.38-.32c-3.22-1.82-5.32-5.22-8.54-7-2.7-1.52-5.93-1.77-9-1.74-1.25,0-2.65.13-3.48,1.07a4.69,4.69,0,0,0-.87,2.78,25.61,25.61,0,0,0,.06,7.72,8.74,8.74,0,0,0,4.29,6.13l2.63,3.53c4.34,3.54,7.12,8.73,8.57,14.14a61.78,61.78,0,0,1,1.61,16.68,136,136,0,0,0-14.18-11.77,45.82,45.82,0,0,0-16.7-7.51l-5.77,1.32A147.29,147.29,0,0,1,460,1697.4c-2.58,0-5.3-.06-7.54,1.22-2.94,1.68-4.25,5.16-5.38,8.35a398.94,398.94,0,0,1-19.82,46.39,44.22,44.22,0,0,1-5.33,8.7l-6.26,8.42a98.48,98.48,0,0,1-8.77,12.28,14.79,14.79,0,0,0-2.49,3.36c-1.64,3.55.24,7.89-1,11.59-1.54,4.46-7,6.39-9.17,10.59-1.55,3-1.13,6.8-2.76,9.79l3.52,3.67a124.89,124.89,0,0,0,13.12,3.88l4,1.39a24.24,24.24,0,0,1,9.5,2c-4.43,2.37-4.83,8.68-8.31,12.31a34.73,34.73,0,0,0-3.32,3.21c-.9,1.26-1.2,3.18-.08,4.24a4.17,4.17,0,0,0,3,.81,28.71,28.71,0,0,0,10.62-2.25c1.75-.74,3.76-1.65,5.43-.76,1.9,1,2.05,3.83,1,5.7s-2.93,3.11-4.52,4.55c-3,2.7-5.12,6.54-4.85,10.53l-2.85,6.68c-48.13,16.15-100.07,16.11-150.77,13.43l-10.33-2.92c-6.19-.55-12-3.61-16.71-7.62s-8.63-8.93-12.46-13.83a71.9,71.9,0,0,1-8-11.89,24.39,24.39,0,0,1-2.76-13.9l-9.27-7.16c-5.55-3.15-11.87-5.72-18.17-4.71a7.67,7.67,0,0,0-4.95,2.48c-1.25,1.6-1.37,3.79-1.31,5.82a48.45,48.45,0,0,0,.76,7.31l8.69,9.92a35.43,35.43,0,0,1,.68,16.51,48.68,48.68,0,0,1-13.35,25.74c-2.24,2.25-4.7,4.28-6.94,6.54-6.27,6.33-10.63,14.32-14.18,22.49l-5.21,11.16a92.29,92.29,0,0,1,10.46,34.07c.68,6.6.27,14.18-4.73,18.54-4.38,3.81-10.84,3.87-16.59,3-24.84-3.51-48.76-19.28-73.19-13.59a21.87,21.87,0,0,0-9.53,4.39c-6,5.25-6.69,14.28-6.37,22.27,2,48.9,25.17,96.59,62.46,128.29l12.68,10.81c5.56-2.89,12.05-3.24,18.32-3.53l17.91-.82.16-1.19a83.31,83.31,0,0,0-11.1-8.8,48.72,48.72,0,0,1,21.27,2.18,29.28,29.28,0,0,0-8.19-12.31c-1.46-1.3-3.1-2.53-3.87-4.32s-.18-4.35,1.71-4.86a4.86,4.86,0,0,1,2.8.36,84.73,84.73,0,0,1,21.35,10.9q-8.4-15.37-15.24-31.52c15.5,4.14,26.63,17.53,35.46,30.92q4.28,6.48,8.18,13.2c-.4-15.62-6.2-31.22-3.23-46.56.86-4.48,2.47-8.9,2.22-13.45a63.83,63.83,0,0,1,19.06,44.86c0,2.65.14,5.84,2.45,7.13a111.44,111.44,0,0,1,14.35-33.26l1.1.33a34.34,34.34,0,0,1,3.51,20.65c-1,6.62-3.83,13.43-1.63,19.75a2.22,2.22,0,0,0,1.31,1.59,2.15,2.15,0,0,0,1.83-.71c2.38-2.08,3.55-5.17,4.8-8.07,4.29-10,11.37-19.95,21.94-22.47q-4.58,14.42-9.14,28.83c12.54-7.84,25.55-15.85,40.18-18v1.63c-2,4-5.4,7.13-8.76,10.11l-19.86,17.62c11.47-3.2,23.16-6.43,35.06-6a58.79,58.79,0,0,1,27.94,8.31l-1.09.48c-1.79,1.2-4.1,1.25-6.26,1.15s-4.4-.28-6.39.57-3.56,3.13-2.79,5.15c-3-1-6,1.28-8.29,3.43-2.9,2.71-5.9,5.77-6.5,9.7,9.46,1.35,18.07,6.05,26.43,10.67a35,35,0,0,1,8.07,5.5c-5.25,2.48-11.42,2-17.06.68s-11.05-3.62-16.74-4.72l.46,1.62c1.94-.13,4.1-.19,5.57,1.09s1.12,4.36-.82,4.5a48.23,48.23,0,0,1,15.13,42.59c-6.68-9.95-14.66-20.25-26.2-23.45a44.9,44.9,0,0,1,4.46,25.61A47.09,47.09,0,0,0,302,2206.13c3,10.21,5.92,21.69.9,31.08a28.23,28.23,0,0,0-7.29-7.61l-1.17-.93a34.07,34.07,0,0,1-.69,13.56q-8.4-11.52-16.79-23c.32,3.88.62,7.86.56,11.77l.28,2c6.79,3.05,10.19,11.09,10,18.53s-3.28,14.46-6.3,21.26a79.37,79.37,0,0,1,61.37-2.3A74.67,74.67,0,0,0,321,2253.52c13.19-3.48,27,1.89,39.21,8a30.21,30.21,0,0,0-12-12.24c13.88-1.43,28.11,8,32.25,21.28l1-.28a26.74,26.74,0,0,1,15.88-10.18,44.34,44.34,0,0,1-2.93-20.48,23.05,23.05,0,0,1,3.29-10.64,24.69,24.69,0,0,1,6.74-6.42,58.67,58.67,0,0,1,15.28-7.6l-36.44,1.67c-5,.22-10,.44-14.83-.66a51.22,51.22,0,0,1,17.35-8.3l-.81-1.28a10.76,10.76,0,0,1-5.19-1.06c-1.53-.9-2.58-2.91-1.81-4.52a4.77,4.77,0,0,1,2.54-2.05c3.63-1.58,7.67-1.88,11.63-2a120.72,120.72,0,0,1,21.48,1.47,12.82,12.82,0,0,0-3.61-7.89c-2.65-2.69-6.4-4.12-8.91-6.94-3.15-3.52-3.8-8.55-4.32-13.24l14.51,6.62-2.7-13a119.52,119.52,0,0,0,12.73,5.12c1.1.37,2.59.59,3.18-.41a2.59,2.59,0,0,0,0-1.92,69.17,69.17,0,0,0-5.5-14.38,46.12,46.12,0,0,1,21.08,5.84,29.22,29.22,0,0,1,4.13-16.55,38.37,38.37,0,0,1,13.25,22.33l.95-.29c3-11.07,6.26-22.74,14.59-30.59a52.13,52.13,0,0,1-.08,21.65c-1.08,5-2.8,10.55,0,14.81a104.58,104.58,0,0,1,20.39-28.33c5.17,5.76,4.82,14.65,2.47,22s-6.37,14.24-7.71,21.86c5.74-6.91,11.52-13.87,18.39-19.66s15-10.41,23.83-11.91l.92,1.14c-.22,8-6.87,14.07-13,19.17l-16.78,13.93c6-1.89,11.66-4.88,17.52-7.24s12.19-4.12,18.46-3.35,12.49,4.54,14.69,10.47c-6.34,4.6-14.86,4.15-22.7,4.12s-16.72,1.11-21.33,7.44a69.82,69.82,0,0,1,18.77.42,33.22,33.22,0,0,1,13,4.42c3.86,2.49,7,6.43,7.64,11-11.6,5.06-25.51-5.79-37.29-1.15,7.42,3.27,14.92,6.71,21,12.08s10.64,13,10.43,21.11l-.2.17a58.3,58.3,0,0,1-25.28-13.44c-5.65-5.13-10.54-11.55-17.66-14.27,4.74,5.85,9.14,12.09,11.85,19.12s3.66,14.93,1.43,22.12c-5.5-9.14-8.3-20.47-16.84-26.87a264.21,264.21,0,0,0,11.1,31.76,5.86,5.86,0,0,1,4.42-1.57q0,9.38,0,18.75a21.26,21.26,0,0,1,19.75,4.77c6.25,5.75,9.08,15.31,16.86,18.72l.48-.4q-.82-10.87-1.66-21.76l-.63-8.1a70.24,70.24,0,0,0-1.77-12.77c3.8.75,6.53,4,8.94,7l7.14,9a46.71,46.71,0,0,1,5.49,8c2.67,5.37,3.19,11.6,5.92,16.93l1.28-.25q1.36-21,2.74-42c7,11.49,14.25,23.81,14,37.26a82.37,82.37,0,0,0,16.82-19.23,35.1,35.1,0,0,0-1.56,16.27c.52,3.68,1.63,7.29,1.76,11,.22,6.16-2.24,12.06-4.66,17.73a45.16,45.16,0,0,0,15.55-17.61,9.13,9.13,0,0,1,4.79,1.74A44.14,44.14,0,0,1,633.72,2294c.7-.55,1.65-1.11,2.42-.66a2.21,2.21,0,0,1,.87,1.52,23.82,23.82,0,0,1-3.9,19.22,64.06,64.06,0,0,1,26.5-13.24l.59,1.68a32,32,0,0,1-9.1,21.69,51.21,51.21,0,0,1,28.08-2.18,79.72,79.72,0,0,1-26.57,26.42c7.68-1.34,15.42-2.68,23.21-2.4s15.72,2.29,21.88,7.07a40.07,40.07,0,0,1-22,8.64l1.5.22a38.24,38.24,0,0,1,19.46,19.52c-5.92-3.09-13-2.34-19.69-2.47-7.91-.15-15.72-1.66-23.49-3.16l-.92,1.26c13.17,5.33,19.73,20,30.71,29,.46-3.29,4.09-5.19,7.39-5.54s6.71.3,9.94-.47l1-.86a34.81,34.81,0,0,1,42.26-25.32,14.07,14.07,0,0,1,10.63-4.48c-.54-2.63.21-5.33.46-8s-.17-5.73-2.34-7.32a40,40,0,0,1-7.59,6.45,79.56,79.56,0,0,1-1.76-18.79c.1-3.74.35-7.83-1.87-10.84l-.3,1-7,6.79c-5.23,5-11,10.36-18.26,11.11a39.56,39.56,0,0,0,5.76-19.38,5.09,5.09,0,0,1,.3-1.94,4.63,4.63,0,0,1,1.38-1.58l.05-.22c-.67-1.09-1.33-2.19-2-3.29-11.45,6.58-23.84,13.39-37,12.28-.54-7,4.62-13.24,10.4-17.26s12.47-6.7,17.71-11.4c-8.14,1.7-16.39,3.41-24.7,3.09s-16.84-2.88-22.8-8.68a111.89,111.89,0,0,1,21.39-10.05,41,41,0,0,0-11.28-3.2,42.67,42.67,0,0,1-5.64-.87c-4-1.08-7.33-3.84-10.5-6.55l22.83-6.29c-10.22-7.07-25.71-4.74-34-14l4.74-3.18a2.41,2.41,0,0,0,1.1-1.22,3.53,3.53,0,0,0-.19-1.5c-.34-1.68.63-3.34,1.7-4.68a23.84,23.84,0,0,1,25.29-7.59c4.69,1.52,8.76,4.47,12.93,7.1a104.39,104.39,0,0,0,18.55,9.21q-11-11-21.91-22.09c-2.71-2.74-5.46-5.52-7.24-8.94a1.89,1.89,0,0,1-.28-1.5c.26-.65,1.08-.84,1.78-.9a38.78,38.78,0,0,1,12.2.76l.84-1.86c-2.89-3.43-6-7.48-5.27-11.91a2.55,2.55,0,0,1,.82-1.69,3,3,0,0,1,2.13-.35,28.88,28.88,0,0,1,11.81,4,13.62,13.62,0,0,1,4.52-17.43l-5.86-1.57a31.85,31.85,0,0,1,.73-8.54l18.11,13.67a34.78,34.78,0,0,0-6.78-20.21c7.43,3.21,15.45,7,19,14.19,1.54,3.09,2.35,6.89,5.28,8.73a216.4,216.4,0,0,1,.45-30.45c7.7,10.12,9.7,23.59,16.85,34.1l4-10.83c2.68-7.16,6.2-15.17,13.45-17.59l-.39,1.25a151.73,151.73,0,0,0-2,26.16,62.3,62.3,0,0,0,20.08-20.26q1.23,5.65,2.47,11.32a9.78,9.78,0,0,1,6.86-5,28.82,28.82,0,0,1,8.75-.17,1.59,1.59,0,0,1,1.79,2c-.58,12.07-5.93,23.33-11.19,34.21,5.53-5.29,11.11-10.62,17.64-14.62s14.14-6.61,21.76-5.91l-1.06.76c0,3.86-3,7-5.83,9.6l-24.2,22.76c17.65-3.67,34.79-13.43,52.58-10.47l-25.38,18.66a322.72,322.72,0,0,1,46.51-10,5.58,5.58,0,0,1,2.93.13,1.93,1.93,0,0,1,1.15,2.4,2.63,2.63,0,0,1-1.28,1.06,36.64,36.64,0,0,1-9.1,3.21,2,2,0,0,1,1.75,2.17,5.09,5.09,0,0,1-2.16,3,87.23,87.23,0,0,1-19.53,12.3l7.88,6.06,1.35-.17a17.15,17.15,0,0,1,14.16,8.32,31.71,31.71,0,0,0-15.79,8.17l.61.93c16.78-1.1,31.78,12.86,48.58,11.89l-.34,1.45a76.85,76.85,0,0,1-45.35,9.27,19.23,19.23,0,0,1,7.82,15.75,58.7,58.7,0,0,1-29.84-8.23c.19,3.56,2.95,6.41,5.74,8.62s5.93,4.27,7.47,7.48c1.35,2.8,1.38,6.28,3.48,8.58,1.85,2,4.77,2.53,7.29,3.6a16.63,16.63,0,0,1,9.86,15.73l7.58-.63c3.64,4,10.35.76,13.86-3.33s7-9.41,12.36-9.58c8.14-.26,11.64,11.08,19.28,13.89,2.65,1,5.58.81,8.3,1.55l31.3,9.88,160.88-7c8.28-.37,18.45.34,22,7.8,1.58,3.27,1.38,7.11,2.35,10.61,3.15,11.45,16.76,15.83,28.35,18.39,8.64,1.9,19,3.36,25.21-2.89,5-5,5.2-12.93,7.06-19.79,5.43-19.94,25.92-31.69,45.48-38.38,16.63-5.68,35.33-10.26,45.61-24.51C1319.71,2304.48,1320.19,2288.21,1315.14,2274.59ZM826.32,1841a140.39,140.39,0,0,1-6.13,17.71,20.23,20.23,0,0,1-2.91,5.42A7.11,7.11,0,0,1,812,1867l-3.54,3.32c-3,1.45-6.47,1.77-9.82,2.06l-20.52,1.81-4.94-.38a22.73,22.73,0,0,1-6-2.42,7.75,7.75,0,0,1-3.66-5.18,2.51,2.51,0,0,0-.19-.87,2.16,2.16,0,0,0-1.23-.88L750.92,1860c-.14.67-.28,1.35-.43,2l-27.83-23.45v-.12c6.8,0,13.29,2.69,19.59,5.29l17,7a47.85,47.85,0,0,0,11.06,3.54,43.11,43.11,0,0,0,8.5.2c2.95-.15,5.9-.37,8.84-.64,3.33-.32,7.08-1,8.94-3.75a5.75,5.75,0,0,1-5.46-3.5,2.48,2.48,0,0,1-.21-1.51c.31-1.32,2-1.7,3.31-1.88a48.36,48.36,0,0,0,22.63-9.29l2.26.88a12.86,12.86,0,0,1,4.29.2,4.38,4.38,0,0,1,3.11,2.74A6.24,6.24,0,0,1,826.32,1841Z"></path>
    <path data-name="3" data-official="Mesembryanthemum micans" data-plain="Shining Fig-Marigold" data-loc="Cape of Good Hope" d="M826.32,1841a140.39,140.39,0,0,1-6.13,17.71,20.23,20.23,0,0,1-2.91,5.42A7.11,7.11,0,0,1,812,1867l-3.54,3.32c-3,1.45-6.47,1.77-9.82,2.06l-20.52,1.81-4.94-.38a22.73,22.73,0,0,1-6-2.42,7.75,7.75,0,0,1-3.66-5.18,2.51,2.51,0,0,0-.19-.87,2.16,2.16,0,0,0-1.23-.88L750.92,1860c-.14.67-.28,1.35-.43,2l-27.83-23.45v-.12c6.8,0,13.29,2.69,19.59,5.29l17,7a47.85,47.85,0,0,0,11.06,3.54,43.11,43.11,0,0,0,8.5.2c2.95-.15,5.9-.37,8.84-.64,3.33-.32,7.08-1,8.94-3.75a5.75,5.75,0,0,1-5.46-3.5,2.48,2.48,0,0,1-.21-1.51c.31-1.32,2-1.7,3.31-1.88a48.36,48.36,0,0,0,22.63-9.29l2.26.88a12.86,12.86,0,0,1,4.29.2,4.38,4.38,0,0,1,3.11,2.74A6.24,6.24,0,0,1,826.32,1841Zm-653.48,58.72c2.24-2.26,4.7-4.29,6.94-6.54a48.68,48.68,0,0,0,13.35-25.74,35.43,35.43,0,0,0-.68-16.51l-8.69-9.92-15.29,1.75c-11.29,7.43-24.94,10.06-38,13.46s-26.59,8.14-35.4,18.38c-6.39,7.42-10.23,17.59-18.93,22.06-4.24,2.17-9.11,2.67-13.64,4.12a34.19,34.19,0,0,0-22.64,25.59c-1.45,7.6.09,16.18,5.7,21.51,5.9,5.6,14.86,6.51,23,5.76,15.52-1.44,30.2-7.74,43.74-15.45s26.22-16.86,39.68-24.7ZM965,1787.33l-4-1.77-8.35-7.09a31.85,31.85,0,0,1-4.84-4.73c-1-1.25-1.72-2.62-2.6-3.91s-2-2.7-3.12-4q-3.24-3.86-6.47-7.73l-8.83-.25a15.48,15.48,0,0,0-7.18,1.75,30.76,30.76,0,0,0-6.75,5.36l-10,11c-1.85.76-3.13,2.42-4.33,4l-3.91,5.21c-1.29,1.71-2.58,3.41-3.86,5.12l-1.35,7.31c-3.49,4.61-9.1,7-13.49,10.82l-4.72,5.44a124.26,124.26,0,0,0-15.65,13.33,35.43,35.43,0,0,0-7.11,9.25,40.88,40.88,0,0,0-2.22,6.17c-1.54,5.13-3.1,10.34-3.15,15.69l4.49,8.59,6.46-.33c21.17-9,45.91-1.26,68.24-6.78,8.57-2.12,16.61-6.17,25.28-7.88,8.36-1.65,17-1.07,25.48-.49L1038,1856l21.91-2.89,45.12.73c12.88.2,26,.38,38.32-3.39,6.06-1.86,11.79-4.63,17.77-6.69s12.41-3.42,18.64-2.3l7.63-4.42c5.64-1.64,10.31-5.74,13.65-10.58s5.45-10.38,7.34-15.94c2.15-6.31,4.06-12.83,4-19.49-.17-16-12.32-30.33-27.17-36.41l-9.22,1.5c-10.3,3-21.33,2.8-31.82.65s-20.5-6.25-30.08-11l-5.19-1.93q5.17,10.34,10.41,20.63a3.9,3.9,0,0,0,3.39,2.6l28,6.6,3.92,3.5a77.75,77.75,0,0,1,10.75,29.11l.48,7.69a26.67,26.67,0,0,1-10.06,13,49.83,49.83,0,0,1-15.13,6.92,89.24,89.24,0,0,1-25.1,3.61c-4.08,0-8.14-.27-12.21-.55-4.42-.3-9-.64-12.94-2.68l-7.62-3.07c-4,3.33-9.91,2.8-15.09,2.1l-18.06-2.44c-7-1-14.17-2-20.35-5.36l-7.72-4a75.85,75.85,0,0,1-14.69-11.47c-7.44-7.47-13.75-16.81-23.54-20.73ZM1280,1685c-2.88-2.88-3-7.45-2.88-11.53l-4.5-2.2a34.15,34.15,0,0,0-14.08-6.87,16.76,16.76,0,0,1-4.5-1.36l-5.12-2c-3.66-.71-8.05-1.2-10.57,1.55-.6.66-1.17,1.54-2.07,1.59a3,3,0,0,1-1.49-.5c-4.81-2.51-10.63-1.22-16-1.68a2.48,2.48,0,0,1-1.79-.68,5.28,5.28,0,0,1-.6-1.58c-.7-1.86-3.08-2.3-5.06-2.45l-9.55-5.93a108,108,0,0,1-22.71-5.3l-9.22.22c-11.49,3.42-20.41,12.84-31.84,16.45-7,2.23-14.6,2.1-21.89,3.33-17,2.86-31.83,12.91-46,22.7a4.34,4.34,0,0,0-1.66,1.66c-.22.5-.24,1.07-.48,1.55-.57,1.19-2.06,1.49-3.33,1.82a15.93,15.93,0,0,0-7.49,4.42l-.69-1c-.73-1.78,0-3.79.72-5.57q3.12-7.74,6.26-15.48a1.83,1.83,0,0,1,.48-.79c.54-.43,1.34-.15,1.92.22a7.46,7.46,0,0,1,3.29,5.07,7.63,7.63,0,0,0-2.52-10.66l7-12c1.31-2.24,2.87-4.69,5.39-5.32l5.42-4.23c14.38-16.14,22.48-37.33,24.67-58.84s-1.27-43.33-8-63.89c-3.3-10.16-7.41-20.19-8.64-30.8a95.7,95.7,0,0,1,.29-20.3c.34-3.52.79-7.14,2.51-10.24,2.1-3.78,5.86-6.33,9.67-8.37a69,69,0,0,1,52.52-4.94l26.12-4.63c6.41-3.32,13.63-7.75,14.39-14.93.53-5-2.49-9.82-6.49-12.85s-8.9-4.57-13.69-6.06c-15-4.69-30.33-9.42-46-9l-9.77-.28q-12.66,0-25.29,1.07a24.12,24.12,0,0,0-7.82,1.55,21.33,21.33,0,0,0-6.91,5.5c-13.31,14.63-19.79,34-25.92,52.85l-4.67,6c-4,2-8.12,4.12-10.73,7.72a23.9,23.9,0,0,0-2.57,4.94c-1.33,3.22-2.47,6.65-2.23,10.13l2.43,8a14.84,14.84,0,0,1,.27,4.2,4.82,4.82,0,0,1-2.08,3.53,6.59,6.59,0,0,1-3.26.7c-7,.22-14.48-1-20.81,2-5.08,2.45-8.61,7.31-13.52,10.06l-2.13-9.37c.12-6.16-2.66-12-6.05-17.17-5-7.53-12.26-14.51-21.25-15.11l-4.4-6.8c-2.61-2.5-5.28-5-8.53-6.65-7.58-3.75-16.7-1.73-25-3.53l-10.09-.17a488,488,0,0,1-94.08,1c-14.16-1.23-29.51-2.82-41.58,4.67-7.48,4.63-12.86,12.34-20.83,16.06-10.22,4.77-22.2,2-33.1-.93-3-.79-6.24-1.78-7.87-4.4-1.38-2.23-1.2-5-.88-7.65,3.06-24.89,14.2-48,25.19-70.49,13.6-27.9,27.34-56,46.34-80.55,8-10.3,17.12-20.12,28.74-26,10.35-5.25,23.29-8,29-18.12,5.19-9.21,2.77-22.38,10.78-29.27,5.09-4.38,12.47-4.38,18.95-6.16s13.25-7.84,10.94-14.14c-.66-1.82-2-3.3-2.87-5-4.32-8.53,3.72-17.9,5.61-27.27,2.45-12.09-5.71-23.69-14.45-32.4-35.8-35.65-88.93-51.29-139.2-46.25-12.76,1.27-27.75,5.8-31.22,18.15s7,24.41,7.83,37.26l1.07,12.63c.92,2.84-1.34,5.83-4,7.18s-5.74,1.68-8.49,2.83c-10.32,4.31-12.58,18.66-8.39,29s12.74,18.23,19.32,27.26c4.27,5.86,7.86,13.29,5.53,20.15-1.85,5.45-7,9.09-12.3,11.43a4.87,4.87,0,0,1-2.92.59c-1.25-.26-2.1-1.39-2.85-2.43-5.86-8.22-13.51-16.81-23.6-17.2-9.77-.38-17.81,7-25.84,12.6s-19.83,9.34-26.9,2.59c-5.57-5.32-5-14.33-3-21.77,3.1-11.69,8.56-22.58,13.13-33.77,10.5-25.73,16.31-53.09,22.07-80.27,1.14-5.38,2.13-11.52-1.14-15.94-2.15-2.9-5.69-4.37-9.12-5.51a92.28,92.28,0,0,0-25.4-4.59c-6.78-.26-13.65.22-20.32-1s-13.36-4.68-16.56-10.67c-3.67-6.88-1.76-15.77,3-21.9s12-9.94,19.36-12.58c7.06-2.54,14.58-4.25,20.81-8.44s11-11.85,8.94-19.08c-1.78-6.39-8.19-10.42-14.56-12.26s-13.14-2.14-19.41-4.29a8.68,8.68,0,0,1-4.12-2.49c-2.29-2.9-.71-7.06.26-10.62,4.46-16.33-9.5-35-26.42-35.26-12-.22-22.69,7.16-32.11,14.59-2,1.56-4.07,3.19-6.57,3.5s-4.86-.73-7.18-1.63c-16.49-6.45-36.52-6.46-50.68,4.17-1.31,1-2.65,2.19-2.92,3.8-.24,1.44.41,2.86.49,4.31.28,5.26-6.14,7.75-11.08,9.57a47.68,47.68,0,0,0-29.15,32.11l-19-5.74c-32.48-9.88-66.5-13.35-100.28-16.77-48.17-4.89-100.11-9-141.85,15.54-13.1,7.71-24.52,17.92-35.85,28.06l-54.55,48.85c-6.07,5.45-12.2,10.94-17,17.56-10.23,14.2-13.35,32.58-11.81,50s7.38,34.18,13.72,50.49c7.55,19.43,16.5,39.37,32.83,52.33s37.64,17.12,58.3,18.64,41.65.76,61.84,5.38l7.45,26.58c-5.27,58.83,31.64,113.77,34.77,172.76l-12.14,17.68c-13.08,1.19-24.19,11.14-29.74,23s-6.33,25.48-5.58,38.59c.36,6.2.73,13.3-3.7,17.65-5.47,5.38-14.51,3.19-21.75.64l-23.86-8.39a8.43,8.43,0,0,0-4.43-.7c-2.1.43-3.53,2.38-4.56,4.28-5.49,10.1-5.61,22.16-5.59,33.66,0,10.73.05,21.63,3.18,31.89s9.87,20,19.79,24c4.73,1.94,9.92,2.52,14.7,4.33s9.44,5.4,10.27,10.44c.56,3.45-.75,6.9-2.13,10.1C193,1736.66,182,1754,181.08,1773.44c-.69,14.11,4.74,29,16.13,37.33s28.94,8.4,38.84-1.68c4-4.09,6.55-9.38,9.23-14.46a193.89,193.89,0,0,1,41.28-53c8.33-7.52,17.51-14.43,28.11-18.13s22.85-3.87,32.64,1.62a15.76,15.76,0,0,1,5.87,5.17c3.13,5.06,1.47,11.55.31,17.38-4.54,22.83.33,46.37.06,69.64,0,2.37-.13,4.85-1.28,6.92-2,3.61-6.48,4.93-10.54,5.67-10.3,1.86-20.83,2.08-31.3,2.29l-85,1.73-8.69,3.42a24.39,24.39,0,0,0,2.76,13.9,71.9,71.9,0,0,0,8,11.89c3.83,4.9,7.71,9.83,12.46,13.83s10.52,7.07,16.71,7.62l10.33,2.92c50.7,2.68,102.64,2.72,150.77-13.43l2.85-6.68c-.27-4,1.89-7.83,4.85-10.53,1.59-1.44,3.46-2.68,4.52-4.55s.91-4.69-1-5.7c-1.67-.89-3.68,0-5.43.76a28.71,28.71,0,0,1-10.62,2.25,4.17,4.17,0,0,1-3-.81c-1.12-1.06-.82-3,.08-4.24a34.73,34.73,0,0,1,3.32-3.21c3.48-3.63,3.88-9.94,8.31-12.31a24.24,24.24,0,0,0-9.5-2l-4-1.39a124.89,124.89,0,0,1-13.12-3.88l-3.52-3.67c1.63-3,1.21-6.76,2.76-9.79,2.15-4.2,7.63-6.13,9.17-10.59,1.28-3.7-.6-8,1-11.59a14.79,14.79,0,0,1,2.49-3.36,98.48,98.48,0,0,0,8.77-12.28l6.26-8.42a44.22,44.22,0,0,0,5.33-8.7A398.94,398.94,0,0,0,447.09,1707c1.13-3.19,2.44-6.67,5.38-8.35,2.24-1.28,5-1.23,7.54-1.22a147.29,147.29,0,0,0,24.19-1.88l5.77-1.32a45.82,45.82,0,0,1,16.7,7.51,136,136,0,0,1,14.18,11.77,61.78,61.78,0,0,0-1.61-16.68c-1.45-5.41-4.23-10.6-8.57-14.14l-2.63-3.53a8.74,8.74,0,0,1-4.29-6.13,25.61,25.61,0,0,1-.06-7.72,4.69,4.69,0,0,1,.87-2.78c.83-.94,2.23-1.06,3.48-1.07,3.1,0,6.33.22,9,1.74,3.22,1.82,5.32,5.22,8.54,7a1.89,1.89,0,0,0,1.38.32c1-.3.91-1.78.58-2.79s-.63-1.9-.94-2.85a2.89,2.89,0,0,1-.08-2.37,2.51,2.51,0,0,1,1.23-.93c3.58-1.56,7.7-.89,11.48.06s7.65,2.16,11.51,1.61l5.36-1.2,3.34-1.3A9.22,9.22,0,0,0,561,1660c.48-.3.89-.69,1.35-1,2-1.38,4.47-1.57,6.85-1.72l3.69-.09c.81-1.09,2.2-1.53,3.3-2.32.86-.63,1.55-1.49,2.42-2.11,3.52-2.49,8.66-.34,12.56-2.18l4.29-1.91c2-2.78,5.36-4.1,8.59-5.17,1.85-.61,3.7-1.19,5.57-1.73a6.74,6.74,0,0,1,2.73-.4,11.16,11.16,0,0,1,2.31.76,8.56,8.56,0,0,0,4.91.2l4.37-.08c5.41-1.37,10.06-4.7,14.9-7.48s10.35-5.11,15.84-4.18c6.78,1.15,11.83,6.92,18.31,9.21,3.6,1.28,7.53,1.43,11.15,2.67,8.13,2.77,13.92,10.68,22.28,12.68,4,.95,8.13.45,12.2.77s8.46,1.76,10.52,5.29c1.34,2.3,1.47,5.12,2.59,7.54l5,4.88c1.78,3.67.25,8.25-2.54,11.22a6.89,6.89,0,0,0-1.33,1.68,6,6,0,0,0-.3,2.81,46.18,46.18,0,0,1-.54,9.32c2,.76,4.26,1.52,6.26.73a11.6,11.6,0,0,0,2.63-1.78c3.31-2.54,7.39-3.83,11-5.95,5.52-3.27,9.65-8.38,13.67-13.39l8.72-1.23a25.58,25.58,0,0,1,14.21,2.51l11.72,4,7.94,3.83a24.71,24.71,0,0,1,6.3,3.85,8.37,8.37,0,0,1,2.94,6.53c-.1,1.35-.53,3,.55,3.83a3.13,3.13,0,0,0,1.66.45l13.42,1,7-.06c2.67.76,5.57-.35,7.74-2.08s3.79-4,5.6-6.13a41.67,41.67,0,0,1,30.8-14.17,46.39,46.39,0,0,0,7.08-.19c7.73-1.22,13.79-8.36,21.61-8.68l6.85-1.91a63.37,63.37,0,0,1,15-1,5.25,5.25,0,0,1,3.21.93c1,.82,1.23,2.19,1.55,3.42A41.13,41.13,0,0,0,944,1683a18.11,18.11,0,0,0,3.09,4.34,13.1,13.1,0,0,0,7.29,3c2.64.36,5.33.27,8,.51,6.86.62,13.44,3.39,20.33,3.53,3.05.07,6.6-.21,8.64,2.07A9.06,9.06,0,0,1,993,1700a10.27,10.27,0,0,1,.62,4.09c-.34,3-3,5-5.43,6.72a170.49,170.49,0,0,1-27.79,15.33l-3.83,2.42c-3.94,4.33-4.16,10.88-3.17,16.64a1.56,1.56,0,0,1-.06,1,1.86,1.86,0,0,1-.83.59,4.33,4.33,0,0,0-2,5.23c1.78-2.26,5.49-2,7.74-.21s3.41,4.58,4.46,7.25l2.07,5.19a6.57,6.57,0,0,0,2,3.11c1.91,1.36,4.62.35,6.89,1l3.86,4.33,2.73-3.69,11.28-3.39c2.36-.71,4.71-1.42,7-2.29,8.25-3.13,15.53-8.31,23.38-12.33s16.82-6.94,25.43-5a48.35,48.35,0,0,1,8.76,3.19l19.11,8.37,13.93-.82c-.11-4.55-4.34-7.89-5.77-12.21-.84-2.54-.68-5.39-1.92-7.76a14.71,14.71,0,0,0-3.9-4.2l-4.92-4.07-2.12-4.56a10.91,10.91,0,0,1-4.48-8l.65-5,31.18-6.63a3.16,3.16,0,0,1,.34-3.05,2.28,2.28,0,0,1,2.87-.63,13.28,13.28,0,0,0,1.29,1,2.89,2.89,0,0,0,1.46.14,56,56,0,0,0,12-2.3c4.93-1.52,10-3.74,15-2.86l7.25.09a89.07,89.07,0,0,0,12.29-3c4.63-1.56,9.05-3.75,13.79-4.93,9.95-2.47,20.4-.29,30.42,1.89l10.94-3.62c12.64-.4,25.75-.71,37.37,4.26l2.32,2.87a106.84,106.84,0,0,1,16,5.26l6.63-.58,6.18,1a2.92,2.92,0,0,0,1.58,0,3,3,0,0,0,1.42-1.77q2.13-4.87,4.21-9.78a3,3,0,0,0,.3-1.09C1281.49,1686.34,1280.64,1685.67,1280,1685Zm-231.6-19.47c-5.67-14.64-11.34-29.27-16.68-44-6.18-17.11-11.91-34.39-17.56-51.68a73.86,73.86,0,0,1-3.69-14.58l.33-7.44a8,8,0,0,1,5.57-3.29,20.55,20.55,0,0,0,3.24-.31c2.49-.71,3.87-3.39,6.1-4.72,3.45-2.06,8.11-.51,11.73-2.26l2.71,1.74,15.66,31.32c1.75,3.5,3.5,7,5.07,10.58a112,112,0,0,1,9.12,38.28l2.17,8.8c.46,6.07-1.19,12.15-3.82,17.64a94.11,94.11,0,0,1-9.89,15.31q-3.75,5-7.61,9.9Z"></path>
    <path data-name="3a" data-official="" data-plain="Section of Flower" data-loc="" d="M234.46,2739.44a466.06,466.06,0,0,0-50-92.44c-17.2-24.69-37.64-49.9-38.92-80-.25-6,.58-12.66,5-16.69,6.93-6.29,17.79-2.78,26.66.21,10.26,3.45,21.08,5.75,31.87,4.92,11.13-.85,22.73-4.91,33.06-.71,10.91,4.44,16.4,16.52,19.82,27.79s6.23,23.55,14.9,31.52c6.88,6.34,16.41,8.89,25.68,10.13a120.74,120.74,0,0,0,28.37.46c2.69-.28,5.51-.7,7.68-2.32,2.72-2,3.87-5.49,4.87-8.74l6.28-20.37c2.47-8,5.38-12.64,12.31-17.35s18.95-2.19,20.15,6.1c.55,3.82-.61,5,3,6.48a5.84,5.84,0,0,0,4.66-.6c7.09-3.51,11.26-12,18.9-14,9.12-2.4,18.14,6.38,19.54,15.71s-2.53,18.55-6.55,27.08c-2.09,4.44-4.09,10.15-.83,13.81,3,3.4,8.61,2.59,12.56,4.86,5.9,3.37,5.84,12.38,2.07,18s-10,9.09-15.26,13.35c-15.3,12.34-23,31.88-26.79,51.18s-4.23,39.13-8.33,58.36c-4.66,21.88-14,42.63-26.23,61.36-4.83,7.4-10.24,14.77-12.15,23.41-3.32,15.07,4.35,32.34-3.66,45.53-7.08,11.65-22.7,14-36.28,15.12l-30.14,2.53c-4.15.35-8.79.56-12-2.1-2.3-1.91-3.36-4.91-4-7.82a46.51,46.51,0,0,1,1.83-26.82c2.33-6.12,5.94-11.71,7.94-17.95,5.51-17.25-2.18-35.66-9.71-52.13L235,2761.17Z"></path>
    <path data-name="3b" data-official="" data-plain="Pistils" data-loc="" d="M416.77,2759.61a65.6,65.6,0,0,0,12.17-21.7c2.68-8.12,4.1-17.32,10.44-23.06,5.19-4.69,12.57-5.95,19.54-6.63,9.53-.93,19.69-1,28,3.68,5.6,3.16,9.89,8.21,13.52,13.51,19.74,28.83,22.36,68.16,7.84,99.94-3.16,6.92-7.09,13.57-8.95,20.94-2.16,8.55-1.42,17.53-.86,26.33.32,5.15.52,10.57-1.82,15.17-4.43,8.71-15.68,10.85-25.38,12L435.19,2904c-4.35.51-8.88,1-13-.48-10.28-3.69-12.85-17.49-10-28s9.25-20,10.85-30.83c3.61-24.38-18-49-9.41-72.14Z"></path>
    <path data-name="4" data-official="Mesembryanthemum spectabile" data-plain="Showy Fig-marigold" data-loc="Cape of Good Hope" d="M1048.38,1665.54c-5.67-14.64-11.34-29.27-16.68-44-6.18-17.11-11.91-34.39-17.56-51.68a73.86,73.86,0,0,1-3.69-14.58l.33-7.44a8,8,0,0,1,5.57-3.29,20.55,20.55,0,0,0,3.24-.31c2.49-.71,3.87-3.39,6.1-4.72,3.45-2.06,8.11-.51,11.73-2.26l2.71,1.74,15.66,31.32c1.75,3.5,3.5,7,5.07,10.58a112,112,0,0,1,9.12,38.28l2.17,8.8c.46,6.07-1.19,12.15-3.82,17.64a94.11,94.11,0,0,1-9.89,15.31q-3.75,5-7.61,9.9Zm509.95,7.4c2.67-13.58,8.79-26.28,11.5-39.85a82.19,82.19,0,0,0-2.36-41.12c-3.12-9.67-8-18.76-10.24-28.68A54.18,54.18,0,0,1,1556,1549q-2.25,19.86-5.34,39.6c-1.15,7.34-2.39,14.68-4.24,21.88-3.17,12.33-8.08,24.13-13,35.89a43.59,43.59,0,0,1-4.81,9.33,22.13,22.13,0,0,1-19.91,8.62l-6-1.79a110.53,110.53,0,0,0-40.37-8.64c-10.85-.25-21.74,1.1-32.53,0-9.17-1-18-3.72-26.84-6.46-12.17-3.8-24.65-7.78-34.63-15.73a103.68,103.68,0,0,1-10.23-9.77c-15.87-16.61-31.94-33.49-42.79-53.75l-6.67-6.59c-4.42-10.21-10.58-19.7-13.78-30.36-5.54-18.4-1.74-38.18-3-57.36-1.81-28.24-14.87-55.25-34.38-75.74s-45.18-34.65-72.4-42.38c-19.39-5.5-39.67-7.89-58.5-15.08l-8.48-4.32-7.39-3.94-4.54-10.36c-2-2.2-1.76-5.69-.38-8.29s3.72-4.53,5.94-6.47a141.9,141.9,0,0,0,26.63-31.14l15.63-10.34c19-10.86,42-14.44,58.73-28.48a25.9,25.9,0,0,0,6.89-8.14,20.52,20.52,0,0,0,1.88-9.47c-.24-9.42-5.68-18.26-13.26-23.84s-17.09-8.15-26.5-8.55a45.92,45.92,0,0,0-18.58,2.68c-5.53,2.15-10.4,5.65-15.57,8.55a79.33,79.33,0,0,1-27.89,9.36c-4.8.66-10,.8-14.14-1.68-3.43-2-5.67-5.62-7.34-9.26-4.6-10-5.8-21.19-6.69-32.16q-2.38-29.12-2.57-58.35c0-2.65,0-5.4,1.12-7.79,1.29-2.74,3.82-4.64,6-6.76,3.85-3.8,6.61-8.54,9.33-13.22q6.8-11.72,13.6-23.44c6.7-11.55,13.48-23.31,16.66-36.28l-.26-13.08c-7-39.54,8.18-79.18,21.18-117.17,11.47-33.52,21.54-69.44,13.64-104s-39.9-66-75-61.09c-35.87,5-60.68,44.16-96.85,46.33a18.91,18.91,0,0,1-8.39-1c-8.57-3.59-9.38-16.41-3.89-23.91s14.74-11,23.38-14.48C1061.13,710,1111,676.9,1135.07,626.83c21.72-45.12,19.78-97.68,15.08-147.53-2.15-22.88-5-46.38-16.08-66.51-12.4-22.53-33.79-38.45-54.53-53.66-40.79-29.91-83.07-60.53-132.34-72-26-6-53-6.48-79.69-5.91-50.93,1.1-102.51,5.89-150.28,23.6s-91.81,49.55-115.94,94.42-26.46,98-26.65,149c-.11,31.42.62,64,14,92.38,8.93,18.94,23,34.95,37.72,49.87,23.16,23.47,49.19,45.43,80.41,56.07,29.23,10,61.09,9.35,90.81,17.74,10,2.81,20.09,7,26.65,15,5,6.06,7.41,13.75,9.61,21.27a666.89,666.89,0,0,1,26.69,184.14l10,15.4q17.36,84.17,41.9,166.63c2.54,8.52,5.13,17,7.07,25.69,4.13,18.4,5.28,37.31,6.42,56.12.66,11,1.27,22.49-2.77,32.78-.66,1.68-2.06,3.63-3.8,3.15a3.94,3.94,0,0,1-2-1.89l-21.44-33.08-13.89-8.52c-6.48,1.78-13.86,1.78-18.95,6.16-8,6.89-5.59,20.06-10.78,29.27l5.34,12.88c-.31,25.31-5,50.43-4.8,75.74s6.09,52,23.59,70.24c9.24,9.64,21.07,16.3,32.71,22.83l12.24,4.77,10.09.17c8.27,1.8,17.39-.22,25,3.53,3.25,1.61,5.92,4.15,8.53,6.65l4.4,6.8c9,.6,16.29,7.58,21.25,15.11,3.39,5.14,6.17,11,6.05,17.17l2.13,9.37c4.91-2.75,8.44-7.61,13.52-10.06,6.33-3.06,13.77-1.82,20.81-2a6.59,6.59,0,0,0,3.26-.7,4.82,4.82,0,0,0,2.08-3.53,14.84,14.84,0,0,0-.27-4.2l-2.43-8c-.24-3.48.9-6.91,2.23-10.13a23.9,23.9,0,0,1,2.57-4.94c2.61-3.6,6.75-5.73,10.73-7.72l4.67-6c6.13-18.8,12.61-38.22,25.92-52.85a21.33,21.33,0,0,1,6.91-5.5,24.12,24.12,0,0,1,7.82-1.55q12.61-1,25.29-1.07l9.77.28c15.7-.44,31,4.29,46,9,4.79,1.49,9.68,3,13.69,6.06s7,7.86,6.49,12.85c-.76,7.18-8,11.61-14.39,14.93l-26.12,4.63a69,69,0,0,0-52.52,4.94c-3.81,2-7.57,4.59-9.67,8.37-1.72,3.1-2.17,6.72-2.51,10.24a95.7,95.7,0,0,0-.29,20.3c1.23,10.61,5.34,20.64,8.64,30.8,6.69,20.56,10.16,42.39,8,63.89s-10.29,42.7-24.67,58.84l-5.42,4.23c-2.52.63-4.08,3.08-5.39,5.32l-7,12a7.63,7.63,0,0,1,2.52,10.66,7.46,7.46,0,0,0-3.29-5.07c-.58-.37-1.38-.65-1.92-.22a1.83,1.83,0,0,0-.48.79q-3.13,7.74-6.26,15.48c-.72,1.78-1.45,3.79-.72,5.57l.69,1a15.93,15.93,0,0,1,7.49-4.42c1.27-.33,2.76-.63,3.33-1.82.24-.48.26-1,.48-1.55a4.34,4.34,0,0,1,1.66-1.66c14.21-9.79,29-19.84,46-22.7,7.29-1.23,14.84-1.1,21.89-3.33,11.43-3.61,20.35-13,31.84-16.45l9.22-.22a108,108,0,0,0,22.71,5.3l9.55,5.93c2,.15,4.36.59,5.06,2.45a5.28,5.28,0,0,0,.6,1.58,2.48,2.48,0,0,0,1.79.68c5.42.46,11.24-.83,16,1.68a3,3,0,0,0,1.49.5c.9,0,1.47-.93,2.07-1.59,2.52-2.75,6.91-2.26,10.57-1.55l5.12,2a16.76,16.76,0,0,0,4.5,1.36,34.15,34.15,0,0,1,14.08,6.87l4.5,2.2c-.1,4.08,0,8.65,2.88,11.53.66.66,1.51,1.33,1.51,2.26a3,3,0,0,1-.3,1.09q-2.09,4.91-4.21,9.78a3,3,0,0,1-1.42,1.77,2.92,2.92,0,0,1-1.58,0l-6.18-1-6.63.58a106.84,106.84,0,0,0-16-5.26l-2.32-2.87c-11.62-5-24.73-4.66-37.37-4.26l-10.94,3.62c-10-2.18-20.47-4.36-30.42-1.89-4.74,1.18-9.16,3.37-13.79,4.93a89.07,89.07,0,0,1-12.29,3l-7.25-.09c-5.08-.88-10.11,1.34-15,2.86a56,56,0,0,1-12,2.3,2.89,2.89,0,0,1-1.46-.14,13.28,13.28,0,0,1-1.29-1,2.28,2.28,0,0,0-2.87.63,3.16,3.16,0,0,0-.34,3.05l-31.18,6.63-.65,5a10.91,10.91,0,0,0,4.48,8l2.12,4.56,4.92,4.07a14.71,14.71,0,0,1,3.9,4.2c1.24,2.37,1.08,5.22,1.92,7.76,1.43,4.32,5.66,7.66,5.77,12.21l-13.93.82-19.11-8.37a48.35,48.35,0,0,0-8.76-3.19c-8.61-1.93-17.58,1-25.43,5s-15.13,9.2-23.38,12.33c-2.3.87-4.65,1.58-7,2.29L980.21,1769l-2.73,3.69c.23,3.75.36,7.86-1.9,10.86s-6.71,4.11-10.61,3.74l18.36,1.86c9.79,3.92,16.1,13.26,23.54,20.73a75.85,75.85,0,0,0,14.69,11.47l7.72,4c6.18,3.41,13.35,4.41,20.35,5.36l18.06,2.44c5.18.7,11,1.23,15.09-2.1l7.62,3.07c3.95,2,8.52,2.38,12.94,2.68,4.07.28,8.13.56,12.21.55a89.24,89.24,0,0,0,25.1-3.61,49.83,49.83,0,0,0,15.13-6.92,26.67,26.67,0,0,0,10.06-13l-.48-7.69a77.75,77.75,0,0,0-10.75-29.11l-3.92-3.5-28-6.6a3.9,3.9,0,0,1-3.39-2.6q-5.24-10.31-10.41-20.63l5.19,1.93c9.58,4.79,19.59,8.88,30.08,11s21.52,2.31,31.82-.65l9.22-1.5c14.85,6.08,27,20.36,27.17,36.41.06,6.66-1.85,13.18-4,19.49-1.89,5.56-4,11.11-7.34,15.94s-8,8.94-13.65,10.58l-7.63,4.42c-6.23-1.12-12.66.24-18.64,2.3s-11.71,4.83-17.77,6.69c-12.31,3.77-25.44,3.59-38.32,3.39l-45.12-.73-7.39,4.47a31.74,31.74,0,0,0,10.4,13.41l7.51,4.68,10.16,5.66a147,147,0,0,0,26.81,12.69c7.72,2.73,15.84,4.91,22.43,9.77l5.23,8.51c2.67,3.15,5.42,6.46,6.46,10.46a26.71,26.71,0,0,1,.62,3.89q.66,5.85,1.31,11.69l0,5.79a56.59,56.59,0,0,1-27.11,19.48c-3.38,1.13-6.87,1.93-10.2,3.2-12.47,4.78-21.77,15.91-26.73,28.3s-6,26-5.79,39.37l1,.36c3.13-2.89,7.7-3.39,11.88-4.22a59.55,59.55,0,0,0,22.79-9.78c3.53-2.51,6.78-5.4,10.43-7.73,5.15-3.28,11-5.37,16.69-7.43,22.49-8.08,45-16.16,67.67-23.72a201.75,201.75,0,0,1,25.2-7.14c6.64-1.29,13.38-2,20.1-2.62l37.5-3.68,11.72-.5a9.09,9.09,0,0,1,5.9,6.14c.92,3.37-.19,6.93-.11,10.42a37.58,37.58,0,0,0,1.24,7.19,76.89,76.89,0,0,1,.79,29.31l4.54,6.49c-3.25,6.54-1.41,15-5.58,21-2.44,3.51-6.49,5.47-9.92,8-9.58,7.12-14.32,18.89-21.79,28.19a57.78,57.78,0,0,1-15.19,13.28l.66,13.38c-.25,5.76-.49,11.67,1.33,17.14s6.16,10.49,11.86,11.39c9.41,1.49,16.42-7.88,23-14.77,12-12.52,28.61-19.16,44.19-26.71a329.72,329.72,0,0,0,106.9-82.61c21.55-25.28,39.12-53.66,56.66-81.87,4.53-7.29,9.34-14.85,16.72-19.24l9.49-1.36a69.79,69.79,0,0,1,15.94,10.68c2.51,2.25,5.59,4.87,8.82,3.92-.7,2.63.39,5.39,1.75,7.74s3,4.59,3.69,7.23c.84,3.51-.29,7.18-1.69,10.5l-3.88,8.45a202.64,202.64,0,0,1-9,67.3c-6,19.13-14.76,37.42-18.71,57-2.19,10.92-2.87,22.17-6.22,32.78-3.86,12.19-11.08,23-15.65,35a85.37,85.37,0,0,0-5.39,36.6c.43,5.9,1.53,11.89,4.48,17,4.72,8.21,13.9,13.28,23.3,14.35s19-1.53,27.34-5.92c5.11-2.68,10.06-6.24,12.63-11.4,2.32-4.68,2.43-10.09,3.19-15.25,2.63-17.69,13.23-33.05,19.18-49.91,7.5-21.21,7.48-44.29,12.38-66.24,2.55-11.41,6.42-22.5,8.86-33.93,4.12-19.27,4.12-39.15,4.09-58.85,0-23.34-.62-48.47-14.51-67.22L1589.59,1902c-1.43,1.46-4.86-.08-6.28,1.39L1572,1889c-1.34-1.72-2.68-3.44-4.15-5-6.15-6.74-14.28-11.31-22.49-15.3,1.72-3.21-2.9-6.11-4-9.59L1548,1848a219.81,219.81,0,0,1,8.81-146.82Z"></path>
    <path data-name="5" data-official="Tetragonia expansa" data-plain="New Zealand Spinage" data-loc="New Zealand" d="M1446.39,2015.84c21.55-25.28,39.12-53.66,56.66-81.87,4.53-7.29,9.34-14.85,16.72-19.24l9.49-1.36a69.79,69.79,0,0,1,15.94,10.68c2.51,2.25,5.59,4.87,8.82,3.92-.7,2.63.39,5.39,1.75,7.74s3,4.59,3.69,7.23c.84,3.51-.29,7.18-1.69,10.5l-3.88,8.45a202.64,202.64,0,0,1-9,67.3c-6,19.13-14.76,37.42-18.71,57-2.19,10.92-2.87,22.17-6.22,32.78-3.86,12.19-11.08,23-15.65,35a85.37,85.37,0,0,0-5.39,36.6l-7,7.41c-10,7.24-13.4,20.24-17,32-8.95,28.95-23.85,57.27-48.3,75.17-6.36,4.65-13.54,8.62-21.38,9.43s-16.43-2.12-20.67-8.77c-2.41-3.77-3.23-8.34-3.6-12.81-1.53-18.54,3.85-36.85,7.57-55.08a313,313,0,0,0,5.36-37.93c1-12.31,1.24-24.71,3.51-36.84,1.81-9.71,4.9-19.14,8-28.53l29.94-91.39ZM2158.23,783.28a449.41,449.41,0,0,0-65.67-104.15c-11.11-13.19-23.32-26.31-28.42-42.79-7.08-22.86.86-47.37,8.73-70,12.33-35.39,30-75.86,66.53-84.38,15.75-3.68,32.63-.44,48.13-5,33.56-9.94,46.56-55.25,31.51-86.86s-49.38-49.91-83.61-57.26S2065.76,327,2031,323.16c-3.45-.37-7-.83-10-2.58-8.43-4.91-8.43-17.87-2.88-25.9s14.69-12.61,23-17.8c19.85-12.47,36.82-31,43.09-53.55s0-49.31-18.48-63.68c-32.71-25.39-84.89-4.06-119.07-27.43-21.23-14.51-28.76-41.59-39.63-64.89s-32.38-47.08-57.64-42.28c-10.84,2.06-21.25,9.35-32,6.74-11.16-2.71-17.2-14.86-27.1-20.67-15.61-9.16-35.88-.14-49,12.3S1717.81,51.9,1702,60.63c-35.77,19.68-78.06-6-116-21a220.81,220.81,0,0,0-96-14.78c-17.94,1.26-38.39,6.71-45.78,23.09-6.12,13.55-.85,29.22,4,43.27a670.44,670.44,0,0,1,35.13,256.89c-1.26,21.25-3.67,42.91-12.73,62.18-24.44,51.93-87.67,70.87-144.07,81.51S1207.09,514,1173.32,560.41l-3.7,17.71a125.32,125.32,0,0,0-22.37,67.59c-.1,3.14,0,6.39,1.2,9.28,1.86,4.31,6.15,7.13,10.57,8.74,11.87,4.31,25.28,1.37,36.64-4.16s21.32-13.5,32.16-20a140.91,140.91,0,0,1,110.58-14.1c62.52,18.35,106.69,78.43,169.86,94.4,15.58,3.94,32.75,5.43,45,15.79,7,5.86,11.56,14,15.22,22.35,6.47,14.73,10.38,30.46,13.43,46.25,4.84,25,6.6,54-10.49,72.92C1555,895.45,1527,897.29,1502.64,894c-23.19-3.17-45.77-9.79-68.86-13.65-105.54-17.66-219.22,27.93-283.32,113.62l-15,11.91.26,13.08c-3.18,13-10,24.73-16.66,36.28q-6.81,11.71-13.6,23.44c-2.72,4.68-5.48,9.42-9.33,13.22-2.15,2.12-4.68,4-6,6.76-1.12,2.39-1.14,5.14-1.12,7.79l12.07,10.41c20.53,8.2,41.71-8.66,63.06-14.41,12.74-3.42,26.16-2.81,39.33-2.17,21.32,1,43.16,2.17,62.8,10.54,11.06,4.72,21,11.59,31.48,17.58a224,224,0,0,0,152.87,25.4c19-3.7,37.6-9.9,56.91-11.07s40.29,3.64,52.93,18.29c11.7,13.55,14.07,32.58,15.75,50.41,6.6,70.22,10.22,140.78,8.75,211.3-.3,14.21-1.52,30.06-12,39.63-2.83,2.57-6.83,4.59-10.37,3.19-2.5-1-4.09-3.4-5.51-5.68-15.29-24.58-29.47-50.27-49.68-71-19.56-20.06-44-34.62-68.66-47.9-46-24.76-94.46-46-145.72-56.14s-105.73-8.62-154.18,10.94l-27,11.49c-2.22,1.94-4.55,3.87-5.94,6.47s-1.57,6.09.38,8.29l4.54,10.36,7.39,3.94,8.48,4.32c18.83,7.19,39.11,9.58,58.5,15.08,27.22,7.73,52.88,21.88,72.4,42.38s32.57,47.5,34.38,75.74c1.22,19.18-2.58,39,3,57.36,3.2,10.66,9.36,20.15,13.78,30.36l6.67,6.59c10.85,20.26,26.92,37.14,42.79,53.75a103.68,103.68,0,0,0,10.23,9.77c10,7.95,22.46,11.93,34.63,15.73,8.8,2.74,17.67,5.49,26.84,6.46,10.79,1.14,21.68-.21,32.53,0a110.53,110.53,0,0,1,40.37,8.64l6,1.79a22.13,22.13,0,0,0,19.91-8.62,43.59,43.59,0,0,0,4.81-9.33c4.9-11.76,9.81-23.56,13-35.89,1.85-7.2,3.09-14.54,4.24-21.88q3.09-19.74,5.34-39.6a54.18,54.18,0,0,0,1.23,14.31c2.2,9.92,7.12,19,10.24,28.68a82.19,82.19,0,0,1,2.36,41.12c-2.71,13.57-8.83,26.27-11.5,39.85l-1.54,28.2A219.81,219.81,0,0,0,1548,1848l-6.55,11.06c1.06,3.48,5.68,6.38,4,9.59,8.21,4,16.34,8.56,22.49,15.3,1.47,1.61,2.81,3.33,4.15,5l11.28,14.47c1.42-1.47,4.85.07,6.28-1.39l6.5-1.73a237.81,237.81,0,0,0,40.63-96.77l2.82-18.34-9.8-12.78a30.59,30.59,0,0,1-4.55-7.27c-1.36-3.54-1.35-7.44-1.27-11.23.13-7,.45-14.17,3.48-20.45s9.49-11.42,16.43-10.75c1.15-4.83,4.05-9,6.89-13.08l8.1-11.58,2-8.13a227.53,227.53,0,0,1,1.22-27.5c.46-4.35,1-8.77.19-13L1659,1634.7c-7.15-4.2-13.89-9.44-18.41-16.4s-6.57-15.83-4-23.73l11.38,2.31c1.57.32,3.27.71,4.27,2,.73.91,1,2.19,1.94,2.89,1.58,1.18,3.79,0,5.37-1.18.77-.57,1.6-1.26,1.63-2.21a3,3,0,0,0-.48-1.47c-6-10.94-19.11-16.89-24.05-28.34a30.84,30.84,0,0,0-1.73-3.84,16.85,16.85,0,0,0-3.6-3.94,77.12,77.12,0,0,0-20.64-12.74,18.32,18.32,0,0,1-5.34-2.86c-3.69-3.26-3.73-8.89-3.49-13.81l5.36-4.62c16.66-4.25,32.56-11,48.37-17.76a24,24,0,0,0,5.19-2.72c5.46-4.12,7.38-12.72,14-14.54l6.45-16.3c-2-15.57,5.15-31.34,16.13-42.57s25.42-18.44,40.13-23.92a228.16,228.16,0,0,1,105.28-12.82c16.07,1.84,32.09,5.42,48.25,4.55,25-1.33,48.24-13.15,69.79-26,15-8.89,29.93-18.69,40.28-32.69,11.63-15.73,16.44-35.35,20.41-54.5a978.06,978.06,0,0,0,19.29-243l7.29-20.87a212.73,212.73,0,0,1-.82-55.17c1.09-9.41,3.33-19.64,10.84-25.41,7.95-6.09,19.38-5.11,28.64-1.3s17.34,10,26.49,14.1c19.34,8.6,45.94,4.56,56-14.09,3.92-7.29,4.87-15.76,5.51-24a421.07,421.07,0,0,0-4.52-101.91Z"></path>
    <path data-name="6" data-official="Lewisia rediviva" data-plain="" data-loc="North America" d="M1405.19,2314.61c7.84-.81,15-4.78,21.38-9.43,24.45-17.9,39.35-46.22,48.3-75.17,3.63-11.77,7.07-24.77,17-32l7-7.41c.43,5.9,1.53,11.89,4.48,17,4.72,8.21,13.9,13.28,23.3,14.35s19-1.53,27.34-5.92c5.11-2.68,10.06-6.24,12.63-11.4,2.32-4.68,2.43-10.09,3.19-15.25,2.63-17.69,13.23-33.05,19.18-49.91,7.5-21.21,7.48-44.29,12.38-66.24,2.55-11.41,6.42-22.5,8.86-33.93,4.12-19.27,4.12-39.15,4.09-58.85,0-23.34-.62-48.47-14.51-67.22L1589.59,1902l6.5-1.73a237.81,237.81,0,0,0,40.63-96.77l2.82-18.34-9.8-12.78a30.59,30.59,0,0,1-4.55-7.27c-1.36-3.54-1.35-7.44-1.27-11.23.13-7,.45-14.17,3.48-20.45s9.49-11.42,16.43-10.75c1.15-4.83,4.05-9,6.89-13.08l8.1-11.58,2-8.13a227.53,227.53,0,0,1,1.22-27.5c.46-4.35,1-8.77.19-13L1659,1634.7c-7.15-4.2-13.89-9.44-18.41-16.4s-6.57-15.83-4-23.73l11.38,2.31c1.57.32,3.27.71,4.27,2,.73.91,1,2.19,1.94,2.89,1.58,1.18,3.79,0,5.37-1.18.77-.57,1.6-1.26,1.63-2.21a3,3,0,0,0-.48-1.47c-6-10.94-19.11-16.89-24.05-28.34a30.84,30.84,0,0,0-1.73-3.84,16.85,16.85,0,0,0-3.6-3.94,77.12,77.12,0,0,0-20.64-12.74,18.32,18.32,0,0,1-5.34-2.86c-3.69-3.26-3.73-8.89-3.49-13.81l5.36-4.62c16.66-4.25,32.56-11,48.37-17.76a24,24,0,0,0,5.19-2.72c5.46-4.12,7.38-12.72,14-14.54l6.45-16.3c-2-15.57,5.15-31.34,16.13-42.57s25.42-18.44,40.13-23.92a228.16,228.16,0,0,1,105.28-12.82l14.44,12.77a143.34,143.34,0,0,0,45.46,39c21.49,11.66,46.66,18.31,63.13,36.39,17.93,19.66,21.32,48.15,23.87,74.63,3.91,40.68,6.46,86.13-19.54,117.65-7.15,8.67-16.8,17.37-16.08,28.59.45,6.87,4.93,12.88,10.23,17.28,18.65,15.48,48.26,16.07,62.27,35.85,13.81,19.51,4.73,46.62-7,67.47a331.57,331.57,0,0,1-78.5,93.65c-7.63,6.26-15.69,12.34-21.12,20.59s-7.75,19.36-3,28c5.8,10.6,19.23,13.66,29.69,19.71,20,11.53,29.89,35.79,29.94,58.84s-8.23,45.24-17.4,66.38c-9.83,22.67-21.7,45.88-42.23,59.6l-6.27,24.1c-8.21,22-19.91,47.17-42.94,51.87-14.48,2.95-32.17-2.61-42.56,7.91-12.22,12.37-1.56,33.1,10.14,46a358.46,358.46,0,0,0,28.5,28c14.92,13.08,32.57,28.56,30.44,48.29s-22.43,31-35.59,45.65c-18.28,20.39-30.27,51.68-19.25,76.74,6.58,15,18.59,29.83,14.44,45.63-1.56,5.93-5.29,11-8.94,15.94-13.26,17.91-19.53,35.82-32.79,53.73-16.57,22.37-33.35,45-54.66,62.88s-47.93,31-75.77,30.82c-52.14-.25-93.66-44.65-144.46-56.37-16.25-3.75-33.11-4-49.46-7.31-20-4-38.76-12.28-57.37-20.51-24.92-11-51-23-67.08-45-8.41-11.53-13.47-25.09-19.49-38a268.24,268.24,0,0,0-47-69.65c-8.86-9.5-18.51-18.46-25.35-29.5s-10.65-24.83-6.52-37.15c4.62-13.8,17.77-22.63,30.08-30.41l81.15-51.34Z"></path>
    <path data-name="6a" data-official="" data-plain="Stamen" data-loc="" d="M1313.93,2866,1321,2756.9c.54-8.39,1.09-16.83,2.89-25.05,2.57-11.7,7.62-22.71,12.93-33.45,4.45-9,9.38-18.22,17.46-24.17s20.23-7.6,27.88-1.09,8.07,17.84,7.08,27.74c-4.88,49-31.14,94.36-32.91,143.55-.38,10.65.47,21.6,4.9,31.29,3.31,7.24,8.47,13.47,12.3,20.45s6.32,15.37,3.69,22.88c-2.27,6.48-8.07,11.25-14.46,13.79s-13.35,3.13-20.21,3.48a313.38,313.38,0,0,1-37.66-.4,20.94,20.94,0,0,1-6.82-1.29c-5.72-2.45-8.27-9.63-7.08-15.75s5.28-11.24,9.76-15.57c2.93-2.82,6.11-5.47,8.27-8.91,3.59-5.72,3.89-12.84,4.09-19.59Z"></path>
    <path data-name="6b" data-official="" data-plain="Pistil" data-loc="" d="M1416,2877.94c-13.93-17-16.28-42.55-5.69-61.77,4-7.3,9.73-13.72,12.7-21.52,4.77-12.52,1.84-26.56-1.86-39.43q-4.27-14.83-9.81-29.25c-3.17-8.23-6.67-16.47-7.63-25.24s1-18.34,7.45-24.4c7.79-7.36,19.67-7.72,30.39-7.53q29.1.51,58.17,2.2c3.46.2,7,.44,10.15,1.92,5.36,2.53,8.53,8.28,9.87,14,4.09,17.62-5.65,35.2-15,50.68l-14.46,23.87c-5.48,9.06-11.15,18.81-10.7,29.39.52,12.17,9,22.35,13.46,33.67a54.41,54.41,0,0,1-1.34,42.8c-2,4.26-4.61,8.29-6.07,12.77-3.86,11.81.59,24.91-2.12,37a14.66,14.66,0,0,1-3.13,6.8c-1.86,2-4.49,3.17-7.07,4.13a105,105,0,0,1-27.94,6.2c-10.35.84-22-.46-28.75-8.39-8-9.49-5.26-23.68-2.08-35.68Z"></path>
    <path data-name="6c" data-official="" data-plain="Capsule split" data-loc="" d="M1802.83,2878.33c-6.41-24.73-8.19-52,3.13-74.95,15.08-30.52,51-48.69,60-81.5,8-28.82-7.62-58.81-7.28-88.7.35-31.82,18.64-64,8.2-94-2.23-6.41-5.74-12.49-6.51-19.24-1.86-16.1,14-30.58,30.22-30.76s30.94,11,39.09,25,10.79,30.5,12.25,46.65c3.94,43.54.38,87.41-4.49,130.86-2.12,18.95-4.45,38.47.73,56.83,3.86,13.69,11.67,25.86,18.75,38.2,11.21,19.56,21,40.68,22.33,63.18s-7.19,46.71-26,59c-8.48,5.54-19.31,9.21-23.53,18.43-1.82,4-2.11,8.51-3.84,12.53-4.33,10.08-16.21,14.28-26.94,16.54-14.48,3.06-33,2.85-40-10.14-3.09-5.65-3.15-12.56-6.17-18.24-4.8-9-15.54-12.67-25.06-16.36s-19.92-9.65-21.55-19.73Z"></path>
    <path data-name="6d" data-official="" data-plain="Section" data-loc="" d="M1638.52,2900.17c-11.74-14.64-20.37-32-23.34-50.56s0-38.22,9.59-54.34c8.3-13.87,21.12-24.67,29-38.79,5-8.88,8-19.13,15.31-26.22,6.41-6.25,15.48-9.26,24.43-9.65,9.23-.42,19.48,2.44,24.28,10.34,4.29,7.07,3.12,16.19,6,23.93,3.43,9.08,11.93,15,18.53,22.17,15.12,16.29,20.67,39.92,18.3,62s-11.92,42.88-23.75,61.7c-3.46,5.51-7.21,11.11-8.3,17.53-1.61,9.48,2.73,20-1.82,28.45-3.76,7-12.25,9.88-20,11.46a143.45,143.45,0,0,1-42.52,2.19c-4-.4-8.59-1.3-10.69-4.77-1.77-2.91-1.15-6.6-1-10a33,33,0,0,0-14.3-28.29Z"></path>
    <path data-name="6e" data-official="" data-plain="Seed, magnified" data-loc="" d="M1543.1,2875.29a33.11,33.11,0,0,0-8.86-24.09c-5-5.31-11.68-8.85-16.44-14.37-8.46-9.78-9.43-23.85-9.2-36.78.17-9.18.91-18.91,6.24-26.39s14.48-11.39,23.57-11.95,18.12,1.95,26.54,5.42c8.21,3.38,16.15,7.78,22.3,14.17s10.4,14.95,10.24,23.82c-.15,8.66-4.34,16.66-8,24.53-5.62,12.25-10.11,26.14-6.19,39,2.52,8.28,8.23,15.15,13.92,21.67s11.62,13.13,14.74,21.2,2.81,18.11-3.1,24.42c-6.14,6.56-16.11,7.31-25.09,7.64-6.62.24-13.35.47-19.75-1.26s-12.5-5.76-15.11-11.85c-1.36-3.19-1.69-6.71-2-10.16l-2.88-32.33Z"></path>
    <path data-name="7a" data-official="" data-plain="Capsule of Mesembryanthemum" data-loc="" d="M613.19,2825.48c-10.92-17.13-17.94-37.45-15.84-57.65s14.59-39.92,33.57-47.15c6.23-2.37,12.88-3.36,19.47-4.33,15.74-2.33,31.71-4.63,47.49-2.57s31.58,9.07,40.79,22c4.19,5.9,6.85,12.76,8.85,19.71a87.59,87.59,0,0,1,3.78,27.12c-1,28.7-20.39,54.14-44.16,70.26-7.16,4.86-15.32,9.71-18.13,17.9-4.21,12.25,5.55,26.3.66,38.3-2.56,6.29-8.77,10.5-15.3,12.35s-13.44,1.69-20.22,1.51l-20.85-.55a16.23,16.23,0,0,1-6.39-1,11.45,11.45,0,0,1-5-5.14c-5.19-9.62-1.26-21.32.27-32.15a70.45,70.45,0,0,0-9.79-46.52Z"></path>
    <path data-name="7b" data-official="" data-plain="Section of Capsule" data-loc="" d="M833.19,2851.56c-8.13-10.25-22.12-15.75-27.21-27.8-3.64-8.6-1.5-19.12,4.61-26.18,2.55-2.94,5.72-5.36,7.86-8.61,3.47-5.28,3.75-11.95,4.76-18.19a71.62,71.62,0,0,1,17.06-35.89c4.25-4.78,9.31-9.07,15.37-11.12,4.27-1.44,8.83-1.71,13.33-1.8,14-.29,28.41,1.11,41.18,6.93s23.81,16.62,27.32,30.21c1.12,4.32,1.49,8.89,3.41,12.92,2.32,4.87,6.63,8.43,10.12,12.54a44.34,44.34,0,0,1,9.84,35c-4.66,30-37.75,47.14-49.27,75.18-2.59,6.31-4.23,13.4-9.2,18.06a29.35,29.35,0,0,1-8.91,5.25,112.91,112.91,0,0,1-30.27,8c-6.05.72-12.33.93-18.09-1s-11-6.49-12.32-12.43c-1.61-7.14,2.43-14.18,4.05-21.32a32.87,32.87,0,0,0-5-25.7Z"></path>
    <path data-name="7c" data-official="" data-plain="Section of Seed" data-loc="" d="M1025.05,2903.18c3.55-4.87,2.63-11.86-.34-17.1s-7.64-9.27-11.79-13.64c-11.5-12.11-19.61-29.8-13.83-45.47,4-10.95,14-18.63,24.4-23.93a105.65,105.65,0,0,1,74.76-7.84,23.61,23.61,0,0,1,7.16,2.91c3.69,2.5,5.87,6.68,7.38,10.87,3.55,9.79,4.23,20.36,4.73,30.76.46,9.66.8,19.44-1.06,28.93s-6.11,18.81-13.48,25.08c-5.66,4.82-13.14,7.92-16.82,14.38-1.43,2.51-2.17,5.37-3.58,7.9-3,5.4-8.88,8.75-14.91,10.15s-12.31,1.09-18.49.78c-4.9-.24-9.93-.52-14.41-2.5s-8.38-6.08-8.66-11Z"></path>
</svg>
