
<svg xmlns="http://www.w3.org/2000/svg" viewBox="0 0 2045 2579" id="illustration" preserveAspectRatio="xMidYMid meet">
    <title>Fumariaceæ</title>
    <path data-name="1" data-official="Fumaria capreolata" data-plain="Ramping Fumitory" data-loc="England" d="M2013.85,692.56c-18.63-37.1-53.22-68.07-94.37-73.63-23-3.1-46.27,1.7-69.46,1.32a156.08,156.08,0,0,1-63.61-14.75c-6.34-3-12.66-6.54-17-12.07-9-11.54-6.86-27.81-6.56-42.45,1.25-61.53-37.5-116.3-78.63-162.08-27.46-30.56-58-60.27-96.52-74.65s-86.69-9.8-114,20.85c-24.5,27.44-26.9,67.63-26.54,104.41s1.56,76.12-18.17,107.17c-22,34.62-67.21,53.82-77.9,93.42-8,29.56,5.08,65.88-15.21,88.82-19.54,22.07-57.24,15.87-80.12,34.46-13.32,10.81-19.21,28.08-28.91,42.24s-28,26.07-43.34,18.29l-20.44-.78c-7.59,1.15-15.32-.85-22.42-3.76s-13.8-6.75-20.94-9.55c-6.28-2.46-12.86-4.11-19.08-6.72-8.68-3.65-17.49-9.3-26.73-7.48-7,1.38-12.5,6.89-16.32,12.92a54.2,54.2,0,0,0-6.4,42.86l6.36,10.44c3.16,4.41,8,7.35,12.81,9.76,24.38,12.13,52.46,13.63,78.88,20.22,5.33,1.33,10.76,2.95,15,6.4s7.16,9.15,5.8,14.47c-.58,2.27-1.88,4.34-2.23,6.66-1,7,6.5,12.19,8.5,19,1.67,5.7-.76,11.7-3.14,17.14-5,11.46-10.1,23-17.22,33.28-4,5.71-8.62,11.21-10.36,17.94L1154,1034c2,2,3,12,7,14,2.5,1.25,10,44.3,8.3,46.55-3.22,4.34-9.52,4.66-14.25,7.28a6.22,6.22,0,0,0-2.81,2.65c-1.17,2.56.75,5.55,3.09,7.11s8.41,1.6,7.31,4.19c-2.64,6.22,3.36,10.22,3.72,12.92.63,4.62-2.15,9.12-2.4,13.78-.55,10.31,7.14,21,17.42,22l8.15,8.21a45,45,0,0,1,3.86,34.7c-1.09,3.6-2.71,7.17-5.53,9.67l-3.34,4.68a2.43,2.43,0,0,1-1.58,2,6.17,6.17,0,0,1-1.54.29,52.63,52.63,0,0,0-7.88,1.49,3,3,0,0,0-1.34.63,3.07,3.07,0,0,0-.58,1l-2.35,5.38-3.89,10.76a21.34,21.34,0,0,1-6.85,12.89c-2.22,2-5,3.63-6.16,6.34a17.69,17.69,0,0,0-8.13-6.33,5.84,5.84,0,0,1-2.71,2.67,40,40,0,0,0-7-3.44c-2.13-.88-4.92-1.63-6.45.1a5.23,5.23,0,0,0-.85,3.79,31.2,31.2,0,0,0,2.64,10.79l1.42,21.94a154.68,154.68,0,0,0,20,49l.24,9.3a290.15,290.15,0,0,1,10.6,41,9.15,9.15,0,0,0,1.21,3.67,8.76,8.76,0,0,0,2,1.88c9.07,7,18.73,13.43,26.74,21.66,11.79,12.11,19.53,27.75,31.65,39.52l1.51,6.06q2.49,19.08,5,38.18c.52,4,1,7.91,1.34,11.89.36,4.68.42,9.37.47,14q.11,8.14.2,16.3L1233,1557c-.67,4.59-6,7.43-9,11-1.21,1.46-.36,8.47-6.46,13.63-7.54,6.37-12.74,16.41-17.47,25.7-5.2-1.28-9.17-5.73-11.22-10.68s-2.48-10.4-2.8-15.75-.59-10.79-2.34-15.85c-1.9-5.46-5.43-10.18-9-14.69a67.7,67.7,0,0,0-8.78-9.44,38.4,38.4,0,0,0-22.23-8.89,21.67,21.67,0,0,0-7.05.57,22.17,22.17,0,0,0-6.47,3.23,44.07,44.07,0,0,0-18.57,30.22c-.58,4.46-.47,9-1.15,13.44s-2.25,9-5.57,12c-1.08,1-2.31,1.78-3.35,2.79-3.85,3.75-4.48,9.62-4.74,15l.14,8.46c-1.87,18.59,11,35.16,15.69,53.24,1.11,4.29,1.77,8.71,3.22,12.89,1.89,5.49,5.13,10.56,6,16.3l-1.53,10.18-10.72-.2a79.76,79.76,0,0,0-15,.67,26.9,26.9,0,0,0-13.53,6l-9.73,3.55a20.08,20.08,0,0,0-1.63,24.56l.9.87,8.85,8.87c2,2.06,4.15,4.18,5.37,6.83s1.39,6-.32,8.32a11.57,11.57,0,0,1-2.81,2.54c-5.6,4-11.79,7.66-18.64,8.47l-8.65,4.06a22.06,22.06,0,0,1-9,2.08l-4.43-25a120.13,120.13,0,0,1-31-4c-5.64-1.47-16.7,26.3-19.36,21.12l-11.71-5.81c-4.89.58-9.64-1.5-14.47-2.44-5-1-10.13-.73-15.21-1a71,71,0,0,1-17.21-3.17l-8,.32a127.55,127.55,0,0,1-29.21-28.06c-3.41-4.46-6.57-9.23-8.22-14.59-1.25-4-1.61-8.25-2.29-12.41a80.85,80.85,0,0,0-6.16-20.28l-1.63-23.77a34.77,34.77,0,0,1,25.56-2c-.64-4.65-4.13-8.59-8.39-10.55a22.14,22.14,0,0,0-11-1.68,57.46,57.46,0,0,0,8.14-2.78,60.6,60.6,0,0,1,25.13-3.64,13.75,13.75,0,0,1,6.3,1.56,17.93,17.93,0,0,1,3.66,3.31,60.84,60.84,0,0,0,43.91,18.8,18.34,18.34,0,0,0,7.85-1.37c3.54-1.68,5.91-5.13,7.63-8.64a45.63,45.63,0,0,0-1.29-41.87c-1.86-3.27-4.26-6.42-7.63-8.08-2.68-1.32-5.74-1.59-8.72-1.74a142.64,142.64,0,0,0-22.45.58,42,42,0,0,0-9.83,2c-6.24,2.24-11.27,6.88-16.12,11.41l-17.91,11.75a57.36,57.36,0,0,0-26.94,15.47c-.29-6.07,1.76-12,3.84-17.69s4.11-11.11,6.25-16.63c2.26-5.85,5.43-12.42,11.53-13.89,2.87-.68,5.86-.06,8.78.37a64.77,64.77,0,0,0,25.52-1.38c4.92-1.27,10.47-4.06,11-9.11l16.35-4.18c5.07-3,10.36-6.1,16.23-6.61a33.9,33.9,0,0,1,11.63,1.52l5-6.22a40.69,40.69,0,0,0-8.93-27,79.79,79.79,0,0,0-8.85-8.88l-51.3-46.35-12.49-11c1.6-7.34,4.52-14.76,10.28-19.58,8.72-7.31,21.74-7,31.16-13.37,8.3-5.62,12.5-15.45,16.27-24.73l14.36-35.37a58.84,58.84,0,0,1,2.74-6.06c1-1.89,2.27-3.67,3.23-5.61a34.3,34.3,0,0,0,2.78-9.59c.82-4.89,1.24-10,.14-14.79s-3.9-9.47-8.25-11.87l-9.84-1.93c-7.36-3.72-16.63-1.67-23.31,3.16s-11.27,12-15.31,19.19a129.14,129.14,0,0,0-6.53,13c-2.35,5.56-4.29,11.58-8.69,15.7l-3.65,8.67a99.49,99.49,0,0,0-9-8.14c-4.16-3.3-8.92-6.38-14.23-6.51-4.69-.12-9.09,2.07-13.26,4.21-1.47.75-3,1.62-3.69,3.15l.21,6.47a15,15,0,0,0,3,14.21,15.75,15.75,0,0,0,13.66,5.1q6.49,19.74,12.9,39.53a10.42,10.42,0,0,1,.75,4.75c-.36,2.26-2.12,4-3.47,5.84a18.37,18.37,0,0,0-3.48,10.18l-1-1.62a25.24,25.24,0,0,0-15.46-16.1,25.33,25.33,0,0,0,3-19.58c-.65-2.52-2-5.21-4.44-6-3.43-1.12-6.78,1.88-10.34,2.43-8.77,1.33-14.45-11.92-23.27-11L820,1438.91a94.52,94.52,0,0,0-17.77,7c-2.42,1.25-5,2.81-5.9,5.36s.92,6.13,3.62,5.75c.74-.1,1.49-.48,2.2-.23,1.2.42,1.16,2.09,1.17,3.37,0,5,4.78,9.1,9.75,10s10-.65,14.73-2.5,9.38-4,14.41-4.47c7.59-.68,14.93,2.65,21.66,6.24l.24,2.83c11.11,5.36,22.69,12.76,26.13,24.61,3.91,13.51-4.18,27.88-2.18,41.8l-.63,0c-6.91-11.08-24.95-9.65-32.86-20a7.31,7.31,0,0,1-1.74-4.34,15.43,15.43,0,0,1,.92-3.85c1.65-6-1.61-12.33-5.49-17.25-6-7.62-14.59-14.09-24.29-14.19l.51,0c1.95,6.15,3.9,12.84,1.74,18.92-.65,1.82-1.64,3.51-2.17,5.37-1.13,4,.05,8.31,1.94,12a20.58,20.58,0,0,0,7,8.21c3.9,2.46,8.65,3,13.16,3.91A73.52,73.52,0,0,1,885.84,1550l1.1,2.76a10.06,10.06,0,0,0-11.09-3c-1.83.7-3.43,1.93-5.27,2.63-3.71,1.41-7.85.48-11.7-.5l-2.59,1.33c.78,2.32,2.06,4.62,4.19,5.8,5.16,2.86,11.5-2.22,17.29-1.1,4.13.8,7.09,4.73,8,8.84s.17,8.39-.65,12.52a299.67,299.67,0,0,1-7.43,29.4,10.79,10.79,0,0,1-1.38,3.21c-2.64,3.72-8.28,2.91-12.67,1.69l-4.31-9.15c-1.86-5.15-3.74-10.38-4.14-15.84-.3-4.08.25-8.18.22-12.27-.07-9.26-3.06-18.23-6.21-26.94-1.07-3-2.23-6-4.5-8.24-3.18-3.07-8-3.86-12.37-3.66a35.4,35.4,0,0,0-16.84,5.19l-2.52,8.94c1.75,1.63,2.1,4.24,2.34,6.62.41,4.13.78,8.37-.34,12.36-1.81,6.49-7.39,11.83-7.53,18.56l-3.09,6.29c-.93,10.63-1.48,21.4.35,31.92s6.23,20.84,13.95,28.21c3.21,3.08,6.93,5.57,10.36,8.4a73.54,73.54,0,0,1,23.27,36c5.22,17.84,4.27,37.51,12.6,54.12l27.12,3c8,10,15,20,35,28l38.33,43.81c3.35,16.18,6.13,34.86-4.33,47.65-4.88,6-12.29,10-15.35,17.1-1.52,3.55-1.78,7.49-2,11.35a525.22,525.22,0,0,0,2,77.72c1.07,10.75,2.49,21.55,6.1,31.72s9.42,19.59,15.39,28.68c14.59,22.22,31.36,44.15,54.64,57l7.31,12.68c-4.66,17-4.95,34.85-5.19,52.48-1.1,82-1.49,164.5,12.55,245.28,1.49,8.57,3.88,18.19,11.47,22.45a19.52,19.52,0,0,0,9.41,2.26c10.61.12,20.62-6,27.23-14.27s10.22-18.6,12.58-29l-1.32-13.39a1080.63,1080.63,0,0,1,26.26-275.82c2.47-10.83,5.5-22.31,13.75-29.74,4.73-4.25,10.76-6.76,16-10.4s9.91-9.19,9.64-15.55c-.46-11-14.77-17-16.68-27.86-2.67-15.13,19.49-24.45,20.41-39.78.31-5-1.77-9.79-3.3-14.56-8.23-25.63.21-55.8,20.53-73.45L1193,1872c2.35-2.12,2.94-4,4.81-6.56a79.93,79.93,0,0,0,34.13,13.91l9,6.24c6.83,4.93,11.38,12.38,15.07,20a65.55,65.55,0,0,1,5.21,13.78,42.55,42.55,0,0,1,1.06,11.69,19.48,19.48,0,0,1-4.53,12.64,44.06,44.06,0,0,1-31.82,16.89l-7.53,9.36a39.91,39.91,0,0,1-18.26,13.61,30.26,30.26,0,0,0,24.81,18.69c-3,.48-5.4,2.64-7.23,5-3.5,4.57-5.34,10.17-7.46,15.52s-4.74,10.79-9.28,14.34c9.17,3.25,19.93.29,28.62,4.67l7.2,13.1c14,9.41,34-2.18,49.54,4.35,20.29,8.51,19,39.91,36.42,53.3,10.53,8.08,25.39,7.48,38.2,4s25-9.55,38.14-11.25c42-5.43,75.27,32.52,112.71,52.31,31.29,16.55,71.41,20,101.38,1.18s43.69-63.06,23.28-92c-6.48-9.18-15.76-16.44-20.45-26.65-4.49-9.8-4.16-21-6-31.65-4.55-26.68-24-50.3-49.39-59.84-9-3.37-19-5.33-25.82-12-13.21-12.94-5.79-37.93,10.7-46.31s37.09-3.39,52.49,6.86,27.06,25.07,39.87,38.41,27.9,25.87,46.08,29.28c26.74,5,52.63-10.54,79.45-15.1s54.66,2.09,81.8-1c4.74-.54,9.55-1.41,13.73-3.71,9.78-5.38,14-17.63,13.36-28.78-1.65-27.38-26.12-47.18-38.15-71.83-8.22-16.84-10.54-36-10.75-54.69,0-3.7,0-7.51,1.43-10.93,5.74-13.79,25.57-10.7,40.45-9.3,32.81,3.1,66.54-16.73,79.77-46.92s5-68.43-19.52-90.47c-7.42-6.68-17.11-16.14-11.92-24.68,2.15-3.55,6.29-5.27,10-7,27.83-13,48.15-40.91,52-71.39l3.41-27.1c2.88-42.6-6-88.29-35.22-119.4-7.56-8-16.45-15-26.66-19.15-19.92-8.09-43.2-4.6-62.28,5.31s-34.53,25.6-48.13,42.26c-4.82,5.91-12.15,12.67-18.95,9.19-6.15-3.15-5.91-11.74-7.14-18.53-2.8-15.51-17.62-26.75-33.11-29.64s-31.45,1.06-46.29,6.36c-5.83,2.08-11.72,4.4-17.91,4.59s-12.88-2.23-16-7.61c-2.09-3.67-2.21-8.09-3-12.24-2.4-12.62-11.45-23.42-22.71-29.6l-10.25-13.26c-.64-8.9,10.59-13.14,19.41-14.5,47.66-7.35,95.84-13.08,141.92-27.27,15.65-4.82,31.2-10.71,44.52-20.24s24.31-23.08,28-39c1.71-7.38,1.85-15.09,4-22.34,4.45-14.68,16.82-25.7,30.19-33.21s28.1-12.29,41.74-19.3c3.57-1.84,7.15-3.9,9.65-7,4.06-5.07,4.63-12,4.38-18.54-1.47-38.39-28-74.65-64.09-87.72s-76.94-4-113.57-15.32c-10.25-3.16-21.71-10.66-20.54-21.33,1.18-10.85,14.1-15.54,24.79-17.74,50.81-10.49,103.21-18.54,149-43l16.49-11.91c3-35.73,30.15-68.18,64.78-77.47,6.65-1.79,13.94-3,18.77-7.93,5.6-5.71,6.11-14.55,6.12-22.55C2037.2,772.23,2032.48,729.66,2013.85,692.56ZM1118,1776.05l-3.21-8c-.69-4.15,0-4.8.26-9,0-.71,2.62-4.93,4-5,5.9-.29,11.14-3.59,16.6-5.86a32.32,32.32,0,0,0,0,21.14,32.88,32.88,0,0,1,12.39-3.77l3.52,4.53,5.75,6.44L1159,1783c-3.22-.83-6.21-.35-9.43-1.18a68.46,68.46,0,0,0-9.27-1.94c-2.68-.31-5.38-.3-8.06-.51A49.48,49.48,0,0,1,1118,1776.05Zm43.1,42.08-6.72-2.22a168.83,168.83,0,0,1-22.33-20.43c-.41-.44-.85-1-.66-1.6s1.06-.8,1.75-.83a64.94,64.94,0,0,1,39.33,11.38A126.14,126.14,0,0,1,1161.05,1818.13Zm47.92-128.2a2,2,0,0,1,1-.91l6.89-4.07c5-3,10.35-6.26,12.87-11.54l7.16-.07c.72,2.49-1,4.94-2.45,7.09-3.37,5-5.64,10.69-7.89,16.3a77,77,0,0,0-4,11.84c-1.66-1.52-4.18-1.77-5.89-3.24-1.38-1.19-2-3-2.91-4.59s-2.28-3.18-4.11-3.23c-.22-2.23-.45-4.47-.68-6.7A2,2,0,0,1,1209,1689.93Zm-6.36,34.15a14.91,14.91,0,0,1,3.07-5.35,9.76,9.76,0,0,1,7.16-2.44,22.85,22.85,0,0,1,7.5,1.87.78.78,0,0,1,.46.33c.13.24,0,.53-.15.77l-10.36,17.51-4.85-7.83-2.6-3.24a1.26,1.26,0,0,1-.23-1.62Zm-.54,121.6c-3.16,2.21-6.07,5.32-10.07,6.32-1,.24-3.12-1.28-3.29-2.62l-2.21-5.08c-.79-7.32,3.27-14.19,7.17-20.43a91.3,91.3,0,0,1,7.45,8.39,4.73,4.73,0,0,1,1.33,3c-.06,1.14-.9,2.06-1.49,3C1199.53,1840.64,1199.74,1844.19,1202.07,1845.68Zm26.56,22.35c-4.36.81-8.9-.33-12.85-2.34a61.2,61.2,0,0,1-10.84-7.65c4.17-2.14,7.56-5.51,10.81-8.89s6.49-6.86,10.49-9.31,8.94-3.77,13.43-2.41Zm10.47-55.62-4.61,7.35-7.5,2.93a2.08,2.08,0,0,1-1.14.2c-.53-.12-.86-.65-1.28-1-1-.8-2.34-.7-3.57-.94-2.27-.45-4.08-2.11-5.85-3.61a59,59,0,0,0-13.55-8.59c.81-3.89,2.72-7.45,4.57-11,9.56-18.21,17.95-37,26.34-55.79l.53,12.78c.4,9.53.87,19.33,4.79,28,1.55,3.45,3.64,6.7,4.51,10.38C1243.86,1799.6,1241.46,1806.24,1239.1,1812.41Zm-63.25-382.1-7.72-19.83a35.09,35.09,0,0,1,6.91,4.93c10.78,9.07,22.16,19.07,25.51,32.75l-5.44,5.35c-5.11-1.17-9.39-4.8-12.41-9.09S1177.75,1435.2,1175.85,1430.31Zm-60.54-134a209.05,209.05,0,0,1,14.51,41.52l-10.84,8.07c-8.73,2.15-17.55-2.5-25.34-7L1074,1327.6c-6.78-3.91-14.12-8.5-16.35-16-.82-2.76-.8-5.93.8-8.32,2.87-4.25,9.1-4.25,13.47-7,6.52-4,8-13.46,14.45-17.59,5.42-3.46,12.89-2,18,2S1112.57,1290.53,1115.31,1296.34Zm-16.7,139.13a69.6,69.6,0,0,0-.09-8.17,7.33,7.33,0,0,0-.37-2.13,6.35,6.35,0,0,0-1.78-2.37c-1.82-1.66-4-2.87-5.94-4.36a11.6,11.6,0,0,1-4.45-5.73,14.68,14.68,0,0,1-.25-4.91q.19-3,.37-5.92l.35-3.65c.86-2.93,1.73-5.86,2.59-8.79,1.35-4.55,2.93-9.44,6.8-12.19l7.59-8.62c8.31,3.46,14.5,10.47,21.39,16.27a86.93,86.93,0,0,0,19.39,12.36,11.17,11.17,0,0,1,3.6,2.21c1.36,1.44,1.8,3.5,2.22,5.44a147,147,0,0,0,10.34,30.77l-2.63,13.7a69.81,69.81,0,0,1-24.59,25.69c-4.29,2.62-9,4.81-14,5.11s-10.38-1.6-13.2-5.76a21.46,21.46,0,0,1-2.57-6.21,117.93,117.93,0,0,1-4.4-29.75Zm39.55-72.69c2.3,7.15,3,14.74,5.51,21.83a99.17,99.17,0,0,1-28.73-23.36l9.58-15.45C1131.51,1348.54,1135.87,1355.63,1138.16,1362.78Z"></path>
    <path data-name="1a" data-official="" data-plain="Flower partly separated" data-loc="" d="M1310.28,2296a51.85,51.85,0,0,1,17.88-46.52c12.9-10.68,30.09-14.31,45-22,13.81-7.17,25.46-17.78,37.53-27.6s25.14-19.13,40.22-22.94,32.7-1.08,43.24,10.37c5.23,5.68,8.32,13,11.25,20.11,16.42,40.17,30.7,84.19,20.39,126.35-1.29,5.27-3,10.55-6.25,14.91-6.85,9.2-19,12.51-30.44,13.9-10.25,1.24-22,.89-29-6.65-11.35,14.9-28.32,24.83-46.21,30.4s-36.79,7.08-55.52,7.6c-12.74.36-26,.16-37.43-5.52s-20.3-18.41-17.5-30.84c1.35-6,5.1-11.06,8.63-16.06s7-10.35,7.73-16.44-2.34-13-8.2-14.77Z"></path>
    <path data-name="1b" data-official="" data-plain="Seed-vessel" data-loc="" d="M1571.6,2356.77c-12.16-17.58-8.67-44.15,7.62-58,14.17-12,36.86-13.28,51.48-1.8s18.46,35,7.24,49.81c-5.56,7.37-14.25,12.71-17.1,21.49a30,30,0,0,0-1.2,8.27c-.34,10.83,1.54,22.53-4,31.83-5.15,8.64-15.6,12.83-25.62,13.61-6.79.53-13.87-.3-19.81-3.64s-10.56-9.47-10.89-16.27c-.69-14,15.8-26,11.68-39.42Z"></path>
    <path data-name="1c" data-official="" data-plain="Seed" data-loc="" d="M1645.72,2368.64a41.12,41.12,0,0,1,60.19-36.64,32.07,32.07,0,0,1,8.45,6.25c8.43,9,8.87,24.36,1,33.82-4.23,5.07-10.38,8.46-13.77,14.12-4.71,7.85-3.09,18.34-7.93,26.1-5.59,9-17.56,11.15-28.11,11.47-6.27.19-12.68,0-18.58-2.13s-11.26-6.52-13.19-12.49c-2.78-8.63,2-17.69,6.71-25.47Z"></path>
    <path data-name="2" data-official="Corydalis lutea" data-plain="Yellow Corydalis" data-loc="England" d="M1261.24,1919.33a42.55,42.55,0,0,1,1.06,11.69,19.48,19.48,0,0,1-4.53,12.64,44.06,44.06,0,0,1-31.82,16.89l-7.53,9.36a39.91,39.91,0,0,1-18.26,13.61,30.26,30.26,0,0,0,24.81,18.69c-3,.48-5.4,2.64-7.23,5-3.5,4.57-5.34,10.17-7.46,15.52s-4.74,10.79-9.28,14.34c9.17,3.25,19.93.29,28.62,4.67l1.4,12.89q.68,128.84,1.33,257.66c.05,9.47-.06,19.51-5,27.56-6.64,10.72-19.92,14.9-32.1,18.18-3.33.89-6.89,1.78-10.17.72-3-1-5.3-3.46-7.39-5.85q-6.35-7.26-12.33-14.79c-4.61-5.79-9.15-11.84-11.48-18.87-2.1-6.32-2.3-13.09-2.45-19.74a1972.07,1972.07,0,0,1,6.5-210.94l2.74-12a86.65,86.65,0,0,0,2.29-18.57l-1.48-10.94c-.46-11-14.77-17-16.68-27.86-2.67-15.13,19.49-24.45,20.41-39.78.31-5-1.77-9.79-3.3-14.56-8.23-25.63.21-55.8,20.53-73.45L1193,1872c2.35-2.12,2.94-4,4.81-6.56a79.93,79.93,0,0,0,34.13,13.91l9,6.24c6.83,4.93,11.38,12.38,15.07,20A65.55,65.55,0,0,1,1261.24,1919.33Zm-58.63-195.25a1.26,1.26,0,0,0,.23,1.62l2.6,3.24,4.85,7.83,10.36-17.51c.14-.24.28-.53.15-.77a.78.78,0,0,0-.46-.33,22.85,22.85,0,0,0-7.5-1.87,9.76,9.76,0,0,0-7.16,2.44A14.91,14.91,0,0,0,1202.61,1724.08Zm-41.56,94.05a126.14,126.14,0,0,0,11.37-13.7,64.94,64.94,0,0,0-39.33-11.38c-.69,0-1.54.18-1.75.83s.25,1.16.66,1.6a168.83,168.83,0,0,0,22.33,20.43ZM564.44,897.32l-5-5L545.09,880a10.81,10.81,0,0,0-3.65-2.36c-2.56-.81-5.25.36-7.81,1.17a30.79,30.79,0,0,1-26.32-3.88,11.54,11.54,0,0,1-5.42,10.76c-.87.52-1.9,1-2.18,2a5.68,5.68,0,0,0,.22,2.3c.48,3.33-2.7,5.87-5.05,8.28A22.29,22.29,0,0,0,489,917.11a3.68,3.68,0,0,0,.85,2.07c.77.76,2,.76,3.06.79,9.55.24,18.06,5.72,26,11,2.19,1.46,4.61,3,7.24,2.78,4.29-.31,6.84-4.74,9-8.47s5.85-7.73,10-6.51c2.67-7.11,11-9.84,17.28-14.14a8,8,0,0,0,3.06-3.25A3.28,3.28,0,0,0,564.44,897.32Zm575.86,882.56a68.46,68.46,0,0,1,9.27,1.94c3.22.83,6.21.35,9.43,1.18l-1.77-6.52-5.75-6.44-3.52-4.53a32.88,32.88,0,0,0-12.39,3.77,32.32,32.32,0,0,1,0-21.14c-5.46,2.27-10.7,5.57-16.6,5.86-1.38.07-4,4.29-4,5-.28,4.2-1,4.85-.26,9l3.21,8a49.48,49.48,0,0,0,14.29,3.32C1134.92,1779.58,1137.62,1779.57,1140.3,1779.88ZM481.83,869.67l18.56-11.23a6.42,6.42,0,0,0,1.78-1.4,6.69,6.69,0,0,0,1-3.27,47.16,47.16,0,0,1,6.45-18.39l.46-6.12a33.73,33.73,0,0,0,12.79-18.54,3.6,3.6,0,0,0,.17-1.59,4.58,4.58,0,0,0-1.2-1.9c-2.05-2.44-3-5.57-4-8.6A246.26,246.26,0,0,0,504.43,766c-1.17-2.35-2.49-4.81-4.76-6.12a11.73,11.73,0,0,0-5.88-1.21c-10.71-.06-20.88,4.34-30.69,8.65L436,779.23c-3,1.33-6.2,2.8-8,5.56l-1.73,7.51c2.48,5,.83,11.24-2.58,15.65s-8.3,7.4-13,10.32q-17.79,11-35.09,22.7c-3.42,2.32-7,4.85-8.67,8.62-1.48,3.3-1.3,7.12-.42,10.63,1.19,4.73,3.57,9.07,5.22,13.66s2.52,9.79.64,14.3-6,7.44-9.4,10.91a37,37,0,0,0-10,20.17c-.38,2.57-.32,5.59,1.69,7.24a8.25,8.25,0,0,0,4.59,1.39c9.46.87,20.31,1.46,26.13,9a9.93,9.93,0,0,0-7.45,6.86l9,7.18a52,52,0,0,1,16.79,8c3.05,2.2,5.95,4.85,7.39,8.32a21.75,21.75,0,0,1,1.3,8,77.64,77.64,0,0,1-2.25,20.08c-2.33,9.37-6.4,18.34-7.64,27.92s1.13,20.5,9.07,26c5.7,4,13.08,4.36,20,4.3s14-.44,21-1.14l2.74-6.18a22.7,22.7,0,0,0,3.12-22.47c-2.08-5-6-9.16-7.45-14.35-1.05-3.63.15-17.48.2-21.25.13-9.39-1.69-8.77-2.52-18.13a16.74,16.74,0,0,1-5.79-7.23l-1.1-5.76c-1.19-3.67.28-7.7,2.39-10.92s4.89-6,6.76-9.39l-1.07-12.17q-2.57-6.46-5.11-12.93a10.08,10.08,0,0,0-1.75-3.2,21.91,21.91,0,0,0-2.91-2.22c-5.16-4-2.65-10.81-1.9-17.32a5.25,5.25,0,0,0-.29-3.12,9.7,9.7,0,0,0-1.73-1.84c-3.58-3.69.08-12.79,2.9-17.08-2.82-4-5.65-7.24-4.18-11.86a15.89,15.89,0,0,1,9.81-10c1.5-3.26,3.13-6,6.33-7.6l.14-2.63c5.53-8.76,17.83-12.48,27.28-8.26a5.35,5.35,0,0,1,3.17,2.84,7.83,7.83,0,0,1,.18,2.42c0,3.65,1.48,7.14,1.94,10.76a39.25,39.25,0,0,1-.15,8.39Q482.67,860.28,481.83,869.67Zm731.88,831.07c.88,1.6,1.53,3.4,2.91,4.59,1.71,1.47,4.23,1.72,5.89,3.24a77,77,0,0,1,4-11.84c2.25-5.61,4.52-11.28,7.89-16.3,1.44-2.15,3.17-4.6,2.45-7.09l-7.16.07c-2.52,5.28-7.83,8.56-12.87,11.54l-6.89,4.07a2,2,0,0,0-1,.91,2,2,0,0,0,0,.88c.23,2.23.46,4.47.68,6.7C1211.43,1697.56,1212.83,1699.14,1213.71,1700.74ZM1395.85,487.21c-10.77,21.31-28.73,38.36-48.9,51.14l-8.32,17.73a109.77,109.77,0,0,1-41,52.2c-7.9,5.34-16.67,9.79-22.86,17.05-4.22,5-7,11-10.82,16.26A102.53,102.53,0,0,1,1252.78,654l-17.65,17.55c-7.26,7.21-15.12,16.33-13,26.33,2.1,9.76,13.16,15.89,14.58,25.78.84,5.77-1.92,11.52-5.65,16s-8.41,8.06-12.44,12.27A56.36,56.36,0,0,0,1204,780.51c-1.26,6.89-1.23,14-3,20.79s-5.94,13.5-12.56,15.78l-5,6.83-20.44-.78c-7.59,1.15-15.32-.85-22.42-3.76s-13.8-6.75-20.94-9.55c-6.28-2.46-12.86-4.11-19.08-6.72-8.68-3.65-17.49-9.3-26.73-7.48-7,1.38-12.5,6.89-16.32,12.92a54.2,54.2,0,0,0-6.4,42.86l6.36,10.44c3.16,4.41,8,7.35,12.81,9.76,24.38,12.13,52.46,13.63,78.88,20.22,5.33,1.33,10.76,2.95,15,6.4s7.16,9.15,5.8,14.47c-.58,2.27-1.88,4.34-2.23,6.66-1,7,6.5,12.19,8.5,19,1.67,5.7-.76,11.7-3.14,17.14-5,11.46-10.1,23-17.22,33.28-4,5.71-8.62,11.21-10.36,17.94L1154,1034c2,2,3,12,7,14,2.5,1.25,10,44.3,8.3,46.55-3.22,4.34-9.52,4.66-14.25,7.28a6.22,6.22,0,0,0-2.81,2.65c-1.17,2.56.75,5.55,3.09,7.11s8.41,1.6,7.31,4.19c-2.64,6.22,3.36,10.22,3.72,12.92.63,4.62-2.15,9.12-2.4,13.78-.55,10.31,7.14,21,17.42,22l8.15,8.21a45,45,0,0,1,3.86,34.7c-1.09,3.6-2.71,7.17-5.53,9.67l-3.34,4.68a2.43,2.43,0,0,1-1.58,2,6.17,6.17,0,0,1-1.54.29,52.63,52.63,0,0,0-7.88,1.49,3,3,0,0,0-1.34.63,3.07,3.07,0,0,0-.58,1l-2.35,5.38-3.89,10.76a21.34,21.34,0,0,1-6.85,12.89c-2.22,2-5,3.63-6.16,6.34a17.69,17.69,0,0,0-8.13-6.33,5.84,5.84,0,0,1-2.71,2.67,40,40,0,0,0-7-3.44c-2.13-.88-4.92-1.63-6.45.1a5.23,5.23,0,0,0-.85,3.79,31.2,31.2,0,0,0,2.64,10.79l1.42,21.94a154.68,154.68,0,0,0,20,49l.24,9.3a290.15,290.15,0,0,1,10.6,41,9.15,9.15,0,0,0,1.21,3.67,8.76,8.76,0,0,0,2,1.88c9.07,7,18.73,13.43,26.74,21.66,11.79,12.11,19.53,27.75,31.65,39.52l1.51,6.06q2.49,19.08,5,38.18c.52,4,1,7.91,1.34,11.89.36,4.68.42,9.37.47,14q.11,8.14.2,16.3L1233,1557c-.67,4.59-6,7.43-9,11-1.21,1.46-.36,8.47-6.46,13.63-7.54,6.37-12.74,16.41-17.47,25.7-5.2-1.28-9.17-5.73-11.22-10.68s-2.48-10.4-2.8-15.75-.59-10.79-2.34-15.85c-1.9-5.46-5.43-10.18-9-14.69a67.7,67.7,0,0,0-8.78-9.44,38.4,38.4,0,0,0-22.23-8.89,21.67,21.67,0,0,0-7.05.57,22.17,22.17,0,0,0-6.47,3.23,44.07,44.07,0,0,0-18.57,30.22c-.58,4.46-.47,9-1.15,13.44s-2.25,9-5.57,12c-1.08,1-2.31,1.78-3.35,2.79-3.85,3.75-4.48,9.62-4.74,15l.14,8.46c-1.87,18.59,11,35.16,15.69,53.24,1.11,4.29,1.77,8.71,3.22,12.89,1.89,5.49,5.13,10.56,6,16.3l-1.53,10.18-10.72-.2a79.76,79.76,0,0,0-15,.67L1082,1701l-43.33-60.55c-13.66-19.1-27.34-38.21-41.91-56.63l-6.18-7.19a40.69,40.69,0,0,0-8.93-27,79.79,79.79,0,0,0-8.85-8.88l-51.3-46.35-12.49-11c1.6-7.34,4.52-14.76,10.28-19.58,8.72-7.31,21.74-7,31.16-13.37,8.3-5.62,12.5-15.45,16.27-24.73l14.36-35.37a58.84,58.84,0,0,1,2.74-6.06c1-1.89,2.27-3.67,3.23-5.61a34.3,34.3,0,0,0,2.78-9.59c.82-4.89,1.24-10,.14-14.79s-3.9-9.47-8.25-11.87l-9.84-1.93c-7.36-3.72-16.63-1.67-23.31,3.16s-11.27,12-15.31,19.19a129.14,129.14,0,0,0-6.53,13c-2.35,5.56-4.29,11.58-8.69,15.7l2.33-4.68q3.17-12.27,6.31-24.53c2-7.66,4-15.43,7.87-22.32,5.73-10.15,15.14-17.74,21.42-27.56,8.63-13.5,10.7-30.38,8.8-46.29s-7.46-31.13-13.16-46.11c-2.17-5.71-4.39-11.46-5.48-17.48-.6-3.26-.86-6.58-1.35-9.87a72.43,72.43,0,0,0-2.39-10.57l-2.38-9.76q-15.18-.95-30.29-2.75L905,1179.78a461.8,461.8,0,0,0-5,58.49l1.11,7-.36,11.49a21.7,21.7,0,0,0,.4,6.13,7.22,7.22,0,0,0,3.57,4.79c3,1.46,6.75-.13,9.94.9a12.7,12.7,0,0,1,3.62,2.15l10.51,8,6.58.74,6.27,1.22a12,12,0,0,1,3.94,1.26c2,1.25,3.14,3.63,3.67,6,1.07,4.67.15,10-3.34,13.32-4.07,3.82-10.27,3.91-15.85,3.78l-7-2.36c-3.75-.38-6-5.19-9.81-5.19-2.12,0-4,1.63-5,3.49a3.32,3.32,0,0,1-.94,1.26,2.5,2.5,0,0,1-1.6.25c-4.18-.42-7.55-3.44-10.9-6s-7.64-4.78-11.61-3.4L876,1300.8q-3.5,35.42-10.38,70.37l-1.47,6.7a40.34,40.34,0,0,0-.35,16.84l0,7.42c2.1,5.64,4.3,11.45,8.44,15.83a59.57,59.57,0,0,0,5.62,4.9,86.5,86.5,0,0,1,24.33,32.54l1.83,2.84a10.42,10.42,0,0,1,.75,4.75c-.36,2.26-2.12,4-3.47,5.84a18.37,18.37,0,0,0-3.48,10.18l-1-1.62a25.24,25.24,0,0,0-15.46-16.1,25.33,25.33,0,0,0,3-19.58c-.65-2.52-2-5.21-4.44-6-3.43-1.12-6.78,1.88-10.34,2.43-8.77,1.33-14.45-11.92-23.27-11l-4-6.21a59.11,59.11,0,0,0-5-20,118.45,118.45,0,0,0-9.15-15.75l-26.54-40.72c-1.08-1.67-2.25-3.41-4-4.33-3.85-2-8.42.72-11.73,3.55s-7.19,6.09-11.44,5.16l-10.89,7.34c-5-11.66-10.67-24-21.52-30.62a44.45,44.45,0,0,0,13.39-6.22,4.17,4.17,0,0,0,1.55-1.57c.93-2-1.51-4.05-1.74-6.28-.2-2,1.43-3.7,2.57-5.39,3.11-4.63,2.83-10.68,2.17-16.22a178.92,178.92,0,0,0-6.24-30.13c-.88-3-2-6.14-4.63-7.8-2.85-1.81-6.82-1.17-9.41,1a12.34,12.34,0,0,0-3.93,6.9c.4-5.74-4-11.66-9.79-12.48-2-.27-4.15-.07-5.84-1.15a8.29,8.29,0,0,1-2.51-3c-12.44-21.65-14.07-48.27-26.86-69.71l2.18-11.81A29.87,29.87,0,0,1,717,1147.71c6.35-.18,12.57,1.71,18.55,3.84,10.14,3.62,20.55,8.46,26.53,17.41l.35-5.73v-13.3l-4.28-5.4c-2.06-5.81-6.52-10.39-10.86-14.77s-8.68-8.71-14.24-11.11c-4.85-2.1-10.24-2.52-15.39-3.71a36.45,36.45,0,0,1-15.53-7.37,22.73,22.73,0,0,1-8.15-14.83l3.22-6.57c4.4-14.06,14.28-25.8,19.44-39.59a45.43,45.43,0,0,1,3.29-7.84,44,44,0,0,0,3.3-5.22c.83-1.89,1-4.31-.44-5.84l-2.76-5.57a41.24,41.24,0,0,1-21.83-12.19,34.84,34.84,0,0,0-5.1-5.06,27.56,27.56,0,0,0-4-2.18,128.33,128.33,0,0,1-15.21-8.57A54.24,54.24,0,0,0,677.54,965l7.44-5c4.08-10.58,3.91-22.25,3.67-33.59,0-1.93-.17-4.08-1.58-5.4s-4.43-.6-4.29,1.32c-1.47-6.75,2-14.76-2.25-20.22-2.83-3.65-8.14-4.55-11.21-8L652,884.46c-7-6.92-15.93-11.53-25.27-14.53s-19.09-4.46-28.8-5.83l-8.83-3.7a205.35,205.35,0,0,1-5.29-21.73l8.56-3.81c13.23-3.61,27.19,1.73,39.32,8.13s24.12,14.12,37.75,15.69a3.77,3.77,0,0,0,4.77-2.59c4.76-9.89,5.67-21.14,6.17-32.1.32-6.83.5-13.77-1.16-20.41-2-8-6.56-15.11-10.52-22.36-4.2-7.69-7.85-15.88-8.79-24.59s1.16-18.07,7.2-24.42l3.18-7.47a85.59,85.59,0,0,1,57.91-40.21,151.85,151.85,0,0,1,23.25-1.83q14.85-.35,29.71-.13a126.28,126.28,0,0,1,20,1.44c22.14,3.9,40.76,18.29,58.4,32.22l6.48,7.5c15.65,34.77,21.28,73.06,26.75,110.79q5.88,40.56,11.77,81.14l.7,19.27c.15,9.27,5.57,18.21,4,27.34L900.81,982A225.91,225.91,0,0,1,936,977.1l4.66-8.52V952l-2.16-4.82c-5-.61-9.29-4.4-11.7-8.89s-3.28-9.63-4-14.68c-1.2-8.82-2-17.7-2.86-26.56a978.63,978.63,0,0,0-23.87-138.09l7.38-6.44c1.27-1.81,2.53-3.63,3.8-5.45l6.07-2.2c7.63-1.78,16.09-4.17,20-11,2.38-4.13,2.54-9.13,2.7-13.9a688.33,688.33,0,0,1,21.07-147.89l3.59-13.29c-3.9-50.21,18.1-101.74,57.06-133.65,13.12-10.74,27.88-19.28,43-27,9.6-4.95,19.49-9.64,30.08-11.77,28.14-5.64,59.41,7.06,85-5.83,19.44-9.78,30.83-32.37,51.4-39.47,11.74-4,24.63-2.32,36.83,0a420.94,420.94,0,0,1,54.76,14.52c33.55,11.31,68.6,29.47,81.8,62.32C1409.54,440.05,1406.61,465.9,1395.85,487.21ZM943.61,1162.28l-.32-18.53a10.63,10.63,0,0,1-10.85-3.53,14.37,14.37,0,0,1-14.85,2.43c-1.89-.81-3.73-2.06-5.79-2-2.58.09-.68,2.34-1.44,4.81s-.47,5.13-.17,7.69l.8,7.3,11.32,1.62C929.39,1163.1,936.69,1164.1,943.61,1162.28Zm224.52,248.2,7.72,19.83c1.9,4.89,3.83,9.83,6.85,14.11s7.3,7.92,12.41,9.09l5.44-5.35c-3.35-13.68-14.73-23.68-25.51-32.75A35.09,35.09,0,0,0,1168.13,1410.48Zm-23.92-13.22a86.93,86.93,0,0,1-19.39-12.36c-6.89-5.8-13.08-12.81-21.39-16.27l-7.59,8.62c-3.87,2.75-5.45,7.64-6.8,12.19-.86,2.93-1.73,5.86-2.59,8.79l-.35,3.65q-.18,3-.37,5.92a14.68,14.68,0,0,0,.25,4.91,11.6,11.6,0,0,0,4.45,5.73c2,1.49,4.12,2.7,5.94,4.36a6.35,6.35,0,0,1,1.78,2.37,7.33,7.33,0,0,1,.37,2.13,69.6,69.6,0,0,1,.09,8.17l.35,3a117.93,117.93,0,0,0,4.4,29.75,21.46,21.46,0,0,0,2.57,6.21c2.82,4.16,8.19,6.06,13.2,5.76s9.73-2.49,14-5.11a69.81,69.81,0,0,0,24.59-25.69l2.63-13.7a147,147,0,0,1-10.34-30.77c-.42-1.94-.86-4-2.22-5.44A11.17,11.17,0,0,0,1144.21,1397.26Zm-19.69-51.46-9.58,15.45a99.17,99.17,0,0,0,28.73,23.36c-2.48-7.09-3.21-14.68-5.51-21.83S1131.51,1348.54,1124.52,1345.8Zm-52.61-49.47,2.08,31.27,19.65,11.33c7.79,4.5,16.61,9.15,25.34,7l10.84-8.07a209.05,209.05,0,0,0-14.51-41.52c-2.74-5.81-5.9-11.68-11-15.61s-12.55-5.45-18-2C1079.9,1282.87,1078.43,1292.3,1071.91,1296.33Zm143.24,521c1.77,1.5,3.58,3.16,5.85,3.61,1.23.24,2.62.14,3.57.94.42.35.75.88,1.28,1a2.08,2.08,0,0,0,1.14-.2l7.5-2.93,4.61-7.35c2.36-6.17,4.76-12.81,3.24-19.24-.87-3.68-3-6.93-4.51-10.38-3.92-8.69-4.39-18.49-4.79-28l-.53-12.78c-8.39,18.78-16.78,37.58-26.34,55.79-1.85,3.52-3.76,7.08-4.57,11A59,59,0,0,1,1215.15,1817.34ZM735.71,1259.73a19.39,19.39,0,0,0-.33,2A9.18,9.18,0,0,0,735.71,1259.73Zm490.53,580.11c-4,2.45-7.24,5.93-10.49,9.31s-6.64,6.75-10.81,8.89a61.2,61.2,0,0,0,10.84,7.65c4,2,8.49,3.15,12.85,2.34l11-30.6C1235.18,1836.07,1230.24,1837.39,1226.24,1839.84Zm-32.57-16c-3.9,6.24-8,13.11-7.17,20.43l2.21,5.08c.17,1.34,2.32,2.86,3.29,2.62,4-1,6.91-4.11,10.07-6.32-2.33-1.49-2.54-5-1.11-7.4.59-1,1.43-1.89,1.49-3a4.73,4.73,0,0,0-1.33-3A91.3,91.3,0,0,0,1193.67,1823.87Zm-516.2-613.71A18.5,18.5,0,0,0,667,1189.24l-31.51-8.8c0,9,0,18.31,3,26.84l5.26,34.84a91.57,91.57,0,0,0,10.22,29ZM660,1388c-7.93-21.14-16.43-47.86-20.83-70L629,1307a165.31,165.31,0,0,1-40.8-6.33l-7.53-1.44q-27.58,1.07-55.1,3.53c-6,.54-12.15,1.16-17.71,3.53l-8.88,8.58c10.11,2.28,20.48,3.28,30.6,5.51s20.23,5.86,28.09,12.61c8.43,7.24,13.63,17.45,18.61,27.39,4.71-7.59,14.65-9.62,23.47-11s18.77-3.53,23.33-11.21c-1.36,6.57,4.86,11.89,9.25,17,9.51,11,13.89,26.41,14.65,40.95.2,3.8-1,14.91-4,18.91,8,1,9.92-1.92,13.53-3.14Z"></path>
    <path data-name="3" data-official="Corydalis tuberosa" data-plain="Hollow-rooted Corydalis" data-loc="Europe" d="M948,2196.09l-20.09-7.58a105.79,105.79,0,0,0-36-15.16c-13.33-2.88-28.83-4.08-37-15-4.08-5.51-5.42-12.55-6.26-19.36-2.46-19.87-1.75-40-1.47-60a1389.8,1389.8,0,0,0-36.52-336.69L805,1727.45a232.73,232.73,0,0,1-10.46-75.83l10.19-24.33c-1.83-10.52-1.28-21.29-.35-31.92l3.09-6.29c.14-6.73,5.72-12.07,7.53-18.56,1.12-4,.75-8.23.34-12.36-.24-2.38-.59-5-2.34-6.62l2.52-8.94a35.4,35.4,0,0,1,16.84-5.19l13.87-9.94c-4.51-.91-9.26-1.45-13.16-3.91a20.58,20.58,0,0,1-7-8.21c-1.89-3.7-3.07-8-1.94-12,.53-1.86,1.52-3.55,2.17-5.37,2.16-6.08.21-12.77-1.74-18.92l-.51,0c9.7.1,18.28,6.57,24.29,14.19,3.88,4.92,7.14,11.2,5.49,17.25a15.43,15.43,0,0,0-.92,3.85,7.31,7.31,0,0,0,1.74,4.34l4,1a6.07,6.07,0,0,0,3.11-3.57c6-.45,12.67-1.3,16.24-6.09,2.65-3.55,2.8-8.3,2.84-12.72s.08-8.8.13-13.2l.62-.67c-5-4.6-11.24-8.17-17.37-11.13l-.24-2.83c-6.73-3.59-14.07-6.92-21.66-6.24-5,.45-9.71,2.63-14.41,4.47s-9.76,3.39-14.73,2.5-9.71-4.93-9.75-10c0-1.28,0-3-1.17-3.37-.71-.25-1.46.13-2.2.23-2.7.38-4.55-3.19-3.62-5.75s3.48-4.11,5.9-5.36a94.52,94.52,0,0,1,17.77-7l7-3.63c5.16-3,6.23-10.17,4.82-16a22.13,22.13,0,0,0-5.68-10.52l2-23.72-26.54-40.72c-1.08-1.67-2.25-3.41-4-4.33-3.85-2-8.42.72-11.73,3.55s-7.19,6.09-11.44,5.16l-10.89,7.34c-5-11.66-10.67-24-21.52-30.62a44.45,44.45,0,0,0,13.39-6.22,4.17,4.17,0,0,0,1.55-1.57c.93-2-1.51-4.05-1.74-6.28-.2-2,1.43-3.7,2.57-5.39,3.11-4.63,2.83-10.68,2.17-16.22a178.92,178.92,0,0,0-6.24-30.13c-.88-3-2-6.14-4.63-7.8-2.85-1.81-6.82-1.17-9.41,1a12.34,12.34,0,0,0-3.93,6.9c.4-5.74-4-11.66-9.79-12.48-2-.27-4.15-.07-5.84-1.15a8.29,8.29,0,0,1-2.51-3c-12.44-21.65-14.07-48.27-26.86-69.71l2.18-11.81A29.87,29.87,0,0,1,717,1147.71c6.35-.18,12.57,1.71,18.55,3.84,10.14,3.62,20.55,8.46,26.53,17.41l.35-5.73v-13.3l-4.28-5.4c-2.06-5.81-6.52-10.39-10.86-14.77s-8.68-8.71-14.24-11.11c-4.85-2.1-10.24-2.52-15.39-3.71a36.45,36.45,0,0,1-15.53-7.37,22.73,22.73,0,0,1-8.15-14.83l3.22-6.57c4.4-14.06,14.28-25.8,19.44-39.59a45.43,45.43,0,0,1,3.29-7.84,44,44,0,0,0,3.3-5.22c.83-1.89,1-4.31-.44-5.84l-2.76-5.57a41.24,41.24,0,0,1-21.83-12.19,34.84,34.84,0,0,0-5.1-5.06,27.56,27.56,0,0,0-4-2.18,128.33,128.33,0,0,1-15.21-8.57A54.24,54.24,0,0,0,677.54,965l7.44-5c4.08-10.58,3.91-22.25,3.67-33.59,0-1.93-.17-4.08-1.58-5.4s-4.43-.6-4.29,1.32c-1.47-6.75,2-14.76-2.25-20.22-2.83-3.65-8.14-4.55-11.21-8L652,884.46c-7-6.92-15.93-11.53-25.27-14.53s-19.09-4.46-28.8-5.83l-8.83-3.7a205.35,205.35,0,0,1-5.29-21.73l8.56-3.81c13.23-3.61,27.19,1.73,39.32,8.13s24.12,14.12,37.75,15.69a3.77,3.77,0,0,0,4.77-2.59c4.76-9.89,5.67-21.14,6.17-32.1.32-6.83.5-13.77-1.16-20.41-2-8-6.56-15.11-10.52-22.36-4.2-7.69-7.85-15.88-8.79-24.59s1.16-18.07,7.2-24.42l4.25-10.4a57.87,57.87,0,0,0-49.69-16.74c-1.91.29-4.1.61-5.56-.65-1.69-1.44-1.41-4.11-.76-6.23,4.6-15,19.59-24.71,25.47-39.26,4.32-10.67,3.21-22.91-.64-33.75S629.9,604.61,623.56,595c-8.2-12.45-16.52-25-27.42-35.21-9-8.42-19.59-15-30.29-21.13-14.28-8.19-29.35-15.85-45.69-17.8-21.36-2.55-42.51,4.86-62.73,12.2-9.46,3.43-19.12,7-26.9,13.39-14.78,12.15-20.16,32.19-23.22,51.08-6.22,38.4-6.3,77.49-6.37,116.39,0,9.74,0,19.56,1.95,29.1l3.66,14c2.05,8.44,10.29,14.24,18.8,16s17.32.34,25.89-1.11l11.86-4.6c9.81-4.31,20-8.71,30.69-8.65a11.73,11.73,0,0,1,5.88,1.21c2.27,1.31,3.59,3.77,4.76,6.12a246.26,246.26,0,0,1,13.37,32.64c1,3,2,6.16,4,8.6a4.58,4.58,0,0,1,1.2,1.9,3.6,3.6,0,0,1-.17,1.59,33.73,33.73,0,0,1-12.79,18.54l-.46,6.12a47.16,47.16,0,0,0-6.45,18.39,6.69,6.69,0,0,1-1,3.27,6.42,6.42,0,0,1-1.78,1.4l-18.56,11.23q.84-9.39,1.7-18.8a39.25,39.25,0,0,0,.15-8.39c-.46-3.62-1.93-7.11-1.94-10.76a7.83,7.83,0,0,0-.18-2.42,5.35,5.35,0,0,0-3.17-2.84c-9.45-4.22-21.75-.5-27.28,8.26l-.14,2.63c-3.2,1.62-4.83,4.34-6.33,7.6a15.89,15.89,0,0,0-9.81,10c-1.47,4.62,1.36,7.91,4.18,11.86-2.82,4.29-6.48,13.39-2.9,17.08a9.7,9.7,0,0,1,1.73,1.84,5.25,5.25,0,0,1,.29,3.12c-.75,6.51-3.26,13.3,1.9,17.32a21.91,21.91,0,0,1,2.91,2.22,10.08,10.08,0,0,1,1.75,3.2q2.55,6.46,5.11,12.93l1.07,12.17c-1.87,3.37-4.64,6.16-6.76,9.39s-3.58,7.25-2.39,10.92l1.1,5.76a16.74,16.74,0,0,0,5.79,7.23c.83,9.36,2.65,8.74,2.52,18.13-.05,3.77-1.25,17.62-.2,21.25,1.49,5.19,5.37,9.36,7.45,14.35a22.7,22.7,0,0,1-3.12,22.47l-2.74,6.18L451,1063.72l7.34,46.55,0,6.72c-2.2,15.3-7.89,29.87-10.89,45s-3,31.89,5.34,44.9c3.88,6,9.33,10.93,13.62,16.69,13.57,18.23,14,42.73,14,65.45l-.14,15.17a124.94,124.94,0,0,1-1.29,21.69c-.79,5.32-1.92,10.76-.76,16l-1.05,9.39a159.93,159.93,0,0,1,33.22-6.49c-2.62.88-4.24,3.59-4.84,6.3s-.4,5.51-.63,8.27c-1,12.19-10.18,22.07-19.78,29.63s-20.41,14.15-27.26,24.28a83.91,83.91,0,0,0-7,13.71c-9,20.67-18.11,41.58-22,63.78l1.85-1.6c8.56-14.88,17.28-29.85,28.92-42.47s26.57-22.87,43.48-25.86c1,5.93.53,12.26-2.24,17.6a40.18,40.18,0,0,1-5.42,7.48,188.52,188.52,0,0,1-40.24,35c-8.48,5.48-17.85,10.73-22.57,19.65-3,5.6-3.74,12.06-4.47,18.35l1.47-2.3c7.74-3.54,13.49-10.22,19.45-16.3,13-13.29,28.46-24.59,46-30.86s37.32-7.21,54.69-.5c-.23,10.39-6.39,20-14.55,26.42S517,1505.52,507,1508.32s-20.25,4.82-30,8.47l-13.24,1.7a55.87,55.87,0,0,0-28.41,8.88l-5.19,8.25c-5.08,4.59-10.47,9.76-11.4,16.55a29.13,29.13,0,0,0,.05,6.33c2.34,29,4.74,58.34,13.89,86l4.82,3.82q4.91,12,9.11,24.35l3.05,9.19A54.56,54.56,0,0,1,432,1686c-3.41.22-7,.08-10-1.43a22.41,22.41,0,0,1-2.81-1.71l-6.1-4.11,4-14.68c-7.42-35.69-14.86-71.6-16-108-.19-6.18-.19-12.41-1.33-18.49a63.35,63.35,0,0,0-9.86-23.2l-15.1-6c-14.82-7.53-30-15.17-46.38-17.82s-34.63.42-46.58,12c-3.93,3.8-7.36,8.59-12.56,10.28-3.66,1.19-7.63.63-11.47.28A100.84,100.84,0,0,0,200.48,1525c-4.63,2.54-9.31,5.72-11.41,10.56-1.86,4.29-1.39,9.2-.66,13.82a140,140,0,0,0,22.4,56.56,251.25,251.25,0,0,0-54.37,68c-7.67,14-13,33.87-.74,44.16,6.48,5.44,17.52,8,17.92,16.49.16,3.36-1.66,6.46-3.35,9.38a199.85,199.85,0,0,0-24.75,71.15c-1.84,12.63-2.29,26.26,4,37.37,2.43,4.3,5.82,8.12,7.36,12.81,3,9-1.48,18.56-5.33,27.21a244.93,244.93,0,0,0-18.11,61.42c-2.25,14.28-1.27,32.39,11.82,38.52,13.78,6.45,33.82-4.67,43.66,6.93,11.08,13.07-6,39.72,9.13,47.8,6.34,3.39,14,.16,20.79-2.17s15.94-2.93,19.6,3.26c1.54,2.6,1.64,5.79,1.51,8.81-.62,14.68-5,31,3.45,43,3.14,4.45,7.74,7.67,12.48,10.37,37.75,21.52,90.42,11.68,117.87-22a150,150,0,0,0,35,38.23c8.3,6.39,18.29,12.13,28.66,10.62,13.09-1.91,21.68-14.41,27.77-26.15a288.31,288.31,0,0,0,27-77.28,63.35,63.35,0,0,1,35.43,14l7.39-1.21a58.55,58.55,0,0,0,8.07-4.15l0-8.45a193,193,0,0,0,23,1c1.69-4.67,1.69-5.11,3.38-9.78A41.89,41.89,0,0,0,596.85,2042l10.65,6.75a48,48,0,0,0,15.91-78.49,49,49,0,0,0,38.89-27.81c2.87-6.28,4.38-13.14,7.58-19.26a39.06,39.06,0,0,1,21.24-18.47c2.52-.9,5.27-1.54,7.84-.8,5.33,1.51,7.4,7.93,8,13.45,3.12,27.94-9,55-15.4,82.38-10.35,44.59-5.3,91.07-4.62,136.83.13,8.35-.46,17.93-7,23.08-7.42,5.81-18.12,2.8-27.48,3.9-13.09,1.54-23.7,11.47-31.12,22.35s-12.72,23.19-20.93,33.5c-7.86,9.86-18.21,17.64-25.19,28.14-14.25,21.43-11.87,49.3-14.58,74.89-3,28.44-12.87,55.66-23.15,82.35l-5.26,14.85a112.07,112.07,0,0,0-6,74.67c3.28,12.14,9.8,24.84,21.65,29.06,9.31,3.32,19.54.58,29.19-1.6a248.53,248.53,0,0,1,109.76.12c6.05,1.38,12.64,3.41,15.86,8.72,2.28,3.74,2.38,8.35,3.32,12.63a31.49,31.49,0,0,0,51.7,16.73c6.7-6,10.71-14.66,18-19.9,10.2-7.34,24.14-6.15,36.39-3.33s24.78,7,37.11,4.55c15.45-3.07,27.43-16.43,32.39-31.38,1.93-5.84,3-12,5.88-17.45s8.22-10.17,14.37-10c7,.21,12.36,6.64,14.69,13.26s2.65,13.81,5,20.42c5.78,16,22.89,25.65,39.77,28.11,12.3,1.79,26.21-.05,34.61-9.22,7.85-8.56,9-21.52,6.6-32.89s-7.67-21.9-11.29-32.94c-3.81-11.62-3.7-27.82,7.71-32.24,5.14-2,11.07-.72,16.3-2.46,11.1-3.71,13.59-18.1,13.54-29.8C1028.4,2328.44,999.08,2252.69,948,2196.09ZM489.8,919.18a3.68,3.68,0,0,1-.85-2.07,22.29,22.29,0,0,1,5.93-18.88c2.35-2.41,5.53-5,5.05-8.28a5.68,5.68,0,0,1-.22-2.3c.28-1,1.31-1.48,2.18-2a11.54,11.54,0,0,0,5.42-10.76,30.79,30.79,0,0,0,26.32,3.88c2.56-.81,5.25-2,7.81-1.17a10.81,10.81,0,0,1,3.65,2.36l14.37,12.32,5,5a3.28,3.28,0,0,1,1,4,8,8,0,0,1-3.06,3.25c-6.26,4.3-14.61,7-17.28,14.14-4.12-1.22-7.83,2.79-10,6.51s-4.7,8.16-9,8.47c-2.63.18-5-1.32-7.24-2.78-8-5.25-16.49-10.73-26-11C491.78,919.94,490.57,919.94,489.8,919.18Zm166.73,492.68c-3.61,1.22-5.53,4.14-13.53,3.14,3-4,4.17-15.11,4-18.91-.76-14.54-5.14-29.93-14.65-40.95-4.39-5.08-10.61-10.4-9.25-17-4.56,7.68-14.51,9.83-23.33,11.21s-18.76,3.4-23.47,11c-5-9.94-10.18-20.15-18.61-27.39-7.86-6.75-18-10.37-28.09-12.61s-20.49-3.23-30.6-5.51l8.88-8.58c5.56-2.37,11.69-3,17.71-3.53q27.5-2.46,55.1-3.53l7.53,1.44A165.31,165.31,0,0,0,629,1307l10.18,11c4.4,22.14,12.9,48.86,20.83,70Zm20.94-201.7-23.48,61a91.57,91.57,0,0,1-10.22-29l-5.26-34.84c-3-8.53-3-17.79-3-26.84l31.51,8.8A18.5,18.5,0,0,1,677.47,1210.16Z"></path>
    <path data-name="3a" data-official="" data-plain="Stamens" data-loc="" d="M494.87,2379.81c-9.23-2.65-15-13.76-11.91-22.84,1.68-4.91,5.41-8.84,7.57-13.56,3.38-7.4,2.58-16.07.24-23.85s-6.11-15.07-8.67-22.79c-5.68-17.13-5.18-35.61-4.62-53.65.3-9.58.78-19.74,6.18-27.65,5.89-8.63,16.82-12.85,27.26-12.73s20.49,4,29.73,8.92c10,5.29,20.34,13.32,21.23,24.61.83,10.7-7.12,19.9-10.15,30.19-2.2,7.46-1.76,15.4-1.31,23.16l2.37,40.46c.86,14.73,1,31.46-9.55,41.79-8.1,7.92-20.22,9.67-31.47,11Z"></path>
    <path data-name="3b" data-official="" data-plain="Pistil" data-loc="" d="M412.53,2375.73a29.68,29.68,0,0,1-1.64-34.68c3.33-4.89,8.33-9.12,9.12-15,.81-6.12-3.25-11.66-6.44-16.94a70.86,70.86,0,0,1-10-32.36c-.53-9.46.85-19-.7-28.39-1.79-10.87-7.4-20.67-11.3-31s-6-22.3-.83-32c4.45-8.42,13.72-13.56,23.16-14.82s19,.93,28,4.24c5.57,2.08,11.13,4.69,15.24,9,9.81,10.25,8.72,26.62,5.25,40.38-.84,3.31-1.81,6.69-3.86,9.42-5.07,6.76-15.66,8.39-19.14,16.08-3.17,7,1.33,14.94,5.74,21.24,9.35,13.38,19.17,26.69,25.15,41.88s7.75,32.83.82,47.61-24.1,25.27-39.88,21.07Z"></path>
    <path data-name="3c" data-official="" data-plain="Seed-vessel" data-loc="" d="M319.72,2365.13a29.81,29.81,0,0,1,1.06-25.25c5-9.47,15.24-16.45,16.66-27.07.66-4.95-.78-10-2.79-14.53-7.37-16.69-22.07-28.89-32.19-44.07a100.62,100.62,0,0,1-11.43-23.5,111.33,111.33,0,0,1-5.77-39.54c.14-3.67.49-7.46,2.26-10.67,4.55-8.25,16.63-9.17,25.11-5.06s14.65,11.7,21.79,17.85c9.64,8.31,21.22,14.13,30.87,22.43,14,12.07,23.4,29,27.95,47s4.5,36.84,1.72,55.13c-2.39,15.78-7.12,31.87-17.89,43.66s-28.8,18-43.28,11.34Z"></path>
    <path data-name="3d" data-official="" data-plain="Seed-vessel, open" data-loc="" d="M223.61,2366c7.95,10.32,23,11.22,36,10,14.18-1.35,30.47-5.94,35.69-19.19,4.16-10.58-.55-22.37-.91-33.74-.2-6.33,1-12.61,1.59-18.91,2.6-26.28-4.4-52.67-14.6-77-4.67-11.15-11.68-23.35-23.58-25.5-4.83-.87-9.83.11-14.68-.61-9.42-1.4-16.62-8.77-23.78-15.05s-16.46-12.12-25.65-9.61a7.91,7.91,0,0,0-3.11,1.51,8.65,8.65,0,0,0-2.32,4.14c-4.61,15.08,3.92,30.7,11.68,44.44q15.12,26.79,27.77,54.86c6.6,14.67,12.71,31.64,6.22,46.35-4.15,9.42-13.28,17.42-12.48,27.68Z"></path>
    <path data-name="4" data-official="Diclytra formosa" data-plain="Blush Diclytra" data-loc="N. America" d="M846.2,1527.47A73.52,73.52,0,0,1,885.84,1550l1.1,2.76a10.06,10.06,0,0,0-11.09-3c-1.83.7-3.43,1.93-5.27,2.63-3.71,1.41-7.85.48-11.7-.5l-2.59,1.33c.78,2.32,2.06,4.62,4.19,5.8,5.16,2.86,11.5-2.22,17.29-1.1,4.13.8,7.09,4.73,8,8.84s.17,8.39-.65,12.52a299.67,299.67,0,0,1-7.43,29.4,10.79,10.79,0,0,1-1.38,3.21c-2.64,3.72-8.28,2.91-12.67,1.69l-4.31-9.15c-1.86-5.15-3.74-10.38-4.14-15.84-.3-4.08.25-8.18.22-12.27-.07-9.26-3.06-18.23-6.21-26.94Zm73,95.71-17.91,11.75a57.36,57.36,0,0,0-26.94,15.47c-.29-6.07,1.76-12,3.84-17.69s4.11-11.11,6.25-16.63c2.26-5.85,5.43-12.42,11.53-13.89,2.87-.68,5.86-.06,8.78.37ZM904,1458.24q-6.39-19.79-12.9-39.53a15.75,15.75,0,0,1-13.66-5.1,15,15,0,0,1-3-14.21l-.21-6.47c.64-1.53,2.22-2.4,3.69-3.15,4.17-2.14,8.57-4.33,13.26-4.21,5.31.13,10.07,3.21,14.23,6.51a99.49,99.49,0,0,1,9,8.14l3.65-8.67,2.33-4.68q3.17-12.27,6.31-24.53c2-7.66,4-15.43,7.87-22.32,5.73-10.15,15.14-17.74,21.42-27.56,8.63-13.5,10.7-30.38,8.8-46.29s-7.46-31.13-13.16-46.11c-2.17-5.71-4.39-11.46-5.48-17.48-.6-3.26-.86-6.58-1.35-9.87a72.43,72.43,0,0,0-2.39-10.57l-2.38-9.76q-15.18-.95-30.29-2.75L905,1179.78a461.8,461.8,0,0,0-5,58.49l1.11,7-.36,11.49a21.7,21.7,0,0,0,.4,6.13,7.22,7.22,0,0,0,3.57,4.79c3,1.46,6.75-.13,9.94.9a12.7,12.7,0,0,1,3.62,2.15l10.51,8,6.58.74,6.27,1.22a12,12,0,0,1,3.94,1.26c2,1.25,3.14,3.63,3.67,6,1.07,4.67.15,10-3.34,13.32-4.07,3.82-10.27,3.91-15.85,3.78l-7-2.36c-3.75-.38-6-5.19-9.81-5.19-2.12,0-4,1.63-5,3.49a3.32,3.32,0,0,1-.94,1.26,2.5,2.5,0,0,1-1.6.25c-4.18-.42-7.55-3.44-10.9-6s-7.64-4.78-11.61-3.4L876,1300.8q-3.5,35.42-10.38,70.37l-1.47,6.7a40.34,40.34,0,0,0-.35,16.84l0,7.42c2.1,5.64,4.3,11.45,8.44,15.83a59.57,59.57,0,0,0,5.62,4.9,86.5,86.5,0,0,1,24.33,32.54Zm39.64-296-.32-18.53a10.63,10.63,0,0,1-10.85-3.53,14.37,14.37,0,0,1-14.85,2.43c-1.89-.81-3.73-2.06-5.79-2-2.58.09-.68,2.34-1.44,4.81s-.47,5.13-.17,7.69l.8,7.3,11.32,1.62C929.39,1163.1,936.69,1164.1,943.61,1162.28ZM848.7,2139c.84,6.81,2.18,13.85,6.26,19.36,8.13,10.95,23.63,12.15,37,15l12.2,1.71c14.52,1.77,28.28-9,34.5-22.26s6.53-28.41,6.28-43c-.64-37.94-4.13-76.08.88-113.7l-.14-13.43a525.22,525.22,0,0,1-2-77.72c.19-3.86.45-7.8,2-11.35,3.06-7.08,10.47-11.13,15.35-17.1,10.46-12.79,7.68-31.47,4.33-47.65L927,1785c-20-8-27-18-35-28l-9.76,2.46c-5.89,5.22-6.78,14-7,21.83-1,33.23,2.37,66.42,3.61,99.64a775.48,775.48,0,0,1-14.63,181.59Zm73.54-490.14a13.75,13.75,0,0,0-6.3-1.56,60.6,60.6,0,0,0-25.13,3.64,57.46,57.46,0,0,1-8.14,2.78,22.14,22.14,0,0,1,11,1.68c4.26,2,7.75,5.9,8.39,10.55a34.77,34.77,0,0,0-25.56,2l1.63,23.77a80.85,80.85,0,0,1,6.16,20.28c.68,4.16,1,8.39,2.29,12.41,1.65,5.36,4.81,10.13,8.22,14.59A127.55,127.55,0,0,0,924,1767l8-.32,3.75-4.49c-1.57-31.73-3.36-64.36-16.57-93.26Zm-67.67-130.19c7.91,10.4,25.95,9,32.86,20l.63,0c-2-13.92,6.09-28.29,2.18-41.8a29.74,29.74,0,0,0-8.76-13.48l-.62.67q-.08,6.6-.13,13.2c0,4.42-.19,9.17-2.84,12.72-3.57,4.79-10.29,5.64-16.24,6.09a6.07,6.07,0,0,1-3.11,3.57Zm5-802.4,6.48,7.5c15.65,34.77,21.28,73.06,26.75,110.79q5.88,40.56,11.77,81.14l.7,19.27c.15,9.27,5.57,18.21,4,27.34L900.81,982A225.91,225.91,0,0,1,936,977.1l4.66-8.52V952l-2.16-4.82c-5-.61-9.29-4.4-11.7-8.89s-3.28-9.63-4-14.68c-1.2-8.82-2-17.7-2.86-26.56a978.63,978.63,0,0,0-23.87-138.09l7.38-6.44c1.27-1.81,2.53-3.63,3.8-5.45l6.07-2.2-1.69-11.92c-3.75-53.27-41-102.84-32.26-155.51,5.88-35.23,32-65.63,33-101.34.84-29.74-16-60-6.45-88.15,2-5.77,5-11.34,5.21-17.43.57-17-20.52-29-19.65-45.94.31-6.24,3.64-11.85,6.24-17.52,13.55-29.59,8.13-64.21-.46-95.61a527.9,527.9,0,0,0-39-100.71c-9.81-19.21-21.13-38.23-37.68-52.07-13.1-11-28.85-18.16-44.39-25.23C746.5,19.88,715.63,6.11,683,6.22c-17.42.06-34.59,4.12-51.37,8.83-21.29,6-42.26,13-63.21,20.09-16.75,5.64-33.73,11.39-48.36,21.31s-26.85,24.69-29.7,42.13c-4.42,27.05,13.82,56.25,2.16,81.05-10.24,21.77-38.4,28.57-53.46,47.33-13.29,16.56-14.3,39.87-11.05,60.85,2.9,18.68,8.9,37.33,20.66,52.14,20.76,26.13,55.8,36.19,89,39.82,23.5,2.58,47.5,2.74,70.17,9.43s44.6,21.5,52.28,43.86c14.62,42.53-27.2,87-19.17,131.27,4.75,26.17,26.51,46.45,50.56,57.8s50.73,15.59,76.52,22.1,52,16,70.34,35.31Z"></path>
    <path data-name="5" data-official="Corydalis Cashmeriana" data-plain="Cashmere Corydalis" data-loc="Himalayas" d="M611.22,2061.91c2.34,19.66,16.53,36.26,19.55,55.82,2.49,16.15-2.89,32.37-8.2,47.82-4,11.7-8.07,23.49-14.41,34.11s-15.23,20.11-26.58,25a12,12,0,0,1-5.69,1.28,11.11,11.11,0,0,1-6.24-3.27c-7.15-6.58-10.22-16.43-12.33-25.93-7.1-32-6.69-65.05-7.31-97.79-.22-11.8-1.15-24.94-9.78-33l2.79-23.52,0-8.45a193,193,0,0,0,23,1c1.69-4.67,1.69-5.11,3.38-9.78A41.89,41.89,0,0,0,596.85,2042ZM328.37,1490.55c16.42,2.65,31.56,10.29,46.38,17.82l15.1,6a63.35,63.35,0,0,1,9.86,23.2c1.14,6.08,1.14,12.31,1.33,18.49,1.1,36.43,8.54,72.34,16,108l-4,14.68,6.1,4.11a22.41,22.41,0,0,0,2.81,1.71c3.06,1.51,6.61,1.65,10,1.43a54.56,54.56,0,0,0,17.79-4.17l-3.05-9.19q-4.19-12.32-9.11-24.35l-4.82-3.82c-9.15-27.62-11.55-57-13.89-86a29.13,29.13,0,0,1-.05-6.33c.93-6.79,6.32-12,11.4-16.55l5.19-8.25a55.87,55.87,0,0,1,28.41-8.88l13.24-1.7c9.72-3.65,20-5.68,30-8.47s20-6.47,28.13-12.91,14.32-16,14.55-26.42c-17.37-6.71-37.15-5.76-54.69.5s-32.95,17.57-46,30.86c-6,6.08-11.71,12.76-19.45,16.3l-1.47,2.3c.73-6.29,1.51-12.75,4.47-18.35,4.72-8.92,14.09-14.17,22.57-19.65a188.52,188.52,0,0,0,40.24-35,40.18,40.18,0,0,0,5.42-7.48c2.77-5.34,3.27-11.67,2.24-17.6-16.91,3-31.85,13.24-43.48,25.86s-20.36,27.59-28.92,42.47l-1.85,1.6c3.9-22.2,13-43.11,22-63.78a83.91,83.91,0,0,1,7-13.71c6.85-10.13,17.66-16.71,27.26-24.28s18.76-17.44,19.78-29.63c.23-2.76,0-5.57.63-8.27s2.22-5.42,4.84-6.3a159.93,159.93,0,0,0-33.22,6.49l1.05-9.39c-1.16-5.25,0-10.69.76-16a124.94,124.94,0,0,0,1.29-21.69l.14-15.17-5.74-9.84c-6.49-18-25.75-30.45-44.81-29-7.46.56-14.66,3-22.09,3.89s-15.67-.09-21-5.3c-6.26-6.07-6.77-15.82-6.47-24.54.64-18.45,2.71-38.42-7.21-54-10.76-16.88-32.94-23.86-43.41-40.92-2.78-4.53-4.64-9.89-3.82-15.14s4.22-9.8,7.69-13.88c7.11-8.37,15.39-16.33,25.83-19.7,6.83-2.2,14.15-2.3,21.11-4A46.81,46.81,0,0,0,404,1062.36l7.57-13.14c-7.94-5.5-10.3-16.42-9.07-26s5.31-18.55,7.64-27.92a77.64,77.64,0,0,0,2.25-20.08,21.75,21.75,0,0,0-1.3-8c-1.44-3.47-4.34-6.12-7.39-8.32a52,52,0,0,0-16.79-8l-9-7.18a9.93,9.93,0,0,1,7.45-6.86c-5.82-7.51-16.67-8.1-26.13-9a8.25,8.25,0,0,1-4.59-1.39c-2-1.65-2.07-4.67-1.69-7.24L348,905.43c4.95-16.76,8.71-37.92-4.69-49.14-3.46-2.89-7.73-4.7-11.19-7.59-11.65-9.73-10.75-27.66-8-42.58s6-31.9-3.22-44c-8.35-11-23.87-13.45-37.69-13.08s-28.19,2.6-41.11-2.33c-20.49-7.83-30.92-31-49.62-42.48-14.47-8.88-32.72-9.84-49.3-6.2s-31.91,11.45-47,19.28c-16.5,8.59-35.42,21.58-33.75,40.1.41,4.59,2.16,9.08,1.79,13.67-1.12,13.64-18,18.53-29.2,26.4-16.91,11.9-22.36,34.09-26.58,54.33-.9,4.34-1.8,8.88-.55,13.13,2.5,8.45,12,12.2,18.86,17.75,13.4,10.86,16.66,32.27,7.1,46.62-4.12,6.2-10.17,11-13.73,17.56-8,14.68-.86,33.49,10.63,45.62s26.71,20,39.4,30.85A107,107,0,0,1,104,1077.69c1.75,6.82,2.91,14.06,7,19.76,4.85,6.7,12.92,10.1,19.48,15.15a46.43,46.43,0,0,1,17.79,38.16c-20.46-5.89-41.93-11.83-62.76-7.41-28.3,6-50.28,31.55-55.88,59.93s3.69,58.46,21.1,81.56c12.09,16,28.77,29.54,48.44,33.63l16-2.34c25.08,5.32,47.74-19.78,73.35-18.88a10.82,10.82,0,0,1,5.75,1.47c2.76,1.88,3.56,5.75,2.79,9s-2.8,6-4.77,8.73c-18,24.69-35.83,51.62-37.8,82.12-.48,7.34.08,15,3.7,21.43,3.05,5.39,8,9.43,13.36,12.56,13.26,7.78,28.77,10.48,43.75,14,6.6,1.54,13.36,3.33,18.78,7.4,8.51,6.39,12.41,17.35,20.31,24.49a31,31,0,0,0,19.76,7.91Z"></path>
</svg>

