
<svg xmlns="http://www.w3.org/2000/svg" viewBox="0 0 2066 2733" id="illustration" preserveAspectRatio="xMidYMid meet">
    <title>Umbellaceæ</title>
    <path data-name="1" data-official="Carum carui" data-plain="Caraway" data-loc="Britain" d="M970.58,2178.52c-.66,30.94-1.34,62.07-7.4,92.42-2.24,11.2-5.27,22.42-11.1,32.24-7,11.87-18.25,22-20.35,35.64-1.11,7.15.45,14.73-2,21.54A18.63,18.63,0,0,1,915,2372.42a17,17,0,0,1-16.79-8.57c-4.12-7.88-1-17.62-3-26.29-.75-3.26-2.21-6.31-3.16-9.51-1.68-5.66-1.76-11.67-1.31-17.55,1.74-22.62,11-43.9,16.5-65.91,4.91-19.68,6.91-40.25,15-58.87l3.23-3.95c1.63-6.2,0-13.18,3-18.85,1.19-2.27,3-4.12,4.47-6.23,1.17-1.71,2.09-3.58,3.27-5.28a39.22,39.22,0,0,1,2.83-3.49L951.08,2134a5.13,5.13,0,0,1,2.59-1.91q.42,8,.55,16a5.49,5.49,0,0,0,.33,2.14,1.83,1.83,0,0,0,1.67,1.18c1.33-.07,1.74-1.83,1.76-3.17q.13-7.75-.14-15.52a1.73,1.73,0,0,1,.26-1.23c.37-.46,1.06-.43,1.61-.65,1.2-.47,1.53-2,1.6-3.28a29.59,29.59,0,0,0-.36-6.51,5.73,5.73,0,0,1,5.18.59,11.92,11.92,0,0,1,3.67,3.93c3.24,5.07,4.71,11.11,5.12,17.12a108.71,108.71,0,0,1-.75,18l-1.09,11.19Zm-38.88-25.18c5.76-6.55,10.14-14.35,16.69-20.11a3.16,3.16,0,0,0,.8-.91,3,3,0,0,0,.23-1.34,45.29,45.29,0,0,0-1.1-10.18c-2.48,4.4-7.41,6.69-12,8.86a10,10,0,0,0-2.83,1.77,8.24,8.24,0,0,0-1.4,2,21.92,21.92,0,0,0-1.52,16.87Zm22.95-39.75a7.46,7.46,0,0,1-1.22,6.09,6.24,6.24,0,0,0-.9,1.39,4,4,0,0,0-.14,1.59,34.51,34.51,0,0,0,.84,6.07,20.19,20.19,0,0,0,3.84-2.84,2.36,2.36,0,0,0,.58-.72,2.69,2.69,0,0,0,0-1.49,19.33,19.33,0,0,1,.83-9.18,13.08,13.08,0,0,1-3.52-.57Zm25.52-20.71a26,26,0,0,1-8-6.61,12.43,12.43,0,0,1-18.48-8.28,20.82,20.82,0,0,0-4.12,1.08,86.69,86.69,0,0,1-.56,19q7.89,3.4,16,6.27c3.63,1.28,7.34,2.49,11.19,2.59l1.79-1.66a49.07,49.07,0,0,0,1.95-9.43Zm-28.56-63.8a61.75,61.75,0,0,1,.59,15,36.43,36.43,0,0,1,10.62,1.68,15.8,15.8,0,0,1,2.93-8.85,9.43,9.43,0,0,1,8.21-3.84c3,.34,5.58,2.43,7.53,4.77a72.53,72.53,0,0,1,3.7-13.4l-.15-2.39c-.52-4.3-1.37-8.55-2.23-12.8-4.07-20.27-8.15-40.57-14.08-60.38-.81-2.7-1.73-5.51-3.79-7.42a2.59,2.59,0,0,0-1.66-.82c-1.38,0-2,1.66-2.28,3a179.54,179.54,0,0,0-2.12,18.22l-5.25,64.31Zm408.07-1009.89q0,3.09-.07,6.2a36.43,36.43,0,0,1-.58,7.31,12,12,0,0,1-3.42,6.37l-1.09,5.71q-.29,12.17-1,24.33c-.21,3.69-.41,7.58,1.27,10.87l.59,2.5a6.42,6.42,0,0,1,3,4.1,19,19,0,0,1,.42,5.22c0,1.91,0,3.82-.07,5.73a30.71,30.71,0,0,1-.63,7,10.34,10.34,0,0,1-3.64,5.91l-3,2.19a26.36,26.36,0,0,1-13.15,2.08,16.8,16.8,0,0,1-6.88-1.75c-2.35-1.28-4.14-3.36-6-5.24a78.83,78.83,0,0,0-12.17-9.5,28.17,28.17,0,0,0-7.92-4.06,10.29,10.29,0,0,0-8.57,1.1c-3.44,2.44-4.27,7.13-4.71,11.32-.81,7.84-1.23,15.72-1.27,23.59l-.75,1.69a24.81,24.81,0,0,0-6.61.56,10.27,10.27,0,0,0-5.6,3.38,2.55,2.55,0,0,1-1.1,1,1.59,1.59,0,0,1-1.61-.66,9.65,9.65,0,0,1-.86-1.62,6.27,6.27,0,0,0-8.6-2.3l-3.78-7.45A20.66,20.66,0,0,0,1246.2,1113a3,3,0,0,0-1.77.13,3.16,3.16,0,0,0-1.17,1.31,33.9,33.9,0,0,0-3.69,8.91l0,3.24.3,7.16a1.12,1.12,0,0,1-.22.88c-.25.24-.65.19-1,.2a3.12,3.12,0,0,0-2.51,1.9,8.62,8.62,0,0,0-.61,3.23,94.43,94.43,0,0,0,.09,11.41l1.47,2.63c-.6,3,.62,6.08,1.81,8.92l.87,2.07-1,5.49a54.34,54.34,0,0,1-5.5,4.16,11.55,11.55,0,0,1-4,1.88,6.61,6.61,0,0,1-7.37-4.5,18.43,18.43,0,0,1-5.28,2.42,6.32,6.32,0,0,1-5.52-1.09l-4.55-2.19-7.35-4.58a11.6,11.6,0,0,0-2.7-1.36,6.15,6.15,0,0,0-5.37,1,7.13,7.13,0,0,0-2.69,4.83,5.66,5.66,0,0,1-.42,2.13,3.7,3.7,0,0,1-2,1.43c-3.36,1.34-7,1.58-10.57,2.39a32.64,32.64,0,0,0-9,3.56,7.89,7.89,0,0,0-2.45,2,3.27,3.27,0,0,0-.66,3c.42,1.24,1.69,1.94,2.8,2.63s2.26,1.74,2.15,3-1.39,2.14-2.57,2.69a30.54,30.54,0,0,1-6.8,2.27c-2.27.47-4.93.9-6,2.94l.59,2.4c.13,1.38,1.36,2.35,2.48,3.15a44,44,0,0,0,7.13,4.45,17.68,17.68,0,0,1,4.13,2.17l-9.26,9.08a104.2,104.2,0,0,1-26,23.23c-7.74,4.86-16.27,8.81-22.5,15.5-7.51,8-10.77,19.07-13.78,29.67-3.29,11.53-6.58,23.09-8.39,34.94-1.23,8-1.78,16.17-2.74,24.25-3.54,29.66-12.77,58.72-12.79,88.59l-2.22,2.26a69.09,69.09,0,0,0-16.28,7.14,24.48,24.48,0,0,1-6.21,3.13c-2.24.61-4.88.35-6.53-1.28l-.27-1.46.2-4.57a2,2,0,0,1,.44-1.38c.4-.37,1-.33,1.53-.44a3.66,3.66,0,0,0,2.47-2.27,10.69,10.69,0,0,0,.59-3.42,15,15,0,0,0-.46-6.12c-.57-1.54-1.62-2.85-2.17-4.39a14.08,14.08,0,0,1-.53-5q.08-4,.27-8l2.13-6.74a6,6,0,0,0,3-1.75,5.72,5.72,0,0,0,.9-3q.33-2.94.46-5.91a12.21,12.21,0,0,0-.48-4.82,27.79,27.79,0,0,0-1.45-2.82,12.69,12.69,0,0,1-1.35-4.62l.19-2.46c1.75-15.21,2.18-30.55,2.6-45.86q.57-20.61,1.15-41.22c.23-8.25.42-16.71-2.29-24.51-2.08-5.94-5.75-11.18-9.37-16.33l-15.08-21.45a171.32,171.32,0,0,0-13.38-17.4,123,123,0,0,0-19.13-16.52l-3.47-3.35a45,45,0,0,1-.57-11.59,5,5,0,0,1,.64-2.42,10.08,10.08,0,0,1,1.55-1.51,8.53,8.53,0,0,0,1.93-3.22,19.18,19.18,0,0,0,.22-12.69,28.82,28.82,0,0,1-1.1-3.37,16.76,16.76,0,0,1-.06-4.9c.17-2.07.44-4.34,1.95-5.77.63-.59,1.42-1,2-1.59a7.77,7.77,0,0,0,1.79-4,164.76,164.76,0,0,0,4-26.6l.68-4.39a19.1,19.1,0,0,1,1.59-12.31,28,28,0,0,0,2-4.18,15,15,0,0,0,.44-4.34c0-5.16-.4-10.5,1.45-15.33.92-2.41,2.89-4.89,5.46-4.7l3-.2c10.39-31.45,22.25-62.39,34.11-93.32,3.65-9.51,7.33-19.09,12.7-27.75,1.88-3,4-6,5.16-9.38s1.24-7.37-.8-10.31l-2.08-1.09a11.05,11.05,0,0,1-4.58,6.56,32.65,32.65,0,0,1-7.31,3.65,46.09,46.09,0,0,1-11.23,3.42c-3.9.49-8.08-.1-11.23-2.44l-2.32,3.41c-3.87,3.9-6,9.16-8,14.28q-4.29,10.92-8.56,21.85a127.4,127.4,0,0,0-6.21,18.58l.38,2.81c-.48,4.07-3.23,7.54-4.11,11.54-.76,3.44-.1,7-.36,10.54a39,39,0,0,1-1.41,7.09c-.86,3.22-1.8,6.52-3.86,9.14-.82,1-1.79,2-2.66,3-3.32,3.82-4.93,8.79-6.46,13.62l-1.2,2.2c-1.35,3.71-2.72,7.56-2.39,11.49.17,2,.8,4,.93,6a16.67,16.67,0,0,1-2,8.52,50.68,50.68,0,0,1-4.91,7.36l-1,3.05c0,7.19-2.3,14.19-2.89,21.36a34.34,34.34,0,0,1-.72,5.91,25.27,25.27,0,0,0-1.15,4.21,13.6,13.6,0,0,0,.41,3.9c.66,3.46.9,7.45-1.44,10.09a13.3,13.3,0,0,0-1.17,1.32c-1.38,2-.15,4.93-1.12,7.19a14.67,14.67,0,0,1-1.21,1.95c-1.5,2.39-1.69,5.35-1.85,8.17l-.35,4c1.48,3.29.49,7.11.83,10.7l-3.58,0q-5.34-.48-10.7-.52l-4.41-.69c-.45,1.09-1.87,1.33-3,1.4-7.68.46-15.53.43-22.8,3-6.12,2.11-11.5,5.92-17.31,8.78a60.09,60.09,0,0,1-26.83,6.12c-5,0-10.15-.74-14.58-3.1s-8.07-6.6-8.75-11.57c-.51-3.68.6-7.38.88-11.09s-.62-8-3.83-9.87c-2.14-1.26-4.79-1.15-7.24-1.57-7.74-1.33-13.49-8.09-16.68-15.27s-4.49-15-7.38-22.36l-2-2.82A4.06,4.06,0,0,1,811,1110a8.07,8.07,0,0,1-.64-2l-2.4-11.14a5.34,5.34,0,0,1-.18-1.49,5.7,5.7,0,0,1,.33-1.4l1.74-5.24-.26-3.73a158.09,158.09,0,0,0-1.81-26.08l-3.83-3.69a31.62,31.62,0,0,0-4.64-3.63,16.58,16.58,0,0,1-6.45-11,13.45,13.45,0,0,1,4.47-11.73c1.3-1.08,2.81-1.88,4.1-3l.4-2.63c3.67-.31,7.48-.59,10.92.71,6,2.29,9.39,8.79,14.77,12.39a2.77,2.77,0,0,0,4.55-.76c5.55-7.74,5.7-18.17,10.27-26.52,2.34-4.27,5.88-8.18,6.25-13,.4-5.16-2.93-9.79-6.09-13.89l2.25-6.53a26.92,26.92,0,0,1,9.61-13.24,51.22,51.22,0,0,1,14.76-7.48,25.82,25.82,0,0,0,6.3-2.74c5-3.42,6.41-10.07,9.91-15a20.53,20.53,0,0,1,17-8.49c3,.07,6,.82,9,1.09s6.22,0,8.68-1.74c4.42-3.13,4.73-9.44,7.08-14.32a17.73,17.73,0,0,1,20-9.08l3.15-2a27.92,27.92,0,0,1,20.75-7.74c2.16.12,4.46.47,6.41-.48,3.16-1.55,3.86-5.63,5-8.95a21,21,0,0,1,7.25-9.79c1.32-1,3-2.26,2.57-3.86-.28-1.12-1.44-1.74-2.49-2.2q-4.55-2-9.2-3.82l-1.94-2.2a106.94,106.94,0,0,1-2.14-23.06l2.63-2.1,1.55-.63,2.77.12c2.23,2.45,3.12,5.84,3.41,9.13s.08,6.62.47,9.91a13.55,13.55,0,0,0,3.19-6.75,52.55,52.55,0,0,1,1.71-7.37,9,9,0,0,1,4.86-5.49l3.92,1.86a21.11,21.11,0,0,1,5.92,1.06c6.25,2.36,9.23,9.81,15.24,12.74l5.41.86a30.06,30.06,0,0,1-6.08-19.1,11.61,11.61,0,0,1,1.7-6.29,11.33,11.33,0,0,1,5.05-3.65,26.08,26.08,0,0,1,9-2,8,8,0,0,0,2.84-.42c1.85-.79,2.61-2.93,3.77-4.57a18.67,18.67,0,0,1,5.74-4.72c7-4.35,14.38-8.81,22.61-9.6a11.79,11.79,0,0,1,5.38.51,10.06,10.06,0,0,1,5.08,5,30.36,30.36,0,0,1,2.18,7l.23,4a58.7,58.7,0,0,1,.1,12.5,19.73,19.73,0,0,1-5,11.24,2.78,2.78,0,0,0-.57.71,2.44,2.44,0,0,0,0,1.49c2.33,12.18,4.68,24.74,2.11,36.87,3.64-1.11,5.49-5,6.92-8.57q1.48-3.71,3-7.41L1094,861c2.14-2.79,3.63-6,5.35-9.1s3.74-6.09,6.63-8.11l1.6-3a87.9,87.9,0,0,1,0-9.74c.18-3.71.62-7.5,2.3-10.82a31.54,31.54,0,0,1,4.2-5.84l6.12-7.25c2.24-2.66,4.59-5.4,7.78-6.77l4.7,2.26c3.93,2.35,8.19,5.1,9.46,9.51.89,3,.15,6.41,1.14,9.43,1.14,3.47,4.3,5.81,7.28,7.91a4.37,4.37,0,0,0,1.6.83,3.1,3.1,0,0,0,3-1.48,13.81,13.81,0,0,0,1.35-3.21,21.33,21.33,0,0,1,8.66-10.4,35.91,35.91,0,0,1,12.82-4.79c4.54-.86,9.62-1,13.37,1.68,1.76,1.27,3.39,3.21,5.56,3.09,1.47-.07,2.69-1.11,4-1.78,3.2-1.63,7.11-1.1,10.46.22a24.65,24.65,0,0,1,13.54,13.4,48,48,0,0,0,2.34,5.7,7,7,0,0,0,4.7,3.67l3.72,1.6c3,.95,6.31.91,9,2.57,3.09,1.94,4.44,5.69,5.44,9.2a135.14,135.14,0,0,1,4.76,46.75l1.55,2.65a8.18,8.18,0,0,1,7.24,2.73,14.24,14.24,0,0,1,3.25,7.27,58.53,58.53,0,0,1,.54,8,14.54,14.54,0,0,0,.62,4.26A13,13,0,0,0,1271,926l2.32,2.2a12,12,0,0,1,5.4,8.76c.19,1.8,0,3.61,0,5.42a32.77,32.77,0,0,0,.76,5,23.34,23.34,0,0,0,1.8,6,7.91,7.91,0,0,0,4.5,4.12l2.58.32a14,14,0,0,1,12.29-6.14l3.15,1.57a34.23,34.23,0,0,1,.69,8.45c-.06,1.3-.3,2.79-1.41,3.47a5.43,5.43,0,0,0-1.24.72,2.54,2.54,0,0,0-.39,1.88,21.92,21.92,0,0,1-.94,7.2,13.36,13.36,0,0,0-.72,2.83,3.17,3.17,0,0,0,.9,2.66,4.6,4.6,0,0,0,2.83.82l5.87,1.21c8.64-2.3,17.68-2.57,26.62-2.82l2.47,1.48a3.45,3.45,0,0,0,4.68.84,9.09,9.09,0,0,1,1.37-1,3,3,0,0,1,.88-.23,5.21,5.21,0,0,1,3.8.67,15.73,15.73,0,0,1,1.4,1.31,22.7,22.7,0,0,0,2.68,1.73,4.47,4.47,0,0,1,2,2.38l2.44,15.38a45.65,45.65,0,0,1,1.76,9.35C1359.74,1014.05,1359.71,1016.62,1359.68,1019.19Zm-301-144,10.35,7.59a36.38,36.38,0,0,0-8.81-11.8.45.45,0,0,0-.27-.14c-.17,0-.28.18-.35.33-.22.52-.45,1-.68,1.54Zm-4,10.1a10.24,10.24,0,0,0,6.36,4.95,30.64,30.64,0,0,0,8.22.92c-.77-1.49-1.21-3.14-2.11-4.56a10.21,10.21,0,0,0-5.35-4,19.88,19.88,0,0,0-6.69-.88Zm15.48,10.85a1.23,1.23,0,0,0-.32-.83,1.3,1.3,0,0,0-.78-.22l-20.21-1.2-4.3,3.27c-4.34,7.18-8.8,14.77-9.09,23.15l3.37,1.8a53.41,53.41,0,0,1,17.65-1.92c2.84.17,5.78.61,8.16,2.18a34.88,34.88,0,0,0,2.63-5.39l0-2.82C1069.1,908.35,1070.94,902.28,1070.19,896.19Zm8.38-40.5c-.26-3.06-.68-6.21-2.28-8.83a12.65,12.65,0,0,0-9.15,7l-2.38,5.06a32.53,32.53,0,0,0,12.83,24A113,113,0,0,0,1078.57,855.69Zm-41.09,806.2c-3.73,4.08-5.85,9.38-7.25,14.73-4.63,17.67-2.21,36.4-4.58,54.5l-3.44,17.21a49.08,49.08,0,0,0-1.43,10.13,181,181,0,0,1-14.52,57.62l-1.7,3.29a20.12,20.12,0,0,0-20.26,1.5,11.07,11.07,0,0,0-5.42-6.86,7.89,7.89,0,0,1-2.7-1.76c-.67-.85-.66-2.36.33-2.79.3-.14.64-.15.94-.28.89-.37,1.11-1.5,1.21-2.46l.81-7.69-.08-5.42c2.68-7.31,5.37-14.7,6.53-22.4a114.74,114.74,0,0,0,1-13.23c.37-12,.62-24.08.17-36.12a15.87,15.87,0,0,0-.58-4.4,14,14,0,0,0-2.26-4,44.5,44.5,0,0,0-19.29-14.61l-2.22-.66a54,54,0,0,1-4.41-12.71c-.17-.79-.4-1.71-1.14-2a2.69,2.69,0,0,0-.88-.17l-2-.16-.57-.1L943.74,1694a5.33,5.33,0,0,1-2.13,1.65c-.38.11-.82.18-1,.51a1.31,1.31,0,0,0-.12.76l.18,3.48,0,.53c4.08.35,7.61,3.07,10.14,6.28,2.19,2.79,3.87,6.38,3.06,9.84a10.25,10.25,0,0,1-7.87-2.28c0,2,.08,4.07.11,6.1a2,2,0,0,0,1,2A25,25,0,0,1,956,1743a16.1,16.1,0,0,1-8.64-5,45.61,45.61,0,0,1-5.83-8.31,58.84,58.84,0,0,1,.36,11.72,30.78,30.78,0,0,1-1.08,7.71,11.8,11.8,0,0,1-4.32,6.32,8.22,8.22,0,0,1-3.18-6.65c0-.54,0-1.19-.41-1.5a1.78,1.78,0,0,0-.69-.2,7.93,7.93,0,0,1-5.08-3.08A42.25,42.25,0,0,1,925,1756l-1.56,3.33a50.76,50.76,0,0,0-1.76,6.22,12,12,0,0,1-3,5.66,5.45,5.45,0,0,1-6,1.22c-1.9-1-2.76-3.15-4-4.85a19.89,19.89,0,0,0-4.6-4c-1.7-1.19-3.56-2.41-5.62-2.36a9.87,9.87,0,0,0-4.37,1.52L876,1772.4a9.81,9.81,0,0,1-2.41,1c-2.79.62-5.61-1.4-6.88-4s-1.33-5.52-1.38-8.37l-.9-2.33a86.56,86.56,0,0,1,2.85-16.84,36.69,36.69,0,0,0,1.4-6.19,9.65,9.65,0,0,0-1.23-6.11,9.24,9.24,0,0,0-6.76-3.79,23.13,23.13,0,0,0-7.92.84l-1.68,2.63c-11.1,15.26-26.53,28.61-45.13,31.74-5.5.93-11.53.82-16.16-2.29a28.52,28.52,0,0,1-6-6.13l-5.35-6.72a9.43,9.43,0,0,0-3.41-3.09c-1.74-.76-3.74-.41-5.61,0a24.32,24.32,0,0,1-7.44.64,8.23,8.23,0,0,1-6.25-3.65c-3-5,2.19-11.65.26-17.17-1.22-3.49-4.9-5.44-8.39-6.71-5.3-1.92-11-3.1-15.6-6.4s-7.69-9.67-5.08-14.67c1.25-2.41,3.69-4.33,3.87-7,.15-2.34-1.5-4.42-3.33-5.89s-4-2.64-5.4-4.49c-1.77-2.26-2.29-5.24-3.61-7.78s-4.21-4.81-6.88-3.76l-3.35-1.57a55.51,55.51,0,0,1-17.52-3.87,7.6,7.6,0,0,1-3.47-2.24c-1.48-2-.92-4.76,0-7.05a30.1,30.1,0,0,1,6.53-10c1.58-1.59,3.4-3.1,4.15-5.21,1-2.78-.17-6-2.2-8.13a21,21,0,0,0-7.54-4.55,105,105,0,0,0-13.7-4.5c-1.86-.48-3.85-1-5.12-2.41a9.15,9.15,0,0,1-1.66-3.75l-4.26-15.62c-1.16-4.25-2.32-8.51-3.23-12.82a4.33,4.33,0,0,1,.15-3.1,4,4,0,0,1,2.85-1.52,24.08,24.08,0,0,1,12,.8c2.4.79,4.79,2,7.32,1.81,3.63-.26,6.42-3.24,9.73-4.77,5-2.35,11-1.19,16.12,1.06,1.9.83,4.71,1.51,5.55-.39a10.55,10.55,0,0,0,.28-2.53c.4-2.22,3-3.19,5.26-3.46a27.81,27.81,0,0,1,27.34,14.43l3,2.26,3,5.14c.16.28.36.58.67.62a1,1,0,0,0,.56-.14c2.3-1.16,3.68-3.56,4.76-5.91a59,59,0,0,0,3.06-8.17,10.67,10.67,0,0,1,1.51-3.63,3.27,3.27,0,0,1,3.45-1.35l3,.51c1.08,2.45,3.34,4.18,5.71,5.44a5.08,5.08,0,0,0,4,.75l2.83-1c3.1-1.45,3.63-5.55,3.74-9q.24-7.77.49-15.53a8.8,8.8,0,0,1,1-4.71c1.42-2.11,4.53-2.57,6.84-1.51a10.28,10.28,0,0,1,4.85,5.64A24.72,24.72,0,0,0,801,1560a4.41,4.41,0,0,0,3.67,2.24,5.55,5.55,0,0,0,2.94-1.32c2.43-1.79,4.62-3.93,7.31-5.28s6.14-1.74,8.58,0c1.79,1.3,2.69,3.46,3.94,5.29s3.35,3.49,5.48,2.9,3.12-3.06,4.93-4.33c3.07-2.13,7.16-.27,10.77.67a2.62,2.62,0,0,0,2.23-.15,2.7,2.7,0,0,0,.74-1.17c1.73-4.33,2.67-8.95,4.54-13.23s5-8.34,9.38-9.83,10.18.6,11.4,5.1c.72,2.65,0,6,2.06,7.77,1.59,1.38,4,1.06,6,1.85a7.47,7.47,0,0,1,4.06,5,22,22,0,0,1,.55,6.58l-.27,16.26a32.2,32.2,0,0,0,9-6.58l4.48-.42,3.86.77a2.15,2.15,0,0,0,1.44,0,2.17,2.17,0,0,0,.81-1c6.35-11.81,15.27-22.67,27.11-28.94a34.37,34.37,0,0,1-11,20.84q9.36-4,19.06-7.14l2.36-2.32,3.91-1.39,6.57,2.6c.29,5.15-7.31,7.72-11.26,11-9.17,7.72-21.06,11.67-33,12.93,2.46,3.23,7.15,3.55,11.2,3.3a91.83,91.83,0,0,0,23.84-4.66l2.2-2.29c2.16-1.49,5.52.39,5.86,3s-1.79,5.11-4.34,5.76c-1.31.33-2.69.27-4,.59a22.31,22.31,0,0,0-4.53,2.08,29.72,29.72,0,0,1-9.13,2.56,33.35,33.35,0,0,1-12.44-.31,18.07,18.07,0,0,1-10.36-6.57,3.87,3.87,0,0,0-.84-1c-1.36-1-3.15.33-4.3,1.53l-.28,8.42,10.7,1.56a8.8,8.8,0,0,1-6,8.13,1.84,1.84,0,0,0-.85.42,1.56,1.56,0,0,0-.29.9c-.22,1.78-.31,3.91,1.1,5a6,6,0,0,0,2.13.88,20.65,20.65,0,0,1,6.18,3,12.53,12.53,0,0,1-8.26,4.17l-.15,5.19a17,17,0,0,0,1.22,6.17,17.55,17.55,0,0,1,1.43,4,12.3,12.3,0,0,1,0,2.35c-.15,2.29-.29,4.58-.44,6.88l-4.83,6.43a13.48,13.48,0,0,1,8.31,7.24,13.28,13.28,0,0,0,1.55,3.08,8.93,8.93,0,0,0,3.54,2.31q18.93,8.4,38.6,15l23.16,2.53-.06-11.5A154.51,154.51,0,0,1,983,1648a78,78,0,0,1,8.88-28.83l.57-3.76,8.79.5a39.85,39.85,0,0,0-2,8.09,13.39,13.39,0,0,0,1.45,8.08c.52.9,1.18,1.72,1.62,2.65.92,1.93.83,4.15,1,6.28s.61,4.44,2.27,5.78l4.54,12.61c.35-1.52.7-3,1-4.54.1-.41.26-.89.67-1a1,1,0,0,1,.66.12c8,3.21,16,7.41,24.6,7.2Zm-104.69,36.55L920.4,1708l-1.68,2.94c-.69,2.35-1.37,4.71-2.05,7.06l.58,1.73,4.42-6a1.93,1.93,0,0,1,.64-.63c1.06-.54,2,1,3.11,1.35l3.39-5.68C930.71,1705.53,932.67,1702.16,932.79,1698.44ZM952.42,1681q-17.07-5.8-33.56-13.22l-1.89,2.92q.49,10.23.23,20.48l0,2.32a4.64,4.64,0,0,1,3.17,2.93,41.7,41.7,0,0,1,1.23,4.31,1.12,1.12,0,0,0,.39.67c.39.26.9,0,1.28-.29a58,58,0,0,0,6.75-5.57c1.08-1,2.23-2.17,3.71-2.39s3.24,1.06,2.83,2.5c5.75-3.71,9.14-10.5,15.22-13.62Z"></path>
    <path data-name="1a" data-official="" data-plain="Seed" data-loc="" d="M93.13,2561a212.68,212.68,0,0,1,2.14-35.48c1.39-9.55,4.76-20.59,13.92-23.66,5.9-2,12.67.31,17.13,4.65s6.9,10.41,8.07,16.52c1.42,7.41,1.17,15,.91,22.56l-.91,26.07c-.23,6.69-.43,13.57,1.79,19.89,2.93,8.3,9.64,14.57,15.06,21.51s9.79,16,6.93,24.34c-2,5.83-7.28,10.07-13,12.31s-12,2.78-18.13,3.29l-15.48,1.29c-6.53.54-14.07.71-18.48-4.13-5.37-5.9-2.65-15.49,1.86-22.08s10.68-12.59,11.92-20.48c1.08-6.82-1.81-13.57-4.63-19.87l-6.62-14.79Z"></path>
    <path data-name="2" data-official="Pastinaca sativa" data-plain="Parsnip" data-loc="England" d="M1165.87,2098.9a134.91,134.91,0,0,1,56.67,11.12,26.59,26.59,0,0,1,7,4c4.51,3.91,6.2,10.13,7,16l.17,8.09a409.85,409.85,0,0,1,9.82,58.74c1.69,18.14,2,37.22-5.88,53.64-8.29,17.26-25.1,30.36-29.09,49.09-1.39,6.52-1.09,13.29-2.22,19.86s-4.12,13.37-10,16.52c-5.36,2.88-11.86,2.12-17.89,1.29-2.17-.31-4.45-.65-6.17-2-3.91-3.09-2.81-9.25-4.62-13.9-3-7.77-13.75-10.16-17.14-17.78A21.1,21.1,0,0,1,1152,2296c-1-20.76,3-41.39,5.69-62,5.36-41.6,5-83.7,4.72-125.64Zm-136.2-355.26c5.79,7.61,11.69,15.33,19.35,21l4.58,2.2a53.46,53.46,0,0,1,15,16.47l2.62,5.32c5.27,12.91,15,23.37,24.22,33.88a557.71,557.71,0,0,1,57.9,79.48l3.5,4.39,6.51,6.52a39.78,39.78,0,0,1,3.81,4.2,26.81,26.81,0,0,1,4.74,12.66,80.78,80.78,0,0,1,.23,13.65l-.9,22.47-2.22,5.23q-3.77,52.72-4.61,105.61l2.31,5.63,20.52,2.84c5,.7,10.11,1.4,15.07,2.6,9.45,2.29,18.36,6.36,27.14,10.54l-1.38-7.28c-.74-4-1.43-8.35.36-12,.54-1.11,1.29-2.1,1.83-3.21,1.49-3.07,1.23-6.66.93-10.06l-1.64-11.06a20,20,0,0,1-1.64-7.55,39.26,39.26,0,0,1,.23-4.33c.16-1.87.4-3.9,1.7-5.27.72-.76,1.84-1.56,1.53-2.57l1.1-5.22q.42-14,.88-28c.75-23,1.68-46.44,9.83-67.93,2.22-5.85,5-12.17,3-18.11l-3.2-7.62c-1.94-6.19-.38-12.88,1.18-19.18a17.53,17.53,0,0,1,2-5.29c2-3.09,5.78-4.79,7.35-8.11l2.1-5.59a410.34,410.34,0,0,1,24.43-45.81c1.88-3,3.82-6.12,4.76-9.57l-.7-5c-1-2.79-4.41-3.71-7.16-4.84a22.11,22.11,0,0,1-7.84-5.46,44.37,44.37,0,0,1-4.28,17.6c-1.83,3.84-5.25,7.91-9.44,7.17a3.7,3.7,0,0,0-1.77-.13,2.73,2.73,0,0,0-1.19,1c-2.82,3.26-6.09,6.39-10.21,7.67s-9.25.16-11.45-3.54c-2.94-.59-6-.06-9-.37s-6.22-1.87-6.93-4.78c-.37-1.5-.06-3.29-1.09-4.44-.43-.48-1-.77-1.5-1.22a5.74,5.74,0,0,1-1.17-2.21l-3.26-9.4a19,19,0,0,0-4.36,4.53l-2,4.43a81.68,81.68,0,0,1-1.18,10.24,9.11,9.11,0,0,1-1.7,4.47c-2.55,3-7.64,1.8-10.54-.88s-4.67-6.42-7.68-9c-1.48-1.26-3.21-2.2-4.77-3.37a43.36,43.36,0,0,1-4.45-4.13c-7.32-7.39-15.18-14.22-23-21l-23.43-20.35-6.44-3c-6.36-5.08-13.06-10.32-21-11.94a25,25,0,0,1-5.1-1.23,16.75,16.75,0,0,1-4.39-3.21l-5.12-4.69a4.89,4.89,0,0,1-2-4.21,105.83,105.83,0,0,0-2.17-13.47l-1.6-4.75a36.1,36.1,0,0,0-2.72-11.21c-1.66-3.48-4.52-6.58-8.22-7.68-2.34-.7-4.93-.6-7.1-1.71a11.56,11.56,0,0,1-3.53-3.08,35.32,35.32,0,0,1-3.67-5.31,75.18,75.18,0,0,1-3.29-6.9L1038.3,1666l-.82-4.1c-3.73,4.08-5.85,9.38-7.25,14.73-4.63,17.67-2.21,36.4-4.58,54.5ZM2051,698.37c-2.29,15.06-8.12,29.31-13.9,43.4-4.32,10.53-8.8,21.32-16.59,29.62-11.71,12.47-29,17.52-44.42,25-5.51,2.68-11.57,6.91-11.45,13,.16,7.23,8.92,11.1,16.14,10.87s14.63-2.69,21.54-.57c10.83,3.33,15.15,19.17,7.5,27.53l-4.83,8.18a412.48,412.48,0,0,1-48.71,86.87c-5,6.88-10.46,14-11.89,22.37-2.56,15.15,8.51,29.15,20.28,39s25.53,18.73,31.75,32.77c7.14,16.09,2.63,35.36,9,51.77,4.33,11.18,13.46,20.32,16.07,32a8,8,0,0,1-.06,4.84c-1,2.23-3.43,3.32-5.73,4.08-21.56,7.16-45.2,3.47-67.05-2.75s-43.15-14.91-65.68-17.77c-8.84-1.12-21,1.33-21.33,10.24-.17,4.11,2.54,7.73,5.27,10.81,20.79,23.41,52,40.51,59.64,70.86.66,2.59,1.09,5.44-.07,7.84s-3.46,3.71-5.75,4.84a64.12,64.12,0,0,1-43.39,4.81c-11.51-2.81-23.53-8.85-34.57-4.54-2.35.92-4.52,2.29-7,3-8.26,2.45-16.52-3-23.76-7.73s-16.89-8.77-24-3.93c-3.91,2.66-5.92,7.4-9.61,10.36-7.06,5.65-17.91,2.89-24.87-2.88s-11.55-13.87-17.78-20.42c-5.56-5.84-15.16-10.36-21.26-5.09-2.89,2.49-4,6.45-4.73,10.19a125.4,125.4,0,0,0-2,35.59l-4.52,10.77q-1.93,9.33-3.88,18.67c-.44,2.1-1.28,4.62-3.39,5-1.48.26-2.88-.71-4-1.69-2.13-1.82-4.07-3.84-6-5.85l-8.67-9-.19-1.74c-1.45-2.12-1.64-4.82-2.2-7.33s-1.86-5.21-4.32-6a.81.81,0,0,0-.51,0,.91.91,0,0,0-.45.42l-1.69,2.48a1,1,0,0,1-.5.46,1.15,1.15,0,0,1-.37,0l-5.7-.59-4.65,1.41a13.22,13.22,0,0,1-3.43-1.16,4.44,4.44,0,0,1-2.24-2.73c-.17-.73-.08-1.5-.18-2.25a2.1,2.1,0,0,0-1.19-1.79,3.72,3.72,0,0,0-2.15.33c-.71.2-1.68.08-1.89-.62-.15-.49.16-1,.32-1.46a2.84,2.84,0,0,0-2.58-3.59c-.91,0-1.93.81-1.66,1.68l-.72.15c-1.74-2-3.62-4.14-6.17-4.9a19.25,19.25,0,0,0-4.29-.47,26.14,26.14,0,0,1-12.07-3.85l-5.33-2.69c-6.53-1.07-12.15-5.06-17.51-8.94l-24.28-17.57c-3.49-2.52-7-5.1-9.63-8.53-2.76-3.66-4.29-8.07-6.07-12.29-7.66-18.19-20.32-33.75-32.8-49A339,339,0,0,1,1449.45,1240c-5.26,5.56-10.7,10.93-16.14,16.3l-2.12,2.09-11.46,11.32-3,13.51-29.81,34.73c-7.1,8.27-14.32,16.74-18.44,26.83-4.77,11.66-5,24.59-5.26,37.19q-.6,35.28-1.19,70.56l-2.92,5.67c-1.24,2-4,2.28-6.26,1.61s-4.13-2.08-6.27-3c-3-1.26-6.4-1.39-9.68-1.52a2.11,2.11,0,0,0-2.64,2.39c-.68,6.9-1.34,14,.71,20.64,2.5,8.07,8.68,14.38,14.66,20.36l-.49,11.36c-5.73.78-11.17-2.53-15.76-6.06s-9.18-7.54-14.87-8.57c-1.08,9.15,1.47,18.37,5,26.86a17.89,17.89,0,0,1,1.64,5.2,13.1,13.1,0,0,0,.44,3.71,9.08,9.08,0,0,0,2.74,3.06c5.44,4.8,8.11,12.6,14.5,16l-3.9,19.63c-.81,17.72-1.63,35.48-4.45,53-1.11,6.81-2.51,13.56-3.91,20.32q-1.89,9.11-3.79,18.23a67.32,67.32,0,0,1-2.74,10.39c-2.35,6.15-6.49,11.61-8,18l-3.22,3.18a82.4,82.4,0,0,0-19.89,5.16q-.32-6.57-.62-13.15c-.22-4.59-.87-9.94-4.83-12.27-2.77-1.63-6.36-1.19-9.26-2.59-2.28-1.1-3.89-3.21-5.87-4.79a14.94,14.94,0,0,0-13.48-2.52l.18-7.53c2.36-41.39,4.73-82.92,12.49-123.64,2-10.36,4.3-20.69,5.13-31.21l-1.37-14.61c-.31-77.19,20.08-154.59,8.45-230.89-.54-3.57-1.74-7.81-5.22-8.78a8.88,8.88,0,0,0-5.39.73c-16.2,6.16-28.08,20.23-43.41,28.32a65.47,65.47,0,0,1-37.07,7.17c-4.24-.44-8.6-1.36-12-4-5.71-4.36-7.29-12.23-7.67-19.41a99,99,0,0,1,.9-19.61c.54-3.71,1.3-7.5.54-11.17s-3.5-7.26-7.23-7.62l.07-9.5a17.68,17.68,0,0,0-4.13-2.17,44,44,0,0,1-7.13-4.45c-1.12-.8-2.35-1.77-2.48-3.15l-.59-2.4c1.12-2,3.78-2.47,6-2.94a30.54,30.54,0,0,0,6.8-2.27c1.18-.55,2.47-1.39,2.57-2.69s-1-2.34-2.15-3-2.38-1.39-2.8-2.63a3.27,3.27,0,0,1,.66-3,7.89,7.89,0,0,1,2.45-2,32.64,32.64,0,0,1,9-3.56c3.53-.81,7.21-1,10.57-2.39a3.7,3.7,0,0,0,2-1.43,5.66,5.66,0,0,0,.42-2.13,7.13,7.13,0,0,1,2.69-4.83,6.15,6.15,0,0,1,5.37-1,11.6,11.6,0,0,1,2.7,1.36l7.35,4.58,4.55,2.19a6.32,6.32,0,0,0,5.52,1.09,18.43,18.43,0,0,0,5.28-2.42,6.61,6.61,0,0,0,7.37,4.5,11.55,11.55,0,0,0,4-1.88,54.34,54.34,0,0,0,5.5-4.16l1-5.49-.87-2.07c-1.19-2.84-2.41-5.9-1.81-8.92l-1.47-2.63a94.43,94.43,0,0,1-.09-11.41,8.62,8.62,0,0,1,.61-3.23,3.12,3.12,0,0,1,2.51-1.9c.35,0,.75,0,1-.2a1.12,1.12,0,0,0,.22-.88l-.3-7.16,0-3.24a33.9,33.9,0,0,1,3.69-8.91,3.16,3.16,0,0,1,1.17-1.31,3,3,0,0,1,1.77-.13A20.66,20.66,0,0,1,1262,1124.8l3.78,7.45a6.27,6.27,0,0,1,8.6,2.3,9.65,9.65,0,0,0,.86,1.62,1.59,1.59,0,0,0,1.61.66,2.55,2.55,0,0,0,1.1-1,10.27,10.27,0,0,1,5.6-3.38,24.81,24.81,0,0,1,6.61-.56l.75-1.69c0-7.87.46-15.75,1.27-23.59.44-4.19,1.27-8.88,4.71-11.32a10.29,10.29,0,0,1,8.57-1.1,28.17,28.17,0,0,1,7.92,4.06,78.83,78.83,0,0,1,12.17,9.5c1.9,1.88,3.69,4,6,5.24a16.8,16.8,0,0,0,6.88,1.75,26.36,26.36,0,0,0,13.15-2.08l3-2.19a10.34,10.34,0,0,0,3.64-5.91,30.71,30.71,0,0,0,.63-7c0-1.91,0-3.82.07-5.73a19,19,0,0,0-.42-5.22,6.42,6.42,0,0,0-3-4.1l-.59-2.5c-1.68-3.29-1.48-7.18-1.27-10.87q.67-12.15,1-24.33l1.09-5.71a12,12,0,0,0,3.42-6.37,36.43,36.43,0,0,0,.58-7.31q0-3.11.07-6.2c0-2.57.06-5.14-.14-7.7a45.65,45.65,0,0,0-1.76-9.35l-2.44-15.38a4.47,4.47,0,0,0-2-2.38,22.7,22.7,0,0,1-2.68-1.73,15.73,15.73,0,0,0-1.4-1.31,5.21,5.21,0,0,0-3.8-.67,3,3,0,0,0-.88.23,9.09,9.09,0,0,0-1.37,1,3.45,3.45,0,0,1-4.68-.84l-2.47-1.48c-8.94.25-18,.52-26.62,2.82l-5.87-1.21a4.6,4.6,0,0,1-2.83-.82,3.17,3.17,0,0,1-.9-2.66,13.36,13.36,0,0,1,.72-2.83,21.92,21.92,0,0,0,.94-7.2,2.54,2.54,0,0,1,.39-1.88,5.43,5.43,0,0,1,1.24-.72c1.11-.68,1.35-2.17,1.41-3.47a34.23,34.23,0,0,0-.69-8.45l-3.15-1.57a14,14,0,0,0-12.29,6.14l-2.58-.32a7.91,7.91,0,0,1-4.5-4.12,23.34,23.34,0,0,1-1.8-6,32.77,32.77,0,0,1-.76-5c-.08-1.81.15-3.62,0-5.42a12,12,0,0,0-5.4-8.76L1271,926a13,13,0,0,1-3.1-4.53,14.54,14.54,0,0,1-.62-4.26,58.53,58.53,0,0,0-.54-8,14.24,14.24,0,0,0-3.25-7.27,8.18,8.18,0,0,0-7.24-2.73l-1.55-2.65a135.14,135.14,0,0,0-4.76-46.75c-1-3.51-2.35-7.26-5.44-9.2l1.67-3.86c1-3.89,4.24-6.8,7.72-8.8s7.31-3.35,10.66-5.56a48.89,48.89,0,0,0,7.29-6.36c6.7-6.66,13.63-13.68,16.59-22.66l1.66-5.19c3.3-5.14,3.18-12.23,7.5-16.55,3.31-3.32,8.31-4.06,12.92-4.87s9.65-2.17,12.22-6.08c2.15-3.28,2-7.51,1.66-11.42-.54-6.39-1.36-12.89-4.15-18.66-5.58-11.56-17.85-18.11-29.52-23.46-5.87-2.69-11.79-5.27-17.89-7.4l-8.12-4.93c-5,.23-9.88-2.14-14-5.13s-7.64-6.62-11.77-9.53l-9.08.51c-4.41.52-8.44-3.24-9.7-7.49s-.41-8.84.65-13.15c1.75-7.07,4.14-14.16,8.64-19.9a8.33,8.33,0,0,0,1.39-2.15,8.63,8.63,0,0,0,.27-3.21c-.12-9.73,6.07-18.26,12-26,3.29-4.3,6.67-8.68,11.23-11.59s10.62-4.1,15.42-1.59a28.12,28.12,0,0,1,6.21-15l4.66-2.15a8,8,0,0,1,5.58,0,15.75,15.75,0,0,1,4.84,2.94,18,18,0,0,1,2.78,2.81c.52.68,1,1.4,1.42,2.12q1.47,2.37,3,4.73l2,1.67a25.06,25.06,0,0,1,10-6.68l-3.48-5.1a23.22,23.22,0,0,1-5.14-14.26,9.65,9.65,0,0,1,.78-4.39,10,10,0,0,1,4-3.94c7.13-4.34,15.87-5,24.21-4.81L1337,553l4.73,6.76c.55.78,1.24,1.64,2.19,1.64a2.6,2.6,0,0,0,1.89-1.24c1.41-1.89,2.16-4.4,4.17-5.65,2.4-1.5,5.71-.47,7.67,1.57s2.88,4.83,3.74,7.52a26.49,26.49,0,0,1,7.55-9l6.32-5.58c2.57-5.48,5.37-11.24,10.42-14.57,6.32-4.18,14.58-3.54,22.06-2.35l4.49-3.34c4.34-1.48,9.41-.46,13.38-2.75,3.15-1.83,4.86-5.33,7.33-8a18,18,0,0,1,15.78-5.49c1.89.3,3.76.9,5.67.72,4.56-.43,7.56-5.09,11.88-6.62,6.33-2.25,13.46,2.72,19.89.76a32.55,32.55,0,0,0,5.72-2.94,24.54,24.54,0,0,1,20.26-1.29,12.72,12.72,0,0,0,4,1.18,15,15,0,0,0,4.14-.84,16.36,16.36,0,0,1,15.26,4.09c2.36,2.32,4.18,5.5,7.33,6.52,2.37.77,4.93.11,7.4-.25a31.29,31.29,0,0,1,25.27,7.69l-1.29-14c-.47-5.05-.5-11.09,3.65-14,3.89-2.75,9.28-1.08,13.55,1.05a78.86,78.86,0,0,1,12.72,7.93c1,.73,2.11,1.54,3.27,1.2s1.64-1.46,2.09-2.49c2.18-5.07,5.23-10.71,10.64-11.79l3.54,2.72c9.44,5.62,14.81,15.94,21.61,24.55a6.52,6.52,0,0,0,2.41,2.15,2.37,2.37,0,0,0,2.91-.7,4.74,4.74,0,0,0,.28-2.44,9.34,9.34,0,0,1,2.87-6.31,27.56,27.56,0,0,1,5.72-4.18l5.46-1.63c2.95.9,5,3.61,6.23,6.46s1.7,5.94,2.71,8.86c2.48,7.18,7.93,13.31,9,20.83l5.91,7.22a81.24,81.24,0,0,0,12,9.46,28.8,28.8,0,0,1-.48-9.35c.23-2,1.07-4.45,3.08-4.79s3.74,1.89,4.58,3.88a39.87,39.87,0,0,1-8.85,43.08l-3.64,6.52c-.94,5.16-5.1,9-8.45,13s-6.14,9.64-3.83,14.36c1,2.15,3,3.71,4.9,5.19L1727.3,659c4.4,3.43,10.25,7,15.14,4.34,3.28-1.8,4.66-5.86,4.83-9.6s-.56-7.49-.19-11.22c.73-7.25,5.75-13.65,12.13-17.17s14-4.43,21.22-3.78c2.4.21,4.84.59,7.19.08a13.22,13.22,0,0,0,5.19-2.59c14.89-11.52,8-37.35,20.65-51.34,5.94-6.58,15.37-9.42,20.7-16.51,4.09-5.43,5.11-12.48,6.51-19.13,4.52-21.49,15.19-42.79,33.79-54.46,6.79-4.27,15.18-7.14,22.82-4.69,8.48,2.73,13.65,11.1,17.84,19a448.1,448.1,0,0,1,30.31,71c6.07,18.51,11,37.66,11,57.14a116.5,116.5,0,0,1-17.56,61.22l6.56,7.61c10.52-9.32,26.37-8.42,39.56-13.28,17.3-6.37,30.16-22.79,48.26-26.31a10.22,10.22,0,0,1,4.6-.08c2.53.68,4.3,2.9,5.71,5.11C2051.68,667.15,2053.25,683.32,2051,698.37Zm-753.61-60a2.17,2.17,0,0,0-.81-.81,39.69,39.69,0,0,1-6.64-5.77q-.56,5.87-1.1,11.73a3,3,0,0,0,0,.84,4.39,4.39,0,0,0,.4,1,10.23,10.23,0,0,1,.55,4.86l2.9.62a10.57,10.57,0,0,1,3.54-2.86,1.72,1.72,0,0,0,.81-.61,1.56,1.56,0,0,0,.15-.74l.3-7.33A2.13,2.13,0,0,0,1297.36,638.36ZM1310,640a29.18,29.18,0,0,1-2.77-7.35c-.87-4.67.53-9.65-1-14.14a22,22,0,0,0-1.79-3.65l-3-5.32q.42,12.13.83,24.27l2.13,2.45,3.16,3.06C1308.21,640,1309.33,640.64,1310,640Z"></path>
    <path data-name="2a" data-official="" data-plain="Flower" data-loc="" d="M204.69,2556.37c-2.3-5.7-6.46-10.51-8.78-16.2-3.4-8.35-2.47-18.18,1.79-26.12a39.29,39.29,0,0,1,20-17.41c3.37-1.37,6.91-2.34,10.16-4,3.45-1.73,6.48-4.17,9.78-6.16,15.67-9.46,35.35-8,53.57-6.14,10.26,1,20.91,2.16,29.76,7.47,6.8,4.08,12,10.32,16.84,16.6,5.82,7.54,11.44,15.52,14,24.69,1.76,6.27,2,12.85,2.08,19.36.32,30.57-4,62.86-22.7,87.06a91,91,0,0,0-6.2,8.34,17.83,17.83,0,0,1-2.76,4,13.48,13.48,0,0,1-4.06,2.35L296,2659.85c-5.61,2.44-11.31,4.9-17.38,5.7s-12.16-.11-18.19-1l-19.65-2.94c-3.07-.46-6.21-.94-8.94-2.44a23.26,23.26,0,0,1-6.8-6.43,103.21,103.21,0,0,1-19.72-82.11Z"></path>
    <path data-name="2b" data-official="" data-plain="Fruit" data-loc="" d="M408,2593.09c-2.84-7.21-11.44-10.15-16.44-16.08-3.33-4-4.91-9.06-6.1-14.09a128.34,128.34,0,0,1-3.45-32.38c.16-7.27,1-14.72,4.22-21.24,2.82-5.68,7.36-10.42,9.75-16.29.82-2,1.41-4.17,2.8-5.83,2.55-3.06,7-3.54,11-3.8l27.91-1.84c5.94-.39,12.08-.75,17.67,1.29a29.9,29.9,0,0,1,10.9,7.52c16.05,16.51,18.18,42.32,14,65-1.25,6.77-3,13.54-6.36,19.56-2.25,4.05-5.19,7.69-7.26,11.84a32.83,32.83,0,0,0,1.57,31.57c4.62,7.33,12.2,12.83,15.11,21,3.11,8.75,0,18.6-4.94,26.44-2.61,4.11-5.94,8.06-10.49,9.79-3.31,1.26-7,1.23-10.41,2.05-4.58,1.09-8.71,3.65-13.3,4.69-10.59,2.4-21.08-3.61-30.29-9.37-2.55-1.6-5.23-3.34-6.49-6.06a12.51,12.51,0,0,1-.86-6c.64-10.9,7.08-20.48,11-30.69s4.41-23.58-4.25-30.25Z"></path>
    <path data-name="3" data-official="Crithmum maritimum" data-plain="Samphire" data-loc="Rocky Sea-shores, England" d="M1516.79,2191.5c-13.37,20.08-30.35,37.45-45.82,56s-29.75,38.76-36.29,62c-3.93,13.95-4.94,28.54-7.74,42.76s-7.71,28.63-17.89,38.94a63.29,63.29,0,0,1-19.76,13c-12.28,5.41-25.53,8.15-38.67,10.85-15.22,3.13-30.48,6.26-45.95,7.66-10.05.91-21.7.43-28.08-7.39a20.38,20.38,0,0,1-4.27-12.54c-.21-11.39,7.14-21.6,15.62-29.22s18.41-13.62,26.11-22c8.69-9.48,14.06-21.48,18.85-33.41q10.13-25.17,17.72-51.25l-1.85-9.64a245.78,245.78,0,0,1-2.78-39.17c0-5,.24-10,1.61-14.81a61.83,61.83,0,0,1,4.38-10.39l4.87-9.85c1.65-3.34,3.35-6.75,6-9.34a32.83,32.83,0,0,1,5.8-4.17c6-3.69,12.07-7.39,18.61-10l3.54,2.46a12.8,12.8,0,0,1,8.46,9.64l2.07,5.06A34.4,34.4,0,0,0,1405,2188a12.77,12.77,0,0,0,3.44,4.42c3.72,2.77,9.18,1.66,12.93-1.06s6.32-6.72,9.31-10.26a50.39,50.39,0,0,1,10.24-9.21l6.06-2.27a13.26,13.26,0,0,0,5.92-3.71,10.87,10.87,0,0,0,2.09-3.19,28.59,28.59,0,0,0,1.16-4.29c1.5-6,5.06-11.21,8.56-16.29l5.25-4.65,5.81-12.15a8.21,8.21,0,0,0,.87-7.14l-1.39-5.94-2-4c-10.11-16.92-19.18-34.9-22.4-54.34a192.86,192.86,0,0,1-2-24c-1.07-26.69-2.13-53.5.65-80.07l4.17-3a41.21,41.21,0,0,0,16.07-.53,35.5,35.5,0,0,1,5.35-1.09,12.54,12.54,0,0,1,5.62.87l5,4.18c.61,14.6,1.25,29.33,5,43.45a23.87,23.87,0,0,0,2.56,6.55,4.24,4.24,0,0,0,2.88,2.25,3.61,3.61,0,0,0,2-.51c2.57-1.39,4-4.25,4.73-7.07s1-5.78,2.12-8.49a15.12,15.12,0,0,1,12.23-9.18l3.77,1c4.78,2.29,6.62,8,7.88,13.18,4.81,19.56,8.54,39.7,17.86,57.55l-.81,8.87c-5.93,7.36-8.28,17-9.1,26.41s-.27,18.92-1.23,28.32a89.06,89.06,0,0,1-6.23,24.77l-1.76,5.92c-.83,3.84-4.45,6.32-6.76,9.49a26.43,26.43,0,0,0-3.82,8.92c-.75,2.77-1.37,5.67-.84,8.49Zm427.69-565.15c14.54-7.5,28.68-16.89,37.81-30.47s12.36-32.07,4.57-46.46c-4.14-7.64-11.29-14.51-10.95-23.19s8.07-15,14.38-21,12-15.42,7.69-23c-3.37-5.86-11.1-7.36-17.86-7.46-34.64-.54-66.06,19-94.59,38.69-.06-16.26-.3-33.24-7.79-47.67s-24.7-25.23-40.07-19.92c-.93-9.41.18-18.91-.27-28.36s-2.73-19.32-9.22-26.2-18.1-9.51-25.61-3.76c-4.12,3.15-6.34,8.11-9.43,12.28s-8.07,7.86-13.09,6.55c-7.9-2.06-8-13.34-5.25-21,5.45-15,15.16-28,22-42.38s10.84-31.61,4.15-46.07c-5.74-12.4-18-20.25-29.88-27-18.16-10.38-37.51-24.1-58.39-25.33l-9.55-1.12q-1.93,9.33-3.88,18.67c-.44,2.1-1.28,4.62-3.39,5-1.48.26-2.88-.71-4-1.69-2.13-1.82-4.07-3.84-6-5.85l-8.67-9-.19-1.74c-1.45-2.12-1.64-4.82-2.2-7.33s-1.86-5.21-4.32-6a.81.81,0,0,0-.51,0,.91.91,0,0,0-.45.42l-1.69,2.48a1,1,0,0,1-.5.46,1.15,1.15,0,0,1-.37,0l-5.7-.59-4.65,1.41a13.22,13.22,0,0,1-3.43-1.16,4.44,4.44,0,0,1-2.24-2.73c-.17-.73-.08-1.5-.18-2.25a2.1,2.1,0,0,0-1.19-1.79,3.72,3.72,0,0,0-2.15.33c-.71.2-1.68.08-1.89-.62-.15-.49.16-1,.32-1.46a2.84,2.84,0,0,0-2.58-3.59c-.91,0-1.93.81-1.66,1.68l-.72.15c-1.74-2-3.62-4.14-6.17-4.9a19.25,19.25,0,0,0-4.29-.47,26.14,26.14,0,0,1-12.07-3.85l-5.33-2.69c-6.53-1.07-12.15-5.06-17.51-8.94l-4.85.39-44.22,5.71a69,69,0,0,0-12.86,2.5c-3.87,1.28-7.5,3.24-11.43,4.31-6.8,1.86-14,1-21,.69a114.21,114.21,0,0,0-35.65,4.3l-6.79,4.55q-4.53,5.19-9.26,10.19c-5.26,5.56-10.7,10.93-16.14,16.3l-2.12,2.09-11.46,11.32-3,13.51,4.35,2.93c6.84,3.26,13.92,6.72,18.68,12.62s6.43,15,1.75,21c-2,2.5-5,4.59-5.17,7.75-.18,3.46,3.36,6.06,6.77,6.61s6.91-.23,10.36,0c10.34.73,18.14,10.34,28.34,12.15,4.16.74,8.46.13,12.63.81,5.23.85,9.91,3.66,14.43,6.42l28.18,17.18c4,2.41,8.09,5,10.27,9.1,1.23,2.31,1.73,4.92,2.62,7.38a24.94,24.94,0,0,0,22.73,16q-2.65,33.46-5.3,66.94a8.11,8.11,0,0,1-.9,3.69c-1.73,2.77-5.76,2.43-9,2.09a47.69,47.69,0,0,0-30.58,7.25,6.33,6.33,0,0,1-3.07,1.32,5,5,0,0,1-3.2-1.42c-7.72-6.52-8.25-20.22-17.68-23.84a20.38,20.38,0,0,0-8.27-.86c-9.06.39-19.31,2.57-23.88,10.4a5,5,0,0,1-1.74,2.13c-2,1.08-4.08-1.39-5.1-3.46-4-8.19-8.48-16.39-15.1-22.68s-15.83-10.46-24.85-9c-1.49.23-3.18.56-4.35-.39a4.76,4.76,0,0,1-1.29-2.2c-2.94-8.26-4.85-16.87-8.06-25s-7.93-16.06-15.16-21-17.36-11.35-24.79-6.7l-7.12,1.61q-.6,35.28-1.19,70.56l-2.92,5.67c-1.24,2-4,2.28-6.26,1.61s-4.13-2.08-6.27-3c-3-1.26-6.4-1.39-9.68-1.52a2.11,2.11,0,0,0-2.64,2.39c-.68,6.9-1.34,14,.71,20.64,2.5,8.07,8.68,14.38,14.66,20.36l-.49,11.36c-5.73.78-11.17-2.53-15.76-6.06s-9.18-7.54-14.87-8.57c-1.08,9.15,1.47,18.37,5,26.86a17.89,17.89,0,0,1,1.64,5.2,13.1,13.1,0,0,0,.44,3.71,9.08,9.08,0,0,0,2.74,3.06c5.44,4.8,8.11,12.6,14.5,16l3,12.9A451.38,451.38,0,0,0,1404,1597.7l7.39,1.94c16.89,11.74,36.06,19.72,53.92,29.94s35,23.39,44.13,41.83c4,8.13,6.31,17,8,25.9,2.38,12.61,3.68,25.76,9.77,37.06,2.37,4.39,5.41,8.39,7.7,12.82,11.73,22.63,2.11,51.68,13.07,74.69l2.49,5a226.52,226.52,0,0,1-.86,37.29c-.35,3.32-.75,6.8.55,9.87.59,1.39,1.51,2.61,2.18,4,1.48,3,1.7,6.42,1.82,9.76.25,6.91.18,13.84-.21,20.75l-3.49,10.46a263.5,263.5,0,0,0-10.57,48.49l-1.38,9.08c-1.89,6.78,0,14,1.81,20.76,3.61,13.31,7.3,26.78,14.1,38.77l7,1.23c9.64-5,17.43-13.09,23.53-22.09s10.64-19,15.06-28.88c4.71-10.59,9.35-21.32,11.68-32.68,3-14.77,2-30.15,5.25-44.87l6.15-7.14a405.48,405.48,0,0,1,34.37-79.06c5.6-9.84,11.66-19.53,19.4-27.8,12.56-13.44,29-22.6,45.64-30.41,71.21-33.36,150.31-45.4,228.34-55.21,11.26-1.42,23.66-3.38,30.94-12.09,8-9.54,6.64-24.31.11-34.89s-17.15-17.84-27.63-24.52Z"></path>
    <path data-name="4" data-official="Hydrocotyle vulgaris" data-plain="Marsh Penny-wort" data-loc="Marshes, England" d="M588.42,2024.67l-11.85,15.56c-2.4,3.16-4.81,6.33-7.5,9.25a64.7,64.7,0,0,1-29.51,18.27l-6.73-1.27c-3.05-3.47-4.4-8.17-4.64-12.78s.56-9.2,1.34-13.75l5.93-4a55.73,55.73,0,0,0,28.59-32.41c6.59-19.91,1.45-42.18,7.56-62.25l-2.88-6.75a85.36,85.36,0,0,1-14-13.64c-5.32-6.52-9.82-14.47-9.08-22.85a6.46,6.46,0,0,0-.2-3.36c-.59-1.24-1.95-1.85-3.14-2.51-5.94-3.26-9.7-9.6-11.37-16.17s-1.5-13.45-1.33-20.23c.22-9,.65-18.62,6-25.89,2.84-3.89,7-7,8.32-11.64.72-2.53.48-5.22.43-7.84a50.21,50.21,0,0,1,3.9-20.17l5.08-4.23a35.82,35.82,0,0,1,24.94-13.09c3-.22,6-.07,8.89-.9,3.7-1.06,6.74-3.64,10.17-5.39,4.64-2.39,9.91-3.22,15.09-3.85a228.58,228.58,0,0,1,29.12-1.68c7.83.05,15.7.51,23.28,2.43s14.9,5.4,20.51,10.85c8.56,8.34,12.34,20.39,14.52,32.13l2.17,6.26c1.42,8.1,9.74,12.92,14,20,3,4.94,3.93,10.87,4.11,16.64s-.3,11.57.16,17.33c.18,2.2.46,4.55-.6,6.48l-1.88,8c1.35,1.24-1,2.89-2.53,4-3.93,2.88-1.69,8.91-.62,13.66,2.86,12.7-5.94,24.78-14.2,34.83-2.3,2.79-4.65,5.64-7.74,7.53-11.19,6.86-25.86-1.5-38.7,1.24-5.37,1.14-10.16,4.19-15.47,5.59-6.13,1.62-12.6,1-18.9.29l-18-1.92A244.25,244.25,0,0,1,591.32,2015ZM515,2071.08l-3.14-9.73a14.25,14.25,0,0,0-1.35-3.22c-1.65-2.63-4.77-3.87-7.68-5l-4.27.43a44.28,44.28,0,0,0-15.69,44.23q-15.36-1.78-30.61-4.47c-7.13-1.25-14.54-2.64-21.5-.69-5.26,1.48-9.83,4.76-13.9,8.41-3.91,3.5-7.59,7.63-8.89,12.71a16.61,16.61,0,0,0,8,18.18c7.46,4,16.54,1.64,25,1a59,59,0,0,1,17.63,1.23,9.5,9.5,0,0,1,3,1.07c2.11,1.28,3.08,3.85,3.42,6.29,1.24,9.12-4.25,17.66-9.59,25.16s-11,15.8-10.29,25c.19,2.39,1,5,3,6.25A9.84,9.84,0,0,0,453,2199c11.27.54,22.63,1.09,33.78-.62,3.77-.58,7.61-1.46,10.67-3.73,6.18-4.58,7.37-13.32,6.9-21-.1-1.56-.34-3.32-1.61-4.23s-3.15-.56-4.72-.12l-11.3,3.11-2.43-2c1.93-6.31,6.23-11.57,10.43-16.66l4.17-5,.34-2.15c.58-1.13-.19-2.48-1-3.42s-1.88-2-1.86-3.23,1.13-2.27,2.14-3.07l12-9.61c2.53-2,5.2-4.11,8.39-4.71.84-.16,1.82-.28,2.28-1a3.33,3.33,0,0,0,.36-1.06,8.28,8.28,0,0,1,4-5.26l-.72-5-6.06-3.95a19.2,19.2,0,0,1-4.73-3.85,15.07,15.07,0,0,1-2.52-5.41,33.76,33.76,0,0,1,.16-18.54Zm1208.32,152.56c-4,11.11-10.45,22.77-21.71,26.28-8.24,2.57-17.39,0-24.6-4.7a43.85,43.85,0,0,1-16.94-21.41c-1.31-3.59-2.3-7.58-5.21-10-4.41-3.73-11.51-2.17-15.72,1.78s-6.29,9.59-8.4,15c-4.78,12.12-12.82,25.61-25.82,26.37-8.07.47-15.35-4.29-22.55-8a93.67,93.67,0,0,0-28-9.12c-9.37-1.48-19-1.55-28.08-4.37s-17.79-9.25-19.89-18.5l2.27-14c2.83-3.72,5.56-7.52,8.15-11.41l-.56-21.32c-.53-2.82.09-5.72.84-8.49a26.43,26.43,0,0,1,3.82-8.92c2.31-3.17,5.93-5.65,6.76-9.49l1.76-5.92a89.06,89.06,0,0,0,6.23-24.77c1-9.4.42-18.9,1.23-28.32s3.17-19.05,9.1-26.41l.81-8.87c-9.32-17.85-13-38-17.86-57.55-1.26-5.14-3.1-10.89-7.88-13.18l-3.77-1a15.12,15.12,0,0,0-12.23,9.18c-1.09,2.71-1.36,5.67-2.12,8.49s-2.16,5.68-4.73,7.07a3.61,3.61,0,0,1-2,.51,4.24,4.24,0,0,1-2.88-2.25,23.87,23.87,0,0,1-2.56-6.55c-3.78-14.12-4.42-28.85-5-43.45l-5-4.18a12.54,12.54,0,0,0-5.62-.87,35.5,35.5,0,0,0-5.35,1.09,41.21,41.21,0,0,1-16.07.53l-4.17,3c-2.78,26.57-1.72,53.38-.65,80.07a192.86,192.86,0,0,0,2,24c3.22,19.44,12.29,37.42,22.4,54.34l2,4c.46,2,.93,4,1.39,5.94a8.21,8.21,0,0,1-.87,7.14q-2.91,6.08-5.81,12.15l-5.25,4.65c-3.5,5.08-7.06,10.3-8.56,16.29a28.59,28.59,0,0,1-1.16,4.29,10.87,10.87,0,0,1-2.09,3.19,13.26,13.26,0,0,1-5.92,3.71l-6.06,2.27a50.39,50.39,0,0,0-10.24,9.21c-3,3.54-5.56,7.54-9.31,10.26s-9.21,3.83-12.93,1.06A12.77,12.77,0,0,1,1405,2188a34.4,34.4,0,0,1-3.62-11.39l-2.07-5.06a12.8,12.8,0,0,0-8.46-9.64l-3.54-2.46c-6.54,2.66-12.59,6.36-18.61,10a32.83,32.83,0,0,0-5.8,4.17c-2.68,2.59-4.38,6-6,9.34s-3.25,6.56-4.87,9.85a61.83,61.83,0,0,0-4.38,10.39l-8.58,2c-5.35,1.42-8.36,7.06-9.93,12.37s-2.44,11.09-6,15.3c-5.55,6.47-17.1,6.24-22.38-.45-3.23-4.08-4.57-10.15-9.38-12.14-5.1-2.1-11.44,1.73-16.27-.94-2.41-1.33-3.76-4-4.78-6.53-4.39-11-5.2-23.15-9.47-34.19-2.51-6.49-6.27-13.26-4.49-20,1.44-5.43,6.19-9.33,8.56-14.42a5.19,5.19,0,0,0,.61-3.25c-.43-1.94-2.54-2.93-4.37-3.69a88.39,88.39,0,0,1-21.25-12.66l-6-4.73a17.35,17.35,0,0,0-4.32-5.93,26.59,26.59,0,0,0-7-4,134.91,134.91,0,0,0-56.67-11.12l-5.62,2.13a15.64,15.64,0,0,0-9.63,12.79l-1.08,4.13c-1,3-2.1,6.05-1.65,9.14.65,4.54,4.35,8,6,12.3a5.6,5.6,0,0,1,.32,3.79c-.52,1.44-1.9,2.36-3.2,3.18l-5,3.16a19.72,19.72,0,0,0-5.79,4.77c-2.73,3.81-2.37,8.91-2.55,13.59s-1.56,10.09-5.88,11.91c-2.54,1.06-5.59.6-8,2-1,.57-1.82,1.43-2.81,2-5,3-11.56-1.8-17.28-.39-3.17.78-5.55,3.36-8.42,4.92a14.06,14.06,0,0,1-8.46,1.59,9.56,9.56,0,0,1-4.54-1.7,14.34,14.34,0,0,1-2.85-3.26l-6.6-9.31-3-2.3c-2.66-3.27-7.33-5.13-8.36-9.21a10.81,10.81,0,0,1-.05-4c.39-3.09,1.11-6.2.64-9.28-.51-3.36-2.4-6.33-3.74-9.46s-2.11-6.88-.43-9.85l1.19-6.91a15.08,15.08,0,0,0-3.24-4.32,3.69,3.69,0,0,0-1.38-.91,4.27,4.27,0,0,0-2.07.06,244.3,244.3,0,0,1-54.72,4.12l-1,4a25.11,25.11,0,0,0,1.79,9.54c1.42,3.09,3.88,5.55,6,8.18s4.11,5.69,4.15,9.09-2.56,7-6,6.93c-.11,2-.21,4-.32,6.07a4.19,4.19,0,0,1-.45,2,3.61,3.61,0,0,1-2.08,1.35c-3.46,1.1-7.22.69-10.74-.18s-6.91,1.79-10.46,1l-5.53.35q.54-5.59,1.09-11.2a108.54,108.54,0,0,0,.75-18c-.41-6-1.88-12.05-5.12-17.12a11.92,11.92,0,0,0-3.67-3.93,5.73,5.73,0,0,0-5.18-.59,29.55,29.55,0,0,1,.36,6.51c-.07,1.29-.4,2.81-1.6,3.28-.55.22-1.24.19-1.61.65a1.73,1.73,0,0,0-.26,1.23q.27,7.77.14,15.52c0,1.34-.43,3.1-1.76,3.17a1.83,1.83,0,0,1-1.67-1.18,5.49,5.49,0,0,1-.33-2.14q-.13-8-.55-16a5.13,5.13,0,0,0-2.59,1.91L939,2147.92a39.22,39.22,0,0,0-2.83,3.49c-1.18,1.7-2.1,3.57-3.27,5.28-1.45,2.11-3.28,4-4.47,6.23-3,5.67-1.36,12.65-3,18.85l-6-1.88c-14-4.53-29.07,7.06-43.37,3.64-2.07,6-7.19,10.68-13.09,13a33.89,33.89,0,0,1-18.75,1.3c-5.55-1.06-11.51-3.74-13.4-9.06a3.86,3.86,0,0,0-1-1.86,3.52,3.52,0,0,0-1.9-.55A28.4,28.4,0,0,1,803,2151.64l.48-7.79a8.67,8.67,0,0,1,.18-6.3,1.39,1.39,0,0,0,.17-1.08,1.77,1.77,0,0,0-.43-.48,4.69,4.69,0,0,1-1.19-4.63,9.84,9.84,0,0,1,2.61-4.24,5.17,5.17,0,0,1-.44-6.88c.88-1,2.17-1.7,3-2.8a10.55,10.55,0,0,0,1.43-4.47,25.33,25.33,0,0,1,2.9-7.8l.33-4.92q-.13-8.86-.25-17.74l-.55-5a13.4,13.4,0,0,0-11.21-4.79,6.9,6.9,0,0,1-1.87,0c-1.7-.33-2.65-2.09-4-3.19a5.78,5.78,0,0,0-4.13-1.31l3.38-5.81c12.06-9.17,28.15-10.57,43.29-11.34a11.82,11.82,0,0,0,5.34-1.13c1.79-1,2.89-2.92,3.91-4.73a8.16,8.16,0,0,0,1.46-4.5,7.17,7.17,0,0,0-1.28-3.12c-4.5-7-11.74-11.81-18.83-16.25-13.86-8.66-28-16.89-42.15-25l-6.95-7.61a33.59,33.59,0,0,0-15.74-4,83.62,83.62,0,0,0-16.32,1.54l-4.28,11a22.35,22.35,0,0,0-8.37,20.36l-1.13,5.92c-6.51-.4-12.4,3.59-17.63,7.49-2,1.5-4.14,3.07-6.63,3.42s-5.42-1-5.85-3.51l-3-7.6c.91-10.58,6-20.28,11-29.65,2-3.71,4-7.48,7-10.44,5.27-5.23,12.83-7.28,20-9.12l5.29,3a117.61,117.61,0,0,1,22.57-1.49c4,.12,8.67.18,11.19-2.94,2-2.47,1.81-6,1.51-9.17l-.57-6.18-3-8.28a29.89,29.89,0,0,1,13.16-20.81c6.54-4.25,14.57-5.75,22.37-5.59s15.48,1.85,23.1,3.54l20.69,4.58c-7.84-21.7-7.09-45.82-15.31-67.38l-1.15-6.7c-2.11-5.59-5-11.06-9.32-15.13-4.55-4.25-10.43-6.7-16-9.46-18.52-9.16-34.72-22.34-50.41-35.79-3.13-2.69-6.38-5.58-7.72-9.48a12.17,12.17,0,0,1,5-13.92c2.89-1.77,6.4-2.22,9.79-2.37a69.36,69.36,0,0,1,19,1.81c3.37.8,7.18,1.79,10.08-.1,1.75-1.14,2.77-3.12,4.4-4.41,2.45-1.94,5.83-2.06,8.95-2.09,4.6,0,9.27-.08,13.7,1.17a48.33,48.33,0,0,1,10.1,4.65l22.6,12.57a3,3,0,0,0,2,.56,3.09,3.09,0,0,0,1.5-1l5.75-6,7-4.23a9.81,9.81,0,0,0,2.41-1l18.09-9.67a9.87,9.87,0,0,1,4.37-1.52c2.06,0,3.92,1.17,5.62,2.36a19.89,19.89,0,0,1,4.6,4c1.28,1.7,2.14,3.89,4,4.85a5.45,5.45,0,0,0,6-1.22l5.21.2a6.88,6.88,0,0,1,5.45,3.21c.72,1.18,1.15,2.66,2.34,3.38,1.56,1,3.54.1,5.24-.59a28.46,28.46,0,0,1,18.22-1.06,14.14,14.14,0,0,1,5.74,2.87,7.18,7.18,0,0,1,2.54,5.72,3.11,3.11,0,0,1-1.72,2.74,5.39,5.39,0,0,1-3-.26c-4.47-1-8.94,1.47-12.71,4.08a106,106,0,0,0-13.49,11.06l1,6.27,3.87,23.79,4.37-.2c3.23-5.52,7.07-10.81,12.2-14.61s11.73-6,18-4.8l4.33-.77a7.89,7.89,0,0,0,2.7,1.76,11.07,11.07,0,0,1,5.42,6.86,20.12,20.12,0,0,1,20.26-1.5l1.7-3.29a179.76,179.76,0,0,0,9.64-28.21l6.57-3.91a140.84,140.84,0,0,1,17.5-13.47l9-5.8,4.58,2.2a53.46,53.46,0,0,1,15,16.47l2.62,5.32-9,5.81a72.7,72.7,0,0,0-15.07,14.34c-2.41,3.06-4.68,6.91-3.58,10.64a13.32,13.32,0,0,0,3.06,4.75q5.1,5.91,10.21,11.8a29.87,29.87,0,0,1,5,7c2.55,5.67,1.31,12.33-.83,18.17s-5.16,11.45-6.16,17.59c-1.77,11,3.17,21.93,8.68,31.63,2.56,4.53,5.33,9.08,6.35,14.19.89,4.42.8,9.77,4.49,12.36,3.22,2.27,7.69,1.12,11.23-.61,10.5-5.13,18.36-14.25,26.88-22.26s18.82-15.39,30.5-15.51l10.41,3.43,3.5,4.39,6.51,6.52a39.78,39.78,0,0,1,3.81,4.2,26.85,26.85,0,0,1,4.74,12.66,80.78,80.78,0,0,1,.23,13.65l-.9,22.47-2.22,5.23q-3.77,52.72-4.61,105.61l2.31,5.63,20.52,2.84c5,.7,10.11,1.4,15.07,2.6,9.45,2.29,18.36,6.36,27.14,10.54l-1.38-7.28c-.74-4-1.43-8.35.36-12,.54-1.11,1.29-2.1,1.83-3.21,1.49-3.07,1.23-6.66.93-10.06l-1.64-11.06a20,20,0,0,1-1.64-7.55,39.26,39.26,0,0,1,.23-4.33c.16-1.87.4-3.9,1.7-5.27.72-.76,1.84-1.56,1.53-2.57l1.1-5.22q.42-14,.88-28c.75-23,1.68-46.44,9.83-67.93,2.22-5.85,5-12.17,3-18.11l-3.2-7.62c-1.94-6.19-.38-12.88,1.18-19.18a17.53,17.53,0,0,1,2-5.29c2-3.09,5.78-4.79,7.35-8.11l9.14,5.1c17.82,7.66,29.84,25.25,35.45,43.81s5.72,38.29,5.78,57.69l36.36-12.39c4.45-1.51,9.24-3.29,11.77-7.25,2.1-3.3,2.2-7.44,2.22-11.35q.13-26.07-.08-52.14c0-4.82-.15-9.87-2.51-14.07-3.4-6-10.51-8.79-15.68-13.41-8.57-7.66-11.17-19.74-15.48-30.4-5.5-13.61-16.49-27-31.15-27.6l-4.53,1-.7-5c-1-2.79-4.41-3.71-7.16-4.84a22.11,22.11,0,0,1-7.84-5.46,44.37,44.37,0,0,1-4.28,17.6c-1.83,3.84-5.25,7.91-9.44,7.17a3.7,3.7,0,0,0-1.77-.13,2.73,2.73,0,0,0-1.19,1c-2.82,3.26-6.09,6.39-10.21,7.67s-9.25.16-11.45-3.54c-2.94-.59-6-.06-9-.37s-6.22-1.87-6.93-4.78c-.37-1.5-.06-3.29-1.09-4.44-.43-.48-1-.77-1.5-1.22a5.59,5.59,0,0,1-1.16-2.21l-3.27-9.4a19,19,0,0,0-4.36,4.53l-2,4.43a81.68,81.68,0,0,1-1.18,10.24,9.2,9.2,0,0,1-1.69,4.47c-2.56,3-7.65,1.79-10.55-.88s-4.67-6.42-7.67-9c-1.49-1.26-3.22-2.2-4.78-3.37a43.36,43.36,0,0,1-4.45-4.13c-7.32-7.39-15.18-14.22-23-21l-23.43-20.35-6.44-3c-6.36-5.08-13.06-10.32-21-11.94a25,25,0,0,1-5.1-1.23,16.75,16.75,0,0,1-4.39-3.21q-2.55-2.36-5.12-4.69a4.89,4.89,0,0,1-2-4.21,105.83,105.83,0,0,0-2.17-13.47l-1.6-4.75a36.1,36.1,0,0,0-2.72-11.21c-1.66-3.48-4.52-6.58-8.22-7.68-2.34-.7-4.93-.6-7.1-1.71a11.56,11.56,0,0,1-3.53-3.08,35.32,35.32,0,0,1-3.67-5.31,75.18,75.18,0,0,1-3.29-6.9q-5-11.6-10.06-23.17l-.82-4.1-.41-.67c-8.61.21-16.61-4-24.6-7.2a1,1,0,0,0-.66-.12c-.41.09-.57.57-.67,1-.34,1.51-.69,3-1,4.54l-4.54-12.61c-1.66-1.34-2.14-3.65-2.27-5.78s0-4.35-1-6.28c-.44-.93-1.1-1.75-1.62-2.65a13.39,13.39,0,0,1-1.45-8.08,39.85,39.85,0,0,1,2-8.09l-8.79-.5-.57,3.76-8.72.82a31.25,31.25,0,0,1-15.91-15.81c-3.1-7-3.49-14.88-3.84-22.54q-1.42-31.76-2.84-63.51c-.39-8.64-.64-17.86,3.84-25.26,4.7-7.76,13.54-11.8,21.87-15.39s17-7.22,26.08-7c1.93,0,4,.22,5.68-.66a9.91,9.91,0,0,0,3-2.77l12.13-14.92,7.14-5.85.27,1.46c1.65,1.63,4.29,1.89,6.53,1.28a24.48,24.48,0,0,0,6.21-3.13,69.09,69.09,0,0,1,16.28-7.14l2.22-2.26,9.62-3.41a51,51,0,0,1,17.14,10.93c13.59-7.51,28.53-13.3,44-13.69s31.72,5.28,41.48,17.35c1.31,1.61,2.61,3.41,4.56,4.09a11.35,11.35,0,0,0,4.72.15c20.8-1.88,40.11,12.17,52.19,29.21,3.82,5.39,7.21,11.33,8.08,17.88.79,6-.57,12-2.2,17.82a187,187,0,0,1-8.3,23.33,7.67,7.67,0,0,0-.94,4,6.07,6.07,0,0,0,1.4,2.85c4.6,5.9,13.18,8.89,15.12,16.11l5.91,16.26c-2.7,25.25-4.15,50.67-5.59,76l-.18,7.53a14.94,14.94,0,0,1,13.48,2.52c2,1.58,3.59,3.69,5.87,4.79,2.9,1.4,6.49,1,9.26,2.59,4,2.33,4.61,7.68,4.83,12.27q.3,6.59.62,13.15a82.4,82.4,0,0,1,19.89-5.16l3.22-3.18,15.09-13.45c12.41-4.91,22.55-14.43,34.87-19.58,10.89-4.54,22.92-5.44,34.7-5.95,9.14-.4,18.69-.51,26.93,3.46,6.19,3,11.36,8.15,18,9.76,3.7.89,7.57.6,11.37.81,21,1.16,37.81,16.94,52.66,31.79l7.74.58c2.38,12.61,3.68,25.76,9.77,37.06,2.37,4.39,5.41,8.39,7.7,12.82,11.73,22.63,2.11,51.68,13.07,74.69l2.49,5a226.52,226.52,0,0,1-.86,37.29c-.35,3.32-.75,6.8.55,9.87.59,1.39,1.51,2.61,2.18,4,1.48,3,1.7,6.42,1.82,9.76.25,6.91.18,13.84-.21,20.75l-3.49,10.46a263.5,263.5,0,0,0-10.57,48.49l-1.38,9.08c-1.89,6.78,0,14,1.81,20.76,3.61,13.31,7.3,26.78,14.1,38.77l7,1.23c9.64-5,17.43-13.09,23.53-22.09s10.64-19,15.06-28.88l12.72-13a118.2,118.2,0,0,1,74.2-.6c5,1.61,10,3.63,13.86,7.14s6.43,8.29,8.36,13.17c11.53,29,2.34,65-21.71,85-14.72,12.21-33.41,18.27-51.39,24.75-2.89,1-5.84,2.14-8.12,4.19-3.58,3.22-4.94,8.29-5.05,13.1a33.45,33.45,0,0,0,19.49,30.63c10.86,4.77,23.29,3.32,35.07,4.7a72.15,72.15,0,0,1,30.7,11.07c6.88,4.47,13.13,10.31,16.6,17.74C1730.41,2196.46,1727.81,2210.93,1723.29,2223.64ZM949.42,2131a45.29,45.29,0,0,0-1.1-10.18c-2.48,4.4-7.41,6.69-12,8.86a9.86,9.86,0,0,0-2.83,1.77,8.24,8.24,0,0,0-1.4,2,21.92,21.92,0,0,0-1.52,16.87l1.1,3c5.76-6.55,10.14-14.35,16.69-20.11a3.16,3.16,0,0,0,.8-.91A3,3,0,0,0,949.42,2131Zm9.1-16.48a13.08,13.08,0,0,1-3.52-.57l-.35-.34a7.46,7.46,0,0,1-1.22,6.09,6.24,6.24,0,0,0-.9,1.39,4,4,0,0,0-.14,1.59,34.51,34.51,0,0,0,.84,6.07,20.19,20.19,0,0,0,3.84-2.84,2.36,2.36,0,0,0,.58-.72,2.69,2.69,0,0,0,0-1.49A19.33,19.33,0,0,1,958.52,2114.5Zm96.23-17.11q-7.47-51.49-19.22-102.27l-3-8.88a288,288,0,0,0-13.68-52,16.8,16.8,0,0,0-2.83-5.46,5.91,5.91,0,0,0-5.48-2.14c-1.19,4.58-4.79,8.28-9,10.47s-9,3-13.69,3.46c-2.45.22-5.35.14-6.82-1.83a5.12,5.12,0,0,0-1.11-1.36,3.21,3.21,0,0,0-2.42-.07,39.07,39.07,0,0,1-15.79.41l-.69,5.92a179.54,179.54,0,0,0-2.12,18.22l-5.25,64.31-2,2.9a61.75,61.75,0,0,1,.59,15,36.43,36.43,0,0,1,10.62,1.68,15.8,15.8,0,0,1,2.93-8.85,9.43,9.43,0,0,1,8.21-3.84c3,.34,5.58,2.43,7.53,4.77l1.67,1.85a28.61,28.61,0,0,1,2,4.74,23.11,23.11,0,0,1,7.43-1.23,7.89,7.89,0,0,1,6.42,3.42,8.82,8.82,0,0,1,1.06,3.91,18.55,18.55,0,0,1-2.16,10.07,11.37,11.37,0,0,1-3.83,20.14c.46,2.49.92,5.1.18,7.53a8.26,8.26,0,0,1-9.83,5.32l-4.25-.71a26,26,0,0,1-8-6.61,12.43,12.43,0,0,1-18.48-8.28,20.82,20.82,0,0,0-4.12,1.08,86.69,86.69,0,0,1-.56,19q7.89,3.4,16,6.27c3.63,1.28,7.34,2.49,11.19,2.59l1.79-1.66,3.55-1.23a31.27,31.27,0,0,1,13.12,2.84l4.57,3.7c7.43,2.3,15.43,1.55,23.16.67q8.72-1,17.41-2.2c4.85-.67,10.32-1.78,12.86-6Z"></path>
    <path data-name="5" data-official="Leucolena rotundifolia" data-plain="" data-loc="Port Jackson" d="M635,2283.21c-1.41,14.7-2.81,29.65.11,44.12,2.38,11.79,7.58,23,8.72,35,1.12,11.71-1.72,23.46-5.66,34.55-2.17,6.09-4.75,12.18-9,17a28.11,28.11,0,0,1-24.14,9.4c-8.91-1.15-17.1-7.46-20-16-1.59-4.71-1.6-9.8-1.59-14.78l.13-57.58c0-8.13,0-16.33-1.62-24.3-2.8-13.51-10.2-25.56-17.47-37.28l-1.14-4q.06-5.88.63-11.73l3.87-2.43a62.18,62.18,0,0,0,20-.43,11.65,11.65,0,0,1,3-.31,3.44,3.44,0,0,1,2.59,1.35l2.61,3.09a26.77,26.77,0,0,0,10.43,1.87l2.61-3.37a97.54,97.54,0,0,0,17.1-4.22,8.54,8.54,0,0,1-4.77,7.14c3.59,3,9.93.49,13.07,3.93,1.36,1.49,1.63,3.66,1.82,5.68l.69,7Zm-71.4-39.5c5.67-4.76,13.65-5.31,21-5.65a20.43,20.43,0,0,1-7.57-7.65l4.72-.49c.5-.06,1.09-.16,1.31-.62a1.52,1.52,0,0,0,0-1.05l-1.29-5.11a18.12,18.12,0,0,1-10.42,2.3,1.44,1.44,0,0,1-1-.36,1.57,1.57,0,0,1-.28-.85,41.67,41.67,0,0,1,0-9.34l-1.77-.6c-2.66,5.25-10.41,5.62-14,10.27a16.41,16.41,0,0,0-2.63,6.72c-.63,2.83-1.16,5.87-.11,8.58s4.3,4.76,6.91,3.49Zm-22.39-80.07.28,1.56,2.84,2.09a104,104,0,0,1,21.52-10.42.89.89,0,0,0,.5-.3,1,1,0,0,0,.07-.75l-.43-2.34-2-3.11a2,2,0,0,0-2.22-1.29,5.51,5.51,0,0,0-2.5,1.21c-5.18,3.81-9.94,8.91-16.3,9.91ZM191.75,1818c1.49,5.51-4.18,10.45-9.69,12s-11.63,1.37-16.44,4.44c-4.65,3-7.09,8.29-10.21,12.83-9.27,13.54-25.21,20.71-40.68,26.16-7,2.47-14.31,4.84-20,9.69s-9.23,13-6.47,19.88c3.43,8.6,14.14,11.16,23.3,12.54l39.54,6c3.42.52,7.06,1.13,9.61,3.47,6.18,5.66,1.71,16,3.81,24.14,2.76,10.63,15.54,14.51,26.29,16.72s23.53,6.5,25.8,17.25c1,4.67-.4,9.48-.41,14.25s2.21,10.31,6.88,11.27c2.89.59,5.77-.77,8.52-1.85,10.82-4.26,26.21-2.49,30,8.52,2.09,6.16-.1,13.74,3.9,18.87,3.42,4.37,10.16,4.85,15.23,2.59s8.86-6.6,12.47-10.82l16.42,17.2c.05-4.79,7.15-6.52,11.09-3.78s5.49,7.7,7.38,12.11,5,9,9.82,9.56c7.39.78,12.32-8.7,19.73-9.31,9.3-.78,13.49,11.73,21.62,16.31,8.77,4.94,20.21-.84,25.93-9.12s7.74-18.5,11.81-27.71c8.74-19.76,27.17-35.4,30.24-56.79a162.36,162.36,0,0,1,40.5,75.4l10.78,3.83,4.27-.43c2.91,1.08,6,2.32,7.68,5a14.25,14.25,0,0,1,1.35,3.22l3.14,9.73-3.27,7.4a33.76,33.76,0,0,0-.16,18.54,15.07,15.07,0,0,0,2.52,5.41,19.2,19.2,0,0,0,4.73,3.85l6.06,3.95,4.55.69a18.71,18.71,0,0,1,8.89-3.83c-1.3-.22-1.89-1.91-1.45-3.16a7,7,0,0,1,2.59-2.93,5,5,0,0,0,2.74-5.1c-.11-8.12-.29-16.53-3.76-23.86l1.15-4.29-6.73-1.27c-3.05-3.47-4.4-8.17-4.64-12.78s.56-9.2,1.34-13.75l.46-5c-.11-12.4-.24-24.92-3.09-37-1-4.13-2.26-8.19-3-12.36a106.59,106.59,0,0,1-1.38-16.07c-.9-25.91-1.8-51.82-2-77.75,0-5.47.34-11.82,4.77-15l5.72-.8c-1.66-6.58-1.5-13.45-1.33-20.23.22-9,.65-18.62,6-25.89,2.84-3.89,7-7,8.32-11.64.72-2.53.48-5.22.43-7.84a50.21,50.21,0,0,1,3.9-20.17l5.08-4.23a35.82,35.82,0,0,1,24.94-13.09c3-.22,6-.07,8.89-.9,3.7-1.06,6.74-3.64,10.17-5.39,4.64-2.39,9.91-3.22,15.09-3.85l5.72-7.6c5.46-3.32,11.52-7.57,12.08-13.93.12-1.35,0-2.87.94-3.87s2.61-1,4-1.08c7.54-.18,15.52-5.21,16.39-12.71a5.83,5.83,0,0,0-1.35-5,7.31,7.31,0,0,0-2.92-1.46c-5.55-1.76-11.37-3.15-16.15-6.47s-8.34-9.26-6.87-14.9c1-4,4.34-7,7-10.22,2.12-2.56,4-5.51,4.35-8.81s-.91-7-3.82-8.58-6.88-.73-10,.74-6.19,3.48-9.65,3.89-7.57-1.56-7.94-5c-.24-2.2,1.06-4.24,2.42-6,5-6.32,11.73-11.32,15.48-18.44,2.05-3.89,2.81-9.33-.54-12.18-2.47-2.09-6.14-1.85-9.27-1.06s-6.3,2-9.5,1.57a2.93,2.93,0,0,1-2.92-2.81c-.63-3.93,1.23-7.77,2.19-11.64s.53-8.8-3-10.65c-1.56-.81-3.46-.86-4.91-1.85-2.77-1.88-2.5-6-1.44-9.22s2.62-6.6,1.42-9.73c-.8-2.06-2.64-3.5-4-5.21a14,14,0,0,1-2.4-12.93l-1-5c-1.6-1.12-2.12-3.2-2.81-5s-2.05-3.78-4-3.77a5.32,5.32,0,0,0-2.73,1.06,41.53,41.53,0,0,0-11.31,10.35c-2.4,3.28-4.3,7.07-7.53,9.54s-8.49,3-11-.2a5.1,5.1,0,0,0-1.29-1.44c-1-.6-2.32,0-3.33.63a27.55,27.55,0,0,0-6.49,5.79c-1.88,2.3-3.51,5-6.2,6.3-6.17,2.92-14.13-3.32-20,.15-4.44,2.62-4.92,9.38-9.3,12.13a7.34,7.34,0,0,1-9.44-1.76c-1.66-2.21-2-5.31-3.93-7.26-2.86-2.85-8-1.74-10.78,1.22s-3.71,7.1-4.57,11l-1.72,5.22c-2.7,3.38-8.33,3-11.6.2s-4.59-7.32-5-11.62a39.24,39.24,0,0,1,2.78-18.8,26.87,26.87,0,0,0,1.91-5.3,6.19,6.19,0,0,0-1.21-5.31c-1.69-1.82-4.48-1.88-7-2a55.28,55.28,0,0,1-17.63-3.68,7.89,7.89,0,0,1-2.79-1.59c-.51-.5-.88-1.13-1.38-1.63-1.21-1.19-3-1.51-4.65-1.84-2.48-.49-5.1-1.2-6.79-3.09-2.06-2.29-2.2-5.68-2.24-8.77l-.21-18-2.89-7.51c-7.49-30.57-25.89-57.15-44.11-82.82-1.92-2.7-3.94-5.87-3.14-9.09a14.26,14.26,0,0,1,2.57-4.54,31,31,0,0,0,5.35-14.06c1.29-10.94-3.07-23.13,2.81-32.44,1.75-2.78,4.27-5,6.6-7.29a73.65,73.65,0,0,0,18.64-31.29l1.89-5.63a97.49,97.49,0,0,0-9.62-18.1c-1.62-2.4-3.37-4.78-4.2-7.55-.88-3-.74-6.39-2.77-8.72a12.42,12.42,0,0,0-3.83-2.6,97.61,97.61,0,0,1-16.8-11.08c-3.19-2.62-6.44-5.92-6.52-10-.1-5.13,4.79-9,9.65-10.6s10.19-1.86,14.75-4.19a7.85,7.85,0,0,0,3.41-3c2-3.55-1-8-4.63-9.86s-7.89-2.1-11.53-3.91c-9.87-4.93-11.25-18-13.88-28.76-4.63-18.8-17.71-35.81-35.61-43.16s-40.3-3.85-53.74,10.07c-4.78,4.95-8.57,11.16-14.67,14.36-4.14,2.17-8.91,2.7-13.38,4.09a36.82,36.82,0,0,0-25.07,30.5c-.32,3-.37,6.25-2.32,8.52a10.22,10.22,0,0,1-4.76,2.77,29.93,29.93,0,0,1-21.47-1.25c-4-1.82-7.57-4.53-11.73-5.93-6.46-2.18-13.57-1-20.1,1-38.35,11.58-66.71,50.32-66.16,90.37,0,2.61.24,5.39,1.8,7.47,1.81,2.42,5,3.32,7.89,4.06l22,5.62c4,1,8.19,2.18,10.85,5.28,2.25,2.63,3,6.23,3.28,9.68.77,9.31-1.18,18.8.59,28s9.24,18.49,18.53,17.49l7.2-.3a104,104,0,0,1,45.42-4.6c5.69.69,12.46,2.92,13.57,8.53.92,4.65-2.93,9.12-7.37,10.76s-9.33,1.23-14.06,1.18c-12-.14-25.48,3.14-31.54,13.49-5.37,9.16-3.16,20.7-.79,31,1.68,7.33,3.41,14.78,7.1,21.32s9.35,12,15,17.12c5.06,4.53,10.39,9,16.76,11.4,8.82,3.33,18.65,2.3,27.93.62,24.41-4.42,47.85-12.94,71.15-21.42,6.22-2.26,12.59-4.61,17.57-9,5.4-4.71,8.73-11.38,13.86-16.38a10.43,10.43,0,0,1,4.53-2.89c4.79-1.22,9,3.27,11.88,7.26L374,1501.76a19.82,19.82,0,0,1,3.69,6.75c.61,2.5.06,5.48-2,7-3,2.22-7.34.44-10.15-2s-5.25-5.68-8.86-6.67c-6-1.64-11.43,3.49-17.23,5.64-10.82,4-23.63-2.48-34.17,2.19-5.41,2.4-9.18,7.31-13,11.77a124.47,124.47,0,0,1-33.94,27.4l2.14,4.87c1.15,2.56,4.16,3.67,6.93,4.16,7.1,1.24,14.37,0,21.57-.6s14.82-.47,21.07,3.15a7.85,7.85,0,0,1,3.15,2.89c1.3,2.4.4,5.42,1.15,8s3.27,4.67,5.93,5.69,5.52,1.29,8.31,1.85a39.8,39.8,0,0,1,13.37,5.39,11.84,11.84,0,0,1,4.57,4.5c1.37,2.84.66,6.2.67,9.36a20.4,20.4,0,0,0,11.59,18l9.85,7.46q22.44,10.06,44.47,21c6.26,3.1,12.8,6.53,16.48,12.46a8.11,8.11,0,0,1,1.5,5.13c-.26,2.19-1.86,3.94-3.39,5.54l-12.34,12.87a4.7,4.7,0,0,0-1.55,2.54c-.22,1.85,1.67,3.18,3.32,4.06l10.58,5.69a6.1,6.1,0,0,1,3,2.58c1.29,2.89-2.12,5.55-5,6.9l-14,6.59c-1.78.84-3.87,2.21-3.59,4.16.26,1.72,2.21,2.54,3.85,3.13a56.29,56.29,0,0,1,24.26,16.92c2.8,3.37,5.28,7.28,5.67,11.64.47,5.2-2.08,10.16-4.81,14.61a130.15,130.15,0,0,1-9.55,13.55c-3.88,4.83-9.78,9.83-15.56,7.59-5-2-6.57-8.14-8.3-13.26s-6.16-10.81-11.33-9.21c-2.81.86-4.52,3.59-6.4,5.85s-4.84,4.33-7.56,3.23a8.12,8.12,0,0,1-2.55-1.93c-5-5-10.16-10.34-16.76-13s-15.19-2-19.56,3.67c-3,3.87-4.2,9.91-8.94,11.15-3.73,1-7.69-1.81-11.41-.81-2.12.56-3.74,2.25-5.74,3.15-9.33,4.21-19.66-10-29-5.76-4.92,2.26-6.43,8.58-10.48,12.17-7.08,6.28-18,2.1-27.49,2.15-2.18,0-4.52.34-6.14,1.82-1.87,1.71-2.26,4.46-2.9,6.92-3.63,14.11-20.34,23.3-34.2,18.81Z"></path>
    <path data-name="6" data-official="Astrantia maxima" data-plain="" data-loc="Caucasus" d="M819.23,2205.89a966.56,966.56,0,0,1,22,106.67c1.35,9.1,2.58,18.31,1.66,27.46a8.2,8.2,0,0,1-1.52,4.61c-1.48,1.7-4,2-5.94,3.08-5.08,2.83-5.32,9.87-5.45,15.68-.19,8.32-1.53,16.76-5.37,24.14s-10.42,13.6-18.48,15.65c-11,2.8-23.6-3.41-28-13.87-3.35-7.93-2.2-16.93-1.51-25.52,3.62-45-7.29-89.77-18.12-133.61-11.55,12.57-27,21-43.21,26.48s-33.12,8.24-50,11c-7.15,1.16-14.38,2.32-21.6,1.69l-7.54.55c-.19-2-.46-4.19-1.82-5.68-3.14-3.44-9.48-1-13.07-3.93a8.54,8.54,0,0,0,4.77-7.14,97.54,97.54,0,0,1-17.1,4.22l-2.61,3.37a26.77,26.77,0,0,1-10.43-1.87l-2.61-3.09a3.44,3.44,0,0,0-2.59-1.35,11.65,11.65,0,0,0-3,.31,62.18,62.18,0,0,1-20,.43l-3.87,2.43-4.81-.11a10.38,10.38,0,0,1-9.81-3.89,4.08,4.08,0,0,1-.75-1.37,3.9,3.9,0,0,1,.59-3,7.12,7.12,0,0,1,4.1-3.14l5.23-2.74,5.09.36c5.67-4.76,13.65-5.31,21-5.65a20.43,20.43,0,0,1-7.57-7.65l4.72-.49c.5-.06,1.09-.16,1.31-.62a1.52,1.52,0,0,0,0-1.05l-1.29-5.11a18.12,18.12,0,0,1-10.42,2.3,1.44,1.44,0,0,1-1-.36,1.57,1.57,0,0,1-.28-.85,41.67,41.67,0,0,1,0-9.34l-1.77-.6c-2.66,5.25-10.41,5.62-14,10.27a16.41,16.41,0,0,0-2.63,6.72l-3,3.83a15.86,15.86,0,0,1-13.27,2.76,21.32,21.32,0,0,0-3.9-.88,10.49,10.49,0,0,0-3.59.6,29.13,29.13,0,0,0-12.81,8.27c-2,2.17-3.83,4.81-6.7,5.38a11,11,0,0,1-4.33-.29l-8.07-1.64a76.74,76.74,0,0,1,1.66-16.27c2.16-10.19,6.36-19.85,11.39-29a64.16,64.16,0,0,1,6.41-9.87c5.22-6.36,12.45-11.16,16.23-18.47,1-1.91,1.83-4.08,3.68-5.17l8.93-3.26a104,104,0,0,1,21.52-10.42.89.89,0,0,0,.5-.3,1,1,0,0,0,.07-.75l-.43-2.34-2-3.11a2,2,0,0,0-2.22-1.29,5.51,5.51,0,0,0-2.5,1.21c-5.18,3.81-9.94,8.91-16.3,9.91l-4.89,3c-1.39-.05-2.57.93-3.66,1.78a30.93,30.93,0,0,1-13.34,6,15.86,15.86,0,0,0-5.38,1.47,14.06,14.06,0,0,1-1.75,1c-1.86.75-3.91-.25-5.66-1.23l-3.91,1.47c-.1-1.56-.34-3.32-1.61-4.23s-3.15-.56-4.72-.12l-11.3,3.11-2.43-2c1.93-6.31,6.23-11.57,10.43-16.66l4.17-5,.34-2.15c.58-1.13-.19-2.48-1-3.42s-1.88-2-1.86-3.23,1.13-2.27,2.14-3.07l12-9.61c2.53-2,5.2-4.11,8.39-4.71.84-.16,1.82-.28,2.28-1a3.33,3.33,0,0,0,.36-1.06,8.28,8.28,0,0,1,4-5.26l-.72-5,4.55.69a18.71,18.71,0,0,1,8.89-3.83c-1.3-.22-1.89-1.91-1.45-3.16a7,7,0,0,1,2.59-2.93,5,5,0,0,0,2.74-5.1c-.11-8.12-.29-16.53-3.76-23.86l1.15-4.29a64.7,64.7,0,0,0,29.51-18.27c2.69-2.92,5.1-6.09,7.5-9.25l11.85-15.56,6.05.2a35.93,35.93,0,0,1,15.38-5.87c5.22-.7,10.65-.26,15.66-1.92a50.37,50.37,0,0,1,5.84-2,21.81,21.81,0,0,1,5.71-.13q13.89.88,27.77,1.86a78.77,78.77,0,0,1,11.68,1.42c4.94,1.1,9.76,3.15,14.82,3.09l7.94,2,3,7.6c.43,2.47,3.36,3.85,5.85,3.51s4.62-1.92,6.63-3.42c5.23-3.9,11.12-7.89,17.63-7.49l1.13-5.92a22.35,22.35,0,0,1,8.37-20.36l4.28-11a83.62,83.62,0,0,1,16.32-1.54,33.59,33.59,0,0,1,15.74,4l6.95,7.61-.9,9.49c4.77,16.17,9.59,32.71,8.83,49.55l.33,7.08-3.38,5.81a5.78,5.78,0,0,1,4.13,1.31c1.33,1.1,2.28,2.86,4,3.19a6.9,6.9,0,0,0,1.87,0,13.4,13.4,0,0,1,11.21,4.79l.55,5q.12,8.88.25,17.74l-.33,4.92a25.33,25.33,0,0,0-2.9,7.8,10.55,10.55,0,0,1-1.43,4.47c-.81,1.1-2.1,1.76-3,2.8a5.17,5.17,0,0,0,.44,6.88,9.84,9.84,0,0,0-2.61,4.24,4.69,4.69,0,0,0,1.19,4.63,1.77,1.77,0,0,1,.43.48,1.39,1.39,0,0,1-.17,1.08,8.67,8.67,0,0,0-.18,6.3l-.48,7.79a28.81,28.81,0,0,0,4.57,23ZM728,1347.05a10.6,10.6,0,0,0-3.91-.69,21,21,0,0,0-10.94,2.82,6.22,6.22,0,0,1-2.22,1l1.42,7.16a3.65,3.65,0,0,0,2.34,1.2c4.06,1,8.21,1.9,12.37,1.55Zm-11.7-23.42c5.41,3.08,9.29,8.31,14.53,11.66l.79-7.28a25.32,25.32,0,0,0-14.49-13.8Zm21.3-23.55c-1.22-4.87.91-9.86,1.69-14.81a53.58,53.58,0,0,0,.39-8.87,619.12,619.12,0,0,0-5.68-75l-1.35-5.61c-3-7.41-3.12-15.64-4.5-23.52-2-11.34-6.61-22-9.5-33.16-1.39-5.34-2.38-10.78-3.37-16.21l-4.12-22.63a42.44,42.44,0,0,1-1-10.52c.48-6.5,3.94-12.52,4.24-19a39.36,39.36,0,0,0-.94-8.9L710,1043.17l-.22-8.83c-2.21-9.21-4.44-18.52-4.59-28a108,108,0,0,0-.25-11.24c-1-8.27-5.39-15.69-9.69-22.82L692,967.76l-14.31-10.85c-3.4-2.57-7.24-5.28-11.49-4.9-2.89.26-5.53,2-8.43,2.11a14.52,14.52,0,0,0-3.85.27,7.63,7.63,0,0,0-3.21,2.69l-5.69,6.9-3.5,6.27-3,4.17a4.06,4.06,0,0,1-1.63,1.53c-.48.19-1,.19-1.49.37-1.59.6-2.28,2.94-4,3l-6,2.33a156,156,0,0,1-31.76,5,8,8,0,0,0-4.37,1.07c-3.1,2.24-1.43,7.15-2.44,10.85-1.1,4-5.37,6.29-9.37,7.53-3.07.94-6.31,1.61-8.93,3.45-5.65,4-6.67,11.76-7.25,18.63s-1.79,14.69-7.58,18.43a3.31,3.31,0,0,1-1.79.65c-1.49,0-2.44-1.6-2.81-3-1.06-4.22.23-8.7-.39-13a14.8,14.8,0,0,0-22.51-10.44c-3.14,2-5.52,5.09-8.89,6.65a4,4,0,0,1-3.13.35c-2.09-.83-2-3.74-1.89-6a26.74,26.74,0,0,0-5.73-18.2l-1-4.38a20.75,20.75,0,0,0-7.75-13,39.35,39.35,0,0,0-19.54,11.23L475,992.06c-1.43-2.36-3.7-5.07-6.34-4.29a5.93,5.93,0,0,0-2.59,2,41.83,41.83,0,0,0-4.65,6.58c-.64,1.14-1.35,2.41-2.6,2.8-2.09.65-3.89-1.53-5-3.42l-5.32-9-6.07.32c-2.62.3-5.42.68-7.38,2.44a12.86,12.86,0,0,0-2.29,3l-4.49,7.37c-1.2,2-2.43,4.38-1.41,6.45L420,1018.65c-1.47,3.6-3,7.32-5.79,10-2.16,2.12-5,3.51-7,5.71-5.56,5.88-4.28,15.25-2.34,23.1,4.1,16.57,9.57,33.07,9.78,50.13l2.65,13.86c4.76,16.33,19.41,29.15,21.09,46.07,1.29,13-5.51,25.65-5.67,38.75-.12,9.32,2.61,20.26-4,26.79-5.3,5.21-14.18,4.72-20.06,9.27A25.8,25.8,0,0,0,403,1249a152.74,152.74,0,0,0-16.86,35.25l-4.43,9.41a12.42,12.42,0,0,1,3.83,2.6c2,2.33,1.89,5.77,2.77,8.72.83,2.77,2.58,5.15,4.2,7.55a97.49,97.49,0,0,1,9.62,18.1l10.91-1.14c5.72-3.21,13.3-.1,17.28,5.11s5.28,11.91,6.58,18.34A564.84,564.84,0,0,0,459,1432.14c2.28,6.37,4.73,12.78,8.63,18.31,4.18,5.92,10,10.71,13.31,17.14-14.36,1.81-29.45,3.91-41,12.65-9.87,7.47-15.85,18.85-21.52,29.86l-6.9,7.68,2.89,7.51.21,18c0,3.09.18,6.48,2.24,8.77,1.69,1.89,4.31,2.6,6.79,3.09,1.66.33,3.44.65,4.65,1.84.5.5.87,1.13,1.38,1.63a7.89,7.89,0,0,0,2.79,1.59,55.28,55.28,0,0,0,17.63,3.68c2.48.11,5.27.17,7,2a6.19,6.19,0,0,1,1.21,5.31,26.87,26.87,0,0,1-1.91,5.3,39.24,39.24,0,0,0-2.78,18.8c.43,4.3,1.74,8.8,5,11.62s8.9,3.18,11.6-.2l1.72-5.22c.86-3.94,1.82-8.09,4.57-11s7.92-4.07,10.78-1.22c2,2,2.27,5,3.93,7.26a7.34,7.34,0,0,0,9.44,1.76c4.38-2.75,4.86-9.51,9.3-12.13,5.88-3.47,13.84,2.77,20-.15,2.69-1.28,4.32-4,6.2-6.3a27.55,27.55,0,0,1,6.49-5.79c1-.65,2.31-1.23,3.33-.63a5.1,5.1,0,0,1,1.29,1.44c2.49,3.22,7.75,2.67,11,.2s5.13-6.26,7.53-9.54A41.53,41.53,0,0,1,577.12,1555a5.32,5.32,0,0,1,2.73-1.06c1.95,0,3.3,1.95,4,3.77s1.21,3.91,2.81,5l1,5,8,8c8.3-.27,16.12,4.57,21.44,11s8.54,14.22,11.64,21.93c9.08,22.64,17.72,45.46,26.35,68.28l16.39,43.35c5.74,15.18,11.52,30.5,14,46.54l-.18,7.63c8.56,8.34,12.34,20.39,14.52,32.13l2.17,6.26c1.42,8.1,9.74,12.92,14,20,3,4.94,3.93,10.87,4.11,16.64s-.3,11.57.16,17.33c.18,2.2.46,4.55-.6,6.48l-1.88,8,2.53,10.47a446,446,0,0,1,16.5,77.6l.45,4.86,5.29,3a117.61,117.61,0,0,1,22.57-1.49c4,.12,8.67.18,11.19-2.94,2-2.47,1.81-6,1.51-9.17l-.57-6.18-3-8.28-.81-15.19c-5-29.39-13-58.17-21-86.89-9.28-33.34-18.56-66.7-29-99.71-8.31-26.41-17.38-52.69-29.93-77.36l-2.81-9.47a7.6,7.6,0,0,1-3.47-2.24c-1.48-2-.92-4.76,0-7.05l-3.38-7.86c-1.64-1.42-2.24-3.66-2.88-5.73a51,51,0,0,0-5.57-12l-.93-6.77c-1.86-.48-3.85-1-5.12-2.41a9.15,9.15,0,0,1-1.66-3.75l-4.26-15.62c-1.16-4.25-2.32-8.51-3.23-12.82a4.33,4.33,0,0,1,.15-3.1l-2.8-7a85.09,85.09,0,0,1-3.14-11.64,6.63,6.63,0,0,1-.16-2.3,5.46,5.46,0,0,1,1.91-3.08,17.29,17.29,0,0,1,9.37-3.92,92.89,92.89,0,0,1,10.29-.44,4.54,4.54,0,0,0,2.94-.78c1.37-1.18,1-3.36,1.34-5.14.55-2.57,3-4.39,5.55-5a21.16,21.16,0,0,1,7.85.09,143.85,143.85,0,0,1,17.39,3.09c2.39.63,4.82,1.39,7.28,1.17s5-1.71,5.61-4.11c.49-2-.48-4.11-.38-6.18a2.11,2.11,0,0,1,.64-1.59,3,3,0,0,1,2.07-.29,9.36,9.36,0,0,0,9.46-7.18c.21-1,.14-2.28-.75-2.81l-2.93-2.29c-.76.62-2-.1-2.24-1.06a4.41,4.41,0,0,1,.56-2.83c.94-2.1,1.87-4.2,3-6.22,5.11-9.38,13.46-16.49,21.74-23.23,1.61-1.31,3.37-2.93,3.26-5l-1.64-2.29c-1.8-.48-2.57-2.63-2.58-4.49s.42-3.77-.13-5.54a60.58,60.58,0,0,1-24.89,8.16l1.68-7.65,1-5.21c.84-4.31,1.77-8.83,4.63-12.16,2.39-2.78,5.82-4.38,8.83-6.48a30.92,30.92,0,0,0,6.69-6.33c1.24-1.59,2.36-3.45,2.25-5.45s-1.37-3.66-2.68-5.12a39.39,39.39,0,0,0-4.38-4.19l-2.48-3.64c-1.94-4.08,1-9.09-.5-13.35-.89-2.56-3.2-4.35-5.58-5.66a30.06,30.06,0,0,0-10.52-3.43c-2.44-.31-5.36-.58-6.52-2.75a5.53,5.53,0,0,1-.52-2.64c0-6,3.92-11.39,4.34-17.38l-.77-3.92c-1.78,0-3.41-.93-4.95-1.81q-4.37-2.51-8.94-4.56l-8.27,3c-16.77-2.85-32.74,9.47-49.75,9.28-1.67,0-3.49-.22-4.69-1.37-2.56-2.45-.66-7.22-2.85-10-2-2.52-5.84-1.92-8.94-2.69-5.38-1.33-8.59-7.46-8-13s4.18-10.31,8.43-13.87c9.37-7.86,21.79-10.8,32.71-16.31a4.51,4.51,0,0,0,2.45-2.18,3.83,3.83,0,0,0-.06-2.27c-1.79-6.53-8.92-9.77-13.61-14.65-1.83-1.91-3.39-4.65-2.37-7.08,1.21-2.88,5-3.33,8.14-3.34,6.69,0,13.74,0,19.52,3.41,1.82,1,3.48,2.42,5.45,3.15,4.64,1.71,10-.44,14.71,1l5.91,1.7a14,14,0,0,1,5.16,1.92c1,.6,1.88,1.32,2.87,1.88a34.35,34.35,0,0,0,3.22,1.44c4.69,2.06,8.84,5.66,13.92,6.31ZM404.89,791.18A45.76,45.76,0,0,0,407,797.9l.58,1.6,3.25,8.87,1.47,8.27a70.66,70.66,0,0,0,3.79,23A141.69,141.69,0,0,0,421.68,853l23.59,51.21,3.79,7.76,7.88,10.78a19.84,19.84,0,0,1,2.52,4.09,20.73,20.73,0,0,1,.82,2.68l1.15,4.53-.78,5.29c6.52,14.7,8,31.47,16,45.41l2.7,3.87c2.47-3.37,5.07-6.65,7.8-9.8a20.56,20.56,0,0,0,1.75-2.22,22.76,22.76,0,0,1,1.89-3.07c.95-1.09,2.33-1.75,3.2-2.9,1.31-1.74,1.14-4.15.92-6.32l-2-5.28a43.88,43.88,0,0,0-5.43-13.57c-1.22-2-2.62-3.94-3.09-6.22l-4.59-9.53a14.12,14.12,0,0,1-4.13-8.15c-.56-4.13.71-8.56-.95-12.39l-3.18-8.14c-1.38-10-5.58-19.4-9.73-28.62l-16.11-35.78-1.58-3.43-10-25.91a33.42,33.42,0,0,0-2.71-5.85l-2.89-4.75-2.94-5.56a22.59,22.59,0,0,1-1.48-3.2c-.78-2.28-.82-4.73-1.21-7.1a24.25,24.25,0,0,0-3.89-9.74l-2.74-6.51c-.77-2.13-2.81-3.51-4.06-5.39-1.72-2.59-1.84-5.94-3.28-8.69-1.26-2.41-3.53-4.35-4.06-7l-3.68-3.17c-5.59-4.75-4.9-13.9-9.62-19.52l-1.05-6.33a46,46,0,0,0-2.9-5.06,5.73,5.73,0,0,0-1.14-1.36,14.09,14.09,0,0,0-1.41-.83,7.34,7.34,0,0,1-1.95-1.86,12.27,12.27,0,0,1-1.9-3.66c-1.27-3.9-.72-8.63-3.53-11.62l-2.86-6.9q-3.18-4.46-6.5-8.78l-2.92-2.52a49.7,49.7,0,0,1-12.94-23.81,17.73,17.73,0,0,0-1.4-4.65,22.54,22.54,0,0,0-3.36-4.15,23.4,23.4,0,0,1-4.15-6.8l-2.5-5.64a49.33,49.33,0,0,1,10.31-33.54c1.74-2.22,3.68-4.29,5.2-6.65A23.91,23.91,0,0,0,360.21,571l.16-6a68.45,68.45,0,0,1,4.72-30.12,28.45,28.45,0,0,0,1.57-4.46c.32-1.47.35-3,.56-4.49.59-4,2.49-7.72,3.91-11.54a50.21,50.21,0,0,0,2.5-25.27l-3.82-6.5a24.72,24.72,0,0,1-6-6.33,10.19,10.19,0,0,1-1.19-8.42c.3-.84.75-1.63,1.05-2.48a12.24,12.24,0,0,0,.59-3.51,34.92,34.92,0,0,0-6-21.42l-2.54-6.82c-1.75-6-3.57-12.21-7.26-17.29A25.27,25.27,0,0,1,345,411.1l-3.12-4.86c-4.87-1-9.67,2.81-11.59,7.4s-1.68,9.75-1.63,14.72c0,1.38-.23,3.1-1.54,3.53s-2.63-1-3.41-2.21l-8.75-14a25.38,25.38,0,0,0-5.23-6.62c-2.2-1.78-5.22-2.8-7.91-1.91-3.27,1.07-5.08,4.49-6.56,7.6-3,6.34-6,12.81-6.9,19.77a19.17,19.17,0,0,1-1.07,5.5c-.76,1.72-2.42,3.21-4.29,3.08-2.48-.17-3.87-2.81-5.1-5-4.52-8-12.47-13.36-20.15-18.43l-7.5-1.89c-2.81,1.51-5.89,3.34-6.76,6.41-.55,2-.1,4.11-.78,6L239,440.84l-4.94,18.27a7.32,7.32,0,0,1-1.14,2.69c-1.41,1.77-4.2,1.81-6.24.81s-3.57-2.76-5.26-4.27c-4.12-3.7-9.3-6-14.37-8.22-3.73-1.63-7.52-3.28-11.57-3.75s-8.44.43-11.32,3.3c-2.13,2.12-3.22,5-4.23,7.87-1.66,4.66-3.32,9.42-3.53,14.37-.33,7.81,2.93,15.27,6.13,22.4-5.66-1-10.07-5.27-14.65-8.74s-10.58-6.37-15.9-4.21a5.7,5.7,0,0,0-2.88,2.29,7.73,7.73,0,0,0-.71,4.05c.17,12,2.57,24,1.23,36a6,6,0,0,1-1.52,4c-1.92,1.71-4.87.52-7.33-.22a15.26,15.26,0,0,0-12.16,1.22,11.65,11.65,0,0,0-5.76,10.47c.59,8.36,10.83,13.41,11.78,21.74a5.45,5.45,0,0,1-.76,3.82,7,7,0,0,1-3.41,2.12,82.8,82.8,0,0,1-11.35,3.3l-8.81,3.25c-3.87,3.08-7.3,7-8.56,11.79s.09,10.47,4.16,13.28a21.88,21.88,0,0,0,6,2.47c14.9,4.63,28.59,12.71,40.74,22.51,4.14,3.33,8.14,6.88,12.71,9.58a82.19,82.19,0,0,0,10.76,5c19.19,7.82,38.84,15.76,59.54,16.71a181.53,181.53,0,0,0,19.65-.52c14.52-.91,29.67-2,42.16-9.46,1.94-1.15,3.89-2.48,6.13-2.75,3.37-.41,6.5,1.67,9.17,3.78,14.08,11.14,25.11,25.6,36,39.89l1.37,3.61c3.52,2.2,4.6,6.75,6.95,10.18s6,5.77,8.35,9.22a28.86,28.86,0,0,1,2.09,3.92l2.75,5.86A66.21,66.21,0,0,1,374.5,729l3.16,1.52a72.78,72.78,0,0,1,12.85,29.25c.84,4.38,1.35,9,3.84,12.73Z"></path>
    <path data-name="6a" data-official="" data-plain="Flower" data-loc="" d="M1218.48,2614.4c-.38-10-3.33-19.69-5.07-29.55-4.14-23.5-1.3-47.61,1.55-71.31.91-7.55,2.13-15.75,7.67-21a25.78,25.78,0,0,1,9-5.06c10.19-3.69,22.78-4,30.65,3.48,4.06,3.84,6.29,9.19,8.16,14.45a177.27,177.27,0,0,1,5.41,99.25c-1.37,5.81-3,11.86-1.6,17.65,1.32,5.28,5,9.56,8.25,13.93,8.42,11.38,14.19,26.91,7.79,39.53a6.68,6.68,0,0,1-2.15,2.71c-1.73,1.11-4,.65-6,.45-8-.79-15.72,3-23.42,5.44a74.49,74.49,0,0,1-28.06,3.33c-3.36-.25-6.85-.78-9.6-2.73-3.2-2.27-4.89-6.11-5.86-9.9-3.48-13.67.69-28,4.83-41.46Z"></path>
    <path data-name="7" data-official="Prangos pabularia" data-plain="Hay-plant" data-loc="Thibet" d="M1058.73,875.24l10.35,7.59a36.38,36.38,0,0,0-8.81-11.8.45.45,0,0,0-.27-.14c-.17,0-.28.18-.35.33-.22.52-.45,1-.68,1.54Zm-4,10.1a10.24,10.24,0,0,0,6.36,4.95,30.64,30.64,0,0,0,8.22.92c-.77-1.49-1.21-3.14-2.11-4.56a10.21,10.21,0,0,0-5.35-4,19.88,19.88,0,0,0-6.69-.88Zm15.48,10.85a1.23,1.23,0,0,0-.32-.83,1.3,1.3,0,0,0-.78-.22l-20.21-1.2-4.3,3.27c-4.34,7.18-8.8,14.77-9.09,23.15l3.37,1.8a53.41,53.41,0,0,1,17.65-1.92c2.84.17,5.78.61,8.16,2.18a34.88,34.88,0,0,0,2.63-5.39l0-2.82C1069.1,908.35,1070.94,902.28,1070.19,896.19Zm8.38-40.5c-.26-3.06-.68-6.21-2.28-8.83a12.65,12.65,0,0,0-9.15,7l-2.38,5.06a32.53,32.53,0,0,0,12.83,24A113,113,0,0,0,1078.57,855.69ZM932.79,1698.44,920.4,1708l-1.68,2.94c-.69,2.35-1.37,4.71-2.05,7.06l.58,1.73,4.42-6a1.93,1.93,0,0,1,.64-.63c1.06-.54,2,1,3.11,1.35l3.39-5.68C930.71,1705.53,932.67,1702.16,932.79,1698.44ZM952.42,1681q-17.07-5.8-33.56-13.22l-1.89,2.92q.49,10.23.23,20.48l0,2.32a4.64,4.64,0,0,1,3.17,2.93,41.7,41.7,0,0,1,1.23,4.31,1.12,1.12,0,0,0,.39.67c.39.26.9,0,1.28-.29a58,58,0,0,0,6.75-5.57c1.08-1,2.23-2.17,3.71-2.39s3.24,1.06,2.83,2.5c5.75-3.71,9.14-10.5,15.22-13.62ZM1297.36,638.36a2.17,2.17,0,0,0-.81-.81,39.69,39.69,0,0,1-6.64-5.77q-.56,5.87-1.1,11.73a3,3,0,0,0,0,.84,4.39,4.39,0,0,0,.4,1,10.23,10.23,0,0,1,.55,4.86l2.9.62a10.57,10.57,0,0,1,3.54-2.86,1.72,1.72,0,0,0,.81-.61,1.56,1.56,0,0,0,.15-.74l.3-7.33A2.13,2.13,0,0,0,1297.36,638.36ZM1310,640a29.18,29.18,0,0,1-2.77-7.35c-.87-4.67.53-9.65-1-14.14a22,22,0,0,0-1.79-3.65l-3-5.32q.42,12.13.83,24.27l2.13,2.45,3.16,3.06C1308.21,640,1309.33,640.64,1310,640ZM2001.4,421.84q-5.75-24.15-11.47-48.31c-4.2-17.73-8.52-35.74-17.54-51.56-12.52-22-33.12-38-54.11-52.08-1.4-.94-2.87-2-3.51-3.51-.7-1.75-.17-3.73.44-5.51A61.75,61.75,0,0,1,1956,222.4l1.7-19.65a119.22,119.22,0,0,0-71.38-60c-2.54-.76-5.56-1.9-6.07-4.5-.44-2.21,1.2-4.22,2.46-6.08,10.54-15.58-2.76-36.7-18.39-47.17-35.11-23.53-85-22.3-118.93,2.92C1734.52,96,1725,106.34,1712.24,111c-9.39,3.43-19.82,3.45-29,7.3-13.09,5.48-23.62,18.51-37.81,18.24-13.36-.25-23.49-12.38-36.39-15.89s-26.4,2-38.63,7.5c-24.34,10.85-49.18,22-68.6,40.27-17.19,16.16-29.27,37.11-46.27,53.47-8.72,8.4-19,15.68-30.87,18.22-9.69,2.09-19.75.88-29.58-.33l-81.69-10.05a18.1,18.1,0,0,1-6.54-1.67c-3-1.67-4.81-4.89-6.58-7.86a100.73,100.73,0,0,0-48.87-41.56l-19.52-4.78a234.44,234.44,0,0,0-54.49,2.47c-12,2-23.89,4.86-35.74,7.76-26.68,6.52-53.85,13.24-77.32,27.52C1047,222.14,1031.6,236.79,1012,242c-10.47,2.79-21.47,2.65-32.31,2.37q-18.33-.48-36.64-1.47c-6.84-.36-13.77-.8-20.25-3-10.43-3.54-19-11.49-24.85-20.81-20-31.68-9.62-73.55-20.08-109.51-11-37.92-45-66-82.4-78.77s-77.89-12.48-117.26-9.27l-12.55,5.68a190.7,190.7,0,0,0-93.47,16.3c-6,2.7-11.87,5.74-18.32,6.89-7.23,1.28-14.64.09-21.89-1.1-40-6.57-80.14-13.17-119-24.62-15.67-4.61-31.15-10-47.21-13-21.46-4-43.46-3.48-65.27-2.85-8.33.24-17,.59-24.32,4.58-7.81,4.26-13.14,12.19-21,16.29C239.24,38,219.65,28,202.08,31.55c-12.16,2.43-22,11-31.29,19.26-25.55,22.81-53.18,50.1-52.64,84.35.13,8.12,1.79,16.81-2.11,23.93-2.27,4.13-6.13,7.11-10,9.77-24.91,17-56.27,26.65-73.75,51.25-13.18,18.55-15.93,42.32-18.26,65-2.1,20.39-3.47,43.3,9.81,58.91,7.34,8.63,18.13,13.57,26.38,21.34C63,377.38,68.6,395.1,72.79,412.19s7.68,34.92,17.67,49.4,28.67,24.76,45.29,19l16.22.79c5.32-2.16,11.32.75,15.9,4.21s9,7.74,14.65,8.74c-3.2-7.13-6.46-14.59-6.13-22.4.21-5,1.87-9.71,3.53-14.37,1-2.83,2.1-5.75,4.23-7.87,2.88-2.87,7.28-3.76,11.32-3.3s7.84,2.12,11.57,3.75c5.07,2.23,10.25,4.52,14.37,8.22,1.69,1.51,3.22,3.28,5.26,4.27s4.83,1,6.24-.81a7.32,7.32,0,0,0,1.14-2.69q2.46-9.14,4.94-18.27l3.76-10.6c.68-1.9.23-4.05.78-6,.87-3.07,3.95-4.9,6.76-6.41l7.5,1.89c7.68,5.07,15.63,10.42,20.15,18.43,1.23,2.16,2.62,4.8,5.1,5,1.87.13,3.53-1.36,4.29-3.08a19.17,19.17,0,0,0,1.07-5.5c.86-7,3.9-13.43,6.9-19.77,1.48-3.11,3.29-6.53,6.56-7.6,2.69-.89,5.71.13,7.91,1.91a25.38,25.38,0,0,1,5.23,6.62l8.75,14c.78,1.24,2,2.67,3.41,2.21s1.55-2.15,1.54-3.53c-.05-5-.28-10.13,1.63-14.72s6.72-8.42,11.59-7.4L345,411.1a25.27,25.27,0,0,0,3.41,5.17c3.69,5.08,5.51,11.25,7.26,17.29l2.54,6.82a34.92,34.92,0,0,1,6,21.42,12.24,12.24,0,0,1-.59,3.51c-.3.85-.75,1.64-1.05,2.48a10.19,10.19,0,0,0,1.19,8.42,24.72,24.72,0,0,0,6,6.33l3.82,6.5a50.21,50.21,0,0,1-2.5,25.27c-1.42,3.82-3.32,7.52-3.91,11.54-.21,1.5-.24,3-.56,4.49a28.45,28.45,0,0,1-1.57,4.46,68.45,68.45,0,0,0-4.72,30.12l-.16,6a23.91,23.91,0,0,1-3.63,15.69c-1.52,2.36-3.46,4.43-5.2,6.65a49.33,49.33,0,0,0-10.31,33.54l2.5,5.64a23.4,23.4,0,0,0,4.15,6.8,22.54,22.54,0,0,1,3.36,4.15,17.73,17.73,0,0,1,1.4,4.65,49.7,49.7,0,0,0,12.94,23.81l2.92,2.52q3.33,4.33,6.5,8.77l2.86,6.91c2.81,3,2.26,7.72,3.53,11.62a12.27,12.27,0,0,0,1.9,3.66,7.34,7.34,0,0,0,1.95,1.86,14.09,14.09,0,0,1,1.41.83,5.73,5.73,0,0,1,1.14,1.36,46,46,0,0,1,2.9,5.06l1.05,6.33c4.72,5.62,4,14.77,9.62,19.52l3.68,3.17c.53,2.67,2.8,4.61,4.06,7,1.44,2.75,1.56,6.1,3.28,8.69,1.25,1.88,3.29,3.26,4.06,5.39l2.74,6.51a24.25,24.25,0,0,1,3.89,9.74c.39,2.37.43,4.82,1.21,7.1a22.59,22.59,0,0,0,1.48,3.2l2.94,5.56,2.89,4.75a33.42,33.42,0,0,1,2.71,5.85l10,25.91,1.58,3.43,16.11,35.78c4.15,9.22,8.35,18.6,9.73,28.62l3.18,8.14c1.66,3.83.39,8.26.95,12.39a14.12,14.12,0,0,0,4.13,8.15l4.59,9.53c.47,2.28,1.87,4.23,3.09,6.22a43.88,43.88,0,0,1,5.43,13.57l2,5.28c.22,2.17.39,4.58-.92,6.32-.87,1.15-2.25,1.81-3.2,2.9a22.76,22.76,0,0,0-1.89,3.07,20.56,20.56,0,0,1-1.75,2.22c-2.73,3.15-5.33,6.43-7.8,9.8l-2.7-3.87c-8-13.94-9.48-30.71-16-45.41l.78-5.29c-.38-1.51-.77-3-1.15-4.53a20.73,20.73,0,0,0-.82-2.68,19.84,19.84,0,0,0-2.52-4.09L449.06,912l-3.79-7.76Q433.48,878.63,421.68,853a141.69,141.69,0,0,1-5.62-13.41,70.66,70.66,0,0,1-3.79-23l-1.47-8.27q-1.62-4.44-3.25-8.87l-.58-1.6a45.76,45.76,0,0,1-2.08-6.72l-10.54-18.64c-2.49-3.71-3-8.35-3.84-12.73a72.78,72.78,0,0,0-12.85-29.25L374.5,729a66.21,66.21,0,0,0-4.25-10.63c-.92-1.95-1.83-3.9-2.75-5.86a28.86,28.86,0,0,0-2.09-3.92c-2.31-3.45-6-5.8-8.35-9.22l-8.62,3.14a136.9,136.9,0,0,0-67.3,10.51c-3.69,1.59-7.46,3.47-9.82,6.71-1.74,2.39-2.56,5.31-3.83,8-4.51,9.47-15.08,17-13.88,27.45.63,5.49,4.65,10.59,3.56,16-.57,2.83-2.47,5.19-4.44,7.3a69.41,69.41,0,0,1-24.18,16.73c-19.64,8.1-43.72,7.63-58.89,22.5-5.72,5.59-9.49,12.82-14.34,19.18-5.25,6.87-11.74,12.7-17.21,19.41s-10,14.69-10.2,23.34l-12.2,15.61c-3.92,18.36,11.58,36,29.08,42.75s36.87,6.11,55.46,8.7c2.79.39,5.76.94,7.76,2.92s2.59,5,2.78,7.78c1,15.33-7.14,29.8-16.69,41.84s-20.86,22.88-28.09,36.45c-8.52,16-10.72,34.61-10.69,52.74,0,21.48,4.34,45.38,21.55,58.23,12.91,9.64,30.76,10.75,46.2,6.13s28.85-14.31,41.07-24.81c7.14-6.15,14.05-12.68,22-17.68,9.26-5.8,19.71-9.39,30.06-12.92,24.2-8.26,48.86-16.62,74.43-17.25l14.15-22.64c-1.94-7.85-3.22-17.22,2.34-23.1,2.07-2.2,4.88-3.59,7-5.71,2.78-2.72,4.32-6.44,5.79-10l6.83-12.34c-1-2.07.21-4.49,1.41-6.45l4.49-7.37a12.86,12.86,0,0,1,2.29-3c2-1.76,4.76-2.14,7.38-2.44l6.07-.32,5.32,9c1.12,1.89,2.92,4.07,5,3.42,1.25-.39,2-1.66,2.6-2.8a41.83,41.83,0,0,1,4.65-6.58,5.93,5.93,0,0,1,2.59-2c2.64-.78,4.91,1.93,6.34,4.29q1.62,2.7,3.25,5.38a39.41,39.41,0,0,1,19.54-11.22,20.75,20.75,0,0,1,7.75,13l1,4.38a26.74,26.74,0,0,1,5.73,18.2c-.14,2.24-.2,5.15,1.89,6a4,4,0,0,0,3.13-.35c3.37-1.56,5.75-4.68,8.89-6.65a14.8,14.8,0,0,1,22.51,10.44c.62,4.31-.67,8.79.39,13,.37,1.44,1.32,3,2.81,3a3.31,3.31,0,0,0,1.79-.65c5.79-3.74,7-11.56,7.58-18.43s1.6-14.67,7.25-18.63c2.62-1.84,5.86-2.51,8.93-3.45,4-1.24,8.27-3.49,9.37-7.53,1-3.7-.66-8.61,2.44-10.85a8,8,0,0,1,4.37-1.07,156,156,0,0,0,31.76-5l6-2.33c1.69,0,2.38-2.36,4-3,.48-.18,1-.18,1.49-.37a4.06,4.06,0,0,0,1.63-1.53l3-4.17,3.5-6.27,5.69-6.9a7.63,7.63,0,0,1,3.21-2.69,14.52,14.52,0,0,1,3.85-.27c2.9-.16,5.54-1.85,8.43-2.11,4.25-.38,8.09,2.33,11.49,4.9L692,967.76l3.23,4.53c4.3,7.13,8.7,14.55,9.69,22.82a108,108,0,0,1,.25,11.24c.15,9.47,2.38,18.78,4.59,28l.22,8.83q1.71,9.32,3.41,18.64a39.36,39.36,0,0,1,.94,8.9l3.28,13.92c3.14,13.22,7.43,26.12,11.72,39l16.41,49.28,15.63,47c5.22,15.66,10.47,31.41,18.26,46,3.08,5.76,6.62,11.48,7.62,17.93s-1.33,14-7.24,16.77c-2.49,1.17-5.37,1.4-7.78,2.74-3,1.68-4.84,4.81-7,7.5s-5.25,5.2-8.66,4.74c-2.73-.37-4.84-2.53-7.38-3.59a9.69,9.69,0,0,0-9.74,1.48l-5,.28c-5.08-.65-9.23-4.25-13.92-6.31a34.35,34.35,0,0,1-3.22-1.44c-1-.56-1.89-1.28-2.87-1.88a14,14,0,0,0-5.16-1.92l-5.91-1.7c-4.73-1.43-10.07.72-14.71-1-2-.72-3.63-2.09-5.45-3.14-5.78-3.36-12.83-3.43-19.52-3.41-3.12,0-6.93.46-8.14,3.34-1,2.43.54,5.17,2.37,7.08,4.69,4.88,11.82,8.12,13.61,14.65a3.83,3.83,0,0,1,.06,2.27,4.51,4.51,0,0,1-2.45,2.18c-10.92,5.51-23.34,8.45-32.71,16.31-4.25,3.56-7.84,8.35-8.43,13.87s2.62,11.64,8,13c3.1.77,7,.17,8.94,2.69,2.19,2.78.29,7.55,2.85,10,1.2,1.15,3,1.35,4.69,1.37,17,.19,33-12.13,49.75-9.28l8.27-3q4.58,2.06,8.94,4.56c1.54.88,3.17,1.84,4.95,1.82l.78,3.91c-.43,6-4.33,11.38-4.35,17.38a5.53,5.53,0,0,0,.52,2.64c1.16,2.17,4.08,2.44,6.52,2.75a30.06,30.06,0,0,1,10.52,3.43c2.38,1.31,4.69,3.1,5.58,5.66,1.47,4.26-1.44,9.27.5,13.35l2.48,3.64a39.39,39.39,0,0,1,4.38,4.19c1.31,1.46,2.57,3.15,2.68,5.12s-1,3.86-2.25,5.45a30.92,30.92,0,0,1-6.69,6.33c-3,2.1-6.44,3.7-8.83,6.48-2.86,3.33-3.79,7.85-4.63,12.16l-1,5.21-1.68,7.65a60.58,60.58,0,0,0,24.89-8.16c.55,1.77.11,3.68.13,5.54s.78,4,2.58,4.49l1.64,2.29c.11,2.07-1.65,3.69-3.26,5-8.28,6.74-16.63,13.85-21.74,23.23-1.1,2-2,4.12-3,6.22a4.41,4.41,0,0,0-.56,2.83c.24,1,1.48,1.68,2.24,1.06l2.93,2.29c.89.53,1,1.8.75,2.81a9.36,9.36,0,0,1-9.46,7.18,3,3,0,0,0-2.07.29,2.11,2.11,0,0,0-.64,1.59c-.1,2.07.87,4.16.38,6.18-.59,2.4-3.14,3.89-5.61,4.11s-4.89-.54-7.28-1.17l-.3,4.76a29.2,29.2,0,0,0,6.87,21l2,1.39a27.81,27.81,0,0,1,27.34,14.43l3,2.26,3,5.14c.16.28.36.58.67.62a1,1,0,0,0,.56-.14c2.3-1.16,3.68-3.56,4.76-5.91a59,59,0,0,0,3.06-8.17,10.67,10.67,0,0,1,1.51-3.63,3.27,3.27,0,0,1,3.45-1.35l3,.51c1.08,2.45,3.34,4.18,5.71,5.44a5.08,5.08,0,0,0,4,.75l2.83-1c3.1-1.45,3.63-5.55,3.74-9q.24-7.77.49-15.53a8.8,8.8,0,0,1,1-4.71c1.42-2.11,4.53-2.57,6.84-1.51a10.28,10.28,0,0,1,4.85,5.64A24.72,24.72,0,0,0,801,1560a4.41,4.41,0,0,0,3.67,2.24,5.55,5.55,0,0,0,2.94-1.32c2.43-1.79,4.62-3.93,7.31-5.28s6.14-1.74,8.58,0c1.79,1.3,2.69,3.46,3.94,5.29s3.35,3.49,5.48,2.9,3.12-3.06,4.93-4.33c3.07-2.13,7.16-.27,10.77.67a2.62,2.62,0,0,0,2.23-.15,2.7,2.7,0,0,0,.74-1.17c1.73-4.33,2.67-8.95,4.54-13.23s5-8.34,9.38-9.83,10.18.6,11.4,5.1c.72,2.65,0,6,2.06,7.77,1.59,1.38,4,1.06,6,1.85a7.47,7.47,0,0,1,4.06,5,22,22,0,0,1,.55,6.58l-.27,16.26a32.2,32.2,0,0,0,9-6.58l4.48-.42,3.86.77a2.15,2.15,0,0,0,1.44,0,2.17,2.17,0,0,0,.81-1c6.35-11.81,15.27-22.67,27.11-28.94a34.37,34.37,0,0,1-11,20.84q9.36-4,19.06-7.14l2.36-2.32,3.91-1.39.11-4.55c-1.36-11.68-2.72-23.39-2.94-35.15-.11-5.9.07-11.8.25-17.7q1.24-41.81,2.5-83.59c0-1.61.7-3.78,2.29-3.6a3,3,0,0,1,1.79,1.34,90,90,0,0,1,8.9,14.07c3.32,6.53,5.91,13.55,10.64,19.15a63.1,63.1,0,0,0,6.29,6.16c3.82,3.4,7.9,6.93,12.92,7.92a45.82,45.82,0,0,1,5.11.88,26.23,26.23,0,0,1,4.23,2.06c4.7,2.44,8.17,8.36,13.41,7.6l5.25.35,12.13-14.92,7.14-5.85.2-4.57a2,2,0,0,1,.44-1.38c.4-.37,1-.33,1.53-.44a3.66,3.66,0,0,0,2.47-2.27,10.69,10.69,0,0,0,.59-3.42,15,15,0,0,0-.46-6.12c-.57-1.54-1.62-2.85-2.17-4.39a14.08,14.08,0,0,1-.53-5q.08-4,.27-8l2.13-6.74a6,6,0,0,0,3-1.75,5.72,5.72,0,0,0,.9-3q.33-2.94.46-5.91a12.21,12.21,0,0,0-.48-4.82,27.79,27.79,0,0,0-1.45-2.82,12.69,12.69,0,0,1-1.35-4.62l.19-2.46-5-8.43a6.44,6.44,0,0,1-7.51-4.63c-.33-1.42-.15-2.91-.44-4.33-.66-3.26-3.66-5.58-6.78-6.73s-6.5-1.43-9.7-2.36c-5-1.45-9.42-4.44-14.35-6.1-10.07-3.41-21.22-1-31.64-3.18-1.3-.27-2.77-.76-3.25-2a4.28,4.28,0,0,1,.18-2.68c2-6.86,4-13.73,6.2-20.53,1.27-3.9,2.6-7.79,3.48-11.8,1-4.4,1.37-8.89,2.09-13.34,1.34-8.3,3.77-16.39,5.6-24.6,2.15-9.66,3.48-19.47,4.81-29.27q2.07-15.19,4.13-30.38l-3.34-12.92-3.47-3.35a45,45,0,0,1-.57-11.59,5,5,0,0,1,.64-2.42,10.08,10.08,0,0,1,1.55-1.51,8.53,8.53,0,0,0,1.93-3.22,19.18,19.18,0,0,0,.22-12.69,28.82,28.82,0,0,1-1.1-3.37,16.76,16.76,0,0,1-.06-4.9c.17-2.07.44-4.34,1.95-5.77.63-.59,1.42-1,2-1.59a7.77,7.77,0,0,0,1.79-4,164.76,164.76,0,0,0,4-26.6l.68-4.39a19.1,19.1,0,0,1,1.59-12.31,28,28,0,0,0,2-4.18,15,15,0,0,0,.44-4.34c0-5.16-.4-10.5,1.45-15.33.92-2.41,2.89-4.89,5.46-4.7l3-.2c10.39-31.45,22.25-62.39,34.11-93.32,3.65-9.51,7.33-19.09,12.7-27.75,1.88-3,4-6,5.16-9.38s1.24-7.37-.8-10.31l-2.08-1.09a11.05,11.05,0,0,1-4.58,6.56,32.65,32.65,0,0,1-7.31,3.65,46.09,46.09,0,0,1-11.23,3.42c-3.9.49-8.08-.1-11.23-2.44l-2.32,3.41c-3.87,3.9-6,9.16-8,14.28q-4.29,10.92-8.56,21.85a127.4,127.4,0,0,0-6.21,18.58l.38,2.81c-.48,4.07-3.23,7.54-4.11,11.54-.76,3.44-.1,7-.36,10.54a39,39,0,0,1-1.41,7.09c-.86,3.22-1.8,6.52-3.86,9.14-.82,1-1.79,2-2.66,3-3.32,3.82-4.93,8.79-6.46,13.62l-1.2,2.2c-1.35,3.71-2.72,7.56-2.39,11.49.17,2,.8,4,.93,6a16.67,16.67,0,0,1-2,8.52,50.68,50.68,0,0,1-4.91,7.36l-1,3.05c0,7.19-2.3,14.19-2.89,21.36a34.34,34.34,0,0,1-.72,5.91,25.27,25.27,0,0,0-1.15,4.21,13.6,13.6,0,0,0,.41,3.9c.66,3.46.9,7.45-1.44,10.09a13.3,13.3,0,0,0-1.17,1.32c-1.38,2-.15,4.93-1.12,7.19a14.67,14.67,0,0,1-1.21,1.95c-1.5,2.39-1.69,5.35-1.85,8.17l-.35,4c1.48,3.29.49,7.11.83,10.7l-3.58,0-1.65,7.22-27.33,103.9q-4.39,16.74-8.81,33.49c-1.14,4.36-2.35,8.84-5,12.46-2.08,2.81-4.93,4.93-7.74,7l-12.82,9.5a207.46,207.46,0,0,1-8.23-21.8c-5.49-17.47-8.64-35.58-13.34-53.29a315.76,315.76,0,0,0-16.77-47.49c-5.38-12.08-11.53-23.88-15.43-36.52-3-9.79,2.3-15.08-2.28-24.24l.81-9.4c-7.74-1.33-13.49-8.09-16.68-15.27s-4.49-15-7.38-22.36l-2-2.82A4.06,4.06,0,0,1,811,1110a8.07,8.07,0,0,1-.64-2l-2.4-11.14a5.34,5.34,0,0,1-.18-1.49,5.7,5.7,0,0,1,.33-1.4l1.74-5.24-.26-3.73a158.09,158.09,0,0,0-1.81-26.08l-3.83-3.69a31.62,31.62,0,0,0-4.64-3.63,16.58,16.58,0,0,1-6.45-11,13.45,13.45,0,0,1,4.47-11.73c1.3-1.08,2.81-1.88,4.1-3l.4-2.63,1.43-7.93c-5.31-10.5-5.35-22.76-7.41-34.34-2.69-15.17-9-29.67-10-45-.15-2.27-.14-4.72,1.12-6.62,1.71-2.61,5.15-3.38,8.25-3.72a69.85,69.85,0,0,1,31,3.69c9.63,3.46,18.36,9,27,14.46l10.34,6.56,5.56,4.58a25.82,25.82,0,0,0,6.3-2.74c5-3.42,6.41-10.07,9.91-15a20.53,20.53,0,0,1,17-8.49c3,.07,6,.82,9,1.09s6.22,0,8.68-1.74c4.42-3.13,4.73-9.44,7.08-14.32a17.73,17.73,0,0,1,20-9.08l3.15-2a27.92,27.92,0,0,1,20.75-7.74c2.16.12,4.46.47,6.41-.48,3.16-1.55,3.86-5.63,5-8.95a21,21,0,0,1,7.25-9.79c1.32-1,3-2.26,2.57-3.86-.28-1.12-1.44-1.74-2.49-2.2q-4.55-2-9.2-3.82l-1.94-2.2a106.94,106.94,0,0,1-2.14-23.06l2.63-2.1,1.55-.63,2.77.12c2.23,2.45,3.12,5.84,3.41,9.13s.08,6.62.47,9.91a13.55,13.55,0,0,0,3.19-6.75,52.55,52.55,0,0,1,1.71-7.37,9,9,0,0,1,4.86-5.49l3.92,1.86a21.11,21.11,0,0,1,5.92,1.06c6.25,2.36,9.23,9.81,15.24,12.74l5.41.86a30.06,30.06,0,0,1-6.08-19.1,11.61,11.61,0,0,1,1.7-6.29,11.33,11.33,0,0,1,5.05-3.65,26.08,26.08,0,0,1,9-2l3.32-10c1-4,4.12-7.08,6.41-10.52,6.7-10.09,5.8-23.26,9.08-34.92a4.44,4.44,0,0,1,.94-2,3.73,3.73,0,0,1,2-.93c4.7-1,9.54,1.09,13.5,3.81s7.51,6.13,11.84,8.23c1.54.74,3.27,1.41,4.15,2.88a7.14,7.14,0,0,1,.75,3.24,136.47,136.47,0,0,1-.95,27.92L1085,820a58.7,58.7,0,0,1,.1,12.5,19.73,19.73,0,0,1-5,11.24,2.78,2.78,0,0,0-.57.71,2.44,2.44,0,0,0,0,1.49c2.33,12.18,4.68,24.74,2.11,36.87,3.64-1.11,5.49-5,6.92-8.57q1.48-3.71,3-7.41L1094,861c2.14-2.79,3.63-6,5.35-9.1s3.74-6.09,6.63-8.11l1.6-3a87.9,87.9,0,0,1,0-9.74c.18-3.71.62-7.5,2.3-10.82a31.54,31.54,0,0,1,4.2-5.84l6.12-7.25c2.24-2.66,4.59-5.4,7.78-6.77l4.7,2.26,6.61-5.56c4.1-.66,8.19-1.43,12.25-2.28a60.8,60.8,0,0,0,9.29-2.55,68.19,68.19,0,0,0,12.44-6.91l18.21-11.85c1.95-1.27,4.07-2.59,6.4-2.53,3.78.08,6.5,3.68,7.91,7.18,3.27,8.1,2.93,17.68,8,24.75l-2.49,10.76a24.65,24.65,0,0,1,13.54,13.4,48,48,0,0,0,2.34,5.7,7,7,0,0,0,4.7,3.67l3.72,1.6c3,.95,6.31.91,9,2.57l1.67-3.86c1-3.89,4.24-6.8,7.72-8.8s7.31-3.35,10.66-5.56a48.89,48.89,0,0,0,7.29-6.36c6.7-6.66,13.63-13.68,16.59-22.66l1.66-5.19c3.3-5.14,3.18-12.23,7.5-16.55,3.31-3.32,8.31-4.06,12.92-4.87s9.65-2.17,12.22-6.08c2.15-3.28,2-7.51,1.66-11.42-.54-6.39-1.36-12.89-4.15-18.66-5.58-11.56-17.85-18.11-29.52-23.46-5.87-2.69-11.79-5.27-17.89-7.4l-8.12-4.93c-5,.23-9.88-2.14-14-5.13s-7.64-6.62-11.77-9.53l-9.08.51c-4.41.52-8.44-3.24-9.7-7.49s-.41-8.84.65-13.15c1.75-7.07,4.14-14.16,8.64-19.9a8.33,8.33,0,0,0,1.39-2.15,8.63,8.63,0,0,0,.27-3.21c-.12-9.73,6.07-18.26,12-26,3.29-4.3,6.67-8.68,11.23-11.59s10.62-4.1,15.42-1.59a28.12,28.12,0,0,1,6.21-15l4.66-2.15a8,8,0,0,1,5.58,0,15.75,15.75,0,0,1,4.84,2.94,18,18,0,0,1,2.78,2.81c.52.68,1,1.4,1.42,2.12q1.47,2.37,3,4.73l2,1.67a25.06,25.06,0,0,1,10-6.68l-3.48-5.1a23.22,23.22,0,0,1-5.14-14.26,9.65,9.65,0,0,1,.78-4.39,10,10,0,0,1,4-3.94c7.13-4.34,15.87-5,24.21-4.81L1337,553l4.73,6.76c.55.78,1.24,1.64,2.19,1.64a2.6,2.6,0,0,0,1.89-1.24c1.41-1.89,2.16-4.4,4.17-5.65,2.4-1.5,5.71-.47,7.67,1.57s2.88,4.83,3.74,7.52a26.49,26.49,0,0,1,7.55-9l6.32-5.58c2.57-5.48,5.37-11.24,10.42-14.57,6.32-4.18,14.58-3.54,22.06-2.35l4.49-3.34c4.34-1.48,9.41-.46,13.38-2.75,3.15-1.83,4.86-5.33,7.33-8a18,18,0,0,1,15.78-5.49c1.89.3,3.76.9,5.67.72,4.56-.43,7.56-5.09,11.88-6.62,6.33-2.25,13.46,2.72,19.89.76a32.55,32.55,0,0,0,5.72-2.94,24.54,24.54,0,0,1,20.26-1.29,12.72,12.72,0,0,0,4,1.18,15,15,0,0,0,4.14-.84,16.36,16.36,0,0,1,15.26,4.09c2.36,2.32,4.18,5.5,7.33,6.52,2.37.77,4.93.11,7.4-.25a31.29,31.29,0,0,1,25.27,7.69l-1.29-14c-.47-5.05-.5-11.09,3.65-14,3.89-2.75,9.28-1.08,13.55,1.05a78.86,78.86,0,0,1,12.72,7.93c1,.73,2.11,1.54,3.27,1.2s1.64-1.46,2.09-2.49c2.18-5.07,5.23-10.71,10.64-11.79l3.54,2.72c9.44,5.62,14.81,15.94,21.61,24.55a6.52,6.52,0,0,0,2.41,2.15,2.37,2.37,0,0,0,2.91-.7,4.74,4.74,0,0,0,.28-2.44,9.34,9.34,0,0,1,2.87-6.31,27.56,27.56,0,0,1,5.72-4.18l5.46-1.63c2.95.9,5,3.61,6.23,6.46s1.7,5.94,2.71,8.86c2.48,7.18,7.93,13.31,9,20.83l5.91,7.22a81.24,81.24,0,0,0,12,9.46,28.8,28.8,0,0,1-.48-9.35c.23-2,1.07-4.45,3.08-4.79s3.74,1.89,4.58,3.88a39.37,39.37,0,0,1,1.36,25.73L1721,574a89,89,0,0,0,29.29,24.78c2.67,1.41,5.52,2.71,8.53,2.71,7,0,12-6.57,15.38-12.71,29.31-53.53,20.75-122.29-10.84-174.52-12.22-20.21-28.05-39.7-30.54-63.19-.34-3.19-.41-6.51.76-9.5,2.17-5.55,8.18-8.76,14.07-9.61,12.45-1.79,24.62,4.91,34,13.23s17.24,18.45,27.38,25.89c8.06,5.92,17.33,9.94,26.32,14.35a308.07,308.07,0,0,1,60.49,39.11c16,13.24,32,28.77,52.56,31.86,14.17,2.13,28.5-2.09,41.91-7.12,3.19-1.2,6.46-2.51,8.82-5C2004.67,438.67,2003.21,429.51,2001.4,421.84ZM727,1360.07c-4.16.35-8.31-.6-12.37-1.55a3.65,3.65,0,0,1-2.34-1.2l-1.42-7.16a6.22,6.22,0,0,0,2.22-1,21,21,0,0,1,10.94-2.82,10.6,10.6,0,0,1,3.91.69Zm3.77-24.78c-5.24-3.35-9.12-8.58-14.53-11.66l.83-9.42A25.32,25.32,0,0,1,731.6,1328Zm351.67,867.06c6.84,9.78,5.39,22.83,6.93,34.67,1.37,10.58,5.31,20.63,7.7,31s3.1,21.78-1.71,31.31c-4.33,8.56-12.81,15-15.09,24.3-1,4.05-.71,8.3-1.36,12.42a28.24,28.24,0,0,1-19.81,22.26c-5.55,1.56-12.3,1-16-3.48a18.45,18.45,0,0,1-3.09-6.62,87.25,87.25,0,0,1-3.51-20.47c-.32-6.62.06-13.48-2.43-19.62-1.43-3.52-3.75-6.61-5.55-10-3.19-6-4.7-12.67-6.17-19.28-7.26-32.54-14.52-65.12-19.36-98.11l-3.25-10.09a3.61,3.61,0,0,0,2.08-1.35,4.19,4.19,0,0,0,.45-2c.11-2,.21-4,.32-6.07,3.39.08,6-3.53,6-6.93s-2-6.47-4.15-9.09-4.62-5.09-6-8.18a25.11,25.11,0,0,1-1.79-9.54l1-4a244.3,244.3,0,0,0,54.72-4.12,4.27,4.27,0,0,1,2.07-.06,3.69,3.69,0,0,1,1.38.91,15.08,15.08,0,0,1,3.24,4.32l-1.19,6.91c-1.68,3-.91,6.72.43,9.85s3.23,6.1,3.74,9.46c.47,3.08-.25,6.19-.64,9.28a10.81,10.81,0,0,0,.05,4c1,4.08,5.7,5.94,8.36,9.21l3,2.3,6.6,9.31a14.34,14.34,0,0,0,2.85,3.26Zm-88.23-114.08c.74-2.43.28-5-.18-7.53a11.37,11.37,0,0,0,3.83-20.14,18.55,18.55,0,0,0,2.16-10.07,8.82,8.82,0,0,0-1.06-3.91,7.89,7.89,0,0,0-6.42-3.42,23.11,23.11,0,0,0-7.43,1.23,28.61,28.61,0,0,0-2-4.74l-1.67-1.85a72.53,72.53,0,0,1,3.7-13.4l-.15-2.39c-.52-4.3-1.37-8.55-2.23-12.8-4.07-20.27-8.15-40.57-14.08-60.38-.81-2.7-1.73-5.51-3.79-7.42a2.59,2.59,0,0,0-1.66-.82c-1.38,0-2,1.66-2.28,3l.69-5.92a39.07,39.07,0,0,0,15.79-.41,3.21,3.21,0,0,1,2.42.07,5.12,5.12,0,0,1,1.11,1.36c1.47,2,4.37,2,6.82,1.83,4.72-.42,9.49-1.27,13.69-3.46s7.8-5.89,9-10.47a5.91,5.91,0,0,1,5.48,2.14,16.8,16.8,0,0,1,2.83,5.46,288,288,0,0,1,13.68,52l3,8.88q11.73,50.72,19.22,102.27l-2.12,5.68c-2.54,4.18-8,5.29-12.86,6q-8.7,1.2-17.41,2.2c-7.73.88-15.73,1.63-23.16-.67l-4.57-3.7-.78-5.47a16.09,16.09,0,0,0-.89-6.23Zm-14.86-294.66.08,5.42-.81,7.69c-.1,1-.32,2.09-1.21,2.46-.3.13-.64.14-.94.28-1,.43-1,1.94-.33,2.79l-4.33.77c-6.27-1.2-12.86,1-18,4.8s-9,9.09-12.2,14.61l-4.37.2-3.87-23.79-1-6.27a106,106,0,0,1,13.49-11.06c3.77-2.61,8.24-5.08,12.71-4.08a5.39,5.39,0,0,0,3,.26,3.11,3.11,0,0,0,1.72-2.74,7.18,7.18,0,0,0-2.54-5.72,14.14,14.14,0,0,0-5.74-2.87,28.46,28.46,0,0,0-18.22,1.06c-1.7.69-3.68,1.54-5.24.59-1.19-.72-1.62-2.2-2.34-3.38a6.88,6.88,0,0,0-5.45-3.21l-5.21-.2a12,12,0,0,0,3-5.66,50.76,50.76,0,0,1,1.76-6.22L925,1756a42.25,42.25,0,0,0,2.16-12.06,7.93,7.93,0,0,0,5.08,3.08,1.78,1.78,0,0,1,.69.2c.45.31.43,1,.41,1.5a8.22,8.22,0,0,0,3.18,6.65,11.8,11.8,0,0,0,4.32-6.32,30.78,30.78,0,0,0,1.08-7.71,58.84,58.84,0,0,0-.36-11.72,45.61,45.61,0,0,0,5.83,8.31,16.1,16.1,0,0,0,8.64,5,25,25,0,0,0-8.86-20.2,2,2,0,0,1-1-2c0-2-.07-4.07-.11-6.1a10.25,10.25,0,0,0,7.87,2.28c.81-3.46-.87-7-3.06-9.84-2.53-3.21-6.06-5.93-10.14-6.28l0-.53-.18-3.48a1.31,1.31,0,0,1,.12-.76c.21-.33.65-.4,1-.51a5.33,5.33,0,0,0,2.13-1.65l9.92-10.92.57.1,2,.16a2.69,2.69,0,0,1,.88.17c.74.34,1,1.26,1.14,2a54,54,0,0,0,4.41,12.71l2.22.66,1.47,9.31c3.39,6,4.32,12.94,5.19,19.74l7,55.06Zm-20-119.81q-19.64-6.55-38.6-15a8.93,8.93,0,0,1-3.54-2.31,13.28,13.28,0,0,1-1.55-3.08,13.48,13.48,0,0,0-8.31-7.24l4.83-6.43c.15-2.3.29-4.59.44-6.88a12.3,12.3,0,0,0,0-2.35,17.55,17.55,0,0,0-1.43-4,17,17,0,0,1-1.22-6.17l.15-5.19a12.53,12.53,0,0,0,8.26-4.17,20.65,20.65,0,0,0-6.18-3,6,6,0,0,1-2.13-.88c-1.41-1.11-1.32-3.24-1.1-5a1.56,1.56,0,0,1,.29-.9,1.84,1.84,0,0,1,.85-.42,8.8,8.8,0,0,0,6-8.13l-10.7-1.56.28-8.42c1.15-1.2,2.94-2.5,4.3-1.53a3.87,3.87,0,0,1,.84,1,18.07,18.07,0,0,0,10.36,6.57,33.35,33.35,0,0,0,12.44.31,29.72,29.72,0,0,0,9.13-2.56,22.31,22.31,0,0,1,4.53-2.08c1.31-.32,2.69-.26,4-.59l1.49,6.51c2.79,26.27,11.29,51.91,11.42,78.33ZM949.84,1575l-2.2,2.29A91.83,91.83,0,0,1,923.8,1582c-4,.25-8.74-.07-11.2-3.3,11.92-1.26,23.81-5.21,33-12.93l3.12.15a9.85,9.85,0,0,1,.76,5.64Z"></path>
    <path data-name="7a" data-official="" data-plain="Section of Seed" data-loc="" d="M1417.58,2591.88c-.41-17.27-9.37-33.21-20-46.85s-23.07-25.83-32.45-40.33a116,116,0,0,1-13-27.39,13,13,0,0,1-.88-5.95,13.74,13.74,0,0,1,2.15-4.82c4.24-6.94,8.62-14,15-19.05,4.53-3.55,9.87-5.91,15.14-8.22,26.11-11.46,53-23.1,81.47-24.23a24.66,24.66,0,0,1,9.57,1c5.13,1.9,8.63,6.6,11.56,11.21a150.1,150.1,0,0,1,22.85,68c1.8,22.11-1.67,45.34-14,63.77-6,8.93-13.88,16.49-19.65,25.56a67.64,67.64,0,0,0-6.55,58c2.17,6.1,5.23,11.9,6.82,18.18a41,41,0,0,1-4.12,30,19.58,19.58,0,0,1-5,6.12,24.14,24.14,0,0,1-7.78,3.42c-14.52,4.35-30.62,7.13-44.51,1a14.54,14.54,0,0,1-5.67-3.92,17.46,17.46,0,0,1-2.58-5.18c-2.35-6.42-4.61-13.27-3.33-20,1.59-8.37,8.24-14.67,12.94-21.78a51.67,51.67,0,0,0,6.08-43.31Z"></path>
    <path data-name="8a" data-official="Scandix Pecten-Veneris" data-plain="Beaked Fruit" data-loc="" d="M1613,2598.16c-13.48,7-30.3,13.94-43,5.56-4.58-3-7.83-7.68-10.53-12.46a61.13,61.13,0,0,1-7.67-20.94c-2.24-15.37,3.57-30.83,11.26-44.33s17.37-25.86,24-39.91c12.84-27.22,13.28-58.36,18.16-88.06,5.43-33.11,16.63-65.28,19.27-98.73.59-7.56.79-15.35,3.75-22.33s9.52-13.1,17.11-12.87c11.23.34,17.37,13,20.58,23.78,12.23,41.08,18.67,83.65,29.46,125.12s26.49,82.73,54.39,115.26c10.26,12,22.88,24.67,22,40.41a14.35,14.35,0,0,1-1.77,6.59c-1.83,3.05-5.16,4.86-8.46,6.19-20.46,8.25-45.83,2.26-60.43-14.29-4.91-5.56-11-13-18-10.43-6,2.17-7.1,10-7.2,16.43q-.48,29-.94,58.09c0,2.85-.07,5.8,1.09,8.39,1.53,3.44,4.83,5.67,7.8,8,9.92,7.72,17.88,21.31,12.22,32.54-4.36,8.65-14.86,12.06-24.44,13.49a123.36,123.36,0,0,1-39.76-.57c-7-1.24-15.07-4.3-16.49-11.24-.92-4.46,1.38-8.87,3.29-13a90.94,90.94,0,0,0,4.82-62.82Z"></path>
    <path data-name="9a" data-official="Daucus Carota" data-plain="Flower" data-loc="" d="M1783.94,2600.69c-3.92-15.12-7.83-31.19-3.21-46.12,2.33-7.5,6.71-14.23,11.85-20.18,7.12-8.25,15.88-15.23,26-19.37,16.12-6.64,34.23-5.64,51.63-4.54,4.9.31,9.89.65,14.42,2.54,8.6,3.59,14,12.05,18.79,20,2.94,4.86,5.93,9.83,7.14,15.38,2.13,9.75-1.48,19.73-5,29.06-2.89,7.6-6,15.46-11.78,21.14-2.25,2.19-4.89,4-6.75,6.56s-2.78,5.55-4.29,8.28c-3.52,6.33-9.82,10.55-16,14.37s-12.6,7.66-16.74,13.61-5.26,14.69-.51,20.16c2.73,3.15,6.86,4.7,10.07,7.35,9.31,7.69,8.29,23.39.31,32.46s-20.65,12.53-32.71,13.15a92,92,0,0,1-48.23-10.9,14.73,14.73,0,0,1-4.1-2.92c-2-2.25-2.66-5.46-2.57-8.5.57-18.76,23.64-30.72,24.84-49.46.63-9.82-5-18.82-10.45-27Z"></path>
</svg>
