
<svg xmlns="http://www.w3.org/2000/svg" viewBox="0 0 2114 2805" id="illustration" preserveAspectRatio="xMidYMid meet">
    <title>Araliaceæ</title>
    <path data-name="1" data-official="Aralia hispida" data-plain="Bristly Aralia" data-loc="North America" d="M1192.92,1780.58a23.83,23.83,0,0,1,5.78,17.05c-.16,2.4-.68,4.85-.09,7.18a26.8,26.8,0,0,0,1.45,3.62,18.6,18.6,0,0,1,1.33,9.06l.78,5.34q4.33,41.45,5.41,83.15a168.69,168.69,0,0,1-.37,20.61l-1.51,33.19c7.69,22.59,6.16,47.13,4.91,71q-2.7,51.41-3.1,102.89l-12.13-3.48a46.24,46.24,0,0,1-33.32-41.62c-.32-5.22.2-10.72-2.06-15.44a1.51,1.51,0,0,0-.74-.86,1.6,1.6,0,0,0-1.27.26q-3,1.56-6,3.2c-2.82,1.56-5.68,3.23-7.76,5.68a28.42,28.42,0,0,0-3.62,6.14l-9.11,19c-1.25,2.61-2.53,5.32-2.55,8.21s1.61,6,4.41,6.72l3.76,5.12,18,13.12c7.28,5.31,14.85,11,18.78,19.08l3,7.78c3.4,8.21,5.52,17.23,4,26s-7.28,17.11-15.69,19.94a19.81,19.81,0,0,0-3.91,1.48c-4.27,2.54-4.33,8.56-4.11,13.52a141.82,141.82,0,0,1-13.65,68.12c-2.3,4.71-4.88,9.3-6.71,14.21-2.65,7.1-3.68,14.76-6.75,21.68l-.71,8.25c-4.83,8.1-8.06,17.27-14.31,24.33s-17.09,11.46-25.2,6.66c-6.91-4.09-9.16-13.29-8-21.24s4.89-15.26,7.33-22.91a72,72,0,0,0-4.76-54.63c-1.91-3.65-4.22-7.22-7.56-9.62s-7.91-3.46-11.67-1.78c-2.37,1.05-4.26,3.09-6.75,3.8-3.7,1.07-7.76-1.23-9.76-4.53s-2.34-7.34-2.19-11.2c.1-2.52.34-5.25-1-7.38-2.74-4.3-10.06-2.55-12.61,1.86s-1.84,9.91-1.13,14.95c7,49.36,7.17,99.43,6,149.26-.36,16.12-1,32.68-7.32,47.49-3.76,8.74-9.47,16.71-11.79,25.94-2.48,9.88-1,21-6.38,29.66a22,22,0,0,1-23.79,9.36,16.46,16.46,0,0,1-8.26-5c-7.35-8.69-1.13-22.07-3.49-33.2-1.8-8.46-8.47-15-11.66-23.06-2.56-6.48-2.74-13.63-2.88-20.6l-1.48-71.37-2.41-16.22q.65-35.59-1.15-71.17L956,2268.76c-.92-16.32-2.15-33.51-11.25-47.09-.87-1.29-2-2.65-3.49-2.93a6,6,0,0,0-2.85.38,55.31,55.31,0,0,0-20.82,12.06c-3.53,3.26-6.62,7-9.91,10.46-9.92,10.53-21.68,19.14-33.54,27.43-4.11,2.88-8.29,5.74-13,7.56-2.59,1-5.5,1.68-8.14.8a9.49,9.49,0,0,1-5.8-6.71,19.2,19.2,0,0,1,.23-9.16c2.51-11,9.64-21.14,8.68-32.35-.27-3.13-1.36-6.45-4-8.16-2.86-1.88-6.66-1.31-9.88-.17-6.43,2.27-12,6.47-17.4,10.61l-17.55,13.38-5.52,1.6c-3.5,1.89-8.1.08-10.5-3.09s-3-7.31-3.28-11.28c-.91-14.88,2.87-29.76,8.79-43.44s13.94-26.36,21.92-38.95a164.74,164.74,0,0,1,12.43-17.84c9.1-10.91,21.47-20.3,24.65-34.15,1.16-5.07,1-10.34.73-15.54-.42-9.81-.86-19.88,2.26-29.19,2-5.85,5.27-11.15,7.6-16.86s3.65-12.24,1.48-18l-.46-8.37c-2.18-11.15-8.64-20.89-14.42-30.66a294.37,294.37,0,0,1-18.19-36.25c-3.33-7.94-6.33-16.08-10.87-23.4s-10.85-13.87-18.9-16.92a9.57,9.57,0,0,0-6.3-.63c-3.17,1-4.76,4.56-5.56,7.8-2.8,11.31-.38,23.24-1.44,34.85-1.05,11.36-5.4,22.11-9.69,32.68l-9.32,22.9c-1.55,3.79-3.17,7.7-6.11,10.54-5.13,4.94-13.49,5.48-19.93,2.44s-11.06-9.07-13.86-15.61-4-13.65-5.13-20.67l-1.66-5a69.75,69.75,0,0,1-38.58,12.77c-20,.43-39.61-7.74-59.43-5.44-7.51.87-15.21,3.22-22.48,1.13a24.17,24.17,0,0,1-9.52-5.6c-11.65-10.69-14-27.8-16.94-43.34-3.62-19.2-9.18-38.19-9.62-57.72l4.09-6.84a24.11,24.11,0,0,1,6.78-12.62,44.57,44.57,0,0,1,7.3-5.47q8.86-5.71,18-10.93a20.85,20.85,0,0,1,6.62-2.79c2.83-.49,5.85.14,8.53-.89a11.06,11.06,0,0,0,5.36-5.27c2.94-5.37,3.49-11.79,2.69-17.87s-2.86-11.9-4.91-17.67a62.75,62.75,0,0,0-5.38-12.27,58.06,58.06,0,0,0-5.9-7.57q-11.33-12.88-23.7-24.81l-3.33-3.51c-12.31-13.8-18.93-31.93-21.76-50.2s-2.14-36.89-1.44-55.37c.08-2,.25-4.23,1.72-5.6s3.58-1.38,5.51-1.18c12.88,1.37,23.18,10.79,33.29,18.88s22.8,15.62,35.33,12.33l9.76-3.84a230.08,230.08,0,0,1,48-2c7.15.45,14.74,1.14,21.09-2.17,9.31-4.85,12.66-16.73,12.05-27.21s-4.16-20.64-4.61-31.12c-.38-8.9,1.49-17.73,3.77-26.34s5.08-17.42,9.88-25c4.94-7.86,11.84-14.26,18.81-20.39,13.23-11.64,28.78-23.22,46.39-22.45,9.88.43,19.48,4.81,29.33,3.87,3.18-.3,6.52-1.3,8.49-3.81l-1.31-6.6a27.13,27.13,0,0,0-13-24.5c-6.17-3.64-13.5-4.63-20.37-6.65-16.37-4.83-30.28-15.63-46-22.37-9.27-4-20.16-7.41-24.43-16.55a10.59,10.59,0,0,1-.86-7.65c1.71-5.35,8.28-7,13.83-7.92l30.9-4.85c2.2-.35,4.7-.89,5.76-2.85,1.48-2.72-.87-5.9-3.15-8a104.16,104.16,0,0,0-31-19.8l-9-6.23c-18.51-17.27-36.46-35.38-50.91-56.17-5.6-8-10.93-16.76-19.24-22-8-5-17.72-6.13-26.94-8.14s-18.93-5.51-24.12-13.39c-5.58-8.49-4.41-19.59-2.73-29.61.66-3.89,1.38-7.83,3.15-11.34,2-3.93,5.14-7.11,8.27-10.19a126.74,126.74,0,0,1,15.69-13.7c11.32-8,24.86-12.26,38.53-14.33s27.57-2,41.39-1.84c7.29.09,15.16.4,20.87,4.91,6,4.72,8,13,7.62,20.6s-2.92,14.91-4.4,22.37c-.65,3.28-1.1,6.73-.06,9.9s4,6,7.3,5.78l7.58,3.75c14.22,4.94,23.25,18.54,31.49,31.13s18,25.94,32.53,29.75c3.95,1,8.84,1,11.34-2.26s1.39-7.62.26-11.42c-3.87-13-7.81-26.15-14.76-37.8-2-3.43-4.36-6.75-5.67-10.53-6.62-19.16,14.71-40.62,6.24-59-1.4-3.06-3.56-5.73-4.88-8.83-2.19-5.09-2-10.85-1.68-16.38.25-5.22.59-10.71,3.4-15.12,5.49-8.62,17.54-9.45,27.77-9.34l21.45.22c5.45.06,11,.1,16.21-1.55,4-1.26,7.61-3.48,11.46-5.15,7.94-3.45,16.68-4.51,25.28-5.4,9.7-1,20-1.73,28.74,2.53,3.77,1.83,7.12,4.53,11.09,5.86,4.22,1.41,8.8,1.17,13.24.9l48.49-2.86,7.81-.76a90,90,0,0,1,15-1,30.43,30.43,0,0,1,14.4,3.87l1.94,3.51a5.16,5.16,0,0,0,2.61,4.35,37.65,37.65,0,0,0,4.82,2.23,33.88,33.88,0,0,1,7.37,5.25,1.23,1.23,0,0,1,.4.48c.18.46-.19.93-.54,1.26a17.14,17.14,0,0,1-11.38,4.68,26.55,26.55,0,0,1,6.9,3.71,9.67,9.67,0,0,1,3.77,6.65,3,3,0,0,1-.26,1.63,3.74,3.74,0,0,1-1.67,1.36,39.74,39.74,0,0,1-12.38,4l-.16,1.62-1.08.6c3.79.47,7.74-.94,11.4.14a8.92,8.92,0,0,1,6.2,8.52,21.16,21.16,0,0,1,12.83-4.17,20.55,20.55,0,0,1,.39,8.55l.3.65a3.56,3.56,0,0,1,2.29,2.39,6.61,6.61,0,0,1-.15,4.85,6.68,6.68,0,0,1-3.46,3.42l-.16.38c2-.15,4.09-.25,5.72.85a6.54,6.54,0,0,1,2.48,4.53,8,8,0,0,1,.07,2,7.5,7.5,0,0,1-3.72,5.43,12.59,12.59,0,0,1-6.56,1.54l.16.36c3.28,1.6,4.42,5.7,4.65,9.35a4.39,4.39,0,0,1-.47,2.78c-1.08,1.61-3.5,1.28-5.38.76l-1.09,5.39c5-2.81,10.25-5.67,16-6.43a4.67,4.67,0,0,1,3,.33,1.86,1.86,0,0,1,.76,2.57c1.51,0,3,0,4.53.13a1.53,1.53,0,0,1,.92.26,1.57,1.57,0,0,1,.37,1.16c.08,3.15.09,6.29,0,9.44a5.17,5.17,0,0,1-.32,2,4.53,4.53,0,0,1-1.2,1.45,37.69,37.69,0,0,1-26.36,9.71,13.83,13.83,0,0,1-.89,4.84l.38,2.33a36.37,36.37,0,0,0,2.88,10.79l2,3.86c10.39-7.45,19-17.21,29.75-24.14,3.8-2.46,7.89-4.58,11.18-7.69a3.46,3.46,0,0,0,.85-1.09c.47-1.11-.25-2.33-.79-3.42s-.8-2.63.22-3.3a2.51,2.51,0,0,1,1.36-.31c2.53,0,5.24.67,7.5-.47s3.28-3.69,4-6.07a59.31,59.31,0,0,0,2.2-11l.81-5.13c1.74-5.93,1.53-12.23,1.45-18.41q-.22-17.58,1.1-35.12c.22-2.87.5-5.83,1.9-8.34a16.51,16.51,0,0,1,5.57-5.45,25,25,0,0,1,8.67-3.86c4.46-.91,9.17-.07,13.57-1.23,3.48-.92,6.56-3,10.06-3.89,5.88-1.46,12.12.83,17.1,4.27s9.08,8,13.74,11.88a62.42,62.42,0,0,0,17,10.09l7.57,3.68a66.69,66.69,0,0,1,36.89,32.67c3.65,7.29,5.94,15.4,5.63,23.55a39.09,39.09,0,0,1-8.52,22.79c-4,4.93-9.36,9.32-10.4,15.55-.6,3.58.34,7.44-1.09,10.77-1.33,3.07-4.41,5-7.44,6.42a18,18,0,0,1-6.24,1.91c-5.46.4-10.29-3.24-14.55-6.69l-17-13.82-3.71-2a84.52,84.52,0,0,0-35.78-13.76l-5-1.73c-3.33-.26-6.6-1-9.91-1.37a24,24,0,0,0-9.91.54l-9,2.77c-2.55.38-5.21-.63-7.72,0a12.05,12.05,0,0,0-3.39,1.63L1134,1258c-4.28,2.64-8.63,5.33-12,9.08-1.21,1.36-2.29,2.86-3.59,4.14a50.58,50.58,0,0,1-4.36,3.5c-1.86,1.44-3.59,3-5.32,4.62l-9.58,8.78c-3,2.7-6.06,5.69-6.79,9.62l-8,11.63-7.45,6.76c-4.92,4.47-10,9.12-12.67,15.2-2.42,5.48-2.7,11.63-2.93,17.62l-6.33,9.19c-8.89,13.49-16.1,29.52-13.13,45.4.63,3.38,1.72,6.68,2.1,10.11.85,7.77-2,15.46-5.48,22.46a120.35,120.35,0,0,1-20.75,29.55c-6.25,6.52-13.27,12.39-18.5,19.74-11.55,16.22-13.07,37.49-21.93,55.31-5.63,11.31-14.44,22.09-13.84,34.7l-2.78,8c-11.35,20.52-12,45-12.31,68.5l-.4,27.9c0,3.4-.09,6.88,1,10.08,2.46,7,10,11,17.28,11.92s14.67-.74,22-1.77c20.5-2.9,41.55-1.08,61.81-5.36,8-1.68,16.65-5,20-12.47,1.81-4,1.83-8.45,1.81-12.79l-.51-132.51c-.06-16.36.56-34.51,11.93-46.28,4.2-4.34,10.23-7.55,16.16-6.38,6.71,1.33,11.3,7.93,12.71,14.62s.37,13.63-.09,20.46c-.77,11.2.06,22.62,3.6,33.28,4.43,13.3,12.86,24.82,19.91,36.94a197.13,197.13,0,0,1,25.12,74.33,8.53,8.53,0,0,0,1.31,4.24c2.68,3.47,8.18.84,11.57-1.95l6.9,4.2a30.67,30.67,0,0,0,2.08,4.37,2.46,2.46,0,0,0,1.23,1.25c1,.31,1.9-.62,2.55-1.43a37.1,37.1,0,0,1,8.59-7.76,32,32,0,0,0-.1,7.39c0,.35.14.78.48.88a.92.92,0,0,0,.66-.16c3-1.56,6.34-3.56,6.91-6.89,4.07,1.42,7.88-4.59,12-3.39.9,1.52,0,3.44-.87,5s-1.81,3.41-1,5c2.65-1.85,4.18-5.06,7-6.66s6.35-1.47,8.33-3.85a9.5,9.5,0,0,1,.4,6.66l-.25-.31a120.77,120.77,0,0,1,15.48-6.21c2-.6,4.59-.91,5.83.77a5.47,5.47,0,0,1,.61,3.58l9.35-3.16c1.36-.46,2.88-.91,4.2-.35s2,2.65.75,3.43a14.6,14.6,0,0,1,5.94,1.84,64.12,64.12,0,0,1,13.74,8.36,28,28,0,0,1,9.09,13c-3.56-2.38-7.18-4.78-11.26-6.11a47.28,47.28,0,0,0-11.92-1.72l-8.25-.47a6,6,0,0,1,1.49,4.41l-6.88.07a3.26,3.26,0,0,0-1.7.31,4,4,0,0,0-1,.95,9.24,9.24,0,0,1-6.61,3.15l-3.68.68-7.36-1.38a11.63,11.63,0,0,1-8.21,1.85c-.08,3-2.28,5.72-4.93,7.23a27.12,27.12,0,0,1-8.73,2.59l.16.35a25.58,25.58,0,0,1,8.8,5.1c-6.23,0-11.5,4.31-16.17,8.42l-6.52,5.75c3.81-.34,7.11,2.44,9.92,5a33,33,0,0,0-7.83.29,11,11,0,0,0-6.69,3.79c-.92,1.2-1.51,2.65-2.52,3.77s-2.73,1.86-4,1.11l-.21.48a9.81,9.81,0,0,1,8.42,7.64,32.62,32.62,0,0,0-4.61.67Zm88.33,328.94a12.07,12.07,0,0,0,3.15-3.92,100.74,100.74,0,0,1,7.4-10.58l-.6-.05c-5.75-11.82-5.53-25.54-5.18-38.68a68.57,68.57,0,0,1,1.2-13.28,61.6,61.6,0,0,1,4.26-11.75q4-8.77,8.52-17.28c4.45-8.28,9.45-16.76,9.87-26.15.16-3.53-.34-7.06-.1-10.59.58-8.76,5.69-17.08,4.59-25.8l.54-3.68c1.69-5.24,3.39-10.89,1.73-16.14a7.54,7.54,0,0,0-2.68-4c-2.21-1.51-5.17-1.1-7.78-.5-3.53.81-7.19,2-9.6,4.68-2,2.25-2.89,5.27-3.82,8.15a116.41,116.41,0,0,1-16.2,32.13l-3.64,3.94c-1.27,4.56-5.53,7.64-7.62,11.88-1.87,3.79-1.87,8.2-1.83,12.42l1,102.31,3.4,2a14.17,14.17,0,0,0,7.61,4.92Z"></path>
    <path data-name="2" data-official="Panax pseudo-ginseng" data-plain="Indian Ginseng" data-loc="Himalayas" d="M1032,1120.25A669.39,669.39,0,0,0,825,800.88c10.79,61.59,21.07,127.65-5,184.49-14.07,30.71-37.71,56-62.67,78.74-70.16,64-159.16,114.17-254.12,113.22-38.74-.38-76.88-9.21-115.47-12.56s-79.58-.6-112.43,19.94c-9.94,6.21-20.73,14.34-32.13,11.55-9.43-2.31-15.71-12-16.61-21.67s2.58-19.23,7-27.88c8.35-16.4,20.1-30.81,32.41-44.49C318.38,1044,381.88,997,444.92,950.51l52.29-38.59L497,897.79c-70.46,18.37-144.31,17.4-217.11,16.31-26.8-.4-53.76-.82-80.06-6s-51.36-14.92-75.66-26.07c-45.76-21-92.55-51-108.49-98.78-1.75-5.26-2.8-11.83,1.18-15.7,3.41-3.31,8.82-2.93,13.56-2.58,44.18,3.25,87.37-15,124.61-39s70.38-53.9,107.52-78c23.34-15.18,48.11-28,72.84-40.78,18.64-9.63,37.36-19.31,57.26-26,31.69-10.63,65.4-13.33,98.72-16l2.5-9.22C437,518.56,397.72,460.09,363.68,401.15A1654,1654,0,0,1,241.8,139.89c-12.4-34-23.79-69.16-24.53-105.4-.11-5.12.33-11,4.33-14.15s9.66-2.37,14.31-.53c12.71,5,21.7,16.22,31.14,26.09,15.05,15.73,32.54,29,51.08,40.38C423.67,151.2,561.42,156.47,656,236.52l7.17-3.2q-3.87-31.6-6.47-63.34c-1.81-22-2.9-45.37,7.52-64.82,8.54-15.92,23.7-27.08,38.72-37.11,44.82-29.91,94.64-55.32,148.35-59.61S963.21,24.72,992.22,70.13c13.33,20.86,19.73,45.25,27.42,68.79.7,2.15,2.16,4.77,4.38,4.34a4.82,4.82,0,0,0,2.5-1.86l49.08-57.63c16.54-19.41,34.08-39.56,57.84-48.83,6.07-2.37,14.52-3.17,17.65,2.55,2.11,3.86.47,8.61-1.27,12.65-6.08,14.17-13.06,28-18.06,42.56-17,49.48-9.93,103.57-2.71,155.38l5.62,10.11a210.9,210.9,0,0,1,151.48-23.26c11.23,2.56,22.59,6.23,31.3,13.77,8.26,7.16,13.41,17.15,18.37,26.89,11.07,21.77,22.25,43.8,27.76,67.59s4.87,49.9-6.88,71.31c-8.87,16.18-23.28,28.47-37.21,40.57-2.19,1.9-4.57,4.24-4.41,7.14.27,4.79,6.64,6.21,11.43,6,21.06-.88,41.58-6.63,62.39-9.93a269.85,269.85,0,0,1,65.91-2.31c3,.25,6.12.65,8.32,2.64,3.38,3.06,3,8.5,1.47,12.78-6.08,16.76-24.17,25.16-38.75,35.43-47.83,33.69-64,95.94-95,145.57-16.25,26-36.94,48.94-57.79,71.45-43.4,46.85-92.44,95.06-155.39,105.79l-6.34,10.72c13.32,36.45,15.05,75.91,19.84,114.43,7.87,63.22,24.36,126,21.1,189.61l1,15.54c-1.4,2.51-1.68,5.47-1.9,8.34q-1.32,17.52-1.1,35.12c.08,6.18.29,12.48-1.45,18.41l-.81,5.13a59.31,59.31,0,0,1-2.2,11c-.71,2.38-1.76,4.94-4,6.07s-5,.43-7.5.47a2.51,2.51,0,0,0-1.36.31c-1,.67-.76,2.22-.22,3.3s1.26,2.31.79,3.42a3.46,3.46,0,0,1-.85,1.09c-3.29,3.11-7.38,5.23-11.18,7.69-10.73,6.93-19.36,16.69-29.75,24.14l-2-3.86a36.37,36.37,0,0,1-2.88-10.79l-.38-2.33a13.83,13.83,0,0,0,.89-4.84,37.69,37.69,0,0,0,26.36-9.71,4.53,4.53,0,0,0,1.2-1.45,5.17,5.17,0,0,0,.32-2c.06-3.15,0-6.29,0-9.44a1.57,1.57,0,0,0-.37-1.16,1.53,1.53,0,0,0-.92-.26c-1.51-.08-3-.12-4.53-.13a1.86,1.86,0,0,0-.76-2.57,4.67,4.67,0,0,0-3-.33c-5.73.76-10.93,3.62-16,6.43l1.09-5.39c1.88.52,4.3.85,5.38-.76a4.39,4.39,0,0,0,.47-2.78c-.23-3.65-1.37-7.75-4.65-9.35l-.16-.36a12.59,12.59,0,0,0,6.56-1.54,7.5,7.5,0,0,0,3.72-5.43,8,8,0,0,0-.07-2,6.54,6.54,0,0,0-2.48-4.53c-1.63-1.1-3.76-1-5.72-.85l.16-.38a6.68,6.68,0,0,0,3.46-3.42,6.61,6.61,0,0,0,.15-4.85,3.56,3.56,0,0,0-2.29-2.39l-.3-.65a20.55,20.55,0,0,0-.39-8.55,21.16,21.16,0,0,0-12.83,4.17,8.92,8.92,0,0,0-6.2-8.52c-3.66-1.08-7.61.33-11.4-.14l1.08-.6.16-1.62a39.74,39.74,0,0,0,12.38-4,3.74,3.74,0,0,0,1.67-1.36,3,3,0,0,0,.26-1.63,9.67,9.67,0,0,0-3.77-6.65,26.55,26.55,0,0,0-6.9-3.71,17.14,17.14,0,0,0,11.38-4.68c.35-.33.72-.8.54-1.26a1.23,1.23,0,0,0-.4-.48,33.88,33.88,0,0,0-7.37-5.25,37.65,37.65,0,0,1-4.82-2.23,5.16,5.16,0,0,1-2.61-4.35l-1.94-3.51a30.43,30.43,0,0,0-14.4-3.87,90,90,0,0,0-15,1Zm196.92,550.44c0-.16.08-.32.12-.48l-.37.17Zm514.17,443.51a127.29,127.29,0,0,0-26-28.09c-8.72-6.92-18.82-13.26-23.13-23.53l-2.82-5.32a27.9,27.9,0,0,1-9.08-5.1,10.58,10.58,0,0,1-3.13-3.85,21.86,21.86,0,0,1-.95-4.71,30.45,30.45,0,0,0-3.26-8.35,111.92,111.92,0,0,0-7.61-13.12c-4.1-5.84-9.16-10.94-14.18-16a73.41,73.41,0,0,0-9.86-8.8c-4.62-3.2-9.91-5.28-15.15-7.33a57.49,57.49,0,0,0-12.17-3.75L1610,1986c-2.26,2-4.63,4-7.54,4.81a21.33,21.33,0,0,1-5.81.37,110.28,110.28,0,0,0-12.06.4,10.5,10.5,0,0,1-2.17.06,11.14,11.14,0,0,1-2.8-.84q-11.6-4.65-23.43-8.7l-3.82-4.12q-21-4.18-41.56-10c-5.25-1.49-10.7-3.18-14.59-7-3.21-3.15-5-7.42-7.08-11.41a143.45,143.45,0,0,0-9.61-15.28c-2.48-3.57-5.06-7.4-5.17-11.74a17.26,17.26,0,0,1,1.37-6.54c3.44-8.9,10.25-16.31,13-25.47l2-5.87a93.36,93.36,0,0,0-2.47-61.32c-4-9.94-9.58-19.1-15.18-28.2-2.83-4.59-6.31-9.64-11.64-10.44-6.18-.93-11.46,4.32-15.08,9.41-11.46,16.1-17.95,35.1-25.82,53.23-.68,1.56-2.1,3.44-3.65,2.74a3.15,3.15,0,0,1-1.24-1.29c-4.14-6.48-6.63-13.92-11.05-20.2-1.32-1.87-2.9-3.69-5-4.47a13.16,13.16,0,0,0-5.63-.33c-8.64.75-17.5,1.55-25.27,5.38-3.29,1.62-6.39,3.78-10,4.52a20.62,20.62,0,0,1-8.59-.41,45.38,45.38,0,0,1-15.12-6.42l-1.69-7.13c-12.66-30.37-16.78-63.6-18.7-96.44s-1.8-65.9-6.51-98.46c-1.74-12-4.7-24.89-14-32.59-4.92-4.06-11.15-6.22-17.42-7.36a64.37,64.37,0,0,0-38,4.74,10.51,10.51,0,0,0-3.91,2.63l-10.27,0c-9.14-23.67-11.7-49.3-18-73.87-3.31-12.87-7.69-25.69-7.82-39a88.73,88.73,0,0,1,2.89-21.66l.24-7.33a130.78,130.78,0,0,1-2.45-46.32c1-8,2.76-16.1,1.4-24a27.61,27.61,0,0,1-.82-6.49c.27-3.63,2.58-6.77,5-9.52,33.13-38.17,93.61-42.14,127.67-79.48,5-5.54,9.55-12.08,10.38-19.54s-3-15.84-10.2-18.06c-8.15-2.54-16.26.28-23.26,5.18-9.61,6.73-20,15.29-31,19.54l-9.31,9.14c-1.33,3.07-4.41,5-7.44,6.42a18,18,0,0,1-6.24,1.91c-5.46.4-10.29-3.24-14.55-6.69l-17-13.82-3.71-2a84.52,84.52,0,0,0-35.78-13.76l-5-1.73c-3.33-.26-6.6-1-9.91-1.37a24,24,0,0,0-9.91.54l-9,2.77c-2.55.38-5.21-.63-7.72,0a12.18,12.18,0,0,0-3.39,1.63L1134,1258c-4.28,2.64-8.63,5.33-12,9.08-1.21,1.36-2.29,2.86-3.59,4.14a50.58,50.58,0,0,1-4.36,3.5c-1.86,1.44-3.59,3-5.32,4.62l-9.58,8.78c-3,2.7-6.06,5.69-6.79,9.62l-8,11.63-7.45,6.76c-4.92,4.47-10,9.12-12.67,15.2-2.42,5.48-2.7,11.63-2.93,17.62l3.7,10.51a47.9,47.9,0,0,1,4.5,38.79c-.84,2.6-1.92,5.28-1.47,8a9.81,9.81,0,0,0,3.57,5.73c7.47,6.3,19.54,4.1,27.13,10.26,4.2,3.41,6.22,8.77,8,13.86q39,109,68.12,221.15l-1.28,8.91,6.9,4.2a30.67,30.67,0,0,0,2.08,4.37,2.46,2.46,0,0,0,1.23,1.25c1,.31,1.9-.62,2.55-1.43a37.1,37.1,0,0,1,8.59-7.76,32,32,0,0,0-.1,7.39c0,.35.14.78.48.88a.92.92,0,0,0,.66-.16c3-1.56,6.34-3.56,6.91-6.89,4.07,1.42,7.88-4.59,12-3.39.9,1.52,0,3.44-.87,5s-1.81,3.41-1,5c2.65-1.85,4.18-5.06,7-6.66s6.35-1.47,8.33-3.85a9.45,9.45,0,0,1,.52,6.18,118.38,118.38,0,0,1,15.11-6c2-.6,4.59-.91,5.83.77a5.47,5.47,0,0,1,.61,3.58l9.35-3.16c1.36-.46,2.88-.91,4.2-.35s2,2.65.75,3.43a14.6,14.6,0,0,1,5.94,1.84,64.12,64.12,0,0,1,13.74,8.36,28,28,0,0,1,9.09,13c-3.56-2.38-7.18-4.78-11.26-6.11a47.28,47.28,0,0,0-11.92-1.72l-8.25-.47a6,6,0,0,1,1.49,4.41l-6.88.07a3.26,3.26,0,0,0-1.7.31,4,4,0,0,0-1,.95,9.24,9.24,0,0,1-6.61,3.15l-3.68.68-7.36-1.38a11.63,11.63,0,0,1-8.21,1.85c-.08,3-2.28,5.72-4.93,7.23a27.12,27.12,0,0,1-8.73,2.59l.16.35a25.58,25.58,0,0,1,8.8,5.1c-6.23,0-11.5,4.31-16.17,8.42l-6.52,5.75c3.81-.34,7.11,2.44,9.92,5a33,33,0,0,0-7.83.29,11,11,0,0,0-6.69,3.79c-.92,1.2-1.51,2.65-2.52,3.77s-2.73,1.86-4,1.11l-.21.48a9.81,9.81,0,0,1,8.42,7.64,32.62,32.62,0,0,0-4.61.67l-.4,34.93a23.83,23.83,0,0,1,5.78,17.05c-.16,2.4-.68,4.85-.09,7.18a26.8,26.8,0,0,0,1.45,3.62,18.6,18.6,0,0,1,1.33,9.06l.78,5.34q4.33,41.45,5.41,83.15a168.69,168.69,0,0,1-.37,20.61l-1.51,33.19c7.69,22.59,6.16,47.13,4.91,71q-2.7,51.41-3.1,102.89l-9,7.12q-2,33-3.91,66c-.44,7.42-1,15.15-4.78,21.53-2.61,4.37-6.56,7.74-10.44,11l-15.6,13.25-8.42,5.26a137.06,137.06,0,0,1-11.87,37.69c-2.3,4.71-4.88,9.3-6.71,14.21-2.65,7.1-3.68,14.76-6.75,21.68l-.71,8.25-1.53,20.26a235.86,235.86,0,0,1,26.51-28c.81,22.49-17.42,42.79-15.08,65.17.76,7.23,5.48,15.41,12.74,15.11,5.31-.21,9.19-4.81,13.19-8.3s10.51-6,14.27-2.24c2.61,2.6,2.39,6.82,1.94,10.48-1.46,12-3.34,23.85-5.22,35.74l-4.56,28.87c-2,12.9-4.08,25.81-5.73,38.77-1.42,11.24-1.46,25,8.06,31.09,3.81,2.45,8.52,3.11,13,3.08,9.31-.07,20-4.24,22.29-13.26.53-2.08.57-4.28,1.35-6.27,2.35-6.1,10.15-7.82,16.68-7.65s13.68,1.19,19.08-2.49c3.27-2.22,5.31-5.84,6.77-9.52,5.07-12.83,4.19-27.09,4.33-40.89s1.75-28.54,10.58-39.14c2.69-3.23,6.77-6.16,10.83-5,2.67.76,4.55,3.09,6.25,5.29l14.59,18.95c4.81,6.25,10.24,12.9,17.92,14.65,3.81.87,7.86.42,11.59,1.57,10.53,3.24,13.35,16.39,16.06,27.06a109.54,109.54,0,0,0,21.94,43c4,4.79,8.52,9.33,14.17,12a37.79,37.79,0,0,0,15.42,3.06c15.13.26,31.24-5.56,39.41-18.3,4.78-7.46,6.41-16.49,7.41-25.3a219.92,219.92,0,0,0-.12-50.12l-1.72-8.4q-4.38-25.14-8.35-50.36c-.61-3.87-1-8.39,1.75-11.16A9.68,9.68,0,0,1,1441,2385a20.51,20.51,0,0,1,12.84,2.72c10.66,6.35,13.83,21.11,24.31,27.74,5.22,3.29,11.62,4.12,17.78,4.14,6.45,0,13.35-.95,18.16-5.24,2.54-2.27,4.3-5.31,6.9-7.5,3.58-3,8.42-4.15,13.1-4.39,16.68-.84,32,8.15,47.83,13.6,4.11,1.42,8.66,2.6,12.75,1.09,5.21-1.92,8.07-7.81,8.25-13.37s-1.74-10.93-3.44-16.22c-2.48-7.76-4.61-15.86-9.46-22.41-2.9-3.91-6.67-7.11-9.75-10.89a40.46,40.46,0,0,1-7-37.38l1.71-11.19a211.65,211.65,0,0,0-1.24-53.75c-.87-5.78-2-11.52-2.92-17.29-4.22-26.28-4.52-53.07-2.66-79.61l4.44-32.74c.64-4.5.1-9.08-.44-13.59-1.15-9.6-2.49-19.7-8.3-27.43l-.83-6.17a51,51,0,0,1-2.47-15.31l2.21-5.43c8.84,3.39,17.86,7.09,24.66,13.68,11.6,11.23,15,29.11,26.87,40a31.51,31.51,0,0,1,4.78,4.74,11.07,11.07,0,0,1,2,7.19l1.75,7.45q.76,17.1.77,34.23a174.76,174.76,0,0,1-.73,18.59c-.72,6.85-2.09,14.17,1,20.34l6.25,2.56c3.88-2.26,8.17-4.5,12.61-3.88,5.08.7,9,5,11.27,9.57s3.57,9.65,6.06,14.13,6.77,8.51,11.9,8.62c4.94.1,9.45-3.71,11-8.4,1.31-4.06.69-8.44.77-12.7s1.19-9,4.74-11.32c2.63-1.73,6-1.77,9.15-1.46a27.58,27.58,0,0,1,11.83,3.55c3.41,2.11,6,5.23,8.91,8s6.24,5.38,10.21,5.94a13.59,13.59,0,0,0,7.57-1.28,11,11,0,0,0,4.64-3.8,14.9,14.9,0,0,0,1.82-5.83,88.52,88.52,0,0,0,.76-20.51l.25-9.43a53.11,53.11,0,0,1,2.13-25.87c1.71-5,4.18-9.8,4.46-15.05C1750.52,2126.5,1747,2120,1743.07,2114.2ZM1314.9,1947.76l-.54,3.68c1.1,8.72-4,17-4.59,25.8-.24,3.53.26,7.06.1,10.59-.42,9.39-5.42,17.87-9.87,26.15q-4.56,8.49-8.52,17.28a61.6,61.6,0,0,0-4.26,11.75,68.57,68.57,0,0,0-1.2,13.28c-.35,13.14-.57,26.86,5.18,38.68l.6.05a100.74,100.74,0,0,0-7.4,10.58,12.07,12.07,0,0,1-3.15,3.92l-5.74,0a14.17,14.17,0,0,1-7.61-4.92l-3.4-2q-.52-51.15-1-102.31c0-4.22,0-8.63,1.83-12.42,2.09-4.24,6.35-7.32,7.62-11.88l3.64-3.94a116.41,116.41,0,0,0,16.2-32.13c.93-2.88,1.8-5.9,3.82-8.15,2.41-2.7,6.07-3.87,9.6-4.68,2.61-.61,5.57-1,7.78.5a7.54,7.54,0,0,1,2.68,4C1318.29,1936.87,1316.59,1942.52,1314.9,1947.76Z"></path>
    <path data-name="2a" data-official="" data-plain="Fruit" data-loc="" d="M749.12,2688.66c-6.53,1.51-12.56-3.9-16.38-9.4a68.62,68.62,0,0,1-11.11-26.76,46.36,46.36,0,0,1-.66-13.45c.71-6.13,3-11.94,5.3-17.67,3.09-7.72,6.23-15.54,11.29-22.13,10.34-13.49,28.05-20.26,45-19.37s33.09,8.81,45.9,20c4.73,4.12,9.13,8.78,11.92,14.4,2.88,5.82,3.9,12.37,4.54,18.83.86,8.54,1.1,17.42-2,25.43-5.74,15-22.42,25.6-22.88,41.65-.3,10.51,6.63,19.62,12.48,28.34s11.09,19.63,7.19,29.38c-2.37,5.9-7.79,10.17-13.73,12.45s-12.37,2.79-18.72,3a225.08,225.08,0,0,1-26.1-.58c-5.57-.45-11.61-1.32-15.51-5.33-4.53-4.64-4.72-12-3.64-18.36a64.28,64.28,0,0,1,8.2-22.24c2.07-3.46,4.53-6.87,5.18-10.85.91-5.52-1.93-11.13-6-14.93s-9.33-6.12-14.49-8.29Z"></path>
    <path data-name="2b" data-official="" data-plain="Cross section" data-loc="" d="M616,2731.35c1-7,4.37-13.7,4.22-20.8s-3.81-13.54-7.16-19.8a281.64,281.64,0,0,1-12.68-27.1c-2.93-7.21-5.6-15-4.28-22.64a30.81,30.81,0,0,1,6.86-14c3.42-4.2,7.7-7.86,12.79-9.71,4.14-1.5,8.61-1.74,13-2,16.26-.83,33-1.6,48.32,4,7.36,2.7,14.56,7.25,17.78,14.39,2.16,4.77,2.31,10.16,2.43,15.39.21,9.16.36,18.67-3.35,27-2.22,5-5.74,9.42-7.41,14.64s-1.34,11-1.42,16.52a101.73,101.73,0,0,1-1.9,18c-.87,4.42-2.18,9-5.47,12.1-2.42,2.24-5.63,3.4-8.79,4.34a98,98,0,0,1-35.4,3.73c-7-.56-15.3-2.93-17.41-9.67Z"></path>
    <path data-name="2c" data-official="" data-plain="Seed" data-loc="" d="M513.69,2731.79a49.88,49.88,0,0,1,3.91-22.44c1.14-2.68,2.56-5.46,2.17-8.35-.33-2.44-1.9-4.51-3.37-6.49a149.64,149.64,0,0,1-19.82-36.42c-2.28-6.05-4.17-12.39-4-18.86s2.71-13.12,7.89-17,12.22-4.43,18.76-4.44q6.75,0,13.48.49c5.09.37,10.34,1,14.74,3.61,5.34,3.15,8.77,8.86,10.47,14.83s1.85,12.23,2,18.43l.46,19.37c.15,6.48.36,13.17,3.13,19,3.39,7.15,10.24,12.22,13.54,19.41a22.87,22.87,0,0,1,1.84,12.56,12.36,12.36,0,0,1-2.45,6.24,15.16,15.16,0,0,1-6,3.85,74.88,74.88,0,0,1-52.22,1.69Z"></path>
    <path data-name="2d" data-official="" data-plain="Section" data-loc="" d="M426.82,2675.55c-9.84-13.52-10.62-33-1.89-47.28a23,23,0,0,1,6.88-7.55c3.11-2,6.81-2.83,10.46-3.44a112.84,112.84,0,0,1,17.88-1.59c4.81-.05,9.79.25,14.06,2.46,5.23,2.71,8.74,8,10.38,13.69s1.62,11.66,1.23,17.54a57.58,57.58,0,0,1-2.24,13.76c-2.7,8.5-8.63,17.18-5.46,25.51,1.69,4.47,5.66,7.57,9,10.94,6.34,6.35,11.16,15.33,9.18,24.08-1.85,8.21-9.37,14.18-17.43,16.62s-16.66,2-25.06,1.52L439.1,2741c-4.33-.25-9-.64-12.24-3.57-4.11-3.75-4.15-10.33-2.34-15.6s5.1-10,6.78-15.27a27.52,27.52,0,0,0-2.53-22.05Z"></path>
    <path data-name="3" data-official="Hedera Helix" data-plain="Common Ivy" data-loc="Britain" d="M1573.31,2316.85l1.71-11.19a211.65,211.65,0,0,0-1.24-53.75c-.87-5.78-2-11.52-2.92-17.29-4.22-26.28-4.52-53.07-2.66-79.61l4.44-32.74c.64-4.5.1-9.08-.44-13.59-1.15-9.6-2.49-19.7-8.3-27.43l-.83-6.17a51,51,0,0,1-2.47-15.31l2.21-5.43c8.84,3.39,17.86,7.09,24.66,13.68,11.6,11.23,15,29.11,26.87,40a31.51,31.51,0,0,1,4.78,4.74,11.07,11.07,0,0,1,2,7.19l1.75,7.45q.76,17.1.77,34.23a174.76,174.76,0,0,1-.73,18.59c-.72,6.85-2.09,14.17,1,20.34l6.25,2.56,2.17,9.88a53.88,53.88,0,0,0,3.87,14.09l2.76,9.37c3.22,19.76,6.5,39.73,14.28,58.18,3.68,8.71,8.35,17.07,10.78,26.22,3.24,12.21,2.3,25.2,5.21,37.49,1.23,5.23,3.15,10.26,4.83,15.37,3.43,10.48,5.85,21.63,4.08,32.52s-8.42,21.51-18.7,25.5-23.87-.65-27.53-11.06c-3.86-10.95,3.59-23.36.18-34.46-2.13-6.94-8-11.9-13.48-16.71a245,245,0,0,1-39.32-44.34Zm93.74-294.72a111.92,111.92,0,0,1,7.61,13.12,30.45,30.45,0,0,1,3.26,8.35,21.86,21.86,0,0,0,.95,4.71,10.58,10.58,0,0,0,3.13,3.85,27.9,27.9,0,0,0,9.08,5.1l5.26-5,19.83-36.89c4.53-8.43,9.18-17.27,9.45-26.84.28-10-4.28-19.52-8.73-28.52l-27.6-55.85c-1.17-2.37-2.37-5-1.64-7.56,1.15-3.93,6.19-5.19,10.24-4.61s8,2.31,12.09,1.66c6.22-1,10.14-7.11,12.92-12.77a173.1,173.1,0,0,0,14.43-108.7l-.9-15.93c.75-6.62,6.79-11.4,12.94-14s12.91-3.72,18.62-7.16c8.35-5,13.2-14.16,17.65-22.84l11.5-22.42-.52-15.81c10.79-9.8,17.21-23.68,20.48-37.89s3.62-28.91,4-43.49c.26-10.45.62-21.24,5-30.72,6.33-13.64,20-22.33,33.81-28.34s28.54-10.2,41.07-18.53c6.37-4.24,12.2-9.69,15.43-16.64,2.72-5.84,3.46-12.44,3.23-18.88-1.13-31.42-23.8-58.31-28.56-89.39-.83-5.46-1-11.53,2.31-16,1.8-2.46,4.45-4.15,6.52-6.39,4.44-4.8,5.85-11.81,5.22-18.32s-3.08-12.7-5.49-18.79l-12.59-15.47q-6.21-15.52-12.43-31.07c-4.1-10.24-8.24-21.61-4.55-32a16.52,16.52,0,0,1,5.59-8c4.36-3.16,10.12-3.25,15.34-4.56,5.76-1.44,11-4.43,16.13-7.44q19.89-11.68,39.11-24.46l3.6-14.58c16-18.55,42.11-27.87,53.34-49.6,2.58-5,4.28-10.52,7.77-14.93,8-10.1,22.78-11.38,35.62-10.27s26.4,3.65,38.18-1.59a20.34,20.34,0,0,0,9.17-7.42c2.15-3.45,2.81-7.62,3.05-11.68,1.92-32-18.82-63.33-11.7-94.55,2.13-9.36,6.68-18,9.13-27.29s2.43-20.08-3.69-27.47c-7.74-9.34-21.58-9.71-33.14-13.37-10.19-3.23-19.14-9.4-27.93-15.49l-9.05,0L1950,901.91c4.6-17.62,9.24-35.42,9.88-53.63s-3-37.1-13.72-51.86c-16.27-22.5-47.7-34.66-54.19-61.65-2.07-8.6-1.22-17.83-4.32-26.1-2.79-7.44-8.5-13.36-14.05-19-20.42-20.91-41.1-42-65.81-57.61-11.37-7.17-23.7-13.27-33-22.94s-15.2-24.28-10.18-36.76c2.46-6.13,7.21-11,10.6-16.7,9-15.09,5.27-38.24-10.79-45.38-9.41-4.19-20.41-2.2-30.12,1.25a110.12,110.12,0,0,0-44.12,29.21l-8.84,8.86a79.77,79.77,0,0,1-42.6,11.25c-6.37-.15-12.91-1-19,.85-9.86,3.08-16,12.54-22.3,20.72-20.45,26.52-49.68,44.58-78.24,62-9.45,5.77-20.1,11.78-31,9.57-13.36-2.73-21.36-16.72-33.75-22.41-10.21-4.68-22.34-3.14-32.71,1.17-25.89,10.77-43.21,39.3-40.81,67.24.15,1.82.35,3.79-.59,5.36-1.3,2.18-4.2,2.66-6.73,2.88-14.78,1.26-29.85.91-44.14,4.89-36,10-58.88,44.42-78.47,76.28-8,13-16,26.16-20.61,40.71l-.45,13.75c-2,20.89,21.43,38.72,17.33,59.3-2.27,11.43-12.32,19.31-20.71,27.38s-16.17,19.68-12.23,30.64c3.15,8.78,12.53,13.41,21.06,17.16,27.56,12.13,55.68,24.41,85.63,27.5,12.66,1.31,25.69,1,37.69,5.21,13.93,4.9,25.19,15.54,33.86,27.5,5.75,7.93,10.63,16.74,12.48,26.37,2.51,13-.69,26.39-2.56,39.54a198.57,198.57,0,0,0,4.37,77.59l7.6,10.65c7,21,17,41,22.55,62.41s6.1,45.38-5,64.52c-9.12,15.7-24.92,26.27-40.82,35-6.67,3.68-13.56,7.18-21,8.81-8.87,1.94-18.08,1.14-27.15,1.53-22,.93-43.19,8.92-62.09,20.16s-35.67,25.66-51.92,40.46c-7.8,7.11-15.8,14.76-19.09,24.78l-8.47,7.24a88.73,88.73,0,0,0-2.89,21.66c.13,13.29,4.51,26.11,7.82,39,6.32,24.57,8.88,50.2,18,73.87l10.27,0a10.51,10.51,0,0,1,3.91-2.63,64.37,64.37,0,0,1,38-4.74l23.15-.84c23.65-3.31,42-21.33,61.58-35a20.52,20.52,0,0,1,6.87-3.54c3.58-.82,7.3.23,10.8,1.35q8.41,2.7,16.62,6a4.68,4.68,0,0,1,3.58,5.41c.65,23-2.52,47.75,8.92,67.77,5.46,9.55,13.89,17.2,18.89,27,8.32,16.29,6,35.76,9.12,53.79,1.66,9.54,4.88,18.72,8.1,27.85l13.55,38.55,3.67,11.47c5.33.8,8.81,5.85,11.64,10.44,5.6,9.1,11.23,18.26,15.18,28.2a93.36,93.36,0,0,1,2.47,61.32l-2,5.87c-2.71,9.16-9.52,16.57-13,25.47a17.26,17.26,0,0,0-1.37,6.54c.11,4.34,2.69,8.17,5.17,11.74a143.45,143.45,0,0,1,9.61,15.28c2.08,4,3.87,8.26,7.08,11.41,3.89,3.83,9.34,5.52,14.59,7q20.58,5.82,41.56,10l3.82,4.12q11.82,4.05,23.43,8.7a11.14,11.14,0,0,0,2.8.84,10.5,10.5,0,0,0,2.17-.06,110.28,110.28,0,0,1,12.06-.4,21.33,21.33,0,0,0,5.81-.37c2.91-.76,5.28-2.82,7.54-4.81l-.63-6.94a432.15,432.15,0,0,1-13.69-51.26,1.71,1.71,0,0,1,1.36-2.4l15.9-6.19a5.38,5.38,0,0,1,3-.54,5.05,5.05,0,0,1,2.62,2,93.88,93.88,0,0,1,8.53,13.72c11,20.27,22.16,40.68,29.49,62.57Z"></path>
    <path data-name="3a" data-official="" data-plain="Flower" data-loc="" d="M1813.13,2665.71a68.33,68.33,0,0,1,24.88-53.2,35.2,35.2,0,0,1,11-6.42c4.37-1.43,9-1.57,13.62-1.7,14.94-.41,30.39-.73,44.22,5,7.67,3.15,14.51,8,20.94,13.27,6,4.86,11.72,10.13,16.2,16.4,13.61,19,13.27,46.94-.82,65.64-5.47,7.26-13.05,13.88-14,22.93-.51,4.72.92,9.41,1.84,14.08,1.78,9,1,19.81-6.23,25.49-3.63,2.83-8.3,3.9-12.83,4.73a186,186,0,0,1-29.13,2.95c-9.79.21-21.15-1.19-26.41-9.45-6.92-10.85,1.06-26.92-6.48-37.34-4.14-5.74-11.65-7.74-17.47-11.77-6.28-4.35-10.58-11.13-13.14-18.33s-3.5-14.86-4.18-22.47Z"></path>
    <path data-name="3b" data-official="" data-plain="Stamen" data-loc="" d="M1765.12,2672.28a50,50,0,0,1-11-14.6c-3.19-6.25-5.34-13.23-4.78-20.22s4.18-14,10.31-17.37c5.18-2.86,11.41-2.94,17.31-2.48,4.75.36,9.6,1.06,13.75,3.39,4.64,2.61,8,7.06,10.42,11.8a47.87,47.87,0,0,1,3.62,33.56c-1.23,4.68-3.19,9.19-4,14-1.37,8.54,1.11,17.17,2.89,25.64s2.76,17.74-1.28,25.4-12.29,12.08-20.71,13.51-17,.22-25.46-1.21c-3.34-.57-6.89-1.27-9.34-3.62-3.54-3.37-3.62-8.89-3.34-13.77.52-9,1.92-18.93,8.77-24.81,2.83-2.42,6.34-3.91,9.3-6.16a22.52,22.52,0,0,0,8.39-21.21Z"></path>
    <path data-name="3c" data-official="" data-plain="Pistil and Ovary" data-loc="" d="M1654.34,2658.69c-7.82-14.92-15.78-30.28-17.72-47s3.44-35.41,17.49-44.71c4.11-2.71,9.05-4.8,11.38-9.13,2.51-4.66,1.19-10.47,2.75-15.53,2.16-7,9.27-11.18,16-14.1,5.74-2.48,12.56-4.52,18-1.46,6.09,3.42,7.53,11.55,7.12,18.51s-1.91,14.26.76,20.71c1.67,4,4.81,7.25,7.62,10.6,5.57,6.63,10.22,14.59,10.37,23.25.09,5.42-1.59,10.73-3.62,15.76a114,114,0,0,1-8.76,17.33c-6.16,10-14,19.35-16.55,30.79a36.47,36.47,0,0,0,5.79,28.6c3.91,5.49,9.49,10.14,11.16,16.68,1.95,7.59-2.24,15.75-8.45,20.54s-14.08,6.81-21.79,8.22-16.08,2.29-23.65-.19-14.29-9.11-14.57-17.07c-.45-12.85,14.72-21.61,15.92-34.41.6-6.39-2.44-12.51-5.49-18.16Z"></path>
    <path data-name="3d" data-official="" data-plain="Section" data-loc="" d="M1554.75,2665.68a83,83,0,0,1-26.08-60.81c.06-6.28,1-13,5.31-17.61,5.91-6.4,16.72-7.22,21.29-14.64,6.53-10.61-4.73-25.94,2.11-36.36,4.08-6.21,12.57-7.35,20-7.73,4.61-.24,9.3-.4,13.74.83s8.67,4.09,10.42,8.35c1.66,4,.92,8.57.16,12.84l-3.57,20.06a19.7,19.7,0,0,0-.39,7c1.8,9.64,15.76,11.55,20.42,20.18,2.23,4.14,1.92,9.13,1.56,13.82-1.13,14.37-2.32,29-7.7,42.39-2.25,5.62-5.27,11.14-5.54,17.18-.36,8.16,4.36,15.63,9.49,22s11,12.43,13.69,20.13a28.56,28.56,0,0,1-6.45,28.79c-4.24,4.31-9.77,7.13-15.45,9.18a73.94,73.94,0,0,1-30.89,4.13c-5.47-.44-11-1.55-15.69-4.45s-8.27-7.89-8.41-13.37c-.29-11.59,14-19.63,13.75-31.21a26.94,26.94,0,0,0-2.18-8.73l-7.43-19.9Z"></path>
    <path data-name="3e" data-official="" data-plain="Cross section" data-loc="" d="M1437.51,2709.93c-7.49-13.1-15.25-27.67-12.4-42.49a39,39,0,0,1,5.16-12.87c11.7-19.17,36.43-28.46,58.51-24.33,5.76,1.08,11.53,3.05,16,6.89s7.25,9.31,9.38,14.82c7,18,7.63,39.94-4.06,55.33-1.69,2.23-3.69,4.44-4.12,7.21a13.46,13.46,0,0,0,.9,6.06c2.84,8.95,6.57,19,2.18,27.27-4.69,8.88-16.18,11.11-26.16,12.34l-11,1.36c-6.67.82-13.61,1.61-19.95-.61s-11.82-8.43-10.85-15.07c.74-5.14,5-9.14,6.24-14.17a13.13,13.13,0,0,0-4.84-13.45Z"></path>
    <path data-name="4" data-official="Adoxa moschatellina" data-plain="Tuberous Moschatell" data-loc="England" d="M791.73,1944.53c1.06-11.61-1.36-23.54,1.44-34.85.8-3.24,2.39-6.75,5.56-7.8a9.57,9.57,0,0,1,6.3.63c8.05,3,14.36,9.61,18.9,16.92s7.54,15.46,10.87,23.4A294.37,294.37,0,0,0,853,1979.08c5.78,9.77,12.24,19.51,14.42,30.66l.46,8.37c2.17,5.78.85,12.3-1.48,18s-5.63,11-7.6,16.86c-3.12,9.31-2.68,19.38-2.26,29.19.23,5.2.43,10.47-.73,15.54-3.18,13.85-15.55,23.24-24.65,34.15a164.74,164.74,0,0,0-12.43,17.84c-8,12.59-16,25.26-21.92,38.95l-8.42,4.93c-28.37,17.09-55.46,34.47-64.82,66.25-3.61,12.25-4.43,25.33-9.5,37-6.95,16.11-21.24,28.12-28.63,44-1.46,3.17-2.67,6.56-2.58,10a21.19,21.19,0,0,0,3,9.58c4,7.22,10,13.07,14.65,19.85s8,15.29,5.71,23.18a22,22,0,0,1-9,11.6,28.14,28.14,0,0,1-17.66,4.67c-12.36-.92-25.52-9.75-36-3.19-7,4.37-8.89,14.42-5.7,22s10.34,12.93,18,16.14,15.82,4.63,23.79,6.76a137.28,137.28,0,0,1,36.36,15.6c11.23,6.88,22.28,16.83,23.53,29.95,1.49,15.7-11.88,29.19-26.26,35.69-8.37,3.79-18.56,5.94-26.47,1.26-6.8-4-10.32-12.21-17.12-16.23-13-7.66-30.73,3.17-44.33-3.35-6.28-3-10.35-9.18-15.58-13.81s-13.46-7.62-18.95-3.31c-2.52,2-3.84,5-5.54,7.74-5.43,8.66-16.12,14.13-26.15,12.17s-18.16-12.08-16.72-22.2c1.06-7.49,6.53-13.46,10.39-20s5.85-15.65.58-21.09l-3.59-6.57a22,22,0,0,0-20.51-7.81c-11.08,1.89-19.29,12-30.3,14.28-11.59,2.39-23.22-4.63-31.1-13.46s-13.35-19.59-21.25-28.4c-30.65-34.24-88.72-31-120-64.68-16.78-18.09-22.65-43.84-23.74-68.49-.72-16.37.38-32.91,4.5-48.77,2.83-10.88,7.54-22,16.74-28.45s23.85-6.08,30.07,3.28c5.55,8.37,2.53,19.42.44,29.24a129.47,129.47,0,0,0-2.8,29.64c.13,6.27.73,12.59,2.79,18.52,3.92,11.33,12.82,20.26,22.46,27.37,31.18,23,73.26,31.9,97,62.54,3.8,4.92,7.06,10.34,11.69,14.49s11.14,6.92,17.1,5.14c9.86-2.94,13.18-16,22.44-20.5l1.19-7.07c-25.93-27.34-42.15-62.29-56.77-97-27.83-66.06-51.62-134-67.13-204-4.3-19.38-8.14-39.38-18.6-56.25l-5.66-6.22c-16.18,2.8-28.85,16-44.77,20-6.58,1.66-13.44,1.69-20.22,1.61q-22.16-.24-44.26-1.78c-9.82-.68-19.87-1.61-28.82-5.71-21.35-9.77-31.42-37.12-24.79-59.64,3.77-12.77,11.82-23.76,19.72-34.47l23.24-31.46c2.79-3.78,5.68-7.77,6.34-12.43,1.36-9.54-6.68-17.42-12-25.44a51,51,0,0,1-8.42-30.64c.21-4.21,1-8.44.39-12.62s-2.78-8.48-6.7-10l-1.83-12.06c-3-6.59-7.6-12.28-11-18.67s-5.42-14.09-2.75-20.8c4.18-10.47,17.2-13.62,28.34-15.34l40.73-6.31c8.61-1.34,17.28-2.68,26-2.43a75.26,75.26,0,0,1,27.13,6c3.14,1.33,6.3,2.89,9.71,3,7.14.19,12.64-5.87,18.79-9.51,14.58-8.61,33.12-3.5,49.88-5.85a21.51,21.51,0,0,0,8.17-2.52c6-3.62,8.12-11.23,8.76-18.19,1.76-19.1-3.76-39.23,3.26-57.08,7.54-19.18,27.94-30.5,48.15-34.57,12-2.4,24.65-6.77,36.15-2.68s27.63,8.19,30.84,20l4.19,8.42c-.7,18.48-1.39,37.09,1.44,55.37s9.45,36.4,21.76,50.2l3.33,3.51q12.36,11.91,23.7,24.81a58.06,58.06,0,0,1,5.9,7.57,62.75,62.75,0,0,1,5.38,12.27c2,5.77,4.12,11.6,4.91,17.67s.25,12.5-2.69,17.87a11.06,11.06,0,0,1-5.36,5.27c-2.68,1-5.7.4-8.53.89a20.85,20.85,0,0,0-6.62,2.79q-9.18,5.21-18,10.93a44.57,44.57,0,0,0-7.3,5.47,24.11,24.11,0,0,0-6.78,12.62l-4.09,6.84L565,1891.38q-9.48,108-19,216c-2.82,32.12-5.63,64.65-.42,96.47,2.61,15.88,7.18,31.37,12.11,46.69A983.63,983.63,0,0,0,596,2350.41l9.93-5.76c25.73-17.34,49.09-40.56,58.5-70.13,3.48-10.94,4.95-22.43,8.16-33.45A110.75,110.75,0,0,1,710.75,2185c10.1-7.84,21.5-13.86,31.85-21.37,18.44-13.38,33.14-31.17,47.62-48.76,17-20.7,34.9-43.33,36.56-70.1,1.75-28-14.67-53.64-30.42-76.92Z"></path>
    <path data-name="4a" data-official="" data-plain="Flower, magnified" data-loc="" d="M186,2678.06c-9.51-7.77-15.15-20.53-13.06-32.64s12.57-22.66,24.83-23.49c8.66-.59,18.59,3,25.33-2.48,2.47-2,4-4.93,5.68-7.62,3.57-5.68,8.44-10.83,14.71-13.24,8.51-3.26,18.29-1,26.2,3.57s14.43,11.06,21.36,17a11.7,11.7,0,0,0,4,2.54c1.8.54,3.74.21,5.62,0,8.44-.74,16.93,2.13,24,6.75s13,10.9,18.3,17.51c2.92,3.64,5.82,7.7,6,12.36.19,3.91-1.56,7.66-3.69,10.95a46.79,46.79,0,0,1-30.64,20.39c-1.79,12.39-3.67,25.1-9.71,36.07-2.12,3.85-4.72,7.43-6.68,11.36-5.4,10.81-6.08,24.35-14.77,32.75-5.79,5.59-14.05,7.72-22,8.89a130.44,130.44,0,0,1-30,.92c-5.31-.44-10.69-1.24-15.54-3.48s-9.15-6.07-10.94-11.1c-3.86-10.88,4.74-23.66-.2-34.09-1.43-3-3.88-5.47-5.49-8.4-2.92-5.33-2.83-11.72-3.36-17.77s-2.12-12.65-7.08-16.16Z"></path>
</svg>
