
<svg xmlns="http://www.w3.org/2000/svg" viewBox="0 0 2054 2529" id="illustration" preserveAspectRatio="xMidYMid meet">
    <title>Loranthaceæ</title>
    <path data-name="1" data-official="Loranthus Evenius" data-plain="" data-loc="Java" d="M737.19,2016.39C703,2088.83,669.42,2161.6,640,2236.08c-15.87,40.09-30.78,82.48-26,125.34,1.2,10.8,3.64,21.8,1.27,32.41A36.63,36.63,0,0,1,552,2410.1c-7.06-8-10.26-18.56-14.36-28.41-6.62-15.87-16-30.53-21.89-46.69-11.75-32.3-8.62-68.38.94-101.4,5-17.38,11.76-34.21,18.48-51,17.26-43.18,34.59-86.49,57.14-127.17a556.4,556.4,0,0,1,104.49-134.59l24.26,1.24c4.15-.57,8.54-1.23,11.8-3.86,2.95-2.39,4.53-6,6.16-9.47,9.07-19.07,22.9-35.42,37-51.1q28.79-31.91,60.09-61.4c2.71-2.56,5.67-5.74,5.11-9.42a17.9,17.9,0,0,0-1.56-4.12,16.2,16.2,0,0,1-.61-10.79l1.2-4.19c25-32.07,38.21-71.58,50.7-110.3,3.7-11.45,7.45-23.06,14-33.18l5-6.23c3.5-9.2-.41-19.83-6.9-27.22s-15.23-12.36-23.42-17.81c-30.36-20.2-54.57-48.25-77.19-76.85l-1.77-7.28-6.9-14.8c-1.87-4-3.76-8.08-4.62-12.42-1.14-5.8-.41-11.86-1.73-17.62-1.08-4.73-3.5-9-5.89-13.25l-38.76-68.62a102.74,102.74,0,0,0-8.11-12.83c-8.3-10.66-20.71-18-27.31-29.77,17,2.62,34,5.25,50.48,10.29s32.34,12.58,45.16,24a180.18,180.18,0,0,1,15.53,16.44l19.9,22.92,22.17,4.14a253.09,253.09,0,0,1,31.62,41.24c4.26,7,8.15,14.22,12,21.44l10.54,19.59c7.13,13.24,14.34,26.7,17.47,41.4a187.26,187.26,0,0,0,5-34.87c.27-5.71.28-11.45,1.06-17.12a148.28,148.28,0,0,1,3.28-15.13,422.5,422.5,0,0,0,12.23-98.3l2.28-7.68c-.5-13.65-2-27.39-6.31-40.35-3.8-11.39-9.71-21.94-15.58-32.42l-1.55-6.38a32.49,32.49,0,0,0-12.7-11.53l-6.34-4.17c-7.7-5.63-18.38-2.86-27.58-.32a281.46,281.46,0,0,1-128.27,4.9c-12.9-2.51-25.61-5.94-38.59-8-8.85-1.37-17.78-2.08-26.64-3.27-14.14-1.9-28.09-5-42-8.11l-17.55,10.85a48.37,48.37,0,0,1-33.56-14.57c-1.49-1.55-2.89-3.2-4.51-4.6a31.69,31.69,0,0,0-11.21-5.75,68.23,68.23,0,0,0-41.41.15l-20.74,12.4a136.48,136.48,0,0,1-44.85,1.67c-4.79-.62-10.57-2.45-11.39-7.21-.53-3.07,1.37-6,3.32-8.43a77.59,77.59,0,0,1,51.05-28.13l6.52,1.11q9-4.2,18.35-7.6a34.59,34.59,0,0,1,7.26-2c3-.38,6,0,8.94-.37a20,20,0,0,0,15-10l6.07-5.62c9.94-8.22,23-12,35.82-12.82s25.74,1.12,38.45,3.24l3,4.5c9.67-4.81,21-5.08,31.72-3.92s21.35,3.67,32.14,4.08c8.34.32,16.7-.62,25-.1,20.87,1.31,40.07,11.61,60.52,16a25.31,25.31,0,0,0,8.43.74c5-.62,9.18-3.73,13.16-6.73l5.52-3.72c14.18,6.1,31,4.06,44.82,10.83,5.45,2.66,10.19,6.58,15.53,9.45s11.74,4.66,17.46,2.64a6.07,6.07,0,0,0,3.09-2.09c1.14-1.66.8-3.88.42-5.86l-15.41-79.75c-2.1-10.85-4.22-21.77-8.19-32.08-3.61-9.37-8.81-18.52-9-28.56-.07-3.39.42-6.86-.54-10.11-1.25-4.23-4.74-7.35-8.07-10.24l-26-22.48L844.13,993a36.27,36.27,0,0,0-24.47-23.07,38.48,38.48,0,0,1-5.3-1.58c-4-1.75-6.71-5.55-8.18-9.62S804.37,950.29,804,946a21,21,0,0,0-8.53,2.78,4,4,0,0,0-1.92,1.92c-.34.92,0,2-.26,2.91a5.29,5.29,0,0,1-2.61,2.87,98.33,98.33,0,0,1-44.79,15.23,6.67,6.67,0,0,0-2.51.52,7.6,7.6,0,0,0-2.26,2.19,25.11,25.11,0,0,1-10.07,7.42L719,991.38a66.55,66.55,0,0,1-28.5,12.22l-9-.79q-42.62,7.26-85.52,12.55l-1.74,3.63a10,10,0,0,1-7.51,5.17l-9.23,2.41c-27.25,1.41-53.74,9.78-80.95,11.83l-7.29,1.23A109.39,109.39,0,0,0,448,1044.9c-1.32.43-2.63.89-3.93,1.35l-8.92,7.11a81.86,81.86,0,0,1-11.64,4.35l-9.52,2.47c-7,4.33-15.64,4.78-23.87,5.11-5.29.21-11.14.24-15.16-3.21A12.73,12.73,0,0,1,371,1051a19.72,19.72,0,0,1,5.36-10.8l6.34-6.56c17.18-10,31.14-24.49,46.05-37.6a345.85,345.85,0,0,1,127.45-71l14.42-.25c19.28-7.51,40.06-10.26,60.68-11.94,3.46-.28,7.41-.8,9.34-3.68l5.09-2.49a167.59,167.59,0,0,1,38.9,0c3.58.42,7.14,1,10.72,1.38,7.76.92,15.56,1.31,23.36,1.71l13.69.69,4.41,2a156,156,0,0,0,23.91,15.18,48.21,48.21,0,0,1,5.39,3c.81.55,1.58,1.16,2.43,1.65a18.88,18.88,0,0,0,2.28,1.06l6,2.47a53.38,53.38,0,0,0,8.1,2.86c6.09,1.43,12.44.65,18.64-.13l.82-.56c-1-2.22-2.2-4.63-4.44-5.59a13.49,13.49,0,0,0-3.41-.68c-5.1-.72-9.7-3.35-14.1-6a433.49,433.49,0,0,1-36.21-24.48l-7.06-1.75A124.62,124.62,0,0,0,681.85,884l-4.75-.74q-11.7-4.4-23.3-9c-5.16-2.06-10.44-4.25-14.48-8.08-8.27-7.85-9.48-20.69-16.22-29.9-5.78-7.92-15-12.38-23.57-17.17a204.7,204.7,0,0,1-68.31-62.43L519,744c-23.63-37-30.21-82.64-52.51-120.44-6.52-11.06-14.32-21.31-22.1-31.52q-12.62-16.61-25.25-33.19c-17.48-23-35.73-46.63-61.08-60.47l-7.1-13a45,45,0,0,1-1.62-33.89c3.87-10.78,11.88-20.05,13.7-31.36.35-2.22.43-4.63-.7-6.58a11.16,11.16,0,0,0-4.32-3.69C344.36,402,328.83,397.68,315.72,389s-23.89-24.05-20.33-39.37c2.55-10.93,11.64-19,20.75-25.56,18.11-13,38.45-23.25,54.18-39.05,8.32-8.35,15.35-18.25,25.35-24.47,11.7-7.27,26.11-8.64,39.87-8.16a173.08,173.08,0,0,1,79.35,22.53l15.68,2.75c14-6,30.11-4.14,44.95-.64,13.82,3.26,27.51,7.93,39.21,16,7.22,5,13.53,11.12,19.81,17.23l19.93,19.44c.27-16.05.54-32.1,1.2-48.14.37-8.9.94-18.1,5-26a15.33,15.33,0,0,1,4.1-5.32,16.52,16.52,0,0,1,7.15-2.77c9.13-1.72,19.05-.44,26.74,4.78,8.73,5.92,13.56,15.92,19.73,24.48,7.84,10.85,18.2,19.7,26.05,30.55s13.1,25,8.71,37.62a892.7,892.7,0,0,1,91.76-28.39c1.7-.42,3.53-.92,4.63-2.29a7.84,7.84,0,0,0,1.31-3.18c6-25.13,2.56-52.28,11.83-76.4l1.83-10.84,18.43-37.32c1.73-3.5,3.51-7.07,6.34-9.76,5.43-5.15,14.16-6,21-2.88s11.67,9.71,13.72,16.91c1.09,3.83,1.86,8.42,5.4,10.25,1.85.95,4,.88,6.11.78l39.66-1.85c4.35-14.34-7.12-28.22-17.69-38.85q-13-13-25.94-26.06c-4.65-4.68-9.61-10.07-9.66-16.66-.07-8.24,7.55-14.39,15-18,25.74-12.54,58.28-9.73,81.47,7,6.7,4.85,16.81,10.49,21.87,4,2.44-3.14,1.94-7.57,1.38-11.51a373.93,373.93,0,0,1-3.7-50.7c-.06-12.94,1.64-27.92,12.49-35s26.18-2.06,35,7.46,12.83,22.36,17.19,34.57C1116,93.9,1135.41,132.49,1128.56,172c35.92-29.8,74.13-58.19,118.12-73.78s95-17,135.68,5.79c18.13,10.15,35,27.68,33.93,48.44-.72,14.64-10.22,29.34-5,43,1.72,4.53,4.91,8.33,7.35,12.52a42.09,42.09,0,0,1-40.86,63.07l-12.09-1.55c-28.55-6.08-60-11.77-85.56,2.44-11.68,6.51-20.86,16.64-29.81,26.58l-49,54.45c-11.81,13.11-23.73,26.32-38,36.63-20,14.35-43.65,22.43-67.21,29.39-3.75,1.1-7.66,2.28-10.44,5-2.19,2.16-3.45,5.07-4.63,7.91q-13.11,31.41-23.75,63.79l32.31-.83c4.49-.12,9.09-.25,13.27-1.9,3.92-1.54,7.22-4.3,10.47-7a653.59,653.59,0,0,1,127.54-82.67c6.65-3.28,14.79-6.41,21.11-2.52,4.23,2.6,6.28,7.81,6.39,12.78s-1.44,9.8-3,14.53l-7.62,8c-2.07,6.09-7.8,10.16-11,15.72-2.25,3.84-3.24,8.26-4.63,12.49-6,18.22-19.68,32.73-29.61,49.15-1.88,3.12-3.7,6.6-3.21,10.21.65,4.78,5.11,8.09,9.5,10.08a44,44,0,0,0,16.27,3.85l15.28,1.2a171.81,171.81,0,0,1,17.09,5.51,86.76,86.76,0,0,1,48.19,49.23l4.33,12.39a117.44,117.44,0,0,1,6.94,23.14c1.77,9.22,1.58,20.56-6.23,25.77-6.55,4.38-15.67,2.13-22-2.52s-11-11.26-16.71-16.67c-11.87-11.21-28-16.7-43.83-20.5-31.79-7.62-64.6-9.65-97.22-11.65a14.84,14.84,0,0,0-6.2.49,16,16,0,0,0-4.78,3.41c-14.91,13.37-33.7,21.81-53,27s-39.34,7.41-59.24,9.57l-9.78,8.5q-3.22,11.84-6.44,23.67a36.85,36.85,0,0,0-1.76,10.16c.06,3.45,1.23,7,3.86,9.27a15.45,15.45,0,0,0,7.16,3c5.84,1.16,11.83,1.26,17.73,2,15.52,2.09,30,9,43.25,17.42,4.26,2.72,8.61,5.68,13.62,6.34,3.86.5,7.75-.42,11.5-1.49,13.09-3.75,26.07-9.46,39.67-8.73l12.42,2.68c8.78-.64,17.6-2,25.83-5.07,4.46-1.7,8.72-3.92,13.21-5.52A63.48,63.48,0,0,1,1203,703a82.41,82.41,0,0,1,9.43-.36c3.19.06,6.59.4,9.1,2.38s3.48,6.16,1.18,8.37l-11.26,8.29a48.38,48.38,0,0,0-14.41,2.26c-10.3,3.6-17.83,12.32-24.84,20.69l-3.68,9a18.17,18.17,0,0,1-3.6,4.56l-5.43,5.53-16.6,18.94c-7,2.26-12.72,7.41-17.82,12.75a228.2,228.2,0,0,0-18.32,22c-10.32,13.88-19.91,28.85-34,38.84l-7.14,15.81c-23,25.21-53.85,42.45-86.35,52.9-6.7,2.16-14.34,4.77-17,11.29-1.16,2.84-1.15,6-1.12,9.06l.67,72.74,2.59,9.11c1.79,20.9-.48,41.92-.44,62.89.06,26.1,3.69,52.06,7.88,77.83a240.59,240.59,0,0,1,17-24.45c6.3-8,13.11-15.56,18.64-24.08,8-12.34,13.07-26.29,18.09-40.1l6.73-5.8c4.25-2.07,8.61-4.23,11.78-7.75a33.09,33.09,0,0,0,4.21-6.36,145.3,145.3,0,0,0,9.76-22.12c1.24-3.57,2.34-7.2,3.9-10.64,2.11-4.63,5.06-8.88,6.78-13.68,3-8.41,2.1-18,6-26l3.43-11.62c6.52-11,10.56-23.57,18.4-33.72a96.35,96.35,0,0,1,13-13.15c8.36-7.34,17.07-14.38,26.8-19.79s20.54-9.15,31.66-9.51c3.78-.13,7.59.14,11.35-.3,11.42-1.33,22.19-9.06,33.46-6.8-7,5.7-10.07,14.8-12.81,23.41a33.93,33.93,0,0,0-2,9.18,11.55,11.55,0,0,0,3,8.66l1.78,14.11a189.88,189.88,0,0,1-.77,32.43c-.79,7.24-2.36,15.09-8,19.74l-4,6.77a38.21,38.21,0,0,1-11.25,11.64c2.19,5-.6,10.71-3.44,15.39a316.87,316.87,0,0,1-33.93,46L1125.27,1107c-3.27-.51-6,2.34-8.07,4.91l-4.08,5.07a78.23,78.23,0,0,0-5.9,8c-1.49,2.47-2.69,5.1-4.21,7.54a68.18,68.18,0,0,1-4.4,6c-7.85,10-15.75,20-24.95,28.74l-4.63,5.25a19.36,19.36,0,0,1-5.11,11.85l-8.64,5.81c-5.24,3.74-11.44,5.84-17.49,8.06-9.23,3.37-18.33,7.1-27.43,10.83a132.25,132.25,0,0,0-15,6.87c-2.87,1.61-5.73,3.56-7.28,6.47s-1.57,6.34-1.55,9.62l.22,62.66-1.2,8.65c-.45,4.06-1.41,8-2,12.09-1.78,13,.57,26.11,2.91,39l2.86,15.71,10.78,13.57c4.56,1.06,8.42,4.24,11.11,8.08a44.35,44.35,0,0,1,5.68,12.78,131.56,131.56,0,0,1,4.59,21.13l-1.63,4.67a8.33,8.33,0,0,0,0,6l1,4.71a63.24,63.24,0,0,1,6.6,23.1c.66,7.58,0,15.33,1.71,22.73l2.69,4.42c8.32-7.64,16.69-15.32,26.24-21.33,3.59-2.26,7.67-4.7,8.68-8.82l3.83-4.41c16.72-10.6,33.5-21.24,51.41-29.69s37.07-14.72,56.82-16.09l13.33,5.48a101.75,101.75,0,0,1,27.48-6.76c4.07-.41,8.39-.66,11.74-3s5.3-6.73,8.87-9l6.85-5.54a307,307,0,0,1,64.06,4.55c3.1.55,6.4,1.25,8.63,3.47a10.73,10.73,0,0,1,2.8,7.07c.28,5.74-2.69,11.29-6.89,15.21s-9.51,6.44-14.89,8.47c-14.89,5.62-31.19,8.22-44.4,17.1-6,4.06-11.26,9.34-17.67,12.79l-5.61,2.06c-7.72,1.59-14,7-19.7,12.5q-8,7.66-15.46,15.89l-3.54,6.51a6.34,6.34,0,0,1-3.82,3.19l-5,.91a136.27,136.27,0,0,1-30.89,23.38l-3.89,9.65a107.86,107.86,0,0,1-61.7,25.76l-9-1.28a72,72,0,0,1-36.6,6l-6.59,10.5c5.45,13.84,10.3,28.23,10.47,43.11s-5,30.45-16.58,39.79l-2.47,7.88c6.17,7.2,11.72,15.35,13.44,24.67,2.53,13.76-3.64,27.53-10.38,39.78-3.73,6.77-7.9,13.65-14.29,18-10.07,6.83-23.3,6-35.42,4.86-7.3-.67-14.93-1.45-21.08-5.46-1.58-1-3.1-2.29-5-2.64a9.92,9.92,0,0,0-4.35.4c-18.57,4.88-32.06,20.47-44.32,35.25L874,1821.5l-9.34,4.93c-13.8,4.14-23.82,15.78-33,26.87l-30.29,36.49c-12.08,14.55-24.23,29.19-33.62,45.6-2.65,4.63-5.11,9.44-8.67,13.41a10.73,10.73,0,0,0-2.19,3c-.74,1.81-.26,4-1.05,5.74s-2.61,2.8-4.17,4a19.63,19.63,0,0,0-7.71,17.14Z"></path>
    <path data-name="2" data-official="Loranthus formosus" data-plain="" data-loc="Java" d="M737.19,2016.39l6.73-37.78a19.63,19.63,0,0,1,7.71-17.14c1.56-1.16,3.38-2.18,4.17-4s.31-3.93,1.05-5.74a10.73,10.73,0,0,1,2.19-3c3.56-4,6-8.78,8.67-13.41,9.39-16.41,21.54-31.05,33.62-45.6l30.29-36.49c9.21-11.09,19.23-22.73,33-26.87l9.34-4.93,3.56,14.31c26.85,36,41.5,79.94,47.94,124.38s5,89.6,2.33,134.42a2333.79,2333.79,0,0,1-26.43,236.3c-2.27,13.89-4.84,28.18-12.48,40s-21.71,20.62-35.49,17.81c-25.51-5.22-34.92-44.34-60.94-45.33-8.3-.32-16.08,3.64-24.12,5.73s-18,1.61-22.81-5.19c-2.95-4.19-3.09-9.68-3.13-14.8l-.25-37.63c0-6.36-.17-13-3.37-18.54-2.24-3.86-5.79-6.75-8.66-10.17-15.48-18.38-8.51-45.84-2.66-69.14A428.88,428.88,0,0,0,737.6,2041ZM422.69,1075.7a264,264,0,0,0,82.18,110l14.76,9,6.52,1.11q9-4.2,18.35-7.6a34.59,34.59,0,0,1,7.26-2c3-.38,6,0,8.94-.37a20,20,0,0,0,15-10l6.07-5.62-4.67-15.64c-16-40.39-33.15-82.34-65.68-111.15l-14.86-5-7.29,1.23A109.39,109.39,0,0,0,448,1044.9c-1.32.43-2.63.89-3.93,1.35l-8.92,7.11a81.86,81.86,0,0,1-11.64,4.35Zm89.42-311.09c-1.24,22.52-1.65,45.6,5.37,67,4,12.34,10.44,23.75,15.72,35.62,6.88,15.47,11.85,31.71,16.81,47.9l6.18,9.9,14.42-.25c19.28-7.51,40.06-10.26,60.68-11.94,3.46-.28,7.41-.8,9.34-3.68l5.09-2.49,1-11q-2-8.74-4.59-17.33l-2.82-12.22c-8.27-7.85-9.48-20.69-16.22-29.9-5.78-7.92-15-12.38-23.57-17.17a204.7,204.7,0,0,1-68.31-62.43L519,744ZM736.8,912.51a156,156,0,0,0,23.91,15.18,48.21,48.21,0,0,1,5.39,3c.81.55,1.58,1.16,2.43,1.65a18.88,18.88,0,0,0,2.28,1.06l6,2.47a53.38,53.38,0,0,0,8.1,2.86c6.09,1.43,12.44.65,18.64-.13l.82-.56c-1-2.22-2.2-4.63-4.44-5.59a13.49,13.49,0,0,0-3.41-.68c-5.1-.72-9.7-3.35-14.1-6a433.49,433.49,0,0,1-36.21-24.48l-7.06-1.75-.16,3.44-.68,4Zm112.9,90.74L844.13,993a36.27,36.27,0,0,0-24.47-23.07,38.48,38.48,0,0,1-5.3-1.58c-4-1.75-6.71-5.55-8.18-9.62S804.37,950.29,804,946a21,21,0,0,0-8.53,2.78,4,4,0,0,0-1.92,1.92c-.34.92,0,2-.26,2.91a5.29,5.29,0,0,1-2.61,2.87,98.33,98.33,0,0,1-44.79,15.23,6.67,6.67,0,0,0-2.51.52,7.6,7.6,0,0,0-2.26,2.19,25.11,25.11,0,0,1-10.07,7.42L719,991.38l2.29,6.07-1.72,32.45a24.78,24.78,0,0,1-1.08,7.13,12.42,12.42,0,0,1-4.1,5.66,4.28,4.28,0,0,1-2.94,1.12c-1.52-.17-2.54-1.6-3.34-2.9a318.14,318.14,0,0,1-17.63-32.8l0-4.51-9-.79q-42.62,7.26-85.52,12.55l-1.74,3.63a10,10,0,0,1-7.51,5.17l4.5,13a468.38,468.38,0,0,0,55.25,112l9.55,11.5,3,4.5c9.67-4.81,21-5.08,31.72-3.92s21.35,3.67,32.14,4.08c8.34.32,16.7-.62,25-.1,20.87,1.31,40.07,11.61,60.52,16a25.31,25.31,0,0,0,8.43.74c5-.62,9.18-3.73,13.16-6.73l5.52-3.72-4.3-8.48q10.44-70.26,17.79-140.94Zm-47.29,492.88-1.77-7.28-6.9-14.8c-1.87-4-3.76-8.08-4.62-12.42-1.14-5.8-.41-11.86-1.73-17.62-1.08-4.73-3.5-9-5.89-13.25l-38.76-68.62a102.74,102.74,0,0,0-8.11-12.83c-8.3-10.66-20.71-18-27.31-29.77,17,2.62,34,5.25,50.48,10.29,13.41,4.1,26.47,9.89,37.78,18.1v-2.62q3.23-39.94,7.16-79.82v-2.79a279.12,279.12,0,0,1-45-5c-12.9-2.51-25.61-5.94-38.59-8-8.85-1.37-17.78-2.08-26.64-3.27-14.14-1.9-28.09-5-42-8.11l-6.13,12.89a613,613,0,0,1-13.87,78.31c-4.24-3-6.8-7.88-8.12-12.89s-1.55-10.24-2.06-15.4c-1.75-18-6.91-35.41-13.19-52.32l-7.74-14.31c-1.49-1.55-2.89-3.2-4.51-4.6a31.69,31.69,0,0,0-11.21-5.75,68.23,68.23,0,0,0-41.41.15L540,1236.6l18.32,43.85a106.22,106.22,0,0,0-21.94-9.38c-5.76-1.73-11.68-3-17.31-5.08a118.5,118.5,0,0,1-16.52-8.27l-16.88-9.6-9.06-9.64c-4.79-.62-10.57-2.45-11.39-7.21l-17.52-8a342.17,342.17,0,0,1-65.61-51.43c-18-18-34.11-38.2-55.07-52.62s-48.6-22.35-72.07-12.52c-9.32,3.9-17.36,10.33-24.88,17.09a267.81,267.81,0,0,0-49.5,59.67l-13.42,11.1a112.89,112.89,0,0,0-70.85,5.26c-5.25,2.21-10.58,5-13.64,9.83s-3.37,10.81-3.57,16.51c-1.33,37.08-2.19,75.72,13.27,109.45,7,15.2,18.28,29.75,34.34,34.41,25.42,7.38,50-11.94,75.53-19l9.39,74.06c2.73,21.56,6.84,45.58,24.37,58.42-10.45,16.49-34.33,21-43.55,38.2-2.34,4.35-3.58,9.31-6.5,13.29-5.19,7.06-14.5,9.6-23.18,10.82-25.08,3.51-50.73-.13-75.86,3.09s-51.72,15.84-60.29,39.68c-7.16,19.92.08,41.94,8.64,61.3,2,4.46,4.16,9.07,8,12.1,6.67,5.28,16.2,4.3,24.59,2.84a536.42,536.42,0,0,0,75.64-18.85c11.44-3.75,23.09-7.94,35.12-7.51,20,.7,37.05,13.77,52.63,26.25,8.56,6.85,17.78,14.87,18.92,25.77l4.43,14.16c8.3,29.73,18.93,62.53,46,77.37,16.18,8.88,37.43,10.77,48.11,25.83,8.81,12.41,6.81,29.87-.15,43.41s-18.06,24.38-27.71,36.15-18.25,25.57-18.53,40.79c-.29,15,7.71,29.16,18.49,39.55s24.19,17.58,37.48,24.48c21.53,11.18,45.12,22.31,69.06,18.4,14.58-2.38,27.68-10.18,39.73-18.73a294.81,294.81,0,0,0,56.36-52.26c8.07-9.74,15.76-20.57,17.49-33.09,1.69-12.24-2.54-24.47-7.27-35.88a328,328,0,0,0-25.77-50c-5.37-8.47-11.3-16.95-13.36-26.76-2.26-10.74.37-21.88,3.63-32.37,3.89-12.5,8.84-25,17.25-35,7.45-8.89,17.36-15.58,24.14-25a48.63,48.63,0,0,0-24.68-74.77c-6.64-2.12-14.26-3.12-18.77-8.44-6-7.07-3.3-17.73-.32-26.5,1.41-4.15,3-8.54,6.43-11.26,4-3.19,9.6-3.32,14.73-3.31l72.55.15c8.15,0,17.37.5,22.73,6.64,3.48,4,4.48,9.51,5.23,14.75,8.28,58.35,1.23,119.19,19.26,175.3,14.58,45.37,44.81,84.91,56.06,131.22l4,15.59,24.26,1.24c4.15-.57,8.54-1.23,11.8-3.86,2.95-2.39,4.53-6,6.16-9.47,9.07-19.07,22.9-35.42,37-51.1q28.79-31.91,60.09-61.4c2.71-2.56,5.67-5.74,5.11-9.42a17.9,17.9,0,0,0-1.56-4.12,16.2,16.2,0,0,1-.61-10.79l1.2-4.19,2.63-21.28c-10.73-15.43-8.88-35.89-9.88-54.67-1.5-28.42-10.45-55.84-16.18-83.72-5.89-28.69-8.39-58-10.88-87.14Z"></path>
    <path data-name="3" data-official="Viscum album" data-plain="Common Mistletoe" data-loc="Britain" d="M1118.83,706.12c-6.74-11.1-8.09-24.6-8.4-37.59-.18-7.52.35-16,6-21,3.33-2.88,7.81-3.94,12.12-4.79,13.86-2.73,29.42-3.91,41,4.18,7.94,5.55,12.72,14.76,14.86,24.2s2,19.25,1.74,28.93l1.6,6.2c-4.49,1.6-8.75,3.82-13.21,5.52-8.23,3.12-17,4.43-25.83,5.07l-12.42-2.68ZM1069.7,973.46A108.65,108.65,0,0,0,1017,916.32l-6.35-4A234,234,0,0,1,979.26,925c-6.7,2.16-14.34,4.77-17,11.29-1.16,2.84-1.15,6-1.12,9.06l.67,72.74,11.41,6c2.14,3.78,5.87,6.31,9.42,8.81a245.91,245.91,0,0,1,40.1,35.4l9.54,5.22c4.25-2.07,8.61-4.23,11.78-7.75a33.09,33.09,0,0,0,4.21-6.36,145.3,145.3,0,0,0,9.76-22.12c1.24-3.57,2.34-7.2,3.9-10.64,2.11-4.63,5.06-8.88,6.78-13.68,3-8.41,2.1-18,6-26ZM953.77,1355.61l2.28-7.68c-.5-13.65-2-27.39-6.31-40.35-3.8-11.39-9.71-21.94-15.58-32.42l-1.55-6.38a32.49,32.49,0,0,0-12.7-11.53l-6.34-4.17c-7.7-5.63-18.38-2.86-27.58-.32a281,281,0,0,1-83.32,9.93h.07v2.79q-3.93,39.87-7.16,79.82v2.62l.06,0a93.8,93.8,0,0,1,7.32,5.89,180.18,180.18,0,0,1,15.53,16.44l19.9,22.92,22.17,4.14,6.87-7.49c9.29-15.87,7-35.69,4.4-53.9a166.6,166.6,0,0,1,66.7,16ZM1901.24,703c37.42-26.43,63.19-66.16,84.57-106.68,6.22-11.8,12.21-23.92,14.87-37,2.81-13.8,1.78-28,1.28-42.13-.69-19.52-.31-39.34,4.91-58.17,7.15-25.78,23.32-50.06,21.22-76.72-.36-4.56-1.3-9.18-3.66-13.1-4.55-7.57-13.57-11.27-22.27-12.79-24.53-4.29-50,5.21-69.46,20.75s-33.71,36.62-46.14,58.2c-4.76,8.27-9.55,17-17.36,22.45l-7.84-45.59c-.84-4.93-2.17-10.54-6.61-12.84-3.26-1.7-7.18-1-10.86-1.08-13.8-.29-25-11.9-30.66-24.49s-7.5-26.56-12.31-39.51c-13.3-35.75-51.45-60.6-89.52-58.33l-12.68-.22-37.58,15.06C1660,279,1657.9,265.59,1648,259c-5.17-3.46-11.59-4.35-17.79-4.89a219.92,219.92,0,0,0-41.45.33c-12.58,1.3-27,5.13-32,16.74-2.79,6.45-1.91,13.81-2.17,20.84a62.74,62.74,0,0,1-28.26,49.53c-13.53,8.71-29.79,11.77-44.95,17.12S1450.82,373,1445.1,388c-10.95-7.32-24.21-10.17-37.13-12.79-22.94-4.64-46.23-9-69.59-7.53s-47.12,9.48-63.34,26.35l-13.15,6.75c4.23,2.6,6.28,7.81,6.39,12.78s-1.44,9.8-3,14.53l-7.62,8c-2.07,6.09-7.8,10.16-11,15.72-2.25,3.84-3.24,8.26-4.63,12.49-6,18.22-19.68,32.73-29.61,49.15-1.88,3.12-3.7,6.6-3.21,10.21.65,4.78,5.11,8.09,9.5,10.08a44,44,0,0,0,16.27,3.85l15.28,1.2a171.81,171.81,0,0,1,17.09,5.51l13.08-4A154,154,0,0,0,1333,524.73c6.16-3.11,12.23-6.68,19-8.09s13.8-.54,20.6.69a199.59,199.59,0,0,1,40,11.61c3.41,1.39,6.91,3,9.26,5.79,2.15,2.58,3.11,5.93,3.94,9.18,10.36,40.75,8.24,83.5,5.85,125.47-.25,4.43-.53,9-2.46,13-2.94,6.1-9.13,9.83-15,13.21L1371,720.45a11,11,0,0,1-3.38,1.47c-2.44.46-4.86-.75-7-2-10.69-6-20.9-12.87-32.08-17.88s-23.66-8.09-35.7-5.86c-9.86,1.83-18.71,7-28,10.87l-5.71,8.38c-2.43,12.76-11.8,24-11.31,37,0,1.1-.13,2.59-1.23,2.73a2.06,2.06,0,0,1-1.36-.46c-10.25-6.61-16.47-19.29-28.12-22.92l-5.64-10.12a48.38,48.38,0,0,0-14.41,2.26c-10.3,3.6-17.83,12.32-24.84,20.69l-3.68,9a18.17,18.17,0,0,1-3.6,4.56l-5.43,5.53-16.6,18.94c-7,2.26-12.72,7.41-17.82,12.75a228.2,228.2,0,0,0-18.32,22c-10.32,13.88-19.91,28.85-34,38.84l-7.14,15.81,4.9,4.62a81.83,81.83,0,0,0,48.38,34l17.45-2.07c9.72-5.4,20.54-9.15,31.66-9.51,3.78-.13,7.59.14,11.35-.3,11.42-1.33,22.19-9.06,33.46-6.8-7,5.7-10.07,14.8-12.81,23.41a33.93,33.93,0,0,0-2,9.18,11.55,11.55,0,0,0,3,8.66l1.78,14.11a189.88,189.88,0,0,1-.77,32.43c-.79,7.24-2.36,15.09-8,19.74l-4,6.77a38.21,38.21,0,0,1-11.25,11.64c2.19,5-.6,10.71-3.44,15.39a316.87,316.87,0,0,1-33.93,46L1125.27,1107c-3.27-.51-6,2.34-8.07,4.91l-4.08,5.07a78.23,78.23,0,0,0-5.9,8c-1.49,2.47-2.69,5.1-4.21,7.54a68.18,68.18,0,0,1-4.4,6c-7.85,10-15.75,20-24.95,28.74l-4.63,5.25a19.36,19.36,0,0,1-5.11,11.85l1.93,10.58a339.6,339.6,0,0,1-25.53,156.06,271.31,271.31,0,0,0-44.41-40l-10.33-7.72c-.45,4.06-1.41,8-2,12.09-1.78,13,.57,26.11,2.91,39l2.86,15.71,10.78,13.57c4.56,1.06,8.42,4.24,11.11,8.08a44.35,44.35,0,0,1,5.68,12.78,131.56,131.56,0,0,1,4.59,21.13l-1.63,4.67a8.33,8.33,0,0,0,0,6l1,4.71a63.24,63.24,0,0,1,6.6,23.1c.66,7.58,0,15.33,1.71,22.73l2.69,4.42c8.32-7.64,16.69-15.32,26.24-21.33,3.59-2.26,7.67-4.7,8.68-8.82l3.83-4.41,2-11.59c7.55-14.31,15.33-30.28,11.47-46-.61-2.49-1.52-5-1-7.57a16.73,16.73,0,0,1,1.9-4.39c2.64-5,4.34-10.33,6-15.68l9.08-28.66c1.93-6.11,3.87-12.23,5.22-18.49a206.2,206.2,0,0,0,3.2-23.36l5.32-54.39c17,23.08,27.25,51.79,49.7,69.6a21.91,21.91,0,0,1,4.37,4.06c3.15,4.32,2.25,10.4,4.44,15.28s7.37,8.11,9.87,12.94c2,3.92,2.13,8.54,2,13a162,162,0,0,1-6.15,39.49l.83,10,13.33,5.48a101.75,101.75,0,0,1,27.48-6.76c4.07-.41,8.39-.66,11.74-3s5.3-6.73,8.87-9l6.85-5.54,4-7.52c-1.22-22.23,19.35-41.76,16.7-63.87-.34-2.85-1.07-5.65-1.15-8.51-.14-5.42,2-10.6,4.17-15.58l19.25-44.86a40,40,0,0,0,22.72,12.73,7.54,7.54,0,0,1,3.24,1.07c1.92,1.43,1.79,4.26,1.92,6.66.51,9.77,9.39,18.36,19.17,18.55,3.1.06,6.75-.41,8.8,1.92a8.76,8.76,0,0,1,1.62,4c3,13.57,6,27.43,4.61,41.25-.73,7.19-2.65,14.19-3.87,21.31-1.53,8.95-2,18-2.85,27.08-2.57,25.74-9,50.91-15.49,76-.56,2.19-1.24,4.55-3,5.92-1.46,1.1-3.38,1.32-5.2,1.51a598.72,598.72,0,0,0-80.42,14.2l-.7-16.84-1.81-6.32-5.61,2.06c-7.72,1.59-14,7-19.7,12.5q-8,7.66-15.46,15.89l-3.54,6.51a6.34,6.34,0,0,1-3.82,3.19l-5,.91a136.27,136.27,0,0,1-30.89,23.38l-3.89,9.65,4.92,3.63,11.53,7.59a3.8,3.8,0,0,1,1.69,1.77,3.64,3.64,0,0,1-.39,2.44c-2.41,5.67-5.94,10.79-9.44,15.86l-31,44.94a17.4,17.4,0,0,1-2.51,3.09c-3.39,3-8.49,2.89-13,2.56a230.61,230.61,0,0,0-21.09-46.51l-2.33-9.61-9-1.28a72,72,0,0,1-36.6,6l-6.59,10.5c5.45,13.84,10.3,28.23,10.47,43.11s-5,30.45-16.58,39.79l-2.47,7.88c6.17,7.2,11.72,15.35,13.44,24.67,2.53,13.76-3.64,27.53-10.38,39.78-3.73,6.77-7.9,13.65-14.29,18l2.92,16.3a37.21,37.21,0,0,0,6.77,39.75c4,4.27,9.26,7.75,11.51,13.18s1,11.73-.32,17.53l-12.88,57c-6,26.45-9.14,60.3,13.82,74.75,16,10,38.06,5.25,54,15.37,13.11,8.35,18.71,25.17,18.06,40.7s-6.44,30.31-11.6,45a601.4,601.4,0,0,0-30.87,137.52c-1.59,15.31-2.64,30.88-7.75,45.39s-15,28.17-29.35,33.78c-13.47,5.27-28.6,2.79-42.95,4.58-18.82,2.34-38.87,16.61-37.16,35.5,1.77,19.64,25.22,29.77,44.93,29.17s39.39-7.54,58.77-3.94c25.35,4.72,47,27,72.62,23.83,19.44-2.4,33.91-19,44.08-35.72s18.59-35.4,34.09-47.38c11.36-8.78,26.36-13.85,33.67-26.21,10.61-17.95.37-43.85,13.43-60.11,9.79-12.2,27.7-12.83,42.4-18.17,26.58-9.67,43.75-36.45,50.61-63.89s5.33-56.18,5.85-84.47,3.46-57.66,18-81.92c14-23.31,37.2-39.39,55.22-59.76a165,165,0,0,0,30.29-49.75c2.86-7.4,6.43-16.16,14.19-17.77,8.51-1.76,16.07,7.19,16.63,15.86s-3.5,16.87-6.73,24.93c-21.68,54.21-4.54,121.5,40.44,158.73s114.29,41.48,163.49,10l7.64-14.54c4.94-18.42-.73-38.51-11.53-54.23s-26.23-27.66-42.23-38.05c-14.61-9.49-30.43-18.39-40.14-32.86-7.27-10.84-8.94-28.3,2.43-34.7,4.71-2.66,10.42-2.61,15.81-2.21,13.19,1,26.35,3.69,39.54,2.67s27-6.61,33.55-18.1c3.41-6,7.83-14.72,14.21-12.14,2.14.86,3.54,2.89,4.79,4.82,8.06,12.42,15.28,25.43,24.53,37a132.13,132.13,0,0,0,174.46,28.7c6.69-4.29,13.14-9.35,17.23-16.16,5.54-9.2,6.15-20.49,5.78-31.23-.59-17.11-3.4-34.46-11.14-49.74s-20.9-28.35-37.3-33.28c-12.24-3.68-25.31-2.7-38.06-3.42a141.15,141.15,0,0,1-64.16-19.7c-8.22-4.92-16.8-12.41-16.13-22,.72-10.26,11.37-16.35,17.91-24.29,3.64-4.42,6.27-9.85,11-13,6-4,13.73-3.47,20.91-3.46,33.41,0,67.73-16.35,84.06-45.5s10.44-70.49-16.6-90.12l-13.7-7.69-57.6,2.49a9.71,9.71,0,0,1-4-.39c-3.93-1.59-4-7-3.37-11.22q3.56-23.85,8.37-47.49c1.68-8.28,3.53-16.69,7.7-24s11-13.63,19.37-15c14.61-2.47,27.06,9.86,37.23,20.64,17.54,18.6,39.24,36.83,64.81,36.73,26.73-.1,50.22-21.91,57.68-47.58s1.17-53.76-11.4-77.35a156.1,156.1,0,0,0-59-61.21c-4-2.36-8.35-4.65-11-8.47-3.67-5.17-3.63-12.25-1.53-18.23s6-11.11,9.81-16.19a754.28,754.28,0,0,0,66-105.85l10.35-14.93a242.56,242.56,0,0,0,17-170c-1.69-6.25-3.69-12.53-7.31-17.91-11.59-17.18-37.34-19.84-56-10.73s-31.36,26.91-41.61,44.93c-21.52,37.8-35.64,79.4-46.24,121.58-.66,2.63-1.38,5.41-3.33,7.29-5.73,5.57-15.61-.93-23.19,1.62a52,52,0,0,0-24.28-43.74c-5.29-3.25-11.18-5.55-16.08-9.36-10.07-7.83-14.45-20.75-18.33-32.9,35.66-14.77,55-54.73,59.08-93.1,1-9.87,1.14-20.52-4.17-28.9-8.92-14.12-28.46-15.86-45.16-16.1l-71.87-1c15.19-8.44,30.79-17.21,41.64-30.79,12.56-15.72,17.39-36.11,26.9-53.83,22.91-42.72,71.06-66.95,95.44-108.85Z"></path>
    <path data-name="3a" data-official="" data-plain="Cluter of Fruitful Flowers" data-loc="" d="M1261.85,2443.46a61.2,61.2,0,0,1-25.21-30.63,35.75,35.75,0,0,1-2.59-13.55c.27-8.81,5-16.79,9.9-24.15a392.39,392.39,0,0,1,42.23-53.23c2.86-3,5.87-6.09,9.68-7.81,3.62-1.63,7.69-1.93,11.66-1.92,5.3,0,10.81.58,15.31,3.38,3,1.87,5.35,4.6,7.61,7.32a413.86,413.86,0,0,1,40,57.41c3.38,5.85,6.72,12.31,5.83,19-.68,5-3.66,9.4-6.55,13.56l-9.59,13.77c-2.23,3.21-4.5,6.49-5.6,10.25-1.85,6.3-.18,13,.81,19.51a90.83,90.83,0,0,1,.86,19.14c-.2,3.36-.63,6.83-2.36,9.71-2.89,4.79-8.67,6.9-14.08,8.3a127.34,127.34,0,0,1-52.57,2.35c-3-.49-6.12-1.21-8.09-3.47-3.74-4.29-1-10.81-.44-16.47a20.64,20.64,0,0,0-13.45-20.94Z"></path>
    <path data-name="3b" data-official="" data-plain="Single Pistil Flower" data-loc="" d="M1420.05,2442.24a227.51,227.51,0,0,1-3.3-62.29c.92-10.86,3.44-23,12.6-28.89,5.62-3.63,12.68-4.11,19.37-3.87,7,.26,14.08,1.23,20.49,4s12.15,7.63,15,14c3,6.81,2.55,14.59,2,22-1.71,21.56-3.87,43.3-1.12,64.76.92,7.24,2.41,14.47,2.12,21.77s-2.63,14.88-8.11,19.71c-6.39,5.63-15.56,6.44-24.06,7l-17.66,1.14c-4.7.3-10,.41-13.45-2.78-3.78-3.47-3.78-9.33-3.51-14.45l1.77-33.29Z"></path>
    <path data-name="3c" data-official="" data-plain="Stamen Flower" data-loc="" d="M1525,2425.67l-9.55-28.1c-3.21-9.46-6.24-20.56-.66-28.85,4.63-6.87,13.55-9.16,21.71-10.6a313.21,313.21,0,0,1,61.6-4.7,37.14,37.14,0,0,1,11,1.41c10.6,3.52,16.38,15.63,16.16,26.8s-5.1,21.66-9.89,31.76l-14.46,30.47c-2.47,5.21-5,10.5-5.85,16.2-.94,6-.36,12.91-4.71,17.11-2.52,2.43-6.14,3.28-9.57,4-15.82,3.47-33.3,6.72-47.47-1.14a8.82,8.82,0,0,1-5.44-8.69c-.68-12.15,5.18-24.7,1.19-36.21Z"></path>
    <path data-name="3d" data-official="" data-plain="Stamen, magnified" data-loc="" d="M1637.62,2416.93c1.06-13.12,2.19-26.49,7.2-38.66,3.16-7.67,7.79-14.65,11.38-22.12,4.34-9,7.18-18.75,12.4-27.27s13.62-16,23.6-16.53c7.62-.41,15,3.33,20.5,8.63s9.32,12.06,12.79,18.85a272.45,272.45,0,0,1,22.82,62.57c1.81,7.81,3.27,15.8,2.81,23.8s-3,16.1-8.39,22c-3.15,3.48-7.15,6.11-10.27,9.62a26.85,26.85,0,0,0-6.64,15.18c-.43,4.46.16,9.34-2.37,13-2.38,3.48-6.82,4.8-10.93,5.71a159.66,159.66,0,0,1-45,3.49c-6-.39-12.63-1.46-16.4-6.15s-3.34-11.61-.86-17.07c1.74-3.85,4.45-7.59,4.14-11.8-.4-5.47-5.59-9.1-8.92-13.47-4.4-5.76-5.67-13.25-6.8-20.42Z"></path>
    <path data-name="3e" data-official="" data-plain="Seed" data-loc="" d="M1356.59,2305.66c-5-9-8.91-18.68-10.25-28.86s0-20.89,5-29.89a60.1,60.1,0,0,1,10.59-13.41c6.3-6.29,13.5-12,21.95-14.75,9.29-3,19.6-2.29,28.77,1.09s17.28,9.28,24.13,16.25a38.34,38.34,0,0,1,6.79,8.76c4.23,8,3.73,17.54,2.71,26.5-1.54,13.59-4.59,28.17-14.84,37.23-3.41,3-7.63,5.43-9.62,9.51-2.88,5.91-.11,13-1.09,19.5-1.28,8.51-9,14.88-17.32,17.2s-17.1,1.4-25.65.46c-4.76-.52-10.07-1.35-12.93-5.18-4.18-5.59-.55-13.39-.14-20.36A21.44,21.44,0,0,0,1359,2314Z"></path>
    <path data-name="3f" data-official="" data-plain="Section of Fruit" data-loc="" d="M1461.2,2253.46c-1.46-15.57-2.91-31.39,0-46.77s10.67-30.55,24-38.77c8.43-5.22,18.38-7.3,28.14-9.08,13.52-2.47,28.11-4.41,40.47,1.6,13.5,6.56,21.07,21,27.29,34.64,3,6.5,6,13.29,11.56,17.79,8.43,6.85,20.27,6.74,31.06,7.94s23.1,5.56,26.18,16c2.87,9.69-4.19,19.93-13,24.8s-19.22,5.93-29,8.33-20,6.85-24.88,15.73c-1.88,3.45-2.79,7.34-4.33,11-3.16,7.48-8.86,13.61-15,18.92-10.59,9.15-23.16,16.46-36.94,18.86s-28.88-.59-39.41-9.81c-7.74-6.79-12.51-16.3-16.48-25.8a247.45,247.45,0,0,1-10.33-29.91Z"></path>
    <path data-name="3g" data-official="" data-plain="Section of Stem" data-loc="" d="M1809.17,2447.87c-15.35-6.21-26.89-20-32.43-35.65s-5.52-32.78-2.28-49c3.43-17.17,10.52-33.8,21.85-47.15s27.09-23.21,44.37-26c9.37-1.52,18.93-1,28.43-.85,18.71.26,38.53-.87,54.88,8.23,11.83,6.57,20.47,18,25.7,30.43s7.33,26,8.41,39.53c1.39,17.29,1.11,35.09-4.69,51.44s-17.86,31.16-34.24,36.86c-5.59,1.95-11.94,3-15.82,7.51-3.08,3.54-3.89,8.45-4.7,13.06-1.72,9.73-4.4,20.13-12.08,26.34-7.3,5.88-17.47,6.6-26.8,5.73-5.83-.54-11.73-1.64-16.89-4.41s-9.53-7.43-10.88-13.13c-1.14-4.8-.07-9.84-.34-14.77a27.44,27.44,0,0,0-13.24-21.7Z"></path>
    <path data-name="4" data-official="Flower of Loranthus pentrandrus" data-plain="" data-loc="" d="M352.56,2408.06c-3-15.13-15-26.6-26.16-37.26s-22.76-22.76-24.58-38.08c-.86-7.26.59-14.57,2.16-21.7,1.6-7.32,3.36-14.68,6.73-21.37,4.12-8.2,10.54-15.15,14-23.64,3.77-9.15,3.84-19.34,5.71-29.06,4.32-22.45,21.46-44.08,44.24-46,17.36-1.5,33.57,8.3,47.43,18.86,10.52,8,21.16,17.73,23.58,30.73,1.08,5.84.4,11.94,1.9,17.68,1.31,5,4.23,9.46,7.52,13.46,8.61,10.47,19.91,18.37,29.43,28s17.58,22.14,16.93,35.68c-.37,7.84-3.63,15.22-7.06,22.27-3.18,6.53-6.67,13.09-12,18-10.51,9.69-26.34,11.42-37.56,20.28a9.4,9.4,0,0,0-3.1,3.62c-1.37,3.3.72,6.91,2.51,10a73,73,0,0,1,9.41,42.94c-.35,3.75-1,7.58-3,10.8a24.12,24.12,0,0,1-6,6.23c-15.32,11.91-35.9,15.69-55.15,13.25-7.89-1-15.92-3.1-22.16-8-7.45-5.89-11.52-15.23-12.93-24.62s-.46-19,.5-28.41Z"></path>
    <path data-name="4a" data-official="" data-plain="Flower, open" data-loc="" d="M111.82,2447.46q-9.61-24-21-47.22c-5.79-11.8-12.24-23.84-22.75-31.75-12-9-28.93-12.53-36.31-25.58-5.89-10.42-3.2-24.24,4.37-33.51s19.13-14.53,30.84-17,23.78-2.51,35.74-3.16c30.69-1.65,61.05-7.46,91.76-8.81,13.75-.61,27.79-.28,40.87,4s25.23,13,31,25.5c4.23,9.16,4.78,19.54,5.25,29.62,1.13,24.19,2.16,49.13-6.15,71.88-4.42,12.1-11.33,23.11-18.19,34l-23.37,37.15c-5.63,9-11.93,18.47-21.81,22.25-5.4,2.06-11.33,2.17-17.12,2.18q-14.9,0-29.79-.55c-3-.12-6.07-.27-8.84-1.44-3.51-1.49-6.13-4.47-8.54-7.43a175.39,175.39,0,0,1-23.12-37.14Z"></path>
    <path data-name="5" data-official="Section of Fruit of Loranthus chrysanthus" data-plain="" data-loc="" d="M111.86,2217.71A212.17,212.17,0,0,1,86.2,2104.87c.94-17.16,4.44-35.18,15.89-48,9.92-11.1,24.67-16.86,39.39-19.1,16.93-2.58,35.27-.68,49.28,9.18,11,7.71,18.4,19.71,22.41,32.49s4.8,26.36,4.43,39.75c-.46,16.58-2.76,33.42-9.82,48.43a160.66,160.66,0,0,1-11.28,19.19L171.63,2225c-3.58,5.49-7.39,11.2-13.16,14.3-6.92,3.71-15.58,2.91-22.73-.33s-13.09-8.63-18.72-14.1Z"></path>
</svg>
