
<svg xmlns="http://www.w3.org/2000/svg" viewBox="0 0 2056 2793" id="illustration" preserveAspectRatio="xMidYMid meet">
    <title>Rubiaceæ</title>
    <path data-name="1" data-official="Rubia peregrina" data-plain="Wild Madder" data-loc="Britain" d="M1409.21,2444.65c22.52-10.75,42.16-26.85,59.39-44.91s32.18-38.12,47.09-58.13c4.64-6.23,9.43-12.78,10.68-20.44l-.14-10.64c-1.14-3.83,1.16-7.75,3.36-11.09,3.75-5.68,7.58-11.45,12.74-15.89a36.23,36.23,0,0,0,4.7-4.3,24.49,24.49,0,0,0,3.34-6.29c2.18-5.36,4.39-10.76,5.34-16.47,1.38-8.22.19-17.06,3.84-24.56l-4.25-9.12a71.38,71.38,0,0,0-18.15-24.13l-3.94-.79a8.75,8.75,0,0,1-6.89-1.29c-2.07-1.23-3.82-2.93-5.76-4.35a26.09,26.09,0,0,0-13.26-4.89l-3.27-5.16a381.1,381.1,0,0,1,2.22-65.83l.13-.53,7.83.22a11.56,11.56,0,0,1,2.76.3c1.15.3,2.19.95,3.35,1.2a16.08,16.08,0,0,0,2.6.18,13.34,13.34,0,0,1,7.36,2.67l3.78.7a372.42,372.42,0,0,0,41.68,13.79l6-.68a68.66,68.66,0,0,1,13.73,4.27c5.64,2.23,11.3,4.68,16,8.5s8.44,9.22,9,15.26l-1,9.54c-2.84,18.77-5.67,37.57-10,56.05-1.36,5.79-3,11.74-6.67,16.41l-4,2.41c-2.69,1.25-5.5,2.58-7.28,5a17.91,17.91,0,0,0-2.11,4.19l-10.2,25.6a5.79,5.79,0,0,0-.58,2.39,5.87,5.87,0,0,0,1,2.51l5.53,9.53a8.77,8.77,0,0,1,1.29,3.06,7.57,7.57,0,0,1-.76,4,25.52,25.52,0,0,1-3.95,6.47l-.29,6.72c-4.77,5.26-1.83,13.74-3.87,20.54a28.15,28.15,0,0,1-3.8,7.21c-5.89,9-11.79,17.93-18.19,26.54-40.44,54.48-98.69,92.41-154.56,130.9-8.38,5.77-17.25,12.25-20.4,21.92-1.15,3.54-1.45,7.32-2.76,10.81a19.94,19.94,0,0,1-36.73,1.5c-2.34-5-2.53-10.66-2.49-16.15q.08-10.67,1-21.29c.53-5.78,1.3-11.7,4.1-16.79,3.49-6.35,9.73-10.67,16-14.37a180.74,180.74,0,0,1,39.38-17.45ZM1773.54,1907c-4.36-3.37-8-7.59-11.59-11.77-15.37-17.89-31.09-36.35-38.75-58.65l.54-1.46,4.87-6.88a72.12,72.12,0,0,0,4.53-7c2.18-4,3.62-8.45,6.47-12s7.77-6.06,12-4.29l3.89-1.19a16.88,16.88,0,0,0,7.81-8.87c1.21-3.2,1.41-6.69,2.3-10,1-3.83,3-7.35,4.14-11.14s1.5-8.13-.57-11.51l-1.12-4.85,1.67-4.46c5,2.46,9.5,6,14.36,8.78,10.08,5.81,21.88,8.56,31.1,15.65a14.5,14.5,0,0,1,3.91,4.13c.5-3.14-.31-6.32-.92-9.45-2.31-11.82-1.85-24-1.1-36,.12-2,.32-4.09,1.68-5.51s3.13-1.68,4.63-2.65a6.75,6.75,0,0,0,3-4.68l5-5a182.94,182.94,0,0,0-4.65-37.66c7.42.64,14.85-2,21-6.12s11.26-9.74,15.9-15.56l2.05-3.91a34.54,34.54,0,0,0,10.18-23.29,247.43,247.43,0,0,1-34.64-32.45l-5.12-1.67c-7.35-2.76-12.59-9.57-15.33-16.93s-3.34-15.32-3.9-23.16l-4.62-12.63.26-18.15a25.72,25.72,0,0,1,.57-6.07c1-4.12,4.15-7.9,3.54-12.11l1.14-5.56.83-37.64c4.48,3.19,7.81,8,12.81,10.31,3.49,1.61,7.44,1.82,11.28,1.89a193.49,193.49,0,0,0,21.53-.77l4.49-1.68c.81.15,1.45-.73,1.59-1.54a8.41,8.41,0,0,1,.42-2.42c.59-1.15,2.09-1.43,3.38-1.58l5.35-.62c1.58-.18,3.34-.32,4.62.64,1.08.81,1.53,2.19,2.31,3.28,1.84,2.59,5.37,3.37,8.55,3.2s6.29-1.06,9.47-1c5.61.16,10.6,3.34,15.68,5.74,1,.5,2.45.9,3.22,0a2.71,2.71,0,0,0,.51-1.1,47.42,47.42,0,0,0,2.31-10.75,16.14,16.14,0,0,0-2.63-10.47l-2.61-5.08a258.28,258.28,0,0,0-30.86-37.24l-1.78-1.55c-3.68-3.55-10.52.25-14.67-2.72-2.24-1.61-2.86-4.59-4.08-7.06-2.92-5.88-9.4-8.93-15.42-11.54l-3.15-4.31a5,5,0,0,1-2-3.48,14.56,14.56,0,0,1,.19-4.11l.59-4.14-2.73-4.68a85,85,0,0,0-1.38-17.37,8.57,8.57,0,0,1-4.52,5.67,21.87,21.87,0,0,1-7.17,2.08,65.7,65.7,0,0,1-.68-11.64,13.54,13.54,0,0,1-3.18.13l.12-.67a151.23,151.23,0,0,0,0-20,30.51,30.51,0,0,1-.09-4.87,13.79,13.79,0,0,1,1.5-5.1l1.92-4.12c.63-7.4-1.66-14.82-5.22-21.34s-8.35-12.28-13.1-18c11.15-3.3,19.81-12.15,26.61-21.59s12.31-19.86,20.08-28.53a31.13,31.13,0,0,1,6.74-5.92c7.08-4.33,16-3.8,24.26-3.13l5.45-1.9c6.17-2.71,7.77-10.72,7.44-17.44-1-21.06-12.59-40.06-25-57.1-2.46-3.37-5-6.82-6.07-10.86-1.41-5.48.15-11.26-.26-16.9-.61-8.35-5.43-15.69-9-23.27a4.6,4.6,0,0,1-.61-2.87c.45-1.92,2.86-2.43,4.77-2.89,8.43-2,14.13-10,17.41-18,5.39-13.19,6.2-28.49.77-41.67s-17.47-23.79-31.53-26.11-29.55,4.52-36.14,17.16c-12.78-9.88-33.54-6.83-42.94,6.3-3,4.25-5,9.25-8.33,13.25a23.44,23.44,0,0,1-17.77,8.19,4.31,4.31,0,0,1-3-.86,4,4,0,0,1-1-2.66c-.65-8.34,7.18-14.47,13.37-20.09,10.74-9.75,18.86-23.49,18.22-38l-1.92-6.89a27.4,27.4,0,0,0-16-13c-1-.31-2.13-.64-2.6-1.57a3.52,3.52,0,0,1,.07-2.57c2.24-7.58,6.29-15.73,3-22.91-2-4.38-6.3-7.18-10.52-9.5a62.24,62.24,0,0,0-17.93-7c-6.33-1.22-13.1-.88-18.94,1.86a43.64,43.64,0,0,1-6.25,2.9c-2.21.63-4.84.49-6.49-1.11a8,8,0,0,1-1.93-3.85c-2.36-9-.18-19.25-4.68-27.44l-4.56-4c-3.9-2.55-7.95-5-12.42-6.26s-9.49-1.28-13.6.89l-7.48,2.41c-10.52,7.43-26.94.41-37,8.46-4.21,3.36-6.26,8.65-8.75,13.43a65.81,65.81,0,0,1-23.44,25.31c-9.81,6.12-22.17,10.61-26.44,21.35a34.57,34.57,0,0,0-1.94,10.79,173.33,173.33,0,0,0,.74,30c.58,5.23,1.42,10.49,3.51,15.31s5.56,9.21,10.3,11.49c11.83,5.7,26-3.31,38.85-.4a5.41,5.41,0,0,1,2.43,1c2.47,2.12.52,6-1.09,8.86a29.67,29.67,0,0,0,1.5,31l2.38,4.65a135,135,0,0,0,21.77,29.07c4.24,4.3,8.82,8.37,12.08,13.46l2.65,8.87c.3,1-1.1,1.51-2.12,1.52-6.27,0-12.68-1.37-18.73.27-.51,1.39.72,2.88,2.1,3.44s2.93.54,4.33,1l-1.66,2.11a1.38,1.38,0,0,0-2.17.64,2.39,2.39,0,0,0,.85,2.43c.67.58,1.59,1,1.92,1.8a3.48,3.48,0,0,1,.11,1.51,14.41,14.41,0,0,0,2.74,9.45,11.47,11.47,0,0,0,8.56,4.62l.44.76v10.06a22.63,22.63,0,0,0,11.19-4.12c2-1.44,3.88-3.37,4.35-5.81.38-2-.23-4.18.46-6.11l4-.2a3.11,3.11,0,0,0,2.32,2.77,7.06,7.06,0,0,0,3.81-.12c3.43-.85,6.76-2.64,8.68-5.6.77-1.18,1.73-2.74,3.11-2.44a3.06,3.06,0,0,1,1.63,1.41l5.72,8.16,3.75,4a399.15,399.15,0,0,1,24.5,47.78l1.75,7.23c1.32,7.32.65,15.24-3.23,21.59s-11.36,10.72-18.73,9.67a15.93,15.93,0,0,0,8.17,1.88,8.88,8.88,0,0,1,1.93,0,9.75,9.75,0,0,1,2.22.87c3.88,1.73,8.3,1.19,12.5.18l.84.74c4.48,4.29,5.93,10.78,7,16.9a69.31,69.31,0,0,1,1.34,12.43c-.06,9.53-3.62,18.64-7.07,27.52-2.4,6.17-4.8,12.69-3.79,19.23.68,4.45,2.91,8.49,5.1,12.43l-.8,4.2c-.9,8.6-6,16.12-10.9,23.21l-1.21,3.68c-2.65,2.36-2.76,6.51-4.87,9.37-.36.49-.78.94-1.1,1.46a11.11,11.11,0,0,0-.83,1.78c-2.69,6.52-7.69,11.79-12.79,16.66l.67,3.35a117,117,0,0,0,30.43,30.69c3,2,6.15,4,9.71,4.55-.45,2-1.86,3.56-3.12,5.15a50.15,50.15,0,0,0-10.79,31.29l.5,5.16c.52,7.48,8.43,13,8.48,20.54a5.92,5.92,0,0,1-.42,2.39,11.39,11.39,0,0,1-1.13,1.81,18.19,18.19,0,0,0-3.24,10.18l-1.54,3c-.23,2.75-.45,5.58.38,8.21s3,5,5.71,5.35c2.47.26,4.81-1.21,6.59-3a20.53,20.53,0,0,0,4.81-7.34l5.36-7.27a52.64,52.64,0,0,1,28.91-7.48l5.08,1.76a8.18,8.18,0,0,1,4.86,4.79,15,15,0,0,1,.85,6.94,2.43,2.43,0,0,1-.29,1.13,3.12,3.12,0,0,1-1.93,1c-.71.2-1.51.7-1.46,1.43s.7,1.06,1.32,1.17a17.25,17.25,0,0,1,1.9.21,3.18,3.18,0,0,1,2,3,9.39,9.39,0,0,1-.82,3.7l-2.77-1.44a16.51,16.51,0,0,1,2.39,4.3,5.62,5.62,0,0,1-.41,4.76l-3.15.93c-4.78,4.13-5.63,11.09-6.16,17.38q-1.39,16.42-2.77,32.84a30.26,30.26,0,0,1-1.06,6.63c-.25.79-.81,1.71-1.63,1.58a1.88,1.88,0,0,1-1-.69c-6.71-7.27-13.71-14.65-22.66-18.85a47.7,47.7,0,0,0-17.52-4.21c-4.62-.28-9.39,0-13.75-1.62-3.18-1.17-5.93-3.24-8.76-5.11-6.75-4.45-14.31-7.9-22.34-8.84s-16.55.79-22.9,5.79l-3.14,4.51c.19,6.09.33,12.44-2.23,18a36.34,36.34,0,0,1-4.93,7.39c-5,6.26-10.38,12.25-15.73,18.24l-4.44,7.91c-1.18,4.74-5.08,8.26-7.46,12.52a42.17,42.17,0,0,0-3.65,10.48l-3.61,14.34-.24,5.88c-.64,2.77-3.64,4.19-5.6,6.26a19.17,19.17,0,0,0-3,4.95l-3.84,7.93a15.56,15.56,0,0,1-3.48,5.23c-2.09,1.8-5,2.35-7.67,2.83l-1.92,4.78c5.65,23.13,9.64,47.27,5.28,70.68l-2.88,9.23c-3.18,11.89-1.79,24.49-3.25,36.7l-.6,2c-3.61,15-1.23,30.64,1.16,45.85,1.32,8.4,2.78,17.14,7.73,24.05,1.59,2.23,3.52,4.21,5.14,6.42a56.9,56.9,0,0,1,4.83,8.41c8.31,16.58,16.55,33.85,30.48,46.09a29.65,29.65,0,0,0,9.86,6.17,14,14,0,0,0,11.34-.72l4,1.83c7.4,1.32,13.66,6.2,18.94,11.55s10,11.34,16,15.88c4.87,3.69,10.53,6.34,15,10.52,7.54,7.06,10.75,17.53,16.84,25.88,1.34,1.84,3.14,3.73,5.41,3.71a7.47,7.47,0,0,0,3.89-1.53c13.68-8.79,24.73-21.83,30.39-37.07s5.73-32.63-.56-47.62Z"></path>
    <path data-name="1a" data-official="" data-plain="Flower" data-loc="" d="M1303.17,2655.79c-9.76-4.88-16.48-14.95-18.22-25.72s1.24-22,7.24-31.15a31.45,31.45,0,0,1,10.67-10.51c5.82-3.21,12.71-3.68,19.34-3.95,8.52-.36,17.13-.49,25.49,1.18s16.54,5.27,22.41,11.46c8.46,8.91,11,21.8,12.26,34,.84,8.48.52,18.55-6.43,23.49-3.27,2.34-7.56,3.09-10.54,5.79-4,3.68-4.51,9.81-4.21,15.26s1,11.25-1.53,16.09c-3,5.81-9.8,8.49-16.13,10.18A121.33,121.33,0,0,1,1297,2705c-2.48-.32-5.06-.77-7.06-2.28-2.86-2.18-3.84-6.17-3.34-9.74s2.23-6.82,3.93-10l9.24-17.23Z"></path>
    <path data-name="1b" data-official="" data-plain="Pistil" data-loc="" d="M1387.3,2666.54c6.2-5.27,8.29-13.95,8.6-22.08s-.81-16.33.52-24.35a40.61,40.61,0,0,1,9-19.47,18.39,18.39,0,0,1,6.66-5.33,15.42,15.42,0,0,1,7.94-.85c8.75,1.16,16.23,7.77,19.74,15.87s3.42,17.44,1.15,26c-1.24,4.67-3.13,9.34-2.64,14.14.38,3.76,2.18,7.19,3.63,10.67,4.12,9.89,4.95,22.68-2.81,30.06-5.23,5-12.93,6.13-20.11,6.84q-10.05,1-20.13,1.42c-4.19.18-8.63.22-12.23-1.93-6.37-3.82-6.66-14.57-.5-18.73Z"></path>
    <path data-name="1c" data-official="" data-plain="Fruit" data-loc="" d="M1479.86,2668.59c-8.85-12.93-15.37-28.37-13.62-43.93a21.38,21.38,0,0,1,3.37-10.15c4.12-5.75,11.78-7.49,18.77-8.5,16.58-2.39,35.19-2.51,48,8.23A45.15,45.15,0,0,1,1548,2630c2.74,5.83,4.64,12.33,3.64,18.7-1.57,10.06-9.86,17.61-18.12,23.56a5.91,5.91,0,0,0-3.31,6.95l3.32,29.52c.4,3.58.72,7.51-1.3,10.48-2.35,3.44-7,4.36-11.09,4.84a179.92,179.92,0,0,1-38.61.34c-2.39-.24-4.94-.6-6.7-2.22-3.41-3.14-1.92-8.69-.46-13.08a109.51,109.51,0,0,0,5.36-27.82Z"></path>
    <path data-name="2" data-official="Asperula odorata" data-plain="Sweet Woodruff" data-loc="Britain" d="M1746.36,1508.88l5.36-7.27a52.64,52.64,0,0,1,28.91-7.48l5.08,1.76a8.18,8.18,0,0,1,4.86,4.79,15,15,0,0,1,.85,6.94,2.43,2.43,0,0,1-.29,1.13,3.12,3.12,0,0,1-1.93,1c-.71.2-1.51.7-1.46,1.43s.7,1.06,1.32,1.17a17.25,17.25,0,0,1,1.9.21,3.18,3.18,0,0,1,2,3,9.39,9.39,0,0,1-.82,3.7l-2.77-1.44a16.51,16.51,0,0,1,2.39,4.3,5.62,5.62,0,0,1-.41,4.76l-3.15.93-7.43-1.72a139.49,139.49,0,0,0-24.09-15.36Zm113.7,836.24c.39-.09.45.66.07.79s-.77-.14-1.06-.42c-5.24-5.06-1.44-14.61-5.45-20.7-2.61-3.95-7.82-5.28-12.56-5.27s-9.47,1-14.17.43c-5.9-.77-11.16-4-16.84-5.77-4.82-1.49-9.89-1.88-14.87-2.57a122.23,122.23,0,0,1-80.3-47.61l-9.5-2.78a20,20,0,0,1-4.87-8.79c-.93-3.63-.83-7.48-2-11a31.46,31.46,0,0,0-3.9-7.18L1683.87,2218l-14-12.54a56.75,56.75,0,0,0-12.71-13.35c-3.33-2.53-7.47-4.78-11.53-3.76-3.61.91-6.11,4.15-8,7.38-3.79,6.61-6.09,14-9.27,20.9s-7.51,13.7-14.07,17.59l-11.48,10.05-4,2.41c-2.69,1.25-5.5,2.58-7.28,5a17.91,17.91,0,0,0-2.11,4.19l-10.2,25.6a5.79,5.79,0,0,0-.58,2.39,5.87,5.87,0,0,0,1,2.51l5.53,9.53a8.77,8.77,0,0,1,1.29,3.06,7.57,7.57,0,0,1-.76,4,25.52,25.52,0,0,1-3.95,6.47l-.29,6.72,5.61,3c9.07,10.24,18.27,20.66,24,33.09s7.51,27.36,1.53,39.65c-5.24,10.78-15.56,18.05-25.65,24.52a582.19,582.19,0,0,1-117,57.73c-10.6,3.82-22.71,8.7-26.08,19.45-1.09,3.5-1.08,7.23-1.06,10.9q.15,19.25.51,38.49c.12,6.78.32,13.78,3.21,19.9a24.29,24.29,0,0,0,45.82-5.74c1.22-6.33-.09-13,1.76-19.21,3.11-10.38,13.92-16.13,23.75-20.7,36.64-17.07,74.15-33.78,104.91-60,12-10.25,23.25-22.08,37.82-28.21,25.77-10.83,54.94-1.4,82.41,3.79a263.83,263.83,0,0,0,124.46-6.63c11.52-3.48,24.42-9.51,27-21.27,2.73-12.66-8-23.72-16.52-33.48Zm37.29-125.35c.8-1.78,2.76-2.69,4.57-3.43a209.77,209.77,0,0,1,42.72-12.38l4.1-10c.69-28.37-2.92-57.18-13.85-83.37s-29.58-49.65-54.4-63.4c-6-3.3-12.91-6.81-14.64-13.41a22.63,22.63,0,0,1-.29-7.26q1.47-22.11,3-44.2c.65-9.72,1.41-19.83,6.24-28.29,4.51-7.91,12.15-13.55,20-18.09,27.46-15.77,59.91-20.74,88.07-35.2l9.64-1.7a132.33,132.33,0,0,0,32.06-13.24c4.34-2.5,8.66-5.37,11.37-9.58,3.06-4.78,3.68-10.68,4.21-16.33,1.36-14.4,2.71-28.9,1.24-43.28s-6-28.81-15.17-40c-6.08-7.39-14-13.06-21.79-18.56-14.06-9.88-28.85-19.74-45.76-22.77-10.87-2-23.38-1.48-31.13-9.36-4.16-4.22-6.07-10.12-7.56-15.86a183.54,183.54,0,0,1-5.84-50.31c.17-7.28.81-14.7,3.65-21.41,5.77-13.57,19.31-21.81,31.29-30.41,20.54-14.73,39.81-35.62,40.43-60.89l-.61-14.18c0-12.09-.6-25.53-9.14-34.08-5.46-5.47-13.47-8-18.34-14-5.83-7.18-5.75-17.32-5.39-26.56l1.08-27.24c.51-13,2-27.82,12.45-35.5,8.07-5.9,20.76-7,24.3-16.31,1.2-3.15,1-6.64,1.18-10,.51-8.9,4.11-17.77,10.66-23.82,10.33-9.53,27-11.66,34.37-23.61,4.16-6.69,4.36-15,4.44-22.9q.27-25.83.55-51.65c.15-14.4,0-29.85-8.22-41.68-7.27-10.48-19.93-16.28-32.59-17.74s-25.46.91-37.83,4a330.62,330.62,0,0,0-52.22,17.79l-15.91,6.81-5.45,1.9c-8.27-.67-17.18-1.2-24.26,3.13a31.13,31.13,0,0,0-6.74,5.92c-7.77,8.67-13.28,19.08-20.08,28.53s-15.46,18.29-26.61,21.59c4.75,5.71,9.54,11.47,13.1,18s5.85,13.94,5.22,21.34l-1.92,4.12a13.79,13.79,0,0,0-1.5,5.1,30.51,30.51,0,0,0,.09,4.87,151.23,151.23,0,0,1,0,20l-.12.67a13.54,13.54,0,0,0,3.18-.13,65.7,65.7,0,0,0,.68,11.64,21.87,21.87,0,0,0,7.17-2.08,8.57,8.57,0,0,0,4.52-5.67,85,85,0,0,1,1.38,17.37l2.73,4.68-.59,4.14a14.56,14.56,0,0,0-.19,4.11,5,5,0,0,0,2,3.48l3.15,4.31c6,2.61,12.5,5.66,15.42,11.54,1.22,2.47,1.84,5.45,4.08,7.06,4.15,3,11-.83,14.67,2.72l1.78,1.55a258.28,258.28,0,0,1,30.86,37.24l2.61,5.08a16.14,16.14,0,0,1,2.63,10.47,47.42,47.42,0,0,1-2.31,10.75,2.71,2.71,0,0,1-.51,1.1c-.77.86-2.18.46-3.22,0-5.08-2.4-10.07-5.58-15.68-5.74-3.18-.09-6.3.8-9.47,1s-6.71-.61-8.55-3.2c-.78-1.09-1.23-2.47-2.31-3.28-1.28-1-3-.82-4.62-.64l-5.35.62c-1.29.15-2.79.43-3.38,1.58a8.41,8.41,0,0,0-.42,2.42c-.14.81-.78,1.69-1.59,1.54l-4.49,1.68a193.49,193.49,0,0,1-21.53.77c-3.84-.07-7.79-.28-11.28-1.89-5-2.31-8.33-7.12-12.81-10.31l-.83,37.64-1.14,5.56c.61,4.21-2.49,8-3.54,12.11a25.72,25.72,0,0,0-.57,6.07l-.26,18.15,4.62,12.63c.56,7.84,1.15,15.8,3.9,23.16s8,14.17,15.33,16.93l5.12,1.67a247.43,247.43,0,0,0,34.64,32.45,34.54,34.54,0,0,1-10.18,23.29l-2.05,3.91c-4.64,5.82-9.71,11.41-15.9,15.56s-13.62,6.76-21,6.12a182.94,182.94,0,0,1,4.65,37.66l-5,5a6.75,6.75,0,0,1-3,4.68c-1.5,1-3.4,1.35-4.63,2.65s-1.56,3.55-1.68,5.51c-.75,12-1.21,24.18,1.1,36,.61,3.13,1.42,6.31.92,9.45a14.5,14.5,0,0,0-3.91-4.13c-9.22-7.09-21-9.84-31.1-15.65-4.86-2.81-9.31-6.32-14.36-8.78l-1.67,4.46,1.12,4.85c2.07,3.38,1.74,7.73.57,11.51s-3.11,7.31-4.14,11.14c-.89,3.31-1.09,6.8-2.3,10a16.88,16.88,0,0,1-7.81,8.87l-3.89,1.19c-4.2-1.77-9.13.73-12,4.29s-4.29,8-6.47,12a72.12,72.12,0,0,1-4.53,7l-4.87,6.88-.54,1.46c7.66,22.3,23.38,40.76,38.75,58.65,3.6,4.18,7.23,8.4,11.59,11.77l2.09,14.9c6.29,15,6.22,32.38.56,47.62s-16.71,28.28-30.39,37.07a7.47,7.47,0,0,1-3.89,1.53l-.08,8.55c2.54,6.33-.21,13.43-.25,20.26,0,3.84.82,7.63,1.48,11.42,3.8,21.83,1.64,45.84,13.73,64.41,2.53,3.89,5.61,7.39,8.08,11.3,3.79,6,6.13,12.91,10.67,18.35,4.39,5.26,10.49,8.74,16.45,12.11l36.25,20.47a130.52,130.52,0,0,1,15.88,10c10.31,8,18.49,19.18,30.59,24Zm-342.12-787.4c1.46,6.17,6.33,10.85,11,15.17l10.22,9.49a14,14,0,0,1,3.87,4.85c.77,1.95.46,4.49-1.26,5.68a18.76,18.76,0,0,0,10.5,4.47,38.43,38.43,0,0,1,5.69.49c4.76,1.16,7.78,5.63,11.16,9.18s8.86,6.46,12.95,3.78l7,1.16c12.16-1.18,25.43-2.1,35.58,4.7,6.21,4.16,10.55,10.83,17.16,14.31a22,22,0,0,0,25.75-4.56,21.34,21.34,0,0,1,3.47-3.57,9.35,9.35,0,0,1,4.3-1.49,13.23,13.23,0,0,1,10.42,3.55l7.37,3a18.19,18.19,0,0,1,3.24-10.18,11.39,11.39,0,0,0,1.13-1.81,5.92,5.92,0,0,0,.42-2.39c0-7.5-8-13.06-8.48-20.54l-.5-5.16a50.15,50.15,0,0,1,10.79-31.29c1.26-1.59,2.67-3.18,3.12-5.15-3.56-.56-6.74-2.51-9.71-4.55a117,117,0,0,1-30.43-30.69l-.67-3.35c5.1-4.87,10.1-10.14,12.79-16.66a11.11,11.11,0,0,1,.83-1.78c.32-.52.74-1,1.1-1.46,2.11-2.86,2.22-7,4.87-9.37l-3.71-1.7c-3.36,3.08-5.29,7.37-7.73,11.22a46.76,46.76,0,0,1-14.35,14.41c-1.62,1-3.4,2.07-4.24,3.79A25.14,25.14,0,0,0,1670,1363.8l-6-1.42c-3.71-2.63-8.81-1.14-13,.54q-10.45,4.15-20.57,9.11c-14.71,7.21-28.78,15.64-42.83,24.07l-30.08,18a15.15,15.15,0,0,0-4.84,3.91c-1.19,1.72-1.57,4.19-.31,5.86Z"></path>
    <path data-name="3" data-official="Coffea Arabica" data-plain="Arabian Coffee-tree" data-loc="Yemen" d="M1243.32,2320.18a172.64,172.64,0,0,0,58.36,67.12c7.62,5.14,16.31,10.5,18.76,19.36,3.07,11.05-7.63,23.47-19,22.08l-10.59,1.31c-51.32-4.66-96.31-35.41-145.84-49.66-10.15-2.92-21-5.44-28.59-12.85l-5.36-5-18.11-26.83c-1.53-2.27-3.21-4.67-5.75-5.71a10.59,10.59,0,0,0-6.21-.27,11.44,11.44,0,0,1-2.83.4,10.14,10.14,0,0,1-3-.84,46.31,46.31,0,0,0-13.9-3l-1.09-1.85a57.43,57.43,0,0,1,20.12-28.36c4.25-3.19,8.92-5.77,13.3-8.77a127.14,127.14,0,0,0,10.17-7.92c10.84-9.22,21-19.43,28.8-31.32s13.25-25.58,14.11-39.79c7.31-1.47,14.54,2.42,20.88,6.37l5.68,4.34c5.65,5.54,8.66,13.27,14,19.13,3.54,3.9,8,6.84,12,10.24,18.77,15.87,27.11,40.43,37,62.94ZM944.16,836.78c-5.94,6.81-9.34,15.53-11.08,24.4s-1.92,18-2.1,27c-.2,10.17-.39,20.35,0,30.52,1.46,34.15,10.2,68.19,27.12,97.9l-2.57,6.75c1.88,4.88.43,10.33.43,15.56,0,5.47,1.6,10.81,3.2,16l3.43,11.31c1.08,3.52,2.39,7.37,5.58,9.22s7.26,1.06,10.88.21l3.68-2.9a399.32,399.32,0,0,0,48.72-76.56l7.74,3.37L1046,996l6-14.71a13.8,13.8,0,0,0,1.09-3.52,34,34,0,0,0-.16-4.72,26.94,26.94,0,0,1,1.51-7.55c4.33-15.07,4.93-30.92,5.49-46.58l.81-22.44a34.51,34.51,0,0,0-.25-7.33c-.88-5-3.89-9.37-6.92-13.46A324.38,324.38,0,0,0,1031,848.45l-2.68-.12c-16-4.4-31.12-11.23-46.21-18a32.93,32.93,0,0,1-5.63-3,12.82,12.82,0,0,0-2.78-1.74c-1.12-.42-2.36-.38-3.49-.74-2.46-.76-4.2-3.24-6.74-3.63a7.73,7.73,0,0,0-4.4,1,29.78,29.78,0,0,0-9.66,7.37Zm135.72,181.67c16.66,5.59,35-1.51,52.4.64,4.62.57,9.15,1.79,13.79,2.24,10,1,20-1.7,29.07-5.82,14.32-6.48,27.4-17.27,33-31.94,6.37-16.51,2.5-35.2-3.8-51.73-1.78-4.7-3.74-10.06-1.45-14.53,1.51-2.93,4.5-4.71,7.13-6.69a40.13,40.13,0,0,0,15.68-29.54l-.11-6.62a6.62,6.62,0,0,0-4-5.13,22,22,0,0,0-6.58-1.55,122.15,122.15,0,0,1-66.17-31.48l-1.19.28-16.67,8.87c-3.75,2-7.59,4.07-10.28,7.35-5.3,6.48-5,16.26-10.34,22.69-3.11,3.75-7.75,5.86-12.33,7.53l-1.22,1.71c.75,7.11-.27,14.27-1.34,21.34q-8.21,53.89-21.22,106.9Zm180.8-554.78a19.27,19.27,0,0,0,1.26,10.29c.77,1.86,1.84,3.59,2.61,5.45a19.13,19.13,0,0,1,1.46,7.76l9.15-2.9a22.24,22.24,0,0,0,2.56-.92,20,20,0,0,0,6-4.75,89.48,89.48,0,0,0,6.59-7.83l2.25-4.36q-4.8-3.77-9.81-7.27a11.11,11.11,0,0,0-3.81-2c-2-.45-4.05.18-6.05.57a25.37,25.37,0,0,1-8.56.14Zm395.68,268.47c.23,7.33,5.14,13.76,10.91,18.3s12.49,7.67,18.47,11.92c6.82,4.83,12.55,11,18.89,16.46,11.55,9.92,25.54,17.89,32.86,31.23,2.76,5,4.44,10.64,7.57,15.45,5.94,9.12,16.32,14.29,23.69,22.28s11.4,18.36,16.19,28.1a179.83,179.83,0,0,0,23.18,35.7c3.07,3.68,6.32,7.3,8.43,11.61a25.79,25.79,0,0,1,2.55,9.43l4.42,10.22a322.43,322.43,0,0,0,60.38,49.24c3.3,2.08,7,4.19,10.87,3.49,4.63-.85,7.66-5.65,8.15-10.33s-.94-9.32-2.12-13.88c-6.76-26.15-5.4-53.62-4-80.59,1.11-21.25,2.25-42.67,7.5-63.3,2.92-11.45,7.09-22.58,9.56-34.14,3.57-16.71,3.5-34,3.41-51-.16-33.17-.36-66.64-7.56-99-7-31.4-20.36-61-33.77-90.2-12.42-27.09-25.08-54.36-43-78.17-18.55-24.65-42.21-44.91-65.67-64.94l-11.23-10.22c-23.51-7.85-47.24-15.81-68.42-28.69-24.79-15.08-45.41-36.51-71-50.24-56.85-30.52-125.8-17.91-190.3-16.37-2.37.06-4.91.05-6.86-1.3-2.45-1.69-3.18-4.89-4.21-7.68-4.61-12.5-19.65-20.07-32.44-16.34-6.09-28.4-41.11-38.88-59.39-61.44-12-14.84-16.23-34.32-23.59-52-14.06-33.68-41.54-62.12-75.8-74.68s-74.93-8.11-104.08,13.84l-7.21,8.74a67.69,67.69,0,0,0-8.15,26.28c-.33,3.33-.45,6.85-2.22,9.69a18.84,18.84,0,0,1-3.39,3.75c-5.84,5.38-12,11-19.78,12.75l-8.36,5.35a184.62,184.62,0,0,1-95.81,53.74l-10-.63c-19.85,3.6-40.05-4.11-60.21-3.39-19.58.7-38,9.3-54.88,19.26s-33,21.5-51,29.07c-15.3,6.41-32,10-45.71,19.35l-10.84,14.39A103.47,103.47,0,0,1,766.08,306a74,74,0,0,1,17.67-17.23c2.77-1.91,6.27-3.69,9.35-2.35a9.45,9.45,0,0,1,3.55,3.19c4.82,6.4,7.51,14.22,8.71,22.14s.95,16,.35,24l.9-.47c8.8-2.35,18.22-1.37,26.94,1.24s16.88,6.8,25,11l.87-1.06C873.62,333.86,889.86,323.89,906,314l13.65-8.36a167.64,167.64,0,0,1,17.65-9.87,84.65,84.65,0,0,1,30.47-7.55l4.34-2c21.86-4.32,43.74-8.64,65.36-14.05,17.22-4.31,34.36-9.33,52-11.2l8.37,2.05c9.13,5.78,19.85,8.72,30.61,9.75s21.62.2,32.35-1.08l4-4.23a61.76,61.76,0,0,0,19.69-4.42c7.63-3.11,15.37-7.86,23.48-6.4l8.13-2.31c8.68-1.86,17.25-4.19,25.71-6.88,11.42-3.64,23.27-8,35.07-5.91,5.88,1,11.35,3.62,16.62,6.42,8.2,4.36,16.09,9.28,24,14.2,4.33,2.71,8.72,5.46,12.2,9.21,7.15,7.71,9.57,18.77,9.6,29.29a79.72,79.72,0,0,1-12.73,43.32l-3.09,7.4a158.32,158.32,0,0,0-9.52,16.33c-5.2,10.48-8.75,21.69-13.39,32.43S1290,421.33,1281,428.89l-.71,5.81a30.94,30.94,0,0,0,16.55,23.44,25,25,0,0,0,4.77-10.66c.78,1.87,3.33,2.4,5.21,1.65s3.2-2.42,4.43-4c17.8-23.22,32.48-48.7,50.24-71.95,2.66-3.48,5.46-7,9.18-9.29,4-2.48,8.72-3.41,13.35-4.22,6.65-1.15,13.39-2.13,20.11-1.62,13.33,1,25.48,7.82,36.72,15.06,16.46,10.6,32.87,23.5,39.73,41.83,2.85,7.61,3.89,15.79,6.54,23.46A59.15,59.15,0,0,0,1508.46,467l7.25,9.91c12.44,4.64,19.93,17.62,23,30.53s2.84,26.41,5.28,39.46a97.15,97.15,0,0,0,16.29,38.35c8.64,12.13,20.22,22.49,25.77,36.32,5.33,13.27,4.46,28.2,8.09,42,5.43,20.73,20.53,37.51,36.62,51.67ZM774.13,394.26a25.34,25.34,0,0,1,22.37,11.52,65.46,65.46,0,0,1,11.71-5.88c-10.71-5-20.24-13.95-22.67-25.49a29.23,29.23,0,0,1-12.93,20.2Zm-42,35.16A18.46,18.46,0,0,1,735,439.54a33.15,33.15,0,0,1,18.31-.65c-4-8.75-2.22-18.94-.35-28.38a42.58,42.58,0,0,1-21.58,17.71Zm-16.91-117.8,2,8.92a96,96,0,0,1,2.59,15.2,32.11,32.11,0,0,1-2.33,15.1l-.57.56,10.71,1c-5.55,2.84-8.41,9-10.88,14.72l-9.56,22.18.21,1.28c5.47-.35,10.89,2.15,14.82,6a33.94,33.94,0,0,1,8.23,14.06c2.61-.88,4.48-3.13,6.19-5.29q8.4-10.67,16.11-21.86l-1.07-.07c-8.46-1.68-17.53,3.63-25.61.62,2.32-1.63,2.65-4.87,3-7.69a46,46,0,0,1,20.41-32.18l.25-1.33c-8.48-2.88-14.75-10-20-17.25a24.9,24.9,0,0,0-4.54-5.21,7.7,7.7,0,0,0-6.47-1.71,10.07,10.07,0,0,1-.39-5.57,4.75,4.75,0,0,0,.18-2.55c-.29-.82-1.53-1.3-2-.59ZM1970.9,2359.68c-3.43,7.7-14.12,9.44-22,6.4s-13.87-9.4-20.56-14.51a76.1,76.1,0,0,0-63.19-13.28l-11.55-13.5c-2.61-3.95-7.82-5.28-12.56-5.27s-9.47,1-14.17.43c-5.9-.77-11.16-4-16.84-5.77-4.82-1.49-9.89-1.88-14.87-2.57a122.23,122.23,0,0,1-80.3-47.61l-9.5-2.78a20,20,0,0,1-4.87-8.79c-.93-3.63-.83-7.48-2-11a31.46,31.46,0,0,0-3.9-7.18L1683.87,2218l-14-12.54a56.75,56.75,0,0,0-12.71-13.35c-3.33-2.53-7.47-4.78-11.53-3.76l-25.07-26.08c-.56-6-4.28-11.44-9-15.26s-10.37-6.27-16-8.5a68.66,68.66,0,0,0-13.73-4.27l-6,.68a372.42,372.42,0,0,1-41.68-13.79l-3.78-.7a13.34,13.34,0,0,0-7.36-2.67,16.08,16.08,0,0,1-2.6-.18c-1.16-.25-2.2-.9-3.35-1.2a11.56,11.56,0,0,0-2.76-.3l-7.83-.22-3.5-8.61c-7.47-10.81-12-23.55-20.34-33.71-9.56-11.65-23.42-19.05-33.47-30.27-6.85-7.65-12.78-17.61-22.81-19.78-.83,5.78-4.5,10.82-8.89,14.66s-9.54,6.7-14.44,9.87a124.72,124.72,0,0,0-18.49,14.7c-2.63,2.53-5.28,5.26-8.74,6.43a22.74,22.74,0,0,1-7.18.78l-15.33,0-5.25-.55c-2.7-2.68-3.09-7-2.24-10.69s2.75-7.08,4.1-10.64a57.64,57.64,0,0,0,3.13-16.23c.78-10.74.14-21.7-3.22-31.93s-9.58-19.7-18.46-25.79l-1.15-1.19c-.88-5.19-3.12-10-5.34-14.8q-2.38-5.16-4.78-10.31a60.55,60.55,0,0,0-4.87-9.09c-3.67-5.3-8.89-9.28-14-13.16-3.22-2.44-6.54-4.92-10.42-6l-1.9-1.18a138.8,138.8,0,0,0-62.14-21.42c-6.34-.59-12.93-.79-18.63-3.64-2.4-1.2-4.57-2.85-7-4.09s-5.14-2.08-7.77-1.49a3.67,3.67,0,0,0-2,1,4.81,4.81,0,0,0-.9,3c-.25,4.17-.12,8.36-.61,12.51s-1.65,8.33-4.19,11.64l-.72,1.27c-.59,1.4-2.35,1.87-3.87,2s-3.21.08-4.36,1.07l5.35,1.5.32.34c-1.44,3-3,6-5.59,8.09a12.82,12.82,0,0,1-8.84,2.92c1.67,1.19,3.87,1.22,5.92,1.21-2.93,1.51-4.72,4.5-6.7,7.14s-4.65,5.23-8,5.24a1.94,1.94,0,0,0-1,.15c-.29.17-.44.63-.18.84a.73.73,0,0,0,.38.14l3.22.59-4.79,6.5-.59.62-3.25.23c-.66,0-1.45.18-1.69.79-.36.9.86,1.65,1.83,1.61s2-.42,2.85.09l-1.89,4.67a2.73,2.73,0,0,1-.68,1.12c-.94.78-2.53.07-3.48.84l4.22,1.4a56.09,56.09,0,0,1-1.56,6.76,11.61,11.61,0,0,0-6.57,3l4.31.74a1.23,1.23,0,0,1,.76.31,1.28,1.28,0,0,1,.22,1q-.09,3.6-.2,7.22a5.74,5.74,0,0,0-5.2,3.35l4.4,0a1.41,1.41,0,0,1,1,.25,1.36,1.36,0,0,1,.28,1l0,7.69-.08.5-5,.64c-.46.06-1,.18-1.16.62s.4,1.07.94,1.32a10.51,10.51,0,0,0,3.94,1c.38,0,.85.07,1,.42a1.05,1.05,0,0,1,.07.4c.06,2.25.09,4.51.09,6.76a1.34,1.34,0,0,1-.33,1.06,1.28,1.28,0,0,1-.82.21l-6.45.13a14,14,0,0,0,2.2,3.09,2.07,2.07,0,0,0,.78.6,2.46,2.46,0,0,0,1,.1,13.15,13.15,0,0,1,2.73.25,1,1,0,0,1,.56.24,1,1,0,0,1,.2.76c0,.91,0,1.82,0,2.72a.55.55,0,0,1-.07.34.54.54,0,0,1-.41.18c-2,.26-4.28,0-5.73,1.43l-5.1,3.79c-3.55,8.66-4.13,18.24-4,27.59s1,18.74,0,28.06l-1.2,7.32c.83,4.94-3.28,9.39-3.75,14.38-.14,1.43,0,2.89-.24,4.3-.41,2.08-1.74,3.84-3,5.57-8.19,11.64-12.91,25.52-14.7,39.64s-.72,28.5,2,42.48l-.57.9a21.8,21.8,0,0,0-4.89.59l-1.45-.51a50.19,50.19,0,0,1-7.51-20.07c-.58-4.08-.66-8.22-.94-12.34-.57-8.26-2-16.43-3.34-24.58a51.9,51.9,0,0,0-2.06-8.89c-2-5.52-5.8-10.17-9.69-14.57-4.15-4.67-8.88-9.41-15-10.63-2.84-.56-5.77-.31-8.67-.3-5.24,0-10.7-.75-15.56,1.21a30.16,30.16,0,0,0-6.11,3.72c-5.12,3.72-10.47,7.73-12.92,13.56-2,4.85-1.86,10.55-4.6,15-1.21,2-2.94,3.64-4.12,5.66a12.53,12.53,0,0,0-.6,11.26l-.48.69c-4.48,1.79-9.44-.56-14.25-1-5.23-.44-10.44,1.51-14.8,4.42s-8,6.76-11.62,10.58A35.93,35.93,0,0,0,971,2174a27.65,27.65,0,0,0-3,7.94,68.13,68.13,0,0,0-1.8,15.05,24.24,24.24,0,0,0,.83,7.64c.46,1.43,1.14,2.79,1.53,4.24.9,3.3.29,6.8.12,10.21a57.29,57.29,0,0,0,2.07,16.81,42.13,42.13,0,0,0,4.38,11.48c3.56,5.93,9.28,10.18,14.86,14.28l2.34,1.51c2.36.41,5.18,1.22,5.81,3.54.17.62.15,1.29.34,1.91a3.9,3.9,0,0,0,3.07,2.38,13.5,13.5,0,0,0,4.06-.09,46.29,46.29,0,0,1,7.72-.17,6.75,6.75,0,0,1,3.51.92c1.79,1.25,2.09,3.73,2.22,5.91a40.54,40.54,0,0,1,31.06-4.92,10.54,10.54,0,0,0,2.83.47c1.62,0,3.08-.91,4.66-1.27,2.12-.48,4.32,0,6.49.16,8.74.69,17.25-3.41,24.08-8.9,2.91-2.34,5.79-5,9.44-5.84,1.64-.36,3.34-.31,5-.67a5.19,5.19,0,0,0,3.92-2.81l.33-1.92a30.56,30.56,0,0,1-8.66-25.94c.52-3.45,1.64-6.81,1.93-10.29s-.72-7.38-3.89-8.49l-.36-1.05c5.55.43,10.73-2.63,16.21-3.55,6.48-1.09,13.15.84,19.68,0l-.3,1c2.68,8.39,1.35,17.67-2,25.8s-8.67,15.31-14.1,22.24c-5.08,6.49-10.36,12.88-16.64,18.22s-13.52,9.6-20.11,14.63a101.17,101.17,0,0,0-25.23,28.16l-3.24-4.4c-2.14-6.62-7.89-11.68-14.41-14.1s-13.74-2.44-20.6-1.28c-10,1.69-20,6.17-26.1,14.33l-7.78-.26a7.32,7.32,0,0,1-6.13-2.5L960,2290.52l-26.31-14.9c-6.56-5.65-10.25-13.87-13.48-21.91-14.19-35.34-23.43-72.74-40.77-106.65l-1.53-12.24a128.79,128.79,0,0,1-25.78-39.06,103,103,0,0,1-8-46l2-7c2.44-16.35-1.06-32.94-4.62-49.07a12.92,12.92,0,0,0-1.89-5,4.4,4.4,0,0,0-4.73-1.84h-5.67a138.93,138.93,0,0,0-22.55-7.65c-4.71-1.15-9.5-2.07-14-3.8S783.81,1971,781,1967a25.22,25.22,0,0,1-3.55-7.85,43.77,43.77,0,0,1-1.62-10.17,29.87,29.87,0,0,0-.61-6.75c-.65-2.34-2.05-4.41-2.9-6.69a25,25,0,0,1-1.05-10.5c.2-2.87.55-5.89-.63-8.51a15.87,15.87,0,0,0-2.72-3.81l-10-11.38-4.14-13.59c-3.48-7-3.88-15.11-3.57-22.92.84-21.2,6.38-42.36,3.72-63.41-.38-2.93-1-6-2.9-8.24-2.73-3.2-7.29-3.88-11.32-5.07a36.91,36.91,0,0,1-24.9-26.34l-3-7a8.52,8.52,0,0,0-5.49-4.55,25.2,25.2,0,0,0-7.3-.77,11.47,11.47,0,0,0-3.56.34,12.28,12.28,0,0,0-3.15,1.78q-7.56,5.34-15.62,9.91c-3.77,2.14-7.61,4.15-11.54,6s-7.64,3.39-11.3,5.4c-2.61,1.43-5.11,3-7.6,4.66l-11.8,7.63c-9.18,5.94-18.4,11.9-26.51,19.23l-8.41,6.16a19.31,19.31,0,0,0-12.09,1.76,57.9,57.9,0,0,0-10.39,6.77l-20,15.17a86.33,86.33,0,0,0-7.54,6.21c-2.09,2-4,4.23-5.94,6.35a165.63,165.63,0,0,1-16.68,14.85,23.21,23.21,0,0,1-5.65,3.74,7.84,7.84,0,0,1-6.58,0l0,.61c.13,4.07.18,8.42-2,11.86a20.55,20.55,0,0,1-4.75,4.74l-35,28-.39,1.65c9.29-2.31,17.22-8.47,26.43-11.08,6.3-1.78,12.94-1.83,19.49-1.86a49.26,49.26,0,0,1,11.12.78,48.53,48.53,0,0,1,9.87,3.81,83.78,83.78,0,0,1,14.17,8,29.67,29.67,0,0,1,10.17,12.45,40.39,40.39,0,0,1,2.23,10.69,86.76,86.76,0,0,1,.44,16.74c-1.65,18.3-13.38,35.57-30.16,43.06l-.4,1.09a49.48,49.48,0,0,1-12.61,41.27l-1.53,1.4c8.13,2,14.61,8.61,18.12,16.22s4.36,16.2,4.24,24.59c-.1,6.64-.8,13.35-3.14,19.57-3.37,9-10,16.45-17.74,22.14a110.82,110.82,0,0,1-24.4,13.36l-29.12,17.31c-27.64-8.33-55.53,9.37-83.39,16.93a120.53,120.53,0,0,1-41,3.81c-3.59-.29-7.8-.51-10.14,2.23-1.58,1.84-1.76,4.47-1.87,6.89-.79,17.31-1.9,34.67-5.45,51.63C314.41,2297.11,268,2349,247,2410.59c-2.3,6.75-4.08,14.89.37,20.46,2.14,2.68,5.37,4.21,8.16,6.22,11,7.88,14.64,23.93,9.33,36.36s-18.47,20.69-32,21.48S206,2489.76,196.59,2480c-8.8-9.18-14.55-21.54-25.38-28.2-22.54-13.85-54.5,3.71-77.42-9.48-10-5.75-16.26-16.56-19.07-27.74s-2.57-22.88-2.32-34.41l-.4-6c-3.17-19.36,1-39.39,8.78-57.4s19.06-34.28,30.68-50.09c35.18-47.87,74.34-93.05,104.74-144.09,4.77-8,9.45-17.52,6.18-26.23l-8-12.18c-22.6-26.38-28.18-66.13-13.72-97.72.82-1.8,1.73-3.67,1.67-5.66a13.29,13.29,0,0,0-1.58-5,88.59,88.59,0,0,1-3.49-64.74l8.68-9.76c.11-13.25,8.43-25.79,20-32.2s26-7,38.52-2.74c-.26-3.37,1.74-6.45,3.69-9.2,7.59-10.71,16.55-21.58,29.1-25.42,6.1-1.86,12.62-1.91,18.95-1.13a68.77,68.77,0,0,1,37.12,16.23c10.26,9.09,17.41,21.83,19,35.45l1.19-.8a76.35,76.35,0,0,1,21.58-14.63,47,47,0,0,1,25.6-3.7l2.43.51c6.89-25.65,17.44-50.17,25.37-75.52,7.67-24.49,12.94-49.83,23.35-73.28l-.24-2.84a41.56,41.56,0,0,1-18.19-16,58.84,58.84,0,0,1-8.23-22.95l-1.57.07a83.86,83.86,0,0,1-53.2-11.08,49.63,49.63,0,0,1-8.25-6c-7.83-7.24-11.91-17.59-15.33-27.69a23.54,23.54,0,0,0-2.82-6.3c-2.62-3.65-7.14-5.45-10.09-8.83a15.22,15.22,0,0,0-2.54-2.71,10.41,10.41,0,0,0-3.11-1.25,80.8,80.8,0,0,1-31-17l-6.61-5.44c-8.47-13.79-16.95-27.59-26.65-40.54-10-13.31-22.68-26.5-39.18-28.6-2.59-.33-5.34-.34-7.65.88a13.84,13.84,0,0,0-4.39,4.23c-5.27,7.15-8.76,15.42-12.62,23.41A257.05,257.05,0,0,1,156,1629.65c-7.73,6.61-16,12.85-25.48,16.55s-20.38,4.65-29.77.74C85.53,1640.61,78,1623.73,73,1608L67.3,1594.3q-4.68-49-6.34-98.13c-2-58.72-.53-118.71,18.53-174.3s58.19-106.79,113-128c7-2.71,14.55-5.1,19.82-10.49a44,44,0,0,0,6.43-9.35c17.64-31.48,34.93-67.64,68.58-80.68l10.94,4.33a55.36,55.36,0,0,1,16.88,48.09c2.69-6,7.06-11,11.36-15.94,11.11-12.74,22.52-25.73,37.26-34,9.45-5.32,19.93-8.49,30.42-11.23,7.9-2.06,16.19-4,22.38-9.36,5.24-4.5,8.39-10.88,11.83-16.87,11.14-19.43,26.38-36.15,41.93-52.27,4.46-4.62,9.55-9.5,15.95-9.94l12-1.49c21.43,10.27,46.76,5,70.3,8.17,31.85,4.35,59.51,24.21,90.7,32,20.19,5,41.29,4.82,62.08,4,7-.29,14.15-.65,21,.72,8.61,1.71,16.45,6,24.15,10.25q25.5,14.06,51.06,28l9.05-1.3a36,36,0,0,1,33.38,9c4.52,4.44,7.75,10,10.93,15.47a217.6,217.6,0,0,1,33.31-35.58l7.44-4.83c5.2-.38,10.4-.75,15.61-.81a14.88,14.88,0,0,1,4.66.47,14.57,14.57,0,0,1,3.77,2.06,24.68,24.68,0,0,1,6.06,5.55,28.7,28.7,0,0,1,2.5,4.55c3.56,7.45,7.21,15.53,5.78,23.66L940,1107.16a210.43,210.43,0,0,0-33.85,35.71c9.89,4.82,19.65,10.38,27.23,18.37s12.77,18.78,12,29.76l-2.65,5.34c-.65,11.55-4.53,22.65-8.73,33.43-1.35,3.45-2.88,7.09-5.93,9.19.08,1.63.16,3.25.23,4.88,2.75-.41,5.41,1.8,6.19,4.46a10.89,10.89,0,0,1-1.25,8c6.29,7.88,9.28,17.81,12.14,27.48l7.5-4.44a29.72,29.72,0,0,0,2.35-4.11,35.93,35.93,0,0,1,11.1-12.5l1.43-5.61q4.77-7.82,9.53-15.63c3.21-5.26,6.56-10.67,11.59-14.23l1.88-6.76q5.64-9.62,11.3-19.22a19.6,19.6,0,0,1,3-4.23,12.47,12.47,0,0,1,9.68-3.11,25,25,0,0,1,9.85,3.34,51,51,0,0,1,17.88,16.43c2.07,3.14,3.82,6.53,6.42,9.24s6.34,4.69,10,4a13.72,13.72,0,0,0,5.2-2.44,43.77,43.77,0,0,0,14.61-17.12c2.82-5.92,4.54-12.78,9.65-16.88a14.54,14.54,0,0,1,21.69,4.12c1.32,2.32,2,5,3,7.42a28.4,28.4,0,0,0,3.68,6.45,2.27,2.27,0,0,0,1,.89c.91.3,1.77-.53,2.35-1.28,7.79-10,12.81-22.19,22.13-30.76l3.68-2.09,32.2-8.83a6,6,0,0,1,2.57-.31c2,.34,3.12,2.54,3.88,4.46l.73,5.82a59.24,59.24,0,0,1-4.22,34.92c-1.76,3.91-4,7.82-4,12.1a50,50,0,0,1,18.79,1.41c2.84.78,5.76,1.91,7.61,4.2s2.37,5.6,2.64,8.65a52.9,52.9,0,0,1-.37,15.29c-2.51,12.33-11.87,22-17.36,33.3-.59,1.21-1.14,2.62-.6,3.86a5.37,5.37,0,0,0,2.29,2.1,33,33,0,0,1,14.4,33.61c-1,4.87-2.91,10.58.39,14.29a13.25,13.25,0,0,0,3.21,2.38,223.7,223.7,0,0,1,30.47,22l.21,7.87a102.9,102.9,0,0,1,2.67,16.31c.17,3,.07,6.07,0,9.11q-1,29.72-2,59.43l-.44,1a8.77,8.77,0,0,0-4.61,2.33,5.51,5.51,0,0,1-1.76,1.41,4.19,4.19,0,0,1-1.9.09c-8.66-1-17.71-4.44-25.77-1.12-6.79,2.79-10.88,5.59-14.67,11.87s-8.32,12.93-15.35,15c-5.15,1.54-10.69,4.3-16,4.87l9.66,5.34a11.63,11.63,0,0,1,3.3,2.36c1.79,2.07,1.89,5.09,1.6,7.82a37.73,37.73,0,0,1-3,11.13,49.49,49.49,0,0,0,10.66-5.65,11.73,11.73,0,0,1,4-2.15,11.32,11.32,0,0,1,3.34-.07,64.44,64.44,0,0,0,19.72-1.67l.79-.07c-6.27,4.8-12.33,10.38-15.34,17.69-4.24,10.32-1.53,22.47,4.38,31.93,2,3.16,4.31,6.14,5.74,9.59s1.86,7.56,0,10.79a10.72,10.72,0,0,0,8.43-11.46c.66,4.7,1.73,10,5.82,12.45.56-3.93-1.18-8.32.89-11.7a9.8,9.8,0,0,1,4.24-3.4c3.12-1.55,6.53-2.53,9.48-4.38a18.92,18.92,0,0,0,8.57-17.3l.26-.27c2,1.19,2.48,3.85,2.54,6.18.09,3.53-.32,7.06-.08,10.58a29,29,0,0,0,23.75,26.58l.66.58a41.86,41.86,0,0,0,.53,8.59c.07.38.21.84.59.91a1,1,0,0,0,.55-.13c3.13-1.47,5.67-4,8.11-6.4a15.35,15.35,0,0,0,2.48,10.64l1.05-.08a16,16,0,0,1,3.58-10.57l.8-.06c7.7.1,14.49-5.37,18.75-11.78,4.83-7.25,7.27-16.7,4-24.77l-.56-1.09c7.11-2.63,14.4-5.62,19.53-11.2,3.41-3.7,5.63-8.3,8-12.71a5.4,5.4,0,0,1,1.31-1.74,6.53,6.53,0,0,1,2.16-.89,15.92,15.92,0,0,0,8.92-6.94l-.78-1.52c-2.56.92-5.46-.2-7.5-2s-3.47-4.15-5.09-6.33c-1.87-2.5-4-4.78-5.83-7.34s-3.13-5.22-4.76-7.79a47.06,47.06,0,0,0-52.08-20.21l-1.67-.76a28.43,28.43,0,0,0-16.17-10.61l-1-1.16q-1.37-20-2.35-40c-.29-5.87-.41-12.26,3.08-17l7.51.72c6.39,3.18,9.86,10.09,12.89,16.55q3.49,7.39,7,14.81a30.43,30.43,0,0,0,3.83,6.64l.5,6.91c1.24,4.93,2.63,10.15,6.31,13.66a25.17,25.17,0,0,0,5.78,3.81,54.32,54.32,0,0,0,14.2,5.53l5.36-3.1c8.85,7.31,19.84,11.4,30,16.68a138.88,138.88,0,0,1,59.47,59.88l1.64,6.63,18.91,17.75c4.16,3.91,8.35,7.85,11.62,12.52a71.82,71.82,0,0,0,4.4,6.22c1.73,2,3.85,3.56,5.71,5.41,7.92,7.86,10.52,19.44,13.13,30.3,1.26,5.24,2.62,10.52,5.07,15.33,6.29,12.34,19.49,20.34,33.21,22.19,10.82,1.46,22.53-.38,32.14,4.79l6.9,9.68c3.7,10.93,14,18.14,23.94,24s20.73,11.5,26.85,21.3c5.7,9.14,6.42,20.42,7,31.18l1.73,9.66c-3.18,11.89-1.79,24.49-3.25,36.7l-.6,2c-3.61,15-1.23,30.64,1.16,45.85,1.32,8.4,2.78,17.14,7.73,24.05,1.59,2.23,3.52,4.21,5.14,6.42a56.9,56.9,0,0,1,4.83,8.41c8.31,16.58,16.55,33.85,30.48,46.09a29.65,29.65,0,0,0,9.86,6.17,14,14,0,0,0,11.34-.72l4,1.83c7.4,1.32,13.66,6.2,18.94,11.55s10,11.34,16,15.88c4.87,3.69,10.53,6.34,15,10.52,7.54,7.06,10.75,17.53,16.84,25.88,1.34,1.84,3.14,3.73,5.41,3.71l-.08,8.55c2.54,6.33-.21,13.43-.25,20.26,0,3.84.83,7.63,1.48,11.42,3.8,21.83,1.64,45.84,13.73,64.41,2.53,3.89,5.61,7.39,8.08,11.3,3.79,6,6.13,12.91,10.67,18.35,4.39,5.26,10.49,8.74,16.45,12.11l36.25,20.47a130.52,130.52,0,0,1,15.88,10c10.32,8,18.49,19.18,30.59,24l22.64,10.74,7.68,6.3c10,20.92,20,41.9,32.46,61.4,6.6,10.29,13.89,20.15,19.85,30.83,4,7.22,7.42,14.77,10.81,22.31C1970.86,2346.66,1973.6,2353.63,1970.9,2359.68ZM581.13,1756.28l-4.58-8.1a332.05,332.05,0,0,0-44.85-37.57,8.23,8.23,0,0,0-8-1.79l-11.14,1.94a5.1,5.1,0,0,0-2.29.79,5,5,0,0,0-1.45,2.61l-10.6,33c-2.06,6.41-4.12,12.82-6.66,19.05-5.06,12.41-12,24-16.52,36.61-8.58,23.83-8.68,51.16-23.22,71.89l.28,1.08a19.75,19.75,0,0,1,6.48,9.11l1.54.87,27.27-28c4.91-5,10.23-11.78,7.79-18.4,5.57.86,11.25-1.36,15.81-4.69s8.22-7.7,12-11.85c14.1-15.31,30.82-27.93,46.74-41.34,3.11-2.62,6.26-5.35,8.24-8.91C580.73,1767.64,581,1761.84,581.13,1756.28Z"></path>
    <path data-name="3a" data-official="" data-plain="Seeds" data-loc="" d="M180,2670.11c-15.57.57-29.46-11.6-35.33-26s-5.26-30.64-3.39-46.12c1.05-8.77,2.51-17.61,6.05-25.71a53.17,53.17,0,0,1,63.93-29.7,76.09,76.09,0,0,1,18.79,9,7.77,7.77,0,0,0,8,1.31c19-4.77,40.66-6.79,56.85,4.25,10.41,7.1,17,18.83,19.9,31.09s2.26,25.08.5,37.55c-.77,5.48-1.78,11-4,16-4.88,11.1-15.28,19.08-26.61,23.42-6.3,2.41-13.73,4.47-16.63,10.57-1.68,3.53-1.38,7.64-2,11.51a24.46,24.46,0,0,1-11.48,16.93c-5,2.94-10.77,4-16.44,5-11.83,2.12-23.81,4.24-35.79,3.33-4.14-.32-8.41-1.05-11.84-3.4-4.4-3-6.8-8.33-7.48-13.62s.13-10.65.94-15.93"></path>
    <path data-name="3b" data-official="" data-plain="Section of Fruit" data-loc="" d="M350.23,2652c-17.16-15.7-25.09-39.31-27.6-62.44-.89-8.24-1.17-16.65.69-24.73s6.05-15.83,12.74-20.72c11.82-8.65,28.08-6.62,42.48-4a17.31,17.31,0,0,0,5.11.42,25,25,0,0,0,5.7-1.85c6.4-2.4,13.45-2.26,20.27-1.79,10.15.71,20.63,2.22,29.21,7.7,10.75,6.87,17.07,19.25,19.24,31.83s.67,25.48-1.27,38.09c-.9,5.81-1.91,11.68-4.35,17-4.91,10.74-15.13,18.21-25.95,22.93-2.79,1.22-6,2.67-6.8,5.61a8.57,8.57,0,0,0,.73,5.27c3.35,8.54,10,16.34,9.46,25.5-.44,7-5.29,13.16-11.26,16.86s-13,5.32-19.88,6.61c-7.94,1.48-16.05,2.6-24.08,1.69s-16-4-21.54-9.95c-3.64-3.91-6.1-9.52-4.48-14.62,1.87-5.9,8.33-9,11.54-14.34,4.24-7,1.09-17.37-6.32-20.82Z"></path>
    <path data-name="4" data-official="Mussœnda macrophylla" data-plain="Large-leaved Mussœnda" data-loc="South America" d="M1296.85,458.14a30.94,30.94,0,0,1-16.55-23.44l.71-5.81-1.86-3.6a108.81,108.81,0,0,1-17.09-12.62l-4-.49a14,14,0,0,0-6.85,2.47,6.53,6.53,0,0,1-2.48,1.34,5.26,5.26,0,0,1-2.18-.26,77.75,77.75,0,0,1-27.85-14.22,16.64,16.64,0,0,0-9.76-20.95l-8.74-5.47c-20.24-7.53-31.18-29.41-48.93-41.72a106.73,106.73,0,0,0-17.11-9.14,336.25,336.25,0,0,0-41.74-16c-18.13-5.44-36.82-8.71-55.46-12l-17.35-3c-10.4-1.83-20.84-3.65-31.38-4.27l-16.16-2.75-4.34,2a84.65,84.65,0,0,0-30.47,7.55,167.64,167.64,0,0,0-17.65,9.87L906,314c-16.15,9.9-32.39,19.87-46.61,32.38l-.87,1.06c-8.1-4.16-16.25-8.35-25-11s-18.14-3.59-26.94-1.24l-.9.47c.6-8,.84-16.05-.35-24s-3.89-15.74-8.71-22.14a9.45,9.45,0,0,0-3.55-3.19c-3.08-1.34-6.58.44-9.35,2.35A74,74,0,0,0,766.08,306a103.47,103.47,0,0,0-23.65-2.74l10.84-14.39C767,279.48,783.68,275.91,799,269.5l-4.55-4.72a143.47,143.47,0,0,0-72.52-69.22c-3.78-1.6-7.73-3.11-10.72-5.93a29.19,29.19,0,0,1-5.3-7.58c-9.44-17.38-17.37-36.51-32.78-48.91-7.92-6.38-17.42-10.57-27.19-13.4-27.86-8.06-58.23-5.2-85.38,5s-51.27,27.41-72.18,47.51a15.2,15.2,0,0,1-5,3.64,14.7,14.7,0,0,1-6.54.35c-15.07-1.48-30.84-3.18-44.91,2.42a23.8,23.8,0,0,0-9.92,6.68,31.35,31.35,0,0,0-4.53,8.91q-11.79,31.32-20.42,63.7l-10.66,0c-26,6.55-51.3,15.32-76.59,24.07-12.17,4.21-24.6,8.56-34.69,16.55a58.16,58.16,0,0,0-21.66,41.74c-.83,14.7,3.18,32-7.32,42.29-4.91,4.81-11.87,6.7-18.3,9.11-31.39,11.75-55.05,39.49-67.33,70.68s-14.21,65.57-11.7,99l-.21,9.51a38.87,38.87,0,0,1,0,17.66c-16.94,8.48-27.65,25.47-37.5,41.65-10.87,17.84-21.84,35.9-28.25,55.78-14.27,44.23-4.64,92-1.69,138.42,3.3,52-2,104-5.22,156-1.26,20.43-2.19,41,.85,61.29,1.44,9.58,4.81,20.35,13.72,24.16s19-1.17,26.75-6.94c20.34-15.15,35.24-36.29,52.49-54.89l2.78-7.44,7.23-25.86c4.24-15.15,9-31.11,20.48-41.82,14-13,35.34-15.7,49.06-29l5.42-.42c2.62.07,4.9,1.88,6.39,4a53.83,53.83,0,0,1,3.53,7c2.4,4.82,6,8.92,9.13,13.31s5.86,9.35,6.09,14.73l-5.36,10.35c-6,20.53-9.84,43-2.17,63,2.66,6.9,6.6,13.26,9.2,20.19,6.34,16.92,4.16,35.69,1.89,53.62l3.92,7.71,10.94,4.33a55.36,55.36,0,0,1,16.88,48.09c2.69-6,7.06-11,11.36-15.94,11.11-12.74,22.52-25.73,37.26-34,9.45-5.32,19.93-8.49,30.42-11.23,7.9-2.06,16.19-4,22.38-9.36,5.24-4.5,8.39-10.88,11.83-16.87,11.14-19.43,26.38-36.15,41.93-52.27,4.46-4.62,9.55-9.5,15.95-9.94l-7.21-3.8A126.3,126.3,0,0,1,522,934.86c4.07-3,8.73-6.47,9.19-11.53a27.16,27.16,0,0,1,.23-4.14,13.53,13.53,0,0,1,2.08-3.91c4.37-6.83,5.06-15.37,4.48-23.45s-2.31-16.07-2.3-24.16c0-22.46,13.34-43,14.85-65.46l3-9.13q-7.9-17.33-15.82-34.65c-2.41-5.3-4.89-11.07-3.66-16.76s6.13-10.15,11.36-12.92c6.61-3.51,15.31-4.92,21.21-.32,5.39,4.2,6.57,11.88,6.15,18.7s-2,13.73-.54,20.4,7.49,13.09,14.22,11.9c6.37-1.14,9.71-8,14.46-12.39,5.13-4.74,12.16-6.7,18.9-8.51l21.73-5.81c4.44-1.19,9.12-2.38,13.59-1.28,6.12,1.52,10.38,6.94,13.89,12.18,17.57,26.23,28.62,56.19,39.51,85.83l4,7.86a21.22,21.22,0,0,1,6.62,13,2.56,2.56,0,0,0,.73,1.84,2.41,2.41,0,0,0,1.06.34A244.9,244.9,0,0,0,746,874.82a2.52,2.52,0,0,0,1.34-.21c1-.59.69-2.07.76-3.24.18-2.79,3.17-4.4,4.83-6.65,1.87-2.52,2-5.89,2.12-9q.17-6.36.34-12.73l-3.33-7.43a265.13,265.13,0,0,0-14.26-63.66,146.65,146.65,0,0,0,25.35,14c9.69,4.17,19.93,7.35,28.69,13.23,5.43,3.64,10.15,8.23,14.83,12.8,23,22.4,46,44.81,67.55,68.6,6,6.66,12.06,13.52,19.67,18.29,4.14,2.59,9.44,4.52,13.8,2.32,3.41-1.72,5.28-5.61,5.66-9.41s-.48-7.6-1.24-11.34A204.29,204.29,0,0,1,910.28,811l-.59-5.08q0-4.87,0-9.76l-1.29-9.77c2.57-2.95,3.24-7.06,3.51-11a78,78,0,0,0-3.77-29.79l-1.05-2.85c-6.43.47-12.72-1.66-18.81-3.77-10.63-3.67-21.3-7.36-31.31-12.46s-19.44-11.72-26.53-20.44l-1.66-.16c-6.93,4.66-15.67,5.51-24,6s-17.52.58-24.16-4.54a18.41,18.41,0,0,1-7.07-13.9l-1.2-.64c-5.5,2.62-11.78,3-17.88,2.94-4.67-.07-9.5-.44-13.67-2.56s-7.56-6.37-7.38-11l-.78-1.36A7.54,7.54,0,0,1,730,678l-.89.59a13.74,13.74,0,0,1-8.85-1,31.91,31.91,0,0,1-7.54-5c-3.34-2.78-6.74-6.38-6.54-10.72a15.4,15.4,0,0,1,2.09-6.09l.27-1c-1.78-.65-3.71-1.47-4.55-3.17-1.25-2.52.54-5.46,2.47-7.51a38.33,38.33,0,0,1,22-11.51l-.25-1.44a36,36,0,0,1,6-19.54l-.56.34a24.73,24.73,0,0,1-12.29-14.89,33.77,33.77,0,0,1,.21-19.56c1.38-4.65,3.86-9.33,8.19-11.51l1.74-1.21a14.67,14.67,0,0,1,6.4-7.3l2.46,4.31c.64-2.47,3.93-2.9,6.46-2.61a47.2,47.2,0,0,1,18.49,6.14,13.9,13.9,0,0,0,0-5.34l8.07,1a44.6,44.6,0,0,0,.31-8.72l0-.78c-5.49-2.94-9.27-8.55-10.77-14.59a35.18,35.18,0,0,1,.9-18.42,9.14,9.14,0,0,0,4.38.13l-.23-.48a50,50,0,0,1,.84-6.44l1.15-1.76a5.06,5.06,0,0,1,2.76-2.6,12.55,12.55,0,0,1,3.79-.83,64.06,64.06,0,0,1,8.54-.33,1.26,1.26,0,0,0,1.06-.28,1.32,1.32,0,0,0,.22-.71l.3-2.9a.71.71,0,0,1,.79-.8,30.94,30.94,0,0,1,5.61-.18l.62-1.13a41.41,41.41,0,0,1-.19-7.38,14,14,0,0,1,2.36-6.92,1.2,1.2,0,0,1,.65-.53c.24-.05.5.05.74,0s.46-.42.58-.72l1.71-4.23,0-.89A20.67,20.67,0,0,1,811,484c.72-2.35,1.92-5.12,4.37-5.41a6.17,6.17,0,0,1,2.09.23,42.52,42.52,0,0,1,13,5.59c.28-.93.57-1.86.85-2.79l3.79.07c-.05-1.44-.11-2.89-.16-4.33l1-1.75,5.94-2.06a2.92,2.92,0,0,0,1.29-.71c.8-.89.27-2.26,0-3.42-1-4,1.45-8,3.8-11.4.84-1.24,1.87-2.58,3.35-2.75,1.11-.13,2.29.44,3.32,0,1.32-.58,1.46-2.39,2.32-3.56,1-1.39,2.93-1.72,4.65-1.86a65.12,65.12,0,0,1,15.9.63l.32-.87A39,39,0,0,1,890.6,431a56.26,56.26,0,0,1,13.57,16.42,16.69,16.69,0,0,1,1.48-6.26,2.69,2.69,0,0,1,1.39-1.59,2.83,2.83,0,0,1,1.78.18,49.53,49.53,0,0,1,6.51,2.74q.78-4.47,1.58-8.93A19,19,0,0,1,930.32,438a27.64,27.64,0,0,1,13.16-15.51l.27-.51a62.11,62.11,0,0,1,7.64-15.12c3.61,2.26,7.88,3.23,11.63,5.25,7.86,4.25,12.64,12.8,14.59,21.52.85,3.79,1.78,8.37,5.41,9.74l.56-.33a37.51,37.51,0,0,1,3.8-18l6.32,3.53a5.66,5.66,0,0,0,2.06.83c1.89.23,3.56-1.55,3.92-3.42a11.58,11.58,0,0,0-.81-5.61,91.5,91.5,0,0,1,14.13,6l.09-5.27,4.47.39a10.93,10.93,0,0,0,.72-3.92,18.28,18.28,0,0,1,15.43,9l.89-.8c.38-7.83.9-16.08,5.25-22.59a1.23,1.23,0,0,1,2-.5,67.3,67.3,0,0,1,7.89,5.53,57.82,57.82,0,0,1,6.35-6.74,1.33,1.33,0,0,1,2.15-.05,17.7,17.7,0,0,1,5.22,7.38,17.42,17.42,0,0,0,1.55,3.66,3.51,3.51,0,0,0,3.36,1.71,15.86,15.86,0,0,1,4.29-9.95c5.08,5.33,5.84,13.34,6.32,20.69l5.49.61a6.46,6.46,0,0,1,9.79-7l1.28.1c4-2.43,9.09-2.68,13.69-1.7s8.88,3.08,13.1,5.17a3.34,3.34,0,0,1,1-3.56,9.72,9.72,0,0,1,3.4-1.9l12.65-5A77.32,77.32,0,0,1,1150,408a39,39,0,0,1,27.1,3.61,8.7,8.7,0,0,1,4,3.54c1.15,2.4.14,5.33-1.5,7.42a2.67,2.67,0,0,0-.62,1.08,2.58,2.58,0,0,0,.13,1.06l1.44,5.12,3,2.4.57-.39a5.77,5.77,0,0,1,5.35-.43,23.32,23.32,0,0,1,4.78,2.87,42.35,42.35,0,0,0,10.65,5.23c2.85.93,6.27,2,7.09,4.89.66,2.33-.81,4.75-2.6,6.39a10.85,10.85,0,0,1,4.89,5.27,43,43,0,0,1,7.08-.47,2.09,2.09,0,0,1,1.37.34,2.28,2.28,0,0,1,.59,1.19c.38,1.47.77,3,1.15,4.43l8.42-1.11,1-.13c1.41-3,4.9-4.2,8-5.15a36,36,0,0,1,5.51-1.35,40.76,40.76,0,0,0,4.28-.58,16.48,16.48,0,0,0,4.84-2.36,1.26,1.26,0,0,1,.88-.3c.44.07.65.56.79,1a19.6,19.6,0,0,0,1.57,3.95,5.09,5.09,0,0,0,3.28,2.52l1.32-.18a25.37,25.37,0,0,0,8.56-.14c2-.39,4.06-1,6.05-.57a11.11,11.11,0,0,1,3.81,2q5,3.5,9.81,7.27l.14-.49a3.65,3.65,0,0,0,3.67-4.7Zm-574.61-61.6c-3.93-3.82-9.35-6.32-14.82-6l-.21-1.28q4.77-11.1,9.56-22.18c2.47-5.72,5.33-11.88,10.88-14.72l-10.71-1,.57-.56a32.11,32.11,0,0,0,2.33-15.1,96,96,0,0,0-2.59-15.2c-.67-3-1.35-5.94-2-8.92l1.26-1.7c.5-.71,1.74-.23,2,.59a4.75,4.75,0,0,1-.18,2.55,10.07,10.07,0,0,0,.39,5.57,7.7,7.7,0,0,1,6.47,1.71,24.9,24.9,0,0,1,4.54,5.21c5.28,7.24,11.55,14.37,20,17.25l-.25,1.33a46,46,0,0,0-20.41,32.18c-.37,2.82-.7,6.06-3,7.69,8.08,3,17.15-2.3,25.61-.62l1.07.07q-7.69,11.19-16.11,21.86c-1.71,2.16-3.58,4.41-6.19,5.29A33.94,33.94,0,0,0,722.24,396.54Zm12.75,43a18.46,18.46,0,0,0-2.85-10.12l-.77-1.2A42.58,42.58,0,0,0,753,410.51c-1.87,9.44-3.67,19.63.35,28.38A33.15,33.15,0,0,0,735,439.54Zm61.51-33.76a25.34,25.34,0,0,0-22.37-11.52l-1.52.35a29.23,29.23,0,0,0,12.93-20.2c2.43,11.54,12,20.53,22.67,25.49A65.46,65.46,0,0,0,796.5,405.78ZM581.13,1756.28l-4.58-8.1a332.05,332.05,0,0,0-44.85-37.57,8.23,8.23,0,0,0-8-1.79l-11.14,1.94a5.1,5.1,0,0,0-2.29.79,5,5,0,0,0-1.45,2.61l-10.6,33c-2.06,6.41-4.12,12.82-6.66,19.05-5.06,12.41-12,24-16.52,36.61-8.58,23.83-8.68,51.16-23.22,71.89l.28,1.08a19.75,19.75,0,0,1,6.48,9.11l1.54.87,27.27-28c4.91-5,10.23-11.78,7.79-18.4,5.57.86,11.25-1.36,15.81-4.69s8.22-7.7,12-11.85c14.1-15.31,30.82-27.93,46.74-41.34,3.11-2.62,6.26-5.35,8.24-8.91C580.73,1767.64,581,1761.84,581.13,1756.28Zm248.12,230.55h5.67a4.4,4.4,0,0,1,4.73,1.84,12.92,12.92,0,0,1,1.89,5c3.56,16.13,7.06,32.72,4.62,49.07l-2,7L838,2062.35q-37.49,50.51-74.37,101.46c-6.64,9.18-13.53,19.06-14.17,30.37-.83,14.79,9,30.65,1.77,43.56-7.62,13.53-28.17,12.86-39,24-4.57,4.67-7,11-9.52,17-5.52,13-12.32,25.34-19.11,37.69-30.6,55.67-62.85,113.25-114.52,150.21-6.54,4.68-16.32,8.72-21.79,2.83-2.47-2.66-3.15-6.7-5.88-9.09-5.27-4.64-13.37-.15-20.39-.37-11.71-.37-18.48-14.39-17.42-26.06,1.89-20.77,18.63-36.54,33.19-51.46a400.77,400.77,0,0,0,98.63-171.3c1.93-6.92,3.69-14,3.46-21.17-.26-8.49-3.27-16.61-5.73-24.75-14.1-46.75-10.28-96.78-6.33-145.45l-9.09-12.14a66.23,66.23,0,0,1-15.84-36.38c-.68-6.47-.54-13.5-4.37-18.77-2.34-3.23-5.88-5.33-9.36-7.28q-10-5.62-20.52-10.45l-1.67.37a40.39,40.39,0,0,0-2.23-10.69A29.67,29.67,0,0,0,553.57,1912a83.78,83.78,0,0,0-14.17-8,48.53,48.53,0,0,0-9.87-3.81,49.26,49.26,0,0,0-11.12-.78c-6.55,0-13.19.08-19.49,1.86-9.21,2.61-17.14,8.77-26.43,11.08l.39-1.65,35-28a20.55,20.55,0,0,0,4.75-4.74c2.18-3.44,2.13-7.79,2-11.86l0-.61a7.84,7.84,0,0,0,6.58,0,23.21,23.21,0,0,0,5.65-3.74,165.63,165.63,0,0,0,16.68-14.85c2-2.12,3.85-4.34,5.94-6.35a86.33,86.33,0,0,1,7.54-6.21l20-15.17a57.9,57.9,0,0,1,10.39-6.77,19.31,19.31,0,0,1,12.09-1.76l3.16,7.57a63.83,63.83,0,0,1-1.19,14.66l-2.74,7.64-.17,17.32a88.58,88.58,0,0,0,.67,14.57c1,6.33,3.38,12.36,5.74,18.32l6.87,17.38c1.16,2.94,2.4,6,4.74,8.1l4.69-2c1.31-3.09,4.26-5.18,7.28-6.63s6.29-2.45,9.14-4.23a5.76,5.76,0,0,0,2.07-1.91,6.89,6.89,0,0,0,.67-2.7q2-19.53,4.1-39.08l4.18-10.86a41.19,41.19,0,0,1,4.54-15.28c1.45-2.76,3.22-5.38,4.14-8.35a31.68,31.68,0,0,0,1.06-6.66q1.94-22.77,3.89-45.54l2.78-5.42c3.93-1.85,7.77-3.86,11.54-6q8-4.58,15.62-9.91a12.28,12.28,0,0,1,3.15-1.78,11.47,11.47,0,0,1,3.56-.34,25.2,25.2,0,0,1,7.3.77,8.52,8.52,0,0,1,5.49,4.55l3,7-.48,20.26c1.19,25-8.24,49-12.33,73.67-3,18-3.12,36.27-6.23,54.19a40.3,40.3,0,0,1,26.87,15.32l27-18.4,8.33-5.47,10,11.38a15.87,15.87,0,0,1,2.72,3.81c1.18,2.62.83,5.64.63,8.51a25,25,0,0,0,1.05,10.5c.85,2.28,2.25,4.35,2.9,6.69a29.87,29.87,0,0,1,.61,6.75L761.14,1965a92.94,92.94,0,0,1-43.6,48.07c-6.91,3.54-14.28,6.22-20.8,10.42-2.27,1.46-4.5,3.2-5.68,5.62s-1.18,5.09-1.18,7.71v40c0,6.33,0,12.67.53,19a22.84,22.84,0,0,0,2,8.55c1.33,2.63,3.8,4.85,6.73,5.14,4.07.41,7.53-2.81,10.25-5.88,13.56-15.34,24.21-33,36.8-49.17,17.63-22.63,38.92-42.11,60.1-61.47Zm-480.9-377.47a10.41,10.41,0,0,1,3.11,1.25,15.22,15.22,0,0,1,2.54,2.71c2.95,3.38,7.47,5.18,10.09,8.83a23.54,23.54,0,0,1,2.82,6.3c3.42,10.1,7.5,20.45,15.33,27.69a49.63,49.63,0,0,0,8.25,6,83.86,83.86,0,0,0,53.2,11.08l1.57-.07a58.84,58.84,0,0,0,8.23,22.95,41.56,41.56,0,0,0,18.19,16l.24,2.84c-10.41,23.45-15.68,48.79-23.35,73.28-7.93,25.35-18.48,49.87-25.37,75.52l-2.43-.51a47,47,0,0,0-25.6,3.7,76.35,76.35,0,0,0-21.58,14.63l-1.19.8c-1.61-13.62-8.76-26.36-19-35.45a68.77,68.77,0,0,0-37.12-16.23c-6.33-.78-12.85-.73-18.95,1.13-12.55,3.84-21.51,14.71-29.1,25.42-1.95,2.75-3.95,5.83-3.69,9.2-12.56-4.23-26.93-3.67-38.52,2.74s-19.92,19-20,32.2l-8.68,9.76-9.28,5c-20.68,7.91-46.41-.8-58-19.66-1.5-2.44-3-5.23-5.78-6.06-2.92-.88-6,.87-8.38,2.73-13,10-21.32,24.87-33.66,35.62s-29.44,17-45.36,13.23-29.27-19.13-27.72-35.42c9.71,2,18.84-6.18,22.87-15.23s4.76-19.23,8.24-28.5c7.77-20.7,27.94-34,48.06-43.15,6.24-2.84,13-5.81,16.41-11.79,2.12-3.75,2.57-8.19,2.84-12.48,1.59-24.58-.88-49.58,4.38-73.63,1.72-7.9,4.39-15.84,9.71-21.93,7.26-8.31,18.53-12.16,26.14-20.15,8.45-8.89,11.48-21.9,20-30.75,13.46-14.05,35.52-13.41,54.86-15.59,29.64-3.36,57.48-15.51,84.66-27.82Z"></path>
    <path data-name="4a" data-official="" data-plain="Flower" data-loc="" d="M595.4,2699.43q-2.71-57.41-7.26-114.7c-.43-5.39-1.31-11.56-5.86-14.48a14.36,14.36,0,0,0-7.69-1.82c-16.8-.13-31.93,11.22-48.71,11.84a18.39,18.39,0,0,1-9.75-1.86c-4.72-2.67-7.1-8.39-7.08-13.81s2.05-10.63,4.38-15.53c17.72-37.27,55.24-64.39,96.18-69.53,13.86-1.74,28.38-1,41.13,4.71,8.52,3.82,15.92,9.72,23.07,15.73,24.73,20.77,49,45.89,54.3,77.75,1.77,10.56.07,23.61-9.52,28.37-7.24,3.59-16.3.71-22.42-4.58s-10.08-12.56-14.45-19.36-9.65-13.54-17.1-16.68c-6,8.82-6.66,20.05-7,30.68-.51,19-.28,38.05,0,57.08.14,11.43.29,23,3,34.08,2.12,8.85,5.81,17.34,7.12,26.35a77.09,77.09,0,0,1-.18,20.13c-.36,3-.84,6.17-2.45,8.78-2.08,3.38-5.78,5.42-9.46,6.9-12.47,5-26.33,5.18-39.71,4.09-6.46-.53-13.51-1.65-17.78-6.53-8.35-9.52-.15-24.64-3.23-36.92Z"></path>
    <path data-name="4b" data-official="" data-plain="Pistil" data-loc="" d="M762.33,2593.48c-.42-13-.84-26.08-1.41-39.12-.41-9.38-.92-18.86-3.55-27.87-2.51-8.6-6.89-16.53-9.88-25s-4.49-17.94-1.15-26.25,12.82-14.58,21.35-11.85c8.11,2.6,12.12,11.56,14.65,19.69,10.83,34.85,12.2,71.88,11.83,108.37-.07,7.27-.08,15,3.88,21.14,3.32,5.12,9,8.27,12.84,13,8.49,10.25,6.87,26.13-.37,37.3-4,6.16-9.49,11.42-12.29,18.21-6.34,15.41,3.06,32.94.91,49.47a18.57,18.57,0,0,1-3.3,9c-2.57,3.34-6.63,5.15-10.61,6.52a84.21,84.21,0,0,1-45.81,2.5,25.81,25.81,0,0,1-9.61-3.81c-6.11-4.42-8.12-13-6.3-20.36s6.8-13.46,12.42-18.49c3.28-3,6.9-5.68,9.2-9.44,4.07-6.65,3.24-15.22.76-22.6s-6.47-14.23-8.51-21.74c-4.67-17.1,2.07-36.72,16.24-47.36Z"></path>
    <path data-name="4c" data-official="" data-plain="Section of Ovary" data-loc="" d="M837.85,2682.84a111.37,111.37,0,0,1-1.7-75.84c6.32-18.51,17.61-35.58,19.82-55,2.39-21-6.17-41.68-7.37-62.79-.41-7.32.16-15,3.81-21.34a32.08,32.08,0,0,1,8.73-9.44c8-6,19.22-9.29,27.88-4.36,6.21,3.53,9.74,10.6,10.79,17.67s0,14.25-1,21.33q-3,22.41-4.58,45c-.41,5.94-.74,12,.92,17.73,2.27,7.87,8,14.19,11.84,21.44,6.59,12.46,7.26,27.09,7.79,41.17.81,21.43,1.42,43.86-7.94,63.16-3.23,6.66-7.67,13-8.52,20.37-.91,7.82,2.38,15.43,4.38,23,1.78,6.77,2.55,13.95.9,20.75s-6,13.16-12.33,16.1c-3.74,1.73-7.92,2.19-12,2.53a235.84,235.84,0,0,1-34.86.29,6.6,6.6,0,0,1-3.4-.87,5.94,5.94,0,0,1-2-3.65,28,28,0,0,1,7.92-26.45c3.23-3,7.52-5.82,8-10.23.27-2.58-.91-5.07-2.12-7.36a153.68,153.68,0,0,0-13.59-21.42Z"></path>
    <path data-name="5" data-official="Ixora coccinea" data-plain="Scarlet Ixora" data-loc="East Indies" d="M665.09,1767.53l-2.78,5.42q-1.95,22.77-3.89,45.54a31.68,31.68,0,0,1-1.06,6.66c-.92,3-2.69,5.59-4.14,8.35a41.19,41.19,0,0,0-4.54,15.28l-4.18,10.86q-2.06,19.54-4.1,39.08a6.89,6.89,0,0,1-.67,2.7,5.76,5.76,0,0,1-2.07,1.91c-2.85,1.78-6.11,2.77-9.14,4.23s-6,3.54-7.28,6.63l-4.69,2c-2.34-2.12-3.58-5.16-4.74-8.1l-6.87-17.38c-2.36-6-4.74-12-5.74-18.32a88.58,88.58,0,0,1-.67-14.57l.17-17.32,2.74-7.64a63.83,63.83,0,0,0,1.19-14.66l-3.16-7.57,8.41-6.16c8.11-7.33,17.33-13.29,26.51-19.23l11.8-7.63c2.49-1.62,5-3.23,7.6-4.66C657.45,1770.92,661.31,1769.3,665.09,1767.53ZM482.44,2156.11c-20.53,41.4-1,95.93-26.57,134.44-3.81,5.76-8.56,11-11.23,17.35-3,7.22-3.11,15.31-2.66,23.12.3,5.35,1.32,11.48,5.93,14.21,2.27,1.36,5,1.58,7.67,1.69,9.54.36,20-.88,26.78-7.6,7.26-7.19,8.85-19.27,17.38-24.89,5.2-3.43,12-3.69,17.25-7,9.53-6,10.62-19.23,11-30.5,3.71-102.63,34.32-202.38,70.31-298.56l3.56-7.1c-.68-6.47-.54-13.5-4.37-18.77-2.34-3.23-5.88-5.33-9.36-7.28q-10-5.62-20.52-10.45l-1.67.37a86.76,86.76,0,0,1,.44,16.74c-1.65,18.3-13.38,35.57-30.16,43.06l-.4,1.09a49.48,49.48,0,0,1-12.61,41.27l-1.53,1.4c8.13,2,14.61,8.61,18.12,16.22s4.36,16.2,4.24,24.59c-.1,6.64-.8,13.35-3.14,19.57-3.37,9-10,16.45-17.74,22.14a110.82,110.82,0,0,1-24.4,13.36Zm873-994c2-2.35,3.88-4.73,5.69-7.19q1.3-1.77,2.56-3.59l-.56-2.33a400.44,400.44,0,0,0-48.07-86.8c-2.61-3.57-5.37-7.32-5.94-11.71l-1.2-1.19c-5.71-.61-10.79-3.74-15.65-6.79-10.81-6.78-21.87-13.78-29.58-24l-2.24-.44a124.36,124.36,0,0,0,7.47,43.42,98.78,98.78,0,0,0,15,27.6c7.48,9.48,16.94,17.17,26.32,24.77,5.46,4.42,11,8.86,17,12.42,5.44,3.2,11.34,5.69,16.3,9.59a35.47,35.47,0,0,1,12.92,21.91Zm294.79-5.41v-10.06l-.44-.76a11.47,11.47,0,0,1-8.56-4.62,14.41,14.41,0,0,1-2.74-9.45,3.48,3.48,0,0,0-.11-1.51c-.33-.83-1.25-1.22-1.92-1.8a2.39,2.39,0,0,1-.85-2.43,1.38,1.38,0,0,1,2.17-.64l1.66-2.11c-1.4-.5-3-.49-4.33-1s-2.61-2-2.1-3.44c6-1.64,12.46-.22,18.73-.27,1,0,2.42-.55,2.12-1.52l-2.65-8.87c-3.26-5.09-7.84-9.16-12.08-13.46a135,135,0,0,1-21.77-29.07l-10.31.59A357,357,0,0,0,1506.67,1017l-7.72-5.81c-6.53,9.92-19.29,15-24,26-1.38,3.23-2,6.73-3,10.09-3.8,12.48-14,23.59-12.56,36.55-5.65-5.77-14.79-5.45-22.83-6.19-13.14-1.22-25.59-6.26-37.56-11.8-8.57-4-17.15-8.26-26.45-9.82-12.26-2-25.08.76-37.15-2.21l-1.49.7a349.27,349.27,0,0,1,42.5,77.06l.73,2.32a33.62,33.62,0,0,1,7.06-5.26c5-2.73,10.56-4,15.9-5.82,7.68-2.68,14.95-6.73,23-8.07,5.78-1,11.69-.48,17.53,0,11.76,1,23.71,2,34.74,6.22,7.5,2.85,14.39,7.09,21.12,11.45a107.62,107.62,0,0,1,14.9,11.05,24.39,24.39,0,0,1,5.89,7.52c4,8.68-.62,19.66,3.93,28l3.8-6a82.37,82.37,0,0,1,1.09-25.26,166.11,166.11,0,0,1,5.15-18.35c2.57-8,5.13-16.1,5.79-24.48.27-3.47.21-7,1-10.39,1.49-6.7,6-12.27,10.31-17.57,1.89-2.3,3.85-4.67,6.5-6s6.18-1.44,8.34.6c1.17,1.1,1.79,2.65,2.9,3.81.89.92,2.05,1.55,3,2.46,1.94,1.91,2.52,4.79,4,7.11,2.84,4.6,8.49,6.39,13.55,8.29,13.86,5.21,26.68,14,34.79,26.4s11,28.56,5.75,42.39l.44.42a17.93,17.93,0,0,1,8.63,1.82,39.84,39.84,0,0,1,.07-8.17,3.64,3.64,0,0,1,1-2.52,3.2,3.2,0,0,1,1.81-.58,9.81,9.81,0,0,1,8.28,3.63Zm12.08-3.71c4.18.91,7.29,4.83,8,9s-.62,8.58-2.88,12.21c-.68,1.08-1.24,2.86,0,3.32a2.32,2.32,0,0,0,.74.1,12.1,12.1,0,0,1,9.92,18.23,6.83,6.83,0,0,0-.78,1.58c-.16.63-.07,1.31-.25,1.94-.44,1.47-2.26,2.09-3.78,1.89-3.45-.46-5.74-3.71-7.5-6.71s-3.78-6.34-7.16-7.19c-.49,5.16-1.46,11.09-5.93,13.7-.4.23-1,.41-1.28.08a1.11,1.11,0,0,1-.21-.84,10.36,10.36,0,0,0-1.14-5.67,28.35,28.35,0,0,0-3.22-3.36,9.41,9.41,0,0,1-2.42-6,11.81,11.81,0,0,1-3.81,7.25,10,10,0,0,1,2.15,7.44,3.76,3.76,0,0,0,.11,2.33c.7,1.25,2.85,1.28,3.24,2.65a6,6,0,0,1,7,2.91l2.1,1.1a5.49,5.49,0,0,1,4.68.13,16.09,16.09,0,0,1,3.92,2.81,25.16,25.16,0,0,1,4.43,4.62,8.39,8.39,0,0,1,1.54,6.06l.62,2.65c4,3.53,6.21,8.88,6.61,14.23a36.33,36.33,0,0,1-2.8,15.71c12.92,2.23,23,15.18,22.12,28.25l-.32,2a47.73,47.73,0,0,1-25.54.09c.9,2.9,1.24,6.18-.15,8.87-2.17,4.16-7.57,5.39-12.25,5.23a16.78,16.78,0,0,1-7.37-1.66c-4.65-2.48-6.82-7.9-8.22-13a100.71,100.71,0,0,1-2.61-12.63l-2.34-.54c-3.45.3-6.63-2.26-8.15-5.37s-1.75-6.66-1.95-10.12a17.82,17.82,0,0,1-7.59.13l-1.16.35a98.82,98.82,0,0,1,11,47.34c-.07,3.16-.29,6.32-.24,9.48.16,10.51,3.28,21,1.72,31.41l-1.08,4.46q10.13,6.16,19.88,12.91l1,.5c4.23-1.68,9.33-3.17,13-.54l6,1.42a25.14,25.14,0,0,1,18.89,22.14c.84-1.72,2.62-2.75,4.24-3.79a46.76,46.76,0,0,0,14.35-14.41c2.44-3.85,4.37-8.14,7.73-11.22l3.71,1.7,1.21-3.68c4.94-7.09,10-14.61,10.9-23.21l.8-4.2c-2.19-3.94-4.42-8-5.1-12.43-1-6.54,1.39-13.06,3.79-19.23,3.45-8.88,7-18,7.07-27.52a69.31,69.31,0,0,0-1.34-12.43c-1.06-6.12-2.51-12.61-7-16.9l-.84-.74c-4.2,1-8.62,1.55-12.5-.18a9.75,9.75,0,0,0-2.22-.87,8.88,8.88,0,0,0-1.93,0,15.93,15.93,0,0,1-8.17-1.88c7.37,1,14.84-3.33,18.73-9.67s4.55-14.27,3.23-21.59l-1.75-7.23a399.15,399.15,0,0,0-24.5-47.78l-3.75-4-5.72-8.16a3.06,3.06,0,0,0-1.63-1.41c-1.38-.3-2.34,1.26-3.11,2.44-1.92,3-5.25,4.75-8.68,5.6a7.06,7.06,0,0,1-3.81.12,3.11,3.11,0,0,1-2.32-2.77l-4,.2c-.69,1.93-.08,4.1-.46,6.11-.47,2.44-2.33,4.37-4.35,5.81ZM945.4,1191l-2.65,5.34c-.65,11.55-4.53,22.65-8.73,33.43-1.35,3.45-2.88,7.09-5.93,9.19.08,1.63.16,3.25.23,4.88,2.75-.41,5.41,1.8,6.19,4.46a10.89,10.89,0,0,1-1.25,8c6.29,7.88,9.28,17.81,12.14,27.48l7.5-4.44a29.72,29.72,0,0,0,2.35-4.11,35.93,35.93,0,0,1,11.1-12.5l1.43-5.61q4.77-7.82,9.53-15.63c3.21-5.26,6.56-10.67,11.59-14.23l1.88-6.76q5.64-9.62,11.3-19.22a19.6,19.6,0,0,1,3-4.23,12.47,12.47,0,0,1,9.68-3.11l7.74-4.24a204.36,204.36,0,0,0,32.31-20.31c2.85-2.19,5.82-4.54,9.37-5.1,4.68-.75,9.18,1.73,13.42,3.84a105.57,105.57,0,0,0,49.09,11l15.58-1.73,3.68-2.09,32.2-8.83a6,6,0,0,1,2.57-.31c2,.34,3.12,2.54,3.88,4.46l.73,5.82,7.26,3.56a285.82,285.82,0,0,0,37.76,32.23A118.22,118.22,0,0,0,1246,1222c24,12,52.79,10.12,78.71,3.12l12.57-8.74c-6-10.12-3.4-23.33,2.42-33.53a86.09,86.09,0,0,1,7.69-11.07l-.57-1.54c-2.53-8.45-5.28-17.29-11.56-23.48-3.22-3.17-7.19-5.46-11.08-7.75-22.45-13.18-44.9-28.29-58.63-50.41-6.82-11-11.21-23.33-15.54-35.54-4.92-13.89-9.92-28.23-9.13-42.94l-.83-3.47a24.77,24.77,0,0,1-7.4-9.86l-12.52-1.24c-17,5.74-32.23,15.55-47.29,25.26l-5.83,3.87c-17.28,25.15-47.64,37.21-71.86,55.76-9.87,7.56-18.78,16.27-27.67,25L1040,1132.32q22.82-52.82,42.25-107l-2.33-6.86-5.55-5.48q13-52.94,21.22-106.9c1.07-7.07,2.09-14.23,1.34-21.34l1.22-1.71c4.58-1.67,9.22-3.78,12.33-7.53,5.35-6.43,5-16.21,10.34-22.69,2.69-3.28,6.53-5.35,10.28-7.35l16.67-8.87,1.19-.28a122.15,122.15,0,0,0,66.17,31.48,22,22,0,0,1,6.58,1.55,6.62,6.62,0,0,1,4,5.13l5.21-2.87c15.71,6.69,33.59,6.71,50.36,3.46S1314,865.47,1330,859.7q13.67-4.91,27.52-9.29c5-1.59,10.06-3.13,15.28-3.44,11.81-.7,23,4.89,34.62,7.09,21.68,4.11,44.24-3.65,66,.13l8.82-3.48c9.78.46,18.07-6.52,26.79-11,20.39-10.43,45.5-7.14,66.37,2.29s38.66,24.36,57.19,37.83l23.76,4.53,7.48-2.41c4.11-2.17,9.12-2.17,13.6-.89s8.52,3.71,12.42,6.26l4.56,4,7.28,0c5.22-2,11.15.18,15.8,3.3s8.68,7.18,13.74,9.58c6.57,3.11,14.12,3.08,21.36,3.78A100.7,100.7,0,0,1,1810,933.35l9.08-.73a25.79,25.79,0,0,0-2.55-9.43c-2.11-4.31-5.36-7.93-8.43-11.61a179.83,179.83,0,0,1-23.18-35.7c-4.79-9.74-8.83-20.12-16.19-28.1s-17.75-13.16-23.69-22.28c-3.13-4.81-4.81-10.42-7.57-15.45-7.32-13.34-21.31-21.31-32.86-31.23-6.34-5.44-12.07-11.63-18.89-16.46-6-4.25-12.71-7.39-18.47-11.92s-10.68-11-10.91-18.3l-19.09-3.37c-29.69-6.48-57.58-19.25-85.19-31.93,4.15-7.42,3.35-16.83,0-24.63s-9.06-14.37-14.64-20.79c7.22-4.49,11-13.17,11.53-21.66s-1.92-16.88-4.81-24.87c-1.93-5.34-4.15-10.7-7.86-15-6.11-7.09-15.39-10.38-24-14.17a15.2,15.2,0,0,1-4.19-2.46,16.55,16.55,0,0,1-3.23-5c-5.16-10.32-11.52-20.36-20.67-27.4s-21.51-10.69-32.51-7.19a24.85,24.85,0,0,1-6,1.6,14.39,14.39,0,0,1-6-1.27c-7-2.72-13.23-7-20-10.34s-14.42-5.59-21.71-3.84l-5.79-8.32a31.69,31.69,0,0,0-36.62-38.27,42,42,0,0,0-32.55-25.12l-11.81-3.05c-1.23,1.6-2.56,3.26-4.43,4s-4.43.22-5.21-1.65a25,25,0,0,1-4.77,10.66l-.51,3.08a3.65,3.65,0,0,1-3.67,4.7l-.14.49-2.25,4.36a89.48,89.48,0,0,1-6.59,7.83,20,20,0,0,1-6,4.75,22.24,22.24,0,0,1-2.56.92l-9.15,2.9a19.13,19.13,0,0,0-1.46-7.76c-.77-1.86-1.84-3.59-2.61-5.45a19.27,19.27,0,0,1-1.26-10.29l3.62-5.8-1.32.18a5.09,5.09,0,0,1-3.28-2.52,19.6,19.6,0,0,1-1.57-3.95c-.14-.42-.35-.91-.79-1a1.26,1.26,0,0,0-.88.3,16.48,16.48,0,0,1-4.84,2.36,40.76,40.76,0,0,1-4.28.58,36,36,0,0,0-5.51,1.35c-3.15.95-6.64,2.18-8,5.15l-1,.13-8.42,1.11c-.38-1.48-.77-3-1.15-4.43a2.28,2.28,0,0,0-.59-1.19,2.09,2.09,0,0,0-1.37-.34,43,43,0,0,0-7.08.47,10.85,10.85,0,0,0-4.89-5.27c1.79-1.64,3.26-4.06,2.6-6.39-.82-2.89-4.24-4-7.09-4.89a42.35,42.35,0,0,1-10.65-5.23,23.32,23.32,0,0,0-4.78-2.87,5.77,5.77,0,0,0-5.35.43l-.57.39-3-2.4-1.44-5.12a2.58,2.58,0,0,1-.13-1.06,2.67,2.67,0,0,1,.62-1.08c1.64-2.09,2.65-5,1.5-7.42a8.7,8.7,0,0,0-4-3.54A39,39,0,0,0,1150,408a77.32,77.32,0,0,0-10.6,3.59l-12.65,5a9.72,9.72,0,0,0-3.4,1.9,3.34,3.34,0,0,0-1,3.56c-4.22-2.09-8.49-4.2-13.1-5.17s-9.65-.73-13.69,1.7l-1.28-.1a6.46,6.46,0,0,0-9.79,7l-5.49-.61c-.48-7.35-1.24-15.36-6.32-20.69a15.86,15.86,0,0,0-4.29,9.95,3.51,3.51,0,0,1-3.36-1.71,17.42,17.42,0,0,1-1.55-3.66,17.7,17.7,0,0,0-5.22-7.38,1.33,1.33,0,0,0-2.15.05,57.82,57.82,0,0,0-6.35,6.74,67.3,67.3,0,0,0-7.89-5.53,1.23,1.23,0,0,0-2,.5c-4.35,6.51-4.87,14.76-5.25,22.59l-.89.8a18.28,18.28,0,0,0-15.43-9,10.93,10.93,0,0,1-.72,3.92l-4.47-.39-.09,5.27a91.5,91.5,0,0,0-14.13-6,11.58,11.58,0,0,1,.81,5.61c-.36,1.87-2,3.65-3.92,3.42a5.66,5.66,0,0,1-2.06-.83L987.38,425a37.51,37.51,0,0,0-3.8,18l-.56.33c-3.63-1.37-4.56-6-5.41-9.74-2-8.72-6.73-17.27-14.59-21.52-3.75-2-8-3-11.63-5.25A62.11,62.11,0,0,0,943.75,422l-.27.51A27.64,27.64,0,0,0,930.32,438a19,19,0,0,0-13.41-4.45q-.79,4.46-1.58,8.93a49.53,49.53,0,0,0-6.51-2.74,2.83,2.83,0,0,0-1.78-.18,2.69,2.69,0,0,0-1.39,1.59,16.69,16.69,0,0,0-1.48,6.26A56.26,56.26,0,0,0,890.6,431a39,39,0,0,0-13.74,18.65l-.32.87a65.12,65.12,0,0,0-15.9-.63c-1.72.14-3.63.47-4.65,1.86-.86,1.17-1,3-2.32,3.56-1,.45-2.21-.12-3.32,0-1.48.17-2.51,1.51-3.35,2.75-2.35,3.41-4.8,7.39-3.8,11.4.29,1.16.82,2.53,0,3.42a2.92,2.92,0,0,1-1.29.71L836,475.63l-1,1.75c0,1.44.11,2.89.16,4.33l-3.79-.07c-.28.93-.57,1.86-.85,2.79a42.52,42.52,0,0,0-13-5.59,6.17,6.17,0,0,0-2.09-.23c-2.45.29-3.65,3.06-4.37,5.41a20.67,20.67,0,0,0-11.59-4.5l0,.89-1.71,4.23c-.12.3-.27.63-.58.72s-.5,0-.74,0a1.2,1.2,0,0,0-.65.53,14,14,0,0,0-2.36,6.92,41.41,41.41,0,0,0,.19,7.38l-.62,1.13a30.94,30.94,0,0,0-5.61.18.71.71,0,0,0-.79.8l-.3,2.9a1.32,1.32,0,0,1-.22.71,1.26,1.26,0,0,1-1.06.28,64.06,64.06,0,0,0-8.54.33,12.55,12.55,0,0,0-3.79.83,5.06,5.06,0,0,0-2.76,2.6l-1.15,1.76a50,50,0,0,0-.84,6.44l.23.48a9.14,9.14,0,0,1-4.38-.13,35.18,35.18,0,0,0-.9,18.42c1.5,6,5.28,11.65,10.77,14.59l0,.78a44.6,44.6,0,0,1-.31,8.72l-8.07-1a13.9,13.9,0,0,1,0,5.34,47.2,47.2,0,0,0-18.49-6.14c-2.53-.29-5.82.14-6.46,2.61l-2.46-4.31a14.67,14.67,0,0,0-6.4,7.3l-1.74,1.21c-4.33,2.18-6.81,6.86-8.19,11.51a33.77,33.77,0,0,0-.21,19.56A24.73,24.73,0,0,0,733.61,612l.56-.34a36,36,0,0,0-6,19.54l.25,1.44a38.33,38.33,0,0,0-22,11.51c-1.93,2.05-3.72,5-2.47,7.51.84,1.7,2.77,2.52,4.55,3.17l-.27,1a15.4,15.4,0,0,0-2.09,6.09c-.2,4.34,3.2,7.94,6.54,10.72a31.91,31.91,0,0,0,7.54,5,13.74,13.74,0,0,0,8.85,1L730,678a7.54,7.54,0,0,0,2.68,2.87l.78,1.36c-.18,4.67,3.21,8.92,7.38,11s9,2.49,13.67,2.56c6.1.09,12.38-.32,17.88-2.94l1.2.64a18.41,18.41,0,0,0,7.07,13.9c6.64,5.12,15.79,5,24.16,4.54s17.08-1.36,24-6l1.66.16c7.09,8.72,16.51,15.33,26.53,20.44s20.68,8.79,31.31,12.46c6.09,2.11,12.38,4.24,18.81,3.77l1.05,2.85A78,78,0,0,1,912,775.44c-.27,3.9-.94,8-3.51,11l1.29,9.77q0,4.89,0,9.76l.59,5.08,5.9-3.24a55.3,55.3,0,0,0,29.1,16.13l13.8-1.71a7.73,7.73,0,0,1,4.4-1c2.54.39,4.28,2.87,6.74,3.63,1.13.36,2.37.32,3.49.74a12.82,12.82,0,0,1,2.78,1.74,32.93,32.93,0,0,0,5.63,3c15.09,6.81,30.25,13.64,46.21,18l2.68.12a324.38,324.38,0,0,1,22.52,27.28c3,4.09,6,8.44,6.92,13.46a34.51,34.51,0,0,1,.25,7.33l-.81,22.44c-.56,15.66-1.16,31.51-5.49,46.58a26.94,26.94,0,0,0-1.51,7.55,34,34,0,0,1,.16,4.72,13.8,13.8,0,0,1-1.09,3.52L1046,996l-6.72,3.55-7.74-3.37a399.32,399.32,0,0,1-48.72,76.56l-3.68,2.9c-3.62.85-7.66,1.66-10.88-.21s-4.5-5.7-5.58-9.22l-3.43-11.31c-1.6-5.23-3.2-10.57-3.2-16,0-5.23,1.45-10.68-.43-15.56l2.57-6.75a204.56,204.56,0,0,1-20.66-52.31l-6.29-11.91c-14.2-18-28.48-36.18-45.4-51.71s-36.74-28.47-58.94-34.33c-20.11-5.31-41.27-4.64-62-3.26L753,864.72c-1.66,2.25-4.65,3.86-4.83,6.65-.07,1.17.25,2.65-.76,3.24a2.52,2.52,0,0,1-1.34.21A244.9,244.9,0,0,1,721,872.48a2.41,2.41,0,0,1-1.06-.34,2.56,2.56,0,0,1-.73-1.84,21.22,21.22,0,0,0-6.62-13l-8-2a138,138,0,0,1-28.19-17c-6.35-4.94-12.31-10.47-19.29-14.48-5.29-3-11.06-5.14-16.8-7.22-6.4-2.33-12.83-4.66-19.53-5.9a123.67,123.67,0,0,0-17.73-1.51l-47.95-1.77-4.57-5.24c-1.51,22.41-14.81,43-14.85,65.46,0,8.09,1.72,16.09,2.3,24.16s-.11,16.62-4.48,23.45a13.53,13.53,0,0,0-2.08,3.91,27.16,27.16,0,0,0-.23,4.14c-.46,5.06-5.12,8.5-9.19,11.53a126.3,126.3,0,0,0-42.95,57.51l7.21,3.8,12-1.49c21.43,10.27,46.76,5,70.3,8.17,31.85,4.35,59.51,24.21,90.7,32,20.19,5,41.29,4.82,62.08,4,7-.29,14.15-.65,21,.72,8.61,1.71,16.45,6,24.15,10.25q25.5,14.06,51.06,28l9.05-1.3a36,36,0,0,1,33.38,9c4.52,4.44,7.75,10,10.93,15.47a217.6,217.6,0,0,1,33.31-35.58l7.44-4.83c5.2-.38,10.4-.75,15.61-.81a14.88,14.88,0,0,1,4.66.47,14.57,14.57,0,0,1,3.77,2.06,24.68,24.68,0,0,1,6.06,5.55,28.7,28.7,0,0,1,2.5,4.55c3.56,7.45,7.21,15.53,5.78,23.66l-3,12.6,6,37c.88,5.43,1.76,10.92,1.34,16.4a34.86,34.86,0,0,1-4.89,15.23ZM274.48,948.86l5.36-10.35c-.23-5.38-3-10.34-6.09-14.73s-6.73-8.49-9.13-13.31a53.83,53.83,0,0,0-3.53-7c-1.49-2.14-3.77-4-6.39-4l-5.42.42c-13.72,13.27-35.08,16-49.06,29-8.29,7.71-13.06,18.13-16.66,29l5.33.73c7.43,1,15-.82,22-3.4s13.79-5.93,20.94-8.19a72.59,72.59,0,0,1,36.6-1.81Z"></path>
    <path data-name="6" data-official="Coccocypselum Tontarea" data-plain="" data-loc="Guiana" d="M1228.35,2293c-7.25-16.74-15.41-33-29.16-44.66-4-3.4-8.48-6.34-12-10.24-5.32-5.86-8.33-13.59-14-19.13l-5.68-4.34c-6.34-4-13.57-7.84-20.88-6.37-.86,14.21-6.29,27.89-14.11,39.79s-18,22.1-28.8,31.32a127.14,127.14,0,0,1-10.17,7.92c-4.38,3-9,5.58-13.3,8.77a57.43,57.43,0,0,0-20.12,28.36l1.09,1.85a46.31,46.31,0,0,1,13.9,3,10.14,10.14,0,0,0,3,.84,11.44,11.44,0,0,0,2.83-.4,10.59,10.59,0,0,1,6.21.27c2.54,1,4.22,3.44,5.75,5.71l18.11,26.83,5.36,5a34.62,34.62,0,0,0,9.16,6.3l6.25,14.41a158.4,158.4,0,0,1,16.36,26c2.32,4.63,4.44,9.48,5,14.64s-.82,10.72-4.55,14.31c-5.51,5.3-14.13,4.89-21.77,5.05s-16.74,2.36-19.22,9.59c-1.07,3.14-.6,6.55-.71,9.86-.46,14.29-13.68,26.94-28,26.77-11.81-.13-22.33-7.8-29.85-16.91s-12.85-19.82-19.92-29.28c-4-5.36-9-10.57-15.54-12-7.43-1.68-14.91,1.83-22,4.74-7.74,3.2-15.94,5.81-24.31,5.58s-17-3.72-21.77-10.62c-5.82-8.45-4.7-19.92-1.36-29.63s8.62-18.79,10.63-28.85a46.38,46.38,0,0,0-2.17-25.57c-4.84-12.63-14.92-22.46-21.82-34.1-2.15-3.63-4-7.57-4.27-11.78-.45-7.66-.52-16.48,4.16-22.56l3-7.87,26.31,14.9,15.06,13.85a7.32,7.32,0,0,0,6.13,2.5l7.78.26c6.08-8.16,16.07-12.64,26.1-14.33,6.86-1.16,14.07-1.14,20.6,1.28s12.27,7.48,14.41,14.1l3.24,4.4a101.17,101.17,0,0,1,25.23-28.16c6.59-5,13.8-9.25,20.11-14.63s11.56-11.73,16.64-18.22c5.43-6.93,10.72-14.11,14.1-22.24s4.7-17.41,2-25.8l.3-1c-6.53.81-13.2-1.12-19.68,0-5.48.92-10.66,4-16.21,3.55l.36,1.05c3.17,1.11,4.17,5.15,3.89,8.49s-1.41,6.84-1.93,10.29a30.56,30.56,0,0,0,8.66,25.94l-.33,1.92a5.19,5.19,0,0,1-3.92,2.81c-1.64.36-3.34.31-5,.67-3.65.8-6.53,3.5-9.44,5.84-6.83,5.49-15.34,9.59-24.08,8.9-2.17-.18-4.37-.64-6.49-.16-1.58.36-3,1.23-4.66,1.27a10.54,10.54,0,0,1-2.83-.47,40.54,40.54,0,0,0-31.06,4.92c-.13-2.18-.43-4.66-2.22-5.91a6.75,6.75,0,0,0-3.51-.92,46.29,46.29,0,0,0-7.72.17,13.5,13.5,0,0,1-4.06.09,3.9,3.9,0,0,1-3.07-2.38c-.19-.62-.17-1.29-.34-1.91-.63-2.32-3.45-3.13-5.81-3.54L990,2261.6c-5.58-4.1-11.3-8.35-14.86-14.28a42.13,42.13,0,0,1-4.38-11.48,57.29,57.29,0,0,1-2.07-16.81c.17-3.41.78-6.91-.12-10.21-.39-1.45-1.07-2.81-1.53-4.24a24.24,24.24,0,0,1-.83-7.64,68.13,68.13,0,0,1,1.8-15.05,27.65,27.65,0,0,1,3-7.94,35.93,35.93,0,0,1,4.84-5.9c3.6-3.82,7.25-7.66,11.62-10.58s9.57-4.86,14.8-4.42c4.81.41,9.77,2.76,14.25,1l.48-.69a12.53,12.53,0,0,1,.6-11.26c1.18-2,2.91-3.66,4.12-5.66,2.74-4.49,2.55-10.19,4.6-15,2.45-5.83,7.8-9.84,12.92-13.56a30.16,30.16,0,0,1,6.11-3.72c4.86-2,10.32-1.2,15.56-1.21,2.9,0,5.83-.26,8.67.3,6.13,1.22,10.86,6,15,10.63,3.89,4.4,7.7,9.05,9.69,14.57a51.9,51.9,0,0,1,2.06,8.89c1.38,8.15,2.77,16.32,3.34,24.58.28,4.12.36,8.26.94,12.34a50.19,50.19,0,0,0,7.51,20.07l1.45.51a21.8,21.8,0,0,1,4.89-.59l.57-.9c-2.67-14-3.73-28.36-2-42.48s6.51-28,14.7-39.64c1.22-1.73,2.55-3.49,3-5.57.27-1.41.1-2.87.24-4.3.47-5,4.58-9.44,3.75-14.38l1.2-7.32c.92-9.32.11-18.7,0-28.06s.45-18.93,4-27.59l5.1-3.79c1.45-1.39,3.74-1.17,5.73-1.43a.54.54,0,0,0,.41-.18.55.55,0,0,0,.07-.34c0-.9,0-1.81,0-2.72a1,1,0,0,0-.2-.76,1,1,0,0,0-.56-.24,13.15,13.15,0,0,0-2.73-.25,2.46,2.46,0,0,1-1-.1,2.07,2.07,0,0,1-.78-.6,14,14,0,0,1-2.2-3.09l6.45-.13a1.28,1.28,0,0,0,.82-.21,1.34,1.34,0,0,0,.33-1.06c0-2.25,0-4.51-.09-6.76a1.05,1.05,0,0,0-.07-.4c-.16-.35-.63-.4-1-.42a10.51,10.51,0,0,1-3.94-1c-.54-.25-1.15-.76-.94-1.32s.7-.56,1.16-.62l5-.64.08-.5,0-7.69a1.36,1.36,0,0,0-.28-1,1.41,1.41,0,0,0-1-.25l-4.4,0a5.74,5.74,0,0,1,5.2-3.35q.11-3.62.2-7.22a1.28,1.28,0,0,0-.22-1,1.23,1.23,0,0,0-.76-.31l-4.31-.74a11.61,11.61,0,0,1,6.57-3,56.09,56.09,0,0,0,1.56-6.76l-4.22-1.4c1-.77,2.54-.06,3.48-.84a2.73,2.73,0,0,0,.68-1.12l1.89-4.67c-.83-.51-1.88-.14-2.85-.09s-2.19-.71-1.83-1.61c.24-.61,1-.75,1.69-.79l3.25-.23.59-.62,4.79-6.5-3.22-.59a.73.73,0,0,1-.38-.14c-.26-.21-.11-.67.18-.84a1.94,1.94,0,0,1,1-.15c3.3,0,6-2.6,8-5.24s3.77-5.63,6.7-7.14c-2,0-4.25,0-5.92-1.21a12.82,12.82,0,0,0,8.84-2.92c2.54-2.11,4.15-5.12,5.59-8.09l-.32-.34-5.35-1.5c1.15-1,2.83-1,4.36-1.07s3.28-.57,3.87-2l.72-1.27c2.54-3.31,3.7-7.49,4.19-11.64s.36-8.34.61-12.51a4.81,4.81,0,0,1,.9-3,3.67,3.67,0,0,1,2-1c2.63-.59,5.38.25,7.77,1.49s4.55,2.89,7,4.09c5.7,2.85,12.29,3,18.63,3.64a138.8,138.8,0,0,1,62.14,21.42l1.9,1.18c3.88,1.12,7.2,3.6,10.42,6,5.14,3.88,10.36,7.86,14,13.16a60.55,60.55,0,0,1,4.87,9.09q2.38,5.16,4.78,10.31c2.22,4.77,4.46,9.61,5.34,14.8l1.15,1.19c8.88,6.09,15.11,15.57,18.46,25.79s4,21.19,3.22,31.93a57.64,57.64,0,0,1-3.13,16.23c-1.35,3.56-3.24,6.93-4.1,10.64s-.46,8,2.24,10.69l5.25.55,15.33,0a22.74,22.74,0,0,0,7.18-.78c3.46-1.17,6.11-3.9,8.74-6.43a124.72,124.72,0,0,1,18.49-14.7c4.9-3.17,10-6,14.44-9.87s8.06-8.88,8.89-14.66c10,2.17,16,12.13,22.81,19.78,10,11.22,23.91,18.62,33.47,30.27,8.34,10.16,12.87,22.9,20.34,33.71l3.5,8.61-.13.53a381.1,381.1,0,0,0-2.22,65.83l3.27,5.16a26.09,26.09,0,0,1,13.26,4.89c1.94,1.42,3.69,3.12,5.76,4.35a8.75,8.75,0,0,0,6.89,1.29l3.94.79a71.38,71.38,0,0,1,18.15,24.13l4.25,9.12c-3.65,7.5-2.46,16.34-3.84,24.56-1,5.71-3.16,11.11-5.34,16.47a24.49,24.49,0,0,1-3.34,6.29,36.23,36.23,0,0,1-4.7,4.3c-5.16,4.44-9,10.21-12.74,15.89-2.2,3.34-4.5,7.26-3.36,11.09l.14,10.64c-1.25,7.66-6,14.21-10.68,20.44-14.91,20-29.87,40.07-47.09,58.13s-36.87,34.16-59.39,44.91l-10.15,4.81-15.26-3.57c-4.89.26-9.56-1.95-13.79-4.44-20.19-11.88-35.6-31.08-44.79-52.63s-12.42-45.36-11.45-68.77a93.92,93.92,0,0,1-72.34-18.28Zm468-1009.55-.32,2a47.73,47.73,0,0,1-25.54.09c.9,2.9,1.24,6.18-.15,8.87-2.17,4.16-7.57,5.39-12.25,5.23a16.78,16.78,0,0,1-7.37-1.66c-4.65-2.48-6.82-7.9-8.22-13a100.71,100.71,0,0,1-2.61-12.63l-2.34-.54c-3.45.3-6.63-2.26-8.15-5.37s-1.75-6.66-1.95-10.12a17.82,17.82,0,0,1-7.59.13l-1.16.35a98.82,98.82,0,0,1,11,47.34c-.07,3.16-.29,6.32-.24,9.48.16,10.51,3.28,21,1.72,31.41l-1.08,4.46-12.89,3.66a51.57,51.57,0,0,1-17.49,6.72c-12,2.13-24.21-.56-36.06-3.24a118.84,118.84,0,0,1,4.82,44.51l-1.11,7.08-9.82,5.88a15.15,15.15,0,0,0-4.84,3.91c-1.19,1.72-1.57,4.19-.31,5.86l2.86,8.48c1.46,6.17,6.33,10.85,11,15.17l10.22,9.49a14,14,0,0,1,3.87,4.86c.77,1.94.46,4.48-1.26,5.67a18.76,18.76,0,0,0,10.5,4.47,38.43,38.43,0,0,1,5.69.49c4.76,1.16,7.78,5.63,11.16,9.18s8.86,6.46,12.95,3.78l7,1.16,2.42,9c13,12.08,18.81,30.36,19.31,48.1s-3.74,35.22-8.15,52.41l1.68,4.62-4.44,7.91c-1.18,4.74-5.08,8.26-7.46,12.52a42.17,42.17,0,0,0-3.65,10.48q-1.8,7.17-3.61,14.34l-.24,5.88c-.64,2.77-3.64,4.19-5.6,6.26a19.17,19.17,0,0,0-3,4.95l-3.84,7.93a15.56,15.56,0,0,1-3.48,5.23c-2.09,1.8-5,2.35-7.67,2.83l-1.92,4.78-8,1.09a31.3,31.3,0,0,1-23.33-4.3c-5.21-3.39-9.58-8.42-15.59-10-3.36-.87-7-.53-10.3-1.44l-6.74-1.27c-9.61-5.17-21.32-3.33-32.14-4.79-13.72-1.85-26.92-9.85-33.21-22.19-2.45-4.81-3.81-10.09-5.07-15.33-2.61-10.86-5.21-22.44-13.13-30.3-1.86-1.85-4-3.44-5.71-5.41a71.82,71.82,0,0,1-4.4-6.22c-3.27-4.67-7.46-8.61-11.62-12.52l-18.91-17.75-1.64-6.63,1.44-5.33c.07-6.09,2-12,3.25-18a85.71,85.71,0,0,0,1.81-21.55c-.22-5.41-1.14-11.19-4.86-15.13-10.29,7-23.56,7.18-36,7.16l-11.43,1.08a135.06,135.06,0,0,0-13.7-8.15c-10.19-5.28-21.18-9.37-30-16.68l-5.36,3.1a54.32,54.32,0,0,1-14.2-5.53A25.17,25.17,0,0,1,1292,1464c-3.68-3.51-5.07-8.73-6.31-13.66l-.5-6.91,3.84-8c-.73-19.38,6.8-38,11.26-56.84,1.26-5.36,2.28-10.79,3.06-16.24-9.17.16-17.55,5.78-23.25,13s-9.16,15.84-12.54,24.36l-6.06,5.81-7.51-.72c-3.49,4.73-3.37,11.12-3.08,17q1,20,2.35,40l1,1.16a28.43,28.43,0,0,1,16.17,10.61l1.67.76a47.06,47.06,0,0,1,52.08,20.21c1.63,2.57,3,5.3,4.76,7.79s4,4.84,5.83,7.34c1.62,2.18,3,4.55,5.09,6.33s4.94,2.89,7.5,2l.78,1.52a15.92,15.92,0,0,1-8.92,6.94,6.53,6.53,0,0,0-2.16.89,5.4,5.4,0,0,0-1.31,1.74c-2.42,4.41-4.64,9-8,12.71-5.13,5.58-12.42,8.57-19.53,11.2l.56,1.09c3.26,8.07.82,17.52-4,24.77-4.26,6.41-11,11.88-18.75,11.78l-.8.06a16,16,0,0,0-3.58,10.57l-1.05.08a15.35,15.35,0,0,1-2.48-10.64c-2.44,2.45-5,4.93-8.11,6.4a1,1,0,0,1-.55.13c-.38-.07-.52-.53-.59-.91a41.86,41.86,0,0,1-.53-8.59l-.66-.58a29,29,0,0,1-23.75-26.58c-.24-3.52.17-7,.08-10.58-.06-2.33-.54-5-2.54-6.18l-.26.27a18.92,18.92,0,0,1-8.57,17.3c-3,1.85-6.36,2.83-9.48,4.38a9.8,9.8,0,0,0-4.24,3.4c-2.07,3.38-.33,7.77-.89,11.7-4.09-2.42-5.16-7.75-5.82-12.45a10.72,10.72,0,0,1-8.43,11.46c1.87-3.23,1.45-7.35,0-10.79s-3.76-6.43-5.74-9.59c-5.91-9.46-8.62-21.61-4.38-31.93,3-7.31,9.07-12.89,15.34-17.69l-.79.07a64.44,64.44,0,0,1-19.72,1.67,11.32,11.32,0,0,0-3.34.07,11.73,11.73,0,0,0-4,2.15,49.49,49.49,0,0,1-10.66,5.65,37.73,37.73,0,0,0,3-11.13c.29-2.73.19-5.75-1.6-7.82a11.63,11.63,0,0,0-3.3-2.36l-9.66-5.34c5.34-.57,10.88-3.33,16-4.87,7-2.09,11.57-8.74,15.35-15s7.88-9.08,14.67-11.87c8.06-3.32,17.11.07,25.77,1.12a4.19,4.19,0,0,0,1.9-.09,5.51,5.51,0,0,0,1.76-1.41,8.77,8.77,0,0,1,4.61-2.33l.44-1q1-29.71,2-59.43c.1-3,.2-6.07,0-9.11a102.9,102.9,0,0,0-2.67-16.31l-.21-7.87,1.77-9c2.95-8.64,10.42-14.82,17.61-20.43,5.48-4.27,11.08-8.54,17.52-11.12,9.68-3.87,20.44-3.63,30.85-3.3,6.62.21,13.54.51,19.27,3.83a49.45,49.45,0,0,1,36.31-15.3,8,8,0,0,0,3.41-.4,6.81,6.81,0,0,0,2.61-2.53c6.41-9.37,8.52-21.15,8-32.49s-3.39-22.42-6.28-33.4c-13.7-.8-28.75-2.17-38.38-12l-6.61-3.39,12.57-8.74c-6-10.12-3.4-23.33,2.42-33.53a86.09,86.09,0,0,1,7.69-11.07l-.57-1.54c-2.53-8.45-5.28-17.29-11.56-23.48-3.22-3.17-7.19-5.46-11.08-7.75-22.45-13.18-44.9-28.29-58.63-50.41-6.82-11-11.21-23.33-15.54-35.54-4.92-13.89-9.92-28.23-9.13-42.94l-.83-3.47a24.77,24.77,0,0,1-7.4-9.86l-12.52-1.24.84-4.47c-6.83-12.41-3.81-27.11-4.34-41.27-.66-17.95-.52-37.1,9.18-52.22,1.79-2.78,3.93-5.53,4.33-8.81.34-2.85-.7-5.66-1.72-8.34l-2.81-6,5.21-2.87c15.71,6.69,33.59,6.71,50.36,3.46S1314,865.47,1330,859.7q13.67-4.91,27.52-9.29c5-1.59,10.06-3.13,15.28-3.44,11.81-.7,23,4.89,34.62,7.09,21.68,4.11,44.24-3.65,66,.13l4.13,7.29q9.57,14.57,18.3,29.68c3.8,6.57,7.5,13.27,10,20.46,7.48,22,2.35,47-10.29,66.41a16,16,0,0,0-2.73,5.56c-.67,3.69,1.53,7.22,3.43,10.46s3.62,7.21,2,10.61l.68,6.53c-6.53,9.92-19.29,15-24,26-1.38,3.23-2,6.73-3,10.09-3.8,12.48-14,23.59-12.56,36.55-5.65-5.77-14.79-5.45-22.83-6.19-13.14-1.22-25.59-6.26-37.56-11.8-8.57-4-17.15-8.26-26.45-9.82-12.26-2-25.08.76-37.15-2.21l-1.49.7a349.27,349.27,0,0,1,42.5,77.06l.73,2.32a33.62,33.62,0,0,1,7.06-5.26c5-2.74,10.56-4,15.9-5.82,7.68-2.68,14.95-6.73,23-8.07,5.78-1,11.69-.48,17.53,0,11.76,1,23.71,2,34.74,6.22,7.5,2.85,14.39,7.09,21.12,11.45a107.62,107.62,0,0,1,14.9,11.05,24.39,24.39,0,0,1,5.89,7.52c4,8.68-.62,19.66,3.93,28l3.8-6a82.68,82.68,0,0,1,1.08-25.26,168.38,168.38,0,0,1,5.16-18.35c2.57-8,5.13-16.1,5.79-24.48.27-3.47.21-7,1-10.39,1.49-6.7,6-12.27,10.31-17.57,1.89-2.3,3.85-4.67,6.5-6s6.18-1.44,8.34.6c1.17,1.1,1.79,2.65,2.9,3.81.89.92,2.05,1.55,3,2.46,1.94,1.91,2.52,4.79,4,7.11,2.84,4.6,8.49,6.39,13.55,8.29,13.86,5.21,26.68,14,34.79,26.4s11,28.56,5.75,42.39l.44.42a17.93,17.93,0,0,1,8.63,1.82,39.84,39.84,0,0,1,.07-8.17,3.64,3.64,0,0,1,1-2.52,3.2,3.2,0,0,1,1.81-.58,9.81,9.81,0,0,1,8.28,3.63l2.93.08a22.63,22.63,0,0,0,11.19-4.12l.89.41c4.18.91,7.29,4.83,8,9s-.62,8.58-2.88,12.21c-.68,1.08-1.24,2.86,0,3.32a2.32,2.32,0,0,0,.74.1,12.1,12.1,0,0,1,9.92,18.23,6.83,6.83,0,0,0-.78,1.58c-.16.63-.07,1.31-.25,1.94-.44,1.47-2.26,2.09-3.78,1.89-3.45-.46-5.74-3.71-7.5-6.71s-3.78-6.34-7.16-7.19c-.49,5.16-1.46,11.09-5.93,13.7-.4.23-1,.41-1.28.09a1.14,1.14,0,0,1-.21-.85,10.36,10.36,0,0,0-1.14-5.67,28.35,28.35,0,0,0-3.22-3.36,9.41,9.41,0,0,1-2.42-6,11.81,11.81,0,0,1-3.81,7.25,10,10,0,0,1,2.15,7.44,3.76,3.76,0,0,0,.11,2.33c.7,1.25,2.85,1.27,3.24,2.65a6,6,0,0,1,7,2.91l2.1,1.1a5.49,5.49,0,0,1,4.68.13,16.09,16.09,0,0,1,3.92,2.81,25.16,25.16,0,0,1,4.43,4.62,8.39,8.39,0,0,1,1.54,6.06l.62,2.65c4,3.53,6.21,8.88,6.61,14.23a36.33,36.33,0,0,1-2.8,15.71C1687.12,1257.43,1697.25,1270.38,1696.32,1283.45Zm-332.6-132.14-.56-2.33a400.44,400.44,0,0,0-48.07-86.8c-2.61-3.57-5.37-7.32-5.94-11.71l-1.2-1.19c-5.71-.61-10.79-3.74-15.65-6.79-10.81-6.78-21.87-13.78-29.58-24l-2.24-.44a124.36,124.36,0,0,0,7.47,43.42,98.78,98.78,0,0,0,15,27.6c7.48,9.48,16.94,17.17,26.32,24.77,5.46,4.42,11,8.86,17,12.42,5.44,3.2,11.34,5.69,16.3,9.59a35.47,35.47,0,0,1,12.92,21.91v4.28c2-2.35,3.88-4.73,5.69-7.19Q1362.47,1153.13,1363.72,1151.31ZM1159,280.78c14.34,16.62,26.41,35,38.44,53.39,3.8,5.79,7.62,11.64,10.13,18.1a49.81,49.81,0,0,1,3.16,22.42l-1.75,5.87a16.64,16.64,0,0,1,9.76,20.95,77.75,77.75,0,0,0,27.85,14.22,5.26,5.26,0,0,0,2.18.26,6.53,6.53,0,0,0,2.48-1.34,14,14,0,0,1,6.85-2.47l.79-7.78c7.77-50.79-9.74-104.81-45.82-141.39l-5.14-6.42c-8.11-1.46-15.85,3.29-23.48,6.4a61.76,61.76,0,0,1-19.69,4.42l-4,4.23Zm-56.72-154c-33.86-20.57-55.44-58.22-61.24-97.41-.45-3.07-.87-6.28-2.64-8.82a12.83,12.83,0,0,0-7.54-4.75c-8.77-2.16-18.24,2.4-23.76,9.54s-7.63,16.4-8,25.42c-1,23.09,8.21,45.76,21.84,64.44s31.47,33.82,49.61,48.15l8.72,2.73c7.73-1.78,13.94-7.37,19.78-12.75a18.84,18.84,0,0,0,3.39-3.75c1.77-2.84,1.89-6.36,2.22-9.69Z"></path>
    <path data-name="6a" data-official="" data-plain="Fruit, open" data-loc="" d="M1001.5,2703.73c-12.61-1.33-22.67-12-27.13-23.83S970,2655,970.1,2642.34l.26-27.35c.07-6.94.18-14.09,2.93-20.46,2.37-5.49,7-10.29,12.88-11.43,4.94-.95,10.1.79,14.19,3.7s7.3,6.9,10.31,10.92a248.44,248.44,0,0,1,18.84,29.17l14.55-30.18c3.22-6.66,7.49-14.15,14.8-15.31,5.19-.81,10.41,2.07,13.81,6.08,6.65,7.85,7.4,19,7.83,29.26q.6,14.4,1.21,28.82c.36,8.6.71,17.31-1.08,25.73s-6,16.65-13.11,21.53c-3.93,2.71-8.93,4.65-10.8,9-2.3,5.42,1.4,11.37,4.92,16.09l9.43,12.63c3.55,4.75,7.29,10.31,6.1,16.12s-6.72,9.4-12.09,11.67c-16.21,6.85-34.4,6.61-52,6.26-2.58,0-5.25-.12-7.6-1.19-5.32-2.43-7.24-9.23-6.5-15s3.43-11.17,4.77-16.86a36.8,36.8,0,0,0-.54-18.78Z"></path>
    <path data-name="6b" data-official="" data-plain="Cross section" data-loc="" d="M1124.57,2698.44a112.6,112.6,0,0,1-21.14-58.38c-1-14.78,1.75-31.18,13-40.81,10.14-8.69,24.56-9.77,37.91-10.14,8.37-.22,17.22-.21,24.44,4a32.88,32.88,0,0,1,8.71,7.89,60.44,60.44,0,0,1,12.94,40.39,69.32,69.32,0,0,1-15.31,39.8c-4,5-9,10.3-8.61,16.72a16.06,16.06,0,0,0,2.44,7.15c3.13,5.32,7.89,9.46,11.74,14.28s6.89,11,5.63,17c-1.86,8.84-11.62,13.26-20.2,16.11-10.94,3.64-22.1,7-33.6,7.81-7.41.55-16.17-.67-19.85-7.14-2.68-4.71-1.63-10.7.6-15.64s5.54-9.36,7.46-14.43,2.21-11.29-1.28-15.44Z"></path>
    <path data-name="7" data-official="" data-plain="Fruit of Galium" data-loc="" d="M1644,2679.16c-7-2.37-12.17-8.24-16-14.5-5-8.11-8.32-17.41-8.44-26.93s3.2-19.25,9.92-26c11-11,28.2-12.19,43.73-11.7,9,.28,18.06.92,26.54,3.87s16.36,8.5,20.44,16.49c2.95,5.8,3.72,12.45,3.86,19,.2,9.11-1,18.94-7.1,25.73-7.53,8.39-20.84,10.26-27.24,19.53-3.06,4.42-4.05,9.9-5,15.2l-3.21,18.39c-.83,4.76-1.67,9.57-3.61,14a30.75,30.75,0,0,1-23.07,17.73c-4.59.7-9.76.14-13-3.17a13.52,13.52,0,0,1-3.37-7.43c-1.4-8.85,2.71-17.52,6.13-25.8s6.23-17.87,2.4-26Z"></path>
</svg>
