
<svg xmlns="http://www.w3.org/2000/svg" viewBox="0 0 1960 2691" id="illustration" preserveAspectRatio="xMidYMid meet">
    <title>Dipsaceæ</title>
    <path data-name="1" data-official="Dipsacus sylvestris" data-plain="Wild Teasel" data-loc="England" d="M267.22,1559.14c-25.07-39.65-34.83-87.05-39.65-133.71s-5.22-93.86-13.73-140c-1.85-10-4.09-20-4.38-30.17-.2-6.91.5-13.84.2-20.75a72.74,72.74,0,0,0-17.82-44.46l-2.94-6.5a86.25,86.25,0,0,1-5.18-25.9c-.13-3,0-6.29,2.1-8.42,1.74-1.79,4.39-2.27,6.86-2.66,5.53-.87,11.18-1.74,16.7-.77,8.67,1.51,15.87,7.32,22.65,12.93,7.61,6.29,15.35,12.72,20.67,21a84.66,84.66,0,0,1,5.57,10.69,441.61,441.61,0,0,1,38.16,143.32c.77,8.41,1.36,17.09,5.18,24.62,7.07,13.95,23.09,20.43,37.79,25.77l6.85,4a3.79,3.79,0,0,1,3.1,2.74,11.2,11.2,0,0,1,.24,4.36l-.7,8.79a9.6,9.6,0,0,1-1.18,4.66c-.91,1.35-2.83,2.16-4.21,1.31a5.73,5.73,0,0,0,4.41,1.88q-.95,8.77-2.4,17.48a9.68,9.68,0,0,1-1,3.36c-1,1.83-3.11,2.79-5,3.63,1.43-.89,3.43.09,4.23,1.58a9.45,9.45,0,0,1,.64,5l-.76,14.27a7.76,7.76,0,0,0-4,2.18,2.42,2.42,0,0,1,2.83,1.08,5.18,5.18,0,0,1,.6,3.18c-.2,2.81-2,6-4.81,6,1.6-.55,3.38.6,4.12,2.11a10.52,10.52,0,0,1,.68,5l-.38,15.23-1,1.19a14.42,14.42,0,0,1-4.84,1.12c-.23,1.53,2.82.86,3.66,2.16a2.2,2.2,0,0,1,.22,1.3l-.51,18.9a3.9,3.9,0,0,1-.5,2.19c-1.18,1.68-4.23.82-5.47,2.45a21.72,21.72,0,0,1,5.67.84l.29,9.37a2.89,2.89,0,0,1-.25,1.57c-1,1.62-4.44.8-4.56,2.68l4.1.47a1.87,1.87,0,0,1,1.13.4,1.83,1.83,0,0,1,.38,1.2,27.53,27.53,0,0,1-.46,6.72,7.16,7.16,0,0,0-4,.81,7.44,7.44,0,0,1,3.64,1.76c1.29,1.39,1.33,3.49,1.29,5.38l-.32,16.17a9.27,9.27,0,0,0-5.4,3.17c1.73.94,4.34-.44,5.62,1a3.6,3.6,0,0,1,.6,2.32l.81,37.72-3,.06a10.1,10.1,0,0,0-6.59-7.19c-1.53-.49-3.16-.61-4.69-1.12-3.9-1.31-6.91-5.11-11-5.27-1.36,0-2.8.3-4-.27a6.33,6.33,0,0,1-2.33-2.4,31.41,31.41,0,0,0-8.91-8.81c-2.9-1.82-6.12-3-9.16-4.61-7.11-3.66-13.08-9.17-18.95-14.6ZM892.1,1370.38c-.59,2.86,1.68,5.66,4.36,6.82s5.69,1.11,8.61,1.32a49.74,49.74,0,0,1,18.35,4.9c4.75,2.31,9.82,5.48,14.92,4.08q-6.78-5.24-13.63-10.39c-3-2.28-6.14-4.59-9.7-5.93-5.39-2-11.34-1.67-17.08-1.29Zm569.5,56.5a14.07,14.07,0,0,0-8.39-13l1.65-9.16q-11.89-16-24.33-31.65c-3.42-4.29-7.1-8.73-12.19-10.79l-16.27-1.6a24.42,24.42,0,0,1-8.09-4.05,20.42,20.42,0,0,1-4-3.46,27.46,27.46,0,0,1-3.19-5.42,91.91,91.91,0,0,0-13.31-19.6l-9.61-1.4c-4.63-2-9.86-1.94-14.91-1.84l-13.24.27-4.78-4c-9-.05-17.54-3.81-25.74-7.55-14.07-6.41-28.07-13-42.07-19.51a42.32,42.32,0,0,1-4.82-2.5,43,43,0,0,1-4.1-3l-29-23.37-1.86-7.52c-5-9.19-10.16-18.48-17.31-26.13a63.46,63.46,0,0,0-21.91-15.22c-1.82-.75-3.75-1.47-5.07-2.93a14,14,0,0,1-2.21-4.14,48.23,48.23,0,0,0-16.33-20.58l-2.23-2.53h-5.06l-2.85,1.22a62.77,62.77,0,0,1-7.57-4.59,11.38,11.38,0,0,1-3.39-3c-1.16-1.77-1.35-4.18-3-5.53l-2.52-3.08c-3.63-2.26-8.1-2.58-12.13-4-10.67-3.7-17.09-14.25-25.32-22a57.65,57.65,0,0,0-56.28-12.54l-5.64,1.57c-2.51,0-4.6,1.8-6.86,2.89-4.25,2.07-9.22,1.73-13.94,1.35l-4.52-2.64-33.25-.16a13,13,0,0,1-4.35-.5c-2.69-.94-4.53-3.56-5.26-6.32a24.48,24.48,0,0,1-.27-8.5,245.28,245.28,0,0,1,4-27.24l5-9.6q-1.1-45.15.94-90.29c.32-7.11.71-14.27,2.45-21.17,1.57-6.21,4.21-12.08,6.49-18.07,17.28-45.31,13.72-95.67,23-143.27a268.16,268.16,0,0,1,23.49-68.89l15.7-38.14c5.39-21.38,26.08-35.42,46.83-42.88s43.15-10.48,62.85-20.38c68.89-34.59,77-134.36,138.14-181.31,38-29.22,89.3-32.5,137.22-34.61l159.23-7c7.48-.33,15.28-.74,21.84-4.36,15.12-8.31,17.08-30.43,9.3-45.82s-22.29-26-35.3-37.33a277.18,277.18,0,0,1-85.37-137c-4.6-17.35-7.76-35.72-18.2-50.32-21.25-29.73-64.23-33.15-100.25-27s-72.46,19-108.19,11.33c-45.72-9.75-77.69-49.95-117.6-74.28-38.76-23.64-85-32-130.36-34.1A529.66,529.66,0,0,0,866,36.07c-12.83,3.44-26.51,7.37-39.11,3.17C811.36,34.07,801.07,17.62,785,14.4c-26.49-5.33-43.78,26.44-51.79,52.26L689.72,206.94c-35.27-25.31-81.15-32.17-124.34-27.74S480.83,198.38,440,213c-15.38,5.5-32.94,13.33-36.64,29.25-3.65,15.67,9.41,31.37,24.74,36.29s32,1.83,47.66-1.73c29-6.57,58.24-14.7,87.9-12.73,42.09,2.8,81.13,26.38,108.26,58.69s43.23,72.68,52.32,113.87c10.21,46.26,12.65,95.78,37.09,136.36,25.47,42.29,73.79,73.26,80.26,122.2,5.53,41.74-21.83,79.6-39.62,117.75-35.4,75.93-34.29,163.11-32.49,246.87l1.08,10.65c-2.64,20.19-.36,41.15,7.63,59.88s21.82,35.1,39.53,45.14l6,4.56c5-.58,9.43,3.66,14.47,3.89l7.15-.22a66.88,66.88,0,0,0,8.53,5.58l3.46,3.6c5.52,4.32,10.8,9.31,13.69,15.69,1.78,3.93,2.58,8.22,3.37,12.46l3.27,17.64-.89,7.91,2.18,34.7c.39,6.22.81,12.57,3.12,18.36,2.93,7.35,8.71,13.27,11.88,20.52a32.3,32.3,0,0,1,2.47,16.56l-.93,5.11c0,1.45,1.33,2.49,2.56,3.27a241.15,241.15,0,0,0,24.1,13.4,55.33,55.33,0,0,1,5.07,2.64,49.51,49.51,0,0,1,6.19,4.71l5.36,4.51c4.84,4.08,9.86,8.39,12.29,14.24a13.54,13.54,0,0,1,9.19-5.57l.57-18.84.76-6.48L960.38,1327a39.14,39.14,0,0,0-.51-5.63l-1-13.55-7.26.31a10,10,0,0,1-4.94-.62,2.63,2.63,0,0,1-1.62-2.29,2.8,2.8,0,0,1,1-1.79,8.17,8.17,0,0,1,3-1.79c3-1,6.59-.36,8.89-2.48,1.79-1.65,2-4.35,2.14-6.78l.34-7,2.61-6.49a13.57,13.57,0,0,0,7.48-8.78,25.88,25.88,0,0,0,.31-11.81l-.13-8.08c.45-4.57-.83-9.36.71-13.69a22.18,22.18,0,0,1,2.19-4.14l3.48-5.59c1.75-2.81,3.73-5.82,6.87-6.88l8.22-2.07c4.26,8.09,8.53,16.21,11.75,24.77,3.7,9.85,6.56,21,15.17,27.08,3.15,2.21,7,3.68,9.11,6.9l2.63,2.73a14,14,0,0,1,5.74,5.81c.55,1.07,1,2.21,1.44,3.31a30.43,30.43,0,0,0,10.11,12.59l-1.52,4.63a48,48,0,0,0,8.94,7.71l4.65,1.2,6.41,1.93a7.7,7.7,0,0,1,2.78,1.25c2.15,1.75,1.88,5,2,7.77.36,6.85,4.39,12.89,8.28,18.54,2.84,4.12,5.91,8.44,10.48,10.48,5.3,2.36,11.4,1.16,17.19.79a57.66,57.66,0,0,1,12,.48c3.36.49,6.81,1.35,9.45,3.49,7.15,5.81,5.39,18.15,12.29,24.27l2.61,4.43c1.83-.14,3.62.76,5.45.67,2.19-.11,4-1.58,5.73-3l6.16-1.83c5.77,4.55,14.15,4.43,20.14,8.69,1,.74,2,1.59,3.05,2.27a10.93,10.93,0,0,0,6.45,1.63l5.42,3.18a88.1,88.1,0,0,0,30.24,5.83c4.61.07,9.44-.18,13.55,1.89,2.06,1,3.82,2.62,5.92,3.57s4.85,1.1,6.49-.51a30.62,30.62,0,0,0,1.82-2.53c1.44-1.78,3.82-2.44,6.06-3a145.63,145.63,0,0,1,32.3-3.66l5.95,1.76,27.2,5.75,7.37-7c.5-1.24,2.15-1.44,3.49-1.45l6.6,0a9.3,9.3,0,0,1,4.1.62c2.08,1,3.25,3.57,5.49,4.17l5.43-.46c3.9,1.51,8.28-.87,12.41-.25,2.25.33,4.28,1.54,6.49,2a23,23,0,0,0,7.58-.16c2.52-.31,5.14-.53,7.53.32s4.5,3,4.44,5.57l3.09,4.2c2.64.59,5.14,1.7,7.74,2.44,4.94,1.41,10.14,1.47,15.28,1.53l.34,2.87c4,3.8,10.55,1.78,16,2.87a13.76,13.76,0,0,1,10.28,9.54c1,3.44.53,7.13,1.25,10.63a16.51,16.51,0,0,0,5.1,8.92,2.87,2.87,0,0,0,1.4.8,3,3,0,0,0,1.38-.22,20.54,20.54,0,0,0,13-14.91Zm-293,187.26a256.38,256.38,0,0,1,6.76-54.4c1.64-7,3.59-14,3.44-21.21s-2.77-14.72-8.59-18.93c-6.35-4.59-14.94-4.3-22.67-3-10.7,1.74-21.82,5.41-28.58,13.89-3.43,4.31-5.47,9.53-8.23,14.3-5.87,10.13-15,18.16-20.21,28.66-4.94,10-5.93,21.46-9.88,31.89-2.83,7.49-7.15,14.32-10.8,21.45-16.53,32.33-19.85,71.75-43.75,99.08-3.17,3.63-7.87,7.26-12.36,5.52l-3.52-4.4,1-8.16q-1.71-19.21-3.49-38.42l-.91-10c-3-32.43-5.94-64.89-11.11-97l-6-3.87c-.56-2.81-3.31-4.61-6-5.59s-5.63-1.5-7.92-3.21c-2.59-1.94-4-5.11-6.3-7.34s-5.44-3.45-7-6.16a12.62,12.62,0,0,1-1.31-4.65,85.34,85.34,0,0,1,3.17-35.74c4.21-14.06,11.65-27.48,12-42.15.23-9.68-2.65-19.12-5.51-28.37l-3.53-11.92a16.85,16.85,0,0,0-30.07-9.79c9.69,5.19,13.27,19.21,7.27,28.41-1.82,2.79-4.32,5.08-6.13,7.88-1.65,2.53-2.69,5.42-4.31,8-3.36,5.33-8.91,8.81-14.27,12.12-3.46,2.14-7.39,5.26-6.74,9.27l-.53-.62c-4.9-6.16-2.91-15.3.73-22.28S922,1443.8,923,1436c.67-5.39-.74-10.9.17-16.25a19.34,19.34,0,0,1,11.39-14.36l-.86-.33c-9.83,2.06-20.67-.62-29.68,3.8a20.48,20.48,0,0,0-3.93,2.51l-2.23,5a189.61,189.61,0,0,0-11.48,53.11c-.7,10.13-.58,20.29-.71,30.44q-.35,27.87-3.14,55.64l-1.48,8.3q0,43.52,3,87l2.94,3.33c4-2.09,7.25-6.49,11.69-5.94,3.15.39,5.46,3.36,6.19,6.45s.21,6.31-.15,9.46a105.09,105.09,0,0,0-.06,23.85L902,1699.41a75.32,75.32,0,0,1-2.06,23.65l-9.18,5.06a37.94,37.94,0,0,1-9.17-23.84c-.13-6.39,1.37-12.71,1.67-19.1.49-10-1.94-19.87-4.35-29.58-2.18-8.76-4.63-18-11.1-24.3-5.13-5-12.24-7.53-17.4-12.49-11-10.59-9.94-28.26-15.65-42.43l.41-12.61c-1.33-11.15-3.55-22.18-5.77-33.19l-5.42-26.82c-.92-4.57-1.86-9.22-4-13.38a26.3,26.3,0,0,0-21.58-14,5.76,5.76,0,0,0-3,.44c-1.38.72-2.05,2.29-2.6,3.75a430.25,430.25,0,0,0-16.33,52.88l-1,5.68a57.32,57.32,0,0,1-2.94,20.62l-2.89,3.57c-3-3.32-6-6.67-9.62-9.19a64.4,64.4,0,0,1-6.3-4.26c-3.41-3-5.27-7.32-7-11.5l-5.3-6c-17.45-6.45-35.58-10.87-53.65-15.27-13.84-3.37-27.75-6.76-41.95-7.84-24.07-1.84-48.4,3-72.34-.11l-6.78-.37-8.6,1.64-4.31,2.19c-6.71-.67-13.83-1.51-19.09-5.73-5-4-7.35-10.29-9.52-16.27L519,1473.79l-3.84-10.55c-1.39-3.83-2.81-7.71-5.2-11-6.05-8.31-17-11.34-24.73-18.1l-5.69-1.26a116.16,116.16,0,0,0-33.57-4.49c-3.6,0-7.35.3-10.48,2.1-1.28.74-2.41,1.72-3.69,2.46a13.94,13.94,0,0,1-5.3,1.71c-7,.84-13.87-2.92-19.16-7.64s-9.59-10.49-15-15c-4.4-3.64-9.45-6.41-14.46-9.14l-6-1.4c-2.36-1.21-5.22-.46-7.76.33l-4.92,1.51a1,1,0,0,0-.43.21,1,1,0,0,0-.22.68l-.49,7.12a1.62,1.62,0,0,0,.13,1c.56.94,2.75.59,2.5,1.66l-4,.24-.74,12,2.5.8c-.2.92-1.65.48-2.49.92a2.35,2.35,0,0,0-.89,1.93l-1.73,15.28a1.9,1.9,0,0,0,.07,1c.64,1.4,3.41.05,4.08,1.43-1.18,1.36-4.06,0-4.89,1.64l.38,1.21a60.61,60.61,0,0,0-.72,6.31,1.08,1.08,0,0,0,.18.83c.24.25.65.2,1,.17a5.6,5.6,0,0,1,3.21.68,1.27,1.27,0,0,1,.61.58c.33.78-.8,1.41-1.63,1.27s-1.68-.62-2.47-.32c-1.06.4-1.2,1.81-1.17,2.94l.14,4.64a1.09,1.09,0,0,0,.18.69,1.22,1.22,0,0,0,1,.24,6.74,6.74,0,0,1,3.07.6c.87.39,1.73,1.47,1.09,2.18a1.73,1.73,0,0,1-1.26.4l-3.81.17a1.15,1.15,0,0,0-.87.28,1.18,1.18,0,0,0-.2.67,24.91,24.91,0,0,0,.25,5.85,26.13,26.13,0,0,1,6.58,1c-2.34.4-4.67.9-7,1.49a13.7,13.7,0,0,0,4.33.93,3.47,3.47,0,0,1-3.69,1.25l-.93,10.59,6-.91c.56-.09,1.35,0,1.4.55a1,1,0,0,1-.49.81,11.68,11.68,0,0,1-7.07,2.56v6.44a1.66,1.66,0,0,0,.28,1.14,2.18,2.18,0,0,0,1.16.46,3.78,3.78,0,0,1,2.74,4.17,4,4,0,0,0-3.62-1.84,1.08,1.08,0,0,0-.76.27,1.28,1.28,0,0,0-.22,1l.27,8,.34.76a4.92,4.92,0,0,1,4.08,5.76,5.75,5.75,0,0,0-3.66-2.07,1.09,1.09,0,0,0-.78.12,1.12,1.12,0,0,0-.34.89l-.63,7.47a1.76,1.76,0,0,0,.19,1.22c.32.45.95.49,1.49.59A5.11,5.11,0,0,1,355,1534l-5.23.61.06,7.68a1.68,1.68,0,0,0,1.64,1.93l2.57.79c.82.26,1.81.73,1.79,1.59,0,1.09-1.6,1.33-2.63,1s-2.22-1-3.13-.37l-.26,7.76a1.2,1.2,0,0,0,.17.79c.26.33.76.29,1.17.37a1.85,1.85,0,0,1,.69,3.14,4.92,4.92,0,0,0-1.11.72,2.08,2.08,0,0,0-.32,1.37V1568a2.41,2.41,0,0,0,.37,1.57c.67.81,2.08.48,2.86,1.2a1.75,1.75,0,0,1-.19,2.46,3.67,3.67,0,0,1-2.59.8,9.93,9.93,0,0,0-.44,3.66,3.43,3.43,0,0,0,2,2.87c.85.3,2.19.65,1.85,1.48-.39,1-1.9-.22-2.94,0l.81,11.35a1.46,1.46,0,0,1,2.42.85,1.66,1.66,0,0,1-2.26,1.5l.19,5.45a6.54,6.54,0,0,1,3.06,1.54,2.22,2.22,0,0,1,.11,3.09c-.64.55-1.61.53-2.25,1.06-.84.68-.82,1.94-.72,3l.92,10.63a12.84,12.84,0,0,1,4.79.22,4.36,4.36,0,0,1,3.19,3.28l2.51,6.55a58.9,58.9,0,0,0,9.44,19.36l4.21,2.41c5.59-.89,10.42-4.5,14.2-8.73s6.74-9.11,10.24-13.57c-.29,5.59-2.25,10.94-4.2,16.18-2.87,7.76-5.75,15.53-9.1,23.1a85.27,85.27,0,0,0-4.91,12.42c-1.14,4.31-1.44,9,.06,13.17l2,10.14c-.07,8.38,2.59,16.51,5.22,24.47,1.34,4.08,2.69,8.16,4.27,12.16A114,114,0,0,0,420.62,1780l2.79,1.41a18.25,18.25,0,0,0,8,3.65l5.68-1.92c3.35,1.68,5.78,4.76,7.64,8s3.27,6.75,5.24,9.93c2.11,3.4,4.88,6.47,6.17,10.27l3.57,6.44,21.5,10.65a23.92,23.92,0,0,0,4.85,2,33.86,33.86,0,0,0,4.93.59,76.11,76.11,0,0,1,9.57,1.7l37.3,8.26,5.76,1.4c7.48-.33,14.45,3.43,21,7.07L583,1859.67a16.35,16.35,0,0,0,10.79,2.62l20.25-.22,5.76,5.2a42.14,42.14,0,0,1,6.89,6c1.46,1.72,2.64,3.67,4,5.5a36.6,36.6,0,0,0,26.16,14.54l1.11,3.46A126.15,126.15,0,0,1,681.77,1907l8.15.66c10.85,2.75,22.63,3.31,33-1a61.19,61.19,0,0,0,10.09-5.56,167.07,167.07,0,0,0,23.9-18.93l11.81-11.85c2,.42,3.93-.56,5.89-1.07a26.41,26.41,0,0,1,2.82-.51l12.36-1.74,9.07-.24a23.8,23.8,0,0,1,6.65-1.58c5.47-.24,10.32,3.21,14.69,6.51l3.58,2.69,10.08,2a43.57,43.57,0,0,1,8.63,21.26c1.08,9.12-.52,19.28,4.85,26.73l.49,6.49c3.24,15.07,14.77,26.69,23.65,39.29a125.53,125.53,0,0,1,22.61,76.19l-2.19,10a253.34,253.34,0,0,1,2.75,40.34c0,3.56-.14,7.25,1.21,10.54,2,4.82,6.6,7.89,10.45,11.4s7.29,8.63,5.75,13.61l1.07,7.53a98.87,98.87,0,0,1,1,39.92,1.19,1.19,0,0,1-.42.86c-.38.23-.85,0-1.29,0-1.67-.16-2.15,2.23-2,3.9.88,8.26,1.76,16.57,3.94,24.58a28.33,28.33,0,0,1,1.37,6.9c0,2.36-.62,4.67-.69,7-.14,4,1.35,7.76,1.88,11.67.91,6.6-.88,13.37.18,20l-2.38,6.5a18,18,0,0,1-4.57,13.52c-1.75,1.91-3.91,3.42-5.52,5.44a21.14,21.14,0,0,0-3.73,8.65c-4.51,19.84,4,40.4,2.61,60.69-.47,6.83-2.06,13.68-1,20.44a89.77,89.77,0,0,0,2.58,9.92,65.59,65.59,0,0,1,2.25,14.93l.38,6.71v48.88c0,17.11,0,34.31-2.51,51.24-.63,4.24-1.29,9,1.28,12.44,2.23,3,6.2,4,9.1,6.26,7.26,5.76,5.68,16.84,5.86,26.09.2,10.17,4.87,21.68,14.7,24.29,8.21,2.18,16.8-2.87,22.14-9.48,2.5-3.09,5.27-6.93,9.23-6.75,3.32.15,5.69,3.08,8.07,5.39,5.37,5.21,13.87,8.05,20.49,4.56,4.62-2.44,7.41-7.47,8.45-12.58s.57-10.41.16-15.62c-2.06-26.15-2.54-52.4-3-78.64l-.43-23.49a71.26,71.26,0,0,1,.65-13.78c1.31-7.38,5-14.41,4.62-21.89-.47-10.37-8.54-19.31-8.67-29.69-.17-13.15,12.26-23.58,13.36-36.68.32-3.76-.33-7.52-.54-11.29-.47-8.78,1.46-17.51,1.64-26.3s-1.79-18.31-8.42-24.09l-12.42-13.77.37-24a6.87,6.87,0,0,1,.69-3.57,2.42,2.42,0,0,1,3.13-1.06c-3.62-1.31-4.34-6-4.45-9.9L990,2180l0-.82a227.52,227.52,0,0,1-15-17.52c-1.59-2.06-3.23-4.44-2.9-7,.18-1.49,1-2.83,1.4-4.28,1.6-5.94-4.13-11-7.14-16.34-4.83-8.56-2.85-19.72-7.67-28.29-2.81-5-7.72-8.71-9.66-14.09-1.19-3.31-1.12-6.92-1-10.44l.31-13.75,1.17.35c3.64.9,7.3-.94,10.84-2.16,7.38-2.55,15.4-2.49,23.17-1.71a6.85,6.85,0,0,0,3.87-.33c2.16-1.12,2.44-4,2.34-6.48s-.09-5.29,1.87-6.72l3.23-9.26a36.17,36.17,0,0,1,7.51-14.86c2.71-3.22,6.07-6.09,7.57-10s.85-8.62.49-13a79,79,0,0,1,5-34.7l.17-7.18a42.44,42.44,0,0,1,9.57-13.44,64.42,64.42,0,0,1,13.27-9.23,55.78,55.78,0,0,1,13.92-5.79c8-1.9,16.4-.94,24.58,0,8.33,1,16.69,2,24.77,4.21,10.23,2.83,20.18,7.65,30.8,7.52,9.18-.12,17.87-4,26.17-7.89,5.88-2.79,11.72-5.65,17.57-8.52l8.82-2.57c8.5,1,17-1.42,25.26-3.61a518,518,0,0,1,55.86-11.5c3.65-.54,7.31-1,10.93-1.76a99,99,0,0,0,41-18.47l6.45-14.31a57.42,57.42,0,0,1,19.2-22.76,22.39,22.39,0,0,1,5.49-3c4.8-1.6,10-.46,15.07-.3,9.08.29,18-2.67,26.1-6.79s15.54-9.42,23.25-14.22a245.11,245.11,0,0,1,25.32-13.69c6.49-3,13.14-5.84,19-9.94a101.07,101.07,0,0,0,11.85-10.24l19.43-18.63,9-31.65c.64-3.36,3.81-5.68,7-6.82s6.71-1.44,9.9-2.66c8.69-3.32,13.52-12.49,20.82-18.25a37.56,37.56,0,0,1,10.29-5.61l4-5.81a38.44,38.44,0,0,1,25-22.56c2.57-.72,5.29-1.2,7.52-2.68s3.88-4,6.29-5.35c5.58-3.11,12.54,1,18.86.07l9.76-5.94a57.62,57.62,0,0,0,23.27-17c2.74-3.35,5.14-7,8.51-9.77,5.84-4.71,13.68-5.81,21.07-7.12,8.21-1.47,16.59-3.52,23.31-8.46l7.12-2.66c9.49-6.68,14.85-17.64,19.82-28.13q4.82-10.18,9.65-20.38c2.49-5.27,5-10.54,7.14-16,1.89-4.78,3.51-9.68,5.73-14.32,5-10.37,12.81-19.25,17.07-29.93,2-5,3.15-10.26,4.74-15.38,3.06-9.88,7.68-19.2,12.29-28.46l9.3-18.7,5.23-9.82c1.92-14.75,3.86-29.57,7.94-43.87,1.34-4.67,2.9-9.28,4-14,1-4.45,1.64-9,2.26-13.5,2.22-16.42,4.45-32.86,5.34-49.41.28-5.15.41-10.41-.94-15.39-2-7.24-7.5-13.7-14.73-15.7s-15.89,1.22-19.16,8c-1.2,2.48-1.68,5.29-3.1,7.65a22.08,22.08,0,0,1-3.88,4.43c-5.81,5.59-11.5,11.36-16.14,18-6.43,9.13-10.68,19.59-16.23,29.28-9.72,16.94-23.3,31.3-36.74,45.47l-10.42,11c-6.07,6.4-12.23,12.93-16.14,20.84l-3.09,7.89-23.4,42.6a25.11,25.11,0,0,1-4.11,6c-1.47,1.44-3.26,2.49-4.8,3.84-2.25,2-3.92,4.5-5.9,6.73-5.7,6.41-13.75,10.13-21.57,13.67-4,1.83-8.13,3.68-12.5,4.34s-8.58.15-12.85-.35l-14.32-1.67a77.1,77.1,0,0,0-13.74-.77c-8,.52-16.13,3.55-24,1.69-6.43-1.52-12-6.24-18.63-6.39a14.5,14.5,0,0,1-3.73-.24,11.31,11.31,0,0,1-3.79-2.48,33.24,33.24,0,0,0-26.18-7.17l-14.92.53c-17.7,2.12-35.36,7.27-49.94,17.53-8.86,6.23-16.42,14.22-25.57,20a65.37,65.37,0,0,1-15.64,7.24c-5.75,1.78-12.06,2.95-16.35,7.16-1.39,1.36-2.49,3-3.88,4.35-4.23,4.15-10.74,5.38-16.55,4.23-7.31-1.43-13.73-6.16-21.11-7.13l-8.5-4.31c-27.09-1.2-55.94,2.56-77.17,19.42-4.65,3.69-8.83,7.93-13.53,11.54s-10.2,6.74-15.12,10.37c-6.33,4.69-11.87,10.35-17.38,16-5,5.13-10,10.27-14.67,15.76Z"></path>
    <path data-name="1a" data-official="" data-plain="Flower, magnified" data-loc="" d="M33.92,2546.36c-10.51-39.72-19.79-82.06-7.74-121.34,5-16.23,13.44-31.27,17.74-47.7,6.06-23.15,3.48-47.61,5.86-71.43.6-6,1.56-12.13,4.39-17.47S62,2278.57,68,2277.76c8.66-1.18,16.72,5.69,20.21,13.71s3.59,17,4.34,25.74a162.56,162.56,0,0,0,8.07,38.33c3.91,11.48,9.11,22.52,12.61,34.13,3.69,12.27,5.45,25,7.2,37.71,5.31,38.71,10.65,77.68,8.91,116.71-.59,13.38-2.05,26.88-6.57,39.49-5,13.85-13.64,26.92-13.76,41.64-.07,7.16,1.94,14.45.24,21.41-3,12.24-16.13,19-28.33,22.17a120.52,120.52,0,0,1-40,3.51c-2-.16-4.07-.42-5.6-1.68s-2.22-3.34-2.64-5.32a37.34,37.34,0,0,1,2.6-23.18c3.68-8,10.15-14.59,12.84-23,6.29-19.54-9.85-39.11-11.14-59.59Z"></path>
    <path data-name="1b" data-official="" data-plain="Bract" data-loc="" d="M163.21,2604.08c-6.3-19.09-12.63-38.3-15.43-58.21s-1.91-40.75,5.87-59.29c3.78-9,9.15-17.42,11.63-26.88,2.43-9.27,2-19,1.79-28.6q-.33-19.5,1.14-39c.43-5.72,1.06-11.67,4.13-16.52s9.33-8.16,14.66-6c5.49,2.18,7.62,8.73,8.77,14.53a167.16,167.16,0,0,1,3,25.42c.45,10.93-.15,22,2.57,32.63,2,7.9,5.84,15.21,8.65,22.86,4.49,12.21,6.43,25.18,8.34,38.05,2,13.45,4,27,2.93,40.58-1.39,17.82-8,34.77-11.86,52.23-1.42,6.41-2.47,13.07-1.25,19.52,1.13,6,4.18,11.5,6.86,17,4.05,8.33,7.4,17.26,7.52,26.52s-3.46,19-11,24.36c-8.64,6.19-20.36,5.61-30.77,3.44-9-1.87-19-5.72-22.24-14.34-2.44-6.42-.38-13.66,2.46-19.91s6.51-12.33,7.4-19.15-1.06-13.54-3.2-20Z"></path>
    <path data-name="1c" data-official="" data-plain="Seed" data-loc="" d="M249.28,2592.88c-2.15-14.31-7.22-28-11.08-41.93s-6.53-28.65-3.74-42.85a8.39,8.39,0,0,1,1.87-4.4c1.32-1.34,3.32-1.7,5.18-2a259.41,259.41,0,0,1,43.22-2.81c5.47.11,11.37.54,15.58,4,3.76,3.12,5.44,8.2,5.52,13.08s-1.21,9.66-2.5,14.37q-5.77,21-11.56,42.06c-2.74,10-5.5,20.39-3.43,30.52s8.72,18.94,9.47,29.18a25.45,25.45,0,0,1-11.67,23.14c-7.94,4.85-17.85,4.66-27.15,4.33-8.34-.3-18.36-1.65-21.84-9.24-3.2-7,1.17-14.82,4.46-21.76a80.56,80.56,0,0,0,7.39-26.81Z"></path>
    <path data-name="2" data-official="Scabiosa succisa" data-plain="Devil’s-bit Scabious" data-loc="England" d="M1674.05,2270.27c3.53,4.56,6.32,9.84,7.1,15.55,1.28,9.32-2.82,18.44-6.82,26.95-1.88,4-3.82,8.11-6.87,11.35-4.36,4.63-10.64,7.08-16.94,8s-12.71.31-19-.25l-29.38-2.59a22.64,22.64,0,0,1-6.65-1.26c-2.27-.92-4.17-2.54-6.26-3.82-4.9-3-10.83-4.11-15.43-7.53a71.48,71.48,0,0,1-6-5.63c-12.15-11.37-30-13.63-46.52-15.31q-13.9-1.39-27.81-2.77c-4.12-.41-8.51-.77-12.19,1.13-2.41,1.23-5.22,3.39-7.42,1.82l-1.17-1.1L1470,2286a2.73,2.73,0,0,1-.16-1.26,2.91,2.91,0,0,1,.68-1.19l9.22-11.17a11.72,11.72,0,0,1,1.55,5.45c2.51-2.19.9-6.44,2.22-9.5a10.34,10.34,0,0,1,1.76-2.51l7.11-8.25a15.7,15.7,0,0,1,3.85,4.58,9.42,9.42,0,0,0-1-5.47,3.27,3.27,0,0,1-.59-1.8,2.81,2.81,0,0,1,.8-1.43,106.15,106.15,0,0,0,13.17-19.57l3.85,4.15-1.81-5.93a4.54,4.54,0,0,1-.29-1.7,4.77,4.77,0,0,1,.78-1.88l6.49-10.82a21.08,21.08,0,0,1,3.22,4.24,6.62,6.62,0,0,0-1.62-6.55l5-8.7a2.25,2.25,0,0,1,1-1.07,2.21,2.21,0,0,1,1.82.38l3,1.65c.06-1.4-1.39-2.36-2-3.64-.93-2.1.85-4.61,3-5.29s4.56-.06,6.76.61l3.94-1.71,23.42-2a26.3,26.3,0,0,1,7.09,0,26.61,26.61,0,0,1,6.37,2.38l21.32,10.14a36.3,36.3,0,0,0,6.42,2.57c2.2.57,4.48.72,6.71,1.13,6.74,1.24,12.87,4.81,18.08,9.25s9.6,9.75,14,15l3.21,3.88c1.79,2.17,3.59,4.35,5.35,6.56,4.65,5.85,9,11.93,13.64,17.81Zm-346.18-369,16.15-9c3.62-2,7.45-4.28,9.23-8,1.26-2.67,1.31-5.8,2.6-8.45,1.45-3,4.29-5,6.66-7.37s4.46-5.56,3.71-8.8l-2-9.61c-5.06-.16-10.27-1.3-15.07.3a22.39,22.39,0,0,0-5.49,3,57.42,57.42,0,0,0-19.2,22.76l-6.45,14.31Zm130.41-445.52a3,3,0,0,1-1.38.22,2.87,2.87,0,0,1-1.4-.8,16.51,16.51,0,0,1-5.1-8.92c-.72-3.5-.29-7.19-1.25-10.63a13.76,13.76,0,0,0-10.28-9.54c-5.41-1.09-11.94.93-16-2.87l-.34-2.87c-5.14-.06-10.34-.12-15.28-1.53-2.6-.74-5.1-1.85-7.74-2.44l-3.09-4.2c.06-2.54-2-4.73-4.44-5.57s-5-.63-7.53-.32a23,23,0,0,1-7.58.16c-2.21-.48-4.24-1.69-6.49-2-4.13-.62-8.51,1.76-12.41.25l-5.43.46c-2.24-.6-3.41-3.14-5.49-4.17a9.3,9.3,0,0,0-4.1-.62l-6.6,0c-1.34,0-3,.21-3.49,1.45l-7.37,7-27.2-5.75-5.95-1.76a145.63,145.63,0,0,0-32.3,3.66c-2.24.51-4.62,1.17-6.06,3a30.62,30.62,0,0,1-1.82,2.53c-1.64,1.61-4.38,1.45-6.49.51s-3.86-2.53-5.92-3.57c-4.11-2.07-8.94-1.82-13.55-1.89a88.1,88.1,0,0,1-30.24-5.83l-5.42-3.18a10.93,10.93,0,0,1-6.45-1.63c-1.07-.68-2-1.53-3.05-2.27-6-4.26-14.37-4.14-20.14-8.69l-6.16,1.83c-1.69,1.39-3.54,2.86-5.73,3l-1.56,5.83c-.27,3.42,4.4,4.44,7.48,6a14.55,14.55,0,0,1,5.63,5.67c5,8.16,5.26,18.4,9.75,26.81a49.38,49.38,0,0,0,7.64,10.12c6.29,6.8,13.43,13.13,22,16.5,9.14,3.57,19.22,3.57,29,3.52l31-.15c5,0,10,0,14.77,1.51,5.66,1.84,10.4,5.8,14.44,10.17a71.3,71.3,0,0,1,13.81,22c2.54,6.4,4.2,13.28,8.14,18.92,1.95,2.8,4.42,5.23,6.21,8.14,4.44,7.26,4,16.39,3.41,24.88l-3.31,8.92c7.38,1,13.8,5.7,21.11,7.13,5.81,1.15,12.32-.08,16.55-4.23,1.39-1.36,2.49-3,3.88-4.35,4.29-4.21,10.6-5.38,16.35-7.16a65.37,65.37,0,0,0,15.64-7.24c9.15-5.82,16.71-13.81,25.57-20,14.58-10.26,32.24-15.41,49.94-17.53l14.92-.53a33.24,33.24,0,0,1,26.18,7.17,11.31,11.31,0,0,0,3.79,2.48,14.5,14.5,0,0,0,3.73.24c6.6.15,12.2,4.87,18.63,6.39,7.84,1.86,15.93-1.17,24-1.69a77.1,77.1,0,0,1,13.74.77l14.32,1.67c4.27.5,8.6,1,12.85.35s8.47-2.51,12.5-4.34c5.25-2.38,10.61-4.84,15.29-8.14l-4.65-4.82c-7.31-2.42-13.87-6.65-20.34-10.83l-7.31-4.73c-15.41-10-31.08-20.06-48.65-25.32l-8.49-1.45a144,144,0,0,0-63.3-6.57Zm149.6-161,4.54,2.58a14.34,14.34,0,0,0-3.31-10.88c-1.33-1.55-3.08-3-3.5-5a9.33,9.33,0,0,0-.49-2.37,41,41,0,0,0,10.81,2c2.23.11,4.66,0,6.37-1.45a50.56,50.56,0,0,1-15.06-7.08l9.3-2.68a5.73,5.73,0,0,1,1.68-.31,6.2,6.2,0,0,1,1.59.35,50.63,50.63,0,0,0,20.94,1.88l7-1.95c9.76-9,13.41-23,13-36.28a75.66,75.66,0,0,0-20.06-49c-3.06-3.3-6.44-6.33-9-10-2.16-3.09-3.72-6.57-6-9.6s-5.43-5.68-9.19-6l-9.75,1.17a33.92,33.92,0,0,0-17,11.9,11.84,11.84,0,0,0-11.38-.6,11,11,0,0,0-9.82-7.92l-11.21-1.84c-2.43,2.19-6.31.47-9.53,1.06a12.8,12.8,0,0,0-5.19,2.78c-7.39,5.62-14.64,11.73-19.51,19.63a87.09,87.09,0,0,0-6.46,13.92c-3.59,9.11-7.2,18.33-8.49,28a60.44,60.44,0,0,0,.59,19.49c3.84,19.68,17.46,38.31,13.29,57.93-2.1,9.89-8.51,18.23-14.74,26.2L1457.8,1394l-2.94,10.68-1.65,9.16a14.07,14.07,0,0,1,8.39,13l5.79-1.48c8.21-2,14.49-8.45,20.29-14.59l33.17-35.06c15.41-16.29,31-32.81,41.79-52.46l7.82-9.45c2.49-.65,3.89-3.22,5.12-5.48a74.26,74.26,0,0,1,5.09-8.13,2.38,2.38,0,0,1,1.44-1.16,2.46,2.46,0,0,1,1.9.94,41.32,41.32,0,0,0,7.32,6.1,12.24,12.24,0,0,0,9.15,1.69Zm-302.69,18.85c8.2,3.74,16.73,7.5,25.74,7.55l4.78,4,13.24-.27c5-.1,10.28-.17,14.91,1.84l9.61,1.4a91.91,91.91,0,0,1,13.31,19.6,27.46,27.46,0,0,0,3.19,5.42,20.42,20.42,0,0,0,4,3.46,24.42,24.42,0,0,0,8.09,4.05l16.27,1.6,1.85-5.38c10.32-32.57,20.65-65.18,33.44-96.87,5.77-14.3,12-28.39,18-42.61A1059.52,1059.52,0,0,0,1510,1109.5c3.45-11.65,6.72-23.48,7.34-35.62l2.06-11c-1.17-6.72,2.7-13.18,4.24-19.84,1.69-7.32.58-15.21,3.21-22.25l-.56-11.49a8,8,0,0,1-.14-7.17,5.84,5.84,0,0,1,4.27,3,7.2,7.2,0,0,0-2.63-8.9Q1530,993,1532.5,990a11.89,11.89,0,0,1,2.48,6.62,12.8,12.8,0,0,0,.21-7.65,3.86,3.86,0,0,1-.26-1.7,3.28,3.28,0,0,1,1-1.6,63.65,63.65,0,0,1,4.74-4.55,34.65,34.65,0,0,1,1.19,8.77c1.25,0,2.12-1.21,2.88-2.2a22.09,22.09,0,0,1,5.86-5.25l14.58-1.39c20.55,2.51,42.07-6.73,61.7-.16,10.32,3.45,18.71,10.88,27.49,17.3a165.81,165.81,0,0,0,38.48,21c18,6.94,37.37,10.7,56.66,9.87a124.3,124.3,0,0,0,85.93-40.48c15.85-17.58,26.56-40.34,27.17-64,.25-10.1-1.29-20.14-2.95-30.1-3.89-23.35-8.58-47-19.58-68a123.52,123.52,0,0,0-53.22-52.43c-14.19-7.18-29.63-11.53-44.94-15.83l-30.49-8.55c-6.85-1.93-13.83-3.87-21-3.65-6.94.2-13.64,2.45-20.22,4.67-16.94,5.73-34.4,11.75-47.68,23.73-7.47,6.73-13.27,15.07-19,23.32L1589.51,818c-5.65,8.12-11.37,16.39-14.52,25.77-8.08,24,2,50,11.87,73.37l1,5a6.31,6.31,0,0,1-2.69,5.49,18.49,18.49,0,0,1-5.8,2.63c-7.28,2.33-14.62,4.7-21.23,8.55s-12.51,9.35-15.45,16.41l-1.2,3.72c-.67,2.08-.35,4.34-.67,6.5s-1.7,4.51-3.88,4.64a7.23,7.23,0,0,1-1.54-.13,18,18,0,0,0-6,.13,9.47,9.47,0,0,1,4.8,3.5,87.33,87.33,0,0,0-9.75,9.77l-3.66-2.26c-8.2-3.42-17.92,1.19-23.41,8.17s-7.84,15.84-10.57,24.29c-2.13,6.59-4.57,13.1-6,19.88a56.92,56.92,0,0,1-1.82,7.58,61.25,61.25,0,0,1-2.83,6c-2.9,6-4.71,12.41-6.49,18.8l-10,35.88-2.68,12.16-16.71,51.87a159.09,159.09,0,0,1-7,19c-2.58,5.51-5.79,10.74-7.92,16.44-2.81,7.52-3.66,15.65-6.44,23.18-1,2.79-3.13,5.95-6.07,5.52-4-.59-3.87-6.3-4.72-10.28-1.1-5.18-5.81-9.13-11-10.24s-10.64.28-15.25,2.88c-3.56,2-6.92,4.81-11,5.24-4.67.49-9.07-2.3-12.49-5.53s-6.37-7-10.4-9.49-9-3.31-13.76-3.51a49.06,49.06,0,0,0-22.39,4.06c-10.17,4.65-18,13.16-25.5,21.45-2.82,3.11-5.68,6.28-7.54,10-2.26,4.56-2.93,9.74-3.26,14.82a132.9,132.9,0,0,0,5,46ZM991.37,2256.47l12.42,13.77c6.63,5.78,8.61,15.3,8.42,24.09s-2.11,17.52-1.64,26.3c.21,3.77.86,7.53.54,11.29-1.1,13.1-13.53,23.53-13.36,36.68.13,10.38,8.2,19.32,8.67,29.69.35,7.48-3.31,14.51-4.62,21.89a71.26,71.26,0,0,0-.65,13.78l.43,23.49,7.94,4.72c5.64-3,12.84,1.65,15.17,7.61s1.4,12.61,1.12,19,.44,13.48,5.08,17.89c3.32,3.15,8,4.3,12.49,5.32,30.44,7,61.11,14,92.33,15.15,3.8.14,7.88.12,11-2,3.35-2.25,4.93-6.41,5.4-10.42,1.52-13-6.1-27.43.84-38.52,3.2-5.11,8.88-8.15,12.73-12.8,5.91-7.17,6.75-17.12,7.19-26.41.11-2.39.23-4.86,1.3-7s3.12-3.88,5.08-5.44c12.65-10.1,25.7-20.42,41.17-25.22,6-1.87,12.23-2.85,18.34-4.34,27.89-6.8,52.54-23.95,80.65-29.8,7.45-1.54,15.15-2.3,22.17-5.24,14.17-5.92,23.28-19.6,31.55-32.54l4.08-4.48c5.34-3.87,11.56-6.28,17.71-8.64l10.75-4.14c1.64-.63,3.29-1.26,4.88-2,2.19-1,4.27-2.22,6.34-3.43l14.46-8.43c5.62-3.28,11.46-6.76,14.93-12.26l.74-1.24a12.54,12.54,0,0,1-5.51-3.26c2.92.67,6.31,1.24,8.64-.65,1.65-1.35,2.31-3.64,4-5L1448,2269a20,20,0,0,1,7.76,1.45,2.58,2.58,0,0,0,1.84.29,2.35,2.35,0,0,0,1-.84l5.78-7.28a34.29,34.29,0,0,1-5.73-2.34c2.13-1.28,5,1.5,7.22.33a4.52,4.52,0,0,0,1.41-1.41q2.38-3.3,4.55-6.77a1.37,1.37,0,0,0,.29-.85c-.06-.41-.47-.66-.84-.85l-4.71-2.5c2.07-1,4.52.83,6.77.37,1.47-.3,2.55-1.51,3.52-2.66,5.75-6.76,11.57-13.65,15.17-21.76a14.3,14.3,0,0,0-6.35-2.62l6.5.5a3,3,0,0,0,1.48-.14,2.92,2.92,0,0,0,1.14-1.17l7.3-11a26.62,26.62,0,0,0-5-2.19,4.89,4.89,0,0,0,5.17-1.2c1.17-1.46.61-4.14-1.23-4.55l-1.86-2.75,2.07-7.81a18.3,18.3,0,0,1,1.7-4.64,37.6,37.6,0,0,1,3.44-4.23c2.55-3.17,3.94-7.15,6.54-10.27a8.81,8.81,0,0,0,1.47-2,9.36,9.36,0,0,0,.47-3,14,14,0,0,1,5.51-9.84l1.31-5.49,7.34-14.22c.82-1.58,1.63-3.16,2.55-4.69,1.31-2.17,2.81-4.23,4.32-6.28l8.05-11a12.8,12.8,0,0,1,2.92-3.17,13.18,13.18,0,0,1,4.56-1.64l13.54-3a65.89,65.89,0,0,1,11.23-1.82,1.58,1.58,0,0,1,2,1.61l4.48,4.24c13.49-2,25.8-8.57,37.78-15.09a163,163,0,0,0,14.1-8.28,82.4,82.4,0,0,0,10.44-8.38c8.15-7.71,14.65-17,21.09-26.15l1.33-1.89c3.41-4.86,6.88-9.84,8.6-15.52s1.44-12.32-2.19-17c-2.06-2.67-5-4.51-8-6.14a103.6,103.6,0,0,0-47.64-12.78l-4.8-.71a7.56,7.56,0,0,0-7.19,2.79,13.42,13.42,0,0,0-2.71,7.53,4.37,4.37,0,0,1-.83,2.81,2.79,2.79,0,0,1-3.08.31,12.73,12.73,0,0,1-2.64-1.94,15.21,15.21,0,0,0-11.62-3.19,8,8,0,0,0-6.43-9L1568,1990a136,136,0,0,0-83.55,19.1,127.64,127.64,0,0,0-53.6,66.62c-3.43,10.05-5.54,20.49-8.67,30.63-2.94,9.53-6.77,18.76-10.6,28L1401,2159.78a6.44,6.44,0,0,1-2.09,3.09c-2.09,1.36-4.91-.15-6.46-2.09-3.51-4.39-3.78-10.45-3.9-16.06l-.74-36c-.17-8.42-.34-16.89,1.09-25.19,1.49-8.69,4.71-17,8-25.18q24.45-61.29,54.35-120.21l-.32-3.3c-5.09-3.09-5.67-11-11-13.76a138.57,138.57,0,0,1-55.53,11.34,8.69,8.69,0,0,0-3.09.37c-2.59,1-3.85,4.32-6.56,4.92l-3.7,3.25a10.15,10.15,0,0,1-4.26,1.85,4.76,4.76,0,0,1-4.27-1.43c-1-1.14-1.16-2.76-2.1-3.91-1.77-2.15-5.09-1.71-7.87-1.85s-5.68-1.11-8.53-.84a20,20,0,0,0-6.34,2.09l-6.29,2.9-2.71,2.37c-.15,1.62-1.64,2.72-2.55,4.06a12.47,12.47,0,0,0-1.6,5.16l-2,13.06c-.4,2.52-.91,5.27-2.87,6.91a7.27,7.27,0,0,1-2.86,1.39c-6.23,1.64-12.42-2.07-18.45-4.33-5.13-1.92-10.59-2.83-15.8-4.5l-8.16.37c-5.41,1.14-11-.71-16.09-2.77-10.32-4.15-20.56-9.34-31.67-10-6-.34-12.24.65-17.89-1.43l-4-3.11c-6-1.06-10.9-5.08-16.52-7.31-7-2.78-14.79-2.68-22.34-2.53l-7.28-.31c-8.3,3.93-17,7.77-26.17,7.89-10.62.13-20.57-4.69-30.8-7.52-8.08-2.23-16.44-3.22-24.77-4.21-8.18-1-16.56-1.93-24.58,0a55.78,55.78,0,0,0-13.92,5.79,64.42,64.42,0,0,0-13.27,9.23,42.44,42.44,0,0,0-9.57,13.44l-.17,7.18a79,79,0,0,0-5,34.7c.36,4.35,1.06,8.89-.49,13s-4.86,6.81-7.57,10a36.17,36.17,0,0,0-7.51,14.86l-3.23,9.26c-2,1.43-2,4.29-1.87,6.72s-.18,5.36-2.34,6.48a6.85,6.85,0,0,1-3.87.33c-7.77-.78-15.79-.84-23.17,1.71-3.54,1.22-7.2,3.06-10.84,2.16l-1.17-.35-.31,13.75c-.08,3.52-.15,7.13,1,10.44,1.94,5.38,6.85,9.1,9.66,14.09,4.82,8.57,2.84,19.73,7.67,28.29,3,5.36,8.74,10.4,7.14,16.34-.39,1.45-1.22,2.79-1.4,4.28-.33,2.58,1.31,5,2.9,7a227.52,227.52,0,0,0,15,17.52l0,.82,1,1,2.32.93-.69,5.78a3.25,3.25,0,0,0,0,1.49,3.36,3.36,0,0,0,.71,1c4.37,4.76,8.82,9.6,14.37,12.92a55.21,55.21,0,0,0-8.33.39c2.44,1.34,5.38,1.25,8.17,1.36s5.84.57,7.71,2.65a37.91,37.91,0,0,1-8,2.94c2.54.55,5.16-.05,7.74-.35s5.42-.26,7.46,1.34a23.06,23.06,0,0,1-7.46,3.78,15.49,15.49,0,0,0,8.77-.93,3.59,3.59,0,0,1,1.73-.44,3.24,3.24,0,0,1,1.11.41l6.47,3.35a10.4,10.4,0,0,0-4.09,11.15l-4.75,4a22.15,22.15,0,0,0-11.27,16.6c-.27,2.31-.33,5-2.16,6.42a7.5,7.5,0,0,1-3.47,1.16l-10.44,1.63Z"></path>
    <path data-name="2a" data-official="" data-plain="Flower" data-loc="" d="M1308.5,2579.4c-1.1-5-5.85-8.17-10.44-10.35s-9.66-4-12.75-8.05-3.59-9.54-2.43-14.46,3.81-9.35,6.59-13.58c7.44-11.35,16.62-22.34,29.19-27.45,6.48-2.63,13.52-3.55,20.5-4,12.39-.86,25.89-.06,35.52,7.79,7.57,6.17,11.51,15.76,13.82,25.26,1.93,7.94,2.74,17-1.91,23.7-3.95,5.71-11.06,8.54-15.19,14.13-2.29,3.1-3.51,6.86-4.58,10.57-2.87,10-5,20.65-2.18,30.65,2,7.29,6.48,13.64,9.46,20.59s4.32,15.43.22,21.78-11.87,8.49-19.12,9.84a170,170,0,0,1-43.44,2.41c-4.41-.32-9.32-1.08-12-4.6a13.1,13.1,0,0,1-2.25-6.8,31.39,31.39,0,0,1,10.44-26.17c3.91-3.4,8.74-5.89,11.72-10.14,3.74-5.32,3.82-12.54,1.79-18.72s-5.9-11.56-9.72-16.82Z"></path>
    <path data-name="2b" data-official="" data-plain="Pistil and inner Calyx" data-loc="" d="M1416.81,2586.5c-6.56-3.42-9.86-10.79-12.68-17.63-2.59-6.31-5.24-13.16-3.56-19.78,2-8.07,9.84-13.21,17.35-16.79,2.68-1.28,5.73-2.85,6.39-5.75a9.12,9.12,0,0,0-.17-3.67,94.58,94.58,0,0,0-6.33-20.38c-3.59-8.17-8.31-17.85-3.46-25.35,3.13-4.83,9.64-6.77,15.28-5.56s10.4,5.08,13.92,9.65c7.32,9.5,9.78,21.88,10.54,33.85.37,5.78.64,12.2,4.76,16.28a25.23,25.23,0,0,0,6,3.89c5.86,3.19,12,8.39,11.37,15-.32,3.33-2.36,6.22-4.34,8.91-4.84,6.58-9.85,13.14-13.15,20.61s-4.77,16.09-2.23,23.85c1.59,4.88,4.63,9.12,7,13.67a52.82,52.82,0,0,1,5.91,25.14,17.51,17.51,0,0,1-1.83,8.49c-1.53,2.65-4.13,4.5-6.81,6-15,8.32-33.35,7.2-50.47,5.63-3.42-.32-7.22-.83-9.4-3.48s-2-6.32-1.31-9.6c3.68-18.19,19.51-33.27,18.92-51.83Z"></path>
    <path data-name="2c" data-official="" data-plain="Outer Calyx and Scale" data-loc="" d="M1503,2599.19l-16.84-36.72c-2.22-4.85-4.47-9.78-5.21-15.06a6,6,0,0,1,.23-3.29,5.45,5.45,0,0,1,2.64-2.39c6.48-3.31,14.43-1.54,21,1.65s12.43,7.72,19.28,10.17c11,3.91,23.08,2.07,34.62,3.67,8.19,1.13,17.23,5.19,19.21,13.22,1.19,4.83-.53,9.89-2.58,14.42a95.05,95.05,0,0,1-10.14,17.25c-2.36,3.18-5,6.44-5.51,10.37-1.51,11.79,16.19,18.47,16.53,30.35.14,5.09-3.2,9.78-7.42,12.63s-9.25,4.21-14.18,5.52l-16.27,4.32c-6,1.58-12.06,3.17-18.19,2.58s-12.39-3.85-14.83-9.5c-4.66-10.83,6.38-22.26,6.26-34.05-.06-5.84-2.88-11.29-6-16.19Z"></path>
    <path data-name="2d" data-official="" data-plain="Involucre" data-loc="" d="M1617.58,2621c-10.61-3.93-17.21-14.58-21.13-25.2s-6-22-11.73-31.79c-3-5.1-6.89-9.78-8.37-15.48-1.23-4.75-.65-9.76-.06-14.62a136.93,136.93,0,0,1,2.88-17.34c5.18-20.32,19.83-37.58,38-48s39.65-14.38,60.61-13.45a73.57,73.57,0,0,1,21.21,3.58c5.91,2.08,11.37,5.24,16.78,8.39,11.9,6.92,23.9,13.91,34.15,23.1,2.74,2.46,5.4,5.15,6.83,8.54s1.48,7.21,1.51,10.9l.36,42.25c.06,7.23.11,14.54-1.37,21.62a55.51,55.51,0,0,1-15.71,28.07c-5,4.92-11,9-15.26,14.63-7.33,9.69-8.77,22.78-15.63,32.81-6.68,9.75-17.92,15.62-29.45,18.22s-23.49,2.27-35.31,1.94c-5.79-.17-12.37-.71-15.94-5.28s-2.52-10.86-3-16.53a29,29,0,0,0-8-17.41Z"></path>
    <path data-name="3" data-official="Knautia arvensis" data-plain="Field Scabious" data-loc="England" d="M1381.5,2397.57q-15.29,11.22-29.87,23.35c-20.74,17.27-40.34,35.86-59.92,54.43l-17.45,16.56c-13.79,13.09-27.77,26.4-37.4,42.79-4.31,7.34-8,15.59-15.2,20.18-7,4.47-15.94,4.51-24.09,3-5.31-1-10.91-2.88-14-7.32-2-2.92-2.68-6.56-3-10.1-2.54-27.12,10.85-53.49,28.4-74.32,4.82-5.73,10-11.19,14.25-17.35,5.27-7.63,9.18-16.38,16-22.61,6.08-5.51,13.92-8.55,21.19-12.35,10.39-5.42,19.78-12.53,29.12-19.61l25.09-19,4.79-10c7.45-1.54,15.15-2.3,22.17-5.24,14.17-5.92,23.28-19.6,31.55-32.54l4.08-4.48c5.34-3.87,11.56-6.28,17.71-8.64l10.75-4.14c1.64-.63,3.29-1.26,4.88-2,2.19-1,4.27-2.22,6.34-3.43l14.46-8.43c5.62-3.28,11.46-6.76,14.93-12.26l.74-1.24a12.54,12.54,0,0,1-5.51-3.26c2.92.67,6.31,1.24,8.64-.65,1.65-1.35,2.31-3.64,4-5L1448,2269a20,20,0,0,1,7.76,1.45,2.58,2.58,0,0,0,1.84.29,2.35,2.35,0,0,0,1-.84l5.78-7.28a34.29,34.29,0,0,1-5.73-2.34c2.13-1.28,5,1.5,7.22.33a4.52,4.52,0,0,0,1.41-1.41q2.38-3.3,4.55-6.77a1.37,1.37,0,0,0,.29-.85c-.06-.41-.47-.66-.84-.85l-4.71-2.5c2.07-1,4.52.83,6.77.37,1.47-.3,2.55-1.51,3.52-2.66,5.75-6.76,11.57-13.65,15.17-21.76a14.3,14.3,0,0,0-6.35-2.62l6.5.5a3,3,0,0,0,1.48-.14,2.92,2.92,0,0,0,1.14-1.17l7.3-11a26.62,26.62,0,0,0-5-2.19,4.89,4.89,0,0,0,5.17-1.2c1.17-1.46.61-4.14-1.23-4.55l-1.86-2.75,2.07-7.81a18.3,18.3,0,0,1,1.7-4.64,37.6,37.6,0,0,1,3.44-4.23c2.55-3.17,3.94-7.15,6.54-10.27a8.81,8.81,0,0,0,1.47-2,9.36,9.36,0,0,0,.47-3,14,14,0,0,1,5.51-9.84l1.31-5.49,7.34-14.22c.82-1.58,1.63-3.16,2.55-4.69,1.31-2.17,2.81-4.23,4.32-6.28l8.05-11a12.8,12.8,0,0,1,2.92-3.17,13.18,13.18,0,0,1,4.56-1.64l13.54-3a65.89,65.89,0,0,1,11.23-1.82,1.58,1.58,0,0,1,2,1.61l4.48,4.24-.25,11.36c-6.26,12.09-12.55,24.28-16.35,37.36-1.27,4.38-2.26,8.85-4,13.08-2.86,7.12-7.64,13.28-12.36,19.34l-7.79,4.65-3.94,1.71c-2.2-.67-4.57-1.29-6.76-.61s-4,3.19-3,5.29c.57,1.28,2,2.24,2,3.64l-3-1.65a2.21,2.21,0,0,0-1.82-.38,2.25,2.25,0,0,0-1,1.07l-5,8.7a6.62,6.62,0,0,1,1.62,6.55,21.08,21.08,0,0,0-3.22-4.24l-6.49,10.82a4.77,4.77,0,0,0-.78,1.88,4.54,4.54,0,0,0,.29,1.7l1.81,5.93-3.85-4.15a106.15,106.15,0,0,1-13.17,19.57,2.81,2.81,0,0,0-.8,1.43,3.27,3.27,0,0,0,.59,1.8,9.42,9.42,0,0,1,1,5.47,15.7,15.7,0,0,0-3.85-4.58l-7.11,8.25a10.34,10.34,0,0,0-1.76,2.51c-1.32,3.06.29,7.31-2.22,9.5a11.72,11.72,0,0,0-1.55-5.45l-9.22,11.17a2.91,2.91,0,0,0-.68,1.19,2.73,2.73,0,0,0,.16,1.26l2.57,8.78,1.17,1.1c2.2,1.57,5-.59,7.42-1.82l-4.11,10.09c-7,18.71-21.27,33.64-35.17,48-14.55,15-30,30.54-50,36.59Zm466.93-745.93,13.24-45.87a179.53,179.53,0,0,0,5.5-22.7c1.38-9.06,1.36-18.27,1.33-27.44l-.19-72.43c0-14.86-.17-30.17-5.94-43.87s-18.66-25.5-33.51-25.28a21.85,21.85,0,0,0-12.88,4.08c-6.63,5-9.36,14.38-16.73,18.21l-7.29,6.82-5.23,9.82-9.3,18.7c-4.61,9.26-9.23,18.58-12.29,28.46-1.59,5.12-2.75,10.39-4.74,15.38-4.26,10.68-12.1,19.56-17.07,29.93-2.22,4.64-3.84,9.54-5.73,14.32-2.15,5.41-4.65,10.68-7.14,16q-4.83,10.18-9.65,20.38c-5,10.49-10.33,21.45-19.82,28.13l-7.12,2.66c-6.72,4.94-15.1,7-23.31,8.46-7.39,1.31-15.23,2.41-21.07,7.12-3.37,2.72-5.77,6.42-8.51,9.77a57.62,57.62,0,0,1-23.27,17l-9.76,5.94c-6.32,1-13.28-3.18-18.86-.07-2.41,1.35-4,3.83-6.29,5.35s-5,2-7.52,2.68a38.44,38.44,0,0,0-25,22.56l-4,5.81a37.56,37.56,0,0,0-10.29,5.61c-7.3,5.76-12.13,14.93-20.82,18.25-3.19,1.22-6.67,1.52-9.9,2.66s-6.39,3.46-7,6.82l-9,31.65-19.43,18.63a101.07,101.07,0,0,1-11.85,10.24c-5.87,4.1-12.52,6.91-19,9.94a245.11,245.11,0,0,0-25.32,13.69c-7.71,4.8-15.15,10.09-23.25,14.22s-17,7.08-26.1,6.79l2,9.61c.75,3.24-1.33,6.46-3.71,8.8s-5.21,4.37-6.66,7.37c-1.29,2.65-1.34,5.78-2.6,8.45-1.78,3.74-5.61,6-9.23,8l-16.15,9-9.89-11a99,99,0,0,1-41,18.47c-3.62.71-7.28,1.22-10.93,1.76q-18.11,2.7-36,6.67l-9.61,6.41a35.26,35.26,0,0,0-13.3,16.56l-2.47,6.71,4,3.11c5.65,2.08,11.89,1.09,17.89,1.43,11.11.63,21.35,5.82,31.67,10,5.13,2.06,10.68,3.91,16.09,2.77l8.16-.37c5.21,1.67,10.67,2.58,15.8,4.5,6,2.26,12.22,6,18.45,4.33a7.27,7.27,0,0,0,2.86-1.39c2-1.64,2.47-4.39,2.87-6.91l2-13.06a12.47,12.47,0,0,1,1.6-5.16c.91-1.34,2.4-2.44,2.55-4.06l2.71-2.37,6.29-2.9a20,20,0,0,1,6.34-2.09c2.85-.27,5.67.7,8.53.84s6.1-.3,7.87,1.85c.94,1.15,1.15,2.77,2.1,3.91a4.76,4.76,0,0,0,4.27,1.43,10.15,10.15,0,0,0,4.26-1.85l3.7-3.25c2.71-.6,4-3.94,6.56-4.92a8.69,8.69,0,0,1,3.09-.37,138.57,138.57,0,0,0,55.53-11.34c5.3,2.72,5.88,10.67,11,13.76l.32,3.3,8-2.35c39.37,1.85,79.2,3.66,117.86-4q-3.67,22.69-9.21,45l.1,13.28,10.89,9.15a8,8,0,0,1,6.43,9,15.21,15.21,0,0,1,11.62,3.19,12.73,12.73,0,0,0,2.64,1.94,2.79,2.79,0,0,0,3.08-.31,4.37,4.37,0,0,0,.83-2.81,13.42,13.42,0,0,1,2.71-7.53,7.56,7.56,0,0,1,7.19-2.79l10.6-6c.24-20.65,6.66-40.67,13-60.32,3.1-9.58,6.33-19.4,12.71-27.18,12.09-14.73,32.53-19,48.81-28.89,9.46-5.76,17.55-13.48,26.65-19.79s19.78-11.33,30.82-10.48c12.29,1,22.74,8.85,33.06,15.61,9.32,6.12,19.28,11.58,30.14,14.09s22.81,1.81,32.44-3.81c15.33-8.95,21.59-30.6,13.41-46.35-5.85-11.26-18-19.91-18.67-32.58-.49-8.88,5.08-17.07,11.8-22.91s14.71-10,21.56-15.72c15.7-13,24.4-34.85,19.67-54.71s-24-35.94-44.37-34.88Zm-207.68-379.8a50.63,50.63,0,0,1-20.94-1.88,6.2,6.2,0,0,0-1.59-.35,5.73,5.73,0,0,0-1.68.31l-9.3,2.68a50.56,50.56,0,0,0,15.06,7.08c-1.71,1.42-4.14,1.56-6.37,1.45a41,41,0,0,1-10.81-2,9.33,9.33,0,0,1,.49,2.37c.42,2,2.17,3.41,3.5,5a14.34,14.34,0,0,1,3.31,10.88l-4.54-2.58-7.4,13-3.14,11.63c1,56.64,17.81,112.7,13.09,169.15l.87,10.31a60.69,60.69,0,0,0,10.49,4.75l4.65,4.82-.1.07a36.5,36.5,0,0,0,6.38-5.6c2-2.23,3.65-4.77,5.9-6.73,1.54-1.35,3.33-2.4,4.8-3.84a25.11,25.11,0,0,0,4.11-6l13.31-24.22-.31-8.27a1151.88,1151.88,0,0,0-17.35-170.13Zm-112-225.26c4.78,7.51,5.91,16.68,8.51,25.2,2.75,9,7.21,17.42,10.83,26.13a148.84,148.84,0,0,1,11.34,56.42l-2.11,7.35,11.21,1.84a11,11,0,0,1,9.82,7.92,11.84,11.84,0,0,1,11.38.6,33.92,33.92,0,0,1,17-11.9l-2.52-7.47c1.8-17.56-4.23-34.86-9.69-51.64a901.74,901.74,0,0,1-28.83-113.26l-.6-6.71-14.58,1.39a22.09,22.09,0,0,0-5.86,5.25c-.76,1-1.63,2.15-2.88,2.2a34.65,34.65,0,0,0-1.19-8.77,63.65,63.65,0,0,0-4.74,4.55,3.28,3.28,0,0,0-1,1.6,3.86,3.86,0,0,0,.26,1.7,12.8,12.8,0,0,1-.21,7.65,11.89,11.89,0,0,0-2.48-6.62q-2.49,3-4.68,6.23a7.2,7.2,0,0,1,2.63,8.9,5.84,5.84,0,0,0-4.27-3,8,8,0,0,0,.14,7.17l.56,11.49ZM1489,927.43c1.92,11.08,7.25,21.23,12.52,31.17l8.62,16.29,2.93,5.19a15.51,15.51,0,0,1,7.69,1l3.66,2.26a87.33,87.33,0,0,1,9.75-9.77,9.47,9.47,0,0,0-4.8-3.5,18,18,0,0,1,6-.13,7.23,7.23,0,0,0,1.54.13c2.18-.13,3.56-2.48,3.88-4.64s0-4.42.67-6.5l1.2-3.72-2.4-7.55c.19-11.69-2.54-23.21-5.26-34.58L1530.91,896l-2.54-8a27.28,27.28,0,0,1-15.25,5.18c.21,5.3-.3,10.8-2.8,15.49s-7.31,8.41-12.62,8.39Zm17.75-265.49a260,260,0,0,0,143.36-37.53c5.15-3.13,10.35-6.61,13.49-11.74,4.09-6.67,4-15,3.89-22.81-.2-9.72-.5-19.83-5-28.45-4.37-8.41-12.36-14.64-16.11-23.34-2.1-4.88-2.74-10.27-4.59-15.25-3.7-10-12.09-17.77-21.5-22.85s-19.86-7.82-30.2-10.52l-64-16.69c-21.73-5.67-44-11.38-66.37-9.25-10.81,1-21.37,3.89-31.72,7.19a369.81,369.81,0,0,0-115.17,60.86c-13.59,10.63-26.73,22.57-34.68,37.88s-9.95,34.66-1.32,49.6c5.67,9.8,15.16,16.73,24.72,22.79,27.64,17.54,60,30.64,92.49,26.62,14.18-1.76,29.5-6.53,42,.34l7.35,4c.92,17.53,1.85,35.1,4.64,52.43,5.34,33.3,17.42,65.09,29.42,96.61l3.12,3A15.53,15.53,0,0,1,1493,822c3.74.79,7.35,3,11.1,2.27l.53-6.72a165.67,165.67,0,0,0-4.81-31.3c-1.66-6.53-3.73-13-4.48-19.71-1-8.7.3-17.47.71-26.22,1.16-24.76-4.64-49.81-.33-74.22Z"></path>
    <path data-name="3a" data-official="" data-plain="Flower" data-loc="" d="M1829.76,2418.37c-6.56.55-11.36-5.79-14.8-11.39-3.28-5.34-6.67-11.68-4.49-17.55,2.6-7,12-9.83,13.91-17,1.89-6.9-4.09-13.36-5.45-20.38-1.08-5.58.88-11.4,4-16.11,5.37-8,14.06-13.36,23.29-16.1s19-3,28.62-2.45c7.61.46,15.38,1.51,22.07,5.15s12.14,10.35,12.4,18c.21,5.94-2.62,12.2-.15,17.6,1.19,2.61,3.45,4.54,5.65,6.39l12.83,10.81c5.32,4.48,10.86,9.27,13.22,15.82,3.3,9.19-.64,19.62-6.91,27.12s-14.61,12.88-22.08,19.18a31.85,31.85,0,0,0-5.31,5.39c-4.33,5.92-4.75,13.74-5,21.06a20.9,20.9,0,0,0,.61,7.36,15.58,15.58,0,0,0,5,6.74c5.14,4.32,11.52,6.8,17.62,9.58s12.25,6.14,16.18,11.57,5,13.47.82,18.71c-3.38,4.22-9.1,5.63-14.42,6.58a217.62,217.62,0,0,1-44.94,3.3c-2.19-.07-4.51-.21-6.34-1.42-4.53-3-3.3-9.81-4.94-15-1.82-5.77-7.34-9.39-11.41-13.86-6.17-6.79-9.17-15.93-10.37-25s-.75-18.3-.91-27.47c-.1-5.16-.41-10.43-2.33-15.22s-5.74-9.09-10.74-10.36Z"></path>
    <path data-name="3b" data-official="" data-plain="Stamen" data-loc="" d="M1776.36,2484c-5.76.19-11.63.38-17.19-1.17s-10.85-5.12-13-10.47a20.69,20.69,0,0,1-1-10.07,38.17,38.17,0,0,1,13.46-24.83c4.65-3.84,10.49-6.91,12.76-12.5,3.76-9.25-4.35-20.11-.86-29.46,3.31-8.89,15.91-11.05,24.19-6.43s13,13.63,16.68,22.37a209.55,209.55,0,0,1,14,50.27c1.19,8.13,1.63,17.29-3.61,23.62-4.13,5-11,7-17.49,6.72s-12.67-2.51-18.75-4.72Z"></path>
    <path data-name="3c" data-official="" data-plain="Seed and Calyx" data-loc="" d="M1793.45,2553.05a22.68,22.68,0,0,1-9.76-19.37,7.91,7.91,0,0,1,.92-3.78,8.83,8.83,0,0,1,3.3-2.84,57.68,57.68,0,0,1,38.45-7.06c6.39,1.08,13.28,3.87,15.8,9.85,1.31,3.1,1.22,6.58,1.11,9.94q-.82,24.57-1.64,49.15c-.27,8.2-.54,16.42-1.88,24.51-.65,4-1.57,8-1.19,12,.6,6.41,4.38,12,6.94,17.92s3.69,13.39-.45,18.32c-2.1,2.49-5.2,3.88-8.25,5a90.8,90.8,0,0,1-47.4,4.34c-2.4-.43-5-1.07-6.47-3s-1.5-4.75-1.21-7.25a59.14,59.14,0,0,1,9.29-25.64c3.51-5.34,8.07-10.67,8-17-.09-6.06-4.38-11.1-6.91-16.61-5.16-11.23-2.89-24.37.35-36.3Z"></path>
    <path data-name="3d" data-official="" data-plain="Calyx" data-loc="" d="M1857.49,2623.06c-9.71-11.79-8.54-28.82-6.87-44l2.56-23.18c.29-2.61.63-5.36,2.25-7.42,1.91-2.43,5.14-3.34,8.15-4,9.59-2.21,21-3.28,28,3.55,6,5.78,6.57,15,6.76,23.34q.34,15.46.71,30.95c.1,4.27.21,8.6,1.52,12.66s4,7.88,8,9.48c2.27.92,4.77,1.05,7.17,1.52,8,1.55,15.3,7.55,16.89,15.49,1.73,8.7-3.71,17.61-11.16,22.41s-16.54,6.25-25.37,7.07q-8.82.81-17.7.91c-5.33.06-10.77-.09-15.77-1.93s-9.54-5.66-11-10.79c-2.87-10.32,7.23-19.48,9.8-29.87Z"></path>
    <path data-name="4" data-official="Scabiosa atro-purpurea" data-plain="Sweet Scabious" data-loc="South Europe" d="M887,1654.14c4-2.09,7.25-6.49,11.69-5.94,3.15.39,5.46,3.36,6.19,6.45s.21,6.31-.15,9.46a105.09,105.09,0,0,0-.06,23.85L902,1699.41a75.32,75.32,0,0,1-2.06,23.65l-9.18,5.06a37.94,37.94,0,0,1-9.17-23.84c-.13-6.39,1.37-12.71,1.67-19.1Zm-73.12,560.21c-8.75-8.83-13.75-20.66-21.22-30.6-1-1.37-2.22-2.78-3.88-3.18a1.62,1.62,0,0,0-1.36.17c-.65.49-.48,1.5-.18,2.26a14.57,14.57,0,0,0,3.59,5.31l.63,4.71c2.81,5.37,1.15,11.85,0,17.78a103.2,103.2,0,0,0-1.68,28.87,25.65,25.65,0,0,0,2,8.89c1.62,3.44,4.49,6.1,7,8.93,2.89,3.23,5.47,6.89,6.6,11.08.77,2.85.84,5.83,1.55,8.69a20.11,20.11,0,0,0,4,8,18,18,0,0,0,13,6.63,14.55,14.55,0,0,0,12.72-6.65c2.78-4.61,2.44-10.4,2-15.77-.35-4.32-.83-9-3.69-12.22s-7.45-4.37-10.73-7.2c-3.5-3-5.12-7.63-6.6-12a5.92,5.92,0,0,1-.44-2.3,8.76,8.76,0,0,1,.57-2.06,9.23,9.23,0,0,0-.73-7.34Zm33.49-289.87c-5.37-7.45-3.77-17.61-4.85-26.73a43.57,43.57,0,0,0-8.63-21.26l-10.08-2,.93,4.64c.15,13.86-3.35,27.45-6.3,41a526.64,526.64,0,0,0-11.19,82.27l0,4.71a349.66,349.66,0,0,1-5.61,57.29l-3.72,1.9c-4.36,14.64-3.36,30.27-2.31,45.51l1.23,3.94a4.59,4.59,0,0,1-.29,4.63,13.51,13.51,0,0,1-3.44,3.43l16.67-5.09a2.45,2.45,0,0,0,1.16-.61,2.37,2.37,0,0,0,.42-1.46q1.14-17.76,2.27-35.53c.48-7.54,1-15.38,4.75-22,2.32-4.12,5.91-8,5.73-12.73l3.09-4.74c-1.48-11.32.4-22.79,2.28-34.06,4.35-26,8.73-52,14-77.86Zm-54.68-526c-2.54.64-4.44,2.73-5.92,4.89s-2.75,4.53-4.73,6.24a39.6,39.6,0,0,1,10.24-.87l4.69,2c2.59,1.12,5.54,0,8.36-.07a11.29,11.29,0,0,1,9.31,4.71l2.56,2.06c4,2.4,8.22,4.86,12.88,5.34a32.17,32.17,0,0,0,6.43-.18l12.86-1.23,4-3.06c7.86,1.13,15.36-4.88,23.27-4.1,2.61.26,5.09,1.25,7.68,1.71a19.12,19.12,0,0,0,8.67-.48l4.88.95,2.23-5a20.48,20.48,0,0,1,3.93-2.51c9-4.42,19.85-1.74,29.68-3.8l.86.33a19.34,19.34,0,0,0-11.39,14.36c-.91,5.35.5,10.86-.17,16.25-1,7.81-6.09,14.36-9.73,21.34s-5.63,16.12-.73,22.28l.53.62c-.65-4,3.28-7.13,6.74-9.27,5.36-3.31,10.91-6.79,14.27-12.12,1.62-2.56,2.66-5.45,4.31-8,1.81-2.8,4.31-5.09,6.13-7.88,6-9.2,2.42-23.22-7.27-28.41a16.85,16.85,0,0,1,30.07,9.79l3.53,11.92c2.86,9.25,5.74,18.69,5.51,28.37-.37,14.67-7.81,28.09-12,42.15a85.34,85.34,0,0,0-3.17,35.74,12.62,12.62,0,0,0,1.31,4.65c1.57,2.71,4.75,4,7,6.16l3.86-5.49c3-7.15,7.52-13.52,12-19.83l18.3-25.63c3.62-5.08,7.29-10.21,12-14.36,5.64-5,12.52-8.4,19.3-11.73,12.75-6.25,25.78-12.58,39.85-14.52a117.31,117.31,0,0,1,21.37-.47c11.19.54,23,1.74,31.94,8.54,6,4.62,10,11.33,14.54,17.47s10,12.14,17.36,14.11c3.86,1,8,.88,11.85,1.79,7.44,1.75,13.38,7.17,20.19,10.64s16.29,4.42,21.09-1.51c3-3.74,3.16-9,2.68-13.77a72,72,0,0,0-12.38-33.62l-3.35-5.35c-8.62-3.37-15.76-9.7-22-16.5a49.38,49.38,0,0,1-7.64-10.12c-4.49-8.41-4.8-18.65-9.75-26.81a14.55,14.55,0,0,0-5.63-5.67c-3.08-1.54-7.75-2.56-7.48-6l1.56-5.83c-1.83.09-3.62-.81-5.45-.67l-2.61-4.43c-6.9-6.12-5.14-18.46-12.29-24.27-2.64-2.14-6.09-3-9.45-3.49a57.66,57.66,0,0,0-12-.48c-5.79.37-11.89,1.57-17.19-.79-4.57-2-7.64-6.36-10.48-10.48-3.89-5.65-7.92-11.69-8.28-18.54-.15-2.77.12-6-2-7.77a7.7,7.7,0,0,0-2.78-1.25l-6.41-1.93-4.65-1.2a48,48,0,0,1-8.94-7.71l1.52-4.63a30.43,30.43,0,0,1-10.11-12.59c-.48-1.1-.89-2.24-1.44-3.31a14,14,0,0,0-5.74-5.81l-2.63-2.73c-2.1-3.22-6-4.69-9.11-6.9-8.61-6-11.47-17.23-15.17-27.08-3.22-8.56-7.49-16.68-11.75-24.77l-8.22,2.07c-3.14,1.06-5.12,4.07-6.87,6.88l-3.48,5.59a22.18,22.18,0,0,0-2.19,4.14c-1.54,4.33-.26,9.12-.71,13.69l.13,8.08a25.88,25.88,0,0,1-.31,11.81,13.57,13.57,0,0,1-7.48,8.78l-2.61,6.49-.34,7c-.12,2.43-.35,5.13-2.14,6.78-2.3,2.12-5.94,1.48-8.89,2.48a8.17,8.17,0,0,0-3,1.79,2.8,2.8,0,0,0-1,1.79,2.63,2.63,0,0,0,1.62,2.29,10,10,0,0,0,4.94.62l7.26-.31,1,13.55a39.14,39.14,0,0,1,.51,5.63l1.11,26.75-.76,6.48-.57,18.84a13.54,13.54,0,0,0-9.19,5.57c-2.43-5.85-7.45-10.16-12.29-14.24l-5.36-4.51a49.51,49.51,0,0,0-6.19-4.71,55.33,55.33,0,0,0-5.07-2.64,241.15,241.15,0,0,1-24.1-13.4c-1.23-.78-2.59-1.82-2.56-3.27l.93-5.11-2.61,0c-4.71,1.36-8.36,5-11.81,8.45a14.08,14.08,0,0,0-3,3.81,20.26,20.26,0,0,1-1.15,2.61c-1,1.55-2.85,2.27-4.59,2.89l.43,2A37.85,37.85,0,0,0,892,1368.78l6,1.11c5.74-.38,11.69-.73,17.08,1.29,3.56,1.34,6.66,3.65,9.7,5.93q6.84,5.15,13.63,10.39c-5.1,1.4-10.17-1.77-14.92-4.08a49.74,49.74,0,0,0-18.35-4.9c-2.92-.21-5.93-.17-8.61-1.32l-8.15-4L881,1375c-3.67.93-7.54,2-10.14,4.72a20.51,20.51,0,0,1-2.44,2.57,9.45,9.45,0,0,1-2.91,1.26,60.37,60.37,0,0,1-15.69,2.41c-8.4.16-17.45-1.3-24.7,3-3.1,1.81-5.68,4.6-9.11,5.67-4.13,1.29-8.92-.13-12.76,1.86Zm696.32-471L1497.7,917c5.31,0,10.13-3.7,12.62-8.39s3-10.19,2.8-15.49a27.28,27.28,0,0,0,15.25-5.18l8.93-7.6c6.72-4.82,7.74-14.43,6.71-22.64-1-8-3.45-16-8.25-22.54s-12.15-11.4-20.21-12.06l-11.48,1.17c-3.75.7-7.36-1.48-11.1-2.27a15.53,15.53,0,0,0-12.42,2.8l-3.12-3c-10.32-27.1-20.7-54.41-26.8-82.7l-8.21-2.35c-47.46-34.41-109.05-46.1-167.28-39.31s-113.37,30.9-162.88,62.3c-9,5.73-18.32,12.15-23.08,21.75-3.41,6.87-4.15,14.74-4.31,22.41a167.94,167.94,0,0,0,14.36,71.38c-33.16,1-65.41,18.73-83.92,46.25-7.83,11.64-13.38,26.23-9.14,39.6,5.07,16,22.18,25,30.71,39.5,11.29,19.2,5.37,43.9-4.3,64s-23,39.06-26.3,61.09l2.89,10.06,4.52,2.64c4.72.38,9.69.72,13.94-1.35,2.26-1.09,4.35-2.87,6.86-2.89l5.64-1.57a57.65,57.65,0,0,1,56.28,12.54c8.23,7.74,14.65,18.29,25.32,22,4,1.41,8.5,1.73,12.13,4l2.52,3.08c1.63,1.35,1.82,3.76,3,5.53a11.38,11.38,0,0,0,3.39,3,62.77,62.77,0,0,0,7.57,4.59l2.85-1.22h5.06l2.23,2.53,2.56-5.9,29.78-37c16-19.81,32-39.65,46.2-60.75,30.72-45.55,52.8-96.31,72.7-147.51l38.5,17.5c12.41,5.64,25,11.35,38.58,13,16.17,1.94,32.6-2.16,47.39-9s28.16-16.3,41.45-25.72Z"></path>
    <path data-name="4a" data-official="" data-plain="Seed and inner Calyx" data-loc="" d="M647.92,2565.83c-6.27-5.16-11.81-13.73-8.16-21a17.21,17.21,0,0,1,6-6.17c5.1-3.49,11.06-5.94,17.24-6.09s12.57,2.24,16.48,7c4.44-7.63,10.41-15.3,19-17.37a11.82,11.82,0,0,1,7.55.38c4.32,1.92,6.32,7.2,5.87,11.9s-2.79,9-5.1,13.12c7.63,1.5,15.72,3.23,21.27,8.67s6.86,15.91.55,20.45c4,5,7.1,12.14,3.7,17.54-2.27,3.6-6.8,5.11-11,5.41s-8.53-.36-12.76.12c.67,10.87,13.11,17.27,16.58,27.59a18.39,18.39,0,0,1-5.18,19.24c-4.58,4-10.83,5.44-16.8,6.71-11.24,2.4-23,4.79-34.06,1.51s-20.64-14.29-18.16-25.51c2.55-11.55,16.12-18.17,18.6-29.75a4.89,4.89,0,0,0-.23-3.42c-1.37-2.38-4.89-1.54-7.61-1.17a13.92,13.92,0,0,1-14.08-20.48Z"></path>
    <path data-name="4b" data-official="" data-plain="The same with outer Calyx" data-loc="" d="M765.9,2602.76a8.3,8.3,0,0,0-4.61-9.74c-4.15-1.71-8.9.27-13.33-.37-6.61-1-11.31-8.65-9.14-15,1.38-4,5-7.82,3.65-11.84-.87-2.55-3.49-4-5.64-5.61-5.26-4-8.53-11.84-4.7-17.19,2.94-4.11,8.66-5,13.71-4.85,2.64.08,5.79.11,7.28-2.07s.36-5.09-1.13-7.22-3.39-4.23-3.51-6.83c-.19-4.49,4.84-7.19,9.15-8.48,3.76-1.12,7.8-2,11.58-1,8.28,2.31,11.31,12.22,17,18.62A9,9,0,0,0,790,2534a11,11,0,0,0,4.85.06l22-3.05c2.35-.33,4.9-.62,7,.55s3.08,3.39,3.6,5.63a18.09,18.09,0,0,1-7.76,18.91,7.08,7.08,0,0,0-2.6,2.14c-1,1.85.24,4.28,2.07,5.37s4,1.29,6.08,1.83a18,18,0,0,1,10.25,7.29c1.45,2.14,2.44,4.84,1.68,7.32a8.16,8.16,0,0,1-2.92,3.9c-7.65,6-18.91,2.83-28.32,5.35-2.1.56-4.41,1.75-4.78,3.9a5.58,5.58,0,0,0,.56,3.09c2.61,6.26,8.35,10.72,11.49,16.74,3.25,6.25,3.42,13.58,3.52,20.62,0,3,.06,6.08-1.29,8.74-1.58,3.13-4.78,5.08-7.92,6.66a80.53,80.53,0,0,1-28.59,8.2c-8,.75-16.42.21-23.57-3.51s-12.75-11.14-12.54-19.19c.29-11.34,10.94-19.25,20.5-25.34Z"></path>
    <path data-name="5" data-official="Scabiosa ochrolenca" data-plain="Yellow Scabious" data-loc="Germany" d="M903.47,2349.37c-.47,6.83-2.06,13.68-1,20.44a89.77,89.77,0,0,0,2.58,9.92l-1.16,5.17c.79,2.59-.61,5.47-2.77,7.1a15.16,15.16,0,0,1-7.62,2.52c-3.57.39-7.5.2-10.28-2.08-3.82-3.13-4-8.86-3.44-13.77s1.48-10.25-1-14.51c-1.89-3.21-5.37-5.11-7.9-7.85-6.06-6.55-5.8-16.49-6.87-25.34-1.94-15.95-9.25-30.75-12.43-46.5-2.13-10.54-2.38-21.36-2.61-32.12l4-3a35.15,35.15,0,0,1,28.2,14.57c7.49,10.58,8.43,24.25,10.34,37.07,1.08,7.3,2.56,14.54,4,21.77.59,2.86,1.33,6,3.67,7.74Zm-79.37-303c.18,4.72-3.41,8.61-5.73,12.73-3.7,6.59-4.27,14.43-4.75,22q-1.14,17.78-2.27,35.53l2.7,1,20.29-1.38,2.58-4.77-9.82-24c-3.14-7.68-6.34-15.76-5.43-24Zm-61.88-156.45c.08,14.41.37,28.86,2.43,43.12,1.71,11.82,4.62,23.43,7.53,35l7.2,28.65a143.12,143.12,0,0,0,4.7,16c1.72,4.52,3.91,8.91,4.78,13.67.91,4.94.36,10,.79,15,.6,7,3.08,13.62,5.55,20.17l2.71,4.63,3.72-1.9a349.66,349.66,0,0,0,5.61-57.29l0-4.71q.66-11.49,1.8-22.93l-2-7.13c-6.6-33.24-13.21-66.58-15.86-100.38l-1.39-4.84-12.36,1.74a26.41,26.41,0,0,0-2.82.51c-2,.51-3.92,1.49-5.89,1.07l-11.81,11.85ZM884,2252.57c2.7-2.1,4.92-5.73,3.49-8.84-.78-1.71-2.46-2.8-4-3.89a44.05,44.05,0,0,1-13.79-16.14,18.56,18.56,0,0,1-2.87,5.53,186,186,0,0,0-16-19.15,10,10,0,0,0-2.8-2.28c-2.28-1.08-5.08-.31-7.06,1.25a20.31,20.31,0,0,0-4.59,5.94c7.29,5.31,16.58,7.79,22.91,14.22,7.38,7.51,9.66,19.39,18.2,25.56ZM645.55,1163.91c-6.52-7.94-20.15-6-27.16,1.53s-8.89,18.4-9.49,28.65c-1.32,22.63,2.05,45.27,6.45,67.51a728.17,728.17,0,0,0,41.81,137.77c8.22,19.78,17.41,39.35,30.2,56.53s29.46,32,49.42,39.72c1.7.66,3.52,1.35,4.57,2.83s1.07,3.27,1.11,5l.54,23.47-1.7,5.41,5.3,6c1.76,4.18,3.62,8.51,7,11.5a64.4,64.4,0,0,0,6.3,4.26c3.66,2.52,6.66,5.87,9.62,9.19l2.89-3.57a57.32,57.32,0,0,0,2.94-20.62l1-5.68a430.25,430.25,0,0,1,16.33-52.88c.55-1.46,1.22-3,2.6-3.75l2.4-6.56c2-5.49,8-8.32,13.64-9.76a29.6,29.6,0,0,1,9.16-1.13c9,.54,16.33,7,22.66,13.4s13,13.31,21.75,15.22c5.21,1.14,10.64.35,15.92-.44l4.88-1.17c.06-5.64.2-11.27.59-16.89a189.61,189.61,0,0,1,11.48-53.11l-4.88-.95a19.12,19.12,0,0,1-8.67.48c-2.59-.46-5.07-1.45-7.68-1.71-7.91-.78-15.41,5.23-23.27,4.1l-4,3.06-12.86,1.23a32.17,32.17,0,0,1-6.43.18c-4.66-.48-8.85-2.94-12.88-5.34l-2.56-2.06a11.29,11.29,0,0,0-9.31-4.71c-2.82.07-5.77,1.19-8.36.07l-4.69-2a39.6,39.6,0,0,0-10.24.87c2-1.71,3.25-4.08,4.73-6.24s3.38-4.25,5.92-4.89l10.57-2c3.84-2,8.63-.57,12.76-1.86,3.43-1.07,6-3.86,9.11-5.67,7.25-4.26,16.3-2.8,24.7-3a60.37,60.37,0,0,0,15.69-2.41,9.45,9.45,0,0,0,2.91-1.26,20.51,20.51,0,0,0,2.44-2.57l-5.37-2.51c-5.81,1.13-11.64-1.7-16.57-5-.77-.5-1.59-1.14-1.66-2.06-.1-1.25,1.25-2.08,2.41-2.57a188.84,188.84,0,0,1,20.07-7.33l3.91-3.76-.43-2c1.74-.62,3.59-1.34,4.59-2.89a20.26,20.26,0,0,0,1.15-2.61,14.08,14.08,0,0,1,3-3.81c3.45-3.48,7.1-7.09,11.81-8.45l2.61,0a32.3,32.3,0,0,0-2.47-16.56c-3.17-7.25-9-13.17-11.88-20.52-2.31-5.79-2.73-12.14-3.12-18.36l-2.18-34.7.89-7.91-3.27-17.64c-.79-4.24-1.59-8.53-3.37-12.46-2.89-6.38-8.17-11.37-13.69-15.69l-3.46-3.6a66.88,66.88,0,0,1-8.53-5.58l-7.15.22-7.27,5.57a27.48,27.48,0,0,1-27.72-5.72c-3-2.89-5.37-6.44-8.21-9.52-2.63-2.86-5.93-5.4-9.78-5.85-2.64-.31-5.28.38-7.92.73a30.87,30.87,0,0,1-15.45-1.92l-4.37-6.21a768.71,768.71,0,0,0-67.14-264.12l-2.55-9.07a1101.44,1101.44,0,0,0-78.36-121.16l-6.3-2.4A38.61,38.61,0,0,1,572,753.36L578,764.85c1.8,3.4,3.63,6.94,3.85,10.78l5,11.89c19.07,27.26,30.13,59.17,41,90.62,12.9,37.43,25.82,74.94,35,113.44l-2,9.89a117.23,117.23,0,0,0-31.12,22.63c-4.64,4.72-9,10-11,16.33-1.36,4.33-1.54,8.93-1.55,13.46,0,7.87.43,15.83,2.72,23.36,1.56,5.14,4.44,10.46,9.49,12.31,6.62,2.43,15.5-1.61,20.31,3.55,2.3,2.45,2.6,6.12,2.71,9.48a279.16,279.16,0,0,1-2.65,49ZM419.76,529.61c10.28-23.9,6.94-51.25,2.46-76.87-1.79-10.22-3.92-20.84-10.33-29-5.73-7.28-14.24-11.74-22.56-15.8-19-9.28-39.68-17.82-60.67-15.19s-38.61,15.79-55.33,28.51C262.75,429.34,252,437.52,243.85,448c-9.46,12.11-15.11,26.72-19.86,41.33a442.75,442.75,0,0,0-18.56,84.06c-2.31,19.19-3.3,39.08,2.67,57.46,2.21,6.82,5.44,13.44,10.39,18.61,8.69,9.07,21.66,12.69,34.16,13.91,27,2.63,54.65-4.34,77.86-18.38s42-35,54.63-59c4.53-8.61,9.95-18.87,19.63-19.88,5.63-.59,11,2.31,15.85,5.17q20.76,12.16,40.62,25.77l3.76,4.69a8.67,8.67,0,0,1,8.12-1.59,2.57,2.57,0,0,1,1.4-3.09,5.53,5.53,0,0,1,.32-7.81,8.86,8.86,0,0,0,1.59-1.39,4.08,4.08,0,0,0,.47-2.84c-.62-5.18-4.12-9.52-7.71-13.29a120.62,120.62,0,0,0-54.68-32.82Z"></path>
    <path data-name="6" data-official="Scabiosa columbaria" data-plain="" data-loc="" d="M991.37,2256.47l5.55,2.12,10.44-1.63a7.5,7.5,0,0,0,3.47-1.16c1.83-1.43,1.89-4.11,2.16-6.42a22.15,22.15,0,0,1,11.27-16.6l4.75-4a10.4,10.4,0,0,1,4.09-11.15l-6.47-3.35a3.24,3.24,0,0,0-1.11-.41,3.59,3.59,0,0,0-1.73.44,15.49,15.49,0,0,1-8.77.93,23.06,23.06,0,0,0,7.46-3.78c-2-1.6-4.89-1.65-7.46-1.34s-5.2.9-7.74.35a37.91,37.91,0,0,0,8-2.94c-1.87-2.08-4.92-2.55-7.71-2.65s-5.73,0-8.17-1.36a55.21,55.21,0,0,1,8.33-.39c-5.55-3.32-10-8.16-14.37-12.92a3.36,3.36,0,0,1-.71-1,3.25,3.25,0,0,1,0-1.49l.69-5.78L991,2181l-1-1,1.11,37.93c.11,3.86.83,8.59,4.45,9.9a2.42,2.42,0,0,0-3.13,1.06,6.87,6.87,0,0,0-.69,3.57ZM504.25,1432.68q-29.13-88.86-65-175.31c-4-9.67-8.76-20.07-18.06-24.86a923.53,923.53,0,0,0-47.32,159.28l-2,9.66c-2.36-1.21-5.22-.46-7.76.33l-4.92,1.51a1,1,0,0,0-.43.21,1,1,0,0,0-.22.68l-.49,7.12a1.62,1.62,0,0,0,.13,1c.56.94,2.75.59,2.5,1.66l-4,.24-.74,12,2.5.8c-.2.92-1.65.48-2.49.92a2.35,2.35,0,0,0-.89,1.93l-1.73,15.28a1.9,1.9,0,0,0,.07,1c.64,1.4,3.41.05,4.08,1.43-1.18,1.36-4.06,0-4.89,1.64l.38,1.21a60.61,60.61,0,0,0-.72,6.31,1.08,1.08,0,0,0,.18.83c.24.25.65.2,1,.17a5.6,5.6,0,0,1,3.21.68,1.27,1.27,0,0,1,.61.58c.33.78-.8,1.41-1.63,1.27s-1.68-.62-2.47-.32c-1.06.4-1.2,1.81-1.17,2.94l.14,4.64a1.09,1.09,0,0,0,.18.69,1.22,1.22,0,0,0,1,.24,6.74,6.74,0,0,1,3.07.6c.87.39,1.73,1.47,1.09,2.18a1.73,1.73,0,0,1-1.26.4l-3.81.17a1.15,1.15,0,0,0-.87.28,1.18,1.18,0,0,0-.2.67,24.91,24.91,0,0,0,.25,5.85,26.13,26.13,0,0,1,6.58,1c-2.34.4-4.67.9-7,1.49a13.7,13.7,0,0,0,4.33.93,3.47,3.47,0,0,1-3.69,1.25l-.93,10.59,6-.91c.56-.09,1.35,0,1.4.55a1,1,0,0,1-.49.81,11.68,11.68,0,0,1-7.07,2.56v6.44a1.66,1.66,0,0,0,.28,1.14,2.18,2.18,0,0,0,1.16.46,3.78,3.78,0,0,1,2.74,4.17,4,4,0,0,0-3.62-1.84,1.08,1.08,0,0,0-.76.27,1.28,1.28,0,0,0-.22,1l.27,8,.34.76a4.92,4.92,0,0,1,4.08,5.76,5.75,5.75,0,0,0-3.66-2.07,1.09,1.09,0,0,0-.78.12,1.12,1.12,0,0,0-.34.89l-.63,7.47a1.76,1.76,0,0,0,.19,1.22c.32.45.95.49,1.49.59A5.11,5.11,0,0,1,355,1534l-5.23.61.06,7.68a1.68,1.68,0,0,0,1.64,1.93l2.57.79c.82.26,1.81.73,1.79,1.59,0,1.09-1.6,1.33-2.63,1s-2.22-1-3.13-.37l-.26,7.76a1.2,1.2,0,0,0,.17.79c.26.33.76.29,1.17.37a1.85,1.85,0,0,1,.69,3.14,4.92,4.92,0,0,0-1.11.72,2.08,2.08,0,0,0-.32,1.37V1568a2.41,2.41,0,0,0,.37,1.57c.67.81,2.08.48,2.86,1.2a1.75,1.75,0,0,1-.19,2.46,3.67,3.67,0,0,1-2.59.8,9.93,9.93,0,0,0-.44,3.66,3.43,3.43,0,0,0,2,2.87c.85.3,2.19.65,1.85,1.48-.39,1-1.9-.22-2.94,0l.81,11.35a1.46,1.46,0,0,1,2.42.85,1.66,1.66,0,0,1-2.26,1.5l.19,5.45a6.54,6.54,0,0,1,3.06,1.54,2.22,2.22,0,0,1,.11,3.09c-.64.55-1.61.53-2.25,1.06-.84.68-.82,1.94-.72,3l.92,10.63a12.84,12.84,0,0,1,4.79.22,4.36,4.36,0,0,1,3.19,3.28l2.51,6.55a58.9,58.9,0,0,0,9.44,19.36l4.21,2.41c5.59-.89,10.42-4.5,14.2-8.73s6.74-9.11,10.24-13.57c-.29,5.59-2.25,10.94-4.2,16.18-2.87,7.76-5.75,15.53-9.1,23.1a85.27,85.27,0,0,0-4.91,12.42c-1.14,4.31-1.44,9,.06,13.17l2,10.14c-.07,8.38,2.59,16.51,5.22,24.47,1.34,4.08,2.69,8.16,4.27,12.16A114,114,0,0,0,420.62,1780l2.79,1.41a18.25,18.25,0,0,0,8,3.65l5.68-1.92c3.35,1.68,5.78,4.76,7.64,8s3.27,6.75,5.24,9.93c2.11,3.4,4.88,6.47,6.17,10.27l3.57,6.44,21.5,10.65a23.92,23.92,0,0,0,4.85,2,33.86,33.86,0,0,0,4.93.59,76.11,76.11,0,0,1,9.57,1.7l37.3,8.26,5.76,1.4c7.48-.33,14.45,3.43,21,7.07L583,1859.67a16.35,16.35,0,0,0,10.79,2.62l20.25-.22,5.76,5.2a42.14,42.14,0,0,1,6.89,6c1.46,1.72,2.64,3.67,4,5.5a36.6,36.6,0,0,0,26.16,14.54l1.11,3.46A126.15,126.15,0,0,1,681.77,1907l8.15.66,5.48,5.17a228.71,228.71,0,0,1,70.24,58.4l9.39,8.13,4.35,17.33a143.12,143.12,0,0,0,4.7,16c1.72,4.52,3.91,8.91,4.78,13.67.91,4.94.36,10,.79,15l-6.42,8.22a58.43,58.43,0,0,0-19.56-13.34c-6.3-2.62-13-4.13-19.25-7-17.75-8.08-28.87-25.57-41.14-40.73-2-2.51-4.38-5.13-7.56-5.73-5-1-9.34,3.5-12.34,7.65s-5.56,8.13-8,12.39c-1.83,3.14-3.59,6.59-3.26,10.2.41,4.61,4.17,8.29,8.3,10.35s8.76,2.92,13.09,4.54,8.63,4.27,10.45,8.52a17.12,17.12,0,0,1,1,8.26c-1.39,16.34-14.19,31.08-30.18,34.74,17.7-1.12,34.85,5.68,51.1,12.79s32.81,14.78,50.53,15.53c4.89.21,10.09,0,14.29,2.46l6.21,5.35a4.59,4.59,0,0,1-.29,4.63,13.51,13.51,0,0,1-3.44,3.43l16.67-5.09a2.45,2.45,0,0,0,1.16-.61,2.37,2.37,0,0,0,.42-1.46l2.7,1,20.29-1.38,2.58-4.77,4.29-1.31c10-.74,20.31-1.17,29.8,2.09,8,2.74,15.58,8.09,24,7.1l11.33-.63c3.85,3.51,7.29,8.63,5.75,13.61l1.07,7.53a98.87,98.87,0,0,1,1,39.92,1.19,1.19,0,0,1-.42.86c-.38.23-.85,0-1.29,0-1.67-.16-2.15,2.23-2,3.9.88,8.26,1.76,16.57,3.94,24.58a28.33,28.33,0,0,1,1.37,6.9c0,2.36-.62,4.67-.69,7-.14,4,1.35,7.76,1.88,11.67.91,6.6-.88,13.37.18,20l-2.38,6.5-5.29-3.12q-9.3-4.29-18.32-9.15l-3.54-5.07c-.78-1.71-2.46-2.8-4-3.89a44.05,44.05,0,0,1-13.79-16.14,18.56,18.56,0,0,1-2.87,5.53,186,186,0,0,0-16-19.15,10,10,0,0,0-2.8-2.28c-2.28-1.08-5.08-.31-7.06,1.25a20.31,20.31,0,0,0-4.59,5.94c7.29,5.31,16.58,7.79,22.91,14.22,7.38,7.51,9.66,19.39,18.2,25.56l6.46-2.2,1.12,5.3a4.46,4.46,0,0,1-.78,5.48l-3.3.6a35.15,35.15,0,0,0-28.2-14.57l-4,3-6.62-2.55A134.9,134.9,0,0,1,823,2233.6l-6-7.25-3.15-12c-8.75-8.83-13.75-20.66-21.22-30.6-1-1.37-2.22-2.78-3.88-3.18a1.62,1.62,0,0,0-1.36.17c-.65.49-.48,1.5-.18,2.26a14.57,14.57,0,0,0,3.59,5.31l.63,4.71c2.81,5.37,1.15,11.85,0,17.78a103.2,103.2,0,0,0-1.68,28.87,25.65,25.65,0,0,0,2,8.89c1.62,3.44,4.49,6.1,7,8.93,2.89,3.23,5.47,6.89,6.6,11.08.77,2.85.84,5.83,1.55,8.69a20.11,20.11,0,0,0,4,8,18,18,0,0,0,13,6.63l10.34,8.3a127.8,127.8,0,0,1,24,32.77l5.75-2c1.07,8.85.81,18.79,6.87,25.34,2.53,2.74,6,4.64,7.9,7.85,2.51,4.26,1.59,9.6,1,14.51s-.38,10.64,3.44,13.77c2.78,2.28,6.71,2.47,10.28,2.08a15.16,15.16,0,0,0,7.62-2.52c2.16-1.63,3.56-4.51,2.77-7.1l1.16-5.17a65.59,65.59,0,0,1,2.25,14.93l.38,6.71v48.88c0,8.56,0,17.13-.31,25.69l-5.12,6.76a59.86,59.86,0,0,0-17.61,33.51c-1,6-1,12.23-3.15,17.93-2.61,7-8.65,12.86-16,14.28s-15.61-2.26-18.66-9.07c-3.35-7.49-.13-16.06,2.06-24a93,93,0,0,0,3-32.86l5.71-17.72a496.22,496.22,0,0,0-90.89-130.87c5.94,32.59,3.32,66.93-9.11,97.63s-34.88,57.55-63.76,73.77c-18.87,10.59-40.51,16.87-56.65,31.29-3.07,2.75-5.94,5.79-9.45,8-4.83,3-10.54,4.12-16.11,5.2-10.27,2-21.65,3.72-30.57-1.74-6.95-4.26-10.89-12.12-13.18-20-11.47-39.24,10.26-80.29,10.38-121.17a180.46,180.46,0,0,1-30,2.51L531.82,2411a519.3,519.3,0,0,1-98.42,9.25c-8.21,0-16.82-.13-24.08,3.7-10.8,5.68-16.24,18.86-27.3,24-12.88,6-28.51-1.56-37.47-12.57s-13.38-24.92-20-37.47l-39,58.23c-5.45,8.14-11.89,17-21.52,18.84-9.79,1.89-19.73-4.58-24.7-13.22s-5.93-19-6.08-28.95a212.55,212.55,0,0,1,6.09-53.76c.89-3.63,1.87-7.46.82-11-1.39-4.73-5.88-7.71-9.62-10.92-17.87-15.34-22.06-42.2-16.42-65.07s19.39-42.75,32.87-62.06l32.78-47a213.16,213.16,0,0,1-95-117.09l-4.88-14c-5.36-8.79-10.78-17.76-13.25-27.75s-1.58-21.34,4.77-29.43c10.47-13.34,30.58-13,47.24-9.87,51.38,9.76,98.44,34.54,145.37,57.63a11.44,11.44,0,0,0,11.22.77l26.67-8.64,13.57-10.26-6.85-91.08c-.29-3.82-.68-7.91-3.11-10.87-2-2.49-5.2-3.74-8.24-4.79-20.55-7.1-43-9.7-61.47-21.17-12.7-7.88-22.72-19.52-35.38-27.47-2.46-1.54-5.17-3-8.06-2.88-4.14.13-7.49,3.31-10.22,6.42-11.17,12.72-19.42,27.71-29.54,41.28s-22.86,26.17-39.05,31.1c-3.74,1.14-7.76,1.84-11.54.85-9.76-2.56-13.29-14.47-14.23-24.53a168.7,168.7,0,0,1,15.1-86.75c-23.46-3.82-47.08-7.68-69.42-15.81s-43.56-20.89-58.1-39.68c-10.71-13.83-17.38-30.32-23-46.9-12.33-36.66-19.91-76-12.77-114.06,1-5.28,2.62-11,7.16-13.92,3-1.9,6.76-2.16,10.29-1.79,12.66,1.35,23.45,10.08,31.14,20.23s13,21.87,19.85,32.6a134.52,134.52,0,0,0,47.13,44.66,77.24,77.24,0,0,1,45.16-39.1c3.2-1,6.72-2,8.65-4.78,1.52-2.17,1.69-5,1.82-7.63l2.15-46.94c.54-11.6,3.71-26.37,15.17-28.23,13.51-2.2,20.63,15.72,32.45,22.63l.17-25.32,6.43-11.22,6.83,9.44c5.87,5.43,11.84,10.94,18.95,14.6,3,1.57,6.26,2.79,9.16,4.61a31.41,31.41,0,0,1,8.91,8.81,6.33,6.33,0,0,0,2.33,2.4c1.24.57,2.68.22,4,.27,4.11.16,7.12,4,11,5.27,1.53.51,3.16.63,4.69,1.12a10.1,10.1,0,0,1,6.59,7.19l3-.06-.81-37.72a3.6,3.6,0,0,0-.6-2.32c-1.28-1.49-3.89-.11-5.62-1a9.27,9.27,0,0,1,5.4-3.17l.32-16.17c0-1.89,0-4-1.29-5.38a7.44,7.44,0,0,0-3.64-1.76,7.16,7.16,0,0,1,4-.81,27.53,27.53,0,0,0,.46-6.72,1.83,1.83,0,0,0-.38-1.2,1.87,1.87,0,0,0-1.13-.4l-4.1-.47c.12-1.88,3.61-1.06,4.56-2.68a2.89,2.89,0,0,0,.25-1.57l-.29-9.37a21.72,21.72,0,0,0-5.67-.84c1.24-1.63,4.29-.77,5.47-2.45a3.9,3.9,0,0,0,.5-2.19l.51-18.9a2.2,2.2,0,0,0-.22-1.3c-.84-1.3-3.89-.63-3.66-2.16a14.42,14.42,0,0,0,4.84-1.12l1-1.19.38-15.23a10.52,10.52,0,0,0-.68-5c-.74-1.51-2.52-2.66-4.12-2.11,2.82,0,4.61-3.14,4.81-6a5.18,5.18,0,0,0-.6-3.18,2.42,2.42,0,0,0-2.83-1.08,7.76,7.76,0,0,1,4-2.18l.76-14.27a9.45,9.45,0,0,0-.64-5c-.8-1.49-2.8-2.47-4.23-1.58,1.93-.84,4-1.8,5-3.63a9.68,9.68,0,0,0,1-3.36q1.46-8.7,2.4-17.48a5.73,5.73,0,0,1-4.41-1.88c1.38.85,3.3,0,4.21-1.31a9.6,9.6,0,0,0,1.18-4.66l.7-8.79a11.2,11.2,0,0,0-.24-4.36,3.79,3.79,0,0,0-3.1-2.74l-6.85-4,5.15-11.09a526.21,526.21,0,0,1,50-180.29c.77-1.58,1.56-3.27,1.33-5a9.19,9.19,0,0,0-1.4-3.27c-22.84-38.5-45.95-77.37-76.84-109.77-1.25-1.32-2.71-2.71-4.52-2.77-1.64-.06-3.1,1-4.39,2-12.35,9.72-23.83,21.09-38.31,27.23-15.25,6.46-32.36,6.49-48.93,6.21q-43.32-.72-86.57-3.25l-9.87-5.22c-24.24-18.78-27.14-53.78-26.85-84.44.36-36.83,3-75.75,23.67-106.25,12.46-18.39,30.49-32.19,48.53-45.16,26.83-19.28,54.65-37.64,85.27-50s64.44-18.58,97-12.8c-20.92-35.69-19.33-81.87-1.62-119.26s49.85-66.55,85.87-86.9l12-5.26q6.18,4,12.28,8.22l3.76,4.69a8.67,8.67,0,0,1,8.12-1.59,2.57,2.57,0,0,1,1.4-3.09,5.53,5.53,0,0,1,.32-7.81,8.86,8.86,0,0,0,1.59-1.39,4.08,4.08,0,0,0,.47-2.84c-.62-5.18-4.12-9.52-7.71-13.29l5.52-6.25c-2.31-4.58,2.09-9.65,6.35-12.52,22.61-15.27,51.43-17.21,78.71-17.48,20.25-.2,41,.32,60,7.24,6.66,2.42,13.16,5.64,20.2,6.5,10.6,1.3,21.07-2.87,31.73-3.47a47.69,47.69,0,0,1,46,67.49c-1.74,3.8-4,7.45-4.68,11.58-1.69,10.5,7.13,19.34,12,28.8a41.12,41.12,0,0,1-29.5,59.3c-3.24.56-6.68.78-9.48,2.51-3,1.88-4.8,5.2-6.43,8.38C673.87,735,668,746.46,658.86,755.06s-22.51,13.88-34.5,10.14l-15,1.48-6.3-2.4A38.61,38.61,0,0,1,572,753.36L578,764.85c1.8,3.4,3.63,6.94,3.85,10.78l5,11.89-4.28,4.37A22.41,22.41,0,0,1,568,779.44c2.36,25,3.07,50.32-.73,75.15-1.84,12-4.73,23.9-7.62,35.73l-11,45.2c-4,16.47-8,33-13.27,49.09-4.76,14.72-10.51,29.11-16.48,43.38a1484,1484,0,0,1-65.46,136.6l-4.45,14c21.07,39.55,41.87,79.48,56.4,121.88,7.86,22.94,13.83,46.47,19.8,70l34.12,134.33-1.3,5.65-4.31,2.19c-6.71-.67-13.83-1.51-19.09-5.73-5-4-7.35-10.29-9.52-16.27L519,1473.79l-3.84-10.55c-1.39-3.83-2.81-7.71-5.2-11Z"></path>
    <path data-name="6a" data-official="" data-plain="Unnamed*" data-loc="" d="M465.86,2601.28c.32-8.82-8.54-15.17-17-17.84-3.36-1.07-7.16-2.07-9-5.07a10.83,10.83,0,0,1-1.27-6,28.23,28.23,0,0,1,3.23-12.53c1.76-3.36,4.25-6.48,4.85-10.22,1.18-7.34-5.15-13.63-11.39-17.67s-13.49-7.87-16-14.87,1-15.22,6.62-20.24,12.94-7.62,20.06-10.1c-2.41-5.19-2-11.42.37-16.66s6.35-9.55,10.87-13.07c8-6.24,18-10.21,28.2-10.13s20.45,4.45,26.81,12.4,8.28,19.48,4,28.71c9.13,2.48,17.88,7.58,22.94,15.57s5.71,19.1.06,26.68c-4.12,5.54-10.8,8.51-17.32,10.76-2.19.76-4.64,1.67-5.6,3.78s.05,4.69.8,7a29.54,29.54,0,0,1,.09,18.08c-3.65,11.43-14.34,21.14-12.84,33.05,2,16.2,25.23,23.63,26.37,39.92.65,9.38-7,17.71-15.72,21.17s-18.44,3.2-27.85,3.22c-6.1,0-12.36.15-18.13-1.84s-11.07-6.64-11.93-12.68c-.51-3.56.54-7.14,1.57-10.58l9.22-30.59Z"></path>
    <path data-name="6b" data-official="" data-plain="Unnamed*" data-loc="" d="M347.47,2587.21c.21-9.53-7.91-18.48-17.41-19.2-4.65-.34-9.67,1-13.76-1.26-4.32-2.34-5.92-7.9-5.47-12.79,1-11.38,10.23-20.06,18.82-27.59,3.5-3.08,7.15-6.23,11.59-7.66,10.44-3.34,21.28,3.74,32.24,4,5.73.15,11.35-1.57,17.07-1.85,11.89-.59,23.3,5.12,32.59,12.58,5.83,4.69,11.5,11.31,10.4,18.72-.88,5.9-5.86,10.33-11.06,13.24s-11,4.91-15.59,8.71c-5.05,4.17-8.25,10.2-10.47,16.37-1.09,3-2,6.27-1.29,9.4,1.46,6.59,8.92,9.69,13.32,14.82,6,7,5.69,18.11.72,25.93s-13.69,12.63-22.7,14.79-18.39,2-27.65,1.7c-4.65-.14-9.73-.45-13.2-3.56-2.72-2.44-3.9-6.2-4.22-9.85a27.29,27.29,0,0,1,4.4-17.32c2.76-4.18,6.77-7.77,7.94-12.64,1.11-4.66-.63-9.48-2.35-14Z"></path>
</svg>
