
<svg xmlns="http://www.w3.org/2000/svg" viewBox="0 0 3237 2148" id="illustration" preserveAspectRatio="xMidYMid meet">
  <title>Nymphaeceæ</title>
    <path data-name="bg" d="M789.71,2014.22l-.88-.24h0Zm0,0,3.35.91Zm9,2.49.24.07Zm-4.22-1.2-1.39-.38Zm0,0,4.22,1.2Zm832.7-655.67c-.06.27-.12.54-.19.81C1627,1360.38,1627.09,1360.11,1627.15,1359.84Zm-522.69-86.22c-1-.87-1.14-2.42-1.18-3.78-.54-20.09-6.83-39.55-13.53-58.5a1231,1231,0,0,0-49-118.52l-1.11-1.06c-.9,39.93-10.62,79.06-20.38,117.79-2.12,8.39-4.24,16.78-7,25-11.39,34.43-32.77,64.52-53.84,94l1.2-.79c34.26-35.41,85.17-50.57,134.43-52.06l12.81-1.47A3.45,3.45,0,0,1,1104.46,1273.62ZM770.79,1997.15c6,1.13,12,2.51,17.9,4l-1.65-.42-1.49-4.07c-.77-22.72-9.14-44.87-8.08-67.57l-1.21-7.89c0,5.25-1.63,10.35-3.22,15.36l-18.18,57.16,1,1.78A79.86,79.86,0,0,1,770.79,1997.15Zm26.81,6.21c-3-.75-5.94-1.5-8.91-2.23C791.66,2001.86,794.63,2002.61,797.6,2003.36ZM625.5,1773.5c12-3,16.18-5.67,20.09-4.34s4.93,11.26,10.13,14.48,11.18,4.86,17,6.8a154.37,154.37,0,0,1,57.58,35,26,26,0,0,1,5,6l-7.41-13.26c-4.29-11.51-6.39-39.67-6.39-39.67-4-11-32-34-57-39-60,22-165-19-165-19l-7.49-2.63a8.29,8.29,0,0,1,3,1.75,8.67,8.67,0,0,1,1.7,3.47,217.77,217.77,0,0,1,6.41,26.78l10.77-1.47C544.42,1752.31,596.24,1764,625.5,1773.5Zm191.28,249,1,.37Zm0,0-3.89-1.31ZM1628,1356c0-.07,0-.14,0-.21S1628,1355.92,1628,1356ZM798.91,2016.78l4.33,1.29Zm22.91,7.46-1.21-.44Zm-1.21-.44c-.92-.33-1.85-.66-2.79-1C818.76,2023.14,819.69,2023.47,820.61,2023.8Zm-8.44-2.9.72.24Zm-4.64-1.5-3-.94Zm1.32.42,3.32,1.08Zm-4.36-1.36-1.25-.39Zm4.36,1.36-1.32-.42Zm821.4-682.95c0,.3,0,.59,0,.89C1630.22,1337.46,1630.24,1337.17,1630.25,1336.87Zm384.82,231.4c1.82-.64,3.78-.84,5.53-1.66s4.3-6.54,4.05-8.45c-7.18,2.88-16.28,3.85-23.9,5.18-5.69,1-16.7,8.56-16.7,8.56s-8.71,23.23-10.74,32.61c-2.66,12.27-3.43,25-7.94,36.76,0,0,38.18-37.31,49-62.68-2.55.53-4.88-2.36-4.48-4.95S2012.61,1569.13,2015.07,1568.27Zm625.1,169.29-26.21.26c-9.42.1-18.88.19-28.2-1.16l-1.61,17.32a117.87,117.87,0,0,0,22.21-4.71c4.62-1.46,9.15-3.21,13.67-5C2626.74,1741.73,2633.45,1740.14,2640.17,1737.56ZM1630.46,1328.45c0-.28,0-.55,0-.83C1630.47,1327.9,1630.47,1328.17,1630.46,1328.45Zm273,363.24c.84-10.88,1.75-21.79,4-32.48,4.08-19.57,12.59-38.64,11.52-58.61q-24,22.08-46.32,45.92c-2,2.13-4,4.35-5,7.11s-.76,6-.94,9.07c-.53,9.32-5.1,17.87-7.49,26.88-4.17,15.71-1.64,32.32.92,48.37l1.34-.45a271.86,271.86,0,0,0,34.56-29.26,26.1,26.1,0,0,0,5.6-7.19C1902.94,1698.14,1903.2,1694.88,1903.45,1691.69Zm-34,83.8a3,3,0,0,0-.78,4.57l3.13,5.72a6.09,6.09,0,0,0,2.32,2.73,15.67,15.67,0,0,0,2.66.66c3.8,1.09,4.82,5.95,4.89,9.91a11.9,11.9,0,0,0,.39,3.52,12.27,12.27,0,0,0,2.33,3.61,64.76,64.76,0,0,1,6.43,9.48v0q1.67-29.88,6.06-59.51A119.3,119.3,0,0,0,1869.43,1775.49ZM2046,1483.07q-.48-32.11-3.75-64.09l-7-.44a2.74,2.74,0,0,0-1.88.34,2.65,2.65,0,0,0-.75,1.26q-8.28,22.3-16.55,44.63c-5.53,14.92-11.07,29.85-15.59,45.11-2.87,9.68-5.52,19.85-12.11,27.51a81.91,81.91,0,0,1,45.55-7.36l1-2.33a159.9,159.9,0,0,1,7.81-30.06c-3.58-1.53-6.16-5.51-5.45-9.34S2042.35,1481.6,2046,1483.07ZM2532.91,1805a30.3,30.3,0,0,1-6.77-4.09l-.31,1.86.32,31.25c.07,6,.13,11.9-.33,17.82-2.28,29.88-17.33,57.08-32,83.19l-1.05,5a171.57,171.57,0,0,1,22.32,68.84,10,10,0,0,0,9.43-2.28l1.95-3.45q-.66-97.75,7.71-195.28Zm46.42,197.84c4.18-.47,5.64-5.69,6.2-9.86,4.89-36.18,16.23-71.14,27.51-105.87l-1.81-1.51c-8.57-1.86-15.28-8.55-20.28-15.75s-8.84-15.22-14.55-21.87l-1.06-.22a623.88,623.88,0,0,0,.46,153.82ZM2523,1651.6c8.59-2.24,17.73-3.18,25.42-7.63l-.82-.49q-1.61-46.21-5.59-92.3l-.5-1.67c-4.85-.53-9.78-1.08-14.29-3s-8.61-5.3-10.13-9.94c-12.28.06-24.07-4.43-35.52-8.86l-23.42-9c-7.49-2.9-14.67-6.54-22.24-9.2-31.37-11-97.37-63-109.14-74.54l-2.52-3.34a8.91,8.91,0,0,1,.07,2.73c-2.93,36.37-8.68,73-23.18,106.49-8.37,19.34-19.62,37.54-25.55,57.77l-1.94,1.8,3,.18a104.84,104.84,0,0,0,62.48-33.64c1.63-1.82,3.63-3.89,6.06-3.58a6.53,6.53,0,0,1,3.2,1.7c5.3,4.46,8.64,10.8,11.34,17.17,16.47,38.79,13.66,82.72,10,124.7,8.7-13.31,21.11-23.69,33.33-33.86,7.71-6.42,15.44-12.86,23.82-18.37a134.59,134.59,0,0,1,68.53-21.94,11.59,11.59,0,0,1,4.7.5c3.22,1.28,4.72,5.11,4.73,8.57,0,9.12-7.36,16.5-9.85,25.26s4.54,72.39,25.54,101.39l.68,2.68a86.83,86.83,0,0,1,17.57-7.45l1.68-1.32q1.77-20,3.53-40.05a3.32,3.32,0,0,0-.34-2.27,3.91,3.91,0,0,0-2.52-1.08c-5.85-1.18-9.86-6.5-12.78-11.71-8-14.36-12.79-31.79-26.45-41C2505.39,1658.18,2514.36,1653.84,2523,1651.6Zm-436.09-181.38c-.63,2.61-2.63,5.32-2.75,8a144.38,144.38,0,0,1-5.12,33.06q-2.1,7.42-4.51,14.74l.57,1.82c9.33-1.35,18.73-2.71,28.14-2.18s19,3.09,26.41,8.84c1.76,1.35,3.47,2.91,5.61,3.47,3.19.83,7.22-.52,9.44,1.92,1.68,1.84,1.16,4.69,1.37,7.17a11.16,11.16,0,0,0,20.34,5.36c2.45-3.6,2.59-8.31,1.8-12.59s-2.41-8.36-3.23-12.63c-1.66-8.8.18-17.83,2-26.59,1.08-5.07,2.18-10.22,4.65-14.78,2.6-4.79,6.57-8.68,10.68-12.24a139,139,0,0,1,31.19-20.4l1.09-1.17c4.09-4.55,5.61-10.82,8.93-16a52.11,52.11,0,0,1,6.75-7.94l16.18-16.65-.08-1.19a258.39,258.39,0,0,1-53.57,7.54,94.15,94.15,0,0,1-19.21-.89c-10-1.74-19.39-6.13-29.2-8.86a91.52,91.52,0,0,0-47.44-.4l-3.78,2.19a156,156,0,0,0-4.29,45.46,33.75,33.75,0,0,1-.23,8.93C2088.2,1466.29,2087.35,1468.2,2086.87,1470.22Zm-456.46-137.5a2,2,0,0,0,0-.25A2,2,0,0,1,1630.41,1332.72Zm-1.69-32.66c0-.29-.06-.57-.1-.86C1628.66,1299.49,1628.69,1299.77,1628.72,1300.06Zm1.67,22.66c0,.27,0,.54,0,.81C1630.41,1323.26,1630.4,1323,1630.39,1322.72Zm-1.23-18.59c0,.24,0,.48.07.73C1629.2,1304.61,1629.18,1304.37,1629.16,1304.13Zm1.09,14.69c0-.14,0-.27,0-.41C1630.24,1318.55,1630.24,1318.68,1630.25,1318.82Zm-.31-5.47.06.89Zm-.31-4.11c0-.2,0-.39-.05-.58C1629.59,1308.85,1629.61,1309,1629.63,1309.24Zm.24,33.23.06-.64Zm-808,681.77,2.76,1Zm806.91-672.51c0-.29.1-.57.14-.86C1628.83,1351.16,1628.78,1351.44,1628.73,1351.73Zm.69-4.87c0-.21,0-.43.07-.65C1629.46,1346.43,1629.44,1346.65,1629.42,1346.86ZM835.79,2029.69l.91.38Zm223,30.39c.08-.44.15-.87.22-1.31C1059,2059.21,1058.91,2059.64,1058.83,2060.08Zm.63-3.45c-.14.71-.28,1.42-.41,2.14C1059.18,2058.05,1059.32,2057.34,1059.46,2056.63Zm0,0c.07-.37.14-.74.22-1.11C1059.6,2055.89,1059.53,2056.26,1059.46,2056.63Zm1.82-7.51c-.31,1.06-.6,2.12-.87,3.19C1060.68,2051.24,1061,2050.18,1061.28,2049.12Zm-1.6,6.4c.22-1.07.47-2.14.73-3.21C1060.15,2053.38,1059.9,2054.45,1059.68,2055.52Zm1.6-6.4.18-.62Zm-3,14.32-.27,1.9Zm-.45,3.34.18-1.44Zm1-6.7c-.11.65-.21,1.31-.31,2C1058.62,2061.39,1058.72,2060.73,1058.83,2060.08Zm-1.19,8.61c.08-.64.15-1.28.23-1.91C1057.79,2067.41,1057.72,2068.05,1057.64,2068.69Zm.68-5.25c.06-.47.13-.93.2-1.4C1058.45,2062.51,1058.38,2063,1058.32,2063.44Zm6.61-27.62-.06,2.55-.09.24c.62-1.69,1.25-3.39,1.86-5.08ZM2074.78,1757l-1.36,1.61,0,.15ZM1125,1915.27c4.11-10.72,9.82-21,11.32-32.44,1.27-9.62-.53-19.65,2.25-28.94a126.4,126.4,0,0,0-14.83,22.56c-5.83,11.37-10.93,24.69-22.57,30l-4.68.2c-1.86,30.57-16.31,59-21.33,89.17-1.24,7.47-1.9,15-3.65,22.41a138.48,138.48,0,0,1-4.87,15.33c19.23-25.67,37.46-52.64,47.5-83.06C1118,1938.81,1120.6,1926.74,1125,1915.27Zm501-550.76-.21.73ZM2993.29,1010c-25,50.28-63.33,93.66-114.26,115.91l9,2.8c24.49,17.51,50.34,36.76,60.47,65.11,9.84,27.55,2.69,58.26-8.15,85.42l-2.44,4.84c-8.91,21.63-17.08,49.19-30.16,68.58-14.87,22-29.79,44.16-47.47,64s-40.32,37.5-64.36,48.85c-8.09,3.81-16.5,6.89-24.9,10-16.77,6.14-33.69,12.31-51.38,14.81l-.86,1.07a115.06,115.06,0,0,1-84.74,35.08,31.73,31.73,0,0,1-26.33,16.58c-1.79.07-3.8.06-5.06,1.33a6.52,6.52,0,0,0-1.39,3.94q-4.87,41.48-6.53,83.23l-.11,1.52c28-1.46,53.62-18.15,81.67-19.39,12.26-.55,24.43,1.9,36.45,4.33l53.45,10.82c12.84,2.6,25.77,5.22,37.93,10.1,21.51,8.63,39.84,24,61.5,32.27,9.5,3.62,19.6,5.87,28.37,11,12.4,7.28,21.93,20.19,36,23.06l.19,1.27a52.12,52.12,0,0,0-14.5-34c-6.88-7.09-15.68-12.11-22.44-19.3-13.5-14.36-17.1-35.33-17.78-55-.72-20.76,1.11-41.51,2.94-62.21s3.66-41.43,8.21-61.68c3.87-17.21,9.68-34,13-51.27,1.27-6.55,2.2-13.24,4.76-19.4s7.05-11.87,13.32-14.17c6.56-2.41,14.09-.66,20,3s10.62,9.06,15.09,14.44c15.89,19.17,40.47,66.13,40.47,66.13,14.89,35.51,28.57,72.3,30.69,110.74a94.92,94.92,0,0,1-1,22.41,82.21,82.21,0,0,1-6,18.49,116.29,116.29,0,0,1-20,30.6c-12.16,13.38-28,24.86-33.07,42.23-2.52,8.68-2,17.92-1.42,26.94l-.25,1.21a147.42,147.42,0,0,1,29.17,16c10.13,7.16,19.63,16,24.45,27.42s4,25.9-4.61,34.85c-5.72,6-13.88,8.72-21.45,12-14.07,6.08-27,14.51-39.81,22.88l-1.43.7-3.45,26.8c-1.83,14.23-3.68,28.52-7.63,42.31-1.44,5-3.16,10-4.62,15-5.61,19.28-7.54,39.82-16.48,57.8l-4.23,1.54a20.93,20.93,0,0,0-22.56-8.57l-1.71-1.54a215.74,215.74,0,0,0,16.3-41.88c1.73-6.19,3.22-12.45,4.71-18.71q2.36-9.9,4.72-19.8c2.84-11.94,5.69-23.93,6.82-36.15l-1.11-.36c-16.79,11.5-33.78,23.11-52.8,30.35-33.25,12.66-70,11-105.24,15.75l.41,1.61c1.47,9.34,6.07,17.84,10.59,26.14l10.75,19.73a65.13,65.13,0,0,0,16.13,21l14.88,14.24-2.26,1.44a57.26,57.26,0,0,0-12.11-3,21,21,0,0,0-12.15,2l-2.4-.85c-19.76-22.48-38.77-47.68-43.1-77.3l-2.69-.41a201,201,0,0,1-83.39,1.16c-8.18-1.62-16.79-4.06-22.3-10.34l-1.95-.31c-7.24,16.82-14.51,33.7-19.45,51.32-6,21.25-8.44,43.28-10.91,65.2l-6.31,55.92-2.43,2.84c-7.62,1.84-16.14,4.34-19.79,11.28-1.7,3.25-2.06,7-3.4,10.44a18.9,18.9,0,0,1-35.58-1.21c-1.63-5.12-1.45-11.51-5.84-14.61-2.65-1.88-6.16-1.84-9.41-1.73l-16.75.58-3.67-7q-2.43-25.59-5.51-51.12c-2.45-20.39-5.5-41.52-16.82-58.65l-.42,1c-3.82,9-10.94,16.25-19,21.69s-17.19,9.21-26.28,12.75q-21.08,8.21-42.66,15a166.74,166.74,0,0,1-24.47,6.2c-17.17,2.67-34.89.64-51.93,4.07-5.75,1.16-11.37,2.93-17.16,3.85-6.74,1.07-13.6,1-20.41.89l-19.69-.26-2.37,1.34c-4.86,5.3-12.53,6.92-19.71,7.41-27.41,1.85-54.37-8.68-81.83-8.12-15.67.31-31.42,4.24-46.86,1.56l-.62-1c1.93-13.31-5.51-25.91-11.65-37.87-28-54.58-32.8-118.32-28.28-179.5,1.22-16.49,3.12-33.15,9-48.61l1.89-2.26a191.14,191.14,0,0,1,8.19-73.68c3.47-11.18,13.63-20.93,17.73-31.9,1.94-5.17,2.43-10.79,4.45-15.93,8.85-22.56,42.59-27.66,50.24-50.66l-.23-1.62c-2.62-.31-5-1.64-7.28-2.94l-40.73-23.06a40.49,40.49,0,0,0-8.4-3.95,36.32,36.32,0,0,0-9.13-1.15,161.4,161.4,0,0,0-23.16,1l-1.51.11c-24.37,57.05-63.28,107.68-113,145l-2.21-.46-8.79,88.61c-.37,3.7-.71,7.57.67,11,1.28,3.17,4,6.56,2.34,9.57a23.87,23.87,0,0,1-1.9,2.38c-1.32,1.81-1.48,4.2-1.58,6.44q-1.41,29.66-2.81,59.31l-1.83,3.7,31.69,38.52,8.34,10.14,16.79,20.41,20.08,24.41c1.34,1.62,2.8,3.34,4.82,3.94s4,0,6,.29c7.45,1,8.86,11.07,8.3,18.57,6.64,4.93,11.74,11.61,16.74,18.19l50,65.82-6.17,6.74c-9.83,5.23-19.78,10.52-30.59,13.16s-22.75,2.43-32.48-3c-3.46-1.92-6.91-5.21-6.4-9.14.22-1.69,1.17-3.23,1.37-4.94a10.54,10.54,0,0,0-1.14-5.16c-11.66-27.82-38.55-46.78-51.45-74-2.29-4.85-4.57-10.39-9.5-12.51-3.68-1.58-8.53-1.07-11-4.19-1.19-1.47-1.53-3.42-2-5.25a32.22,32.22,0,0,0-14.29-19.32q3.13,61.26,1.2,122.64c-.09,3-.23,6.11-1.63,8.77-2.45,4.65-8,6.6-13,8.14-8,2.44-16.23,4.91-24.48,3.79s-16.49-6.93-17.61-15.18l-4.76-7.85q3.06-30.36,6.11-60.73c.16-1.59.29-3.31-.53-4.69-1-1.67-3.12-2.31-4.48-3.71-2.33-2.4-1.87-6.39-.41-9.4s3.75-5.62,4.82-8.79a25.2,25.2,0,0,0,.93-7.46q.48-19.65,1-39.31a26,26,0,0,0-.73-8.41c-1.52-4.76-5.73-10-2.76-14,1.2-1.63,3.32-2.41,4.45-4.09,1-1.52,1-3.48,1-5.32l-.17-20.36-1.57-2.06a23.2,23.2,0,0,0-15.09-13.79,10.19,10.19,0,0,1-3.51-1.36c-2.8-2.1-2-6.42-2.81-9.82a18.61,18.61,0,0,0-2.31-4.9q-14.21-23.93-26.4-49l-.73,1.24c-11.3,9.8-23.26,20.66-26.34,35.3-.44,2.09-.7,4.27-1.75,6.12-2.16,3.8-6.87,5.13-10.5,7.57-4.47,3-7.38,7.78-10.14,12.41q-5.28,8.85-10.55,17.69c-1.92,3.23-3.89,6.6-4.19,10.34-.14,1.77.09,3.63-.63,5.24-1,2.25-3.48,3.34-5.55,4.66-9.22,5.9-11.75,18-13.65,28.77s-4.94,22.9-14.55,28.15c5,1,5.13,8.06,4.21,13.09-7.29,39.56-.4,80.2,6.49,119.83-16.06,7.91-37.45,2.6-48-11.9l-5.06-7.42c-7.37-18.75-1.67-80.39-.92-91.86a200.32,200.32,0,0,1,5.74-36.26,306.84,306.84,0,0,1,13-38.29c4.52-11.27,9.45-22.58,17.14-32a12.54,12.54,0,0,0,2.89-4.7c1.26-5.16-4.8-10.09-3.4-15.22,1.33-4.85,10-4.45,10.89.5,13.32-10.53,21.6-26,31.65-39.66,13.1-17.84,29.47-33,45.73-48l-.65-.17L1790.84,1740a115.42,115.42,0,0,1-6.5-14.45c-4.71-13.64-4.42-29.14-12.1-41.36-2-3.18-4.54-6.12-5.64-9.72-.89-2.93-.76-6-1.15-9.09-1.21-9.36-7.3-17.27-13.17-24.66q-17.67-22.27-35.33-44.54c-6.93-8.73-13.87-17.48-20-26.81-13.94-21.29-22.38-45.51-26.52-70.62-2.42-14.63-3-29.81.77-44.15s11.38-27.8,24.18-35.3l-.81-1.51c-3.46-1.33-10.91-3.66-14.37-5-17.91-6.88-36.07-15.76-46.13-32.08l-9.57-11.58.09-.3a87.81,87.81,0,0,1-7.18,16.16l-1.21,1.61c7.72,15.8,15.53,31.87,18.48,49.2,4.62,27-2.91,54.45-9.2,81.14s-10.29,48.25-1,74l1.6,13.34c2.89,34.14,4.17,68.66-2.11,102.35-2.72,14.6-6.29,29-9.86,43.45q-7.12,28.83-14.27,57.66c-3.7,15-7.41,29.94-12.26,44.56-12.84,38.74-35.42,76.45-71.27,96-5.1,2.78-10.61,5.31-14.18,9.9-3.18,4.09-4.41,9.33-6.61,14-9.2,19.6-33.21,26.82-54.71,29.38-5.83.7-11.76,1.22-17.29,3.22-6.24,2.25-11.66,6.27-17.11,10a290.48,290.48,0,0,1-58,31.09q2.14,8.9,4.28,17.78l3.09,10.49c2.15,5.41-.81,11.45-4.22,16.16-6.82,9.41-18.66,17.76-29.37,13.27-5.82-2.45-9.68-8.25-11.36-14.34s-1.48-12.5-1.28-18.81q.39-11.72.77-23.44a5.53,5.53,0,0,0-.58-3.3c-.83-1.25-2.48-1.58-4-1.94-8.07-1.94-14.87-7.27-21.1-12.76-52.19-46-83-113.14-93.69-181.92q-3.15,35.7-9.35,71c-1.44,8.2-3,16.38-5.12,24.42-2.17,8.26-4.91,16.36-7.65,24.44-12.37,36.54-25.14,73.82-48.75,104.32l-2,8-8.7,14.12c-3.84,6.25-8.33,13-15.4,14.93-6.91,1.9-14.09-1.41-20.33-4.92-4.08-2.3-8.15-4.78-11.34-8.21s-5.45-8-5.22-12.66l-.49-5.71c0-.21,0-.41.07-.62-1.11,10.28-2.34,20.5-6.27,30-1.59,3.84-3.75,7.67-7.28,9.86-3,1.87-6.66,2.35-10.2,2.35-13.69,0-26.45-6.45-38.61-12.74l-1.53-.71a830.6,830.6,0,0,1,19.79-118,15.13,15.13,0,0,1,1.49-4.25l-10.87,10.47q-7.89,4.15-16.07,7.71a50.29,50.29,0,0,1-10,3.45c-6,1.2-12.28.38-18.39-.45l-4.22.45a656.58,656.58,0,0,1,20.21,77.84c1.13,5.8,2.1,12.19-.84,17.32s-8.84,7.48-14.58,8.21c-11.75,1.49-25.33-4.63-28.18-16.13-1.68-6.78.57-13.85,2.8-20.48l.45-6.21L912,1987.2l-3.48,0a79.22,79.22,0,0,0-34.76-18.4,89.53,89.53,0,0,1-10.28-2.64c-5.57-2.05-10.34-5.76-15-9.42l-13.61-10.66q6.43,37,15.29,73.59l-.75,2.77-.34-.17c15.74,8.2,31.19,17.09,44,29.32a96.8,96.8,0,0,0,9.12,8.32c3.14,2.31,6.67,4.06,9.7,6.51,8.05,6.52,11.62,17.76,9.81,28s-8.58,19.19-17.35,24.71c-3,1.91-6.45,3.48-10,3.47-5,0-9.57-3.1-12.44-7.15s-4.26-9-5.18-13.86l1.23-8.18c-.52-10.86,11.92-17.7,15.57-27.94-3.9-2.66-14.32-14.58-41.07-28.11l1.44,1.33c-.54,7.32,6.32,34.3,8.3,40.56a33.55,33.55,0,0,1,1.5,4.95c.82,5.34-3,10.21-6.85,14s-8,7.21-13,9.06c-9,3.34-19.1.77-28.39-1.83-2.08-.58-4.25-1.21-5.81-2.7a12.37,12.37,0,0,1-2.83-5.28,184.67,184.67,0,0,1-4.86-19.3q-1.73-8.07-3.46-16.15-4.81-22.51-9.65-45l.06-2.91c-8.43-2.24-17.5-4.39-27.29-6.43-2.81-.58-5.91-1.24-8.38.22-1.43.85-2.41,2.26-3.62,3.41-2.68,2.54-6.41,3.67-10.06,4.26a45.69,45.69,0,0,1-22.68-2.07c-3.29-1.18-6.79-2.76-10.14-1.76,14.49,13.85,34.05,21.72,47.73,36.37,3.17,3.4,6,7.14,9.34,10.38,2.11,2,4.49,4,5.67,6.67a17.05,17.05,0,0,1,1.12,5.4,141.49,141.49,0,0,1,.16,23.38c-.3,3.91-.8,7.93-2.76,11.32-4.22,7.29-15.4,9.27-21.86,3.85-5.85-4.91-6.91-13.51-6.28-21.12.42-5.19,1.59-10.66,5.28-14.34l1.42-6.21c-2.39-8.21-5.5-16.89-12.45-21.89-2.8-2-22-15.42-37.58-25.22-9.88-6.23-20.44-12.84-32.1-12.15,7.76,7.78,13.65,21,14.57,28.94-19.13,14.27-60.74,21.57-108.64,24.31-59.54,3.41-129.35-1.31-184.14-21.23-11.44-4.15-21.22-11.72-31-17C300,1993,285,1899,285.38,1870.77c.17-13,5.07-25.71,8.43-38.28,2.13-8,4.53-17,8.79-24.15a61.07,61.07,0,0,1,16.63-18.6c34.28-26.07,96.62-43.58,115.19-43.66,12.15,0,19.87,1.75,23.76,3a6.13,6.13,0,0,1-.87-2.27q-4.81-21.4-9.64-42.8l.54-3.49-17.71-7c-66.5-50.5-61.5-56.5-93-79-49.88-35.63-104.59-32.14-144-74-42.11-44.73-35.87-94-7-120,30.5-27.5,65.83-48.51,113.41-59.75l-4.86-.64c-17.69-23.92-19.54-53.42-20.68-83.15-.36-9.31-.55-19,3.1-27.54,5.2-12.2,17.82-21.41,18.59-34.64.49-8.28-4.08-16.21-10.25-21.76s-13.81-9.11-21.33-12.59l16.76-11.34c4.18-5.1,9.32-9.31,14.42-13.48l96.87-79.14c2.13-1.73,4.33-3.56,5.5-6a17.7,17.7,0,0,0,1.26-6.94A145.56,145.56,0,0,0,391,1010H0V2148H3237V1010ZM1062.59,2044.89c.32-1,.64-1.92,1-2.87C1063.23,2043,1062.91,2043.93,1062.59,2044.89Zm-1.13,3.61c.3-1,.61-2,.94-3C1062.07,2046.47,1061.76,2047.48,1061.46,2048.5Zm1.13-3.61-.19.57Zm1.08-3.17c0,.1-.07.2-.1.3C1063.6,2041.92,1063.63,2041.82,1063.67,2041.72Zm0,0c.36-1,.74-2.07,1.11-3.11C1064.41,2039.65,1064,2040.69,1063.67,2041.72Zm-220.85-9,.91.42Zm-9.4-4,2.37,1Zm3.28,1.37c1.06.44,2.09.89,3.11,1.33C838.79,2031,837.76,2030.51,836.7,2030.07Zm3.11,1.33.39.18Zm-15.23-6.14.89.32Zm15.62,6.32,2.62,1.16Zm3.53,1.58,2.09,1Zm-18.26-7.58c1.17.45,2.34.89,3.48,1.34C827.81,2026.47,826.64,2026,825.47,2025.58Zm6.88,2.69,1.07.43Zm-2.64-1-.76-.3Zm0,0,2.64,1Zm19.72,8.63,2.64,1.31Zm207.82,36.28c0,.52-.11,1-.17,1.57C1057.14,2073.18,1057.2,2072.65,1057.25,2072.13Zm-.45,4.25c.09-.89.19-1.78.28-2.68C1057,2074.6,1056.89,2075.49,1056.8,2076.38Zm-217.55-59.17c3.25,1.66,6.52,3.33,9.77,5C845.77,2020.54,842.5,2018.87,839.25,2017.21Zm218,54.92c.08-.67.15-1.34.23-2C1057.4,2070.79,1057.33,2071.46,1057.25,2072.13Zm-204.91-34.84-.27-.13.27.14Zm-6.52-3.17.86.41Zm3.48,1.67.13.06Zm208.18,34.33c0-.48.11-.95.16-1.43C1057.59,2069.17,1057.53,2069.64,1057.48,2070.12ZM849.3,2035.79l-2.62-1.26ZM1168,1010c-11,13-54,36-112,35-13.84,5.21-14.94-7.47-19,0,13,20,69.43,54,61.65,49.35a742.77,742.77,0,0,1,43.76,159.6l5.36-1.51C1154.44,1209.83,1176,1053,1168,1010Z"></path>
    <path data-name="1" data-official="Nymhea alba" data-plain="White Water-lily" data-loc="England" d="M974.81,2082.38c1.13,5.8,2.1,12.19-.84,17.32s-8.84,7.48-14.58,8.21c-11.75,1.49-25.33-4.63-28.18-16.13-1.68-6.78.57-13.85,2.8-20.48l.45-6.21L912,1987.2a81.79,81.79,0,0,0,42.63,17.34A656.58,656.58,0,0,1,974.81,2082.38Zm79.11-144.59c-11.22,14-21,29.47-35.13,40.58a17.28,17.28,0,0,0-4.6,4.54,15.13,15.13,0,0,0-1.49,4.25,830.6,830.6,0,0,0-19.79,118l1.53.71c12.16,6.29,24.92,12.73,38.61,12.74,3.54,0,7.2-.48,10.2-2.35,3.53-2.19,5.69-6,7.28-9.86,7-17,5.43-36.24,9.88-54.07,2.9-11.6,8.33-22.47,11.1-34.11,1.75-7.36,2.41-14.94,3.65-22.41,5-30.2,19.47-58.6,21.33-89.17C1079,1910.47,1065.13,1923.79,1053.92,1937.79ZM495,1719.62a8.29,8.29,0,0,0-3-1.75c-14.7-5.79-31.47-7.47-43.8-17.35l-.54,3.49q4.83,21.39,9.64,42.8a4.61,4.61,0,0,0,1.35,2.78,4.53,4.53,0,0,0,2.57.66,331.14,331.14,0,0,0,41.91-.38,217.77,217.77,0,0,0-6.41-26.78A8.67,8.67,0,0,0,495,1719.62ZM1532.85,875.55a8.48,8.48,0,0,1-2.33,4.36c-26,31-64.3,48.36-101.27,64.76-4.17,1.85-8.39,3.71-12.88,4.52-5.33,1-10.8.39-16.21.65-12.28.58-23.92,5.41-35.94,8-14.7,3.17-29.92,3-44.9,1.72a311.71,311.71,0,0,1-83.07-18.76,1227.42,1227.42,0,0,1-32.81,304l-1.18,2.17a413.05,413.05,0,0,1-94,27.07c-1.32.22-2.82.38-3.85-.48s-1.14-2.42-1.18-3.78c-.54-20.09-6.83-39.55-13.53-58.5a1231,1231,0,0,0-49-118.52l-1.11-1.06c-.9,39.93-10.62,79.06-20.38,117.79-2.12,8.39-4.24,16.78-7,25-11.39,34.43-32.77,64.52-53.84,94l-3.82,4.89-84.76,87.91-3.63,1.61c-11.18-21.5-35.94-35.11-60.08-33a77,77,0,0,1-4-22.2l.36-.17A276,276,0,0,0,866,1356.82c4.59-1.34,9.34-2.91,12.75-6.27,3.06-3,4.72-7.16,7.29-10.6,9.64-13,29.17-13.4,41.69-23.58,5.92-4.81,9.92-11.52,13.8-18.09,24.35-41.22,46.44-86.32,43.53-134.12C983,1130,978.94,1111.67,978,1104c-1.23-9.89-6.33-24.17-10.66-33.15-8.24-17.11-17.83-28.19-32.55-40.2s-35.66-20-53.17-12.66l-1.59-3.5c-50.23-25.65-111.08-27.63-164.23-8.74-12,4.28-25.76,13-24.3,25.74-3.38-12.57-20.83-13.23-33.62-10.86a369.11,369.11,0,0,0-66.22,19.27c-32.39,12.53-57.57,36.1-68.2,67.22-10.55,30.9-10,67.5,7.59,95-14.73-5-30,10.29-31,25.82s6.71,32.87,15.59,45.64,19.62,23,21.3,38.43c-44.55-24.59-99.88-23.52-146-2-31.77,14.79-60,34.46-91,50.74l-4.86-.64c-17.69-23.92-19.54-53.42-20.68-83.15-.36-9.31-.55-19,3.1-27.54,5.2-12.2,17.82-21.41,18.59-34.64.49-8.28-4.08-16.21-10.25-21.76s-13.81-9.11-21.33-12.59l16.76-11.34c4.18-5.1,9.32-9.31,14.42-13.48l96.87-79.14c2.13-1.73,4.33-3.56,5.5-6a17.7,17.7,0,0,0,1.26-6.94,145.67,145.67,0,0,0-11.59-62.08c-6.67-15.57-16-29.91-22.18-45.7-5.4-13.85-8.21-28.56-10.82-43.19-7-39.51-12.8-79.7-9.16-119.67S363,712.74,390.7,683.7l-2-28.11c.34-49.36,30.56-92.61,51.94-137.09,11.29-23.5,20.39-48.4,23.08-74.34,1.32-12.7,1.1-25.62,4-38.05s9-24.1,15.59-35.12c9.17-15.25,20.09-30.18,35.48-39.13,3.31-1.93,6.86-3.6,9.57-6.31,3.44-3.44,5.18-8.18,7.11-12.65,11.85-27.52,34.07-49.55,59.1-66s53-27.92,80.69-39.27l18.85-4.08,98.19-16.95c8.5-1.46,17-2.94,25.17-5.85,7.41-2.65,14.34-6.45,21.43-9.86,52.14-25.1,112-29.17,169.76-25.73s115,13.92,172.79,16.21c19.37.76,39,.64,57.74,5.54,26.38,6.89,49.44,23.41,68.32,43.08a227.9,227.9,0,0,1,31.72,41.73l2.28-.32a49.09,49.09,0,0,0,26.18-11.85c5.36-4.74,11.4-11.18,18.27-9.17,4.15,1.22,6.76,5.23,8.89,9a243.11,243.11,0,0,1,26.16,69.2,198,198,0,0,0,40.49-20.05l5.73,1.59c21.44,82.54,43,168.69,25.44,252.14-4.23,20.12-10.69,39.71-17.77,59-13.79,37.58-30.16,74.57-53.36,107.2-23,32.3-52.09,59.64-81,86.73-14.56,13.65-29.29,27.42-46.53,37.46a174.19,174.19,0,0,1,71.16-17.82l5.57-2.73c10.93-2.28,22.07-4.58,33.18-3.47,19.76,2,37.24,14.42,57,16.82,6.89.84,13.92.43,20.75,1.71,22,4.15,36.72,24.34,49.15,43C1531.9,871.77,1533,873.59,1532.85,875.55ZM1168,1010c-11,13-54,36-112,35-13.84,5.21-14.94-7.47-19,0,13,20,69.43,54,61.65,49.35a742.77,742.77,0,0,1,43.76,159.6l5.36-1.51C1154.44,1209.83,1176,1053,1168,1010Z"></path>
    <path data-name="2" data-official="Nymphea pygmea" data-plain="Pigmy Water-lily" data-loc="China" d="M921.61,2094.36c-1.81,10.2-8.58,19.19-17.35,24.71-3,1.91-6.45,3.48-10,3.47-5,0-9.57-3.1-12.44-7.15s-4.26-9-5.18-13.86l1.23-8.18c-.52-10.86,11.92-17.7,15.57-27.94-6.8-4.64-33.41-37.41-131.87-57.86-2.81-.58-5.91-1.24-8.38.22-1.43.85-2.41,2.26-3.62,3.41-2.68,2.54-6.41,3.67-10.06,4.26a45.69,45.69,0,0,1-22.68-2.07c-3.29-1.18-6.79-2.76-10.14-1.76,14.49,13.85,34.05,21.72,47.73,36.37,3.17,3.4,6,7.14,9.34,10.38,2.11,2,4.49,4,5.67,6.67a17.05,17.05,0,0,1,1.12,5.4,141.49,141.49,0,0,1,.16,23.38c-.3,3.91-.8,7.93-2.76,11.32-4.22,7.29-15.4,9.27-21.86,3.85-5.85-4.91-6.91-13.51-6.28-21.12.42-5.19,1.59-10.66,5.28-14.34l1.42-6.21c-2.39-8.21-5.5-16.89-12.45-21.89-2.8-2-22-15.42-37.58-25.22-9.88-6.23-20.44-12.84-32.1-12.15,7.76,7.78,13.65,21,14.57,28.94-19.13,14.27-60.74,21.57-108.64,24.31-59.54,3.41-129.35-1.31-184.14-21.23-11.44-4.15-21.22-11.72-31-17C300,1993,285,1899,285.38,1870.77c.17-13,5.07-25.71,8.43-38.28,2.13-8,4.53-17,8.79-24.15a61.07,61.07,0,0,1,16.63-18.6c34.28-26.07,96.62-43.58,115.19-43.66s26.81,4.17,26.81,4.17a331.14,331.14,0,0,0,41.91-.38l10.77-1.47c30.51,3.91,82.33,15.63,111.59,25.1,12-3,16.18-5.67,20.09-4.34s4.93,11.26,10.13,14.48,11.18,4.86,17,6.8a154.37,154.37,0,0,1,57.58,35,26,26,0,0,1,5,6c1.57,2.85,2.11,6.13,2.77,9.32a115.06,115.06,0,0,0,19.31,43.94c8.16,11.32,18.92,22.53,18.88,36.49,0,5.25-1.63,10.35-3.22,15.36l-18.18,57.16,1,1.78a79.86,79.86,0,0,1,14.93,1.67c9,1.69,17.92,3.95,26.81,6.21l13.51,3.43a135.39,135.39,0,0,1,16.42,4.92c4,1.58,7.87,3.54,11.72,5.5,19,9.69,38.32,19.59,53.73,34.35a96.8,96.8,0,0,0,9.12,8.32c3.14,2.31,6.67,4.06,9.7,6.51C919.85,2072.91,923.42,2084.15,921.61,2094.36Z"></path>
    <path data-name="3" data-official="Nuphar luteum" data-plain="Yellow Water-lily" data-loc="England" d="M788.83,2014c27.69,7.35,48.25,15.6,63.51,23.31l1.44,1.34c-.54,7.32,6.32,34.3,8.3,40.56a33.55,33.55,0,0,1,1.5,4.95c.82,5.34-3,10.21-6.85,14s-8,7.21-13,9.06c-9,3.34-19.1.77-28.39-1.83-2.08-.58-4.25-1.21-5.81-2.7a12.37,12.37,0,0,1-2.83-5.28,184.67,184.67,0,0,1-4.86-19.3l-3.46-16.15-9.65-45ZM430.5,1693.5c-66.5-50.5-61.5-56.5-93-79-49.88-35.63-104.59-32.14-144-74-42.11-44.73-35.87-94-7-120,30.5-27.5,65.83-48.51,113.41-59.75,31-16.28,59.24-36,91-50.74,46.13-21.48,101.46-22.55,146,2-1.68-15.47-12.43-25.66-21.3-38.43S499.08,1243.5,500,1228s16.26-30.82,31-25.82c-17.59-27.51-18.14-64.11-7.59-95,10.63-31.12,35.81-54.69,68.2-67.22a369.11,369.11,0,0,1,66.22-19.27c12.79-2.37,30.24-1.71,33.62,10.86-1.46-12.7,12.26-21.46,24.3-25.74,53.15-18.89,114-16.91,164.23,8.74l1.59,3.5c17.51-7.37,38.45.65,53.17,12.66s24.31,23.09,32.55,40.2c4.33,9,9.43,23.26,10.66,33.15,1,7.64,5,26,7.1,60.13,2.91,47.8-19.18,92.9-43.53,134.12,24.35-41.22,46.44-86.32,43.53-134.12,2.91,47.8-19.18,92.9-43.53,134.12-3.88,6.57-7.88,13.28-13.8,18.09-12.52,10.18-32,10.63-41.69,23.58-2.57,3.44-4.23,7.58-7.29,10.6-3.41,3.36-8.16,4.93-12.75,6.27a276,276,0,0,1-63.53,10.75l-.36.17a77,77,0,0,0,4,22.2c24.14-2.06,48.9,11.55,60.08,33l3.63-1.61,84.76-87.91,3.82-4.89,1.2-.79c34.26-35.41,85.17-50.57,134.43-52.06l14.22-1.63a413.05,413.05,0,0,0,94-27.07l11-.21,37-1.68c-10.41-4.88-16.46-16.22-18.66-27.51-1-5.27-1.21-11.23,2.08-15.47,3.84-5,10.87-5.78,17.12-6.21a83.28,83.28,0,0,1,15.06-.13,41.8,41.8,0,0,1,23.9,11.17l2.6-.52c5.62-20.07,21.82-36.37,41.15-44.14s41.39-7.44,61.28-1.21c5.38,1.68,10.7,3.83,15.19,7.24,5.33,4.05,9.22,9.68,12.77,15.35a238.64,238.64,0,0,1,21.78,44.51c5.83-23.71,28.11-42.39,52.47-44,9.49-.63,19.9,1.56,26,8.85,1.89,2.27,3.32,5,5.64,6.79,2.66,2.09,6.12,2.76,9.34,3.78,11.44,3.62,20.78,12.23,27.5,22.17s11.15,21.23,15.51,32.4a121.45,121.45,0,0,1,51.93,1c-7.84,9.61-6.28,23.51-4.74,35.81,3.83,30.52,4.61,63.3-10.7,90l-1.21,1.61c7.72,15.8,15.53,31.87,18.48,49.2,4.62,27-2.91,54.45-9.2,81.14s-10.29,48.25-1,74l1.6,13.34c2.89,34.14,4.17,68.66-2.11,102.35-2.72,14.6-6.29,29-9.86,43.45q-7.12,28.83-14.27,57.66c-3.7,15-7.41,29.94-12.26,44.56-12.84,38.74-35.42,76.45-71.27,96-5.1,2.78-10.61,5.31-14.18,9.9-3.18,4.09-4.41,9.33-6.61,14-9.2,19.6-33.21,26.82-54.71,29.38-5.83.7-11.76,1.22-17.29,3.22-6.24,2.25-11.66,6.27-17.11,10a290.48,290.48,0,0,1-58,31.09l4.28,17.78,3.09,10.49c2.15,5.41-.81,11.45-4.22,16.16-6.82,9.41-18.66,17.76-29.37,13.27-5.82-2.45-9.68-8.25-11.36-14.34s-1.48-12.5-1.28-18.81q.39-11.72.77-23.44a5.53,5.53,0,0,0-.58-3.3c-.83-1.25-2.48-1.58-4-1.94-8.07-1.94-14.87-7.27-21.1-12.76-52.19-46-83-113.14-93.69-181.92q-3.15,35.7-9.35,71c-1.44,8.2-3,16.38-5.12,24.42-2.17,8.26-4.91,16.36-7.65,24.44-12.37,36.54-25.14,73.82-48.75,104.32l-2,8-8.7,14.12c-3.84,6.25-8.33,13-15.4,14.93-6.91,1.9-14.09-1.41-20.33-4.92-4.08-2.3-8.15-4.78-11.34-8.21s-5.45-8-5.22-12.66l-.49-5.71c.9-8.3,1.67-16.64,3.68-24.69a140.28,140.28,0,0,1,4.46-13.94l.06-2.55c19.85-26.35,38.87-54,49.21-85.35,3.85-11.66,6.46-23.73,10.86-35.2,4.11-10.72,9.82-21,11.32-32.44,1.27-9.62-.53-19.65,2.25-28.94a126.4,126.4,0,0,0-14.83,22.56c-5.83,11.37-10.93,24.69-22.57,30l-4.68.2c-17.52,3.85-31.36,17.17-42.57,31.17s-21,29.47-35.13,40.58a17.28,17.28,0,0,0-4.6,4.54l-10.87,10.47q-7.89,4.15-16.07,7.71a50.29,50.29,0,0,1-10,3.45c-6,1.2-12.28.38-18.39-.45l-4.22.45A81.79,81.79,0,0,1,912,1987.2l-3.48,0a79.22,79.22,0,0,0-34.76-18.4,89.53,89.53,0,0,1-10.28-2.64c-5.57-2.05-10.34-5.76-15-9.42l-13.61-10.66q6.43,37,15.29,73.59l-.75,2.77c-3.36-1.75-6.74-3.48-10.11-5.2-3.85-2-7.71-3.92-11.72-5.5a135.39,135.39,0,0,0-16.42-4.92l-13.51-3.43c-3.52-.89-7-1.79-10.56-2.65l-1.49-4.07c-.77-22.72-9.14-44.87-8.08-67.57l-1.21-7.89c0-14-10.72-25.17-18.88-36.49a115.06,115.06,0,0,1-19.31-43.94c-.66-3.19-1.2-6.47-2.77-9.32l-7.41-13.26c-4.29-11.51-6.39-39.67-6.39-39.67-4-11-32-34-57-39-60,22-165-19-165-19l-7.49-2.63c-14.7-5.79-31.47-7.47-43.8-17.35Z"></path>
    <path data-name="4" data-official="Nelumbium speciosum" data-plain="Sacred Bean" data-loc="India" d="M1168,1010c3.81,20.5.91,66.89-3.9,114.43-22.1-9.43-37.1-15.43-65.45-30.08,7.78,4.7-48.65-29.35-61.65-49.35,4.06-7.47,5.16,5.21,19,0C1114,1046,1157,1023,1168,1010Zm1846.49-54.46c-20.94,72-66.78,140.37-135.46,170.37l-40.66-5.09-4.83-9.77c-.3-.61-.68-1.28-1.34-1.44a2.36,2.36,0,0,0-1.67.51l-14.18,8.79c-6.27,3.89-12.58,7.81-18,12.76-11.54,10.44-18.64,24.79-25.48,38.78a139.86,139.86,0,0,0-9.6-75.64l-2.89.7a252.29,252.29,0,0,1-38,45.18,36.41,36.41,0,0,0-10.07-13.67,34.44,34.44,0,0,0-12.75,20.82c-.75-12.92-3.56-25.62-6.35-38.25s-6-26.1-15.32-35.15c-6.13,5.1-10.42,12-14.6,18.79l-4,6.43c-4.38,7.1-8.79,14.27-11.59,22.13l-.41,1.47q-7.8-18.08-15.61-36.14c-1.46-3.39-3.41-7.2-7-8-2.75-.62-5.65.87-7.47,3a21.81,21.81,0,0,0-3.61,7.61,201.13,201.13,0,0,0-8.29,40.63l-13-31.23c-4.52-10.91-9.11-21.93-16.06-31.48-2.28-3.14-4.92-6.18-8.42-7.84-5-2.38-11.17-1.45-16,1.25s-8.66,7-12,11.41a111.32,111.32,0,0,0-18.83,38.72l-.06.08a119.68,119.68,0,0,0-20.16-23.16,6.69,6.69,0,0,0-3.85-2.08c-2.75-.16-4.53,2.8-5.57,5.35a125,125,0,0,0-7.6,27.29,178.07,178.07,0,0,0-23.23-45.86,6.64,6.64,0,0,0-2.95-2.71c-2.8-.94-5.29,2-6.75,4.52a133.16,133.16,0,0,0-17,55,396.81,396.81,0,0,0-23.62-46.87c-12.66,22.46-14.61,49.21-15.85,75l-.42-.46c-2.45-10.73-10.19-19.32-15.85-28.77a80.13,80.13,0,0,1-11.28-39.1c-11.15,9.59-17.23,24-19.5,38.56s-1.1,29.37.07,44c-3.53-11-7.61-22.29-15.55-30.72a116.3,116.3,0,0,0-10.79-9.39,158.2,158.2,0,0,1-30.39-33.4,517.67,517.67,0,0,0-7.57,90l-.42-1.71a553.7,553.7,0,0,1-28.95-49.27c-5.25,6.69-6,15.76-6.4,24.25q-.8,16.71-.79,33.44l-12.13-18.89c-5.44,19.81-4,41,.84,61s13.06,38.93,21.22,57.79l1.38,1.31c-5.57,6-3.8,15.53-1.36,23.34a293.23,293.23,0,0,0,36.83,76.58l3.63,2.16L2322,1428a9,9,0,0,1,2.2,3.63,8.91,8.91,0,0,1,.07,2.73c-2.93,36.37-8.68,73-23.18,106.49-8.37,19.34-19.62,37.54-25.55,57.77l-1.94,1.8c-20.24,6.64-41.77,8.32-62.37,13.73a178.45,178.45,0,0,0-97.68,66.45c-16.94,23.1-28,49.9-38.78,76.44l-1.34,1.76a190.92,190.92,0,0,1,8.17-73.83c3.47-11.18,13.63-20.93,17.73-31.9,1.94-5.17,2.43-10.79,4.45-15.93,8.85-22.56,42.59-27.66,50.24-50.66l-.23-1.62c-2.62-.31-5-1.64-7.28-2.94l-40.73-23.06a40.49,40.49,0,0,0-8.4-3.95,36.32,36.32,0,0,0-9.13-1.15,161.4,161.4,0,0,0-23.16,1l-1.51.11c-24.37,57.05-63.28,107.68-113,145l-2.21-.46-8.79,88.61c-.37,3.7-.71,7.57.67,11,1.28,3.17,4,6.56,2.34,9.57a23.87,23.87,0,0,1-1.9,2.38c-1.32,1.81-1.48,4.2-1.58,6.44q-1.41,29.66-2.81,59.31l-1.83,3.7,31.69,38.52,8.34,10.14,16.79,20.41,20.08,24.41c1.34,1.62,2.8,3.34,4.82,3.94s4,0,6,.29c7.45,1,8.86,11.07,8.3,18.57,6.64,4.93,11.74,11.61,16.74,18.19l50,65.82-6.17,6.74c-9.83,5.23-19.78,10.52-30.59,13.16s-22.75,2.43-32.48-3c-3.46-1.92-6.91-5.21-6.4-9.14.22-1.69,1.17-3.23,1.37-4.94a10.54,10.54,0,0,0-1.14-5.16c-11.66-27.82-38.55-46.78-51.45-74-2.29-4.85-4.57-10.39-9.5-12.51-3.68-1.58-8.53-1.07-11-4.19-1.19-1.47-1.53-3.42-2-5.25a32.22,32.22,0,0,0-14.29-19.32q3.13,61.26,1.2,122.64c-.09,3-.23,6.11-1.63,8.77-2.45,4.65-8,6.6-13,8.14-8,2.44-16.23,4.91-24.48,3.79s-16.49-6.93-17.61-15.18l-4.76-7.85q3.06-30.36,6.11-60.73c.16-1.59.29-3.31-.53-4.69-1-1.67-3.12-2.31-4.48-3.71-2.33-2.4-1.87-6.39-.41-9.4s3.75-5.62,4.82-8.79a25.2,25.2,0,0,0,.93-7.46q.48-19.65,1-39.31a26,26,0,0,0-.73-8.41c-1.52-4.76-5.73-10-2.76-14,1.2-1.63,3.32-2.41,4.45-4.09,1-1.52,1-3.48,1-5.32l-.17-20.36-1.57-2.06a23.2,23.2,0,0,0-15.09-13.79,10.19,10.19,0,0,1-3.51-1.36c-2.8-2.1-2-6.42-2.81-9.82a18.61,18.61,0,0,0-2.31-4.9q-14.21-23.93-26.4-49l-.73,1.24c-11.3,9.8-23.26,20.66-26.34,35.3-.44,2.09-.7,4.27-1.75,6.12-2.16,3.8-6.87,5.13-10.5,7.57-4.47,3-7.38,7.78-10.14,12.41q-5.28,8.85-10.55,17.69c-1.92,3.23-3.89,6.6-4.19,10.34-.14,1.77.09,3.63-.63,5.24-1,2.25-3.48,3.34-5.55,4.66-9.22,5.9-11.75,18-13.65,28.77s-4.94,22.9-14.55,28.15c5,1,5.13,8.06,4.21,13.09-7.29,39.56-.4,80.2,6.49,119.83-16.06,7.91-37.45,2.6-48-11.9l-5.06-7.42c-7.37-18.75-1.67-80.39-.92-91.86a200.32,200.32,0,0,1,5.74-36.26,306.84,306.84,0,0,1,13-38.29c4.52-11.27,9.45-22.58,17.14-32a12.54,12.54,0,0,0,2.89-4.7c1.26-5.16-4.8-10.09-3.4-15.22,1.33-4.85,10-4.45,10.89.5,13.32-10.53,21.6-26,31.65-39.66,13.1-17.84,29.47-33,45.73-48l-.65-.17L1790.84,1740a115.42,115.42,0,0,1-6.5-14.45c-4.71-13.64-4.42-29.14-12.1-41.36-2-3.18-4.54-6.12-5.64-9.72-.89-2.93-.76-6-1.15-9.09-1.21-9.36-7.3-17.27-13.17-24.66q-17.67-22.27-35.33-44.54c-6.93-8.73-13.87-17.48-20-26.81-13.94-21.29-22.38-45.51-26.52-70.62-2.42-14.63-3-29.81.77-44.15s11.38-27.8,24.18-35.3l-.81-1.51c-3.46-1.33-10.91-3.66-14.37-5-17.91-6.88-36.07-15.76-46.13-32.08l-9.57-11.58c7.81-23.22,6.71-49.41,3.61-74.11-1.54-12.3-3.1-26.2,4.74-35.81a121.45,121.45,0,0,0-51.93-1c-4.36-11.17-8.78-22.46-15.51-32.4s-16.06-18.55-27.5-22.17c-3.22-1-6.68-1.69-9.34-3.78-2.32-1.82-3.75-4.52-5.64-6.79-6.09-7.29-16.5-9.48-26-8.85-24.36,1.62-46.64,20.3-52.47,44a238.64,238.64,0,0,0-21.78-44.51c-3.55-5.67-7.44-11.3-12.77-15.35-4.49-3.41-9.81-5.56-15.19-7.24-19.89-6.23-42-6.55-61.28,1.21s-35.53,24.07-41.15,44.14l-2.6.52a41.8,41.8,0,0,0-23.9-11.17,83.28,83.28,0,0,0-15.06.13c-6.25.43-13.28,1.25-17.12,6.21-3.29,4.24-3.1,10.2-2.08,15.47,2.2,11.29,8.25,22.63,18.66,27.51l-37,1.68-11,.21,1.18-2.17a1227.42,1227.42,0,0,0,32.81-304,311.71,311.71,0,0,0,83.07,18.76c15,1.28,30.2,1.45,44.9-1.72,12-2.6,23.66-7.43,35.94-8,5.41-.26,10.88.31,16.21-.65,4.49-.81,8.71-2.67,12.88-4.52,37-16.4,75.28-33.78,101.27-64.76a8.48,8.48,0,0,0,2.33-4.36c.19-2-.95-3.78-2-5.43-12.43-18.61-27.16-38.8-49.15-43-6.83-1.28-13.86-.87-20.75-1.71-19.72-2.4-37.2-14.86-57-16.82-11.11-1.11-22.25,1.19-33.18,3.47l-5.57,2.73A174.19,174.19,0,0,0,1294,832.66c17.24-10,32-23.81,46.53-37.46,28.92-27.09,58-54.43,81-86.73,23.2-32.63,39.57-69.62,53.36-107.2,7.08-19.31,13.54-38.9,17.77-59,17.56-83.45-4-169.6-25.44-252.14l-5.73-1.59A198,198,0,0,1,1421,308.57a243.11,243.11,0,0,0-26.16-69.2c-2.13-3.78-4.74-7.79-8.89-9-6.87-2-12.91,4.43-18.27,9.17a49.09,49.09,0,0,1-26.18,11.85l-2.28.32A227.9,227.9,0,0,0,1307.54,210l2-11.31A1267.85,1267.85,0,0,1,1822.23,21.71C1941.3,7.84,2061.62,11,2181.46,14.15c76.61,2,153.6,4.09,228.95,18.1,53.22,9.91,105.14,25.69,156.83,41.78,86,26.75,174.08,55.74,242.84,113.88,41.42,35,74,79.2,104.81,123.85,34.51,50,67.62,101.78,88,159,29.55,83.18,30.65,173.37,31.43,261.64C3034.93,807.37,3035.43,883.58,3014.49,955.54ZM1896.86,1756.15a119.3,119.3,0,0,0-27.43,19.34,3,3,0,0,0-.78,4.57l3.13,5.72a6.09,6.09,0,0,0,2.32,2.73,15.67,15.67,0,0,0,2.66.66c3.8,1.09,4.82,5.95,4.89,9.91a11.9,11.9,0,0,0,.39,3.52,12.27,12.27,0,0,0,2.33,3.61,64.76,64.76,0,0,1,6.43,9.48v0Q1892.47,1785.78,1896.86,1756.15Zm22.08-155.55q-24,22.08-46.32,45.92c-2,2.13-4,4.35-5,7.11s-.76,6-.94,9.07c-.53,9.32-5.1,17.87-7.49,26.88-4.17,15.71-1.64,32.32.92,48.37l1.34-.45a271.86,271.86,0,0,0,34.56-29.26,26.1,26.1,0,0,0,5.6-7.19c1.33-2.91,1.59-6.17,1.84-9.36.84-10.88,1.75-21.79,4-32.48C1911.5,1639.64,1920,1620.57,1918.94,1600.6Zm105.71-42.44c-7.18,2.88-16.28,3.85-23.9,5.18-5.69,1-16.7,8.56-16.7,8.56s-8.71,23.23-10.74,32.61c-2.66,12.27-3.43,25-7.94,36.76,0,0,38.18-37.31,49-62.68-2.55.53-4.88-2.36-4.48-4.95s2.71-4.51,5.17-5.37c1.82-.64,3.78-.84,5.53-1.66S2024.9,1560.07,2024.65,1558.16Zm21.31-75.09q-.48-32.11-3.75-64.09l-7-.44a2.74,2.74,0,0,0-1.88.34,2.65,2.65,0,0,0-.75,1.26q-8.28,22.3-16.55,44.63c-5.53,14.92-11.07,29.85-15.59,45.11-2.87,9.68-5.52,19.85-12.11,27.51a81.91,81.91,0,0,1,45.55-7.36l1-2.33a159.9,159.9,0,0,1,7.81-30.06c-3.58-1.53-6.16-5.51-5.45-9.34S2042.35,1481.6,2046,1483.07Zm146.83-65.24a94.15,94.15,0,0,1-19.21-.89c-10-1.74-19.39-6.13-29.2-8.86a91.52,91.52,0,0,0-47.44-.4l-3.78,2.19a156,156,0,0,0-4.29,45.46,33.75,33.75,0,0,1-.23,8.93c-.44,2-1.29,3.94-1.77,6-.63,2.61-2.63,5.32-2.75,8a144.38,144.38,0,0,1-5.12,33.06q-2.1,7.42-4.51,14.74l.57,1.82c9.33-1.35,18.73-2.71,28.14-2.18s19,3.09,26.41,8.84c1.76,1.35,3.47,2.91,5.61,3.47,3.19.83,7.22-.52,9.44,1.92,1.68,1.84,1.16,4.69,1.37,7.17a11.16,11.16,0,0,0,20.34,5.36c2.45-3.6,2.59-8.31,1.8-12.59s-2.41-8.36-3.23-12.63c-1.66-8.8.18-17.83,2-26.59,1.08-5.07,2.18-10.22,4.65-14.78,2.6-4.79,6.57-8.68,10.68-12.24a139,139,0,0,1,31.19-20.4l1.09-1.17c4.09-4.55,5.61-10.82,8.93-16a52.11,52.11,0,0,1,6.75-7.94l16.18-16.65-.08-1.19A258.39,258.39,0,0,1,2192.79,1417.83Z"></path>
    <path data-name="5" data-official="Nymphea cærulea" data-plain="Blue Water-lily" data-loc="Cape of Good Hope" d="M2997.08,1655.31a116.29,116.29,0,0,0,20-30.6,82.21,82.21,0,0,0,6-18.49,94.92,94.92,0,0,0,1-22.41c-2.12-38.44-15.8-75.23-30.69-110.74,0,0-24.58-47-40.47-66.13-4.47-5.38-9.14-10.77-15.09-14.44s-13.49-5.41-20-3c-6.27,2.3-10.76,8-13.32,14.17s-3.49,12.85-4.76,19.4c-3.35,17.31-9.16,34.06-13,51.27-4.55,20.25-6.39,41-8.21,61.68s-3.66,41.45-2.94,62.21c.68,19.7,4.28,40.67,17.78,55,6.76,7.19,15.56,12.21,22.44,19.3a52.12,52.12,0,0,1,14.5,34l-.19-1.27c-14.08-2.87-23.61-15.78-36-23.06-8.77-5.14-18.87-7.39-28.37-11-21.66-8.26-40-23.64-61.5-32.27-12.16-4.88-25.09-7.5-37.93-10.1L2712.79,1618c-12-2.43-24.19-4.88-36.45-4.33-28.05,1.24-53.63,17.93-81.67,19.39l.11-1.52q1.65-41.71,6.53-83.23a6.52,6.52,0,0,1,1.39-3.94c1.26-1.27,3.27-1.26,5.06-1.33a31.73,31.73,0,0,0,26.33-16.58,115.06,115.06,0,0,0,84.74-35.08l.86-1.07c17.69-2.5,34.61-8.67,51.38-14.81,8.4-3.07,16.81-6.15,24.9-10,24-11.35,46.68-29,64.36-48.85s32.6-42,47.47-64c13.08-19.39,21.25-47,30.16-68.58l2.44-4.84c10.84-27.16,18-57.87,8.15-85.42-10.13-28.35-36-47.6-60.47-65.11l-9-2.8-40.66-5.09-4.83-9.77c-.3-.61-.68-1.28-1.34-1.44a2.36,2.36,0,0,0-1.67.51l-14.18,8.79c-6.27,3.89-12.58,7.81-18,12.76-11.54,10.44-18.64,24.79-25.48,38.78a139.86,139.86,0,0,0-9.6-75.64l-2.89.7a252.29,252.29,0,0,1-38,45.18,36.41,36.41,0,0,0-10.07-13.67,34.44,34.44,0,0,0-12.75,20.82c-.75-12.92-3.56-25.62-6.35-38.25s-6-26.1-15.32-35.15c-6.13,5.1-10.42,12-14.6,18.79l-4,6.43c-4.38,7.1-8.79,14.27-11.59,22.13l-.41,1.47q-7.8-18.08-15.61-36.14c-1.46-3.39-3.41-7.2-7-8-2.75-.62-5.65.87-7.47,3a21.81,21.81,0,0,0-3.61,7.61,201.13,201.13,0,0,0-8.29,40.63l-13-31.23c-4.52-10.91-9.11-21.93-16.06-31.48-2.28-3.14-4.92-6.18-8.42-7.84-5-2.38-11.17-1.45-16,1.25s-8.66,7-12,11.41a111.32,111.32,0,0,0-18.83,38.72l-.06.08a119.68,119.68,0,0,0-20.16-23.16,6.69,6.69,0,0,0-3.85-2.08c-2.75-.16-4.53,2.8-5.57,5.35a125,125,0,0,0-7.6,27.29,178.07,178.07,0,0,0-23.23-45.86,6.64,6.64,0,0,0-2.95-2.71c-2.8-.94-5.29,2-6.75,4.52a133.16,133.16,0,0,0-17,55,396.81,396.81,0,0,0-23.62-46.87c-12.66,22.46-14.61,49.21-15.85,75l-.42-.46c-2.45-10.73-10.19-19.32-15.85-28.77a80.13,80.13,0,0,1-11.28-39.1c-11.15,9.59-17.23,24-19.5,38.56s-1.1,29.37.07,44c-3.53-11-7.61-22.29-15.55-30.72a116.3,116.3,0,0,0-10.79-9.39,158.2,158.2,0,0,1-30.39-33.4,517.67,517.67,0,0,0-7.57,90l-.42-1.71a553.7,553.7,0,0,1-28.95-49.27c-5.25,6.69-6,15.76-6.4,24.25q-.8,16.71-.79,33.44l-12.13-18.89c-5.44,19.81-4,41,.84,61s13.06,38.93,21.22,57.79l1.38,1.31c-5.57,6-3.8,15.53-1.36,23.34a293.23,293.23,0,0,0,36.83,76.58l3.63,2.16L2322,1428a9,9,0,0,1,2.2,3.63l2.52,3.34c11.77,11.53,77.77,63.53,109.14,74.54,7.57,2.66,14.75,6.3,22.24,9.2l23.42,9c11.45,4.43,23.24,8.92,35.52,8.86,1.52,4.64,5.63,8.06,10.13,9.94s9.44,2.42,14.29,3l.5,1.67q4,46.07,5.59,92.3l.82.49c-7.69,4.45-16.83,5.39-25.42,7.63s-17.57,6.58-21.09,14.73c13.66,9.18,18.43,26.61,26.45,41,2.92,5.21,6.93,10.53,12.78,11.71a3.91,3.91,0,0,1,2.52,1.08,3.32,3.32,0,0,1,.34,2.27q-1.76,20-3.53,40.05l-1.68,1.32a86.83,86.83,0,0,0-17.57,7.45l-.68-2.68c-21-29-28-92.65-25.54-101.39s9.88-16.14,9.85-25.26c0-3.46-1.51-7.29-4.73-8.57a11.59,11.59,0,0,0-4.7-.5,134.59,134.59,0,0,0-68.53,21.94c-8.38,5.51-16.11,12-23.82,18.37-12.22,10.17-24.63,20.55-33.33,33.86,3.68-42,6.49-85.91-10-124.7-2.7-6.37-6-12.71-11.34-17.17a6.53,6.53,0,0,0-3.2-1.7c-2.43-.31-4.43,1.76-6.06,3.58a104.84,104.84,0,0,1-62.48,33.64l-3-.18c-20.24,6.64-41.77,8.32-62.37,13.73a178.45,178.45,0,0,0-97.68,66.45c-16.94,23.1-28,49.9-38.78,76.44l-3.25,3.87c-5.86,15.46-7.76,32.12-9,48.61-4.52,61.18.27,124.92,28.28,179.5,6.14,12,13.58,24.56,11.65,37.87l.62,1c15.44,2.68,31.19-1.25,46.86-1.56,27.46-.56,54.42,10,81.83,8.12,7.18-.49,14.85-2.11,19.71-7.41l2.37-1.34,19.69.26c6.81.1,13.67.18,20.41-.89,5.79-.92,11.41-2.69,17.16-3.85,17-3.43,34.76-1.4,51.93-4.07a166.74,166.74,0,0,0,24.47-6.2q21.57-6.78,42.66-15c9.09-3.54,18.18-7.31,26.28-12.75s15.21-12.71,19-21.69l.42-1c11.32,17.13,14.37,38.26,16.82,58.65q3.09,25.53,5.51,51.12l3.67,7,16.75-.58c3.25-.11,6.76-.15,9.41,1.73,4.39,3.1,4.21,9.49,5.84,14.61a18.9,18.9,0,0,0,35.58,1.21c1.34-3.41,1.7-7.19,3.4-10.44,3.65-6.94,12.17-9.44,19.79-11.28l2.43-2.84,6.31-55.92c2.47-21.92,5-44,10.91-65.2,4.94-17.62,12.21-34.5,19.45-51.32l1.95.31c5.51,6.28,14.12,8.72,22.3,10.34a201,201,0,0,0,83.39-1.16l2.69.41c4.33,29.62,23.34,54.82,43.1,77.3l2.4.85a21,21,0,0,1,12.15-2,57.26,57.26,0,0,1,12.11,3l2.26-1.44-14.88-14.24a65.13,65.13,0,0,1-16.13-21l-10.75-19.73c-4.52-8.3-9.12-16.8-10.59-26.14l-.41-1.61c35.27-4.71,72-3.09,105.24-15.75,19-7.24,36-18.85,52.8-30.35l1.11.36c-1.13,12.22-4,24.21-6.82,36.15q-2.36,9.9-4.72,19.8c-1.49,6.26-3,12.52-4.71,18.71a215.74,215.74,0,0,1-16.3,41.88l1.71,1.54a20.93,20.93,0,0,1,22.56,8.57l4.23-1.54c8.94-18,10.87-38.52,16.48-57.8,1.46-5,3.18-10,4.62-15,4-13.79,5.8-28.08,7.63-42.31l3.45-26.8,1.43-.7c12.83-8.37,25.74-16.8,39.81-22.88,7.57-3.28,15.73-6,21.45-12,8.59-9,9.42-23.41,4.61-34.85s-14.32-20.26-24.45-27.42a147.42,147.42,0,0,0-29.17-16l.25-1.21c-.56-9-1.1-18.26,1.42-26.94C2969,1680.17,2984.92,1668.69,2997.08,1655.31Zm-470.65,347.8-1.95,3.45a10,10,0,0,1-9.43,2.28,171.57,171.57,0,0,0-22.32-68.84l1.05-5c14.71-26.11,29.76-53.31,32-83.19.46-5.92.4-11.87.33-17.82l-.32-31.25.31-1.86a30.3,30.3,0,0,0,6.77,4.09l1.23,2.85Q2525.79,1905.23,2526.43,2003.11Zm59.1-10.15c-.56,4.17-2,9.39-6.2,9.86l-3.53-1.26a623.88,623.88,0,0,1-.46-153.82l1.06.22c5.71,6.65,9.55,14.67,14.55,21.87s11.71,13.89,20.28,15.75l1.81,1.51C2601.76,1921.82,2590.42,1956.78,2585.53,1993Zm34.5-248.64c-4.52,1.74-9.05,3.49-13.67,5a117.87,117.87,0,0,1-22.21,4.71l1.61-17.32c9.32,1.35,18.78,1.26,28.2,1.16l26.21-.26C2633.45,1740.14,2626.74,1741.73,2620,1744.32Z"></path>
</svg>
