
<svg xmlns="http://www.w3.org/2000/svg" viewBox="0 0 1872 3079" id="illustration" preserveAspectRatio="xMidYMid meet">
    <title>Lobeliaceæ</title>
    <path data-name="1" data-official="Loebelia Dortmanna" data-plain="Water Lobelia" data-loc="Britain" d="M775.24,1985c-8.47,7.66-15.51,16.74-22.5,25.77-4.68,6-9.38,12.11-13,18.81-8.61,15.7-11.13,33.87-14.81,51.39a362.32,362.32,0,0,1-17.64,58.63l-3.84,11.5c-1.22,6-4.43,11.39-5.68,17.37-1,4.62-.72,9.4-.46,14.11l3.81,10.38q1.56,15.15,2.71,30.33l.11,12.57c.26,5.81.44,12-2.47,17-1.11,1.92-2.66,3.64-3.25,5.79s-.06,4.66.49,6.94a2.09,2.09,0,0,0,.4.94,2.3,2.3,0,0,0,.91.49,10.61,10.61,0,0,1,6.42,7.09l9.36,14c-5,25.82-9.69,53.92,2.33,77.31,6.75,13.12,18.24,23.45,24.19,37,5.42,12.3,5.78,26.13,7.94,39.4a143.81,143.81,0,0,0,21.2,54.95c5.56,8.58,12.08,16.65,16.1,26.05,5.18,12.09,5.89,25.57,6.16,38.72.22,10.76-.12,22.48-6.91,30.83-6.53,8.05-17.61,11-28,11.12s-20.67-1.94-31-1.78a71.61,71.61,0,0,0-37.91,11.68c-8.55,5.63-16,13.16-25.54,16.9-16.68,6.55-36.61-.59-48.44-14-3.37-3.84-6.26-8.17-10.28-11.31-12.34-9.63-31-5.2-44.65-12.89-14.93-8.43-18.75-28.05-19.21-45.2-1-36.07,7.71-75.38,35.68-98.17,9.09-7.41,19.91-12.81,27.67-21.61,12.22-13.86,14.74-33.55,16-52l.16-8.38c3.19-19-4.93-38.58-1.51-57.53l7.1-11.36a22.79,22.79,0,0,0,1.65-19.71c-1.3-3.34-3.38-6.33-4.74-9.65a64,64,0,0,1-2.3-7.68c-5.1-18.88-16-36.07-19-55.38l2.34-6.21a15.71,15.71,0,0,0-2.69-10,18.34,18.34,0,0,1-1.7-2.59c-.44-1-.62-2-1-3-1.21-3.21-4.27-5.28-7.15-7.14l1.74-5.7a14.43,14.43,0,0,0-2.2-8,24.7,24.7,0,0,1-2.21-3.55c-.36-.88-.53-1.83-.81-2.73a24.07,24.07,0,0,0-1.93-4.19l-3.4-6.25-.75-6.49-7.4-16.69c-5.44-12.26-10.9-24.57-14.75-37.43-8.9-29.71-8.94-61.26-13.74-91.91l-.44-8.21c-1.06-6.06-.13-12.42-1.91-18.31a55.06,55.06,0,0,0-3.62-8.13c-3.72-7.57-6.3-15.63-9.07-23.59a507,507,0,0,0-29.84-69l-2.19-5.18.25,1.55a40.15,40.15,0,0,0-7.08-9.13,2.3,2.3,0,0,1-.74-1c-.21-.88.68-1.63,1.51-2s1.8-.78,2.06-1.65-.41-1.82-1-2.58a35.32,35.32,0,0,1-4.26-8.09l-15.09-35.8c-.67-1.6-1.42-3.3-2.89-4.23-1.86-1.18-4.45-.83-6.21-2.16l-9.56-3.49a5.67,5.67,0,0,1-3.57-3.79,12.78,12.78,0,0,1-.3-5.37c.24-2.23.77-4.6,2.39-6.14s4.27-2,6.63-2.09c4.4-.2,9.19.29,12.45,3.25l4.09,3.51c1.83,2.25,1.94,5.41,3,8.13a25.19,25.19,0,0,0,3.62,6l10,13.37a12.38,12.38,0,0,1,2.33,4.19c.28,1.12.28,2.38,1,3.26s2.21,1.13,2.89,2.13c.83,1.2.23,3.06,1.2,4.16a5.8,5.8,0,0,0,1.38.94c2.83,1.77,3.08,5.73,3,9.07,1.75-.74,3.81.2,5.1,1.6a38.23,38.23,0,0,1,3.1,4.77c1.06,1.58,2.6,3,4.5,3.15l9.93,0A46.51,46.51,0,0,0,547.1,1833a113,113,0,0,0,14-14.57c.47-.56,1-1.29.67-2l1.28-4.46a106.92,106.92,0,0,1,.86-25.34c.41-2.7,1-5.55,2.89-7.53a12,12,0,0,1,5-2.85,35.7,35.7,0,0,1,19-1.17l.53,5.08a115,115,0,0,0-1.68,28c.34,5.37,1.1,10.84,3.51,15.65,4.94,9.83,15.63,15,24.28,21.84,6.45,5.06,12.58,11.55,20.7,12.66l3.85,1.37c3.17-1.75,7.13-.17,10.73-.66a12.94,12.94,0,0,1,2.24-.28,11.2,11.2,0,0,1,2.12.42c3,.71,6.12.34,9.18,0a89.76,89.76,0,0,0,1.9,8.84c.34,1.24.83,2.63,2,3.11l4.79,5.12a21.24,21.24,0,0,0,7.06.29,7.17,7.17,0,0,0,5.47-4c.45-1.13.58-2.53,1.58-3.22a4.08,4.08,0,0,1,2.42-.45,34.56,34.56,0,0,0,10-1.43,87.3,87.3,0,0,0,4.39,31.14l1.85,10.78a81.34,81.34,0,0,1,5.85,19.91l1,6.59c.12,4.61.45,9.22,1,13.8.36,3,1,6.39,3.44,8.23,2.6,2,6.22,1.47,9.44.95a77.81,77.81,0,0,1,16.18-1.25c3.49.17,7,.73,10.44.58a57.09,57.09,0,0,0,10.1-1.75,246,246,0,0,1,31.69-5.1l3.31,1.86a86.9,86.9,0,0,1,33.24,1.07,21,21,0,0,1,7.88,3.14,48.29,48.29,0,0,0,4.22,3.37c3.74,2.15,8.52,1,12.63,2.27l5.83,1.44a54.06,54.06,0,0,1,15.88,40.32c-.1,2.49-.43,5.11-1.87,7.15-2.57,3.65-8,4.25-12.11,2.42s-7-5.5-9.45-9.22c-1.63-2.47-3.14-5-4.55-7.64l-2.92-4.74a22.07,22.07,0,0,0-8.11-21.45,36,36,0,0,0-5.05-3.08,30,30,0,0,0-6-2.54,31.53,31.53,0,0,0-8.23-.75,189.94,189.94,0,0,0-21.06,1.22,2.71,2.71,0,0,0-1.4.43,3.2,3.2,0,0,0-.76,1.27,9.78,9.78,0,0,1-6,5.36ZM651,1732c-1.84-2-2.6-5.15-5.14-6a7.57,7.57,0,0,0-3.48,0,130.85,130.85,0,0,1-19,.87l-1,5.77a49,49,0,0,0,4.64,12.17l3.49,2.19a54.91,54.91,0,0,1,14.2-5.15,12.61,12.61,0,0,0,3.27-1,3.68,3.68,0,0,0,2-2.58Zm-26.42-102.78-45.12-139.28c-11.91-36.76-23.82-73.54-34.41-110.7-13.79-48.41-25.37-97.67-29.75-147.81l-2.86-10.86c-1.4-3.91-.6-8.32,1.08-12.11s4.21-7.16,6.42-10.67c12-19,14.89-42.5,13.22-64.89-.12-1.55-.34-3.27-1.51-4.29s-2.83-1-4.35-.94l-10.14.38a9.38,9.38,0,0,1-5-.75,7.74,7.74,0,0,1-2.92-3.62c-3.51-7.53-2.46-16.42.07-24.33l-2.44-8.81c4-13.54,14-24.33,20.69-36.79a78.57,78.57,0,0,0,9.19-37.41c-.06-6.32-.87-12.72.48-18.89.3-1.34.81-2.8,2-3.39,1.94-1,4,.82,5.61,2.28a30.38,30.38,0,0,0,28.41,6.67c3.13-.9,6.15-2.32,9.39-2.63l5.39-2.55a5,5,0,0,1,2.6,3.33c2.72-3.38,3.31-8.09,2.58-12.37s-2.62-8.26-4.44-12.2c-2.75-5.95-5.42-12.07-6.16-18.58l1.68-3.51a26.8,26.8,0,0,0,12.75-11.27c1.24-2.15,2.19-4.65,1.64-7.07a12.38,12.38,0,0,0-3.05-5.06l-7.63-9c-2.06-2.42-4.22-4.92-7.15-6.15s-6.84-.72-8.52,2c-1.88,3-.31,7.23-2.14,10.25s-6,3.35-9.56,3.05c-13.46-1.13-26.22-6.2-39.33-9.41a144.11,144.11,0,0,0-69.47.38c-16.3,4.17-32.07,11.24-48.87,12a553.76,553.76,0,0,1,5-93c1.07-7.74,2.44-15.8,7.14-22.05,7.7-10.27,21.92-12.73,34.73-13.45s26.63-.77,37-8.34A35.54,35.54,0,0,0,499,780.44l4-7.54a24.21,24.21,0,0,1,5.54-6.14,18.11,18.11,0,0,0,4.1-3.69A16,16,0,0,0,514.3,759,38.46,38.46,0,0,1,520,747.88a11.83,11.83,0,0,0,2.42-4.27c.39-1.83-.25-3.71-.33-5.58-.16-3.88,2.09-7.5,4.91-10.18s6.2-4.67,9.2-7.13a35.51,35.51,0,0,0,12.72-22,18.46,18.46,0,0,0-.91-10.05c-1.35-3.13-4.19-5.75-7.58-6.14l-6.17-1.13a57.34,57.34,0,0,0-40,.9c-2.12.85-4.4,1.86-6.63,1.33s-3.94-2.62-5.32-4.58c-13-18.51-23.61-39.85-42.46-52.39-4.56-3-10-6.09-11.17-11.44-.87-4,.94-8,2.76-11.6,6.57-13,14-25.61,20.31-38.78A250.42,250.42,0,0,0,475.51,476c.77-10.08.8-20.79-4.2-29.58-8.71-15.32-30.4-19.18-46.75-12.59-7.88,3.18-16.72,8.34-24.19,4.29-8.75-4.74-7.56-17.76-3.43-26.81s10.08-18.82,6.82-28.21c-1.57-4.51-5.09-8.07-8.87-11-8.82-6.78-20.07-10.94-31.11-9.58s-21.56,8.92-24.72,19.6c-3.1,10.46-.32,24.47-9.67,30.09-8.62,5.19-19-2.06-27.49-7.49a83.34,83.34,0,0,0-68.17-9.44c-6.3,1.91-12.65,4.8-16.65,10-3.38,4.43-4.73,10.1-5.16,15.65-2.13,27,17.92,53.94,44.35,59.68,10.2,2.21,20.88,1.58,31,4.11s20.33,9.6,21.64,20c1.75,13.79-12.13,23.81-23.71,31.51-17.68,11.74-33.86,25.56-50,39.34-7.85,6.71-15.87,13.61-20.94,22.61-8.9,15.82-7.27,35.27-4.59,53.23l3.8,10.75c27.35,31.46,62.54,58,103.43,66.2,11.24,2.24,23.69,3.52,31.73,11.69,5.44,5.52,7.86,13.36,9,21,1.79,12.25.13,26.15-9,34.51-4.72,4.32-10.87,6.64-16.66,9.36-27.5,12.93-49.46,36.57-78.27,46.26-13.8,4.65-28.49,5.83-43,7.48-5.39.61-10.92,1.34-15.71,3.89-9.28,4.94-14,16-14,26.55s3.8,20.64,8,30.29l4.14,9.59a85.73,85.73,0,0,0,47.8,16.8c8.7.32,18.3-.44,25.13,5,2.64,2.09,4.57,4.92,6.61,7.6,19.07,25,51.61,39.16,82.92,36,4.73-.48,9.74-1.29,14.07.67,7.81,3.54,9.34,13.67,11.21,22a78.55,78.55,0,0,0,7.74,20.57c1.88,3.43,4.09,7.07,3.58,11-.79,6-7.45,9.18-13.19,11.23l-19.84,7.07c-8.88,3.17-18.59,7-22.85,15.45a30.17,30.17,0,0,0-2.68,12c-1.58,27.32,11.21,53.31,25.27,76.79s30,46.65,36,73.37l1.2,9.47a223.86,223.86,0,0,0,19.45,52.4c6.48,12.41,15.46,25.22,29.08,28.46,7.3,1.73,14.91.43,22.4.11s15.66.62,21.08,5.8c4.39,4.19,6.15,10.36,7.78,16.21a1315,1315,0,0,0,63.87,178.88l2.3,6.67q1.82,6,4.11,11.8a3.91,3.91,0,0,0,1,1.64c.92.76,2.31.57,3.35,1.14,1.34.73,1.73,2.44,2,3.94l1.73,10.39-1.33,7.2A1009.88,1009.88,0,0,0,608.62,1678l4,1.24c.34-3.38,2.75-6.18,3.71-9.43a36,36,0,0,0,.84-6.82c.45-4.51,1.93-8.84,3.4-13.13l3.11-9.07Z"></path>
    <path data-name="2" data-official="Loebelia splendens" data-plain="Splended Lobelia" data-loc="Mexico" d="M1022.83,2515.19c4.56,43.66,4.12,88.68-9.79,130.31-1.51,4.53-3.2,9.06-6,12.93-4.93,6.86-12.78,11-20.66,14-8.51,3.29-18.29,5.54-26.58,1.73-6.35-2.92-10.75-9-13.45-15.45-5.1-12.15-5-25.93-2.56-38.88s7.1-25.35,11-38c11.45-37.44,15.77-76.64,20-115.56l.62-2.17c1.64-1.37,4.17-1.62,5.32-3.42a6.17,6.17,0,0,0,.74-2.47,45.22,45.22,0,0,0-3.14-23.83l1.85-4.27c.46-8.54.93-17.1.61-25.65a43.25,43.25,0,0,1,.25-9.45c.43-2.29,1.28-4.48,1.87-6.74a29.7,29.7,0,0,0,0-14.66l1.77-1.64c9.15,5.24,16.51,13,23.73,20.74a27.48,27.48,0,0,1,4.28,5.41c1.8,3.28,2.19,7.15,3.75,10.55l.14,2.95c-.33,3.91-.65,7.92.37,11.71.43,1.58,1.08,3.09,1.56,4.65,1.18,3.87,1.3,8,1.41,12l-.94,5.68-.08,6.14a2.58,2.58,0,0,1-.67,2.09,2.53,2.53,0,0,1-1.58.36H1012a1.94,1.94,0,0,0-1.17.25,2,2,0,0,0-.6,1.46c-.42,3.85-.66,8.26,2.06,11a2.11,2.11,0,0,1,.79,1.22,1.65,1.65,0,0,1-.42,1,37.48,37.48,0,0,1-3.65,3.47c-1.19,1.19-2.18,2.8-1.9,4.46l4.46.48a6.17,6.17,0,0,1,2,.43c2.11,1,2.45,3.8,2.5,6.13ZM984.17,2350a37.33,37.33,0,0,0,7.39,10.55c1.28,1.28,2.78,2.52,4.57,2.65s3.84-.66,5,.66a3.55,3.55,0,0,1,.63,1.88,30.37,30.37,0,0,1,0,7.13c2.41.18,4,2.44,5.54,4.34a31,31,0,0,0,6.48,6.1,5,5,0,0,0,2,1,3.59,3.59,0,0,0,3.08-1.26c1.54-1.68,1.79-4.14,1.94-6.42.83-13.11.6-26.26.36-39.4l-.95-53.24.65-5.1a273.54,273.54,0,0,1-2.94-32.08l-.6-4.16c-.1.17.35.14.23,0-3.54-4.68-.34-10-3.52-14.95a14.93,14.93,0,0,0-2.87-3,50.66,50.66,0,0,0-4.8-3.86c-5.12-3.47-11.34-5-16.65-8.15a8.72,8.72,0,0,0-2.34-1.13c-1.53-.36-3.1.27-4.64.57-3,.58-6.16-2.09-8.64-3.82l-.3,3.7a33.85,33.85,0,0,0,5.07,9.78l.9,3.21a31.13,31.13,0,0,1,4.76,12.58,92.32,92.32,0,0,1,1,13.51c.12,5,.23,10.14-.81,15.08l-1.14,3.11c-.52,2.59-1.52,5-2.23,7.59-1.71,6.06-1.77,12.44-1.82,18.73l-.16,20.87c-.07,8.51-.1,17.25,2.91,25.21ZM980.51,697.6c11.31,8.38,26,11.18,37.25,19.7,5.09,3.87,9.3,8.81,14.48,12.55,4.15,3,10,5.14,14.21,2.14,1.51-1.09,2.54-2.71,4-3.91,4.51-3.82,11.36-2.41,16.83-.16s11.23,5.21,17,3.83l5-1.09c2.23,1.48,5.38-.32,6.5-2.75s1-5.23,1.32-7.88c1.26-9.6,9.23-17,11.66-26.41,2.34-9.06-.73-19,2.17-27.86,1.55-4.78,4.75-9,5.91-13.85s.15-10.22,1.18-15.21c1.28-6.16,5.68-11.36,11-14.66s11.59-4.89,17.81-5.74a86.14,86.14,0,0,1,28.56.85c5.54,1.1,12,2.53,16.28-1.19l3-4.44a24.18,24.18,0,0,0-7.33-20.7c-2.17-2-4.78-3.7-6.28-6.26a24.44,24.44,0,0,1-1.76-4.44,44.54,44.54,0,0,0-9.83-16.29,40.57,40.57,0,0,1-4.55-5.09c-1.51-2.25-2.33-4.87-3.59-7.27-1.79-3.39-4.4-6.25-6.8-9.23a89.26,89.26,0,0,1-12.22-20.2l-6-20.36a70.24,70.24,0,0,1,1.5-15.91,3.75,3.75,0,0,1,1.25-2.48,3.48,3.48,0,0,1,2-.44c3.41,0,6.74,1,10.14,1.36,4.4.39,8.81-.47,13.14-1.32a13.49,13.49,0,0,0,4.47-1.45,4.53,4.53,0,0,0,2.35-3.85,5,5,0,0,0-2.72-3.81c-1.4-.83-3-1.3-4.4-2.1-3.22-1.82-5.27-5.14-6.9-8.45-.81-1.66-1.68-3.48-3.37-4.23a12.15,12.15,0,0,0-3.87-.52c-3.24-.3-6.15-2.21-8.42-4.54a80.33,80.33,0,0,1-6-7.71,58.26,58.26,0,0,0-13.05-12.56l-4.57-7.48c-7.65-6.58-17.66-9.7-27.55-11.71-2.92-.59-5.92-1.12-8.5-2.62s-4.69-4.2-4.56-7.17,2.37-5.43,4.73-7.25c4.18-3.25,9.08-5.43,13.5-8.35a20.56,20.56,0,0,0,6.21-5.82,19.83,19.83,0,0,0,2.65-9.28,42.64,42.64,0,0,0-22-39.91,75.62,75.62,0,0,1-7.74-4.16c-2.41-1.66-4.53-4-5.09-6.9-.61-3.07.63-6.22,2.32-8.85s3.84-4.95,5.4-7.65l16.68-10.09c23.28-19.7,40.22-47.83,42.79-78.21s-10.65-62.54-36.1-79.33c-11.65-7.69-25.66-12.33-34.84-22.82-10-11.43-12.31-27.5-18.72-41.26A74.18,74.18,0,0,0,994.83,34c-9.47-1.84-19.26-1.8-28.61-4.14-9.06-2.28-17.41-6.71-26.13-10.07-32.83-12.63-74.54-7.37-96.61,20C827.19,60,824.54,90.23,837.06,113c3.23,5.86,7.06,14,2,18.3-2.22,1.87-5.34,2.08-8.24,2.26A188.18,188.18,0,0,0,769,148.27c-14.27,6.1-29.5,16.62-30.11,32.12-.34,8.84,4.32,17.05,9.44,24.27A158.22,158.22,0,0,0,792,246.27c-21,7.9-44.16,6.9-66.5,9.22s-46.27,9.39-58.94,27.94c-13.74,20.1-12.84,51.36-34.4,62.68-13.76,7.22-33.79,4-42.21,17.07-3.79,5.88-3.76,13.35-3.52,20.34a831.16,831.16,0,0,0,8,89.81c2.2,15.28,5.42,31.66,16.68,42.23,2.39,2.25,5.17,4.27,6.59,7.23,4.79,10-8.21,18.63-18.17,23.48-43.11,21-69.69,71.6-62.54,119l3.43,17.24c3.39.39,6.23,3,7.58,6.14a18.46,18.46,0,0,1,.91,10.05,35.51,35.51,0,0,1-12.72,22c-3,2.46-6.39,4.45-9.2,7.13s-5.07,6.3-4.91,10.18c.08,1.87.72,3.75.33,5.58a11.83,11.83,0,0,1-2.42,4.27A38.46,38.46,0,0,0,514.3,759a16,16,0,0,1-1.65,4.11,18.11,18.11,0,0,1-4.1,3.69A24.21,24.21,0,0,0,503,772.9l-4,7.54a35.54,35.54,0,0,1-12.15,16.95l1.31,17.93c-5.77,23.4-9.46,48.87.12,71,3.21,7.43,8.51,14.71,16.31,16.85,8.24,2.26,16.72-1.76,25.15-3.2a42.47,42.47,0,0,1,36.37,11.47l6.28,6.47c1.68-2.69,5.59-3.19,8.52-2s5.09,3.73,7.15,6.15l7.63,9a12.38,12.38,0,0,1,3.05,5.06c.55,2.42-.4,4.92-1.64,7.07a26.8,26.8,0,0,1-12.75,11.27L582.64,958c.74,6.51,3.41,12.63,6.16,18.58,1.82,3.94,3.72,7.92,4.44,12.2s.14,9-2.58,12.37a5,5,0,0,0-2.6-3.33l-5.39,2.55c-3.24.31-6.26,1.73-9.39,2.63a30.38,30.38,0,0,1-28.41-6.67c-1.59-1.46-3.67-3.23-5.61-2.28-1.23.59-1.74,2-2,3.39-1.35,6.17-.54,12.57-.48,18.89a78.57,78.57,0,0,1-9.19,37.41l8.37,16.57c-3.06,10,1.23,20.8,6.71,29.74s12.34,17.3,15.19,27.39c5.23,18.59-4.23,37.68-10.3,56a163.91,163.91,0,0,0-8.09,59.51c.45,9.12,1.74,18.44,6.11,26.45s12.34,14.55,21.45,15.08c9.83.58,18.77-5.63,28.52-7,14.86-2.14,29.69,7.82,36.37,21.26s6.31,29.48,2.43,44a133.6,133.6,0,0,0-56.67-3.45c-7.42,1.15-16.54,5.2-16,12.68.26,3.32,2.52,6.1,4.84,8.49,13.24,13.64,31.18,21.52,46.66,32.55,12,8.54,23.56,22.77,18.47,36.58-5.88,16-28.53,17.66-39.75,30.48l-3.56,7c-2.7,6.82-4.28,14.42-2.38,21.51,1.13,4.23,3.43,8,5.86,11.69a147.66,147.66,0,0,0,46.6,44.39c4,2.38,8.07,4.59,11.63,7.55.88.74,1.81,1.74,1.59,2.87-.19,1-1.16,1.57-2,2.09-9.53,5.68-16,15.6-19.33,26.17s-3.89,21.81-3.78,32.9l-1.93,13.05-.86,11.6-3.11,9.07c-1.47,4.29-3,8.62-3.4,13.13a36,36,0,0,1-.84,6.82c-1,3.25-3.37,6-3.71,9.43l-4-1.24-1.19,6a105.3,105.3,0,0,0-2.51,17.18c-.19,5.79.6,11.72,3.18,16.9,2.08,4.18,5.23,7.72,8.33,11.21l5.94,3.35,1-5.77a130.85,130.85,0,0,0,19-.87,7.57,7.57,0,0,1,3.48,0c2.54.84,3.3,4,5.14,6l-1,6.29a3.68,3.68,0,0,1-2,2.58,12.61,12.61,0,0,1-3.27,1,54.91,54.91,0,0,0-14.2,5.15l-3.49-2.19-1.18,3.79a5.24,5.24,0,0,1-1,4.62,15.12,15.12,0,0,1-3.64,3.26,1.88,1.88,0,0,1-.93.45,2.41,2.41,0,0,1-1.19-.4,7.54,7.54,0,0,0-6-.08,16.42,16.42,0,0,0-5.1,3.45l-4.16,1.87a82.79,82.79,0,0,0-10.29,8.2l-2.71,5.22.53,5.08a115,115,0,0,0-1.68,28c.34,5.37,1.1,10.84,3.51,15.65,4.94,9.83,15.63,15,24.28,21.84,6.45,5.06,12.58,11.55,20.7,12.66l3.85,1.37c3.17-1.75,7.13-.17,10.73-.66a12.94,12.94,0,0,1,2.24-.28,11.2,11.2,0,0,1,2.12.42c3,.71,6.12.34,9.18,0a89.76,89.76,0,0,0,1.9,8.84c.34,1.24.83,2.63,2,3.11l4.79,5.12a21.24,21.24,0,0,0,7.06.29,7.17,7.17,0,0,0,5.47-4c.45-1.13.58-2.53,1.58-3.22a4.08,4.08,0,0,1,2.42-.45,34.56,34.56,0,0,0,10-1.43l1.22.07a2.1,2.1,0,0,1,2.77.18,11,11,0,0,1,1.77,2.49c.89,1.37,2.13,2.49,3,3.87s1.3,2.87,2,4.26a12.63,12.63,0,0,0,6.82,6l3.86,2.27a67.18,67.18,0,0,0,26.11-1.87c8.42-2.49,16.29-7.26,21.69-14.18,2.49-3.2,4.47-6.84,7.54-9.48a10.91,10.91,0,0,0,2.9-3c1.53-3-.9-7,.92-9.85,1.23-1.92,3.81-2.32,6.08-2.53-1.89-2.12-4.6-3.31-6.82-5.09s-4-4.74-3-7.39l-5.88-.9-13-.91c-8-.56-16.8-.89-23.17,4-2.25,1.73-4.12,4.07-6.75,5.14-2.25.9-4.76.75-7.18.64-11.88-.55-24.42.34-34.46,6.72l-.15-.49c-1.67-3.62-7.19-3.26-10-6.12-1.65-1.72-2-4.26-2.26-6.63-.35-3.64-.56-7.38.53-10.86s3.49-6.84,2.92-10.46l-4.25-8.27a25.43,25.43,0,0,0-8.52-9.09,19.35,19.35,0,0,1-3.86-2.76c-2.58-2.75-2.52-7-2.2-10.74.25-3,.69-6.15,2.79-8.24l6-3.27a17.64,17.64,0,0,1,6,.08l4.41,3a27.25,27.25,0,0,1,16.08,12c1.61,2.66,2.79,5.63,4.93,7.88a15.84,15.84,0,0,0,9.34,4.43c7.25,1,14.77-1.66,20.26-6.49a35.42,35.42,0,0,0,10.68-18.76c.9-3.91,1.64-8.52,5.16-10.44a10.93,10.93,0,0,1,6.11-.82c10.66.88,21,5.49,31.68,4.51,6.46-.6,12.55-3.23,18.89-4.62s13.59-1.31,18.59,2.83l4.88,4.52,7.73,4a20.17,20.17,0,0,1,5.71,3.86c1.43,1.53,2.34,3.46,3.65,5.09,2.12,2.63,5.16,4.36,7.53,6.76a32.13,32.13,0,0,1,6,9.57c3.32,7.31,6.07,15,6.59,23l.14,5.23c-.16,9.42,5,18,10.47,25.72q6,8.52,12.79,16.49c3.54,4.19,7.3,8.36,9.43,13.42,1.92,4.58,2.4,9.6,3.23,14.49,2.76,16.24,9.55,31.5,13.72,47.43a151.84,151.84,0,0,1,4.12,22.59l2.51,4.6c6.58,38.11,22.86,73.89,31.23,111.64l1.75,5.29a31.76,31.76,0,0,0,3.74,7.2,10.64,10.64,0,0,0,6.64,4.33,2,2,0,0,1,.94.28,1.81,1.81,0,0,1,.52,1.27,68.32,68.32,0,0,1,0,15.06l1.09,14.92c-.77,4.29.55,8.71,2.48,12.62s4.48,7.49,6.4,11.4c6.37,12.92,5.52,27.06,4.52,41.43l1.29,1.08a1,1,0,0,0,.2.78c.24.25.63.2,1,.18,2.51-.15,4.58,1.81,6.66,3.22,4.23,2.85,9.53,3.73,13.82,6.49,3.18,2.05,6,5.2,9.83,5.32a65.19,65.19,0,0,0,0-10c-.31-4.26-.83-9,1.79-12.37.7-.89,1.58-1.62,2.28-2.5a13.34,13.34,0,0,0,2.41-7.47,70.14,70.14,0,0,1,.55-7.95l.53-6.78c3.3-18.38,13.69-34.76,25.75-49s26-26.86,38.06-41.08c4.27-5,8.36-10.32,11-16.37,2.37-5.49,3.54-11.61,7.1-16.42,4.43-6,11.78-8.93,18.74-11.59l10.74-10.8a9,9,0,0,0,4.94-2.84c1.36-1.37,2.53-2.93,4-4.22,2.63-2.33,6-3.59,9.33-4.8a43.28,43.28,0,0,1,9.21-2.6,31.59,31.59,0,0,0,5.16-.73c1.43-.44,2.83-1.24,4.32-1.1,1.84.17,3.21,1.68,4.66,2.82a13.47,13.47,0,0,0,6.33,2.76l7.48.4c8.89-5.22,17.94-10.51,28-12.9s21.34-1.53,29.52,4.74a52.08,52.08,0,0,1,6.69,6.51l33.2,36.46c4.19,4.6,8.42,9.26,11.35,14.75,4.43,8.32,5.57,18,6.07,27.37q.6,11.21.15,22.42l-.38,7.82a66.16,66.16,0,0,0,2,22.33,10.84,10.84,0,0,1,.58,5.05,10.07,10.07,0,0,1-1.53,3.12,20.87,20.87,0,0,1-3.09,4,10.55,10.55,0,0,1-8.51,2.72l-2.49,1.91c.43,1.85-.6,3.74-1.88,5.14s-2.84,2.56-3.89,4.15c-1.24,1.88-1.62,4.19-2.51,6.27-2,4.61-6.33,7.82-11,9.67l-4.19,1.9a72,72,0,0,0-12.94,28c-1.35,6.2-1.76,13.12,1.69,18.44a10,10,0,0,0,3.55,3.43c2.85,1.5,6.46,1,9.22-.68a19.85,19.85,0,0,0,6.43-7.09c1.65-2.77,3-5.72,4.78-8.4,6.36-9.56,17.52-14.7,28.45-18.2,4.79-1.53,9.69-2.85,14.12-5.22s8.45-5.93,10.2-10.64l-1.26-3.62a6.55,6.55,0,0,0,1.2-5.37,19.66,19.66,0,0,0-2-5.29l4.75-4.23a3.15,3.15,0,0,1,1.31-.83,2.91,2.91,0,0,1,1.14,0c3.62.43,7.38,1.32,10.85.2,4.57-1.48,7.42-6.06,8.91-10.62s2-9.44,4-13.82l2.68-4.63c12.37-18.33,13.31-41.82,13.44-63.93.1-16.5-.06-33.22-4.42-49.13a95.22,95.22,0,0,0-124.53-64.26l-7.53-6.88c-1.34-2.5-1.31-5.49-1.19-8.32.67-16.54,2.76-33.95-4.26-48.95,7.37-4,16.73-4,23.27-9.26,3.38-2.72,5.62-6.59,7.7-10.4,2.33-4.26,4.59-8.67,5.38-13.45s0-9.79-.92-14.6c-1.82-9.22-4.57-18.72-11.09-25.48a19.09,19.09,0,0,0-7.35-5,20.28,20.28,0,0,0-8.24-.8,34.44,34.44,0,0,0-13.67,4.07c-1.55.85-3.12,1.84-4.89,1.87a9.5,9.5,0,0,1-4.48-1.51l-11.28-6.05-6.21.93c-.92-1.11-2.82-.82-3.84.2a7.86,7.86,0,0,0-1.72,3.91,167,167,0,0,0-3.55,18.25c-.33,2.78-.52,5.57-1,8.33-.78,4.92-2.32,9.7-3.13,14.62-.61,3.74-.8,7.53-1.15,11.3-1.35,14.31-5.16,28.29-6.9,42.56a29.21,29.21,0,0,0,0,10c.73,3.2,2.45,6.34,1.86,9.57l1.86,6.83c1.07,7.39-1.23,14.85-1.2,22.32l-1.92,5.45a13.85,13.85,0,0,1-5.53,7.27,39.11,39.11,0,0,1-8.31,4.15q-11.73,4.71-23.65,8.87l-2.28-2.7q4.2-32.21,5.24-64.71l1-10.57c1.58-2.56,4.84-3.48,7.1-5.46,3.63-3.17,4.22-8.49,4.71-13.29,1.31-12.73,3.72-25.32,6.13-37.9l3.07-16c.46-2.41.92-4.82,1.18-7.26.39-3.65.33-7.41,1.49-10.9.41-1.19,1-2.34,1.29-3.55a23,23,0,0,0,.61-4.89l.52-10.49c.17-3.26.33-6.6-.6-9.73-1.66-5.61-6.56-9.86-8-15.53l-7-7.92a73.47,73.47,0,0,0-31.21-3.59,51.58,51.58,0,0,0-16.5-35.72c-5-4.54-10.74-8-16.28-11.83-1.38-.94-2.9-2.23-2.72-3.88a4.74,4.74,0,0,1,1.44-2.48l11.87-13.21c3.63-4,7.34-8.2,9.3-13.27s2-10.78,1.88-16.28c-.19-8.14-.89-16.84-5.93-23.23-5.62-7.13-15.36-9.62-24.44-9.89a70.71,70.71,0,0,0-55.22,24.69c-4.27,5.06-7.79,10.69-11.5,16.17a5.31,5.31,0,0,1-2.45,2.31c-1.34.47-2.8-.19-4-.86-10.19-5.47-19.06-13.06-28.84-19.24s-21-11-32.56-10a17.67,17.67,0,0,0-8.32,2.58c-4.24,2.84-6.19,8.06-7.14,13.07a52.54,52.54,0,0,0,3.39,30.5l6.39,7.65,19.24,31.22c5,8.07,10,16.22,13.31,25.1a92.11,92.11,0,0,1,4.47,17.31c1.06,6.48,1.56,13.36-1,19.4-4.16,9.75-15.29,14.73-25.83,15.87s-21.2-.63-31.78.08l-6.86-4.91c-2.33-5.08-2.17-10.93-1.66-16.5s1.34-11.23.19-16.71l.94-7.81-.31-42.26c0-5.74-.08-11.48-.32-17.22-1.35-33.57-9.14-66.61-10.82-100.17l.47-6.63c-.87-5-1.7-10.3.42-14.88,3.45-7.49,12.92-9.62,21.1-10.69,45.24-5.9,92.4-7.79,133.14-28.35,19.65-9.92,37.55-24.08,58.94-29.27l4.93.1,5.75-.72,2.65-2.42.25-3.13.74-4.3c10.66.17,19.7,7.45,27.81,14.36,1-2.56-.63-5.32-2.21-7.56a238.32,238.32,0,0,0-27-31.88l-3.44-5.61Q1124,1463,1121,1452.32l-3.19-5.24a7.81,7.81,0,0,0,9.08-4.35,1.4,1.4,0,0,1,.45-.7,1.33,1.33,0,0,1,1.1,0l7.53,2.63a17.21,17.21,0,0,1,3.38,1.47,19,19,0,0,1,3.19,2.83,73.05,73.05,0,0,0,8.11,7.11l4.36,4.61a79.42,79.42,0,0,1,15.18,3.18l4-4.43,9.69,4a22.14,22.14,0,0,0,6.59,2c2.32.2,4.65-.32,7-.3a12.71,12.71,0,0,1,9,3.64c4.26,4.42,4,11.38,3.43,17.5l5.69,2.48c6.06,4.38,13.28,6.86,19.68,10.72,15.24,9.21,24.7,25.46,32.41,41.51l12.14,9,3,7.81c2.53,6.69,5.1,13.65,4.51,20.78a2,2,0,0,1-.73,1.63l5.6,8.1a41,41,0,0,1,10.27,17.4c1.22,4.23,2.22,9.28,6.21,11.16a10.32,10.32,0,0,0,4.55.79c2.87,0,6-.71,7.79-3a11.92,11.92,0,0,0,2-5,184.86,184.86,0,0,0,3.79-52.82l-2.54-7.14c-9.6-12-13.59-27.4-19.4-41.63a162.36,162.36,0,0,0-33.83-51.73,25.68,25.68,0,0,1-3.89-4.64,34.14,34.14,0,0,1-1.8-3.88,39.3,39.3,0,0,0-4.14-7.34l-6.76-10.76c-11.75-7.92-24.46-15.42-38.57-16.76-3.61-.34-7.32-.28-10.77-1.4-2.07-.68-4-1.77-6.16-2.17-2.44-.46-5,0-7.44-.45a19.12,19.12,0,0,1-4.24-1.56l-12-5.52-2.64-3.9c-1.74-2.51-1.88-5.76-2-8.82q-.58-23-1.16-46c-.38-15.13-.91-30.87-7.92-44.28a50.22,50.22,0,0,0-25-22.9l-7.67,2.58c.2,4.13-1.7,7.64-3.58,11.32-3.42,6.68-3.57,14.5-3.59,22q-.09,32.57,1.12,65.1l-.87.6c-1.19-.76-4.53-1.28-5.92-1.55l-1.55-.52-1.23-49.31c-.24-9.66-.48-19.33.17-29,.71-10.53,2.48-21.23.11-31.51l-1.46-9.16c-1.91-6.24-6-10.9-10-16-5.72-7.27-9.53-15.82-14.49-23.63a95.25,95.25,0,0,0-55.32-40.57c-2.87-.77-5.77-1.4-8.64-2.16-1.61-.43-3.44-1.11-4-2.7a3.6,3.6,0,0,1,1.7-3.87,12.7,12.7,0,0,1,4.27-1.49c14.07-3.38,25.1-14,35.4-24.14l7.24-2.85,11.59-7.51a18.28,18.28,0,0,0,5.11-4.29c2.44-3.37,2.29-8,.91-12s-3.8-7.37-5.74-11c-.85-1.62-1.59-3.68-.53-5.17a5,5,0,0,1,2.64-1.59c4.34-1.43,9-2.23,12.7-5s5.68-8.44,2.74-11.94l-4-10.51a15.73,15.73,0,0,1-.35-10.88,64.15,64.15,0,0,1,2.91-6.24,31.47,31.47,0,0,0-3.24-31.43,24.38,24.38,0,0,1-3.11-4.61,15.83,15.83,0,0,1-1-5.93c-.23-9.36.91-19.23-3.19-27.66a72.61,72.61,0,0,0-4.88-7.8,71.76,71.76,0,0,1-9-19.57c-2.65-9.24-3.66-19.45-9.79-26.84-1.44-1.74-3.17-3.31-4.13-5.36a8.77,8.77,0,0,1,1.16-9.15l1.65-5.1c.43-6.52,6.68-11.46,13.11-12.6,3.08-.54,6.27-.44,9.26-1.35a14.43,14.43,0,0,0,9.94-13.17l-3.26-18.84c-1.9-2.6-3.87-5.37-4.21-8.58a35.5,35.5,0,0,1,.14-4.94c.25-7.5-3.95-14.57-9.48-19.64a5.05,5.05,0,0,1-1.58-2c-.41-1.24.24-2.55.66-3.78a11.24,11.24,0,0,0-1.89-10.5l-4.12-1.89c-2.17-3.81-6.7-5.41-10.61-7.38a41.44,41.44,0,0,1-11.64-8.7l-3.87-12.09-.65-5.31a4.42,4.42,0,0,0-.68-2.23,4.64,4.64,0,0,0-1.74-1.2,49.14,49.14,0,0,1-15.82-12.52c-2.88-3.46-5.29-7.32-8.55-10.43s-7.66-5.44-12.12-4.83l-3.21-10.14a43.73,43.73,0,0,1-6.76-8.9l-6-5.75c-2.42-3.65-3.15-9.08-7.29-10.52-3-1-6.17.7-9.28,1.34s-6.47.13-9.71,0l-13.19-1.83c-5.78-3.27-14,.65-19.3-3.29a10.7,10.7,0,0,1-3.66-5.77c-.87-3.12-.72-6.71,1.21-9.31,2.87-3.88,8.41-4.32,13.23-4.41l18.79-.36Z"></path>
    <path data-name="2a" data-official="" data-plain="Pistil" data-loc="" d="M188.93,2878.48c9.34-47.22-5.11-95.79-3.79-143.9.54-19.51,3.67-39.12.83-58.43-1.95-13.18-6-28.67,3.24-38.28,3.53-3.67,8.44-5.65,13.33-7,12.42-3.52,27.51-3.07,36.11,6.55,9.46,10.57,6.89,27.29.76,40.08s-15.3,24.43-18,38.36c-1.95,10.12-.28,20.56,1.62,30.69,8.1,43.13,20.41,86.31,17.16,130.07-.37,5-.89,10.22,1.23,14.73,1.78,3.79,5.19,6.51,8.17,9.45,19.3,19,21.2,53,4.15,74.07-2.38,3-5.23,6.07-5.13,9.86.06,2.12,1.06,4.08,1.79,6.08,5.07,13.92-4.11,29.9-17.08,37.08s-28.53,7.55-43.32,6.77c-10.27-.54-22.34-2.75-26.69-12.07-5.45-11.67,5.29-24.14,7.89-36.76-8.94-4.38-14.81-13.63-17-23.35s-1-19.88,1.25-29.57c1.82-7.86,4.53-15.86,10.23-21.56,8.08-8.11,22.37-12.54,22.95-24Z"></path>
    <path data-name="2b" data-official="" data-plain="Stamens" data-loc="" d="M299.78,2909c25.29-35.1,27.05-81.44,26.65-124.7-.11-12.82-.34-25.72-2.72-38.31-2.21-11.66-6.23-22.94-7.88-34.68a87.2,87.2,0,0,1,1.3-31.14c2.19-9.66,6.74-19.72,15.64-24.06,8.71-4.25,19.69-1.66,27.1,4.59s11.7,15.52,14,24.93c2.84,11.48,3.09,23.41,3.19,35.24.5,54.52-1.45,110.49,16.82,161.87,4.26,12,9.62,23.69,11.79,36.22s.69,26.43-7.46,36.19c-2.56,3.07-5.75,5.71-7.58,9.26-6.71,13,7.9,27.63,6.91,42.23-.59,8.81-7.05,16.39-14.82,20.59s-16.71,5.54-25.49,6.48a333.09,333.09,0,0,1-36.7,1.85c-4.57,0-9.49-.26-13.13-3-7-5.31-5.29-16.36-1.22-24.15s10-15.49,9.19-24.24c-.73-8.31-7.24-14.73-11.72-21.76a48.77,48.77,0,0,1-5.88-38.21Z"></path>
    <path data-name="2c" data-official="" data-plain="Section of Ovary" data-loc="" d="M481.12,2867.18c19.33-34,39.17-69.67,40.78-108.75.6-14.4-1.33-28.89.26-43.22.48-4.33,1.36-8.81,4-12.24,3.45-4.41,9.19-6.26,14.64-7.49,9.52-2.16,19.76-3.09,28.81.54,13.48,5.42,21.35,19.9,23.85,34.21s.72,29,.79,43.49a170.8,170.8,0,0,0,15.47,70.12c8.68,19,20.91,36.5,26.29,56.65s1.81,44.88-15.52,56.5c-9.39,6.3-22.24,8.51-28.16,18.15-7.83,12.75,1.22,31.13-7.09,43.57-4.12,6.16-11.52,9.17-18.63,11.25a136.7,136.7,0,0,1-28.59,5.14c-6.33.46-12.86.45-18.84-1.69s-11.4-6.74-13-12.88c-3.19-11.9,8.24-23.45,7.07-35.72-1.21-12.61-14.4-19.75-23.95-28.07-20.68-18-26.85-50.66-14.19-75Z"></path>
    <path data-name="3" data-official="Siphocampylos bicolor" data-plain="Two-coloured Siphocampylos" data-loc="Georgia" d="M930.66,2357.25a96.08,96.08,0,0,1-1.54,12.64q-2.21,13.11-4.4,26.23l-4,12.21c-4.27,18.17-19.67,32.22-23.66,50.45-3.95,18,3.84,37.88-3.37,54.89-3.36,7.92-9.66,14.26-13.53,22-7.3,14.48-5.25,32-10.6,47.29-6.61,18.94-25.31,33-45.34,34.14-3.25.18-6.66,0-9.5-1.6-5.28-3-6.82-9.83-7.3-15.89-1.86-23.73,4.41-47.35,12.37-69.78s17.7-44.33,23.2-67.49c1.54-6.48,2.74-13.05,4.47-19.49a198.39,198.39,0,0,1,9.28-25.73,498.57,498.57,0,0,1,51.51-92.54l2.64-6.17c1.65-2.73,3.4-5.55,6.1-7.24s6.66-1.86,8.79.51c1.48,1.65,1.74,4,1.93,6.22l2.45,28.17A95.67,95.67,0,0,1,930.66,2357.25Zm17.66-29.82c-.52,4.93-3.47,9.31-7,12.82l-5.08,1.08a227.29,227.29,0,0,0-4.77-40.86c4.56.37,7.67,4.63,10.15,8.48C945.25,2314.57,949,2320.78,948.32,2327.43Zm36.34-61.35-1.14,3.11c-.52,2.59-1.52,5-2.23,7.59l-6.86,8.39a177.79,177.79,0,0,0-18.6,24.68c-1.08.2-2-.69-2.74-1.5l-16.64-18.43-.48-3.85c9.17-9.18,16.84-19.71,24.48-30.2q1.95-2.7,3.92-5.38c4.74-6.53,9.6-13.29,11.43-21.15l3.94-4.42a31,31,0,0,1,4.76,12.57,92.32,92.32,0,0,1,1,13.51C985.59,2256,985.7,2261.14,984.66,2266.08Zm111.26-115.7c-1.18,1.48-3.1,2.64-4.93,2.12-2-.56-3-2.76-3.46-4.77a27,27,0,0,1-.72-8c-4.59,5.34-3.26,14.63,2.65,18.48l-3.68,8.76a311.46,311.46,0,0,1-46,43.82,58.27,58.27,0,0,0-7.71,6.64c-1.7,1.87-3.35,4.11-5.82,4.59s-4.66-.85-6.52-2.35-3.6-3.28-5.86-4l-2.19-1.74a65.19,65.19,0,0,0,0-10c-.31-4.26-.83-9,1.79-12.37.7-.89,1.58-1.62,2.28-2.5a13.34,13.34,0,0,0,2.41-7.47l5-4.69q30.58-32.09,59.74-65.5l4.25-2.89c2.37-.5,4.72,1.33,5.73,3.54s1,4.71,1.2,7.13a84.55,84.55,0,0,0,2.62,14.36C1098.14,2139.18,1099.56,2145.8,1095.92,2150.38Zm62.22-86.67c-1.78,3.2-3.7,6.33-5.16,9.69-1.82,4.16-2.92,8.65-5.27,12.53a44.54,44.54,0,0,1-7.48,8.64l-6.62,6.42-3.89-2.53c-.6-3.22-1.19-6.44-1.79-9.66-.36-1.94-.87-4.11-2.54-5.15a5.16,5.16,0,0,1-1.54-1,3.87,3.87,0,0,1-.53-1.33,6.37,6.37,0,0,0-4.65-4.29c-1.13-.24-2.43-.23-3.23-1.06a3.59,3.59,0,0,1-.78-1.7,22.13,22.13,0,0,1-.54-7.86l1.35-6.31c6.67-10,13.53-20.43,15-32.34l.16-6.16a9,9,0,0,0,4.94-2.84c1.36-1.37,2.53-2.93,4-4.22,2.63-2.33,6-3.59,9.33-4.8a43.28,43.28,0,0,1,9.21-2.6,31.59,31.59,0,0,0,5.16-.73c1.44-.44,2.83-1.24,4.32-1.1,1.84.17,3.21,1.68,4.66,2.82l.46,7.65A119.47,119.47,0,0,1,1158.14,2063.71Zm496.36,148.14c-2.39,10.44-5.82,21.27-13.75,28.48s-21.63,9-29,1.22c-6.93-7.39-5.3-19-6.28-29.05-2-20.57-16.2-37.6-29.77-53.2-9.92-11.41-19.85-22.83-30.66-33.41-5.12-5-10.57-9.91-17.15-12.75-9.4-4-21.49-4.28-27.29-12.7l-6.92-6.64c-11.49-16-23-32.11-36.88-46.15s-29.91-26-45.09-38.67c-22-18.43-42.27-38.77-62.53-59.07-15.09-15.12-30.25-30.33-42.77-47.63a203.45,203.45,0,0,1-30.64-63c-3-10.35-5.19-21.13-10.72-30.38s-15.36-16.87-26.11-16.15c-12.79.85-22.7,12.81-35.46,13.94l-2.65,8.32c-.92-1.11-2.82-.82-3.84.2a7.86,7.86,0,0,0-1.72,3.91,167,167,0,0,0-3.55,18.25c-.33,2.78-.52,5.57-1,8.33-.78,4.92-2.32,9.7-3.13,14.62-.61,3.74-.8,7.53-1.15,11.3-1.35,14.31-5.16,28.29-6.9,42.56a29.21,29.21,0,0,0,0,10c.73,3.2,2.45,6.34,1.86,9.57l1.86,6.83c1.07,7.39-1.23,14.85-1.2,22.32l-1.92,5.45a13.85,13.85,0,0,1-5.53,7.27,39.11,39.11,0,0,1-8.31,4.15q-11.73,4.71-23.65,8.87l-2.28-2.7q4.2-32.21,5.24-64.71l1-10.57c1.58-2.56,4.84-3.48,7.1-5.46,3.63-3.17,4.22-8.49,4.71-13.29,1.31-12.73,3.72-25.32,6.13-37.9q1.53-8,3.07-16c.46-2.41.92-4.82,1.18-7.26.39-3.65.33-7.41,1.49-10.9.41-1.19,1-2.34,1.28-3.55a22.35,22.35,0,0,0,.62-4.89c.17-3.5.35-7,.52-10.49.17-3.26.33-6.6-.6-9.73-1.66-5.61-6.56-9.86-8-15.53l-.78-15.8q4.5-78.81,6.44-157.75c0-2.08.08-4.27-.87-6.12-1.13-2.2-3.4-3.52-5.42-5a36.22,36.22,0,0,1-14.19-20.56c-1.93-7.61-1.34-15.65-2.91-23.33a42.45,42.45,0,0,0-16.56-25.65l-1.33-7.28,2.65-2.42.25-3.13.74-4.3c10.66.17,19.7,7.45,27.81,14.36,1-2.56-.63-5.32-2.21-7.56a238.32,238.32,0,0,0-27-31.88l-3.44-5.61Q1124,1463,1121,1452.32l-3.19-5.24a7.81,7.81,0,0,0,9.08-4.35,1.4,1.4,0,0,1,.45-.7,1.33,1.33,0,0,1,1.1,0l7.53,2.63a17.21,17.21,0,0,1,3.38,1.47,19,19,0,0,1,3.19,2.83,73.05,73.05,0,0,0,8.11,7.11l4.36,4.61a79.42,79.42,0,0,1,15.18,3.18l4-4.43,9.69,4a22.14,22.14,0,0,0,6.59,2c2.32.2,4.65-.32,7-.3a12.71,12.71,0,0,1,9,3.64c4.26,4.42,4,11.38,3.43,17.5l5.69,2.48c6.06,4.38,13.28,6.86,19.68,10.72,15.24,9.21,24.7,25.46,32.41,41.51l12.14,9c1,2.61,2,5.21,3,7.81,2.53,6.69,5.1,13.65,4.51,20.78a2,2,0,0,1-.73,1.63l-4,18.9a572.93,572.93,0,0,1-17.09,95.4c37.78-3.6,76-7.2,113.57-2.18,12.52,1.67,25.15,4.38,36.14,10.61,9.49,5.38,17.36,13.14,25.1,20.82l108.88,107.87.34,15c39,51.19,61,113,81.34,174.1,15.24,45.83,30,92.83,29.57,141.12A233.72,233.72,0,0,1,1654.5,2211.85Zm142-1478.28c-20.32,15-48.27,2.12-72.25-5.7a166.39,166.39,0,0,0-94-2.5,239.39,239.39,0,0,1,44.22,91c2.23,9.15,4.06,18.76,9.68,26.32,16.69,22.43,52.73,13.09,77.95,25.15,24.27,11.61,34.25,41.24,35.39,68.12,1.19,27.83-4.36,55.45-9.88,82.75-6.26,30.93-14.86,65.34-41.78,81.79-34.79,21.25-78.85,1.23-116.48-14.45a510.59,510.59,0,0,0-96.95-29.53c-22.54-4.48-50.4-5.44-63.61,13.36-6.47,9.21-7.59,21.32-5.62,32.4a67.09,67.09,0,0,0,36.49,48c10.86,5.19,22.92,7.31,34.22,11.5,33.61,12.46,59.08,44.57,63.56,80.13s-12.22,73-41.69,93.4l-14.83,8.38c28.84,18,37.11,56,58.94,82.08,12.82,15.31,30,26.14,46.29,37.72,20.77,14.8,40.36,31.18,59.93,47.53l39.7,33.19c4.58,3.82,9.3,7.84,11.75,13.28s2.31,11.61,2.14,17.56c-.48,16-1.13,32.32-7.34,47s-19.28,27.6-35.19,28.91c-10.7.88-21.05-3.43-31.24-6.81-84.3-28-179.62,5.34-264.07-22.17-34.18-11.14-64.9-32-89.21-58.5l-5.92-6.57-2.54-7.14c-9.6-12-13.59-27.4-19.4-41.63a162.36,162.36,0,0,0-33.83-51.73,25.68,25.68,0,0,1-3.89-4.64,34.14,34.14,0,0,1-1.8-3.88,39.3,39.3,0,0,0-4.14-7.34l-6.76-10.76c-11.75-7.92-24.46-15.42-38.57-16.76-3.61-.34-7.32-.28-10.77-1.4-2.07-.68-4-1.77-6.16-2.17-2.44-.46-5,0-7.44-.45a19.12,19.12,0,0,1-4.24-1.56l-12-5.52-2.64-3.9c-1.74-2.51-1.88-5.76-2-8.82q-.58-23-1.16-46c-.38-15.13-.91-30.87-7.92-44.28a50.22,50.22,0,0,0-25-22.9l-7.67,2.58c.2,4.13-1.7,7.64-3.58,11.32-3.42,6.68-3.57,14.5-3.59,22q-.09,32.57,1.12,65.1l-.87.6c-1.19-.76-4.53-1.28-5.92-1.55l-1.55-.52-1.23-49.31c-.24-9.66-.48-19.33.17-29,.71-10.53,2.48-21.23.11-31.51l-1.46-9.16c-1.91-6.24-6-10.9-10-16l5.24-5.15a428,428,0,0,1,24-94c.52-1.38,1-2.9.52-4.27s-1.83-2.09-3-2.79a78.54,78.54,0,0,1-31.92-35.13l-2-6.65c3.65-2.76,5.68-8.44,2.74-11.94l-4-10.51a15.73,15.73,0,0,1-.35-10.88,64.15,64.15,0,0,1,2.91-6.24,31.47,31.47,0,0,0-3.24-31.43,24.38,24.38,0,0,1-3.11-4.61,15.83,15.83,0,0,1-1-5.93c-.23-9.36.91-19.23-3.19-27.66a72.61,72.61,0,0,0-4.88-7.8,71.76,71.76,0,0,1-9-19.57c-2.65-9.24-3.66-19.45-9.79-26.84-1.44-1.74-3.17-3.31-4.13-5.36a8.77,8.77,0,0,1,1.16-9.15l1.65-5.1c.43-6.52,6.68-11.46,13.11-12.6,3.08-.54,6.27-.44,9.26-1.35a14.43,14.43,0,0,0,9.94-13.17l-3.26-18.84c-1.9-2.61-3.87-5.37-4.21-8.58a35.5,35.5,0,0,1,.14-4.94c.25-7.5-3.95-14.57-9.48-19.64a5.05,5.05,0,0,1-1.58-2c-.41-1.24.24-2.55.66-3.78a11.24,11.24,0,0,0-1.89-10.5l-4.12-1.89c-2.17-3.81-6.7-5.41-10.61-7.38a41.44,41.44,0,0,1-11.64-8.7l-3.87-12.09c-.22-1.77-.43-3.54-.65-5.31a4.42,4.42,0,0,0-.68-2.23,4.64,4.64,0,0,0-1.74-1.2,49.14,49.14,0,0,1-15.82-12.52c-2.88-3.46-5.29-7.32-8.55-10.43s-7.66-5.44-12.12-4.83l-3.21-10.14a43.73,43.73,0,0,1-6.76-8.9l-6-5.75c-2.42-3.65-3.15-9.08-7.29-10.52-3-1-6.17.7-9.28,1.34s-6.47.13-9.71,0l-13.19-1.83c-5.78-3.27-14,.65-19.3-3.29a10.7,10.7,0,0,1-3.66-5.77c-.87-3.12-.72-6.71,1.21-9.31,2.87-3.88,8.41-4.32,13.23-4.41l18.79-.36,22.17,8.89c11.31,8.38,26,11.18,37.25,19.7,5.09,3.87,9.3,8.81,14.48,12.55,4.15,3,10,5.14,14.21,2.14,1.51-1.09,2.54-2.71,4-3.91,4.51-3.82,11.36-2.41,16.83-.15s11.23,5.2,17,3.82l5-1.09c2.23,1.48,5.38-.32,6.5-2.75s1-5.23,1.32-7.88c1.26-9.6,9.23-17,11.66-26.41,2.34-9.06-.73-19,2.17-27.86,1.55-4.78,4.75-9,5.91-13.85s.15-10.22,1.18-15.21c1.28-6.16,5.67-11.36,11-14.66s11.59-4.89,17.81-5.74a86.14,86.14,0,0,1,28.56.85c5.54,1.1,12,2.53,16.28-1.19l3-4.44a24.18,24.18,0,0,0-7.33-20.7c-2.18-2-4.78-3.7-6.28-6.26a24.44,24.44,0,0,1-1.76-4.44,44.54,44.54,0,0,0-9.83-16.29,40.57,40.57,0,0,1-4.55-5.09c-1.51-2.25-2.33-4.87-3.59-7.27-1.79-3.39-4.4-6.25-6.8-9.23a89.26,89.26,0,0,1-12.22-20.2l-6-20.36a70.24,70.24,0,0,1,1.5-15.91,3.75,3.75,0,0,1,1.25-2.48,3.48,3.48,0,0,1,2-.44c3.41,0,6.74,1,10.14,1.36,4.4.39,8.81-.47,13.14-1.32a13.49,13.49,0,0,0,4.47-1.45,4.53,4.53,0,0,0,2.35-3.85,5,5,0,0,0-2.72-3.81c-1.4-.83-3-1.3-4.4-2.1-3.22-1.82-5.27-5.14-6.9-8.45-.81-1.66-1.68-3.48-3.37-4.23a12.19,12.19,0,0,0-3.87-.52c-3.24-.3-6.15-2.21-8.42-4.54a80.33,80.33,0,0,1-6-7.71,58.48,58.48,0,0,0-13.05-12.56l-4.57-7.48,1.45-19.46c-9.09-18.5-5-42.63,9.77-57.06,6.33-6.2,14.5-10.91,18.58-18.78,4.55-8.81,2.89-19.36,2.41-29.27-1.2-24.82,6.89-51.18,26.08-67s50.36-17.51,68,0c19.71,19.58,20.17,57.27,46.15,67.11,4.9,1.86,10.59,2.62,14.07,6.53,4.53,5.08,3.2,12.89,4.7,19.53,3.82,16.86,26.85,23.08,42.33,15.37s24.35-24.25,30.54-40.39c12.42-32.37,21.62-71.56,53.22-85.82,34.59-15.6,73.79,9.28,100,36.69s51.83,60.74,89.24,67.13c22.18,3.79,45.62-2.8,67.13,3.78,33,10.08,49.87,54.38,32,83.85-10.91,18-30.52,28.31-47.62,40.53s-33.58,29.89-32.47,50.87c1.69,31.88,39.16,46.22,67.63,60.65A195.19,195.19,0,0,1,1805.9,669C1813.59,691,1815.31,719.73,1796.51,733.57Z"></path>
    <path data-name="3a" data-official="" data-plain="Stamens and Pistil" data-loc="" d="M1151.36,2803.69a233.21,233.21,0,0,1,19-51.25c6.26-12.22,13.76-24.37,15-38,.76-8-.69-16.07-1.6-24.08a180.79,180.79,0,0,1,4.26-64.25c3.23-12.9,8.19-25.91,17.81-35.1s24.83-13.55,36.62-7.39c12.13,6.33,17.1,21.63,16,35.27s-6.89,26.39-11.22,39.37c-8.6,25.83-11.43,53.21-18.56,79.49-5.13,18.92-12.48,37.24-16.45,56.44s-4.32,39.93,4.16,57.61c3.55,7.38,8.58,14.13,10.83,22,2,7.12,1.63,14.7.7,22a155.7,155.7,0,0,1-20.41,59.48c-5.39,9.11-11.78,17.8-15.09,27.86-2.55,7.77-3.22,16.23-7.13,23.42-8.54,15.73-28.93,20-46.79,21.09-14.44.9-31.74-.63-38.92-13.2-6.21-10.88-1.5-24.54,3.63-36s10.69-24.44,5.87-36c-2.21-5.28-6.45-9.72-7.59-15.33-1.46-7.17,2.52-14.32,7.24-19.91s10.4-10.58,13.47-17.22c6.72-14.53-1.09-31.74,1.65-47.52.42-2.46,1.36-5.18,3.64-6.2,1.58-.71,3.39-.41,5.12-.38,10.4.18,18.81-12.15,14.85-21.76Z"></path>
    <path data-name="3b" data-official="" data-plain="Pistil" data-loc="" d="M1281.59,2896.77c1.06-22.67,12.18-43.62,24.62-62.61s26.6-37.15,35-58.22c4.71-11.74,7.54-24.13,10.31-36.47,2.26-10.1,4.5-20.49,3-30.74-1.7-11.52-8-21.77-12.26-32.59-5.73-14.38-7.8-31.44-.12-44.88s27.67-20,39.43-10c5.28,4.53,8,11.32,10.09,18,5.41,17.11,8,35,9.5,52.88,1.93,22.74,2.13,45.92-3.36,68.07-9,36.27-32.39,66.93-50.35,99.7-3.7,6.76-7.25,13.87-7.89,21.55-.87,10.63,3.91,20.79,7.77,30.73,6.4,16.51,10.53,34.14,9.78,51.83s-6.65,35.48-18.4,48.73c-4.32,4.87-9.55,9.18-15.78,11.1-4.18,1.29-8.62,1.44-13,1.58l-21.23.69c-7.14.23-14.45.44-21.2-1.87s-12.92-7.73-14-14.78c-1.36-8.85,5.31-17,6-25.94.57-7.88-3.57-15.23-5.64-22.86-4.56-16.82,1.93-36.09,15.74-46.72Z"></path>
    <path data-name="3c" data-official="" data-plain="Stamens" data-loc="" d="M1385.54,2961.67a59.56,59.56,0,0,0-4.21-29.88c-2.59-6.17-6.32-12.63-4.66-19.11,2.42-9.5,14.24-12.45,24-13.5,17.8-1.92,35.74-3.27,53.6-2,11.47.81,24.71,4,29.34,14.55,2.15,4.89,2,10.46,1.57,15.79a328.08,328.08,0,0,1-10,60.35c-3,11.47-7,23.23-15.3,31.66-10.83,10.94-27.18,14.31-42.57,14.64-4.86.1-9.84-.07-14.33-1.94s-8.39-5.75-9-10.56c-.76-5.7,3-11.84.48-17-1.13-2.3-3.29-3.87-5.13-5.64a25.55,25.55,0,0,1-7.13-23.12Z"></path>
    <path data-name="3d" data-official="" data-plain="Stamen" data-loc="" d="M1500.42,2938.93c.69-8,1.32-16.48-1.91-23.89-2.8-6.43-8.39-11.8-9.13-18.78s3.75-13.5,9.59-17.2,12.86-5,19.71-5.94c12.78-1.74,28.11-1.35,35.56,9.17,8.19,11.56,1.7,27.24-2.81,40.67a128.68,128.68,0,0,0-6.55,46.48,33.71,33.71,0,0,0,1.94,11.16c3.9,9.66,15,15.06,18.47,24.88,3.36,9.56-2,20.49-10.19,26.47s-18.52,8.06-28.55,9.46c-7,1-14.2,1.69-21.1.11s-13.52-5.83-16.27-12.34c-4.87-11.56,3.63-23.88,8.47-35.45a62.71,62.71,0,0,0,3.55-36.69Z"></path>
    <path data-name="3e" data-official="" data-plain="Section of Ovary" data-loc="" d="M1614,3032.65c3.42-9.09-2.1-19.27-9.35-25.73s-16.26-10.77-23.17-17.59c-12-11.87-16.06-29.81-16-46.71.08-17.81,4-36.28-2.19-53-1.14-3.1-2.65-6.28-2.22-9.56.68-5.26,6.34-8.74,11.64-8.73s10.23,2.62,14.73,5.43a6.67,6.67,0,0,0,3.73,1.39c1.5-.08,2.72-1.17,3.79-2.23,15.27-15.16,24-35.52,32.42-55.34,8.82-20.85,17.72-41.93,21.39-64.27,2.14-13,2.47-26.17,3.44-39.29.82-11.2,2.78-23.62,11.64-30.52,4-3.09,8.91-4.67,13.82-5.79,12.65-2.89,26.73-2.88,37.66,4.1,12.82,8.2,18.51,24.18,19.78,39.34,2.25,26.87-6.53,53.26-11,79.85s-3.55,56.7,14.45,76.78c8.57,9.56,20.7,16.46,25.73,28.28,5.48,12.9.79,27.82-5.62,40.29a155.89,155.89,0,0,1-40.7,50c-9.7,7.82-20.76,15-26.14,26.21-2.34,4.89-3.46,10.35-6.28,15-6.44,10.62-19.85,14.37-32.06,16.65-8.79,1.63-18,2.95-26.56.51s-16.45-9.66-16.86-18.59Z"></path>
    <path data-name="4" data-official="Lobelia littoralis" data-plain="Shore Lobelia" data-loc="New Zealand" d="M1844.07,2378a67.1,67.1,0,0,0-22.1-21.95c-24.9-15-56.16-11.5-85.24-11.57-8.8,0-18.56-.83-24.58-7.25-7.94-8.48-5.51-22.42-11-32.64-5.75-10.61-18.75-14.94-30.75-16.2s-24.48-.44-35.74-4.78a42,42,0,0,1-26-33l3.15-9.09c-6.93-7.39-5.3-19-6.28-29.05-2-20.57-16.2-37.6-29.77-53.2-9.92-11.41-19.85-22.83-30.66-33.41-5.12-5-10.57-9.91-17.15-12.75-9.4-4-21.49-4.28-27.29-12.7l-.41,15.17c-14.29,9.2-30.73,14.66-47.43,17.78s-33.73,4-50.72,4.47c-9.7.3-19.56.47-29-2l-12,.23-2.68,4.63c-2,4.38-2.52,9.25-4,13.82s-4.34,9.14-8.91,10.62c-3.47,1.12-7.23.23-10.85-.2a3.12,3.12,0,0,0-1.14,0,3.28,3.28,0,0,0-1.31.84l-4.75,4.23a19.66,19.66,0,0,1,2,5.29,6.55,6.55,0,0,1-1.2,5.37l1.26,3.62c-1.75,4.71-5.76,8.28-10.2,10.64s-9.33,3.69-14.12,5.22c-10.93,3.5-22.09,8.64-28.45,18.2-1.78,2.68-3.13,5.63-4.78,8.4a19.85,19.85,0,0,1-6.43,7.09c-2.76,1.66-6.37,2.18-9.22.68a10,10,0,0,1-3.55-3.43c-3.45-5.32-3-12.24-1.69-18.44a72,72,0,0,1,12.94-28l4.19-1.9c4.65-1.85,9-5.06,11-9.67.89-2.08,1.27-4.39,2.51-6.27,1-1.59,2.62-2.74,3.89-4.15s2.31-3.29,1.88-5.14l2.49-1.91a10.55,10.55,0,0,0,8.51-2.72,20.87,20.87,0,0,0,3.09-4,10.07,10.07,0,0,0,1.53-3.12,10.84,10.84,0,0,0-.58-5.05,66.16,66.16,0,0,1-2-22.33l-6.9-1.82c-28.28,2.9-55.78-8.5-82.64-17.84-5.43-1.89-11-3.71-16.67-4.24-11.88-1.09-23.5,3.46-34.41,8.29-6,2.66-12.55,5.5-19,4l-7.38-5.81-3.89-2.53c-.6-3.22-1.19-6.44-1.79-9.66-.36-1.94-.87-4.11-2.54-5.15a5.16,5.16,0,0,1-1.54-1,3.87,3.87,0,0,1-.53-1.33,6.37,6.37,0,0,0-4.65-4.29c-1.13-.24-2.43-.23-3.23-1.06a3.59,3.59,0,0,1-.78-1.7,22.13,22.13,0,0,1-.54-7.86l1.35-6.31-3-4.25a27.1,27.1,0,0,0-11.34.39l-7.15,4.17c-2.62,6.05-6.71,11.34-11,16.37l-4.57,13.5v14.87l4.46,6.26,4.25-2.89c2.37-.5,4.72,1.33,5.73,3.54s1,4.71,1.2,7.13a84.55,84.55,0,0,0,2.62,14.36c1.42,5.67,2.84,12.29-.8,16.87-1.18,1.48-3.1,2.64-4.93,2.12-2-.56-3-2.76-3.46-4.77a27,27,0,0,1-.72-8c-4.59,5.34-3.26,14.63,2.65,18.48l-3.68,8.76a311.46,311.46,0,0,1-46,43.82,58.27,58.27,0,0,0-7.71,6.64c-1.7,1.87-3.35,4.11-5.82,4.59s-4.66-.85-6.52-2.35-3.6-3.28-5.86-4l-2.19-1.74c-3.78-.12-6.65-3.27-9.83-5.32-4.29-2.76-9.59-3.64-13.82-6.49-2.08-1.41-4.15-3.37-6.66-3.22-.34,0-.73.07-1-.18a1,1,0,0,1-.2-.78l-1.29-1.08c1-14.37,1.85-28.51-4.52-41.43-1.92-3.91-4.47-7.49-6.4-11.4s-3.25-8.33-2.48-12.62l-1.09-14.92a68.32,68.32,0,0,0,0-15.06,1.81,1.81,0,0,0-.52-1.27,2,2,0,0,0-.94-.28,10.64,10.64,0,0,1-6.64-4.33,31.76,31.76,0,0,1-3.74-7.2l-1.75-5.29c-2.62-11.8-6-23.4-9.63-34.94l-5.21,1.1c-24.06,2.27-46.24,18.73-55.4,41.09a49.25,49.25,0,0,0-64.88,10.27c-5.73,7-9.76,15.84-17.5,20.56-8.74,5.32-19.78,4-30,3.12a245.05,245.05,0,0,0-42.83.09l-11.64-2.66q-3,9.06-6.56,18l-3.84,11.5c-1.22,6-4.43,11.39-5.68,17.37-1,4.62-.72,9.4-.46,14.11l3.81,10.38q1.56,15.15,2.71,30.33l.11,12.57c.26,5.81.44,12-2.47,17-1.11,1.92-2.66,3.64-3.25,5.79s-.06,4.66.49,6.94a2.09,2.09,0,0,0,.4.94,2.3,2.3,0,0,0,.91.49,10.61,10.61,0,0,1,6.42,7.09l9.36,14c-5,25.82-9.69,53.92,2.33,77.31l2.69-10.88c19.41-.11,39-.7,57.82-5.44,8-2,15.74-4.74,23.49-7.47l28.3-10a134,134,0,0,0,16.22-6.53c6.17-3.15,11.83-7.25,18-10.29a60.16,60.16,0,0,1,41-4.17l11.36.44c2.71-1.7,6.66-1.86,8.79.51,1.48,1.65,1.74,4,1.93,6.22l2.45,28.17a71.23,71.23,0,0,1-1,23.86q-2.21,13.11-4.4,26.23l-4,12.21c-4.27,18.17-19.67,32.22-23.66,50.45l8,19.88a40.31,40.31,0,0,0,17.61,18.08,70.89,70.89,0,0,0,13.07,4.83q11.4,3.32,23,5.8l10.13,8c2.34-16.3,4.14-32.7,5.93-49.05l.62-2.17c1.64-1.37,4.17-1.62,5.32-3.42a6.17,6.17,0,0,0,.74-2.47,45.22,45.22,0,0,0-3.14-23.83l1.85-4.27c.46-8.54.93-17.1.61-25.65a43.25,43.25,0,0,1,.25-9.45c.43-2.29,1.28-4.48,1.87-6.74a29.7,29.7,0,0,0,0-14.66l1.77-1.64c9.15,5.24,16.51,13,23.73,20.74a27.48,27.48,0,0,1,4.28,5.41c1.8,3.28,2.19,7.15,3.75,10.55l.14,2.95c-.33,3.91-.65,7.92.37,11.71.43,1.58,1.08,3.09,1.56,4.65,1.18,3.87,1.3,8,1.41,12l-.94,5.68-.08,6.14a1.92,1.92,0,0,1-2.25,2.45H1012a1.94,1.94,0,0,0-1.17.25,2,2,0,0,0-.6,1.46c-.42,3.85-.66,8.26,2.06,11,.34.36.76.72.79,1.22a1.65,1.65,0,0,1-.42,1,37.48,37.48,0,0,1-3.65,3.47c-1.19,1.19-2.18,2.8-1.9,4.46l4.46.48a6.17,6.17,0,0,1,2,.43c2.11,1,2.45,3.8,2.5,6.13l6.77,30.93c1.37,13.17,2.29,26.46,2.53,39.75l8.34,5.2c23.17,11.31,51,18.13,74.4,7.21,10.93-5.11,20-13.73,30.94-18.73,20.31-9.24,44.33-4.79,64.93,3.79,14.37,6,29.53,14.07,44.63,10.31,10.56-2.64,19.24-10.81,30-12.65,16.21-2.77,30.68,9.36,45.85,15.72,27.76,11.64,62.86,2.09,80.9-22,1.94-2.6,3.72-5.36,6.12-7.54,3.42-3.11,7.87-4.82,12.32-6,17.58-4.72,37.93-2.82,52.07-14.29,12.92-10.48,17.59-30.13,32.81-36.86l8.88-2.71c27.32,1,51.6-15.75,77-25.87a165.15,165.15,0,0,1,41.54-10.6c23.48-2.83,49.86.53,65.92,17.9,5.93,6.41,10.06,14.34,16.21,20.53a42.8,42.8,0,0,0,71.59-18.75c2.1-7.58,3.26-17.21,10.65-19.9,2.71-1,5.69-.72,8.57-.56,11.72.65,24.37-1.19,33.06-9.09C1856,2417.36,1854,2394,1844.07,2378Zm-895.75-50.61c-.52,4.93-3.47,9.31-7,12.82l-5.08,1.08a227.29,227.29,0,0,0-4.77-40.86c4.56.37,7.67,4.63,10.15,8.48C945.25,2314.57,949,2320.78,948.32,2327.43Zm72.46,49.15c-.15,2.28-.4,4.74-1.94,6.42a3.59,3.59,0,0,1-3.08,1.26,5,5,0,0,1-2-1,31,31,0,0,1-6.48-6.1c-1.51-1.9-3.13-4.16-5.54-4.34a30.37,30.37,0,0,0,0-7.13,3.55,3.55,0,0,0-.63-1.88c-1.12-1.32-3.23-.53-5-.66s-3.29-1.37-4.57-2.65a37.33,37.33,0,0,1-7.39-10.55l-1.95-8.4c-3-8-3-16.7-2.91-25.21l.16-20.87c0-6.29.11-12.67,1.82-18.73l-6.86,8.39a177.79,177.79,0,0,0-18.6,24.68c-1.08.2-2-.69-2.74-1.5l-16.64-18.43-.48-3.85c9.17-9.18,16.84-19.71,24.48-30.2q1.95-2.7,3.92-5.38c4.74-6.53,9.6-13.29,11.43-21.15l3.94-4.42-.9-3.22a33.85,33.85,0,0,1-5.07-9.78l.3-3.7c2.48,1.73,5.67,4.4,8.64,3.82,1.54-.3,3.11-.93,4.64-.57a8.72,8.72,0,0,1,2.34,1.13c5.31,3.18,11.53,4.68,16.65,8.15a50.66,50.66,0,0,1,4.8,3.86,14.93,14.93,0,0,1,2.87,3c3.18,4.93,0,10.27,3.52,14.95.09.12-.14.17-.22.11l.59,4.07a273.54,273.54,0,0,0,2.94,32.08l-.65,5.1.95,53.24C1021.38,2350.32,1021.61,2363.47,1020.78,2376.58ZM476.2,2323c-20.42,4.26-39.84,12.41-58.39,21.94a412.59,412.59,0,0,0-171,165.6c-4.67,8.43-9.11,17.1-15.44,24.36a59.51,59.51,0,0,1-34.39,19.36c-8.56,1.48-18.13.77-24.75-4.84-6.92-5.87-9.05-15.92-7.6-24.87s5.92-17.07,10.4-24.95c12-21.16,24.7-42,37.78-62.5,11.7-18.36,23.86-36.66,39.45-51.85,18.5-18,41.22-31.11,64.21-42.93q27.72-14.26,56.42-26.49l-.6-7.14c7.7-23.82,17.79-47.68,35.5-65.37a96.7,96.7,0,0,1,53.73-27l4.6,2.44a173.94,173.94,0,0,1,22.74-9.16,2.89,2.89,0,0,0,1.36-.72c.8-.89.26-2.29-.31-3.35l-1.61-4.1c-5.76-11.87-14.71-22-20.43-33.87-6.6-13.71-8.62-29.18-8.95-44.39a14.3,14.3,0,0,1,.7-5.83,12.73,12.73,0,0,1,4.78-5.18c12.88-9,29.53-10.65,45.22-9.74,5.42.31,10.94.92,15.88,3.18,4.09,1.87,7.6,4.79,11.28,7.37a79.89,79.89,0,0,0,31.86,13.2l6.69-3.33,7.4,16.69.75,6.49,3.4,6.25a24.07,24.07,0,0,1,1.93,4.19c.28.9.45,1.85.81,2.73a24.7,24.7,0,0,0,2.21,3.55,14.43,14.43,0,0,1,2.2,8l-1.74,5.7c2.88,1.86,5.94,3.93,7.15,7.14.37,1,.55,2,1,3a18.34,18.34,0,0,0,1.7,2.59,15.71,15.71,0,0,1,2.69,10l-2.34,6.21-7,1.51a106.66,106.66,0,0,0-22.08,3.74c-3.76,1.05-7.46,2.31-11.29,3.05-3.54.68-7.16.91-10.73,1.4-8,1.1-15.81,3.47-23.55,5.84L501.08,2229l-3.35-.63a17.14,17.14,0,0,0-5.71-4,7.86,7.86,0,0,0-6.8.31,22.19,22.19,0,0,0-2.11,1.65,16,16,0,0,1-7.11,3.27,34,34,0,0,1-.54,8.42l0,11.12a81.77,81.77,0,0,1,14.79,41.06l3.77,3.33,21.48-2.15a8.55,8.55,0,0,0,2.75-.58c2.68-1.22,3.38-4.62,5-7.06l1.43-4.52a76.06,76.06,0,0,1,5.92-17.91,26.5,26.5,0,0,1,5.83-8.56,32.4,32.4,0,0,1,6.79-4.31c5.11-2.67,10.27-5.36,15.82-7,6.69-1.93,13.72-2.19,20.68-2.36,4.55-.1,9.36-.11,13.26,2.23,1.81,1.09,3.32,2.63,5.2,3.59,3.71,1.9,8.15,1.24,12.26.54l4.95-2a150.43,150.43,0,0,1,6,17.2,64,64,0,0,0,2.3,7.68c1.36,3.32,3.44,6.31,4.74,9.65a22.79,22.79,0,0,1-1.65,19.71l-7.1,11.36-5.38-6.18a165.73,165.73,0,0,1-72.48,12.61c-4.78-.25-9.68-.74-14-2.85-3.79-1.86-7.07-4.94-11.21-5.75a18.88,18.88,0,0,0-5.31-.11,71.16,71.16,0,0,0-25.72,7.29Z"></path>
    <path data-name="5" data-official="Clintonia pulchella" data-plain="Pretty Clintonia" data-loc="Colombia" d="M530.6,2329.39c-.53,28.09-4,56.42-14,82.69s-26.84,50.45-50.29,65.92c-17.83,11.77-38.62,18.07-58.16,26.72s-38.89,20.66-48.94,39.52c-6.41,12.06-8.55,26.07-15.35,37.91s-21.37,21.4-33.79,15.73c-8.61-3.93-12.93-13.67-14.9-22.92-6.39-30,5.56-63.23,29.62-82.32,13-10.29,28.67-16.44,43.86-23.07,21.64-9.45,43.09-20.4,60.07-36.81,11.14-10.77,20.05-23.59,28.71-36.44,13.24-19.64,26.65-42.09,22.67-65.43L476.2,2323l9.44-8.87a71.16,71.16,0,0,1,25.72-7.29,18.88,18.88,0,0,1,5.31.11c4.14.81,7.42,3.89,11.21,5.75ZM501.08,2229l-3.35-.63a17.14,17.14,0,0,0-5.71-4,7.86,7.86,0,0,0-6.8.31,22.19,22.19,0,0,0-2.11,1.65,16,16,0,0,1-7.11,3.27,34,34,0,0,1-.54,8.42l0,11.12a81.77,81.77,0,0,1,14.79,41.06l3.77,3.33,21.48-2.15a8.55,8.55,0,0,0,2.75-.58c2.68-1.22,3.38-4.62,5-7.06l1.43-4.52L522.34,2266l-11-28.17Zm45.71-235.53-.44-8.21c-1.06-6.06-.13-12.42-1.91-18.31a55.06,55.06,0,0,0-3.62-8.13c-3.72-7.57-6.3-15.63-9.07-23.59a507,507,0,0,0-29.84-69l-2.19-5.18.25,1.55a40.15,40.15,0,0,0-7.08-9.13,2.3,2.3,0,0,1-.74-1c-.21-.88.68-1.63,1.51-2s1.8-.78,2.06-1.65-.41-1.82-1-2.58a35.32,35.32,0,0,1-4.26-8.09l-15.09-35.8c-.67-1.6-1.42-3.3-2.89-4.23-1.86-1.18-4.45-.83-6.21-2.16l-9.56-3.49a5.67,5.67,0,0,1-3.57-3.79,12.78,12.78,0,0,1-.3-5.37c.24-2.23.77-4.6,2.39-6.14s4.27-2,6.63-2.09c4.4-.2,9.19.29,12.45,3.25l4.09,3.51c1.83,2.25,1.94,5.41,3,8.13a25.19,25.19,0,0,0,3.62,6l10,13.37a12.38,12.38,0,0,1,2.33,4.19c.28,1.12.28,2.38,1,3.26s2.21,1.13,2.89,2.13c.83,1.2.23,3.06,1.2,4.16a5.8,5.8,0,0,0,1.38.94c2.83,1.77,3.08,5.73,3,9.07,1.75-.74,3.81.2,5.1,1.6a38.23,38.23,0,0,1,3.1,4.77c1.06,1.58,2.6,3,4.5,3.15l9.93,0A46.51,46.51,0,0,0,547.1,1833a113,113,0,0,0,14-14.57c.47-.56,1-1.29.67-2l1.28-4.46a106.92,106.92,0,0,1,.86-25.34c.41-2.7,1-5.55,2.89-7.53a12,12,0,0,1,5-2.85,35.7,35.7,0,0,1,19-1.17l2.71-5.22a82.79,82.79,0,0,1,10.29-8.2l4.16-1.87a16.42,16.42,0,0,1,5.1-3.45,7.54,7.54,0,0,1,6,.08,2.41,2.41,0,0,0,1.19.4,1.88,1.88,0,0,0,.93-.45,15.12,15.12,0,0,0,3.64-3.26,5.24,5.24,0,0,0,1-4.62l1.18-3.79a49,49,0,0,1-4.64-12.17l-5.94-3.35c-3.1-3.49-6.25-7-8.33-11.21-2.58-5.18-3.37-11.11-3.18-16.9a105.3,105.3,0,0,1,2.51-17.18l1.19-6a1009.88,1009.88,0,0,1-35.78-99.43l1.33-7.2L572.44,1561c-.25-1.5-.64-3.21-2-3.94-1-.57-2.43-.38-3.35-1.14a3.91,3.91,0,0,1-1-1.64q-2.29-5.82-4.11-11.8l-2.3-6.67q-6.91-15.64-13.4-31.49l-9.13-5.56c-7.67-7.78-17.23-14.18-28-16s-22.83,1.78-29.28,10.59c-7.54,10.3-6,24.61-2.26,36.82s9.2,24.36,8.44,37.1c-.38,6.39-3.94,14-10.35,14a15.38,15.38,0,0,1-6.13-1.67l-35.81-15.35a6.66,6.66,0,0,1-2.85-1.85c-1.3-1.72-.66-4.18.13-6.19,3-7.74,7.36-14.89,10.7-22.49a95.57,95.57,0,0,0,4-65.58c-2.25-7.44-5.55-14.78-11.16-20.15-7-6.69-16.73-9.61-26.28-11.09-5.72-.9-11.83-1.3-17.06,1.17-9.27,4.39-12.4,15.83-14,26a294.55,294.55,0,0,0-3.36,53,70,70,0,0,0-30.44,6.67c-3.1,1.47-6.49,3.21-9.79,2.27a12,12,0,0,1-5.09-3.61c-5.76-6-10.51-13.35-12.13-21.55-4.27-21.7,13.93-43.39,8.95-64.93a31.34,31.34,0,0,0-52.11-15.65c-7.86,7.48-11.35,18.65-11.73,29.49s2,21.57,4.33,32.17c.43,1.94.84,4,.15,5.87-1.13,3.1-4.69,4.37-7.54,6-10.65,6.17-12.84,23-4.11,31.71,3.59,3.57,8.78,6.19,10,11.12s-2.47,9.89-6.93,12.29-9.63,3-14.52,4.3c-22.55,6.08-38.69,30.2-35.7,53.37.46,3.62,1.41,7.33,3.77,10.11,3.53,4.16,9.33,5.35,14.63,6.64l7.64,1.25a157,157,0,0,0,55.87-6.1c9.41-2.8,18.92-6.73,25.4-14.1,4-4.59,6.71-10.31,11.12-14.54s11.7-6.6,16.58-2.91,4.61,11.33,3.61,17.54q-2.81,17.38-6.56,34.6-15.18-1.14-30.4-1.27c-7,0-14.15.09-20.55,2.86-6.9,3-12.23,8.73-16.7,14.77-8.3,11.2-14.53,24.34-15.37,38.25-.67,11.09,2.11,22.1,5.5,32.69,6.19,19.26,16.75,39.92,36.15,45.65,11.08,3.28,24.39,1.45,32.89,9.27,8.25,7.59,7.89,20.63,13.07,30.57,2.72,5.22,7,9.55,9.42,14.9,3.85,8.41,2.78,18.15,1.64,27.33-1,8.12-3.12,17.73-10.76,20.66-5.92,2.27-12.39-.65-18.66-1.56-20.46-3-38.48,15.61-59.15,16.08-16.45.37-30.74-10.68-43-21.68-6.75-6.07-13.92-13.74-12.9-22.76.61-5.33,4.06-9.9,7.81-13.75,10.16-10.41,23.86-18.25,29.47-31.67,6.9-16.49-3.17-37.87-20.28-43.05-2.32-.7-4.87-1.22-6.54-3s-2-4-2.29-6.28c-2-17.28,2.24-37.83-10.47-49.72-5.47-5.12-13.1-7.3-20.54-8.17-19.88-2.31-42.69,5.72-50.46,24.17-14.11-.39-28.11-2.85-42.22-3.16s-28.8,1.74-40.6,9.49c-20.13,13.22-26.83,43.21-14.26,63.75.91,1.47,1.92,3,1.92,4.73s-1,3.28-2,4.73a80.92,80.92,0,0,0-12.56,51.82c.54,5.37,1.7,10.86,4.78,15.3,4.63,6.68,13,10,21.07,10.63s16.2-.88,24.26-2c1.85-.25,3.85-.44,5.45.52a8,8,0,0,1,2.82,3.79c4.3,9.45,6.6,20.09,13.38,27.94,9,10.42,24.68,13.56,37.83,9.51s23.75-14.35,30.45-26.36l11.67,5.36c14.78,18.72,31.85,36,52.37,48.15s44.79,18.91,68.44,15.79c17.92-2.37,36.32-10.2,53.39-4.25A26.09,26.09,0,0,1,365.2,1957c4.2,5.19,5.62,12,6.51,18.67,5.58,41.52-4.48,84.67,6.21,125.17a209.11,209.11,0,0,0-40-17.68c3.06-10.8,6.11-21.84,5.58-33s-5.23-22.82-14.68-28.88c-8.35-5.36-19-5.62-28.83-4.65a138.43,138.43,0,0,0-50.28,15c-6-8.75-15.82-14.34-26.1-17s-21-2.52-31.64-1.8c-8,.55-16.27,1.57-22.81,6.13-8.33,5.8-12.16,16.3-13.2,26.41-.86,8.32-.1,17,3.4,24.58s10,14.05,18,16.39c-19,6.13-33.87,24.74-33.31,44.65s18.44,38.44,38.33,37.54l6.86,3.15a55.3,55.3,0,0,0,31.2,27.85c6.89,2.41,14.24,3.43,21,6.13,8.16,3.25,15.17,8.78,22.57,13.51a128.92,128.92,0,0,0,80.27,19.55c29.72-2.69,57.4-15.6,84.69-27.68,4.72-2.09,9.53-4.19,14.66-4.78s10.7.51,14.41,4.11l3.42,5.91,4.6,2.44a173.94,173.94,0,0,1,22.74-9.16,2.89,2.89,0,0,0,1.36-.72c.8-.89.26-2.29-.31-3.35l-1.61-4.1c-5.76-11.87-14.71-22-20.43-33.87-6.6-13.71-8.62-29.18-8.95-44.39l-10.14-2.79c-10.74-15.11-14.91-35-9.87-52.89s19.65-33,37.65-37.46c7.07-1.76,14.43-1.93,21.63-3.06a82.23,82.23,0,0,0,39.14-17.56Zm302.18-.74a22.07,22.07,0,0,0-8.11-21.45,36,36,0,0,0-5.05-3.08,30,30,0,0,0-6-2.54,31.53,31.53,0,0,0-8.23-.75,189.94,189.94,0,0,0-21.06,1.22,2.71,2.71,0,0,0-1.4.43,3.2,3.2,0,0,0-.76,1.27,9.78,9.78,0,0,1-6,5.36l-2.74,8.41A115.81,115.81,0,0,0,797,2006c2.54,6,6.39,12.35,12.74,13.61,5.09,1,10.11-1.64,14.63-4.19,7.14-4,14.64-8.45,18.6-15.64Zm29.49-18.51c5.53.76,10.82-2.16,15.7-4.86s10.39-5.37,15.81-4.08l7.15,1.45a151.84,151.84,0,0,0-4.12-22.59c-4.17-15.93-11-31.19-13.72-47.43-.83-4.89-1.31-9.91-3.23-14.49-2.13-5.06-5.89-9.23-9.43-13.42q-6.75-8-12.79-16.49c-5.45-7.68-10.63-16.3-10.47-25.72l-.14-5.23c-.52-8-3.27-15.73-6.59-23a32.13,32.13,0,0,0-6-9.57c-2.37-2.4-5.41-4.13-7.53-6.76-1.31-1.63-2.22-3.56-3.65-5.09a20.17,20.17,0,0,0-5.71-3.86l-7.73-4-4.88-4.52c-5-4.14-12.25-4.22-18.59-2.83s-12.43,4-18.89,4.62c-10.66,1-21-3.63-31.68-4.51a10.93,10.93,0,0,0-6.11.82c-3.52,1.92-4.26,6.53-5.16,10.44a35.42,35.42,0,0,1-10.68,18.76c-5.49,4.83-13,7.52-20.26,6.49a15.84,15.84,0,0,1-9.34-4.43c-2.14-2.25-3.32-5.22-4.93-7.88a27.25,27.25,0,0,0-16.08-12l-4.41-3a17.64,17.64,0,0,0-6-.08l-6,3.27c-2.1,2.09-2.54,5.29-2.79,8.24-.32,3.76-.38,8,2.2,10.74a19.35,19.35,0,0,0,3.86,2.76,25.43,25.43,0,0,1,8.52,9.09l4.25,8.27c.57,3.62-1.83,7-2.92,10.46s-.88,7.22-.53,10.86c.23,2.37.61,4.91,2.26,6.63,2.77,2.86,8.29,2.5,10,6.12l.15.49c10-6.38,22.58-7.27,34.46-6.72,2.42.11,4.93.26,7.18-.64,2.63-1.07,4.5-3.41,6.75-5.14,6.37-4.89,15.17-4.56,23.17-4l13,.91,5.88.9c-1,2.65.76,5.6,3,7.39s4.93,3,6.82,5.09c-2.27.21-4.85.61-6.08,2.53-1.82,2.83.61,6.86-.92,9.85a10.91,10.91,0,0,1-2.9,3c-3.07,2.64-5.05,6.28-7.54,9.48-5.4,6.92-13.27,11.69-21.69,14.18a67.18,67.18,0,0,1-26.11,1.87l-3.86-2.27a12.63,12.63,0,0,1-6.82-6c-.73-1.39-1.19-2.92-2-4.26s-2.11-2.5-3-3.87a11,11,0,0,0-1.77-2.49,2.1,2.1,0,0,0-2.77-.18l-1.22-.07a87.3,87.3,0,0,0,4.39,31.14l1.85,10.78a81.34,81.34,0,0,1,5.85,19.91l1,6.59c.12,4.61.45,9.22,1,13.8.36,3,1,6.39,3.44,8.23,2.6,2,6.22,1.47,9.44.95a77.81,77.81,0,0,1,16.18-1.25c3.49.17,7,.73,10.44.58a57.09,57.09,0,0,0,10.1-1.75,246,246,0,0,1,31.69-5.1l3.31,1.86a86.9,86.9,0,0,1,33.24,1.07,21,21,0,0,1,7.88,3.14,48.29,48.29,0,0,0,4.22,3.37c3.74,2.15,8.52,1,12.63,2.27l5.83,1.44a51.51,51.51,0,0,1,7,8.61ZM961,1744.05l-12,.25a42,42,0,0,0-10.32,1.09,14,14,0,0,0-8.36,5.76,18.35,18.35,0,0,0-1.81,4.42,29.86,29.86,0,0,1-2.55,6.77,8.12,8.12,0,0,1-5.63,4.17l-4.91-2.23-.94,7.81c1.15,5.48.33,11.14-.19,16.71s-.67,11.42,1.66,16.5l6.86,4.91c10.58-.71,21.24,1.06,31.78-.08s21.67-6.12,25.83-15.87c2.58-6,2.08-12.92,1-19.4a92.11,92.11,0,0,0-4.47-17.31,98.52,98.52,0,0,0-6.4-13.5Z"></path>
</svg>
