
<svg xmlns="http://www.w3.org/2000/svg" viewBox="0 0 2053 2882" id="illustration" preserveAspectRatio="xMidYMid meet">
    <title>Gesneraceæ</title>
    <path data-name="1" data-official="Gesnera zebrina" data-plain="" data-loc="South America" d="M794,1951.87a3.73,3.73,0,0,1,1.15-1.87A21.34,21.34,0,0,1,794,1951.87Zm83,156.53-.66-6.3c-2.24-2.24-6-2.21-8.84-.77s-4.89,4-6.84,6.48c-18.89,24.29-34.9,52-60.45,69.13l-6.56,15.21a532.28,532.28,0,0,1,5.22,67.57c.06,4.27,0,8.64-1.32,12.69a40.41,40.41,0,0,1-5.25,9.4c-6.84,10.08-13.55,20.78-15.31,32.83-.85,5.78-.14,12.48,4.43,16.1,6.7,5.3,16.54.78,25,2.07,9.31,1.43,18.09,10.06,26.78,6.44,6.67-2.77,8.6-11,11.24-17.74a48.2,48.2,0,0,1,12.12-17.69c3.63-3.35,7.78-6.15,11-9.89,5.9-6.86,8-16.06,11.22-24.52,3.35-8.88,8-17.22,11.13-26.19,7.44-21.59,5.19-45.32.54-67.68S878.76,2131.17,877,2108.4ZM1298.39,897.63c-1.73,4-4.72,7.33-7.71,10.51-6.37,6.8-13.29,14-15,23.13-.83,4.45-.39,9.3-2.62,13.24s-6.75,6.11-11,8c-11.67,5.18-24,10.48-36.73,9.12-11.42-1.22-21.59-7.7-30.56-14.88s-17.33-15.3-27.44-20.77c-8.4-4.55-17.76-7.12-26.23-11.54-10.2-5.31-18.88-13.17-26.55-21.74a167.54,167.54,0,0,1-35.16-62.26l-1.25-9.06a22.78,22.78,0,0,1,.22-12.31c1-3.25,2.7-6.31,3.17-9.68a21.94,21.94,0,0,0-.07-5.43,60.09,60.09,0,0,0-6.51-21.2c-2.16-4.09-5.54-8.37-10.16-8.4l-5.94-1c-1.78-.68-3.79-.09-5.49.76a26.61,26.61,0,0,1-5.14,2.46,7.84,7.84,0,0,1-5.35-.53l-3.15-3.32c-3-5.59-1.4-12.42-2-18.73-.21-2-.8-4.18-2.5-5.24a10.13,10.13,0,0,1-8.72-2.16c-1.7-1.47-2.89-3.5-4.76-4.75-3.1-2.08-7.41-1.47-10.57.52s-5.4,5.11-7.5,8.2a268.24,268.24,0,0,0-23.38,41.84c-1.82,4.1-3.57,8.39-3.5,12.88L970,816.61c-2.24.38-3.57,2.65-4.58,4.7a302.16,302.16,0,0,0-18.15,46.36l-1.82,33.5c-1.58,12.72-3,26.29,2.6,37.8,4.17,8.51,11.75,14.83,16.92,22.78,13,20,8.77,46.5.41,68.8-10.63,28.34-29.17,56.06-57.54,66.59-2.8,1-5.76,2-7.89,4-1.84,1.8-2.84,4.27-3.8,6.67-12.26,30.9-24.74,63.17-22.1,96.31l.51,22.67c-.42,11.73,4.48,23,5.55,34.7,1.85,20.17-7.81,39.62-19.25,56.34-1.74,2.55-3.59,5.22-3.93,8.3a17.76,17.76,0,0,0,1,6.71q3.9,13.68,9.1,26.95a88,88,0,0,1,62.36-11.17c4.16.82,9.29,1.63,12-1.67,1.35-1.69,1.6-4,1.69-6.15.26-6.72-.47-13.43-1.08-20.12-1.81-20-2.44-40.58,3.71-59.69,3.11-9.63,9.49-19.87,19.55-21l11.27.83c5.1,5.32,10.25,10.68,16.29,14.9s13.13,7.28,20.51,7.41a3.79,3.79,0,0,1,2.49.6,5,5,0,0,1,1,1.56,6.33,6.33,0,0,0,8.56,2.42,19.3,19.3,0,0,1,2.62-1.71c2.34-.94,5.23.59,7.43-.65,1.28-.73,1.93-2.2,3-3.17,2-1.69,4.85-1.49,7.43-1.74a18.4,18.4,0,0,0,11.85-6,13.13,13.13,0,0,0,2.75-4.61c1.27-4,0-8.38,1.15-12.4.69-2.42,2.23-4.66,2.19-7.17,0-1.42-.56-2.82-.43-4.24s1.41-2.91,2.77-2.48a2.75,2.75,0,0,1,1,.72c2.35,2.42,2.47,6.24,1.76,9.54s-2.11,6.46-2.32,9.82l-.32,2.89c-.86,4.63,1.56,9.44,5.2,12.44s8.33,4.42,13,5.19a14.25,14.25,0,0,0,7.11-.18c2.26-.81,4.2-2.94,4.08-5.33,6.24,2.24,12.8,4.51,19.36,3.55a20.57,20.57,0,0,0,12.45-6.84c1.43-1.66,2.68-3.62,4.67-4.52a18,18,0,0,1,4.27-.94,14.37,14.37,0,0,0,10.84-9.79l.88.57c2.85-.77,5.53,1.49,7.67,3.53q4.23,4,8.72,7.79c4.65,3.9,10.07,7.75,16.14,7.44-.13,3.87,3.5,6.66,6.68,8.87a178.24,178.24,0,0,1,22,18c4.71,4.52,9.32,9.57,11.06,15.86l2.2,10.31c1.79,11.81-1.94,23.64-4.35,35.33-4.57,22.18-4.43,45-7.33,67.49s-9.34,45.45-24.68,62.1a71,71,0,0,1-29.1,19l-7.17-5c-2.21-1.12-3.15-3.73-3.82-6.12a128.54,128.54,0,0,1-4.66-39.89.87.87,0,0,1,.87-1,12,12,0,0,0,4-2.1,14.49,14.49,0,0,0-6.17-.65l-.4-.78q-.4-12.69-1.68-25.32a2.58,2.58,0,0,1,.06-1.11,3.14,3.14,0,0,1,1-1.11,7.26,7.26,0,0,0,2.29-7.45l.42-1a2.68,2.68,0,0,0,2.73-1.07c.66-.79,1.06-1.78,1.66-2.63,1.54-2.18,4.3-3.29,5.67-5.58a9.47,9.47,0,0,0,1-5.26,12.53,12.53,0,0,0-.93-4.62,6.21,6.21,0,0,0-3.24-3.29.6.6,0,0,0-.55,0,.62.62,0,0,0-.21.31,32,32,0,0,1-10.06,12.81c0-4-.09-7.92-.13-11.88a32.39,32.39,0,0,0-.67-7.49l-.54-1.14a4.16,4.16,0,0,1,0-1.61,6.07,6.07,0,0,1,1.58-2.18,6.58,6.58,0,0,0,1.43-5.48,7.37,7.37,0,0,1-5.23,3.08,57.3,57.3,0,0,0-3.37-15l.39-.55a7,7,0,0,0,3.84-2c-1.42-.12-2.84-.19-4.26-.22-.9-.77-.46-2.3.35-3.16s1.94-1.46,2.52-2.5c-1.7-.89-3.53,2.15-5.3,1.41a2.84,2.84,0,0,1-1.33-1.91l-2.44-7.23,5.83-3-7.27-.15a1.44,1.44,0,0,1-.74-.14,1.57,1.57,0,0,1-.56-1c-.69-2.46-1.78-5-3.94-6.37l-.34-1,3.19-4.23-4.33,1.51a.84.84,0,0,1-.49.06c-.23-.06-.36-.3-.47-.51a16.14,16.14,0,0,0-5.22-5.94l1.52-2.92a16.18,16.18,0,0,0-3.62,1.44l-4.31-3.89a1.35,1.35,0,0,1-.4-.52,1.4,1.4,0,0,1,.08-.75l1.14-3.49a8.06,8.06,0,0,0-4.23,3,6.51,6.51,0,0,0-4.08-2.82c-.45-.1-1-.19-1.18-.58a1.5,1.5,0,0,1-.1-.76l.18-3.55c-.91,1.08-1.82,2.15-2.74,3.22a21.7,21.7,0,0,0-7-.21,8.52,8.52,0,0,0-1.28-3.28,5.83,5.83,0,0,0-1.54,3.15l-1.36-.27a17,17,0,0,0-13.59,7.83c-2.28,3.65-3.1,8.1-5.58,11.62-3.88,5.51-11.19,7.88-14.92,13.49-2.83,4.25-3.14,9.61-3.94,14.65s-2.54,10.49-6.94,13.06a18.35,18.35,0,0,0,7.77-.3,83.66,83.66,0,0,0-2.68,13.85l-.32,1.77c-4.19,18.37-8.65,37.33-19.95,52.4-2.83,3.78-6.07,7.27-8.61,11.26-5.33,8.36-7.29,18.37-11.28,27.45-2.5,5.7-5.81,11-8.3,16.74s-4.17,12-3.14,18.16,5.24,12,11.26,13.62c3.55.93,7.29.33,10.9-.28,2.57-.43,5.5-1.11,6.71-3.41l.93-.6a43.71,43.71,0,0,0,21.32-15.24,88.2,88.2,0,0,0,4.81-7.44c1.29-2.15,2.58-4.3,3.68-6.56a67.42,67.42,0,0,0,4.16-11.58,163.45,163.45,0,0,0,3.82-17.09l-1.83-.26q1.34-9.51,2.68-19c.54-3.82,1.09-7.66,2-11.41,1-3.94,2.29-7.79,2.89-11.79.9-6,.08-12.21,1.05-18.21.63-3.85,2-7.54,2.79-11.35,1.46-6.82,1.21-13.88.95-20.84l-.74-.87c2.31-.21,4,2.1,5.09,4.13q1.47,2.61,2.93,5.22a44.82,44.82,0,0,0,4.19-19.37,19.34,19.34,0,0,0-.88-6.2c-.78-2.27-2.19-4.26-3.27-6.4a23.85,23.85,0,0,1-2.36-13.63l-1.56.81-.31-.55a34.41,34.41,0,0,1,1.79-10.05c1.26-3.19,3.66-6.09,6.92-7.11a14.11,14.11,0,0,1,5.06-.4,23.39,23.39,0,0,1,6.1,1.13,29.27,29.27,0,0,1,6.1,3.18,107.43,107.43,0,0,1,10.6,7.76l.26.74a7.08,7.08,0,0,1-4.48,2.93,11.08,11.08,0,0,0,5.75-1.09,12.81,12.81,0,0,0-2,3.34,4.3,4.3,0,0,0,.26,3.77,4.2,4.2,0,0,1,3.18-4.89,8.54,8.54,0,0,1,2.81,9.06c2.24-.7,4.54,1.11,5.66,3.17a8.18,8.18,0,0,1,.25,7.74,2,2,0,0,1,2.9-.51,5.1,5.1,0,0,1,1.73,2.78,19,19,0,0,1,1,5.78l-.51.86a12.94,12.94,0,0,0-3.58,3.68l3.6-.81a1.54,1.54,0,0,1,1.23.07,1.49,1.49,0,0,1,.47.86q1.51,5.25,3,10.51l-3.84,2.52,3.25.13a1.09,1.09,0,0,1,1.28,1.33c.08,1.76.13,3.53.15,5.29a19,19,0,0,1-6,1.58l5.66.43a1.38,1.38,0,0,1,.89.29,1.35,1.35,0,0,1,.28,1l.18,7a13.27,13.27,0,0,0-4.88,1.12c.71.63,1.81.31,2.77.3,2,0,3.86,2,3.14,3.84l0,1.23a3.64,3.64,0,0,0-1.25,5c-12.49-3.7-22.34-14-27.72-25.82a42.86,42.86,0,0,0-3.4-6.77,27.43,27.43,0,0,0-4.59-4.8c-3.94-3.46-8.08-6.68-12.21-9.89,5.67,5.24,6.73,13.63,9.32,20.9,4.76,13.33,15.21,23.7,25.35,33.58,3.89,3.79,8.6,7.87,14,7.13l.41.34a16.25,16.25,0,0,0,.17,4l0,1.25-6.39,2a20,20,0,0,1,6.43.78,31.85,31.85,0,0,1-.1,4.37,1.73,1.73,0,0,1-1.33,1.84l-3.87,1.67c1.63,0,3.26.07,4.89.2a2.16,2.16,0,0,1,1.2.34,2.13,2.13,0,0,1,.54,1.71c0,1.73,0,3.46-.18,5.18a3.74,3.74,0,0,0-4.53,2.47,39.05,39.05,0,0,1,4.59,0,1,1,0,0,1,1.17,1.22l.38,8.51-.32,1.68.69,13a2.27,2.27,0,0,1-.12,1.1c-.33.73-1.27.9-2.07,1l-4.26.41,6.46.48a1.13,1.13,0,0,1,.65.19,1.09,1.09,0,0,1,.29.73l.56,3.84a2.13,2.13,0,0,1-.08,1.23,2,2,0,0,1-.86.73l-2.68,1.54,2.84.5a1.32,1.32,0,0,1,.62.22,1.38,1.38,0,0,1,.37.84c.55,3.13,1.1,6.25,1.66,9.38a1.42,1.42,0,0,1-.08,1,1.44,1.44,0,0,1-.67.46l-3.1,1.3c1,.27,2,.25,3,.5a2.78,2.78,0,0,1,2.18,1.87c.36,1.67-1.62,2.86-3.3,3.21a6.39,6.39,0,0,1,2.35.08,2.11,2.11,0,0,1,1.55,1.6,2.79,2.79,0,0,1-.31,1.47,19.38,19.38,0,0,1-3.59,5.55c-1.64,1.78-3.74,3.56-3.74,6l-3,3.73c-10.37-1.41-21.24-2.77-31,.88a47.19,47.19,0,0,1-6.13,2.2c-1.91.42-3.88.43-5.8.77-6.86,1.22-12.37,6.51-19.12,8.21-3.8,1-7.85.74-11.57,2a24.43,24.43,0,0,0-9.16,6.17,26.29,26.29,0,0,0-6.26,8.66,32.94,32.94,0,0,0-1.79,9.62q-1.45,17.41-2.19,34.87l-11.65,15.27c-10.36,2.43-21.38,5.54-28.13,13.77-1.5,1.83-2.73,3.85-4.07,5.81a69.25,69.25,0,0,1-24.84,22.18l-3.26,6.41c-2.59,13.77-2.24,27.93-1,41.89.55,6.32,1.28,12.64,1.07,19A109.52,109.52,0,0,1,962.4,1732c-2.74,13-6.19,25.93-11.45,38.14a236.51,236.51,0,0,1-12.38,23.93c-8.05,14.07-17.8,29-33.29,33.76l-6.59,2.54c-1.54.79-2.5,2.34-3.51,3.74s-2.32,2.81-4,3c-1.23.15-2.8-.22-3.48.82-.15.24-.23.53-.38.77-.58.86-1.91.68-2.82.18s-1.79-1.23-2.82-1.19c-1.22,0-2.11,1.12-2.83,2.11a2,2,0,0,0-.45.87,2.08,2.08,0,0,0,.1.82l.93,3.6c-1.76-.31-2.11-3.39-3.9-3.35a2.58,2.58,0,0,0-1.07.34l-5.73,2.71c-.44.21-1,.54-.92,1a1.31,1.31,0,0,0,.42.72,14.92,14.92,0,0,1,3.26,5.82,11.92,11.92,0,0,1-5.78-3.81,1.28,1.28,0,0,0-.85-.58,1.1,1.1,0,0,0-.56.21,11.91,11.91,0,0,0-1.82,1.35,1.19,1.19,0,0,0-.43.61,1.23,1.23,0,0,0,.14.67c.75,1.77,1.51,3.54,2.26,5.32-1.95-1-3.1-3.11-4.13-5.06a4.84,4.84,0,0,0-2.67,3.78,14.2,14.2,0,0,0,.32,4.81l2.76.29a2.59,2.59,0,0,1,1.37.41.89.89,0,0,1,.18,1.27,1.27,1.27,0,0,1-.86.24l-5.06.21c0,1,0,2.09,0,3.13v.78c1.83,1.34,4.7-.28,6.6,1a5.28,5.28,0,0,1-3.47,2,34.07,34.07,0,0,0-4,.78l.45,4.8a.62.62,0,0,0,.15.44.74.74,0,0,0,.36.12,36.18,36.18,0,0,0,3.75.28,9.3,9.3,0,0,1,2.84.34,2.61,2.61,0,0,1,1.81,2c.09,1-.82,2-1.75,1.71s-1.2-1.27-1.9-1.82a4,4,0,0,0-3-.44,3.35,3.35,0,0,0-1.65.52c-.89.7-.81,2-.65,3.16a1.82,1.82,0,0,0,.24.8c.31.45.93.53,1.45.67s1.12.55,1,1.09l-1.82.52a.87.87,0,0,0-.53.31.88.88,0,0,0-.09.48c0,3.32,0,6.64,0,10a10.58,10.58,0,0,0,3.28-.8,8.35,8.35,0,0,1-2.25,2.56,2.7,2.7,0,0,0-.85.83,2.38,2.38,0,0,0-.17,1,8.72,8.72,0,0,0,.2,2.6,2.94,2.94,0,0,0,1.56,2,3.14,3.14,0,0,0,1.42.22,6.41,6.41,0,0,0,4.58-2.2l3.91,7.87a50.54,50.54,0,0,1,.48,24.41l-3.6,5.64c-.53,3.54-4.57,5.18-8,6.28s-7.4,3.08-7.49,6.66a11.52,11.52,0,0,0-6.73-6.78,23.67,23.67,0,0,0-9.68-1.44c-9.18.21-18.59,3.07-25.22,9.43,1.68-1.61.33-4.73-1.85-5.54s-4.59-.1-6.8.63a10.53,10.53,0,0,0-3.8,1.94c4.41-8,3.77-18.19.21-26.67-3.84-9.17-10.6-16.75-17.24-24.15l-2.72-8.48c-30.35-20.58-66.87-32.53-92.77-58.5-15.71-15.76-26.45-35.67-36.94-55.3-10.65-19.92-21.4-40.23-25.79-62.4l-2.07-13q-.27-10.56-.53-21.1c-.14-5.62-.29-11.31-1.87-16.7-.95-3.26-2.62-6.57-5.62-8.15-2.31-1.21-5-1.21-7.64-1-12.22,1.1-24.1,6.71-36.28,5.21l-7.83,2.72c-6.23-.19-9.87-7-15.1-10.34-4.1-2.67-9.2-3.2-14.08-3.61q-26.42-2.25-52.95-3a98,98,0,0,1-15.79-1.26c-12.9-2.49-24.09-10.28-34.4-18.42-12.67-10-25.22-21.69-29.81-37.17l-5.58-3.59A55.25,55.25,0,0,1,378.9,1572a31.88,31.88,0,0,1-4.79-16.61l-1.37-5.32c-.06-1.43-.12-2.86-.17-4.29-.11-2.68-.24-5.45-1.5-7.81a29.27,29.27,0,0,0-3.52-4.51,8.15,8.15,0,0,1-2.22-5.15l-9.27-3.34a29.88,29.88,0,0,1-9.38-13.33l-2.6-3.72q-1.15-5.75-2.33-11.5a58.25,58.25,0,0,0-2.68-10.1,10.06,10.06,0,0,0-1.75-3c-1.53-1.68-3.85-2.34-6-3.13s-4.38-2-5.18-4.12l-4.49,1q-14.48.5-29,.09c-2.58-.07-5.4-.26-7.27-2l-7.76-4.79a125.94,125.94,0,0,0-65.51-23.08c-11.56-.67-23.29.26-34.6-2.21s-22.6-9.28-26.32-20.24c-4.85-14.31,4.44-29.07,11.68-42.32a177.15,177.15,0,0,0,14-33.43c3.76-12.4,6.16-25.26,11.19-37.21,14.17-33.71,47.1-55.7,80.53-70.52a362.29,362.29,0,0,1,205.05-26l5.95,10c9.5,3.06,19,6.13,28.54,9a55.47,55.47,0,0,0,9.65,2.28c6.82.8,14-.77,20.38,1.82l4.84.84q24.24,16.86,49.66,31.91a129.12,129.12,0,0,0,17.26,9c8.07,3.25,16.67,5,25.2,6.65L661.1,1292c6.24,1.24,12.5,2.48,18.83,3.12a99.48,99.48,0,0,0,17.6.24,31.89,31.89,0,0,0,11.2-2.42,33.54,33.54,0,0,0,8.25-6,138.61,138.61,0,0,0,14.62-15.64c2.84-3.55,5.62-7.59,5.57-12.13l-1-11.21c-.72-8.86-2.58-17.91-7.59-25.25-5.38-7.89-14.12-13.39-18.09-22.09-1.21-2.65-1.89-5.87-.43-8.4,1.18-2,3.48-3.14,5.63-4.11a26.33,26.33,0,0,1,7.72-2.54,8.78,8.78,0,0,1,7.47,2.41q-19.89-32.13-39.8-64.25a52.91,52.91,0,0,0-4.95-7.09l-2.91-6.15a157.49,157.49,0,0,0-9.62-12.67c-2.2-2.61-4.52-5.2-5.82-8.35s-1.4-7,.68-9.72l2.15-3.51c-2.88-7-7.18-13.43-11.44-19.76a11.23,11.23,0,0,0-2-2.46,5.61,5.61,0,0,0-5.2-1l-2.5-3c-4.35-1.73-7.36-5.77-9.46-10s-3.54-8.7-6-12.67c-1.36-2.16-3.43-4.33-6-4.15l-7.13-2.21c-4.13,1.75-6.54,6-8.92,9.77a107,107,0,0,1-16.77,20.64c-4.17,4-8.69,7.67-12.31,12.16-4,4.9-6.79,10.68-11.14,15.23-3.82,4-8.65,6.87-13.49,9.54a276.29,276.29,0,0,1-60.31,24.51l-4,1.66c-15.37-.12-29.45,7.89-42.93,15.25s-28.32,14.5-43.55,12.44a55.85,55.85,0,0,1-14-4.14,101.22,101.22,0,0,1-11.19-5.55c-2.25-1.29-4.73-2.72-7.26-2.17.12-5.41-2.37-10.49-4.79-15.32a15.76,15.76,0,0,0-3.06-4.62,35.62,35.62,0,0,1-2.72-2.31,9.23,9.23,0,0,1-1.66-3.09,27.67,27.67,0,0,1-.92-15.45l-5.26-6.22c-3.13-12,.72-25.11-2.77-37l.1-8.55c8.47-19.24,27.73-31.68,47.54-38.72s40.89-9.77,61-16c27.67-8.58,52.87-23.61,77-39.66,3.68-2.45,7.48-5.07,9.57-9,4.79-8.9-1.48-19.94-9.35-26.28s-17.67-10.61-23.64-18.77c-7.87-10.77-7.07-25.34-6.58-38.68a405.62,405.62,0,0,0-27.21-161.28c-4.1-10.55-8.73-21.07-15.77-29.93-1.48-1.87-3.16-3.72-5.39-4.53-2.86-1-6.09-.15-8.77,1.28-10.93,5.84-15.1,19.08-18.74,30.92-13.2,42.92-35.5,87.37-76.38,105.93-23.14,10.51-49.45,11.31-74.82,10-17.28-.92-36.12-3.51-48-16.13-8.28-8.81-11.68-21.2-12.68-33.25a104.57,104.57,0,0,1,14.2-61.53c11.28-19,28.3-33.88,41-51.94,10.12-14.4,17.35-30.59,25.91-46a299.41,299.41,0,0,1,66.21-81.21l20.22-11.38c23-16.39,56.16-16.86,79.6-1.12,22.14,14.87,33.8,40.71,44.37,65.21q23.18,53.7,46.33,107.4c3.48,8.05,9,17.46,17.76,17.05a162.94,162.94,0,0,1,18.41-77.73C601,602,607.7,591.93,610,580.36c6-30.16-18.61-56.52-35.84-82A196.05,196.05,0,0,1,543,419.25c-2.82-17.9-3.19-36.37-9.24-53.45s-19.62-33.13-37.6-35.3c-8.13-1-16.8.86-24.27-2.49-5.91-2.65-10-8.16-13.18-13.83-16.25-29.25-12.14-67.4,6.5-95.18s50-45.55,82.89-51.9c9-1.75,18.77-2.6,27,1.52,14,7,17.62,24.82,21.13,40.06a249.14,249.14,0,0,0,37.57,85.2A412.12,412.12,0,0,1,701.18,256c13.29-5.89,29.42-10.89,41.66-3,9.78,6.27,16.89,20.3,28.28,18,5.26-1.05,9.09-5.56,12-10.08,13.43-21,15.55-47.12,23.36-70.83,2-6.23,4.72-12.61,9.85-16.68,5.36-4.25,12.52-5.31,19.34-5.74,56-3.56,112.79,28,139.36,77.43,12.43,23.14,18.46,49.11,28,73.58a271,271,0,0,0,28.32,53.85c12.94,19,29.06,38.74,27.72,61.71-1.37,23.57-20.56,41.48-36.49,58.9s-30.44,41.93-20.71,63.44l.9,16.09a12.84,12.84,0,0,1,2,5.51,4.81,4.81,0,0,1-3,.24c-.9,2.43,1.26,4.83,3.26,6.46,13.76,11.23,30.34,19.67,48,21.09,3.41.28,6.88.3,10.14,1.34,5,1.61,9,5.45,13,8.88s8.67,6.72,14,6.79l3.3,6.4a57.33,57.33,0,0,1,5,11.9c1,4.19,1.1,8.76-.71,12.67a21.84,21.84,0,0,1-4.59,6.14,45.61,45.61,0,0,1-18.91,11.28l-5.52-.63c-2.66-3.2-6.8-4.8-10.88-5.6s-8.29-.93-12.35-1.83a53.72,53.72,0,0,1-14.12-5.83,88,88,0,0,1-14.56-9.81c-8.68-7.37-15.23-16.88-21.59-26.33C990.66,614.61,986,607,987,599q-3.87,5.67-7.87,11.25l-13-2.69a28.5,28.5,0,0,1-13.86-9.49c-5.76,11.21-5.22,24.64-9.66,36.42-2.75,7.29-7.31,13.73-10.77,20.7a127.73,127.73,0,0,0-6.45,16.4,456.49,456.49,0,0,0-18.24,75.88l-7.83,14.72c-.73,4.4-3,8.39-4.89,12.4-11.13,23-13.85,49.15-23.12,72.95-2.38,6.11-5.22,12.14-6.28,18.61l-3.9,10c-.74,2.13-1.39,4.75.12,6.43a6.46,6.46,0,0,0,1.67,1.2c9.4,5.32,19.17,11.22,24.36,20.7l12.39,2.71q5.32,6.63,11.2,12.78c2.15-3,3.1-6.67,4.28-10.17A73.33,73.33,0,0,1,930,884.43l6-8.82c3.94-10,7.4-20.16,10.86-30.33q2.48-7.26,4.94-14.5a9.43,9.43,0,0,0,.75-4.54c-.41-2.47-2.73-4.38-2.84-6.88a8.22,8.22,0,0,1,.76-3.25l6.39-16.62c3-7.76,6-15.52,9.5-23l8.54-4.13q13.8-25.55,29-50.3a63,63,0,0,1,7.81-10.84,32.61,32.61,0,0,1,17.87-9.49c4.67-.8,9.45-.57,14.18-.92s9.6-1.35,13.34-4.25l12.42,1.19c6,1.18,10.91,5.42,16,8.86,11.86,8,26.16,12.34,36.89,21.81l2.22,8.06c11.6,8.44,23.24,16.9,35.76,23.9l9.82-2.44c18,19.33,30.78,43.53,51.48,59.88,12.27,9.7,26.73,16.15,40.28,24s26.71,17.6,33.93,31.47C1299.8,880.73,1301.74,889.87,1298.39,897.63ZM730.37,1022l-2.73-35.73a2.59,2.59,0,0,0-.81-2.06,2.49,2.49,0,0,0-2-.08,47.57,47.57,0,0,0-18,9.45A124,124,0,0,0,692.4,1008c-7.63,8.57-15,17.34-22.44,26.11l-4.73,8.74a12,12,0,0,0-.23,4.84,4.13,4.13,0,0,0,3.17,3.31,7.24,7.24,0,0,0,5.64,7.51c.06,1.93.25,4.12,1.79,5.28,2.07,1.55,5.47.33,7.31,2.15l4.35-3.38c3-2.66,6.73-4.45,10.06-6.74a80.28,80.28,0,0,0,10.63-9.31l16.25-16Zm17.82-47.07c-.58-2.5-1.46-5.23-3.7-6.49l-2.3,2.68-5,6.33c-.32.4-.65,1-.35,1.39s.82.33,1.16.62a1.21,1.21,0,0,1-.08,1.61,16.35,16.35,0,0,0-1.22,1.28,3.91,3.91,0,0,0-.31,2.58l2.7,25.23,3.1,1.88a17.71,17.71,0,0,1,4.47-3.66l3.35-5A86.64,86.64,0,0,0,748.19,974.94ZM810,951.5a180.9,180.9,0,0,1-11.85-19.69,6.06,6.06,0,0,0-1.36-1.95,2,2,0,0,0-2.22-.35l-3.1,1.77c-1.93,3.08-5.46,5.05-6.85,8.41a15,15,0,0,0-.77,5.75q0,10.86.81,21.69l3,1.49c3.92,0,7.57-2.06,10.54-4.63s5.47-5.64,8.51-8.12Z"></path>
    <path data-name="2" data-official="Æschynanthus grandiflorus" data-plain="" data-loc="Khorea" d="M794,1951.87a3.73,3.73,0,0,1,1.15-1.87A21.34,21.34,0,0,1,794,1951.87ZM730.37,1022l-2.73-35.73a2.59,2.59,0,0,0-.81-2.06,2.49,2.49,0,0,0-2-.08,47.57,47.57,0,0,0-18,9.45A124,124,0,0,0,692.4,1008c-7.63,8.57-15,17.34-22.44,26.11l-4.73,8.74a12,12,0,0,0-.23,4.84,4.13,4.13,0,0,0,3.17,3.31,7.24,7.24,0,0,0,5.64,7.51c.06,1.93.25,4.12,1.79,5.28,2.07,1.55,5.47.33,7.31,2.15l4.35-3.38c3-2.66,6.73-4.45,10.06-6.74a80.28,80.28,0,0,0,10.63-9.31l16.25-16Zm17.82-47.07c-.58-2.5-1.46-5.23-3.7-6.49l-2.3,2.68-5,6.33c-.32.4-.65,1-.35,1.39s.82.33,1.16.62a1.21,1.21,0,0,1-.08,1.61,16.35,16.35,0,0,0-1.22,1.28,3.91,3.91,0,0,0-.31,2.58l2.7,25.23,3.1,1.88a17.71,17.71,0,0,1,4.47-3.66l3.35-5A86.64,86.64,0,0,0,748.19,974.94ZM810,951.5a180.9,180.9,0,0,1-11.85-19.69,6.06,6.06,0,0,0-1.36-1.95,2,2,0,0,0-2.22-.35l-3.1,1.77c-1.93,3.08-5.46,5.05-6.85,8.41a15,15,0,0,0-.77,5.75q0,10.86.81,21.69l3,1.49c3.92,0,7.57-2.06,10.54-4.63s5.47-5.64,8.51-8.12ZM378.9,1572a31.88,31.88,0,0,1-4.79-16.61l-1.37-5.32c-.06-1.43-.12-2.86-.17-4.29-.11-2.68-.24-5.45-1.5-7.81a29.27,29.27,0,0,0-3.52-4.51,8.15,8.15,0,0,1-2.22-5.15l-9.27-3.34a29.88,29.88,0,0,1-9.38-13.33l-2.6-3.72q-1.15-5.75-2.33-11.5a58.25,58.25,0,0,0-2.68-10.1,10.06,10.06,0,0,0-1.75-3c-1.53-1.68-3.85-2.34-6-3.13s-4.38-2-5.18-4.12l-4.49,1q-14.48.5-29,.09l-15.82,11.37c-82.2,9.33-155.32,73.62-175.09,154-17.09,69.43,3.58,143.47,38.46,205.88,13.75,24.59,29.7,55.56,13.56,78.64-5.25,7.5-13.16,12.61-20.85,17.56-30.39,19.58-61.67,41-78.68,72.85-16,29.9-17.28,65.16-18.25,99-1.12,38.86-2.14,78.52,9.1,115.73,7.86,26,21.63,50.54,24.75,77.57,2,17.21-.46,34.81,2.67,51.85s14.18,34.61,31.29,37.36c23,3.7,40-19.31,56.75-35.48,37.22-35.94,92.82-44.31,144.55-45.43,24.77-.54,56.14,5.1,61.94,29.19-26.67,5.72-44.87,29.68-60.62,52l-29,41c-5.09,7.21-10.43,15.32-9.36,24.08,1.81,14.89,20.41,21.24,35.36,20,31.53-2.58,59.33-23.33,90.83-26.28,30.6-2.87,60.76,11.43,91.43,9.31,29.79-2.05,56.47-19.29,85.83-24.73,59.63-11,126.43,26.68,179.06-3.45l7.64-16.17c8.53-.59,16,7,17.94,15.31s-.27,17.05-3.16,25.1c-1.94,5.44-4.23,11-3.69,16.78.86,9.12,9.27,16.49,18.37,17.59s18.31-3.28,24.5-10,9.65-15.65,11.44-24.64c2.75-13.84,1.75-28.56-3.74-41.56s-15.62-24.18-28.44-30.1c-4.48-2.07-9.28-3.51-13.52-6.06s-8-6.53-8.65-11.43c-1.29-9.58,9.21-17.09,10-26.72.57-7.32-5.67-14.47-13-14.9-8.85-.52-18.85,7-25.63,1.3a25.84,25.84,0,0,1-2.76-3c-7.49-8.57-20.45-9.81-31.7-8s-22.19,6-33.57,5.92a20.22,20.22,0,0,1-8.58-1.59c-6.31-3-9.16-10.94-7.93-17.82s5.73-12.76,10.85-17.52c8.68-8.07,19.33-13.65,29.4-19.91,30.93-19.22,56.95-45.24,82.67-71l14.57-8.41,6.56-15.21c25.55-17.15,41.56-44.84,60.45-69.13,1.95-2.5,4-5,6.84-6.48s6.6-1.47,8.84.77l8.94-11.49c5.36-14.64,4.53-30.72,3.68-46.29-.15-2.75,0-6.11,2.49-7.37a6.92,6.92,0,0,1,3.26-.52c6.77.07,13.74.88,20.16-1.26s12.15-8.47,10.81-15.1c-.79-3.86-3.79-7.71-2.22-11.31a9.87,9.87,0,0,1,2.73-3.24l11.18-10a9.25,9.25,0,0,0,2.72-3.32,8.21,8.21,0,0,0,.05-4.66,33.55,33.55,0,0,0-11.9-19.18c-5.27-4.16-12.37-7.52-13.64-14.12-1.19-6.22,3.57-11.87,5.32-18,2.89-10-4-21.8-14.16-24.14-6.14-1.4-12.58.27-18.82-.56a15.86,15.86,0,0,0-3.43-.3c-4.54.34-7.08,5.27-8.74,9.51l-6.42,12.38-3.6,5.64c-.53,3.54-4.57,5.18-8,6.28s-7.4,3.08-7.49,6.66a11.52,11.52,0,0,0-6.73-6.78,23.67,23.67,0,0,0-9.68-1.44c-9.18.21-18.59,3.07-25.22,9.43,1.68-1.61.33-4.73-1.85-5.54s-4.59-.1-6.8.63a10.53,10.53,0,0,0-3.8,1.94c4.41-8,3.77-18.19.21-26.67-3.84-9.17-10.6-16.75-17.24-24.15l-2.72-8.48c-13.28-9-27.74-16.35-42-24l-3,6.3-11,5.17a10,10,0,0,1-3.64,1.16c-2.11.11-4-1.11-5.88-2.14a37.31,37.31,0,0,0-22.72-4.28c-1.29.17-2.69.39-3.82-.26-1.36-.77-1.81-2.47-2.21-4-4.83-18.12-21.79-32.33-40.48-33.9-2-.17-4-.23-5.69-1.24s-2.67-2.71-3.68-4.34c-13.09-21.25-34.4-38.17-59-42.39-7.28-1.25-14.8-1.41-21.83-3.69-4.07-1.32-7.9-3.32-12-4.53-13.45-4-28.75.77-41.52-5.05l.81-8.93c1.33-4.84,4.43-9,7.13-13.19,5.21-8.13,9.14-17,14.39-25.12s12.15-15.61,21.17-19.07c5.33-2,11.1-2.56,16.72-3.6a90.45,90.45,0,0,0,49.48-27.21l8.86-12.71c-.95-3.26-2.62-6.57-5.62-8.15-2.31-1.21-5-1.21-7.64-1-12.22,1.1-24.1,6.71-36.28,5.21l-7.83,2.72-23-2c-19.26,5-40.46-2-59.15,4.76a126.22,126.22,0,0,0-12,5.58c-14.15,6.9-29.42,11.15-44,17.14s-28.81,14.12-38.17,26.77c-6.32,8.56-10.05,18.71-14.67,28.31-4.17,8.68-9.11,17-14,25.25l-8.2,11.94a29.89,29.89,0,0,1-13.54,14,5.6,5.6,0,0,1-4,.78c-1.52-.46-2.44-2-3-3.5-1.94-5.43-.82-11.81-3.75-16.78-3.78-6.41-12.5-7.66-19.93-7.13a78.17,78.17,0,0,0-33.15,10.06c-1.41.8-3,1.69-4.56,1.36-1.8-.36-2.95-2.13-3.64-3.83-2.91-7.15-1.43-15.27.33-22.79,2.92-12.51,6.49-24.93,7.68-37.71.63-6.84.58-13.75,1.81-20.51s3.92-13.51,9.05-18.07a5.93,5.93,0,0,1,3.16-1.7,4.91,4.91,0,0,1,3.37,1.08c3.61,2.63,4.62,7.57,7.56,10.92,4.59,5.22,12.53,5.39,19.48,5.15,10.95-.38,22.29-.85,32.1-5.74,6.47-3.22,11.88-8.18,17.12-13.17,6.2-5.9,12.6-12.51,14.08-21,1.14-6.58-.92-13.27-3.37-19.49s-5.36-12.39-6-19,1.55-14.07,7.23-17.59Zm-46.32-507.45c-62.78-4.81-129.68,2.88-180.54,40-37.51,27.35-62.84,68.09-84.46,109.17-9.34,17.73-18.32,36.25-20.17,56.2-3,32.15,12.87,64,9,96.06-1.66,13.87-6.54,29.56,2,40.63,6.62,8.61,19,10.47,29.74,8.89,28.23-4.14,50.48-26.42,65.77-50.51l23-15.94c3.76-12.4,6.16-25.26,11.19-37.21,14.17-33.71,47.1-55.7,80.53-70.52a362.29,362.29,0,0,1,205.05-26l5.95,10c9.5,3.06,19,6.13,28.54,9a55.47,55.47,0,0,0,9.65,2.28c6.82.8,14-.77,20.38,1.82l4.84.84q24.24,16.86,49.66,31.91a129.12,129.12,0,0,0,17.26,9c8.07,3.25,16.67,5,25.2,6.65L661.1,1292c6.24,1.24,12.5,2.48,18.83,3.12a99.48,99.48,0,0,0,17.6.24,31.89,31.89,0,0,0,11.2-2.42,33.54,33.54,0,0,0,8.25-6,138.61,138.61,0,0,0,14.62-15.64c2.84-3.55,5.62-7.59,5.57-12.13l-1-11.21c-.72-8.86-2.58-17.91-7.59-25.25-5.38-7.89-14.12-13.39-18.09-22.09-1.21-2.65-1.89-5.87-.43-8.4,1.18-2,3.48-3.14,5.63-4.11a26.33,26.33,0,0,1,7.72-2.54,8.78,8.78,0,0,1,7.47,2.41q-19.89-32.13-39.8-64.25a52.91,52.91,0,0,0-4.95-7.09l-2.91-6.15a157.49,157.49,0,0,0-9.62-12.67c-2.2-2.61-4.52-5.2-5.82-8.35s-1.4-7,.68-9.72l2.15-3.51c-2.88-7-7.18-13.43-11.44-19.76a11.23,11.23,0,0,0-2-2.46,5.61,5.61,0,0,0-5.2-1l-2.5-3c-4.35-1.73-7.36-5.77-9.46-10s-3.54-8.7-6-12.67c-1.36-2.16-3.43-4.33-6-4.15l-7.13-2.21c-4.13,1.75-6.54,6-8.92,9.77a107,107,0,0,1-16.77,20.64c-4.17,4-8.69,7.67-12.31,12.16-4,4.9-6.79,10.68-11.14,15.23-3.82,4-8.65,6.87-13.49,9.54a276.29,276.29,0,0,1-60.31,24.51l-4,1.66c-15.37-.12-29.45,7.89-42.93,15.25s-28.32,14.5-43.55,12.44a55.85,55.85,0,0,1-14-4.14,101.22,101.22,0,0,1-11.19-5.55c-2.25-1.29-4.73-2.72-7.26-2.17.12-5.41-2.37-10.49-4.79-15.32a15.76,15.76,0,0,0-3.06-4.62,35.62,35.62,0,0,1-2.72-2.31,9.23,9.23,0,0,1-1.66-3.09,27.67,27.67,0,0,1-.92-15.45l-5.26-6.22ZM930,884.43l6-8.82c3.94-10,7.4-20.16,10.86-30.33q2.48-7.26,4.94-14.5a9.43,9.43,0,0,0,.75-4.54c-.41-2.47-2.73-4.38-2.84-6.88l-12,4.8c-22.78,12.2-42.69,29.7-66.62,39.46l-6,2.53-3.9,10c-.74,2.13-1.39,4.75.12,6.43a6.46,6.46,0,0,0,1.67,1.2c9.4,5.32,19.17,11.22,24.36,20.7l12.39,2.71,1.5-5.28a39.31,39.31,0,0,1,16.7-12.53ZM1078.42,809c1-3.25,2.7-6.31,3.17-9.68a21.94,21.94,0,0,0-.07-5.43,60.09,60.09,0,0,0-6.51-21.2c-2.16-4.09-5.54-8.37-10.16-8.4l-5.94-1c-1.78-.68-3.79-.09-5.49.76a26.61,26.61,0,0,1-5.14,2.46,7.84,7.84,0,0,1-5.35-.53l-3.15-3.32c-3-5.59-1.4-12.42-2-18.73-.21-2-.8-4.18-2.5-5.24a10.13,10.13,0,0,1-8.72-2.16c-1.7-1.47-2.89-3.5-4.76-4.75-3.1-2.08-7.41-1.47-10.57.52s-5.4,5.11-7.5,8.2a268.24,268.24,0,0,0-23.38,41.84c-1.82,4.1-3.57,8.39-3.5,12.88L970,816.61c-2.24.38-3.57,2.65-4.58,4.7a302.16,302.16,0,0,0-18.15,46.36L952.4,875a205.88,205.88,0,0,0,31-12.77c.46,3.11-1.37,6-3.21,8.59-6.45,9-14.09,17.36-18,27.7s-2.84,23.63,5.93,30.35L975,929c17.32-5.14,31.25-17.93,43.32-31.37a84.8,84.8,0,0,0,10.68-14c7.08-12.25,8.52-26.83,9.91-40.9.27-2.74.57-5.57,2-7.93a17.68,17.68,0,0,1,4.56-4.65,99,99,0,0,1,21.06-12.43Zm-9.72-138.3c-2.66-3.2-6.8-4.8-10.88-5.6s-8.29-.93-12.35-1.83a53.72,53.72,0,0,1-14.12-5.83,88,88,0,0,1-14.56-9.81c-8.68-7.37-15.23-16.88-21.59-26.33C990.66,614.61,986,607,987,599q-3.87,5.67-7.87,11.25l-5.62,12.43c-12.68,17.81-13.53,41.17-13.91,63-.47,27.56-.93,55.4,4.66,82.39l2.07,8.35,8.54-4.13q13.8-25.55,29-50.3a63,63,0,0,1,7.81-10.84,32.61,32.61,0,0,1,17.87-9.49c4.67-.8,9.45-.57,14.18-.92s9.6-1.35,13.34-4.25ZM1282,283.29c-24.88-45.28-70.71-74.3-114-102.56-9.24-6-19-12.8-22.84-23.16-4-10.69-.56-22.73,4.55-32.93s11.92-19.62,15.38-30.49c2.85-9,3.26-18.56,3.49-28,.39-15.74-1.54-34.75-15.62-41.8-11.94-6-26.29.2-37.39,7.62-31.85,21.29-55.87,53.39-69.71,89.11s-17.79,74.89-13.9,113c1.22,12,3.22,23.94,7.39,35.22,4.7,12.71,12,24.27,20,35.26a356.8,356.8,0,0,0,40.46,46.94c4.74,4.62,9.69,9.21,12.92,15s4.52,13.09,1.56,19c-3.27,6.53-10.57,9.72-16.84,13.46a69.94,69.94,0,0,0-24.83,25.33L1059,434.24c-1.37,23.57-20.56,41.48-36.49,58.9s-30.44,41.93-20.71,63.44l.9,16.09a12.84,12.84,0,0,1,2,5.51,4.81,4.81,0,0,1-3,.24c-.9,2.43,1.26,4.83,3.26,6.46,13.76,11.23,30.34,19.67,48,21.09,3.41.28,6.88.3,10.14,1.34,5,1.61,9,5.45,13,8.88s8.67,6.72,14,6.79l8.53-6.87c8.47-11.79,14.82-24.94,21.73-37.71a470.22,470.22,0,0,1,43.77-66.71c7.6-9.68,16.13-19.47,27.72-23.63a8.83,8.83,0,0,1,5.62-.56c2.64.85,4.07,3.64,5.1,6.22,15.62,38.77,5.3,85.86,27.15,121.5,1.16,1.9,2.46,3.94,2.26,6.15a9.74,9.74,0,0,1-1.83,4.23,280.49,280.49,0,0,1-102.56,94.56l-5.23,8.22,2.22,8.06c11.6,8.44,23.24,16.9,35.76,23.9l9.82-2.44c18,19.33,30.78,43.53,51.48,59.88,12.27,9.7,26.73,16.15,40.28,24s26.71,17.6,33.93,31.47l5.51,3.27a16.18,16.18,0,0,0,8.81-6.44,48.55,48.55,0,0,0,5.1-9.87l1.68-10.63c3.18-7.86,4.8-17,11.43-22.31,3.15-2.5,7.12-3.82,10.2-6.4,6.51-5.46,7.47-15.35,5.21-23.54-2.19-7.91-6.74-16.75-2.28-23.63,2.42-3.75,6.88-5.58,10.14-8.63,8.16-7.64,7-21.46,1-30.88s-15.63-15.82-24.12-23.09a133,133,0,0,1-26.31-30.61,59.83,59.83,0,0,1-7.43-15.89c-.37-1.35-.6-3,.37-4a4.26,4.26,0,0,1,2.54-1c10.67-1.58,21.84.54,32.15-2.63,5.32-1.64,10.14-4.61,15.41-6.38,16.62-5.56,35,1.74,49,12.31s25.33,24.34,39.53,34.61c7,5,14.51,9.15,22,13.26l26.85,14.65c7.8,4.25,15.6,8.51,23.59,12.39l3.57,10c-5.31,43-10.62,86.74-3,129.36,11,61.45,48.28,116.44,55.06,178.5,4.61,42.24-5.27,85.13,0,127.3,1.2,9.72,5.25,21.41,14.94,22.77s16.69-8.63,22.14-16.79c10.75-16.09,24.74-29.71,36.83-44.82,29.48-36.84,47-81.74,60.9-126.84,9.19-29.87,16.94-60.16,24.7-90.43,11.06-43.2,22.22-87.41,18.31-131.83-.51-5.86-1.15-12.28,2.21-17.1,5.38-7.71,17.1-6.44,25.95-3.29,47.07,16.76,81.89,61.91,131.1,70.59,11.86,2.1,24.72,1.74,35.11-4.36s17.31-19.09,13.58-30.54c-2.08-6.41-7-11.43-11.85-16.12A610.89,610.89,0,0,0,1770,679.77c-4.64-2.17-9.58-4.52-12.24-8.89-2.36-3.87-2.51-8.65-2.65-13.19-3.21-99-40.07-196.64-103.1-273.06l18,.31c66.38-20,123.77-68.16,155-130.07,4.81-9.52,9.09-19.65,9.4-30.31s-4.09-22-13.26-27.48c-14.55-8.65-33.08.55-46.29,11.13-14.9,11.92-28.13,25.78-42.64,38.17-52.67,45-119.7,68.85-185.09,91.76-8.15,2.85-16.37,5.73-24.93,6.83-18.79,2.44-37.66-3.81-54.67-12.15s-33-18.84-50.56-25.88c-38.26-15.32-81-13.12-122.1-10.69Z"></path>
    <path data-name="3" data-official="Streptocarpus Rexii" data-plain="" data-loc="Cape of Good Hope" d="M889.84,2243.22c-3.09,9-7.78,17.31-11.13,26.19-3.19,8.46-5.32,17.66-11.22,24.52-3.22,3.74-7.37,6.54-11,9.89a48.2,48.2,0,0,0-12.12,17.69c-2.64,6.72-4.57,15-11.24,17.74l-.41,8.63c-1.45,25.72,1.92,51.53,7.58,76.66,1.63,7.24,3.46,14.52,3.47,21.94s-2,15.15-7.12,20.52l-1.6,8.47c-.33,10.12,7.34,19.13,16.48,23.47s19.55,4.95,29.67,5.38c38.59,1.63,79,1.32,113.41-16.14,29.51-15,56.95-42.68,89.61-37.33,30.87,5.05,55.44,39.39,85.94,32.44,11.51-2.62,20.77-10.85,31-16.7,24.82-14.18,55-14.18,83.56-13.79l104.86,1.4c12.43.17,25,.32,37.12-2.5,7.63-1.79,15-4.74,22.78-5.76,11.25-1.49,22.57,1.15,33.69,3.39,38.63,7.82,82.5,10,113.61-14.23L1603,2427c35.31-29.12,57.53-70.73,78.85-111.22a173.55,173.55,0,0,0,9.48-20c6.48-17.38,7.25-36.46,13.65-53.87a275.14,275.14,0,0,0,141,52.48l6.77,5.78c8.83,16.78,27.11,26.93,45.72,30.57s37.8,1.66,56.65-.33c12.46-1.31,25.14-2.67,36.66-7.61a63,63,0,0,0,20.58-14.25c2.17-2.27,4.28-5,4.34-8.1.09-3.89-2.92-7.06-5.71-9.75-19.08-18.39-38.41-36.95-61.31-50.27s-50.11-21.08-76.11-16c-2,.4-4.23.86-6.11,0-1.71-.79-2.76-2.5-3.74-4.11-32.68-53.6-88.26-92.71-149.76-105.36l-4.17-18.89c0-24.84-19.09-45.1-37.49-61.79-15.31-13.91-31.28-27.49-49.86-36.59s-40.24-13.39-60.18-7.92c30.77-39.94,82.9-57.91,133.17-61.78s100.6,4.22,151,6c29.83,1,60.34-.24,88.31-10.65,22.14-8.25,41.81-21.87,62.91-32.49,14.22-7.16,30.25-14,37.39-28.23,3.44-6.84,4.35-14.64,4.89-22.28,1.83-25.81-.15-52.4-10.32-76.19-14.78-34.58-45.84-60.28-80.22-75.51s-72.11-21.07-109.51-25c-43.87-4.61-90-6.48-130.25,11.49-15.79,7-30.12,16.9-44.36,26.71-18.37,12.66-36.82,25.38-53.08,40.66a223,223,0,0,0-59.85,95.4l-29.62-77.19,4-18.44c21.79-37,44-75.3,50.18-117.84a593.21,593.21,0,0,0,64.91,1.49c16.82-.53,34.52-2.08,48.44-11.54a49,49,0,0,0,20.57-32.38c.31-1.92.56-4,1.87-5.44,1.59-1.73,4.18-2,6.51-2.23,30.44-3.42,54.12-30.56,62.31-60.07s3.83-61-2.29-91c-4.69-23-10.57-46.29-23-66.27s-32.32-36.45-55.63-39.45c-16.84-2.17-34.12,2.71-50.81-.39l-.36-16.24c.79-41.9,37.88-74.49,76.4-91s81.2-22.79,118-42.89c15.59-8.53,30.21-19.56,47.42-24,36.93-9.47,78.07,13.31,113.16-1.6,28.87-12.27,42.74-47.72,37.86-78.7s-24.69-57.66-47.3-79.4A303.7,303.7,0,0,0,1888.37,917c-19.06-6.92-39.52-12-59.54-8.7s-39.46,16.44-45.12,35.91c-5.15,17.73,1.63,36.53,2.09,55,1.06,43.09-32,79.25-66.5,105s-74.08,47.6-97.15,84c-21.91,34.56-25.69,77.19-28.88,118-21.89-14.74-34.25-39.55-47.87-62.16-20-33.18-45-64-77-85.86s-71.6-34-109.92-28.41-74.48,30.8-88.32,67l-4.14-6.71a446.8,446.8,0,0,1-33.18-53.33c-1.24-2.35-2.5-4.85-2.43-7.51.08-3.38,2.27-6.3,4.13-9.13,15.87-24.17,12.1-57.71-3.93-81.77s-42.26-39.7-69.53-49.29c-43.82-15.41-95.76-15.89-133.55,11.11l-5.17,9a838.71,838.71,0,0,0-53,73.3A202.43,202.43,0,0,0,955.73,1106c-12.14,25.86-14.33,55.22-14.31,83.79,0,14.23,1,29.71,10.33,40.43l13.41,9.85,11.27.83c5.1,5.32,10.25,10.68,16.29,14.9s13.13,7.28,20.51,7.41a3.79,3.79,0,0,1,2.49.6,5,5,0,0,1,1,1.56,6.33,6.33,0,0,0,8.56,2.42,19.3,19.3,0,0,1,2.62-1.71c2.34-.94,5.23.59,7.43-.65,1.28-.73,1.93-2.2,3-3.17,2-1.69,4.85-1.49,7.43-1.74a18.4,18.4,0,0,0,11.85-6,13.13,13.13,0,0,0,2.75-4.61c1.27-4,0-8.38,1.15-12.4.69-2.42,2.23-4.66,2.19-7.17,0-1.42-.56-2.82-.43-4.24s1.41-2.91,2.77-2.48a2.75,2.75,0,0,1,1,.72c2.35,2.42,2.47,6.24,1.76,9.54s-2.11,6.46-2.32,9.82l-.32,2.89c-.86,4.63,1.56,9.44,5.2,12.44s8.33,4.42,13,5.19a14.25,14.25,0,0,0,7.11-.18c2.26-.81,4.2-2.94,4.08-5.33,6.24,2.24,12.8,4.51,19.36,3.55a20.57,20.57,0,0,0,12.45-6.84c1.43-1.66,2.68-3.62,4.67-4.52a18,18,0,0,1,4.27-.94,14.37,14.37,0,0,0,10.84-9.79l.88.57c2.85-.77,5.53,1.49,7.67,3.53q4.23,4,8.72,7.79c4.65,3.9,10.07,7.75,16.14,7.44-.13,3.87,3.5,6.66,6.68,8.87a178.24,178.24,0,0,1,22,18c4.71,4.52,9.32,9.57,11.06,15.86l2.2,10.31c1.79,11.81-1.94,23.64-4.35,35.33-4.57,22.18-4.43,45-7.33,67.49s-9.34,45.45-24.68,62.1a71,71,0,0,1-29.1,19l-7.17-5c-2.21-1.12-3.15-3.73-3.82-6.12a128.54,128.54,0,0,1-4.66-39.89.87.87,0,0,1,.87-1,12,12,0,0,0,4-2.1,14.49,14.49,0,0,0-6.17-.65l-.4-.78q-.4-12.69-1.68-25.32a2.58,2.58,0,0,1,.06-1.11,3.14,3.14,0,0,1,1-1.11,7.26,7.26,0,0,0,2.29-7.45l.42-1a2.68,2.68,0,0,0,2.73-1.07c.66-.79,1.06-1.78,1.66-2.63,1.54-2.18,4.3-3.29,5.67-5.58a9.47,9.47,0,0,0,1-5.26,12.53,12.53,0,0,0-.93-4.62,6.21,6.21,0,0,0-3.24-3.29.6.6,0,0,0-.55,0,.62.62,0,0,0-.21.31,32,32,0,0,1-10.06,12.81c0-4-.09-7.92-.13-11.88a32.39,32.39,0,0,0-.67-7.49l-.54-1.14a4.16,4.16,0,0,1,0-1.61,6.07,6.07,0,0,1,1.58-2.18,6.58,6.58,0,0,0,1.43-5.48,7.37,7.37,0,0,1-5.23,3.08,57.3,57.3,0,0,0-3.37-15l.39-.55a7,7,0,0,0,3.84-2c-1.42-.12-2.84-.19-4.26-.22-.9-.77-.46-2.3.35-3.16s1.94-1.46,2.52-2.5c-1.7-.89-3.53,2.15-5.3,1.41a2.84,2.84,0,0,1-1.33-1.91l-2.44-7.23,5.83-3-7.27-.15a1.44,1.44,0,0,1-.74-.14,1.57,1.57,0,0,1-.56-1c-.69-2.46-1.78-5-3.94-6.37l-.34-1,3.19-4.23-4.33,1.51a.84.84,0,0,1-.49.06c-.23-.06-.36-.3-.47-.51a16.14,16.14,0,0,0-5.22-5.94l1.52-2.92a16.18,16.18,0,0,0-3.62,1.44l-4.31-3.89a1.35,1.35,0,0,1-.4-.52,1.4,1.4,0,0,1,.08-.75l1.14-3.49a8.06,8.06,0,0,0-4.23,3,6.51,6.51,0,0,0-4.08-2.82c-.45-.1-1-.19-1.18-.58a1.5,1.5,0,0,1-.1-.76l.18-3.55c-.91,1.08-1.82,2.15-2.74,3.22a21.7,21.7,0,0,0-7-.21,8.52,8.52,0,0,0-1.28-3.28,5.83,5.83,0,0,0-1.54,3.15l-1.36-.27a17,17,0,0,0-13.59,7.83c-2.28,3.65-3.1,8.1-5.58,11.62-3.88,5.51-11.19,7.88-14.92,13.49-2.83,4.25-3.14,9.61-3.94,14.65s-2.54,10.49-6.94,13.06a18.35,18.35,0,0,0,7.77-.3,83.66,83.66,0,0,0-2.68,13.85l-.32,1.77c-4.19,18.37-8.65,37.33-19.95,52.4-2.83,3.78-6.07,7.27-8.61,11.26-5.33,8.36-7.29,18.37-11.28,27.45-2.5,5.7-5.81,11-8.3,16.74s-4.17,12-3.14,18.16,5.24,12,11.26,13.62c3.55.93,7.29.33,10.9-.28,2.57-.43,5.5-1.11,6.71-3.41l.93-.6a43.71,43.71,0,0,0,21.32-15.24,88.2,88.2,0,0,0,4.81-7.44c1.29-2.15,2.58-4.3,3.68-6.56a67.42,67.42,0,0,0,4.16-11.58,163.45,163.45,0,0,0,3.82-17.09l-1.83-.26q1.34-9.51,2.68-19c.54-3.82,1.09-7.66,2-11.41,1-3.94,2.29-7.79,2.89-11.79.9-6,.08-12.21,1.05-18.21.63-3.85,2-7.54,2.79-11.35,1.46-6.82,1.21-13.88.95-20.84l-.74-.87c2.31-.21,4,2.1,5.09,4.13q1.47,2.61,2.93,5.22a44.82,44.82,0,0,0,4.19-19.37,19.34,19.34,0,0,0-.88-6.2c-.78-2.27-2.19-4.26-3.27-6.4a23.85,23.85,0,0,1-2.36-13.63l-1.56.81-.31-.55a34.41,34.41,0,0,1,1.79-10.05c1.26-3.19,3.66-6.09,6.92-7.11a14.11,14.11,0,0,1,5.06-.4,23.39,23.39,0,0,1,6.1,1.13,29.27,29.27,0,0,1,6.1,3.18,107.43,107.43,0,0,1,10.6,7.76l.26.74a7.08,7.08,0,0,1-4.48,2.93,11.08,11.08,0,0,0,5.75-1.09,12.81,12.81,0,0,0-2,3.34,4.3,4.3,0,0,0,.26,3.77,4.2,4.2,0,0,1,3.18-4.89,8.54,8.54,0,0,1,2.81,9.06c2.24-.7,4.54,1.11,5.66,3.17a8.18,8.18,0,0,1,.25,7.74,2,2,0,0,1,2.9-.51,5.1,5.1,0,0,1,1.73,2.78,19,19,0,0,1,1,5.78l-.51.86a12.94,12.94,0,0,0-3.58,3.68l3.6-.81a1.54,1.54,0,0,1,1.23.07,1.49,1.49,0,0,1,.47.86q1.51,5.25,3,10.51l-3.84,2.52,3.25.13a1.09,1.09,0,0,1,1.28,1.33c.08,1.76.13,3.53.15,5.29a19,19,0,0,1-6,1.58l5.66.43a1.38,1.38,0,0,1,.89.29,1.35,1.35,0,0,1,.28,1l.18,7a13.27,13.27,0,0,0-4.88,1.12c.71.63,1.81.31,2.77.3,2,0,3.86,2,3.14,3.84l0,1.23a3.64,3.64,0,0,0-1.25,5c-12.49-3.7-22.34-14-27.72-25.82a42.86,42.86,0,0,0-3.4-6.77,27.43,27.43,0,0,0-4.59-4.8c-3.94-3.46-8.08-6.68-12.21-9.89,5.67,5.24,6.73,13.63,9.32,20.9,4.76,13.33,15.21,23.7,25.35,33.58,3.89,3.79,8.6,7.87,14,7.13l.41.34a16.25,16.25,0,0,0,.17,4l0,1.25-6.39,2a20,20,0,0,1,6.43.78,31.85,31.85,0,0,1-.1,4.37,1.73,1.73,0,0,1-1.33,1.84l-3.87,1.67c1.63,0,3.26.07,4.89.2a2.16,2.16,0,0,1,1.2.34,2.13,2.13,0,0,1,.54,1.71c0,1.73,0,3.46-.18,5.18a3.74,3.74,0,0,0-4.53,2.47,39.05,39.05,0,0,1,4.59,0,1,1,0,0,1,1.17,1.22l.38,8.51-.32,1.68.69,13a2.27,2.27,0,0,1-.12,1.1c-.33.73-1.27.9-2.07,1l-4.26.41,6.46.48a1.13,1.13,0,0,1,.65.19,1.09,1.09,0,0,1,.29.73l.56,3.84a2.13,2.13,0,0,1-.08,1.23,2,2,0,0,1-.86.73l-2.68,1.54,2.84.5a1.32,1.32,0,0,1,.62.22,1.38,1.38,0,0,1,.37.84c.55,3.13,1.1,6.25,1.66,9.38a1.42,1.42,0,0,1-.08,1,1.44,1.44,0,0,1-.67.46l-3.1,1.3c1,.27,2,.25,3,.5a2.78,2.78,0,0,1,2.18,1.87c.36,1.67-1.62,2.86-3.3,3.21a6.39,6.39,0,0,1,2.35.08,2.11,2.11,0,0,1,1.55,1.6,2.79,2.79,0,0,1-.31,1.47,19.38,19.38,0,0,1-3.59,5.55c-1.64,1.78-3.74,3.56-3.74,6l-3,3.73c-10.37-1.41-21.24-2.77-31,.88a47.19,47.19,0,0,1-6.13,2.2c-1.91.42-3.88.43-5.8.77-6.86,1.22-12.37,6.51-19.12,8.21-3.8,1-7.85.74-11.57,2a24.43,24.43,0,0,0-9.16,6.17,26.29,26.29,0,0,0-6.26,8.66,32.94,32.94,0,0,0-1.79,9.62q-1.45,17.41-2.19,34.87l-11.65,15.27c-10.36,2.43-21.38,5.54-28.13,13.77-1.5,1.83-2.73,3.85-4.07,5.81a69.25,69.25,0,0,1-24.84,22.18l-3.26,6.41c-2.59,13.77-2.24,27.93-1,41.89.55,6.32,1.28,12.64,1.07,19A109.52,109.52,0,0,1,962.4,1732c-2.74,13-6.19,25.93-11.45,38.14a236.51,236.51,0,0,1-12.38,23.93c-8.05,14.07-17.8,29-33.29,33.76l-6.59,2.54c-1.54.79-2.5,2.34-3.51,3.74s-2.32,2.81-4,3c-1.23.15-2.8-.22-3.48.82-.15.24-.23.53-.38.77-.58.86-1.91.68-2.82.18s-1.79-1.23-2.82-1.19c-1.22,0-2.11,1.12-2.83,2.11a2,2,0,0,0-.45.87,2.08,2.08,0,0,0,.1.82l.93,3.6c-1.76-.31-2.11-3.39-3.9-3.35a2.58,2.58,0,0,0-1.07.34l-5.73,2.71c-.44.21-1,.54-.92,1a1.31,1.31,0,0,0,.42.72,14.92,14.92,0,0,1,3.26,5.82,11.92,11.92,0,0,1-5.78-3.81,1.28,1.28,0,0,0-.85-.58,1.1,1.1,0,0,0-.56.21,11.91,11.91,0,0,0-1.82,1.35,1.19,1.19,0,0,0-.43.61,1.23,1.23,0,0,0,.14.67c.75,1.77,1.51,3.54,2.26,5.32-1.95-1-3.1-3.11-4.13-5.06a4.84,4.84,0,0,0-2.67,3.78,14.2,14.2,0,0,0,.32,4.81l2.76.29a2.59,2.59,0,0,1,1.37.41.89.89,0,0,1,.18,1.27,1.27,1.27,0,0,1-.86.24l-5.06.21c0,1,0,2.09,0,3.13v.78c1.83,1.34,4.7-.28,6.6,1a5.28,5.28,0,0,1-3.47,2,34.07,34.07,0,0,0-4,.78l.45,4.8a.62.62,0,0,0,.15.44.74.74,0,0,0,.36.12,36.18,36.18,0,0,0,3.75.28,9.3,9.3,0,0,1,2.84.34,2.61,2.61,0,0,1,1.81,2c.09,1-.82,2-1.75,1.71s-1.2-1.27-1.9-1.82a4,4,0,0,0-3-.44,3.35,3.35,0,0,0-1.65.52c-.89.7-.81,2-.65,3.16a1.82,1.82,0,0,0,.24.8c.31.45.93.53,1.45.67s1.12.55,1,1.09l-1.82.52a.87.87,0,0,0-.53.31.88.88,0,0,0-.09.48c0,3.32,0,6.64,0,10a10.58,10.58,0,0,0,3.28-.8,8.35,8.35,0,0,1-2.25,2.56,2.7,2.7,0,0,0-.85.83,2.38,2.38,0,0,0-.17,1,8.72,8.72,0,0,0,.2,2.6,2.94,2.94,0,0,0,1.56,2,3.14,3.14,0,0,0,1.42.22,6.41,6.41,0,0,0,4.58-2.2l3.91,7.87a50.54,50.54,0,0,1,.48,24.41l6.42-12.38c1.66-4.24,4.2-9.17,8.74-9.51a15.86,15.86,0,0,1,3.43.3c6.24.83,12.68-.84,18.82.56,10.17,2.34,17,14.11,14.16,24.14l6.92,10.9c17.59,22.94,35.28,46,49,71.47,6.71,12.49,12.43,25.49,18.77,38.18a425,425,0,0,0,81.07,111.76l-26.5.49c-17.36.32-34.85.66-51.8,4.4a191.43,191.43,0,0,0-25.91,8c-24,9-47.15,20.79-66.37,37.67Z"></path>
    <path data-name="4a" data-official="Cyrtandra staminea" data-plain="Flower" data-loc="" d="M1842.27,2782.34c5.87,14.61-4,33.9,6.29,45.82,5.45,6.34,14.6,7.76,22.94,8.29a216.58,216.58,0,0,0,27.44,0c8.56-.55,17.76-1.91,23.92-7.88,7.67-7.42,8.18-19.34,8.21-30,.21-58.4,1.8-117.93,20.88-173.13,1.75-5,3.81-10.3,8-13.6,12.81-10.1,31.6,5.25,47.43,1.34,15.5-3.82,20.46-23.65,18.9-39.55a107.91,107.91,0,0,0-14.1-43.58c-2.65-4.56-5.7-9.06-6.68-14.24-.91-4.81,0-9.81-.82-14.63-1.86-10.39-11.7-17.94-13.7-28.3-2-10.12,4-19.86,8.85-28.94a170.06,170.06,0,0,0,18.46-55.78c1.66-11.31,2.12-23.14-1.64-33.94s-12.47-20.43-23.69-22.68l-1.21-8.69c-11.52,4.94-24.2,6.3-36.66,7.61-18.85,2-38,4-56.65.33l.29,8.46c-8.67,7.06-21.23,5.66-32.27,3.88-18.56-3-37.14-6-55.46-10.22-10.47-2.43-21-5.29-31.72-5.36s-22,3-29.41,10.84c-4.32,4.57-7,10.42-9.23,16.31-14.81,39.56-9.2,86.17,14.58,121.08,2.55,3.74,5.36,7.52,6.18,12,.76,4.11-.28,8.31-.41,12.48-.55,18.73,16.35,32.47,28.54,46.71,28.25,33,34.7,78.85,40,122,2.44,19.91,4.89,40,2.85,60-.81,7.91-2.33,15.83-1.56,23.74s4.26,16.07,11.13,20.07Z"></path>
    <path data-name="4b" data-official="" data-plain="Calyx" data-loc="" d="M1751.48,2766.34a63.46,63.46,0,0,0-4-21.68c-3-8-7.56-15.34-11.31-23-13.26-27.27-15.75-58.34-18-88.58-.24-3.14-.47-6.36.39-9.39a17.61,17.61,0,0,1,4.86-7.7c5.15-5,12.29-7.55,19.42-8.4s14.34-.15,21.49.56l21.59,2.13c7.64.75,15.49,1.56,22.28,5.13a15.59,15.59,0,0,1,6,5,18.71,18.71,0,0,1,2.37,7,87.4,87.4,0,0,1,.91,25.22c-1.76,16.18-8,31.48-13.15,46.92s-9.37,31.79-6.89,47.88c2.16,14.07,9.36,27.39,8.87,41.62-.17,4.9-1.35,9.94-4.43,13.76-4,4.95-10.43,7.11-16.61,8.57-8.07,1.91-16.41,3.07-24.65,2.19s-16.42-3.9-22.51-9.53c-3.5-3.22-6.35-7.59-6.27-12.35.12-7.16,6.48-12.43,12.28-16.64Z"></path>
    <path data-name="4c" data-official="" data-plain="Pistil" data-loc="" d="M1660.09,2792.41a37.34,37.34,0,0,1-11.07-35.15c1.44-6.34,4.53-12.17,6.48-18.37,4.19-13.27,3-27.56,2-41.44a1728.7,1728.7,0,0,1-4.08-187.7c.53-16.37,1.3-32.77,3.57-49,2.39-17.11,6.44-34,8.26-51.17,2.34-22.29,1-45.29,7.87-66.61s25.49-41.31,47.88-40.22a27.15,27.15,0,0,1,14.54,4.69,21.33,21.33,0,0,1-12.61,38.63c-5.5,0-11.36-2.11-16.27.37-3.76,1.91-5.82,6-7.3,10-6.78,18.16-6.35,38.1-5.83,57.48q3.84,143.78,7.67,287.56c.2,7.45.41,15,2.28,22.19,2.23,8.55,6.71,16.36,9,24.88a51.22,51.22,0,0,1-2.79,34.15c-1.55,3.43-3.53,6.8-3.83,10.56-.9,11.05,12.64,19.5,11.44,30.53-1.07,9.88-12.69,14.31-22.35,16.63-13.07,3.15-26.67,6.3-39.82,3.52-4.46-.95-9-2.7-11.93-6.15-4.73-5.49-4.32-14-1-20.45s9.09-11.22,14.68-15.83Z"></path>
    <path data-name="4d" data-official="" data-plain="Fruit" data-loc="" d="M1552.84,2723.24c-13.1-20.53-23.79-43-27.56-67.08s-.11-49.87,13.49-70.07c5.69-8.46,13.25-16,22.64-19.93s20.76-4,29.38,1.45c3.87,2.46,7,5.87,10.15,9.25,9.55,10.36,19.47,21.4,22.52,35.16a77.46,77.46,0,0,1,1.35,15.59q.21,12.38.17,24.76c0,12.82-.35,25.93-4.85,37.93-2.91,7.79-7.49,14.83-10.94,22.4s-5.75,16.11-3.73,24.17c1.9,7.59,7.36,13.76,10.28,21a33.52,33.52,0,0,1,.72,22.9,11.77,11.77,0,0,1-3.73,5.95,13.91,13.91,0,0,1-5.37,2c-13.55,3-27.45,5.14-41.31,4.28-6.14-.39-12.45-1.43-17.58-4.82s-8.79-9.62-7.58-15.64c1.8-8.9,12.36-12.95,17.07-20.71a18.06,18.06,0,0,0-1.48-20.33Z"></path>
    <path data-name="4e" data-official="" data-plain="Section" data-loc="" d="M1442.27,2772.55c-3.86-9-13.61-13.81-20.25-21-10-10.89-12.36-26.87-11.07-41.59.3-3.34.78-6.75,2.37-9.69,1.68-3.1,4.45-5.44,7.15-7.71,4.7-3.93,9.46-7.91,14.94-10.66,9-4.52,19.4-5.45,29.49-5.42s20.31,1,29.77,4.48,18.15,9.79,23.06,18.6c7.58,13.61,5,30.66-.4,45.26-2.08,5.58-4.64,11.15-8.84,15.38s-10.36,7.33-12.72,13c-4.3,10.25,6.24,22.08,2.57,32.58-2.92,8.37-13.12,11.3-21.93,12.35a172.92,172.92,0,0,1-32.73.77c-3-.22-6.24-.6-8.58-2.52-4.71-3.85-3.37-11.24-1.61-17.06l5.79-19.11Z"></path>
    <path data-name="4f" data-official="" data-plain="Seed" data-loc="" d="M1364.54,2756c-6.83-6.34-6.24-17.63-2-25.95,2.46-4.88,6-9.33,10.84-12s10.88-3.18,15.72-.67c4.37,2.27,7.27,6.71,8.85,11.37s2,9.61,2.71,14.49c.31,2.29.82,4.81,2.69,6.16s4.51,1,6.81,1.5c5.78,1.16,9.29,7.59,9.08,13.48s-3.21,11.29-6.32,16.3c-3.39,5.45-7.39,11.08-13.4,13.33-3.61,1.35-7.57,1.32-11.42,1.28-6.82-.07-13.89-.2-20-3.12s-11.19-9.44-10.08-16.18c.85-5.14,5-9.44,5.17-14.66Z"></path>
    <path data-name="4g" data-official="" data-plain="Hair magnified" data-loc="" d="M1296.45,2759.62c6.44-5.16,7.75-14.27,8.62-22.48q1.46-13.72,3-27.45c3.56-31.17,7.65-62.71,19.36-91.82,2.56-6.36,5.77-12.93,11.54-16.63s14.79-3.11,18.13,2.88c2.5,4.48,1.08,10.06-.55,14.93-3.54,10.53-7.84,20.89-9.63,31.85a144.29,144.29,0,0,0-1.37,19.94l-1.47,67.27c-.12,5.48-.24,11,.84,16.37.92,4.6,2.69,9,3.94,13.52a61.23,61.23,0,0,1,2,21c-.7,9.16-4,18.82-11.53,24-7,4.81-16.07,4.93-24.52,4.41-10-.6-20.33-2-28.54-7.67s-13.39-16.85-9.33-26c3-6.71,10-10.75,13.71-17.11Z"></path>
    <path data-name="5a" data-official="" data-plain="Tuber of Gesnera allphylla" data-loc="" d="M194.91,2825c-1.85-11.51-12.53-19.78-23.63-23.34s-23-3.58-34.48-5.55-23.44-6.51-29.83-16.27c-5.06-7.72-5.92-17.68-11.22-25.25-6.94-9.94-19.65-13.54-30.29-19.35a72.4,72.4,0,0,1-35.33-46.63c-1.13-4.93-1.73-10.13-.44-15,3.09-11.74,15.47-17.92,25.76-24.38,8.42-5.28,16.82-12.85,17.42-22.77.8-13.23-12.17-22.77-17.61-34.85-6.15-13.65-1.9-30.38,7.62-41.93s23.46-18.62,37.68-23.3c16-5.26,34.17-7.69,49,.15,7.33,3.87,13.25,9.95,20.35,14.21a48.25,48.25,0,0,0,38.11,4.82c3.22-1,6.48-2.36,8.63-4.95,3-3.61,3.23-8.67,3.95-13.31,1.91-12.26,8.87-24.26,20-29.67s26.5-2.43,32.92,8.19c7.33,12.14,1.66,29.21,9.66,40.92,8.74,12.79,27.4,11.54,42.82,13,30.52,3,60.38,26.83,61.78,57.47.74,16.36-6.22,33.31-.66,48.71,2.1,5.83,5.89,11,7.73,16.89,2.51,8.07,1.2,16.89,3.33,25.06,3,11.36,12.44,21,12.08,32.76-.17,5.38-2.44,10.44-4.68,15.34L397,2775c-1.2,2.64-2.47,5.36-4.66,7.26-3,2.62-7.25,3.2-11.22,3.68l-27.31,3.3c-24.2,2.91-51.2,7.4-65.6,27.06-5,6.78-8,14.9-13.53,21.2-11.51,13.05-30.71,15.26-48.06,16.59-7.22.55-14.69,1.07-21.54-1.28s-13-8.36-13.14-15.6"></path>
    <path data-name="5b" data-official="" data-plain="Pistil with Glands" data-loc="" d="M430.28,2745c-2.75-7.45-10.23-12.17-13.91-19.2-2.31-4.43-3-9.54-3-14.53a30.49,30.49,0,0,1,1.37-10.1c1.82-5.34,5.72-9.66,9.08-14.18,8.85-11.88,14.36-25.85,19.77-39.63,4.9-12.49,9.81-25,13.47-37.9,1.68-5.93,3.17-12.09,6.78-17.08s10-8.55,15.92-6.81a13.91,13.91,0,0,1,5.63,3.44c8.34,8.05,7.32,21.91,2.64,32.51s-12.31,19.82-15.95,30.82a46.71,46.71,0,0,0,4.37,38.37c4.93,8.1,12.64,15.56,12.42,25-.19,7.81-6,14.9-5.19,22.68.52,5.32,4,9.8,6.75,14.39,4.53,7.54,7.3,17,3.8,25.11-4.45,10.24-16.83,14.13-27.86,15.8a181.36,181.36,0,0,1-27.24,2.07c-5.41,0-12-1-14.06-6s1.67-10.14,4.06-14.92a31.58,31.58,0,0,0,2.64-20.5Z"></path>
    <path data-name="5c" data-official="" data-plain="Stamens" data-loc="" d="M538.66,2754.27c1-4.72-4.15-8.51-8.88-9.45s-9.92-.49-14-3c-4.45-2.78-6.3-8.43-6.31-13.67s1.44-10.36,2.06-15.56c1.44-12-1.54-24.77,2.92-36,2.4-6.07,6.79-11.19,9.2-17.25,4-10.17,2.08-22,6.09-32.13a29.46,29.46,0,0,1,17.28-16.7c5.91-2.1,12.31-2.23,18.57-2.15,9.63.12,19.49.74,28.35,4.53s16.64,11.3,18.35,20.78c.62,3.41.44,6.93.93,10.37,1,7,4.61,13.26,6.7,20,2.68,8.6,2.79,17.76,2.82,26.77,0,13.06,0,26.12-.1,39.18,0,4.08-.07,8.29-1.64,12.06-3.92,9.38-15.8,13.08-20.69,22-2.62,4.76-3.12,10.83-7.14,14.48-2.72,2.47-6.52,3.29-10.15,3.87a130.6,130.6,0,0,1-29,1.35c-4.77-.3-10-1.12-13.09-4.75-3.42-4-3-10-2.32-15.22Z"></path>
    <path data-name="5d" data-official="" data-plain="Seed magnified" data-loc="" d="M640.44,2757.41c5.29-4.44,10.92-9.43,12.17-16.22.82-4.51-.44-9.09-1.41-13.57-3.09-14.13-3.29-29.2,1.73-42.76,2.78-7.49,8.83-15.33,16.79-14.59,4.21.4,7.81,3.2,10.77,6.23,5.27,5.42,9.49,12.32,9.85,19.88.3,6.34-1.92,13.47,1.86,18.58,1.6,2.15,4,3.51,6.28,5,6.67,4.28,12.58,10.15,15.5,17.52s2.43,16.35-2.5,22.55c-7.51,9.46-21.61,9.59-32.47,14.87-5.31,2.58-9.89,6.45-14.9,9.59s-10.84,5.6-16.7,4.85a16.39,16.39,0,0,1-11.34-25.69Z"></path>
    <path data-name="6a" data-official="" data-plain="Flower of Gesnera grandiflora" data-loc="" d="M769,2772.81l-17.31-40.71c-6.15-14.47-12.46-29.19-22.62-41.2-2.1-2.48-4.45-5-5-8.23-.86-5.11,3.23-9.76,7.65-12.47s9.56-4.46,13.15-8.19c5.2-5.39,6-13.57,9.47-20.19,5.39-10.21,16.66-15.75,27.57-19.54a176.75,176.75,0,0,1,115.07,0c13.68,4.76,27.41,11.77,35.37,23.87,2.49,3.78,4.39,8,7.61,11.17,7.62,7.47,21.9,8.5,25,18.71,2.25,7.44-3.25,14.77-8.22,20.75-18.69,22.52-35.06,47.57-43.46,75.6-2.56,8.53-4.4,17.39-8.61,25.24-3.78,7.06-9.33,13-13.06,20.11-1.7,3.22-3.06,6.72-5.66,9.27-4,3.91-10,4.75-15.53,5.38l-32.26,3.68c-5.29.61-10.73,1.2-15.89-.16s-10-5.13-11.08-10.35c-.58-2.88,0-6-1.16-8.71-2.19-5-8.82-5.76-14.19-6.9a40.33,40.33,0,0,1-28.45-23.79Z"></path>
    <path data-name="6b" data-official="" data-plain="Ovary with Calyx" data-loc="" d="M1040.34,2753.13c-14.32-2.6-25.32-14.86-30.67-28.39-.58-1.48-1.19-3.07-2.49-4-1.69-1.18-4-.82-6-1.21-6.59-1.29-8.63-9.73-8.29-16.44s1.28-14.46-3.52-19.15c-1.66-1.64-3.84-2.65-5.56-4.23-5.24-4.84-4.44-13.94.19-19.37s12-7.79,19-8.69a13.72,13.72,0,0,0,4.76-1.14c2-1,3.18-3,4.33-4.91,4.35-7.07,9.11-14,15.5-19.34s14.66-8.79,22.91-7.88,16.14,6.92,17.68,15.07c.31,1.63.48,3.5,1.81,4.5s2.91.68,4.43.5a36,36,0,0,1,20.85,3.88c5.43,2.87,10.55,8.4,9.3,14.41-1.11,5.3-6.48,8.34-10.22,12.25a3,3,0,0,0-1.07,2.16,3.31,3.31,0,0,0,1.36,2c7.53,6.72,12,16.45,13.51,26.43s.22,20.24-2.42,30c-.69,2.57-1.48,5.2-1.14,7.83a19.69,19.69,0,0,0,1.58,4.93,140.51,140.51,0,0,1,10.52,49.49c.24,8.24-.46,17.07-5.48,23.62s-13.75,9.63-22,11.61c-9.21,2.22-18.69,3.71-28.14,3-7.12-.55-14.86-2.86-18.58-9s-2.23-14,.65-20.48a54.47,54.47,0,0,1,13.1-18.19c3.11-2.83,6.56-5.32,9.19-8.6s4.35-7.63,3.27-11.69a3.22,3.22,0,0,0-1-1.82,3.94,3.94,0,0,0-2.12-.56l-19.2-1.27Z"></path>
    <path data-name="6c" data-official="" data-plain="Section of Fruit" data-loc="" d="M1165.86,2766.58c-4.21-9-14.78-12.79-22-19.6-7-6.6-10.7-16-13-25.31a111.34,111.34,0,0,1-3.15-25.38c-.06-7.1.63-14.45,4.1-20.64a36.58,36.58,0,0,1,10.66-11.26c19.28-14.08,44.8-16.74,68.55-14.23,12.78,1.35,26.18,4.44,35.34,13.45a42.38,42.38,0,0,1,7.88,11.06c6.94,13.65,8,29.94,4,44.73s-12.58,28.11-23.58,38.74c-3.79,3.67-8.21,7.8-8,13.07.18,3.79,2.78,6.95,5,10.05,3.47,4.88,6.27,10.74,5.39,16.67a14.91,14.91,0,0,1-6.3,10c-2.91,2-6.42,2.82-9.85,3.55a195.75,195.75,0,0,1-39.29,4.22c-6.42,0-13.91-.84-17.27-6.3-3-4.92-1.26-11.28.81-16.66s4.4-11.37,2.26-16.73Z"></path>
</svg>
