
<svg xmlns="http://www.w3.org/2000/svg" viewBox="0 0 2103 2725" id="illustration" preserveAspectRatio="xMidYMid meet">
  <title>Vacciniaceæ</title>
    <path data-name="1" data-official="Vaccinium Myrtillus" data-plain="Black Whortle-berry" data-loc="Britain" d="M1193.62,697.27a17.51,17.51,0,0,0-1.61-7c-3.48-6.43-12.42-6.41-19.68-7.28a46.11,46.11,0,0,1-21-8c-4.88-3.43-9.37-8.5-9.27-14.46a23.25,23.25,0,0,1,2-7.68l8.67-22.71,3.34-9.7a46,46,0,0,1,4.83-12.92c1.08-1.93,2.34-4,2.16-6.17-.2-2.47-2.16-4.42-4.18-5.85a56.28,56.28,0,0,0-7.53-4.26,2.71,2.71,0,0,0-2.06-.4c-.7.27-1,1.05-1.48,1.65-1.64,2.14-5.32,1.69-7-.4l.48-6.68c-5.71-4.21-9.61-11.47-8.16-18.41a3.07,3.07,0,0,0,.1-1.31,2.32,2.32,0,0,0-.64-1c-2.09-2.21-5.08-3.27-7.7-4.84-3.68-2.2-6.63-5.43-9.89-8.22-3-2.54-6.22-4.76-8.79-7.7s-4.41-6.81-3.8-10.65a2.85,2.85,0,0,0,0-1.56,2.5,2.5,0,0,0-.9-.93c-2.28-1.67-4.34-3.63-6.64-5.26a15.32,15.32,0,0,0-7.76-3.14,7.94,7.94,0,0,0-7.3,3.4l-7-5.81q-17.25-24.84-36.16-48.46l-2-7.16a15.1,15.1,0,0,0-2.43-5.82c-1.21-1.77-2.84-3.36-3.34-5.45a5.69,5.69,0,0,1,1.74-5.48c-8.65.62-17.88-.94-24.55-6.49-2.23-1.86-4.13-4.12-6.54-5.73l-3-4.5a22.58,22.58,0,0,1-3.27-10L979,417.6c-2.62-.6-5.45-1.33-7.11-3.45l-4.08-4.4c-2.16-2.7-2.62-6.34-3-9.78a36,36,0,0,1-11.87-2.36,9,9,0,0,0-3.3-.86l-5.24,1.19c-5.46-1.4-9.83-5.36-14-9.2L922,380.91l-10.53-9.44a146.21,146.21,0,0,0-5.48-32,6.63,6.63,0,0,1-.4-2.94,5.67,5.67,0,0,1,1.57-2.78,20.24,20.24,0,0,1,5.51-4.31l5.73-1.15c6.7-2.52,13.26-6.17,20.42-6.16,4,0,8.22,1.18,12.05-.12l3.43,3.41c1.28.21,2,1.72,3.29,2a4.06,4.06,0,0,0,1.73-.1,25.92,25.92,0,0,1,6.34-.45,5.46,5.46,0,0,0,2.42-.21,7,7,0,0,0,1.77-1.36,9,9,0,0,1,3.59-1.93l5.07-2.12c2.15-.33,4.48.5,6.47-.39A14.15,14.15,0,0,0,987.5,319a9.84,9.84,0,0,1,5.93-2,7.45,7.45,0,0,1,4.29,1.22A5.08,5.08,0,0,1,1000,322l1.41,2.54c3,.43,6.15-.13,9.17.37a10.61,10.61,0,0,0,3.35.33c2-.32,3.29-2.07,4.42-3.69l13.6-10.21q15.52-42.74,29.26-86.08c1.34-4.22,2.65-8.89.9-13-2.55-6-10.14-7.6-16.62-8-32.22-2.07-65.75,5.9-96.2-4.81-2.69-.95-5.49-2.16-7.06-4.55a12.7,12.7,0,0,1-1.6-6.61c-.52-14.31,4.34-28.18,7.19-42.22s3.37-29.73-4.77-41.51c-12-17.41-37.47-18.91-57.9-13.43a127.31,127.31,0,0,0-61.57,37.91c-7.09,7.94-13.18,16.78-20.76,24.25-10.19,10.05-22.72,17.33-35.11,24.49-12.36-15.05-24.84-30.22-40.1-42.3s-33.75-21-53.21-21.55c-3.08-.08-6.3.07-9,1.57s-4.57,4.19-6.12,6.88c-8.51,14.72-11.22,32.08-12.11,49.06a261.38,261.38,0,0,0,4.7,65l-3.3,15.18c-20.21,14.11-37.1,33.81-44.77,57.23s-5.22,50.66,9.25,70.61c-14.77,5.63-31.95,1.82-46.53,7.92-11.84,5-20.13,15.66-27.86,25.91s-15.51,20.59-23.27,30.88c-2.9,3.84-5.93,8.1-5.79,12.91.13,4.41,2.9,8.23,5.4,11.87a141.84,141.84,0,0,1,18.48,38.21l-2.38,16.17c5.22,13.09,10.51,26.42,11.74,40.46s-2.16,29.16-12.18,39.08c-5.78,5.74-13.3,9.33-20.73,12.68-14.44,6.51-29.47,12.58-45.29,13.38-29.84,1.52-60.76-15.64-88.48-4.47-15.18,6.12-26.42,19.95-41.88,25.34-16,5.58-33.54,1.21-50.45-.21a143,143,0,0,0-72.71,13.14c-5.47,2.59-10.87,5.59-15.06,9.95-14.23,14.83-9.85,39.36-.64,57.73,20.59,41.08,61.4,71.39,106.67,79.25-10.06,22,2.39,47.73.2,71.86-1.13,12.57-6.25,24.43-8.39,36.86s-.56,26.82,9.07,35c10.92,9.24,27,6.85,41.33,6.41s32,4.65,34.46,18.75c1.17,6.79-1.82,13.6-2.06,20.49s4.65,15.21,11.41,13.85l12.86,14c3.48,5.43,7.83,11.41,14.24,12,5.45.54,10.5-3.16,13.71-7.59s5.16-9.66,8.11-14.27a38.12,38.12,0,0,1,11-11.12c6.24-4.12,14.88-6.17,21-1.91,4.6,3.19,6.5,8.93,8.36,14.21s4.35,11,9.42,13.33c3.88,1.82,8.55,1.3,12.43,3.14a30.12,30.12,0,0,1,5.95,4.4c5.26,4.34,11.46,7.35,17.6,10.31l1.75,1.68a36.72,36.72,0,0,0,31-3.07c7.64-4.62,13.26-11.84,19.53-18.19a1.21,1.21,0,0,1,.66-.42c.44-.05.78.36,1,.72a25.09,25.09,0,0,0,19.41,10.46l2.55,2.12a43.48,43.48,0,0,0,11.52,2l9.57-.91a32.34,32.34,0,0,0,9.5-.62l4.81-.8a28.2,28.2,0,0,0,3.38-.71c4.79-1.44,8.47-5.49,10.46-10.08.78-1.8,1.44-3.83,3.07-4.91l6.1-6.73c7.94-3.63,17.48-1.23,24.91,3.35s13.43,11.11,20.19,16.62c8.91,7.25,19.36,12.92,26.37,22,3.88,5,6.52,10.92,9,16.79,6.67,15.8,12.47,32.31,13.15,49.45a85.72,85.72,0,0,1-2.44,23.88,40,40,0,0,1-3.66,10c-2.8,5-7.14,8.9-10.65,13.42-4,5.09-6.88,11-11.37,15.62s-11.28,7.89-17.36,5.77l-8.8-1.84c-9.13-1.7-15.88-9.52-24.56-12.83-4.36-1.67-9.07-2.14-13.72-2.41-26.6-1.53-53.1,3.26-79.31,8-5.19.94-10.49,1.93-15.07,4.54a23.6,23.6,0,0,0-11,14.5c-5.57-9.82-15.52-16.19-25.09-22.17-6.92-4.33-13.91-8.68-21.55-11.54-9.26-3.45-19.22-4.6-29.1-5a123.15,123.15,0,0,0-26.52,1.25c-17.71,3-35,11.65-52.8,9l-8.17-.41c-6.67-1.52-13.24,2.5-18.77,6.52s-11.62,8.46-18.44,7.88c-2.85-.24-5.55-1.36-8.29-2.22a46.93,46.93,0,0,0-37.57,4.38l-8.58,3.48A25.76,25.76,0,0,0,284,1204c-1.28,1.1-2.46,2.34-3.85,3.32s-3,1.68-4.45,2.69c-2.45,1.75-4.15,4.35-6.5,6.23a10.22,10.22,0,0,0-3,2.86c-1,1.87-.25,4.14.5,6.11l.14,2.48a28.69,28.69,0,0,1,7.41.38,10.18,10.18,0,0,1,6.19,3.83c1.22,1.76,1.64,4,2.74,5.81,1.54,2.58,4.25,4.21,6.84,5.74l9.79,5.76,7.74,10.79,23,17.92a68.93,68.93,0,0,1,8.82,7.7,35.38,35.38,0,0,1,8.4,30.44l-5.09,5.43a11.2,11.2,0,0,1-7.55,6.6c-1.45.36-3.19.57-3.89,1.89-.43.79-.33,1.77-.72,2.58-.69,1.42-2.63,1.75-4.16,1.34s-2.85-1.37-4.34-1.87-3.42-.42-4.34.86a2.31,2.31,0,0,1,0,2.72,4.37,4.37,0,0,1-2.4,1.56,8.69,8.69,0,0,1-8.85-2.51c-.86-1-1.6-2.21-2.86-2.51a8,8,0,0,1-1.72-.31,4.52,4.52,0,0,1-1.23-1.2A4.69,4.69,0,0,0,297,1329c-1.08,0-2.45.28-3-.64a7.54,7.54,0,0,1-.39-1.19,2.87,2.87,0,0,0-2.78-1.44,19.29,19.29,0,0,1-3.31.07c-1.13-.22-2.12-.92-3.23-1.21-3-.79-6.2,1.66-9.28,1l-4.52-2.93a14,14,0,0,0-5.81.76l-6.56,1.82-5,4c-1.61,3.08-.44,7.12,2.14,9.45a13.32,13.32,0,0,0,9.72,2.92,19.73,19.73,0,0,0,9.58-3.16l3.09-.2,5.42.5a3.65,3.65,0,0,1,2,.6,2.7,2.7,0,0,1,.32,3.32,26.5,26.5,0,0,1-2.22,2.87c-2,2.73-1.86,6.38-1.69,9.74s.51,7,3,9.21c1.33,1.19,3.18,1.84,4.12,3.36l-6.43,2a33.6,33.6,0,0,0-19.13,4.9l-.4,12.82a27.15,27.15,0,0,0,6.59,20.28c2,2.26,4.36,4.18,6.16,6.59s3,5.55,2.16,8.44a5.67,5.67,0,0,1,5.08-.9,29.63,29.63,0,0,0,3.13,19.11l-.8,7.82q-5.06,10.41-10.1,20.83l-4.8,5.4c-4.84.8-9.92,1.56-13.88,4.46s-6.29,8.7-3.67,12.84c1.66,2.63,4.76,3.9,7.7,4.87a87.44,87.44,0,0,0,22.43,4.17c2.59.13,5.19.15,7.78.17l16.78.13a21.62,21.62,0,0,1,3.41.21,20.21,20.21,0,0,1,3.7,1.12,84.84,84.84,0,0,1,17.08,9,21.82,21.82,0,0,1,5.94,5.42,12.81,12.81,0,0,1-1,15.27c-3.14,3.53-8,5-11.87,7.64-5.77,3.93-9.3,10.33-12.61,16.48l0,6.3c-1.08,7,2.53,13.73,6,19.88.65,1.15,1.49,2.43,2.8,2.61.59.08,1.26-.06,1.71.32a1.25,1.25,0,0,1-.14,1.76,3.48,3.48,0,0,1-1.83.7,81.8,81.8,0,0,1-11.68,1.17l-13.9,17.83c-2.9,1.19-6,2.68-7.28,5.54-2.33,5.25,3,10.66,8.12,13.26a53.2,53.2,0,0,0,15.7,5.09c6.88,1.09,14.19.9,20.37,4.11,10.45,5.43,14,18.35,16.56,29.85q3.92,17.82,7.84,35.64l1.55,8.76c-1.75,2.21-4.73,3.06-7.55,3.18s-5.63-.34-8.44-.17c-5.21.33-10,2.83-14.6,5.29-10.4,5.56-20.91,11.34-29.23,19.69a31.85,31.85,0,0,0-6.46,8.68c-3.5,7.45-2.39,16.43,1.15,23.86s9.24,13.59,15.05,19.42a370.2,370.2,0,0,0,54.13,44.85,66.5,66.5,0,0,0,8.53,5.13,100.12,100.12,0,0,0,12,4.27,133.35,133.35,0,0,1,16.45,6.58l14.65-2.31c5.59.39,12.05,1.27,14.94,6.06,1.1,1.81,1.5,4,2.15,6,3.54,11,14.1,17.93,23.94,24a52.53,52.53,0,0,0,10.34,5.35c3.71,1.27,7.64,1.7,11.48,2.53,10,2.16,19.44,7.07,29.65,8.05s20.41-2.05,30.26-5.06l45.11-13.78a65,65,0,0,0,17.53-7.59l15.71-9h10.42c2.2,2.63,5.83,3.46,9.19,4.14,2.47.5,5.38.88,7.2-.87,1.11-1.06,1.71-2.84,3.21-3.17,1.3-.28,2.49.71,3.45,1.64L658.84,1877a4.15,4.15,0,0,1,1.28,1.75,4.27,4.27,0,0,1,0,1.88q-.9,5.15-1.81,10.3l7.93,7a65.6,65.6,0,0,0,21.87,15.2c5,2.12,10.52,3.84,13.78,8.15,2.9,3.83,3.37,8.92,3.73,13.7l2.43,32.16v7.95a10.89,10.89,0,0,0,15.92,12.22c1.59,3.45,0,7.57-2.27,10.6s-5.32,5.49-7.23,8.77a4.52,4.52,0,0,0-.75,2.17c0,2,2.1,3.27,3.65,4.58A10.81,10.81,0,0,1,716,2031l.68,8.53q.54,7.37,1.09,14.74a6.72,6.72,0,0,0,1.2,4c1.12,1.26,3,1.48,4.41,2.38,3.34,2.1,3.23,6.9,2.89,10.83a139.56,139.56,0,0,0-.06,23.13l.87,1a105.4,105.4,0,0,0,10.83-11.43,16.64,16.64,0,0,1,3.82-3.81c1-.65,2.29-1.11,2.9-2.17a6.13,6.13,0,0,0,.47-2.8,14.59,14.59,0,0,1,2.34-7.3l2.15-7.78c3.32-38.87-4.1-77.84-4.47-116.86-.18-18.08,1.12-36.57-4.1-53.88l-.08-9.22c1.45-17.77-2.28-35.57-2.27-53.41a5.17,5.17,0,0,1,.6-2.89,5.63,5.63,0,0,1,2.19-1.61,17.74,17.74,0,0,0,5.71-4.6,26.08,26.08,0,0,0,2.68-4.53l5.67-11.25a143.59,143.59,0,0,0,6.64-14.5c3.19-8.6,4.67-17.72,6.14-26.78l-1.65-13.43c1.87-1.63,4.91-1.32,6.73-3a7.92,7.92,0,0,0,1.68-2.81c.93-2.19,1.86-4.39,2.78-6.58a18.62,18.62,0,0,0,1.62-5.19c.37-3.43-1.17-6.74-2.67-9.85a7.41,7.41,0,0,0-1.67-2.51,6.94,6.94,0,0,0-2.72-1.23,55.06,55.06,0,0,0-14.67-2,17.42,17.42,0,0,1-5.86-.53,14.56,14.56,0,0,1-5.31-3.9,176.7,176.7,0,0,1-29.48-39.77l-4.86-21.44c2.64-12.45,5.28-24.94,6.17-37.64a9.07,9.07,0,0,1,.58-3.15c.91-2,3.16-3.1,5.22-4-.85,4,1.59,8.35,5.2,10.37s8.1,2,12,.81a6.67,6.67,0,0,1,2.36-.48c1.81.13,3.62,1.93,5.16,1a3.66,3.66,0,0,0,1-1.18,42.54,42.54,0,0,1,10-10.2c1.17-.88,2.37-1.73,3.45-2.71,1.81-1.65,3.27-3.66,5-5.39a23.16,23.16,0,0,1,11.49-6.23l8.66.19c9.48-1.09,19.16-1.61,28.52.28,4.08.83,8.11,2.11,12.27,2.22a3.84,3.84,0,0,0,4.66-3.32c1.19-4.28,1.07-9.08-1.19-12.9a25.71,25.71,0,0,0-6-6.31l-6.8-6.78a47.14,47.14,0,0,1-1.85-14.84,29.93,29.93,0,0,1,1.62-9.25c1.67-4.58,4.8-8.46,7.88-12.25a23.55,23.55,0,0,1,3.67-3.86,33.34,33.34,0,0,1,5.22-2.94c5.78-3,10.73-7.33,15.62-11.63,4.13-3.64,8.38-7.42,10.69-12.42,2.45-5.31,2.43-11.4,3.86-17.07s5.21-11.59,11-12.23l5.88,2a12.54,12.54,0,0,1,15-.63c-.92-12.52-.8-25.37,2.8-37.4l.31-5.87a78,78,0,0,0-1-8.6c-.88-6.93-.64-13.94-.41-20.92l.45-6c2.19-12.65,4.4-25.45,3.41-38.25-.38-4.88-1-10.42,2.2-14.1,3.8-4.35,10.8-3.56,16.15-1.4,11.44,4.63,20.62,13.61,28,23.46S964,1379.57,971,1389.69c11.89,17,26.88,31.91,37.37,49.85,6.94,11.86,11.86,25,20.25,35.86l2.76,8.43,8.32,18.47a57.09,57.09,0,0,0,3.65,7.19c1.81,2.88,4.11,5.42,6.09,8.19a43.63,43.63,0,0,1,7.82,21c.49,5.17.68,11.51,5.31,13.86l.08-.23a25.55,25.55,0,0,1,4.79-14c1.51-2.1,3.36-4,4.47-6.32s1.32-5.36-.38-7.31c4.29-.73,6.49-5.46,7.89-9.58a331.21,331.21,0,0,0,11.34-42.34l1.55-6.79a110,110,0,0,0,4.1-26.24c.19-5.51-.23-11.55-3.94-15.63-2.14-2.35-5.11-3.74-7.92-5.24a81.48,81.48,0,0,1-16.28-11.47c-3.24-2.94-6.36-6.34-7.48-10.57-.82-3-.53-6.27-.2-9.4q1.55-14.54,4-28.94l2.15-10.48c-1.59-11.2,5.49-21.63,8-32.67s.4-22.56,1.47-33.81c.7-7.28,2.73-14.41,3.09-21.71.73-14.46-5.06-28.36-10.74-41.68l-5.09-15.22-2.8-7.77a4.52,4.52,0,0,0-.74-1.45,4.57,4.57,0,0,0-1.58-1c-5.85-2.54-12.26-4.52-16.57-9.21-.65-.7-1.41-1.53-2.35-1.4s-1.42,1-1.82,1.8q-1.8,3.63-3.62,7.25a2.26,2.26,0,0,1-.75,1,2.21,2.21,0,0,1-1.11.21,17.1,17.1,0,0,1-15.79-11.58l-2.78-15.94c.07-3.66-2.69-6.69-5.35-9.2a47.25,47.25,0,0,1-6.51-6.91,13.17,13.17,0,0,1-2.66-8.92,29.89,29.89,0,0,0-7.52-2.26,10,10,0,0,0-7.45,1.82l-12.83-13c-.14-2.27-.27-4.54-.41-6.81a4.53,4.53,0,0,0-.4-1.94,5,5,0,0,0-1.66-1.52,70.1,70.1,0,0,1-7.58-6.19,48.77,48.77,0,0,1-7.3-7.56,16.61,16.61,0,0,1-3.45-9.77l-1.06.24a3.48,3.48,0,0,1-2.33-.78l-2.36-1.51a17.28,17.28,0,0,1-2.87-2.14c-1.15-1.14-2.09-2.69-3.65-3.1a4.08,4.08,0,0,0-3.15.64,11.68,11.68,0,0,0-2.41,2.25l-2.6-2a11,11,0,0,0-.63-4.92c-.4-1.07-1-2.07-1.26-3.17-.79-3,.63-6.12,1-9.22a2.29,2.29,0,0,0-.19-1.49,2.63,2.63,0,0,0-1.13-.86l-17.45-8.69a6.12,6.12,0,0,0-1.87-.69,4.12,4.12,0,0,0-3.42,1.43,12,12,0,0,0-2,3.28l-4.24-4.07c.47-1.69.95-3.38,1.42-5.07.79-2.84,1.58-5.68,2.31-8.54.22-.86.34-2-.41-2.44a2.5,2.5,0,0,0-1.77,0,8.38,8.38,0,0,1-5.52-.79c-1.1-.58-2.06-1.4-3.16-2a4.36,4.36,0,0,0-3.59-.47c-1.13.46-1.84,1.56-2.75,2.37-2.74,2.45-6.92,2-10.55,1.35l-6.9-4.86c-3.76-3.74-7.65-7.57-12.54-9.65-4.5-1.91-9.49-2.19-14.35-2.69a142.53,142.53,0,0,1-34-7.8c-2.53-.91-5.43-2.4-5.69-5.07-.17-1.77.94-3.41,2.25-4.61,4.69-4.29,11.64-4.59,17.75-6.37,6.56-1.91,12.52-5.73,19.25-6.94,2.63-.48,5.34-.54,7.9-1.31,3.35-1,6.22-3.12,9.25-4.85,9.07-5.19,19.65-6.89,30-8.51l3.75,2q5.28,3.24,10.76,6.12a6.89,6.89,0,0,0,5.12,1l19.35-1.8,3.49-.67a20,20,0,0,0,3.71-3.65,34.43,34.43,0,0,1,3.24-4.05c2.67-2.49,6.53-3.18,10.17-3.43s7.41-.2,10.77-1.61l35.24,2.3a22.21,22.21,0,0,1,18,4.69c.84-2.13,3.13-3.28,5.3-4s4.52-1.32,6.12-3l5.19-9.28c4.06-12.29,8.16-24.71,9.33-37.61,1-10.49,0-21.09,1-31.57a144,144,0,0,1,3.56-18.72c1.3-5.39,2.82-11,6.71-15s11-5.3,14.89-1.36l13.16-.75a18,18,0,0,0,11.69-.07,2.27,2.27,0,0,1,1-.19,2.29,2.29,0,0,1,1.17.79c3.07,3,7.66,3.64,11.91,4.14a16.57,16.57,0,0,0,5.62,0,5.58,5.58,0,0,0,4.18-3.41l.57-.2c2.08,0,4.17,0,6.24-.06,2.73-.13,5.63-.51,7.69-2.3,1.72-1.49,2.58-3.71,3.38-5.83l.9-.32a22.64,22.64,0,0,0,7.11-2,5.46,5.46,0,0,0,2.81-2.38c.35-.75.38-1.61.77-2.33.67-1.27,2.18-1.78,3.49-2.38,2.47-1.15,4.79-3.56,4.34-6.25a3.29,3.29,0,0,1-.1-1.52,2,2,0,0,1,.64-.84c1.8-1.45,4.55-1.48,6-3.25,1.23-1.45,1.16-3.58,1.86-5.35,1.2-3,4.51-4.66,7.71-5.19s6.48-.25,9.68-.77,6.51-2.14,7.75-5.13a7.69,7.69,0,0,0-.38-6.24,12.57,12.57,0,0,0-4.3-4.69,18.58,18.58,0,0,0-16-2.26l-6.93-7.42c-4.27-1.88-5.1-7.79-3.63-12.22s4.51-8.21,5.94-12.66c3.29-10.25-2.66-21-9.1-29.67l25.5-10.24c5.61-2.25,11.48-4.7,15.21-9.46C1194.08,713.41,1194.22,705,1193.62,697.27ZM707.14,1615.94l-1.62,7.22c-.69,3.08-1.74,6.62-4.66,7.83a10,10,0,0,1-5.08.24l-5.38-.71-9.15-4.47a8.17,8.17,0,0,1-2.87-2,7.7,7.7,0,0,1-1.31-3.27c-.88-3.91-1.34-8.49,1.35-11.46a12.87,12.87,0,0,1,3.11-2.3,37.52,37.52,0,0,1,9-4.19,21.15,21.15,0,0,1,9.06-.48c2.94.5,6,1.81,7.42,4.43S707.82,1612.91,707.14,1615.94ZM895.77,370.11a74.45,74.45,0,0,1-27.48-9.63,32,32,0,0,0-4.83-2.58,8.33,8.33,0,0,1-2.37-1.12c-1.09-.88-1.48-2.34-2.28-3.48a6.36,6.36,0,0,1-1.48-2.41c-.22-1.44,1.1-2.6,2.3-3.42a31,31,0,0,1,9.58-4.75c1.51-.39,3.06-.6,4.57-1,4-1,7.62-3.2,11.15-5.37l5.42-.13c2.53,1.8,3.56,5,4.31,8a135.85,135.85,0,0,1,3.67,22.32Zm229,1826.77a102.9,102.9,0,0,1-19.13,63.26l-6.8,15c-2.19,8.9-4.4,17.9-8.58,26.05-2.49,4.87-5.66,9.37-8.25,14.19-2,3.65-3.59,7.47-5.58,11.1-1.65,3-3.56,5.93-4.54,9.23a26,26,0,0,0-.92,6.8c-.24,12.77,4.75,25.22,4.46,38a13.1,13.1,0,0,1-.75,4.62c-1.69,4.21-6.56,6-10.91,7.34l-8.64,2c-4.76-2.56-10.61.59-14.48,4.37s-7.4,8.48-12.65,9.78c-8.61,2.14-19.4-5.48-25.67.79-3.42,3.43-2.93,9-4.24,13.68a17.25,17.25,0,0,1-8.81,10.64c-8.29,4.13-18.91.6-25-6.33s-8.47-16.49-9-25.73.52-18.52.19-27.77c-1.2-33.53-20.43-65.78-15-98.89l-3.35-7.16c-10.41-3.6-21.38,5.09-32.34,4-5.52-.56-10.45-3.56-15.15-6.5-3-1.9-6.16-3.87-8.38-6.7a22.46,22.46,0,0,1-3.54-7.13,42,42,0,0,1-.34-24.44c1.7-5.83,4.66-11.28,5.79-17.24s-.1-13-5.13-16.42l-5.82-4.57-27.07,3.57c-7.91,1-16.66,1.9-23.22-2.65-2.25-1.56-4.13-3.7-6.64-4.79-4.25-1.83-9.11-.2-13.74-.24l-3.21-.71a5.8,5.8,0,0,1-6.44-2.29c-.62-1-.94-2.06-1.54-3-1.13-1.79-3.12-2.83-5-3.78s-3.91-1.91-6-1.58a20.46,20.46,0,0,0-2.73.84,10.79,10.79,0,0,1-13-6.64c-.91-2.76-.65-5.84-1.82-8.5-1.8-4.13-6.4-6.11-10.33-8.34a45,45,0,0,1-19.51-22.63l2.24-5.21c1.15-1.57,3.33-2,5.27-1.83s3.82.81,5.76.93c2.37.14,4.73-.52,7.1-.55a13.56,13.56,0,0,1,8.56,2.93l4.38,4.85q8.07,9,16.72,17.59l6.32,5.77a11,11,0,0,1,2.82,3.63c.92,1.91,1.27,4.06,2.31,5.89a9,9,0,0,0,7.33,4.43c1.36.05,2.72-.22,4.08-.18,2.57.08,5.09,1.27,7.62.84l5.21,0a4.58,4.58,0,0,0,2.76,2.6,13.87,13.87,0,0,0,3.84.72l11.25,1,8.58-8a28.48,28.48,0,0,1,14.45-6.18c7.81-1,16.36,1.24,23.23-2.6,1.77-1,3.38-2.37,5.36-2.82,2.43-.56,4.94.38,7.43.35,4.58,0,8.49-3.28,13-4.31a12.81,12.81,0,0,0,3.31-.93c2.12-1.17,2.87-3.79,3.62-6.09a43.52,43.52,0,0,1,7.41-13.77,11.18,11.18,0,0,0,1.62-2.37,11.32,11.32,0,0,0,.68-4.1c.8-13,7.74-25.07,7.6-38l-3.21-14.31a24.59,24.59,0,0,0,1.1-24.49c-3.2-6-9-10.71-10.5-17.33-.67-2.86-.48-5.87-1.07-8.76-1.19-5.83-5.39-10.5-8.86-15.34a72.77,72.77,0,0,1-12.71-31.09l-1.09-7.38c-3.4-24.15-16.37-47.09-14.21-71.38l-3.5-7.47a22.85,22.85,0,0,1,4.83-14.68,4.79,4.79,0,0,1,1.7-1.5c1.54-.7,3.3.18,4.76,1l5.17,3a11.06,11.06,0,0,1,2.49,1.78,12.1,12.1,0,0,1,2.12,3.94,63.9,63.9,0,0,0,4.53,9.16,12.8,12.8,0,0,0,4.43,4.93c1.95,1.09,4.7,1,6.16-.64.33-.39.63-.87,1.12-1,.9-.28,1.66.75,1.93,1.66,1,3.31,0,6.92.66,10.29a10.28,10.28,0,0,0,4.89,6.74l12.71,10.88,16.45,9.08a35.17,35.17,0,0,0,7.5,3.41,25.12,25.12,0,0,0,8.47.67l7-1.48c3.86,1.21,7.07-3,8.91-6.63,9.93-19.47,19.89-39,27.15-59.64,2.15-6.09,4-12.26,6-18.41,5.57-17.68,11.48-35.3,19.16-52.18,1.64-3.6,3.36-7.16,4.79-10.85,1.75-4.51,3-9.17,4.36-13.82q6.29-22.41,12.58-44.83c.49-1.75,2.06-4,3.58-3l.27.13,3.84,20a32.2,32.2,0,0,0,2.13,7.64c1.65,3.54,4.51,6.35,7.31,9.08l-.62,1.88c-3.38,14.31-7.37,28.58-13.75,41.83-2.2,4.54-4.68,9-6.18,13.79s-2,10.1-3.16,15.13c-2.19,9.59-6.8,18.42-10.65,27.48-12,28.29-16.82,59.42-30.73,86.82l4.53,46.41c.84,23.24-1.55,46.58.46,69.75s9.08,47,25.67,63.31c13.45,13.21,31.7,20.15,49.57,26.17,7.75,2.61,15.77,5.25,21.89,10.66C1121.1,2171.2,1124.34,2184.43,1124.79,2196.88Z"></path>
    <path data-name="1a" data-official="" data-plain="Stamen" data-loc="" d="M273.37,2571.06c-2.2-8.23,2.89-17.22.27-25.31-1.37-4.2-4.61-7.48-7.72-10.61-9.93-10-19.81-20.49-25.41-33.41s-6.21-28.84,1.89-40.36c5-7.19,12.84-11.9,20.46-16.26,8-4.58,16.44-9.12,25.64-9.62,6.89-.36,13.66,1.57,20.28,3.49,2.27.66,4.63,1.37,6.32,3,2.42,2.36,2.87,6,3.06,9.42,1.8,30.86-5.12,64.48,11.07,90.81,2.81,4.58,6.27,8.78,8.6,13.62a34.22,34.22,0,0,1-4.49,35.92c-4.27,5.11-10.15,9.08-12.79,15.19-5.36,12.4,4.87,27.89-1.5,39.8-4.88,9.12-16.8,11.22-27.09,12.27l-21.54,2.21c-7.11.73-15.41,1-20.1-4.38-3.64-4.19-3.65-10.56-1.75-15.78s5.41-9.66,8.39-14.35a76.29,76.29,0,0,0,11.64-32.79Z"></path>
    <path data-name="1b" data-official="" data-plain="Seed" data-loc="" d="M327.25,2654.52a72.33,72.33,0,0,1,20.45-50.59c2.41-2.46,5.1-4.9,6.14-8.18.79-2.49.53-5.17.38-7.78a82,82,0,0,1,2.94-26.76c2.84-10.11,9-20.76,19.31-22.83,8.57-1.72,17.4,3.4,22.38,10.58s6.82,16,8,24.7c3.13,23.29,1.81,48.34-10.72,68.23s-38.68,32.41-60.47,23.6Z"></path>
    <path data-name="2" data-official="Vaccinium Vitis Idæa" data-plain="Red Whortle-berry, or Cowberry" data-loc="Britain" d="M766.76,2270.47c0,8.38,1.52,16.68,2,25.05s-.24,17.13-4.45,24.37c-2.34,4-5.78,7.7-6.15,12.33-.27,3.3,1.1,6.5,2.53,9.49,3.72,7.8,8.07,15.44,9.89,23.88,2,9.22.8,18.82-1,28.08-2.08,10.78-5.77,22.49-15.23,28.08-7.28,4.32-16.3,4-24.75,3.47a4.49,4.49,0,0,1-1.82-.37,4.24,4.24,0,0,1-1.55-1.77c-11.33-19.84-7.58-44.58-12.35-66.92-1-4.53-2.55-9.35-6.4-11.92l-10.58.37a65.71,65.71,0,0,1-32.78-12.86c-5.93-4.48-11.16-10-17.77-13.41-15-7.73-33.05-2.8-49.88-1.21a121.4,121.4,0,0,1-69.74-14.56c-11-6.08-20.92-13.83-31.75-20.15s-23-11.27-35.49-10.89c-7.6.23-15.57,2.36-22.58-.59-5.84-2.46-9.87-8.15-11.64-14.23s-1.57-12.56-.94-18.87c.87-8.67,2.29-18.3-2.8-25.38-3.8-5.29-10.35-7.76-15.27-12a26.68,26.68,0,0,1-7.61-27.87c2.91-8.75,10.38-15.42,18.76-19.28s17.66-5.24,26.83-6.22c6.49-.69,13.42-1.12,19.17,2,9.47,5.09,12.84,18.16,22.73,22.38,9,3.82,19.9-1.24,28.9,2.54,6,2.53,9.84,8.46,15.18,12.21,6,4.19,13.48,5.38,20.52,7.35a90.19,90.19,0,0,1,51,37.6l4.15,9c1.7,7.94,5.72,15.18,9.83,22.18,2.55,4.35,5.21,8.74,9,12a23,23,0,0,0,16,5.75,20.23,20.23,0,0,0,15-7.65,33.49,33.49,0,0,0,4.25-8.13c5.8-14.4,9.63-30,7.64-45.42-.38-2.92-1-5.89-.39-8.78a2.16,2.16,0,0,1,.56-1.22,2.41,2.41,0,0,1,2.31-.09,133.21,133.21,0,0,1,19,7.76l10,9.08c16.68,5.27,30,18.09,46.18,24.71l3.29-7.27a124.11,124.11,0,0,0,1.57-18.86,18,18,0,0,0-.24-3.67,9.63,9.63,0,0,0-5.44-6.77l-3.77-2.45L731,2205c-.91-.59-1.81-1.19-2.77-1.7a26,26,0,0,0-5-1.92,49,49,0,0,0-25.42-.5l-8.7-2.29a34,34,0,0,1-6.41-1.45l-13.63-4-14.71-16.33c-3.49-5-7.29-10.23-12.91-12.58a32.16,32.16,0,0,0-6.78-1.74c-11.49-2.06-23.68-4.3-32.33-12.15-4.78-4.36-8.16-10.19-13.37-14l-9.47-4.3c-4.64-1.94-8-6.28-9.77-11s-2.36-9.76-2.88-14.77L563.7,2075a44.58,44.58,0,0,0-2.23-11.55c-1.86-4.87-5.34-8.92-8.74-12.86-7.37-8.5-15-17.19-24.88-22.5-12.73-6.81-28.91-7.86-38.78-18.4-6.35-6.79-8.81-16.44-9-25.73-.12-7,1.07-14.39,5.38-19.94,5.55-7.14,15-9.8,23.73-12a41.19,41.19,0,0,1-8.59-37.24l5.28-14.64c10.25,1,20.41-2.05,30.26-5.06l45.11-13.78a65,65,0,0,0,17.53-7.59l15.71-9h10.42c2.2,2.63,5.83,3.46,9.19,4.14,2.47.5,5.38.88,7.2-.87,1.11-1.06,1.71-2.84,3.21-3.17,1.3-.28,2.49.71,3.45,1.64L658.84,1877a4.15,4.15,0,0,1,1.28,1.75,4.27,4.27,0,0,1,0,1.88q-.9,5.15-1.81,10.3l7.93,7a65.6,65.6,0,0,0,21.87,15.2c5,2.12,10.52,3.84,13.78,8.15,2.9,3.83,3.37,8.92,3.73,13.7l2.43,32.16v7.95a10.89,10.89,0,0,0,15.92,12.22c1.59,3.45,0,7.57-2.27,10.6s-5.32,5.49-7.23,8.77a4.52,4.52,0,0,0-.75,2.17c0,2,2.1,3.27,3.65,4.58A10.81,10.81,0,0,1,716,2031l.68,8.53q.54,7.37,1.09,14.74a6.72,6.72,0,0,0,1.2,4c1.12,1.26,3,1.48,4.41,2.38,3.34,2.1,3.23,6.9,2.89,10.83a139.56,139.56,0,0,0-.06,23.13l.87,1a105.4,105.4,0,0,0,10.83-11.43,16.64,16.64,0,0,1,3.82-3.81c1-.65,2.29-1.11,2.9-2.17a6.13,6.13,0,0,0,.47-2.8,14.59,14.59,0,0,1,2.34-7.3l2.15-7.78c2.51-29.36-1.11-58.78-3.19-88.23l7-7.47c3.9-4.27,7.92-8.64,13.1-11.21,7.08-3.51,15.37-3.23,23.27-2.86l13.41.61c-1.62-8.84,3.92-17.41,10.22-23.82,5.3-5.39,11.8-10.24,19.32-10.88,6.47-.56,12.88,2.12,18,6.07s9.2,9.13,13.14,14.29c2.81,3.67,5.65,7.48,6.93,11.92a36.06,36.06,0,0,1,.92,10.93q-.36,14.19-2.07,28.31a231.21,231.21,0,0,1,24.13-.06l7.47.06a72.5,72.5,0,0,0,8,14.38c3.47,4.84,7.67,9.51,8.86,15.34.59,2.89.4,5.9,1.07,8.76,1.55,6.62,7.3,11.34,10.5,17.33a24.59,24.59,0,0,1-1.1,24.49l3.21,14.31c.14,13-6.8,25.09-7.6,38a11.32,11.32,0,0,1-.68,4.1,11.18,11.18,0,0,1-1.62,2.37,43.52,43.52,0,0,0-7.41,13.77c-.75,2.3-1.5,4.92-3.62,6.09a12.81,12.81,0,0,1-3.31.93c-4.46,1-8.37,4.26-13,4.31-2.49,0-5-.91-7.43-.35-2,.45-3.59,1.83-5.36,2.82-6.87,3.84-15.42,1.64-23.23,2.6a28.48,28.48,0,0,0-14.45,6.18l-8.58,8-11.25-1a13.87,13.87,0,0,1-3.84-.72,4.58,4.58,0,0,1-2.76-2.6l-5.21,0c-2.53.43-5.05-.76-7.62-.84-1.36,0-2.72.23-4.08.18a9,9,0,0,1-7.33-4.43c-1-1.83-1.39-4-2.31-5.89a11,11,0,0,0-2.82-3.63l-6.32-5.77q-8.64-8.53-16.72-17.59l-4.38-4.85a13.56,13.56,0,0,0-8.56-2.93c-2.37,0-4.73.69-7.1.55-1.94-.12-3.82-.77-5.76-.93s-4.12.26-5.27,1.83l-2.24,5.21a45,45,0,0,0,19.51,22.63c3.93,2.23,8.53,4.21,10.33,8.34,1.17,2.66.91,5.74,1.82,8.5a10.79,10.79,0,0,0,13,6.64,20.46,20.46,0,0,1,2.73-.84c2.08-.33,4.11.64,6,1.58s3.88,2,5,3.78c.6,1,.92,2.06,1.54,3a5.8,5.8,0,0,0,6.44,2.29l3.21.71c4.63,0,9.49-1.59,13.74.24,2.51,1.09,4.39,3.23,6.64,4.79l-4.77,8.92a30.76,30.76,0,0,1-7.94,4.94,37.7,37.7,0,0,1-5.48,1.43,141.05,141.05,0,0,0-27.47,8.92l-8.47,3.67-6.19,7.56a15.82,15.82,0,0,0-2.82,4.36,12.89,12.89,0,0,0-.57,5.1,34,34,0,0,0,3.4,13.16Z"></path>
    <path data-name="3" data-official="Ocycoccus macrocarpus" data-plain="Large Cranberry" data-loc="America" d="M918.77,2286.57a56.48,56.48,0,0,1,3.57,53.86c-5,10.44-13.9,19.62-25.22,22s-24.6-4-27.53-15.17c-1.81-6.94.37-14.25.2-21.41-.34-14.08-9.83-26.49-21.15-34.87a163.23,163.23,0,0,0-17.76-11c-19.18-10.73-39-21.67-60.86-24.08l-8.48-8.13a34,34,0,0,1-3.4-13.16,12.89,12.89,0,0,1,.57-5.1,15.82,15.82,0,0,1,2.82-4.36l6.19-7.56,8.47-3.67,7.9,4.73c14.16-.72,27,7.43,40.32,12.29,14.82,5.4,31,6.88,45.18,13.82l8,6.7a22.46,22.46,0,0,0,3.54,7.13c2.22,2.83,5.33,4.8,8.38,6.7,4.7,2.94,9.63,5.94,15.15,6.5ZM427.47,1166l50.33-17.51c14.95-5.2,30.11-10.45,45.9-11.64,9.35-.71,18.74,0,28.08.76l88,6.91c31.84,2.49,64,5,95.56.06l15.36-16.39c-.68-17.14-6.48-33.65-13.15-49.45-2.48-5.87-5.12-11.75-9-16.79-7-9.1-17.46-14.77-26.37-22-6.76-5.51-12.76-12-20.19-16.62s-17-7-24.91-3.35l-6.1,6.73c-1.63,1.08-2.29,3.11-3.07,4.91-2,4.59-5.67,8.64-10.46,10.08a28.2,28.2,0,0,1-3.38.71l-4.81.8a32.34,32.34,0,0,1-9.5.62l-9.57.91a43.48,43.48,0,0,1-11.52-2l-2.55-2.12a25.09,25.09,0,0,1-19.41-10.46c-.25-.36-.59-.77-1-.72a1.21,1.21,0,0,0-.66.42c-6.27,6.35-11.89,13.57-19.53,18.19a36.72,36.72,0,0,1-31,3.07l-1.75-1.68c-6.14-3-12.34-6-17.6-10.31a30.12,30.12,0,0,0-5.95-4.4c-3.88-1.84-8.55-1.32-12.43-3.14-5.07-2.37-7.57-8-9.42-13.33s-3.76-11-8.36-14.21c-6.14-4.26-14.78-2.21-21,1.91A38.12,38.12,0,0,0,437,1017c-2.95,4.61-4.89,9.84-8.11,14.27s-8.26,8.13-13.71,7.59c-6.41-.63-10.76-6.61-14.24-12l-18,7.24a143,143,0,0,0-92.36,24.72c-21.58,15-38.54,35.54-54.65,56.27-9.35,12-19,26.79-14.58,41.34-13.89.92-28-6.63-41.34-2.71-12.81,3.76-20.43,16.79-25.18,29.28-6.27,16.5-9.74,35.13-3.62,51.69,6.81,18.43,24.94,33.14,24.44,52.78a10.57,10.57,0,0,1-1.28,5.4c-2.3,3.7-7.39,4.1-11.71,4.64A54,54,0,0,0,130,1314.26c-9,9.74-14.06,22.4-18.91,34.75-23.16,58.88-46.69,119.85-44.43,183.08l2.5,26.12a448.46,448.46,0,0,0-8,66.56c-.45,10-.45,20.6,4.18,29.53,6,11.53,19.06,19.15,21.79,31.85,2.6,12.12-5.48,24-14.92,32.09s-20.75,14.1-28.44,23.82c-10.48,13.25-12.59,31.06-14.31,47.86-2.44,23.77-4.63,49,5.89,70.44,12,24.45,38.74,39,65.65,43.12,3.11.47,6.47.94,8.77,3.1,1.79,1.7,2.61,4.15,3.37,6.5q10.57,32.82,21.16,65.64l13.54,23.65c12.63,34.63,42,60.15,71.41,82.37,17.55,13.26,35.61,26,55.15,36.05,32.2,16.6,68,25.85,98.81,44.95l25.49,6.82c2.91-8.75,10.38-15.42,18.76-19.28s17.66-5.24,26.83-6.22c6.49-.69,13.42-1.12,19.17,2,9.47,5.09,12.84,18.16,22.73,22.38,9,3.82,19.9-1.24,28.9,2.54,6,2.53,9.84,8.46,15.18,12.21,6,4.19,13.48,5.38,20.52,7.35a90.19,90.19,0,0,1,51,37.6l4.15,9c1.7,7.94,5.72,15.18,9.83,22.18,2.55,4.35,5.21,8.74,9,12a23,23,0,0,0,16,5.75,20.23,20.23,0,0,0,15-7.65,33.49,33.49,0,0,0,4.25-8.13c5.8-14.4,9.63-30,7.64-45.42-.38-2.92-1-5.89-.39-8.78a2.16,2.16,0,0,1,.56-1.22,2.41,2.41,0,0,1,2.31-.09,133.21,133.21,0,0,1,19,7.76l10,9.08c16.68,5.27,30,18.09,46.18,24.71l3.29-7.27a124.11,124.11,0,0,0,1.57-18.86,18,18,0,0,0-.24-3.67,9.63,9.63,0,0,0-5.44-6.77l-3.77-2.45L731,2205c-.91-.59-1.81-1.19-2.77-1.7a26,26,0,0,0-5-1.92,49,49,0,0,0-25.42-.5l-8.7-2.29a34,34,0,0,1-6.41-1.45l-13.63-4-14.71-16.33c-3.49-5-7.29-10.23-12.91-12.58a32.16,32.16,0,0,0-6.78-1.74c-11.49-2.06-23.68-4.3-32.33-12.15-4.78-4.36-8.16-10.19-13.37-14l-9.47-4.3c-4.64-1.94-8-6.28-9.77-11s-2.36-9.76-2.88-14.77L563.7,2075a44.58,44.58,0,0,0-2.23-11.55c-1.86-4.87-5.34-8.92-8.74-12.86-7.37-8.5-15-17.19-24.88-22.5-12.73-6.81-28.91-7.86-38.78-18.4L478,2016.92c-17.14,14.25-32.51,32.93-51.59,21.38-14.56-8.82-20.79-26.31-29.79-40.77-5.21-8.35-11.56-15.91-17.21-24-9.57-13.64-17.06-28.6-24.51-43.5q-20.82-41.58-41.62-83.17c-8.67-17.32-17.41-34.83-21.95-53.66l1.26-23c-3.54-7.43-4.65-16.41-1.15-23.86a31.85,31.85,0,0,1,6.46-8.68c8.32-8.35,18.83-14.13,29.23-19.69,4.6-2.46,9.39-5,14.6-5.29,2.81-.17,5.63.3,8.44.17s5.8-1,7.55-3.18l-1.55-8.76q-3.91-17.82-7.84-35.64c-2.53-11.5-6.11-24.42-16.56-29.85-6.18-3.21-13.49-3-20.37-4.11a53.2,53.2,0,0,1-15.7-5.09c-5.12-2.6-10.45-8-8.12-13.26,1.27-2.86,4.38-4.35,7.28-5.54l13.9-17.83a81.8,81.8,0,0,0,11.68-1.17,3.48,3.48,0,0,0,1.83-.7,1.25,1.25,0,0,0,.14-1.76c-.45-.38-1.12-.24-1.71-.32-1.31-.18-2.15-1.46-2.8-2.61-3.49-6.15-7.1-12.9-6-19.88l0-6.3c3.31-6.15,6.84-12.55,12.61-16.48,3.91-2.66,8.73-4.11,11.87-7.64a12.81,12.81,0,0,0,1-15.27,21.82,21.82,0,0,0-5.94-5.42,84.84,84.84,0,0,0-17.08-9,20.21,20.21,0,0,0-3.7-1.12,21.62,21.62,0,0,0-3.41-.21l-16.78-.13c-2.59,0-5.19,0-7.78-.17a87.44,87.44,0,0,1-22.43-4.17c-2.94-1-6-2.24-7.7-4.87-2.62-4.14-.29-10,3.67-12.84s9-3.66,13.88-4.46l4.8-5.4q5-10.43,10.1-20.83l.8-7.82a29.63,29.63,0,0,1-3.13-19.11,5.67,5.67,0,0,0-5.08.9c.83-2.89-.36-6-2.16-8.44s-4.17-4.33-6.16-6.59a27.15,27.15,0,0,1-6.59-20.28l.4-12.82a33.6,33.6,0,0,1,19.13-4.9l6.43-2c-.94-1.52-2.79-2.17-4.12-3.36-2.48-2.21-2.82-5.9-3-9.21s-.27-7,1.69-9.74a26.5,26.5,0,0,0,2.22-2.87,2.7,2.7,0,0,0-.32-3.32,3.65,3.65,0,0,0-2-.6l-5.42-.5-3.09.2a19.73,19.73,0,0,1-9.58,3.16,13.32,13.32,0,0,1-9.72-2.92c-2.58-2.33-3.75-6.37-2.14-9.45l5-4,6.56-1.82a14,14,0,0,1,5.81-.76l4.52,2.93c3.08.66,6.23-1.79,9.28-1,1.11.29,2.1,1,3.23,1.21a19.29,19.29,0,0,0,3.31-.07,2.87,2.87,0,0,1,2.78,1.44,7.54,7.54,0,0,0,.39,1.19c.58.92,1.95.65,3,.64a4.69,4.69,0,0,1,3.54,1.58,4.52,4.52,0,0,0,1.23,1.2,8,8,0,0,0,1.72.31c1.26.3,2,1.54,2.86,2.51a8.69,8.69,0,0,0,8.85,2.51,4.37,4.37,0,0,0,2.4-1.56,2.31,2.31,0,0,0,0-2.72c.92-1.28,2.84-1.37,4.34-.86s2.82,1.45,4.34,1.87,3.47.08,4.16-1.34c.39-.81.29-1.79.72-2.58.7-1.32,2.44-1.53,3.89-1.89a11.2,11.2,0,0,0,7.55-6.6l5.09-5.43a35.38,35.38,0,0,0-8.4-30.44,68.93,68.93,0,0,0-8.82-7.7l-23-17.92-7.74-10.79-9.79-5.76c-2.59-1.53-5.3-3.16-6.84-5.74-1.1-1.85-1.52-4-2.74-5.81a10.18,10.18,0,0,0-6.19-3.83,28.69,28.69,0,0,0-7.41-.38l-.14-2.48c-.75-2-1.49-4.24-.5-6.11a10.22,10.22,0,0,1,3-2.86c2.35-1.88,4.05-4.48,6.5-6.23,1.41-1,3-1.7,4.45-2.69s2.57-2.22,3.85-3.32a25.76,25.76,0,0,1,13.92-6.06l8.58-3.48a46.93,46.93,0,0,1,37.57-4.38c2.74.86,5.44,2,8.29,2.22,6.82.58,12.91-3.86,18.44-7.88s12.1-8,18.77-6.52l8.17.41Z"></path>
    <path data-name="3a" data-official="" data-plain="Stamen" data-loc="" d="M415.31,2655.4A50.26,50.26,0,0,1,427.89,2613c2.47-2.65,5.4-5.37,5.69-9,.33-4.05-2.76-7.43-4.77-11-7.49-13.12-.14-29.42,7.16-42.64,6.62-12,13.24-24,20.61-35.5,5-7.88,10.44-15.6,14-24.24,7.4-18,6.31-39,15.89-55.94,2.06-3.64,4.7-7.13,8.4-9.07,3.15-1.65,6.78-2,10.31-2.41,9.26-1,20.23-1.25,26,6.07,3.49,4.43,3.94,10.54,3.39,16.15-1.11,11.25-5.6,21.84-10,32.23l-25.76,60.29c-4,9.27-8,18.63-9.9,28.52-3.37,17.21-.84,36.65-11.28,50.75-1.17,1.57-2.54,3.21-2.59,5.17-.05,1.72.95,3.28,1.93,4.69,5.15,7.45,11.1,16,8.82,24.75-2.94,11.3-17.12,14.81-28.79,15.3a216.62,216.62,0,0,1-37.76-1.71Z"></path>
    <path data-name="4" data-official="Thibaudia variegata" data-plain="Variegated Thibaudia" data-loc="Himalayas" d="M707.14,1615.94l-1.62,7.22c-.69,3.08-1.74,6.62-4.66,7.83a10,10,0,0,1-5.08.24l-5.38-.71-9.15-4.47a8.17,8.17,0,0,1-2.87-2,7.7,7.7,0,0,1-1.31-3.27c-.88-3.91-1.34-8.49,1.35-11.46a12.87,12.87,0,0,1,3.11-2.3,37.52,37.52,0,0,1,9-4.19,21.15,21.15,0,0,1,9.06-.48c2.94.5,6,1.81,7.42,4.43S707.82,1612.91,707.14,1615.94ZM895.77,370.11a74.45,74.45,0,0,1-27.48-9.63,32,32,0,0,0-4.83-2.58,8.33,8.33,0,0,1-2.37-1.12c-1.09-.88-1.48-2.34-2.28-3.48a6.36,6.36,0,0,1-1.48-2.41c-.22-1.44,1.1-2.6,2.3-3.42a31,31,0,0,1,9.58-4.75c1.51-.39,3.06-.6,4.57-1,4-1,7.62-3.2,11.15-5.37l5.42-.13c2.53,1.8,3.56,5,4.31,8a135.85,135.85,0,0,1,3.67,22.32Zm849.9,792c33.31-40.72,35.18-104.06,4.34-146.68,44.15-22,92-47.9,109.31-94.08,12.79-34.2,5.48-73.22-10.68-106s-40.44-60.64-63.39-89c-5.24-6.49-10.64-13.53-11.39-21.84-1.1-12.11,7.86-22.6,16.54-31.13a486.21,486.21,0,0,1,235.74-127.47c21.37-4.66,47.73-12.3,51.37-33.87,2.5-14.85-7.86-28.58-18.2-39.53a388.91,388.91,0,0,0-207.49-113.9c53.58-52,80-130.63,68.63-204.44a1208.81,1208.81,0,0,0-212.89,62.93c-8.84,3.52-18.49,7.2-27.61,4.5-12.85-3.81-18.86-18.27-22.55-31.16a429.38,429.38,0,0,1-16.27-133c.43-12.07.8-25.72-7.7-34.3-9.84-9.93-26.26-7.81-39.64-3.8-61.14,18.35-114.07,62.51-143.09,119.36C1418.1,90.53,1379.1,38.09,1321.63,29a377.24,377.24,0,0,0-41.83,171.41l-122.6-28.31c-5-1.15-10.53-2.23-15,.35-4.26,2.47-6.13,7.59-7.2,12.39-9.13,41.12,16.82,88.53-5.72,124.11a246.55,246.55,0,0,0-69.1-4.26l-28.32,6.6-13.6,10.21c-1.13,1.62-2.47,3.37-4.42,3.69a10.61,10.61,0,0,1-3.35-.33c-3-.5-6.13.06-9.17-.37L1000,322a5.08,5.08,0,0,0-2.24-3.76,7.45,7.45,0,0,0-4.29-1.22,9.84,9.84,0,0,0-5.93,2,14.15,14.15,0,0,1-2.54,1.84c-2,.89-4.32.06-6.47.39l-5.07,2.12a9,9,0,0,0-3.59,1.93,7,7,0,0,1-1.77,1.36,5.46,5.46,0,0,1-2.42.21,25.92,25.92,0,0,0-6.34.45,4.06,4.06,0,0,1-1.73.1c-1.27-.3-2-1.81-3.29-2L950.85,322c-3.83,1.3-8,.13-12.05.12-7.16,0-13.72,3.64-20.42,6.16l-5.73,1.15a20.24,20.24,0,0,0-5.51,4.31,5.67,5.67,0,0,0-1.57,2.78,6.63,6.63,0,0,0,.4,2.94,146.21,146.21,0,0,1,5.48,32L922,380.91l8.43,7.83c4.12,3.84,8.49,7.8,14,9.2l5.24-1.19a9,9,0,0,1,3.3.86A36,36,0,0,0,964.77,400c.38,3.44.84,7.08,3,9.78l4.08,4.4c1.66,2.12,4.49,2.85,7.11,3.45l14.27,3.26a22.58,22.58,0,0,0,3.27,10l3,4.5c2.41,1.61,4.31,3.87,6.54,5.73,6.67,5.55,15.9,7.11,24.55,6.49a5.69,5.69,0,0,0-1.74,5.48c.5,2.09,2.13,3.68,3.34,5.45a15.1,15.1,0,0,1,2.43,5.82l2,7.16q18.9,23.61,36.16,48.46l7,5.81a7.94,7.94,0,0,1,7.3-3.4,15.32,15.32,0,0,1,7.76,3.14c2.3,1.63,4.36,3.59,6.64,5.26a2.5,2.5,0,0,1,.9.93,2.85,2.85,0,0,1,0,1.56c-.61,3.84,1.24,7.72,3.8,10.65s5.83,5.16,8.79,7.7c3.26,2.79,6.21,6,9.89,8.22,2.62,1.57,5.61,2.63,7.7,4.84a2.32,2.32,0,0,1,.64,1,3.07,3.07,0,0,1-.1,1.31c-1.45,6.94,2.45,14.2,8.16,18.41l-.48,6.68c1.69,2.09,5.37,2.54,7,.4.45-.6.78-1.38,1.48-1.65a2.71,2.71,0,0,1,2.06.4,56.28,56.28,0,0,1,7.53,4.26c2,1.43,4,3.38,4.18,5.85.18,2.21-1.08,4.24-2.16,6.17a46,46,0,0,0-4.83,12.92l6.91,7.88c48.13,36,99,73.08,158.51,81.42,9.52,1.33,20.33,2.54,26.09,10.23,2.61,3.49,3.75,7.87,4.27,12.2,2.55,21.36-8.51,41.69-13.53,62.61-2.17,9-3.28,18.43-7.37,26.76-2.43,5-5.84,9.36-9.23,13.73q-24.56,31.63-49.12,63.28a204.58,204.58,0,0,0-73-76.07L1183,814.36c-1.24,3-4.56,4.6-7.75,5.13s-6.49.23-9.68.77-6.51,2.18-7.71,5.19c-.7,1.77-.63,3.9-1.86,5.35-1.49,1.77-4.24,1.8-6,3.25a2,2,0,0,0-.64.84,3.29,3.29,0,0,0,.1,1.52c.45,2.69-1.87,5.1-4.34,6.25-1.31.6-2.82,1.11-3.49,2.38-.39.72-.42,1.58-.77,2.33a5.46,5.46,0,0,1-2.81,2.38,22.64,22.64,0,0,1-7.11,2l-.9.32c-.8,2.12-1.66,4.34-3.38,5.83-2.06,1.79-5,2.17-7.69,2.3-2.07.1-4.16.09-6.24.06l-.57.2a5.58,5.58,0,0,1-4.18,3.41,16.57,16.57,0,0,1-5.62,0c-4.25-.5-8.84-1.15-11.91-4.14a2.29,2.29,0,0,0-1.17-.79,2.27,2.27,0,0,0-1,.19,18,18,0,0,1-11.69.07l-7.16,9.17a449.54,449.54,0,0,0,20.17,98.23q-24.12-3.48-48.45-5.26l-13.26,2.86-5.19,9.28c-1.6,1.65-4,2.23-6.12,3s-4.46,1.88-5.3,4a22.21,22.21,0,0,0-18-4.69l-35.24-2.3c-3.36,1.41-7.13,1.36-10.77,1.61s-7.5.94-10.17,3.43a34.43,34.43,0,0,0-3.24,4.05,20,20,0,0,1-3.71,3.65l-3.49.67-19.35,1.8a6.89,6.89,0,0,1-5.12-1q-5.47-2.88-10.76-6.12l-3.75-2c-10.32,1.62-20.9,3.32-30,8.51-3,1.73-5.9,3.85-9.25,4.85-2.56.77-5.27.83-7.9,1.31-6.73,1.21-12.69,5-19.25,6.94-6.11,1.78-13.06,2.08-17.75,6.37-1.31,1.2-2.42,2.84-2.25,4.61.26,2.67,3.16,4.16,5.69,5.07a142.53,142.53,0,0,0,34,7.8c4.86.5,9.85.78,14.35,2.69,4.89,2.08,8.78,5.91,12.54,9.65l6.9,4.86c3.63.62,7.81,1.1,10.55-1.35.91-.81,1.62-1.91,2.75-2.37a4.36,4.36,0,0,1,3.59.47c1.1.59,2.06,1.41,3.16,2a8.38,8.38,0,0,0,5.52.79,2.5,2.5,0,0,1,1.77,0c.75.47.63,1.58.41,2.44-.73,2.86-1.52,5.7-2.31,8.54-.47,1.69-.95,3.38-1.42,5.07l4.24,4.07a12,12,0,0,1,2-3.28,4.12,4.12,0,0,1,3.42-1.43,6.12,6.12,0,0,1,1.87.69l17.45,8.69a2.63,2.63,0,0,1,1.13.86,2.29,2.29,0,0,1,.19,1.49c-.32,3.1-1.74,6.21-1,9.22.29,1.1.86,2.1,1.26,3.17a11,11,0,0,1,.63,4.92l2.6,2a11.68,11.68,0,0,1,2.41-2.25,4.08,4.08,0,0,1,3.15-.64c1.56.41,2.5,2,3.65,3.1a17.28,17.28,0,0,0,2.87,2.14l2.36,1.51a3.48,3.48,0,0,0,2.33.78l1.06-.24a16.61,16.61,0,0,0,3.45,9.77,48.77,48.77,0,0,0,7.3,7.56,70.1,70.1,0,0,0,7.58,6.19,5,5,0,0,1,1.66,1.52,4.53,4.53,0,0,1,.4,1.94c.14,2.27.27,4.54.41,6.81l12.83,13a10,10,0,0,1,7.45-1.82,29.89,29.89,0,0,1,7.52,2.26,13.17,13.17,0,0,0,2.66,8.92,47.25,47.25,0,0,0,6.51,6.91c2.66,2.51,5.42,5.54,5.35,9.2l2.78,15.94a17.1,17.1,0,0,0,15.79,11.58,2.21,2.21,0,0,0,1.11-.21,2.26,2.26,0,0,0,.75-1q1.82-3.61,3.62-7.25c.4-.79.93-1.69,1.82-1.8s1.7.7,2.35,1.4c4.31,4.69,10.72,6.67,16.57,9.21a4.57,4.57,0,0,1,1.58,1,4.52,4.52,0,0,1,.74,1.45l2.8,7.77,5.09,15.22,21.87,27.62a462.23,462.23,0,0,0,101.71,44.82c1.27.38,2.67.85,3.32,2a5.15,5.15,0,0,1,.07,3.71c-6.29,26-22.21,48.7-39.64,69s-36.79,39.16-52,61.24l-7.55,13.17a110,110,0,0,1-4.1,26.24l-1.55,6.79a331.21,331.21,0,0,1-11.34,42.34c-1.4,4.12-3.6,8.85-7.89,9.58,1.7,1.95,1.49,5,.38,7.31s-3,4.22-4.47,6.32a25.55,25.55,0,0,0-4.79,14l-.08.23c-4.63-2.35-4.82-8.69-5.31-13.86a43.63,43.63,0,0,0-7.82-21c-2-2.77-4.28-5.31-6.09-8.19a57.09,57.09,0,0,1-3.65-7.19l-8.32-18.47-2.76-8.43c-8.39-10.89-13.31-24-20.25-35.86-10.49-17.94-25.48-32.81-37.37-49.85-7.07-10.12-13-21-20.46-30.85s-16.6-18.83-28-23.46c-5.35-2.16-12.35-3-16.15,1.4-3.23,3.68-2.58,9.22-2.2,14.1,1,12.8-1.22,25.6-3.41,38.25l-.45,6c-.23,7-.47,14,.41,20.92a78,78,0,0,1,1,8.6l-.31,5.87c-3.6,12-3.72,24.88-2.8,37.4a12.54,12.54,0,0,0-15,.63l-5.88-2c-5.82.64-9.61,6.55-11,12.23s-1.41,11.76-3.86,17.07c-2.31,5-6.56,8.78-10.69,12.42-4.89,4.3-9.84,8.64-15.62,11.63a33.34,33.34,0,0,0-5.22,2.94,23.55,23.55,0,0,0-3.67,3.86c-3.08,3.79-6.21,7.67-7.88,12.25a29.93,29.93,0,0,0-1.62,9.25,47.14,47.14,0,0,0,1.85,14.84l6.8,6.78a25.71,25.71,0,0,1,6,6.31c2.26,3.82,2.38,8.62,1.19,12.9a3.84,3.84,0,0,1-4.66,3.32c-4.16-.11-8.19-1.39-12.27-2.22-9.36-1.89-19-1.37-28.52-.28l-8.66-.19a23.16,23.16,0,0,0-11.49,6.23c-1.73,1.73-3.19,3.74-5,5.39-1.08,1-2.28,1.83-3.45,2.71a42.54,42.54,0,0,0-10,10.2,3.66,3.66,0,0,1-1,1.18c-1.54.95-3.35-.85-5.16-1a6.67,6.67,0,0,0-2.36.48c-3.95,1.23-8.44,1.22-12-.81s-6.05-6.32-5.2-10.37c-2.06.88-4.31,1.93-5.22,4a9.07,9.07,0,0,0-.58,3.15c-.89,12.7-3.53,25.19-6.17,37.64l4.86,21.44a176.7,176.7,0,0,0,29.48,39.77,14.56,14.56,0,0,0,5.31,3.9,17.42,17.42,0,0,0,5.86.53,55.06,55.06,0,0,1,14.67,2,6.94,6.94,0,0,1,2.72,1.23,7.41,7.41,0,0,1,1.67,2.51c1.5,3.11,3,6.42,2.67,9.85a18.62,18.62,0,0,1-1.62,5.19c-.92,2.19-1.85,4.39-2.78,6.58a7.92,7.92,0,0,1-1.68,2.81c-1.82,1.7-4.86,1.39-6.73,3l1.65,13.43,7.28,3.65c3.12,12.67,9.3,24.38,16.15,35.5a296.54,296.54,0,0,0,74.41,81.46l11.58,3.64a22.85,22.85,0,0,1,4.83-14.68,4.79,4.79,0,0,1,1.7-1.5c1.54-.7,3.3.18,4.76,1l5.17,3a11.06,11.06,0,0,1,2.49,1.78,12.1,12.1,0,0,1,2.12,3.94,63.9,63.9,0,0,0,4.53,9.16,12.8,12.8,0,0,0,4.43,4.93c1.95,1.09,4.7,1,6.16-.64.33-.39.63-.87,1.12-1,.9-.28,1.66.75,1.93,1.66,1,3.31,0,6.92.66,10.29a10.28,10.28,0,0,0,4.89,6.74l12.71,10.88,16.45,9.08a35.17,35.17,0,0,0,7.5,3.41,25.12,25.12,0,0,0,8.47.67l7-1.48c3.86,1.21,7.07-3,8.91-6.63,9.93-19.47,19.89-39,27.15-59.64,2.15-6.09,4-12.26,6-18.41,5.57-17.68,11.48-35.3,19.16-52.18,1.64-3.6,3.36-7.16,4.79-10.85,1.75-4.51,3-9.17,4.36-13.82q6.29-22.41,12.58-44.83c.49-1.75,2.06-4,3.58-3l.27.13,3.84,20a32.2,32.2,0,0,0,2.13,7.64c1.65,3.54,4.51,6.35,7.31,9.08l-.62,1.88c-3.38,14.31-7.37,28.58-13.75,41.83-2.2,4.54-4.68,9-6.18,13.79s-2,10.1-3.16,15.13c-2.19,9.59-6.8,18.42-10.65,27.48-12,28.29-16.82,59.42-30.73,86.82l5.68,22.94c25.25,15.31,56.22,16.34,85.51,20,17.06,2.16,35.25,6,46.91,18.66,9.08,9.84,12.73,23.73,12.71,37.13s-3.36,26.53-6.69,39.51l-21.36,83.45-7.61,28.49a102.9,102.9,0,0,1-19.13,63.26l-6.8,15c-2.19,8.9-4.4,17.9-8.58,26.05-2.49,4.87-5.66,9.37-8.25,14.19-2,3.65-3.59,7.47-5.58,11.1-1.65,3-3.56,5.93-4.54,9.23a26,26,0,0,0-.92,6.8c-.24,12.77,4.75,25.22,4.46,38a13.1,13.1,0,0,1-.75,4.62l6.34,10.23a39.46,39.46,0,0,0,35.45,12.69c13.42-2.23,24.86-11.48,32.69-22.61s12.55-24.1,17.12-36.91c19.25-53.91,37.5-108.16,55.76-162.41l7.71-22.92c8.12-24.13,16.27-48.32,27.35-71.24,3.32-6.87,7.32-14,14.14-17.45,3.64-1.82,7.75-2.39,11.78-2.94l28.88-3.92,13.59-5.71c10.9-3.12,20.11-10.24,29.47-16.64,4.58-3.13,9.33-6.16,14.62-7.82a12.75,12.75,0,0,0,4.09-1.7,10.67,10.67,0,0,0,2.25-2.66l4.38-6.48a12.43,12.43,0,0,0,1.31-2.26,14.63,14.63,0,0,0,.69-3.73,43.61,43.61,0,0,1,17.37-30.14l-.75-.84c-.84-5.05,1-10.17,3.34-14.72a75.81,75.81,0,0,1,18.09-22.31l.23-1.27c-.39-2.26.49-4.53,1.47-6.6a65.31,65.31,0,0,1,23.54-27l0-1.33A9,9,0,0,1,1448,1910a26.37,26.37,0,0,1,5.45-4.46c8.91-6,18.37-11.87,29-13.28l.7-.15c-.25-2.18,1.89-3.85,3.88-4.79,7.82-3.69,16.84-3.75,25.09-6.34l1.07-.94c-1.19.23-1.76-1.71-.93-2.59s2.2-.92,3.42-.89l35,.84a6.15,6.15,0,0,1,2.92.55,2.12,2.12,0,0,1,1.09,2.51,74,74,0,0,1,20.4,1.72l1.53-1.46-8.38-4.91a19.1,19.1,0,0,1-4.56-3.33,9.6,9.6,0,0,1-2.14-8.75l-1-1.11a12,12,0,0,1-8-2.62,35.73,35.73,0,0,1-6-6.13c-3.4-4.11-6.84-8.26-9.24-13s-3.71-10.27-2.61-15.49l.2-1.09a12.07,12.07,0,0,1-5.94-2.22,7.61,7.61,0,0,1-3.1-5.4c-.09-1.32.44-2.88,1.72-3.26l-.52-.45a8.57,8.57,0,0,1-5.42-5.22,25.3,25.3,0,0,0-1.09-3.25,5.06,5.06,0,0,0-3.4-2.55l-.19-.15-7,7.46c-.82.87-1.63,1.74-2.46,2.59a23.43,23.43,0,0,1-6.91,5.32,9.48,9.48,0,0,1-8.45,0l-.48.17-7,5.87c-3.12,2.61-6.25,5.22-9.41,7.79-2.12,1.73-4.71,3.55-7.36,2.88-1.42-.36-2.79-1.41-4.19-1l-.47-.07-3.24,4.79a22.84,22.84,0,0,1-1.6,2.2,26.39,26.39,0,0,1-2.48,2.48l-8.2,7.46a7.26,7.26,0,0,1-2.37,1.64,7.4,7.4,0,0,1-3,.15l-8.25-.77.06-.61c-2.11,3.37-6,5.07-9.71,6.58-8.61,3.53-17.26,7.07-26.3,9.3-4.12,1-8.33,1.76-12.26,3.36s-7.63,4.18-9.6,7.94l.11-.94c-.39-6.58,4.52-12.33,9.91-16.13s11.62-6.53,16.2-11.28c3.76-3.89,6.14-8.87,8.71-13.64a164.5,164.5,0,0,1,13-20.36c3.73-5,7.95-10.39,7.59-16.6l-.31.74c.54,1.17-.75,2.35-1.92,2.88a16.7,16.7,0,0,1-8,1.49c4.24-1.47,6.18-6.22,7.92-10.36,1.95-4.66,4.26-9.16,6.57-13.65a24,24,0,0,1,4.1-6.24,8,8,0,0,1,6.76-2.53l.41-.47a13.68,13.68,0,0,1,6.34-8.65l-1.75-.61c-3.8-3.11-9-3.7-14-3.66-3.4,0-7,.39-9.7,2.51-1.53,1.22-2.63,2.94-4.26,4s-4.2,1.24-5.23-.43c-.86-1.42-.18-3.41-1.07-4.81a4.5,4.5,0,0,0-2.71-1.61,28.47,28.47,0,0,0-10.71-1l-12.11-4.69-28.51.21c-3.92,0-8,0-11.56-1.56-8.7-3.86-11-14.93-12.13-24.38-11.51-94.58-22.73-192.63,6-283.47l2.32-10.16a402.26,402.26,0,0,1,1.68-48.35c3.43-35.9,13.17-73.85,40.37-97.54a26.76,26.76,0,0,1,8.26-5.34c7.74-2.8,16.36.81,23.07,5.58,31.24,22.21,38.08,65.29,59.94,96.76,11.72,16.87,27.73,30.26,40.87,46s23.76,35.58,21.33,56l5.43,5.9c2.87.85,4.29,4,5.19,6.86a79.62,79.62,0,0,1,2.32,9.12,9.57,9.57,0,0,0,1.52,4.27c1,1.2,2.82,1.81,4,.88a5.78,5.78,0,0,0,2.24,5.47c.42-2.5,3.16-4.19,5.68-3.95a8.07,8.07,0,0,1,6,4.27l4,3.5c4.05,2.7,7,6.77,10.88,9.72s9.51,4.62,13.52,1.87a22.47,22.47,0,0,1,2.9-2.1c2.59-1.21,5.55.21,8.28,1.07a20.77,20.77,0,0,0,8.18.86l4.82-3a31.23,31.23,0,0,0,10.8-22.94,12.89,12.89,0,0,1,8.88,8.13c.8-3.12,1.59-6.45.56-9.49-.93-2.74-3.19-4.79-4.72-7.25-2.38-3.85-2.88-8.54-3.2-13.06a249.72,249.72,0,0,1-.42-27.36l5.45-19.94a72.82,72.82,0,0,1,46.73-51c14.38-4.83,30-5,44.41-9.61,13.47-4.32,25.45-12.37,36.37-21.36,4-3.34,8-6.9,10.67-11.43,2.19-3.77,3.33-8,4.44-12.26,4.1-15.5,8.24-31.47,6.25-47.38-2.72-21.68-16.44-40.32-31.22-56.41a340.4,340.4,0,0,0-45.74-41.44Z"></path>
    <path data-name="4a" data-official="" data-plain="Stamen and Pistil" data-loc="" d="M1368.6,2511.5a564.14,564.14,0,0,0,21.9-135.75,11.43,11.43,0,0,1,1-5c1.31-2.43,4.14-3.54,6.75-4.46,5.29-1.87,11.1-3.75,16.4-1.88a19,19,0,0,1,7.6,5.58c8.1,9.05,11.65,21.21,14.3,33.07a329.1,329.1,0,0,1,5.86,108.08c4.54-3.28,11.36-.73,14.58,3.85s3.8,10.44,4.27,16c1.85,21.57,3.45,44.44-6.4,63.71-3.49,6.81-8.32,12.94-11,20.08-4.7,12.31-2.67,26-3.1,39.17s-4.76,28-16.71,33.57c-6.81,3.16-14.72,2.6-22,4.26-11.43,2.59-22.81,10.63-33.8,6.59-11.16-4.11-14.62-18.66-12.33-30.32s8.5-22.35,10.21-34.12l-30.36-1.7c-2.86-.17-5.84-.36-8.32-1.79-3.08-1.77-4.85-5.11-6.47-8.27l-9.8-19.23c-3.71-7.28-7.53-15.07-6.75-23.21,1.28-13.39,14.2-22.35,26.4-28s26-10.83,32.68-22.48Z"></path>
    <path data-name="4b" data-official="" data-plain="Pistil" data-loc="" d="M1518.86,2628.22c-6.51-6.43-13.35-13.44-15-22.44-2.7-14.68,9-27.5,16.84-40.22,14.36-23.37,16.58-51.95,18.42-79.31.86-12.81,1.69-25.93-1.84-38.27-7-24.47-30.26-42.77-33.46-68-.3-2.41-.34-5.09,1.17-7,1.35-1.68,3.6-2.32,5.73-2.68,15.58-2.63,31.6,5.14,42.11,16.93s16.26,27.08,20.08,42.41a215.38,215.38,0,0,1,1.46,97.38c-2.35,10.77-5.53,22-2.64,32.61,1.23,4.52,3.51,8.67,5.21,13a55,55,0,0,1-2.49,44.94c-3.52,6.69-8.53,12.94-9.42,20.45-.7,6,1.34,11.9,2.6,17.79a69.68,69.68,0,0,1-2.25,37.05c-.92,2.65-2.08,5.37-4.27,7.13a16.69,16.69,0,0,1-6.16,2.68c-13.07,3.64-27.16,6.7-40,2.3s-23-19.09-17.82-31.62c4.59-11,18.91-16.44,21.61-28.11Z"></path>
    <path data-name="4c" data-official="" data-plain="Stamen" data-loc="" d="M1609,2599.75c-4.13-30,17.81-57.41,21.78-87.47,3.84-29-8.91-61.07,5.47-86.58,5-8.9,15-16.5,24.86-13.7,6,1.73,10.52,7.09,12.73,13s2.49,12.29,2.61,18.57c.68,36.3-3.31,72.5-7.31,108.59-3.53,31.79-7.08,63.81-4.42,95.69.25,3,.56,6.16-.15,9.13-2.31,9.74-13.8,13.78-23.67,15.45-10.07,1.7-20.59,2.61-30.33-.45s-18.55-10.93-20-21c-1.93-12.91,7.89-24.3,17-33.65Z"></path>
    <path data-name="4d" data-official="" data-plain="Section of Ovary" data-loc="" d="M1707.44,2627c-15.14-17.09-20.54-42.58-12.59-64s29.37-37.41,52.2-37.89,45.35,15.24,51.78,37.15c2.91,9.89,2.7,20.43,1.72,30.7a214.34,214.34,0,0,1-12,52.9c-1.91,5.21-4.09,10.49-7.89,14.54-6.6,7.05-16.82,9.19-26.4,10.42a255.94,255.94,0,0,1-27.38,2c-7.28.15-15.1-.17-21-4.49-10-7.4-9.51-23.16-3.42-34.06Z"></path>
    <path data-name="5" data-official="Gaylussacia serrata" data-plain="" data-loc="Mountains of Silhet" d="M1782.51,1373.32c39.58-.9,79.16,17.41,104.1,48.16,7.38,9.11,13.58,19.34,16.84,30.6l5.59,22.59c-2.18,12.25-4.44,24.72-10.24,35.73s-15.81,20.52-28.09,22.52c30.26-1.41,54.75,23.51,83.36,33.44,11.64,4.05,24,5.58,35.92,8.68,41.16,10.68,76.72,41.07,93.68,80.06,5.62,12.94,9.1,28.5,2,40.72-6.42,11.11-19.55,16.12-31.68,20.33l-20.16,7c19.82,42.65,29.52,95.07,5.24,135.36-16.95,28.14-49.76,45.94-82.58,44.82,15.34,56.7,30.31,113.75,37,172.11,1.53,13.44,2.52,27.55-2.71,40-7.92,18.87-28.65,30.53-34.82,50l-4.71,26.44,20.88,94c1,4.65,1.93,10-1,13.8-2.14,2.81-5.78,3.93-9.18,4.89l-58.91,16.63c-18.16,5.13-37.8,11.27-48.5,26.82-3.61,5.25-6.14,11.5-11.25,15.3-5.58,4.16-13.14,4.52-20,3.51-29.16-4.29-50.6-28.45-70.7-50-5.63-6-13.43-12.53-21.19-9.71-4.74,1.73-7.59,6.43-10.21,10.74A263.94,263.94,0,0,1,1605,2420.7c-4.22,1.9-9,3.72-13.35,2.18-8-2.85-8.44-13.9-7.36-22.35l10.2-79.68c3-23.57,5.63-49.2-6.65-69.55-2.22-3.67-5.06-7.22-9-8.9s-8.66-1.23-12.95-.27c-21.33,4.79-38.53,20.28-58.65,28.83-24.54,10.44-52.61,10.24-77,20.91-20,8.72-36.17,24.1-51.91,39.18-25.51,24.41-51.25,49.11-70.52,78.69-6.23,9.57-11.84,19.71-20,27.74s-19.45,13.8-30.72,12-20.52-11.09-24.34-21.89-2.92-22.79.19-33.82c5.28-18.71,16.47-35.1,27.49-51.12,15.16-22,30.62-44.4,51.51-61.1,14-11.18,30.22-19.64,42.66-32.52,8.23-8.52,14.53-18.69,21.86-28,10.71-13.6,23.59-25.3,35.42-37.94,26.36-28.15,47.37-60.77,68.23-93.2,9.73-15.11,19.74-34,11.67-50a1120,1120,0,0,1-135.85,64.56c-12.35,4.88-26.34,9.53-38.52,4.26s-17-25.51-5-31.3l-.47-9.77,13.59-5.71c10.9-3.12,20.11-10.24,29.47-16.64,4.58-3.13,9.33-6.16,14.62-7.82a12.75,12.75,0,0,0,4.09-1.7,10.67,10.67,0,0,0,2.25-2.66l4.38-6.48a12.43,12.43,0,0,0,1.31-2.26,14.63,14.63,0,0,0,.69-3.73,43.61,43.61,0,0,1,17.37-30.14l-.75-.84c-.84-5.05,1-10.17,3.34-14.72a75.81,75.81,0,0,1,18.09-22.31l.23-1.27c-.39-2.26.49-4.53,1.47-6.6a65.31,65.31,0,0,1,23.54-27l0-1.33A9,9,0,0,1,1448,1910a26.37,26.37,0,0,1,5.45-4.46c8.91-6,18.37-11.87,29-13.28l.7-.15c-.25-2.18,1.89-3.85,3.88-4.79,7.82-3.69,16.84-3.75,25.09-6.34l1.07-.94c-1.19.23-1.76-1.71-.93-2.59s2.2-.92,3.42-.89l35,.84a6.15,6.15,0,0,1,2.92.55,2.12,2.12,0,0,1,1.09,2.51,74,74,0,0,1,20.4,1.72l1.53-1.46-8.38-4.91a19.1,19.1,0,0,1-4.56-3.33,9.6,9.6,0,0,1-2.14-8.75l-1-1.11a12,12,0,0,1-8-2.62,35.73,35.73,0,0,1-6-6.13c-3.4-4.11-6.84-8.26-9.24-13s-3.71-10.27-2.61-15.49l.2-1.09a12.07,12.07,0,0,1-5.94-2.22,7.61,7.61,0,0,1-3.1-5.4c-.09-1.32.44-2.88,1.72-3.26l-.52-.45a8.57,8.57,0,0,1-5.42-5.22,25.3,25.3,0,0,0-1.09-3.25,5.06,5.06,0,0,0-3.4-2.55l-.19-.15-7,7.46c-.82.87-1.63,1.74-2.46,2.59a23.43,23.43,0,0,1-6.91,5.32,9.48,9.48,0,0,1-8.45,0l-.48.17-7,5.87c-3.12,2.61-6.25,5.22-9.41,7.79-2.12,1.73-4.71,3.55-7.36,2.88-1.42-.36-2.79-1.41-4.19-1l-.47-.07-3.24,4.79a22.84,22.84,0,0,1-1.6,2.2,26.39,26.39,0,0,1-2.48,2.48l-8.2,7.46a7.26,7.26,0,0,1-2.37,1.64,7.4,7.4,0,0,1-3,.15l-8.25-.77.06-.61c-2.11,3.37-6,5.07-9.71,6.58-8.61,3.53-17.26,7.07-26.3,9.3-4.12,1-8.33,1.76-12.26,3.36s-7.63,4.18-9.6,7.94l.11-.94c-.39-6.58,4.52-12.33,9.91-16.13s11.62-6.53,16.2-11.28c3.76-3.89,6.14-8.87,8.71-13.64a164.5,164.5,0,0,1,13-20.36c3.73-5,7.95-10.39,7.59-16.6l-.31.74c.54,1.17-.75,2.35-1.92,2.88a16.7,16.7,0,0,1-8,1.49c4.24-1.47,6.18-6.22,7.92-10.36,1.95-4.66,4.26-9.16,6.57-13.65a24,24,0,0,1,4.1-6.24,8,8,0,0,1,6.76-2.53l.41-.47a13.68,13.68,0,0,1,6.34-8.65l-1.75-.61c-3.8-3.11-9-3.7-14-3.66-3.4,0-7,.39-9.7,2.51-1.53,1.22-2.63,2.94-4.26,4s-4.2,1.24-5.23-.43c-.86-1.42-.18-3.41-1.07-4.81a4.5,4.5,0,0,0-2.71-1.61,28.47,28.47,0,0,0-10.71-1l-12.11-4.69-28.51.21c-3.92,0-8,0-11.56-1.56-8.7-3.86-11-14.93-12.13-24.38-3.68-30.21-7.32-60.77-9.65-91.34h14.63c12.47-3.27,26.33-7.59,32.35-19s1.84-25,1.11-37.75c-1.64-28.74,14.7-55.35,32.92-77.63,5.4-6.6,11.19-13.16,18.68-17.24,6.35-3.47,13.58-5,20.75-5.9a160.68,160.68,0,0,1,65.18,4.79l27.91,3.54,5.43,5.9c2.87.85,4.29,4,5.19,6.86a79.62,79.62,0,0,1,2.32,9.12,9.57,9.57,0,0,0,1.52,4.27c1,1.2,2.82,1.81,4,.88a5.78,5.78,0,0,0,2.24,5.47c.42-2.5,3.16-4.19,5.68-3.95a8.07,8.07,0,0,1,6,4.27l4,3.5c4.05,2.7,7,6.77,10.88,9.72s9.51,4.62,13.52,1.87a22.47,22.47,0,0,1,2.9-2.1c2.59-1.21,5.55.21,8.28,1.07a20.77,20.77,0,0,0,8.18.86l4.82-3a31.23,31.23,0,0,0,10.8-22.94,12.89,12.89,0,0,1,8.88,8.13c.8-3.12,1.59-6.45.56-9.49-.93-2.74-3.19-4.79-4.72-7.25-2.38-3.85-2.88-8.54-3.2-13.06a249.72,249.72,0,0,1-.42-27.36l5.45-19.94a72.82,72.82,0,0,1,46.73-51c14.38-4.83,30-5,44.41-9.61Z"></path>
    <path data-name="6a" data-official="Vaccinium amenæum" data-plain="Stamen" data-loc="" d="M555.29,2603.59c2.59-5.68,5.25-11.9,3.81-18-1-4.11-3.71-7.54-5.76-11.24-10.71-19.2-2.69-42.8.81-64.51,4.33-26.93,1.22-54.88,8-81.31.93-3.64,2.09-7.33,4.45-10.26,5.18-6.44,14.42-7.46,22.67-8,2.92-.19,6-.34,8.58,1.12,3.24,1.87,4.61,5.77,5.58,9.38,3.63,13.4,5.34,27.23,7.05,41l8.48,68.45c1.27,10.23,2.53,20.64.68,30.77-1.28,7-4,13.73-6,20.61a97.9,97.9,0,0,0-3.84,27.27,20.49,20.49,0,0,0,1.42,8.66c1.72,3.69,5.23,6.15,8.18,9,11.47,10.93,14.7,29.57,7.59,43.73-1.84,3.66-4.4,7.11-8,9.1-4.26,2.37-9.38,2.39-14.25,2.36l-27.84-.2c-6.86,0-14.4-.35-19.45-5-8-7.36-5-20.43-1.48-30.73s6.38-23.47-1.82-30.64Z"></path>
    <path data-name="6b" data-official="" data-plain="Section of Fruit" data-loc="" d="M670.74,2625.76c-13.12-7.81-18.28-23.93-22.41-38.64-3.32-11.83-6.66-24.13-4.63-36.24,2.6-15.47,14-28.56,27.94-35.76s30.1-9.07,45.76-8.14c20.93,1.24,43.76,9.07,53.22,27.79,4.88,9.63,5.5,20.79,6,31.58.51,10.54,1,21.47-3,31.26-7.6,18.85-29.79,29.45-35.34,49-1.24,4.35-1.58,9-3.59,13.06-4.71,9.49-16.54,12.53-26.94,14.54-6.74,1.3-13.64,2.61-20.41,1.5s-13.49-5.14-15.85-11.58c-3.4-9.28,3.07-19.12,3.74-29Z"></path>
    <path data-name="6c" data-official="" data-plain="Section of Seed" data-loc="" d="M818.7,2619.51c-8.64-10.64-9.07-25.54-9.09-39.24,0-5.12,0-10.48,2.42-15,2.22-4.23,6.22-7.21,10.26-9.76A104.34,104.34,0,0,1,854.92,2542c5-1.14,10.26-1.91,15.29-.82,15.15,3.28,22,21.73,20.65,37.18s-8,30.14-8.64,45.64c-.4,10.2,1.85,20.29,3.62,30.35.56,3.19,1.07,6.52.17,9.63a17.69,17.69,0,0,1-4,6.54c-14.77,16.83-39.65,20.26-62,18.88-3.5-.21-7.22-.6-10-2.77-6.19-4.86-3.76-14.61-.75-21.88l12-29Z"></path>
</svg>
