
<svg xmlns="http://www.w3.org/2000/svg" viewBox="0 0 2068 2894" id="illustration" preserveAspectRatio="xMidYMid meet">
    <title>Ericaceæ</title>
    <path data-name="1" data-official="Erica cinerea" data-plain="Five-leaved Heath" data-loc="Britain" d="M1033.32,2635.94a7.92,7.92,0,0,0,5-2.88,5,5,0,0,1,1.14-1.23,3.86,3.86,0,0,1,1.69-.41l19.61-1.63a1.35,1.35,0,0,1,.91.15,1.32,1.32,0,0,1,.34,1.08l0,8.06,1,5c-6.52,25.65-25.17,46.18-38,69.3-12.23,22-19.26,46.38-29.17,69.48-2.06,4.8-4.4,9.75-8.57,12.91-5.33,4-12.51,4.35-19.2,4.49-4.57.09-9.93-.2-12.5-4a11.57,11.57,0,0,1-1.57-6.42c-.21-12.54,6.07-24.2,8.34-36.53,1.61-8.77,1.19-17.82,2.85-26.58,3.08-16.16,13.13-30.28,25.23-41.42,7-6.4,14.65-12,21.19-18.82s12-15.18,13.12-24.56Zm886.25-837.66a28,28,0,0,0-14-5.31,3.79,3.79,0,0,1-2-.56,4.38,4.38,0,0,1-1-1.47,10.57,10.57,0,0,0-6.83-4.83,31.43,31.43,0,0,0-8.56-.56l-6,.16a1.77,1.77,0,0,1-.29-2.27,5.2,5.2,0,0,1,1.85-1.66l4.1-2.62a1.3,1.3,0,0,1,.83-.3,1.15,1.15,0,0,1,.58.27,46.09,46.09,0,0,1,3.61,3.52c3,2.76,7.32,3.79,11.4,3.49a31.45,31.45,0,0,0,11.61-3.66,26.9,26.9,0,0,0,8.54-6.12,12.2,12.2,0,0,0,3.14-9.75c-.59-3.48-3.55-6.61-7.08-6.74l-.39-.63a12.08,12.08,0,0,0-3.13-4.9,18.19,18.19,0,0,0-3.68-3.22c-3.24-2-7.35-2.22-11.08-1.38a44.52,44.52,0,0,0-10.53,4.41l.63-.38a6.09,6.09,0,0,0-.31-2.59,2.07,2.07,0,0,0-2-1.34l-.3-.65.5-8.82c.22-3.85.42-7.8-.79-11.46a27.65,27.65,0,0,0-3.77,9.92,16.3,16.3,0,0,0-13.38-9.86,10.89,10.89,0,0,0-5.81.94,6.65,6.65,0,0,0-3.64,4.46c-.62,3,1.36,6,3.47,8.26a21.15,21.15,0,0,0,7.81,5.75,1.64,1.64,0,0,1,.68.38,2.34,2.34,0,0,1,.38,1,3.7,3.7,0,0,0,3.59,2.25,23.69,23.69,0,0,0,4.46-.78,2,2,0,0,1,1,0c.67.24.92,1,1,1.73a19.72,19.72,0,0,1-7.81,19c-.3.21-.88.31-.9-.06l-.11-.3a7.06,7.06,0,0,0-3.14-7.39,10.06,10.06,0,0,0,1.26-6.09,5.46,5.46,0,0,0-3.86-4.54l-.24-.26a7.21,7.21,0,0,0-.54-3.2,2.43,2.43,0,0,0-2.68-1.38,20.94,20.94,0,0,0-7.12-9.56c-3.32-2.28-7.81-3.11-11.47-1.41a4.17,4.17,0,0,0-2.52,2.86,11.59,11.59,0,0,0,.47,8,18.58,18.58,0,0,0,4.85,6.54c1.57,1.4,3.46,2.68,5.57,2.66a2.68,2.68,0,0,0,1.15,3,7.65,7.65,0,0,0,3.29,1.06l7.26,1.2.64.7a13.17,13.17,0,0,1,3.46,4.13,11.36,11.36,0,0,1,.8,4,46.1,46.1,0,0,1-.22,8.39l-.74-.28a10.8,10.8,0,0,1-4.29-1.29c-1.37-.76-2.56-1.81-3.92-2.59-4.13-2.34-9.23-1.89-13.89-1s-9.49,2-14.08.82l-10.69,1c-10.72,1-19.73,8.56-26.32,17.07-17,22-22.13,51.59-17.63,79,.68,4.11,1.56,8.28.9,12.39-1.18,7.41-7,13-11.75,18.84a81,81,0,0,0-17.8,58c.34,3.71.88,7.72-1,11-1.32,2.27-3.61,3.76-5.77,5.25a105.08,105.08,0,0,0-39.13,122.63l-.09,8.63,6.21,21.53c.5,1.75,1,3.65.34,5.35-1,2.65-4.27,3.49-7,4.26-16.92,4.76-30.11,20.67-31.64,38.19-1.66,19.14,9.22,36.92,20.22,52.68-42.12,38.92-57.77,104-38,157.76-57.8,8.53-107.78,56-119.26,113.3l-5.89.12a132.63,132.63,0,0,0-92.12-4.42c16.89-23.6,29.94-50.79,32.21-79.73s-7.52-59.7-29.75-78.34c-9.1-7.63-19.84-13-30.47-18.27-5.54-2.75-11.93-5.57-17.7-3.31-4,1.56-6.7,5.21-9,8.84-18.61,29.91-19.59,67.13-29.52,100.93-8.16-5.67-16.57-11.45-26.25-13.64s-21,.05-27,8c-2.85,3.82-4.18,8.53-5.24,13.18a150.54,150.54,0,0,0,5.32,84.3,54.05,54.05,0,0,0-37.71,17.47c-4.74,5.23-8.64,11.56-14.86,14.89-8.58,4.59-19,2.24-28.47-.21l-8.5-.77a49.73,49.73,0,0,0-14.5.93,21.67,21.67,0,0,1-4.29.69,17.89,17.89,0,0,1-6.2-1.46l-14.7-5.39c-2.63-1-5.27-1.93-8-2.64a61.7,61.7,0,0,0-15.33-1.74l-3.12-3a32.38,32.38,0,0,0-9.77.53l-4.4,1.69c-10,1.47-18.94,6.8-27.59,12l-24.82,15-2.43,2.74c-3.45,9.51-12.43,15.64-19.51,22.88a96.82,96.82,0,0,0-14.39,19.63l.46,3c8.81.12,18.15.12,25.69-4.43A47,47,0,0,0,1077,2606c5.89-5.51,11.81-11.08,16.44-17.69l2.68-7.86a95.35,95.35,0,0,1,21.62-15.63,37.76,37.76,0,0,1,8.39-3.43,44.27,44.27,0,0,1,8.6-1q11.6-.51,23.22-.27a38.28,38.28,0,0,1,8.35.82c5.58,1.37,10.42,5.07,16.06,6.14,2,.37,4.1.43,5.91,1.35,3.22,1.65,4.6,5.57,7.46,7.8l3.15,3.7c20.35,14.81,43.38,25.43,66.19,36.07a20.76,20.76,0,0,1,6.05,3.73,7,7,0,0,1,2.15,6.47c-.87,3.22-4.54,4.85-6.12,7.79a8.93,8.93,0,0,0,0,7.58,23.67,23.67,0,0,0,4.44,6.41c8.74,9.87,18.75,18.52,28.77,27.09,5.06,4.33,10.6,8.86,17.24,9.41l6.63,2.32c7.78,4.88,17.35,5.74,26.51,6.42,27.55,2.05,56.65,3.37,81.31-9.08,7.58-3.83,16-9,23.9-6,3,1.16,5.39,3.38,8.1,5.09,11.5,7.25,26.77,4.37,39-1.6,6.33-3.1,12.5-7.16,16.2-13.17,3.41-5.54,4.39-12.19,5.3-18.63l2.73-4.23c10.1.36,20.32.72,30.22-1.28s19.63-6.62,25.87-14.58c5.71-7.29,8-16.68,9.21-25.86a6.63,6.63,0,0,1,1.25-3.71,6,6,0,0,1,3.82-1.56c8.13-1,16.3,1.08,24.25,3.08,19.39,4.86,39.22,9.18,59.19,8.19s40.36-7.85,54.06-22.41c8.51-9,14-20.5,18.61-32l.37-9.24a79.8,79.8,0,0,0,3.17-17.3c1.48-15.55,1.27-31.36-2.15-46.6s-10.19-29.9-20.73-41.41a166.05,166.05,0,0,0,63.2-13.21l5.32-3.4c6-2.07,11.27-5.89,16.42-9.66,6.46-4.73,13-9.51,18.25-15.55a92.88,92.88,0,0,0,8.23-11.44q6.23-9.81,11.73-20.06c3.28-6.11,6.39-12.42,7.87-19.19,1.39-6.39,1.29-13,.76-19.53-1.32-16.33-5.45-32.83-14.91-46.2l9.55-9.82c27.82-9.79,52-32,60-60.43s-2.76-62.16-27.93-77.53c11.3-18.71,22.23-38.2,26.25-59.69s.06-45.58-15.22-61.21a89.66,89.66,0,0,0,31.34-74.49c14.21-.55,23.45-15,28.64-28.25,7.32-18.68,11.61-40.22,3.2-58.43-8.1-17.54-26.66-29-33.07-47.22Z"></path>
    <path data-name="1a" data-official="" data-plain="Stamen" data-loc="" d="M1520,2746.37c1.21-10,.28-20.14,1.37-30.14s4.62-20.4,12.64-26.48,21.26-5.76,26.77,2.66c2.76,4.22,3.17,9.51,3.38,14.54a329.38,329.38,0,0,1-2.24,54.65c-1.16,9.25-2.69,18.81-.09,27.77,1.55,5.37,4.55,10.36,5.08,15.92.33,3.41-.3,6.92.58,10.24s3.36,6.3,5.26,9.34c6.12,9.78,5.75,24.54-3.73,31.12-3.37,2.34-7.46,3.39-11.47,4.25a154.57,154.57,0,0,1-30.69,3.36c-3.3,0-6.85-.13-9.46-2.14-2.32-1.78-3.45-4.69-4.14-7.53a38.65,38.65,0,0,1,12.24-37.74c1.94-1.65,4.1-3.15,5.47-5.3,2-3.19,2-7.23,2-11l-.41-20.7c0-2.35-.13-4.84-1.4-6.81s-3.3-3-5.11-4.36a20,20,0,0,1-7.77-13.82Z"></path>
    <path data-name="2" data-official="Erica tetralix" data-plain="Cross-leaved Heath" data-loc="Britain" d="M1422.72,2033c5.69-.87,11.45,1.68,15.89,5.35s7.86,8.39,11.54,12.82,7.82,8.72,13.1,11c3.34,1.46,7,2.06,10.51,2.93,4,1,7.92,2.34,11.82,3.69a63.88,63.88,0,0,1,1.57-9.91,2.49,2.49,0,0,1,.82-1.56c1.28-.88,2.67,1,3.15,2.44l2.57,8a8,8,0,0,1,5.24,0,16.08,16.08,0,0,1-3.09,12.76c4.25,1.25,4.2,8.39,8.41,9.77a5.87,5.87,0,0,1-5.7,1.91,16.23,16.23,0,0,1-5.74-2.58,8.72,8.72,0,0,1-7.21,8.73l0,1.32c2.1,3.62.13,8.4,1.61,12.32,1.73,4.57,7.21,6.17,11.79,7.88,2.11.78,4.49,2.15,4.62,4.4a31.88,31.88,0,0,1-6.28,1.7,14.09,14.09,0,0,1-6.37,13.87l2,5.74a66.15,66.15,0,0,1,16.35,20.15,33.83,33.83,0,0,1,3.82,10.8c1.3,9.1-3,18-7.57,26l-2.49,4.09c-7.82,5.78-17.53,8.2-26.79,11.16s-18.78,6.92-24.68,14.65c-4.16,5.46-6.14,12.36-10.43,17.72-5.55,6.91-14.45,10.5-23.28,11.32s-17.69-.8-26.35-2.71l-8.55,2.11c-1.79,11.45-4.56,23.18-11.6,32.38-4.25,5.55-9.84,9.9-15.36,14.18l-15.28,11.86c-2.76,2.14-5.62,4.42-7,7.62-1.75,4-.78,8.72.7,12.87s3.48,8.21,3.75,12.61c.47,7.46-4.11,14.32-9.39,19.61s-11.5,9.74-15.82,15.84-6.33,14.71-2.29,21l-9.06,14.14c-2.85,3.82-4.18,8.53-5.24,13.18l-11.83,14.1c-4.25-1.17-8.86,1.5-11,5.32s-2.37,8.48-1.8,12.84,1.81,8.62,2.28,13c.4,3.72.17,7.71-1.89,10.84-2.36,3.57-6.58,5.32-10.39,7.29s-7.74,4.8-8.46,9c-.45,2.65.49,5.37.19,8.05-.48,4.19-4,7.54-7.9,9.09s-8.25,1.62-12.47,1.68c-10.76.15-21.71.27-32-2.76a8.11,8.11,0,0,0-3.14-.53,7.82,7.82,0,0,0-2.2.69l-9.32,4a34.79,34.79,0,0,1-10.3,16.27l-3.61,1.54c-2.63-1-5.27-1.93-8-2.64l.73-1.74a157.35,157.35,0,0,1,9.58-14.64,52.24,52.24,0,0,0,4.91-6.95c2.73-5.12,3-11.28,1.79-17s-4-10.9-7-15.82c-4-6.33-8.69-12.62-9.45-20a3.14,3.14,0,0,1,.24-1.92,2.83,2.83,0,0,1,1.38-1c3-1.27,6.62-.4,9.29,1.51a22.3,22.3,0,0,1,6.13,7.57,63.45,63.45,0,0,1,5.15,12,19.71,19.71,0,0,1,9.4-18.65,7.32,7.32,0,0,0,2.51-1.91,6.17,6.17,0,0,0,.69-3.78l-.62-18.9-1.31-.12a49.55,49.55,0,0,0-13.1-.39,13,13,0,0,1-5,0c-1.62-.47-3.11-1.91-3-3.59s1.9-3,3.5-3.8a97.72,97.72,0,0,1,22.13-8.34,3.78,3.78,0,0,0,2.08-1,3.67,3.67,0,0,0,.64-2.17c.91-13.45-1.73-27.4,2.57-40.18l3.58-4c5.45-6.26,16.77-2.47,23.07-7.87,4.86-4.17,4.45-11.76,3-18a125.65,125.65,0,0,0-3.89-12.7c-2.44-6.79-5.17-14.63-1.48-20.82,2.38-4,6.95-6.21,11.47-7.37s9.23-1.52,13.65-3a28.08,28.08,0,0,0,10.48-6.35c2.67-2.57,4.94-6.1,4.34-9.76-.37-2.28-1.79-4.23-3.23-6-2.91-3.69-6-7.21-8.49-11.23s-4.17-8.62-3.9-13.31c.38-6.72,4.69-12.5,8.83-17.82l4.86-4.73a35.34,35.34,0,0,0,14.36-19.93,23.52,23.52,0,0,0,.78-9.61c-.59-3.87-2.44-7.41-4-11a74.35,74.35,0,0,1-5.9-25.3c-.28-5.38.09-11,2.82-15.69,5.13-8.72,17.47-12.19,20.47-21.86l2.78-6.25a40,40,0,0,1,14.78-38,77.79,77.79,0,0,1,12.56-7.31l17.42-8.75a7.57,7.57,0,0,0,3.21-2.4c1.25-2,.47-4.54.76-6.85.66-5.36,6.71-8.21,12-8.95,12.18-1.68,25.92,2,36-5.06,5.8-4.09,9.31-11.26,15.87-14Zm-290.48,6.38c1.42,9.79,5.11,19.1,7.28,28.74s2.71,20.23-1.88,29c-1.76,3.34-4.18,6.28-6.13,9.51-5,8.22-6.65,18.17-5.68,27.72s4.46,18.72,9.21,27.06l.65,9.75c.54,4.45-3.3,8.1-4.86,12.31-1.74,4.71-.52,10,1.64,14.58s5.18,8.62,7.29,13.18c1.37,2.94,2.34,6.05,3.68,9,3.52,7.76,9.56,14.39,11.64,22.65l1.53,2.39c2.64,2.69,2.8,6.88,2.79,10.66l0,24.13a33.66,33.66,0,0,0-6.83-18.95,12,12,0,0,1-1.89-2.93,9.23,9.23,0,0,1-.45-2.77,66.66,66.66,0,0,1,.17-9.48,7,7,0,0,0-6.32,3.22,5.74,5.74,0,0,0,.76,6.87l-.23,1.25c3.22,2.71,4,7.27,4.51,11.46q1.26,10.9,1.57,21.89a50.87,50.87,0,0,1-.15,6.76,1.8,1.8,0,0,1-.42,1.17,2,2,0,0,1-1.26.38l-8.87.5-3.81.5c-4.52,2.54-10.21,3.15-13.82,6.87-2.7,2.78-3.69,6.78-4.17,10.63a56.25,56.25,0,0,0,0,13.6l1,4.76a141.57,141.57,0,0,0,11,29,50.1,50.1,0,0,0,7.72,11.74,22.09,22.09,0,0,0,12,6.95,2.09,2.09,0,0,1,1.44.63,2,2,0,0,1,.23,1.15l-.08,16a10,10,0,0,0-5.71-2.31l-5.16,18.61-.53.42c-5.37-1.84-8.64-7.17-11.2-12.23s-5.17-10.56-10.09-13.39a44.24,44.24,0,0,0,.88,10.14c-3.1-5.09-6.51-10.46-11.94-12.91l-6.21,2a28.41,28.41,0,0,0,1.76,14.76c1.27,3.13,3.1,6.05,3.88,9.33s.21,7.21-2.52,9.2c-3.15,2.3-7.5,1.07-11.34.41a27,27,0,0,0-16.21,1.91,19.22,19.22,0,0,0-10.43,12.22,25.25,25.25,0,0,0-.47,8,52.2,52.2,0,0,0,3.26,14.65c.68,1.77,1.46,3.66,1,5.49-.68,2.5-3.4,3.75-5.76,4.82a65.73,65.73,0,0,0-10.45,5.94c-3.08,2.14-6.09,4.7-7.55,8.17s-.9,8,2.16,10.21a12.88,12.88,0,0,0,3.76,1.63l16.77,5.25,6.34,4.63c2.23,1,2.74,4.16,1.7,6.37s-3.16,3.7-5.18,5.08c-7.72,5.29-15.78,10.71-25,12.19-7,1.11-14.15-.13-21.22.19a61.53,61.53,0,0,0-19.43,4.45l-10.88.84-6.66,10.19a39.37,39.37,0,0,1-6.84,8.59c-2.44,2.1-5.34,3.56-8,5.4a33.24,33.24,0,0,0-8.26,8.3,58.22,58.22,0,0,1-4.46,6.38c-3.73,4.11-9.38,5.93-14.89,6.58s-11.09.31-16.6.92c-9.12,1-17.76,4.57-26,8.54l-20.87.53a105.29,105.29,0,0,1-43.09,18.78c-6,1.13-12.47,1.88-17.16,5.8-3.53,3-5.54,7.32-7.26,11.6a167.49,167.49,0,0,0-11.8,52.88c-.62,10.86.42,23.14,8.63,30.28l4.74,2.52c8.76,2.76,17.86,5.49,27,4.34s18.26-7.27,19.9-16.3c1.9-10.42-6.37-20.24-6.22-30.83.15-10.12,7.79-18.37,14.94-25.53l5-4.48c14.16-14.2,29.24-28.87,48.51-34.4,8.53-2.45,17.48-3,26.34-3.47a8.25,8.25,0,0,1,2.67.14c2.05.56,3.31,2.55,4.66,4.19,6.46,7.83,18.38,10,23.77,18.61l4.5,5.83a102.47,102.47,0,0,0,27.41,9.08l9.24.17,8.6-6a7.92,7.92,0,0,0,5-2.88,5,5,0,0,1,1.14-1.23,3.86,3.86,0,0,1,1.69-.41l19.61-1.63a1.35,1.35,0,0,1,.91.15,1.32,1.32,0,0,1,.34,1.08l0,8.06,1,5,6.8-6.14a282.6,282.6,0,0,0,37.29-19.34l7.41-5.14a189.39,189.39,0,0,0,47.89-50.4l3.89-2.18a38.28,38.28,0,0,0-8.35-.82c-2.15,0-4.31-.07-6.47-.07l-.66,1.59a93.4,93.4,0,0,1-51.36,32.81l-6-6.16c-4.63,6.61-10.55,12.18-16.44,17.69a47,47,0,0,1-7.77,6.32c-7.54,4.55-16.88,4.55-25.69,4.43l-.46-3a96.82,96.82,0,0,1,14.39-19.63c7.08-7.24,16.06-13.37,19.51-22.88l2.43-2.74.34-3c-.51-3.65-3.28-6.64-6.44-8.54s-6.75-2.93-10.18-4.28-6.85-3.14-9.05-6.1l-.33-4.58a139.56,139.56,0,0,0,26.19-15.39c3.16-2.36,6.34-4.92,10.15-5.95l7.79-.2a46.83,46.83,0,0,0,20.07-16,8.57,8.57,0,0,1,2-2.2c1.76-1.2,4.1-.74,6.22-.59a19.56,19.56,0,0,0,8-1.08l8.18-2.77a61.69,61.69,0,0,0,6.83-3.47,37,37,0,0,1,16.87-4.1c-1-3.65-4-6.36-7-8.7s-6.17-4.68-7.83-8.08-1.09-8.24,2.26-10c1.19-.63,2.87-1.14,2.9-2.49l1.93-2c2.08-4.84,1.4-10.35.68-15.57l-.82-5.87.67-2.56c4.93-3.77,8.09-9.34,11.22-14.69,3.61-6.18,7.57-12.51,13.69-16.22a76.88,76.88,0,0,0-24.81,11.86l1.39-16.44a20.89,20.89,0,0,1,1.49-7.19c1-2.08,2.67-3.89,2.94-6.17l-.43-13a92.75,92.75,0,0,1,10-13.45c2-2.25,4.62-4.59,7.61-4.16a3.34,3.34,0,0,1-1.59-3.65,6.18,6.18,0,0,1,2.38-3.46c2.59-2,5.93-2.85,9.16-3.52,4.89-1,10-1.86,14.86-.85l4.24-2.43a8.88,8.88,0,0,0,2.11-8.51c-1-2.9-4.12-5.07-7.11-4.44l-3.9.1a1.51,1.51,0,0,0-1.59,1l-3.11,2.62c-5.75,0-11.31,2.28-16.07,5.49s-8.84,7.34-12.88,11.43l18.8-27.94c2.29-3.41,4.62-6.88,5.87-10.8l-3.15-6a71.85,71.85,0,0,0-23,26.84l.5-17.36a9.65,9.65,0,0,1,.56-3.59,12.23,12.23,0,0,1,1.87-2.67,22.93,22.93,0,0,0,3.27-5.46,52.23,52.23,0,0,1,2.45-5.87,7,7,0,0,1,4.87-3.74c1.84-.24,4,.51,5.39-.75l1.82-2.37c2-3.72,2.21-8.15,3.55-12.16,2-6,6.53-10.83,9.61-16.38s4.45-13,.33-17.87c-1.81-2.11-4.59-3.64-5.24-6.34-.5-2,.4-4.13,1.31-6,2.47-5.15,5.15-10.21,8-15.14,2.54-4.36,5.24-8.64,7.15-13.3s3-9.8,2.14-14.76c-1.55-8.89-8.84-15.5-15.69-21.37l.52-6.56c-1.6-4.57.1-9.6,2.17-14s4.56-8.8,4.62-13.64c.09-8.38-7.12-15.47-7.21-23.84,0-4.37,1.87-8.5,4-12.3a93.9,93.9,0,0,1,5.31-8.33,9.31,9.31,0,0,1,3.74-3.5,9.75,9.75,0,0,1,4.66-.29l37.16,3.68a115.3,115.3,0,0,1,12,1.62c8.71,1.82,16.84,5.65,24.89,9.45l2.55-.93,36.52-17.66c2-.95,4-2,5.22-3.76s1.23-4.61-.56-5.84-4.14-.45-5.92-1.47-2.28-3.55-2.43-5.7q-.42-5.66-.39-11.33a7.23,7.23,0,0,1,.88-4.12c.94-1.34,2.64-1.88,4.22-2.3a101,101,0,0,1,20.81-3.2l8.89-3.73c5.22-4.75,11.42-9.76,12-16.81.31-3.92-1.26-7.74-2.94-11.3a159.73,159.73,0,0,0-12-21.12c-1.44-2.16-3-4.45-3-7a14.38,14.38,0,0,1,1.55-5.63c3-7.21,4.68-15.09,3.83-22.85s-4.46-15.38-10.63-20.15c-4-3.07-8.8-4.84-13.65-6.15a88.19,88.19,0,0,0-22-3c-1.21,0-2.61-.09-3.32-1.07a4.1,4.1,0,0,1-.42-2.67,39.46,39.46,0,0,0-16.87-34.43c-7.35-5-16.28-7.38-23.41-12.7-6.42-4.79-11-11.65-16.78-17.15s-14-9.76-21.67-7.44l-12.38.21a32.53,32.53,0,0,0-16.78,21.69c-1.36,6.24-1.25,13.63-6.19,17.67s-12,2.57-18,4a19.48,19.48,0,0,0-12.25,9c-3.61,6.08-3.61,13.58-3.23,20.65s1.49,15,7.15,19.17l.48,7.15c-4.42.8-7.26,5-9.56,8.88q-13.11,22-25.45,44.41c-3.87,7-7.7,14.14-10.4,21.7Z"></path>
    <path data-name="2a" data-official="" data-plain="Stamen" data-loc="" d="M1633.36,2805.28a74.12,74.12,0,0,1-2.39-36.8c.45-2.32,1-4.75.24-7-1.06-3.16-4.3-4.91-6.88-7a22.16,22.16,0,0,1-8-15.81c-.59-11,7-20.85,7.74-31.8.55-7.53-2.14-14.89-3-22.39s.74-16.28,7.24-20.13c5.09-3,11.85-2,16.79,1.3s8.35,8.37,11.14,13.59c11.23,21,14.26,45.7,12,69.42-1.12,11.83-3.49,23.55-3.86,35.43s1.41,24.24,7.9,34.19c4.07,6.24,10,11.69,11.35,19,1.25,6.92-2.18,14.14-7.56,18.66s-12.44,6.65-19.43,7.35a56.79,56.79,0,0,1-30.28-5.41c-4-1.94-8-4.64-9.58-8.79-1.74-4.58-.11-9.73,1.93-14.19a81,81,0,0,1,13.16-20.17Z"></path>
    <path data-name="2b" data-official="" data-plain="Pistil" data-loc="" d="M1705.88,2848.55c1.59-5.19,3.2-10.71,1.85-16s-5.35-9.29-7.86-14.06c-5.93-11.27-2.89-25.11,1.79-36.94s11-23.49,11.38-36.21c.5-16.84-9.49-32.36-10.81-49.16-.36-4.63.06-9.63,3-13.26,3-3.83,8.35-5.33,13.22-4.89,10,.91,18.18,9,22.17,18.17s4.58,19.47,5.11,29.49l1.8,34.23c.27,5.08.57,10.28,2.61,14.94,2.85,6.45,8.84,11.32,10.8,18.1,1.8,6.23-.12,13.17,2.11,19.26,1.58,4.36,5.07,7.69,8.09,11.2,4.54,5.29,8.29,11.46,9.58,18.3s-.19,14.43-4.93,19.53c-3,3.26-7.15,5.3-11.29,7a89.51,89.51,0,0,1-39,6.23c-5.13-.33-10.41-1.18-14.74-3.95s-7.5-7.88-6.65-12.95Z"></path>
    <path data-name="3" data-official="Erica ventricosa" data-plain="Porcelain Heath" data-loc="Cape of Good Hope" d="M806,2720.7c3.22,6.89.63,15.57-4.89,20.8s-13.39,7.41-21,7.54c-6.32.11-13.05-1.27-17.58-5.69-7.8-7.59-5.91-21.06.3-30,2-2.87,4.39-5.56,5.53-8.87s.91-6.82.68-10.27c-.64-9.81-1.33-19.84-5.13-28.91-2.32-5.53-5.75-10.59-7.47-16.34-4.29-14.37,2.85-29.39,9.45-42.85,22.51-45.94,41.22-95.54,39.62-146.67l2-4.26a11.65,11.65,0,0,1,5.28-5.46l3.31-1.9,4.54-3.07a5.37,5.37,0,0,1,2.4-1.1,26.32,26.32,0,0,1,2.92.32c1,0,2.13-.78,1.88-1.72a15.58,15.58,0,0,1,3.87-.18,3.81,3.81,0,0,0,3.36-1.57,3.64,3.64,0,0,1,.66-1.15,2.09,2.09,0,0,1,.92-.38,36,36,0,0,1,10.29-1.32c3.47.23,7,1.57,9.15,4.31l1.72,5.38c9,47.19,5.55,98.59-19.77,139.42-4.44,7.16-9.53,14-12.81,21.75l-2.53,8.85c-3.53,3-5.54,7.32-7.26,11.6a167.49,167.49,0,0,0-11.8,52.88c-.62,10.86.42,23.14,8.63,30.28ZM633,2069.39l.78,6.48c.27,2.23.65,4.69,2.36,6.15l3.7,1.26a2.73,2.73,0,0,1,.63,2.81,21.8,21.8,0,0,0-.83,2.94,5.17,5.17,0,0,0,2.35,4.53,11.33,11.33,0,0,0,5,1.67c2.19.28,4.75.51,5.91,2.38a19.06,19.06,0,0,1,.79,1.79c1,2.2,3.43,3.43,5.79,4s4.83.6,7.17,1.25a14.53,14.53,0,0,1,8.08,5.76l-1.25,2.85c.53,3.09-1.79,6-4.51,7.59s-5.87,2.21-8.71,3.55a4.54,4.54,0,0,0-2.13,1.67c-.77,1.32-.24,3,.48,4.36,4.56,8.57,15.14,12.25,20.69,20.21a50.29,50.29,0,0,0,3.64,5.31c3.36,3.71,9.14,5.32,11,10l.3,5.6A43,43,0,0,0,693,2189a2.84,2.84,0,0,0,.26,1c1,1.85,4.89.2,5.52,2.21s-3.16,2.63-3.41,4.65c-.2,1.6,2,2.61,2.13,4.22.21,1.82-2.06,2.79-3.85,3.16a83,83,0,0,1-1.35,17.73,31.23,31.23,0,0,0,28.1-5.57c1.33-1.08,2.85-2.35,4.53-2a5.42,5.42,0,0,1,2.87,2.18l13.49,16.18,4,3.28c4.22,7.27,14.09,9.09,19.69,15.36a3.56,3.56,0,0,0,1.69,1.32c.95.22,1.89-.43,2.86-.41,1.8,0,2.69,2.21,2.89,4s.3,3.91,1.82,4.88,3.39.26,5.05.73c3.12.9,4,5.34,7,6.53l4.22,2.58a18.89,18.89,0,0,1,6.29,20.62c-.7,2.05-1.79,4.06-1.74,6.23a8.08,8.08,0,0,0,4.23,6.44,19.39,19.39,0,0,0,7.68,2.19c1.16.14,2.66.61,2.63,1.78a2.05,2.05,0,0,1-.78,1.35c-2.19,2.06-5.57,3-6.74,5.79a4.88,4.88,0,0,0,3.48,6.42c.92.16,1.89,0,2.8.27a4.46,4.46,0,0,1,3.06,4.83,6.13,6.13,0,0,1-3.74,4.64c-1.31.56-2.77.75-4,1.4s-2.36,2-2,3.4c.53,2.09,3.44,2.16,5.57,1.81s5.09-.07,5.41,2.06l-.31,1.14a10.06,10.06,0,0,0-9.94,4.91,3.6,3.6,0,0,0-.43,3.24c.72,1.48,2.71,1.62,4.33,1.9s3.54,1.61,2.93,3.14l-8.46,2.07a7,7,0,0,1,6.17,4.63,38.53,38.53,0,0,1-9.11,2.17c2.32,2.05,4.82,4.45,5,7.55a2.08,2.08,0,0,1-.67,1.84,2.5,2.5,0,0,1-1.46.26l-7.49-.2c3.89,3,5.32,8.22,6.25,13.07s1.69,10,4.8,13.86l1.65,1.94a169,169,0,0,1,35.6,6.64c2.64.79,5.33,1.66,8.09,1.49s5.62-1.64,6.57-4.23l-2.51-2.92L842,2355.24c-1.42-5.87-2.84-11.73-3.95-17.67-3.76-20.07-3.92-40.63-3.9-61.05,0-12.32.19-25.13,5.61-36.2l-.66-4.55c-1.47-6.41-3.07-13.09-7.28-18.14-2.31-2.78-5.36-5-7.1-8.16-1.26-2.29-1.74-4.94-3-7.26a13.12,13.12,0,0,0-8.68-6.68l-2.35-5.24q-8.79-17.58-18-34.94a27.35,27.35,0,0,0-3.52-5.54c-4.57-5.17-12.27-6.33-17.5-10.84l-1.39-3.36c-3.83-1.82-8.1-4.15-9.07-8.28a6.11,6.11,0,0,1-7.09-4.36l-5.26-.07a1.52,1.52,0,0,1-1.33-.46c-.29-.44-.06-1,0-1.54.13-1.76-1.84-2.81-3.46-3.51a37.06,37.06,0,0,1-9.83-6.33l-1.07-1.36c-2.36-2-2.93-5.42-5-7.74-1.38-1.6-3.4-2.62-4.46-4.44-.6-1-.85-2.27-1.52-3.27-1.23-1.85-3.58-2.54-5.37-3.86-1.38-1-2.43-2.41-3.72-3.54a12.56,12.56,0,0,0-9-3l-2.36-2.37a33.29,33.29,0,0,1-7.85-11c-1.46-3.32-2.76-7.28-6.14-8.57s-7.22.72-10.52-.58c-1.14-.45-2.53-1.25-3.45-.43l-1.77-1.33c-9.54-2.13-15.57-12.06-24.85-15.09a13.63,13.63,0,0,1-3.08-1.18c-2.06-1.3-3-4-5.25-5-1.38-.61-3.06-.47-4.29-1.34a11.17,11.17,0,0,1-1.82-2.1c-1.86-2.19-4.85-3-7.64-3.63-1.74-.41-3.77-.76-5.13.39s-1.35,3.5-.74,5.3c1.24,3.66,4,6.65,5.4,10.22,2.19,5.43,1.52,12.21,5.57,16.45Zm48.17,158.83a35.41,35.41,0,0,0,1.1-17.72c-.51-2.62-1.32-5.22-1.15-7.88a39.88,39.88,0,0,1,.86-4.84,24.11,24.11,0,0,0-1.32-13.28,15.74,15.74,0,0,1-1.4-4.22c-.18-1.74.41-3.45.65-5.18a13.59,13.59,0,0,0-3-10.53,12,12,0,0,1-2.24-3c-.28-.72-.36-1.51-.62-2.24a9.13,9.13,0,0,0-3.39-3.91c-6.66-5.07-14.11-9-21.52-12.87a13.78,13.78,0,0,0-5.72-2c-2.25-.06-4.36,1-6.36,2l-6.56,3.31a15,15,0,0,0-4.67,3.17c-2.91,3.32-2.3,8.49-.46,12.5a26.18,26.18,0,0,0,9.33,10.93c2.9,1.92,6.16,3.24,9.12,5.07,9.81,6,15.76,18,14.29,29.42-.86,6.65-4,13.33-2.23,19.8a13.6,13.6,0,0,0,21.87,6.82Zm-72.85-146.29c-4.69,7.23-13.6,10.44-19.61,16.6-1.81,1.86-3.44,4.25-3.22,6.84a7.24,7.24,0,0,0,3.57,5.29,18.32,18.32,0,0,0,6.23,2.16,81.05,81.05,0,0,0,15.54,1.6,12.45,12.45,0,0,0,3.94-.42c3.53-1.13,5.48-4.81,7.08-8.16l1.07-3.05-1-8.18a29.31,29.31,0,0,0-1.52-7.27,9.85,9.85,0,0,0-4.78-5.47Zm-368.78-14.67a53.17,53.17,0,0,0,15.78,15.48c4.36,2.78,9.2,5,12.85,8.63,2.22,2.21,3.91,4.89,5.93,7.29a34.77,34.77,0,0,0,17.62,11.15c9.32,2.44,19.22.9,28.75,2.3,5.44.8,10.82,2.57,16.31,2.22,6.37-.4,12.18-3.6,17.74-6.73l3.56-3.91c1.66-3.07,1.67-6.74,1.64-10.23,0-3-.11-6.22-1.82-8.7-1.27-1.85-3.31-3.07-4.48-5s-1.32-4.58-1.33-7a1.23,1.23,0,0,1,.18-.78,1.08,1.08,0,0,1,.83-.31,9.64,9.64,0,0,1,4.64,1.39q6.66,3.36,13.11,7.09L374,2082c2-.62,4,.88,6.14.83a8.34,8.34,0,0,0,3.13-.94,18.33,18.33,0,0,0,6.3-3.93,34.11,34.11,0,0,0,3.35-5.3c2.87-4.64,7.46-7.9,11.93-11l5.61-1.22a21.62,21.62,0,0,0,9.57,2c3.89.1,8.19-.44,10.84-3.3a1.55,1.55,0,0,0,.47-.84,4,4,0,0,0-.17-.9c-.19-1.21,1.06-2.09,2-2.91a7.38,7.38,0,0,0,2.13-3.33l3.2-3c2.33-.55,4.75.29,6.94,1.28s4.37,2.16,6.77,2.3c3.78.23,7.24-2.15,9.9-4.86l2.09-2.53.5-8.61,1.2-4.16a45.58,45.58,0,0,1,0-16.55c.07-.36.18-.77.51-.91a1.11,1.11,0,0,1,1,.29c2.57,1.86,4.5,4.72,7.5,5.77,1.46.5,3.17.6,4.21,1.73l1,2.37a42,42,0,0,0,3.06,11c1.66,3.42,4.42,6.48,8,7.67,7.44,2.44,15.46-3.59,23.1-1.93l5.78-1.74c5-.41,10.17-.84,15-2.5s9.32-4.69,11.7-9.17,2.16-10.51-1.34-14.18-9.42-4.35-12.93-8.07c-1.09-1.15-2-2.6-3.38-3.31a8.18,8.18,0,0,0-3.44-.61L513,2001c-2-.06-4.4.1-5.34,1.86l-1.54,0a6.06,6.06,0,0,0-3.77-4.63,17.86,17.86,0,0,0-6.12-1.15,70.85,70.85,0,0,0-10.09-.23c-3.45.24-6.88,1-10.33.73a36.56,36.56,0,0,1-10.09-2.72c-3.47-1.3-7.36-3-8.5-6.55a3,3,0,0,0-.64-1.34c-1.09-1-3.39.38-4.12-.9-.33-.58,0-1.35-.3-2-.72-1.72-3.9,0-5-1.45-.3-.39-.36-.93-.71-1.28a2.18,2.18,0,0,0-1.67-.41l-12.79.45-4.88,1.26c-3.14,2.18-7,3-10.86,3.21s-7.64-.13-11.46,0a47.51,47.51,0,0,0-13.06,2.24c-3.79,1.22-7.41,2.93-11.21,4.09a41.81,41.81,0,0,1-37.7-7.26,22.13,22.13,0,0,1-6.1-7,11.61,11.61,0,0,1-.85-9.09,16.89,16.89,0,0,1,2.28-4,121.55,121.55,0,0,1,19.64-21.7l4.25-2.39c-3.4-3.35-4.44-8.6-8-11.78a52.13,52.13,0,0,0-4.67-3.21c-2-1.45-3.73-3.35-5.92-4.51-2.72-1.44-5.92-1.62-8.84-2.61-6.84-2.35-11.23-8.81-16.14-14.13l-8.07.33a20,20,0,0,1-11.72-4l-1.91-6.06c-1.79-2.68-3.55-5.63-3.51-8.85.05-3,1.68-5.76,2.92-8.52a18.66,18.66,0,0,0,1.93-9.07,9.73,9.73,0,0,0-4.56-7.75c-3.36-1.88-7.52-1-11.26-.1l-6.14,1.5-2.1-.85c-.64-2-3-2.7-5.07-3a44,44,0,0,0-6.28-.47,12,12,0,0,1-3.06-.23,9.18,9.18,0,0,1-3.43-2,29.28,29.28,0,0,1-3.77-3.7l-2.79-4.12c-.3-9.29-8.18-17-17-20s-18.36-2.42-27.64-1.77c-6.3.44-12.86,1-18.3,4.17l-6.83,1.39c-4.53,3.44-6,9.6-6.2,15.29s.48,11.49-1.06,17c-3.2,11.35-14.71,17.86-24.93,23.74s-21.22,14-22,25.82c-.19,2.93.3,5.94-.42,8.8-1.54,6-7.8,9.36-13.43,12C97.76,1940.73,83,1948,74.31,1961c-8.11,12.2-9.49,27.66-8.83,42.3.13,2.83.34,5.74,1.57,8.29,1.57,3.26,4.6,5.54,7.62,7.52a93.73,93.73,0,0,0,32.73,13.4c23.84,4.78,48.42.13,72.71-1,7-.32,14.21-.33,20.9,1.85,13.47,4.39,22.55,16.68,30.71,28.26Zm264.82-235.59-1.58,2.39c-4.63,3.83-10.73,5.36-16.69,6.15-16,2.15-32.38-.21-48.52,1-3.92.29-8,.87-11.15,3.23,2.71,3.07,7.46,2.68,11.54,3,7.07.54,13.66,3.89,19.4,8s10.84,9.15,16.37,13.59c4.22,3.38,9,6.56,14.44,6.71a33.76,33.76,0,0,1-10.73,2c-8-.17-15-5.15-21.38-9.93-4.48-3.34-9-6.69-13.21-10.31a56.6,56.6,0,0,0-4.46-3.6c-3.59-2.48-7.8-3.89-11.68-5.92l-.1-.13a20.28,20.28,0,0,1-17.68.33l-.87.14c-1.43,1.18-3,2.91-2.3,4.62.37.89,1.28,1.42,2,2a9.19,9.19,0,0,1,3.41,5.86,21.1,21.1,0,0,0-5.56-4c-1.16,2.38-.59,5.28.61,7.64s3,4.37,4.37,6.62a10.9,10.9,0,0,1-3.83-2.65c.5,5.84.91,11.77-.29,17.5s-4.22,11.32-9.21,14.38a7.16,7.16,0,0,1-4,1.27,3.43,3.43,0,0,1-3.22-2.34,4.31,4.31,0,0,1,.58-3c.85-1.63,2.07-3,3.05-4.58,3.66-5.74,3.86-13,3.61-19.78s-.81-13.86,1.65-20.21a11.69,11.69,0,0,1,2.29-3.86q-2.82,1-5.55,2.29a2.32,2.32,0,0,0-1.74,2.5c-.16,2.12-.31,4.25-.46,6.37-.92-1.61-1.9-3.19-2.92-4.73a29.23,29.23,0,0,0-4,4.84,4.61,4.61,0,0,0-.93,2.21c-.11,1.79,1.69,3.42,1.23,5.16a14,14,0,0,1-3.91-1.37,106.17,106.17,0,0,1-13.07,12.45c-3.21,2.74-6.57,5.55-10.65,6.61a23.43,23.43,0,0,1-6.58.52c-2.62-.08-5.46-.41-7.34-2.23,3.93,1,8.17-.18,11.62-2.33s6.25-5.17,9-8.16l.78-1.36a10.93,10.93,0,0,0-.74-4.7c1-.57,2.21.55,3.29.21a2.81,2.81,0,0,0,.91-.63l3.36-3.12a2.73,2.73,0,0,0,.79-1c.46-1.35-1.35-2.64-1.05-4a15.61,15.61,0,0,1,4,1.3l3.83-3.4a2,2,0,0,0,.71-1,2,2,0,0,0-.31-1.23L380,1850a6.94,6.94,0,0,1,5.27,2.53,24,24,0,0,0,6-6.73l-6.78-2.35c-2.7-.69-5.58.7-7.5,2.73s-3.08,4.64-4.35,7.13a76.27,76.27,0,0,1-8.7,13.37,31,31,0,0,1-9.07,8.14c-3.6,1.94-8,2.68-11.82,1.18,6.09-1.17,11.3-5.36,14.82-10.47s5.53-11.11,7.1-17.11l-5.44-.46a229.28,229.28,0,0,1-22.93,6.81,26.75,26.75,0,0,1-7.09,1l-3.7-.25a25.21,25.21,0,0,1-7.33-1.36,8.54,8.54,0,0,1-5.17-5.07c-.75-2.39-.28-5.54-2.39-6.91-1.27-.82-2.93-.54-4.42-.78s-3.1-1.7-2.41-3a2.7,2.7,0,0,1,1-.94c1.44-1,3.06-1.69,4.43-2.76a5.63,5.63,0,0,0,2.43-4.4,15,15,0,0,0,9-6.26,29.6,29.6,0,0,0-8.29.63,5,5,0,0,1-2.52.14,6,6,0,0,1-1.85-1.25c-1.15-1-2.49-1.65-3.57-2.67a4.31,4.31,0,0,1-1.52-4q10.85,1.3,21.76,1.79a3.65,3.65,0,0,0,1.44-.13,3.59,3.59,0,0,0,1.52-1.4,106.49,106.49,0,0,0,7.09-11.18c-3.11-.42-5.82,1.9-8.53,3.5a20.58,20.58,0,0,1-18.32,1.15l-.1-.46c5-.59,9.54-3.23,14.19-5.22s10.08-3.3,14.69-1.23a38.74,38.74,0,0,0,1.13-4.64,1.33,1.33,0,0,0-.11-1.06,1.37,1.37,0,0,0-1-.38l-3.92-.32,4.13-1.68a5.29,5.29,0,0,0,2.15-1.32,1.82,1.82,0,0,0,.12-2.32c-2.44.89-5.16.75-7.61,1.62-2.26.81-4.15,2.43-6.34,3.42a12.53,12.53,0,0,1-10.95-.4,1.24,1.24,0,0,0-.82-.23c-.45.09-.63.62-.76,1.07-1.64,5.83-7.54,9.24-12.92,12a19.38,19.38,0,0,1,0-8.77l-.74.1a60.1,60.1,0,0,1-14.68,1.93,12.71,12.71,0,0,1-4.52-.54,5,5,0,0,1-3.18-3,2.69,2.69,0,0,1,.16-2.1,3.92,3.92,0,0,1,1.18-1.15c4.27-3,9.32-4.77,14.29-6.45,3.26-1.1,6.69-2.22,10.08-1.64l.17-.26a25.81,25.81,0,0,1,6.15-9.12l-10.34.89a10.34,10.34,0,0,0-2.53.45c-2.87,1-4.64,4.61-7.69,4.67a10.39,10.39,0,0,0,4.58-5,29,29,0,0,1-8.94,1.16c-3-.24-6.09-1.56-7.69-4.12-3.25,2.56-3.53,7.29-3.54,11.42a11.25,11.25,0,0,1-2.29-5.24,76.45,76.45,0,0,1-6.19,7.82l-5.44,8.81A15.76,15.76,0,0,1,247,1800a11.58,11.58,0,0,1-7.43-8.89c-.42-3,.3-6.77-2.15-8.59-1.25-.92-2.92-1-4.47-1l-12.17,0-3.5-2.13c-9.39.33-19-.77-27.41-5s-15.34-12-17-21.21c-2.07-11.74,4.44-23.12,10.82-33.19,1.53-2.41,3.07-5.58,1.44-7.91-1.39-2-4.25-2.1-6.68-2-11.81.56-25.64.62-32.88-8.72-2.71-3.5-4.11-8-7.31-11-5.54-5.27-14.38-4.53-21.78-2.62S101.26,1692.4,94,1690c-6.19-2-10.69-7.41-13.79-13.14-12-22.24-5.35-52.82,14.84-68,2.79-2.1,6-4.23,6.87-7.61.52-2,.09-4.12-.18-6.18A42.69,42.69,0,0,1,152,1547.38c12.24,2.32,22.79,9.8,32.89,17.09-2-9.8-7.74-18.34-12.41-27.19s-8.42-19-6-28.71c1.19-4.83,3.81-9.17,6.5-13.36,3.55-5.55,7.51-11.21,13.36-14.25,10.36-5.39,23.28-1,34.51-4.27,6.58-1.9,12.23-6.35,18.86-8.11,12.68-3.36,25.85,3.63,38.95,3,10.71-.49,21.55-6,31.72-2.62,6.38,2.14,12.62,7.71,18.91,5.29l5.43,3.06a39.45,39.45,0,0,1,10.24,4.8,16.85,16.85,0,0,1,6.73,8.87,10.87,10.87,0,0,1-2.41,10.55c4.15-1.46,9,.15,11.95,3.44a15.59,15.59,0,0,1,3.4,12.33A19.32,19.32,0,0,1,352,1532.66a12.22,12.22,0,0,1-6.44.61,7.13,7.13,0,0,1-5.05-3.77c-1.12,4.77-3.68,9-5.9,13.42s-4.15,9.11-3.87,14v1c2.7-5.38,8.06-8.82,13.17-12a35.75,35.75,0,0,1,6.43-3.42,30.72,30.72,0,0,1,8.41-1.57c10.12-.79,20.28-.06,30.41.6a6.34,6.34,0,0,0,2.3-.14,7.32,7.32,0,0,0,1.83-1,21.93,21.93,0,0,1,5.54-2.66,14.85,14.85,0,0,0,2.52-.91,23.1,23.1,0,0,0,2.55-1.9c4-2.92,9.35-2.64,14.26-2.23l.66.47a25.16,25.16,0,0,0-7.47,9.42,16.07,16.07,0,0,1-1.52,3q7.39.24,14.8,0l-.56.8c-2.74.45-5,2.36-6.87,4.41s-3.47,4.37-5.66,6.09a14.29,14.29,0,0,1-13.38,2.16c1.3,3.44-1,7.11-3.12,10.09-3.56,4.92-7.21,9.93-12.11,13.52l-.39.18a14.25,14.25,0,0,1,5.65,11.22,10.93,10.93,0,0,1-7,10,5.43,5.43,0,0,1,2.58,3.35l.72.12a49.65,49.65,0,0,1,34.41,3.89l.78.27a10.6,10.6,0,0,1,3.94-2.87c4.41-2.24,9-4.31,13.89-5.06l2-.15a104.8,104.8,0,0,1,12.89-.65,5.16,5.16,0,0,1,3.54,1,3.28,3.28,0,0,1,.57,3.57,6.44,6.44,0,0,1-2.55,2.8c-1.07.7-2.25,1.23-3.32,1.93l-.71,1.45c0,2.09,1.8,3.83,3.79,4.5a15.29,15.29,0,0,0,6.22.31c-4.53,3-9.1,6-14.13,8s-10.64,3-15.9,1.69a14.7,14.7,0,0,1-3.21,6.28A63.45,63.45,0,0,1,394,1656.62l-8.12,6.4c-1.39,1.1-2.91,2.44-2.95,4.21-.06,1.93,1.63,3.4,3.18,4.55q9.08,6.72,18.73,12.59l.46.83c1,.86,2.5,0,3.29-1.08s1.57-2.36,2.86-2.47a6.81,6.81,0,0,0,1.69,0c.66-.22,1-.93,1.59-1.34,1.57-1.1,3.54.54,5.3,1.31a6,6,0,0,0,6.09-.87c1.58,1.18,1.59,3.49,2.11,5.4a9.1,9.1,0,0,0,5.45,6.06c1.86.71,4,.82,5.58,2,2.26,1.75,2.49,5.06,2.08,7.89-.48,3.36-1.9,7-5,8.4l-.1.41a4.23,4.23,0,0,1,5.55,2.91c.62,3-2.21,5.61-3.07,8.58a33.72,33.72,0,0,0-.6,4,11.65,11.65,0,0,1-21.74,3.56,21.39,21.39,0,0,1-1,6.22,7.79,7.79,0,0,1-4.06,4.61l.6.78a45.59,45.59,0,0,1,10.7.2,17.65,17.65,0,0,0-7,8,9.88,9.88,0,0,1,5.89-.28c-2.43,1.12-4.17,3.3-5.82,5.41l-5.94,7.56-.33.7a30.7,30.7,0,0,1,11.26.5,2.89,2.89,0,0,1,1.27.54,1.05,1.05,0,0,1,.31,1.25,1.54,1.54,0,0,1-.83.57l-4.4,1.8c-.5.37.21,1.17,0,1.76-.15.41-.66.53-1.1.57a35.36,35.36,0,0,1-6,.13.89.89,0,0,0-.75.2,1,1,0,0,0-.13.46,3.88,3.88,0,0,1-3.2,2.94,11.39,11.39,0,0,1-4.6-.33l-.95.26c-3,7.46-10,12.61-17.48,15.63a13.33,13.33,0,0,0-3.67,1.9c-2.63,2.19-2.86,6.32-1.46,9.44s4.05,5.48,6.63,7.73a17.74,17.74,0,0,1,4.87-12l0-1.31c-.26-1.43-.53-2.87-.79-4.3a17.12,17.12,0,0,1,3.86,2.41,27.34,27.34,0,0,1,8.63-9.17c.42-.27.88-.58,1-1.06.21-.94-1-1.83-.66-2.72a4.2,4.2,0,0,1,1.92,1.22,36.23,36.23,0,0,1,10-4.81l-2.07-2.7c2.8-.77,6.22,1.55,8.49-.26,1.17-.93,1.43-2.57,2.07-3.93a7,7,0,0,1,4.83-3.83,9.79,9.79,0,0,0-.89,4.49c6.71-3.3,13.52-6.64,20.85-8.12,1.59-.32,3.69-.31,4.34,1.18s-1,3.21-2.43,4.18l-5,3.27,3.72,1.62a14.39,14.39,0,0,0-10.6,3.71,4.58,4.58,0,0,1,1.29,2.92,23.71,23.71,0,0,0-7.86.79l2.8,3.84-7.25-.59,2.67,4.47a27.73,27.73,0,0,0,5.93,3.45,9.18,9.18,0,0,0,6.72.16c3.16-1.32,5.22-4.94,8.61-5.37a8.56,8.56,0,0,0,2.64-.37c1.81-.85,1.91-3.58,3.57-4.69s4.8-.31,5.6-2.25a14.54,14.54,0,0,1-.21-3.84l1.42,1.86a8.58,8.58,0,0,1,2.51-2.13,1,1,0,0,1,.94-.12,1,1,0,0,1,.34.71c.24,1.38.47,2.76.71,4.13l4.88,2.86c2.05,3.63.74,8.76,3.6,11.78,1.48,1.55,3.69,2.1,5.78,2.57,6,1.37,12,2.78,17.35,5.69s10.07,7.55,11.7,13.44S509.7,1828.71,504.36,1831.67Zm-189.79-72.38a1.11,1.11,0,0,0-.82-.25l-6.95-.2a17.57,17.57,0,0,0,5.07-2.94,5.94,5.94,0,0,0,2-5.26,1.45,1.45,0,0,0-.46-.89,1.5,1.5,0,0,0-.69-.27c-5.43-1.11-10.73,2.06-15.37,5.1-1.9,1.24-3.79,2.48-5.66,3.75a9.29,9.29,0,0,0-2.86,2.61,3.3,3.3,0,0,0-.05,3.66,5.55,5.55,0,0,0-6.27,3.79l.19.74,17.89.35c4.23.09,8.53.16,12.61-1a23,23,0,0,0-6-4.1,13.93,13.93,0,0,0,4.58-.91,4.71,4.71,0,0,0,2.89-3.44A.94.94,0,0,0,314.57,1759.29Zm11.61-32.6a32.89,32.89,0,0,1,11.52,3.23l5.34-13.06c.87-2.14,2.5-4.71,4.76-4.2,2,.45,2.61,3,2.72,5.09.29,5.36-.47,11.71-5.14,14.37a26.77,26.77,0,0,0,6.74,3.27,5.18,5.18,0,0,0,2.63.31,8.29,8.29,0,0,0,2.92-1.84,9.12,9.12,0,0,1,6.29-1.75l-4.86,4.35.86.32,13.75.45a5.26,5.26,0,0,0,2.2-.23,6.66,6.66,0,0,0,1.81-1.37,17.53,17.53,0,0,1,6.64-3.88c-1.65,2.31-3.34,4.58-5.07,6.83,2.57-.19,5.29-.35,7.61.79s4,4.08,2.76,6.37c-1.05,2-3.62,2.59-5.87,2.94l-4.2.66a16.46,16.46,0,0,1,5.45,2.54,1.81,1.81,0,0,1,.75.87c.23.82-.68,1.48-1.44,1.9a22.15,22.15,0,0,0-10.73,14.2l.49.15a106.71,106.71,0,0,1,20.16-5.6,3.84,3.84,0,0,0,1.93-.71,3.79,3.79,0,0,0,.82-1.23A84.49,84.49,0,0,1,408.59,1744l1-.65a2.36,2.36,0,0,0-1.2-2,7.48,7.48,0,0,0-2.32-.78,42.76,42.76,0,0,1-8.85-3.14,13.64,13.64,0,0,1-5.44-4.11,13.94,13.94,0,0,1-2-6,49.07,49.07,0,0,1-.56-6.41l-.15-.79c-8-3.75-16.95-4.9-25.55-6.95s-17.41-5.35-23-12.16l-.07.16c-2.41,6.28-5.13,12.45-8.14,18.46C330.78,1722.45,329.09,1725.45,326.18,1726.69Zm18.9,25.07,3.72-4.63-6.09-2.07a23.88,23.88,0,0,1-2.82,9.5c1.74,1.72,3.55,3.39,5.4,5l.81-.15a71.87,71.87,0,0,0,17.69-9.29c-1.36.66-3-.34-4.47.07a6,6,0,0,0-1.87,1.18,11.33,11.33,0,0,1-5.86,2.27c1.34-2,4.3-2.73,5.1-5l-5.1-.22a3.36,3.36,0,0,0-1.38.13,3.9,3.9,0,0,0-1.1.79A13,13,0,0,1,345.08,1751.76Zm3.83,12.17q4.53,3.84,8.71,8.08l.22-.52c1.63-7.18,7.86-12.23,13.6-16.84a9.69,9.69,0,0,0,3.3-3.79,8.44,8.44,0,0,0-7.72,2.37.84.84,0,0,0-.27.47.86.86,0,0,0,.26.54l1.66,2c-1,.33-1.91-1.1-3-1a2.4,2.4,0,0,0-1,.47A68.64,68.64,0,0,1,348.91,1763.93Zm-6.28,15.85-4.18-4a1.23,1.23,0,0,0-.74-.43,1.29,1.29,0,0,0-.7.28c-3.11,2.1-6.39,4.4-7.85,7.86l.79-.11,5.66-.12a12.85,12.85,0,0,0,4.19-.56A4.32,4.32,0,0,0,342.63,1779.78Zm24.67,26.3-3.37-1.92a5.45,5.45,0,0,0-.94-.46,5.26,5.26,0,0,0-1.94-.11,22.34,22.34,0,0,0-5.16.77c-1.42.45-2.73,1.17-4.11,1.74a19.16,19.16,0,0,1-6.64,1.45A18.6,18.6,0,0,1,343,1814l1.54-1.26c3.87-1,7.4-3,11.07-4.63S363.36,1805.35,367.3,1806.08Zm6.82-22.49c2.35-1.56,5-2.61,7.28-4.3l-6.49.36a1.51,1.51,0,0,0-.81.21c-.82.63.39,2-.1,3-.67.07-1.18-.57-1.69-1a4.1,4.1,0,0,0-4.34-.68,6.74,6.74,0,0,1,1.32,3.5l-4.06-2.56a8.11,8.11,0,0,0-6.8-1.35A42.44,42.44,0,0,1,369,1791.36l.42-1.07C369.65,1787.48,371.78,1785.15,374.12,1783.59Z"></path>
    <path data-name="4" data-official="Arbutus Unedo" data-plain="Strawberry Tree" data-loc="S. Europe and Ireland" d="M1096.15,2580.41a95.35,95.35,0,0,1,21.62-15.63,37.76,37.76,0,0,1,8.39-3.43,44.27,44.27,0,0,1,8.6-1q8.37-.36,16.75-.34l-.66,1.59a93.4,93.4,0,0,1-51.36,32.81l-6-6.16Zm75.33,53.28a171,171,0,0,0,8,15.32l1.5,4.14c13.38,20.52,31.61,37.39,46.41,56.91s26.43,43.45,23.21,67.73c-1.59,11.95-6.73,23.67-5.18,35.62a13.9,13.9,0,0,0,2.84,7.42c3.1,3.56,8.37,4,13.08,4.23,16.16.72,33,1.3,47.71-5.5,4.35-2,8.59-4.85,10.85-9.08,2.71-5.08,2.11-11.25,1-16.9-3.15-15.76-9.91-30.8-11.32-46.82-1.21-13.72,1.5-28-3.16-41-2.66-7.39-7.54-13.74-12.34-20-29.81-38.63-60.87-78.35-103.7-101.74l-4.34,1.08c-4.61,2.26-5.85,8.17-6.27,13.28s-.87,10.92-4.88,14.12c-.93.75-2.07,1.37-2.54,2.47a6,6,0,0,0-.22,2.5,20,20,0,0,1-3,11.16Zm-45.24-96.52-25.92-12.71-2.41-4-7.79.2c-3.81,1-7,3.59-10.15,5.95a139.56,139.56,0,0,1-26.19,15.39l.33,4.58c2.2,3,5.62,4.75,9.05,6.1s7,2.38,10.18,4.28,5.93,4.89,6.44,8.54l-.34,3,24.82-15c8.65-5.22,17.6-10.55,27.59-12Zm-180.5-549.91-4,3.38a9.76,9.76,0,0,1-2.56-1.7c-1,4.11-2,8.31-4.22,11.87-1.51,2.37-3.54,4.41-4.7,7a32.89,32.89,0,0,0-1.59,5.46,39.77,39.77,0,0,1-17.92,24l.32.06a35.63,35.63,0,0,1,19.4,2,9,9,0,0,0-4,.24,3,3,0,0,0-2.11,3.08c.22,1.36,1.64,2.21,3,2.45a4.13,4.13,0,0,0,3.44-.71,2.31,2.31,0,0,0,.33-3.23,8.83,8.83,0,0,1,9.25,1.84,1.64,1.64,0,0,0,.92.58,1.54,1.54,0,0,0,1-.41A98.82,98.82,0,0,1,960,2032.53l-.11-2.71-.73-17.08c-.17-3.91-.47-8.16-3.08-11.08-1.67-1.87-4.1-3-5.7-4.89s-2.16-4.44-2.7-6.86Zm-10.39-26.49a146.45,146.45,0,0,0-10-30.32,7.4,7.4,0,0,0-2.76-3.66c-1.78-1-4-.37-6-.86-3-.73-4.75-3.75-5.65-6.66s-1.27-6.06-2.91-8.63c-2-3.13-5.5-4.87-8.55-7-2.05-1.43-4-3.11-6.34-4-2.79-1-5.88-.83-8.85-.61a1.11,1.11,0,0,0-.78.27,1,1,0,0,0-.19.5c-1.07,6.07,3,12.14,2.06,18.23-.36,2.37-1.46,4.58-1.93,6.93a27,27,0,0,0-.31,5.47l.26,20.65c.06,5-.06,10.42-3.37,14.11,9.94-4.38,21.32-3.39,32.14-2.32a8.35,8.35,0,0,1,4.32,1.26c.68.52,1.24,1.28,2.07,1.51,1.09.31,2.17-.39,3.14-1a18.48,18.48,0,0,1,12.59-2.32ZM745.94,1851.11c3.59,1.09,7.44.64,11.16.22a163.84,163.84,0,0,1,24.24-1.28,21.07,21.07,0,0,1,1.46-7.1c-3.57-1.72-5.18-6.08-8.59-8.09-1.47-.86-3.17-1.22-4.69-2s-2.92-2.16-2.9-3.86c-3-.53-4.51,3.62-7.3,4.75-3,1.21-6.79-1.23-9.36.67a6.55,6.55,0,0,0-2,3.46q-1.53,4.81-2.77,9.71Zm331.39,663.49c-1,2.22-3.16,3.7-5.18,5.08-7.72,5.29-15.78,10.71-25,12.19-7,1.11-14.15-.13-21.22.19l-5.75-3.06a142.9,142.9,0,0,1-19.74-21.32l-2.6-5.7c-1.5-2.87-.57-6.4-1.28-9.55a17.57,17.57,0,0,0-2.36-5.11,148,148,0,0,0-19.4-25.25,155.6,155.6,0,0,1-49.67-3.1l-5.82,1.37c-19.8,1.77-36.93-16.8-56.79-15.87l-6.36-2.51c-2.14-2.74-5.68-4.08-9.15-4.31A36,36,0,0,0,836.7,2439a2.09,2.09,0,0,0-.92.38,3.64,3.64,0,0,0-.66,1.15,3.81,3.81,0,0,1-3.36,1.57,15.58,15.58,0,0,0-3.87.18c.25.94-.89,1.72-1.88,1.72a26.32,26.32,0,0,0-2.92-.32,5.37,5.37,0,0,0-2.4,1.1l-4.54,3.07-3.31,1.9a11.6,11.6,0,0,0-5.28,5.46l-2,4.26-6.39,1.91c-5.17.5-9.9,3-14.33,5.75a146.71,146.71,0,0,0-21.34,16c-10.1,9.1-18.92,19.59-29.43,28.2l-5.75,1.1-10-1.17a8.12,8.12,0,0,0-3.07,0c-1.57.41-2.73,1.69-3.82,2.88a110.19,110.19,0,0,1-15.23,13.81c-1.44,1.07-3.24,2.16-4.91,1.51a2.48,2.48,0,0,0-1.24-.35,1.7,1.7,0,0,0-1,.7l-9.09,10.61-3.81,9a419.17,419.17,0,0,1-64.24,58.77c-8.37,6.19-17.07,12.12-26.8,15.81-10.31,3.92-21.42,5.19-32.41,6.12-47.76,4-95.8,2.16-143.7.29-4.22-.17-8.55-.36-12.44-2-9.82-4.11-13.74-18.14-7.49-26.75l5.32-7.87a29.67,29.67,0,0,0,4.94-15.86c-6,.56-11.76,2.82-17.65,4.27-14.34,3.54-29.39,2.21-44.1.87a92,92,0,0,1-16.47-2.51,60,60,0,0,1-19.33-9.87c-24-17.73-37.45-48.29-35.81-78.08s17.81-58.14,41.72-76l-9.38-5.1a64.63,64.63,0,0,1-40.53-42.73c-.44-1.57-.9-3.27-2.18-4.27-1.48-1.17-3.56-1-5.44-.9-24.47,1.76-48.73-6.42-70.32-18.08-30.11-16.26-57.42-41.08-67.81-73.69-6.69-21-5.93-43.55-5.11-65.57.44-11.77.92-23.74,4.79-34.86,3.65-10.52,10.22-19.84,17.88-27.91,31.78-33.47,84.58-45,127.4-27.75,12.22,4.91,23.67,11.93,36.46,15.06s28,1.41,36.49-8.65l6.9-7.85c6.37-.4,12.18-3.6,17.74-6.73l3.56-3.91c1.66-3.07,1.67-6.74,1.64-10.23,0-3-.11-6.22-1.82-8.7-1.27-1.85-3.31-3.07-4.48-5s-1.32-4.58-1.33-7a1.23,1.23,0,0,1,.18-.78,1.08,1.08,0,0,1,.83-.31,9.64,9.64,0,0,1,4.64,1.39q6.66,3.36,13.11,7.09L374,2082c2-.62,4,.88,6.14.83a8.34,8.34,0,0,0,3.13-.94,18.33,18.33,0,0,0,6.3-3.93,34.11,34.11,0,0,0,3.35-5.3c2.87-4.64,7.46-7.9,11.93-11l5.61-1.22a21.62,21.62,0,0,0,9.57,2c3.89.1,8.19-.44,10.84-3.3a1.55,1.55,0,0,0,.47-.84,4,4,0,0,0-.17-.9c-.19-1.21,1.06-2.09,2-2.91a7.38,7.38,0,0,0,2.13-3.33l3.2-3c2.33-.55,4.75.29,6.94,1.28s4.37,2.16,6.77,2.3c3.78.23,7.24-2.15,9.9-4.86l2.09-2.53q.26-4.3.5-8.61l1.2-4.16a45.58,45.58,0,0,1,0-16.55c.07-.36.18-.77.51-.91a1.11,1.11,0,0,1,1,.29c2.57,1.86,4.5,4.72,7.5,5.77,1.46.5,3.17.6,4.21,1.73l1,2.37a42,42,0,0,0,3.06,11c1.66,3.42,4.42,6.48,8,7.67,7.44,2.44,15.46-3.59,23.1-1.93l5.78-1.74c5-.41,10.17-.84,15-2.5s9.32-4.69,11.7-9.17,2.16-10.51-1.34-14.18-9.42-4.35-12.93-8.07c-1.09-1.15-2-2.6-3.38-3.31a8.18,8.18,0,0,0-3.44-.61L513,2001c-2-.06-4.4.1-5.34,1.86l-1.54,0a6.06,6.06,0,0,0-3.77-4.63,17.86,17.86,0,0,0-6.12-1.15,70.85,70.85,0,0,0-10.09-.23c-3.45.24-6.88,1-10.33.73a36.56,36.56,0,0,1-10.09-2.72c-3.47-1.3-7.36-3-8.5-6.55a3,3,0,0,0-.64-1.34c-1.09-1-3.39.38-4.12-.9-.33-.58,0-1.35-.3-2-.72-1.72-3.9,0-5-1.45-.3-.39-.36-.93-.71-1.28a2.18,2.18,0,0,0-1.67-.41l-12.79.45-4.88,1.26-7.22-1.28c-3.84-1.09-6.88-4-9.93-6.54a91.78,91.78,0,0,0-15.84-10.78c-10.21-5.48-21.89-9.35-29.27-18.29l-2.81-5c-3.4-3.35-4.44-8.6-8-11.78a52.13,52.13,0,0,0-4.67-3.21c-2-1.45-3.73-3.35-5.92-4.51-2.72-1.44-5.92-1.62-8.84-2.61-6.84-2.35-11.23-8.81-16.14-14.13l-8.07.33a20,20,0,0,1-11.72-4l-1.91-6.06c-1.79-2.68-3.55-5.63-3.51-8.85.05-3,1.68-5.76,2.92-8.52a18.66,18.66,0,0,0,1.93-9.07l4.15-.67a55.64,55.64,0,0,1,15.22-7.65l8.26-4.48,3.7.25a26.75,26.75,0,0,0,7.09-1,229.28,229.28,0,0,0,22.93-6.81l5.44.46c-1.57,6-3.58,12-7.1,17.11s-8.73,9.3-14.82,10.47c3.81,1.5,8.22.76,11.82-1.18a31,31,0,0,0,9.07-8.14,76.27,76.27,0,0,0,8.7-13.37c1.27-2.49,2.44-5.09,4.35-7.13s4.8-3.42,7.5-2.73l6.78,2.35a24,24,0,0,1-6,6.73A6.94,6.94,0,0,0,380,1850l1.52,2.94a2,2,0,0,1,.31,1.23,2,2,0,0,1-.71,1l-3.83,3.4a15.61,15.61,0,0,0-4-1.3c-.3,1.4,1.51,2.69,1.05,4a2.73,2.73,0,0,1-.79,1l-3.36,3.12a2.81,2.81,0,0,1-.91.63c-1.08.34-2.31-.78-3.29-.21a10.93,10.93,0,0,1,.74,4.7l-.78,1.36c-2.75,3-5.55,6-9,8.16s-7.69,3.34-11.62,2.33c1.88,1.82,4.72,2.15,7.34,2.23a23.43,23.43,0,0,0,6.58-.52c4.08-1.06,7.44-3.87,10.65-6.61a106.17,106.17,0,0,0,13.07-12.45,14,14,0,0,0,3.91,1.37c.46-1.74-1.34-3.37-1.23-5.16a4.61,4.61,0,0,1,.93-2.21,29.23,29.23,0,0,1,4-4.84c1,1.54,2,3.12,2.92,4.73.15-2.12.3-4.25.46-6.37a2.32,2.32,0,0,1,1.74-2.5q2.73-1.26,5.55-2.29a11.69,11.69,0,0,0-2.29,3.86c-2.46,6.35-1.9,13.4-1.65,20.21s.05,14-3.61,19.78c-1,1.55-2.2,2.95-3.05,4.58a4.31,4.31,0,0,0-.58,3,3.43,3.43,0,0,0,3.22,2.34,7.16,7.16,0,0,0,4-1.27c5-3.06,8-8.65,9.21-14.38s.79-11.66.29-17.5a10.9,10.9,0,0,0,3.83,2.65c-1.39-2.25-3.16-4.27-4.37-6.62s-1.77-5.26-.61-7.64a21.1,21.1,0,0,1,5.56,4,9.19,9.19,0,0,0-3.41-5.86c-.76-.6-1.67-1.13-2-2-.72-1.71.87-3.44,2.3-4.62l.87-.14a20.28,20.28,0,0,0,17.68-.33l.1.13c3.88,2,8.09,3.44,11.68,5.92a56.6,56.6,0,0,1,4.46,3.6c4.25,3.62,8.73,7,13.21,10.31,6.41,4.78,13.39,9.76,21.38,9.93a33.76,33.76,0,0,0,10.73-2c-5.4-.15-10.22-3.33-14.44-6.71-5.53-4.44-10.62-9.43-16.37-13.59s-12.33-7.51-19.4-8c-4.08-.31-8.83.08-11.54-3,3.14-2.36,7.23-2.94,11.15-3.23,16.14-1.21,32.47,1.15,48.52-1l11.8,4c39.44,2.89,78.87,11.08,114.55,28.14l8.88,5.33c9.17,6.95,18.43,13.95,28.82,18.91,1.88.9,3.8,1.73,5.66,2.68a33.08,33.08,0,0,1,6.56,4.29l3.89-.5a15.54,15.54,0,0,0,2.74-11.5l-.61-6.57c-.32-3.53-2.55-6.56-4.8-9.29a134.68,134.68,0,0,0-27.05-25c-2.15-1.5-4.67-3-7.22-2.4l-3.52,1.18c-7.85-2.69-14.75-7.54-21.54-12.33l-22-15.53c-4.17-2.94-8.34-5.88-12.28-9.12-6.84-5.61-12.94-12-19-18.46a113.27,113.27,0,0,1-8.92-10.17c-2.36-3.15-4.38-6.54-6.53-9.84a156.71,156.71,0,0,0-15.82-20.38l-5.93-4.94c-.18-4.26,1.53-8.56.55-12.7-.83-3.49-3.41-6.23-5.67-9a65.69,65.69,0,0,1-10.15-17.2,16.89,16.89,0,0,0-2.07-4.14,18.33,18.33,0,0,0-3.28-2.93,34.55,34.55,0,0,1-10.92-15.38h-.9l-9-.7a14.55,14.55,0,0,0-2.95,0,21.08,21.08,0,0,0-3.62,1c-6.36,2-13.66,1.61-19.28-2-1.52-1-2.89-2.14-4.38-3.13a38.43,38.43,0,0,0-6.07-3.16,138.56,138.56,0,0,0-22.95-7.73c-3.21-.78-6.91-1.79-8.24-4.82-1.65-3.72,1.35-7.74,4.14-10.7,4.27-4.54,8.84-9.27,14.82-11,3-.89,6.23-1,9.25-1.86s6-2.91,6.73-6c5.46.21,11,.44,16.16,2.3s9.87,5.66,11.46,10.89l1.42.51q18.92,1.32,37.9.75a51.64,51.64,0,0,0,12-1.39c7.41-2,14.86-7.18,22.07-4.54l1.62-.29a70.76,70.76,0,0,1,32.43-8.37l7.66.56a31.36,31.36,0,0,1,22.9,8.49c2.27,2.15,4.31,4.73,7.21,5.91-3.13,1.82-5.07,5.23-6,8.74s-1,7.16-1.17,10.78a1.76,1.76,0,0,1-.37,1.17,1.79,1.79,0,0,1-1,.36l-3.18.39c-.08.84.74,1.49,1.53,1.8a5.45,5.45,0,0,1,2.25,1.1,2.36,2.36,0,0,1-.68,3.38,3.79,3.79,0,0,1-3.74-.12,7.14,7.14,0,0,0,5,3.38l-.39.3-.63,13.14a4,4,0,0,0,.23,2c.78,1.61,3.1,1.47,4.69,2.3s2.76,3,4.65,3c.7,0,1.47-.28,2,.11s.58,1,.85,1.59c.55,1.13,1.87,1.61,3,2.17s2.28,1.63,2,2.86l-.26.8a3.3,3.3,0,0,0-3.36,1.48,5.39,5.39,0,0,0-.66,3.76,7.93,7.93,0,0,0,2.57,4.65c1.28,1.12,3,1.91,3.67,3.46s0,3.59-.3,5.39.17,4.16,2,4.56a4.16,4.16,0,0,1,1.37.32c1,.64.26,2.15.46,3.29.3,1.79,2.78,2.23,4.46,1.57s3.14-2,4.94-2.18a5.51,5.51,0,0,1,5.09,2.69,10.52,10.52,0,0,1,1.36,5.84c0,2-.3,4.33,1,5.88,1.13,1.32,3,1.6,4.75,1.79a7.27,7.27,0,0,0,2.49,7.63,27.64,27.64,0,0,1,3.07,2.15c.57.57,1,1.28,1.55,1.85,1.81,1.81,4.69,1.84,7.24,1.75l.47.1q-.23,4-.21,8c0,1.21.14,2.63,1.17,3.26.5.31,1.13.36,1.58.73,1.51,1.24-.53,4.19.91,5.52.69.63,1.84.48,2.55,1.08,1,.89.46,2.58.68,3.94.37,2.32,3.07,3.42,5.41,3.69a21.48,21.48,0,0,0,14-3.26c-.51,2.3,1.24,4.62,3.4,5.56s4.6.86,6.95.75a31.88,31.88,0,0,0,4.11,11.4l2.91,5.11a252.81,252.81,0,0,1,15.64,34.58l-1.15,3.45c-2.2,5.66.27,12.47-2.47,17.88-1.53,3-4.42,5.07-7,7.33a40,40,0,0,0-10.69,15.63,21.43,21.43,0,0,1,8.65-3.55c2.48-.42,5.37-.26,7,1.62,2.58,2.89.64,7.55,1.81,11.24a6.92,6.92,0,0,0,4.69,4.48l3.63.31a29,29,0,0,1,15.7,4,4,4,0,0,0,2,.75,2.87,2.87,0,0,0,2.28-2c.38-1,.49-2.12,1-3.09a4.55,4.55,0,0,1,2.8-2.35c3.6-1.06,6.87,2.45,10.54,3.23,1.64.34,3.34.13,5,.37,3.34.49,6.31,2.76,9.68,2.73,1.16,0,2.43-.27,3.37.41a4,4,0,0,1,1.2,1.92q2.53,6.69,5.08,13.36l5.92-5.7c4.53,1.81,9.7.13,14-2.12s8.52-5.14,13.35-5.86c-1.6,3.38-1.89,7.21-2.14,10.94-.86,12.48-1.71,25.17,1,37.39,1.79,8.13,5.09,15.84,8.38,23.5a44.07,44.07,0,0,0,4.36,8.44,20.65,20.65,0,0,0,4.14,4.26l.37,1.61c-4.73,5.38-9.7,11.37-9.95,18.53-.09,2.46.4,5-.25,7.35a31.3,31.3,0,0,1-1.55,3.69c-3.69,8.73.59,18.67.29,28.15a16.85,16.85,0,0,0,.23,5.36,30.39,30.39,0,0,0,1.88,3.9c1.58,3.38,1.47,7.28,1.32,11q-.27,7.08-.55,14.15c-.11,2.92-.21,6,1,8.62a27.08,27.08,0,0,1,1.2,2.56,18.09,18.09,0,0,1,.5,4,14.23,14.23,0,0,0,4.4,8.92c1.29,1.21,2.81,2.18,4,3.49a5.37,5.37,0,0,1,1.52,4.86l.92,0c0-2.16,1.72-4,3.63-5s4.08-1.39,6.07-2.22c4.87-2,8.37-6.35,11.17-10.82s5.15-9.28,8.75-13.13c1.36-1.46,2.88-2.77,4.35-4.12a81.25,81.25,0,0,0,6.14-6.31,7.39,7.39,0,0,0,1.15-1.63,7.88,7.88,0,0,0,.5-2.22,51.56,51.56,0,0,1,9.93-24.23l.66-1c.78-1,1.55-2,2.33-3a39.28,39.28,0,0,0,.34,10.94c.8,3.57,2.75,7.06,5.93,8.86l-1,.53a53.46,53.46,0,0,0-8,33.84,29.82,29.82,0,0,0,1.68,7.65c2.53,6.54,8.22,11.37,11.33,17.66a25.15,25.15,0,0,1,2,16.19,50.06,50.06,0,0,0,24.58-11.5c7-6.06,12.17-14,18.82-20.39a2.83,2.83,0,0,1,2.34-1.11c.93.19,1.42,1.19,1.72,2.09a29.94,29.94,0,0,1,1.51,12.35l1,6a194,194,0,0,1-25.18,91.16c-6.48,11.4-14.34,22.8-15.12,35.89-.68,11.5,4.27,22.55,10,32.57s12.25,19.74,15.36,30.83l3.7,14.21c1.87,9.77,6.39,18.8,10.85,27.69L975.32,2401c3,5.95,6,11.9,9.22,17.72a233,233,0,0,0,22.35,33.09l6.32-.46c4,1.4,6.65,5,9.23,8.32a146,146,0,0,0,21.65,22.32l2.51,4.56c-1.46,3.46-.9,8,2.16,10.21a12.88,12.88,0,0,0,3.76,1.63l16.77,5.25,6.34,4.63C1077.86,2509.24,1078.37,2512.39,1077.33,2514.6ZM622.92,2102.79l-1-8.18a29.31,29.31,0,0,0-1.52-7.27,9.85,9.85,0,0,0-4.78-5.47l-7.31.06c-4.69,7.23-13.6,10.44-19.61,16.6-1.81,1.86-3.44,4.25-3.22,6.84a7.24,7.24,0,0,0,3.57,5.29,18.32,18.32,0,0,0,6.23,2.16,81.05,81.05,0,0,0,15.54,1.6,12.45,12.45,0,0,0,3.94-.42c3.53-1.13,5.48-4.81,7.08-8.16Zm59.35,107.71c-.51-2.62-1.32-5.22-1.15-7.89a40.07,40.07,0,0,1,.86-4.83,24.11,24.11,0,0,0-1.32-13.28,15.74,15.74,0,0,1-1.4-4.22c-.18-1.74.41-3.45.65-5.18a13.59,13.59,0,0,0-3-10.53,12,12,0,0,1-2.24-3c-.28-.72-.36-1.51-.62-2.24a9.13,9.13,0,0,0-3.39-3.91c-6.66-5.07-14.11-9-21.52-12.87a13.78,13.78,0,0,0-5.72-2c-2.25-.06-4.36,1-6.36,2l-6.56,3.31a15,15,0,0,0-4.67,3.17c-2.91,3.32-2.3,8.49-.46,12.5a26.18,26.18,0,0,0,9.33,10.93c2.9,1.92,6.16,3.24,9.12,5.07,9.81,6,15.76,18,14.29,29.42-.86,6.65-4,13.33-2.23,19.8a13.6,13.6,0,0,0,21.87,6.82l3.4-5.31A35.41,35.41,0,0,0,682.27,2210.5ZM939.2,2426.86c2.13-4.33,7.76-5.28,12.57-5.69l-7.66-15.58c-1.51-3.08-3.52-6.54-6.91-7a3,3,0,0,0-2.56.66l-5.12-4.51q-24.69-45.7-53-89.32-4.87-7.53-9.83-15Q855,2272.73,843.39,2255l-3.59-14.72-.66-4.55c-1.47-6.41-3.07-13.09-7.28-18.14-2.31-2.78-5.36-5-7.1-8.16-1.26-2.29-1.74-4.94-3-7.26a13.12,13.12,0,0,0-8.68-6.68l-2.35-5.24q-8.79-17.58-18-34.94a27.35,27.35,0,0,0-3.52-5.54c-4.57-5.17-12.27-6.33-17.5-10.84l-1.39-3.36c-3.83-1.82-8.1-4.15-9.07-8.28a6.11,6.11,0,0,1-7.09-4.36l-5.26-.07a1.52,1.52,0,0,1-1.33-.46c-.29-.44-.06-1,0-1.54.13-1.76-1.84-2.81-3.46-3.51a37.06,37.06,0,0,1-9.83-6.33l-1.07-1.36c-2.36-2-2.93-5.42-5-7.74-1.38-1.6-3.4-2.62-4.46-4.44-.6-1-.85-2.27-1.52-3.27-1.23-1.85-3.58-2.54-5.37-3.86-1.38-1-2.43-2.4-3.72-3.54a12.56,12.56,0,0,0-9-3l-2.36-2.37a33.29,33.29,0,0,1-7.85-11c-1.46-3.32-2.76-7.28-6.14-8.57s-7.22.72-10.52-.58c-1.14-.45-2.53-1.25-3.45-.43l-1.77-1.33c-9.54-2.13-15.57-12.06-24.85-15.09a13.63,13.63,0,0,1-3.08-1.18c-2.06-1.3-3-4-5.25-5-1.38-.61-3.06-.47-4.29-1.34a11.17,11.17,0,0,1-1.82-2.1c-1.86-2.19-4.85-3-7.64-3.63-1.74-.41-3.77-.76-5.13.39s-1.35,3.5-.74,5.3c1.24,3.66,4,6.65,5.4,10.22,2.19,5.43,1.52,12.21,5.57,16.45l2.63,5.89.78,6.48c.27,2.23.65,4.69,2.36,6.15l3.7,1.26a2.73,2.73,0,0,1,.63,2.81,21.8,21.8,0,0,0-.83,2.94,5.17,5.17,0,0,0,2.35,4.53,11.33,11.33,0,0,0,5,1.67c2.19.28,4.75.51,5.91,2.38a19.06,19.06,0,0,1,.79,1.79c1,2.2,3.43,3.43,5.79,4s4.83.6,7.17,1.25a14.53,14.53,0,0,1,8.08,5.76l-1.25,2.85c.53,3.09-1.79,6-4.51,7.59s-5.87,2.21-8.71,3.55a4.54,4.54,0,0,0-2.13,1.67c-.77,1.32-.24,3,.48,4.36,4.56,8.57,15.14,12.25,20.69,20.21a50.29,50.29,0,0,0,3.64,5.31c3.36,3.71,9.14,5.32,11,10l.3,5.6A43,43,0,0,0,693,2189a2.84,2.84,0,0,0,.26,1c1,1.85,4.89.2,5.52,2.21s-3.16,2.63-3.41,4.65c-.2,1.6,2,2.61,2.13,4.22.21,1.82-2.06,2.79-3.85,3.16a83,83,0,0,1-1.35,17.73,31.23,31.23,0,0,0,28.1-5.57c1.33-1.08,2.85-2.35,4.53-2a5.42,5.42,0,0,1,2.87,2.18l13.49,16.18,4,3.28c4.22,7.27,14.09,9.09,19.69,15.36a3.56,3.56,0,0,0,1.69,1.32c.95.22,1.89-.43,2.86-.41,1.8,0,2.69,2.21,2.89,4s.3,3.91,1.82,4.88,3.39.26,5.05.73c3.12.9,4,5.34,7,6.53l4.22,2.58a18.89,18.89,0,0,1,6.29,20.62c-.7,2.05-1.79,4.06-1.74,6.23a8.08,8.08,0,0,0,4.23,6.44,19.39,19.39,0,0,0,7.68,2.19c1.16.14,2.66.61,2.63,1.78a2.05,2.05,0,0,1-.78,1.35c-2.19,2.06-5.57,3-6.74,5.79a4.88,4.88,0,0,0,3.48,6.42c.92.16,1.89,0,2.8.27a4.46,4.46,0,0,1,3.06,4.83,6.13,6.13,0,0,1-3.74,4.64c-1.31.56-2.77.75-4,1.4s-2.36,2-2,3.4c.53,2.09,3.44,2.16,5.57,1.81s5.09-.07,5.41,2.06l-.31,1.14a10.06,10.06,0,0,0-9.94,4.91,3.6,3.6,0,0,0-.43,3.24c.72,1.48,2.71,1.62,4.33,1.9s3.54,1.61,2.93,3.14l-8.46,2.07a7,7,0,0,1,6.17,4.63,38.53,38.53,0,0,1-9.11,2.17c2.32,2.05,4.82,4.45,5,7.55a2.08,2.08,0,0,1-.67,1.84,2.5,2.5,0,0,1-1.46.26l-7.49-.2c3.89,3,5.32,8.22,6.25,13.07s1.69,10,4.8,13.86l1.65,1.94a169,169,0,0,1,35.6,6.64c2.64.79,5.34,1.66,8.09,1.49s5.61-1.64,6.57-4.23l5,2.86A85.43,85.43,0,0,1,902,2421.57c6.12,3.88,11.83,8.59,18.59,11.2l8.88,6.5a66.51,66.51,0,0,0,18.63,2.14c-1.66-2-4.25-2.86-6.23-4.5C939,2434.54,937.55,2430.21,939.2,2426.86Z"></path>
    <path data-name="5" data-official="Rhododendron ferrugineum" data-plain="Rusty-leaved Rhododendron" data-loc="Switzerland" d="M1166.94,2331.38q.25-8.68.5-17.36a9.65,9.65,0,0,1,.56-3.59,12.23,12.23,0,0,1,1.87-2.67,22.93,22.93,0,0,0,3.27-5.46,52.23,52.23,0,0,1,2.45-5.87,7,7,0,0,1,4.87-3.74c1.84-.24,4,.51,5.39-.75l1.61,4.68,2,4.71.42,3.21A71.85,71.85,0,0,0,1166.94,2331.38ZM1070.3,2426a48.87,48.87,0,0,1-36.33-17.59c-3-3.7-5.56-8-6.41-12.68l.24-16.77a139,139,0,0,1,2.61-60.86c1-3.85,2.22-7.66,3.1-11.54,1.39-6.18,2-12.52,3.15-18.74a96.12,96.12,0,0,1,10.08-28l2-6.76a16.29,16.29,0,0,0,2.37-10.78,41.67,41.67,0,0,0-23.9,19.93c-12-7.35-24.68-15.47-30.33-28.36-3.65-8.34-3.88-17.76-3.43-26.85a44.45,44.45,0,0,1,1.93-12.38c4.33-12.47,17.45-19.34,29.71-24.2l-.26-.5c-7.27,1-15.35-.76-20.13-6.33s-4.74-15.27,1.23-19.54c-.63,5.92,4.4,11.34,10.14,12.93s11.9.16,17.48-1.93q1.14,6.09,2.3,12.17l35.64-2.35,1-3.09c-.51-3.85-3.67-6.71-6.4-9.48-8.92-9.05-15-20.49-23-30.32a4.41,4.41,0,0,0-1.47-1.32,4.66,4.66,0,0,0-2.23-.21,67.31,67.31,0,0,1-20.39-1.89c-3.72-.93-7.6-2.19-11.32-1.23-2.84.73-5.21,2.68-8,3.7-6,2.24-12.69-.19-18.35-3.19s-11.3-6.66-17.7-7l-10.58.51a2.83,2.83,0,0,0-2.34,1.11c-6.65,6.44-11.83,14.33-18.82,20.39a50.06,50.06,0,0,1-24.58,11.5,25.15,25.15,0,0,0-2-16.19c-3.11-6.29-8.8-11.12-11.33-17.66a29.82,29.82,0,0,1-1.68-7.65,53.46,53.46,0,0,1,8-33.84l1-.53c-3.18-1.8-5.13-5.29-5.93-8.86a39.28,39.28,0,0,1-.34-10.94c-.78,1-1.55,2-2.33,3l-.66,1a51.56,51.56,0,0,0-9.93,24.23,7.88,7.88,0,0,1-.5,2.22,7.39,7.39,0,0,1-1.15,1.63,81.25,81.25,0,0,1-6.14,6.31c-1.47,1.35-3,2.66-4.35,4.12-3.6,3.85-6,8.66-8.75,13.13s-6.3,8.81-11.17,10.82c-2,.83-4.15,1.23-6.07,2.22s-3.63,2.8-3.63,5l-.92,0a5.37,5.37,0,0,0-1.52-4.86c-1.19-1.31-2.71-2.28-4-3.49a14.23,14.23,0,0,1-4.4-8.92,18.09,18.09,0,0,0-.5-4,27.08,27.08,0,0,0-1.2-2.56c-1.2-2.66-1.1-5.7-1-8.62q.27-7.08.55-14.15c.15-3.73.26-7.63-1.32-11a30.39,30.39,0,0,1-1.88-3.9,16.85,16.85,0,0,1-.23-5.36c.3-9.48-4-19.42-.29-28.15a31.3,31.3,0,0,0,1.55-3.69c.65-2.37.16-4.89.25-7.35.25-7.16,5.22-13.15,9.95-18.53l-.37-1.61a20.65,20.65,0,0,1-4.14-4.26,44.07,44.07,0,0,1-4.36-8.44c-3.29-7.66-6.59-15.37-8.38-23.5-2.68-12.22-1.83-24.91-1-37.39.25-3.73.54-7.56,2.14-10.94-4.83.72-9,3.6-13.35,5.86s-9.5,3.93-14,2.12l-5.92,5.7q-2.53-6.68-5.08-13.36a4,4,0,0,0-1.2-1.92c-.94-.68-2.21-.42-3.37-.41-3.37,0-6.34-2.24-9.68-2.73-1.65-.24-3.35,0-5-.37-3.67-.78-6.94-4.29-10.54-3.23a4.55,4.55,0,0,0-2.8,2.35c-.48,1-.59,2.08-1,3.09a2.87,2.87,0,0,1-2.28,2,4,4,0,0,1-2-.75,29,29,0,0,0-15.7-4l-3.63-.31a6.92,6.92,0,0,1-4.69-4.48c-1.17-3.69.77-8.35-1.81-11.24-1.68-1.88-4.57-2-7-1.62a21.43,21.43,0,0,0-8.65,3.55,40,40,0,0,1,10.69-15.63c2.53-2.26,5.42-4.3,7-7.33,2.74-5.41.27-12.22,2.47-17.88l1.15-3.45A252.81,252.81,0,0,0,707.06,1813l-2.91-5.11a31.88,31.88,0,0,1-4.11-11.4c-2.35.11-4.8.2-6.95-.75s-3.91-3.26-3.4-5.56a21.48,21.48,0,0,1-14,3.26c-2.34-.27-5-1.37-5.41-3.69-.22-1.36.37-3-.68-3.94-.71-.6-1.86-.45-2.55-1.08-1.44-1.33.6-4.28-.91-5.52-.45-.37-1.08-.42-1.58-.73-1-.63-1.16-2-1.17-3.26q0-4,.21-8l-.47-.1c-2.55.09-5.43.06-7.24-1.75-.57-.57-1-1.28-1.55-1.85a27.64,27.64,0,0,0-3.07-2.15,7.27,7.27,0,0,1-2.49-7.63c-1.72-.19-3.62-.47-4.75-1.79-1.33-1.55-1.06-3.84-1-5.88a10.52,10.52,0,0,0-1.36-5.84,5.51,5.51,0,0,0-5.09-2.69c-1.8.23-3.25,1.53-4.94,2.18s-4.16.22-4.46-1.57c-.2-1.14.51-2.65-.46-3.29a4.16,4.16,0,0,0-1.37-.32c-1.79-.4-2.28-2.75-2-4.56s1-3.71.3-5.39-2.39-2.34-3.67-3.46a7.93,7.93,0,0,1-2.57-4.65,5.39,5.39,0,0,1,.66-3.76,3.3,3.3,0,0,1,3.36-1.48l.26-.8c.27-1.23-.89-2.29-2-2.86s-2.44-1-3-2.17c-.27-.55-.34-1.24-.85-1.59s-1.34-.1-2-.11c-1.89,0-3-2.16-4.65-3s-3.91-.69-4.69-2.3a4,4,0,0,1-.23-2l.63-13.14.39-.3a7.14,7.14,0,0,1-5-3.38,3.79,3.79,0,0,0,3.74.12,2.36,2.36,0,0,0,.68-3.38,5.45,5.45,0,0,0-2.25-1.1c-.79-.31-1.61-1-1.53-1.8l3.18-.39a1.79,1.79,0,0,0,1-.36,1.76,1.76,0,0,0,.37-1.17c.21-3.62.25-7.28,1.17-10.78s2.86-6.92,6-8.74c-2.9-1.18-4.94-3.76-7.21-5.91l-3.72-9a7.9,7.9,0,0,0-.9-6.47,23.27,23.27,0,0,0-4.4-5.06l-8.83-8.37c-2.38-2.26-4.82-4.59-6.27-7.54-2.57-5.26-1.58-11.54.23-17.11l9-10.16c-.53-4.05-1.15-8.31-3.67-11.52-1.26-1.62-3-2.92-3.92-4.75a11.42,11.42,0,0,0-1.1-2.11c-1.1-1.34-3-1.5-4.78-1.71-4.47-.53-9-2.26-11.72-5.88-3-4.13-2.94-9.92-1-14.67s5.35-8.7,8.77-12.51l12.22-7.2,10.49-1.2c-3.3-6.55-4.34-14.38-2.06-21.36s8.09-12.89,15.24-14.53c-.8-3.65,1.35-7.24,3.55-10.25s4.67-6.24,4.62-10l5.75-.59a23.32,23.32,0,0,1,17.92,3.27,1.56,1.56,0,0,0,1.12.39,1.18,1.18,0,0,0,.68-.49,16.1,16.1,0,0,0,1.49-3.1,6.56,6.56,0,0,1,9.51-2.08l5.48,3.67a42.8,42.8,0,0,1,13.48,11.29,10.46,10.46,0,0,0,0-3.62c0-1.21.33-2.64,1.45-3.09a3.67,3.67,0,0,1,2,0c4.8.85,9.9,1.83,13.47,5.17,2.62,2.44,4.21,6,7.29,7.82,2.29,1.37,5.19,1.63,7.2,3.38,2.45,2.13,2.94,5.89,5.39,8,1.36,1.18,3.16,1.7,4.76,2.54s3.14,2.26,3.16,4.07l.61.39c4.67,1.88,10,1.1,14.78-.48s9.31-3.89,14.19-5.11a66.73,66.73,0,0,1,13.69-1.48l-5.14-4.86-.43-.25c-6,2.94-13.24.86-19.2-2.16A67.11,67.11,0,0,1,713.45,1469c-3.31-4.21-6.11-8.82-9.5-13-4.28-5.24-9.45-9.68-14.58-14.08a21.73,21.73,0,0,0-5-3.53l-.93-.11c-5.73.79-8.79,7.19-13.77,10.14-6.6,3.9-15.06,1.14-22.59,2.54l-2.7-.73a42.57,42.57,0,0,0-9.51-.76,7.7,7.7,0,0,1-4.46-.89,5.21,5.21,0,0,1-1.55-1.87,10.7,10.7,0,0,1-.9-6.32,31.59,31.59,0,0,1,1.7-6.25l5.92-1.78c1.86-1.79,1.25-4.86,2-7.33s3.07-4.49,5.44-5.84a27.84,27.84,0,0,1,16.74-3.46,5.38,5.38,0,0,0,2.19,0,5.59,5.59,0,0,0,2.15-1.76,18.76,18.76,0,0,1,17.63-5.55l.12-.17c-2.76-9.26-.25-19.17,2.26-28.49a32.63,32.63,0,0,1,3-8.26,11,11,0,0,1,6.71-5.37,5.54,5.54,0,0,1,3.85.39c.61.33,1.12.81,1.74,1.11,1.31.64,2.84.42,4.3.42a13.15,13.15,0,0,1,7.95,2.74,11.13,11.13,0,0,0,2.9,2,7.93,7.93,0,0,0,2.79.3l7.07-.08a5,5,0,0,1,4.59,1.77c2.82,2.69,5.85,5.92,5.58,9.8l.17-.18c.41-1.94.86-4,2.2-5.45s3.72-2.29,4.73-4.15.4-4.42,1.57-6.25c1.38-2.15,4.58-2.32,6.32-4.21,1.5-1.64,1.56-4.2,2.94-6s3.7-2.32,5.13-3.94a10.43,10.43,0,0,0,1.44-2.37q1-2.16,2.11-4.32c1.2,0,2,1.29,2.35,2.44s.74,2.52,1.84,3c1.52.74,3.36-.88,3.36-2.57,1.91,1.95,3.88,4,4.72,6.59.42,1.31.53,2.69.88,4,.4,1.52,1.09,3,1.55,4.46a23.78,23.78,0,0,1,.85,7.13c-.06,16.14-7.2,31.39-15.39,45.29l.83.27a77,77,0,0,1,15.13,6,5.66,5.66,0,0,1,2,1.53c1.21,1.71.25,4.08.57,6.15a1.49,1.49,0,0,0,.37.86,1.75,1.75,0,0,0,.87.34l4.24.8.15-.45c.46-5.27-2.27-10.21-4-15.21-3.37-9.69-3.08-20.23-2.73-30.49a40,40,0,0,1,.92-8.61c1.32-5.19,4.62-9.6,7.84-13.87,1.55-2,3.39-4.26,5.94-4.53a1.49,1.49,0,0,1,1.27.32,1.73,1.73,0,0,1,.37.93c.23,1.25.47,2.5.7,3.75a16.25,16.25,0,0,0,3.28-6.48,10.29,10.29,0,0,1,5.4,5,30.49,30.49,0,0,1,2.47,7.06,35.76,35.76,0,0,0,2.76-9.83c.22-2.78-.15-5.82,1.43-8.12,1.8-2.63,5.38-3.21,8.56-3.31s6.64,0,9.16-2l1.94-1c2.57.16,5.24.32,7.66-.56,1.51-.55,2.87-1.49,4.42-1.9,4-1,7.91,1.54,11.21,4,2.41,1.79,5,3.91,5.35,6.89,1.53-.93,3.39.43,4.61,1.73a84.9,84.9,0,0,1,7.37,9l.57-.31,7-8.81c1.71-2.16,3.56-4.42,6.15-5.36a22.65,22.65,0,0,1,4.86-.81,22.91,22.91,0,0,0,9.83-3.7,25.34,25.34,0,0,1,4.41-2.75c4.35-1.71,9.29.64,13.91-.11,1.83-.3,3.63-1.09,5.47-.85,2.22.3,4,2,6.1,2.76,3,1,6.92.18,9,2.58s1,5.91,2.4,8.55,4.74,3.62,6,6.24,0,5.94.93,8.72c.69,2,2.46,3.45,3.54,5.28a11.52,11.52,0,0,1,1.37,4,18.09,18.09,0,0,1-.54,8.17c-.75,2.48-2.51,5.11-5.11,5.19l.8.31a12.9,12.9,0,0,1,11.29,1.64,19.2,19.2,0,0,0,2.84,1.93,3.28,3.28,0,0,0,3.27-.09c.55-.4.89-1,1.44-1.41,1-.71,2.39-.39,3.62-.29s2.79-.31,3-1.52a13.58,13.58,0,0,1,0-1.57,2.13,2.13,0,0,1,1.56-1.16,10,10,0,0,1,9.73,2.61c.93,1,1.73,2.15,3,2.59,1.55.54,3.22-.28,4.87-.41a7.86,7.86,0,0,1,5.83,2.33,23.31,23.31,0,0,1,3.84,5.17l3.16,2.87a43.52,43.52,0,0,1,18,23.18c8.76-3,17.92-5.37,27.16-4.87s18.67,4.25,24.27,11.62c2.93,3.84,4.67,8.45,6.13,13a131.16,131.16,0,0,1,6,34.48l4.9,4.72c5,1.72,7.63,7.07,9.74,11.92,3.71,8.51,7.47,17.24,8.1,26.5l-3.72,18.54c1,10.88,7.06,20.56,10.53,30.91,4.31,12.87,4.61,26.72,4.09,40.28-.19,5.06-.46,10.28,1.3,15,1.18,3.16,3.2,5.92,5,8.77a70.19,70.19,0,0,1,9.76,47.86l-5.22,7.55a59.59,59.59,0,0,1-17.64,24.89c-2,1.64-4.12,3.23-5.22,5.55s-1,4.71-.92,7.13c.77,19.07,4,39.65-5.74,56-2.51,4.2-5.78,9.76-2.49,13.39,2.2,2.42,6,2.14,9.28,1.92,8.76-.59,17.81.7,25.53,4.87l3.22,6.08c1.9,6.17,3.93,12.57,8.34,17.27a4.27,4.27,0,0,1,1.47,2.41,3.94,3.94,0,0,1-.3,1.47l-6.78,19.62a30.72,30.72,0,0,1-3.25,7.28,15.71,15.71,0,0,1-16.69,6.21l-6.37,11a43.09,43.09,0,0,0-13.44,30.74l-.13,6c3.21,2.51,4.66,6.61,5.81,10.52,3.22,10.9,5.32,22.29,4.35,33.61s-5.21,22.62-13.27,30.63c-1.66,1.65-3.61,3.44-3.62,5.79a8,8,0,0,0,1.12,3.51q7.88,15.69,17.26,30.56a15.08,15.08,0,0,0,4,4.73c2.5,1.68,5.82,1.81,8.26,3.57l7.71-3.15c1.42,9.79,5.11,19.1,7.28,28.74l-6.09,10.42c-4.24-1.51-9,1.75-10.7,5.92s-1.11,8.87-.37,13.31,1.64,9,.5,13.38c-1.82,6.94-8.28,11.6-11.6,18-4.1,7.84-2.94,17.6.87,25.58s10,14.56,16,21l2.67,7.77c-1.74,4.71-.52,10,1.64,14.58s5.18,8.62,7.29,13.18c1.37,2.94,2.34,6.05,3.68,9,3.52,7.76,9.56,14.39,11.64,22.65l1.53,2.39c2.64,2.69,2.8,6.88,2.79,10.66q0,12.06,0,24.13a33.66,33.66,0,0,0-6.83-18.95,12,12,0,0,1-1.89-2.93,9.23,9.23,0,0,1-.45-2.77,66.66,66.66,0,0,1,.17-9.48,7,7,0,0,0-6.32,3.22,5.74,5.74,0,0,0,.76,6.87l-.23,1.25c3.22,2.71,4,7.27,4.51,11.46q1.26,10.9,1.57,21.89a50.87,50.87,0,0,1-.15,6.76,1.8,1.8,0,0,1-.42,1.17,2,2,0,0,1-1.26.38l-8.87.5-3.81.5c-4.52,2.54-10.21,3.15-13.82,6.87-2.7,2.78-3.69,6.78-4.17,10.63a56.25,56.25,0,0,0,0,13.6l1,4.76a141.57,141.57,0,0,0,11,29,50.1,50.1,0,0,0,7.72,11.74,22.09,22.09,0,0,0,12,6.95,2.09,2.09,0,0,1,1.44.63,2,2,0,0,1,.23,1.15q0,8-.08,16a10,10,0,0,0-5.71-2.31l-5.16,18.61-.53.42c-5.37-1.84-8.64-7.17-11.2-12.23s-5.17-10.56-10.09-13.39a44.24,44.24,0,0,0,.88,10.14c-3.1-5.09-6.51-10.46-11.94-12.91l-6.21,2a28.41,28.41,0,0,0,1.76,14.76c1.27,3.13,3.1,6.05,3.88,9.33s.21,7.21-2.52,9.2c-3.15,2.3-7.5,1.07-11.34.41a27,27,0,0,0-16.21,1.91ZM782.8,1843c-3.57-1.72-5.18-6.08-8.59-8.09-1.47-.86-3.17-1.22-4.69-2s-2.92-2.16-2.9-3.86c-3-.53-4.51,3.62-7.3,4.75-3,1.21-6.79-1.23-9.36.67a6.55,6.55,0,0,0-2,3.46q-1.53,4.81-2.77,9.71l.73,3.52c3.59,1.09,7.44.64,11.16.22a163.84,163.84,0,0,1,24.24-1.28A21.07,21.07,0,0,1,782.8,1843Zm16.85-301.79a8.06,8.06,0,0,1-9.76,2.41c2.94,0,5.27-2.82,5.73-5.72s-.5-5.82-1.61-8.53c-1.48-3.6-3.4-7.26-6.71-9.29a14.68,14.68,0,0,1-10.6,4.41,1.64,1.64,0,0,0-2,1.34,25,25,0,0,1-9.08,11l-.32,1.23a19.64,19.64,0,0,1,14.28,11.61c.18.45.41,1,.88,1.1a1.5,1.5,0,0,0,.83-.1,7.92,7.92,0,0,0,3.4-2.3c.53-.62,1.14-1.41,1.95-1.3a2.17,2.17,0,0,1,1.07.6,32.67,32.67,0,0,0,11.74,6.19Q799.55,1547.47,799.65,1541.16Zm7.69-32.05c-6-6.71-6.55-16.59-6.24-25.59a23.57,23.57,0,0,1-13.5-17.2c-.15,2.54-2.69,4.4-5.22,4.69s-5-.61-7.41-1.49a19.1,19.1,0,0,1-5.15,8.81l-1.87.72c2.16,2,3.07,5,4.91,7.28s4.24,3.62,6.58,5.16a62.53,62.53,0,0,1,19.39,20.44c.41.7.95,1.5,1.76,1.53a2.4,2.4,0,0,0,1.41-.59Zm7.1-27.27-2.15,2.18a1.93,1.93,0,0,0-.74,1.72c-.15,4.06-.28,8.19.72,12.13a21.81,21.81,0,0,0,8.38,12.23l.52-1.82A40.68,40.68,0,0,0,814.44,1481.84Zm97.73,481.06a8.35,8.35,0,0,1,4.32,1.26c.68.52,1.24,1.28,2.07,1.51,1.09.31,2.17-.39,3.14-1a18.48,18.48,0,0,1,12.59-2.32l1.06-1.61a146.45,146.45,0,0,0-10-30.32,7.4,7.4,0,0,0-2.76-3.66c-1.78-1-4-.37-6-.86-3-.73-4.75-3.75-5.65-6.66s-1.27-6.06-2.91-8.63c-2-3.13-5.5-4.87-8.55-7-2.05-1.43-4-3.11-6.34-4-2.79-1-5.88-.83-8.85-.61a1.11,1.11,0,0,0-.78.27,1,1,0,0,0-.19.5c-1.07,6.07,3,12.14,2.06,18.23-.36,2.37-1.46,4.58-1.93,6.93a27,27,0,0,0-.31,5.47q.14,10.32.26,20.65c.06,5-.06,10.42-3.37,14.11C890,1960.84,901.35,1961.83,912.17,1962.9ZM960,2032.53l-.11-2.71q-.37-8.53-.73-17.08c-.17-3.91-.47-8.16-3.08-11.08-1.67-1.87-4.1-3-5.7-4.89s-2.16-4.44-2.7-6.86l-2-2.65q-2,1.68-4,3.38a9.76,9.76,0,0,1-2.56-1.7c-1,4.11-2,8.31-4.22,11.87-1.51,2.37-3.54,4.41-4.7,7a32.89,32.89,0,0,0-1.59,5.46,39.77,39.77,0,0,1-17.92,24l.32.06a35.63,35.63,0,0,1,19.4,2,9,9,0,0,0-4,.24,3,3,0,0,0-2.11,3.08c.22,1.36,1.64,2.21,3,2.45a4.13,4.13,0,0,0,3.44-.71,2.31,2.31,0,0,0,.33-3.23,8.83,8.83,0,0,1,9.25,1.84,1.64,1.64,0,0,0,.92.58,1.54,1.54,0,0,0,1-.41A98.82,98.82,0,0,1,960,2032.53Zm-198.86-684.8h0l.07-.14Zm407.21,1001.56c4-4.09,8.11-8.21,12.88-11.43s10.32-5.5,16.07-5.49l3.11-2.62a1.51,1.51,0,0,1,1.59-1l-2.49-3.44-4.12-11.4-2.37-3.33c-1.25,3.92-3.58,7.39-5.87,10.8Zm14,217.77c-5.64-1.07-10.48-4.77-16.06-6.14l-3.89,2.18a189.39,189.39,0,0,1-47.89,50.4l-7.41,5.14,3.81,8.24a472.71,472.71,0,0,1-30.84,94.63c-5.62,12.57-11.95,26.21-8.59,39.56.87,3.45,2.38,6.77,2.68,10.32.43,5.12-1.69,10.07-3.49,14.88-2.24,6-4.07,12.26-4,18.66s2.13,13,6.76,17.42c7,6.66,18,7,27.23,4.1s17.32-8.37,26.12-12.28c3.89-1.73,8.12-3.31,10.68-6.7,2-2.63,2.67-6,3.06-9.26,1-8.21.42-16.53,1.14-24.77.65-7.51,2.37-14.88,4.08-22.22,5.17-22.19,10.34-44.4,17.06-66.17,3.92-12.69,8.41-25.61,7.72-38.87l1-12.49-2.4-5a20,20,0,0,0,3-11.16,6,6,0,0,1,.22-2.5c.47-1.1,1.61-1.72,2.54-2.47,4-3.2,4.47-9,4.88-14.12s1.66-11,6.27-13.28l4.34-1.08-2-15.64C1186.49,2567.49,1184.39,2567.43,1182.39,2567.06Zm26.25-217.93-1.94-5.13c-4.89-1-10-.16-14.86.85-3.23.67-6.57,1.47-9.16,3.52a6.18,6.18,0,0,0-2.38,3.46,3.34,3.34,0,0,0,1.59,3.65c-3-.43-5.6,1.91-7.61,4.16a92.75,92.75,0,0,0-10,13.45l.43,13c-.27,2.28-2,4.09-2.94,6.17a20.89,20.89,0,0,0-1.49,7.19q-.69,8.22-1.39,16.44a76.88,76.88,0,0,1,24.81-11.86c-6.12,3.71-10.08,10-13.69,16.22-3.13,5.35-6.29,10.92-11.22,14.69l-.67,2.56q.42,2.94.82,5.87c.72,5.22,1.4,10.73-.68,15.57l-1.93,2c0,1.35-1.71,1.86-2.9,2.49-3.35,1.76-3.91,6.6-2.26,10s4.86,5.74,7.83,8.08,6,5.05,7,8.7a37,37,0,0,0-16.87,4.1l-2.24,8.39q-1.28,15.75-1.45,31.57l.56,5,3.12,3a61.65,61.65,0,0,1,15.33,1.74l.73-1.74a159.4,159.4,0,0,1,9.58-14.64,52.24,52.24,0,0,0,4.91-6.95c2.73-5.12,3-11.28,1.79-17s-4-10.9-7-15.82c-4-6.33-8.69-12.62-9.45-20a3.14,3.14,0,0,1,.24-1.92,2.83,2.83,0,0,1,1.38-1c3-1.27,6.62-.4,9.29,1.51a22.3,22.3,0,0,1,6.13,7.57,63.45,63.45,0,0,1,5.15,12,19.71,19.71,0,0,1,9.4-18.65,7.32,7.32,0,0,0,2.51-1.91,6.17,6.17,0,0,0,.69-3.78q-.32-9.45-.62-18.9l-1.31-.12a49.55,49.55,0,0,0-13.1-.39,13,13,0,0,1-5,0c-1.62-.47-3.11-1.91-3-3.59s1.9-3,3.5-3.8a97.72,97.72,0,0,1,22.13-8.34,3.78,3.78,0,0,0,2.08-1,3.67,3.67,0,0,0,.64-2.17c.91-13.45-1.73-27.4,2.57-40.18l1-7.2q.49-4.44,1-8.86C1210.39,2361,1211,2354.7,1208.64,2349.13Zm-10.75,175a7.82,7.82,0,0,0-2.2.69l-9.32,4a34.79,34.79,0,0,1-10.3,16.27l-3.61,1.54,14.7,5.39a17.89,17.89,0,0,0,6.2,1.46,21.67,21.67,0,0,0,4.29-.69l3.56-5.19a37.86,37.86,0,0,0,3.22-14.59l-3.4-8.36A8.11,8.11,0,0,0,1197.89,2524.09Z"></path>
    <path data-name="5a" data-official="" data-plain="Stamen" data-loc="" d="M172.21,2758.08c17-28.93,21.93-63.42,21.9-96.95s-4.71-66.9-5.57-100.42c-.26-10-.06-20.54,4.66-29.4s15.37-15.36,24.88-12.13c10.86,3.7,14.58,17.1,15.25,28.55.57,9.65.12,19.44-2.42,28.77-2.9,10.63-8.46,20.48-10.51,31.3-1.79,9.43-.83,19.14.13,28.68,1.11,10.92,2.22,21.9,5.05,32.51,3.06,11.5,8.08,22.4,11.33,33.85s4.63,24,.37,35.09c-1.83,4.77-4.71,9.47-4.23,14.55.63,6.71,6.7,11.33,10.84,16.64,3,3.83,5.14,8.56,4.84,13.4-.39,6.32-4.92,11.81-10.41,14.95s-11.86,4.34-18.12,5.3a147,147,0,0,1-24.76,2.05c-7-.12-14.48-1.23-19.7-5.91-7.46-6.67-7.83-18.17-6.26-28.06Z"></path>
    <path data-name="5b" data-official="" data-plain="Pistil" data-loc="" d="M87.76,2673.2a57.34,57.34,0,0,1,6.65-40c2-3.45,4.44-6.75,5.61-10.59,2-6.37.19-13.21-1.38-19.69a330.47,330.47,0,0,1-7.7-109.19,39.9,39.9,0,0,1,2.35-11.49,21,21,0,0,1,36.58-4c6.45,9.15,4.62,21.83.26,32.15s-10.94,19.77-13.64,30.64c-3.17,12.79-.65,26.27,2.58,39.05a361.15,361.15,0,0,0,15.54,47.36c4.93,12.09,10.53,24,13.63,36.68s3.54,26.48-1.75,38.41c-2.81,6.34-7.1,11.9-10.4,18-9,16.6-10.15,36.25-16.71,53.93-2.1,5.67-4.92,11.35-9.72,15-3.59,2.78-8,4.22-12.43,5.37a124.23,124.23,0,0,1-34.34,4,20,20,0,0,1-7.17-1.12c-6-2.45-8.61-9.61-9.15-16.09A47.81,47.81,0,0,1,65.47,2740c8.93-6.59,20.7-10.55,25.75-20.43,6-11.62-.24-25.51-6.37-37Z"></path>
    <path data-name="6" data-official="Rhododendron arboreum" data-plain="Tree Rhododendron" data-loc="Himalayas" d="M761.29,1347.59l-.07.14h0ZM988.07,2632.74l-4.5-5.83c-5.39-8.6-17.31-10.78-23.77-18.61-1.35-1.64-2.61-3.63-4.66-4.19a8.25,8.25,0,0,0-2.67-.14c-8.86.5-17.81,1-26.34,3.47-19.27,5.53-34.35,20.2-48.51,34.4l.38,7.5c.91,21.25-9.71,41.61-9.65,62.88,0,3.74.42,7.65,2.46,10.78s6.15,5.18,9.63,3.81c2.91-1.15,4.85-4.37,7.95-4.81,3.85-.55,6.65,3.34,9.42,6.07a21.93,21.93,0,0,0,20.57,5.25,25.53,25.53,0,0,0,16.33-14c2.71-5.83,3.41-12.64,7.3-17.75,4.87-6.39,13.4-8.49,20.18-12.8,7.7-4.91,13.14-12.8,16.61-21.25s5.13-17.52,6.65-26.53Zm-66.71-162.29a497,497,0,0,0-22.08,116.2l4.59,5.6c8.28-4,16.92-7.54,26-8.54,5.51-.61,11.1-.26,16.6-.92s11.16-2.47,14.89-6.58a58.22,58.22,0,0,0,4.46-6.38,33.24,33.24,0,0,1,8.26-8.3c2.64-1.84,5.54-3.3,8-5.4a39.37,39.37,0,0,0,6.84-8.59l6.66-10.19,2.76-5.92a60.63,60.63,0,0,0,2.07-13.58v-10.17l-2.6-5.7c-1.5-2.87-.57-6.4-1.28-9.55a17.57,17.57,0,0,0-2.36-5.11,148,148,0,0,0-19.4-25.25,155.6,155.6,0,0,1-49.67-3.1Zm9.12-62.69a86.16,86.16,0,0,0-5.27,18.77l-4.65,6.24,8.88,6.5a66.51,66.51,0,0,0,18.63,2.14c-1.66-2-4.25-2.86-6.23-4.5-2.88-2.37-4.29-6.7-2.64-10,2.13-4.33,7.76-5.28,12.57-5.69l-7.66-15.58c-1.51-3.08-3.52-6.54-6.91-7a3,3,0,0,0-2.56.66Zm15.46-71.37c1.87,9.77,6.39,18.8,10.85,27.69L975.32,2401c3,5.95,6,11.9,9.22,17.72a233,233,0,0,0,22.35,33.09l6.32-.46,2.63-5.47c5.08-11.31,10.27-23.15,9.7-35.54l2-14.57.24-16.77a139,139,0,0,1,2.61-60.86c1-3.85,2.22-7.66,3.1-11.54,1.39-6.18,2-12.52,3.15-18.74a96.12,96.12,0,0,1,10.08-28l2-6.76a16.29,16.29,0,0,0,2.37-10.78,41.67,41.67,0,0,0-23.9,19.93c-12-7.35-24.68-15.47-30.33-28.36-3.65-8.34-3.88-17.76-3.43-26.85a44.45,44.45,0,0,1,1.93-12.38c4.33-12.47,17.45-19.34,29.71-24.2l-.26-.5c-7.27,1-15.35-.76-20.13-6.33s-4.74-15.27,1.23-19.54c-.63,5.92,4.4,11.34,10.14,12.93s11.9.16,17.48-1.93q1.14,6.09,2.3,12.17l35.64-2.35,1-3.09c-.51-3.85-3.67-6.71-6.4-9.48-8.92-9.05-15-20.49-23-30.32a4.41,4.41,0,0,0-1.47-1.32,4.66,4.66,0,0,0-2.23-.21,67.31,67.31,0,0,1-20.39-1.89c-3.72-.93-7.6-2.19-11.32-1.23-2.84.73-5.21,2.68-8,3.7l-9.35,9.27c-8.38,34.81-16.44,69.7-24.49,104.58l-5.63,24.37c-3.1,13.45-6.21,26.9-9.18,40.38-1.61,7.27-3.19,14.62-3.11,22.06ZM613.23,875.31c11.4.94,21.7,8,33.13,8.48,4.76.22,9.5-.71,14.17-1.64l15.34-3,1,.86c1,9.57-7,18.47-5.68,28,.46,3.23,2,6.21,2.59,9.4,1.71,8.72-3.3,17.79-1.28,26.45,1.83,7.84,9,13.42,11.68,21,1.92,5.39,1.42,11.29.9,17l1.79.2,13.59,10.73c4.21,3.32,8.54,6.71,13.65,8.34,6.07,1.93,12.74,1.21,18.8,3.18,5.87,1.91,11.16,6.33,17.34,6.06l1.27,1.54a25.5,25.5,0,0,1,0,14.33l.85.09c3.53-1.67,7.83-.8,11.19,1.2s6,5,8.63,7.86c5.23,5.65,10.8,11,16.36,16.31,3.23,3.08,7.12,6.41,11.55,5.82l.44,1.51-4,10.72c-1.92,5.11-3.87,10.27-6.83,14.86a39.08,39.08,0,0,1-32.88,17.51l1.67.36a31.6,31.6,0,0,1,5.46,4.82l20.65,21.32.65,1.49c-1.39,6.78-1.43,13.77-2.67,20.58s-3.93,13.74-9.38,18a9.51,9.51,0,0,1-3.58,1.89,13,13,0,0,1-3.52.15c-5.44-.28-11.47-.82-15.2-4.79A73.31,73.31,0,0,1,749,1195l.6.39,7.4-7.72a35.62,35.62,0,0,1,5.21-4.77c4.13-2.87,9.3-3.87,14.32-4.06,3.35-.12,6.88.14,9.7,2s4.61,5.6,3.21,8.64l1.22.13c12.68,5.61,21.45,17.29,29.64,28.48,3.71,5.07,7.62,11,6.28,17.14-.63,2.87-2.35,5.36-4.05,7.75q-11.32,15.91-23.56,31.15c-2.56,3.18-5.56,6.58-9.61,7.08l-.63.59c-1.4,4.6-6.11,7.62-10.88,8.24s-9.57-.77-14-2.6A71,71,0,0,1,745.08,1276l-2.93,3.49.8.47,2.29,2.63c1.88-.53,3.86.56,5.2,2,2.9,3.1,3.73,7.57,4,11.81a61.86,61.86,0,0,1-3.68,25.18c-.39,1-1.43,2.3-2.34,1.66l-.63,1c-.84,11.68-9.71,21.28-12.42,32.68-.72,3.06-1.12,6.48-3.4,8.65a8.79,8.79,0,0,0-1.22,1.22c-.34.49-.5,1.08-.85,1.57-.89,1.27-2.68,1.44-4.23,1.45a80.56,80.56,0,0,1-12.22-.88l-1.76,1.82a11.13,11.13,0,0,0,2.9,2,7.93,7.93,0,0,0,2.79.3l7.07-.08a5,5,0,0,1,4.59,1.77c2.82,2.69,5.85,5.92,5.58,9.8l.17-.18c.41-1.94.86-4,2.2-5.45s3.72-2.29,4.73-4.15.4-4.42,1.57-6.25c1.38-2.15,4.58-2.32,6.32-4.21,1.5-1.64,1.56-4.2,2.94-6s3.7-2.32,5.13-3.94a10.43,10.43,0,0,0,1.44-2.37q1-2.16,2.11-4.32c1.2,0,2,1.29,2.35,2.44s.74,2.52,1.84,3c1.52.74,3.36-.88,3.36-2.57,1.91,1.95,3.88,4,4.72,6.59.42,1.31.53,2.69.88,4,.4,1.52,1.09,3,1.55,4.46a23.78,23.78,0,0,1,.85,7.13c-.06,16.14-7.2,31.39-15.39,45.29l.83.27a77,77,0,0,1,15.13,6,5.66,5.66,0,0,1,2,1.53c1.21,1.71.25,4.08.57,6.15a1.49,1.49,0,0,0,.37.86,1.75,1.75,0,0,0,.87.34l4.24.8.15-.45c.46-5.27-2.27-10.21-4-15.21-3.37-9.69-3.08-20.23-2.73-30.49a40,40,0,0,1,.92-8.61c1.32-5.19,4.62-9.6,7.84-13.87,1.55-2,3.39-4.26,5.94-4.53a1.49,1.49,0,0,1,1.27.32,1.73,1.73,0,0,1,.37.93c.23,1.25.47,2.5.7,3.75a16.25,16.25,0,0,0,3.28-6.48,10.29,10.29,0,0,1,5.4,5,30.49,30.49,0,0,1,2.47,7.06,35.76,35.76,0,0,0,2.76-9.83c.22-2.78-.15-5.82,1.43-8.12,1.8-2.63,5.38-3.21,8.56-3.31s6.64,0,9.16-2l1.94-1c2.57.16,5.24.32,7.66-.56,1.51-.55,2.87-1.49,4.42-1.9,4-1,7.91,1.54,11.21,4,2.41,1.79,5,3.91,5.35,6.89,1.53-.93,3.39.43,4.61,1.73a84.9,84.9,0,0,1,7.37,9l.57-.31,7-8.81c1.71-2.16,3.56-4.42,6.15-5.36a22.65,22.65,0,0,1,4.86-.81,22.91,22.91,0,0,0,9.83-3.7,25.34,25.34,0,0,1,4.41-2.75c4.35-1.71,9.29.64,13.91-.11,1.83-.3,3.63-1.09,5.47-.85,2.22.3,4,2,6.1,2.76,3,1,6.92.18,9,2.58s1,5.91,2.4,8.55,4.74,3.62,6,6.24,0,5.94.93,8.72c.69,2,2.46,3.45,3.54,5.28a11.52,11.52,0,0,1,1.37,4,18.09,18.09,0,0,1-.54,8.17c-.75,2.48-2.51,5.11-5.11,5.19l.8.31a12.9,12.9,0,0,1,11.29,1.64,19.2,19.2,0,0,0,2.84,1.93,3.28,3.28,0,0,0,3.27-.09c.55-.4.89-1,1.44-1.41,1-.71,2.39-.39,3.62-.29s2.79-.31,3-1.52a13.58,13.58,0,0,1,0-1.57,2.13,2.13,0,0,1,1.56-1.16,10,10,0,0,1,9.73,2.61c.93,1,1.73,2.15,3,2.59,1.55.54,3.22-.28,4.87-.41a7.86,7.86,0,0,1,5.83,2.33,23.31,23.31,0,0,1,3.84,5.17l3.16,2.87,5.18-3.34c21.24-4.63,39.79-17.11,57.75-29.35a219.55,219.55,0,0,0,4.48,48l2,14.64c2.93,3.84,4.67,8.45,6.13,13a131.16,131.16,0,0,1,6,34.48l4.9,4.72c5,1.72,7.63,7.07,9.74,11.92,3.71,8.51,7.47,17.24,8.1,26.5l-3.72,18.54c1,10.88,7.06,20.56,10.53,30.91A90.18,90.18,0,0,1,1121,1604l7,9.5a186.26,186.26,0,0,0,26.33,63.33c2.45,3.75,5.08,7.49,6.28,11.79,1,3.69,1,7.58.82,11.41a273.91,273.91,0,0,1-23.65,100.73l-3.2,10.78,3.22,6.08c1.9,6.17,3.93,12.57,8.34,17.27a4.27,4.27,0,0,1,1.47,2.41,3.94,3.94,0,0,1-.3,1.47l-6.78,19.62a30.72,30.72,0,0,1-3.25,7.28,15.71,15.71,0,0,1-16.69,6.21l-6.37,11a43.09,43.09,0,0,0-13.44,30.74l-.13,6c3.21,2.51,4.66,6.61,5.81,10.52,3.22,10.9,5.32,22.29,4.35,33.61s-5.21,22.62-13.27,30.63c-1.66,1.65-3.61,3.44-3.62,5.79a8,8,0,0,0,1.12,3.51q7.88,15.69,17.26,30.56a15.08,15.08,0,0,0,4,4.73c2.5,1.68,5.82,1.81,8.26,3.57l7.71-3.15-7.72-16c2.7-7.56,6.53-14.66,10.4-21.7q12.33-22.42,25.45-44.41c2.3-3.86,5.14-8.08,9.56-8.88l-.48-7.15c-5.66-4.21-6.77-12.13-7.15-19.17s-.38-14.57,3.23-20.65a19.48,19.48,0,0,1,12.25-9c6.08-1.4,13.2,0,18-4s4.83-11.43,6.19-17.67a32.53,32.53,0,0,1,16.78-21.69l12.38-.21c7.67-2.32,15.85,1.94,21.67,7.44s10.36,12.36,16.78,17.15c7.13,5.32,16.06,7.7,23.41,12.7l20.82,13.44,23.09,16.11c5.43,3.79,10.87,7.59,16.11,11.66a195,195,0,0,1,66.79,97.79l2.89,7.79c5.69-.87,11.45,1.68,15.89,5.35s7.86,8.39,11.54,12.82,7.82,8.72,13.1,11c3.34,1.46,7,2.06,10.51,2.93,4,1,7.92,2.34,11.82,3.69a63.88,63.88,0,0,1,1.57-9.91,2.49,2.49,0,0,1,.82-1.56c1.28-.88,2.67,1,3.15,2.44l2.57,8a8,8,0,0,1,5.24,0,16.08,16.08,0,0,1-3.09,12.76c4.25,1.25,4.2,8.39,8.41,9.77a5.87,5.87,0,0,1-5.7,1.91,16.23,16.23,0,0,1-5.74-2.58,8.72,8.72,0,0,1-7.21,8.73l0,1.32c2.1,3.62.13,8.4,1.61,12.32,1.73,4.57,7.21,6.17,11.79,7.88,2.11.78,4.49,2.15,4.62,4.4a31.88,31.88,0,0,1-6.28,1.7,14.09,14.09,0,0,1-6.37,13.87l2,5.74a66.15,66.15,0,0,1,16.35,20.15,33.83,33.83,0,0,1,3.82,10.8c1.3,9.1-3,18-7.57,26l5,4.35c1.87,6.78,4.62,14.53,11.28,16.76a18.44,18.44,0,0,0,7.18.56c23-1.74,42.71-16.62,59.68-32.22,13.61-12.51,26.55-26,36-41.9,10.12-16.94,16-36,21.81-54.87,2.12-6.89,4.24-13.81,5.18-20.95,1.53-11.71-.18-23.67,1.56-35.35,1.6-10.72,6-20.79,10.69-30.58l4.58-11.78c9.66-21.82,12.34-46,14.78-69.73,4-38.49,7.56-77.21,5.11-115.83s-11.24-77.4-30.61-110.89l26.67,10.33c7.83,3,15.73,6.11,22.7,10.79,7.49,5,13.65,11.75,20.21,18a185.82,185.82,0,0,0,61.84,38.71l35.44-.9,10.69-1c4.59,1.17,9.41,0,14.08-.82s9.76-1.29,13.89,1c1.36.78,2.55,1.83,3.92,2.59a10.8,10.8,0,0,0,4.29,1.29l.74.28a46.1,46.1,0,0,0,.22-8.39,11.36,11.36,0,0,0-.8-4,13.17,13.17,0,0,0-3.46-4.13l-.64-.7-7.26-1.2a7.65,7.65,0,0,1-3.29-1.06,2.68,2.68,0,0,1-1.15-3c-2.11,0-4-1.26-5.57-2.66a18.58,18.58,0,0,1-4.85-6.54,11.59,11.59,0,0,1-.47-8,4.17,4.17,0,0,1,2.52-2.86c3.66-1.7,8.15-.87,11.47,1.41a20.94,20.94,0,0,1,7.12,9.56,2.43,2.43,0,0,1,2.68,1.38,7.21,7.21,0,0,1,.54,3.2l.24.26a5.46,5.46,0,0,1,3.86,4.54,10.06,10.06,0,0,1-1.26,6.09,7.06,7.06,0,0,1,3.14,7.39l.11.3c0,.37.6.27.9.06a19.72,19.72,0,0,0,7.81-19c-.12-.69-.37-1.49-1-1.73a2,2,0,0,0-1,0,23.69,23.69,0,0,1-4.46.78,3.7,3.7,0,0,1-3.59-2.25,2.34,2.34,0,0,0-.38-1,1.64,1.64,0,0,0-.68-.38,21.15,21.15,0,0,1-7.81-5.75c-2.11-2.28-4.09-5.22-3.47-8.26a6.65,6.65,0,0,1,3.64-4.46,10.89,10.89,0,0,1,5.81-.94,16.3,16.3,0,0,1,13.38,9.86,27.65,27.65,0,0,1,3.77-9.92c1.21,3.66,1,7.61.79,11.46l-.5,8.82.3.65a2.07,2.07,0,0,1,2,1.34,6.09,6.09,0,0,1,.31,2.59l-.63.38a44.52,44.52,0,0,1,10.53-4.41c3.73-.84,7.84-.64,11.08,1.38a18.19,18.19,0,0,1,3.68,3.22,12.08,12.08,0,0,1,3.13,4.9l.39.63c3.53.13,6.49,3.26,7.08,6.74a12.2,12.2,0,0,1-3.14,9.75,26.9,26.9,0,0,1-8.54,6.12,31.45,31.45,0,0,1-11.61,3.66c-4.08.3-8.39-.73-11.4-3.49a46.09,46.09,0,0,0-3.61-3.52,1.15,1.15,0,0,0-.58-.27,1.3,1.3,0,0,0-.83.3l-4.1,2.62a5.2,5.2,0,0,0-1.85,1.66,1.77,1.77,0,0,0,.29,2.27l6-.16a31.43,31.43,0,0,1,8.56.56,10.57,10.57,0,0,1,6.83,4.83,4.38,4.38,0,0,0,1,1.47,3.79,3.79,0,0,0,2,.56,28,28,0,0,1,14,5.31l14.4,7.32,13.68-1.86c20.19,1.35,36.8,16.15,49.88,31.59,4.38,5.18,10.57,11.12,16.9,8.68,3-1.15,4.94-3.9,6.67-6.56,29.47-45.55,31.76-103,31.81-157.24.06-48.82-2.06-101.14-30.93-140.5-12-16.33-27.84-29.3-42.25-43.53-4.73-4.68-9.41-9.64-12-15.74-3.29-7.59-3.12-16.17-3-24.44a752.54,752.54,0,0,0-3.46-80.7c-1.39-14.39-3.57-29.64-12.9-40.68-5.13-6.06-12.11-10.43-16.79-16.84-6.76-9.27-7.8-21.35-9.45-32.7-9.12-62.65-45.14-120.92-97.11-157.09l-13.43-15.41a349.42,349.42,0,0,0-75.58-70.28,472.72,472.72,0,0,1,56.79-6.23c10.34-.5,21-.63,30.74,2.71,9.23,3.15,17.15,9.18,25.71,13.84,19.12,10.4,41.45,14,60.26,24.9,24.33,14.15,42,40.12,69.17,47.38,4.32,1.16,9.27,1.69,13-.82,2.57-1.74,4.06-4.65,5.35-7.47,15.6-34.1,17-73.39,10.12-110.25s-21.54-71.77-37.15-105.85c-7.57-16.54-16-33.69-30.79-44.24-9.83-7-21.69-10.48-33.45-13.18-13.74-3.16-28-5.41-41.92-3.07-23.11,3.89-43,20.05-66.27,22.68-10.4,1.18-20.88-.43-31.22-2l-91.89-14.26-4.42-16c15.71-32.14,1.67-75.54-29.9-92.38a77.46,77.46,0,0,0-24.13-69.49A125.07,125.07,0,0,0,1660.53,576c.28-14.28-1.91-28.48-4.1-42.59q-2.37-15.24-4.73-30.46c-1.93-12.5-3.87-25-6-37.46-6-34.44-18.45-74.07-51.54-85.36-6.51-2.22-13.72-3.27-18.95-7.73-6.22-5.31-8-14-10.74-21.68A76.59,76.59,0,0,0,1538,315c-4.62-3.43-9.92-6.68-12-12-1.71-4.39-.9-9.29-.33-14,4-32.18-5.43-66.16-26.84-90.49-27.58-31.35-70.61-43.72-111.71-51.05-4.55-.8-9.22-1.62-13.16-4-5.26-3.18-8.56-8.74-13.06-12.91a31.16,31.16,0,0,0-22.62-8.14c-4.66.26-9.55,1.55-13.86-.25-4-1.67-6.54-5.64-9.07-9.21-21.27-30-62.7-44.1-97.86-33.2l-10.79-14.32A129.34,129.34,0,0,0,1021.57,45.5a162.41,162.41,0,0,0-119.41-5.4c-9.82,3.43-19.37,7.84-29.56,9.92C860,52.58,847,51.51,834.31,53.29c-22,3.11-41.88,14.58-61.08,25.83L746.68,94.66c-27.18,15.92-55.71,33.2-70.44,61.05-3.08,5.8-5.54,12.06-9.88,17-5.78,6.55-14.17,10-21.91,14C591.32,214.43,562,281.2,577.64,339.05c2,7.5,4.74,15.06,4.16,22.81-.88,11.92-9.23,21.75-16.81,31-50.56,61.56-84.55,140-79.1,219.49l1.08,17c-12.78,25.1-18.83,54.5-11.91,81.8s28.36,51.63,55.92,57.43c9.83,2.07,20.09,1.82,29.75,4.57a3.58,3.58,0,0,1,2,1.1,3.79,3.79,0,0,1,.46,2.27,130.55,130.55,0,0,0,22.39,74.2Z"></path>
    <path data-name="7" data-official="Kalmia latifolia" data-plain="Broad-leaved Kalmia" data-loc="North America" d="M676.09,2549.41l3.81-9,9.09-10.61a1.7,1.7,0,0,1,1-.7,2.48,2.48,0,0,1,1.24.35c1.67.65,3.47-.44,4.91-1.51a110.19,110.19,0,0,0,15.23-13.81c1.09-1.19,2.25-2.47,3.82-2.88a8.12,8.12,0,0,1,3.07,0l10,1.17.62,6.66a311.18,311.18,0,0,1,21.37,112.75c0,6.56-.19,13.2,1.29,19.59,1.68,7.31,5.48,14,7.4,21.22a43.49,43.49,0,0,1-4,31.92c-2.66,4.78-6.19,9-9.63,13.27-5.24,6.48-10.3,13.1-15.36,19.72-3.81,5-7.66,10-10.33,15.72-2.28,4.86-3.67,10.13-6.33,14.79-3.75,6.57-10.3,11.79-17.81,12.73s-15.71-3-18.58-10c-2.11-5.15-1.49-11.6-5.34-15.62-3.21-3.33-8.4-3.75-12.25-6.31-5.13-3.41-7.06-10-7.61-16.16-1.13-12.61,3.12-26.95,14.36-32.79,4.61-2.4,10.18-3.28,13.83-7a18.67,18.67,0,0,0,4.3-8.44c1.83-6.73,2-13.79,2.13-20.78a560.79,560.79,0,0,0-9.14-107.27Zm-50.3-699.94,3.52-1.18c2.55-.59,5.07.9,7.22,2.4a134.68,134.68,0,0,1,27.05,25c2.25,2.73,4.48,5.76,4.8,9.29l.61,6.57a15.54,15.54,0,0,1-2.74,11.5l-3.89.5a33.08,33.08,0,0,0-6.56-4.29c-1.86-1-3.78-1.78-5.66-2.68-10.39-5-19.65-12-28.82-18.91Zm-311.07-89.41a4.71,4.71,0,0,1-2.89,3.44,13.93,13.93,0,0,1-4.58.91,23,23,0,0,1,6,4.1c-4.08,1.13-8.38,1.06-12.61,1l-17.89-.35-.19-.74a5.55,5.55,0,0,1,6.27-3.79,3.3,3.3,0,0,1,.05-3.66,9.29,9.29,0,0,1,2.86-2.61c1.87-1.27,3.76-2.51,5.66-3.75,4.64-3,9.94-6.21,15.37-5.1a1.5,1.5,0,0,1,.69.27,1.45,1.45,0,0,1,.46.89,5.94,5.94,0,0,1-2,5.26,17.57,17.57,0,0,1-5.07,2.94l6.95.2a1.11,1.11,0,0,1,.82.25A.94.94,0,0,1,314.72,1760.06Zm17.48-40.45c3-6,5.73-12.18,8.14-18.46l.07-.16c5.64,6.81,14.45,10.1,23,12.16s17.54,3.2,25.55,6.95l.15.79a49.07,49.07,0,0,0,.56,6.41,13.94,13.94,0,0,0,2,6,13.64,13.64,0,0,0,5.44,4.11,42.76,42.76,0,0,0,8.85,3.14,7.48,7.48,0,0,1,2.32.78,2.36,2.36,0,0,1,1.2,2l-1,.65A84.49,84.49,0,0,0,397,1761.46a3.79,3.79,0,0,1-.82,1.23,3.84,3.84,0,0,1-1.93.71,106.71,106.71,0,0,0-20.16,5.6l-.49-.15a22.15,22.15,0,0,1,10.73-14.2c.76-.42,1.67-1.08,1.44-1.9a1.81,1.81,0,0,0-.75-.87,16.46,16.46,0,0,0-5.45-2.54l4.2-.66c2.25-.35,4.82-.92,5.87-2.94,1.19-2.29-.45-5.23-2.76-6.37s-5-1-7.61-.79c1.73-2.25,3.42-4.52,5.07-6.83a17.53,17.53,0,0,0-6.64,3.88,6.66,6.66,0,0,1-1.81,1.37,5.26,5.26,0,0,1-2.2.23l-13.75-.45-.86-.32,4.86-4.35a9.12,9.12,0,0,0-6.29,1.75,8.29,8.29,0,0,1-2.92,1.84,5.18,5.18,0,0,1-2.63-.31,26.77,26.77,0,0,1-6.74-3.27c4.67-2.66,5.43-9,5.14-14.37-.11-2.07-.7-4.64-2.72-5.09-2.26-.51-3.89,2.06-4.76,4.2l-5.34,13.06a32.89,32.89,0,0,0-11.52-3.23C329.09,1725.45,330.78,1722.45,332.2,1719.61Zm16.91,29.73a3.9,3.9,0,0,1,1.1-.79,3.36,3.36,0,0,1,1.38-.13l5.1.22c-.8,2.27-3.76,3-5.1,5a11.33,11.33,0,0,0,5.86-2.27,6,6,0,0,1,1.87-1.18c1.45-.41,3.11.59,4.47-.07a71.87,71.87,0,0,1-17.69,9.29l-.81.15c-1.85-1.61-3.66-3.28-5.4-5a23.88,23.88,0,0,0,2.82-9.5l6.09,2.07-3.72,4.63A13,13,0,0,0,349.11,1749.34Zm15.59,6.4a2.4,2.4,0,0,1,1-.47c1.08-.12,2,1.31,3,1l-1.66-2a.86.86,0,0,1-.26-.54.84.84,0,0,1,.27-.47,8.44,8.44,0,0,1,7.72-2.37,9.69,9.69,0,0,1-3.3,3.79c-5.74,4.61-12,9.66-13.6,16.84l-.22.52q-4.17-4.23-8.71-8.08A68.64,68.64,0,0,0,364.7,1755.74Zm-24.9,27a12.85,12.85,0,0,1-4.19.56l-5.66.12-.79.11c1.46-3.46,4.74-5.76,7.85-7.86a1.29,1.29,0,0,1,.7-.28,1.23,1.23,0,0,1,.74.43l4.18,4A4.32,4.32,0,0,1,339.8,1782.69Zm15.85,25.46c-3.67,1.6-7.2,3.62-11.07,4.63L343,1814a18.6,18.6,0,0,0,2.1-6.49,19.16,19.16,0,0,0,6.64-1.45c1.38-.57,2.69-1.29,4.11-1.74a22.34,22.34,0,0,1,5.16-.77,5.26,5.26,0,0,1,1.94.11,5.45,5.45,0,0,1,.94.46l3.37,1.92C363.36,1805.35,359.32,1806.55,355.65,1808.15Zm13.81-17.86-.42,1.07a42.44,42.44,0,0,0-10.61-10.65,8.11,8.11,0,0,1,6.8,1.35l4.06,2.56a6.74,6.74,0,0,0-1.32-3.5,4.1,4.1,0,0,1,4.34.68c.51.45,1,1.09,1.69,1,.49-.92-.72-2.33.1-3a1.51,1.51,0,0,1,.81-.21l6.49-.36c-2.26,1.69-4.93,2.74-7.28,4.3S369.65,1787.48,369.46,1790.29Zm430-236.52a32.67,32.67,0,0,1-11.74-6.19,2.17,2.17,0,0,0-1.07-.6c-.81-.11-1.42.68-1.95,1.3a7.92,7.92,0,0,1-3.4,2.3,1.5,1.5,0,0,1-.83.1c-.47-.14-.7-.65-.88-1.1A19.64,19.64,0,0,0,765.31,1538l.32-1.23a25,25,0,0,0,9.08-11,1.64,1.64,0,0,1,2-1.34,14.68,14.68,0,0,0,10.6-4.41c3.31,2,5.23,5.69,6.71,9.29,1.11,2.71,2.08,5.64,1.61,8.53s-2.79,5.69-5.73,5.72a8.06,8.06,0,0,0,9.76-2.41Q799.56,1547.46,799.46,1553.77Zm2.54-40.9a2.4,2.4,0,0,1-1.41.59c-.81,0-1.35-.83-1.76-1.53a62.53,62.53,0,0,0-19.39-20.44c-2.34-1.54-4.83-3-6.58-5.16s-2.75-5.29-4.91-7.28l1.87-.72a19.1,19.1,0,0,0,5.15-8.81c2.39.88,4.88,1.77,7.41,1.49s5.07-2.15,5.22-4.69a23.57,23.57,0,0,0,13.5,17.2c-.31,9,.23,18.88,6.24,25.59Zm19.17-4.59-.52,1.82a21.81,21.81,0,0,1-8.38-12.23c-1-3.94-.87-8.07-.72-12.13a1.93,1.93,0,0,1,.74-1.72l2.15-2.18A40.68,40.68,0,0,1,821.17,1508.28ZM249.64,1847.69l2.79,4.12a29.28,29.28,0,0,0,3.77,3.7,9.18,9.18,0,0,0,3.43,2,12,12,0,0,0,3.06.23,44,44,0,0,1,6.28.47c2,.3,4.43,1,5.07,3l2.1.85,6.14-1.5,8.24-5c3.67-2.93,7.21-6,10.58-9.3l5.32-4.77c-1.49-.25-3.1-1.7-2.41-3a2.7,2.7,0,0,1,1-.94c1.44-1,3.06-1.69,4.43-2.76a5.63,5.63,0,0,0,2.43-4.4,15,15,0,0,0,9-6.26,29.6,29.6,0,0,0-8.29.63,5,5,0,0,1-2.52.14,6,6,0,0,1-1.85-1.25c-1.15-1-2.49-1.65-3.57-2.67a4.31,4.31,0,0,1-1.52-4q10.85,1.3,21.76,1.79a3.65,3.65,0,0,0,1.44-.13,3.59,3.59,0,0,0,1.52-1.4,106.49,106.49,0,0,0,7.09-11.18c-3.11-.42-5.82,1.9-8.53,3.5a20.58,20.58,0,0,1-18.32,1.15l-.1-.46c5-.59,9.54-3.23,14.19-5.22s10.08-3.3,14.69-1.23a38.74,38.74,0,0,0,1.13-4.64,1.33,1.33,0,0,0-.11-1.06,1.37,1.37,0,0,0-1-.38l-3.92-.32,4.13-1.68a5.29,5.29,0,0,0,2.15-1.32,1.82,1.82,0,0,0,.12-2.32c-2.44.89-5.16.75-7.61,1.62-2.26.81-4.15,2.43-6.34,3.42a12.53,12.53,0,0,1-10.95-.4,1.24,1.24,0,0,0-.82-.23c-.45.09-.63.62-.76,1.07-1.64,5.83-7.54,9.24-12.92,12a19.38,19.38,0,0,1,0-8.77l-.74.1a60.1,60.1,0,0,1-14.68,1.93,12.71,12.71,0,0,1-4.52-.54,5,5,0,0,1-3.18-3,2.69,2.69,0,0,1,.16-2.1,3.92,3.92,0,0,1,1.18-1.15c4.27-3,9.32-4.77,14.29-6.45,3.26-1.1,6.69-2.22,10.08-1.64l.17-.26a25.81,25.81,0,0,1,6.15-9.12l-10.34.89a10.34,10.34,0,0,0-2.53.45c-2.87,1-4.64,4.61-7.69,4.67a10.39,10.39,0,0,0,4.58-5,29,29,0,0,1-8.94,1.16c-3-.24-6.09-1.56-7.69-4.12-3.25,2.56-3.53,7.29-3.54,11.42a11.25,11.25,0,0,1-2.29-5.24,76.45,76.45,0,0,1-6.19,7.82l-5.44,8.81-3.18,5.32a176.77,176.77,0,0,0-4.57,30.7ZM572.1,846.9c-14.21,4.28-31-3.27-37.23-16.74-2.73-5.9-3.87-13-9-17-3.43-2.7-8-3.41-12.32-4-16.38-2.3-33.1-4.6-49.37-1.6s-32.29,12.3-39,27.4a10.45,10.45,0,0,1-2.43,4c-2.34,2-5.86,1.16-8.8.28-27.47-8.27-58.5-13.25-83.79.29-11.06,5.92-20.08,14.94-29.4,23.34-31,28-67.21,50.33-95.06,81.47a217.13,217.13,0,0,0-47.2,86.35c-3.93,14.17-6.56,29.08-14.47,41.48-5,7.86-11.95,14.37-16.81,22.33-15.78,25.88-6,59.51,7.41,86.71s30.5,54.94,28.25,85.17l-10.47,1.94-8.68.72a113.26,113.26,0,0,0-64.07,35.33c-11.33,12.52-20,27.8-34,37.23-7.18,4.83-15.43,7.89-22.66,12.64-5.4,3.54-10.67,9.84-8.21,15.81,1.35,3.3,4.68,5.28,7.82,7,9.77,5.24,19.86,9.86,30,14.47,42.37,19.4,85.42,39,131.47,46.07,36.38,5.58,73.44,3.14,110.24,2.58,23.29-.35,47.59.29,68.22,11.12a65.55,65.55,0,0,0-21.6,22.36l-6.18,3.81a39.45,39.45,0,0,1,10.24,4.8,16.85,16.85,0,0,1,6.73,8.87,10.87,10.87,0,0,1-2.41,10.55c4.15-1.46,9,.15,11.95,3.44a15.59,15.59,0,0,1,3.4,12.33A19.32,19.32,0,0,1,352,1532.66a12.22,12.22,0,0,1-6.44.61,7.13,7.13,0,0,1-5.05-3.77c-1.12,4.77-3.68,9-5.9,13.42s-4.15,9.11-3.87,14v1c2.7-5.38,8.06-8.82,13.17-12a35.75,35.75,0,0,1,6.43-3.42,30.72,30.72,0,0,1,8.41-1.57c10.12-.79,20.28-.06,30.41.6a6.34,6.34,0,0,0,2.3-.14,7.32,7.32,0,0,0,1.83-1,21.93,21.93,0,0,1,5.54-2.66,14.85,14.85,0,0,0,2.52-.91,23.1,23.1,0,0,0,2.55-1.9c4-2.92,9.35-2.64,14.26-2.23l.66.47a25.16,25.16,0,0,0-7.47,9.42,16.07,16.07,0,0,1-1.52,3q7.39.24,14.8,0l-.56.8c-2.74.45-5,2.36-6.87,4.41s-3.47,4.37-5.66,6.09a14.29,14.29,0,0,1-13.38,2.16c1.3,3.44-1,7.11-3.12,10.09-3.56,4.92-7.21,9.93-12.11,13.52l-.39.18a14.25,14.25,0,0,1,5.65,11.22,10.93,10.93,0,0,1-7,10,5.43,5.43,0,0,1,2.58,3.35l.72.12a49.65,49.65,0,0,1,34.41,3.89l.78.27a10.6,10.6,0,0,1,3.94-2.87c4.41-2.24,9-4.31,13.89-5.06l2-.15a104.8,104.8,0,0,1,12.89-.65,5.16,5.16,0,0,1,3.54,1,3.28,3.28,0,0,1,.57,3.57,6.44,6.44,0,0,1-2.55,2.8c-1.07.7-2.25,1.23-3.32,1.93l-.71,1.45c0,2.09,1.8,3.83,3.79,4.5a15.29,15.29,0,0,0,6.22.31c-4.53,3-9.1,6-14.13,8s-10.64,3-15.9,1.69a14.7,14.7,0,0,1-3.21,6.28A63.45,63.45,0,0,1,394,1656.62l-8.12,6.4c-1.39,1.1-2.91,2.44-2.95,4.21-.06,1.93,1.63,3.4,3.18,4.55q9.08,6.72,18.73,12.59l.46.83c1,.86,2.5,0,3.29-1.08s1.57-2.36,2.86-2.47a6.81,6.81,0,0,0,1.69,0c.66-.22,1-.93,1.59-1.34,1.57-1.1,3.54.54,5.3,1.31a6,6,0,0,0,6.09-.87c1.58,1.18,1.59,3.49,2.11,5.4a9.1,9.1,0,0,0,5.45,6.06c1.86.71,4,.82,5.58,2,2.26,1.75,2.49,5.06,2.08,7.89-.48,3.36-1.9,7-5,8.4l-.1.41a4.23,4.23,0,0,1,5.55,2.91c.62,3-2.21,5.61-3.07,8.58a33.72,33.72,0,0,0-.6,4,11.65,11.65,0,0,1-21.74,3.56,21.39,21.39,0,0,1-1,6.22,7.79,7.79,0,0,1-4.06,4.61l.6.78a45.59,45.59,0,0,1,10.7.2,17.65,17.65,0,0,0-7,8,9.88,9.88,0,0,1,5.89-.28c-2.43,1.12-4.17,3.3-5.82,5.41l-5.94,7.56-.33.7a30.7,30.7,0,0,1,11.26.5,2.89,2.89,0,0,1,1.27.54,1.05,1.05,0,0,1,.31,1.25,1.54,1.54,0,0,1-.83.57l-4.4,1.8c-.5.37.21,1.17,0,1.76-.15.41-.66.53-1.1.57a35.36,35.36,0,0,1-6,.13.89.89,0,0,0-.75.2,1,1,0,0,0-.13.46,3.88,3.88,0,0,1-3.2,2.94,11.39,11.39,0,0,1-4.6-.33l-.95.26c-3,7.46-10,12.61-17.48,15.63a13.33,13.33,0,0,0-3.67,1.9c-2.63,2.19-2.86,6.32-1.46,9.44s4.05,5.48,6.63,7.73a17.74,17.74,0,0,1,4.87-12l0-1.31c-.26-1.43-.53-2.87-.79-4.3a17.12,17.12,0,0,1,3.86,2.41,27.34,27.34,0,0,1,8.63-9.17c.42-.27.88-.58,1-1.06.21-.94-1-1.83-.66-2.72a4.2,4.2,0,0,1,1.92,1.22,36.23,36.23,0,0,1,10-4.81l-2.07-2.7c2.8-.77,6.22,1.55,8.49-.26,1.17-.93,1.43-2.57,2.07-3.93a7,7,0,0,1,4.83-3.83,9.79,9.79,0,0,0-.89,4.49c6.71-3.3,13.52-6.64,20.85-8.12,1.59-.32,3.69-.31,4.34,1.18s-1,3.21-2.43,4.18l-5,3.27,3.72,1.62a14.39,14.39,0,0,0-10.6,3.71,4.58,4.58,0,0,1,1.29,2.92,23.71,23.71,0,0,0-7.86.79l2.8,3.84-7.25-.59,2.67,4.47a27.73,27.73,0,0,0,5.93,3.45,9.18,9.18,0,0,0,6.72.16c3.16-1.32,5.22-4.94,8.61-5.37a8.56,8.56,0,0,0,2.64-.37c1.81-.85,1.91-3.58,3.57-4.69s4.8-.31,5.6-2.25a14.54,14.54,0,0,1-.21-3.84l1.42,1.86a8.58,8.58,0,0,1,2.51-2.13,1,1,0,0,1,.94-.12,1,1,0,0,1,.34.71c.24,1.38.47,2.76.71,4.13l6.77-.14c9.06-4.91,18.26-9.92,25.48-17.27,3.07-3.12,5.75-6.63,9.09-9.47l5.55-3.81c-.18-4.26,1.53-8.56.55-12.7-.83-3.49-3.41-6.23-5.67-9a65.69,65.69,0,0,1-10.15-17.2,16.89,16.89,0,0,0-2.07-4.14,18.33,18.33,0,0,0-3.28-2.93,34.55,34.55,0,0,1-10.92-15.38h-.9l-9-.7a14.55,14.55,0,0,0-2.95,0,21.08,21.08,0,0,0-3.62,1c-6.36,2-13.66,1.61-19.28-2-1.52-1-2.89-2.14-4.38-3.13a38.43,38.43,0,0,0-6.07-3.16,138.56,138.56,0,0,0-22.95-7.73c-3.21-.78-6.91-1.79-8.24-4.82-1.65-3.72,1.35-7.74,4.14-10.7,4.27-4.54,8.84-9.27,14.82-11,3-.89,6.23-1,9.25-1.86s6-2.91,6.73-6c5.46.21,11,.44,16.16,2.3s9.87,5.66,11.46,10.89l1.42.51q18.92,1.32,37.9.75a51.64,51.64,0,0,0,12-1.39c7.41-2,14.86-7.18,22.07-4.54l1.62-.29a70.77,70.77,0,0,1,25-7.88V1635l6.11-31.23a40.19,40.19,0,0,1,2.63-9.36,13.51,13.51,0,0,1,6.54-6.92l7.79-5.09c-.53-4.05-1.15-8.31-3.67-11.52-1.26-1.62-3-2.92-3.92-4.75a11.42,11.42,0,0,0-1.1-2.11c-1.1-1.34-3-1.5-4.78-1.71-4.47-.53-9-2.26-11.72-5.88-3-4.13-2.94-9.92-1-14.67s5.35-8.7,8.77-12.51l12.22-7.2,10.49-1.2c-3.3-6.55-4.34-14.38-2.06-21.36s8.09-12.89,15.24-14.53c-.8-3.65,1.35-7.24,3.55-10.25s4.67-6.24,4.62-10l5.75-.59a23.32,23.32,0,0,1,17.92,3.27,1.56,1.56,0,0,0,1.12.39,1.18,1.18,0,0,0,.68-.49,16.1,16.1,0,0,0,1.49-3.1,6.56,6.56,0,0,1,9.51-2.08l5.48,3.67a42.8,42.8,0,0,1,13.48,11.29,10.46,10.46,0,0,0,0-3.62c0-1.21.33-2.64,1.45-3.09a3.67,3.67,0,0,1,2,0c4.8.85,9.9,1.83,13.47,5.17,2.62,2.44,4.21,6,7.29,7.82,2.29,1.37,5.19,1.63,7.2,3.38,2.45,2.13,2.94,5.89,5.39,8,1.36,1.18,3.16,1.7,4.76,2.54s3.14,2.26,3.16,4.07l.61.39c4.67,1.88,10,1.1,14.78-.48s9.31-3.89,14.19-5.11a66.73,66.73,0,0,1,13.69-1.48l-5.14-4.86-.43-.25c-6,2.94-13.24.86-19.2-2.16A67.11,67.11,0,0,1,713.45,1469c-3.31-4.21-6.11-8.82-9.5-13-4.28-5.24-9.45-9.68-14.58-14.08a21.73,21.73,0,0,0-5-3.53l-.93-.11c-5.73.79-8.79,7.19-13.77,10.14-6.6,3.9-15.06,1.14-22.59,2.54l-2.7-.73a42.57,42.57,0,0,0-9.51-.76,7.7,7.7,0,0,1-4.46-.89,5.21,5.21,0,0,1-1.55-1.87,10.7,10.7,0,0,1-.9-6.32,31.59,31.59,0,0,1,1.7-6.25l5.92-1.78c1.86-1.79,1.25-4.86,2-7.33s3.07-4.49,5.44-5.84a27.84,27.84,0,0,1,16.74-3.46,5.38,5.38,0,0,0,2.19,0,5.59,5.59,0,0,0,2.15-1.76,18.76,18.76,0,0,1,17.63-5.55l.12-.17c-2.76-9.26-.25-19.17,2.26-28.49a32.63,32.63,0,0,1,3-8.26,11,11,0,0,1,6.71-5.37,5.54,5.54,0,0,1,3.85.39c.61.33,1.12.81,1.74,1.11,1.31.64,2.84.42,4.3.42a13.15,13.15,0,0,1,7.95,2.74l1.76-1.82a80.56,80.56,0,0,0,12.22.88c1.55,0,3.34-.18,4.23-1.45.35-.49.51-1.08.85-1.57a8.79,8.79,0,0,1,1.22-1.22c2.28-2.17,2.68-5.59,3.4-8.65,2.71-11.4,11.58-21,12.42-32.68l.63-1c.91.64,2-.62,2.34-1.66a61.86,61.86,0,0,0,3.68-25.18c-.26-4.24-1.09-8.71-4-11.81-1.34-1.42-3.32-2.51-5.2-2L743,1280l-.8-.47,2.93-3.49a71,71,0,0,0,18.75,11.36c4.45,1.83,9.25,3.21,14,2.6s9.48-3.64,10.88-8.24l.63-.59c4-.5,7-3.9,9.61-7.08q12.24-15.22,23.56-31.15c1.7-2.39,3.42-4.88,4.05-7.75,1.34-6.14-2.57-12.07-6.28-17.14-8.19-11.19-17-22.87-29.64-28.48l-1.22-.13c1.4-3-.39-6.83-3.21-8.64s-6.35-2.07-9.7-2c-5,.19-10.19,1.19-14.32,4.06a35.62,35.62,0,0,0-5.21,4.77l-7.4,7.72-.6-.39a73.31,73.31,0,0,0,1.83-29.11c3.73,4,9.76,4.51,15.2,4.79a13,13,0,0,0,3.52-.15,9.51,9.51,0,0,0,3.58-1.89c5.45-4.27,8.14-11.2,9.38-18s1.28-13.8,2.67-20.58l-.65-1.49-20.65-21.32a31.6,31.6,0,0,0-5.46-4.82l-1.67-.36a39.08,39.08,0,0,0,32.88-17.51c3-4.59,4.91-9.75,6.83-14.86l4-10.72-.44-1.51c-4.43.59-8.32-2.74-11.55-5.82-5.56-5.33-11.13-10.66-16.36-16.31-2.65-2.86-5.28-5.86-8.63-7.86s-7.66-2.87-11.19-1.2l-.85-.09a25.5,25.5,0,0,0,0-14.33l-1.27-1.54c-6.18.27-11.47-4.15-17.34-6.06-6.06-2-12.73-1.25-18.8-3.18-5.11-1.63-9.44-5-13.65-8.34L686.86,982l-1.79-.2c.52-5.69,1-11.59-.9-17-2.69-7.59-9.85-13.17-11.68-21-2-8.66,3-17.73,1.28-26.45-.62-3.19-2.13-6.17-2.59-9.4-1.35-9.52,6.67-18.42,5.68-28l-1-.86-15.34,3c-4.67.93-9.41,1.86-14.17,1.64-11.43-.52-21.73-7.54-33.13-8.48L585.57,850.7Z"></path>
    <path data-name="8" data-official="" data-plain="Capsule of R. albiflorum" data-loc="" d="M333.39,2644.05c.42-6.28.84-12.66-.64-18.77s-5.15-12-10.87-14.6c-10.16-4.59-21.45,2.49-30.65,8.76-13.12,8.95-27.18,17-42.64,20.65a18,18,0,0,1-8.24.5c-6.46-1.51-9.76-8.67-11.22-15.14-2-8.91-1.51-19.94,6.11-25,9.26-6.12,22.14.84,32.66-2.73,6.17-2.09,10.6-7.51,16.3-10.66,6.69-3.69,14.65-4,22.29-4.3,11.7-.4,23.9-.71,34.51,4.25,9.8,4.57,17.24,13.33,21.8,23.14s6.47,20.64,7.36,31.42c.2,2.41.58,5.21,2.67,6.43,2.32,1.36,5.18-.1,7.82-.63,5.2-1,10.55,1.85,13.92,5.95s5.15,9.23,6.85,14.25c2.24-4.76,8.46-6.72,13.52-5.28s9,5.54,11.63,10.1c7.8,13.46,5.89,30.28,2.76,45.52a364.15,364.15,0,0,1-9.12,35.3c-2.12,6.75-4.6,13.72-9.68,18.65-7.19,7-18,8.43-26.39,13.91-11.15,7.34-16.75,21-27.61,28.79a34.12,34.12,0,0,1-25.95,5.68,15.63,15.63,0,0,1-6.89-2.81c-4.54-3.61-5.15-10.22-4.8-16s1.23-12-1.48-17.09c-4.3-8.1-15.23-9.69-22.1-15.76-6.37-5.65-8.59-14.57-9.92-23a197.44,197.44,0,0,1,.48-64.63c1.14-6.57,4.44-14.63,11.11-14.52,1.52,0,3.12.51,4.54-.06s2.15-1.93,2.94-3.16a30.14,30.14,0,0,1,26.5-13.52Z"></path>
</svg>
