
<svg xmlns="http://www.w3.org/2000/svg" viewBox="0 0 2004 2733" id="illustration" preserveAspectRatio="xMidYMid meet">
    <title>Myrsinaceæ</title>
    <path data-name="1" data-official="Myrsine retusa" data-plain="Small-leaved Myrsine" data-loc="Azores" d="M746.72,891.92c-4,42.19-3.64,84.65-3.27,127,.09,10.12.18,20.26,1.5,30.29,2.16,16.34,7.55,32.08,13.73,47.35,5.59,13.81,11.92,27.54,14.05,42.28,1.93,13.34.34,26.92-1.7,40.24a615.58,615.58,0,0,1-20.3,88.53c-3.18,10.27-6.71,20.65-13.11,29.29-1.15,1.56-2.64,3.18-4.58,3.22a6.5,6.5,0,0,1-3.54-1.36c-12.11-7.92-20.8-20-29-31.92s-16.44-24.2-28-32.88-27.42-13.16-40.77-7.58l-11.87-.55a25.37,25.37,0,0,0-14.76-1.87c-2.81.5-5.53,1.46-8.37,1.72s-6-.36-7.86-2.5c-2.79-3.16-1.79-8-2.7-12.14a12.79,12.79,0,0,0-5.75-8l-5.15-4.49a29.73,29.73,0,0,0-15.91.64c-5.07,1.79-9.55,5.61-11.4,10.65-1.57,4.28-1.18,9-.42,13.49,1.21,7.22,3.31,14.28,4.46,21.52,1.39,8.75,1.39,17.68,2.8,26.42,2.4,14.87,9.3,29.47,21.23,38.64,8.87,6.82,19.83,10.22,30.53,13.49l13.51,2.77c1.79,2.55,4.55,4.21,7.07,6a51.24,51.24,0,0,1,16.46,20.07l-2.71-1.86c-5.79-3.83-11.69-7.71-18.34-9.71-6.92-2.07-14.27-2-21.49-1.87a40,40,0,0,0-8.33.7c-4.56,1-8.59,3.64-12.51,6.19a8.55,8.55,0,0,0-2.34,2c-1,1.36-1.11,3.16-1.19,4.85-.11,2.82-.1,6,1.92,8a10,10,0,0,0,4.16,2.06q4,1.24,8,2.37c5.18,1.46,10.6,2.81,15.89,1.85,4.4-.8,8.35-3.12,12.26-5.28s8.07-4.23,12.53-4.45,9.35,1.9,11,6l-.66,3.85a73.76,73.76,0,0,0-14.85,38.67l-4.72,8.72a34.87,34.87,0,0,1-13.87,24.83c-15.75,11.61-39.21,8.54-54.25,21.06-12.09,10.07-15.49,27.64-26.92,38.44-6,5.66-13.71,9-20.72,13.34a83.81,83.81,0,0,0-16.6,13.49c-6.29,6.61-11.55,14.4-14.07,23.17s-2.09,18.6,2.34,26.58l4.47,9A117.37,117.37,0,0,1,495,1634.67c.28,17-3.09,34.39,1.8,50.64,2.1,7,5.67,13.47,9.41,19.76a355.12,355.12,0,0,0,29.07,41.79,24.14,24.14,0,0,0,6.32,6.07c3,1.74,6.58,2.15,10,2.44,16.06,1.35,33,1.22,47.06,9.06l4.78.83a64.59,64.59,0,0,1,9.9,3.75l3.16,5.18c.58,8.65,7.06,16,14.6,20.23,2.78,1.58,5.93,2.86,9.1,2.42a12.61,12.61,0,0,0,7.08-4,73.67,73.67,0,0,0,5.13-6.53c4.6-6,10.5-10.89,15-17l2.37-.9c2.23,1.76,1.9,5.33.53,7.83s-3.54,4.54-4.58,7.19a17.58,17.58,0,0,0-1,5.45c-.15,2.59-.22,5.19-.19,7.79.05,4.91.62,10.28,4.08,13.77a10.64,10.64,0,0,0,9.66,2.86c2.91-.63,5.48-2.48,8.44-2.84,2.47-.3,5.33.38,7.19-1.27,1.1-1,1.52-2.56,2.57-3.6s2.49-1.45,3.15-2.67c1-1.85-.36-4.62,1.2-6,1.19-1.06,3.08-.41,4.61-.84,2.51-.69,3.24-3.78,4.27-6.17a13.52,13.52,0,0,1,10.85-7.87l3.34,2.4c9.28,3.83,17.77,10,23.34,18.32a17.56,17.56,0,0,1,2.9,6.36,11.14,11.14,0,0,1-.64,6.2l-2.68,3.62-11.42.87c-8.36.64-16.9,1.33-24.58,4.7-6.93,3-12.75,8.1-18.45,13.09l-6.25,4.21a39.42,39.42,0,0,0-.29,39.13c8.44,14.59,26,23.12,31.51,39a30.4,30.4,0,0,1-4.18,27.5c-2.79,3.79-6.42,6.86-9.81,10.13a85.9,85.9,0,0,0-11.18,13.06c-3.06,4.48-6.11,9.68-11.32,11.18-4.38,1.27-9-.5-13.26-2.06-15.89-5.77-33.67-8.85-49.58-3.16-7.37,2.64-14,7-20.47,11.36-6.85,4.57-13.91,9.35-18.2,16.37l-5.51,11.47c-1.65,23.25-14.3,44-22.78,65.72-24.32,62.2-14.32,131.86-4,197.84,4.35,27.69,8.76,55.6,18.45,81.91,1.53,4.15,3.25,8.36,6.23,11.64,7.81,8.58,21.61,8.33,31,15.19,21.22,15.55,7.73,55.39,29,70.84,12.94,9.39,30.93,3.81,45.85-2s33.13-11,45.75-1.16l13.46,9.24c5.35.59,8.45,6.91,7.72,12.24s-4.08,9.87-7.07,14.35c-3.72,5.56-7.07,11.54-8.26,18.12s.1,13.9,4.7,18.75c6.57,6.94,19.32,6.38,25.26-1.11,4-5.05,4.9-12.15,9.29-16.86,5.41-5.79,14.2-6.25,21.93-8s16.36-7.17,15.62-15c-.45-4.72-4.26-9.6-1.88-13.7a9.16,9.16,0,0,1,3.66-3.14c5-2.79,10.65-4.38,15.16-7.87,6.89-5.34,10-14.49,9.78-23.2s-3.47-17.06-7.37-24.86c-2-4.06-4.27-8.1-5.11-12.55s0-9.54,3.35-12.58c6.25-5.68,17-1.55,24.18-5.91,1.91-1.15,3.58-2.9,5.78-3.29,3.58-.63,6.64,2.57,8.51,5.69,4.78,8,6.75,17.32,8,26.54,3.84,27.88,2,56.21-.74,84.21-1.6,16.39-2.43,35.62,10.11,46.3,10.15,8.64,26.27,7.66,37.14-.06s17-20.8,19.07-34,.72-26.61-.68-39.87l-5.51-52.08c-.56-5.32-1.09-10.86.79-15.86,2.61-6.93,9.24-11.34,15-16a92.88,92.88,0,0,0,29.66-43.9c2.58-8.26,4-17.08,2.46-25.6s-6.3-16.72-13.82-21c-6.11-3.47-13.35-4.11-20.21-5.65s-14.06-4.53-17.36-10.73c-4.42-8.29-.14-18.56-1.74-27.82l1.26-13.58a134.4,134.4,0,0,0-2.73-68.55c-2-6.35-4.4-12.55-6-19a77,77,0,0,1-.54-34.76c1.59-7.34,4.25-14.4,6-21.7,3.84-16.11,3.12-32.9,2.38-49.44l1.28-5.12a29.3,29.3,0,0,1,9.73-18.17c3.81-3.31,8.49-5.65,11.7-9.54,4-4.78,5.16-11.41,4.38-17.56s-3.35-11.94-6.28-17.42l-.65-9.79c-1.68-3-3.41-6.32-2.79-9.7.81-4.45,5.24-7.09,8.69-10a30.94,30.94,0,0,0,10.8-22.29c.11-3.54-.48-7.3-2.77-10s-6.08-4-8.66-6.53c-4-4-4.45-10.29-4.24-16a130.68,130.68,0,0,1,1.69-16.63c.45-2.7,1.11-5.6,3.21-7.34,1.69-1.41,4-1.78,6.17-2.08q24.42-3.4,49.07-4.6c5.65-.27,11.54-.52,16.49-3.25,3.52-1.94,6.28-5,9-8,3.71-4.12,7.5-8.37,9.44-13.56,1.41-3.8,1.75-7.92,3.1-11.73a23.72,23.72,0,0,1,14.7-14.38l10-4.08a4.73,4.73,0,0,1,3.8-2.37,25.22,25.22,0,0,1,4.67.19c8.13.54,16.1-3.85,21.12-10.27s7.35-14.61,7.92-22.74c.38-5.44.09-11.21,2.75-16,1.69-3,4.4-5.31,6.84-7.77a56,56,0,0,0,10.21-14.16l16.21-12.54a161,161,0,0,1,24.91-24.88c-1.08-6.79-2-14.26,1.68-20.07,2.11-3.34,5.45-5.66,8.49-8.19,5.83-4.84,10.92-11,12.74-18.37s-.3-16-6.48-20.4c-5.42-3.85-13.69-4.66-16.23-10.81-.9-2.16-.84-4.58-1-6.92a29.11,29.11,0,0,0-19.76-24.48c-9.72-3-20.19-.7-30.34.18-22.57,2-46.35-3.32-67.36,5.16-6,2.41-11.71,6.07-15.14,11.53-4.6,7.31-4.43,16.54-4.11,25.17l-4.55,7.81c-5,9.62-13.75,16.65-22.37,23.23q-27.89,21.25-57.42,40.23c-1.78,1.14-3.66,2.31-5.77,2.49-4.71.41-8.45-4.32-9.24-9s.39-9.41.43-14.13c.11-11.66-6.56-22.24-13.78-31.4s-15.41-18-19.29-29c-6-17,.08-37.13,13.41-49.27,4.21-3.84,9-7,13.36-10.65,19.36-16.54,27.1-43.78,25.1-69.16-.62-7.91-2-16.14.7-23.59,2.09-5.67,6.37-10.21,10.55-14.58l3.79-6.13a58.08,58.08,0,0,0,7.67-16.16,116.44,116.44,0,0,0,2.83-13.35l1.63-2.07a5.69,5.69,0,0,0,4.86-1.45,22,22,0,0,0,3.35-4,47.9,47.9,0,0,1,13.53-12.47,5.46,5.46,0,0,1-2.78-4.43,6.62,6.62,0,0,1,1.89-5c1.21-1.26,2.92-2.19,3.48-3.84.87-2.57-1.52-5-3.75-6.58a67.66,67.66,0,0,0-21-9.81l-4.39-7.88-.49-9.43a11.62,11.62,0,0,0-.8-4.35c-.78-1.69-2.31-2.88-3.54-4.28s-2.19-3.34-1.52-5.07a13.79,13.79,0,0,1-9.76-1.94c-2.72-1.74-4.87-4.46-7.93-5.49-2.2-.75-4.6-.51-6.92-.26-4.65.5-9.39,1-13.7,2.83-2.43,1-4.74,2.47-7.35,2.86a9.79,9.79,0,0,1-9.89-5.11l-3.89-7.88c-2.42-3-1.78-7.54.46-10.61s5.74-5,9.16-6.67c14.53-7.16,30-12.27,44.66-19.11a209.22,209.22,0,0,0,76.7-61.19l4-7.28,10.23-23.49c2.35-5.39,4.73-10.84,8.35-15.47,5-6.37,12-10.82,17.45-16.75a46.52,46.52,0,0,0,11.85-25c.76-5.53.45-11.44-2.31-16.29-3.19-5.62-9.1-9-14.66-12.3-1.38-.82-2.85-1.76-3.38-3.27a7.66,7.66,0,0,1,.12-3.94c1.5-7.79.55-16.48-4.56-22.55-7.38-8.77-21-9.36-31.84-5.6-7.87,2.73-16,7.42-24,5.13-10.84-3.09-15.91-17.58-27-19.36l-7.61-1.58A504.37,504.37,0,0,0,895.71,1099a4.41,4.41,0,0,1-3.05,1.12c-1.67-.29-2.36-2.31-2.46-4-.4-6.53,2.95-12.63,6.2-18.31l46.31-81c8-14,17.55-29.29,33.12-33.64l7.2-2.66c2.68-1.77,5.6-3.61,8.81-3.49a15.47,15.47,0,0,1,5.16,1.43,25,25,0,0,1,6.71,3.62c2.83,2.37,5,6.14,8.68,6.52a8.41,8.41,0,0,1,2.66.33,9.4,9.4,0,0,1,2,1.69c2.56,2.2,6.46,1.24,9.74,2,2.88.66,5.29,2.68,8.16,3.36a1.82,1.82,0,0,0,1.13,0,1.88,1.88,0,0,0,.81-.9c2.33-4.3,2.08-9.47,2-14.36s.23-10.19,3.35-14l4.89-3.84c3.43.47,7.19,1.11,9.41,3.77,3.2,3.82,1.87,10.3,5.58,13.64a9.39,9.39,0,0,0,5.3,2.06,18.88,18.88,0,0,0,14.18-4.34c3.4-2.9,5.65-6.93,8.86-10a22.53,22.53,0,0,1,9.12-5.34l6.87-2c4-3.52,9.32-5,14.54-6,13.56-2.35,27.43-1.28,41.19-1.43s28-1.68,39.88-8.61a33,33,0,0,0,12-11.29c4.14-7,4.66-15.57,3.25-23.54s-4.61-15.49-7.54-23c-5.24-13.52-10-27.89-20.49-37.93a78.59,78.59,0,0,0-12.35-9.22,374.29,374.29,0,0,0-33.06-18.83c-4.19-2.11-8.5-4.2-11.9-7.45-6.3-6-8.49-15.06-10.4-23.57l-.42-11c-2.44-14.58-4.6-30.7,3.36-43.15,2.63-4.11,6.22-7.53,9-11.54a37.25,37.25,0,0,0,.89-40.26l-6.11-5a71.84,71.84,0,0,1-7.49-4.51c-3.41-2.34-6.85-5.34-7.57-9.41l-1-4.84a12.49,12.49,0,0,0,3.6-3.39c2-2.48,4-5,5.15-8a28.1,28.1,0,0,0,1.28-8.81l.61-2.18a44.35,44.35,0,0,0-21.29,2.88l-1.37-.51c2.21-4.78,4.44-9.6,5.68-14.73s1.48-10.62-.3-15.58c-.59-1.67-1.4-3.24-2.15-4.84-1.43-3.08-2.76-6.39-5.44-8.47l-1-.26c-1.36,2.72-3.09,5.75-6.07,6.39-.79.17-1.71.19-2.22.82a4.11,4.11,0,0,0-.55,1.7c-.38,1.63-1.73,2.81-2.88,4a21.82,21.82,0,0,0-5.83,15.87l-.62.22a16.13,16.13,0,0,1-5.28-5.64c-1-1.72-1.63-3.67-3.1-5a13.41,13.41,0,0,0-4.38-2.17c-5.84-2.21-11-5.82-16.14-9.39l-.75.16c-3.51,6.46-4.51,13.94-5.45,21.23l-4.93,8.07c-2.6,11-11.21,19.75-20.85,25.68s-20.49,9.57-30.77,14.32a159.14,159.14,0,0,0-80.4,85c-7.15,18.06-11.14,37.79-22.56,53.5-2.34,3.2-5,6.26-8.47,8.21s-7.59,2.69-11.55,3.51a174.37,174.37,0,0,0-106.64,70.41Z"></path>
    <path data-name="1a" data-official="" data-plain="Flower" data-loc="" d="M242.55,2617.79c.25-6.94,1.16-14.18-1.52-20.59a39.33,39.33,0,0,0-5.05-8.06l-41.43-55.45c-6.4-8.57-12.85-17.23-17.1-27-4.45-10.25-6.33-21.39-8.18-32.4l-9.08-54.19c-.76-4.53-1.51-9.25-.21-13.66,1.81-6.09,7.35-10.49,13.33-12.61s12.46-2.3,18.81-2.46l101.19-2.57c6.18-.15,12.67-.24,18.12,2.68,8,4.28,11.51,13.8,12.93,22.72,2.52,15.92.38,32.19-2.53,48a505.56,505.56,0,0,1-22.49,82.59c-6.38,17.44-13.85,35.36-12.22,53.86,2.19,24.9,20.34,45.54,26.46,69.77,1.41,5.61,2.1,11.83-.62,16.92-4.3,8.05-14.87,9.89-24,10.38a299.92,299.92,0,0,1-39.77-.51,22.29,22.29,0,0,1-6.6-1.24c-7.35-3-9.56-12.77-7.45-20.41s7.26-14,10.88-21.09,5.61-16,1.34-22.66Z"></path>
    <path data-name="1b" data-official="" data-plain="Stamen" data-loc="" d="M336.55,2677.71c.53-12.08,11.8-21,15.06-32.63s-1.81-23.51-4.46-35.19c-4.7-20.76-1.78-42.4,1.16-63.48,1-7.31,2.09-14.78,5.47-21.35s9.58-12.16,16.94-12.77c12.41-1,21.35,11.43,26.66,22.69,11.39,24.12,18.94,50.67,17,77.27-.52,7.08-2.24,15-8.2,18.83-2,1.3-4.39,2.06-6.07,3.76-2.1,2.13-2.68,5.31-2.85,8.3-.93,16.44,7.05,35-2.79,48.21-7.61,10.2-22.21,11.53-34.94,11.13-5.79-.18-11.77-.59-16.93-3.23s-9.31-8.07-8.71-13.83Z"></path>
    <path data-name="1c" data-official="" data-plain="Pistil" data-loc="" d="M456,2651a66.85,66.85,0,0,1-14.47-46.56c.65-8.48,2.93-16.76,3.84-25.22,1.12-10.46.17-21.29,3.52-31.26s13.05-19.06,23.35-16.9c9.32,2,14.65,12,16.16,21.45s.52,19.22,3.35,28.32c3.43,11,12.37,21.09,10.42,32.47-.93,5.45-4.3,10.16-6.07,15.4-3.09,9.13-1.13,19.18,1.71,28.39s6.59,18.33,7,28-3.24,20.23-11.76,24.74c-5.07,2.68-11,2.85-16.76,3l-13.92.28c-3.7.07-7.53.13-10.94-1.31-7.16-3-10.3-11.94-9.15-19.63s5.58-14.44,9.9-20.9Z"></path>
    <path data-name="2" data-official="Suttonia divaricata" data-plain="Straggling Suttonia" data-loc="Lord Auckland’s Isle" d="M1037.24,2439.28a710.34,710.34,0,0,0,83.58-98.41c2.88-4.08,5.84-8.69,5.25-13.65-.69-5.89-6.2-10.06-11.76-12.11s-11.63-2.73-16.91-5.41c-9.06-4.61-14.42-14.46-16.53-24.4s-1.51-20.21-1.74-30.36c-.11-4.59-.42-9.32-2.53-13.39-5-9.69-17.73-11.93-28.63-12.18s-23.17-.19-30.86-7.93c-7.09-7.13-7.59-18.62-5.16-28.38,6.41-25.69,28.75-44.2,51.71-57.39,8.06-4.62,16.7-8.93,26-9.23s19.33,4.45,22.46,13.2c2,5.48,1,11.5.77,17.31s.73,12.33,5.27,16c3.75,3,8.94,3.25,13.7,4a54.49,54.49,0,0,1,41.81,34.46c.92,2.53,1.67,5.17,3.24,7.36s3.7,3.67,5.68,5.37a41.89,41.89,0,0,1,12.89,19.89c1.54,5.23,2.56,11.48,7.36,14.08,6.47,3.49,14-2.61,17.82-8.91s7.2-14,14.28-16.05l5-4.37,20.7-15.95a3.15,3.15,0,0,1,2.46-1c1.33.28,1.69,2,1.75,3.35a136.79,136.79,0,0,1-7.12,49.93l-1.89,7.18c1.86,6.78.67,14-.53,20.9-.76,4.42-1.65,9.11-4.71,12.41l-5.16,5.18c-11,.63-20.35,8.15-27.4,16.58s-12.63,18.12-20.57,25.71c-4.77,4.56-10.34,8.31-14.52,13.42s-6.8,12.21-4.38,18.35c1.51,3.83,4.72,6.7,7.15,10,7.51,10.32,6.53,25.94-2.21,35.23s-24.27,11.24-35,4.38c-2.82-1.8-5.39-4.15-8.61-5a14.17,14.17,0,0,0-9.83,1.29c-10.76,5.2-15,18-22.18,27.57-9.33,12.56-24.25,20.27-32.83,33.35-4.48,6.84-7.19,15.07-13.44,20.35-5.38,4.54-12.65,6.18-19.68,6.58-8.76.5-19.18-1.81-22.59-9.9-3.32-7.89,1.79-16.52,3.65-24.87,2.74-12.31-1.15-27.1,7.43-36.35Zm290.6-120.76a40.79,40.79,0,0,0,22.79,8.51c2.82.15,5.71,0,8.39.9s5.15,3.15,5.22,6a9.89,9.89,0,0,1-.89,3.71l-5.38,14.15c-2.21,5.82-4.44,12.19-2.57,18.12,2.12,6.7,8.86,10.79,15.45,13.22a69.1,69.1,0,0,0,63.6-8.88,66.93,66.93,0,0,0,6.37,34.71,32.48,32.48,0,0,0,7.64,10.71c8.84,7.64,21.93,6.84,33.55,5.62,6.8-.72,13.93-1.55,19.55-5.44,4.92-3.4,8.11-8.78,10.43-14.3,10.8-25.67,4.16-57.68-16-76.94q39.24-11.31,77.53-25.61l11-2.4c15,23.51,50.52,30.71,73.53,14.92,2.6-1.79,5.16-3.87,8.25-4.53,3.76-.81,7.58.6,11.35,1.33a32.12,32.12,0,0,0,23.85-5c8.47-5.79,13.55-15.21,19.86-23.29a8.53,8.53,0,0,1,4-3.29c2.15-.63,4.4.41,6.48,1.25,16.35,6.56,35.13.69,50.33-8.21,2.92-1.71,6-3.6,9.4-3.48,2.58.08,4.94,1.33,7.33,2.31,16.79,6.9,35.77,1.17,53.29-3.62a16.29,16.29,0,0,1,6.54-.84c6.77,1,9.39,9,13.21,14.7,8.77,13,27.06,15,42.7,13.6,9.09-.79,18.29-2.32,26.43-6.45s15.16-11.19,17.46-20c2.43-9.38-.64-19.21-3.69-28.41L1949,2223.8c-.86-2.59-1.72-5.31-1.21-8,.88-4.58,5.33-7.38,9.07-10.16,5.45-4,10.27-9.37,12.09-15.91s0-14.38-5.6-18.25c-6.22-4.31-14.56-2.67-22.09-1.89s-16.79-.53-19.79-7.47c-1-2.43-1.1-5.14-1.42-7.77-2-16.78-17-31.06-33.86-32.31s-33.78,10.64-38.29,26.93c-.47,1.7-.94,3.6-2.44,4.52a6.46,6.46,0,0,1-4.09.45c-8.07-.87-16.75-2-22.65-7.58-4-3.71-6.53-9.29-11.65-11.07-3-1-6.37-.51-9.49.26a70.4,70.4,0,0,0-29.46,15.32c-10.72,9.38-19.66,22.63-33.67,25.23-14.28,2.64-27.73-7-42-9.78a45.89,45.89,0,0,0-33.06,6.26l-.09-9.65-3-6.95c-6.41-11.55-20.37-18-33.52-16.68s-25.1,9.55-32.22,20.67-9.69,24.8-8.65,38c.2,2.5.5,5.15-.56,7.43-1.26,2.72-4.14,4.25-6.87,5.47-5,2.23-10.2,4.14-14.39,7.62-8.78,7.3-11.18,19.87-18.61,28.54-9.14,10.66-24.31,13.75-38.34,14.32s-28.48-.67-41.76,3.9c-9.37,3.22-20.09,9.12-28.24,3.51-3.27-2.25-5.2-5.91-7.56-9.09a36.28,36.28,0,0,0-56.48-2.24c-9.11,10.44-13.63,27-27.13,30.12-4.23,1-8.75.34-12.88,1.69-7.8,2.55-11.88,12.89-7.9,20.08Z"></path>
    <path data-name="2a" data-official="" data-plain="Flower" data-loc="" d="M699.9,2657.39c-7.64-.33-15.48-.7-22.49-3.74s-13.14-9.36-13.66-17c-.16-2.31.16-4.8-1-6.78-1-1.6-2.73-2.51-4.35-3.47a39.42,39.42,0,0,1-14.75-15.53c-1.75-3.35-3-7.13-2.52-10.87.75-5.45,5.24-9.79,10.3-11.93s10.68-2.48,16.17-2.78c2.48-17.93,23.54-30.66,40.56-24.54,8.35-13,22.85-24.06,38.1-21.53,11.94,2,21.76,13,22.39,25.06,7.87-4.42,16.2-9,25.22-8.88s18.66,6.64,18.68,15.66a12.58,12.58,0,0,0,.28,4.34c.72,1.93,2.69,3,4.39,4.19,11.37,7.69,14.83,24.93,7.32,36.41-5.3,8.11-15.32,14.07-15.79,23.76-.18,3.78,1.23,7.58.54,11.31-.93,5-5.55,8.66-10.42,10.17s-10.08,1.36-15.18,1.59a9,9,0,0,0-4.73,1.14c-4.65,3.16-.71,10.17.24,15.71,1.2,7.07-3.78,14-10.09,17.41s-13.69,4-20.84,4.57l-24.74,1.92c-8.52.66-18.27.88-24.16-5.31-7.65-8-3.75-21.42,2.44-30.63Z"></path>
    <path data-name="2b" data-official="" data-plain="Variety of Pistil" data-loc="" d="M850,2651a65.07,65.07,0,0,1-3.2-45.62c1.32-4.35,3.1-8.61,3.72-13.12,1-7.11-1-14.4.15-21.49a24.53,24.53,0,0,1,39-15.62c8.36,6.31,11.82,17.29,12.68,27.73s-.4,21,.82,31.39c2.4,20.38,14.18,39.21,14,59.74a17.94,17.94,0,0,1-1.23,7.12c-1.32,2.93-3.88,5.1-6.52,6.93-15.08,10.43-34.29,12.31-52.56,13.87-2,.17-4.17.3-5.8-.85a8,8,0,0,1-2.61-4.38,56.53,56.53,0,0,1-.17-33.21Z"></path>
    <path data-name="2c" data-official="" data-plain="Section of Fruit" data-loc="" d="M954.68,2648.3c-10.19-10.36-15.38-24.64-18.55-38.82-3-13.28-4.31-27.74,1.53-40s21-21,33.48-15.54c4.06,1.77,7.5,4.81,11.68,6.27,4.91,1.7,10.29,1,15.44.36l34.16-4.5c4.17-.55,8.66-1.05,12.36.95a17,17,0,0,1,5.29,5c16.31,21.76,12.72,55.89-7.76,73.78-1.87,1.63-3.93,3.24-4.85,5.55-2.06,5.13,2.41,10.77,1.67,16.25-.56,4.14-4,7.41-4.74,11.51-1.26,6.9,5.34,13.43,4.12,20.34-1.49,8.42-12.43,10.53-21,10.73l-37.87.84c-4.52.11-9.29.15-13.23-2.06s-6.52-7.54-4.19-11.41c1.38-2.29,4.28-4.06,3.94-6.7a6.25,6.25,0,0,0-1.37-2.76l-13.77-18.9Z"></path>
    <path data-name="3" data-official="Ardisia crenulata" data-plain="Crenualte-leaved Ardisia" data-loc="West Indies" d="M950.66,1946.27c-3.45,2.92-7.88,5.56-8.69,10-.62,3.38,1.11,6.7,2.79,9.7l.65,9.79c2.93,5.48,5.5,11.26,6.28,17.42s-.42,12.78-4.38,17.56c-3.21,3.89-7.89,6.23-11.7,9.54a29.3,29.3,0,0,0-9.73,18.17l-1.28,5.12c.74,16.54,1.46,33.33-2.38,49.44-1.73,7.3-4.39,14.36-6,21.7a77,77,0,0,0,.54,34.76c1.6,6.44,4,12.64,6,19a134.41,134.41,0,0,1,5.91,41.45l7.33,14.51c3.21,9.16,14.65,13.53,24.06,11.14s16.72-10,21.57-18.38,7.7-17.79,11.54-26.71a129.57,129.57,0,0,1,25.52-38.39c15.49-16.09,34.82-27.84,53.31-40.37a658.61,658.61,0,0,0,74.7-58.89c9.57-8.74,19.26-18,31.46-22.35,2-.73,4.26-1.3,6.27-.55,3.86,1.43,4.54,6.5,4.58,10.61l1.21,107.67c.14,13,.29,26-.7,39-.65,8.55-1.85,17.25-5.67,24.93l-1.3,12a41.89,41.89,0,0,1,12.89,19.89c1.54,5.23,2.56,11.48,7.36,14.08,6.47,3.49,14-2.61,17.82-8.91s7.2-14,14.28-16.05l5-4.37,20.7-15.95a3.15,3.15,0,0,1,2.46-1c1.33.28,1.69,2,1.75,3.35a136.79,136.79,0,0,1-7.12,49.93l-1.89,7.18c1.86,6.78.67,14-.53,20.9-.76,4.42-1.65,9.11-4.71,12.41l-5.16,5.18-4.12,8.64c-2,17.36-12.33,32.46-18.93,48.65-3.64,8.92-6.16,18.25-9.25,27.38a231,231,0,0,1-18.47,40.94c-6.69,11.66-14.43,22.78-19.94,35s-8.74,26.1-5.77,39.22c.65,2.9,1.88,6.06,4.61,7.25a9.24,9.24,0,0,0,4.73.41c6.89-.75,14.08-3.56,20.5-1,3.06,1.24,5.52,3.58,8.13,5.6,10,7.7,23.63,10.93,35.7,7.25s21.89-14.7,23-27.27c.45-5.35-.59-10.71-.67-16.08s1-11.14,4.86-14.88c5.69-5.52,15.15-4.7,21.68-9.19,4.2-2.89,6.69-7.63,8.88-12.24,3.83-8.09,7.23-16.37,10.63-24.66s6.72-16.38,8.7-25,2.54-17.25,3.11-26l2.94-45.09,2.13-11.36-6.63-9.21c-4-7.19.1-17.53,7.9-20.08l6.57-16.14,3.9-109a15.42,15.42,0,0,1,1-5.85c.92-2,2.68-3.56,4.28-5.14a82.19,82.19,0,0,0,10.17-12.92,380.13,380.13,0,0,0,36.84-69l3.86,13.13c1.86,6.34,3.76,12.78,7.41,18.28s9.38,10,16,10.56c4,.33,8-.8,12-1.15s8.47.3,11.08,3.35c2,2.3,2.46,5.49,2.88,8.49,2.91,21.21,5.83,42.62,4.11,64s-8.48,42.9-22.78,58.84l-.73,13c2.36,3.18,4.29,6.84,7.56,9.09,8.15,5.61,18.87-.29,28.24-3.51,13.28-4.57,27.73-3.33,41.76-3.9s29.2-3.66,38.34-14.32c7.43-8.67,9.83-21.24,18.61-28.54,4.19-3.48,9.42-5.39,14.39-7.62,2.73-1.22,5.61-2.75,6.87-5.47,1.06-2.28.76-4.93.56-7.43-1-13.17,1.52-26.85,8.65-38l11.86-19.87a227.3,227.3,0,0,0-.74-103.6c-2.35-9.68-5.53-19.55-12.22-26.93,16.34-12.6,26.45-31.91,31.68-51.87s6-40.78,6.79-61.39a232.45,232.45,0,0,0,46.61-3c2.32,26.18.35,52.57,2.38,78.77,5,64,33.49,123.5,61.51,181.27l29.68-2.46a70.4,70.4,0,0,1,29.46-15.32c3.12-.77,6.46-1.31,9.49-.26l7.93-7.6c47.41-54.48,65.28-133.23,46-202.85-.9-3.25-1.88-6.58-1.51-9.93.34-3,1.74-5.78,2.93-8.57a64,64,0,0,0,4.76-31.29c-.27-2.68-.67-5.57.62-7.93,1.06-1.94,3.06-3.15,5-4.23,18.76-10.5,39.51-17.72,56.5-30.89,18.46-14.32,31.34-35,39-57s10.49-45.56,11.35-68.91c.57-15.46.08-31.82-8-45-11.42-18.72-34.59-26-55.89-31.22l3-10.84c6.28-14.35,11-29.6,11.56-45.26s-3.5-31.81-13.27-44.06c18.76-7.46,31.24-28.27,29-48.33-.35-3.12-1-6.47.5-9.24,1-1.83,2.72-3.1,4.33-4.4,22.51-18.09,26.8-52.3,16.6-79.32-4-10.64-10.43-21-20.47-26.34-8.35-4.43-18.31-4.85-27.66-3.43-17.19,2.61-34.89,13.18-38.71,30.14-.4,1.77-.74,3.75-2.17,4.86a7.05,7.05,0,0,1-3.59,1.1l-34.36,4a60.36,60.36,0,0,0-4.29-33.2c16.77-10.47,27-31.5,22.66-50.78s-24.51-34.31-44-30.91l5.93-20.07a85.34,85.34,0,0,0-19.61-58.9c14.3-4.66,28-12.45,37.16-24.35s13.24-28.33,8.08-42.46c13.34.7,25.94-9.22,30.24-21.86s1.06-27.09-6.61-38-19.31-18.61-31.73-23.5c-2-.8-4.19-1.62-5.51-3.36s-1.52-4-1.76-6.12a90.38,90.38,0,0,0-11.1-34.2c-3.45-6.1-7.79-12-13.85-15.49-4-2.33-8.55-3.53-13-4.71L1754,980.49l-6.89-7.22a56.42,56.42,0,0,0-13.81-13.72,23.73,23.73,0,0,1-4.14-3.25c-1.83-2-2.8-4.62-4.58-6.65-2.92-3.34-7.53-4.54-11.84-5.58-16.35-3.91-32.86-7.84-49.67-8.09l-3.57-1.54a17.75,17.75,0,0,1-4.64-10.63c-.15-2,.05-4.13-.54-6.09a11.69,11.69,0,0,0-2.18-3.85,21.56,21.56,0,0,0-29.11-4.12,33.62,33.62,0,0,0-35.18-8.51,3.23,3.23,0,0,1-1.49.29,3.45,3.45,0,0,1-1.8-1.19,13.46,13.46,0,0,0-9.39-3.72l-9.16-2.91a41.91,41.91,0,0,0-17.13,1.63c-4,1.23-7.73,3-11.75,4-11,2.69-22.92-1.38-31.86-8.41s-15.37-16.71-21-26.56l-1.79-8.11c-3.5-6.28-.67-15.49-6-20.3-2.3-2.07-5.55-2.67-8.62-3a77.42,77.42,0,0,0-13.53-.28c-3.43.23-6.93.67-10.24-.21-7.07-1.87-11.16-9-15.29-15-3.29-4.8-7.16-9.37-12.2-12.28s-11.42-4-16.74-1.6c-2.93-16.18-18.65-29-35.08-28.7a10.58,10.58,0,0,0-5.3,1.18,4.54,4.54,0,0,0-2.35,4.57,23.79,23.79,0,0,0-16.4-2.09l-6.83,4.89a153.58,153.58,0,0,0-47.14,114.38c1.29,43.27,20.84,83.63,40,122.47,4.4,8.92,8.91,18.61,7.24,28.42-12.24-21.86-34.29-36.66-57.41-46.3-3.15-1.31-6.44-2.61-8.81-5.06-2.21-2.3-3.4-5.36-4.81-8.22-11.54-23.39-39.11-34.35-65-37.37s-52.45-.24-77.93-5.78l-13.43-5.26-6.87,2a22.53,22.53,0,0,0-9.12,5.34c-3.21,3.1-5.46,7.13-8.86,10a18.88,18.88,0,0,1-14.18,4.34,9.39,9.39,0,0,1-5.3-2.06c-3.71-3.34-2.38-9.82-5.58-13.64-2.22-2.66-6-3.3-9.41-3.77l-4.89,3.84c-3.12,3.77-3.42,9.07-3.35,14s.32,10.06-2,14.36a1.88,1.88,0,0,1-.81.9,1.82,1.82,0,0,1-1.13,0c-2.87-.68-5.28-2.7-8.16-3.36-3.28-.76-7.18.2-9.74-2a9.4,9.4,0,0,0-2-1.69,8.41,8.41,0,0,0-2.66-.33c-3.67-.38-5.85-4.15-8.68-6.52a25,25,0,0,0-6.71-3.62,15.47,15.47,0,0,0-5.16-1.43c-3.21-.12-6.13,1.72-8.81,3.49l-.66,5.82c-4.27,3.38-7.9,7.9-9,13.24s.92,11.5,5.65,14.21c4,2.3,9.27,1.89,13,4.61a2.64,2.64,0,0,1,1.24,1.72,3,3,0,0,1-.92,2.07c-3.16,3.84-6.84,7.24-9.92,11.14a48.05,48.05,0,0,0-10,34.09l1,7.12,7.61,1.58c11.13,1.78,16.2,16.27,27,19.36,8,2.29,16.13-2.4,24-5.13,10.84-3.76,24.46-3.17,31.84,5.6,5.11,6.07,6.06,14.76,4.56,22.55a7.66,7.66,0,0,0-.12,3.94c.53,1.51,2,2.45,3.38,3.27,5.56,3.29,11.47,6.68,14.66,12.3,2.76,4.85,3.07,10.76,2.31,16.29a46.52,46.52,0,0,1-11.85,25l8.22,4.37a95.56,95.56,0,0,0,12,23.32c5.57,7.92,14.45,15.66,23.81,13.21,2-.53,3.92-1.52,6-1.77,4.56-.53,8.66,2.58,12.2,5.49,24.13,19.83,49.71,39,79.43,48.57,28.32,9.11,58.65,8.92,88.16,12.65,1.81.23,3.85.61,4.86,2.14a6.55,6.55,0,0,1,.62,4l-2.12,37.86c-.82,14.49-1.65,29.11-5.44,43.13a79.11,79.11,0,0,0-35.32-32.17c-10.84-5-22.66-7.41-34.46-9a278.77,278.77,0,0,0-49.84-2.43c-3,.13-6.14.29-9-.75a23.9,23.9,0,0,1-5.91-3.59c-25.17-18.52-55.84-28.8-86.91-32.11s-62.57.13-93,7.14l-30,4.22c-14.68,6.84-30.13,12-44.66,19.11-3.42,1.69-6.91,3.59-9.16,6.67s-2.88,7.66-.46,10.61l3.89,7.88a9.79,9.79,0,0,0,9.89,5.11c2.61-.39,4.92-1.83,7.35-2.86,4.31-1.82,9.05-2.33,13.7-2.83,2.32-.25,4.72-.49,6.92.26,3.06,1,5.21,3.75,7.93,5.49a13.79,13.79,0,0,0,9.76,1.94c-.67,1.73.3,3.67,1.52,5.07s2.76,2.59,3.54,4.28a11.62,11.62,0,0,1,.8,4.35l.49,9.43,4.39,7.88a67.66,67.66,0,0,1,21,9.81c2.23,1.56,4.62,4,3.75,6.58-.56,1.65-2.27,2.58-3.48,3.84a6.62,6.62,0,0,0-1.89,5,5.46,5.46,0,0,0,2.78,4.43A47.9,47.9,0,0,0,984.75,1408a22,22,0,0,1-3.35,4,5.69,5.69,0,0,1-4.86,1.45l-1.63,2.07a116.44,116.44,0,0,1-2.83,13.35,58.08,58.08,0,0,1-7.67,16.16l-3.79,6.13c-4.18,4.37-8.46,8.91-10.55,14.58-2.74,7.45-1.32,15.68-.7,23.59,2,25.38-5.74,52.62-25.1,69.16l11.64,24.83c3.13,2.82,7.59,3.57,11.8,3.71,27,.94,50.43-17.15,71.28-34.3l83.22-68.48a6,6,0,0,1,2.81-1.55,5.92,5.92,0,0,1,3.48,1c60,31.93,116.37,70.86,178.33,98.87a332.43,332.43,0,0,1-89.64,51.55l-7.23,14.57c-1.82,7.36-6.91,13.53-12.74,18.37-3,2.53-6.38,4.85-8.49,8.19-3.65,5.81-2.76,13.28-1.68,20.07a161,161,0,0,0-24.91,24.88l-16.21,12.54a56,56,0,0,1-10.21,14.16c-2.44,2.46-5.15,4.74-6.84,7.77-2.66,4.76-2.37,10.53-2.75,16-.57,8.13-2.9,16.33-7.92,22.74s-13,10.81-21.12,10.27a25.22,25.22,0,0,0-4.67-.19l-3.13,12.08-17,51.44a19.59,19.59,0,0,1-2.17,5c-2.13,3.14-5.84,4.74-9.3,6.28a193.79,193.79,0,0,0-65.42,47.82Z"></path>
    <path data-name="3a" data-official="" data-plain="Flower" data-loc="" d="M1396.89,2636.63a119.17,119.17,0,0,1-39.62-10.92c-5.39-2.56-10.72-5.64-14.54-10.24-4-4.88-6.09-11.15-7.17-17.4-4.45-25.55,6.84-53.18,27.9-68.3,1.52-1.09,3.13-2.18,4-3.83a11.89,11.89,0,0,0,.85-5.5c.26-26.39,16.46-52,40.2-63.52a18.27,18.27,0,0,0,4.53-2.69c1.86-1.69,2.82-4.12,4-6.3a26.46,26.46,0,0,1,9.67-9.84c5.7-3.32,13.13-4.31,18.87-1.06s8.69,11.37,5.13,16.92c5.2-1.36,10.8,1.26,14.44,5.22s5.73,9.07,7.75,14.06c5.23,13,10.56,26.4,10.25,40.39-.06,2.45-.25,5.07,1,7.19s3.34,3.09,5.25,4.37c10,6.72,14,19.29,17.39,30.89l15.87,55.09a14.88,14.88,0,0,1,.85,5.39c-.57,6.31-8.16,9-14.38,10.24l-37.26,7.44c-3.94.79-8.46,2-10,5.72-2.29,5.31,3.13,10.41,6.8,14.88,8,9.72,8.53,24.81,1.29,35.09-6.15,8.73-16.81,13.46-27.42,14.67s-21.33-.68-31.79-2.86c-10.17-2.12-22.39-6.76-23.48-17.1-.84-8,5.64-14.54,11.2-20.31s11-13.84,7.82-21.19Z"></path>
    <path data-name="3b" data-official="" data-plain="Seed" data-loc="" d="M1545.47,2612.65c-17.79-9.16-23.07-32.63-20.25-52.44,1.79-12.49,8-26.54,20.41-28.92,3.42-.66,7.24-.41,10-2.54,1.59-1.22,2.56-3.06,3.78-4.65a17.58,17.58,0,0,1,21.82-4.5c3,1.68,5.39,4.21,8.3,6,3.25,2,7,3,10.54,4.43a48.18,48.18,0,0,1,18.74,76c-4.44,5.21-10.13,9.68-12.56,16.08-5.19,13.72,6.88,28.6,4.64,43.1-.6,3.85-2.38,7.71-5.65,9.82-3.94,2.56-9,2.06-13.7,2.36-8,.53-15.53,3.61-23.14,6.06s-15.81,4.3-23.56,2.29-14.71-8.95-14.25-16.93c.43-7.52,6.79-13.11,10.8-19.49a34.08,34.08,0,0,0,4.63-23.91Z"></path>
    <path data-name="3c" data-official="" data-plain="Section of Fruit" data-loc="" d="M1654,2619.69c-10.07-9.83-12.81-26.38-6.43-38.93,6.5-12.8,20.41-20,34-24.53,9.85-3.28,22.05-5.1,29.47,2.17,3.07,3,4.76,7.14,6.21,11.19,5.77,16.06,9,35-.33,49.34-.75,1.15-1.6,2.39-1.49,3.75s1.13,2.43,2,3.43c6.44,7.19,9.27,18.92,3.14,26.38-3.07,3.73-7.75,5.7-12.32,7.29a143.25,143.25,0,0,1-41.65,7.9c-5.11.2-10.94-.19-14.17-4.16-2.62-3.2-2.66-7.74-2.42-11.87a173.35,173.35,0,0,1,2.38-20.44Z"></path>
    <path data-name="4" data-official="Jacquinia aurantiaca" data-plain="Orange-flavoured Jacquinia" data-loc="Sandwich Isles" d="M750.16,1809.07a17.39,17.39,0,0,0-2.9-6.36c-5.57-8.34-14.06-14.49-23.34-18.32l-3.34-2.4a13.52,13.52,0,0,0-10.85,7.87c-1,2.39-1.76,5.48-4.27,6.17-1.53.43-3.42-.22-4.61.84-1.56,1.42-.19,4.19-1.2,6-.66,1.22-2.17,1.69-3.15,2.67s-1.47,2.62-2.57,3.6c-1.86,1.65-4.72,1-7.19,1.27-3,.36-5.53,2.21-8.44,2.84a10.64,10.64,0,0,1-9.66-2.86c-3.46-3.49-4-8.86-4.08-13.77,0-2.6,0-5.2.19-7.79a17.58,17.58,0,0,1,1-5.45c1-2.65,3.21-4.7,4.58-7.19s1.7-6.07-.53-7.83l-2.37.9c-4.48,6.08-10.38,11-15,17a73.67,73.67,0,0,1-5.13,6.53,12.61,12.61,0,0,1-7.08,4c-3.17.44-6.32-.84-9.1-2.42-7.54-4.27-14-11.58-14.6-20.23l-3.16-5.18a64.59,64.59,0,0,0-9.9-3.75l-4.78-.83c-14.07-7.84-31-7.71-47.06-9.06-3.46-.29-7-.7-10-2.44a24.14,24.14,0,0,1-6.32-6.07,355.12,355.12,0,0,1-29.07-41.79c-3.74-6.29-7.31-12.76-9.41-19.76-4.89-16.25-1.52-33.67-1.8-50.64a117.37,117.37,0,0,0-12.36-50.46l-4.47-9c-4.43-8-4.86-17.8-2.34-26.58s7.78-16.56,14.07-23.17a83.81,83.81,0,0,1,16.6-13.49c7-4.33,14.73-7.68,20.72-13.34,11.43-10.8,14.83-28.37,26.92-38.44,15-12.52,38.5-9.45,54.25-21.06a34.87,34.87,0,0,0,13.87-24.83l4.72-8.72a73.76,73.76,0,0,1,14.85-38.67l.66-3.85c-1.68-4.14-6.56-6.26-11-6s-8.61,2.3-12.53,4.45-7.86,4.48-12.26,5.28c-5.29,1-10.71-.39-15.89-1.85q-4-1.12-8-2.37a10,10,0,0,1-4.16-2.06c-2-2-2-5.15-1.92-8,.08-1.69.18-3.49,1.19-4.85a8.55,8.55,0,0,1,2.34-2c3.92-2.55,8-5.15,12.51-6.19a40.64,40.64,0,0,1,8.33-.71c7.22-.1,14.57-.19,21.49,1.88,6.65,2,12.55,5.88,18.34,9.71l2.71,1.86a51.24,51.24,0,0,0-16.46-20.07c-2.52-1.82-5.28-3.48-7.07-6l-13.51-2.77c-10.7-3.27-21.66-6.67-30.53-13.49-11.93-9.17-18.83-23.77-21.23-38.64-1.41-8.74-1.41-17.67-2.8-26.42-1.15-7.24-3.25-14.3-4.46-21.52-.76-4.49-1.15-9.21.42-13.49,1.85-5,6.33-8.86,11.4-10.65a29.73,29.73,0,0,1,15.91-.64l5.15,4.49a12.79,12.79,0,0,1,5.75,8c.91,4.12-.09,9,2.7,12.14,1.89,2.14,5,2.75,7.86,2.5s5.56-1.22,8.37-1.72a25.37,25.37,0,0,1,14.76,1.87l11.87.55c13.35-5.58,29.19-1.09,40.77,7.58l4.22-12.28c9.89-21.21-6.36-46.56-.6-69.24,2.57-10.09,9.26-18.59,13.36-28.16s4.93-22.1-2.77-29.11-19.5-5.1-29.67-7c-10-1.88-18.7-7.64-27.14-13.28l-30.2-20.17c-17.12-11.43-34.43-23-48.12-38.4-13-14.61-23.47-33.11-41.53-40.68,6.13-14,9.54-29.89,5.29-44.55s-17.75-27.29-33-26.79c-7.64.25-16.82,3.07-21.85-2.68-1.88-2.16-2.6-5-3.42-7.79-2.86-9.63-8.46-19.45-17.93-22.8-12.15-4.29-24.93,3.56-35.42,11.05-8.55,6.09-18.05,14.1-17.31,24.57-20.16.2-38.09,19.44-36.86,39.57.52,8.67,4,16.84,6,25.3s2.12,18.14-3.26,25c-13.09,16.62-45.4,3-58,20-4.92,6.67-4.61,16.09-1.35,23.72s9,13.85,14.68,19.91c-10.17,4-22.38,11.52-20.26,22.25,1.28,6.44,7.44,10.55,13.07,13.93l35.35,21.24c-10.81,3.84-21.82,7.79-30.88,14.82s-16,17.8-15.5,29.26c.11,2.45.52,5.07-.62,7.24s-3.47,3.29-5.54,4.56A31.44,31.44,0,0,0,268.6,1202l5.2,16.31c5.11,6.62,12.31,11.25,18.74,16.6S305,1247,306.25,1255.27a21.36,21.36,0,0,1-7.81,19.59l-8.65,3.93c-2.72,2.33-6.76,1.84-10.34,1.62-9-.55-17.91,1.48-26.68,3.49-2.31.53-4.63,1.07-6.9,1.74A56.64,56.64,0,0,0,218.29,1304a39.83,39.83,0,0,0-11.17-2.15l-10.68,3.1a19.39,19.39,0,0,0,8.24,19.38l8.93,7.49c3.87,5.69,10.74,8.4,16.12,12.69a102,102,0,0,1,8.25,8c7.5,7.51,16.27,13.62,25,19.68l25,17.39a46.4,46.4,0,0,0,6.71,4.14c4.8,2.26,10.25,2.83,15.56,2.6a6,6,0,0,1,3,.36,5.76,5.76,0,0,1,1.79,1.69l4,5.05c2.1,2.68,4.27,5.47,5,8.79.67,2.94.17,6,.88,9,1.22,5,5.66,8.46,9.81,11.5l15.3,18.87c17.81,19.66,25.82,46.93,44.7,65.56a76.1,76.1,0,0,0,28.46,17.7,4,4,0,0,1,2.32,1.49,3.74,3.74,0,0,1,.35,1.55c.88,10.91,1.77,21.89.55,32.76-.57,5.13-1.6,10.2-2.27,15.32-.84,6.49-1.09,13-1.34,19.56L421.42,1642,380,1578.43l-7.8-11.09c-4.43-4.53-7.35-10.28-10.21-15.93-1.81-3.58-3.63-7.17-5.2-10.87a34,34,0,0,0-2.8-5.75,38.26,38.26,0,0,0-3.87-4.48c-13.83-14.85-19.75-35.87-34.13-50.19-2.44-2.43-5.09-4.63-7.75-6.83l-13.54-11.24a124.25,124.25,0,0,0-14.68-11c-5.7-3.45-11.9-6-18.08-8.44l-10.57-4.27-21.49-9.3a86.35,86.35,0,0,0-57.48,12.42c-3.2,2-6.29,4.28-9.83,5.63-4.4,1.68-9.22,1.86-13.93,2.19-9.82.67-19.84,2.13-28.48,6.84-9.31,5.07-16.29,13.49-22.6,22-14.64,19.74-27.56,44.17-21.29,67.92l-4.8,14.71c-13.46-1.24-26.69,5.87-35.69,16S21.4,1599.58,17,1612.37c-5.12,15-8.81,32.48-.5,46,10.32,16.79,34.33,19.09,53.23,13.54,6.17-1.82,12.5-4.52,16.24-9.76,2.54-3.55,3.63-7.94,5.95-11.64s6.78-6.77,10.88-5.29c2.73,1,4.42,3.66,6,6.13a240,240,0,0,0,36.49,45.41c7.13,7,14.74,13.51,20.62,21.54,8,10.93,12.35,24,16.6,36.87-21.29-3.4-43.21,2.95-62,13.52s-34.93,25.18-50.9,39.65c-10.34,9.38-20.86,19-27.84,31.06C26,1866.75,31.43,1902.2,46.46,1930c6.9,12.78,16.43,25.15,30,30.19,6.18,2.3,12.84,2.93,19.41,3.55,3.24.3,6.64.59,9.63-.69,2.49-1.06,4.42-3.09,6.22-5.12a130.17,130.17,0,0,0,23.94-39.6,87.63,87.63,0,0,0,7.39,21.93l11.57,10.31a87.5,87.5,0,0,0,25.22,21.17c-7.25,6.29-16.95,8.7-25.69,12.67-13.42,6.1-24.7,16-35.77,25.73-12.28,10.81-24.63,21.71-34.7,34.6a150,150,0,0,0-17.8,29.58,205.57,205.57,0,0,0-15.73,53.11c-1.28,7.84-2.16,16,.32,23.57s9.19,14.23,17.13,14.27c6,0,11.25-3.52,16.76-5.81,12.37-5.13,26.33-4,39.6-5.87,20.6-2.91,39.65-13.24,55.41-26.82s28.49-30.33,40-47.64c6.31-9.46,12.55-19.39,21.9-25.87,12.47-8.64,28.69-9.91,41.94-17.31,5.68-3.17,11-7.53,17.38-8.61,5.86-1,11.8.91,17.34,3.07A177.56,177.56,0,0,1,347.17,2045l7.92,4.59c4.18-1.29,8.37-1.58,12.55-2.87a11.76,11.76,0,0,1,9.74.26c16.41,5.89,33.14,12,46.85,22.72a84.71,84.71,0,0,0,7,5.3c3.57,2.27,7.71,3.78,10.66,6.82a23.67,23.67,0,0,1,5.38,9.05c.52,1.41,1,2.82,1.55,4.23a5.47,5.47,0,0,1,.48,2.16,8.51,8.51,0,0,1-.89,2.58c-1.9,4.62.61,9.71,2.29,14.41a87.61,87.61,0,0,1,3.59,16.06q5.42,34.13,10.84,68.25l2.69,18.51c9.22,42.67,18.53,85.65,35.85,125.72,5.09,11.78,10.87,23.3,14.85,35.51,5,15.3,7.12,31.64,14.48,45.95,4.27,8.32,10.38,17.9,6,26.16-1.42,2.69-3.79,4.73-5.66,7.12-7.08,9-5.85,23.41,2.49,31.29s22.55,8.4,31.6,1.33c8.77-6.86,12.07-18.81,20.27-26.34,2.66-2.45,5.93-4.54,7.3-7.9.94-2.3.84-4.88.66-7.37a153.51,153.51,0,0,0-16.17-58.24l-7.68-17.37c-3-3.28-4.7-7.49-6.23-11.64-9.69-26.31-14.1-54.22-18.45-81.91-10.36-66-20.36-135.64,4-197.84,8.48-21.7,21.13-42.47,22.78-65.72l5.51-11.47c4.29-7,11.35-11.8,18.2-16.37,6.51-4.34,13.1-8.72,20.47-11.36,15.91-5.69,33.69-2.61,49.58,3.16,4.28,1.56,8.88,3.33,13.26,2.06,5.21-1.5,8.26-6.7,11.32-11.18a85.9,85.9,0,0,1,11.18-13.06c3.39-3.27,7-6.34,9.81-10.13a30.4,30.4,0,0,0,4.18-27.5c-5.51-15.93-23.07-24.46-31.51-39a39.42,39.42,0,0,1,.29-39.13l6.25-4.21c5.7-5,11.52-10,18.45-13.09,7.68-3.37,16.22-4.06,24.58-4.7l11.42-.87,2.68-3.62A11.14,11.14,0,0,0,750.16,1809.07Zm-365,224.86a80.85,80.85,0,0,1-9.28-9.41,55.77,55.77,0,0,1-8.07-13.41l-2.53-9a47.79,47.79,0,0,1-4.38-31.94c.39-1.84,1.07-3.88,2.76-4.71,2.38-1.16,5.06.74,7,2.53a454.12,454.12,0,0,1,43.18,45.63c1.48,1.8,2.95,3.61,4.25,5.53a83.73,83.73,0,0,1,6,11c5.21,10.82,10.44,21.68,13.93,33.17C427.87,2060.29,391.19,2039.21,385.18,2033.93Zm75.34-82.17a509.55,509.55,0,0,1-11.18,93.16l-6.55-2.58c-2.59-9.11-7.27-17.47-12.31-25.48a290.17,290.17,0,0,0-52.89-62.46c-8.95-8-19-16.32-21.31-28.07l-3.89-7.57a576.39,576.39,0,0,1-13.29-90l2.32-10.85c-.22-7.7-.44-15.47,1-23,.8-4.29,2.12-8.45,3.24-12.66,3.47-13,5.08-26.85,2-40a72.84,72.84,0,0,1-1.66-7.53c-.59-4.82.4-9.85-1.07-14.48-1.41-4.45-4.93-8-6.39-12.43-2.91-8.88,3.07-19-.17-27.73-1.39-3.75-4.32-6.73-7.54-9.08a39.25,39.25,0,0,0-37.22-4.6l4.08-5.49q2.54-3.76,5.19-7.43l7.21-12.67a23.19,23.19,0,0,0,3.56,5.84,18.49,18.49,0,0,0,1.9,1.74,50.32,50.32,0,0,0,12.21,7.43l1.68,1.56c1.41,7,8.33,11.26,14.6,14.68l22.51,12.25c9.38,5.11,18.77,10.22,28.52,14.58l5.55,10.28a78.45,78.45,0,0,0,29.68,18.57C447.78,1801.26,462.57,1876.22,460.52,1951.76Z"></path>
    <path data-name="5" data-official="Embelia robusta" data-plain="" data-loc="Ceylon" d="M385.18,2033.93a80.85,80.85,0,0,1-9.28-9.41,55.77,55.77,0,0,1-8.07-13.41l-2.53-9a47.79,47.79,0,0,1-4.38-31.94c.39-1.84,1.07-3.88,2.76-4.71,2.38-1.16,5.06.74,7,2.53a454.12,454.12,0,0,1,43.18,45.63c1.48,1.8,2.95,3.61,4.25,5.53a83.73,83.73,0,0,1,6,11c5.21,10.82,10.44,21.68,13.93,33.17C427.87,2060.29,391.19,2039.21,385.18,2033.93Zm75.34-82.17a509.55,509.55,0,0,1-11.18,93.16l-6.55-2.58c-2.59-9.11-7.27-17.47-12.31-25.48a290.17,290.17,0,0,0-52.89-62.46c-8.95-8-19-16.32-21.31-28.07l-3.89-7.57a576.39,576.39,0,0,1-13.29-90l2.32-10.85c-.22-7.7-.44-15.47,1-23,.8-4.29,2.12-8.45,3.24-12.66,3.47-13,5.08-26.85,2-40a72.84,72.84,0,0,1-1.66-7.53c-.59-4.82.4-9.85-1.07-14.48-1.41-4.45-4.93-8-6.39-12.43-2.91-8.88,3.07-19-.17-27.73-1.39-3.75-4.32-6.73-7.54-9.08a39.25,39.25,0,0,0-37.22-4.6l4.08-5.49q2.54-3.76,5.19-7.43l7.21-12.67a23.19,23.19,0,0,0,3.56,5.84,18.49,18.49,0,0,0,1.9,1.74,50.32,50.32,0,0,0,12.21,7.43l1.68,1.56c1.41,7,8.33,11.26,14.6,14.68l22.51,12.25c9.38,5.11,18.77,10.22,28.52,14.58l5.55,10.28a78.45,78.45,0,0,0,29.68,18.57C447.78,1801.26,462.57,1876.22,460.52,1951.76ZM467.79,2217l-2.69-18.51q-5.43-34.12-10.84-68.25a87.61,87.61,0,0,0-3.59-16.06c-1.68-4.7-4.19-9.79-2.29-14.41a8.51,8.51,0,0,0,.89-2.58,5.47,5.47,0,0,0-.48-2.16c-.51-1.41-1-2.82-1.55-4.23a23.67,23.67,0,0,0-5.38-9.05c-2.95-3-7.09-4.55-10.66-6.82a84.71,84.71,0,0,1-7-5.3c-13.71-10.77-30.44-16.83-46.85-22.72a11.76,11.76,0,0,0-9.74-.26c-4.18,1.29-8.37,1.58-12.55,2.87l.41,13.09c16.39,103.61,8.36,209.37-.92,313.86-.86,9.61-1.67,19.62,1.88,28.59,3.29,8.31,9.94,14.73,15.49,21.74s10.29,15.71,8.67,24.5c-1.12,6.06-5.12,11.21-6.84,17.13a23.64,23.64,0,0,0,36.71,25.63c2.13-1.57,4.09-3.54,6.65-4.25,7.76-2.14,12.93,7.9,20.06,11.63,7.38,3.86,16.92.2,22.23-6.21s7.34-14.87,8.94-23c7.93-40.6,9-82.18,10.07-123.54.67-26.32,1.21-53.48-8.51-78Zm-216.43-778.7,10.57,4.27c6.18,2.49,12.38,5,18.08,8.44a124.25,124.25,0,0,1,14.68,11l13.54,11.24c2.66,2.2,5.31,4.4,7.75,6.83,14.38,14.32,20.3,35.34,34.13,50.19a38.26,38.26,0,0,1,3.87,4.48,34,34,0,0,1,2.8,5.75c1.57,3.7,3.39,7.29,5.2,10.87,2.86,5.65,5.78,11.4,10.21,15.93l7.8,11.09.87-19.67a379.21,379.21,0,0,0-29.44-90.51l-1.4-16.69-15.3-18.87c-4.15-3-8.59-6.5-9.81-11.5-.71-2.93-.21-6-.88-9-.75-3.32-2.92-6.11-5-8.79l-4-5.05a5.76,5.76,0,0,0-1.79-1.69,6,6,0,0,0-3-.36c-5.31.23-10.76-.34-15.56-2.6a46.4,46.4,0,0,1-6.71-4.14l-25-17.39c-8.71-6.06-17.48-12.17-25-19.68a102,102,0,0,0-8.25-8c-5.38-4.29-12.25-7-16.12-12.69l3.71,13.59c8.83,18.3,9.17,39.71,17.42,58.27,2.56,5.75,5.92,11.38,6.41,17.66ZM1870.44,724c-52.32-133.09-109.28-272.6-221.54-361.19C1588.29,315,1515.58,285.49,1444,256.63l-140-56.39c34.43-40.08,28.14-108.37-13-141.49l-22.72-10.34A708.33,708.33,0,0,0,967.78,18c-30.43,3.5-60.7,9-91.31,10.05C835,29.43,793.76,22.69,752.54,17.94,690.35,10.77,627,8.14,565.48,19.88c-47.89,9.15-99,31.63-117,77-5,12.51-7,26-11.21,38.75-6.1,18.53-16.61,35.25-27,51.75l-52.38,83.12c-23.47,37.24-47.81,77.66-45.52,121.61.18,3.38.6,7,2.72,9.59,2.42,3,6.45,4,10.22,4.79,43.7,8.58,88.63-2.07,131.88-12.66a311.43,311.43,0,0,1-87.08,135.57l-16.67,17.16Q315,590.16,280.89,637.3a376.44,376.44,0,0,0-21.42,32.16C238.28,706,227.89,747.7,217.74,788.74,207.53,830,197.29,871.5,193,913.83A585.33,585.33,0,0,0,152,811.3c-6.71-13-17.5-27.77-32-25.8-4.71.64-9,3.08-12.69,6.07-13.13,10.65-19.11,28-20.94,44.79s-.18,33.83-1.21,50.71c-1,15.84-4.28,31.46-5.37,47.29-2.42,35.37,6.31,70.44,15,104.81l33.72,133.76,2.27,12.78c2.75,12,8.29,23.21,14,34.14,6.93,13.22,14.2,26.27,21.47,39.31l17.89,32.12L196.44,1305l10.68-3.1a39.83,39.83,0,0,1,11.17,2.15,56.64,56.64,0,0,1,27.58-18.37c2.27-.67,4.59-1.21,6.9-1.74,8.77-2,17.7-4,26.68-3.49,3.58.22,7.62.71,10.34-1.62l-1.64-10.49A490.37,490.37,0,0,1,239,1136.65a32.56,32.56,0,0,1-1-8.26c.21-4.57,2.28-8.81,4.24-12.94a475.68,475.68,0,0,0,44.41-162.87l2-15.75C276.5,876,304.39,815,331.54,759.2q27.39-56.3,54.76-112.58c2.08-4.27,4.33-8.74,8.29-11.35,4.66-3.07,10.64-2.92,16.17-3.6,22-2.74,39.53-19.73,60.52-27,23.66-8.16,49.59-3.36,74.56-5.13,41.27-2.92,81.41-24,122.21-17.1,13.89,2.33,27,7.83,40,13.28L787.26,629c21.38,9,43.3,18.08,66.45,19.21C908.42,650.9,958.35,609,1013,613.28l25.83-.62,4.93-8.07c.94-7.29,1.94-14.77,5.45-21.23l.75-.16c5.12,3.57,10.3,7.18,16.14,9.39a13.41,13.41,0,0,1,4.38,2.17c1.47,1.31,2.14,3.26,3.1,5a16.13,16.13,0,0,0,5.28,5.64l.62-.22a21.82,21.82,0,0,1,5.83-15.87c1.15-1.22,2.5-2.4,2.88-4a4.11,4.11,0,0,1,.55-1.7c.51-.63,1.43-.65,2.22-.82,3-.64,4.71-3.67,6.07-6.39l1,.26c2.68,2.08,4,5.39,5.44,8.47.75,1.6,1.56,3.17,2.15,4.84,1.78,5,1.55,10.46.3,15.58s-3.47,10-5.68,14.73l1.37.51a44.35,44.35,0,0,1,21.29-2.88l-.61,2.18a28.1,28.1,0,0,1-1.28,8.81c-1.1,3-3.15,5.53-5.15,8a12.49,12.49,0,0,1-3.6,3.39l1,4.84c.72,4.07,4.16,7.07,7.57,9.41a71.84,71.84,0,0,0,7.49,4.51l6.11,5a35.91,35.91,0,0,1,5.37,16.58l6.24,8.06c31.23,16.59,55,44.11,82.43,66.38,13.87,11.24,28.73,21.18,43.56,31.09l30.5,20.39,22.52-13.94c2.78-3.14,5.7-6.17,8.75-9.06l6.83-4.89a23.79,23.79,0,0,1,16.4,2.09,4.54,4.54,0,0,1,2.35-4.57,10.58,10.58,0,0,1,5.3-1.18c16.43-.34,32.15,12.52,35.08,28.7,5.32-2.37,11.7-1.32,16.74,1.6s8.91,7.48,12.2,12.28c4.13,6,8.22,13.12,15.29,15,3.31.88,6.81.44,10.24.21a77.42,77.42,0,0,1,13.53.28c3.07.33,6.32.93,8.62,3,5.35,4.81,2.52,14,6,20.3l1.79,8.11c5.68,9.85,12.12,19.54,21,26.56s20.81,11.1,31.86,8.41c4-1,7.79-2.8,11.75-4a41.91,41.91,0,0,1,17.13-1.63l9.16,2.91a13.46,13.46,0,0,1,9.39,3.72,3.45,3.45,0,0,0,1.8,1.19,3.23,3.23,0,0,0,1.49-.29,33.62,33.62,0,0,1,35.18,8.51,21.56,21.56,0,0,1,29.11,4.12,11.69,11.69,0,0,1,2.18,3.85c.59,2,.39,4,.54,6.09a17.75,17.75,0,0,0,4.64,10.63L1663,936c16.81.25,33.32,4.18,49.67,8.09,4.31,1,8.92,2.24,11.84,5.58,1.78,2,2.75,4.67,4.58,6.65a23.73,23.73,0,0,0,4.14,3.25,56.42,56.42,0,0,1,13.81,13.72l6.89,7.22,39.2,10.26c4.48,1.18,9,2.38,13,4.71l16-7c20.4-4.19,39.84,10,54.46,24.78s29,32.11,49.29,36.87c8.33,2,18.06,1.2,24.08-4.89,3.32-3.36,5.13-8,6-12.61,3.43-17.31-4.37-34.59-10.45-51.16-18.09-49.31-22-102.91-39.86-152.31-8.6-23.81-20.32-46.34-32-68.8Z"></path>
    <path data-name="5a" data-official="" data-plain="Unnamed*" data-loc="" d="M1774.4,2620.92c-10.75-13.33-14.81-30.78-17.2-47.74s-2.73-36.28,8.85-48.93c9.08-9.91,23.44-13.16,36.88-13.21,5.18,0,10.48.39,15.19,2.52,5.23,2.36,9.33,6.65,12.82,11.2,17,22.16,21.85,53.08,12.43,79.37-.62,1.76-1.32,3.61-.93,5.43.46,2.14,2.29,3.67,3.83,5.22,10,10.1,9.63,28.54-.78,38.22-4.12,3.84-9.32,6.26-14.48,8.5q-16.18,7.07-33,12.68c-8.39,2.81-18.39,5.12-25.47-.2-9.45-7.08-6.7-21.69-3-32.91Z"></path>
</svg>
