
<svg xmlns="http://www.w3.org/2000/svg" viewBox="0 0 1831 2385" id="illustration" preserveAspectRatio="xMidYMid meet">
    <title>Ebenaceæ</title>
    <path data-name="1" data-official="Diospyros Embryopteris" data-plain="Viscid-fruited Date-plum" data-loc="Bengal" d="M900.75,1861.35c13.31,22.53,26.65,45.14,37,69.16,6.51,15.07,11.82,30.61,17.13,46.14,4.91,14.37,9.84,28.79,13.07,43.64,2.69,12.34,4.19,24.93,7.23,37.19,5.45,22,15.81,42.84,18.53,65.35.61,5-.11,11.53-5,13-1.73.51-3.66.21-5.31.92-5,2.17-2.61,9.69-4,14.93-1.58,5.82-8.1,8.58-13.9,10.2-10.19,2.83-22.54,4.1-30-3.38-5.72-5.72-6.5-14.67-6-22.75s1.89-16.42-.69-24.09c-1.17-3.5-3.14-6.7-4.33-10.21-2.93-8.63-.87-18-.1-27.13a94.45,94.45,0,0,0-3.84-35.76l-2.31-8.84c-.8-16.69-6.25-32.86-13.39-48s-16-29.35-24-44c-21.8-39.45-38.42-83.16-37.76-128.22l.66-6.92-5.5-30.84c-1-5.49-2-11-2.4-16.57-.26-3.19-.34-6.4-.78-9.57a86.57,86.57,0,0,0-2.92-12.25l-9.8-33.76-2.09-9.42c-7.13-18.84-14.32-38-16.36-58-1.45-14.34-.23-28.81-.64-43.21-2.34-82.54-57.47-157.59-55.38-240.14l1.16-11.32a12.25,12.25,0,0,1,4-4,73.32,73.32,0,0,1,10-6.66,24.45,24.45,0,0,1,11.54-3l5.56-.53a63.42,63.42,0,0,0,15.68-4l4.45-4.67a110.83,110.83,0,0,1,24.49-.59,23.54,23.54,0,0,1,6.46,1.24,27.46,27.46,0,0,1,6.41,4c6.45,4.84,13.06,9.48,19.88,13.8q8.67,5.49,17.78,10.27a7.44,7.44,0,0,1,2.42,1.71,6,6,0,0,1,1.12,2.83,15.25,15.25,0,0,1-.33,6.65l-6.17,4.44c-8,11.44-21.67,17.16-33,25.35-9.16,6.64-17.1,15.35-21.23,25.89s-4,23,1.74,32.74l-.86,9.58c10.65,23.17,17.32,48,23.15,72.78A1187.86,1187.86,0,0,1,873,1760.54l-1.61,10.13c-4.94,14.5-1.55,30.36,1.87,45.29,1.14,5,2.29,10,4.62,14.47,2.74,5.34,7,9.73,11.17,14ZM1013.42,656.94c11.66-37.62,23.44-75.52,42.16-110.18s45.05-66.27,79.76-84.88c33.4-17.9,73.35-23.29,103.29-46.5,7.55-5.86,14.9-15.33,11.15-24.12-1.53-3.6-4.67-6.23-7.81-8.57a134.22,134.22,0,0,0-82.74-26.45c-5.44.13-12,.08-14.92-4.47-3.14-4.82,0-11.18,3.32-15.84,10.21-14.11,23.31-26.32,30.89-42s7.87-37-5.51-48.15c-6.8-5.66-15.86-7.7-24.62-8.93-73-10.28-144.06,23.05-213.27,48.56-9.47,3.49-21.26,6.46-28.72-.35-9.23-8.42-3.69-23.79,3.55-34,54.1-76,164.75-95.5,217.4-172.52,6.11-8.94,11.42-18.88,12.2-29.68s-3.91-22.56-13.56-27.47c-5-2.53-10.68-3.06-16.24-3.5a1227.1,1227.1,0,0,0-143.63-3c-21.93.83-44,2.27-65.32,7.3C830.46,38.82,775.31,91.75,723.91,142.55l-56.83,56.17c-32.61,32.23-66,65.59-84,107.77l-5.81,1.12C548.44,195.74,472.89,96.69,372.63,39.26c-16-9.19-32.86-17.43-50.87-21.64-14.6-3.41-29.68-4.11-44.67-4.59q-38.88-1.23-77.8-.57c-19.47.34-39.18,1.07-57.86,6.56-4.31,1.27-8.69,2.87-12,6-10.3,9.79-4,27,3.38,39.15A545.12,545.12,0,0,0,251.28,201.61c-38.55-5.21-77.34-10.44-116.22-8.94S56.82,202.75,23.79,223.31c-2.79,1.74-5.63,3.66-7.31,6.48-2.09,3.51-2.07,7.93-1,11.86,1.84,6.65,6.39,12.18,10.81,17.48,49.26,58.94,100.8,119.69,170.33,152.34,19.35,9.09,39.82,15.84,58.43,26.38,22.11,12.51,40.93,30,59.53,47.3L370,536.72a173.44,173.44,0,0,1-30.51,5.36l-15.07-5.55a193.14,193.14,0,0,0-127.07,6.94c-7.33,3-15.81,9.4-13.3,16.92,1.33,4,5.52,6.61,6.41,10.71,1.26,5.82-4.56,10.53-9.63,13.65-31.62,19.49-63.4,39.74-88.4,67.21S49.58,715.35,51.36,752.45c.26,5.46,1,11.1,3.8,15.8s8.11,8.26,13.54,7.55a19.74,19.74,0,0,0,7.36-3c11-6.5,20.87-14.91,31.91-21.42a110.34,110.34,0,0,1,59-15.16c10.61.32,21.47,2.3,30.4,8,14.53,9.32,21.41,26.56,28.64,42.24a346.52,346.52,0,0,0,70.53,100.73l9.29,7.48a272.66,272.66,0,0,1,21.66,22,94.5,94.5,0,0,1,10.33,13.59c3.13,5.22,5.39,10.9,8.18,16.31,5.41,10.52,12.72,19.92,19.37,29.71A271.25,271.25,0,0,1,398,1042.22c3.35,10,6.39,20.61,13.88,28l-.08,9.43c3.31,18.63,16.69,33.72,30.43,46.73l6.44,7.28c1.48,4.21,6.94,7.19,6,11.55a8.6,8.6,0,0,1-2.32,3.69,159,159,0,0,1-65.4,43.27l-9.52,7.6c-7.15,6.53-14.47,13.17-23.3,17.16-6.69,3-14,4.41-21.1,6.26-21.76,5.67-43.17,16.76-55.56,35.52a36.62,36.62,0,0,1-2.79,4,34,34,0,0,1-3.5,3.29,80.59,80.59,0,0,0-18.28,23.19c-2.43,4.64-4.41,9.53-7.31,13.9-3.38,5.08-7.89,9.29-12.36,13.45l-19,17.68-11.3,2.23c-22,5.51-39.18,22.46-53.74,39.86-15.3,18.29-29.2,38.14-37.54,60.48-12.13,32.49-11.81,68.1-11.35,102.77.11,7.7.7,16.46,6.69,21.3,4.34,3.5,10.58,3.88,15.91,2.25s9.93-5,14.24-8.56A182.31,182.31,0,0,0,171,1518.09c7.82-11.16,14.6-23.44,25.29-31.9a51,51,0,0,1,23.44-10.33l10.76-13.54c25.2-8.19,45.48-26.63,65.74-43.71,4.42-3.73,8.92-7.45,14.09-10,10.31-5.15,22.36-5.35,33.86-4.61s23.14,2.3,34.5.3c11.65-2.06,22.92-7.83,34.68-6.52l10.68-2.39a118.43,118.43,0,0,0,75.3-38.66l.3-5.43a60.42,60.42,0,0,1,13.79-23.12c2.07-2.16,4.3-4.16,6.52-6.15l13.18-11.85,7.78-13.16a97.29,97.29,0,0,0,39.77-51.3l1.46-1.62a77.6,77.6,0,0,1,62.71-3.75c4.42,1.69,9.06,3.82,13.69,2.85,4-.83,7.22-3.82,11.21-4.43,4.3-.67,8.63,1.65,11.51,4.92s4.58,7.37,6.23,11.4l5.82,0a14,14,0,0,0,7.67,4l10.12-2.48c2.75-4,3.45-9,3.34-13.89s-1-9.65-1-14.49a42.21,42.21,0,0,1,7.73-24.32l8.51-7.09a7.07,7.07,0,0,0,6-.19,20.5,20.5,0,0,0,5-3.66l7.21-6.41a18.71,18.71,0,0,0,3.63-3.91c1.34-2.13,1.76-4.71,2.83-7a13.5,13.5,0,0,1,5.06-5.73l2.68-3c5.28-4.64,12.48-6.52,19.49-7.08s14.08.07,21.1-.32a74.28,74.28,0,0,0,29.71-8l6.63-.85,16.38-4.44c5.32-1.45,10.65-2.89,15.82-4.81,4.31-1.6,8.51-3.52,13-4.56,5.14-1.19,10.48-1.17,15.75-1.14l28.33.14c5.33,0,10.7.06,15.91,1.15,4.48.94,8.77,2.66,13.26,3.54,5.26,1,10.68.92,16,1.42,23,2.19,43.07,15.73,64.74,23.61l7-9.49c-3.38-1-6.13-3.47-9.38-4.83a40.18,40.18,0,0,0-8.15-2,65.64,65.64,0,0,1-52.89-72.8c1.46,4.07,5.73,6.48,9.94,7.51s8.62,1,12.8,2.19c9.3,2.55,17.3,10.61,26.89,9.63,1.17-.11,2.45-.35,3.45.26a9.5,9.5,0,0,1,1.52,1.52c1.33,1.33,3.31,1.72,5.16,2,6.94,1,14,1.08,20.81,2.82,18.82,4.83,32.44,21.34,50.44,28.62l4,.53,9.72-2.58,5.07-6.61a102.49,102.49,0,0,1-4.76-16.81c-.75-3.87-1.27-7.78-2-11.65-1.63-8.88-4.23-17.55-6-26.4s-2.82-18-1.24-26.9l.33-.58a99.81,99.81,0,0,0-8.72-20.2,2.68,2.68,0,0,0-1-1.1,2.51,2.51,0,0,0-1.25-.17,19.23,19.23,0,0,1-5-.19c-2.22-.53-4.08-2-6.15-2.94a24.05,24.05,0,0,0-5.47-1.54,89.52,89.52,0,0,0-17.89-1.51l-4.23,1.24c-5,1.56-8.77,5.6-12.77,9-12.79,10.84-29.43,15.77-45.53,20.43a38.09,38.09,0,0,1-7.36,1.61,38.65,38.65,0,0,1-6.45-.16c-8.3-.68-16.8-1.41-24.37-4.89a46.6,46.6,0,0,0-7-3.09c-2.47-.68-5.32-.61-7.36.94l-7.36,0-27.09,16c-9,5.32-18.92,10.84-29.23,9.25a5.87,5.87,0,0,1-3.7-1.66c-1.09-1.31-1-3.2-.86-4.9,1.44-15.81,4.76-31.44,5.29-47.31s-2-32.46-11.17-45.43S851.35,940,852,924.28c.19-4.52,1.83-8.85,3.83-12.9,12.07-24.36,36.9-39.71,52.67-61.84,11.39-16,17.72-35,28.24-51.56,12-18.85,29.07-34.05,40.88-53,13.6-21.82,19.48-47.43,25.15-72.5Zm194.79,388.14-28.71-12.59c-11.9-5.21-24.33-10.53-37.3-9.93a3.06,3.06,0,0,0-1.34.27,3.53,3.53,0,0,0-1.12,1.24c-2.14,3.25-5.15,5.81-8.11,8.33l-10.07,8.55.25,2q.33,9.66,1.45,19.28a36.75,36.75,0,0,0,1.88,9c1.57,4.06,4.44,7.5,6.16,11.5,2.6,6.06,2.4,13,4.58,19.21l.19,1.46a12.51,12.51,0,0,1,12.26-5.39c.72.12,1.57.28,2.12-.22a2.77,2.77,0,0,0,.57-1c1.48-3.17,5.58-3.91,9.06-4.25,4.44-5.26,11.47-7.8,18.34-8.18s13.7,1.17,20.37,2.87c2.91.74,5.91,1.55,8.25,3.43l1.37.5,12.41-.49.06-.7a164.5,164.5,0,0,1,0-33.28,3,3,0,0,0-.11-1.59,3,3,0,0,0-1.15-1.17l-6.65-4.7Z"></path>
    <path data-name="1a" data-official="" data-plain="Flower" data-loc="" d="M93.28,2290.93c-13.32.66-28.54.19-37.3-9.86-7.27-8.34-7.54-20.56-6.72-31.59a14.38,14.38,0,0,0-.42-6.17c-1.66-4.33-6.86-5.81-11-8-9.92-5.2-15.26-17-14.82-28.18s5.87-21.7,13-30.31c4.59-5.52,10.15-10.82,11.63-17.85,2.2-10.4-5.25-21.57-1.39-31.48,3.21-8.23,12.87-11.84,21.64-12.92s18.07-.68,25.88-4.81c10.59-5.59,15.9-18.19,26.24-24.24,14.46-8.45,34-.67,44.2,12.6,4.89,6.36,8.56,14.05,15.38,18.28,7.17,4.44,16.18,4,24.62,4.24s17.81,1.63,23,8.27c6.55,8.33,3.44,20.57,6.63,30.68s12.72,17.78,14.47,28.3c1.3,7.81-2,15.62-5.56,22.68a217.5,217.5,0,0,1-24.55,37.93,16,16,0,0,0-3.24,5.22,15.46,15.46,0,0,0-.19,6l3,30.15c.23,2.29.44,4.68-.44,6.79-1.21,2.93-4.24,4.7-7.27,5.61-10.33,3.11-21.25-1.37-31.23-5.5-2.5-1-5.7-1.93-7.63,0-1.47,1.44-1.39,3.79-1.16,5.82,1.23,10.5,3.82,22.12-2.08,30.88-4,6-11.09,9-17.93,11.24a142.37,142.37,0,0,1-23.32,5.49c-9.34,1.38-20.82.84-25.58-7.3-3.89-6.65-1.26-15,.77-22.43s2.82-16.74-3.21-21.53Z"></path>
    <path data-name="1b" data-official="" data-plain="Calyx" data-loc="" d="M329.86,2271.15c-1.55-11.74-9.85-21.49-19-29s-19.48-13.7-27.61-22.31a63.74,63.74,0,0,1-15-26.74c-4.72-17.23-2-35.47-1.09-53.32a256.12,256.12,0,0,0-2.11-48.17c-.95-6.82-2-14.44,2-20,3-4.18,8.21-6.18,13.26-7.19a51.58,51.58,0,0,1,34,5c1.07-9,8.77-16,17.27-19s17.76-2.74,26.78-2.46c5.77.19,12,.53,16.48,4.14,6.45,5.17,7.73,15.79,15.37,18.95,6.24,2.58,13-1.32,19.38-3.6,11.22-4,25.82-1.77,31.83,8.54,6.31,10.83.67,24.3-2.06,36.54-6.77,30.31,5.41,63.31-5.29,92.47a66.62,66.62,0,0,1-13.81,22.27c-5.81,6.26-12.72,11.46-18.28,18s-9.77,14.86-8.65,23.33c1.63,12.25,13.24,20.19,23.11,27.63s19.88,18.75,16.48,30.64c-2.44,8.54-11,13.71-19.3,17a108.49,108.49,0,0,1-42.11,7.58c-3-.06-6.11-.31-8.54-2-3.94-2.79-4.59-8.42-3.87-13.19s2.43-9.52,1.81-14.32c-.79-6.12-5.21-11.05-9.41-15.57l-20-21.5Z"></path>
    <path data-name="1c" data-official="" data-plain="Section of Fruit" data-loc="" d="M494,2279.25c-27.88-40.34-36.48-93.42-22.76-140.5a148.84,148.84,0,0,1,12.23-29.87,134.84,134.84,0,0,1,30.31-37.35c30.86-26.48,74-37.77,114-30.68s76.36,32.16,97.93,66.63,28.28,77.71,19,117.3c-7.58,32.43-26.57,63.25-55.61,79.55-15.42,8.65-34.2,13.91-43.74,28.81-3.9,6.1-5.87,13.37-10.32,19.08-9.27,11.91-26.23,13.83-41.29,14.79-5.3.34-10.74.67-15.83-.84s-9.87-5.27-11-10.45c-1.45-6.39,2.74-13,1.59-19.43-1.06-5.95-6.33-10.15-11.51-13.27-19.61-11.78-44.34-17.14-57.91-35.56Z"></path>
    <path data-name="2" data-official="Diospyros Lotus" data-plain="European Date-plum" data-loc="Italy" d="M1048.94,1964.43a124.49,124.49,0,0,1,3.28-20.94,128.19,128.19,0,0,1,4.72-15.1,6.68,6.68,0,0,1,1.73-2.87c1.46-1.2,3.64-1,5.41-.29s3.44,1.72,5.32,2l5.88,5.4a585,585,0,0,1,141.39,140.11c5.4,7.59,10.79,15.79,11.39,25.08.31,4.8-1.07,10.18-5.16,12.7-2.4,1.48-5.33,1.74-8.12,2.09a87.08,87.08,0,0,0-14.48,3.13,11.7,11.7,0,0,0-4.62,2.27c-1.93,1.78-2.55,4.52-3.52,7-5.12,12.83-21.07,18-34.8,16.58-3.09-.32-6.32-1-8.63-3a11.44,11.44,0,0,1-3.27-6.05c-2.87-12.77,9.16-26.6,3.35-38.34-1.75-3.55-4.89-6.17-7.49-9.15-4-4.6-6.83-10.11-10.11-15.27-5.17-8.11-11.56-15.37-18-22.56q-31-34.86-62.93-68.86Zm-143.69-107A376.56,376.56,0,0,1,938.8,1885c4.44,4.09,8.78,8.3,13.46,12.12,4.13,3.37,8.5,6.42,12.86,9.47l49.77,34.8,8.37-3.29a106.76,106.76,0,0,1,4.84-20.94,71.66,71.66,0,0,0,3.06-10,16.81,16.81,0,0,0-.87-10.24l-3.39-8.44c-5.44-10.23-15.6-16.89-24.87-23.84-13.38-10-25.65-21.47-37.35-33.4-6-6.13-12.33-13.78-10.84-22.22s10-13.44,16.82-18.69c19.73-15.22,29.42-39.76,38-63.17s17.56-48,36.57-64.16c1.35-1.14,2.91-2.29,4.68-2.21s3.42,1.61,4.68,3.06c9.38,10.85,17.13,24.55,30.64,29.35l6.62,1.72a75.66,75.66,0,0,0,15.53-1.52l10.2-3.78a117.48,117.48,0,0,0,29.71-1.81c1.16-.23,2.52-.41,3.38.4a3.82,3.82,0,0,1,.88,2.19l1.14,6.88,25.19,8.88a23,23,0,0,1,10.26,13.84c.34,1.36,1.08,3.14,2.46,2.89s1.45-2.43,2.4-3.59,2.66-1.1,4.13-1.1c6.29,0,12.3-2.43,18-5.08a228.34,228.34,0,0,0,35.34-20.43c1.76-1.25,3.65-2.72,4-4.85.23-1.22-.1-2.49,0-3.73.24-2.62,2.38-4.68,4.7-5.92s4.91-1.88,7.22-3.13c9.63-5.23,12.28-19.59,22.66-23.09l.68-1.22c-3.57-1.25-5.09-5.63-4.7-9.39s2.16-7.22,3.17-10.86,1.09-8-1.43-10.77l-8.78-3.34a311,311,0,0,0-45.36-1.78c-5.3.18-10.63.49-15.89-.2l-11.42-16a67.37,67.37,0,0,0-10.58-30.29,10.36,10.36,0,0,1-1.63-3.21c-.45-2,.33-3.93.79-5.88a18.18,18.18,0,0,0-1.39-12.07l-4.52-8.32c-10.48-13.63-26.82-22.11-43.78-24.86s-34.51-.09-50.73,5.59l-1.12-7.84q1.61-49.39,7.87-98.5l-1.91-6.74c-1-2.78-2-5.71-4.3-7.6-2-1.71-4.79-2.32-7.43-2.62a41.3,41.3,0,0,0-14.44,1l-9.6,4.24a255,255,0,0,0-21.72,108.59,112.53,112.53,0,0,0-128,1.52c-4.89,3.47-9.56,7.39-13,12.3a49.57,49.57,0,0,0-6.67,14.89c-4.71,16.46-4.48,34-2.32,50.95,1,8,2.46,16,5.69,23.36,8.3,19,27.87,31.48,48.28,35l6.91,1.62,10.63.31a2.83,2.83,0,0,1,1.26.24c.76.42.94,1.41,1.17,2.25,1,3.58,4.2,6.2,7.7,7.42s7.29,1.27,11,1.32a18.21,18.21,0,0,1-1.82,7.39,214.13,214.13,0,0,1-48.74,72.32c-8.11,7.88-16.88,15.17-23.86,24.07-1.28,1.63-2.56,3.37-4.41,4.31a14.67,14.67,0,0,1-5.67,1.08c-8.17.56-14.23-2.33-21.62,1.18l-6-.75c-4.94,14.5-1.55,30.36,1.87,45.29,1.14,5,2.29,10,4.62,14.47,2.74,5.34,7,9.73,11.17,14Zm434.22-217.34a96.91,96.91,0,0,0-55,38.61,100.44,100.44,0,0,1-6.81,9.53c-3.94,4.5-9,7.82-14,11.08l-15.59,10.13c-15.65,10.18-31.47,20.43-49,26.84l-4.14,7.51a49.56,49.56,0,0,0,19.65,32.36c9.36,6.8,20.76,10,31.89,13.18L1270,1796c5.58,1.57,11.25,3.17,16.18,6.23,5.71,3.53,10.11,8.82,14.07,14.24,26,35.53,36.87,79.63,57.3,118.6l5,5.31c15,18.06,37.6,28.52,60.67,32.76s46.78,2.81,70.12.54c8.41-.82,16.9-1.74,25.27-.65,15.37,2,29.24,10.78,40,21.93s18.8,24.61,26.4,38.12c2.25,4,4.59,8.17,8.32,10.86,6.52,4.68,15.37,3.71,23.3,2.53,2.58-.38,5.42-.91,7-3,1.43-1.83,1.47-4.35,1.42-6.68-.36-16.78-2.17-33.71-7.74-49.55s-15.17-30.6-28.87-40.3l-6.92-3.77c-8.72-27.48-18-56-38-76.81-16.16-16.86-38.49-27.69-51.66-47-9.05-13.26-12.88-29.28-18.05-44.48a248.88,248.88,0,0,0-84.85-117.5c-11.53-8.73-24.48-16.67-38.89-17.85ZM313.32,926.77a117.35,117.35,0,0,0-41.72,39.29c-3.69,5.78-6.91,12-11.65,16.91s-11.45,8.63-18.25,7.72c-4.68-.62-8.84-3.31-12.45-6.36-23.62-20-28.68-54.3-47-79.23-7-9.51-19.85-18.11-29.83-11.8-7.49,4.74-8.56,15.21-7.58,24,1.35,12.16,5,23.95,6.66,36.08s.87,25.22-5.87,35.43c-9.94,15.07-29.56,19.68-44.69,29.52-16.6,10.78-28,28.38-34.06,47.23s-7.15,39-6.38,58.72c.84,21.78,4.15,44.23,15.84,62.62,9.67,15.23,24.32,26.51,36.46,39.86,7.72,8.49,14.47,17.87,22.79,25.78a92.36,92.36,0,0,0,55.8,24.89,102.63,102.63,0,0,0,8.51,52.2l3,6.76,11.3-2.23,19-17.68c4.47-4.16,9-8.37,12.36-13.45,2.9-4.37,4.88-9.26,7.31-13.9A80.59,80.59,0,0,1,271.14,1266a34,34,0,0,0,3.5-3.29,36.62,36.62,0,0,0,2.79-4c12.39-18.76,33.8-29.85,55.56-35.52,7.11-1.85,14.41-3.23,21.1-6.26,8.83-4,16.15-10.63,23.3-17.16l9.52-7.6-9.73-3.38c-6.21-1.18-10.2-7.44-11.72-13.58s-1.34-12.62-3.09-18.69S356,1144.44,349.72,1144c-1.94-.14-4,.25-5.78-.57s-2.65-2.35-3.59-3.87L292,1061.26c-1.81-2.93-3.64-5.92-4.46-9.26,14.41,3.75,27.15,12,40.69,18.25a149.69,149.69,0,0,0,76,12.89l7.51-3.48.08-9.43c-7.49-7.4-10.53-18-13.88-28a271.25,271.25,0,0,0-32.66-65.89c-6.65-9.79-14-19.19-19.37-29.71-2.79-5.41-5.05-11.09-8.18-16.31a94.5,94.5,0,0,0-10.33-13.59Zm725,238.73c-21.67-7.88-41.79-21.42-64.74-23.61-5.34-.5-10.76-.38-16-1.42-4.49-.88-8.78-2.6-13.26-3.54-5.21-1.09-10.58-1.13-15.91-1.15l-28.33-.14c-5.27,0-10.61-.05-15.75,1.14-4.47,1-8.67,3-13,4.56-5.17,1.92-10.5,3.36-15.82,4.81l-16.38,4.44-6.63.85a74.28,74.28,0,0,1-29.71,8c-7,.39-14.08-.23-21.1.32s-14.21,2.44-19.49,7.08l-2.68,3a13.5,13.5,0,0,0-5.06,5.73c-1.07,2.28-1.49,4.86-2.83,7a18.71,18.71,0,0,1-3.63,3.91l-7.21,6.41a20.5,20.5,0,0,1-5,3.66,7.07,7.07,0,0,1-6,.19l-8.51,7.09a42.21,42.21,0,0,0-7.73,24.32c0,4.84.85,9.65,1,14.49s-.59,9.9-3.34,13.89L701,1259.07a14,14,0,0,1-7.67-4l-5.82,0c-1.65-4-3.35-8.14-6.23-11.4s-7.21-5.59-11.51-4.92c-4,.61-7.26,3.6-11.21,4.43-4.63,1-9.27-1.16-13.69-2.85a77.6,77.6,0,0,0-62.71,3.75l-1.46,1.62a97.29,97.29,0,0,1-39.77,51.3l-7.78,13.16L519.92,1322c-2.22,2-4.45,4-6.52,6.15a60.42,60.42,0,0,0-13.79,23.12l-.3,5.43a118.43,118.43,0,0,1-75.3,38.66l-10.68,2.39c-11.76-1.31-23,4.46-34.68,6.52-11.36,2-23,.44-34.5-.3s-23.55-.54-33.86,4.61c-5.17,2.58-9.67,6.3-14.09,10-20.26,17.08-40.54,35.52-65.74,43.71l-10.76,13.54,7.38,15.62a206.65,206.65,0,0,0,79.6,110.89l6.42,10.92c-6.55,20.94-13.14,42-15.8,63.8s-1.22,44.53,7.79,64.53c9.78,21.72,27.72,38.73,46.91,52.84a196.05,196.05,0,0,0,26.78,16.88c19.65,10,41.33,15.48,63.08,19.15,11.91,2,24.15,3.6,34.89,9.11s19.88,16,19.94,28.08l2.58,10.59a121.53,121.53,0,0,0,28.3,63.89c6.19,7.19,13.33,13.72,21.74,18.11,14.86,7.77,32.38,8.32,48.26,13.71,40.14,13.63,65.52,56.33,106.15,68.39,7.61,2.26,15.56,3.36,22.93,6.28,8.49,3.37,15.87,9,23,14.78,12.63,10.32,25,21.78,31.7,36.67,5.84,13.08,6.81,27.91,12.57,41s19.4,25,33.2,21.11c11.78-3.28,17.81-16,22.37-27.37,4.18-10.44,8.39-20.94,10.69-32,2.45-11.73,2.67-23.81,2.58-35.8-.21-28.62-2.45-58.42-16.72-83.23-9.91-17.22-24.9-30.79-38.3-45.45s-25.79-31.62-28.4-51.31v-12.87l.17-38.08c0-9.94.08-19.91-1-29.8-2.27-20.45-9.34-40-16.65-59.26,15.83.6,27.78,14.08,37.26,26.77s20.17,26.73,35.78,29.38l8.9-.63-5.5-30.84c-1-5.49-2-11-2.4-16.57-.26-3.19-.34-6.4-.78-9.57a86.57,86.57,0,0,0-2.92-12.25l-9.8-33.76-2.09-9.42c-7.13-18.84-14.32-38-16.36-58l-9.24-18.85c-25.55-44.89-44.42-94.38-78.71-133-10.44-11.75-22.15-22.3-33.88-32.77-9.74-8.69-19.62-17.43-31.13-23.6-2.95-1.58-6-3-8.46-5.36s-4-5.83-3.13-9.06c1.43-5.14,7.85-6.76,11.68-10.47a12.83,12.83,0,0,0,3-13.29c16.35.93,33,1.45,48.86-2.68s31-13.56,38.51-28.12l6.44-6.15,1.16-11.32a12.25,12.25,0,0,1,4-4,73.32,73.32,0,0,1,10-6.66,24.45,24.45,0,0,1,11.54-3l5.56-.53a63.42,63.42,0,0,0,15.68-4l4.45-4.67a110.83,110.83,0,0,1,24.49-.59,23.54,23.54,0,0,1,6.46,1.24,27.46,27.46,0,0,1,6.41,4c6.45,4.84,13.06,9.48,19.88,13.8q8.67,5.49,17.78,10.27a7.44,7.44,0,0,1,2.42,1.71,6,6,0,0,1,1.12,2.83,15.25,15.25,0,0,1-.33,6.65l7.11,4c23.57,2.58,48,4.93,70.49-2.74,8.68-3,17.1-7.45,26.27-7.87l6.12-2.78c14.4,5.23,30,9.38,44.92,5.83,4.15-1,8.19-2.57,12.44-3,3.48-.33,7,.15,10.48,0,16.21-.59,29.53-13.89,45.61-16,18.21-2.39,34.9,9.83,52.9,13.45,12.22,2.46,24.84.9,37.2-.67l3.81-6.53c-1.22-9.38-7.41-17.22-13-24.85-13.85-18.89-25.56-40.08-29-63.25-.82-5.45-1.2-11.07-3.46-16.1-2.83-6.28-8.27-10.93-13.63-15.25a496.85,496.85,0,0,0-83-54.16Z"></path>
    <path data-name="2a" data-official="" data-plain="Calyx and Pistil" data-loc="" d="M874,2273.94c2.78-5.94-1-13.3-6.62-16.71s-12.46-3.9-19-4.3l-12.61-.75c-2.72-.16-5.56-.37-7.88-1.79-3.75-2.28-5.12-7.3-4.24-11.61s3.57-8,6.47-11.29c5.49-6.26,12.33-11.8,20.48-13.5,7.45-1.56,15.26.23,22.75-1.11a27.78,27.78,0,0,0,15.53-8.57c3.06-3.36,5.34-7.52,9.1-10.06,4.82-3.27,11.08-3.23,16.9-3.08a15,15,0,0,1,6,1c4.32,2,5.62,7.46,8.58,11.2,3.86,4.89,10.47,6.69,16.69,7s12.49-.56,18.65.29,12.57,3.9,15.06,9.6c3.55,8.13-2.47,17.58-10,22.21s-16.61,6.31-24.4,10.56c-12.79,7-21.51,22.73-16.86,36.54,2,5.81,5.94,10.68,9.1,15.94s5.55,11.56,3.87,17.46c-1.93,6.78-8.59,11-15.08,13.75a83.45,83.45,0,0,1-46,5.43,20.14,20.14,0,0,1-8.35-2.88c-5.56-3.91-6.48-12-4.52-18.52s6.13-12.08,9.11-18.19,4.72-13.53,1.61-19.57Z"></path>
    <path data-name="2b" data-official="" data-plain="Petal and Stamens" data-loc="" d="M1017.11,2286.63c-2.22-8.78-5.27-18.63-13.43-22.59-3.34-1.62-7.25-2-10.3-4.16-3.79-2.62-5.55-7.42-5.78-12-.58-11.63,7.35-22.41,17.4-28.3s21.92-7.71,33.51-8.8a324.53,324.53,0,0,1,45.4-1.05c8.11.39,16.29,1.1,24,3.59s15,6.93,19.73,13.55c8.63,12.18,6.48,29.8-2.31,41.85-4.67,6.41-11,11.61-14.87,18.52-2.38,4.23-3.75,8.94-5.11,13.61l-6.49,22.32c-2,7-4.26,14.33-9.42,19.5-8.53,8.56-22.13,8.62-34.21,8.12l-20.3-.85c-5.43-.22-11.86-1-14.4-5.85-1.75-3.3-.94-7.37.47-10.83s3.38-6.75,3.93-10.45c1.33-9-6-17-7.11-26Z"></path>
    <path data-name="2c" data-official="" data-plain="Glands and imperfect Pistil" data-loc="" d="M1165.75,2291.57c-6.41-7.23-11.3-16-12.81-25.58s.59-19.86,6.7-27.34c7.49-9.17,19.67-13,31.33-15,8.15-1.37,16.57-2.05,24.63-.25s15.8,6.36,19.94,13.51a32.82,32.82,0,0,1,3.91,13.81c.89,11-1.89,22.41-8.6,31.14-2.73,3.54-6.16,6.8-7.3,11.12-1.64,6.25,2,12.65,6.27,17.52,2.49,2.85,5.39,5.84,5.56,9.62.2,4.66-3.87,8.33-7.88,10.71-14.76,8.74-32.71,9.6-49.85,10.19-4,.13-8.29.17-11.53-2.16-5.4-3.89-5-12.08-2.81-18.38s5.47-12.79,3.92-19.27Z"></path>
    <path data-name="3" data-official="Royena pubescens" data-plain="Downy Royena" data-loc="Cape of Good Hope" d="M1802.53,1305.68a77.41,77.41,0,0,0-44-46.86c11.76-7.11,23.86-14.51,31.89-25.68s11-27.17,3.31-38.59c-5-7.54-13.85-11.89-22.78-13.46s-18.09-.69-27.1.32c1-8.05-6.4-15.22-14.36-16.83s-16.11.87-23.82,3.43c-13.77,4.57-27.64,9.6-39.41,18.08-14,10.09-24.23,24.45-34.19,38.54.8-10.48-10.84-18.26-21.35-18.18s-20.19,5.32-30.05,9a103.5,103.5,0,0,1-34.91,6.45c-11,.12-22.06-1.53-33-.54s-22.41,5.17-28.66,14.25l-10.58-7.2a272.23,272.23,0,0,0-75.66-48.14,172.83,172.83,0,0,0,101.79-45.63c13.24-12.42,24.59-27,39.38-37.52,15.63-11.11,34.31-17.11,50.7-27.07,16.14-9.81,29.8-23.31,45.94-33.13,22.19-13.51,48-19.48,72-29.54,3.54-1.48,7.64-4,7.36-7.82-.13-1.8-1.26-3.35-2.35-4.8-5.92-7.85-11.91-15.76-19.38-22.16-8.32-7.13-18.2-12.14-28-17.08-14.47-7.31-29.32-14.74-45.43-16.61-28.78-3.36-56.12,11.28-82.93,22.28-16,6.55-32.46,12-47.87,19.74-34,17.15-61.09,45-87.55,72.35l-1-54.23,4.79-6.4c29.15-17.12,57.24-36.62,80.28-61.35s40.87-55.09,46.91-88.34c4-22.29,2.73-45.14,2.54-67.79a31.14,31.14,0,0,1,.86-9.15,31.78,31.78,0,0,1,3.74-7.43q7.1-11.45,14.18-22.9a4.15,4.15,0,0,1,5-2.51,137.94,137.94,0,0,0,75.53-14.78c3.17-1.65,6.36-3.48,8.66-6.21,6.24-7.42,4-18.83-.71-27.3a59.4,59.4,0,0,0-23.29-23.13l-6.77-9.9A199.12,199.12,0,0,0,1573.84,635c5.57-12.72,4-27.87-2.24-40.27s-16.85-22.21-28.69-29.47c14,.62,28-3.56,39.93-11,7.72-4.83,14.7-11.16,19-19.18,5.1-9.51,6.11-20.69,5.8-31.48-.39-13.71-2.83-27.64-9.49-39.62s-18-21.84-31.45-24.47a71.54,71.54,0,0,0,29.35-61.8c-.26-3.85-.86-7.78-2.78-11.13-4.07-7.11-12.88-9.84-21-11.07a113.23,113.23,0,0,0-77.54,16.58,242.1,242.1,0,0,0,8.37-69.53c-.27-10.54-1.91-22.38-10.34-28.72-9.39-7.06-23.09-3.93-33,2.37a63.28,63.28,0,0,0-22.36,24.57l-3.56-12.42c-3.84-13-14.95-22.57-26.91-28.87-5.11-2.68-10.6-4.94-16.37-5.19-13.16-.57-24.57,9.34-31.86,20.32-11-4-22.86-6.63-34.24-4.12s-22,11.28-23.63,22.82c-1.82,12.88,7.28,24.47,11.08,36.9-15.24,4-24.9,20-26.5,35.63s3.2,31.22,8.06,46.2c-18.34,10.34-35.79,22.78-49.24,39s-22.69,36.44-23.08,57.49c-.27,14.65,4.84,30.73,17.53,38l-6.36,6.88c-17.92,14.59-22,40.26-21.35,63.37,0,1.79.09,3.7-.85,5.23a9.36,9.36,0,0,1-3.77,3,124.33,124.33,0,0,0-47.31,46.14c-4.12,7.07-7.58,15.68-4.42,23.23,1.69,4,5,7.11,8.35,10,13,11.35,26.82,21.9,38.56,34.56s21.5,27.86,24.42,44.89c-7.43-3.29-15.49-5.55-23.59-5s-16.26,4.12-21,10.72c-12.91-16.3-39.14-19.88-55.94-7.62-.59-8.94-1.2-18-3.79-26.54s-7.38-16.78-14.79-21.8-16.91-6.43-26-6.82c-12.51-.54-25.4.59-36.69,6a27.72,27.72,0,0,0-9.06,6.43c-3,3.39-4.61,7.72-5.82,12.06a77.73,77.73,0,0,0,9.06,61.47l-3.75,4.61a58.09,58.09,0,0,0-21.83.4,8.91,8.91,0,0,0-4.46,1.93c-1.56,1.5-1.93,3.82-2.14,6-1.73,17.47.84,35,2,52.54.1,1.58.15,3.3-.77,4.59a7.35,7.35,0,0,1-3.07,2.09c-9.17,4.23-17.77,10.45-22.84,19.18-6.24,10.76-6.43,23.9-5.65,36.32A289.87,289.87,0,0,0,981.15,980c.3,1.48.59,3.11-.15,4.42-.86,1.54-2.78,2.06-4.5,2.48a132.86,132.86,0,0,0-34.67,13.78c-6,3.41-12,7.66-14.58,14s-.2,15.17,6.39,17.13l9.32,5.65,7.36,0c2-1.55,4.89-1.62,7.36-.94a46.6,46.6,0,0,1,7,3.09c7.57,3.48,16.07,4.21,24.37,4.89a38.65,38.65,0,0,0,6.45.16,38.09,38.09,0,0,0,7.36-1.61c16.1-4.66,32.74-9.59,45.53-20.43,4-3.4,7.76-7.44,12.77-9l4.23-1.24a89.52,89.52,0,0,1,17.89,1.51,24.05,24.05,0,0,1,5.47,1.54c2.07.94,3.93,2.41,6.15,2.94a19.23,19.23,0,0,0,5,.19,2.51,2.51,0,0,1,1.25.17,2.68,2.68,0,0,1,1,1.1,99.81,99.81,0,0,1,8.72,20.2l-.33.58c-1.58,8.89-.57,18,1.24,26.9s4.41,17.52,6,26.4c.71,3.87,1.23,7.78,2,11.65a102.49,102.49,0,0,0,4.76,16.81l-5.07,6.61-9.72,2.58-4-.53c-18-7.28-31.62-23.79-50.44-28.62-6.78-1.74-13.87-1.83-20.81-2.82-1.85-.26-3.83-.65-5.16-2a9.5,9.5,0,0,0-1.52-1.52c-1-.61-2.28-.37-3.45-.26-9.59,1-17.59-7.08-26.89-9.63-4.18-1.14-8.59-1.16-12.8-2.19s-8.48-3.44-9.94-7.51a65.64,65.64,0,0,0,52.89,72.8,40.18,40.18,0,0,1,8.15,2c3.25,1.36,6,3.83,9.38,4.83l8.48,8.59a496.85,496.85,0,0,1,83,54.16c5.36,4.32,10.8,9,13.63,15.25,2.26,5,2.64,10.65,3.46,16.1,3.47,23.17,15.18,44.36,29,63.25,5.59,7.63,11.78,15.47,13,24.85l-3.81,6.53c-12.36,1.57-25,3.13-37.2.67-18-3.62-34.69-15.84-52.9-13.45-16.08,2.11-29.4,15.41-45.61,16-3.49.12-7-.36-10.48,0-4.25.4-8.29,2-12.44,3-14.9,3.55-30.52-.6-44.92-5.83l-6.12,2.78,1.34,6.22c6.13,13.18,15,25.24,26.55,34.07s25.89,14.27,40.43,14.14l11.89-.94,9.6-4.24a41.3,41.3,0,0,1,14.44-1c2.64.3,5.38.91,7.43,2.62,2.27,1.89,3.33,4.82,4.3,7.6l1.91,6.74,5.79,1.76c14.13,4.46,29.61,1.45,44.09,4.59,14.1,3.06,26.7,11.83,41.05,13.32,5.14.54,10.36.11,15.45,1,7.91,1.37,14.9,5.78,21.66,10.1l18.57,11.87-47.06,82.57-7.27,8.72a18.18,18.18,0,0,1,1.39,12.07c-.46,2-1.24,3.93-.79,5.88a10.36,10.36,0,0,0,1.63,3.21,67.37,67.37,0,0,1,10.58,30.29l11.42,16c5.26.69,10.59.38,15.89.2a311,311,0,0,1,45.36,1.78l8.78,3.34c2.52,2.81,2.44,7.12,1.43,10.77s-2.78,7.1-3.17,10.86,1.13,8.14,4.7,9.39l-.68,1.22c-10.38,3.5-13,17.86-22.66,23.09-2.31,1.25-4.9,1.9-7.22,3.13s-4.46,3.3-4.7,5.92c-.12,1.24.21,2.51,0,3.73-.38,2.13-2.27,3.6-4,4.85a228.34,228.34,0,0,1-35.34,20.43c-5.7,2.65-11.71,5.1-18,5.08-1.47,0-3.19,0-4.13,1.1s-.92,3.33-2.4,3.59-2.12-1.53-2.46-2.89a23,23,0,0,0-10.26-13.84l-25.19-8.88-1.14-6.88a3.82,3.82,0,0,0-.88-2.19c-.86-.81-2.22-.63-3.38-.4a117.48,117.48,0,0,1-29.71,1.81l-10.2,3.78-4.6,11.1q-6.2,15.68-12.4,31.35c-3.85,9.76-7.72,19.54-12.64,28.8-2.74,5.18-5.8,10.17-8.69,15.26-17.43,30.7-28.42,64.55-39.29,98.13l-2.81,10.44,3.39,8.44a16.81,16.81,0,0,1,.87,10.24,71.66,71.66,0,0,1-3.06,10,106.76,106.76,0,0,0-4.84,20.94l-8.37,3.29-3.68,8.67q-3.24,10.14-6.5,20.29a90.36,90.36,0,0,0-5.77,35.57c-.12,15-.23,30.14,1.8,45,1.49,10.92,4.11,21.65,6.73,32.35,1.36,5.54,2.8,11.26,6.29,15.76,6.66,8.58,20.61,10.17,29.07,3.37,4.94-4,7.81-10.06,9.09-16.27s1.11-12.6.94-18.93q-1-38.87-2.11-77.72l-.42-11.33-1.39-13.8a124.49,124.49,0,0,1,3.28-20.94,128.19,128.19,0,0,1,4.72-15.1,6.68,6.68,0,0,1,1.73-2.87c1.46-1.2,3.64-1,5.41-.29s3.44,1.72,5.32,2l3.62-8q19.2-42.59,38.41-85.17c3.61-8,7.24-16.06,10.31-24.31,3.66-9.81,6.54-19.88,9.46-29.93,1.23-4.21,2.59-8.63,5.77-11.65a23.15,23.15,0,0,1,5.47-3.55,151.39,151.39,0,0,1,39.86-13.86l12.63-6.85,4.14-7.51c17.53-6.4,33.35-16.66,49-26.84l15.59-10.13c5-3.26,10.1-6.58,14-11.08a100.44,100.44,0,0,0,6.81-9.53,96.91,96.91,0,0,1,55-38.61l10.66-.57,6.6-5.1,65.36-81.06c4.64-5.75,9.48-11.67,16.07-15,5.77-2.92,12.38-3.62,18.84-4a225.58,225.58,0,0,1,138,38c19.13,12.92,36.49,28.94,57.73,38a107.39,107.39,0,0,0,39.81,8.41c8.32.17,17.3-.83,23.52-6.35,7.67-6.82,8.79-18.37,7.89-28.59-3-33.74-23.08-65.51-52.31-82.63l1-7c11.25-34.66,1.49-75.26-24.3-101,30.1-3,56.36-20.87,81.15-38.21,6.36-4.46,12.77-8.94,18.24-14.46l10.13-5.75c8.52,2.08,17.29,4.18,26,3s17.39-6.5,20-14.88C1805.56,1317.35,1804.38,1311.25,1802.53,1305.68Zm-581.6-249a164.5,164.5,0,0,0,0,33.28l-.06.7-12.41.49-1.37-.5c-2.34-1.88-5.34-2.69-8.25-3.43-6.67-1.7-13.49-3.25-20.37-2.87s-13.9,2.92-18.34,8.18c-3.48.34-7.58,1.08-9.06,4.25a2.77,2.77,0,0,1-.57,1c-.55.5-1.4.34-2.12.22a12.51,12.51,0,0,0-12.26,5.39l-.19-1.46c-2.18-6.22-2-13.15-4.58-19.21-1.72-4-4.59-7.44-6.16-11.49a36.93,36.93,0,0,1-1.88-9q-1.12-9.62-1.45-19.28l-.25-2,10.07-8.55c3-2.52,6-5.08,8.11-8.33a3.53,3.53,0,0,1,1.12-1.24,3.06,3.06,0,0,1,1.34-.27c13-.6,25.4,4.72,37.3,9.93l28.71,12.59,4.81,4.11,6.65,4.7a3,3,0,0,1,1.15,1.17A3,3,0,0,1,1220.93,1056.65Z"></path>
    <path data-name="3a" data-official="" data-plain="Calyx and Fruit" data-loc="" d="M1349.4,2198.59a269.4,269.4,0,0,1-57.52-2.75c-7.05-1.1-14.36-2.62-19.94-7.05-11.2-8.88-11.18-27-3.21-38.84s21.66-18.53,35.24-23a156.25,156.25,0,0,1,60.11-7.62c5,.38,12.05-.76,11.87-5.76a9,9,0,0,0-1.72-4.22,141.61,141.61,0,0,1-20.86-78.89c.17-4.67.66-9.59,3.4-13.37,3.26-4.5,9-6.43,14.56-7.08,18.77-2.18,37.36,7.79,50,21.86s20.27,31.81,27.15,49.41c1.44,3.67,3.41,7.86,7.27,8.7,2.19.48,4.44-.29,6.55-1.06,32.94-12,67.89-26.49,102-18.11,2.69.66,5.58,1.63,7,4,1.28,2.05,1.16,4.66.78,7-1.27,8-5,15.3-9.12,22.2a174.64,174.64,0,0,1-54.69,56.58c-6.47,4.19-14.18,9.83-13,17.45,1.08,7.15,9.21,10.5,16,12.83a247.75,247.75,0,0,1,45.35,20.77c12.12,7.12,24.09,15.78,30.49,28.3,4.84,9.49,5.21,22.83-3.37,29.15-8.18,6-19.58,2.7-29.32-.17-15.75-4.64-32.44-7.44-48.6-4.54-20,3.6-38.28,15.77-58.65,16.34-13.06.37-26.42-4.1-39-.5-11.85,3.39-20.5,13.21-30.32,20.66s-23.86,12.62-34.11,5.77c-4.24-2.85-7.1-7.36-9.13-12.05-5.79-13.35-5.67-28.66-2.37-42.83s9.59-27.44,15.93-40.53Z"></path>
    <path data-name="3b" data-official="" data-plain="Calyx, Stamens, and Pistil" data-loc="" d="M1608.45,2227.39c-14.22-7.07-27.42-16.83-36.46-29.89s-13.58-29.68-10.16-45.19,15.56-29.33,31.08-32.7c2.44-.53,5-.84,7.12-2.18,3.41-2.17,4.72-6.39,6.35-10.07a38.4,38.4,0,0,1,18.62-19.25,33.83,33.83,0,0,1,26.58-.88c4.63,1.87,9,5.15,10.64,9.86s.31,10,2.48,14.47c3.12,6.33,12,8.08,15.13,14.43,1.81,3.71,1.17,8.11,1.82,12.19,1.4,8.77,8.7,15.68,10.29,24.41,1.74,9.49-3.59,18.76-9.24,26.58a204.64,204.64,0,0,1-24.72,28.28,11.57,11.57,0,0,0-3,3.85c-.84,2.11-.33,4.51.41,6.66,2.8,8,8.61,14.57,13.72,21.37s9.79,14.6,9.65,23.1c-.2,11.94-10.19,22-21.47,25.87s-23.6,3-35.47,1.69c-4-.45-8.14-.95-11.85-2.62s-7-4.7-8-8.64.4-8,1.85-11.82c4.84-12.71,10.46-26.54,6.17-39.44Z"></path>
    <path data-name="4a" data-official="Diospyros melanoxylon" data-plain="Seed" data-loc="East Indies" d="M1693.34,2215.7a127.75,127.75,0,0,1,.07-17.39c.41-5.55,1.17-11.07,1.94-16.59l4.58-32.91a74.62,74.62,0,0,1,3.06-14.69c4-11.43,13.74-20.39,25-25s23.84-5.08,35.77-2.92c6.13,1.11,12.27,3,17.34,6.57a36.7,36.7,0,0,1,11.52,14.52c5.16,11,6.25,23.54,5.63,35.7s-2.88,24.16-4.06,36.27c-2.06,21-.91,42.25.55,63.34.57,8.23.77,17.63-5.18,23.34-2.57,2.46-6,3.86-9.34,4.94-10.69,3.43-22,4.24-33.25,4.31-9.26.06-19-.52-26.88-5.35-3.3-2-6.27-4.89-7.38-8.59-1-3.3-.42-6.85-.68-10.29-1.17-15.58-19-26.84-18-42.43Z"></path>
</svg>
