
<svg xmlns="http://www.w3.org/2000/svg" viewBox="0 0 2114 2787" id="illustration" preserveAspectRatio="xMidYMid meet">
    <title>Strychanceæ</title>
    <path data-name="1" data-official="Strychnos Tieute" data-plain="Poisonous Strychnos" data-loc="Java" d="M1325.25,2388.85c-.39-4.36-4.31-7.43-7.9-9.95l-25.84-18.16c-8.52-6-17-12-26.16-17a15,15,0,0,0-3.55-1.57,21,21,0,0,0-5.5-.28c-8.54.07-17.2-3.32-22.9-9.69-1.64-1.82-3-3.87-4.67-5.68-4.06-4.48-9.52-7.39-14.87-10.21l-10.47-6.1a207.53,207.53,0,0,1-64.26-82.24l-4.68-8.31-6-6.68,12.35-1.74c10.56,5.07,22.65,5.43,34.31,6.52s23.94,3.34,32.66,11.15l4.72,2.75a199,199,0,0,0,50.88-2.47c.77-.13,1.76-.55,1.66-1.33l6.25-10.87q19.59-4,39.47-6.3c3.17-.37,6.68-.63,9.27,1.23,1.38,1,2.56,2.58,4.26,2.62l6.23-4.69c13.6-3.05,26.3,9.35,40.24,9.11,6.9-.12,14-3.35,20.46-1l.51,4.4a337.29,337.29,0,0,1,8.84,120.52l.66,9.13c38.94,25.32,86.92,33.32,126.86,57,10,5.95,19.46,12.84,28.88,19.72,13.17,9.62,26.38,19.28,38.09,30.64,9.9,9.6,18.63,20.33,27.69,30.74q19.53,22.44,41.11,43c4.05,3.84,8.52,9,6.8,14.27a4.25,4.25,0,0,1-.76,1.46c-2.11,2.54-6.09.43-9-1.14-8.08-4.36-17.92-3.08-27-1.68-3.27.51-6.68,1.07-9.37,3s-4.35,5.73-2.83,8.67l-.44,10.29c-.37,5.29-4.26,10-9.17,12a20.1,20.1,0,0,1-15.48-.6,24.82,24.82,0,0,1-10.86-9.21c-3.51-5.42-4.76-12-7.17-18-7.47-18.6-25.3-30.6-42.14-41.46q-44.68-28.78-89.35-57.59c-10.81-7-23.09-14.23-35.69-11.65a6.11,6.11,0,0,0-2.74,1.1c-1.56,1.3-1.7,3.6-1.71,5.63L1405.88,2609c0,3.32-.34,7.21-3.14,9-1.57,1-3.54,1.07-5.41,1.09l-21.13.27c-1.6,7.93,1.12,17.28-4.07,23.47s-15.07,5.08-23.08,3.31c-3.7-.82-7.75-1.86-9.94-5-1.78-2.52-1.89-5.8-1.95-8.88-.12-7.55-.23-15.18,1.37-22.56,1-4.76,2.77-9.47,2.51-14.32-.19-3.49-1.41-6.82-2.06-10.24a62.7,62.7,0,0,1-.53-13.7l1.38-40.66,9.65-10.89,1.24-26.25c1.21-25.51,2.09-52.52-10.25-74.87Zm81.65-496.65c-1,6.9,4.18,13,9,18q10.08,10.55,20.17,21.07c1.52,1.59,3.11,3.32,3.42,5.49l11.55-1.72a52.49,52.49,0,0,1,13.74,21.54l3.22,7.65,7.35,25.72a32.26,32.26,0,0,1,1.64,8.66c0,3.93-1.41,7.69-2.66,11.42-8.18,24.42-9.67,50.56-9.45,76.31.38,47,6.68,95.4,29.87,136.32l-1.21,24.39c49.06,82.61,152.18,129.26,246.62,111.57,37.21-7,72.24-22.78,105.15-41.48,40.85-23.22,80.11-52.2,104.28-92.49,21.05-35.09,29.21-76.25,35.52-116.67,4.74-30.33,8.62-61.44,2.74-91.57-13.24-67.77-71.69-115.93-126.33-158.14,16.54-25.53,48.22-38.94,62.55-65.77,9-16.84,9.87-36.7,10.14-55.79q.58-39.91-1.24-79.83c-1.29-28.39-4-58.21-19.89-81.76-22.88-33.86-66.28-45.78-100.27-68.45l-14.48-3.52c-16-3.3-33.85-5.8-47.93,2.59l-10.21.47c-24.28,19-33.77,54.29-61.34,68.08-5.78,2.89-12.13,4.67-17.49,8.27-5,3.33-8.82,8-13.14,12.17a73.34,73.34,0,0,1-18.34,12.84l-9.15,9.34a22.7,22.7,0,0,0-11.53,6.77c-8.64,9.47-8.13,24.82-16.83,34.23-3.83,4.14-9,6.67-14.12,9.1l-19.29,9.25a111.73,111.73,0,0,1-15.51,6.49c-4.48,1.36-9.13,2.17-13.48,3.91-13.82,5.53-22.23,19.38-33.88,28.65l-7.06,14.39a24.29,24.29,0,0,1-15.64,16.53c-6.12,2-12.78,1.46-19.09,2.75-15.73,3.21-27.75,19.21-26.48,35.2.61,7.64,3.83,14.84,4.84,22.43,2.54,18.92-8.76,36.84-21.19,51.33ZM992,1624.46a162.34,162.34,0,0,1,55.39,2,22.25,22.25,0,0,0,7,.76c3.15-.35,5.94-2.11,8.61-3.82l3.36-1.78c16.26,9.6,34.09,16.14,51.46,23.55a537.41,537.41,0,0,1,56.35,28l6,3.87a241.9,241.9,0,0,1,27.83,42.86c2,3.85,3.85,7.85,4.32,12.15l10.59,11.66,13.43,4.35c9.08,2.94,18.56,6.13,25.13,13,4.35,4.57,7.08,10.44,9.4,16.31a174.09,174.09,0,0,1,11.35,46.59l5.93,13.21c.38,3.78,2.94,7.06,6,9.24s6.77,3.41,10.37,4.62l58.22,19.53,4.72-9.23a697.53,697.53,0,0,0-18.14-111.23c-1.05-4.22-2.14-8.56-1.47-12.86.59-3.83,2.54-7.31,4.63-10.58,10-15.55,23.94-28.21,34.42-43.44,9-13.1,15.32-27.85,21.56-42.5l24.12-56.65,6.08-11.46c14-8.94,21.23-25.28,25.65-41.25s6.84-32.73,14.51-47.41a73.51,73.51,0,0,1,34.55-32.64c11-5,23.21-7.22,33.3-13.78,3-2,6-4.59,6.85-8.13,1.43-6.11-4-11.58-9.2-15.09l-7.13-6c-4.66-8.23-13.6-13.25-18.71-21.22-5-7.75-5.75-17.34-7.41-26.4a125,125,0,0,0-9.85-30.68,35.24,35.24,0,0,1-15.43.24l-9.85-3.42a105.67,105.67,0,0,0-22.06-11.87c-3.36-1.33-6.89-2.49-10.5-2.43-5.82.1-11.55,3.37-17.22,2l-2.09,10.76a189,189,0,0,1-5.12,45.19,4.17,4.17,0,0,1-1,2.11,4.23,4.23,0,0,1-2.66.85l-34.42,2.82c-8.54.7-17.1,1.4-25.54,2.86a145.73,145.73,0,0,0-95.53,62.4,1614.1,1614.1,0,0,0-58.07-169.14l-4-11.59A239.53,239.53,0,0,0,1166,1195c-8.46-12.23-18.6-25.74-15.81-40.35.69-3.66,2.19-7.12,3.14-10.73,1.4-5.38,1.55-11,2.73-16.46,3.63-16.76,16.41-29.79,28.63-41.83l19.51-4.54a270.49,270.49,0,0,0,16.14-28.22c.66-1.34,1.31-2.93.63-4.26a17.7,17.7,0,0,0-1.41-1.75c-1.5-2.16-.14-5.15-.67-7.73l-10.39,1.53a45.16,45.16,0,0,0-28.85,3.91c-3,1.5-5.82,3.34-9,4.27-3.41,1-7,.87-10.52,1.65-4.39,1-8.35,3.35-12.14,5.78a250.6,250.6,0,0,0-32.6,24.87l-8-2.3a2.06,2.06,0,0,1-1.47-.94c-6.06-7.16-11.52-15.05-14.31-24-1.64-5.26-2.33-10.81-4.36-15.94l4.28-12.75c29.84-25.74,47.95-62.61,76.07-90.22,7.4-7.26,15.76-14.3,19.23-24.07,1.88-5.34,2.14-11.08,2.82-16.7,1.42-11.63,4.69-22.94,7.11-34.4,5-23.83,6.37-48.32,6-72.68l-6-16.53,2.71-33.07c.44-5.44.89-10.89,1.77-16.27,1.67-10.11,4.87-20,5.93-30.15l5,3.8c8.61,12.78,12.57,28.05,16.38,43l4.56,17.83c4.17,16.35,8.37,32.85,9,49.71L1275.41,758l5.27-8c.77-.92,2.26-.5,3.32,0,6.83,3.55,12.2,9.54,15.86,16.31s5.71,14.29,7,21.88l-1.59,8.3a27.1,27.1,0,0,0,6.62,21.36c3.41,3.79,7.84,6.54,11.39,10.22a30.63,30.63,0,0,1,8.41,19.14c.31,5-.59,10.32,1.47,14.91l-.28,7c4.44,10.47,12.71,18.79,21,26.54s16.8,15.09,26.59,20.64,20.93,9.16,32.16,8.6l5.31,14.85a85.23,85.23,0,0,1,14.8.6l22.3,2.2,1.34-2.86-1.05-19.86.14-7.65a11.88,11.88,0,0,0,11-11.62A20.46,20.46,0,0,0,1465,894a97.33,97.33,0,0,0-8.67-17.91l-5.8,5.69a31.58,31.58,0,0,1-3.4-14.14,9.86,9.86,0,0,0-.47-3.91,7.53,7.53,0,0,0-2.84-3,34.21,34.21,0,0,0-9.14-4.48c-3.74-1.18-7.75-1.74-11.07-3.82s-5.75-6.39-4.09-9.94a23.62,23.62,0,0,0-14.68-2.62l-7.3,3.92q-13.07-.63-26.15-.76l-9-2.17a27.08,27.08,0,0,1-4.78-6.15l-4.24-6.7a20.64,20.64,0,0,1-2.85-5.76c-.85-3.4,0-7.26-1.78-10.27l8.16-1.9c3.46-.75,7-.34,10.58-.49,7.13-.29,14.2-2.84,21.25-1.74l8.62.73a151.15,151.15,0,0,0,25.32,1.8,13.39,13.39,0,0,0,4-.47c2.24-.74,4-2.53,5.79-4a25.37,25.37,0,0,1,7.27-4.11l-2.41-5.11a92.29,92.29,0,0,0-6.62-20.84l-7.79-7.81-3-9.95a8.49,8.49,0,0,0-1.33-3c-1.78-2.23-5.49-2.4-6.87-4.9-.54-1-.64-2.19-1.4-3a4.78,4.78,0,0,0-3-1.08l-5.63-.58c-4.47-.46-8.94-.93-13.41-1.35a6,6,0,0,0-2.92.22c-3.1,1.32-2.14,6.44-4.74,8.58l-5.18,4.65a86.21,86.21,0,0,1-18-12.71,6,6,0,0,0-2.4-1.59,4.66,4.66,0,0,0-2.92.44c-8.45,3.75-9.42,16.14-17.15,21.22l-8.28-1a141.12,141.12,0,0,0-6.29-17.26c-1.3-2.77-2.77-5.45-4.1-8.2a94.66,94.66,0,0,1-7.78-23.15L1307,703.26c-19.92-43-40.71-87.2-75.79-119l2.71-10.63c9.81-6.82,16.69-17.47,19.78-29s2.52-23.91-.71-35.41c-1.69-6-4-12.64-1-18.07,1.77-3.19,5.2-5.41,6.24-8.91l6-6.08a138.29,138.29,0,0,1,29.84-16.76l5.17-3.8c2.58-1.11,5.67.41,7.27,2.71s2,5.18,2.46,7.95l2.9,19.48c1.41,9.43,2.81,18.86,4.89,28.17,2.36,10.55,5.57,20.89,8.78,31.21q11.52,37.08,23.05,74.14a9.63,9.63,0,0,1,.64,3.88c-.17,1.53-1,2.87-1.61,4.29a11.16,11.16,0,0,0,.08,8.29l-.92,7.47a55.25,55.25,0,0,0,5,19.59c2.16,4.65,5.45,9.36,10.43,10.62,1.64.42,3.41.45,4.88,1.28,2.08,1.18,3,3.63,3.79,5.89,3.73,10.84,7.51,22.05,6.68,33.49l-4.55.38c-1.82,4.24,0,9.34,3.24,12.64s7.58,5.21,11.82,7l10.05,4.31c3.28,1.4,6.8,2.84,10.31,2.22a5,5,0,0,0,2.25-.93c1.09-.9,1.47-2.38,2-3.69a13.05,13.05,0,0,1,6.79-6.9l-2.2-6.21a77.72,77.72,0,0,0-12.22-22.62l-8.72-6a89,89,0,0,1-12.27-36.66c-.68-6.51-.64-13.13-2.14-19.5l-7.44-17.5c-2.78-2.67-4.32-6.36-5.69-10-8-21-13-43.09-17.95-65L1344.4,517c-.89-4-1.79-7.92-2.65-11.89q-5-23.16-8.41-46.63c-.8-5.55-1.19-12.09,3-15.83l12.69-7.2c18.57-9.45,29.16-30.35,31.54-51.05s-2.17-41.53-7-61.8-10-40.85-8.91-61.66c.16-3,.5-6.09,2.19-8.55,3.89-5.65,12.22-4.92,19.07-4.44,40.68,2.85,80.62-30.08,85.57-70.56s-25.87-82.07-66-89.1c-17.58-3.08-37,.31-50.2,12.32a121.27,121.27,0,0,0-149.36-79.13c-12.25,3.57-24.11,9.21-33.48,17.88-15.93,14.75-23.21,37-24.2,58.68s3.64,43.19,8.24,64.4c-41.84-2.16-83.67,24.28-99.66,63-2.71-9.28-6-19.38-14.24-24.46s-19.55-3.31-27.52,2.31-13.14,14.39-17,23.34c-9.94,22.9-12.81,48.3-12.63,73.27.1,14.41,1.26,29.19,7.32,42.26,11.79,25.47,39.19,39.27,64.88,50.57l-2.51,4.49c-17.07-1.33-32.41,10.05-44.51,22.15s-23.49,26-39.44,32.22c-16.69,6.49-35.33,3.37-53.23,4-25.16.83-49.37,9.14-73.46,16.44-3.43,1-7,2.07-10.52,1.69-7-.74-12.28-6.64-16.77-12.12l-25.86-31.62,6-14.11c22.41-32,27.55-73.76,21-112.26S794.34,229.24,775,195.32c21.4,3.49,45.87,6.19,62.39-7.84,6.39-5.42,11.19-13.13,19-16.17,7-2.74,15.16-1.12,22.16-3.88,9-3.54,14-13.83,13.64-23.46s-5.06-18.62-10.79-26.37c-25-33.87-69.21-48.84-111.31-49.83-10-.24-20.11.23-29.58,3.34-32.65,10.74-47.82,50.16-44.53,84.37S716,220.86,728.26,253a378.59,378.59,0,0,1,22.34,92.2c1.51,13.45,1.73,28.71-7.56,38.56L637.61,281.6c-5.31-5.14-10.71-10.4-14.18-16.93-4.33-8.17-5.29-17.62-7-26.7-5.58-29.83-21.6-59.48-48.75-73s-65.75-5.05-78.34,22.55c-19.31-8.71-39.4-18-52.43-34.73C418.43,129,417.77,95,399.25,71.3c-16-20.51-43.23-29.73-69.27-30s-51.46,7.13-76.42,14.52c-7.84,2.33-16.79,5.68-19.3,13.47s3,16,9.56,20.8,14.49,7.84,20.37,13.49c-16,13.17-28.85,29.69-41.25,46.3-7.09,9.5-14.24,19.41-17,30.94s-.12,25.17,9.42,32.2c4.63,3.4,10.33,4.94,15.88,6.4,37.33,9.85,78,19.5,113.5,4.34,12-5.14,25.42-13.1,37.2-7.37,10.87,5.29,13.68,20.43,9.19,31.67S377,267.45,367.63,275.15s-19,15.88-23.54,27.1c-4.73,11.75-3.06,25-.84,37.46s4.92,25.31,2,37.64-13.27,24-25.92,23.6L303.93,414a58.43,58.43,0,0,0,.13,85.7c-24.09-3.08-47.2,8.7-69.6,18.07-3,1.24-6.09,2.47-9.31,2.28s-6.25-1.82-9-3.56c-13.8-8.69-25.31-21.2-40.42-27.34-20.28-8.25-43.31-3.65-64.37,2.32a545,545,0,0,0-75.95,27.77c-2.81,1.28-5.76,2.69-7.46,5.27a13,13,0,0,0-1.74,7.3c.09,10.6,6.3,20.45,14.54,27.11s18.36,10.54,28.49,13.65a243.49,243.49,0,0,0,73.32,10.71c5,0,11.89,1.48,11.71,6.51a8.35,8.35,0,0,1-1.87,4.35c-6.64,9.38-16.68,15.68-25,23.59a85.29,85.29,0,0,0-25.78,51.56c-2.16,18.58,1.47,39.09-8.82,54.71-3.07,4.66-7.22,8.54-10.12,13.31-8.58,14.11-3.24,34.54,10.65,43.48,3.54,2.28,7.65,4,10,7.51,2.26,3.32,2.48,7.56,2.94,11.54,4.22,36.43,37.81,67.13,74.48,68.08l13.93-1.66c22.85,6.2,47.58-12.72,52.05-36,1.75-9.1,1-18.49,2.12-27.69s4.49-18.84,12.18-24c9-6,20.86-4.31,31.49-2.35l27.35,5.05c2.62.48,5.37,1,7.4,2.76,2.37,2,3.25,5.26,4,8.28,2.44,9.7,4.89,19.67,3.65,29.58-1.75,13.88-10.63,26.62-9.71,40.57,1,15.14,14.27,27.71,29.14,30.73s30.52-2.19,42.78-11.11c8.38-6.09,19.14-14.23,27.7-8.41,5.29,3.59,6.35,10.79,7.26,17.11,1.42,9.87,3.71,19.84,9,28.28s14.05,15.22,24,16c3.11.25,6.48,0,9.09,1.69s3.7,5,5,7.84c5.33,11.42,16.71,18.57,27.53,25,10.62,6.33,21.7,12.75,34,14.1,26.8,2.94,52.25-18.73,78.82-14.11l9.68-5.29c7.16-2.28,15-3.33,22.17-1.14s13.55,8.15,14.54,15.6a60,60,0,0,1,48.48,19.89c3.87,4.4,7.11,9.4,11.49,13.3l2.33-.73c-2.59,25.14-2.19,50.75,3.31,75.42s16.23,48.4,32.78,67.5c12.94,14.93,29.13,26.78,42,41.76s22.5,34.81,18.38,54.12c-2,9.23-6.89,17.51-10.61,26.19A105.86,105.86,0,0,0,807,1335l.47,1.11c4.39-1.93,7.45-6,9.56-10.35s3.48-9,5.67-13.21a76.27,76.27,0,0,1,4.9-7.89c2.89-4.25,5.81-8.54,9.6-12,12.77-11.67,32.49-11.68,47.1-21,3-1.9,5.78-4.2,9-5.79s7-2.46,10.32-1.27l1.17,5.86a72.63,72.63,0,0,1-8.35,25.3l-4,5.25c-5.39,8.78-10.67,17.63-16,26.47l-4.28,7.19-6.47,12.35c-3,3.64-8,5-11.62,8a30.61,30.61,0,0,0-3.63,3.92l-10.67,13a8.44,8.44,0,0,0-1.7,2.7l-3.89,3.56a29.3,29.3,0,0,0-14.23,8.79,58.37,58.37,0,0,0-7.22,11.2c-1.85,3.42-3.76,7.11-3.36,11l9.55,8.27c2.78,2.43,5.65,4.92,9.15,6.11a25,25,0,0,0,8.19,1,21.69,21.69,0,0,0,8.67-1.27c4.93-2.11,8.42-7.48,13.76-8l7.31-9.52c1.31-9.56,3.38-20.34,11.53-25.5,1.53-1,3.27-1.74,4.32-3.21,2.75-3.85-1-9.2-.08-13.85.53-2.81,2.66-5,4.68-7a88,88,0,0,0,11.14-12.88c1.6-2.39,3-4.93,4.35-7.46l24.58-45.25c.86-1.59,1.69-3.67.54-5.06l.55-5.92a32.23,32.23,0,0,1,1.75-20.88c1.45-3.28,3.47-6.35,4.28-9.84,1.76-7.56-2.44-15.2-2.77-23-.33-8,3.46-15.57,8.23-22s10.58-12,15.24-18.43c7.48-10.37,12-23.05,21.56-31.55a37.57,37.57,0,0,1,19.42-9.06l8.93-7.07a23.79,23.79,0,0,0,9.25-18.94,10.13,10.13,0,0,1,.28-3.52,8.21,8.21,0,0,1,1.77-2.61l13-14.75c.6-.68,1.35-1.42,2.25-1.29a2.61,2.61,0,0,1,1.12.55,20.32,20.32,0,0,1,7.73,11.48l3.27,3a6.87,6.87,0,0,0,5.56-1.52,20.9,20.9,0,0,0,3.91-4.47l4.61-6.45c3.13-4.38,6.42-9.42,5.41-14.7a36.67,36.67,0,0,1-1-4.22,3.63,3.63,0,0,1,1.76-3.65l7.35-3.31c7.09,8.09,9.67,19.37,16.72,27.5a53.52,53.52,0,0,0-19.84,24.38,6.46,6.46,0,0,0-.64,2.87,5.79,5.79,0,0,0,.68,2.08c5,10.15,17.41,14.83,22.94,24.71l4.65,5.35,5.74,4a38.3,38.3,0,0,1,6.67,5.49,65.43,65.43,0,0,1,4.75,6.75c3.11,4.53,7.18,8.78,8,14.21l-2.83,7.9v12.65l.47,9.36c6.74,24.93,14.87,49.46,23,74l20.08,60.6,18.2,54.9,18.41,55.55c.7,2.12,1.39,4.53.32,6.49-.9,1.64-2.75,2.46-4.51,3.09a64.83,64.83,0,0,1-16.74,3.6,9.07,9.07,0,0,1-5.22-.68c-1.85-1-2.82-3.09-3.63-5-9.58-23.13-12.65-48.5-21.63-71.86-4.61-12-10.73-23.31-17.06-34.46a902.65,902.65,0,0,0-64.41-98c-8.77-11.62-19.1-23.83-33.42-26.45l-8.39.49a18.91,18.91,0,0,0-18.59,2.5,8.27,8.27,0,0,1-3.4,2.05,7.81,7.81,0,0,1-3-.27c-6.26-1.28-13.46-.08-17.68,4.73-2.51,2.87-3.71,6.67-6.09,9.66-1.69,2.12-4,3.87-4.93,6.42s.61,6.24,3.31,6a6.58,6.58,0,0,0,3.25,7.36l-1.74,8.35a30.05,30.05,0,0,1-12.44,15.93c-2,1.26-5.41,1.77-6-.5a4.18,4.18,0,0,1,.15-2c2-8.11,4.14-16.27,4.25-24.62s-2.05-17.05-7.69-23.2c-7.71,5.26-11.42,14.85-12.25,24.14s.76,18.6,1.38,27.9a2.94,2.94,0,0,1-.33,2,3.06,3.06,0,0,1-1.28.86L929.23,1315l3.61,11.29-4.84,1.92a27.15,27.15,0,0,1,12.46,5.38l-7.56,11a72.06,72.06,0,0,0-12,30.49l-3.89,5.06c-4.44,1.77-7,6.34-9.2,10.59-8.65,16.7-17.28,34.2-17.83,53l4.82,5.08,15.55-.27a5.82,5.82,0,0,1,6.47,3.74c3.45,5.73,6.95,11.59,8.37,18.12s.41,14-4.23,18.79c-1.9,2-4.39,3.5-5.59,6-2,4.14.33,9,2.64,13,1.63,2.81,3.79,6,7,6.11,3.42.14,6.53-3.27,9.8-2.28s3.79,5.36,3.69,8.8q-.86,28,.51,56.06l-3.35,4.52-40.16-9.57-13.83-9.34q-9-.45-18-.17l-7.14-.51c-3.64.24-6.27,3.68-7.38,7.14s-1.21,7.21-2.47,10.62c-.76,2.07-2,4.22-1.33,6.33l9.65,1.13c12.24-.4,24.41,5.36,36.42,3l7.7.53c4.68.25,9.37.51,14,1.16a82.53,82.53,0,0,1,27.39,8.92l-.12,2.87q-15.5,18.45-30.5,37.3L894.4,1647a68.28,68.28,0,0,1-26.19,25.73c-3,1.66-6.21,3.11-8.82,5.37a42.22,42.22,0,0,0-5.92,7.06,124.8,124.8,0,0,1-23.05,23.72l-4.13,11-17.67,35.72c-6.06,12.25-12.19,24.71-14.58,38.17a101.09,101.09,0,0,0-1.28,19.59,172.12,172.12,0,0,0,5.54,39.93c1.3,5,2.81,9.86,3.65,14.91,1.33,8,1,16.14.87,24.24a378.06,378.06,0,0,0,5.66,70.21l2.32,9.89a32.68,32.68,0,0,0,9.72,9.38c4,2.52,8.79,4.3,11.58,8.15a33.16,33.16,0,0,1,2.49,4.53,41.53,41.53,0,0,0,12.81,14.86l-3,6.37a66.2,66.2,0,0,1,11.68,17.11l8.61,9.22q12.07,14.55,24.13,29.11c2.27,2.74,4.69,6.16,3.59,9.54-1.17,3.6-5.53,4.85-9.26,5.47q-8.37,1.38-16.83,2.15c-6.57.59-13.25.92-19.48,3.1-10.77,3.76-18.9,12.53-26.57,21-5,5.55-10.16,11.28-12.83,18.27a30.67,30.67,0,0,0,1.79,25.4,6.17,6.17,0,0,0,3.08,3.14,7.05,7.05,0,0,0,3.67-.12c27.22-5.53,55.84,2.6,83-3a84.46,84.46,0,0,0,51.45-33.78c3-4.31,5.64-8.89,8.4-13.37a231.87,231.87,0,0,1,34.79-43.67l-.35-9.9c4-13,17.34-20.26,26.7-30.11,19.44-20.43,21.24-51.46,32.36-77.37,7.23-16.87,18.86-32.81,19-51.16.06-7.75-2-15.35-3-23-1.6-12.82-.17-25.8,1.27-38.63l-2.17-4.11c-1.84-16-8.6-31.09-17.4-44.56s-19.6-25.49-30.36-37.45c-12.42-13.79-25.13-27.83-41.27-37-9.94-5.63-21-9.25-30.65-15.27s-18.37-15.35-19.46-26.72c-1-10.32,4.32-20.08,9.47-29.08,5.37-9.37,11.24-19.24,20.85-24.18Z"></path>
    <path data-name="1a" data-official="" data-plain="Root" data-loc="" d="M772.47,2417a428.69,428.69,0,0,0,24.3-118.86c.56-9.37,1-19.3,6.15-27.13l9.52-9.65a57.52,57.52,0,0,0,5.67-22.31c.37-8-.91-16.29,1.7-23.86a24.82,24.82,0,0,1,21.48-16.26l8.47,2.93c26.71-2.64,51.19,13.72,73,29.33,14.61,10.44,29.52,21.18,39.73,36,3.15,4.56,5.91,9.56,10.29,13s11.09,4.63,15.34,1.07a8.65,8.65,0,0,0,1.43-1.53c1.26-1.7,1.87-3.79,2.77-5.71,3.28-7,10.31-11.43,17.39-14.51,16.33-7.12,34.44-9,52.25-9.48,27.78-.74,57.23,2.33,79.68,18.72,11.08,8.09,19.83,19,27,30.74,2.74,4.46,5.32,9.13,9.21,12.64s9.45,5.67,14.42,4l11.09-5.82,10.47,6.1c5.35,2.82,10.81,5.73,14.87,10.21,1.65,1.81,3,3.86,4.67,5.68,5.7,6.37,14.36,9.76,22.9,9.69a21,21,0,0,1,5.5.28,15,15,0,0,1,3.55,1.57c9.11,5,17.64,11,26.16,17l25.84,18.16c3.59,2.52,7.51,5.59,7.9,9.95l15.22,30c12.34,22.35,11.46,49.36,10.25,74.87l-1.24,26.25-9.65,10.89-9.27,0a245.59,245.59,0,0,1-82.45-22.9,276.45,276.45,0,0,1,19.22,48.75c4.08,14.14,6.4,31.17-3.54,42-4.24,4.64-10.16,7.37-16.06,9.55a131.7,131.7,0,0,1-52.91,8c-3.51-.2-7.32-.68-9.79-3.18-2-2-2.66-4.86-2.85-7.63-.78-11.46,6-21.92,9.13-33a55.2,55.2,0,0,0-11.5-50.87c-11.56-13.06-28.56-19.73-45.06-25.38-54-18.49-110.51-31.1-167.59-31a7.77,7.77,0,0,0-4.3.85c-2.24,1.46-2.36,4.89-1,7.19s3.73,3.79,6,5.27c10.35,6.89,19.52,16,24.56,27.4s5.47,25.13-.65,35.95c-8.66,15.32-29,21.51-46,17s-30.65-17.73-39.47-33-13.49-32.45-18-49.44l-3.35-7.53-6-19.22c-.76-2.43-1.63-5-3.66-6.52a11.78,11.78,0,0,0-5.66-1.76A175.22,175.22,0,0,0,843,2440c-1.62,0-3.43.19-4.5,1.4s-1,2.89-1,4.45q1.76,36.11,3.5,72.22c.14,2.9.16,6.15-1.83,8.26a10.69,10.69,0,0,1-4.82,2.48c-9.81,3-20.89,5.45-30,.66-11-5.79-14.6-19.56-16.62-31.82a497.2,497.2,0,0,1-6-57Zm-40.21-9.12a624.38,624.38,0,0,0,30.21-128.06c.72-5.73.58-13-4.64-15.45l-8.11-4.82a134.84,134.84,0,0,0-83.56-11.78c-3.4.62-6.94,1.45-9.53,3.75-4,3.58-4.56,9.57-4.77,15a618.91,618.91,0,0,0,3.29,90.81c1,9,2.44,18.59,8.37,25.46,3.58,4.15,8.49,6.91,13.39,9.38a195.92,195.92,0,0,0,43.36,15.72Z"></path>
    <path data-name="1b" data-official="" data-plain="Section of Fruit" data-loc="" d="M1645,2495.77c-4.36-38.32,20.7-75.17,53.07-96.12s71.1-29.17,108.86-37c20.5-4.26,41.34-8.53,62.22-6.91,22.56,1.75,44,10.3,64.79,19.23,13.07,5.61,26.39,11.64,36.38,21.76,7.5,7.59,12.71,17.09,17.83,26.45,9.18,16.8,18.44,33.81,23.3,52.33,5.13,19.58,5.15,40.12,4.28,60.34-1.19,27.62-4,55.48-13.17,81.58s-25.09,50.5-48.19,65.69c-11.86,7.8-25.23,13-38.48,18.07l-37.48,14.46c-8.79,3.39-18.68,7.95-21.14,17-1.67,6.17.28,13.91-4.44,18.22-2.52,2.29-6.17,2.73-9.56,3.06-12.85,1.25-26,2.49-38.56-.41s-24.76-10.71-29.48-22.73c-1.61-4.1-2.36-8.64-5-12.16-3.84-5.09-10.59-6.76-16.72-8.5A148.49,148.49,0,0,1,1646.26,2554l-1.77-9.22c5.75-.31,11.42.22,16.42,2.92,2.91,1.57,6.89,3.68,9,1.14a4.25,4.25,0,0,0,.76-1.46c1.72-5.31-2.75-10.43-6.8-14.27q-10.77-10.24-21.06-21Z"></path>
    <path data-name="1c" data-official="" data-plain="Seed" data-loc="" d="M1436.86,2676.35c-13.68-13-14.28-31.41-17.14-50.07s-1.31-37.68,1-56.41c.87-7,1.88-14.19,4.69-20.71,4.3-10,12.45-17.73,20.72-24.77,14.67-12.49,33.09-24.32,51.91-20.21,13,2.84,23.11,12.7,32.06,22.51,9.19,10.07,18.1,20.79,23.14,33.46,5.46,13.73,6,28.86,6.27,43.63.3,18.77,0,38.42-8.85,55-11,20.6-34,34.32-39.78,56.94-1.63,6.4-1.74,13.21-4.26,19.33-6.28,15.24-24.94,21-41.41,21.77-10.45.49-22.38-1-28.59-9.41-5.52-7.49-4.54-17.86-2.3-26.89s5.51-18.28,3.73-27.41Z"></path>
    <path data-name="2" data-official="Fagræa littoralis" data-plain="Indian Fagræa" data-loc="E. Indies" d="M1115.32,1081.12l-8-2.3a2.06,2.06,0,0,1-1.47-.94c-6.06-7.16-11.52-15.05-14.31-24-1.64-5.26-2.33-10.81-4.36-15.94l4.28-12.75c29.84-25.74,47.95-62.61,76.07-90.22,7.4-7.26,15.76-14.3,19.23-24.07,1.88-5.34,2.14-11.08,2.82-16.7,1.42-11.63,4.69-22.94,7.11-34.4,5-23.83,6.37-48.32,6-72.68l-6-16.53,2.71-33.07c.44-5.44.89-10.89,1.77-16.27,1.67-10.11,4.87-20,5.93-30.15l5,3.8c8.61,12.78,12.57,28.05,16.38,43l4.56,17.83c4.17,16.35,8.37,32.85,9,49.71L1275.41,758l5.27-8c.77-.92,2.26-.5,3.32,0,6.83,3.55,12.2,9.54,15.86,16.31s5.71,14.29,7,21.88l-1.59,8.3-6,7a232.09,232.09,0,0,0-22,35.89c4.18.14,7.9-2.4,11.48-4.57a78.37,78.37,0,0,1,14.76-7l8.4-10c3.41,3.79,7.84,6.54,11.39,10.22a30.63,30.63,0,0,1,8.41,19.14l-5.57,6.88c-23.59,9-39.2,35.61-64.29,38.18-2.07.21-4.22.26-6.07,1.21-2,1-3.41,3-4.63,5-5.25,8.36-9.35,17.38-14.28,25.93-17.37,30.15-44.47,53.59-63.15,82.94-5.89,9.25-11,19.13-18.4,27.19-5.57,6-12.52,11.18-15.84,18.69ZM910,1640.78q15-18.84,30.5-37.3l.12-2.87a82.53,82.53,0,0,0-27.39-8.92c-4.64-.65-9.33-.91-14-1.16l.54,7.71a58.64,58.64,0,0,1,7.09,34.84Zm94.7-402.78a187.28,187.28,0,0,0,25.08-37.81c3.37-6.75,6.79-14.19,13.49-17.67,8.21,9,20.18,13.73,32.2,15.48s24.26.71,36.36-.32l5.63,1.18,2.83-7.9c-.82-5.43-4.89-9.68-8-14.21a65.43,65.43,0,0,0-4.75-6.75,38.3,38.3,0,0,0-6.67-5.49l-5.74-4-4.65-5.35c-5.53-9.88-17.93-14.56-22.94-24.71a5.79,5.79,0,0,1-.68-2.08,6.46,6.46,0,0,1,.64-2.87,53.52,53.52,0,0,1,19.84-24.38c-7-8.13-9.63-19.41-16.72-27.5l-7.35,3.31a3.63,3.63,0,0,0-1.76,3.65,36.67,36.67,0,0,0,1,4.22c1,5.28-2.28,10.32-5.41,14.7l-4.61,6.45a20.9,20.9,0,0,1-3.91,4.47,6.87,6.87,0,0,1-5.56,1.52l-3.27-3a20.32,20.32,0,0,0-7.73-11.48,2.61,2.61,0,0,0-1.12-.55c-.9-.13-1.65.61-2.25,1.29l-13,14.75a8.21,8.21,0,0,0-1.77,2.61,10.13,10.13,0,0,0-.28,3.52,23.79,23.79,0,0,1-9.25,18.94l-8.93,7.07-1.11,8.31c-1.8,13.39-13.4,22.92-20.76,34.24-5.09,7.85-8.23,16.79-12.6,25.06-5.56,10.51-13.06,19.85-20.51,29.11l-6.7,7.24c-.81,3.49-2.83,6.56-4.28,9.84a32.23,32.23,0,0,0-1.75,20.88l-.55,5.92c1.15,1.39.32,3.47-.54,5.06l-24.58,45.25c-1.37,2.53-2.75,5.07-4.35,7.46a88,88,0,0,1-11.14,12.88c-2,2-4.15,4.22-4.68,7-.87,4.65,2.83,10,.08,13.85-1.05,1.47-2.79,2.24-4.32,3.21-8.15,5.16-10.22,15.94-11.53,25.5l-7.31,9.52-6.52,10.24a147.3,147.3,0,0,1-15.58,36.58,273.06,273.06,0,0,1-20.47-39.31l-6.75-13.66c-.4-3.87,1.51-7.56,3.36-11a58.37,58.37,0,0,1,7.22-11.2,29.3,29.3,0,0,1,14.23-8.79l3.89-3.56a8.44,8.44,0,0,1,1.7-2.7l10.67-13a30.61,30.61,0,0,1,3.63-3.92c3.6-3.06,8.6-4.37,11.62-8l6.47-12.35,4.28-7.19c5.28-8.84,10.56-17.69,16-26.47l4-5.25a72.63,72.63,0,0,0,8.35-25.3l-1.17-5.86c-3.36-1.19-7.13-.33-10.32,1.27s-6,3.89-9,5.79c-14.61,9.27-34.33,9.28-47.1,21-3.79,3.46-6.71,7.75-9.6,12a76.27,76.27,0,0,0-4.9,7.89c-2.19,4.26-3.56,8.91-5.67,13.21s-5.17,8.42-9.56,10.35L807,1335a105.86,105.86,0,0,1,7.08-58.7c3.72-8.68,8.64-17,10.61-26.19,4.12-19.31-5.5-39.14-18.38-54.12s-29.07-26.83-42-41.76c-16.55-19.1-27.29-42.84-32.78-67.5s-5.9-50.28-3.31-75.42l-2.33.73c-4.38-3.9-7.62-8.9-11.49-13.3a60,60,0,0,0-48.48-19.89c-1-7.45-7.35-13.42-14.54-15.6s-15-1.14-22.17,1.14l-9.68,5.29-7.81,8.65c-6.66,7-13,14.53-17.22,23.25-3.66,7.58-5.6,15.86-7.51,24.06-2.12,9.08-4.24,18.17-5.64,27.38-.88,5.82-1.49,11.75-3.62,17.24-3.73,9.64-11.7,16.93-17.24,25.65-13.5,21.25-11.82,49.57-25.57,70.66l-2.16,9.14c-5.16,12.21-1.15,26.5,5.62,37.9s16.11,21.1,22.86,32.52a84.76,84.76,0,0,1,11.21,33.38c1.18,10.29.46,20.7,1.17,31,2.22,32,18.53,62.23,42,84s53.79,35.6,85.18,42.23c22,4.63,44.71,6,66,13.11,8.45,2.84,17.86,8.3,18.29,17.2l10.49,7a48.18,48.18,0,0,0,14.14,4.47c1.66.26,3.45.48,4.7,1.61a7.56,7.56,0,0,1,1.56,2.29,146.48,146.48,0,0,1,10.41,26.32l1.45,1.53a27.39,27.39,0,0,1-4.09,5.53c-1.17,1.2-2.59,2.61-2.26,4.26s2.32,2.43,4,2.87l1.12,1c-13,29.06-16.25,61.41-24.65,92.12a53.11,53.11,0,0,1-2.65,7.9,78.19,78.19,0,0,1-4.57,8,116,116,0,0,0-15.22,41l-7,20.25a551.51,551.51,0,0,0-5.37,83.51l1.24,15.67a24.61,24.61,0,0,0,5.45,16.49,7.49,7.49,0,0,1,1.5,2.26,6.67,6.67,0,0,1,.15,2.78l-1.82,20.47a8.5,8.5,0,0,1-.69,3.16c-.69,1.36-2,2.23-3.16,3.26a12.7,12.7,0,0,0-3.84,6.7l-5.86,18.94q0,52.25.08,104.49c0,7.12-.09,14.66-3.81,20.74a8.31,8.31,0,0,1-3.8,3.62,10.18,10.18,0,0,1-5.29.17,113.41,113.41,0,0,1-26-7.31l-8.84,5.42a100.87,100.87,0,0,1-12.65,22.18l6,10.24a115.91,115.91,0,0,0,31.9,24.16c3.86,2,8,3.88,10.62,7.35,3.38,4.47,3.49,10.53,3.47,16.14L751,2247.93l-1.25,11.57,8.11,4.82c5.22,2.46,5.36,9.72,4.64,15.45a624.38,624.38,0,0,1-30.21,128.06l-12,0-6.17,9.46-21.86,43.63c-3.77,7.51-7.57,15.09-12.83,21.65-9.27,11.54-22.42,19.17-33.65,28.81s-21.15,23-20,37.78a7.54,7.54,0,0,0,1.73,4.84,7.18,7.18,0,0,0,3.23,1.63c8.6,2.33,17.66-.78,25.85-4.28s16.63-7.51,25.53-7,18.15,7.56,17.44,16.44c-.16,2-.82,4-.65,6,.28,3.41,2.87,6.2,5.74,8.07,10.5,6.84,24.55,4.22,36.06-.74,2.39-1,4.83-2.21,6.45-4.25,2-2.58,2.44-6.09,2.55-9.39.55-16.71-3.94-33.61-.72-50,1.47-7.51,4.51-14.62,7.59-21.62q9.74-22.15,20.25-44l5-4.19L772.47,2417a428.69,428.69,0,0,0,24.3-118.86c.56-9.37,1-19.3,6.15-27.13l6.18-15.17q.89-41.36,3-82.68l.22-13.79a6.17,6.17,0,0,1-3.08-3.14,30.67,30.67,0,0,1-1.79-25.4l4.47-25.75.06-52.49a7.9,7.9,0,0,1,.45-3.18,8,8,0,0,1,2.54-2.81A119.9,119.9,0,0,0,839,2020l5.4-4.21,3-6.37a41.53,41.53,0,0,1-12.81-14.86,33.16,33.16,0,0,0-2.49-4.53c-2.79-3.85-7.54-5.63-11.58-8.15a32.68,32.68,0,0,1-9.72-9.38l-2.32-9.89a378.06,378.06,0,0,1-5.66-70.21c.1-8.1.46-16.26-.87-24.24-.84-5-2.35-10-3.65-14.91a172.12,172.12,0,0,1-5.54-39.93,101.09,101.09,0,0,1,1.28-19.59c2.39-13.46,8.52-25.92,14.58-38.17l17.67-35.72,4.13-11,3-12.24q6.24-52.39,17.49-104l4.17-5.65-9.65-1.13c-.62-2.11.57-4.26,1.33-6.33,1.26-3.41,1.36-7.15,2.47-10.62s3.74-6.9,7.38-7.14l3.44-4.52,5.08-14.37a.78.78,0,0,1,.35-.49.76.76,0,0,1,.51,0,29.21,29.21,0,0,1,16.63,14.29l-.86,5.72,13.83,9.34,40.16,9.57,3.35-4.52L932.37,1559c-4-12.81-8-25.83-15.44-37a70.5,70.5,0,0,0-32.84-26.43,5.13,5.13,0,0,1-2.77-1.85A4.76,4.76,0,0,1,881,1491a102.4,102.4,0,0,1,9.75-36.76l4.12-5.42-4.82-5.08c.55-18.8,9.18-36.3,17.83-53,2.2-4.25,4.76-8.82,9.2-10.59l3.89-5.06a72.06,72.06,0,0,1,12-30.49l7.56-11a27.15,27.15,0,0,0-12.46-5.38l4.84-1.92L929.23,1315l10.56-4.63a3.06,3.06,0,0,0,1.28-.86,2.94,2.94,0,0,0,.33-2c-.62-9.3-2.21-18.61-1.38-27.9s4.54-18.88,12.25-24.14c5.64,6.15,7.8,14.86,7.69,23.2s-2.26,16.51-4.25,24.62a4.18,4.18,0,0,0-.15,2c.62,2.27,4,1.76,6,.5A30.05,30.05,0,0,0,974,1289.87l1.74-8.35a6.58,6.58,0,0,1-3.25-7.36c-2.7.29-4.25-3.4-3.31-6s3.24-4.3,4.93-6.42c2.38-3,3.58-6.79,6.09-9.66,4.22-4.81,11.42-6,17.68-4.73a7.81,7.81,0,0,0,3,.27Zm490.09,984.71c-23.19-40.92-29.49-89.29-29.87-136.32-.22-25.75,1.27-51.89,9.45-76.31,1.25-3.73,2.67-7.49,2.66-11.42a32.26,32.26,0,0,0-1.64-8.66l-7.35-25.72-3.22-7.65a52.49,52.49,0,0,0-13.74-21.54l-11.55,1.72c-.31-2.17-1.9-3.9-3.42-5.49q-10.08-10.53-20.17-21.07c-4.82-5-10-11.15-9-18l-6.51-11.65a211.6,211.6,0,0,0-28.61-16.49l-4.23-2.66-4.72,9.23-58.22-19.53c-3.6-1.21-7.26-2.45-10.37-4.62s-5.67-5.46-6-9.24l-5.93-13.21-5.49-4.54c-9.73-4.87-16.84-13.64-23.54-22.21-11.21-14.34-22.3-29.12-28.85-46.1l-1.43-7.44-10.59-11.66c-.47-4.3-2.36-8.3-4.32-12.15a241.9,241.9,0,0,0-27.83-42.86l-6-3.87a537.41,537.41,0,0,0-56.35-28c-17.37-7.41-35.2-14-51.46-23.55l-3.36,1.78c-2.67,1.71-5.46,3.47-8.61,3.82a22.25,22.25,0,0,1-7-.76,162.34,162.34,0,0,0-55.39-2l-33.37-7.65c-9.61,4.94-15.48,14.81-20.85,24.18-5.15,9-10.47,18.76-9.47,29.08,1.09,11.37,9.76,20.69,19.46,26.72s20.71,9.64,30.65,15.27c16.14,9.13,28.85,23.17,41.27,37,10.76,12,21.57,24,30.36,37.45s15.56,28.57,17.4,44.56l2.17,4.11c-1.44,12.83-2.87,25.81-1.27,38.63,1,7.7,3,15.3,3,23-.12,18.35-11.75,34.29-19,51.16-11.12,25.91-12.92,56.94-32.36,77.37-9.36,9.85-22.7,17.13-26.7,30.11l.35,9.9-2,12.34c6.74,26.45,26.77,47.12,46,66.46q22.35,22.44,44.71,44.89c9.73,9.79,20.06,19.92,33.29,23.83l12.81.09,12.35-1.74c10.56,5.07,22.65,5.43,34.31,6.52s23.94,3.34,32.66,11.15l4.72,2.75a199,199,0,0,0,50.88-2.47c.77-.13,1.76-.55,1.66-1.33l6.25-10.87q19.59-4,39.47-6.3c3.17-.37,6.68-.63,9.27,1.23,1.38,1,2.56,2.58,4.26,2.62l6.23-4.69c13.6-3.05,26.3,9.35,40.24,9.11,6.9-.12,14-3.35,20.46-1l.51,4.4,7.49-.08,36.77.2a146.28,146.28,0,0,1,17.52.81c9.26,1.18,18.19,4.14,27,7.09Zm-104-1289.78c-68.1-.71-135.35,36.79-170.52,95.11l-1.44,11.07c.53,2.58-.83,5.57.67,7.73a17.7,17.7,0,0,1,1.41,1.75c.68,1.33,0,2.92-.63,4.26a270.49,270.49,0,0,1-16.14,28.22l-19.51,4.54c-12.22,12-25,25.07-28.63,41.83-1.18,5.44-1.33,11.08-2.73,16.46-1,3.61-2.45,7.07-3.14,10.73-2.79,14.61,7.35,28.12,15.81,40.35a239.53,239.53,0,0,1,31.93,65.94l8.61.21c7.37,2.29,13.69,7,19.85,11.66l28.91,21.8c5.37,4.05,10.78,8.12,16.75,11.23,20.94,10.9,46,8.77,69.46,6s48.19-5.86,69.84,3.55l15-.67c5.67,1.34,11.4-1.93,17.22-2,3.61-.06,7.14,1.1,10.5,2.43a105.67,105.67,0,0,1,22.06,11.87l9.85,3.42a35.24,35.24,0,0,0,15.43-.24,125,125,0,0,1,9.85,30.68c1.66,9.06,2.45,18.65,7.41,26.4,5.11,8,14,13,18.71,21.22l7.13,6c5.22,3.51,10.63,9,9.2,15.09l.15,14.25a164.53,164.53,0,0,1,32,42.39,76,76,0,0,1,6.86,16.93c1.85,7.45,1.93,15.2,2,22.88q.09,16.78,0,33.58c0,6.48-.11,13-1.66,19.34-2.47,10-8.68,19.91-6.08,29.9a18.16,18.16,0,0,0,11.53,12.4l10.8,2.59a22.7,22.7,0,0,1,11.53-6.77l9.15-9.34a73.34,73.34,0,0,0,18.34-12.84c4.32-4.14,8.17-8.84,13.14-12.17,5.36-3.6,11.71-5.38,17.49-8.27,27.57-13.79,37.06-49.09,61.34-68.08l15.16-13.4c23.83-14.63,50.38-24.26,74.84-37.81s47.69-32.2,58.2-58.11c1-2.58,2.12-5.42,4.52-6.83,3.36-2,7.55-.26,11.22,1,20.87,7.25,44.17-.79,65.81,3.59,11.32,2.29,21.66,7.87,32.54,11.72a110.59,110.59,0,0,0,65.82,2.32c2.58-.71,5.27-1.61,7-3.65,2.18-2.58,2.26-6.27,2.2-9.64a980.7,980.7,0,0,0-8.87-117.75l-.56-16.9q-4-36.19-10.86-72c-4.94-26-11.16-52.36-24.62-75.2-18.46-31.33-49.15-53.66-81.42-70.4-2.07-1.07-4.22-2.19-5.59-4.07a15.21,15.21,0,0,1-2.13-6A289.38,289.38,0,0,0,1860.35,884l8-4.65c29.63-.15,60-6.1,84.69-22.51,21.78-14.49,37.87-36.21,59.09-51.51a125.36,125.36,0,0,1,32.55-16.85c9.28-3.18,19.17-5.39,27.06-11.23s13.13-16.83,8.77-25.63c-3.27-6.6-10.67-9.86-17.35-13a207.67,207.67,0,0,1-70.23-53.55l9.6-13.19c17.79-4.83,24.89-25.56,31.16-42.9,1-2.75,2.17-5.65,4.6-7.28,2-1.31,4.44-1.56,6.8-1.82,10.84-1.17,22.05-3.53,30.55-10.36s13.37-19.23,8.61-29c-6.3-13-23.73-14.34-37.53-18.67-2.52-.79-5.14-1.84-6.74-4s-1.84-4.67-2.22-7.17a96.15,96.15,0,0,0-25.85-52.3l6.19-7a129.43,129.43,0,0,0,47.83-92.83c.12-2.22.21-4.53,1.25-6.49a14,14,0,0,1,4-4.24c9.09-7.17,19.93-16.42,17.55-27.74-1.28-6.08-6.37-10.78-12.07-13.23s-12-3-18.19-3.57l-7.08-3.84c-8.38-19.29-20.11-37.49-36.34-50.88s-37.28-21.62-58.25-19.91c-2.07-24.51-6.5-49.4-18.65-70.78-17.7-31.13-50.66-51.78-85.58-59.71s-71.65-4.17-106.25,5c-15.11,4-30.38,9.29-42.14,19.58l-14-.42c-32.67-3.09-65.61-6.18-98.24-2.71s-65.34,14-90.31,35.3c-7.79,6.65-14.72,14.24-21.54,21.89-11.44,12.82-22.68,25.89-32.4,40.07a237.6,237.6,0,0,0-38.22,169.6l-46.71,7.88-13.8,1-12.69,7.2c-4.17,3.74-3.78,10.28-3,15.83q3.39,23.44,8.41,46.63c.86,4,1.76,7.93,2.65,11.89l6.48,28.6c5,21.95,10,44,17.95,65,1.37,3.61,2.91,7.3,5.69,10l7.44,17.5c1.5,6.37,1.46,13,2.14,19.5a89,89,0,0,0,12.27,36.66l11.35-5c-.09-5.37,6.19-8.79,11.56-8.53s10.35,2.83,15.66,3.69,11.86-.86,13.54-6c.94-2.86.08-6,.65-9,1.63-8.37,12.76-10.36,21.22-9.26,23,3,44.4,14.91,60.63,31.48s27.51,37.6,34.42,59.74c-5.21,3.73-12.53,3.09-18.33.35s-10.53-7.24-15.57-11.2c-28.71-22.61-70.26-27.57-103.49-12.36l-8.5.89a13.05,13.05,0,0,0-6.79,6.9c-.54,1.31-.92,2.79-2,3.69a5,5,0,0,1-2.25.93c-3.51.62-7-.82-10.31-2.22l-10.05-4.31c-4.24-1.82-8.6-3.72-11.82-7s-5.06-8.4-3.24-12.64l4.55-.38c.83-11.44-2.95-22.65-6.68-33.49-.77-2.26-1.71-4.71-3.79-5.89-1.47-.83-3.24-.86-4.88-1.28-5-1.26-8.27-6-10.43-10.62a55.25,55.25,0,0,1-5-19.59l.92-7.47a11.16,11.16,0,0,1-.08-8.29c.57-1.42,1.44-2.76,1.61-4.29a9.63,9.63,0,0,0-.64-3.88q-11.52-37.07-23.05-74.14c-3.21-10.32-6.42-20.66-8.78-31.21-2.08-9.31-3.48-18.74-4.89-28.17l-2.9-19.48c-.41-2.77-.87-5.65-2.46-7.95s-4.69-3.82-7.27-2.71l-5.17,3.8a138.29,138.29,0,0,0-29.84,16.76l-6,6.08c-1,3.5-4.47,5.72-6.24,8.91-3,5.43-.7,12.1,1,18.07,3.23,11.5,3.8,23.87.71,35.41A54.27,54.27,0,0,1,1245,562.8l4.72,4.24a130.31,130.31,0,0,0,26.47,31.41c8.49,7.32,18.21,13.87,23.47,23.76,3.31,6.23,4.57,13.31,5.79,20.26q5,28.51,10,57l-6.9,15.95a94.66,94.66,0,0,0,7.78,23.15c1.33,2.75,2.8,5.43,4.1,8.2a141.12,141.12,0,0,1,6.29,17.26l8.28,1c7.73-5.08,8.7-17.47,17.15-21.22a4.66,4.66,0,0,1,2.92-.44,6,6,0,0,1,2.4,1.59,86.21,86.21,0,0,0,18,12.71l5.18-4.65c2.6-2.14,1.64-7.26,4.74-8.58a6,6,0,0,1,2.92-.22c4.47.42,8.94.89,13.41,1.35l5.63.58a4.78,4.78,0,0,1,3,1.08c.76.8.86,2,1.4,3,1.38,2.5,5.09,2.67,6.87,4.9a8.49,8.49,0,0,1,1.33,3l3,9.95,7.79,7.81a92.29,92.29,0,0,1,6.62,20.84l2.41,5.11a25.37,25.37,0,0,0-7.27,4.11c-1.84,1.48-3.55,3.27-5.79,4a13.39,13.39,0,0,1-4,.47,151.15,151.15,0,0,1-25.32-1.8l-8.62-.73c-7-1.1-14.12,1.45-21.25,1.74-3.53.15-7.12-.26-10.58.49l-8.16,1.9c1.8,3,.93,6.87,1.78,10.27a20.64,20.64,0,0,0,2.85,5.76l4.24,6.7a27.08,27.08,0,0,0,4.78,6.15l9,2.17q13.08.13,26.15.76l7.3-3.92a23.62,23.62,0,0,1,14.68,2.62c-1.66,3.55.77,7.86,4.09,9.94s7.33,2.64,11.07,3.82a34.21,34.21,0,0,1,9.14,4.48,7.53,7.53,0,0,1,2.84,3,9.86,9.86,0,0,1,.47,3.91,31.58,31.58,0,0,0,3.4,14.14l5.8-5.69A97.33,97.33,0,0,1,1465,894a20.46,20.46,0,0,1,1.52,6.59,11.88,11.88,0,0,1-11,11.62l-.14,7.65,1.05,19.86-1.34,2.86-22.3-2.2a85.23,85.23,0,0,0-14.8-.6Z"></path>
    <path data-name="3" data-official="Spigelia marilandica" data-plain="Pink-root" data-loc="N. America" d="M521.45,1224.42A763.62,763.62,0,0,0,518,1536c9.83-21.55,32.28-34.69,54.93-41.59s46.56-8.91,69.24-15.71c16.1-4.83,31.51-12.05,48-15.43,26.72-5.5,54.35-.58,81.19,4.34l13.82-.45,10.49,7a48.18,48.18,0,0,0,14.14,4.47c1.66.26,3.45.48,4.7,1.61a7.56,7.56,0,0,1,1.56,2.29,146.48,146.48,0,0,1,10.41,26.32l1.45,1.53a27.39,27.39,0,0,1-4.09,5.53c-1.17,1.2-2.59,2.61-2.26,4.26s2.32,2.43,4,2.87l1.12,1c-13,29.06-16.25,61.41-24.65,92.12a53.11,53.11,0,0,1-2.65,7.9,78.19,78.19,0,0,1-4.57,8,116,116,0,0,0-15.22,41l-16.14.5c-18.37,17.14-38.75,32.49-61.78,42.53s-48.92,14.55-73.59,9.75c-7-1.36-14.3-3.47-21.25-1.7-17,4.32-24.79,29.57-42.29,28.73l18.75,70.84a348.11,348.11,0,0,1,71.89-7.63c36.08-.06,76.15,4.32,104.36-18.16l8.88-5.43a24.61,24.61,0,0,0,5.45,16.49,7.49,7.49,0,0,1,1.5,2.26,6.67,6.67,0,0,1,.15,2.78l-1.82,20.47a8.5,8.5,0,0,1-.69,3.16c-.69,1.36-2,2.23-3.16,3.26a12.7,12.7,0,0,0-3.84,6.7l-9.9,9.3c-4.5-.17-8.69,2.66-11.35,6.29s-4.07,8-5.43,12.3c-5.46,17.19-10.95,34.59-12.23,52.58-1.25,17.56,1.55,35.36-1.35,52.72l-4.39,7.46-8.84,5.42a100.87,100.87,0,0,1-12.65,22.18l6,10.24-10.19,10.43c-15.19,12.86-13.93,36-15.39,55.81a149.11,149.11,0,0,1-42.85,93.49c-6.56,6.55-14,12.88-17,21.64-1.69,4.87-1.86,10.13-2,15.29-2.32,102,8.94,205.91-15.7,304.95-2.38,9.55-5.21,19.28-11.28,27s-16.13,13.12-25.73,11-16.56-11.51-18.85-21.22-.92-19.87.37-29.76a1562.87,1562.87,0,0,0,11.77-264l-7.23-13.45c-14.73-7.48-31.9-8.1-47.8-12.58-47.24-13.31-78.38-59.34-93-106.19-7.26-23.27-11.25-49.45-.56-71.35l-1-16.93c.82-9.36-10.61-15.48-19.94-14.35s-17.53,6.62-26.6,9c-3.31.88-6.94,1.32-10-.1-4.68-2.13-6.71-7.74-7-12.88-1-16.79,10.79-31.47,22.89-43.17,33.85-32.7,79.52-57.91,126.21-51.93,2.58.33,5.41.71,7.61-.69,2.79-1.76,3.32-5.5,4.24-8.67,2.26-7.73,8.13-13.86,11.46-21.19,5.08-11.19,3.84-24.12,2.16-36.3A657.42,657.42,0,0,0,508,1785c-1-4.12-2.32-8.64-5.94-10.85-3.21-2-7.33-1.53-11-.65-18.38,4.4-33.41,17.44-50.84,24.76-19.05,8-40.29,8.9-60.94,8.26-8.35-.27-16.75-.77-24.9-2.67-12-2.79-23-8.51-33.95-14.19-33.13-17.2-68.4-36.55-84.68-70.13-10.54-21.75-13.34-49.47-33.35-63L198.79,1641l-6.55-42.38c-1.1-7.13-2.24-14.37-5.31-20.9-3.5-7.45-9.32-13.53-15.23-19.25-13.16-12.74-27.3-24.42-41.26-36.28-26.4-22.43-54.11-49.35-56.06-83.93a24.8,24.8,0,0,1,1.27-10.74c2.18-5.35,7.32-9.08,12.85-10.75,15.82-4.76,32.09,5.54,44.22,16.76s24,24.53,40.26,27.66c18.11,3.49,36.18-6.87,54.61-6.36,22.55.62,41.54,17.08,63.52,22.16,24.35,5.63,49.7-3.17,74.65-1.86,36.17,1.91,67.89,24.76,93.37,50.51l-14.19-54.74c-1.24-4.79-2.54-9.7-5.38-13.76-3.11-4.43-7.8-7.47-12.52-10.13-17.68-10-37.81-16.43-52.33-30.61-13.51-13.19-21.32-32.32-37.55-42l-7.35-6.77-104.52-58c-6.74-3.74-13.63-7.61-18.61-13.49-9.31-11-10.14-26.63-10.27-41q-.24-27,.76-53.93c1.58-42.87,6.79-88.85,35-121.14,1.56-1.78,3.28-3.73,3.33-6.1s-1.6-4.44-3.11-6.31a107.23,107.23,0,0,1-16.87-29.2c-3.93-10.27-4.49-25,5.68-29.12,3.31-1.36,7-1.15,10.58-.56,23.56,3.92,41.39,22.73,57.36,40.48,9.66-5.21,20.14-11.37,23.51-21.82,2.72-8.45,0-17.74,1.68-26.47,2.85-15.11,18.11-26.35,18.5-41.73.36-14.1-12-28.64-5.11-40.94,3.49-6.21,10.91-9.12,18-10.09A52.55,52.55,0,0,1,392.86,927c8.42,10.48,13,24.5,24.32,31.8,5,3.22,10.8,4.79,16.52,6.31l30.06,8c15.64,4.17,31.65,8.37,47.79,7.17l10.76-2a58.8,58.8,0,0,0,18.39,5.54c26.8,2.94,52.25-18.73,78.82-14.11l-7.81,8.65c-6.66,7-13,14.53-17.22,23.25-3.66,7.58-5.6,15.86-7.51,24.06-2.12,9.08-4.24,18.17-5.64,27.38-.88,5.82-1.49,11.75-3.62,17.24-3.73,9.64-11.7,16.93-17.24,25.65-13.5,21.25-11.82,49.57-25.57,70.66l-2.16,9.14c-5.16,12.21-1.15,26.5,5.62,37.9Z"></path>
    <path data-name="4a" data-official="" data-plain="Strychnos ligustrina flower" data-loc="" d="M180.75,2633.7a146.21,146.21,0,0,1-33.27,8.49c-5.42.72-12.29.38-14.57-4.6-1.39-3-.39-6.56.62-9.73L139.9,2608c.73-2.28,1.47-4.66,1.11-7-.89-6-7.79-8.7-12.66-12.35a23.86,23.86,0,0,1,15.16-42.94c2.82.1,6.09.55,8.05-1.49,1.46-1.5,1.57-3.82,1.52-5.92-.31-13-2.81-28.05,6.47-37.11,9.72-9.48,26.16-5.67,37.72,1.44s22.15,17.12,35.59,19.05c10.8,1.55,24.33-1.46,30.68,7.41,4.48,6.27,2.26,15.05-1.22,21.93s-8.17,13.63-8.25,21.34c-.08,7.26,4,13.87,8.38,19.66s9.31,11.44,11.45,18.38.54,15.71-5.77,19.3c-5.64,3.21-13.27,1.44-18.6,5.15s-6.1,10.95-6,17.33c.24,19.11,4.13,40.12-6.72,55.86-8.1,11.76-22.81,17.38-37,18.63-9.39.82-19.21-.06-27.5-4.55s-14.72-13.13-14.73-22.56c0-5.94,2.43-11.57,4.82-17l16.9-38.5Z"></path>
    <path data-name="4b" data-official="" data-plain="Flower, opened" data-loc="" d="M337.58,2660.27c0-15.18-11.46-27.83-23.48-37.08s-25.73-17.24-33.71-30.14c-2.81-4.54-4.85-9.8-4.4-15.12.36-4.39,2.38-8.48,4.8-12.17,8.53-13,22.21-22.07,36.82-27.48s30.23-7.48,45.73-9c17.13-1.64,35.05-2.51,50.91,4.16s28.93,23,26.3,40c-1.86,12-10.71,21.53-16.71,32.11-14.45,25.45-12.18,56.57-13.92,85.79-.38,6.47-1,13.08-3.74,19-4.38,9.52-13.8,16-23.81,19.11s-20.68,3.24-31.16,3c-7.59-.15-15.89-.76-21.44-5.94-6.77-6.33-6.82-17.26-3.73-26s8.69-16.42,11.93-25.1Z"></path>
    <path data-name="4c" data-official="" data-plain="Calyx and Pistil" data-loc="" d="M463,2658.25a142.87,142.87,0,0,1-18.82-58c-1-10.54-.31-22.56,7.57-29.65,3.24-2.91,7.36-4.64,11-7.07,14.2-9.53,18.91-29.05,15.53-45.83s-13.29-31.4-23.38-45.22c-6.17-8.45-12.53-16.87-17-26.35-7-14.93-8.84-31.73-9.5-48.2-.1-2.53-.16-5.16.82-7.49,1.62-3.87,5.69-6.09,9.65-7.46,8.83-3,19.29-3.13,26.88,2.33,12,8.59,12,25.87,15.6,40.14,6.13,24.06,24.78,42.63,36.81,64.34a125.71,125.71,0,0,1,15.54,54.44c.5,9.91-.08,20.32,4.33,29.2,1.64,3.29,3.9,6.24,5.59,9.5,5,9.65,4.56,21.1,4,32-.75,14.57-1.56,29.39-6.44,43.15-2.29,6.46-5.47,12.64-6.83,19.36-2.91,14.38,2.61,30.56-4.67,43.31-6.81,11.92-22.06,15.77-35.75,16.81-12.86,1-28.67-1.36-33.52-13.31-5.94-14.66,9.78-32.36,2.22-46.26Z"></path>
    <path data-name="4d" data-official="" data-plain="Section of Ovary" data-loc="" d="M577.21,2699.24c-7.59-25.2-14.51-52.55-5.73-77.36,4.15-11.72,11.54-22,18.83-32,4.41-6.09,9.06-12.4,15.72-15.89,8.55-4.48,18.79-3.55,28.38-2.51,5.5.6,11.22,1.27,15.86,4.27,4.07,2.63,6.87,6.78,9.4,10.92a183.89,183.89,0,0,1,22,53.34c3.75,15.8,5.25,33.05-1.63,47.76-5.49,11.74-16,21.19-18.65,33.88-1.52,7.32-.57,15.91-5.8,21.26-2.21,2.27-5.23,3.54-8.2,4.63A108.37,108.37,0,0,1,606.7,2754c-7.08-.23-14.5-1.3-20.13-5.6-10.64-8.11-10.78-23.78-9.92-37.13Z"></path>
    <path data-name="4e" data-official="" data-plain="Cross section of Ovary" data-loc="" d="M736.76,2693.37c-14.35-8.52-29.73-19.85-31.57-36.43-1.39-12.58,6-24.94,16.18-32.41s22.88-10.74,35.39-12.63c17.61-2.68,36.36-2.75,52.39,5s28.44,25,26,42.7c-1.77,12.88-10.76,23.62-20.67,32-3,2.54-6.26,5.17-7.45,8.91-1.33,4.18.26,8.68.24,13.06-.06,9.34-7.69,17.26-16.39,20.65s-18.33,3.18-27.66,2.92c-9.15-.24-19-.72-26.23-6.27s-9.62-18.23-2.12-23.48Z"></path>
</svg>
