
<svg xmlns="http://www.w3.org/2000/svg" viewBox="0 0 2080 2807" id="illustration" preserveAspectRatio="xMidYMid meet">
    <title>Apocynaceæ</title>
    <path data-name="1" data-official="Apocynum hypericifolium" data-plain="Hypericum-leaved Dog’s-bane" data-loc="North America" d="M1100.61,2018.2c6.77-.34,12.4,4.73,18.21,8.22,9.94,6,21.83,7.65,32.62,11.93,15.06,6,27.74,17,42.8,23,5.88,2.35,12.07,3.9,17.9,6.38,10.54,4.46,19.58,11.77,28.47,19a42.09,42.09,0,0,1,7.38,7c3.08,4.09,4.57,9.12,6,14,1.11,3.82,2.21,8,.66,11.67-1.35,3.2-4.41,5.27-6.89,7.69a26.85,26.85,0,0,0-7.38,13c-2,8.23-.23,17.8-5.44,24.46-3.86,4.93-10.55,6.74-16.81,6.88-4.71.1-9.9-.83-12.9-4.46-3.77-4.56-2.58-11.38-.46-16.92s5-11.22,4-17.06l1.56-5.74c-1.95-7.11-8.4-11.91-14.45-16.13-9.37-6.56-18.77-13.13-28.84-18.56a296,296,0,0,0-27.2-12.38c-18.71-7.77-37.47-15.55-57-21l-4.8-3.84a131.85,131.85,0,0,1,9.3-27,11.31,11.31,0,0,1,2-3.28c1.52-1.52,3.77-2.14,5.25-3.7Zm-86.31,5.91c12.48,9.59,27.25,15.61,41.83,21.53l5.77-2c.81-8.63,8.4-15.49,9.22-24.12l-6.69-11.92a200.83,200.83,0,0,0-26.26-18.62c-7.77-4.63-15.88-8.74-23.17-14.1-18.32-13.47-30.79-34.34-50.73-45.27l-4.78-5.83a282,282,0,0,1-37.26-25.86c-10.45-8.58-21-19.37-21.56-32.88a17,17,0,0,1,2.24-9.83,17.35,17.35,0,0,1,4.44-4.56c4.71-3.52,10.33-5.56,15.87-7.49,6.38-2.22,12.84-4.37,19.54-5.24,10-1.31,20.17.28,30.28.58s20.82-.92,28.91-7l7.45-4.69,16.62-8.44a61.3,61.3,0,0,0,11.76-7.12c4.28-3.57,7.5-8.22,10.66-12.8l13.68-19.84,3.09-6.72a124.41,124.41,0,0,1,19.47-24.55c7.27-7.11,15.65-13.62,19.92-22.86,3.27-7.07,3.8-15.11,6.4-22.46,2.85-8,8.07-15,11.94-22.57s6.37-16.63,3.31-24.59l-2-8.37A42.85,42.85,0,0,1,1121,1625c.18-1.66.34-3.63-.93-4.71a4.81,4.81,0,0,0-2.19-.88q-18.7-4.12-37.74-6.57l-11.68-9.28c-12.07-3.56-25-1.53-37.41.55q-18,3-36,6.12c-11.78,2-23.87,4.18-34.11,10.35-9.27,5.59-16.4,14.11-25.17,20.45-16.76,12.1-38.77,15.75-54.54,29.12-9.5,8.06-16,19-22.27,29.79A126.46,126.46,0,0,0,823,1680.6l-6.16.69c-6.3.42-12.67.83-18.89-.19-5.78-.95-11.28-3.11-17-4.38s-11.94-1.57-17.18,1c-4.13,2.07-7.36,5.83-11.74,7.33-2.4.82-5,.91-7.41,1.78-6.86,2.5-9.8,10.4-11.93,17.38-7.49-.15-15.27-.25-22.12,2.78-3.48,1.54-6.57,3.82-9.89,5.68-8.47,4.74-19.27,6.52-27.88,2-4.26-2.22-7.64-5.76-11.37-8.79-7.13-5.81-15.55-9.79-23.87-13.72-3-1.42-6.08-2.85-9.38-3.12s-6.93.86-8.74,3.64l-13.6,1.87c-8,5.5-17.17,9.4-24.23,16.07s-11.61,17.51-7.22,26.17c3.81,7.52,12.66,10.67,19.41,15.72,8.25,6.17,13.57,15.54,17.15,25.21s5.61,19.83,8.69,29.66l5.84,8.59c5,9.64,16.5,13.87,27.2,15.76s22,2.43,31.39,8c10.19,6,16.28,17.09,20.9,28l10.13,10.65c8.25,5.16,17.39,9.29,27.08,10.15a93.28,93.28,0,0,0,14.85-.36c7.79-.56,15.74-1,23.32,1a14.47,14.47,0,0,0,5,.76,15,15,0,0,0,3.61-1.09,29.18,29.18,0,0,1,13.67-1.56l13.13-2A50.35,50.35,0,0,1,845,1894l6.66,4.33,34.89,34.79c7.28,7.25,15.21,14.86,25.31,16.74L918,1955c14.51,6.89,27.74,16.18,40.59,25.84q21,15.75,40.8,33Zm-542.64-1327,4.75,2.39c21.13,5.4,42.84,11.07,60.39,24,3.3,2.43,6.47,5.13,10.2,6.84s8.24,2.3,11.88.4l8.15-.64a4.23,4.23,0,0,0,1.44,1.89L612,771.09l4.49,7.35c6.43,7.61,2.77,20.16,8.72,28.15-3.32,4.26-3.34,10.25-2.19,15.53s3.33,10.34,3.92,15.72c.42,3.86,0,7.79.46,11.65A51,51,0,0,0,630.18,860a45.1,45.1,0,0,0,4.55,10.4c2.2,3.37,5.26,6.08,7.8,9.19s4.64,6.94,4.35,11L635.7,908.14l-9.47-1.5c-16-7.39-34.72-3.46-51.89.61-1.43.34-3,.74-3.9,1.89a6.92,6.92,0,0,0-1.14,3.16c-1.47,8-3.82,16.48-10.3,21.31-2,1.51-4.38,2.59-6.12,4.41a19.77,19.77,0,0,0-3.55,6L528.4,991.35l-2.79,7.7a9.5,9.5,0,0,0-3.4,5.39c-.55,2.46-.4,5.61-2.63,6.77a5.9,5.9,0,0,1-2.8.46h-5.52a8.92,8.92,0,0,1-3.85-.57,13.79,13.79,0,0,1-3.12-2.6c-4.39-4-11.34-4.22-16.66-1.61s-9.13,7.61-11.61,13l-4.43,6.92c-4.37,14,4.84,29.11,1.82,43.41-.5,2.34-1.31,4.6-1.77,7-1.3,6.69.25,14.21-3.43,19.95l-6.44-7.83-7.89,5.79c7.36,12.73,5.35,30.17-4.7,40.89,1.53,4.93,3,10.47.68,15.08-2.61,5.15-9.56,8.18-9.6,14l-2,9.08a170.86,170.86,0,0,1-11.7,16.46l-8.13,6.92c-5.73,5.58-13.14,10.29-21.12,9.81-9.8-.6-18.07-8.85-27.89-8.72-5,.06-9.73,2.35-14.63,3.43-6.67,1.48-13.59.72-20.4.33-11.29-.66-22.81-.3-33.57,3.14s-20.8,10.23-26.34,20.08a52.34,52.34,0,0,0-5.42,16.1c-.82,4.41-1.43,9.13-4.29,12.59a18.4,18.4,0,0,1-7.89,5.09c-15.58,5.9-33.06,2.12-48.94-3l-16-2q-14.57-3.84-28.92-8.37c-7.36-2.31-15-5-20.16-10.78-6.59-7.43-7.43-18.17-8-28.09-1.06-20.17-2.13-40.36-1.81-60.56.16-10.31.73-20.86,4.72-30.37,4.49-10.7,12.93-19.18,21.16-27.37L169.5,1077c14.43-13.1,35-16,53.33-22.69a128.37,128.37,0,0,0,24.85-12.25c4.76-3,9.46-6.52,12.19-11.46s3-11.63-.78-15.83c-2.64-3-6.7-4.19-10.62-4.82-6.51-1.07-13.31-.88-19.48-3.23-9.93-3.78-16.53-13.63-19.2-23.92s-2-21.09-1.43-31.69c.1-1.71.13-3.62-1-4.89-1.33-1.48-3.63-1.44-5.6-1.18-19,2.47-35.41,14-52.16,23.39-15.87,8.88-33,16.09-51,18.46s-37.15-.43-52.45-10.26S20,949.41,20.4,931.23L16,918.84c-2.91-22.89-5.82-46.09-2.84-69s12.56-45.8,30.6-60.19c9-7.15,20.29-12.66,24.82-23.2,4.87-11.32.12-24.2-3.8-35.89-6.5-19.39-10.23-42.26,1.38-59.11,4.54-6.58,11.17-11.76,14.47-19.05s1-18.15-6.81-19.7L59.74,631c-17.45-4.1-28.23-23.55-26.91-41.43s12.22-33.79,25.37-46C68.1,534.45,80.05,526,83.82,513c4.79-16.48-5.4-33.17-8.58-50-3-16.13.87-33.76,11.65-46.13s28.59-18.68,44.44-14.44c8.89,2.38,17.22,7.83,26.41,7.41,13.21-.6,22.44-12.63,32.8-20.86,14.13-11.22,32.48-16.08,50.51-16.77s36,2.48,53.69,5.82c32.46,6.11,66.21,13.47,91.73,34.42,5.54,4.55,10.78,9.79,17.47,12.36,13.37,5.14,29.48-1.5,42.3,4.9,8.2,4.1,13.08,12.6,17.49,20.63l25.5,46.44,2.44,7.46c4.84,6.14,4.26,15.21.75,22.2s-9.42,12.4-15.06,17.81c-2.64,2.53-5.46,5.95-4.28,9.4.24.7.64,1.34.85,2,.71,2.35-.72,4.74-1.26,7.13-1.54,6.68,3.84,13,4.2,19.87l-4.18,15.51c.11,4.5.2,9.11-1.29,13.35l-10.93,7.9c-3-3.21-6.62-6.69-11-6.35-2.51.2-4.72,1.65-6.81,3.06l-22.11,14.94a7.32,7.32,0,0,0-2.17,1.93,7.93,7.93,0,0,0-1,3.5,52.57,52.57,0,0,1-10.37,25.18c-2.95,3.85-6.49,7.37-8.33,11.85a35.38,35.38,0,0,0-2,9.2q-3.71,30.32-5.17,60.84c6.37-12,14.17-23.39,24.35-32.38s22.89-15.46,36.41-16.67Z"></path>
    <path data-name="1a" data-official="" data-plain="Stamens, Pistil, and Glands" data-loc="" d="M770.27,2664.71a216.3,216.3,0,0,1-11-95.71c.39-3.47.88-7,2.45-10.11,2.13-4.21,6.06-7.26,10.24-9.47,11.21-5.93,24.38-6.61,37.06-6.74q15.87-.15,31.73.56c5.21.24,10.65.61,15.13,3.29,4.2,2.5,7,6.75,9.27,11.1,5.21,10.23,7.63,21.65,9.19,33,3,22.25,2.6,46.23-9.07,65.42-3.8,6.25-8.73,11.87-11.53,18.64-3.4,8.26-3.33,17.47-4.78,26.28s-5.13,18.18-13.08,22.26A33,33,0,0,1,826,2726a219.23,219.23,0,0,1-41.89,2.63c-6.1-.2-13-1.05-16.67-5.9-4.93-6.49-1.29-15.79,2.93-22.77s9.06-15.19,6-22.73Z"></path>
    <path data-name="1b" data-official="" data-plain="Stamen" data-loc="" d="M879,2683.77c-1.15-10.41-2.26-21.24,1.21-31.12,2.74-7.79,8.17-14.46,10.63-22.35,1.68-5.4,1.89-11.12,2.09-16.77l1.14-32.07c.3-8.25.6-16.59,2.85-24.53s6.66-15.56,13.59-20,16.6-5.19,23.29-.36c5.88,4.26,8.49,11.83,9,19.07s-.83,14.47-1.11,21.72c-.54,14.12,2.82,28.07,3.92,42.15s-.45,29.29-9.33,40.27c-6.49,8-17,14.42-17.38,24.74-.25,7.44,5.12,13.7,8.54,20.32a29,29,0,0,1,3.54,16.15c-.58,5.56-3.49,11-8.29,13.9-3.15,1.89-6.88,2.57-10.52,3.13a217.47,217.47,0,0,1-40.55,2.36,11.64,11.64,0,0,1-3.57-.51c-5.1-1.86-5.2-9-3.84-14.28A81.34,81.34,0,0,1,877.25,2698Z"></path>
    <path data-name="1c" data-official="" data-plain="Pistil" data-loc="" d="M968.77,2690.94c-14.1-20.14-12.53-49.81,3.6-68.35,2.18-2.51,4.68-5,5.52-8.19,1-3.62-.37-7.39-1.62-10.91-2.06-5.82-4-11.8-4.17-18s1.51-12.64,5.82-17.06c3.92-4,9.53-5.93,15-7,8.82-1.71,18.73-1.35,25.74,4.27,5.8,4.65,8.66,12.35,8.51,19.79s-3,14.61-7.06,20.88c-1.43,2.23-3.06,4.51-3.32,7.16s.89,5.19,2,7.57c3.22,6.62,6.74,13.16,8.74,20.24,5.78,20.48-1.81,42.35,0,63.55.55,6.4,1.94,13-.15,19.11-2.29,6.68-8.41,11.36-14.84,14.27a51.17,51.17,0,0,1-29.52,3.81,20.16,20.16,0,0,1-8.32-3c-3.13-2.23-5-5.77-6.45-9.35a50.49,50.49,0,0,1-2.39-28.49Z"></path>
    <path data-name="2" data-official="Vinca major" data-plain="Greater Periwinkle" data-loc="England" d="M975.92,2199.06c-22.42,2.77-39.44-21.36-61.69-25.2a231.9,231.9,0,0,1,32.21,62.4c3.42,10.19,6,21.86.86,31.3-3,5.45-8.15,9.33-11.78,14.37-4.77,6.62-6.63,14.83-8.52,22.77s-4,16.13-9.24,22.42-14.33,10.09-21.75,6.7c-7.6-3.46-10.57-12.67-11.51-21-1.79-15.79.76-31.76-.27-47.61-2-30.6-17-58.61-31.73-85.51l-5.89,13.8c5.08,44.26-4.62,91.17-32,126.32-15.87,20.39-36.86,36.08-57.58,51.51-23.77,17.7-47.65,35.48-73.9,49.25s-55.16,23.46-84.79,23.82c-8.42.1-18.34-1.47-22.22-9-2-3.86-1.85-8.44-1.74-12.79.51-21.34-1.73-43.93-14.17-61.27-9.56-13.32-24.23-22.24-34.08-35.34-17.87-23.78-16.84-56.55-28.11-84.08-1.59-3.9-3.58-7.88-7-10.33-4.44-3.16-10.29-3.14-15.7-3.75-22-2.49-42-18.44-49.21-39.38l-12.88-12c-13.9,5.77-28.13,11.62-43.15,12.51s-31.26-4.09-40.1-16.27c-6-8.22-7.9-18.6-9.35-28.65a454.06,454.06,0,0,1-2.54-108.59c.69-7.2,1.53-14.72-1.08-21.48-1.78-4.62-5.05-8.5-8.25-12.29l-28.62-33.77c-5.55,6.67-11.22,13.45-18.49,18.19s-16.52,7.23-24.76,4.52l-5.57-6.88c-15.61-24.76-21.11-54.61-22.61-83.83s.68-58.56-1-87.78a4.48,4.48,0,0,0-4-5.1l-23-7c-17.57,23-51.72,31.61-78.1,19.6l-7.19-2.25c-12.13-10.41-15.32-27.7-16.74-43.62a382.07,382.07,0,0,1,3.6-96.19c1-6,2.12-12.13.73-18-3.4-14.49-20.73-23.06-22.54-37.83-1.25-10.22,5.75-19.89,14.33-25.57s18.71-8.45,28.17-12.52a108.46,108.46,0,0,0,34.8-23.94c5.28-5.42,10-11.5,12.81-18.53,2.32-5.87,3.17-12.2,5.19-18.17,3.26-9.68,9.75-18.38,18.55-23.54,11.21-6.57,25-7,37.91-6a218.53,218.53,0,0,1,53.54,10.78l4.68,13.35c3.86,4.28,4.32,10.54,4.59,16.29.44,9.38.87,18.82-.32,28.14a56,56,0,0,0-.81,8.84,21,21,0,0,0,5.92,13.89l.69,1a17.89,17.89,0,0,0,3.32,12c1.77,2.43,4.12,4.36,6.16,6.56,4.85,5.24,7.85,11.9,12,17.73s10.11,11.13,17.25,11.38l1.25.85a28.06,28.06,0,0,0,13.49,21.6c5.14,3,11.19,4.35,16.07,7.76,6.92,4.82,10.52,13.07,13.18,21.07,1.16,3.51,2.3,7.19,4.84,9.87.25.26.59.53.94.44s.34-.78,0-.71l.66,1.37c-2.54,2.43-.93,6.9,1.76,9.17s6.21,3.48,8.57,6.09c1.2,1.32,2.12,3,3.76,3.73a11.72,11.72,0,0,0,2.64.57c4,.69,7.32,3.29,11,5.09,7.13,3.52,15.6,3.87,23.27,1.76a48.91,48.91,0,0,0,20.32-12,63.88,63.88,0,0,0,8.59-10.12c2.65-3.87,5.42-8.43,10-9.3l5.41,2.59a45,45,0,0,1,17.34,12.22,5.21,5.21,0,0,0,2,1.66,5.08,5.08,0,0,0,2,.12l16.33-1.3-16.38-32.24a53.7,53.7,0,0,1-4.71-11.38l-.13-4.6c-.67-3.8-1.32-7.89.3-11.4a13.35,13.35,0,0,1,4.53-5.09,21.74,21.74,0,0,1,11.65-4c3.51-.13,7.34.52,10.29-1.39,1.59-1,3.57-2.75,5-1.51a3.35,3.35,0,0,1,.8,1.38l9.58,25.26,3.64,4a23.53,23.53,0,0,0,23,8.38l3.64-1.41a72.72,72.72,0,0,0,11.14.3,51.23,51.23,0,0,1,5.66-.38,8.86,8.86,0,0,1,5.32,1.72l.8,4.9c.62,10.47-2.59,20.83-2.48,31.32v11.49c-2,5.07-2.31,10.56.13,15.38,3.81,7.52,12.66,10.67,19.41,15.72,8.25,6.17,13.57,15.54,17.15,25.21s5.61,19.83,8.69,29.66l5.84,8.59c5,9.64,16.5,13.87,27.2,15.76s22,2.43,31.39,8c10.19,6,16.28,17.09,20.9,28l10.13,10.65c8.25,5.16,17.39,9.29,27.08,10.15a93.28,93.28,0,0,0,14.85-.36c7.79-.56,15.74-1,23.32,1a14.47,14.47,0,0,0,5,.76,15,15,0,0,0,3.61-1.09,29.18,29.18,0,0,1,13.67-1.56l11.89,3.72c17.84,12.1,36.45,25.08,45.84,44.48a6,6,0,0,0,1.56,2.27,5.79,5.79,0,0,0,3.32.82,95.82,95.82,0,0,1,24.5,4.48h7.79a34.26,34.26,0,0,0,14.31,6.8L918,1955c14.51,6.89,27.74,16.18,40.59,25.84q21,15.75,40.8,33l14.95,10.29,1.79,10.59a242,242,0,0,1,20.3,69.25l.48,9.34a17.67,17.67,0,0,0,1.82,11.49,52.89,52.89,0,0,0,6.75,9.71,29.7,29.7,0,0,0,4.23,4.52c3.12,2.51,7.09,3.64,10.61,5.54l6.8,4.43a73.94,73.94,0,0,1,11.52,30.82c.7,5.21.4,11.44-3.92,14.44-2.76,1.92-6.38,1.91-9.74,1.83l-16.46-.42a88.65,88.65,0,0,1-11.75-.82c-4.48-.71-8.85-2.12-13.37-2.54-4.81-.45-9.69.24-14.48-.43s-9.47-2.6-14.07-1.4Z"></path>
    <path data-name="2a" data-official="" data-plain="Pistil" data-loc="" d="M1465.91,2735.15c-6.15-21.09-9.61-44.47-.62-64.52,3.29-7.35,8.16-14,10.76-21.62s2.77-16,2.89-24.13c.42-26.9.77-54.2-6-80.23-3.08-11.83-7.62-23.32-9.25-35.43s.07-25.4,8.11-34.6c4.51-5.16,10.67-8.64,17-11.17,12.07-4.77,26.54-6.16,37.5.82,10,6.34,15,18.25,17.18,29.86,7.49,39.29-10.3,78.51-15.46,118.17-2.3,17.65-2.09,35.52-1.87,53.32.3,24,.74,48.76,10.14,70.86,3.67,8.63,8.62,18.76,3.62,26.69-3.33,5.27-9.89,7.29-15.91,8.92-12.85,3.49-26.32,7-39.33,4.13s-25.16-14.34-24-27.6Z"></path>
    <path data-name="2b" data-official="" data-plain="Section of Ovary" data-loc="" d="M1554.17,2693.15c-4.62-13.51-9.27-27.22-10.14-41.47s2.52-29.35,12.2-39.85c12.54-13.6,32.53-16.78,51-18.47,11.4-1,25.44-.46,30.84,9.63,2.22,4.17,2.36,9.11,2.44,13.84l.53,31.11c.19,11.25.22,23.16-5.53,32.83-2.79,4.7-6.84,8.66-8.9,13.72-3.93,9.66.22,21.11-3.41,30.88-3,7.93-10.66,13.33-18.8,15.62s-16.77,1.92-25.22,1.4c-10.14-.63-22-2.52-26.69-11.52-3.43-6.57-1.66-14.52.2-21.69Z"></path>
    <path data-name="2c" data-official="" data-plain="Section of Seed" data-loc="" d="M1638.31,2716.59c-4.55-8.58,1-18.69,4-27.94,4.87-15,2.64-31.4,5.55-46.92,1.69-9,6.16-18.69,14.88-21.49,5.94-1.91,12.69,0,17.51,4s7.91,9.71,9.71,15.69c4.65,15.46,1.39,32.61,7,47.76,2.2,6,5.78,11.72,5.85,18.09.11,9.66-7.89,17.55-16.39,22.14a61.82,61.82,0,0,1-31.33,7.34c-4-.13-8-.7-11.39-2.79s-5.81-6-5.14-9.94Z"></path>
    <path data-name="3" data-official="Cynanchum nigrum" data-plain="Black Cynanchum" data-loc="South Europe" d="M994.81,2190.46c4.6-1.2,9.36.75,14.07,1.4s9.67,0,14.48.43c4.52.42,8.89,1.83,13.37,2.54l1.68,9a241.26,241.26,0,0,1-20.68,50c-4.55,8.26-9.66,16.41-11.93,25.56-3.68,14.78.43,30.55-2.5,45.5a49.49,49.49,0,0,1-15.63,27.27c-2.66,2.35-5.68,4.45-9.15,5.21a17.25,17.25,0,0,1-9.82-1,24.46,24.46,0,0,1-15.15-22.86c.22-7.73,4.17-15.35,2.54-22.9-1.22-5.61-5.35-10.2-6.81-15.74-1.85-7,.74-14.25,3.44-20.92a472.14,472.14,0,0,1,37.5-73.42Zm41.58-86.51.48,9.34a17.67,17.67,0,0,0,1.82,11.49,52.89,52.89,0,0,0,6.75,9.71,29.7,29.7,0,0,0,4.23,4.52c3.12,2.51,7.09,3.64,10.61,5.54l8.67-2.89a540.31,540.31,0,0,1,14.4-70.24l-.49-12.25-4.8-3.84a131.85,131.85,0,0,1,9.3-27,11.31,11.31,0,0,1,2-3.28c1.52-1.52,3.77-2.14,5.25-3.7l6-3.1,3.2-8.26c14.9-30.35,29.87-60.9,39.17-93.41,4.68-16.38,8.11-33.63,17.9-47.58l2.24-7.16c.11-2.73-1.94-5-4-6.8s-4.46-3.45-5.41-6c-.32-.86-.68-2-1.6-2a2,2,0,0,0-1.06.34l-3.13,1.67a1.21,1.21,0,0,1-.93.21,1.33,1.33,0,0,1-.55-.48,12.22,12.22,0,0,0-7.62-4.44l-12.16,8.42a570,570,0,0,0-61.69,149l-.5,5.91,6.69,11.92c-.82,8.63-8.41,15.49-9.22,24.12l-5.77,2-3.54,10.16a246.25,246.25,0,0,0-12.39,31.82Zm171.32-416.22a88.58,88.58,0,0,0,3,17.85,44.79,44.79,0,0,1,30.86-17.12,8.24,8.24,0,0,0,3.38-.77,7.52,7.52,0,0,0,2.22-2.37l10.35-14.94a132.86,132.86,0,0,0,10.38-16.67,3.18,3.18,0,0,0,.44-1.46,3.26,3.26,0,0,0-.78-1.77,62.35,62.35,0,0,0-12.51-12.88,17.08,17.08,0,0,1-10.07,6.57,31.55,31.55,0,0,0-5.22,1.16,15.46,15.46,0,0,0-5.06,3.83,148.54,148.54,0,0,0-24.48,32.82Zm89.73-140c-.43,6.36-.76,12.94,1.41,18.94s7.5,11.31,13.87,11.46a4,4,0,0,0,2-.34,4.81,4.81,0,0,0,1.65-1.84q5.37-8.67,10.75-17.35l3.36-5.81c.69-1.13-.46-2.62-1.76-2.9s-2.62.16-3.93.27c-1.79.14-3.83-.54-4.51-2.2-.61-1.48.08-3.19,1-4.48a25.17,25.17,0,0,0,2.87-3.83c.93-2,.74-4.25.53-6.42a3,3,0,0,0-.22-1,3.6,3.6,0,0,0-1.36-1.32,18.43,18.43,0,0,1-6.52-8.18,25.72,25.72,0,0,0-18.79,17.72ZM1385,1367.47c-15.39,19.09-22.12,43.63-34.63,64.71-6.27,10.58-14.12,20.52-17.46,32.35l-2.15,8.09c1.54,6.87-2,13.75-3,20.72s.62,14.3,2.3,21.28a6.79,6.79,0,0,0,4,.12c1.26-.48,2.16-2.09,1.42-3.21l4-.43a1.18,1.18,0,0,0,1.3-1.48c0-4-1-8.11,0-12,.89-3.67,3.34-6.73,5.72-9.65,2.6-3.2,5.25-6.43,8.6-8.82,5.63-4,13.48-6,16.23-12.32l5.1-4.34c8.52-17.78,20.1-33.91,32.2-49.47a163.29,163.29,0,0,0,10-13.64c2.49-4,4.6-8.22,6.69-12.44l8.64-17.34-.42-9.49c-2-2.28-5.58-1.89-8.55-1.3l-15.58,3.06a3.35,3.35,0,0,1-1.72,0,2.65,2.65,0,0,1-.84-.53,6.93,6.93,0,0,1-2.16-3.42,41.59,41.59,0,0,1-7.48,1.55Zm283.7,45.39c-1.72-16.27,5.89-32.7,2.93-48.8l.92-7.82a59.18,59.18,0,0,0-10.26-28l6-8.29c8.51-13,16.67-26.71,19.82-42a136.6,136.6,0,0,0,1.92-14.25l2.58-25.69,25.13-1.19a218.17,218.17,0,0,0,3.2,32.75c2.58,14.78,6.69,29.33,7.8,44.3,1,13.17-.33,26.9,4.59,39.16l3,6.5a331.06,331.06,0,0,1-3.64,69.33l-2.13,6.24a31.21,31.21,0,0,0-.17,8.36c.28,2.34.81,4.76.1,7-.15.48-.51,1-1,.94a1.2,1.2,0,0,1-.58-.4l-3.11-3.33-3.54,3.51q-4.82,10-10.48,19.65c-2.6,4.4-5.35,8.76-7.11,13.56s-2.46,10.17-.86,15a5.73,5.73,0,0,0,1.27,2.32c1.25,1.23,3.22,1.3,5,1.2,7.09-.37,14.26-2.1,20.16-6.06,10.88-7.31,15.76-20.77,24.9-30.16l4.93-6.11a313.8,313.8,0,0,0,48.15-84.55c6.07,4,13.33,5.62,20.45,7,7.54,1.49,15.29,2.8,22.86,1.49,16.29-2.81,28.11-17,36.51-31.19a193.28,193.28,0,0,0,20.36-144.92c11.2-1,22.36,3.19,31.68,9.48s17.06,14.6,24.71,22.83l58.72,63.1c10-11.39,12.9-27.79,10.75-42.82s-8.76-29.05-15.77-42.52l7.09-5.84c9.22-8,10.88-21.87,9.21-34-1.79-13.06-6.62-25.49-11.76-37.63q-11.35-26.85-25-52.67c-9.68-18.36-20.4-36.56-35.5-50.81A98.81,98.81,0,0,0,2013.08,979l.58-9.56c2.45-7.73,2.56-16,2.66-24.1.07-6.59.14-13.22-1.08-19.7-3.57-19-18-36.06-15.59-55.23l-1.77-7.09c-3.34-3-8.87-1.19-11.91,2.08s-4.62,7.65-7.32,11.22c-7.67,10.14-23.35,12.51-29.3,23.75-1,1.85-1.64,3.87-2.72,5.66a25.4,25.4,0,0,1-5.16,5.65c-6.88,6-14.24,11.53-21.6,17l-15.34,11.4-4.63,3.44-6.16,4.58-13.67,10.15-2.48,3.66c-3,8.58-12.8,12.24-20.65,16.85-7,4.09-13,9.6-19.88,13.89s-14.71,7.43-22.3,10.68c-34.64,14.84-67.37,34.3-103.26,45.8l-7.07-2.2c-6.76-2-13.86,1.11-20.22,4.15-7.66,3.66-15.38,7.36-22.12,12.52-7.48,5.73-14,13.37-23,16.12l-1.28,6.59a105.36,105.36,0,0,1-53,24.47l-6,.59a20,20,0,0,0-7.07-.71c-1.88.26-3.64,1-5.49,1.43-2.35.51-4.8.38-7.19.67-6.13.73-11.58,4.08-16.82,7.35l-10.28,7.6c-5.91,3.49-13,4.39-19.82,4.82s-13.84.47-20.39,2.54l-.87,8.6a65.54,65.54,0,0,1,1.48,53.44l-1.45,6.16a515.68,515.68,0,0,1-32.21,48.25c-11.08,14.72-23,29-31.19,45.49a115.41,115.41,0,0,0-7.62,19.84l.68,3.83c2.45,2.26,6.06,2.6,9.39,2.74,9.11.4,18.71.14,26.59-4.44,3.93-2.28,7.21-5.51,10.44-8.71l2.66-3.48c8-17.46,22.44-31,33.93-46.34a158,158,0,0,0,20.49-36.75,4.2,4.2,0,0,1,1.42-2.16c1.51-1,3.41.34,4.71,1.56l15.79,14.73c2.14,2,4.39,4.19,5,7.05a11,11,0,0,1-1.51,7.26c-3.75,7-10.72,11.64-16.64,17-2.67,2.41-5.15,5-7.64,7.64-6,6.26-11.9,12.52-17.48,19.11-4.49,5.32-8.94,11.36-9.15,18.32l4.4,3.19a30.44,30.44,0,0,1,13,7,8.25,8.25,0,0,1,1.66,1.93,10.25,10.25,0,0,1,1,3.37c.8,4.49,2,9,2,13.51s-1.11,9.36-4.33,12.58c-2.12,2.11-5.19,3.78-5.59,6.74l-4.19,4.22c-1.67,15-3.34,30.23-.74,45.09.78,4.43,1.93,8.83,2.09,13.33.25,7.11-2,14-3.06,21.06-.57,3.68-.79,7.55.48,11s4.34,6.58,8,6.87,7.59-3,7.07-6.71l3.38,3.9c8.87,8.23,12.64,20.39,17.44,31.5s12.13,22.57,23.81,25.7l9.41.18c5.64-3.69,13.23,3.39,19.6,1.17-.69-6.64,4.6-12.27,9.64-16.66a4.22,4.22,0,0,0,1.54-2c.28-1.21-.55-2.36-1-3.54-1.59-4.43,2.77-9,2.49-13.65-.17-2.79-1.52-6.52,1-7.7a4.71,4.71,0,0,1,2.53-.19l9.32,1a11.41,11.41,0,0,0,3.45,0c3.93-.76,5.88-5.09,7.41-8.78,3.65-8.8,9.11-17.72,18-21.17,2.73-1.06,5.72-1.58,8.15-3.21,5-3.35,6.28-10.43,11.14-13.94ZM1862.38,291q-11.33-14.38-22.79-28.66c-16.12-20.08-32.76-40.31-54.19-54.57s-48.71-21.91-73.32-14.37c-4.33,1.32-8.68,3.21-11.61,6.65-4.83,5.67-4.65,14.05-3,21.3s4.65,14.35,4.5,21.79a61,61,0,0,0-27.48.8c-4.47,1.18-9,3-11.92,6.61-3.88,4.77-4,11.51-3.46,17.64,3.29,35.61,23.64,66.94,38,99.67A312.4,312.4,0,0,1,1721.5,457l-10,1.3c-12.7-1.37-26.28-1.22-37.27,5.3l-3.77,7.87c-4.13,4.81-10.57,6.81-16.64,8.65-19.81,6-39.55,12.72-57.66,22.75s-34.63,23.6-45.69,41.11a115,115,0,0,1,52.08-21.65l4.27,4.8a78.35,78.35,0,0,1-19.12,28.22l-2.92,6.11c-19.3,20.68-29.28,48.8-49.08,69-5.08,5.18-10.83,9.82-17.43,12.81a24.92,24.92,0,0,1-3.11,9.44l-.66,2.22a153.35,153.35,0,0,1,1.71,52.89l6.27,10a61.51,61.51,0,0,1,28.68,6.87c11.64,6,22.86,16.13,35.8,14.11,4.09-.63,7.94-2.49,12.06-2.91,8.58-.87,16.39,4.52,24.65,7,8.84,2.66,18.31,2,27.45.72,7.84-1.07,15.91-2.63,22.33-7.25,9.33-6.7,13.42-18.5,21.16-27a131.32,131.32,0,0,0,22.08,12.74l-12.19,22.2c-7.93,14.43-16.08,29.73-15.73,46.19l.78,13.88c6.36-.31,12.88-.66,18.72-3.19s10.66-7.18,16-10.84a112.13,112.13,0,0,1,11.34-6.57c12.19-6.45,24.42-12.91,37.33-17.77s26.58-8.1,40.37-7.84l6.75,3.86,30.08-1.48c4.36-.22,8.73-.43,13.09-.24,3.3.15,6.58.53,9.89.53a85.67,85.67,0,0,0,12.26-1.19c13.88-2,28.59-3.94,41.5,1.54a5.65,5.65,0,0,1,2.69,1.91,6,6,0,0,1,.67,3.18l.61,25.18A36.56,36.56,0,0,0,1941.66,764l13.34,2.7a6.58,6.58,0,0,0,3.93,0c2.23-1,2.64-3.85,3.24-6.21s2.7-5,4.93-4.06l-1.49-4.79-10.69-10.07a10.38,10.38,0,0,1-2.53-3.08,10.49,10.49,0,0,1-.57-5c1-22.18.6-44.53-3.29-66.39s-11.37-43.28-23.8-61.69l7.72-11.48,38-17.73c3.93-1.83,8-3.75,10.87-7,6.54-7.27,4.87-19.56-2-26.53s-17.43-9.19-27.14-8.1-18.82,5.07-27.77,9L1900.69,554a9.34,9.34,0,0,1-5,1.14,9.07,9.07,0,0,1-3.81-1.93c-19.39-14.16-40-31.72-63.88-29.06,6-3,9.73-9.56,11-16.2s.61-13.49-.11-20.22c36.11-2.91,70.17-24.65,88-56.17,19.11-33.77,19.46-75.06,34.61-110.79C1970.4,300,1984,281.61,1998.15,264c3.42-4.26,6.95-8.63,8.6-13.83s1-11.54-3-15.21c-3.2-2.9-7.8-3.6-12.12-3.77-19.06-.72-37.59,6.43-54.38,15.48a239.2,239.2,0,0,0-70.28,57.59ZM1686.07,1525.65c-2.19,1-3.57,3.15-4.81,5.2L1670,1549.59a5.51,5.51,0,0,0-1,2.6c-.12,3.5,5.91,5.33,5,8.7a20.21,20.21,0,0,0-13.66,19.94l3,6.62c4.92,5.72,13.44,6.25,20.27,9.45a26.71,26.71,0,0,1,12.09,11.39c2.15,4,3.29,8.47,5.88,12.16,3.25,4.63,9.16,7.66,14.66,6.37,4.46-1,8-4.69,9.84-8.87s2.28-8.85,2.31-13.43c.14-20-6.76-39.73-17.51-56.64-4.51-7.09-9.89-13.93-17.2-18.07Z"></path>
    <path data-name="3a" data-official="" data-plain="Seed-vessel" data-loc="" d="M1062.71,2700a228.08,228.08,0,0,0-3.07-87.11c-4.43-19-11.3-37.51-14.59-56.78-2.58-15.09-2.93-30.45-3.07-45.76-.42-45.35.94-91.2,12.37-135.08,10.67-40.92,30-79.63,36-121.48,1.6-11.07,2.42-22.79,8.57-32.13s20-14.8,28.76-7.86c7.83,6.18,7.47,17.93,6.47,27.86-2.77,27.62-4.82,56,2.42,82.76,3.84,14.21,10.19,27.58,15.48,41.32a291.24,291.24,0,0,1,18.52,126.64c-4.4,56.77-25.34,110.87-48.26,163-4.68,10.64-9.51,21.42-11.06,32.94s.65,24.1,8.52,32.65c4,4.4,9.46,7.61,12.58,12.71,7.19,11.74-1.88,28-14.56,33.32s-27.14,3-40.7.65c-6-1.07-12.55-2.41-16.54-7.05-9.51-11.11,3.39-27.69,2.22-42.27Z"></path>
    <path data-name="3b" data-official="" data-plain="Seed" data-loc="" d="M1177.55,2715.19c5.36-18.15,10.43-38.71,1-55.13-3.36-5.87-8.34-10.67-11.83-16.46-10.6-17.61-4.51-42.29,11.19-55.56s38.66-15.85,58.29-9.75c8,2.49,15.88,6.52,20.92,13.22,8.22,10.94,7.07,26.41,2.46,39.29s-12.19,24.61-16.13,37.71a72.63,72.63,0,0,0,1.77,46.59c3.39,8.79,8.6,17.32,8.46,26.75-.27,18.28-20.38,30.08-38.58,31.86-12.38,1.21-25.86-.81-35-9.22s-11.84-24.42-3.12-33.3Z"></path>
    <path data-name="4" data-official="Nerium Oleander" data-plain="Common Oleander" data-loc="South Europe and India" d="M1247.77,2127.1c2.48-2.42,5.54-4.49,6.89-7.69,1.55-3.66.45-7.85-.66-11.67-1.44-4.91-2.93-9.94-6-14a42.09,42.09,0,0,0-7.38-7l-3.82-13c-23.09-62-46.35-124.69-54.79-190.32l5.75-10.24a86.63,86.63,0,0,1,55.78,27,9.35,9.35,0,0,0-.37-9c2.68,3.36,7.24,4.39,11.38,5.54s8.66,3.11,10.13,7.15l5.47,7.58c31.59,52.2,40.26,114.56,58,172.93,10.3,33.83,23.84,66.84,29.94,101.68,2.55,14.56,4.26,30.41,14.26,41.3,4.81,5.24,11.15,8.81,16.56,13.43s10.13,11,9.81,18.12c-.51,11.58-13.44,18.61-17.35,29.52-2.81,7.86-.55,16.48.81,24.72s1.43,17.74-4.47,23.64c-5,4.95-12.78,5.8-19.68,4.59s-13.39-4.15-20.21-5.73c-5.71-1.32-11.7-1.71-17.1-4-8.68-3.68-14.65-11.71-19.59-19.74-20.22-32.83-30.32-71-36.14-109.07-3-19.35-5-39.28-13.63-56.85Zm-294-848.88c-.9-6.08-5.67-11-7.08-16.92-.55-2.32-.58-4.77-1.47-7a9.67,9.67,0,0,0-8-5.89l-5.49,1.77a25,25,0,0,1-17.73,7l-5.32,1.93a10.64,10.64,0,0,0-2.59,4.69c-.4,2.54,1.07,4.94,2.07,7.31a21.35,21.35,0,0,1,1.57,10.42c-.25,2.39-.9,4.85-.25,7.17,1.52-.62,3.27.66,3.77,2.21a8.9,8.9,0,0,1-.26,4.84l4,1.19a140.46,140.46,0,0,0,31.91-13Zm-481.11-680c.11,4.5.2,9.11-1.29,13.35-3.25,9.2-13,14.46-17.84,23-3.55,6.3-4.05,13.84-3.9,21.06.18,8.37,1.16,16.88,4.56,24.53s9.5,14.4,17.44,17.07l4.75,2.39c21.13,5.4,42.84,11.07,60.39,24,3.3,2.43,6.47,5.13,10.2,6.84s8.24,2.3,11.88.4l8.15-.64a4.22,4.22,0,0,1,.79-3.06,90.61,90.61,0,0,1,6-9.25,9.21,9.21,0,0,1,2.75-2.74c1.81-1,4-.75,6.09-.73a24.71,24.71,0,0,0,18.39-8.13c1.42-1.58,2.67-3.39,4.45-4.54,5.66-3.65,12.78.75,18.92,3.5a38.56,38.56,0,0,0,36-2.74c16-10.32,22.58-31.39,38.78-41.36,7.94-4.89,17.42-6.58,26.71-7.35a156.14,156.14,0,0,1,23.79-.13,9.93,9.93,0,0,1,4.09.9c2.12,1.15,3.13,3.58,3.92,5.85,3,8.68,4.82,17.91,9.72,25.67s14.07,13.85,23,11.62l1.46,19.49c-8.4,17.54-14.84,37.38-10.09,56.23,1.55,6.13,4.22,11.9,6.88,17.64l11.6,25,4.23,9.77c11.19,6.94,16,20.41,21.93,32.18,11.82,23.52,30.57,43.21,40.92,67.43,7.22,16.91,10,35.3,14.23,53.21a346.33,346.33,0,0,0,27.11,75.16c6,12,12.76,23.94,14.92,37.17,1,6.38,1,13,2.85,19.16s6.22,12.22,12.54,13.55l5.39,6c23.7,8.09,43.18,25.26,60.19,43.63s32.35,38.45,51.31,54.81a104.41,104.41,0,0,0-59.07,8l-5.11.19c.86,5.55,2,11.15,4.79,16s7.27,9.07,12.78,10.17l7.05.7a129.76,129.76,0,0,1,30.62-1.6c5.94.39,12.6,1.64,15.86,6.62,1.55,2.37,2.07,5.26,3.23,7.85,5.32,11.93,22.61,15.35,26.85,27.71l2.22,7.13a43.62,43.62,0,0,1,11.19,26.63l1.07,4.68,8.21,12.13a31.79,31.79,0,0,0,5.73,7c4.28,3.56,10.23,4.74,14.21,8.62,2.77,2.71,4.28,6.42,5.72,10a220.88,220.88,0,0,1,23.69-9.89,15.43,15.43,0,0,1,3.7-13l5.19-.69c13.55-4.49,28.31-4.53,41.68-9.52l4.85,1.16c1.52,1,2.18,2.86,2.47,4.64,1.38,8.33-3,16.45-4.09,24.83-.42,3.43-.28,6.92-1,10.31s-2.35,6.81-5.39,8.46l-39,9.48a91.12,91.12,0,0,0-31.53,11.16c-1.68,1-3.44,2.14-4.05,4-.55,1.64-.06,3.52-.72,5.11s-2.25,2.47-3.61,3.5c-4.15,3.15-6.52,8.07-8.74,12.79l-7.67,16.33.16,9.44a114.41,114.41,0,0,0,.1,20.61l4.82,15.67c3.31,4.7,5.17,10.25,7,15.71l8.06,24.33c1.4,4.23,2.85,8.55,5.63,12s7.22,6,11.6,5.23a31.3,31.3,0,0,1-25.15,8.39l-10.17,6.42a19.65,19.65,0,0,1-11.82.57l-6.83,0a114,114,0,0,0-9.46-21.21c-14-24.27-36.16-42.43-56.09-62.09l-1-2.12a119.83,119.83,0,0,0-8.59,12.7,93.13,93.13,0,0,1-1.23-24.27l-.83-2.48a20.42,20.42,0,0,1-15.9,9.38c-4.53.25-9-1-13.4-2.13s-9-2-13.45-1.11-8.69,4.22-9.39,8.7c-1.8-4.49-.77-9.71,1.58-13.94s5.88-7.65,9.36-11a8.57,8.57,0,0,0-8,2.1,15.59,15.59,0,0,1,1.61-12.24,111.53,111.53,0,0,1-46.56-5.67l-1.44,0a22.46,22.46,0,0,1-13.72,17.92c-5.41,2.16-12.71,3.1-14.31,8.71l-26.24-1.4c-5.65,15.62-22,25.59-38.5,27.45s-33.06-3.16-48.17-10l-.67,1.57c-1.41,3.12,1.91,6.19,4.74,8.12,4,2.73,8,5.84,10.16,10.16,1.82,3.56,2.31,7.75,4.52,11.09,3.42,5.19,10.15,7.2,14.22,11.9,4.73,5.46,5.18,13.7,10,19.09,3.27,3.66,8.45,5.92,10,10.58,1.11,3.4-.08,7.18.79,10.65,1.78,7.05,11.41,10.86,11.22,18.13l18.25,15a667.87,667.87,0,0,0,90,.14l.93,10c10.24-6.17,22.33-8.33,34.11-10.35q18-3.09,36-6.12c12.41-2.08,25.34-4.11,37.41-.55l11.68,9.28q19,2.45,37.74,6.57a4.81,4.81,0,0,1,2.19.88c1.27,1.08,1.11,3,.93,4.71a42.85,42.85,0,0,0,3.33,21.53l2,8.37a21.41,21.41,0,0,1,1.36,8.1l5.4,6.73a740,740,0,0,1,23.51,85.9l2.37,5q13.2,10.17,27,19.45a26,26,0,0,0,8.16,4.14c3.22.76,6.67.31,9.81,1.36,2.52.84,4.62,2.57,6.87,4,3.92,2.43,8.75,3.9,13.17,2.58s7.94-6.1,6.66-10.53l-10.32-16.13q-5.51-28-9.2-56.35l-.36-3.51a88.58,88.58,0,0,1-3-17.85l2.52-5.75-2.65-8.18-1.58-11.45a7.23,7.23,0,0,1,.26-4.23,7.79,7.79,0,0,1,2.59-2.58c13.75-10.24,20.54-29,16.53-45.65l-1.32-8.55,2.61-25.39a32.84,32.84,0,0,1,1.69-8.65c1.18-3,3.2-5.57,4.69-8.42,2.25-4.31,3.22-9.14,4.45-13.85a123.76,123.76,0,0,1,5.88-17.24c1.6-3.77,3.53-7.64,6.89-10,3.64-2.56,8.44-3,12.12-5.51l7.13-4.1a84.8,84.8,0,0,0,34-44.34l1.55-12.32c.68-2.64,2.86-4.57,4.48-6.76.82-1.11,1.51-2.31,2.27-3.47,3.92-6,9.55-10.6,15.1-15.12l6.85-4.94c2.16-3.59,4.31-7.17,6.71-10.59,3.86-5.51,8.34-10.57,12.15-16.12s7-11.74,7.75-18.43l-.25-14.12L1372,1334c2.75-6.51,5.89-13.46,12-17l6.59-5.12a635.46,635.46,0,0,0,40.25-73.67c12.33-26.61,23-55.32,20.34-84.52a131.45,131.45,0,0,0,25.2-4.57l14.55-5.47.87-8.6c6.55-2.07,13.53-2.12,20.39-2.54s13.91-1.33,19.82-4.82l10.28-7.6c5.24-3.27,10.69-6.62,16.82-7.35,2.39-.29,4.84-.16,7.19-.67,1.85-.4,3.61-1.17,5.49-1.43a20,20,0,0,1,7.07.71l6-.59a105.36,105.36,0,0,0,53-24.47l1.28-6.59c9-2.75,15.51-10.39,23-16.12,6.74-5.16,14.46-8.86,22.12-12.52,6.36-3,13.46-6.15,20.22-4.15l7.07,2.2c35.89-11.5,68.62-31,103.26-45.8,7.59-3.25,15.31-6.3,22.3-10.68s12.9-9.8,19.88-13.89c7.85-4.61,17.62-8.27,20.65-16.85l2.48-3.66,13.67-10.15,6.16-4.58,4.63-3.44,15.34-11.4c7.36-5.46,14.72-10.94,21.6-17a25.4,25.4,0,0,0,5.16-5.65c1.08-1.79,1.74-3.81,2.72-5.66,6-11.24,21.63-13.61,29.3-23.75,2.7-3.57,4.27-7.94,7.32-11.22s8.57-5.05,11.91-2.08l8.26-3.29c9.23-2.46,11.46-15.19,19.63-20.16,3.76-2.28,8.5-2.72,12-5.42,5-3.85,5.77-11.15,4.45-17.29-3.2-14.91-15.81-25.88-28.71-34s-27.13-14.82-37.26-26.22l-9.13-.57c-2.23-1-4.33,1.71-4.93,4.06s-1,5.24-3.24,6.21a6.58,6.58,0,0,1-3.93,0l-13.34-2.7a36.56,36.56,0,0,1-10.88,27.51l-.61-25.18a6,6,0,0,0-.67-3.18,5.65,5.65,0,0,0-2.69-1.91c-12.91-5.48-27.62-3.57-41.5-1.54a85.67,85.67,0,0,1-12.26,1.19c-3.31,0-6.59-.38-9.89-.53-4.36-.19-8.73,0-13.09.24L1820,762.07l-6.75-3.86c-13.79-.26-27.47,3-40.37,7.84s-25.14,11.32-37.33,17.77a112.13,112.13,0,0,0-11.34,6.57c-5.32,3.66-10.06,8.27-16,10.84s-12.36,2.88-18.72,3.19l-.78-13.88-9.19,10.28a547.73,547.73,0,0,0-173.1,79.47A324.18,324.18,0,0,0,1526.37,733l-3.94-15.08-6.27-10a153.35,153.35,0,0,0-1.71-52.89l.66-2.22a24.92,24.92,0,0,0,3.11-9.44c6.6-3,12.35-7.63,17.43-12.81,19.8-20.19,29.78-48.31,49.08-69l2.92-6.11a78.35,78.35,0,0,0,19.12-28.22l-4.27-4.8A115,115,0,0,0,1550.42,544c11.06-17.51,27.59-31.07,45.69-41.11s37.85-16.75,57.66-22.75c6.07-1.84,12.51-3.84,16.64-8.65l3.77-7.87,1.2-12.63-16.78-44.83c-3-8-6.06-16.13-11.19-22.95A45.42,45.42,0,0,0,1613,365.4c-3.18-.09-7.24-.42-8.19-3.46a7.16,7.16,0,0,1,.36-4.05c4.65-16.19,9.11-33,6.86-49.69s-12.88-33.39-29.18-37.64l-1.46-17.18c4.67-23.33-3-49.51-21.72-64.27s-48.05-15.44-65.62.61c-5.2,4.76-9.43,11.21-9.45,18.26a312.42,312.42,0,0,0-58.08-8.95,88.09,88.09,0,0,0,10.14-64.72c-2.42-10.32-7.06-20.6-15.49-27-12.87-9.79-30.78-8.24-46.82-6.23l1.93-11c3.47-21-12.15-40.9-30.36-52-28.33-17.27-65.06-19.94-95.6-7-3.43,1.46-7,3.14-10.69,2.94-2.7-.15-5.23-1.28-7.73-2.31a122.12,122.12,0,0,0-89.72-.95c-2.87,1.12-5.86,2.36-8.92,2-2.66-.3-5-1.76-7.43-2.95-12.7-6.29-28.27-5-41.07,1s-23.12,16.5-31.38,28c-3.84,5.35-7.39,11.07-12.5,15.22-10.95,8.89-26.44,8.75-40.53,8.18,1.51-6.72-1.71-13.81-6.58-18.68s-11.19-8-17.4-11L949.73,39.75c-5.17-2.5-10.6-5.07-16.34-4.92-7.65.2-14.49,5.3-18.74,11.66s-6.35,13.86-8.34,21.24Q894.79,110.59,885.52,154a91.9,91.9,0,0,0-32.78-.84l.55-10.78a147.76,147.76,0,0,0-82-86.5c-3.9-1.61-8.11-3.08-12.27-2.35-7.9,1.39-12.33,9.88-14.35,17.64-7.63,29.39,2.12,60.35,1,90.69-40.87-11.72-86.95-3.58-121.33,21.44-10.62,7.74-20.1,16.92-29.5,26.11C583,221,570.52,234,568.18,250.4l-12.28-7.35c-25.9-9.38-53.07-18.9-80.37-15.22-5.52.74-11.33,2.23-15.09,6.34-2.47,2.69-3.78,6.23-4.85,9.72a106.94,106.94,0,0,0,.19,62.75c5.63,18,15.94,34.17,24.43,51.05,5.46,10.84,10.23,22.11,17.15,32.08,11.46,16.5,28.13,28.52,44.46,40.2L533,436.74a214.06,214.06,0,0,0-43.8,60l2.44,7.46c4.84,6.14,4.26,15.21.75,22.2s-9.42,12.4-15.06,17.81c-2.64,2.53-5.46,5.95-4.28,9.4.24.7.64,1.34.85,2,.71,2.35-.72,4.74-1.26,7.13-1.54,6.68,3.84,13,4.2,19.87ZM691,971.86c-40.62-2.94-83.41-5.5-120.12,12.16-8.61,4.14-16.67,9.31-24.71,14.47l-9.42,6.42c6.21.22,13,.66,17.56,4.87,1.62,1.49,2.84,3.36,4.42,4.88,7.15,6.89,18.88,4.81,28.12,8.43,5.87,2.3,10.73,6.94,16.86,8.44,7.26,1.78,15.15-1.15,22.28,1.11,9.5,3,14.06,13.86,22.38,19.34l2.61,2.1c5.73,4.71,14.73-1.6,21.63,1.1a20,20,0,0,1,5.13,3.47c11.18,9.16,24.84,14.7,38.5,19.45,5,1.74,10.06,3.4,14.67,6,9.21,5.19,16,12.7,22.31,21.18,1.89,2.54,4.44,5.39,7.56,4.87l9.19,3.3a254.7,254.7,0,0,1,103.67,9.92l4.2-4c-7.77-11-15.57-22-21.92-33.88-8-15-14.55-32.32-29-41.33-5.29-3.3-11.31-5.22-17.18-7.32-12-4.28-23.64-9.4-35.28-14.52-14.09-6.19-28.62-12.7-38.93-24.13-5.67-6.27-10.16-14.09-17.71-17.91l-7.65-4.57Z"></path>
    <path data-name="4a" data-official="" data-plain="Stamen" data-loc="" d="M1317,2683.54l-15.69-150.95c-2.21-21.21-4.42-42.59-2.39-63.82s8.6-42.56,22.2-59c4.27-5.17,9.22-9.84,12.68-15.58,4-6.66,5.83-14.46,9.9-21.08,4.63-7.53,12.42-13.33,21.19-14.39s18.27,3.18,22.35,11c3.12,6,2.89,13.24,1.19,19.78-6.54,25.21-32.41,42.13-38,67.57-3.32,15.16,1.17,30.77,4.06,46,11.6,61.16-2.55,124-1.48,186.28.1,6.25.38,12.57,2.16,18.56,1.85,6.2,5.3,12,5.62,18.49.43,8.65-5.15,16.85-12.6,21.28s-16.44,5.57-25.09,5.14c-10.52-.53-21.91-3.92-27.58-12.8-4.76-7.44-4.38-17.27-1.18-25.5s8.86-15.23,14.43-22.08Z"></path>
    <path data-name="4b" data-official="" data-plain="Pistil" data-loc="" d="M1365.71,2681.05c.35-15.31,6.8-29.71,12-44.12a283.43,283.43,0,0,0,16.53-106.64c-.32-8.5-1-17.15,1.11-25.37s7.76-16.15,16-18.35c10.62-2.85,21.77,5,26.36,15s4.19,21.48,3.51,32.46c-1.06,17.39-2.61,34.84-6.8,51.75-8.86,35.83-29.54,71-22.4,107.18,2.09,10.59,6.52,20.62,8.52,31.23s1.13,22.62-6.08,30.65-18.63,10.11-29.28,10.49c-11.53.41-24.35-1.37-31.82-10.15l-5.14-7.48c7.45-4.43,13-12.63,12.6-21.28-.32-6.46-3.77-12.29-5.62-18.49Z"></path>
    <path data-name="5" data-official="Allamanda cathartica" data-plain="" data-loc="Guiana" d="M1678.41,1358.16a16.35,16.35,0,0,0,20.48-3.21c2.41-2.86,3.73-6.48,5.91-9.52a14.84,14.84,0,0,1,9.9-6.38c4-.48,8.41,1.54,10,5.25,1.49,3.47.41,7.59,1.74,11.12a8.7,8.7,0,0,0,5.44,5.16l4.47-1a331.06,331.06,0,0,1-3.64,69.33l-2.13,6.24a31.21,31.21,0,0,0-.17,8.36c.28,2.34.81,4.76.1,7-.15.48-.51,1-1,.94a1.2,1.2,0,0,1-.58-.4l-3.11-3.33-3.54,3.51-5.27-3.23c-11.52-14.17-28.16-23-44.34-31.49l-4-3.7c-1.72-16.27,5.89-32.7,2.93-48.8l.92-7.82Zm-171.87,8.65,4.19-4.22c.4-3,3.47-4.63,5.59-6.74,3.22-3.22,4.4-8,4.33-12.58s-1.23-9-2-13.51a10.25,10.25,0,0,0-1-3.37,8.25,8.25,0,0,0-1.66-1.93,30.44,30.44,0,0,0-13-7l-4.4-3.19-5.18-3.94a62.68,62.68,0,0,0-19.53-1.83l-4.19-1.65-2.66,3.48c-3.23,3.2-6.51,6.43-10.44,8.71-7.88,4.58-17.48,4.84-26.59,4.44-3.33-.14-6.94-.48-9.39-2.74l-.68-3.83-4.89-4.4a84.3,84.3,0,0,0-19.16-1.34l-5.3.79-6.59,5.12c-6.13,3.52-9.27,10.47-12,17L1360.13,1362l4.59,6.57,12-1.2,8.24.14,12-8a41.59,41.59,0,0,0,7.48-1.55,6.93,6.93,0,0,0,2.16,3.42,2.65,2.65,0,0,0,.84.53,3.35,3.35,0,0,0,1.72,0l15.58-3.06c3-.59,6.55-1,8.55,1.3l.42,9.49,5.65.64a366,366,0,0,1,57.35-4.71ZM944.39,1129.63l-5.39-6c-6.32-1.33-10.69-7.36-12.54-13.55s-1.8-12.78-2.85-19.16c-2.16-13.23-8.94-25.17-14.92-37.17a346.33,346.33,0,0,1-27.11-75.16c-4.19-17.91-7-36.3-14.23-53.21C857,901.17,838.25,881.48,826.43,858c-5.92-11.77-10.74-25.24-21.93-32.18L800.27,816,796,818.9c-13.74-16.33-35.36-23.92-50.67-38.79-4.19-4.08-7.88-8.68-12.4-12.39-5.25-4.31-11.45-7.27-17.67-10-24.53-10.77-51.79-19.43-68.38-40.47l-4.14-9a37.93,37.93,0,0,1-18.27-3.1l-10.89,5.13a150.5,150.5,0,0,0-10.15,16.89c-3.1,6-5.76,13.47-2.37,19.35,1.33,2.31,3.44,4,5.25,6s3.4,4.38,3.28,7L612,771.09l4.49,7.35c6.43,7.61,2.77,20.16,8.72,28.15-3.32,4.26-3.34,10.25-2.19,15.53s3.33,10.34,3.92,15.72c.42,3.86,0,7.79.46,11.65A51,51,0,0,0,630.18,860a45.1,45.1,0,0,0,4.55,10.4c2.2,3.37,5.26,6.08,7.8,9.19s4.64,6.94,4.35,11L635.7,908.14c5,10,11.92,19,18.77,27.9,4.83,6.28,9.71,12.62,15.8,17.7a90.94,90.94,0,0,0,14.38,9.4q12.42,6.87,25.49,12.51l7.65,4.57c7.55,3.82,12,11.64,17.71,17.91,10.31,11.43,24.84,17.94,38.93,24.13,11.64,5.12,23.3,10.24,35.28,14.52,5.87,2.1,11.89,4,17.18,7.32,14.49,9,21,26.28,29,41.33,6.35,11.86,14.15,22.89,21.92,33.88l-4.2,4,5.54,6.37a391.66,391.66,0,0,1,52.13,111.45l.39,9,5.49-1.77a9.67,9.67,0,0,1,8,5.89c.89,2.2.92,4.65,1.47,7,1.41,6,6.18,10.84,7.08,16.92l-4.92,5.68a140.46,140.46,0,0,1-31.91,13l-4-1.19a8.9,8.9,0,0,0,.26-4.84c-.5-1.55-2.25-2.83-3.77-2.21-.65-2.32,0-4.78.25-7.17a21.35,21.35,0,0,0-1.57-10.42c-1-2.37-2.47-4.77-2.07-7.31a10.64,10.64,0,0,1,2.59-4.69l5.32-1.93-.68-7.16c-1.28-12.83-2.78-26.28-10.16-36.86s-22.72-16.77-33.58-9.83c-2.07,1.33-4,3.11-6.46,3.41a12,12,0,0,1-4.58-.63,101,101,0,0,0-85.36,17.06,33.41,33.41,0,0,0-2.53-21.43c-3.06-6.34-8.07-11.54-11.4-17.74-5.06-9.41-6-20.65-4.21-31.19s6-20.51,10.71-30.08l4.25-9.28-9.19-3.3c-3.12.52-5.67-2.33-7.56-4.87-6.31-8.48-13.1-16-22.31-21.18-4.61-2.59-9.68-4.25-14.67-6-13.66-4.75-27.32-10.29-38.5-19.45a20,20,0,0,0-5.13-3.47c-6.9-2.7-15.9,3.61-21.63-1.1l-2.61-2.1c-8.32-5.48-12.88-16.33-22.38-19.34-7.13-2.26-15,.67-22.28-1.11-6.13-1.5-11-6.14-16.86-8.44-9.24-3.62-21-1.54-28.12-8.43-1.58-1.52-2.8-3.39-4.42-4.88-4.57-4.21-11.35-4.65-17.56-4.87l-11.15-5.86a9.5,9.5,0,0,0-3.4,5.39c-.55,2.46-.4,5.61-2.63,6.77a5.9,5.9,0,0,1-2.8.46h-5.52a8.92,8.92,0,0,1-3.85-.57,13.79,13.79,0,0,1-3.12-2.6c-4.39-4-11.34-4.22-16.66-1.61s-9.13,7.61-11.61,13l-4.43,6.92c-4.37,14,4.84,29.11,1.82,43.41-.5,2.34-1.31,4.6-1.77,7-1.3,6.69.25,14.21-3.43,19.95l-6.44-7.83-7.89,5.79c7.36,12.73,5.35,30.17-4.7,40.89,1.53,4.93,3,10.47.68,15.08-2.61,5.15-9.56,8.18-9.6,14l-2,9.08a170.86,170.86,0,0,1-11.7,16.46l-8.13,6.92c-5.73,5.58-13.14,10.29-21.12,9.81-9.8-.6-18.07-8.85-27.89-8.72-5,.06-9.73,2.35-14.63,3.43-6.67,1.48-13.59.72-20.4.33-11.29-.66-22.81-.3-33.57,3.14s-20.8,10.23-26.34,20.08a52.34,52.34,0,0,0-5.42,16.1c-.82,4.41-1.43,9.13-4.29,12.59a18.4,18.4,0,0,1-7.89,5.09c-15.58,5.9-33.06,2.12-48.94-3l9.14,10.24A236.9,236.9,0,0,0,183.43,1337c-2,7.06-3.73,14.37-3.09,21.69,1.07,12.15,8.51,22.89,17.34,31.3s19.18,15.06,28.34,23.11a122.9,122.9,0,0,1,40.44,76.58l-.72,14.69,4.68,13.35c3.86,4.28,4.32,10.54,4.59,16.29.44,9.38.87,18.82-.32,28.14a56,56,0,0,0-.81,8.84,21,21,0,0,0,5.92,13.89l.69,1a17.89,17.89,0,0,0,3.32,12c1.77,2.43,4.12,4.36,6.16,6.56,4.85,5.24,7.85,11.9,12,17.73s10.11,11.13,17.25,11.38l1.25.85a28.06,28.06,0,0,0,13.49,21.6c5.14,3,11.19,4.35,16.07,7.76,6.92,4.82,10.52,13.07,13.18,21.07,1.16,3.51,2.3,7.19,4.84,9.87.25.26.59.53.94.44s.34-.78,0-.71l.66,1.37c-2.54,2.43-.93,6.9,1.76,9.17s6.21,3.48,8.57,6.09c1.2,1.32,2.12,3,3.76,3.73a11.72,11.72,0,0,0,2.64.57c4,.69,7.32,3.29,11,5.09,7.13,3.52,15.6,3.87,23.27,1.76a48.91,48.91,0,0,0,20.32-12,63.88,63.88,0,0,0,8.59-10.12c2.65-3.87,5.42-8.43,10-9.3l5-4.15a54.69,54.69,0,0,1,8.59-13.32l8.44-10.86-.13-4.6c-.67-3.8-1.32-7.89.3-11.4a13.35,13.35,0,0,1,4.53-5.09,21.74,21.74,0,0,1,11.65-4c3.51-.13,7.34.52,10.29-1.39,1.59-1,3.57-2.75,5-1.51a3.35,3.35,0,0,1,.8,1.38l9.58,25.26,3.64,4a23.53,23.53,0,0,0,23,8.38l3.64-1.41a72.72,72.72,0,0,0,11.14.3,51.23,51.23,0,0,1,5.66-.38,8.86,8.86,0,0,1,5.32,1.72l.8,4.9,5,2.77L599,1690l6.87,4.6,13.6-1.87c1.81-2.78,5.43-3.91,8.74-3.64s6.38,1.7,9.38,3.12c8.32,3.93,16.74,7.91,23.87,13.72,3.73,3,7.11,6.57,11.37,8.79,8.61,4.49,19.41,2.71,27.88-2,3.32-1.86,6.41-4.14,9.89-5.68,6.85-3,14.63-2.93,22.12-2.78,2.13-7,5.07-14.88,11.93-17.38,2.39-.87,5-1,7.41-1.78,4.38-1.5,7.61-5.26,11.74-7.33,5.24-2.62,11.47-2.31,17.18-1s11.22,3.43,17,4.38c6.22,1,12.59.61,18.89.19l6.16-.69h11.17a35.26,35.26,0,0,0,35.61-30.28c.72-5.09.33-10.26-.06-15.39l-1.19-15.46,1.37-9-18.25-15c.19-7.27-9.44-11.08-11.22-18.13-.87-3.47.32-7.25-.79-10.65-1.53-4.66-6.71-6.92-10-10.58-4.8-5.39-5.25-13.63-10-19.09-4.07-4.7-10.8-6.71-14.22-11.9-2.21-3.34-2.7-7.53-4.52-11.09-2.19-4.32-6.16-7.43-10.16-10.16-2.83-1.93-6.15-5-4.74-8.12l.67-1.57c15.11,6.88,31.67,11.9,48.17,10s32.85-11.83,38.5-27.45l26.24,1.4c1.6-5.61,8.9-6.55,14.31-8.71a22.46,22.46,0,0,0,13.72-17.92l1.44,0a111.53,111.53,0,0,0,46.56,5.67,15.59,15.59,0,0,0-1.61,12.24,8.57,8.57,0,0,1,8-2.1c-3.48,3.35-7,6.78-9.36,11s-3.38,9.45-1.58,13.94c.7-4.48,4.95-7.76,9.39-8.7s9,0,13.45,1.11,8.87,2.38,13.4,2.13a20.42,20.42,0,0,0,15.9-9.38l.83,2.48a93.13,93.13,0,0,0,1.23,24.27,119.83,119.83,0,0,1,8.59-12.7l1,2.12c19.93,19.66,42.14,37.82,56.09,62.09a114,114,0,0,1,9.46,21.21l6.83,0a19.65,19.65,0,0,0,11.82-.57l10.17-6.42a31.3,31.3,0,0,0,25.15-8.39c-4.38.75-8.82-1.75-11.6-5.23s-4.23-7.79-5.63-12l-8.06-24.33c-1.8-5.46-3.66-11-7-15.71l-4.82-15.67a114.41,114.41,0,0,1-.1-20.61l-.16-9.44,7.67-16.33c2.22-4.72,4.59-9.64,8.74-12.79,1.36-1,3-1.94,3.61-3.5s.17-3.47.72-5.11c.61-1.84,2.37-3,4.05-4a91.12,91.12,0,0,1,31.53-11.16l4.61,2.92a164.12,164.12,0,0,0,28-7.18l6.35-5.22c3-1.65,4.71-5.07,5.39-8.46s.53-6.88,1-10.31c1-8.38,5.47-16.5,4.09-24.83-.29-1.78-1-3.65-2.47-4.64l-4.85-1.16c-13.37,5-28.13,5-41.68,9.52l-5.19.69a15.43,15.43,0,0,0-3.7,13,220.88,220.88,0,0,0-23.69,9.89c-1.44-3.6-3-7.31-5.72-10-4-3.88-9.93-5.06-14.21-8.62a31.79,31.79,0,0,1-5.73-7l-8.21-12.13-1.07-4.68a43.62,43.62,0,0,0-11.19-26.63l-2.22-7.13c-4.24-12.36-21.53-15.78-26.85-27.71-1.16-2.59-1.68-5.48-3.23-7.85-3.26-5-9.92-6.23-15.86-6.62a129.76,129.76,0,0,0-30.62,1.6l-7.05-.7c-5.51-1.1-10-5.26-12.78-10.17s-3.93-10.5-4.79-16l5.11-.19-1.94-8.48a473.78,473.78,0,0,1-40.48-82.32Z"></path>
    <path data-name="5a" data-official="" data-plain="Tube of Corolla, opened" data-loc="" d="M1883,2745.16c-7-14.1-6-30.69-4.78-46.39l15.09-200.07c2.32-30.68,4.45-62.59-6.87-91.2-4.86-12.29-12.06-23.52-17.47-35.57a134.19,134.19,0,0,1-10.24-74.39c.54-3.6,1.26-7.28,3.16-10.39,2.4-3.94,6.42-6.57,10.39-8.91a188.43,188.43,0,0,1,104.88-25.83c15.23.78,31.77,4.2,41.41,16,4.94,6.07,7.5,13.74,9.12,21.4,4.58,21.64,2.44,44,1.35,66.14-3.31,67.28,3.36,134.67,2.26,202s-10.59,136.43-43.49,195.21c-3.27,5.85-6.86,11.69-12,16-7.52,6.37-17.51,8.84-27.11,11.11-12.81,3-26.26,6.06-39,2.68s-24.16-15.5-22-28.48Z"></path>
    <path data-name="5b" data-official="" data-plain="Pistil" data-loc="" d="M1819.44,2680.25q.66-88.52-.28-177c-.09-8.52-.2-17.11-2-25.44-2.16-9.8-6.64-18.92-9.65-28.49s-4.48-20.21-.61-29.47c5.63-13.48,21.07-20.32,35.62-21.59,11.21-1,23.51,1,31.38,9.07,7.73,7.9,9.54,20,8.28,31s-5.14,21.47-7.23,32.32c-2,10.38-2.36,21-2.69,31.54q-2.87,90.78-4.36,181.59c-.29,17.85-.54,35.85,2.77,53.4,1,5.21,2.18,11-.58,15.52-2.31,3.77-6.76,5.59-11,6.84a88.79,88.79,0,0,1-27.3,3.6c-5.6-.13-11.61-1-15.71-4.81-5.24-4.88-5.7-12.9-5.64-20.07.12-16.26,1-32.53,2.74-48.71Z"></path>
    <path data-name="5c" data-official="" data-plain="Stamen" data-loc="" d="M1704.38,2730.13a153.74,153.74,0,0,0,7.7-114.6c-3.39-10.22-7.92-20.32-8.35-31.08-.3-7.64,1.5-15.2,3.41-22.61a704.86,704.86,0,0,1,26.83-82.68c4.3-10.91,9.32-22.29,18.91-29s25.1-6.39,31.07,3.7c3.14,5.28,3,11.8,3.07,17.94.5,46.7,17.7,94.3,4.56,139.11-6.17,21-18.92,40.89-17.77,62.76.41,7.76,2.59,15.3,4,23a111.38,111.38,0,0,1,1.75,21c-.09,7.13-1,14.55-4.79,20.57-6.28,9.88-18.85,13.6-30.48,14.92-15.09,1.7-32.34-.27-41.93-12Z"></path>
    <path data-name="6" data-official="Stapelia marginata" data-plain="" data-loc="Cape of Good Hope" d="M1358.1,2186c2.55,14.56,4.26,30.41,14.26,41.3,4.81,5.24,11.15,8.81,16.56,13.43l5.14-9.44c1.45-10.26,13-16.68,23.29-16s19.55,6.58,27.9,12.71,16.68,12.85,26.67,15.62c-1.6,37.14-1.81,75.12,9.57,110.51s36.23,68.29,71.33,80.54c11.94,4.16,28.91,3.49,32.84-8.53,1.67-5.12.21-10.67-1.1-15.9-3.33-13.27-5.6-27.58-.8-40.39,6.29-16.79,24.15-29.73,23.08-47.62l9.53,3.28c6.92,13.72,27.77,10.24,40.9,18.23,15.08,9.17,16.06,30.25,24,46,13.45,26.89,48.33,37.13,77.85,31.41,7.53-1.46,15.12-3.87,21-8.81s9.71-12.85,8.1-20.35c-3.28-15.28-24.06-18.57-34-30.65-5.83-7.11-7.38-16.73-8.13-25.89-2.72-33.2,1.68-69.06-15.52-97.59a111.51,111.51,0,0,0,59.65-60.39c5.83-14.45,9-30.86,20.38-41.54,14.39-13.58,36.87-13.21,56.27-9.36,12.38,2.46,25.84,5.86,37.09.15,13.07-6.63,17.83-24.37,12.72-38.12s-18-23.45-31.78-28.35-28.72-5.66-43.36-6.37l-54.62-2.68c-10.46-.51-21.23-1.1-30.69-5.58-10.33-4.89-21.15-14.46-31.49-9.58l-6.62-13.32c-2.9-12-5.52-25.65,1.46-35.82,8.67-12.65,29.29-15,34-29.63,3.26-10-3.45-21.07-12.68-26.07s-20.21-5.28-30.69-4.87c-25.57,1-51.29,5.44-74.58,16.06a126.76,126.76,0,0,0-31.32,20c-24.92,22-38.43,53.84-51.16,84.55a617.54,617.54,0,0,1-31-152.3l6.63-11.88a65.92,65.92,0,0,0,30-21.34c61.08,30.24,139.69,20.7,191.76-23.27,21.34-18,38-40.81,54.55-63.35,8.4-11.48,16.85-23,22.87-35.94,5.44-11.65,8.78-24.17,11.42-36.76,7.52-35.83,9.49-73.07,3.1-109.11-1.8-10.14-4.8-21-13.11-27.11-5.12-3.75-11.56-5.12-17.83-6.1-13.14-2.07-26.78-2.85-39.62.66s-24.86,11.82-30.28,24l-13.28,20c0,4.58-.45,9.25-2.31,13.43s-5.38,7.82-9.84,8.87c-5.5,1.29-11.41-1.74-14.66-6.37-2.59-3.69-3.73-8.2-5.88-12.16a26.71,26.71,0,0,0-12.09-11.39c-6.83-3.2-15.35-3.73-20.27-9.45l-3-6.62a20.21,20.21,0,0,1,13.66-19.94c.94-3.37-5.09-5.2-5-8.7a5.51,5.51,0,0,1,1-2.6l11.29-18.74c1.24-2,2.62-4.23,4.81-5.2l7-1.66c1.94-2.36,3.74-5,4.23-8a36.45,36.45,0,0,0,0-6.44,9.06,9.06,0,0,1,1.67-6.09l4.88-3.94c-1.6-4.85-.89-10.22.86-15s4.51-9.16,7.11-13.56q5.65-9.59,10.48-19.65l-5.27-3.23c-11.52-14.17-28.16-23-44.34-31.49l-4-3.7-.9,17.28c-4.86,3.51-6.16,10.59-11.14,13.94-2.43,1.63-5.42,2.15-8.15,3.21-8.88,3.45-14.34,12.37-18,21.17-1.53,3.69-3.48,8-7.41,8.78a11.41,11.41,0,0,1-3.45,0l-9.32-1a4.71,4.71,0,0,0-2.53.19c-2.52,1.18-1.17,4.91-1,7.7.28,4.7-4.08,9.22-2.49,13.65.42,1.18,1.25,2.33,1,3.54a4.22,4.22,0,0,1-1.54,2c-5,4.39-10.33,10-9.64,16.66-6.37,2.22-14-4.86-19.6-1.17l-9.41-.18c-11.68-3.13-19-14.6-23.81-25.7s-8.57-23.27-17.44-31.5l-3.38-3.9c.52,3.69-3.35,7-7.07,6.71s-6.78-3.36-8-6.87l-8.19,5.8c-7.31,4.19-16.22,5-23.31,9.61-6.7,4.3-11,11.38-15.08,18.22a63.86,63.86,0,0,0-6.2,12.33c-1.36,4.09-1.88,8.41-2.71,12.64a87.59,87.59,0,0,1-6.94,21c-.56,1.18-1.28,2.47-2.54,2.84a4.23,4.23,0,0,1-2.09,0c-6-1.3-10.85-6-13.91-11.28s-4.65-11.36-6.37-17.27q-1.89-6.51-4.07-12.93c-1.29-3.84-2.91-8-6.39-10-1.94-1.16-4.29-1.54-6.18-2.78-3.78-2.48-4.71-7.5-7-11.41a17.54,17.54,0,0,0-12.76-8.5l-5.35-3-5.1,4.34c-2.75,6.35-10.6,8.3-16.23,12.32-3.35,2.39-6,5.62-8.6,8.82-2.38,2.92-4.83,6-5.72,9.65-.94,3.9,0,8,0,12a1.18,1.18,0,0,1-1.3,1.48l-4,.43c.74,1.12-.16,2.73-1.42,3.21a6.79,6.79,0,0,1-4-.12c-1.68-7-3.33-14.17-2.3-21.28s4.59-13.85,3-20.72l2.15-8.09a54.89,54.89,0,0,1,3.26-8.56l-9.21-29.81c-5.55,4.52-11.18,9.14-15.1,15.12-.76,1.16-1.45,2.36-2.27,3.47-1.62,2.19-3.8,4.12-4.48,6.76l-1.55,12.32-2.38,19.69c-.79,6.62-2.51,13.11-3.08,19.75s.12,13.67,3.76,19.26l4,5.51a25,25,0,0,1,10.72-5.38,18.43,18.43,0,0,0,6.52,8.18,3.6,3.6,0,0,1,1.36,1.32,3,3,0,0,1,.22,1c.21,2.17.4,4.45-.53,6.42a25.17,25.17,0,0,1-2.87,3.83c-1,1.29-1.64,3-1,4.48.68,1.66,2.72,2.34,4.51,2.2,1.31-.11,2.64-.55,3.93-.27s2.45,1.77,1.76,2.9l-3.36,5.81q-5.37,8.68-10.75,17.35a4.81,4.81,0,0,1-1.65,1.84,4,4,0,0,1-2,.34c-6.37-.15-11.7-5.47-13.87-11.46s-1.84-12.58-1.41-18.94l-6.38-3.07c-6.78-3.74-11.25-10.5-15.46-17l-8.26-12.77-4.95-2.58c-3.68,2.51-8.48,3-12.12,5.51-3.36,2.37-5.29,6.24-6.89,10a123.76,123.76,0,0,0-5.88,17.24c-1.23,4.71-2.2,9.54-4.45,13.85-1.49,2.85-3.51,5.43-4.69,8.42a32.84,32.84,0,0,0-1.69,8.65l-2.61,25.39,1.32,8.55a44.24,44.24,0,0,1-1.8,25.77l11.13,13.5a15.46,15.46,0,0,1,5.06-3.83,31.55,31.55,0,0,1,5.22-1.16,17.08,17.08,0,0,0,10.07-6.57,62.35,62.35,0,0,1,12.51,12.88,3.26,3.26,0,0,1,.78,1.77,3.18,3.18,0,0,1-.44,1.46,132.86,132.86,0,0,1-10.38,16.67l-10.35,14.94a7.52,7.52,0,0,1-2.22,2.37,8.24,8.24,0,0,1-3.38.77,44.79,44.79,0,0,0-30.86,17.12l.36,3.51q3.69,28.32,9.2,56.35l10.32,16.13c1.28,4.43-2.24,9.22-6.66,10.53s-9.25-.15-13.17-2.58c-2.25-1.4-4.35-3.13-6.87-4-3.14-1-6.59-.6-9.81-1.36a26,26,0,0,1-8.16-4.14q-13.85-9.29-27-19.45l-2.37-5-16.89-5.89a110.14,110.14,0,0,0-52.24,8.46l-22.18,13.73-3.09,6.72-13.68,19.84c-3.16,4.58-6.38,9.23-10.66,12.8a61.3,61.3,0,0,1-11.76,7.12l-16.62,8.44,7.87,9.63c5.55,13,14.39,25.87,27.88,30,9.52,2.9,19.76.9,29.52-1.1l41.14-8.48,10.81-4.2,12.16-8.42a12.22,12.22,0,0,1,7.62,4.44,1.33,1.33,0,0,0,.55.48,1.21,1.21,0,0,0,.93-.21l3.13-1.67a2,2,0,0,1,1.06-.34c.92.06,1.28,1.18,1.6,2,.95,2.56,3.32,4.25,5.41,6s4.15,4.07,4,6.8l-2.24,7.16L1182,1883.4l5.75-10.24a86.63,86.63,0,0,1,55.78,27,9.35,9.35,0,0,0-.37-9c2.68,3.36,7.24,4.39,11.38,5.54s8.66,3.11,10.13,7.15l5.47,7.58,22.24,22.8c16.55-.81,29.18,13.93,44.14,21,15.33,7.3,33.15,6.44,50.07,5,14.32-1.19,30.55-3.77,38.48-15.76,4-6,5.09-13.36,8.16-19.84,6.36-13.46,20.13-21.54,33.12-28.81a481,481,0,0,0-.27,114.51c3.44,29.28,11.2,60.91,34.78,78.6-12.71,5.95-27.44,4.5-41.45,5.34-38.29,2.29-75,23.74-95.72,56Z"></path>
    <path data-name="7a" data-official="Asclepias Syriaca" data-plain="Flower" data-loc="" d="M474.66,2684.66c-7.79.07-12.84-9.07-12-16.81s5.43-14.47,8.86-21.46c9.35-19.14,9.91-42,3.28-62.24-5.3-16.16-15-31.05-16.9-47.94-.83-7.24.95-16.21,7.82-18.63,2.66-.94,5.57-.66,8.38-.51,7.23.38,14.8-.26,21-3.94,7.47-4.42,12.16-12.71,19.9-16.64,6.86-3.5,15.13-3,22.54-.9s14.32,5.67,21.59,8.21a81.83,81.83,0,0,0,31.42,4.44c9.9-.54,21.56-2.25,28.16,5.15,5.67,6.38,4.26,16.38.79,24.17-4.3,9.65-11.15,18-19,25-4.22,3.76-8.94,7.41-11,12.69-2.47,6.38-.42,13.54,1.73,20.05q6.13,18.57,13.23,36.81c3.21,8.25,6.59,16.58,7.55,25.39s-.83,18.34-6.85,24.84c-6.3,6.8-16.82,10.06-20,18.77-2.46,6.71.47,14.44-1.74,21.23-2.83,8.7-12.76,12.7-21.72,14.53a116.63,116.63,0,0,1-23.8,2.34c-6.32,0-13.43-1-17.28-6-1.76-2.29-2.58-5.14-3.57-7.86a58.88,58.88,0,0,0-26.16-30.8Z"></path>
    <path data-name="7b" data-official="" data-plain="Stamen" data-loc="" d="M418.46,2660.25c-.8-7.33-4.77-13.87-8.46-20.25-9.11-15.7-17.35-32.61-18.28-50.73-.71-13.84,2.87-27.94-.2-41.46-1.89-8.33-6.29-16.44-5.09-24.9a6.76,6.76,0,0,1,2.06-4.43,7.4,7.4,0,0,1,4.63-1.17c9-.1,17.82,2.46,26.15,5.86,8.66,3.55,17.12,8.18,23.3,15.21,7.9,9,11.35,21.06,13,32.92s1.7,23.92,4,35.67c2.71,14,8.33,29.2,1.43,41.64-1.51,2.72-3.55,5.11-5.11,7.8-5.69,9.83-4.23,22.22-.82,33.05,1.85,5.87,4.24,11.67,4.72,17.82s-1.34,12.91-6.37,16.47a23,23,0,0,1-7.77,3.16,110.83,110.83,0,0,1-25.37,3.46c-4.75.09-9.62-.15-14-2-9.79-4.21-14.64-16.18-13-26.71s8.64-19.55,16.86-26.34Z"></path>
    <path data-name="7c" data-official="" data-plain="Seed-vessel" data-loc="" d="M72.35,2413.36c-.67,15.15.22,30.32,1.12,45.46,3.25,55.26,7,112.5,33.13,161.32l6,13.23,30.57,53.74c6.37,11.2,13.29,22.95,24.6,29.12,8.46,4.61,19.27,6.09,24.93,13.88,4.23,5.84,4.61,14.18,10,19,3.82,3.45,9.27,4.25,14.38,4.91,7.71,1,15.53,2,23.22.86s15.38-4.58,19.88-10.92,5.36-14.75,9.9-21.08c5.22-7.3,14.41-10.58,23.23-12.28s18-2.3,26.17-6c14-6.37,22.6-20.76,28.14-35.11,11.22-29.06,13.61-61,25.81-89.7,5.32-12.51,12.65-25.76,9.12-38.89-2.29-8.54-8.81-15.17-13.85-22.44s-8.74-16.9-4.73-24.78l1.28-11.76a195.35,195.35,0,0,0-15.45-90.76c-16.64-38.55-45.34-70.85-62.81-109a210.24,210.24,0,0,1-12.42-138.22c7.33-28.75,20.82-59,10.53-86.77-1.94-5.24-4.77-10.28-9-13.91-4.47-3.81-10.17-5.82-15.79-7.52a221.25,221.25,0,0,0-156.4,11.42c-12.34,5.8-24.7,13.3-31.34,25.21-4.24,7.6-5.8,16.4-6.5,25.07A145.67,145.67,0,0,0,93.91,2195c6.18,8.32,13.65,17.1,13.06,27.45-.23,4.16-1.78,8.1-3.26,12a435.12,435.12,0,0,0-28.28,164.22Z"></path>
    <path data-name="8a" data-official="Glossonema Boryanum" data-plain="Stamens and Pistil" data-loc="" d="M646.26,2647.3l5.48-18.05c1.42-4.65,2.76-9.94.3-14.12-2.1-3.58-6.34-5.18-9.7-7.6a21.81,21.81,0,0,1-8.67-20.28c1.13-8,6.64-14.65,12.14-20.6,9.19-9.94,19.71-19.72,32.93-22.62,19-4.18,38.14,7.08,51.94,20.8,6.09,6,11.75,12.92,14.11,21.16s.73,18.11-5.87,23.59c-2.35,2-5.18,3.25-7.58,5.14-9.26,7.3-9.88,20.85-9.71,32.64q.23,15.36.46,30.74c.1,6.82.19,13.73-1.45,20.36s-5.24,13-11,16.62c-5.11,3.16-11.33,3.83-17.31,4.43l-17.66,1.76c-5.09.5-10.3,1-15.27-.2s-9.75-4.46-11.37-9.31c-3-8.94,5.43-17.41,7.5-26.61,1.78-7.94-1.36-16.21-5.71-23.09Z"></path>
</svg>
