
<svg xmlns="http://www.w3.org/2000/svg" viewBox="0 0 2082 2843" id="illustration" preserveAspectRatio="xMidYMid meet">
    <title>Gentianaceæ</title>
    <path data-name="1" data-official="Gentiana acaulis" data-plain="Dwarf Gentian" data-loc="Europe" d="M1101.34,1449.62c-2.53.52-4.36-2.47-4.68-5s-.08-5.48-1.85-7.36c-2.38-2.54-6.5-1.44-10-1.28-4,.19-7.94-1.15-11.89-2a48.49,48.49,0,0,0-34.08,5.44l-6,2.69-8.86,2.37a30.78,30.78,0,0,0-8.78,3.34,31.31,31.31,0,0,0-6.68,6.48l-12.68,15.08c-3.11,3.69-6.39,7.51-10.87,9.31-3.43,1.37-7.38,1.47-10.47,3.5-2.18,1.44-3.68,3.68-5.52,5.54s-4.41,3.4-7,2.82l-6.85,0-26.72.7-5.62.29c-2,0-3.59,1.71-4.59,3.45s-1.79,3.71-3.4,4.92c-3.93,3-10.45-.23-14.11,3.07-1.43,1.29-2,3.29-3.27,4.76a6.66,6.66,0,0,1-7.51,1.73l-5.93,2.17c-3.13,6.51-11.48,8.79-15.66,14.68-1.34,1.89-2.32,4.21-4.35,5.34-.71.39-1.52.61-2.22,1a7.43,7.43,0,0,0-2.62,4c-2.85,7.85-3.41,16.31-4.85,24.54s-4,16.67-9.88,22.58c-3.49,3.5-8,5.91-11.46,9.41s-6,8.85-4,13.39l2,5.89a13.89,13.89,0,0,0,1.9,8.67,40.89,40.89,0,0,0,5.48,7.17l5.05,5.7a1.9,1.9,0,0,1,.56,1c.07.55-.32,1-.57,1.52a3.25,3.25,0,0,0,3.69,4.64l.4.91c.64,5.58,1.14,11.73-2.1,16.31a57.23,57.23,0,0,1-4.44,4.78c-4.39,4.85-6.1,11.48-7.67,17.83,3.61-3.21,8.88-3.46,13.71-3.54l19.4-.32a3.86,3.86,0,0,1,2.84.71,7.32,7.32,0,0,1,1.1,2.09c1.14,2.21,4,2.86,6.47,2.79s5-.61,7.37.2a2.18,2.18,0,0,1,1.41,1.09c.28.67,0,1.53.39,2.13.59.84,2,.47,2.77,1.15,1.18,1-.34,3.24.57,4.53a2.51,2.51,0,0,0,1.66.83,10.64,10.64,0,0,0,10.82-5l3.13-4a71.46,71.46,0,0,1-.46-11.42c.07-1.62.33-3.48,1.7-4.34a4.34,4.34,0,0,1,2.64-.45c4.4.3,8.43,2.66,12.8,3.25,3.73.5,7.64-.3,11.2.92,2.8,1,5,3,7.54,4.62a22.63,22.63,0,0,0,11.47,3.45c2.81.07,5.82-.35,8.28,1,2.2,1.22,3.46,3.6,4.55,5.86,12.06,25,19.1,52.65,34.65,75.68l-4.5,1.59c-8.31-2.22-17.12,2.08-23.33,8a32.06,32.06,0,0,0-8.71,13.15c-.86,2.69-1.12,6,.83,8,1.41,1.49,3.61,1.91,5.66,2,4.72.31,9.44-.43,14.16-.6s9.68.31,13.69,2.82c3,1.85,5.2,4.66,7.32,7.45,4.76,6.26,9.38,12.9,11.28,20.53,1.18,4.77,1.37,10.06,4.45,13.89l1.79,5.58a74.23,74.23,0,0,1,5.88,14.19,52.45,52.45,0,0,0-23.51,17.52c-8.82,11.73-12.28,26.56-14.58,41-1,6.59-1.9,13.28-1.25,19.93s2.92,13.3,7.43,18.22v5.46c2.41,4.52,1.84,10,2.45,15s3.45,10.81,8.55,11.35c2.14.23,4.59-.45,6.25.92s1.46,3.82,1.16,5.9q-3.33,22.68-7.09,45.28c-6.94-5.4-13.91-10.82-21.68-14.94s-16.43-6.89-25.21-6.6c-6.65.23-13.11,2.19-19.68,3.26a74,74,0,0,1-25.14-.25l-6.52-2.09a44.89,44.89,0,0,0-35.82-9.52c3.33-.52,6.5,2.11,7.77,5.23s1.07,6.62.86,10l-.47,7.48-.44,3.72c6.72,0,12.73,3.87,18.64,7.08s13,5.89,19.21,3.4c-.06,6.39,3,12.45,6.84,17.52s8.67,9.38,12.9,14.16l4.07,3.35c2.28,3.72,6.84,5.49,11.19,5.82s8.7-.53,13.06-.8,9,.11,12.6,2.59a20.17,20.17,0,0,1,5.83,7.13c3.37,6.13,5.56,12.85,8.58,19.16s7.11,12.44,13.13,16l2.75,5.14c1.74,10.33,5.76,20.11,9.74,29.8l-5.47-.61c-7.3-7.37-16-13.22-24.56-19a45.89,45.89,0,0,0-8.57-4.91,35.08,35.08,0,0,0-11.32-2.06c-9.36-.4-18.7,1-27.93,2.58a46.6,46.6,0,0,0-11.38,3c-7,3.17-12.18,9.52-19.08,13-7.15,3.56-15.46,3.68-23.45,3.72l-4.73,7-6.09,7.38a3.57,3.57,0,0,0-.89,4.28L886,2214l5.63.15c8.35.45,15.95,4.81,22.87,9.5s13.7,9.91,21.66,12.47a61.48,61.48,0,0,0,13.75,2.37c17,1.43,34.07.83,51.08-.17l1.46,5.86c-.66,18.31-1.29,36.88,2.86,54.74s13.71,35.2,29.33,44.8c7.61,4.67,17.35,8.48,19.57,17.13,1.82,7.08-2.27,15.43,1.78,21.52,5.27,7.93,17.61,3.78,26.82,6.21,7.12,1.87,12.26,7.83,17.81,12.66s13.23,8.9,20,6.08c5.87-2.45,8.81-9.15,14.14-12.61,12-7.79,27.67,4.06,41.83,2.07,10.32-1.45,18.33-10.36,21.82-20.18s3.29-20.5,3.06-30.91c-.27-12.46-.59-25.17-4.76-36.91-1.43-4-3.33-8.37-2-12.43,3.46-10.41,22-6.28,27.3-15.9,2-3.69,1.28-8.23.31-12.32-10.93-45.79-47-84.73-91.84-99.11-3.19-1-6.57-2-8.93-4.4-5.39-5.41-2.75-14.74,1.69-20.95s10.56-11.81,11.74-19.36c1.88-12-9.28-21.65-14-32.84a33.13,33.13,0,0,1,3.46-31.48l4.51-6.74c3.88-6.37,13.28-5.66,19.86-9.17,7.75-4.15,10.7-13.74,11.57-22.49a25.43,25.43,0,0,0-.57-10.25c-1.92-6.1-7.49-10.32-13.23-13.15-15.07-7.42-32.6-7.8-49.37-6.75a329.17,329.17,0,0,0-42.66,5.49q6.3-29.33,14.62-58.18c1.88-6.5,3.91-13.14,8-18.51s10.37-10.29,9.31-16.84a35,35,0,0,0,32.84-14.84l4.95-7.81a31.2,31.2,0,0,0,7.43-22.51,2.55,2.55,0,0,1,1.11-3,57.87,57.87,0,0,0,10.92-11.35c-5.09,1-10.28-.87-15-3.07s-9.3-4.86-14.42-5.65l-3.79-3.89a30.19,30.19,0,0,0-7.68,1.11l6-31,.19-5.83c.45-3.38,1-6.92,3-9.63,2.82-3.72,7.91-5,11-8.55,1.31-1.49,2.2-3.31,3.45-4.85s3.08-2.84,5.06-2.68c-2.31-2.9-6.47-3.33-10.17-3.53a15.61,15.61,0,0,0-4.63.2c-1.73.42-3.26,1.41-4.94,2s-3.76.6-5-.66l-3.23-1.85-5-1.6a1.22,1.22,0,0,1-.66-.38,1.26,1.26,0,0,1,0-1.06l2.31-7.92-1.6-4.47c2.39-6.32.9-13.35,1.13-20.1.25-7.4,2.6-14.6,2.91-22,.16-3.75-.21-7.55.62-11.2,1.6-7,7.52-13.32,6.22-20.42l-1.14-4.22c1.14-9.91,6.71-18.67,12.13-27l15.9-24.51,5.68-5.14a52.9,52.9,0,0,1,39.2-5.31,36.18,36.18,0,0,1,15.09,7.59,22.38,22.38,0,0,1,7.71,14.72c3.27-4.29,5.05-10.32,2.58-15.11-1.19-2.3-3.2-4-4.7-6.16-2-2.8-3-6.15-4-9.44-.92-3.06-1.85-6.24-1.38-9.4a17,17,0,0,1,2.5-6.14c4-6.55,10.25-12.22,11.33-19.83l2.34-4.29a33.7,33.7,0,0,0-1.72-18.57,58.84,58.84,0,0,0-9.59-16.19l-6.13-4.11a8.74,8.74,0,0,1-7.17-2.36c-1.8-1.76-2.79-4.27-4.78-5.83-2.73-2.15-6.59-1.94-10-1.42a1.43,1.43,0,0,1-1.08-.11,1.53,1.53,0,0,1-.43-.7L1168,1503l-2.74-5.57a22.07,22.07,0,0,0-14.89-5.09c.48-5.18-2.06-10.26-5.59-14.07s-8-6.59-12.37-9.44q-10.8-7.08-20.89-15.16Z"></path>
    <path data-name="1a" data-official="" data-plain="Flower opened" data-loc="" d="M166.08,2598.56c-2.48-25-27.33-45.52-52.33-43.24-18.52,1.69-35.38,14-54,13-2-.1-4.07-.43-5.45-1.84a8.05,8.05,0,0,1-1.81-4.34c-5.88-32.36,24.66-60.64,27.19-93.44,1.78-23.16-9.76-49.93,5.17-67.72,16-19,47.81-10,69.64-21.89,5.26-2.85,9.87-6.9,15.41-9.18,12.44-5.1,26.52-.31,40-.57,15.31-.3,29.6-7.2,44.26-11.63,25.27-7.64,52.08-8,78.48-8.31,6.28-.07,12.78-.1,18.52,2.41s10.56,8.33,9.84,14.57c-.68,5.87-6,11.21-4.33,16.89s8.93,7.25,14.87,8c31.55,4.23,61.15,17.26,90.26,30.15,3,1.31,6.27,3,7.1,6.14,2.06,7.76-12.53,11.94-11.26,19.87.35,2.21,1.94,4,3.45,5.65a322.72,322.72,0,0,1,43.63,60.94c3.28,5.93,6.45,12.25,6.57,19,.25,13.95-12.54,25-25.82,29.25s-27.61,3.89-41.21,7c-39,8.83-66.5,44.93-79.48,82.72s-14.73,78.38-22.16,117.64c-2.17,11.46-5.25,23.58-13.89,31.41-5.44,4.92-12.52,7.59-19.53,9.72a184.39,184.39,0,0,1-60.46,7.85c-3.56-.13-7.21-.39-10.42-1.92-11.78-5.6-10.29-22.35-9.78-35.39,2.25-58.06-50.9-104.88-57.87-162.56Z"></path>
    <path data-name="1b" data-official="" data-plain="Stamen" data-loc="" d="M479.3,2734.86c13.23-16.29,20.05-36.9,23.88-57.53s4.94-41.68,8.22-62.4c2.11-13.3,5.12-26.48,6.14-39.91.92-12.08.24-24.43,3.47-36.11,5.92-21.41,23.92-37.18,42.32-49.63,4.21-2.85,8.61-5.65,13.57-6.83s10.63-.47,14.35,3c4.23,4,4.93,10.64,3.31,16.21s-5.17,10.35-8.54,15.07c-9.48,13.3-18.21,27.45-22.59,43.18s-4.23,32-4.09,48.22c.07,7.3.24,15,3.94,21.27,2.67,4.53,7,8,8.92,12.93,2.67,6.91-.28,14.83-4.85,20.66s-10.65,10.28-15.57,15.82c-8.31,9.34-13,21.31-17.09,33.11-6.27,17.9-11.78,36.57-10.73,55.51.28,4.94,1,10.06-.71,14.71-2.73,7.53-10.81,11.59-18.41,14.13a120.67,120.67,0,0,1-38.53,6.2c-6.87,0-14.84-1.29-18.25-7.25-2.09-3.65-1.86-8.16-1.2-12.31a70.36,70.36,0,0,1,22.53-41Z"></path>
    <path data-name="1c" data-official="" data-plain="Pistil" data-loc="" d="M609,2706.24a494.27,494.27,0,0,1,5.82-190.93c2.73-11.91,5.74-25.12-.26-35.75-2.46-4.35-6.2-7.79-9.34-11.68-8.56-10.61-11.66-27.74-1.8-37.17,7.14-6.82,18.11-7.1,28-7,9.12.11,18.55.3,26.83,4.11s15.15,12.28,14.1,21.34c-.84,7.22-6.25,12.93-9.63,19.36-4.54,8.6-5.46,18.62-5.64,28.34-.35,18.32,1.61,36.58,3.34,54.82q6.21,65.52,8.33,131.35c.48,15,.78,30.21-3.2,44.66-2.77,10.08-7.62,20.55-4.49,30.52,2.75,8.77,11.32,15.35,12.07,24.52.54,6.58-3.35,12.94-8.66,16.86s-11.88,5.75-18.37,6.94a115.11,115.11,0,0,1-24.3,1.8c-5.1-.17-10.66-.89-14.21-4.57-6.6-6.83-2-17.93,1.36-26.81a82.49,82.49,0,0,0,1.79-53Z"></path>
    <path data-name="2" data-official="Erythrea centaurium" data-plain="Common Centaury" data-loc="England" d="M560.31,1284c.11,2.26-1.41,4.23-2.85,6-2.56,3.09-5.26,6.28-9,7.83a27.4,27.4,0,0,1-8,1.53,6.62,6.62,0,0,0-3.88,1.27c-1.16,1-1.46,2.71-1.63,4.26a57.32,57.32,0,0,0-.33,6.15l-3.21,4.53-5.68,5.87c-2.83,2.92-5.83,6.23-6,10.29l1,2.92c1.37.52,2.83.8,4.17,1.37a5.34,5.34,0,0,1,3.12,2.91,7.41,7.41,0,0,1,.21,2.7l-.3,6.13c-.1,1.88,0,4.16,1.68,5.06a8.4,8.4,0,0,1,1.24.61c1,.79.6,2.5-.42,3.24a6.31,6.31,0,0,1-3.63.79l-4.24,2.67a9.19,9.19,0,0,0-.63,13.27l3.29,2.69a12.38,12.38,0,0,1,8.53,3.63c2.37,2.4,3.68,5.67,6,8.09a16.73,16.73,0,0,1,2.48,2.71c1.56,2.59.4,6.08-1.69,8.28l-3.14,3.86c-10.05,7-20.67,14.14-32.82,15.41-7.13.74-14.3-.62-21.46-.87s-14.86.85-20.21,5.63c-3.85,3.44-6,8.34-8,13.09-3.3,7.71-6.65,15.62-7.09,24a4.2,4.2,0,0,0,.82,3.28c.89.88,2.33.83,3.58.69,3.93-.45,8.2-1.18,11.61.83,3.23,1.9,4.77,5.88,4.76,9.63s-1.31,7.36-2.59,10.88l-1.16,8.35c-1.66,10.76-9.13,19.65-16.87,27.31a216.16,216.16,0,0,1-20.2,17.69c-5.74,4.43-11.74,8.6-18.37,11.51-6.34,2.79-13.5,4.6-18.15,9.73s-5.89,13-10.39,18.53c-1.83,2.24-4.22,4.12-5.35,6.79-1,2.3-.87,4.89-.76,7.39q.75,16.21,1.49,32.44a1.73,1.73,0,0,0,.31,1.1,1.8,1.8,0,0,0,1.09.41A36.5,36.5,0,0,1,404,1644.21l2.62,9.39c5.53,26.81,5.59,54.41,5.39,81.78-.06,7.88-.14,15.79-1.49,23.55-3.22,18.61-13.68,35.49-27.38,48.49l-3.07,6a33.43,33.43,0,0,0-.37,21.2c.34,1,.9,2.25,2,2.43s2.16-.94,2.85-1.95a90.78,90.78,0,0,1,18-19.31,13.7,13.7,0,0,1,4.91-2.83,5.16,5.16,0,0,1,5.24,1.34,9.14,9.14,0,0,1,1.44,3.59,24.25,24.25,0,0,0,6.25,10.76,19.62,19.62,0,0,1,3,3.26,14,14,0,0,1,1.42,3.57c3.38,11.45,6.8,23.19,6.08,35.1l2.59,10.73c-1.32,14.62-4.29,29.89-13.77,41.09-3.47,4.1-7.69,7.5-11.29,11.49s-6.63,8.83-6.95,14.19,2,10.24,3,15.39c1.48,7.38.37,15.23,2.81,22.35l2.71-6.18a48.11,48.11,0,0,1,4.94-9.33c4.72-6.4,12.39-10,20.13-11.84,3.18-.74,6.57-1.2,9.67-.19,5.75,1.85,8.81,8,11.09,13.57a318.51,318.51,0,0,1,12.36,36.71l-.31,10.55q-2.46,40.41-5.95,80.73l-1.42,11.82-8.82,13.78c-2.47,3.88-5,8.07-4.88,12.67s3.09,8.72,5.91,12.44l23.9,31.65,5.52,4.16a145,145,0,0,1,104.54-20.68c3.87.73,8.1,1.88,10.23,5.19,1.47,2.29,1.6,5.18,1.53,7.9a69.86,69.86,0,0,1-31,55.65c11.1,4.05,23.29,3.58,34.86,6s23.74,9.09,26.45,20.58c1.91,8.09-1.47,16.69-6.86,23s-12.59,10.77-19.66,15.13c29.73-2.68,58.62,15,76.14,39.12,2.46,3.39,4.83,7,8.28,9.37a28.78,28.78,0,0,0,8.37,3.57,147.07,147.07,0,0,0,43.23,6c8.28-.09,18.23-.07,22.66,6.93,3.47,5.48,1.45,13.12-3,17.8s-10.88,7-17.13,8.76c-5.37,1.5-11.75,3.55-13.2,8.94-1,3.79,1,7.7,1.12,11.62.32,7.1-5.49,13.32-12.15,15.82s-14,2.08-21.09,1.6c-9.75-.67-19.65-1.45-28.77-5s-17.49-10.17-20.74-19.38c-.95-2.71-1.48-5.64-3.17-8-3.89-5.37-11.72-5.18-18.33-5.67a54.91,54.91,0,0,1-26.49-9.12c-6.33-4.24-12.84-10.12-20.37-8.95-3.41.53-6.4,2.49-9.5,4-8.44,4.11-18.8,4.95-27.15.67S527,2363.09,529.18,2354l2.28-6.54c2.73-2.63,1.21-7.57-1.85-9.81s-7-2.69-10.7-3.62a38.67,38.67,0,0,1-16-8.46c-4.38-3.88-7.86-8.73-12.5-12.28s-11.12-5.66-16.34-3a21.26,21.26,0,0,0-5.78,4.93l-9.05,9.81c-1,1.1-2.08,2.31-2.2,3.8-.24,2.85,3.06,4.75,5.91,4.86s5.77-.78,8.54-.08c4.73,1.19,7.24,6.75,6.69,11.59s-3.33,9.11-6,13.16l-8.63,12.88c-3.14,4.7-6.36,9.47-10.79,13-10.63,8.4-25.57,7.74-39.08,6.67l-22.31-1.77-4.47-1.9a18.15,18.15,0,0,1-9.47-28.44c3.08-4,7.76-6.68,10.72-10.81,6.33-8.81,3-20.95,4.27-31.72A36.77,36.77,0,0,1,403.42,2294a50.06,50.06,0,0,0-31.81,13.67c-8.2,7.85-13.56,18.47-22.49,25.47-6.86,5.38-15.41,8.25-24,9.55s-17.38,1.09-26.1.89c-2.53-.05-5.18-.14-7.38-1.4-4.5-2.57-5.21-9-3.66-13.91,2.45-7.84,8.94-13.83,16.07-17.91s15-6.57,22.56-9.88a17,17,0,0,0,4-2.25c3.25-2.72,4.1-7.28,5.13-11.39a69.45,69.45,0,0,1,10.61-23.12A3,3,0,0,0,347,2262a2.91,2.91,0,0,0-.54-1.33l-14.39-23.28-5-7c-5.76-14.77-10.84-32.87-1-45.31,10.41-13.19,30.55-11.42,47.08-8.4a20.66,20.66,0,0,1,29.51-26.23c-49.79-34-81.79-92.69-83.36-153l2.39-9.49a32.77,32.77,0,0,1,31.36-9.56,118.31,118.31,0,0,0-67.74-68.76c-9.25-3.56-19.25-6.1-26.71-12.62-8.66-7.59-12.41-19.28-14.69-30.56a182.3,182.3,0,0,1-3.5-42.08c.19-5.57.88-11.69,4.91-15.55,5.43-5.2,14.34-3.9,21.24-.91,21.7,9.42,37.85,31.87,61.4,34.07q-6.56-71.7-6.89-143.78l3.74-11.62a264.92,264.92,0,0,1,2.07-28.14c.64-5,1.48-10.2,4.18-14.49s7.71-7.52,12.7-6.62c-.65-17.91-2.19-35.79-4.62-53.54l.41-7a34.78,34.78,0,0,0-14.76-15.54c-5.81-3.14-12.38-4.56-18.44-7.18-17.57-7.6-29.1-24.39-39.66-40.36l-2.75-4.24a235.45,235.45,0,0,1-19.56-29.22c-2.18-3.87-4.32-8-4.26-12.46,0-2.47,1-5.16,3.11-6.36a9.23,9.23,0,0,1,3.82-.86,95,95,0,0,1,11.81-.11,409.4,409.4,0,0,1-49.44-71l-3.95-2.82c-.65,5.72-1.41,11.74-4.85,16.36a26.51,26.51,0,0,1-6.07,5.55,67.69,67.69,0,0,1-40.52,12.34,30,30,0,0,1-11.7-2.23c-5.11-2.33-8.93-6.76-12.12-11.37-6-8.64-10.39-19.06-8.83-29.44a10,10,0,0,0,.21-3c-.41-2.63-3-4.21-5.33-5.59s-4.72-3.53-4.33-6.16l-1.35-6c-1.82-3.07,1.18-6.75,4.19-8.67s6.71-4,6.92-7.55c.14-2.29-1.31-4.34-2.71-6.16q-4.32-5.61-8.85-11.06c-2.93-3.52-6.59-7.29-11.17-7.11-2.75.1-5.2,1.65-7.65,2.9a40.14,40.14,0,0,1-19.21,4.39,20,20,0,0,1-9.86-2.42c-2.93-1.78-5.17-4.95-5.11-8.37,0-2,.87-4.07.55-6.08-.64-4-5.15-5.84-8.82-7.55a30.74,30.74,0,0,1-13.77-11.92c-3.11-5.32-4.09-12-1.83-17.77s8-10.15,14.15-10.12l2.83-4.63c-1-5.46-2-11.07-1-16.53s4.47-10.82,9.77-12.49a18.54,18.54,0,0,1,7.16-.49,46,46,0,0,1,17.89,5.42,18.42,18.42,0,0,0,4.66,2.11c5.28,1.18,10.28-3.6,11.78-8.79s.64-10.72.67-16.12c0-2.69.4-5.66,2.41-7.45s4.71-1.83,7.27-1.77a112.25,112.25,0,0,1,14.64,1.27c2.2-9.76,12.28-16.59,22.28-16.6a15.56,15.56,0,0,1,6.81,1.34c5.66,2.72,7.9,9.47,9.57,15.53a111.7,111.7,0,0,1,19.62-7.88,4,4,0,0,0,2.1-1.09,4.5,4.5,0,0,0,.71-1.91,30.88,30.88,0,0,1,17.89-21.69,16.85,16.85,0,0,0,4.8-2.49c1.35-1.21,2.15-3.28,1.28-4.87l-3.64-3.51a20,20,0,0,1-13.49,1.47,9.33,9.33,0,0,1-4.18-2c-3.75-3.49-1.72-9.76,1.1-14s6.36-9.12,4.81-14c-1.88-5.89-9.66-7.14-15.79-6.43s-13.09,2.14-17.92-1.71a10.3,10.3,0,0,1-1.31-14.25c1.74-2,4.25-3.27,5.78-5.44,2.61-3.7,1.44-9.21-1.86-12.31s-8.16-4.06-12.66-3.57c-4,.44-7.87,1.91-11.75,3.07-7.21,2.15-14.94,3.24-22.24,1.46s-14.11-6.83-16.49-14c-3.47-10.41,2.93-21.29,9-30.4L121.92,1027c1.87-2.79,3.89-5.7,6.93-7.11s7.38-.58,8.6,2.54l3.87,2.67,14-5.72a7.94,7.94,0,0,0,2.72-1.57c1.51-1.54,1.5-4,1.86-6.08,1.15-6.83,7.07-12.15,13.66-14.27s13.75-1.53,20.55-.25c3.94.74,7.93,1.75,11.24,4s5.84,6,5.68,10l21.49-.34a10.44,10.44,0,0,0,4.68-.79,12.76,12.76,0,0,0,3.26-2.93A30,30,0,0,1,258.24,998l5.93-1.9a130.63,130.63,0,0,1-2-30.52A34.36,34.36,0,0,1,264,955a20,20,0,0,1,13.46-12c4.25-1.09,8.71-.73,13.08-.37,7.44.63,15.46,1.48,21,6.45,4.38,3.91,6.53,9.84,7,15.69s-.49,11.71-1.48,17.49a15.88,15.88,0,0,1,17,6.12c-.56-13.5-.94-27.78,5.61-39.61a22.26,22.26,0,0,1,6.84-7.92c3.6-2.41,8-3.23,12.36-3.58a28.78,28.78,0,0,1,9.49.52c9.81,2.53,15.91,13,16.38,23.16s-3.48,19.88-7.81,29c-2.42,5.12-5.6,10.7-11.09,12.1l-3.29,4.26a21,21,0,0,0-.18,6.13,2.73,2.73,0,0,0,.87,2,3,3,0,0,0,1.94.32c16.33-.88,32,7.14,44.51,17.72,2.65,2.25,5.48,4.74,8.94,5A18.32,18.32,0,0,0,423,1037a49.6,49.6,0,0,1,41.74,12.33l3.8,3.16c3.39-1.63,7.66-.23,10.27,2.49s3.83,6.48,4.56,10.17c1.33,6.75,1.24,13.7,2.06,20.53a78.58,78.58,0,0,0,7.07,24.36l1.2,7.72a89.19,89.19,0,0,1-5.85,25.51c-2.32,5.92-5.76,12.06-11.67,14.42-4.32,1.73-9.54,1.25-13.2,4.12-1.66,1.3-2.79,3.15-4.28,4.63-4.45,4.41-11.31,5-17.57,5.28l1.33,6.76-1.75,5.89a14.84,14.84,0,0,0,2.27,5.82,13.61,13.61,0,0,1,2.14,5.86c.08,2.1-1.08,4.4-3.11,4.92a7,7,0,0,1-3.77-.46l-5.59-1.75-5.25-1.15c.22,6.79-3.23,13.11-6.81,18.89a5.83,5.83,0,0,0-1.15,2.91c0,2.7,3.29,3.85,5.61,5.21,3.65,2.14,5.76,6.29,6.43,10.47s.12,8.44-.44,12.64l.51,3.62,18.14-1.13a3.88,3.88,0,0,0,1.87-.44,3.81,3.81,0,0,0,1.28-1.72l4-8.25c1.5-3.09,3-6.23,5.43-8.68s5.85-4.14,9.23-3.56a15.93,15.93,0,0,1,5.43,2.45c4.92,3,9.95,6.09,13.49,10.63,2.07,2.65,3.58,5.73,5.86,8.19,3.92,4.22,9.84,6.22,15.59,6.2s11.38-1.88,16.54-4.41l8-2.39q6,.91,12,2.13c1.35.27,3,.81,3.21,2.17.15.82-.28,1.75.17,2.46,1.93-.38,4.24-.4,5.51,1.11a6.33,6.33,0,0,1,1,4.1l.1,7.51Z"></path>
    <path data-name="2a" data-official="" data-plain="Flower opened" data-loc="" d="M957.22,2683.21c4.3-11.32-4.47-24.08-15.47-29.14s-23.59-4.76-35.67-5.7a165,165,0,0,1-62-17.46c-10.38-5.29-20.45-11.91-27.17-21.42s-9.57-22.4-4.88-33.06c4.8-10.91,16.51-17.51,28.28-19.38s23.78.22,35.52,2.3c2.77-16.49-14.43-29.15-19.63-45-1.63-5-1.92-10.81,1.08-15.09,3.71-5.28,11-6.43,17.44-6.48a97.3,97.3,0,0,1,34.77,6.16c2.79,1,5.63,2.23,8.6,2.17,5.68-.12,10.26-4.75,13.12-9.65,7-12.06,9.38-29.18,22.51-34,11.83-4.32,24.09,4.88,32.51,14.25s17.47,20.43,30,21.09c6.6.34,12.94-2.37,19-5.1,11.32-5.15,23-10.7,35.4-10.76s25.9,7.2,28.46,19.36c1.93,9.15-2.15,20.18,4.07,27.17a16.68,16.68,0,0,0,8.63,4.69c13,3.16,27.69-2.59,39.41,3.77,8.93,4.84,13.28,15.82,12.54,26s-5.73,19.49-11.68,27.72a118.82,118.82,0,0,1-46.76,38.26c-11.34,5.16-23.49,8.53-34.4,14.54-25.48,14-42,43-41.16,72.07.35,12.11,3.46,24,7,35.57,2.87,9.44,5.4,21.37-2.09,27.8-3,2.6-7.09,3.59-11,4.38a203.39,203.39,0,0,1-57.21,3.29c-3.51-.3-7.35-.85-9.74-3.45-2.8-3-2.58-7.69-2.19-11.81l6.31-66.61Z"></path>
    <path data-name="2b" data-official="" data-plain="Ovary and Pistil" data-loc="" d="M1167.37,2634.71c10.45-37.61,17.33-77.76,7.16-115.45-4.67-17.31-12.93-34.47-10.76-52.27,1-8,4.5-16.24,11.31-20.63,7.17-4.62,16.36-4.17,24.87-3.56l17.36,1.24c4.08.29,8.56.76,11.4,3.7a15.19,15.19,0,0,1,3.2,6.28c8.3,26.91,1.19,55.84-5.37,83.22-2.31,9.62-4.56,19.39-4.28,29.28.32,11.51,4,22.61,6.88,33.78,7.7,30.42,8.79,62.25,5.83,93.49-1.27,13.38-3.24,27.15.55,40.05,3.07,10.44,9.8,21.55,5,31.32-3.54,7.24-12.08,10.35-19.93,12.19a159.72,159.72,0,0,1-26.82,3.91c-10.3.61-22.1-.47-28.42-8.63s-4.38-19.91-.17-29.26,10.48-18,12.45-28c4.57-23.41-15.22-46.31-11.25-69.83Z"></path>
    <path data-name="3" data-official="Chlora perfoliata" data-plain="Perfoliate Yellow-wort" data-loc="Chalk, England" d="M794.49,2285.42c-1.57,15.92-5.26,32.82-16.92,43.79-5.45,5.13-13.24,8.7-20.41,6.54-6.62-2-11.11-8.48-12.64-15.23s-.62-13.78.38-20.62q3-20.22,7-40.27l1.65-5.71c.4-2-1.52-3.71-3.48-4.1s-4,.13-6,.2-4.27-.5-5.2-2.26a6,6,0,0,1-.5-2.83,29.86,29.86,0,0,1,9.87-22c2-1.82,4.47-3.56,5.16-6.22a11.31,11.31,0,0,0,.18-3.29l-.62-14.57,2.69-4.45,21.36-23.6a24.65,24.65,0,0,0,4.73-6.54,12.37,12.37,0,0,0,.85-6.67,5.3,5.3,0,0,0-1.79-3.57c-2.25-1.7-5.41-.07-7.78,1.47-6.5,4.25-13.53,7.93-21.16,9.39-10.61,2-21.68-.35-32.31,1.59a12,12,0,0,0-5.18,2c-1.78,1.37-2.91,3.6-5,4.46-2.64,1.11-5.79-.6-7.26-3.07s-1.69-5.44-1.87-8.3c-.79-12.55-1.55-25.44,2.25-37.43,4.28-13.54,13.93-24.61,23.34-35.26l5.71-2.49c4.65-2,10.22-4,14.54-1.36,1.13.69,2.07,1.66,3.21,2.34,1.8,1.1,4,1.41,5.9,2.23,3.19,1.33,5.65,3.91,8,6.43,12.76,13.57,25.9,27.77,31.61,45.51l-.89,5v4.5l2.14,3.29a5,5,0,0,1,4.36-.4,6,6,0,0,1,2.36,2.79,57.85,57.85,0,0,1,6.46,22.81,10,10,0,0,1-.08,2.68,18.29,18.29,0,0,1-1.74,3.86c-2.29,4.83-1.22,10.51-.12,15.74l-.08,5.74c.73,15.68-3.55,31.48-1.09,47a35.35,35.35,0,0,1,.87,8c-.18,2.68-1.32,5.46-3.63,6.83-1.47.86-3.23,1.08-4.75,1.85A7.25,7.25,0,0,0,795,2279ZM821,1595.8c-3.58-1.54-8-3-11.14-.73a8,8,0,0,0-2.21,2.58c-2.17,3.75-2.41,8.28-2.54,12.61q-.57,19.24.53,38.49l1.05,7.3a11.42,11.42,0,0,1,4.09,8.84c0,1.88-.53,3.73-.51,5.61,0,3.59,1.91,7,2,10.57.21,7.76-7.65,13.42-9.41,21-.81,3.45-.29,7.14-1.39,10.51-1.54,4.71-5.86,7.84-9.26,11.45-6.54,7-10,16.85-8.6,26.28l-2.2,4.22c-1.29,3-4.1,5.25-5.16,8.36-1.25,3.69.2,7.9-1.14,11.56-.78,2.14-2.43,3.83-3.82,5.64s-2.59,4-2.22,6.27l-.43,6.11a3.8,3.8,0,0,0,3.77,1.27,11.17,11.17,0,0,0,3.79-1.71c.53.56-.17,1.4-.63,2-1.59,2.08.14,5.67,2.76,5.73a2.33,2.33,0,0,0,1-2.63,5,5,0,0,1,2.62,3.49,12.43,12.43,0,0,0,.48,2.8,5.52,5.52,0,0,0,1.47,1.73,13.37,13.37,0,0,0,5.22,3.35c2,.53,4.53-.18,5.36-2.1a8.16,8.16,0,0,1-2.09,5.13,19.19,19.19,0,0,1,5.52,3.33c2.11,1.81,3.82,4.09,6.16,5.59s5.65,2,7.75.23a5.18,5.18,0,0,1-3.32,3.36q2.93,1.89,6,3.59a4,4,0,0,0,2.5.74,8.11,8.11,0,0,0,2.46-1.34,4.26,4.26,0,0,1,4.56.36l4,2.28a14.52,14.52,0,0,1,6.26,2.54c1.75,1.45,2.84,3.93,2,6l1.91,5a92.9,92.9,0,0,1,20.89,12.38,14.25,14.25,0,0,0,4.16,2.6,4.4,4.4,0,0,0,4.58-.92l5.31-3.62a3.19,3.19,0,0,1,.63-2.2l2.67-4.61c6.2,5.72,13.63,11.86,22,10.68,4.49-.63,8.39-3.32,12-6.08,6.55-5,12.88-10.62,16.93-17.8l3.32-8.44a42.74,42.74,0,0,0,3.21-21.31c-.53-4.92-1.92-9.82-1.39-14.73s2.82-9.19,4.28-13.78a40.73,40.73,0,0,0-4-33.14c-1.53-2.49-3.34-4.84-4.37-7.58-3.21-8.49,1.81-17.58,4.79-26.16a59.36,59.36,0,0,0,3.13-23.79l4.06-8.56c-2.5-1.57-4.74-3.66-7.54-4.62-3.56-1.22-7.47-.42-11.2-.92-4.37-.59-8.4-3-12.8-3.25a4.34,4.34,0,0,0-2.64.45c-1.37.86-1.63,2.72-1.7,4.34a71.46,71.46,0,0,0,.46,11.42l-3.13,4a10.64,10.64,0,0,1-10.82,5,2.51,2.51,0,0,1-1.66-.83c-.91-1.29.61-3.48-.57-4.53-.76-.68-2.18-.31-2.77-1.15-.41-.6-.11-1.46-.39-2.13a2.18,2.18,0,0,0-1.41-1.09c-2.34-.81-4.9-.28-7.37-.2s-5.33-.58-6.47-2.79a7.32,7.32,0,0,0-1.1-2.09,3.86,3.86,0,0,0-2.84-.71l-19.4.32c-4.83.08-10.1.33-13.71,3.54,1.57-6.35,3.28-13,7.67-17.83a57.23,57.23,0,0,0,4.44-4.78c3.24-4.58,2.74-10.73,2.1-16.31l-.4-.91a3.25,3.25,0,0,1-3.69-4.64c.25-.49.64-1,.57-1.52a1.9,1.9,0,0,0-.56-1l-5.05-5.7a40.89,40.89,0,0,1-5.48-7.17,13.89,13.89,0,0,1-1.9-8.67l-2-5.89c-2-4.54.49-9.88,4-13.39ZM958.75,1981c.11-14.44,8.4-27.31,14.2-40.52a124.36,124.36,0,0,0,10-60.14,12.32,12.32,0,0,0-1.06-4.74c-2.42-4.73-9.48-4.75-14.06-2.07s-7.88,7.15-12.35,10c-6.09,3.91-13.65,4.46-20.83,5.33s-14.84,2.4-19.86,7.61l-1.67,12.67c.33,4.19,5.46,7.19,9.28,5.43a6.85,6.85,0,0,1-4.38,2.07l6.55,9.4a1.74,1.74,0,0,0,2.28.9l3.26-.65a9.21,9.21,0,0,1-3.48,3.5q1.36,4.23,2.78,8.44a8.93,8.93,0,0,0,1.94,3.74,3.12,3.12,0,0,0,3.87.59l-2.58,2.56,5.82,15.79a6.09,6.09,0,0,0,1.71,2.86,2.1,2.1,0,0,0,3-.24,3,3,0,0,1-1.8,2.89l.41,1.79,1.28,4.34c.38,1.32.88,2.77,2.11,3.4a5.19,5.19,0,0,0,2,.41c3,.18,4.07,1.36,7.11,1.54Zm-28.52,164.2a46.6,46.6,0,0,1,11.38-3c9.23-1.59,18.57-3,27.93-2.58l-5.94-10.89-3.68-9.72a38.52,38.52,0,0,1-1.28-3.75c-.83-3.08-.9-6.31-1.5-9.45a28.41,28.41,0,0,0-4-10.09l.68-8.53c-4.35-.33-8.91-2.1-11.19-5.82l-4.07-3.35c-4.23-4.78-9-9.09-12.9-14.16s-6.9-11.13-6.84-17.52c-6.24,2.49-13.3-.19-19.21-3.4s-11.92-7.09-18.64-7.08l.44-3.72.47-7.48c.21-3.37.4-6.86-.86-10s-4.44-5.75-7.77-5.23a44.89,44.89,0,0,1,35.82,9.52l1-5.25,9.14-9.34c2.3-2.34,4.68-4.75,7.71-6l7.49-3.11-1.5-5.25-1.49-5.22c-8.06-.86-15.91-3.08-23.61-5.59-26.73-8.72-52.78-21.45-72.52-41.48-3.5-3.55-6.78-7.31-10.06-11.07l-20.28-23.23-1.94-3.73a42.39,42.39,0,0,1-9.58-9.42c-1.8-2.44-3.34-5.08-5.46-7.25a30.64,30.64,0,0,0-8.36-5.65,92.52,92.52,0,0,0-47-9.62c-3,.19-6.24.6-8.63,2.48-3.34,2.64-4.13,7.62-2.81,11.68s4.33,7.32,7.54,10.12,6.72,5.31,9.5,8.54c8.09,9.36,8.7,22.84,8.91,35.21.34,20.78.63,42-5.76,61.77l-4.14-1.62c-12.27-6.43-26.78-6.59-40.64-6.14-5.61.18-12.27,1.07-14.8,6.08a15.56,15.56,0,0,0-1.16,6.91c-.09,8.27.22,16.55.93,24.79l4.79,5.38a30.89,30.89,0,0,0,17,5.54c4.2.07,8.49-.7,12.54.43,4.75,1.33,8.86,5.23,13.8,5l4.79,3.09c1.56-1.12,3.91-2.17,5.15-.71a9.14,9.14,0,0,1,.81,1.47,5.9,5.9,0,0,0,2.58,2.06,33.26,33.26,0,0,0,23.76,2.27l-7.11,3.21a67.36,67.36,0,0,1,15.36,6.85,4.29,4.29,0,0,1,4.82-3.89c-.83,1.49-1.61,3.49-.46,4.76a4.25,4.25,0,0,0,1.48.92,88.59,88.59,0,0,1,16.6,9.74,20.2,20.2,0,0,0,5.75,3.44c2.14.66,4.75.37,6.21-1.33a6.39,6.39,0,0,1-2.71,4.08l1.28.15,6.34,5.44a1.83,1.83,0,0,0,.9.52,2.16,2.16,0,0,0,1.17-.33,7.3,7.3,0,0,1,3.6-.63c-1.88.68-2.49,3.2-1.79,5.06s2.32,3.21,3.87,4.46a5.94,5.94,0,0,0,2.25,1.33c1.72.43,3.59-.69,5.25-.09l-3.32,2.6c3.14,3.8,6.77,7.89,11.66,8.45l4.74-1.6a18,18,0,0,0,2.59-8.88,50.31,50.31,0,0,1,24.26,15.08c2.72,3.06,5,6.45,7.73,9.55a111.64,111.64,0,0,0,11.75,11.15c7.11,6.12,14.6,12.43,23.73,14.6ZM819.55,1435.84c.34,2.36,0,4.77.09,7.15s.75,4.93,2.6,6.44a20.13,20.13,0,0,0,3.92,2,12.2,12.2,0,0,1,5.53,5.6c.69,1.43,1.1,3,1.79,4.42a12,12,0,0,0,4.52,5l5.85,3.06a43.39,43.39,0,0,0,33.95-9,2.35,2.35,0,0,1,1.4-.7c.7,0,1.22.63,1.63,1.2,3.25,4.44,6.59,9.13,7.32,14.58a37,37,0,0,1-.1,7.66,171.94,171.94,0,0,0-.3,20.93l2.2,5.32a6.66,6.66,0,0,0,7.51-1.73c1.26-1.47,1.84-3.47,3.27-4.76,3.66-3.3,10.18-.1,14.11-3.07,1.61-1.21,2.39-3.18,3.4-4.92s2.58-3.46,4.59-3.45l5.62-.29,26.72-.7,6.85,0c2.55.58,5.11-1,7-2.82s3.34-4.1,5.52-5.54c3.09-2,7-2.13,10.47-3.5,4.48-1.8,7.76-5.62,10.87-9.31l12.68-15.08a31.31,31.31,0,0,1,6.68-6.48,30.78,30.78,0,0,1,8.78-3.34l8.86-2.37,6-2.69a47.59,47.59,0,0,1,14.21-5.42l.68-6.32c3-6.94,5.58-12.42,11-17.73l46.2-45.35c5-4.89,10.38-11.8,7.38-18.11s-12-6.43-19.09-5.44c-10.08,1.4-20.16,2.86-30.32,3.39-7.59.4-15.2.29-22.81.18L1005,1344c-17.22-.25-36.22.12-49,11.62-8.37,7.51-12.93,18.93-22.36,25q-.08-30.23,2.38-60.38l-1.19-7.49-5.58-5.55c-1.65-1.64-3.41-3.5-3.57-5.83-.07-.87.3-2,1.16-2.07a2.29,2.29,0,0,1,1.16.28,6.51,6.51,0,0,0,4.22.62c1.39-.4,2.54-1.93,2-3.29l.82-4.25c1.45-21.27,9.64-41.57,19.93-60.24,1.34-2.43,2.85-5,5.33-6.2,4-2,8.79.17,12.18,3s6.25,6.53,10.32,8.3c3.09,1.35,6.57,1.44,10,1.31a26.16,26.16,0,0,0,8.66-1.46c3.41-1.34,6.22-3.82,9-6.26,8.86-7.89,17.95-16.08,23.08-26.78l1.54-5.52c8.32-12.35,9.41-28.17,8.39-43-2.91-42.19-20.5-81.88-28.74-123.36l-1.2-12.63c.22-5.09-1.19-10.08-2.6-15-2.22-7.72-4.51-15.6-9.1-22.2a8.85,8.85,0,0,0-4-3.6c-2.81-1-6,.78-7.64,3.25s-2.23,5.49-3,8.38a128.83,128.83,0,0,1-6.61,18.29c-1,2.41-2.38,5.13-4.93,5.73a3.33,3.33,0,0,1-3.22-.87,4.87,4.87,0,0,1-.94-2.08c-1.28-5-1.09-10.3-2.07-15.38a13,13,0,0,0-2.47-6,5.87,5.87,0,0,0-5.8-2.14c-1.64.45-3.09,1.83-4.77,1.57a13.57,13.57,0,0,1-.66,3.39l-2-2.45-4.51,1.85-2.43,11.44c.38,8.83,0,17.93-3.47,26.08a26.15,26.15,0,0,1-3.44,6l-3-2.08a59.65,59.65,0,0,0-17.65-32.81c-1.75-1.65-3.8-3.27-6.21-3.33-4-.09-6.61,3.93-8.46,7.44l-9.12,17.38c-2.63,5-5.25,10-7.54,15.17-3.89,8.77-6.79,17.93-9.68,27.07-2.29,7.23-4.58,14.51-5.41,22-.93,8.42,0,17.06-2,25.29-3.54,14.6-15.83,26.22-17.88,41.1l1.22,5.45a5.73,5.73,0,0,1,2.71,4.73,20.41,20.41,0,0,1-.73,5.64c-2.35,11-2,22.46-1.62,33.74.11,3.34.3,6.91,2.32,9.57l-1.19,7c1.63,8.38,7.47,16.24,15.67,18.67s18.27-1.87,20.85-10c1-3.19.9-6.71,2.33-9.74s5.49-5.28,8.11-3.2a7.11,7.11,0,0,1,2,3.13c6.77,17.55,2.15,37.15-1.34,55.63a430.61,430.61,0,0,0-7.21,95.08l-3.15,9.82c-6.89-3.13-10.73-10.68-12.33-18.08s-1.47-15.1-3.16-22.48c-4.79-20.91-23.2-36.34-29.43-56.86-1.9-6.25-3-13.49-8.33-17.29-6.44-4.62-16.12-1.25-20.8,5.15s-5.58,14.75-5.9,22.67a288.49,288.49,0,0,0,3.08,51.77c3.61,25.58,9.58,52,2.42,76.82ZM964.7,929a4.79,4.79,0,0,0-6.69-2.38,9.07,9.07,0,0,0-2.07,1.94l-7.07,8.09a14.57,14.57,0,0,0-3,4.44,14.76,14.76,0,0,0-.36,6.25l.61,7,3.14,1.91a26.75,26.75,0,0,1,7.47-4.17c1.81-.65,3.83-1.19,5-2.73a7.66,7.66,0,0,0,1.22-3.33,44.73,44.73,0,0,0,.59-11.95Zm-4.84-33.79-8.19-42c-.6-3.08-1.23-6.25-3-8.87s-4.84-4.58-7.93-4c-2.66.5-4.66,2.71-6.08,5a25.68,25.68,0,0,0-2.82,20,40.1,40.1,0,0,1,1.34,5c.54,3.79-.81,8,1.25,11.27l.94,4.56c.23,7.61.46,15.25,1.76,22.75.77,4.48,2.24,9.33,6.12,11.68l3.75,2.43a35.26,35.26,0,0,1,6.49-8.43,27.22,27.22,0,0,0,2.79-2.79c2.09-2.62,2.78-6,3.41-9.34ZM977.1,573.87c4.21-23.64,7.93-47.36,11.64-71.09,3-19.17,6-38.38,7.06-57.76,8.72.09,14.6-10.47,12.46-18.93-.59-2.34-1.49-5.19.23-6.88a6.38,6.38,0,0,1,2.77-1.29c18.86-5.45,33.11-21.5,41.55-39.22,4.49-9.45,7.67-20,5.88-30.31-1.45-8.36-6-17.21-2.21-24.79s13.31-9.17,21.5-10.64,17.79-5.07,19.22-13.26l5.5-5.54c12.67-1.28,25.64-2.55,38,.51,8.6,2.12,16.55,6.25,24.93,9.14,23.77,8.19,49.71,6,74.75,3.76,4-.36,8.27-.78,11.71-2.94,6.27-3.91,8-12.09,9.07-19.4,2.32-16.24,3.92-32.69,2.59-49s-5.7-32.69-14.57-46.48L1243,183c-6.62-8.42-14.84-16.27-25.2-19-11.57-3-24.19,1-33.63,8.34s-16.07,17.74-21.41,28.45c-.89,1.8-1.83,3.7-3.5,4.8a11.18,11.18,0,0,1-4.6,1.36l-34.47,4.91a4.63,4.63,0,0,1-3.06-.26c-1.18-.71-1.48-2.29-1.53-3.68-.43-11.3,6.88-21.18,12.46-31a114.43,114.43,0,0,0,13.76-71.41c-.72-5.27-1.89-10.68-5.08-14.93-4-5.3-10.6-8.08-17.17-8.82s-13.21.32-19.75,1.37a37.87,37.87,0,0,0-10.19,2.64,29.59,29.59,0,0,0-8.51,6.56,69.1,69.1,0,0,0-14.82,23.5c-9.8,26.08-3,55,1.37,82.52.64,4-.36,9.82-4.38,9.45-1.35-.13-2.47-1-3.71-1.57-4.33-1.86-9.51,1.3-11.45,5.59s-1.49,9.24-.78,13.89,1.61,9.45.45,14c-1.12,4.42-4.06,8.12-6.92,11.67l-16.82,20.88a6.36,6.36,0,0,1-2.66,2.26,6.27,6.27,0,0,1-2.86.05L987,270.35c-1.87-.25-3.88-.56-5.23-1.88-1.92-1.86-1.78-5-1.3-7.58,4.35-24.17,24.18-42,37.61-62.57,4.34-6.64,8.15-15,5-22.24-1.72-4-5.24-6.82-8.76-9.31a119,119,0,0,0-72-21.71L940.78,137C919.56,81.61,865.41,42.15,807,32c-10.82-1.89-22.1-2.85-32.68.11C762.5,35.42,752.58,43.31,743,51,714.07,74.32,684.77,98,663,128.1c-10.42,14.38-21.38,31.66-39,33.81-11.39,1.4-24.81-3.7-33.35,4-6.21,5.58-6.47,15.55-12.16,21.66s-15.4,6.78-22.18,11.79c-8.18,6-10.46,18.75-4.89,27.27,3.45,5.27,9.4,9.06,11,15.15,1.82,7-2.9,13.9-6.93,19.95s-7.64,14-3.82,20.23c3.37,5.45,10.84,6.59,15.6,10.88,3,2.74,4.77,6.58,7.18,9.88a29.2,29.2,0,0,0,22.5,11.76c5.78.14,11.45-1.45,17.2-1.93,18.64-1.55,36,8.53,52,18.26l8.21,5.36c8.66,5.94,19.36,7.9,29.73,9.57,6.23,1,12.6,2,18.84,1,3.18-.5,6.32-1.5,9.54-1.44a25.13,25.13,0,0,1,8,1.8,88.84,88.84,0,0,1,27,15.57c2.28,1.92,4.54,4.09,5.48,6.91a18.06,18.06,0,0,1,.55,6.09q-.5,19.88-1,39.73c-.27,11.36.35,24.64,9.6,31.24,7.58,5.4,18,4,26.8,6.89,10.71,3.52,18.44,13.3,22.17,23.93s4,22.13,4,33.39l6.62,6.48c.58,2,1.52,4.31,3.56,4.65a5,5,0,0,0,2.23-.29c11.44-3.58,18.22-15.92,29.39-20.24l5.55-2a20.69,20.69,0,0,1,7.19-.11,7.92,7.92,0,0,1,5.64,4.09,9,9,0,0,1,.64,3.93A17.75,17.75,0,0,1,895,512c-.55,1.81-1.39,3.53-2,5.31-3,8.06-2.58,17.44-7.32,24.64l.66,6-3.85,10.38a27.86,27.86,0,0,1-2.2,4.92,27.27,27.27,0,0,1-3.8,4.59l-3.62,3.78-5.35,1c-1.23-3.47-.32-8.08-3.31-10.24L856.62,574a7.13,7.13,0,0,0-1.43,3.29c-.15,2,1.34,4,.68,5.83L855,588.7a156.75,156.75,0,0,0,5.06,16.88l2.84,2.63a57.62,57.62,0,0,1,14.61-.3l3.43-3.6a34.84,34.84,0,0,1,4.28,2.24c6.56,3.85,13.31,7.87,17.74,14l3.57,5.75c3.22,2.88,5,7,6.1,11.22a5.33,5.33,0,0,0,.84,2.07,5.8,5.8,0,0,0,2.39,1.4,17.06,17.06,0,0,1,10,12.13l2.55,1.55A24.48,24.48,0,0,1,942,662c1.84,1.95,3.75,4.41,6.44,4.39,2.09,0,3.79-1.59,5.66-2.52,1.62-.8,3.44-1.15,5-2.09,2.69-1.62,4.11-4.77,4.57-7.87s.1-6.26.08-9.39c-.08-10.8,3.71-21.23,5.27-31.92,1.37-9.31,1-18.84,2.85-28.08Z"></path>
    <path data-name="4" data-official="Villarsia nymphoides" data-plain="Fringed Buckbean" data-loc="Borders of the Thames" d="M1145.33,1897.87a110.66,110.66,0,0,0,47.78,18l10.24-4a25,25,0,0,1,21.72-.89c3.72,1.65,7.06,4.22,11,5.18l3.05,3.75a15.56,15.56,0,0,1,2.88,6.67l1,6.23c-.84,3.18-.12,6.57-.5,9.84a26.86,26.86,0,0,1-1.2,4.91,139.88,139.88,0,0,1-8.57,20.79l-12.34-.87c-4.58,8-10.94,16-20,17.79a44.25,44.25,0,0,1-8.3.51c-5.53,0-11.13.52-16.31,2.45s-9.94,5.46-12.41,10.4l-3.61,12.64a25.43,25.43,0,0,1,.57,10.25c-.87,8.75-3.82,18.34-11.57,22.49l-2.55,8-.8,14.16a71.46,71.46,0,0,1-1.56,13.14c-2,7.91-6.52,14.87-11,21.66v11.11a20.93,20.93,0,0,1,2.1,12.15c-1.18,7.55-7.29,13.16-11.74,19.36s-7.08,15.54-1.69,20.95c2.36,2.38,5.74,3.37,8.93,4.4a134,134,0,0,1,36.14,18.09l14.94-5.24a69.21,69.21,0,0,0,17.55-29.79c2.77-9.69,3.42-20.05,7.68-29.18,11-23.65,43.16-33.42,50.45-58.46,5.63-19.36-6.11-39.1-8.88-59.06l-.8-8.62-4.67-11.66a9.59,9.59,0,0,1-.94-3.8,10.78,10.78,0,0,1,1.53-4.32,42.21,42.21,0,0,0,3.86-11.85c.46-2.69.79-5.7,2.86-7.48s5.2-1.65,7.88-2.37a11.87,11.87,0,0,0,6.88-5.07l4.14-7.24,8.44-21.36a2.27,2.27,0,0,1,.74-1.13,2.23,2.23,0,0,1,1.17-.28l23.88-1.27,11.79-.16a57,57,0,0,0,4,20.24l6.13,2.49c3.84-.25,7.42,2.24,9.66,5.37s3.42,6.87,4.8,10.46a90.29,90.29,0,0,0,12.13,21.86,13.92,13.92,0,0,0,4.67,4.4c1.94,1,4.54.9,6-.67a65.17,65.17,0,0,0,15,19.77l4.65,9a145,145,0,0,0,64.36,35.73c7,1.78,14.57,3.25,19.68,8.35,5.81,5.79,6.92,14.68,7.34,22.86a283.26,283.26,0,0,1-8.22,83.95c-6.93,27.44-17.93,53.67-26.41,80.67s-14.45,55.46-10.89,83.54l-1.14,10.57c-.55,11.4-12,20.46-11.38,31.86.51,9,8.83,15.9,17.6,17.76s17.84-.26,26.48-2.63c5.43-1.5,11.14-3.28,14.87-7.51,3.4-3.85,4.6-9.13,5.36-14.21,3.16-21,.78-42.54,3.83-63.55,3.55-24.38,14.23-47.05,22.12-70.39,19-56.22,21.74-116.43,24.31-175.72l-.06-13.08c11.57-14,28.76-22.1,42.68-33.84,23.41-19.75,36.46-48.83,48.77-76.88a656.43,656.43,0,0,0,5.4,100c2.71,20.72,6.56,41.75,16.59,60.08,8,14.66,19.68,27,31.92,38.37,22.27,20.69,47,38.83,73.94,52.92,13.43,7,27.59,13.09,42.58,15.41,13.58,2.11,27.45,1.07,41.13-.28q36.78-3.61,73.2-10.13c14.71-2.63,29.54-5.68,43-12.23,12.36-6,23.15-14.85,33.15-24.29a295.6,295.6,0,0,0,79-126.73l2.94-15.71c4.6-37.45,5.91-75.79-2.4-112.59s-27-72.17-56.69-95.39l-15.24-9.94a244.11,244.11,0,0,0-111.63-16.21,289.57,289.57,0,0,1-1.17-36.43c.12-3.81.44-8,3-10.76s6.63-3.49,10-5.19c9.58-4.83,12.61-18.26,8-27.94s-15.08-15.58-25.67-17.27l-2.25-7.55c1.79-5.85,3.41-12.73-.24-17.63-2.69-3.6-7.41-4.9-11.81-5.81a177.48,177.48,0,0,0-70.69-.16c-4.77,1-9.58,2.13-14.44,1.93-7-.3-13.62-3.43-20-6.35-12.37-5.61-25.08-10.62-38.31-13.68-29.32-6.76-59.9-3.65-89.82-.5q13-21.3,24.69-43.34l3.71-8.45a62.66,62.66,0,0,0,30.17-6.42c6.95-3.44,13.21-8.15,20.14-11.64,18.81-9.47,40.77-9.22,61.75-11.09,10-.89,20.91-2.8,27.4-10.47,5.93-7,6.56-17.33,3.77-26.07s-8.53-16.19-14.4-23.23c-5.15-6.19-10.6-12.3-17.41-16.59s-15.25-6.6-23-4.55a4.6,4.6,0,0,1-2.34.23c-1.4-.39-1.94-2-2.28-3.45-4.07-16.8-10.84-35.09-26.44-42.54-12.06-5.76-26.49-3.37-38.91,1.56a150,150,0,0,0-49-23.61c-9.31-2.53-20.71-3.59-27.22,3.51-6.94,7.57-4.17,19.66-7.37,29.42-1.86,5.66-5.73,10.44-8.21,15.86a35,35,0,0,0-2.38,21.75l2.79,12.93c5,12.49,20.43,18.48,25,31.11,1.69,4.65,1.71,9.72,1.7,14.67l0,24.79c0,5.22,0,10.52-1.55,15.5-2.17,7.06-7.17,12.85-12.27,18.19a262.37,262.37,0,0,1-33.62,29.74c-9.65,7.16-19.77,13.66-29.54,20.66a350.81,350.81,0,0,0-60.19,54.71,98.92,98.92,0,0,0-15.75-47.07c-2.63-4-5.67-8-9.81-10.44-2.08-1.23-4.49-2.15-5.89-4.11a11.85,11.85,0,0,1-1.55-3.74,295.41,295.41,0,0,1-7.06-31.94c-.3-1.81-.54-3.84.53-5.34.89-1.25,2.45-1.79,3.89-2.34a41.21,41.21,0,0,0,17.75-13.2l4.52-6.45c9.38,1,18.8,2,28.22,1.55s18.91-2.26,27.26-6.65c2.43-1.28,4.88-2.9,6.07-5.39a12.76,12.76,0,0,0,.86-6.32,41.68,41.68,0,0,0-18.52-31.84l-1.54-5.69c2.36-7.28,3.11-15,3.59-22.61.7-11.07.75-22.68-4.21-32.59a17.57,17.57,0,0,0-5.74-7.06c-4.05-2.64-9.37-2.5-14-1.09s-8.8,4-13.2,6a118.6,118.6,0,0,1-18.15,6l-3.58,1.47c-3,1.74-2.68,6.36-5,9-2,2.31-5.47,2.48-8.45,3.23a19.11,19.11,0,0,0-10.44,6.89,18.9,18.9,0,0,0-10.1-13.65,1.49,1.49,0,0,1-.74-.58,1.43,1.43,0,0,1-.1-.65v-11l-4.53-10.26a45.77,45.77,0,0,0-11.69-11.2c-1.93-1.28-4.23-2.45-6.47-1.88a9,9,0,0,0-4.12,3.07,173,173,0,0,0-27.26,40.77c-1.95,4.07-3.74,8.21-5.52,12.35-.77,1.79-1.76,3.78-3.63,4.31a6.66,6.66,0,0,1-2.74,0l-10.08-1.46-9,3.86c-16.66,1.67-33.68,4.42-48.13,12.88a21.49,21.49,0,0,0-4.85,3.61c-4.15,4.36-4.71,11.07-3.72,17,2,11.72,9,22.18,17.93,30s19.74,13.24,30.74,17.75a3.63,3.63,0,0,1,3,4.25v9.93l1,4.75,1.52,16.06a7.26,7.26,0,0,0,1.21,4c1.14,1.36,3.09,1.68,4.87,1.76,7.7.34,15.33-2,22.18-5.56s13-8.22,19.16-12.89l1.87-8.06a11.21,11.21,0,0,0,6.62-9c1.64,2.19,4.73,2.9,7.42,2.41a6.58,6.58,0,0,1,2.67-.24c1.81.42,2.53,2.53,3.65,4,2.43,3.26,7.55,4.17,9,8a10.26,10.26,0,0,1,.45,3.75l0,14.94.06,5.8a127.59,127.59,0,0,0-19.94.39c-6.61.81-13.19,2.71-18.73,6.39l-19.51,9.93a46.11,46.11,0,0,0-25.5,8.71c-3.21-9.32-4.22-19.24-6.11-28.92s-4.82-19.5-11.16-27.05c-3.6-4.29-8.16-7.66-12.79-10.8a94.85,94.85,0,0,0-15.31-8.77c-16.74-7.28-36-6.73-53.72-2.26l-4.6-2.17-2.34,4.29c-1.08,7.61-7.32,13.28-11.33,19.83a17,17,0,0,0-2.5,6.14c-.47,3.16.46,6.34,1.38,9.4,1,3.29,2,6.64,4,9.44,1.5,2.11,3.51,3.86,4.7,6.16,2.47,4.79.69,10.82-2.58,15.11a22.38,22.38,0,0,0-7.71-14.72,36.18,36.18,0,0,0-15.09-7.59,52.9,52.9,0,0,0-39.2,5.31l-5.68,5.14-15.9,24.51c-5.42,8.37-11,17.13-12.13,27l1.14,4.22c1.3,7.1-4.62,13.38-6.22,20.42-.83,3.65-.46,7.45-.62,11.2-.31,7.39-2.66,14.59-2.91,22-.23,6.75,1.26,13.78-1.13,20.1l1.6,4.47L1098,1763a1.26,1.26,0,0,0,0,1.06,1.22,1.22,0,0,0,.66.38l5,1.6,3.23,1.85c1.25,1.26,3.33,1.22,5,.66s3.21-1.56,4.94-2a15.61,15.61,0,0,1,4.63-.2c3.7.2,7.86.63,10.17,3.53-2-.16-3.8,1.14-5.06,2.68s-2.14,3.36-3.45,4.85c-3.09,3.5-8.18,4.83-11,8.55-2.05,2.71-2.56,6.25-3,9.63l-.19,5.83-6,31a30.19,30.19,0,0,1,7.68-1.11l3.79,3.89c5.12.79,9.73,3.44,14.42,5.65s9.88,4,15,3.07a57.87,57.87,0,0,1-10.92,11.35,2.55,2.55,0,0,0-1.11,3,31.2,31.2,0,0,1-7.43,22.51Z"></path>
    <path data-name="5" data-official="Chironia decussata" data-plain="" data-loc="Cape of Good Hope" d="M1209.56,639.81c-1.94-5.86-5.4-11.55-10.83-14.49-3.27-1.78-7-2.44-10.68-3.06q-34.92-5.93-70.11-10c-6.15-.73-12.41-1.4-18.53-.41-6.64,1.08-12.79,4.07-19.25,5.94-29.57,8.54-61.68-7.12-91.71-.4L969,612.57c-1.56,10.69-5.36,21.12-5.27,31.92,0,3.13.37,6.29-.08,9.39s-1.88,6.25-4.57,7.87c-1.54.94-3.36,1.29-5,2.09-1.87.93-3.57,2.5-5.66,2.52-2.69,0-4.6-2.44-6.44-4.39a24.48,24.48,0,0,0-13.53-7.26l-2.55-1.55a17.06,17.06,0,0,0-10-12.13,5.8,5.8,0,0,1-2.39-1.4,5.33,5.33,0,0,1-.84-2.07c-1.07-4.19-2.88-8.34-6.1-11.22L903,620.59c-4.43-6.17-11.18-10.19-17.74-14a34.84,34.84,0,0,0-4.28-2.24l-3.43,3.6a57.62,57.62,0,0,0-14.61.3l-2.84-2.63A156.75,156.75,0,0,1,855,588.7l.84-5.63c.66-1.87-.83-3.85-.68-5.83a7.13,7.13,0,0,1,1.43-3.29q3.78-5.76,7.57-11.53c3,2.16,2.07,6.77,3.3,10.24l5.35-1,3.62-3.78a27.27,27.27,0,0,0,3.8-4.59,27.86,27.86,0,0,0,2.2-4.92q1.92-5.19,3.85-10.38l-.66-6c4.74-7.2,4.29-16.58,7.32-24.64.66-1.78,1.5-3.5,2-5.31a17.75,17.75,0,0,0,.76-4.69,9,9,0,0,0-.64-3.93,7.92,7.92,0,0,0-5.64-4.09,20.69,20.69,0,0,0-7.19.11l-5.55,2c-11.17,4.32-18,16.67-29.39,20.24a5,5,0,0,1-2.23.29c-2-.34-3-2.67-3.56-4.65L835,510.8l-10.12,5.11c-31.35,12.52-64.79,26.72-82.64,55.38a104.51,104.51,0,0,0-56.61-32.77,176.73,176.73,0,0,0,24.14-117.44c-1.23-8.27-3.34-17-9.46-22.7-6.86-6.39-17.35-7.43-26.46-5.25s-17.28,7.1-25.54,11.51c-2.33,1.24-4.83,2.48-7.46,2.32-4.81-.3-8-5-10.58-9-20.5-32.19-50.84-56.77-81.86-79-7.71-5.53-15.78-11.08-25.06-13.05s-20.16.47-25.52,8.3c-4.6,6.74-4.19,15.58-3.6,23.72l4.86,67L473,407.64c-3.33-8.49-14-10.8-23.09-11.9-19.77-2.41-41.94-4.2-57.51,8.22-3.55,2.84-6.92,6.48-11.43,7.09-3.44.46-6.81-1-10-2.3-26.7-11-57.73-16.33-84.16-4.66-35.15,15.53-52.47,58.69-46.21,96.6-26.39-.43-49,18.08-67.71,36.7-5.39,5.36-10.75,10.9-14.5,17.51-7,12.34-7.77,27.29-6.21,41.4,1.74,15.81,6.29,31.52,14.95,44.86,12.35,19,32.07,32,52,42.85,4.83,2.65,9.89,5.27,15.38,5.75,5.14.46,10.24-1,15.2-2.44l49.91-14.48c10-2.9,21.64-5.55,30.05.56,5.87,4.26,8.4,11.64,10.6,18.55q4.63,14.55,9.26,29.1l0,8,36.06,122.32c.84,2.85,1.7,5.83,1.21,8.77s-2.29,5.58-3.91,8.15a77.25,77.25,0,0,0-10.44,54.14l-3.93,15.32c9.81,2.53,15.91,13,16.38,23.16l4.29,16.37a72.21,72.21,0,0,0,33,44.21,39.67,39.67,0,0,0,10.46,4.55c3.49.87,7.11,1.05,10.64,1.68a41.36,41.36,0,0,1,26,16.44l-.59,8.3c3.39-1.63,7.66-.23,10.27,2.49s3.83,6.48,4.56,10.17c1.33,6.75,1.24,13.7,2.06,20.53a78.58,78.58,0,0,0,7.07,24.36l1.2,7.72,2.08,9.15q7.25,24.84,14.5,49.68l-16.44-6.93c-6.13-2.59-12.52-5.23-19.16-4.91l-11.7-2.94c-1.66,1.3-2.79,3.15-4.28,4.63-4.45,4.41-11.31,5-17.57,5.28l1.33,6.76-1.75,5.89a14.9,14.9,0,0,0,2.27,5.82,13.61,13.61,0,0,1,2.14,5.86l3.4,8.23a98.16,98.16,0,0,0,14,19.32l9,4a15.93,15.93,0,0,1,5.43,2.45c4.92,3,9.95,6.09,13.49,10.63,2.07,2.65,3.58,5.73,5.86,8.19,3.92,4.22,9.84,6.22,15.59,6.2s11.38-1.88,16.54-4.41l8-2.39q6,.91,12,2.13c1.35.27,3,.81,3.21,2.17.15.82-.28,1.75.17,2.46,1.93-.38,4.24-.4,5.51,1.11a6.33,6.33,0,0,1,1,4.1l.1,7.51,6.62,15.07,11.22,15.75c2.07,2.91,4.17,5.88,5.16,9.3,1.28,4.43.58,9.18-.28,13.71q-1.4,7.37-3.33,14.62c-10-10.09-21.08-20.71-35.14-22.91l-7.81-2.32-3.21,4.53-5.68,5.87c-2.83,2.92-5.83,6.23-6,10.29l1,2.92c1.37.52,2.83.8,4.17,1.37a5.34,5.34,0,0,1,3.12,2.91,7.41,7.41,0,0,1,.21,2.7l-.3,6.13c-.1,1.88,0,4.16,1.68,5.06a8.4,8.4,0,0,1,1.24.61c1,.79.6,2.5-.42,3.24a6.31,6.31,0,0,1-3.63.79l-4.24,2.67a9.19,9.19,0,0,0-.63,13.27l3.29,2.69a12.38,12.38,0,0,1,8.53,3.63c2.37,2.4,3.68,5.67,6,8.09a16.73,16.73,0,0,1,2.48,2.71c1.56,2.59.4,6.08-1.69,8.28l2.63,6c10.29,6.16,21.21,13,25.87,24.08,2.74,6.51,3,13.76,3.42,20.81,1.57,24.45,7.81,51,27.44,65.63,8.83,6.59,20.09,10.53,26.25,19.67,4,5.89,5.23,13.16,6,20.22a225,225,0,0,1,1.15,39.27,148.21,148.21,0,0,0-55.76-3.57A164.73,164.73,0,0,0,533.58,1539c-9.92-7.66-22.27-14.47-34.45-11.5-12.71,3.1-21.15,18-17.27,30.48a148.61,148.61,0,0,0-43.25-3.19c-11.54.85-24.87,4.52-29.05,15.31-2.43,6.29-1,13.36,1,19.82,6.22,20.68,17.59,40.22,34.51,53.64s39.73,20.09,60.74,15.12l10.14-1.12c20.94,11.29,35.42,31.36,53.06,47.32,18.64,16.86,40.9,29.15,60.84,44.47,2.25,1.73,4.55,3.58,5.8,6.13s1.33,5.53,1.37,8.39l1,78.66c0,3.54.08,7.16-1.12,10.49-3.58,10-16.21,13.32-22.36,21.91-18-27.92-46.36-47.52-75.36-63.77-35.32-19.79-75.29-36.08-115.35-30.21l-20-1.43a90,90,0,0,1-7.81,13.15l6.54,23.2a13.7,13.7,0,0,1,4.91-2.83,5.16,5.16,0,0,1,5.24,1.34,9.21,9.21,0,0,1,1.44,3.59,24.25,24.25,0,0,0,6.25,10.76,19.62,19.62,0,0,1,3,3.26,14,14,0,0,1,1.42,3.57c3.38,11.45,6.8,23.19,6.08,35.1l2.59,10.73,6.14-3a103.65,103.65,0,0,0,32.51,17.06c5.33,1.64,10.81,2.81,16,4.73,13.64,5,24.91,14.75,35.85,24.3,5.08,4.44,10.18,8.89,14.48,14.07a4.19,4.19,0,0,1,1.14,2.19c.1,1.38-1.12,2.45-2.22,3.29l-42.85,32.6c-8.8,6.69-17.88,13.72-22.9,23.57l-3.48,8.44-.31,10.55q-2.46,40.41-5.95,80.73l-1.42,11.82,6.55-.75c5.47,7.11,16.76,7.23,22.64,14,4.62,5.33,4.58,13.16,7.28,19.67,3.4,8.18,11.33,14.06,20,15.89s17.88-.09,25.62-4.38c9.84-5.44,17.26-14.31,24.44-23,2.26-2.74,4.66-5.84,4.49-9.39-.23-4.84-5-8.05-9.3-10.25q-7.44-3.81-15.22-6.88c-4.94-1.94-10.23-3.84-13.53-8s-3.93-9.61-3.34-14.75c1.34-11.62,8.49-21.66,15.62-30.94a723.33,723.33,0,0,1,53.22-61.7,4.13,4.13,0,0,1,1.9-1.34,4,4,0,0,1,3,1c15,10.23,23.31,28.08,26.48,46s1.9,36.21,1.71,54.37c-.18,18.49.75,37,1.69,55.45.58,11.37,1.17,22.81,3.62,33.94a103.15,103.15,0,0,0,9.34,25.62l2.8,6c1.54,18.7,16.13,34.26,18.28,52.9.67,5.75.11,11.56-.45,17.32q-1.26,13-2.51,25.94l-2.8,12.05a104.21,104.21,0,0,1,16.32,17.74c2.46,3.39,4.83,7,8.28,9.37a28.78,28.78,0,0,0,8.37,3.57,147.07,147.07,0,0,0,43.23,6l6.25-36.69c-1.53-6.74-.62-13.78.38-20.62l-1.67-29.15c-4.21-6.65-8.47-13.39-10.85-20.89-2-6.44-2.65-13.25-4.25-19.82a134.47,134.47,0,0,0-6.2-17.91L711.08,2185l-1.62-12.09c-2.64,1.11-5.79-.6-7.26-3.07s-1.69-5.44-1.87-8.3c-.79-12.55-1.55-25.44,2.25-37.43,4.28-13.54,13.93-24.61,23.34-35.26l5.71-2.49c4.65-2,10.22-4,14.54-1.36,1.13.69,2.07,1.66,3.21,2.34,1.8,1.1,4,1.41,5.9,2.23,3.19,1.33,5.65,3.91,8,6.43,12.76,13.57,25.9,27.77,31.61,45.51l-.89,5v4.5l2.14,3.29a5,5,0,0,1,4.36-.4,6,6,0,0,1,2.36,2.79,57.85,57.85,0,0,1,6.46,22.81,10,10,0,0,1-.08,2.68,18.29,18.29,0,0,1-1.74,3.86c-2.29,4.83-1.22,10.51-.12,15.74l-.08,5.74c.73,15.68-3.55,31.48-1.09,47a35.35,35.35,0,0,1,.87,8c-.18,2.68-1.32,5.46-3.63,6.83-1.47.86-3.23,1.08-4.75,1.85A7.25,7.25,0,0,0,795,2279l-.55,6.45,2.89,6.93a101.66,101.66,0,0,0,22.82,53c4.55,5.45,9.8,10.5,16.24,13.47s14.23,3.62,20.55.39c4.85-2.49,8.35-6.92,11.69-11.22,14.91-19.17,30.23-39.21,35.41-62.94,4-18.39,1.54-37.67-3.68-55.75l-8.81-15.17L886,2214q-5-16.74-10-33.46a3.57,3.57,0,0,1,.89-4.28l6.09-7.38,4.73-7-2.41-5.55c-3.54-2.54-6.09-6.22-8.29-10-3.78-6.43-6.78-13.29-10.66-19.65s-8.82-12.34-15.4-15.85l-8.34-5.63-4.74,1.6c-4.89-.56-8.52-4.65-11.66-8.45l3.32-2.6c-1.66-.6-3.53.52-5.25.09a5.94,5.94,0,0,1-2.25-1.33c-1.55-1.25-3.16-2.59-3.87-4.46s-.09-4.38,1.79-5.06a7.2,7.2,0,0,0-3.6.64,2.24,2.24,0,0,1-1.17.32,1.83,1.83,0,0,1-.9-.52l-6.34-5.44-1.28-.15a6.39,6.39,0,0,0,2.71-4.08c-1.46,1.7-4.07,2-6.21,1.33a20.2,20.2,0,0,1-5.75-3.44,88.59,88.59,0,0,0-16.6-9.74,4.25,4.25,0,0,1-1.48-.92c-1.15-1.27-.37-3.27.46-4.76a4.29,4.29,0,0,0-4.82,3.89,67.36,67.36,0,0,0-15.36-6.85l7.11-3.21a33.26,33.26,0,0,1-23.76-2.27,5.9,5.9,0,0,1-2.58-2.06,9.14,9.14,0,0,0-.81-1.47c-1.24-1.46-3.59-.41-5.15.71l-4.79-3.09c-4.94.22-9-3.68-13.8-5-4.05-1.13-8.34-.36-12.54-.43a30.89,30.89,0,0,1-17-5.54l-4.79-5.38c-.71-8.24-1-16.52-.93-24.79a15.56,15.56,0,0,1,1.16-6.91c2.53-5,9.19-5.9,14.8-6.08L686,1983.4q.3-28.26.62-56.54c.09-8.18.2-16.52,2.85-24.25s8.3-14.91,16.14-17.21l15.53-3.52c-1.32-4.06-.53-9,2.81-11.68,2.39-1.88,5.59-2.29,8.63-2.48l5.07-8,10.17-13.67a82.89,82.89,0,0,0,17.81,17.57l14,13.69a30.64,30.64,0,0,1,8.36,5.65c2.12,2.17,3.66,4.81,5.46,7.25a42.39,42.39,0,0,0,9.58,9.42l1.94,3.73,20.28,23.23c3.28,3.76,6.56,7.52,10.06,11.07,19.74,20,45.79,32.76,72.52,41.48,7.7,2.51,15.55,4.73,23.61,5.59l1.49,5.22,1.5,5.25,6.16,2.38,7.48.78c2.46.25,5,.5,7.34-.35s4.33-3.12,4-5.57l-.6-11.48-4.46-3.07c-3-.18-4.07-1.36-7.11-1.54a5.19,5.19,0,0,1-2-.41c-1.23-.63-1.73-2.08-2.11-3.4s-.86-2.9-1.28-4.34l-.41-1.79a3,3,0,0,0,1.8-2.89,2.1,2.1,0,0,1-3,.24,6.14,6.14,0,0,1-1.71-2.86l-5.82-15.79,2.58-2.56a3.12,3.12,0,0,1-3.87-.59,8.93,8.93,0,0,1-1.94-3.74q-1.41-4.21-2.78-8.44a9.21,9.21,0,0,0,3.48-3.5l-3.26.65a1.74,1.74,0,0,1-2.28-.9q-3.27-4.69-6.55-9.4a6.85,6.85,0,0,0,4.38-2.07c-3.82,1.76-8.95-1.24-9.28-5.43l1.67-12.67.39-8.61a39.63,39.63,0,0,0-13.67-18.57,66.85,66.85,0,0,0-20.81-10.44l-7.55-5.19-5.31,3.62a4.4,4.4,0,0,1-4.58.92,14.25,14.25,0,0,1-4.16-2.6,92.9,92.9,0,0,0-20.89-12.38l-1.91-5c.8-2.12-.29-4.6-2-6a14.52,14.52,0,0,0-6.26-2.54l-4-2.28a4.26,4.26,0,0,0-4.56-.36,8.11,8.11,0,0,1-2.46,1.34,4,4,0,0,1-2.5-.74q-3-1.7-6-3.59a5.18,5.18,0,0,0,3.32-3.36c-2.1,1.81-5.42,1.27-7.75-.23s-4-3.78-6.16-5.59a19.19,19.19,0,0,0-5.52-3.33,8.16,8.16,0,0,0,2.09-5.13c-.83,1.92-3.34,2.63-5.36,2.1a13.37,13.37,0,0,1-5.22-3.35,5.52,5.52,0,0,1-1.47-1.73,12.43,12.43,0,0,1-.48-2.8,5,5,0,0,0-2.62-3.49,2.33,2.33,0,0,1-1,2.63c-2.62-.06-4.35-3.65-2.76-5.73.46-.61,1.16-1.45.63-2a11.17,11.17,0,0,1-3.79,1.71,3.8,3.8,0,0,1-3.77-1.27l.43-6.11c-.37-2.25.83-4.46,2.22-6.27s3-3.5,3.82-5.64c1.34-3.66-.11-7.87,1.14-11.56,1.06-3.11,3.87-5.34,5.16-8.36l2.2-4.22c-1.44-9.43,2.06-19.33,8.6-26.28,3.4-3.61,7.72-6.74,9.26-11.45,1.1-3.37.58-7.06,1.39-10.51,1.76-7.57,9.62-13.23,9.41-21-.09-3.6-2-7-2-10.57,0-1.88.48-3.73.51-5.61a11.42,11.42,0,0,0-4.09-8.84l-7.27-1.94c-18.59,12.05-35.35,26.69-51.73,41.6-13.36,12.17-26.91,25.11-33.68,41.86l-17.32-6.8a4.52,4.52,0,0,1-2-1.21,4.62,4.62,0,0,1-.74-2.4q-3.18-28.79-6.38-57.56a4.69,4.69,0,0,1,.4-3.19,4.92,4.92,0,0,1,2.21-1.48c9.32-4.12,17.13-11,24.36-18.18,30.7-30.44,54.75-70.66,54.54-113.89,0-4.13-.1-8.73,2.68-11.79,3.43-3.77,9.32-3.32,14.42-3.29,21.6.14,42.61-13.9,50.74-33.91l6.89-14.36-5.85-3.06a12,12,0,0,1-4.52-5c-.69-1.43-1.1-3-1.79-4.42a12.2,12.2,0,0,0-5.53-5.6,20.13,20.13,0,0,1-3.92-2c-1.85-1.51-2.5-4-2.6-6.44l-8.5,2a92,92,0,0,0-27.69,10.43,163.35,163.35,0,0,0-1.09-35.08c-1.14-8.18-3.3-17-9.74-22.12-7.28-5.84-18.29-5.15-26.31-.37S732.8,1410.68,728.6,1419A114.93,114.93,0,0,0,718,1450.87c-.68,3.88-1.4,8.22-4.55,10.59a14.75,14.75,0,0,1-4.77,2.07l-20.07,6,.6-69.61c10.13-3.57,20.37-7.2,29.32-13.14s16.59-14.54,19.16-25-.06-21.8,3.78-31.81c6.48-16.92,28.14-22.87,37.76-38.23,3.3-5.27,5-11.48,9-16.32a23.07,23.07,0,0,1,20.07-8.27l6.24-5.51a89.25,89.25,0,0,0,34.48-29.1l6.54-13,1.19-7c-2-2.66-2.21-6.23-2.32-9.57-.37-11.28-.73-22.7,1.62-33.74a20.41,20.41,0,0,0,.73-5.64,5.73,5.73,0,0,0-2.71-4.73l-1.22-5.45c2-14.88,14.34-26.5,17.88-41.1,2-8.23,1.08-16.87,2-25.29.83-7.53,3.12-14.81,5.41-22,2.89-9.14,5.79-18.3,9.68-27.07,2.29-5.16,4.91-10.17,7.54-15.17l9.12-17.38c1.85-3.51,4.5-7.53,8.46-7.44,2.41.06,4.46,1.68,6.21,3.33l27.58,2.8,2.43-11.44,4.51-1.85,2,2.45a13.57,13.57,0,0,0,.66-3.39c1.68.26,3.13-1.12,4.77-1.57a5.87,5.87,0,0,1,5.8,2.14,13,13,0,0,1,2.47,6l17.77-5.69c.72-2.89,1.29-5.91,3-8.38s4.83-4.24,7.64-3.25a8.85,8.85,0,0,1,4,3.6l10.32-.46c10.58-5.05,21.31-10.21,30.06-18,2.31-2.06,4.53-4.33,7.35-5.6,7-3.15,15.64.68,22.67-2.4l7.65-11.67a86.52,86.52,0,0,1-14.77-38.9c-.43-3.64-.66-7.42-2.35-10.68l-2.77-8.24c-7.91-5.66-17.73-8.18-27.44-8.75s-19.43.67-29.08,1.92q12.5-26.6,25-53.2l15-3.92c39.38-6.34,65.21-43.14,97.22-66.94,12.22-9.09,25.81-16.54,36.44-27.43,7.16-7.33,12.76-16,18-24.82C1206.46,684.22,1216.66,661.18,1209.56,639.81ZM937.17,909c-1.3-7.5-1.53-15.14-1.76-22.75l-.94-4.56c-2.06-3.23-.71-7.48-1.25-11.27a40.1,40.1,0,0,0-1.34-5,25.68,25.68,0,0,1,2.82-20c1.42-2.31,3.42-4.52,6.08-5,3.09-.58,6.2,1.38,7.93,4s2.36,5.79,3,8.87l8.19,42-.13,7.33c-.63,3.29-1.32,6.72-3.41,9.34a27.22,27.22,0,0,1-2.79,2.79,35.26,35.26,0,0,0-6.49,8.43l-3.75-2.43C939.41,918.34,937.94,913.49,937.17,909Zm25.77,37a7.66,7.66,0,0,1-1.22,3.33c-1.16,1.54-3.18,2.08-5,2.73a26.75,26.75,0,0,0-7.47,4.17l-3.14-1.91q-.3-3.5-.61-7a14.76,14.76,0,0,1,.36-6.25,14.57,14.57,0,0,1,3-4.44q3.54-4,7.07-8.09a9.07,9.07,0,0,1,2.07-1.94A4.79,4.79,0,0,1,964.7,929l-1.17,5.06A44.73,44.73,0,0,1,962.94,946Z"></path>
    <path data-name="6" data-official="Lisianthus Russellianus" data-plain="" data-loc="Mexico" d="M1376.93,2342.74c-1.21,5.64-4.86,11.12-10.36,12.84-3.38,1.06-7.36.74-10,3.05-1.75,1.5-2.54,3.81-3.67,5.82-3.63,6.45-11,9.92-18.2,11.49-6.76,1.48-14,1.61-20.38-1.13s-11.56-8.74-12-15.64c-.61-9.7,7.56-17.39,11.83-26.12,5.4-11,4.53-23.93,3.64-36.16a2183.13,2183.13,0,0,1-1-301.65l.68-13.51q1.56-15.8,3.81-31.52l4-8.75c3.84-.25,7.42,2.24,9.66,5.37s3.42,6.87,4.8,10.46a90.29,90.29,0,0,0,12.13,21.86,13.92,13.92,0,0,0,4.67,4.4c1.94,1,4.54.9,6-.67a65.74,65.74,0,0,0,4.77,8.15l.9,14.89c6.13,71.47-4.31,143.37-1.87,215.06,1.19,35,5.44,69.85,10.23,104.55C1377.35,2331.24,1378.14,2337.1,1376.93,2342.74Zm3.29-725.22c-6.61.81-13.19,2.71-18.73,6.39l-.32-6.29q1-6,2-12l5.26-10,1.87-8.06a11.21,11.21,0,0,0,6.62-9c1.64,2.19,4.73,2.9,7.42,2.4a6.76,6.76,0,0,1,2.67-.23c1.81.42,2.53,2.53,3.65,4,2.43,3.26,7.55,4.17,9,8a10.26,10.26,0,0,1,.45,3.75q0,7.47,0,14.94l.06,5.8A127.59,127.59,0,0,0,1380.22,1617.52ZM2052.46,740c-17,27.58-52.91,44.49-83.38,33.43-3.2,23.29-24.42,39.21-43.88,52.4-5,3.39-10.14,6.84-16,8.21s-12,.53-17.92-.32q-63.73-9.15-126.88-22c-5.33-1.08-10.81-2.19-16.18-1.25-11.33,2-19,12.24-27.87,19.53a61,61,0,0,1-34.2,13.59l-6.49,1.06c-1.72,5-3.48,10.17-6.42,14.63s-11.11,7.77-11.78,8.25-2.11,3.42-2.47,4.25c-1.38,3.25-2.76,9.49-4.14,12.74,4.76,6,6.71,6.19,5.93,9.66l-5.2,9.78c-4.23,10.12-5.66,21.14-8,31.85-3.65,16.47-9.59,32.33-15.5,48.14l-6.3,11.59c-3.8,9.58-9.28,18.39-13.88,27.62s-8.35,19.18-8.29,29.49a5.8,5.8,0,0,0,.83,3.49c1.11,1.51,3.36,1.7,5.13,1.1a33.71,33.71,0,0,0,4.92-2.7,14.83,14.83,0,0,1,21.64,10.5,4,4,0,0,0,1.13,2.7,3.59,3.59,0,0,0,2.49.31,73.91,73.91,0,0,1,38.34,6,61.87,61.87,0,0,0,10.35-36.25l.68-8.25q.18-12.25.53-24.5c.42-14.33,1.21-29.27,8.24-41.77,3.59-6.39,8.64-11.82,12.8-17.85,8.11-11.75,12.64-25.51,18.22-38.65,2.25-5.31,4.75-10.62,8.58-14.93a16.23,16.23,0,0,1,6.85-4.89,8.59,8.59,0,0,1,8.07,1.18,7,7,0,0,0,2.18,1.56,4.57,4.57,0,0,0,3.24-.69,258,258,0,0,0,23.88-13.59l7.36-4.23a45.65,45.65,0,0,0,8.73-5,15.41,15.41,0,0,0,5.69-8.09c.34-1.35.43-2.76.74-4.12,1.11-5,4.93-8.94,8.57-12.56l9.64-5.37c7.19-3.08,16.25.23,20.49,6.81s3.79,15.59-.34,22.23a44.15,44.15,0,0,0-3.52,5.7c-1.87,4.36-.86,9.37.29,14l2.11,15.38c-1.31,5.36-5.28,9.59-8.56,14a64.21,64.21,0,0,0-12,44.91l-.56,7.68a343.45,343.45,0,0,1-49.65,65.5c-6.14,6.35-12.73,12.59-20.89,16-6.77,2.8-14.48,3.56-20.41,7.85-4.52,3.28-7.47,8.27-10,13.25a147.78,147.78,0,0,0-7.51,17.34c-1.33,3.7-2.53,7.58-2.18,11.5.78,8.93,9.14,15.43,11.37,24.11,1.49,5.81,0,12.1-3,17.29s-7.44,9.41-12.12,13.16l-2,7.69a35.46,35.46,0,0,1,2,8,18.47,18.47,0,0,1-.08,6.25,12.71,12.71,0,0,1-8.1,9.19l-7.41,3.3a307,307,0,0,0-53.67-3.55c-7.27.16-15.25.88-20.4,6-2.82,2.82-4.39,6.62-5.9,10.31l-21.6,53.07a435.19,435.19,0,0,1,65.06-9.13c23.84-1.53,50.07-.27,68,15.48,9.44,8.28,16.45,20.4,28.48,24,5.42,1.62,11.19,1.24,16.84,1.54,6.93.35,14,1.81,19.83,5.56s10.34,10.06,10.6,17l-3.21,9.82c-6.42,11.41-18.14,19.07-30.53,23.28s-25.59,5.32-38.64,6.41l-21.27,1.77c-15.85,1.32-31.94,2.7-46.82,8.31s-28.66,16.12-34.52,30.91l0,7.28c-9.31-2.53-20.71-3.59-27.22,3.51l-16.68,14.9a97.27,97.27,0,0,1-51.55,13.55c-16.08-.36-33.12-4.55-47.6,2.43-10.56,5.09-17.8,15.36-28.06,21l-4.46,7-3.58,1.47c-3,1.74-2.68,6.36-5,9-2,2.31-5.47,2.48-8.45,3.23a19.11,19.11,0,0,0-10.44,6.89,18.9,18.9,0,0,0-10.1-13.65,1.49,1.49,0,0,1-.74-.58,1.43,1.43,0,0,1-.1-.65v-11l-4.53-10.26,2.37-7c4.21-10,7.54-20.88,5.57-31.53-1.25-6.74-5.29-13.6-11.88-15.5-6-1.71-12.24,1-17.56,4.21-12.41,7.47-22.88,17.71-34.18,26.78s-24,17.21-38.38,19.25l-6.29.65c-3.63-3.52-9.58-2.21-14.39-.63-11.43,3.74-23,7.66-35,8.44-5.4.35-10.83.06-16.23.47-13.09,1-26.38,6-39,2.43l-4.3-2.54a6.5,6.5,0,0,0-3.68-2.78,22.61,22.61,0,0,0-4.63-.84,92.35,92.35,0,0,1-17.63-3.8l-13.13,2.8a46,46,0,0,0-46.14,5.07l-8.33,1.94c-2.53.52-4.36-2.47-4.68-5s-.08-5.48-1.85-7.36c-2.38-2.54-6.5-1.44-10-1.28l-6.21-5.75a133.64,133.64,0,0,1,11.72-40.27v-5.12l20.59-20.22c5-4.89,10.38-11.8,7.38-18.11l4.6-7.06a190.38,190.38,0,0,1,17.88-11.87l6.41,1.36a163.73,163.73,0,0,1,52.56-35.67c5.65-2.42,11.72-4.77,15.49-9.63l6.66-4.67a74.54,74.54,0,0,1,16.46-16.23l2.89-3.78c-.49-3.81-1-7.78-3.19-11-1.63-2.41-4-4.16-6.41-5.85l-5.44-3.91-7.23-5.47a29.91,29.91,0,0,1-3.15-5.49,53.86,53.86,0,0,1-1.95-6.49,73.14,73.14,0,0,0-8.58-19.59,7.92,7.92,0,0,0-3.38-3.42,8.24,8.24,0,0,0-4.62,0c-5.35,1-10.84,2.15-16.21,1.18l-19.85-.58c-8.19-2.12-14.62-8.28-20.85-14a374.91,374.91,0,0,0-43-34l-5-5.73c-14.89-11-25.38-27.37-31-45s-6.46-36.57-4.4-55c1.43-12.79,4.33-25.63,10.72-36.8,6-10.41,14.68-19,23.61-27a3.74,3.74,0,0,0,1.54-2.35,3.6,3.6,0,0,0-1-2.28A60,60,0,0,0,1076,962l-3.89-5.83,7.65-11.67a86.52,86.52,0,0,1-14.77-38.9c-.43-3.64-.66-7.42-2.35-10.68l-2.77-8.24-2.76-10.25c1.08-22,11.91-42.07,22.47-61.34v-7.72c21.4-14.54,39.81-35.89,60.92-51.58,8.44-6.28,17.53-11.77,25.85-18.16l25.8,1.12a94.29,94.29,0,0,1,67.22,7.29c7.74,4,14.87,9.11,21.93,14.22,13,9.44,26.43,19.7,33.08,34.35a97.69,97.69,0,0,1,22.66-54,48,48,0,0,1,11.55-10.36c5.63-3.39,12.17-4.95,18.68-5.83,17-2.3,34.28-.25,51.33,1.8l5.59,9c2.6,3.31,6.63,5.09,10.5,6.74a26.62,26.62,0,0,0,5.33,1.82c5.36,1,10.87-1.49,16.27-.73l7.92-2.08,14.72-2c5.41-.72,11.35-1.34,15.91,1.66,6,3.94,6.9,12.15,9.63,18.79,2.18,5.33,5.78,9.93,9.33,14.47l14.85,19,.41,9.78c1.05,8.64,6.92,15.8,10.64,23.67a49.69,49.69,0,0,1,4.67,18.81l.5,1.53c3,1.72,2.6,6.35,5.07,8.71,1.07,1,2.56,1.51,3.52,2.62a7.24,7.24,0,0,1,1.37,3.75,45.23,45.23,0,0,1-.17,14.64l-1.58,5.33a114.84,114.84,0,0,1-5.85,17.25c-1.78,4.14-3.85,8.23-7,11.48-2.59,2.7-5.8,4.72-8.87,6.84A120.16,120.16,0,0,0,1503,945.05a88.49,88.49,0,0,1,20.34,5l10.59-.31a62,62,0,0,1,16,9.23l1.8,6.13c6.08,2.29,9.26,8.79,13.65,13.58,2.15,2.35,4.66,4.33,6.8,6.68,3.39,3.71,5.76,8.22,8.09,12.67,2.73,5.19,5.47,10.43,7.13,16.06,4.28-6.51,7.15-13.82,10-21.08l13.17-33.64c1.08-2.76,2.17-5.61,2-8.56-.1-2.2-.87-4.32-1.08-6.51a23.39,23.39,0,0,1,1.42-9.08,117.84,117.84,0,0,1,13.56-29l5.32-9.45,4.27-10.36a31.85,31.85,0,0,0,2.52-8.1c.4-3.22-.18-6.5.16-9.73.44-4,2.28-7.72,3.65-11.53,3.31-9.16,3.89-19.14,2.87-28.83s-3.58-19.15-6.42-28.47l-1-10.06c-6.14-14.55-15.55-27.45-25.07-40-4.28-5.67-8.64-11.36-14-16-5.24-4.46-11.33-7.8-17.37-11.1l-64.17-35.06c-3.17-1.73-6.46-3.57-8.45-6.57-2.23-3.37-2.47-7.66-2.42-11.7a119.59,119.59,0,0,1,6-36.28l4-7.24c-.86-12.66-1.54-26.18,4.82-37.16l-16.71-20.18c-6.49-7.83-13.12-15.9-16.33-25.55-2.1-6.32-3.46-14.15-9.6-16.75l-3-6.45a108.33,108.33,0,0,1,14.14-61.11c4.43-7.68,10.31-15.18,18.67-18.09,4.92-1.71,10.52-1.77,14.76-4.77,3.12-2.21,5-5.69,7-9,3.18-5.29,6.81-10.39,11.53-14.35s10.67-6.71,16.84-6.73l11.83,2.86a70.82,70.82,0,0,1,14.24-1.32l5.5-4.25c7.71-.56,15.69-1.09,23,1.53,11.55,4.16,18.94,15.29,24.93,26a359.48,359.48,0,0,1,24.33,53.37l6.9-12.22q5.07-14,10.15-28.08c1.83-5.05,3.75-10.26,7.45-14.15,2.18-2.29,4.95-4.08,6.65-6.76,2.51-4,2.21-9.09,4-13.42,1.69-4,5.09-7.1,8.64-9.66,23.49-17,55-17.22,83.81-14,14.12,1.56,28.45,3.85,41.07,10.35,8.59,4.43,16.19,10.7,25.1,14.43,13.56,5.68,29.3,5.09,42.35,11.86,11.89,6.18,20.17,17.92,24.68,30.54s5.62,26.17,6.2,39.56l-.75,10.62c23.3-3.23,47.55-4.06,69.86,3.41s42.46,24.52,48.53,47.25c4.36,16.36,1.21,33.77,3.33,50.57,1.81,14.38,7.44,28,11.32,41.92C2070.14,677.21,2069.49,712.46,2052.46,740Z"></path>
    <path data-name="7" data-official="Leianthes nigrescens" data-plain="" data-loc="Guatemala" d="M1257.27,2064.4c5.63-19.36-6.11-39.1-8.88-59.06l-.8-8.62-4.67-11.66a9.59,9.59,0,0,1-.94-3.8,10.78,10.78,0,0,1,1.53-4.32,42.21,42.21,0,0,0,3.86-11.85c.46-2.69.79-5.7,2.86-7.48s5.2-1.65,7.88-2.37a11.87,11.87,0,0,0,6.88-5.07l3.33,8.61c10.54,13.42,20.53,27.44,27.48,43a129.88,129.88,0,0,1-.22,105c-2.8,6.18-6.33,12.42-12.09,16s-14.28,3.55-18.53-1.74c-3.11-3.87-3.2-9.29-3.14-14.25l.39-33.95Zm-36.84-96.89,12.34.87a139.88,139.88,0,0,0,8.57-20.79,26.86,26.86,0,0,0,1.2-4.91c.38-3.27-.34-6.66.5-9.84l-1-6.23a15.56,15.56,0,0,0-2.88-6.67l-3.05-3.75c-3.95-1-7.29-3.53-11-5.18a25,25,0,0,0-21.72.89l-10.24,4,1,8a122,122,0,0,0,22.32,36.31Zm-55.85-519.4a262.79,262.79,0,0,0,1.36,42.35l-.71,7L1168,1503l3.88,10.31a1.53,1.53,0,0,0,.43.7,1.43,1.43,0,0,0,1.08.11c3.45-.52,7.31-.73,10,1.42,2,1.56,3,4.07,4.78,5.83a8.74,8.74,0,0,0,7.17,2.36l4.65-5.82c.12-5.14.48-10.75,3.93-14.56,4.23-4.65,11.35-4.82,17.62-4.66l22.58.59a87.14,87.14,0,0,0,14.36-.41,66.58,66.58,0,0,0,16-4.68,140,140,0,0,0,19-9.46c6.85-4.07,13.57-9,17.36-16s3.81-16.58-1.81-22.22l1-8.09-6.29.65c-3.63-3.52-9.58-2.21-14.39-.63-11.43,3.74-23,7.66-35,8.44-5.4.35-10.83.06-16.23.47-13.09,1-26.38,6-39,2.43l-4.3-2.54a6.5,6.5,0,0,0-3.68-2.78,22.61,22.61,0,0,0-4.63-.84,92.35,92.35,0,0,1-17.63-3.8Zm12.36-239.26-1.35,21.61c-10.5-9-21.31-18.26-34.32-23-9.35-3.44-19.4-4.41-29.32-5.36l-19.29-1.85c-17.8-1.7-36.49-3.27-52.89,3.86l-6.32.33c-5.13,10.7-14.22,18.89-23.08,26.78-2.74,2.44-5.55,4.92-9,6.26a26.16,26.16,0,0,1-8.66,1.46l1.53,6.75c1.32,8.18-4.8,15.79-11.66,20.43s-14.9,7.66-20.92,13.36c-3.38,3.19-6,7.12-9.49,10.19s-8.32,5.24-12.76,3.88l-4.41-.82-.82,4.25c.51,1.36-.64,2.89-2,3.29a6.51,6.51,0,0,1-4.22-.62,2.29,2.29,0,0,0-1.16-.28c-.86.12-1.23,1.2-1.16,2.07.16,2.33,1.92,4.19,3.57,5.83l5.58,5.55,1.19,7.49,6.83,4.17c5.77,4.54,13.27,6.38,20.61,6.72s14.66-.69,22-1.29a184.8,184.8,0,0,1,41.71,1.34c7.9,1.16,16.17,3,22,8.52l-3,4.88c7.61.11,15.22.22,22.81-.18,10.16-.53,20.24-2,30.32-3.39,7-1,16-1,19.09,5.44l4.6-7.06a190.38,190.38,0,0,1,17.88-11.87l6.41,1.36a163.73,163.73,0,0,1,52.56-35.67c5.65-2.42,11.72-4.77,15.49-9.63l6.66-4.67a74.54,74.54,0,0,1,16.46-16.23l2.89-3.78c-.49-3.81-1-7.78-3.19-11-1.63-2.41-4-4.16-6.41-5.85l-5.44-3.91-7.23-5.47a29.91,29.91,0,0,1-3.15-5.49,53.86,53.86,0,0,1-1.95-6.49,73.14,73.14,0,0,0-8.58-19.59,7.92,7.92,0,0,0-3.38-3.42,8.24,8.24,0,0,0-4.62,0c-5.35,1-10.84,2.15-16.21,1.18Zm702.54-367.64a25.13,25.13,0,0,0-12.1,19.59c-.16,2.34-.79,5.55-3.13,5.47a4.23,4.23,0,0,1-2-.76l-8.31-5-11.44,4.63a44.15,44.15,0,0,0-3.52,5.7c-1.87,4.36-.86,9.37.29,14l2.11,15.38c-1.31,5.36-5.28,9.59-8.56,14a64.21,64.21,0,0,0-12,44.91l-.56,7.68a343.45,343.45,0,0,1-49.65,65.5c-6.14,6.35-12.73,12.59-20.89,16-6.77,2.8-14.48,3.56-20.41,7.85-4.52,3.28-7.47,8.27-10,13.25a147.78,147.78,0,0,0-7.51,17.34c-1.33,3.7-2.53,7.58-2.18,11.5.78,8.93,9.14,15.43,11.37,24.11,1.49,5.81,0,12.1-3,17.29s-7.44,9.41-12.12,13.16l-2,7.69a35.46,35.46,0,0,1,2,8,18.47,18.47,0,0,1-.08,6.25,12.71,12.71,0,0,1-8.1,9.19l1.68,8.68c3.23,12,20.32,14.53,31.26,8.59s18-17,27-25.53c11.58-10.94,26.5-17.84,38.13-28.74,26-24.35,32.26-65.17,59.85-87.71,4.1,11.1-2.35,23.66.27,35.2,2,8.86,9,15.66,13,23.83,14.38,29.54-13.62,64.15-7.58,96.45,1.06,5.63,3.15,11.09,3.58,16.8,1.54,20.56-18.22,37.52-18.93,58.12-.65,18.72,15.36,34.77,33.25,40.35s37.17,3,55.68.1c8.81-1.4,17.79-2.94,25.65-7.16s14.55-11.63,15.55-20.49c1.17-10.34-5.29-19.77-8.66-29.61-9.72-28.41,6.57-60.77-2.91-89.26-4.21-12.64-13.26-23.53-15.61-36.64-2.25-12.51,1.9-25.15,5.28-37.4a322.28,322.28,0,0,0,11.56-91.84c-.25-12.74-1.3-25.67-5.88-37.55-4.34-11.22-11.63-21-17.08-31.74a106,106,0,0,1-9.48-67.7c1.59-8.13,4.14-16.13,4.46-24.41s-2-17.22-8.51-22.39l-4.07-8c-5,3.39-10.14,6.84-16,8.21s-12,.53-17.92-.32Zm-81.06,2.65a328,328,0,0,0-111.22,5.43l-7.56-4.59c-1.72,5-3.48,10.17-6.42,14.63s-11.11,7.77-11.78,8.25-2.11,3.42-2.47,4.25c-1.38,3.25-2.76,9.49-4.14,12.74,4.76,6,6.71,6.19,5.93,9.66l6.78-5.24A233,233,0,0,1,1777,872.84l4.62,2.64,7.36-4.23a45.65,45.65,0,0,0,8.73-5,15.41,15.41,0,0,0,5.69-8.09c.34-1.35.43-2.76.74-4.12Zm-167.29,24.72a46.11,46.11,0,0,0-14.69,4.44,52.23,52.23,0,0,0-7-50.92c-7.68-9.83-18.68-16.52-29.92-22a59.12,59.12,0,0,0-11.86-4.58,63.23,63.23,0,0,0-13-1.37q-10.92-.32-21.84.14l-4.17-1.42.41,9.78c1.05,8.64,6.92,15.8,10.64,23.67a49.69,49.69,0,0,1,4.67,18.81l.5,1.53c3,1.72,2.6,6.35,5.07,8.71,1.07,1,2.56,1.51,3.52,2.62a7.24,7.24,0,0,1,1.37,3.75,45.23,45.23,0,0,1-.17,14.64l-1.58,5.33a114.84,114.84,0,0,1-5.85,17.25c-1.78,4.14-3.85,8.23-7,11.48-2.59,2.7-5.8,4.72-8.87,6.84A120.16,120.16,0,0,0,1503,945.05a88.49,88.49,0,0,1,20.34,5l10.59-.31a62,62,0,0,1,16,9.23l1.8,6.13c6.08,2.29,9.26,8.79,13.65,13.58,2.15,2.35,4.66,4.33,6.8,6.68,3.39,3.71,5.76,8.22,8.09,12.67,2.73,5.19,5.47,10.43,7.13,16.06,4.28-6.51,7.15-13.82,10-21.08l13.17-33.64c1.08-2.76,2.17-5.61,2-8.56-.1-2.2-.87-4.32-1.08-6.51a23.39,23.39,0,0,1,1.42-9.08,117.84,117.84,0,0,1,13.56-29l5.32-9.45,4.27-10.36a31.85,31.85,0,0,0,2.52-8.1c.4-3.22-.18-6.5.16-9.73Zm-436.5-151.09c-.89,5.1,3.5,10.07,8.56,11.13s10.35-1,14.5-4.1,7.45-7.16,11.08-10.85c5.64-5.75,12.12-10.64,17.56-16.57,13.36-14.54,19.51-34.08,28.74-51.53,2.14-4.05,4.59-8.15,8.37-10.75,4.61-3.17,10.46-3.65,16-4.66,7.42-1.38,14.72-3.94,20.85-8.35,7.76-5.58,14.14-14.27,23.62-15.56,6.91-1,13.76,2.43,20.74,2.18,7.27-.26,13.76-4.37,20.7-6.53a8.16,8.16,0,0,1,5-.36c2.67.9,3.86,3.93,4.71,6.61A607.16,607.16,0,0,1,1419,719l-.33,7.28,5.59,9c2.6,3.31,6.63,5.09,10.5,6.74a26.62,26.62,0,0,0,5.33,1.82c5.36,1,10.87-1.49,16.27-.73l-.65-6.16.32-28.86a248.06,248.06,0,0,0-.68-26.72c-3.21-32.77-19.37-63-24.68-95.48-.69-4.22.21-10.24,4.49-10.29,2.74,0,4.58,2.67,6.08,5a57.46,57.46,0,0,0,28.06,22.28c3.54,1.29,7.29,2.27,10.34,4.49,4.55,3.29,6.87,8.75,10.23,13.25a33.16,33.16,0,0,0,12.59,10.2l9.88,2.16,4-7.24c-.86-12.66-1.54-26.18,4.82-37.16l-16.71-20.18c-6.49-7.83-13.12-15.9-16.33-25.55-2.1-6.32-3.46-14.15-9.6-16.75l-3-6.45a108.33,108.33,0,0,1,14.14-61.11c4.43-7.68,10.31-15.18,18.67-18.09,4.92-1.71,10.52-1.77,14.76-4.77,3.12-2.21,5-5.69,7-9,3.18-5.29,6.81-10.39,11.53-14.35s10.67-6.71,16.84-6.73l11.83,2.86a70.82,70.82,0,0,1,14.24-1.32l5.5-4.25c7.71-.56,15.69-1.09,23,1.53,11.55,4.16,18.94,15.29,24.93,26a359.48,359.48,0,0,1,24.33,53.37l6.9-12.22q5.07-14,10.15-28.08c1.83-5.05,3.75-10.26,7.45-14.15,2.18-2.29,4.95-4.08,6.65-6.76,2.51-4,2.21-9.09,4-13.42,1.69-4,5.09-7.1,8.64-9.66,10.12-7.33,21.73-11.54,34-13.71l-2.9-8.34c-6-9.59-12.23-20.57-9.56-31.56,1.94-8,8.25-14.13,13.41-20.59,7.4-9.29,12.74-20,18-30.64l2.52-8.44a41.56,41.56,0,0,0,26.75-21.53c4.16-8.38,5.33-17.89,6.17-27.2q1.64-18,1.94-36.15c.14-8.79,0-17.83-3.25-26-2.24-5.61-5.87-10.54-9.67-15.24A201.8,201.8,0,0,0,1753,129.74c-3.85-3.09-7.93-6.11-12.7-7.37-5.34-1.42-11-.48-16.36,1-9,2.44-18,6.79-22.72,14.8-3,5.2-3.92,11.49-7.21,16.54-5.06,7.76-14.76,11.08-23.93,12.3-18.69,2.5-37.54-1.49-56.32-3.07s-39.09-.31-54.16,11c-2,1.48-3.88,3.15-6.24,3.87-4,1.22-8.18-.51-12.07-2a110.34,110.34,0,0,0-47.12-6.92l-11.38-.42c-20.9,2.39-40.36,12.33-57,25.18s-30.82,28.59-44.88,44.23l-18.17-19.79c-1-1-2-2.23-2-3.65s1-2.78,2-3.9l50.54-56.87c28-31.48,56.93-64.78,66.57-105.77,1.15-4.88,2-10,1-14.87-2.26-10.42-13.12-17.37-23.77-17.85s-20.88,4.27-29.65,10.33c-16.27,11.23-28.84,27-40.59,42.86a844.34,844.34,0,0,0-61,95.38c-17.34-16.18-30.94-35.88-46.24-54s-33.08-35.19-55.29-43.52c-18.56-6.95-39.08-7.3-58.65-4.2-4.08.65-8.45,1.61-11.19,4.7-3.79,4.27-3,11.14.14,15.93s7.92,8.15,12.27,11.84a82.54,82.54,0,0,1,23,31.8c4.41,10.88,8,24.37,19.21,28l8.9,8.76c10.36,2.73,18.58,10.58,25.2,19l6.2,6.69c8.87,13.79,13.25,30.13,14.57,46.48s-.27,32.79-2.59,49c-1.05,7.31-2.8,15.49-9.07,19.4l-.47,9.29a75.09,75.09,0,0,0,.57,14.06l1.13,12.52c-20.53.23-41.56,2.55-59.95,11.67-20.41,10.12-36.09,27.89-48.39,47.06s-21.72,40-33.11,59.76a8.83,8.83,0,0,1-3.29,3.77c-1.82.92-4,.5-6-.09a40.11,40.11,0,0,1-20.56-14.58c-4.28-5.86-7-12.93-12.3-17.91a23.74,23.74,0,0,0-40,16.75c-.16,6.75,2.54,13.23,3.22,19.95s-1.66,14.72-8,16.93c-4.1,1.43-8.74,0-12.91,1.23-4.7,1.36-7.95,5.9-9.06,10.66s-.43,9.75.5,14.55A145.18,145.18,0,0,0,1022.62,559c3.39,5.45,7.24,10.78,12.48,14.49,9,6.37,20.73,7.16,31.69,6.32,2.26-.17,4.7-.36,6.61.85,1.76,1.12,2.64,3.18,3.6,5a36.18,36.18,0,0,0,22.11,18.11l.3,8c6.12-1,12.38-.32,18.53.41q35.18,4.13,70.11,10c3.67.62,7.41,1.28,10.68,3.06,5.43,2.94,8.89,8.63,10.83,14.49,7.1,21.37-3.1,44.41-14.6,63.77Z"></path>
    <path data-name="8a" data-official="Gentiana lutea" data-plain="Capsule" data-loc="" d="M1312.84,2658.42c-4.5-18.46-4.87-37.64-5.23-56.64-.21-11.08-.4-22.3,2.17-33.08,3.06-12.87,9.9-24.46,16.65-35.84l71.51-120.5c4.49-7.58,9.82-15.8,18.34-18,6.7-1.76,14,.8,19.32,5.19s9.09,10.41,12.43,16.47c4.26,7.76,8.08,16,8.93,24.82s-1.73,18.37-8.47,24.11c-6.18,5.26-15.59,7.38-18.84,14.82a19.48,19.48,0,0,0-1.19,8.68c.9,20.7,13.85,38.63,21.34,58a115.21,115.21,0,0,1-8.47,99.36c-1.51,2.51-3.17,5.34-2.44,8.16.62,2.39,2.78,4,4.84,5.37a129.06,129.06,0,0,0,27.93,13.95c5.49,2,11.21,3.59,16,6.86s8.69,8.67,8.32,14.49c-.39,6.33-5.74,11.47-11.7,13.61s-12.48,1.9-18.81,1.63l-35.3-1.5c-4.44-.19-9.44-.18-12.57,3-2.34,2.33-3,5.84-3.11,9.14-.3,10.45,4,20.38,6.91,30.43s4.07,21.64-1.81,30.28c-8,11.79-24.77,12.62-39,12.25l-16.22-.43c-4.52-.12-9.29-.31-13.12-2.71-5.5-3.44-7.58-10.62-7.16-17.09s2.84-12.63,4.37-18.94c.87-3.58,1.43-7.45,0-10.87-3.52-8.71-15.76-8.42-25-6.75s-21.61,1.49-24.61-7.41c-2.58-7.63,3.89-17.9-2.16-23.23-3.59-3.17-9.19-1.93-13.72-3.48-9.12-3.13-10.13-16.83-4-24.32s16.1-10.25,25.45-12.61Z"></path>
    <path data-name="9a" data-official="Chironia baccifera" data-plain="Section of Ovary" data-loc="" d="M1526.6,2676.07c-6.81-15.87-12.15-32.9-11-50.14s9.91-34.75,25.3-42.6c5.68-2.89,12-4.37,18.23-5.53a203.49,203.49,0,0,1,55.09-2.57c9.78.87,19.66,2.51,28.51,6.76,15.48,7.44,26.67,23,29.14,40,1.67,11.51-.43,23.25-3.41,34.5-1.65,6.26-3.62,12.51-6.94,18.07-2.59,4.35-6,8.18-8.87,12.32-9.28,13.2-13.71,29.35-14.89,45.44-.52,7.11-.48,14.46-3.23,21-3.41,8.17-10.85,14.18-19.06,17.51s-17.19,4.24-26,4.55c-7,.24-14.09.12-21.12-.27-3.28-.18-6.65-.46-9.56-2-7.88-4.09-8.86-14.68-9.62-23.52a151.26,151.26,0,0,0-15.92-55.72Z"></path>
    <path data-name="9b" data-official="" data-plain="Section of Fruit" data-loc="" d="M1724.89,2718.45c1.62-6.29-3.56-12.6-9.58-15.06s-12.73-2.24-19.18-3-13.37-3-16.73-8.6c-4.79-7.9-.16-18.11,5.44-25.46,1.83-2.41,3.82-4.82,4.69-7.73a17.82,17.82,0,0,0,.15-7.93c-2-12-9.16-23.85-6-35.61,2.17-7.94,8.65-13.84,14.83-19.27,6.4-5.62,12.89-11.31,20.54-15a72,72,0,0,1,18.65-5.67,149.74,149.74,0,0,1,59.31,1c4.89,1.08,9.82,2.44,14,5.26s7.24,7,9.75,11.34a65.8,65.8,0,0,1,8.65,36c-.43,8.31-2.45,16.7-.84,24.87.66,3.38,1.93,6.66,2,10.1.25,7.75-5.47,14.49-11.9,18.82-3.72,2.5-8.09,4.85-9.52,9.1-1.09,3.22-.25,7-2.09,9.9-2.89,4.5-9.72,3.33-14.71,5.26-7.49,2.89-9.82,12.42-9.32,20.42s2.73,16.27.15,23.87-9.73,13.08-17.1,16.59c-12.43,5.94-27.57,7.82-39.88,1.64a18.46,18.46,0,0,1-5.9-4.36c-3.37-4-3.95-9.6-3.59-14.79a51.64,51.64,0,0,1,5.47-19.8Z"></path>
    <path data-name="9c" data-official="" data-plain="Seed" data-loc="" d="M1859.15,2682c-7.48-9.43-9.19-22.09-10-34.1-.57-8.28-.85-16.72,1.17-24.78s6.61-15.78,13.81-19.91c9.73-5.59,22-3.63,32.56.18,6.4,2.32,12.94,5.58,16.43,11.42,3.14,5.25,3.3,11.69,3.34,17.8q.33,41.9-.81,83.79c-.06,2.2-.15,4.52-1.32,6.39-1.78,2.84-5.42,3.77-8.71,4.38a194.26,194.26,0,0,1-32.19,3.14c-8.06.11-17.44-1-21.74-7.82-5-7.87-.06-18.1,5.23-25.75Z"></path>
    <path data-name="9d" data-official="" data-plain="Section" data-loc="" d="M1929.26,2686.58a224,224,0,0,1-6.26-52.91c0-3.83.15-7.83,2-11.2,2.24-4.12,6.64-6.59,11.06-8.16,9.47-3.36,19.76-3.5,29.79-2.87,6.4.41,13.27,1.32,18,5.67,5,4.58,6.32,11.84,6.78,18.58a112.82,112.82,0,0,1-.54,21.27c-.67,5.56-1.65,11.63,1.23,16.43,1.57,2.61,4.08,4.47,6.26,6.57a34.14,34.14,0,0,1,9.65,30.41c-.86,4.46-2.7,8.85-6,12-4.59,4.34-11.22,5.6-17.49,6.38a206.88,206.88,0,0,1-39.26,1.16c-3.34-.22-6.79-.54-9.76-2.09-4.9-2.55-7.69-8.07-8.38-13.54s.37-11,1.43-16.43Z"></path>
</svg>
