
<svg xmlns="http://www.w3.org/2000/svg" viewBox="0 0 2206 3038" id="illustration" preserveAspectRatio="xMidYMid meet">
    <title>Bignoniaceæ</title>
    <path data-name="1" data-official="Bignonia radicans" data-plain="Trumpet-Flower" data-loc="North America" d="M2164.87,625.92A66.85,66.85,0,0,0,2093,568.15a71.86,71.86,0,0,0-5-30.66l-7.3-9.46c-4.57-5.49-12.29-6.82-19.29-8.24s-14.75-4-17.74-10.49c-1.1-2.38-1.46-5.15-3.11-7.18s-4.51-3-7.13-3.79l-6.72-1.2a29.55,29.55,0,0,0-11.76,3.09,1.29,1.29,0,0,1-.53.18c-.42,0-.75-.34-1-.67-1.59-2-3.33-4.09-5.67-5.21a18.32,18.32,0,0,0-6.45-1.35l-14-1.18-4.15-3.75-20-.79c-3-.12-6-.25-8.73-1.46-2.52-1.13-4.55-3.09-6.65-4.89a63.84,63.84,0,0,0-29.51-14.16l-7.42,2.82c-3.56,4.32-7.49,8.88-12.91,10.3-4.38,1.15-9.13.05-13.51,1.22-6.54,1.75-10.9,8.15-17.26,10.49-4.19,1.54-9.08,1.25-12.77,3.77-3,2-4.58,5.51-6.72,8.42-4.53,6.17-11.75,10.09-15.73,16.63-2.72,4.47-3.68,9.78-4.11,15-.86,10.45-4.75,26.22-.44,35.77,1.72,3.82,5.93,6.42,7.28,10.39,3.6,10.55,3.66,16.15-.1,26.64-2.29,6.4-4.93,15.12-3.63,21.8a16.74,16.74,0,0,0-7.58,3.64l-4.91,2.61a188.86,188.86,0,0,1-20.28,19.82l-8,.19a29.45,29.45,0,0,0-12.4,10.83,61.51,61.51,0,0,0-7,15.1l1.35,5.82c.85,2.16,0,4.6-1.1,6.64a57.87,57.87,0,0,1-6.85,9.43l-11.32,13.53-3.89,6.88a69.1,69.1,0,0,1-28.88,35.59l-11.67,3A35.52,35.52,0,0,1,1712,747c2.17-4.46,5.37-8.79,5.23-13.75l3-15.94a100.07,100.07,0,0,0,15-18.61,25.85,25.85,0,0,1,4.06-5.49c1.46-1.34,3.26-2.3,4.59-3.77a15.24,15.24,0,0,0,3-6.35,72.77,72.77,0,0,0,2.48-14.58,18.48,18.48,0,0,0-.55-7.07c-1.62-4.91-6.56-7.95-11.47-9.59-9-3-18.69-2.67-28.16-2.24l-11.82-41.3a69.59,69.59,0,0,0-.56-19.81c-.88-5.13-2.34-10.17-3-15.34-.93-7.1-.46-14.68-3.86-21l-1.6-8.66c-1.89-2.07-2.79-4.82-3.64-7.49s-1.71-5.36-2.56-8a39.87,39.87,0,0,1-1.41-5.25c-.3-1.8-.35-3.63-.56-5.44a30.11,30.11,0,0,0-3.57-11l-2.93-5.17-8.28-15.61c-2.57-4.84-5.16-9.73-6.63-15-1.69-6-1.88-12.34-3.31-18.41l-3.22-4.51a255.34,255.34,0,0,0-27.55-42.89l1.7-3.16c7.12,2.07,14.26-2.9,21.61-3.83,2.34-.29,5.29-.58,6-2.82a5,5,0,0,1,.43-1.32c.93-1.45,3.06-.11,4.63.6,2.59,1.16,5.6.07,8.14-1.19a59.51,59.51,0,0,0,10.17-6.43l4.92-8c.16-2.86,2.56-5.12,5.15-6.34s5.46-1.72,8.07-2.87a3.88,3.88,0,0,0,1.34-.87,5.69,5.69,0,0,0,.91-2.4c1-3.94,4.65-6.62,8.27-8.47s7.59-3.27,10.5-6.1l1.55-2.6a9.13,9.13,0,0,0-8.17-8.42,16.88,16.88,0,0,0-5.74-11.1c-1.27-1.09-2.7-2-3.95-3.11-2.7-2.42-4.41-5.72-6.6-8.6s-5.23-5.54-8.85-5.64l-4.7-7.52c-4.25-8.11-12.19-13.81-20.78-17s-17.82-4.07-27-4.51c-14.12-.68-28.56-.3-42,4.17-2,.67-4,1.43-6.15,1.24a13.75,13.75,0,0,1-4.17-1.3l-30.7-13.29-13.53-.58a30.72,30.72,0,0,1-15.71,2.14c-9.75-1.25-19.69-7.13-28.77-3.38-2,.82-3.79,2.08-5.72,3.06a23.09,23.09,0,0,1-18.07,1.08,23.64,23.64,0,0,1-15,10.82c-2.9.64-5.9.73-8.82,1.3a27.74,27.74,0,0,0-18.9,13.9l-6.28,3.29c-2.17,1.75-1.33,5.33-2.78,7.71-1.87,3.08-6.36,2.76-9.9,2.11-22.18-4.07-45.31-5.83-67,.11l-6.8,5.2A41,41,0,0,0,1313.43,359l.44,3.7c4.26.12,8.13-4.52,12.13-3,1.39.52,2.41,1.72,3.68,2.51,1.79,1.13,4.06,1.45,5.66,2.84,2.15,1.85,2.47,5,3.58,7.61,2.11,5,7.15,8,11.91,10.65a443.42,443.42,0,0,0,43.66,20.89c4.84,2,9.82,4,13.77,7.43,5,4.37,7.84,10.66,10.54,16.74l2.8,8.26a506.24,506.24,0,0,1-2.75,65.26l1.25,5.79,6.35,9.93a15.3,15.3,0,0,1,1.93,3.72,18,18,0,0,1,.26,6.39,56.6,56.6,0,0,0,.9,13.87l-2.32,6.4c-1.38,7.56.54,15.34,3.3,22.5s6.37,14,8.59,21.36c2.87,9.49,3.36,19.66,7.14,28.82,2.78,6.75,7.4,13.34,6.58,20.6a1.22,1.22,0,0,1-1.66.4l-1.56,5v5.62l-1.62,4.86a4.11,4.11,0,0,1-3,2.49,13.94,13.94,0,0,1-4.08.13c-4.26-.24-8.7,0-12.51,1.88s-6.83,5.9-6.48,10.15l-1,4.5c-.17,5.56-.73,11.79-5,15.4-1.9,1.64-4.35,2.52-6.36,4a24.78,24.78,0,0,0-4.22,4.4l-5,6.1-7.25,4.26a99.2,99.2,0,0,0-21,16.63l-7.43,3.28c-6.63,11.66-8.57,25.58-7.28,38.93s5.62,26.23,10.89,38.56a274.28,274.28,0,0,0-34.53-34.39c-3.9-3.25-8.38-6.56-13.45-6.35a11,11,0,0,0-9.79,7.48c-1.26,4-.19,8.48-2,12.23a3.81,3.81,0,0,1-2.5,2.3,4.1,4.1,0,0,1-2.17-.36c-5.78-2.31-9-8.27-12.79-13.24-5.14-6.82-11.83-12.28-18.21-18a293.51,293.51,0,0,1-39.49-42.83l-6-1.24c-4.55-1.5-9.56.49-13.41,3.34s-7,6.55-11,9.22-9.24,4.2-13.55,2.1c-4.58-2.23-7.14-8.08-12.17-8.92-3-.5-6.49,1-9-.76-1.47-1-2.17-2.78-3.46-4-2.17-2-5.44-2-8.32-2.57A17.63,17.63,0,0,1,1143,695.16l-.1-1.36c-3.41-1.25-5.84-4.43-7-7.87a28.68,28.68,0,0,1-.93-10.77,3.94,3.94,0,0,0-.29-2.26,4.83,4.83,0,0,0-2.22-1.53,10.79,10.79,0,0,1-5.72-11.21,15.67,15.67,0,0,0,.6-3.93c-.16-1.85-1.44-3.46-1.63-5.31-.27-2.67,1.75-4.95,3-7.35,2.83-5.61,1.3-12.34-.31-18.41l-.6-7.4a30.8,30.8,0,0,0-.52-7.9,4.74,4.74,0,0,0-1.13-2.57,4.47,4.47,0,0,0-2.18-1,16.94,16.94,0,0,0-11.6,1.72c-2.91,1.61-5.52,4.15-8.83,4.44l-4.21.94q-9.22-3.25-18.67-5.85l0-.81c2.45-7.27-.84-15.36-5.79-21.22a10.19,10.19,0,0,1-1.92-2.8c-.61-1.6-.26-3.4-.53-5.1s-1.66-3.53-3.33-3.12l1.12-1a73.7,73.7,0,0,0,7.19-11.27c-.14,1.07,1.2,1.85,2.25,1.59a4.71,4.71,0,0,0,2.42-2.06c5.88-8.18,8.83-18.19,9.88-28.21s.3-20.14-.65-30.17c-.32-3.37-.69-6.85-2.36-9.8-3.48-6.12-12.07-9.17-13-16.14l-.58-3c.6-4.95-2.62-9.63-6.5-12.75s-8.51-5.23-12.4-8.34c-6.69-5.38-11-13.61-18.63-17.62-7.42-3.91-16.36-3-24.66-1.78-8.83,1.26-17.69,2.69-26.08,5.7s-16.37,7.69-22,14.56c-.65.79-1.4,1.68-2.42,1.73a3.79,3.79,0,0,1-2-.71,29.22,29.22,0,0,0-22-2.71L929.73,456a12.12,12.12,0,0,0-10.16,4c-1.22,1.4-2.18,3.13-3.83,4s-3.83.62-5.35,1.73c-1.87,1.36-2,4.16-3.68,5.8-2.77,2.81-7.54.76-11.39,1.6-2.84.62-5.12,2.84-8,3.49s-6.38-.37-8.85,1.37l-1.88,1.37c-1,4.06-2.17,8.27-4.86,11.49-2.83,3.4-7.12,5.32-10,8.7-4.67,5.51-4.6,13.62-8,20-2.35,4.35-6.25,7.68-8.75,11.94-4.18,7.13-4,15.92-3.63,24.18.38,9.43,1.37,20.1,8.8,25.92l.15,1.59c-10.61-.54-21.43.82-31.22,4.94s-18.53,11.12-23.84,20.32c-1.65,2.85-3,5.9-4.92,8.55-1.05,1.42-2.26,2.71-3.24,4.17-2,3-2.9,6.6-3.64,10.14a158.15,158.15,0,0,0-3.27,26.91,31.85,31.85,0,0,1-.87,7.86c-1.23,4.18-4.28,7.63-5.54,11.79l0,6.8a27.85,27.85,0,0,0,7.45,9,32.1,32.1,0,0,1,3.72,3c1.9,2,2.84,4.77,3.86,7.36a83.13,83.13,0,0,0,6.41,12.84,14.14,14.14,0,0,0,3.42,4.14,5.36,5.36,0,0,0,5.09.9l.55,1.34a24.44,24.44,0,0,0,5.65,12.42c2.57,3,5.92,5.43,7.48,9,1.88,4.35.72,9.35-.37,14-3.5,14.93-5.91,30.27-4.82,45.57l1.64,7.41c2.64,4.75,7.5,7.94,12.65,9.68s10.62,2.18,16,2.61l25,2c5.82.47,11.7,1,17.25,2.75s10.83,5.09,13.9,10.06l7.16-1.5c2.88.27,6.19.82,7.65,3.32a10.66,10.66,0,0,1,1,2.89c2,8.15,6.83,15.26,11.59,22.16,3.76,5.45,7.57,11,12.52,15.35a82.67,82.67,0,0,0,13.11,8.91c12.46,7.34,25,14.71,38.45,20a26.65,26.65,0,0,1,7.06,3.52c2.06,1.65,3.61,4.21,3.28,6.83l7.58,1.48c6.11-1.35,12.58-2.67,18.51-.69,5.53,1.85,9.72,6.29,14.15,10.1a152.57,152.57,0,0,0,16.15,11.58l16.63,10.85c2.78,1.81,5.65,3.66,8.9,4.32s7-.15,9-2.82c.8-1.09,1.4-2.53,2.69-2.93s2.4.33,3.44,1l18.93,12a6.83,6.83,0,0,1,1.75,1.41,9,9,0,0,1,1.18,2.57,14.69,14.69,0,0,0,13.32,9.33l9.75-3a53.48,53.48,0,0,1,21.69,4.16,6.19,6.19,0,0,0,6,7.29,17.59,17.59,0,0,1,3.53-.29c2.87.45,4,3.9,5.58,6.31,2.33,3.46,6.54,5.23,10.67,5.83s8.34.21,12.51.37c16.31.6,31.68,9.35,48,8.83l7.16-.5c3.13.13,6.41.22,9.21-1.19,1.06-.54,2-1.27,3-1.89,3.25-2,7.09-2.71,10.84-3.4,2.72-.51,5.67-1,8.15.27,1.73.88,3,2.48,4.35,3.84a19.44,19.44,0,0,0,9.39,5.07l7.91,2.5a441.5,441.5,0,0,0,79.07.86c4.59-.36,9.46-.75,13.58,1.32l9.65-1.08c5.53-2.47,7.86-9.56,13.38-12.05,3.28-1.48,7-1,10.65-1.13a35.81,35.81,0,0,0,12.23-2.45c1.35,5.2.57,10.76-1.23,15.81s-4.59,9.7-7.36,14.3l-8,13.32-2.47,2.3c-2.74,6-5.62,12.18-10.63,16.46-3.25,2.78-7.2,4.58-11.1,6.34l-61.57,27.87-7-3c-11.72,7.86-25.15,12.69-38.2,18.08-7,2.89-13.9,6-20.78,9.09q-37.32,17-73.54,36.27l-4.26,2.69a48.71,48.71,0,0,0,6.11,26.34,6.35,6.35,0,0,1,7.84-.43c4.38-5.11,12.06-5.7,18.73-4.8s13.41,2.92,20,1.6l5.41-.39c7.26-4.55,15.78-6.59,23.69-9.87,7.5-3.11,14.47-7.34,21.61-11.18,10.11-5.43,20.6-10.09,31.08-14.75l4.81-8.93c2-.75,2.49-3.4,3.74-5.18s3.4-2.75,5.43-3.61q27.66-11.7,54.33-25.58c4.8-2.5,9.65-5.07,14.92-6.28a12.07,12.07,0,0,1,5.1-.29c3.82.76,6.4,4.21,8.84,7.24a84,84,0,0,0,16.62,15.73l1.79,5.35a187.78,187.78,0,0,0,39.12,23.71,4.13,4.13,0,0,1,2.44,2c.38,1.06-.18,2.22-.72,3.21l-12.78,23.32-1.39,7c-1.37,10.3.92,20.69,3.2,30.83q1.79,7.89,3.55,15.78c1.54,6.8,3.11,13.72,6.53,19.79l-5.61,2.82c-4.16,5.3-6.5,11.77-9.7,17.7s-7.71,11.71-14.13,13.75a5.46,5.46,0,0,0-2.54,1.24,6.07,6.07,0,0,0-1,2.79,10.25,10.25,0,0,1-5.26,6.68c-2.35,1.2-5.14,1.45-7.36,2.88s-3.7,4-5.7,5.85c-4.37,4-10.92,4.41-16.87,4.2-6.45-.22-13.74-1.32-17.45-6.61l-1.17-.64c-10.67,3.12-22.69,5.45-32.48.17-2.52-1.36-4.78-3.18-7.26-4.63-3.58-2.09-7.56-3.38-11.27-5.23-17.16-8.54-26.62-28.59-26.23-47.76l-5.27-2.22A34.42,34.42,0,0,0,1313,1248l-3.23,3.08c-1.13,6.08,3.81,11.35,6.9,16.71,4.15,7.21,5.14,15.75,6,24,1,9.06,1.63,19.29-4.33,26.19-2.81,3.24-7.06,5.74-7.82,10-1,5.75,5.11,10.8,4.62,16.62-.46,5.53-6.49,8.7-11.87,10l-6.64.8a28.32,28.32,0,0,0-8.2-.5c-5.58.74-10.82,4.76-16.31,3.52-3.57-.81-6.31-3.75-8.12-6.93s-2.91-6.73-4.63-10a29.38,29.38,0,0,0-10.46-11.14,54.76,54.76,0,0,1,7.42,30.57l-.27.92-5.42-.08c2,6.2-1.44,13.16-6.68,17s-11.9,5.23-18.37,6a20.75,20.75,0,0,0,18.78-1.1,6.14,6.14,0,0,1,2.83-1.16c2.08,0,3.4,2.39,3.3,4.46s-1.1,4-1.44,6a9.86,9.86,0,0,0,3,8.78c4.55-6.64,12.23-10.76,20.19-12s16.15.2,23.7,3c8.53,3.17,17.18,8.14,26.1,6.39l.52-2.23.41-7.52,4.08-1.52a2.85,2.85,0,0,1,1.91-3,10.69,10.69,0,0,1,3.87-.44,24,24,0,0,0,4.56-.55,6.8,6.8,0,0,0,3-1.24,5.43,5.43,0,0,0,1.66-4.63,16,16,0,0,0-1.48-4.87l-1.67-3.5a10.88,10.88,0,0,1,10.82-17.91c1.79.49,4,1.3,5.23-.11a4.58,4.58,0,0,0,.73-2.54c1-9.06,9.64-16.61,18.75-16.32,1.85.06,3.73.4,5.52-.06a20,20,0,0,0,3.07-1.25,16.66,16.66,0,0,1,20.44,7.08c2,3.62,2.55,8,5,11.27a23.71,23.71,0,0,0,5.54,4.87q6.29,4.42,12.55,8.87l5.6,4c3,2.34,6,4.78,7.7,8.13,1.81,3.56,1.92,7.71,2.72,11.63s2.7,8.07,6.44,9.49c2.05.78,4.31.6,6.5.63a31.45,31.45,0,0,1,14.68,4l2.87,4.24a65.1,65.1,0,0,1,1.89,15.73l1.47,5.29c-1,2.62-2.88,4.86-3.47,7.59-1.3,6.07,4.33,12.42,2.06,18.21l4.56,6.36a11.94,11.94,0,0,0-.76,13.49,30.13,30.13,0,0,0,4.61,5c6.89,6.78,11.94,16.14,11.12,25.77l-.51,5.61c-.5,6.31-9.33,9-10.65,15.22a13.6,13.6,0,0,1-.61,2.86,2.1,2.1,0,0,1-2.29,1.38c-1.68-.49-2-3.7-3.67-3.3-1.57,3.21-.22,7,.82,10.4s1.5,7.67-1.17,10c-1.44,1.27-3.44,1.63-5.14,2.52s-3.21,2.87-2.4,4.61l0,2.46a11.22,11.22,0,0,1-6.83,13.31,10.33,10.33,0,0,0-3.54,1.49c-1.94,1.65-1.54,4.76-2.71,7a10.9,10.9,0,0,1-3.4,3.46l-11,8.22a11.75,11.75,0,0,1-5,2.62c-2.63.41-5.21-1-7.87-1-3.14,0-6.17,1.92-9.26,1.36-4-.72-6.1-5.11-7.21-9s-2.21-8.38-5.74-10.4c2.17,9.12-5.4,17.76-5.93,27.12l-.41,1.85a12.14,12.14,0,0,1,8.34,5,2.73,2.73,0,0,0,1.06,1.07,3.18,3.18,0,0,0,1.78,0,10.08,10.08,0,0,1,5.79,1.24,22.73,22.73,0,0,1,8,5.65A11.4,11.4,0,0,1,1428,1623a5.06,5.06,0,0,1,1.73,4.63l2.64,2.11a24.32,24.32,0,0,1,3.55,21.47,45,45,0,0,0-1.91,6.07c-.74,4.5,1.12,9.6-1.39,13.41a6,6,0,0,0-1.35,2.52c-.1,1,.54,2,.48,3-.1,1.55-1.72,2.5-2.51,3.84-1.82,3.13,1.14,7.82-1.31,10.48-.83.9-2.11,1.31-2.87,2.26-1,1.2-.86,3-1.75,4.21-1.43,2-4.41,1.67-6.86,1.71a15.44,15.44,0,0,0-12.4,6.89c7.94-1.93,17.36-3.53,23.4,2l1.75,2.75a8.72,8.72,0,0,1,.66,8.79,7.33,7.33,0,0,0-.78,1.8,5.13,5.13,0,0,0,.66,2.86,56.81,56.81,0,0,1,4.77,24.62c-.08,2.66-.43,5.51-2.19,7.51-1.2,1.37-3,2.2-4.1,3.63a11.75,11.75,0,0,0-1.88,4.7l-2.27,9.43a24,24,0,0,1-2.08,6.15c-1.7,3-4.63,5.19-6.68,8a16.77,16.77,0,0,0-2.37,14.84l-.6,7.66a164.94,164.94,0,0,0-2,25.5,10.22,10.22,0,0,0,1,5.32,10.56,10.56,0,0,0,3.81,3.29l10.29,6.33a11.41,11.41,0,0,0,4,1.8c2.76.45,5.49-1.21,7.23-3.4s2.74-4.85,4-7.37c4.11-8.47,10.88-15.34,18-21.5,1.32-1.13,2.84-2.32,4.57-2.18a5.3,5.3,0,0,1,3,1.44c5.66,4.84,6,13.26,7,20.64a73.57,73.57,0,0,0,6.61,22l4.67,19.7a13.59,13.59,0,0,0,2.9,8.75c1.76,2.21,4.29,4,5,6.74.84,3.14-1,6.3-2.67,9.11a104.8,104.8,0,0,0-10.16,23.52,19.74,19.74,0,0,1-2.43,6c-2,2.88-6,5.4-5,8.79l0,5.34a12.85,12.85,0,0,0,13.67,15.67l1.44-6c3.1-3.24-2.41-8.93-.22-12.84a7.6,7.6,0,0,1,2.87-2.51,127.15,127.15,0,0,0,20.37-15.55,34.75,34.75,0,0,0,5.32,6.35l6.6-9a5,5,0,0,1,2-1.85c1.79-.73,3.67.75,5.57,1.14s3.89-.37,5.7-1.16a165.88,165.88,0,0,0,79.53-73.37l2.68,15c22,46.29,61.48,81.68,101.52,113.67l7.34,5.38,29.07,2.74c3.35.31,7,.78,9.3,3.26,1.68,1.84,2.23,4.42,2.72,6.86,2.09,10.43,3.81,22.43-2.91,30.66a44.22,44.22,0,0,0,20.78-29c1-4.86,1.47-10.44,5.38-13.48a8.42,8.42,0,0,1,13.59,7c1.12-6.13,7.69-10.08,12.65-14.27,8.27-7,13.32-17.17,15.92-27.67s2.94-21.41,3.19-32.22a469.34,469.34,0,0,0,76.68,8.82c10.21.33,20.58.34,30.41,3.17,21.22,6.09,36.61,24.2,49.13,42.38q11.31,16.44,21,33.94l-2.12,8.12c-2.81,7.3,2.87,16,10.42,18s15.76-1.31,21.35-6.77,9-12.74,12-20c20.62-50.27,24.48-107.55,9.09-159.66s-50.25-98.54-96.92-126.38l73.77,8.08c5.4.6,11.81.78,15.15-3.5,1.78-2.27,2.19-5.3,2.41-8.18a95.5,95.5,0,0,0-1.78-26.88l-1.87-17.64c-7.27-25.5-25.05-46.74-44.76-64.48s-41.74-32.79-61-51a182.82,182.82,0,0,0,67.52,11.65c1.81,0,3.78-.15,5.15-1.33a7.35,7.35,0,0,0,2-4.23c3.77-18.12-5.07-36.81-17.44-50.59s-28.1-24-42.06-36.17c-16.38-14.26-30.55-31.38-49.21-42.5,3.63,1.1,7.51-1.86,8.66-5.46s.28-7.53-.91-11.13a69.53,69.53,0,0,0-25.55-34.66c-17.69-12.57-40.57-16.35-57.86-29.46l-6.36-8.45a21.13,21.13,0,0,0,5.88-13l4.18-12.57c5.66-18.68,1.63-39-5.76-57.12s-18-34.62-26.23-52.31l23.87-6.52,18.19-12.93,8.86-1.56c1.11-.2,2.55-.86,2.25-2s-2.57-1.29-2.51-2.54a1.62,1.62,0,0,1,.77-1.1,9.63,9.63,0,0,1,7.49-1.76,11.48,11.48,0,0,0,2.78.42,2.16,2.16,0,0,0,2.09-1.57,3.15,3.15,0,0,0-.29-1.53l-2-5.14a81.46,81.46,0,0,1,29.16,15.57,14.46,14.46,0,0,0,1.58-7.1c6.62,4.1,11.45,11.85,19.18,12.74a2,2,0,0,0,1.8-.46,1.89,1.89,0,0,0,.27-1.24c-.18-4.26-3.3-7.77-6.44-10.65s-6.61-5.79-7.91-9.85a44.59,44.59,0,0,0,14.07,2.38,16.19,16.19,0,0,0-6.71-4.74l4-2.7a70.54,70.54,0,0,0-22.51-9.49l9-2.77a5.24,5.24,0,0,0,2.1-1c1.87-1.72.39-5-1.74-6.34s-4.81-1.95-6.52-3.82l-5.14-1.43q-10.77-1.77-21.58-3.3l-5.93-3.11a4.58,4.58,0,0,0,1-5.89c-1.34-2.08-4.07-2.65-6.23-3.85a10.84,10.84,0,0,1-4.7-5.26l-6.67-6.28-18.8-2a1.31,1.31,0,0,1-1.41-.93,13.56,13.56,0,0,1-1.22-5l-1.08-3.38a9.85,9.85,0,0,0-4.37-7.34c-2-1.29-4.34-1.82-6.58-2.55s-4.53-1.81-5.82-3.79c-1.44-2.21-1.33-5-1.16-7.68l1.46-4.77a12.64,12.64,0,0,1,4.35-6.17c1.93-1.67,4.09-3.09,5.85-4.94,2.64-2.77,4.24-6.33,5.8-9.82l5.86-6.86c1.92-2.42,1.94-5.8,2.92-8.74,1.66-5,6-8.55,10.22-11.8-5.12,2.18-10.49,4.31-16,4.06a51.64,51.64,0,0,1-9.17-1.73,79.26,79.26,0,0,0-30.15-1.07l-.19-8.48a107.45,107.45,0,0,0,13.15-85.33l8.61-8.69c30.08-5.08,61.81,3.07,91-5.67,5.34-1.6,11.06-3.75,16.33-1.92a35.58,35.58,0,0,1,5.94,3.22c6,3.48,13.39,4.94,20,2.88s12.13-8.07,12.58-15l-5.32-26c2-5.85,3.69-13.14-.65-17.56a17.07,17.07,0,0,0-5.39-3.25l-8-3.53,8.24-.65a3.69,3.69,0,0,0,2-.56,3.56,3.56,0,0,0,1-2.69,30.76,30.76,0,0,0-14.26-27.88c-3.86-2.37-8.21-3.85-12.06-6.23-5.39-3.34-9.55-8.29-13.61-13.16l-5.17-2.66a228.27,228.27,0,0,0-29.23-1.31,8.77,8.77,0,0,0-4.13.76,3.11,3.11,0,0,0-1.66,3.53c-5.93.84-10.75,5.21-16.49,6.9a37.51,37.51,0,0,1-8.18,1.14l-32.24,2.13.86-1.8c6.12-3.3,10.11-9.47,15.54-13.82,9.68-7.76,22.85-9,35.21-10l5.81-3.75a10.17,10.17,0,0,0,9.58-10,3.16,3.16,0,0,1,.3-1.91,2.67,2.67,0,0,1,1.65-.87c8-2,16.66-3.38,23-8.75a8.76,8.76,0,0,1,3-2.06c2.21-.65,4.41.83,6.46,1.88a18.83,18.83,0,0,0,14.11,1.15c3.71-1.19,7.57-3.56,11.21-2.17,2.75,1.06,4.27,3.9,5.87,6.36,5.61,8.57,14.65,14.44,24.24,18s19.81,5.12,29.94,6.62l11.23-4.74c9-.17,18.1-.35,26.81-2.63,3.4-.89,6.74-2.1,10.24-2.49,5.1-.57,10.23.64,15.37.55,4.72-.08,9.34-1.26,13.91-2.43l23.06-6.23A110.64,110.64,0,0,1,2135.51,733c4.32-3.72,9-7.16,12.33-11.79,4.21-5.86,5.9-13.1,7.42-20.14q4.06-18.87,7.31-37.9C2164.67,650.86,2166.52,638.3,2164.87,625.92Zm-723.22,355a21,21,0,0,1-13.22,4,27.48,27.48,0,0,1-8.14-1.39l-3-5.74c-4.26-2.11-6.81-6.5-9.38-10.5a116.45,116.45,0,0,0-14.07-17.91,66.4,66.4,0,0,0-10.59-9.23c-9.86-6.7-21.84-9.35-33.49-11.88l-5.1-.81c-9.75-3.1-19.56-6.23-28.55-11.13-3.17-1.73-6.23-3.67-9.48-5.26a75.76,75.76,0,0,0-12.06-4.44,163.88,163.88,0,0,0-44.61-6.45c-5.26,0-11.48-.28-14.33-4.69L1216,888.58a27.4,27.4,0,0,0-28.12-7.17,10.35,10.35,0,0,0-5.22,3.33c-1.25,1.69-1.49,4.26-.09,5.82,1.21,1.33,3.32,1.66,4.34,3.15,1.54,2.22-.67,5.47-3.33,6s-5.3-.78-7.7-2q-10.11-5.32-20.09-10.9c-4.33-2.43-9-5.25-10.69-9.9l-6.1-9.09c-2.21-2.24-5.57-2.77-8.52-3.89-5.76-2.21-10.16-6.88-14.61-11.16a161.14,161.14,0,0,0-32.64-24.27l-5.1-2.83a42.13,42.13,0,0,1-21.79-8.66c-1.81-1.41-3.5-3-5.35-4.31a48.54,48.54,0,0,0-9.39-5.06,128.23,128.23,0,0,0-16.81-5.88l-3.1-5.83c1.27-6.44,5-12.08,8.63-17.54l5-7.41,2.88-6.2a16.83,16.83,0,0,1,5.13-6.89,5,5,0,0,1,2-1.08,5.78,5.78,0,0,1,1.81,0l9.44,1.07,8.61,1c5.7,5.11,13.24,7.85,20.83,8.79s15.31.18,22.88-1c3.85-.6,8.2-1.67,10-5.12a3,3,0,0,1,1-1.34,2.36,2.36,0,0,1,1.21-.17c8.28.51,15.38,8.46,14.94,16.74l3.48,3.7a4.69,4.69,0,0,0,6.89-1.81,16.15,16.15,0,0,0,.64-4,4,4,0,0,1,2-3.3c1.2-.48,2.54.06,3.72.6l11.28,5.16a32.92,32.92,0,0,1,5.67,3.06c2.93,2.11,5.27,5.22,8.72,6.31l1,1.17c1,2.93.19,6.13-.17,9.22s0,6.71,2.6,8.45l2.8,3.57a14.08,14.08,0,0,0,4.66,4.21c1.91.89,4.49.73,5.78-.94.94-1.22,1-2.88,1-4.42,0-3.75,0-7.49,0-11.24l11.6,8.34a9.36,9.36,0,0,1,2.5,2.31c1,1.56,1,3.55,1,5.41q-.14,6.12-.28,12.24l4.46,7.46c1.14,3.63.16,7.53-.18,11.31s.29,8.2,3.46,10.29c1.4-.88,1.37-3.38,3-3.79a2.9,2.9,0,0,1,1.68.23,63.39,63.39,0,0,1,21.51,12.8l6,4.86c7.5,2.51,14.18,6.94,20.77,11.32,6,4,12,8,16.84,13.38,1.52,1.71,2.92,3.54,4.56,5.13a39.15,39.15,0,0,0,7.16,5.21,164.53,164.53,0,0,0,46.6,19.28l6.09,3.43,33.81,3.31c3.8.37,7.67.76,11.17,2.3,5.76,2.53,10.8,8.18,17,7.28,1.59-.24,3.08-.9,4.65-1.23,3.88-.83,7.86.38,11.63,1.58a14.35,14.35,0,0,1,4.89,2.25,14,14,0,0,1,3.43,5q4,8.45,7.35,17.2l.63,5.37A14.46,14.46,0,0,1,1441.65,980.94Zm246.23-365.88-.49,6.05q0,6.15-.08,12.31c0,3.24-.2,6.86-2.55,9.08l-3.13,2.23c-12.72,7.1-20,21-25.11,34.61l-.47.39q-6.67-14.7-13.33-29.41c1.09,4.39-.79,9-3.35,12.71s-5.83,7-8,10.9-3.26,8.28-4.31,12.61c-4.72-5.46-12.83-6.55-18.39-11.13-4.88-4-7.27-10.24-9.45-16.17-1.4,7.46,1.4,15,3.45,22.3,4,14.25,5.3,29.11,6.57,43.87a14.56,14.56,0,0,1-.19,5.35c-1,3.6-4.58,5.81-7.84,7.67L1599,755a8.75,8.75,0,0,1-4.37,8.56c-2.43,1.32-5.33,1.39-8.1,1.26a71.72,71.72,0,0,1-11.22-1.42l-6.53.8a83.75,83.75,0,0,0-19.65,16.28,10.35,10.35,0,0,1-2.69,2.43,18.67,18.67,0,0,1-3.66,1.1c-4.66,1.4-7.61,5.86-10.16,10l-2.11.61q2.43-15.43,5.06-30.84c.46-2.71,1-5.53,2.61-7.73,1.37-1.86,3.4-3.09,5-4.71s2.94-4,2.23-6.17c-1.15-2-4.56,1.85-6.26.32a2.6,2.6,0,0,1-.56-2.1,87.15,87.15,0,0,1,10.69-38.81l.36-4a4.3,4.3,0,0,1-2.68-4.19,12.88,12.88,0,0,1,1.46-5.09c2.4-5.33,5.07-11,10.09-14,3.65-2.18,8.19-2.69,11.59-5.25,1.81-1.37,3.21-4,1.79-5.81a5,5,0,0,0-3.26-1.42c-11.55-1.82-23.35.08-34.77,2.57l1.21-7.65q3-38.68,3.19-77.53a19.24,19.24,0,0,1-17.75,5.09A40.15,40.15,0,0,0,1534,573.92a3.14,3.14,0,0,0,.62-2.78c-.47-1-1.82-1.27-2.92-1.6a7.84,7.84,0,0,1,2.45-15.34c2.27.06,4.5,1.1,6.73.68s3.92-3.66,2-4.89l-2.77-6.5-6.47-3a2,2,0,0,1-1.3-2.83c.42-2.21.94-4.61,2.67-6.05,1.47-1.22,3.49-1.48,5.34-2s3.82-1.57,4.25-3.44-1.16-4-3.09-4.68a12.87,12.87,0,0,0-6.08-.11l.47-9.55c.07-1.39.28-3,1.52-3.7,1.53-.82,3.72.46,5.07-.65,1-.85.79-2.46.59-3.79a18,18,0,0,1,2.24-11.61,2.43,2.43,0,0,1,1.11-1.13c1-.37,1.93.53,2.81,1.09s2.53.41,2.45-.63l1.63-3.88c1.23-1.68.6-4.07-.41-5.9s-2.39-3.56-2.57-5.64a10.33,10.33,0,0,1,1.42-5.22c6.17-12.85,14.19-26,27.16-31.86,4.18-1.91,10-2.56,12.59,1.22a10,10,0,0,1,1.37,5.47c.15,5.22-.48,11.31,3.41,14.79,2.56,2.28,6.33,2.59,9.72,2.12s6.69-1.6,10.11-1.79c7.49-.39,14.46,3.81,20.2,8.63a82.49,82.49,0,0,1,16.88,19.43l3,8.45a78.76,78.76,0,0,0,11.52,18,47.6,47.6,0,0,1,3.93,4.92,34.63,34.63,0,0,1,3.88,9.95c1.07,4,2.09,8,3,12l-1.61,6c.6,4.74,1.24,9.64,3.66,13.77,1.06,1.81,2.43,3.43,3.44,5.27,2.46,4.49,2.5,9.87,2.49,15l-3.55,6.1a13.74,13.74,0,0,0,.9,5.74,27.75,27.75,0,0,0,2,3.15C1689.33,602.21,1688.66,608.93,1687.88,615.06Zm-619,594.48a7,7,0,0,1-2.66,8.32,15.16,15.16,0,0,0-2.22,1.36c-1.35,1.2-1.61,3.2-1.52,5s.47,3.64.06,5.4a6.28,6.28,0,0,1-4.11,4.43,20,20,0,0,0-3.55,1c-2.71,1.45-2.68,5.23-3.61,8.15l.66,1.08-75.24,29.23-.39.24a47.21,47.21,0,0,1,9.63,1.24,15.83,15.83,0,0,1,8.2,4.93l-.15,1.17c-2.33,5.9-8.18,9.87-14.34,11.41s-12.63,1-18.91.12c6.57,7.67,16.13,12.33,26,14.51s20.07,2.06,30.15,1.45l-.65,1.71c-6.63,10.19-4.76,25.06,4.18,33.29l-10,2.4a6.91,6.91,0,0,1-2.59.28,7.66,7.66,0,0,1-3.59-2.11,42.71,42.71,0,0,0-28.47-9.93c-7.31.21-15.43,2.12-21.39-2.14a22.78,22.78,0,0,1,.37,9.79l-9.25,1c-8.41-9.3-13.16-21.24-17.75-32.91l-3.58-5.31a10.7,10.7,0,0,0-7.73-.85,31.85,31.85,0,0,0-7.35,3q-10.08,5.19-20.15,10.38l-7,11.53a43.63,43.63,0,0,0-6.54,12.7l-6.14,2.37c-85.84,41.94-156.79,108.47-235.55,162.55l-9.4,1.84-11.83-.88c-2.12-.16-4.36-.3-6.28.63a12.12,12.12,0,0,0-3.6,3.1l-19.64,22-1.35,6.13a107.52,107.52,0,0,1-5.49,13.39l-2.39,5q-25.64,32.14-51.26,64.28c-8,10-16.23,20.25-27.34,26.58-6.53,3.72-16.17,5.28-20.47-.88-1-1.41-1.56-3.08-2.67-4.39-3.86-4.53-11.06-2.28-17-2.66-10.38-.67-18.26-11.32-18.09-21.71s6.85-19.85,15.36-25.82c6.36-4.48,14.21-7.8,17.71-14.75,2-4,2.25-8.67,3.54-13,2.64-8.85,9.54-15.7,16.41-21.88a381.73,381.73,0,0,1,59.72-44l6.75-3.43a128.13,128.13,0,0,0,35.88-21.68,42.73,42.73,0,0,0,5.58-5.51c4.05-5,6.3-11.58,11.53-15.33l15.36-10.51a90.66,90.66,0,0,0,54.41-9.88c7.77-4.17,15.4-10.17,17.58-18.7l.56-.53a14.2,14.2,0,0,0,8-17,13.74,13.74,0,0,0,6.34-.92c1.16,3,5.38,4,8.27,2.51s4.49-4.74,5.06-7.94.27-6.48.37-9.73.65-6.65,2.63-9.23c2.33-3,6.19-4.39,9.5-6.33a27.71,27.71,0,0,0,11.45-13l4.34-4.7,44.3-24.23c4.7-2.57,9.39-5.14,14.23-7.43,6.07-2.87,12.35-5.3,18.46-8.09,9.66-4.42,18.87-9.73,28.07-15l4.86-1.77a16.64,16.64,0,0,1,7.15-.62l6.45.51q17.66-7.41,35.15-15.22l.47-2.37c-4.5-33.85.07-68.24,6.33-101.81.48-2.56,1-5.22,2.59-7.29s4.55-3.34,6.88-2.15l.64,5.67a350.45,350.45,0,0,0,.42,41.25l-2.23,16.89a225.35,225.35,0,0,0-2.17,34.72,1.34,1.34,0,0,0,.09.53c.23.45.86.43,1.36.38a10.31,10.31,0,0,1,7.75,2.61l1.56-1,131-54.22Zm735.18,785.12a10.71,10.71,0,0,1,.17-1.52A7.08,7.08,0,0,1,1804.06,1994.66Z"></path>
    <path data-name="1a" data-official="" data-plain="Ovary and Pistil" data-loc="" d="M114.23,2858.14c11.55-42.43-.67-87.14-6.12-130.78-6.65-53.24-3.08-107.17.5-160.7,1.73-25.78,3.47-51.7,9.62-76.79,7.25-29.58,20.62-58.16,21-88.61.15-12.75-1.84-26.33,4.15-37.59a29,29,0,0,1,54.23,8.63c1.59,9-1.16,18.23-3.68,27.07C168.16,2489.85,164.78,2585,161.58,2679c-2.25,66.08-4.05,134.73,22.32,195.37,9.45,21.73,22.57,46.06,12.66,67.58-2.95,6.4-7.77,11.88-10.08,18.54-2.88,8.32-1.69,18.07-6.55,25.41-6.44,9.72-20.08,10.71-31.73,10.7-14.73,0-32.82-2.17-38.35-15.81-4.52-11.17,2.37-23.39,3.81-35.35,3.1-25.77-19.32-52.3-8.61-76Z"></path>
    <path data-name="2" data-official="Eccremocarpus scaber" data-plain="Rough Eccremocarpus" data-loc="Chile" d="M589.49,1464.09c2.06-3.95,1.67-8.69,1.23-13.13a20,20,0,0,1,10.77,4.44l.61,6.71a58,58,0,0,1-4.33,6.52,42.73,42.73,0,0,1-5.58,5.51,128.17,128.17,0,0,1-21.2,14.72l-1.29-4.1q-.81-5.38-1.61-10.77c5.31-.54,10.74-1.33,15.37-4A15.09,15.09,0,0,0,589.49,1464.09Zm-30.43-69.66q13.68-14.22,28.28-27.54a20.21,20.21,0,0,1-16.54.2c-.53,1.23-2.38.88-3.55.22-5.74-3.22-9.73-8.77-13.53-14.14q-2.51-3.54-5-7.09l8.66,44.85ZM965,2736.28c-.07,8.72-2.52,19.59-11,21.44-4.73,1-9.66-1.34-14.43-.54s-8.31,4.45-12.71,6.21c-7.95,3.16-17.46-.63-22.84-7.28s-7.28-15.52-7.52-24.08c-.09-3.5,0-7.17-1.56-10.3-1.42-2.82-4-4.82-6.26-7.07-12.76-12.86-12.64-33.29-11.67-51.38l-16.21,5.12c-12.26,1.44-24.61,2.9-36.36,6.67-5.66,1.82-11.23,4.18-17.15,4.76-7.33.71-14.6-1.37-21.78-3a193.88,193.88,0,0,0-30.6-4.52c-16-1.06-34.74,1.3-43.18,14.92-3.69,6-6,14.37-12.9,15.61-2.72.49-5.49-.39-8-1.51-14.5-6.43-23.88-20.37-34.22-32.38s-24.52-23.39-40.26-21.47c-3.59.44-7.07,1.57-10.68,1.9-15.3,1.42-28.43-11.92-33.85-26.3s-5.57-30.17-9.2-45.1c-3.51-14.41-12.27-29.57-26.83-32.41-14.17-2.77-28.85,7.2-42.77,3.36l-18.64-5.3c-11.57-.11-21.41-7.87-31.47-13.6s-23.65-9.3-32.51-1.85c-4.12,3.47-6.29,8.65-8.7,13.46a106.74,106.74,0,0,1-48.81,48.05c-9.32,4.48-19.47,7.61-29.81,7.49-20.91-.24-40-14-51.07-31.76s-15.37-38.86-17.35-59.68a316.77,316.77,0,0,1-.38-55.52c.7-8.54,1.78-17.2,5.18-25.07,6.7-15.47,21.43-25.86,36.3-33.8s30.84-14.43,43.4-25.68l-27.59.41-6.74-5.39c-9-1.29-16.46-7.25-23.89-12.45-31.85-22.31-70.15-33.72-103-54.6-2.27-1.45-4.64-3.09-5.66-5.58-1.8-4.44,1.42-9.27,4.77-12.7a76.1,76.1,0,0,1,34.29-20.12c4-1.08,9-2.84,9.18-7,.08-1.45-.47-3.09.41-4.24.76-1,2.2-1.06,3.44-1.05l38.6.26a11.75,11.75,0,0,1-3.13-8.12l.35-1.36a76.13,76.13,0,0,1,48,20.64,30.31,30.31,0,0,1-6.3-19.28,11.34,11.34,0,0,1,9.15.24,27.54,27.54,0,0,1-1-22.51c.91,5.06,6.11,8.12,11,9.66s10.31,2.39,14.14,5.82v-.72l-3.69-7a44.07,44.07,0,0,1-3.32-7.39c-1.76-5.66-1.25-11.95-3.8-17.3l-.85-2a17.86,17.86,0,0,1,9.83,1,37.94,37.94,0,0,1,.15-19.45,26,26,0,0,0,11.79,4.74l-.13-.37a27.85,27.85,0,0,1-4.63-11.72,56.13,56.13,0,0,1-.3-9.44l.24-9.71a16.41,16.41,0,0,1,10.11,2.4,20,20,0,0,1-2-7.58,117.28,117.28,0,0,1,0-27.52,4.35,4.35,0,0,1,3.2,3l.75,0a53.08,53.08,0,0,1,9-30.31l2.39-1.08,8.72,10.7a45.07,45.07,0,0,1,6.36,9.3c1.57,3.42,2.24,7.41,1,11l.05.91c1.05.35,1.91-.85,2.81-1.51a9.36,9.36,0,0,1,3.49-1.12,10.86,10.86,0,0,0,5.36-3.12c-2.34,3.59-2,8.28-1.1,12.47s2.3,8.4,1.8,12.65l-.06.43a10,10,0,0,1,5.82-6.47,3.67,3.67,0,0,1,2.06-.32c2,.37,2.53,2.89,2.66,4.89l.69,10.51a35.54,35.54,0,0,1-.06,7.92c-.32,2-1,3.92-1.4,5.89a54.81,54.81,0,0,0-.79,12.74L400,2177l4.65-2.2a2,2,0,0,1,1.19-.28,2,2,0,0,1,1.08.82l4.53,5.52,2.19-10a11.72,11.72,0,0,1,1.75-4.63c1.62-2.13,4.8-3.35,5-6a4.92,4.92,0,0,0,4.26,5.15,10.05,10.05,0,0,1,2.79-7.78,30.21,30.21,0,0,1,6.75-5.16l8.43-5.25c-3.84,6.43,3.26,15.32-.31,21.92l-.32,1.18a20.12,20.12,0,0,0,6.82.73,72,72,0,0,1-.27,17.11,20.2,20.2,0,0,1-1.82,6.69c-.92,1.76-2.27,3.27-3.28,5a7,7,0,0,0-1,5.69l1.18-.06c-.64-1.27,1.44-2.48,2.63-1.71s1.43,2.4,1.43,3.82c0,10-6.07,18.83-12.47,26.46-2.6,3.09-5.37,6.23-6.55,10.09-1.59,5.2-.06,10.78,1.47,16l-.32,1.62c2.09,2.76,6.39,2.86,9.47,1.29s5.31-4.37,7.69-6.88a56.7,56.7,0,0,1,50.54-16.42l2,.28a59.48,59.48,0,0,1,30.47-22.61l3.38-.33c.15-7.93.77-16,3.47-23.43a87.09,87.09,0,0,1,6.6-13.3l.31-1.57a159.65,159.65,0,0,1-5.43-31.05c-2.48,1.51-5.39,2.74-8.24,2.16s-5.29-3.68-4.23-6.38l-1.41-.87c-2.63.11-4.77-2.44-5.16-5.05s.51-5.23,1.39-7.71c-2.85-1.86-3.47-6.11-1.88-9.12s4.89-4.83,8.25-5.43a16.7,16.7,0,0,1,8.93.84,7.66,7.66,0,0,1,3.75,2.7l-.46.89c3.7-1.87,7.17-4.17,11-5.85s8-2.72,12.07-1.86l.92,1.51c1.79-4.39,4.71-8.21,7.51-12s5.56-7.79,7-12.32,1.24-9.77-1.48-13.65-8.41-5.76-12.49-3.35a16.13,16.13,0,0,0-2.94,2.41,61.38,61.38,0,0,1-11.68,9.36,24.22,24.22,0,0,1-14.34,3.54c-4.54-.46-8.75-2.59-12.65-5a43.14,43.14,0,0,1-9.43-7.34c-2.73-3-4.8-6.48-7.65-9.32-7.37-7.34-18.84-8.95-29.15-7.53,7.75-5.1,18.38-3,26.28,1.86s14.09,12,21.36,17.78a20.1,20.1,0,0,0,5.53,3.35,16.75,16.75,0,0,0,6.83.71,29.71,29.71,0,0,0,15.83-6.08c3.32-2.58,6.08-5.85,9.58-8.18s8.17-3.59,11.88-1.63l-.19-1.53c-5.83-3-9.44-9.3-10.68-15.75s-.39-13.1.78-19.56a73.81,73.81,0,0,1,3.66-13.91c2.22-5.67,5.55-10.84,7.86-16.46s3.56-12.07,1.43-17.77l-.05-1.78c-1.15,1.19-3.48.1-3.63-1.55a3.25,3.25,0,0,1,3.07-3.22,5.67,5.67,0,0,1,4.36,2c2.78,2.94,3.29,7.36,3,11.4a38.56,38.56,0,0,1-2.87,12.25,100.2,100.2,0,0,1-6,11.19c-3.38,5.86-6.43,12-7.9,18.61s-1.23,13.76,1.76,19.83,8.63,10.76,12.31,16.6a31.56,31.56,0,0,1,1.43,30.42c-1.86,3.69-4.52,7.18-4.88,11.3l.39.58c6.36-5.25,10-13,13.54-20.46q8.33-17.79,16.63-35.59c18.93-40.48,38.63-82.06,71.48-112.36l.66-1.48a23.25,23.25,0,0,1,.57-10.09l1-1.65c-9.14-7.91-14.75-19-20.12-29.88l-15.84-31.93v-1.12l-13.46-.83c-4.61-.28-9.31-.58-13.61-2.25-4.91-1.91-9-5.47-12.92-9q1.35,6.36,2.71,12.71c.65,3.06,1.3,6.23.6,9.28s-3.17,5.92-6.29,6a8.45,8.45,0,0,1-4.71,10.57l.3.22a48.85,48.85,0,0,1,8.87,23.57c.3,3,.31,6,.32,9.06q0,10.23.1,20.47a9.75,9.75,0,0,0-4.3-.71l-.31,1.15c-.78,2.83,1.34,5.85.59,8.69-.62,2.37-3,3.78-5.24,4.77-5.82,2.59-12.28,4.11-18.56,3.15a7.38,7.38,0,0,1-4.28-1.8c-1.4-1.45-2.09-4-4.11-4.15l-1.21.45c-2.16,2.7-6.47,1-9.36-.9-7.92-5.18-15.93-10.42-22.38-17.33a116.27,116.27,0,0,1-8.19-10.19c-11.95-16.06-24.2-32.73-28.69-52.24-.56-2.4-1.13-5.07-3.13-6.52a8.21,8.21,0,0,0-3.44-1.25,27.86,27.86,0,0,0-9.85,0l-8.6,1.09a108.88,108.88,0,0,0-26.63,10.16l-5.22,3c-3.91,5-2.57,12.24-1,18.43q2.51,10.08,5,20.17c.74,3,1.41,6.35-.32,8.87-.69,1-1.77,1.87-1.94,3.1a7.8,7.8,0,0,0,.66,3c.6,2.22-.16,4.54-.45,6.81s.19,5,2.24,6c-5.61-.89-11.11,1.64-16.38,3.78s-11.29,3.9-16.48,1.59c-1.93-.86-3.62-2.25-5.62-2.94-3.52-1.23-7.4-.14-11.11-.51s-7.83-3.6-6.57-7.11l-.61.27c-5.42,1.09-10.7-2.37-14.63-6.25s-7.46-8.49-12.53-10.71c-2.22-1-4.65-1.43-6.84-2.47-4.41-2.11-7.36-6.32-10.12-10.36l-2.48-2.41a124.22,124.22,0,0,1-18.53-33.38c-6.85,7.74-14,15.53-23.15,20.38s-20.74,6.27-29.68,1.08c-2.09,8.83-4.46,18.17-10.94,24.54-8.53,8.38-21.75,9.32-33.7,9-20.48-.54-42.94-4.39-56-20.14l-3.58-2.55-19.16-33.83a12.58,12.58,0,0,0-3.14-4.1,13.67,13.67,0,0,0-4.2-1.81,95.61,95.61,0,0,1-66.41-104.71l-3-6.61c-5.35-1.73-8.32-7.35-10.36-12.59-9.68-24.91-10.1-55.08,5.74-76.62,8.29-11.27,20.84-20.22,24.23-33.81,1.31-5.24,1.09-10.73,1.71-16.09,1.94-16.89,12-31.76,23.29-44.47,2.59-2.91,5.3-5.8,7-9.29,4.68-9.41,1.35-20.64-2-30.59l-5.54-7.58c-10-4.73-16.16-15.43-18-26.34s.14-22.08,2.72-32.83c2.41-10.11,5-22-1.85-29.87-3.77-4.31-10.46-8.17-8.82-13.66.63-2.12,2.44-3.64,4.24-4.93a59.77,59.77,0,0,1,29.78-11c6.6-.55,13.55-.06,19.52-2.93,5.23-2.53,9-7.3,12.6-11.82a360.34,360.34,0,0,1,204.31-125.33l10.15,5.77c4.17-.59,6.52,6,10.73,5.81.88,0,1.72-.42,2.59-.53a2.19,2.19,0,0,1,2.3.94,4.38,4.38,0,0,1,.1,2,5.17,5.17,0,0,0,2.87,4.3,15.18,15.18,0,0,0,5.2,1.43c-3.25.75-7,1.87-8.27,4.94-.73,1.73-.51,3.69-.61,5.57a15.74,15.74,0,0,1-2.61,7.91l-8.15,7.14a299.16,299.16,0,0,0-72.4,22c-6.37,2.86-12.73,6-17.95,10.65-3.34,3-6.23,6.67-7.27,11a31.19,31.19,0,0,0-.24,9.6l1.95,24.37c.13,1.69.31,3.51,1.41,4.81a6.64,6.64,0,0,0,3.8,2c6.17,1.35,12.57-.8,18.2-3.68s10.91-6.51,16.91-8.47a32.83,32.83,0,0,1,14.76-1.28c2.7.39,5.51,1.21,7.33,3.25,2.66,3,2.37,7.56,1.24,11.39a161.51,161.51,0,0,1,76.45-12.71c10.08.79,20.38,2.65,28.94,8l3.05,4.38c7.61,3.23,10.57,13.18,18.13,16.54,4.87,2.17,10.68,1.12,15.59,3.19,4.35,1.83,7.34,5.82,10.12,9.63l3.87,10.58a30,30,0,0,1-6.46,24.94c-9.34,11-25,13.62-39.24,15.56L418,1484.82,411,1487c-2,5.12,0,10.86.18,16.37.21,7.83-3.69,15.46-9.56,20.64s-13.52,8.07-21.29,9.07c-5.87.76-11.82.5-17.75.65-15.65.38-31.09,3.62-46.33,7.21a337.68,337.68,0,0,1,33.91,16.21l3.75,8.93a63.13,63.13,0,0,1,17.34,50.06,4.42,4.42,0,0,0,.24,2.63c.61,1.11,2,1.44,3.27,1.61,6.81.92,13.75.35,20.56,1.24,13.69,1.8,26.64,10,33.06,22.27,1.76,3.36,3.1,7.07,5.86,9.66,5.41,5.09,13.88,4.1,21.26,3.4a134.85,134.85,0,0,1,38.1,1.77c9.28,1.77,18.9,4.52,28,1.93,6.55-1.86,12-6.28,17.9-9.67a62,62,0,0,1,39.33-7.56l6.53-3.08q-5.47-39.6-8.64-79.47l-3-3.38,2.39-5a107.52,107.52,0,0,0,5.49-13.39l1.35-6.13,19.64-22a12.12,12.12,0,0,1,3.6-3.1c1.92-.93,4.16-.79,6.28-.63l11.83.88-4,6.9c.91,21.49,6.21,42.5,10.09,63.65s6.37,42.73,8.63,64.22a2.06,2.06,0,0,0,2.71,2.24,166.55,166.55,0,0,1,54.87,5.63l7.75,5.15c2.88,5.24,5.67,12,2,16.76-1.69,2.17-4.38,3.27-6.71,4.74s-4.54,3.84-4.25,6.58c.18,1.7,1.25,3.64.13,4.93-.82.94-2.33.82-3.4,1.46-1.39.82-1.77,2.68-3,3.75-1.37,1.21-3.41,1.11-5.23,1-3.33-.23-6.78-.31-9.91.87s-5.87,3.93-6.11,7.26c-.18,2.48,1,4.81,1.8,7.16a25.25,25.25,0,0,1,1,12.67,22,22,0,0,1-23-6l-1.63,2q5,20.55,10,41.1c1.55,6.38,3.32,13.14,8.13,17.61,5.69,5.3,15.12,6.91,18.07,14.11l1.64,5.57c1.4,5-2,9.85-3,14.89s.43,10,.66,15.08a32.88,32.88,0,0,1-3.14,15.59,8.9,8.9,0,0,1,5.17.63,23.34,23.34,0,0,0-6.4,4.81c-1.72,2.06-2.7,5-1.8,7.48l-.5,2.2c3.93,21.24,19.46,38.19,29.08,57.53l.24,1.37a95.68,95.68,0,0,1,17.74.61,289.65,289.65,0,0,1,65.87,15c4.94,1.76,9.84,3.65,14.87,5.12,9.93,2.9,20.35,4.15,29.92,8.06,2.64,1.07,5.22,2.35,7.95,3.16a65.61,65.61,0,0,0,7.51,1.49,102.39,102.39,0,0,1,18.51,5l-1.07,1.71-5.88,7.6-1.24.62c-21.74-5.48-43.82-9.5-65.87-13.52l-19-3.45c-12.15-2.21-24.59-4.43-36.77-2.44l-2.39,1a283,283,0,0,1,26.22,30.92c9.77,13.69,17.67,28.61,25.54,43.48l14.45,27.31c1.74,3.28,4.08,7,7.77,7.25l1-1.2a333.66,333.66,0,0,0-14.76,54l-1.92-.55c-5.42-19.08-14.14-37-23.42-54.58-7.43-14-15.24-27.87-23.88-41.19a341.79,341.79,0,0,0-31-41l-1.17-1.55a15.68,15.68,0,0,1-13.88-9.66l-.82-1.11c.32,2.52-1.13,5-3,6.71s-4.07,3.05-6,4.72c-3.82,3.34-6.16,8-9.4,12-2.85,3.45-6.38,6.27-9.41,9.56a85.09,85.09,0,0,0-8.11,10.85,1191.36,1191.36,0,0,0-65.18,110.36l.07,1.06a19.36,19.36,0,0,1-12.81,25.09c-1.69.49-3.55.81-4.82,2-2.4,2.3-1.4,6.23-1.68,9.55-.09,1-.74,2.29-1.71,2-.66-.19-.89-1-1-1.68l-.75-4.31a150.13,150.13,0,0,0-15.41,33.43,27.69,27.69,0,0,1,8.43,1.72,10.79,10.79,0,0,1,6.07,5.82l-1.26,1.07a11,11,0,0,1,8.65,11.65,3.69,3.69,0,0,0,0,1.78,3.34,3.34,0,0,0,1.58,1.4,14.35,14.35,0,0,1,6.26,6.45c1.2,2.8.89,6.38-1.3,8.5a10,10,0,0,1,3.35,13.56c3.25.74,5.69,3.62,6.83,6.76s1.22,6.55,1.27,9.89l4.56,7.39c.47,4.33,1.51,8.85,4.49,12,5.35,5.75,15.22,5.47,20.28,11.48l6.46,3.32c20.87,14.73,34.07,38.38,41.11,62.93s8.52,50.31,10.24,75.79c.41,6,1.26,12.86,6.19,16.36,5.44,3.86,13,1.61,18.93-1.47,12.82-6.66,23.88-16.6,37.31-21.94s31.15-4.49,39.48,7.32c2.49,3.54,3.92,7.75,6.54,11.2,9.52,12.5,28.78,9.49,43.9,5.23l14.51-2.21c0-2.88-.08-5.88,1.18-8.47s4.24-4.59,7-3.75c1.76.53,3,2,4.16,3.48q21.4,26.76,42.79,53.53a56.45,56.45,0,0,1,6.81,9.89,49.55,49.55,0,0,1,3.38,9.82,219.76,219.76,0,0,1,5,25.68l12.43,25.1C933.94,2614.2,965.5,2673.83,965,2736.28ZM569.49,2211.65a5.6,5.6,0,0,0-.23,2,1.79,1.79,0,0,0,.24,1,1.77,1.77,0,0,0,.84.51c1.07.39,2.14.74,3.23,1.05l1.11-.67c.43-2.65,2.7-4.55,4.82-6.2a17.44,17.44,0,0,0-5.63-.28C572.1,2209.32,570.13,2210,569.49,2211.65Zm-2.36-15a4.73,4.73,0,0,0-2.56,4.2,6,6,0,0,1,4.06-1.91,19.68,19.68,0,0,0,2-.08,2.06,2.06,0,0,0,1.62-1.09l-.25-.66A4.74,4.74,0,0,0,567.13,2196.69Zm-22.81-53.81a3.11,3.11,0,0,0,.07,2c.28.52.86.77,1.3,1.16,1,.88,1.12,2.35,1.18,3.67l.75,14.76,1.12-1.2q8.63-15.08,16.23-30.7a7.93,7.93,0,0,1-6.4-5.05,14.89,14.89,0,0,1-.5-8.45,10.64,10.64,0,0,0-9.55,2.36c-3.06,2.76-5.07,7.6-9.18,7.68a5.41,5.41,0,0,1-1.07,5.49A7.7,7.7,0,0,1,544.32,2142.88Zm12.18,103.53a3.14,3.14,0,0,0-.53-1.57l-11.66-21.07a3.63,3.63,0,1,1-7.06-1.28,51.15,51.15,0,0,0-28.14,20.33l1.18.84a76.06,76.06,0,0,1,23.43,9.32c3.21,1.95,6.38,4.18,10.07,4.86l5.24-1.3,6.61-8.39A3.19,3.19,0,0,0,556.5,2246.41Zm22.65,2.12a4.35,4.35,0,0,0-1-2.31,13.63,13.63,0,0,1-1.63-11.35,8.28,8.28,0,0,1-8.48-4.41c-1.45-2.94-1-6.43-.47-9.67a9.55,9.55,0,0,1-5.61-12.65c-4.07-.51-6.59-5.91-4.36-9.35-1.5.12-2.52-1.77-2.12-3.22a6.64,6.64,0,0,1,2.92-3.33,59.44,59.44,0,0,1,8.09-4.74,47.86,47.86,0,0,1-12.3-.78,73.51,73.51,0,0,0-5.24,13.75,21.93,21.93,0,0,0-1,8.38c.43,3.37,2.16,6.41,3.86,9.35q5.28,9.12,10.54,18.24a63.12,63.12,0,0,0,6.84,10.23l6.6,2.9A2,2,0,0,0,579.15,2248.53Zm5-24.86-.78-.61a14.34,14.34,0,0,0-6.86.14c-.76.21-1.61.59-1.77,1.36a1.55,1.55,0,0,0,.82,1.56,4.5,4.5,0,0,0,1.81.47c1.63.16,3.45.2,4.69-.88C582.75,2225.06,583.21,2224.06,584.11,2223.67Zm4.88,14.58a7,7,0,0,0-4-.7,1.86,1.86,0,0,0-.93.23,1.5,1.5,0,0,0-.49,1.19,4.26,4.26,0,0,0,2.11,3.84,4.32,4.32,0,0,0,4.39-.13l.31-.95A3,3,0,0,0,589,2238.25Z"></path>
    <path data-name="2a" data-official="" data-plain="Section of Ovary" data-loc="" d="M389.14,2872.91c-9.61-52.71-.85-106.83,8-159.67,1.6-9.54,3.44-19.6,9.73-26.95,9.81-11.46,26.81-12.62,41.9-12.91,7-.13,14.44-.18,20.58,3.26,9.56,5.36,13,17.21,15.52,27.87,6.73,28.14,13.51,56.95,10.36,85.71-1.26,11.47-4.09,22.83-3.9,34.36.3,17.93,7.86,35.85,3.93,53.34-2.55,11.38-9.88,21.82-9.4,33.47.63,15.72,15.35,30.89,8.87,45.22-4.28,9.46-15.74,12.91-25.93,14.92q-19.89,3.93-40.09,5.88c-7.46.72-16.12.79-21-4.86-5.57-6.38-3.17-16.06-2.18-24.48a62,62,0,0,0-16.56-49.43Z"></path>
    <path data-name="2b" data-official="" data-plain="Cross Section" data-loc="" d="M525.79,2888.83c-6.86-3.53-9.74-11.69-11.71-19.15a290.6,290.6,0,0,1-9.57-70.1c-.15-11.2.81-23.57,8.73-31.51,6.74-6.75,16.85-8.57,26.29-9.89,11.67-1.63,23.58-3,35.16-.91s23,8.19,28.87,18.39c9.82,17,1.67,38.56,3.91,58.1.67,5.85,2.29,11.56,2.73,17.43a43.9,43.9,0,0,1-7.33,27.62c-2.85,4.22-6.49,8-8.1,12.87-1.35,4.06-1.12,8.45-1,12.73.42,14.65-1.46,31.19-12.91,40.33-7,5.63-16.4,7.28-25.38,8-11.84,1-25.09.06-33.42-8.4a23.72,23.72,0,0,1-6.29-20.67c1.55-8.28,7.46-15.21,9.21-23.45Z"></path>
    <path data-name="2c" data-official="" data-plain="Seed" data-loc="" d="M652.29,2891.27a87.87,87.87,0,0,1-23-23.44,90,90,0,0,1-15.65-51.45,79.15,79.15,0,0,1,18.8-50.12,38.83,38.83,0,0,1,11.23-9.4c5.65-2.9,12.13-3.65,18.45-4.35,8.11-.9,16.22-1.8,24.35-2.45,9.47-.76,19.14-1.16,28.32,1.25,16.11,4.23,29.15,17,36.34,32s9,32.12,8.2,48.75c-.6,11.67-2.6,23.6-8.62,33.61-5.58,9.29-14.24,16.3-23.06,22.61-5.11,3.66-10.74,7.72-12.14,13.85s1.78,12.09,1.78,18.24c0,9.07-7.08,17-15.46,20.45s-17.8,3.26-26.81,2.28c-5-.54-10.13-1.35-14.65-3.62s-8.43-6.24-9.49-11.18c-1.69-7.83,3.93-15.63,3.17-23.6Z"></path>
    <path data-name="3" data-official="Catalpa syringifolia" data-plain="Common Catalpa" data-loc="North America" d="M578.13,2246.22a4.35,4.35,0,0,1,1,2.31,2,2,0,0,1-3.35,1l-6.6-2.9a63.12,63.12,0,0,1-6.84-10.23q-5.26-9.12-10.54-18.24c-1.7-2.94-3.43-6-3.86-9.35a21.93,21.93,0,0,1,1-8.38,73.51,73.51,0,0,1,5.24-13.75,47.86,47.86,0,0,0,12.3.78,59.44,59.44,0,0,0-8.09,4.74,6.64,6.64,0,0,0-2.92,3.33c-.4,1.45.62,3.34,2.12,3.22-2.23,3.44.29,8.84,4.36,9.35a9.55,9.55,0,0,0,5.61,12.65c-.5,3.24-1,6.73.47,9.67a8.28,8.28,0,0,0,8.48,4.41A13.63,13.63,0,0,0,578.13,2246.22Zm-11-49.53a4.73,4.73,0,0,0-2.56,4.2,6,6,0,0,1,4.06-1.91,19.68,19.68,0,0,0,2-.08,2.06,2.06,0,0,0,1.62-1.09l-.25-.66A4.74,4.74,0,0,0,567.13,2196.69Zm2.36,15a5.6,5.6,0,0,0-.23,2,1.79,1.79,0,0,0,.24,1,1.77,1.77,0,0,0,.84.51c1.07.39,2.14.74,3.23,1.05l1.11-.67c.43-2.65,2.7-4.55,4.82-6.2a17.44,17.44,0,0,0-5.63-.28C572.1,2209.32,570.13,2210,569.49,2211.65Zm-25.18,12.12a3.63,3.63,0,1,1-7.06-1.28,51.15,51.15,0,0,0-28.14,20.33l1.18.84a76.06,76.06,0,0,1,23.43,9.32c3.21,1.95,6.38,4.18,10.07,4.86l5.24-1.3,6.61-8.39a3.19,3.19,0,0,0,.86-1.74,3.14,3.14,0,0,0-.53-1.57ZM805.53,306c-1.85-16.16-3.7-32.43-2.64-48.67s5.2-32.61,14.42-46A69.05,69.05,0,0,1,863.1,182.5a92.68,92.68,0,0,1,25.5,0,5.46,5.46,0,0,0,3.67-.38c1.45-.93,1.65-2.92,1.81-4.63,1.35-14.69,10.85-28,23.54-35.54s28.21-9.53,42.78-7.19c5.27.85,10.83,2.21,15.8.27,2.49-1,4.6-2.69,6.79-4.23,9.87-6.91,22.76-10.19,34.28-6.64,16.27,5,27.59,22.42,44.57,23.8l6.92,4.85a205.61,205.61,0,0,0,26.58,13.54,16.15,16.15,0,0,1,22.09-11.34c4.07,1.74,7.24,5,10.1,8.43,8,9.42,14.82,21.28,12.88,33.47l1.47,6.46c2.15,9.09-2.44,18.25-4.09,27.44-2.06,11.49.55,23.33,4.44,34.34l2.32,4.95c-1.45,11.52,4.75,22.88,13.12,30.94a62,62,0,0,0,38.79,17l6.2-2.44a2.32,2.32,0,0,0,3.26-.15,6.08,6.08,0,0,0,1.42-3.32c2.05-10.84-.22-22.41,3.59-32.76l-.21-7.76a24.53,24.53,0,0,1-8-1.59c-5-2.25-7.88-7.51-10.31-12.45a19.19,19.19,0,0,0-3.46-5.42c-2.33-2.28-5.75-3.26-7.87-5.73l-1.6-7c-.61-6.91-1.21-13.93,0-20.76s4.52-13.59,10.26-17.5c3.75-2.56,8.54-4,11-7.79,3.86-6-.21-13.81,0-20.93.15-4.68,2.21-9.2,1.94-13.88-.38-6.41-5.2-11.88-10.89-14.84s-12.2-3.88-18.56-4.75l-10.76-2.38a32.38,32.38,0,0,1-21.94-26.52c-.7-6,.4-12.25,3.83-17.18,4.79-6.88,13.23-10.13,21.3-12.43,5.34-1.53,11.37-3.29,13.92-8.23,1.74-3.36,1.37-7.35,1.72-11.12,1.44-15.72,16.58-27.85,32.29-29.41s31.24,5.59,43.36,15.71c5,4.13,9.56,8.86,12.59,14.57,3.38,6.34,4.67,13.58,5.39,20.73a149.13,149.13,0,0,1-2.36,45.3c-.39,1.87-.78,4,.26,5.56a5.35,5.35,0,0,0,4.17,2.07c4.32.34,8.42-2.15,11.41-5.3s5.14-7,7.82-10.38a42.09,42.09,0,0,1,57.92-7.95l10.53,3.87c10.93-10.1,26.9-12,41.72-13.41,8.13-.78,16.56-1.52,24.26,1.18,9.83,3.43,17,11.9,23,20.38a234.42,234.42,0,0,1,13.87,22l1.12,4c3,4.24,7.71,7,11.13,11a24.34,24.34,0,0,1,5.56,19.36,22.51,22.51,0,0,1,11,8.32l.11,4.45c1.92,5.95.14,12.39-1.66,18.38-1,3.22-2.13,6.7-4.92,8.59a14,14,0,0,1-5,1.81,122.22,122.22,0,0,1-22.88,2.64c-8.37.17-17.83-.13-23.76,5.78,4.07.27,7.84,2.18,11.47,4.06l9.2,4.76c6.86,3.55,13.94,7.28,18.67,13.39s6.41,15.29,1.78,21.47l-2.41,3.27a22.79,22.79,0,0,1-9.48-1.28,23.64,23.64,0,0,1-15,10.82c-2.9.64-5.9.73-8.82,1.3a27.74,27.74,0,0,0-18.9,13.9l-6.28,3.29-9-2.71a38.94,38.94,0,0,1-21.84-13.2c-.93-1.13-1.94-2.41-3.39-2.6s-2.84.81-4,1.71a52.09,52.09,0,0,1-38,9.91c-8.8-1.2-18.33-4.54-26.07-.19-10.82,6.08-12.19,24.3-24.33,26.91l-4.55,2.4-11.22,2.42a7.76,7.76,0,0,0-3.17,1.19c-4,3.09.19,11.3-4.18,13.84-1.81,1-4.22.29-5.7-1.19a14.41,14.41,0,0,1-3-5.46,46.74,46.74,0,0,1-36.79,6,295.46,295.46,0,0,0-5.8,31.07l3,4.68,1.23,18.55a5.74,5.74,0,0,0,.48,2.32c.67,1.31,2.2,1.91,3.6,2.39l32,11.1c5.19,1.8,10.45,3.62,15.93,4l8.33,5,11.75,5.62c2.52,1.21,5.14,2.45,8,2.55,2.33.08,4.64-.64,7-.58,4.22.1,7.93,2.68,11.92,4.06,3,1,6.26,1.4,9.31,2.36s6.09,2.71,7.49,5.59a43.78,43.78,0,0,1,14.71-.46l5,1.39a14.29,14.29,0,0,1,4.2,9,13.72,13.72,0,0,1,11.24,2.67c2.3,1.83,4.11,4.48,6.92,5.35,1.12.35,2.32.38,3.41.81,2.69,1.07,3.89,4.26,4.1,7.15s-.24,5.87.53,8.67c1,3.64,4.06,7.11,2.88,10.69a15.67,15.67,0,0,1-1.79,3.16,13.32,13.32,0,0,0-.64,12.43l.13,1.28c-.33,1.69-2.28,2.44-3.4,3.75-1.86,2.16-1.18,5.41-1.17,8.26l-2.49,3.31c-4.49.44-9,.68-13.53.71l-3.68,1a52.81,52.81,0,0,1,7,15.67,13,13,0,0,1,8.45.66c3.57,1.71,5.83,5.43,6.74,9.28s.67,7.86.41,11.81c3.55-1.32,7.93,1.75,7.92,5.53l4.47-.49a28,28,0,0,1,21.63-.66l10.06,6.38c2.76,7.17,6.37,14,8.59,21.36,2.87,9.49,3.36,19.66,7.14,28.82,2.78,6.75,7.4,13.34,6.58,20.6a1.22,1.22,0,0,1-1.66.4l-1.56,5v5.62l-1.62,4.86a4.11,4.11,0,0,1-3,2.49,13.94,13.94,0,0,1-4.08.13c-4.26-.24-8.7,0-12.51,1.88s-6.83,5.9-6.48,10.15l-1,4.5c-.17,5.56-.73,11.79-5,15.4-1.9,1.64-4.35,2.52-6.36,4a24.78,24.78,0,0,0-4.22,4.4l-5,6.1-7.25,4.26a99.2,99.2,0,0,0-21,16.63l-7.43,3.28c-6.63,11.66-8.57,25.58-7.28,38.93s5.62,26.23,10.89,38.56a274.28,274.28,0,0,0-34.53-34.39c-3.9-3.25-8.38-6.56-13.45-6.35a11,11,0,0,0-9.79,7.48c-1.26,4-.19,8.48-2,12.23a3.81,3.81,0,0,1-2.5,2.3,4.1,4.1,0,0,1-2.17-.36c-5.78-2.31-9-8.27-12.79-13.24-5.14-6.82-11.83-12.28-18.21-18a293.51,293.51,0,0,1-39.49-42.83l-6-1.24c-4.55-1.5-9.56.49-13.41,3.34s-7,6.55-11,9.22-9.24,4.2-13.55,2.1c-4.58-2.23-7.14-8.08-12.17-8.92-3-.5-6.49,1-9-.76-1.47-1-2.17-2.78-3.46-4-2.17-2-5.44-2-8.32-2.57A17.63,17.63,0,0,1,1143,695.16l-.1-1.36c-3.41-1.25-5.84-4.43-7-7.87a28.68,28.68,0,0,1-.93-10.77,3.94,3.94,0,0,0-.29-2.26,4.83,4.83,0,0,0-2.22-1.53,10.79,10.79,0,0,1-5.72-11.21,15.67,15.67,0,0,0,.6-3.93c-.16-1.85-1.44-3.46-1.63-5.31-.27-2.67,1.75-4.95,3-7.35,2.83-5.61,1.3-12.34-.31-18.41l-.6-7.4a30.8,30.8,0,0,0-.52-7.9,4.74,4.74,0,0,0-1.13-2.57,4.47,4.47,0,0,0-2.18-1,16.94,16.94,0,0,0-11.6,1.72c-2.91,1.61-5.52,4.15-8.83,4.44l-4.21.94q-9.22-3.25-18.67-5.85l0-.81c2.45-7.27-.84-15.36-5.79-21.22a10.19,10.19,0,0,1-1.92-2.8c-.61-1.6-.26-3.4-.53-5.1s-1.66-3.53-3.33-3.12l1.12-1a73.7,73.7,0,0,0,7.19-11.27c-.14,1.07,1.2,1.85,2.25,1.59a4.71,4.71,0,0,0,2.42-2.06c5.88-8.18,8.83-18.19,9.88-28.21s.3-20.14-.65-30.17c-.32-3.37-.69-6.85-2.36-9.8-3.48-6.12-12.07-9.17-13-16.14l-.58-3c.6-4.95-2.62-9.63-6.5-12.75a44.14,44.14,0,0,0-4.06-2.85l1.06-2.18c4.8-6.84,12.66-11.06,20.78-13s16.58-1.86,24.93-1.54c4.83.19,10.1.32,14-2.57a10.56,10.56,0,0,0,3.93-5.95,15.9,15.9,0,0,1,1-3.82,8.77,8.77,0,0,1,3.1-3,97.21,97.21,0,0,1,36.35-14.89l4.83-3.52,10.73-1.41a12.32,12.32,0,0,0,5-1.4c3.72-2.33,3.85-7.59,3.7-12a201.42,201.42,0,0,1,1.33-31.35l5-10.92a26.35,26.35,0,0,0,4.24-18,4.66,4.66,0,0,0-.45-1.68c-.65-1.23-2.11-1.77-3.46-2.11a33.4,33.4,0,0,0-9.6-1c-5.66.26-11.4,2-16.88.57l2.35-6.08A55.79,55.79,0,0,1,1152.76,310c-1.86-1.74-4-3.75-6.57-3.32-2,.34-3.31,2.07-4.78,3.4a14.5,14.5,0,0,1-8.85,3.69,17.29,17.29,0,0,0-4.78.43c-2.41.84-4,3.32-4.35,5.84a19.43,19.43,0,0,0,.7,7.56c1.89,8,4.45,15.88,5.69,24s1.07,16.73-2.32,24.23l-8.3,7.27c-2.66.12-5,1.67-7,3.45s-3.71,3.86-5.88,5.4c-3.55,2.53-8,3.44-12.25,4.25l-3.37,1.49a7.6,7.6,0,0,1-4.38-6.31,22.44,22.44,0,0,0-11.89.43,7.25,7.25,0,0,1-3.47.6c-1.55-.28-2.63-1.64-3.54-2.91a176.14,176.14,0,0,1-22.71-43,11.64,11.64,0,0,1-7.82-2.34,50.51,50.51,0,0,1-2.57,16.94,9.17,9.17,0,0,1-1.47,3c-2.31,2.85-6.69,2.44-10.29,1.77l-.31,4.44c-1,3-3.91,4.87-5.58,7.53a10,10,0,0,0-1.53,5.33c0,1.72.4,3.64-.66,5l-2.07,4a65.11,65.11,0,0,1-41.2,12.88,128.82,128.82,0,0,1-14-1.56l-8.66-2.69a10.36,10.36,0,0,0-11.77-7.39c-2.87.61-5.31,2.44-7.77,4-9.29,6.05-20.54,9.46-31.55,8.2-11.89-1.37-23.15-8-35.06-6.8-3.31.34-6.6,1.28-9.91,1-4.62-.41-8.67-3.13-12.49-5.77l-15-10.39a55.91,55.91,0,0,1-9.83-7.95c-6.65-7.28-9-17.51-9.6-27.34s.34-19.75-.88-29.52Zm462.47-7.1c.92-1,2.65.27,2.69,1.59s-.82,2.48-1.42,3.67c-2.15,4.23-1,9.32.29,13.91,1.47-1,3.12.94,4.75,1.68,2.17,1,4.67-.36,6.57-1.82,7.8-6,13.28-14.44,18.6-22.71,2-3.05,4-6.82,2.42-10.09-1.17-2.44-3.94-3.6-6.47-4.56-3.77-1.42-7.74-2.86-11.71-2.26-7.06,1.07-11.51,8-15,14.17Zm-47.6,17.5a27.69,27.69,0,0,0,2.78,10.95A17,17,0,0,0,1255,316.61l-1-5.61c.8-4.56-1.44-9.18-4.56-12.61s-7.06-6-10.63-8.9A57.39,57.39,0,0,1,1225,272.76l-1.45,1.39c.76,9.67-2.09,19.22-3,28.88A73.38,73.38,0,0,0,1220.4,316.37Zm-155-27.55c1.73,5.33,8.34,7.07,13.93,7.38a78.49,78.49,0,0,0,24.13-2.46l5.69-2.84A86.6,86.6,0,0,0,1129,279.83a37.12,37.12,0,0,1-6.44-11.11,5.21,5.21,0,0,0-1.34-2.37,4.66,4.66,0,0,0-3.19-.69c-17,.58-33,8.22-48.27,15.71-1.64.8-3.39,1.71-4.21,3.34A5.51,5.51,0,0,0,1065.42,288.82ZM533.32,2217c.15-7.93.77-16,3.47-23.43a87.09,87.09,0,0,1,6.6-13.3l.31-1.57a159.65,159.65,0,0,1-5.43-31.05c-2.48,1.51-5.39,2.74-8.24,2.16s-5.29-3.68-4.23-6.38l-1.41-.87c-2.63.11-4.77-2.44-5.16-5.05s.51-5.23,1.39-7.71c-2.85-1.86-3.47-6.11-1.88-9.12s4.89-4.83,8.25-5.43a16.7,16.7,0,0,1,8.93.84,7.66,7.66,0,0,1,3.75,2.7l-.46.89c3.7-1.87,7.17-4.17,11-5.85s8-2.72,12.07-1.86l.92,1.51c1.79-4.39,4.71-8.21,7.51-12s5.56-7.79,7-12.32,1.24-9.77-1.48-13.65-8.41-5.76-12.49-3.35a16.13,16.13,0,0,0-2.94,2.41,61.38,61.38,0,0,1-11.68,9.36,24.22,24.22,0,0,1-14.34,3.54c-4.54-.46-8.75-2.59-12.65-5a43.14,43.14,0,0,1-9.43-7.34c-2.73-3-4.8-6.48-7.65-9.32-7.37-7.34-18.84-8.95-29.15-7.53,7.75-5.1,18.38-3,26.28,1.86s14.09,12,21.36,17.78a20.1,20.1,0,0,0,5.53,3.35,16.75,16.75,0,0,0,6.83.71,29.71,29.71,0,0,0,15.83-6.08c3.32-2.58,6.08-5.85,9.58-8.18s8.17-3.59,11.88-1.63l-.19-1.53c-5.83-3-9.44-9.3-10.68-15.75s-.39-13.1.78-19.56a73.81,73.81,0,0,1,3.66-13.91c2.22-5.67,5.55-10.84,7.86-16.46s3.56-12.07,1.43-17.77l-.05-1.78c-1.15,1.19-3.48.1-3.63-1.55a3.25,3.25,0,0,1,3.07-3.22,5.67,5.67,0,0,1,4.36,2c2.78,2.94,3.29,7.36,3,11.4a38.56,38.56,0,0,1-2.87,12.25,100.2,100.2,0,0,1-6,11.19c-3.38,5.86-6.43,12-7.9,18.61s-1.23,13.76,1.76,19.83,8.63,10.76,12.31,16.6a31.56,31.56,0,0,1,1.43,30.42c-1.86,3.69-4.52,7.18-4.88,11.3l.39.58c6.36-5.25,10-13,13.54-20.46q8.33-17.79,16.63-35.59c18.93-40.48,38.63-82.06,71.48-112.36l.66-1.48a23.25,23.25,0,0,1,.57-10.09l1-1.65c-9.14-7.91-14.75-19-20.12-29.88l-15.84-31.93v-1.12l-13.46-.83c-4.61-.28-9.31-.58-13.61-2.25-4.91-1.91-9-5.47-12.92-9q1.35,6.36,2.71,12.71c.65,3.06,1.3,6.23.6,9.28s-3.17,5.92-6.29,6a8.45,8.45,0,0,1-4.71,10.57l.3.22a48.85,48.85,0,0,1,8.87,23.57c.3,3,.31,6,.32,9.06q0,10.23.1,20.47a9.75,9.75,0,0,0-4.3-.71l-.31,1.15c-.78,2.83,1.34,5.85.59,8.69-.62,2.37-3,3.78-5.24,4.77-5.82,2.59-12.28,4.11-18.56,3.15a7.38,7.38,0,0,1-4.28-1.8c-1.4-1.45-2.09-4-4.11-4.15l-1.21.45c-2.16,2.7-6.47,1-9.36-.9-7.92-5.18-15.93-10.42-22.38-17.33a116.27,116.27,0,0,1-8.19-10.19c-11.95-16.06-24.2-32.73-28.69-52.24-.56-2.4-1.13-5.07-3.13-6.52a8.21,8.21,0,0,0-3.44-1.25,27.86,27.86,0,0,0-9.85,0l-8.6,1.09a108.88,108.88,0,0,0-26.63,10.16l-5.22,3c-3.91,5-2.57,12.24-1,18.43q2.51,10.08,5,20.17c.74,3,1.41,6.35-.32,8.87-.69,1-1.77,1.87-1.94,3.1a7.8,7.8,0,0,0,.66,3c.6,2.22-.16,4.54-.45,6.81s.19,5,2.24,6c-5.61-.89-11.11,1.64-16.38,3.78s-11.29,3.9-16.48,1.59c-1.93-.86-3.62-2.25-5.62-2.94-3.52-1.23-7.4-.14-11.11-.51s-7.83-3.6-6.57-7.11l-.61.27c-5.42,1.09-10.7-2.37-14.63-6.25s-7.46-8.49-12.53-10.71c-2.22-1-4.65-1.43-6.84-2.47-4.41-2.11-7.36-6.32-10.12-10.36l-2.48-2.41-17.93,12.15c-26.41,32.54-56,63.56-92.75,83.66-33.75,18.46-73.54,27.82-100.69,55.06-31.47,31.58-39.55,81.09-71.35,112.33-8.16,8-17.84,14.78-23.8,24.54s-6.8,24.09,2,31.36c5.57,4.58,13.34,5.16,20.55,5.11,23.88-.17,47.51-4.95,71.37-5.69s49.1,3.13,67.77,18l11.44,8c4-1.08,9-2.84,9.18-7,.08-1.45-.47-3.09.41-4.24.76-1,2.2-1.06,3.44-1.05l38.6.26a11.75,11.75,0,0,1-3.13-8.12l.35-1.36a76.13,76.13,0,0,1,48,20.64,30.31,30.31,0,0,1-6.3-19.28,11.34,11.34,0,0,1,9.15.24,27.54,27.54,0,0,1-1-22.51c.91,5.06,6.11,8.12,11,9.66s10.31,2.39,14.14,5.82v-.72l-3.69-7a44.07,44.07,0,0,1-3.32-7.39c-1.76-5.66-1.25-11.95-3.8-17.3l-.85-2a17.86,17.86,0,0,1,9.83,1,37.94,37.94,0,0,1,.15-19.45,26,26,0,0,0,11.79,4.74l-.13-.37a27.85,27.85,0,0,1-4.63-11.72,56.13,56.13,0,0,1-.3-9.44l.24-9.71a16.41,16.41,0,0,1,10.11,2.4,20,20,0,0,1-2-7.58,117.28,117.28,0,0,1,0-27.52,4.35,4.35,0,0,1,3.2,3l.75,0a53.08,53.08,0,0,1,9-30.31l2.39-1.08,8.72,10.7a45.07,45.07,0,0,1,6.36,9.3c1.57,3.42,2.24,7.41,1,11l.05.91c1.05.35,1.91-.85,2.81-1.51a9.36,9.36,0,0,1,3.49-1.12,10.86,10.86,0,0,0,5.36-3.12c-2.34,3.59-2,8.28-1.1,12.47s2.3,8.4,1.8,12.65l-.06.43a10,10,0,0,1,5.82-6.47,3.67,3.67,0,0,1,2.06-.32c2,.37,2.53,2.89,2.66,4.89l.69,10.51a35.54,35.54,0,0,1-.06,7.92c-.32,2-1,3.92-1.4,5.89a54.81,54.81,0,0,0-.79,12.74L400,2177l4.65-2.2a2,2,0,0,1,1.19-.28,2,2,0,0,1,1.08.82l4.53,5.52,2.19-10a11.72,11.72,0,0,1,1.75-4.63c1.62-2.13,4.8-3.35,5-6a4.92,4.92,0,0,0,4.26,5.15,10.05,10.05,0,0,1,2.79-7.78,30.21,30.21,0,0,1,6.75-5.16l8.43-5.25c-3.84,6.43,3.26,15.32-.31,21.92l-.32,1.18a20.12,20.12,0,0,0,6.82.73,72,72,0,0,1-.27,17.11,20.2,20.2,0,0,1-1.82,6.69c-.92,1.76-2.27,3.27-3.28,5a7,7,0,0,0-1,5.69l1.18-.06c-.64-1.27,1.44-2.48,2.63-1.71s1.43,2.4,1.43,3.82c0,10-6.07,18.83-12.47,26.46-2.6,3.09-5.37,6.23-6.55,10.09-1.59,5.2-.06,10.78,1.47,16l-.32,1.62c2.09,2.76,6.39,2.86,9.47,1.29s5.31-4.37,7.69-6.88a56.7,56.7,0,0,1,50.54-16.42l2,.28a59.48,59.48,0,0,1,30.47-22.61Zm654.59-1335.6a27.4,27.4,0,0,1,28.12,7.17l19.64,6.92c2.85,4.41,9.07,4.67,14.33,4.69a163.88,163.88,0,0,1,44.61,6.45,75.76,75.76,0,0,1,12.06,4.44c3.25,1.59,6.31,3.53,9.48,5.26,9,4.9,18.8,8,28.55,11.13l5.1.81c11.65,2.53,23.63,5.18,33.49,11.88a66.4,66.4,0,0,1,10.59,9.23A116.45,116.45,0,0,1,1408,967.3c2.57,4,5.12,8.39,9.38,10.5l3,5.74a27.48,27.48,0,0,0,8.14,1.39,21,21,0,0,0,13.22-4,14.46,14.46,0,0,0,5.82-12.19l-.63-5.37q-3.31-8.75-7.35-17.2a14,14,0,0,0-3.43-5,14.35,14.35,0,0,0-4.89-2.25c-3.77-1.2-7.75-2.41-11.63-1.58-1.57.33-3.06,1-4.65,1.23-6.23.9-11.27-4.75-17-7.28-3.5-1.54-7.37-1.93-11.17-2.3l-33.81-3.31-6.09-3.43a164.53,164.53,0,0,1-46.6-19.28,39.15,39.15,0,0,1-7.16-5.21c-1.64-1.59-3-3.42-4.56-5.13-4.8-5.36-10.86-9.4-16.84-13.38-6.59-4.38-13.27-8.81-20.77-11.32l-6-4.86a63.39,63.39,0,0,0-21.51-12.8,2.9,2.9,0,0,0-1.68-.23c-1.6.41-1.57,2.91-3,3.79-3.17-2.09-3.79-6.5-3.46-10.29s1.32-7.68.18-11.31l-4.46-7.46q.15-6.12.28-12.24c0-1.86,0-3.85-1-5.41a9.36,9.36,0,0,0-2.5-2.31l-11.6-8.34c0,3.75,0,7.49,0,11.24,0,1.54,0,3.2-1,4.42-1.29,1.67-3.87,1.83-5.78.94a14.08,14.08,0,0,1-4.66-4.21l-2.8-3.57c-2.58-1.74-3-5.37-2.6-8.45s1.2-6.29.17-9.22l-1-1.17c-3.45-1.09-5.79-4.2-8.72-6.31a32.92,32.92,0,0,0-5.67-3.06l-11.28-5.16c-1.18-.54-2.52-1.08-3.72-.6a4,4,0,0,0-2,3.3,16.15,16.15,0,0,1-.64,4,4.69,4.69,0,0,1-6.89,1.81l-3.48-3.7c.44-8.28-6.66-16.23-14.94-16.74a2.36,2.36,0,0,0-1.21.17,3,3,0,0,0-1,1.34c-1.83,3.45-6.18,4.52-10,5.12-7.57,1.19-15.28,1.95-22.88,1s-15.13-3.68-20.83-8.79l-8.61-1-9.44-1.07a5.78,5.78,0,0,0-1.81,0,5,5,0,0,0-2,1.08,16.83,16.83,0,0,0-5.13,6.89l-2.88,6.2-5,7.41c-3.64,5.46-7.36,11.1-8.63,17.54l3.1,5.83a128.23,128.23,0,0,1,16.81,5.88,48.54,48.54,0,0,1,9.39,5.06c1.85,1.35,3.54,2.9,5.35,4.31a42.13,42.13,0,0,0,21.79,8.66l5.1,2.83a161.14,161.14,0,0,1,32.64,24.27c4.45,4.28,8.85,8.95,14.61,11.16,3,1.12,6.31,1.65,8.52,3.89l6.1,9.09c1.73,4.65,6.36,7.47,10.69,9.9q10,5.58,20.09,10.9c2.4,1.26,5,2.54,7.7,2s4.87-3.75,3.33-6c-1-1.49-3.13-1.82-4.34-3.15-1.4-1.56-1.16-4.13.09-5.82A10.35,10.35,0,0,1,1187.91,881.41ZM583.33,2223.06a14.34,14.34,0,0,0-6.86.14c-.76.21-1.61.59-1.77,1.36a1.55,1.55,0,0,0,.82,1.56,4.5,4.5,0,0,0,1.81.47c1.63.16,3.45.2,4.69-.88.73-.65,1.19-1.65,2.09-2Zm5.66,15.19a7,7,0,0,0-4-.7,1.86,1.86,0,0,0-.93.23,1.5,1.5,0,0,0-.49,1.19,4.26,4.26,0,0,0,2.11,3.84,4.32,4.32,0,0,0,4.39-.13l.31-.95A3,3,0,0,0,589,2238.25ZM2131.53,2677.3c-.68,9.8-1.61,19.84-5.86,28.69s-12.57,16.4-22.38,17c-14.49.86-25.75-13.37-29.1-27.49s-1.58-29-4.45-43.25c-8-39.72-48.24-63.05-84.41-81.31-48.34-24.39-100.37-49.48-154.1-42.77-52,6.49-99.94,42.45-151.88,35.39-48.41-6.59-83.18-48-123.72-75.31-1.21,25.25,21.22,44.55,41.53,59.61l92.95,68.93c4.05,3,4.22,6.14,6.65,10.56,5.21,9.51.26,22.09-8.4,28.63s-15.92,8.34-26.73,9.18a231.44,231.44,0,0,1-53.12-2c-7.14-1.09-15.3-2.26-20.85,2.35-4.59,3.8-5.76,10.3-9.14,15.2-8.36,12.14-28.76,10.13-38.13-1.25s-9.46-28-5-42.09a301,301,0,0,1-115.45-82.29l-7.82,14.57c-31.81,64.86-33.32,143.84-4,209.87,4.93,11.11,10.44,24.9,2.91,34.43-4.07,5.15-10.85,7.23-17.28,8.53a129.63,129.63,0,0,1-88.83-14.25c-8.74-5-17-11-26.44-14.42-10.12-3.64-21.07-4-31.82-4.41-31.28-1-63.18-2-92.68-12.45-14.34-5.1-27.81-12.36-40.84-20.21-71.7-43.21-132.46-106.95-163.95-184.51l-13.23-20.45-12.43-25.1a219.76,219.76,0,0,0-5-25.68,49.55,49.55,0,0,0-3.38-9.82,56.45,56.45,0,0,0-6.81-9.89q-21.39-26.76-42.79-53.53c-1.14-1.44-2.4-3-4.16-3.48-2.76-.84-5.73,1.16-7,3.75l-14.14-7.94c-51.45-45.46-83.08-112.61-85.37-181.22-32.6,27.84-79.85,27.8-122.69,26.31l-23.93,3.31c-3-3.2-4-7.72-4.49-12l-4.56-7.39c0-3.34-.13-6.75-1.27-9.89s-3.58-6-6.83-6.76a10,10,0,0,0-3.35-13.56c2.19-2.12,2.5-5.7,1.3-8.5a14.35,14.35,0,0,0-6.26-6.45,3.34,3.34,0,0,1-1.58-1.4,3.69,3.69,0,0,1,0-1.78,11,11,0,0,0-8.65-11.65l1.26-1.07a10.79,10.79,0,0,0-6.07-5.82,27.69,27.69,0,0,0-8.43-1.72A150.13,150.13,0,0,1,574.66,2147l.75,4.31c.11.68.34,1.49,1,1.68,1,.29,1.62-1,1.71-2,.28-3.32-.72-7.25,1.68-9.55,1.27-1.22,3.13-1.54,4.82-2a19.36,19.36,0,0,0,12.81-25.09l-.07-1.06a1191.36,1191.36,0,0,1,65.18-110.36,85.09,85.09,0,0,1,8.11-10.85c3-3.29,6.56-6.11,9.41-9.56,3.24-3.92,5.58-8.62,9.4-12,1.91-1.67,4.15-3,6-4.72s3.29-4.19,3-6.71l.82,1.11a15.68,15.68,0,0,0,13.88,9.66l1.17,1.55a341.79,341.79,0,0,1,31,41c8.64,13.32,16.45,27.16,23.88,41.19,9.28,17.53,18,35.5,23.42,54.58l1.92.55a333.66,333.66,0,0,1,14.76-54l-1,1.2c-3.69-.27-6-4-7.77-7.25L786,2021.41c-7.87-14.87-15.77-29.79-25.54-43.48A283,283,0,0,0,734.23,1947l2.39-1c12.18-2,24.62.23,36.77,2.44l19,3.45c22,4,44.13,8,65.87,13.52l1.24-.62,5.88-7.6,1.07-1.71a102.39,102.39,0,0,0-18.51-5,65.61,65.61,0,0,1-7.51-1.49c-2.73-.81-5.31-2.09-7.95-3.16-9.57-3.91-20-5.16-29.92-8.06-5-1.47-9.93-3.36-14.87-5.12a289.65,289.65,0,0,0-65.87-15,95.68,95.68,0,0,0-17.74-.61l-.24-1.37c-9.62-19.34-25.15-36.29-29.08-57.53l.5-2.2c-.9-2.53.08-5.42,1.8-7.48a23.34,23.34,0,0,1,6.4-4.81,8.9,8.9,0,0,0-5.17-.63,32.88,32.88,0,0,0,3.14-15.59c-.23-5-1.63-10.12-.66-15.08s4.42-9.94,3-14.89l-1.64-5.57c-3-7.2-12.38-8.81-18.07-14.11-4.81-4.47-6.58-11.23-8.13-17.61q-5-20.55-10-41.1l1.63-2a22,22,0,0,0,23,6,25.25,25.25,0,0,0-1-12.67c-.81-2.35-2-4.68-1.8-7.16.24-3.33,3-6.07,6.11-7.26s6.58-1.1,9.91-.87c1.82.12,3.86.22,5.23-1,1.21-1.07,1.59-2.93,3-3.75,1.07-.64,2.58-.52,3.4-1.46,1.12-1.29.05-3.23-.13-4.93-.29-2.74,1.93-5.1,4.25-6.58s5-2.57,6.71-4.74c3.67-4.72.88-11.52-2-16.76l4.45-9c17.32-21.45,25.79-48.5,33.89-74.85l32.54-105.8c3-9.7,6.07-19.61,12.14-27.74,5.81-7.77,14-13.39,22.06-18.73,14.7-9.69,30.16-19.09,47.46-22.4,18.58-3.55,37.69.2,56.23,4l15.43,9.27a199.6,199.6,0,0,0,40.44,21.14c1.41.55,3,1.07,4.38.41l4.64-.53a62.64,62.64,0,0,0,24.89,5.76,5.44,5.44,0,0,0,2.86-.48c1.47-.85,1.88-2.76,2.06-4.45,1-9.69-.75-20.09-7-27.6-5.63-6.83-14.12-10.47-21.62-15.18a81.15,81.15,0,0,1-32.92-40.92l-.79-6,9.25-1a22.78,22.78,0,0,0-.37-9.79c6,4.26,14.08,2.35,21.39,2.14a42.71,42.71,0,0,1,28.47,9.93,7.66,7.66,0,0,0,3.59,2.11,6.91,6.91,0,0,0,2.59-.28l10-2.4c-8.94-8.23-10.81-23.1-4.18-33.29l.65-1.71c-10.08.61-20.29.73-30.15-1.45s-19.41-6.84-26-14.51c6.28.88,12.76,1.43,18.91-.12s12-5.51,14.34-11.41l.15-1.17a15.83,15.83,0,0,0-8.2-4.93,47.21,47.21,0,0,0-9.63-1.24l.39-.24,75.24-29.23-.66-1.08c.93-2.92.9-6.7,3.61-8.15a20,20,0,0,1,3.55-1,6.28,6.28,0,0,0,4.11-4.43c.41-1.76,0-3.6-.06-5.4s.17-3.81,1.52-5a15.16,15.16,0,0,1,2.22-1.36,7,7,0,0,0,2.66-8.32l-2.36-.94-131,54.22-1.56,1a10.31,10.31,0,0,0-7.75-2.61c-.5,0-1.13.07-1.36-.38a1.34,1.34,0,0,1-.09-.53,225.35,225.35,0,0,1,2.17-34.72l2.23-16.89,5.29,4.72c17.59-15.38,27.57-37.5,36.4-59.14,2.14-5.25,4.28-10.58,7.71-15.09,4-5.3,9.61-9.2,15.34-12.6,7.76-4.59,16.09-8.5,25-9.92,9.37-1.49,18.95-.19,28.25,1.64a36.7,36.7,0,0,1,9.45,2.83c2.23,1.12,4.22,2.64,6.41,3.82,10.93,5.88,24.6,2.2,35.48-3.78a93.62,93.62,0,0,0,20.26-15,32.14,32.14,0,0,1-11.25-3,24.53,24.53,0,0,1,12.88-18.16l-.3-1.65c-21.33-11.7-38.76-29.28-55.36-47.08-13-13.93-26-28.61-32.58-46.48-2.94-8-4.53-16.35-6.9-24.5-3.7-12.79-9.27-24.95-14.82-37.06l-2.35-6.7c6.11-1.35,12.58-2.67,18.51-.69,5.53,1.85,9.72,6.29,14.15,10.1a152.57,152.57,0,0,0,16.15,11.58l16.63,10.85c2.78,1.81,5.65,3.66,8.9,4.32s7-.15,9-2.82c.8-1.09,1.4-2.53,2.69-2.93s2.4.33,3.44,1l18.93,12a6.83,6.83,0,0,1,1.75,1.41,9,9,0,0,1,1.18,2.57,14.69,14.69,0,0,0,13.32,9.33l9.75-3a53.48,53.48,0,0,1,21.69,4.16,6.19,6.19,0,0,0,6,7.29,17.59,17.59,0,0,1,3.53-.29c2.87.45,4,3.9,5.58,6.31l5.44,16.86q-.51,34.09-1,68.17a1.77,1.77,0,0,0,2.16,2.19c12.34.17,24.8-1.09,36.52-5s22.67-10.54,30.6-20a56.75,56.75,0,0,0,12.76-42.34l1.07-6.56c1.06-.54,2-1.27,3-1.89,3.25-2,7.09-2.71,10.84-3.4,2.72-.51,5.67-1,8.15.27,1.73.88,3,2.48,4.35,3.84a19.44,19.44,0,0,0,9.39,5.07l-1.37,9a100.31,100.31,0,0,1-4.66,34.54c13.69-3.32,25.89-10.93,37.73-18.56,4.45-2.87,9-5.8,14.13-7.06a37.2,37.2,0,0,1,9.54-.8c5.72.13,11.6.88,16.55,3.76,3.09,1.79,5.67,4.34,8.66,6.31a27.55,27.55,0,0,0,19.9,4.09,7.15,7.15,0,0,0,2.85-1,8.27,8.27,0,0,0,2.51-3.72q4.1-9.42,8.18-18.85l-3.81-4.1c5.53-2.47,7.86-9.56,13.38-12.05,3.28-1.48,7-1,10.65-1.13a35.81,35.81,0,0,0,12.23-2.45c1.35,5.2.57,10.76-1.23,15.81s-4.59,9.7-7.36,14.3l-8,13.32-2.47,2.3c-2.74,6-5.62,12.18-10.63,16.46-3.25,2.78-7.2,4.58-11.1,6.34l-61.57,27.87-7-3c-11.72,7.86-25.15,12.69-38.2,18.08-7,2.89-13.9,6-20.78,9.09q-37.32,17-73.54,36.27l-4.26,2.69a48.71,48.71,0,0,0,6.11,26.34,6.35,6.35,0,0,1,7.84-.43c4.38-5.11,12.06-5.7,18.73-4.8s13.41,2.92,20,1.6l5.41-.39c7.26-4.55,15.78-6.59,23.69-9.87,7.5-3.11,14.47-7.34,21.61-11.18,10.11-5.43,20.6-10.09,31.08-14.75l4.81-8.93c2-.75,2.49-3.4,3.74-5.18s3.4-2.75,5.43-3.61q27.66-11.7,54.33-25.58c4.8-2.5,9.65-5.07,14.92-6.28a12.07,12.07,0,0,1,5.1-.29c3.82.76,6.4,4.21,8.84,7.24a84,84,0,0,0,16.62,15.73l1.79,5.35,5.63,12.36c1.05,8.36,2.11,16.75,4.41,24.86s5.91,16,11.52,22.25l5.11-.22c-1.37,10.3.92,20.69,3.2,30.83q1.79,7.89,3.55,15.78c1.54,6.8,3.11,13.72,6.53,19.79l-5.61,2.82c-4.16,5.3-6.5,11.77-9.7,17.7s-7.71,11.71-14.13,13.75a5.46,5.46,0,0,0-2.54,1.24,6.07,6.07,0,0,0-1,2.79,10.25,10.25,0,0,1-5.26,6.68c-2.35,1.2-5.14,1.45-7.36,2.88s-3.7,4-5.7,5.85c-4.37,4-10.92,4.41-16.87,4.2-6.45-.22-13.74-1.32-17.45-6.61l-1.17-.64c-10.67,3.12-22.69,5.45-32.48.17-2.52-1.36-4.78-3.18-7.26-4.63-3.58-2.09-7.56-3.38-11.27-5.23-17.16-8.54-26.62-28.59-26.23-47.76l-5.27-2.22A34.42,34.42,0,0,0,1313,1248l-3.23,3.08c-1.13,6.08,3.81,11.35,6.9,16.71,4.15,7.21,5.14,15.75,6,24,1,9.06,1.63,19.29-4.33,26.19-2.81,3.24-7.06,5.74-7.82,10-1,5.75,5.11,10.8,4.62,16.62-.46,5.53-6.49,8.7-11.87,10l-6.64.8a28.32,28.32,0,0,0-8.2-.5c-5.58.74-10.82,4.76-16.31,3.52-3.57-.81-6.31-3.75-8.12-6.93s-2.91-6.73-4.63-10a29.38,29.38,0,0,0-10.46-11.14,54.76,54.76,0,0,1,7.42,30.57l-.27.92-5.42-.08c2,6.2-1.44,13.16-6.68,17s-11.9,5.23-18.37,6a20.75,20.75,0,0,0,18.78-1.1,6.14,6.14,0,0,1,2.83-1.16c2.08,0,3.4,2.39,3.3,4.46s-1.1,4-1.44,6a9.86,9.86,0,0,0,3,8.78c4.55-6.64,12.23-10.76,20.19-12s16.15.2,23.7,3c8.53,3.17,17.18,8.14,26.1,6.39l.52-2.23.41-7.52,4.08-1.52a2.85,2.85,0,0,1,1.91-3,10.69,10.69,0,0,1,3.87-.44,24,24,0,0,0,4.56-.55,6.8,6.8,0,0,0,3-1.24,5.43,5.43,0,0,0,1.66-4.63,16,16,0,0,0-1.48-4.87l-1.67-3.5a10.88,10.88,0,0,1,10.82-17.91c1.79.49,4,1.3,5.23-.11a4.58,4.58,0,0,0,.73-2.54c1-9.06,9.64-16.61,18.75-16.32,1.85.06,3.73.4,5.52-.06a20,20,0,0,0,3.07-1.25,16.66,16.66,0,0,1,20.44,7.08c2,3.62,2.55,8,5,11.27a23.71,23.71,0,0,0,5.54,4.87q6.29,4.42,12.55,8.87l5.6,4c3,2.34,6,4.78,7.7,8.13,1.81,3.56,1.92,7.71,2.72,11.63s2.7,8.07,6.44,9.49c2.05.78,4.31.6,6.5.63a31.45,31.45,0,0,1,14.68,4l2.87,4.24a65.1,65.1,0,0,1,1.89,15.73l1.47,5.29c-1,2.62-2.88,4.86-3.47,7.59-1.3,6.07,4.33,12.42,2.06,18.21l4.56,6.36a11.94,11.94,0,0,0-.76,13.49,30.13,30.13,0,0,0,4.61,5c6.89,6.78,11.94,16.14,11.12,25.77l-.51,5.61c-.5,6.31-9.33,9-10.65,15.22a13.6,13.6,0,0,1-.61,2.86,2.1,2.1,0,0,1-2.29,1.38c-1.68-.49-2-3.7-3.67-3.3-1.57,3.21-.22,7,.82,10.4s1.5,7.67-1.17,10c-1.44,1.27-3.44,1.63-5.14,2.52s-3.21,2.87-2.4,4.61l0,2.46a11.22,11.22,0,0,1-6.83,13.31,10.33,10.33,0,0,0-3.54,1.49c-1.94,1.65-1.54,4.76-2.71,7a10.9,10.9,0,0,1-3.4,3.46l-11,8.22a11.75,11.75,0,0,1-5,2.62c-2.63.41-5.21-1-7.87-1-3.14,0-6.17,1.92-9.26,1.36-4-.72-6.1-5.11-7.21-9s-2.21-8.38-5.74-10.4c2.17,9.12-5.4,17.76-5.93,27.12l-.41,1.85a12.14,12.14,0,0,1,8.34,5,2.73,2.73,0,0,0,1.06,1.07,3.18,3.18,0,0,0,1.78,0,10.08,10.08,0,0,1,5.79,1.24,22.73,22.73,0,0,1,8,5.65A11.4,11.4,0,0,1,1428,1623a5.06,5.06,0,0,1,1.73,4.63l2.64,2.11a24.32,24.32,0,0,1,3.55,21.47,45,45,0,0,0-1.91,6.07c-.74,4.5,1.12,9.6-1.39,13.41a6,6,0,0,0-1.35,2.52c-.1,1,.54,2,.48,3-.1,1.55-1.72,2.5-2.51,3.84-1.82,3.13,1.14,7.82-1.31,10.48-.83.9-2.11,1.31-2.87,2.26-1,1.2-.86,3-1.75,4.21-1.43,2-4.41,1.67-6.86,1.71a15.44,15.44,0,0,0-12.4,6.89c7.94-1.93,17.36-3.53,23.4,2l1.75,2.75a8.72,8.72,0,0,1,.66,8.79,7.33,7.33,0,0,0-.78,1.8,5.13,5.13,0,0,0,.66,2.86,56.81,56.81,0,0,1,4.77,24.62c-.08,2.66-.43,5.51-2.19,7.51-1.2,1.37-3,2.2-4.1,3.63a11.75,11.75,0,0,0-1.88,4.7l-2.27,9.43a24,24,0,0,1-2.08,6.15c-1.7,3-4.63,5.19-6.68,8a16.77,16.77,0,0,0-2.37,14.84l-.6,7.66a164.94,164.94,0,0,0-2,25.5l-6.1-5.32c-10.72,1.87-20.64-5.24-30.39-10.08a37.07,37.07,0,0,1-6.85-3.85c-3.38-2.68-5.71-6.83-9.73-8.38-4.47-1.72-9.43.35-13.73,2.46-2.6,1.27-5.29,2.64-7,5-3.89,5.11-2.07,13.18-6.38,17.93a66.06,66.06,0,0,1,14.67,11.19l-4.52,5a219.24,219.24,0,0,1-58.42,21c.25,1.91.49,3.81.74,5.71a163.71,163.71,0,0,1,75.71,8c7.24,2.57,14.28,5.66,21.46,8.39,12.84,4.88,26.14,8.66,38.46,14.74,17.42,8.6,32.29,21.5,46.94,34.26l6.9,3,0,5.34a12.85,12.85,0,0,0,13.67,15.67l5.09,4.38c7.36,7.6,14.82,15.33,19.79,24.66a113.65,113.65,0,0,1,6.7,16.64q2.4,7,4.82,14.07a4.9,4.9,0,0,0,2,3,4.84,4.84,0,0,0,2.24.33l7-.08,10.17,3.39a212,212,0,0,1,102.6,20c7.35,3.48,14.66,7.45,22.69,8.7a5.39,5.39,0,0,0,3.49-.3,5.75,5.75,0,0,0,2-2.43q6.31-11.53,12.61-23.08c9-16.52,18.74-33.78,34.79-43.59l4.75-6.51,29.07,2.74c3.35.31,7,.78,9.3,3.26,1.68,1.84,2.23,4.42,2.72,6.86,2.09,10.43,3.81,22.43-2.91,30.66a44.22,44.22,0,0,0,20.78-29c1-4.86,1.47-10.44,5.38-13.48a8.42,8.42,0,0,1,13.59,7c1.12-6.13,7.69-10.08,12.65-14.27l30.36-7.27a154.42,154.42,0,0,1,117.93,35c13.53,11.49,25.29,25.52,41.1,33.59,8.27,4.22,17.34,6.64,25.72,10.62,19.77,9.4,34.53,27,45.92,45.65,25.74,42.22,37.1,91.73,42.28,140.91s4.57,98.78,8.41,148.08l1.65,21.11c-14.7,33.39-8,71.73-3.37,107.91A830.34,830.34,0,0,1,2131.53,2677.3ZM978.5,1466.79c3.14-1.37,6.9-2.76,7.85-6l-.12-6c-2.33-4.79-7.72-7.12-12.67-9.06l-36.15-14.19-1.14,6.89q8.91,21.12,19.67,41.37l4.71,3.26A38,38,0,0,1,978.5,1466.79Zm51.43,57.48-1.85-3.5a51,51,0,0,1-17.74-18.91l3.17-5.15-11-14.76a8.52,8.52,0,0,0-3-2.87,7.75,7.75,0,0,0-5.12,0,38.55,38.55,0,0,0-13.76,6.61c-4.1,3.11-7.77,7.6-7.6,12.74a4.84,4.84,0,0,0,.59,2.34c1.38,2.23,4.65,1.84,7.25,1.51,6.87-.88,14.39,1,19,6.14s5.31,13.9.5,18.89l7.77,8.22A49.86,49.86,0,0,1,1029.93,1524.27ZM1091.78,977a10.73,10.73,0,0,0-1.68-5.74,13.23,13.23,0,0,0-4-3.23c-4-2.41-8-4.85-12.41-6.21s-9.41-1.54-13.57.49l-14.73-1.4c7.49,6,8.48,18.46,2,25.52a3.18,3.18,0,0,0-.94,1.48,2.85,2.85,0,0,0,.53,1.84,246.38,246.38,0,0,0,13.06,21c2.59,3.74,6.62,7.87,10.92,6.38,2-.67,3.33-2.39,4.6-4C1083.87,1002.41,1092.58,990.45,1091.78,977Zm45.78,36.38a46.28,46.28,0,0,0-7-17.22,13.24,13.24,0,0,0-4.22-4.39,15.4,15.4,0,0,0-6.52-1.47l-13.42-1a2.77,2.77,0,0,0-1.4.15,2.73,2.73,0,0,0-1.08,1.92,73,73,0,0,1-13.68,28.13c-3.3,4.18-7.33,8.87-6.3,14.1.51,2.57,2.2,4.73,3.91,6.72a114.05,114.05,0,0,0,35.4,27.65l5.72-6.45C1134.73,1046,1140.55,1029.6,1137.56,1013.36ZM544.32,2142.88a3.11,3.11,0,0,0,.07,2c.28.52.86.77,1.3,1.16,1,.88,1.12,2.35,1.18,3.67l.75,14.76,1.12-1.2q8.63-15.08,16.23-30.7a7.93,7.93,0,0,1-6.4-5.05,14.89,14.89,0,0,1-.5-8.45,10.64,10.64,0,0,0-9.55,2.36c-3.06,2.76-5.07,7.6-9.18,7.68a5.41,5.41,0,0,1-1.07,5.49A7.7,7.7,0,0,1,544.32,2142.88Z"></path>
    <path data-name="3a" data-official="" data-plain="Calyx and Pistil" data-loc="" d="M845.42,2837.76c1-14.53-1.19-29.07-3.67-43.43-2.72-15.77-6.28-32.38-17.22-44.06-8.89-9.48-22.76-16.2-24.79-29-1.54-9.73,5.41-19.6,14.67-23s20-.93,28,4.73,13.72,14.19,17.69,23.2c3.6,8.19,7,18,15.42,20.94,3.35,1.17,7,1,10.48,1.78,7.14,1.57,12.82,6.83,18.12,11.87,7,6.67,14.24,13.69,17.44,22.81,3,8.64,2,18.27-.89,26.95-1.5,4.45-3.53,9.07-2.53,13.66.72,3.31,2.93,6.07,4.94,8.81,8.61,11.76,14.65,26,13.68,40.58s-10.13,29-24,33.36c-8.26,2.58-18,1.8-24.56,7.49-3.13,2.74-5.06,6.66-8.24,9.33-3.39,2.86-7.86,4-12.16,5.11-4.64,1.17-9.43,2.35-14.16,1.6-9.14-1.43-15.8-9.57-24.57-12.5-6.69-2.23-14-1.24-21-1.45s-14.86-2.2-18.55-8.21c-2.29-3.73-2.55-8.36-2.17-12.73,1-12,7.66-24.5,19.1-28.25,7.35-2.41,15.41-.9,23-2.21s15.7-7.73,13.95-15.26Z"></path>
    <path data-name="3b" data-official="" data-plain="Stamens and Pistil" data-loc="" d="M969.4,2845.55a99.7,99.7,0,0,1,9.44-49.51c.82-1.74,1.72-3.59,1.42-5.48-.75-4.71-7.18-5.17-11.54-7.09-7.57-3.34-9.87-13.88-6.25-21.32S974,2750.18,982,2748c4-1.09,8.38-1.77,11.73-4.29,4.46-3.35,6.18-9.26,6.54-14.82.62-9.56-2-19.22-.36-28.66s9-17.06,18.29-14.75c5.56,1.39,9.44,6.69,10.85,12.24a39.82,39.82,0,0,1,1.32,15.08q-1.08,12-1.65,23.94c-.12,2.51,0,5.45,2,6.94,3.32,2.44,7.54-1.33,10.3-4.39,4.27-4.72,9.71-8.59,15.93-9.93s13.23.19,17.59,4.82c5.71,6,5.67,15.6,3.21,23.54s-6.89,15.17-9,23.2c-3.06,11.48-1.21,23.67-2.59,35.48-1.29,11-5.41,22-3.85,33,1.4,9.91,7.27,18.7,9.1,28.54,2.4,13-2.45,26.13-8.24,38s-12.73,23.44-14.93,36.44c-.59,3.49-.84,7.11-2.25,10.36-2.86,6.6-9.83,10.38-16.65,12.64-15.22,5.05-31.6,4.89-47.64,4.67-2.56,0-5.24-.1-7.47-1.35-3.77-2.12-5.07-6.92-5.22-11.24s.49-8.77-.87-12.87c-2.55-7.64-11.06-11.55-15.45-18.3-6-9.17-3.2-21.25-.23-31.78L966,2856.2Z"></path>
    <path data-name="4" data-official="Jacaranda mimosifolia" data-plain="Mimosa-leaved Jacaranda" data-loc="Brazil" d="M1418.51,305.42c-2.17,1.75-1.33,5.33-2.78,7.71-1.87,3.08-6.36,2.76-9.9,2.11-22.18-4.07-45.31-5.83-67,.11l-6.8,5.2A41,41,0,0,0,1313.43,359l.44,3.7c4.26.12,8.13-4.52,12.13-3,1.39.52,2.41,1.72,3.68,2.51,1.79,1.13,4.06,1.45,5.66,2.84,2.15,1.85,2.47,5,3.58,7.61,2.11,5,7.15,8,11.91,10.65a443.42,443.42,0,0,0,43.66,20.89c4.84,2,9.82,4,13.77,7.43,5,4.37,7.84,10.66,10.54,16.74l2.8,8.26a506.24,506.24,0,0,1-2.75,65.26l1.25,5.79,6.35,9.93a15.3,15.3,0,0,1,1.93,3.72,18,18,0,0,1,.26,6.39,56.6,56.6,0,0,0,.9,13.87l-2.32,6.4c-1.38,7.56.54,15.34,3.3,22.5m257.36,44.6-.49,6.05q0,6.15-.08,12.31c0,3.24-.2,6.86-2.55,9.08l-3.13,2.23c-12.72,7.1-20,21-25.11,34.61l-.47.39q-6.67-14.7-13.33-29.41c1.09,4.39-.79,9-3.35,12.71s-5.83,7-8,10.9-3.26,8.28-4.31,12.61c-4.72-5.46-12.83-6.55-18.39-11.13-4.88-4-7.27-10.24-9.45-16.17-1.4,7.46,1.4,15,3.45,22.3,4,14.25,5.3,29.11,6.57,43.87a14.56,14.56,0,0,1-.19,5.35c-1,3.6-4.58,5.81-7.84,7.67L1599,755a8.75,8.75,0,0,1-4.37,8.56c-2.43,1.32-5.33,1.39-8.1,1.26a71.72,71.72,0,0,1-11.22-1.42l-6.53.8a83.75,83.75,0,0,0-19.65,16.28,10.35,10.35,0,0,1-2.69,2.43,18.67,18.67,0,0,1-3.66,1.1c-4.66,1.4-7.61,5.86-10.16,10l-2.11.61q2.43-15.43,5.06-30.84c.46-2.71,1-5.53,2.61-7.73,1.37-1.86,3.4-3.09,5-4.71s2.94-4,2.23-6.17c-1.15-2-4.56,1.85-6.26.32a2.6,2.6,0,0,1-.56-2.1,87.15,87.15,0,0,1,10.69-38.81l.36-4a4.3,4.3,0,0,1-2.68-4.19,12.88,12.88,0,0,1,1.46-5.09c2.4-5.33,5.07-11,10.09-14,3.65-2.18,8.19-2.69,11.59-5.25,1.81-1.37,3.21-4,1.79-5.81a5,5,0,0,0-3.26-1.42c-11.55-1.82-23.35.08-34.77,2.57l1.21-7.65q3-38.68,3.19-77.53a19.24,19.24,0,0,1-17.75,5.09A40.15,40.15,0,0,0,1534,573.92a3.14,3.14,0,0,0,.62-2.78c-.47-1-1.82-1.27-2.92-1.6a7.84,7.84,0,0,1,2.45-15.34c2.27.06,4.5,1.1,6.73.68s3.92-3.66,2-4.89l-2.77-6.5-6.47-3a2,2,0,0,1-1.3-2.83c.42-2.21.94-4.61,2.67-6.05,1.47-1.22,3.49-1.48,5.34-2s3.82-1.57,4.25-3.44-1.16-4-3.09-4.68a12.87,12.87,0,0,0-6.08-.11l.47-9.55c.07-1.39.28-3,1.52-3.7,1.53-.82,3.72.46,5.07-.65,1-.85.79-2.46.59-3.79a18,18,0,0,1,2.24-11.61,2.43,2.43,0,0,1,1.11-1.13c1-.37,1.93.53,2.81,1.09s2.53.41,2.45-.63l1.63-3.88c1.23-1.68.6-4.07-.41-5.9s-2.39-3.56-2.57-5.64a10.33,10.33,0,0,1,1.42-5.22c6.17-12.85,14.19-26,27.16-31.86,4.18-1.91,10-2.56,12.59,1.22a10,10,0,0,1,1.37,5.47c.15,5.22-.48,11.31,3.41,14.79,2.56,2.28,6.33,2.59,9.72,2.12s6.69-1.6,10.11-1.79c7.49-.39,14.46,3.81,20.2,8.63a82.49,82.49,0,0,1,16.88,19.43l3,8.45a78.76,78.76,0,0,0,11.52,18,47.6,47.6,0,0,1,3.93,4.92,34.63,34.63,0,0,1,3.88,9.95c1.07,4,2.09,8,3,12l-1.61,6c.6,4.74,1.24,9.64,3.66,13.77,1.06,1.81,2.43,3.43,3.44,5.27,2.46,4.49,2.5,9.87,2.49,15l-3.55,6.1a13.74,13.74,0,0,0,.9,5.74,27.75,27.75,0,0,0,2,3.15C1689.33,602.21,1688.66,608.93,1687.88,615.06ZM559.06,1394.43q13.68-14.22,28.28-27.54a20.21,20.21,0,0,1-16.54.2c-.53,1.23-2.38.88-3.55.22-5.74-3.22-9.73-8.77-13.53-14.14q-2.51-3.54-5-7.09l8.66,44.85Zm859.45-1089-9-2.71a38.94,38.94,0,0,1-21.84-13.2c-.93-1.13-1.94-2.41-3.39-2.6s-2.84.81-4,1.71a52.09,52.09,0,0,1-38,9.91c-8.8-1.2-18.33-4.54-26.07-.19-10.82,6.08-12.19,24.3-24.33,26.91l-4.55,2.4-11.22,2.42a7.76,7.76,0,0,0-3.17,1.19c-4,3.09.19,11.3-4.18,13.84-1.81,1-4.22.29-5.7-1.19a14.41,14.41,0,0,1-3-5.46,46.74,46.74,0,0,1-36.79,6,295.46,295.46,0,0,0-5.8,31.07l3,4.68,1.23,18.55a5.74,5.74,0,0,0,.48,2.32c.67,1.31,2.2,1.91,3.6,2.39l32,11.1c5.19,1.8,10.45,3.62,15.93,4l8.33,5,11.75,5.62c2.52,1.21,5.14,2.45,8,2.55,2.33.08,4.64-.64,7-.58,4.22.1,7.93,2.68,11.92,4.06,3,1,6.26,1.4,9.31,2.36s6.09,2.71,7.49,5.59a43.78,43.78,0,0,1,14.71-.46l5,1.39a14.29,14.29,0,0,1,4.2,9,13.72,13.72,0,0,1,11.24,2.67c2.3,1.83,4.11,4.48,6.92,5.35,1.12.35,2.32.38,3.41.81,2.69,1.07,3.89,4.26,4.1,7.15s-.24,5.87.53,8.67c1,3.64,4.06,7.11,2.88,10.69a15.67,15.67,0,0,1-1.79,3.16,13.32,13.32,0,0,0-.64,12.43l.13,1.28c-.33,1.69-2.28,2.44-3.4,3.75-1.86,2.16-1.18,5.41-1.17,8.26l-2.49,3.31c-4.49.44-9,.68-13.53.71l-3.68,1a52.81,52.81,0,0,1,7,15.67,13,13,0,0,1,8.45.66c3.57,1.71,5.83,5.43,6.74,9.28s.67,7.86.41,11.81c3.55-1.32,7.93,1.75,7.92,5.53l4.47-.49a28,28,0,0,1,21.63-.66l10.06,6.38M1268,298.87c.92-1,2.65.27,2.69,1.59s-.82,2.48-1.42,3.67c-2.15,4.23-1,9.32.29,13.91,1.47-1,3.12.94,4.75,1.68,2.17,1,4.67-.36,6.57-1.82,7.8-6,13.28-14.44,18.6-22.71,2-3.05,4-6.82,2.42-10.09-1.17-2.44-3.94-3.6-6.47-4.56-3.77-1.42-7.74-2.86-11.71-2.26-7.06,1.07-11.51,8-15,14.17Zm-47.6,17.5a27.69,27.69,0,0,0,2.78,10.95A17,17,0,0,0,1255,316.61l-1-5.61c.8-4.56-1.44-9.18-4.56-12.61s-7.06-6-10.63-8.9A57.39,57.39,0,0,1,1225,272.76l-1.45,1.39c.76,9.67-2.09,19.22-3,28.88A73.38,73.38,0,0,0,1220.4,316.37Zm-155-27.55c1.73,5.33,8.34,7.07,13.93,7.38a78.49,78.49,0,0,0,24.13-2.46l5.69-2.84A86.6,86.6,0,0,0,1129,279.83a37.12,37.12,0,0,1-6.44-11.11,5.21,5.21,0,0,0-1.34-2.37,4.66,4.66,0,0,0-3.19-.69c-17,.58-33,8.22-48.27,15.71-1.64.8-3.39,1.71-4.21,3.34A5.51,5.51,0,0,0,1065.42,288.82Zm-86.92,1178c3.14-1.37,6.9-2.76,7.85-6l-.12-6c-2.33-4.79-7.72-7.12-12.67-9.06l-36.15-14.19-1.14,6.89q8.91,21.12,19.67,41.37l4.71,3.26A38,38,0,0,1,978.5,1466.79Zm51.43,57.48-1.85-3.5a51,51,0,0,1-17.74-18.91l3.17-5.15-11-14.76a8.52,8.52,0,0,0-3-2.87,7.75,7.75,0,0,0-5.12,0,38.55,38.55,0,0,0-13.76,6.61c-4.1,3.11-7.77,7.6-7.6,12.74a4.84,4.84,0,0,0,.59,2.34c1.38,2.23,4.65,1.84,7.25,1.51,6.87-.88,14.39,1,19,6.14s5.31,13.9.5,18.89l7.77,8.22A49.86,49.86,0,0,1,1029.93,1524.27ZM1091.78,977a10.73,10.73,0,0,0-1.68-5.74,13.23,13.23,0,0,0-4-3.23c-4-2.41-8-4.85-12.41-6.21s-9.41-1.54-13.57.49l-14.73-1.4c7.49,6,8.48,18.46,2,25.52a3.18,3.18,0,0,0-.94,1.48,2.85,2.85,0,0,0,.53,1.84,246.38,246.38,0,0,0,13.06,21c2.59,3.74,6.62,7.87,10.92,6.38,2-.67,3.33-2.39,4.6-4C1083.87,1002.41,1092.58,990.45,1091.78,977Zm45.78,36.38a46.28,46.28,0,0,0-7-17.22,13.24,13.24,0,0,0-4.22-4.39,15.4,15.4,0,0,0-6.52-1.47l-13.42-1a2.77,2.77,0,0,0-1.4.15,2.73,2.73,0,0,0-1.08,1.92,73,73,0,0,1-13.68,28.13c-3.3,4.18-7.33,8.87-6.3,14.1.51,2.57,2.2,4.73,3.91,6.72a114.05,114.05,0,0,0,35.4,27.65l5.72-6.45C1134.73,1046,1140.55,1029.6,1137.56,1013.36Zm410.13,913.42c8.5,10.11,17.26,20.43,28.78,26.88,6.76,3.78,14.85,6.62,18.42,13.49,2.31,4.42,2.21,9.68,1.77,14.65-.63,7.17-2.42,15.17-8.55,19-5.26,3.24-12,2.28-18.09,3.19a29.37,29.37,0,0,0-23.62,21.59l-3,6.69-10.17-3.39-7,.08a4.84,4.84,0,0,1-2.24-.33,4.9,4.9,0,0,1-2-3q-2.41-7-4.82-14.07a113.65,113.65,0,0,0-6.7-16.64c-5-9.33-12.43-17.06-19.79-24.66l-5.09-4.38,1.44-6c3.1-3.24-2.41-8.93-.22-12.84a7.6,7.6,0,0,1,2.87-2.51,127.15,127.15,0,0,0,20.37-15.55,34.75,34.75,0,0,0,5.32,6.35l6.6-9a5,5,0,0,1,2-1.85c1.79-.73,3.67.75,5.57,1.14s3.89-.37,5.7-1.16Zm-63.41-44.91a13.59,13.59,0,0,0,2.9,8.75c1.76,2.21,4.29,4,5,6.74.84,3.14-1,6.3-2.67,9.11a104.8,104.8,0,0,0-10.16,23.52,19.74,19.74,0,0,1-2.43,6c-2,2.88-6,5.4-5,8.79l-6.9-3c-14.65-12.76-29.52-25.66-46.94-34.26l-6.74-9.55c-9.53-2.25-17.78-8-25.77-13.68l-42-29.74-3.42-4.87,4.52-5a66.06,66.06,0,0,0-14.67-11.19c4.31-4.75,2.49-12.82,6.38-17.93,1.76-2.31,4.45-3.68,7-5,4.3-2.11,9.26-4.18,13.73-2.46,4,1.55,6.35,5.7,9.73,8.38a37.07,37.07,0,0,0,6.85,3.85c9.75,4.84,19.67,12,30.39,10.08l6.1,5.32a10.22,10.22,0,0,0,1,5.32,10.56,10.56,0,0,0,3.81,3.29l10.29,6.33a11.41,11.41,0,0,0,4,1.8c2.76.45,5.49-1.21,7.23-3.4l7.94,1.26a229.42,229.42,0,0,0,31.17,23ZM881.85,1328.72l7-11.53q10.07-5.2,20.15-10.38a31.85,31.85,0,0,1,7.35-3,10.7,10.7,0,0,1,7.73.85l3.58,5.31c4.59,11.67,9.34,23.61,17.75,32.91l.79,6a80.88,80.88,0,0,0,16,26.66l1.46,15.57,13.36,33.58.86,7.06-4.64.53c-1.36.66-3,.14-4.38-.41a199.6,199.6,0,0,1-40.44-21.14L913,1401.45l-1.74-6.92a239.66,239.66,0,0,0-26.39-45.9ZM160.73,529c-6.95-16.06-28.44-19-41.51-30.64-16-14.24-16.72-39.32-10.64-59.84,5.58-18.85,15.9-37.79,11.74-57-5-23.21-29.59-37.93-35.92-60.81-5.29-19.11,3.55-39.56,16.11-54.9,35.85-43.81,104.87-55.94,153.51-27,7.48,4.45,14.52,9.75,22.53,13.18,34.74,14.89,73.52-9,111.32-9.28,34.6-.29,65.81,19.09,95.89,36.17s64.47,32.94,98.13,25c7.22-1.71,14.14-4.48,21.24-6.65,40.92-12.51,86.79-3.88,123,18.86,18.48,11.6,35.07,26.81,55.66,34.05l23.72-1.79c.59,9.83,3,20.06,9.6,27.34a55.91,55.91,0,0,0,9.83,7.95l15,10.39c3.82,2.64,7.87,5.36,12.49,5.77,3.31.29,6.6-.65,9.91-1,11.91-1.19,23.17,5.43,35.06,6.8,11,1.26,22.26-2.15,31.55-8.2,2.46-1.6,4.9-3.43,7.77-4a10.36,10.36,0,0,1,11.77,7.39l8.66,2.69a128.82,128.82,0,0,0,14,1.56,65.11,65.11,0,0,0,41.2-12.88l2.07-4c1.06-1.35.67-3.27.66-5a10,10,0,0,1,1.53-5.33c1.67-2.66,4.6-4.54,5.58-7.53l.31-4.44c3.6.67,8,1.08,10.29-1.77a9.17,9.17,0,0,0,1.47-3,50.51,50.51,0,0,0,2.57-16.94,11.64,11.64,0,0,0,7.82,2.34,176.14,176.14,0,0,0,22.71,43c.91,1.27,2,2.63,3.54,2.91a7.25,7.25,0,0,0,3.47-.6,22.44,22.44,0,0,1,11.89-.43,7.6,7.6,0,0,0,4.38,6.31l3.37-1.49c4.28-.81,8.7-1.72,12.25-4.25,2.17-1.54,3.9-3.62,5.88-5.4s4.36-3.33,7-3.45l8.3-7.27c3.39-7.5,3.55-16.1,2.32-24.23s-3.8-16-5.69-24a19.43,19.43,0,0,1-.7-7.56c.4-2.52,1.94-5,4.35-5.84a17.29,17.29,0,0,1,4.78-.43,14.5,14.5,0,0,0,8.85-3.69c1.47-1.33,2.83-3.06,4.78-3.4,2.52-.43,4.71,1.58,6.57,3.32a55.79,55.79,0,0,0,23.89,13.09l-2.35,6.08c5.48,1.39,11.22-.31,16.88-.57a33.4,33.4,0,0,1,9.6,1c1.35.34,2.81.88,3.46,2.11a4.66,4.66,0,0,1,.45,1.68,26.35,26.35,0,0,1-4.24,18l-5,10.92a201.42,201.42,0,0,0-1.33,31.35c.15,4.38,0,9.64-3.7,12a12.32,12.32,0,0,1-5,1.4l-10.73,1.41-4.83,3.52a97.21,97.21,0,0,0-36.35,14.89,8.77,8.77,0,0,0-3.1,3,15.9,15.9,0,0,0-1,3.82,10.56,10.56,0,0,1-3.93,5.95c-3.88,2.89-9.15,2.76-14,2.57-8.35-.32-16.81-.41-24.93,1.54s-16,6.18-20.78,13l-1.06,2.18.13.08a93.65,93.65,0,0,1-8.47-5.57c-6.69-5.38-11-13.61-18.63-17.62-7.42-3.91-16.36-3-24.66-1.78-8.83,1.26-17.69,2.69-26.08,5.7s-16.37,7.69-22,14.56c-.65.79-1.4,1.68-2.42,1.73a3.79,3.79,0,0,1-2-.71,29.22,29.22,0,0,0-22-2.71L929.73,456a12.12,12.12,0,0,0-10.16,4c-1.22,1.4-2.18,3.13-3.83,4s-3.83.62-5.35,1.73c-1.87,1.36-2,4.16-3.68,5.8-2.77,2.81-7.54.76-11.39,1.6-2.84.62-5.12,2.84-8,3.49s-6.38-.37-8.85,1.37l-1.88,1.37c-1,4.06-2.17,8.27-4.86,11.49-2.83,3.4-7.12,5.32-10,8.7-4.67,5.51-4.6,13.62-8,20-2.35,4.35-6.25,7.68-8.75,11.94-4.18,7.13-4,15.92-3.63,24.18.38,9.43,1.37,20.1,8.8,25.92l.15,1.59c-10.61-.54-21.43.82-31.22,4.94s-18.53,11.12-23.84,20.32c-1.65,2.85-3,5.9-4.92,8.55-1.05,1.42-2.26,2.71-3.24,4.17-2,3-2.9,6.6-3.64,10.14a158.15,158.15,0,0,0-3.27,26.91,31.85,31.85,0,0,1-.87,7.86c-1.23,4.18-4.28,7.63-5.54,11.79l0,6.8a27.85,27.85,0,0,0,7.45,9,32.1,32.1,0,0,1,3.72,3c1.9,2,2.84,4.77,3.86,7.36a83.13,83.13,0,0,0,6.41,12.84,14.14,14.14,0,0,0,3.42,4.14,5.36,5.36,0,0,0,5.09.9l.55,1.34a24.44,24.44,0,0,0,5.65,12.42c2.57,3,5.92,5.43,7.48,9,1.88,4.35.72,9.35-.37,14-3.5,14.93-5.91,30.27-4.82,45.57l1.64,7.41c2.64,4.75,7.5,7.94,12.65,9.68s10.62,2.18,16,2.61l25,2c5.82.47,11.7,1,17.25,2.75s10.83,5.09,13.9,10.06l7.16-1.5c2.88.27,6.19.82,7.65,3.32a10.66,10.66,0,0,1,1,2.89c2,8.15,6.83,15.26,11.59,22.16,3.76,5.45,7.57,11,12.52,15.35a82.67,82.67,0,0,0,13.11,8.91c12.46,7.34,25,14.71,38.45,20a26.65,26.65,0,0,1,7.06,3.52c2.06,1.65,3.61,4.21,3.28,6.83l7.58,1.48,2.35,6.7c5.55,12.11,11.12,24.27,14.82,37.06,2.37,8.15,4,16.54,6.9,24.5,6.61,17.87,19.59,32.55,32.58,46.48,16.6,17.8,34,35.38,55.36,47.08l.3,1.65a24.53,24.53,0,0,0-12.88,18.16,32.14,32.14,0,0,0,11.25,3,93.62,93.62,0,0,1-20.26,15c-10.88,6-24.55,9.66-35.48,3.78-2.19-1.18-4.18-2.7-6.41-3.82a36.7,36.7,0,0,0-9.45-2.83c-9.3-1.83-18.88-3.13-28.25-1.64-8.91,1.42-17.24,5.33-25,9.92-5.73,3.4-11.32,7.3-15.34,12.6l-5.92-3.3-30.08,2.4c-1.88.15-3.85.33-5.39,1.41-1.91,1.34-2.72,3.74-3.29,6a69.52,69.52,0,0,0-1.88,10.91l-3.9,5.17c-2.33-1.19-5.3.07-6.88,2.15s-2.11,4.73-2.59,7.29c-6.26,33.57-10.83,68-6.33,101.81l-.47,2.37q-17.49,7.82-35.15,15.22l-6.45-.51a16.64,16.64,0,0,0-7.15.62l-4.86,1.77c-9.2,5.31-18.41,10.62-28.07,15-6.11,2.79-12.39,5.22-18.46,8.09-4.84,2.29-9.53,4.86-14.23,7.43l-44.3,24.23-4.34,4.7a27.71,27.71,0,0,1-11.45,13c-3.31,1.94-7.17,3.29-9.5,6.33-2,2.58-2.54,6-2.63,9.23s.19,6.53-.37,9.73-2.18,6.44-5.06,7.94-7.11.53-8.27-2.51a13.74,13.74,0,0,1-6.34.92,14.2,14.2,0,0,1-8,17l-.56.53c-2.18,8.53-9.81,14.53-17.58,18.7a90.66,90.66,0,0,1-54.41,9.88L609.3,1453.3l-7.81,2.1a20,20,0,0,0-10.77-4.44c.44,4.44.83,9.18-1.23,13.13a15.09,15.09,0,0,1-6,5.93c-4.63,2.64-10.06,3.43-15.37,4q.81,5.38,1.61,10.77L558,1481.55c-7.47-3.32-16.28-2.44-23.76-5.72-10-4.39-15.48-15.06-20.15-24.95l-4.65-9.82-9.58-1.65L496,1428.83c-2.78-3.81-5.77-7.8-10.12-9.63-4.91-2.07-10.72-1-15.59-3.19-7.56-3.36-10.52-13.31-18.13-16.54l-3.05-4.38-15.87-16.19-.36-13.86a3.69,3.69,0,0,0-.64-2.43,3.83,3.83,0,0,0-2.26-1,61.05,61.05,0,0,1-43.19-33.51l-10.81-14,8.15-7.14a15.74,15.74,0,0,0,2.61-7.91c.1-1.88-.12-3.84.61-5.57,1.31-3.07,5-4.19,8.27-4.94a15.18,15.18,0,0,1-5.2-1.43,5.17,5.17,0,0,1-2.87-4.3,4.38,4.38,0,0,0-.1-2,2.19,2.19,0,0,0-2.3-.94c-.87.11-1.71.48-2.59.53-4.21.23-6.56-6.4-10.73-5.81l-10.15-5.77L346,1258.22c-7.57-14.42-29.31-10.56-43.66-2.84s-32,17.27-45.56,8.2c-14.4-9.66-10.84-31.16-13.7-48.26-3.46-20.7-19.77-38.69-40-44.16-18.61-5-39.86-.38-56.51-10.12-17.24-10.09-23.29-32.15-24.05-52.12-.41-10.93.22-22.22-3.71-32.42-6.9-17.9-25.66-27.71-39.41-41.09-28.63-27.87-35-71.06-36.84-111-2.46-54.25,3.6-115.17,44.56-150.83,13.75-12,31.75-21.72,36.69-39.27,4.48-15.86-3.5-32.18-8.2-48-12.26-41.28-.62-88.78,29.34-119.71ZM1179.51,218.77c-1.23,6.83-.63,13.85,0,20.76l1.6,7c2.12,2.47,5.54,3.45,7.87,5.73a19.19,19.19,0,0,1,3.46,5.42c2.43,4.94,5.29,10.2,10.31,12.45a24.53,24.53,0,0,0,8,1.59l.21,7.76c-3.81,10.35-1.54,21.92-3.59,32.76a6.08,6.08,0,0,1-1.42,3.32,2.32,2.32,0,0,1-3.26.15l-6.2,2.44a62,62,0,0,1-38.79-17c-8.37-8.06-14.57-19.42-13.12-30.94l-2.32-4.95c-3.89-11-6.5-22.85-4.44-34.34,1.65-9.19,6.24-18.35,4.09-27.44L1149,207a163.6,163.6,0,0,1,22.12,8Zm404.63,69.61a13.75,13.75,0,0,1-4.17-1.3l-30.7-13.29-13.53-.58a30.72,30.72,0,0,1-15.71,2.14c-9.75-1.25-19.69-7.13-28.77-3.38-2,.82-3.79,2.08-5.72,3.06a22.79,22.79,0,0,1-8.39,2.35h-.2l2.41-3.27c4.63-6.18,3-15.37-1.78-21.47s-11.81-9.84-18.67-13.39l-9.2-4.76c-3.63-1.88-7.4-3.79-11.47-4.06,5.93-5.91,15.39-5.61,23.76-5.78a122.22,122.22,0,0,0,22.88-2.64,14,14,0,0,0,5-1.81c2.79-1.89,4-5.37,4.92-8.59,1.8-6,3.58-12.43,1.66-18.38l-.11-4.45a22.51,22.51,0,0,0-11-8.32,24.34,24.34,0,0,0-5.56-19.36c-3.42-3.94-8.09-6.73-11.13-11l-1.12-4,4.61-13.22c10.77-9.91,11.3-27.65,22.16-37.47,10-9,25.22-8.37,38.31-5.41C1549,93.75,1566,101.28,1574.19,116c7.27,13,6.32,28.77,5.69,43.62a638.34,638.34,0,0,0,5.63,116.25Zm515.35-1.68c14.28,8.09,19.3,26.22,20.28,42.6s-.58,33.49,5.85,48.59c4.2,9.86,11.52,18.07,16.32,27.65,9.89,19.78,7.93,44.12-1.66,64.06s-26.05,35.88-44.2,48.51L2080.73,528c-4.57-5.49-12.29-6.82-19.29-8.24s-14.75-4-17.74-10.49c-1.1-2.38-1.46-5.15-3.11-7.18s-4.51-3-7.13-3.79l-6.72-1.2a29.55,29.55,0,0,0-11.76,3.09,1.29,1.29,0,0,1-.53.18c-.42,0-.75-.34-1-.67-1.59-2-3.33-4.09-5.67-5.21a18.32,18.32,0,0,0-6.45-1.35l-14-1.18-4.15-3.75-20-.79c-3-.12-6-.25-8.73-1.46-2.52-1.13-4.55-3.09-6.65-4.89a63.84,63.84,0,0,0-29.51-14.16l-7.42,2.82c-3.56,4.32-7.49,8.88-12.91,10.3-4.38,1.15-9.13.05-13.51,1.22-6.54,1.75-10.9,8.15-17.26,10.49-4.19,1.54-9.08,1.25-12.77,3.77-3,2-4.58,5.51-6.72,8.42-4.53,6.17-11.75,10.09-15.73,16.63-2.72,4.47-3.68,9.78-4.11,15-.86,10.45-4.75,26.22-.44,35.77,1.72,3.82,5.93,6.42,7.28,10.39,3.6,10.55,3.66,16.15-.1,26.64-2.29,6.4-4.93,15.12-3.63,21.8a16.74,16.74,0,0,0-7.58,3.64l-4.91,2.61a188.86,188.86,0,0,1-20.28,19.82l-8,.19a29.45,29.45,0,0,0-12.4,10.83,61.51,61.51,0,0,0-7,15.1l1.35,5.82c.85,2.16,0,4.6-1.1,6.64a57.87,57.87,0,0,1-6.85,9.43l-11.32,13.53-3.89,6.88a69.1,69.1,0,0,1-28.88,35.59l-11.67,3A35.52,35.52,0,0,1,1712,747c2.17-4.46,5.37-8.79,5.23-13.75l3-15.94a100.07,100.07,0,0,0,15-18.61,25.85,25.85,0,0,1,4.06-5.49c1.46-1.34,3.26-2.3,4.59-3.77a15.24,15.24,0,0,0,3-6.35,72.77,72.77,0,0,0,2.48-14.58,18.48,18.48,0,0,0-.55-7.07c-1.62-4.91-6.56-7.95-11.47-9.59-9-3-18.69-2.67-28.16-2.24l-11.82-41.3a69.59,69.59,0,0,0-.56-19.81c-.88-5.13-2.34-10.17-3-15.34-.93-7.1-.46-14.68-3.86-21l-1.6-8.66c-1.89-2.07-2.79-4.82-3.64-7.49s-1.71-5.36-2.56-8a39.87,39.87,0,0,1-1.41-5.25c-.3-1.8-.35-3.63-.56-5.44a30.11,30.11,0,0,0-3.57-11l-2.93-5.17-8.28-15.61c-2.57-4.84-5.16-9.73-6.63-15-1.69-6-1.88-12.34-3.31-18.41l-3.22-4.51a255.34,255.34,0,0,0-27.55-42.89l1.7-3.16c7.12,2.07,14.26-2.9,21.61-3.83,2.34-.29,5.29-.58,6-2.82a5,5,0,0,1,.43-1.32c.93-1.45,3.06-.11,4.63.6,2.59,1.16,5.6.07,8.14-1.19a59.51,59.51,0,0,0,10.17-6.43l4.92-8c.16-2.86,2.56-5.12,5.15-6.34s5.46-1.72,8.07-2.87a3.88,3.88,0,0,0,1.34-.87,5.69,5.69,0,0,0,.91-2.4c1-3.94,4.65-6.62,8.27-8.47s7.59-3.27,10.5-6.1l1.55-2.6a9.13,9.13,0,0,0-8.17-8.42,16.88,16.88,0,0,0-5.74-11.1c-1.27-1.09-2.7-2-3.95-3.11-2.7-2.42-4.41-5.72-6.6-8.6s-5.23-5.54-8.85-5.64l-4.7-7.52L1677,280c15.93-6.63,20.76-27.87,16.09-44.48s-16.06-30.34-24.65-45.3-14.47-33.59-7.2-49.24c6.06-13.07,20.26-20.93,34.54-22.86s28.73,1.21,42.62,5.06c12.81,3.56,25.67,7.85,36.48,15.59,9.59,6.85,17.21,16.18,23.39,26.21,26.66,43.25,26.92,97.23,24.94,148-.89,22.88-2.45,47-15,66.13l7.82-5.59c37-61.27,105.44-97.89,175.18-114,30.2-7,63.14-10.42,91.21,2.76ZM2110,1040.53a727.83,727.83,0,0,0,17.75,165.9c1.09,4.83,2.78,10.33,7.36,12.23,5,2,10.39-1.32,15.71-2.18,8.86-1.44,17.64,4.57,22,12.4s5.23,17.11,5.47,26.08c1.68,63.21-22,126.15-12.72,188.7,3.77,25.52,13,51,8.93,76.44-4.53,28.54-27.07,53.41-55,60.71-6.24,1.63-13.07,2.41-19-.14-10.1-4.35-14-16.38-16.57-27.08a739.35,739.35,0,0,1-19.34-138.81c-1.3-29.81-1.21-61.29-16.29-87-6.78-11.58-19.84-22.37-32.48-17.83-4.89,1.76-8.74,5.55-13.16,8.3-16,9.93-36.76,5-54.45-1.38a405.39,405.39,0,0,1-94.79-49.42L1837.1,1262c-7.39-18.06-18-34.62-26.23-52.31l23.87-6.52,18.19-12.93,8.86-1.56c1.11-.2,2.55-.86,2.25-2s-2.57-1.29-2.51-2.54a1.62,1.62,0,0,1,.77-1.1,9.63,9.63,0,0,1,7.49-1.76,11.48,11.48,0,0,0,2.78.42,2.16,2.16,0,0,0,2.09-1.57,3.15,3.15,0,0,0-.29-1.53l-2-5.14a81.46,81.46,0,0,1,29.16,15.57,14.46,14.46,0,0,0,1.58-7.1c6.62,4.1,11.45,11.85,19.18,12.74a2,2,0,0,0,1.8-.46,1.89,1.89,0,0,0,.27-1.24c-.18-4.26-3.3-7.77-6.44-10.65s-6.61-5.79-7.91-9.85a44.59,44.59,0,0,0,14.07,2.38,16.19,16.19,0,0,0-6.71-4.74l4-2.7a70.54,70.54,0,0,0-22.51-9.49l9-2.77a5.24,5.24,0,0,0,2.1-1c1.87-1.72.39-5-1.74-6.34s-4.81-1.95-6.52-3.82l-5.14-1.43q-10.77-1.77-21.58-3.3l-5.93-3.11a4.58,4.58,0,0,0,1-5.89c-1.34-2.08-4.07-2.65-6.23-3.85a10.84,10.84,0,0,1-4.7-5.26l-6.67-6.28-18.8-2a1.31,1.31,0,0,1-1.41-.93,13.56,13.56,0,0,1-1.22-5l-1.08-3.38a9.85,9.85,0,0,0-4.37-7.34c-2-1.29-4.34-1.82-6.58-2.55s-4.53-1.81-5.82-3.79c-1.44-2.21-1.33-5-1.16-7.68l1.46-4.77a12.64,12.64,0,0,1,4.35-6.17c1.93-1.67,4.09-3.09,5.85-4.94,2.64-2.77,4.24-6.33,5.8-9.82l5.86-6.86c1.92-2.42,1.94-5.8,2.92-8.74,1.66-5,6-8.55,10.22-11.8-5.12,2.18-10.49,4.31-16,4.06a51.64,51.64,0,0,1-9.17-1.73,79.26,79.26,0,0,0-30.15-1.07l-.19-8.48a107.45,107.45,0,0,0,13.15-85.33l8.61-8.69c30.08-5.08,61.81,3.07,91-5.67,5.34-1.6,11.06-3.75,16.33-1.92a35.58,35.58,0,0,1,5.94,3.22c6,3.48,13.39,4.94,20,2.88s12.13-8.07,12.58-15l-5.32-26c2-5.85,3.69-13.14-.65-17.56a17.07,17.07,0,0,0-5.39-3.25l-8-3.53,8.24-.65a3.69,3.69,0,0,0,2-.56,3.56,3.56,0,0,0,1-2.69,30.76,30.76,0,0,0-14.26-27.88c-3.86-2.37-8.21-3.85-12.06-6.23-5.39-3.34-9.55-8.29-13.61-13.16l-5.17-2.66a228.27,228.27,0,0,0-29.23-1.31,8.77,8.77,0,0,0-4.13.76,3.11,3.11,0,0,0-1.66,3.53c-5.93.84-10.75,5.21-16.49,6.9a37.51,37.51,0,0,1-8.18,1.14l-32.24,2.13.86-1.8c6.12-3.3,10.11-9.47,15.54-13.82,9.68-7.76,22.85-9,35.21-10l5.81-3.75a10.17,10.17,0,0,0,9.58-10,3.16,3.16,0,0,1,.3-1.91,2.67,2.67,0,0,1,1.65-.87c8-2,16.66-3.38,23-8.75a8.76,8.76,0,0,1,3-2.06c2.21-.65,4.41.83,6.46,1.88a18.83,18.83,0,0,0,14.11,1.15c3.71-1.19,7.57-3.56,11.21-2.17,2.75,1.06,4.27,3.9,5.87,6.36,5.61,8.57,14.65,14.44,24.24,18s19.81,5.12,29.94,6.62l11.23-4.74c9-.17,18.1-.35,26.81-2.63,3.4-.89,6.74-2.1,10.24-2.49,5.1-.57,10.23.64,15.37.55,4.72-.08,9.34-1.26,13.91-2.43L2077,800.15,2092.6,888c-.64-11.36,4.89-23.09,14.57-29s23.25-5.34,31.79,2.17c8.07,7.1,10.69,18.56,11.31,29.29a112.81,112.81,0,0,1-12.47,58.23c-6.32,12.16-14.81,23.06-21.41,35.07s-11.32,25.77-9.12,39.3Z"></path>
    <path data-name="4a" data-official="" data-plain="Calyx and Pistil" data-loc="" d="M1627.23,2846.78l-10.14-42.42c-4.1-17.18-8.17-35.46-2.55-52.2,3.13-9.32,9.08-17.48,12.23-26.79,2.75-8.1,3.29-16.76,4.85-25.18s4.41-17,10.68-22.85,16.75-7.78,23.43-2.43c7.28,5.83,7.06,16.78,6.18,26.07l-6.75,71.15c-2.59,27.31-4.58,57.14,10.81,79.85,3.23,4.76,7.15,9.05,10,14,8.84,15.43,6.1,35.4-2.45,51-6.06,11.08-14.93,21-17.65,33.32-2.64,12,1,24.55-.32,36.78-.41,3.8-1.37,7.73-3.92,10.59s-6.64,4.38-10.45,5.64c-12.46,4.12-25.43,8.08-38.49,6.71s-26.3-9.49-29.62-22.19c-2.89-11,2.24-22.76,9.63-31.43s16.94-15.21,25.19-23.07c3-2.83,6-6.41,5.49-10.47-.29-2.43-1.79-4.51-3.17-6.53-6.58-9.6-11.56-20.69-11.81-32.32s4.91-23.79,14.84-29.84Z"></path>
    <path data-name="4b" data-official="" data-plain="Flower opened" data-loc="" d="M1717.26,2730.07a597.19,597.19,0,0,0,25.48,69.31c11.42,26,24.92,51.44,44.15,72.29,7.32,7.93,15.49,15.24,21.1,24.46,14.19,23.29,9.18,52.83,10.33,80.08.22,5.31.73,10.75,3,15.55,6.42,13.6,23.81,17.34,38.82,18.29,22.11,1.41,46.77-.57,62.23-16.44,14-14.32,16.49-35.79,21.7-55.09a174.81,174.81,0,0,1,33.31-64.88c11.1-13.6,24.32-25.59,33.58-40.51,21.84-35.16,19.31-82.4,44.85-115l-1.42-10.54c5.51-14.16,10.33-28.88,10.59-44.07s-4.61-31.06-15.88-41.23c-8.12-7.32-18.76-11.12-29.25-14.2a321.91,321.91,0,0,0-71.29-12.44c-9.7-.59-20.33-1.08-27.49-7.65l-9.61-5.38a71.12,71.12,0,0,0-60.08,2.77c-4.3,2.29-8.41,5-13.09,6.38-10.59,3-21.72-1.76-32.73-2s-21.9,4.25-30.82,10.85c-7.17,5.3-13.65,12.14-22.26,14.47-5,1.36-10.27,1-15.43,1.41-10.11.72-20.54,4.49-26.71,12.53-2.74,3.56-4.5,7.76-6.79,11.62-2.69,4.52-6.12,8.58-8.73,13.15a45.08,45.08,0,0,0-4.07,34,48.32,48.32,0,0,0,20.63,27.5Z"></path>
</svg>
