
<svg xmlns="http://www.w3.org/2000/svg" viewBox="0 0 2178 2935" id="illustration" preserveAspectRatio="xMidYMid meet">
    <title>Polemoniaceæ</title>
    <path data-name="1" data-official="Polemonium cæruleum" data-loc="Greek Valerian" data-plain="England" d="M546.59,2155.78a137.8,137.8,0,0,1-12.31,73.82C529.35,2240,523,2250,520.7,2261.29c-3.52,17,2.48,34.44,8.39,50.8,1.49,4.1,3.21,8.51,6.93,10.79,7.26,4.45,16.22-1.85,24.71-2.55,9.6-.8,18.53,6.11,23,14.65s5.27,18.46,5.76,28.08c1.42,28.11-.39,59-19.06,80-4.74,5.35-10.48,9.94-13.93,16.2-6.6,12-3.21,26.79,0,40.1a925.39,925.39,0,0,1,24.6,160.28c1.22,18.9.65,40.72-13.93,52.8-4.62,3.83-10.48,6.47-13.66,11.55-3,4.76-3,10.78-5.22,16-5.21,12.49-24.1,16.33-33.78,6.87-8.26-8.07-8.41-21.24-6.61-32.65s5-23.27,1.44-34.27c-2.55-8-8.31-14.4-12.35-21.7-7.85-14.18-9-31-9.94-47.17l-7.9-133.88-6.8-21.09c-13.71-19.4-38.5-27.87-62.15-30s-47.55.91-71.21-1.16c-66.45-5.8-126.84-55.69-145.09-119.84l-6.64-11.63c-52.6-155.54-37.46-324.52-48.16-488.37-.43-6.53-.94-13.24-3.79-19.13-4.22-8.72-12.8-14.28-19.92-20.84S102,1749,104.76,1739.73c1.94-6.6,7.86-11.1,13.26-15.36s11-9.46,11.75-16.3-6.7-14.29-12.68-10.88l-6.55-14.39A92.88,92.88,0,0,1,72,1652.86c-8.46-11.29-14.08-27.57-5.9-39.07,7.76-10.9,24.67-12.6,31.52-24.09,4.8-8.06,3-18.25,1.11-27.43l-5.54-26.56c-1.11-5.32-2.23-10.78-1.44-16.16s3.87-10.76,8.94-12.74a21.25,21.25,0,0,1,8.48-1,111.4,111.4,0,0,1,28,4.63c17.68,5.31,35.43,15.14,53.48,11.24,9.76-2.11,18.23-8.07,27.66-11.34,18.34-6.37,38.5-2.13,57.32,2.63q25.31,6.39,50.29,13.93a945.86,945.86,0,0,1-11.69-115.37l3.88-5.59a80.56,80.56,0,0,1,24.72-1.8,31.39,31.39,0,0,1,10.85,2.48,39,39,0,0,1,6.22,4l9.25,6.77,7.53,2.3a42.26,42.26,0,0,0,16,5.68l5.15-.88c.15-3.26,2-6.18,3-9.25,1.67-4.73,1.8-10.27,5.2-14l6.54-1a7.77,7.77,0,0,1,6.18,4.85,15.58,15.58,0,0,1,.78,8.13l-.93,2a16.29,16.29,0,0,0,.63,20.63l5.68,2.65a10.67,10.67,0,0,1,2.18-4.47l5.3-7.56.95-5.4a17,17,0,0,1,4.47-10.8l4.67-2.93a24.63,24.63,0,0,1,19.18-3.54,11.29,11.29,0,0,1,5.07,2.36c2.32,2.08,3.09,5.5,2.63,8.58a22.51,22.51,0,0,1-3.66,8.53,69.91,69.91,0,0,1-7.42,9.63,17.47,17.47,0,0,1-4.79,4c-2.07,1-4.43,1.32-6.54,2.26s-4.06,2.94-3.77,5.23a33.1,33.1,0,0,1,6.32,3.38l1.41-.45,14.29-9.35,5.51-4.66c8.61-4.84,17.27-9.71,26.58-13s19.38-5,29.11-3.37a11.11,11.11,0,0,1,4.51,1.54c3.15,2.16,3.7,6.85,2.15,10.33s-4.71,6-7.91,8.07-6.63,3.94-9.24,6.73l-4,3a22.93,22.93,0,0,1-22,9.61,24,24,0,0,0-5.82-.67,15.42,15.42,0,0,0-3.87,1l-13,4.74c6.6.91,13.27,1.84,19.49,4.24s12,6.42,15.3,12.22l-5.81,9.19-4.79,17c-12.29,19.65-35.35,30.85-58.43,33-9.8.9-21.26,1.1-27.08,9l-13.64,15.19c-2,5.53-7.55,8.77-11.76,12.86a3.47,3.47,0,0,0-1.39,2.71,4.07,4.07,0,0,0,.59,1.37,22,22,0,0,1,2.26,13.17,65.33,65.33,0,0,1-3.28,13.16l3.7,17a148.52,148.52,0,0,1,2.41,26.12c0,3.87-.11,7.79.8,11.56,1.18,4.91,4,9.22,6.25,13.76,4.27,8.75,6.51,19,13.69,25.53l2.16,9.86a206.5,206.5,0,0,0,11,42.49c1.64,4.35,4.49,9.39,9.14,9.31,3,0,5.39-2.27,7.36-4.49,8.08-9.15,13.32-20.4,20.13-30.53s16-19.63,28-22.21l12.7-4.66c9-1.71,18.2-3.45,26.53-7.37s15.87-10.34,19.18-18.93c2.2-5.73,2.41-12,3.87-18A44,44,0,0,1,556,1634.54c2.09-2.27,4.52-4.37,7.47-5.22a17.81,17.81,0,0,1,6.43-.34c3.76.33,7.66,1.1,10.57,3.5,3.49,2.88,4.9,7.53,6,11.92a217.36,217.36,0,0,1,6,38l1.75,5.29a36.77,36.77,0,0,1-1.68,23.51,2.28,2.28,0,0,1,2.2,1.11c.5.71.78,1.56,1.26,2.28,1.39,2.09,4.11,2.74,6.58,3.22l7,12.13c8.84,5.7,20.65,3.42,30.19-1s18.29-10.83,28.51-13.31c6-1.47,13.62-.87,16.84,4.45a14.52,14.52,0,0,1,1.73,6.65c.53,8.64-2.16,17.1-3.79,25.6s-2.06,17.87,2.5,25.23c5.7,9.2,17.81,13,23.12,22.48s2.19,21-1,31.3l-5,10.83c-12.37,16.43-25.4,35.14-22.89,55.55,1.18,9.59,5.8,19.06,3.79,28.51-3.69,17.29-26.93,24.21-32,41.14-2.37,7.81-.33,16.29-1.59,24.35-2.17,13.84-13.46,24.23-24.37,33-11.28,9.07-23.3,17.91-37.31,21.52-20.92,5.39-42.9-1.6-64.49-1.14-4.21.08-8.62.53-12.13,2.85a17.42,17.42,0,0,0-6.45,9.06c-4.7,13.71,2.27,28.64,10.77,40.37s19,22.75,22.6,36.78ZM318.11,1377.89c7.66,8.91,19.64,12.53,30.95,15.74a88.44,88.44,0,0,1-20.57-22.05c-3.33-5.1-6.63-11-12.4-12.92a1.42,1.42,0,0,0-1-.07c-.54.22-.62,1-.61,1.54l.14,14.3ZM519,831.6a12.43,12.43,0,0,0-12.76-10.47,22.29,22.29,0,0,0,2.7-20.74c-1.75-4.52-4.93-8.31-8.06-12-7.74-9.17-15.57-18.42-25.06-25.76l-.43-2.61a11.91,11.91,0,0,0,2.21-9.39c-.29-1.48-.86-3-.65-4.44.38-2.74,3.28-4.71,3.35-7.47a6.62,6.62,0,0,0-1.57-3.94c-2.86-3.88-6.92-6.67-10.6-9.77s-7.2-6.85-8.26-11.55L457.15,709c.55-25.39,8.89-51.32,1.8-75.72-1.57-5.43-3.9-11.25-1.84-16.52l2.45-7.55c.42-3.06.82-6.3-.35-9.16-1-2.44-3.13-4.55-3.12-7.2s2.34-5,2.49-7.75c.25-4.34-5-7.74-4.3-12,.27-1.73,1.46-3.15,2.26-4.71,3.15-6.13,0-13.48-3.09-19.64l-11.36-19.63-30.48-10.8c-10.38-18.18,14.64-37.78,14.87-58.72.13-12-8.68-23-19.8-27.47s-24-3.17-35.05,1.43c-5,2.07-9.76,4.79-15.06,5.78-7.78,1.46-15.71-1-23.25-3.36l-62.86-20c-10.65-3.39-21.94-6.8-32.8-4.19C219,416.22,209,436.05,201.53,453.7c-6.09,14.33-12.3,30-8.2,45.06,2.91,10.69,10.95,20.59,9.13,31.52-2.34,14-18.58,20-31.46,26.06-43.29,20.32-69.41,71.86-60.21,118.78,2.95,15,9.11,30.13,6.15,45.15-2.61,13.25-11.89,24-18.67,35.69a102.92,102.92,0,0,0-11.51,72.31c3.43,16.05,10.77,32.09,7.59,48.19-3.5,17.76-19.4,32.3-18.76,50.4.17,4.68,1.21,10.16-2.18,13.39-2.78,2.65-7.13,2.32-11,2.38-27.3.39-46.29,28-53.35,54.37-5.49,20.53-6.73,42.61-.5,62.93s20.53,38.66,40.06,47l10.7,9.78q1.29,20.88,4.62,41.55c2.35,14.56,5.79,29.71,15.54,40.78,12.14,13.8,31.82,18.51,50.2,18.29a122.24,122.24,0,0,0,34.23-5.3c11.46-3.49,22.92-8.74,34.84-7.61s24,12.18,20.68,23.69l.13,4.39c1.48,2.81,4.74,4.22,7.87,4.77s6.38.5,9.42,1.4c5.59,1.66,9.82,6.44,12.23,11.75s3.23,11.18,4,17q1.26,9,2.51,17.93l9.66,6.29a19.25,19.25,0,0,0,9-12.82,15.48,15.48,0,0,1,.7-3,11.09,11.09,0,0,1,1.23-2.1l4.41-6.36a3.61,3.61,0,0,1,1.07-1.16,3.75,3.75,0,0,1,1.63-.37l6.28-.48a20.57,20.57,0,0,1,4.77,0c4.41.69,7.85,4.11,10.73,7.52s5.85,7.49,6.47,12.08l0,7.92c-.29,8.47,3.2,16.55,6.28,24.45s5.84,16.44,4,24.72a3.77,3.77,0,0,0-.07,2.25,3.43,3.43,0,0,0,1.06,1.25,153,153,0,0,1,18.57,19.26c3,3.72,6,7.75,10.45,9.61l-.53-5.42c1.83-14.65-2.53-29.28-4.06-44-.73-7-.82-14-.9-21l-.71-56.74,5.65-10.15c18.06-1.65,31.13-18.61,36.73-35.86,1.52-4.67,2.72-9.56,5.55-13.57,7.79-11,25.06-11.79,33-22.73,6-8.27,4.77-19.52,4.18-29.74s.67-22.18,9.27-27.72c9.61-6.19,24.43-1.44,32.18-9.83,8.77-9.49.16-26.72,8-37,5.94-7.77,17.5-7.08,27.2-8.37,21.92-2.92,40.15-19.82,49.7-39.77s11.65-42.63,11.74-64.75c0-9.89-.33-20-3.57-29.3s-9.8-18-19-21.56c-9.61-3.74-21.93-2.22-28.71-10-5.9-6.77-4.33-17-2.41-25.8Z"></path>
    <path data-name="1a" data-official="" data-loc="Stamen" data-plain="" d="M627.12,2845.65l-.63-92.36a25,25,0,0,0-1-8.36c-1.46-4.1-4.9-7.1-7.76-10.38-12.48-14.33-14.39-34.83-14.71-53.83-.17-10.47,0-21.09,2.79-31.18s8.6-19.71,17.53-25.17c16.21-9.91,38.81-2.93,50.92,11.7s15.46,34.74,14.76,53.73c-.39,10.62-2,21.56-7.69,30.55-5.8,9.21-15.53,15.93-19.31,26.13-2.41,6.52-2.08,13.68-1.72,20.61l2.21,42.7c.62,11.78,1.4,24.13,7.64,34.15,5,8,13,13.69,19.56,20.58s11.81,16.42,9.3,25.57c-3,11.07-15.7,16.21-27,18.32a136,136,0,0,1-33.16,2.05c-3.9-.23-8.37-1-10.37-4.34-1.38-2.3-1.16-5.17-.9-7.84q2.07-21.21,4.15-42.42Z"></path>
    <path data-name="1b" data-official="" data-loc="Capsule" data-plain="" d="M792.77,2852.36c.28-8.06-9.36-12-16.54-15.62-15.48-7.92-25.33-24.17-29.6-41s-3.69-34.5-3.08-51.87q.71-20.23,1.42-40.49c.17-4.92.44-10.14,3.23-14.19,2.29-3.31,6-5.38,9.68-6.94a58.21,58.21,0,0,1,48.35,1.88c6,3.08,11.6,7.27,18.22,8.49,9.18,1.69,18.24-2.62,27.13-5.46s19.92-3.75,26.34,3c4.59,4.85,5.29,12.27,4.18,18.86s-3.75,12.83-5,19.4c-2.94,16.05,2.83,32.22,5.69,48.29s1.71,35.09-11.09,45.21c-7.08,5.6-17.44,8.3-20.66,16.74a21.46,21.46,0,0,0-.88,9.4c1.23,14.69,7.78,30.92-.46,43.14-3.92,5.81-10.49,9.25-17,11.77a102.16,102.16,0,0,1-40.75,6.73c-5.43-.22-11.52-1.27-14.61-5.74-2.15-3.12-2.27-7.2-1.87-11a47.34,47.34,0,0,1,10.85-25.27Z"></path>
    <path data-name="1c" data-official="" data-loc="Section of Capsule" data-plain="" d="M940.83,2834.09c-12.65-6.53-20-21-20.54-35.18s4.75-28.14,12.25-40.24c4.11-6.62,9-12.92,15.28-17.5,10.9-7.91,25.33-9.94,38.57-7.47s25.39,9.09,36.2,17.11c5.93,4.4,11.62,9.35,15.56,15.59,7.39,11.69,7.79,26.42,6.64,40.2-.8,9.54-2.58,19.75-9.38,26.49-7.29,7.23-19.48,9.53-23.91,18.8-3.24,6.78-1.07,15.16-4.14,22-4.15,9.29-15.74,12.1-25.77,13.76-6.87,1.14-13.88,2.29-20.77,1.27s-13.77-4.57-17.05-10.71c-4.93-9.23-.46-20.82-3.21-30.92Z"></path>
    <path data-name="1d" data-official="" data-loc="Seed" data-plain="" d="M1103.75,2833.23c-4.08-9.78-7.87-20.05-7.39-30.63s6.27-21.59,16.25-25.16c9.25-3.31,20.09.71,26.49,8.16s8.83,17.7,8.57,27.52c-.23,8.35-2.11,17.34,2,24.61,2.62,4.61,7.3,7.76,10,12.32,3.5,6,3.1,13.35,2.34,20.22-.43,3.87-1,7.91-3.24,11.11-3.24,4.61-9.14,6.42-14.65,7.59a146.6,146.6,0,0,1-30.33,3.25c-7.13,0-14.78-.66-20.33-5.14-6.45-5.19-8.44-14.54-6.57-22.61s7-15,12.74-20.95Z"></path>
    <path data-name="2" data-official="Gilia tricolor" data-loc="Three-coloured Gilia" data-plain="California" d="M318.11,1377.89c7.66,8.91,19.64,12.53,30.95,15.74a88.44,88.44,0,0,1-20.57-22.05c-3.33-5.1-6.63-11-12.4-12.92a1.42,1.42,0,0,0-1-.07c-.54.22-.62,1-.61,1.54l.14,14.3Zm411.52,542a135.09,135.09,0,0,1,18.15-2.34,56.25,56.25,0,0,1,13.66.51,59.83,59.83,0,0,1,14.95,5.43,190.66,190.66,0,0,1,16.77,9.2c5.53,3.41,11,7.17,17.37,8.65,8.37,2,17.81-.14,25.23,4.2C825.47,1927,815,1907.29,814.83,1886l-.72-5c2.45-2.94,2.71-7.22,5-10.26a1.13,1.13,0,0,1,.58-.46,1.24,1.24,0,0,1,.75.13c1.11.44,2.71.55,3.18-.55.12-.28.16-.63.42-.79s.65,0,.95.16a63.88,63.88,0,0,0,13.18,5.7l4.77-1.59a70.81,70.81,0,0,0,21-4.47,5.1,5.1,0,0,1,3.34-.48,4.92,4.92,0,0,1,1.9,1.5q2.79,3.12,5.44,6.34l1.76,7.18a314.56,314.56,0,0,1,5.68,92.33l1.09,9.73q6.1,23,12.2,45.94c.71,2.68,2.26,6,5,5.74a6.06,6.06,0,0,0,2.64-1.18l45.66-30.24c6.9-4.57,15.4-9.31,23-6,3.41,1.5,6.17,4.54,9.85,5.15,4.93.81,9.27-2.94,13.67-5.32,8-4.35,17.63-4.3,26.76-4.14,2.43,0,5.17.23,6.75,2.07,1.36,1.59,1.43,4,2.66,5.65,1.8,2.46,5.55,2.68,8.32,1.41s4.84-3.64,7-5.79a57.34,57.34,0,0,1,22.2-13.61c5.5-1.83,12.23-2.56,16.48,1.37a13.39,13.39,0,0,1,3.5,6.1c2.71,9.1-.65,18.91-5.15,27.28s-10.21,16.25-12.72,25.41c-2.07,7.58-1.81,15.58-1.54,23.44.14,4.11.32,8.35,2.08,12.06,4.33,9.11,17.34,13.45,18,23.52.33,5.23-3.19,10.09-7.63,12.87s-9.71,3.85-14.84,4.89l-8.6,4.4c-5.78,1.59-11.65,3.22-16.73,6.4s-9.34,8.21-10.14,14.15c-1.15,8.6,4.89,16.37,6.9,24.81,1.24,5.2.92,10.64.13,15.93a90.18,90.18,0,0,1-12.18,33.47c-1.68,2.75-3.59,5.49-6.36,7.13-3.11,1.84-6.9,2-10.52,2a91.69,91.69,0,0,1-24.79-3.78c-7.89-2.34-15.47-5.75-23.49-7.57s-16.86-1.93-24,2.09c-7.76,4.33-12.43,12.89-14.16,21.61s-.92,17.71-.1,26.56l2.66,28.77-5.08,5.61-5.2-.43a54.94,54.94,0,0,0-8.88-.24c-3.83.3-7.6,1.41-11.43,1.18s-8-2.27-8.94-6l-2.55-10.86a227.87,227.87,0,0,0-28.22-95.66l-1.9-10.15c-.27-41.87,3.55-84.06-3-125.43-2-12.55-5.09-25.38-12.88-35.41s-21.32-16.54-33.44-12.76c-6.57,2-11.91,6.72-17.57,10.63-11.68,8.07-25.15,13.07-38.47,18-29.88,11-61.1,22.25-92.78,18.83-6.75-.72-13.68-2.22-19.14-6.26s-9.12-11.14-7.38-17.71l-3.31-6.68c10.91-8.79,22.2-19.18,24.37-33,1.26-8.06-.78-16.54,1.59-24.35,5.12-16.93,28.36-23.85,32-41.14l6.26-1.58a58,58,0,0,1,27.7-3.77ZM939.91,2439.7c2.6,45.94,23.18,89.06,29.31,134.66,3.35,24.89,2.34,50.16.09,75.17-1.21,13.44-2.87,27.18-8.95,39.23s-17.48,22.25-30.94,23.29c-7.77.6-16.25-2.38-20.29-9-2.72-4.48-3.14-10-3.4-15.18-3.84-77.71,11.88-158.11-12.56-232L879,2453.77c-41.43,9.89-84.86,16.49-126.47,7.4s-81.31-36.63-94.8-77c-2.51-7.51-4.1-15.34-7.25-22.6a57.07,57.07,0,0,0-29.54-29.42c-6.7-2.87-14-4.49-20.06-8.61-8.71-5.95-13.79-16.56-23.26-21.2-10.71-5.23-24.28-1.46-34.75-7.15-10.17-5.54-14-20.21-7.8-30,6.32-10,19.27-12.87,30.41-16.91s23.14-13,21.42-24.76c-.36-2.44-1.32-5-.46-7.29.78-2.09,2.84-3.4,4.81-4.45a78.44,78.44,0,0,1,53.42-7.48c6.94,1.52,13.86,4,20.93,3.35,13.54-1.26,24.44-13.7,38-13.62,20.83.13,32.54,28.61,53.34,29.72,10.59.56,20.46-6.42,31.06-6,17,.63,27.36,19.12,30.7,35.78s3.61,35.1,14.36,48.25l7.44,10.22c.81,1.7,2.8,2.44,4.62,2.94,7.54,2.08,15.79,3.12,21.78,8.16,11.33,9.53,9.76,29.15,21.56,38.07l5.56,2.46c12.06-1.22,24.39,7.17,27.69,18.84,1.54,5.44,1.3,11.36,3.58,16.53a59,59,0,0,0,3.85,6.61c3.61,6,5.8,12.76,8,19.43ZM480.74,1530c8.58-.33,16.69,4.64,22.12,11.28s8.59,14.81,11.4,22.91c3.58,10.34,6.76,21.07,6.34,32a609.2,609.2,0,0,1,99.47,7.88c-26.77-37.3-61.73-67.82-96.35-98l-21.2-18.47-.46-9.85c-3.27-5.8-9.09-9.83-15.3-12.22s-12.89-3.33-19.49-4.24l13-4.74a15.42,15.42,0,0,1,3.87-1,24,24,0,0,1,5.82.67,22.93,22.93,0,0,0,22-9.61l4-3c2.61-2.79,6-4.65,9.24-6.73s6.35-4.58,7.91-8.07,1-8.17-2.15-10.33a11.11,11.11,0,0,0-4.51-1.54c-9.73-1.66-19.81,0-29.11,3.37s-18,8.18-26.58,13l-5.51,4.66L451,1447.32l-1.41.45a33.1,33.1,0,0,0-6.32-3.38c-.29-2.29,1.67-4.29,3.77-5.23s4.47-1.23,6.54-2.26a17.47,17.47,0,0,0,4.79-4,69.91,69.91,0,0,0,7.42-9.63,22.51,22.51,0,0,0,3.66-8.53c.46-3.08-.31-6.5-2.63-8.58a11.29,11.29,0,0,0-5.07-2.36,24.63,24.63,0,0,0-19.18,3.54l-4.67,2.93a17,17,0,0,0-4.47,10.8l-.95,5.4-5.3,7.56a10.67,10.67,0,0,0-2.18,4.47l-5.68-2.65a16.29,16.29,0,0,1-.63-20.63l.93-2a15.58,15.58,0,0,0-.78-8.13,7.77,7.77,0,0,0-6.18-4.85l-6.54,1c-3.4,3.69-3.53,9.23-5.2,14-1.08,3.07-2.89,6-3,9.25l-5.15.88a42.26,42.26,0,0,1-16-5.68l-7.53-2.3-9.25-6.77a39,39,0,0,0-6.22-4,31.39,31.39,0,0,0-10.85-2.48,80.56,80.56,0,0,0-24.72,1.8l-3.88,5.59-8.79,7.06c-27.75,24.89-67.08,35.52-104,30.35-9.08-1.27-18.3-3.56-25.68-9a34.63,34.63,0,0,1-2.86-53.41c-12.21-1.42-25.85-3.64-33.09-13.57-4.51-6.19-5.53-14.19-6.11-21.83q-.88-11.73-.79-23.5c.07-10.11.79-20.61,5.63-29.49,4.93-9,13.79-15.52,23.49-19s20.19-4.11,30.47-3.52c10.14-16.91,31.37-26.36,50.72-22.6l5.89-2.63c2.4,5.32,3.23,11.18,4,17q1.26,9,2.51,17.93l9.66,6.29a19.25,19.25,0,0,0,9-12.82,15.48,15.48,0,0,1,.7-3,11.09,11.09,0,0,1,1.23-2.1l4.41-6.36a3.61,3.61,0,0,1,1.07-1.16,3.75,3.75,0,0,1,1.63-.37l6.28-.48a20.57,20.57,0,0,1,4.77,0c4.41.69,7.85,4.11,10.73,7.52s5.85,7.49,6.47,12.08l0,7.92c-.29,8.47,3.2,16.55,6.28,24.45s5.84,16.44,4,24.72a3.77,3.77,0,0,0-.07,2.25,3.43,3.43,0,0,0,1.06,1.25,153,153,0,0,1,18.57,19.26c3,3.72,6,7.75,10.45,9.61l9.7,1.31c2.9,4.83,10.73,5.55,14.45,1.34,2.91-3.3,3-8.13,3-12.53l-.25-25.71c-.05-6,.1-12.68,4.07-17.24l3.17-7.94,5.22-22.34c2.35-10,5.57-21.28,14.66-26.17,5.66-3.06,12.46-2.91,18.88-2.46,10,.7,20.07,2,29.62,5.11l6.47-2.07c-8-27.31-15.66-55.11-16-83.56-.14-12.2,1.34-25.12,8.7-34.85,5.66-7.48,14.19-12.24,20.6-19.09,4.25-4.54,7.51-9.92,11.51-14.69,15.52-18.51,42.82-26.11,65.67-18.29l9.81.82c10.53-.72,20.41,4.52,30.55,7.44s23,2.63,29-6c3.8-5.48,3.71-12.76,6.52-18.8,2.5-5.4,7.16-9.52,10-14.74,5.76-10.58,3.48-24.47,10.41-34.32,5.49-7.81,15.94-11.17,25.39-9.79s17.9,6.86,24.61,13.65c4.6,4.66,8.79,10.16,14.89,12.53,7.14,2.77,15.18.61,22.78,1.51,16.88,2,31.29,18.91,47.8,14.89,10.63-2.59,17.23-13,21.9-22.92,3.74-7.91,7.53-16.68,15.29-20.74,10.07-5.26,23.19.16,29.81,9.4s8.13,21.16,8.38,32.53c.28,12.95-.37,27.25,7.89,37.22l-1,9.06a18.78,18.78,0,0,1-.45,9c-1,3.14-2.71,6-3.77,9.09-2.61,7.7-.71,16.11,1.2,24a6.67,6.67,0,0,0-5.48,3.21,19.45,19.45,0,0,0-2.34,6.17l-.91,3.66c1.62,2,1.47,4.81,1.47,7.37a40.87,40.87,0,0,0,.79,7.8,8.72,8.72,0,0,0,2,4.6c.88.88,2.08,1.42,2.78,2.44l.57.85a8.07,8.07,0,0,1-4,4.56c-1.78,1-3.75,1.78-5.47,3a13.08,13.08,0,0,0-5.6,9.44,11.08,11.08,0,0,1-.3,2.23,7.83,7.83,0,0,1-2.47,3.2l-3.84,4.29c-1.1,7.48-4.81,14.28-8,21.12a3.05,3.05,0,0,0-.43,1.79c.24,1.35,2,1.8,2.7,3s.2,2.46-.26,3.64l-3.24,8.37c2.63-1.39,5.93,1.27,6.34,4.22s-1.07,5.8-2.5,8.41l-1.77,3.22-10.35,8a53.81,53.81,0,0,1-30.6,22c-2.49.66-5.09,1.18-7.18,2.68s-3.49,4.35-2.42,6.69l.24,7.59.61,58.79c.11,10.71.25,21.58,3.24,31.86,2.18,7.48,6.8,15.29,14.42,17,4,.87,8.13-.1,12-1.44,8.48-2.94,16.3-7.61,24.89-10.18s18.67-2.71,25.74,2.81c10.06,7.85,11.23,24.65,22.83,30,3.74,1.71,8,1.87,12.1,1.46,9.26-.92,18-4.52,27.2-6.12s19.6-.78,26.22,5.75c9.63,9.5,6.64,25.66,1.34,38.1-4.66,10.92-10.53,21.26-16.46,31.54-10.74,18.64-21.87,37.4-37.36,52.33s-36.08,25.78-57.57,25.06c-5.36-.17-10.79-1-16,0-13.54,2.81-21.36,20.64-14.26,32.5l-1.59,8.86c.83,1.91.07,4.19-1.29,5.77a21.94,21.94,0,0,1-4.94,3.74,50.12,50.12,0,0,0-12,10.88l-9.76,3c-4.76,5.68-6,13.43-7.07,20.77l-1,3.81c-3.5,2-7.66,2.39-11.57,3.4a35.84,35.84,0,0,0-15.45,8.55l-4.91,2.5c-.7,7.14-8,12.17-9.11,19.25l-4.43.72c-18.26-7.83-28.75-27.68-46.28-37-3.37-1.81-7.09-3.22-10.92-3.08s-7.76,2.1-9.4,5.55c-1.78,3.73-.62,8.12.58,12.07l5.35,17.74,1.08,7.18c-10.22,2.48-19,8.88-28.51,13.31s-21.35,6.71-30.19,1l-7-12.13c-2.47-.48-5.19-1.13-6.58-3.22-.48-.72-.76-1.57-1.26-2.28a2.28,2.28,0,0,0-2.2-1.11,36.77,36.77,0,0,0,1.68-23.51l-1.75-5.29a217.36,217.36,0,0,0-6-38c-1.09-4.39-2.5-9-6-11.92-2.91-2.4-6.81-3.17-10.57-3.5a17.81,17.81,0,0,0-6.43.34l-14.72.81a19,19,0,0,0-17,8.74c-2.22,3.59-3.14,7.79-4.48,11.78-7.9,23.62-31.15,40.14-55.74,44s-50-3.43-71.42-16.09l-8.17-5.8c-2.21-4.54-5.07-8.85-6.25-13.76-.91-3.77-.78-7.69-.8-11.56a148.52,148.52,0,0,0-2.41-26.12l-3.7-17a65.33,65.33,0,0,0,3.28-13.16,22,22,0,0,0-2.26-13.17,4.07,4.07,0,0,1-.59-1.37,3.47,3.47,0,0,1,1.39-2.71c4.21-4.09,9.77-7.33,11.76-12.86L406,1545.93c5.82-7.93,17.28-8.13,27.08-9a87.19,87.19,0,0,0,33.26-9.9Z"></path>
    <path data-name="3" data-official="Phlox Drummondii" data-loc="Drummond’s Phlox" data-plain="Texas" d="M1553.17,1928.52l-7.89,12.47c-.81,1.27-1.65,2.67-1.5,4.17.2,1.93,1.92,3.29,3.5,4.41l28.36,20.15c4.77,3.39,10.16,8.49,8.34,14-.89,2.72-3.32,4.59-5.62,6.28-13.14,9.67-26.9,19.62-43,22.49-10,1.79-20.41.7-30.35,2.83-2.65.56-5.35,1.41-7.3,3.3-4.45,4.32-3,11.91.32,17.18s8,9.8,9.7,15.77c2.23,7.9-1.77,16.64-8.26,21.67s-15,6.81-23.18,6.88c-23,.19-45.62-13-56.78-33.12-4.42-8-8.12-17.76-16.76-20.61-9.06-3-18.58,3.66-24.18,11.39s-9.31,17-16.54,23.23a30.78,30.78,0,0,1-30.92,5,32.66,32.66,0,0,1-19.54-24.69q-27.39,16.52-54.47,33.57c-13.88,8.73-27.86,17.7-38.93,29.79-1.33,1.45-2.7,3.17-2.59,5.14.13,2.26,2.13,3.91,4,5.21,18.81,13.19,42,23.76,50.59,45.07,5.36,13.34,3.86,28.88,10.29,41.73,9.6,19.19,35.5,30,36.43,51.47l-1.4,10.08c1,16.35-18.92,27.18-35.06,24.37s-29.19-14.15-42.73-23.37c-15.56-10.6-33.46-19-52.28-19-2.39,0-4.89.16-6.94,1.38-6.44,3.83-3.8,13.45-1.81,20.68,5.53,20.09-2,43.15-18.25,56.16-4.09,3.27-8.73,6-11.9,10.17s-4.44,10.44-1.17,14.53c3.47,4.32,10,4.21,15.48,3.78,24.53-1.88,50-2,72.79,7.21,16.63,6.71,31,18.08,43.84,30.58,24.53,23.86,44.25,52.11,63.81,80.18,5.54,7.95,11.17,16.08,13.83,25.39s1.86,20.19-4.47,27.51c-5.5,6.38-14.21,9.07-22.61,9.73-27.52,2.17-52.62-13.94-77.56-25.8a273,273,0,0,0-101.79-25.94c-9.11-.51-18.59-.63-26.77-4.69-6-3-11.55-8.08-18.22-7.61-8.14.57-13.18,9.1-15.58,16.91-9.32,30.45-.41,63,3.45,94.62,5.2,42.51,1,86-11,127.13-3.09,10.63-6.9,21.46-14.47,29.53s-19.85,12.7-30,8.37c-15.7-6.66-17.21-27.94-16.41-45q4.74-100.71,1.37-201.56c-.58-17.29-2.67-37.12-16.89-47-16.69-11.56-42.5-3.43-57.45-17.17l-9.65-9.54c-2.15-6.67-4.34-13.41-8-19.43a59,59,0,0,1-3.85-6.61c-2.28-5.17-2-11.09-3.58-16.53-3.3-11.67-15.63-20.06-27.69-18.84l-5.56-2.46c-11.8-8.92-10.23-28.54-21.56-38.07-6-5-14.24-6.08-21.78-8.16-1.82-.5-3.81-1.24-4.62-2.94l-7.44-10.22,9.35-2a51.59,51.59,0,0,1,33.76-6.09l10,4.64c1,3.71,5.11,5.76,8.94,6s7.6-.88,11.43-1.18a54.94,54.94,0,0,1,8.88.24l5.2.43,5.08-5.61,11.24.21c32.56-.56,62.54,16,92,30,1.68.8,3.85,1.53,5.25.29a4.64,4.64,0,0,0,1.18-2.32,80.26,80.26,0,0,0-12.4-68.55c-1.59-2.15-3.35-4.38-3.64-7-.42-3.71,2.19-7.12,5.19-9.36,7.9-5.88,18.75-6.26,28.34-4,1.74.41,3.59.89,5.28.3,3-1,4-4.73,4.58-7.85,4.22-21.26,13.61-41.06,21.76-61.14s15.23-41.22,14.43-62.87l2.06-9.59q5.13-62.08,10.24-124.15c.62-7.48,1.14-15.46-2.48-22a19.25,19.25,0,0,0-34.39,1.29c-1.48,3.24-2,6.83-3.27,10.17a26.4,26.4,0,0,1-16,15.54c-4.61,1.57-9.56,1.81-14.27,3s-9.52,3.67-11.59,8.07l-35.87,4.72c-6.41-10.33-6.89-23.38-4.61-35.32s7-23.24,10.6-34.86c.91-3,1.54-6.75-.81-8.8a8,8,0,0,0-4.18-1.53c-15.56-2.4-31.89-.73-46.7-6.1a52.49,52.49,0,0,1-33-38.68c-1.17-6.09-1.32-12.64-4.64-17.87l-12.62,21.68a5.17,5.17,0,0,1-2,2.23,5.33,5.33,0,0,1-2.92.27l-12.35-1.24-10.92-2.6a4.92,4.92,0,0,0-1.9-1.5,5.1,5.1,0,0,0-3.34.48,70.81,70.81,0,0,1-21,4.47l-4.77,1.59a63.88,63.88,0,0,1-13.18-5.7c-.3-.17-.67-.34-.95-.16s-.3.51-.42.79c-.47,1.1-2.07,1-3.18.55a1.24,1.24,0,0,0-.75-.13,1.13,1.13,0,0,0-.58.46c-2.33,3-2.59,7.32-5,10.26l.72,5-12.25,6.53c-6.24,5.52-15,7.67-23.3,7s-16.21-4-23.36-8.32c-10.49-6.31-19.79-15-25.41-25.87-4.29-8.31-6.31-17.6-7.75-26.84a240.23,240.23,0,0,1-2.85-35.22c-.09-12,.67-24.45-3.52-35.73-2.29-6.18-6-11.83-7.61-18.22a29.68,29.68,0,0,1,10.51-30l8.53-6,4.43-.72c1.16-7.08,8.41-12.11,9.11-19.25l4.91-2.5a35.84,35.84,0,0,1,15.45-8.55c3.91-1,8.07-1.39,11.57-3.4l1-3.81c1.07-7.34,2.31-15.09,7.07-20.77l9.76-3a50.12,50.12,0,0,1,12-10.88,21.94,21.94,0,0,0,4.94-3.74c1.36-1.58,2.12-3.86,1.29-5.77L811,1622l7.27-5c8.84-11.47,25.5-16.13,39-10.94,4.46,1.72,8.51,4.36,12.86,6.36,2,.91,4.22,1.69,6.3,1a9.47,9.47,0,0,0,3.5-2.36c16.9-15.7,29.25-35.55,43.61-53.6s31.89-35,54.07-41.33c16.51-4.7,34.34-3,50.75,2s31.62,13.31,46.47,21.92c8.44,4.9,16.86,10,24,16.57,3.7,3.41,7.2,7.31,11.9,9.09,7.86,3,16.59-.77,23.77-5.14s14.49-9.59,22.89-9.76l14.46,2c15.15,0,30.72,0,44.84,5.46,2.79,1.09,5.55,2.4,8.53,2.76a32.17,32.17,0,0,0,6.79-.2c32.17-3,63.8,7.77,95.68,13.07,15,2.5,31.5,4.37,42.31,15.12,6.33,6.3,9.82,14.87,12.5,23.39,4.68,14.86,7.3,31.41,1.09,45.69l-4.4,6.82c-3.14,4.16-6.39,9.76-3.65,14.19a11.46,11.46,0,0,0,3.28,3.15c12.41,8.87,28.13,11.75,43.37,12.45s30.57-.52,45.73,1.21a119,119,0,0,1,18.79,3.71c12.24,3.47,24.36,9.3,32.06,19.41,12.62,16.55,10.45,39.79,17.49,59.37l1.17,5.77c2.14,5.36,2.5,11.23,3.43,16.92,1.46,8.94,4.35,17.57,7.22,26.15l-4.76,8.27a71.53,71.53,0,0,0,12.1,35.63l4.94,5.42c1,6,3.87,11.52,6.74,16.9Z"></path>
    <path data-name="4" data-official="Cobæa scandens" data-loc="Climbing Cobæa" data-plain="Mexico" d="M2052.14,1090.3a50.16,50.16,0,0,0-9.52-36.92c-3.73-4.93-8.45-9.28-10.85-15-5.67-13.53,3.49-28.24,11.2-40.72,13.3-21.56,23.46-45.63,25.23-70.9s-5.63-51.86-23.37-69.94c-10.12-10.3-23-17.42-33.8-27s-19.73-23.29-17.8-37.6c1.49-11.06,9.07-20.15,15.6-29.2,24.08-33.36,37.15-74,63.12-105.87A163.78,163.78,0,0,1,2120.11,617c18.18-10,40.49-18.94,46.13-38.88,4.82-17.09-6-35.66-21.35-44.67s-33.9-10.34-51.65-9.73c-26,.9-52.7,5.82-74.46,20.11l1.41-17c9.64-26.06,34.29-44.77,42.33-71.38,4.18-13.84,3.47-28.62,2.71-43.07l-3.29-63.29c-.21-3.91-.43-7.9-1.92-11.51-4.09-9.85-16.11-13.71-26.77-14a73.44,73.44,0,0,0-34.08,7.27c-3.23,1.56-7.18,3.35-10.16,1.35-1.85-1.24-2.62-3.57-3-5.77-2.57-16.93,12.59-30.79,26.23-41.14l60.63-46c7.23-5.5,15-11.8,16.7-20.73l6.7-9,1.92-19.36a31.57,31.57,0,0,1,1.9-9.4c2.63-6.19,8.77-10,13.55-14.72,6.72-6.64,11.06-15.84,11-25.28s-4.73-18.94-12.71-24-19.08-5.07-26.62.61L2073.11,121c1-11.51-15.22-17.66-25.61-12.6s-16.19,16.06-22.79,25.55-16.52,18.8-28,17.34c-8.3-1.05-14.73-7.45-21-13-34.47-30.49-84-43.13-128.83-32.9a214.1,214.1,0,0,0-42.54-85.64c-3.26-4-7.16-8.1-12.27-8.64-4.08-.44-8,1.54-11.57,3.55a238.73,238.73,0,0,0-90.21,89.74c-4.06,7.16-7.88,14.69-14,20.2-6.74,6.08-15.61,9.09-24,12.6a183,183,0,0,0-85.87,74.6c-12.56-39.82-49.19-66.33-83.6-89.95L1432.14,87c-19.09-13.11-38.36-26.31-59.71-35.27-22.68-9.52-47.1-14-71.29-18.43-90.06-16.45-181.68-33-272.66-22.75-10.94,1.23-23.47,3.94-28.53,13.72-5.41,10.45,1.07,23.51,10.14,31s20.49,11.66,29.76,18.92c11.27,8.81,18.64,21.56,25.73,34q20.14,35.28,40.28,70.56a231.92,231.92,0,0,1-113-25.73c-21.93-11.35-42.14-26.27-65.35-34.7s-51.35-9.19-70.53,6.36c-18.92,15.33-24.09,41.79-25.89,66.08a425,425,0,0,0,9.64,126.41L843,336.61l-.86,8c-8.11,6.53-19.76,6.76-29.8,4s-19.19-8-28.94-11.67c-18.75-7-39.22-7.92-59.25-7.58-15.76.27-31.81,1.31-46.51,7-11.62,4.5-22.1,11.79-34,15.38-10.66,3.21-22,3.31-32.93,5.48s-22.19,7-27.76,16.68c-3.51,6.09-4.4,13.51-8.43,19.27-5.49,7.85-15.42,10.91-24.31,14.49-46.73,18.81-78,62.43-106.59,103.89l-1.48,17.49,11.36,19.63c3.11,6.16,6.24,13.51,3.09,19.64-.8,1.56-2,3-2.26,4.71-.67,4.3,4.55,7.7,4.3,12-.15,2.73-2.48,5-2.49,7.75s2.12,4.76,3.12,7.2c1.17,2.86.77,6.1.35,9.16l-2.45,7.55c-2.06,5.27.27,11.09,1.84,16.52,7.09,24.4-1.25,50.33-1.8,75.72l2.75,4.48c1.06,4.7,4.57,8.44,8.26,11.55s7.74,5.89,10.6,9.77a6.62,6.62,0,0,1,1.57,3.94c-.07,2.76-3,4.73-3.35,7.47-.21,1.49.36,3,.65,4.44a11.91,11.91,0,0,1-2.21,9.39l.43,2.61c9.49,7.34,17.32,16.59,25.06,25.76,3.13,3.7,6.31,7.49,8.06,12a22.29,22.29,0,0,1-2.7,20.74A12.43,12.43,0,0,1,519,831.6l7.54,20.53c30.22,28.69,62.35,55.76,98.54,76.42s76.73,34.79,118.38,36.14c61.64,2,121.74-24.2,170.14-62.41,15.66-12.37,30.81-26.29,49.64-32.92,4.05-1.42,8.41-2.5,12.63-1.67,12.55,2.49,16,19.81,11.1,31.65s-14.73,21.09-19.56,32.93-1.33,29.18,11.24,31.57c3.4.65,7,.06,10.35.72,10.42,2,15,14.08,17.77,24.34,2,7.45,4,15.61.81,22.65-2.25,5-6.77,8.61-11.45,11.5a77.36,77.36,0,0,1-49.67,10.87c-12.08-1.49-23.89-5.85-36-5.33-25.51,1.1-46.87,27.48-42.66,52.66l-1.38,16.61-1,9.06a18.78,18.78,0,0,1-.45,9c-1,3.14-2.71,6-3.77,9.09-2.61,7.7-.71,16.11,1.2,24a6.67,6.67,0,0,0-5.48,3.21,19.45,19.45,0,0,0-2.34,6.17l-.91,3.66c1.62,2,1.47,4.81,1.47,7.37a40.87,40.87,0,0,0,.79,7.8,8.72,8.72,0,0,0,2,4.6c.88.88,2.08,1.42,2.78,2.44l.57.85a8.07,8.07,0,0,1-4,4.56c-1.78,1-3.75,1.78-5.47,3a13.08,13.08,0,0,0-5.6,9.44,11.08,11.08,0,0,1-.3,2.23,7.83,7.83,0,0,1-2.47,3.2l-3.84,4.29c-1.1,7.48-4.81,14.28-8,21.12a3.05,3.05,0,0,0-.43,1.79c.24,1.35,2,1.8,2.7,3s.2,2.46-.26,3.64l-3.24,8.37c2.63-1.39,5.93,1.27,6.34,4.22s-1.07,5.8-2.5,8.41l-1.77,3.22-10.35,8,.58,17.14A219.27,219.27,0,0,1,865,1320.09c9.45,8.38,18.23,17.61,28.68,24.71a88.54,88.54,0,0,0,31.59,13.41c8,1.66,16.3,2.28,23.51,6,5.27,2.74,9.58,7,13.8,11.13l57.85,57.1c9.74,9.62,21.24,19.94,34.91,19.14,6.8-.4,13.09-3.58,19.14-6.71,66.3-34.3,133.45-71.48,181.37-128.71,5.46-6.52,10.79-13.56,12.7-21.85,1.71-7.46.86-16.23,6.21-21.7,3.51-3.6,8.78-4.69,13.69-5.8a186,186,0,0,0,52.75-20.92c4.22-2.47,8.46-5.23,11.16-9.29s3.65-9.21,4.58-14.1a353.88,353.88,0,0,1,28-85.64l-4.28-18.5-6.37-59.29c-.54-5-.71-11,3.28-14.13,2.85-2.24,6.87-2.12,10.44-1.47,27.45,5,45.18,33.54,72,41.22,6.78,1.94,14.7,2.93,18.78,8.68,1.94,2.73,2.64,6.11,3.3,9.38q7.59,37.61,15.17,75.23c.84,4.14,1.67,8.49.48,12.55a24.65,24.65,0,0,1-4.14,7.46,195.65,195.65,0,0,1-63.14,55.67c-11.87,6.55-24.57,12-34.74,20.94-18.45,16.26-25.91,43.89-18.17,67.23l1.11,17.36a65.26,65.26,0,0,0-13.45,37.58c-.29,9.65,1.58,19.27,1.34,28.92s-3.07,20-10.66,25.92c-9.93,7.8-24,5.71-36.58,4.33s-27.67-.42-34.28,10.33c-5.37,8.74-2.52,20.11,1.57,29.51,3,7,6.75,13.78,12.21,19,9.79,9.46,24,12.83,37.63,13.37s27.24-1.34,40.84-.58c3.5.2,7.1.6,10.18,2.27,6.88,3.73,9.2,12.93,7.38,20.54s-6.82,14-11.68,20.13L1370,1589c6.33,6.3,9.82,14.87,12.5,23.39,4.68,14.86,7.3,31.41,1.09,45.69l-4.4,6.82c-3.14,4.16-6.39,9.76-3.65,14.19a11.46,11.46,0,0,0,3.28,3.15l28.9-2.24a80.89,80.89,0,0,0,46.32-23.86c3-3.18,6-6.71,10-8.45,4.94-2.13,10.6-1.2,15.9-.23l14.08,2.59c4.09.75,8.46,1.64,11.38,4.61,3.48,3.54,3.9,9,4.13,13.95l1.11,24.8,8.12,25.61c12.62,16.55,10.45,39.79,17.49,59.37l1.17,5.77c2.14,5.36,2.5,11.23,3.43,16.92,1.46,8.94,4.35,17.57,7.22,26.15l-4.76,8.27a71.53,71.53,0,0,0,12.1,35.63l4.94,5.42c1,6,3.87,11.52,6.74,16.9l-14,35.08,10.26.43c24.33,32.59,58.52,56.18,92.08,79.16,5.13,3.51,10.6,7.15,16.81,7.57,8.12.55,15.46-4.46,21.9-9.43a439.23,439.23,0,0,0,128.24-159c1.78-3.74,3.88-7.86,7.79-9.22,6.09-2.11,11.85,3.68,15.64,8.91q13.09,18.06,24.68,37.15c4,6.52,7.92,13.95,6.23,21.39s-8.45,12.39-14.73,16.68c-19.35,13.24-39.86,28-47.59,50.09-6.1,17.47-3.24,37.26-10.27,54.38-10.63,25.88-39.92,37.91-66.6,46.32s-56.2,17.72-70.49,41.77c-4.73,7.95-7.5,17.18-13.76,24-12.74,13.88-35.13,13.2-50.57,24A40.38,40.38,0,0,0,1587,2204l-1.73,16.79c-2.14,28.2,13,54.56,18.42,82.32,8.56,44.17-7.92,88.74-18.61,132.44a521.45,521.45,0,0,0-14.81,112c-.37,16,0,32.25,4.45,47.63s13.27,30,26.78,38.6l11,3.35c29.59,20.71,65.26,30.44,100.15,39.8,13,3.5,26.24,7,39.72,6.8,23.19-.38,45.17-12.05,61.74-28.28s28.27-36.76,38.1-57.77a442.1,442.1,0,0,0,41.41-179.94c.12-7.69.9-16.91,7.69-20.53,3.58-1.9,7.88-1.59,11.88-2.29,12.35-2.17,20.72-13.57,26.79-24.53a223.42,223.42,0,0,0,27.76-111.17l-3.23-23.83a97.93,97.93,0,0,0-24.26-77.79c-8.09-8.9-17.79-16.23-25.78-25.22-24.14-27.2-29.7-65.67-34.22-101.75-.9-7.24-1.75-14.9,1.22-21.57,4.77-10.7,17.3-15,27.83-20.13,30.21-14.79,51.74-46,54.87-79.47,1.43-15.31-.74-30.73-3.53-45.85a551.75,551.75,0,0,0-34.16-114.15l-4.37-17.83c-4.74-11.93,3.65-25.69,14.84-32s24.46-7.27,37.12-9.41c28.88-4.89,56.77-16.71,79.34-35.38,29.2-24.16,48.4-58.78,59.23-95.09s13.8-74.48,14.9-112.36c.65-22.11.64-44.5-4.52-66-3.91-16.32-11.56-32.85-25.79-41.75-17-10.67-39-8-58.41-13.24l1.17-21.24,8.49-180Z"></path>
    <path data-name="4a" data-official="" data-loc="Stamen" data-plain="" d="M1224.32,2841.59a141,141,0,0,1-3.22-56.14c1.62-11.11,4.56-22,6.41-33,10.74-64.14-15.45-128.32-19.62-193.22-.84-13,0-27.88,10.07-36.15,8.85-7.29,21.69-6.69,33-4.51,9.49,1.84,19.44,4.93,25.52,12.44,5.52,6.83,6.83,16,8.39,24.66,6.63,36.61,21.47,72.63,17.92,109.67-3.62,37.72-25.85,70.95-35.94,107.49a170.54,170.54,0,0,0-5.89,35.83c-.6,10.63-.16,21.57,3.82,31.44,3.13,7.78,8.3,14.55,12.19,22s6.49,16.17,4,24.16c-2.79,8.8-11.37,14.77-20.32,17s-18.35,1.39-27.53.52c-8.53-.8-18.29-2.35-22.74-9.66-4-6.59-1.86-15.21,1.77-22s8.66-13,10.55-20.48Z"></path>
    <path data-name="5a" data-official="" data-loc="Pistil of Collomia gracilis" data-plain="" d="M1428.69,2778.94a1181.09,1181.09,0,0,1,4.35-152.35c3.36-36,7.81-74.71-10.3-106-4.4-7.61-10.3-16-7.52-24.36,1.61-4.85,5.87-8.31,10.2-11,7.8-4.89,16.79-8.34,26-8.07s18.58,4.72,23.21,12.68c4.4,7.54,4.05,16.83,3.57,25.55q-5.85,107.09-11.69,214.17c-.84,15.35-1.68,30.84.75,46a217.9,217.9,0,0,0,6.09,25.13l20.43,71.71c2.38,8.34,4.67,17.65.66,25.34-5.07,9.73-17.59,12.24-28.47,13.67l-22.49,2.94c-6.56.86-13.29,1.71-19.72.15s-12.58-6.09-14.07-12.54c-2.15-9.27,5.56-17.68,8.14-26.84,2.49-8.81.13-18.14-1-27.22a103.65,103.65,0,0,1,8.1-55.06Z"></path>
    <path data-name="5b" data-official="" data-loc="Section of Ovary" data-plain="" d="M1550.44,2841.56c-10.36-1.93-18.27-10.93-21.91-20.82s-3.76-20.69-3.84-31.23c-.16-21.55.24-44.87,13.32-62,8.61-11.26,21.81-18.32,35.5-22s28-4.16,42.17-4.44c9.74-.19,20.12-.11,28.32,5.16,5.08,3.26,8.82,8.24,12,13.4,19.6,32.19,18.09,76-3.69,106.73-4.82,6.8-10.64,13.22-13,21.23-2.25,7.79-1,16.53-4.68,23.76-4.06,7.95-13.05,12-21.65,14.43a115.18,115.18,0,0,1-31.81,4.36c-8.08,0-17.33-1.59-21.61-8.45-5.89-9.43,1.23-22.83-4.22-32.51Z"></path>
</svg>
